<?xml version="1.0" standalone="no"?><!DOCTYPE svg PUBLIC "-//W3C//DTD SVG 1.1//EN" "http://www.w3.org/Graphics/SVG/1.1/DTD/svg11.dtd" ><svg xmlns="http://www.w3.org/2000/svg"><metadata></metadata><defs><font id="2.304;JB;JetBrainsMono-Thin" horiz-adv-x="600"><font-face font-family="JetBrains Mono Thin" font-weight="100" font-stretch="normal" units-per-em="1000" panose-1="2 0 0 9 0 0 0 0 0 0" ascent="1020" descent="-300" x-height="0" bbox="40 -180 560 830" underline-thickness="50" underline-position="-155" unicode-range="U+0022-007d" /><missing-glyph horiz-adv-x="600" d="M90 0 l0 730 l420 0 l0 -730 l-420 0 ZM140 109 l300 571 l-300 0 l0 -571 ZM160 50 l300 0 l0 571 l-300 -571 Z" /><glyph glyph-name="A" unicode="A" d="M68 0 l201 730 l62 0 l201 -730 l-52 0 l-56 210 l-250 0 l-56 -210 l-50 0 ZM186 255 l226 0 l-79 295 q-14 54 -22.5 90.5 q-8.5 36.5 -10.5 47.5 q-2 -11 -11 -47.5 q-9 -36.5 -23 -90.5 l-80 -295 Z" /><glyph glyph-name="B" unicode="B" d="M110 0 l0 730 l188 0 q91 0 145.5 -51 q54.5 -51 54.5 -137 q0 -37 -16 -71 q-16 -34 -44 -57 q-28 -23 -63 -30 l0 -3 q40 -6 71.5 -32.5 q31.5 -26.5 50 -65 q18.5 -38.5 18.5 -83.5 q0 -91 -57.5 -145.5 q-57.5 -54.5 -156.5 -54.5 l-191 0 ZM160 398 l138 0 q71 0 110.5 38 q39.5 38 39.5 105 q0 67 -40 105 q-40 38 -110 38 l-138 0 l0 -286 ZM160 46 l141 0 q77 0 121 41 q44 41 44 112 q0 71 -44 112.5 q-44 41.5 -121 41.5 l-141 0 l0 -307 Z" /><glyph glyph-name="C" unicode="C" d="M310 -10 q-91 0 -146 54.5 q-55 54.5 -55 145.5 l0 350 q0 92 55 146 q55 54 146 54 q93 0 148.5 -57 q55.5 -57 55.5 -153 l-50 0 q0 77 -41.5 121 q-41.5 44 -112.5 44 q-70 0 -110.5 -41.5 q-40.5 -41.5 -40.5 -113.5 l0 -350 q0 -72 40.5 -113.5 q40.5 -41.5 110.5 -41.5 q72 0 113 44.5 q41 44.5 41 120.5 l50 0 q0 -96 -55.5 -153 q-55.5 -57 -148.5 -57 Z" /><glyph glyph-name="D" unicode="D" d="M110 0 l0 730 l160 0 q68 0 118.5 -27.5 q50.5 -27.5 78.5 -77 q28 -49.5 28 -115.5 l0 -290 q0 -66 -28 -115.5 q-28 -49.5 -78.5 -77 q-50.5 -27.5 -118.5 -27.5 l-160 0 ZM160 46 l110 0 q79 0 127 47.5 q48 47.5 48 126.5 l0 290 q0 78 -48.5 126 q-48.5 48 -126.5 48 l-110 0 l0 -638 Z" /><glyph glyph-name="E" unicode="E" d="M120 0 l0 730 l390 0 l0 -46 l-340 0 l0 -281 l305 0 l0 -45 l-305 0 l0 -312 l340 0 l0 -46 l-390 0 Z" /><glyph glyph-name="F" unicode="F" d="M115 0 l0 730 l410 0 l0 -46 l-360 0 l0 -292 l325 0 l0 -46 l-325 0 l0 -346 l-50 0 Z" /><glyph glyph-name="G" unicode="G" d="M306 -10 q-91 0 -146 54.5 q-55 54.5 -55 145.5 l0 350 q0 92 55 146 q55 54 146 54 q93 0 148.5 -57 q55.5 -57 55.5 -153 l-50 0 q0 77 -41.5 121 q-41.5 44 -112.5 44 q-70 0 -110.5 -41.5 q-40.5 -41.5 -40.5 -113.5 l0 -350 q0 -72 40.5 -113.5 q40.5 -41.5 110.5 -41.5 q72 0 113 44.5 q41 44.5 41 120.5 l0 118 l-173 0 l0 46 l223 0 l0 -164 q0 -96 -55.5 -153 q-55.5 -57 -148.5 -57 Z" /><glyph glyph-name="H" unicode="H" d="M110 0 l0 730 l50 0 l0 -328 l280 0 l0 328 l50 0 l0 -730 l-50 0 l0 357 l-280 0 l0 -357 l-50 0 Z" /><glyph glyph-name="I" unicode="I" d="M120 0 l0 46 l156 0 l0 638 l-156 0 l0 46 l360 0 l0 -46 l-154 0 l0 -638 l154 0 l0 -46 l-360 0 Z" /><glyph glyph-name="J" unicode="J" d="M275 -10 q-96 0 -150.5 56 q-54.5 56 -54.5 154 l50 0 q0 -77 41.5 -121 q41.5 -44 113.5 -44 q72 0 113.5 44 q41.5 44 41.5 120 l0 531 l50 0 l0 -531 q0 -97 -55 -153 q-55 -56 -150 -56 Z" /><glyph glyph-name="K" unicode="K" d="M110 0 l0 730 l50 0 l0 -329 l153 0 l162 329 l55 0 l-172 -349 l182 -381 l-59 0 l-169 356 l-152 0 l0 -356 l-50 0 Z" /><glyph glyph-name="L" unicode="L" d="M140 0 l0 730 l50 0 l0 -684 l355 0 l0 -46 l-405 0 Z" /><glyph glyph-name="M" unicode="M" d="M92 0 l0 730 l71 0 l138 -369 l136 369 l71 0 l0 -730 l-49 0 l0 440 q0 51 1 102.5 q1 51.5 3 94.5 q2 43 4 70 l-139 -382 l-55 0 l-142 380 q3 -27 5 -70 q2 -43 3.5 -93.5 q1.5 -50.5 1.5 -101.5 l0 -440 l-49 0 Z" /><glyph glyph-name="N" unicode="N" d="M110 0 l0 730 l68 0 l268 -675 q-1 20 -2 44 q-1 24 -1.5 44 q-0.5 20 -0.5 27 l0 560 l48 0 l0 -730 l-69 0 l-265 675 q1 -14 1.5 -45.5 q0.5 -31.5 0.5 -69.5 l0 -560 l-48 0 Z" /><glyph glyph-name="O" unicode="O" d="M300 -10 q-88 0 -141.5 54.5 q-53.5 54.5 -53.5 145.5 l0 350 q0 91 53.5 145.5 q53.5 54.5 141.5 54.5 q89 0 142 -54.5 q53 -54.5 53 -145.5 l0 -350 q0 -91 -53 -145.5 q-53 -54.5 -142 -54.5 ZM300 34 q69 0 107 41 q38 41 38 115 l0 350 q0 74 -38.5 115 q-38.5 41 -106.5 41 q-68 0 -106.5 -41 q-38.5 -41 -38.5 -115 l0 -350 q0 -74 38 -115 q38 -41 107 -41 Z" /><glyph glyph-name="P" unicode="P" d="M110 0 l0 730 l215 0 q96 0 153 -55.5 q57 -55.5 57 -147.5 q0 -92 -57.5 -147.5 q-57.5 -55.5 -152.5 -55.5 l-165 0 l0 -324 l-50 0 ZM160 370 l165 0 q73 0 116.5 42.5 q43.5 42.5 43.5 114.5 q0 73 -43 115 q-43 42 -117 42 l-165 0 l0 -314 Z" /><glyph glyph-name="Q" unicode="Q" d="M449 -180 l-106 173 q-9 -1 -20 -2 q-11 -1 -22 -1 q-89 0 -142.5 54.5 q-53.5 54.5 -53.5 145.5 l0 350 q0 92 53 146 q53 54 143 54 q60 0 103.5 -26 q43.5 -26 67 -71 q23.5 -45 23.5 -103 l0 -350 q0 -63 -26 -110 q-26 -47 -74 -70 l115 -190 l-61 0 ZM301 35 q68 0 106 41 q38 41 38 114 l0 350 q0 73 -38 114 q-38 41 -106 41 q-69 0 -107.5 -40.5 q-38.5 -40.5 -38.5 -114.5 l0 -350 q0 -73 38.5 -114 q38.5 -41 107.5 -41 Z" /><glyph glyph-name="R" unicode="R" d="M110 0 l0 730 l205 0 q97 0 153.5 -54.5 q56.5 -54.5 56.5 -147.5 q0 -79 -44.5 -132 q-44.5 -53 -121.5 -64 l171 -332 l-60 0 l-165 330 l-145 0 l0 -330 l-50 0 ZM160 375 l155 0 q73 0 116.5 42.5 q43.5 42.5 43.5 112.5 q0 71 -43.5 112.5 q-43.5 41.5 -116.5 41.5 l-155 0 l0 -309 Z" /><glyph glyph-name="S" unicode="S" d="M305 -10 q-65 0 -114.5 26.5 q-49.5 26.5 -77.5 74 q-28 47.5 -28 109.5 l49 0 q0 -73 47.5 -119 q47.5 -46 123.5 -46 q71 0 116 40.5 q45 40.5 45 104.5 q0 58 -31 101.5 q-31 43.5 -84 59.5 l-102 31 q-66 20 -105 70.5 q-39 50.5 -39 116.5 q0 54 25 94.5 q25 40.5 70 63.5 q45 23 104 23 q59 0 104 -24.5 q45 -24.5 70 -68.5 q25 -44 25 -102 l-49 0 q0 68 -41.5 109.5 q-41.5 41.5 -109.5 41.5 q-66 0 -107.5 -37 q-41.5 -37 -41.5 -96 q0 -51 29 -90 q29 -39 78 -55 l102 -32 q70 -22 111 -76.5 q41 -54.5 41 -126.5 q0 -57 -26.5 -100.5 q-26.5 -43.5 -73.5 -68 q-47 -24.5 -110 -24.5 Z" /><glyph glyph-name="T" unicode="T" d="M276 0 l0 685 l-216 0 l0 45 l480 0 l0 -45 l-214 0 l0 -685 l-50 0 Z" /><glyph glyph-name="U" unicode="U" d="M301 -10 q-88 0 -140.5 54.5 q-52.5 54.5 -52.5 145.5 l0 540 l50 0 l0 -540 q0 -73 38 -114 q38 -41 105 -41 q67 0 104 41 q37 41 37 114 l0 540 l50 0 l0 -540 q0 -91 -52 -145.5 q-52 -54.5 -139 -54.5 Z" /><glyph glyph-name="V" unicode="V" d="M268 0 l-200 730 l53 0 l148 -550 q12 -43 20 -81.5 q8 -38.5 12 -58.5 q4 20 12.5 58.5 q8.5 38.5 20.5 81.5 l149 550 l49 0 l-200 -730 l-64 0 Z" /><glyph glyph-name="W" unicode="W" d="M130 0 l-90 730 l46 0 l68 -540 q3 -18 5.5 -46 q2.5 -28 6 -57 q3.5 -29 5.5 -52 q3 23 6.5 52 q3.5 29 7.5 57 q4 28 6 46 l80 540 l64 0 l77 -540 q3 -18 6 -46 q3 -28 6.5 -57 q3.5 -29 6.5 -52 q3 23 7 52 q4 29 7.5 57 q3.5 28 5.5 46 l62 540 l47 0 l-91 -730 l-72 0 l-75 530 q-5 38 -10 84.5 q-5 46.5 -9 75.5 q-4 -28 -9.5 -74.5 q-5.5 -46.5 -11.5 -85.5 l-82 -530 l-70 0 Z" /><glyph glyph-name="X" unicode="X" d="M53 0 l217 380 l-202 350 l56 0 l122 -222 q9 -17 25.5 -45 q16.5 -28 28.5 -48 q11 20 27.5 48 q16.5 28 26.5 45 l124 222 l54 0 l-202 -348 l217 -382 l-56 0 l-136 252 q-9 16 -25.5 44 q-16.5 28 -28.5 49 q-12 -21 -28 -49 q-16 -28 -25 -44 l-140 -252 l-55 0 Z" /><glyph glyph-name="Y" unicode="Y" d="M275 0 l0 280 l-225 450 l53 0 l165 -330 q11 -22 20 -41 q9 -19 13 -29 q5 9 13 28.5 q8 19.5 19 41.5 l165 330 l52 0 l-225 -450 l0 -280 l-50 0 Z" /><glyph glyph-name="a" unicode="a" d="M266 -10 q-85 0 -133.5 47.5 q-48.5 47.5 -48.5 121.5 q0 71 46.5 116 q46.5 45 122.5 45 l187 0 l0 55 q0 68 -35.5 104 q-35.5 36 -100.5 36 q-63 0 -101.5 -29 q-38.5 -29 -41.5 -76 l-50 0 q4 68 56.5 109 q52.5 41 137.5 41 q89 0 137 -48 q48 -48 48 -137 l0 -375 l-50 0 l0 91 q-17 -46 -63.5 -73.5 q-46.5 -27.5 -110.5 -27.5 ZM280 35 q74 0 117 38 q43 38 43 104 l0 99 l-188 0 q-52 0 -85 -32 q-33 -32 -33 -81 q0 -57 39.5 -92.5 q39.5 -35.5 106.5 -35.5 Z" /><glyph glyph-name="b" unicode="b" d="M313 -10 q-56 0 -96 25 q-40 25 -57 68 l0 -83 l-50 0 l0 730 l50 0 l0 -263 q17 43 57 68 q40 25 96 25 q83 0 132.5 -55 q49.5 -55 49.5 -145 l0 -171 q0 -90 -49.5 -144.5 q-49.5 -54.5 -132.5 -54.5 ZM303 33 q67 0 104.5 41.5 q37.5 41.5 37.5 114.5 l0 171 q0 74 -37.5 115.5 q-37.5 41.5 -104.5 41.5 q-68 0 -105.5 -41.5 q-37.5 -41.5 -37.5 -115.5 l0 -171 q0 -73 38 -114.5 q38 -41.5 105 -41.5 Z" /><glyph glyph-name="c" unicode="c" d="M309 -10 q-91 0 -144 54.5 q-53 54.5 -53 145.5 l0 170 q0 91 53.5 145.5 q53.5 54.5 143.5 54.5 q91 0 144.5 -51.5 q53.5 -51.5 53.5 -138.5 l-50 0 q0 68 -39.5 106 q-39.5 38 -108.5 38 q-68 0 -107.5 -40.5 q-39.5 -40.5 -39.5 -113.5 l0 -170 q0 -72 39.5 -113 q39.5 -41 107.5 -41 q69 0 108.5 38.5 q39.5 38.5 39.5 105.5 l50 0 q0 -87 -53.5 -138.5 q-53.5 -51.5 -144.5 -51.5 Z" /><glyph glyph-name="d" unicode="d" d="M287 -10 q-82 0 -132 54.5 q-50 54.5 -50 144.5 l0 171 q0 90 50 145 q50 55 132 55 q56 0 96 -25 q40 -25 57 -68 l0 263 l50 0 l0 -730 l-50 0 l0 83 q-17 -43 -57 -68 q-40 -25 -96 -25 ZM297 33 q68 0 105.5 41.5 q37.5 41.5 37.5 114.5 l0 171 q0 74 -37.5 115.5 q-37.5 41.5 -105.5 41.5 q-67 0 -104.5 -41.5 q-37.5 -41.5 -37.5 -115.5 l0 -171 q0 -73 37.5 -114.5 q37.5 -41.5 104.5 -41.5 Z" /><glyph glyph-name="e" unicode="e" d="M301 -10 q-92 0 -144 54.5 q-52 54.5 -52 145.5 l0 170 q0 91 52.5 145.5 q52.5 54.5 143.5 54.5 q91 0 142.5 -54.5 q51.5 -54.5 51.5 -145.5 l0 -95 l-340 0 l0 -75 q0 -72 38 -114 q38 -42 108 -42 q56 0 94 27 q38 27 46 74 l50 0 q-12 -67 -62.5 -106 q-50.5 -39 -127.5 -39 ZM155 308 l290 0 l0 52 q0 72 -37.5 114 q-37.5 42 -106.5 42 q-70 0 -108 -41.5 q-38 -41.5 -38 -114.5 l0 -52 Z" /><glyph glyph-name="f" unicode="f" d="M235 0 l0 429 l-170 0 l0 45 l170 0 l0 131 q0 59 34.5 92 q34.5 33 95.5 33 l153 0 l0 -45 l-153 0 q-38 0 -59 -21 q-21 -21 -21 -59 l0 -131 l233 0 l0 -45 l-233 0 l0 -429 l-50 0 Z" /><glyph glyph-name="g" unicode="g" d="M174 -180 l0 45 l145 0 q121 0 121 120 l0 156 q-14 -47 -54.5 -74 q-40.5 -27 -98.5 -27 q-82 0 -132 54.5 q-50 54.5 -50 144.5 l0 121 q0 90 50 145 q50 55 132 55 q58 0 98.5 -27 q40.5 -27 54.5 -74 l0 91 l50 0 l0 -565 q0 -165 -171 -165 l-145 0 ZM297 83 q68 0 105.5 41.5 q37.5 41.5 37.5 114.5 l0 121 q0 74 -37.5 115.5 q-37.5 41.5 -105.5 41.5 q-67 0 -104.5 -41.5 q-37.5 -41.5 -37.5 -115.5 l0 -121 q0 -73 37.5 -114.5 q37.5 -41.5 104.5 -41.5 Z" /><glyph glyph-name="h" unicode="h" d="M110 0 l0 730 l50 0 l0 -270 l0 0 q15 47 55 73.5 q40 26.5 98 26.5 q81 0 130 -52 q49 -52 49 -141 l0 -367 l-50 0 l0 360 q0 74 -37 115.5 q-37 41.5 -102 41.5 q-66 0 -104.5 -42 q-38.5 -42 -38.5 -115 l0 -360 l-50 0 Z" /><glyph glyph-name="i" unicode="i" d="M95 0 l0 45 l201 0 l0 460 l-176 0 l0 45 l226 0 l0 -505 l189 0 l0 -45 l-440 0 ZM315 655 q-26 0 -42 15 q-16 15 -16 40 q0 25 16 40 q16 15 42 15 q26 0 42 -15 q16 -15 16 -40 q0 -25 -16 -40 q-16 -15 -42 -15 Z" /><glyph glyph-name="j" unicode="j" d="M110 -180 l0 45 l116 0 q71 0 107.5 37.5 q36.5 37.5 36.5 107.5 l0 495 l-265 0 l0 45 l315 0 l0 -540 q0 -89 -51 -139.5 q-51 -50.5 -143 -50.5 l-116 0 ZM380 655 q-26 0 -42 15 q-16 15 -16 40 q0 25 16 40 q16 15 42 15 q26 0 42 -15 q16 -15 16 -40 q0 -25 -16 -40 q-16 -15 -42 -15 Z" /><glyph glyph-name="k" unicode="k" d="M115 0 l0 730 l50 0 l0 -421 l129 0 l171 241 l58 0 l-184 -262 l194 -288 l-59 0 l-179 264 l-130 0 l0 -264 l-50 0 Z" /><glyph glyph-name="l" unicode="l" d="M370 0 q-67 0 -103.5 35 q-36.5 35 -36.5 100 l0 550 l-180 0 l0 45 l230 0 l0 -595 q0 -90 90 -90 l170 0 l0 -45 l-170 0 Z" /><glyph glyph-name="m" unicode="m" d="M75 0 l0 550 l44 0 l0 -75 l3 0 q4 40 29 62.5 q25 22.5 65 22.5 q38 0 65 -21.5 q27 -21.5 37 -58.5 q6 37 31.5 58.5 q25.5 21.5 66.5 21.5 q50 0 79.5 -35 q29.5 -35 29.5 -94 l0 -431 l-49 0 l0 425 q0 43 -20 68 q-20 25 -55 25 q-35 0 -56 -25 q-21 -25 -21 -68 l0 -425 l-48 0 l0 425 q0 43 -20 68 q-20 25 -55 25 q-35 0 -56 -25 q-21 -25 -21 -68 l0 -425 l-49 0 Z" /><glyph glyph-name="n" unicode="n" d="M110 0 l0 550 l50 0 l0 -90 q15 47 54.5 73.5 q39.5 26.5 98.5 26.5 q81 0 130 -52 q49 -52 49 -141 l0 -367 l-50 0 l0 360 q0 74 -37 115.5 q-37 41.5 -102 41.5 q-66 0 -104.5 -42 q-38.5 -42 -38.5 -115 l0 -360 l-50 0 Z" /><glyph glyph-name="o" unicode="o" d="M300 -10 q-88 0 -141.5 54.5 q-53.5 54.5 -53.5 145.5 l0 170 q0 91 53.5 145.5 q53.5 54.5 141.5 54.5 q89 0 142 -54.5 q53 -54.5 53 -145.5 l0 -170 q0 -91 -53 -145.5 q-53 -54.5 -142 -54.5 ZM300 34 q69 0 107 41 q38 41 38 115 l0 170 q0 74 -38.5 115 q-38.5 41 -106.5 41 q-68 0 -106.5 -41 q-38.5 -41 -38.5 -115 l0 -170 q0 -74 38 -115 q38 -41 107 -41 Z" /><glyph glyph-name="p" unicode="p" d="M110 -180 l0 730 l50 0 l0 -83 q16 43 56 68 q40 25 97 25 q83 0 132.5 -54.5 q49.5 -54.5 49.5 -144.5 l0 -171 q0 -60 -23 -105 q-23 -45 -63.5 -70 q-40.5 -25 -95.5 -25 q-56 0 -96.5 25 q-40.5 25 -56.5 68 l0 -263 l-50 0 ZM303 33 q67 0 104.5 41.5 q37.5 41.5 37.5 115.5 l0 171 q0 74 -37.5 115 q-37.5 41 -104.5 41 q-67 0 -105 -41 q-38 -41 -38 -115 l0 -171 q0 -74 38 -115.5 q38 -41.5 105 -41.5 Z" /><glyph glyph-name="q" unicode="q" d="M440 -180 l0 255 l-3 0 q-18 -40 -57.5 -62.5 q-39.5 -22.5 -92.5 -22.5 q-82 0 -132 55 q-50 55 -50 145 l0 171 q0 90 50 144.5 q50 54.5 132 54.5 q53 0 92.5 -22.5 q39.5 -22.5 57.5 -62.5 l3 0 l0 75 l50 0 l0 -730 l-50 0 ZM297 33 q68 0 105.5 42 q37.5 42 37.5 115 l0 171 q0 74 -37.5 115 q-37.5 41 -105.5 41 q-67 0 -104.5 -41 q-37.5 -41 -37.5 -115 l0 -171 q0 -73 37.5 -115 q37.5 -42 104.5 -42 Z" /><glyph glyph-name="r" unicode="r" d="M132 0 l0 550 l50 0 l0 -86 q16 45 53.5 70.5 q37.5 25.5 92.5 25.5 q91 0 135.5 -51 q44.5 -51 44.5 -144 l0 -50 l-50 0 l0 50 q0 74 -35 113 q-35 39 -103 39 q-67 0 -102.5 -41 q-35.5 -41 -35.5 -116 l0 -360 l-50 0 Z" /><glyph glyph-name="s" unicode="s" d="M269 -10 q-75 0 -123.5 40.5 q-48.5 40.5 -55.5 104.5 l50 0 q8 -43 42.5 -71.5 q34.5 -28.5 86.5 -28.5 l73 0 q55 0 87 28.5 q32 28.5 32 76.5 q0 43 -25.5 76 q-25.5 33 -69.5 38 l-121 15 q-70 9 -109 45 q-39 36 -39 97 q0 68 47.5 108.5 q47.5 40.5 126.5 40.5 l54 0 q75 0 122.5 -37 q47.5 -37 54.5 -98 l-50 0 q-6 39 -40 64.5 q-34 25.5 -87 25.5 l-54 0 q-56 0 -89.5 -28 q-33.5 -28 -33.5 -75 q0 -41 27 -64 q27 -23 78 -30 l119 -15 q63 -8 100.5 -51.5 q37.5 -43.5 37.5 -104.5 q0 -71 -45.5 -114 q-45.5 -43 -122.5 -43 l-73 0 Z" /><glyph glyph-name="t" unicode="t" d="M355 0 q-63 0 -96.5 32 q-33.5 32 -33.5 93 l0 380 l-163 0 l0 45 l163 0 l0 155 l50 0 l0 -155 l230 0 l0 -45 l-230 0 l0 -380 q0 -80 80 -80 l145 0 l0 -45 l-145 0 Z" /><glyph glyph-name="u" unicode="u" d="M299 -10 q-89 0 -140 54.5 q-51 54.5 -51 149.5 l0 356 l50 0 l0 -356 q0 -75 37.5 -117 q37.5 -42 103.5 -42 q67 0 105 42 q38 42 38 117 l0 356 l50 0 l0 -356 q0 -94 -51.5 -149 q-51.5 -55 -141.5 -55 Z" /><glyph glyph-name="v" unicode="v" d="M269 0 l-189 550 l54 0 l139 -410 q9 -27 16.5 -55.5 q7.5 -28.5 11.5 -45.5 q3 17 11 45.5 q8 28.5 17 55.5 l137 410 l54 0 l-189 -550 l-62 0 Z" /><glyph glyph-name="w" unicode="w" d="M143 0 l-93 550 l47 0 l68 -409 q6 -37 8.5 -61 q2.5 -24 3.5 -45 q2 21 6.5 44.5 q4.5 23.5 11.5 60.5 l80 410 l52 0 l80 -410 q7 -34 12 -58 q5 -24 6 -47 q2 22 3.5 47 q1.5 25 7.5 59 l68 409 l46 0 l-94 -550 l-66 0 l-69 391 q-4 27 -11 60.5 q-7 33.5 -9 55.5 q-1 -22 -8 -55.5 q-7 -33.5 -12 -60.5 l-72 -391 l-66 0 Z" /><glyph glyph-name="x" unicode="x" d="M75 0 l196 282 l-184 268 l59 0 l133 -200 q5 -8 11.5 -18 q6.5 -10 10.5 -17 q5 7 11.5 17.5 q6.5 10.5 11.5 17.5 l132 200 l58 0 l-184 -268 l195 -282 l-58 0 l-141 210 q-6 9 -13.5 20 q-7.5 11 -12.5 18 q-4 -7 -12 -18 q-8 -11 -14 -20 l-142 -210 l-57 0 Z" /><glyph glyph-name="y" unicode="y" d="M199 -180 l81 219 l-204 511 l56 0 l136 -350 q11 -28 22 -56 q11 -28 16 -43 q6 15 16 43.5 q10 28.5 20 57.5 l128 348 l54 0 l-274 -730 l-51 0 Z" /><glyph glyph-name="z" unicode="z" d="M103 0 l0 46 l324 459 l-315 0 l0 45 l372 0 l0 -47 l-325 -458 l338 0 l0 -45 l-394 0 Z" /><glyph glyph-name="zero" unicode="0" d="M301 -10 q-95 0 -150.5 58 q-55.5 58 -55.5 157 l0 320 q0 99 55.5 157 q55.5 58 150.5 58 q94 0 149 -58 q55 -58 55 -157 l0 -320 q0 -99 -55 -157 q-55 -58 -149 -58 ZM301 34 q71 0 112.5 46 q41.5 46 41.5 125 l0 320 q0 79 -41.5 125 q-41.5 46 -112.5 46 q-72 0 -114 -46 q-42 -46 -42 -125 l0 -320 q0 -79 42 -125 q42 -46 114 -46 ZM300 321 q-22 0 -36 12.5 q-14 12.5 -14 34.5 q0 23 14 34.5 q14 11.5 36 11.5 q23 0 36.5 -11.5 q13.5 -11.5 13.5 -34.5 q0 -22 -13.5 -34.5 q-13.5 -12.5 -36.5 -12.5 Z" /><glyph glyph-name="one" unicode="1" d="M100 0 l0 45 l207 0 l0 640 l-199 -146 l0 56 l183 135 l66 0 l0 -685 l173 0 l0 -45 l-430 0 Z" /><glyph glyph-name="two" unicode="2" d="M97 0 l0 45 l263 278 q48 50 74 105.5 q26 55.5 26 107.5 q0 71 -45 115.5 q-45 44.5 -118 44.5 q-73 0 -118 -45 q-45 -45 -45 -116 l-50 0 q0 61 27 107 q27 46 75 72 q48 26 111 26 q63 0 111 -25.5 q48 -25.5 75 -71.5 q27 -46 27 -107 q0 -58 -30 -121.5 q-30 -63.5 -86 -121.5 l-236 -248 l362 0 l0 -45 l-423 0 Z" /><glyph glyph-name="three" unicode="3" d="M290 -10 q-92 0 -148.5 55.5 q-56.5 55.5 -56.5 149.5 l50 0 q0 -73 43 -116.5 q43 -43.5 112 -43.5 q69 0 112 43.5 q43 43.5 43 116.5 l0 66 q0 71 -42 110.5 q-42 39.5 -113 39.5 l-61 0 l0 43 l201 231 l-320 0 l0 45 l374 0 l0 -48 l-195 -226 q93 0 149.5 -52.5 q56.5 -52.5 56.5 -142.5 l0 -66 q0 -94 -56.5 -149.5 q-56.5 -55.5 -148.5 -55.5 Z" /><glyph glyph-name="four" unicode="4" d="M420 0 l0 170 l-335 0 l0 100 l286 459 l55 0 l-291 -473 l0 -41 l285 0 l0 205 l50 0 l0 -420 l-50 0 Z" /><glyph glyph-name="five" unicode="5" d="M295 -10 q-92 0 -148.5 55.5 q-56.5 55.5 -56.5 149.5 l50 0 q0 -73 43 -116.5 q43 -43.5 112 -43.5 q69 0 112 43.5 q43 43.5 43 116.5 l0 48 q0 79 -40.5 122 q-40.5 43 -114.5 43 l-180 0 l0 322 l365 0 l0 -45 l-317 0 l0 -232 l132 0 q98 0 151.5 -55 q53.5 -55 53.5 -155 l0 -48 q0 -94 -56.5 -149.5 q-56.5 -55.5 -148.5 -55.5 Z" /><glyph glyph-name="six" unicode="6" d="M300 -10 q-66 0 -116 29 q-50 29 -78 81 q-28 52 -28 120 q0 47 17.5 93.5 q17.5 46.5 43.5 92.5 l187 324 l57 0 l-205 -343 l4 -3 q15 18 51.5 35.5 q36.5 17.5 86.5 17.5 q60 0 105.5 -28 q45.5 -28 71 -78 q25.5 -50 25.5 -116 q0 -66 -28 -116.5 q-28 -50.5 -78 -79 q-50 -28.5 -116 -29.5 ZM300 35 q51 0 90 22.5 q39 22.5 60.5 63.5 q21.5 41 21.5 94 q0 54 -21.5 94.5 q-21.5 40.5 -60.5 63 q-39 22.5 -90 22.5 q-51 0 -89.5 -22.5 q-38.5 -22.5 -60 -63 q-21.5 -40.5 -22.5 -94.5 q-1 -53 20 -94 q21 -41 60.5 -63.5 q39.5 -22.5 91.5 -22.5 Z" /><glyph glyph-name="seven" unicode="7" d="M207 0 l277 685 l-344 0 l0 -155 l-50 0 l0 200 l445 0 l0 -49 l-273 -681 l-55 0 Z" /><glyph glyph-name="eight" unicode="8" d="M300 -10 q-64 0 -113.5 26 q-49.5 26 -77 72.5 q-27.5 46.5 -27.5 107.5 q0 67 39 118 q39 51 102 67 l0 3 q-54 11 -87.5 56.5 q-33.5 45.5 -33.5 106.5 q0 57 25 100.5 q25 43.5 70 68 q45 24.5 103 24.5 q59 0 103.5 -24.5 q44.5 -24.5 69.5 -68 q25 -43.5 25 -100.5 q0 -61 -33.5 -106.5 q-33.5 -45.5 -87.5 -56.5 l0 -3 q63 -16 102 -67 q39 -51 39 -118 q0 -61 -27.5 -107.5 q-27.5 -46.5 -76.5 -72.5 q-49 -26 -114 -26 ZM300 401 q66 0 107 40.5 q41 40.5 41 105.5 q0 66 -41 107.5 q-41 41.5 -107 41.5 q-66 0 -107 -41.5 q-41 -41.5 -41 -107.5 q0 -65 41 -105.5 q41 -40.5 107 -40.5 ZM300 35 q75 0 121.5 44 q46.5 44 46.5 114 q0 73 -46.5 118 q-46.5 45 -121.5 45 q-75 0 -121.5 -45 q-46.5 -45 -46.5 -118 q0 -70 46.5 -114 q46.5 -44 121.5 -44 Z" /><glyph glyph-name="nine" unicode="9" d="M212 0 l213 343 l-3 3 q-15 -18 -53.5 -37 q-38.5 -19 -88.5 -19 q-58 0 -103 27.5 q-45 27.5 -71 77 q-26 49.5 -26 115.5 q0 69 28.5 120.5 q28.5 51.5 78 80.5 q49.5 29 113.5 29 q65 0 114.5 -29 q49.5 -29 77.5 -80.5 q28 -51.5 28 -120.5 q0 -46 -13 -92.5 q-13 -46.5 -41 -93.5 l-196 -324 l-58 0 ZM300 334 q77 0 123.5 48.5 q46.5 48.5 47.5 128.5 q1 56 -20.5 97 q-21.5 41 -60.5 64 q-39 23 -90 23 q-49 0 -87.5 -23 q-38.5 -23 -60.5 -64.5 q-22 -41.5 -22 -97.5 q0 -52 22 -92 q22 -40 60.5 -62 q38.5 -22 87.5 -22 Z" /><glyph glyph-name="period" unicode="." d="M300 -10 q-32 0 -52.5 21 q-20.5 21 -20.5 54 q0 32 20.5 52.5 q20.5 20.5 52.5 20.5 q32 0 52.5 -20.5 q20.5 -20.5 20.5 -52.5 q0 -33 -20.5 -54 q-20.5 -21 -52.5 -21 Z" /><glyph glyph-name="comma" unicode="," d="M220 -160 l59 306 l70 0 l-71 -306 l-58 0 Z" /><glyph glyph-name="colon" unicode=":" d="M300 416 q-33 0 -53 20 q-20 20 -20 52 q0 32 20 52 q20 20 53 20 q33 0 53 -20 q20 -20 20 -52 q0 -32 -20 -52 q-20 -20 -53 -20 ZM300 -10 q-33 0 -53 20 q-20 20 -20 52 q0 32 20 52 q20 20 53 20 q33 0 53 -20 q20 -20 20 -52 q0 -32 -20 -52 q-20 -20 -53 -20 Z" /><glyph glyph-name="semicolon" unicode=";" d="M295 420 q-32 0 -51.5 19.5 q-19.5 19.5 -19.5 50.5 q0 32 19.5 51 q19.5 19 51.5 19 l10 0 q32 0 51 -19 q19 -19 19 -51 q0 -31 -19 -50.5 q-19 -19.5 -51 -19.5 l-10 0 ZM215 -160 l59 306 l70 0 l-71 -306 l-58 0 Z" /><glyph glyph-name="braceleft" unicode="{" d="M435 -110 q-48 0 -85 18 q-37 18 -55 51.5 q-18 33.5 -10 80.5 l34 197 q9 53 -13 76 q-22 23 -87 23 l-129 0 l0 46 l129 0 q62 0 86 22.5 q24 22.5 14 77.5 l-34 198 q-8 47 10 80.5 q18 33.5 55 51.5 q37 18 85 18 l55 0 l0 -45 l-55 0 q-46 0 -77 -28 q-31 -28 -23 -77 l34 -198 q8 -48 -14.5 -80 q-22.5 -32 -60.5 -42 q38 -9 60.5 -42 q22.5 -33 14.5 -81 l-34 -197 q-8 -49 23 -77 q31 -28 77 -28 l55 0 l0 -45 l-55 0 Z" /><glyph glyph-name="braceright" unicode="}" d="M110 -110 l0 45 l54 0 q47 0 77.5 28 q30.5 28 22.5 77 l-32 197 q-8 48 14.5 81 q22.5 33 60.5 42 q-38 10 -60.5 42 q-22.5 32 -14.5 80 l32 198 q8 49 -22.5 77 q-30.5 28 -77.5 28 l-54 0 l0 45 l54 0 q48 0 84.5 -18 q36.5 -18 55 -51.5 q18.5 -33.5 10.5 -80.5 l-32 -198 q-9 -55 15 -77.5 q24 -22.5 85 -22.5 l128 0 l0 -46 l-128 0 q-64 0 -86.5 -23 q-22.5 -23 -13.5 -76 l32 -197 q8 -47 -10.5 -80.5 q-18.5 -33.5 -55 -51.5 q-36.5 -18 -84.5 -18 l-54 0 Z" /><glyph glyph-name="hyphen" unicode="-" d="M140 308 l0 45 l320 0 l0 -45 l-320 0 Z" /><glyph glyph-name="underscore" unicode="_" d="M60 -70 l0 45 l480 0 l0 -45 l-480 0 Z" /><glyph glyph-name="quotedbl" unicode="&quot;" d="M174 430 l-7 300 l66 0 l-6 -300 l-53 0 ZM374 430 l-7 300 l66 0 l-6 -300 l-53 0 Z" /></font>
</defs>
</svg>
