<svg aria-roledescription="xychart" role="graphics-document document" viewBox="0 0 700 500" style="max-width: 700px;" xmlns="http://www.w3.org/2000/svg" width="100%" id="container"><style>#container{font-family:"trebuchet ms",verdana,arial,sans-serif;font-size:16px;fill:#333;}@keyframes edge-animation-frame{from{stroke-dashoffset:0;}}@keyframes dash{to{stroke-dashoffset:0;}}#container .edge-animation-slow{stroke-dasharray:9,5!important;stroke-dashoffset:900;animation:dash 50s linear infinite;stroke-linecap:round;}#container .edge-animation-fast{stroke-dasharray:9,5!important;stroke-dashoffset:900;animation:dash 20s linear infinite;stroke-linecap:round;}#container .error-icon{fill:#552222;}#container .error-text{fill:#552222;stroke:#552222;}#container .edge-thickness-normal{stroke-width:1px;}#container .edge-thickness-thick{stroke-width:3.5px;}#container .edge-pattern-solid{stroke-dasharray:0;}#container .edge-thickness-invisible{stroke-width:0;fill:none;}#container .edge-pattern-dashed{stroke-dasharray:3;}#container .edge-pattern-dotted{stroke-dasharray:2;}#container .marker{fill:#333333;stroke:#333333;}#container .marker.cross{stroke:#333333;}#container svg{font-family:"trebuchet ms",verdana,arial,sans-serif;font-size:16px;}#container p{margin:0;}#container :root{--mermaid-font-family:"trebuchet ms",verdana,arial,sans-serif;}</style><g></g><g class="main"><rect fill="white" class="background" height="500" width="700"></rect><g class="chart-title"><text transform="translate(350, 20.000000953674316) rotate(0)" text-anchor="middle" dominant-baseline="middle" font-size="20" fill="#131300" y="0" x="0">Sales Revenue</text></g><g class="plot"><g class="bar-plot-0"><rect stroke-width="0" stroke="#ECECFF" fill="#ECECFF" height="66.28571360451832" width="32.3" y="402.7142883028303" x="74.92812881469726"></rect><rect stroke-width="0" stroke="#ECECFF" fill="#ECECFF" height="125.57142816271102" width="32.3" y="343.4285737446376" x="128.73920801336115"></rect><rect stroke-width="0" stroke="#ECECFF" fill="#ECECFF" height="214.5" width="32.3" y="254.50000190734863" x="182.55028721202504"></rect><rect stroke-width="0" stroke="#ECECFF" fill="#ECECFF" height="256.00000019073485" width="32.3" y="213.00000171661378" x="236.3613664106889"></rect><rect stroke-width="0" stroke="#ECECFF" fill="#ECECFF" height="333.07142911638533" width="32.3" y="135.9285727909633" x="290.17244560935285"></rect><rect stroke-width="0" stroke="#ECECFF" fill="#ECECFF" height="392.35714367457797" width="32.3" y="76.64285823277064" x="343.9835248080167"></rect><rect stroke-width="0" stroke="#ECECFF" fill="#ECECFF" height="422.0000009536743" width="32.3" y="47.000000953674316" x="397.7946040066806"></rect><rect stroke-width="0" stroke="#ECECFF" fill="#ECECFF" height="374.5714293071202" width="32.3" y="94.42857260022846" x="451.60568320534446"></rect><rect stroke-width="0" stroke="#ECECFF" fill="#ECECFF" height="315.28571474892755" width="32.3" y="153.7142871584211" x="505.4167624040084"></rect><rect stroke-width="0" stroke="#ECECFF" fill="#ECECFF" height="273.7857145581927" width="32.3" y="195.21428734915594" x="559.2278416026722"></rect><rect stroke-width="0" stroke="#ECECFF" fill="#ECECFF" height="184.8571427209037" width="32.3" y="284.1428591864449" x="613.0389208013361"></rect><rect stroke-width="0" stroke="#ECECFF" fill="#ECECFF" height="125.57142816271102" width="32.3" y="343.4285737446376" x="666.85"></rect></g><g class="line-plot-1"><path stroke-width="2" stroke="#8493A6" fill="none" d="M91.078,402.714L144.889,343.429L198.7,254.5L252.511,213L306.322,135.929L360.134,76.643L413.945,47L467.756,94.429L521.567,153.714L575.378,195.214L629.189,284.143L683,343.429"></path></g></g><g class="bottom-axis"><g class="axis-line"><path stroke-width="2" stroke="#131300" fill="none" d="M 74.07812881469727,470.00000190734863 L 700,470.00000190734863"></path></g><g class="label"><text transform="translate(91.07812881469727, 481.00000190734863) rotate(0)" text-anchor="middle" dominant-baseline="text-before-edge" font-size="14" fill="#131300" y="0" x="0">jan</text><text transform="translate(144.88920801336116, 481.00000190734863) rotate(0)" text-anchor="middle" dominant-baseline="text-before-edge" font-size="14" fill="#131300" y="0" x="0">feb</text><text transform="translate(198.70028721202505, 481.00000190734863) rotate(0)" text-anchor="middle" dominant-baseline="text-before-edge" font-size="14" fill="#131300" y="0" x="0">mar</text><text transform="translate(252.5113664106889, 481.00000190734863) rotate(0)" text-anchor="middle" dominant-baseline="text-before-edge" font-size="14" fill="#131300" y="0" x="0">apr</text><text transform="translate(306.3224456093528, 481.00000190734863) rotate(0)" text-anchor="middle" dominant-baseline="text-before-edge" font-size="14" fill="#131300" y="0" x="0">may</text><text transform="translate(360.13352480801666, 481.00000190734863) rotate(0)" text-anchor="middle" dominant-baseline="text-before-edge" font-size="14" fill="#131300" y="0" x="0">jun</text><text transform="translate(413.94460400668055, 481.00000190734863) rotate(0)" text-anchor="middle" dominant-baseline="text-before-edge" font-size="14" fill="#131300" y="0" x="0">jul</text><text transform="translate(467.75568320534444, 481.00000190734863) rotate(0)" text-anchor="middle" dominant-baseline="text-before-edge" font-size="14" fill="#131300" y="0" x="0">aug</text><text transform="translate(521.5667624040084, 481.00000190734863) rotate(0)" text-anchor="middle" dominant-baseline="text-before-edge" font-size="14" fill="#131300" y="0" x="0">sep</text><text transform="translate(575.3778416026722, 481.00000190734863) rotate(0)" text-anchor="middle" dominant-baseline="text-before-edge" font-size="14" fill="#131300" y="0" x="0">oct</text><text transform="translate(629.188920801336, 481.00000190734863) rotate(0)" text-anchor="middle" dominant-baseline="text-before-edge" font-size="14" fill="#131300" y="0" x="0">nov</text><text transform="translate(683, 481.00000190734863) rotate(0)" text-anchor="middle" dominant-baseline="text-before-edge" font-size="14" fill="#131300" y="0" x="0">dec</text></g><g class="ticks"><path stroke-width="2" stroke="#131300" fill="none" d="M 91.07812881469727,471.00000190734863 L 91.07812881469727,476.00000190734863"></path><path stroke-width="2" stroke="#131300" fill="none" d="M 144.88920801336116,471.00000190734863 L 144.88920801336116,476.00000190734863"></path><path stroke-width="2" stroke="#131300" fill="none" d="M 198.70028721202505,471.00000190734863 L 198.70028721202505,476.00000190734863"></path><path stroke-width="2" stroke="#131300" fill="none" d="M 252.5113664106889,471.00000190734863 L 252.5113664106889,476.00000190734863"></path><path stroke-width="2" stroke="#131300" fill="none" d="M 306.3224456093528,471.00000190734863 L 306.3224456093528,476.00000190734863"></path><path stroke-width="2" stroke="#131300" fill="none" d="M 360.13352480801666,471.00000190734863 L 360.13352480801666,476.00000190734863"></path><path stroke-width="2" stroke="#131300" fill="none" d="M 413.94460400668055,471.00000190734863 L 413.94460400668055,476.00000190734863"></path><path stroke-width="2" stroke="#131300" fill="none" d="M 467.75568320534444,471.00000190734863 L 467.75568320534444,476.00000190734863"></path><path stroke-width="2" stroke="#131300" fill="none" d="M 521.5667624040084,471.00000190734863 L 521.5667624040084,476.00000190734863"></path><path stroke-width="2" stroke="#131300" fill="none" d="M 575.3778416026722,471.00000190734863 L 575.3778416026722,476.00000190734863"></path><path stroke-width="2" stroke="#131300" fill="none" d="M 629.188920801336,471.00000190734863 L 629.188920801336,476.00000190734863"></path><path stroke-width="2" stroke="#131300" fill="none" d="M 683,471.00000190734863 L 683,476.00000190734863"></path></g></g><g class="left-axis"><g class="axisl-line"><path stroke-width="2" stroke="#131300" fill="none" d="M 73.07812881469727,40.00000190734863 L 73.07812881469727,469.00000190734863"></path></g><g class="label"><text transform="translate(62.078128814697266, 47.000000953674316) rotate(0)" text-anchor="end" dominant-baseline="middle" font-size="14" fill="#131300" y="0" x="0">11000</text><text transform="translate(62.078128814697266, 76.64285823277064) rotate(0)" text-anchor="end" dominant-baseline="middle" font-size="14" fill="#131300" y="0" x="0">10500</text><text transform="translate(62.078128814697266, 106.285715511867) rotate(0)" text-anchor="end" dominant-baseline="middle" font-size="14" fill="#131300" y="0" x="0">10000</text><text transform="translate(62.078128814697266, 135.9285727909633) rotate(0)" text-anchor="end" dominant-baseline="middle" font-size="14" fill="#131300" y="0" x="0">9500</text><text transform="translate(62.078128814697266, 165.57143007005962) rotate(0)" text-anchor="end" dominant-baseline="middle" font-size="14" fill="#131300" y="0" x="0">9000</text><text transform="translate(62.078128814697266, 195.21428734915594) rotate(0)" text-anchor="end" dominant-baseline="middle" font-size="14" fill="#131300" y="0" x="0">8500</text><text transform="translate(62.078128814697266, 224.8571446282523) rotate(0)" text-anchor="end" dominant-baseline="middle" font-size="14" fill="#131300" y="0" x="0">8000</text><text transform="translate(62.078128814697266, 254.50000190734863) rotate(0)" text-anchor="end" dominant-baseline="middle" font-size="14" fill="#131300" y="0" x="0">7500</text><text transform="translate(62.078128814697266, 284.1428591864449) rotate(0)" text-anchor="end" dominant-baseline="middle" font-size="14" fill="#131300" y="0" x="0">7000</text><text transform="translate(62.078128814697266, 313.78571646554127) rotate(0)" text-anchor="end" dominant-baseline="middle" font-size="14" fill="#131300" y="0" x="0">6500</text><text transform="translate(62.078128814697266, 343.4285737446376) rotate(0)" text-anchor="end" dominant-baseline="middle" font-size="14" fill="#131300" y="0" x="0">6000</text><text transform="translate(62.078128814697266, 373.07143102373396) rotate(0)" text-anchor="end" dominant-baseline="middle" font-size="14" fill="#131300" y="0" x="0">5500</text><text transform="translate(62.078128814697266, 402.7142883028303) rotate(0)" text-anchor="end" dominant-baseline="middle" font-size="14" fill="#131300" y="0" x="0">5000</text><text transform="translate(62.078128814697266, 432.35714558192666) rotate(0)" text-anchor="end" dominant-baseline="middle" font-size="14" fill="#131300" y="0" x="0">4500</text><text transform="translate(62.078128814697266, 462.00000286102295) rotate(0)" text-anchor="end" dominant-baseline="middle" font-size="14" fill="#131300" y="0" x="0">4000</text></g><g class="ticks"><path stroke-width="2" stroke="#131300" fill="none" d="M 72.07812881469727,47.000000953674316 L 67.07812881469727,47.000000953674316"></path><path stroke-width="2" stroke="#131300" fill="none" d="M 72.07812881469727,76.64285823277064 L 67.07812881469727,76.64285823277064"></path><path stroke-width="2" stroke="#131300" fill="none" d="M 72.07812881469727,106.285715511867 L 67.07812881469727,106.285715511867"></path><path stroke-width="2" stroke="#131300" fill="none" d="M 72.07812881469727,135.9285727909633 L 67.07812881469727,135.9285727909633"></path><path stroke-width="2" stroke="#131300" fill="none" d="M 72.07812881469727,165.57143007005962 L 67.07812881469727,165.57143007005962"></path><path stroke-width="2" stroke="#131300" fill="none" d="M 72.07812881469727,195.21428734915594 L 67.07812881469727,195.21428734915594"></path><path stroke-width="2" stroke="#131300" fill="none" d="M 72.07812881469727,224.8571446282523 L 67.07812881469727,224.8571446282523"></path><path stroke-width="2" stroke="#131300" fill="none" d="M 72.07812881469727,254.50000190734863 L 67.07812881469727,254.50000190734863"></path><path stroke-width="2" stroke="#131300" fill="none" d="M 72.07812881469727,284.1428591864449 L 67.07812881469727,284.1428591864449"></path><path stroke-width="2" stroke="#131300" fill="none" d="M 72.07812881469727,313.78571646554127 L 67.07812881469727,313.78571646554127"></path><path stroke-width="2" stroke="#131300" fill="none" d="M 72.07812881469727,343.4285737446376 L 67.07812881469727,343.4285737446376"></path><path stroke-width="2" stroke="#131300" fill="none" d="M 72.07812881469727,373.07143102373396 L 67.07812881469727,373.07143102373396"></path><path stroke-width="2" stroke="#131300" fill="none" d="M 72.07812881469727,402.7142883028303 L 67.07812881469727,402.7142883028303"></path><path stroke-width="2" stroke="#131300" fill="none" d="M 72.07812881469727,432.35714558192666 L 67.07812881469727,432.35714558192666"></path><path stroke-width="2" stroke="#131300" fill="none" d="M 72.07812881469727,462.00000286102295 L 67.07812881469727,462.00000286102295"></path></g><g class="title"><text transform="translate(5, 254.50000190734863) rotate(270)" text-anchor="middle" dominant-baseline="text-before-edge" font-size="16" fill="#131300" y="0" x="0">Revenue (in $)</text></g></g></g><g class="mermaid-tmp-group"></g></svg>