<svg aria-roledescription="architecture" role="graphics-document document" viewBox="-220.5164794921875 -211.2884063720703 564.032958984375 586.2955322265625" style="max-width: 564.032958984375px;" xmlns="http://www.w3.org/2000/svg" width="100%" id="container"><style>#container{font-family:"trebuchet ms",verdana,arial,sans-serif;font-size:16px;fill:#333;}@keyframes edge-animation-frame{from{stroke-dashoffset:0;}}@keyframes dash{to{stroke-dashoffset:0;}}#container .edge-animation-slow{stroke-dasharray:9,5!important;stroke-dashoffset:900;animation:dash 50s linear infinite;stroke-linecap:round;}#container .edge-animation-fast{stroke-dasharray:9,5!important;stroke-dashoffset:900;animation:dash 20s linear infinite;stroke-linecap:round;}#container .error-icon{fill:#552222;}#container .error-text{fill:#552222;stroke:#552222;}#container .edge-thickness-normal{stroke-width:1px;}#container .edge-thickness-thick{stroke-width:3.5px;}#container .edge-pattern-solid{stroke-dasharray:0;}#container .edge-thickness-invisible{stroke-width:0;fill:none;}#container .edge-pattern-dashed{stroke-dasharray:3;}#container .edge-pattern-dotted{stroke-dasharray:2;}#container .marker{fill:#333333;stroke:#333333;}#container .marker.cross{stroke:#333333;}#container svg{font-family:"trebuchet ms",verdana,arial,sans-serif;font-size:16px;}#container p{margin:0;}#container .edge{stroke-width:3;stroke:#333333;fill:none;}#container .arrow{fill:#333333;}#container .node-bkg{fill:none;stroke:hsl(240, 60%, 86.2745098039%);stroke-width:2px;stroke-dasharray:8;}#container .node-icon-text{display:flex;align-items:center;}#container .node-icon-text&gt;div{color:#fff;margin:1px;height:fit-content;text-align:center;overflow:hidden;display:-webkit-box;-webkit-box-orient:vertical;}#container :root{--mermaid-font-family:"trebuchet ms",verdana,arial,sans-serif;}</style><g></g><g class="architecture-edges"><g><path class="edge" d="M -100.51647858738619,69.75000000000003 L -39.944523010162,69.75000000000003 L60.627432567062186,69.75000000000003"></path></g><g><path class="edge" d="M 60.62743256706218,-91.28841103516396 L 60.62743256706218,-30.769205517581966 L60.62743256706218,69.75000000000003"></path></g><g><path class="edge" d="M 60.62743256706218,230.78841103516402 L 60.62743256706218,170.269205517582 L60.62743256706218,69.75000000000003"></path></g><g><path class="edge" d="M 60.627432567062186,69.75000000000003 L 162.07195557722417,69.75000000000003 L263.5164785873862,69.75000000000003"></path></g><g><path class="edge" d="M 263.5164785873862,-91.28841103516396 L 263.5164785873862,-30.769205517581966 L263.5164785873862,69.75000000000003"></path></g><g><path class="edge" d="M 263.5164785873862,230.78841103516402 L 263.5164785873862,170.269205517582 L263.5164785873862,69.75000000000003"></path></g></g><g class="architecture-services"><g transform="translate(-180.5164785873862,29.750000000000036)" class="architecture-service"><g transform="translate(40, 80)" text-anchor="middle" dominant-baseline="middle" alignment-baseline="middle" dy="1em"><g><rect style="stroke: none" class="background"></rect><text style="" y="-10.1"><tspan dy="1.1em" y="-0.1em" x="0" class="text-outer-tspan"><tspan font-weight="normal" class="text-inner-tspan" font-style="normal">Disk</tspan></tspan></text></g></g><g><g><svg viewBox="0 0 80 80" height="80" width="80" xmlns="http://www.w3.org/2000/svg"><g><rect style="fill: #087ebf; stroke-width: 0px;" height="80" width="80"></rect><rect style="fill: none; stroke: #fff; stroke-miterlimit: 10; stroke-width: 2px;" ry="1" rx="1" height="50" width="40" y="15" x="20"></rect><ellipse style="fill: none; stroke: #fff; stroke-miterlimit: 10; stroke-width: 2px;" ry=".83" rx=".8" cy="19.17" cx="24"></ellipse><ellipse style="fill: none; stroke: #fff; stroke-miterlimit: 10; stroke-width: 2px;" ry=".83" rx=".8" cy="19.17" cx="56"></ellipse><ellipse style="fill: none; stroke: #fff; stroke-miterlimit: 10; stroke-width: 2px;" ry=".83" rx=".8" cy="60.83" cx="24"></ellipse><ellipse style="fill: none; stroke: #fff; stroke-miterlimit: 10; stroke-width: 2px;" ry=".83" rx=".8" cy="60.83" cx="56"></ellipse><ellipse style="fill: none; stroke: #fff; stroke-miterlimit: 10; stroke-width: 2px;" ry="14.58" rx="14" cy="33.75" cx="40"></ellipse><ellipse style="fill: #fff; stroke: #fff; stroke-miterlimit: 10; stroke-width: 2px;" ry="4.17" rx="4" cy="33.75" cx="40"></ellipse><path style="fill: #fff; stroke-width: 0px;" d="m37.51,42.52l-4.83,13.22c-.26.71-1.1,1.02-1.76.64l-4.18-2.42c-.66-.38-.81-1.26-.33-1.84l9.01-10.8c.88-1.05,2.56-.08,2.09,1.2Z"></path></g></svg></g></g></g><g transform="translate(20.62743256706218,-171.28841103516396)" class="architecture-service"><g transform="translate(40, 80)" text-anchor="middle" dominant-baseline="middle" alignment-baseline="middle" dy="1em"><g><rect style="stroke: none" class="background"></rect><text style="" y="-10.1"><tspan dy="1.1em" y="-0.1em" x="0" class="text-outer-tspan"><tspan font-weight="normal" class="text-inner-tspan" font-style="normal">Disk</tspan></tspan></text></g></g><g><g><svg viewBox="0 0 80 80" height="80" width="80" xmlns="http://www.w3.org/2000/svg"><g><rect style="fill: #087ebf; stroke-width: 0px;" height="80" width="80"></rect><rect style="fill: none; stroke: #fff; stroke-miterlimit: 10; stroke-width: 2px;" ry="1" rx="1" height="50" width="40" y="15" x="20"></rect><ellipse style="fill: none; stroke: #fff; stroke-miterlimit: 10; stroke-width: 2px;" ry=".83" rx=".8" cy="19.17" cx="24"></ellipse><ellipse style="fill: none; stroke: #fff; stroke-miterlimit: 10; stroke-width: 2px;" ry=".83" rx=".8" cy="19.17" cx="56"></ellipse><ellipse style="fill: none; stroke: #fff; stroke-miterlimit: 10; stroke-width: 2px;" ry=".83" rx=".8" cy="60.83" cx="24"></ellipse><ellipse style="fill: none; stroke: #fff; stroke-miterlimit: 10; stroke-width: 2px;" ry=".83" rx=".8" cy="60.83" cx="56"></ellipse><ellipse style="fill: none; stroke: #fff; stroke-miterlimit: 10; stroke-width: 2px;" ry="14.58" rx="14" cy="33.75" cx="40"></ellipse><ellipse style="fill: #fff; stroke: #fff; stroke-miterlimit: 10; stroke-width: 2px;" ry="4.17" rx="4" cy="33.75" cx="40"></ellipse><path style="fill: #fff; stroke-width: 0px;" d="m37.51,42.52l-4.83,13.22c-.26.71-1.1,1.02-1.76.64l-4.18-2.42c-.66-.38-.81-1.26-.33-1.84l9.01-10.8c.88-1.05,2.56-.08,2.09,1.2Z"></path></g></svg></g></g></g><g transform="translate(20.62743256706218,230.78841103516402)" class="architecture-service"><g transform="translate(40, 80)" text-anchor="middle" dominant-baseline="middle" alignment-baseline="middle" dy="1em"><g><rect style="stroke: none" class="background"></rect><text style="" y="-10.1"><tspan dy="1.1em" y="-0.1em" x="0" class="text-outer-tspan"><tspan font-weight="normal" class="text-inner-tspan" font-style="normal">Disk</tspan></tspan></text></g></g><g><g><svg viewBox="0 0 80 80" height="80" width="80" xmlns="http://www.w3.org/2000/svg"><g><rect style="fill: #087ebf; stroke-width: 0px;" height="80" width="80"></rect><rect style="fill: none; stroke: #fff; stroke-miterlimit: 10; stroke-width: 2px;" ry="1" rx="1" height="50" width="40" y="15" x="20"></rect><ellipse style="fill: none; stroke: #fff; stroke-miterlimit: 10; stroke-width: 2px;" ry=".83" rx=".8" cy="19.17" cx="24"></ellipse><ellipse style="fill: none; stroke: #fff; stroke-miterlimit: 10; stroke-width: 2px;" ry=".83" rx=".8" cy="19.17" cx="56"></ellipse><ellipse style="fill: none; stroke: #fff; stroke-miterlimit: 10; stroke-width: 2px;" ry=".83" rx=".8" cy="60.83" cx="24"></ellipse><ellipse style="fill: none; stroke: #fff; stroke-miterlimit: 10; stroke-width: 2px;" ry=".83" rx=".8" cy="60.83" cx="56"></ellipse><ellipse style="fill: none; stroke: #fff; stroke-miterlimit: 10; stroke-width: 2px;" ry="14.58" rx="14" cy="33.75" cx="40"></ellipse><ellipse style="fill: #fff; stroke: #fff; stroke-miterlimit: 10; stroke-width: 2px;" ry="4.17" rx="4" cy="33.75" cx="40"></ellipse><path style="fill: #fff; stroke-width: 0px;" d="m37.51,42.52l-4.83,13.22c-.26.71-1.1,1.02-1.76.64l-4.18-2.42c-.66-.38-.81-1.26-.33-1.84l9.01-10.8c.88-1.05,2.56-.08,2.09,1.2Z"></path></g></svg></g></g></g><g transform="translate(223.5164785873862,-171.28841103516396)" class="architecture-service"><g transform="translate(40, 80)" text-anchor="middle" dominant-baseline="middle" alignment-baseline="middle" dy="1em"><g><rect style="stroke: none" class="background"></rect><text style="" y="-10.1"><tspan dy="1.1em" y="-0.1em" x="0" class="text-outer-tspan"><tspan font-weight="normal" class="text-inner-tspan" font-style="normal">Gateway</tspan></tspan></text></g></g><g><g><svg viewBox="0 0 80 80" height="80" width="80" xmlns="http://www.w3.org/2000/svg"><g><rect style="fill: #087ebf; stroke-width: 0px;" height="80" width="80"></rect><circle style="fill: none; stroke: #fff; stroke-miterlimit: 10; stroke-width: 2px;" r="22.5" cy="40" cx="40"></circle><line style="fill: none; stroke: #fff; stroke-miterlimit: 10; stroke-width: 2px;" y2="62.5" x2="40" y1="17.5" x1="40"></line><line style="fill: none; stroke: #fff; stroke-miterlimit: 10; stroke-width: 2px;" y2="40" x2="62.5" y1="40" x1="17.5"></line><path style="fill: none; stroke: #fff; stroke-miterlimit: 10; stroke-width: 2px;" d="m39.99,17.51c-15.28,11.1-15.28,33.88,0,44.98"></path><path style="fill: none; stroke: #fff; stroke-miterlimit: 10; stroke-width: 2px;" d="m40.01,17.51c15.28,11.1,15.28,33.88,0,44.98"></path><line style="fill: none; stroke: #fff; stroke-miterlimit: 10; stroke-width: 2px;" y2="30.1" x2="60.25" y1="30.1" x1="19.75"></line><line style="fill: none; stroke: #fff; stroke-miterlimit: 10; stroke-width: 2px;" y2="49.9" x2="60.25" y1="49.9" x1="19.75"></line></g></svg></g></g></g><g transform="translate(223.5164785873862,230.78841103516402)" class="architecture-service"><g transform="translate(40, 80)" text-anchor="middle" dominant-baseline="middle" alignment-baseline="middle" dy="1em"><g><rect style="stroke: none" class="background"></rect><text style="" y="-10.1"><tspan dy="1.1em" y="-0.1em" x="0" class="text-outer-tspan"><tspan font-weight="normal" class="text-inner-tspan" font-style="normal">Gateway</tspan></tspan></text></g></g><g><g><svg viewBox="0 0 80 80" height="80" width="80" xmlns="http://www.w3.org/2000/svg"><g><rect style="fill: #087ebf; stroke-width: 0px;" height="80" width="80"></rect><circle style="fill: none; stroke: #fff; stroke-miterlimit: 10; stroke-width: 2px;" r="22.5" cy="40" cx="40"></circle><line style="fill: none; stroke: #fff; stroke-miterlimit: 10; stroke-width: 2px;" y2="62.5" x2="40" y1="17.5" x1="40"></line><line style="fill: none; stroke: #fff; stroke-miterlimit: 10; stroke-width: 2px;" y2="40" x2="62.5" y1="40" x1="17.5"></line><path style="fill: none; stroke: #fff; stroke-miterlimit: 10; stroke-width: 2px;" d="m39.99,17.51c-15.28,11.1-15.28,33.88,0,44.98"></path><path style="fill: none; stroke: #fff; stroke-miterlimit: 10; stroke-width: 2px;" d="m40.01,17.51c15.28,11.1,15.28,33.88,0,44.98"></path><line style="fill: none; stroke: #fff; stroke-miterlimit: 10; stroke-width: 2px;" y2="30.1" x2="60.25" y1="30.1" x1="19.75"></line><line style="fill: none; stroke: #fff; stroke-miterlimit: 10; stroke-width: 2px;" y2="49.9" x2="60.25" y1="49.9" x1="19.75"></line></g></svg></g></g></g><g transform="translate(20.62743256706218,29.750000000000036)" class="architecture-junction"><g><rect height="80" width="80" fill-opacity="0" id="node-junctionCenter"></rect></g></g><g transform="translate(223.5164785873862,29.750000000000036)" class="architecture-junction"><g><rect height="80" width="80" fill-opacity="0" id="node-junctionRight"></rect></g></g></g><g class="architecture-groups"></g></svg>