<svg aria-roledescription="gitGraph" role="graphics-document document" viewBox="-191.34375 -35.20000076293945 849.34375 562.505859375" style="max-width: 849.34375px;" xmlns="http://www.w3.org/2000/svg" width="100%" id="container"><style>#container{font-family:"trebuchet ms",verdana,arial,sans-serif;font-size:16px;fill:#333;}@keyframes edge-animation-frame{from{stroke-dashoffset:0;}}@keyframes dash{to{stroke-dashoffset:0;}}#container .edge-animation-slow{stroke-dasharray:9,5!important;stroke-dashoffset:900;animation:dash 50s linear infinite;stroke-linecap:round;}#container .edge-animation-fast{stroke-dasharray:9,5!important;stroke-dashoffset:900;animation:dash 20s linear infinite;stroke-linecap:round;}#container .error-icon{fill:#552222;}#container .error-text{fill:#552222;stroke:#552222;}#container .edge-thickness-normal{stroke-width:1px;}#container .edge-thickness-thick{stroke-width:3.5px;}#container .edge-pattern-solid{stroke-dasharray:0;}#container .edge-thickness-invisible{stroke-width:0;fill:none;}#container .edge-pattern-dashed{stroke-dasharray:3;}#container .edge-pattern-dotted{stroke-dasharray:2;}#container .marker{fill:#333333;stroke:#333333;}#container .marker.cross{stroke:#333333;}#container svg{font-family:"trebuchet ms",verdana,arial,sans-serif;font-size:16px;}#container p{margin:0;}#container .commit-id,#container .commit-msg,#container .branch-label{fill:lightgrey;color:lightgrey;font-family:'trebuchet ms',verdana,arial,sans-serif;font-family:var(--mermaid-font-family);}#container .branch-label0{fill:#ffffff;}#container .commit0{stroke:hsl(240, 100%, 46.2745098039%);fill:hsl(240, 100%, 46.2745098039%);}#container .commit-highlight0{stroke:hsl(60, 100%, 3.7254901961%);fill:hsl(60, 100%, 3.7254901961%);}#container .label0{fill:hsl(240, 100%, 46.2745098039%);}#container .arrow0{stroke:hsl(240, 100%, 46.2745098039%);}#container .branch-label1{fill:black;}#container .commit1{stroke:hsl(60, 100%, 43.5294117647%);fill:hsl(60, 100%, 43.5294117647%);}#container .commit-highlight1{stroke:rgb(0, 0, 160.5);fill:rgb(0, 0, 160.5);}#container .label1{fill:hsl(60, 100%, 43.5294117647%);}#container .arrow1{stroke:hsl(60, 100%, 43.5294117647%);}#container .branch-label2{fill:black;}#container .commit2{stroke:hsl(80, 100%, 46.2745098039%);fill:hsl(80, 100%, 46.2745098039%);}#container .commit-highlight2{stroke:rgb(48.8333333334, 0, 146.5000000001);fill:rgb(48.8333333334, 0, 146.5000000001);}#container .label2{fill:hsl(80, 100%, 46.2745098039%);}#container .arrow2{stroke:hsl(80, 100%, 46.2745098039%);}#container .branch-label3{fill:#ffffff;}#container .commit3{stroke:hsl(210, 100%, 46.2745098039%);fill:hsl(210, 100%, 46.2745098039%);}#container .commit-highlight3{stroke:rgb(146.5000000001, 73.2500000001, 0);fill:rgb(146.5000000001, 73.2500000001, 0);}#container .label3{fill:hsl(210, 100%, 46.2745098039%);}#container .arrow3{stroke:hsl(210, 100%, 46.2745098039%);}#container .branch-label4{fill:black;}#container .commit4{stroke:hsl(180, 100%, 46.2745098039%);fill:hsl(180, 100%, 46.2745098039%);}#container .commit-highlight4{stroke:rgb(146.5000000001, 0, 0);fill:rgb(146.5000000001, 0, 0);}#container .label4{fill:hsl(180, 100%, 46.2745098039%);}#container .arrow4{stroke:hsl(180, 100%, 46.2745098039%);}#container .branch-label5{fill:black;}#container .commit5{stroke:hsl(150, 100%, 46.2745098039%);fill:hsl(150, 100%, 46.2745098039%);}#container .commit-highlight5{stroke:rgb(146.5000000001, 0, 73.2500000001);fill:rgb(146.5000000001, 0, 73.2500000001);}#container .label5{fill:hsl(150, 100%, 46.2745098039%);}#container .arrow5{stroke:hsl(150, 100%, 46.2745098039%);}#container .branch-label6{fill:black;}#container .commit6{stroke:hsl(300, 100%, 46.2745098039%);fill:hsl(300, 100%, 46.2745098039%);}#container .commit-highlight6{stroke:rgb(0, 146.5000000001, 0);fill:rgb(0, 146.5000000001, 0);}#container .label6{fill:hsl(300, 100%, 46.2745098039%);}#container .arrow6{stroke:hsl(300, 100%, 46.2745098039%);}#container .branch-label7{fill:black;}#container .commit7{stroke:hsl(0, 100%, 46.2745098039%);fill:hsl(0, 100%, 46.2745098039%);}#container .commit-highlight7{stroke:rgb(0, 146.5000000001, 146.5000000001);fill:rgb(0, 146.5000000001, 146.5000000001);}#container .label7{fill:hsl(0, 100%, 46.2745098039%);}#container .arrow7{stroke:hsl(0, 100%, 46.2745098039%);}#container .branch{stroke-width:1;stroke:#333333;stroke-dasharray:2;}#container .commit-label{font-size:10px;fill:#000021;}#container .commit-label-bkg{font-size:10px;fill:#ffffde;opacity:0.5;}#container .tag-label{font-size:10px;fill:#131300;}#container .tag-label-bkg{fill:#ECECFF;stroke:hsl(240, 60%, 86.2745098039%);}#container .tag-hole{fill:#333;}#container .commit-merge{stroke:#ECECFF;fill:#ECECFF;}#container .commit-reverse{stroke:#ECECFF;fill:#ECECFF;stroke-width:3;}#container .commit-highlight-inner{stroke:#ECECFF;fill:#ECECFF;}#container .arrow{stroke-width:8;stroke-linecap:round;fill:none;}#container .gitTitleText{text-anchor:middle;font-size:18px;fill:#333;}#container :root{--mermaid-font-family:"trebuchet ms",verdana,arial,sans-serif;}</style><g></g><g class="commit-bullets"></g><g class="commit-labels"></g><g><line class="branch branch0" y2="0" x2="650" y1="0" x1="0"></line><rect transform="translate(-19, -9.5)" height="23" width="54.3125" y="-1.5" x="-70.3125" ry="4" rx="4" class="branchLabelBkg label0"></rect><g class="branchLabel"><g transform="translate(-80.3125, -10.5)" class="label branch-label0"><text><tspan class="row" x="0" dy="1em" xml:space="preserve">main</tspan></text></g></g><line class="branch branch1" y2="90" x2="650" y1="90" x1="0"></line><rect transform="translate(-19, 80.5)" height="23" width="76.21875" y="-1.5" x="-92.21875" ry="4" rx="4" class="branchLabelBkg label1"></rect><g class="branchLabel"><g transform="translate(-102.21875, 79.5)" class="label branch-label1"><text><tspan class="row" x="0" dy="1em" xml:space="preserve">develop</tspan></text></g></g><line class="branch branch2" y2="180" x2="650" y1="180" x1="0"></line><rect transform="translate(-19, 170.5)" height="23" width="148.34375" y="-1.5" x="-164.34375" ry="4" rx="4" class="branchLabelBkg label2"></rect><g class="branchLabel"><g transform="translate(-174.34375, 169.5)" class="label branch-label2"><text><tspan class="row" x="0" dy="1em" xml:space="preserve">feature/user-auth</tspan></text></g></g><line class="branch branch3" y2="270" x2="650" y1="270" x1="0"></line><rect transform="translate(-19, 260.5)" height="23" width="100.21875" y="-1.5" x="-116.21875" ry="4" rx="4" class="branchLabelBkg label3"></rect><g class="branchLabel"><g transform="translate(-126.21875, 259.5)" class="label branch-label3"><text><tspan class="row" x="0" dy="1em" xml:space="preserve">feature/api</tspan></text></g></g><line class="branch branch4" y2="360" x2="650" y1="360" x1="0"></line><rect transform="translate(-19, 350.5)" height="23" width="124.67219543457031" y="-1.5" x="-140.6721954345703" ry="4" rx="4" class="branchLabelBkg label4"></rect><g class="branchLabel"><g transform="translate(-150.6721954345703, 349.5)" class="label branch-label4"><text><tspan class="row" x="0" dy="1em" xml:space="preserve">hotfix/security</tspan></text></g></g><line class="branch branch5" y2="450" x2="650" y1="450" x1="0"></line><rect transform="translate(-19, 440.5)" height="23" width="105.76814270019531" y="-1.5" x="-121.76814270019531" ry="4" rx="4" class="branchLabelBkg label5"></rect><g class="branchLabel"><g transform="translate(-131.7681427001953, 439.5)" class="label branch-label5"><text><tspan class="row" x="0" dy="1em" xml:space="preserve">release/v1.0</tspan></text></g></g></g><g class="commit-arrows"><path class="arrow arrow1" d="M 10 0 L 10 70 A 20 20, 0, 0, 0, 30 90 L 60 90"></path><path class="arrow arrow2" d="M 60 90 L 60 160 A 20 20, 0, 0, 0, 80 180 L 110 180"></path><path class="arrow arrow2" d="M 110 180 L 160 180"></path><path class="arrow arrow1" d="M 60 90 L 210 90"></path><path class="arrow arrow2" d="M 160 180 L 190 180 A 20 20, 0, 0, 0, 210 160 L 210 90"></path><path class="arrow arrow3" d="M 210 90 L 210 250 A 20 20, 0, 0, 0, 230 270 L 260 270"></path><path class="arrow arrow3" d="M 260 270 L 310 270"></path><path class="arrow arrow1" d="M 210 90 L 360 90"></path><path class="arrow arrow3" d="M 310 270 L 340 270 A 20 20, 0, 0, 0, 360 250 L 360 90"></path><path class="arrow arrow4" d="M 360 90 L 360 340 A 20 20, 0, 0, 0, 380 360 L 410 360"></path><path class="arrow arrow0" d="M 10 0 L 460 0"></path><path class="arrow arrow4" d="M 410 360 L 440 360 A 20 20, 0, 0, 0, 460 340 L 460 0"></path><path class="arrow arrow1" d="M 360 90 L 510 90"></path><path class="arrow arrow0" d="M 460 0 L 490 0 A 20 20, 0, 0, 1, 510 20 L 510 90"></path><path class="arrow arrow5" d="M 510 90 L 510 430 A 20 20, 0, 0, 0, 530 450 L 560 450"></path><path class="arrow arrow0" d="M 460 0 L 610 0"></path><path class="arrow arrow5" d="M 560 450 L 590 450 A 20 20, 0, 0, 0, 610 430 L 610 0"></path></g><g class="commit-bullets"><circle class="commit init commit0" r="10" cy="0" cx="10"></circle><circle class="commit feature-1-start commit1" r="10" cy="90" cx="60"></circle><circle class="commit auth-basic commit2" r="10" cy="180" cx="110"></circle><circle class="commit auth-social commit2" r="10" cy="180" cx="160"></circle><circle class="commit 4-502e5f1 commit1" r="9" cy="90" cx="210"></circle><circle class="commit commit-merge 4-502e5f1 commit1" r="6" cy="90" cx="210"></circle><circle class="commit api-setup commit3" r="10" cy="270" cx="260"></circle><circle class="commit endpoints commit3" r="10" cy="270" cx="310"></circle><circle class="commit 7-bc7bf02 commit1" r="9" cy="90" cx="360"></circle><circle class="commit commit-merge 7-bc7bf02 commit1" r="6" cy="90" cx="360"></circle><circle class="commit fix-vulnerability commit4" r="10" cy="360" cx="410"></circle><circle class="commit 9-42de01b commit0" r="9" cy="0" cx="460"></circle><circle class="commit commit-merge 9-42de01b commit0" r="6" cy="0" cx="460"></circle><circle class="commit 10-63bd1b5 commit1" r="9" cy="90" cx="510"></circle><circle class="commit commit-merge 10-63bd1b5 commit1" r="6" cy="90" cx="510"></circle><circle class="commit version-bump commit5" r="10" cy="450" cx="560"></circle><circle class="commit 12-461d262 commit0" r="9" cy="0" cx="610"></circle><circle class="commit commit-merge 12-461d262 commit0" r="6" cy="0" cx="610"></circle></g><g class="commit-labels"><g transform="translate(-17.189994201660156, 15.269994812011719) rotate(-45, 0, 0)"><rect height="16" width="19.499984741210938" y="13.5" x="0.25000762939453125" class="commit-label-bkg"></rect><text class="commit-label" y="25" x="2.2500076293945312">init</text></g><g transform="translate(-36.25838562011719, 32.33118713378906) rotate(-45, 50, 90)"><rect height="16" width="69.67996215820312" y="103.5" x="25.160018920898438" class="commit-label-bkg"></rect><text class="commit-label" y="115" x="27.160018920898438">feature-1-start</text></g><g transform="translate(-29.70338562011719, 26.466187133789063) rotate(-45, 100, 180)"><rect height="16" width="52.429962158203125" y="193.5" x="83.78501892089844" class="commit-label-bkg"></rect><text class="commit-label" y="205" x="85.78501892089844">auth-basic</text></g><g transform="translate(-30.759790954589842, 27.41139190673828) rotate(-45, 150, 180)"><rect height="16" width="55.20997619628906" y="193.5" x="132.39501190185547" class="commit-label-bkg"></rect><text class="commit-label" y="205" x="134.39501190185547">auth-social</text></g><g transform="translate(-27.936387939453123, 24.885189208984375) rotate(-45, 250, 270)"><rect height="16" width="47.77996826171875" y="283.5" x="236.11001586914062" class="commit-label-bkg"></rect><text class="commit-label" y="295" x="238.11001586914062">api-setup</text></g><g transform="translate(-28.91679443359375, 25.762395019531247) rotate(-45, 300, 270)"><rect height="16" width="50.3599853515625" y="283.5" x="284.82000732421875" class="commit-label-bkg"></rect><text class="commit-label" y="295" x="286.82000732421875">endpoints</text></g><g transform="translate(-38.3483740234375, 34.201176757812505) rotate(-45, 400, 360)"><rect height="16" width="75.179931640625" y="373.5" x="372.4100341796875" class="commit-label-bkg"></rect><text class="commit-label" y="385" x="374.4100341796875">fix-vulnerability</text></g><g transform="translate(-35.46418701171875, 31.62058837890625) rotate(-45, 550, 450)"><rect height="16" width="67.5899658203125" y="463.5" x="526.2050170898438" class="commit-label-bkg"></rect><text class="commit-label" y="475" x="528.2050170898438">version-bump</text></g><polygon points="585.3649978637695,-17.2  
      585.3649978637695,-21.2
      593.3649978637695,-27.2
      626.6350021362305,-27.2
      626.6350021362305,-11.2
      593.3649978637695,-11.2" class="tag-label-bkg"></polygon><circle class="tag-hole" r="1.5" cx="589.3649978637695" cy="-19.2"></circle><text x="597.3649978637695" class="tag-label" y="-16">v1.0.0</text></g></svg>