<svg xmlns="http://www.w3.org/2000/svg" viewBox="0 0 316.79 98.81"><defs><style>.cls-1{fill:#2932e1;}.cls-2{fill:#e10602;}</style></defs><title>资源 1</title><g id="图层_2" data-name="图层 2"><g id="图层_1-2" data-name="图层 1"><path class="cls-1" d="M124.31,52.37c7.29-1,9.82-8.43,9.08-15.57-.66-6.31-4.9-13.5-11.87-12.87-6.71.61-10.85,7.21-10.81,15C110.75,46.26,115.87,53.53,124.31,52.37Z"/><path class="cls-1" d="M144.62,29.38c7.2-.68,9.77-8.07,9.6-15.33-.19-8-4.58-14.4-11.48-14-6.15.32-11.1,6.49-11.36,14.7C131.12,23.3,136.62,30.14,144.62,29.38Z"/><path class="cls-1" d="M193.45,23.93c-7-.63-11.21,6.56-11.87,12.87-.75,7.14,1.79,14.57,9.08,15.57,8.44,1.16,13.56-6.11,13.6-13.48C204.3,31.14,200.16,24.54,193.45,23.93Z"/><path class="cls-1" d="M170.35,29.38c8,.76,13.5-6.08,13.24-14.66C183.33,6.51,178.38.34,172.23,0c-6.9-.37-11.29,6-11.48,14C160.58,21.31,163.15,28.7,170.35,29.38Z"/><path class="cls-1" d="M135.52,77.09A5.71,5.71,0,0,0,141.26,83H147V71.13h-5.94C137.63,71.13,135.52,74,135.52,77.09Z"/><path class="cls-1" d="M185.85,60.64c-2.32-2.18-8.73-6.51-13.6-14.57-3.28-5.34-8.86-8.94-14.77-8.82-5.9-.12-11.48,3.48-14.76,8.82-4.87,8.06-11.28,12.39-13.6,14.57-2.89,2.74-15.13,9.24-12.46,23.45,2.63,14,15.91,14.65,15.91,14.65s6.21.66,16.91-1.92a36.05,36.05,0,0,1,16,0c10.7,2.58,16.91,1.92,16.91,1.92s13.28-.63,15.91-14.65C201,69.88,188.74,63.38,185.85,60.64ZM154,89.75H141.59c-8.23,0-13-5.32-13-12.89a12.06,12.06,0,0,1,12.5-12.41H147V53.69H154Zm28,0H167.71c-5.79,0-8.42-3.12-8.42-7.7V64.23H166V79.87c0,2.46,1,3.17,2.25,3.17h7V64.23H182Z"/><path class="cls-2" d="M93.28,95.76h11V58.22h-11Zm0-51.25v9.54h11V44.51Z"/><path class="cls-2" d="M77.47,88.46H63c-2,0-3.57-1.42-3.57-4a3.84,3.84,0,0,1,3.79-4H77.47Zm-2-30.27H52.08v7.89H72.59c3,0,4.88,1.59,4.88,4.26v2.78H60.34c-6.59,0-11.2,4-11.2,11.32,0,7.88,4.69,11.44,11.2,11.44H88V69C88,62.54,82.9,58.19,75.47,58.19Z"/><path class="cls-2" d="M26.37,65.16H11.47V54.34H26.34c4.19,0,6.66,2,6.66,5.12C33,63.66,30.52,65.16,26.37,65.16ZM27,86.64H11.47V75.4H26.94c4,0,6.84,2.12,6.84,5.73S31.05,86.64,27,86.64Zm19.49-4.06c0-6.19-3-10.84-7.92-12.3,4.33-1.84,6.13-5.52,6.13-11.47C44.72,51,38.24,44.17,25,44.17H0V96.31H27.65C40,96.31,46.51,91.53,46.51,82.58Z"/><path class="cls-2" d="M248.76,66v7.27H220.13V66Zm.05,20.12c0,1.5-.8,2.35-2.06,2.35H220.13V80.66h28.68Zm11.57-32.81V45.51H208.43v7.9h19.7l-1.71,5.18h-15.7V96.1H251c4.15,0,6.9-2.41,6.9-6.73V58.59H237.07l1.71-5.27Z"/><path class="cls-2" d="M266.27,47.67h16.08a1.2,1.2,0,0,0,1.36-1.36V45.4h7.93v2.5q.69,6.1-6.34,5.66h-1.81V57h8.38v6.57H283V96.15h-7.25V63.53H266V57h9.74V53.79h-9.51ZM274.42,90q.22,5.88-5.43,5.21H266V89.13h.45c.46.15.76-.45.91-1.81l.68-22h6.8Zm9.52-24.7h6.12l.45,21.52c0,.91.23,1.36.68,1.36h.45v-4.3l14.73-1.36V45.18h7.25v36.7l3.17-.45v7.7l-3.17.23v7h-7.48V90l-14.5,1.36V95h-3.17c-3,.45-4.46-1.36-4.3-5.44Zm8.38-17.67H300l.9,6.57c.15,1.66.83,2.42,2,2.27h2.27v6.34H298q-3.63.67-4.54-5.44Zm6.8,31.49c-3.93.31-5.82-1.36-5.67-5l-1.13-8.84H300l.9,5.67c.3,1.51,1.06,2.19,2.27,2H305v6.12Z"/></g></g></svg>