<svg xmlns="http://www.w3.org/2000/svg" xmlns:xlink="http://www.w3.org/1999/xlink" width="388.79999999999995" height="95.04">
<defs
    id="defs1">
    <linearGradient id="logoGradient" x1="100%" y1="100%">
      <stop offset="0%" stop-color="#2c7bb6" stop-opacity=".5">
        <!-- <animate attributeName="stop-color" values="#2c7bb6;#00a6ca;#00ccbc;#90eb9d;#00ccbc;#f9d057;#f29e2e;#e76818;#d7191c" dur="2s" repeatCount="indefinite" /> -->
      </stop>
      <stop offset="100%" stop-color="#d7191c" stop-opacity=".5">
        <!-- <animate attributeName="stop-color" values="#d7191c;#e76818;#f29e2e;#f9d057;#f29e2e;#90eb9d;#00ccbc;#00a6ca;#2c7bb6" dur="2s" repeatCount="indefinite" />
        <animate attributeName="offset" values=".99;.875;.75;.5;.375;.25;.125;0;.125;.25.375;.5;.625;.75;.875;.99" dur="2s" repeatCount="indefinite" /> -->
      </stop>
    </linearGradient>
    <style>
    .animated-path {
		stroke: #000;
      stroke-dasharray: 50 700;
      animation-name: dash;
      animation-duration: 6s;
      animation-iteration-count: infinite;
      animation-fill-mode: forwards;
      animation-direction: normal;
      animation-timing-function: ease-in-out;
    }
	.dark .animated-path{
		stroke: #fff;
	}
    @keyframes dash {
      0%{
        stroke-dashoffset: 800;
      }

      100%{
        stroke-dashoffset: 80;
      }
    }
    </style>
  </defs>

<path d="M4.32 47.50L4.32 47.50Q4.32 42.02 5.51 37.16Q6.70 32.30 9.25 28.63Q11.81 24.96 15.84 22.80Q19.87 20.64 25.63 20.64L25.63 20.64Q28.66 20.64 30.89 21.22Q33.12 21.79 34.70 22.73Q36.29 23.66 37.30 24.89Q38.30 26.11 38.81 27.41L38.81 27.41Q39.46 29.14 39.13 30.25Q38.81 31.37 37.80 31.94L37.80 31.94Q36.79 32.52 35.60 32.34Q34.42 32.16 33.41 30.72L33.41 30.72Q32.47 29.35 30.46 28.24Q28.44 27.12 25.27 27.12L25.27 27.12Q21.60 27.12 18.90 28.81Q16.20 30.50 14.40 33.31Q12.60 36.12 11.70 39.79Q10.80 43.46 10.80 47.50L10.80 47.50Q10.80 50.95 11.56 54.62Q12.31 58.30 14.04 61.32Q15.77 64.34 18.65 66.25Q21.53 68.16 25.78 68.16L25.78 68.16Q26.78 68.16 27.90 68.05Q29.02 67.94 30.06 67.69Q31.10 67.44 32.04 67.04Q32.98 66.65 33.62 66.14L33.62 66.14Q34.85 65.14 36.14 65.24Q37.44 65.35 38.38 66.29L38.38 66.29Q39.31 67.22 39.31 68.52Q39.31 69.82 37.87 71.26L37.87 71.26Q36.79 72.34 35.35 72.98Q33.91 73.63 32.26 74.03Q30.60 74.42 28.87 74.53Q27.14 74.64 25.49 74.64L25.49 74.64Q19.73 74.64 15.70 72.41Q11.66 70.18 9.14 66.43Q6.62 62.69 5.47 57.79Q4.32 52.90 4.32 47.50ZM82.08 26.76L82.08 71.40Q82.08 73.06 81.29 73.85Q80.50 74.64 78.84 74.64L78.84 74.64Q77.18 74.64 76.39 73.85Q75.60 73.06 75.60 71.40L75.60 71.40L75.60 31.44Q75.60 30.79 75.24 30.79Q74.88 30.79 74.66 31.44L74.66 31.44L68.47 52.54Q68.11 53.90 67.18 54.55Q66.24 55.20 64.80 55.20L64.80 55.20Q63.36 55.20 62.42 54.55Q61.49 53.90 61.13 52.54L61.13 52.54L54.94 31.44Q54.72 30.72 54.36 30.76Q54 30.79 54 31.44L54 31.44L54 71.40Q54 73.06 53.21 73.85Q52.42 74.64 50.76 74.64L50.76 74.64Q49.10 74.64 48.31 73.85Q47.52 73.06 47.52 71.40L47.52 71.40L47.52 26.76Q47.52 23.66 49.00 22.15Q50.47 20.64 53.28 20.64L53.28 20.64Q55.51 20.64 56.88 21.61Q58.25 22.58 58.82 24.60L58.82 24.60L64.01 44.40Q64.30 45.41 64.80 45.41Q65.30 45.41 65.59 44.40L65.59 44.40L70.78 24.60Q71.35 22.58 72.72 21.61Q74.09 20.64 76.32 20.64L76.32 20.64Q79.13 20.64 80.60 22.15Q82.08 23.66 82.08 26.76L82.08 26.76ZM108 68.16L108 68.16Q111.46 68.16 113.54 65.89Q115.63 63.62 116.75 60.42Q117.86 57.22 118.22 53.65Q118.58 50.09 118.58 47.50L118.58 47.50Q118.58 44.98 118.22 41.48Q117.86 37.99 116.75 34.79Q115.63 31.58 113.54 29.35Q111.46 27.12 108 27.12L108 27.12Q104.54 27.12 102.46 29.39Q100.37 31.66 99.25 34.86Q98.14 38.06 97.78 41.56Q97.42 45.05 97.42 47.57L97.42 47.57Q97.42 50.16 97.78 53.69Q98.14 57.22 99.25 60.42Q100.37 63.62 102.46 65.89Q104.54 68.16 108 68.16ZM108 74.64L108 74.64Q102.60 74.64 99.25 72.01Q95.90 69.38 94.07 65.35Q92.23 61.32 91.58 56.57Q90.94 51.82 90.94 47.50L90.94 47.50Q90.94 43.32 91.55 38.60Q92.16 33.89 94.00 29.89Q95.83 25.90 99.18 23.27Q102.53 20.64 108 20.64L108 20.64Q113.40 20.64 116.75 23.23Q120.10 25.82 121.93 29.82Q123.77 33.82 124.42 38.50Q125.06 43.18 125.06 47.42L125.06 47.42Q125.06 51.74 124.42 56.53Q123.77 61.32 121.90 65.35Q120.02 69.38 116.71 72.01Q113.40 74.64 108 74.64ZM135.36 71.40L135.36 26.26Q135.36 23.45 136.73 22.04Q138.10 20.64 140.69 20.64L140.69 20.64Q142.78 20.64 144.00 21.54Q145.22 22.44 145.87 24.24L145.87 24.24L159.91 63.12Q159.98 63.34 160.06 63.44Q160.13 63.55 160.27 63.55L160.27 63.55Q160.42 63.55 160.49 63.44Q160.56 63.34 160.56 63.12L160.56 63.12L160.56 23.88Q160.56 22.22 161.35 21.43Q162.14 20.64 163.80 20.64L163.80 20.64Q165.46 20.64 166.25 21.43Q167.04 22.22 167.04 23.88L167.04 23.88L167.04 69.02Q167.04 71.83 165.67 73.24Q164.30 74.64 161.71 74.64L161.71 74.64Q159.62 74.64 158.40 73.74Q157.18 72.84 156.53 71.04L156.53 71.04L142.49 32.16Q142.42 31.94 142.34 31.84Q142.27 31.73 142.13 31.73L142.13 31.73Q141.98 31.73 141.91 31.84Q141.84 31.94 141.84 32.16L141.84 32.16L141.84 71.40Q141.84 73.06 141.05 73.85Q140.26 74.64 138.60 74.64L138.60 74.64Q136.94 74.64 136.15 73.85Q135.36 73.06 135.36 71.40L135.36 71.40ZM194.40 68.16L194.40 68.16Q197.86 68.16 199.94 65.89Q202.03 63.62 203.15 60.42Q204.26 57.22 204.62 53.65Q204.98 50.09 204.98 47.50L204.98 47.50Q204.98 44.98 204.62 41.48Q204.26 37.99 203.15 34.79Q202.03 31.58 199.94 29.35Q197.86 27.12 194.40 27.12L194.40 27.12Q190.94 27.12 188.86 29.39Q186.77 31.66 185.65 34.86Q184.54 38.06 184.18 41.56Q183.82 45.05 183.82 47.57L183.82 47.57Q183.82 50.16 184.18 53.69Q184.54 57.22 185.65 60.42Q186.77 63.62 188.86 65.89Q190.94 68.16 194.40 68.16ZM194.40 74.64L194.40 74.64Q189 74.64 185.65 72.01Q182.30 69.38 180.47 65.35Q178.63 61.32 177.98 56.57Q177.34 51.82 177.34 47.50L177.34 47.50Q177.34 43.32 177.95 38.60Q178.56 33.89 180.40 29.89Q182.23 25.90 185.58 23.27Q188.93 20.64 194.40 20.64L194.40 20.64Q199.80 20.64 203.15 23.23Q206.50 25.82 208.33 29.82Q210.17 33.82 210.82 38.50Q211.46 43.18 211.46 47.42L211.46 47.42Q211.46 51.74 210.82 56.53Q210.17 61.32 208.30 65.35Q206.42 69.38 203.11 72.01Q199.80 74.64 194.40 74.64ZM231.48 68.52L231.48 68.52Q231.48 67.22 231.95 66.11Q232.42 64.99 233.24 64.16Q234.07 63.34 235.19 62.87Q236.30 62.40 237.60 62.40L237.60 62.40Q238.90 62.40 240.01 62.87Q241.13 63.34 241.96 64.16Q242.78 64.99 243.25 66.11Q243.72 67.22 243.72 68.52L243.72 68.52Q243.72 69.74 243.25 70.86Q242.78 71.98 241.96 72.80Q241.13 73.63 240.01 74.14Q238.90 74.64 237.60 74.64L237.60 74.64Q236.30 74.64 235.19 74.14Q234.07 73.63 233.24 72.80Q232.42 71.98 231.95 70.86Q231.48 69.74 231.48 68.52ZM264.96 71.40L264.96 26.26Q264.96 23.45 266.33 22.04Q267.70 20.64 270.29 20.64L270.29 20.64Q272.38 20.64 273.60 21.54Q274.82 22.44 275.47 24.24L275.47 24.24L289.51 63.12Q289.58 63.34 289.66 63.44Q289.73 63.55 289.87 63.55L289.87 63.55Q290.02 63.55 290.09 63.44Q290.16 63.34 290.16 63.12L290.16 63.12L290.16 23.88Q290.16 22.22 290.95 21.43Q291.74 20.64 293.40 20.64L293.40 20.64Q295.06 20.64 295.85 21.43Q296.64 22.22 296.64 23.88L296.64 23.88L296.64 69.02Q296.64 71.83 295.27 73.24Q293.90 74.64 291.31 74.64L291.31 74.64Q289.22 74.64 288 73.74Q286.78 72.84 286.13 71.04L286.13 71.04L272.09 32.16Q272.02 31.94 271.94 31.84Q271.87 31.73 271.73 31.73L271.73 31.73Q271.58 31.73 271.51 31.84Q271.44 31.94 271.44 32.16L271.44 32.16L271.44 71.40Q271.44 73.06 270.65 73.85Q269.86 74.64 268.20 74.64L268.20 74.64Q266.54 74.64 265.75 73.85Q264.96 73.06 264.96 71.40L264.96 71.40ZM316.08 30.72L316.08 43.18L334.44 43.18Q335.88 43.18 336.78 44.08Q337.68 44.98 337.68 46.42L337.68 46.42Q337.68 47.86 336.78 48.76Q335.88 49.66 334.44 49.66L334.44 49.66L316.08 49.66L316.08 64.56Q316.08 66.00 316.80 66.72Q317.52 67.44 318.96 67.44L318.96 67.44L336.89 67.44Q338.33 67.44 339.08 68.34Q339.84 69.24 339.84 70.68L339.84 70.68Q339.84 72.12 339.08 73.02Q338.33 73.92 336.89 73.92L336.89 73.92L315.36 73.92Q312.41 73.92 311.00 72.52Q309.60 71.11 309.60 68.16L309.60 68.16L309.60 27.12Q309.60 24.17 311.00 22.76Q312.41 21.36 315.36 21.36L315.36 21.36L336.89 21.36Q338.33 21.36 339.08 22.26Q339.84 23.16 339.84 24.60L339.84 24.60Q339.84 26.04 339.08 26.94Q338.33 27.84 336.89 27.84L336.89 27.84L318.96 27.84Q317.52 27.84 316.80 28.56Q316.08 29.28 316.08 30.72L316.08 30.72ZM363.96 71.40L363.96 27.84L352.80 27.84Q351.36 27.84 350.46 26.94Q349.56 26.04 349.56 24.60L349.56 24.60Q349.56 23.16 350.46 22.26Q351.36 21.36 352.80 21.36L352.80 21.36L381.60 21.36Q383.04 21.36 383.94 22.26Q384.84 23.16 384.84 24.60L384.84 24.60Q384.84 26.04 383.94 26.94Q383.04 27.84 381.60 27.84L381.60 27.84L370.44 27.84L370.44 71.40Q370.44 73.06 369.65 73.85Q368.86 74.64 367.20 74.64L367.20 74.64Q365.54 74.64 364.75 73.85Q363.96 73.06 363.96 71.40L363.96 71.40Z" stroke-width="2" 
      class="animated-path" fill="url(#logoGradient)">
    <animate attributeName="stroke-dashoffset" values="1000;0" dur="6s" />
  </path></svg>