<?xml version="1.0" standalone="no"?><!DOCTYPE svg PUBLIC "-//W3C//DTD SVG 1.1//EN" "http://www.w3.org/Graphics/SVG/1.1/DTD/svg11.dtd" ><svg xmlns="http://www.w3.org/2000/svg"><metadata></metadata><defs><font id="JetBrainsMapleMono-ExtraBold-1.2304.70" horiz-adv-x="1000"><font-face font-family="JetBrains Maple Mono ExtraBold" font-weight="800" font-stretch="normal" units-per-em="1000" panose-1="2 0 0 9 0 0 0 0 0 0" ascent="1020" descent="-300" x-height="0" bbox="5 -180 991 870" underline-thickness="50" underline-position="-155" unicode-range="U+0022-9f99" /><missing-glyph horiz-adv-x="600" d="M160 50 l300 0 l0 571 l-300 -571 ZM140 109 l300 571 l-300 0 l0 -571 ZM90 0 l0 730 l420 0 l0 -730 l-420 0 Z" /><glyph glyph-name="quotedbl" unicode="&quot;" d="M96 730 l156 0 l-8 -300 l-139 0 l-9 300 ZM348 730 l156 0 l-8 -300 l-139 0 l-9 300 Z" /><glyph glyph-name="dollar" unicode="$" d="M329 122 q35 5 54.5 25 q19.5 20 19.5 52 q0 31 -19.5 54 q-19.5 23 -54.5 32 l0 -163 ZM207 535 q0 -60 57 -81 l0 153 q-57 -14 -57 -72 ZM47 200 l150 0 q0 -28 18 -48 q18 -20 49 -28 l0 175 l-11 3 q-93 22 -144.5 81.5 q-51.5 59.5 -51.5 145.5 q0 89 55.5 145 q55.5 56 151.5 64 l0 132 l65 0 l0 -131 q98 -8 155 -62.5 q57 -54.5 57 -141.5 l-150 0 q0 58 -62 72 l0 -169 l27 -6 q97 -22 147 -79.5 q50 -57.5 50 -146.5 q0 -91 -60.5 -149 q-60.5 -58 -163.5 -66 l0 -131 l-65 0 l0 132 q-100 8 -158.5 64 q-58.5 56 -58.5 144 Z" /><glyph glyph-name="comma" unicode="," d="M175 -160 l52 306 l168 0 l-80 -306 l-140 0 Z" /><glyph glyph-name="hyphen" unicode="-" d="M140 260 l0 140 l320 0 l0 -140 l-320 0 Z" /><glyph glyph-name="period" unicode="." d="M227 18 q-28 28 -28 73 q0 45 28 73 q28 28 73 28 q45 0 73 -28 q28 -28 28 -73 q0 -45 -28 -73 q-28 -28 -73 -28 q-45 0 -73 28 Z" /><glyph glyph-name="zero" unicode="0" d="M249.5 318.5 q-19.5 17.5 -19.5 49.5 q0 32 19.5 48.5 q19.5 16.5 50.5 16.5 q32 0 51 -16.5 q19 -16.5 19 -48.5 q0 -32 -19 -49.5 q-19 -17.5 -51 -17.5 q-31 0 -50.5 17.5 ZM200 210 q0 -42 27 -66 q27 -24 73 -24 q47 0 73.5 24 q26.5 24 26.5 66 l0 310 q0 42 -26.5 66 q-26.5 24 -73.5 24 q-47 0 -73.5 -24 q-26.5 -24 -26.5 -66 l0 -310 ZM60 210 l0 310 q0 66 29.5 115.5 q29.5 49.5 83.5 77 q54 27.5 127 27.5 q74 0 127.5 -27.5 q53.5 -27.5 83 -77 q29.5 -49.5 29.5 -115.5 l0 -310 q0 -66 -29.5 -115.5 q-29.5 -49.5 -83 -77 q-53.5 -27.5 -127.5 -27.5 q-73 0 -127 27.5 q-54 27.5 -83.5 77 q-29.5 49.5 -29.5 115.5 Z" /><glyph glyph-name="one" unicode="1" d="M78 444 l0 166 l171 120 l165 0 l0 -595 l146 0 l0 -135 l-480 0 l0 135 l184 0 l0 443 l-186 -134 Z" /><glyph glyph-name="two" unicode="2" d="M53 505 q0 70 31.5 122.5 q31.5 52.5 87 82.5 q55.5 30 128.5 30 q71 0 124 -27.5 q53 -27.5 83 -77 q30 -49.5 30 -114.5 q0 -58 -25 -112.5 q-25 -54.5 -81 -107.5 l-174 -166 l288 0 l0 -135 l-480 0 l0 134 l277 275 q42 42 42 101 q0 41 -24.5 68 q-24.5 27 -64.5 27 q-41 0 -66.5 -28 q-25.5 -28 -25.5 -72 l-150 0 Z" /><glyph glyph-name="three" unicode="3" d="M52 200 l150 0 q0 -37 25.5 -58.5 q25.5 -21.5 68.5 -21.5 q44 0 69 21.5 q25 21.5 25 58.5 l0 58 q0 41 -24.5 63.5 q-24.5 22.5 -69.5 22.5 l-100 0 l0 116 l160 140 l-274 0 l0 130 l436 0 l0 -121 l-161 -144 q86 -15 134.5 -69 q48.5 -54 48.5 -137 l0 -59 q0 -97 -65.5 -153.5 q-65.5 -56.5 -178.5 -56.5 q-112 0 -178 56.5 q-66 56.5 -66 153.5 Z" /><glyph glyph-name="four" unicode="4" d="M52 134 l0 209 l272 387 l165 0 l-297 -429 l0 -37 l178 0 l0 156 l150 0 l0 -420 l-150 0 l0 134 l-318 0 Z" /><glyph glyph-name="five" unicode="5" d="M52 200 l150 0 q0 -37 26.5 -58.5 q26.5 -21.5 69.5 -21.5 q44 0 68 22.5 q24 22.5 24 62.5 l0 51 q0 84 -92 84 l-221 0 l0 390 l436 0 l0 -135 l-293 0 l0 -125 l84 0 q113 0 174.5 -56 q61.5 -56 61.5 -158 l0 -51 q0 -100 -64.5 -157.5 q-64.5 -57.5 -177.5 -57.5 q-112 0 -179 56.5 q-67 56.5 -67 153.5 Z" /><glyph glyph-name="six" unicode="6" d="M191 227 q0 -52 29.5 -82 q29.5 -30 79.5 -30 q50 0 79.5 30 q29.5 30 29.5 82 q0 53 -29.5 83.5 q-29.5 30.5 -79.5 30.5 q-50 0 -79.5 -30.5 q-29.5 -30.5 -29.5 -83.5 ZM45 238 q0 41 19 99 q19 58 52 118 l150 275 l171 0 l-193 -328 l5 -3 q17 25 47.5 39 q30.5 14 67.5 14 q88 0 139.5 -60 q51.5 -60 51.5 -163 q0 -110 -68.5 -174.5 q-68.5 -64.5 -186.5 -64.5 q-78 0 -135.5 30.5 q-57.5 30.5 -88.5 86 q-31 55.5 -31 131.5 Z" /><glyph glyph-name="seven" unicode="7" d="M57 480 l0 250 l513 0 l0 -129 l-270 -601 l-164 0 l272 600 l-201 0 l0 -120 l-150 0 Z" /><glyph glyph-name="eight" unicode="8" d="M209 528 q0 -40 25.5 -65.5 q25.5 -25.5 65.5 -25.5 q41 0 66.5 25.5 q25.5 25.5 25.5 65.5 q0 41 -25.5 66 q-25.5 25 -66.5 25 q-40 0 -65.5 -25 q-25.5 -25 -25.5 -66 ZM188 217 q0 -46 31.5 -75 q31.5 -29 80.5 -29 q50 0 81 29 q31 29 31 75 q0 47 -31 75.5 q-31 28.5 -81 28.5 q-49 0 -80.5 -28.5 q-31.5 -28.5 -31.5 -75.5 ZM44 208 q0 44 17.5 81 q17.5 37 48 63 q30.5 26 69.5 35 l0 2 q-50 9 -82 51.5 q-32 42.5 -32 101.5 q0 59 30 103.5 q30 44.5 83 69.5 q53 25 122 25 q70 0 123 -25 q53 -25 83 -69.5 q30 -44.5 30 -103.5 q0 -59 -32.5 -101.5 q-32.5 -42.5 -82.5 -51.5 l0 -2 q40 -9 70 -35 q30 -26 47.5 -63 q17.5 -37 17.5 -81 q0 -64 -32.5 -113.5 q-32.5 -49.5 -90 -77 q-57.5 -27.5 -133.5 -27.5 q-76 0 -133.5 27.5 q-57.5 27.5 -90 77 q-32.5 49.5 -32.5 113.5 Z" /><glyph glyph-name="nine" unicode="9" d="M220.5 585 q-29.5 -30 -29.5 -82 q0 -52 29.5 -83 q29.5 -31 79.5 -31 q50 0 79.5 31 q29.5 31 29.5 83 q0 52 -29.5 82 q-29.5 30 -79.5 30 q-50 0 -79.5 -30 ZM45 501 q0 110 68.5 174.5 q68.5 64.5 186.5 64.5 q79 0 136 -30.5 q57 -30.5 88 -86 q31 -55.5 31 -131.5 q0 -40 -19 -98.5 q-19 -58.5 -52 -118.5 l-150 -275 l-174 0 l164 281 q-8 -5 -18.5 -9 q-10.5 -4 -39.5 -4 q-58 0 -108.5 29.5 q-50.5 29.5 -81.5 82.5 q-31 53 -31 121 Z" /><glyph glyph-name="colon" unicode=":" d="M200 470 q0 41 27.5 65.5 q27.5 24.5 72.5 24.5 q45 0 72.5 -24.5 q27.5 -24.5 27.5 -65.5 q0 -40 -27.5 -65 q-27.5 -25 -72.5 -25 q-45 0 -72.5 25 q-27.5 25 -27.5 65 ZM200 80 q0 41 27.5 65.5 q27.5 24.5 72.5 24.5 q45 0 72.5 -24.5 q27.5 -24.5 27.5 -65.5 q0 -40 -27.5 -65 q-27.5 -25 -72.5 -25 q-45 0 -72.5 25 q-27.5 25 -27.5 65 Z" /><glyph glyph-name="semicolon" unicode=";" d="M225.5 405.5 q-25.5 25.5 -25.5 64.5 q0 39 25.5 64.5 q25.5 25.5 64.5 25.5 l20 0 q39 0 64.5 -25.5 q25.5 -25.5 25.5 -64.5 q0 -39 -25.5 -64.5 q-25.5 -25.5 -64.5 -25.5 l-20 0 q-39 0 -64.5 25.5 ZM170 -160 l52 306 l168 0 l-80 -306 l-140 0 Z" /><glyph glyph-name="A" unicode="A" d="M238 285 l123 0 l-35 176 q-7 38 -14.5 75.5 q-7.5 37.5 -11.5 58.5 q-4 -21 -10.5 -58 q-6.5 -37 -14.5 -75 l-37 -177 ZM25 0 l179 730 l190 0 l181 -730 l-153 0 l-35 165 l-174 0 l-35 -165 l-153 0 Z" /><glyph glyph-name="B" unicode="B" d="M211 436 l88 0 q44 0 69 23.5 q25 23.5 25 63.5 q0 41 -25 63.5 q-25 22.5 -69 22.5 l-88 0 l0 -173 ZM211 121 l94 0 q49 0 77 26 q28 26 28 72 q0 46 -28 72.5 q-28 26.5 -77 26.5 l-94 0 l0 -197 ZM66 0 l0 730 l235 0 q73 0 127.5 -23.5 q54.5 -23.5 85 -65.5 q30.5 -42 30.5 -99 q0 -62 -34 -103.5 q-34 -41.5 -88 -49.5 l0 -2 q41 -4 72.5 -28.5 q31.5 -24.5 49 -62.5 q17.5 -38 17.5 -85 q0 -63 -31.5 -110.5 q-31.5 -47.5 -88 -74 q-56.5 -26.5 -131.5 -26.5 l-244 0 Z" /><glyph glyph-name="C" unicode="C" d="M64 210 l0 310 q0 67 30.5 116 q30.5 49 85.5 76.5 q55 27.5 128 27.5 q74 0 128.5 -27.5 q54.5 -27.5 85 -76.5 q30.5 -49 30.5 -116 l-150 0 q0 44 -24.5 67 q-24.5 23 -69.5 23 q-45 0 -69.5 -23 q-24.5 -23 -24.5 -67 l0 -310 q0 -43 24.5 -66.5 q24.5 -23.5 69.5 -23.5 q45 0 69.5 23.5 q24.5 23.5 24.5 66.5 l150 0 q0 -66 -30.5 -115.5 q-30.5 -49.5 -85 -77 q-54.5 -27.5 -128.5 -27.5 q-73 0 -128 27.5 q-55 27.5 -85.5 77 q-30.5 49.5 -30.5 115.5 Z" /><glyph glyph-name="D" unicode="D" d="M213 135 l87 0 q45 0 73.5 28 q28.5 28 28.5 72 l0 261 q0 44 -28.5 71.5 q-28.5 27.5 -73.5 27.5 l-87 0 l0 -460 ZM63 0 l0 730 l237 0 q76 0 132.5 -29 q56.5 -29 88 -81.5 q31.5 -52.5 31.5 -123.5 l0 -261 q0 -70 -31.5 -123 q-31.5 -53 -88 -82.5 q-56.5 -29.5 -132.5 -29.5 l-237 0 Z" /><glyph glyph-name="E" unicode="E" d="M80 0 l0 730 l450 0 l0 -130 l-303 0 l0 -164 l268 0 l0 -124 l-268 0 l0 -182 l303 0 l0 -130 l-450 0 Z" /><glyph glyph-name="F" unicode="F" d="M70 0 l0 730 l470 0 l0 -140 l-322 0 l0 -162 l296 0 l0 -140 l-294 0 l0 -288 l-150 0 Z" /><glyph glyph-name="G" unicode="G" d="M60 210 l0 310 q0 67 30.5 116 q30.5 49 85.5 76.5 q55 27.5 128 27.5 q74 0 128.5 -27.5 q54.5 -27.5 85 -76.5 q30.5 -49 30.5 -116 l-150 0 q0 44 -24.5 67 q-24.5 23 -69.5 23 q-45 0 -69.5 -23 q-24.5 -23 -24.5 -67 l0 -310 q0 -43 24.5 -66.5 q24.5 -23.5 69.5 -23.5 q45 0 69.5 23.5 q24.5 23.5 24.5 66.5 l0 68 l-108 0 l0 127 l258 0 l0 -195 q0 -66 -30.5 -115.5 q-30.5 -49.5 -85 -77 q-54.5 -27.5 -128.5 -27.5 q-73 0 -128 27.5 q-55 27.5 -85.5 77 q-30.5 49.5 -30.5 115.5 Z" /><glyph glyph-name="H" unicode="H" d="M66 0 l0 730 l150 0 l0 -284 l168 0 l0 284 l150 0 l0 -730 l-150 0 l0 311 l-168 0 l0 -311 l-150 0 Z" /><glyph glyph-name="I" unicode="I" d="M80 0 l0 135 l145 0 l0 460 l-145 0 l0 135 l440 0 l0 -135 l-145 0 l0 -460 l145 0 l0 -135 l-440 0 Z" /><glyph glyph-name="J" unicode="J" d="M20 221 l150 0 q0 -46 27 -73.5 q27 -27.5 73 -27.5 q46 0 73 26.5 q27 26.5 27 72.5 l0 511 l150 0 l0 -511 q0 -106 -67 -167.5 q-67 -61.5 -183 -61.5 q-115 0 -182.5 62.5 q-67.5 62.5 -67.5 168.5 Z" /><glyph glyph-name="K" unicode="K" d="M65 0 l0 730 l150 0 l0 -286 l70 0 l122 286 l162 0 l-152 -345 l158 -385 l-164 0 l-125 313 l-71 0 l0 -313 l-150 0 Z" /><glyph glyph-name="L" unicode="L" d="M115 0 l0 730 l150 0 l0 -595 l295 0 l0 -135 l-445 0 Z" /><glyph glyph-name="M" unicode="M" d="M42 0 l0 730 l183 0 l74 -312 l74 312 l185 0 l0 -730 l-137 0 l0 280 q0 110 9.5 211.5 q9.5 101.5 19.5 178.5 l-92 -360 l-120 0 l-90 351 q10 -65 20.5 -165.5 q10.5 -100.5 10.5 -215.5 l0 -280 l-137 0 Z" /><glyph glyph-name="N" unicode="N" d="M60 0 l0 730 l175 0 l189 -565 q-3 37 -7 85.5 q-4 48.5 -6.5 97 q-2.5 48.5 -2.5 82.5 l0 300 l132 0 l0 -730 l-175 0 l-187 565 q3 -32 6 -76 q3 -44 5.5 -89 q2.5 -45 2.5 -80 l0 -320 l-132 0 Z" /><glyph glyph-name="O" unicode="O" d="M210 210 q0 -90 90 -90 q90 0 90 90 l0 310 q0 90 -90 90 q-90 0 -90 -90 l0 -310 ZM60 220 l0 290 q0 107 65 168.5 q65 61.5 175 61.5 q110 0 175 -61.5 q65 -61.5 65 -168.5 l0 -290 q0 -106 -65 -168 q-65 -62 -175 -62 q-110 0 -175 62 q-65 62 -65 168 Z" /><glyph glyph-name="P" unicode="P" d="M216 396 l99 0 q48 0 76.5 29 q28.5 29 28.5 73 q0 44 -28.5 73 q-28.5 29 -76.5 29 l-99 0 l0 -204 ZM66 0 l0 730 l249 0 q77 0 134.5 -29 q57.5 -29 89 -81 q31.5 -52 31.5 -122 q0 -69 -32 -121.5 q-32 -52.5 -89 -81.5 q-57 -29 -134 -29 l-99 0 l0 -266 l-150 0 Z" /><glyph glyph-name="Q" unicode="Q" d="M210 210 q0 -43 22 -66 q22 -23 68 -23 q47 0 68.5 23 q21.5 23 21.5 66 l0 310 q0 44 -23 67 q-23 23 -67 23 q-43 0 -66.5 -23 q-23.5 -23 -23.5 -67 l0 -310 ZM60 210 l0 310 q0 67 30 116 q30 49 84 76.5 q54 27.5 126 27.5 q72 0 126 -27.5 q54 -27.5 84 -77 q30 -49.5 30 -115.5 l0 -310 q0 -65 -27.5 -114.5 q-27.5 -49.5 -79.5 -75.5 l123 -200 l-156 0 l-103 170 q-72 1 -125 28.5 q-53 27.5 -82.5 77 q-29.5 49.5 -29.5 114.5 Z" /><glyph glyph-name="R" unicode="R" d="M214 406 l86 0 q50 0 77.5 25 q27.5 25 27.5 70 q0 47 -27.5 73 q-27.5 26 -77.5 26 l-86 0 l0 -194 ZM66 0 l0 730 l234 0 q78 0 135 -27 q57 -27 88.5 -77 q31.5 -50 31.5 -118 q0 -71 -34.5 -127 q-34.5 -56 -93.5 -81 l138 -300 l-163 0 l-118 276 l-70 0 l0 -276 l-148 0 Z" /><glyph glyph-name="S" unicode="S" d="M47 210 l146 0 q0 -41 29.5 -65.5 q29.5 -24.5 79.5 -24.5 q49 0 76.5 23.5 q27.5 23.5 27.5 62.5 q0 31 -18 55.5 q-18 24.5 -53 32.5 l-89 21 q-86 20 -136.5 77.5 q-50.5 57.5 -50.5 137.5 q0 98 63.5 154 q63.5 56 173.5 56 q110 0 175 -56.5 q65 -56.5 65 -152.5 l-146 0 q0 38 -25 59.5 q-25 21.5 -69 21.5 q-43 0 -67 -21 q-24 -21 -24 -56 q0 -57 69 -73 l92 -21 q86 -19 136.5 -82.5 q50.5 -63.5 50.5 -152.5 q0 -65 -30.5 -114 q-30.5 -49 -87 -75.5 q-56.5 -26.5 -133.5 -26.5 q-77 0 -134.5 27 q-57.5 27 -89 76.5 q-31.5 49.5 -31.5 116.5 Z" /><glyph glyph-name="T" unicode="T" d="M40 595 l0 135 l520 0 l0 -135 l-185 0 l0 -595 l-150 0 l0 595 l-185 0 Z" /><glyph glyph-name="U" unicode="U" d="M60 214 l0 516 l150 0 l0 -515 q0 -46 23.5 -70.5 q23.5 -24.5 66.5 -24.5 q42 0 66 24.5 q24 24.5 24 70.5 l0 515 l150 0 l0 -516 q0 -103 -64.5 -163.5 q-64.5 -60.5 -175.5 -60.5 q-111 0 -175.5 60 q-64.5 60 -64.5 164 Z" /><glyph glyph-name="V" unicode="V" d="M25 730 l155 0 l101 -461 q5 -24 12.5 -61 q7.5 -37 11.5 -63 q4 26 10 63 q6 37 11 62 l98 460 l151 0 l-179 -730 l-190 0 l-181 730 Z" /><glyph glyph-name="W" unicode="W" d="M10 730 l119 0 l37 -488 q1 -14 2.5 -39.5 q1.5 -25.5 3 -53 q1.5 -27.5 1.5 -49.5 q1 0 5 50 q2 28 4.5 53 q2.5 25 3.5 39 l58 488 l114 0 l56 -488 q2 -14 4.5 -39.5 q2.5 -25.5 5.5 -53 q3 -27.5 5 -49.5 q1 22 2 49.5 q1 27.5 2.5 53 q1.5 25.5 2.5 39.5 l34 488 l120 0 l-73 -730 l-156 0 l-49 485 q-1 17 -3.5 44.5 q-2.5 27.5 -4.5 57.5 q-2 30 -4 53 q-1 -23 -3 -53 q-2 -30 -4 -57.5 q-2 -27.5 -4 -44.5 l-54 -485 l-157 0 l-68 730 Z" /><glyph glyph-name="X" unicode="X" d="M20 0 l196 377 l-183 353 l165 0 l76 -160 q11 -22 18.5 -40 q7.5 -18 9.5 -26 q2 8 9 26 q7 18 17 40 l78 160 l161 0 l-183 -353 l196 -377 l-165 0 l-88 180 q-10 22 -18 41 q-8 19 -12 29 q-3 -10 -10 -29 q-7 -19 -18 -41 l-88 -180 l-161 0 Z" /><glyph glyph-name="Y" unicode="Y" d="M15 730 l157 0 l92 -220 q14 -33 24.5 -70 q10.5 -37 14.5 -60 q5 23 14.5 60 q9.5 37 22.5 70 l89 220 l156 0 l-210 -470 l0 -260 l-150 0 l0 260 l-210 470 Z" /><glyph glyph-name="Z" unicode="Z" d="M75 0 l0 135 l268 460 l-260 0 l0 135 l431 0 l0 -135 l-269 -460 l280 0 l0 -135 l-450 0 Z" /><glyph glyph-name="underscore" unicode="_" d="M60 -25 l480 0 l0 -140 l-480 0 l0 140 Z" /><glyph glyph-name="a" unicode="a" d="M217.5 231.5 q-21.5 -19.5 -21.5 -50.5 q0 -31 22.5 -51 q22.5 -20 63.5 -20 q47 0 74.5 23.5 q27.5 23.5 27.5 61.5 l0 56 l-105 0 q-40 0 -61.5 -19.5 ZM51 162 q0 83 59 131 q59 48 166 48 l108 0 l0 35 q0 31 -21.5 48.5 q-21.5 17.5 -61.5 17.5 q-38 0 -60.5 -15 q-22.5 -15 -24.5 -44 l-142 0 q3 81 64 129 q61 48 165 48 q109 0 170 -50 q61 -50 61 -140 l0 -370 l-145 0 l0 95 q-10 -49 -52.5 -77 q-42.5 -28 -107.5 -28 q-82 0 -130 47.5 q-48 47.5 -48 124.5 Z" /><glyph glyph-name="b" unicode="b" d="M216 215 q0 -46 22.5 -70.5 q22.5 -24.5 65.5 -24.5 q41 0 63.5 23.5 q22.5 23.5 22.5 66.5 l0 130 q0 44 -22.5 67 q-22.5 23 -63.5 23 q-43 0 -65.5 -24.5 q-22.5 -24.5 -22.5 -70.5 l0 -120 ZM66 0 l0 730 l150 0 l0 -150 l-4 -126 q18 51 56.5 78.5 q38.5 27.5 93.5 27.5 q80 0 129 -58.5 q49 -58.5 49 -156.5 l0 -140 q0 -98 -49 -156.5 q-49 -58.5 -129 -58.5 q-55 0 -94 28.5 q-39 28.5 -57 80.5 l0 -99 l-145 0 Z" /><glyph glyph-name="c" unicode="c" d="M66 210 l0 130 q0 67 30 116 q30 49 85 76.5 q55 27.5 128 27.5 q109 0 174 -55 q65 -55 69 -150 l-146 0 q-3 35 -29.5 55 q-26.5 20 -67.5 20 q-45 0 -69 -23 q-24 -23 -24 -67 l0 -130 q0 -43 24 -66.5 q24 -23.5 69 -23.5 q41 0 67.5 19.5 q26.5 19.5 29.5 55.5 l146 0 q-4 -95 -69 -150 q-65 -55 -174 -55 q-73 0 -128 27.5 q-55 27.5 -85 77 q-30 49.5 -30 115.5 Z" /><glyph glyph-name="d" unicode="d" d="M210 210 q0 -43 22.5 -66.5 q22.5 -23.5 63.5 -23.5 q43 0 65.5 24.5 q22.5 24.5 22.5 70.5 l0 120 q0 46 -22.5 70.5 q-22.5 24.5 -65.5 24.5 q-41 0 -63.5 -23 q-22.5 -23 -22.5 -67 l0 -130 ZM60 205 l0 140 q0 98 49.5 156.5 q49.5 58.5 128.5 58.5 q55 0 93.5 -27.5 q38.5 -27.5 56.5 -78.5 l-4 126 l0 150 l150 0 l0 -730 l-145 0 l0 99 q-18 -52 -57 -80.5 q-39 -28.5 -94 -28.5 q-79 0 -128.5 58.5 q-49.5 58.5 -49.5 156.5 Z" /><glyph glyph-name="e" unicode="e" d="M203 327 l194 2 l0 13 q0 51 -23.5 79 q-23.5 28 -72.5 28 q-49 0 -73.5 -29 q-24.5 -29 -24.5 -80 l0 -13 ZM60 210 l0 130 q0 66 29.5 115.5 q29.5 49.5 84 77 q54.5 27.5 127.5 27.5 q73 0 126.5 -27.5 q53.5 -27.5 83 -77 q29.5 -49.5 29.5 -115.5 l0 -102 l-337 0 l0 -28 q0 -52 24.5 -76 q24.5 -24 73.5 -24 q32 0 56 10 q24 10 28 30 l147 0 q-16 -72 -79 -116 q-63 -44 -152 -44 q-73 0 -127.5 27.5 q-54.5 27.5 -84 77 q-29.5 49.5 -29.5 115.5 Z" /><glyph glyph-name="f" unicode="f" d="M44 340 l0 135 l146 0 l0 85 q0 77 52.5 123.5 q52.5 46.5 137.5 46.5 l161 0 l0 -130 l-156 0 q-20 0 -32.5 -12.5 q-12.5 -12.5 -12.5 -32.5 l0 -80 l201 0 l0 -135 l-201 0 l0 -340 l-150 0 l0 340 l-146 0 Z" /><glyph glyph-name="g" unicode="g" d="M210 250 q0 -43 22.5 -66.5 q22.5 -23.5 64.5 -23.5 q41 0 64 23.5 q23 23.5 23 66.5 l0 90 q0 43 -23 66.5 q-23 23.5 -64 23.5 q-42 0 -64.5 -23.5 q-22.5 -23.5 -22.5 -66.5 l0 -90 ZM60 245 l0 100 q0 98 50 156.5 q50 58.5 133 58.5 q52 0 89 -24.5 q37 -24.5 57 -68.5 l0 83 l145 0 l0 -536 q0 -90 -61.5 -142 q-61.5 -52 -167.5 -52 l-160 0 l0 120 l155 0 q42 0 64.5 21 q22.5 21 22.5 58 l0 21 l1 82 q-20 -44 -57 -68 q-37 -24 -88 -24 q-83 0 -133 58 q-50 58 -50 157 Z" /><glyph glyph-name="h" unicode="h" d="M66 0 l0 730 l150 0 l0 -180 l-5 -99 q13 50 52.5 79.5 q39.5 29.5 95.5 29.5 q80 0 128.5 -56 q48.5 -56 48.5 -149 l0 -355 l-150 0 l0 340 q0 43 -22.5 66.5 q-22.5 23.5 -62.5 23.5 q-40 0 -62.5 -23.5 q-22.5 -23.5 -22.5 -66.5 l0 -340 l-150 0 Z" /><glyph glyph-name="i" unicode="i" d="M70 0 l0 135 l182 0 l0 280 l-162 0 l0 135 l312 0 l0 -415 l158 0 l0 -135 l-490 0 ZM254.5 658 q-24.5 21 -24.5 57 q0 36 24.5 57 q24.5 21 65.5 21 q41 0 65.5 -21 q24.5 -21 24.5 -57 q0 -36 -24.5 -57 q-24.5 -21 -65.5 -21 q-41 0 -65.5 21 Z" /><glyph glyph-name="j" unicode="j" d="M70 415 l0 135 l400 0 l0 -510 q0 -102 -60 -161 q-60 -59 -164 -59 l-171 0 l0 135 l160 0 q38 0 61.5 25 q23.5 25 23.5 65 l0 370 l-250 0 ZM324.5 658 q-24.5 21 -24.5 57 q0 36 24.5 57 q24.5 21 65.5 21 q41 0 65.5 -21 q24.5 -21 24.5 -57 q0 -36 -24.5 -57 q-24.5 -21 -65.5 -21 q-41 0 -65.5 21 Z" /><glyph glyph-name="k" unicode="k" d="M71 0 l0 730 l150 0 l0 -388 l76 0 l115 208 l165 0 l-153 -269 l156 -281 l-168 0 l-116 216 l-75 0 l0 -216 l-150 0 Z" /><glyph glyph-name="l" unicode="l" d="M25 595 l0 135 l325 0 l0 -530 q0 -29 16.5 -47 q16.5 -18 43.5 -18 l155 0 l0 -135 l-170 0 q-58 0 -102 24.5 q-44 24.5 -68.5 68.5 q-24.5 44 -24.5 102 l0 400 l-175 0 Z" /><glyph glyph-name="m" unicode="m" d="M38 0 l0 550 l123 0 l0 -85 l2 0 q3 42 28 68.5 q25 26.5 64 26.5 q36 0 62.5 -25.5 q26.5 -25.5 34.5 -66.5 q3 42 29 67 q26 25 65 25 q49 0 82.5 -39 q33.5 -39 33.5 -101 l0 -420 l-129 0 l0 403 q0 48 -38 48 q-36 0 -36 -48 l0 -403 l-118 0 l0 403 q0 48 -36 48 q-38 0 -38 -48 l0 -403 l-129 0 Z" /><glyph glyph-name="n" unicode="n" d="M66 0 l0 550 l145 0 l0 -100 q12 50 51.5 80 q39.5 30 96.5 30 q80 0 128.5 -56 q48.5 -56 48.5 -149 l0 -355 l-150 0 l0 340 q0 43 -22.5 66.5 q-22.5 23.5 -62.5 23.5 q-40 0 -62.5 -23.5 q-22.5 -23.5 -22.5 -66.5 l0 -340 l-150 0 Z" /><glyph glyph-name="o" unicode="o" d="M210 210 q0 -43 23.5 -66.5 q23.5 -23.5 66.5 -23.5 q44 0 67 23.5 q23 23.5 23 66.5 l0 130 q0 44 -23 67 q-23 23 -67 23 q-43 0 -66.5 -23 q-23.5 -23 -23.5 -67 l0 -130 ZM60 210 l0 130 q0 66 29.5 115.5 q29.5 49.5 83.5 77 q54 27.5 127 27.5 q74 0 127.5 -27.5 q53.5 -27.5 83 -77 q29.5 -49.5 29.5 -115.5 l0 -130 q0 -66 -29.5 -115.5 q-29.5 -49.5 -83 -77 q-53.5 -27.5 -127.5 -27.5 q-73 0 -127 27.5 q-54 27.5 -83.5 77 q-29.5 49.5 -29.5 115.5 Z" /><glyph glyph-name="p" unicode="p" d="M216 215 q0 -46 22.5 -70.5 q22.5 -24.5 65.5 -24.5 q41 0 63.5 23.5 q22.5 23.5 22.5 66.5 l0 130 q0 44 -22.5 67 q-22.5 23 -63.5 23 q-43 0 -65.5 -24.5 q-22.5 -24.5 -22.5 -70.5 l0 -120 ZM66 -180 l0 730 l145 0 l0 -100 q18 52 57 81 q39 29 94 29 q53 0 93 -27.5 q40 -27.5 62.5 -75.5 q22.5 -48 22.5 -112 l0 -140 q0 -63 -22.5 -111.5 q-22.5 -48.5 -62.5 -76 q-40 -27.5 -93 -27.5 q-54 0 -93 28.5 q-39 28.5 -57 79.5 l4 -128 l0 -150 l-150 0 Z" /><glyph glyph-name="q" unicode="q" d="M210 210 q0 -43 22.5 -66.5 q22.5 -23.5 63.5 -23.5 q43 0 65.5 24.5 q22.5 24.5 22.5 70.5 l0 120 q0 46 -22.5 70.5 q-22.5 24.5 -65.5 24.5 q-41 0 -63.5 -23 q-22.5 -23 -22.5 -67 l0 -130 ZM60 205 l0 140 q0 98 49.5 156.5 q49.5 58.5 128.5 58.5 q55 0 94 -28.5 q39 -28.5 57 -80.5 l0 99 l145 0 l0 -730 l-150 0 l0 150 l5 125 l-1 0 q-19 -50 -57.5 -77.5 q-38.5 -27.5 -92.5 -27.5 q-79 0 -128.5 58.5 q-49.5 58.5 -49.5 156.5 Z" /><glyph glyph-name="r" unicode="r" d="M86 0 l0 550 l145 0 l0 -104 q12 53 52.5 83.5 q40.5 30.5 101.5 30.5 q83 0 130 -56 q47 -56 47 -154 l0 -55 l-150 0 l0 45 q0 43 -23 66.5 q-23 23.5 -65 23.5 q-42 0 -65 -26.5 q-23 -26.5 -23 -75.5 l0 -328 l-150 0 Z" /><glyph glyph-name="s" unicode="s" d="M50 160 l147 0 q0 -28 21 -42 q21 -14 59 -14 l44 0 q41 0 63.5 14 q22.5 14 22.5 40 q0 25 -18 36.5 q-18 11.5 -55 15.5 l-126 15 q-73 9 -112 54.5 q-39 45.5 -39 113.5 q0 167 214 167 l47 0 q101 0 161 -44 q60 -44 60 -118 l-147 0 q0 24 -19.5 37 q-19.5 13 -54.5 13 l-47 0 q-35 0 -53 -13 q-18 -13 -18 -36 q0 -23 17.5 -31 q17.5 -8 49.5 -12 l120 -15 q81 -10 122 -57 q41 -47 41 -124 q0 -81 -58 -125.5 q-58 -44.5 -171 -44.5 l-44 0 q-68 0 -119 21.5 q-51 21.5 -79.5 59.5 q-28.5 38 -28.5 89 Z" /><glyph glyph-name="t" unicode="t" d="M27 415 l0 135 l148 0 l0 155 l150 0 l0 -155 l215 0 l0 -135 l-215 0 l0 -230 q0 -22 11.5 -36 q11.5 -14 33.5 -14 l165 0 l0 -135 l-180 0 q-84 0 -132 48 q-48 48 -48 132 l0 235 l-148 0 Z" /><glyph glyph-name="u" unicode="u" d="M64 214 l0 336 l150 0 l0 -335 q0 -95 86 -95 q41 0 63.5 24.5 q22.5 24.5 22.5 70.5 l0 335 l150 0 l0 -336 q0 -105 -63 -164.5 q-63 -59.5 -173 -59.5 q-111 0 -173.5 60 q-62.5 60 -62.5 164 Z" /><glyph glyph-name="v" unicode="v" d="M24 550 l155 0 l96 -309 q9 -28 16.5 -58 q7.5 -30 9.5 -56 q2 26 9 56 q7 30 15 57 l94 310 l157 0 l-181 -550 l-188 0 l-183 550 Z" /><glyph glyph-name="w" unicode="w" d="M5 550 l115 0 l43 -300 q5 -38 8 -81 q3 -43 5 -72 q2 29 5 72 q3 43 10 81 l53 300 l114 0 l51 -300 q7 -38 11 -81.5 q4 -43.5 6 -72.5 q2 29 4 72.5 q2 43.5 8 81.5 l45 300 l112 0 l-84 -550 l-150 0 l-45 310 q-4 29 -9 69 q-5 40 -7 66 q0 -17 -3 -42 q-3 -25 -6 -49.5 q-3 -24.5 -6 -43.5 l-46 -310 l-151 0 l-83 550 Z" /><glyph glyph-name="x" unicode="x" d="M26 0 l190 285 l-177 265 l167 0 l68 -110 q8 -13 15 -29 q7 -16 11 -26 q4 10 11 26 q7 16 15 29 l68 110 l167 0 l-176 -265 l189 -285 l-167 0 l-80 130 q-8 14 -15.5 29.5 q-7.5 15.5 -11.5 25.5 q-4 -10 -11 -25.5 q-7 -15.5 -15 -29.5 l-81 -130 l-167 0 Z" /><glyph glyph-name="y" unicode="y" d="M24 550 l156 0 l89 -240 q10 -27 20.5 -62 q10.5 -35 14.5 -66 q4 31 13 66 q9 35 19 62 l83 240 l157 0 l-263 -730 l-157 0 l75 207 l-207 523 Z" /><glyph glyph-name="z" unicode="z" d="M70 0 l0 130 l272 290 l-262 0 l0 130 l439 0 l0 -130 l-272 -290 l283 0 l0 -130 l-460 0 Z" /><glyph glyph-name="braceleft" unicode="{" d="M65 289 l0 140 l140 0 q31 -1 47 19 q14 16 13 42 q0 4 0 9 l-15 151 q-1 11 -1 21 q1 41 17 73 q20 40 62.5 63 q42.5 23 101.5 23 l85 0 l0 -140 l-55 0 q-30 0 -46 -16 q-15 -15 -14 -38 q0 -3 0 -6 l15 -151 q0 -5 0 -10 q-1 -39 -27 -67 q-30 -32 -85 -42 q55 -10 85 -42 q27 -29 27 -68 q0 -5 0 -11 l-15 -150 q0 -4 0 -8 q0 -21 14 -35 q16 -16 46 -17 l55 0 l0 -140 l-85 0 q-59 0 -102 23 q-44 24 -64 66 q-16 32 -15 72 q0 12 1 24 l15 145 q0 5 0 10 q1 25 -13 41 q-16 19 -47 19 l-140 0 Z" /><glyph glyph-name="braceright" unicode="}" d="M85 29 l55 0 q30 1 46 17 q14 14 14 35 q0 4 0 8 l-15 150 q0 5 0 11 q1 40 27 68 q30 32 85 42 q-55 10 -85 42 q-27 28 -27 67 q0 5 0 10 l15 151 q0 3 0 6 q0 24 -14 38 q-16 16 -46 16 l-55 0 l0 140 l85 0 q59 0 101 -22 q41 -24 63 -64 q17 -32 17 -71 q0 -11 -1 -23 l-15 -151 q0 -5 0 -9 q-1 -26 13 -42 q16 -20 47 -19 l140 0 l0 -140 l-140 0 q-31 0 -47 -19 q-14 -16 -13 -41 q0 -5 0 -10 l15 -145 q1 -12 1 -24 q0 -40 -16 -72 q-21 -42 -63.5 -65.5 q-42.5 -23.5 -101.5 -23.5 l-85 0 l0 140 Z" /><glyph glyph-name="uni3001" unicode="&#x3001;" d="M76.5 112.5 q-5.5 14.5 -5 29.5 q0.5 15 6 29.5 q5.5 14.5 17.5 24.5 l19 17 q17 14 46 14 q29 0 46 -15 q31 -29 63.5 -62 q32.5 -33 59.5 -62 q9 -10 13 -23.5 q4 -13.5 2.5 -27 q-1.5 -13.5 -7 -26.5 q-5.5 -13 -15.5 -21 l-21 -17 q-10 -9 -24.5 -13 q-14.5 -4 -29 -3 q-14.5 1 -28 7 q-13.5 6 -22.5 16 q-25 27 -51.5 54 q-26.5 27 -52.5 53 q-11 11 -16.5 25.5 Z" /><glyph glyph-name="uni3002" unicode="&#x3002;" d="M116.5 129.5 q-6.5 -15.5 -6.5 -32.5 q0 -17 6.5 -32 q6.5 -15 18 -26.5 q11.5 -11.5 26.5 -18 q15 -6.5 32 -6.5 q17 0 32.5 6.5 q15.5 6.5 26.5 18 q11 11.5 17.5 26.5 q6.5 15 6.5 32 q0 17 -6.5 32.5 q-6.5 15.5 -17.5 26.5 q-11 11 -26.5 17.5 q-15.5 6.5 -32.5 6.5 q-17 0 -32 -6.5 q-15 -6.5 -26.5 -17.5 q-11.5 -11 -18 -26.5 ZM26 97 q0 35 13 65 q13 30 36 53 q23 23 53.5 36 q30.5 13 64.5 13 q35 0 65.5 -13 q30.5 -13 53 -36 q22.5 -23 35.5 -53 q13 -30 13 -64 q0 -35 -13 -65.5 q-13 -30.5 -35.5 -53.5 q-22.5 -23 -53 -36 q-30.5 -13 -65.5 -13 q-34 0 -64.5 13 q-30.5 13 -53.5 36 q-23 23 -36 53.5 q-13 30.5 -13 64.5 Z" /><glyph glyph-name="uni300A" unicode="&#x300a;" d="M700 361 q-2 8 -2 19 q0 11 2 19 l154 395 q9 23 27.5 35.5 q18.5 12.5 32.5 12.5 q5 0 9 -1 q11 -3 18 -12 q7 -9 11 -22 q4 -13 3.5 -27 q-0.5 -14 -6.5 -28 l-144 -367 q-1 -2 -1 -5 q0 -3 1 -5 l144 -367 q6 -14 6.5 -28 q0.5 -14 -3.5 -27 q-4 -13 -11 -22 q-7 -9 -18 -12 q-4 -1 -9 -1 q-13 0 -32 12.5 q-19 12.5 -28 35.5 l-154 395 ZM519 361 q-2 8 -2 19 q0 11 2 19 l154 395 q9 23 27.5 35.5 q18.5 12.5 32.5 12.5 q5 0 9 -1 q11 -3 18 -12 q7 -9 11 -22 q4 -13 3.5 -27 q-0.5 -14 -6.5 -28 l-144 -367 q-1 -2 -1 -5 q0 -3 1 -5 l144 -367 q6 -14 6.5 -28 q0.5 -14 -3.5 -27 q-4 -13 -11 -22 q-7 -9 -18 -12 q-4 -1 -9 -1 q-13 0 -32 12.5 q-19 12.5 -28 35.5 l-154 395 Z" /><glyph glyph-name="uni300B" unicode="&#x300b;" d="M229 -47 q-4 13 -3.5 27 q0.5 14 6.5 28 l144 367 q1 2 1 5 q0 3 -1 5 l-144 367 q-6 14 -6.5 28 q-0.5 14 3.5 27 q4 13 11.5 22 q7.5 9 17.5 12 q4 1 9 1 q13 0 32 -12.5 q19 -12.5 28 -35.5 l154 -395 q2 -8 2 -19 q0 -11 -2 -19 l-154 -395 q-9 -23 -27.5 -35.5 q-18.5 -12.5 -32.5 -12.5 q-5 0 -9 1 q-10 3 -17.5 12 q-7.5 9 -11.5 22 ZM48 -47 q-4 13 -3.5 27 q0.5 14 6.5 28 l144 367 q1 2 1 5 q0 3 -1 5 l-144 367 q-6 14 -6.5 28 q-0.5 14 3.5 27 q4 13 11.5 22 q7.5 9 17.5 12 q4 1 9 1 q13 0 32 -12.5 q19 -12.5 28 -35.5 l154 -395 q2 -8 2 -19 q0 -11 -2 -19 l-154 -395 q-9 -23 -27.5 -35.5 q-18.5 -12.5 -32.5 -12.5 q-5 0 -9 1 q-10 3 -17.5 12 q-7.5 9 -11.5 22 Z" /><glyph glyph-name="uni300C" unicode="&#x300c;" d="M635 292 l0 491 q0 14 6 26.5 q6 12.5 16.5 23 q10.5 10.5 23.5 16.5 q13 6 26 6 l196 0 q14 0 26.5 -5.5 q12.5 -5.5 23 -14.5 q10.5 -9 16.5 -21 q6 -12 6 -24 q0 -12 -6 -23.5 q-6 -11.5 -16.5 -21 q-10.5 -9.5 -23 -15 q-12.5 -5.5 -26.5 -5.5 l-119 0 q-2 0 -4 -2 q-2 -2 -2 -4 l0 -428 q0 -13 -6 -26 q-6 -13 -16 -23 q-10 -10 -23 -16 q-13 -6 -26 -6 q-13 0 -26 6 q-13 6 -23.5 16.5 q-10.5 10.5 -16.5 23.5 q-6 13 -6 26 Z" /><glyph glyph-name="uni300D" unicode="&#x300d;" d="M31 -53.5 q-6 11.5 -6 23.5 q0 12 6 24 q6 12 16.5 21 q10.5 9 23.5 14.5 q13 5.5 26 5.5 l119 0 q2 0 4 2 q2 2 2 4 l0 428 q0 13 6 26 q6 13 16.5 23 q10.5 10 23.5 16 q13 6 26 6 q13 0 26 -6 q13 -6 23 -16.5 q10 -10.5 16 -23 q6 -12.5 6 -26.5 l0 -491 q0 -14 -6 -26.5 q-6 -12.5 -16.5 -23 q-10.5 -10.5 -23 -16.5 q-12.5 -6 -26.5 -6 l-196 0 q-13 0 -26 5.5 q-13 5.5 -23.5 15 q-10.5 9.5 -16.5 21 Z" /><glyph glyph-name="uni300E" unicode="&#x300e;" d="M650 252 q0 -3 2 -5 q2 -2 5 -2 l91 0 q3 0 5 2 q2 2 2 4 l0 392 q0 14 6 26.5 q6 12.5 16.5 23 q10.5 10.5 23.5 16.5 q13 6 26 6 l93 0 q2 0 3.5 2 q1.5 2 1.5 4 l0 78 q0 2 -2 4 q-2 2 -4 2 l-263 0 q-2 0 -4 -2 q-2 -2 -2 -5 l0 -546 ZM600 267 l0 516 q0 14 6 26.5 q6 12.5 16.5 23 q10.5 10.5 23.5 16.5 q13 6 26 6 l231 0 q14 0 26.5 -6 q12.5 -6 23 -16 q10.5 -10 16.5 -23 q6 -13 6 -26 l0 -48 q0 -13 -6 -26 q-6 -13 -16.5 -23 q-10.5 -10 -23 -16 q-12.5 -6 -26.5 -6 l-93 0 q-2 0 -3.5 -2 q-1.5 -2 -1.5 -4 l0 -392 q0 -13 -6 -26 q-6 -13 -16.5 -23.5 q-10.5 -10.5 -23 -16.5 q-12.5 -6 -26.5 -6 l-61 0 q-13 0 -26 6 q-13 6 -23.5 16.5 q-10.5 10.5 -16.5 23.5 q-6 13 -6 26 Z" /><glyph glyph-name="uni300F" unicode="&#x300f;" d="M75 39 l0 -78 q0 -2 2 -4 q2 -2 4 -2 l263 0 q2 0 4 2 q2 2 2 5 l0 546 q0 3 -2 5 q-2 2 -5 2 l-91 0 q-3 0 -5 -2 q-2 -2 -2 -4 l0 -392 q0 -13 -6 -26 q-6 -13 -16.5 -23.5 q-10.5 -10.5 -23 -16.5 q-12.5 -6 -26.5 -6 l-93 0 q-2 0 -3.5 -2 q-1.5 -2 -1.5 -4 ZM25 -24 l0 48 q0 13 6 26 q6 13 16.5 23 q10.5 10 23.5 16 q13 6 26 6 l93 0 q2 0 3.5 2 q1.5 2 1.5 4 l0 392 q0 14 6 26.5 q6 12.5 16.5 23 q10.5 10.5 23.5 16.5 q13 6 26 6 l61 0 q14 0 26.5 -6 q12.5 -6 23 -16.5 q10.5 -10.5 16.5 -23 q6 -12.5 6 -26.5 l0 -516 q0 -14 -6 -26.5 q-6 -12.5 -16.5 -23 q-10.5 -10.5 -23 -16.5 q-12.5 -6 -26.5 -6 l-231 0 q-13 0 -26 6 q-13 6 -23.5 16 q-10.5 10 -16.5 23 q-6 13 -6 26 Z" /><glyph glyph-name="uni3010" unicode="&#x3010;" d="M657 -23 l0 806 q0 14 6 26.5 q6 12.5 16.5 23 q10.5 10.5 23.5 16.5 q13 6 26 6 l174 0 q27 0 49.5 -0.5 q22.5 -0.5 22.5 -1.5 q0 -2 -6 -7.5 q-6 -5.5 -13 -12.5 q-37 -36 -70 -82.5 q-33 -46.5 -57 -103 q-24 -56.5 -38 -123 q-14 -66.5 -14 -144.5 q0 -73 14 -139.5 q14 -66.5 38 -124 q24 -57.5 57 -105.5 q33 -48 70 -84 q7 -7 13 -12.5 q6 -5.5 6 -6.5 q0 -2 -22.5 -2.5 q-22.5 -0.5 -49.5 -0.5 l-174 0 q-13 0 -26 6 q-13 6 -23.5 16.5 q-10.5 10.5 -16.5 23 q-6 12.5 -6 26.5 Z" /><glyph glyph-name="uni3011" unicode="&#x3011;" d="M25 -92 q0 1 6 6.5 q6 5.5 13 12.5 q38 36 70.5 82.5 q32.5 46.5 56.5 103 q24 56.5 38 123 q14 66.5 14 144.5 q0 73 -14 139.5 q-14 66.5 -38 124 q-24 57.5 -56.5 105.5 q-32.5 48 -70.5 84 q-7 7 -13 12.5 q-6 5.5 -6 7.5 q0 1 22.5 1.5 q22.5 0.5 49.5 0.5 l174 0 q14 0 26.5 -6 q12.5 -6 23 -16.5 q10.5 -10.5 16.5 -23 q6 -12.5 6 -26.5 l0 -806 q0 -14 -6 -26.5 q-6 -12.5 -16.5 -23 q-10.5 -10.5 -23 -16.5 q-12.5 -6 -26.5 -6 l-174 0 q-27 0 -49.5 0.5 q-22.5 0.5 -22.5 2.5 Z" /><glyph glyph-name="uni4E00" unicode="&#x4e00;" d="M35 382 l0 15 q0 14 6 26.5 q6 12.5 16.5 23 q10.5 10.5 23.5 16.5 q13 6 27 6 l786 0 q14 0 27 -6 q13 -6 23.5 -16.5 q10.5 -10.5 16.5 -23 q6 -12.5 6 -26.5 l0 -15 q0 -13 -6 -26 q-6 -13 -16.5 -23.5 q-10.5 -10.5 -23.5 -16.5 q-13 -6 -27 -6 l-786 0 q-14 0 -27 6 q-13 6 -23.5 16.5 q-10.5 10.5 -16.5 23.5 q-6 13 -6 26 Z" /><glyph glyph-name="uni4E01" unicode="&#x4e01;" d="M50 707 l0 10 q0 13 6 26 q6 13 16.5 23 q10.5 10 23.5 16 q13 6 26 6 l757 0 q14 0 26.5 -6 q12.5 -6 23 -16 q10.5 -10 16.5 -23 q6 -13 6 -26 l0 -10 q0 -13 -6 -26 q-6 -13 -16.5 -23 q-10.5 -10 -23 -16 q-12.5 -6 -26.5 -6 l-261 0 l0 -534 q0 -70 -18 -106.5 q-18 -36.5 -65 -55.5 q-38 -16 -86.5 -22 q-48.5 -6 -107.5 -7 q-1 0 -2 0 q-21 0 -43 17 q-22 17 -30 37 q-1 4 -2 7.5 q-1 3.5 -3 7.5 q-8 19 -8 35 q0 19 13.5 41 q13.5 22 53.5 22 q1 0 3 0 q29 -1 47 -1 l38 0 q19 1 27 6.5 q8 5.5 8 21.5 l0 531 l-321 0 q-13 0 -26 6 q-13 6 -23.5 16 q-10.5 10 -16.5 23 q-6 13 -6 26 Z" /><glyph glyph-name="uni4E03" unicode="&#x4e03;" d="M48 410 q-2 14 2.5 27.5 q4.5 13.5 12.5 25 q8 11.5 20 19.5 q12 8 25 10 l208 31 l0 237 q0 14 6 26.5 q6 12.5 16.5 23 q10.5 10.5 23.5 16.5 q13 6 27 6 l15 0 q14 0 26.5 -6 q12.5 -6 23 -16 q10.5 -10 16.5 -23 q6 -13 6 -26 l0 -215 l405 60 q13 2 26.5 -2.5 q13.5 -4.5 25 -13 q11.5 -8.5 20 -20 q8.5 -11.5 10.5 -25.5 l1 -8 q2 -13 -2 -27 q-4 -14 -12.5 -25.5 q-8.5 -11.5 -20.5 -19.5 q-12 -8 -25 -10 l-428 -61 l0 -236 q0 -26 2 -41.5 q2 -15.5 9.5 -23.5 q7.5 -8 21.5 -10.5 q14 -2.5 38 -2.5 l169 0 q20 0 33.5 4.5 q13.5 4.5 22.5 17 q9 12.5 15 34.5 q6 22 10 56 q5 41 28 53.5 q23 12.5 41 12.5 q16 0 34 -7 q20 -8 34.5 -30 q14.5 -22 14.5 -42 q0 -4 0 -7 q-8 -65 -20.5 -110 q-12.5 -45 -36.5 -73.5 q-24 -28.5 -62.5 -41.5 q-38.5 -13 -100.5 -13 l-197 0 q-63 0 -104.5 10.5 q-41.5 10.5 -66.5 36.5 q-25 26 -35 69.5 q-10 43.5 -10 108.5 l0 212 l-186 -27 q-13 -2 -26.5 2.5 q-13.5 4.5 -25 12.5 q-11.5 8 -19.5 19.5 q-8 11.5 -10 24.5 l-1 7 Z" /><glyph glyph-name="uni4E07" unicode="&#x4e07;" d="M57 719 q0 14 6 26.5 q6 12.5 16.5 22.5 q10.5 10 23.5 16 q13 6 27 6 l741 0 q14 0 27 -6 q13 -6 23.5 -16 q10.5 -10 16.5 -22.5 q6 -12.5 6 -26.5 q0 -13 -6 -26 q-6 -13 -16.5 -23 q-10.5 -10 -23.5 -16 q-13 -6 -27 -6 l-473 0 l3 -3 q10 -10 16 -23 q6 -13 5 -27 q-2 -50 -6 -99 q5 3 11 6 q13 6 26 6 l344 0 q14 0 26.5 -6 q12.5 -6 23.5 -16 q2 -2 4 -5 q5 -4 9 -9 q5 -8 6 -16 q3 -9 3 -18 q0 -11 -4 -21 q-5 -96 -10 -167 q-6 -80 -14.5 -135 q-8.5 -55 -19.5 -88 q-11 -33 -26 -51 q-25 -29 -53 -40.5 q-28 -11.5 -65 -16.5 q-21 -3 -43 -4 q-22 -1 -37 -1 q-15 0 -31 1 q-24 0 -46.5 16.5 q-22.5 16.5 -27.5 36.5 q-4 12 -4 23 q0 21 17.5 41.5 q17.5 20.5 60.5 20.5 q2 0 3 0 l45 0 q16 0 26.5 2.5 q10.5 2.5 21.5 11.5 q11 10 19.5 39 q8.5 29 15 80 q6.5 51 11.5 125 q1 27 3 57 l-258 0 q-13 0 -26 6 q-13 6 -23 16 q-11 -75 -33 -145 q-26 -83 -72 -157 q-46 -74 -121 -135 q-11 -9 -25 -12.5 q-14 -3.5 -28 -1.5 q-14 2 -27 8.5 q-13 6.5 -21 16.5 q-19 21 -19 49 q0 6 3 27 q3 21 31 46 q58 50 92 110 q34 60 52 126 q18 66 24 136 q6 70 9 141 q0 13 6.5 25.5 q6.5 12.5 16.5 22.5 q1 0 2 1 l-164 0 q-14 0 -27 6 q-13 6 -23.5 16 q-10.5 10 -16.5 23 q-6 13 -6 26 Z" /><glyph glyph-name="uni4E09" unicode="&#x4e09;" d="M189 365 l0 4 q0 14 6 26.5 q6 12.5 16.5 23 q10.5 10.5 23.5 16.5 q13 6 26 6 l469 0 q14 0 26.5 -6 q12.5 -6 23 -16.5 q10.5 -10.5 16.5 -23 q6 -12.5 6 -26.5 l0 -4 q0 -13 -6 -26 q-6 -13 -16.5 -23.5 q-10.5 -10.5 -23 -16.5 q-12.5 -6 -26.5 -6 l-469 0 q-13 0 -26 6 q-13 6 -23.5 16.5 q-10.5 10.5 -16.5 23.5 q-6 13 -6 26 ZM117 683 l0 5 q0 14 6 26.5 q6 12.5 16.5 23 q10.5 10.5 23.5 16.5 q13 6 26 6 l622 0 q14 0 26.5 -6 q12.5 -6 23 -16.5 q10.5 -10.5 16.5 -23 q6 -12.5 6 -26.5 l0 -5 q0 -13 -6 -26 q-6 -13 -16.5 -23.5 q-10.5 -10.5 -23 -16.5 q-12.5 -6 -26.5 -6 l-622 0 q-13 0 -26 6 q-13 6 -23.5 16.5 q-10.5 10.5 -16.5 23.5 q-6 13 -6 26 ZM61 30 l0 5 q0 14 6 26.5 q6 12.5 16.5 23 q10.5 10.5 23.5 16.5 q13 6 26 6 l730 0 q14 0 26.5 -6 q12.5 -6 23 -16.5 q10.5 -10.5 16.5 -23 q6 -12.5 6 -26.5 l0 -5 q0 -13 -6 -26 q-6 -13 -16.5 -23.5 q-10.5 -10.5 -23 -16.5 q-12.5 -6 -26.5 -6 l-730 0 q-13 0 -26 6 q-13 6 -23.5 16.5 q-10.5 10.5 -16.5 23.5 q-6 13 -6 26 Z" /><glyph glyph-name="uni4E0A" unicode="&#x4e0a;" d="M39 26 l0 5 q0 13 6 26 q6 13 16.5 23 q10.5 10 23.5 16 q13 6 26 6 l279 0 l0 670 q0 14 6 26.5 q6 12.5 16 23 q10 10.5 23 16.5 q13 6 26 6 l15 0 q13 0 26 -6 q13 -6 23 -16.5 q10 -10.5 16 -23 q6 -12.5 6 -26.5 l0 -204 l272 0 q14 0 26.5 -6 q12.5 -6 23 -16 q10.5 -10 16.5 -23 q6 -13 6 -26 l0 -5 q0 -13 -6 -26 q-6 -13 -16.5 -23 q-10.5 -10 -23 -16 q-12.5 -6 -26.5 -6 l-272 0 l0 -319 l343 0 q14 0 26.5 -6 q12.5 -6 23 -16 q10.5 -10 16.5 -23 q6 -13 6 -26 l0 -5 q0 -13 -6 -26 q-6 -13 -16.5 -23 q-10.5 -10 -23 -16 q-12.5 -6 -26.5 -6 l-779 0 q-13 0 -26 6 q-13 6 -23.5 16 q-10.5 10 -16.5 23 q-6 13 -6 26 Z" /><glyph glyph-name="uni4E0B" unicode="&#x4e0b;" d="M50 706 l0 5 q0 13 6 26 q6 13 16.5 23 q10.5 10 23.5 16 q13 6 26 6 l757 0 q14 0 26.5 -6 q12.5 -6 23 -16 q10.5 -10 16.5 -23 q6 -13 6 -26 l0 -5 q0 -13 -6 -26 q-6 -13 -16.5 -23 q-10.5 -10 -23 -16 q-12.5 -6 -26.5 -6 l-358 0 q8 -5 14 -11 q10 -11 16 -23.5 q6 -12.5 6 -26.5 l0 -89 q12 8 30 12 q9 2 16 2 q16 0 28 -7 q28 -15 57.5 -31 q29.5 -16 59.5 -33 q30 -17 58 -34.5 q28 -17.5 53 -34.5 q11 -7 17.5 -19.5 q6.5 -12.5 8 -26 q1.5 -13.5 -1.5 -27 q-3 -13.5 -11 -23.5 l-16 -19 q-9 -12 -22.5 -18.5 q-13.5 -6.5 -28.5 -8 q-15 -1.5 -30 2 q-15 3.5 -27 12.5 q-20 15 -43 31 q-23 16 -47.5 32 q-24.5 16 -50 31.5 q-25.5 15.5 -49.5 30.5 q-1 0 -1 1 l0 -378 q0 -14 -6 -26.5 q-6 -12.5 -16 -23 q-10 -10.5 -23 -16.5 q-13 -6 -26 -6 l-15 0 q-13 0 -26 6 q-13 6 -23 16.5 q-10 10.5 -16 23 q-6 12.5 -6 26.5 l0 594 q0 14 6 26.5 q6 12.5 16 23.5 q6 6 14 11 l-314 0 q-13 0 -26 6 q-13 6 -23.5 16 q-10.5 10 -16.5 23 q-6 13 -6 26 Z" /><glyph glyph-name="uni4E0D" unicode="&#x4e0d;" d="M588.5 400.5 q-6.5 14.5 -6.5 29.5 q0 15 6.5 30 q6.5 15 18.5 25 l4 4 q17 14 44.5 14 q27.5 0 44.5 -13 q29 -22 59.5 -46 q30.5 -24 60.5 -48.5 q30 -24.5 58.5 -49 q28.5 -24.5 53.5 -47.5 q10 -9 15 -22 q5 -13 4.5 -27 q-0.5 -14 -6 -27 q-5.5 -13 -15.5 -22 l-15 -14 q-11 -10 -25.5 -14 q-14.5 -4 -29.5 -3.5 q-15 0.5 -28.5 6.5 q-13.5 6 -23.5 16 q-21 22 -45 45 q-24 23 -50 46 q-26 23 -53 46.5 q-27 23.5 -53 45.5 q-12 11 -18.5 25.5 ZM62 713 l0 5 q0 14 6 26.5 q6 12.5 16.5 23 q10.5 10.5 23.5 16.5 q13 6 26 6 l734 0 q14 0 26.5 -6 q12.5 -6 23 -16.5 q10.5 -10.5 16.5 -23 q6 -12.5 6 -26.5 l0 -5 q0 -13 -6 -26 q-6 -13 -16.5 -23.5 q-10.5 -10.5 -23 -16.5 q-12.5 -6 -26.5 -6 l-249 0 q1 -4 1 -7 q-1 -16 -9 -29 q-19 -30 -39 -60 l2 -2 q7 -15 7 -38 l0 -526 q0 -14 -6 -26.5 q-6 -12.5 -16.5 -23 q-10.5 -10.5 -23 -16.5 q-12.5 -6 -26.5 -6 l-15 0 q-14 0 -27 6 q-13 6 -23.5 16.5 q-10.5 10.5 -16.5 23 q-6 12.5 -6 26.5 l0 380 q-51 -53 -108 -99 q-60 -50 -127 -90 q-11 -7 -24.5 -8 q-13.5 -1 -27 2.5 q-13.5 3.5 -25.5 11 q-12 7.5 -20 17.5 q-1 1 -1 1.5 q0 0.5 -1 2.5 q-10 14 -12.5 26.5 q-2.5 12.5 -2.5 21.5 q0 8 2.5 20 q2.5 12 12.5 26.5 q10 14.5 25 23.5 q56 34 107 76 q51 42 95 88.5 q44 46.5 81 96.5 q24 32 44 65 l-305 0 q-13 0 -26 6 q-13 6 -23.5 16.5 q-10.5 10.5 -16.5 23.5 q-6 13 -6 26 Z" /><glyph glyph-name="uni4E0E" unicode="&#x4e0e;" d="M172 412 q-3 12 -3 20 q0 8 2 16 q8 37 16.5 77 q8.5 40 16 81.5 q7.5 41.5 14.5 84 q7 42.5 13 82.5 q2 13 9.5 25 q7.5 12 18.5 21 q11 9 24 13.5 q13 4.5 26 3.5 l6 -1 q14 -1 27 -9 q13 -8 22 -19.5 q9 -11.5 13 -26 q4 -14.5 2 -28.5 l-2 -10 q7 1 13 1 l433 0 q14 0 26.5 -6 q12.5 -6 23 -15.5 q10.5 -9.5 16.5 -22 q6 -12.5 6 -25.5 q0 -13 -6 -25.5 q-6 -12.5 -16.5 -22.5 q-10.5 -10 -23 -16 q-12.5 -6 -26.5 -6 l-433 0 q-13 0 -26 6 q-5 2 -9 5 q-3 -20 -7 -39 q-8 -43 -15 -84 q-1 -1 -1 -2 q9 3 18 3 l505 0 q14 0 26.5 -5.5 q12.5 -5.5 23 -15 q10.5 -9.5 16.5 -21.5 q6 -12 6 -25 q0 -12 -6 -24 l-2 -4 q-7 -88 -15 -154 q-10 -76 -21.5 -129 q-11.5 -53 -26 -86.5 q-14.5 -33.5 -32.5 -52.5 q-29 -30 -59.5 -41 q-30.5 -11 -74.5 -15 q-24 -3 -46 -3.5 q-22 -0.5 -34 -0.5 q-23 0 -48 1 q-24 0 -46.5 17.5 q-22.5 17.5 -28.5 37.5 q-4 14 -4 26 q0 21 16 40.5 q16 19.5 59 19.5 q2 0 3 0 q13 0 22 -0.5 q9 -0.5 18 -1.5 l40 0 q18 0 31 2.5 q13 2.5 25 11.5 q14 11 25.5 40.5 q11.5 29.5 21.5 79.5 q10 50 18 121 q3 23 5 48 l-417 0 q-13 0 -26 6 q-13 6 -23 16 q-2 1 -3 2 q-3 -3 -7 -6 q-21 -18 -42 -18 l-9 0 q-17 0 -31 8 q-14 8 -24 20.5 q-10 12.5 -13 24.5 ZM50 179.5 q-6 12.5 -6 25.5 q0 13 6 25.5 q6 12.5 16.5 22 q10.5 9.5 23.5 15.5 q13 6 26 6 l482 0 q14 0 26.5 -6 q12.5 -6 23 -15.5 q10.5 -9.5 16.5 -22 q6 -12.5 6 -25.5 q0 -13 -6 -25.5 q-6 -12.5 -16.5 -22.5 q-10.5 -10 -23 -16 q-12.5 -6 -26.5 -6 l-482 0 q-13 0 -26 6 q-13 6 -23.5 16 q-10.5 10 -16.5 22.5 Z" /><glyph glyph-name="uni4E13" unicode="&#x4e13;" d="M52 475.5 q-6 12.5 -6 25.5 q0 13 6 25.5 q6 12.5 16.5 22 q10.5 9.5 23.5 15.5 q13 6 26 6 l192 0 q9 33 17 66 l-124 0 q-13 0 -26 6 q-13 6 -23.5 16 q-10.5 10 -16.5 22 q-6 12 -6 25 q0 13 6 25.5 q6 12.5 16.5 22 q10.5 9.5 23.5 15.5 q13 6 26 6 l157 0 q2 13 5 25 q3 12 11 23 q8 11 19.5 19 q11.5 8 24.5 12.5 q13 4.5 25 2.5 l8 -1 q15 -2 27.5 -10.5 q12.5 -8.5 21 -21 q8.5 -12.5 12.5 -26.5 q2 -12 0 -23 l293 0 q14 0 26.5 -6 q12.5 -6 23 -15.5 q10.5 -9.5 16.5 -22 q6 -12.5 6 -25.5 q0 -13 -6 -25 q-6 -12 -16.5 -22 q-10.5 -10 -23 -16 q-12.5 -6 -26.5 -6 l-327 0 q-8 -33 -17 -66 l416 0 q14 0 26.5 -6 q12.5 -6 23 -15.5 q10.5 -9.5 16.5 -22 q6 -12.5 6 -25.5 q0 -13 -6 -25.5 q-6 -12.5 -16.5 -22.5 q-10.5 -10 -23 -16 q-12.5 -6 -26.5 -6 l-453 0 q-6 -23 -12 -45 q-4 -12 -7 -23 l326 0 q14 0 26 -6 q2 2 5 3 q6 3 14 3 q2 0 5 0.5 q3 0.5 5 1.5 q8 2 19.5 0.5 q11.5 -1.5 18.5 -6.5 l16 -9 q15 -8 23.5 -21.5 q8.5 -13.5 11 -28.5 q2.5 -15 -2 -30.5 q-4.5 -15.5 -16.5 -27.5 q-25 -26 -51.5 -53 q-26.5 -27 -53.5 -54 l-58 -58 q28 -11 53 -21 q14 -6 23.5 -17.5 q9.5 -11.5 13 -26 q3.5 -14.5 2 -29.5 q-1.5 -15 -10.5 -27 l-2 -4 q-14 -21 -35.5 -27 q-21.5 -6 -32.5 -6 q-15 0 -28 6 q-34 16 -75.5 33 q-41.5 17 -86 33 q-44.5 16 -91 31 q-46.5 15 -91.5 28 q-18 5 -30 16.5 q-12 11.5 -18 25.5 q-6 14 -5 30 q1 16 11 30 q9 13 26 19.5 q17 6.5 29 6.5 q6 0 11 -1 q46 -10 97 -24 q43 -12 87 -25 l4 4 q30 29 59 58 q20 19 39 38 l-243 0 q-14 0 -27 6 q-9 4 -17 10 q0 -1 -1 -1 q-21 -15 -40 -15 l-10 0 q-18 0 -32.5 8 q-14.5 8 -23.5 21 q-9 13 -11 24 q-2 11 -2 17 q0 10 3 21 q16 53 33 112 l-155 0 q-13 0 -26 6 q-13 6 -23.5 16 q-10.5 10 -16.5 22.5 Z" /><glyph glyph-name="uni4E14" unicode="&#x4e14;" d="M338 564 q4 1 9 1 l304 0 q13 0 26 -5 l1 -1 l0 100 q0 2 -1.5 3.5 q-1.5 1.5 -3.5 1.5 l-330 0 q-2 0 -3.5 -1.5 q-1.5 -1.5 -1.5 -3.5 l0 -95 ZM338 330 q5 1 9 1 l304 0 q13 0 26 -6 l1 0 l0 112 l-1 0 q-13 -6 -26 -6 l-304 0 q-4 0 -9 1 l0 -102 ZM338 87 l340 0 l0 110 l-1 0 q-13 -6 -26 -6 l-304 0 q-4 0 -9 1 l0 -105 ZM46 16 q0 14 6 26.5 q6 12.5 16 22.5 q10 10 23 16 q13 6 26 6 l76 0 l0 645 q0 14 6 26.5 q6 12.5 16.5 23 q10.5 10.5 23.5 16.5 q13 6 26 6 l493 0 q14 0 26.5 -6 q12.5 -6 23 -16.5 q10.5 -10.5 16.5 -23 q6 -12.5 6 -26.5 l0 -645 l55 0 q13 0 26 -6 q13 -6 23 -16 q10 -10 16 -22.5 q6 -12.5 6 -26.5 q0 -13 -6 -26 q-6 -13 -16 -23 q-10 -10 -23 -16 q-13 -6 -26 -6 l-768 0 q-13 0 -26 6 q-13 6 -23 16 q-10 10 -16 23 q-6 13 -6 26 Z" /><glyph glyph-name="uni4E16" unicode="&#x4e16;" d="M575 329 q0 -2 2 -4 q2 -2 5 -2 l94 0 q3 0 5 2 q2 2 2 4 l0 150 l-108 0 l0 -150 ZM46 523.5 q-6 12.5 -6 25.5 q0 13 6 25.5 q6 12.5 16.5 22.5 q10.5 10 23.5 16 q13 6 26 6 l58 0 l0 134 q0 13 6 26 q6 13 16.5 23 q10.5 10 23.5 16 q13 6 26 6 l7 0 q14 0 26.5 -6 q12.5 -6 23 -16 q10.5 -10 16.5 -23 q6 -13 6 -26 l0 -134 l109 0 l0 154 q0 14 6 26.5 q6 12.5 16.5 23 q10.5 10.5 23.5 16.5 q13 6 27 6 q14 0 26.5 -6 q12.5 -6 23 -16 q10.5 -10 16.5 -23 q6 -13 6 -26 l0 -155 l108 0 l0 145 q0 14 6 26.5 q6 12.5 16.5 23 q10.5 10.5 23.5 16.5 q13 6 26 6 l9 0 q14 0 26.5 -6 q12.5 -6 23 -16.5 q10.5 -10.5 16.5 -23 q6 -12.5 6 -26.5 l0 -145 l51 0 q14 0 26.5 -6 q12.5 -6 23 -16 q10.5 -10 16.5 -22.5 q6 -12.5 6 -25.5 q0 -13 -6 -25.5 q-6 -12.5 -16.5 -22.5 q-10.5 -10 -23 -16 q-12.5 -6 -26.5 -6 l-51 0 l0 -217 q0 -13 -6 -26 q-6 -13 -16.5 -23.5 q-10.5 -10.5 -23.5 -16.5 q-13 -6 -27 -6 l-260 0 q-14 0 -27 6 q-13 6 -23.5 16.5 q-10.5 10.5 -16.5 23.5 q-6 13 -6 26 l0 217 l-109 0 l0 -379 q0 -2 2 -4 q2 -2 4 -2 l536 0 q14 0 26.5 -6 q12.5 -6 23 -16 q10.5 -10 16.5 -22.5 q6 -12.5 6 -25.5 q0 -13 -6 -26 q-6 -13 -16.5 -23 q-10.5 -10 -23 -16 q-12.5 -6 -26.5 -6 l-621 0 q-13 0 -26 6 q-13 6 -23.5 16 q-10.5 10 -16.5 23 q-6 13 -6 26 l0 455 l-58 0 q-13 0 -26 6 q-13 6 -23.5 16 q-10.5 10 -16.5 22.5 Z" /><glyph glyph-name="uni4E1A" unicode="&#x4e1a;" d="M52 -5 q-6 13 -6 27 q0 14 6 26.5 q6 12.5 16 23 q10 10.5 23 16.5 q13 6 26 6 l180 0 q-3 9 -3 19 l0 194 q-2 -13 -8.5 -24.5 q-6.5 -11.5 -16 -21 q-9.5 -9.5 -20.5 -13.5 l-7 -2 q-14 -5 -29.5 -3 q-15.5 2 -29 9.5 q-13.5 7.5 -23.5 19.5 q-10 12 -14 27 q-7 28 -15 58.5 q-8 30.5 -17 62 q-9 31.5 -19 63.5 q-10 32 -19 63 q-4 13 -2 27 q2 14 8.5 27 q6.5 13 17 22.5 q10.5 9.5 23.5 13.5 q8 2 16 2 q17 0 39.5 -11.5 q22.5 -11.5 31.5 -36.5 q11 -32 22 -65.5 q11 -33.5 22 -66.5 q11 -33 21 -65 q10 -32 18 -61 q1 -2 1 -5 l0 443 q0 14 6 26.5 q6 12.5 16.5 23 q10.5 10.5 23.5 16.5 q13 6 27 6 l4 0 q14 0 27 -6 q13 -6 23.5 -16.5 q10.5 -10.5 16.5 -23 q6 -12.5 6 -26.5 l0 -657 q0 -9 -3 -19 l116 0 q-1 6 -1 12 l0 664 q0 14 6 27 q6 13 16.5 23.5 q10.5 10.5 23.5 16.5 q13 6 27 6 l4 0 q14 0 27 -6 q13 -6 23.5 -16.5 q10.5 -10.5 16.5 -23.5 q6 -13 6 -27 l0 -445 q1 8 5 15 q12 26 23.5 53.5 q11.5 27.5 22.5 57 q11 29.5 21.5 59 q10.5 29.5 19.5 59.5 q5 16 16 28 q11 12 25 18.5 q14 6.5 22.5 7 q8.5 0.5 9.5 0.5 q14 0 28 -7 q10 -5 18 -15 q8 -10 13 -22 q5 -12 6 -25 q1 -13 -3 -24 q-12 -33 -24.5 -66 q-12.5 -33 -25 -65 q-12.5 -32 -26 -62 q-13.5 -30 -26.5 -58 q-6 -12 -16.5 -21.5 q-10.5 -9.5 -23.5 -14 q-13 -4.5 -26.5 -5 q-13.5 -0.5 -24.5 5.5 q-11 6 -19 17 q-8 11 -12 25 q-2 6 -3 13 l0 -193 q0 -6 -1 -12 l180 0 q13 0 26 -6 q13 -6 23 -16.5 q10 -10.5 16 -23 q6 -12.5 6 -26.5 q0 -14 -6 -27 q-6 -13 -16 -23.5 q-10 -10.5 -23 -16.5 q-13 -6 -26 -6 l-768 0 q-13 0 -26 6 q-13 6 -23 16.5 q-10 10.5 -16 23.5 Z" /><glyph glyph-name="uni4E1C" unicode="&#x4e1c;" d="M705.5 160.5 q-3.5 15.5 -0.5 30.5 q3 15 12 28 q9 13 24 20 q10 5 23 5 q9 0 26 -4 q17 -4 29 -18 q15 -17 30 -35 q15 -18 29.5 -36.5 q14.5 -18.5 28.5 -36.5 q14 -18 26 -36 q8 -11 9.5 -25.5 q1.5 -14.5 -2.5 -28 q-4 -13.5 -12.5 -25 q-8.5 -11.5 -21.5 -17.5 l-2 -2 q-12 -6 -27 -6 q-15 0 -29 4.5 q-14 4.5 -26 13 q-12 8.5 -19 19.5 q-9 14 -19 29 q-10 15 -20.5 30 q-10.5 15 -22 30.5 q-11.5 15.5 -22.5 30.5 q-10 14 -13.5 29.5 ZM96 28 q0 35 23 63 q21 25 39.5 53 q18.5 28 33.5 57 q11 22 34 33 q23 11 40 11 q8 0 16 -2 l4 -2 q15 -4 26 -14 q11 -10 17.5 -23.5 q6.5 -13.5 7 -28 q0.5 -14.5 -6.5 -28.5 q-24 -46 -52 -88.5 q-28 -42.5 -58 -78.5 q-8 -10 -20.5 -15.5 q-12.5 -5.5 -26 -7 q-13.5 -1.5 -27 1.5 q-13.5 3 -22.5 11 q-28 21 -28 58 ZM73 635.5 q-6 12.5 -6 25.5 q0 13 6 25.5 q6 12.5 16.5 22 q10.5 9.5 23.5 15.5 q13 6 26 6 l193 0 q20 37 38 76 q5 11 15.5 20 q10.5 9 23.5 14.5 q13 5.5 26.5 7 q13.5 1.5 25.5 -2.5 l21 -7 q15 -5 25.5 -16 q10.5 -11 16.5 -25 q6 -14 6 -29 q0 -15 -8 -28 q-3 -5 -5 -10 l352 0 q14 0 26.5 -6 q12.5 -6 23 -15.5 q10.5 -9.5 16.5 -22 q6 -12.5 6 -25.5 q0 -13 -6 -25.5 q-6 -12.5 -16.5 -22.5 q-10.5 -10 -23 -16 q-12.5 -6 -26.5 -6 l-436 0 q-16 -24 -32 -47 q-32 -46 -64 -87 q-2 -3 -5 -6 l146 0 l0 43 q0 14 6 27 q6 13 16.5 23.5 q10.5 10.5 23.5 16.5 q13 6 26 6 l4 0 q14 0 26.5 -6 q12.5 -6 23 -16 q10.5 -10 16.5 -23 q6 -13 6 -26 l0 -45 l193 0 q14 0 27 -6 q13 -6 23 -16.5 q10 -10.5 16 -23 q6 -12.5 6 -26.5 q0 -13 -6 -25 q-6 -12 -16 -22 q-10 -10 -23 -16 q-13 -6 -26 -6 l-194 0 l0 -237 q0 -53 -12 -84.5 q-12 -31.5 -47 -48.5 q-24 -13 -53.5 -19 q-29.5 -6 -64.5 -8 q-1 0 -3 0 q-22 0 -43.5 16.5 q-21.5 16.5 -28.5 36.5 q-4 14 -4 26 q0 21 16 43 q16 22 57 23 l2 0 l0 -1 l11 1 q13 0 17.5 3.5 q4.5 3.5 4.5 14.5 l0 234 l-196 0 q-23 0 -45 4.5 q-22 4.5 -39 13.5 q-11 4 -18 11 l-2 0 q-16 3 -28 12.5 q-12 9.5 -18 24.5 q-4 12 -2 26.5 q2 14.5 8.5 30 q6.5 15.5 16.5 30.5 q10 13 19 25 l0 -1 l4 5 q3 4 16 20 q12 14 32 43 q12 16 24 36 l-111 0 q-13 0 -26 6 q-13 6 -23.5 16 q-10.5 10 -16.5 22.5 ZM175 490 l1 1 l0 -1 l-1 0 ZM175 490 l0 -1 q0 -1 -1 -1 q0 1 1 2 Z" /><glyph glyph-name="uni4E1D" unicode="&#x4e1d;" d="M506 456 q-4 11 -2 25.5 q2 14.5 8 30 q6 15.5 15 30.5 q6 11 13 22 q1 2 4 6 l4 6 q7 10 19 30 q12 20 26.5 47.5 q14.5 27.5 30.5 61 q16 33.5 30 69.5 q5 13 16 23.5 q11 10.5 24 17.5 q13 7 27.5 8.5 q14.5 1.5 27.5 -3.5 q13 -5 22.5 -15.5 q9.5 -10.5 14.5 -23.5 q5 -13 5 -27.5 q0 -14.5 -6 -27.5 q-38 -76 -83 -147 q-20 -31 -40 -59 l27 0 q20 0 36 -6 q9 -4 16 -10 q5 7 10 15 q32 49 62 101 q7 12 18.5 21 q11.5 9 25.5 13.5 q14 4.5 28.5 4 q14.5 -0.5 26.5 -6.5 q12 -6 20 -18 q8 -12 11.5 -25.5 q3.5 -13.5 2 -27.5 q-1.5 -14 -9.5 -26 q-69 -106 -149 -200 q-38 -44 -75 -83 l151 6 q16 0 30.5 -5.5 q14.5 -5.5 25.5 -15 q11 -9.5 17 -22 q6 -12.5 5 -26.5 q-2 -21 -23.5 -39.5 q-21.5 -18.5 -46.5 -20.5 q-43 -2 -78.5 -4.5 q-35.5 -2.5 -64 -4.5 q-28.5 -2 -51.5 -3.5 q-23 -1.5 -35 -3 q-12 -1.5 -18 -1.5 q-12 0 -26 3.5 q-14 3.5 -27 11.5 q-3 2 -5 3 q-7 0 -13 2 q-25 5 -34 30 q-4 12 -1.5 26 q2.5 14 9.5 29 q7 15 17.5 29 q10.5 14 22.5 25 l1 0 l5 5 q5 5 20 21 q14 14 39 43 q14 16 30 37 l-5 0 q-17 -1 -31 -3 q-4 0 -8 0 l-23 3 q-23 3 -36 11 q-5 3 -9 6 q-5 0 -9 1 q-26 6 -35 31 ZM78 457 q-4 11 -1.5 24.5 q2.5 13.5 8.5 28.5 q6 15 14 30 q5 10 11 19 q1 2 4 5 l2 4 l4 6 q7 10 18.5 30.5 q11.5 20.5 25.5 49 q14 28.5 29 62.5 q15 34 28 70 q5 14 15.5 24.5 q10.5 10.5 23.5 17.5 q13 7 27.5 8.5 q14.5 1.5 27.5 -3.5 q12 -4 22 -14.5 q10 -10.5 15 -23 q5 -12.5 5.5 -27 q0.5 -14.5 -5.5 -26.5 q-35 -78 -79 -151 q-20 -34 -40 -64 l29 0 q20 0 36 -6 l6 -4 l10 16 q30 49 57 101 q6 13 18 22.5 q12 9.5 25.5 14.5 q13.5 5 28.5 4.5 q15 -0.5 27 -6.5 q12 -6 20.5 -17.5 q8.5 -11.5 12 -25 q3.5 -13.5 2.5 -27.5 q-1 -14 -8 -26 q-63 -107 -139 -204 q-38 -49 -76 -92 l121 5 q16 0 30.5 -5.5 q14.5 -5.5 25.5 -15 q11 -9.5 17 -22 q6 -12.5 5 -26.5 q-2 -21 -24 -39.5 q-22 -18.5 -48 -20.5 q-34 -2 -63 -4 q-29 -2 -53 -4 q-24 -2 -43.5 -3.5 q-19.5 -1.5 -35.5 -3.5 q-4 0 -7 0 q-14 0 -29.5 3.5 q-15.5 3.5 -28.5 11.5 q-5 3 -9 6 q-3 0 -7 1 q-27 6 -36 32 q-4 11 -1.5 24.5 q2.5 13.5 9 28 q6.5 14.5 16.5 28.5 q10 14 21 26 l2 2 l-1 -2 l6 6 q4 5 18 21 q13 14 37 44 q11 15 25 33 q-17 0 -30 -2 q-4 0 -8 0 l-23 3 q-23 3 -36 11 q-8 4 -13 9 q-2 1 -4 1 q-28 5 -37 32 ZM42 15 q0 12 6 24 q6 12 16.5 21.5 q10.5 9.5 23.5 15 q13 5.5 26 5.5 l775 0 q14 0 26.5 -5.5 q12.5 -5.5 23 -15 q10.5 -9.5 16.5 -21.5 q6 -12 6 -24 q0 -13 -6 -25 q-6 -12 -16.5 -21.5 q-10.5 -9.5 -23 -15 q-12.5 -5.5 -26.5 -5.5 l-775 0 q-13 0 -26 5.5 q-13 5.5 -23.5 15 q-10.5 9.5 -16.5 21.5 q-6 12 -6 25 ZM539 563 l-1 -1 q0 1 1 1 Z" /><glyph glyph-name="uni4E22" unicode="&#x4e22;" d="M51 338 q0 12 6 24 q6 12 16.5 21.5 q10.5 9.5 23.5 15.5 q13 6 26 6 l305 0 q-4 11 -4 22 l0 41 l-226 0 q-13 0 -26 6 q-13 6 -23.5 15.5 q-10.5 9.5 -16.5 22 q-6 12.5 -6 25.5 q0 13 6 25 q6 12 16.5 21.5 q10.5 9.5 23.5 15.5 q13 6 26 6 l226 0 l0 67 q-43 -3 -86 -4 q-80 -4 -157 -5 q-1 0 -3 0 q-23 0 -45 16 q-22 16 -27 36 q-2 8 -2 16 q0 21 19 42 q19 21 57 22 q80 3 159 7.5 q79 4.5 154 11 q75 6.5 144 15 q69 8.5 127 19.5 q4 0 7 0 q11 0 27 -5 q16 -5 25 -15 l15 -17 q14 -15 17.5 -31 q3.5 -16 -1 -30.5 q-4.5 -14.5 -17 -24.5 q-12.5 -10 -32.5 -13 q-73 -12 -150 -20 q-41 -5 -81 -9 l0 -78 l228 0 q14 0 26.5 -6 q12.5 -6 23 -15.5 q10.5 -9.5 16.5 -21.5 q6 -12 6 -25 q0 -13 -6 -25.5 q-6 -12.5 -16.5 -22 q-10.5 -9.5 -23 -15.5 q-12.5 -6 -26.5 -6 l-228 0 l0 -41 q0 -11 -4 -22 l305 0 q14 0 26.5 -6 q12.5 -6 23 -15.5 q10.5 -9.5 16.5 -21.5 q6 -12 6 -24 q0 -13 -6 -25 q-6 -12 -16.5 -21.5 q-10.5 -9.5 -23 -15.5 q-12.5 -6 -26.5 -6 l-465 0 q4 -3 8 -7 q11 -13 15 -27.5 q4 -14.5 0 -30 q-4 -15.5 -17 -28.5 q-37 -37 -74 -70 l323 23 l-2 2 q-10 14 -12 26 q-2 12 -2 20 q0 9 2.5 20.5 q2.5 11.5 13.5 24 q11 12.5 27 18.5 l1 1 q10 4 21 4 q9 0 26 -4 q17 -4 28 -18 q19 -22 38.5 -46 q19.5 -24 37.5 -48 q18 -24 35 -48.5 q17 -24.5 31 -47.5 q7 -12 7.5 -26 q0.5 -14 -4 -27 q-4.5 -13 -14 -24 q-9.5 -11 -22.5 -17 l-9 -3 q-13 -6 -27.5 -5 q-14.5 1 -28.5 6 q-14 5 -25.5 14.5 q-11.5 9.5 -18.5 21.5 q-10 18 -22 38 q-4 5 -8 11 q-7 -7 -15 -11 q-14 -7 -31 -9 q-102 -9 -179 -16 q-77 -7 -134.5 -12 q-57.5 -5 -98 -9 q-40.5 -4 -68.5 -8 q-7 -1 -13 -1 q-11 0 -24.5 3 q-13.5 3 -26.5 11 q-11 6 -18 14 q-10 3 -19 10 q-12 8 -17 23 q-4 11 -1 24.5 q3 13.5 11 27 q8 13.5 19 26.5 q7 8 14 14 l-1 0 l1 1 l1 1 q2 1 4 3 q3 2 6 4 q10 7 26.5 20.5 q16.5 13.5 36.5 32 q20 18.5 42 41.5 q22 23 43 49 q3 4 7 8 l-180 0 q-13 0 -26 6 q-13 6 -23.5 15.5 q-10.5 9.5 -16.5 21.5 q-6 12 -6 25 Z" /><glyph glyph-name="uni4E24" unicode="&#x4e24;" d="M690 356 q9 -4 16 -11 l22 -20 l20 -21 q10 -11 19 -21 l0 155 l-72 0 q-1 -37 -4 -77 q-1 -3 -1 -5 ZM440 654 q1 -3 3 -6 q6 -13 6 -27 l0 -47 l103 0 l0 47 q0 14 6 27 l4 6 l-122 0 ZM61 698.5 q-6 12.5 -6 25.5 q0 13 6 25.5 q6 12.5 16.5 22 q10.5 9.5 23.5 15.5 q13 6 26 6 l750 0 q14 0 26.5 -6 q12.5 -6 23 -15.5 q10.5 -9.5 16.5 -22 q6 -12.5 6 -25.5 q0 -13 -6 -25.5 q-6 -12.5 -16.5 -22.5 q-10.5 -10 -23 -16 q-12.5 -6 -26.5 -6 l-191 0 q1 -3 3 -6 q6 -13 6 -27 l0 -47 l148 0 q13 0 26 -6 q13 -6 23 -15.5 q10 -9.5 16 -21.5 q6 -12 6 -25 l0 -445 q0 -54 -13.5 -85.5 q-13.5 -31.5 -49.5 -48.5 q-26 -12 -59.5 -17 q-33.5 -5 -77.5 -6 q-1 0 -3 0 q-22 0 -43.5 16 q-21.5 16 -26.5 36 q-3 11 -3 21 q0 22 18 44 q18 22 59 22 l28 0 q13 0 18.5 4.5 q5.5 4.5 5.5 16.5 l0 105 q-2 -1 -3 -2 q-15 -7 -30 -7 q-1 0 -10 0.5 q-9 0.5 -25 8 q-16 7.5 -28 22.5 q-6 7 -12 13 q-7 -20 -15 -41 q-19 -48 -49 -90 q-9 -13 -22 -19.5 q-13 -6.5 -27 -7.5 q-14 -1 -27 3 q-13 4 -22 13 q-18 19 -18 50 q0 3 1 22.5 q1 19.5 18 48.5 q18 32 28.5 64 q10.5 32 16.5 65.5 q6 33.5 8 69.5 q1 26 1 56 l-103 0 q-1 -37 -4 -77 q-1 -3 -1 -6 q5 -3 10 -8 q13 -11 24.5 -23 q11.5 -12 22.5 -24 q12 -14 12 -40 q0 -19 -8 -32 q-11 -15 -26 -22.5 q-15 -7.5 -31.5 -7.5 q-16.5 0 -32.5 8 l-2 0 q-7 -22 -15 -43 q-19 -48 -49 -90 q-9 -13 -22 -19.5 q-13 -6.5 -26.5 -7.5 q-13.5 -1 -26.5 3 q-13 4 -22 13 q-19 20 -19 52 q0 38 19 69 q18 32 28.5 64 q10.5 32 16.5 65.5 q6 33.5 8 69.5 q1 26 1 56 l-70 0 q-2 0 -3.5 -2 q-1.5 -2 -1.5 -4 l0 -456 q0 -14 -6 -26.5 q-6 -12.5 -16.5 -23 q-10.5 -10.5 -23 -16.5 q-12.5 -6 -26.5 -6 l-2 0 q-13 0 -26 6 q-13 6 -23.5 16.5 q-10.5 10.5 -16.5 23 q-6 12.5 -6 26.5 l0 526 q0 14 6 26.5 q6 12.5 16 23 q10 10.5 23 16.5 q13 6 26 6 l150 0 l0 47 q0 14 6 27 l4 6 l-189 0 q-13 0 -26 6 q-13 6 -23.5 16 q-10.5 10 -16.5 22.5 Z" /><glyph glyph-name="uni4E25" unicode="&#x4e25;" d="M710.5 535.5 q-5.5 13.5 -6 29 q-0.5 15.5 4.5 30.5 q2 7 5 13.5 q3 6.5 5 13.5 q4 14 13.5 25 q9.5 11 22.5 18.5 q13 7.5 27 10.5 q14 3 27 0 q15 -4 26.5 -14.5 q11.5 -10.5 17.5 -24.5 q6 -14 5.5 -29.5 q-0.5 -15.5 -7.5 -30.5 q-8 -13 -14.5 -25.5 q-6.5 -12.5 -13.5 -23.5 q-10 -17 -29 -25 q-19 -8 -31 -8 q-7 0 -14 2 q-13 4 -23 14.5 q-10 10.5 -15.5 24 ZM465 488 l67 0 q-6 13 -6 25 l0 174 l-55 0 l0 -174 q0 -12 -6 -25 ZM157 580 q-5 14 -4 29.5 q1 15.5 6.5 29.5 q5.5 14 16 25 q10.5 11 23.5 15 q7 2 15 2 q14 0 34.5 -9 q20.5 -9 29.5 -29 q5 -14 10 -27 l10 -26 q3 -9 3 -18 q0 -14 -10.5 -33.5 q-10.5 -19.5 -30.5 -27.5 q-15 -5 -30 -2.5 q-15 2.5 -28.5 10.5 q-13.5 8 -24.5 21 q-11 13 -16 28 q-1 3 -1.5 6 q-0.5 3 -2.5 6 ZM41 34 q0 20 7 38 q14 34 21.5 67.5 q7.5 33.5 11.5 67 q4 33.5 5 69 q1 35.5 1 72.5 l0 68 q0 14 6 26.5 q6 12.5 16.5 23 q10.5 10.5 23.5 16.5 q13 6 26 6 q11 0 22 -4 q11 4 24 4 l129 0 q-6 13 -6 25 l0 174 l-165 0 q-13 0 -26 5.5 q-13 5.5 -23.5 14 q-10.5 8.5 -16.5 19.5 q-6 11 -6 23 q0 12 6 23 q6 11 16.5 19.5 q10.5 8.5 23.5 14 q13 5.5 26 5.5 l680 0 q14 0 26.5 -5.5 q12.5 -5.5 23 -14 q10.5 -8.5 16.5 -19.5 q6 -11 6 -23 q0 -12 -6 -23 q-6 -11 -16.5 -19.5 q-10.5 -8.5 -23 -14 q-12.5 -5.5 -26.5 -5.5 l-173 0 l0 -174 q0 -12 -6 -25 l206 0 q28 0 50.5 -19.5 q22.5 -19.5 22.5 -43.5 q0 -12 -6 -23 q-6 -11 -16.5 -20 q-10.5 -9 -23.5 -14.5 q-13 -5.5 -27 -5.5 l-639 0 l0 -16 q0 -38 -2.5 -83 q-2.5 -45 -9 -92.5 q-6.5 -47.5 -18 -95 q-11.5 -47.5 -29.5 -90.5 q-7 -16 -19.5 -25.5 q-12.5 -9.5 -27.5 -12 q-15 -2.5 -30 1 q-15 3.5 -27 14.5 q-20 17 -23.5 39 q-3.5 22 -3.5 32 Z" /><glyph glyph-name="uni4E2A" unicode="&#x4e2a;" d="M422 -22 l0 466 q0 13 6 26 q6 13 16 23 q10 10 23 16 q13 6 26 6 l10 0 q13 0 26 -6 q13 -6 23 -16 q10 -10 16 -23 q6 -13 6 -26 l0 -466 q0 -13 -6 -26 q-6 -13 -16 -23 q-10 -10 -23 -16 q-13 -6 -26 -6 l-10 0 q-13 0 -26 6 q-13 6 -23 16 q-10 10 -16 23 q-6 13 -6 26 ZM66 476 q0 10 6 32 q6 22 42 38 q50 22 98 49 q48 27 91.5 59 q43.5 32 82.5 69 q39 37 71 80 q8 10 19.5 17 q11.5 7 25 11 q13.5 4 27 3.5 q13.5 -0.5 24.5 -5.5 l2 -1 q13 -6 22 -18 q9 -12 13 -26 q4 -14 3 -28 q-1 -5 -2 -9 q87 -78 161 -126 q74 -49 135 -78 q38 -18 43 -39.5 q5 -21.5 5 -30.5 q0 -25 -17 -50 q-7 -11 -19.5 -19 q-12.5 -8 -26 -12 q-13.5 -4 -28 -3.5 q-14.5 0.5 -26.5 6.5 q-63 33 -144 92 q-75 54 -169 145 l-6 -6 q-45 -49 -95.5 -90.5 q-50.5 -41.5 -105.5 -77 q-55 -35.5 -113 -64.5 q-11 -6 -25 -6 q-14 0 -27.5 4 q-13.5 4 -25.5 12.5 q-12 8.5 -20 18.5 l-1 3 l-3 3 q-17 23 -17 47 Z" /><glyph glyph-name="uni4E2D" unicode="&#x4e2d;" d="M575 354 l193 0 l0 181 q0 2 -2 4 q-2 2 -4 2 l-187 0 l0 -187 ZM229 354 l192 0 l0 187 l-186 0 q-2 0 -4 -2 q-2 -2 -2 -4 l0 -181 ZM83 231 l0 381 q0 14 6 26.5 q6 12.5 16.5 23 q10.5 10.5 23.5 16.5 q13 6 26 6 l266 0 l0 99 q0 14 6 26.5 q6 12.5 16.5 23 q10.5 10.5 23.5 16.5 q13 6 26 6 l10 0 q14 0 26.5 -6 q12.5 -6 23 -16.5 q10.5 -10.5 16.5 -23 q6 -12.5 6 -26.5 l0 -99 l274 0 q14 0 26.5 -6 q12.5 -6 23 -16 q10.5 -10 16.5 -23 q6 -13 6 -26 l0 -378 q0 -13 -6 -26 q-6 -13 -16.5 -23 q-10.5 -10 -23 -16 q-12.5 -6 -26.5 -6 l-9 0 q-13 0 -26 6 q-13 6 -23.5 16.5 q-10.5 10.5 -16.5 23.5 l0 1 l-199 0 l0 -234 q0 -14 -6 -26.5 q-6 -12.5 -16.5 -23 q-10.5 -10.5 -23 -16.5 q-12.5 -6 -26.5 -6 l-10 0 q-13 0 -26 6 q-13 6 -23.5 16.5 q-10.5 10.5 -16.5 23 q-6 12.5 -6 26.5 l0 234 l-195 0 q-2 -3 -3 -6 q-6 -13 -16.5 -23.5 q-10.5 -10.5 -23 -16.5 q-12.5 -6 -26.5 -6 l-2 0 q-13 0 -26 6 q-13 6 -23.5 16.5 q-10.5 10.5 -16.5 23.5 q-6 13 -6 26 Z" /><glyph glyph-name="uni4E30" unicode="&#x4e30;" d="M44 197 l0 2 q0 14 6 26.5 q6 12.5 16 23 q10 10.5 23 16.5 q13 6 26 6 l305 0 l0 85 l-216 0 q-14 0 -27 6 q-13 6 -23.5 16 q-10.5 10 -16.5 22.5 q-6 12.5 -6 25.5 q0 13 6 25.5 q6 12.5 16.5 22 q10.5 9.5 23.5 15.5 q13 6 27 6 l216 0 l0 75 l-270 0 q-13 0 -26 6 q-13 6 -23.5 16.5 q-10.5 10.5 -16.5 23.5 q-6 13 -6 27 q0 14 6 26.5 q6 12.5 16.5 23 q10.5 10.5 23.5 16.5 q13 6 26 6 l270 0 l0 69 q0 14 6 26.5 q6 12.5 16 23 q10 10.5 23 16.5 q13 6 26 6 l15 0 q13 0 26 -6 q13 -6 23 -16.5 q10 -10.5 16 -23 q6 -12.5 6 -26.5 l0 -69 l271 0 q14 0 26.5 -6 q12.5 -6 23 -16.5 q10.5 -10.5 16.5 -23 q6 -12.5 6 -26.5 q0 -14 -6 -27 q-6 -13 -16.5 -23.5 q-10.5 -10.5 -23 -16.5 q-12.5 -6 -26.5 -6 l-271 0 l0 -75 l224 0 q14 0 27 -6 q13 -6 23.5 -15.5 q10.5 -9.5 16.5 -22 q6 -12.5 6 -25.5 q0 -13 -6 -25.5 q-6 -12.5 -16.5 -22.5 q-10.5 -10 -23.5 -16 q-13 -6 -27 -6 l-224 0 l0 -85 l310 0 q13 0 26 -6 q13 -6 23 -16.5 q10 -10.5 16 -23 q6 -12.5 6 -26.5 l0 -2 q0 -13 -6 -26 q-6 -13 -16 -23.5 q-10 -10.5 -23 -16.5 q-13 -6 -26 -6 l-310 0 l0 -147 q0 -14 -6 -26.5 q-6 -12.5 -16 -23 q-10 -10.5 -23 -16.5 q-13 -6 -26 -6 l-15 0 q-13 0 -26 6 q-13 6 -23 16.5 q-10 10.5 -16 23 q-6 12.5 -6 26.5 l0 147 l-305 0 q-13 0 -26 6 q-13 6 -23 16.5 q-10 10.5 -16 23.5 q-6 13 -6 26 Z" /><glyph glyph-name="uni4E32" unicode="&#x4e32;" d="M576 557 l138 0 q3 0 5 2 q2 2 2 4 l0 52 q0 2 -2 4 q-2 2 -5 2 l-138 0 l0 -64 ZM576 182 l179 0 q5 0 9 -1 l0 65 q0 2 -2 4 q-2 2 -4 2 l-182 0 l0 -70 ZM276 563 q0 -2 2 -4 q2 -2 5 -2 l135 0 l0 64 l-135 0 q-3 0 -5 -2 q-2 -2 -2 -4 l0 -52 ZM236 180 q7 2 14 2 l168 0 l0 70 l-176 0 q-2 0 -4 -2 q-2 -2 -2 -4 l0 -66 ZM84 88 l0 224 q0 14 6 26.5 q6 12.5 16.5 23 q10.5 10.5 23.5 16.5 q13 6 26 6 l262 0 l0 48 l-220 0 q-13 0 -26 6 q-13 6 -23.5 16 q-10.5 10 -16.5 23 q-6 13 -6 26 l0 172 q0 13 6 26 q6 13 16.5 23 q10.5 10 23.5 16 q13 6 26 6 l220 0 l0 36 q0 14 6 26.5 q6 12.5 16.5 23 q10.5 10.5 23.5 16.5 q13 6 26 6 l14 0 q14 0 26.5 -6 q12.5 -6 23 -16.5 q10.5 -10.5 16.5 -23 q6 -12.5 6 -26.5 l0 -36 l233 0 q14 0 26.5 -6 q12.5 -6 23 -16 q10.5 -10 16.5 -23 q6 -13 6 -26 l0 -172 q0 -13 -6 -26 q-6 -13 -16.5 -23 q-10.5 -10 -23 -16 q-12.5 -6 -26.5 -6 l-233 0 l0 -48 l276 0 q14 0 26.5 -6 q12.5 -6 23 -16.5 q10.5 -10.5 16.5 -23 q6 -12.5 6 -26.5 l0 -224 q0 -13 -6 -26 q-6 -13 -16.5 -23.5 q-10.5 -10.5 -23 -16.5 q-12.5 -6 -26.5 -6 l-15 0 q-14 0 -27 6 q-13 6 -23 17 q-9 8 -14 17 q-9 -2 -18 -2 l-179 0 l0 -78 q0 -14 -6 -26.5 q-6 -12.5 -16.5 -23 q-10.5 -10.5 -23 -16.5 q-12.5 -6 -26.5 -6 l-14 0 q-13 0 -26 6 q-13 6 -23.5 16.5 q-10.5 10.5 -16.5 23 q-6 12.5 -6 26.5 l0 78 l-168 0 q-11 0 -22 4 q-6 -11 -14 -19 q-10 -11 -23 -17 q-13 -6 -26 -6 l-10 0 q-13 0 -26 6 q-13 6 -23 16.5 q-10 10.5 -16 23.5 q-6 13 -6 26 Z" /><glyph glyph-name="uni4E34" unicode="&#x4e34;" d="M749 240 q3 -9 3 -19 l0 -120 q0 -9 -2 -17 l52 0 l0 151 q0 2 -2 3.5 q-2 1.5 -4 1.5 l-47 0 ZM628 505 q-7 14 -8 29 q-1 15 3.5 28.5 q4.5 13.5 14.5 23.5 q14 14 28.5 14.5 q14.5 0.5 16.5 0.5 q24 0 39 -11 q20 -14 39.5 -29.5 q19.5 -15.5 37.5 -29.5 q11 -8 16.5 -20.5 q5.5 -12.5 7 -26.5 q1.5 -14 -2.5 -27 q-4 -13 -13 -23 q-9 -10 -22.5 -15 q-13.5 -5 -28 -5.5 q-14.5 -0.5 -28.5 4.5 q-14 5 -25 14 q-13 12 -27.5 24.5 q-14.5 12.5 -28.5 24.5 q-12 10 -19 24 ZM564 83 q5 1 10 1 l49 0 q-2 8 -2 17 l0 120 q0 10 3 19 l-54 0 q-2 0 -4 -1.5 q-2 -1.5 -2 -3.5 l0 -152 ZM425 -23 l0 330 q0 14 6 26.5 q6 12.5 16.5 23 q10.5 10.5 23.5 16.5 q13 6 26 6 l379 0 q14 0 26.5 -6 q12.5 -6 23 -16 q10.5 -10 16.5 -23 q6 -13 6 -26 l0 -327 q0 -13 -6 -26 q-6 -13 -16.5 -23 q-10.5 -10 -23 -16 q-12.5 -6 -26.5 -6 l-2 0 q-13 0 -26 6 q-13 6 -23 17 q-9 8 -15 19 q-6 -2 -13 -2 l-223 0 q-8 0 -15 2 l-1 -1 q-6 -13 -15.5 -23.5 q-9.5 -10.5 -22 -16.5 q-12.5 -6 -25.5 -6 q-13 0 -25.5 6 q-12.5 6 -22.5 16.5 q-10 10.5 -16 23 q-6 12.5 -6 26.5 ZM384 523 q0 30 17 56 q31 45 55.5 99 q24.5 54 41.5 114 q4 13 13 24 q9 11 21 18.5 q12 7.5 26 11 q14 3.5 27 0.5 q14 -3 26 -11.5 q12 -8.5 20 -20.5 q8 -12 11 -26 q3 -14 -1 -28 q-1 -5 -3 -9 l251 0 q14 0 26.5 -6 q12.5 -6 23 -16 q10.5 -10 16.5 -22.5 q6 -12.5 6 -25.5 q0 -13 -6 -25.5 q-6 -12.5 -16.5 -22.5 q-10.5 -10 -23 -16 q-12.5 -6 -26.5 -6 l-288 0 q-8 0 -15 2 q-2 -3 -3 -6 q-33 -72 -73 -129 q-7 -11 -19.5 -17.5 q-12.5 -6.5 -26 -9 q-13.5 -2.5 -27 -0.5 q-13.5 2 -23.5 9 q-27 19 -28.5 39 q-1.5 20 -1.5 24 ZM227 -11 l0 783 q0 14 6 26.5 q6 12.5 16.5 23 q10.5 10.5 23.5 16.5 q13 6 26 6 q13 0 26 -6 q13 -6 23 -16.5 q10 -10.5 16 -23 q6 -12.5 6 -26.5 l0 -783 q0 -14 -6 -26.5 q-6 -12.5 -16 -23 q-10 -10.5 -23 -16.5 q-13 -6 -26 -6 q-13 0 -26 6 q-13 6 -23.5 16.5 q-10.5 10.5 -16.5 23 q-6 12.5 -6 26.5 ZM51 83 l0 594 q0 14 6 26.5 q6 12.5 15.5 23 q9.5 10.5 21.5 16.5 q12 6 25 6 q12 0 24 -6 q12 -6 21.5 -16.5 q9.5 -10.5 15.5 -23 q6 -12.5 6 -26.5 l0 -594 q0 -13 -6 -26 q-6 -13 -15.5 -23.5 q-9.5 -10.5 -21.5 -16.5 q-12 -6 -24 -6 q-13 0 -25 6 q-12 6 -21.5 16.5 q-9.5 10.5 -15.5 23.5 q-6 13 -6 26 Z" /><glyph glyph-name="uni4E3A" unicode="&#x4e3a;" d="M518 274 q-8 14 -10 29.5 q-2 15.5 2 30 q4 14.5 13.5 26.5 q9.5 12 22.5 18 q10 5 23 5 q10 0 29 -5.5 q19 -5.5 31 -22.5 q13 -18 24.5 -36.5 q11.5 -18.5 22.5 -35.5 q6 -11 6.5 -24 q0.5 -13 -3.5 -26 q-4 -13 -12.5 -23.5 q-8.5 -10.5 -19.5 -16.5 q-13 -6 -28.5 -6 q-15.5 0 -30 5.5 q-14.5 5.5 -26.5 15.5 q-12 10 -19 23 q-6 11 -12 21.5 q-6 10.5 -13 21.5 ZM158 743 q0 13 4 26.5 q4 13.5 14 25.5 q10 12 25 18 q10 4 21 4 q10 0 28.5 -5 q18.5 -5 29.5 -21 q8 -11 15 -22.5 q7 -11.5 14 -22.5 q8 -12 8.5 -26 q0.5 -14 -3.5 -27 q-4 -13 -14 -23.5 q-10 -10.5 -22 -15.5 q-13 -6 -28.5 -5 q-15.5 1 -30 7 q-14.5 6 -26.5 16 q-12 10 -19 23 q-2 3 -3.5 6 q-1.5 3 -3.5 6 q-8 14 -8.5 23.5 q-0.5 9.5 -0.5 12.5 ZM69 549 l0 5 q0 13 6 26 q6 13 16.5 23 q10.5 10 23.5 16 q13 6 26 6 l227 0 q2 43 2 83 l0 73 q0 14 6 26.5 q6 12.5 16.5 23 q10.5 10.5 23.5 16.5 q13 6 26 6 l4 0 q14 0 26.5 -6 q12.5 -6 23 -16.5 q10.5 -10.5 16.5 -23 q6 -12.5 6 -26.5 l0 -74 q0 -39 -2 -82 l334 0 q14 0 26.5 -6 q12.5 -6 23.5 -16 q10 -10 16 -22 q1 -4 2 -7 q4 -10 4 -20 l0 -5 q0 -8 -3 -17 q-3 -128 -8 -220 q-5 -99 -12.5 -166 q-7.5 -67 -17.5 -105.5 q-10 -38.5 -25 -58.5 q-24 -32 -49.5 -45 q-25.5 -13 -59.5 -18 q-19 -4 -43 -5 q-24 -1 -51 -2 q-26 0 -49 18.5 q-23 18.5 -29 39.5 q-4 13 -4 25 q0 22 17 44 q17 22 59 22 q2 0 3 0 l26 0 q14 0 23.5 3.5 q9.5 3.5 19.5 13.5 q11 11 18.5 46 q7.5 35 13.5 97.5 q6 62.5 10 155.5 q2 46 4 101 l-263 0 q-10 -68 -31 -138 q-31 -100 -90.5 -197 q-59.5 -97 -162.5 -177 q-10 -8 -23.5 -11 q-13.5 -3 -27.5 -1.5 q-14 1.5 -26.5 6.5 q-12.5 5 -20.5 13 q-23 23 -23 54 q0 4 1.5 23.5 q1.5 19.5 31.5 44.5 q82 69 130 147 q48 78 73 159 q11 38 19 77 l-211 0 q-13 0 -26 6 q-13 6 -23.5 16 q-10.5 10 -16.5 23 q-6 13 -6 26 Z" /><glyph glyph-name="uni4E3B" unicode="&#x4e3b;" d="M49 7 q0 13 6 26 q6 13 16.5 23 q10.5 10 23.5 16 q13 6 26 6 l299 0 l0 164 l-201 0 q-13 0 -26 6 q-13 6 -23.5 16 q-10.5 10 -16.5 22.5 q-6 12.5 -6 25.5 q0 13 6 25.5 q6 12.5 16.5 22.5 q10.5 10 23.5 16 q13 6 26 6 l201 0 l0 92 q0 14 6 26.5 q6 12.5 17 23.5 q3 3 7 6 l-288 0 q-13 0 -26 6 q-13 6 -23.5 16 q-10.5 10 -16.5 23 q-6 13 -6 26 q0 14 6 26.5 q6 12.5 16.5 22.5 q10.5 10 23.5 16 q13 6 26 6 l301 0 q-10 9 -22 19 q-16 13 -33 26 q-15 11 -22 26.5 q-7 15.5 -7 31.5 q0 16 7 31 q7 15 22 25 l6 4 q14 9 26.5 9.5 q12.5 0.5 14.5 0.5 q19 0 32 -8 q25 -17 51 -35 q26 -18 49 -37 q12 -9 17 -22.5 q5 -13.5 4 -28 q-1 -14.5 -8 -27.5 q-4 -9 -10 -15 l243 0 q14 0 26.5 -6 q12.5 -6 23 -16 q10.5 -10 16.5 -22.5 q6 -12.5 6 -26.5 q0 -13 -6 -26 q-6 -13 -16.5 -23 q-10.5 -10 -23 -16 q-12.5 -6 -26.5 -6 l-282 0 l8 -6 q10 -11 16 -23.5 q6 -12.5 6 -26.5 l0 -92 l201 0 q14 0 26.5 -6 q12.5 -6 23 -16 q10.5 -10 16.5 -22.5 q6 -12.5 6 -25.5 q0 -13 -6 -25.5 q-6 -12.5 -16.5 -22.5 q-10.5 -10 -23 -16 q-12.5 -6 -26.5 -6 l-201 0 l0 -164 l301 0 q14 0 26.5 -6 q12.5 -6 23 -16 q10.5 -10 16.5 -23 q6 -13 6 -26 q0 -14 -6 -26.5 q-6 -12.5 -16.5 -23 q-10.5 -10.5 -23 -16.5 q-12.5 -6 -26.5 -6 l-761 0 q-13 0 -26 6 q-13 6 -23.5 16.5 q-10.5 10.5 -16.5 23 q-6 12.5 -6 26.5 Z" /><glyph glyph-name="uni4E3E" unicode="&#x4e3e;" d="M415 734 q-8 14 -10 30 q-2 16 1.5 31 q3.5 15 13 27.5 q9.5 12.5 23.5 18.5 q9 4 20 4 q10 0 28.5 -5 q18.5 -5 30.5 -21 q8 -11 15 -21.5 q7 -10.5 14 -21.5 q7 -11 7.5 -24 q0.5 -13 -3.5 -26 q-4 -13 -12.5 -23 q-8.5 -10 -19.5 -15 q-13 -6 -28.5 -5.5 q-15.5 0.5 -30 6.5 q-14.5 6 -26.5 16.5 q-12 10.5 -20 23.5 q-1 1 -1 2 l-2 3 ZM53 587 q-6 12 -6 24 q0 12 6 23.5 q6 11.5 16 21 q10 9.5 23 15 q13 5.5 26 5.5 l90 0 q-4 2 -7 5 q-13 9 -21 22 q-2 2 -2.5 3.5 q-0.5 1.5 -2.5 3.5 q-9 14 -11 25.5 q-2 11.5 -2 17.5 q0 9 3 21.5 q3 12.5 12 25.5 q9 13 24 20 q11 6 25 6 q8 0 24.5 -3.5 q16.5 -3.5 29.5 -18.5 q8 -11 17 -22 q9 -11 17 -22 q8 -11 9 -24.5 q1 -13.5 -3 -26.5 q-4 -13 -12 -24 q-4 -5 -8 -9 l359 0 l-2 8 q-4 11 -4 22 q0 5 1.5 15.5 q1.5 10.5 10.5 25.5 q5 11 11 21 q6 10 11 21 q11 22 33.5 32.5 q22.5 10.5 38.5 10.5 q9 0 17 -2 l5 -1 q17 -5 29 -16.5 q12 -11.5 16.5 -24.5 q4.5 -13 4.5 -24 q0 -4 -1.5 -14.5 q-1.5 -10.5 -12.5 -24.5 q-14 -17 -26 -34 q-6 -8 -12 -15 l107 0 q13 0 26 -5.5 q13 -5.5 23 -15 q10 -9.5 16 -21 q6 -11.5 6 -23.5 q0 -12 -6 -24 q-6 -12 -16 -21.5 q-10 -9.5 -23 -15 q-13 -5.5 -26 -5.5 l-119 0 q11 -14 23 -27 q15 -16 31.5 -31 q16.5 -15 34.5 -29 q18 -14 37 -27 q33 -22 39 -44.5 q6 -22.5 6 -32.5 q0 -22 -14 -41 q-14 -18 -32.5 -21.5 q-18.5 -3.5 -26.5 -3.5 q-19 0 -35 10 q-27 18 -51.5 39.5 q-24.5 21.5 -47.5 45.5 q-23 24 -43.5 51 q-20.5 27 -38.5 55 q-8 13 -9.5 27.5 q-1.5 14.5 2.5 28.5 l-270 0 q0 -2 1 -3 q4 -14 2.5 -28.5 q-1.5 -14.5 -10.5 -27.5 q-20 -30 -43 -58 q-20 -24 -41 -45 q8 5 16 9 q13 5 26 5 l108 0 l0 29 q0 13 6 26 q6 13 16.5 23 q10.5 10 23.5 16 q13 6 26 6 l2 0 q14 0 26.5 -6 q12.5 -6 23 -16 q10.5 -10 16.5 -23 q6 -13 6 -26 l0 -29 l98 0 q14 0 26.5 -5.5 q12.5 -5.5 23 -15 q10.5 -9.5 16.5 -21.5 q6 -12 6 -24 q0 -13 -6 -25 q-6 -12 -16.5 -21.5 q-10.5 -9.5 -23 -15 q-12.5 -5.5 -26.5 -5.5 l-98 0 l0 -66 l279 0 q14 0 26.5 -6 q12.5 -6 23 -15.5 q10.5 -9.5 16.5 -21.5 q6 -12 6 -24 q0 -13 -6 -25 q-6 -12 -16.5 -21.5 q-10.5 -9.5 -23 -15.5 q-12.5 -6 -26.5 -6 l-279 0 l0 -85 q0 -13 -6 -26 q-6 -13 -16.5 -23 q-10.5 -10 -23 -16 q-12.5 -6 -26.5 -6 l-2 0 q-13 0 -26 6 q-13 6 -23.5 16 q-10.5 10 -16.5 23 q-6 13 -6 26 l0 85 l-273 0 q-13 0 -26 6 q-13 6 -23.5 15.5 q-10.5 9.5 -16.5 21.5 q-6 12 -6 25 q0 12 6 24 q6 12 16.5 21.5 q10.5 9.5 23.5 15.5 q13 6 26 6 l273 0 l0 66 l-108 0 q-13 0 -26 5.5 q-13 5.5 -23.5 15 q-10.5 9.5 -16.5 21.5 q-6 12 -6 25 q0 12 6 24 l6 10 q-22 -21 -45 -40 q-29 -23 -59 -42 q-14 -9 -33 -9 q-7 0 -24.5 3 q-17.5 3 -31.5 20 q-14 18 -14 40 q0 10 6 32 q6 22 39 43 q22 14 43 30 q21 16 40 33.5 q19 17.5 36 36.5 q15 17 27 33 l-129 0 q-13 0 -26 5.5 q-13 5.5 -23 15 q-10 9.5 -16 21.5 Z" /><glyph glyph-name="uni4E45" unicode="&#x4e45;" d="M71 366.5 q-7 15.5 -7 32.5 q0 17 6 33.5 q6 16.5 19 29.5 q62 65 110.5 148.5 q48.5 83.5 81.5 179.5 q4 12 13.5 22.5 q9.5 10.5 22 17 q12.5 6.5 26 9.5 q13.5 3 26.5 0 l17 -4 q14 -3 25.5 -12.5 q11.5 -9.5 19 -22 q7.5 -12.5 9 -27 q1.5 -14.5 -3.5 -28.5 l-14 -36 l131 0 q14 0 27 -6 q7 6 15 6 q2 0 5.5 0.5 q3.5 0.5 6.5 1.5 l5 1 q5 2 15 1 q10 -1 15 -4 l39 -17 q10 -4 18 -13.5 q8 -9.5 13.5 -21 q5.5 -11.5 7 -23.5 q1.5 -12 -1.5 -23 q-35 -118 -85 -220 q7 -8 11 -17 q20 -43 46 -83 q26 -40 57 -76.5 q31 -36.5 67.5 -68.5 q36.5 -32 77.5 -58 q33 -21 37 -43 q4 -22 4 -30 q0 -27 -18 -51 q-7 -10 -19 -17.5 q-12 -7.5 -25.5 -11 q-13.5 -3.5 -27 -2.5 q-13.5 1 -24.5 8 q-53 33 -98.5 74 q-45.5 41 -84 89 q-38.5 48 -70.5 103 q-10 18 -20 37 q-17 -25 -35 -48 q-67 -85 -146 -151 q-79 -66 -168 -112 q-10 -6 -23.5 -6.5 q-13.5 -0.5 -26.5 3.5 q-13 4 -24.5 11 q-11.5 7 -19.5 16 q-21 26 -21 54 q0 7 4 29 q4 22 41 42 q81 44 151.5 102.5 q70.5 58.5 127 132.5 q56.5 74 98.5 163 q18 39 33 82 l-182 0 q-12 -21 -23 -42 q-61 -105 -134 -183 q-9 -9 -22.5 -13.5 q-13.5 -4.5 -28 -4.5 q-14.5 0 -28 4 q-13.5 4 -23.5 13 q-2 1 -2 2 l-2 1 q-14 12 -21 27.5 Z" /><glyph glyph-name="uni4E48" unicode="&#x4e48;" d="M126 25 q-6 14 -4.5 29.5 q1.5 15.5 8 31 q6.5 15.5 17 29 q10.5 13.5 23.5 23.5 q7 5 9 6 q2 1 6 4 q4 3 15 12 q11 9 36 30 q26 20 69.5 62.5 q43.5 42.5 96.5 101 q53 58.5 110.5 130 q57.5 71.5 110.5 149.5 q7 10 18 17.5 q11 7.5 24 11 q13 3.5 26.5 3 q13.5 -0.5 23.5 -5.5 l21 -11 q14 -7 23.5 -19 q9.5 -12 13 -26.5 q3.5 -14.5 1.5 -30 q-2 -15.5 -11 -27.5 q-118 -161 -244 -285 q-72 -71 -141 -134 l348 23 q-7 12 -13 24 q-17 29 -34 57 q-8 13 -9.5 28.5 q-1.5 15.5 2.5 30.5 q4 15 13.5 27 q9.5 12 23.5 19 l6 3 q11 6 25 6 q10 0 30 -5.5 q20 -5.5 33 -24.5 q20 -31 40 -64 q20 -33 38.5 -66 q18.5 -33 35 -64.5 q16.5 -31.5 30.5 -61.5 q5 -11 5 -24 q0 -13 -4.5 -25.5 q-4.5 -12.5 -12.5 -23 q-8 -10.5 -19 -16.5 l-12 -7 q-14 -7 -29.5 -7 q-15.5 0 -30.5 5.5 q-15 5.5 -27 16 q-12 10.5 -18 24.5 q-5 10 -9 21 q-4 -3 -8 -5 q-14 -8 -29 -10 q-108 -9 -190 -14.5 q-82 -5.5 -142.5 -10 q-60.5 -4.5 -102.5 -7.5 q-42 -3 -71 -6 q-6 -1 -11 -1 q-12 0 -26 4 q-14 4 -27 13 q-3 1 -4 3 q-6 0 -12 2 q-30 8 -41 35 ZM83 439 q0 18 8 34 q8 16 22 28 q39 32 76 68.5 q37 36.5 71 75 q34 38.5 63 78 q29 39.5 53 76.5 q12 20 33.5 28 q21.5 8 35.5 8 q11 0 21 -3 l13 -5 q15 -6 25.5 -17.5 q10.5 -11.5 15.5 -26 q5 -14.5 3.5 -30 q-1.5 -15.5 -10.5 -28.5 q-32 -46 -68 -93 q-36 -47 -75 -91.5 q-39 -44.5 -81 -85.5 q-42 -41 -85 -77 q-9 -8 -22.5 -11 q-13.5 -3 -27 -2.5 q-13.5 0.5 -26 5.5 q-12.5 5 -21.5 13 q-13 12 -18.5 26.5 q-5.5 14.5 -5.5 29.5 Z" /><glyph glyph-name="uni4E49" unicode="&#x4e49;" d="M402 740 q-6 14 -6 29.5 q0 15.5 5.5 29 q5.5 13.5 16 24.5 q10.5 11 24.5 16 q8 3 16 3 q14 0 34.5 -9.5 q20.5 -9.5 31.5 -29.5 q16 -31 31 -63 q15 -32 28 -62 q5 -12 4.5 -25.5 q-0.5 -13.5 -6 -26.5 q-5.5 -13 -15 -23 q-9.5 -10 -21.5 -15 q-13 -5 -28 -3.5 q-15 1.5 -28.5 8 q-13.5 6.5 -24.5 17.5 q-11 11 -16 24 q-10 26 -21.5 53 q-11.5 27 -24.5 53 ZM63 -13 q0 14 9.5 36.5 q9.5 22.5 44.5 35.5 q131 45 233 112 q20 13 40 27 q-73 78 -131 173 q-64 104 -113 227 q-5 13 -3.5 27.5 q1.5 14.5 8 28 q6.5 13.5 17.5 23.5 q11 10 24 14 q12 4 26 1.5 q14 -2.5 27 -9 q13 -6.5 23 -16.5 q10 -10 15 -22 q39 -100 95 -187 q55 -88 128 -160 q11 11 22 23 q76 83 130 181.5 q54 98.5 90 207.5 q4 13 14 23.5 q10 10.5 22.5 18 q12.5 7.5 27 10 q14.5 2.5 27.5 -1.5 l11 -3 q13 -4 24 -14 q11 -10 17.5 -22.5 q6.5 -12.5 8.5 -27 q2 -14.5 -3 -27.5 q-46 -126 -109 -238.5 q-63 -112.5 -151 -207.5 q-8 -9 -17 -17 q26 -18 53 -34 q92 -57 204 -95 q40 -14 46.5 -36.5 q6.5 -22.5 6.5 -32.5 q0 -24 -16 -49 q-11 -17 -32 -25 q-21 -8 -35 -8 q-8 0 -16 2 q-132 43 -237 107 q-50 30 -94 65 q-33 -25 -69 -48 q-117 -77 -271 -130 q-10 -3 -20 -3 q-14 0 -35.5 8.5 q-21.5 8.5 -32.5 28.5 q-9 17 -9 34 Z" /><glyph glyph-name="uni4E4B" unicode="&#x4e4b;" d="M63.5 11 q-2.5 12 -2 24.5 q0.5 12.5 5.5 24.5 q5 12 13 19 q48 42 90 66.5 q42 24.5 87 24.5 q6 0 13 -1 q9 15 26 26 q69 46 136.5 101.5 q67.5 55.5 127 113.5 q59.5 58 108.5 117 q3 3 6 7 l-515 0 q-13 0 -26 6 q-13 6 -23.5 16 q-10.5 10 -16.5 23 q-6 13 -6 26 q0 14 6 26.5 q6 12.5 16.5 22.5 q10.5 10 23.5 16 q13 6 26 6 l311 0 q-13 9 -21 21 q-6 10 -12 19 l-12 18 q-8 12 -10 27.5 q-2 15.5 1.5 30 q3.5 14.5 12.5 27 q9 12.5 22 19.5 l8 4 q10 6 22.5 7 q12.5 1 25.5 -2 q13 -3 24 -9.5 q11 -6.5 18 -15.5 l20 -26 q10 -13 19 -27 q8 -11 10 -25 q2 -14 -1.5 -27.5 q-3.5 -13.5 -10.5 -24.5 q-6 -10 -15 -16 l165 0 q14 0 26 -6 q8 6 17 6 q2 0 5 0.5 q3 0.5 5 0.5 q9 2 22 0 q13 -2 20 -7 l32 -20 q11 -7 18.5 -19.5 q7.5 -12.5 10.5 -26.5 q3 -14 0.5 -28.5 q-2.5 -14.5 -10.5 -25.5 q-50 -67 -109.5 -132.5 q-59.5 -65.5 -125.5 -126.5 q-66 -61 -136 -116 q-56 -45 -113 -83 q39 -19 88 -25 q65 -9 147 -9 q48 0 111.5 3.5 q63.5 3.5 125.5 8.5 q7 1 13 1 q32 0 49.5 -19 q17.5 -19 17.5 -43 q0 -10 -3 -21 q-5 -22 -27.5 -41 q-22.5 -19 -46.5 -21 q-27 -2 -55 -3 q-28 -1 -57.5 -2 q-29.5 -1 -62.5 -1.5 q-33 -0.5 -71 -0.5 q-94 0 -157 12.5 q-63 12.5 -116 42.5 q-34 20 -59 40 q-25 20 -42 20 q-13 0 -28 -14.5 q-15 -14.5 -31 -36.5 q-11 -15 -25.5 -23 q-14.5 -8 -23 -8.5 q-8.5 -0.5 -9.5 -0.5 q-15 0 -29.5 6.5 q-14.5 6.5 -25.5 21.5 l-8 11 q-7 9 -9.5 21 Z" /><glyph glyph-name="uni4E4C" unicode="&#x4e4c;" d="M170 352 l0 329 q0 14 6 26.5 q6 12.5 16.5 23 q10.5 10.5 23.5 16.5 q13 6 26 6 l149 0 q-7 14 -7 28 q0 8 2 15 q5 23 27.5 39 q22.5 16 45.5 16 q3 0 5 0 q17 -1 30.5 -9.5 q13.5 -8.5 21.5 -21.5 q8 -13 9 -22.5 q1 -9.5 1 -11.5 q0 -13 -7 -27 q-2 -3 -3 -5 l0 -1 l288 0 q14 0 26.5 -5.5 q12.5 -5.5 23 -14.5 q10.5 -9 16.5 -20 q6 -11 6 -23 q0 -12 -6 -23 q-3 -34 -7 -61 q-5 -35 -11.5 -60.5 q-6.5 -25.5 -14.5 -43 q-8 -17.5 -18 -28.5 q-20 -21 -45 -29 q-25 -8 -53 -10 q-17 -1 -32 -1.5 q-15 -0.5 -23 -0.5 q-16 0 -34 1 q-24 1 -45.5 15.5 q-21.5 14.5 -25.5 31.5 q-1 6 -1 11 q0 22 22 40 q22 18 59 18 q2 0 4 0 l12 0 q14 0 22 2 q8 2 15 10 q5 5 10 18 q5 13 9 34 l2 12 l-399 0 q-3 0 -5 -2 q-2 -2 -2 -5 l0 -205 q0 -3 1.5 -5 q1.5 -2 3.5 -2 l563 0 q14 0 27 -5 q9 -4 17 -10 q1 0 2 -1 q12 -7 19.5 -16.5 q7.5 -9.5 7.5 -18.5 l0 -15 q-2 -88 -4 -152 q-3 -66 -8 -111 q-5 -45 -12.5 -72 q-7.5 -27 -18.5 -42 q-21 -26 -45.5 -36 q-24.5 -10 -56.5 -15 q-18 -2 -42.5 -3 q-24.5 -1 -52.5 -1 q-25 0 -47 16 q-22 16 -27 34 q-3 11 -3 21 q0 21 17.5 40.5 q17.5 19.5 59.5 19.5 q2 0 3 0 l29 0 q14 0 23.5 2 q9.5 2 17.5 10 q8 8 12.5 30 q4.5 22 7.5 62.5 q3 40.5 5 100.5 l0 35 l-566 0 q-13 0 -26 6 q-13 6 -23.5 16.5 q-10.5 10.5 -16.5 23.5 q-6 13 -6 26 ZM54 129.5 q-6 11.5 -6 23.5 q0 12 6 23 q6 11 16.5 20 q10.5 9 23.5 14.5 q13 5.5 27 5.5 l543 0 q14 0 27 -5.5 q13 -5.5 23.5 -14.5 q10.5 -9 16.5 -20 q6 -11 6 -23 q0 -12 -6 -23.5 q-6 -11.5 -16.5 -20.5 q-10.5 -9 -23.5 -14.5 q-13 -5.5 -27 -5.5 l-543 0 q-14 0 -27 5.5 q-13 5.5 -23.5 14.5 q-10.5 9 -16.5 20.5 Z" /><glyph glyph-name="uni4E4D" unicode="&#x4e4d;" d="M70 460 q0 11 3.5 25 q3.5 14 13.5 28 q45 58 84.5 129.5 q39.5 71.5 69.5 147.5 q5 12 14.5 22 q9.5 10 21.5 17 q12 7 26 9 q14 2 26 -1 l12 -3 q15 -4 26.5 -14 q11.5 -10 18 -23 q6.5 -13 8 -27.5 q1.5 -14.5 -4.5 -28.5 l-18 -42 l514 0 q14 0 26.5 -6 q12.5 -6 23 -16 q10.5 -10 16.5 -22.5 q6 -12.5 6 -26.5 q0 -13 -6 -26 q-6 -13 -16.5 -23 q-10.5 -10 -23 -16 q-12.5 -6 -26.5 -6 l-370 0 l0 -91 q7 2 14 2 l291 0 q13 0 26 -6 q13 -6 23 -15.5 q10 -9.5 16 -22 q6 -12.5 6 -25.5 q0 -13 -6 -25.5 q-6 -12.5 -16 -22.5 q-10 -10 -23 -16 q-13 -6 -26 -6 l-291 0 q-7 0 -14 2 l0 -95 q8 2 15 2 l314 0 q14 0 26.5 -6 q12.5 -6 23 -16 q10.5 -10 16.5 -22.5 q6 -12.5 6 -26.5 q0 -13 -6 -26 q-6 -13 -16.5 -23 q-10.5 -10 -23 -16 q-12.5 -6 -26.5 -6 l-314 0 q-7 0 -15 2 l0 -121 q0 -14 -6 -26.5 q-6 -12.5 -16.5 -23 q-10.5 -10.5 -23 -16.5 q-12.5 -6 -26.5 -6 l-10 0 q-13 0 -26 6 q-13 6 -23.5 16.5 q-10.5 10.5 -16.5 23 q-6 12.5 -6 26.5 l0 580 l-60 0 q-46 -83 -96 -150 q-8 -11 -20.5 -17 q-12.5 -6 -27 -7.5 q-14.5 -1.5 -28.5 1.5 q-14 3 -25 10 q-14 10 -22.5 24.5 q-8.5 14.5 -10 25 q-1.5 10.5 -1.5 16.5 Z" /><glyph glyph-name="uni4E4E" unicode="&#x4e4e;" d="M697.5 457 q-5.5 14 -5.5 29.5 q0 15.5 6 29.5 q4 9 7.5 17.5 q3.5 8.5 7 17.5 q3.5 9 6.5 18 l6 18 q5 14 15 25 q10 11 23.5 18 q13.5 7 28 9.5 q14.5 2.5 28.5 -2.5 l4 -1 q15 -4 26 -15 q11 -11 17 -25.5 q6 -14.5 6 -30.5 q0 -16 -8 -30 q-14 -24 -26.5 -46.5 q-12.5 -22.5 -24.5 -42.5 q-11 -19 -29.5 -26 q-18.5 -7 -30.5 -7 q-9 0 -18 3 q-13 5 -23 16 q-10 11 -15.5 25 ZM164 517 q-6 14 -6 29.5 q0 15.5 5.5 29 q5.5 13.5 15 24.5 q9.5 11 22.5 16 q9 4 19 4 q12 0 32 -8 q20 -8 31 -28 q10 -20 19 -40 q9 -20 17 -40 q5 -11 3.5 -23.5 q-1.5 -12.5 -6.5 -24 q-5 -11.5 -13.5 -20.5 q-8.5 -9 -19.5 -13 q-15 -6 -30.5 -4.5 q-15.5 1.5 -29.5 9 q-14 7.5 -25 19.5 q-11 12 -17 27 q-4 11 -8 21.5 q-4 10.5 -9 21.5 ZM42 315 l0 4 q0 14 6 27 q6 13 16.5 23.5 q10.5 10.5 23.5 16.5 q13 6 26 6 l319 0 l0 266 q-40 -3 -81 -5 q-78 -5 -153 -7 q-1 0 -3 0 q-24 0 -47 16.5 q-23 16.5 -28 36.5 q-2 8 -2 16 q0 21 19 42 q19 21 56 23 q76 4 152.5 10 q76.5 6 149.5 14 q73 8 141.5 18 q68.5 10 129.5 22 q5 1 11 1 q16 0 36 -10 q20 -10 30 -27 l4 -7 q8 -15 8 -31 q0 -16 -6.5 -30 q-6.5 -14 -19 -24 q-12.5 -10 -29.5 -13 q-69 -13 -143 -22 q-35 -5 -69 -9 q2 -8 2 -16 l0 -264 l298 0 q14 0 26.5 -6 q12.5 -6 23 -16.5 q10.5 -10.5 16.5 -23.5 q6 -13 6 -27 l0 -4 q0 -14 -6 -27 q-6 -13 -16.5 -23.5 q-10.5 -10.5 -23 -16.5 q-12.5 -6 -26.5 -6 l-298 0 l0 -163 q0 -63 -16 -95.5 q-16 -32.5 -58 -49.5 q-33 -14 -76.5 -19.5 q-43.5 -5.5 -97.5 -6.5 q-1 0 -3 0 l-32 16 q-31 16 -39 36 q-6 16 -6 30 q0 20 15 42 q15 22 56 22 q1 0 3 0 l64 0 q17 0 24.5 6 q7.5 6 7.5 21 l0 161 l-319 0 q-13 0 -26 6 q-13 6 -23.5 16.5 q-10.5 10.5 -16.5 23.5 q-6 13 -6 27 Z" /><glyph glyph-name="uni4E4F" unicode="&#x4e4f;" d="M116 704 q-4 15 0 29 q4 14 14 25 q10 11 25.5 18 q15.5 7 33.5 8 q80 3 160.5 9 q80.5 6 156.5 13.5 q76 7.5 146 18 q70 10.5 129 22.5 q5 1 10 1 q11 0 27 -5 q16 -5 25 -16 l15 -16 q13 -15 17 -31 q4 -16 -0.5 -30.5 q-4.5 -14.5 -17 -25 q-12.5 -10.5 -32.5 -14.5 q-73 -13 -151.5 -23.5 q-78.5 -10.5 -159 -17.5 q-80.5 -7 -161.5 -11.5 q-81 -4.5 -159 -6.5 q-1 0 -3 0 q-24 0 -47 16.5 q-23 16.5 -28 36.5 ZM57 -3 q-12 16 -12 42 q0 26 14 40 q46 52 84.5 77.5 q38.5 25.5 71.5 25.5 q13 0 25.5 -6 q12.5 -6 26.5 -16.5 q14 -10.5 31 -24.5 q3 -2 6 -5 q10 31 45 49 q59 31 115.5 67.5 q56.5 36.5 106.5 74.5 q28 21 53 43 l-433 0 q-13 0 -26 6 q-13 6 -23.5 16.5 q-10.5 10.5 -16.5 23.5 q-6 13 -6 26 q0 13 6 26 q6 13 16.5 23 q10.5 10 23.5 16 q13 6 26 6 l274 0 q-4 1 -7 2 q-15 5 -27 15 q-12 10 -19 23 q-2 3 -3 6 q-1 3 -3 5 q-6 13 -6.5 27.5 q-0.5 14.5 4 28.5 q4.5 14 13.5 25.5 q9 11.5 21 17.5 l2 1 q11 5 24.5 5 q13.5 0 26 -3.5 q12.5 -3.5 23.5 -11 q11 -7.5 17 -17.5 q5 -6 8.5 -12.5 q3.5 -6.5 7.5 -13.5 q7 -11 7.5 -25 q0.5 -14 -3 -27 q-3.5 -13 -12.5 -24 q-9 -11 -21 -17 q-6 -3 -12 -5 l199 0 q14 0 27 -6 l6 -4 l2 2 q9 8 20 8 q2 0 5 0.5 q3 0.5 5 0.5 q9 2 22.5 -0.5 q13.5 -2.5 21.5 -7.5 l24 -17 q12 -9 19 -22 q7 -13 8.5 -28 q1.5 -15 -2.5 -29 q-4 -14 -15 -25 q-45 -46 -98 -90 q-53 -44 -110 -85 q-57 -41 -117 -77 q-54 -33 -107 -60 q19 -6 41 -9 q69 -10 163 -10 q55 0 123.5 3.5 q68.5 3.5 134.5 9.5 q6 1 11 1 q34 0 52 -19.5 q18 -19.5 18 -42.5 q0 -10 -3 -22 q-5 -21 -27.5 -40 q-22.5 -19 -45.5 -21 q-30 -2 -60.5 -3 q-30.5 -1 -63.5 -2.5 q-33 -1.5 -69.5 -2 q-36.5 -0.5 -78.5 -0.5 q-52 0 -94 3 q-42 3 -77 10.5 q-35 7.5 -64.5 19 q-29.5 11.5 -57.5 29.5 q-18 12 -34.5 24.5 q-16.5 12.5 -30.5 23.5 q-14 11 -25 18 q-11 7 -19 7 q-8 0 -17 -13 q-9 -13 -18 -34 q-17 -39 -35 -42.5 q-18 -3.5 -22 -3.5 q-26 0 -48 30 l-12 16 Z" /><glyph glyph-name="uni4E50" unicode="&#x4e50;" d="M709 199 q0 10 3.5 22.5 q3.5 12.5 13.5 24.5 q10 12 25 18 q10 4 22 4 q10 0 28.5 -5 q18.5 -5 29.5 -21 q14 -18 28 -37 l27 -38 q13 -19 25.5 -38 q12.5 -19 23.5 -37 q8 -12 8.5 -26 q0.5 -14 -4 -27.5 q-4.5 -13.5 -13.5 -24.5 q-9 -11 -21 -17 l-5 -2 q-12 -6 -27 -5.5 q-15 0.5 -29 6 q-14 5.5 -25.5 14.5 q-11.5 9 -18.5 21 q-8 15 -17.5 31 q-9.5 16 -19.5 32 q-10 16 -20.5 32 q-10.5 16 -21.5 32 q-9 14 -10.5 25 q-1.5 11 -1.5 16 ZM100 387 q-4 11 -3 25.5 q1 14.5 4 30 q3 15.5 8 31.5 q2 9 4 17 q-1 1 0 2 l0 1 q1 1 1 2 q0 1 1 4 l1 3 q0 2 1 5 q2 10 5.5 30 q3.5 20 7 46.5 q3.5 26.5 7 59 q3.5 32.5 5.5 66.5 q1 16 9 30 q8 14 20 24 q7 6 15 10 q9 10 24 16 q15 7 33 7 q71 2 142.5 6 q71.5 4 140.5 10 q69 6 133.5 13.5 q64.5 7.5 121.5 16.5 q4 1 9 1 q15 0 35 -9.5 q20 -9.5 29 -26.5 l3 -5 q8 -16 8 -32.5 q0 -16.5 -6.5 -30.5 q-6.5 -14 -19.5 -23.5 q-13 -9.5 -31 -12.5 q-65 -10 -135 -17 q-70 -7 -141.5 -11.5 q-71.5 -4.5 -143.5 -7.5 q-50 -2 -100 -3 q-5 -60 -17 -119 q-7 -38 -15 -72 l191 0 l0 87 q0 13 6 26 q6 13 16.5 23 q10.5 10 23.5 16 q13 6 26 6 l7 0 q14 0 26.5 -6 q12.5 -6 23 -16.5 q10.5 -10.5 16.5 -23 q6 -12.5 6 -26.5 l0 -86 l258 0 q14 0 27 -6 q13 -6 23.5 -16.5 q10.5 -10.5 16.5 -23.5 q6 -13 6 -27 l-1 -2 q0 -13 -6 -26 q-6 -13 -16 -23 q-10 -10 -22.5 -16 q-12.5 -6 -26.5 -6 l-259 0 l0 -253 q0 -57 -13 -89 q-13 -32 -48 -49 q-27 -13 -60.5 -18.5 q-33.5 -5.5 -75.5 -7.5 q-1 0 -2 0 q-22 0 -44 17.5 q-22 17.5 -28 38.5 q-4 13 -4 24 q0 21 17 44 q17 23 58 23 l25 0 q14 0 19 4 q5 4 5 16 l0 250 l-195 0 q-24 0 -46.5 4.5 q-22.5 4.5 -40.5 13.5 l-10 6 q-6 0 -12 1 q-15 2 -26.5 11 q-11.5 9 -16.5 23 ZM68 64 q0 14 5 28.5 q5 14.5 16 27.5 q23 26 45 55.5 q22 29.5 41 58.5 q13 19 34.5 27.5 q21.5 8.5 35.5 8.5 q9 0 18 -3 l2 -1 q15 -5 26 -16.5 q11 -11.5 16.5 -25.5 q5.5 -14 4 -29.5 q-1.5 -15.5 -10.5 -29.5 q-26 -39 -53.5 -76.5 q-27.5 -37.5 -54.5 -70.5 q-9 -10 -21.5 -16.5 q-12.5 -6.5 -26.5 -8 q-14 -1.5 -27 1.5 q-13 3 -23 10 q-13 10 -20 25.5 q-7 15.5 -7 33.5 Z" /><glyph glyph-name="uni4E58" unicode="&#x4e58;" d="M67 570.5 q-6 11.5 -6 23.5 q0 12 6 24 q6 12 16.5 21 q10.5 9 23.5 14.5 q13 5.5 26 5.5 l291 0 l0 12 q0 11 4 21 l-68 -2 q-72 -3 -141 -4 q-2 0 -3 0 q-24 0 -46.5 15.5 q-22.5 15.5 -27.5 34.5 q-2 6 -2 13 q0 20 20 39.5 q20 19.5 57 21.5 q71 2 143 6 q72 4 141 9.5 q69 5.5 134 12 q65 6.5 123 14.5 q3 0 6 0 q17 0 37.5 -10 q20.5 -10 28.5 -27 q7 -13 7 -27 q0 -18 -8 -32.5 q-8 -14.5 -21 -23.5 q-13 -9 -30 -11 q-65 -8 -134 -14 l-74 -6 q1 -2 2 -3 q6 -13 6 -27 l0 -12 l289 0 q14 0 26.5 -5.5 q12.5 -5.5 23 -14.5 q10.5 -9 16.5 -21 q6 -12 6 -24 q0 -12 -6 -23.5 q-6 -11.5 -16.5 -21 q-10.5 -9.5 -23 -15 q-12.5 -5.5 -26.5 -5.5 l-289 0 l0 -223 q9 -7 15 -15 q18 -24 39 -46 l0 2 q-5 28 -5 70 l0 125 q0 14 5.5 26.5 q5.5 12.5 15 23 q9.5 10.5 21.5 16.5 q12 6 24 6 q12 0 24 -6 q12 -6 21.5 -16.5 q9.5 -10.5 15.5 -22.5 q4 -11 5 -22 q7 3 13 6 q10 4 21 9 q14 6 31 6 q8 0 25.5 -2.5 q17.5 -2.5 29.5 -18.5 q9 -12 10.5 -26 q1.5 -14 -4 -27 q-5.5 -13 -17.5 -24 q-12 -11 -29 -16 q-15 -5 -30 -8.5 q-15 -3.5 -30 -7.5 q-10 -3 -20 -3 l0 -17 q0 -21 3.5 -26 q3.5 -5 17.5 -5 l42 0 q11 0 21.5 4.5 q10.5 4.5 22 9 q11.5 4.5 24 6.5 q12.5 2 26.5 -3 q8 -3 15.5 -11.5 q7.5 -8.5 11.5 -19.5 q4 -11 4.5 -23.5 q0.5 -12.5 -4.5 -24.5 q-7 -16 -14.5 -27 q-7.5 -11 -18.5 -17.5 q-11 -6.5 -28 -9.5 q-17 -3 -45 -3 l-80 0 q-20 0 -36 2 q32 -23 68 -43 q40 -22 84 -40 q38 -15 46.5 -37 q8.5 -22 8.5 -34 q0 -20 -14 -40 q-12 -17 -31.5 -23.5 q-19.5 -6.5 -30.5 -6.5 q-12 0 -22 5 q-53 22 -100.5 51 q-47.5 29 -88.5 65 q-33 28 -63 59 l0 -148 q0 -14 -6 -26.5 q-6 -12.5 -16.5 -23 q-10.5 -10.5 -23 -16.5 q-12.5 -6 -26.5 -6 l-10 0 q-13 0 -26 6 q-13 6 -23.5 16.5 q-10.5 10.5 -16.5 23 q-6 12.5 -6 26.5 l0 149 q-31 -32 -66 -60 q-43 -35 -91.5 -64 q-48.5 -29 -101.5 -51 q-10 -4 -21 -4 q-11 0 -30.5 6 q-19.5 6 -30.5 22 q-15 20 -15 42 q0 11 8 33 q8 22 46 37 q45 18 85.5 40 q40.5 22 77.5 49 q2 1 4 3 q-5 1 -9 3 q-12 6 -21 17 q-5 4 -8 9 l-42 -6 q-29 -4 -57 -8 q-6 -1 -11 -1 q-20 0 -42 13 q-22 13 -26 34 q-2 12 2.5 23.5 q4.5 11.5 14 21.5 q9.5 10 23 16.5 q13.5 6.5 28.5 7.5 q26 2 53 5 q20 2 43 4 l0 35 l-72 0 q-27 0 -49.5 17.5 q-22.5 17.5 -22.5 38.5 q0 10 6 20 q6 10 16.5 17.5 q10.5 7.5 23.5 12.5 q13 5 26 5 l78 0 q6 12 16 23 q9 10 21 16 q12 6 25 6 q12 0 24 -6 q12 -6 21.5 -16.5 q9.5 -10.5 15.5 -23.5 q6 -13 6 -27 l0 -185 q19 21 36 42 q7 9 16 15 l0 220 l-291 0 q-13 0 -26 5.5 q-13 5.5 -23.5 15 q-10.5 9.5 -16.5 21 Z" /><glyph glyph-name="uni4E5D" unicode="&#x4e5d;" d="M65 6 q0 7 3.5 28 q3.5 21 34.5 44 q75 58 115.5 131 q40.5 73 59.5 160 q10 48 16 100 l-153 0 q-13 0 -26 6 q-13 6 -23.5 16 q-10.5 10 -16.5 23 q-6 13 -6 26 l0 5 q0 13 6 26 q6 13 16.5 23 q10.5 10 23.5 16 q13 6 26 6 l161 0 q2 73 2 153 q0 13 6 26 q6 13 16.5 23 q10.5 10 23.5 16 q13 6 27 6 l15 0 q14 0 26.5 -6.5 q12.5 -6.5 22.5 -16.5 q10 -10 16 -23 q6 -13 6 -27 q-1 -77 -3 -151 l225 0 q13 0 26 -6 q13 -6 23 -16 q10 -10 16 -23 q6 -13 6 -26 l0 -432 q0 -35 3.5 -44 q3.5 -9 20.5 -9 l47 0 q5 0 9 2 q4 2 7 6.5 q3 4.5 5 13 q2 8.5 4 20.5 q5 43 26.5 58.5 q21.5 15.5 39.5 15.5 q13 0 28 -6 q17 -7 30 -28 q13 -21 13 -40 q0 -4 -1 -8 q-6 -48 -15.5 -81.5 q-9.5 -33.5 -25.5 -54.5 q-16 -21 -41 -30 q-25 -9 -63 -9 l-92 0 q-41 0 -69 9 q-28 9 -45.5 31.5 q-17.5 22.5 -25 59.5 q-7.5 37 -7.5 94 l0 356 l-154 0 q-2 -15 -3 -30 q-10 -77 -28.5 -147 q-18.5 -70 -49.5 -132.5 q-31 -62.5 -77 -117.5 q-46 -55 -111 -100 q-11 -8 -25 -10 q-14 -2 -27.5 0.5 q-13.5 2.5 -25.5 9 q-12 6.5 -20 15.5 q-18 22 -18 49 Z" /><glyph glyph-name="uni4E5F" unicode="&#x4e5f;" d="M38 401 q-3 12 -1 26 q2 14 9 26 q7 12 17 21.5 q10 9.5 23 13.5 l99 31 l0 192 q0 14 6 27 q6 13 16 23.5 q10 10.5 23 16.5 q13 6 26 6 q14 0 26.5 -6 q12.5 -6 22.5 -16.5 q10 -10.5 16 -23 q6 -12.5 6 -26.5 l0 -148 l126 40 l0 176 q0 14 6 27 q6 13 16.5 23.5 q10.5 10.5 23.5 16.5 q13 6 26 6 q14 0 26.5 -6 q12.5 -6 23 -16.5 q10.5 -10.5 16.5 -23.5 q6 -13 6 -27 l0 -130 l130 41 q9 3 18 3 l22 15 l1 1 q10 7 28 8.5 q18 1.5 30 -3.5 l17 -8 q21 -8 36.5 -21.5 q15.5 -13.5 13.5 -21.5 q0 -2 -0.5 -5.5 q-0.5 -3.5 -0.5 -6.5 q-2 -140 -7 -226 q-5 -86 -19.5 -129 q-14.5 -43 -35 -64.5 q-20.5 -21.5 -49.5 -31.5 q-14 -5 -31 -7.5 q-17 -2.5 -35 -4.5 q-3 0 -5 0 q-21 0 -42 14.5 q-21 14.5 -25 32.5 q-2 10 -2 20 q0 20 12 40.5 q12 20.5 41 20.5 q14 0 24 8 q10 8 18 33 q8 31 11 111 q1 37 2 88 l-152 -49 l0 -298 q0 -14 -6 -27 q-6 -13 -16.5 -23.5 q-10.5 -10.5 -23 -16.5 q-12.5 -6 -26.5 -6 q-13 0 -26 6 q-13 6 -23.5 16.5 q-10.5 10.5 -16.5 23.5 q-6 13 -6 27 l0 251 l-126 -41 l0 -281 q0 -28 3.5 -44.5 q3.5 -16.5 14.5 -25.5 q11 -9 33 -11.5 q22 -2.5 58 -2.5 l277 0 q21 0 36.5 2 q15.5 2 27 7 q11.5 5 20 14 q8.5 9 14.5 23 q16 35 37.5 51 q21.5 16 41.5 16 q11 0 22 -4 q20 -8 32.5 -29.5 q12.5 -21.5 12.5 -39.5 q0 -6 -1 -13 q-10 -44 -23 -74 q-13 -30 -37.5 -48.5 q-24.5 -18.5 -64.5 -26.5 q-40 -8 -104 -8 l-294 0 q-72 0 -120 9.5 q-48 9.5 -76.5 34 q-28.5 24.5 -40 66 q-11.5 41.5 -11.5 105.5 l0 234 l-57 -18 q-13 -4 -27.5 -2 q-14.5 2 -27 8 q-12.5 6 -22 16.5 q-9.5 10.5 -13.5 22.5 Z" /><glyph glyph-name="uni4E60" unicode="&#x4e60;" d="M256.5 509.5 q-6.5 13.5 -7.5 28.5 q-1 15 3.5 29 q4.5 14 14.5 24 q16 15 31.5 16 q15.5 1 19.5 1 q24 0 40 -12 q17 -12 34.5 -25 q17.5 -13 35 -25.5 q17.5 -12.5 34.5 -25.5 q17 -13 33 -25 q11 -9 17 -22 q6 -13 7 -27 q1 -14 -3.5 -27.5 q-4.5 -13.5 -13.5 -23.5 l-2 -2 q-10 -10 -24 -15.5 q-14 -5.5 -29 -6 q-15 -0.5 -29 4 q-14 4.5 -25 13.5 q-13 12 -27.5 24 q-14.5 12 -29.5 24 q-15 12 -30.5 24.5 q-15.5 12.5 -30.5 24.5 q-12 10 -18.5 23.5 ZM106 100 q-4 13 -2.5 27.5 q1.5 14.5 8.5 27.5 q7 13 18 23 q11 10 24 14 q46 14 98.5 31 q52.5 17 108.5 36 q56 19 114 39 q58 20 116 41 q15 5 30 3.5 q15 -1.5 28.5 -8.5 q13.5 -7 23 -18.5 q9.5 -11.5 12.5 -25.5 q1 -5 1 -10 q0 -17 -12.5 -38.5 q-12.5 -21.5 -33.5 -29.5 q-56 -21 -113 -42.5 q-57 -21.5 -113 -42 q-56 -20.5 -109.5 -40 q-53.5 -19.5 -103.5 -37.5 q-13 -5 -27.5 -3.5 q-14.5 1.5 -28 7.5 q-13.5 6 -23.5 16.5 q-10 10.5 -14 23.5 l-2 6 ZM105 708.5 q-6 12.5 -6 25.5 q0 13 6 25.5 q6 12.5 16.5 22.5 q10.5 10 23.5 16 q13 6 26 6 l674 0 q14 0 26.5 -6 q12.5 -6 23 -16 q10.5 -10 16.5 -22 l0 -1 q6 -11 6 -22 l0 -12 q-2 -185 -5.5 -312.5 q-3.5 -127.5 -9.5 -211.5 q-6 -84 -16 -131 q-10 -47 -26 -70 q-26 -38 -53 -54 q-27 -16 -64 -22 q-26 -4 -59.5 -5 q-33.5 -1 -68.5 -1 q-26 1 -49 18 q-23 17 -29 37 q-3 11 -3 21 q0 21 17 40 q17 19 58 19 q2 0 4 0 l64 0 q17 0 27 4 q10 4 18 14 q14 14 22.5 62.5 q8.5 48.5 13 135 q4.5 86.5 7.5 212.5 q1 82 2 183 l-596 0 q-13 0 -26 6 q-13 6 -23.5 16 q-10.5 10 -16.5 22.5 Z" /><glyph glyph-name="uni4E66" unicode="&#x4e66;" d="M517 422 l158 0 l0 122 q0 3 -2 5 q-2 2 -5 2 l-151 0 l0 -129 ZM61 328.5 q-6 12.5 -6 25.5 q0 13 6 25 q6 12 16 21.5 q10 9.5 23 15.5 q13 6 26 6 l241 0 l0 129 l-193 0 q-13 0 -26 6 q-13 6 -23.5 16 q-10.5 10 -16.5 22.5 q-6 12.5 -6 25.5 q0 13 6 25.5 q6 12.5 16.5 22.5 q10.5 10 23.5 16 q13 6 26 6 l193 0 l0 89 q0 14 6 26.5 q6 12.5 16.5 23 q10.5 10.5 23.5 16.5 q13 6 27 6 l4 0 q14 0 27 -6 q13 -6 23.5 -16.5 q10.5 -10.5 16.5 -23 q6 -12.5 6 -26.5 l0 -89 l232 0 q4 0 8 -1 q-9 7 -19 13 q-13 8 -21 21 q-8 13 -11 27.5 q-3 14.5 0 28.5 q3 14 12 24 q13 16 29.5 18.5 q16.5 2.5 22.5 2.5 q18 0 32 -8 q27 -16 55.5 -32.5 q28.5 -16.5 54.5 -33.5 q11 -7 18 -19 q7 -12 9 -25.5 q2 -13.5 -1 -27 q-3 -13.5 -11 -24.5 q-8 -10 -21 -16 q-13 -6 -28 -7 q-15 -1 -29.5 2.5 q-14.5 3.5 -26.5 11.5 l-12 8 q3 -4 5 -8 q6 -13 6 -27 l0 -197 l75 0 q13 0 26 -6 q13 -6 23 -15 q2 -2 3 -4 q5 -4 9 -8 q5 -7 6 -14 q4 -10 4 -21 q0 -13 -6 -25 q0 -1 -1 -2 q-4 -54 -9 -96 q-6 -55 -14.5 -94 q-8.5 -39 -18.5 -63.5 q-10 -24.5 -23 -38.5 q-23 -26 -50 -35.5 q-27 -9.5 -62 -12.5 q-18 -2 -42.5 -2.5 q-24.5 -0.5 -53.5 -1.5 q-25 0 -48 16.5 q-23 16.5 -28 35.5 q-3 11 -3 21 q0 22 18 41.5 q18 19.5 60 19.5 q2 0 4 0 l34 0 q15 0 25.5 1.5 q10.5 1.5 20.5 9.5 q9 8 16 27.5 q7 19.5 13 52.5 q5 31 9 77 l-291 0 l0 -302 q0 -14 -6 -26.5 q-6 -12.5 -16.5 -23 q-10.5 -10.5 -23.5 -16.5 q-13 -6 -27 -6 l-4 0 q-14 0 -27 6 q-13 6 -23.5 16.5 q-10.5 10.5 -16.5 23 q-6 12.5 -6 26.5 l0 302 l-241 0 q-13 0 -26 6 q-13 6 -23 15.5 q-10 9.5 -16 22 Z" /><glyph glyph-name="uni4E70" unicode="&#x4e70;" d="M555 83 q-5 14 -4.5 28.5 q0.5 14.5 9.5 27.5 q11 14 28.5 19.5 q17.5 5.5 28.5 5.5 q10 0 19 -4 q65 -23 128 -50 q63 -27 116 -53 q14 -7 23 -19.5 q9 -12.5 12 -27 q3 -14.5 0 -30 q-3 -15.5 -13 -27.5 q-15 -18 -34 -21 q-19 -3 -27 -3 q-19 0 -34 8 q-44 25 -98 51.5 q-54 26.5 -111 50.5 q-15 6 -26.5 18 q-11.5 12 -16.5 26 ZM228.5 568.5 q-4.5 14.5 -2 29 q2.5 14.5 11.5 25.5 q11 14 27.5 17.5 q16.5 3.5 24.5 3.5 q13 0 24 -5 q23 -11 46.5 -22.5 q23.5 -11.5 46.5 -22.5 q13 -7 21 -18.5 q8 -11.5 11 -25 q3 -13.5 0.5 -27 q-2.5 -13.5 -10.5 -24.5 q-7 -10 -19.5 -15.5 q-12.5 -5.5 -26.5 -7 q-14 -1.5 -28 1 q-14 2.5 -26 9.5 q-14 8 -29.5 17 q-15.5 9 -31.5 17 q-15 8 -25 20.5 q-10 12.5 -14.5 27 ZM112.5 432 q-4.5 14 -2 28.5 q2.5 14.5 11.5 25.5 q11 14 27 17 q16 3 24 3 q14 0 24 -5 q18 -8 36.5 -17 q18.5 -9 36.5 -18 q13 -6 21 -17.5 q8 -11.5 11.5 -25 q3.5 -13.5 1.5 -27 q-2 -13.5 -10 -23.5 q-8 -10 -20.5 -15.5 q-12.5 -5.5 -26.5 -7.5 q-14 -2 -28 0.5 q-14 2.5 -25 9.5 q-11 6 -21.5 12 q-10.5 6 -21.5 12 q-15 8 -24.5 21 q-9.5 13 -14 27 ZM101 715 q-6 12 -6 25 q0 13 6 25 q6 12 16.5 21.5 q10.5 9.5 23.5 15.5 q13 6 26 6 l613 0 q14 0 27 -6 q2 -1 5 -3 l4 4 q6 5 14 5 q2 0 5.5 0.5 q3.5 0.5 5.5 1.5 q6 2 16.5 2 q10.5 0 15.5 -2 l25 -9 q13 -5 23 -16 q10 -11 15.5 -24.5 q5.5 -13.5 5.5 -28.5 q0 -15 -6 -27 q-20 -39 -41.5 -76.5 q-21.5 -37.5 -43.5 -70.5 q-12 -18 -30.5 -23 q-18.5 -5 -28.5 -5 q-13 0 -23 5 q-13 6 -21.5 18 q-8.5 12 -12.5 26.5 q-4 14.5 -2 30.5 q2 16 9 29 q9 16 18 33 l-593 0 q-13 0 -26 6 q-13 6 -23.5 15.5 q-10.5 9.5 -16.5 21.5 ZM58 275 q0 12 6 24 q6 12 16 21.5 q10 9.5 23 15 q13 5.5 26 5.5 l331 0 q11 50 16 109 q4 60 6 129 q0 13 6.5 25.5 q6.5 12.5 17 22.5 q10.5 10 23.5 16 q13 6 26 6 l1 0 q14 0 27 -6.5 q13 -6.5 23 -17 q10 -10.5 16 -23.5 q6 -13 5 -27 q-5 -126 -20 -229 q-1 -3 -1 -5 l273 0 q13 0 26 -5.5 q13 -5.5 23 -15 q10 -9.5 16 -21.5 q6 -12 6 -24 q0 -13 -6 -25 q-6 -12 -16 -21.5 q-10 -9.5 -23 -15 q-13 -5.5 -26 -5.5 l-312 0 q-10 -24 -23 -46 q-48 -82 -138 -142.5 q-90 -60.5 -243 -99.5 q-8 -2 -17 -2 q-15 0 -36 9 q-21 9 -31 26 q-9 15 -9 29 q0 14 12.5 35.5 q12.5 21.5 52.5 32.5 q80 22 136 50.5 q56 28.5 94 64.5 q22 20 39 43 l-275 0 q-13 0 -26 5.5 q-13 5.5 -23 15 q-10 9.5 -16 21.5 q-6 12 -6 25 Z" /><glyph glyph-name="uni4E71" unicode="&#x4e71;" d="M583 110 l0 654 q0 14 6 26.5 q6 12.5 16.5 23 q10.5 10.5 23.5 16.5 q13 6 26 6 q14 0 26.5 -6 q12.5 -6 23 -16.5 q10.5 -10.5 16.5 -23 q6 -12.5 6 -26.5 l0 -655 q0 -41 4.5 -51.5 q4.5 -10.5 22.5 -10.5 l58 0 q6 0 11 3.5 q5 3.5 8.5 11.5 q3.5 8 6 21.5 q2.5 13.5 4.5 32.5 q4 43 25 58.5 q21 15.5 39 15.5 q13 0 26 -6 q17 -8 29.5 -29 q12.5 -21 12.5 -41 q0 -3 0 -6 q-6 -52 -15 -89.5 q-9 -37.5 -25 -61.5 q-16 -24 -41.5 -35 q-25.5 -11 -65.5 -11 l-98 0 q-42 0 -70.5 9.5 q-28.5 9.5 -45 32.5 q-16.5 23 -23.5 61.5 q-7 38.5 -7 95.5 ZM200 82 l197 0 l0 124 q0 2 -2 4 q-2 2 -4 2 l-185 0 q-2 0 -4 -2 q-2 -2 -2 -5 l0 -123 ZM30 492 q-6 12 -6 24 q0 12 6 23.5 q6 11.5 16 20.5 q10 9 23 14.5 q13 5.5 26 5.5 l133 0 l0 98 l-8 0 q-40 -5 -79 -9 q-3 0 -7 0 q-21 0 -43 11.5 q-22 11.5 -27 28.5 q-2 7 -2 15 q0 18 17.5 39.5 q17.5 21.5 54.5 26.5 q38 5 74.5 11 q36.5 6 71.5 12.5 q35 6.5 67.5 14 q32.5 7.5 61.5 15.5 q7 2 15 2 q10 0 26 -4.5 q16 -4.5 27 -16.5 l6 -6 q13 -14 17 -30 q4 -16 0 -30.5 q-4 -14.5 -16 -25.5 q-12 -11 -31 -16 q-37 -8 -76 -15 l-8 -2 q1 -6 1 -13 l0 -106 l119 0 q13 0 26 -5.5 q13 -5.5 23 -14.5 q10 -9 16 -20.5 q6 -11.5 6 -23.5 q0 -12 -6 -24 q-6 -12 -16 -21 q-10 -9 -23 -14.5 q-13 -5.5 -26 -5.5 l-119 0 l0 -112 l97 0 q14 0 26.5 -6 q12.5 -6 23 -16.5 q10.5 -10.5 16.5 -23 q6 -12.5 6 -26.5 l0 -254 q0 -14 -6 -26.5 q-6 -12.5 -16 -23 q-10 -10.5 -22.5 -16.5 q-12.5 -6 -26.5 -6 q-13 0 -26 6 q-10 5 -18 12 q-11 -4 -22 -4 l-203 0 q-8 0 -16 2 q-2 -3 -4 -5 q-10 -11 -22 -17 q-12 -6 -24 -6 q-13 0 -25 6 q-12 6 -21.5 16.5 q-9.5 10.5 -15.5 23 q-6 12.5 -6 26.5 l0 266 q0 14 6 26.5 q6 12.5 16.5 23 q10.5 10.5 23.5 16.5 q13 6 26 6 l91 0 l0 112 l-133 0 q-13 0 -26 5.5 q-13 5.5 -23 14.5 q-10 9 -16 21 Z" /><glyph glyph-name="uni4E86" unicode="&#x4e86;" d="M92 718 q0 14 6 26.5 q6 12.5 16.5 23 q10.5 10.5 23.5 16.5 q13 6 26 6 l541 0 q14 0 27 -6 l10 -6 l3 3 q11 9 25 9 q2 0 5.5 0.5 q3.5 0.5 5.5 1.5 l2 0 q10 2 24.5 -1 q14.5 -3 22.5 -9 l31 -23 q12 -9 18.5 -22.5 q6.5 -13.5 7.5 -28.5 q1 -15 -3 -29 q-4 -14 -15 -24 q-31 -31 -66 -61.5 q-35 -30.5 -71.5 -59.5 q-36.5 -29 -74.5 -56 q-37 -26 -74 -50 l0 -363 q0 -59 -16 -90.5 q-16 -31.5 -58 -47.5 q-33 -13 -74 -18 q-41 -5 -92 -6 q-22 0 -44 16 q-22 16 -29 36 q-5 15 -5 28 q0 20 15.5 42 q15.5 22 55.5 22 q1 0 3 0 l60 0 q17 0 23.5 4.5 q6.5 4.5 6.5 17.5 l0 359 q0 14 6 26.5 q6 12.5 17 23.5 q10 10 23 16 l0 3 q3 15 12 29.5 q9 14.5 24 24.5 q34 24 67 50 q29 22 54 45 l-468 0 q-13 0 -26 6 q-13 6 -23.5 16.5 q-10.5 10.5 -16.5 23.5 q-6 13 -6 26 Z" /><glyph glyph-name="uni4E88" unicode="&#x4e88;" d="M49 374 q-6 12 -6 25 q0 13 6 25.5 q6 12.5 16.5 22 q10.5 9.5 23.5 15.5 q13 6 26 6 l338 0 l-29 11 q-29 11 -58 21 q-15 6 -26 17 q-11 11 -16.5 25.5 q-5.5 14.5 -4.5 29.5 q1 15 10 28 q10 15 29 21 q19 6 31 6 q8 0 15 -2 q28 -9 59 -19 q26 -8 52 -17 q4 9 9 17 q9 14 23 24 q22 17 43 34 l1 1 l-377 0 q-13 0 -26 5.5 q-13 5.5 -23.5 15 q-10.5 9.5 -16.5 21.5 q-6 12 -6 25 q0 12 6 24 q6 12 16.5 21.5 q10.5 9.5 23.5 15 q13 5.5 26 5.5 l460 0 q14 0 27 -5 l2 -2 q10 7 22 7 q2 0 5.5 0.5 q3.5 0.5 5.5 1.5 q11 2 25.5 -1 q14.5 -3 22.5 -10 l20 -15 q12 -10 18 -24 q6 -14 7 -29 q1 -15 -4.5 -29 q-5.5 -14 -16.5 -24 q-22 -20 -45.5 -40 q-23.5 -20 -48.5 -39.5 q-25 -19.5 -50 -37.5 q-6 -4 -12 -9 q10 -5 19 -13 q10 -12 15 -26.5 q5 -14.5 4 -29.5 q-1 -3 -1 -5 l88 0 q14 0 27 -6 q1 -1 2 -1 l2 2 q7 5 15 5 q2 0 5.5 0.5 q3.5 0.5 5.5 2.5 q8 2 19 2 q11 0 19 -3 l35 -15 q12 -5 22 -15.5 q10 -10.5 15 -23.5 q5 -13 6 -27 q1 -14 -5 -26 q-20 -42 -42 -82 q-22 -40 -45 -75 q-6 -10 -17.5 -16.5 q-11.5 -6.5 -24 -9 q-12.5 -2.5 -25.5 -1 q-13 1.5 -24 7.5 l-4 2 q-12 7 -20.5 19.5 q-8.5 12.5 -12 27 q-3.5 14.5 -2.5 29.5 q1 15 8 28 q10 18 19 37 l-190 0 q7 -9 12 -19 q6 -13 6 -27 l0 -228 q0 -54 -14.5 -84 q-14.5 -30 -55.5 -45 q-30 -11 -67 -15.5 q-37 -4.5 -81 -5.5 q-1 0 -3 0 q-22 0 -42.5 15 q-20.5 15 -27.5 34 q-4 13 -4 25 q0 20 16 41 q16 21 55 21 q1 0 3 0 l43 0 q15 1 20.5 4.5 q5.5 3.5 5.5 14.5 l0 224 q0 14 6 27 q5 9 12 18 l-334 0 q-13 0 -26 6 q-13 6 -23.5 16 q-10.5 10 -16.5 22 Z" /><glyph glyph-name="uni4E89" unicode="&#x4e89;" d="M569 242 l135 0 l0 52 l-135 0 l0 -52 ZM566 474 q3 -9 3 -19 l0 -30 l135 0 l0 43 q0 2 -2 4 q-2 2 -4 2 l-132 0 ZM280 600 l253 0 q1 7 4 14 q6 15 17 28 q3 4 6 7 l-150 0 q-21 0 -36 8 q-15 8 -21 21 q-22 -26 -45 -50 q-13 -14 -28 -28 ZM34 336 q-6 12 -6 24 q0 12 6 23.5 q6 11.5 16.5 21 q10.5 9.5 23.5 15 q13 5.5 26 5.5 l320 0 l0 31 q0 9 3 18 l-163 0 q-14 0 -27 5.5 q-13 5.5 -23.5 14.5 q-10.5 9 -16.5 20 l-4 8 q-18 -14 -43 -14 q-3 0 -19 1 q-16 1 -32 17 q-18 19 -18 44 q0 7 4 27.5 q4 20.5 36 45.5 q52 38 91 81 q39 43 68 86 q11 16 31 25.5 q20 9.5 35 9.5 q5 0 10 -1 l11 -2 q18 -3 30.5 -13.5 q12.5 -10.5 18.5 -24.5 q6 -14 5 -30 l-1 -1 l162 0 q14 0 27 -5 q11 -6 21 -13 q2 5 8 11 q9 7 20 7 q2 0 5.5 0.5 q3.5 0.5 5.5 0.5 q7 2 19.5 -1 q12.5 -3 20.5 -9 l21 -14 q11 -8 18 -21 q7 -13 9 -27 q2 -14 -1 -28 q-3 -14 -12 -25 q-22 -24 -45 -49 l79 0 q14 0 26.5 -6 q12.5 -6 23 -16.5 q10.5 -10.5 16.5 -23.5 q6 -13 6 -27 l0 -102 l56 0 q14 0 26.5 -5.5 q12.5 -5.5 23 -15 q10.5 -9.5 16.5 -21 q6 -11.5 6 -23.5 q0 -12 -6 -24 q-6 -12 -16.5 -21.5 q-10.5 -9.5 -23 -15 q-12.5 -5.5 -26.5 -5.5 l-56 0 l0 -110 q0 -14 -6 -27 q-6 -13 -16 -23.5 q-10 -10.5 -22.5 -16.5 q-12.5 -6 -26.5 -6 q-13 0 -26 6 q-1 1 -2 1 q-2 -1 -3 -1 q-13 -6 -27 -6 l-148 0 l0 -55 q0 -54 -13 -83.5 q-13 -29.5 -50 -45.5 q-27 -12 -60.5 -16.5 q-33.5 -4.5 -74.5 -6.5 q-1 0 -3 0 q-22 0 -43 15.5 q-21 15.5 -27 33.5 q-4 13 -4 24 q0 20 17 41 q17 21 59 21 l25 0 q14 1 19.5 5 q5.5 4 5.5 15 l0 52 l-198 0 q-14 0 -27 5.5 q-13 5.5 -23.5 15 q-10.5 9.5 -16.5 21.5 q-6 12 -6 24 q0 12 6 23.5 q6 11.5 16.5 21 q10.5 9.5 23.5 15 q13 5.5 27 5.5 l198 0 l0 52 l-320 0 q-13 0 -26 5.5 q-13 5.5 -23.5 15 q-10.5 9.5 -16.5 21.5 Z" /><glyph glyph-name="uni4E8B" unicode="&#x4e8b;" d="M570 532 l121 0 q2 0 4 2 q2 2 2 4 l0 22 q0 2 -2 4 q-2 2 -4 2 l-121 0 l0 -34 ZM570 290 l146 0 l0 21 q0 2 -2 4 q-2 2 -5 2 l-139 0 l0 -27 ZM570 151 l146 0 l0 30 l-146 0 l0 -30 ZM297 538 q0 -2 2 -4 q2 -2 4 -2 l119 0 l0 34 l-119 0 q-2 0 -4 -2 q-2 -2 -2 -4 l0 -22 ZM32 236 q0 20 22.5 37 q22.5 17 48.5 17 l319 0 l0 27 l-213 0 q-28 0 -50.5 15 q-22.5 15 -22.5 33 q0 18 22.5 33 q22.5 15 48.5 15 l215 0 l0 30 l-191 0 q-14 0 -27 6 q-13 6 -23.5 16.5 q-10.5 10.5 -16.5 23.5 q-6 13 -6 27 l0 66 q0 14 6 27 q6 13 16.5 23.5 q10.5 10.5 23.5 16.5 q13 6 27 6 l191 0 l0 30 l-292 0 q-28 0 -50.5 17.5 q-22.5 17.5 -22.5 39.5 q0 21 22.5 38.5 q22.5 17.5 50.5 17.5 l294 0 q1 6 4 12 q6 12 16.5 22.5 q10.5 10.5 23.5 16.5 q13 6 26 6 l4 0 q14 0 26.5 -6 q12.5 -6 23 -16.5 q10.5 -10.5 16.5 -22.5 q3 -6 4 -12 l303 0 q28 0 50.5 -17.5 q22.5 -17.5 22.5 -38.5 q0 -22 -22.5 -39.5 q-22.5 -17.5 -50.5 -17.5 l-301 0 l0 -30 l203 0 q14 0 27 -6 q13 -6 23.5 -16.5 q10.5 -10.5 16.5 -23.5 q6 -13 6 -27 l0 -66 q0 -14 -6 -27 q-6 -13 -16.5 -23.5 q-10.5 -10.5 -23.5 -16.5 q-13 -6 -27 -6 l-203 0 l0 -30 l223 0 q13 0 26 -6 q13 -6 23 -16.5 q10 -10.5 16 -23.5 q6 -13 6 -27 l0 -50 l34 0 q26 0 48.5 -17 q22.5 -17 22.5 -37 q0 -21 -22.5 -38 q-22.5 -17 -48.5 -17 l-34 0 l0 -101 q0 -14 -6 -27 q-6 -13 -16.5 -23.5 q-10.5 -10.5 -23 -16.5 q-12.5 -6 -26.5 -6 l-4 0 q-13 0 -26 6 q-13 6 -23 17 q-9 8 -14 18 l-155 0 l0 -12 q0 -50 -13 -74.5 q-13 -24.5 -45 -39.5 q-25 -11 -55 -14.5 q-30 -3.5 -72 -4.5 q-2 0 -3 0 l-30 11 q-30 12 -35 26 q-4 10 -4 18 q0 18 19 36 q19 18 62 18 l3 0 q14 1 19.5 6 q5.5 5 5.5 18 l0 12 l-220 0 q-28 0 -50.5 16 q-22.5 16 -22.5 36 q0 19 22.5 35 q22.5 16 50.5 16 l220 0 l0 30 l-319 0 q-26 0 -48.5 17 q-22.5 17 -22.5 38 Z" /><glyph glyph-name="uni4E8C" unicode="&#x4e8c;" d="M136 632 l0 15 q0 14 6 27 q6 13 16 23.5 q10 10.5 23 16.5 q13 6 26 6 l588 0 q13 0 26 -6 q13 -6 23 -16.5 q10 -10.5 16 -23.5 q6 -13 6 -27 l0 -15 q0 -14 -6 -27 q-6 -13 -16 -23.5 q-10 -10.5 -23 -16.5 q-13 -6 -26 -6 l-588 0 q-13 0 -26 6 q-13 6 -23 16.5 q-10 10.5 -16 23.5 q-6 13 -6 27 ZM53 51 l0 24 q0 14 6 26.5 q6 12.5 16.5 23 q10.5 10.5 23.5 16.5 q13 6 26 6 l752 0 q14 0 26.5 -6 q12.5 -6 23 -16.5 q10.5 -10.5 16.5 -23 q6 -12.5 6 -26.5 l0 -24 q0 -13 -6 -26 q-6 -13 -16.5 -23.5 q-10.5 -10.5 -23 -16.5 q-12.5 -6 -26.5 -6 l-752 0 q-13 0 -26 6 q-13 6 -23.5 16.5 q-10.5 10.5 -16.5 23.5 q-6 13 -6 26 Z" /><glyph glyph-name="uni4E8E" unicode="&#x4e8e;" d="M48 401 q0 14 6 26.5 q6 12.5 16.5 23 q10.5 10.5 23.5 16.5 q13 6 26 6 l314 0 l0 178 l-247 0 q-13 0 -26 6 q-13 6 -23.5 16.5 q-10.5 10.5 -16.5 23.5 q-6 13 -6 26 q0 14 6 26.5 q6 12.5 16.5 23 q10.5 10.5 23.5 16.5 q13 6 26 6 l626 0 q14 0 26.5 -6 q12.5 -6 23 -16.5 q10.5 -10.5 16.5 -23 q6 -12.5 6 -26.5 q0 -13 -6 -26 q-6 -13 -16.5 -23.5 q-10.5 -10.5 -23 -16.5 q-12.5 -6 -26.5 -6 l-224 0 l0 -178 l292 0 q14 0 26.5 -6 q12.5 -6 23 -16.5 q10.5 -10.5 16.5 -23 q6 -12.5 6 -26.5 q0 -13 -6 -26 q-6 -13 -16.5 -23.5 q-10.5 -10.5 -23 -16.5 q-12.5 -6 -26.5 -6 l-292 0 l0 -245 q0 -63 -15.5 -96.5 q-15.5 -33.5 -56.5 -50.5 q-32 -14 -74 -19.5 q-42 -5.5 -96 -7.5 q-1 0 -2 0 q-21 0 -43 17 q-22 17 -30 37 q-5 15 -5 29 q0 21 15.5 44 q15.5 23 57.5 23 q21 -1 32.5 -1 q11.5 0 30.5 1 q17 0 24 5.5 q7 5.5 7 20.5 l0 243 l-314 0 q-13 0 -26 6 q-13 6 -23.5 16.5 q-10.5 10.5 -16.5 23.5 q-6 13 -6 26 Z" /><glyph glyph-name="uni4E91" unicode="&#x4e91;" d="M160 720 l0 4 q0 14 6 27 q6 13 16.5 23.5 q10.5 10.5 23.5 16.5 q13 6 26 6 l550 0 q14 0 26.5 -6 q12.5 -6 23 -16.5 q10.5 -10.5 16.5 -23.5 q6 -13 6 -27 l0 -4 q0 -14 -6 -27 q-6 -13 -16.5 -23.5 q-10.5 -10.5 -23 -16.5 q-12.5 -6 -26.5 -6 l-550 0 q-13 0 -26 6 q-13 6 -23.5 16.5 q-10.5 10.5 -16.5 23.5 q-6 13 -6 27 ZM140 145 l0 1 l2 2 l-2 -3 ZM43 439 l0 7 q0 14 6 26.5 q6 12.5 16 23 q10 10.5 23 16.5 q13 6 26 6 l772 0 q13 0 26 -6 q13 -6 23 -16.5 q10 -10.5 16 -23 q6 -12.5 6 -26.5 l0 -7 q0 -13 -6 -26 q-6 -13 -16 -23.5 q-10 -10.5 -23 -16.5 q-13 -6 -26 -6 l-388 0 q-2 -11 -9 -22 q-57 -91 -123 -172 q-21 -26 -41 -49 l339 17 q-16 25 -32 49 q-8 13 -10 28 q-2 15 2 30 q4 15 13 27 q9 12 22 19 l10 6 q12 6 27 6 q10 0 29 -4.5 q19 -4.5 32 -22.5 q21 -29 42 -59.5 q21 -30.5 41 -60.5 q20 -30 39 -59.5 q19 -29.5 35 -56.5 q6 -11 7.5 -25 q1.5 -14 -2 -27.5 q-3.5 -13.5 -11 -25 q-7.5 -11.5 -18.5 -17.5 l-16 -10 q-13 -8 -28 -9 q-15 -1 -30 3.5 q-15 4.5 -27.5 13.5 q-12.5 9 -20.5 23 q-11 19 -22 39 q-1 0 -2 -1 q-14 -8 -31 -9 q-105 -8 -184 -13.5 q-79 -5.5 -137.5 -10 q-58.5 -4.5 -99 -8 q-40.5 -3.5 -69.5 -7.5 q-6 -1 -11 -1 q-12 0 -26 4 q-14 4 -27 14 q-9 6 -16 15 q-13 4 -23 13 q-13 11 -19 28 q-5 13 -3 28.5 q2 15.5 8 31 q6 15.5 15.5 30 q9.5 14.5 20.5 25.5 l1 1 l1 1 q3 4 15 17 q11 11 29.5 35.5 q18.5 24.5 40.5 58 q22 33.5 46 74.5 q10 16 19 33 l-180 0 q-13 0 -26 6 q-13 6 -23 16.5 q-10 10.5 -16 23.5 q-6 13 -6 26 Z" /><glyph glyph-name="uni4E92" unicode="&#x4e92;" d="M362 312 l239 0 q12 0 24 -5 q3 23 7 45 q6 44 12 86 q-5 -1 -9 -1 l-244 0 l-4 -20 q-12 -51 -23 -99 l-2 -6 ZM43 -4 q0 13 6 25.5 q6 12.5 16.5 22.5 q10.5 10 23.5 16 q13 6 26 6 l490 0 q-6 10 -9 21 q-5 14 -2 29 q5 30 10 61 l-263 0 q-14 0 -27 6 q-4 2 -7 4 q-17 -10 -33 -10 l-17 0 q-18 0 -32.5 7.5 q-14.5 7.5 -24 20 q-9.5 12.5 -11.5 24 q-2 11.5 -2 18.5 q0 9 2 19 q12 44 24 91.5 q12 47.5 23.5 97 q11.5 49.5 22 99 q10.5 49.5 19.5 97.5 q4 19 19 34 l-152 0 q-14 0 -27 6 q-13 6 -23.5 16 q-10.5 10 -16.5 22.5 q-6 12.5 -6 25.5 q0 13 6 25.5 q6 12.5 16.5 22 q10.5 9.5 23.5 15.5 q13 6 27 6 l719 0 q14 0 27 -6 q13 -6 23.5 -15.5 q10.5 -9.5 16.5 -22 q6 -12.5 6 -25.5 q0 -13 -6 -25.5 q-6 -12.5 -16.5 -22.5 q-10.5 -10 -23.5 -16 q-13 -6 -27 -6 l-448 0 l2 -2 q9 -12 12 -24 q3 -12 3 -20 q0 -7 -1 -14 q-6 -26 -11 -53 l214 0 q13 0 25 -5 q0 1 2 2 q3 3 8 3 q2 0 5 0.5 q3 0.5 5 0.5 l13 3 q2 0 5.5 0.5 q3.5 0.5 5.5 -0.5 l35 -3 q14 -1 26 -9 q12 -8 21 -19 q9 -11 14 -24.5 q5 -13.5 3 -26.5 q-6 -48 -13 -98.5 q-7 -50.5 -14.5 -102 q-7.5 -51.5 -16 -103 q-8.5 -51.5 -16.5 -100.5 q-2 -12 -9 -23 l-1 -1 l161 0 q14 0 26.5 -6 q12.5 -6 23 -16 q10.5 -10 16.5 -22.5 q6 -12.5 6 -25.5 q0 -14 -6 -26.5 q-6 -12.5 -16.5 -22.5 q-10.5 -10 -23 -16 q-12.5 -6 -26.5 -6 l-779 0 q-13 0 -26 6 q-13 6 -23.5 16 q-10.5 10 -16.5 22.5 q-6 12.5 -6 26.5 Z" /><glyph glyph-name="uni4E94" unicode="&#x4e94;" d="M440 93 l170 0 l8 84 q5 52 9 102 q2 29 3 57 q-6 -1 -12 -1 l-134 0 q-1 -2 -1 -5 q-13 -75 -25 -144 q-9 -49 -18 -93 ZM52 21 q0 14 6 26.5 q6 12.5 16.5 23 q10.5 10.5 23.5 16.5 q13 6 26 6 l154 0 q13 59 25 125 q11 57 21 117 l-89 0 q-13 0 -26 6 q-13 6 -23.5 16.5 q-10.5 10.5 -16.5 23.5 q-6 13 -6 26 q0 13 6 26 q6 13 16.5 23 q10.5 10 23.5 16 q13 6 26 6 l111 0 q2 14 5 29 q8 59 15 116 l-187 0 q-13 0 -26 6 q-13 6 -23.5 16.5 q-10.5 10.5 -16.5 23.5 q-6 13 -6 26 q0 14 6 26.5 q6 12.5 16.5 23 q10.5 10.5 23.5 16.5 q13 6 26 6 l640 0 q14 0 26.5 -6 q12.5 -6 23 -16.5 q10.5 -10.5 16.5 -23 q6 -12.5 6 -26.5 q0 -13 -6 -26 q-6 -13 -16.5 -23.5 q-10.5 -10.5 -23 -16.5 q-12.5 -6 -26.5 -6 l-290 0 q-10 -70 -21 -141 q0 -2 -1 -4 l111 0 q12 0 24 -5 q3 5 8 5 q2 0 5 0.5 q3 0.5 6 0.5 l13 3 q2 0 5.5 0.5 q3.5 0.5 5.5 0.5 l40 -3 q14 -1 26 -8 q12 -7 21.5 -17.5 q9.5 -10.5 15 -23.5 q5.5 -13 4.5 -27 q-3 -43 -6.5 -87 q-3.5 -44 -7.5 -88 l-8 -88 q-2 -24 -5 -48 l116 0 q14 0 26.5 -6 q12.5 -6 23 -16.5 q10.5 -10.5 16.5 -23 q6 -12.5 6 -26.5 q0 -13 -6 -26 q-6 -13 -16.5 -23.5 q-10.5 -10.5 -23 -16.5 q-12.5 -6 -26.5 -6 l-757 0 q-13 0 -26 6 q-13 6 -23.5 16.5 q-10.5 10.5 -16.5 23.5 q-6 13 -6 26 Z" /><glyph glyph-name="uni4E9A" unicode="&#x4e9a;" d="M712 232.5 q-6 13.5 -7 28.5 q-1 15 4 28 q8 24 16.5 50 q8.5 26 16 52.5 q7.5 26.5 15 54 q7.5 27.5 13.5 54.5 q3 15 13 27 q10 12 23 19.5 q13 7.5 28 10.5 q15 3 30 -2 l1 -1 q12 -4 22.5 -13 q10.5 -9 17 -21 q6.5 -12 9 -25.5 q2.5 -13.5 -1.5 -25.5 l-18 -62 q-9 -31 -18.5 -60.5 q-9.5 -29.5 -19 -57.5 q-9.5 -28 -19.5 -54 q-4 -12 -13.5 -21 q-9.5 -9 -22 -15 q-12.5 -6 -25.5 -7.5 q-13 -1.5 -25 2.5 q-13 4 -23 14.5 q-10 10.5 -16 24 ZM452 88 l90 0 l0 570 l-90 0 l0 -570 ZM31 -6.5 q-6 12.5 -6 25.5 q0 13 6 25.5 q6 12.5 16.5 22 q10.5 9.5 23.5 15.5 q13 6 26 6 l195 0 l0 150 q-2 -4 -4 -9 q-6 -12 -14.5 -21 q-8.5 -9 -19.5 -14 l-5 -2 q-15 -6 -30.5 -5 q-15.5 1 -29.5 8 q-14 7 -24.5 19 q-10.5 12 -15.5 28 q-7 26 -15 53 q-8 27 -16.5 55 q-8.5 28 -17.5 56.5 q-9 28.5 -18 55.5 q-4 12 -2.5 26 q1.5 14 7 26.5 q5.5 12.5 15 22.5 q9.5 10 21.5 14 q12 5 26 3.5 q14 -1.5 27 -7.5 q13 -6 23 -16 q10 -10 15 -22 q11 -29 22 -59 l21 -60 q10 -30 20 -58 q8 -25 15 -49 l0 375 l-156 0 q-13 0 -26 6 q-13 6 -23.5 16.5 q-10.5 10.5 -16.5 23.5 q-6 13 -6 26 q0 14 6 26.5 q6 12.5 16.5 23 q10.5 10.5 23.5 16.5 q13 6 26 6 l734 0 q14 0 26.5 -6 q12.5 -6 23 -16.5 q10.5 -10.5 16.5 -23 q6 -12.5 6 -26.5 q0 -13 -6 -26 q-6 -13 -16.5 -23.5 q-10.5 -10.5 -23 -16.5 q-12.5 -6 -26.5 -6 l-168 0 l0 -570 l197 0 q14 0 26.5 -6 q12.5 -6 23 -15.5 q10.5 -9.5 16.5 -22 q6 -12.5 6 -25.5 q0 -13 -6 -25.5 q-6 -12.5 -16.5 -22.5 q-10.5 -10 -23 -16 q-12.5 -6 -26.5 -6 l-802 0 q-13 0 -26 6 q-13 6 -23.5 16 q-10.5 10 -16.5 22.5 Z" /><glyph glyph-name="uni4E9B" unicode="&#x4e9b;" d="M532 492 l0 291 q0 14 6 26.5 q6 12.5 16.5 23 q10.5 10.5 23.5 16.5 q13 6 26 6 l2 0 q14 0 26.5 -6 q12.5 -6 23 -16.5 q10.5 -10.5 16.5 -23 q6 -12.5 6 -26.5 l0 -91 q6 2 12 5 l34 13 q17 6 33.5 12.5 q16.5 6.5 31.5 13.5 q12 5 26 5 q8 0 26 -3 q18 -3 32 -18 l4 -4 q13 -14 16 -26.5 q3 -12.5 3 -20.5 q0 -7 -2.5 -18 q-2.5 -11 -13.5 -23 q-11 -12 -28 -18 q-42 -14 -84 -26 q-42 -12 -83 -22 q-4 -1 -7 -2 l0 -67 q0 -31 6 -38.5 q6 -7.5 31 -7.5 l84 0 q2 0 4 1 l4 1 q2 0 3 1 q19 10 31.5 24 q12.5 14 24 26 q11.5 12 23 18.5 q11.5 6.5 27.5 0.5 q18 -7 29.5 -27.5 q11.5 -20.5 11.5 -37.5 q0 -6 -1 -12 q-8 -37 -17.5 -62.5 q-9.5 -25.5 -26 -40.5 q-16.5 -15 -41.5 -21.5 q-25 -6.5 -63 -6.5 l-116 0 q-48 0 -79 9 q-31 9 -49 30 q-18 21 -25 56 q-7 35 -7 86 ZM165 178.5 q-6 12.5 -6 25.5 q0 13 6 25.5 q6 12.5 16.5 22 q10.5 9.5 23.5 15.5 q13 6 27 6 l543 0 q14 0 27 -6 q13 -6 23.5 -15.5 q10.5 -9.5 16.5 -22 q6 -12.5 6 -25.5 q0 -13 -6 -25.5 q-6 -12.5 -16.5 -22.5 q-10.5 -10 -23.5 -16 q-13 -6 -27 -6 l-543 0 q-14 0 -27 6 q-13 6 -23.5 16 q-10.5 10 -16.5 22.5 ZM47 -30 q-6 13 -6 27 q0 14 6 26.5 q6 12.5 16.5 23 q10.5 10.5 23.5 16.5 q13 6 26 6 l775 0 q14 0 26.5 -6 q12.5 -6 23 -16.5 q10.5 -10.5 16.5 -23 q6 -12.5 6 -26.5 q0 -14 -6 -27 q-6 -13 -16.5 -23.5 q-10.5 -10.5 -23 -16.5 q-12.5 -6 -26.5 -6 l-775 0 q-13 0 -26 6 q-13 6 -23.5 16.5 q-10.5 10.5 -16.5 23.5 ZM34 349 q-1 14 3.5 27.5 q4.5 13.5 14 24.5 q9.5 11 22.5 19 l14 6 q-3 4 -5 9 q-6 13 -6 28 l0 221 q0 14 5.5 26.5 q5.5 12.5 15 23 q9.5 10.5 21.5 16.5 q12 6 25 6 q12 0 24 -6 q12 -6 21.5 -16.5 q9.5 -10.5 15 -23 q5.5 -12.5 5.5 -26.5 l0 -223 q0 -13 -5 -25 q25 2 51 5 q-6 13 -6 26 l0 316 q0 14 6 26.5 q6 12.5 16.5 23 q10.5 10.5 23.5 16.5 q13 6 26 6 q14 0 26.5 -6 q12.5 -6 23 -16 q10.5 -10 16.5 -23 q6 -13 6 -26 l0 -69 l36 0 q13 0 26 -5.5 q13 -5.5 23 -14.5 q10 -9 16 -20.5 q6 -11.5 6 -23.5 q0 -12 -6 -24 q-6 -12 -16 -21 q-10 -9 -23 -14.5 q-13 -5.5 -26 -5.5 l-36 0 l0 -119 q0 -7 -2 -14 q21 2 41 4 q14 1 28 -4 q14 -5 25.5 -14 q11.5 -9 18.5 -21 q7 -12 7 -26 q0 -23 -19.5 -44 q-19.5 -21 -43.5 -24 q-88 -10 -174.5 -19.5 q-86.5 -9.5 -162.5 -17.5 q-13 -1 -26.5 3.5 q-13.5 4.5 -24.5 13 q-11 8.5 -18.5 20.5 q-7.5 12 -8.5 25 Z" /><glyph glyph-name="uni4EA4" unicode="&#x4ea4;" d="M637 491 q-7 15 -7 31 q0 16 7 30.5 q7 14.5 21 24.5 q15 11 28 11.5 q13 0.5 14 0.5 q23 0 37 -11 q20 -14 41.5 -29.5 q21.5 -15.5 42.5 -32 q21 -16.5 41 -33 q20 -16.5 38 -32.5 q11 -9 15.5 -23 q4.5 -14 4 -28.5 q-0.5 -14.5 -7 -27.5 q-6.5 -13 -18.5 -22 l-6 -5 q-19 -13 -44 -13 q-5 0 -23 1.5 q-18 1.5 -37 20.5 q-13 13 -28.5 27 q-15.5 14 -31.5 28 q-16 14 -32.5 28.5 q-16.5 14.5 -33.5 27.5 q-14 11 -21 26 ZM95 398 q0 5 3 25.5 q3 20.5 37 42.5 q32 21 61.5 44.5 q29.5 23.5 54.5 48.5 q13 14 31 19 q18 5 29 5 q11 0 20 -4 l9 -3 q16 -6 26.5 -18.5 q10.5 -12.5 14 -27.5 q3.5 -15 -0.5 -30.5 q-4 -15.5 -16 -27.5 q-37 -37 -78 -71 q-41 -34 -81 -62 q-15 -10 -36 -10 q-4 0 -20 1.5 q-16 1.5 -30 15.5 q-24 23 -24 52 ZM91 -8 q0 13 6 26.5 q6 13.5 19.5 24.5 q13.5 11 32.5 16 q77 20 145 48 q53 22 98 50 q-5 6 -9 12 q-52 61 -93 136 q-7 14 -7.5 28.5 q-0.5 14.5 4.5 28 q5 13.5 15.5 24 q10.5 10.5 24.5 14.5 q11 3 23 1 q12 -2 24 -8 q12 -6 22 -14.5 q10 -8.5 16 -19.5 q37 -65 89 -118 q9 8 17 17 q44 47 75 105 q12 22 34.5 32.5 q22.5 10.5 38.5 10.5 q9 0 17 -2 l7 -2 q15 -4 26 -14.5 q11 -10.5 16.5 -24 q5.5 -13.5 5.5 -28.5 q0 -15 -8 -29 q-43 -75 -100 -135 q-8 -9 -16 -17 q98 -59 233 -92 q42 -11 52 -32.5 q10 -21.5 10 -34.5 q0 -20 -13 -41 q-10 -17 -29.5 -26 q-19.5 -9 -33.5 -9 q-7 0 -13 2 q-97 22 -177 57 q-80 34 -144 81 q-66 -44 -143 -78 q-81 -35 -171 -60 q-7 -2 -14 -2 q-15 0 -36 8.5 q-21 8.5 -32 25.5 q-10 16 -11 26 q-1 10 -1 13 ZM54 664 q0 14 6 26.5 q6 12.5 16 22.5 q10 10 23 16 q13 6 26 6 l309 0 q-4 5 -6 10 l0 1 l-1 0 q-6 14 -6 30 q0 16 6 30.5 q6 14.5 16.5 25.5 q10.5 11 25.5 16 l7 2 q9 4 20 4 q12 0 32 -7.5 q20 -7.5 30 -26.5 q4 -8 7.5 -14.5 q3.5 -6.5 7.5 -14.5 q6 -12 5.5 -25.5 q-0.5 -13.5 -5.5 -25.5 q-1 -3 -2 -5 l304 0 q13 0 26 -6 q13 -6 23 -16 q10 -10 16 -22.5 q6 -12.5 6 -26.5 q0 -13 -6 -26 q-6 -13 -16 -23 q-10 -10 -23 -16 q-13 -6 -26 -6 l-750 0 q-13 0 -26 6 q-13 6 -23 16 q-10 10 -16 23 q-6 13 -6 26 Z" /><glyph glyph-name="uni4EA6" unicode="&#x4ea6;" d="M737 372 q-6 13 -6.5 28 q-0.5 15 4 29 q4.5 14 14 25.5 q9.5 11.5 22.5 17.5 q11 5 23.5 4.5 q12.5 -0.5 25 -4.5 q12.5 -4 22.5 -11.5 q10 -7.5 16 -17.5 q14 -26 28 -53 q14 -27 26 -53.5 q12 -26.5 23 -53 q11 -26.5 19 -50.5 q3 -7 3 -15 q0 -14 -10 -34 q-10 -20 -30 -29 l-4 -2 q-14 -7 -29 -7 q-1 0 -10 0.5 q-9 0.5 -23.5 7.5 q-14.5 7 -26 19.5 q-11.5 12.5 -17.5 28.5 q-7 20 -15 41 q-8 21 -17 42.5 q-9 21.5 -18.5 43.5 q-9.5 22 -19.5 43 ZM60 216 q-2 12 -2 20 q0 8 2 20.5 q2 12.5 10 27.5 q17 31 30 65.5 q13 34.5 24 70.5 q4 13 13 24.5 q9 11.5 21 19.5 q12 8 26.5 11.5 q14.5 3.5 27.5 0.5 l3 -1 q14 -3 25.5 -11.5 q11.5 -8.5 19 -20.5 q7.5 -12 10.5 -26 q3 -14 -1 -28 q-17 -54 -37.5 -105 q-20.5 -51 -45.5 -94 q-7 -12 -19 -19.5 q-12 -7.5 -25.5 -10.5 q-13.5 -3 -27 -1 q-13.5 2 -24.5 9 q-13 8 -20.5 22 q-7.5 14 -9.5 26 ZM58 610 q-6 13 -6 26 q0 13 6 26 q6 13 16.5 23 q10.5 10 23.5 16 q13 6 26 6 l352 0 q-4 1 -7 3 q-14 6 -25 16 q-11 10 -16 23 q-6 14 -5.5 29 q0.5 15 6.5 28.5 q6 13.5 17 24.5 q11 11 26 16 l7 3 q9 3 18 3 q13 0 33.5 -8 q20.5 -8 31.5 -28 q2 -4 4 -7.5 q2 -3.5 4 -8.5 q7 -12 6.5 -26.5 q-0.5 -14.5 -6 -27.5 q-5.5 -13 -15.5 -23.5 q-10 -10.5 -24 -15.5 l-3 -1 l348 0 q14 0 26.5 -6 q12.5 -6 23 -16 q10.5 -10 16.5 -23 q6 -13 6 -26 q0 -13 -6 -26 q-6 -13 -16.5 -23.5 q-10.5 -10.5 -23 -16.5 q-12.5 -6 -26.5 -6 l-174 0 q2 -3 4 -7 q6 -13 6 -27 l0 -459 q0 -55 -12 -86.5 q-12 -31.5 -47 -48.5 q-25 -13 -56 -18 q-31 -5 -69 -7 q-1 0 -3 0 q-23 0 -45 17.5 q-22 17.5 -28 37.5 q-3 11 -3 22 q0 22 17.5 44.5 q17.5 22.5 57.5 22.5 l16 0 q12 0 17 4 q5 4 5 15 l0 457 q0 14 6 27 l4 6 l-103 0 q6 -13 6 -26 l0 -64 q0 -58 -6 -125.5 q-6 -67.5 -26.5 -137.5 q-20.5 -70 -59.5 -138 q-39 -68 -104 -127 q-10 -9 -23.5 -12.5 q-13.5 -3.5 -27.5 -3 q-14 0.5 -26.5 6 q-12.5 5.5 -21.5 14.5 q-22 23 -22 54 q0 3 1.5 23 q1.5 20 27.5 46 q47 47 74.5 96.5 q27.5 49.5 42 100.5 q14.5 51 19 102.5 q4.5 51.5 4.5 102.5 l0 63 q0 13 5 25 l-208 0 q-13 0 -26 6 q-13 6 -23.5 16.5 q-10.5 10.5 -16.5 23.5 Z" /><glyph glyph-name="uni4EA7" unicode="&#x4ea7;" d="M52 22 q0 6 1 17.5 q1 11.5 7 25.5 q15 33 23.5 65.5 q8.5 32.5 13 66 q4.5 33.5 5.5 68 q1 34.5 1 72.5 l0 68 q0 14 6 26.5 q6 12.5 16.5 23 q10.5 10.5 23.5 16.5 q13 6 26 6 l9 0 q14 0 27 -6 q4 -2 9 -5 q5 3 10 5 q13 6 26 6 l74 0 l-4 2 q-15 5 -27 14.5 q-12 9.5 -19 21.5 q-7 14 -8 29.5 q-1 15.5 3.5 30 q4.5 14.5 15 26.5 q10.5 12 25.5 18 q7 3 15 4 l-161 0 q-13 0 -26 6 q-13 6 -23.5 16 q-10.5 10 -16.5 22 q-6 12 -6 25 q0 13 6 25.5 q6 12.5 16.5 22 q10.5 9.5 23.5 15.5 q13 6 26 6 l256 0 q-5 12 -3 24 q1 14 9 27 q8 13 21.5 22.5 q13.5 9.5 31.5 13.5 l17 4 q4 1 9 1 q12 0 29.5 -6.5 q17.5 -6.5 25.5 -20.5 q2 -3 3.5 -6 q1.5 -3 3.5 -5 q7 -12 6.5 -26 q-0.5 -14 -6.5 -27 l0 -1 l277 0 q14 0 26.5 -6 q12.5 -6 23 -15.5 q10.5 -9.5 16.5 -22 q6 -12.5 6 -25.5 q0 -13 -6 -25 q-6 -12 -16.5 -22 q-10.5 -10 -23 -16 q-12.5 -6 -26.5 -6 l-504 0 q6 -1 13 -2 q25 -7 36 -23 q5 -8 10.5 -15.5 q5.5 -7.5 10.5 -15.5 q7 -11 7 -24 q0 -13 -4.5 -25.5 q-4.5 -12.5 -13 -23 q-8.5 -10.5 -20.5 -15.5 l-1 0 q-2 -1 -5 -2 l252 0 q-2 4 -4 9 q-5 14 -4.5 30 q0.5 16 6.5 30 l4 8 q2 4 4 9 q5 12 15.5 22.5 q10.5 10.5 24 16.5 q13.5 6 28 8 q14.5 2 27.5 -2 l2 0 q18 -6 29.5 -17.5 q11.5 -11.5 15.5 -23.5 q4 -12 4 -22 q0 -6 -2 -17 q-2 -11 -13 -26 q-8 -10 -15 -19 l-4 -6 l120 0 q14 0 26.5 -6 q12.5 -6 23 -16 q10.5 -10 16.5 -22.5 q6 -12.5 6 -26.5 q0 -13 -6 -26 q-6 -13 -16.5 -23 q-10.5 -10 -23 -16 q-12.5 -6 -26.5 -6 l-613 0 l0 -1 q0 -40 -3 -86.5 q-3 -46.5 -10.5 -95 q-7.5 -48.5 -21.5 -96.5 q-14 -48 -35 -92 q-7 -15 -20 -23 q-13 -8 -28 -10 q-15 -2 -30.5 2.5 q-15.5 4.5 -27.5 14.5 q-11 9 -17.5 23.5 q-6.5 14.5 -8.5 27.5 q-2 13 -2 23 Z" /><glyph glyph-name="uni4EAB" unicode="&#x4eab;" d="M317 505 q0 -3 2 -5 q2 -2 4 -2 l352 0 q2 0 4 2 q2 2 2 5 l0 23 q0 3 -2 5 q-2 2 -4 2 l-352 0 q-2 0 -4 -2 q-2 -2 -2 -5 l0 -23 ZM172 473 l0 87 q0 14 6 26.5 q6 12.5 16.5 23 q10.5 10.5 23.5 16.5 q13 6 27 6 l518 0 q14 0 27 -6 q13 -6 23.5 -16.5 q10.5 -10.5 16.5 -23 q6 -12.5 6 -26.5 l0 -87 q0 -13 -6 -26 q-6 -13 -16.5 -23.5 q-10.5 -10.5 -23.5 -16.5 q-13 -6 -27 -6 l-518 0 q-14 0 -27 6 q-13 6 -23.5 16.5 q-10.5 10.5 -16.5 23.5 q-6 13 -6 26 ZM62 728 q0 11 6 22 q6 11 16.5 19.5 q10.5 8.5 23.5 13.5 q13 5 26 5 l283 0 q3 17 15 34 q19 25 50 30 l14 2 q5 1 10 1 q16 0 36.5 -11.5 q20.5 -11.5 26.5 -31.5 q2 -3 2.5 -6 q0.5 -3 1.5 -6 q1 -6 1 -12 l290 0 q14 0 26.5 -5 q12.5 -5 23 -13.5 q10.5 -8.5 16.5 -19.5 q6 -11 6 -22 q0 -23 -22.5 -42 q-22.5 -19 -49.5 -19 l-730 0 q-27 0 -49.5 19 q-22.5 19 -22.5 42 ZM45 141 q0 12 6 23 q6 11 16 19.5 q10 8.5 23 13.5 q13 5 26 5 l317 0 q4 6 10 12 q10 10 23 16 q2 1 5 2 q13 17 37 29 l-290 0 q-28 0 -50.5 17.5 q-22.5 17.5 -22.5 38.5 q0 20 22.5 37.5 q22.5 17.5 50.5 17.5 l435 0 q24 0 44 -13 q3 4 9 8 q10 6 24 6 q2 0 5.5 0.5 q3.5 0.5 5.5 0.5 q10 2 24 -2 q14 -4 22 -11 q13 -12 18 -27 q5 -15 3 -30 q-2 -15 -11.5 -27.5 q-9.5 -12.5 -26.5 -20.5 q-28 -12 -56.5 -24 q-28.5 -12 -58.5 -22 l-22 -8 l251 0 q13 0 26 -5 q13 -5 23 -13.5 q10 -8.5 16 -19.5 q6 -11 6 -23 q0 -11 -6 -22 q-6 -11 -16 -19.5 q-10 -8.5 -23 -14 q-13 -5.5 -26 -5.5 l-309 0 l0 -46 q0 -51 -16.5 -76 q-16.5 -25 -58.5 -38 q-32 -9 -71 -11.5 q-39 -2.5 -86 -3.5 q-20 0 -40.5 13 q-20.5 13 -26.5 27 q-4 10 -4 20 q0 19 18 37.5 q18 18.5 58 18.5 q2 0 3 0 l42 0 q15 1 21 5 q6 4 6 15 l0 39 l-304 0 q-13 0 -26 5.5 q-13 5.5 -23 14 q-10 8.5 -16 19.5 q-6 11 -6 22 Z" /><glyph glyph-name="uni4EAC" unicode="&#x4eac;" d="M695.5 98.5 q-3.5 15.5 -1 30.5 q2.5 15 10.5 28.5 q8 13.5 21 21.5 q14 8 34 8 q6 0 23 -2 q17 -2 31 -18 l24 -26 l23 -26 l22 -26 q11 -13 21 -25 q8 -10 10.5 -23.5 q2.5 -13.5 0 -27.5 q-2.5 -14 -9.5 -26 q-7 -12 -18 -19 l-6 -3 q-12 -8 -27 -10 q-15 -2 -30 1 q-15 3 -28 11 q-13 8 -22 20 q-7 10 -15 21 l-16 21 q-8 10 -16.5 21 q-8.5 11 -17.5 21 q-10 12 -13.5 27.5 ZM307 377 q0 -2 2 -4 q2 -2 4 -2 l370 0 q2 0 4 2 q2 2 2 4 l0 67 q0 2 -2 4 q-2 2 -4 2 l-370 0 q-2 0 -4 -2 q-2 -2 -2 -4 l0 -67 ZM162 319 l0 183 q0 14 6 26.5 q6 12.5 16.5 23 q10.5 10.5 23.5 16.5 q13 6 26 6 l538 0 q14 0 26.5 -6 q12.5 -6 23 -16.5 q10.5 -10.5 16.5 -23 q6 -12.5 6 -26.5 l0 -183 q0 -13 -6 -26 q-6 -13 -16.5 -23.5 q-10.5 -10.5 -23 -16.5 q-12.5 -6 -26.5 -6 l-199 0 q2 -4 4 -7 q6 -13 6 -27 l0 -163 q0 -53 -13 -82.5 q-13 -29.5 -51 -45.5 q-26 -11 -57.5 -15 q-31.5 -4 -69.5 -5 q-1 0 -3 0 q-22 0 -43 16 q-21 16 -27 36 q-3 11 -3 21 q0 21 18 43 q18 22 58 22 l14 0 q13 0 17.5 3 q4.5 3 4.5 12 l0 158 q0 14 6 27 q2 3 4 7 l-204 0 q-13 0 -26 6 q-13 6 -23.5 16.5 q-10.5 10.5 -16.5 23.5 q-6 13 -6 26 ZM77 -11 q-5 14 -4.5 29 q0.5 15 6.5 30 q6 15 17 27 q18 20 35 40.5 q17 20.5 31 40.5 q14 18 35 25.5 q21 7.5 33 7.5 q11 0 20 -4 l3 -1 q16 -6 26.5 -18 q10.5 -12 15 -26.5 q4.5 -14.5 2 -30 q-2.5 -15.5 -13.5 -29.5 q-23 -28 -46.5 -55.5 q-23.5 -27.5 -47.5 -52.5 q-9 -10 -21.5 -15 q-12.5 -5 -26 -5.5 q-13.5 -0.5 -26.5 3 q-13 3.5 -22 11.5 q-11 9 -16 23 ZM59 651 q-6 13 -6 26 q0 13 6 26 q6 13 16 23 q10 10 23 16 q13 6 26 6 l305 0 q-6 14 -5 29 q1 15 7 28.5 q6 13.5 17.5 24.5 q11.5 11 26.5 15 l11 4 q8 2 16 2 q14 0 34.5 -8 q20.5 -8 31.5 -28 l4 -6 l3 -7 q7 -13 7 -27 q0 -14 -5 -27 l297 0 q13 0 26 -6 q13 -6 23 -16 q10 -10 16 -23 q6 -13 6 -26 q0 -13 -6 -26 q-6 -13 -16 -23.5 q-10 -10.5 -23 -16.5 q-13 -6 -26 -6 l-750 0 q-13 0 -26 6 q-13 6 -23 16.5 q-10 10.5 -16 23.5 Z" /><glyph glyph-name="uni4EAE" unicode="&#x4eae;" d="M328 511 q0 -2 1.5 -4 q1.5 -2 3.5 -2 l327 0 q2 0 3.5 2 q1.5 2 1.5 4 l0 28 q0 2 -1.5 4 q-1.5 2 -3.5 2 l-327 0 q-2 0 -3.5 -2 q-1.5 -2 -1.5 -4 l0 -28 ZM183 484 l0 81 q0 14 6 26.5 q6 12.5 16.5 23 q10.5 10.5 23.5 16.5 q13 6 26 6 l493 0 q14 0 26.5 -6 q12.5 -6 23 -16.5 q10.5 -10.5 16.5 -23 q6 -12.5 6 -26.5 l0 -81 q0 -13 -6 -26 q-6 -13 -16.5 -23.5 q-10.5 -10.5 -23 -16.5 q-12.5 -6 -26.5 -6 l-493 0 q-13 0 -26 6 q-13 6 -23.5 16.5 q-10.5 10.5 -16.5 23.5 q-6 13 -6 26 ZM83 -14 q0 14 12 35 q12 21 53 35 q29 10 48.5 22.5 q19.5 12.5 32 27 q12.5 14.5 19.5 32 q7 17.5 11 37.5 q5 26 27 47 q22 21 48 21 l8 0 q9 0 18 -3 q10 3 20 3 l226 0 q12 0 24 -4 q10 4 20 4 l12 0 q14 0 26.5 -6 q12.5 -6 23 -16.5 q10.5 -10.5 16.5 -23.5 q6 -13 6 -27 l0 -88 q0 -23 4.5 -28.5 q4.5 -5.5 20.5 -5.5 l48 0 q19 0 32.5 11 q13.5 11 25.5 22.5 q12 11.5 24.5 19.5 q12.5 8 28.5 2 q18 -6 29 -26.5 q11 -20.5 11 -37.5 q0 -6 -1 -13 q-7 -30 -16 -49.5 q-9 -19.5 -23.5 -31.5 q-14.5 -12 -37 -17 q-22.5 -5 -57.5 -5 l-92 0 q-47 0 -76.5 8 q-29.5 8 -46.5 26.5 q-17 18.5 -23.5 49 q-6.5 30.5 -6.5 74.5 l0 44 l-175 0 q-5 -21 -12 -39 q-14 -38 -40 -68.5 q-26 -30.5 -68.5 -54.5 q-42.5 -24 -105.5 -42 q-9 -3 -18 -3 q-15 0 -35.5 9.5 q-20.5 9.5 -30.5 26.5 q-10 16 -10 32 ZM48 245 l0 66 q0 14 6 26.5 q6 12.5 16.5 23 q10.5 10.5 23.5 16.5 q13 6 26 6 l759 0 q14 0 26.5 -6 q12.5 -6 23 -16 q10.5 -10 16.5 -23 q6 -13 6 -26 l0 -65 q0 -13 -6 -26 q-6 -13 -16.5 -23.5 q-10.5 -10.5 -23 -16.5 q-12.5 -6 -26.5 -6 q-13 0 -26 6 q-13 6 -23.5 16.5 q-10.5 10.5 -16.5 23.5 q-6 13 -6 26 l0 22 q0 2 -2 4 q-2 2 -4 2 l-610 0 q-2 0 -4 -2 q-2 -2 -2 -4 l0 -24 q0 -13 -6 -26 q-6 -13 -15.5 -23.5 q-9.5 -10.5 -21.5 -16.5 q-12 -6 -25 -6 q-13 0 -25.5 6 q-12.5 6 -22 16.5 q-9.5 10.5 -15.5 23.5 q-6 13 -6 26 ZM40 729 q0 23 22.5 41 q22.5 18 49.5 18 l307 0 q-1 3 -1 7 q0 16 16 32 q20 22 52 28 l15 3 q6 1 12 1 q13 0 30 -7 q17 -7 24 -21 q5 -11 3 -23 q-3 -11 -9 -20 l326 0 q27 0 49.5 -18 q22.5 -18 22.5 -41 q0 -11 -6 -21.5 q-6 -10.5 -16.5 -19 q-10.5 -8.5 -23 -13.5 q-12.5 -5 -26.5 -5 l-775 0 q-13 0 -26 5 q-13 5 -23.5 13.5 q-10.5 8.5 -16.5 19 q-6 10.5 -6 21.5 Z" /><glyph glyph-name="uni4EB2" unicode="&#x4eb2;" d="M669 115 q0 5 1.5 16 q1.5 11 10 24.5 q8.5 13.5 23.5 21.5 q12 6 29 6 q6 0 22.5 -2 q16.5 -2 30.5 -16 l22 -22 q11 -11 21.5 -22.5 q10.5 -11.5 20.5 -23 q10 -11.5 20 -22.5 q9 -11 11.5 -25 q2.5 -14 0 -27.5 q-2.5 -13.5 -10.5 -25.5 q-8 -12 -20 -19 l-5 -3 q-12 -7 -26.5 -8.5 q-14.5 -1.5 -29 2 q-14.5 3.5 -27.5 11 q-13 7.5 -21 18.5 q-6 8 -12.5 16.5 q-6.5 8.5 -13.5 17.5 l-14 17 q-7 8 -15 17 q-11 13 -14.5 25.5 q-3.5 12.5 -3.5 23.5 ZM117 25 q0 36 30 67 q12 12 22.5 24.5 q10.5 12.5 20.5 25.5 q14 18 35.5 27 q21.5 9 34.5 9 q9 0 17 -3 l3 0 q16 -5 27 -16 q11 -11 16.5 -25 q5.5 -14 4 -29.5 q-1.5 -15.5 -11.5 -28.5 q-20 -26 -40.5 -50 q-20.5 -24 -41.5 -46 q-17 -16 -32.5 -17 q-15.5 -1 -17.5 -1 q-23 0 -39 11 q-28 20 -28 52 ZM115 664 q-6 11 -6 22 q0 11 6 22 q6 11 16 19.5 q10 8.5 23 13.5 q13 5 26 5 l248 0 q-3 4 -4 9 q-3 14 -0.5 28.5 q2.5 14.5 10.5 27 q8 12.5 20 22 q12 9.5 27 12.5 l11 3 q6 1 13 1 q15 0 35.5 -10 q20.5 -10 28.5 -30 q2 -6 4.5 -12.5 q2.5 -6.5 4.5 -13.5 q4 -12 2 -24 q-2 -7 -4 -13 l255 0 q13 0 26 -5 q13 -5 23 -13.5 q10 -8.5 16 -19.5 q6 -11 6 -22 q0 -11 -6 -22 q-6 -11 -16 -19.5 q-10 -8.5 -23 -13.5 q-13 -5 -26 -5 l-651 0 q-13 0 -26 5 q-13 5 -23 13.5 q-10 8.5 -16 19.5 ZM66 430.5 q-6 11.5 -6 23.5 q0 12 6 23 q6 11 16.5 19.5 q10.5 8.5 23.5 14 q13 5.5 26 5.5 l134 0 q-3 5 -5 11 q-6 15 -4.5 30.5 q1.5 15.5 8.5 29 q7 13.5 19 23.5 q12 10 28 14 q5 1 10 1 q14 0 34.5 -9.5 q20.5 -9.5 28.5 -26.5 q3 -8 6.5 -14.5 q3.5 -6.5 6.5 -13.5 q5 -12 4 -25 q-2 -11 -5 -20 l213 0 l0 4 q-1 5 -1 9 q0 11 4 23 q0 2 1 3 l1 3 q4 12 12.5 23 q8.5 11 20 19 q11.5 8 24.5 11.5 q13 3.5 25 1.5 q16 -3 28 -12.5 q12 -9.5 19.5 -24 q7.5 -14.5 7.5 -32.5 q0 -14 -6 -27 l0 -1 l120 0 q14 0 26.5 -5.5 q12.5 -5.5 23 -14 q10.5 -8.5 16.5 -19.5 q6 -11 6 -23 q0 -12 -6 -23.5 q-6 -11.5 -16.5 -20 q-10.5 -8.5 -23 -14 q-12.5 -5.5 -26.5 -5.5 l-304 0 q9 -9 14 -20 q6 -13 6 -27 l0 -13 l269 0 q14 0 26.5 -5.5 q12.5 -5.5 23 -14 q10.5 -8.5 16.5 -20 q6 -11.5 6 -23.5 q0 -12 -6 -23 q-6 -11 -16.5 -20 q-10.5 -9 -23 -14.5 q-12.5 -5.5 -26.5 -5.5 l-269 0 l0 -160 q0 -50 -11.5 -77.5 q-11.5 -27.5 -45.5 -42.5 q-23 -11 -51.5 -15 q-28.5 -4 -61.5 -6 q-1 0 -3 0 q-22 0 -42.5 15 q-20.5 15 -25.5 32 q-3 10 -3 20 q0 20 17.5 40.5 q17.5 20.5 57.5 20.5 q11 1 15.5 4 q4.5 3 4.5 13 l0 156 l-271 0 q-13 0 -26 5.5 q-13 5.5 -23.5 14.5 q-10.5 9 -16.5 20 q-6 11 -6 23 q0 12 6 23.5 q6 11.5 16.5 20 q10.5 8.5 23.5 14 q13 5.5 26 5.5 l271 0 l0 13 q0 14 6 27 q5 11 14 20 l-321 0 q-13 0 -26 5.5 q-13 5.5 -23.5 14 q-10.5 8.5 -16.5 20 Z" /><glyph glyph-name="uni4EBA" unicode="&#x4eba;" d="M74 17 q0 3 1.5 22.5 q1.5 19.5 33.5 42.5 q68 51 115.5 110 q47.5 59 79.5 121.5 q32 62.5 51 126.5 q19 64 28.5 125.5 q9.5 61.5 12.5 117.5 q3 56 4 102 q0 13 6 25.5 q6 12.5 16.5 22.5 q10.5 10 23.5 16 q13 6 26 6 l24 0 q14 0 26.5 -6.5 q12.5 -6.5 22.5 -17 q10 -10.5 16 -24 q6 -13.5 5 -27.5 q-2 -47 -6 -102 q3 -9 4 -18 q5 -35 14 -80 q9 -45 24.5 -95 q15.5 -50 39.5 -103.5 q24 -53.5 59 -105 q35 -51.5 82 -99.5 q47 -48 108 -88 q34 -21 38 -42.5 q4 -21.5 4 -28.5 q0 -26 -18 -49 q-8 -10 -20 -17.5 q-12 -7.5 -26 -11 q-14 -3.5 -28 -2.5 q-14 1 -25 8 q-75 46 -132 104 q-57 58 -98.5 121.5 q-41.5 63.5 -69.5 129.5 q-11 26 -21 52 q-24 -70 -61 -138 q-40 -74 -97 -142.5 q-57 -68.5 -137 -127.5 q-10 -8 -24 -10.5 q-14 -2.5 -28.5 0 q-14.5 2.5 -27.5 9 q-13 6.5 -22 15.5 q-24 26 -24 58 Z" /><glyph glyph-name="uni4EBF" unicode="&#x4ebf;" d="M352 101 q0 21 3.5 44 q3.5 23 17 55 q13.5 32 40.5 77.5 q27 45.5 74 112 q47 66.5 118 157.5 q35 44 78 97 l-225 0 q-14 0 -27 6 q-13 6 -23.5 15.5 q-10.5 9.5 -16.5 22 q-6 12.5 -6 25.5 q0 13 6 25 q6 12 16.5 21.5 q10.5 9.5 23.5 15.5 q13 6 27 6 l296 0 q14 0 27 -6 l8 -4 l6 4 q12 6 20 6 l6 0 q4 0 6 1 l13 2 q5 1 13.5 -0.5 q8.5 -1.5 13.5 -4.5 l13 -7 l32 -17 l29 -25 l-6 -8 l-7 -7 q-101 -118 -172.5 -204.5 q-71.5 -86.5 -119 -148.5 q-47.5 -62 -75 -103 q-27.5 -41 -42 -68 q-14.5 -27 -18 -43 q-3.5 -16 -3.5 -29 q0 -29 22 -41 q22 -12 67 -12 l185 0 q13 0 23 3 q10 3 17.5 11 q7.5 8 13 22.5 q5.5 14.5 8.5 37.5 q6 38 27 55.5 q21 17.5 41 17.5 q9 0 19 -3 q18 -7 31 -28 q13 -21 13 -41 q0 -4 -1 -8 q-8 -63 -21.5 -103.5 q-13.5 -40.5 -36.5 -63.5 q-23 -23 -58.5 -31.5 q-35.5 -8.5 -87.5 -8.5 l-170 0 q-63 0 -108 12.5 q-45 12.5 -74 36 q-29 23.5 -42.5 55.5 q-13.5 32 -13.5 71 ZM31 473 q0 6 2 23 q2 17 16 34 q45 53 84.5 119 q39.5 66 69.5 138 q5 12 15.5 21.5 q10.5 9.5 23 15.5 q12.5 6 26 8 q13.5 2 25.5 -2 q14 -4 24.5 -14 q10.5 -10 16.5 -23.5 q6 -13.5 7.5 -28 q1.5 -14.5 -4.5 -27.5 q-28 -65 -62 -129 l0 -630 q0 -14 -6 -26.5 q-6 -12.5 -16 -23 q-10 -10.5 -22.5 -16.5 q-12.5 -6 -25.5 -6 q-13 0 -26 6 q-13 6 -23 16.5 q-10 10.5 -16 23 q-6 12.5 -6 26.5 l0 418 q-3 -2 -7 -3 q-15 -6 -30.5 -3.5 q-15.5 2.5 -29.5 13 q-14 10.5 -23 28.5 q-2 2 -2.5 4 q-0.5 2 -2.5 4 q-8 14 -8 34 Z" /><glyph glyph-name="uni4EC0" unicode="&#x4ec0;" d="M340 434 q-6 13 -6 26 q0 13 6 26 q6 13 16 23 q10 10 23 16 q13 6 26 6 l174 0 l0 233 q0 14 6 27 q6 13 16 23.5 q10 10.5 23 16.5 q13 6 26 6 l10 0 q13 0 26 -6 q13 -6 23 -16.5 q10 -10.5 16 -23.5 q6 -13 6 -27 l0 -233 l163 0 q13 0 26 -6 q13 -6 23 -16 q10 -10 16 -23 q6 -13 6 -26 q0 -13 -6 -26 q-6 -13 -16 -23.5 q-10 -10.5 -23 -16.5 q-13 -6 -26 -6 l-163 0 l0 -410 q0 -14 -6 -27 q-6 -13 -16 -23.5 q-10 -10.5 -23 -16.5 q-13 -6 -26 -6 l-10 0 q-13 0 -26 6 q-13 6 -23 16.5 q-10 10.5 -16 23.5 q-6 13 -6 27 l0 410 l-174 0 q-13 0 -26 6 q-13 6 -23 16.5 q-10 10.5 -16 23.5 ZM39 469 q0 6 2 23 q2 17 16 34 q45 54 85 121 q40 67 70 139 q5 12 15.5 22 q10.5 10 23 16 q12.5 6 26 8 q13.5 2 25.5 -2 q14 -4 24.5 -14 q10.5 -10 16.5 -23.5 q6 -13.5 7.5 -28 q1.5 -14.5 -4.5 -27.5 q-24 -57 -53 -113 l0 -646 q0 -14 -6 -26.5 q-6 -12.5 -16 -23 q-10 -10.5 -22.5 -16.5 q-12.5 -6 -26.5 -6 q-13 0 -26 6 q-13 6 -23 16.5 q-10 10.5 -16 23 q-6 12.5 -6 26.5 l0 422 q-8 -7 -16 -10 q-15 -6 -30.5 -4 q-15.5 2 -29.5 12.5 q-14 10.5 -23 28.5 q-2 2 -2.5 4 q-0.5 2 -2.5 4 q-8 14 -8 34 Z" /><glyph glyph-name="uni4EC5" unicode="&#x4ec5;" d="M355 -9 q0 12 8.5 35.5 q8.5 23.5 43.5 41.5 q81 43 147 105 q3 3 6 7 q-50 71 -87 156 q-39 89 -69 193 q-4 13 -1.5 27 q2.5 14 9.5 26 q7 12 18 21 q11 9 24 12 q12 3 25.5 -0.5 q13.5 -3.5 25 -11.5 q11.5 -8 20.5 -19 q9 -11 12 -24 q23 -81 55 -152 q27 -61 63 -114 l14 22 q50 81 83 182 q19 57 32 120 l-332 0 q-13 0 -26 6 q-13 6 -23.5 15.5 q-10.5 9.5 -16.5 21.5 q-6 12 -6 25 q0 12 6 24 q6 12 16.5 21.5 q10.5 9.5 23.5 15.5 q13 6 26 6 l329 0 q14 0 27 -6 l1 -1 q5 7 12 7 q2 0 5.5 0.5 q3.5 0.5 5.5 1.5 l8 1 q5 2 11 1.5 q6 -0.5 10 -1.5 l29 -10 q21 -7 34.5 -28.5 q13.5 -21.5 13.5 -39.5 q0 -4 0 -7 q-23 -145 -64.5 -260 q-41.5 -115 -101.5 -205 q-10 -14 -19 -27 q7 -7 16 -14 q56 -50 126 -87 q35 -19 42.5 -41.5 q7.5 -22.5 7.5 -33.5 q0 -21 -14 -40 q-6 -9 -16.5 -15.5 q-10.5 -6.5 -23 -9.5 q-12.5 -3 -25 -3 q-12.5 0 -23.5 5 q-88 42 -156 101 q-17 13 -32 28 q-11 -10 -23 -20 q-79 -67 -177 -115 q-14 -7 -29 -7 q-10 0 -29 5.5 q-19 5.5 -31 22.5 q-11 17 -11 36 ZM30 459 q0 6 2 24.5 q2 18.5 18 35.5 q50 55 94.5 123.5 q44.5 68.5 78.5 143.5 q11 24 34 35 q23 11 40 11 q10 0 19 -3 l7 -2 q14 -4 24.5 -14.5 q10.5 -10.5 16.5 -24 q6 -13.5 6.5 -28.5 q0.5 -15 -5.5 -28 q-30 -64 -65 -127 l0 -626 q0 -14 -6 -26.5 q-6 -12.5 -16.5 -23 q-10.5 -10.5 -23 -16.5 q-12.5 -6 -26.5 -6 q-13 0 -26 6 q-13 6 -23.5 16.5 q-10.5 10.5 -16.5 23.5 q-6 13 -6 27 l0 412 q-12 -14 -27 -19.5 q-15 -5.5 -30.5 -3 q-15.5 2.5 -29.5 12.5 q-14 10 -23 26 l-7 14 q-9 16 -9 37 Z" /><glyph glyph-name="uni4ECA" unicode="&#x4eca;" d="M151 297 l0 5 q0 14 6 26.5 q6 12.5 16.5 23 q10.5 10.5 23.5 16.5 q13 6 27 6 l298 0 q-6 3 -11 8 q-17 15 -35 30 l-36 30 q-12 10 -19 23.5 q-7 13.5 -8.5 28.5 q-1.5 15 3 28.5 q4.5 13.5 14.5 23.5 q15 15 30 16 q15 1 18 1 q24 0 41 -13 q24 -17 48.5 -35.5 q24.5 -18.5 47.5 -36.5 q10 -8 15.5 -20.5 q5.5 -12.5 6 -26 q0.5 -13.5 -3.5 -27 q-4 -13.5 -13 -22.5 q-5 -5 -10 -8 l67 0 q14 0 27 -6 q13 -6 24 -16 q0 -1 1 -2 q1 3 3 5 l2 4 q1 2 1 4 q0 5 6 8 q6 3 14 3 q2 0 5.5 0.5 q3.5 0.5 5.5 1.5 l2 0 q6 2 16.5 1 q10.5 -1 16.5 -4 l24 -11 q14 -6 23.5 -18.5 q9.5 -12.5 13.5 -27 q4 -14.5 2 -30 q-2 -15.5 -11 -28.5 q-27 -38 -56.5 -78 q-29.5 -40 -60 -80.5 q-30.5 -40.5 -61 -80 q-30.5 -39.5 -60.5 -77.5 q-13 -17 -31.5 -21.5 q-18.5 -4.5 -28.5 -4.5 q-13 0 -24 5 l-19 9 q-16 7 -26 20 q-10 13 -12.5 24.5 q-2.5 11.5 -2.5 18.5 q0 8 2.5 20.5 q2.5 12.5 13.5 25.5 q35 42 70 85.5 q35 43.5 67 85.5 q6 7 12 15 l-412 0 q-14 0 -27 6 q-13 6 -23.5 16.5 q-10.5 10.5 -16.5 23.5 q-6 13 -6 26 ZM71 491 q0 7 3.5 28.5 q3.5 21.5 38.5 39.5 q46 24 90.5 52.5 q44.5 28.5 85.5 60.5 q41 32 78 68 q37 36 68 76 q8 10 19.5 17 q11.5 7 24.5 11 q13 4 26.5 3.5 q13.5 -0.5 23.5 -5.5 l14 -6 q14 -7 23.5 -19.5 q9.5 -12.5 13.5 -26.5 q1 -5 1 -9 q9 -4 16 -11 q28 -27 62 -53.5 q34 -26.5 71 -51.5 q37 -25 76.5 -48.5 q39.5 -23.5 79.5 -44.5 q18 -9 28.5 -23.5 q10.5 -14.5 12.5 -26 q2 -11.5 2 -17.5 q0 -11 -4 -25 q-4 -14 -16 -29 q-1 -1 -1.5 -2 q-0.5 -1 -1.5 -2 q-8 -10 -20.5 -17 q-12.5 -7 -26 -10 q-13.5 -3 -27 -2 q-13.5 1 -24.5 8 q-41 25 -82 54.5 q-41 29.5 -81 61.5 q-40 32 -78 67 q-29 26 -57 54 l-24 -26 q-45 -45 -92.5 -85 q-47.5 -40 -98 -75 q-50.5 -35 -103.5 -66 q-11 -6 -25 -7 q-14 -1 -28 2.5 q-14 3.5 -26 11 q-12 7.5 -20 17.5 q-1 2 -1 3 l-2 1 q-19 24 -19 52 Z" /><glyph glyph-name="uni4ECB" unicode="&#x4ecb;" d="M621 -22 l0 383 q0 14 6 26.5 q6 12.5 16.5 23 q10.5 10.5 23.5 16.5 q13 6 27 6 l9 0 q14 0 27 -6 q13 -6 23.5 -16.5 q10.5 -10.5 16.5 -23 q6 -12.5 6 -26.5 l0 -383 q0 -14 -6 -26.5 q-6 -12.5 -16.5 -23 q-10.5 -10.5 -23.5 -16.5 q-13 -6 -27 -6 l-9 0 q-14 0 -27 6 q-13 6 -23.5 16.5 q-10.5 10.5 -16.5 23 q-6 12.5 -6 26.5 ZM110 5 q0 3 1.5 22.5 q1.5 19.5 31.5 47.5 q33 31 53 60.5 q20 29.5 30.5 60 q10.5 30.5 13.5 63.5 q3 33 3 70 l0 30 q0 14 6 26.5 q6 12.5 16.5 23 q10.5 10.5 23.5 16.5 q13 6 26 6 l10 0 q14 0 26.5 -6 q12.5 -6 23 -16.5 q10.5 -10.5 16.5 -23.5 q6 -13 6 -27 l0 -33 q0 -45 -5 -95 q-5 -50 -22.5 -100.5 q-17.5 -50.5 -50 -99.5 q-32.5 -49 -88.5 -91 q-9 -7 -22 -9.5 q-13 -2.5 -26 -1 q-13 1.5 -25.5 6.5 q-12.5 5 -20.5 13 q-27 25 -27 57 ZM54 504 q0 13 8 36.5 q8 23.5 44 38.5 q50 20 97.5 46 q47.5 26 91 56 q43.5 30 82.5 63.5 q39 33.5 70 68.5 q9 11 22.5 17.5 q13.5 6.5 28 9 q14.5 2.5 29 0 q14.5 -2.5 26.5 -10.5 q11 -8 17.5 -20.5 q6.5 -12.5 8.5 -25.5 q2 -11 0 -21 q15 -6 24 -15 q25 -25 56 -48 q31 -23 67 -43 q36 -20 76.5 -37 q40.5 -17 83.5 -31 q41 -14 47.5 -36 q6.5 -22 6.5 -32 q0 -24 -17 -49 q-1 0 -1 -0.5 q0 -0.5 -1 -1.5 q-12 -18 -33 -26.5 q-21 -8.5 -35 -8.5 q-9 0 -17 3 q-52 18 -99.5 42 q-47.5 24 -91 52.5 q-43.5 28.5 -81.5 61.5 q-36 30 -67 65 q-7 -7 -15 -14 q-47 -43 -99 -81.5 q-52 -38.5 -108.5 -72 q-56.5 -33.5 -114.5 -59.5 q-12 -6 -25.5 -5.5 q-13.5 0.5 -26.5 5 q-13 4.5 -24.5 13 q-11.5 8.5 -17.5 19.5 q-12 20 -12 41 Z" /><glyph glyph-name="uni4ECD" unicode="&#x4ecd;" d="M297 22 q0 28 14 52 q35 60 55 130 q20 70 30 145.5 q10 75.5 13 156.5 q2 76 3 152 l-7 0 q-13 0 -26 5.5 q-13 5.5 -23 15 q-10 9.5 -16 21.5 q-6 12 -6 24 q0 12 6 23.5 q6 11.5 16 21 q10 9.5 23 15 q13 5.5 26 5.5 l273 0 q13 0 26 -5 q7 -3 13 -8 q18 13 36 13 q15 0 28.5 -7 q13.5 -7 22.5 -19 q9 -12 12.5 -27 q3.5 -15 0.5 -31 q-7 -34 -15 -69.5 q-8 -35.5 -15 -69.5 q-6 -25 -12 -48 l102 0 q14 0 27 -5 q11 -6 21 -14 q9 -7 15 -15 q6 -8 7 -17 q2 -7 2 -14 q0 -8 -3 -16 q-4 -107 -9 -185 q-6 -84 -13 -141 q-7 -57 -16.5 -91 q-9.5 -34 -22.5 -50 q-20 -27 -42 -38 q-22 -11 -51 -16 q-14 -2 -32 -3.5 q-18 -1.5 -38 -1.5 q-1 0 -3 0 q-24 0 -46 16.5 q-22 16.5 -27 36.5 q-2 10 -2 19 q0 23 18 44 q18 21 61 21 q13 0 21.5 3 q8.5 3 17.5 12 q9 10 15.5 38 q6.5 28 12 79 q5.5 51 9.5 128 q2 36 4 79 l-20 0 q-15 0 -28 7 q-11 5 -20 12 q-2 -1 -3 -3 q-20 -16 -38 -16 q-16 0 -29.5 7.5 q-13.5 7.5 -22 20 q-8.5 12.5 -10.5 24 q-2 11.5 -2 18.5 q0 9 2 18 q7 29 14 60.5 q7 31.5 14 64.5 l12 58 l-109 0 q-2 -90 -8 -179 q-6 -93 -20.5 -181 q-14.5 -88 -40 -169.5 q-25.5 -81.5 -67.5 -152.5 q-9 -15 -22.5 -23 q-13.5 -8 -28.5 -10 q-15 -2 -30 2.5 q-15 4.5 -26 15.5 q-20 19 -21.5 38 q-1.5 19 -1.5 23 ZM23 467 q0 5 1.5 20 q1.5 15 12.5 29 q40 56 75.5 125 q35.5 69 62.5 144 q5 13 14.5 24 q9.5 11 21.5 18 q12 7 26 9.5 q14 2.5 26 -1.5 q13 -4 23 -13.5 q10 -9.5 16.5 -22 q6.5 -12.5 8 -26.5 q1.5 -14 -3.5 -27 q-23 -63 -51 -126 l0 -641 q0 -14 -6 -27 q-6 -13 -15.5 -23.5 q-9.5 -10.5 -22 -16.5 q-12.5 -6 -25.5 -6 q-13 0 -25 6 q-12 6 -22 16.5 q-10 10.5 -16 23 q-6 12.5 -6 26.5 l0 408 q-1 -1 -2 -1 q-15 -7 -30 -5 q-15 2 -28.5 13 q-13.5 11 -21.5 30 q-2 4 -3.5 7.5 q-1.5 3.5 -3.5 7.5 q-6 12 -6 29 Z" /><glyph glyph-name="uni4ECE" unicode="&#x4ece;" d="M418 30 q0 12 4 26.5 q4 14.5 15 28.5 q44 58 74 131.5 q30 73.5 49.5 160.5 q19.5 87 30 186.5 q10.5 99.5 14.5 208.5 q1 14 8 26.5 q7 12.5 17.5 22.5 q10.5 10 24 16 q13.5 6 26.5 5 l17 0 q14 -1 26.5 -7.5 q12.5 -6.5 22.5 -17 q10 -10.5 15.5 -23.5 q5.5 -13 4.5 -27 q-7 -127 -21 -242 q-2 -17 -4 -33 q1 -2 3 -3 q10 -13 14 -30 q12 -44 27 -89.5 q15 -45.5 35 -89 q20 -43.5 44 -84 q24 -40.5 54 -73.5 q22 -26 23 -46 q1 -20 1 -23 q0 -32 -19 -56 q-10 -13 -24.5 -20.5 q-14.5 -7.5 -30.5 -9 q-16 -1.5 -30.5 3.5 q-14.5 5 -24.5 18 q-36 46 -65 101 q-29 55 -51 114 q-6 13 -10 26 q-17 -57 -38 -108 q-36 -86 -86 -154 q-8 -11 -21 -17.5 q-13 -6.5 -28 -7.5 q-15 -1 -30 2.5 q-15 3.5 -26 11.5 q-2 1 -3 2 q-1 1 -3 2 q-15 10 -23.5 25.5 q-8.5 15.5 -10 26.5 q-1.5 11 -1.5 16 ZM56 35 q0 10 3 23.5 q3 13.5 12 28.5 q38 59 64 133.5 q26 74.5 42.5 161.5 q16.5 87 25.5 185 q9 98 13 204 q0 14 7 27 q7 13 17.5 23 q10.5 10 23.5 16 q13 6 27 6 l15 -1 q14 0 27 -6.5 q13 -6.5 22.5 -17 q9.5 -10.5 15.5 -23.5 q6 -13 5 -27 q-5 -123 -16 -235 q-3 -27 -7 -54 q12 -1 23 -5 q12 -5 21 -15 q16 -18 31 -36 q15 -18 29 -36 q14 -18 26.5 -35.5 q12.5 -17.5 22 -32.5 q9.5 -15 9.5 -32 q0 -6 -2 -21.5 q-2 -15.5 -16 -29.5 l-4 -4 q-13 -13 -26 -16.5 q-13 -3.5 -24 -3.5 l-13 2 q-14 1 -28.5 10.5 q-14.5 9.5 -24.5 24.5 q-9 14 -18.5 28 q-9.5 14 -19.5 28 q-6 7 -11 14 q-20 -100 -50 -186 q-31 -86 -74 -156 q-7 -13 -20 -20 q-13 -7 -28 -9 q-15 -2 -30.5 1 q-15.5 3 -27.5 12 l-4 2 q-2 1 -4 3 q-14 10 -22 24.5 q-8 14.5 -10 26 q-2 11.5 -2 18.5 Z" /><glyph glyph-name="uni4ED3" unicode="&#x4ed3;" d="M337 502 q4 1 9 1 l342 0 q-18 12 -36 26 q-76 55 -147 129 q-11 -13 -23 -26 q-43 -47 -91 -87 q-27 -23 -54 -43 ZM65 477 q0 9 5.5 31 q5.5 22 40.5 39 q48 23 92.5 50 q44.5 27 85 59 q40.5 32 76 69.5 q35.5 37.5 64.5 79.5 q7 10 18 18 q11 8 24 12.5 q13 4.5 26.5 5 q13.5 0.5 24.5 -4.5 l8 -4 q14 -6 24 -17.5 q10 -11.5 15 -25.5 q3 -9 3 -19 q14 -6 23 -15 q66 -65 138 -112.5 q72 -47.5 155 -84.5 q37 -16 43.5 -37.5 q6.5 -21.5 6.5 -31.5 q0 -21 -14 -41 q-7 -10 -19.5 -17.5 q-12.5 -7.5 -26.5 -11.5 q-14 -4 -28.5 -3 q-14.5 1 -26.5 7 q-21 11 -42 23 q1 -6 1 -11 q0 -9 -3 -17 q-2 -49 -4 -86 q-4 -46 -9 -79 q-5 -33 -12 -54 q-7 -21 -17 -34 q-20 -23 -44.5 -32 q-24.5 -9 -51.5 -11 q-16 -2 -37 -3 q-21 -1 -45 -1 q-25 0 -46.5 16.5 q-21.5 16.5 -26.5 33.5 q-2 7 -2 13 q0 22 22 41 q22 19 64 19 l2 0 q13 0 21 2.5 q8 2.5 15 9.5 q5 6 9 22 q4 16 7 44 q2 20 4 47 l-276 0 l0 -241 q0 -19 3 -30.5 q3 -11.5 13 -17.5 q10 -6 28.5 -8 q18.5 -2 49.5 -2 l215 0 q13 0 23.5 1 q10.5 1 19 3.5 q8.5 2.5 15 7 q6.5 4.5 11.5 11.5 q12 16 24 30 q12 14 25.5 23 q13.5 9 24 11 q10.5 2 15.5 2 q11 0 22 -4 q11 -4 21 -12.5 q10 -8.5 16.5 -20 q6.5 -11.5 9.5 -25 q3 -13.5 0 -25.5 q-10 -42 -23 -70.5 q-13 -28.5 -36 -45.5 q-23 -17 -60.5 -24 q-37.5 -7 -96.5 -7 l-237 0 q-69 0 -114.5 9 q-45.5 9 -73 32 q-27.5 23 -39 62 q-11.5 39 -11.5 98 l0 292 q-8 -5 -17 -9 q-12 -6 -26 -7 q-14 -1 -27.5 3 q-13.5 4 -25.5 11.5 q-12 7.5 -19 17.5 q-17 22 -17 46 Z" /><glyph glyph-name="uni4ED4" unicode="&#x4ed4;" d="M332 332.5 q-6 12.5 -6 25.5 q0 13 6 25.5 q6 12.5 16.5 22.5 q10.5 10 23.5 16 q13 6 26 6 l188 0 l0 61 q0 14 6 27 q6 13 16 24 q8 8 18 14 q1 3 2 7 q7 32 35 54 q22 17 43 35 l2 2 l-246 0 q-14 0 -27 6 q-13 6 -23.5 15.5 q-10.5 9.5 -16.5 21.5 q-6 12 -6 24 q0 13 6 25 q6 12 16.5 21.5 q10.5 9.5 23.5 15 q13 5.5 27 5.5 l319 0 q14 0 27 -5 l6 -4 q0 1 1 2 q9 7 20 7 q2 0 5 0.5 q3 0.5 5 0.5 q8 3 22.5 0 q14.5 -3 23.5 -10 l14 -10 q11 -8 18 -21.5 q7 -13.5 8.5 -28 q1.5 -14.5 -2.5 -28.5 q-4 -14 -14 -24 q-21 -22 -43.5 -43.5 q-22.5 -21.5 -46.5 -42 q-24 -20.5 -48 -39.5 q-23 -19 -46 -35 q2 -7 2 -14 l0 -63 l170 0 q14 0 26.5 -6 q12.5 -6 23 -16 q10.5 -10 16.5 -22.5 q6 -12.5 6 -25.5 q0 -13 -6 -25.5 q-6 -12.5 -16.5 -22.5 q-10.5 -10 -23 -16 q-12.5 -6 -26.5 -6 l-170 0 l0 -218 q0 -57 -13.5 -88.5 q-13.5 -31.5 -51.5 -48.5 q-28 -13 -64.5 -17.5 q-36.5 -4.5 -82.5 -6.5 q-1 0 -2 0 q-22 0 -44 17 q-22 17 -28 37 q-3 11 -3 22 q0 6 2 17 q2 11 12 23.5 q10 12.5 25.5 20 q15.5 7.5 35.5 7.5 q14 0 20 -0.5 q6 -0.5 21 0.5 q14 0 20 4 q6 4 6 16 l0 215 l-188 0 q-13 0 -26 6 q-13 6 -23.5 16 q-10.5 10 -16.5 22.5 ZM35 473 q0 6 2 23 q2 17 15 34 q44 53 82.5 118.5 q38.5 65.5 68.5 136.5 q5 12 15.5 22.5 q10.5 10.5 23 16.5 q12.5 6 26 8 q13.5 2 25.5 -2 q14 -4 24.5 -14 q10.5 -10 16.5 -23 q6 -13 7.5 -27.5 q1.5 -14.5 -4.5 -27.5 q-31 -74 -69 -145 l0 -616 q0 -13 -6 -26 q-6 -13 -15.5 -23 q-9.5 -10 -22 -16 q-12.5 -6 -25.5 -6 q-13 0 -25 6 q-12 6 -22 16.5 q-10 10.5 -16 23 q-6 12.5 -6 26.5 l0 416 q-15 -6 -30 -4 q-15 2 -29 12.5 q-14 10.5 -23 28.5 q-2 2 -2.5 4 q-0.5 2 -2.5 4 q-8 14 -8 34 Z" /><glyph glyph-name="uni4ED6" unicode="&#x4ed6;" d="M298 402 q-6 12 -5 26.5 q1 14.5 6.5 27.5 q5.5 13 15.5 24 q10 11 23 16 l50 20 l0 148 q0 14 6 26.5 q6 12.5 16.5 23 q10.5 10.5 23.5 16.5 q13 6 26 6 q14 0 26.5 -6 q12.5 -6 23 -16.5 q10.5 -10.5 16.5 -23 q6 -12.5 6 -26.5 l0 -92 l68 26 l0 179 q0 14 6 26.5 q6 12.5 15.5 23 q9.5 10.5 21.5 16.5 q12 6 25 6 q13 0 25 -6 q12 -6 21.5 -16.5 q9.5 -10.5 15.5 -23 q6 -12.5 6 -26.5 l0 -125 l57 22 q6 2 11 3 l21 15 q10 7 26.5 9.5 q16.5 2.5 27.5 -2.5 l11 -4 q23 -8 40 -20.5 q17 -12.5 15 -19.5 q0 -2 -0.5 -5 q-0.5 -3 -0.5 -5 q0 -63 -0.5 -114 q-0.5 -51 -1.5 -90.5 q-1 -39.5 -1.5 -67.5 q-0.5 -28 -2.5 -44 q-2 -40 -15.5 -64 q-13.5 -24 -39.5 -38 q-11 -6 -24.5 -9.5 q-13.5 -3.5 -28.5 -5.5 q-12 -2 -24.5 2 q-12.5 4 -23 11 q-10.5 7 -17 16.5 q-6.5 9.5 -8.5 18.5 q-3 14 -3 27 q0 16 6 34.5 q6 18.5 26 18.5 q8 0 13 3.5 q5 3.5 7 15.5 q1 6 1.5 25.5 q0.5 19.5 1.5 56.5 l0 91 l-73 -29 l0 -280 q0 -13 -6 -26 q-6 -13 -15.5 -23.5 q-9.5 -10.5 -21.5 -16.5 q-12 -6 -25 -6 q-13 0 -25 6 q-12 6 -21.5 16.5 q-9.5 10.5 -15.5 23.5 q-6 13 -6 26 l0 226 l-68 -27 l0 -302 q0 -23 2 -37 q2 -14 9.5 -21 q7.5 -7 21.5 -9 q14 -2 38 -2 l171 0 q11 0 20 1.5 q9 1.5 16 4.5 q7 3 12.5 8 q5.5 5 9.5 13 q19 36 39 53.5 q20 17.5 39 17.5 q10 0 21 -4 q19 -8 30.5 -29 q11.5 -21 11.5 -37 q0 -6 -1 -13 q-8 -40 -19 -67.5 q-11 -27.5 -31 -45 q-20 -17.5 -52 -25 q-32 -7.5 -82 -7.5 l-199 0 q-59 0 -98 9.5 q-39 9.5 -62 32 q-23 22.5 -32 61 q-9 38.5 -9 96.5 l0 245 q-12 -4 -25 -3 q-14 0 -26.5 5.5 q-12.5 5.5 -23 14 q-10.5 8.5 -15.5 20.5 ZM31 473 q0 6 2 23 q2 17 16 34 q44 53 83.5 118 q39.5 65 69.5 137 q5 12 15.5 22 q10.5 10 23 16.5 q12.5 6.5 26.5 8.5 q14 2 26 -2 q13 -4 23 -14 q10 -10 16 -23 q6 -13 7 -27.5 q1 -14.5 -5 -27.5 q-27 -65 -61 -128 l0 -632 q0 -14 -6 -26.5 q-6 -12.5 -16 -23 q-10 -10.5 -23 -16.5 q-13 -6 -26 -6 q-13 0 -26 6 q-13 6 -23.5 16.5 q-10.5 10.5 -16.5 23 q-6 12.5 -6 26.5 l0 420 q-2 -1 -5 -2 q-11 -5 -22 -5 q-4 0 -14 1.5 q-10 1.5 -23.5 11.5 q-13.5 10 -22.5 27 q-2 2 -2.5 4 q-0.5 2 -1.5 4 q-8 14 -8 34 Z" /><glyph glyph-name="uni4ED8" unicode="&#x4ed8;" d="M426 314 q-7 13 -7.5 28 q-0.5 15 4 29 q4.5 14 14 25.5 q9.5 11.5 22.5 17.5 l1 1 q11 5 24.5 5 q13.5 0 26 -4 q12.5 -4 24 -11.5 q11.5 -7.5 17.5 -18.5 q8 -13 16 -27 q8 -14 16.5 -28 q8.5 -14 16.5 -27.5 q8 -13.5 15 -26.5 q6 -11 6.5 -25 q0.5 -14 -4 -27 q-4.5 -13 -13 -24 q-8.5 -11 -20.5 -17 l-4 -2 q-13 -7 -29 -7 q-16 0 -30.5 5 q-14.5 5 -26.5 15 q-12 10 -19 23 l-24 48 q-6 12 -12.5 24 q-6.5 12 -13.5 24 ZM354 566 l0 5 q0 13 6 26 q6 13 16.5 23 q10.5 10 23.5 16 q13 6 27 6 l296 0 l0 130 q0 14 6 26.5 q6 12.5 16.5 23 q10.5 10.5 23.5 16.5 q13 6 26 6 l7 0 q14 0 26.5 -6 q12.5 -6 23 -16.5 q10.5 -10.5 16.5 -23 q6 -12.5 6 -26.5 l0 -130 l29 0 q14 0 27 -6 q13 -6 23.5 -16 q10.5 -10 16.5 -23 q6 -13 6 -26 l0 -5 q0 -13 -6 -26 q-6 -13 -16.5 -23 q-10.5 -10 -23.5 -16 q-13 -6 -27 -6 l-29 0 l0 -421 q0 -65 -16 -97.5 q-16 -32.5 -57 -48.5 q-33 -14 -79.5 -18.5 q-46.5 -4.5 -107.5 -5.5 q-23 0 -45 16 q-22 16 -29 35 q-4 14 -4 26 q0 20 16 42 q16 22 58 22 q27 -1 43 -1 q16 0 35 1 q19 0 27 6.5 q8 6.5 8 23.5 l0 420 l-296 0 q-14 0 -27 6 q-13 6 -23.5 16 q-10.5 10 -16.5 23 q-6 13 -6 26 ZM44 450 q-2 13 -0.5 26.5 q1.5 13.5 6 26 q4.5 12.5 12.5 21.5 q47 54 88.5 121 q41.5 67 73.5 140 q5 12 15.5 22 q10.5 10 23.5 16 q13 6 26.5 8 q13.5 2 25.5 -2 l7 -2 q14 -4 24.5 -14 q10.5 -10 16.5 -23.5 q6 -13.5 7 -28 q1 -14.5 -5 -27.5 q-28 -63 -61 -125 l0 -630 q0 -14 -6 -26.5 q-6 -12.5 -16.5 -23 q-10.5 -10.5 -23 -16.5 q-12.5 -6 -26.5 -6 l-4 0 q-13 0 -26 6 q-13 6 -23.5 16.5 q-10.5 10.5 -16.5 23.5 q-6 13 -6 27 l0 408 q-7 -5 -14 -8 q-15 -6 -30.5 -3.5 q-15.5 2.5 -30 12 q-14.5 9.5 -23.5 25.5 q-2 4 -3 7 q-1 3 -3 6 q-6 10 -8 23 Z" /><glyph glyph-name="uni4EE3" unicode="&#x4ee3;" d="M759 750.5 q-4 15.5 -2.5 30.5 q1.5 15 8.5 28 q7 13 20 20 q11 7 27 7 q6 0 22 -2.5 q16 -2.5 30 -16.5 q16 -17 30.5 -34.5 q14.5 -17.5 27.5 -34.5 q8 -10 10 -22.5 q2 -12.5 -0.5 -25 q-2.5 -12.5 -9 -23.5 q-6.5 -11 -16.5 -17 q-12 -7 -27.5 -8.5 q-15.5 -1.5 -30.5 3 q-15 4.5 -28.5 13.5 q-13.5 9 -22.5 21 q-5 8 -11 16.5 q-6 8.5 -13 16.5 q-10 13 -14 28.5 ZM370 425.5 q-8 11.5 -10 24.5 q-2 13 2 26.5 q4 13.5 13 25 q9 11.5 21 19.5 q12 8 26 10 l107 15 q-8 102 -12 218 q0 14 6 27.5 q6 13.5 16 24 q10 10.5 23 17 q13 6.5 27 6.5 l2 0 q14 0 26.5 -6 q12.5 -6 23 -16.5 q10.5 -10.5 17 -23 q6.5 -12.5 6.5 -26.5 q2 -106 9 -202 l207 29 q14 2 27.5 -2 q13.5 -4 24.5 -12.5 q11 -8.5 19 -20 q8 -11.5 10 -24.5 q2 -13 -2.5 -26 q-4.5 -13 -13 -24.5 q-8.5 -11.5 -20.5 -19 q-12 -7.5 -26 -9.5 l-214 -30 q9 -75 22 -135 q19 -91 47.5 -145 q28.5 -54 67.5 -61 q7 -1 12.5 6.5 q5.5 7.5 9.5 24.5 q11 45 30.5 56.5 q19.5 11.5 32.5 11.5 q17 0 37 -12 q12 -8 19.5 -25 q7.5 -17 7.5 -30 q0 -5 -1 -9 q-12 -63 -27 -102.5 q-15 -39.5 -33 -61.5 q-18 -22 -36.5 -29 q-18.5 -7 -35.5 -7 q-4 0 -9 0 q-87 9 -144.5 71 q-57.5 62 -92.5 172 q-34 106 -50 254 l-102 -14 q-13 -2 -26.5 2 q-13.5 4 -24.5 12.5 q-11 8.5 -19 20 ZM28 447 q0 7 2 26 q2 19 19 36 q55 57 104.5 128 q49.5 71 87.5 149 q5 12 15.5 21 q10.5 9 23.5 15 q13 6 26.5 7.5 q13.5 1.5 25.5 -2.5 l1 -1 q14 -4 24.5 -14.5 q10.5 -10.5 16.5 -24 q6 -13.5 6.5 -28.5 q0.5 -15 -5.5 -28 q-25 -52 -54 -103 l0 -649 q0 -14 -6 -26.5 q-6 -12.5 -16.5 -23 q-10.5 -10.5 -23 -16.5 q-12.5 -6 -26.5 -6 l-7 0 q-13 0 -26 6 q-13 6 -23.5 16.5 q-10.5 10.5 -16.5 23.5 q-6 13 -6 27 l0 428 q-9 -11 -19 -22 q-12 -14 -25 -18 q-13 -4 -23 -4 q-5 0 -16 1.5 q-11 1.5 -24.5 11.5 q-13.5 10 -22.5 26 q-1 2 -1.5 3.5 q-0.5 1.5 -2.5 3.5 q-8 16 -8 37 Z" /><glyph glyph-name="uni4EE4" unicode="&#x4ee4;" d="M426.5 485.5 q-5.5 14.5 -5.5 29.5 q0 15 5.5 28.5 q5.5 13.5 16.5 22.5 q16 13 41 13 q2 0 16.5 -0.5 q14.5 -0.5 31.5 -15.5 q12 -11 24.5 -22 q12.5 -11 23.5 -22 q9 -9 13.5 -21.5 q4.5 -12.5 4 -26 q-0.5 -13.5 -6 -26 q-5.5 -12.5 -14.5 -20.5 q-11 -10 -26 -13.5 q-15 -3.5 -30.5 -2 q-15.5 1.5 -30 8.5 q-14.5 7 -25.5 18 q-6 6 -11.5 12 q-5.5 6 -11.5 12 q-10 11 -15.5 25.5 ZM159 305.5 q-6 12.5 -6 25.5 q0 13 6 25.5 q6 12.5 16.5 22.5 q10.5 10 23.5 16 q13 6 27 6 l476 0 q14 0 27 -6 q7 -3 13 -7 l0 2 q0 5 6.5 8 q6.5 3 14.5 3 q2 0 5 0.5 q3 0.5 5 1.5 q8 2 19.5 0.5 q11.5 -1.5 18.5 -6.5 l16 -9 q14 -8 22.5 -21.5 q8.5 -13.5 11 -28.5 q2.5 -15 -2 -30.5 q-4.5 -15.5 -15.5 -27.5 q-28 -28 -57 -58 q-29 -30 -59 -59 l-60 -59 l-20 -20 q14 -9 28 -17 q13 -8 21 -21 q8 -13 10 -27.5 q2 -14.5 -1.5 -29 q-3.5 -14.5 -13.5 -25.5 l-14 -15 q-8 -10 -21 -15.5 q-13 -5.5 -27 -7 q-14 -1.5 -28 1 q-14 2.5 -25 9.5 q-24 16 -51.5 33.5 q-27.5 17.5 -56.5 34.5 q-29 17 -59.5 34 q-30.5 17 -59.5 33 q-15 8 -23.5 21.5 q-8.5 13.5 -10 24 q-1.5 10.5 -1.5 16.5 q0 10 3 23 q3 13 15 25 l5 5 q13 14 30.5 17.5 q17.5 3.5 25.5 3.5 q13 0 24 -5 l64 -32 q16 -9 33 -17 q31 29 60 58 l49 49 l-397 0 q-14 0 -27 6 q-13 6 -23.5 16 q-10.5 10 -16.5 22.5 ZM69 522 q0 8 4.5 29.5 q4.5 21.5 40.5 38.5 q48 22 96 47.5 q48 25.5 93 55 q45 29.5 86 62 q41 32.5 75 67.5 q16 17 34.5 20.5 q18.5 3.5 27.5 3.5 q17 0 30 -7 l6 -3 q14 -8 23 -21 q9 -13 12 -28 q1 -9 0 -17 q29 -23 63 -46 q34 -23 72 -45 q38 -22 78.5 -42 q40.5 -20 81.5 -38 q38 -17 43 -39 q5 -22 5 -31 q0 -26 -19 -50 l0 -1 l-1 -1 q-7 -9 -18.5 -16 q-11.5 -7 -24.5 -10.5 q-13 -3.5 -26 -3 q-13 0.5 -24 5.5 q-42 21 -84.5 47 q-42.5 26 -84 54.5 q-41.5 28.5 -80.5 59.5 q-34 27 -65 54 q-12 -10 -25 -21 q-48 -40 -98.5 -75 q-50.5 -35 -103 -66 q-52.5 -31 -105.5 -58 q-11 -5 -24.5 -5.5 q-13.5 -0.5 -27 3 q-13.5 3.5 -25 10.5 q-11.5 7 -18.5 17 q-17 24 -17 49 Z" /><glyph glyph-name="uni4EE5" unicode="&#x4ee5;" d="M409 4 q0 8 4.5 30 q4.5 22 37.5 43 q74 47 124.5 110.5 q50.5 63.5 82 145.5 q31.5 82 47.5 182.5 q16 100.5 22 221.5 q1 14 8 27 q7 13 17.5 22.5 q10.5 9.5 24 15 q13.5 5.5 26.5 5.5 l11 -1 q14 0 26.5 -7 q12.5 -7 22 -17.5 q9.5 -10.5 15 -23.5 q5.5 -13 4.5 -27 q-9 -147 -31.5 -269 q-22.5 -122 -63.5 -220 q-1 -2 -1 -3 l38 -40 l44 -46 q22 -23 42 -46 q20 -23 38 -45 q8 -10 11 -23.5 q3 -13.5 1 -27 q-2 -13.5 -8.5 -25.5 q-6.5 -12 -16.5 -20 l-10 -7 q-12 -9 -27.5 -12 q-15.5 -3 -31 -0.5 q-15.5 2.5 -29 10.5 q-13.5 8 -22.5 20 q-15 19 -31.5 40 q-16.5 21 -34 42 q-17.5 21 -35.5 43 q-2 1 -3 2 q-14 -19 -29 -37 q-64 -77 -156 -134 q-10 -6 -23.5 -7 q-13.5 -1 -27 2 q-13.5 3 -25.5 9.5 q-12 6.5 -20 15.5 l0 1 l-1 0 q-20 23 -20 50 ZM396 610 q-9 13 -11 28.5 q-2 15.5 1.5 30.5 q3.5 15 12.5 28 q9 13 22 20 l2 1 q13 7 29 7 q9 0 27 -4 q18 -4 31 -21 q11 -15 22 -30.5 q11 -15.5 21.5 -31.5 q10.5 -16 20 -31 q9.5 -15 17.5 -30 q6 -10 7 -23 q1 -13 -2.5 -25.5 q-3.5 -12.5 -11 -23.5 q-7.5 -11 -17.5 -17 l-6 -4 q-14 -8 -24 -9 q-10 -1 -14 -1 q-12 0 -25 4 q-13 4 -25.5 14 q-12.5 10 -20.5 24 q-12 23 -26.5 47 q-14.5 24 -29.5 47 ZM83 73 q0 10 6 32 q6 22 23 49 q5 8 9 11 q4 3 7 8.5 q3 5.5 4.5 15.5 q1.5 10 1.5 32 l0 500 q0 13 6 26 q6 13 16.5 23 q10.5 10 23.5 16 q13 6 27 6 l15 0 q14 0 26.5 -6 q12.5 -6 23 -16.5 q10.5 -10.5 16.5 -23 q6 -12.5 6 -26.5 l0 -465 l83 43 q16 8 25 8.5 q9 0.5 10 0.5 q15 0 29 -6 q14 -6 25 -17.5 q11 -11.5 15 -27.5 q2 -7 2 -14 q0 -15 -9.5 -37 q-9.5 -22 -29.5 -33 q-41 -23 -74.5 -42 q-33.5 -19 -61 -35 q-27.5 -16 -49 -28.5 q-21.5 -12.5 -38.5 -23.5 q-18 -11 -36 -13 q-7 -1 -14 0 q-14 -6 -28 -7 q-16 -1 -29.5 4.5 q-13.5 5.5 -21.5 17.5 q-9 11 -9 28 Z" /><glyph glyph-name="uni4EEA" unicode="&#x4eea;" d="M567 715 q-6 13 -7.5 28 q-1.5 15 2 29 q3.5 14 11 25 q7.5 11 19.5 17 q11 6 25 6 q10 0 29 -6 q19 -6 31 -26 q12 -20 23 -40 q11 -20 19 -40 q5 -10 5 -21 q0 -11 -7 -29.5 q-7 -18.5 -24 -27.5 q-14 -7 -30 -7 q-16 0 -30.5 6 q-14.5 6 -26.5 17.5 q-12 11.5 -19 26.5 q-5 11 -10 21 q-5 10 -10 21 ZM324 -14 q0 11 7 33 q7 22 41 39 q99 52 170 123 l1 1 q-15 23 -28 48 q-55 95 -91.5 210 q-36.5 115 -62.5 248 q-3 14 1 27.5 q4 13.5 12 25 q8 11.5 19.5 19.5 q11.5 8 24.5 10 q13 2 26 -2.5 q13 -4.5 24 -12.5 q11 -8 19 -20 q8 -12 11 -25 q20 -107 52 -202 q32 -95 79 -176 q7 -13 14 -25 q9 14 18 29 q48 85 78.5 182.5 q30.5 97.5 48.5 202.5 q3 13 11 25 q8 12 20 20 q12 8 26 12.5 q14 4.5 28 2.5 q14 -2 25.5 -10.5 q11.5 -8.5 20 -20.5 q8.5 -12 12 -26 q3.5 -14 0.5 -28 q-25 -123 -62.5 -236 q-37.5 -113 -96.5 -211 q-18 -29 -39 -57 l6 -6 q64 -65 149 -112 q35 -20 40.5 -42 q5.5 -22 5.5 -31 q0 -25 -18 -49 q-14 -17 -33.5 -22.5 q-19.5 -5.5 -30.5 -5.5 q-15 0 -27 6 q-104 54 -180 129 l-14 14 q-2 -1 -3 -3 q-85 -81 -204 -140 q-13 -7 -29 -7 q-9 0 -27.5 4.5 q-18.5 4.5 -30.5 20.5 q-13 18 -13 38 ZM31 473 q0 6 2 23 q2 17 16 34 q45 53 84.5 119 q39.5 66 69.5 138 q5 12 15.5 21.5 q10.5 9.5 23 15.5 q12.5 6 26 8 q13.5 2 25.5 -2 q14 -4 24.5 -14 q10.5 -10 16.5 -23.5 q6 -13.5 7.5 -28 q1.5 -14.5 -4.5 -27.5 q-29 -67 -64 -133 l0 -627 q0 -13 -6 -26 q-6 -13 -15.5 -23 q-9.5 -10 -22 -16 q-12.5 -6 -25.5 -6 q-13 0 -25 6 q-12 6 -22 16.5 q-10 10.5 -16 23 q-6 12.5 -6 26.5 l0 419 l-8 -4 q-15 -6 -30.5 -3.5 q-15.5 2.5 -29.5 13 q-14 10.5 -23 28.5 q-2 2 -2.5 4 q-0.5 2 -2.5 4 q-8 14 -8 34 Z" /><glyph glyph-name="uni4EEC" unicode="&#x4eec;" d="M577 735.5 q-6 11.5 -6 23.5 q0 12 6 24 q6 12 16.5 21 q10.5 9 23.5 14.5 q13 5.5 26 5.5 l227 0 q14 0 26.5 -5.5 q12.5 -5.5 23 -14.5 q10.5 -9 16.5 -21 q6 -12 6 -24 l0 -702 q0 -51 -11.5 -79 q-11.5 -28 -42.5 -45 q-22 -12 -49.5 -17 q-27.5 -5 -62.5 -7 q-1 0 -3 0 q-22 0 -44 15 q-22 15 -27 32 q-3 9 -3 18 q0 21 19 41 q19 20 59 23 q12 0 16.5 5 q4.5 5 4.5 16 l0 635 l-155 0 q-13 0 -26 5.5 q-13 5.5 -23.5 15 q-10.5 9.5 -16.5 21 ZM380.5 754 q-2.5 15 -0.5 29 q2 14 9 26 q7 12 18 19 q12 7 27 7 q9 0 27.5 -4.5 q18.5 -4.5 32.5 -24.5 q15 -20 29 -40 q14 -20 27 -40 q6 -10 7.5 -23 q1.5 -13 -1.5 -25.5 q-3 -12.5 -9.5 -23 q-6.5 -10.5 -15.5 -16.5 q-13 -8 -28 -9 q-15 -1 -29.5 4 q-14.5 5 -27.5 15 q-13 10 -21 23 q-8 14 -16.5 28 q-8.5 14 -17.5 28 q-8 12 -10.5 27 ZM303 -20 l0 570 q0 14 6 27 q6 13 16 23.5 q10 10.5 23 16.5 q13 6 26 6 q14 0 26.5 -6 q12.5 -6 22.5 -16.5 q10 -10.5 16 -23.5 q6 -13 6 -27 l0 -570 q0 -14 -6 -27 q-6 -13 -16 -23.5 q-10 -10.5 -22.5 -16.5 q-12.5 -6 -26.5 -6 q-13 0 -26 6 q-13 6 -23 16.5 q-10 10.5 -16 23.5 q-6 13 -6 27 ZM31 469 q0 4 1 17.5 q1 13.5 11 27.5 q37 56 69 124.5 q32 68.5 56 143.5 q5 13 14.5 24 q9.5 11 22 18.5 q12.5 7.5 26 10 q13.5 2.5 26.5 -1.5 q12 -3 22.5 -12.5 q10.5 -9.5 16.5 -22 q6 -12.5 8 -26.5 q2 -14 -3 -27 q-25 -76 -57 -150 l0 -616 q0 -14 -6 -27 q-6 -13 -15.5 -23.5 q-9.5 -10.5 -22 -16.5 q-12.5 -6 -25.5 -6 q-13 0 -25 6 q-12 6 -22 16.5 q-10 10.5 -16 23 q-6 12.5 -6 26.5 l0 402 q-6 -1 -12 0 q-15 2 -28.5 13.5 q-13.5 11.5 -22.5 30.5 q-2 3 -2.5 6 q-0.5 3 -2.5 6 q-7 14 -7 33 Z" /><glyph glyph-name="uni4EF6" unicode="&#x4ef6;" d="M316 308 q0 14 6 26.5 q6 12.5 16.5 22.5 q10.5 10 23.5 16 q13 6 26 6 l190 0 l0 146 l-61 0 q-16 0 -30 8 q-4 1 -6 3 q-12 -30 -25 -58 q-6 -14 -17.5 -23.5 q-11.5 -9.5 -25 -14 q-13.5 -4.5 -27.5 -4 q-14 0.5 -25 6.5 q-25 14 -30 36 q-5 22 -5 34 q0 20 8 38 q18 38 33 82.5 q15 44.5 26 90.5 q3 14 12.5 25.5 q9.5 11.5 21.5 20 q12 8.5 26 12 q14 3.5 27 0.5 q13 -3 24 -11.5 q11 -8.5 18.5 -20.5 q7.5 -12 10 -25.5 q2.5 -13.5 -0.5 -27.5 l-8 -30 l54 0 l0 104 q0 13 6 26 q6 13 16 23 q10 10 23 16 q13 6 26 6 l5 0 q13 0 26 -6 q13 -6 23 -16 q10 -10 16 -23 q6 -13 6 -26 l0 -104 l127 0 q14 0 26.5 -6 q12.5 -6 23 -16 q10.5 -10 16.5 -22.5 q6 -12.5 6 -26.5 q0 -13 -6 -26 q-6 -13 -16.5 -23 q-10.5 -10 -23 -16 q-12.5 -6 -26.5 -6 l-127 0 l0 -146 l177 0 q14 0 26.5 -6 q12.5 -6 23 -16 q10.5 -10 16.5 -22.5 q6 -12.5 6 -26.5 q0 -13 -6 -26 q-6 -13 -16.5 -23 q-10.5 -10 -23 -16 q-12.5 -6 -26.5 -6 l-177 0 l0 -260 q0 -13 -6 -26 q-6 -13 -16 -23 q-10 -10 -23 -16 q-13 -6 -26 -6 l-5 0 q-13 0 -26 6 q-13 6 -23 16 q-10 10 -16 23 q-6 13 -6 26 l0 260 l-190 0 q-13 0 -26 6 q-13 6 -23.5 16 q-10.5 10 -16.5 23 q-6 13 -6 26 ZM31 473 q0 6 2 23 q2 17 16 34 q45 53 84.5 119 q39.5 66 69.5 138 q5 12 15.5 21.5 q10.5 9.5 23 15.5 q12.5 6 26 8 q13.5 2 25.5 -2 q14 -4 24.5 -14 q10.5 -10 16.5 -23.5 q6 -13.5 7.5 -28 q1.5 -14.5 -4.5 -27.5 q-31 -72 -69 -142 l0 -618 q0 -13 -6 -26 q-6 -13 -15.5 -23 q-9.5 -10 -22 -16 q-12.5 -6 -25.5 -6 q-13 0 -25 6 q-12 6 -22 16.5 q-10 10.5 -16 23 q-6 12.5 -6 26.5 l0 416 q-1 0 -3 -1 q-15 -6 -30.5 -3.5 q-15.5 2.5 -29.5 13 q-14 10.5 -23 28.5 q-2 2 -2.5 4 q-0.5 2 -2.5 4 q-8 14 -8 34 Z" /><glyph glyph-name="uni4EF7" unicode="&#x4ef7;" d="M687 -22 l0 394 q0 13 6 26 q6 13 16.5 23 q10.5 10 23.5 16 q13 6 26 6 l7 0 q14 0 26.5 -6 q12.5 -6 23 -16 q10.5 -10 16.5 -23 q6 -13 6 -26 l0 -394 q0 -13 -6 -26 q-6 -13 -16.5 -23 q-10.5 -10 -23 -16 q-12.5 -6 -26.5 -6 l-7 0 q-13 0 -26 6 q-13 6 -23.5 16 q-10.5 10 -16.5 23 q-6 13 -6 26 ZM335 -6 q0 4 1.5 24 q1.5 20 21.5 51 q21 30 33 59 q12 29 18 58 q6 29 8 58.5 q2 29.5 2 59.5 l0 64 q0 14 6 26.5 q6 12.5 16.5 23 q10.5 10.5 23.5 16.5 q13 6 26 6 l4 0 q14 0 26.5 -6 q12.5 -6 23 -16 q10.5 -10 16.5 -23 q6 -13 6 -26 l0 -67 q0 -39 -4.5 -83.5 q-4.5 -44.5 -17 -90.5 q-12.5 -46 -35 -91.5 q-22.5 -45.5 -57.5 -87.5 q-9 -11 -22.5 -16 q-13.5 -5 -27.5 -5.5 q-14 -0.5 -26.5 4 q-12.5 4.5 -21.5 13.5 q-20 19 -20 49 ZM292 476 q0 11 6 34 q6 23 37 43 q39 27 71.5 56.5 q32.5 29.5 58.5 61 q26 31.5 46 64.5 q20 33 35 67 q10 20 32 33.5 q22 13.5 40 13.5 q5 0 10 -1 l9 -1 q16 -3 28.5 -12 q12.5 -9 19.5 -22 q7 -13 8 -27 q14 -10 23 -23 q18 -28 38.5 -54.5 q20.5 -26.5 44 -52 q23.5 -25.5 49.5 -48.5 q26 -23 54 -43 q30 -22 34 -43.5 q4 -21.5 4 -28.5 q0 -25 -16 -45 q-8 -9 -20 -15 q-12 -6 -25.5 -8 q-13.5 -2 -27 0.5 q-13.5 2.5 -24.5 10.5 q-34 26 -65.5 56.5 q-31.5 30.5 -60.5 64.5 q-29 34 -54 72 q-8 11 -15 22 q-26 -40 -57 -76 q-35 -42 -78 -80 q-43 -38 -94 -72 q-18 -12 -39 -12 q-8 0 -27.5 4 q-19.5 4 -33.5 24 q-11 17 -11 37 ZM36 476 q0 6 2 23 q2 17 16 34 q45 53 84.5 119 q39.5 66 69.5 138 q5 12 15.5 21.5 q10.5 9.5 23 15.5 q12.5 6 26 8 q13.5 2 25.5 -2 q14 -4 24.5 -14 q10.5 -10 16.5 -23.5 q6 -13.5 7.5 -28 q1.5 -14.5 -4.5 -27.5 q-30 -70 -67 -138 l0 -624 q0 -14 -6 -26.5 q-6 -12.5 -16.5 -23 q-10.5 -10.5 -23 -16.5 q-12.5 -6 -26.5 -6 l-2 0 q-13 0 -26 6 q-13 6 -23.5 16.5 q-10.5 10.5 -16.5 23 q-6 12.5 -6 26.5 l0 417 q-14 -5 -27 -2 q-16 2 -30 12.5 q-14 10.5 -23 28.5 q-2 2 -2.5 4 q-0.5 2 -2.5 4 q-8 14 -8 34 Z" /><glyph glyph-name="uni4EFB" unicode="&#x4efb;" d="M333 347.5 q-6 12.5 -6 25.5 q0 13 6 25.5 q6 12.5 16.5 22.5 q10.5 10 23.5 16 q13 6 27 6 l186 0 l0 164 q0 14 6 27 q2 4 5 9 q-17 -3 -34 -5 q-51 -7 -100 -13 q-4 -1 -9 -1 q-21 0 -43 13 q-22 13 -29 33 q-3 9 -3 17 q0 19 16.5 41 q16.5 22 51.5 27 q48 7 95.5 15.5 q47.5 8.5 92.5 18.5 q45 10 87.5 20.5 q42.5 10.5 79.5 22.5 q8 2 18 2 q10 0 27.5 -4 q17.5 -4 28.5 -18 l11 -13 q12 -14 16 -30 q4 -16 -0.5 -30.5 q-4.5 -14.5 -16 -26 q-11.5 -11.5 -29.5 -16.5 q-46 -12 -95 -22 q-28 -7 -56 -12 q3 -3 6 -5 q10 -11 16 -23.5 q6 -12.5 6 -26.5 l0 -164 l161 0 q14 0 26.5 -6 q12.5 -6 23 -16 q10.5 -10 16.5 -22.5 q6 -12.5 6 -25.5 q0 -13 -6 -25.5 q-6 -12.5 -16.5 -22.5 q-10.5 -10 -23 -16 q-12.5 -6 -26.5 -6 l-161 0 l0 -200 q0 -13 -6 -26 l0 -1 l160 0 q13 0 26 -6 q13 -6 23 -15.5 q10 -9.5 16 -22 q6 -12.5 6 -25.5 q0 -13 -6 -25.5 q-6 -12.5 -16 -22.5 q-10 -10 -23 -16 q-13 -6 -26 -6 l-448 0 q-13 0 -26 6 q-13 6 -23 16 q-10 10 -16 22.5 q-6 12.5 -6 25.5 q0 13 6 25.5 q6 12.5 16 22 q10 9.5 23 15.5 q13 6 26 6 l152 0 l0 1 q-6 13 -6 26 l0 200 l-186 0 q-14 0 -27 6 q-13 6 -23.5 16 q-10.5 10 -16.5 22.5 ZM34 459 q0 6 2 24.5 q2 18.5 17 35.5 q50 55 94 123.5 q44 68.5 77 143.5 q5 12 15.5 22 q10.5 10 23.5 16 q13 6 26.5 7.5 q13.5 1.5 25.5 -2.5 l7 -2 q14 -4 24.5 -14.5 q10.5 -10.5 16.5 -23.5 q6 -13 7 -28 q1 -15 -5 -28 q-30 -66 -65 -129 l0 -625 q0 -14 -6 -26.5 q-6 -12.5 -16.5 -23 q-10.5 -10.5 -23 -16.5 q-12.5 -6 -26.5 -6 q-13 0 -26 6 q-13 6 -23.5 16.5 q-10.5 10.5 -16.5 23.5 q-6 13 -6 27 l0 409 q-10 -10 -22 -14 q-11 -4 -22 -4 q-5 0 -15 1.5 q-10 1.5 -24.5 12 q-14.5 10.5 -23.5 26.5 q-2 3 -3 5.5 q-1 2.5 -3 5.5 q-9 16 -9 37 Z" /><glyph glyph-name="uni4EFD" unicode="&#x4efd;" d="M311 427 q-7 11 -9.5 26 q-2.5 15 0 30 q2.5 15 8.5 29.5 q6 14.5 15 24.5 q40 45 70.5 101 q30.5 56 51.5 121 q8 26 32 40 q24 14 44 14 q6 0 12 -1 q14 -3 25 -12 q11 -9 18.5 -22 q7.5 -13 10 -27 q2.5 -14 -2.5 -28 q-29 -88 -71 -167 q-21 -40 -46 -76 q7 1 14 1 l302 0 q-3 4 -5 8 q-24 34 -43 72.5 q-19 38.5 -34 82.5 q-15 44 -28 95 q-3 14 -0.5 27.5 q2.5 13.5 10 25.5 q7.5 12 18.5 20.5 q11 8.5 24 10.5 q6 1 11 1 q19 0 41 -15.5 q22 -15.5 30 -41.5 q10 -36 22 -67.5 q12 -31.5 26 -59 q14 -27.5 31 -51 q17 -23.5 38 -44.5 q24 -24 27 -44.5 q3 -20.5 3 -27.5 q0 -24 -14 -42 q-9 -12 -23 -19 q-14 -7 -29 -8 q-8 -1 -15 0 q0 -1 -1 -2 q-3 -100 -7 -173 q-4 -78 -10 -131 q-6 -53 -14 -84 q-8 -31 -19 -46 q-19 -25 -39 -35.5 q-20 -10.5 -46 -15.5 q-11 -2 -25.5 -3.5 q-14.5 -1.5 -31.5 -1.5 q-1 0 -3 0 q-23 0 -45 15.5 q-22 15.5 -27 34.5 q-3 11 -3 21 q0 19 13 38.5 q13 19.5 47 19.5 q11 0 18.5 3 q7.5 3 15.5 12 q7 9 12 34 q5 25 9.5 72.5 q4.5 47.5 7.5 119.5 q1 30 2 65 l-132 0 l2 -2 q9 -12 13.5 -25.5 q4.5 -13.5 2.5 -27.5 q-19 -120 -62 -207 q-43 -87 -121 -147 q-10 -8 -23 -10.5 q-13 -2.5 -26 -1 q-13 1.5 -24.5 7 q-11.5 5.5 -18.5 13.5 q-15 18 -15 40 q0 9 5.5 31 q5.5 22 34.5 48 q47 42 73 101.5 q26 59.5 36 135.5 q2 13 10 26 q6 10 14 18 l-15 0 q-14 0 -27 6 q-13 6 -23.5 15.5 q-10.5 9.5 -16.5 21.5 q-4 8 -5 17 q-9 -7 -19 -10 q-15 -5 -30 -3 q-15 2 -28.5 10.5 q-13.5 8.5 -22.5 22.5 ZM27 473 q0 6 2 23 q2 17 16 34 q45 53 84.5 119 q39.5 66 69.5 138 q5 12 15.5 21.5 q10.5 9.5 23 15.5 q12.5 6 26 8 q13.5 2 25.5 -2 q14 -4 24.5 -14 q10.5 -10 16.5 -23.5 q6 -13.5 7.5 -28 q1.5 -14.5 -4.5 -27.5 q-29 -66 -63 -131 l0 -628 q0 -14 -6 -26.5 q-6 -12.5 -16.5 -23 q-10.5 -10.5 -23 -16.5 q-12.5 -6 -26.5 -6 q-13 0 -26 6 q-13 6 -23.5 16.5 q-10.5 10.5 -16.5 23 q-6 12.5 -6 26.5 l0 416 q-1 0 -3 -1 q-15 -6 -30.5 -3.5 q-15.5 2.5 -29.5 13 q-14 10.5 -23 28.5 q-2 2 -2.5 4 q-0.5 2 -2.5 4 q-8 14 -8 34 Z" /><glyph glyph-name="uni4EFF" unicode="&#x4eff;" d="M577 757 q-4 14 -1.5 28.5 q2.5 14.5 10 27.5 q7.5 13 19 22.5 q11.5 9.5 24.5 12.5 l11 3 q6 1 13 1 q17 0 40 -11 q23 -11 31 -34 l8 -24 q4 -13 2 -26.5 q-2 -13.5 -9 -25.5 q-7 -12 -17.5 -21.5 q-10.5 -9.5 -23.5 -12.5 l-11 -3 q-14 -4 -29 -1 q-15 3 -28.5 11 q-13.5 8 -23 20 q-9.5 12 -13.5 27 q-1 2 -1 3 q0 1 -1 3 ZM306 1 q0 5 2.5 25 q2.5 20 27.5 48 q41 46 65 99.5 q24 53.5 37 112.5 q13 59 17.5 123.5 q4.5 64.5 6.5 131.5 l0 2 l-69 0 q-13 0 -26 6 q-13 6 -23 16 q-10 10 -16 23 q-6 13 -6 26 q0 14 6 26.5 q6 12.5 16 22.5 q10 10 23 16 q13 6 26 6 l510 0 q13 0 26 -6 q13 -6 23 -16 q10 -10 16 -22.5 q6 -12.5 6 -26.5 q0 -13 -6 -26 q-6 -13 -16 -23 q-10 -10 -23 -16 q-13 -6 -26 -6 l-284 0 l0 -7 q-2 -42 -5 -84 q3 2 7 4 q13 6 26 6 l210 0 q14 0 27 -6 q11 -6 21 -14 q8 -6 14 -12 q8 -10 7 -18 q3 -9 3 -17 q0 -11 -4 -21 q-4 -87 -8 -152 q-6 -75 -13 -126 q-7 -51 -16 -81 q-9 -30 -22 -45 q-22 -26 -45.5 -36 q-23.5 -10 -54.5 -14 q-15 -3 -35.5 -4 q-20.5 -1 -44.5 -1 q-1 0 -3 0 q-23 0 -44.5 15.5 q-21.5 15.5 -26.5 33.5 q-3 10 -3 19 q0 22 19 41.5 q19 19.5 64 19.5 l2 0 q13 0 22 3 q9 3 18 12 q9 9 15.5 33.5 q6.5 24.5 12 70 q5.5 45.5 9.5 113.5 q1 24 3 51 l-127 0 q-13 0 -26 6 q-10 5 -18 11 q-9 -67 -27 -129 q-21 -74 -57 -140.5 q-36 -66.5 -95 -122.5 q-10 -10 -24 -14.5 q-14 -4.5 -28 -4 q-14 0.5 -26.5 5.5 q-12.5 5 -20.5 14 q-19 20 -19 48 ZM31 481 q0 6 2 23.5 q2 17.5 16 34.5 q45 53 84 118 q39 65 69 136 q5 12 15.5 22 q10.5 10 24 16 q13.5 6 27.5 8 q14 2 27 -2 q14 -4 24.5 -14.5 q10.5 -10.5 16.5 -23.5 q6 -13 7 -28 q1 -15 -5 -28 q-31 -72 -69 -143 l0 -622 q0 -14 -6 -26.5 q-6 -12.5 -16 -23 q-10 -10.5 -22.5 -16.5 q-12.5 -6 -25.5 -6 q-13 0 -26 6 q-13 6 -23 16.5 q-10 10.5 -16 23 q-6 12.5 -6 26.5 l0 420 l-1 0 q-15 -6 -30.5 -4 q-15.5 2 -29.5 12.5 q-14 10.5 -23 27.5 q-2 3 -3 6 q-1 3 -3 5 q-8 16 -8 36 Z" /><glyph glyph-name="uni4F01" unicode="&#x4f01;" d="M78 -27 q-6 12 -6 24 q0 12 6 23.5 q6 11.5 16.5 21 q10.5 9.5 23.5 15 q13 5.5 26 5.5 l27 0 l0 264 q0 14 6 27 q6 13 16.5 23.5 q10.5 10.5 23.5 16.5 q13 6 26 6 q13 0 26 -6 q13 -6 23 -16.5 q10 -10.5 16 -23.5 q6 -13 6 -27 l0 -264 l114 0 l0 424 q0 14 6 26.5 q6 12.5 16.5 23 q10.5 10.5 23.5 16.5 q13 6 27 6 l9 0 q14 0 27 -6 q13 -6 23.5 -16.5 q10.5 -10.5 16.5 -23 q6 -12.5 6 -26.5 l0 -122 l185 0 q13 0 26 -5.5 q13 -5.5 23 -14.5 q10 -9 16 -20.5 q6 -11.5 6 -23.5 q0 -12 -6 -24 q-6 -12 -16 -21 q-10 -9 -23 -14.5 q-13 -5.5 -26 -5.5 l-185 0 l0 -173 l273 0 q14 0 26.5 -5.5 q12.5 -5.5 23 -15 q10.5 -9.5 16.5 -21 q6 -11.5 6 -23.5 q0 -12 -6 -24 q-6 -12 -16.5 -21.5 q-10.5 -9.5 -23 -15 q-12.5 -5.5 -26.5 -5.5 l-712 0 q-13 0 -26 5.5 q-13 5.5 -23.5 15 q-10.5 9.5 -16.5 21.5 ZM59 509 q0 9 6 31 q6 22 41 39 q47 21 92.5 47 q45.5 26 88 55.5 q42.5 29.5 80.5 63 q38 33.5 70 70.5 q15 18 35 23.5 q20 5.5 30 5.5 q15 0 28 -7 q14 -7 23.5 -19.5 q9.5 -12.5 13.5 -26.5 q2 -11 1 -21 q23 -5 36 -17 q71 -65 142.5 -106.5 q71.5 -41.5 141.5 -69.5 q38 -15 46 -36.5 q8 -21.5 8 -32.5 q0 -20 -13 -39 q-6 -9 -17.5 -16.5 q-11.5 -7.5 -24.5 -11.5 q-13 -4 -27 -4 q-14 0 -26 5 q-78 35 -157.5 86.5 q-79.5 51.5 -163.5 134.5 q-7 7 -12 15 q-16 -16 -33 -32 q-45 -41 -94 -77.5 q-49 -36.5 -101 -68 q-52 -31.5 -105 -58.5 q-11 -5 -24.5 -5.5 q-13.5 -0.5 -26.5 3 q-13 3.5 -24 10.5 q-11 7 -18 16 q-16 20 -16 43 Z" /><glyph glyph-name="uni4F11" unicode="&#x4f11;" d="M315 125 q0 3 0.5 12 q0.5 9 6.5 24.5 q6 15.5 17 27.5 q29 32 56 69 q27 37 51 77 q24 40 45 82 q15 30 28 60 l-118 0 q-13 0 -26 6 q-13 6 -23 16 q-10 10 -16 23 q-6 13 -6 26 q0 13 6 25.5 q6 12.5 16 22.5 q10 10 23 16 q13 6 26 6 l169 0 l0 146 q0 14 6 27 q6 13 16.5 23.5 q10.5 10.5 23.5 16.5 q13 6 26 6 q14 0 26.5 -6 q12.5 -6 23 -16.5 q10.5 -10.5 16.5 -23.5 q6 -13 6 -27 l0 -146 l176 0 q13 0 26 -6 q13 -6 23 -16 q10 -10 16 -22.5 q6 -12.5 6 -25.5 q0 -13 -6 -26 q-6 -13 -16 -23 q-10 -10 -23 -16 q-13 -6 -26 -6 l-119 0 q11 -27 23 -54 q19 -42 41 -81 q22 -39 46 -75 q24 -36 51 -68 q22 -27 22 -63 q0 -32 -19 -53 q-10 -11 -24.5 -17 q-14.5 -6 -29.5 -5.5 q-15 0.5 -29.5 7.5 q-14.5 7 -24.5 20 q-29 39 -55 84 q-26 45 -48 94 q-5 10 -10 21 l0 -309 q0 -14 -6 -27 q-6 -13 -16.5 -23.5 q-10.5 -10.5 -23 -16.5 q-12.5 -6 -26.5 -6 q-13 0 -26 6 q-13 6 -23.5 16.5 q-10.5 10.5 -16.5 23.5 q-6 13 -6 27 l0 297 l-12 -22 q-27 -50 -56.5 -95 q-29.5 -45 -62.5 -84 q-10 -12 -24 -17.5 q-14 -5.5 -28.5 -5.5 q-14.5 0 -28.5 6 q-14 6 -24 16 q-10 11 -14.5 25 q-4.5 14 -4.5 27 ZM30 459 q0 6 2 24.5 q2 18.5 18 35.5 q50 55 94.5 123.5 q44.5 68.5 78.5 143.5 q11 24 34 35 q23 11 40 11 q10 0 19 -3 l7 -2 q14 -4 24.5 -14.5 q10.5 -10.5 16.5 -24 q6 -13.5 6.5 -28.5 q0.5 -15 -5.5 -28 q-32 -69 -71 -136 l0 -617 q0 -14 -5.5 -26.5 q-5.5 -12.5 -16 -23 q-10.5 -10.5 -23 -16.5 q-12.5 -6 -26.5 -6 q-13 0 -26 6 q-13 6 -23.5 16.5 q-10.5 10.5 -16.5 23.5 q-6 13 -6 27 l0 407 q-10 -10 -22 -14 q-15 -6 -30.5 -3.5 q-15.5 2.5 -29.5 12.5 q-14 10 -23 26 l-7 14 q-9 16 -9 37 Z" /><glyph glyph-name="uni4F17" unicode="&#x4f17;" d="M449 -54 q-29 21 -29 57 q0 36 25 65 q55 64 88 151 q33 87 50 192 q2 13 10 25 q8 12 19 21 q11 9 24.5 14 q13.5 5 26.5 3 l3 0 q14 -1 26 -9 q12 -8 21 -19 q9 -11 13 -24.5 q4 -13.5 2 -27.5 q-8 -45 -18 -87 q8 -4 14 -10 q11 -11 18 -25 q11 -22 23.5 -44 q12.5 -22 28 -43 q15.5 -21 33.5 -40 q18 -19 38 -36 q29 -24 34 -47.5 q5 -23.5 5 -32.5 q0 -26 -16 -47 q-7 -11 -19.5 -18 q-12.5 -7 -26.5 -9.5 q-14 -2.5 -27.5 0 q-13.5 2.5 -23.5 11.5 q-31 27 -57.5 59 q-26.5 32 -47.5 67 q-16 24 -29 49 q-23 -54 -51 -100 q-29 -48 -65 -87 q-8 -9 -20 -14 q-12 -5 -25 -6 q-13 -1 -25.5 2 q-12.5 3 -21.5 10 ZM82 11 q0 15 5 31.5 q5 16.5 16 31.5 q47 65 75.5 151 q28.5 86 42.5 188 q0 3 1 5 q-9 -5 -19 -10 q-12 -6 -26 -6.5 q-14 -0.5 -27.5 4 q-13.5 4.5 -25.5 12.5 q-12 8 -20 18 q-17 23 -17 48 q0 9 5.5 31 q5.5 22 41.5 39 q93 44 170.5 107 q77.5 63 131.5 150 q14 20 36 28.5 q22 8.5 36 8.5 q11 0 22 -4 l9 -4 q14 -6 23.5 -17 q9.5 -11 15 -24.5 q5.5 -13.5 5.5 -28.5 l-2 -10 q12 -7 20 -17 q24 -29 53 -56 q29 -27 62.5 -51.5 q33.5 -24.5 71.5 -45.5 q38 -21 79 -38 q38 -16 45.5 -38.5 q7.5 -22.5 7.5 -33.5 q0 -22 -15 -44 q-13 -17 -33 -23.5 q-20 -6.5 -32 -6.5 q-11 0 -22 4 q-50 22 -95 50 q-45 28 -85.5 61.5 q-40.5 33.5 -76.5 72.5 q-27 29 -50 60 q-46 -58 -100 -105 q-46 -39 -96 -73 q7 -3 14 -7 q12 -8 21 -19 q9 -11 13.5 -25 q4.5 -14 2.5 -28 q-6 -41 -14 -79 q16 -3 28 -13 q12 -10 23.5 -20.5 q11.5 -10.5 22.5 -21.5 l42 -42 q8 -8 11.5 -19.5 q3.5 -11.5 3 -24 q-0.5 -12.5 -4 -24 q-3.5 -11.5 -11.5 -19.5 q-11 -12 -26 -17 q-15 -5 -30.5 -4 q-15.5 1 -31 8 q-15.5 7 -26.5 20 q-6 8 -13 15 q-7 7 -14 15 l-9 10 q-5 -14 -9 -27 q-39 -111 -101 -191 q-8 -10 -20.5 -15.5 q-12.5 -5.5 -26 -7 q-13.5 -1.5 -26.5 1.5 q-13 3 -23 10 q-13 10 -21 25.5 q-8 15.5 -8 33.5 Z" /><glyph glyph-name="uni4F18" unicode="&#x4f18;" d="M735.5 731.5 q-4.5 14.5 -3.5 28.5 q1 14 6.5 27 q5.5 13 16.5 20 q13 9 32 9 q5 0 21 -2 q16 -2 32 -19 q12 -13 23 -25.5 q11 -12.5 22 -24.5 q14 -17 14 -40 q0 -4 -1.5 -20 q-1.5 -16 -20.5 -30 q-11 -8 -25 -10 q-14 -2 -29 1.5 q-15 3.5 -28.5 12 q-13.5 8.5 -23.5 20.5 q-5 6 -10.5 12.5 q-5.5 6.5 -10.5 13.5 q-10 12 -14.5 26.5 ZM618 101 l0 270 q0 14 6 26.5 q6 12.5 16 23 q10 10.5 23 16.5 q13 6 26 6 q14 0 26.5 -6 q12.5 -6 22.5 -16.5 q10 -10.5 16 -23 q6 -12.5 6 -26.5 l0 -270 q0 -28 4 -35 q4 -7 18 -7 l44 0 q5 0 8 1.5 q3 1.5 6 6 q3 4.5 5 11.5 q2 7 3 19 q6 44 26.5 61 q20.5 17 39.5 17 q12 0 24 -5 q17 -6 28 -26.5 q11 -20.5 11 -38.5 q0 -3 0 -6 q-6 -49 -14.5 -82 q-8.5 -33 -24 -53 q-15.5 -20 -39 -28.5 q-23.5 -8.5 -59.5 -8.5 l-83 0 q-42 0 -69 9 q-27 9 -42.5 29.5 q-15.5 20.5 -21.5 53.5 q-6 33 -6 82 ZM293 9 q0 5 2 25 q2 20 28 46 q59 60 92 133.5 q33 73.5 49 160.5 q10 57 15 119 l-109 0 q-13 0 -26 6 q-13 6 -23.5 15.5 q-10.5 9.5 -16.5 22 q-6 12.5 -6 25.5 q0 13 6 25 q6 12 16.5 21.5 q10.5 9.5 23.5 15.5 q13 6 26 6 l115 0 q1 67 1 138 q0 14 6 26.5 q6 12.5 16.5 23 q10.5 10.5 23.5 16.5 q13 6 27 6 q14 0 26.5 -6 q12.5 -6 23 -16.5 q10.5 -10.5 16.5 -23.5 q6 -13 6 -27 q-1 -70 -3 -137 l260 0 q14 0 26.5 -6 q12.5 -6 23 -15.5 q10.5 -9.5 16.5 -21.5 q6 -12 6 -25 q0 -13 -6 -25.5 q-6 -12.5 -16.5 -22 q-10.5 -9.5 -23 -15.5 q-12.5 -6 -26.5 -6 l-266 0 q-8 -100 -26 -190 q-22 -104 -65 -192.5 q-43 -88.5 -117 -159.5 q-10 -10 -24.5 -14 q-14.5 -4 -28.5 -2.5 q-14 1.5 -27 7.5 q-13 6 -22 16 q-19 22 -19 51 ZM35 473 q0 6 2 23 q2 17 15 34 q44 53 82.5 118.5 q38.5 65.5 68.5 136.5 q5 12 15.5 22.5 q10.5 10.5 23 16.5 q12.5 6 26 8 q13.5 2 25.5 -2 q14 -4 24.5 -14 q10.5 -10 16.5 -23 q6 -13 7.5 -27.5 q1.5 -14.5 -4.5 -27.5 q-31 -74 -69 -145 l0 -616 q0 -13 -6 -26 q-6 -13 -15.5 -23 q-9.5 -10 -22 -16 q-12.5 -6 -25.5 -6 q-13 0 -25 6 q-12 6 -22 16.5 q-10 10.5 -16 23 q-6 12.5 -6 26.5 l0 416 q-15 -6 -30 -4 q-15 2 -29 12.5 q-14 10.5 -23 28.5 q-2 2 -2.5 4 q-0.5 2 -2.5 4 q-8 14 -8 34 Z" /><glyph glyph-name="uni4F19" unicode="&#x4f19;" d="M776 388.5 q-7 12.5 -9.5 27.5 q-2.5 15 0.5 29 q5 18 9.5 36.5 q4.5 18.5 9 37.5 q4.5 19 8.5 38.5 q4 19.5 7 38.5 q3 15 11.5 27.5 q8.5 12.5 21.5 21 q13 8.5 27.5 12 q14.5 3.5 29.5 0.5 l10 -2 q14 -3 25.5 -12.5 q11.5 -9.5 19 -22.5 q7.5 -13 10 -27 q2.5 -14 -1.5 -28 q-14 -46 -27 -89 q-13 -43 -26 -81 q-4 -11 -13.5 -20.5 q-9.5 -9.5 -21 -15.5 q-11.5 -6 -24.5 -7.5 q-13 -1.5 -24 1.5 q-13 3 -24 13 q-11 10 -18 22.5 ZM355 392.5 q-6 13.5 -8 29 q-2 15.5 2 28.5 q9 34 16 72.5 q7 38.5 12 77.5 q2 14 9.5 27 q7.5 13 19.5 22 q12 9 26 14 q14 5 29 3 q12 -2 23 -9 q11 -7 19.5 -17.5 q8.5 -10.5 13.5 -23 q5 -12.5 4 -24.5 q-5 -51 -12.5 -102 q-7.5 -51 -19.5 -96 q-3 -13 -12.5 -23.5 q-9.5 -10.5 -22.5 -16.5 q-13 -6 -27 -7.5 q-14 -1.5 -26 3.5 l-7 2 q-13 5 -23 16 q-10 11 -16 24.5 ZM343 5 q0 8 4.5 30 q4.5 22 35.5 45 q70 53 107.5 120.5 q37.5 67.5 54.5 152 q17 84.5 20 187.5 q3 103 3 227 q0 14 6 26.5 q6 12.5 16.5 23 q10.5 10.5 23.5 16.5 q13 6 26 6 l14 0 q14 0 26.5 -6 q12.5 -6 23 -16.5 q10.5 -10.5 16.5 -23.5 q6 -13 6 -27 q-1 -144 -7 -267 q-2 -25 -4 -48 q7 -11 9 -23 q10 -54 24 -102.5 q14 -48.5 35 -91 q21 -42.5 48.5 -77.5 q27.5 -35 64.5 -62 q32 -24 38 -47 q6 -23 6 -33 q0 -25 -16 -47 q-7 -11 -19 -18.5 q-12 -7.5 -25.5 -11 q-13.5 -3.5 -27.5 -2.5 q-14 1 -25 9 q-53 35 -91.5 82 q-38.5 47 -66.5 105 q-9 19 -17 39 q-20 -45 -46 -86 q-53 -83 -146 -146 q-12 -8 -26 -9.5 q-14 -1.5 -28 1.5 q-14 3 -26 10 q-12 7 -20 17 q-17 21 -17 47 ZM29 477 q0 7 2.5 25 q2.5 18 17.5 35 q48 52 90.5 118 q42.5 66 75.5 138 q6 12 16.5 21.5 q10.5 9.5 23 15.5 q12.5 6 26.5 7.5 q14 1.5 26 -2.5 l2 0 q14 -4 24.5 -14.5 q10.5 -10.5 16.5 -24 q6 -13.5 6.5 -28.5 q0.5 -15 -5.5 -28 q-25 -55 -55 -109 l0 -651 q0 -14 -6 -27 q-6 -13 -16 -23.5 q-10 -10.5 -23 -16.5 q-13 -6 -26 -6 l-10 0 q-13 0 -26 6 q-13 6 -23 16.5 q-10 10.5 -16 23 q-6 12.5 -6 26.5 l0 427 q-9 -8 -19 -12 q-11 -4 -22 -4 q-5 0 -15 1.5 q-10 1.5 -23.5 12 q-13.5 10.5 -21.5 27.5 q-2 3 -3.5 6.5 q-1.5 3.5 -3.5 6.5 q-7 15 -7 33 Z" /><glyph glyph-name="uni4F1A" unicode="&#x4f1a;" d="M378 91 l287 14 l-1 1 q-12 14 -16 27.5 q-4 13.5 -4 24.5 q0 5 1.5 15 q1.5 10 11 23.5 q9.5 13.5 25.5 21.5 q5 3 10 4 l-203 0 q-1 -8 -3 -15 q-4 -14 -14 -25 q-44 -47 -94 -91 ZM367 558 l279 0 l-1 1 q-44 29 -84 59 q-32 24 -60 48 q-52 -49 -111 -92 q-12 -8 -23 -16 ZM93 267 q-6 13 -6 26 q0 13 6 25.5 q6 12.5 16.5 22.5 q10.5 10 23.5 16 q13 6 26 6 l689 0 q14 0 26.5 -6 q12.5 -6 23 -16 q10.5 -10 16.5 -22.5 q6 -12.5 6 -25.5 q0 -13 -6 -26 q-6 -13 -16.5 -23 q-10.5 -10 -23 -16 q-12.5 -6 -26.5 -6 l-122 0 q19 -4 30 -14 q20 -19 40 -39.5 q20 -20.5 39 -41.5 q19 -21 37 -42.5 q18 -21.5 33 -41.5 q8 -10 10 -24 q2 -14 -1.5 -27.5 q-3.5 -13.5 -11 -25.5 q-7.5 -12 -19.5 -19 l-4 -2 q-12 -8 -27 -9 q-15 -1 -30 2.5 q-15 3.5 -28 11.5 q-13 8 -21 20 q-4 6 -8 11 q-11 -4 -23 -5 q-104 -7 -182.5 -12.5 q-78.5 -5.5 -137 -9.5 q-58.5 -4 -99 -7.5 q-40.5 -3.5 -69.5 -6.5 q-6 -1 -12 -1 q-12 0 -26 3.5 q-14 3.5 -27 11.5 q-7 4 -12 8 l-1 1 q-14 3 -24.5 12 q-10.5 9 -15.5 24 q-4 13 -1.5 28 q2.5 15 10 30 q7.5 15 18.5 29 q7 8 14 16 l1 1 q1 1 3 2 l1 1 q4 3 11 9 q11 8 27.5 23 q16.5 15 37 35.5 q20.5 20.5 43.5 46.5 l2 2 l-144 0 q-13 0 -26 6 q-13 6 -23.5 16 q-10.5 10 -16.5 23 ZM70 521 q0 10 6 32.5 q6 22.5 43 39.5 q98 45 185.5 103.5 q87.5 58.5 150.5 124.5 q14 15 32.5 19 q18.5 4 27.5 4 q15 0 28 -6 l2 -1 q14 -7 23.5 -19.5 q9.5 -12.5 12.5 -27.5 q3 -14 0 -29 q26 -20 58 -40 q35 -23 74.5 -45.5 q39.5 -22.5 82 -43 q42.5 -20.5 85.5 -38.5 q38 -15 44 -37 q6 -22 6 -32 q0 -24 -16 -46 q-14 -17 -33.5 -23 q-19.5 -6 -30.5 -6 q-13 0 -24 5 q-46 22 -92 49 q-2 0 -4 1 q2 -6 2 -13 q0 -13 -6 -25 q-6 -12 -16.5 -21.5 q-10.5 -9.5 -23 -15 q-12.5 -5.5 -26.5 -5.5 l-319 0 q-14 0 -27 5.5 q-13 5.5 -23.5 15 q-10.5 9.5 -16.5 21.5 q-6 12 -6 25 l0 3 q-43 -25 -88 -47 q-11 -5 -24.5 -5.5 q-13.5 -0.5 -26.5 3.5 q-13 4 -24.5 11 q-11.5 7 -18.5 16 q-17 23 -17 48 Z" /><glyph glyph-name="uni4F1F" unicode="&#x4f1f;" d="M317 286 q0 12 6 24 q6 12 16.5 21.5 q10.5 9.5 23.5 15.5 q13 6 26 6 l169 0 l0 59 l-113 0 q-13 0 -26 6 q-13 6 -23.5 15.5 q-10.5 9.5 -16.5 21.5 q-6 12 -6 24 q0 13 6 25 q6 12 16.5 21.5 q10.5 9.5 23.5 15 q13 5.5 26 5.5 l113 0 l0 55 l-138 0 q-13 0 -26 6 q-13 6 -23.5 15.5 q-10.5 9.5 -16.5 21.5 q-6 12 -6 24 q0 13 6 25 q6 12 16.5 21.5 q10.5 9.5 23.5 15 q13 5.5 26 5.5 l138 0 l0 49 q0 14 6 26.5 q6 12.5 16 23 q10 10.5 22.5 16.5 q12.5 6 25.5 6 q13 0 25.5 -6 q12.5 -6 22 -16.5 q9.5 -10.5 15.5 -23 q6 -12.5 6 -26.5 l0 -49 l184 0 q14 0 26.5 -5.5 q12.5 -5.5 23 -15 q10.5 -9.5 16.5 -21.5 q6 -12 6 -25 q0 -12 -6 -24 q-6 -12 -16.5 -21.5 q-10.5 -9.5 -23 -15.5 q-12.5 -6 -26.5 -6 l-184 0 l0 -55 l145 0 q14 0 26.5 -5.5 q12.5 -5.5 23 -15 q10.5 -9.5 16.5 -21.5 q6 -12 6 -25 q0 -12 -6 -24 q-6 -12 -16.5 -21.5 q-10.5 -9.5 -23 -15.5 q-12.5 -6 -26.5 -6 l-145 0 l0 -59 l206 0 q12 0 23 -5 q13 -3 22 -8 q11 -6 18 -14 q7 -8 6 -16 l0 -7 q3 -9 3 -17 q0 -12 -5 -24 q-4 -42 -7 -76 q-6 -48 -12 -82 q-6 -34 -13.5 -55.5 q-7.5 -21.5 -17.5 -33.5 q-14 -18 -29.5 -26 q-15.5 -8 -33.5 -12 q-5 -2 -11.5 -2.5 q-6.5 -0.5 -14.5 -1.5 q-12 -1 -24 2.5 q-12 3.5 -22 10.5 q-10 7 -16.5 15.5 q-6.5 8.5 -8.5 17.5 q-3 16 -3 29 q0 12 4 28.5 q4 16.5 24 16.5 q8 0 14 2.5 q6 2.5 12 9.5 q5 6 9.5 21 q4.5 15 9.5 42 q3 21 6 50 l-139 0 l0 -240 q0 -14 -6 -26.5 q-6 -12.5 -15.5 -23 q-9.5 -10.5 -22 -16.5 q-12.5 -6 -25.5 -6 q-13 0 -25.5 6 q-12.5 6 -22.5 16.5 q-10 10.5 -16 23 q-6 12.5 -6 26.5 l0 240 l-169 0 q-13 0 -26 6 q-13 6 -23.5 15.5 q-10.5 9.5 -16.5 21.5 q-6 12 -6 25 ZM35 473 q0 6 2 23 q2 17 15 34 q44 53 82.5 118.5 q38.5 65.5 68.5 136.5 q5 12 15.5 22.5 q10.5 10.5 23 16.5 q12.5 6 26 8 q13.5 2 25.5 -2 q14 -4 24.5 -14 q10.5 -10 16.5 -23 q6 -13 7.5 -27.5 q1.5 -14.5 -4.5 -27.5 q-27 -64 -59 -126 l0 -635 q0 -13 -6 -26 q-6 -13 -15.5 -23 q-9.5 -10 -22 -16 q-12.5 -6 -25.5 -6 q-13 0 -25 6 q-12 6 -22 16.5 q-10 10.5 -16 23 q-6 12.5 -6 26.5 l0 421 q-5 -3 -10 -5 q-15 -6 -30 -4 q-15 2 -29 12.5 q-14 10.5 -23 28.5 q-2 2 -2.5 4 q-0.5 2 -2.5 4 q-8 14 -8 34 Z" /><glyph glyph-name="uni4F20" unicode="&#x4f20;" d="M294 502 q0 13 6 25 q6 12 16 21.5 q10 9.5 23 15 q13 5.5 26 5.5 l106 0 l14 54 l-60 0 q-14 0 -27 5.5 q-13 5.5 -23.5 15 q-10.5 9.5 -16.5 21.5 q-6 12 -6 24 q0 12 6 24 q6 12 16.5 21.5 q10.5 9.5 23.5 15 q13 5.5 27 5.5 l92 0 q2 11 5 22 q3 12 11 23 q8 11 19.5 18.5 q11.5 7.5 24.5 12 q13 4.5 25 2.5 q15 -2 27.5 -10.5 q12.5 -8.5 21 -21 q8.5 -12.5 12.5 -26.5 q2 -10 1 -20 l178 0 q14 0 27 -5.5 q13 -5.5 23.5 -15 q10.5 -9.5 16.5 -21.5 q6 -12 6 -24 q0 -12 -6 -24 q-6 -12 -16.5 -21.5 q-10.5 -9.5 -23.5 -15 q-13 -5.5 -27 -5.5 l-210 0 q-6 -27 -13 -54 l280 0 q13 0 26 -5.5 q13 -5.5 23 -15 q10 -9.5 16 -21.5 q6 -12 6 -25 q0 -12 -6 -24 q-6 -12 -16 -21.5 q-10 -9.5 -23 -15.5 q-13 -6 -26 -6 l-315 0 q-7 -24 -13 -47 q-2 -9 -5 -18 l222 0 q12 0 24 -5 l4 2 q6 3 13 3 q2 0 4.5 0.5 q2.5 0.5 4.5 0.5 q7 2 19.5 -0.5 q12.5 -2.5 20.5 -7.5 l8 -5 q13 -9 21 -22.5 q8 -13.5 10 -28.5 q2 -15 -2 -30 q-4 -15 -15 -26 q-24 -26 -49.5 -52.5 q-25.5 -26.5 -51.5 -53.5 q-26 -27 -52 -53 q-6 -7 -12 -13 q17 -11 32 -23 q11 -8 17.5 -21 q6.5 -13 7 -27 q0.5 -14 -3.5 -28 q-4 -14 -14 -24 q-9 -11 -23 -16.5 q-14 -5.5 -29 -6 q-15 -0.5 -29 3.5 q-14 4 -25 13 q-16 13 -34 27 q-18 14 -37.5 27.5 q-19.5 13.5 -39.5 27.5 q-20 14 -40 27 q-15 10 -23 24 q-8 14 -10 29.5 q-2 15.5 3.5 30 q5.5 14.5 17.5 25.5 q13 11 27 12 q14 1 18 1 q17 0 29 -6 q20 -10 39 -22 q21 21 42 43 l39 39 l-134 0 q-13 0 -26 6 q-11 5 -19 12 q-2 -1 -3 -2 q-21 -16 -41 -16 l-8 0 q-18 0 -32.5 7.5 q-14.5 7.5 -23.5 20.5 q-9 13 -11 24 q-2 11 -2 17 q0 10 3 21 q15 50 31 106 q1 2 1 4 l-69 0 q-13 0 -26 6 q-13 6 -23 15.5 q-10 9.5 -16 21.5 q-6 12 -6 24 ZM29 473 q0 6 2 23 q2 17 16 34 q45 53 84.5 119 q39.5 66 69.5 138 q5 12 15.5 21.5 q10.5 9.5 23 15.5 q12.5 6 26 8 q13.5 2 25.5 -2 q14 -4 24.5 -14 q10.5 -10 16.5 -23.5 q6 -13.5 7.5 -28 q1.5 -14.5 -4.5 -27.5 q-30 -69 -66 -136 l0 -623 q0 -14 -6 -26.5 q-6 -12.5 -16 -23 q-10 -10.5 -22.5 -16.5 q-12.5 -6 -25.5 -6 q-13 0 -26 6 q-13 6 -23 16.5 q-10 10.5 -16 23 q-6 12.5 -6 26.5 l0 416 q-1 0 -3 -1 q-15 -6 -30.5 -3.5 q-15.5 2.5 -29.5 13 q-14 10.5 -23 28.5 q-2 2 -2.5 4 q-0.5 2 -2.5 4 q-8 14 -8 34 Z" /><glyph glyph-name="uni4F24" unicode="&#x4f24;" d="M337 -13 q0 9 5.5 30.5 q5.5 21.5 34.5 46.5 q47 40 74.5 87.5 q27.5 47.5 43.5 101.5 q7 26 12 54 l-89 0 q-13 0 -26 5.5 q-13 5.5 -23.5 15 q-10.5 9.5 -16.5 21.5 q-6 12 -6 25 q0 12 6 24 q6 12 16.5 21.5 q10.5 9.5 23.5 15 q13 5.5 26 5.5 l104 0 q2 26 3 52 q0 13 6.5 25.5 q6.5 12.5 16.5 22 q10 9.5 23 15.5 q13 6 26 6 q14 0 27.5 -6.5 q13.5 -6.5 23.5 -17 q10 -10.5 16 -23.5 q6 -13 5 -27 q-1 -24 -3 -47 l193 0 q14 0 27 -5 q5 -3 9 -6 q5 -2 9 -4 q11 -7 18 -16 q7 -9 7 -18 l0 -3 q2 -7 2 -14 q0 -8 -2 -16 q-2 -88 -5 -152 q-3 -72 -8 -121 q-5 -49 -12.5 -78 q-7.5 -29 -18.5 -43 q-19 -26 -40.5 -36 q-21.5 -10 -49.5 -14 q-14 -2 -32.5 -3.5 q-18.5 -1.5 -39.5 -1.5 q-1 0 -3 0 q-23 0 -45 15.5 q-22 15.5 -27 34.5 q-3 9 -3 18 q0 21 19 40.5 q19 19.5 62 19.5 q13 0 21 3 q8 3 16 11 q7 8 12 31.5 q5 23.5 8 67 q3 43.5 5 109.5 q1 22 1 48 l-137 0 q-11 -67 -32 -128 q-24 -70 -65.5 -130.5 q-41.5 -60.5 -107.5 -109.5 q-11 -9 -25 -11.5 q-14 -2.5 -27.5 -1 q-13.5 1.5 -25 7 q-11.5 5.5 -18.5 14.5 q-14 18 -14 39 ZM328 561 q0 15 5 31 q5 16 15 30 q26 35 46.5 76.5 q20.5 41.5 37.5 86.5 q4 12 13.5 23 q9.5 11 21.5 18.5 q12 7.5 26 10.5 q14 3 26 0 q14 -3 25.5 -12 q11.5 -9 18.5 -22 q7 -13 9 -27 q2 -14 -3 -28 q-5 -15 -11 -29 l307 0 q14 0 26.5 -6 q12.5 -6 23 -15.5 q10.5 -9.5 16.5 -21.5 q6 -12 6 -25 q0 -13 -6 -25.5 q-6 -12.5 -16.5 -22 q-10.5 -9.5 -23 -15.5 q-12.5 -6 -26.5 -6 l-343 0 q-13 0 -26 6 l-1 0 q-21 -37 -45 -69 q-8 -11 -20.5 -17.5 q-12.5 -6.5 -26 -8 q-13.5 -1.5 -26.5 1 q-13 2.5 -22 9.5 q-13 9 -20 24 q-7 15 -7 33 ZM31 473 q0 6 2 23 q2 17 16 34 q45 53 84.5 119 q39.5 66 69.5 138 q5 12 15.5 21.5 q10.5 9.5 23 15.5 q12.5 6 26 8 q13.5 2 25.5 -2 q14 -4 24.5 -14 q10.5 -10 16.5 -23.5 q6 -13.5 7.5 -28 q1.5 -14.5 -4.5 -27.5 q-31 -72 -69 -142 l0 -618 q0 -13 -6 -26 q-6 -13 -15.5 -23 q-9.5 -10 -22 -16 q-12.5 -6 -25.5 -6 q-13 0 -25 6 q-12 6 -22 16.5 q-10 10.5 -16 23 q-6 12.5 -6 26.5 l0 416 q-1 0 -3 -1 q-15 -6 -30.5 -3.5 q-15.5 2.5 -29.5 13 q-14 10.5 -23 28.5 q-2 2 -2.5 4 q-0.5 2 -2.5 4 q-8 14 -8 34 Z" /><glyph glyph-name="uni4F2A" unicode="&#x4f2a;" d="M358 680 q-7 13 -8 28.5 q-1 15.5 3.5 29.5 q4.5 14 14.5 26 q10 12 24 18 q10 4 21 4 q10 0 29.5 -5 q19.5 -5 30.5 -22 q5 -7 9 -13.5 q4 -6.5 9 -13.5 q7 -11 7.5 -24 q0.5 -13 -3 -26 q-3.5 -13 -12.5 -23.5 q-9 -10.5 -21 -15.5 q-13 -6 -28.5 -6 q-15.5 0 -30 5.5 q-14.5 5.5 -26.5 15 q-12 9.5 -19 22.5 ZM311 0 q0 3 1 22 q1 19 24 45 q42 47 71.5 100.5 q29.5 53.5 49 111 q19.5 57.5 30.5 118.5 q7 36 11 73 l-96 0 q-14 0 -27 6 q-13 6 -23.5 16 q-10.5 10 -16.5 23 q-6 13 -6 26 q0 14 6 26.5 q6 12.5 16.5 22.5 q10.5 10 23.5 16 q13 6 27 6 l108 0 q0 16 1 31 q1 62 1 122 q0 13 6.5 26 q6.5 13 16.5 23 q10 10 23 16 q13 6 26 6 l7 0 q14 0 27 -6.5 q13 -6.5 23 -17 q10 -10.5 16 -23.5 q6 -13 6 -27 q-1 -69 -4 -141 q-1 -4 -1 -9 l220 0 q14 0 27 -6 q13 -6 24 -16 q0 -1 1 -2 q7 -6 12 -13 q5 -9 7 -17 q2 -8 2 -17 q0 -8 -2 -16 q-3 -130 -7 -222 q-5 -99 -11 -165 q-6 -66 -14.5 -103.5 q-8.5 -37.5 -21.5 -55.5 q-21 -30 -43 -42 q-22 -12 -51 -18 q-15 -3 -34 -4 q-19 -1 -41 -2 q-24 0 -46.5 17 q-22.5 17 -27.5 37 q-3 11 -3 21 q0 22 17 43 q17 21 59 21 q13 0 21 3.5 q8 3.5 16 13.5 q9 11 15.5 43.5 q6.5 32.5 11 93.5 q4.5 61 7.5 154 q2 50 3 110 l-153 0 q-7 -51 -16 -101 q4 3 9 6 q12 6 27 6 q10 0 29 -4.5 q19 -4.5 32 -23.5 q11 -16 21 -31.5 q10 -15.5 19 -31.5 q6 -10 6.5 -22.5 q0.5 -12.5 -3.5 -25 q-4 -12.5 -11.5 -23 q-7.5 -10.5 -18.5 -16.5 l-1 0 q-13 -7 -22.5 -7.5 q-9.5 -0.5 -11.5 -0.5 q-13 0 -27 4.5 q-14 4.5 -26.5 14.5 q-12.5 10 -20.5 24 q-5 8 -9.5 16.5 q-4.5 8.5 -9.5 17.5 q-2 3 -3 7 q-12 -42 -27 -83 q-25 -67 -61 -128.5 q-36 -61.5 -86 -116.5 q-10 -11 -24 -16 q-14 -5 -28.5 -5 q-14.5 0 -28 5 q-13.5 5 -22.5 14 q-21 20 -21 51 ZM30 478 q0 6 2 23.5 q2 17.5 17 34.5 q45 53 84.5 117.5 q39.5 64.5 70.5 133.5 q5 12 15 22 q10 10 23 16 q13 6 27 8 q14 2 26 -2 q14 -4 25 -14.5 q11 -10.5 17.5 -24 q6.5 -13.5 7.5 -28 q1 -14.5 -5 -28.5 q-28 -63 -62 -125 l0 -632 q0 -14 -6 -26.5 q-6 -12.5 -15.5 -23 q-9.5 -10.5 -22 -16.5 q-12.5 -6 -25.5 -6 q-13 0 -25.5 6 q-12.5 6 -22.5 16.5 q-10 10.5 -16 23 q-6 12.5 -6 26.5 l0 427 q-6 -5 -13 -7 q-11 -4 -22 -4 q-5 0 -15 1.5 q-10 1.5 -24 12 q-14 10.5 -23 27.5 q-1 2 -1.5 2.5 q-0.5 0.5 -1.5 2.5 q-9 16 -9 37 Z" /><glyph glyph-name="uni4F30" unicode="&#x4f30;" d="M514 84 l258 0 l0 135 q0 2 -2 4 q-2 2 -4 2 l-246 0 q-2 0 -4 -2 q-2 -2 -2 -4 l0 -135 ZM337 563.5 q-6 12.5 -6 25.5 q0 13 6 25.5 q6 12.5 16.5 22.5 q10.5 10 23.5 16 q13 6 27 6 l164 0 l0 125 q0 14 6 26.5 q6 12.5 16 23 q10 10.5 23 16.5 q13 6 26 6 l10 0 q13 0 26 -6 q13 -6 23 -16.5 q10 -10.5 16 -23 q6 -12.5 6 -26.5 l0 -125 l182 0 q14 0 27 -6 q13 -6 23.5 -16 q10.5 -10 16.5 -22.5 q6 -12.5 6 -25.5 q0 -13 -6 -25.5 q-6 -12.5 -16.5 -22.5 q-10.5 -10 -23.5 -16 q-13 -6 -27 -6 l-182 0 l0 -157 l132 0 q13 0 26 -6 q13 -6 23 -16.5 q10 -10.5 16 -23.5 q6 -13 6 -27 l0 -307 q0 -14 -6 -27 q-6 -13 -16.5 -23.5 q-10.5 -10.5 -23 -16.5 q-12.5 -6 -26.5 -6 l-7 0 q-13 0 -26 6 q-13 6 -23 17 q-8 7 -13 15 l-276 0 q-6 -11 -14 -19 q-11 -11 -23.5 -17 q-12.5 -6 -26.5 -6 q-13 0 -26 6 q-13 6 -23.5 16 q-10.5 10 -16.5 23 q-6 13 -6 26 l0 315 q0 13 6 26 q6 13 16 23 q10 10 23 16 q13 6 26 6 l127 0 l0 157 l-164 0 q-14 0 -27 6 q-13 6 -23.5 16 q-10.5 10 -16.5 22.5 ZM31 473 q0 6 2 23 q2 17 16 34 q45 53 84.5 119 q39.5 66 69.5 138 q5 12 15.5 21.5 q10.5 9.5 23 15.5 q12.5 6 26 8 q13.5 2 25.5 -2 q14 -4 24.5 -14 q10.5 -10 16.5 -23.5 q6 -13.5 7.5 -28 q1.5 -14.5 -4.5 -27.5 q-31 -72 -69 -142 l0 -618 q0 -13 -6 -26 q-6 -13 -15.5 -23 q-9.5 -10 -22 -16 q-12.5 -6 -25.5 -6 q-13 0 -25 6 q-12 6 -22 16.5 q-10 10.5 -16 23 q-6 12.5 -6 26.5 l0 416 q-1 0 -3 -1 q-15 -6 -30.5 -3.5 q-15.5 2.5 -29.5 13 q-14 10.5 -23 28.5 q-2 2 -2.5 4 q-0.5 2 -2.5 4 q-8 14 -8 34 Z" /><glyph glyph-name="uni4F34" unicode="&#x4f34;" d="M779 613.5 q-5 13.5 -5.5 28.5 q-0.5 15 4.5 28 q7 17 13 33.5 q6 16.5 11 33.5 q5 14 15 25.5 q10 11.5 23 19 q13 7.5 28 9.5 q15 2 29 -3 q14 -4 24.5 -15 q10.5 -11 16.5 -25 q6 -14 6 -29.5 q0 -15.5 -7 -29.5 q-11 -22 -20.5 -42 q-9.5 -20 -19.5 -40 q-11 -20 -31 -28 q-20 -8 -33 -8 q-10 0 -18 3 q-12 5 -21.5 15.5 q-9.5 10.5 -14.5 24 ZM385 690 q-5 14 -4 28.5 q1 14.5 6 28 q5 13.5 14.5 24 q9.5 10.5 21.5 15.5 q9 3 18 3 q13 0 33.5 -9 q20.5 -9 30.5 -31 q10 -23 19 -47 q9 -24 17 -47 q3 -8 3 -16 q0 -14 -10.5 -34 q-10.5 -20 -30.5 -28 q-15 -6 -30.5 -3.5 q-15.5 2.5 -29 10.5 q-13.5 8 -24 20.5 q-10.5 12.5 -15.5 28.5 q-5 14 -9.5 28.5 q-4.5 14.5 -9.5 28.5 ZM329 229 q0 13 6 25 q6 12 16.5 21.5 q10.5 9.5 23.5 15 q13 5.5 26 5.5 l178 0 l0 111 l-139 0 q-13 0 -26 6 q-13 6 -23 15.5 q-10 9.5 -16 21.5 q-6 12 -6 24 q0 13 6 25 q6 12 16 21.5 q10 9.5 23 15 q13 5.5 26 5.5 l139 0 l0 229 q0 13 6 26 q6 13 16 23 q10 10 23 16 q13 6 26 6 l5 0 q13 0 26 -6 q13 -6 23 -16 q10 -10 16 -23 q6 -13 6 -26 l0 -229 l140 0 q27 0 49 -20.5 q22 -20.5 22 -46.5 q0 -12 -6 -24 q-6 -12 -16 -21.5 q-10 -9.5 -22.5 -15.5 q-12.5 -6 -26.5 -6 l-140 0 l0 -111 l180 0 q14 0 26.5 -5.5 q12.5 -5.5 23 -15 q10.5 -9.5 16.5 -21.5 q6 -12 6 -25 q0 -12 -6 -24 q-6 -12 -16.5 -21.5 q-10.5 -9.5 -23 -15.5 q-12.5 -6 -26.5 -6 l-180 0 l0 -186 q0 -13 -6 -26 q-6 -13 -16 -23 q-10 -10 -23 -16 q-13 -6 -26 -6 l-5 0 q-13 0 -26 6 q-13 6 -23 16 q-10 10 -16 23 q-6 13 -6 26 l0 186 l-178 0 q-13 0 -26 6 q-13 6 -23.5 15.5 q-10.5 9.5 -16.5 21.5 q-6 12 -6 24 ZM30 471 q0 8 2.5 26.5 q2.5 18.5 17.5 35.5 q48 54 90.5 119.5 q42.5 65.5 75.5 137.5 q5 12 15.5 21.5 q10.5 9.5 23 15.5 q12.5 6 25.5 7.5 q13 1.5 25 -2.5 q14 -4 24.5 -14.5 q10.5 -10.5 16.5 -23.5 q6 -13 6.5 -27.5 q0.5 -14.5 -5.5 -27.5 q-27 -58 -59 -116 l0 -644 q0 -13 -6 -26 q-6 -13 -15.5 -23 q-9.5 -10 -22 -16 q-12.5 -6 -25.5 -6 q-13 0 -25 6 q-12 6 -22 16.5 q-10 10.5 -16 23 q-6 12.5 -6 26.5 l0 436 q-12 -14 -26 -20 q-11 -4 -23 -4 l-13 2 q-12 1 -25.5 11.5 q-13.5 10.5 -22.5 27.5 l-1 3 l-2 2 q-7 14 -7 33 Z" /><glyph glyph-name="uni4F38" unicode="&#x4f38;" d="M708 503 l107 0 l0 56 q0 3 -2 5 q-2 2 -4 2 l-101 0 l0 -63 ZM708 315 l107 0 l0 63 l-107 0 l0 -63 ZM460 495 q3 1 6 3 q13 5 26 5 l73 0 l0 63 l-99 0 q-2 0 -4 -2 q-2 -2 -2 -5 l0 -64 ZM460 304 l10 6 q13 5 26 5 l69 0 l0 63 l-73 0 q-13 0 -26 6 l-6 2 l0 -82 ZM324 207 l0 417 q0 14 6 27 q6 13 16.5 23.5 q10.5 10.5 23.5 16.5 q13 6 26 6 l169 0 l0 82 q0 14 6 26.5 q6 12.5 16.5 23 q10.5 10.5 23.5 16.5 q13 6 26 6 q13 0 26 -6 q13 -6 23 -16.5 q10 -10.5 16 -23 q6 -12.5 6 -26.5 l0 -82 l178 0 q14 0 26.5 -6 q12.5 -6 23 -16 q10.5 -10 16.5 -23 q6 -13 6 -26 l0 -410 q0 -13 -6 -26 q-6 -13 -16 -23 q-10 -10 -23 -16 q-13 -6 -26 -6 q-13 0 -26 6 q-13 6 -23 17 q-9 8 -14 17 q-6 -1 -12 -1 l-104 0 l0 -206 q0 -14 -6 -26.5 q-6 -12.5 -16 -23 q-10 -10.5 -23 -16.5 q-13 -6 -26 -6 q-13 0 -26 6 q-13 6 -23.5 16.5 q-10.5 10.5 -16.5 23 q-6 12.5 -6 26.5 l0 206 l-69 0 q-13 0 -26 6 q-6 2 -11 5 q-2 -8 -5 -15 q-6 -13 -15.5 -23.5 q-9.5 -10.5 -21.5 -16.5 q-12 -6 -25 -6 q-13 0 -25 6 q-12 6 -21.5 16.5 q-9.5 10.5 -15.5 23.5 q-6 13 -6 27 ZM25 473 q0 6 2 23 q2 17 16 34 q45 53 84.5 119 q39.5 66 69.5 138 q5 12 15.5 21.5 q10.5 9.5 23 15.5 q12.5 6 26 8 q13.5 2 25.5 -2 q14 -4 24.5 -14 q10.5 -10 16.5 -23.5 q6 -13.5 7.5 -28 q1.5 -14.5 -4.5 -27.5 q-29 -66 -63 -131 l0 -629 q0 -13 -6 -26 q-6 -13 -15.5 -23 q-9.5 -10 -22 -16 q-12.5 -6 -25.5 -6 q-13 0 -25 6 q-12 6 -22 16.5 q-10 10.5 -16 23 q-6 12.5 -6 26.5 l0 420 q-4 -3 -9 -5 q-15 -6 -30.5 -3.5 q-15.5 2.5 -29.5 13 q-14 10.5 -23 28.5 q-2 2 -2.5 4 q-0.5 2 -2.5 4 q-8 14 -8 34 Z" /><glyph glyph-name="uni4F3C" unicode="&#x4f3c;" d="M567 13 q0 36 24 64 q47 57 77.5 129 q30.5 72 49 157.5 q18.5 85.5 27 184.5 q8.5 99 11.5 210 q0 14 6.5 26.5 q6.5 12.5 17 22.5 q10.5 10 23.5 16 q13 6 26 6 q14 0 26.5 -6.5 q12.5 -6.5 22.5 -17 q10 -10.5 15.5 -24 q5.5 -13.5 5.5 -27.5 q-5 -129 -16 -243 q-11 -110 -33 -205 q18 -10 26 -28 q14 -29 27 -59 q13 -30 25.5 -59.5 q12.5 -29.5 23.5 -58.5 q11 -29 20 -55 q3 -8 3 -16 q0 -14 -9.5 -34 q-9.5 -20 -29.5 -30 l-2 -1 q-13 -6 -27 -6 q-2 0 -11 0.5 q-9 0.5 -23.5 7 q-14.5 6.5 -25.5 18.5 q-11 12 -16 27 q-7 24 -16.5 49.5 q-9.5 25.5 -19.5 52.5 q-2 4 -4 9 q-2 -4 -3 -8 q-37 -84 -91 -151 q-9 -12 -23 -17.5 q-14 -5.5 -29 -6.5 q-15 -1 -29 3.5 q-14 4.5 -24 13.5 q-25 21 -25 56 ZM508 651 q-4 13 -3.5 27.5 q0.5 14.5 5.5 27.5 q5 13 14 23 q9 10 21 14 q11 4 23 2.5 q12 -1.5 24 -7.5 q12 -6 21.5 -15 q9.5 -9 14.5 -21 q10 -25 20 -51.5 q10 -26.5 19 -52.5 q9 -26 17 -51 q8 -25 14 -48 q2 -7 2 -15 q0 -15 -10.5 -35.5 q-10.5 -20.5 -30.5 -28.5 q-15 -6 -30 -4 q-15 2 -28.5 10 q-13.5 8 -24 21 q-10.5 13 -14.5 29 q-5 21 -11.5 42.5 q-6.5 21.5 -13 44 q-6.5 22.5 -14 44.5 q-7.5 22 -15.5 44 ZM326 38 q-6 10 -7 24 q-1 14 1.5 29 q2.5 15 6.5 30 q4 15 9 28 q2 5 4 6 q2 1 3 3.5 q1 2.5 1.5 10 q0.5 7.5 0.5 24.5 l0 522 q0 14 6 26.5 q6 12.5 16 23 q10 10.5 23 16.5 q13 6 26 6 q13 0 25.5 -6 q12.5 -6 22.5 -16.5 q10 -10.5 16 -23 q6 -12.5 6 -26.5 l0 -495 l43 26 q15 9 31 11.5 q16 2.5 30 -1 q14 -3.5 25.5 -12.5 q11.5 -9 17.5 -22 q4 -9 4 -19 q0 -12 -7.5 -33 q-7.5 -21 -29.5 -35 q-25 -16 -46 -30 q-21 -14 -39 -26.5 q-18 -12.5 -33 -23 q-15 -10.5 -27 -19.5 q-18 -13 -36 -16 q-2 -1 -3 -1 q-5 -3 -9 -5 q-14 -6 -27 -6 q-2 0 -10.5 0.5 q-8.5 0.5 -22 8 q-13.5 7.5 -21.5 21.5 ZM23 467 q0 5 1.5 20 q1.5 15 12.5 29 q40 56 75.5 125 q35.5 69 62.5 144 q5 13 14.5 24 q9.5 11 21.5 18 q12 7 26 9.5 q14 2.5 26 -1.5 q13 -4 23 -13.5 q10 -9.5 16.5 -22 q6.5 -12.5 8 -26.5 q1.5 -14 -3.5 -27 q-23 -63 -51 -126 l0 -641 q0 -14 -6 -27 q-6 -13 -15.5 -23.5 q-9.5 -10.5 -22 -16.5 q-12.5 -6 -25.5 -6 q-13 0 -25 6 q-12 6 -22 16.5 q-10 10.5 -16 23 q-6 12.5 -6 26.5 l0 408 q-1 -1 -2 -1 q-15 -7 -30 -5 q-15 2 -28.5 13 q-13.5 11 -21.5 30 q-2 4 -3.5 7.5 q-1.5 3.5 -3.5 7.5 q-6 12 -6 29 Z" /><glyph glyph-name="uni4F46" unicode="&#x4f46;" d="M537 548 q0 -2 2 -4 q2 -2 5 -2 l201 0 q3 0 5 2 q2 2 2 4 l0 107 q0 2 -2 4 q-2 2 -5 2 l-201 0 q-3 0 -5 -2 q-2 -2 -2 -4 l0 -107 ZM537 291 q0 -2 2 -4 q2 -2 5 -2 l201 0 q3 0 5 2 q2 2 2 4 l0 111 q0 2 -2 4 q-2 2 -5 2 l-201 0 q-3 0 -5 -2 q-2 -2 -2 -4 l0 -111 ZM386 224 l0 498 q0 14 6 27 q6 13 16.5 23.5 q10.5 10.5 23.5 16.5 q13 6 26 6 l381 0 q14 0 26.5 -6 q12.5 -6 23 -16.5 q10.5 -10.5 16.5 -23.5 q6 -13 6 -27 l0 -498 q0 -14 -6 -27 q-6 -13 -16.5 -23.5 q-10.5 -10.5 -23 -16.5 q-12.5 -6 -26.5 -6 l-381 0 q-13 0 -26 6 q-13 6 -23.5 16.5 q-10.5 10.5 -16.5 23.5 q-6 13 -6 27 ZM323 3 q0 12 6 24 q6 12 16 21.5 q10 9.5 23 15.5 q13 6 26 6 l511 0 q13 0 26 -6 q13 -6 23 -15.5 q10 -9.5 16 -21.5 q6 -12 6 -24 q0 -13 -6 -25 q-6 -12 -16 -21.5 q-10 -9.5 -23 -15.5 q-13 -6 -26 -6 l-511 0 q-13 0 -26 6 q-13 6 -23 15.5 q-10 9.5 -16 21.5 q-6 12 -6 25 ZM33 472 q0 7 2 25 q2 18 16 35 q46 52 87 117.5 q41 65.5 73 137.5 q5 12 15.5 21.5 q10.5 9.5 23.5 15.5 q13 6 27 7.5 q14 1.5 26 -2.5 l2 0 q14 -4 24.5 -14.5 q10.5 -10.5 17 -24 q6.5 -13.5 7.5 -28.5 q1 -15 -5 -28 q-30 -68 -65 -133 l0 -623 q0 -14 -6.5 -26.5 q-6.5 -12.5 -17 -23 q-10.5 -10.5 -23 -16.5 q-12.5 -6 -26.5 -6 q-13 0 -26 6 q-13 6 -23.5 16.5 q-10.5 10.5 -16.5 23 q-6 12.5 -6 26.5 l0 414 q-5 -3 -9 -5 q-11 -4 -22 -4 q-5 0 -15 1.5 q-10 1.5 -23.5 12 q-13.5 10.5 -22.5 28.5 q-2 3 -3.5 6 q-1.5 3 -3.5 6 q-7 15 -7 35 Z" /><glyph glyph-name="uni4F4D" unicode="&#x4f4d;" d="M567 765 q-4 14 -2 29 q2 15 9.5 28.5 q7.5 13.5 19 23 q11.5 9.5 25.5 13.5 l2 0 q7 2 14 2 q17 0 39 -11.5 q22 -11.5 30 -33.5 q2 -7 4 -13 l4 -12 q5 -13 3 -27 q-2 -14 -9 -26 q-7 -12 -17.5 -21.5 q-10.5 -9.5 -23.5 -13.5 q-14 -4 -29.5 -1 q-15.5 3 -29 11 q-13.5 8 -23.5 19.5 q-10 11.5 -14 25.5 q0 2 -0.5 3.5 q-0.5 1.5 -1.5 3.5 ZM426 440 q-2 13 1 26.5 q3 13.5 10.5 25 q7.5 11.5 18 20 q10.5 8.5 22.5 11.5 q12 3 25.5 -0.5 q13.5 -3.5 25 -11.5 q11.5 -8 20 -19 q8.5 -11 11.5 -25 q6 -33 12.5 -68 q6.5 -35 12 -69 q5.5 -34 10.5 -67 q5 -33 9 -62 q0 -4 0 -7 q0 -19 -14 -40.5 q-14 -21.5 -35 -27.5 l-3 -1 q-9 -2 -18 -2 q-7 0 -18 2 q-11 2 -24 10.5 q-13 8.5 -21.5 22 q-8.5 13.5 -10.5 29.5 q-3 29 -7 60.5 q-4 31.5 -8.5 63.5 q-4.5 32 -9 65 q-4.5 33 -9.5 64 ZM365 598 q-6 13 -6 26 q0 13 6 25.5 q6 12.5 16 22.5 q10 10 23 16 q13 6 26 6 l426 0 q14 0 26.5 -6 q12.5 -6 22.5 -16 q10 -10 16 -22.5 q6 -12.5 6 -25.5 q0 -13 -6 -26 q-6 -13 -16 -23 q-10 -10 -22.5 -16 q-12.5 -6 -26.5 -6 l-426 0 q-13 0 -26 6 q-13 6 -23 16 q-10 10 -16 23 ZM332 -11.5 q-6 12.5 -6 25.5 q0 13 6 25.5 q6 12.5 16 22.5 q10 10 23 16 q13 6 26 6 l294 0 q-4 10 -5 21 q-3 15 0 29 q8 37 16 78 q8 41 15 83 q7 42 13 84.5 q6 42.5 11 82.5 q2 15 9.5 27.5 q7.5 12.5 19 22 q11.5 9.5 26 14 q14.5 4.5 28.5 2.5 l5 -1 q13 -2 25 -10.5 q12 -8.5 20 -20 q8 -11.5 12 -25 q4 -13.5 2 -26.5 q-8 -46 -17.5 -92.5 q-9.5 -46.5 -19.5 -91 q-10 -44.5 -20.5 -86.5 q-10.5 -42 -20.5 -79 q-2 -6 -5 -12 l81 0 q13 0 26 -6 q13 -6 23 -16 q10 -10 16 -22.5 q6 -12.5 6 -25.5 q0 -13 -6 -25.5 q-6 -12.5 -16 -22.5 q-10 -10 -23 -16 q-13 -6 -26 -6 l-489 0 q-13 0 -26 6 q-13 6 -23 16 q-10 10 -16 22.5 ZM46 473 q0 6 2 23 q2 17 16 34 q45 53 84.5 119 q39.5 66 69.5 138 q5 12 15.5 21.5 q10.5 9.5 23 15.5 q12.5 6 26 8 q13.5 2 25.5 -2 q14 -4 24.5 -14 q10.5 -10 16.5 -23.5 q6 -13.5 7.5 -28 q1.5 -14.5 -4.5 -27.5 q-27 -63 -60 -125 l0 -634 q0 -14 -6 -26.5 q-6 -12.5 -16 -23 q-10 -10.5 -23 -16.5 q-13 -6 -26 -6 l-5 0 q-13 0 -26 6 q-13 6 -23 16.5 q-10 10.5 -16 23 q-6 12.5 -6 26.5 l0 416 q-1 0 -3 -1 q-15 -6 -30.5 -3.5 q-15.5 2.5 -29.5 13 q-14 10.5 -23 28.5 q-2 2 -2.5 4 q-0.5 2 -2.5 4 q-8 14 -8 34 Z" /><glyph glyph-name="uni4F4E" unicode="&#x4f4e;" d="M588 72 q-5 13 -5.5 27.5 q-0.5 14.5 3.5 27 q4 12.5 11.5 21.5 q7.5 9 17.5 12 q5 2 11 2 q13 0 32 -12 q19 -12 28 -35 q11 -24 21 -48 q10 -24 18 -47 q5 -13 5 -27 q0 -12 -6 -30.5 q-6 -18.5 -26 -25.5 q-10 -4 -22 -1.5 q-12 2.5 -23.5 10 q-11.5 7.5 -20.5 19 q-9 11.5 -14 25.5 q-7 20 -14.5 40.5 q-7.5 20.5 -15.5 41.5 ZM499 473 q9 7 19 12 q13 6 26 6 l115 0 q-5 71 -8 148 q0 13 5 25 q-42 -8 -84 -15 q-37 -6 -73 -11 l0 -165 ZM349 -35 q-4 9 -2 23 q2 14 6 30 q4 16 7.5 32.5 q3.5 16.5 3.5 31.5 l0 575 q0 17 7.5 31 q7.5 14 19.5 24 l4 2 q3 9 10 18 q19 26 56 32 q47 8 92.5 17 q45.5 9 89 19 q43.5 10 84 21 q40.5 11 76.5 23 q8 2 18 2 q10 0 26.5 -3.5 q16.5 -3.5 28.5 -15.5 l12 -13 q14 -14 18.5 -30 q4.5 -16 0.5 -30.5 q-4 -14.5 -15.5 -26.5 q-11.5 -12 -29.5 -17 q-45 -12 -92 -22 q8 -9 13 -19 q6 -13 6 -27 q2 -78 7 -151 l91 0 q14 0 26.5 -6 q12.5 -6 23 -15.5 q10.5 -9.5 16.5 -21.5 q6 -12 6 -24 q0 -13 -6 -25 q-6 -12 -16.5 -21.5 q-10.5 -9.5 -23 -15.5 q-12.5 -6 -26.5 -6 l-80 0 q6 -56 13 -103 q11 -76 23 -120.5 q12 -44.5 23 -44.5 q21 0 33 11 q12 11 21 22.5 q9 11.5 18 17.5 q9 6 24 -4 q10 -7 14.5 -23 q4.5 -16 4.5 -26 q0 -8 -2 -15 q-10 -48 -23.5 -79 q-13.5 -31 -28.5 -48.5 q-15 -17.5 -31 -24 q-16 -6.5 -31 -6.5 q-53 0 -91 52 q-38 52 -63 147.5 q-25 95.5 -39 229.5 l-2 14 l-126 0 q-13 0 -26 6 q-10 5 -19 12 l0 -298 q13 2 26 0 q16 -3 28.5 -11 q12.5 -8 20.5 -19.5 q8 -11.5 8 -25.5 q0 -19 -17.5 -39.5 q-17.5 -20.5 -40.5 -26.5 q-16 -5 -30.5 -9 q-14.5 -4 -26.5 -7 q-16 -5 -32 -5 q-3 0 -5 0 q-16 1 -30 6 l-10 0 q-31 2 -41 26 ZM40 447 q0 5 1 21 q1 16 12 32 q43 58 81 130.5 q38 72.5 67 151.5 q5 13 15 23.5 q10 10.5 22.5 17.5 q12.5 7 26.5 9.5 q14 2.5 26 -1.5 q13 -4 23.5 -14 q10.5 -10 17 -22.5 q6.5 -12.5 8 -27 q1.5 -14.5 -3.5 -27.5 q-23 -60 -49 -119 l0 -643 q0 -14 -6 -26.5 q-6 -12.5 -15.5 -23 q-9.5 -10.5 -22 -16.5 q-12.5 -6 -25.5 -6 q-13 0 -25.5 6 q-12.5 6 -22.5 16.5 q-10 10.5 -16 23 q-6 12.5 -6 26.5 l0 397 q-6 -6 -13 -9 q-11 -5 -22 -5 q-4 0 -14 1.5 q-10 1.5 -24 12 q-14 10.5 -23 28.5 q-2 3 -3 5.5 q-1 2.5 -3 5.5 q-6 13 -6 33 Z" /><glyph glyph-name="uni4F4F" unicode="&#x4f4f;" d="M575 768 q0 17 6.5 31.5 q6.5 14.5 17.5 26 q11 11.5 26 16.5 q10 3 22.5 2 q12.5 -1 24 -5.5 q11.5 -4.5 21 -12 q9.5 -7.5 14.5 -16.5 q5 -11 10.5 -20.5 q5.5 -9.5 10.5 -20.5 q5 -11 4 -24 q-1 -13 -7 -25 q-6 -12 -15.5 -21.5 q-9.5 -9.5 -21.5 -14.5 l-3 0 q-14 -5 -29.5 -3.5 q-15.5 1.5 -29.5 8.5 q-14 7 -25 18.5 q-11 11.5 -17 25.5 l-3 6 q-6 14 -6 29 ZM336 -21.5 q-6 12.5 -6 25.5 q0 13 6 25.5 q6 12.5 16.5 22 q10.5 9.5 23.5 15.5 q13 6 26 6 l182 0 l0 171 l-130 0 q-13 0 -26 6 q-13 6 -23 15.5 q-10 9.5 -16 22 q-6 12.5 -6 25.5 q0 13 6 25 q6 12 16 21.5 q10 9.5 23 15.5 q13 6 26 6 l130 0 l0 152 l-161 0 q-13 0 -26 6 q-13 6 -23.5 16 q-10.5 10 -16.5 22 q-6 12 -6 25 q0 13 6 25.5 q6 12.5 16.5 22 q10.5 9.5 23.5 15.5 q13 6 26 6 l469 0 q14 0 26.5 -6 q12.5 -6 23 -15.5 q10.5 -9.5 16.5 -22 q6 -12.5 6 -25.5 q0 -13 -6 -25 q-6 -12 -16.5 -22 q-10.5 -10 -23 -16 q-12.5 -6 -26.5 -6 l-160 0 l0 -152 l134 0 q13 0 26 -6 q13 -6 23 -15.5 q10 -9.5 16 -21.5 q6 -12 6 -25 q0 -13 -6 -25.5 q-6 -12.5 -16 -22 q-10 -9.5 -23 -15.5 q-13 -6 -26 -6 l-134 0 l0 -171 l175 0 q14 0 26.5 -6 q12.5 -6 23 -15.5 q10.5 -9.5 16.5 -22 q6 -12.5 6 -25.5 q0 -13 -6 -25.5 q-6 -12.5 -16.5 -22 q-10.5 -9.5 -23 -15.5 q-12.5 -6 -26.5 -6 l-505 0 q-13 0 -26 6 q-13 6 -23.5 15.5 q-10.5 9.5 -16.5 22 ZM35 473 q0 6 2 23.5 q2 17.5 16 34.5 q45 53 84.5 118.5 q39.5 65.5 69.5 137.5 q5 12 15.5 21.5 q10.5 9.5 23 15.5 q12.5 6 26.5 8 q14 2 26 -2 l2 -1 q14 -4 25 -14.5 q11 -10.5 17 -23.5 q6 -13 7 -28 q1 -15 -5 -28 q-29 -67 -63 -132 l0 -625 q0 -14 -6 -26.5 q-6 -12.5 -16 -23 q-10 -10.5 -23 -16.5 q-13 -6 -26 -6 l-5 0 q-13 0 -26 6 q-13 6 -23 16.5 q-10 10.5 -16 23 q-6 12.5 -6 26.5 l0 411 q-1 -1 -2 -1 q-15 -6 -30.5 -3 q-15.5 3 -29.5 13.5 q-14 10.5 -23 27.5 q-2 3 -3 5.5 q-1 2.5 -3 5.5 q-8 16 -8 36 Z" /><glyph glyph-name="uni4F53" unicode="&#x4f53;" d="M299.5 128.5 q-4.5 14.5 -4.5 30 q0 15.5 5.5 30.5 q5.5 15 15.5 27 q28 35 53.5 74.5 q25.5 39.5 48.5 83 q23 43.5 43 89.5 q19 45 35 89 l-103 0 q-14 0 -27 6 q-13 6 -23.5 16 q-10.5 10 -16.5 22 q-6 12 -6 25 q0 13 6 25.5 q6 12.5 16.5 22 q10.5 9.5 23.5 15.5 q13 6 27 6 l165 0 l0 88 q0 13 6 26 q6 13 16 23 q10 10 23 16 q13 6 26 6 q14 0 26.5 -6 q12.5 -6 22.5 -16 q10 -10 16 -23 q6 -13 6 -26 l0 -88 l191 0 q14 0 27 -6 q13 -6 23.5 -15.5 q10.5 -9.5 16.5 -22 q6 -12.5 6 -25.5 q0 -13 -6 -25 q-6 -12 -16.5 -22 q-10.5 -10 -23.5 -16 q-13 -6 -27 -6 l-126 0 q2 -3 3 -7 q16 -43 35.5 -86.5 q19.5 -43.5 41.5 -84.5 q22 -41 46.5 -79.5 q24.5 -38.5 50.5 -71.5 q9 -12 14 -27 q5 -15 5 -30.5 q0 -15.5 -5 -29.5 q-5 -14 -15 -24 q-11 -11 -25.5 -16.5 q-14.5 -5.5 -30 -4 q-15.5 1.5 -29.5 9.5 q-14 8 -23 23 q-26 41 -49.5 87 q-23.5 46 -44.5 96 q-21 46 -39 96 l0 -210 l47 0 q14 0 26.5 -5.5 q12.5 -5.5 23 -14.5 q10.5 -9 16.5 -20.5 q6 -11.5 6 -23.5 q0 -12 -6 -24 q-6 -12 -16.5 -21 q-10.5 -9 -23 -14.5 q-12.5 -5.5 -26.5 -5.5 l-47 0 l0 -80 q0 -13 -6 -26 q-6 -13 -16 -23 q-10 -10 -22.5 -16 q-12.5 -6 -26.5 -6 q-13 0 -26 6 q-13 6 -23 16 q-10 10 -16 23 q-6 13 -6 26 l0 80 l-41 0 q-13 0 -26 5.5 q-13 5.5 -23.5 14.5 q-10.5 9 -16.5 21 q-6 12 -6 24 q0 12 6 23.5 q6 11.5 16.5 20.5 q10.5 9 23.5 14.5 q13 5.5 26 5.5 l41 0 l0 197 q-17 -44 -35 -86 q-23 -53 -49.5 -101 q-26.5 -48 -56.5 -90 q-9 -13 -23 -20.5 q-14 -7.5 -28.5 -8 q-14.5 -0.5 -28.5 4.5 q-14 5 -24 15 q-9 10 -13.5 24.5 ZM24 475 q0 5 1.5 21.5 q1.5 16.5 14.5 33.5 q41 53 77 118 q36 65 64 136 q5 12 15 22.5 q10 10.5 23 17 q13 6.5 27 8.5 q14 2 26 -2 q13 -4 23.5 -14 q10.5 -10 17 -23 q6.5 -13 7.5 -27.5 q1 -14.5 -4 -27.5 q-22 -56 -50 -111 l0 -650 q0 -13 -5.5 -26 q-5.5 -13 -15 -23 q-9.5 -10 -22 -16 q-12.5 -6 -25.5 -6 q-13 0 -25 6 q-12 6 -22 16.5 q-10 10.5 -16 23 q-6 12.5 -6 26.5 l0 422 q-4 -3 -9 -5 q-12 -5 -24 -5 q-3 0 -12.5 1 q-9.5 1 -23.5 11.5 q-14 10.5 -23 27.5 q-1 2 -2 5 q-1 3 -3 5 q-8 15 -8 35 Z" /><glyph glyph-name="uni4F55" unicode="&#x4f55;" d="M496 296 l70 0 q2 0 4 2 q2 2 2 4 l0 114 q0 2 -2 4 q-2 2 -4 2 l-70 0 l0 -126 ZM360 181 l0 293 q0 14 6 26.5 q6 12.5 15.5 23 q9.5 10.5 21.5 16.5 q12 6 25 6 q13 0 25 -6 q2 -1 5 -2 q3 1 6 3 q13 5 26 5 l144 0 q14 0 26.5 -6 q12.5 -6 23 -16.5 q10.5 -10.5 16.5 -23 q6 -12.5 6 -26.5 l0 -230 q0 -13 -6 -26 q-6 -13 -16.5 -23.5 q-10.5 -10.5 -23 -16.5 q-12.5 -6 -26.5 -6 l-139 0 q-1 -8 -5 -17 q-6 -13 -15.5 -23.5 q-9.5 -10.5 -21.5 -16.5 q-12 -6 -25 -6 q-13 0 -25 6 q-12 6 -21.5 16.5 q-9.5 10.5 -15.5 23.5 q-6 13 -6 26 ZM364 680.5 q-6 12.5 -6 25.5 q0 13 6 25.5 q6 12.5 16.5 22 q10.5 9.5 23.5 15.5 q13 6 26 6 l473 0 q14 0 26.5 -6 q12.5 -6 23 -15.5 q10.5 -9.5 16.5 -22 q6 -12.5 6 -25.5 q0 -13 -6 -25.5 q-6 -12.5 -16.5 -22.5 q-10.5 -10 -22.5 -16 q-4 -2 -8 -3 l0 -571 q0 -59 -13.5 -90.5 q-13.5 -31.5 -48.5 -48.5 q-27 -13 -63 -18.5 q-36 -5.5 -81 -7.5 q-1 0 -2 0 q-22 0 -44 17.5 q-22 17.5 -29 37.5 q-3 11 -3 22 q0 6 2 17 q2 11 11.5 23.5 q9.5 12.5 25.5 19.5 q16 7 36 7 l37 0 q14 0 20 4.5 q6 4.5 6 18.5 l0 566 l-346 0 q-13 0 -26 6 q-13 6 -23.5 16 q-10.5 10 -16.5 22.5 ZM38 482 q0 7 2.5 25 q2.5 18 16.5 35 q44 52 84 116.5 q40 64.5 71 134.5 q5 12 15.5 22 q10.5 10 23 16 q12.5 6 26.5 8 q14 2 26 -2 q13 -4 23.5 -14 q10.5 -10 16.5 -23.5 q6 -13.5 7 -28 q1 -14.5 -5 -27.5 q-23 -53 -50 -105 l0 -659 q0 -14 -6 -26.5 q-6 -12.5 -16.5 -23 q-10.5 -10.5 -23 -16.5 q-12.5 -6 -26.5 -6 q-14 0 -27 6 q-13 6 -23.5 16.5 q-10.5 10.5 -16.5 23 q-6 12.5 -6 26.5 l0 436 q-8 -7 -17 -11 q-11 -4 -22 -4 q-5 0 -15 1.5 q-10 1.5 -24 12 q-14 10.5 -23 27.5 q-1 2 -1.5 4 q-0.5 2 -2.5 4 q-7 14 -7 32 Z" /><glyph glyph-name="uni4F59" unicode="&#x4f59;" d="M664 117 q0 4 1.5 14 q1.5 10 10 24 q8.5 14 24.5 23 q12 6 29 6 q4 0 18.5 -1 q14.5 -1 28.5 -12 q14 -12 29 -24.5 q15 -12.5 29 -25.5 l28 -26 q14 -13 27 -25 q11 -11 15.5 -25.5 q4.5 -14.5 2 -28.5 q-2.5 -14 -10.5 -27 q-8 -13 -21 -21 l-4 -3 q-11 -6 -25 -8 q-14 -2 -28 0.5 q-14 2.5 -26.5 9 q-12.5 6.5 -21.5 15.5 q-9 10 -19 20.5 q-10 10.5 -20 21.5 l-22 21 q-11 11 -22 21 q-13 12 -18 26 q-5 14 -5 25 ZM336 555 l324 0 q-65 45 -137 109 q-13 12 -18 27 q-1 1 -1 2 q-20 -19 -41 -38 q-47 -41 -96 -78 q-15 -11 -31 -22 ZM84 18 q0 5 2.5 25 q2.5 20 31.5 44 q22 17 42 35.5 q20 18.5 37 37.5 q13 14 32 19.5 q19 5.5 30 5.5 q11 0 20 -3 l1 -1 q16 -6 26.5 -18 q10.5 -12 14.5 -26.5 q4 -14.5 1 -30 q-3 -15.5 -15 -28.5 q-26 -29 -54.5 -56.5 q-28.5 -27.5 -57.5 -51.5 q-17 -15 -44 -15 q-1 0 -15.5 0.5 q-14.5 0.5 -29.5 14.5 q-22 20 -22 48 ZM55 514 q0 10 3.5 22 q3.5 12 14.5 25 q11 13 28 21 q48 23 96 49 q48 26 93 56 q45 30 86.5 63.5 q41.5 33.5 75.5 69.5 q16 17 35 21.5 q19 4.5 28 4.5 q14 0 24 -6 q12 -7 19 -19 q7 -12 9 -26 q1 -9 0 -19 l6 0 q23 -4 37 -15 q75 -61 145.5 -102.5 q70.5 -41.5 139.5 -70.5 q37 -16 44 -37.5 q7 -21.5 7 -31.5 q0 -21 -14 -41 q-14 -20 -35 -26 q-21 -6 -33 -6 q-16 0 -30 7 q-41 20 -84 45 q1 -4 1 -8 q0 -12 -6 -23.5 q-6 -11.5 -16.5 -21 q-10.5 -9.5 -23 -15 q-12.5 -5.5 -26.5 -5.5 l-103 0 l0 -71 l256 0 q13 0 26 -6 q13 -6 23 -15.5 q10 -9.5 16 -21.5 q6 -12 6 -25 q0 -13 -6 -25 q-6 -12 -16 -21.5 q-10 -9.5 -23 -15.5 q-13 -6 -26 -6 l-256 0 l0 -162 q0 -51 -13 -80.5 q-13 -29.5 -48 -46.5 q-25 -12 -53.5 -17.5 q-28.5 -5.5 -62.5 -7.5 q-1 0 -3 0 l-32 15 q-31 15 -38 33 q-5 14 -5 26 q0 19 16 41 q16 22 59 22 l3 0 q12 1 17 4.5 q5 3.5 5 13.5 l0 159 l-240 0 q-13 0 -26 6 q-13 6 -23 15.5 q-10 9.5 -16 21.5 q-6 12 -6 25 q0 13 6 25 q6 12 16 21.5 q10 9.5 23 15.5 q13 6 26 6 l240 0 l0 71 l-112 0 q-13 0 -26 5.5 q-13 5.5 -23.5 15 q-10.5 9.5 -16.5 21.5 q-6 11 -6 22 q-36 -22 -73 -41 q-14 -8 -31 -8 q-10 0 -29.5 5 q-19.5 5 -33.5 24 q-11 15 -13 27 q-2 12 -2 18 Z" /><glyph glyph-name="uni4F5B" unicode="&#x4f5b;" d="M766 512 l35 0 q2 0 4 2 q2 2 2 5 l0 59 q0 3 -2 5 q-2 2 -4 2 l-35 0 l0 -73 ZM597 512 l43 0 l0 73 l-43 0 l0 -73 ZM597 322 l43 0 l0 68 l-43 0 l0 -68 ZM428 322 l43 0 l0 70 q-5 1 -10 4 q-12 5 -22 12 q-4 -32 -8 -65 q-1 -11 -3 -21 ZM296 272 q0 7 1 14 q7 38 12.5 79.5 q5.5 41.5 10.5 81.5 q3 25 22.5 45 q19.5 20 40.5 20 q13 0 24.5 -7 q11.5 -7 19.5 -18 l2 -2 q4 4 9 8 q15 13 33 17 l0 75 l-81 0 q-14 0 -27 5.5 q-13 5.5 -23.5 14 q-10.5 8.5 -16.5 19.5 q-6 11 -6 22 q0 23 22.5 42 q22.5 19 49.5 19 l82 0 l0 63 q0 14 5.5 27 q5.5 13 14.5 23.5 q9 10.5 20 16.5 q11 6 23 6 q24 0 43.5 -22.5 q19.5 -22.5 19.5 -50.5 l0 -63 l43 0 l0 64 q0 13 5.5 26 q5.5 13 14.5 23 q9 10 20 16 q11 6 23 6 q12 0 23.5 -6 q11.5 -6 20 -16 q8.5 -10 14 -23 q5.5 -13 5.5 -26 l0 -64 l96 0 q14 0 26.5 -6 q12.5 -6 23 -16.5 q10.5 -10.5 16.5 -23 q6 -12.5 6 -26.5 l0 -173 q0 -13 -6 -26 q-6 -13 -16.5 -23.5 q-10.5 -10.5 -23.5 -16.5 q-13 -6 -27 -6 l-95 0 l0 -68 l124 0 q6 0 12 -1 q20 -2 37 -11 q23 -12 22 -26 l0 -13 q1 -5 1 -10 q0 -5 -1 -9 q0 -43 -1 -76 q-2 -42 -4.5 -72 q-2.5 -30 -7 -49 q-4.5 -19 -12.5 -29 q-13 -17 -27 -24.5 q-14 -7.5 -31 -11.5 q-5 -1 -9.5 -1.5 q-4.5 -0.5 -10.5 -1.5 q-5 -1 -9 -1 q-21 0 -41 13 q-20 13 -24 30 q-3 16 -3 30 q0 11 3 26 q3 15 20 15 q8 -1 13 1.5 q5 2.5 10 8.5 q3 5 5 17 q2 12 3 35 q1 16 1 38 l-70 0 l0 -223 q0 -13 -5.5 -26 q-5.5 -13 -14 -23 q-8.5 -10 -20 -16 q-11.5 -6 -23.5 -6 q-12 0 -23 6 q-11 6 -20 16 q-9 10 -14.5 23 q-5.5 13 -5.5 26 l0 223 l-51 0 q-7 -52 -23 -98 q-19 -54 -53 -99 q-34 -45 -89 -78 q-15 -9 -34 -9 q-5 0 -21 2 q-16 2 -27 16 q-13 15 -13 33 q0 10 8 32 q8 22 37 49 q32 28 51 57.5 q19 29.5 29 64.5 q4 14 7 30 l-31 0 q-17 0 -31 7 q-6 2 -10 5 q-16 -12 -32 -12 q-14 0 -26.5 7.5 q-12.5 7.5 -20.5 19.5 q-8 12 -11 24 q-3 12 -3 21 ZM25 473 q0 6 2 23 q2 17 16 34 q45 53 84.5 119 q39.5 66 69.5 138 q5 12 15.5 21.5 q10.5 9.5 23 15.5 q12.5 6 26 8 q13.5 2 25.5 -2 q14 -4 24.5 -14 q10.5 -10 16.5 -23.5 q6 -13.5 7.5 -28 q1.5 -14.5 -4.5 -27.5 q-29 -66 -63 -131 l0 -629 q0 -13 -6 -26 q-6 -13 -15.5 -23 q-9.5 -10 -22 -16 q-12.5 -6 -25.5 -6 q-13 0 -25 6 q-12 6 -22 16.5 q-10 10.5 -16 23 q-6 12.5 -6 26.5 l0 420 q-4 -3 -9 -5 q-15 -6 -30.5 -3.5 q-15.5 2.5 -29.5 13 q-14 10.5 -23 28.5 q-2 2 -2.5 4 q-0.5 2 -2.5 4 q-8 14 -8 34 Z" /><glyph glyph-name="uni4F5C" unicode="&#x4f5c;" d="M342.5 447 q-5.5 14 -5.5 29.5 q0 15.5 4.5 31 q4.5 15.5 13.5 27.5 q39 52 73 115 q34 63 60 132 q5 12 14.5 22 q9.5 10 21.5 17 q12 7 26 9.5 q14 2.5 26 -0.5 q14 -4 25 -13.5 q11 -9.5 18 -22.5 q7 -13 8.5 -27.5 q1.5 -14.5 -4.5 -28.5 l-18 -44 l301 0 q14 0 26.5 -6 q12.5 -6 23 -15.5 q10.5 -9.5 16.5 -22 q6 -12.5 6 -25.5 q0 -13 -6 -25 q-6 -12 -16 -22 q-10 -10 -23 -16 q-13 -6 -26 -6 l-200 0 l0 -83 l172 0 q14 0 26.5 -5.5 q12.5 -5.5 23 -15 q10.5 -9.5 16.5 -21.5 q6 -12 6 -24 q0 -12 -6 -24 q-6 -12 -16.5 -21.5 q-10.5 -9.5 -23 -15 q-12.5 -5.5 -26.5 -5.5 l-172 0 l0 -90 l185 0 q14 0 26.5 -6 q12.5 -6 23 -15.5 q10.5 -9.5 16.5 -21.5 q6 -12 6 -24 q0 -13 -6 -25 q-6 -12 -16.5 -21.5 q-10.5 -9.5 -23 -15.5 q-12.5 -6 -26.5 -6 l-185 0 l0 -138 q0 -14 -6 -27 q-6 -13 -16.5 -23.5 q-10.5 -10.5 -23.5 -16.5 q-13 -6 -27 -6 l-4 0 q-14 0 -27 6 q-13 6 -23.5 16.5 q-10.5 10.5 -16.5 23.5 q-6 13 -6 27 l0 578 l-19 0 q-36 -66 -76 -120 q-9 -13 -22.5 -20 q-13.5 -7 -28 -8.5 q-14.5 -1.5 -28.5 2.5 q-14 4 -25 13 q-10 10 -15.5 24 ZM35 473 q0 6 2 23.5 q2 17.5 16 34.5 q45 53 84.5 118.5 q39.5 65.5 69.5 137.5 q5 12 15.5 21.5 q10.5 9.5 23 15.5 q12.5 6 26.5 8 q14 2 26 -2 l2 -1 q14 -4 25 -14.5 q11 -10.5 17 -23.5 q6 -13 7 -28 q1 -15 -5 -28 q-29 -67 -63 -132 l0 -625 q0 -14 -6 -26.5 q-6 -12.5 -16 -23 q-10 -10.5 -23 -16.5 q-13 -6 -26 -6 l-5 0 q-13 0 -26 6 q-13 6 -23 16.5 q-10 10.5 -16 23 q-6 12.5 -6 26.5 l0 411 q-1 -1 -2 -1 q-15 -6 -30.5 -3 q-15.5 3 -29.5 13.5 q-14 10.5 -23 27.5 q-2 3 -3 5.5 q-1 2.5 -3 5.5 q-8 16 -8 36 Z" /><glyph glyph-name="uni4F60" unicode="&#x4f60;" d="M763 290 q-5 14 -4 29.5 q1 15.5 7 29 q6 13.5 16.5 24.5 q10.5 11 23.5 15 q11 4 23.5 2.5 q12.5 -1.5 24.5 -6.5 q12 -5 21.5 -13.5 q9.5 -8.5 13.5 -19.5 q11 -26 20.5 -52.5 q9.5 -26.5 17.5 -53.5 q8 -27 15 -53 q7 -26 13 -50 q1 -5 1 -11 q0 -16 -12.5 -36.5 q-12.5 -20.5 -33.5 -27.5 q-11 -4 -23 -4 l-13 1 q-12 2 -26 10.5 q-14 8.5 -24 22 q-10 13.5 -13 29.5 q-4 20 -9.5 40 q-5.5 20 -11.5 41 q-6 21 -12.5 42 q-6.5 21 -14.5 41 ZM333 118.5 q-2 11.5 -2 19.5 q0 8 2 20.5 q2 12.5 9 27.5 q15 32 27.5 66.5 q12.5 34.5 22.5 71.5 q4 14 13 25.5 q9 11.5 21.5 19.5 q12.5 8 26.5 11.5 q14 3.5 27 0.5 q13 -3 24.5 -11.5 q11.5 -8.5 19 -20 q7.5 -11.5 10 -25.5 q2.5 -14 -0.5 -27 q-15 -53 -34 -102 q-19 -49 -40 -92 q-7 -13 -19 -22 q-12 -9 -25.5 -13 q-13.5 -4 -27.5 -2.5 q-14 1.5 -25 8.5 q-12 8 -19.5 20.5 q-7.5 12.5 -9.5 24 ZM306 517 q0 11 3 24.5 q3 13.5 12 26.5 q32 47 57.5 102 q25.5 55 44.5 115 q4 12 13.5 23 q9.5 11 22 18 q12.5 7 26.5 10 q14 3 27 0 q14 -3 25.5 -12 q11.5 -9 19 -22 q7.5 -13 10 -27 q2.5 -14 -2.5 -28 q-11 -32 -24 -64 l258 0 q14 0 27 -5 q5 -3 10 -5 q1 2 3 5 q4 5 9 5 q2 0 5.5 0.5 q3.5 0.5 5.5 0.5 l11 2 q2 1 5.5 0.5 q3.5 -0.5 5.5 -0.5 l29 -5 q13 -2 24.5 -10 q11.5 -8 19.5 -19.5 q8 -11.5 12 -24.5 q4 -13 2 -26 q-5 -29 -9.5 -56.5 q-4.5 -27.5 -9.5 -53.5 q-5 -26 -27 -42 q-22 -16 -40 -16 q-4 0 -9 1 q-23 5 -38 27 q-15 22 -15 44 q0 4 0 8 q2 20 4 41 q-12 -5 -25 -5 l-79 0 l0 -486 q0 -50 -10 -81 q-10 -31 -41 -49 q-20 -11 -43.5 -17.5 q-23.5 -6.5 -51.5 -9.5 q-2 0 -5 0 l-32 16 q-32 16 -37 36 q-4 14 -4 27 q0 19 13 41.5 q13 22.5 49 22.5 q10 0 14 3 q4 3 4 13 l0 484 l-48 0 q-18 0 -32 8 q-5 2 -9 5 q-25 -49 -53 -92 q-8 -12 -21 -19.5 q-13 -7.5 -27 -9.5 q-14 -2 -28 1 q-14 3 -25 12 q-12 9 -18 23.5 q-6 14.5 -7 24.5 q-1 10 -1 15 ZM25 473 q0 6 2 23 q2 17 16 34 q45 53 84.5 119 q39.5 66 69.5 138 q5 12 15.5 21.5 q10.5 9.5 23 15.5 q12.5 6 26 8 q13.5 2 25.5 -2 q14 -4 24.5 -14 q10.5 -10 16.5 -23.5 q6 -13.5 7.5 -28 q1.5 -14.5 -4.5 -27.5 q-29 -66 -63 -131 l0 -629 q0 -13 -6 -26 q-6 -13 -15.5 -23 q-9.5 -10 -22 -16 q-12.5 -6 -25.5 -6 q-13 0 -25 6 q-12 6 -22 16.5 q-10 10.5 -16 23 q-6 12.5 -6 26.5 l0 420 q-4 -3 -9 -5 q-15 -6 -30.5 -3.5 q-15.5 2.5 -29.5 13 q-14 10.5 -23 28.5 q-2 2 -2.5 4 q-0.5 2 -2.5 4 q-8 14 -8 34 Z" /><glyph glyph-name="uni4F6C" unicode="&#x4f6c;" d="M622 551 l45 0 q41 48 75 102 q-3 -4 -7 -8 q-10 -9 -23 -14.5 q-13 -5.5 -26 -5.5 l-64 0 l0 -74 ZM292.5 195 q-2.5 12 -2.5 20 q0 8 2.5 19.5 q2.5 11.5 13 25 q10.5 13.5 27.5 22.5 q111 59 205 139 l-167 0 q-13 0 -26 5.5 q-13 5.5 -23 15 q-10 9.5 -16 21 q-6 11.5 -6 23.5 q0 12 6 24 q6 12 16 21 q10 9 23 14.5 q13 5.5 26 5.5 l107 0 l0 74 l-65 0 q-13 0 -26 5.5 q-13 5.5 -23 14.5 q-10 9 -16 20.5 q-6 11.5 -6 23.5 q0 12 6 23.5 q6 11.5 16 20.5 q10 9 23 14.5 q13 5.5 26 5.5 l65 0 l0 28 q0 14 6 26.5 q6 12.5 16.5 23 q10.5 10.5 23.5 16.5 q13 6 26 6 q14 0 26.5 -6 q12.5 -6 23 -16.5 q10.5 -10.5 16.5 -23 q6 -12.5 6 -26.5 l0 -28 l64 0 q13 0 26 -5.5 q13 -5.5 23 -14.5 q10 -9 16 -20.5 q6 -11.5 6 -23.5 q0 -11 -5 -21 q26 42 49 86 q6 11 16.5 20 q10.5 9 23 14.5 q12.5 5.5 26.5 7 q14 1.5 26 -2.5 q14 -5 24.5 -16 q10.5 -11 16 -24.5 q5.5 -13.5 6 -28 q0.5 -14.5 -6.5 -27.5 q-41 -77 -90 -146 l62 0 q13 0 26 -5.5 q13 -5.5 23 -14.5 q10 -9 16 -21 q6 -12 6 -24 q0 -12 -6 -23.5 q-6 -11.5 -16 -21 q-10 -9.5 -23 -15 q-13 -5.5 -26 -5.5 l-166 0 q-19 -21 -39 -41 q-49 -49 -101 -92 q3 -10 3 -20 l0 -18 q18 6 35 13 q23 9 45.5 19 q22.5 10 43.5 20 q21 10 37.5 18.5 q16.5 8.5 35.5 8.5 q6 0 23 -2 q17 -2 32 -17 q12 -12 16 -27.5 q4 -15.5 1 -30.5 q-3 -15 -13 -27.5 q-10 -12.5 -27 -19.5 q-25 -10 -51.5 -20 q-26.5 -10 -53.5 -19.5 q-27 -9.5 -54 -18 q-27 -8.5 -54 -16.5 q-8 -2 -16 -3 l0 -31 q0 -14 2 -22 q2 -8 8 -12.5 q6 -4.5 17 -5.5 q11 -1 29 -1 l125 0 q5 0 9.5 0.5 q4.5 0.5 8 1 q3.5 0.5 6.5 2 q3 1.5 6 3.5 q18 12 30.5 26.5 q12.5 14.5 24 26 q11.5 11.5 23.5 17.5 q12 6 28 0 q19 -6 30 -27 q11 -21 11 -39 q0 -7 -1 -13 q-8 -39 -18 -64.5 q-10 -25.5 -27.5 -40.5 q-17.5 -15 -46 -21 q-28.5 -6 -72.5 -6 l-155 0 q-55 0 -90 8.5 q-35 8.5 -55.5 29 q-20.5 20.5 -28.5 53.5 q-8 33 -8 82 l0 91 q-30 -18 -60 -35 q-13 -7 -29 -7 q-9 0 -28 4 q-19 4 -34 21 q-12 14 -14.5 26 ZM25 473 q0 6 2 23 q2 17 16 34 q45 53 84.5 119 q39.5 66 69.5 138 q5 12 15.5 21.5 q10.5 9.5 23 15.5 q12.5 6 26 8 q13.5 2 25.5 -2 q14 -4 24.5 -14 q10.5 -10 16.5 -23.5 q6 -13.5 7.5 -28 q1.5 -14.5 -4.5 -27.5 q-29 -66 -63 -131 l0 -629 q0 -13 -6 -26 q-6 -13 -15.5 -23 q-9.5 -10 -22 -16 q-12.5 -6 -25.5 -6 q-13 0 -25 6 q-12 6 -22 16.5 q-10 10.5 -16 23 q-6 12.5 -6 26.5 l0 420 q-4 -3 -9 -5 q-15 -6 -30.5 -3.5 q-15.5 2.5 -29.5 13 q-14 10.5 -23 28.5 q-2 2 -2.5 4 q-0.5 2 -2.5 4 q-8 14 -8 34 Z" /></font>
</defs>
</svg>
