<?xml version="1.0" standalone="no"?><!DOCTYPE svg PUBLIC "-//W3C//DTD SVG 1.1//EN" "http://www.w3.org/Graphics/SVG/1.1/DTD/svg11.dtd" ><svg xmlns="http://www.w3.org/2000/svg"><metadata></metadata><defs><font id="JetBrainsMapleMono-ExtraLightItalic-pre" horiz-adv-x="1000"><font-face font-family="JetBrains Maple Mono ExtraLight" font-weight="200" font-stretch="normal" units-per-em="1000" panose-1="2 0 0 9 0 0 0 0 0 0" ascent="1020" descent="-300" x-height="0" bbox="-58 -180 1032 870" underline-thickness="50" underline-position="-155" unicode-range="U+0022-9f99" /><missing-glyph horiz-adv-x="600" d="M160 50 l300 0 l0 571 l-300 -571 ZM140 109 l300 571 l-300 0 l0 -571 ZM90 0 l0 730 l420 0 l0 -730 l-420 0 Z" /><glyph glyph-name="quotedbl" unicode="&quot;" d="M189 430 l41 300 l80 0 l-54 -300 l-67 0 ZM393 430 l41 300 l80 0 l-54 -300 l-67 0 Z" /><glyph glyph-name="dollar" unicode="$" d="M293 50 q60 6 98.5 40.5 q38.5 34.5 47.5 90.5 q2 13 2 26 q0 36 -20 70 q-20 34 -69 50 l-15 5 l-44 -282 ZM208 534 q0 -37 22 -71 q22 -34 73 -47 l42 264 q-55 -6 -90.5 -38 q-35.5 -32 -44.5 -83 q-2 -13 -2 -25 ZM62 151 q0 17 3 36 l66 0 q-2 -13 -2 -25 q0 -41 27 -73.5 q27 -32.5 89 -38.5 l47 297 l-26 8 q-70 22 -97.5 67.5 q-27.5 45.5 -27.5 93.5 q0 18 3 38 q12 79 68.5 128.5 q56.5 49.5 141.5 56.5 l21 131 l48 0 l-21 -131 q82 -6 118 -51.5 q36 -45.5 36 -102.5 q0 -18 -3 -38 l-66 0 q2 15 2 28 q0 37 -21.5 67.5 q-21.5 30.5 -74.5 37.5 l-45 -280 l32 -10 q71 -23 99.5 -71 q28.5 -48 28.5 -99 q0 -18 -3 -38 q-13 -81 -73 -132.5 q-60 -51.5 -148 -58.5 l-21 -131 l-48 0 l21 131 q-92 6 -133 52.5 q-41 46.5 -41 107.5 Z" /><glyph glyph-name="comma" unicode="," d="M146 -160 l105 306 l88 0 l-119 -306 l-74 0 Z" /><glyph glyph-name="hyphen" unicode="-" d="M144 301 l9 59 l320 0 l-9 -59 l-320 0 Z" /><glyph glyph-name="period" unicode="." d="M188 53 q0 7 1 14 q6 35 30.5 56.5 q24.5 21.5 59.5 21.5 q34 1 52 -21 q13 -16 13 -40 q0 -8 -1 -17 q-5 -34 -29.5 -55.5 q-24.5 -21.5 -59.5 -21.5 q-34 0 -52 22 q-14 18 -14 41 Z" /><glyph glyph-name="zero" unicode="0" d="M259 357 q0 5 1 11 q4 24 21 37 q17 13 41 13 q25 0 36 -11.5 q11 -11.5 11 -27.5 q0 -5 -1 -11 q-4 -25 -20.5 -38 q-16.5 -13 -41.5 -13 q-24 0 -35.5 11.5 q-11.5 11.5 -11.5 28.5 ZM139 171 q0 -49 29 -86.5 q29 -37.5 96 -37.5 q67 0 113 43 q46 43 57 115 l51 320 q3 19 3 36 q0 47 -28.5 84.5 q-28.5 37.5 -94.5 37.5 q-68 0 -114.5 -43 q-46.5 -43 -57.5 -115 l-51 -320 q-3 -18 -3 -34 ZM73 160 q0 21 4 45 l51 320 q17 103 81 159 q64 56 165 56 q96 0 138 -51 q42 -51 42 -117 q0 -22 -4 -47 l-51 -320 q-16 -103 -79.5 -159 q-63.5 -56 -164.5 -56 q-98 0 -140 51 q-42 51 -42 119 Z" /><glyph glyph-name="one" unicode="1" d="M52 0 l9 60 l204 0 l96 609 l-221 -146 l12 77 l197 130 l88 0 l-106 -670 l168 0 l-9 -60 l-438 0 Z" /><glyph glyph-name="two" unicode="2" d="M49 0 l9 60 l298 271 q116 106 131 202 q2 15 2 29 q0 47 -30 83.5 q-30 36.5 -98 36.5 q-68 0 -115.5 -41.5 q-47.5 -41.5 -58.5 -109.5 l-66 0 q17 98 83 153.5 q66 55.5 166 55.5 q98 0 142.5 -50.5 q44.5 -50.5 44.5 -117.5 q0 -19 -3 -39 q-9 -56 -46.5 -117.5 q-37.5 -61.5 -108.5 -124.5 l-257 -231 l346 0 l-9 -60 l-430 0 Z" /><glyph glyph-name="three" unicode="3" d="M62 154 q0 20 4 43 l66 0 q-3 -17 -3 -32 q0 -46 30 -81 q30 -35 95 -35 q65 0 111.5 40 q46.5 40 56.5 108 l10 60 q2 15 2 29 q0 46 -29 79.5 q-29 33.5 -96 33.5 l-68 0 l9 57 l224 214 l-310 0 l10 60 l385 0 l-10 -62 l-219 -211 q90 -3 130.5 -50.5 q40.5 -47.5 40.5 -109.5 q0 -19 -3 -40 l-10 -60 q-15 -98 -79 -152.5 q-64 -54.5 -165 -54.5 q-96 0 -139 49 q-43 49 -43 115 Z" /><glyph glyph-name="four" unicode="4" d="M61 166 l19 116 l348 447 l77 0 l-362 -466 l-6 -37 l267 0 l31 194 l66 0 l-67 -420 l-66 0 l26 166 l-333 0 Z" /><glyph glyph-name="five" unicode="5" d="M67 155 q0 20 4 42 l66 0 q-3 -17 -3 -32 q0 -46 30 -81 q30 -35 95 -35 q65 0 111.5 40 q46.5 40 56.5 108 l7 47 q3 19 3 35 q0 46 -27 81 q-27 35 -95 35 l-187 0 l53 335 l375 0 l-10 -60 l-313 0 l-33 -215 l127 0 q97 0 137 -49 q40 -49 40 -116 q0 -22 -4 -46 l-7 -47 q-14 -98 -78.5 -152.5 q-64.5 -54.5 -165.5 -54.5 q-95 0 -138.5 50 q-43.5 50 -43.5 115 Z" /><glyph glyph-name="six" unicode="6" d="M126 182 q0 -51 32.5 -92 q32.5 -41 105.5 -41 q48 0 87.5 21.5 q39.5 21.5 66 60 q26.5 38.5 34.5 88.5 q3 19 3 35 q0 52 -32.5 93.5 q-32.5 41.5 -104.5 41.5 q-48 0 -87.5 -21.5 q-39.5 -21.5 -66.5 -59.5 q-27 -38 -35 -89 q-3 -19 -3 -37 ZM59 175 q0 22 4 46 q8 47 33 95.5 q25 48.5 61 97.5 l231 316 l76 0 l-248 -331 l4 -3 q17 18 50 32 q33 14 75 14 q60 0 102.5 -29 q42.5 -29 58 -71 q15.5 -42 15.5 -80 q0 -20 -3 -42 q-16 -106 -87 -168 q-71 -62 -177 -62 q-67 0 -114 29.5 q-47 29.5 -64 72 q-17 42.5 -17 83.5 Z" /><glyph glyph-name="seven" unicode="7" d="M127 530 l32 200 l452 0 l-10 -63 l-373 -667 l-75 0 l377 670 l-315 0 l-22 -140 l-66 0 Z" /><glyph glyph-name="eight" unicode="8" d="M202 518 q0 -42 28.5 -75.5 q28.5 -33.5 90.5 -33.5 q62 0 106 37.5 q44 37.5 54 98.5 q2 14 2 27 q0 43 -28.5 76.5 q-28.5 33.5 -90.5 33.5 q-62 0 -106 -38 q-44 -38 -54 -99 q-2 -14 -2 -27 ZM127 171 q0 -48 33.5 -85 q33.5 -37 103.5 -37 q71 0 121.5 41.5 q50.5 41.5 60.5 107.5 q2 15 2 30 q0 48 -33 85 q-33 37 -104 37 q-70 0 -120.5 -42 q-50.5 -42 -61.5 -110 q-2 -14 -2 -27 ZM60 162 q0 18 3 37 q11 69 57 119 q46 50 113 64 l0 3 q-52 12 -74.5 50.5 q-22.5 38.5 -22.5 79.5 q0 16 3 32 q14 89 77 141 q63 52 157 52 q60 0 102 -25 q42 -25 58.5 -61.5 q16.5 -36.5 16.5 -72.5 q0 -16 -3 -34 q-9 -62 -49 -105.5 q-40 -43.5 -97 -56.5 l-1 -3 q61 -14 88 -58 q27 -44 27 -91 q0 -17 -3 -34 q-15 -96 -84.5 -152.5 q-69.5 -56.5 -173.5 -56.5 q-66 0 -112 27 q-46 27 -64 66.5 q-18 39.5 -18 78.5 Z" /><glyph glyph-name="nine" unicode="9" d="M177 476 q0 -52 33 -93.5 q33 -41.5 105 -41.5 q47 0 87 21.5 q40 21.5 66.5 60 q26.5 38.5 34.5 88.5 q4 21 4 39 q0 50 -32.5 90.5 q-32.5 40.5 -106.5 40.5 q-48 0 -87.5 -21.5 q-39.5 -21.5 -66 -59.5 q-26.5 -38 -34.5 -89 q-3 -18 -3 -35 ZM111 469 q0 20 3 41 q17 106 88 168 q71 62 176 62 q68 0 114.5 -29.5 q46.5 -29.5 63.5 -72.5 q17 -43 17 -83 q0 -22 -4 -46 q-7 -47 -32.5 -95.5 q-25.5 -48.5 -61.5 -97.5 l-230 -316 l-77 0 l248 331 l-3 3 q-17 -18 -50 -32 q-33 -14 -76 -14 q-60 0 -102 29 q-42 29 -58 71 q-16 42 -16 81 Z" /><glyph glyph-name="colon" unicode=":" d="M255 473 q0 7 1 14 q5 33 29.5 53 q24.5 20 59.5 20 q35 0 53 -20 q14 -16 13 -39 q0 -7 -1 -14 q-5 -33 -29.5 -53 q-24.5 -20 -58.5 -20 q-35 0 -53 20 q-14 15 -14 39 ZM188 49 q0 7 1 14 q5 33 29.5 53 q24.5 20 58.5 20 q35 0 53 -20 q14 -16 14 -39 q0 -7 -1 -14 q-5 -33 -29.5 -53 q-24.5 -20 -59.5 -20 q-34 0 -52 20 q-14 16 -14 39 Z" /><glyph glyph-name="semicolon" unicode=";" d="M253 474 q0 7 1 14 q5 32 28.5 52 q23.5 20 55.5 20 l14 0 q32 0 48 -20 q13 -16 14 -40 q0 -6 -1 -12 q-6 -32 -29 -52 q-23 -20 -55 -20 l-14 0 q-32 0 -49 20 q-13 15 -13 38 ZM113 -160 l126 311 l108 0 l-176 -311 l-58 0 Z" /><glyph glyph-name="A" unicode="A" d="M194 261 l210 0 l-28 267 q-6 58 -8 97 q-2 39 -3 51 q-4 -12 -18.5 -51 q-14.5 -39 -39.5 -97 l-113 -267 ZM17 0 l312 730 l86 0 l80 -730 l-65 0 l-21 204 l-238 0 l-85 -204 l-69 0 Z" /><glyph glyph-name="B" unicode="B" d="M189 406 l130 0 q65 0 108 35.5 q43 35.5 53 96.5 q2 15 2 28 q0 42 -24 69 q-32 35 -97 35 l-131 0 l-41 -264 ZM134 60 l134 0 q71 0 118 38 q47 38 58 104 q3 16 3 30 q0 46 -27 76 q-35 40 -106 40 l-134 0 l-46 -288 ZM59 0 l116 730 l196 0 q93 0 141 -51 q37 -39 37 -100 q0 -18 -3 -37 q-6 -38 -27.5 -71.5 q-21.5 -33.5 -53.5 -56.5 q-32 -23 -69 -30 l-1 -3 q40 -6 68.5 -31.5 q28.5 -25.5 40.5 -64.5 q8 -25 8 -52 q0 -16 -3 -32 q-15 -94 -80 -147.5 q-65 -53.5 -166 -53.5 l-204 0 Z" /><glyph glyph-name="C" unicode="C" d="M85 152 q0 20 4 42 l54 342 q16 96 79 150 q63 54 160 54 q94 0 142 -58 q37 -44 37 -109 q0 -20 -4 -43 l-66 0 q3 18 3 34 q0 46 -24 76 q-32 40 -97 41 q-65 0 -109 -39 q-44 -39 -55 -106 l-54 -342 q-2 -16 -2 -31 q-1 -46 23 -75 q32 -39 97 -39 q67 0 111 40.5 q44 40.5 55 110.5 l66 0 q-16 -99 -80 -154.5 q-64 -55.5 -162 -55.5 q-93 0 -141 56 q-36 42 -37 106 Z" /><glyph glyph-name="D" unicode="D" d="M134 60 l106 0 q73 0 124 43 q51 43 63 117 l46 290 q3 17 3 32 q0 50 -29 84 q-37 44 -111 44 l-105 0 l-97 -610 ZM59 0 l116 730 l171 0 q69 0 116 -27.5 q47 -27.5 67 -76.5 q13 -33 13 -73 q0 -20 -3 -43 l-46 -290 q-11 -66 -47 -115.5 q-36 -49.5 -91.5 -77 q-55.5 -27.5 -124.5 -27.5 l-171 0 Z" /><glyph glyph-name="E" unicode="E" d="M68 0 l116 730 l402 0 l-10 -60 l-336 0 l-41 -259 l301 0 l-9 -60 l-302 0 l-46 -291 l336 0 l-9 -60 l-402 0 Z" /><glyph glyph-name="F" unicode="F" d="M63 0 l116 730 l418 0 l-10 -60 l-353 0 l-43 -272 l321 0 l-9 -61 l-321 0 l-53 -337 l-66 0 Z" /><glyph glyph-name="G" unicode="G" d="M81 152 q0 20 4 42 l54 342 q16 97 79 150.5 q63 53.5 160 53.5 q94 0 142 -58 q37 -44 37 -109 q0 -20 -4 -43 l-66 0 q3 18 3 34 q0 46 -24 76 q-32 40 -97 41 q-65 0 -109 -39 q-44 -39 -55 -106 l-54 -342 q-3 -17 -3 -32 q0 -45 24 -74 q32 -39 97 -39 q67 0 111 40.5 q44 40.5 55 110.5 l17 111 l-163 0 l10 60 l229 0 l-27 -171 q-16 -99 -80 -154.5 q-64 -55.5 -162 -55.5 q-93 0 -141 56 q-36 42 -37 106 Z" /><glyph glyph-name="H" unicode="H" d="M59 0 l116 730 l66 0 l-51 -322 l262 0 l51 322 l66 0 l-116 -730 l-66 0 l55 349 l-261 0 l-56 -349 l-66 0 Z" /><glyph glyph-name="I" unicode="I" d="M70 0 l9 60 l154 0 l96 610 l-153 0 l10 60 l372 0 l-10 -60 l-152 0 l-97 -610 l152 0 l-9 -60 l-372 0 Z" /><glyph glyph-name="J" unicode="J" d="M44 159 q0 21 4 45 l66 0 q-3 -18 -3 -35 q1 -48 25 -79 q32 -41 101 -41 q68 0 114 41.5 q46 41.5 57 112.5 l84 527 l66 0 l-84 -527 q-16 -101 -80.5 -157 q-64.5 -56 -166.5 -56 q-99 0 -147 58 q-36 44 -36 111 Z" /><glyph glyph-name="K" unicode="K" d="M59 0 l116 730 l66 0 l-51 -323 l133 0 l212 323 l75 0 l-231 -353 l125 -377 l-74 0 l-114 349 l-136 0 l-55 -349 l-66 0 Z" /><glyph glyph-name="L" unicode="L" d="M92 0 l116 730 l66 0 l-107 -670 l345 0 l-9 -60 l-411 0 Z" /><glyph glyph-name="M" unicode="M" d="M40 0 l116 730 l93 0 l65 -348 l176 348 l98 0 l-116 -730 l-64 0 l64 402 q8 50 18 106.5 q10 56.5 20.5 108 q10.5 51.5 18.5 88.5 l-190 -380 l-65 0 l-70 376 q-3 -54 -12.5 -133.5 q-9.5 -79.5 -23.5 -165.5 l-64 -402 l-64 0 Z" /><glyph glyph-name="N" unicode="N" d="M58 0 l116 730 l88 0 l147 -655 q2 22 5 51 q3 29 6.5 57 q3.5 28 6.5 47 l79 500 l64 0 l-116 -730 l-88 0 l-145 655 q-2 -23 -7.5 -66.5 q-5.5 -43.5 -12.5 -88.5 l-79 -500 l-64 0 Z" /><glyph glyph-name="O" unicode="O" d="M148 159 q0 -44 22 -72 q30 -38 93 -38 q65 0 107 38 q42 38 53 107 l54 342 q3 19 3 35 q0 44 -22 72 q-30 38 -94 38 q-65 0 -106.5 -38 q-41.5 -38 -52.5 -107 l-54 -342 q-3 -19 -3 -35 ZM81 151 q0 20 4 43 l54 342 q16 97 77 150.5 q61 53.5 157 53.5 q91 0 137 -56 q36 -43 36 -107 q0 -19 -3 -41 l-54 -342 q-16 -97 -77 -150.5 q-61 -53.5 -158 -53.5 q-92 0 -138 56 q-36 42 -35 105 Z" /><glyph glyph-name="P" unicode="P" d="M184 374 l157 0 q68 0 114.5 40 q46.5 40 56.5 108 q3 18 3 34 q0 45 -25 74 q-34 40 -102 40 l-157 0 l-47 -296 ZM59 0 l116 730 l223 0 q98 0 148 -56 q38 -43 37 -110 q0 -20 -3 -42 q-10 -63 -44 -109.5 q-34 -46.5 -86.5 -72.5 q-52.5 -26 -117.5 -26 l-157 0 l-50 -314 l-66 0 Z" /><glyph glyph-name="Q" unicode="Q" d="M145 162 q-1 -45 23 -74 q32 -39 97 -39 q64 0 107 39 q43 39 54 108 l54 338 q3 18 3 34 q0 46 -23 74 q-31 40 -95 39 q-65 0 -108.5 -39 q-43.5 -39 -54.5 -108 l-54 -338 q-3 -18 -3 -34 ZM78 153 q0 21 4 43 l54 338 q15 94 79 150 q64 56 159 56 q94 0 140 -57 q35 -43 36 -106 q0 -20 -4 -43 l-54 -338 q-11 -65 -46.5 -114 q-35.5 -49 -89.5 -72 l84 -190 l-70 0 l-77 173 q-8 -1 -18.5 -2 q-10.5 -1 -19.5 -1 q-94 0 -141 56 q-36 43 -36 107 Z" /><glyph glyph-name="R" unicode="R" d="M185 381 l147 0 q67 0 113 39.5 q46 39.5 56 105.5 q3 16 3 31 q0 45 -26 74 q-34 39 -100 39 l-147 0 l-46 -289 ZM59 0 l116 730 l213 0 q64 0 108 -26 q44 -26 63 -72 q12 -30 12 -67 q0 -19 -3 -40 q-12 -77 -61.5 -129.5 q-49.5 -52.5 -124.5 -68.5 l110 -327 l-70 0 l-105 322 l-141 0 l-51 -322 l-66 0 Z" /><glyph glyph-name="S" unicode="S" d="M65 160 q0 19 3 40 l65 0 q-2 -15 -2 -29 q1 -49 29 -81 q38 -42 109 -41 q67 0 115 38.5 q48 38.5 58 100.5 q2 14 2 27 q0 37 -16 65 q-22 40 -69 54 l-101 31 q-64 21 -95 71 q-23 37 -23 83 q0 16 3 34 q14 88 75 137.5 q61 49.5 156 49.5 q60 0 102 -25 q42 -25 62 -69 q13 -29 12 -63 q0 -18 -3 -37 l-65 0 q2 14 2 27 q0 42 -25 71 q-33 38 -94 38 q-61 0 -104.5 -35 q-43.5 -35 -52.5 -90 q-2 -13 -2 -25 q0 -31 14 -57 q20 -35 64 -49 l102 -32 q68 -22 100 -76 q23 -40 23 -90 q0 -19 -3 -38 q-14 -94 -80 -147 q-66 -53 -167 -53 q-68 0 -114 26 q-47 26 -67 73 q-14 32 -13 71 Z" /><glyph glyph-name="T" unicode="T" d="M120 670 l10 60 l484 0 l-10 -60 l-208 0 l-106 -670 l-66 0 l106 670 l-210 0 Z" /><glyph glyph-name="U" unicode="U" d="M84 149 q0 21 4 45 l85 536 l66 0 l-85 -536 q-3 -19 -3 -36 q1 -42 21 -70 q28 -38 93 -39 q64 0 104 38.5 q40 38.5 51 106.5 l85 536 l66 0 l-85 -536 q-15 -94 -76.5 -149 q-61.5 -55 -154.5 -55 q-94 0 -138 56 q-33 42 -33 103 Z" /><glyph glyph-name="V" unicode="V" d="M133 730 l66 0 l55 -528 q5 -47 7.5 -88 q2.5 -41 2.5 -62 q7 21 22 62 q15 41 34 88 l223 528 l68 0 l-311 -730 l-88 0 l-79 730 Z" /><glyph glyph-name="W" unicode="W" d="M77 0 l27 730 l58 0 l-22 -540 q-1 -29 -3.5 -71.5 q-2.5 -42.5 -5.5 -71.5 q6 19 13 45 l14 52 q7 26 13 46 l163 540 l77 0 l-13 -540 q-1 -30 -3 -72.5 q-2 -42.5 -3 -70.5 q6 19 13 45 l14 52 q7 26 12 46 l147 540 l62 0 l-206 -730 l-89 0 l14 538 q1 36 3.5 77 q2.5 41 3.5 66 q-7 -25 -17.5 -65.5 q-10.5 -40.5 -21.5 -77.5 l-163 -538 l-87 0 Z" /><glyph glyph-name="X" unicode="X" d="M4 0 l274 377 l-145 353 l73 0 l83 -220 q6 -17 16.5 -41 q10.5 -24 17.5 -41 q12 17 28.5 41 q16.5 24 28.5 41 l156 220 l75 0 l-257 -352 l154 -378 l-72 0 l-93 244 q-6 16 -16.5 40.5 q-10.5 24.5 -16.5 41.5 q-13 -17 -29.5 -41.5 q-16.5 -24.5 -28.5 -40.5 l-172 -244 l-76 0 Z" /><glyph glyph-name="Y" unicode="Y" d="M116 730 l67 0 l105 -318 q8 -23 13 -41.5 q5 -18.5 7 -27.5 q5 8 16 27 q11 19 26 42 l207 318 l71 0 l-295 -453 l-44 -277 l-66 0 l44 277 l-151 453 Z" /><glyph glyph-name="Z" unicode="Z" d="M45 0 l10 66 l438 604 l-338 0 l10 60 l406 0 l-11 -70 l-436 -600 l352 0 l-9 -60 l-422 0 Z" /><glyph glyph-name="underscore" unicode="_" d="M3 -82 l9 57 l480 0 l-9 -57 l-480 0 Z" /><glyph glyph-name="a" unicode="a" d="M144 156 q0 -42 18 -70 q26 -40 82 -39 q57 0 96 39.5 q39 39.5 50 106.5 l25 163 q3 19 3 36 q0 44 -19 72 q-26 40 -82 39 q-56 0 -95.5 -39.5 q-39.5 -39.5 -49.5 -107.5 l-25 -163 q-3 -20 -3 -37 ZM76 145 q0 22 4 46 l26 167 q10 60 39 105.5 q29 45.5 71 71 q42 25.5 92 25.5 q53 0 86 -28 q33 -28 38 -75 l14 93 l66 0 l-69 -436 q-1 -6 -1 -11 q0 -17 10 -28 q13 -15 36 -15 l45 0 l-9 -60 l-47 0 q-47 0 -71 30 q-18 24 -18 57 q0 10 2 21 q-19 -54 -65.5 -86 q-46.5 -32 -107.5 -32 q-75 0 -113 56 q-28 40 -28 99 Z" /><glyph glyph-name="b" unicode="b" d="M153 157 q0 -43 21 -71 q29 -38 92 -39 q63 0 104 36.5 q41 36.5 53 107.5 l26 167 q3 19 3 36 q0 45 -22 72 q-30 37 -92 37 q-63 0 -104.5 -39 q-41.5 -39 -52.5 -108 l-25 -163 q-3 -19 -3 -36 ZM59 0 l116 730 l66 0 l-25 -154 l-19 -114 q20 46 64 72 q44 26 105 26 q82 0 122 -55 q30 -41 31 -102 q0 -21 -4 -45 l-26 -167 q-16 -94 -72.5 -147.5 q-56.5 -53.5 -141.5 -53.5 q-58 0 -94 26.5 q-36 26.5 -42 73.5 l-14 -90 l-66 0 Z" /><glyph glyph-name="c" unicode="c" d="M86 154 q0 19 3 40 l26 162 q15 97 78 150.5 q63 53.5 161 53.5 q60 0 102 -24 q42 -24 62 -66 q13 -29 13 -65 q0 -17 -3 -35 l-66 0 q2 14 2 26 q0 44 -25 70 q-32 34 -95 34 q-65 0 -108.5 -37.5 q-43.5 -37.5 -54.5 -106.5 l-26 -162 q-2 -16 -2 -31 q-1 -46 23 -75 q32 -38 97 -38 q63 0 105.5 34.5 q42.5 34.5 53.5 95.5 l66 0 q-15 -91 -77 -140.5 q-62 -49.5 -158 -49.5 q-93 0 -141 56 q-36 44 -36 108 Z" /><glyph glyph-name="d" unicode="d" d="M147 155 q-1 -45 21 -71 q30 -36 93 -37 q63 0 104.5 38.5 q41.5 38.5 52.5 107.5 l25 163 q3 19 3 36 q0 44 -21 72 q-29 39 -92 39 q-63 0 -104.5 -37 q-41.5 -37 -52.5 -108 l-26 -167 q-3 -19 -3 -36 ZM80 148 q0 21 4 43 l26 167 q15 96 71 149 q56 53 143 53 q58 0 94 -26.5 q36 -26.5 43 -73.5 l17 116 l25 154 l66 0 l-116 -730 l-66 0 l14 87 q-20 -46 -63 -71.5 q-43 -25.5 -105 -25.5 q-79 0 -121 56 q-32 42 -32 102 Z" /><glyph glyph-name="e" unicode="e" d="M168 314 l209 0 q66 0 77 69 q2 10 2 20 q0 38 -25 66 q-31 35 -94 35 q-67 0 -109.5 -39 q-42.5 -39 -53.5 -109 l-6 -42 ZM80 154 q0 21 4 44 l24 154 q16 99 78 153.5 q62 54.5 160 54.5 q60 0 102 -24 q42 -24 61 -64 q13 -28 13 -61 q0 -14 -2 -28 q-9 -61 -48.5 -92.5 q-39.5 -31.5 -103.5 -31.5 l-209 0 l-10 -65 q-3 -18 -3 -34 q0 -44 22 -73 q30 -39 96 -39 q53 0 93 23.5 q40 23.5 54 65.5 l66 0 q-22 -70 -80.5 -108.5 q-58.5 -38.5 -141.5 -38.5 q-95 0 -141 57 q-34 43 -34 107 Z" /><glyph glyph-name="f" unicode="f" d="M0 -180 l10 60 l88 0 q79 0 93 79 l68 416 l-178 0 l9 59 l179 0 l25 157 q11 65 56 102 q45 37 114 37 l133 0 l-10 -60 l-134 0 q-79 0 -93 -79 l-25 -157 l217 0 l-10 -59 l-217 0 l-68 -416 q-10 -65 -55 -102 q-45 -37 -114 -37 l-88 0 Z" /><glyph glyph-name="g" unicode="g" d="M155 203 q-1 -43 21 -70 q30 -38 92 -38 q63 0 105 38.5 q42 38.5 53 107.5 l17 115 q3 20 3 37 q0 43 -20 71 q-30 39 -93 39 q-63 0 -104 -38 q-41 -38 -52 -105 l-19 -123 q-3 -18 -3 -34 ZM88 195 q0 21 4 44 l19 119 q14 93 72 147.5 q58 54.5 143 54.5 q59 0 94 -28 q35 -28 39 -77 l15 95 l66 0 l-88 -559 q-14 -82 -68 -126.5 q-54 -44.5 -140 -44.5 l-148 0 l10 60 l149 0 q54 0 88 28.5 q34 28.5 43 82.5 l7 47 l17 105 q-19 -49 -63.5 -76.5 q-44.5 -27.5 -103.5 -27.5 q-85 1 -125 55 q-30 40 -30 101 Z" /><glyph glyph-name="h" unicode="h" d="M59 0 l116 730 l66 0 l-26 -162 l-18 -114 q19 50 63 78 q44 28 104 28 q82 0 123 -52 q31 -39 31 -98 q0 -20 -4 -42 l-59 -368 l-66 0 l57 358 q3 19 3 36 q0 44 -21 72 q-29 38 -89 38 q-62 0 -104.5 -39.5 q-42.5 -39.5 -53.5 -108.5 l-56 -356 l-66 0 Z" /><glyph glyph-name="i" unicode="i" d="M45 0 l9 60 l199 0 l68 430 l-173 0 l9 60 l240 0 l-78 -490 l187 0 l-9 -60 l-452 0 ZM319 700 q0 5 1 11 q4 27 23.5 43 q19.5 16 48.5 16 q30 0 44 -16 q11 -13 11 -32 q0 -5 -1 -11 q-4 -27 -23.5 -42.5 q-19.5 -15.5 -48.5 -15.5 q-30 -1 -44 15 q-12 12 -11 32 Z" /><glyph glyph-name="j" unicode="j" d="M29 -180 l10 60 l119 0 q66 0 108.5 36 q42.5 36 52.5 102 l75 472 l-263 0 l9 60 l329 0 l-84 -532 q-15 -94 -77 -146 q-62 -52 -160 -52 l-119 0 ZM384 700 q0 5 1 11 q4 27 23.5 43 q19.5 16 48.5 16 q30 0 44 -16 q11 -13 11 -32 q0 -5 -1 -11 q-4 -27 -23.5 -42.5 q-19.5 -15.5 -48.5 -15.5 q-30 -1 -44 15 q-12 12 -11 32 Z" /><glyph glyph-name="k" unicode="k" d="M64 0 l116 730 l66 0 l-66 -415 l116 0 l201 235 l79 0 l-223 -261 l146 -289 l-74 0 l-130 256 l-124 0 l-41 -256 l-66 0 Z" /><glyph glyph-name="l" unicode="l" d="M104 670 l10 60 l250 0 l-93 -587 q-2 -11 -2 -21 q0 -24 13 -40 q18 -22 57 -22 l170 0 l-9 -60 l-170 0 q-70 0 -103 38 q-25 28 -25 73 q0 15 3 32 l83 527 l-184 0 Z" /><glyph glyph-name="m" unicode="m" d="M25 0 l87 550 l58 0 l-12 -74 l2 0 q11 38 39.5 61 q28.5 23 67.5 23 q38 0 60.5 -21.5 q22.5 -21.5 26.5 -58.5 q12 37 41 58.5 q29 21.5 69 21.5 q52 0 76 -36 q17 -26 17 -65 q0 -16 -3 -33 l-67 -426 l-63 0 l67 423 q2 11 2 20 q0 24 -11 41 q-15 23 -47 23 q-32 0 -54.5 -22.5 q-22.5 -22.5 -28.5 -61.5 l-67 -423 l-58 0 l66 423 q2 12 2 23 q0 23 -10 38 q-15 23 -46 23 q-33 0 -55.5 -22.5 q-22.5 -22.5 -28.5 -61.5 l-67 -423 l-63 0 Z" /><glyph glyph-name="n" unicode="n" d="M59 0 l87 550 l66 0 l-16 -96 q20 50 64 78 q44 28 104 28 q82 0 123 -52 q31 -39 31 -98 q0 -20 -4 -42 l-59 -368 l-66 0 l57 358 q3 19 3 36 q0 44 -21 72 q-29 38 -89 38 q-62 0 -104.5 -39.5 q-42.5 -39.5 -53.5 -108.5 l-56 -356 l-66 0 Z" /><glyph glyph-name="o" unicode="o" d="M148 158 q0 -45 22 -72 q30 -38 93 -38 q65 0 107 38 q42 38 53 108 l25 162 q3 19 3 36 q1 45 -21 72 q-30 38 -94 38 q-65 0 -106.5 -38 q-41.5 -38 -53.5 -108 l-25 -162 q-3 -19 -3 -36 ZM81 150 q0 21 4 44 l25 162 q15 95 77 149.5 q62 54.5 158 54.5 q92 0 138 -56 q35 -42 35 -105 q0 -21 -4 -43 l-25 -162 q-16 -96 -77.5 -150 q-61.5 -54 -157.5 -54 q-92 0 -138 55 q-35 41 -35 105 Z" /><glyph glyph-name="p" unicode="p" d="M153 158 q0 -44 21 -72 q29 -39 92 -39 q63 0 104 36.5 q41 36.5 53 108.5 l26 167 q3 19 3 36 q0 45 -22 71 q-30 36 -92 37 q-62 0 -104 -38.5 q-42 -38.5 -53 -107.5 l-25 -163 q-3 -19 -3 -36 ZM30 -180 l116 730 l66 0 l-14 -88 q20 47 63 72.5 q43 25.5 105 25.5 q81 0 122 -56 q31 -41 31 -101 q0 -21 -4 -44 l-26 -167 q-15 -96 -71.5 -149 q-56.5 -53 -142.5 -53 q-58 0 -94 28 q-36 28 -42 75 l-15 -101 l-28 -172 l-66 0 Z" /><glyph glyph-name="q" unicode="q" d="M148 158 q0 -44 21 -72 q29 -38 92 -39 q63 0 104.5 39 q41.5 39 52.5 108 l25 163 q3 19 3 36 q0 43 -21 71 q-29 38 -92 39 q-63 0 -104.5 -38.5 q-41.5 -38.5 -52.5 -107.5 l-25 -163 q-3 -19 -3 -36 ZM81 146 q0 22 4 46 l26 167 q15 96 71 148.5 q56 52.5 142 52.5 q57 0 93 -27 q36 -27 43 -74 l14 91 l66 0 l-116 -730 l-66 0 l25 154 l19 113 q-20 -47 -63.5 -72 q-43.5 -25 -105.5 -25 q-81 0 -122 56 q-30 40 -30 100 Z" /><glyph glyph-name="r" unicode="r" d="M80 0 l87 550 l66 0 l-15 -94 q21 48 63.5 76 q42.5 28 100.5 28 q89 0 126 -52 q26 -37 26 -94 q0 -23 -4 -50 l-7 -49 l-66 0 l7 49 q3 20 3 38 q0 101 -110 101 q-64 0 -103.5 -38 q-39.5 -38 -51.5 -109 l-56 -356 l-66 0 Z" /><glyph glyph-name="s" unicode="s" d="M65 125 q0 8 1 16 l66 0 q0 -3 0 -5 q0 -38 26 -62 q28 -26 79 -25 l61 0 q52 0 86.5 26.5 q34.5 26.5 41.5 70.5 q2 11 2 22 q0 26 -12 46 q-18 28 -57 33 l-130 18 q-61 7 -92 45 q-23 28 -23 70 q0 13 2 28 q11 72 64.5 111.5 q53.5 39.5 137.5 39.5 l50 0 q78 0 120 -38 q40 -35 39 -92 q0 -4 0 -8 l-67 0 q2 35 -25.5 58 q-27.5 23 -75.5 23 l-50 0 q-52 0 -86.5 -25 q-34.5 -25 -41.5 -68 q-1 -9 -1 -16 q0 -58 73 -68 l125 -17 q64 -10 94 -52 q22 -31 22 -74 q0 -15 -3 -32 q-12 -77 -64 -118 q-52 -41 -139 -41 l-61 0 q-83 0 -125 41 q-38 36 -37 93 Z" /><glyph glyph-name="t" unicode="t" d="M90 490 l9 60 l161 0 l25 155 l66 0 l-25 -155 l228 0 l-9 -60 l-228 0 l-57 -357 q-1 -9 -1 -16 q-1 -24 11 -38 q16 -19 50 -19 l151 0 l-9 -60 l-151 0 q-65 0 -96 35 q-23 26 -23 69 q0 14 2 29 l57 357 l-161 0 Z" /><glyph glyph-name="u" unicode="u" d="M84 150 q0 22 4 46 l56 354 l66 0 l-56 -354 q-3 -19 -3 -36 q0 -44 21 -72 q29 -38 91 -39 q63 0 105 38.5 q42 38.5 53 108.5 l55 354 l66 0 l-55 -354 q-16 -98 -77 -152 q-61 -54 -157 -54 q-92 0 -136 56 q-33 42 -33 104 Z" /><glyph glyph-name="v" unicode="v" d="M113 550 l68 0 l69 -394 q5 -29 8.5 -58.5 q3.5 -29.5 4.5 -46.5 q5 17 17.5 46.5 q12.5 29.5 27.5 58.5 l192 394 l73 0 l-275 -550 l-84 0 l-101 550 Z" /><glyph glyph-name="w" unicode="w" d="M85 550 l59 0 l0 -401 q-1 -63 -5 -100 q5 19 12.5 44 q7.5 25 18.5 56 l139 401 l67 0 l13 -401 q1 -29 1 -54.5 q0 -25.5 -1 -45.5 q4 20 10.5 45.5 q6.5 25.5 15.5 54.5 l128 401 l58 0 l-181 -550 l-80 0 l-5 387 q-1 27 -1 59 q0 11 0 21 q0 19 1 32 q-4 -20 -14.5 -52.5 q-10.5 -32.5 -20.5 -59.5 l-131 -387 l-79 0 l-5 550 Z" /><glyph glyph-name="x" unicode="x" d="M23 0 l239 284 l-140 266 l75 0 l93 -188 q4 -9 9 -20.5 q5 -11.5 9 -18.5 q5 7 13 18.5 q8 11.5 14 20.5 l151 188 l79 0 l-224 -270 l148 -280 l-75 0 l-99 198 q-5 10 -11 22.5 q-6 12.5 -9 19.5 q-6 -7 -15 -19.5 q-9 -12.5 -17 -22.5 l-161 -198 l-79 0 Z" /><glyph glyph-name="y" unicode="y" d="M86 190 q0 20 4 42 l50 318 l66 0 l-49 -310 q-3 -18 -3 -33 q0 -45 22 -73 q28 -38 89 -38 q62 0 104.5 39.5 q42.5 39.5 53.5 108.5 l48 306 l66 0 l-90 -567 q-13 -79 -64 -121 q-51 -42 -134 -42 l-159 0 l10 60 l159 0 q105 0 122 103 l11 69 l16 97 q-20 -51 -64 -80 q-44 -29 -105 -29 q-81 0 -122 52 q-31 39 -31 98 Z" /><glyph glyph-name="z" unicode="z" d="M54 0 l10 64 l382 426 l-306 0 l9 60 l384 0 l-10 -64 l-385 -426 l330 0 l-10 -60 l-404 0 Z" /><glyph glyph-name="braceleft" unicode="{" d="M92 330 l10 59 l123 0 q63 0 89 23 q26 23 27 77 l3 185 q1 49 26 84 q25 35 67.5 53.5 q42.5 18.5 94.5 18.5 l51 0 l-9 -59 l-51 0 q-47 0 -79.5 -25.5 q-32.5 -25.5 -33.5 -71.5 l-3 -185 q-2 -52 -33 -85.5 q-31 -33.5 -85 -41.5 q51 -8 71 -44 q12 -20 12 -47 q0 -19 -6 -41 l-56 -184 q-5 -16 -5 -29 q1 -25 17 -43 q24 -26 71 -25 l51 0 l-9 -59 l-51 0 q-52 0 -89 18.5 q-37 18.5 -51 53.5 q-7 17 -8 38 q0 21 8 46 l56 184 q8 25 8 43 q0 21 -10 33 q-18 24 -82 24 l-124 0 Z" /><glyph glyph-name="braceright" unicode="}" d="M43 -110 l9 59 l50 0 q47 0 80.5 25.5 q33.5 25.5 33.5 71.5 l0 184 q0 52 30.5 87.5 q30.5 35.5 75.5 44.5 q-42 8 -62 42 q-11 19 -11 43 q0 19 7 42 l59 185 q6 17 6 31 q-1 25 -17 41 q-26 26 -72 25 l-50 0 l9 59 l50 0 q53 0 90 -18.5 q37 -18.5 51 -53.5 q7 -17 7 -36 q0 -22 -8 -48 l-59 -185 q-8 -25 -8 -44 q0 -21 10 -33 q20 -23 83 -23 l127 0 l-10 -59 l-127 0 q-64 0 -89.5 -23.5 q-25.5 -23.5 -25.5 -76.5 l0 -184 q-1 -49 -26 -84 q-25 -35 -67.5 -53.5 q-42.5 -18.5 -95.5 -18.5 l-50 0 Z" /><glyph glyph-name="uni3001" unicode="&#x3001;" d="M29 149 q-5 4 -6 10.5 q-1 6.5 0 13 q1 6.5 4.5 12.5 q3.5 6 9.5 11 l6 4 q8 7 20.5 7 q12.5 0 19.5 -7 q38 -38 77.5 -85 q39.5 -47 76.5 -96 q3 -5 3 -11 q0 -6 -1 -12 q-1 -6 -4.5 -12 q-3.5 -6 -8.5 -10 l-6 -4 q-6 -4 -12.5 -5.5 q-6.5 -1.5 -13 -1.5 q-6.5 0 -12 3 q-5.5 3 -8.5 7 q-32 48 -70 94 q-38 46 -75 82 Z" /><glyph glyph-name="uni3002" unicode="&#x3002;" d="M24 78 q0 -11 4 -26 q4 -15 16 -29.5 q12 -14.5 29.5 -22.5 q17.5 -8 39.5 -8 q22 0 42.5 8 q20.5 8 37.5 22.5 q17 14.5 28.5 33.5 q11.5 19 15.5 41 q2 9 2 18 q0 11 -4 26.5 q-4 15.5 -15.5 30 q-11.5 14.5 -29.5 22.5 q-18 8 -40 8 q-21 0 -42 -8 q-21 -8 -38 -22.5 q-17 -14.5 -28.5 -34 q-11.5 -19.5 -15.5 -40.5 q-2 -10 -2 -19 ZM-20 72 q0 12 2 25 q6 31 22.5 58 q16.5 27 40.5 47.5 q24 20.5 53 32 q29 11.5 60 11.5 q31 0 56 -11.5 q25 -11.5 41.5 -32 q16.5 -20.5 22 -42 q5.5 -21.5 5.5 -38.5 q0 -12 -2 -25 q-6 -31 -22.5 -58 q-16.5 -27 -40 -47.5 q-23.5 -20.5 -52.5 -32 q-29 -11.5 -61 -11.5 q-30 0 -55 11.5 q-25 11.5 -42 32 q-17 20.5 -22.5 42 q-5.5 21.5 -5.5 38.5 Z" /><glyph glyph-name="uni300A" unicode="&#x300a;" d="M676 370 q-2 3 -0.5 10 q1.5 7 3.5 10 l290 428 q6 9 17 15 q11 6 17 4 q5 -2 7 -6 q2 -4 2.5 -9.5 q0.5 -5.5 -0.5 -12 q-1 -6.5 -6 -12.5 l-279 -412 q-2 -2 -3 -5 q-1 -3 1 -5 l135 -412 q1 -6 0.5 -12.5 q-0.5 -6.5 -3 -12 q-2.5 -5.5 -6.5 -9.5 q-4 -4 -9 -6 q-8 -2 -17 4 q-9 6 -11 15 l-138 428 ZM523 370 q-2 3 -0.5 10 q1.5 7 3.5 10 l290 428 q6 9 17 15 q11 6 17 4 q5 -2 7.5 -6 q2.5 -4 2.5 -9.5 q0 -5.5 -1 -12 q-1 -6.5 -5 -12.5 l-280 -412 q-2 -2 -3 -5 q-1 -3 1 -5 l135 -412 q2 -6 1 -12.5 q-1 -6.5 -3.5 -12 q-2.5 -5.5 -6 -9.5 q-3.5 -4 -8.5 -6 q-8 -2 -17 4 q-9 6 -12 15 l-138 428 Z" /><glyph glyph-name="uni300B" unicode="&#x300b;" d="M116 -71 q-2 4 -2.5 9.5 q-0.5 5.5 1 12 q1.5 6.5 4.5 12.5 l280 412 q2 2 3 5 q1 3 -1 5 l-135 412 q-1 6 -0.5 12.5 q0.5 6.5 3 12 q2.5 5.5 6.5 9.5 q4 4 8 6 q9 2 18 -4 q9 -6 11 -15 l138 -428 q2 -3 0.5 -10 q-1.5 -7 -3.5 -10 l-290 -428 q-6 -9 -17 -15 q-11 -6 -17 -4 q-5 2 -7 6 ZM-36.5 -71 q-2.5 4 -3 9.5 q-0.5 5.5 1 12 q1.5 6.5 5.5 12.5 l280 412 q1 2 2 5 q1 3 0 5 l-135 412 q-1 6 -0.5 12.5 q0.5 6.5 2.5 12 q2 5.5 6 9.5 q4 4 9 6 q8 2 17 -4 q9 -6 12 -15 l137 -428 q2 -3 1 -10 q-1 -7 -4 -10 l-289 -428 q-7 -9 -17.5 -15 q-10.5 -6 -17.5 -4 q-4 2 -6.5 6 Z" /><glyph glyph-name="uni300C" unicode="&#x300c;" d="M613 226 l104 586 q1 6 4.5 11.5 q3.5 5.5 9 10.5 q5.5 5 12 7.5 q6.5 2.5 12.5 2.5 l245 0 q7 0 12.5 -2 q5.5 -2 9 -6.5 q3.5 -4.5 5.5 -9.5 q2 -5 0 -10 q0 -5 -3.5 -10 q-3.5 -5 -9 -9 q-5.5 -4 -11.5 -6.5 q-6 -2.5 -12 -2.5 l-214 0 q-2 0 -4.5 -2 q-2.5 -2 -2.5 -4 l-98 -557 q-1 -5 -4.5 -10.5 q-3.5 -5.5 -8.5 -10 q-5 -4.5 -10.5 -7 q-5.5 -2.5 -11 -2.5 q-5.5 0 -10.5 2.5 q-5 2.5 -8 7 q-3 4.5 -5 10.5 q-2 6 -1 11 Z" /><glyph glyph-name="uni300D" unicode="&#x300d;" d="M-53 -56 q0 5 3.5 10 q3.5 5 9 9 q5.5 4 11.5 6.5 q6 2.5 12 2.5 l214 0 q2 0 4.5 2 q2.5 2 2.5 4 l98 557 q1 5 4.5 10.5 q3.5 5.5 8.5 10 q5 4.5 10.5 7 q5.5 2.5 11 2.5 q5.5 0 10.5 -2.5 q5 -2.5 8.5 -7 q3.5 -4.5 5 -10.5 q1.5 -6 0.5 -11 l-104 -586 q-1 -6 -4.5 -11.5 q-3.5 -5.5 -9 -10.5 q-5.5 -5 -11.5 -7.5 q-6 -2.5 -13 -2.5 l-245 0 q-6 0 -12 2.5 q-6 2.5 -9.5 6.5 q-3.5 4 -5.5 9 q-2 5 0 10 Z" /><glyph glyph-name="uni300E" unicode="&#x300e;" d="M586 216 q0 -2 1.5 -4 q1.5 -2 4.5 -2 l91 0 q3 0 5.5 2 q2.5 2 2.5 4 l84 476 q2 7 5.5 12.5 q3.5 5.5 9 10 q5.5 4.5 11.5 7.5 q6 3 12 3 l163 0 q2 0 4.5 2 q2.5 2 2.5 4 l14 78 q1 2 -1 4 q-2 2 -4 2 l-294 0 q-2 0 -4 -2 q-2 -2 -3 -5 l-105 -592 ZM557 212 l105 600 q1 6 5 11.5 q4 5.5 9.5 10.5 q5.5 5 11.5 7.5 q6 2.5 12 2.5 l301 0 q6 0 11.5 -2.5 q5.5 -2.5 9 -7 q3.5 -4.5 5 -10.5 q1.5 -6 0.5 -12 l-15 -84 q-1 -6 -4.5 -12 q-3.5 -6 -9 -10.5 q-5.5 -4.5 -12 -7 q-6.5 -2.5 -12.5 -2.5 l-163 0 q-3 0 -4.5 -2 q-1.5 -2 -2.5 -4 l-84 -477 q-1 -6 -5 -12 q-4 -6 -9 -10.5 q-5 -4.5 -11.5 -7 q-6.5 -2.5 -12.5 -2.5 l-99 0 q-6 0 -11 2.5 q-5 2.5 -9 7 q-4 4.5 -5.5 10.5 q-1.5 6 -0.5 11 Z" /><glyph glyph-name="uni300F" unicode="&#x300f;" d="M-23 -49 q-1 -2 1 -4 q2 -2 4 -2 l294 0 q2 0 4 2 q2 2 3 5 l105 592 q0 2 -1.5 4 q-1.5 2 -4.5 2 l-91 0 q-3 0 -5.5 -2 q-2.5 -2 -2.5 -4 l-84 -476 q-2 -7 -5.5 -12.5 q-3.5 -5.5 -9 -10 q-5.5 -4.5 -11.5 -7.5 q-6 -3 -12 -3 l-163 0 q-2 0 -4.5 -2 q-2.5 -2 -2.5 -4 l-14 -78 ZM-53 -52 l15 84 q1 6 4.5 12 q3.5 6 9 10.5 q5.5 4.5 12 7 q6.5 2.5 12.5 2.5 l163 0 q3 0 4.5 2 q1.5 2 2.5 4 l84 477 q1 6 5 12 q4 6 9 10.5 q5 4.5 11.5 7 q6.5 2.5 12.5 2.5 l99 0 q6 0 11 -2.5 q5 -2.5 9 -7 q4 -4.5 5.5 -10.5 q1.5 -6 0.5 -11 l-105 -600 q-1 -6 -5 -11.5 q-4 -5.5 -9.5 -10.5 q-5.5 -5 -11.5 -7.5 q-6 -2.5 -12 -2.5 l-301 0 q-5 0 -11 2.5 q-6 2.5 -9.5 7 q-3.5 4.5 -5 10.5 q-1.5 6 -0.5 12 Z" /><glyph glyph-name="uni3010" unicode="&#x3010;" d="M579 -52 l152 864 q1 6 5 11.5 q4 5.5 9.5 10.5 q5.5 5 11.5 7.5 q6 2.5 12 2.5 l232 0 q12 0 22 -1 q9 0 9 -1 q0 -2 -3 -4.5 q-3 -2.5 -7 -5.5 q-45 -35 -88 -82 q-43 -47 -79 -103.5 q-36 -56.5 -62.5 -123.5 q-26.5 -67 -39.5 -143 q-11 -60 -11 -115 q0 -13 2 -52.5 q2 -39.5 17.5 -97 q15.5 -57.5 41.5 -105 q26 -47.5 59 -82.5 l6 -5 q2 -3 1 -4 q0 -2 -10 -2.5 q-10 -0.5 -22 -0.5 l-232 0 q-5 0 -11 2.5 q-6 2.5 -9.5 7.5 q-3.5 5 -5 10.5 q-1.5 5.5 -0.5 11.5 Z" /><glyph glyph-name="uni3011" unicode="&#x3011;" d="M-58 -81 q0 1 3 3.5 q3 2.5 7 5.5 q45 35 88 82 q43 47 79 103.5 q36 56.5 62.5 123.5 q26.5 67 39.5 143 q11 60 11 115 q0 13 -2 52.5 q-2 39.5 -17.5 97 q-15.5 57.5 -41.5 105 q-26 47.5 -59 82.5 l-5 6 q-3 2 -2 4 q0 1 10 1.5 q10 0.5 22 0.5 l232 0 q6 0 11.5 -2.5 q5.5 -2.5 9 -7.5 q3.5 -5 5 -10.5 q1.5 -5.5 0.5 -11.5 l-152 -864 q-1 -6 -5 -11.5 q-4 -5.5 -9.5 -10.5 q-5.5 -5 -11.5 -7.5 q-6 -2.5 -12 -2.5 l-232 0 q-12 0 -22 1 q-9 0 -9 2 Z" /><glyph glyph-name="uni4E00" unicode="&#x4e00;" d="M40.5 367 q-3.5 4 -5.5 10 q-2 6 0 12 l0 4 q1 5 5 10.5 q4 5.5 9 9.5 q5 4 11.5 7 q6.5 3 12.5 3 l848 0 q6 0 11 -3 q5 -3 9 -7 q4 -4 5.5 -9.5 q1.5 -5.5 0.5 -10.5 l0 -4 q-2 -6 -5.5 -12 q-3.5 -6 -9 -10 q-5.5 -4 -11.5 -6.5 q-6 -2.5 -12 -2.5 l-848 0 q-5 0 -11 2.5 q-6 2.5 -9.5 6.5 Z" /><glyph glyph-name="uni4E01" unicode="&#x4e01;" d="M114 688.5 q-4 4.5 -6 9.5 q-2 5 0 10 l0 3 q1 6 4.5 11 q3.5 5 9 9 q5.5 4 11.5 6 q6 2 12 2 l809 0 q7 0 12.5 -2 q5.5 -2 9 -6 q3.5 -4 6 -9 q2.5 -5 0.5 -11 l0 -3 q-2 -5 -5 -10 q-3 -5 -8.5 -9.5 q-5.5 -4.5 -12 -7 q-6.5 -2.5 -12.5 -2.5 l-341 0 l-115 -649 q-7 -40 -23 -59 q-16 -19 -47 -27 q-27 -7 -77.5 -8.5 q-50.5 -1.5 -131.5 -2.5 q-8 0 -16 6.5 q-8 6.5 -10 14.5 l0 2 q0 1 -1 2 q-3 16 6.5 28 q9.5 12 25.5 12 q1 0 3 0 q49 -2 86 -2 q9 0 34.5 0.5 q25.5 0.5 44.5 2.5 q19 1 28 7 q9 6 12 24 l115 649 l-402 0 q-7 0 -12 2.5 q-5 2.5 -9 7 Z" /><glyph glyph-name="uni4E03" unicode="&#x4e03;" d="M48 402 l0 2 q0 6 3 11 q3 5 7.5 10 q4.5 5 10.5 8.5 q6 3.5 12 3.5 l267 43 l55 310 q1 6 4.5 11 q3.5 5 8.5 10 q5 5 10.5 7.5 q5.5 2.5 11.5 2.5 l4 0 q6 0 10.5 -2.5 q4.5 -2.5 8 -7 q3.5 -4.5 4.5 -10 q1 -5.5 0 -11.5 l-53 -299 l518 83 q5 1 10.5 -1 q5.5 -2 10.5 -5 q5 -3 7.5 -7.5 q2.5 -4.5 2.5 -10.5 l0 -2 q0 -5 -3 -11 q-3 -6 -7.5 -10.5 q-4.5 -4.5 -10.5 -8.5 q-6 -4 -12 -4 l-526 -84 l-59 -335 q-4 -19 -4 -32 q0 -3 0.5 -11.5 q0.5 -8.5 9 -17.5 q8.5 -9 25 -12 q16.5 -3 44.5 -3 l276 0 q22 0 38 5.5 q16 5.5 27 20 q11 14.5 20 39.5 q9 25 19 62 q5 19 19 26.5 q14 7.5 28 1.5 q9 -3 13.5 -13.5 q4.5 -10.5 0.5 -19.5 q-13 -50 -26 -85 q-13 -35 -32 -56 q-19 -21 -46.5 -30.5 q-27.5 -9.5 -71.5 -9.5 l-276 0 q-43 0 -71 6 q-28 6 -42.5 21.5 q-14.5 15.5 -16.5 32.5 q-2 17 -2 26 q0 21 5 50 l58 324 l-258 -41 q-6 -1 -11.5 1 q-5.5 2 -10 5 q-4.5 3 -7.5 7.5 q-3 4.5 -3 9.5 Z" /><glyph glyph-name="uni4E07" unicode="&#x4e07;" d="M-23 -60 q-9 10 -3.5 24 q5.5 14 20.5 24 q101 57 168.5 138 q67.5 81 111 174 q43.5 93 69 192 q25.5 99 44.5 191 q1 5 4 11 q3 4 6 7 l-257 0 q-6 0 -12 2.5 q-6 2.5 -9.5 6.5 q-3.5 4 -5.5 9.5 q-2 5.5 -1 10.5 q1 6 5 11 q4 5 9 9.5 q5 4.5 11.5 6.5 q6.5 2 12.5 2 l808 0 q7 0 12.5 -2 q5.5 -2 9.5 -6.5 q4 -4.5 5.5 -9.5 q1.5 -5 0.5 -11 q-1 -5 -4.5 -10.5 q-3.5 -5.5 -9 -9.5 q-5.5 -4 -11.5 -6.5 q-6 -2.5 -13 -2.5 l-504 0 q2 -3 3 -8 q2 -6 0 -11 q-20 -98 -48 -202 q6 2 11 2 l405 0 q6 0 11.5 -2.5 q5.5 -2.5 9.5 -6.5 q0 -1 1 -2 l4 -6 l0 -1 q2 -6 1 -11 q0 -2 -1 -5 q-29 -122 -51 -208 q-22 -86 -40.5 -142.5 q-18.5 -56.5 -35 -89 q-16.5 -32.5 -34.5 -47.5 q-18 -18 -38 -24 q-20 -6 -47 -8 q-12 -1 -28 -1 q-16 0 -45.5 1 q-29.5 1 -75.5 3 q-10 0 -18.5 7 q-8.5 7 -8.5 16 q-1 15 9.5 24 q10.5 9 26.5 9 q3 0 6 0 q21 -1 38.5 -2 q17.5 -1 33.5 -1.5 q16 -0.5 29 -0.5 l22 0 q18 0 29 2 q11 2 21 10 q14 12 29.5 42.5 q15.5 30.5 33 86.5 q17.5 56 39.5 141 q17 68 38 158 l-374 0 q-6 0 -11 3 l-4 2 q-26 -83 -64 -161 q-48 -100 -121.5 -186 q-73.5 -86 -183.5 -145 q-5 -3 -11 -4.5 q-6 -1.5 -11.5 -1 q-5.5 0.5 -9.5 3 q-4 2.5 -7 5.5 Z" /><glyph glyph-name="uni4E09" unicode="&#x4e09;" d="M174 381 l0 1 q2 5 5 10.5 q3 5.5 8.5 9.5 q5.5 4 12 6 q6.5 2 11.5 2 l551 0 q5 0 10.5 -2 q5.5 -2 9 -6 q3.5 -4 5.5 -9.5 q2 -5.5 1 -10.5 l-1 -1 q0 -6 -3.5 -11 q-3.5 -5 -9 -9.5 q-5.5 -4.5 -12 -7 q-6.5 -2.5 -11.5 -2.5 l-551 0 q-5 0 -10.5 2.5 q-5.5 2.5 -9 7 q-3.5 4.5 -5.5 9.5 q-2 5 -1 11 ZM175.5 688.5 q-3.5 4.5 -5.5 10 q-2 5.5 0 10.5 l0 1 q1 6 4.5 11 q3.5 5 9 9.5 q5.5 4.5 11.5 6.5 q6 2 11 2 l691 0 q6 0 11.5 -2 q5.5 -2 9 -6.5 q3.5 -4.5 5.5 -9.5 q2 -5 1 -11 l0 -1 q-2 -5 -5.5 -10.5 q-3.5 -5.5 -8.5 -10 q-5 -4.5 -11 -6.5 q-6 -2 -12 -2 l-691 0 q-5 0 -11 2 q-6 2 -9.5 6.5 ZM-9 30 l0 1 q2 6 5.5 11 q3.5 5 8.5 9 q5 4 11.5 6.5 q6.5 2.5 12.5 2.5 l803 0 q6 0 11.5 -2.5 q5.5 -2.5 9.5 -6.5 q4 -4 5.5 -9 q1.5 -5 0.5 -11 l0 -1 q-1 -6 -4.5 -11 q-3.5 -5 -9 -9.5 q-5.5 -4.5 -11.5 -6.5 q-6 -2 -12 -2 l-803 0 q-6 0 -11.5 2 q-5.5 2 -9.5 6.5 q-4 4.5 -5.5 9.5 q-1.5 5 -1.5 11 Z" /><glyph glyph-name="uni4E0A" unicode="&#x4e0a;" d="M-26 0 l0 1 q1 6 4.5 11 q3.5 5 9 9 q5.5 4 11.5 6.5 q6 2.5 11 2.5 l351 0 l0 1 l134 758 q1 6 4 12 q3 6 8.5 10.5 q5.5 4.5 11 7 q5.5 2.5 10.5 2.5 l4 0 q6 0 10.5 -2.5 q4.5 -2.5 8 -7 q3.5 -4.5 4.5 -10.5 q1 -6 0 -12 l-50 -285 q2 1 3 1 l348 0 q6 0 11 -2.5 q5 -2.5 9 -6.5 q4 -4 5.5 -9 q1.5 -5 0.5 -11 l0 -1 q-1 -6 -4.5 -11 q-3.5 -5 -9 -9.5 q-5.5 -4.5 -11.5 -6.5 q-6 -2 -11 -2 l-351 0 l-73 -415 l-1 -1 l419 0 q6 0 11.5 -2.5 q5.5 -2.5 9 -6.5 q3.5 -4 5 -9 q1.5 -5 0.5 -11 l0 -1 q-1 -6 -4.5 -11 q-3.5 -5 -9 -9.5 q-5.5 -4.5 -11 -6.5 q-5.5 -2 -11.5 -2 l-831 0 q-6 0 -11 2 q-5 2 -9 6.5 q-4 4.5 -5.5 9.5 q-1.5 5 -0.5 11 Z" /><glyph glyph-name="uni4E0B" unicode="&#x4e0b;" d="M106 732 l0 1 q1 6 4.5 11 q3.5 5 9 9.5 q5.5 4.5 11 7 q5.5 2.5 11.5 2.5 l826 0 q5 0 10.5 -2.5 q5.5 -2.5 9 -7 q3.5 -4.5 5.5 -9.5 q2 -5 1 -11 l0 -1 q-2 -5 -5.5 -10.5 q-3.5 -5.5 -8.5 -9.5 q-5 -4 -11 -6.5 q-6 -2.5 -12 -2.5 l-405 0 q0 -1 1 -2 q1 -6 0 -12 l-31 -174 q6 5 15 6 q11 2 19 -2 q37 -20 76.5 -43.5 q39.5 -23.5 77 -47.5 q37.5 -24 71.5 -47.5 q34 -23.5 60 -43.5 q4 -4 6 -9 q2 -5 2 -11 q0 -6 -2 -11.5 q-2 -5.5 -6 -9.5 l-5 -5 q-4 -5 -10.5 -8 q-6.5 -3 -13 -3.5 q-6.5 -0.5 -12.5 1 q-6 1.5 -10 5.5 q-25 20 -56.5 43 q-31.5 23 -66.5 47 q-35 24 -72.5 47.5 q-37.5 23.5 -72.5 43.5 q-5 2 -7 5 l-91 -516 q-2 -6 -5 -11.5 q-3 -5.5 -8 -10 q-5 -4.5 -10 -7.5 q-5 -3 -11 -3 l-4 0 q-5 0 -10 3 q-5 3 -8.5 7.5 q-3.5 4.5 -5 10 q-1.5 5.5 -0.5 11.5 l129 733 q2 6 5 12 q1 1 1 2 l-365 0 q-6 0 -11 2.5 q-5 2.5 -9 6.5 q-4 4 -5.5 9.5 q-1.5 5.5 -0.5 10.5 Z" /><glyph glyph-name="uni4E0D" unicode="&#x4e0d;" d="M589.5 476.5 q-2.5 6.5 -2.5 12.5 q0 6 3.5 12 q3.5 6 9.5 10 l1 1 q7 6 17.5 6 q10.5 0 18.5 -5 q36 -25 73 -54 q37 -29 72.5 -59 q35.5 -30 66.5 -59 q31 -29 55 -55 q2 -4 3.5 -9.5 q1.5 -5.5 1 -12 q-0.5 -6.5 -3.5 -12 q-3 -5.5 -8 -8.5 l-4 -4 q-5 -4 -11.5 -6 q-6.5 -2 -13 -1.5 q-6.5 0.5 -12 3 q-5.5 2.5 -8.5 7.5 q-22 25 -51 53.5 q-29 28.5 -62 57.5 q-33 29 -68.5 57.5 q-35.5 28.5 -69.5 54.5 q-5 4 -7.5 10.5 ZM32 223 q-4 5 -4 12 q0 7 3 13.5 q3 6.5 9 12.5 q6 6 13 10 q80 41 155.5 92 q75.5 51 143.5 108.5 q68 57.5 128 120.5 q53 56 96 113 l-429 0 q-6 0 -11 2.5 q-5 2.5 -9 7 q-4 4.5 -6 9.5 q-2 5 0 11 l0 1 q0 6 3.5 11 q3.5 5 9 9.5 q5.5 4.5 12 6.5 q6.5 2 11.5 2 l795 0 q5 0 10.5 -2 q5.5 -2 9.5 -6.5 q4 -4.5 5.5 -9.5 q1.5 -5 1.5 -11 l0 -1 q-2 -6 -5.5 -11 q-3.5 -5 -8.5 -9.5 q-5 -4.5 -11.5 -7 q-6.5 -2.5 -12.5 -2.5 l-295 0 l0 -2 q-2 -7 -6 -12 q-41 -54 -89 -107 q1 -6 -1 -15 l-108 -612 q-1 -6 -4 -12 q-3 -6 -8.5 -10.5 q-5.5 -4.5 -10.5 -7 q-5 -2.5 -11 -2.5 l-4 0 q-6 0 -11 2.5 q-5 2.5 -8 7 q-3 4.5 -5 10.5 q-2 6 0 12 l97 552 q-44 -43 -91 -83 q-73 -61 -152.5 -114.5 q-79.5 -53.5 -162.5 -96.5 q-5 -3 -11 -4 q-6 -1 -11.5 0.5 q-5.5 1.5 -9.5 4 q-4 2.5 -6 6.5 l-1 0 l0 1 Z" /><glyph glyph-name="uni4E0E" unicode="&#x4e0e;" d="M172 396 q-3 5 -3 12.5 q0 7.5 3 14.5 q17 38 36 83 q19 45 38 92.5 q19 47.5 37.5 95 q18.5 47.5 34.5 89.5 q2 6 6 11 q4 5 9 8.5 q5 3.5 11 5.5 q6 2 10 2 l2 0 q6 -1 10.5 -4.5 q4.5 -3.5 7 -8.5 q2.5 -5 2.5 -11.5 q0 -6.5 -1 -11.5 q-15 -39 -31 -82 l538 0 q6 0 11.5 -2 q5.5 -2 9.5 -6 q4 -4 5.5 -9 q1.5 -5 0.5 -11 q-1 -5 -4.5 -10 q-3.5 -5 -9 -9.5 q-5.5 -4.5 -11.5 -7 q-6 -2.5 -12 -2.5 l-541 0 q-4 0 -9 2 q-11 -28 -22 -55 q-20 -49 -39 -94 q-10 -26 -20 -48 l608 0 q5 0 10.5 -2 q5.5 -2 9.5 -6.5 q4 -4.5 5.5 -9.5 q1.5 -5 1.5 -10 q-2 -5 -5 -10 q-1 -1 -1 -2 q-29 -102 -53 -176 q-25 -77 -46 -129 q-21 -52 -40 -82.5 q-19 -30.5 -40 -46.5 q-20 -18 -40 -23.5 q-20 -5.5 -51 -7.5 q-12 -1 -27 -1 q-16 0 -45.5 1 q-29.5 1 -75.5 4 q-10 0 -18.5 7 q-8.5 7 -9.5 16 q-2 15 9.5 24.5 q11.5 9.5 28.5 9.5 q2 0 4 0 q21 -1 40 -2 q19 -1 35 -2 q16 -1 30 -1 l23 0 q20 0 31.5 2 q11.5 2 21.5 10 q17 12 35.5 41.5 q18.5 29.5 38.5 79.5 q20 50 43 124 q19 59 40 136 l-570 0 q-5 0 -10 2 q-5 3 -9 6 q-1 -1 -2 -1 q-10 -7 -18 -7 l-3 0 q-7 0 -12 3.5 q-5 3.5 -8 8.5 ZM16 201 q1 6 4.5 11 q3.5 5 9 9 q5.5 4 11 6.5 q5.5 2.5 11.5 2.5 l561 0 q6 0 11 -2.5 q5 -2.5 9 -6.5 q4 -4 5.5 -9 q1.5 -5 0.5 -11 q-1 -5 -4.5 -10 q-3.5 -5 -9 -9 q-5.5 -4 -11 -7 q-5.5 -3 -11.5 -3 l-561 0 q-5 0 -10.5 3 q-5.5 3 -9.5 7 q-4 4 -5.5 9 q-1.5 5 -0.5 10 Z" /><glyph glyph-name="uni4E13" unicode="&#x4e13;" d="M67 502 q1 5 4.5 10 q3.5 5 9 9.5 q5.5 4.5 11.5 6.5 q6 2 12 2 l248 0 q9 18 19 36 q24 48 48 95 l-212 0 q-6 0 -11.5 2.5 q-5.5 2.5 -9.5 7 q-4 4.5 -5.5 9.5 q-1.5 5 -0.5 10 q1 6 4.5 11 q3.5 5 9 8.5 q5.5 3.5 11.5 6 q6 2.5 11 2.5 l231 0 q23 48 44 91 q3 6 7.5 10.5 q4.5 4.5 9.5 8 q5 3.5 10.5 5 q5.5 1.5 10.5 1.5 l2 -1 q5 -1 9 -4.5 q4 -3.5 6.5 -9 q2.5 -5.5 2 -12 q-0.5 -6.5 -2.5 -12.5 q-19 -37 -39 -77 l360 0 q6 0 11.5 -2.5 q5.5 -2.5 9 -6 q3.5 -3.5 5.5 -8.5 q2 -5 1 -11 q-1 -5 -4.5 -10 q-3.5 -5 -9 -9.5 q-5.5 -4.5 -11.5 -7 q-6 -2.5 -12 -2.5 l-378 0 q-30 -59 -59 -118 q-4 -6 -7 -13 l493 0 q6 0 11.5 -2 q5.5 -2 9 -6.5 q3.5 -4.5 5.5 -9.5 q2 -5 1 -10 q-1 -6 -4.5 -11 q-3.5 -5 -9 -9 q-5.5 -4 -11.5 -6.5 q-6 -2.5 -12 -2.5 l-513 0 q-14 -27 -27 -53 q-20 -37 -38 -69 l424 0 q5 0 11 -2 q1 -1 3 -2 q0 2 3 3 q2 1 6 1 q1 0 3 0.5 q2 0.5 4 0.5 q4 2 8.5 0.5 q4.5 -1.5 8.5 -3.5 l4 -3 q4 -3 6.5 -9 q2.5 -6 2 -12 q-0.5 -6 -3.5 -12.5 q-3 -6.5 -10 -12.5 q-31 -27 -68.5 -58 q-37.5 -31 -77 -64 q-39.5 -33 -79.5 -67 q-34 -28 -66 -53 q26 -12 50 -24 q43 -22 78 -43 q5 -3 8.5 -8 q3.5 -5 3.5 -11.5 q0 -6.5 -2 -13 q-2 -6.5 -7 -10.5 l0 -1 q-8 -9 -21.5 -11.5 q-13.5 -2.5 -21.5 2.5 q-30 19 -70 40.5 q-40 21.5 -85.5 43 q-45.5 21.5 -94 41.5 q-48.5 20 -94.5 37 q-7 3 -11.5 7.5 q-4.5 4.5 -6.5 10.5 q-2 6 0 12.5 q2 6.5 8 11.5 q4 5 13.5 8 q9.5 3 15.5 1 q47 -15 98 -35 q44 -17 87 -35 q3 5 9 10 q39 32 80.5 66 q41.5 34 81 67 q39.5 33 73.5 62 q6 5 11 9 l-396 0 q-6 0 -12 2 q-4 2 -7 5 l-1 -1 q-9 -6 -16 -6 l-3 0 q-7 0 -12.5 3.5 q-5.5 3.5 -7.5 9.5 q-2 6 -2 13 q0 7 4 14 q29 50 60 109 q7 14 15 29 l-228 0 q-6 0 -11.5 2.5 q-5.5 2.5 -9 6.5 q-3.5 4 -5.5 9 q-2 5 -1 11 Z" /><glyph glyph-name="uni4E14" unicode="&#x4e14;" d="M288 529 l449 0 q4 0 9 -1 l33 186 q0 2 -1.5 3.5 q-1.5 1.5 -3.5 1.5 l-447 0 q-2 0 -4.5 -1.5 q-2.5 -1.5 -2.5 -3.5 l-32 -185 ZM243 276 l449 0 q5 0 10 -1 l35 200 q-5 -2 -10 -2 l-443 0 q-3 0 -6 1 l-35 -198 ZM199 26 l459 0 l0 2 l34 193 q-5 -2 -10 -2 l-443 0 q-3 0 -6 1 l-34 -192 l0 -2 ZM-25 -3 q1 6 5 11 q4 5 9 9 q5 4 10.5 6.5 q5.5 2.5 11.5 2.5 l130 0 l0 2 l126 717 q2 6 5.5 12 q3.5 6 9 10.5 q5.5 4.5 11 7 q5.5 2.5 11.5 2.5 l515 0 q6 0 11 -2.5 q5 -2.5 9 -7 q4 -4.5 5.5 -10.5 q1.5 -6 0.5 -12 l-127 -717 l0 -2 l121 0 q6 0 11.5 -2.5 q5.5 -2.5 9 -6.5 q3.5 -4 5 -9 q1.5 -5 0.5 -11 q-1 -5 -4.5 -10.5 q-3.5 -5.5 -9 -9.5 q-5.5 -4 -11 -6.5 q-5.5 -2.5 -11.5 -2.5 l-828 0 q-6 0 -11 2.5 q-5 2.5 -8.5 6.5 q-3.5 4 -5.5 9.5 q-2 5.5 -1 10.5 Z" /><glyph glyph-name="uni4E16" unicode="&#x4e16;" d="M489 264 q-1 -3 0.5 -5 q1.5 -2 3.5 -2 l198 0 q2 0 4.5 2 q2.5 2 3.5 5 l46 261 l-210 0 l-46 -261 ZM71 554 q1 6 4.5 11 q3.5 5 9 9.5 q5.5 4.5 11.5 6.5 q6 2 11 2 l119 0 l34 195 q1 7 5 12.5 q4 5.5 9 10 q5 4.5 10.5 7.5 q5.5 3 11.5 3 l2 0 q5 0 10.5 -3 q5.5 -3 8.5 -7.5 q3 -4.5 4.5 -10 q1.5 -5.5 0.5 -11.5 l-34 -196 l198 0 l39 219 q1 6 4.5 11.5 q3.5 5.5 8.5 10 q5 4.5 10.5 7 q5.5 2.5 11.5 2.5 q6 0 10.5 -2.5 q4.5 -2.5 8 -7 q3.5 -4.5 5 -10.5 q1.5 -6 -0.5 -12 l-38 -218 l210 0 l37 207 q0 6 4 11.5 q4 5.5 9 10.5 q5 5 10.5 7.5 q5.5 2.5 10.5 2.5 l3 0 q6 0 10.5 -2.5 q4.5 -2.5 8 -7.5 q3.5 -5 4.5 -10.5 q1 -5.5 0 -11.5 l-37 -207 l126 0 q5 0 10 -2 q5 -2 9 -6.5 q4 -4.5 6 -9.5 q2 -5 0 -11 q0 -5 -4 -10 q-4 -5 -9 -9 q-5 -4 -11 -7 q-6 -3 -12 -3 l-125 0 l-52 -291 q0 -6 -3.5 -12 q-3.5 -6 -9 -10.5 q-5.5 -4.5 -12 -7 q-6.5 -2.5 -12.5 -2.5 l-264 0 q-7 0 -12 2.5 q-5 2.5 -9 7 q-4 4.5 -5.5 10 q-1.5 5.5 -1.5 11.5 l52 292 l-198 0 l-83 -469 q0 -2 1 -4 q1 -2 3 -2 l617 0 q6 0 11.5 -2.5 q5.5 -2.5 9.5 -6.5 q4 -4 5.5 -9 q1.5 -5 0.5 -10 q-1 -6 -4.5 -11 q-3.5 -5 -9 -9.5 q-5.5 -4.5 -11.5 -6.5 q-6 -2 -12 -2 l-653 0 q-5 0 -10.5 2.5 q-5.5 2.5 -9.5 7 q-4 4.5 -5.5 10 q-1.5 5.5 -0.5 12.5 l89 500 l-119 0 q-6 0 -11 3 q-5 3 -8.5 7 q-3.5 4 -5 9 q-1.5 5 -1.5 10 Z" /><glyph glyph-name="uni4E1A" unicode="&#x4e1a;" d="M671.5 251 q-2.5 5 -3 11 q-0.5 6 2 12 q2.5 6 5.5 11 q24 30 49 64.5 q25 34.5 50.5 71.5 q25.5 37 49 73 q23.5 36 43.5 69 q4 6 9.5 11.5 q5.5 5.5 12 8 q6.5 2.5 12.5 3 q6 0.5 11 -2.5 q5 -2 7.5 -6.5 q2.5 -4.5 3.5 -10 q1 -5.5 -0.5 -11.5 q-1.5 -6 -4.5 -11 q-23 -35 -47.5 -73 q-24.5 -38 -50.5 -75 q-26 -37 -52 -72 q-26 -35 -50 -66 q-3 -5 -8.5 -9 q-5.5 -4 -11.5 -6 q-6 -2 -11.5 -2 q-5.5 0 -9.5 2 q-4 3 -6.5 8 ZM120 551 q-2 7 -0.5 13.5 q1.5 6.5 4.5 12 q3 5.5 8.5 10.5 q5.5 5 11.5 6 q10 3 19.5 -2.5 q9.5 -5.5 13.5 -15.5 q10 -35 21.5 -73 q11.5 -38 21.5 -75.5 q10 -37.5 18.5 -72.5 q8.5 -35 14.5 -64 q0 -5 -1.5 -11 q-1.5 -6 -5 -11 q-3.5 -5 -8 -9.5 q-4.5 -4.5 -9.5 -6.5 l-2 0 q-6 -2 -12.5 -1 q-6.5 1 -12 4 q-5.5 3 -9 8 q-3.5 5 -3.5 11 q-4 28 -12 62.5 q-8 34.5 -17 71 q-9 36.5 -20 73 q-11 36.5 -21 70.5 ZM-16 6 q1 6 5 11 q4 5 8.5 9.5 q4.5 4.5 11.5 7 q7 2.5 13 2.5 l255 0 q0 3 1 5 l132 752 q2 6 5 11.5 q3 5.5 8.5 10.5 q5.5 5 11 7.5 q5.5 2.5 10.5 2.5 l1 0 q6 0 11 -2.5 q5 -2.5 8.5 -7.5 q3.5 -5 4.5 -10.5 q1 -5.5 0 -11.5 l-132 -752 q-1 -2 -2 -5 l182 0 l0 1 l134 755 q0 5 3.5 11 q3.5 6 9 10.5 q5.5 4.5 11 7.5 q5.5 3 11.5 3 l1 0 q6 0 10.5 -3 q4.5 -3 8 -7.5 q3.5 -4.5 4.5 -10.5 q1 -6 0 -11 l-133 -755 l0 -1 l256 0 q6 0 11.5 -2.5 q5.5 -2.5 9.5 -7 q4 -4.5 5.5 -9.5 q1.5 -5 0.5 -11 q-1 -5 -4.5 -10.5 q-3.5 -5.5 -9 -9.5 q-5.5 -4 -11.5 -6.5 q-6 -2.5 -12 -2.5 l-812 0 q-7 0 -12.5 2.5 q-5.5 2.5 -9 6.5 q-3.5 4 -5.5 9.5 q-2 5.5 -1 10.5 Z" /><glyph glyph-name="uni4E1C" unicode="&#x4e1c;" d="M650 208 q-3 6 -4 12.5 q-1 6.5 0.5 13 q1.5 6.5 5.5 12 q4 5.5 10 7.5 q8 4 17.5 1.5 q9.5 -2.5 14.5 -7.5 q21 -25 42.5 -52 q21.5 -27 41 -54.5 q19.5 -27.5 36 -54 q16.5 -26.5 28.5 -49.5 q3 -5 2.5 -11 q-0.5 -6 -2.5 -11.5 q-2 -5.5 -5.5 -10.5 q-3.5 -5 -9.5 -8 l-1 0 q-5 -3 -11.5 -3.5 q-6.5 -0.5 -12 1.5 q-5.5 2 -10.5 5.5 q-5 3.5 -7 8.5 q-11 22 -26 47 q-15 25 -33 51.5 q-18 26.5 -37 52.5 q-19 26 -39 49 ZM124.5 654.5 q-3.5 4.5 -5.5 9.5 q-2 5 0 10 q0 6 3.5 11 q3.5 5 9 9 q5.5 4 12 6 q6.5 2 11.5 2 l252 0 q36 53 68 108 q4 6 9.5 10.5 q5.5 4.5 11.5 7 q6 2.5 12.5 2.5 q6.5 0 11.5 -3 l5 -2 q5 -2 7.5 -6.5 q2.5 -4.5 3.5 -10.5 q1 -6 -0.5 -12 q-1.5 -6 -5.5 -11 q-26 -42 -53 -83 l446 0 q6 0 11.5 -2 q5.5 -2 9 -6 q3.5 -4 5.5 -9 q2 -5 1 -11 q-1 -5 -4.5 -10 q-3.5 -5 -9 -9.5 q-5.5 -4.5 -11.5 -6.5 q-6 -2 -12 -2 l-475 0 q-29 -41 -58 -80 q-40 -52 -79 -100 q-27 -32 -54 -61 l258 0 l22 122 q1 6 4.5 11.5 q3.5 5.5 8.5 10.5 q5 5 10.5 7.5 q5.5 2.5 11.5 2.5 l1 0 q6 0 10.5 -2.5 q4.5 -2.5 8 -7 q3.5 -4.5 4.5 -10.5 q1 -6 1 -12 l-22 -122 l265 0 q6 0 11 -2.5 q5 -2.5 9 -6.5 q4 -4 6 -9 q2 -5 0 -11 q0 -6 -3.5 -10.5 q-3.5 -4.5 -9 -9 q-5.5 -4.5 -12 -7 q-6.5 -2.5 -11.5 -2.5 l-265 0 l-59 -335 q-5 -29 -16 -44.5 q-11 -15.5 -34 -23.5 q-19 -7 -49.5 -9 q-30.5 -2 -74.5 -3 q-10 0 -18.5 6.5 q-8.5 6.5 -9.5 15.5 q-2 15 8.5 27.5 q10.5 12.5 28.5 12.5 q30 -1 50 -1 q20 0 33 1 q11 1 15.5 4.5 q4.5 3.5 6.5 14.5 l59 334 l-228 0 q-19 0 -32 -0.5 q-13 -0.5 -21 -2.5 q-10 0 -19 1.5 q-9 1.5 -16 4.5 l-4 2 q-2 1 -3 1 q-7 1 -11 4.5 q-4 3.5 -6 9.5 q0 5 2 12 q2 7 6 13.5 q4 6.5 10 13 q6 6.5 11 11.5 l18 18 q5 5 12.5 14.5 q7.5 9.5 21.5 25.5 q14 16 40.5 49.5 q26.5 33.5 59.5 78.5 q15 20 31 43 l-222 0 q-5 0 -11 2 q-6 2 -9.5 6.5 ZM24 -14 q-10 9 -7 24 q3 15 16 27 q51 41 98 92.5 q47 51.5 85 106.5 q6 9 18.5 15 q12.5 6 21.5 4 l1 -1 q5 -1 9.5 -5.5 q4.5 -4.5 5.5 -10.5 q1 -6 -0.5 -13 q-1.5 -7 -5.5 -12 q-44 -63 -96.5 -121 q-52.5 -58 -105.5 -102 q-5 -4 -10.5 -6.5 q-5.5 -2.5 -11 -3 q-5.5 -0.5 -10.5 0.5 q-5 1 -8 5 Z" /><glyph glyph-name="uni4E1D" unicode="&#x4e1d;" d="M468 182 q-1 5 1 11 q2 6 6.5 12.5 q4.5 6.5 10.5 12.5 q6 6 12 11 q7 4 12 7.5 q5 3.5 11.5 8.5 q6.5 5 16.5 14 q10 9 26 24 q18 15 52 47 q34 32 76 76 q15 14 29 30 q-71 -5 -108 -8 q-40 -3 -59 -5 q-9 -1 -16.5 0.5 q-7.5 1.5 -12.5 4.5 q-3 2 -5 4 l-1 0 q-12 1 -14 13 q-1 5 1 11 q2 6 6.5 12.5 q4.5 6.5 10 13 q5.5 6.5 11.5 12.5 q3 3 5.5 5 q2.5 2 6.5 5.5 q4 3.5 10 10.5 q6 7 17 21 q10 11 32 38 q22 27 49.5 63 q27.5 36 57.5 78.5 q30 42.5 57 86.5 q3 5 8.5 10 q5.5 5 12 8 q6.5 3 12.5 3.5 q6 0.5 11 -1.5 q5 -2 8 -7 q3 -5 4 -10.5 q1 -5.5 0 -12 q-1 -6.5 -6 -11.5 q-61 -92 -127 -177 q-53 -68 -106 -124 l152 8 q9 0 15 -3 q5 -2 9 -6 q10 11 20 23 q48 52 91 106 q5 6 10 9.5 q5 3.5 11.5 5.5 q6.5 2 12.5 2 q6 0 9 -3 q5 -3 7.5 -8 q2.5 -5 3 -11 q0.5 -6 -1.5 -12.5 q-2 -6.5 -6 -12.5 q-96 -112 -197 -212 q-79 -80 -157 -144 l265 13 q7 0 13 -2 q6 -2 10.5 -6.5 q4.5 -4.5 6 -10 q1.5 -5.5 0.5 -10.5 q-2 -9 -12.5 -16.5 q-10.5 -7.5 -22.5 -8.5 q-73 -4 -125 -7 q-52 -3 -88 -5 q-36 -2 -59 -4 q-23 -2 -38 -4 q-7 -1 -14.5 0.5 q-7.5 1.5 -12.5 4.5 q-2 1 -3 2 q-2 0 -4 1 q-11 2 -13 13 ZM61 178 q-1 5 1 11 q2 6 7 12 q5 6 11 12 q6 6 12 11 q6 5 11 8.5 q5 3.5 10.5 8.5 q5.5 5 15.5 14 q10 9 26 25 q17 15 50.5 48 q33.5 33 75.5 78 l20 22 q-62 -4 -96 -6 q-41 -3 -60 -5 q-7 -1 -15 0 q-8 1 -14 5 q-3 2 -5 4 l-1 0 q-12 2 -14 13 q0 5 1.5 11 q1.5 6 6 12.5 q4.5 6.5 10 13 q5.5 6.5 10.5 11.5 l12 12 q3 3 9.5 10 q6.5 7 17.5 21 q11 12 32.5 39 q21.5 27 49 63.5 q27.5 36.5 56.5 79.5 q29 43 57 87 q2 6 7.5 11 q5.5 5 11.5 8 q6 3 12.5 3.5 q6.5 0.5 11.5 -1.5 q5 -2 7.5 -7 q2.5 -5 4 -10.5 q1.5 -5.5 0.5 -11.5 q-1 -6 -5 -12 q-61 -93 -127 -180 q-53 -69 -104 -125 l153 7 q8 0 15 -2 l1 0 q12 13 23 26 q47 54 89 109 q4 5 9.5 8.5 q5.5 3.5 11.5 5.5 q6 2 12 2 q6 0 10 -2 q5 -2 7.5 -7.5 q2.5 -5.5 3 -11.5 q0.5 -6 -1.5 -12.5 q-2 -6.5 -6 -11.5 q-94 -114 -192 -217 q-79 -83 -157 -151 l238 14 q7 0 13 -2 q6 -2 10.5 -6 q4.5 -4 6 -8.5 q1.5 -4.5 0.5 -10.5 q-3 -9 -14 -17.5 q-11 -8.5 -24 -8.5 q-64 -5 -110 -8.5 q-46 -3.5 -79 -6 q-33 -2.5 -53 -4 q-20 -1.5 -34 -3.5 q-9 -1 -16 0.5 q-7 1.5 -12 4.5 q-3 2 -4 3 l-2 0 q-13 3 -14 14 ZM-24 14 q1 5 4.5 10 q3.5 5 9 9 q5.5 4 11.5 6 q6 2 11 2 l827 0 q5 0 10.5 -2 q5.5 -2 9 -6 q3.5 -4 5.5 -9 q2 -5 1 -10 q-1 -6 -4.5 -11 q-3.5 -5 -9 -9 q-5.5 -4 -11 -6.5 q-5.5 -2.5 -11.5 -2.5 l-826 0 q-6 0 -11 2.5 q-5 2.5 -9 6.5 q-4 4 -6 9 q-2 5 -1 11 Z" /><glyph glyph-name="uni4E22" unicode="&#x4e22;" d="M41 348 q2 6 5 11 q3 5 8.5 9 q5.5 4 11.5 6.5 q6 2.5 11 2.5 l379 0 l0 4 l26 146 l-293 0 q-5 0 -10.5 2.5 q-5.5 2.5 -9.5 6.5 q-4 4 -5.5 9 q-1.5 5 -0.5 11 q1 5 4.5 10 q3.5 5 8.5 9 q5 4 11.5 6 q6.5 2 12.5 2 l292 0 l24 134 q0 2 1 5 q-68 -6 -136 -10 q-90 -5 -172 -8 q-12 -1 -20.5 6 q-8.5 7 -9.5 15 q-2 13 10 24 q12 11 29 11 q85 4 174.5 9.5 q89.5 5.5 176 14 q86.5 8.5 163.5 18.5 q77 10 135 24 q8 2 16 -1 q8 -3 10 -9 l4 -4 q5 -6 5 -13 q0 -7 -3 -13.5 q-3 -6.5 -9 -11 q-6 -4.5 -15 -6.5 q-67 -13 -148 -24 q-73 -10 -151 -17 l0 -10 l-24 -134 l295 0 q6 0 11 -2 q5 -2 9 -6 q4 -4 6 -9 q2 -5 0 -10 q0 -6 -3.5 -11 q-3.5 -5 -9 -9 q-5.5 -4 -12 -6.5 q-6.5 -2.5 -12.5 -2.5 l-294 0 l-26 -146 q0 -2 -1 -4 l380 0 q6 0 10.5 -2.5 q4.5 -2.5 8.5 -6.5 q4 -4 6 -9 q2 -5 1 -11 q-1 -5 -4.5 -10 q-3.5 -5 -8.5 -9 q-5 -4 -11 -6.5 q-6 -2.5 -12 -2.5 l-466 0 q4 -2 6 -6 q3 -5 3.5 -11.5 q0.5 -6.5 -2.5 -13 q-3 -6.5 -9 -12.5 q-72 -78 -145 -149 q-49 -47 -98 -87 l524 37 q-16 30 -35 61 q-19 31 -40 60 q-3 6 -4 13 q-1 7 1.5 14 q2.5 7 8 12.5 q5.5 5.5 12.5 8.5 l1 0 q7 3 16.5 0.5 q9.5 -2.5 13.5 -8.5 q22 -30 43.5 -62.5 q21.5 -32.5 41 -66 q19.5 -33.5 35 -66 q15.5 -32.5 26.5 -60.5 q3 -5 1.5 -11.5 q-1.5 -6.5 -4 -12 q-2.5 -5.5 -7.5 -10.5 q-5 -5 -11 -8 l-2 -1 q-6 -3 -12 -2.5 q-6 0.5 -12 3 q-6 2.5 -10 6.5 q-4 4 -7 9 q-9 26 -23 56 l-10 20 q-5 -3 -10 -5 q-6 -4 -14 -4 q-154 -11 -257 -19 q-103 -8 -170 -13.5 q-67 -5.5 -103.5 -8.5 q-36.5 -3 -57.5 -6 q-7 -2 -14.5 -0.5 q-7.5 1.5 -13.5 4.5 q-3 2 -6 5 l-8 4 q-4 4 -5 10 q-1 5 1.5 11.5 q2.5 6.5 7 12.5 q4.5 6 11 11.5 q6.5 5.5 13.5 9.5 q5 3 8 5.5 q3 2.5 6.5 5.5 q3.5 3 11 9 q7.5 6 20.5 17 q14 10 39 33 q25 23 57 54 q32 31 67.5 68 q35.5 37 67.5 76 q4 4 10 7 l-315 0 q-5 0 -10 2.5 q-5 2.5 -9 6.5 q-4 4 -5.5 9 q-1.5 5 -1.5 10 Z" /><glyph glyph-name="uni4E24" unicode="&#x4e24;" d="M415 556 l200 0 q1 9 3 17 l22 125 q1 5 3 10 l-203 0 q1 -5 0 -10 l-22 -125 q-2 -8 -3 -17 ZM17 -46 l101 570 q0 6 4 12 q4 6 9 10.5 q5 4.5 11.5 7 q6.5 2.5 12.5 2.5 l202 0 q1 9 3 17 l22 125 q1 5 3 10 l-248 0 q-6 0 -11 2.5 q-5 2.5 -9 6.5 q-4 4 -5.5 9 q-1.5 5 -0.5 11 q1 5 4.5 10 q3.5 5 9 9.5 q5.5 4.5 11 6.5 q5.5 2 11.5 2 l817 0 q6 0 11 -2 q5 -2 8.5 -6.5 q3.5 -4.5 5.5 -9.5 q2 -5 1 -10 q-1 -6 -4.5 -11 q-3.5 -5 -8.5 -9 q-5 -4 -11 -6.5 q-6 -2.5 -12 -2.5 l-256 0 q1 -5 0 -10 l-22 -125 q-2 -8 -3 -17 l214 0 q6 0 10 -3 l4 -2 q2 -2 4 -3 q3 -4 5 -9 q2 -5 1 -11 q0 -1 -1 -2 l0 -2 l-91 -519 q-6 -31 -18 -47.5 q-12 -16.5 -37 -24.5 q-23 -6 -62.5 -7.5 q-39.5 -1.5 -97.5 -2.5 q-9 0 -17.5 6.5 q-8.5 6.5 -9.5 14.5 q-2 16 9.5 27.5 q11.5 11.5 28.5 11.5 q34 -2 60 -2 q6 0 23.5 0.5 q17.5 0.5 32.5 1.5 q14 0 20 5 q6 5 9 18 l87 494 l-186 0 q-4 -17 -9 -35 q-8 -35 -21 -71 l1 0 q6 -3 9 -8 q17 -25 33.5 -52.5 q16.5 -27.5 31 -55 q14.5 -27.5 27 -53 q12.5 -25.5 21.5 -46.5 q3 -7 1 -17.5 q-2 -10.5 -8 -15.5 q-5 -6 -11.5 -8 q-6.5 -2 -13.5 -1 q-7 1 -12.5 4.5 q-5.5 3.5 -9.5 9.5 q-9 22 -20.5 47 q-11.5 25 -25 51 q-13.5 26 -28.5 52 q-9 16 -19 31 q-24 -55 -59 -112 q-40 -62 -99 -119 q-5 -6 -11.5 -9 q-6.5 -3 -13 -3.5 q-6.5 -0.5 -12 0.5 q-5.5 1 -7.5 5 q-8 9 -4 23.5 q4 14.5 14 26.5 q54 52 89.5 107.5 q35.5 55.5 58 111 q22.5 55.5 34.5 109.5 l6 28 l-200 0 q-4 -17 -8 -35 q-9 -35 -21 -71 q5 -3 8 -7 q20 -34 37.5 -70 q17.5 -36 27.5 -63 q3 -6 1 -15.5 q-2 -9.5 -8 -14.5 q-5 -7 -12 -9.5 q-7 -2.5 -13.5 -1.5 q-6.5 1 -12.5 5 q-6 4 -10 10 q-10 27 -25 60 q-10 21 -19 40 q-24 -54 -58 -108 q-40 -62 -99 -119 q-5 -6 -11.5 -9 q-6.5 -3 -13 -3.5 q-6.5 -0.5 -11.5 0.5 q-5 1 -8 5 q-8 9 -4 23.5 q4 14.5 14 26.5 q54 52 89.5 107.5 q35.5 55.5 58 111 q22.5 55.5 34.5 109.5 l6 28 l-167 0 q-2 0 -4.5 -2 q-2.5 -2 -2.5 -5 l-95 -538 q-1 -6 -4.5 -12 q-3.5 -6 -8.5 -10.5 q-5 -4.5 -10.5 -7 q-5.5 -2.5 -11.5 -2.5 q-6 0 -10.5 2.5 q-4.5 2.5 -8 7 q-3.5 4.5 -5 10.5 q-1.5 6 -0.5 11 Z" /><glyph glyph-name="uni4E25" unicode="&#x4e25;" d="M712 488.5 q-3 4.5 -3.5 10.5 q-0.5 6 1.5 13 q2 7 6 13 q25 28 52 64 q27 36 48 67 q3 6 8.5 11 q5.5 5 12 8 q6.5 3 12.5 4 q6 1 11 -1 q6 -2 9 -6.5 q3 -4.5 4 -11 q1 -6.5 0 -13 q-1 -6.5 -6 -12.5 q-26 -35 -56 -73.5 q-30 -38.5 -56 -67.5 q-7 -7 -17.5 -11 q-10.5 -4 -17.5 -1 q-5 2 -8 6.5 ZM420 448 l155 0 q0 4 1 8 l47 268 l-154 0 l-47 -267 q0 -4 -2 -9 ZM201 633 q-3 7 -2 13.5 q1 6.5 3 13 q2 6.5 7 11 q5 4.5 11 6.5 q9 3 18 -1.5 q9 -4.5 12 -12.5 q18 -33 31.5 -71 q13.5 -38 18.5 -69 q2 -11 -4.5 -21.5 q-6.5 -10.5 -15.5 -13.5 q-7 -2 -12.5 -1 q-5.5 1 -10.5 4 q-5 3 -9 8.5 q-4 5.5 -4 12.5 q-6 27 -17 59.5 q-11 32.5 -26 61.5 ZM-35 -53 q-8 7 -6 21 q2 14 10 26 q29 33 49 68.5 q20 35.5 33 72 q13 36.5 22 73 q9 36.5 15 71.5 l25 138 q1 6 4 11.5 q3 5.5 8.5 10 q5.5 4.5 11 7 q5.5 2.5 11.5 2.5 q5 0 10 -2 q6 2 13 2 l193 0 l0 9 l47 267 l-224 0 q-6 0 -11.5 2.5 q-5.5 2.5 -9.5 6.5 q-4 4 -5.5 8.5 q-1.5 4.5 -0.5 9.5 q1 6 4.5 10.5 q3.5 4.5 8.5 8.5 q5 4 11.5 6 q6.5 2 11.5 2 l732 0 q6 0 11.5 -2 q5.5 -2 9.5 -6 q4 -4 5.5 -8.5 q1.5 -4.5 1.5 -10.5 q-1 -5 -4.5 -9.5 q-3.5 -4.5 -9 -8.5 q-5.5 -4 -11.5 -6.5 q-6 -2.5 -12 -2.5 l-237 0 l-48 -268 q0 -4 -2 -8 l269 0 q13 0 21.5 -8 q8.5 -8 6.5 -18 q0 -5 -4 -10 q-4 -5 -9 -9 q-5 -4 -11 -6 q-6 -2 -13 -2 l-725 0 l-21 -116 q-6 -36 -16.5 -77 q-10.5 -41 -26 -83 q-15.5 -42 -38.5 -84 q-23 -42 -55 -79 q-4 -6 -10.5 -10 q-6.5 -4 -13 -5 q-6.5 -1 -12.5 0 q-6 1 -9 6 Z" /><glyph glyph-name="uni4E2A" unicode="&#x4e2a;" d="M381 -45 l100 567 q1 5 4.5 10.5 q3.5 5.5 8.5 10 q5 4.5 10.5 7 q5.5 2.5 11.5 2.5 l2 0 q6 0 10.5 -2.5 q4.5 -2.5 8 -7 q3.5 -4.5 5 -10 q1.5 -5.5 0.5 -10.5 l-100 -567 q-1 -6 -4.5 -11.5 q-3.5 -5.5 -8.5 -10 q-5 -4.5 -10.5 -7 q-5.5 -2.5 -10.5 -2.5 l-3 0 q-5 0 -10 2.5 q-5 2.5 -8.5 7 q-3.5 4.5 -5 10 q-1.5 5.5 -0.5 11.5 ZM59 402 q-8 13 -1.5 27 q6.5 14 23.5 22 q67 32 133 72.5 q66 40.5 127.5 87 q61.5 46.5 116.5 98.5 q55 52 99 105 q5 4 9.5 7.5 q4.5 3.5 10.5 5 q6 1.5 11.5 2 q5.5 0.5 9.5 -1.5 l1 0 q4 -3 6.5 -8 q2.5 -5 3 -11 q0.5 -6 -1.5 -12.5 q-2 -6.5 -6 -11.5 l-10 -12 q1 -2 2 -3 q58 -101 139.5 -177.5 q81.5 -76.5 188.5 -140.5 q14 -8 15 -23 q1 -15 -10 -27 q-3 -4 -9 -6.5 q-6 -2.5 -12 -4 q-6 -1.5 -11.5 -1 q-5.5 0.5 -10.5 4.5 q-108 67 -192 148 q-80 79 -141 183 q-27 -29 -56 -57 q-59 -56 -124 -106 q-65 -50 -134.5 -93.5 q-69.5 -43.5 -139.5 -75.5 q-4 -3 -9.5 -3.5 q-5.5 -0.5 -10.5 1 q-5 1.5 -9 4 q-4 2.5 -7 6.5 l-1 1 Z" /><glyph glyph-name="uni4E2D" unicode="&#x4e2d;" d="M503 314 l310 0 l49 278 q0 2 -1.5 4 q-1.5 2 -3.5 2 l-304 0 l-50 -284 ZM134 314 l308 0 l50 284 l-302 0 q-2 0 -4.5 -2 q-2.5 -2 -2.5 -4 l-49 -278 ZM63.5 201.5 q-3.5 4.5 -5 10 q-1.5 5.5 0.5 11.5 l71 402 q1 6 4.5 11.5 q3.5 5.5 9 10 q5.5 4.5 11.5 7 q6 2.5 12 2.5 l335 0 l26 149 q2 6 5.5 12 q3.5 6 8.5 10.5 q5 4.5 10.5 7 q5.5 2.5 11.5 2.5 l3 0 q5 0 9.5 -2.5 q4.5 -2.5 8 -7 q3.5 -4.5 5 -10.5 q1.5 -6 0.5 -12 l-27 -149 l339 0 q6 0 11.5 -2.5 q5.5 -2.5 9 -7 q3.5 -4.5 5 -10 q1.5 -5.5 0.5 -10.5 l-70 -398 q-1 -6 -4 -11.5 q-3 -5.5 -8.5 -10 q-5.5 -4.5 -10.5 -7 q-5 -2.5 -11 -2.5 l-2 0 q-6 0 -10.5 2.5 q-4.5 2.5 -8.5 7 q-4 4.5 -5.5 10.5 q-1.5 6 0.5 12 l5 28 l-310 0 l-53 -300 q-1 -6 -4.5 -12 q-3.5 -6 -8.5 -10.5 q-5 -4.5 -10.5 -7 q-5.5 -2.5 -11.5 -2.5 l-2 0 q-6 0 -10.5 2.5 q-4.5 2.5 -8 7 q-3.5 4.5 -5 10.5 q-1.5 6 -0.5 12 l53 300 l-309 0 l-5 -33 q-2 -6 -5 -12 q-3 -6 -8 -10.5 q-5 -4.5 -10.5 -7 q-5.5 -2.5 -11.5 -2.5 q-6 0 -11 2.5 q-5 2.5 -8.5 7 Z" /><glyph glyph-name="uni4E30" unicode="&#x4e30;" d="M10 198 l0 1 q2 6 5 11 q3 5 8.5 9.5 q5.5 4.5 11.5 6.5 q6 2 11 2 l383 0 l31 180 l-295 0 q-5 0 -11 2.5 q-6 2.5 -9.5 6.5 q-3.5 4 -5.5 9 q-2 5 0 10 q0 6 3.5 11 q3.5 5 9 9.5 q5.5 4.5 11.5 6.5 q6 2 12 2 l295 0 l29 165 l-343 0 q-6 0 -12 2.5 q-6 2.5 -9.5 7 q-3.5 4.5 -5 9.5 q-1.5 5 -1.5 11 q2 6 5.5 11 q3.5 5 9 9 q5.5 4 11.5 6.5 q6 2.5 12 2.5 l344 0 l20 117 q2 5 5.5 11 q3.5 6 8.5 10.5 q5 4.5 10.5 7 q5.5 2.5 11.5 2.5 l4 0 q5 0 9.5 -2.5 q4.5 -2.5 8 -7 q3.5 -4.5 5 -10.5 q1.5 -6 -0.5 -11 l-20 -117 l343 0 q6 0 11.5 -2.5 q5.5 -2.5 9.5 -6.5 q4 -4 5.5 -9 q1.5 -5 0.5 -11 q-1 -6 -4.5 -11 q-3.5 -5 -9 -9.5 q-5.5 -4.5 -11.5 -7 q-6 -2.5 -12 -2.5 l-343 0 l-30 -165 l298 0 q6 0 11.5 -2 q5.5 -2 9.5 -6.5 q4 -4.5 5.5 -9.5 q1.5 -5 1.5 -11 q-1 -5 -5 -10 q-4 -5 -9 -9 q-5 -4 -11.5 -6.5 q-6.5 -2.5 -11.5 -2.5 l-299 0 l-31 -180 l385 0 q5 0 10 -2 q5 -2 8.5 -6.5 q3.5 -4.5 6 -9.5 q2.5 -5 0.5 -11 l0 -1 q-1 -5 -4.5 -10 q-3.5 -5 -8.5 -9.5 q-5 -4.5 -11.5 -7 q-6.5 -2.5 -11.5 -2.5 l-385 0 l-37 -212 q-1 -6 -4.5 -11.5 q-3.5 -5.5 -8 -10 q-4.5 -4.5 -10.5 -7.5 q-6 -3 -12 -3 l-4 0 q-5 0 -9.5 3 q-4.5 3 -8 7.5 q-3.5 4.5 -5 10 q-1.5 5.5 -0.5 11.5 l37 212 l-383 0 q-5 0 -10 2.5 q-5 2.5 -8.5 7 q-3.5 4.5 -5.5 9.5 q-2 5 -1 10 Z" /><glyph glyph-name="uni4E32" unicode="&#x4e32;" d="M538 510 l253 0 q2 0 4.5 2 q2.5 2 2.5 4 l26 143 q0 2 -1.5 4 q-1.5 2 -4.5 2 l-253 0 l-27 -155 ZM474 147 l299 0 q3 0 6 -1 l27 157 q0 2 -1.5 4 q-1.5 2 -3.5 2 l-298 0 l-29 -162 ZM219 516 q0 -2 1.5 -4 q1.5 -2 3.5 -2 l252 0 l27 155 l-251 0 q-3 0 -5 -2 q-2 -2 -3 -4 l-25 -143 ZM115 146 q4 1 8 1 l289 0 l28 162 l-290 0 q-2 0 -4.5 -2 q-2.5 -2 -2.5 -4 l-28 -157 ZM48.5 59.5 q-3.5 4.5 -5 10.5 q-1.5 6 0.5 12 l44 251 q1 6 5 12 q4 6 9 10.5 q5 4.5 11.5 7 q6.5 2.5 11.5 2.5 l325 0 l16 92 l-285 0 q-6 0 -11.5 2.5 q-5.5 2.5 -9.5 7 q-4 4.5 -5.5 10 q-1.5 5.5 -0.5 10.5 l36 201 q1 6 4.5 11.5 q3.5 5.5 9 10 q5.5 4.5 11.5 7 q6 2.5 13 2.5 l284 0 l16 86 q1 6 4.5 11.5 q3.5 5.5 8.5 10.5 q5 5 11 7.5 q6 2.5 11 2.5 l4 0 q6 0 10 -2.5 q4 -2.5 8 -7.5 q4 -5 5 -10.5 q1 -5.5 0 -11.5 l-15 -86 l289 0 q7 0 12 -2.5 q5 -2.5 9 -7 q4 -4.5 5.5 -10 q1.5 -5.5 0.5 -11.5 l-35 -201 q-2 -5 -5.5 -10.5 q-3.5 -5.5 -8.5 -10 q-5 -4.5 -11.5 -7 q-6.5 -2.5 -12.5 -2.5 l-289 0 l-17 -92 l335 0 q6 0 11.5 -2.5 q5.5 -2.5 9.5 -7 q4 -4.5 5.5 -10.5 q1.5 -6 0.5 -11 l-45 -250 q0 -6 -3.5 -12 q-3.5 -6 -8.5 -10.5 q-5 -4.5 -10.5 -7 q-5.5 -2.5 -11.5 -2.5 l-4 0 q-5 0 -9.5 2.5 q-4.5 2.5 -8.5 7 q-4 4.5 -5.5 10.5 q-1.5 6 0.5 12 l2 9 l-306 0 l-24 -136 q0 -6 -3.5 -12 q-3.5 -6 -8.5 -10.5 q-5 -4.5 -11 -7 q-6 -2.5 -11 -2.5 l-4 0 q-6 0 -10.5 2.5 q-4.5 2.5 -8 7 q-3.5 4.5 -5 10.5 q-1.5 6 -0.5 12 l24 136 l-288 0 q-4 0 -8 1 l-2 -12 q-1 -6 -4.5 -12 q-3.5 -6 -8.5 -10.5 q-5 -4.5 -10 -7 q-5 -2.5 -11 -2.5 l-2 0 q-6 0 -11 2.5 q-5 2.5 -8.5 7 Z" /><glyph glyph-name="uni4E34" unicode="&#x4e34;" d="M625 35 l160 0 l49 281 q1 2 -0.5 3.5 q-1.5 1.5 -4.5 1.5 l-153 0 l0 -8 l-47 -267 q-2 -5 -4 -11 ZM622.5 565 q-2.5 6 -2.5 12 q0 6 3 12 q3 6 9 10 q6 5 17.5 5 q11.5 0 17.5 -5 q30 -27 59 -58 q29 -31 49 -56 q4 -3 5 -8.5 q1 -5.5 0.5 -11 q-0.5 -5.5 -3 -11.5 q-2.5 -6 -6.5 -10 q-4 -4 -10.5 -6 q-6.5 -2 -13 -2 q-6.5 0 -11.5 2.5 q-5 2.5 -10 6.5 q-19 24 -45 53.5 q-26 29.5 -52 55.5 q-4 5 -6.5 11 ZM411 35 l162 0 q-1 6 0 11 l47 267 q1 4 3 8 l-154 0 q-3 0 -5.5 -1.5 q-2.5 -1.5 -3.5 -4.5 l-49 -280 ZM384 470 q-10 8 -8.5 22.5 q1.5 14.5 13.5 28.5 q57 58 106 133 q49 75 88 158 q3 6 8 10.5 q5 4.5 10.5 8 q5.5 3.5 11.5 5 q6 1.5 10 0.5 q6 -1 10 -5 q4 -4 6.5 -9 q2.5 -5 2 -11.5 q-0.5 -6.5 -3.5 -12.5 q-20 -41 -42 -81 l369 0 q6 0 11 -2 q5 -2 9 -6.5 q4 -4.5 5.5 -9.5 q1.5 -5 0.5 -11 q-1 -5 -4.5 -10 q-3.5 -5 -8.5 -9 q-5 -4 -11.5 -6.5 q-6.5 -2.5 -12.5 -2.5 l-381 0 q-5 0 -10 1 q-11 -19 -24 -37 q-54 -82 -113 -143 q-5 -5 -10 -8 q-5 -3 -11.5 -4.5 q-6.5 -1.5 -12 -1 q-5.5 0.5 -8.5 2.5 ZM339 -45 l69 392 q1 6 4.5 11.5 q3.5 5.5 9 10 q5.5 4.5 12 7 q6.5 2.5 12.5 2.5 l427 0 q7 0 12 -2.5 q5 -2.5 9 -7 q4 -4.5 5.5 -10 q1.5 -5.5 0.5 -10.5 l-68 -389 q-1 -5 -4.5 -10.5 q-3.5 -5.5 -8.5 -10 q-5 -4.5 -10.5 -7 q-5.5 -2.5 -11.5 -2.5 q-6 0 -11 2.5 q-5 2.5 -8.5 7 q-3.5 4.5 -5 10.5 q-1.5 6 -0.5 11 l3 19 l-368 0 q-3 0 -6 1 l-4 -24 q-1 -6 -4.5 -11.5 q-3.5 -5.5 -8.5 -10 q-5 -4.5 -10.5 -7.5 q-5.5 -3 -11 -3 q-5.5 0 -10.5 3 q-5 3 -8 7.5 q-3 4.5 -5 10 q-2 5.5 0 10.5 ZM170 -39 l147 832 q1 6 4 11.5 q3 5.5 8.5 10 q5.5 4.5 11 7 q5.5 2.5 11 2.5 q5.5 0 10.5 -2.5 q5 -2.5 8 -7 q3 -4.5 4.5 -10 q1.5 -5.5 -0.5 -11.5 l-146 -832 q-1 -5 -4.5 -10.5 q-3.5 -5.5 -8 -10 q-4.5 -4.5 -10 -7.5 q-5.5 -3 -11 -3 q-5.5 0 -10.5 3 q-5 3 -8.5 7.5 q-3.5 4.5 -5 10 q-1.5 5.5 -0.5 10.5 ZM29 92 l104 589 q1 6 4 11.5 q3 5.5 8.5 10 q5.5 4.5 10.5 7 q5 2.5 11 2.5 q5 0 9.5 -2.5 q4.5 -2.5 7.5 -7 q3 -4.5 4.5 -10 q1.5 -5.5 -0.5 -11.5 l-103 -589 q-1 -6 -4.5 -11.5 q-3.5 -5.5 -8 -10 q-4.5 -4.5 -10 -7 q-5.5 -2.5 -10.5 -2.5 q-5 0 -10 2.5 q-5 2.5 -8 7 q-3 4.5 -4.5 10 q-1.5 5.5 -0.5 11.5 Z" /><glyph glyph-name="uni4E3A" unicode="&#x4e3a;" d="M508 346 q-3 5 -3.5 12 q-0.5 7 1.5 13.5 q2 6.5 6 11.5 q4 5 11 8 q8 4 18 1 q10 -3 15 -10 q28 -36 52 -77.5 q24 -41.5 39 -73.5 q2 -5 1 -10.5 q-1 -5.5 -3.5 -11 q-2.5 -5.5 -6 -10 q-3.5 -4.5 -8.5 -7.5 q-6 -3 -12 -3 q-6 0 -12 2.5 q-6 2.5 -10.5 6.5 q-4.5 4 -7.5 10 q-13 30 -35 67.5 q-22 37.5 -45 70.5 ZM248 753 q-4 6 -4 13 q0 7 2 13.5 q2 6.5 6.5 12 q4.5 5.5 10.5 8.5 q8 3 18 0 q10 -3 14 -10 q19 -24 36 -51.5 q17 -27.5 29 -50.5 q2 -6 1.5 -11.5 q-0.5 -5.5 -3 -11 q-2.5 -5.5 -7 -10 q-4.5 -4.5 -9.5 -7.5 q-5 -2 -11.5 -2 q-6.5 0 -12 2 q-5.5 2 -10 6 q-4.5 4 -7.5 10 q-9 20 -23 44 q-14 24 -30 45 ZM-2 -46 q-8 11 -3.5 26 q4.5 15 19.5 25 q131 84 213 176.5 q82 92.5 130 186.5 q44 85 68 167 l-293 0 q-7 0 -12.5 2 q-5.5 2 -9 6.5 q-3.5 4.5 -5.5 9.5 q-2 5 -1 11 l0 1 q1 6 5 11 q4 5 9 9 q5 4 11.5 6.5 q6.5 2.5 12.5 2.5 l298 0 q17 67 27 128 l15 81 q1 6 4.5 12 q3.5 6 8.5 10.5 q5 4.5 10.5 7 q5.5 2.5 10.5 2.5 l1 0 q6 0 11 -2.5 q5 -2.5 8.5 -7 q3.5 -4.5 5 -10.5 q1.5 -6 0.5 -12 l-15 -81 q-11 -60 -27 -128 l388 0 q7 0 12 -2.5 q5 -2.5 9 -6.5 q4 -4 6 -9 q2 -5 0 -11 l0 -1 q0 -3 -1 -6 q-33 -151 -57 -256 q-25 -105 -45 -173.5 q-20 -68.5 -37 -105.5 q-17 -37 -35 -54 q-19 -18 -38 -25.5 q-19 -7.5 -45 -9.5 q-11 0 -25 0 q-14 0 -40.5 0.5 q-26.5 0.5 -65.5 2.5 q-11 0 -19 7 q-8 7 -10 16 q-1 15 10.5 25.5 q11.5 10.5 27.5 10.5 q1 0 3 0 q19 -1 34 -2 q15 -1 28.5 -1.5 q13.5 -0.5 24.5 -0.5 l21 0 q15 0 25 2.5 q10 2.5 21 11.5 q14 13 30 48.5 q16 35.5 35.5 103.5 q19.5 68 44.5 171 q20 87 46 206 l-363 0 q-25 -94 -76 -191 q-53 -102 -141 -202 q-88 -100 -228 -189 q-5 -3 -11.5 -4.5 q-6.5 -1.5 -12.5 -1 q-6 0.5 -10.5 2 q-4.5 1.5 -7.5 4.5 Z" /><glyph glyph-name="uni4E3B" unicode="&#x4e3b;" d="M466 784.5 q-2 6.5 -1 13 q1 6.5 4.5 13 q3.5 6.5 9.5 9.5 l2 1 q6 4 16 3.5 q10 -0.5 15 -4.5 q34 -30 66 -64.5 q32 -34.5 54 -65.5 q4 -4 5 -10 q1 -6 -0.5 -11.5 q-1.5 -5.5 -5 -11 q-3.5 -5.5 -9.5 -9.5 l-3 -1 q-4 -4 -10 -5 q-6 -1 -12 0 q-6 1 -11 3.5 q-5 2.5 -9 6.5 q-17 27 -45 59.5 q-28 32.5 -58 61.5 q-6 5 -8 11.5 ZM-24 -12 q1 5 4.5 10 q3.5 5 9 9 q5.5 4 11 6.5 q5.5 2.5 11.5 2.5 l379 0 l0 2 l47 263 l-287 0 q-6 0 -11.5 2.5 q-5.5 2.5 -9.5 6.5 q-4 4 -5.5 9 q-1.5 5 -1.5 11 q2 5 5.5 10 q3.5 5 9 9.5 q5.5 4.5 11.5 7 q6 2.5 11 2.5 l288 0 l39 219 q0 6 4 12 q2 2 4 5 l-336 0 q-6 0 -11 2.5 q-5 2.5 -9.5 6.5 q-4.5 4 -6 9 q-1.5 5 -0.5 11 q1 6 4.5 11 q3.5 5 9 9.5 q5.5 4.5 11.5 6.5 q6 2 12 2 l726 0 q6 0 11.5 -2 q5.5 -2 9 -6.5 q3.5 -4.5 5.5 -9.5 q2 -5 1 -11 q-1 -6 -5 -11 q-4 -5 -8.5 -9 q-4.5 -4 -11 -6.5 q-6.5 -2.5 -12.5 -2.5 l-338 0 q1 -3 2 -5 q1 -6 1 -12 l-39 -219 l293 0 q6 0 11.5 -2.5 q5.5 -2.5 9 -7 q3.5 -4.5 5.5 -9.5 q2 -5 0 -10 q0 -6 -3.5 -11 q-3.5 -5 -9 -9 q-5.5 -4 -11.5 -6.5 q-6 -2.5 -12 -2.5 l-293 0 l-47 -263 l0 -2 l384 0 q6 0 11 -2.5 q5 -2.5 9 -6.5 q4 -4 5.5 -9 q1.5 -5 1.5 -10 q-2 -6 -5.5 -11 q-3.5 -5 -9 -9.5 q-5.5 -4.5 -11 -7 q-5.5 -2.5 -11.5 -2.5 l-826 0 q-6 0 -11 2.5 q-5 2.5 -9 7 q-4 4.5 -5.5 9.5 q-1.5 5 -0.5 11 Z" /><glyph glyph-name="uni4E3E" unicode="&#x4e3e;" d="M484 789 q-2 6 -2 13 q0 7 2 13.5 q2 6.5 6.5 11.5 q4.5 5 10.5 7 q8 4 17.5 0.5 q9.5 -3.5 13.5 -11.5 q15 -26 28 -56.5 q13 -30.5 20 -54.5 q2 -5 1 -10.5 q-1 -5.5 -3.5 -11 q-2.5 -5.5 -7 -9.5 q-4.5 -4 -8.5 -6 q-6 -3 -12 -2.5 q-6 0.5 -11.5 3 q-5.5 2.5 -9 7.5 q-3.5 5 -6.5 10 q-6 21 -16.5 46.5 q-10.5 25.5 -22.5 49.5 ZM242 758 q-3 6 -3 13 q0 7 2 13.5 q2 6.5 6.5 12 q4.5 5.5 11.5 7.5 q7 4 16.5 1.5 q9.5 -2.5 14.5 -8.5 q18 -25 34.5 -53.5 q16.5 -28.5 27.5 -52.5 q2 -5 1 -11 q-1 -6 -3 -11.5 q-2 -5.5 -6 -10 q-4 -4.5 -9 -6.5 q-6 -3 -12 -3.5 q-6 -0.5 -12 2 q-6 2.5 -10.5 6.5 q-4.5 4 -7.5 9 q-8 21 -21.5 45.5 q-13.5 24.5 -29.5 46.5 ZM41 156 q1 6 4.5 10.5 q3.5 4.5 8.5 9 q5 4.5 11.5 7 q6.5 2.5 11.5 2.5 l345 0 l24 136 l-208 0 q-6 0 -11.5 3 q-5.5 3 -9.5 6.5 q-4 3.5 -5.5 8.5 q-1.5 5 -0.5 11 q1 5 4.5 10 q3.5 5 8.5 9 q5 4 11.5 6.5 q6.5 2.5 11.5 2.5 l209 0 l17 97 q1 5 4.5 11 q3.5 6 8.5 10.5 q5 4.5 11 7 q6 2.5 12 2.5 q6 0 10.5 -2.5 q4.5 -2.5 7.5 -7 q3 -4.5 5 -10.5 q2 -6 1 -11 l-17 -97 l218 0 q6 0 11.5 -2.5 q5.5 -2.5 9.5 -6.5 q4 -4 5.5 -9 q1.5 -5 1.5 -10 q-2 -6 -5.5 -11 q-3.5 -5 -8.5 -8.5 q-5 -3.5 -11 -6.5 q-6 -3 -12 -3 l-219 0 l-24 -136 l354 0 q5 0 10 -2.5 q5 -2.5 9 -7 q4 -4.5 6 -9 q2 -4.5 0 -10.5 q0 -5 -3.5 -10 q-3.5 -5 -9 -9 q-5.5 -4 -11.5 -6.5 q-6 -2.5 -12 -2.5 l-353 0 l-31 -175 q-1 -5 -4.5 -11 q-3.5 -6 -8.5 -10.5 q-5 -4.5 -10.5 -7 q-5.5 -2.5 -11.5 -2.5 q-6 0 -11 2.5 q-5 2.5 -8.5 7 q-3.5 4.5 -5 10.5 q-1.5 6 -0.5 11 l31 175 l-345 0 q-6 0 -11 2.5 q-5 2.5 -8.5 6.5 q-3.5 4 -5.5 9 q-2 5 -1 10 ZM36 322 q-7 10 0.5 24 q7.5 14 23.5 23 q39 17 77.5 40.5 q38.5 23.5 74.5 52.5 q36 29 68 61 q28 28 51 58 l-220 0 q-6 0 -11 2 q-5 2 -9 6.5 q-4 4.5 -5.5 9 q-1.5 4.5 -0.5 10.5 q1 5 4.5 10 q3.5 5 8.5 8.5 q5 3.5 11 6 q6 2.5 11 2.5 l569 0 l0 3 q0 6 3 13 q3 7 8 13 q28 29 61 65 q33 36 57 67 q8 10 21 15.5 q13 5.5 22 1.5 l1 -1 q6 -2 9.5 -7 q3.5 -5 4 -11.5 q0.5 -6.5 -1.5 -12.5 q-2 -6 -8 -12 q-31 -37 -67 -74 q-31 -33 -60 -60 l206 0 q6 0 11 -2.5 q5 -2.5 9 -6 q4 -3.5 5.5 -8.5 q1.5 -5 0.5 -10 q-1 -6 -4.5 -10.5 q-3.5 -4.5 -8.5 -9 q-5 -4.5 -11 -6.5 q-6 -2 -11 -2 l-218 0 q13 -26 31 -51 q22 -32 48.5 -59.5 q26.5 -27.5 57 -51.5 q30.5 -24 62.5 -40 q13 -9 15 -23 q2 -14 -9 -25 q-7 -8 -19.5 -10 q-12.5 -2 -20.5 3 q-35 20 -67.5 46 q-32.5 26 -61 57.5 q-28.5 31.5 -52.5 67 q-24 35.5 -40 72.5 q-3 5 -3 11 l0 3 l-271 0 q0 -3 -1 -6 q-2 -6 -7 -11 q-30 -40 -66 -76.5 q-36 -36.5 -75.5 -68 q-39.5 -31.5 -82 -57.5 q-42.5 -26 -83.5 -46 q-10 -5 -21.5 -3.5 q-11.5 1.5 -15.5 9.5 Z" /><glyph glyph-name="uni4E45" unicode="&#x4e45;" d="M-11 -59 q-8 12 -2 27 q6 15 24 24 q96 44 187.5 106 q91.5 62 172.5 144 q81 82 150 184 q58 86 103 185 l-279 0 q-29 -40 -59 -79 q-92 -117 -196 -202 q-5 -4 -11 -6 q-6 -2 -12 -2.5 q-6 -0.5 -11.5 1 q-5.5 1.5 -8.5 4.5 q-1 0 -1 1 q-5 4 -6.5 10.5 q-1.5 6.5 0 13.5 q1.5 7 5.5 14 q4 7 11 12 q101 80 187.5 191 q86.5 111 153.5 239 q3 5 8 9.5 q5 4.5 10.5 8 q5.5 3.5 11.5 4.5 q6 1 11 0 l4 -1 q6 -1 9.5 -5.5 q3.5 -4.5 5.5 -10 q2 -5.5 1.5 -12 q-0.5 -6.5 -4.5 -12.5 q-33 -61 -69 -118 l250 0 q5 0 11 -2 q1 -1 2 -1 q3 3 6 3 q2 0 4 0.5 q2 0.5 4 0.5 l2 0 q2 2 6.5 1 q4.5 -1 6.5 -2 l11 -6 q3 -2 6 -6 q3 -4 4.5 -9 q1.5 -5 1 -10 q-0.5 -5 -2.5 -10 q-55 -126 -126 -231 q4 -5 5 -11 q14 -62 37.5 -121 q23.5 -59 57.5 -109.5 q34 -50.5 76.5 -92 q42.5 -41.5 93.5 -69.5 q14 -9 14.5 -23.5 q0.5 -14.5 -10.5 -27.5 q-3 -4 -8.5 -6.5 q-5.5 -2.5 -11 -4 q-5.5 -1.5 -11 -0.5 q-5.5 1 -9.5 3 q-55 31 -100.5 75.5 q-45.5 44.5 -82 100 q-36.5 55.5 -62.5 120.5 q-20 50 -33 103 q-59 -77 -123 -142 q-86 -87 -181.5 -151.5 q-95.5 -64.5 -194.5 -110.5 q-5 -3 -11 -3 q-6 0 -11.5 1.5 q-5.5 1.5 -10 4 q-4.5 2.5 -6.5 6.5 Z" /><glyph glyph-name="uni4E48" unicode="&#x4e48;" d="M81 383 q-4 5 -5 11.5 q-1 6.5 1 13 q2 6.5 6.5 12.5 q4.5 6 11.5 12 q55 37 110 81.5 q55 44.5 107.5 92.5 q52.5 48 100 97 q47.5 49 85.5 97 q7 9 19.5 13.5 q12.5 4.5 21.5 1.5 l3 -1 q5 -3 8.5 -8 q3.5 -5 4 -11.5 q0.5 -6.5 -2 -13 q-2.5 -6.5 -7.5 -12.5 q-43 -50 -93.5 -102.5 q-50.5 -52.5 -105.5 -102.5 q-55 -50 -112 -96.5 q-57 -46.5 -113 -85.5 q-5 -3 -11 -4.5 q-6 -1.5 -11.5 -1.5 q-5.5 0 -10.5 1.5 q-5 1.5 -7 5.5 ZM40 9 q-2 5 0 11.5 q2 6.5 6.5 13.5 q4.5 7 10.5 12.5 q6 5.5 12 9.5 q10 6 19.5 11.5 q9.5 5.5 21.5 14.5 q12 9 29 22 q17 13 43 34 q27 20 80.5 65 q53.5 45 121 106.5 q67.5 61.5 143 135 q75.5 73.5 146.5 151.5 q3 4 8.5 7 q5.5 3 11.5 4.5 q6 1.5 11 1.5 q5 0 9 -2 l5 -2 q5 -4 8 -9 q3 -5 3.5 -11.5 q0.5 -6.5 -2 -13.5 q-2.5 -7 -7.5 -12 q-153 -162 -309 -301 q-129 -115 -251 -205 l563 46 q-4 6 -8 13 q-21 39 -44 78.5 q-23 39.5 -47 74.5 q-4 6 -4 12.5 q0 6.5 2.5 13 q2.5 6.5 6.5 12 q4 5.5 10 7.5 l1 1 q10 4 20.5 1.5 q10.5 -2.5 15.5 -10.5 q26 -37 51 -78 q25 -41 47.5 -81.5 q22.5 -40.5 41 -79.5 q18.5 -39 30.5 -72 q3 -5 2 -10.5 q-1 -5.5 -3.5 -11 q-2.5 -5.5 -6.5 -10.5 q-4 -5 -9 -7 l-4 -2 q-5 -3 -11.5 -3 q-6.5 0 -12.5 2 q-6 2 -10 6 q-4 4 -6 10 q-13 32 -30 70 q-3 7 -6 13 q-2 -1 -3 -1 q-6 -4 -14 -4 q-170 -14 -284.5 -24 q-114.5 -10 -187.5 -16.5 q-73 -6.5 -112 -10.5 q-39 -4 -60 -7 q-8 -1 -15 0.5 q-7 1.5 -13 5.5 q-1 1 -3 2 q-1 0 -2 1 q-13 3 -15 15 Z" /><glyph glyph-name="uni4E49" unicode="&#x4e49;" d="M496 790 q-1 6 0 12.5 q1 6.5 4 12 q3 5.5 7 10.5 q4 5 10 7 q10 4 20 -2 q10 -6 13 -15 q14 -46 26.5 -95 q12.5 -49 18.5 -91 q2 -5 0.5 -10.5 q-1.5 -5.5 -4.5 -10.5 q-3 -5 -7 -9.5 q-4 -4.5 -9 -6.5 q-7 -2 -13 -2 q-6 0 -11 3.5 q-5 3.5 -9 8.5 q-4 5 -5 11 q-6 40 -16.5 87.5 q-10.5 47.5 -24.5 89.5 ZM-29 -54 q-6 11 2.5 24.5 q8.5 13.5 25.5 19.5 q150 54 275 130 q76 46 144 99 q-2 2 -4 5 q-75 97 -127.5 212.5 q-52.5 115.5 -84.5 243.5 q-1 6 0.5 12 q1.5 6 5 12 q3.5 6 8.5 10 q5 4 10 6 q5 2 10.5 0.5 q5.5 -1.5 10 -4 q4.5 -2.5 8 -7 q3.5 -4.5 5.5 -9.5 q27 -120 77.5 -228.5 q50.5 -108.5 122.5 -200.5 q5 -5 9 -10 q16 14 32 29 q103 94 185.5 205.5 q82.5 111.5 150.5 237.5 q2 6 7.5 10.5 q5.5 4.5 11.5 7.5 q6 3 12 4 q6 1 12 -1 l2 -1 q4 -1 8 -5.5 q4 -4.5 5.5 -9.5 q1.5 -5 0.5 -11.5 q-1 -6.5 -4 -11.5 q-73 -134 -160.5 -251 q-87.5 -117 -196.5 -216 q-15 -14 -31 -28 q55 -61 121 -112 q92 -71 204 -117 q17 -6 19 -21 q2 -15 -11 -28 q-6 -7 -17 -10 q-11 -3 -19 0 q-119 46 -216 121 q-73 56 -133 125 q-73 -58 -156 -107 q-130 -80 -290 -136 q-11 -4 -21.5 -0.5 q-10.5 3.5 -13.5 11.5 Z" /><glyph glyph-name="uni4E4B" unicode="&#x4e4b;" d="M502 783 q-2 6 -2.5 12.5 q-0.5 6.5 1.5 12.5 q2 6 6.5 11.5 q4.5 5.5 10.5 8.5 l2 1 q4 2 9 2 q5 0 10 -1.5 q5 -1.5 9.5 -4 q4.5 -2.5 5.5 -6.5 q17 -29 32.5 -60.5 q15.5 -31.5 24.5 -56.5 q2 -5 1.5 -11 q-0.5 -6 -2.5 -11.5 q-2 -5.5 -6.5 -10 q-4.5 -4.5 -8.5 -7.5 l-3 -1 q-6 -3 -12 -3.5 q-6 -0.5 -12 1.5 q-6 2 -10.5 6 q-4.5 4 -6.5 10 q-8 24 -21.5 53 q-13.5 29 -27.5 55 ZM-17 -13.5 q-1 5.5 0 11.5 q1 6 4 11.5 q3 5.5 8 9.5 q52 46 95 75.5 q43 29.5 80 29.5 q11 0 19 -3 q6 6 13 11 q82 43 169 101.5 q87 58.5 168.5 123.5 q81.5 65 151.5 131 q48 46 86 88 l-620 0 q-6 0 -11.5 2.5 q-5.5 2.5 -9.5 6.5 q-4 4 -5.5 9 q-1.5 5 -0.5 11 q1 6 4.5 11 q3.5 5 9 9.5 q5.5 4.5 11.5 6.5 q6 2 12 2 l643 0 q6 0 11 -2 q3 2 7 2 q2 0 3.5 0.5 q1.5 0.5 3.5 0.5 q4 1 9 0 q5 -1 8 -3 l7 -5 q5 -3 7.5 -9 q2.5 -6 2.5 -12 q0 -6 -2 -12.5 q-2 -6.5 -6 -11.5 q-60 -67 -136.5 -137.5 q-76.5 -70.5 -160.5 -136 q-84 -65.5 -172 -124.5 q-82 -54 -159 -96 l2 -2 q13 -12 31 -25 q42 -30 103 -38.5 q61 -8.5 145 -8.5 q81 0 166 3.5 q85 3.5 156 8.5 q18 2 26 -9 q8 -11 1 -28 q-4 -9 -15 -16.5 q-11 -7.5 -22 -8.5 q-30 -2 -71.5 -3.5 q-41.5 -1.5 -85 -2.5 q-43.5 -1 -87.5 -1.5 q-44 -0.5 -80 -0.5 q-91 0 -153.5 10.5 q-62.5 10.5 -107.5 42.5 q-26 19 -45.5 39 q-19.5 20 -35.5 20 q-21 0 -53 -25 q-32 -25 -71 -65 q-6 -6 -12.5 -9.5 q-6.5 -3.5 -13.5 -4 q-7 -0.5 -13 2 q-6 2.5 -10 8.5 l-1 2 q-2 4 -3 9.5 Z" /><glyph glyph-name="uni4E4C" unicode="&#x4e4c;" d="M178 348 l63 353 q1 7 4.5 12.5 q3.5 5.5 9 10 q5.5 4.5 11.5 7.5 q6 3 12 3 l164 0 q0 7 4 15 q13 15 26 33 q13 18 23 33 q6 11 17.5 17.5 q11.5 6.5 21.5 4.5 q7 -1 11 -5 q4 -4 5.5 -10 q1.5 -6 0.5 -12.5 q-1 -6.5 -6 -13.5 q-14 -18 -28 -37 q-10 -13 -19 -25 l334 0 q6 0 11.5 -2.5 q5.5 -2.5 9.5 -6.5 q4 -4 5.5 -8.5 q1.5 -4.5 1.5 -10.5 q-1 -5 -5 -10 l-1 -1 q-13 -49 -23 -85 q-12 -38 -22.5 -64.5 q-10.5 -26.5 -20 -43 q-9.5 -16.5 -20.5 -24.5 q-13 -12 -28.5 -16 q-15.5 -4 -36.5 -5 q-10 -1 -25 -1 q-8 0 -25.5 0.5 q-17.5 0.5 -48.5 2.5 q-9 0 -17 6 q-8 6 -9 13 q0 13 11 21.5 q11 8.5 26 8.5 q2 0 4 0 q12 -1 22.5 -1 q10.5 0 19 -0.5 q8.5 -0.5 16.5 -0.5 l14 0 q14 0 21.5 1.5 q7.5 1.5 13.5 7.5 q7 6 15 20 q8 14 17.5 39 q9.5 25 19.5 62 q6 19 12 42 l-489 0 q-3 0 -5.5 -1.5 q-2.5 -1.5 -2.5 -3.5 l-52 -297 q0 -2 1 -4 q1 -2 3 -2 l623 0 q6 0 12 -2 l6 -4 l2 -2 q1 0 2 -1 q3 -4 5 -8 q1 -4 0 -10 q0 -2 -1 -4 q-23 -95 -41 -162 q-17 -67 -32.5 -111.5 q-15.5 -44.5 -29 -70 q-13.5 -25.5 -27.5 -38.5 q-16 -15 -32.5 -20.5 q-16.5 -5.5 -41.5 -7.5 l-50 0 q-32 0 -69 2 q-10 0 -18 7 q-8 7 -8 14 q-1 15 10.5 24.5 q11.5 9.5 27.5 9.5 q2 0 3 0 q16 -1 29 -1.5 q13 -0.5 24.5 -1 q11.5 -0.5 21.5 -0.5 l18 0 q14 0 24 2 q10 2 18 9 q11 9 23.5 32.5 q12.5 23.5 26 67 q13.5 43.5 31.5 108.5 q13 49 28 113 l-626 0 q-5 0 -11 2.5 q-6 2.5 -9.5 7 q-3.5 4.5 -5 10.5 q-1.5 6 -0.5 13 ZM9 154 q-2 5 -1 10 q1 5 4.5 10 q3.5 5 9 8.5 q5.5 3.5 11.5 6 q6 2.5 12 2.5 l638 0 q6 0 11.5 -2.5 q5.5 -2.5 9.5 -6 q4 -3.5 5.5 -8.5 q1.5 -5 1.5 -10 q-1 -5 -4.5 -10 q-3.5 -5 -9 -9 q-5.5 -4 -11.5 -6 q-6 -2 -12 -2 l-639 0 q-5 0 -11 2 q-6 2 -9.5 6 q-3.5 4 -5.5 9 Z" /><glyph glyph-name="uni4E4D" unicode="&#x4e4d;" d="M58.5 411.5 q-2.5 6.5 -1.5 13.5 q1 7 5 14 q4 7 10 13 q84 70 161.5 164 q77.5 94 138.5 197 q3 5 8 9 q5 4 10.5 7.5 q5.5 3.5 11 4.5 q5.5 1 10.5 0 l3 -1 q6 -2 10 -6 q4 -4 5.5 -9.5 q1.5 -5.5 0.5 -12.5 q-1 -7 -4 -12 q-41 -67 -86 -130 l603 0 q6 0 11.5 -2 q5.5 -2 9.5 -6.5 q4 -4.5 5.5 -9.5 q1.5 -5 0.5 -11 q-1 -6 -4.5 -11 q-3.5 -5 -9 -9 q-5.5 -4 -12 -6.5 q-6.5 -2.5 -12.5 -2.5 l-437 0 l-29 -161 l384 0 q6 0 11 -2 q5 -2 9 -6 q4 -4 5.5 -9 q1.5 -5 0.5 -11 q-1 -5 -4.5 -10 q-3.5 -5 -9 -9.5 q-5.5 -4.5 -11 -7 q-5.5 -2.5 -11.5 -2.5 l-378 0 q-3 0 -6 1 l-29 -168 q3 1 7 1 l390 0 q5 0 11 -2.5 q6 -2.5 9.5 -7 q3.5 -4.5 5 -9.5 q1.5 -5 0.5 -10 q-1 -6 -4.5 -11 q-3.5 -5 -9 -9 q-5.5 -4 -11.5 -7 q-6 -3 -11 -3 l-391 0 q-3 0 -6 1 l-37 -208 q-2 -5 -5 -11 q-3 -6 -8 -10.5 q-5 -4.5 -10 -7 q-5 -2.5 -11 -2.5 l-3 0 q-5 0 -10 2.5 q-5 2.5 -8.5 7 q-3.5 4.5 -5 10.5 q-1.5 6 -0.5 11 l115 650 l-121 0 q-9 0 -14 3 q-1 0 -1 1 l-22 -28 q-83 -100 -167 -175 q-5 -4 -10.5 -6.5 q-5.5 -2.5 -12 -3 q-6.5 -0.5 -12.5 1 q-6 1.5 -10 3.5 q-4 4 -6.5 10.5 Z" /><glyph glyph-name="uni4E4E" unicode="&#x4e4e;" d="M689.5 424.5 q-2.5 4.5 -3.5 10.5 q-1 6 0.5 12.5 q1.5 6.5 6.5 12.5 q15 19 30 41 q15 22 31 45.5 q16 23.5 30.5 46.5 q14.5 23 27.5 44 q3 6 8.5 11 q5.5 5 11 8 q5.5 3 12.5 4 q7 1 12 -1 l1 -1 q6 -1 9 -6 q3 -5 4 -11.5 q1 -6.5 0 -13 q-1 -6.5 -6 -12.5 q-31 -47 -65 -96 q-34 -49 -65 -88 q-7 -8 -18.5 -12.5 q-11.5 -4.5 -18.5 -1.5 q-5 3 -7.5 7.5 ZM215 601 q-1 7 -0.5 14 q0.5 7 3.5 13 q3 6 8.5 10.5 q5.5 4.5 10.5 6.5 q10 4 19.5 -1.5 q9.5 -5.5 12.5 -13.5 q16 -43 29.5 -90 q13.5 -47 19.5 -85 q1 -5 0 -10 q-1 -5 -4.5 -10.5 q-3.5 -5.5 -8 -9.5 q-4.5 -4 -9.5 -6 q-6 -2 -12.5 -1 q-6.5 1 -11.5 4 q-5 3 -8.5 8.5 q-3.5 5.5 -4.5 11.5 q-6 34 -17.5 77 q-11.5 43 -26.5 82 ZM41.5 311.5 q-3.5 4.5 -5.5 9.5 q-2 5 0 11 l0 1 q1 6 4.5 11 q3.5 5 9 9.5 q5.5 4.5 11 6.5 q5.5 2 11.5 2 l389 0 l60 343 q1 2 2 5 q-71 -6 -143 -10 q-88 -6 -170 -8 q-13 -1 -21.5 5.5 q-8.5 6.5 -9.5 15.5 q-2 12 10 21.5 q12 9.5 27 10.5 q83 3 172 9 q89 6 174.5 15 q85.5 9 163 20 q77.5 11 135.5 25 q9 2 18 -2 q9 -4 12 -11 l1 -2 q3 -6 2 -13 q-1 -7 -4.5 -13 q-3.5 -6 -10 -10.5 q-6.5 -4.5 -14.5 -5.5 q-64 -15 -144 -26 q-66 -9 -137 -16 q1 -5 0 -10 l-60 -343 l374 0 q6 0 11 -2 q5 -2 9 -6.5 q4 -4.5 5.5 -9.5 q1.5 -5 0.5 -11 l0 -1 q-1 -6 -4.5 -11 q-3.5 -5 -9 -9.5 q-5.5 -4.5 -11 -7 q-5.5 -2.5 -11.5 -2.5 l-375 0 l-51 -292 q-7 -37 -22 -54 q-15 -17 -43 -24 q-24 -8 -67.5 -9 q-43.5 -1 -113.5 -2 q-10 0 -18 6 q-8 6 -9 14 q-4 16 6.5 27.5 q10.5 11.5 27.5 11.5 q1 0 3 0 q50 -1 85 -1 q35 0 52 1 q17 2 25 7.5 q8 5.5 10 21.5 l52 293 l-389 0 q-5 0 -10.5 2.5 q-5.5 2.5 -9 7 Z" /><glyph glyph-name="uni4E4F" unicode="&#x4e4f;" d="M448 631 q-2 6 -2 12 q0 6 2.5 12.5 q2.5 6.5 7 11.5 q4.5 5 9.5 7 l1 0 q4 2 9.5 2 q5.5 0 10.5 -1 q5 -1 9 -4.5 q4 -3.5 7 -7.5 q14 -23 27.5 -48 q13.5 -25 22.5 -45 q2 -4 1.5 -10 q-0.5 -6 -2.5 -11.5 q-2 -5.5 -6 -10 q-4 -4.5 -9 -7.5 q-6 -4 -12.5 -4.5 q-6.5 -0.5 -12 1.5 q-5.5 2 -11 6 q-5.5 4 -7.5 10 q-9 19 -21 43 q-12 24 -24 44 ZM174 707 q-1 6 2 12 q3 6 9 10.5 q6 4.5 13.5 7.5 q7.5 3 15.5 3 q87 4 180 10.5 q93 6.5 183 15 q90 8.5 171 20 q81 11.5 143 24.5 q8 2 16.5 -1.5 q8.5 -3.5 11.5 -9.5 l3 -4 q4 -6 3.5 -12 q-0.5 -6 -4 -12 q-3.5 -6 -10 -10.5 q-6.5 -4.5 -14.5 -6.5 q-68 -14 -153 -25 q-85 -11 -176 -19 q-91 -8 -184.5 -14 q-93.5 -6 -179.5 -9 q-11 -1 -20 5.5 q-9 6.5 -10 14.5 ZM-16 -24 q-5 8 -3 19.5 q2 11.5 11 18.5 q54 53 98 85.5 q44 32.5 80 32.5 q12 0 22 -5.5 q10 -5.5 21 -15.5 l9 -9 q7 9 21 15 q77 32 156 74.5 q79 42.5 152 89.5 q73 47 136 96 q36 29 66 56 l-605 0 q-5 0 -10.5 2 q-5.5 2 -9 6.5 q-3.5 4.5 -5.5 10 q-2 5.5 -1 10.5 q1 6 4.5 11 q3.5 5 8.5 9 q5 4 11.5 6.5 q6.5 2.5 12.5 2.5 l630 0 q6 0 11 -3 q2 0 4 -1 l1 1 q4 3 7 3 q2 0 4 0.5 q2 0.5 4 0.5 q3 1 8.5 -0.5 q5.5 -1.5 8.5 -3.5 l5 -4 q5 -4 7 -10 q2 -6 2 -12.5 q0 -6.5 -3.5 -13 q-3.5 -6.5 -8.5 -11.5 q-56 -52 -125.5 -104 q-69.5 -52 -146 -100.5 q-76.5 -48.5 -157.5 -90.5 q-78 -42 -155 -73 q6 -4 11 -9 q43 -33 104 -42.5 q61 -9.5 150 -9.5 q81 0 165 3.5 q84 3.5 153 8.5 q19 2 27 -9 q8 -11 1 -27 q-4 -9 -15 -17 q-11 -8 -21 -9 q-30 -2 -71.5 -3.5 q-41.5 -1.5 -85.5 -2.5 q-44 -1 -87.5 -2 q-43.5 -1 -78.5 -1 q-48 0 -87 3 q-39 3 -71.5 9 q-32.5 6 -59 17.5 q-26.5 11.5 -48.5 29.5 q-13 12 -25 23 q-12 11 -22 21 q-10 10 -18.5 16.5 q-8.5 6.5 -16.5 6.5 q-21 0 -52.5 -27 q-31.5 -27 -73.5 -70 q-10 -15 -24 -17 q-14 -2 -22 11 l-3 4 Z" /><glyph glyph-name="uni4E50" unicode="&#x4e50;" d="M680 221 q-4 6 -4.5 12.5 q-0.5 6.5 2 13 q2.5 6.5 6.5 11.5 q4 5 11 7 q8 4 18 1.5 q10 -2.5 15 -8.5 q20 -25 40 -52.5 q20 -27.5 38.5 -55 q18.5 -27.5 34.5 -54 q16 -26.5 29 -48.5 q2 -5 1.5 -11 q-0.5 -6 -3 -11.5 q-2.5 -5.5 -6.5 -10.5 q-4 -5 -9 -8 l-1 -1 q-6 -3 -12.5 -3 q-6.5 0 -12 1.5 q-5.5 1.5 -9.5 5.5 q-4 4 -6 9 q-11 22 -26.5 47 q-15.5 25 -33 51.5 q-17.5 26.5 -35.5 53 q-18 26.5 -37 50.5 ZM108 392 q0 5 2 12 q2 7 5 14.5 q3 7.5 7 15 q4 7.5 7 14.5 q1 3 1.5 3.5 q0.5 0.5 1 2.5 q0.5 2 3.5 8 q3 6 8 19 q5 11 14.5 35 q9.5 24 20.5 56 q11 32 23 69.5 q12 37.5 20 75.5 q2 8 6.5 14.5 q4.5 6.5 10.5 10.5 l4 2 l4 4 q5 4 12.5 7 q7.5 3 15.5 3 q78 3 161.5 7.5 q83.5 4.5 163.5 12 q80 7.5 152 18 q72 10.5 126 23.5 q8 2 17 -1.5 q9 -3.5 11 -9.5 l1 -1 q4 -7 3.5 -14 q-0.5 -7 -4.5 -13 q-4 -6 -10 -11 q-6 -5 -15 -6 q-61 -14 -135 -24 q-74 -10 -155.5 -17 q-81.5 -7 -163.5 -11 q-76 -5 -146 -6 q-21 -76 -49 -153 q-24 -66 -47 -120 l302 0 l32 180 q0 5 3.5 11 q3.5 6 9 10.5 q5.5 4.5 11 7 q5.5 2.5 10.5 2.5 l2 0 q6 0 10.5 -2.5 q4.5 -2.5 8 -7 q3.5 -4.5 4.5 -10.5 q1 -6 0 -11 l-31 -180 l342 0 q6 0 11 -2.5 q5 -2.5 9 -6.5 q4 -4 6 -9.5 q2 -5.5 1 -11.5 l-1 0 q0 -6 -4 -11.5 q-4 -5.5 -9 -9.5 q-5 -4 -11.5 -6.5 q-6.5 -2.5 -12.5 -2.5 l-342 0 l-64 -367 q-6 -32 -18 -47 q-12 -15 -34 -22 q-21 -8 -54.5 -9.5 q-33.5 -1.5 -89.5 -2.5 q-9 0 -16.5 6.5 q-7.5 6.5 -7.5 13.5 q-4 15 6.5 26.5 q10.5 11.5 26.5 11.5 q1 0 3 0 q24 -1 42 -1 q9 0 25 0.5 q16 0.5 28 1.5 q14 0 20 4.5 q6 4.5 8 17.5 l65 367 l-245 0 q-22 0 -37.5 -0.5 q-15.5 -0.5 -25.5 -1.5 q-10 -1 -19 0.5 q-9 1.5 -16 5.5 q-2 1 -3 2 l-5 0 q-6 1 -10 4.5 q-4 3.5 -6 9.5 ZM-10 6 q-4 4 -5 10 q-1 6 0 12.5 q1 6.5 4.5 13.5 q3.5 7 9.5 12 q52 41 102.5 93.5 q50.5 52.5 92.5 105.5 q8 9 20 14 q12 5 19 1 q6 -2 10 -6.5 q4 -4.5 4.5 -10.5 q0.5 -6 -1 -13 q-1.5 -7 -6.5 -13 q-46 -58 -101 -114 q-55 -56 -107 -101 q-4 -4 -10.5 -7 q-6.5 -3 -12 -3.5 q-5.5 -0.5 -10.5 1 q-5 1.5 -9 5.5 Z" /><glyph glyph-name="uni4E58" unicode="&#x4e58;" d="M614 250 q0 13 3 33 l39 225 q2 5 5 10.5 q3 5.5 8 10 q5 4.5 10.5 7.5 q5.5 3 10.5 3 q5 0 9.5 -3 q4.5 -3 7.5 -7.5 q3 -4.5 4.5 -10 q1.5 -5.5 -0.5 -10.5 l-13 -79 q36 13 73 27 q40 16 69 31 q10 3 21 1.5 q11 -1.5 16 -8.5 q4 -5 3.5 -11.5 q-0.5 -6.5 -3.5 -12.5 q-3 -6 -8.5 -11 q-5.5 -5 -13.5 -7 q-35 -15 -75.5 -29.5 q-40.5 -14.5 -79.5 -27.5 q-6 -1 -11 -2 l-17 -97 q-3 -16 2.5 -21 q5.5 -5 29.5 -5 l112 0 q14 0 20.5 7.5 q6.5 7.5 13.5 37.5 q3 5 8 9 q5 4 10 7.5 q5 3.5 11.5 4.5 q6.5 1 12.5 -1 q3 -1 5.5 -5 q2.5 -4 4 -8.5 q1.5 -4.5 1 -10 q-0.5 -5.5 -3.5 -10.5 q-6 -24 -13.5 -40.5 q-7.5 -16.5 -16.5 -25.5 q-9 -9 -22 -12.5 q-13 -3.5 -34 -3.5 l-123 0 q-26 0 -42.5 3 q-16.5 3 -24.5 12 q-8 9 -8.5 18 q-0.5 9 -0.5 12 ZM34 243 q1 6 3 11.5 q2 5.5 6.5 10.5 q4.5 5 11 8 q6.5 3 13.5 4 q42 7 93 16 q51 9 106 20 l3 0 l17 99 l-171 0 q-12 0 -20.5 8.5 q-8.5 8.5 -6.5 17.5 q0 4 3.5 8.5 q3.5 4.5 9 8.5 q5.5 4 11.5 6 q6 2 12 2 l171 0 l7 43 q2 5 5 11 q3 6 8.5 10.5 q5.5 4.5 10.5 7.5 q5 3 10 3 q6 0 10.5 -3 q4.5 -3 7.5 -7.5 q3 -4.5 4.5 -10.5 q1.5 -6 -0.5 -11 l-45 -261 q-2 -6 -5 -12 q-3 -6 -8 -10.5 q-5 -4.5 -10 -7 q-5 -2.5 -10 -2.5 q-6 0 -10.5 2.5 q-4.5 2.5 -8 7 q-3.5 4.5 -5 10.5 q-1.5 6 0.5 12 l3 19 q-50 -10 -98 -19 q-52 -10 -97 -19 q-11 -3 -21 3 q-10 6 -11 14 ZM-18 -23 q-8 13 0.5 26.5 q8.5 13.5 26.5 20.5 q61 21 121 52 q60 31 116.5 70.5 q56.5 39.5 105.5 84 q49 44.5 87 92.5 q3 4 7 7 l42 239 l-370 0 q-6 0 -11.5 2.5 q-5.5 2.5 -9.5 6 q-4 3.5 -5.5 8.5 q-1.5 5 -1.5 10 q2 6 5.5 10.5 q3.5 4.5 8.5 9 q5 4.5 11.5 6.5 q6.5 2 12.5 2 l370 0 l18 99 q0 4 2 7 q-66 -5 -134 -9 q-86 -5 -165 -7 q-11 -1 -20 5 q-9 6 -9 15 q-1 11 10 21 q11 10 28 10 q80 4 166.5 9.5 q86.5 5.5 170 12.5 q83.5 7 159 16.5 q75.5 9.5 132.5 21.5 q9 1 18 -3 q9 -4 12 -11 q2 -7 0 -13.5 q-2 -6.5 -6 -12 q-4 -5.5 -10.5 -9.5 q-6.5 -4 -13.5 -5 q-63 -12 -141 -21 q-67 -8 -138 -15 q1 -6 0 -12 l-17 -99 l371 0 q7 0 12.5 -2 q5.5 -2 9.5 -6.5 q4 -4.5 5.5 -9 q1.5 -4.5 0.5 -10.5 q-1 -5 -4.5 -10 q-3.5 -5 -9 -8.5 q-5.5 -3.5 -11.5 -6 q-6 -2.5 -12 -2.5 l-372 0 l-42 -239 q4 -4 7 -9 q22 -47 55 -92 q33 -45 75 -85 q42 -40 90.5 -71.5 q48.5 -31.5 101.5 -53.5 q17 -7 20 -20.5 q3 -13.5 -8 -25.5 q-6 -7 -17.5 -10 q-11.5 -3 -19.5 1 q-56 22 -107.5 57 q-51.5 35 -95 78 q-43.5 43 -79.5 93 q-20 29 -36 58 l-52 -294 q-2 -6 -5 -12 q-3 -6 -8.5 -10.5 q-5.5 -4.5 -10.5 -7 q-5 -2.5 -11 -2.5 l-3 0 q-5 0 -10 2.5 q-5 2.5 -8.5 7 q-3.5 4.5 -5 10.5 q-1.5 6 -0.5 12 l52 291 q-25 -27 -53 -53 q-53 -50 -112.5 -92.5 q-59.5 -42.5 -123.5 -77 q-64 -34.5 -128 -56.5 q-9 -4 -19.5 -1 q-10.5 3 -13.5 10 Z" /><glyph glyph-name="uni4E5D" unicode="&#x4e5d;" d="M-23 -57 q-8 11 -2.5 25.5 q5.5 14.5 20.5 23.5 q117 59 190.5 145 q73.5 86 118.5 191 q39 89 64 189 l-243 0 q-6 0 -11 2.5 q-5 2.5 -9 6.5 q-4 4 -5.5 9 q-1.5 5 -0.5 11 l0 1 q1 6 4.5 11 q3.5 5 9 9.5 q5.5 4.5 11 6.5 q5.5 2 11.5 2 l247 0 q23 108 43 218 q0 7 4 12.5 q4 5.5 9 10 q5 4.5 10.5 7.5 q5.5 3 11.5 3 l4 0 q6 0 10 -3 q4 -3 8 -7.5 q4 -4.5 5 -10 q1 -5.5 0 -11.5 q-16 -88 -34 -175 q-4 -22 -9 -44 l274 0 q5 0 10 -2.5 q5 -2.5 9 -6.5 q3 -5 4 -10 q2 -5 1 -10 l0 -1 q0 -2 -1 -3 l-89 -507 q-2 -11 -2 -19 q0 -8 4 -14 q4 -6 29 -6 l115 0 q10 0 16.5 3.5 q6.5 3.5 12.5 13.5 q6 10 11 28.5 q5 18.5 12 46.5 q5 19 18 27.5 q13 8.5 27 2.5 q7 -3 11 -13 q4 -10 1 -19 q-10 -42 -20 -71 q-10 -29 -22.5 -46 q-12.5 -17 -30 -24.5 q-17.5 -7.5 -42.5 -7.5 l-126 0 q-26 0 -43 4.5 q-17 4.5 -26 15.5 q-9 11 -9.5 22 q-0.5 11 -0.5 15 q0 17 4 42 l84 480 l-246 0 q-8 -33 -17 -65 q-25 -81 -57.5 -156 q-32.5 -75 -79.5 -140.5 q-47 -65.5 -110.5 -120.5 q-63.5 -55 -148.5 -97 q-4 -3 -10.5 -4 q-6.5 -1 -11.5 0 q-5 1 -9.5 3 q-4.5 2 -7.5 6 Z" /><glyph glyph-name="uni4E5F" unicode="&#x4e5f;" d="M30 394 q-1 5 1.5 10.5 q2.5 5.5 6.5 10.5 q4 5 9.5 9.5 q5.5 4.5 11.5 6.5 l165 47 l46 258 q1 7 4.5 13 q3.5 6 8.5 10.5 q5 4.5 11 7 q6 2.5 11 2.5 q6 0 10.5 -2.5 q4.5 -2.5 8 -7 q3.5 -4.5 4.5 -10.5 q1 -6 0 -12 l-42 -241 l239 69 l42 238 q1 6 4.5 12 q3.5 6 8.5 10.5 q5 4.5 10.5 7 q5.5 2.5 11.5 2.5 q6 0 10.5 -2.5 q4.5 -2.5 8 -7 q3.5 -4.5 4.5 -10.5 q1 -6 0 -12 l-39 -220 l247 71 q6 2 12 2 l1 0 l9 8 q6 4 14.5 5 q8.5 1 13.5 -2 l4 -2 q8 -3 13.5 -9 q5.5 -6 4.5 -10 q0 -1 -1.5 -4 q-1.5 -3 -1.5 -6 q-27 -139 -50.5 -229 q-23.5 -90 -48.5 -135 q-21 -37 -44 -52.5 q-23 -15.5 -48 -18.5 q-18 -1 -36.5 -2 q-18.5 -1 -29.5 -1 q-12 0 -23 1 q-9 0 -18 6 q-9 6 -9 14 q-1 14 9 24 q10 10 26 9 q10 0 18.5 -0.5 q8.5 -0.5 16.5 -0.5 l28 0 q19 0 33.5 8.5 q14.5 8.5 30.5 39.5 q22 39 42 125 q17 72 37 177 l-260 -76 l-64 -360 q0 -6 -3.5 -11.5 q-3.5 -5.5 -8.5 -10 q-5 -4.5 -10.5 -7.5 q-5.5 -3 -11.5 -3 q-6 0 -10.5 3 q-4.5 3 -8 7.5 q-3.5 4.5 -4.5 10 q-1 5.5 -1 11.5 l61 343 l-239 -70 l-61 -350 q-4 -20 -4 -35 q0 -4 0.5 -15 q0.5 -11 12 -21 q11.5 -10 34.5 -14 q23 -4 60 -4 l371 0 q32 0 53 6 q21 6 37 22 q16 16 27.5 42.5 q11.5 26.5 23.5 67.5 q8 17 21.5 25.5 q13.5 8.5 25.5 2.5 q8 -3 12 -13 q4 -10 0 -20 q-15 -53 -30 -89 q-15 -36 -37 -58 q-22 -22 -56 -31.5 q-34 -9.5 -88 -9.5 l-365 0 q-52 0 -86 6.5 q-34 6.5 -52.5 22.5 q-18.5 16 -21 35.5 q-2.5 19.5 -2.5 30.5 q0 23 5 52 l58 329 l-149 -43 q-5 -2 -11 -1.5 q-6 0.5 -11 3 q-5 2.5 -8 6.5 q-3 4 -5 9 Z" /><glyph glyph-name="uni4E60" unicode="&#x4e60;" d="M274.5 557 q-2.5 6 -2 12 q0.5 6 3 12.5 q2.5 6.5 7.5 10.5 q8 6 19.5 6.5 q11.5 0.5 18.5 -5.5 q27 -19 54.5 -41 q27.5 -22 53.5 -44.5 q26 -22.5 49 -44 q23 -21.5 41 -40.5 q4 -3 5.5 -9 q1.5 -6 1 -11.5 q-0.5 -5.5 -3 -11 q-2.5 -5.5 -7.5 -9.5 l-1 -1 q-4 -5 -10 -7 q-6 -2 -12.5 -2 q-6.5 0 -12.5 2 q-6 2 -10 6 q-17 19 -38.5 40 q-21.5 21 -46.5 42.5 q-25 21.5 -51 43.5 q-26 22 -51 41 q-5 4 -7.5 10 ZM172.5 720 q-1.5 5 -0.5 11 q1 6 4.5 11 q3.5 5 9 9 q5.5 4 11 6 q5.5 2 11.5 2 l697 0 q6 0 11 -2 q5 -2 8.5 -6 q3.5 -4 5.5 -9 q2 -5 1 -11 l0 -1 q0 -1 -1 -1 l0 -5 l-1 -3 q-38 -199 -65 -334 q-27 -135 -47 -221 q-20 -86 -37 -130 q-17 -44 -34 -63 q-19 -22 -38 -30.5 q-19 -8.5 -45 -10.5 q-19 -2 -44 -2 q-6 0 -26.5 0.5 q-20.5 0.5 -55.5 2.5 q-11 0 -19 7 q-8 7 -9 15 q-2 15 9.5 24.5 q11.5 9.5 28.5 9.5 q2 0 3 0 q18 -1 32.5 -1.5 q14.5 -0.5 27.5 -0.5 l43 0 q13 -1 23 2 q10 3 19 13 q15 14 31 59 q16 45 36.5 132.5 q20.5 87.5 48.5 222.5 q24 121 56 287 l-669 0 q-6 0 -11 2 q-5 2 -9 6 q-4 4 -5.5 9 ZM57 94 l0 2 q-2 5 0 11.5 q2 6.5 6 12 q4 5.5 9.5 10 q5.5 4.5 12.5 6.5 q54 16 120 36.5 q66 20.5 139.5 43.5 q73.5 23 151.5 47.5 q78 24.5 156 49.5 q7 3 13 2 q6 -1 11.5 -4 q5.5 -3 8.5 -7.5 q3 -4.5 4 -10.5 q0 -9 -8.5 -19.5 q-8.5 -10.5 -18.5 -13.5 q-75 -24 -152 -49 q-77 -25 -150.5 -49 q-73.5 -24 -141.5 -45.5 q-68 -21.5 -125 -39.5 q-6 -2 -12.5 -1.5 q-6.5 0.5 -11.5 3 q-5 2.5 -8.5 6.5 q-3.5 4 -3.5 9 Z" /><glyph glyph-name="uni4E66" unicode="&#x4e66;" d="M801.5 752 q-2.5 6 -2.5 12 q0 6 2 12 q2 6 7 10 q7 6 18 7 q11 1 18 -4 q32 -25 64 -53 q32 -28 56 -51 q4 -3 5.5 -8.5 q1.5 -5.5 1.5 -11.5 q0 -6 -2 -11.5 q-2 -5.5 -6 -9.5 q-5 -4 -11 -6.5 q-6 -2.5 -12 -2.5 q-6 0 -12 2 q-6 2 -10 5 q-21 23 -50 50 q-29 27 -59 51 q-5 3 -7.5 9 ZM478 388 l248 0 l36 208 q0 2 -1.5 4 q-1.5 2 -3.5 2 l-241 0 l-38 -214 ZM45 361 q2 5 5 10 q3 5 8 9 q5 4 11.5 6 q6.5 2 12.5 2 l336 0 l38 214 l-267 0 q-6 0 -11.5 2 q-5.5 2 -9 6.5 q-3.5 4.5 -5.5 9.5 q-2 5 -1 11 q1 5 4.5 10 q3.5 5 9 9 q5.5 4 11.5 6.5 q6 2.5 12 2.5 l267 0 l25 143 q1 5 4 11 q3 6 8.5 10.5 q5.5 4.5 11.5 7 q6 2.5 11 2.5 l1 0 q6 0 10.5 -2.5 q4.5 -2.5 8 -7 q3.5 -4.5 5 -10.5 q1.5 -6 0.5 -11 l-25 -143 l274 0 q6 0 11.5 -2.5 q5.5 -2.5 9 -7 q3.5 -4.5 5.5 -10.5 q2 -6 0 -12 l-42 -239 l113 0 q6 0 11.5 -2 q5.5 -2 9.5 -6 q4 -4 6 -9 q2 -5 0 -10 q-1 -6 -4 -11 l-1 -1 q-18 -69 -32 -118 q-15 -54 -28 -90 q-13 -36 -25.5 -57 q-12.5 -21 -25.5 -31 q-16 -15 -33 -20 q-17 -5 -41 -6 q-13 -1 -32 -1 q-9 0 -31 0.5 q-22 0.5 -60 2.5 q-10 0 -18.5 6.5 q-8.5 6.5 -9.5 14.5 q-1 15 10.5 24 q11.5 9 28.5 9 q2 0 4 0 q16 0 30 -1 q14 -1 26 -1.5 q12 -0.5 23 -0.5 l18 0 q16 0 25.5 1.5 q9.5 1.5 18.5 8.5 q9 8 19.5 27 q10.5 19 22.5 53 q12 34 26 86 q9 34 20 76 l-387 0 l-67 -377 q0 -5 -3.5 -11 q-3.5 -6 -8.5 -10.5 q-5 -4.5 -11 -7 q-6 -2.5 -11 -2.5 l-1 0 q-6 0 -10.5 2.5 q-4.5 2.5 -8 7 q-3.5 4.5 -5 10.5 q-1.5 6 -1.5 11 l67 377 l-336 0 q-6 0 -11.5 2.5 q-5.5 2.5 -9 6.5 q-3.5 4 -5.5 9 q-2 5 -1 11 Z" /><glyph glyph-name="uni4E70" unicode="&#x4e70;" d="M501.5 123.5 q-4.5 5.5 -5.5 11 q-1 5.5 0 11.5 q1 6 7 12 q5 5 15.5 7 q10.5 2 18.5 -1 q78 -40 151 -85.5 q73 -45.5 126 -87.5 q5 -4 8 -9.5 q3 -5.5 3 -11.5 q0 -6 -3 -12.5 q-3 -6.5 -7 -11.5 q-7 -7 -19.5 -8 q-12.5 -1 -21.5 5 q-49 41 -118 85.5 q-69 44.5 -144 86.5 q-6 3 -10.5 8.5 ZM277 594 q-4 5 -5.5 11 q-1.5 6 0 11.5 q1.5 5.5 6.5 10.5 q5 6 16 8 q11 2 18 -2 q37 -16 73 -38 q36 -22 61 -43 q5 -3 7.5 -8 q2.5 -5 3 -10.5 q0.5 -5.5 -1.5 -11 q-2 -5.5 -6 -10.5 q-4 -4 -10 -6 q-6 -2 -12 -2.5 q-6 -0.5 -12 1 q-6 1.5 -11 4.5 q-22 20 -53 39.5 q-31 19.5 -64 36.5 q-6 4 -10 9 ZM165 739 q2 5 5.5 10 q3.5 5 8.5 9 q5 4 11.5 6.5 q6.5 2.5 11.5 2.5 l698 0 q6 0 11 -2 q1 -1 2 -1 l2 2 q3 2 6 2 q2 0 4 0.5 q2 0.5 4 1.5 q3 1 7.5 0.5 q4.5 -0.5 6.5 -1.5 l6 -2 q6 -2 9 -7 q3 -5 4 -11 q1 -6 0 -12.5 q-1 -6.5 -4 -11.5 q-30 -46 -59.5 -91 q-29.5 -45 -58.5 -80 q-7 -8 -19 -11.5 q-12 -3.5 -19 0.5 q-6 2 -8 7 q-2 5 -1.5 11.5 q0.5 6.5 2.5 13.5 q2 7 7 12 q27 35 55 79 q15 22 28 44 l-693 0 q-6 0 -11 2.5 q-5 2.5 -9 6.5 q-4 4 -5.5 9 q-1.5 5 -1.5 11 ZM142.5 446.5 q-3.5 5.5 -5 11 q-1.5 5.5 0 11.5 q1.5 6 6.5 10 q5 6 15.5 8.5 q10.5 2.5 17.5 -1.5 q38 -15 75.5 -36.5 q37.5 -21.5 61.5 -41.5 q4 -3 7 -7.5 q3 -4.5 3 -10 q0 -5.5 -1.5 -11 q-1.5 -5.5 -4.5 -9.5 q-4 -5 -10 -7.5 q-6 -2.5 -12.5 -3 q-6.5 -0.5 -12.5 1 q-6 1.5 -10 4.5 q-23 19 -55 38 q-32 19 -66 35 q-6 3 -9.5 8.5 ZM-10 -59 q-5 13 4 24.5 q9 11.5 28 15.5 q99 21 172.5 51.5 q73.5 30.5 126.5 70.5 q53 40 89 91 q14 20 27 42 l-375 0 q-5 0 -10.5 2.5 q-5.5 2.5 -9 6.5 q-3.5 4 -6 9 q-2.5 5 -0.5 11 q1 5 4.5 10 q3.5 5 8.5 9 q5 4 11.5 6 q6.5 2 11.5 2 l393 0 l6 16 q26 62 45 137.5 q19 75.5 37 164.5 q1 5 4.5 10.5 q3.5 5.5 8.5 10 q5 4.5 10.5 7 q5.5 2.5 11.5 2.5 q6 0 11 -2.5 q5 -2.5 8 -7.5 q3 -5 4 -11 q1 -6 0 -12 q-29 -142 -63 -254 q-10 -31 -22 -61 l349 0 q5 0 10.5 -2 q5.5 -2 9 -6 q3.5 -4 5.5 -9 q2 -5 1 -10 q-1 -6 -4.5 -11 q-3.5 -5 -8.5 -9 q-5 -4 -11.5 -6.5 q-6.5 -2.5 -12.5 -2.5 l-364 0 q-22 -41 -49 -77 q-62 -83 -163 -141 q-101 -58 -263 -91 q-11 -3 -21.5 2 q-10.5 5 -13.5 12 Z" /><glyph glyph-name="uni4E71" unicode="&#x4e71;" d="M540 4 q0 20 5 49 l131 741 q1 6 5 11.5 q4 5.5 8.5 10 q4.5 4.5 10 7.5 q5.5 3 11.5 3 q6 0 10 -3 q4 -3 8.5 -7.5 q4.5 -4.5 5 -10 q0.5 -5.5 0.5 -11.5 l-131 -742 q-4 -18 -4 -30 q0 -12 5.5 -20 q5.5 -8 35.5 -8 l132 0 q13 0 22 6 q9 6 17.5 21.5 q8.5 15.5 15.5 42.5 q7 27 16 68 q5 20 17 28.5 q12 8.5 26 2.5 q6 -3 10 -12.5 q4 -9.5 3 -19.5 q-13 -54 -24.5 -91 q-11.5 -37 -26 -59.5 q-14.5 -22.5 -34 -32 q-19.5 -9.5 -49.5 -9.5 l-140 0 q-29 0 -48 5 q-19 5 -28 18 q-9 13 -9.5 26 q-0.5 13 -0.5 16 ZM81 44 l307 0 l38 217 q1 2 -0.5 4 q-1.5 2 -3.5 2 l-296 0 q-2 0 -4 -2 q-2 -2 -3 -4 l-38 -217 ZM13 -27 l56 317 q1 6 4.5 11.5 q3.5 5.5 9 10 q5.5 4.5 12 7 q6.5 2.5 12.5 2.5 l148 0 l32 180 l-205 0 q-5 0 -10.5 2 q-5.5 2 -9 6.5 q-3.5 4.5 -5.5 9 q-2 4.5 -1 10.5 q1 5 4 10 q3 5 8.5 8.5 q5.5 3.5 11.5 5.5 q6 2 12 2 l204 0 l29 165 l-72 -10 q-53 -7 -104 -13 q-11 -1 -20.5 4 q-9.5 5 -9.5 12 q-3 11 8 21.5 q11 10.5 27 12.5 q51 6 105 14 q54 8 105 17 q51 9 96.5 20 q45.5 11 80.5 23 q8 2 16 0 q8 -2 12 -7 l1 -1 q5 -6 6 -13 q1 -7 -1.5 -13.5 q-2.5 -6.5 -8.5 -11.5 q-6 -5 -15 -7 q-41 -12 -91 -23 q-36 -8 -75 -15 q0 -3 -1 -5 l-30 -170 l197 0 q5 0 10.5 -2 q5.5 -2 9.5 -5.5 q4 -3.5 6 -8.5 q2 -5 0.5 -10.5 q-1.5 -5.5 -4.5 -10 q-3 -4.5 -8 -9 q-5 -4.5 -11.5 -6.5 q-6.5 -2 -12.5 -2 l-196 0 l-32 -180 l150 0 q7 0 12 -2.5 q5 -2.5 9 -7 q4 -4.5 5.5 -10 q1.5 -5.5 0.5 -11.5 l-55 -312 q-1 -6 -4.5 -11.5 q-3.5 -5.5 -8 -10 q-4.5 -4.5 -10.5 -7 q-6 -2.5 -12 -2.5 q-5 0 -9.5 2.5 q-4.5 2.5 -8 7 q-3.5 4.5 -5 10.5 q-1.5 6 -1.5 12 l2 10 l-306 0 l-3 -15 q-1 -6 -4.5 -12 q-3.5 -6 -8 -10.5 q-4.5 -4.5 -10 -7 q-5.5 -2.5 -10.5 -2.5 q-6 0 -10 2.5 q-4 2.5 -7.5 7 q-3.5 4.5 -5 10 q-1.5 5.5 -0.5 11.5 Z" /><glyph glyph-name="uni4E86" unicode="&#x4e86;" d="M146.5 716 q-1.5 5 -0.5 11 q1 6 4.5 11 q3.5 5 9 9 q5.5 4 11 6.5 q5.5 2.5 11.5 2.5 l669 0 q5 0 11 -3 l4 -2 q0 1 1 1 q4 4 9 4 l4 0 q2 0 4 1 q4 0 10 -1 q6 -1 9 -4 l7 -6 q4 -3 5.5 -9 q1.5 -6 1.5 -12.5 q0 -6.5 -3 -13 q-3 -6.5 -9 -10.5 q-38 -34 -83 -67.5 q-45 -33.5 -93.5 -64.5 q-48.5 -31 -97.5 -59 q-49 -28 -95 -49 l-1 -1 q0 -1 -1 -3 l-79 -450 q-6 -34 -19 -49.5 q-13 -15.5 -42 -23.5 q-24 -7 -67 -8.5 q-43 -1.5 -112 -1.5 q-10 0 -18.5 6.5 q-8.5 6.5 -10.5 14.5 q-3 16 7.5 26.5 q10.5 10.5 26.5 10.5 q1 0 3 0 q52 -1 86.5 -1 q34.5 0 51.5 2 q17 1 23.5 5.5 q6.5 4.5 9.5 18.5 l79 450 q1 6 4.5 11.5 q3.5 5.5 8.5 10.5 q5 5 11 7 l2 2 q2 6 8 12 q6 6 14 10 q45 22 92 50 q47 28 91.5 58 q44.5 30 84.5 60 l24 20 l-641 0 q-6 0 -11 2 q-5 2 -9 6.5 q-4 4.5 -5.5 9.5 Z" /><glyph glyph-name="uni4E88" unicode="&#x4e88;" d="M53 438 q1 5 4.5 10 q3.5 5 9 9.5 q5.5 4.5 11.5 7 q6 2.5 12 2.5 l504 0 q-14 8 -30 17 q-33 19 -69.5 39 q-36.5 20 -74.5 40 q-38 20 -73 38 q-6 3 -10.5 8 q-4.5 5 -5 11 q-0.5 6 1 12.5 q1.5 6.5 6.5 11.5 q6 5 16 8 q10 3 19 0 q35 -17 73.5 -36.5 q38.5 -19.5 76.5 -39.5 l8 -4 q2 2 4 5 q6 6 13 10 q35 18 71.5 40 q36.5 22 71.5 45.5 q35 23.5 67 47.5 q5 4 11 8 l-541 0 q-6 0 -11.5 2 q-5.5 2 -9.5 6.5 q-4 4.5 -5.5 9 q-1.5 4.5 -0.5 10.5 q1 5 4.5 10 q3.5 5 9 9 q5.5 4 11.5 6 q6 2 11 2 l575 0 q5 0 11 -2 q1 0 1 -1 q4 3 9 3 l4 0 q2 0 3 1 q4 1 9.5 0 q5.5 -1 8.5 -5 l5 -4 q4 -4 6 -9.5 q2 -5.5 1.5 -12.5 q-0.5 -7 -4 -13 q-3.5 -6 -9.5 -11 q-32 -26 -68.5 -52 q-36.5 -26 -74.5 -50.5 q-38 -24.5 -76 -46.5 q-30 -18 -60 -34 q9 -4 17 -9 q34 -19 61 -35 q6 -2 9.5 -7.5 q3.5 -5.5 4.5 -11 q1 -5.5 0 -12.5 l-2 -4 l201 0 q6 0 12 -3 l1 0 q3 3 6 3 q2 0 4 0.5 q2 0.5 4 0.5 q4 1 8.5 1 q4.5 0 7.5 -3 l8 -4 q5 -2 8.5 -6.5 q3.5 -4.5 4 -11 q0.5 -6.5 -1 -12.5 q-1.5 -6 -5.5 -12 q-46 -52 -94 -103 q-48 -51 -93 -89 q-3 -3 -8.5 -5.5 q-5.5 -2.5 -10.5 -3.5 q-5 -1 -9.5 -0.5 q-4.5 0.5 -8.5 2.5 l-1 1 q-5 3 -7 8.5 q-2 5.5 -1.5 12 q0.5 6.5 3 12.5 q2.5 6 7.5 12 q42 37 88 86 q26 28 50 56 l-318 0 q1 -2 1 -5 q2 -6 1 -12 l-68 -388 q-6 -30 -18 -45 q-12 -15 -37 -22 q-22 -6 -58.5 -7.5 q-36.5 -1.5 -94.5 -1.5 q-9 -1 -17.5 5.5 q-8.5 6.5 -10.5 14.5 q-3 14 8 25.5 q11 11.5 28 10.5 q28 -1 50 -1 q11 0 29 0.5 q18 0.5 33 1.5 q14 1 19.5 5 q5.5 4 7.5 15 l68 388 q1 5 4 11 q2 3 4 5 l-393 0 q-6 0 -11.5 2.5 q-5.5 2.5 -9.5 6.5 q-4 4 -5.5 9 q-1.5 5 -0.5 11 Z" /><glyph glyph-name="uni4E89" unicode="&#x4e89;" d="M514 397 l239 0 l21 118 q0 2 -1.5 4 q-1.5 2 -3.5 2 l-234 0 q0 -4 -1 -8 l-20 -116 ZM481 211 l239 0 l23 132 l-239 0 l-23 -132 ZM231 575 l323 0 q2 4 5 8 l10 12 q37 30 73 69 q18 19 33 37 l-260 0 q-10 0 -16 3 q-5 3 -7 8 q-27 -26 -57 -53 q-48 -44 -104 -84 ZM31 370 q1 6 4.5 10.5 q3.5 4.5 9 8.5 q5.5 4 11.5 6 q6 2 11 2 l386 0 l21 116 q1 4 3 8 l-252 0 q-6 0 -12 2.5 q-6 2.5 -9.5 6.5 q-3.5 4 -5.5 8.5 q-2 4.5 -1 9.5 q0 2 1 4 q-15 -10 -30 -19 q-11 -7 -22.5 -6 q-11.5 1 -16.5 7 q-9 10 -4 24.5 q5 14.5 22 25.5 q87 53 155.5 116 q68.5 63 114.5 120 q5 7 16 12 q11 5 19 3 l2 0 q8 -2 13 -6.5 q5 -4.5 6.5 -10.5 q1.5 -6 0 -13 q-1.5 -7 -8.5 -14 q-16 -19 -33 -37 l256 0 q6 0 11 -2.5 q5 -2.5 9 -5.5 q1 3 5 5 q3 3 7 3 l4 0 q1 0 3 1 q3 0 8 -1 q5 -1 8 -4 l6 -5 q5 -3 6.5 -8.5 q1.5 -5.5 2 -11.5 q0.5 -6 -2 -12 q-2.5 -6 -6.5 -11 q-34 -40 -76 -79 q-27 -26 -54 -48 l193 0 q6 0 10.5 -2.5 q4.5 -2.5 8.5 -7 q4 -4.5 5.5 -10.5 q1.5 -6 0.5 -12 l-25 -146 l104 0 q6 0 11.5 -2 q5.5 -2 9.5 -6 q4 -4 5.5 -8.5 q1.5 -4.5 1.5 -10.5 q-2 -5 -5 -10 q-3 -5 -8.5 -9 q-5.5 -4 -11.5 -6 q-6 -2 -12 -2 l-105 0 l-27 -154 q-1 -6 -4.5 -12 q-3.5 -6 -8.5 -10.5 q-5 -4.5 -11 -7 q-6 -2.5 -11 -2.5 l-7 0 q-5 -1 -10 -1 l-252 0 l-27 -152 q-5 -30 -17.5 -45.5 q-12.5 -15.5 -38.5 -23.5 q-23 -6 -59.5 -7.5 q-36.5 -1.5 -97.5 -1.5 q-8 0 -16 6 q-8 6 -9 13 q-5 15 6 26 q11 11 30 11 q43 -1 70.5 -1 q27.5 0 42.5 1 q15 1 21 6 q6 5 8 16 l27 152 l-292 0 q-5 0 -10.5 2 q-5.5 2 -9.5 6.5 q-4 4.5 -6 9 q-2 4.5 0 10.5 q0 5 3.5 10 q3.5 5 9 8.5 q5.5 3.5 11.5 6 q6 2.5 12 2.5 l292 0 l23 132 l-386 0 q-6 0 -11 2 q-5 2 -9 6 q-4 4 -6 9 q-2 5 -1 10 Z" /><glyph glyph-name="uni4E8B" unicode="&#x4e8b;" d="M537 511 l240 0 q2 0 4.5 2 q2.5 2 2.5 4 l13 68 q0 2 -1.5 4 q-1.5 2 -4.5 2 l-240 0 l-14 -80 ZM492 261 l262 0 l13 73 q1 2 -0.5 4 q-1.5 2 -3.5 2 l-257 0 l-14 -79 ZM469 126 l261 0 l15 86 l-261 0 l-15 -86 ZM243 517 q0 -2 1.5 -4 q1.5 -2 4.5 -2 l228 0 l14 80 l-228 0 q-2 0 -4.5 -2 q-2.5 -2 -2.5 -4 l-13 -68 ZM14 237 q2 9 13 16.5 q11 7.5 22 7.5 l384 0 l14 79 l-290 0 q-13 0 -21.5 7 q-8.5 7 -6.5 17 q2 8 12.5 15 q10.5 7 23.5 7 l290 0 l14 80 l-259 0 q-6 0 -12 2.5 q-6 2.5 -9.5 7 q-3.5 4.5 -5 10.5 q-1.5 6 -0.5 12 l19 105 q0 6 4 12 q4 6 9 10.5 q5 4.5 11.5 7 q6.5 2.5 12.5 2.5 l259 0 l12 66 l-364 0 q-13 0 -21.5 8 q-8.5 8 -6.5 18 q1 9 12.5 17 q11.5 8 23.5 8 l365 0 l10 53 q1 6 4.5 12 q3.5 6 8.5 10.5 q5 4.5 11 7 q6 2.5 11 2.5 l1 0 q6 0 10.5 -2.5 q4.5 -2.5 8 -7 q3.5 -4.5 5 -10.5 q1.5 -6 -0.5 -12 l-9 -53 l375 0 q13 0 21 -8 q8 -8 7 -17 q-2 -10 -13 -18 q-11 -8 -23 -8 l-376 0 l-12 -66 l275 0 q5 0 10.5 -2.5 q5.5 -2.5 9.5 -7 q4 -4.5 5.5 -10.5 q1.5 -6 0.5 -12 l-18 -105 q-2 -6 -5.5 -12 q-3.5 -6 -9 -10.5 q-5.5 -4.5 -11.5 -7 q-6 -2.5 -12 -2.5 l-274 0 l-14 -80 l288 0 q6 0 12 -2.5 q6 -2.5 9.5 -7 q3.5 -4.5 5 -10.5 q1.5 -6 0.5 -12 l-17 -93 l74 0 q11 0 19.5 -7.5 q8.5 -7.5 7.5 -16.5 q-2 -10 -13.5 -17.5 q-11.5 -7.5 -22.5 -7.5 l-73 0 l-26 -148 q-1 -5 -4 -11 q-3 -6 -8.5 -10.5 q-5.5 -4.5 -11 -7.5 q-5.5 -3 -11.5 -3 l-1 0 q-5 0 -9.5 3 q-4.5 3 -8.5 7.5 q-4 4.5 -5 10.5 q-1 6 -1 11 l3 14 l-262 0 l-14 -81 q-5 -32 -17.5 -46 q-12.5 -14 -35.5 -21 q-21 -6 -54.5 -7.5 q-33.5 -1.5 -87.5 -1.5 q-9 0 -17 5 q-8 5 -9 13 q-3 13 8.5 23 q11.5 10 29.5 10 q23 -1 41 -1 q9 0 25 0.5 q16 0.5 29 0.5 q14 1 20 6 q6 5 8 19 l14 81 l-298 0 q-13 0 -22 7.5 q-9 7.5 -7 16.5 q1 10 12.5 17 q11.5 7 24.5 7 l299 0 l15 86 l-384 0 q-11 0 -19.5 7.5 q-8.5 7.5 -6.5 17.5 Z" /><glyph glyph-name="uni4E8C" unicode="&#x4e8c;" d="M179 659 l1 4 q0 5 4 10.5 q4 5.5 9 9.5 q5 4 11 6.5 q6 2.5 12 2.5 l653 0 q5 0 11 -2.5 q6 -2.5 9.5 -6.5 q3.5 -4 5 -9.5 q1.5 -5.5 1.5 -10.5 l-1 -4 q-1 -6 -5 -11 q-4 -5 -9 -9.5 q-5 -4.5 -11 -7 q-6 -2.5 -12 -2.5 l-653 0 q-5 0 -11 2.5 q-6 2.5 -9.5 7 q-3.5 4.5 -5 9.5 q-1.5 5 -0.5 11 ZM-12 58 l1 7 q1 5 4.5 10 q3.5 5 9 9.5 q5.5 4.5 11 7 q5.5 2.5 11.5 2.5 l824 0 q6 0 11 -2.5 q5 -2.5 9 -7 q4 -4.5 5.5 -9.5 q1.5 -5 0.5 -10 l-1 -7 q-1 -5 -4.5 -10 q-3.5 -5 -8.5 -9.5 q-5 -4.5 -11 -7 q-6 -2.5 -12 -2.5 l-825 0 q-5 0 -10 2.5 q-5 2.5 -9 7 q-4 4.5 -5.5 9.5 q-1.5 5 -0.5 10 Z" /><glyph glyph-name="uni4E8E" unicode="&#x4e8e;" d="M48 393 q-2 5 -1 11 q1 6 5 11 q4 5 9 9.5 q5 4.5 11 6.5 q6 2 11 2 l391 0 l48 271 l-321 0 q-5 0 -10 2.5 q-5 2.5 -9 7 q-4 4.5 -6 9.5 q-2 5 -1 10 q1 6 4.5 11 q3.5 5 9 9.5 q5.5 4.5 11.5 7 q6 2.5 12 2.5 l686 0 q6 0 11 -2.5 q5 -2.5 8.5 -7 q3.5 -4.5 5.5 -9.5 q2 -5 1 -11 q-1 -5 -4.5 -10 q-3.5 -5 -9 -9.5 q-5.5 -4.5 -11.5 -7 q-6 -2.5 -11 -2.5 l-304 0 l-48 -271 l374 0 q6 0 11 -2 q5 -2 9 -6.5 q4 -4.5 5.5 -9.5 q1.5 -5 0.5 -11 q-1 -6 -4.5 -11 q-3.5 -5 -9 -9 q-5.5 -4 -11 -6.5 q-5.5 -2.5 -11.5 -2.5 l-374 0 l-63 -357 q-7 -37 -21.5 -54 q-14.5 -17 -41.5 -25 q-24 -6 -66.5 -8 q-42.5 -2 -110.5 -2 q-10 -1 -18 6 q-8 7 -10 15 q-3 15 7.5 27.5 q10.5 12.5 28.5 12.5 q40 -2 70 -2 q8 0 28.5 0.5 q20.5 0.5 37.5 1.5 q16 1 23.5 6.5 q7.5 5.5 10.5 20.5 l63 358 l-391 0 q-5 0 -10.5 2.5 q-5.5 2.5 -9 6.5 q-3.5 4 -5.5 9 Z" /><glyph glyph-name="uni4E91" unicode="&#x4e91;" d="M213 721 l0 2 q1 5 5 10.5 q4 5.5 9 9.5 q5 4 11.5 6 q6.5 2 11.5 2 l610 0 q6 0 11 -2 q5 -2 9 -6 q4 -4 6 -9.5 q2 -5.5 0 -10.5 l0 -2 q-1 -5 -4.5 -10.5 q-3.5 -5.5 -9 -10 q-5.5 -4.5 -11.5 -6.5 q-6 -2 -11 -2 l-610 0 q-6 0 -11.5 2 q-5.5 2 -9 6.5 q-3.5 4.5 -5.5 10 q-2 5.5 -1 10.5 ZM57 -15 q-4 5 -5 11 q-1 6 1 12.5 q2 6.5 6 13.5 q4 7 10 13 q6 6 12 11 q5 4 9 8 l9 9 q5 5 13 14.5 q8 9.5 22 25.5 q15 14 42.5 46.5 q27.5 32.5 63 76 q35.5 43.5 73.5 95.5 q32 43 62 88 l-293 0 q-6 0 -11 2 q-5 2 -8.5 6.5 q-3.5 4.5 -5.5 10 q-2 5.5 -1 10.5 l0 2 q1 6 5 11 q4 5 8.5 9 q4.5 4 11 6.5 q6.5 2.5 11.5 2.5 l823 0 q5 0 10 -2.5 q5 -2.5 9 -6.5 q4 -4 6 -9 q2 -5 0 -11 l0 -2 q-1 -5 -4.5 -10.5 q-3.5 -5.5 -8.5 -10 q-5 -4.5 -11 -6.5 q-6 -2 -11 -2 l-453 0 q-1 -6 -6 -12 q-77 -110 -163 -213 q-67 -80 -131 -145 l548 45 q-3 7 -6 13 q-19 40 -40 79 q-21 39 -41 75 q-3 6 -3 12.5 q0 6.5 2.5 13 q2.5 6.5 7 12 q4.5 5.5 10.5 7.5 l2 2 q10 4 20.5 1 q10.5 -3 14.5 -12 q21 -37 43 -77 q22 -40 42 -80.5 q20 -40.5 38 -78.5 q18 -38 30 -70 q2 -5 1.5 -11 q-0.5 -6 -3 -12 q-2.5 -6 -6 -11 q-3.5 -5 -9.5 -7 l-4 -3 q-5 -3 -11.5 -3 q-6.5 0 -12 2 q-5.5 2 -10.5 6 q-5 4 -7 10 q-13 32 -29 69 q-2 6 -5 12 q-1 -1 -2 -1 q-6 -4 -14 -4 q-160 -14 -267.5 -23.5 q-107.5 -9.5 -176 -16 q-68.5 -6.5 -106.5 -11 q-38 -4.5 -59 -7.5 q-7 -1 -14.5 0 q-7.5 1 -12.5 5 q-3 2 -6 5 q-5 2 -9 5 Z" /><glyph glyph-name="uni4E92" unicode="&#x4e92;" d="M245 250 l382 0 q3 0 7 -1 q8 28 17 56 q21 67 38 127 q9 30 17 56 q-4 -1 -8 -1 l-357 0 q-3 0 -6 1 q-8 -21 -15 -42 q-24 -64 -46 -123 q-15 -39 -29 -73 ZM-25.5 -18 q-1.5 5 -0.5 11 q1 6 4.5 11 q3.5 5 9 9 q5.5 4 11 6 q5.5 2 11.5 2 l556 0 l0 2 q-1 6 2 13 q20 61 41 131 q4 14 8 27 l-382 0 q-6 0 -12 2 l-6 4 q-9 -6 -17 -6 l-5 0 q-7 0 -12.5 3.5 q-5.5 3.5 -8.5 9 q-3 5.5 -3 12 q0 6.5 4 13.5 q20 49 42.5 108.5 q22.5 59.5 45.5 122.5 q23 63 45.5 126.5 q22.5 63.5 41.5 118.5 q1 4 3 8 l-186 0 q-6 0 -11.5 2.5 q-5.5 2.5 -9.5 6.5 q-4 4 -5.5 9 q-1.5 5 -0.5 11 q0 5 4 10 q4 5 9 9.5 q5 4.5 11.5 6.5 q6.5 2 11.5 2 l766 0 q5 0 11 -2 q6 -2 9.5 -6.5 q3.5 -4.5 5.5 -9.5 q2 -5 1 -10 q-1 -6 -4.5 -11 q-3.5 -5 -8.5 -9 q-5 -4 -11.5 -6.5 q-6.5 -2.5 -12.5 -2.5 l-521 0 l0 -4 q0 -6 -1 -13 q-21 -59 -44 -124 q-5 -16 -11 -32 l353 0 q7 0 12 -2 q1 0 1 -1 l0 1 q2 2 3 2 q1 0 2.5 0.5 q1.5 0.5 2.5 1.5 l4 0 q2 0 4.5 0.5 q2.5 0.5 4.5 -0.5 l8 0 q6 -1 10.5 -4.5 q4.5 -3.5 7.5 -8.5 q3 -5 4 -10.5 q1 -5.5 -1 -11.5 q-14 -48 -31.5 -108.5 q-17.5 -60.5 -36.5 -125 q-19 -64.5 -39.5 -129.5 q-20.5 -65 -39.5 -122 q0 -2 -1 -4 l218 0 q6 0 11 -2 q5 -2 8.5 -6 q3.5 -4 5.5 -9 q2 -5 1 -11 q-1 -6 -4.5 -11 q-3.5 -5 -9 -9.5 q-5.5 -4.5 -11 -6.5 q-5.5 -2 -11.5 -2 l-831 0 q-6 0 -11 2 q-5 2 -9 6.5 q-4 4.5 -5.5 9.5 Z" /><glyph glyph-name="uni4E94" unicode="&#x4e94;" d="M298 39 l304 0 l0 2 q15 49 30.5 103 q15.5 54 29.5 107.5 q14 53.5 26 101.5 q5 18 9 35 l-275 0 q-8 -24 -16 -47 q-30 -87 -59 -167 q-27 -75 -49 -135 ZM-20 -1 q-2 5 -1 11 q1 6 4.5 11 q3.5 5 8.5 9.5 q5 4.5 11.5 6.5 q6.5 2 11.5 2 l220 0 q0 3 2 7 q24 63 53.5 143.5 q29.5 80.5 58.5 166.5 q5 16 11 32 l-162 0 q-6 0 -11.5 2.5 q-5.5 2.5 -9.5 6.5 q-4 4 -5.5 9 q-1.5 5 -0.5 11 q1 5 4 10.5 q3 5.5 8.5 9.5 q5.5 4 12 6 q6.5 2 12.5 2 l171 0 q14 42 28 83 q26 81 49 151 l-263 0 q-5 0 -10.5 2.5 q-5.5 2.5 -9 7 q-3.5 4.5 -5.5 9.5 q-2 5 0 10 q0 6 3.5 11 q3.5 5 9 9.5 q5.5 4.5 11.5 6.5 q6 2 11 2 l687 0 q6 0 11.5 -2 q5.5 -2 9 -6.5 q3.5 -4.5 5 -9.5 q1.5 -5 1.5 -11 q-2 -5 -5.5 -10 q-3.5 -5 -9 -9.5 q-5.5 -4.5 -11 -7 q-5.5 -2.5 -11.5 -2.5 l-361 0 q-25 -77 -54 -164 l-24 -70 l262 0 q5 0 10 -2 q1 2 3 2 l2 1 q2 0 4 1 l3 1 q2 0 4.5 0.5 q2.5 0.5 4.5 -0.5 l10 -1 q6 0 10 -3.5 q4 -3.5 7.5 -8 q3.5 -4.5 5 -10 q1.5 -5.5 0.5 -11.5 q-10 -40 -23 -87.5 q-13 -47.5 -26.5 -98 q-13.5 -50.5 -27.5 -100.5 q-14 -46 -26 -89 l177 0 q6 0 10.5 -2 q4.5 -2 8.5 -6.5 q4 -4.5 6 -9.5 q2 -5 1 -11 q-1 -6 -4.5 -11 q-3.5 -5 -9 -9 q-5.5 -4 -11.5 -7 q-6 -3 -12 -3 l-826 0 q-5 0 -10 3 q-5 3 -8.5 7 q-3.5 4 -5.5 9 Z" /><glyph glyph-name="uni4E9A" unicode="&#x4e9a;" d="M665.5 230.5 q-2.5 4.5 -3 10.5 q-0.5 6 1 12.5 q1.5 6.5 4.5 11.5 q23 29 47 62 q24 33 48 67 q24 34 46.5 68 q22.5 34 41.5 65 q3 6 8.5 11 q5.5 5 11.5 8 q6 3 12 3.5 q6 0.5 12 -1.5 q4 -2 7 -6.5 q3 -4.5 4.5 -9.5 q1.5 -5 1 -11.5 q-0.5 -6.5 -4.5 -11.5 q-22 -34 -45.5 -69.5 q-23.5 -35.5 -48 -70.5 q-24.5 -35 -49 -68 q-24.5 -33 -48.5 -62 q-2 -5 -7 -8.5 q-5 -3.5 -10.5 -5.5 q-5.5 -2 -11 -2.5 q-5.5 -0.5 -9.5 1.5 q-6 2 -8.5 6.5 ZM331 43 l177 0 l119 673 l-177 0 l-119 -673 ZM112 511 q-1 6 0 12.5 q1 6.5 3.5 12 q2.5 5.5 7 10 q4.5 4.5 10.5 6.5 q4 1 9.5 0.5 q5.5 -0.5 10 -3 q4.5 -2.5 8 -6.5 q3.5 -4 5.5 -9 q12 -33 23 -69.5 q11 -36.5 20.5 -72 q9.5 -35.5 17.5 -69 q8 -33.5 14 -62.5 q1 -5 -0.5 -10.5 q-1.5 -5.5 -4.5 -11 q-3 -5.5 -7.5 -9.5 q-4.5 -4 -9.5 -6 l-1 -1 q-6 -2 -12.5 -1 q-6.5 1 -11 4 q-4.5 3 -8 8 q-3.5 5 -5.5 11 q-4 28 -11 60.5 q-7 32.5 -16 67.5 q-9 35 -20 70 q-11 35 -22 68 ZM-29 15 q2 5 5.5 10 q3.5 5 8.5 9.5 q5 4.5 11 6.5 q6 2 12 2 l261 0 l118 673 l-234 0 q-6 0 -11.5 3 q-5.5 3 -9.5 7 q-4 4 -5.5 9 q-1.5 5 -0.5 11 q1 5 4.5 10.5 q3.5 5.5 9 10 q5.5 4.5 11.5 6.5 q6 2 12 2 l791 0 q6 0 11.5 -2 q5.5 -2 9.5 -6.5 q4 -4.5 5.5 -10 q1.5 -5.5 0.5 -10.5 q-1 -6 -4.5 -11 q-3.5 -5 -9 -9 q-5.5 -4 -11.5 -7 q-6 -3 -12 -3 l-255 0 l-118 -673 l277 0 q5 0 10.5 -2 q5.5 -2 9 -6.5 q3.5 -4.5 5.5 -9.5 q2 -5 0 -10 q0 -6 -3.5 -11 q-3.5 -5 -9 -9 q-5.5 -4 -11.5 -6.5 q-6 -2.5 -11 -2.5 l-840 0 q-6 0 -11.5 2.5 q-5.5 2.5 -9 6.5 q-3.5 4 -5 9 q-1.5 5 -1.5 11 Z" /><glyph glyph-name="uni4E9B" unicode="&#x4e9b;" d="M547 397 q0 16 4 39 l64 369 q2 5 5 11 q3 6 8.5 10.5 q5.5 4.5 11 7 q5.5 2.5 10.5 2.5 l1 0 q6 0 10.5 -2.5 q4.5 -2.5 8 -7 q3.5 -4.5 5 -10.5 q1.5 -6 -0.5 -11 l-31 -176 q30 10 59 21 q33 12 65 25 q32 13 60.5 26 q28.5 13 51.5 26 q8 4 19 3 q11 -1 17 -7 l1 -1 q4 -6 5.5 -12.5 q1.5 -6.5 -1 -13 q-2.5 -6.5 -8 -12 q-5.5 -5.5 -13.5 -8.5 q-57 -28 -124.5 -53.5 q-67.5 -25.5 -135.5 -46.5 q-3 -1 -6 -1 l-24 -139 q-2 -9 -2 -16 q0 -13 7.5 -19.5 q7.5 -6.5 44.5 -6.5 l174 0 q13 0 22 3.5 q9 3.5 15.5 13 q6.5 9.5 12.5 26 q6 16.5 13 44.5 q5 6 11 13 q6 7 12 12 q6 5 12 7 q6 2 13 -1 q7 -3 11 -13 q4 -10 0 -20 q-12 -41 -22 -68.5 q-10 -27.5 -24 -43.5 q-14 -16 -33 -22.5 q-19 -6.5 -49 -6.5 l-182 0 q-33 0 -54 4.5 q-21 4.5 -31.5 15.5 q-10.5 11 -11.5 22.5 q-1 11.5 -1 16.5 ZM126 201 q1 6 5 11 q4 5 9 9 q5 4 11.5 6.5 q6.5 2.5 11.5 2.5 l608 0 q6 0 11.5 -2.5 q5.5 -2.5 9.5 -6.5 q4 -4 5.5 -9 q1.5 -5 0.5 -11 q0 -6 -4 -11 q-4 -5 -9 -9 q-5 -4 -11.5 -6.5 q-6.5 -2.5 -11.5 -2.5 l-608 0 q-6 0 -11.5 2.5 q-5.5 2.5 -9.5 6.5 q-4 4 -5.5 9 q-1.5 5 -1.5 11 ZM29 336 q0 6 3 11.5 q3 5.5 8 10.5 q5 5 11 8.5 q6 3.5 12 3.5 q20 2 40 5 q-1 5 0 11 l55 307 q0 6 3 11.5 q3 5.5 8 10 q5 4.5 10.5 7.5 q5.5 3 11.5 3 q5 0 9.5 -3 q4.5 -3 7.5 -7.5 q3 -4.5 4 -10 q1 -5.5 1 -10.5 l-55 -310 q0 -1 -1 -3 q42 5 89 11 q8 1 17 2 q-2 6 -1 12 l71 399 q1 5 4 11 q3 6 8.5 10.5 q5.5 4.5 11 7 q5.5 2.5 11.5 2.5 q5 0 10 -2.5 q5 -2.5 8.5 -7 q3.5 -4.5 4.5 -10.5 q1 -6 0 -11 l-26 -147 l133 0 q7 0 12.5 -2.5 q5.5 -2.5 9 -6 q3.5 -3.5 6 -8.5 q2.5 -5 1 -10 q-1.5 -5 -5 -10 q-3.5 -5 -8.5 -9.5 q-5 -4.5 -11.5 -6.5 q-6.5 -2 -12.5 -2 l-134 0 l-34 -198 l-2 -4 q70 9 142 18 q6 1 11.5 -1 q5.5 -2 10.5 -6 q5 -4 7.5 -8.5 q2.5 -4.5 0.5 -10.5 q-1 -10 -11 -18.5 q-10 -8.5 -20 -10.5 q-109 -14 -214 -28 q-105 -14 -187 -24 q-6 -1 -11 0.5 q-5 1.5 -10 5.5 q-5 4 -7.5 8.5 q-2.5 4.5 -1.5 9.5 ZM-23.5 -32 q-1.5 5 -0.5 11 q1 6 4.5 11 q3.5 5 8.5 9 q5 4 11.5 6.5 q6.5 2.5 13.5 2.5 l816 0 q7 0 12 -2.5 q5 -2.5 9 -6.5 q4 -4 6 -9 q2 -5 0 -11 q0 -6 -3.5 -11 q-3.5 -5 -9 -9.5 q-5.5 -4.5 -11.5 -7 q-6 -2.5 -13 -2.5 l-816 0 q-7 0 -12.5 2.5 q-5.5 2.5 -9.5 7 q-4 4.5 -5.5 9.5 Z" /><glyph glyph-name="uni4EA4" unicode="&#x4ea4;" d="M667 548.5 q-3 6.5 -2 13.5 q1 7 4 12.5 q3 5.5 10 9.5 q7 5 17.5 5 q10.5 0 15.5 -4 q26 -20 52.5 -43 q26.5 -23 51 -47 q24.5 -24 46 -47.5 q21.5 -23.5 37.5 -45.5 q4 -4 5 -10 q1 -6 0 -12 q-1 -6 -4.5 -11.5 q-3.5 -5.5 -8.5 -8.5 l-2 -2 q-11 -7 -23.5 -5.5 q-12.5 1.5 -19.5 10.5 q-15 20 -34 42.5 q-19 22.5 -41.5 45 q-22.5 22.5 -46.5 45 q-24 22.5 -49 41.5 q-5 5 -8 11.5 ZM503 792 q-3 7 -2 14 q1 7 4 13 q3 6 8.5 11.5 q5.5 5.5 11.5 7.5 l2 0 q7 3 17.5 -1 q10.5 -4 13.5 -12 q10 -19 19 -41 q9 -22 15 -39 q2 -6 1 -11.5 q-1 -5.5 -4 -11 q-3 -5.5 -7 -9.5 q-4 -4 -10 -6 l-2 -1 q-6 -2 -12 -1.5 q-6 0.5 -11.5 3 q-5.5 2.5 -9.5 7 q-4 4.5 -6 10.5 q-5 15 -11.5 33 q-6.5 18 -16.5 34 ZM107 665 q1 6 4.5 11 q3.5 5 9 9 q5.5 4 11.5 6.5 q6 2.5 12 2.5 l795 0 q6 0 11.5 -2.5 q5.5 -2.5 9 -6.5 q3.5 -4 5.5 -9 q2 -5 0 -11 q0 -5 -4 -10 q-4 -5 -9 -9.5 q-5 -4.5 -11 -7 q-6 -2.5 -12 -2.5 l-795 0 q-6 0 -11.5 2.5 q-5.5 2.5 -9.5 7 q-4 4.5 -5.5 9.5 q-1.5 5 -0.5 10 ZM90 359 q-9 11 -3.5 26.5 q5.5 15.5 21.5 24.5 q59 35 118.5 79.5 q59.5 44.5 107.5 91.5 q6 5 17 8.5 q11 3.5 18 -0.5 l3 0 q5 -3 8 -8 q3 -5 3.5 -11.5 q0.5 -6.5 -2.5 -13.5 q-3 -7 -10 -12 q-54 -52 -119 -100.5 q-65 -48.5 -124 -86.5 q-10 -5 -21.5 -4.5 q-11.5 0.5 -16.5 6.5 ZM-18 -59 q-3 6 -2 13.5 q1 7.5 5 13.5 q4 6 11 10.5 q7 4.5 14 6.5 q107 25 199 61 q92 36 170 87 q15 9 28 18 q-25 31 -46 65 q-44 71 -69 158 q-1 6 -0.5 13 q0.5 7 3.5 12.5 q3 5.5 8 9.5 q5 4 11 6 q5 1 10 0.5 q5 -0.5 9.5 -3.5 q4.5 -3 8 -7 q3.5 -4 5.5 -9 q32 -120 110 -207 q35 28 66 61 q65 67 114 152 q7 10 20 16 q13 6 21 3 l2 0 q6 -2 10 -6.5 q4 -4.5 5 -10 q1 -5.5 0.5 -12.5 q-0.5 -7 -5.5 -13 q-56 -93 -127 -165 q-33 -33 -69 -63 l16 -14 q121 -101 316 -143 q18 -4 22 -17 q4 -13 -7 -28 q-6 -8 -17 -12.5 q-11 -4.5 -20 -2.5 q-103 22 -187 61 q-84 39 -148 94 q-13 12 -25 23 l-36 -24 q-85 -55 -182.5 -94 q-97.5 -39 -208.5 -67 q-10 -3 -20.5 1.5 q-10.5 4.5 -14.5 12.5 Z" /><glyph glyph-name="uni4EA6" unicode="&#x4ea6;" d="M746 433 q-2 7 -2 13.5 q0 6.5 3 12.5 q3 6 7.5 11 q4.5 5 10.5 7 q5 2 9.5 1.5 q4.5 -0.5 9.5 -2.5 q5 -2 8 -5 q3 -3 5 -7 q15 -34 29 -70.5 q14 -36.5 25 -73 q11 -36.5 20 -71.5 q9 -35 13 -64 q2 -9 -4.5 -20 q-6.5 -11 -16.5 -14 l-1 -1 q-6 -3 -12.5 -2.5 q-6.5 0.5 -11.5 4 q-5 3.5 -9 9 q-4 5.5 -5 11.5 q-5 28 -12.5 60.5 q-7.5 32.5 -18 66 q-10.5 33.5 -22 68.5 q-11.5 35 -25.5 66 ZM504 789 q-3 7 -2.5 13.5 q0.5 6.5 4 13 q3.5 6.5 8.5 11.5 q5 5 11 7 l2 1 q9 3 19 -1 q10 -4 12 -13 q13 -24 25.5 -51.5 q12.5 -27.5 19.5 -50.5 q2 -5 1 -11.5 q-1 -6.5 -4 -12.5 q-3 -6 -7.5 -10.5 q-4.5 -4.5 -10.5 -6.5 l-2 0 q-5 -2 -11.5 -1.5 q-6.5 0.5 -12 3 q-5.5 2.5 -9.5 7 q-4 4.5 -4 10.5 q-7 20 -17 45 q-10 25 -22 47 ZM60 -62 q-8 9 -3.5 23.5 q4.5 14.5 17.5 24.5 q82 57 134.5 118 q52.5 61 85 124 q32.5 63 49 126.5 q16.5 63.5 26.5 122.5 l21 117 q0 3 1 6 l-270 0 q-7 0 -12.5 2 q-5.5 2 -9 6.5 q-3.5 4.5 -5.5 10 q-2 5.5 0 10.5 q0 6 4 11 q4 5 9 9 q5 4 11.5 6.5 q6.5 2.5 12.5 2.5 l811 0 q6 0 11.5 -2.5 q5.5 -2.5 9.5 -6.5 q4 -4 5.5 -9 q1.5 -5 1.5 -11 q-2 -5 -5.5 -10.5 q-3.5 -5.5 -9 -10 q-5.5 -4.5 -11.5 -6.5 q-6 -2 -12 -2 l-239 0 q1 -5 1 -10 l-104 -584 q-5 -32 -17 -47.5 q-12 -15.5 -35 -23.5 q-22 -7 -57.5 -8.5 q-35.5 -1.5 -90.5 -2.5 q-10 0 -17.5 7 q-7.5 7 -9.5 14 q-2 15 8.5 26.5 q10.5 11.5 27.5 11.5 q1 0 3 0 l102 0 q13 1 18.5 5.5 q5.5 4.5 7.5 17.5 l103 584 q1 5 4 10 l-188 0 l0 -7 l-21 -116 q-11 -63 -29.5 -133 q-18.5 -70 -55 -140 q-36.5 -70 -94 -138 q-57.5 -68 -147.5 -129 q-5 -4 -11.5 -6 q-6.5 -2 -12 -1.5 q-5.5 0.5 -10.5 2.5 q-5 2 -8 6 ZM40 189 q-2 6 -2 12.5 q0 6.5 2.5 13.5 q2.5 7 8.5 13 q41 47 78.5 106.5 q37.5 59.5 68.5 122.5 q2 6 6.5 10.5 q4.5 4.5 10.5 8 q6 3.5 11.5 5 q5.5 1.5 10.5 -0.5 l1 0 q6 -1 9.5 -5 q3.5 -4 5.5 -9 q2 -5 2 -11 q0 -6 -3 -13 q-34 -71 -76 -136.5 q-42 -65.5 -85 -115.5 q-5 -5 -10.5 -8 q-5.5 -3 -11 -4.5 q-5.5 -1.5 -11.5 -1 q-6 0.5 -9 3.5 q-5 3 -7 9 Z" /><glyph glyph-name="uni4EA7" unicode="&#x4ea7;" d="M314 586 q-3 6 -2.5 13 q0.5 7 3 13.5 q2.5 6.5 7 11.5 q4.5 5 10.5 7 q8 3 17.5 -0.5 q9.5 -3.5 13.5 -10.5 q13 -23 25 -49.5 q12 -26.5 20 -48.5 q2 -5 1 -11 q-1 -6 -3 -11 q-2 -5 -6.5 -10 q-4.5 -5 -9.5 -7 q-6 -2 -12 -2 q-6 0 -11 2.5 q-5 2.5 -9.5 7 q-4.5 4.5 -6.5 9.5 q-5 19 -15.5 42 q-10.5 23 -21.5 44 ZM153 682 q1 6 4.5 11 q3.5 5 9 9 q5.5 4 11.5 6 q6 2 12 2 l361 0 q-5 5 -7 11 q-6 16 -14 34 q-8 18 -18 34 q-2 6 -1.5 12.5 q0.5 6.5 3.5 12.5 q3 6 8.5 10 q5.5 4 12.5 6 l4 1 q8 2 16.5 -1 q8.5 -3 12.5 -9 q11 -18 21 -38.5 q10 -20.5 17 -38.5 q2 -5 0.5 -11 q-1.5 -6 -4 -11.5 q-2.5 -5.5 -7.5 -9.5 l-2 -2 l318 0 q6 0 11.5 -2 q5.5 -2 9.5 -6 q4 -4 5.5 -9 q1.5 -5 1.5 -11 q-2 -5 -5.5 -10 q-3.5 -5 -8.5 -9.5 q-5 -4.5 -11.5 -6.5 q-6.5 -2 -11.5 -2 l-722 0 q-6 0 -11.5 2 q-5.5 2 -9.5 6.5 q-4 4.5 -5.5 9.5 q-1.5 5 -0.5 10 ZM-32 -50.5 q-1 5.5 -0.5 12.5 q0.5 7 3 14 q2.5 7 5.5 13 q31 40 52 82.5 q21 42.5 36.5 85.5 q15.5 43 25 85.5 q9.5 42.5 17.5 82.5 l18 103 q1 7 4.5 12.5 q3.5 5.5 8.5 10 q5 4.5 10.5 7.5 q5.5 3 11.5 3 l2 0 q6 0 10 -3 q3 -1 5 -3 q4 2 8 3 q6 3 12 3 l426 0 l0 1 q0 6 1.5 13 q1.5 7 5.5 13 q19 25 41 57 q22 32 39 61 q4 5 9 9.5 q5 4.5 11 7 q6 2.5 12 3 q6 0.5 11 -1.5 l1 0 q6 -2 9 -6.5 q3 -4.5 4 -11 q1 -6.5 -0.5 -13.5 q-1.5 -7 -7.5 -13 q-22 -31 -46 -65 q-22 -30 -41 -54 l223 0 q5 0 10.5 -2.5 q5.5 -2.5 9.5 -7 q4 -4.5 5.5 -9.5 q1.5 -5 1.5 -11 q-2 -5 -5.5 -10 q-3.5 -5 -9 -9.5 q-5.5 -4.5 -11.5 -7 q-6 -2.5 -11 -2.5 l-699 0 q-2 0 -5 1 l-14 -79 q-7 -40 -18.5 -87 q-11.5 -47 -28.5 -96 q-17 -49 -42 -97.5 q-25 -48.5 -57 -92.5 q-5 -6 -11.5 -10 q-6.5 -4 -13 -5.5 q-6.5 -1.5 -12.5 0 q-6 1.5 -11 5.5 q-4 3 -5 8.5 Z" /><glyph glyph-name="uni4EAB" unicode="&#x4eab;" d="M257 479 q0 -2 1.5 -4 q1.5 -2 3.5 -2 l485 0 q2 0 4.5 2 q2.5 2 2.5 4 l16 89 q0 3 -1.5 5 q-1.5 2 -3.5 2 l-485 0 q-2 0 -4 -2 q-2 -2 -3 -5 l-16 -89 ZM195 457 l24 134 q1 5 4.5 10.5 q3.5 5.5 8.5 10 q5 4.5 11.5 7.5 q6.5 3 13.5 3 l551 0 q7 0 12 -3 q5 -3 9.5 -7.5 q4.5 -4.5 6 -10 q1.5 -5.5 0.5 -10.5 l-24 -134 q-1 -6 -4.5 -11.5 q-3.5 -5.5 -9 -10 q-5.5 -4.5 -11.5 -7 q-6 -2.5 -13 -2.5 l-551 0 q-7 0 -12.5 2.5 q-5.5 2.5 -9.5 7 q-4 4.5 -5.5 10 q-1.5 5.5 -0.5 11.5 ZM111 719 q1 5 4.5 9.5 q3.5 4.5 8.5 8.5 q5 4 11.5 6 q6.5 2 12.5 2 l385 0 q-3 10 -7 22 l-12 32 q-3 13 5 25 q8 12 22 15 l4 0 q7 3 16.5 -2.5 q9.5 -5.5 10.5 -13.5 q8 -17 15 -35.5 q7 -18.5 11 -33.5 q2 -5 1 -9 l355 0 q6 0 11 -2 q5 -2 9.5 -6 q4.5 -4 6 -8.5 q1.5 -4.5 0.5 -9.5 q-2 -10 -13 -18.5 q-11 -8.5 -23 -8.5 l-806 0 q-13 0 -21.5 8.5 q-8.5 8.5 -6.5 18.5 ZM3 137.5 q-2 4.5 -1 9.5 q1 5 4.5 10 q3.5 5 9 9 q5.5 4 11 6 q5.5 2 11.5 2 l380 0 l6 33 q2 6 5.5 12 q3.5 6 8.5 10.5 q5 4.5 10 6.5 q4 2 8 3 q9 8 25 13 q37 8 74.5 18.5 q37.5 10.5 72.5 22.5 q23 7 45 15 l-518 0 q-12 0 -20.5 8 q-8.5 8 -6.5 17 q1 9 12 17 q11 8 24 8 l578 0 q11 0 19 -6 q1 2 3 3 q4 3 9 3 l5 0 q2 0 3 1 q4 1 9.5 -0.5 q5.5 -1.5 8.5 -4.5 q5 -6 6 -12.5 q1 -6.5 -0.5 -13 q-1.5 -6.5 -7 -12.5 q-5.5 -6 -13.5 -9 q-33 -16 -71 -30.5 q-38 -14.5 -78 -27 q-40 -12.5 -80 -23.5 q-35 -9 -69 -16 l0 -4 l-6 -32 l386 0 q6 0 11 -2 q5 -2 9 -6 q4 -4 5.5 -9 q1.5 -5 0.5 -10 q-1 -5 -4.5 -9.5 q-3.5 -4.5 -8.5 -8.5 q-5 -4 -11 -6.5 q-6 -2.5 -11 -2.5 l-386 0 l-24 -132 q-4 -27 -15.5 -40 q-11.5 -13 -35.5 -19 q-23 -6 -59.5 -6.5 q-36.5 -0.5 -94.5 -1.5 q-9 0 -16.5 5.5 q-7.5 5.5 -9.5 11.5 q-3 13 7.5 22 q10.5 9 26.5 9 q2 0 4 0 l67 0 q26 0 39 1 q14 1 19 4.5 q5 3.5 7 14.5 l23 131 l-381 0 q-5 0 -10.5 2.5 q-5.5 2.5 -9 6.5 q-3.5 4 -5.5 8.5 Z" /><glyph glyph-name="uni4EAC" unicode="&#x4eac;" d="M662 146 q-3 6 -4 12.5 q-1 6.5 0.5 13 q1.5 6.5 5 12 q3.5 5.5 10.5 8.5 q9 4 19.5 2.5 q10.5 -1.5 15.5 -8.5 q18 -21 35.5 -43.5 q17.5 -22.5 34 -45 q16.5 -22.5 31 -44 q14.5 -21.5 25.5 -39.5 q3 -5 3.5 -10.5 q0.5 -5.5 -1 -11.5 q-1.5 -6 -5 -11.5 q-3.5 -5.5 -9.5 -8.5 l-1 0 q-6 -4 -12 -5 q-6 -1 -12.5 0.5 q-6.5 1.5 -11.5 5 q-5 3.5 -8 9.5 q-10 17 -23.5 37.5 q-13.5 20.5 -28.5 42.5 q-15 22 -31 43.5 q-16 21.5 -33 40.5 ZM230 332 q0 -3 1.5 -5 q1.5 -2 3.5 -2 l492 0 q2 0 4 2 q2 2 3 5 l29 166 q1 3 -1 5 q-2 2 -4 2 l-492 0 q-2 0 -4 -2 q-2 -2 -3 -5 l-29 -166 ZM166 303 l40 224 q1 5 4.5 11 q3.5 6 9 10 q5.5 4 12 7 q6.5 3 12.5 3 l559 0 q6 0 11.5 -3 q5.5 -3 9.5 -7 q4 -4 5.5 -10 q1.5 -6 0.5 -11 l-40 -224 q0 -6 -4 -11.5 q-4 -5.5 -9 -10 q-5 -4.5 -11.5 -7 q-6.5 -2.5 -13.5 -2.5 l-252 0 q1 -5 0 -10 l-47 -265 q-5 -29 -16 -43.5 q-11 -14.5 -36 -21.5 q-21 -7 -51.5 -8 q-30.5 -1 -60.5 -1 q-20 0 -44 0 q-9 0 -17 6 q-8 6 -9 12 q-3 15 8.5 26 q11.5 11 28.5 10 l69 0 q26 0 40 1 q15 1 20 5 q5 4 7 15 l46 264 q1 5 4 10 l-248 0 q-7 0 -12 2.5 q-5 2.5 -9 7 q-4 4.5 -5.5 10 q-1.5 5.5 -1.5 11.5 ZM108 669 q-2 5 -1 11 q1 6 4.5 11 q3.5 5 8.5 9 q5 4 11.5 6 q6.5 2 12.5 2 l389 0 q-6 19 -15 41 q-9 23 -21 45 q-2 5 -1 12 q1 7 3.5 13 q2.5 6 8 10.5 q5.5 4.5 11.5 6.5 l3 1 q9 3 18 -1.5 q9 -4.5 13 -12.5 q12 -22 23 -47.5 q11 -25.5 18 -46.5 q2 -6 1 -12 q-1 -4 -3 -9 l357 0 q6 0 11 -2 q5 -2 8.5 -6 q3.5 -4 6 -9 q2.5 -5 0.5 -11 q0 -6 -4 -11 q-4 -5 -9 -9.5 q-5 -4.5 -11.5 -6.5 q-6.5 -2 -12.5 -2 l-805 0 q-5 0 -10.5 2 q-5.5 2 -9 6.5 q-3.5 4.5 -5.5 9.5 ZM-2 -26 q-4 4 -4.5 10 q-0.5 6 1 12.5 q1.5 6.5 6 13.5 q4.5 7 11.5 12 q46 35 91.5 77 q45.5 42 78.5 83 q8 8 19 12.5 q11 4.5 20 0.5 q6 -2 9.5 -7 q3.5 -5 4.5 -11 q1 -6 -2 -13 q-3 -7 -8 -13 q-39 -45 -87.5 -90.5 q-48.5 -45.5 -98.5 -81.5 q-6 -4 -11.5 -6 q-5.5 -2 -11 -3 q-5.5 -1 -10 0 q-4.5 1 -8.5 4 Z" /><glyph glyph-name="uni4EAE" unicode="&#x4eae;" d="M269 486 q0 -2 1.5 -3.5 q1.5 -1.5 3.5 -1.5 l466 0 q2 0 4.5 1.5 q2.5 1.5 2.5 3.5 l15 86 q0 2 -1.5 3.5 q-1.5 1.5 -3.5 1.5 l-465 0 q-2 0 -4.5 -1.5 q-2.5 -1.5 -2.5 -3.5 l-16 -86 ZM207 467 l23 124 q0 6 4 11.5 q4 5.5 9 10.5 q5 5 11.5 7.5 q6.5 2.5 12.5 2.5 l533 0 q6 0 11 -2.5 q5 -2.5 9.5 -7.5 q4.5 -5 5.5 -10.5 q1 -5.5 1 -11.5 l-23 -124 q0 -6 -4 -12 q-4 -6 -9 -10.5 q-5 -4.5 -11.5 -7 q-6.5 -2.5 -12.5 -2.5 l-533 0 q-6 0 -11 2.5 q-5 2.5 -9 7 q-4 4.5 -5.5 10.5 q-1.5 6 -1.5 12 ZM110 710 q2 11 13 18.5 q11 7.5 23 7.5 l399 0 q-1 3 -2 5 q-5 13 -11 28.5 q-6 15.5 -13 30.5 q-4 11 4.5 22 q8.5 11 21.5 14 l4 1 q8 3 16.5 -1 q8.5 -4 10.5 -11 q9 -15 16 -31.5 q7 -16.5 11 -30.5 q3 -5 1 -10.5 q-2 -5.5 -5 -10.5 q-1 -3 -4 -6 l356 0 q12 0 20.5 -7.5 q8.5 -7.5 6.5 -18.5 q0 -5 -3.5 -9.5 q-3.5 -4.5 -9 -8 q-5.5 -3.5 -12 -6 q-6.5 -2.5 -12.5 -2.5 l-804 0 q-6 0 -11.5 2.5 q-5.5 2.5 -9 6 q-3.5 3.5 -5.5 8 q-2 4.5 -1 9.5 ZM47 239 l16 95 q2 6 5.5 11.5 q3.5 5.5 8.5 10 q5 4.5 11.5 7 q6.5 2.5 12.5 2.5 l765 0 q6 0 11.5 -2.5 q5.5 -2.5 9 -7 q3.5 -4.5 5.5 -10 q2 -5.5 0 -11.5 l-16 -94 q-1 -6 -4.5 -11.5 q-3.5 -5.5 -8.5 -10 q-5 -4.5 -10.5 -7 q-5.5 -2.5 -11.5 -2.5 q-5 0 -10 2.5 q-5 2.5 -8.5 7 q-3.5 4.5 -5 10 q-1.5 5.5 -0.5 11.5 l12 69 q1 2 -1 4 q-2 2 -4 2 l-701 0 q-2 0 -4.5 -2 q-2.5 -2 -2.5 -4 l-12 -70 q-1 -6 -4.5 -11.5 q-3.5 -5.5 -8.5 -10 q-5 -4.5 -10 -7 q-5 -2.5 -10.5 -2.5 q-5.5 0 -10.5 2.5 q-5 2.5 -8 7 q-3 4.5 -4.5 10 q-1.5 5.5 -0.5 11.5 ZM-3 -59 q-6 13 4 25 q10 12 30 17 q57 12 96 30 q39 18 66 44 q27 26 44 63.5 q17 37.5 30 88.5 q4 11 14.5 20.5 q10.5 9.5 21.5 9.5 l2 0 q5 0 10 -2 q6 2 12 2 l267 0 q6 0 11 -2 q5 2 10 2 l3 0 q6 0 10.5 -2.5 q4.5 -2.5 8.5 -7 q4 -4.5 5 -10.5 q1 -6 0 -12 l-33 -188 q-3 -17 3 -22.5 q6 -5.5 32 -5.5 l113 0 q9 0 14.5 2.5 q5.5 2.5 10 9.5 q4.5 7 9 20 q4.5 13 8.5 35 q6 4 11.5 10 q5.5 6 11.5 11 q6 5 12 8 q6 3 12 0 q7 -3 10.5 -12.5 q3.5 -9.5 0.5 -20.5 q-8 -34 -17 -56 q-9 -22 -20 -35.5 q-11 -13.5 -26.5 -18.5 q-15.5 -5 -38.5 -5 l-128 0 q-28 0 -45.5 3.5 q-17.5 3.5 -26.5 13 q-9 9.5 -10 19.5 q-1 10 -1 15 q0 13 3 30 l30 168 l-255 0 q-14 -51 -33 -89 q-21 -46 -55 -78.5 q-34 -32.5 -84 -54.5 q-50 -22 -121 -37 q-10 -3 -20 1.5 q-10 4.5 -12 10.5 Z" /><glyph glyph-name="uni4EB2" unicode="&#x4eb2;" d="M620 150 q-4 6 -5 12 q-1 6 0 13 q1 7 5 12.5 q4 5.5 10 8.5 q8 5 18.5 3.5 q10.5 -1.5 16.5 -7.5 q19 -19 38 -41 q19 -22 36 -43.5 q17 -21.5 31.5 -43 q14.5 -21.5 25.5 -39.5 q3 -4 3 -10 q0 -6 -1.5 -11.5 q-1.5 -5.5 -5.5 -11 q-4 -5.5 -9 -8.5 l-1 -1 q-6 -3 -12 -4 q-6 -1 -12.5 0.5 q-6.5 1.5 -11.5 5 q-5 3.5 -8 8.5 q-9 17 -22.5 37 q-13.5 20 -29.5 40.5 q-16 20.5 -32.5 41 q-16.5 20.5 -33.5 38.5 ZM299 595 q-2 7 -1.5 14 q0.5 7 4 13 q3.5 6 8.5 10 q5 4 11 6 q9 3 18 -1.5 q9 -4.5 12 -12.5 q13 -26 22.5 -55 q9.5 -29 14.5 -52 q1 -5 -0.5 -11 q-1.5 -6 -4.5 -11 q-3 -5 -8 -9 q-5 -4 -10 -6 q-6 -1 -12.5 -0.5 q-6.5 0.5 -11.5 3.5 q-5 3 -8.5 8 q-3.5 5 -4.5 11 q-4 21 -11.5 46 q-7.5 25 -17.5 47 ZM183.5 666 q-3.5 4 -5.5 8.5 q-2 4.5 0 10.5 q0 5 3.5 9.5 q3.5 4.5 8.5 8 q5 3.5 11.5 5.5 q6.5 2 11.5 2 l317 0 q-1 1 -1 2 q-5 17 -13 37 q-8 20 -17 40 q-1 6 0 12.5 q1 6.5 4.5 12.5 q3.5 6 9 10.5 q5.5 4.5 11.5 5.5 l3 1 q9 2 18.5 -2.5 q9.5 -4.5 11.5 -12.5 q10 -21 19.5 -45 q9.5 -24 14.5 -44 q1 -5 0 -11 l-2 -6 l303 0 q5 0 11 -2 q6 -2 9.5 -5.5 q3.5 -3.5 5.5 -8 q2 -4.5 1 -9.5 q-1 -6 -4.5 -10.5 q-3.5 -4.5 -8.5 -8.5 q-5 -4 -11.5 -6 q-6.5 -2 -11.5 -2 l-679 0 q-6 0 -11.5 2 q-5.5 2 -9 6 ZM62 266.5 q-2 4.5 -1 9.5 q1 5 4.5 10 q3.5 5 8.5 8.5 q5 3.5 11.5 6 q6.5 2.5 11.5 2.5 l348 0 l17 97 q0 6 4 12 q3 3 5 6 l-372 0 q-6 0 -11 2.5 q-5 2.5 -9 6 q-4 3.5 -6 8.5 q-2 5 -1 10 q0 5 3.5 10 q3.5 5 9 9 q5.5 4 12 6 q6.5 2 12.5 2 l487 0 q2 7 6 14 q25 28 52 64 q27 36 47 66 q4 6 8.5 10.5 q4.5 4.5 10 7.5 q5.5 3 11 4 q5.5 1 10.5 0 q6 -2 10 -6 q4 -4 5.5 -10 q1.5 -6 0 -13.5 q-1.5 -7.5 -5.5 -13.5 q-25 -35 -53 -72 q-21 -27 -40 -51 l242 0 q6 0 11 -2 q5 -2 9 -6 q4 -4 5.5 -9 q1.5 -5 1.5 -10 q-1 -5 -4.5 -10 q-3.5 -5 -8.5 -8.5 q-5 -3.5 -11.5 -6 q-6.5 -2.5 -12.5 -2.5 l-370 0 l2 -6 q1 -6 1 -12 l-18 -97 l350 0 q6 0 11 -2.5 q5 -2.5 9.5 -6 q4.5 -3.5 6 -8.5 q1.5 -5 0.5 -10 q-1 -5 -4.5 -9.5 q-3.5 -4.5 -8.5 -9 q-5 -4.5 -11 -6.5 q-6 -2 -12 -2 l-350 0 l-44 -250 q-6 -28 -16 -42 q-10 -14 -32 -22 q-17 -5 -47.5 -6.5 q-30.5 -1.5 -76.5 -2.5 q-10 0 -17.5 6 q-7.5 6 -9.5 13 q-2 14 9.5 25 q11.5 11 27.5 10 l49 0 q18 0 31 1 q11 0 15 3.5 q4 3.5 6 14.5 l44 250 l-347 0 q-5 0 -11 2 q-6 2 -9.5 6.5 q-3.5 4.5 -5.5 9 ZM42 -23 q-9 10 -5.5 24.5 q3.5 14.5 18.5 26.5 q45 31 87 71.5 q42 40.5 76 84.5 q6 8 18 12.5 q12 4.5 20 2.5 q6 -2 9.5 -6.5 q3.5 -4.5 4.5 -11 q1 -6.5 -0.5 -13 q-1.5 -6.5 -7.5 -12.5 q-38 -50 -85.5 -95.5 q-47.5 -45.5 -95.5 -79.5 q-9 -7 -20.5 -8 q-11.5 -1 -18.5 4 Z" /><glyph glyph-name="uni4EBA" unicode="&#x4eba;" d="M-11 -53 q-8 11 -3 25.5 q5 14.5 22 24.5 q98 51 172.5 119 q74.5 68 130.5 143.5 q56 75.5 94 154.5 q38 79 63 151 q25 72 39.5 134 q14.5 62 22.5 102 q2 6 5 12 q3 6 8 10 q5 4 10.5 7 q5.5 3 11.5 3 l6 0 q6 0 11 -3 q5 -3 8 -8 q3 -5 4.5 -11 q1.5 -6 0.5 -12 q-9 -45 -26 -112 q0 -1 -1 -3 q1 -3 0 -7 q0 -28 -0.5 -54.5 q-0.5 -26.5 -0.5 -30.5 q0 -47 7 -106 q7 -59 23 -127 q16 -68 46.5 -134 q30.5 -66 78 -124 q47.5 -58 118.5 -99 q13 -9 14.5 -23.5 q1.5 -14.5 -10.5 -25.5 q-4 -4 -9 -7 q-5 -3 -11 -4 q-6 -1 -12 -1 q-6 0 -11 4 q-75 43 -126.5 104.5 q-51.5 61.5 -84 131.5 q-32.5 70 -49 143 q-16.5 73 -22.5 139 q-3 27 -5 51 q-24 -64 -58 -132 q-42 -84 -102.5 -164 q-60.5 -80 -139.5 -151.5 q-79 -71.5 -185 -124.5 q-5 -3 -10.5 -4 q-5.5 -1 -11.5 0 q-6 1 -10 3 q-4 2 -8 6 Z" /><glyph glyph-name="uni4EBF" unicode="&#x4ebf;" d="M305 59 q0 10 2 20 q3 15 9.5 33.5 q6.5 18.5 26.5 47.5 q20 29 57.5 72 q37.5 43 101 109 q63.5 66 158.5 158 q75 74 177 170 l-376 0 q-6 0 -11.5 2.5 q-5.5 2.5 -9 6.5 q-3.5 4 -6 9 q-2.5 5 -0.5 10 q1 6 4.5 11 q3.5 5 8.5 9 q5 4 11.5 6.5 q6.5 2.5 13.5 2.5 l403 0 q6 0 12 -3 q2 -1 5 -3 q2 2 5 3 q5 3 7 3 l4 0 q2 0 4 1 l3 0 q3 1 7 0.5 q4 -0.5 6 -2.5 l4 -2 l12 -7 l10 -11 l-5 -4 l-4 -4 q-133 -124 -227 -214.5 q-94 -90.5 -157.5 -155 q-63.5 -64.5 -101 -106 q-37.5 -41.5 -57.5 -68 q-20 -26.5 -26.5 -42 q-6.5 -15.5 -8.5 -26.5 q-1 -5 -1 -9 q0 -22 22.5 -33 q22.5 -11 64.5 -11 l278 -1 q18 0 31 6.5 q13 6.5 23.5 24 q10.5 17.5 20 49 q9.5 31.5 21.5 80.5 q5 18 17 27 q12 9 25 5 q8 -2 12 -12 q4 -10 1 -21 q-16 -68 -31 -110.5 q-15 -42.5 -33 -66 q-18 -23.5 -41.5 -31.5 q-23.5 -8 -57.5 -8 l-271 0 q-41 0 -70 7 q-29 7 -46 21 q-17 14 -22 29.5 q-5 15.5 -5 27.5 ZM43 407 q-4 8 -0.5 21 q3.5 13 12.5 21 q80 70 154.5 163 q74.5 93 133.5 195 q3 5 8 9 q5 4 10.5 7 q5.5 3 11.5 4 q6 1 10 -1 q6 -1 9.5 -5.5 q3.5 -4.5 4.5 -10 q1 -5.5 0.5 -12 q-0.5 -6.5 -3.5 -12.5 q-53 -88 -114 -170 l-117 -658 q0 -6 -3.5 -12 q-3.5 -6 -8 -10.5 q-4.5 -4.5 -10.5 -7 q-6 -2.5 -11.5 -2.5 q-5.5 0 -10 2.5 q-4.5 2.5 -8 7 q-3.5 4.5 -5 10.5 q-1.5 6 0.5 13 l99 565 q-57 -66 -116 -121 q-6 -6 -13 -9 q-7 -3 -13.5 -2.5 q-6.5 0.5 -11.5 4 q-5 3.5 -8 9.5 l0 1 l-1 1 Z" /><glyph glyph-name="uni4EC0" unicode="&#x4ec0;" d="M325 457 q2 6 5.5 11 q3.5 5 8.5 9.5 q5 4.5 11 6.5 q6 2 12 2 l257 0 l55 311 q1 6 4.5 11.5 q3.5 5.5 8.5 10 q5 4.5 10.5 7 q5.5 2.5 10.5 2.5 l3 0 q5 0 10 -2.5 q5 -2.5 8.5 -7 q3.5 -4.5 5 -10 q1.5 -5.5 -0.5 -11.5 l-54 -311 l248 0 q6 0 11 -2 q5 -2 8.5 -6.5 q3.5 -4.5 5.5 -9.5 q2 -5 0 -11 q0 -6 -3.5 -11 q-3.5 -5 -9 -9 q-5.5 -4 -11.5 -6.5 q-6 -2.5 -11 -2.5 l-248 0 l-83 -473 q-2 -6 -5 -11.5 q-3 -5.5 -8.5 -10 q-5.5 -4.5 -11 -7 q-5.5 -2.5 -10.5 -2.5 l-3 0 q-5 0 -10 2.5 q-5 2.5 -8 7 q-3 4.5 -5 10 q-2 5.5 0 11.5 l83 473 l-258 0 q-5 0 -10.5 2.5 q-5.5 2.5 -9 6.5 q-3.5 4 -5 9 q-1.5 5 -1.5 11 ZM45 398 q-4 9 0 21.5 q4 12.5 12 20.5 q81 71 158.5 166 q77.5 95 138.5 199 q3 6 7.5 10 q4.5 4 10.5 6.5 q6 2.5 11.5 4 q5.5 1.5 10.5 -0.5 q6 -2 9 -6 q3 -4 4.5 -9.5 q1.5 -5.5 1 -12.5 q-0.5 -7 -5.5 -12 q-56 -95 -121 -181 l-115 -646 q0 -7 -4 -12.5 q-4 -5.5 -8 -10 q-4 -4.5 -10 -7.5 q-6 -3 -12 -3 q-5 0 -9.5 3 q-4.5 3 -8.5 7.5 q-4 4.5 -5 10 q-1 5.5 0 11.5 l98 557 q-56 -65 -115 -119 q-7 -6 -13 -9 q-6 -3 -13 -2.5 q-7 0.5 -12.5 3.5 q-5.5 3 -8.5 9 l0 2 l-1 0 Z" /><glyph glyph-name="uni4EC5" unicode="&#x4ec5;" d="M488 669 q4 -4 7 -9 q3 -5 4 -11 q7 -115 29.5 -216 q22.5 -101 63.5 -185 l8 -16 l16 16 q83 90 153 204 q60 99 107 217 l-388 0 ZM229 -56 q-6 12 2.5 26 q8.5 14 24.5 20 q94 40 186 104 q58 41 113 93 l-10 20 q-44 89 -68.5 197.5 q-24.5 108.5 -32.5 233.5 q0 6 2 11.5 q2 5.5 5 10.5 q3 5 7 9 l-29 0 q-5 0 -10.5 2.5 q-5.5 2.5 -9.5 6.5 q-4 4 -5.5 9 q-1.5 5 -0.5 10 q1 5 4.5 10 q3.5 5 8.5 9.5 q5 4.5 11.5 6.5 q6.5 2 11.5 2 l446 0 q6 0 11 -2 q2 2 5 2 q1 0 2.5 0.5 q1.5 0.5 3.5 1.5 l2 0 q3 1 5.5 0.5 q2.5 -0.5 5.5 -1.5 l7 -2 q9 -4 14 -14.5 q5 -10.5 1 -19.5 q-56 -151 -131 -272 q-75 -121 -162 -214 q-10 -11 -20 -21 q29 -45 65 -84 q61 -65 146 -105 q15 -9 17 -23 q2 -14 -9 -27 q-3 -3 -7.5 -5 q-4.5 -2 -10 -3.5 q-5.5 -1.5 -10.5 -1 q-5 0.5 -9 2.5 q-91 44 -157 112 q-39 41 -71 90 q-57 -53 -118 -95 q-97 -66 -198 -109 q-12 -4 -23 -1 q-11 3 -15 10 ZM35 392 q-5 9 -0.5 22 q4.5 13 14.5 21 q83 71 162.5 167 q79.5 96 143.5 201 q6 10 19 16 q13 6 22 3 l2 0 q5 -2 8.5 -6 q3.5 -4 5 -10 q1.5 -6 0 -12.5 q-1.5 -6.5 -4.5 -12.5 q-61 -99 -132 -189 l-112 -634 q-1 -6 -4.5 -12 q-3.5 -6 -8 -10.5 q-4.5 -4.5 -10 -7 q-5.5 -2.5 -11.5 -2.5 q-6 0 -10.5 2.5 q-4.5 2.5 -8.5 7 q-4 4.5 -5 10.5 q-1 6 0 12 l96 546 q-58 -65 -118 -118 q-7 -6 -13.5 -8.5 q-6.5 -2.5 -13 -2 q-6.5 0.5 -11.5 4 q-5 3.5 -8 9.5 q-1 1 -1 1.5 q0 0.5 -1 1.5 Z" /><glyph glyph-name="uni4ECA" unicode="&#x4eca;" d="M428 529 q-2 6 -1.5 12.5 q0.5 6.5 3.5 12.5 q3 6 9 10 q6 5 17 5 q11 0 18 -6 q34 -29 69 -62.5 q35 -33.5 59 -62.5 q4 -3 5 -9 q1 -6 0 -11.5 q-1 -5.5 -4 -11.5 q-3 -6 -7 -10 q-4 -3 -11 -5 q-7 -2 -13 -1.5 q-6 0.5 -11.5 2.5 q-5.5 2 -9.5 6 q-21 27 -52.5 59.5 q-31.5 32.5 -63.5 60.5 q-5 5 -7 11 ZM145 291.5 q-4 4.5 -6 9.5 q-2 5 0 11 l0 1 q1 6 4.5 11 q3.5 5 9 9 q5.5 4 11 6.5 q5.5 2.5 11.5 2.5 l564 0 q6 0 11.5 -2.5 q5.5 -2.5 8.5 -6.5 l1 1 q2 2 2 4 q0 2 2.5 3 q2.5 1 5.5 1 q2 0 4 0.5 q2 0.5 4 0.5 l1 0 q2 1 7 0.5 q5 -0.5 7 -1.5 l6 -3 q5 -3 7.5 -8.5 q2.5 -5.5 2.5 -12 q0 -6.5 -2.5 -13 q-2.5 -6.5 -7.5 -12.5 q-35 -36 -77.5 -80.5 q-42.5 -44.5 -88 -91 q-45.5 -46.5 -91.5 -93 q-46 -46.5 -89 -88.5 q-7 -8 -18.5 -10.5 q-11.5 -2.5 -19.5 1.5 l-4 2 q-5 3 -8.5 8.5 q-3.5 5.5 -3.5 12 q0 6.5 3 13.5 q3 7 10 13 q45 44 94 92.5 q49 48.5 95 95.5 q46 47 86 89 l25 25 l-547 0 q-6 0 -11 2.5 q-5 2.5 -9 7 ZM65 437 q-8 11 -2 26 q6 15 23 23 q65 30 129 67.5 q64 37.5 123.5 80.5 q59.5 43 113 90.5 q53.5 47.5 97.5 95.5 q4 4 9 7 q5 3 10.5 4.5 q5.5 1.5 11 2 q5.5 0.5 9.5 -1.5 l3 -2 q6 -2 8.5 -7.5 q2.5 -5.5 2.5 -12 q0 -6.5 -3 -12.5 q-2 -4 -4 -7 q2 -2 3 -4 q28 -42 65 -84 q37 -42 80.5 -80.5 q43.5 -38.5 90 -71.5 q46.5 -33 91.5 -58 q7 -4 11 -10 q4 -6 4.5 -13 q0.5 -7 -2.5 -14.5 q-3 -7.5 -9 -13.5 l-1 0 l0 -1 q-3 -4 -9 -6.5 q-6 -2.5 -11.5 -3.5 q-5.5 -1 -11.5 -0.5 q-6 0.5 -10 2.5 q-45 26 -92 62 q-47 36 -91 77.5 q-44 41.5 -84 86.5 q-37 43 -66 87 q-31 -32 -67 -63 q-57 -51 -120 -97 q-63 -46 -129.5 -85.5 q-66.5 -39.5 -133.5 -72.5 q-6 -2 -11.5 -2.5 q-5.5 -0.5 -11 0.5 q-5.5 1 -9.5 3.5 q-4 2.5 -7 6.5 l0 1 Z" /><glyph glyph-name="uni4ECB" unicode="&#x4ecb;" d="M571 -47 l82 464 q1 7 4.5 12.5 q3.5 5.5 8.5 10 q5 4.5 10.5 7 q5.5 2.5 11.5 2.5 l2 0 q6 0 11 -2.5 q5 -2.5 8.5 -7 q3.5 -4.5 5 -10 q1.5 -5.5 -0.5 -12.5 l-82 -464 q0 -6 -4 -12 q-4 -6 -9 -10.5 q-5 -4.5 -10.5 -7 q-5.5 -2.5 -11.5 -2.5 l-2 0 q-6 0 -11 2.5 q-5 2.5 -8 7 q-3 4.5 -4.5 10.5 q-1.5 6 -0.5 12 ZM54 429 q-6 13 2 27 q8 14 25 21 q65 25 130 61.5 q65 36.5 125 80 q60 43.5 114 93.5 q54 50 96 102 q4 5 10 8.5 q6 3.5 12 5 q6 1.5 12 1 q6 -0.5 10 -3.5 q4 -3 5.5 -8 q1.5 -5 1.5 -11 q0 -6 -2 -11.5 q-2 -5.5 -7 -10.5 l-1 -1 q8 -3 11 -9 q25 -44 61 -86.5 q36 -42.5 80 -80.5 q44 -38 94 -69.5 q50 -31.5 101 -51.5 q15 -7 17 -21 q2 -14 -10 -28 q0 -1 -1 -1 q-6 -7 -17 -10 q-11 -3 -20 0 q-53 22 -104.5 56 q-51.5 34 -97.5 75.5 q-46 41.5 -85 88.5 q-39 46 -65 95 q-31 -34 -66 -67 q-58 -54 -123 -102 q-65 -48 -133.5 -87.5 q-68.5 -39.5 -137.5 -66.5 q-5 -3 -11.5 -3 q-6.5 0 -11 2 q-4.5 2 -9 4.5 q-4.5 2.5 -5.5 7.5 ZM14 -60 q-9 10 -3.5 24.5 q5.5 14.5 21.5 25.5 q64 35 105 74 q41 39 66 80 q25 41 37.5 84 q12.5 43 20.5 87 l17 101 q1 6 5 12 q4 6 9 10.5 q5 4.5 10.5 7 q5.5 2.5 10.5 2.5 l3 0 q6 0 10.5 -2.5 q4.5 -2.5 8 -7 q3.5 -4.5 4.5 -10.5 q1 -6 1 -12 l-18 -102 q-9 -48 -24 -98 q-15 -50 -44.5 -98.5 q-29.5 -48.5 -77 -94.5 q-47.5 -46 -122.5 -86 q-5 -4 -11 -5 q-6 -1 -11.5 0 q-5.5 1 -10 2.5 q-4.5 1.5 -7.5 5.5 Z" /><glyph glyph-name="uni4ECD" unicode="&#x4ecd;" d="M179 -59 q-8 8 -5 22 q3 14 14 25 q71 64 120.5 150.5 q49.5 86.5 85 184 q35.5 97.5 59.5 197.5 q22 99 40 188 l-97 0 q-5 0 -10.5 2.5 q-5.5 2.5 -9 6.5 q-3.5 4 -5 9 q-1.5 5 -1.5 10 q1 5 4.5 10 q3.5 5 9 9 q5.5 4 11 6.5 q5.5 2.5 11.5 2.5 l377 0 q5 0 10 -3 q3 -1 5 -2 q8 5 15 5 q7 0 12 -3 q5 -3 8 -8.5 q3 -5.5 3 -12 q0 -6.5 -1 -13.5 q-13 -35 -27.5 -73.5 q-14.5 -38.5 -28.5 -76.5 q-14 -38 -27 -73 q-7 -16 -13 -32 l148 0 q6 0 11 -2 q5 -2 9 -6 q4 -4 5.5 -9 q1.5 -5 1.5 -10 q-1 -4 -3 -7 q-28 -119 -49 -203 q-21 -85 -38.5 -141 q-17.5 -56 -33 -87.5 q-15.5 -31.5 -31.5 -45.5 q-17 -17 -34 -23 q-17 -6 -42 -8 l-53 0 q-33 0 -71 3 q-10 -1 -18.5 6 q-8.5 7 -9.5 15 q-1 15 10 24.5 q11 9.5 26 9.5 q3 0 6 0 q16 -1 30 -1.5 q14 -0.5 26 -1 q12 -0.5 22 -0.5 l19 0 q15 0 25 2 q10 2 20 10 q14 11 27.5 40.5 q13.5 29.5 30.5 84 q17 54.5 38 137.5 q17 67 37 158 l-117 0 q-7 0 -12 3 q-4 2 -7 4 q-10 -7 -18 -7 q-7 0 -12 3.5 q-5 3.5 -7.5 8.5 q-2.5 5 -2.5 12.5 q0 7.5 3 14.5 q12 29 26 64.5 q14 35.5 28 72.5 q14 37 27 74 q7 21 14 41 l-217 0 q-19 -96 -45 -202 q-26 -106 -63.5 -207.5 q-37.5 -101.5 -91 -192.5 q-53.5 -91 -129.5 -158 q-5 -6 -11.5 -8.5 q-6.5 -2.5 -12.5 -4 q-6 -1.5 -11.5 0 q-5.5 1.5 -9.5 5.5 ZM34 412 q-4 7 -1 18.5 q3 11.5 11 19.5 q67 69 131 161 q64 92 113 191 q4 6 8.5 10 q4.5 4 10 7 q5.5 3 11.5 4.5 q6 1.5 10 -0.5 q5 -1 9 -5.5 q4 -4.5 5.5 -9.5 q1.5 -5 1 -11.5 q-0.5 -6.5 -3.5 -12.5 q-46 -88 -99 -169 l-117 -660 q-1 -6 -4.5 -11.5 q-3.5 -5.5 -8 -10.5 q-4.5 -5 -10 -7.5 q-5.5 -2.5 -11.5 -2.5 q-6 0 -10 2.5 q-4 2.5 -7.5 7.5 q-3.5 5 -5 10.5 q-1.5 5.5 0.5 12.5 l97 551 q-41 -53 -83 -99 q-7 -7 -13.5 -10.5 q-6.5 -3.5 -13.5 -3.5 q-7 0 -12 3.5 q-5 3.5 -8 10.5 l0 2 q0 1 -1 2 Z" /><glyph glyph-name="uni4ECE" unicode="&#x4ece;" d="M307 -43.5 q-2 6.5 -1 14 q1 7.5 4.5 15 q3.5 7.5 9.5 12.5 q77 64 135 144.5 q58 80.5 104 178.5 q46 98 82.5 213.5 q36.5 115.5 68.5 246.5 q2 6 6 11.5 q4 5.5 9 10 q5 4.5 10.5 7 q5.5 2.5 11.5 1.5 l4 0 q6 0 10.5 -2.5 q4.5 -2.5 8 -7.5 q3.5 -5 4 -11 q0.5 -6 -0.5 -13 q-36 -141 -75 -262 q-7 -23 -15 -46 q1 -1 1 -2 q3 -6 4 -14 q3 -57 12 -118 q9 -61 27.5 -120 q18.5 -59 47 -111.5 q28.5 -52.5 70.5 -92.5 q8 -10 8 -25 q0 -15 -10 -25 q-6 -5 -12 -8 q-6 -3 -13 -3.5 q-7 -0.5 -13 2 q-6 2.5 -10 7.5 q-44 46 -74 105.5 q-30 59.5 -48.5 124.5 q-18.5 65 -27.5 131 q-3 19 -5 38 q-14 -34 -29 -67 q-49 -103 -110.5 -188 q-61.5 -85 -143.5 -153 q-4 -5 -10 -7 q-6 -2 -12 -3 q-6 -1 -11 0.5 q-5 1.5 -8 4.5 l-1 1 l-1 0 q-5 4 -7 10.5 ZM-20 -45 q-2 6 -1 13 q1 7 3.5 13.5 q2.5 6.5 7.5 12.5 q66 65 115.5 148.5 q49.5 83.5 89 183 q39.5 99.5 71.5 213.5 q32 114 61 240 q1 6 5.5 12 q4.5 6 9.5 10.5 q5 4.5 11 6.5 q6 2 11 2 l4 0 q6 0 10.5 -3 q4.5 -3 7.5 -7.5 q3 -4.5 4.5 -10.5 q1.5 -6 0.5 -12 q-32 -135 -66 -253 q-5 -17 -10 -33 l6 -2 q6 -3 8 -8 q19 -30 37.5 -64 q18.5 -34 35.5 -67.5 q17 -33.5 30 -65 q13 -31.5 22 -59.5 q3 -8 -0.5 -19 q-3.5 -11 -9.5 -16 l-1 -1 q-7 -5 -14 -6.5 q-7 -1.5 -13 0 q-6 1.5 -11.5 5.5 q-5.5 4 -8.5 10 q-10 27 -23 58 q-13 31 -28 63 q-15 32 -31 65 q-11 19 -21 38 q-21 -62 -44 -120 q-42 -103 -94 -190.5 q-52 -87.5 -119 -159.5 q-4 -5 -10.5 -8.5 q-6.5 -3.5 -13.5 -4 q-7 -0.5 -13 0 q-6 0.5 -10 4.5 q-1 0 -1 1 l-1 0 q-5 4 -7 10 Z" /><glyph glyph-name="uni4ED3" unicode="&#x4ed3;" d="M164 29 q0 16 3 37 l68 383 q1 6 4.5 12 q3.5 6 8.5 10 q5 4 10.5 7 q5.5 3 11.5 3 l2 0 q6 0 11 -3 q2 -1 3 -2 q3 1 5 2 q6 3 12 3 l431 0 q6 0 11 -2.5 q5 -2.5 8.5 -6.5 q3.5 -4 5.5 -9 q2 -5 1 -11 q-1 -4 -3 -7 q-14 -62 -25 -106 q-11 -46 -21 -77 q-10 -31 -19 -49 q-9 -18 -18 -27 q-14 -13 -29.5 -17.5 q-15.5 -4.5 -37.5 -5.5 q-17 -1 -46 -1 q-29 0 -62 2 q-10 0 -18.5 6.5 q-8.5 6.5 -8.5 13.5 q-1 14 11.5 23 q12.5 9 29.5 9 q14 -1 25.5 -2 q11.5 -1 21.5 -1 l33 0 q14 0 22 1.5 q8 1.5 15 7.5 q6 6 13.5 22 q7.5 16 16 45 q8.5 29 19.5 74 q6 27 14 60 l-400 0 q-1 0 -1 1 l-63 -358 q-3 -17 -1 -28 q2 -11 12 -17.5 q10 -6.5 29 -8.5 q19 -2 51 -2 l306 0 q23 0 39.5 4 q16.5 4 29 16.5 q12.5 12.5 21.5 34 q9 21.5 19 55.5 q4 8 9.5 14.5 q5.5 6.5 12 10.5 q6.5 4 13 5.5 q6.5 1.5 14.5 -1.5 q4 -2 6.5 -5.5 q2.5 -3.5 4.5 -8.5 q2 -5 2.5 -11 q0.5 -6 -0.5 -11 q-14 -47 -27.5 -78.5 q-13.5 -31.5 -32.5 -50 q-19 -18.5 -48 -26 q-29 -7.5 -73 -7.5 l-306 0 q-47 0 -77.5 5 q-30.5 5 -47 17.5 q-16.5 12.5 -19 28.5 q-2.5 16 -2.5 27 ZM57 413 q-8 12 -1.5 27 q6.5 15 23.5 23 q66 30 132 69 q66 39 126.5 84 q60.5 45 115 95.5 q54.5 50.5 98.5 101.5 q4 4 9.5 7.5 q5.5 3.5 11 5.5 q5.5 2 11 2.5 q5.5 0.5 9.5 -1.5 l2 -1 q6 -2 8.5 -7.5 q2.5 -5.5 2.5 -11.5 q0 -6 -1.5 -12.5 q-1.5 -6.5 -6.5 -11.5 q-2 -2 -4 -5 q1 -1 2 -3 q62 -100 146.5 -171 q84.5 -71 186.5 -128 q14 -8 16 -22 q2 -14 -8 -25 q-4 -4 -9.5 -6.5 q-5.5 -2.5 -11.5 -4 q-6 -1.5 -11.5 -0.5 q-5.5 1 -10.5 4 q-103 61 -189 137 q-84 74 -151 176 q-31 -31 -64 -62 q-59 -54 -124 -103 q-65 -49 -133.5 -91 q-68.5 -42 -137.5 -74 q-5 -2 -10.5 -2.5 q-5.5 -0.5 -10.5 1 q-5 1.5 -9 4 q-4 2.5 -7 5.5 Z" /><glyph glyph-name="uni4ED4" unicode="&#x4ed4;" d="M295 373 q0 5 4 10.5 q4 5.5 9 9.5 q5 4 11 6 q6 2 12 2 l264 0 l21 116 q1 6 4.5 11.5 q3.5 5.5 8.5 10 q5 4.5 10 7.5 l1 0 q1 2 1 3 q7 13 22 23 q34 18 68 39.5 q34 21.5 66 44.5 q32 23 61 46 q4 4 9 7 l-419 0 q-5 0 -11 3 q-6 3 -9.5 7 q-3.5 4 -5 8.5 q-1.5 4.5 -1.5 10.5 q1 5 4.5 10 q3.5 5 8.5 9.5 q5 4.5 11.5 6.5 q6.5 2 12.5 2 l446 0 q6 0 11 -2 q2 -1 3 -2 q0 1 1 1 q4 3 8 3 q2 0 4 0.5 q2 0.5 4 0.5 q2 1 8 -0.5 q6 -1.5 9 -4.5 l3 -2 q5 -4 7 -9.5 q2 -5.5 2 -12.5 q0 -7 -3.5 -13 q-3.5 -6 -8.5 -11 q-29 -26 -63 -52 q-34 -26 -69.5 -50.5 q-35.5 -24.5 -71.5 -46.5 q-36 -22 -69 -40 q-2 0 -4 -1 l0 -6 l-21 -117 l263 0 q5 0 11 -2 q6 -2 9.5 -6 q3.5 -4 5 -9.5 q1.5 -5.5 1.5 -10.5 q-1 -6 -5 -11 q-4 -5 -9 -9 q-5 -4 -11 -6.5 q-6 -2.5 -12 -2.5 l-263 0 l-59 -335 q-5 -32 -17.5 -47.5 q-12.5 -15.5 -37.5 -24.5 q-21 -6 -59 -7.5 q-38 -1.5 -96 -1.5 q-10 0 -18 7 q-8 7 -10 15 q-1 7 1.5 13.5 q2.5 6.5 7.5 12 q5 5.5 12.5 8.5 q7.5 3 16.5 3 q41 -1 69.5 -1 q28.5 0 43.5 1 q14 0 20 4.5 q6 4.5 8 17.5 l59 335 l-264 0 q-5 0 -11 2.5 q-6 2.5 -9.5 6.5 q-3.5 4 -5 9 q-1.5 5 -0.5 11 ZM43 409 q-4 9 -0.5 21.5 q3.5 12.5 12.5 20.5 q74 69 145 162.5 q71 93.5 127 195.5 q4 5 8.5 9 q4.5 4 10 7 q5.5 3 11.5 4 q6 1 11 0 q6 -2 9 -6 q3 -4 4.5 -9.5 q1.5 -5.5 1 -12.5 q-0.5 -7 -4.5 -12 q-59 -105 -130 -201 l-112 -633 q-1 -6 -4.5 -12 q-3.5 -6 -8 -10.5 q-4.5 -4.5 -10 -7 q-5.5 -2.5 -11.5 -2.5 q-6 0 -10 2.5 q-4 2.5 -7.5 7.5 q-3.5 5 -5 10.5 q-1.5 5.5 0.5 11.5 l95 541 q-41 -48 -84 -90 q-6 -6 -13 -9 q-7 -3 -13.5 -3 q-6.5 0 -12 3.5 q-5.5 3.5 -8.5 9.5 q-1 1 -1 2 Z" /><glyph glyph-name="uni4ED6" unicode="&#x4ed6;" d="M273 391 q-1 4 0.5 10 q1.5 6 5 11 q3.5 5 8.5 10 q5 5 11 7 l104 38 l43 243 q1 5 4.5 11 q3.5 6 8.5 10.5 q5 4.5 11 7 q6 2.5 11 2.5 q6 0 10.5 -2.5 q4.5 -2.5 8 -7 q3.5 -4.5 4.5 -10.5 q1 -6 0 -11 l-39 -221 l178 65 l43 249 q2 7 5.5 12.5 q3.5 5.5 8 10 q4.5 4.5 10.5 7.5 q6 3 11.5 3 q5.5 0 9.5 -3 q4 -3 7.5 -7.5 q3.5 -4.5 4.5 -10 q1 -5.5 0 -12.5 l-40 -227 l178 64 q4 2 9 2 l9 8 q5 4 13 5 q8 1 12 -2 l3 -1 q9 -3 15 -8.5 q6 -5.5 5 -8.5 q-1 -1 -2 -4 q-1 -3 -1 -6 q-12 -68 -23.5 -129 q-11.5 -61 -22 -109.5 q-10.5 -48.5 -19 -83.5 q-8.5 -35 -15.5 -51 q-13 -33 -31 -47.5 q-18 -14.5 -42 -18.5 q-15 -2 -34.5 -3 q-19.5 -1 -37.5 -1 q-5 0 -9.5 1.5 q-4.5 1.5 -8.5 4.5 q-4 3 -6 6.5 q-2 3.5 -2 7.5 q-1 14 6.5 23.5 q7.5 9.5 20.5 9.5 l48 0 q14 0 24.5 6 q10.5 6 19.5 27 q6 13 14 44.5 q8 31.5 18 78.5 q10 47 21 108 q7 39 15 83 l-188 -68 l-59 -340 q-2 -7 -5 -12.5 q-3 -5.5 -8 -10 q-5 -4.5 -10.5 -7.5 q-5.5 -3 -11 -3 q-5.5 0 -10 3 q-4.5 3 -7.5 7.5 q-3 4.5 -5 10 q-2 5.5 0 12.5 l56 318 l-178 -64 l-64 -367 q-3 -17 -3 -29 q0 -3 0.5 -11.5 q0.5 -8.5 8.5 -16 q8 -7.5 25 -10.5 q17 -3 44 -3 l276 0 q20 0 34 4 q14 4 24 16 q10 12 17.5 31.5 q7.5 19.5 16.5 48.5 q9 18 21 26.5 q12 8.5 25 3.5 q9 -3 12.5 -14 q3.5 -11 0.5 -21 q-12 -42 -23.5 -70.5 q-11.5 -28.5 -29 -46.5 q-17.5 -18 -43 -25.5 q-25.5 -7.5 -64.5 -7.5 l-276 0 q-42 0 -69.5 5.5 q-27.5 5.5 -42 19.5 q-14.5 14 -16 30 q-1.5 16 -1.5 24 q0 20 4 47 l61 343 l-81 -30 q-6 -1 -12.5 -1 q-6.5 0 -11.5 2 q-5 2 -8.5 6 q-3.5 4 -4.5 9 ZM26 405 q-3 9 1 21.5 q4 12.5 13 21.5 q78 69 152.5 162 q74.5 93 133.5 195 q3 5 7.5 9 q4.5 4 10.5 7 q6 3 11.5 4.5 q5.5 1.5 10.5 -0.5 q6 -2 9 -6 q3 -4 4.5 -9.5 q1.5 -5.5 0.5 -12 q-1 -6.5 -4 -12.5 q-57 -95 -125 -184 l-114 -643 q0 -7 -3.5 -12.5 q-3.5 -5.5 -8 -10 q-4.5 -4.5 -10.5 -7.5 q-6 -3 -11.5 -3 q-5.5 0 -10 3 q-4.5 3 -8.5 7.5 q-4 4.5 -5 10 q-1 5.5 0 11.5 l98 554 q-52 -59 -104 -108 q-6 -6 -13.5 -9 q-7.5 -3 -14 -2.5 q-6.5 0.5 -11.5 3.5 q-5 3 -8 8 l0 2 l-1 0 Z" /><glyph glyph-name="uni4ED8" unicode="&#x4ed8;" d="M417 381 q-1 6 -1 12.5 q0 6.5 2 12.5 q2 6 6.5 11 q4.5 5 10.5 7 l0 1 q5 2 10 1.5 q5 -0.5 10 -2 q5 -1.5 9.5 -5 q4.5 -3.5 5.5 -7.5 q13 -24 25.5 -50.5 q12.5 -26.5 25 -52.5 q12.5 -26 23 -50.5 q10.5 -24.5 18.5 -44.5 q2 -5 1 -10.5 q-1 -5.5 -3.5 -11 q-2.5 -5.5 -6 -10.5 q-3.5 -5 -9.5 -8 l-1 0 q-6 -3 -12.5 -3 q-6.5 0 -12.5 2 q-6 2 -10.5 6 q-4.5 4 -6.5 10 q-7 20 -16.5 43.5 q-9.5 23.5 -21 48.5 q-11.5 25 -23.5 51 q-12 26 -23 49 ZM366 582 l0 1 q1 5 4.5 10.5 q3.5 5.5 8.5 10 q5 4.5 11.5 6.5 q6.5 2 12.5 2 l382 0 l32 181 q2 6 5 11.5 q3 5.5 8.5 10 q5.5 4.5 11 7.5 q5.5 3 10.5 3 l2 0 q6 0 10.5 -3 q4.5 -3 8 -7.5 q3.5 -4.5 4.5 -10 q1 -5.5 0 -11.5 l-32 -181 l99 0 q7 0 12.5 -2 q5.5 -2 9.5 -6.5 q4 -4.5 5.5 -10 q1.5 -5.5 0.5 -10.5 l0 -1 q-1 -6 -4.5 -11 q-3.5 -5 -9 -9 q-5.5 -4 -12 -7 q-6.5 -3 -12.5 -3 l-99 0 l-96 -541 q-6 -38 -21 -55 q-15 -17 -43 -24 q-26 -8 -62 -9 q-36 -1 -73 -1 q-24 0 -53 0 q-9 0 -16.5 6 q-7.5 6 -8.5 14 q-4 15 7 26.5 q11 11.5 28 11.5 q1 0 3 0 q41 -2 72 -2 q8 0 30 0.5 q22 0.5 40 1.5 q18 2 26 8 q8 6 11 23 l96 541 l-382 0 q-7 0 -12.5 3 q-5.5 3 -9 7 q-3.5 4 -5 9 q-1.5 5 -0.5 11 ZM48 393 q-2 4 -2.5 10 q-0.5 6 1 12 q1.5 6 5 11.5 q3.5 5.5 8.5 10.5 q81 70 157.5 165.5 q76.5 95.5 136.5 199.5 q4 5 9 9.5 q5 4.5 10.5 7.5 q5.5 3 11.5 3.5 q6 0.5 11 -0.5 l2 0 q4 -2 8 -6 q4 -4 5.5 -9.5 q1.5 -5.5 0 -12.5 q-1.5 -7 -4.5 -12 q-60 -103 -132 -196 l-111 -628 q-1 -6 -4.5 -12 q-3.5 -6 -8 -10.5 q-4.5 -4.5 -10 -7 q-5.5 -2.5 -11.5 -2.5 l-1 0 q-6 0 -10.5 2.5 q-4.5 2.5 -8.5 7 q-4 4.5 -5 10.5 q-1 6 0 12 l95 537 q-51 -57 -104 -106 q-7 -6 -13.5 -8.5 q-6.5 -2.5 -13 -2.5 q-6.5 0 -12 3.5 q-5.5 3.5 -8.5 8.5 l0 2 l-1 1 Z" /><glyph glyph-name="uni4EE3" unicode="&#x4ee3;" d="M789.5 767 q-1.5 6 -0.5 12.5 q1 6.5 4 12 q3 5.5 8 8.5 q7 4 17 2.5 q10 -1.5 16 -7.5 q32 -28 64 -61 q32 -33 52 -61 q3 -4 4 -9.5 q1 -5.5 -1 -10.5 q-2 -5 -4.5 -10 q-2.5 -5 -7.5 -8 q-5 -3 -11.5 -3.5 q-6.5 -0.5 -12 1 q-5.5 1.5 -10.5 4.5 q-5 3 -9 8 q-18 24 -46 54.5 q-28 30.5 -57 56.5 q-4 5 -5.5 11 ZM324 463 q1 5 3.5 10.5 q2.5 5.5 7.5 10 q5 4.5 11 8 q6 3.5 12 3.5 l231 28 q9 125 27 266 q1 6 4 12 q3 6 8.5 11 q5.5 5 10.5 8 q5 3 11 3 l1 0 q6 0 10.5 -3 q4.5 -3 8 -7 q3.5 -4 5 -10 q1.5 -6 0.5 -11 q-19 -139 -28 -262 l284 34 q6 1 11.5 -0.5 q5.5 -1.5 10 -5 q4.5 -3.5 7 -8 q2.5 -4.5 2.5 -9.5 q0 -6 -3.5 -11.5 q-3.5 -5.5 -8 -9.5 q-4.5 -4 -10.5 -7.5 q-6 -3.5 -13 -4.5 l-283 -34 q-3 -54 -3 -102 q0 -76 7 -140 q11 -107 44 -171 q33 -64 92 -69 l1 0 q18 0 36.5 32.5 q18.5 32.5 38.5 96.5 q7 19 19.5 27 q12.5 8 25.5 0 q4 -3 7 -12 q3 -9 0 -17 q-18 -56 -34.5 -93.5 q-16.5 -37.5 -33 -61 q-16.5 -23.5 -33 -32 q-16.5 -8.5 -31.5 -8.5 q-3 0 -7 0 q-80 5 -123 73 q-43 68 -56 164.5 q-13 96.5 -13 189.5 q0 48 3 101 q1 8 1 15 l-231 -27 q-5 -1 -10.5 0.5 q-5.5 1.5 -10 4.5 q-4.5 3 -7 7.5 q-2.5 4.5 -2.5 10.5 ZM30 388 q-5 9 0 22 q5 13 14 21 q90 71 175.5 166.5 q85.5 95.5 152.5 201.5 q3 5 8 9 q5 4 11 7 q6 3 11.5 3.5 q5.5 0.5 10.5 -1.5 q5 -2 8.5 -6 q3.5 -4 5 -9.5 q1.5 -5.5 0 -12.5 q-1.5 -7 -4.5 -12 q-60 -94 -131 -179 l-113 -641 q-1 -6 -4.5 -12 q-3.5 -6 -8.5 -10.5 q-5 -4.5 -10 -7 q-5 -2.5 -11 -2.5 l-2 0 q-5 0 -10 2.5 q-5 2.5 -9 7 q-4 4.5 -5 10.5 q-1 6 0 12 l98 557 q-68 -73 -140 -131 q-6 -6 -13 -8 q-7 -2 -13 -1.5 q-6 0.5 -11 4 q-5 3.5 -8 9.5 l0 1 l-1 0 Z" /><glyph glyph-name="uni4EE4" unicode="&#x4ee4;" d="M442.5 553.5 q-2.5 6.5 -1.5 13 q1 6.5 4.5 12 q3.5 5.5 8.5 9.5 q6 5 17 4 q11 -1 17 -7 q29 -26 56.5 -56.5 q27.5 -30.5 43.5 -57.5 q4 -4 4.5 -10 q0.5 -6 -0.5 -11.5 q-1 -5.5 -4.5 -10.5 q-3.5 -5 -8.5 -9 q-4 -4 -10.5 -5 q-6.5 -1 -13 0 q-6.5 1 -11.5 4 q-5 3 -9 8 q-14 24 -37.5 52.5 q-23.5 28.5 -48.5 52.5 q-4 5 -6.5 11.5 ZM158.5 325 q-3.5 4 -5.5 9 q-2 5 0 10 q0 6 3.5 11 q3.5 5 9 9.5 q5.5 4.5 12 6.5 q6.5 2 11.5 2 l556 0 q5 0 11 -2 q4 -1 7 -4 q0 1 1 1 q0 3 3 4 q3 1 6 1 q2 0 3.5 0.5 q1.5 0.5 3.5 1.5 q4 1 9 0 q5 -1 8 -4 l4 -2 q5 -4 6.5 -9.5 q1.5 -5.5 1.5 -12.5 q0 -7 -3.5 -13.5 q-3.5 -6.5 -9.5 -11.5 q-33 -29 -71.5 -62.5 q-38.5 -33.5 -80 -68.5 q-41.5 -35 -83.5 -70 q-36 -31 -70 -61 q14 -12 26 -23 q28 -26 49 -49 q5 -4 7 -9.5 q2 -5.5 1 -11.5 q-1 -6 -3.5 -12 q-2.5 -6 -7.5 -10 l-4 -4 q-4 -4 -10.5 -6.5 q-6.5 -2.5 -12 -2.5 q-5.5 0 -11.5 2 q-6 2 -10 5 q-19 22 -44.5 47.5 q-25.5 25.5 -54.5 51.5 q-29 26 -60.5 51.5 q-31.5 25.5 -61.5 48.5 q-6 4 -8.5 10 q-2.5 6 -3 12.5 q-0.5 6.5 2.5 13 q3 6.5 9 10.5 l2 2 q6 5 16.5 6 q10.5 1 17.5 -3 q31 -23 64 -48 q28 -22 55 -45 q40 34 83 70 q43 36 84.5 71.5 q41.5 35.5 77.5 67.5 q6 5 13 11 l-528 0 q-5 0 -11 2.5 q-6 2.5 -9.5 6.5 ZM67 448 q-7 13 -1 27 q6 14 23 22 q65 28 130.5 64.5 q65.5 36.5 126 78 q60.5 41.5 115 87 q54.5 45.5 99.5 91.5 q8 8 20 11 q12 3 19 -1 l2 -1 q5 -3 7.5 -8.5 q2.5 -5.5 2 -12 q-0.5 -6.5 -3 -12.5 q-2.5 -6 -9.5 -12 l-2 -2 q0 -1 1 -2 q29 -39 68 -78.5 q39 -39.5 83.5 -75.5 q44.5 -36 92.5 -68 q48 -32 94 -54 q16 -8 16 -25 q0 -13 -12 -25 q-3 -4 -8.5 -6.5 q-5.5 -2.5 -11 -4 q-5.5 -1.5 -11 -1 q-5.5 0.5 -9.5 2.5 q-46 25 -94.5 58.5 q-48.5 33.5 -94 72 q-45.5 38.5 -87.5 81.5 q-40 41 -71 82 q-29 -27 -61 -53 q-58 -49 -121.5 -92.5 q-63.5 -43.5 -130.5 -81.5 q-67 -38 -134 -69 q-6 -2 -11 -2.5 q-5 -0.5 -10.5 0.5 q-5.5 1 -9.5 3.5 q-4 2.5 -7 5.5 Z" /><glyph glyph-name="uni4EE5" unicode="&#x4ee5;" d="M443 690 q-3 5 -3 12 q0 7 2 13.5 q2 6.5 6.5 12 q4.5 5.5 10.5 8.5 l1 0 q8 4 18.5 1.5 q10.5 -2.5 15.5 -10.5 q13 -23 27 -47.5 q14 -24.5 26.5 -49 q12.5 -24.5 22 -48.5 q9.5 -24 17.5 -45 q2 -4 1.5 -10 q-0.5 -6 -2.5 -11.5 q-2 -5.5 -6 -10 q-4 -4.5 -9 -7.5 l-2 -1 q-6 -3 -12.5 -3 q-6.5 0 -12 2 q-5.5 2 -10 6.5 q-4.5 4.5 -7.5 10.5 q-13 39 -35.5 87 q-22.5 48 -48.5 90 ZM281 -62 q-8 11 -1 26 q7 15 24 23 q116 50 197.5 119.5 q81.5 69.5 140.5 164.5 q59 95 101.5 218 q42.5 123 78.5 279 q1 5 5 11 q4 6 9.5 10.5 q5.5 4.5 11 6.5 q5.5 2 11.5 2 l3 0 q6 0 10.5 -3 q4.5 -3 7.5 -8 q3 -5 4 -11 q1 -6 0 -11 q-41 -167 -87 -297.5 q-46 -130.5 -111 -231.5 l-6 -10 q1 0 2 -1 q25 -28 51 -58.5 q26 -30.5 49.5 -61.5 q23.5 -31 43.5 -60.5 q20 -29.5 36 -55.5 q2 -5 2 -11 q0 -6 -1 -11.5 q-1 -5.5 -5 -11 q-4 -5.5 -10 -8.5 l-3 -2 q-5 -4 -11.5 -4.5 q-6.5 -0.5 -12.5 0.5 q-6 1 -11 4.5 q-5 3.5 -8 8.5 q-14 24 -32.5 53 q-18.5 29 -39.5 59 q-21 30 -46 60 q-20 26 -40 49 q-50 -64 -110 -115 q-89 -75 -214 -131 q-5 -2 -11 -2.5 q-6 -0.5 -11.5 1 q-5.5 1.5 -9 4 q-3.5 2.5 -6.5 5.5 q0 1 -1 1 ZM57 58 q-4 8 2 21.5 q6 13.5 17 23.5 q6 5 12 9 q6 4 11 9.5 q5 5.5 9 15 q4 9.5 7 26.5 l99 561 q1 6 4.5 12 q3.5 6 8.5 10.5 q5 4.5 10.5 7 q5.5 2.5 11.5 2.5 l4 0 q6 0 10.5 -2.5 q4.5 -2.5 8 -7 q3.5 -4.5 4.5 -10.5 q1 -6 0 -12 l-102 -578 l229 95 q7 4 14 4 q7 0 12.5 -2 q5.5 -2 10 -6.5 q4.5 -4.5 4.5 -9.5 q1 -9 -7 -20 q-8 -11 -17 -16 q-72 -29 -123 -51 q-51 -22 -86.5 -37.5 q-35.5 -15.5 -57.5 -25.5 l-38 -18 q-8 -5 -17 -7 l-4 0 q-1 -1 -3 -1 q-7 -3 -14 -3.5 q-7 -0.5 -12 2 q-5 2.5 -8 8.5 Z" /><glyph glyph-name="uni4EEA" unicode="&#x4eea;" d="M615 757 q-2 5 -2 12 q0 7 2.5 13.5 q2.5 6.5 6.5 11.5 q4 5 10 7 q8 5 18.5 1 q10.5 -4 13.5 -12 q22 -38 40 -81.5 q18 -43.5 29 -77.5 q2 -9 -3 -20 q-5 -11 -14 -15 q-6 -3 -12.5 -3 q-6.5 0 -12.5 2.5 q-6 2.5 -10.5 7.5 q-4.5 5 -5.5 11 q-10 31 -26 69.5 q-16 38.5 -34 73.5 ZM202 -60 q-6 10 1.5 24 q7.5 14 23.5 21 q140 55 244 132 q35 26 67 55 q-16 28 -30 59 q-44 101 -64 224.5 q-20 123.5 -23 269.5 q0 5 3 11 q3 6 7 11 q4 5 9 8.5 q5 3.5 11 4.5 q5 1 10 -1 q5 -2 9 -5.5 q4 -3.5 6.5 -9 q2.5 -5.5 3.5 -11.5 q1 -134 20 -250 q19 -116 61 -210 q13 -28 27 -54 q34 34 65 72 q78 96 136 211 q58 115 105 247 q1 5 5.5 10.5 q4.5 5.5 10.5 9 q6 3.5 12 5.5 q6 2 12 0 q6 0 9.5 -4 q3.5 -4 6 -9 q2.5 -5 2.5 -11 q0 -6 -1 -11 q-52 -140 -114 -261.5 q-62 -121.5 -146 -223.5 q-35 -42 -74 -81 q25 -35 54 -66 q68 -71 166 -116 q15 -8 16 -22.5 q1 -14.5 -11 -26.5 q-7 -8 -19 -11 q-12 -3 -21 1 q-106 48 -178 124 q-31 33 -58 71 q-33 -29 -69 -56 q-111 -81 -259 -139 q-10 -4 -21.5 -1.5 q-11.5 2.5 -14.5 9.5 ZM26 405 q-3 9 1 21.5 q4 12.5 13 21.5 q78 69 153 162.5 q75 93.5 133 195.5 q3 5 8 9 q5 4 11 6.5 q6 2.5 11.5 4 q5.5 1.5 9.5 -0.5 q6 -2 9.5 -6 q3.5 -4 5 -9.5 q1.5 -5.5 1 -12.5 q-0.5 -7 -4.5 -12 q-57 -97 -126 -187 l-114 -640 q0 -7 -3.5 -13 q-3.5 -6 -8 -10 q-4.5 -4 -10 -7 q-5.5 -3 -11.5 -3 q-6 0 -10 3 q-4 3 -8 7.5 q-4 4.5 -5 10 q-1 5.5 0 11.5 l98 553 q-52 -59 -105 -108 q-7 -7 -13.5 -9.5 q-6.5 -2.5 -13 -2 q-6.5 0.5 -12 3.5 q-5.5 3 -8.5 9 l0 2 l-1 0 Z" /><glyph glyph-name="uni4EEC" unicode="&#x4eec;" d="M627 -53 q-1 14 10 25 q11 11 29 11 q31 -1 53.5 -1 q22.5 0 34.5 1 q12 1 18 5.5 q6 4.5 8 17.5 l130 738 l-251 0 q-6 0 -11 2 q-5 2 -9 6.5 q-4 4.5 -6 9 q-2 4.5 -1 10.5 q1 5 4.5 10 q3.5 5 9 8.5 q5.5 3.5 11.5 6 q6 2.5 11 2.5 l281 0 q6 0 11 -3 l1 -1 q4 -2 7 -4 q3 -4 5 -9 q2 -5 1 -10 l0 -2 q0 -2 -1 -4 l-134 -761 q-5 -30 -16.5 -45.5 q-11.5 -15.5 -34.5 -23.5 q-20 -6 -51.5 -7.5 q-31.5 -1.5 -81.5 -2.5 q-9 0 -18 6.5 q-9 6.5 -10 14.5 ZM466 782 q-2 5 -2.5 11.5 q-0.5 6.5 1.5 13 q2 6.5 5.5 11 q3.5 4.5 9.5 7.5 q9 4 19 0.5 q10 -3.5 14 -12.5 q20 -34 37 -73.5 q17 -39.5 27 -70.5 q3 -5 2.5 -11 q-0.5 -6 -3 -11.5 q-2.5 -5.5 -6 -10 q-3.5 -4.5 -8.5 -6.5 q-6 -3 -12 -3 q-6 0 -11 2 q-5 2 -9.5 6.5 q-4.5 4.5 -7.5 10.5 q-9 29 -24 65.5 q-15 36.5 -32 70.5 ZM263.5 -66.5 q-3.5 4.5 -5 10.5 q-1.5 6 0.5 11 l115 655 q1 6 4.5 11.5 q3.5 5.5 8.5 10 q5 4.5 10.5 7.5 q5.5 3 10.5 3 q6 0 11 -3 q5 -3 8 -7.5 q3 -4.5 4.5 -10 q1.5 -5.5 -0.5 -11.5 l-115 -655 q-1 -5 -4.5 -11 q-3.5 -6 -8 -10.5 q-4.5 -4.5 -10 -7.5 q-5.5 -3 -11.5 -3 q-6 0 -10.5 3 q-4.5 3 -8 7.5 ZM43 396 q-4 7 -1.5 18.5 q2.5 11.5 10.5 18.5 q64 73 124.5 168.5 q60.5 95.5 108.5 197.5 q3 6 8 11 q5 5 10.5 8.5 q5.5 3.5 11.5 4.5 q6 1 10 0 q6 -1 9.5 -5 q3.5 -4 5.5 -9.5 q2 -5.5 1.5 -12 q-0.5 -6.5 -3.5 -11.5 q-47 -97 -101 -186 l-114 -642 q-1 -7 -4 -13 q-3 -6 -8 -10.5 q-5 -4.5 -10.5 -7 q-5.5 -2.5 -11 -2.5 q-5.5 0 -10 2.5 q-4.5 2.5 -8 7 q-3.5 4.5 -4.5 10.5 q-1 6 0 12 l92 525 q-34 -47 -69 -88 q-6 -6 -12.5 -10 q-6.5 -4 -13.5 -4 q-7 0 -12 3.5 q-5 3.5 -8 10.5 q-1 1 -1 2 l0 1 Z" /><glyph glyph-name="uni4EF6" unicode="&#x4ef6;" d="M290 304 q2 5 5.5 10 q3.5 5 8.5 9.5 q5 4.5 11 7 q6 2.5 11 2.5 l262 0 l42 237 l-149 0 q-7 0 -13 3 q-3 1 -5 4 q-40 -77 -86 -137 q-3 -6 -9 -10 q-6 -4 -12 -5.5 q-6 -1.5 -12 -1.5 q-6 0 -10 3 q-8 6 -8 19.5 q0 13.5 8 26.5 q46 57 83 130 q37 73 67 154 q2 6 6.5 11.5 q4.5 5.5 10 9 q5.5 3.5 11.5 5.5 q6 2 12 1 q5 -2 8.5 -5.5 q3.5 -3.5 5.5 -9 q2 -5.5 2 -11.5 q0 -6 -2 -12 q-24 -61 -50 -117 l153 0 l29 166 q1 6 4.5 11.5 q3.5 5.5 8.5 10 q5 4.5 10.5 7 q5.5 2.5 10.5 2.5 l2 0 q5 0 10 -2.5 q5 -2.5 8 -7 q3 -4.5 4.5 -10 q1.5 -5.5 0.5 -11.5 l-30 -166 l205 0 q6 0 11.5 -2 q5.5 -2 9 -6.5 q3.5 -4.5 5.5 -9.5 q2 -5 1 -11 q-1 -6 -4.5 -11 q-3.5 -5 -8.5 -9 q-5 -4 -11.5 -6.5 q-6.5 -2.5 -13.5 -2.5 l-204 0 l-42 -237 l249 0 q6 0 11 -2.5 q5 -2.5 8.5 -7 q3.5 -4.5 5.5 -9.5 q2 -5 0 -10 q0 -6 -4 -11 q-4 -5 -9 -9 q-5 -4 -11 -7 q-6 -3 -11 -3 l-249 0 l-56 -320 q-1 -6 -4.5 -11.5 q-3.5 -5.5 -8 -10 q-4.5 -4.5 -10.5 -7 q-6 -2.5 -11 -2.5 l-2 0 q-5 0 -9.5 2.5 q-4.5 2.5 -8 7 q-3.5 4.5 -5 10 q-1.5 5.5 -0.5 11.5 l56 320 l-262 0 q-5 0 -10.5 3 q-5.5 3 -9 7 q-3.5 4 -5.5 9 q-2 5 -1 11 ZM43 405 q-4 9 -0.5 21.5 q3.5 12.5 12.5 20.5 q75 70 145.5 163.5 q70.5 93.5 127.5 195.5 q4 5 8.5 9 q4.5 4 10 6.5 q5.5 2.5 11.5 4 q6 1.5 11 -0.5 q5 -2 8.5 -6 q3.5 -4 5 -9.5 q1.5 -5.5 1 -12.5 q-0.5 -7 -4.5 -12 q-55 -97 -121 -187 l-114 -640 q0 -7 -3.5 -13 q-3.5 -6 -8.5 -10 q-5 -4 -10.5 -7 q-5.5 -3 -11 -3 q-5.5 0 -10 3 q-4.5 3 -8 7.5 q-3.5 4.5 -4.5 10 q-1 5.5 -1 11.5 l97 546 q-46 -54 -93 -101 q-6 -6 -13 -9 q-7 -3 -13.5 -2.5 q-6.5 0.5 -12 3.5 q-5.5 3 -8.5 9 q-1 1 -1 2 Z" /><glyph glyph-name="uni4EF7" unicode="&#x4ef7;" d="M643 -44 l82 465 q2 6 5 12 q3 6 8.5 10 q5.5 4 10.5 7 q5 3 11 3 l2 0 q6 0 10.5 -3 q4.5 -3 8 -7 q3.5 -4 4.5 -10 q1 -6 0 -12 l-82 -465 q-1 -5 -4.5 -11 q-3.5 -6 -8 -10.5 q-4.5 -4.5 -10 -7 q-5.5 -2.5 -11.5 -2.5 l-2 0 q-5 0 -10 2.5 q-5 2.5 -8.5 7 q-3.5 4.5 -5 10.5 q-1.5 6 -0.5 11 ZM278 431 q-6 10 1 24.5 q7 14.5 22 22.5 q61 36 114.5 78 q53.5 42 99 86 q45.5 44 81.5 88.5 q36 44.5 63 84.5 q5 9 16 15 q11 6 20 5 l2 -1 q7 -1 11.5 -5 q4.5 -4 6 -10 q1.5 -6 1 -12.5 q-0.5 -6.5 -5.5 -13.5 q-4 -6 -8 -13 q2 -3 4 -7 q18 -40 43.5 -79.5 q25.5 -39.5 55.5 -76.5 q30 -37 63.5 -68 q33.5 -31 68.5 -55 q12 -9 12.5 -24 q0.5 -15 -10.5 -25 q-4 -4 -9.5 -6 q-5.5 -2 -11 -2.5 q-5.5 -0.5 -11 0.5 q-5.5 1 -10.5 4 q-35 26 -70 60.5 q-35 34.5 -67 74.5 q-32 40 -59 83 q-21 35 -38 69 q-12 -15 -25 -30 q-41 -49 -90 -96 q-49 -47 -105.5 -91.5 q-56.5 -44.5 -122.5 -83.5 q-12 -6 -24.5 -5 q-12.5 1 -17.5 9 ZM217 -65 q-8 10 -3.5 24 q4.5 14 16.5 26 q52 38 86 80.5 q34 42.5 55 86 q21 43.5 31.5 85 q10.5 41.5 17.5 78.5 l18 106 q2 6 5 11.5 q3 5.5 8.5 10 q5.5 4.5 11 7 q5.5 2.5 10.5 2.5 l1 0 q6 0 10.5 -2.5 q4.5 -2.5 8 -7 q3.5 -4.5 5 -10 q1.5 -5.5 -0.5 -11.5 l-18 -106 q-7 -41 -20 -88.5 q-13 -47.5 -37 -97 q-24 -49.5 -63.5 -99 q-39.5 -49.5 -99.5 -93.5 q-5 -4 -11.5 -6.5 q-6.5 -2.5 -12 -2.5 q-5.5 0 -10 2 q-4.5 2 -8.5 5 ZM50 408 q-5 9 -1.5 21.5 q3.5 12.5 11.5 20.5 q74 70 144 163.5 q70 93.5 125 195.5 q2 5 7.5 9 q5.5 4 11 7 q5.5 3 11 4 q5.5 1 10.5 0 q5 -2 9 -6 q4 -4 5 -10 q1 -6 0.5 -12.5 q-0.5 -6.5 -4.5 -12.5 q-55 -98 -119 -188 l-114 -644 q-1 -7 -4.5 -12.5 q-3.5 -5.5 -8.5 -10.5 q-5 -5 -11 -7.5 q-6 -2.5 -12 -2.5 q-6 0 -10 2.5 q-4 2.5 -7.5 7.5 q-3.5 5 -5 10.5 q-1.5 5.5 -0.5 11.5 l95 544 q-41 -51 -84 -94 q-7 -7 -14 -9.5 q-7 -2.5 -13.5 -2 q-6.5 0.5 -11.5 3.5 q-5 3 -8 9 l0 2 l-1 0 Z" /><glyph glyph-name="uni4EFB" unicode="&#x4efb;" d="M256 -7 q0 5 3.5 10 q3.5 5 9 9 q5.5 4 11.5 6.5 q6 2.5 12 2.5 l242 0 q-2 2 -3 6 q-1 6 0 11 l55 310 l-274 0 q-6 0 -11.5 2 q-5.5 2 -9.5 6.5 q-4 4.5 -5.5 9.5 q-1.5 5 -0.5 11 q1 5 4.5 10 q3.5 5 9 9 q5.5 4 11.5 6.5 q6 2.5 12 2.5 l274 0 l48 274 q1 3 2 7 q-48 -9 -97 -16 q-68 -10 -132 -18 q-12 -2 -22 3.5 q-10 5.5 -12 13.5 q-1 11 9.5 21.5 q10.5 10.5 26.5 12.5 q64 10 132 20.5 q68 10.5 133 23 q65 12.5 123.5 26.5 q58.5 14 102.5 28 q8 3 17.5 0.5 q9.5 -2.5 12.5 -7.5 l3 -3 q4 -6 4.5 -13 q0.5 -7 -2.5 -13.5 q-3 -6.5 -9 -11.5 q-6 -5 -15 -8 q-50 -15 -112 -28 q-52 -11 -107 -21 q1 -3 1 -6 q1 -6 1 -11 l-49 -274 l263 0 q6 0 11.5 -2.5 q5.5 -2.5 9.5 -6.5 q4 -4 5.5 -9 q1.5 -5 1.5 -10 q-2 -6 -5.5 -11 q-3.5 -5 -9 -9.5 q-5.5 -4.5 -11.5 -6.5 q-6 -2 -12 -2 l-263 0 l-54 -310 q-2 -5 -5 -11 q-2 -4 -4 -6 l251 0 q5 0 11 -2.5 q6 -2.5 9.5 -6.5 q3.5 -4 5.5 -9 q2 -5 1 -10 q-1 -6 -4.5 -11 q-3.5 -5 -8.5 -9.5 q-5 -4.5 -11.5 -6.5 q-6.5 -2 -12.5 -2 l-541 0 q-6 0 -11 2 q-5 2 -9 6.5 q-4 4.5 -6 9.5 q-2 5 0 11 ZM32 399 q-5 9 -0.5 22.5 q4.5 13.5 13.5 21.5 q85 70 166 165.5 q81 95.5 145 200.5 q3 5 8 9.5 q5 4.5 10.5 7.5 q5.5 3 11.5 4 q6 1 10 -1 l2 -1 q5 -1 8.5 -5.5 q3.5 -4.5 5 -10 q1.5 -5.5 0.5 -12 q-1 -6.5 -5 -12.5 q-59 -96 -129 -184 l-114 -648 q-2 -7 -5 -12.5 q-3 -5.5 -8.5 -10 q-5.5 -4.5 -11 -7.5 q-5.5 -3 -11.5 -3 q-5 0 -9.5 3 q-4.5 3 -8 7.5 q-3.5 4.5 -5 10.5 q-1.5 6 -0.5 11 l99 561 q-61 -66 -125 -122 q-6 -6 -13 -8.5 q-7 -2.5 -13.5 -2 q-6.5 0.5 -11.5 4 q-5 3.5 -8 8.5 q0 1 -0.5 1.5 q-0.5 0.5 -0.5 1.5 Z" /><glyph glyph-name="uni4EFD" unicode="&#x4efd;" d="M756 776 q0 5 2 11 q2 6 6 11.5 q4 5.5 9 9 q5 3.5 10 4.5 q11 3 19 -5 q8 -8 10 -19 q5 -54 15 -99.5 q10 -45.5 25.5 -84 q15.5 -38.5 37 -72.5 q21.5 -34 48.5 -65 q10 -10 9.5 -24.5 q-0.5 -14.5 -10.5 -24.5 q-5 -4 -12 -6.5 q-7 -2.5 -13.5 -3 q-6.5 -0.5 -12 2 q-5.5 2.5 -10.5 7.5 q-29 35 -52 73 q-23 38 -39 81.5 q-16 43.5 -26 93.5 q-10 50 -16 110 ZM298 411 q-2 4 -2.5 10.5 q-0.5 6.5 1.5 13 q2 6.5 6 12.5 q4 6 10 11 q76 59 138.5 141.5 q62.5 82.5 109.5 182.5 q6 10 18.5 17.5 q12.5 7.5 21.5 5.5 q6 -1 10 -5 q4 -4 6 -9.5 q2 -5.5 2 -12 q0 -6.5 -3 -12.5 q-54 -109 -122.5 -199.5 q-68.5 -90.5 -149.5 -156.5 q-6 -6 -13 -8.5 q-7 -2.5 -13 -2 q-6 0.5 -11.5 3.5 q-5.5 3 -8.5 8 ZM244 -60 q-8 10 -2.5 25 q5.5 15 21.5 26 q95 60 155.5 155.5 q60.5 95.5 99.5 229.5 q1 5 4 9 l-111 0 q-6 0 -11 2.5 q-5 2.5 -9 6.5 q-4 4 -6 9 q-2 5 -1 10 q1 6 4.5 11 q3.5 5 9 8.5 q5.5 3.5 11.5 6 q6 2.5 12 2.5 l391 0 q6 0 12 -2.5 q6 -2.5 9.5 -6 q3.5 -3.5 5 -8.5 q1.5 -5 1.5 -11 q-1 -2 -2 -5 q-26 -114 -46 -194 q-19 -79 -36 -131.5 q-17 -52.5 -30.5 -81 q-13.5 -28.5 -28.5 -42.5 q-15 -15 -30 -21 q-15 -6 -36 -8 l-38 0 q-24 0 -50 1 q-10 0 -18.5 6.5 q-8.5 6.5 -8.5 14.5 q-2 14 8.5 24 q10.5 10 26.5 9 q12 -1 21 -1 q9 0 16.5 -0.5 q7.5 -0.5 14.5 -0.5 l13 0 q13 0 21 2 q8 2 17 11 q10 9 22.5 36 q12.5 27 28.5 78 q16 51 35 129 q16 63 35 146 l-199 0 l0 -2 q1 -6 -1 -12 q-46 -153 -115.5 -258.5 q-69.5 -105.5 -178.5 -174.5 q-4 -4 -9.5 -5 q-5.5 -1 -11 -0.5 q-5.5 0.5 -10 2.5 q-4.5 2 -6.5 5 ZM46 405 q-4 9 -1 21.5 q3 12.5 12 21.5 q72 69 140.5 163 q68.5 94 121.5 195 q3 5 8 9 q5 4 11 7 q6 3 11 4 q5 1 10 0 q6 -2 9.5 -6 q3.5 -4 5 -10 q1.5 -6 1 -12.5 q-0.5 -6.5 -4.5 -11.5 q-53 -98 -117 -188 l-113 -642 q-1 -7 -4 -12.5 q-3 -5.5 -8.5 -10.5 q-5.5 -5 -11 -7.5 q-5.5 -2.5 -11.5 -2.5 q-6 0 -10.5 2.5 q-4.5 2.5 -7.5 7.5 q-3 5 -5 10.5 q-2 5.5 0 11.5 l95 542 q-41 -51 -83 -95 q-6 -6 -13 -9 q-7 -3 -13 -2.5 q-6 0.5 -12 3.5 q-6 3 -9 9 l0 2 l-1 0 Z" /><glyph glyph-name="uni4EFF" unicode="&#x4eff;" d="M662 787 q-1 6 0.5 12.5 q1.5 6.5 5.5 12 q4 5.5 9.5 10 q5.5 4.5 11.5 4.5 l2 1 q10 2 19 -4 q9 -6 10 -15 q6 -23 10 -48.5 q4 -25.5 7 -45.5 q0 -6 -1.5 -12 q-1.5 -6 -5 -11.5 q-3.5 -5.5 -8.5 -9 q-5 -3.5 -10 -5.5 l-3 -1 q-6 -1 -11.5 0.5 q-5.5 1.5 -10.5 5 q-5 3.5 -8 8.5 q-3 5 -4 11 q-1 19 -5 42 q-4 23 -8 45 ZM223 -59 q-8 9 -4 23.5 q4 14.5 18 25.5 q68 50 115.5 117.5 q47.5 67.5 80.5 147.5 q33 80 55 167.5 q22 87.5 41 175.5 l0 3 l-149 0 q-6 0 -10.5 3 q-4.5 3 -8.5 7 q-4 4 -5.5 9 q-1.5 5 -1.5 10 q2 6 5.5 11 q3.5 5 8.5 9.5 q5 4.5 11 7 q6 2.5 12 2.5 l572 0 q5 0 10 -2.5 q5 -2.5 9 -7 q4 -4.5 5.5 -9.5 q1.5 -5 0.5 -11 q-1 -5 -4.5 -10 q-3.5 -5 -8.5 -9 q-5 -4 -11.5 -7 q-6.5 -3 -11.5 -3 l-362 0 q-1 -2 -1 -4 q-17 -81 -37 -160 l1 0 q7 3 13 3 l278 0 q6 0 11.5 -2.5 q5.5 -2.5 9.5 -6.5 q3 -3 5 -7 l0 -1 q1 -1 1 -3 q1 -4 1 -8 q-1 -2 -2 -5 q-25 -114 -45 -193 q-20 -80 -35.5 -131.5 q-15.5 -51.5 -29 -80 q-13.5 -28.5 -26.5 -41.5 q-17 -16 -33 -21.5 q-16 -5.5 -39 -7.5 q-14 -2 -35 -2 q-5 0 -22 0.5 q-17 0.5 -48 2.5 q-10 0 -18.5 7 q-8.5 7 -9.5 14 q-1 15 11 24 q12 9 28 9 q2 0 3 0 q14 0 25 -0.5 q11 -0.5 20 -1 q9 -0.5 17 -0.5 l15 0 q12 -1 20 0.5 q8 1.5 15 7.5 q1 2 3.5 4 q2.5 2 3.5 3 q12 11 23 38 q11 27 25.5 76.5 q14.5 49.5 32.5 126.5 q15 60 33 143 l-248 0 q-6 0 -12 2 q-2 1 -5 3 q-23 -86 -57 -164 q-36 -85 -88.5 -157.5 q-52.5 -72.5 -128.5 -125.5 q-5 -4 -11 -6 q-6 -2 -12.5 -2 q-6.5 0 -11 1.5 q-4.5 1.5 -7.5 5.5 ZM44 407 q-4 9 -0.5 21.5 q3.5 12.5 12.5 20.5 q74 70 144 163.5 q70 93.5 126 194.5 q3 5 8 9.5 q5 4.5 11 7 q6 2.5 11.5 3.5 q5.5 1 11 -0.5 q5.5 -1.5 9 -6 q3.5 -4.5 5 -10 q1.5 -5.5 1 -12 q-0.5 -6.5 -5.5 -12.5 q-55 -99 -122 -191 l-113 -637 q-1 -7 -4.5 -12.5 q-3.5 -5.5 -8 -10 q-4.5 -4.5 -10.5 -7.5 q-6 -3 -11.5 -3 q-5.5 0 -10 3 q-4.5 3 -8 7.5 q-3.5 4.5 -5 10 q-1.5 5.5 -0.5 11.5 l96 542 q-43 -52 -88 -96 q-7 -6 -13.5 -9 q-6.5 -3 -13 -2.5 q-6.5 0.5 -11.5 3.5 q-5 3 -8 9 q-1 1 -1 1.5 q0 0.5 -1 1.5 Z" /><glyph glyph-name="uni4F01" unicode="&#x4f01;" d="M64 443 q-7 12 -0.5 25.5 q6.5 13.5 23.5 21.5 q67 29 131.5 65.5 q64.5 36.5 125 79.5 q60.5 43 114 91 q53.5 48 96.5 98 q8 8 20 12 q12 4 20 0 q5 -3 7.5 -8.5 q2.5 -5.5 3 -11.5 q0.5 -6 -2.5 -12.5 q-3 -6.5 -8 -12.5 l-3 -3 l6 -4 q63 -100 148.5 -170 q85.5 -70 184.5 -124 q16 -8 18 -22 q2 -14 -9 -26 q-2 -3 -7.5 -5.5 q-5.5 -2.5 -11 -3.5 q-5.5 -1 -11.5 -0.5 q-6 0.5 -11 2.5 q-101 58 -188 132 q-87 73 -157 180 q-30 -31 -63 -61 q-56 -51 -120 -97 q-64 -46 -131.5 -85 q-67.5 -39 -137.5 -69 q-4 -2 -10 -2.5 q-6 -0.5 -11.5 0.5 q-5.5 1 -9 4 q-3.5 3 -6.5 6 ZM-2 -19 q0 6 4 10.5 q4 4.5 9 8.5 q5 4 11 6 q6 2 12 2 l103 0 q-1 4 0 7 l60 340 q1 7 4.5 12.5 q3.5 5.5 8.5 10.5 q5 5 11 7.5 q6 2.5 11.5 2.5 q5.5 0 10 -2.5 q4.5 -2.5 7.5 -7.5 q3 -5 4.5 -10.5 q1.5 -5.5 -0.5 -12.5 l-59 -340 q-1 -3 -2 -7 l207 0 q0 1 1 3 l93 525 q0 7 3.5 12.5 q3.5 5.5 8.5 10 q5 4.5 11 7 q6 2.5 12 2.5 l2 0 q6 0 10.5 -2.5 q4.5 -2.5 8 -7 q3.5 -4.5 4.5 -10 q1 -5.5 1 -12.5 l-37 -206 l267 0 q5 0 11 -2 q6 -2 9.5 -6 q3.5 -4 5.5 -9 q2 -5 1 -10 q-1 -5 -4.5 -10 q-3.5 -5 -9 -9 q-5.5 -4 -11.5 -6.5 q-6 -2.5 -12 -2.5 l-267 0 l-47 -264 l0 -3 l362 0 q6 0 11.5 -2 q5.5 -2 9 -6 q3.5 -4 5.5 -8.5 q2 -4.5 1 -10.5 q-1 -5 -4.5 -10 q-3.5 -5 -9 -9 q-5.5 -4 -11.5 -6.5 q-6 -2.5 -12 -2.5 l-789 0 q-5 0 -10.5 2.5 q-5.5 2.5 -9.5 6.5 q-4 4 -6 9 q-2 5 0 10 Z" /><glyph glyph-name="uni4F11" unicode="&#x4f11;" d="M227 72 q-4 5 -5 11 q-1 6 1.5 13 q2.5 7 6.5 14 q4 7 10 12 q46 34 91 79.5 q45 45.5 88 98.5 q43 53 82 111 q36 54 67 109 l-225 0 q-6 0 -11 2.5 q-5 2.5 -9 6.5 q-4 4 -5.5 9 q-1.5 5 -0.5 11 q1 5 4.5 10 q3.5 5 8.5 9.5 q5 4.5 11.5 7 q6.5 2.5 11.5 2.5 l261 0 l38 214 q1 6 4.5 11.5 q3.5 5.5 8.5 10 q5 4.5 10.5 7.5 q5.5 3 11.5 3 q6 0 10.5 -3 q4.5 -3 8 -7.5 q3.5 -4.5 4.5 -10 q1 -5.5 0 -11.5 l-38 -214 l269 0 q6 0 11.5 -2.5 q5.5 -2.5 9 -7 q3.5 -4.5 5.5 -9.5 q2 -5 1 -10 q-1 -6 -4.5 -11 q-3.5 -5 -8.5 -9 q-5 -4 -11.5 -6.5 q-6.5 -2.5 -12.5 -2.5 l-228 0 q11 -54 30 -106 q19 -58 44 -110.5 q25 -52.5 54 -97.5 q29 -45 60 -79 q8 -11 6 -25 q-2 -14 -11 -23 q-6 -4 -12.5 -6.5 q-6.5 -2.5 -13 -2 q-6.5 0.5 -12 3 q-5.5 2.5 -8.5 7.5 q-31 36 -60 85.5 q-29 49.5 -53.5 106 q-24.5 56.5 -44.5 117.5 q-16 47 -26 94 l-94 -530 q0 -6 -3.5 -11.5 q-3.5 -5.5 -8.5 -10 q-5 -4.5 -10.5 -7 q-5.5 -2.5 -11.5 -2.5 q-6 0 -10.5 2.5 q-4.5 2.5 -8 7 q-3.5 4.5 -5 10 q-1.5 5.5 -0.5 11.5 l90 512 q-24 -41 -50 -82 q-41 -63 -86.5 -119.5 q-45.5 -56.5 -93 -105.5 q-47.5 -49 -93.5 -86 q-6 -5 -12 -7.5 q-6 -2.5 -12 -2.5 q-6 0 -11.5 2 q-5.5 2 -8.5 7 ZM30 398 q-5 9 -0.5 22 q4.5 13 13.5 21 q87 69 167.5 163 q80.5 94 143.5 199 q6 10 19 16 q13 6 22 3 l2 0 q5 -2 8.5 -6 q3.5 -4 5 -10 q1.5 -6 0 -12.5 q-1.5 -6.5 -4.5 -12.5 q-60 -98 -132 -187 l-112 -636 q-1 -6 -4.5 -12 q-3.5 -6 -8 -10.5 q-4.5 -4.5 -10 -7 q-5.5 -2.5 -11.5 -2.5 q-6 0 -10.5 2.5 q-4.5 2.5 -8.5 7 q-4 4.5 -5 10.5 q-1 6 0 12 l97 552 q-60 -65 -124 -119 q-6 -6 -13 -8 q-7 -2 -13.5 -1.5 q-6.5 0.5 -11.5 4 q-5 3.5 -8 9.5 l0 2 l-1 1 Z" /><glyph glyph-name="uni4F17" unicode="&#x4f17;" d="M362 -61 q-10 9 -7 24 q3 15 18 27 q100 75 163 188 q63 113 106 264 q2 7 6.5 12 q4.5 5 10 9 q5.5 4 11 6.5 q5.5 2.5 10.5 2.5 l1 0 q6 0 10 -4 q4 -4 7 -9 q3 -5 3.5 -11 q0.5 -6 -0.5 -11 q-17 -56 -35 -106 l2 -2 q3 -5 5 -12 q6 -41 17 -84.5 q11 -43.5 30 -84.5 q19 -41 46.5 -78 q27.5 -37 65.5 -65 q12 -10 12.5 -25 q0.5 -15 -10.5 -27 q-3 -4 -8.5 -6.5 q-5.5 -2.5 -11.5 -3 q-6 -0.5 -11.5 0.5 q-5.5 1 -9.5 5 q-42 33 -72.5 76 q-30.5 43 -51 90.5 q-20.5 47.5 -32.5 96.5 q-3 16 -7 31 q-23 -52 -50 -97 q-36 -61 -80 -112 q-44 -51 -98 -92 q-4 -4 -9.5 -6 q-5.5 -2 -11.5 -2.5 q-6 -0.5 -11 0.5 q-5 1 -8 5 ZM76 442 q-6 14 0 28.5 q6 14.5 24 21.5 q139 49 255 131.5 q116 82.5 194 191.5 q8 9 21 14 q13 5 22 2 l2 -1 q4 -3 7.5 -7.5 q3.5 -4.5 4.5 -10 q1 -5.5 -0.5 -12 q-1.5 -6.5 -5.5 -11.5 q-8 -11 -16 -21 q4 -4 6 -8 q23 -42 57 -81.5 q34 -39.5 77 -74 q43 -34.5 92 -63 q49 -28.5 102 -46.5 q16 -7 17.5 -16 q1.5 -9 1.5 -11 q0 -12 -10 -24 q-7 -6 -18.5 -10 q-11.5 -4 -20.5 0 q-55 20 -106 51 q-51 31 -96 70 q-45 39 -81 84 q-33 41 -57 85 q-71 -80 -161 -146 q-125 -91 -274 -147 q-5 -2 -10.5 -2 q-5.5 0 -10.5 1.5 q-5 1.5 -9 4.5 q-4 3 -7 7 ZM-12.5 -43.5 q-1.5 6.5 0 13 q1.5 6.5 5.5 14 q4 7.5 11 13.5 q99 76 166 190 q67 114 113 262 q1 6 5.5 11.5 q4.5 5.5 10 9 q5.5 3.5 11 6 q5.5 2.5 11.5 1.5 q6 0 10 -3.5 q4 -3.5 7 -8.5 q3 -5 3.5 -11 q0.5 -6 -0.5 -11 q-23 -71 -49 -134 q6 -1 10 -5 q20 -19 39.5 -38.5 q19.5 -19.5 38 -39 q18.5 -19.5 34.5 -38.5 q16 -19 29 -35 q3 -3 3.5 -8.5 q0.5 -5.5 -1 -11 q-1.5 -5.5 -4 -11 q-2.5 -5.5 -5.5 -8.5 q-6 -5 -12.5 -7 q-6.5 -2 -13.5 -1.5 q-7 0.5 -12.5 3.5 q-5.5 3 -9.5 8 q-11 16 -25.5 34 q-14.5 18 -31 36.5 q-16.5 18.5 -34.5 37.5 q-14 15 -29 29 q-25 -52 -53 -98 q-73 -121 -180 -206 q-4 -4 -9.5 -6 q-5.5 -2 -11.5 -3 q-6 -1 -11.5 0.5 q-5.5 1.5 -8.5 4.5 q-5 4 -6.5 10.5 Z" /><glyph glyph-name="uni4F18" unicode="&#x4f18;" d="M773.5 764.5 q-1.5 6.5 -1 12.5 q0.5 6 4 11.5 q3.5 5.5 7.5 8.5 q7 5 17.5 3.5 q10.5 -1.5 16.5 -9.5 q23 -25 46 -54 q23 -29 39 -52 q6 -9 3.5 -21.5 q-2.5 -12.5 -11.5 -18.5 q-5 -3 -11 -4 q-6 -1 -12 0.5 q-6 1.5 -11 4.5 q-5 3 -8 8 q-13 22 -33.5 48.5 q-20.5 26.5 -40.5 50.5 q-4 5 -5.5 11.5 ZM566 6 q0 16 3 37 l68 381 q0 6 3.5 11.5 q3.5 5.5 8.5 10 q5 4.5 11 7 q6 2.5 11 2.5 q6 0 10.5 -2.5 q4.5 -2.5 8 -7 q3.5 -4.5 4.5 -10 q1 -5.5 0 -11.5 l-67 -381 q-3 -22 2.5 -29 q5.5 -7 29.5 -7 l115 0 q10 0 17.5 4 q7.5 4 14 15 q6.5 11 12 31.5 q5.5 20.5 12.5 52.5 q6 19 17.5 28.5 q11.5 9.5 24.5 3.5 q7 -3 10.5 -12.5 q3.5 -9.5 1.5 -18.5 q-11 -47 -20.5 -77.5 q-9.5 -30.5 -22.5 -49 q-13 -18.5 -30 -25.5 q-17 -7 -42 -7 l-125 0 q-26 0 -43 4 q-17 4 -25.5 14.5 q-8.5 10.5 -9 21 q-0.5 10.5 -0.5 14.5 ZM219 -52 q-8 10 -3 24.5 q5 14.5 19 25.5 q88 64 147 155.5 q59 91.5 98 196.5 q34 92 57 190 l-201 0 q-6 0 -11.5 2.5 q-5.5 2.5 -9 6.5 q-3.5 4 -5.5 9 q-2 5 0 11 q0 5 3.5 10 q3.5 5 9 9 q5.5 4 11.5 6 q6 2 12 2 l204 0 q21 100 39 197 q1 6 4.5 12 q3.5 6 8.5 10.5 q5 4.5 11 7 q6 2.5 12 2.5 q6 0 10 -2.5 q4 -2.5 8 -7 q4 -4.5 5 -10.5 q1 -6 0 -12 q-18 -97 -40 -197 l333 0 q6 0 11.5 -2 q5.5 -2 9.5 -6 q4 -4 5.5 -9 q1.5 -5 1.5 -10 q-2 -6 -5.5 -11 q-3.5 -5 -9 -9 q-5.5 -4 -11.5 -6.5 q-6 -2.5 -11 -2.5 l-336 0 q-27 -114 -68 -219 q-44 -112 -108.5 -208.5 q-64.5 -96.5 -160.5 -164.5 q-5 -4 -10.5 -5.5 q-5.5 -1.5 -11.5 -1.5 q-6 0 -10.5 2 q-4.5 2 -7.5 5 ZM49 407 q-4 8 -1 21 q3 13 12 21 q75 69 145.5 162.5 q70.5 93.5 127.5 195.5 q3 5 8 9 q5 4 10.5 7 q5.5 3 11.5 4 q6 1 10 -1 q6 -1 9.5 -5.5 q3.5 -4.5 5 -10 q1.5 -5.5 1 -12 q-0.5 -6.5 -4.5 -11.5 q-60 -105 -131 -201 l-111 -631 q-1 -6 -4.5 -12 q-3.5 -6 -8.5 -10.5 q-5 -4.5 -10.5 -7 q-5.5 -2.5 -11 -2.5 q-5.5 0 -10 2.5 q-4.5 2.5 -7.5 7.5 q-3 5 -4.5 10.5 q-1.5 5.5 -0.5 11.5 l94 538 q-40 -48 -82 -89 q-7 -6 -14 -9 q-7 -3 -13 -3 q-6 0 -12 3.5 q-6 3.5 -8 9.5 q-1 0 -1 1 l0 1 Z" /><glyph glyph-name="uni4F19" unicode="&#x4f19;" d="M779.5 366.5 q-3.5 4.5 -4.5 10 q-1 5.5 0 11.5 q1 6 4 11 q16 24 33.5 51 q17.5 27 34.5 55.5 q17 28.5 33 56.5 q16 28 29 54 q3 6 8 11.5 q5 5.5 11 9 q6 3.5 12 4 q6 0.5 12 -0.5 l3 -1 q5 -1 8.5 -5.5 q3.5 -4.5 5 -10.5 q1.5 -6 1 -12.5 q-0.5 -6.5 -2.5 -11.5 q-34 -56 -70.5 -115.5 q-36.5 -59.5 -69.5 -106.5 q-2 -5 -8 -9 q-6 -4 -11 -6.5 q-5 -2.5 -10.5 -3 q-5.5 -0.5 -9.5 1.5 q-5 2 -8.5 6.5 ZM327.5 349.5 q-2.5 4.5 -3.5 10.5 q-1 6 0.5 13 q1.5 7 4.5 13 q30 46 55.5 106 q25.5 60 44.5 118 q3 6 7 11.5 q4 5.5 9.5 10 q5.5 4.5 11 6.5 q5.5 2 11.5 0 q5 0 8.5 -3.5 q3.5 -3.5 6 -8 q2.5 -4.5 3 -10 q0.5 -5.5 -0.5 -10.5 q-19 -62 -46.5 -128 q-27.5 -66 -60.5 -118 q-3 -5 -8 -9 q-5 -4 -11 -7 q-6 -3 -11.5 -3 q-5.5 0 -10.5 2 l-1 0 q-6 2 -8.5 6.5 ZM226 -56 q-7 11 -1 24.5 q6 13.5 23 22.5 q111 50 179 124.5 q68 74.5 110.5 174 q42.5 99.5 69 226 q26.5 126.5 53.5 282.5 q2 6 5 12 q3 6 8.5 10.5 q5.5 4.5 11.5 7 q6 2.5 11 2.5 l4 0 q5 0 9.5 -2.5 q4.5 -2.5 8 -7 q3.5 -4.5 5 -10.5 q1.5 -6 0.5 -12 q-30 -164 -60 -299 q-7 -36 -16 -69 l2 -10 q-1 -20 -1 -39 q0 -57 8 -115 q8 -58 30.5 -111.5 q22.5 -53.5 61.5 -93 q39 -39.5 95 -64.5 q14 -8 17 -22.5 q3 -14.5 -9 -27.5 q-3 -4 -8 -6.5 q-5 -2.5 -10.5 -4 q-5.5 -1.5 -11 -1 q-5.5 0.5 -9.5 2.5 q-65 28 -108 72 q-43 44 -68 103.5 q-25 59.5 -35 134.5 q-2 17 -4 35 q-5 -13 -11 -26 q-48 -107 -124 -186.5 q-76 -79.5 -198 -132.5 q-5 -3 -11 -3.5 q-6 -0.5 -11 0 q-5 0.5 -9.5 3.5 q-4.5 3 -6.5 6 ZM47 410 q-4 9 -0.5 21.5 q3.5 12.5 13.5 20.5 q74 69 145 161.5 q71 92.5 127 193.5 q4 5 9 9.5 q5 4.5 10 7 q5 2.5 11 3.5 q6 1 11 -1 l1 0 q6 -2 9 -6 q3 -4 4.5 -9.5 q1.5 -5.5 1 -12 q-0.5 -6.5 -5.5 -12.5 q-55 -97 -120 -186 l-114 -643 q-1 -7 -4.5 -12.5 q-3.5 -5.5 -8.5 -10.5 q-5 -5 -10.5 -7.5 q-5.5 -2.5 -10.5 -2.5 l-3 0 q-5 0 -10 2.5 q-5 2.5 -8.5 7.5 q-3.5 5 -5 10.5 q-1.5 5.5 -0.5 11.5 l96 544 q-43 -51 -88 -95 q-7 -6 -14 -9 q-7 -3 -13.5 -2.5 q-6.5 0.5 -12 4 q-5.5 3.5 -8.5 9.5 l0 2 l-1 1 Z" /><glyph glyph-name="uni4F1A" unicode="&#x4f1a;" d="M270 496 q1 5 4.5 10 q3.5 5 8.5 9 q5 4 11 6.5 q6 2.5 13 2.5 l415 0 q7 0 12.5 -2.5 q5.5 -2.5 9 -6.5 q3.5 -4 5.5 -9 q2 -5 1 -10 q-1 -6 -4.5 -11 q-3.5 -5 -8.5 -8.5 q-5 -3.5 -11.5 -6 q-6.5 -2.5 -12.5 -2.5 l-416 0 q-6 0 -11.5 2.5 q-5.5 2.5 -9.5 6 q-4 3.5 -5.5 8.5 q-1.5 5 -0.5 11 ZM77 454 q-8 11 -1.5 26 q6.5 15 23.5 23 q140 62 259 142 q119 80 199 171 q6 7 18 10 q12 3 20 -1 l1 0 q6 -2 9.5 -7.5 q3.5 -5.5 4 -12 q0.5 -6.5 -2 -13.5 q-2.5 -7 -8.5 -12 l-5 -5 q23 -34 56 -69 q35 -36 78.5 -71 q43.5 -35 93 -66.5 q49.5 -31.5 103.5 -55.5 q15 -6 17 -20.5 q2 -14.5 -10 -26.5 q-7 -8 -19.5 -11 q-12.5 -3 -21.5 1 q-54 25 -106.5 60 q-52.5 35 -97 73.5 q-44.5 38.5 -81.5 77.5 q-31 34 -54 65 q-74 -73 -167 -136 q-124 -85 -270 -150 q-5 -2 -11 -2.5 q-6 -0.5 -11 0.5 q-5 1 -9 4 q-4 3 -7 6 ZM63 -20 q-1 5 1 11.5 q2 6.5 7 13 q5 6.5 11 12 q6 5.5 13 10.5 l8 5 q2 1 6 4.5 q4 3.5 11 9 q7 5.5 21 17.5 q13 10 38.5 33 q25.5 23 57.5 53.5 q32 30.5 67 66.5 q27 28 52 58 l-267 0 q-6 0 -11 2.5 q-5 2.5 -9 6.5 q-4 4 -6 9 q-2 5 0 11 q0 5 3.5 10 q3.5 5 9 9.5 q5.5 4.5 12 7 q6.5 2.5 12.5 2.5 l764 0 q6 0 11 -2.5 q5 -2.5 8.5 -7 q3.5 -4.5 5.5 -9.5 q2 -5 2 -10 q-2 -6 -5 -11 q-3 -5 -8.5 -9 q-5.5 -4 -12 -6.5 q-6.5 -2.5 -12.5 -2.5 l-424 0 q-1 -5 -3 -9 q-2 -6 -7 -11 q-72 -77 -147 -146 q-49 -46 -98 -85 l499 40 q-17 26 -36 51 q-21 28 -41 52 q-4 6 -5.5 13 q-1.5 7 0 13.5 q1.5 6.5 6 12 q4.5 5.5 10.5 8.5 q7 3 16.5 1.5 q9.5 -1.5 14.5 -6.5 q24 -26 46.5 -55 q22.5 -29 43.5 -58.5 q21 -29.5 38.5 -58 q17.5 -28.5 29.5 -53.5 q3 -5 3 -11 q0 -6 -2 -11.5 q-2 -5.5 -6 -11 q-4 -5.5 -10 -7.5 l-1 -1 q-5 -3 -11.5 -3.5 q-6.5 -0.5 -12.5 1.5 q-6 2 -11 5.5 q-5 3.5 -7 8.5 q-12 23 -27 51 q-3 4 -6 9 q-5 -2 -11 -3 q-153 -13 -255.5 -22 q-102.5 -9 -169.5 -15.5 q-67 -6.5 -103 -10 q-36 -3.5 -57 -6.5 q-7 -2 -14.5 -0.5 q-7.5 1.5 -12.5 5.5 q-3 1 -4 3 q-6 2 -10 6 q-4 4 -5 10 Z" /><glyph glyph-name="uni4F1F" unicode="&#x4f1f;" d="M282.5 288 q-3.5 4 -5.5 9 q-2 5 0 11 q0 5 3.5 10 q3.5 5 9 9 q5.5 4 11 6 q5.5 2 11.5 2 l251 0 l23 129 l-195 0 q-6 0 -11 3 q-5 3 -9 6.5 q-4 3.5 -6 8.5 q-2 5 -1 10 q1 6 4.5 11 q3.5 5 9 9 q5.5 4 11.5 6.5 q6 2.5 12 2.5 l195 0 l22 123 l-220 0 q-5 0 -10.5 2.5 q-5.5 2.5 -9.5 6.5 q-4 4 -5.5 9 q-1.5 5 -0.5 10 q0 6 3.5 11 q3.5 5 9 9 q5.5 4 11.5 6 q6 2 12 2 l220 0 l18 104 q1 6 4.5 12 q3.5 6 8.5 10.5 q5 4.5 10.5 7 q5.5 2.5 11 2.5 q5.5 0 10 -2.5 q4.5 -2.5 8 -7 q3.5 -4.5 5 -10.5 q1.5 -6 -0.5 -12 l-18 -104 l241 0 q6 0 11.5 -2 q5.5 -2 9 -6 q3.5 -4 5 -9 q1.5 -5 1.5 -11 q-1 -5 -5 -10 q-4 -5 -8.5 -9 q-4.5 -4 -11 -6.5 q-6.5 -2.5 -12.5 -2.5 l-241 0 l-21 -123 l211 0 q6 0 11.5 -2.5 q5.5 -2.5 9.5 -6.5 q4 -4 5.5 -9 q1.5 -5 1.5 -11 q-2 -5 -5.5 -10 q-3.5 -5 -8 -8.5 q-4.5 -3.5 -11 -6.5 q-6.5 -3 -12.5 -3 l-212 0 l-23 -129 l271 0 q3 -1 5 -2 q5 -2 9 -5 q3 -3 5 -7 q0 -2 1 -3 q2 -5 1 -10 q-1 -5 -4 -9 q-15 -63 -27 -108 q-13 -49 -24 -81 q-11 -32 -21 -50.5 q-10 -18.5 -19 -27.5 q-12 -10 -24 -15 q-12 -5 -30 -6 q-9 -2 -24.5 -1.5 q-15.5 0.5 -33.5 0.5 q-5 0 -9.5 2 q-4.5 2 -8.5 5 q-4 3 -6 6 q-2 3 -3 7 q0 14 7.5 23 q7.5 9 20.5 9 q15 -2 24 -2 l20 0 q9 0 15.5 2 q6.5 2 12.5 7 q7 7 14.5 23 q7.5 16 17.5 46.5 q10 30.5 22 76.5 q8 28 17 64 l-239 0 l-57 -323 q-1 -6 -4.5 -12 q-3.5 -6 -8.5 -10.5 q-5 -4.5 -10.5 -7 q-5.5 -2.5 -11 -2.5 q-5.5 0 -10 2.5 q-4.5 2.5 -8 7 q-3.5 4.5 -5 10.5 q-1.5 6 -0.5 12 l57 323 l-251 0 q-5 0 -10.5 2.5 q-5.5 2.5 -9 6.5 ZM51 405 q-4 9 -0.5 21.5 q3.5 12.5 12.5 20.5 q75 70 145.5 163.5 q70.5 93.5 127.5 194.5 q3 5 7.5 9.5 q4.5 4.5 10.5 7 q6 2.5 11 4 q5 1.5 10 -0.5 q6 -2 9.5 -6 q3.5 -4 5 -9.5 q1.5 -5.5 1 -12 q-0.5 -6.5 -4.5 -12.5 q-57 -102 -126 -196 l-112 -634 q-2 -7 -5 -12.5 q-3 -5.5 -8 -10 q-5 -4.5 -11 -7.5 q-6 -3 -11.5 -3 q-5.5 0 -9.5 3 q-4 3 -7.5 7.5 q-3.5 4.5 -5 10 q-1.5 5.5 -0.5 11.5 l95 541 q-42 -49 -86 -93 q-6 -6 -13 -9 q-7 -3 -13 -2.5 q-6 0.5 -12 3.5 q-6 3 -9 9 l0 2 l-1 0 Z" /><glyph glyph-name="uni4F20" unicode="&#x4f20;" d="M305 480 q-4 4 -6 9 q-2 5 0 10 q0 6 3.5 10.5 q3.5 4.5 8.5 9 q5 4.5 11.5 6.5 q6.5 2 11.5 2 l176 0 q8 15 15 31 q24 51 48 103 l-158 0 q-5 0 -10.5 2.5 q-5.5 2.5 -9 6.5 q-3.5 4 -5.5 9 q-2 5 -1 10 q1 5 4.5 10 q3.5 5 9 9.5 q5.5 4.5 11 6.5 q5.5 2 11.5 2 l173 0 q21 47 39 89 q2 5 6 10 q4 5 9.5 8 q5.5 3 11 5 q5.5 2 10.5 1 q6 -1 10 -5 q4 -4 6.5 -9 q2.5 -5 2.5 -12 q0 -7 -3 -13 q-16 -35 -33 -74 l264 0 q6 0 11 -2 q5 -2 9 -6.5 q4 -4.5 6 -9.5 q2 -5 0 -10 q0 -5 -4 -10 q-4 -5 -9 -9 q-5 -4 -11 -6.5 q-6 -2.5 -11 -2.5 l-280 0 q-29 -63 -57 -125 q-2 -4 -4 -9 l360 0 q5 0 11 -2 q6 -2 9.5 -6.5 q3.5 -4.5 5.5 -9 q2 -4.5 1 -10.5 q-1 -5 -4.5 -10 q-3.5 -5 -8.5 -9 q-5 -4 -11.5 -6.5 q-6.5 -2.5 -12.5 -2.5 l-376 0 q-15 -30 -29 -59 q-19 -39 -35 -73 l309 0 q6 0 11 -2 l1 0 q1 1 3 1 q2 1 5 1 q2 0 3.5 0.5 q1.5 0.5 3.5 0.5 q3 2 8 1 q5 -1 9 -3 l1 -2 q6 -3 8 -9 q2 -6 1.5 -12.5 q-0.5 -6.5 -3.5 -12.5 q-3 -6 -8 -11 q-27 -27 -58 -56.5 q-31 -29.5 -63 -60.5 q-32 -31 -65 -62 q-26 -24 -51 -47 q20 -18 38 -35 q22 -21 38 -40 q4 -4 5.5 -10 q1.5 -6 0.5 -12 q-1 -6 -4.5 -12 q-3.5 -6 -8.5 -10 q-5 -5 -11.5 -6.5 q-6.5 -1.5 -12.5 -2 q-6 -0.5 -11.5 2 q-5.5 2.5 -9.5 6.5 q-15 18 -34.5 38.5 q-19.5 20.5 -42 41.5 q-22.5 21 -46.5 42 q-24 21 -48 39 q-6 4 -8.5 10 q-2.5 6 -2 12.5 q0.5 6.5 4 13 q3.5 6.5 9.5 10.5 q6 4 16 4.5 q10 0.5 16 -2.5 q26 -19 53 -40 q10 -9 21 -17 q30 27 61 56 q34 33 66.5 64 q32.5 31 61.5 60 l6 6 l-282 0 q-6 0 -11 2 q-5 2 -8 5 q-1 0 -2 -1 q-9 -6 -18 -6 l-2 0 q-8 0 -13.5 3 q-5.5 3 -8 8.5 q-2.5 5.5 -2.5 13 q0 7.5 4 15.5 q26 49 55 109 l18 38 l-158 0 q-6 0 -11 2.5 q-5 2.5 -9 6.5 ZM26 405 q-4 9 0 21.5 q4 12.5 13 21.5 q79 69 153.5 162.5 q74.5 93.5 133.5 195.5 q3 5 8 9 q5 4 10.5 6.5 q5.5 2.5 11.5 4 q6 1.5 10 -0.5 q6 -2 9 -6 q3 -4 5 -9.5 q2 -5.5 1 -12.5 q-1 -7 -4 -12 q-58 -98 -127 -188 l-114 -639 q0 -7 -3.5 -12.5 q-3.5 -5.5 -8 -10 q-4.5 -4.5 -10.5 -7.5 q-6 -3 -11.5 -3 q-5.5 0 -10 3 q-4.5 3 -8.5 7.5 q-4 4.5 -4.5 10 q-0.5 5.5 -0.5 11.5 l98 551 q-51 -58 -104 -106 q-6 -7 -13 -9.5 q-7 -2.5 -13.5 -2 q-6.5 0.5 -11.5 3.5 q-5 3 -8 9 q-1 1 -1 2 Z" /><glyph glyph-name="uni4F24" unicode="&#x4f24;" d="M335 491 q-5 4 -6.5 10 q-1.5 6 0 12.5 q1.5 6.5 5 13.5 q3.5 7 9.5 13 q59 52 110.5 121 q51.5 69 93.5 146 q3 5 7.5 9 q4.5 4 10 7.5 q5.5 3.5 11.5 5 q6 1.5 11 0.5 q5 -2 9.5 -6 q4.5 -4 6 -9.5 q1.5 -5.5 1 -12 q-0.5 -6.5 -4.5 -12.5 q-29 -54 -62 -104 l399 0 q6 0 11.5 -2 q5.5 -2 9.5 -6 q4 -4 5.5 -9 q1.5 -5 0.5 -10 q-1 -6 -4.5 -11 q-3.5 -5 -8.5 -9 q-5 -4 -11 -6.5 q-6 -2.5 -13 -2.5 l-415 0 q-6 0 -12 2 q0 1 -1 1 q0 -1 -1 -2 q-57 -75 -118 -132 q-5 -5 -11 -7.5 q-6 -2.5 -12.5 -3.5 q-6.5 -1 -12 0 q-5.5 1 -8.5 4 ZM233 -61 q-8 11 -1.5 25 q6.5 14 21.5 24 q81 43 135.5 104 q54.5 61 91.5 133 q34 67 57 142 l-179 0 q-6 0 -11 2.5 q-5 2.5 -9 6.5 q-4 4 -5.5 8.5 q-1.5 4.5 -0.5 10.5 q1 5 4.5 10 q3.5 5 8.5 9.5 q5 4.5 11.5 6.5 q6.5 2 11.5 2 l185 0 q16 60 30 121 q1 6 4.5 11.5 q3.5 5.5 9 10 q5.5 4.5 11 7 q5.5 2.5 10.5 2.5 q6 0 11.5 -2.5 q5.5 -2.5 8.5 -7 q3 -4.5 4.5 -10.5 q1.5 -6 -0.5 -13 q-14 -60 -30 -119 l254 0 q6 0 11 -2 l2 -2 q4 -2 6 -4 q4 -4 6 -9 q1 -3 1 -6 l0 -5 q-1 -2 -1 -4 q-23 -106 -40 -179 q-17 -74 -31 -122.5 q-14 -48.5 -26.5 -75 q-12.5 -26.5 -25.5 -39.5 q-15 -15 -30.5 -20.5 q-15.5 -5.5 -39.5 -7.5 q-20 -1 -51 -1 q-31 0 -67 3 q-10 -1 -18 6 q-8 7 -9 14 q-2 14 10 23 q12 9 29 9 q2 0 4 0 q15 -1 28 -1.5 q13 -0.5 24 -1 q11 -0.5 20 -0.5 l16 0 q15 0 24 2 q9 2 17 10 q10 9 20.5 34 q10.5 25 24 72 q13.5 47 29.5 119 q13 57 29 132 l-232 0 q-1 -4 -2 -7 q-28 -89 -70 -168 q-42 -79 -103.5 -144.5 q-61.5 -65.5 -150.5 -111.5 q-5 -3 -10.5 -4 q-5.5 -1 -11 -0.5 q-5.5 0.5 -9 2.5 q-3.5 2 -6.5 5 ZM29 408 q-4 8 -0.5 20.5 q3.5 12.5 11.5 20.5 q80 70 154.5 163.5 q74.5 93.5 133.5 195.5 q3 5 8.5 9 q5.5 4 10.5 6.5 q5 2.5 11 4 q6 1.5 11 -0.5 q5 -2 9 -6 q4 -4 5.5 -9.5 q1.5 -5.5 0.5 -12 q-1 -6.5 -4 -12.5 q-59 -101 -131 -193 l-113 -636 q0 -7 -4 -13 q-4 -6 -8 -10 q-4 -4 -10 -7 q-6 -3 -11.5 -3 q-5.5 0 -9.5 3 q-4 3 -8 7.5 q-4 4.5 -5 10 q-1 5.5 0 11.5 l97 549 q-50 -56 -101 -103 q-6 -6 -13 -9 q-7 -3 -13.5 -2.5 q-6.5 0.5 -12 4 q-5.5 3.5 -7.5 10.5 q-1 0 -1 1 l0 1 Z" /><glyph glyph-name="uni4F2A" unicode="&#x4f2a;" d="M605 331 q-3 6 -3 12 q0 6 2 12.5 q2 6.5 6 11.5 q4 5 10 8 q8 4 18 1.5 q10 -2.5 15 -10.5 q23 -30 44.5 -65 q21.5 -35 34.5 -64 q2 -5 1.5 -10.5 q-0.5 -5.5 -3 -10.5 q-2.5 -5 -6 -9.5 q-3.5 -4.5 -7.5 -7.5 q-7 -4 -13.5 -4 q-6.5 0 -12 2 q-5.5 2 -10.5 6 q-5 4 -7 10 q-12 26 -30 58 q-18 32 -39 60 ZM418 721 q-3 6 -3.5 12.5 q-0.5 6.5 2 12.5 q2.5 6 7 11.5 q4.5 5.5 10.5 8.5 q7 3 17.5 0 q10.5 -3 15.5 -10 q16 -23 31.5 -47 q15.5 -24 24.5 -45 q2 -5 1.5 -10.5 q-0.5 -5.5 -3 -11 q-2.5 -5.5 -6.5 -10 q-4 -4.5 -9 -6.5 q-5 -3 -11.5 -3 q-6.5 0 -12 2 q-5.5 2 -10 6.5 q-4.5 4.5 -6.5 9.5 q-9 18 -21.5 39.5 q-12.5 21.5 -26.5 40.5 ZM205 -49 q-9 10 -5 24.5 q4 14.5 19 25.5 q71 47 124.5 108 q53.5 61 95 130 q41.5 69 70.5 143 q27 66 46 133 l-199 0 q-7 0 -12 2.5 q-5 2.5 -9 6.5 q-4 4 -5.5 9 q-1.5 5 -1.5 11 q2 6 5.5 11 q3.5 5 8.5 9.5 q5 4.5 11.5 6.5 q6.5 2 13.5 2 l205 0 q13 50 23 98 q16 69 26 128 q1 6 5 11.5 q4 5.5 8 10 q4 4.5 10 7 q6 2.5 11 2.5 l2 0 q6 0 10.5 -3 q4.5 -3 8.5 -7.5 q4 -4.5 5 -10 q1 -5.5 0 -11.5 q-12 -64 -28 -138 q-10 -43 -22 -87 l276 0 q7 0 12.5 -2 q5.5 -2 9.5 -6.5 q4 -4.5 5 -9.5 q2 -5 1 -10 l0 -1 l-2 -6 q-31 -146 -55 -247 q-24 -101 -43.5 -167 q-19.5 -66 -35.5 -102 q-16 -36 -33 -52 q-17 -18 -34.5 -25 q-17.5 -7 -42.5 -9 q-13 -1 -32 -1 q-9 0 -30.5 0.5 q-21.5 0.5 -58.5 2.5 q-9 0 -17 7 q-8 7 -9 15 q-1 15 11 25 q12 10 31 10 q15 -2 28.5 -2.5 q13.5 -0.5 24.5 -0.5 l39 0 q15 0 24.5 2 q9.5 2 18.5 12 q14 11 29.5 45.5 q15.5 34.5 33.5 99 q18 64.5 42 165.5 q19 84 44 199 l-253 0 q-1 -3 -2 -7 q-23 -77 -56 -155 q-33 -78 -76.5 -150.5 q-43.5 -72.5 -102 -136.5 q-58.5 -64 -133.5 -114 q-5 -4 -11 -5.5 q-6 -1.5 -11.5 -2 q-5.5 -0.5 -10.5 1 q-5 1.5 -7 5.5 ZM36 410 q-4 8 -0.5 21 q3.5 13 12.5 21 q78 69 152 161 q74 92 132 193 q4 5 8.5 9 q4.5 4 10.5 6.5 q6 2.5 12 4 q6 1.5 10 -0.5 q6 -2 9.5 -6 q3.5 -4 5 -9.5 q1.5 -5.5 1 -12.5 q-0.5 -7 -4.5 -12 q-58 -97 -125 -185 l-114 -642 q-1 -6 -4.5 -12 q-3.5 -6 -8 -10.5 q-4.5 -4.5 -10.5 -7 q-6 -2.5 -11.5 -2.5 q-5.5 0 -10 2.5 q-4.5 2.5 -8 7 q-3.5 4.5 -4.5 10.5 q-1 6 -1 11 l98 553 q-49 -56 -101 -104 q-7 -6 -13.5 -9 q-6.5 -3 -13.5 -2.5 q-7 0.5 -12 4 q-5 3.5 -8 9.5 q0 1 -0.5 1 q-0.5 0 -0.5 1 Z" /><glyph glyph-name="uni4F30" unicode="&#x4f30;" d="M367 23 q1 1 2 1 l389 0 l45 252 q0 2 -1.5 4 q-1.5 2 -4.5 2 l-377 0 q-3 0 -5 -2 q-2 -2 -3 -4 l-45 -253 ZM296 -44 l62 351 q2 6 5.5 12 q3.5 6 8.5 10.5 q5 4.5 11 7 q6 2.5 11 2.5 l192 0 l37 216 l-251 0 q-6 0 -11 2 q-5 2 -9 6.5 q-4 4.5 -5.5 9.5 q-1.5 5 -0.5 11 q1 5 4.5 10 q3.5 5 8.5 9 q5 4 11 6.5 q6 2.5 12 2.5 l251 0 l34 193 q2 6 5 11.5 q3 5.5 8 10 q5 4.5 10.5 7.5 q5.5 3 11.5 3 l2 0 q6 0 11 -3 q5 -3 8 -7.5 q3 -4.5 4.5 -10 q1.5 -5.5 -0.5 -11.5 l-34 -193 l261 0 q5 0 10.5 -2.5 q5.5 -2.5 9.5 -6.5 q4 -4 5.5 -9 q1.5 -5 0.5 -10 q-1 -6 -4.5 -11 q-3.5 -5 -9 -9.5 q-5.5 -4.5 -11 -6.5 q-5.5 -2 -11.5 -2 l-261 0 l-37 -216 l197 0 q5 0 10.5 -2.5 q5.5 -2.5 9 -7 q3.5 -4.5 5 -10.5 q1.5 -6 0.5 -13 l-61 -346 q-1 -6 -4.5 -12 q-3.5 -6 -8.5 -10.5 q-5 -4.5 -10.5 -7 q-5.5 -2.5 -11.5 -2.5 l-2 0 q-5 0 -9.5 2.5 q-4.5 2.5 -8 7 q-3.5 4.5 -5 10 q-1.5 5.5 -1.5 11.5 l2 8 l-391 0 l-2 -12 q-1 -6 -4 -11.5 q-3 -5.5 -8.5 -10 q-5.5 -4.5 -11 -7 q-5.5 -2.5 -11.5 -2.5 q-5 0 -10 2.5 q-5 2.5 -8.5 7 q-3.5 4.5 -5 10.5 q-1.5 6 -0.5 12 ZM26 405 q-3 9 1 21.5 q4 12.5 13 21.5 q78 69 153 162.5 q75 93.5 133 195.5 q3 5 8 9 q5 4 11 6.5 q6 2.5 11.5 4 q5.5 1.5 9.5 -0.5 q6 -2 9.5 -6 q3.5 -4 5 -9.5 q1.5 -5.5 1 -12.5 q-0.5 -7 -4.5 -12 q-58 -99 -128 -189 l-113 -638 q0 -7 -4 -13 q-4 -6 -8 -10 q-4 -4 -10 -7 q-6 -3 -11.5 -3 q-5.5 0 -9.5 3 q-4 3 -8 7.5 q-4 4.5 -5 10 q-1 5.5 0 11.5 l97 551 q-51 -58 -103 -106 q-7 -7 -13.5 -9.5 q-6.5 -2.5 -13 -2 q-6.5 0.5 -12 3.5 q-5.5 3 -8.5 9 l0 2 l-1 0 Z" /><glyph glyph-name="uni4F34" unicode="&#x4f34;" d="M772.5 564.5 q-2.5 4.5 -3 10.5 q-0.5 6 1 12.5 q1.5 6.5 4.5 11.5 q28 35 56.5 79 q28.5 44 51.5 82 q4 6 9.5 11 q5.5 5 12 8 q6.5 3 13 3.5 q6.5 0.5 10.5 -1.5 q5 -1 8.5 -6.5 q3.5 -5.5 4 -11 q0.5 -5.5 -0.5 -12 q-1 -6.5 -5 -12.5 q-27 -42 -58.5 -86.5 q-31.5 -44.5 -60.5 -80.5 q-6 -9 -17.5 -13.5 q-11.5 -4.5 -19.5 -0.5 q-4 2 -6.5 6.5 ZM418 733 q-2 6 -1 12.5 q1 6.5 4 12.5 q3 6 7.5 11 q4.5 5 10.5 7 q9 4 18.5 -1 q9.5 -5 12.5 -15 q17 -39 30 -83.5 q13 -44.5 18 -78.5 q2 -9 -5 -19.5 q-7 -10.5 -15 -14.5 q-7 -3 -13.5 -2 q-6.5 1 -12 4 q-5.5 3 -9 8.5 q-3.5 5.5 -4.5 12.5 q-7 32 -17.5 71.5 q-10.5 39.5 -23.5 74.5 ZM255 240 q1 6 4 11 q3 5 8.5 9 q5.5 4 12 6 q6.5 2 12.5 2 l266 0 l33 191 l-224 0 q-5 0 -11 2.5 q-6 2.5 -9.5 6.5 q-3.5 4 -5.5 8.5 q-2 4.5 0 10.5 q0 5 3.5 10 q3.5 5 9 9.5 q5.5 4.5 11.5 6.5 q6 2 12 2 l224 0 l50 280 q0 5 3.5 10.5 q3.5 5.5 8.5 10 q5 4.5 11 7 q6 2.5 11 2.5 l1 0 q6 0 10.5 -2.5 q4.5 -2.5 8 -7 q3.5 -4.5 4.5 -10 q1 -5.5 1 -10.5 l-50 -280 l236 0 q12 0 20.5 -8.5 q8.5 -8.5 6.5 -19.5 q-1 -6 -4.5 -10.5 q-3.5 -4.5 -9 -8.5 q-5.5 -4 -11.5 -6.5 q-6 -2.5 -12 -2.5 l-236 0 l-33 -191 l277 0 q6 0 11.5 -2 q5.5 -2 9 -6 q3.5 -4 5.5 -9 q2 -5 1 -11 q-1 -5 -4.5 -10 q-3.5 -5 -8.5 -9 q-5 -4 -11.5 -6.5 q-6.5 -2.5 -12.5 -2.5 l-277 0 l-46 -258 q-1 -5 -4 -10.5 q-3 -5.5 -8 -10 q-5 -4.5 -10.5 -7 q-5.5 -2.5 -11.5 -2.5 l-1 0 q-5 0 -10 2.5 q-5 2.5 -8.5 7 q-3.5 4.5 -5 10 q-1.5 5.5 -0.5 10.5 l46 258 l-267 0 q-5 0 -10.5 2.5 q-5.5 2.5 -9 6.5 q-3.5 4 -6 9 q-2.5 5 -0.5 10 ZM30 407 l0 1 q-4 9 0 22 q4 13 13 21 q80 69 156 161.5 q76 92.5 136 193.5 q4 6 9 10 q5 4 10.5 6.5 q5.5 2.5 11 3.5 q5.5 1 10.5 -1 q5 -1 8.5 -5.5 q3.5 -4.5 5 -10 q1.5 -5.5 1 -12 q-0.5 -6.5 -4.5 -12.5 q-57 -93 -124 -179 l-115 -648 q0 -6 -4 -12 q-4 -6 -8.5 -10.5 q-4.5 -4.5 -10 -7 q-5.5 -2.5 -11 -2.5 q-5.5 0 -10 2.5 q-4.5 2.5 -8 7 q-3.5 4.5 -5 10.5 q-1.5 6 -0.5 12 l99 560 q-55 -62 -113 -114 q-6 -6 -12.5 -8.5 q-6.5 -2.5 -13 -2 q-6.5 0.5 -12 4 q-5.5 3.5 -8.5 9.5 Z" /><glyph glyph-name="uni4F38" unicode="&#x4f38;" d="M658 469 l217 0 q3 0 5 -1 l26 149 q1 2 -1 4 q-2 2 -4 2 l-216 0 l-27 -154 ZM621 257 l222 0 l28 158 l-222 0 l-28 -158 ZM384 467 q7 2 12 2 l204 0 l27 154 l-209 0 q-2 0 -4 -2 q-2 -2 -3 -4 l-27 -150 ZM347 254 q1 0 2 1 q7 2 12 2 l202 0 l28 158 l-205 0 q-5 0 -10 2 l-29 -163 ZM278 181 l82 465 q1 6 5 12 q4 6 9 10.5 q5 4.5 11.5 7 q6.5 2.5 12.5 2.5 l239 0 l22 123 q1 5 4 10.5 q3 5.5 8.5 10 q5.5 4.5 11 7.5 q5.5 3 11 3 q5.5 0 10.5 -3 q5 -3 8 -7.5 q3 -4.5 4.5 -10 q1.5 -5.5 -0.5 -10.5 l-21 -123 l247 0 q7 0 12.5 -2.5 q5.5 -2.5 9 -7 q3.5 -4.5 5.5 -10.5 q2 -6 0 -11 l-81 -460 q0 -6 -3.5 -11.5 q-3.5 -5.5 -8 -10 q-4.5 -4.5 -10.5 -7.5 q-6 -3 -11.5 -3 q-5.5 0 -10 3 q-4.5 3 -8.5 7.5 q-4 4.5 -5 10.5 q-1 6 -1 12 l3 14 l-222 0 l-43 -247 q-1 -6 -4.5 -11.5 q-3.5 -5.5 -8 -10 q-4.5 -4.5 -10 -7 q-5.5 -2.5 -11.5 -2.5 q-6 0 -10.5 2.5 q-4.5 2.5 -8.5 7 q-4 4.5 -5 10 q-1 5.5 0 11.5 l43 247 l-201 0 q-6 0 -12 2 q-1 0 -2 1 l-4 -25 q-1 -6 -4 -11.5 q-3 -5.5 -7.5 -10 q-4.5 -4.5 -10.5 -7 q-6 -2.5 -11.5 -2.5 q-5.5 0 -9.5 2.5 q-4 2.5 -7.5 7 q-3.5 4.5 -5 10.5 q-1.5 6 -0.5 12 ZM25 405 q-4 9 0 21.5 q4 12.5 13 21.5 q79 69 153.5 162.5 q74.5 93.5 133.5 195.5 q3 5 8 9 q5 4 10.5 6.5 q5.5 2.5 11.5 4 q6 1.5 10 -0.5 q6 -2 9 -6 q3 -4 5 -9.5 q2 -5.5 1 -12.5 q-1 -7 -4 -12 q-57 -97 -126 -187 l-114 -640 q0 -7 -4 -13 q-4 -6 -8 -10 q-4 -4 -10 -7 q-6 -3 -11.5 -3 q-5.5 0 -9.5 3 q-4 3 -8 7.5 q-4 4.5 -5 10 q-1 5.5 0 11.5 l97 553 q-51 -59 -105 -108 q-6 -7 -13 -9.5 q-7 -2.5 -13.5 -2 q-6.5 0.5 -11.5 3.5 q-5 3 -8 9 q-1 1 -1 2 Z" /><glyph glyph-name="uni4F3C" unicode="&#x4f3c;" d="M547 694 q-1 6 0 12.5 q1 6.5 3.5 12.5 q2.5 6 7 10.5 q4.5 4.5 10.5 6.5 q4 1 9 0.5 q5 -0.5 9.5 -3 q4.5 -2.5 8 -6 q3.5 -3.5 5.5 -9.5 q11 -31 22 -64.5 q11 -33.5 20 -67 q9 -33.5 15.5 -65.5 q6.5 -32 10.5 -59 q1 -10 -6 -21 q-7 -11 -16 -14 q-7 -3 -13 -2.5 q-6 0.5 -10.5 4.5 q-4.5 4 -8.5 9.5 q-4 5.5 -4 11.5 q-3 26 -9.5 56 q-6.5 30 -14 62 q-7.5 32 -17.5 64 q-10 32 -22 62 ZM463 -49 q-8 9 -4 24 q4 15 17 26 q82 58 140.5 135 q58.5 77 102.5 174 q44 97 77 214 q33 117 63 255 q0 6 4 11.5 q4 5.5 9 9.5 q5 4 11 7 q6 3 12 3 q6 0 10.5 -3.5 q4.5 -3.5 8 -8 q3.5 -4.5 4.5 -10 q1 -5.5 0 -11.5 q-33 -147 -68 -270 q-30 -101 -66 -188 q7 -5 10 -13 q14 -37 26 -77 q12 -40 23.5 -79 q11.5 -39 20 -75 q8.5 -36 13.5 -66 q2 -8 -4.5 -19.5 q-6.5 -11.5 -15.5 -15.5 l-1 0 q-6 -3 -12.5 -3 q-6.5 0 -12.5 3 q-6 3 -10.5 8 q-4.5 5 -4.5 12 q-6 30 -14 65 q-8 35 -18 73 q-10 38 -21 76 l-12 40 q-41 -82 -93 -149 q-63 -82 -149 -147 q-5 -4 -11.5 -6.5 q-6.5 -2.5 -13 -2.5 q-6.5 0 -12 2 q-5.5 2 -9.5 6 ZM279 57 q-2 4 -1.5 10.5 q0.5 6.5 2.5 13 q2 6.5 5 13 q3 6.5 7 12.5 q3 5 6 7.5 q3 2.5 5.5 8 q2.5 5.5 5.5 14.5 q3 9 5 25 l102 576 q1 5 4 11 q3 6 8.5 10.5 q5.5 4.5 11 7 q5.5 2.5 11 2.5 q5.5 0 10 -2.5 q4.5 -2.5 8 -7 q3.5 -4.5 5 -10.5 q1.5 -6 -0.5 -11 l-104 -590 l178 109 q8 4 15.5 5.5 q7.5 1.5 13 0 q5.5 -1.5 9.5 -6 q4 -4.5 5 -11.5 q1 -7 -5 -17 q-6 -10 -14 -15 q-53 -33 -91.5 -57.5 q-38.5 -24.5 -66 -42.5 q-27.5 -18 -46 -30 q-18.5 -12 -29.5 -20 q-9 -6 -18 -8 q-2 -1 -5 -1 q-1 -1 -2 -1 q-7 -4 -13.5 -4.5 q-6.5 -0.5 -12 2 q-5.5 2.5 -8.5 7.5 ZM22 396 q-3 7 0 19 q3 12 11 19 q71 72 138.5 167.5 q67.5 95.5 121.5 199.5 q3 6 8 10.5 q5 4.5 10 7.5 q5 3 11 4.5 q6 1.5 10 -0.5 q6 -1 9.5 -5 q3.5 -4 5.5 -9.5 q2 -5.5 1 -12 q-1 -6.5 -4 -11.5 q-45 -87 -98 -168 l-117 -662 q-2 -6 -5 -11.5 q-3 -5.5 -7.5 -10.5 q-4.5 -5 -10.5 -7.5 q-6 -2.5 -11.5 -2.5 q-5.5 0 -9.5 2.5 q-4 2.5 -8 7.5 q-4 5 -5 10.5 q-1 5.5 0 12.5 l98 554 q-49 -64 -100 -117 q-6 -7 -13 -10.5 q-7 -3.5 -13.5 -3.5 q-6.5 0 -12 3.5 q-5.5 3.5 -7.5 9.5 q-1 1 -1 2 q0 1 -1 2 Z" /><glyph glyph-name="uni4F46" unicode="&#x4f46;" d="M463 498 q-1 -2 1 -4 q2 -2 4 -2 l345 0 q3 0 5 2 q2 2 3 4 l35 203 q1 2 -1 4 q-2 2 -4 2 l-345 0 q-3 0 -5 -2 q-2 -2 -3 -4 l-35 -203 ZM414 224 q0 -2 1.5 -4 q1.5 -2 3.5 -2 l345 0 q3 0 5.5 2 q2.5 2 2.5 4 l37 206 q0 2 -1.5 4 q-1.5 2 -4.5 2 l-345 0 q-2 0 -4.5 -2 q-2.5 -2 -2.5 -4 l-37 -206 ZM348 194 l95 537 q1 6 4.5 12 q3.5 6 9 10.5 q5.5 4.5 12 7 q6.5 2.5 12.5 2.5 l417 0 q6 0 11 -2.5 q5 -2.5 9 -7 q4 -4.5 5.5 -10.5 q1.5 -6 0.5 -12 l-95 -537 q-1 -6 -4.5 -11.5 q-3.5 -5.5 -8.5 -10.5 q-5 -5 -11.5 -7.5 q-6.5 -2.5 -12.5 -2.5 l-418 0 q-5 0 -10.5 2.5 q-5.5 2.5 -9 7.5 q-3.5 5 -5.5 10.5 q-2 5.5 -1 11.5 ZM224 -5 q0 5 3.5 10 q3.5 5 9 9 q5.5 4 11.5 6 q6 2 12 2 l597 0 q6 0 11.5 -2 q5.5 -2 9 -6 q3.5 -4 5.5 -9 q2 -5 1 -10 q-1 -6 -4.5 -11 q-3.5 -5 -9 -9 q-5.5 -4 -11.5 -6.5 q-6 -2.5 -11 -2.5 l-598 0 q-6 0 -11.5 2.5 q-5.5 2.5 -9 6.5 q-3.5 4 -5.5 9 q-2 5 0 11 ZM37 405 q-5 9 -0.5 22 q4.5 13 13.5 21 q79 70 154 163 q75 93 135 195 q3 5 7.5 9 q4.5 4 10.5 6.5 q6 2.5 11.5 3.5 q5.5 1 10.5 0 l1 0 q5 -2 8.5 -6.5 q3.5 -4.5 5 -10 q1.5 -5.5 1 -12 q-0.5 -6.5 -4.5 -12.5 q-57 -97 -126 -186 l-114 -640 q0 -7 -3.5 -12.5 q-3.5 -5.5 -8.5 -10 q-5 -4.5 -11 -7.5 q-6 -3 -12 -3 q-5 0 -9.5 3 q-4.5 3 -8 7.5 q-3.5 4.5 -5 10 q-1.5 5.5 -0.5 11.5 l97 550 q-51 -58 -104 -107 q-7 -6 -14 -9 q-7 -3 -13 -2.5 q-6 0.5 -11.5 4 q-5.5 3.5 -8.5 9.5 l0 2 l-1 1 Z" /><glyph glyph-name="uni4F4D" unicode="&#x4f4d;" d="M647 794 q-1 6 0.5 12.5 q1.5 6.5 5 12 q3.5 5.5 8.5 10 q5 4.5 12 5.5 q10 3 20 -3.5 q10 -6.5 12 -16.5 q5 -26 9 -52.5 q4 -26.5 6 -48.5 q0 -6 -2 -12 q-2 -6 -5 -10.5 q-3 -4.5 -7.5 -8.5 q-4.5 -4 -9.5 -6 q-7 -2 -13 -0.5 q-6 1.5 -11.5 5 q-5.5 3.5 -8.5 8.5 q-3 5 -3 11 q-2 21 -5.5 45.5 q-3.5 24.5 -7.5 48.5 ZM447 113 q2 37 3.5 81.5 q1.5 44.5 2.5 81 q1 36.5 1 60.5 q0 24 -1 61 q-1 37 -3 83 q-1 5 1.5 11 q2.5 6 6.5 11 q4 5 8.5 9 q4.5 4 10.5 5 q6 1 10.5 -0.5 q4.5 -1.5 8.5 -5.5 q4 -4 7 -9 q3 -5 4 -11 q2 -47 3 -97.5 q1 -50.5 1.5 -83 q0.5 -32.5 0.5 -48.5 q0 -32 -1.5 -69 q-1.5 -37 -3.5 -73 q0 -10 -8 -20 q-8 -10 -17 -13 l-1 0 q-7 -2 -13.5 -0.5 q-6.5 1.5 -11 5 q-4.5 3.5 -7.5 9.5 q-3 6 -2 13 ZM400 622 q1 5 5 10 q4 5 9 9 q5 4 11 6.5 q6 2.5 13 2.5 l475 0 q6 0 12 -2.5 q6 -2.5 9.5 -6.5 q3.5 -4 5 -9 q1.5 -5 0.5 -10 q-1 -6 -4.5 -11 q-3.5 -5 -8.5 -9.5 q-5 -4.5 -11 -6.5 q-6 -2 -13 -2 l-475 0 q-6 0 -12 2 q-6 2 -9.5 6.5 q-3.5 4.5 -5 9.5 q-1.5 5 -1.5 11 ZM245 -5 q1 5 4.5 10 q3.5 5 8.5 9 q5 4 11 6.5 q6 2.5 11 2.5 l330 0 q-1 4 -1 9 q1 7 3 12 q21 47 44.5 104.5 q23.5 57.5 46 117.5 q22.5 60 43.5 119.5 q21 59.5 38 111.5 q2 7 6.5 12.5 q4.5 5.5 10 9 q5.5 3.5 12 5.5 q6.5 2 11.5 1 l2 0 q5 -1 9 -4.5 q4 -3.5 7 -8.5 q3 -5 3 -11 q0 -6 -2 -12 q-19 -55 -41.5 -115.5 q-22.5 -60.5 -46.5 -121 q-24 -60.5 -48 -118 q-24 -57.5 -45 -104.5 q-2 -4 -4 -7 l189 0 q6 0 11 -2.5 q5 -2.5 8.5 -6.5 q3.5 -4 5.5 -9 q2 -5 1 -10 q-1 -6 -4.5 -11 q-3.5 -5 -8.5 -9.5 q-5 -4.5 -11 -6.5 q-6 -2 -12 -2 l-567 0 q-5 0 -10 2 q-5 2 -9 6.5 q-4 4.5 -5.5 9.5 q-1.5 5 -0.5 11 ZM47 405 q-4 9 0 21.5 q4 12.5 13 21.5 q79 69 153.5 162.5 q74.5 93.5 133.5 195.5 q3 5 8 9 q5 4 11 6.5 q6 2.5 11 4 q5 1.5 10 -0.5 q6 -2 9.5 -6 q3.5 -4 4.5 -9.5 q1 -5.5 1 -12.5 q0 -7 -4 -12 q-58 -97 -126 -186 l-113 -641 q-1 -7 -4.5 -12.5 q-3.5 -5.5 -8 -10 q-4.5 -4.5 -10.5 -7.5 q-6 -3 -11 -3 l-2 0 q-5 0 -9.5 3 q-4.5 3 -8.5 7.5 q-4 4.5 -5 10 q-1 5.5 0 11.5 l97 550 q-50 -57 -102 -105 q-7 -7 -13.5 -9.5 q-6.5 -2.5 -13 -2 q-6.5 0.5 -12 3.5 q-5.5 3 -8.5 9 l0 2 l-1 0 Z" /><glyph glyph-name="uni4F4E" unicode="&#x4f4e;" d="M534 96 q-1 6 -1 12.5 q0 6.5 3 12 q3 5.5 7 10 q4 4.5 10 5.5 q6 3 15 -2.5 q9 -5.5 11 -14.5 q14 -32 27 -67.5 q13 -35.5 21 -65.5 q2 -10 -4 -21.5 q-6 -11.5 -15 -14.5 q-5 -2 -10.5 -1 q-5.5 1 -10 4 q-4.5 3 -7.5 8 q-3 5 -4 11 q-6 28 -17.5 60.5 q-11.5 32.5 -24.5 63.5 ZM434 445 l1 0 q6 3 11 3 l225 0 q10 128 29 270 q1 2 2 5 q-2 -1 -3 -1 q-57 -11 -116 -21 q-54 -10 -107 -18 l-42 -238 ZM262 -52 q-2 4 0 10.5 q2 6.5 5 13 q3 6.5 7.5 13 q4.5 6.5 7.5 11.5 q3 2 6.5 2.5 q3.5 0.5 5.5 3 q2 2.5 5 8.5 q3 6 5 20 l116 658 q2 7 6 13 q4 6 9 11 q2 0 3 1 q2 4 6 7 q11 11 29 14 q57 9 115.5 20 q58.5 11 114.5 22.5 q56 11.5 105 24.5 q49 13 89 26 q5 3 14 1 q9 -2 13 -6 l3 -4 q6 -6 7 -13 q1 -7 -1 -13.5 q-2 -6.5 -8 -11.5 q-6 -5 -14 -8 q-48 -14 -101 -26 l-54 -12 q0 -2 1 -4 q2 -5 0 -11 q-20 -144 -30 -271 l190 0 q6 0 11 -2.5 q5 -2.5 9 -6.5 q4 -4 5.5 -8.5 q1.5 -4.5 1.5 -10.5 q-2 -5 -5.5 -10 q-3.5 -5 -8.5 -9.5 q-5 -4.5 -11 -6.5 q-6 -2 -12 -2 l-184 0 q-4 -71 -4 -131 q0 -24 1 -46 q4 -97 22 -154 q18 -57 53 -59 l1 0 l19 27 q19 27 34 78 q7 3 12 9 q5 6 10 10.5 q5 4.5 10 6.5 q5 2 11 -1 q5 -3 6.5 -12.5 q1.5 -9.5 -1.5 -17.5 q-16 -49 -30 -81.5 q-14 -32.5 -28 -52.5 q-14 -20 -27.5 -28 q-13.5 -8 -28.5 -8 q-55 2 -83 64 q-28 62 -35 169 q-3 43 -3 92 q0 63 5 135 l-230 0 q-6 0 -11 2 l-1 1 l-69 -390 l121 31 q7 2 14 1 q7 -1 12 -4 q5 -3 8 -7.5 q3 -4.5 2 -9.5 q-1 -8 -10.5 -16.5 q-9.5 -8.5 -20.5 -11.5 q-73 -21 -110.5 -32 q-37.5 -11 -56.5 -17 q-9 -3 -17 -3 q-7 0 -12 1 l-8 0 q-13 1 -16 11 ZM27 399 q-3 8 0.5 20.5 q3.5 12.5 11.5 20.5 q79 71 153.5 166 q74.5 95 132.5 198 q4 6 9 10 q5 4 10.5 7 q5.5 3 11.5 4.5 q6 1.5 10 -0.5 q5 -2 8.5 -6 q3.5 -4 5.5 -9.5 q2 -5.5 1.5 -12 q-0.5 -6.5 -4.5 -11.5 q-56 -97 -122 -186 l-114 -642 q0 -7 -4 -12.5 q-4 -5.5 -8 -10 q-4 -4.5 -10 -7.5 q-6 -3 -11.5 -3 q-5.5 0 -10 3 q-4.5 3 -8.5 7.5 q-4 4.5 -4.5 10 q-0.5 5.5 -0.5 11.5 l98 551 q-53 -61 -107 -113 q-7 -6 -14 -9 q-7 -3 -13 -3 q-6 0 -11.5 3.5 q-5.5 3.5 -8.5 9.5 q0 1 -0.5 1.5 q-0.5 0.5 -0.5 1.5 Z" /><glyph glyph-name="uni4F4F" unicode="&#x4f4f;" d="M627 788 q-3 6 -2.5 13 q0.5 7 3.5 13 q3 6 8 11 q5 5 11 7 q5 2 10 1.5 q5 -0.5 9.5 -2 q4.5 -1.5 8 -5 q3.5 -3.5 5.5 -6.5 q15 -29 27 -60.5 q12 -31.5 19 -56.5 q0 -5 -0.5 -11 q-0.5 -6 -3.5 -11 q-3 -5 -7.5 -9.5 q-4.5 -4.5 -9.5 -6.5 l-1 0 q-6 -2 -12.5 -2 q-6.5 0 -12 3 q-5.5 3 -9.5 8 q-4 5 -6 12 q-6 22 -16 49 q-10 27 -21 53 ZM228 -12 q0 5 3.5 10 q3.5 5 9 9 q5.5 4 12 6.5 q6.5 2.5 11.5 2.5 l268 0 l48 272 l-206 0 q-7 0 -12 2.5 q-5 2.5 -8.5 6.5 q-3.5 4 -5.5 9 q-2 5 -1 11 q1 5 4.5 10 q3.5 5 8.5 9 q5 4 11.5 6 q6.5 2 12.5 2 l206 0 l42 238 l-241 0 q-6 0 -11 2 q-5 2 -9 6.5 q-4 4.5 -5.5 9.5 q-1.5 5 -1.5 10 q2 6 5 11 q3 5 8.5 9 q5.5 4 12 6 q6.5 2 12.5 2 l542 0 q7 0 12 -2 q5 -2 9 -6 q4 -4 6 -9 q2 -5 0 -11 q0 -5 -3.5 -10 q-3.5 -5 -9 -9.5 q-5.5 -4.5 -12 -6.5 q-6.5 -2 -12.5 -2 l-243 0 l-42 -238 l214 0 q6 0 11.5 -2 q5.5 -2 9 -6 q3.5 -4 5.5 -9 q2 -5 1 -10 q-1 -6 -4.5 -11 q-3.5 -5 -9 -9 q-5.5 -4 -12 -6.5 q-6.5 -2.5 -12.5 -2.5 l-213 0 l-48 -272 l259 0 q5 0 11 -2.5 q6 -2.5 9.5 -6.5 q3.5 -4 5 -9 q1.5 -5 1.5 -10 q-2 -6 -5.5 -11 q-3.5 -5 -8.5 -9.5 q-5 -4.5 -11 -6.5 q-6 -2 -12 -2 l-586 0 q-5 0 -10.5 2 q-5.5 2 -9.5 6.5 q-4 4.5 -6 9.5 q-2 5 0 11 ZM48 405 q-4 9 0 21.5 q4 12.5 13 21.5 q79 70 153.5 163 q74.5 93 133.5 195 q3 5 7.5 9 q4.5 4 11 6.5 q6.5 2.5 12 4 q5.5 1.5 10.5 -0.5 q6 -2 9.5 -6.5 q3.5 -4.5 4.5 -10 q1 -5.5 0.5 -12 q-0.5 -6.5 -4.5 -12.5 q-57 -97 -125 -186 l-114 -640 q0 -7 -3.5 -12.5 q-3.5 -5.5 -8.5 -10 q-5 -4.5 -11 -7.5 q-6 -3 -11 -3 l-2 0 q-5 0 -9.5 3 q-4.5 3 -8 7.5 q-3.5 4.5 -5 10 q-1.5 5.5 -0.5 11.5 l97 548 q-50 -57 -102 -105 q-7 -6 -13.5 -8.5 q-6.5 -2.5 -13 -2.5 q-6.5 0 -12 3.5 q-5.5 3.5 -8.5 9.5 l0 2 l-1 1 Z" /><glyph glyph-name="uni4F53" unicode="&#x4f53;" d="M222 113 q-3 4 -3.5 10.5 q-0.5 6.5 1 13 q1.5 6.5 6.5 12.5 q5 6 11 12 q44 34 89 80 q45 46 88 99.5 q43 53.5 81 112.5 q39 57 71 116 l-221 0 q-6 0 -11 2.5 q-5 2.5 -9 7 q-4 4.5 -5.5 9 q-1.5 4.5 -1.5 10.5 q2 5 5 10 q3 5 8.5 9.5 q5.5 4.5 12 7 q6.5 2.5 12.5 2.5 l260 0 l31 176 q1 6 4.5 11.5 q3.5 5.5 8.5 10 q5 4.5 10.5 7 q5.5 2.5 11.5 2.5 q6 0 10.5 -2.5 q4.5 -2.5 7.5 -7 q3 -4.5 4.5 -10 q1.5 -5.5 0.5 -11.5 l-31 -176 l276 0 q6 0 11.5 -2.5 q5.5 -2.5 9 -7 q3.5 -4.5 5.5 -9.5 q2 -5 1 -10 q-1 -6 -4.5 -10.5 q-3.5 -4.5 -9 -9 q-5.5 -4.5 -12 -7 q-6.5 -2.5 -12.5 -2.5 l-231 0 q10 -59 27.5 -117 q17.5 -58 40.5 -110.5 q23 -52.5 51.5 -97.5 q28.5 -45 61.5 -78 q4 -6 6 -12.5 q2 -6.5 1 -13 q-1 -6.5 -4 -13 q-3 -6.5 -9 -11.5 q-5 -5 -11.5 -7 q-6.5 -2 -12.5 -1.5 q-6 0.5 -11.5 3 q-5.5 2.5 -7.5 8.5 q-32 36 -61 85 q-29 49 -52.5 105.5 q-23.5 56.5 -40.5 118.5 q-17 58 -27 117 l-66 -374 l140 0 q6 0 11 -2.5 q5 -2.5 9 -6.5 q4 -4 6 -9 q2 -5 1 -10 q-1 -5 -4.5 -10 q-3.5 -5 -9 -8.5 q-5.5 -3.5 -11.5 -6 q-6 -2.5 -12 -2.5 l-140 0 l-27 -157 q-1 -5 -4 -10.5 q-3 -5.5 -8 -10 q-5 -4.5 -10.5 -7 q-5.5 -2.5 -11.5 -2.5 q-5 0 -10 2.5 q-5 2.5 -8.5 7 q-3.5 4.5 -4.5 10 q-1 5.5 -1 10.5 l28 157 l-145 0 q-6 0 -11 2.5 q-5 2.5 -9 6 q-4 3.5 -5.5 8.5 q-1.5 5 -1.5 10 q2 5 5.5 10 q3.5 5 8.5 9 q5 4 11.5 6.5 q6.5 2.5 11.5 2.5 l144 0 l66 369 q-30 -55 -64 -109 q-41 -63 -85 -120 q-44 -57 -91 -106.5 q-47 -49.5 -92 -87.5 q-6 -6 -12.5 -8.5 q-6.5 -2.5 -13 -3 q-6.5 -0.5 -12 1.5 q-5.5 2 -9.5 6 ZM43 406 q-4 8 -1 20.5 q3 12.5 12 21.5 q71 69 138.5 162.5 q67.5 93.5 120.5 194.5 q3 5 7.5 9 q4.5 4 10.5 7.5 q6 3.5 11.5 4.5 q5.5 1 10.5 0 q5 -2 8.5 -6 q3.5 -4 5.5 -9.5 q2 -5.5 1 -12.5 q-1 -7 -4 -12 q-52 -96 -114 -186 l-114 -642 q-1 -7 -4.5 -13 q-3.5 -6 -7.5 -10 q-4 -4 -10 -7 q-6 -3 -11.5 -3 q-5.5 0 -9.5 3 q-4 3 -8 7.5 q-4 4.5 -5 10 q-1 5.5 -1 11.5 l96 543 q-41 -52 -84 -97 q-6 -6 -13 -9.5 q-7 -3.5 -13 -3 q-6 0.5 -12 3.5 q-6 3 -9 9 l0 2 l-1 1 Z" /><glyph glyph-name="uni4F55" unicode="&#x4f55;" d="M390 240 l188 0 q2 0 4.5 2 q2.5 2 2.5 4 l39 220 q1 2 -1 4 q-2 2 -4 2 l-188 0 l-41 -232 ZM380 707 q1 6 4.5 11 q3.5 5 9 9 q5.5 4 11.5 6 q6 2 11 2 l563 0 q5 0 10.5 -2 q5.5 -2 9 -6 q3.5 -4 5.5 -9 q2 -5 1 -11 q-1 -5 -4.5 -10 q-3.5 -5 -9 -9.5 q-5.5 -4.5 -11.5 -6.5 q-6 -2 -11 -2 l-48 0 l-117 -666 q-6 -36 -19.5 -52.5 q-13.5 -16.5 -41.5 -24.5 q-24 -7 -67 -8.5 q-43 -1.5 -109 -2.5 q-9 0 -17.5 7 q-8.5 7 -9.5 16 q-1 7 1.5 14 q2.5 7 7.5 12.5 q5 5.5 12.5 8.5 q7.5 3 16.5 3 q38 -2 68 -2 q8 0 29 0.5 q21 0.5 38 2.5 q16 0 23 5.5 q7 5.5 9 20.5 l118 666 l-457 0 q-6 0 -10.5 2 q-4.5 2 -8.5 6.5 q-4 4.5 -6 9.5 q-2 5 -1 10 ZM321.5 124.5 q-3.5 4.5 -4.5 10.5 q-1 6 0 12 l61 346 q1 7 4.5 13 q3.5 6 8.5 10.5 q5 4.5 10.5 7 q5.5 2.5 11 2.5 q5.5 0 9.5 -3 q2 -1 3 -2 q2 2 5 3 q6 2 12 2 l218 0 q6 0 11 -2.5 q5 -2.5 8.5 -7 q3.5 -4.5 5.5 -10.5 q2 -6 0 -12 l-48 -276 q-1 -6 -5 -11.5 q-4 -5.5 -9 -10.5 q-5 -5 -11 -7.5 q-6 -2.5 -12 -2.5 l-220 0 l-7 -39 q-1 -6 -4 -12 q-3 -6 -8 -10.5 q-5 -4.5 -10 -7 q-5 -2.5 -10.5 -2.5 q-5.5 0 -10.5 2.5 q-5 2.5 -8.5 7 ZM49 411 q-4 9 0 21.5 q4 12.5 13 21.5 q72 69 140.5 161.5 q68.5 92.5 122.5 191.5 q3 5 8 9.5 q5 4.5 10.5 7.5 q5.5 3 11 3.5 q5.5 0.5 10.5 -0.5 q5 -1 9 -5.5 q4 -4.5 5 -10.5 q1 -6 0.5 -12.5 q-0.5 -6.5 -4.5 -11.5 q-51 -92 -111 -177 l-115 -653 q-1 -7 -4.5 -12.5 q-3.5 -5.5 -8.5 -10 q-5 -4.5 -10.5 -7.5 q-5.5 -3 -11 -3 q-5.5 0 -10.5 3 q-5 3 -8.5 7.5 q-3.5 4.5 -5 10 q-1.5 5.5 -0.5 11.5 l97 552 q-44 -53 -89 -100 q-7 -6 -14 -9 q-7 -3 -13.5 -2.5 q-6.5 0.5 -12 3.5 q-5.5 3 -8.5 9 l0 2 l-1 0 Z" /><glyph glyph-name="uni4F59" unicode="&#x4f59;" d="M625.5 164 q-1.5 6 -1 13 q0.5 7 4.5 13 q4 6 10 10 q7 3 17 2 q10 -1 16 -6 q21 -19 42.5 -41 q21.5 -22 42 -44 q20.5 -22 37.5 -43.5 q17 -21.5 31 -40.5 q4 -4 4.5 -10 q0.5 -6 -1 -12 q-1.5 -6 -5.5 -11.5 q-4 -5.5 -10 -9.5 l-1 0 q-5 -3 -11 -4 q-6 -1 -12 0 q-6 1 -11.5 3.5 q-5.5 2.5 -7.5 7.5 q-12 18 -28 38.5 q-16 20.5 -33.5 41.5 q-17.5 21 -37.5 42 q-20 21 -39 40 q-5 5 -6.5 11 ZM66 306 q1 6 4.5 11 q3.5 5 8.5 8.5 q5 3.5 11.5 6 q6.5 2.5 12.5 2.5 l351 0 l24 139 l0 1 l-203 0 q-6 0 -11.5 2.5 q-5.5 2.5 -9.5 6.5 q-4 4 -5.5 9 q-1.5 5 -1.5 10 q2 5 5.5 10 q3.5 5 9 9 q5.5 4 11.5 6.5 q6 2.5 11 2.5 l460 0 q6 0 11.5 -2.5 q5.5 -2.5 9 -6.5 q3.5 -4 5.5 -9 q2 -5 0 -10 q0 -5 -3.5 -10 q-3.5 -5 -9 -9 q-5.5 -4 -11.5 -6.5 q-6 -2.5 -12 -2.5 l-194 0 l0 -1 l-25 -139 l348 0 q6 0 11 -2.5 q5 -2.5 9 -6 q4 -3.5 6 -8.5 q2 -5 0 -11 q0 -5 -3.5 -10 q-3.5 -5 -8.5 -9.5 q-5 -4.5 -11.5 -6.5 q-6.5 -2 -12.5 -2 l-347 0 l-49 -278 q-6 -29 -17.5 -43.5 q-11.5 -14.5 -33.5 -23.5 q-20 -6 -52 -7.5 q-32 -1.5 -83 -1.5 q-10 0 -18 5.5 q-8 5.5 -11 12.5 q-2 15 8 26 q10 11 27 11 q1 0 3 0 q22 -1 39 -1 q9 0 23.5 0.5 q14.5 0.5 27.5 1.5 q12 1 17.5 5 q5.5 4 6.5 15 l50 278 l-351 0 q-6 0 -11.5 2 q-5.5 2 -9 6.5 q-3.5 4.5 -5.5 9.5 q-2 5 -1 10 ZM58 461 q-4 6 -4 12.5 q0 6.5 3.5 13 q3.5 6.5 10 12.5 q6.5 6 13.5 10 q64 28 128.5 63.5 q64.5 35.5 126 77 q61.5 41.5 117 86 q55.5 44.5 101.5 90.5 q9 7 20 10 q11 3 18 -1 q5 -3 7 -8 q2 -5 1 -11.5 q-1 -6.5 -3 -12.5 l-4 -6 q7 -3 11 -8 q58 -87 143.5 -151 q85.5 -64 195.5 -116 q14 -7 16.5 -20.5 q2.5 -13.5 -8.5 -25.5 q-7 -8 -20 -10.5 q-13 -2.5 -22 1.5 q-112 57 -198 124.5 q-86 67.5 -150 159.5 q-3 5 -5 10 q-36 -34 -76 -66 q-60 -48 -124 -91.5 q-64 -43.5 -130.5 -81.5 q-66.5 -38 -131.5 -68 q-10 -5 -21 -2.5 q-11 2.5 -15 9.5 ZM8 -22 q-9 10 -4.5 24.5 q4.5 14.5 20.5 25.5 q53 33 104.5 74.5 q51.5 41.5 92.5 85.5 q7 7 18 10.5 q11 3.5 19 -0.5 q6 -2 9.5 -7 q3.5 -5 4 -11 q0.5 -6 -2.5 -13 q-3 -7 -9 -14 q-48 -48 -104 -93.5 q-56 -45.5 -110 -80.5 q-10 -6 -21.5 -6 q-11.5 0 -16.5 5 Z" /><glyph glyph-name="uni4F5B" unicode="&#x4f5b;" d="M734 490 l123 0 q2 0 4.5 2 q2.5 2 3.5 4 l23 134 q1 3 -1 4.5 q-2 1.5 -5 1.5 l-122 0 l-26 -146 ZM548 490 l132 0 l25 146 l-131 0 l-26 -146 ZM510 291 l135 0 l25 147 l-131 0 l-10 -55 q-8 -47 -19 -92 ZM323 291 l133 0 q11 44 19 92 l9 55 l-93 0 q-6 0 -11 2 q-2 1 -4 1 q-14 -42 -30 -86 q-12 -34 -23 -64 ZM208 -64 q-7 10 0 24.5 q7 14.5 22 24.5 q65 39 107 82.5 q42 43.5 69 92.5 q20 38 34 79 l-128 0 q-7 0 -13 3 l-4 2 q-7 -5 -14 -5 q-6 0 -10.5 3.5 q-4.5 3.5 -7.5 8.5 q-3 5 -3.5 11.5 q-0.5 6.5 2.5 13.5 q18 41 35 91 q17 50 32 95 q4 11 14 19.5 q10 8.5 19 8.5 q5 0 10 -3 q3 -2 5 -5 q11 8 24 8 l93 0 l25 146 l-143 0 q-6 0 -11.5 2 q-5.5 2 -9.5 6 q-4 4 -5.5 8.5 q-1.5 4.5 -0.5 9.5 q2 10 13 18 q11 8 23 8 l144 0 l18 106 q1 6 4.5 11.5 q3.5 5.5 8.5 10.5 q5 5 10 7.5 q5 2.5 11 2.5 q10 0 16.5 -10 q6.5 -10 3.5 -22 l-18 -106 l132 0 l18 107 q1 5 4.5 10.5 q3.5 5.5 8 10 q4.5 4.5 9.5 7.5 q5 3 10.5 3 q5.5 0 9.5 -3 q4 -3 7.5 -7.5 q3.5 -4.5 4.5 -10 q1 -5.5 1 -10.5 l-19 -107 l151 0 q7 0 12.5 -2.5 q5.5 -2.5 9 -7 q3.5 -4.5 5.5 -10.5 q2 -6 0 -11 l-33 -188 q0 -5 -4 -11 q-4 -6 -9 -10.5 q-5 -4.5 -11.5 -7 q-6.5 -2.5 -11.5 -2.5 l-153 0 l-26 -147 l185 0 q11 0 19 -7 q7 -6 6 -12 l0 -7 q-1 -4 -3 -8 q-10 -49 -19 -85 q-10 -39 -17.5 -66.5 q-7.5 -27.5 -14.5 -44.5 q-7 -17 -14 -26 q-2 -2 -4 -3.5 q-2 -1.5 -4 -2.5 q-10 -9 -20 -12.5 q-10 -3.5 -27 -5.5 q-11 0 -21 -0.5 q-10 -0.5 -13 -0.5 q-13 0 -28 2 q-11 -1 -19 5 q-8 6 -9 13 q0 13 6.5 22 q6.5 9 19.5 8 q17 -1 28 -2 l20 0 q10 0 15.5 1.5 q5.5 1.5 11.5 7.5 q6 5 12 18.5 q6 13.5 12.5 39 q6.5 25.5 15.5 63.5 q5 23 11 51 l-158 0 l-51 -284 q-1 -6 -4 -11.5 q-3 -5.5 -8 -10 q-5 -4.5 -10 -7 q-5 -2.5 -10.5 -2.5 q-5.5 0 -9.5 2.5 q-4 2.5 -7 7 q-3 4.5 -4.5 10 q-1.5 5.5 -0.5 11.5 l50 284 l-140 0 q-17 -56 -46 -108 q-32 -57 -82 -107 q-50 -50 -126 -91 q-8 -4 -18.5 -3.5 q-10.5 0.5 -14.5 6.5 ZM25 405 q-4 9 0 21.5 q4 12.5 13 21.5 q79 69 153.5 162.5 q74.5 93.5 133.5 195.5 q3 5 8 9 q5 4 10.5 6.5 q5.5 2.5 11.5 4 q6 1.5 10 -0.5 q6 -2 9 -6 q3 -4 5 -9.5 q2 -5.5 1 -12.5 q-1 -7 -4 -12 q-57 -97 -126 -187 l-114 -640 q0 -7 -4 -13 q-4 -6 -8 -10 q-4 -4 -10 -7 q-6 -3 -11.5 -3 q-5.5 0 -9.5 3 q-4 3 -8 7.5 q-4 4.5 -5 10 q-1 5.5 0 11.5 l97 553 q-51 -59 -105 -108 q-6 -7 -13 -9.5 q-7 -2.5 -13.5 -2 q-6.5 0.5 -11.5 3.5 q-5 3 -8 9 q-1 1 -1 2 Z" /><glyph glyph-name="uni4F5C" unicode="&#x4f5c;" d="M324 416 q-5 4 -6 9.5 q-1 5.5 0.5 12.5 q1.5 7 5 13.5 q3.5 6.5 8.5 11.5 q69 66 132.5 152.5 q63.5 86.5 115.5 179.5 q3 6 7.5 10.5 q4.5 4.5 10 7.5 q5.5 3 11.5 4 q6 1 11 0 q5 -1 9 -5 q4 -4 5.5 -9.5 q1.5 -5.5 1.5 -12.5 q0 -7 -5 -12 q-31 -57 -66 -110 l399 0 q5 0 11 -2.5 q6 -2.5 9.5 -6.5 q3.5 -4 5 -9 q1.5 -5 1.5 -11 q-1 -5 -4.5 -10 q-3.5 -5 -9 -9 q-5.5 -4 -11.5 -6.5 q-6 -2.5 -13 -2.5 l-287 0 l-28 -159 l266 0 q5 0 10.5 -2 q5.5 -2 9.5 -6 q4 -4 6 -9 q2 -5 1 -10 q-1 -5 -4.5 -10 q-3.5 -5 -8.5 -9.5 q-5 -4.5 -11.5 -6.5 q-6.5 -2 -12.5 -2 l-265 0 l-29 -165 l278 0 q7 0 12 -2.5 q5 -2.5 9 -6.5 q4 -4 6 -9 q2 -5 1 -11 q-2 -5 -5 -10 q-3 -5 -8.5 -9 q-5.5 -4 -12 -6.5 q-6.5 -2.5 -12.5 -2.5 l-278 0 l-39 -219 q-1 -5 -4 -11 q-3 -6 -8.5 -10.5 q-5.5 -4.5 -11 -7.5 q-5.5 -3 -11.5 -3 l-1 0 q-6 0 -11 3 q-5 3 -8 7.5 q-3 4.5 -4.5 10.5 q-1.5 6 -0.5 11 l115 655 l-79 0 q-10 -13 -19 -26 q-67 -92 -139 -162 q-5 -5 -11 -8.5 q-6 -3.5 -12.5 -4 q-6.5 -0.5 -12 1 q-5.5 1.5 -9.5 4.5 ZM48 405 q-4 9 0 21.5 q4 12.5 13 21.5 q79 70 153.5 163 q74.5 93 133.5 195 q3 5 7.5 9 q4.5 4 11 6.5 q6.5 2.5 12 4 q5.5 1.5 10.5 -0.5 q6 -2 9.5 -6.5 q3.5 -4.5 4.5 -10 q1 -5.5 0.5 -12 q-0.5 -6.5 -4.5 -12.5 q-57 -97 -125 -186 l-114 -640 q0 -7 -3.5 -12.5 q-3.5 -5.5 -8.5 -10 q-5 -4.5 -11 -7.5 q-6 -3 -11 -3 l-2 0 q-5 0 -9.5 3 q-4.5 3 -8 7.5 q-3.5 4.5 -5 10 q-1.5 5.5 -0.5 11.5 l97 548 q-50 -57 -102 -105 q-7 -6 -13.5 -8.5 q-6.5 -2.5 -13 -2.5 q-6.5 0 -12 3.5 q-5.5 3.5 -8.5 9.5 l0 2 l-1 1 Z" /><glyph glyph-name="uni4F60" unicode="&#x4f60;" d="M765 371 q-2 6 -1 13 q1 7 4.5 13 q3.5 6 8 10.5 q4.5 4.5 10.5 6.5 q5 1 9.5 0.5 q4.5 -0.5 9 -2.5 q4.5 -2 8 -6 q3.5 -4 5.5 -8 q12 -34 23 -72 q11 -38 18.5 -76 q7.5 -38 13 -74 q5.5 -36 7.5 -68 q1 -9 -6.5 -19.5 q-7.5 -10.5 -16.5 -14.5 q-8 -2 -13.5 -1 q-5.5 1 -10.5 5 q-5 4 -8.5 9.5 q-3.5 5.5 -3.5 11.5 q-2 30 -7.5 63.5 q-5.5 33.5 -12.5 69.5 q-7 36 -16.5 71.5 q-9.5 35.5 -20.5 67.5 ZM321.5 431.5 q-1.5 5.5 -1 12.5 q0.5 7 4 14 q3.5 7 7.5 12 q56 66 105 151.5 q49 85.5 87 179.5 q3 6 7.5 11 q4.5 5 10.5 8.5 q6 3.5 11.5 5 q5.5 1.5 10.5 0.5 q6 -1 10 -5.5 q4 -4.5 6 -10 q2 -5.5 2.5 -11.5 q0.5 -6 -3.5 -12 q-33 -77 -71 -148 l408 0 q5 0 11 -2 q1 -1 2 -1 q0 1 1 1 q1 2 4 2 q1 0 3.5 0.5 q2.5 0.5 4.5 0.5 l2 0 q2 1 4.5 0.5 q2.5 -0.5 4.5 -0.5 l7 -2 q6 -1 9.5 -4.5 q3.5 -3.5 6 -8.5 q2.5 -5 2.5 -11 q0 -6 -2 -12 q-15 -38 -30 -77 q-15 -39 -28 -71 q-5 -11 -16 -19 q-11 -8 -20 -5 q-9 2 -14 12.5 q-5 10.5 -1 22.5 q13 35 29 78 q8 21 15 41 q-3 -1 -6 -1 l-203 0 l-104 -583 q-4 -28 -14.5 -43 q-10.5 -15 -29.5 -23 q-16 -6 -42 -8 q-26 -2 -64 -3 q-9 0 -16.5 6.5 q-7.5 6.5 -9.5 13.5 q-2 15 8 27.5 q10 12.5 27 11.5 q15 -1 27 -1 q6 0 15.5 0.5 q9.5 0.5 20.5 1.5 q10 0 14 3 q4 3 6 13 l103 584 l-149 0 q-8 0 -14 3 q0 1 -1 1 q-51 -87 -107 -156 q-5 -5 -11.5 -8.5 q-6.5 -3.5 -12 -4.5 q-5.5 -1 -11.5 0 q-6 1 -9 4 q-5 4 -6.5 9.5 ZM269 84.5 q-2 5.5 -2 12 q0 6.5 2.5 13.5 q2.5 7 7.5 13 q47 53 87.5 120.5 q40.5 67.5 73.5 140.5 q3 6 7.5 11.5 q4.5 5.5 10.5 9 q6 3.5 11.5 5 q5.5 1.5 10.5 -0.5 q6 0 10 -4 q4 -4 6 -9.5 q2 -5.5 2 -12 q0 -6.5 -3 -11.5 q-37 -82 -81.5 -155 q-44.5 -73 -93.5 -130 q-4 -5 -10 -8.5 q-6 -3.5 -12 -5.5 q-6 -2 -11.5 -1 q-5.5 1 -9.5 3 q-4 4 -6 9.5 ZM25 405 q-4 9 0 21.5 q4 12.5 13 21.5 q79 69 153.5 162.5 q74.5 93.5 133.5 195.5 q3 5 8 9 q5 4 10.5 6.5 q5.5 2.5 11.5 4 q6 1.5 10 -0.5 q6 -2 9 -6 q3 -4 5 -9.5 q2 -5.5 1 -12.5 q-1 -7 -4 -12 q-57 -97 -126 -187 l-114 -640 q0 -7 -4 -13 q-4 -6 -8 -10 q-4 -4 -10 -7 q-6 -3 -11.5 -3 q-5.5 0 -9.5 3 q-4 3 -8 7.5 q-4 4.5 -5 10 q-1 5.5 0 11.5 l97 553 q-51 -59 -105 -108 q-6 -7 -13 -9.5 q-7 -2.5 -13.5 -2 q-6.5 0.5 -11.5 3.5 q-5 3 -8 9 q-1 1 -1 2 Z" /><glyph glyph-name="uni4F6C" unicode="&#x4f6c;" d="M223 170 q-4 6 -4.5 13 q-0.5 7 2 13.5 q2.5 6.5 8.5 12.5 q6 6 14 10 q193 90 360 223 l-295 0 q-7 0 -12 2 q-5 2 -9 6.5 q-4 4.5 -6 9 q-2 4.5 0 10.5 q0 5 3.5 10 q3.5 5 8.5 8.5 q5 3.5 11.5 5.5 q6.5 2 12.5 2 l209 0 l27 150 l-159 0 q-5 0 -10.5 2 q-5.5 2 -9 6 q-3.5 4 -5 9 q-1.5 5 -0.5 10 q1 6 4.5 10.5 q3.5 4.5 8.5 8.5 q5 4 10.5 6 q5.5 2 11.5 2 l159 0 l19 106 q0 5 3.5 10.5 q3.5 5.5 8.5 10 q5 4.5 11 7.5 q6 3 11 3 q6 0 10.5 -3 q4.5 -3 8 -7.5 q3.5 -4.5 5 -10 q1.5 -5.5 0.5 -10.5 l-18 -106 l158 0 q6 0 11 -2 q5 -2 8.5 -6 q3.5 -4 5.5 -8.5 q2 -4.5 1 -10.5 q-1 -5 -4.5 -10 q-3.5 -5 -8.5 -9 q-5 -4 -11 -6 q-6 -2 -11 -2 l-159 0 l-27 -150 l83 0 q140 122 250 268 q4 5 9 8.5 q5 3.5 11 6 q6 2.5 11.5 3 q5.5 0.5 10.5 -1.5 q5 -2 8.5 -7 q3.5 -5 4 -11 q0.5 -6 -1 -12 q-1.5 -6 -5.5 -12 q-101 -131 -219 -242 l185 0 q6 0 11.5 -2 q5.5 -2 9.5 -5.5 q4 -3.5 5.5 -8.5 q1.5 -5 1.5 -10 q-2 -6 -5.5 -10.5 q-3.5 -4.5 -8.5 -9 q-5 -4.5 -11.5 -6.5 q-6.5 -2 -12.5 -2 l-237 0 q-21 -18 -43 -36 q-72 -57 -147 -107 q1 -6 -1 -12 l-16 -91 q39 12 78 26 q42 15 81.5 30.5 q39.5 15.5 75 31.5 q35.5 16 64.5 32 q9 4 20.5 3 q11.5 -1 16.5 -7 q5 -5 5.5 -11.5 q0.5 -6.5 -1 -13.5 q-1.5 -7 -7 -12.5 q-5.5 -5.5 -13.5 -9.5 q-34 -15 -72 -31 q-38 -16 -80 -31.5 q-42 -15.5 -84.5 -29.5 q-42.5 -14 -84.5 -26 q-4 -2 -8 -2 l-20 -110 q-1 -12 0.5 -19.5 q1.5 -7.5 8 -11.5 q6.5 -4 20.5 -5.5 q14 -1.5 37 -1.5 l215 0 q16 0 26.5 3 q10.5 3 18.5 12 q8 9 14.5 25.5 q6.5 16.5 13.5 42.5 q6 7 11 13.5 q5 6.5 11 11.5 q6 5 12.5 7 q6.5 2 11.5 -1 q9 -3 12.5 -13 q3.5 -10 -0.5 -19 q-10 -42 -20.5 -68.5 q-10.5 -26.5 -25.5 -42 q-15 -15.5 -36.5 -21.5 q-21.5 -6 -55.5 -6 l-221 0 q-37 0 -61 4 q-24 4 -37 14.5 q-13 10.5 -14.5 22.5 q-1.5 12 -1.5 19 q0 14 3 34 l40 223 q-84 -51 -171 -94 q-10 -4 -21 -2 q-11 2 -16 8 ZM43 405 q-4 9 -0.5 21.5 q3.5 12.5 12.5 21.5 q72 69 140.5 163 q68.5 94 121.5 195 q3 5 8 9 q5 4 10.5 7 q5.5 3 11 4 q5.5 1 10.5 0 q6 -2 9 -6 q3 -4 4.5 -10 q1.5 -6 1 -12.5 q-0.5 -6.5 -3.5 -11.5 q-54 -99 -119 -190 l-113 -638 q0 -7 -4 -13 q-4 -6 -8 -10 q-4 -4 -10 -7 q-6 -3 -11.5 -3 q-5.5 0 -9.5 3 q-4 3 -8 7.5 q-4 4.5 -5 10 q-1 5.5 0 11.5 l95 541 q-41 -51 -84 -96 q-6 -6 -12.5 -9 q-6.5 -3 -13 -2.5 q-6.5 0.5 -12.5 3.5 q-6 3 -9 9 l0 2 l-1 0 Z" /><glyph glyph-name="uni4F73" unicode="&#x4f73;" d="M334 437.5 q-4 3.5 -6 9 q-2 5.5 0 10.5 q0 6 3.5 10.5 q3.5 4.5 9 9 q5.5 4.5 12 6.5 q6.5 2 12.5 2 l241 0 l27 157 l-192 0 q-5 0 -11 2.5 q-6 2.5 -9.5 6.5 q-3.5 4 -5 9 q-1.5 5 -1.5 11 q2 5 5.5 10 q3.5 5 8 9 q4.5 4 11 6 q6.5 2 12.5 2 l192 0 l19 107 q1 6 4.5 12 q3.5 6 8.5 10.5 q5 4.5 11 7 q6 2.5 12 2.5 l1 0 q5 0 9.5 -2.5 q4.5 -2.5 8 -7 q3.5 -4.5 4.5 -10.5 q1 -6 0 -12 l-19 -107 l200 0 q6 0 11.5 -2 q5.5 -2 9.5 -6 q4 -4 5.5 -9 q1.5 -5 0.5 -10 q-1 -6 -4.5 -11 q-3.5 -5 -8.5 -9 q-5 -4 -11.5 -6.5 q-6.5 -2.5 -11.5 -2.5 l-201 0 l-27 -157 l245 0 q6 0 11.5 -2 q5.5 -2 9 -6.5 q3.5 -4.5 5.5 -9 q2 -4.5 1 -10.5 q-1 -5 -4.5 -10.5 q-3.5 -5.5 -8.5 -9 q-5 -3.5 -11.5 -6.5 q-6.5 -3 -13.5 -3 l-544 0 q-7 0 -12 3 q-5 3 -9 6.5 ZM211 -8 q0 6 3.5 11 q3.5 5 9 9 q5.5 4 11.5 6 q6 2 12 2 l277 0 l32 185 l-213 0 q-6 0 -11 2.5 q-5 2.5 -8.5 6.5 q-3.5 4 -5.5 9 q-2 5 -1 11 q1 5 4 10 q3 5 8.5 9 q5.5 4 12 6 q6.5 2 12.5 2 l212 0 l16 92 q2 7 5 13 q3 6 8.5 10.5 q5.5 4.5 11 7 q5.5 2.5 11.5 2.5 l1 0 q6 0 10 -2.5 q4 -2.5 7.5 -7 q3.5 -4.5 5 -10.5 q1.5 -6 -0.5 -13 l-16 -92 l217 0 q6 0 11 -2 q5 -2 8.5 -6 q3.5 -4 6 -9 q2.5 -5 0.5 -10 q0 -6 -3.5 -11 q-3.5 -5 -9 -9 q-5.5 -4 -12 -6.5 q-6.5 -2.5 -12.5 -2.5 l-215 0 l-33 -185 l266 0 q5 0 11 -2 q6 -2 9.5 -6 q3.5 -4 5 -9 q1.5 -5 1.5 -11 q-2 -5 -5.5 -10.5 q-3.5 -5.5 -8.5 -9.5 q-5 -4 -11.5 -6.5 q-6.5 -2.5 -11.5 -2.5 l-602 0 q-6 0 -11 2.5 q-5 2.5 -9 6.5 q-4 4 -6 9.5 q-2 5.5 0 10.5 ZM52 406 q-4 8 -1 20.5 q3 12.5 12 20.5 q73 70 142 163.5 q69 93.5 123 195.5 q4 5 8.5 9 q4.5 4 10 7 q5.5 3 11.5 4 q6 1 10 0 q5 -2 9 -6 q4 -4 5.5 -9.5 q1.5 -5.5 1 -12.5 q-0.5 -7 -4.5 -12 q-55 -100 -120 -192 l-113 -639 q-1 -6 -4.5 -11.5 q-3.5 -5.5 -8.5 -10.5 q-5 -5 -11 -7.5 q-6 -2.5 -12 -2.5 q-5 0 -9.5 2.5 q-4.5 2.5 -8 7.5 q-3.5 5 -5 10.5 q-1.5 5.5 -0.5 11.5 l95 539 q-40 -49 -82 -91 q-5 -7 -12.5 -10 q-7.5 -3 -14 -2.5 q-6.5 0.5 -12.5 3.5 q-6 3 -8 10 l0 2 l-1 0 Z" /></font>
</defs>
</svg>
