<?xml version="1.0" standalone="no"?><!DOCTYPE svg PUBLIC "-//W3C//DTD SVG 1.1//EN" "http://www.w3.org/Graphics/SVG/1.1/DTD/svg11.dtd" ><svg xmlns="http://www.w3.org/2000/svg"><metadata></metadata><defs><font id="JetBrainsMapleMono-ExtraBoldItalic-pre" horiz-adv-x="1000"><font-face font-family="JetBrains Maple Mono ExtraBold" font-weight="800" font-stretch="normal" units-per-em="1000" panose-1="2 0 0 9 0 0 0 0 0 0" ascent="1020" descent="-300" x-height="0" bbox="-71 -180 1045 870" underline-thickness="50" underline-position="-155" unicode-range="U+0022-9f99" /><missing-glyph horiz-adv-x="600" d="M160 50 l300 0 l0 571 l-300 -571 ZM140 109 l300 571 l-300 0 l0 -571 ZM90 0 l0 730 l420 0 l0 -730 l-420 0 Z" /><glyph glyph-name="quotedbl" unicode="&quot;" d="M129 430 l39 300 l156 0 l-56 -300 l-139 0 ZM381 430 l39 300 l156 0 l-56 -300 l-139 0 Z" /><glyph glyph-name="dollar" unicode="$" d="M304 122 q36 5 59 25 q23 20 28 52 q1 7 1 14 q0 22 -14 42.5 q-14 20.5 -48 29.5 l-26 -163 ZM246 519 q0 -18 10 -36.5 q10 -18.5 36 -28.5 l24 153 q-59 -14 -68 -72 q-2 -8 -2 -16 ZM32 163 q0 18 3 37 l150 0 q-1 -6 -1 -12 q0 -20 12.5 -38 q12.5 -18 43.5 -26 l27 175 l-10 3 q-90 22 -126.5 74.5 q-36.5 52.5 -36.5 112.5 q0 19 3 40 q14 89 78.5 145 q64.5 56 161.5 64 l21 132 l65 0 l-21 -131 q97 -8 140 -56.5 q43 -48.5 43 -110.5 q0 -18 -3 -37 l-150 0 q1 8 1 14 q0 45 -52 58 l-27 -169 l26 -6 q94 -22 130 -72 q36 -50 36 -111 q0 -21 -4 -43 q-10 -60 -45 -107 q-35 -47 -89.5 -75 q-54.5 -28 -123.5 -33 l-21 -131 l-65 0 l21 132 q-99 8 -143 58 q-44 50 -44 113 Z" /><glyph glyph-name="comma" unicode="," d="M104 -160 l100 306 l172 0 l-128 -306 l-144 0 Z" /><glyph glyph-name="hyphen" unicode="-" d="M122 260 l22 140 l350 0 l-22 -140 l-350 0 Z" /><glyph glyph-name="period" unicode="." d="M167 72 q0 9 2 19 q8 45 40 73 q32 28 77 28 q45 0 69 -28 q18 -21 18 -52 q0 -10 -2 -21 q-7 -45 -39 -73 q-32 -28 -78 -28 q-44 0 -68 28 q-19 22 -19 54 Z" /><glyph glyph-name="zero" unicode="0" d="M243 354 q0 7 1 14 q5 32 27.5 48.5 q22.5 16.5 53.5 16.5 q32 0 46 -14.5 q14 -14.5 14 -36.5 q0 -7 -1 -14 q-5 -32 -26.5 -49.5 q-21.5 -17.5 -53.5 -17.5 q-31 0 -46 15.5 q-15 15.5 -15 37.5 ZM187 192 q0 -29 21 -50.5 q21 -21.5 67 -21.5 q47 0 77 24 q30 24 37 66 l49 310 q2 10 2 19 q0 29 -20 50 q-20 21 -67 21 q-47 0 -77.5 -24 q-30.5 -24 -37.5 -66 l-49 -310 q-2 -9 -2 -18 ZM46 170 q0 19 3 40 l49 310 q17 105 89 162.5 q72 57.5 186 57.5 q74 0 123.5 -27.5 q49.5 -27.5 67.5 -68.5 q18 -41 18 -81 q0 -20 -4 -43 l-49 -310 q-16 -105 -88 -162.5 q-72 -57.5 -187 -57.5 q-73 0 -122.5 27.5 q-49.5 27.5 -67.5 69.5 q-18 42 -18 83 Z" /><glyph glyph-name="one" unicode="1" d="M36 0 l21 135 l184 0 l70 438 l-207 -134 l27 171 l190 120 l165 0 l-95 -595 l146 0 l-21 -135 l-480 0 Z" /><glyph glyph-name="two" unicode="2" d="M21 0 l21 134 l321 275 q23 20 38.5 46.5 q15.5 26.5 19.5 54.5 q1 9 1 18 q0 29 -17.5 53 q-17.5 24 -57.5 24 q-41 0 -71 -28 q-30 -28 -37 -72 l-150 0 q12 72 50 125 q38 53 98 81.5 q60 28.5 136 28.5 q71 0 120 -27.5 q49 -27.5 67.5 -69.5 q18.5 -42 18.5 -83 q0 -19 -3 -39 q-10 -58 -41 -112.5 q-31 -54.5 -95 -107.5 l-201 -166 l283 0 l-21 -135 l-480 0 Z" /><glyph glyph-name="three" unicode="3" d="M36 159 q0 19 4 41 l150 0 q-1 -8 -1 -15 q0 -26 19.5 -45.5 q19.5 -19.5 62.5 -19.5 q44 0 72.5 21.5 q28.5 21.5 34.5 58.5 l9 58 q2 10 2 19 q0 28 -19 47.5 q-19 19.5 -64 19.5 l-100 0 l19 116 l179 140 l-271 0 l21 130 l436 0 l-20 -121 l-181 -144 q82 -16 116.5 -63 q34.5 -47 34.5 -104 q0 -19 -3 -39 l-9 -59 q-15 -100 -88.5 -155 q-73.5 -55 -189.5 -55 q-112 0 -163 50 q-51 50 -51 119 Z" /><glyph glyph-name="four" unicode="4" d="M29 134 l33 209 l334 387 l171 0 l-372 -434 l-5 -32 l178 0 l25 156 l150 0 l-67 -420 l-150 0 l21 134 l-318 0 Z" /><glyph glyph-name="five" unicode="5" d="M37 160 q0 19 3 40 l150 0 q-1 -8 -1 -15 q0 -27 20.5 -46 q20.5 -19 63.5 -19 q44 0 71.5 22.5 q27.5 22.5 33.5 62.5 l9 51 q1 10 1 18 q0 66 -80 66 l-221 0 l62 390 l436 0 l-22 -135 l-293 0 l-20 -125 l84 0 q113 0 160 -49.5 q47 -49.5 47 -119.5 q0 -21 -4 -45 l-9 -51 q-16 -100 -89.5 -157.5 q-73.5 -57.5 -186.5 -57.5 q-112 0 -163.5 50.5 q-51.5 50.5 -51.5 119.5 Z" /><glyph glyph-name="six" unicode="6" d="M181 203 q0 -35 21.5 -61.5 q21.5 -26.5 71.5 -26.5 q50 0 84.5 30 q34.5 30 42.5 82 q2 13 2 25 q0 36 -21.5 62.5 q-21.5 26.5 -71.5 26.5 q-50 0 -84.5 -30.5 q-34.5 -30.5 -42.5 -83.5 q-2 -13 -2 -24 ZM35 186 q0 25 4 52 q6 41 33.5 98 q27.5 57 71.5 119 l194 275 l176 0 l-245 -328 l4 -3 q20 25 51 39 q31 14 68 14 q57 0 95 -28.5 q38 -28.5 51 -68.5 q13 -40 13 -76 q0 -24 -4 -50 q-18 -114 -94.5 -176.5 q-76.5 -62.5 -198.5 -62.5 q-118 0 -168.5 59 q-50.5 59 -50.5 137 Z" /><glyph glyph-name="seven" unicode="7" d="M87 0 l367 600 l-196 0 l-19 -120 l-150 0 l40 250 l513 0 l-21 -129 l-365 -601 l-169 0 Z" /><glyph glyph-name="eight" unicode="8" d="M247 509 q0 -27 19 -49.5 q19 -22.5 59 -22.5 q41 0 70.5 25.5 q29.5 25.5 36.5 65.5 q1 9 1 17 q0 29 -19 51.5 q-19 22.5 -60 22.5 q-40 0 -69.5 -25 q-29.5 -25 -35.5 -66 q-2 -10 -2 -19 ZM177 199 q0 -34 24 -60 q24 -26 73 -26 q50 0 85.5 29 q35.5 29 42.5 75 q2 11 2 21 q0 33 -23.5 58 q-23.5 25 -73.5 25 q-49 0 -85 -28.5 q-36 -28.5 -44 -75.5 q-1 -9 -1 -18 ZM30 173 q0 17 3 35 q7 44 30 81 q23 37 57.5 63 q34.5 26 75.5 35 l1 2 q-49 9 -71 45.5 q-22 36.5 -22 75.5 q0 15 3 32 q14 92 85.5 145 q71.5 53 180.5 53 q69 0 118.5 -25.5 q49.5 -25.5 69.5 -63.5 q20 -38 20 -77 q0 -15 -3 -32 q-10 -59 -48.5 -101.5 q-38.5 -42.5 -90.5 -51.5 l-1 -2 q57 -13 83.5 -57 q26.5 -44 26.5 -89 q0 -16 -3 -33 q-10 -67 -49 -116 q-39 -49 -101 -75.5 q-62 -26.5 -141 -26.5 q-75 0 -128 28 q-53 28 -74.5 70.5 q-21.5 42.5 -21.5 84.5 Z" /><glyph glyph-name="nine" unicode="9" d="M225 479 q0 -35 21.5 -62.5 q21.5 -27.5 71.5 -27.5 q50 0 84.5 31 q34.5 31 42.5 83 q2 13 2 24 q0 35 -21.5 61.5 q-21.5 26.5 -71.5 26.5 q-50 0 -84.5 -30 q-34.5 -30 -42.5 -82 q-2 -12 -2 -24 ZM77 453 q0 23 4 48 q18 114 95 176.5 q77 62.5 198 62.5 q118 0 168.5 -59 q50.5 -59 50.5 -137 q0 -25 -4 -52 q-6 -41 -33.5 -98 q-27.5 -57 -71.5 -119 l-194 -275 l-176 0 l245 328 l-4 3 q-20 -25 -51 -39 q-31 -14 -68 -14 q-56 0 -94.5 28.5 q-38.5 28.5 -51.5 69 q-13 40.5 -13 77.5 Z" /><glyph glyph-name="colon" unicode=":" d="M229 454 q0 8 1 16 q7 41 38.5 65.5 q31.5 24.5 76.5 24.5 q45 0 69 -24 q18 -19 18 -48 q0 -9 -2 -18 q-6 -40 -37.5 -65 q-31.5 -25 -76.5 -25 q-44 0 -68 25 q-18 20 -19 49 ZM167 62 q0 8 2 18 q6 41 37.5 65.5 q31.5 24.5 76.5 24.5 q45 0 69 -24 q19 -20 18 -50 q0 -8 -1 -16 q-7 -40 -38.5 -65 q-31.5 -25 -76.5 -25 q-44 0 -68 25 q-18 19 -19 47 Z" /><glyph glyph-name="semicolon" unicode=";" d="M229 454 q0 8 1 16 q7 39 36.5 64.5 q29.5 25.5 68.5 25.5 l20 0 q39 0 61 -26 q16 -19 16 -46 q0 -9 -2 -18 q-6 -39 -35.5 -64.5 q-29.5 -25.5 -68.5 -25.5 l-20 0 q-38 0 -60 26 q-16 20 -17 48 ZM76 -160 l129 311 l180 0 l-179 -311 l-130 0 Z" /><glyph glyph-name="A" unicode="A" d="M243 285 l123 0 l-7 176 q-1 38 -3.5 75.5 q-2.5 37.5 -3.5 58.5 q-7 -21 -18.5 -58 q-11.5 -37 -25.5 -75 l-65 -177 ZM-19 0 l295 730 l190 0 l65 -730 l-149 0 l-9 165 l-174 0 l-61 -165 l-157 0 Z" /><glyph glyph-name="B" unicode="B" d="M236 436 l88 0 q44 0 72.5 23.5 q28.5 23.5 35.5 63.5 q1 9 1 17 q-1 28 -17 46 q-22 22 -65 23 l-88 0 l-27 -173 ZM186 121 l94 0 q49 0 81.5 26 q32.5 26 39.5 72 q2 10 2 20 q0 33 -19 53 q-24 26 -73 26 l-94 0 l-31 -197 ZM22 0 l116 730 l235 0 q71 0 122 -24.5 q51 -24.5 75 -66.5 q18 -31 18 -68 q0 -14 -2 -29 q-10 -62 -50.5 -103.5 q-40.5 -41.5 -95.5 -49.5 l-1 -2 q61 -7 91 -57 q22 -36 23 -83 q0 -17 -3 -36 q-16 -100 -90.5 -155.5 q-74.5 -55.5 -193.5 -55.5 l-244 0 Z" /><glyph glyph-name="C" unicode="C" d="M50 170 q0 19 3 40 l49 310 q17 105 90 162.5 q73 57.5 189 57.5 q72 0 122 -28 q49 -28 73 -78 q16 -35 17 -77 q0 -18 -3 -37 l-150 0 q2 12 2 23 q0 28 -15 44 q-21 23 -66 23 q-45 0 -73 -23 q-28 -23 -36 -67 l-49 -310 q-2 -11 -2 -20 q0 -28 16 -46 q21 -24 66 -24 q45 0 73 23.5 q28 23.5 35 66.5 l150 0 q-16 -105 -89.5 -162.5 q-73.5 -57.5 -189.5 -57.5 q-73 0 -124 28 q-51 26 -73 76 q-15 34 -15 76 Z" /><glyph glyph-name="D" unicode="D" d="M191 140 l87 0 q46 0 78 26 q32 26 39 69 l42 261 q1 8 1 16 q0 31 -19 52 q-24 26 -70 26 l-87 0 l-71 -450 ZM19 0 l116 730 l237 0 q76 0 128 -29 q52 -29 75 -81 q16 -36 16 -80 q0 -21 -4 -44 l-42 -261 q-11 -70 -51 -123 q-40 -53 -101 -82.5 q-61 -29.5 -137 -29.5 l-237 0 Z" /><glyph glyph-name="E" unicode="E" d="M36 0 l116 730 l450 0 l-21 -128 l-303 0 l-26 -164 l268 0 l-20 -128 l-268 0 l-29 -182 l303 0 l-20 -128 l-450 0 Z" /><glyph glyph-name="F" unicode="F" d="M26 0 l116 730 l470 0 l-23 -140 l-322 0 l-25 -162 l296 0 l-22 -140 l-294 0 l-46 -288 l-150 0 Z" /><glyph glyph-name="G" unicode="G" d="M46 170 q0 19 3 40 l49 310 q17 105 90 162.5 q73 57.5 189 57.5 q72 0 122 -28 q49 -28 73 -78 q16 -35 17 -77 q0 -18 -3 -37 l-150 0 q2 12 2 23 q0 28 -15 44 q-21 23 -66 23 q-45 0 -73 -23 q-28 -23 -36 -67 l-49 -310 q-2 -11 -2 -20 q0 -28 16 -46 q21 -24 66 -24 q45 0 73 23.5 q28 23.5 35 66.5 l11 68 l-108 0 l20 127 l258 0 l-31 -195 q-16 -105 -89.5 -162.5 q-73.5 -57.5 -189.5 -57.5 q-73 0 -124 28 q-51 26 -73 76 q-15 34 -15 76 Z" /><glyph glyph-name="H" unicode="H" d="M22 0 l116 730 l150 0 l-45 -284 l168 0 l45 284 l150 0 l-116 -730 l-150 0 l49 311 l-168 0 l-49 -311 l-150 0 Z" /><glyph glyph-name="I" unicode="I" d="M36 0 l21 130 l145 0 l74 470 l-145 0 l21 130 l440 0 l-21 -130 l-145 0 l-74 -470 l145 0 l-21 -130 l-440 0 Z" /><glyph glyph-name="J" unicode="J" d="M7 177 q0 21 4 44 l150 0 q-2 -11 -2 -21 q-1 -32 17 -52 q22 -28 69 -28 q44 0 76.5 27.5 q32.5 27.5 39.5 71.5 l81 511 l150 0 l-81 -511 q-18 -109 -93 -169 q-75 -60 -194 -60 q-115 0 -172 62 q-45 50 -45 125 Z" /><glyph glyph-name="K" unicode="K" d="M21 0 l116 730 l150 0 l-45 -283 l68 0 l168 283 l163 0 l-212 -358 l102 -372 l-159 0 l-76 309 l-76 0 l-49 -309 l-150 0 Z" /><glyph glyph-name="L" unicode="L" d="M71 0 l116 730 l150 0 l-95 -595 l295 0 l-21 -135 l-445 0 Z" /><glyph glyph-name="M" unicode="M" d="M-2 0 l116 730 l179 0 l24 -312 l124 312 l189 0 l-116 -730 l-137 0 l44 280 q17 110 43 211.5 q26 101.5 48 178.5 l-149 -360 l-120 0 l-34 351 q-1 -65 -6.5 -165.5 q-5.5 -100.5 -23.5 -215.5 l-44 -280 l-137 0 Z" /><glyph glyph-name="N" unicode="N" d="M16 0 l116 730 l173 0 l101 -565 q3 37 7 85.5 q4 48.5 9 97 q5 48.5 10 82.5 l48 300 l132 0 l-116 -730 l-173 0 l-100 565 q-2 -32 -5.5 -76 q-3.5 -44 -8 -89 q-4.5 -45 -10.5 -80 l-51 -320 l-132 0 Z" /><glyph glyph-name="O" unicode="O" d="M197 187 q0 -67 78 -67 q90 0 104 90 l49 310 q2 12 2 23 q0 67 -77 67 q-91 0 -105 -90 l-49 -310 q-2 -13 -2 -23 ZM46 170 q0 19 3 40 l49 310 q17 105 88.5 162.5 q71.5 57.5 186.5 57.5 q74 0 123 -28 q50 -26 72 -76 q14 -33 14 -73 q0 -20 -4 -43 l-49 -310 q-16 -105 -88 -162.5 q-72 -57.5 -187 -57.5 q-73 0 -122 28 q-50 26 -72 76 q-14 34 -14 76 Z" /><glyph glyph-name="P" unicode="P" d="M236 401 l99 0 q48 0 80.5 26.5 q32.5 26.5 39.5 70.5 q2 10 2 19 q1 31 -19 51 q-24 26 -73 27 l-99 0 l-30 -194 ZM22 0 l116 730 l249 0 q77 0 129 -29 q52 -29 76 -81 q16 -35 17 -79 q0 -20 -4 -43 q-11 -69 -51 -121.5 q-40 -52.5 -102 -81.5 q-62 -29 -139 -29 l-99 0 l-42 -266 l-150 0 Z" /><glyph glyph-name="Q" unicode="Q" d="M197 188 q-1 -27 13 -44 q18 -23 65 -23 q47 0 72 23 q25 23 32 66 l49 310 q2 12 2 22 q0 28 -14 45 q-19 23 -63 23 q-43 0 -70.5 -23 q-27.5 -23 -34.5 -67 l-49 -310 q-2 -12 -2 -22 ZM46 171 q0 19 3 39 l49 310 q11 67 48.5 116 q37.5 49 96 76.5 q58.5 27.5 130.5 27.5 q72 0 121 -28 q50 -26 72 -76 q15 -33 16 -74 q0 -20 -4 -42 l-49 -310 q-10 -66 -46 -116 q-36 -50 -94 -76 l90 -198 l-147 0 l-76 170 l-2 0 q-72 0 -121.5 27.5 q-49.5 27.5 -71.5 77.5 q-15 35 -15 76 Z" /><glyph glyph-name="R" unicode="R" d="M233 406 l87 0 q50 0 81.5 25 q31.5 25 38.5 70 q2 12 2 23 q0 31 -18 50 q-24 26 -73 26 l-87 0 l-31 -194 ZM22 0 l116 730 l234 0 q76 0 128 -28 q54 -28 78 -78 q17 -35 16 -77 q0 -19 -3 -39 q-11 -73 -53 -127.5 q-42 -54.5 -107 -80.5 l90 -300 l-158 0 l-74 276 l-76 0 l-44 -276 l-147 0 Z" /><glyph glyph-name="S" unicode="S" d="M33 174 q0 18 3 36 l146 0 q-1 -8 -1 -15 q1 -31 21 -51 q26 -24 75 -24 q47 0 80 24.5 q33 24.5 38 61.5 q1 8 1 16 q0 22 -10 40 q-14 24 -48 32 l-86 21 q-82 19 -124 77 q-32 44 -32 101 q0 18 3 37 q17 100 87.5 155 q70.5 55 182.5 55 q72 0 121.5 -26.5 q49.5 -26.5 72.5 -73.5 q16 -33 16 -73 q0 -17 -3 -36 l-146 0 q1 8 1 16 q-1 27 -17 43 q-22 22 -65 22 q-43 0 -70.5 -21 q-27.5 -21 -32.5 -56 q-1 -7 -1 -13 q0 -46 58 -60 l89 -21 q84 -19 124 -83 q30 -47 30 -108 q0 -21 -4 -44 q-16 -103 -91 -159.5 q-75 -56.5 -195 -56.5 q-75 0 -128 28 q-54 27 -78 77 q-18 36 -17 79 Z" /><glyph glyph-name="T" unicode="T" d="M89 590 l23 140 l520 0 l-23 -140 l-185 0 l-93 -590 l-150 0 l93 590 l-185 0 Z" /><glyph glyph-name="U" unicode="U" d="M46 169 q0 21 4 45 l82 516 l150 0 l-82 -515 q-2 -12 -2 -23 q0 -30 14 -48 q20 -24 63 -24 q42 0 70 24.5 q28 24.5 35 70.5 l82 515 l150 0 l-82 -516 q-11 -69 -48 -119.5 q-37 -50.5 -95.5 -77.5 q-58.5 -27 -132.5 -27 q-112 0 -166 60 q-42 46 -42 119 Z" /><glyph glyph-name="V" unicode="V" d="M97 730 l152 0 l28 -461 q2 -24 3 -61.5 q1 -37.5 2 -63.5 q8 26 19.5 63.5 q11.5 37.5 20.5 62.5 l171 460 l154 0 l-295 -730 l-190 0 l-65 730 Z" /><glyph glyph-name="W" unicode="W" d="M34 0 l48 730 l116 0 l-41 -488 q-1 -14 -3.5 -39.5 q-2.5 -25.5 -5.5 -53 q-3 -27.5 -6 -49.5 q6 22 12.5 49.5 q6.5 27.5 13 53 q6.5 25.5 9.5 39.5 l136 488 l114 0 l-22 -488 q0 -14 -1.5 -39.5 q-1.5 -25.5 -3 -53 q-1.5 -27.5 -2.5 -49.5 q4 22 9.5 49.5 q5.5 27.5 11 53 q5.5 25.5 8.5 39.5 l112 488 l123 0 l-189 -730 l-156 0 l28 485 q1 17 3 44.5 q2 27.5 4.5 57.5 q2.5 30 4.5 53 q-5 -23 -11.5 -53 q-6.5 -30 -12.5 -57.5 q-6 -27.5 -11 -44.5 l-131 -485 l-157 0 Z" /><glyph glyph-name="X" unicode="X" d="M-24 0 l256 381 l-127 349 l160 0 l50 -160 q7 -22 12.5 -40 q5.5 -18 6.5 -26 q4 8 12.5 26 q8.5 18 22.5 40 l104 160 l166 0 l-239 -357 l136 -373 l-160 0 l-59 180 q-7 22 -12.5 41 q-5.5 19 -7.5 29 q-4 -10 -14 -29 q-10 -19 -24 -41 l-117 -180 l-166 0 Z" /><glyph glyph-name="Y" unicode="Y" d="M87 730 l152 0 l57 -220 q8 -33 12.5 -70 q4.5 -37 5.5 -60 q8 23 23.5 60 q15.5 37 34.5 70 l124 220 l161 0 l-285 -470 l-41 -260 l-150 0 l41 260 l-135 470 Z" /><glyph glyph-name="Z" unicode="Z" d="M32 0 l22 140 l334 450 l-256 0 l23 140 l431 0 l-23 -140 l-335 -450 l275 0 l-22 -140 l-449 0 Z" /><glyph glyph-name="underscore" unicode="_" d="M-10 -165 l22 140 l480 0 l-22 -140 l-480 0 Z" /><glyph glyph-name="a" unicode="a" d="M188 188 q0 -26 12 -44 q16 -24 49 -24 q35 0 59 24.5 q24 24.5 30 65.5 l21 130 q2 12 2 23 q1 25 -11 43 q-16 24 -52 24 q-34 0 -57 -24.5 q-23 -24.5 -30 -65.5 l-21 -130 q-2 -12 -2 -22 ZM35 153 q0 25 4 52 l23 140 q11 64 40 112 q29 48 71.5 75.5 q42.5 27.5 91.5 27.5 q51 0 81 -31 q30 -31 31 -84 l3 0 l13 105 l149 0 l-60 -382 q-3 -17 6.5 -27.5 q9.5 -10.5 26.5 -10.5 l46 0 l-21 -130 l-55 0 q-64 0 -99 32 q-28 26 -28 66 q0 9 1 19 l1 8 l-2 0 q-17 -61 -67.5 -98 q-50.5 -37 -116.5 -37 q-51 0 -85 28 q-34 28 -47 76 q-7 28 -7 59 Z" /><glyph glyph-name="b" unicode="b" d="M204 191 q0 -29 14 -47 q18 -24 61 -24 q41 0 67 23.5 q26 23.5 33 66.5 l21 130 q2 12 2 22 q0 28 -14 45 q-19 23 -60 23 q-43 0 -69 -24.5 q-26 -24.5 -34 -70.5 l-19 -120 q-2 -13 -2 -24 ZM22 0 l116 730 l150 0 l-24 -150 l-24 -125 q26 51 68.5 78 q42.5 27 98.5 27 q79 0 119 -58 q29 -42 29 -106 q0 -24 -4 -51 l-23 -140 q-15 -99 -72 -157 q-57 -58 -140 -58 q-55 0 -89.5 28.5 q-34.5 28.5 -44.5 79.5 l-15 -98 l-145 0 Z" /><glyph glyph-name="c" unicode="c" d="M52 171 q0 19 3 39 l21 130 q17 105 89.5 162.5 q72.5 57.5 188.5 57.5 q107 0 164 -56 q48 -47 48 -120 q0 -14 -2 -29 l-146 0 q0 4 0 8 q0 30 -20 47 q-24 20 -65 20 q-93 0 -107 -90 l-21 -130 q-2 -11 -2 -21 q-1 -27 15 -45 q20 -24 66 -24 q41 0 70.5 19.5 q29.5 19.5 38.5 55.5 l146 0 q-19 -97 -91 -151 q-72 -54 -185 -54 q-72 0 -122.5 27.5 q-50.5 27.5 -72.5 77.5 q-16 34 -16 76 Z" /><glyph glyph-name="d" unicode="d" d="M197 188 q0 -28 14 -44 q19 -24 60 -24 q43 0 69.5 24.5 q26.5 24.5 33.5 70.5 l19 120 q2 14 2 25 q0 28 -13 46 q-19 24 -62 24 q-41 0 -67 -23 q-26 -23 -33 -67 l-21 -130 q-2 -12 -2 -22 ZM44 156 q0 23 4 49 l23 140 q17 103 72.5 159 q55.5 56 139.5 56 q55 0 89 -27.5 q34 -27.5 44 -78.5 l16 126 l24 150 l150 0 l-116 -730 l-145 0 l16 100 q-26 -53 -69 -81.5 q-43 -28.5 -100 -28.5 q-52 0 -88 27 q-36 27 -51 75 q-9 28 -9 64 Z" /><glyph glyph-name="e" unicode="e" d="M211 327 l153 2 q17 0 28 9 q11 9 15 33 q1 8 1 14 q0 25 -17 43 q-22 22 -63 21 q-49 0 -78 -29 q-29 -29 -37 -80 l-2 -13 ZM45 169 q0 20 4 41 l21 130 q18 105 90 162.5 q72 57.5 186 57.5 q71 0 121.5 -23.5 q50.5 -23.5 74.5 -65.5 q17 -31 17 -68 q0 -14 -2 -30 q-10 -66 -55.5 -102.5 q-45.5 -36.5 -116.5 -36.5 l-188 0 l-5 -24 q-3 -17 -3 -30 q1 -29 15 -46 q22 -24 70 -24 q32 0 57.5 10 q25.5 10 33.5 30 l147 0 q-28 -76 -95.5 -118 q-67.5 -42 -161.5 -42 q-72 0 -122 28 q-51 28 -73 78 q-16 33 -15 73 Z" /><glyph glyph-name="f" unicode="f" d="M0 -180 l19 120 l43 0 q40 0 66 21 q26 21 31 58 l45 281 l-152 0 l22 135 l152 0 l20 125 q8 51 38 89.5 q30 38.5 76 59.5 q46 21 103 21 l137 0 l-21 -130 l-132 0 q-20 0 -34 -12.5 q-14 -12.5 -18 -32.5 l-19 -120 l195 0 l-22 -135 l-195 0 l-46 -286 q-15 -90 -84.5 -142 q-69.5 -52 -175.5 -52 l-48 0 Z" /><glyph glyph-name="g" unicode="g" d="M204 228 q0 -26 14 -44 q18 -24 60 -24 q41 0 68 23.5 q27 23.5 34 66.5 l14 90 q2 11 2 21 q0 27 -14 45 q-20 24 -61 24 q-42 0 -68 -23.5 q-26 -23.5 -33 -66.5 l-14 -90 q-2 -12 -2 -22 ZM51 193 q0 25 4 52 l16 100 q16 98 75 156.5 q59 58.5 142 58.5 q51 0 84.5 -24 q33.5 -24 46.5 -69 l13 83 l145 0 l-85 -536 q-14 -90 -84 -142 q-70 -52 -176 -52 l-160 0 l19 120 l155 0 q42 0 68.5 21 q26.5 21 31.5 58 l3 21 l14 78 q-54 -88 -159 -88 q-83 0 -124 58 q-29 42 -29 105 Z" /><glyph glyph-name="h" unicode="h" d="M22 0 l116 730 l150 0 l-29 -180 l-21 -101 q20 50 64.5 80.5 q44.5 30.5 101.5 30.5 q80 0 120 -56 q29 -41 28 -101 q0 -23 -4 -48 l-56 -355 l-150 0 l54 340 q2 12 2 22 q0 28 -14 44 q-19 24 -59 24 q-40 0 -66 -23.5 q-26 -23.5 -33 -66.5 l-54 -340 l-150 0 Z" /><glyph glyph-name="i" unicode="i" d="M26 0 l22 136 l190 0 l44 279 l-165 0 l21 135 l305 0 l-65 -414 l160 0 l-22 -136 l-490 0 ZM298 702 q0 6 1 13 q6 36 34 57 q28 21 69 21 q41 0 62 -21 q16 -16 16 -42 q0 -7 -1 -15 q-5 -36 -33 -57 q-28 -21 -69 -21 q-41 0 -62 21 q-17 17 -17 44 Z" /><glyph glyph-name="j" unicode="j" d="M2 -180 l22 135 l160 0 q38 0 65.5 25 q27.5 25 33.5 65 l59 370 l-250 0 l21 135 l400 0 l-81 -510 q-16 -105 -84 -162.5 q-68 -57.5 -175 -57.5 l-171 0 ZM368 702 q0 6 1 13 q6 36 34 57 q28 21 69 21 q41 0 62 -21 q16 -16 16 -42 q0 -7 -1 -15 q-5 -36 -33 -57 q-28 -21 -69 -21 q-41 0 -62 21 q-17 17 -17 44 Z" /><glyph glyph-name="k" unicode="k" d="M27 0 l116 730 l150 0 l-62 -388 l72 0 l148 208 l169 0 l-195 -269 l111 -281 l-164 0 l-81 216 l-80 0 l-34 -216 l-150 0 Z" /><glyph glyph-name="l" unicode="l" d="M75 595 l22 135 l325 0 l-84 -530 q-1 -8 -1 -15 q-1 -19 9 -32 q14 -18 41 -18 l155 0 l-21 -135 l-170 0 q-88 0 -133 54 q-34 41 -34 101 q0 19 3 40 l63 400 l-175 0 Z" /><glyph glyph-name="m" unicode="m" d="M-6 0 l87 550 l123 0 l-13 -85 l2 0 q10 42 39 68.5 q29 26.5 68 26.5 q36 0 58.5 -25 q22.5 -25 23.5 -67 q11 42 40.5 67 q29.5 25 68.5 25 q49 0 77 -39 q20 -29 20 -70 q0 -15 -3 -31 l-67 -420 l-129 0 l64 403 q1 8 1 15 q0 33 -32 33 q-35 0 -43 -48 l-64 -403 l-118 0 l64 403 q1 9 1 16 q0 32 -30 32 q-37 0 -45 -48 l-64 -403 l-129 0 Z" /><glyph glyph-name="n" unicode="n" d="M22 0 l87 550 l145 0 l-17 -102 q20 51 65 81.5 q45 30.5 102 30.5 q80 0 120 -56 q29 -41 28 -101 q0 -23 -4 -48 l-56 -355 l-150 0 l54 340 q2 12 2 22 q0 28 -14 44 q-19 24 -59 24 q-40 0 -66 -23.5 q-26 -23.5 -33 -66.5 l-54 -340 l-150 0 Z" /><glyph glyph-name="o" unicode="o" d="M197 189 q0 -27 15 -45 q20 -24 63 -24 q90 0 104 90 l21 130 q2 12 2 22 q0 28 -14 45 q-20 23 -64 23 q-90 0 -104 -90 l-21 -130 q-2 -11 -2 -21 ZM46 170 q0 19 3 40 l21 130 q17 105 88.5 162.5 q71.5 57.5 186.5 57.5 q73 0 122.5 -28 q49.5 -28 71.5 -78 q15 -33 15 -72 q0 -20 -4 -42 l-21 -130 q-17 -105 -88.5 -162.5 q-71.5 -57.5 -186.5 -57.5 q-72 0 -122 28 q-50 28 -72 78 q-14 34 -14 74 Z" /><glyph glyph-name="p" unicode="p" d="M204 191 q0 -29 14 -47 q18 -24 61 -24 q41 0 67 23.5 q26 23.5 33 66.5 l21 130 q2 12 2 22 q0 28 -14 45 q-19 23 -60 23 q-43 0 -69 -24.5 q-26 -24.5 -34 -70.5 l-19 -120 q-2 -13 -2 -24 ZM-7 -180 l116 730 l145 0 l-15 -95 q26 51 68.5 78 q42.5 27 99.5 27 q52 0 88 -28 q35 -28 51 -76 q9 -28 10 -61 q0 -24 -5 -50 l-23 -140 q-16 -103 -71.5 -159 q-55.5 -56 -140.5 -56 q-54 0 -88.5 29 q-34.5 29 -44.5 81 l-16 -130 l-24 -150 l-150 0 Z" /><glyph glyph-name="q" unicode="q" d="M197 188 q0 -28 14 -44 q19 -24 60 -24 q43 0 69.5 24.5 q26.5 24.5 33.5 70.5 l19 120 q2 14 2 25 q0 28 -13 46 q-19 24 -62 24 q-41 0 -67 -23 q-26 -23 -33 -67 l-21 -130 q-2 -12 -2 -22 ZM44 156 q0 23 4 49 l23 140 q17 103 72 159 q55 56 140 56 q54 0 88.5 -29 q34.5 -29 44.5 -81 l16 100 l145 0 l-116 -730 l-150 0 l24 150 l25 125 l-1 0 q-26 -51 -68.5 -78 q-42.5 -27 -98.5 -27 q-52 0 -88 27 q-36 27 -51 75 q-9 28 -9 64 Z" /><glyph glyph-name="r" unicode="r" d="M42 0 l87 550 l145 0 l-16 -103 q21 53 66 83 q45 30 106 30 q83 0 121 -56 q27 -39 27 -100 q0 -25 -5 -54 l-8 -55 l-150 0 l7 45 q2 11 2 21 q0 27 -14 45 q-20 24 -62 24 q-42 0 -69 -26.5 q-27 -26.5 -35 -75.5 l-52 -328 l-150 0 Z" /><glyph glyph-name="s" unicode="s" d="M29 134 q0 13 2 26 l147 0 q-1 -5 -1 -10 q-1 -21 15 -32 q18 -14 57 -14 l44 0 q40 0 65.5 14.5 q25.5 14.5 29.5 39.5 q1 5 1 9 q1 17 -13 27 q-16 12 -53 16 l-123 15 q-71 9 -103 55 q-24 35 -24 82 q0 15 2 31 q27 167 241 167 l47 0 q65 0 111 -21 q48 -21 70 -57 q17 -27 16 -60 q0 -12 -2 -24 l-147 0 q1 4 1 9 q0 18 -14 28 q-18 13 -53 13 l-47 0 q-35 0 -55 -13 q-20 -13 -24 -36 q-1 -4 -1 -8 q0 -16 14 -23 q16 -8 47 -12 l118 -15 q79 -10 113 -57 q24 -34 25 -83 q0 -19 -4 -41 q-27 -170 -256 -170 l-44 0 q-102 0 -157 47 q-45 39 -45 97 Z" /><glyph glyph-name="t" unicode="t" d="M49 415 l21 135 l148 0 l25 155 l150 0 l-25 -155 l215 0 l-21 -135 l-215 0 l-37 -230 q-1 -7 -1 -11 q0 -15 7 -25 q9 -14 31 -14 l165 0 l-21 -135 l-180 0 q-84 0 -124 48 q-30 36 -30 93 q0 18 3 39 l37 235 l-148 0 Z" /><glyph glyph-name="u" unicode="u" d="M50 168 q0 22 4 46 l53 336 l150 0 l-53 -335 q-2 -14 -2 -26 q0 -69 73 -69 q86 0 101 95 l53 335 l150 0 l-53 -336 q-16 -106 -87.5 -165 q-71.5 -59 -184.5 -59 q-112 0 -164 60 q-40 46 -40 118 Z" /><glyph glyph-name="v" unicode="v" d="M67 550 l151 0 l47 -309 q5 -28 7 -58 q1 -17 2 -32 q0 -12 -1 -24 q6 26 17.5 56 q11.5 30 24.5 57 l143 310 l161 0 l-268 -550 l-188 0 l-96 550 Z" /><glyph glyph-name="w" unicode="w" d="M44 0 l4 550 l112 0 l-4 -300 q-1 -38 -5 -81 q-4 -43 -7 -72 q7 29 17 72 q10 43 23 81 l100 300 l114 0 l4 -300 q0 -10 0 -19 q0 -31 -2 -63 l-5 -72 l15 72 q9 44 21 82 l92 300 l115 0 l-171 -550 l-150 0 l4 310 q0 29 1.5 69 q1.5 40 3.5 66 q-3 -17 -9.5 -42 q-6.5 -25 -13.5 -49.5 q-7 -24.5 -13 -43.5 l-95 -310 l-151 0 Z" /><glyph glyph-name="x" unicode="x" d="M-18 0 l235 288 l-135 262 l163 0 l51 -110 q6 -13 11 -29 q5 -16 7 -26 q5 10 14.5 26 q9.5 16 19.5 29 l85 110 l171 0 l-218 -268 l144 -282 l-163 0 l-59 130 q-6 14 -12 29.5 q-6 15.5 -8 25.5 q-5 -10 -13.5 -26 q-8.5 -16 -19.5 -29 l-102 -130 l-171 0 Z" /><glyph glyph-name="y" unicode="y" d="M48 197 q0 23 4 48 l48 305 l150 0 l-46 -290 q-2 -11 -2 -21 q0 -27 14 -45 q20 -24 60 -24 q40 0 65.5 23.5 q25.5 23.5 32.5 66.5 l46 290 l150 0 l-83 -536 q-14 -90 -84 -142 q-70 -52 -176 -52 l-160 0 l19 120 l155 0 q42 0 68.5 21 q26.5 21 31.5 58 l3 21 l19 115 l-4 0 q-18 -54 -61 -84.5 q-43 -30.5 -102 -30.5 q-80 0 -120 56 q-28 41 -28 101 Z" /><glyph glyph-name="z" unicode="z" d="M26 0 l21 130 l314 290 l-258 0 l20 130 l439 0 l-20 -130 l-314 -290 l279 0 l-21 -130 l-460 0 Z" /><glyph glyph-name="braceleft" unicode="{" d="M67 289 l22 140 l140 0 q30 0 49.5 19.5 q19.5 19.5 21.5 50.5 l9 151 q3 54 30 94.5 q27 40.5 73 63 q46 22.5 105 22.5 l85 0 l-22 -140 l-55 0 q-29 0 -48 -16.5 q-19 -16.5 -21 -43.5 l-9 -151 q-3 -46 -38.5 -77.5 q-35.5 -31.5 -92.5 -41.5 q54 -10 80 -42 q17 -22 17 -50 q0 -14 -4 -29 l-39 -150 q-2 -9 -2 -17 q0 -16 9 -26 q14 -16 44 -17 l55 0 l-23 -140 l-85 0 q-88 -1 -130 51 q-27 34 -28 81 q0 25 8 53 l38 145 q3 12 3 22 q-1 17 -9 29 q-14 19 -43 19 l-140 0 Z" /><glyph glyph-name="braceright" unicode="}" d="M23 -111 l23 140 l55 0 q30 0 49 16.5 q19 16.5 20 43.5 l9 150 q3 47 39 79.5 q36 32.5 92 41.5 q-53 10 -79 42 q-18 22 -18 49 q0 13 4 28 l39 151 q2 8 2 15 q0 17 -10 29 q-14 16 -43 16 l-55 0 l22 140 l85 0 q89 0 131 -50 q28 -33 28 -80 q0 -23 -7 -50 l-39 -151 q-3 -12 -3 -21 q1 -18 9 -30 q14 -20 43 -19 l140 0 l-22 -140 l-140 0 q-30 0 -49.5 -19 q-19.5 -19 -21.5 -51 l-8 -145 q-3 -55 -30.5 -96.5 q-27.5 -41.5 -74 -65 q-46.5 -23.5 -105.5 -23.5 l-85 0 Z" /><glyph glyph-name="uni3001" unicode="&#x3001;" d="M28 87 q-9 11 -12 25.5 q-3 14.5 0.5 29.5 q3.5 15 11.5 29.5 q8 14.5 22 24.5 l22 17 q19 14 48 14 q29 0 43 -15 q26 -29 53 -62 q27 -33 49 -62 q7 -10 8 -23.5 q1 -13.5 -2.5 -27 q-3.5 -13.5 -11 -26.5 q-7.5 -13 -19.5 -21 l-24 -17 q-11 -9 -26.5 -13 q-15.5 -4 -29.5 -3 q-14 1 -26.5 7 q-12.5 6 -20.5 16 q-20 27 -41.5 54 q-21.5 27 -43.5 53 Z" /><glyph glyph-name="uni3002" unicode="&#x3002;" d="M46 83 q0 -9 3 -21 q3 -12 12 -23.5 q9 -11.5 23 -18 q14 -6.5 31 -6.5 q17 0 33.5 7 q16.5 7 30 18 q13.5 11 22.5 26 q9 15 11 27 q2 12 2 19 q0 9 -3 21.5 q-3 12.5 -12 23.5 q-9 11 -23 17.5 q-14 6.5 -31 6.5 q-17 0 -33 -6.5 q-16 -6.5 -29.5 -17.5 q-13.5 -11 -23 -26.5 q-9.5 -15.5 -11.5 -27.5 q-2 -12 -2 -19 ZM-40 68 q0 14 3 29 q6 35 24.5 65 q18.5 30 45.5 53 q27 23 60 36 q33 13 67 13 q35 0 63 -13 q28 -13 46.5 -36 q18.5 -23 24.5 -46.5 q6 -23.5 6 -41.5 q0 -14 -3 -29 q-6 -35 -24.5 -65.5 q-18.5 -30.5 -45 -53.5 q-26.5 -23 -59 -36 q-32.5 -13 -67.5 -13 q-34 0 -62.5 13 q-28.5 13 -47 36 q-18.5 23 -25 46.5 q-6.5 23.5 -6.5 42.5 Z" /><glyph glyph-name="uni300A" unicode="&#x300a;" d="M684 361 q-1 8 1 19 q2 11 5 19 l224 395 q13 23 34 35.5 q21 12.5 34 12.5 q5 0 9 -1 q11 -3 16.5 -12 q5.5 -9 7 -22 q1.5 -13 -1.5 -27 q-3 -14 -11 -28 l-209 -367 q-1 -2 -2 -5 q-1 -3 0 -5 l79 -367 q4 -14 2 -28 q-2 -14 -8.5 -27 q-6.5 -13 -15 -22 q-8.5 -9 -19.5 -12 q-5 -1 -9 -1 q-14 0 -30.5 12.5 q-16.5 12.5 -21.5 35.5 l-84 395 ZM503 361 q-1 8 1 19 q2 11 5 19 l224 395 q13 23 34 35.5 q21 12.5 34 12.5 q5 0 9 -1 q11 -3 16.5 -12 q5.5 -9 7 -22 q1.5 -13 -1.5 -27 q-3 -14 -11 -28 l-209 -367 q-1 -2 -2 -5 q-1 -3 0 -5 l79 -367 q4 -14 2 -28 q-2 -14 -8.5 -27 q-6.5 -13 -15 -22 q-8.5 -9 -19.5 -12 q-5 -1 -9 -1 q-14 0 -30.5 12.5 q-16.5 12.5 -21.5 35.5 l-84 395 Z" /><glyph glyph-name="uni300B" unicode="&#x300b;" d="M148 -69 q-6 9 -7.5 22 q-1.5 13 1.5 27 q3 14 11 28 l209 367 q1 2 2 5 q1 3 0 5 l-79 367 q-4 14 -2 28 q2 14 8.5 27 q6.5 13 15.5 22 q9 9 19 12 q5 1 9 1 q14 0 30.5 -12.5 q16.5 -12.5 21.5 -35.5 l84 -395 q1 -8 -1 -19 q-2 -11 -5 -19 l-224 -395 q-13 -23 -34 -35.5 q-21 -12.5 -34 -12.5 q-5 0 -9 1 q-10 3 -16 12 ZM-33 -69 q-6 9 -7.5 22 q-1.5 13 1.5 27 q3 14 11 28 l209 367 q1 2 2 5 q1 3 0 5 l-79 367 q-4 14 -2 28 q2 14 8.5 27 q6.5 13 15.5 22 q9 9 19 12 q5 1 9 1 q14 0 30.5 -12.5 q16.5 -12.5 21.5 -35.5 l84 -395 q1 -8 -1 -19 q-2 -11 -5 -19 l-224 -395 q-13 -23 -34 -35.5 q-21 -12.5 -34 -12.5 q-5 0 -9 1 q-10 3 -16 12 Z" /><glyph glyph-name="uni300C" unicode="&#x300c;" d="M606 292 l87 491 q3 14 11 26.5 q8 12.5 20.5 23 q12.5 10.5 26.5 16.5 q14 6 27 6 l196 0 q14 0 25.5 -5.5 q11.5 -5.5 20.5 -14.5 q9 -9 12.5 -21 q3.5 -12 1.5 -24 q-2 -12 -10 -23.5 q-8 -11.5 -20 -21 q-12 -9.5 -25.5 -15 q-13.5 -5.5 -27.5 -5.5 l-119 0 q-2 0 -4.5 -2 q-2.5 -2 -2.5 -4 l-76 -428 q-2 -13 -10.5 -26 q-8.5 -13 -20 -23 q-11.5 -10 -25.5 -16 q-14 -6 -27 -6 q-13 0 -25 6 q-12 6 -20.5 16.5 q-8.5 10.5 -12.5 23.5 q-4 13 -2 26 Z" /><glyph glyph-name="uni300D" unicode="&#x300d;" d="M-58 -53.5 q-4 11.5 -2 23.5 q2 12 10 24 q8 12 20 21 q12 9 26 14.5 q14 5.5 27 5.5 l119 0 q2 0 4.5 2 q2.5 2 2.5 4 l76 428 q2 13 10.5 26 q8.5 13 20.5 23 q12 10 26 16 q14 6 27 6 q13 0 25 -6 q12 -6 20 -16.5 q8 -10.5 12 -23 q4 -12.5 2 -26.5 l-87 -491 q-3 -14 -11 -26.5 q-8 -12.5 -20.5 -23 q-12.5 -10.5 -26 -16.5 q-13.5 -6 -27.5 -6 l-196 0 q-13 0 -25 5.5 q-12 5.5 -20.5 15 q-8.5 9.5 -12.5 21 Z" /><glyph glyph-name="uni300E" unicode="&#x300e;" d="M614 252 q0 -3 1.5 -5 q1.5 -2 4.5 -2 l91 0 q3 0 5.5 2 q2.5 2 2.5 4 l69 392 q3 14 11 26.5 q8 12.5 20.5 23 q12.5 10.5 26.5 16.5 q14 6 27 6 l93 0 q2 0 4 2 q2 2 2 4 l14 78 q0 2 -1.5 4 q-1.5 2 -3.5 2 l-263 0 q-2 0 -4.5 -2 q-2.5 -2 -2.5 -5 l-97 -546 ZM567 267 l91 516 q3 14 11 26.5 q8 12.5 20.5 23 q12.5 10.5 26.5 16.5 q14 6 27 6 l231 0 q14 0 25.5 -6 q11.5 -6 20 -16 q8.5 -10 12.5 -23 q4 -13 1 -26 l-8 -48 q-3 -13 -11 -26 q-8 -13 -20.5 -23 q-12.5 -10 -26 -16 q-13.5 -6 -27.5 -6 l-93 0 q-2 0 -3.5 -2 q-1.5 -2 -2.5 -4 l-69 -392 q-2 -13 -10.5 -26 q-8.5 -13 -21 -23.5 q-12.5 -10.5 -26 -16.5 q-13.5 -6 -27.5 -6 l-61 0 q-13 0 -25 6 q-12 6 -20.5 16.5 q-8.5 10.5 -12 23.5 q-3.5 13 -1.5 26 Z" /><glyph glyph-name="uni300F" unicode="&#x300f;" d="M-12 -39 q0 -2 1.5 -4 q1.5 -2 3.5 -2 l263 0 q2 0 4.5 2 q2.5 2 2.5 5 l97 546 q0 3 -1.5 5 q-1.5 2 -4.5 2 l-91 0 q-3 0 -5.5 -2 q-2.5 -2 -2.5 -4 l-69 -392 q-3 -13 -11 -26 q-8 -13 -20.5 -23.5 q-12.5 -10.5 -26 -16.5 q-13.5 -6 -27.5 -6 l-93 0 q-2 0 -4 -2 q-2 -2 -2 -4 l-14 -78 ZM-59 -24 l8 48 q3 13 11 26 q8 13 20.5 23 q12.5 10 26.5 16 q14 6 27 6 l93 0 q2 0 3.5 2 q1.5 2 2.5 4 l69 392 q2 14 10.5 26.5 q8.5 12.5 21 23 q12.5 10.5 26.5 16.5 q14 6 27 6 l61 0 q14 0 25.5 -6 q11.5 -6 20 -16.5 q8.5 -10.5 12 -23 q3.5 -12.5 1.5 -26.5 l-91 -516 q-3 -14 -11 -26.5 q-8 -12.5 -20.5 -23 q-12.5 -10.5 -26 -16.5 q-13.5 -6 -27.5 -6 l-231 0 q-13 0 -25 6 q-12 6 -20.5 16 q-8.5 10 -12.5 23 q-4 13 -1 26 Z" /><glyph glyph-name="uni3010" unicode="&#x3010;" d="M573 -23 l142 806 q3 14 11 26.5 q8 12.5 20.5 23 q12.5 10.5 26.5 16.5 q14 6 27 6 l224 0 q21 -1 21 -2 q0 -2 -7 -7.5 q-7 -5.5 -15 -12.5 q-43 -36 -84.5 -82.5 q-41.5 -46.5 -75.5 -103 q-34 -56.5 -59.5 -123 q-25.5 -66.5 -39.5 -144.5 q-11 -61 -11 -118 q0 -11 1.5 -49.5 q1.5 -38.5 15 -96 q13.5 -57.5 38 -105.5 q24.5 -48 55.5 -84 q6 -7 11 -12.5 q5 -5.5 5 -6.5 q-1 -2 -23.5 -2.5 q-22.5 -0.5 -49.5 -0.5 l-174 0 q-13 0 -25 6 q-12 6 -20.5 16.5 q-8.5 10.5 -12.5 23 q-4 12.5 -1 26.5 Z" /><glyph glyph-name="uni3011" unicode="&#x3011;" d="M-71 -92 q0 1 7 6.5 q7 5.5 15 12.5 q44 36 85 82.5 q41 46.5 75 103 q34 56.5 59.5 123 q25.5 66.5 39.5 144.5 q11 61 11 118 q0 11 -1.5 49.5 q-1.5 38.5 -15 96 q-13.5 57.5 -37.5 105.5 q-24 48 -56 84 q-6 7 -11 12.5 q-5 5.5 -5 7.5 q1 1 23.5 1.5 q22.5 0.5 49.5 0.5 l174 0 q14 0 25.5 -6 q11.5 -6 20 -16.5 q8.5 -10.5 12.5 -23 q4 -12.5 1 -26.5 l-142 -806 q-3 -14 -11 -26.5 q-8 -12.5 -20.5 -23 q-12.5 -10.5 -26 -16.5 q-13.5 -6 -27.5 -6 l-174 0 q-27 0 -49 1 q-22 0 -22 2 Z" /><glyph glyph-name="uni4E00" unicode="&#x4e00;" d="M22 382 l3 15 q2 14 10.5 26.5 q8.5 12.5 21 23 q12.5 10.5 26.5 16.5 q14 6 28 6 l786 0 q14 0 26 -6 q12 -6 20.5 -16.5 q8.5 -10.5 12 -23 q3.5 -12.5 1.5 -26.5 l-3 -15 q-2 -13 -10.5 -26 q-8.5 -13 -20.5 -23.5 q-12 -10.5 -26 -16.5 q-14 -6 -28 -6 l-786 0 q-14 0 -26 6 q-12 6 -21 16.5 q-9 10.5 -12.5 23.5 q-3.5 13 -1.5 26 Z" /><glyph glyph-name="uni4E01" unicode="&#x4e01;" d="M95 707 l1 10 q3 13 11 26 q8 13 20.5 23 q12.5 10 26.5 16 q14 6 27 6 l757 0 q14 0 25.5 -6 q11.5 -6 20 -16 q8.5 -10 12.5 -23 q4 -13 1 -26 l-1 -10 q-3 -13 -11 -26 q-8 -13 -20.5 -23 q-12.5 -10 -26 -16 q-13.5 -6 -27.5 -6 l-261 0 l-94 -534 q-12 -70 -36.5 -106.5 q-24.5 -36.5 -75.5 -55.5 q-40 -16 -90 -22 q-50 -6 -109 -7 q-1 0 -2 0 q-21 0 -40 17 q-19 17 -23 37 q0 4 -0.5 7.5 q-0.5 3.5 -2.5 7.5 q-2 10 -2 20 q0 28 19.5 53 q19.5 25 59.5 25 q1 0 3 0 q29 -1 47 -1 l38 0 q19 1 28 6.5 q9 5.5 12 21.5 l93 531 l-321 0 q-13 0 -25 6 q-12 6 -20.5 16 q-8.5 10 -12.5 23 q-4 13 -1 26 Z" /><glyph glyph-name="uni4E03" unicode="&#x4e03;" d="M40 403 l0 7 q1 14 8 27.5 q7 13.5 17 25 q10 11.5 23 19.5 q13 8 27 10 l213 31 l42 237 q2 14 10.5 26.5 q8.5 12.5 21 23 q12.5 10.5 26.5 16.5 q14 6 28 6 l15 0 q14 0 25.5 -6 q11.5 -6 20 -16 q8.5 -10 12 -23 q3.5 -13 1.5 -26 l-38 -215 l416 60 q13 2 26 -2.5 q13 -4.5 23 -13 q10 -8.5 16.5 -20 q6.5 -11.5 5.5 -25.5 l0 -8 q-1 -13 -7.5 -27 q-6.5 -14 -17 -25.5 q-10.5 -11.5 -23.5 -19.5 q-13 -8 -27 -10 l-439 -61 l-41 -236 q-5 -26 -5.5 -41.5 q-0.5 -15.5 5.5 -23.5 q6 -8 19.5 -10.5 q13.5 -2.5 37.5 -2.5 l169 0 q20 0 34.5 4.5 q14.5 4.5 25.5 17 q11 12.5 21 34.5 q10 22 20 56 q12 41 37.5 53.5 q25.5 12.5 43.5 12.5 q16 0 32 -7 q19 -8 28.5 -27.5 q9.5 -19.5 9.5 -33.5 q0 -9 -3 -18 q-19 -65 -39.5 -110 q-20.5 -45 -49.5 -73.5 q-29 -28.5 -70 -41.5 q-41 -13 -103 -13 l-197 0 q-63 0 -102.5 10.5 q-39.5 10.5 -60 36.5 q-20.5 26 -21.5 51 q-1 25 -1 32 q0 40 9 95 l37 212 l-190 -27 q-14 -2 -26.5 2.5 q-12.5 4.5 -22.5 12.5 q-10 8 -16 19.5 q-6 11.5 -6 24.5 Z" /><glyph glyph-name="uni4E07" unicode="&#x4e07;" d="M-21 0 q0 12 8 36.5 q8 24.5 40 49.5 q67 50 111.5 110 q44.5 60 74 126 q29.5 66 48 136 q18.5 70 34.5 141 q2 13 10.5 25.5 q8.5 12.5 20.5 22.5 q1 0 2 1 l-164 0 q-14 0 -26 6 q-12 6 -20.5 16 q-8.5 10 -12.5 23 q-4 13 -1 26 q2 14 10.5 26.5 q8.5 12.5 20.5 22.5 q12 10 26 16 q14 6 28 6 l741 0 q14 0 26 -6 q12 -6 21 -16 q9 -10 12.5 -22.5 q3.5 -12.5 1.5 -26.5 q-3 -13 -11 -26 q-8 -13 -20.5 -23 q-12.5 -10 -26.5 -16 q-14 -6 -28 -6 l-473 0 l3 -3 q8 -10 11.5 -23 q3.5 -13 0.5 -27 q-11 -50 -24 -99 q6 3 13 6 q14 6 27 6 l344 0 q14 0 25 -6 q11 -6 20 -16 q2 -2 4 -5 q4 -4 7 -9 q3 -7 4 -15 q1 -9 -1 -19 q-2 -11 -8 -21 q-21 -96 -39 -167 q-20 -80 -38 -135 q-18 -55 -35 -88 q-17 -33 -35 -51 q-30 -29 -60 -40.5 q-30 -11.5 -68 -16.5 q-22 -3 -43.5 -4 q-21.5 -1 -37.5 -1 q-15 0 -31 1 q-24 0 -43.5 16.5 q-19.5 16.5 -21.5 36.5 q-1 5 -1 9 q0 30 24 53 q24 23 66 23 q2 0 3 0 l45 0 q16 0 27 2.5 q11 2.5 24 11.5 q13 10 26.5 39 q13.5 29 29 80 q15.5 51 33.5 125 q6 27 13 57 l-258 0 q-13 0 -25 6 q-12 6 -20 16 q-24 -75 -58 -145 q-41 -83 -100.5 -157 q-59.5 -74 -144.5 -135 q-13 -9 -27.5 -12.5 q-14.5 -3.5 -28 -1.5 q-13.5 2 -25.5 8.5 q-12 6.5 -18 16.5 q-12 16 -12 36 Z" /><glyph glyph-name="uni4E09" unicode="&#x4e09;" d="M173 365 l1 4 q3 14 11 26.5 q8 12.5 20.5 23 q12.5 10.5 26.5 16.5 q14 6 27 6 l469 0 q14 0 25.5 -6 q11.5 -6 20 -16.5 q8.5 -10.5 12.5 -23 q4 -12.5 1 -26.5 l-1 -4 q-2 -13 -10.5 -26 q-8.5 -13 -20.5 -23.5 q-12 -10.5 -25.5 -16.5 q-13.5 -6 -27.5 -6 l-469 0 q-13 0 -25 6 q-12 6 -21 16.5 q-9 10.5 -12.5 23.5 q-3.5 13 -1.5 26 ZM157 683 l1 5 q3 14 11 26.5 q8 12.5 20.5 23 q12.5 10.5 26.5 16.5 q14 6 27 6 l622 0 q14 0 25.5 -6 q11.5 -6 20 -16.5 q8.5 -10.5 12.5 -23 q4 -12.5 1 -26.5 l-1 -5 q-2 -13 -10 -26 q-8 -13 -20.5 -23.5 q-12.5 -10.5 -26 -16.5 q-13.5 -6 -27.5 -6 l-622 0 q-13 0 -25 6 q-12 6 -20.5 16.5 q-8.5 10.5 -12.5 23.5 q-4 13 -2 26 ZM-14 30 l1 5 q3 14 11 26.5 q8 12.5 20.5 23 q12.5 10.5 26.5 16.5 q14 6 27 6 l730 0 q14 0 25.5 -6 q11.5 -6 20 -16.5 q8.5 -10.5 12.5 -23 q4 -12.5 1 -26.5 l-1 -5 q-2 -13 -10.5 -26 q-8.5 -13 -20.5 -23.5 q-12 -10.5 -25.5 -16.5 q-13.5 -6 -27.5 -6 l-730 0 q-13 0 -25 6 q-12 6 -21 16.5 q-9 10.5 -12.5 23.5 q-3.5 13 -1.5 26 Z" /><glyph glyph-name="uni4E0A" unicode="&#x4e0a;" d="M-36 26 l0 5 q3 13 11 26 q8 13 20.5 23 q12.5 10 26.5 16 q14 6 27 6 l279 0 l118 670 q3 14 11 26.5 q8 12.5 20 23 q12 10.5 26 16.5 q14 6 27 6 l15 0 q13 0 25 -6 q12 -6 20 -16.5 q8 -10.5 12 -23 q4 -12.5 1 -26.5 l-36 -204 l272 0 q14 0 25.5 -6 q11.5 -6 20.5 -16 q9 -10 12.5 -23 q3.5 -13 1.5 -26 l-1 -5 q-3 -13 -11 -26 q-8 -13 -20.5 -23 q-12.5 -10 -26 -16 q-13.5 -6 -27.5 -6 l-272 0 l-56 -319 l343 0 q14 0 25.5 -6 q11.5 -6 20 -16 q8.5 -10 12.5 -23 q4 -13 1 -26 l0 -5 q-3 -13 -11 -26 q-8 -13 -20.5 -23 q-12.5 -10 -26 -16 q-13.5 -6 -27.5 -6 l-779 0 q-13 0 -25 6 q-12 6 -20.5 16 q-8.5 10 -12.5 23 q-4 13 -1 26 Z" /><glyph glyph-name="uni4E0B" unicode="&#x4e0b;" d="M94 706 l1 5 q3 13 11 26 q8 13 20.5 23 q12.5 10 26.5 16 q14 6 27 6 l757 0 q14 0 25.5 -6 q11.5 -6 20 -16 q8.5 -10 12.5 -23 q4 -13 1 -26 l-1 -5 q-2 -13 -10 -26 q-8 -13 -20.5 -23 q-12.5 -10 -26 -16 q-13.5 -6 -27.5 -6 l-358 0 q7 -5 12 -11 q8 -11 12 -23.5 q4 -12.5 1 -26.5 l-16 -90 q14 9 33 13 q9 2 17 2 q16 0 26 -7 q25 -15 51.5 -31 q26.5 -16 53.5 -33 q27 -17 52 -34.5 q25 -17.5 47 -34.5 q10 -7 14.5 -19.5 q4.5 -12.5 3.5 -26 q-1 -13.5 -6.5 -27 q-5.5 -13.5 -15.5 -23.5 l-19 -19 q-11 -12 -25.5 -18.5 q-14.5 -6.5 -30 -8 q-15.5 -1.5 -30 2 q-14.5 3.5 -24.5 12.5 q-17 15 -37.5 31 q-20.5 16 -42 32 q-21.5 16 -44.5 31.5 q-23 15.5 -44 30.5 q-1 0 -1 1 l-67 -378 q-2 -14 -10 -26.5 q-8 -12.5 -20 -23 q-12 -10.5 -26 -16.5 q-14 -6 -27 -6 l-15 0 q-13 0 -25 6 q-12 6 -20 16.5 q-8 10.5 -12 23 q-4 12.5 -2 26.5 l105 594 q3 14 11 26.5 q8 12.5 20 23.5 q8 6 16 11 l-314 0 q-13 0 -25 6 q-12 6 -20.5 16 q-8.5 10 -12.5 23 q-4 13 -2 26 Z" /><glyph glyph-name="uni4E0D" unicode="&#x4e0d;" d="M579 400.5 q-4 14.5 -1.5 29.5 q2.5 15 12 30 q9.5 15 23.5 25 l4 4 q20 14 47.5 14 q27.5 0 41.5 -13 q26 -22 52 -46 q26 -24 51.5 -48.5 q25.5 -24.5 50 -49 q24.5 -24.5 45.5 -47.5 q8 -9 11 -22 q3 -13 0 -27 q-3 -14 -11 -27 q-8 -13 -20 -22 l-17 -14 q-13 -10 -28 -14 q-15 -4 -30 -3.5 q-15 0.5 -27.5 6.5 q-12.5 6 -20.5 16 q-17 22 -37 45 q-20 23 -42 46 q-22 23 -45 46.5 q-23 23.5 -45 45.5 q-10 11 -14 25.5 ZM33 230 q0 16 6.5 31.5 q6.5 15.5 19 30 q12.5 14.5 29.5 23.5 q62 34 120 76 q58 42 110.5 88.5 q52.5 46.5 97.5 96.5 q30 32 56 65 l-305 0 q-13 0 -25 6 q-12 6 -20.5 16.5 q-8.5 10.5 -12.5 23.5 q-4 13 -1 26 l1 5 q2 14 10 26.5 q8 12.5 20.5 23 q12.5 10.5 26.5 16.5 q14 6 27 6 l734 0 q14 0 25.5 -6 q11.5 -6 20 -16.5 q8.5 -10.5 12.5 -23 q4 -12.5 2 -26.5 l-1 -5 q-3 -13 -11 -26 q-8 -13 -20.5 -23.5 q-12.5 -10.5 -26 -16.5 q-13.5 -6 -27.5 -6 l-249 0 q0 -4 -1 -7 q-3 -16 -13 -29 q-24 -30 -50 -60 q1 -1 1 -2 q3 -8 3 -19 q0 -9 -2 -19 l-93 -526 q-2 -14 -10.5 -26.5 q-8.5 -12.5 -20.5 -23 q-12 -10.5 -25.5 -16.5 q-13.5 -6 -27.5 -6 l-15 0 q-14 0 -26 6 q-12 6 -21 16.5 q-9 10.5 -12.5 23 q-3.5 12.5 -1.5 26.5 l68 380 q-61 -52 -126 -99 q-69 -50 -143 -90 q-12 -7 -26 -8 q-14 -1 -26.5 2.5 q-12.5 3.5 -23.5 11 q-11 7.5 -17 17.5 q-1 1 -1 2 l0 2 q-9 15 -9 33 Z" /><glyph glyph-name="uni4E0E" unicode="&#x4e0e;" d="M164 422 q0 13 6 26 q15 37 30.5 77 q15.5 40 30 81.5 q14.5 41.5 29 84 q14.5 42.5 27.5 82.5 q5 13 14.5 25 q9.5 12 22 21 q12.5 9 26.5 13.5 q14 4.5 26 3.5 l6 -1 q14 -1 25.5 -9 q11.5 -8 18.5 -19.5 q7 -11.5 8.5 -26 q1.5 -14.5 -2.5 -28.5 l-4 -10 q7 1 13 1 l433 0 q14 0 25.5 -6 q11.5 -6 20.5 -15.5 q9 -9.5 12.5 -22 q3.5 -12.5 1.5 -25.5 q-2 -13 -10.5 -25.5 q-8.5 -12.5 -20.5 -22.5 q-12 -10 -25.5 -16 q-13.5 -6 -27.5 -6 l-433 0 q-13 0 -25 6 q-4 2 -8 5 q-8 -20 -14 -39 q-16 -43 -30 -84 q-1 -1 -1 -2 q9 3 18 3 l505 0 q14 0 25.5 -5.5 q11.5 -5.5 20.5 -15 q9 -9.5 12.5 -21.5 q3.5 -12 1.5 -25 q-2 -12 -10 -24 q-1 -2 -3 -4 q-23 -88 -42 -154 q-23 -76 -44 -129 q-21 -53 -41.5 -86.5 q-20.5 -33.5 -41.5 -52.5 q-35 -30 -67 -41 q-32 -11 -77 -15 q-25 -3 -47 -3.5 q-22 -0.5 -34 -0.5 q-23 0 -48 1 q-24 0 -43 17.5 q-19 17.5 -22 37.5 q-1 6 -1 12 q0 29 22 51.5 q22 22.5 65 22.5 q2 0 3 0 q13 0 22 -0.5 q9 -0.5 18 -1.5 l40 0 q18 0 31.5 2.5 q13.5 2.5 26.5 11.5 q16 11 33 40.5 q17 29.5 35.5 79.5 q18.5 50 39.5 121 q6 23 13 48 l-417 0 q-13 0 -25 6 q-12 6 -20 16 q-2 1 -3 2 l-8 -6 q-24 -18 -45 -18 l-9 0 q-17 0 -29.5 8 q-12.5 8 -20 20.5 q-7.5 12.5 -8.5 22 q-1 9.5 -1 12.5 ZM1.5 179.5 q-3.5 12.5 -1.5 25.5 q2 13 10.5 25.5 q8.5 12.5 20.5 22 q12 9.5 26 15.5 q14 6 27 6 l482 0 q14 0 25.5 -6 q11.5 -6 20.5 -15.5 q9 -9.5 12.5 -22 q3.5 -12.5 1.5 -25.5 q-2 -13 -10.5 -25.5 q-8.5 -12.5 -20.5 -22.5 q-12 -10 -25.5 -16 q-13.5 -6 -27.5 -6 l-482 0 q-13 0 -25 6 q-12 6 -21 16 q-9 10 -12.5 22.5 Z" /><glyph glyph-name="uni4E13" unicode="&#x4e13;" d="M54 501 q3 13 11 25.5 q8 12.5 20 22 q12 9.5 26.5 15.5 q14.5 6 27.5 6 l191 0 q15 33 29 66 l-124 0 q-13 0 -25 6 q-12 6 -20.5 16 q-8.5 10 -12.5 22 q-4 12 -2 25 q3 13 11 25.5 q8 12.5 20 22 q12 9.5 26 15.5 q14 6 27 6 l157 0 q5 13 10 25 q5 12 15 23 q10 11 23 19 q13 8 26.5 12.5 q13.5 4.5 25.5 2.5 l8 -1 q14 -2 25 -10.5 q11 -8.5 17.5 -21 q6.5 -12.5 7.5 -26.5 q1 -12 -3 -23 l292 0 q14 0 25.5 -6 q11.5 -6 20.5 -15.5 q9 -9.5 13 -22 q4 -12.5 1 -25.5 q-2 -13 -10 -25 q-8 -12 -20.5 -22 q-12.5 -10 -26 -16 q-13.5 -6 -27.5 -6 l-326 0 q-15 -33 -29 -66 l416 0 q14 0 25 -6 q11 -6 20 -15.5 q9 -9.5 13 -22 q4 -12.5 1 -25.5 q-2 -13 -10 -25.5 q-8 -12.5 -20.5 -22.5 q-12.5 -10 -26 -16 q-13.5 -6 -27.5 -6 l-453 0 q-11 -23 -20 -45 q-6 -12 -11 -23 l326 0 q14 0 25 -6 q2 2 5 3 q7 3 15 3 q2 0 5 0.5 q3 0.5 5 1.5 q9 2 20 0.5 q11 -1.5 17 -6.5 l15 -9 q13 -8 19.5 -21.5 q6.5 -13.5 6 -28.5 q-0.5 -15 -7.5 -30.5 q-7 -15.5 -21 -27.5 q-30 -26 -61 -53 q-31 -27 -63 -54 q-32 -27 -63 -54 l-6 -4 q26 -11 50 -21 q13 -6 20.5 -17.5 q7.5 -11.5 8.5 -26 q1 -14.5 -3.5 -29.5 q-4.5 -15 -15.5 -27 l-2 -4 q-18 -21 -40.5 -27 q-22.5 -6 -34.5 -6 q-15 0 -26 6 q-31 16 -69.5 33 q-38.5 17 -80.5 33 q-42 16 -85.5 31 q-43.5 15 -86.5 28 q-17 5 -27 16.5 q-10 11.5 -13.5 25.5 q-3.5 14 0 30 q3.5 16 16.5 30 q11 13 29.5 19.5 q18.5 6.5 29.5 6.5 q6 0 11 -1 q44 -10 93 -24 q41 -12 82 -25 q2 2 5 4 q35 29 69 58 l46 38 l-243 0 q-14 0 -26 6 q-8 4 -15 10 l-1 -1 q-24 -15 -43 -15 l-10 0 q-18 0 -31 8 q-13 8 -20 21.5 q-7 13.5 -7 30.5 q0 15 8 31 q26 53 53 112 l-155 0 q-13 0 -25 6 q-12 6 -20.5 16 q-8.5 10 -12.5 22.5 q-4 12.5 -2 25.5 Z" /><glyph glyph-name="uni4E14" unicode="&#x4e14;" d="M357 564 q5 1 10 1 l304 0 q13 0 25 -5 q0 -1 1 -1 l17 100 q1 2 -0.5 3.5 q-1.5 1.5 -3.5 1.5 l-330 0 q-2 0 -3.5 -1.5 q-1.5 -1.5 -2.5 -3.5 l-17 -95 ZM316 330 q5 1 9 1 l304 0 q13 0 25 -6 q1 0 1 -1 l20 113 l-1 0 q-14 -6 -27 -6 l-304 0 q-4 0 -9 1 l-18 -102 ZM274 87 l340 0 l0 1 l19 109 l-1 0 q-14 -6 -27 -6 l-304 0 q-4 0 -9 1 l-18 -104 l0 -1 ZM-31 16 q2 14 10.5 26.5 q8.5 12.5 20 22.5 q11.5 10 25.5 16 q14 6 27 6 l77 0 l0 1 l113 644 q3 14 11 26.5 q8 12.5 20.5 23 q12.5 10.5 26.5 16.5 q14 6 27 6 l493 0 q14 0 25.5 -6 q11.5 -6 20 -16.5 q8.5 -10.5 12.5 -23 q4 -12.5 1 -26.5 l-113 -644 l0 -1 l54 0 q13 0 25 -6 q12 -6 20.5 -16 q8.5 -10 12 -22.5 q3.5 -12.5 1.5 -26.5 q-2 -13 -10.5 -26 q-8.5 -13 -20.5 -23 q-12 -10 -26 -16 q-14 -6 -27 -6 l-768 0 q-13 0 -25 6 q-12 6 -20 16 q-8 10 -11.5 23 q-3.5 13 -1.5 26 Z" /><glyph glyph-name="uni4E16" unicode="&#x4e16;" d="M553 329 q0 -2 1.5 -4 q1.5 -2 4.5 -2 l94 0 q3 0 5.5 2 q2.5 2 2.5 4 l27 150 l-109 0 l-26 -150 ZM58.5 523.5 q-3.5 12.5 -1.5 25.5 q2 13 10.5 25.5 q8.5 12.5 20.5 22.5 q12 10 26 16 q14 6 27 6 l58 0 l24 134 q2 13 10.5 26 q8.5 13 20.5 23 q12 10 26 16 q14 6 27 6 l7 0 q14 0 25.5 -6 q11.5 -6 20.5 -16 q9 -10 12.5 -23 q3.5 -13 1.5 -26 l-24 -134 l109 0 l27 154 q3 14 11 26.5 q8 12.5 20.5 23 q12.5 10.5 26.5 16.5 q14 6 28 6 q14 0 25.5 -6 q11.5 -6 20 -16 q8.5 -10 12.5 -23 q4 -13 1 -26 l-27 -155 l108 0 l26 145 q2 14 10.5 26.5 q8.5 12.5 20.5 23 q12 10.5 26 16.5 q14 6 27 6 l9 0 q14 0 25.5 -6 q11.5 -6 20.5 -16.5 q9 -10.5 12.5 -23 q3.5 -12.5 1.5 -26.5 l-26 -145 l51 0 q14 0 25.5 -6 q11.5 -6 20.5 -16 q9 -10 12.5 -22.5 q3.5 -12.5 1.5 -25.5 q-2 -13 -10.5 -25.5 q-8.5 -12.5 -20.5 -22.5 q-12 -10 -26 -16 q-14 -6 -28 -6 l-51 0 l-38 -217 q-2 -13 -10.5 -26 q-8.5 -13 -20.5 -23.5 q-12 -10.5 -26 -16.5 q-14 -6 -28 -6 l-260 0 q-14 0 -26 6 q-12 6 -21 16.5 q-9 10.5 -12.5 23.5 q-3.5 13 -1.5 26 l38 217 l-108 0 l-67 -379 q-1 -2 1 -4 q2 -2 4 -2 l536 0 q14 0 25 -6 q11 -6 20 -16 q9 -10 13 -22.5 q4 -12.5 1 -25.5 q-2 -13 -10.5 -26 q-8.5 -13 -20.5 -23 q-12 -10 -25.5 -16 q-13.5 -6 -27.5 -6 l-621 0 q-13 0 -25 6 q-12 6 -21 16 q-9 10 -12.5 23 q-3.5 13 -1.5 26 l81 455 l-59 0 q-13 0 -24.5 6 q-11.5 6 -20.5 16 q-9 10 -12.5 22.5 Z" /><glyph glyph-name="uni4E1A" unicode="&#x4e1a;" d="M-30 22 q2 14 10.5 26.5 q8.5 12.5 20 23 q11.5 10.5 26 16.5 q14.5 6 27.5 6 l180 0 q-1 9 0 19 l35 196 q-1 -1 -1 -2 q-4 -13 -12.5 -24.5 q-8.5 -11.5 -20 -21 q-11.5 -9.5 -22.5 -13.5 l-8 -2 q-15 -5 -30 -3 q-15 2 -27 9.5 q-12 7.5 -20 19.5 q-8 12 -9 27 q-2 28 -5 58.5 q-3 30.5 -6 62 q-3 31.5 -7.5 63.5 q-4.5 32 -8.5 63 q-1 13 3.5 27 q4.5 14 13 27 q8.5 13 20.5 22.5 q12 9.5 26 13.5 q8 2 17 2 q17 0 37 -11.5 q20 -11.5 25 -36.5 q5 -32 10.5 -65.5 q5.5 -33.5 10.5 -66.5 q5 -33 9.5 -65 q4.5 -32 7.5 -61 l0 -5 l78 443 q2 14 10.5 26.5 q8.5 12.5 20.5 23 q12 10.5 26 16.5 q14 6 28 6 l4 0 q14 0 26 -6 q12 -6 21 -16.5 q9 -10.5 12.5 -23 q3.5 -12.5 1.5 -26.5 l-116 -657 q-1 -10 -6 -19 l116 0 q0 6 1 12 l117 664 q2 14 10.5 27 q8.5 13 21 23.5 q12.5 10.5 26.5 16.5 q14 6 28 6 l4 0 q14 0 26 -6 q12 -6 20.5 -16.5 q8.5 -10.5 12 -23.5 q3.5 -13 1.5 -27 l-78 -444 q2 7 7 14 q17 26 33 53.5 q16 27.5 32.5 57 q16.5 29.5 32 59 q15.5 29.5 29.5 59.5 q8 16 21 28 q13 12 28.5 18.5 q15.5 6.5 31 7 q15.5 0.5 29.5 -6.5 q9 -5 15 -15 q6 -10 9 -22 q3 -12 1.5 -25 q-1.5 -13 -7.5 -24 q-17 -33 -35.5 -66 q-18.5 -33 -36.5 -65 q-18 -32 -37 -62 q-19 -30 -37 -58 q-8 -12 -20 -21.5 q-12 -9.5 -26 -14 q-14 -4.5 -27.5 -5 q-13.5 -0.5 -23.5 5.5 q-10 6 -16 17 q-6 11 -7 25 q-1 6 -1 13 l-34 -193 q-1 -6 -4 -12 l181 0 q13 0 24.5 -6 q11.5 -6 20 -16.5 q8.5 -10.5 12 -23 q3.5 -12.5 1.5 -26.5 q-3 -14 -11 -27 q-8 -13 -20 -23.5 q-12 -10.5 -26 -16.5 q-14 -6 -27 -6 l-768 0 q-13 0 -25 6 q-12 6 -20 16.5 q-8 10.5 -12 23.5 q-4 13 -1 27 Z" /><glyph glyph-name="uni4E1C" unicode="&#x4e1c;" d="M662 131 q-7 14 -8 29.5 q-1 15.5 4.5 30.5 q5.5 15 17 28 q11.5 13 27.5 20 q11 5 24 5 q9 0 25.5 -4 q16.5 -4 25.5 -18 q12 -17 24 -35 q12 -18 23 -36.5 q11 -18.5 22 -36.5 q11 -18 20 -36 q6 -11 5 -25.5 q-1 -14.5 -7.5 -28 q-6.5 -13.5 -17 -25 q-10.5 -11.5 -24.5 -17.5 l-3 -2 q-13 -6 -28 -6 q-15 0 -28 4.5 q-13 4.5 -23.5 13 q-10.5 8.5 -15.5 19.5 q-7 14 -14 29 q-7 15 -15 30 q-8 15 -17 30.5 q-9 15.5 -17 30.5 ZM104 661 q2 13 10 25.5 q8 12.5 20.5 22 q12.5 9.5 26.5 15.5 q14 6 27 6 l193 0 q26 37 51 76 q7 11 19 20 q12 9 26 14.5 q14 5.5 28 7 q14 1.5 25 -2.5 l20 -7 q14 -5 22.5 -16 q8.5 -11 12 -25 q3.5 -14 1 -29 q-2.5 -15 -13.5 -28 q-4 -5 -7 -10 l353 0 q14 0 25.5 -6 q11.5 -6 20 -15.5 q8.5 -9.5 12.5 -22 q4 -12.5 2 -25.5 q-3 -13 -11 -25.5 q-8 -12.5 -20.5 -22.5 q-12.5 -10 -26 -16 q-13.5 -6 -27.5 -6 l-436 0 q-20 -24 -40 -47 q-40 -46 -79 -87 l-6 -6 l145 0 l8 43 q3 14 11 27 q8 13 20.5 23.5 q12.5 10.5 26.5 16.5 q14 6 27 6 l4 0 q14 0 25.5 -6 q11.5 -6 20 -16 q8.5 -10 12.5 -23 q4 -13 1 -26 l-8 -45 l194 0 q14 0 25.5 -6 q11.5 -6 20 -16.5 q8.5 -10.5 12 -23 q3.5 -12.5 1.5 -26.5 q-2 -13 -10.5 -25 q-8.5 -12 -20 -22 q-11.5 -10 -25.5 -16 q-14 -6 -27 -6 l-195 0 l-41 -237 q-9 -53 -27 -84.5 q-18 -31.5 -56 -48.5 q-26 -13 -56.5 -19 q-30.5 -6 -65.5 -8 q-1 0 -3 0 q-22 0 -41 16.5 q-19 16.5 -22 36.5 q-1 7 -1 14 q0 28 22.5 52.5 q22.5 24.5 63.5 25.5 l2 0 l0 -1 l11 1 q13 0 18 3.5 q5 3.5 7 14.5 l41 234 l-195 0 q-23 0 -44.5 4.5 q-21.5 4.5 -37.5 13.5 q-9 4 -16 11 l-1 0 q-16 3 -26 12.5 q-10 9.5 -14 24.5 q-2 12 3 26.5 q5 14.5 14 30 q9 15.5 22 30.5 q11 13 23 25 l0 -1 l4 5 l20 20 q15 14 40 43 q14 16 31 36 l-112 0 q-13 0 -25 6 q-12 6 -20.5 16 q-8.5 10 -12.5 22.5 q-4 12.5 -1 25.5 ZM20 13 q0 7 3.5 28 q3.5 21 31.5 50 q25 25 48.5 53 q23.5 28 43.5 57 q15 22 40.5 33 q25.5 11 42.5 11 q8 0 15 -2 l3 -2 q15 -4 24 -14 q9 -10 13.5 -23.5 q4.5 -13.5 2 -28 q-2.5 -14.5 -11.5 -28.5 q-32 -46 -67.5 -88.5 q-35.5 -42.5 -72.5 -78.5 q-9 -10 -22.5 -15.5 q-13.5 -5.5 -27.5 -7 q-14 -1.5 -27 1.5 q-13 3 -20 11 q-19 17 -19 43 Z" /><glyph glyph-name="uni4E1D" unicode="&#x4e1d;" d="M473 192 q-2 12 3 26 q5 14 14.5 29 q9.5 15 22.5 29 q13 14 27 25 l1 0 l6 5 q6 5 24 21 q16 14 46 43 q17 16 37 37 l-5 0 q-17 -1 -32 -3 q-4 0 -8 0 q-14 0 -29.5 3 q-15.5 3 -27.5 11 q-4 3 -7 6 q-5 0 -9 1 q-25 6 -30 31 q-2 11 2.5 25.5 q4.5 14.5 13.5 30 q9 15.5 20 30.5 q7 10 15 19 q1 2 5 6 q2 3 3 3 q2 3 5 6 q8 10 23.5 30 q15.5 20 35 47.5 q19.5 27.5 41.5 61 q22 33.5 42 69.5 q8 13 20.5 23.5 q12.5 10.5 27 17.5 q14.5 7 29 8.5 q14.5 1.5 26.5 -3.5 q12 -5 20 -15.5 q8 -10.5 10.5 -23.5 q2.5 -13 0 -27.5 q-2.5 -14.5 -10.5 -27.5 q-52 -76 -109 -147 q-26 -31 -50 -59 l26 0 q20 0 35 -6 q8 -4 14 -10 q7 7 13 15 q41 49 80 101 q9 12 22 21 q13 9 28 13.5 q15 4.5 29.5 4 q14.5 -0.5 25.5 -6.5 q11 -6 16.5 -18 q5.5 -12 7 -25.5 q1.5 -13.5 -2.5 -27.5 q-4 -14 -14 -26 q-88 -106 -185 -200 q-45 -44 -89 -83 l152 6 q16 0 29.5 -5.5 q13.5 -5.5 22.5 -15 q9 -9.5 13 -22 q4 -12.5 1 -26.5 q-6 -21 -31 -39.5 q-25 -18.5 -50 -20.5 q-43 -2 -79 -4.5 q-36 -2.5 -65 -4.5 q-29 -2 -52 -3.5 q-23 -1.5 -42 -3.5 q-6 -1 -12 -1 q-12 0 -25.5 3.5 q-13.5 3.5 -25.5 11.5 q-2 2 -4 3 q-6 0 -12 2 q-25 5 -29 30 ZM51 192 q-2 11 3 24.5 q5 13.5 14 28 q9 14.5 21.5 28.5 q12.5 14 25.5 26 l2 2 l0 -1 l6 5 l21 21 q16 14 45 44 q15 15 31 33 q-16 0 -30 -2 q-4 0 -8 0 q-14 0 -29.5 3 q-15.5 3 -27.5 11 q-6 4 -11 9 q-2 1 -4 1 q-27 5 -31 32 q-2 11 2.5 24.5 q4.5 13.5 13.5 28.5 q9 15 20 30 q7 11 15 21 q1 2 3 4 l3 3 q2 3 5 6 q9 10 24 30.5 q15 20.5 34 49 q19 28.5 40 62.5 q21 34 41 70 q7 14 19.5 24.5 q12.5 10.5 26.5 17.5 q14 7 29 8.5 q15 1.5 27 -3.5 q11 -4 19 -14.5 q8 -10.5 11 -23 q3 -12.5 1 -27 q-2 -14.5 -10 -26.5 q-49 -78 -106 -151 q-26 -34 -52 -64 l30 0 q20 0 35 -6 q3 -2 5 -4 q6 8 13 16 q39 49 75 101 q8 13 21.5 22.5 q13.5 9.5 28 14.5 q14.5 5 29.5 4.5 q15 -0.5 26 -6.5 q11 -6 17.5 -17.5 q6.5 -11.5 7.5 -25 q1 -13.5 -2.5 -27.5 q-3.5 -14 -12.5 -26 q-82 -107 -175 -204 q-47 -49 -92 -92 l122 5 q16 0 29.5 -5.5 q13.5 -5.5 22.5 -15 q9 -9.5 13 -22 q4 -12.5 1 -26.5 q-6 -21 -31.5 -39.5 q-25.5 -18.5 -51.5 -20.5 q-34 -2 -63.5 -4 q-29.5 -2 -54 -4 q-24.5 -2 -44 -3.5 q-19.5 -1.5 -36.5 -3.5 q-4 0 -7 0 q-14 0 -28.5 3.5 q-14.5 3.5 -26.5 11.5 q-5 3 -8 6 q-4 0 -7 1 q-26 6 -30 32 ZM-35 15 q2 12 10 24 q8 12 20 21.5 q12 9.5 26 15 q14 5.5 27 5.5 l775 0 q14 0 25.5 -5.5 q11.5 -5.5 20.5 -15 q9 -9.5 13 -21.5 q4 -12 2 -24 q-3 -13 -11 -25 q-8 -12 -20 -21.5 q-12 -9.5 -25.5 -15 q-13.5 -5.5 -27.5 -5.5 l-775 0 q-13 0 -25 5.5 q-12 5.5 -21 15 q-9 9.5 -13 21.5 q-4 12 -1 25 Z" /><glyph glyph-name="uni4E22" unicode="&#x4e22;" d="M17 18 q-2 11 3.5 24.5 q5.5 13.5 16 27 q10.5 13.5 23.5 26.5 q11 11 24 19 l-4 -2 l9 6 q11 7 30 20.5 q19 13.5 42.5 32 q23.5 18.5 49.5 41.5 q26 23 51 49 q4 4 9 8 l-180 0 q-13 0 -25 6 q-12 6 -21 15.5 q-9 9.5 -13 21.5 q-4 12 -1 25 q2 12 10 24 q8 12 20 21.5 q12 9.5 26 15.5 q14 6 27 6 l306 0 q-3 11 -1 22 l7 41 l-225 0 q-13 0 -25 6 q-12 6 -21 15.5 q-9 9.5 -13 22 q-4 12.5 -1 25.5 q2 13 10 25 q8 12 20.5 21.5 q12.5 9.5 26.5 15.5 q14 6 27 6 l226 0 l11 67 q-43 -3 -86 -4 q-81 -4 -158 -5 q-1 0 -3 0 q-23 0 -42 16 q-19 16 -21 36 q0 3 0 6 q0 26 25 49.5 q25 23.5 63 24.5 q81 3 160.5 7.5 q79.5 4.5 156 11 q76.5 6.5 147 15 q70.5 8.5 130.5 19.5 q4 0 7 0 q11 0 26 -5 q15 -5 22 -15 l12 -17 q12 -17 12 -35 q0 -14 -6.5 -27.5 q-6.5 -13.5 -21 -23.5 q-14.5 -10 -34.5 -13 q-76 -12 -155 -20 q-41 -5 -82 -9 l0 -2 l-13 -76 l228 0 q14 0 25.5 -6 q11.5 -6 20 -15.5 q8.5 -9.5 12.5 -21.5 q4 -12 2 -25 q-3 -13 -11 -25.5 q-8 -12.5 -20 -22 q-12 -9.5 -25.5 -15.5 q-13.5 -6 -27.5 -6 l-229 0 l-7 -41 q-2 -11 -8 -22 l305 0 q14 0 25.5 -6 q11.5 -6 20.5 -15.5 q9 -9.5 13 -21.5 q4 -12 2 -24 q-3 -13 -11 -25 q-8 -12 -20 -21.5 q-12 -9.5 -25.5 -15.5 q-13.5 -6 -27.5 -6 l-466 0 q4 -3 7 -7 q9 -13 10.5 -27.5 q1.5 -14.5 -5 -30 q-6.5 -15.5 -22.5 -28.5 q-43 -37 -86 -70 l326 23 q0 1 -1 2 q-7 14 -7 30.5 q0 16.5 6 32 q6 15.5 19 28 q13 12.5 30 18.5 l2 1 q10 4 22 4 q9 0 25 -4 q16 -4 24 -18 q16 -22 31 -46 q15 -24 29 -48 q14 -24 26.5 -48.5 q12.5 -24.5 22.5 -47.5 q5 -12 3 -26 q-2 -14 -9 -27 q-7 -13 -18.5 -24 q-11.5 -11 -25.5 -17 l-9 -3 q-14 -6 -28.5 -5 q-14.5 1 -27.5 6 q-13 5 -23 14.5 q-10 9.5 -15 21.5 q-6 18 -15 38 q-3 5 -6 11 q-8 -6 -17 -11 q-15 -7 -32 -9 q-104 -9 -182.5 -16 q-78.5 -7 -136.5 -12 q-58 -5 -99.5 -9 q-41.5 -4 -69.5 -8 q-7 -1 -13 -1 q-11 0 -24.5 3 q-13.5 3 -25.5 11 q-9 6 -15 15 q-9 3 -16 9 q-11 8 -14 23 ZM76 111 q1 1 4 2 q-2 -1 -3 -2 l-1 0 Z" /><glyph glyph-name="uni4E24" unicode="&#x4e24;" d="M673 356 q8 -4 14 -11 l18 -20 l17 -21 q8 -11 15 -21 l28 155 l-73 0 q-8 -37 -18 -77 q-1 -3 -1 -5 ZM470 574 l103 0 l8 47 q3 14 11 27 q2 3 5 6 l-122 0 l2 -6 q4 -13 1 -27 l-8 -47 ZM1 -24 l93 526 q2 14 10 26.5 q8 12.5 20 23 q12 10.5 26 16.5 q14 6 27 6 l150 0 l8 47 q3 14 11 27 q2 3 5 6 l-189 0 q-13 0 -25 6 q-12 6 -20.5 16 q-8.5 10 -12.5 22.5 q-4 12.5 -1 25.5 q2 13 10 25.5 q8 12.5 20.5 22 q12.5 9.5 26.5 15.5 q14 6 27 6 l750 0 q14 0 25.5 -6 q11.5 -6 20 -15.5 q8.5 -9.5 12.5 -22 q4 -12.5 2 -25.5 q-3 -13 -11 -25.5 q-8 -12.5 -20.5 -22.5 q-12.5 -10 -26 -16 q-13.5 -6 -27.5 -6 l-191 0 l2 -6 q4 -13 1 -27 l-8 -47 l148 0 q13 0 25 -6 q12 -6 20.5 -15.5 q8.5 -9.5 12.5 -21.5 q4 -11 2 -22 q0 -3 -1 -7 l-78 -441 q-10 -54 -29 -85.5 q-19 -31.5 -58 -48.5 q-28 -12 -62.5 -17 q-34.5 -5 -78.5 -6 q-1 0 -3 0 q-21 0 -40 16 q-19 16 -21 36 q-1 5 -1 9 q0 29 25 53.5 q25 24.5 66 24.5 l28 0 q13 0 19 4.5 q6 4.5 8 16.5 l19 105 l-4 -2 q-16 -7 -31 -7 q-1 0 -10 0.5 q-9 0.5 -23.5 8 q-14.5 7.5 -23.5 22.5 l-10 14 l-22 -42 q-28 -48 -65 -90 q-11 -13 -25.5 -19.5 q-14.5 -6.5 -28.5 -7.5 q-14 -1 -26.5 3 q-12.5 4 -19.5 13 q-11 14 -11 34 q0 10 5.5 34 q5.5 24 27.5 53 q24 32 40 64 q16 32 28 65.5 q12 33.5 20 69.5 q6 26 12 56 l-104 0 q-8 -37 -18 -77 q-1 -3 -1 -6 q4 -3 8 -8 q11 -11 20.5 -23 q9.5 -12 18.5 -24 q7 -10 7 -25 q0 -5 -2 -19 q-2 -14 -14 -28 q-13 -15 -29.5 -22.5 q-16.5 -7.5 -33 -7.5 q-16.5 0 -31.5 8 l-1 0 q-11 -22 -23 -43 q-28 -48 -65 -90 q-11 -13 -25.5 -19.5 q-14.5 -6.5 -28 -7.5 q-13.5 -1 -26 3 q-12.5 4 -19.5 13 q-11 14 -11 35 q0 10 5 33.5 q5 23.5 27 52.5 q24 32 40 64 q16 32 28 65.5 q12 33.5 20 69.5 q6 26 12 56 l-71 0 q-2 0 -3.5 -2 q-1.5 -2 -2.5 -4 l-80 -456 q-3 -14 -11 -26.5 q-8 -12.5 -20.5 -23 q-12.5 -10.5 -26 -16.5 q-13.5 -6 -27.5 -6 l-2 0 q-13 0 -25 6 q-12 6 -20.5 16.5 q-8.5 10.5 -12.5 23 q-4 12.5 -1 26.5 Z" /><glyph glyph-name="uni4E25" unicode="&#x4e25;" d="M725 535.5 q-3 13.5 -1 29 q2 15.5 10 30.5 q3 7 7 13.5 q4 6.5 8 13.5 q6 14 17.5 25 q11.5 11 26 18.5 q14.5 7.5 29 10.5 q14.5 3 26.5 0 q14 -4 24 -14.5 q10 -10.5 13.5 -24.5 q3.5 -14 0.5 -29.5 q-3 -15.5 -13 -30.5 q-11 -13 -19.5 -25.5 q-8.5 -12.5 -17.5 -23.5 q-13 -17 -33.5 -25 q-20.5 -8 -32.5 -8 q-7 0 -13 2 q-13 4 -21 14.5 q-8 10.5 -11 24 ZM472 488 l66 0 q-4 12 -2 25 l31 174 l-55 0 l-31 -174 q-2 -12 -9 -25 ZM179 580 q-2 14 1.5 29.5 q3.5 15.5 11.5 29.5 q8 14 20.5 25 q12.5 11 26.5 15 q7 2 15 2 q14 0 33 -9 q19 -9 24 -29 q3 -14 5.5 -27 q2.5 -13 5.5 -26 q1 -4 1 -9 q0 -19 -15.5 -40.5 q-15.5 -21.5 -37.5 -29.5 q-16 -5 -30.5 -2.5 q-14.5 2.5 -26.5 10.5 q-12 8 -20.5 21 q-8.5 13 -11.5 28 l0 6 q0 3 -2 6 ZM-35 9 q0 35 16 63 q20 34 33.5 67.5 q13.5 33.5 23 67 q9.5 33.5 17 69 q7.5 35.5 13.5 72.5 l12 68 q3 14 11 26.5 q8 12.5 20.5 23 q12.5 10.5 26.5 16.5 q14 6 27 6 q11 0 21 -4 q12 4 25 4 l129 0 q-4 12 -2 25 l31 174 l-165 0 q-13 0 -25 5.5 q-12 5.5 -21 14 q-9 8.5 -13 19.5 q-4 11 -2 23 q2 12 10 23 q8 11 20 19.5 q12 8.5 26 14 q14 5.5 27 5.5 l680 0 q14 0 25.5 -5.5 q11.5 -5.5 20.5 -14 q9 -8.5 13 -19.5 q4 -11 2 -23 q-2 -12 -10 -23 q-8 -11 -20 -19.5 q-12 -8.5 -25.5 -14 q-13.5 -5.5 -27.5 -5.5 l-173 0 l-31 -174 q-2 -12 -9 -25 l205 0 q28 0 45.5 -18 q17.5 -18 17.5 -37 q0 -4 -1 -8 q-2 -12 -10 -23 q-8 -11 -20 -20 q-12 -9 -26 -14.5 q-14 -5.5 -28 -5.5 l-639 0 l-3 -16 q-7 -38 -17.5 -83 q-10.5 -45 -25 -92.5 q-14.5 -47.5 -34.5 -95 q-20 -47.5 -46 -90.5 q-9 -16 -23.5 -25.5 q-14.5 -9.5 -30 -12 q-15.5 -2.5 -29.5 1 q-14 3.5 -25 14.5 q-16 16 -16 46 Z" /><glyph glyph-name="uni4E2A" unicode="&#x4e2a;" d="M338 -22 l82 466 q3 13 11 26 q8 13 20 23 q12 10 26 16 q14 6 27 6 l10 0 q13 0 25 -6 q12 -6 20 -16 q8 -10 12 -23 q4 -13 1 -26 l-82 -466 q-2 -13 -10.5 -26 q-8.5 -13 -20 -23 q-11.5 -10 -25.5 -16 q-14 -6 -27 -6 l-10 0 q-13 0 -25 6 q-12 6 -20.5 16 q-8.5 10 -12 23 q-3.5 13 -1.5 26 ZM69 465 q0 15 11 40 q11 25 50 41 q54 22 107 49 q53 27 102 59 q49 32 94.5 69 q45.5 37 85.5 80 q9 10 22 17 q13 7 27 11 q14 4 27.5 3.5 q13.5 -0.5 23.5 -5.5 l2 -1 q12 -6 19 -18 q7 -12 8.5 -26 q1.5 -14 -2.5 -28 q-1 -5 -3 -9 q73 -78 139 -126 q65 -49 121 -78 q37 -19 37 -56 q0 -33 -27 -64 q-9 -11 -23 -19 q-14 -8 -28.5 -12 q-14.5 -4 -28.5 -3.5 q-14 0.5 -25 6.5 q-58 33 -128 92 q-66 53 -144 145 l-6 -6 q-54 -49 -112 -90.5 q-58 -41.5 -119 -77 q-61 -35.5 -125 -64.5 q-12 -6 -26 -6 q-14 0 -26.5 4 q-12.5 4 -23 12.5 q-10.5 8.5 -16.5 18.5 l-3 6 q-10 18 -10 36 Z" /><glyph glyph-name="uni4E2D" unicode="&#x4e2d;" d="M557 354 l194 0 l31 181 q1 2 -1 4 q-2 2 -4 2 l-187 0 l-33 -187 ZM211 354 l192 0 l33 187 l-186 0 q-2 0 -4 -2 q-2 -2 -3 -4 l-32 -181 ZM44 231 l67 381 q2 14 10.5 26.5 q8.5 12.5 20.5 23 q12 10.5 26.5 16.5 q14.5 6 27.5 6 l266 0 l17 99 q3 14 11 26.5 q8 12.5 20.5 23 q12.5 10.5 26.5 16.5 q14 6 27 6 l10 0 q14 0 25.5 -6 q11.5 -6 20 -16.5 q8.5 -10.5 12.5 -23 q4 -12.5 1 -26.5 l-17 -99 l274 0 q14 0 25 -6 q11 -6 20 -16 q9 -10 12.5 -23 q3.5 -13 1.5 -26 l-67 -378 q-2 -13 -10 -26 q-8 -13 -20.5 -23 q-12.5 -10 -26 -16 q-13.5 -6 -27.5 -6 l-9 0 q-13 0 -25 6 q-12 6 -20.5 16.5 q-8.5 10.5 -12.5 23.5 l0 1 l-199 0 l-41 -234 q-3 -14 -11 -26.5 q-8 -12.5 -20.5 -23 q-12.5 -10.5 -26 -16.5 q-13.5 -6 -27.5 -6 l-10 0 q-13 0 -25 6 q-12 6 -20.5 16.5 q-8.5 10.5 -12.5 23 q-4 12.5 -1 26.5 l41 234 l-195 0 l-4 -6 q-8 -13 -20.5 -23.5 q-12.5 -10.5 -26 -16.5 q-13.5 -6 -27.5 -6 l-2 0 q-13 0 -25 6 q-12 6 -20.5 16.5 q-8.5 10.5 -12.5 23.5 q-4 13 -1 26 Z" /><glyph glyph-name="uni4E30" unicode="&#x4e30;" d="M-1 197 l0 2 q3 14 11 26.5 q8 12.5 20 23 q12 10.5 26 16.5 q14 6 27 6 l305 0 l15 85 l-216 0 q-14 0 -26 6 q-12 6 -21 16 q-9 10 -12.5 22.5 q-3.5 12.5 -1.5 25.5 q2 13 10.5 25.5 q8.5 12.5 20.5 22 q12 9.5 26 15.5 q14 6 28 6 l216 0 l13 75 l-269 0 q-13 0 -25 6 q-12 6 -21 16.5 q-9 10.5 -12.5 23.5 q-3.5 13 -1.5 27 q3 14 11 26.5 q8 12.5 20.5 23 q12.5 10.5 26.5 16.5 q14 6 27 6 l270 0 l12 69 q3 14 11 26.5 q8 12.5 20 23 q12 10.5 26 16.5 q14 6 27 6 l15 0 q13 0 25 -6 q12 -6 20 -16.5 q8 -10.5 12 -23 q4 -12.5 1 -26.5 l-12 -69 l271 0 q14 0 25.5 -6 q11.5 -6 20 -16.5 q8.5 -10.5 12.5 -23 q4 -12.5 1 -26.5 q-2 -14 -10.5 -27 q-8.5 -13 -20.5 -23.5 q-12 -10.5 -25.5 -16.5 q-13.5 -6 -27.5 -6 l-272 0 l-13 -75 l224 0 q14 0 26 -6 q12 -6 21 -15.5 q9 -9.5 12.5 -22 q3.5 -12.5 1.5 -25.5 q-2 -13 -10.5 -25.5 q-8.5 -12.5 -20.5 -22.5 q-12 -10 -26 -16 q-14 -6 -28 -6 l-224 0 l-15 -85 l310 0 q13 0 25 -6 q12 -6 20 -16.5 q8 -10.5 12 -23 q4 -12.5 1 -26.5 l0 -2 q-3 -13 -11 -26 q-8 -13 -20 -23.5 q-12 -10.5 -26 -16.5 q-14 -6 -27 -6 l-310 0 l-26 -147 q-2 -14 -10.5 -26.5 q-8.5 -12.5 -20 -23 q-11.5 -10.5 -26 -16.5 q-14.5 -6 -27.5 -6 l-15 0 q-13 0 -24.5 6 q-11.5 6 -20 16.5 q-8.5 10.5 -12 23 q-3.5 12.5 -1.5 26.5 l26 147 l-305 0 q-13 0 -25 6 q-12 6 -20 16.5 q-8 10.5 -12 23.5 q-4 13 -1 26 Z" /><glyph glyph-name="uni4E32" unicode="&#x4e32;" d="M594 557 l138 0 q3 0 5.5 2 q2.5 2 2.5 4 l9 52 q1 2 -1 4 q-2 2 -5 2 l-137 0 l-12 -64 ZM528 182 l179 0 q5 0 9 -1 l11 65 q1 2 -1 4 q-2 2 -4 2 l-181 0 l-13 -70 ZM295 563 q0 -2 1.5 -4 q1.5 -2 4.5 -2 l135 0 l12 64 l-136 0 q-3 0 -5 -2 q-2 -2 -3 -4 l-9 -52 ZM188 180 q7 2 14 2 l168 0 l13 70 l-177 0 q-2 0 -4 -2 q-2 -2 -3 -4 l-11 -66 ZM20 88 l39 224 q2 14 10.5 26.5 q8.5 12.5 21 23 q12.5 10.5 26.5 16.5 q14 6 27 6 l262 0 l8 48 l-220 0 q-13 0 -25 6 q-12 6 -20.5 16 q-8.5 10 -12.5 23 q-4 13 -1 26 l30 172 q2 13 10.5 26 q8.5 13 20.5 23 q12 10 26.5 16 q14.5 6 27.5 6 l220 0 l6 36 q2 14 10.5 26.5 q8.5 12.5 20.5 23 q12 10.5 26.5 16.5 q14.5 6 27.5 6 l14 0 q14 0 25 -6 q11 -6 20 -16.5 q9 -10.5 12.5 -23 q3.5 -12.5 1.5 -26.5 l-6 -36 l233 0 q14 0 25 -6 q11 -6 20 -16 q9 -10 12.5 -23 q3.5 -13 1.5 -26 l-30 -172 q-3 -13 -11 -26 q-8 -13 -20.5 -23 q-12.5 -10 -26 -16 q-13.5 -6 -27.5 -6 l-233 0 l-8 -48 l276 0 q14 0 25.5 -6 q11.5 -6 20 -16.5 q8.5 -10.5 12 -23 q3.5 -12.5 1.5 -26.5 l-39 -224 q-3 -13 -11 -26 q-8 -13 -20.5 -23.5 q-12.5 -10.5 -26 -16.5 q-13.5 -6 -27.5 -6 l-15 0 q-14 0 -26 6 q-12 6 -20 17 q-7 8 -11 17 q-9 -2 -18 -2 l-179 0 l-14 -78 q-3 -14 -11 -26.5 q-8 -12.5 -20.5 -23 q-12.5 -10.5 -26 -16.5 q-13.5 -6 -27.5 -6 l-14 0 q-13 0 -25 6 q-12 6 -20.5 16.5 q-8.5 10.5 -12.5 23 q-4 12.5 -1 26.5 l14 78 l-168 0 q-11 0 -22 4 q-7 -11 -17 -19 q-12 -11 -26 -17 q-14 -6 -27 -6 l-10 0 q-13 0 -25 6 q-12 6 -20 16.5 q-8 10.5 -12 23.5 q-4 13 -1 26 Z" /><glyph glyph-name="uni4E34" unicode="&#x4e34;" d="M685 84 l52 0 l26 151 q1 2 -1 3.5 q-2 1.5 -4 1.5 l-47 0 q1 -9 0 -19 l-21 -120 q-2 -9 -5 -17 ZM637.5 505 q-4.5 14 -3 29 q1.5 15 8.5 28.5 q7 13.5 18 23.5 q17 14 31.5 14.5 q14.5 0.5 16.5 0.5 q24 0 37 -11 q18 -14 34.5 -29.5 q16.5 -15.5 32.5 -29.5 q9 -8 12.5 -20.5 q3.5 -12.5 2.5 -26.5 q-1 -14 -7.5 -27 q-6.5 -13 -16.5 -23 q-11 -10 -25.5 -15 q-14.5 -5 -29 -5.5 q-14.5 -0.5 -27.5 4.5 q-13 5 -23 14 q-11 12 -23 24.5 q-12 12.5 -24 24.5 q-10 10 -14.5 24 ZM499 83 q5 1 10 1 l49 0 q-1 8 1 17 l21 120 q1 10 6 19 l-54 0 q-2 0 -4 -1.5 q-2 -1.5 -3 -3.5 l-26 -152 ZM394 505 q0 4 2 24 q2 20 27 50 q39 45 73 99 q34 54 62 114 q6 13 17 24 q11 11 24 18.5 q13 7.5 28 11 q15 3.5 27 0.5 q14 -3 24.5 -11.5 q10.5 -8.5 16 -20.5 q5.5 -12 6 -26 q0.5 -14 -5.5 -28 q-2 -5 -4 -9 l250 0 q14 0 25.5 -6 q11.5 -6 20.5 -16 q9 -10 12.5 -22.5 q3.5 -12.5 1.5 -25.5 q-2 -13 -10.5 -25.5 q-8.5 -12.5 -20.5 -22.5 q-12 -10 -25.5 -16 q-13.5 -6 -27.5 -6 l-288 0 q-8 0 -15 2 l-4 -6 q-46 -72 -96 -129 q-9 -11 -22.5 -17.5 q-13.5 -6.5 -27.5 -9 q-14 -2.5 -27 -0.5 q-13 2 -22 9 q-21 16 -21 45 ZM341 -23 l58 330 q3 14 11 26.5 q8 12.5 20.5 23 q12.5 10.5 26.5 16.5 q14 6 27 6 l379 0 q14 0 25.5 -6 q11.5 -6 20 -16 q8.5 -10 12.5 -23 q4 -13 1 -26 l-57 -327 q-3 -13 -11 -26 q-8 -13 -20.5 -23 q-12.5 -10 -26 -16 q-13.5 -6 -27.5 -6 l-2 0 q-13 0 -25 6 q-12 6 -20 17 q-8 8 -12 19 q-6 -2 -13 -2 l-223 0 q-8 0 -15 2 q0 -1 -1 -1 q-8 -13 -19.5 -23.5 q-11.5 -10.5 -25 -16.5 q-13.5 -6 -26.5 -6 q-13 0 -24.5 6 q-11.5 6 -19.5 16.5 q-8 10.5 -12 23 q-4 12.5 -1 26.5 ZM145 -11 l138 783 q3 14 11 26.5 q8 12.5 20.5 23 q12.5 10.5 26.5 16.5 q14 6 27 6 q13 0 25 -6 q12 -6 20 -16.5 q8 -10.5 12 -23 q4 -12.5 1 -26.5 l-138 -783 q-2 -14 -10.5 -26.5 q-8.5 -12.5 -20.5 -23 q-12 -10.5 -26 -16.5 q-14 -6 -27 -6 q-13 0 -25 6 q-12 6 -20.5 16.5 q-8.5 10.5 -12 23 q-3.5 12.5 -1.5 26.5 ZM-14 83 l104 594 q3 14 11 26.5 q8 12.5 19.5 23 q11.5 10.5 24.5 16.5 q13 6 26 6 q12 0 23 -6 q11 -6 18.5 -16.5 q7.5 -10.5 11.5 -23 q4 -12.5 1 -26.5 l-104 -594 q-3 -13 -11 -26 q-8 -13 -19.5 -23.5 q-11.5 -10.5 -24.5 -16.5 q-13 -6 -25 -6 q-13 0 -24 6 q-11 6 -18.5 16.5 q-7.5 10.5 -11.5 23.5 q-4 13 -1 26 Z" /><glyph glyph-name="uni4E3A" unicode="&#x4e3a;" d="M486 274 q-5 14 -4.5 29.5 q0.5 15.5 7 30 q6.5 14.5 18.5 26.5 q12 12 26 18 q11 5 23 5 q10 0 28.5 -5.5 q18.5 -5.5 27.5 -22.5 q9 -18 17.5 -36.5 q8.5 -18.5 16.5 -35.5 q4 -11 2 -24 q-2 -13 -8 -26 q-6 -13 -16.5 -23.5 q-10.5 -10.5 -22.5 -16.5 q-14 -6 -29.5 -6 q-15.5 0 -29 5.5 q-13.5 5.5 -24 15.5 q-10.5 10 -14.5 23 q-4 11 -8.5 21.5 q-4.5 10.5 -9.5 21.5 ZM212 707 q-6 14 -4 30 q2 16 9 31 q7 15 19 27 q12 12 28 18 q11 4 22 4 q10 0 27.5 -5 q17.5 -5 25.5 -21 q7 -11 11.5 -22.5 q4.5 -11.5 10.5 -22.5 q5 -12 3 -26 q-2 -14 -8.5 -27 q-6.5 -13 -18 -23.5 q-11.5 -10.5 -24.5 -15.5 q-14 -6 -29 -5 q-15 1 -28.5 7 q-13.5 6 -24 16 q-10.5 10 -14.5 23 q-2 3 -3 6 l-2 6 ZM20 14 q0 10 6 33 q6 23 41 48 q94 69 155.5 147 q61.5 78 100.5 159 q19 38 33 77 l-211 0 q-13 0 -25 6 q-12 6 -20.5 16 q-8.5 10 -12 23 q-3.5 13 -1.5 26 l1 5 q2 13 10.5 26 q8.5 13 20.5 23 q12 10 26 16 q14 6 27 6 l227 0 q10 43 17 83 l13 73 q2 14 10.5 26.5 q8.5 12.5 20.5 23 q12 10.5 26 16.5 q14 6 27 6 l4 0 q14 0 25.5 -6 q11.5 -6 20.5 -16.5 q9 -10.5 12.5 -23 q3.5 -12.5 1.5 -26.5 l-13 -74 q-7 -39 -17 -82 l334 0 q14 0 25.5 -6 q11.5 -6 20.5 -16 q9 -10 12.5 -23 q3.5 -13 1.5 -26 l-1 -5 q-1 -9 -6 -19 q-27 -126 -47 -218 q-22 -99 -41.5 -166 q-19.5 -67 -36.5 -105.5 q-17 -38.5 -35 -58.5 q-30 -32 -57.5 -45 q-27.5 -13 -62.5 -18 q-20 -4 -44 -5 q-24 -1 -52 -2 q-26 0 -45.5 18.5 q-19.5 18.5 -21.5 39.5 q-1 6 -1 12 q0 30 23.5 54.5 q23.5 24.5 65.5 24.5 q2 0 3 0 l26 0 q14 0 24 3.5 q10 3.5 22 13.5 q13 11 26.5 46 q13.5 35 30.5 97.5 q17 62.5 38 155.5 q10 46 21 101 l-262 0 q-22 -68 -56 -138 q-49 -100 -125.5 -197 q-76.5 -97 -193.5 -177 q-11 -8 -25 -11 q-14 -3 -28 -1.5 q-14 1.5 -25.5 6.5 q-11.5 5 -18.5 13 q-15 18 -15 41 Z" /><glyph glyph-name="uni4E3B" unicode="&#x4e3b;" d="M-30 7 q3 13 11 26 q8 13 20.5 23 q12.5 10 26.5 16 q14 6 27 6 l299 0 l29 164 l-201 0 q-13 0 -25 6 q-12 6 -21 16 q-9 10 -12.5 22.5 q-3.5 12.5 -1.5 25.5 q2 13 10.5 25.5 q8.5 12.5 20.5 22.5 q12 10 26 16 q14 6 27 6 l202 0 l16 92 q2 14 10 26.5 q8 12.5 21 23.5 l8 6 l-288 0 q-13 0 -24.5 6 q-11.5 6 -20.5 16 q-9 10 -12.5 23 q-3.5 13 -1.5 26 q2 14 10.5 26.5 q8.5 12.5 20.5 22.5 q12 10 26 16 q14 6 27 6 l302 0 l-19 19 q-14 13 -29 26 q-13 11 -16 23.5 q-3 12.5 -3 22.5 q0 6 1.5 17 q1.5 11 11.5 26 q10 15 27 25 l6 4 q16 9 28.5 9.5 q12.5 0.5 14.5 0.5 q19 0 31 -8 q22 -17 44.5 -35 q22.5 -18 42.5 -37 q10 -9 13 -22.5 q3 -13.5 -1 -28 q-4 -14.5 -13 -27.5 q-5 -9 -13 -15 l243 0 q14 0 25.5 -6 q11.5 -6 20.5 -16 q9 -10 12.5 -22.5 q3.5 -12.5 1.5 -26.5 q-2 -13 -10.5 -26 q-8.5 -13 -20.5 -23 q-12 -10 -26 -16 q-14 -6 -28 -6 l-282 0 q4 -3 7 -6 q8 -11 12 -23.5 q4 -12.5 2 -26.5 l-16 -92 l200 0 q14 0 25.5 -6 q11.5 -6 20.5 -16 q9 -10 12.5 -22.5 q3.5 -12.5 1.5 -25.5 q-2 -13 -10.5 -25.5 q-8.5 -12.5 -20.5 -22.5 q-12 -10 -25.5 -16 q-13.5 -6 -27.5 -6 l-201 0 l-29 -164 l301 0 q14 0 25.5 -6 q11.5 -6 20 -16 q8.5 -10 12.5 -23 q4 -13 1 -26 q-2 -14 -10.5 -26.5 q-8.5 -12.5 -20.5 -23 q-12 -10.5 -25.5 -16.5 q-13.5 -6 -27.5 -6 l-761 0 q-13 0 -25 6 q-12 6 -21 16.5 q-9 10.5 -12.5 23 q-3.5 12.5 -1.5 26.5 Z" /><glyph glyph-name="uni4E3E" unicode="&#x4e3e;" d="M464 734 q-5 14 -4 30 q1 16 7 31 q6 15 17.5 27.5 q11.5 12.5 26.5 18.5 q10 4 22 4 q10 0 27 -5 q17 -5 26 -21 q6 -11 11.5 -21.5 q5.5 -10.5 10.5 -21.5 q5 -11 3 -24 q-2 -13 -8 -26 q-6 -13 -16.5 -23 q-10.5 -10 -22.5 -15 q-14 -6 -29.5 -5.5 q-15.5 0.5 -28.5 6.5 q-13 6 -23.5 16.5 q-10.5 10.5 -15.5 23.5 q-1 1 -1 2 l-2 3 ZM29 131 q2 12 10 24 q8 12 20.5 21.5 q12.5 9.5 26.5 15.5 q14 6 27 6 l273 0 l11 66 l-107 0 q-13 0 -25.5 5.5 q-12.5 5.5 -21 15 q-8.5 9.5 -12.5 21.5 q-4 12 -2 25 q2 12 11 24 q4 6 9 11 q-27 -21 -54 -41 q-33 -23 -66 -42 q-16 -9 -34 -9 q-7 0 -24.5 3 q-17.5 3 -28.5 20 q-8 13 -8 28 q0 15 11.5 40.5 q11.5 25.5 48.5 46.5 q24 14 48 30 q24 16 46 33.5 q22 17.5 43 36.5 q17 17 32 33 l-129 0 q-13 0 -25 5.5 q-12 5.5 -20.5 15 q-8.5 9.5 -12 21.5 q-3.5 12 -1.5 24 q2 12 10 23.5 q8 11.5 19.5 21 q11.5 9.5 25.5 15 q14 5.5 27 5.5 l90 0 q-3 2 -6 5 q-11 9 -17 22 q-2 2 -2 3.5 q0 1.5 -2 3.5 q-6 14 -6 30 q0 16 6.5 31.5 q6.5 15.5 17.5 28.5 q11 13 28 20 q12 6 25 6 q8 0 24 -3.5 q16 -3.5 27 -18.5 q6 -11 13 -22 q7 -11 13 -22 q6 -11 4 -24.5 q-2 -13.5 -7.5 -26.5 q-5.5 -13 -15.5 -24 q-5 -5 -10 -9 l360 0 l-2 8 q-1 4 -1 9 q0 11 4.5 25 q4.5 14 16.5 29 q7 11 14.5 21 q7.5 10 14.5 21 q15 22 39.5 32.5 q24.5 10.5 40.5 10.5 q8 0 16 -2 l5 -1 q16 -5 26 -16.5 q10 -11.5 11.5 -21.5 q1.5 -10 1.5 -15 q0 -10 -4 -23.5 q-4 -13.5 -17 -27.5 q-17 -17 -32 -34 l-15 -15 l107 0 q13 0 25 -5.5 q12 -5.5 20.5 -15 q8.5 -9.5 12.5 -21 q4 -11.5 2 -23.5 q-2 -12 -10.5 -24 q-8.5 -12 -20 -21.5 q-11.5 -9.5 -25.5 -15 q-14 -5.5 -27 -5.5 l-119 0 q8 -14 19 -27 q12 -16 25.5 -31 q13.5 -15 29 -29 q15.5 -14 32.5 -27 q29 -22 31 -41 q2 -19 2 -23 q0 -29 -23 -54 q-17 -18 -36 -21.5 q-19 -3.5 -27 -3.5 q-19 0 -33 10 q-24 18 -45 39.5 q-21 21.5 -39.5 45.5 q-18.5 24 -34.5 51 q-16 27 -29 55 q-5 13 -4 27.5 q1 14.5 7 28.5 l-270 0 q0 -2 1 -3 q1 -14 -3 -28.5 q-4 -14.5 -15 -27.5 q-26 -30 -54 -58 q-24 -24 -50 -46 q9 6 19 10 q14 5 27 5 l108 0 l5 29 q2 13 10.5 26 q8.5 13 21 23 q12.5 10 26.5 16 q14 6 27 6 l2 0 q14 0 25.5 -6 q11.5 -6 20 -16 q8.5 -10 12 -23 q3.5 -13 1.5 -26 l-5 -29 l98 0 q14 0 25.5 -5.5 q11.5 -5.5 20.5 -15 q9 -9.5 12.5 -21.5 q3.5 -12 1.5 -24 q-2 -13 -10 -25 q-8 -12 -20.5 -21.5 q-12.5 -9.5 -25.5 -15 q-13 -5.5 -27 -5.5 l-99 0 l-11 -66 l279 0 q14 0 25.5 -6 q11.5 -6 20 -15.5 q8.5 -9.5 12.5 -21.5 q4 -12 2 -24 q-2 -13 -10 -25 q-8 -12 -20.5 -21.5 q-12.5 -9.5 -26 -15.5 q-13.5 -6 -27.5 -6 l-279 0 l-15 -85 q-2 -13 -10.5 -26 q-8.5 -13 -20.5 -23 q-12 -10 -25.5 -16 q-13.5 -6 -27.5 -6 l-2 0 q-13 0 -25 6 q-12 6 -21 16 q-9 10 -12.5 23 q-3.5 13 -1.5 26 l15 85 l-273 0 q-13 0 -25 6 q-12 6 -20.5 15.5 q-8.5 9.5 -12.5 21.5 q-4 12 -2 25 Z" /><glyph glyph-name="uni4E45" unicode="&#x4e45;" d="M3 -3 q0 14 9 39.5 q9 25.5 49 45.5 q89 44 170 102.5 q81 58.5 150.5 132.5 q69.5 74 126.5 163 q26 39 48 82 l-182 0 q-15 -21 -31 -42 q-79 -105 -166 -183 q-10 -9 -24.5 -13.5 q-14.5 -4.5 -29 -4.5 q-14.5 0 -27 4 q-12.5 4 -21.5 13 q-2 1 -2 1.5 q0 0.5 -1 1.5 q-12 12 -15.5 24.5 q-3.5 12.5 -3.5 22.5 q0 7 2 18.5 q2 11.5 11 28 q9 16.5 24 29.5 q74 65 137 148.5 q63 83.5 113 179.5 q6 12 17.5 22.5 q11.5 10.5 25 17 q13.5 6.5 27.5 9.5 q14 3 27 0 l16 -4 q14 -3 23.5 -12.5 q9.5 -9.5 15 -22 q5.5 -12.5 4.5 -27 q-1 -14.5 -9 -28.5 l-20 -36 l131 0 q14 0 26 -6 q8 6 16 6 q2 0 5.5 0.5 q3.5 0.5 6.5 1.5 l6 1 q5 2 15 1 q10 -1 14 -4 l36 -17 q9 -4 15.5 -13.5 q6.5 -9.5 10 -21 q3.5 -11.5 3 -23.5 q-0.5 -12 -5.5 -23 q-56 -118 -124 -220 q5 -8 8 -17 q12 -43 31 -83 q19 -40 43.5 -76.5 q24.5 -36.5 55.5 -68.5 q31 -32 68 -58 q29 -21 29 -57 q0 -36 -28 -67 q-9 -10 -22.5 -17.5 q-13.5 -7.5 -27.5 -11 q-14 -3.5 -27.5 -2.5 q-13.5 1 -22.5 8 q-48 33 -86 74 q-38 41 -68 89 q-30 48 -52 103 q-8 18 -14 36 q-22 -24 -43 -47 q-82 -85 -173 -151 q-91 -66 -188 -112 q-11 -6 -24.5 -6.5 q-13.5 -0.5 -26 3.5 q-12.5 4 -22.5 11 q-10 7 -17 16 q-12 19 -12 40 Z" /><glyph glyph-name="uni4E48" unicode="&#x4e48;" d="M80 425 q0 8 2.5 20.5 q2.5 12.5 12.5 28 q10 15.5 26 27.5 q45 32 88.5 68.5 q43.5 36.5 84 75 q40.5 38.5 76.5 78 q36 39.5 67 76.5 q15 20 38 28 q23 8 38 8 q11 0 20 -3 l12 -5 q14 -6 22.5 -17.5 q8.5 -11.5 11 -26 q2.5 -14.5 -2 -30 q-4.5 -15.5 -15.5 -28.5 q-40 -46 -84.5 -93 q-44.5 -47 -91.5 -91.5 q-47 -44.5 -96 -85.5 q-49 -41 -98 -77 q-11 -8 -25 -11 q-14 -3 -27.5 -2.5 q-13.5 0.5 -25 5.5 q-11.5 5 -18.5 13 q-11 12 -13 23.5 q-2 11.5 -2 18.5 ZM50 25 q-3 14 1 29.5 q4 15.5 13.5 31 q9.5 15.5 22.5 29 q13 13.5 27 23.5 q8 5 10.5 6 q2.5 1 7 4 q4.5 3 17 12 q12.5 9 41.5 30 q29 20 80 62.5 q51 42.5 114.5 101 q63.5 58.5 133.5 130 q70 71.5 137 149.5 q8 10 20.5 17.5 q12.5 7.5 26 11 q13.5 3.5 27 3 q13.5 -0.5 22.5 -5.5 l19 -11 q13 -7 20.5 -19 q7.5 -12 8.5 -26.5 q1 -14.5 -4 -30 q-5 -15.5 -16 -27.5 q-146 -161 -294 -285 q-84 -71 -164 -134 l351 23 q-4 12 -9 24 q-11 29 -23 57 q-6 13 -5 28.5 q1 15.5 8 30.5 q7 15 18.5 27 q11.5 12 26.5 19 l7 3 q12 6 26 6 q10 0 29 -5.5 q19 -5.5 28 -24.5 q15 -31 29 -64 q14 -33 27 -66 q13 -33 24 -64.5 q11 -31.5 19 -61.5 q3 -11 1 -24 q-2 -13 -9 -25.5 q-7 -12.5 -16.5 -23 q-9.5 -10.5 -21.5 -16.5 l-14 -7 q-15 -7 -30.5 -7 q-15.5 0 -29.5 5.5 q-14 5.5 -24 16 q-10 10.5 -14 24.5 q-3 10 -6 21 q-4 -3 -8 -5 q-15 -8 -31 -10 q-109 -9 -192 -14.5 q-83 -5.5 -144.5 -10 q-61.5 -4.5 -104 -7.5 q-42.5 -3 -71.5 -6 q-6 -1 -11 -1 q-12 0 -25.5 4 q-13.5 4 -25.5 13 q-2 1 -4 3 q-5 0 -10 2 q-29 8 -36 35 Z" /><glyph glyph-name="uni4E49" unicode="&#x4e49;" d="M452 740 q-3 14 -0.5 29.5 q2.5 15.5 10.5 29 q8 13.5 20.5 24.5 q12.5 11 27.5 16 q8 3 16 3 q14 0 33 -9.5 q19 -9.5 27 -29.5 q10 -31 19.5 -63 q9.5 -32 17.5 -62 q2 -12 -0.5 -25.5 q-2.5 -13.5 -10.5 -26.5 q-8 -13 -19 -23 q-11 -10 -24 -15 q-14 -5 -29 -3.5 q-15 1.5 -27 8 q-12 6.5 -21.5 17.5 q-9.5 11 -11.5 24 q-6 26 -12.5 53 q-6.5 27 -15.5 53 ZM-21 -24 q0 19 15.5 44.5 q15.5 25.5 52.5 38.5 q139 45 253 112 q23 13 45 27 q-60 78 -100 173 q-46 104 -74 227 q-2 13 2 27.5 q4 14.5 13 28 q9 13.5 21.5 23.5 q12.5 10 26.5 14 q13 4 26.5 1.5 q13.5 -2.5 25 -9 q11.5 -6.5 20 -16.5 q8.5 -10 11.5 -22 q21 -100 61 -187 q40 -88 101 -160 q13 11 25 23 q91 83 162.5 181.5 q71.5 98.5 126.5 207.5 q6 13 18 23.5 q12 10.5 26 18 q14 7.5 29 10 q15 2.5 27 -1.5 l10 -3 q13 -4 22 -14 q9 -10 13.5 -22.5 q4.5 -12.5 4 -27 q-0.5 -14.5 -8.5 -27.5 q-68 -126 -150.5 -238.5 q-82.5 -112.5 -187.5 -207.5 q-10 -8 -20 -17 q23 -18 47 -34 q82 -57 187 -95 q38 -14 40 -33 q2 -19 2 -23 q0 -31 -26 -62 q-14 -17 -36.5 -25 q-22.5 -8 -36.5 -8 q-8 0 -15 2 q-125 43 -218 107 q-45 30 -83 65 q-38 -25 -77 -48 q-131 -77 -294 -130 q-11 -3 -21 -3 l-27 8 q-27 9 -34 29 q-5 11 -5 23 Z" /><glyph glyph-name="uni4E4B" unicode="&#x4e4b;" d="M-9 -10 q-5 9 -5.5 21 q-0.5 12 2 24.5 q2.5 12.5 10 24.5 q7.5 12 16.5 19 q55 42 101.5 66.5 q46.5 24.5 91.5 24.5 q6 0 13 -1 q12 15 30 26 q77 46 154.5 101.5 q77.5 55.5 147.5 113.5 q70 58 129 117 l7 7 l-515 0 q-13 0 -25 6 q-12 6 -20.5 16 q-8.5 10 -12.5 23 q-4 13 -1 26 q2 14 10.5 26.5 q8.5 12.5 20.5 22.5 q12 10 26 16 q14 6 27 6 l312 0 q-12 9 -18 21 q-4 10 -8.5 19 q-4.5 9 -9.5 18 q-5 12 -4.5 27.5 q0.5 15.5 6.5 30 q6 14.5 17.5 27 q11.5 12.5 25.5 19.5 l8 4 q12 6 24.5 7 q12.5 1 25 -2 q12.5 -3 22.5 -9.5 q10 -6.5 15 -15.5 q8 -13 15.5 -26 q7.5 -13 14.5 -27 q6 -11 6 -25 q0 -14 -6.5 -27.5 q-6.5 -13.5 -15.5 -24.5 q-8 -10 -18 -16 l165 0 q14 0 25 -6 q9 6 18 6 q2 0 5 0.5 q3 0.5 5 0.5 q10 2 22.5 0 q12.5 -2 18.5 -7 l29 -20 q9 -7 14.5 -19.5 q5.5 -12.5 6 -26.5 q0.5 -14 -4.5 -28.5 q-5 -14.5 -15 -25.5 q-62 -67 -133 -132.5 q-71 -65.5 -147.5 -126.5 q-76.5 -61 -156.5 -116 q-64 -45 -127 -83 q35 -19 82 -25 q64 -9 146 -9 q48 0 112 3.5 q64 3.5 127 8.5 q7 1 13 1 q32 0 44.5 -17 q12.5 -17 12.5 -34 q0 -15 -7 -32 q-9 -22 -35 -41 q-26 -19 -50 -21 q-27 -2 -55.5 -3 q-28.5 -1 -58 -2 q-29.5 -1 -62.5 -1.5 q-33 -0.5 -71 -0.5 q-94 0 -155 12.5 q-61 12.5 -109 42.5 q-30 20 -51.5 40 q-21.5 20 -38.5 20 q-13 0 -30.5 -14.5 q-17.5 -14.5 -37.5 -36.5 q-14 -15 -29.5 -23 q-15.5 -8 -32 -8.5 q-16.5 -0.5 -30 6 q-13.5 6.5 -22.5 21.5 l-6 11 Z" /><glyph glyph-name="uni4E4C" unicode="&#x4e4c;" d="M152 352 l58 329 q3 14 11 26.5 q8 12.5 20.5 23 q12.5 10.5 26.5 16.5 q14 6 27 6 l148 0 q-3 9 -3 17 q0 13 6 26 q9 23 34 39 q25 16 49 16 q3 0 5 0 q17 -1 29 -9.5 q12 -8.5 17.5 -21.5 q5.5 -13 4.5 -29 q-1 -16 -12 -32 q-3 -3 -4 -5 l-1 -1 l289 0 q14 0 25.5 -5.5 q11.5 -5.5 20.5 -14.5 q9 -9 13 -20 q4 -11 2 -23 q-2 -12 -10 -23 q-10 -34 -18 -61 q-11 -35 -22 -60.5 q-11 -25.5 -22 -43 q-11 -17.5 -23 -28.5 q-24 -21 -50.5 -29 q-26.5 -8 -54.5 -10 q-17 -1 -32.5 -1.5 q-15.5 -0.5 -23.5 -0.5 q-16 0 -33 1 q-24 1 -43.5 16 q-19.5 15 -19.5 33 q0 28 27.5 47.5 q27.5 19.5 64.5 19.5 q2 0 4 0 l12 0 q14 0 22.5 2 q8.5 2 16.5 10 q6 5 13.5 18 q7.5 13 15.5 34 l4 12 l-400 0 q-3 0 -5 -2 q-2 -2 -3 -5 l-36 -205 q-1 -3 0.5 -5 q1.5 -2 3.5 -2 l563 0 q14 0 26 -5 q9 -4 16 -10 q0 -1 1 -1 q11 -7 16.5 -16.5 q5.5 -9.5 4.5 -18.5 l-2 -8 l0 -4 q0 -3 -1 -6 q-18 -86 -31 -149 q-14 -66 -27 -111 q-13 -45 -25.5 -72 q-12.5 -27 -25.5 -42 q-26 -26 -52 -36 q-26 -10 -59 -15 q-19 -2 -43.5 -3 q-24.5 -1 -52.5 -1 q-25 0 -44 16 q-19 16 -21 34 q-1 5 -1 9 q0 28 23.5 50 q23.5 22 65.5 22 q2 0 3 0 l29 0 q14 0 24 2 q10 2 19 10 q10 8 18 30 q8 22 18.5 62.5 q10.5 40.5 22.5 100.5 q3 16 7 35 l-567 0 q-13 0 -25 6 q-12 6 -20.5 16.5 q-8.5 10.5 -12 23.5 q-3.5 13 -1.5 26 ZM-3 129.5 q-4 11.5 -2 23.5 q2 12 10 23 q8 11 20 20 q12 9 26 14.5 q14 5.5 28 5.5 l543 0 q14 0 26 -5.5 q12 -5.5 21 -14.5 q9 -9 13 -20 q4 -11 2 -23 q-2 -12 -10 -23.5 q-8 -11.5 -20 -20.5 q-12 -9 -26 -14.5 q-14 -5.5 -28 -5.5 l-543 0 q-14 0 -26 5.5 q-12 5.5 -21 14.5 q-9 9 -13 20.5 Z" /><glyph glyph-name="uni4E4D" unicode="&#x4e4d;" d="M70 445 q0 18 7.5 36 q7.5 18 19.5 32 q56 58 108 129.5 q52 71.5 95 147.5 q7 12 18.5 22 q11.5 10 24.5 17 q13 7 27.5 9 q14.5 2 26.5 -1 l11 -3 q14 -4 24 -14 q10 -10 14 -23 q4 -13 3 -27.5 q-1 -14.5 -9 -28.5 q-13 -21 -25 -42 l513 0 q14 0 25.5 -6 q11.5 -6 20.5 -16 q9 -10 12.5 -22.5 q3.5 -12.5 1.5 -26.5 q-3 -13 -11 -26 q-8 -13 -20.5 -23 q-12.5 -10 -26 -16 q-13.5 -6 -27.5 -6 l-369 0 l-17 -91 q8 2 15 2 l291 0 q13 0 24.5 -6 q11.5 -6 20 -15.5 q8.5 -9.5 12.5 -22 q4 -12.5 1 -25.5 q-2 -13 -10 -25.5 q-8 -12.5 -20 -22.5 q-12 -10 -26 -16 q-14 -6 -27 -6 l-291 0 q-7 0 -13 2 l-17 -95 q8 2 15 2 l314 0 q14 0 25.5 -6 q11.5 -6 20 -16 q8.5 -10 12.5 -22.5 q4 -12.5 1 -26.5 q-2 -13 -10 -26 q-8 -13 -20.5 -23 q-12.5 -10 -26 -16 q-13.5 -6 -27.5 -6 l-314 0 q-7 0 -15 2 l-21 -121 q-3 -14 -11 -26.5 q-8 -12.5 -20.5 -23 q-12.5 -10.5 -26 -16.5 q-13.5 -6 -27.5 -6 l-10 0 q-13 0 -25 6 q-12 6 -20.5 16.5 q-8.5 10.5 -12.5 23 q-4 12.5 -1 26.5 l103 580 l-61 0 q-61 -83 -122 -150 q-10 -11 -23.5 -17 q-13.5 -6 -28.5 -7.5 q-15 -1.5 -28.5 1.5 q-13.5 3 -23.5 10 q-12 10 -17.5 23.5 q-5.5 13.5 -5.5 27.5 Z" /><glyph glyph-name="uni4E4E" unicode="&#x4e4e;" d="M709 432 q-8 11 -11 25 q-3 14 0 29.5 q3 15.5 11 29.5 q6 9 11 17.5 q5 8.5 10 17.5 q5 9 9.5 18 q4.5 9 9.5 18 q7 14 19 25 q12 11 26.5 18 q14.5 7 29.5 9.5 q15 2.5 28 -2.5 l4 -1 q14 -4 23.5 -15 q9.5 -11 12.5 -25.5 q3 -14.5 0.5 -30.5 q-2.5 -16 -13.5 -30 q-18 -24 -34.5 -46.5 q-16.5 -22.5 -31.5 -42.5 q-15 -19 -35 -26 q-20 -7 -32 -7 q-9 0 -17 3 q-12 5 -20 16 ZM175 517 q-3 14 -0.5 29.5 q2.5 15.5 10.5 29 q8 13.5 19.5 24.5 q11.5 11 25.5 16 q9 4 19 4 q12 0 31 -8 q19 -8 26 -28 q6 -20 11.5 -40 q5.5 -20 10.5 -40 q3 -11 -0.5 -23.5 q-3.5 -12.5 -11 -24 q-7.5 -11.5 -17.5 -20.5 q-10 -9 -21 -13 q-13 -5 -25 -5 q-3 0 -12.5 1 q-9.5 1 -22 8.5 q-12.5 7.5 -21.5 19.5 q-9 12 -12 27 q-2 11 -4.5 21.5 q-2.5 10.5 -5.5 21.5 ZM18 315 l0 4 q3 14 11 27 q8 13 20.5 23.5 q12.5 10.5 26.5 16.5 q14 6 27 6 l319 0 l47 264 l0 2 q-41 -3 -82 -5 q-79 -5 -154 -7 q-1 0 -3 0 q-24 0 -45 17.5 q-21 17.5 -21 39.5 q0 27 25 51 q25 24 63 26 q76 4 153.5 10 q77.5 6 152 14 q74.5 8 145 18 q70.5 10 133.5 22 q5 1 11 1 l26 -10 q26 -10 33 -27 l3 -7 q4 -10 4 -20 q0 -5 -2 -16 q-2 -11 -11 -25 q-9 -14 -23.5 -24 q-14.5 -10 -31.5 -13 q-71 -13 -147 -22 q-35 -5 -71 -9 q1 -8 0 -16 l-47 -264 l298 0 q14 0 25.5 -6 q11.5 -6 20 -16.5 q8.5 -10.5 12.5 -23.5 q4 -13 1 -27 l0 -4 q-3 -14 -11.5 -27 q-8.5 -13 -20.5 -23.5 q-12 -10.5 -25.5 -16.5 q-13.5 -6 -27.5 -6 l-298 0 l-29 -163 q-11 -63 -33 -95.5 q-22 -32.5 -67 -49.5 q-35 -14 -79.5 -19.5 q-44.5 -5.5 -98.5 -6.5 q-1 0 -3 0 q-21 0 -39.5 16 q-18.5 16 -22.5 36 q-2 8 -2 16 q0 28 21.5 53 q21.5 25 62.5 25 q1 0 3 0 l64 0 q17 0 25.5 6 q8.5 6 10.5 21 l29 161 l-319 0 q-13 0 -25 6 q-12 6 -21 16.5 q-9 10.5 -12.5 23.5 q-3.5 13 -0.5 27 Z" /><glyph glyph-name="uni4E4F" unicode="&#x4e4f;" d="M160 704 q-1 15 5.5 29 q6.5 14 18.5 25 q12 11 28.5 18 q16.5 7 34.5 8 q81 3 162.5 9 q81.5 6 159 13.5 q77.5 7.5 149 18 q71.5 10.5 132.5 22.5 q5 1 10 1 q11 0 26.5 -5 q15.5 -5 22.5 -16 l12 -16 q10 -15 11 -24.5 q1 -9.5 1 -12.5 q0 -13 -6.5 -26 q-6.5 -13 -21 -23.5 q-14.5 -10.5 -35.5 -14.5 q-75 -13 -155.5 -23.5 q-80.5 -10.5 -162 -17.5 q-81.5 -7 -163.5 -11.5 q-82 -4.5 -160 -6.5 q-1 0 -3 0 q-24 0 -44 16.5 q-20 16.5 -22 36.5 ZM-30 23 q0 8 3 25 q3 17 20 31 q55 52 98 77.5 q43 25.5 76 25.5 q13 0 24.5 -6 q11.5 -6 23.5 -16.5 q12 -10.5 27 -24.5 l5 -5 q15 31 54 49 q64 31 127 67.5 q63 36.5 120 74.5 q31 21 60 43 l-433 0 q-13 0 -25 6 q-12 6 -20.5 16.5 q-8.5 10.5 -12 23.5 q-3.5 13 -1.5 26 q2 13 10.5 26 q8.5 13 20.5 23 q12 10 26 16 q14 6 27 6 l275 0 q-4 1 -7 2 q-14 5 -24.5 15 q-10.5 10 -15.5 23 q-1 3 -1.5 6 q-0.5 3 -2.5 5 q-3 13 -1 27.5 q2 14.5 9 28.5 q7 14 18 25.5 q11 11.5 24 17.5 l2 1 q12 5 25.5 5 q13.5 0 25.5 -3.5 q12 -3.5 21.5 -11 q9.5 -7.5 13.5 -17.5 q4 -6 6.5 -12.5 q2.5 -6.5 5.5 -13.5 q5 -11 3 -25 q-2 -14 -8.5 -27 q-6.5 -13 -17 -24 q-10.5 -11 -23.5 -17 q-6 -3 -13 -5 l199 0 q14 0 26 -6 l6 -4 l2 2 q10 8 21 8 q2 0 5.5 0.5 q3.5 0.5 5.5 0.5 q9 2 22 -0.5 q13 -2.5 20 -7.5 l21 -17 q11 -9 15.5 -22 q4.5 -13 3.5 -28 q-1 -15 -7.5 -29 q-6.5 -14 -19.5 -25 q-53 -46 -114 -90 q-61 -44 -125 -85 q-64 -41 -131 -77 q-59 -32 -117 -60 q18 -6 39 -9 q67 -10 161 -10 q55 0 124.5 3.5 q69.5 3.5 136.5 9.5 q6 1 11 1 q33 0 46.5 -17 q13.5 -17 13.5 -34 q0 -15 -8 -33 q-9 -21 -34.5 -40 q-25.5 -19 -49.5 -21 q-30 -2 -60.5 -3 q-30.5 -1 -64 -2.5 q-33.5 -1.5 -70 -2 q-36.5 -0.5 -78.5 -0.5 q-52 0 -93.5 3 q-41.5 3 -75 10.5 q-33.5 7.5 -61 19 q-27.5 11.5 -52.5 29.5 q-16 12 -30.5 24.5 q-14.5 12.5 -26.5 23.5 q-12 11 -21.5 18 q-9.5 7 -17.5 7 q-8 0 -19.5 -13 q-11.5 -13 -23.5 -34 q-23 -39 -42 -42.5 q-19 -3.5 -24 -3.5 q-26 0 -42 30 l-10 16 q-6 11 -6 26 Z" /><glyph glyph-name="uni4E50" unicode="&#x4e50;" d="M669 158 q-7 14 -6 30 q1 16 7.5 31 q6.5 15 18.5 27 q12 12 29 18 q11 4 22 4 q10 0 27.5 -5 q17.5 -5 26.5 -21 q10 -18 20.5 -37 q10.5 -19 20.5 -38 q10 -19 19 -38 q9 -19 17 -37 q6 -12 4 -26 q-2 -14 -9 -27.5 q-7 -13.5 -17.5 -24.5 q-10.5 -11 -24.5 -17 l-5 -2 q-13 -6 -28 -5.5 q-15 0.5 -28 6 q-13 5.5 -23 14.5 q-10 9 -15 21 q-5 15 -11.5 31 q-6.5 16 -13.5 32 l-15 32 l-16 32 ZM88 387 q-2 11 1.5 25.5 q3.5 14.5 9.5 30 q6 15.5 13 31.5 q4 10 8 18 l0 1 q1 2 3 7 l2 3 q1 2 2 5 q3 10 10 30 q7 20 15.5 46.5 q8.5 26.5 17.5 59 q9 32.5 17 66.5 q4 16 14.5 30 q10.5 14 24.5 24 q7 6 16 10 q12 10 27 16 q17 7 35 7 q71 2 143 6 q72 4 142 10 q70 6 136 13.5 q66 7.5 125 16.5 q4 1 9 1 q15 0 33 -9.5 q18 -9.5 24 -26.5 l3 -5 q3 -10 3 -20 q0 -6 -2 -17.5 q-2 -11.5 -11 -25.5 q-9 -14 -23.5 -23.5 q-14.5 -9.5 -33.5 -12.5 q-67 -10 -138 -17 q-71 -7 -143.5 -11.5 q-72.5 -4.5 -144.5 -7.5 q-51 -2 -100 -3 q-16 -60 -38 -119 q-15 -38 -28 -72 l191 0 l15 87 q2 13 10.5 26 q8.5 13 20.5 23 q12 10 26 16 q14 6 27 6 l7 0 q14 0 25.5 -6 q11.5 -6 20.5 -16.5 q9 -10.5 12.5 -23 q3.5 -12.5 1.5 -26.5 l-15 -86 l258 0 q14 0 25.5 -6 q11.5 -6 20.5 -16.5 q9 -10.5 12.5 -23.5 q3.5 -13 1.5 -27 l-2 -2 q-2 -13 -10.5 -26 q-8.5 -13 -20 -23 q-11.5 -10 -25 -16 q-13.5 -6 -27.5 -6 l-259 0 l-45 -253 q-10 -57 -28.5 -89 q-18.5 -32 -56.5 -49 q-29 -13 -63.5 -18.5 q-34.5 -5.5 -77.5 -7.5 q-1 0 -2 0 q-22 0 -41 17.5 q-19 17.5 -21 38.5 q-1 5 -1 10 q0 30 23.5 55.5 q23.5 25.5 64.5 25.5 l25 0 q14 0 20 4 q6 4 8 16 l44 250 l-195 0 q-24 0 -46 4.5 q-22 4.5 -38 13.5 q-5 3 -9 6 q-6 0 -11 1 q-15 2 -25 11 q-10 9 -13 23 ZM1 29 q-4 14 -2.5 30 q1.5 16 10 32 q8.5 16 21.5 29 q28 26 55 55.5 q27 29.5 51 58.5 q17 19 40 27.5 q23 8.5 37 8.5 q9 0 17 -3 l2 -1 q14 -5 23 -16.5 q9 -11.5 12 -25.5 q3 -14 -1 -29.5 q-4 -15.5 -16 -29.5 q-33 -39 -67 -76.5 q-34 -37.5 -67 -70.5 q-11 -10 -24.5 -16.5 q-13.5 -6.5 -27.5 -8 q-14 -1.5 -26.5 1.5 q-12.5 3 -21.5 10 q-11 10 -15 24 Z" /><glyph glyph-name="uni4E58" unicode="&#x4e58;" d="M-1 -24 q-9 16 -9 32 q0 16 13.5 40.5 q13.5 24.5 54.5 39.5 q48 18 92 40 q44 22 86 49 l4 2 l-8 4 q-11 6 -18 17 q-4 4 -6 9 q-22 -3 -43 -6 q-30 -4 -59 -8 q-6 -1 -11 -1 q-20 0 -39.5 13 q-19.5 13 -20.5 34 q1 12 7.5 23.5 q6.5 11.5 17.5 21.5 q11 10 25.5 16.5 q14.5 6.5 30.5 7.5 q26 2 53 5 q21 2 44 4 l6 35 l-72 0 q-27 0 -44.5 16.5 q-17.5 16.5 -17.5 33.5 q0 3 0 6 q2 10 10 20 q8 10 19.5 17.5 q11.5 7.5 25.5 12.5 q14 5 27 5 l79 0 q7 12 19 23 q11 10 24 16 q13 6 26 6 q12 0 23 -6 q11 -6 18.5 -16.5 q7.5 -10.5 11.5 -23.5 q4 -13 1 -27 l-33 -185 q23 21 44 42 q8 8 18 15 l39 220 l-291 0 q-13 0 -25 5.5 q-12 5.5 -20.5 15 q-8.5 9.5 -12.5 21 q-4 11.5 -2 23.5 q2 12 10 24 q8 12 20 21 q12 9 26 14.5 q14 5.5 27 5.5 l291 0 l2 12 q2 11 8 21 l-68 -2 q-73 -3 -142 -4 q-2 0 -3 0 q-24 0 -44.5 16 q-20.5 16 -20.5 38 q0 25 25 46.5 q25 21.5 63 23.5 q71 2 144 6 q73 4 143 9.5 q70 5.5 136 12 q66 6.5 125 14.5 q3 0 6 0 q17 0 36 -10 q19 -10 24 -27 q3 -8 3 -17 q0 -7 -3 -18.5 q-3 -11.5 -12.5 -25 q-9.5 -13.5 -24.5 -22.5 q-15 -9 -32 -11 q-66 -8 -136 -14 q-38 -3 -75 -6 q0 -2 1 -3 q4 -13 1 -27 l-2 -12 l289 0 q14 0 25.5 -5.5 q11.5 -5.5 20.5 -14.5 q9 -9 13 -21 q4 -12 2 -24 q-2 -12 -10 -23.5 q-8 -11.5 -20.5 -21 q-12.5 -9.5 -26 -15 q-13.5 -5.5 -27.5 -5.5 l-289 0 l-39 -223 q7 -7 12 -15 q14 -23 31 -45 l0 1 q0 28 8 70 l22 125 q2 14 10 26.5 q8 12.5 19.5 23 q11.5 10.5 24.5 16.5 q13 6 25 6 q12 0 23 -6 q11 -6 18.5 -16.5 q7.5 -10.5 10.5 -22.5 q2 -11 2 -21 q7 2 14 5 q11 4 22 9 q15 6 33 6 q8 0 25 -2.5 q17 -2.5 26 -18.5 q7 -12 6 -26 q-1 -14 -9 -27 q-8 -13 -22 -24 q-14 -11 -32 -16 q-15 -5 -31 -8.5 q-16 -3.5 -31 -7.5 q-11 -3 -21 -3 l-3 -17 q-4 -21 -1 -26 q3 -5 17 -5 l42 0 q11 0 22 4.5 q11 4.5 23.5 9 q12.5 4.5 25 6.5 q12.5 2 26.5 -3 q7 -3 13 -11.5 q6 -8.5 8 -19.5 q2 -11 0.5 -23.5 q-1.5 -12.5 -8.5 -24.5 q-10 -16 -19.5 -27 q-9.5 -11 -21.5 -17.5 q-12 -6.5 -29.5 -9.5 q-17.5 -3 -45.5 -3 l-80 0 q-20 0 -37 2 q29 -23 62 -43 q36 -22 76 -40 q36 -15 40 -34.5 q4 -19.5 4 -25.5 q0 -26 -22 -51 q-15 -17 -35.5 -23.5 q-20.5 -6.5 -31.5 -6.5 q-12 0 -22 5 q-49 22 -91.5 51 q-42.5 29 -77.5 65 q-28 28 -52 60 l-26 -149 q-2 -14 -10.5 -26.5 q-8.5 -12.5 -20.5 -23 q-12 -10.5 -26 -16.5 q-14 -6 -28 -6 l-10 0 q-13 0 -24.5 6 q-11.5 6 -20.5 16.5 q-9 10.5 -12.5 23 q-3.5 12.5 -1.5 26.5 l26 149 q-36 -32 -76 -60 q-49 -35 -103 -64 q-54 -29 -110 -51 q-11 -4 -23 -4 q-12 0 -29.5 6 q-17.5 6 -25.5 22 Z" /><glyph glyph-name="uni4E5D" unicode="&#x4e5d;" d="M-16 -8 q0 13 9 38 q9 25 44 48 q85 58 138.5 131 q53.5 73 87.5 160 q19 48 34 100 l-153 0 q-13 0 -25 6 q-12 6 -21 16 q-9 10 -12.5 23 q-3.5 13 -1.5 26 l1 5 q2 13 10.5 26 q8.5 13 21 23 q12.5 10 26.5 16 q14 6 27 6 l161 0 q15 73 29 153 q2 13 10 26 q8 13 20.5 23 q12.5 10 26.5 16 q14 6 28 6 l15 0 q14 0 25.5 -6.5 q11.5 -6.5 19.5 -16.5 q8 -10 12 -23 q4 -13 1 -27 q-14 -77 -30 -151 l226 0 q13 0 25 -6 q12 -6 20 -16 q0 -1 1 -2 q7 -9 11 -21 q2 -9 2 -17 q0 -6 -1 -11 l-76 -430 q-4 -26 -4 -38 q0 -4 1 -9.5 q1 -5.5 18 -5.5 l47 0 q5 0 9 2 q4 2 8 6.5 q4 4.5 7.5 13 q3.5 8.5 7.5 20.5 q13 43 36.5 58.5 q23.5 15.5 42.5 15.5 q13 0 27 -6 q16 -7 24 -25.5 q8 -18.5 8 -31.5 q0 -9 -3 -19 q-15 -48 -30.5 -81.5 q-15.5 -33.5 -35 -54.5 q-19.5 -21 -46 -30 q-26.5 -9 -64.5 -9 l-92 0 q-41 0 -67.5 9 q-26.5 9 -40 31.5 q-13.5 22.5 -14 42.5 q-0.5 20 -0.5 24 q0 35 9 87 l63 356 l-154 0 q-4 -15 -9 -30 q-23 -77 -54 -147 q-31 -70 -73 -132.5 q-42 -62.5 -97.5 -117.5 q-55.5 -55 -128.5 -100 q-13 -8 -27 -10 q-14 -2 -27 0.5 q-13 2.5 -24 9 q-11 6.5 -18 15.5 q-11 16 -11 35 Z" /><glyph glyph-name="uni4E5F" unicode="&#x4e5f;" d="M29 401 q-1 12 3.5 26 q4.5 14 13.5 26 q9 12 20.5 21.5 q11.5 9.5 25.5 13.5 l104 31 l34 192 q3 14 11 27 q8 13 20 23.5 q12 10.5 26 16.5 q14 6 27 6 q14 0 25.5 -6 q11.5 -6 19.5 -16.5 q8 -10.5 12 -23 q4 -12.5 2 -26.5 l-26 -148 l133 40 l31 176 q2 14 10.5 27 q8.5 13 20.5 23.5 q12 10.5 26 16.5 q14 6 27 6 q14 0 25.5 -6 q11.5 -6 20.5 -16.5 q9 -10.5 12.5 -23.5 q3.5 -13 1.5 -27 l-23 -130 l137 41 q9 3 18 3 l25 15 l1 1 q11 7 29.5 8.5 q18.5 1.5 29.5 -3.5 l16 -8 q19 -8 32 -21.5 q13 -13.5 10 -21.5 q0 -2 -1.5 -5.5 q-1.5 -3.5 -1.5 -6.5 q-27 -140 -47.5 -226 q-20.5 -86 -42.5 -129 q-21 -43 -45.5 -64.5 q-24.5 -21.5 -55.5 -31.5 q-14 -5 -31.5 -7.5 q-17.5 -2.5 -36.5 -4.5 q-3 0 -5 0 q-21 0 -39.5 14.5 q-18.5 14.5 -18.5 32.5 q0 3 0 6 q0 28 18 51.5 q18 23.5 47 23.5 q14 0 25.5 8 q11.5 8 23.5 33 q14 31 31 111 q7 37 17 88 l-160 -49 l-53 -298 q-2 -14 -10.5 -27 q-8.5 -13 -21 -23.5 q-12.5 -10.5 -26 -16.5 q-13.5 -6 -27.5 -6 q-13 0 -25 6 q-12 6 -20.5 16.5 q-8.5 10.5 -12 23.5 q-3.5 13 -1.5 27 l45 251 l-133 -40 l-50 -282 q-5 -25 -5 -41 q0 -19 10 -28.5 q10 -9.5 31.5 -12 q21.5 -2.5 57.5 -2.5 l277 0 q21 0 36.5 2 q15.5 2 28 7 q12.5 5 22.5 14 q10 9 19 23 q22 35 46.5 51 q24.5 16 43.5 16 l22 -4 q19 -8 26.5 -26.5 q7.5 -18.5 7.5 -30.5 q0 -12 -5 -25 q-17 -44 -35.5 -74 q-18.5 -30 -46 -48.5 q-27.5 -18.5 -69 -26.5 q-41.5 -8 -105.5 -8 l-294 0 q-72 0 -118.5 9.5 q-46.5 9.5 -70.5 34 q-24 24.5 -27 51 q-3 26.5 -3 39.5 q0 35 9 81 l41 234 l-60 -18 q-14 -4 -28 -2 q-14 2 -25.5 8 q-11.5 6 -19 16.5 q-7.5 10.5 -9.5 22.5 Z" /><glyph glyph-name="uni4E60" unicode="&#x4e60;" d="M266 509.5 q-4 13.5 -2 28.5 q2 15 8.5 29 q6.5 14 18.5 24 q19 15 35 16 q16 1 19 1 q24 0 38 -12 q15 -12 30 -25 q15 -13 30.5 -25.5 q15.5 -12.5 30 -25.5 q14.5 -13 28.5 -25 q10 -9 13.5 -22 q3.5 -13 2 -27 q-1.5 -14 -8.5 -27.5 q-7 -13.5 -17 -23.5 l-3 -2 q-11 -10 -26 -15.5 q-15 -5.5 -30.5 -6 q-15.5 -0.5 -28.5 4 q-13 4.5 -22 13.5 q-11 12 -23.5 24 q-12.5 12 -25.5 24 q-13 12 -26 24.5 q-13 12.5 -26 24.5 q-11 10 -15 23.5 ZM148 734 q3 13 11 25.5 q8 12.5 20.5 22.5 q12.5 10 26.5 16 q14 6 27 6 l674 0 q14 0 25.5 -6 q11.5 -6 20 -16 q8.5 -10 12.5 -22 l2 -8 q1 -8 0 -15 l-2 -12 q-35 -185 -61 -312.5 q-26 -127.5 -46.5 -211.5 q-20.5 -84 -39 -131 q-18.5 -47 -38.5 -70 q-33 -38 -62.5 -54 q-29.5 -16 -67.5 -22 q-27 -4 -60.5 -5 q-33.5 -1 -68.5 -1 q-26 1 -46 18 q-20 17 -23 37 q-1 5 -1 9 q0 28 23.5 49.5 q23.5 21.5 64.5 21.5 q2 0 3 0 l64 0 q17 0 28 4 q11 4 21 14 q16 14 33 62.5 q17 48.5 37 135 q20 86.5 45 212.5 q16 82 34 183 l-596 0 q-13 0 -25 6 q-12 6 -20.5 16 q-8.5 10 -12.5 22.5 q-4 12.5 -2 25.5 ZM44 100 q-2 13 2 27.5 q4 14.5 13.5 27.5 q9.5 13 22 23 q12.5 10 26.5 14 q48 14 103.5 31 q55.5 17 115 36 q59.5 19 121 39 q61.5 20 123.5 41 q16 5 30.5 3.5 q14.5 -1.5 27 -8.5 q12.5 -7 20 -18.5 q7.5 -11.5 7.5 -25.5 q0 -21 -18 -45.5 q-18 -24.5 -41 -32.5 q-59 -21 -120 -42.5 q-61 -21.5 -120.5 -42 q-59.5 -20.5 -116.5 -40 q-57 -19.5 -110 -37.5 q-14 -5 -28.5 -3.5 q-14.5 1.5 -26.5 7.5 q-12 6 -20.5 16.5 q-8.5 10.5 -9.5 23.5 l-1 6 Z" /><glyph glyph-name="uni4E66" unicode="&#x4e66;" d="M512 422 l158 0 l21 122 q0 3 -1.5 5 q-1.5 2 -4.5 2 l-151 0 l-22 -129 ZM37 354 q3 13 11 25 q8 12 19.5 21.5 q11.5 9.5 25.5 15.5 q14 6 27 6 l242 0 l22 129 l-193 0 q-13 0 -25 6 q-12 6 -20.5 16 q-8.5 10 -12.5 22.5 q-4 12.5 -2 25.5 q3 13 11 25.5 q8 12.5 20.5 22.5 q12.5 10 26.5 16 q14 6 27 6 l193 0 l16 89 q2 14 10 26.5 q8 12.5 20.5 23 q12.5 10.5 26.5 16.5 q14 6 28 6 l4 0 q14 0 26 -6 q12 -6 20.5 -16.5 q8.5 -10.5 12.5 -23 q4 -12.5 2 -26.5 l-16 -89 l240 0 q-9 6 -17 12 q-12 8 -17.5 21 q-5.5 13 -6 27.5 q-0.5 14.5 5 28.5 q5.5 14 16.5 24 q16 16 33 18.5 q17 2.5 23 2.5 q18 0 30 -8 q24 -16 49.5 -32.5 q25.5 -16.5 48.5 -33.5 q10 -7 15 -19 q5 -12 4.5 -25.5 q-0.5 -13.5 -6 -27 q-5.5 -13.5 -15.5 -24.5 q-9 -10 -23 -16 q-14 -6 -29.5 -7 q-15.5 -1 -29.5 2.5 q-14 3.5 -24 11.5 l-10 8 q2 -4 3 -8 q4 -13 1 -27 l-34 -197 l74 0 q13 0 25 -6 q12 -6 21 -15 q1 -2 3 -4 l6 -8 q4 -6 4 -13 q3 -11 0 -22 q-2 -13 -10 -25 q-1 -2 -1 -3 q-15 -53 -26 -95 q-16 -55 -31.5 -94 q-15.5 -39 -29.5 -63.5 q-14 -24.5 -30 -38.5 q-27 -26 -56 -35.5 q-29 -9.5 -64 -12.5 q-19 -2 -43.5 -2.5 q-24.5 -0.5 -53.5 -1.5 q-25 0 -45 16.5 q-20 16.5 -22 35.5 q-1 5 -1 9 q0 29 24.5 51 q24.5 22 66.5 22 q2 0 4 0 l34 0 q15 0 25.5 1.5 q10.5 1.5 22.5 9.5 q10 8 20.5 27.5 q10.5 19.5 21.5 52.5 q10 31 23 77 l-291 0 l-53 -302 q-2 -14 -10.5 -26.5 q-8.5 -12.5 -21 -23 q-12.5 -10.5 -26.5 -16.5 q-14 -6 -28 -6 l-4 0 q-14 0 -26 6 q-12 6 -20.5 16.5 q-8.5 10.5 -12 23 q-3.5 12.5 -1.5 26.5 l53 302 l-241 0 q-13 0 -25 6 q-12 6 -20 15.5 q-8 9.5 -12 22 q-4 12.5 -2 25.5 Z" /><glyph glyph-name="uni4E70" unicode="&#x4e70;" d="M501.5 57 q-9.5 12 -12 26 q-2.5 14 0.5 28.5 q3 14.5 15 27.5 q13 14 31.5 19.5 q18.5 5.5 28.5 5.5 q10 0 19 -4 q61 -23 119.5 -50 q58.5 -27 106.5 -53 q13 -7 19.5 -19.5 q6.5 -12.5 7 -27 q0.5 -14.5 -5 -30 q-5.5 -15.5 -17.5 -27.5 q-18 -18 -37.5 -21 q-19.5 -3 -27.5 -3 q-19 0 -33 8 q-40 25 -89 51.5 q-49 26.5 -102 50.5 q-14 6 -23.5 18 ZM258.5 541.5 q-7.5 12.5 -9.5 27 q-2 14.5 3 29 q5 14.5 16 25.5 q13 14 30.5 17.5 q17.5 3.5 25.5 3.5 q13 0 23 -5 q21 -11 42.5 -22.5 q21.5 -11.5 42.5 -22.5 q12 -7 17.5 -18.5 q5.5 -11.5 6.5 -25 q1 -13.5 -4 -27 q-5 -13.5 -15 -24.5 q-9 -10 -22.5 -15.5 q-13.5 -5.5 -27.5 -7 q-14 -1.5 -27.5 1 q-13.5 2.5 -24.5 9.5 q-13 8 -27 17 q-14 9 -28 17 q-14 8 -21.5 20.5 ZM145 740 q3 13 11 25 q8 12 20 21.5 q12 9.5 26 15.5 q14 6 27 6 l613 0 q14 0 26 -6 q2 -2 5 -3 q2 2 5 4 q6 5 14 5 q2 0 6 0.5 q4 0.5 6 1.5 q6 2 16.5 2 q10.5 0 15.5 -2 l23 -9 q12 -5 20 -16 q8 -11 11.5 -24.5 q3.5 -13.5 0.5 -28.5 q-3 -15 -11 -27 q-27 -39 -55 -76.5 q-28 -37.5 -56 -70.5 q-15 -18 -34 -23 q-19 -5 -29 -5 q-13 0 -23 5 q-12 6 -18 18 q-6 12 -7.5 26.5 q-1.5 14.5 3 30.5 q4.5 16 14.5 29 q12 16 24 33 l-594 0 q-13 0 -24.5 6 q-11.5 6 -20.5 15.5 q-9 9.5 -13 21.5 q-4 12 -2 25 ZM118 405 q-7 13 -9 27 q-2 14 3 28.5 q5 14.5 16 25.5 q13 14 29.5 17 q16.5 3 24.5 3 q13 0 23 -5 q17 -8 34 -17 q17 -9 33 -18 q12 -6 18 -17.5 q6 -11.5 7 -25 q1 -13.5 -3 -27 q-4 -13.5 -14 -23.5 q-10 -10 -23.5 -15.5 q-13.5 -5.5 -28 -7.5 q-14.5 -2 -28 0.5 q-13.5 2.5 -23.5 9.5 q-9 6 -18.5 12 q-9.5 6 -19.5 12 q-14 8 -21 21 ZM-13 -26 q0 18 17.5 41.5 q17.5 23.5 59.5 34.5 q84 22 145 50.5 q61 28.5 105 64.5 q25 20 46 43 l-274 0 q-13 0 -25 5.5 q-12 5.5 -20.5 15 q-8.5 9.5 -12.5 21.5 q-4 12 -2 25 q3 12 11 24 q8 12 19.5 21.5 q11.5 9.5 25.5 15 q14 5.5 27 5.5 l331 0 q21 50 35 109 q15 60 29 129 q2 13 11 25.5 q9 12.5 21 22.5 q12 10 26 16 q14 6 27 6 l1 0 q14 0 26 -6.5 q12 -6.5 20 -17 q8 -10.5 12 -23.5 q4 -13 0 -27 q-27 -126 -60 -229 q-1 -3 -2 -5 l273 0 q13 0 25 -5.5 q12 -5.5 20.5 -15 q8.5 -9.5 12.5 -21.5 q4 -12 1 -24 q-2 -13 -10 -25 q-8 -12 -19.5 -21.5 q-11.5 -9.5 -25.5 -15 q-14 -5.5 -27 -5.5 l-312 0 q-15 -24 -32 -46 q-62 -82 -162.5 -142.5 q-100.5 -60.5 -260.5 -99.5 q-8 -2 -17 -2 q-15 0 -34.5 9 q-19.5 9 -26.5 26 q-4 11 -4 21 Z" /><glyph glyph-name="uni4E71" unicode="&#x4e71;" d="M512 18 q0 38 10 92 l116 654 q2 14 10.5 26.5 q8.5 12.5 20.5 23 q12 10.5 26 16.5 q14 6 27 6 q14 0 25.5 -6 q11.5 -6 20.5 -16.5 q9 -10.5 12.5 -23 q3.5 -12.5 1.5 -26.5 l-116 -655 q-5 -30 -5 -44 q0 -5 1.5 -11.5 q1.5 -6.5 19.5 -6.5 l58 0 q6 0 12 3.5 q6 3.5 10.5 11.5 q4.5 8 9.5 21.5 q5 13.5 10 32.5 q12 43 35.5 58.5 q23.5 15.5 41.5 15.5 l25 -6 q16 -8 23.5 -26 q7.5 -18 7.5 -32 q0 -9 -2 -18 q-15 -52 -30.5 -89.5 q-15.5 -37.5 -36 -61.5 q-20.5 -24 -48 -35 q-27.5 -11 -67.5 -11 l-98 0 q-42 0 -68.5 9.5 q-26.5 9.5 -39.5 33 q-13 23.5 -13 64.5 ZM134 82 l197 0 l22 124 q1 2 -1 4 q-2 2 -4 2 l-185 0 q-2 0 -4 -2 q-2 -2 -3 -5 l-22 -123 ZM-15 1 l47 266 q3 14 11 26.5 q8 12.5 20.5 23 q12.5 10.5 26.5 16.5 q14 6 27 6 l91 0 l20 112 l-133 0 q-13 0 -25.5 5.5 q-12.5 5.5 -20.5 14.5 q-8 9 -12 21 q-4 12 -2 24 q2 12 10 23.5 q8 11.5 19.5 20.5 q11.5 9 25.5 14.5 q14 5.5 27 5.5 l133 0 l18 98 l-9 0 q-40 -5 -80 -9 q-3 0 -7 0 q-21 0 -41 11.5 q-20 11.5 -22 28.5 q0 3 0 6 q0 23 23 46.5 q23 23.5 61 28.5 q39 5 76.5 11 q37.5 6 74 12.5 q36.5 6.5 70 14 q33.5 7.5 64.5 15.5 q7 2 15 2 q10 0 25 -4.5 q15 -4.5 24 -16.5 l5 -6 q12 -15 12 -34 q0 -14 -6 -27.5 q-6 -13.5 -20 -24.5 q-14 -11 -34 -16 q-38 -8 -78 -15 q-5 -1 -9 -2 q0 -6 -1 -13 l-19 -106 l119 0 q13 0 25 -5.5 q12 -5.5 20.5 -14.5 q8.5 -9 12.5 -20.5 q4 -11.5 2 -23.5 q-2 -12 -10 -24 q-8 -12 -20 -21 q-12 -9 -25.5 -14.5 q-13.5 -5.5 -26.5 -5.5 l-119 0 l-20 -112 l97 0 q14 0 25.5 -6 q11.5 -6 20 -16.5 q8.5 -10.5 12.5 -23 q4 -12.5 1 -26.5 l-45 -254 q-2 -14 -10.5 -26.5 q-8.5 -12.5 -20 -23 q-11.5 -10.5 -25 -16.5 q-13.5 -6 -27.5 -6 q-13 0 -25 6 q-9 5 -16 12 q-11 -4 -23 -4 l-203 0 q-8 0 -16 2 q-2 -3 -5 -5 q-11 -11 -24.5 -17 q-13.5 -6 -25.5 -6 q-13 0 -23.5 6 q-10.5 6 -18.5 16.5 q-8 10.5 -11.5 23 q-3.5 12.5 -1.5 26.5 Z" /><glyph glyph-name="uni4E86" unicode="&#x4e86;" d="M139 718 q2 14 10 26.5 q8 12.5 20.5 23 q12.5 10.5 26.5 16.5 q14 6 27 6 l541 0 q14 0 26 -6 q5 -3 9 -6 q2 1 4 3 q12 9 26 9 q2 0 5.5 0.5 q3.5 0.5 6.5 1.5 l2 0 q10 2 24 -1 q14 -3 21 -9 l27 -23 q10 -9 14 -22.5 q4 -13.5 2.5 -28.5 q-1.5 -15 -8 -29 q-6.5 -14 -19.5 -24 q-36 -31 -76.5 -61.5 q-40.5 -30.5 -82 -59.5 q-41.5 -29 -83.5 -56 q-42 -26 -83 -49 l-65 -364 q-10 -59 -31.5 -90.5 q-21.5 -31.5 -66.5 -47.5 q-35 -13 -77 -18 q-42 -5 -93 -6 q-22 0 -41 16 q-19 16 -23 36 q-1 7 -1 14 q0 28 21.5 53 q21.5 25 61.5 25 q1 0 3 0 l60 0 q17 0 24.5 4.5 q7.5 4.5 9.5 17.5 l63 359 q3 14 11 26.5 q8 12.5 21 23.5 q12 10 26 16 q0 1 1 3 q5 15 16.5 29.5 q11.5 14.5 28.5 24.5 q38 24 76 50 q33 23 62 45 l-468 0 q-13 0 -25 6 q-12 6 -20.5 16.5 q-8.5 10.5 -12.5 23.5 q-4 13 -1 26 Z" /><glyph glyph-name="uni4E88" unicode="&#x4e88;" d="M33 399 q3 13 11 25.5 q8 12.5 20 22 q12 9.5 26.5 15.5 q14.5 6 27.5 6 l338 0 q-14 6 -27 11 q-28 11 -55 21 q-14 6 -23 17 q-9 11 -12 25.5 q-3 14.5 1 29.5 q4 15 15 28 q12 15 32 21 q20 6 32 6 q8 0 15 -2 q27 -9 56 -19 q24 -8 49 -17 q5 9 12 17 q11 14 27 24 q25 17 49 34 l1 1 l-377 0 q-13 0 -25 5.5 q-12 5.5 -20.5 15 q-8.5 9.5 -12.5 21.5 q-4 12 -2 25 q2 12 10 24 q8 12 20.5 21.5 q12.5 9.5 26.5 15 q14 5.5 27 5.5 l460 0 q14 0 26 -5 l2 -2 q11 7 23 7 q2 0 5.5 0.5 q3.5 0.5 5.5 1.5 q11 2 25 -1 q14 -3 21 -10 l17 -15 q11 -10 14.5 -24 q3.5 -14 1.5 -29 q-2 -15 -9.5 -29 q-7.5 -14 -20.5 -24 q-26 -20 -53 -40 q-27 -20 -55.5 -39.5 q-28.5 -19.5 -56.5 -37.5 q-7 -4 -14 -9 q10 -5 17 -13 q8 -12 10.5 -26.5 q2.5 -14.5 -1.5 -29.5 q-1 -3 -1 -5 l88 0 q14 0 25 -6 q1 -1 2 -1 q2 1 3 2 q8 5 16 5 q2 0 5.5 0.5 q3.5 0.5 5.5 2.5 q8 2 19 2 q11 0 19 -3 l32 -15 q11 -5 19.5 -15.5 q8.5 -10.5 11 -23.5 q2.5 -13 1 -27 q-1.5 -14 -9.5 -26 q-27 -42 -56.5 -82 q-29.5 -40 -58.5 -75 q-7 -10 -20 -16.5 q-13 -6.5 -26 -9 q-13 -2.5 -25.5 -1 q-12.5 1.5 -22.5 7.5 l-4 2 q-10 7 -16.5 19.5 q-6.5 12.5 -7.5 27 q-1 14.5 2.5 29.5 q3.5 15 13.5 28 q13 18 25 37 l-190 0 q6 -9 9 -19 q4 -13 1 -27 l-40 -228 q-10 -54 -29.5 -84 q-19.5 -30 -63.5 -45 q-32 -11 -69.5 -15.5 q-37.5 -4.5 -82.5 -5.5 q-1 0 -3 0 q-21 0 -39 15 q-18 15 -22 34 q-1 7 -1 13 q0 27 22.5 50.5 q22.5 23.5 60.5 23.5 q1 0 3 0 l43 0 q16 1 22 4.5 q6 3.5 8 14.5 l39 224 q3 14 11 27 q6 9 15 18 l-334 0 q-13 0 -25 6 q-12 6 -20.5 16 q-8.5 10 -12.5 22 q-4 12 -2 25 Z" /><glyph glyph-name="uni4E89" unicode="&#x4e89;" d="M564 425 l135 0 l8 43 q0 2 -1.5 4 q-1.5 2 -3.5 2 l-132 0 q1 -9 -1 -19 l-5 -30 ZM532 242 l135 0 l9 52 l-135 0 l-9 -52 ZM306 600 l252 0 q3 7 7 14 q9 15 22 28 l7 7 l-150 0 q-21 0 -34 8 q-14 8 -18 21 q-26 -25 -53 -50 q-16 -14 -33 -28 ZM11 360 q3 12 11 23.5 q8 11.5 20 21 q12 9.5 26 15 q14 5.5 27 5.5 l320 0 l5 31 q2 9 7 18 l-163 0 q-14 0 -26 5.5 q-12 5.5 -21 14.5 q-9 9 -13 20 q-2 4 -2 9 q-21 -15 -46 -15 q-3 0 -6 0 q-29 2 -42 18 q-11 14 -11 33 q0 12 8.5 35.5 q8.5 23.5 44.5 48.5 q59 38 105.5 81 q46.5 43 83.5 86 q14 16 35.5 25.5 q21.5 9.5 36.5 9.5 q5 0 10 -1 l10 -2 q18 -3 28.5 -13.5 q10.5 -10.5 14 -24.5 q3.5 -14 -0.5 -30 l0 -1 l161 0 q14 0 26 -5 q10 -6 19 -14 q3 6 10 12 q10 7 21 7 q2 0 5.5 0.5 q3.5 0.5 5.5 0.5 q8 2 20 -1 q12 -3 19 -9 l18 -14 q10 -8 14.5 -21 q4.5 -13 4 -27 q-0.5 -14 -6 -28 q-5.5 -14 -16.5 -25 q-25 -24 -53 -49 l79 0 q14 0 25.5 -6 q11.5 -6 20 -16.5 q8.5 -10.5 12 -23.5 q3.5 -13 1.5 -27 l-18 -102 l56 0 q14 0 25.5 -5.5 q11.5 -5.5 20.5 -15 q9 -9.5 13 -21 q4 -11.5 1 -23.5 q-2 -12 -10 -24 q-8 -12 -20 -21.5 q-12 -9.5 -25.5 -15 q-13.5 -5.5 -27.5 -5.5 l-56 0 l-20 -110 q-2 -14 -10.5 -27 q-8.5 -13 -20 -23.5 q-11.5 -10.5 -25 -16.5 q-13.5 -6 -27.5 -6 q-13 0 -25 6 q-1 0 -2 1 q-2 -1 -3 -1 q-14 -6 -28 -6 l-148 0 l-10 -55 q-10 -54 -28 -83.5 q-18 -29.5 -58 -45.5 q-29 -12 -63.5 -16.5 q-34.5 -4.5 -75.5 -6.5 q-1 0 -3 0 q-21 0 -39.5 15.5 q-18.5 15.5 -21.5 33.5 q-1 7 -1 13 q0 27 23 50 q23 23 65 23 l25 0 q14 1 20 5 q6 4 8 15 l9 52 l-197 0 q-14 0 -26 5.5 q-12 5.5 -21 15 q-9 9.5 -13 21.5 q-4 12 -2 24 q2 12 10 23.5 q8 11.5 20.5 21 q12.5 9.5 26.5 15 q14 5.5 28 5.5 l197 0 l9 52 l-319 0 q-13 0 -25 5.5 q-12 5.5 -21 15 q-9 9.5 -13 21.5 q-4 12 -2 24 Z" /><glyph glyph-name="uni4E8B" unicode="&#x4e8b;" d="M584 532 l121 0 q2 0 4.5 2 q2.5 2 2.5 4 l4 22 q0 2 -1.5 4 q-1.5 2 -3.5 2 l-121 0 l-6 -34 ZM541 290 l146 0 l4 21 q0 2 -1.5 4 q-1.5 2 -4.5 2 l-139 0 l-5 -27 ZM516 151 l147 0 l5 30 l-146 0 l-6 -30 ZM312 538 q0 -2 1.5 -4 q1.5 -2 3.5 -2 l119 0 l6 34 l-119 0 q-2 0 -4.5 -2 q-2.5 -2 -2.5 -4 l-4 -22 ZM-7 229 q0 3 1 7 q3 20 28.5 37 q25.5 17 51.5 17 l319 0 l5 27 l-213 0 q-28 0 -46.5 14 q-18.5 14 -18.5 29 q0 20 27 36.5 q27 16.5 53 16.5 l215 0 l5 30 l-191 0 q-14 0 -26 6 q-12 6 -20.5 16.5 q-8.5 10.5 -12 23.5 q-3.5 13 -1.5 27 l12 66 q2 14 10.5 27 q8.5 13 20.5 23.5 q12 10.5 26 16.5 q14 6 28 6 l191 0 l6 30 l-292 0 q-28 0 -46 16 q-18 16 -18 34 q0 4 1 7 q4 21 29.5 38.5 q25.5 17.5 53.5 17.5 l294 0 q2 6 6 12 q8 12 20.5 22.5 q12.5 10.5 26.5 16.5 q14 6 27 6 l4 0 q14 0 25.5 -6 q11.5 -6 20 -16.5 q8.5 -10.5 12.5 -22.5 q2 -6 2 -12 l303 0 q28 0 46 -16 q18 -16 18 -33 q0 -3 -1 -7 q-4 -22 -29.5 -39.5 q-25.5 -17.5 -53.5 -17.5 l-301 0 l-6 -30 l203 0 q14 0 26 -6 q12 -6 21 -16.5 q9 -10.5 12.5 -23.5 q3.5 -13 1.5 -27 l-12 -66 q-2 -14 -10.5 -27 q-8.5 -13 -21 -23.5 q-12.5 -10.5 -26.5 -16.5 q-14 -6 -28 -6 l-203 0 l-5 -30 l223 0 q13 0 25 -6 q12 -6 20 -16.5 q8 -10.5 11.5 -23.5 q3.5 -13 1.5 -27 l-9 -50 l34 0 q26 0 44 -16 q18 -16 18 -33 q0 -3 0 -5 q-4 -21 -29.5 -38 q-25.5 -17 -51.5 -17 l-34 0 l-18 -101 q-2 -14 -10.5 -27 q-8.5 -13 -21 -23.5 q-12.5 -10.5 -26 -16.5 q-13.5 -6 -27.5 -6 l-4 0 q-13 0 -25 6 q-12 6 -20 17 q-7 8 -11 18 l-155 0 l-2 -12 q-8 -50 -25.5 -74.5 q-17.5 -24.5 -52.5 -39.5 q-27 -11 -57.5 -14.5 q-30.5 -3.5 -72.5 -4.5 q-2 0 -3 0 q-19 0 -37.5 11.5 q-18.5 11.5 -21.5 25.5 q-1 5 -1 9 q0 23 24 43 q24 20 67 20 l3 0 q14 1 20.5 6 q6.5 5 8.5 18 l2 12 l-220 0 q-28 0 -46 14.5 q-18 14.5 -18 30.5 q0 3 1 7 q3 19 28.5 35 q25.5 16 53.5 16 l219 0 l6 30 l-319 0 q-26 0 -44 15.5 q-18 15.5 -18 32.5 Z" /><glyph glyph-name="uni4E8C" unicode="&#x4e8c;" d="M167 632 l3 15 q3 14 11 27 q8 13 20 23.5 q12 10.5 26 16.5 q14 6 27 6 l588 0 q13 0 25 -6 q12 -6 20 -16.5 q8 -10.5 12 -23.5 q4 -13 1 -27 l-3 -15 q-2 -14 -10.5 -27 q-8.5 -13 -20 -23.5 q-11.5 -10.5 -25.5 -16.5 q-14 -6 -27 -6 l-588 0 q-13 0 -25 6 q-12 6 -20.5 16.5 q-8.5 10.5 -12 23.5 q-3.5 13 -1.5 27 ZM-18 51 l4 24 q3 14 11 26.5 q8 12.5 20.5 23 q12.5 10.5 26.5 16.5 q14 6 27 6 l752 0 q14 0 25.5 -6 q11.5 -6 20 -16.5 q8.5 -10.5 12.5 -23 q4 -12.5 1 -26.5 l-4 -24 q-2 -13 -10.5 -26 q-8.5 -13 -21 -23.5 q-12.5 -10.5 -26 -16.5 q-13.5 -6 -27.5 -6 l-752 0 q-13 0 -25 6 q-12 6 -20.5 16.5 q-8.5 10.5 -12 23.5 q-3.5 13 -1.5 26 Z" /><glyph glyph-name="uni4E8E" unicode="&#x4e8e;" d="M39 401 q2 14 10.5 26.5 q8.5 12.5 20.5 23 q12 10.5 26 16.5 q14 6 27 6 l314 0 l32 178 l-247 0 q-13 0 -25 6 q-12 6 -20.5 16.5 q-8.5 10.5 -12.5 23.5 q-4 13 -2 26 q3 14 11 26.5 q8 12.5 20.5 23 q12.5 10.5 26.5 16.5 q14 6 27 6 l626 0 q14 0 25.5 -6 q11.5 -6 20 -16.5 q8.5 -10.5 12.5 -23 q4 -12.5 1 -26.5 q-2 -13 -10 -26 q-8 -13 -20.5 -23.5 q-12.5 -10.5 -26 -16.5 q-13.5 -6 -27.5 -6 l-224 0 l-32 -178 l292 0 q14 0 25.5 -6 q11.5 -6 20.5 -16.5 q9 -10.5 12.5 -23 q3.5 -12.5 1.5 -26.5 q-3 -13 -11 -26 q-8 -13 -20.5 -23.5 q-12.5 -10.5 -26 -16.5 q-13.5 -6 -27.5 -6 l-292 0 l-43 -245 q-11 -63 -32.5 -96.5 q-21.5 -33.5 -65.5 -50.5 q-35 -14 -78 -19.5 q-43 -5.5 -97 -7.5 q-1 0 -2 0 q-21 0 -40 17 q-19 17 -23 37 q-2 8 -2 16 q0 28 22.5 54 q22.5 26 64.5 26 q20 -1 31.5 -1 q11.5 0 31.5 1 q17 0 25 5.5 q8 5.5 10 20.5 l43 243 l-314 0 q-13 0 -25 6 q-12 6 -20.5 16.5 q-8.5 10.5 -12.5 23.5 q-4 13 -1 26 Z" /><glyph glyph-name="uni4E91" unicode="&#x4e91;" d="M207 720 l1 4 q2 14 10.5 27 q8.5 13 20.5 23.5 q12 10.5 26.5 16.5 q14.5 6 27.5 6 l550 0 q14 0 25 -6 q11 -6 20 -16.5 q9 -10.5 12.5 -23.5 q3.5 -13 1.5 -27 l-1 -4 q-3 -14 -11 -27 q-8 -13 -20.5 -23.5 q-12.5 -10.5 -26 -16.5 q-13.5 -6 -27.5 -6 l-550 0 q-13 0 -25 6 q-12 6 -20.5 16.5 q-8.5 10.5 -12.5 23.5 q-4 13 -1 27 ZM27 32 q-3 13 1.5 28.5 q4.5 15.5 13.5 31 q9 15.5 21 30.5 q11 13 23 24 l2 2 l1 0 l1 1 q4 4 18 17 q13 11 36 35.5 q23 24.5 51 58 q28 33.5 59 74.5 q13 16 25 33 l-180 0 q-13 0 -25 6 q-12 6 -20 16.5 q-8 10.5 -12 23.5 q-4 13 -2 26 l2 7 q2 14 10.5 26.5 q8.5 12.5 20 23 q11.5 10.5 25.5 16.5 q14 6 27 6 l772 0 q13 0 25 -6 q12 -6 20.5 -16.5 q8.5 -10.5 12 -23 q3.5 -12.5 1.5 -26.5 l-2 -7 q-2 -13 -10 -26 q-8 -13 -20 -23.5 q-12 -10.5 -26 -16.5 q-14 -6 -27 -6 l-389 0 q-4 -11 -12 -22 q-73 -91 -153 -172 q-26 -26 -51 -49 l343 17 q-11 25 -23 49 q-6 13 -5.5 28 q0.5 15 7 30 q6.5 15 18 27 q11.5 12 25.5 19 l11 6 q13 6 28 6 q10 0 28 -4.5 q18 -4.5 28 -22.5 q16 -29 31.5 -59.5 q15.5 -30.5 30.5 -60.5 q15 -30 28.5 -59.5 q13.5 -29.5 25.5 -56.5 q4 -11 3 -25 q-1 -14 -7 -27.5 q-6 -13.5 -15.5 -25 q-9.5 -11.5 -21.5 -17.5 l-18 -10 q-14 -8 -29.5 -9 q-15.5 -1 -29.5 3.5 q-14 4.5 -25 13.5 q-11 9 -16 23 l-16 39 q-1 0 -2 -1 q-15 -8 -32 -9 q-107 -8 -187 -13.5 q-80 -5.5 -139 -10 q-59 -4.5 -100.5 -8 q-41.5 -3.5 -70.5 -7.5 q-6 -1 -11 -1 q-12 0 -25.5 4 q-13.5 4 -24.5 14 q-9 6 -14 15 q-12 4 -20 13 q-11 11 -14 28 Z" /><glyph glyph-name="uni4E92" unicode="&#x4e92;" d="M337 312 l239 0 q12 0 23 -5 q7 23 15 45 q14 44 27 86 q-5 -1 -9 -1 l-243 0 l-8 -20 q-21 -51 -41 -99 q-1 -3 -3 -6 ZM-38 -4 q3 13 11 25.5 q8 12.5 20.5 22.5 q12.5 10 26.5 16 q14 6 27 6 l490 0 q-4 10 -6 21 q-2 14 3 29 q11 30 22 61 l-264 0 q-14 0 -26 6 q-3 2 -7 4 q-18 -10 -34 -10 l-17 0 q-18 0 -31 7.5 q-13 7.5 -20.5 20 q-7.5 12.5 -7.5 28.5 q0 16 7 33 q20 44 40 91.5 q20 47.5 40.5 97 q20.5 49.5 39.5 99 q19 49.5 37 97.5 q7 19 25 34 l-152 0 q-14 0 -26 6 q-12 6 -21 16 q-9 10 -12.5 22.5 q-3.5 12.5 -1.5 25.5 q2 13 10.5 25.5 q8.5 12.5 20.5 22 q12 9.5 26 15.5 q14 6 28 6 l719 0 q14 0 26 -6 q12 -6 21 -15.5 q9 -9.5 12.5 -22 q3.5 -12.5 1.5 -25.5 q-2 -13 -10.5 -25.5 q-8.5 -12.5 -20.5 -22.5 q-12 -10 -26 -16 q-14 -6 -28 -6 l-448 0 q0 -1 1 -2 q7 -12 8 -21 q1 -9 1 -12 q0 -12 -5 -25 q-10 -26 -20 -53 l214 0 q13 0 24 -5 l2 2 q4 3 9 3 q2 0 5 0.5 q3 0.5 5 0.5 l14 3 q2 0 5.5 0.5 q3.5 0.5 5.5 -0.5 l34 -3 q14 -1 24.5 -9 q10.5 -8 17.5 -19 q7 -11 9.5 -24.5 q2.5 -13.5 -1.5 -26.5 q-14 -48 -30 -98.5 q-16 -50.5 -32.5 -102 q-16.5 -51.5 -34 -103 q-17.5 -51.5 -34.5 -100.5 q-4 -12 -13 -23 l-1 -1 l161 0 q14 0 25.5 -6 q11.5 -6 20 -16 q8.5 -10 12.5 -22.5 q4 -12.5 1 -25.5 q-2 -14 -10.5 -26.5 q-8.5 -12.5 -20.5 -22.5 q-12 -10 -25.5 -16 q-13.5 -6 -27.5 -6 l-779 0 q-13 0 -25 6 q-12 6 -21 16 q-9 10 -12.5 22.5 q-3.5 12.5 -1.5 26.5 Z" /><glyph glyph-name="uni4E94" unicode="&#x4e94;" d="M377 93 l170 0 l22 84 q14 52 27 102 q7 29 14 57 q-7 -1 -13 -1 l-134 0 q-1 -3 -2 -5 q-26 -75 -51 -144 q-17 -49 -33 -93 ZM-24 21 q2 14 10.5 26.5 q8.5 12.5 20.5 23 q12 10.5 26 16.5 q14 6 27 6 l155 0 q22 59 47 125 q21 57 41 117 l-89 0 q-13 0 -25 6 q-12 6 -20.5 16.5 q-8.5 10.5 -12.5 23.5 q-4 13 -1 26 q2 13 10.5 26 q8.5 13 20.5 23 q12 10 26 16 q14 6 27 6 l111 0 q5 14 10 29 q18 59 36 116 l-187 0 q-13 0 -25 6 q-12 6 -20.5 16.5 q-8.5 10.5 -12.5 23.5 q-4 13 -1 26 q2 14 10 26.5 q8 12.5 20.5 23 q12.5 10.5 26.5 16.5 q14 6 27 6 l640 0 q14 0 25.5 -6 q11.5 -6 20 -16.5 q8.5 -10.5 12.5 -23 q4 -12.5 2 -26.5 q-3 -13 -11 -26 q-8 -13 -20.5 -23.5 q-12.5 -10.5 -26 -16.5 q-13.5 -6 -27.5 -6 l-290 0 q-22 -70 -46 -141 q-1 -2 -1 -4 l110 0 q13 0 23 -5 q4 5 9 5 q2 0 5 0.5 q3 0.5 6 0.5 l14 3 q2 0 5.5 0.5 q3.5 0.5 5.5 0.5 l40 -3 q13 -1 24 -8 q11 -7 18.5 -17.5 q7.5 -10.5 11 -23.5 q3.5 -13 -0.5 -27 q-10 -43 -21 -87 l-23 -88 l-24 -88 q-7 -24 -13 -48 l115 0 q14 0 25.5 -6 q11.5 -6 20.5 -16.5 q9 -10.5 12.5 -23 q3.5 -12.5 1.5 -26.5 q-3 -13 -11 -26 q-8 -13 -20.5 -23.5 q-12.5 -10.5 -26 -16.5 q-13.5 -6 -27.5 -6 l-757 0 q-13 0 -25 6 q-12 6 -20.5 16.5 q-8.5 10.5 -12.5 23.5 q-4 13 -1 26 Z" /><glyph glyph-name="uni4E9A" unicode="&#x4e9a;" d="M673 232.5 q-4 13.5 -2 28.5 q2 15 9 28 l25 50 q13 26 25.5 52.5 q12.5 26.5 24.5 54 q12 27.5 23 54.5 q6 15 18 27 q12 12 26.5 19.5 q14.5 7.5 30 10.5 q15.5 3 29.5 -2 l1 -1 q11 -4 20 -13 q9 -9 13.5 -21 q4.5 -12 4.5 -25.5 q0 -13.5 -6 -25.5 q-15 -31 -29.5 -62 q-14.5 -31 -29 -60.5 q-14.5 -29.5 -29 -57.5 q-14.5 -28 -29.5 -54 q-6 -12 -17 -21 q-11 -9 -24.5 -15 q-13.5 -6 -26.5 -7.5 q-13 -1.5 -25 2.5 q-12 4 -20 14.5 q-8 10.5 -12 24 ZM387 88 l91 0 l100 570 l-90 0 l-101 -570 ZM-52 19 q3 13 11 25.5 q8 12.5 20 22 q12 9.5 26.5 15.5 q14.5 6 27.5 6 l194 0 l27 151 l-6 -10 q-8 -12 -18 -21 q-10 -9 -22 -14 l-5 -2 q-14 -5 -27 -5 q-2 0 -11 0.5 q-9 0.5 -21.5 7.5 q-12.5 7 -21 19 q-8.5 12 -10.5 28 q-3 26 -6 53 q-3 27 -6.5 55 q-3.5 28 -7.5 56.5 q-4 28.5 -9 55.5 q-1 12 3 26 q4 14 11.5 26.5 q7.5 12.5 18.5 22.5 q11 10 24 14 q13 5 27 3.5 q14 -1.5 25.5 -7.5 q11.5 -6 20 -16 q8.5 -10 11.5 -22 q6 -29 11 -59 l10 -60 q5 -30 10 -58 q3 -25 7 -47 l66 373 l-156 0 q-13 0 -25 6 q-12 6 -20.5 16.5 q-8.5 10.5 -12.5 23.5 q-4 13 -1 26 q2 14 10.5 26.5 q8.5 12.5 20.5 23 q12 10.5 26 16.5 q14 6 27 6 l734 0 q14 0 25.5 -6 q11.5 -6 20.5 -16.5 q9 -10.5 12.5 -23 q3.5 -12.5 1.5 -26.5 q-3 -13 -11 -26 q-8 -13 -20.5 -23.5 q-12.5 -10.5 -26 -16.5 q-13.5 -6 -27.5 -6 l-168 0 l-100 -570 l197 0 q14 0 25 -6 q11 -6 20 -15.5 q9 -9.5 13 -22 q4 -12.5 1 -25.5 q-2 -13 -10 -25.5 q-8 -12.5 -20.5 -22.5 q-12.5 -10 -26 -16 q-13.5 -6 -27.5 -6 l-802 0 q-13 0 -25 6 q-12 6 -20.5 16 q-8.5 10 -12.5 22.5 q-4 12.5 -2 25.5 Z" /><glyph glyph-name="uni4E9B" unicode="&#x4e9b;" d="M530 410 q0 34 9 82 l51 291 q3 14 11 26.5 q8 12.5 20.5 23 q12.5 10.5 26.5 16.5 q14 6 27 6 l2 0 q14 0 25.5 -6 q11.5 -6 20 -16.5 q8.5 -10.5 12.5 -23 q4 -12.5 1 -26.5 l-16 -91 q7 2 13 5 l72 26 q18 6 34 13 q12 5 27 5 q8 0 25.5 -3 q17.5 -3 28.5 -18 l3 -4 q12 -15 12 -35 q0 -14 -5.5 -27.5 q-5.5 -13.5 -18.5 -25.5 q-13 -12 -31 -18 q-45 -14 -89 -26 q-44 -12 -87 -22 q-4 -1 -7 -2 l-12 -67 q-3 -17 -3 -27 q0 -8 3.5 -13.5 q3.5 -5.5 28.5 -5.5 l84 0 q2 0 4 1 l4 1 q2 0 3 1 q21 10 36 24 q15 14 28.5 26 q13.5 12 26.5 18.5 q13 6.5 28 0.5 q16 -7 23 -25 q7 -18 7 -30 q0 -11 -4 -22 q-15 -37 -29 -62.5 q-14 -25.5 -33 -40.5 q-19 -15 -45 -21.5 q-26 -6.5 -64 -6.5 l-116 0 q-48 0 -77.5 9 q-29.5 9 -44.5 30.5 q-15 21.5 -15 59.5 ZM116.5 178.5 q-3.5 12.5 -1.5 25.5 q2 13 10.5 25.5 q8.5 12.5 20.5 22 q12 9.5 26 15.5 q14 6 28 6 l543 0 q14 0 26 -6 q12 -6 21 -15.5 q9 -9.5 12.5 -22 q3.5 -12.5 1.5 -25.5 q-2 -13 -10.5 -25.5 q-8.5 -12.5 -20.5 -22.5 q-12 -10 -26 -16 q-14 -6 -28 -6 l-543 0 q-14 0 -26 6 q-12 6 -21 16 q-9 10 -12.5 22.5 ZM16 349 q1 14 8 27.5 q7 13.5 18.5 24.5 q11.5 11 25.5 19 q7 3 15 6 q-2 4 -3 9 q-4 13 -1 28 l39 221 q2 14 9.5 26.5 q7.5 12.5 19 23 q11.5 10.5 24.5 16.5 q13 6 26 6 q12 0 23 -6 q11 -6 18.5 -16.5 q7.5 -10.5 11 -23 q3.5 -12.5 1.5 -26.5 l-40 -223 q-2 -13 -9 -25 q25 2 52 5 q-4 13 -2 26 l56 316 q3 14 11 26.5 q8 12.5 20.5 23 q12.5 10.5 26.5 16.5 q14 6 27 6 q14 0 25.5 -6 q11.5 -6 20 -16 q8.5 -10 12.5 -23 q4 -13 1 -26 l-12 -69 l36 0 q13 0 25 -5.5 q12 -5.5 20.5 -14.5 q8.5 -9 12.5 -20.5 q4 -11.5 2 -23.5 q-2 -12 -10.5 -24 q-8.5 -12 -20 -21 q-11.5 -9 -25.5 -14.5 q-14 -5.5 -27 -5.5 l-36 0 l-21 -119 q-1 -7 -4 -14 l42 4 q14 1 27 -4 q13 -5 23 -14 q10 -9 15 -21 q5 -12 2 -26 q-4 -23 -27 -44 q-23 -21 -48 -24 q-90 -10 -178 -19.5 q-88 -9.5 -165 -17.5 q-14 -1 -26.5 3.5 q-12.5 4.5 -22 13 q-9.5 8.5 -15 20.5 q-5.5 12 -3.5 25 ZM-40 -3 q3 14 11 26.5 q8 12.5 20.5 23 q12.5 10.5 26.5 16.5 q14 6 27 6 l775 0 q14 0 25.5 -6 q11.5 -6 20 -16.5 q8.5 -10.5 12.5 -23 q4 -12.5 1 -26.5 q-2 -14 -10.5 -27 q-8.5 -13 -20.5 -23.5 q-12 -10.5 -25.5 -16.5 q-13.5 -6 -27.5 -6 l-775 0 q-13 0 -25 6 q-12 6 -21 16.5 q-9 10.5 -12.5 23.5 q-3.5 13 -1.5 27 Z" /><glyph glyph-name="uni4EA4" unicode="&#x4ea4;" d="M641 509 q0 6 2 17.5 q2 11.5 11.5 26 q9.5 14.5 25.5 24.5 q17 11 30 11.5 q13 0.5 14 0.5 q23 0 35 -11 q17 -14 36 -29.5 q19 -15.5 37 -32 q18 -16.5 35 -33 q17 -16.5 33 -32.5 q9 -9 11 -23 q2 -14 -1 -28.5 q-3 -14.5 -12 -27.5 q-9 -13 -22 -22 l-7 -5 q-21 -13 -46 -13 q-5 0 -23 1.5 q-18 1.5 -34 20.5 q-10 13 -23 27 q-13 14 -26.5 28 q-13.5 14 -27.5 28.5 q-14 14.5 -29 27.5 q-12 11 -15.5 23 q-3.5 12 -3.5 21 ZM91 664 q3 14 11 26.5 q8 12.5 19.5 22.5 q11.5 10 26 16 q14.5 6 27.5 6 l308 0 l-4 10 l1 1 l-1 0 q-4 14 -1 30 q3 16 11.5 30.5 q8.5 14.5 21 25.5 q12.5 11 28.5 16 l7 2 q10 4 20 4 q12 0 31 -7.5 q19 -7.5 26 -26.5 q2 -8 4.5 -14.5 q2.5 -6.5 4.5 -14.5 q4 -12 1.5 -25.5 q-2.5 -13.5 -9.5 -25.5 q-2 -3 -3 -5 l304 0 q13 0 24.5 -6 q11.5 -6 20 -16 q8.5 -10 12.5 -22.5 q4 -12.5 1 -26.5 q-2 -13 -10.5 -26 q-8.5 -13 -20 -23 q-11.5 -10 -25.5 -16 q-14 -6 -27 -6 l-750 0 q-13 0 -25 6 q-12 6 -20.5 16 q-8.5 10 -12 23 q-3.5 13 -1.5 26 ZM84 386 q0 11 7.5 34.5 q7.5 23.5 45.5 45.5 q36 21 69.5 44.5 q33.5 23.5 63.5 48.5 q15 14 34 19 q19 5 29 5 q11 0 20 -4 l9 -3 q15 -6 23.5 -19.5 q8.5 -13.5 8.5 -30.5 q0 -13 -6.5 -27.5 q-6.5 -14.5 -20.5 -26.5 q-43 -37 -90 -71 q-47 -34 -92 -62 q-17 -10 -38 -10 q-4 0 -19.5 1.5 q-15.5 1.5 -27.5 15.5 q-16 18 -16 40 ZM9 -20 q0 3 1 13 q1 10 10 24.5 q9 14.5 24.5 25.5 q15.5 11 34.5 16 q81 20 154 48 q57 22 107 50 q-4 6 -7 12 q-41 61 -69 136 q-5 14 -3 28.5 q2 14.5 9.5 28 q7.5 13.5 20 24 q12.5 10.5 27.5 14.5 q11 3 22.5 1 q11.5 -2 22.5 -8 q11 -6 19.5 -14.5 q8.5 -8.5 12.5 -19.5 q26 -65 69 -118 q10 8 19 17 q53 47 94 105 q16 22 40.5 32.5 q24.5 10.5 40.5 10.5 q9 0 16 -2 l7 -2 q14 -4 23 -14.5 q9 -10.5 12.5 -24 q3.5 -13.5 0.5 -28.5 q-3 -15 -13 -29 q-56 -75 -124 -135 q-10 -9 -19 -17 q87 -59 217 -92 q40 -11 45.5 -30 q5.5 -19 5.5 -27 q0 -24 -21 -51 q-13 -17 -34 -26 q-21 -9 -35 -9 q-7 0 -13 2 q-93 22 -167 57 q-74 34 -130 81 q-74 -44 -157 -78 q-87 -35 -181 -60 q-7 -2 -15 -2 q-15 0 -34 8.5 q-19 8.5 -27 25.5 q-6 13 -6 27 Z" /><glyph glyph-name="uni4EA6" unicode="&#x4ea6;" d="M723 372 q-4 13 -2 28 q2 15 9 29 q7 14 18.5 25.5 q11.5 11.5 25.5 17.5 q12 5 24.5 4.5 q12.5 -0.5 24.5 -4.5 q12 -4 20.5 -11.5 q8.5 -7.5 12.5 -17.5 q10 -26 19 -53 q9 -27 16.5 -53.5 q7.5 -26.5 13.5 -53 q6 -26.5 10 -50.5 q1 -4 1 -8 q0 -17 -15 -39 q-15 -22 -37 -31 l-4 -2 q-15 -7 -30 -7 q-1 0 -10 0.5 q-9 0.5 -22.5 7.5 q-13.5 7 -22.5 19.5 q-9 12.5 -12 28.5 q-4 20 -8 41 q-4 21 -9.5 42.5 q-5.5 21.5 -11 43.5 q-5.5 22 -11.5 43 ZM78 -9 q0 10 5.5 33.5 q5.5 23.5 36.5 49.5 q55 47 91.5 96.5 q36.5 49.5 60 100.5 q23.5 51 37 102.5 q13.5 51.5 22.5 102.5 l11 63 q3 13 10 25 l-209 0 q-13 0 -24.5 6 q-11.5 6 -20.5 16.5 q-9 10.5 -12.5 23.5 q-3.5 13 -1.5 26 q2 13 10.5 26 q8.5 13 21 23 q12.5 10 26.5 16 q14 6 27 6 l352 0 q-4 1 -7 3 q-13 6 -22 16 q-9 10 -12 23 q-3 14 0 29 q3 15 11.5 28.5 q8.5 13.5 21 24.5 q12.5 11 28.5 16 l8 3 q9 3 18 3 q13 0 32.5 -8 q19.5 -8 26.5 -28 q1 -4 2.5 -7.5 q1.5 -3.5 2.5 -8.5 q5 -12 2 -26.5 q-3 -14.5 -11 -27.5 q-8 -13 -19.5 -23.5 q-11.5 -10.5 -26.5 -15.5 l-3 -1 l348 0 q14 0 25.5 -6 q11.5 -6 20 -16 q8.5 -10 12 -23 q3.5 -13 1.5 -26 q-2 -13 -10.5 -26 q-8.5 -13 -20.5 -23.5 q-12 -10.5 -26 -16.5 q-14 -6 -28 -6 l-173 0 q2 -3 3 -7 q3 -13 0 -27 l-80 -459 q-10 -55 -27.5 -86.5 q-17.5 -31.5 -55.5 -48.5 q-28 -13 -59.5 -18 q-31.5 -5 -70.5 -7 q-1 0 -3 0 q-23 0 -42 17.5 q-19 17.5 -21 37.5 q-1 5 -1 9 q0 29 24.5 54.5 q24.5 25.5 64.5 25.5 l16 0 q12 0 17.5 4 q5.5 4 7.5 15 l81 457 q2 14 11 27 l4 6 l-102 0 q3 -13 1 -26 l-11 -64 q-11 -58 -28.5 -125.5 q-17.5 -67.5 -50.5 -137.5 q-33 -70 -84 -138 q-51 -68 -127 -127 q-11 -9 -25 -12.5 q-14 -3.5 -28 -3 q-14 0.5 -25.5 6 q-11.5 5.5 -19.5 14.5 q-13 17 -13 40 ZM23 190 q-5 14 -4.5 30 q0.5 16 5.5 32.5 q5 16.5 16 31.5 q23 31 42 65.5 q19 34.5 36 70.5 q6 13 17 24.5 q11 11.5 24.5 19.5 q13.5 8 28.5 11.5 q15 3.5 28 0.5 l3 -1 q13 -3 23 -11.5 q10 -8.5 15.5 -20.5 q5.5 -12 6 -26 q0.5 -14 -5.5 -28 q-27 -54 -56.5 -105 q-29.5 -51 -61.5 -94 q-10 -12 -23 -19.5 q-13 -7.5 -27 -10.5 q-14 -3 -27.5 -1 q-13.5 2 -22.5 9 q-12 8 -17 22 Z" /><glyph glyph-name="uni4EA7" unicode="&#x4ea7;" d="M-22.5 -28.5 q-3.5 14.5 -3.5 30.5 q0 16 4.5 32.5 q4.5 16.5 12.5 30.5 q21 33 35.5 65.5 q14.5 32.5 25 66 q10.5 33.5 17.5 68 q7 34.5 13 72.5 l12 68 q3 14 11 26.5 q8 12.5 20.5 23 q12.5 10.5 26.5 16.5 q14 6 27 6 l9 0 q14 0 26 -6 q4 -2 8 -5 q5 3 11 5 q14 6 27 6 l74 0 q-3 1 -4 2 q-14 5 -24 14.5 q-10 9.5 -15 21.5 q-5 14 -3 29.5 q2 15.5 9 30 q7 14.5 19.5 26.5 q12.5 12 28.5 18 q8 3 16 4 l-161 0 q-13 0 -25 6 q-12 6 -21 16 q-9 10 -12.5 22 q-3.5 12 -1.5 25 q2 13 10.5 25.5 q8.5 12.5 20.5 22 q12 9.5 26 15.5 q14 6 27 6 l256 0 q-3 12 1 24 q4 14 14 27 q10 13 25.5 22.5 q15.5 9.5 34.5 13.5 l17 4 q5 1 9 1 q12 0 28.5 -6.5 q16.5 -6.5 22.5 -20.5 l2 -6 q1 -3 3 -5 q5 -12 2 -26 q-3 -14 -11 -27 l-1 -1 l277 0 q14 0 25.5 -6 q11.5 -6 20.5 -15.5 q9 -9.5 12.5 -22 q3.5 -12.5 1.5 -25.5 q-2 -13 -10.5 -25 q-8.5 -12 -20.5 -22 q-12 -10 -25.5 -16 q-13.5 -6 -27.5 -6 l-504 0 q6 -1 13 -2 q23 -7 31 -23 q4 -8 8 -15.5 q4 -7.5 8 -15.5 q5 -11 2.5 -24 q-2.5 -13 -9 -25.5 q-6.5 -12.5 -17 -23 q-10.5 -10.5 -23.5 -15.5 l-1 0 q-3 -1 -5 -2 l252 0 q-2 4 -2 9 q-3 14 0.5 30 q3.5 16 11.5 30 q3 4 5.5 8 q2.5 4 5.5 9 q7 12 19.5 22.5 q12.5 10.5 27 16.5 q14.5 6 29.5 8 q15 2 27 -2 l2 0 q17 -6 26.5 -17.5 q9.5 -11.5 11 -21 q1.5 -9.5 1.5 -14.5 q0 -11 -5 -24.5 q-5 -13.5 -18 -28.5 l-19 -19 q-3 -3 -5 -6 l120 0 q14 0 25.5 -6 q11.5 -6 20 -16 q8.5 -10 12.5 -22.5 q4 -12.5 2 -26.5 q-3 -13 -11 -26 q-8 -13 -20.5 -23 q-12.5 -10 -26 -16 q-13.5 -6 -27.5 -6 l-613 0 l0 -1 q-7 -40 -18.5 -86.5 q-11.5 -46.5 -27.5 -95 q-16 -48.5 -38.5 -96.5 q-22.5 -48 -50.5 -92 q-10 -15 -24.5 -23 q-14.5 -8 -30 -10 q-15.5 -2 -30 2.5 q-14.5 4.5 -24.5 14.5 q-10 9 -13.5 23.5 Z" /><glyph glyph-name="uni4EAB" unicode="&#x4eab;" d="M326 505 q0 -3 1.5 -5 q1.5 -2 3.5 -2 l352 0 q2 0 4.5 2 q2.5 2 2.5 5 l4 23 q1 3 -1 5 q-2 2 -4 2 l-352 0 q-2 0 -4 -2 q-2 -2 -3 -5 l-4 -23 ZM175 473 l16 87 q2 14 10.5 26.5 q8.5 12.5 20.5 23 q12 10.5 26 16.5 q14 6 28 6 l518 0 q14 0 26 -6 q12 -6 21 -16.5 q9 -10.5 12.5 -23 q3.5 -12.5 1.5 -26.5 l-16 -87 q-2 -13 -10 -26 q-8 -13 -20.5 -23.5 q-12.5 -10.5 -26.5 -16.5 q-14 -6 -28 -6 l-518 0 q-14 0 -26 6 q-12 6 -20.5 16.5 q-8.5 10.5 -12.5 23.5 q-4 13 -2 26 ZM109 720 q0 4 1 8 q2 11 10 22 q8 11 20 19.5 q12 8.5 26 13.5 q14 5 27 5 l283 0 q5 17 21 34 q23 25 55 30 l15 2 q5 1 9 1 q16 0 35 -11.5 q19 -11.5 21 -31.5 q2 -3 2 -6 l0 -18 l289 0 q14 0 25.5 -5 q11.5 -5 20.5 -13.5 q9 -8.5 13 -19.5 q4 -11 2 -22 q-4 -23 -29.5 -42 q-25.5 -19 -52.5 -19 l-730 0 q-27 0 -45 17 q-18 17 -18 36 ZM-10 141 q2 12 10 23 q8 11 19.5 19.5 q11.5 8.5 25.5 13.5 q14 5 27 5 l316 0 l12 12 q12 10 27 16 q2 1 5 2 q16 17 42 29 l-290 0 q-28 0 -46 16 q-18 16 -18 33 q0 3 1 7 q3 20 29 37.5 q26 17.5 54 17.5 l435 0 q24 0 41 -13 q4 4 10 8 q12 6 26 6 q2 0 5.5 0.5 q3.5 0.5 5.5 0.5 q10 2 23.5 -2 q13.5 -4 20.5 -11 q11 -12 13 -27 q2 -15 -2.5 -30 q-4.5 -15 -16 -27.5 q-11.5 -12.5 -30.5 -20.5 q-30 -12 -60.5 -24 q-30.5 -12 -62.5 -22 q-12 -4 -23 -8 l251 0 q13 0 25 -5 q12 -5 20.5 -13.5 q8.5 -8.5 12.5 -19.5 q4 -11 2 -23 q-2 -11 -10 -22 q-8 -11 -19.5 -19.5 q-11.5 -8.5 -25.5 -14 q-14 -5.5 -27 -5.5 l-309 0 l-8 -46 q-9 -51 -30 -76 q-21 -25 -65 -38 q-34 -9 -73.5 -11.5 q-39.5 -2.5 -86.5 -3.5 q-20 0 -38 13 q-18 13 -22 27 q-1 5 -1 10 q0 25 23.5 45.5 q23.5 20.5 63.5 20.5 q2 0 3 0 l42 0 q15 1 21.5 5 q6.5 4 8.5 15 l7 39 l-304 0 q-13 0 -25 5.5 q-12 5.5 -20.5 14 q-8.5 8.5 -12.5 19.5 q-4 11 -2 22 Z" /><glyph glyph-name="uni4EAC" unicode="&#x4eac;" d="M642 71 q-8 12 -9 27.5 q-1 15.5 4 30.5 q5 15 15.5 28.5 q10.5 13.5 25.5 21.5 q16 8 35 8 q6 0 22.5 -2 q16.5 -2 27.5 -18 q10 -13 19.5 -26 q9.5 -13 18.5 -26 q9 -13 17.5 -26 q8.5 -13 16.5 -25 q7 -10 7 -23.5 q0 -13.5 -5 -27.5 q-5 -14 -14 -26 q-9 -12 -22 -19 l-6 -3 q-14 -8 -29 -10 q-15 -2 -29.5 1 q-14.5 3 -26 11 q-11.5 8 -18.5 20 q-6 10 -12 21 l-12 21 q-6 10 -12.5 21 q-6.5 11 -13.5 21 ZM293 377 q0 -2 1.5 -4 q1.5 -2 3.5 -2 l370 0 q2 0 4.5 2 q2.5 2 2.5 4 l12 67 q1 2 -1 4 q-2 2 -4 2 l-370 0 q-2 0 -4 -2 q-2 -2 -3 -4 l-12 -67 ZM138 319 l33 183 q2 14 10 26.5 q8 12.5 20.5 23 q12.5 10.5 26.5 16.5 q14 6 27 6 l538 0 q14 0 25.5 -6 q11.5 -6 20 -16.5 q8.5 -10.5 12.5 -23 q4 -12.5 2 -26.5 l-33 -183 q-2 -13 -10.5 -26 q-8.5 -13 -20.5 -23.5 q-12 -10.5 -25.5 -16.5 q-13.5 -6 -27.5 -6 l-200 0 q2 -4 3 -7 q4 -13 2 -27 l-29 -163 q-10 -53 -28 -82.5 q-18 -29.5 -59 -45.5 q-28 -11 -60 -15 q-32 -4 -70 -5 q-1 0 -3 0 q-21 0 -40 16 q-19 16 -21 36 q-1 5 -1 9 q0 29 24.5 53 q24.5 24 64.5 24 l14 0 q13 0 18 3 q5 3 7 12 l28 158 q2 14 10 27 q2 3 5 7 l-203 0 q-13 0 -25 6 q-12 6 -21 16.5 q-9 10.5 -12.5 23.5 q-3.5 13 -1.5 26 ZM92 677 q3 13 11 26 q8 13 20 23 q12 10 26 16 q14 6 27 6 l305 0 q-4 14 0 29 q4 15 12 28.5 q8 13.5 21.5 24.5 q13.5 11 29.5 15 l12 4 q8 2 16 2 q14 0 33 -8 q19 -8 27 -28 l2 -6 q1 -3 2 -7 q5 -13 3 -27 q-3 -14 -10 -27 l297 0 q13 0 25 -6 q12 -6 20 -16 q8 -10 12 -23 q4 -13 1 -26 q-2 -13 -10.5 -26 q-8.5 -13 -20 -23.5 q-11.5 -10.5 -25.5 -16.5 q-14 -6 -27 -6 l-750 0 q-13 0 -25 6 q-12 6 -20.5 16.5 q-8.5 10.5 -12 23.5 q-3.5 13 -1.5 26 ZM7 -34 q-9 9 -11.5 23 q-2.5 14 0.5 29 q3 15 11.5 30 q8.5 15 21.5 27 q22 20 42.5 40.5 q20.5 20.5 38.5 40.5 q17 18 39 25.5 q22 7.5 35 7.5 q11 0 19 -4 l2 -1 q15 -6 23.5 -18 q8.5 -12 10.5 -26.5 q2 -14.5 -3 -30 q-5 -15.5 -19 -29.5 q-28 -28 -56.5 -55.5 q-28.5 -27.5 -56.5 -52.5 q-11 -10 -24 -15 q-13 -5 -27 -5.5 q-14 -0.5 -26 3 q-12 3.5 -20 11.5 Z" /><glyph glyph-name="uni4EAE" unicode="&#x4eae;" d="M338 511 q0 -2 1 -4 q1 -2 3 -2 l327 0 q2 0 4 2 q2 2 2 4 l5 28 q0 2 -1 4 q-1 2 -3 2 l-327 0 q-2 0 -4 -2 q-2 -2 -2 -4 l-5 -28 ZM188 484 l15 81 q2 14 10.5 26.5 q8.5 12.5 20.5 23 q12 10.5 26 16.5 q14 6 27 6 l493 0 q14 0 25.5 -6 q11.5 -6 20.5 -16.5 q9 -10.5 12.5 -23 q3.5 -12.5 1.5 -26.5 l-15 -81 q-2 -13 -10.5 -26 q-8.5 -13 -20.5 -23.5 q-12 -10.5 -25.5 -16.5 q-13.5 -6 -27.5 -6 l-493 0 q-13 0 -25 6 q-12 6 -21 16.5 q-9 10.5 -12.5 23.5 q-3.5 13 -1.5 26 ZM89 729 q4 23 29.5 41 q25.5 18 52.5 18 l307 0 q-1 19 22 39 q24 22 57 28 l15 3 q6 1 12 1 l22 -7 q23 -7 28 -21 q3 -11 -2 -23 q-4 -11 -12 -20 l326 0 q27 0 45 -16.5 q18 -16.5 18 -34.5 q0 -4 -1 -8 q-2 -11 -10 -21.5 q-8 -10.5 -20 -19 q-12 -8.5 -25.5 -13.5 q-13.5 -5 -27.5 -5 l-775 0 q-13 0 -25 5 q-12 5 -21 13.5 q-9 8.5 -13 19 q-4 10.5 -2 21.5 ZM11 245 l12 66 q2 14 10.5 26.5 q8.5 12.5 20.5 23 q12 10.5 26.5 16.5 q14.5 6 27.5 6 l759 0 q14 0 25 -6 q11 -6 20 -16 q9 -10 12.5 -23 q3.5 -13 1.5 -26 l-11 -65 q-3 -13 -11 -26 q-8 -13 -20.5 -23.5 q-12.5 -10.5 -26 -16.5 q-13.5 -6 -27.5 -6 q-13 0 -25 6 q-12 6 -20.5 16.5 q-8.5 10.5 -12.5 23.5 q-4 13 -1 26 l3 22 q1 2 -1 4 q-2 2 -4 2 l-610 0 q-2 0 -4 -2 q-2 -2 -3 -4 l-4 -24 q-2 -13 -10.5 -26 q-8.5 -13 -19.5 -23.5 q-11 -10.5 -24 -16.5 q-13 -6 -26 -6 q-13 0 -24.5 6 q-11.5 6 -19.5 16.5 q-8 10.5 -11.5 23.5 q-3.5 13 -1.5 26 ZM0 -23 q0 19 17 42 q17 23 61 37 q31 10 52.5 22.5 q21.5 12.5 36.5 27 q15 14.5 25 32 q10 17.5 18 37.5 q9 26 35 47 q26 21 52 21 l8 0 q9 0 17 -3 q11 3 21 3 l226 0 q12 0 23 -4 q11 4 21 4 l12 0 q14 0 25.5 -6 q11.5 -6 20 -16.5 q8.5 -10.5 12 -23.5 q3.5 -13 1.5 -27 l-16 -88 q-4 -23 -0.5 -28.5 q3.5 -5.5 19.5 -5.5 l48 0 q19 0 34.5 11 q15.5 11 29.5 22.5 q14 11.5 28 19.5 q14 8 29 2 q17 -6 23.5 -24 q6.5 -18 6.5 -30 q0 -12 -4 -23 q-13 -30 -25.5 -49.5 q-12.5 -19.5 -29 -31.5 q-16.5 -12 -40 -17 q-23.5 -5 -58.5 -5 l-92 0 q-47 0 -75 8 q-28 8 -41.5 26.5 q-13.5 18.5 -14 35.5 q-0.5 17 -0.5 21 q0 28 6 67 l8 44 l-175 0 q-8 -21 -19 -39 q-21 -38 -52 -68.5 q-31 -30.5 -78 -54.5 q-47 -24 -113 -42 q-9 -3 -18 -3 q-15 0 -34 9.5 q-19 9.5 -26 26.5 q-5 12 -5 23 Z" /><glyph glyph-name="uni4EB2" unicode="&#x4eb2;" d="M608 102 q0 12 4.5 26 q4.5 14 15.5 27.5 q11 13.5 27 21.5 q14 6 30 6 q7 0 23 -2 q16 -2 27 -16 l18 -22 q9 -11 17.5 -22.5 q8.5 -11.5 16.5 -23 q8 -11.5 16 -22.5 q7 -11 7 -25 q0 -14 -4.5 -27.5 q-4.5 -13.5 -15 -25.5 q-10.5 -12 -23.5 -19 l-5 -3 q-14 -7 -28.5 -8.5 q-14.5 -1.5 -28.5 2 q-14 3.5 -25.5 11 q-11.5 7.5 -17.5 18.5 q-5 8 -10 16.5 q-5 8.5 -10 17.5 l-11 17 q-6 8 -12 17 q-9 13 -10 22.5 q-1 9.5 -1 13.5 ZM152 664 q-4 11 -2 22 q2 11 10 22 q8 11 19.5 19.5 q11.5 8.5 25.5 13.5 q14 5 27 5 l247 0 q-1 4 -2 9 q0 14 5 28.5 q5 14.5 15 27 q10 12.5 23.5 22 q13.5 9.5 29.5 12.5 l12 3 q6 1 12 1 q15 0 34 -10 q19 -10 24 -30 q1 -6 2 -12.5 q1 -6.5 2 -13.5 q2 -12 -2 -24 q-3 -7 -6 -13 l255 0 q13 0 25 -5 q12 -5 20.5 -13.5 q8.5 -8.5 12.5 -19.5 q4 -11 2 -22 q-2 -11 -10 -22 q-8 -11 -19.5 -19.5 q-11.5 -8.5 -25.5 -13.5 q-14 -5 -27 -5 l-651 0 q-13 0 -25 5 q-12 5 -20.5 13.5 q-8.5 8.5 -12.5 19.5 ZM59 245 q-4 11 -2 23 q2 12 10 23.5 q8 11.5 20 20 q12 8.5 26 14 q14 5.5 27 5.5 l272 0 l2 13 q2 14 11 27 q7 11 17 20 l-321 0 q-13 0 -25 5.5 q-12 5.5 -21 14 q-9 8.5 -13 20 q-4 11.5 -2 23.5 q2 12 10 23 q8 11 20 19.5 q12 8.5 26 14 q14 5.5 27 5.5 l135 0 q-3 5 -4 11 q-3 15 1 30.5 q4 15.5 13.5 29 q9.5 13.5 23 23.5 q13.5 10 30.5 14 q5 1 10 1 q14 0 33 -9.5 q19 -9.5 24 -26.5 q1 -8 3.5 -14.5 q2.5 -6.5 4.5 -13.5 q3 -12 -1 -25 q-3 -11 -8 -20 l213 0 q0 2 1 4 q1 16 8 32 l3 6 q7 12 17 23 q10 11 23 19 q13 8 26.5 11.5 q13.5 3.5 25.5 1.5 q16 -3 26 -12.5 q10 -9.5 14.5 -23 q4.5 -13.5 3 -29.5 q-1.5 -16 -11.5 -31 l-1 -1 l121 0 q14 0 25.5 -5.5 q11.5 -5.5 20.5 -14 q9 -8.5 13 -19.5 q4 -11 2 -23 q-2 -12 -10 -23.5 q-8 -11.5 -20 -20 q-12 -8.5 -25.5 -14 q-13.5 -5.5 -27.5 -5.5 l-304 0 q7 -9 11 -20 q3 -13 1 -27 l-2 -13 l268 0 q14 0 25.5 -5.5 q11.5 -5.5 20.5 -14 q9 -8.5 13 -20 q4 -11.5 2 -23.5 q-2 -12 -10 -23 q-8 -11 -20 -20 q-12 -9 -25.5 -14.5 q-13.5 -5.5 -27.5 -5.5 l-269 0 l-28 -160 q-9 -50 -25.5 -77.5 q-16.5 -27.5 -52.5 -42.5 q-25 -11 -54.5 -15 q-29.5 -4 -62.5 -6 q-1 0 -3 0 q-21 0 -39.5 15 q-18.5 15 -20.5 32 q-1 4 -1 9 q0 27 24 49.5 q24 22.5 64 22.5 q11 1 16 4 q5 3 7 13 l27 156 l-271 0 q-13 0 -25 5.5 q-12 5.5 -21 14.5 q-9 9 -13 20 ZM41 13 q0 7 4.5 28.5 q4.5 21.5 37.5 50.5 q14 12 27 24.5 q13 12.5 25 25.5 q17 18 40 27 q23 9 37 9 q9 0 16 -3 l3 0 q15 -5 24 -16 q9 -11 12 -25 q3 -14 -1 -29.5 q-4 -15.5 -17 -28.5 q-24 -26 -49 -50 q-25 -24 -50 -46 q-19 -16 -34.5 -17 q-15.5 -1 -18.5 -1 q-24 0 -37 11 q-19 16 -19 40 Z" /><glyph glyph-name="uni4EBA" unicode="&#x4eba;" d="M-4 3 q0 10 5.5 33 q5.5 23 41.5 46 q77 51 135 110 q58 59 101 121.5 q43 62.5 73.5 126.5 q30.5 64 51 125.5 q20.5 61.5 33 117.5 q12.5 56 21.5 102 q3 13 11 25.5 q8 12.5 20.5 22.5 q12.5 10 26.5 16 q14 6 27 6 l24 0 q14 0 25 -6.5 q11 -6.5 19.5 -17 q8.5 -10.5 12 -24 q3.5 -13.5 0.5 -27.5 q-11 -47 -25 -102 q2 -9 1 -18 q0 -18 0 -38 q0 -20 0.5 -53.5 q0.5 -33.5 7.5 -83.5 q7 -50 21.5 -103.5 q14.5 -53.5 40.5 -105 q26 -51.5 64.5 -99.5 q38.5 -48 92.5 -88 q31 -21 31 -57 q0 -34 -28 -63 q-10 -10 -23.5 -17.5 q-13.5 -7.5 -28 -11 q-14.5 -3.5 -28.5 -2.5 q-14 1 -24 8 q-66 46 -113 104 q-47 58 -77.5 121.5 q-30.5 63.5 -46.5 129.5 q-6 26 -11 52 q-37 -70 -86 -138 q-53 -74 -122 -142.5 q-69 -68.5 -160 -127.5 q-11 -8 -25.5 -10.5 q-14.5 -2.5 -28.5 0 q-14 2.5 -26 9 q-12 6.5 -19 15.5 q-15 20 -15 44 Z" /><glyph glyph-name="uni4EBF" unicode="&#x4ebf;" d="M287 66 q0 17 3 35 q4 21 11.5 44 q7.5 23 26.5 55 q19 32 54 77.5 q35 45.5 93.5 112 q58.5 66.5 145.5 157.5 q43 44 95 97 l-224 0 q-14 0 -26 6 q-12 6 -21 15.5 q-9 9.5 -13 22 q-4 12.5 -1 25.5 q2 13 10 25 q8 12 20.5 21.5 q12.5 9.5 26.5 15.5 q14 6 28 6 l296 0 q14 0 26 -6 q4 -2 7 -4 q3 2 7 4 q13 6 21 6 l6 0 q4 0 6 1 l13 2 q5 1 13.5 -0.5 q8.5 -1.5 12.5 -4.5 l12 -7 l29 -17 l25 -25 l-8 -8 l-8 -7 q-122 -118 -208.5 -204.5 q-86.5 -86.5 -145 -148.5 q-58.5 -62 -93.5 -103 q-35 -41 -54 -68 q-19 -27 -25.5 -43 q-6.5 -16 -8.5 -29 q-1 -6 -1 -11 q0 -20 18 -31 q18 -11 63 -11 l185 0 q13 0 23.5 3 q10.5 3 19.5 11 q9 8 17 22.5 q8 14.5 15 37.5 q12 38 36.5 55.5 q24.5 17.5 43.5 17.5 l19 -3 q17 -7 25 -25 q8 -18 8 -31 q0 -10 -4 -21 q-19 -63 -39.5 -103.5 q-20.5 -40.5 -47.5 -63.5 q-27 -23 -64 -31.5 q-37 -8.5 -89 -8.5 l-170 0 q-63 0 -106 12.5 q-43 12.5 -67.5 36 q-24.5 23.5 -30.5 48 q-6 24.5 -6 43.5 ZM33 458 q0 13 6 34 q6 21 23 38 q55 53 106 119 q51 66 94 138 q7 12 19 21.5 q12 9.5 25.5 15.5 q13.5 6 27.5 8 q14 2 25 -2 q14 -4 22.5 -14 q8.5 -10 12 -23.5 q3.5 -13.5 2.5 -28 q-1 -14.5 -9 -27.5 q-40 -66 -85 -130 l-111 -629 q-2 -14 -10.5 -26.5 q-8.5 -12.5 -20 -23 q-11.5 -10.5 -25.5 -16.5 q-14 -6 -27 -6 q-13 0 -24.5 6 q-11.5 6 -20 16.5 q-8.5 10.5 -12 23 q-3.5 12.5 -1.5 26.5 l74 419 l-8 -4 q-11 -4 -22 -4 q-4 0 -14 1.5 q-10 1.5 -22 12 q-12 10.5 -18 28.5 q-2 2 -2 4 q0 2 -2 4 q-3 9 -3 19 Z" /><glyph glyph-name="uni4EC0" unicode="&#x4ec0;" d="M336.5 434 q-3.5 13 -1.5 26 q2 13 10.5 26 q8.5 13 20.5 23 q12 10 26 16 q14 6 27 6 l174 0 l41 233 q2 14 10.5 27 q8.5 13 20 23.5 q11.5 10.5 26 16.5 q14.5 6 27.5 6 l10 0 q13 0 24.5 -6 q11.5 -6 20 -16.5 q8.5 -10.5 12 -23.5 q3.5 -13 1.5 -27 l-41 -233 l163 0 q13 0 25 -6 q12 -6 20 -16 q8 -10 11.5 -23 q3.5 -13 1.5 -26 q-2 -13 -10.5 -26 q-8.5 -13 -20 -23.5 q-11.5 -10.5 -26 -16.5 q-14.5 -6 -27.5 -6 l-162 0 l-73 -410 q-2 -14 -10.5 -27 q-8.5 -13 -20.5 -23.5 q-12 -10.5 -26 -16.5 q-14 -6 -27 -6 l-10 0 q-13 0 -25 6 q-12 6 -20 16.5 q-8 10.5 -11.5 23.5 q-3.5 13 -1.5 27 l73 410 l-175 0 q-13 0 -24.5 6 q-11.5 6 -20 16.5 q-8.5 10.5 -12 23.5 ZM41 455 q0 12 6 33 q6 21 23 38 q54 54 106 121 q52 67 95 139 q7 12 19 22 q12 10 25.5 16 q13.5 6 27.5 8 q14 2 25 -2 q14 -4 22.5 -14 q8.5 -10 12 -23.5 q3.5 -13.5 2.5 -28 q-1 -14.5 -9 -27.5 q-35 -58 -73 -114 l-114 -645 q-2 -14 -10.5 -26.5 q-8.5 -12.5 -20 -23 q-11.5 -10.5 -25.5 -16.5 q-14 -6 -28 -6 q-13 0 -24.5 6 q-11.5 6 -20 16.5 q-8.5 10.5 -12 23 q-3.5 12.5 -1.5 26.5 l75 422 q-9 -7 -18 -10 q-12 -4 -24 -4 q-4 0 -13.5 1 q-9.5 1 -21.5 11.5 q-12 10.5 -18 28.5 q-1 2 -1.5 4 q-0.5 2 -1.5 4 q-3 9 -3 20 Z" /><glyph glyph-name="uni4EC5" unicode="&#x4ec5;" d="M272 -19 q0 17 14.5 43 q14.5 26 52.5 44 q89 43 165 105 q4 3 8 7 q-37 71 -59 156 q-24 89 -36 193 q-1 13 4 27 q5 14 14 26 q9 12 21.5 21 q12.5 9 25.5 12 q13 3 26 -0.5 q13 -3.5 23 -11.5 q10 -8 17 -19 q7 -11 8 -24 q8 -81 28 -152 q16 -61 43 -114 l18 22 q64 81 115 182 q28 57 53 120 l-332 0 q-13 0 -25 6 q-12 6 -21 15.5 q-9 9.5 -12.5 21.5 q-3.5 12 -1.5 25 q2 12 10 24 q8 12 20.5 21.5 q12.5 9.5 26.5 15.5 q14 6 27 6 l329 0 q14 0 26 -6 l0 -1 q7 7 14 7 q2 0 5.5 0.5 q3.5 0.5 5.5 1.5 l8 1 q6 2 11.5 1.5 q5.5 -0.5 9.5 -1.5 l28 -10 q19 -7 28 -26 q9 -19 9 -32 q0 -9 -3 -17 q-48 -145 -110 -260 q-62 -115 -138 -205 q-12 -14 -24 -27 l14 -14 q47 -50 111 -87 q31 -19 34 -38.5 q3 -19.5 3 -25.5 q0 -27 -22 -51 q-7 -9 -18.5 -15.5 q-11.5 -6.5 -24.5 -9.5 q-13 -3 -25.5 -3 q-12.5 0 -23.5 5 q-80 42 -138 101 q-14 13 -27 28 l-26 -20 q-91 -67 -198 -115 q-15 -7 -30 -7 q-10 0 -28 5.5 q-18 5.5 -27 22.5 q-6 13 -6 26 ZM29 443 q0 13 7 36 q7 23 26 40 q59 55 115.5 123.5 q56.5 68.5 104.5 143.5 q15 24 40 35 q25 11 42 11 q10 0 18 -3 l7 -2 q13 -4 21.5 -14.5 q8.5 -10.5 12.5 -24 q4 -13.5 1.5 -28.5 q-2.5 -15 -10.5 -28 q-41 -64 -87 -127 l-111 -626 q-2 -14 -10.5 -26.5 q-8.5 -12.5 -20.5 -23 q-12 -10.5 -25.5 -16.5 q-13.5 -6 -27.5 -6 q-13 0 -25 6 q-12 6 -21 16.5 q-9 10.5 -12.5 23.5 q-3.5 13 -1.5 27 l73 412 q-14 -14 -30 -19 q-11 -4 -22 -4 q-4 0 -14 1.5 q-10 1.5 -22.5 11.5 q-12.5 10 -18.5 26 q-1 4 -2 7 q-1 3 -3 7 q-4 9 -4 21 Z" /><glyph glyph-name="uni4ECA" unicode="&#x4eca;" d="M123 297 l1 5 q3 14 11 26.5 q8 12.5 20.5 23 q12.5 10.5 26.5 16.5 q14 6 28 6 l298 0 q-5 3 -10 8 q-14 15 -29.5 30 q-15.5 15 -30.5 30 q-10 10 -15 23.5 q-5 13.5 -3.5 28.5 q1.5 15 8.5 28.5 q7 13.5 18 23.5 q18 15 33 16 q15 1 18 1 q24 0 39 -13 q21 -17 42 -35.5 q21 -18.5 41 -36.5 q9 -8 12 -20.5 q3 -12.5 1.5 -26 q-1.5 -13.5 -8 -27 q-6.5 -13.5 -17.5 -22.5 q-5 -5 -11 -8 l67 0 q14 0 26 -6 q12 -6 21 -16 q0 -1 1 -2 q2 3 4 5 q1 2 2.5 4 q1.5 2 1.5 4 q1 5 7.5 8 q6.5 3 14.5 3 q2 0 5.5 0.5 q3.5 0.5 5.5 1.5 l2 0 q7 2 17 1 q10 -1 16 -4 l22 -11 q13 -6 20 -18.5 q7 -12.5 8.5 -27 q1.5 -14.5 -3 -30 q-4.5 -15.5 -16.5 -28.5 q-33 -38 -69.5 -78 q-36.5 -40 -74.5 -80.5 q-38 -40.5 -75.5 -80 q-37.5 -39.5 -73.5 -77.5 q-16 -17 -35.5 -21.5 q-19.5 -4.5 -29.5 -4.5 q-13 0 -23 5 l-17 9 q-15 7 -23.5 20.5 q-8.5 13.5 -8.5 29.5 q0 14 6.5 30 q6.5 16 19.5 29 q42 42 85 85.5 q43 43.5 82 85.5 l15 15 l-412 0 q-14 0 -26 6 q-12 6 -21 16.5 q-9 10.5 -12.5 23.5 q-3.5 13 -1.5 26 ZM76 478 q0 13 8.5 38 q8.5 25 47.5 43 q50 24 99.5 52.5 q49.5 28.5 96 60.5 q46.5 32 90 68 q43.5 36 81.5 76 q10 10 22.5 17 q12.5 7 26.5 11 q14 4 27 3.5 q13 -0.5 22 -5.5 l13 -6 q13 -7 20.5 -19.5 q7.5 -12.5 8.5 -26.5 l0 -9 q8 -5 14 -11 q23 -27 52.5 -53.5 q29.5 -26.5 62 -51.5 q32.5 -25 68 -48.5 q35.5 -23.5 71.5 -44.5 q16 -9 24 -23.5 q8 -14.5 8 -31 q0 -16.5 -8 -34 q-8 -17.5 -22 -32.5 q-2 -1 -2.5 -2 q-0.5 -1 -1.5 -2 q-10 -10 -23.5 -17 q-13.5 -7 -27.5 -10 q-14 -3 -27.5 -2 q-13.5 1 -23.5 8 q-36 25 -72 54.5 q-36 29.5 -70.5 61.5 q-34.5 32 -66.5 67 q-25 26 -47 54 q-15 -13 -29 -26 q-53 -45 -107.5 -85 q-54.5 -40 -111 -75 q-56.5 -35 -115.5 -66 q-12 -6 -26 -7 q-14 -1 -27.5 2.5 q-13.5 3.5 -24 11 q-10.5 7.5 -16.5 17.5 q-1 2 -1 3 l-2 1 q-11 19 -11 39 Z" /><glyph glyph-name="uni4ECB" unicode="&#x4ecb;" d="M537 -22 l68 383 q2 14 10.5 26.5 q8.5 12.5 20.5 23 q12 10.5 26 16.5 q14 6 28 6 l9 0 q14 0 26 -6 q12 -6 21 -16.5 q9 -10.5 12.5 -23 q3.5 -12.5 1.5 -26.5 l-68 -383 q-2 -14 -10.5 -26.5 q-8.5 -12.5 -20.5 -23 q-12 -10.5 -26.5 -16.5 q-14.5 -6 -28.5 -6 l-9 0 q-14 0 -25.5 6 q-11.5 6 -20.5 16.5 q-9 10.5 -12.5 23 q-3.5 12.5 -1.5 26.5 ZM61 493 q0 18 14 44.5 q14 26.5 53 41.5 q54 20 106 46 q52 26 100.5 56 q48.5 30 93.5 63.5 q45 33.5 82 68.5 q11 11 26 17.5 q15 6.5 29.5 9 q14.5 2.5 29 0 q14.5 -2.5 24.5 -10.5 q10 -8 14 -20.5 q4 -12.5 4 -25.5 q0 -11 -3 -21 q13 -6 21 -15 q20 -25 47 -48 q27 -23 59.5 -43 q32.5 -20 70 -37 q37.5 -17 78.5 -31 q38 -14 40 -33 q2 -19 2 -23 q0 -30 -26 -61 q-1 0 -1 -0.5 q0 -0.5 -1 -1.5 q-15 -18 -38 -26.5 q-23 -8.5 -36 -8.5 q-9 0 -17 3 q-49 18 -92 42 q-43 24 -81.5 52.5 q-38.5 28.5 -71.5 61.5 q-30 30 -55 65 q-9 -7 -17 -14 q-55 -43 -114 -81.5 q-59 -38.5 -121 -72 q-62 -33.5 -125 -59.5 q-13 -6 -26.5 -5.5 q-13.5 0.5 -25.5 5 q-12 4.5 -22 13 q-10 8.5 -14 19.5 q-7 15 -7 30 ZM30 -7 q0 9 5.5 31.5 q5.5 22.5 40.5 50.5 q39 31 64 60.5 q25 29.5 41 60 q16 30.5 24.5 63.5 q8.5 33 15.5 70 l5 30 q3 14 11 26.5 q8 12.5 20.5 23 q12.5 10.5 26.5 16.5 q14 6 27 6 l10 0 q14 0 25.5 -6 q11.5 -6 20 -16.5 q8.5 -10.5 12.5 -23.5 q4 -13 1 -27 l-6 -33 q-8 -45 -21.5 -95 q-13.5 -50 -40 -100.5 q-26.5 -50.5 -67.5 -99.5 q-41 -49 -105 -91 q-10 -7 -23.5 -9.5 q-13.5 -2.5 -26 -1 q-12.5 1.5 -24.5 6.5 q-12 5 -18 13 q-18 20 -18 45 Z" /><glyph glyph-name="uni4ECD" unicode="&#x4ecd;" d="M219 2 q0 5 2 25 q2 20 23 47 q46 60 78 130 q32 70 55.5 145.5 q23.5 75.5 40.5 156.5 l30 152 l-7 0 q-13 0 -25 5.5 q-12 5.5 -20.5 15 q-8.5 9.5 -12 21.5 q-3.5 12 -1.5 24 q2 12 10 23.5 q8 11.5 19.5 21 q11.5 9.5 25.5 15 q14 5.5 27 5.5 l273 0 q13 0 25 -5 q7 -4 12 -8 q20 13 38 13 q15 0 27.5 -7 q12.5 -7 19.5 -20 q7 -13 7 -30 q0 -13 -5 -27 q-13 -34 -27 -69.5 q-14 -35.5 -27 -69.5 q-10 -25 -20 -48 l101 0 q14 0 26 -5 q9 -5 18 -13 q9 -7 14 -16 q4 -9 3 -18 q1 -6 0 -13 q-1 -8 -6 -17 q-23 -106 -42 -184 q-20 -84 -37 -141 q-17 -57 -32.5 -91 q-15.5 -34 -31.5 -50 q-25 -27 -49 -38 q-24 -11 -54 -16 q-14 -2 -32.5 -3.5 q-18.5 -1.5 -38.5 -1.5 q-1 0 -3 0 q-23 0 -42.5 16.5 q-19.5 16.5 -20.5 36.5 q0 3 0 5 q0 32 24 55.5 q24 23.5 67 23.5 q13 0 22.5 3 q9.5 3 19.5 12 q11 10 22.5 38 q11.5 28 26 79 q14.5 51 32.5 128 q8 36 17 79 l-20 0 q-15 0 -27 7 q-10 5 -17 12 q-2 -1 -4 -3 q-23 -16 -41 -16 q-16 0 -28 7.5 q-12 7.5 -18.5 20 q-6.5 12.5 -6.5 28.5 q0 16 7 32 q12 29 24.5 60.5 q12.5 31.5 25.5 64.5 q11 29 21 58 l-108 0 q-18 -90 -39 -179 q-23 -93 -53 -181 q-30 -88 -70 -169.5 q-40 -81.5 -94 -152.5 q-12 -15 -27 -23 q-15 -8 -30 -10 q-15 -2 -29.5 2.5 q-14.5 4.5 -23.5 15.5 q-14 15 -14 41 ZM24 453 q0 11 5.5 30 q5.5 19 18.5 33 q50 56 97.5 125 q47.5 69 87.5 144 q8 13 19.5 24 q11.5 11 24.5 18 q13 7 27.5 9.5 q14.5 2.5 25.5 -1.5 q13 -4 21 -13.5 q8 -9.5 12.5 -22 q4.5 -12.5 3.5 -26.5 q-1 -14 -8 -27 q-34 -63 -73 -126 l-114 -641 q-2 -14 -10.5 -27 q-8.5 -13 -19.5 -23.5 q-11 -10.5 -25 -16.5 q-14 -6 -27 -6 q-13 0 -23.5 6 q-10.5 6 -19 16.5 q-8.5 10.5 -12 23 q-3.5 12.5 -1.5 26.5 l72 408 q-1 -1 -2 -1 q-12 -5 -24 -5 q-3 0 -12.5 1 q-9.5 1 -21 12 q-11.5 11 -15.5 30 q-2 4 -2.5 7.5 q-0.5 3.5 -2.5 7.5 q-2 7 -2 15 Z" /><glyph glyph-name="uni4ECE" unicode="&#x4ece;" d="M343 15 q0 3 0.5 12.5 q0.5 9.5 8 26.5 q7.5 17 20.5 31 q54 58 97 131.5 q43 73.5 78 160.5 q35 87 63 186.5 q28 99.5 51 208.5 q4 14 13 26.5 q9 12.5 21.5 22.5 q12.5 10 27 16 q14.5 6 26.5 5 l17 0 q14 -1 25.5 -7.5 q11.5 -6.5 19.5 -17 q8 -10.5 11.5 -23.5 q3.5 -13 -0.5 -27 q-29 -127 -63 -242 q-5 -17 -11 -33 l3 -3 q8 -13 9 -30 q4 -44 11 -89.5 q7 -45.5 19.5 -89 q12.5 -43.5 29.5 -84 q17 -40.5 41 -73.5 q13 -21 13 -48 q0 -7 -2.5 -29 q-2.5 -22 -27.5 -48 q-13 -13 -28.5 -20.5 q-15.5 -7.5 -32 -9 q-16.5 -1.5 -30 3.5 q-13.5 5 -21.5 18 q-28 46 -47 101 q-19 55 -31 114 q-3 12 -6 26 q-26 -57 -56 -108 q-51 -86 -113 -154 q-10 -11 -24.5 -17.5 q-14.5 -6.5 -29.5 -7.5 q-15 -1 -29.5 2.5 q-14.5 3.5 -23.5 11.5 q-2 1 -3 2 q-1 1 -3 2 q-13 10 -18 24.5 q-5 14.5 -5 28.5 ZM-19 19 q0 18 7 35.5 q7 17.5 18 32.5 q49 59 88 133.5 q39 74.5 71 161.5 q32 87 58 185 q26 98 49 204 q2 14 11.5 27 q9.5 13 22 23 q12.5 10 26.5 16 q14 6 28 6 l14 -1 q14 0 26 -6.5 q12 -6.5 19.5 -17 q7.5 -10.5 11.5 -23.5 q4 -13 0 -27 q-26 -123 -57 -235 l-16 -54 q11 -1 21 -5 q12 -5 19 -15 q13 -18 24.5 -36 q11.5 -18 22.5 -36 q11 -18 20.5 -35.5 q9.5 -17.5 15.5 -30.5 q6 -13 6 -23 q0 -10 -6 -29 q-6 -19 -22 -33 l-5 -4 q-15 -13 -29 -16.5 q-14 -3.5 -24 -3.5 q-6 0 -16.5 1.5 q-10.5 1.5 -23.5 11 q-13 9.5 -20 24.5 l-14 28 q-7 14 -15 28 l-8 14 q-37 -100 -83 -186 q-46 -86 -101 -156 q-9 -13 -23.5 -20 q-14.5 -7 -30 -9 q-15.5 -2 -30 1 q-14.5 3 -25.5 12 q-2 1 -3.5 2 q-1.5 1 -3.5 3 q-12 10 -17.5 24 q-5.5 14 -5.5 29 Z" /><glyph glyph-name="uni4ED3" unicode="&#x4ed3;" d="M345 502 q5 1 10 1 l342 0 q-16 12 -31 26 q-66 55 -125 129 q-14 -13 -27 -26 q-52 -47 -107 -87 q-31 -23 -62 -43 ZM68 466 q0 14 10.5 39 q10.5 25 48.5 42 q53 23 102 50 q49 27 95 59 q46 32 88.5 69.5 q42.5 37.5 78.5 79.5 q9 10 21.5 18 q12.5 8 26 12.5 q13.5 4.5 27 5 q13.5 0.5 23.5 -4.5 l8 -4 q13 -6 21 -17.5 q8 -11.5 10 -25.5 q1 -9 0 -19 q13 -6 20 -15 q55 -65 118.5 -112.5 q63.5 -47.5 139.5 -84.5 q35 -16 37.5 -34.5 q2.5 -18.5 2.5 -22.5 q0 -28 -23 -53 q-9 -10 -22.5 -17.5 q-13.5 -7.5 -28.5 -11.5 q-15 -4 -29 -3 q-14 1 -25 7 q-20 11 -38 23 q0 -6 -1 -11 q-2 -8 -6 -16 q-11 -50 -20 -87 q-12 -46 -22.5 -79 q-10.5 -33 -21.5 -54 q-11 -21 -23 -34 q-24 -23 -50 -32 q-26 -9 -53 -11 q-17 -2 -38 -3 q-21 -1 -45 -1 q-25 0 -44.5 17.5 q-19.5 17.5 -19.5 36.5 q0 28 27 48.5 q27 20.5 69 20.5 l2 0 q13 0 21.5 2.5 q8.5 2.5 17.5 9.5 q6 6 12.5 22 q6.5 16 14.5 44 q6 20 12 47 l-275 0 l-43 -241 q-3 -19 -2 -30.5 q1 -11.5 10 -17.5 q9 -6 27 -8 q18 -2 49 -2 l215 0 q13 0 23.5 1 q10.5 1 19.5 3.5 q9 2.5 16.5 7 q7.5 4.5 13.5 11.5 q15 16 29.5 30 q14.5 14 29.5 23 q15 9 25.5 11 q10.5 2 16.5 2 l21 -4 q10 -4 18.5 -12.5 q8.5 -8.5 13 -20 q4.5 -11.5 5 -25 q0.5 -13.5 -4.5 -25.5 q-17 -42 -35 -70.5 q-18 -28.5 -44 -45.5 q-26 -17 -65 -24 q-39 -7 -98 -7 l-237 0 q-69 0 -113 9 q-44 9 -67 32 q-23 23 -26.5 48.5 q-3.5 25.5 -3.5 39.5 q0 31 8 72 l51 292 q-9 -5 -18 -9 q-13 -6 -27.5 -7 q-14.5 -1 -27 3 q-12.5 4 -23.5 11.5 q-11 7.5 -16 17.5 q-10 17 -10 35 Z" /><glyph glyph-name="uni4ED4" unicode="&#x4ed4;" d="M310.5 332.5 q-3.5 12.5 -1.5 25.5 q2 13 10.5 25.5 q8.5 12.5 20.5 22.5 q12 10 26 16 q14 6 27 6 l188 0 l11 61 q3 14 11 27 q8 13 20 24 q10 8 21 14 q1 3 3 7 q13 32 44 54 q25 17 49 35 q2 1 3 2 l-246 0 q-14 0 -26 6 q-12 6 -21 15.5 q-9 9.5 -12.5 21.5 q-3.5 12 -1.5 24 q2 13 10 25 q8 12 20.5 21.5 q12.5 9.5 26.5 15 q14 5.5 28 5.5 l319 0 q14 0 26 -5 q2 -2 5 -4 l2 2 q10 7 21 7 q2 0 5 0.5 q3 0.5 5 0.5 q8 3 22 0 q14 -3 22 -10 l12 -10 q10 -8 14.5 -21.5 q4.5 -13.5 3.5 -28 q-1 -14.5 -7.5 -28.5 q-6.5 -14 -18.5 -24 q-25 -22 -51 -43.5 q-26 -21.5 -53.5 -42 q-27.5 -20.5 -55.5 -39.5 q-26 -19 -52 -35 q1 -7 0 -14 l-11 -63 l169 0 q14 0 25.5 -6 q11.5 -6 20.5 -16 q9 -10 12.5 -22.5 q3.5 -12.5 1.5 -25.5 q-2 -13 -10.5 -25.5 q-8.5 -12.5 -20.5 -22.5 q-12 -10 -25.5 -16 q-13.5 -6 -27.5 -6 l-170 0 l-39 -218 q-10 -57 -29 -88.5 q-19 -31.5 -60 -48.5 q-30 -13 -67.5 -17.5 q-37.5 -4.5 -83.5 -6.5 q-1 0 -2 0 q-22 0 -41 17 q-19 17 -22 37 q0 3 0 5 q0 15 5 30 q5 15 17.5 27.5 q12.5 12.5 29 20 q16.5 7.5 36.5 7.5 q14 0 20 -0.5 q6 -0.5 21 0.5 q14 0 21 4 q7 4 9 16 l38 215 l-188 0 q-13 0 -25 6 q-12 6 -21 16 q-9 10 -12.5 22.5 ZM37 458 q0 13 6 34 q6 21 22 38 q54 53 104 118.5 q50 65.5 92 136.5 q8 12 20 22.5 q12 10.5 25.5 16.5 q13.5 6 27.5 8 q14 2 25 -2 q14 -4 22.5 -14 q8.5 -10 12.5 -23 q4 -13 2.5 -27.5 q-1.5 -14.5 -9.5 -27.5 q-44 -74 -94 -145 l-109 -616 q-2 -13 -10.5 -26 q-8.5 -13 -19.5 -23 q-11 -10 -25 -16 q-14 -6 -27 -6 q-13 0 -23.5 6 q-10.5 6 -19 16.5 q-8.5 10.5 -12 23 q-3.5 12.5 -1.5 26.5 l74 416 q-13 -4 -24 -4 q-4 0 -13 1 q-9 1 -21 11.5 q-12 10.5 -18 28.5 q-2 2 -2 4 q0 2 -2 4 q-3 9 -3 19 Z" /><glyph glyph-name="uni4ED6" unicode="&#x4ed6;" d="M289 402 q-4 12 -0.5 26.5 q3.5 14.5 11.5 27.5 q8 13 20 24 q12 11 25 16 l54 20 l26 148 q3 14 11 26.5 q8 12.5 20.5 23 q12.5 10.5 26.5 16.5 q14 6 27 6 q14 0 25.5 -6 q11.5 -6 20 -16.5 q8.5 -10.5 12.5 -23 q4 -12.5 1 -26.5 l-16 -92 l72 26 l32 179 q2 14 10.5 26.5 q8.5 12.5 20 23 q11.5 10.5 24.5 16.5 q13 6 26 6 q13 0 24 -6 q11 -6 18.5 -16.5 q7.5 -10.5 11 -23 q3.5 -12.5 1.5 -26.5 l-22 -125 l61 22 q6 2 11 3 l24 15 q11 7 28 9.5 q17 2.5 27 -2.5 l11 -4 q21 -8 36 -20.5 q15 -12.5 11 -19.5 q0 -2 -1 -5 q-1 -3 -1 -5 q-11 -63 -20.5 -114 q-9.5 -51 -17.5 -90.5 q-8 -39.5 -13.5 -67.5 q-5.5 -28 -10.5 -44 q-9 -40 -27 -64 q-18 -24 -46 -38 q-12 -6 -26 -9.5 q-14 -3.5 -30 -5.5 q-12 -2 -24 2 q-12 4 -21 11 q-9 7 -14 16.5 q-5 9.5 -5 23.5 q0 29 11.5 52 q11.5 23 31.5 23 q8 0 13.5 3.5 q5.5 3.5 9.5 15.5 q2 6 6 25.5 q4 19.5 11 56.5 q7 36 17 91 l-78 -29 l-50 -280 q-2 -13 -10.5 -26 q-8.5 -13 -19.5 -23.5 q-11 -10.5 -24 -16.5 q-13 -6 -26 -6 q-13 0 -24 6 q-11 6 -19 16.5 q-8 10.5 -11.5 23.5 q-3.5 13 -1.5 26 l40 226 l-73 -27 l-53 -302 q-4 -23 -4.5 -37 q-0.5 -14 6 -21 q6.5 -7 20 -9 q13.5 -2 37.5 -2 l171 0 q11 0 20.5 1.5 q9.5 1.5 17 4.5 q7.5 3 13.5 8 q6 5 12 13 q25 36 48.5 53.5 q23.5 17.5 41.5 17.5 q10 0 21 -4 q17 -8 24 -26 q7 -18 7 -30 q0 -11 -4 -23 q-15 -40 -31 -67.5 q-16 -27.5 -39 -45 q-23 -17.5 -56.5 -25 q-33.5 -7.5 -83.5 -7.5 l-199 0 q-59 0 -96.5 9.5 q-37.5 9.5 -56.5 32 q-19 22.5 -20 45 q-1 22.5 -1 29.5 q0 35 8 83 l43 245 q-11 -4 -25 -3 q-14 0 -25.5 5.5 q-11.5 5.5 -20.5 14 q-9 8.5 -12 20.5 ZM33 458 q0 13 6 34 q6 21 23 38 q54 53 105 118 q51 65 93 137 q8 12 20 22 q12 10 25.5 16.5 q13.5 6.5 28 8.5 q14.5 2 25.5 -2 q13 -4 21 -14 q8 -10 12 -23 q4 -13 2 -27.5 q-2 -14.5 -10 -27.5 q-39 -65 -84 -129 l-111 -631 q-2 -14 -10.5 -26.5 q-8.5 -12.5 -20 -23 q-11.5 -10.5 -26 -16.5 q-14.5 -6 -27.5 -6 q-13 0 -24.5 6 q-11.5 6 -20.5 16.5 q-9 10.5 -12.5 23 q-3.5 12.5 -1.5 26.5 l74 420 q-2 -1 -5 -2 q-12 -5 -23 -5 q-4 0 -14 1.5 q-10 1.5 -21.5 11.5 q-11.5 10 -17.5 27 q-2 2 -2 4 q0 2 -1 4 q-3 9 -3 19 Z" /><glyph glyph-name="uni4ED8" unicode="&#x4ed8;" d="M401 314 q-4 13 -2 28 q2 15 9 29 q7 14 18.5 25.5 q11.5 11.5 25.5 17.5 l1 1 q12 5 25.5 5 q13.5 0 25.5 -4 q12 -4 22 -11.5 q10 -7.5 14 -18.5 q6 -13 11.5 -27 q5.5 -14 11.5 -28 q6 -14 11.5 -27.5 q5.5 -13.5 10.5 -26.5 q4 -11 2 -25 q-2 -14 -9 -27 q-7 -13 -17 -24 q-10 -11 -24 -17 l-4 -2 q-14 -7 -30 -7 q-16 0 -29.5 5 q-13.5 5 -24 15 q-10.5 10 -15.5 23 q-3 12 -7 24 l-8 24 q-4 12 -8.5 24 q-4.5 12 -9.5 24 ZM374 566 l1 5 q2 13 10.5 26 q8.5 13 20.5 23 q12 10 26 16 q14 6 28 6 l296 0 l23 130 q3 14 11 26.5 q8 12.5 20.5 23 q12.5 10.5 26.5 16.5 q14 6 27 6 l7 0 q14 0 25.5 -6 q11.5 -6 20 -16.5 q8.5 -10.5 12.5 -23 q4 -12.5 1 -26.5 l-23 -130 l29 0 q14 0 26 -6 q12 -6 21 -16 q9 -10 12.5 -23 q3.5 -13 1.5 -26 l-1 -5 q-2 -13 -10.5 -26 q-8.5 -13 -21 -23 q-12.5 -10 -26.5 -16 q-14 -6 -28 -6 l-29 0 l-74 -421 q-11 -65 -33 -97.5 q-22 -32.5 -66 -48.5 q-35 -14 -82.5 -18.5 q-47.5 -4.5 -108.5 -5.5 q-23 0 -42 16 q-19 16 -23 35 q-1 7 -1 14 q0 28 22.5 52 q22.5 24 64.5 24 q27 -1 43 -1 q16 0 35 1 q19 0 28 6.5 q9 6.5 12 23.5 l74 420 l-296 0 q-14 0 -26 6 q-12 6 -20.5 16 q-8.5 10 -12 23 q-3.5 13 -1.5 26 ZM47 427 q-4 10 -3.5 23 q0.5 13 4 26.5 q3.5 13.5 10.5 26 q7 12.5 16 21.5 q57 54 110.5 121 q53.5 67 97.5 140 q8 12 20 22 q12 10 26 16 q14 6 28 8 q14 2 25 -2 l7 -2 q13 -4 22 -14 q9 -10 12.5 -23.5 q3.5 -13.5 2 -28 q-1.5 -14.5 -10.5 -27.5 q-39 -64 -83 -126 l-111 -629 q-2 -14 -10.5 -26.5 q-8.5 -12.5 -20.5 -23 q-12 -10.5 -25.5 -16.5 q-13.5 -6 -27.5 -6 l-4 0 q-13 0 -25 6 q-12 6 -21 16.5 q-9 10.5 -12.5 23.5 q-3.5 13 -1.5 27 l72 408 q-7 -5 -15 -8 q-11 -4 -22 -4 q-4 0 -14 1.5 q-10 1.5 -23 11 q-13 9.5 -19 25.5 q-1 4 -1.5 7 q-0.5 3 -2.5 6 Z" /><glyph glyph-name="uni4EE3" unicode="&#x4ee3;" d="M820 722 q-7 13 -8.5 28.5 q-1.5 15.5 2.5 30.5 q4 15 13.5 28 q9.5 13 23.5 20 q13 7 29 7 q6 0 21.5 -2.5 q15.5 -2.5 26.5 -16.5 q13 -17 24.5 -34.5 q11.5 -17.5 21.5 -34.5 q6 -10 6 -22.5 q0 -12.5 -5 -25 q-5 -12.5 -13.5 -23.5 q-8.5 -11 -19.5 -17 q-13 -7 -28.5 -8.5 q-15.5 -1.5 -30 3 q-14.5 4.5 -26.5 13.5 q-12 9 -19 21 q-3 8 -7.5 16.5 q-4.5 8.5 -10.5 16.5 ZM359 450 q1 13 7 26.5 q6 13.5 17 25 q11 11.5 24.5 19.5 q13.5 8 28.5 10 l109 15 q11 102 27 218 q2 14 10.5 27.5 q8.5 13.5 20.5 24 q12 10.5 26 17 q14 6.5 28 6.5 l2 0 q14 0 25.5 -6 q11.5 -6 20 -16.5 q8.5 -10.5 13 -23 q4.5 -12.5 1.5 -26.5 q-16 -106 -27 -202 l213 29 q14 2 27 -2 q13 -4 22.5 -12.5 q9.5 -8.5 15.5 -20 q6 -11.5 5 -24.5 q0 -13 -7 -26 q-7 -13 -17.5 -24.5 q-10.5 -11.5 -23.5 -19 q-13 -7.5 -28 -9.5 l-219 -30 q-3 -50 -3 -93 q0 -22 1 -42 q3 -91 22 -145 q19 -54 57 -61 q7 -1 13.5 6.5 q6.5 7.5 13.5 24.5 q19 45 40.5 56.5 q21.5 11.5 34.5 11.5 q17 0 35 -12 q11 -8 14.5 -22 q3.5 -14 3.5 -23 q0 -10 -3 -19 q-23 -63 -45 -102.5 q-22 -39.5 -44 -61.5 q-22 -22 -42 -29 q-20 -7 -37 -7 q-4 0 -8 0 q-86 9 -132.5 71 q-46.5 62 -61.5 172 q-10 65 -10 146 q0 51 4 108 l-104 -14 q-13 -2 -26 2 q-13 4 -22.5 12.5 q-9.5 8.5 -15.5 20 q-6 11.5 -6 24.5 ZM25 430 q0 14 7 38 q7 24 27 41 q65 57 127 128 q62 71 114 149 q7 12 19 21 q12 9 26 15 q14 6 28 7.5 q14 1.5 25 -2.5 l1 -1 q13 -4 21.5 -14.5 q8.5 -10.5 12 -24 q3.5 -13.5 1.5 -28.5 q-2 -15 -10 -28 q-34 -52 -72 -103 l-115 -649 q-2 -14 -10.5 -26.5 q-8.5 -12.5 -20.5 -23 q-12 -10.5 -25.5 -16.5 q-13.5 -6 -27.5 -6 l-7 0 q-13 0 -25 6 q-12 6 -21 16.5 q-9 10.5 -12.5 23.5 q-3.5 13 -1.5 27 l76 428 q-12 -11 -23 -22 q-14 -14 -27.5 -18 q-13.5 -4 -24.5 -4 q-5 0 -15.5 1.5 q-10.5 1.5 -22.5 11.5 q-12 10 -18 26 q-1 2 -1 3.5 q0 1.5 -2 3.5 q-3 9 -3 20 Z" /><glyph glyph-name="uni4EE4" unicode="&#x4ee4;" d="M432 485.5 q-3 14.5 -0.5 29.5 q2.5 15 10.5 28.5 q8 13.5 21 22.5 q18 13 43 13 q2 0 16.5 0 q14.5 0 28.5 -16 q10 -11 20.5 -22 q10.5 -11 20.5 -22 q7 -9 9.5 -21.5 q2.5 -12.5 -0.5 -26 q-3 -13.5 -11 -26 q-8 -12.5 -18 -20.5 q-13 -10 -28.5 -13.5 q-15.5 -3.5 -31 -2 q-15.5 1.5 -28.5 8.5 q-13 7 -22 18 q-5 6 -9.5 12 q-4.5 6 -9.5 12 q-8 11 -11 25.5 ZM131 331 q3 13 11 25.5 q8 12.5 20.5 22.5 q12.5 10 26.5 16 q14 6 28 6 l476 0 q14 0 26 -6 q6 -3 11 -7 l1 2 q1 5 8 8 q7 3 15 3 q2 0 5 0.5 q3 0.5 5 1.5 q8 2 19.5 0.5 q11.5 -1.5 17.5 -6.5 l14 -9 q13 -8 19 -21.5 q6 -13.5 6 -28.5 q0 -15 -7.5 -30.5 q-7.5 -15.5 -20.5 -27.5 q-33 -28 -67 -58 q-34 -30 -69.5 -59.5 q-35.5 -29.5 -70.5 -58.5 q-12 -10 -23 -20 q13 -9 25 -17 q11 -8 17 -21 q6 -13 5.5 -27.5 q-0.5 -14.5 -6.5 -29 q-6 -14.5 -18 -25.5 l-17 -15 q-10 -10 -24 -15.5 q-14 -5.5 -28 -7 q-14 -1.5 -27.5 1 q-13.5 2.5 -23.5 9.5 q-21 16 -45.5 33.5 q-24.5 17.5 -50.5 34.5 q-26 17 -53.5 34 q-27.5 17 -53.5 33 q-14 8 -20 21.5 q-6 13.5 -6 29 q0 15.5 7 31.5 q7 16 21 28 l6 5 q15 14 33 17.5 q18 3.5 27 3.5 q14 0 23 -5 q27 -15 58 -32 q15 -8 30 -17 q36 29 71 58 q29 25 57 49 l-397 0 q-14 0 -26 6 q-12 6 -20.5 16 q-8.5 10 -12.5 22.5 q-4 12.5 -2 25.5 ZM80 509 q0 15 9.5 39.5 q9.5 24.5 48.5 41.5 q52 22 104.5 47.5 q52.5 25.5 102.5 55 q50 29.5 97 62 q47 32.5 87 67.5 q19 17 38.5 20.5 q19.5 3.5 27.5 3.5 q17 0 29 -7 l5 -3 q13 -8 19.5 -21 q6.5 -13 6.5 -28 q0 -8 -2 -17 q25 -23 55 -46 q30 -23 64 -45 q34 -22 71 -42 q37 -20 75 -38 q37 -18 37 -56 q0 -34 -30 -64 l0 -1 l-1 -1 q-8 -9 -21 -16 q-13 -7 -26.5 -10.5 q-13.5 -3.5 -26.5 -3 q-13 0.5 -23 5.5 q-38 21 -76 47 q-38 26 -74.5 54.5 q-36.5 28.5 -69.5 59.5 q-29 27 -56 54 q-15 -11 -29 -21 q-55 -40 -111.5 -75 q-56.5 -35 -114.5 -66 q-58 -31 -116 -58 q-12 -5 -25.5 -5.5 q-13.5 -0.5 -26.5 3 q-13 3.5 -23 10.5 q-10 7 -16 17 q-9 18 -9 36 Z" /><glyph glyph-name="uni4EE5" unicode="&#x4ee5;" d="M424 610 q-7 13 -6.5 28.5 q0.5 15.5 7 30.5 q6.5 15 17.5 28 q11 13 25 20 l3 1 q14 7 30 7 q9 0 26 -4 q17 -4 27 -21 q9 -15 17 -30.5 q8 -15.5 16 -31.5 q8 -16 14.5 -31 q6.5 -15 12.5 -30 q4 -10 2.5 -23 q-1.5 -13 -7 -25.5 q-5.5 -12.5 -15 -23.5 q-9.5 -11 -20.5 -17 l-7 -4 q-15 -8 -31.5 -9.5 q-16.5 -1.5 -30.5 3 q-14 4.5 -24.5 14.5 q-10.5 10 -16.5 24 q-8 23 -18 47 q-10 24 -21 47 ZM329 -9 q0 13 9.5 39 q9.5 26 46.5 47 q82 47 143.5 110.5 q61.5 63.5 107.5 145.5 q46 82 80 182.5 q34 100.5 61 221.5 q3 14 12.5 27 q9.5 13 21.5 22.5 q12 9.5 26.5 15 q14.5 5.5 27.5 5.5 l11 -1 q14 0 25.5 -7 q11.5 -7 19 -17.5 q7.5 -10.5 10.5 -23.5 q3 -13 0 -27 q-35 -147 -79 -269 q-44 -122 -102 -220 q-1 -2 -2 -3 q15 -20 31 -40 l36 -46 q18 -23 34 -46 q16 -23 30 -45 q6 -10 6.5 -23.5 q0.5 -13.5 -3.5 -27 q-4 -13.5 -13 -25.5 q-9 -12 -20 -20 l-11 -7 q-14 -9 -30 -12 q-16 -3 -31 -0.5 q-15 2.5 -27 10.5 q-12 8 -19 20 q-12 19 -24.5 40 q-12.5 21 -26.5 42 q-14 21 -28 43 l-2 2 q-18 -19 -36 -37 q-78 -77 -180 -134 q-11 -6 -24.5 -7 q-13.5 -1 -26.5 2 q-13 3 -24 9.5 q-11 6.5 -17 15.5 l0 1 l-1 0 q-12 17 -12 37 ZM15 64 q0 14 11 38.5 q11 24.5 33 51.5 q7 8 11.5 11 q4.5 3 8.5 8.5 q4 5.5 7 15.5 q3 10 7 32 l88 500 q2 13 10.5 26 q8.5 13 21 23 q12.5 10 26.5 16 q14 6 28 6 l15 0 q14 0 25.5 -6 q11.5 -6 20 -16.5 q8.5 -10.5 12 -23 q3.5 -12.5 1.5 -26.5 l-82 -465 l91 43 q17 8 33.5 8.5 q16.5 0.5 30 -5.5 q13.5 -6 22.5 -17.5 q9 -11.5 10 -27.5 q0 -3 0 -6 q0 -18 -15 -42.5 q-15 -24.5 -37 -35.5 q-45 -23 -81.5 -42 q-36.5 -19 -67 -35 q-30.5 -16 -54 -28.5 q-23.5 -12.5 -42.5 -23.5 q-20 -11 -38 -13 q-8 -1 -15 0 q-15 -6 -29 -7 q-16 -1 -28.5 4.5 q-12.5 5.5 -18.5 17.5 q-5 8 -5 19 Z" /><glyph glyph-name="uni4EEA" unicode="&#x4eea;" d="M613 715 q-4 13 -2.5 28 q1.5 15 7.5 29 q6 14 15 25 q9 11 23 17 q12 6 25 6 q10 0 28 -6 q18 -6 27 -26 q8 -20 15.5 -40 q7.5 -20 10.5 -33 q3 -13 3 -18 q0 -15 -11 -36.5 q-11 -21.5 -30 -30.5 q-15 -7 -31 -7 q-16 0 -29.5 6 q-13.5 6 -23.5 17.5 q-10 11.5 -14 26.5 q-3 11 -6.5 21 q-3.5 10 -6.5 21 ZM241 -24 q0 15 12 40 q12 25 49 42 q108 52 191 123 q1 1 3 2 q-11 22 -21 47 q-38 95 -54 210 q-16 115 -19 248 q0 14 6.5 27.5 q6.5 13.5 16.5 25 q10 11.5 22.5 19.5 q12.5 8 26.5 10 q13 2 25.5 -2.5 q12.5 -4.5 22 -12.5 q9.5 -8 15 -20 q5.5 -12 6.5 -25 q1 -107 16.5 -202 q15.5 -95 47.5 -176 q5 -12 10 -25 q12 15 23 29 q63 85 111 182.5 q48 97.5 84 202.5 q5 13 15.5 25 q10.5 12 23.5 20 q13 8 28 12.5 q15 4.5 29 2.5 q13 -2 23 -10.5 q10 -8.5 16.5 -20.5 q6.5 -12 7.5 -26 q1 -14 -4 -28 q-47 -123 -104.5 -236 q-57.5 -113 -133.5 -211 q-24 -30 -49 -58 l5 -5 q52 -65 129 -112 q34 -21 34 -60 q0 -33 -27 -62 q-17 -17 -37.5 -22.5 q-20.5 -5.5 -31.5 -5.5 q-15 0 -26 6 q-95 54 -157 129 l-12 14 q-2 -1 -4 -3 q-99 -81 -228 -140 q-14 -7 -30 -7 q-9 0 -27 4.5 q-18 4.5 -27 20.5 q-7 14 -7 28 ZM33 458 q0 13 6 34 q6 21 23 38 q55 53 106 119 q51 66 94 138 q7 12 19 21.5 q12 9.5 25.5 15.5 q13.5 6 27.5 8 q14 2 25 -2 q14 -4 22.5 -14 q8.5 -10 12 -23.5 q3.5 -13.5 2.5 -28 q-1 -14.5 -9 -27.5 q-41 -67 -87 -133 l-111 -627 q-2 -13 -10.5 -26 q-8.5 -13 -19.5 -23 q-11 -10 -25 -16 q-14 -6 -27 -6 q-13 0 -23.5 6 q-10.5 6 -19 16.5 q-8.5 10.5 -12 23 q-3.5 12.5 -1.5 26.5 l74 419 q-4 -2 -9 -4 q-11 -4 -22 -4 q-4 0 -14 1.5 q-10 1.5 -22 12 q-12 10.5 -18 28.5 q-2 2 -2 4 q0 2 -2 4 q-3 9 -3 19 Z" /><glyph glyph-name="uni4EEC" unicode="&#x4eec;" d="M614 -37 q0 28 24.5 50 q24.5 22 65.5 25 q12 0 17 5 q5 5 7 16 l113 635 l-156 0 q-13 0 -25 5.5 q-12 5.5 -20.5 15 q-8.5 9.5 -12.5 21 q-4 11.5 -2 23.5 q2 12 10 24 q8 12 20 21 q12 9 26 14.5 q14 5.5 27 5.5 l227 0 q14 0 25.5 -5.5 q11.5 -5.5 20.5 -14.5 q9 -9 13 -21 q4 -12 2 -24 q0 -1 -1 -3 l0 -4 l-123 -695 q-9 -51 -25.5 -79 q-16.5 -28 -50.5 -45 q-24 -12 -52.5 -17 q-28.5 -5 -63.5 -7 q-1 0 -3 0 q-22 0 -41.5 15 q-19.5 15 -21.5 32 q0 4 0 7 ZM439 727 q-6 12 -5.5 27 q0.5 15 5 29 q4.5 14 13.5 26 q9 12 21 19 q13 7 28 7 q9 0 27 -4.5 q18 -4.5 28 -24.5 q12 -20 22.5 -40 q10.5 -20 19.5 -40 q4 -10 3.5 -23 q-0.5 -13 -6 -25.5 q-5.5 -12.5 -13.5 -23 q-8 -10.5 -19 -16.5 q-14 -8 -29 -9 q-15 -1 -29 4 q-14 5 -25 15 q-11 10 -17 23 q-5 14 -11 28 q-6 14 -13 28 ZM219 -20 l101 570 q2 14 10.5 27 q8.5 13 20.5 23.5 q12 10.5 26 16.5 q14 6 27 6 q14 0 25.5 -6 q11.5 -6 19.5 -16.5 q8 -10.5 11.5 -23.5 q3.5 -13 1.5 -27 l-101 -570 q-2 -14 -10.5 -27 q-8.5 -13 -20 -23.5 q-11.5 -10.5 -25 -16.5 q-13.5 -6 -27.5 -6 q-13 0 -25 6 q-12 6 -20.5 16.5 q-8.5 10.5 -12 23.5 q-3.5 13 -1.5 27 ZM22 -22 l71 402 q-6 -1 -12 0 q-15 2 -26.5 13.5 q-11.5 11.5 -16.5 30.5 q-2 3 -2 6 q0 3 -1 6 q-2 8 -2 17 q0 10 4 28.5 q4 18.5 17 32.5 q47 56 91 124.5 q44 68.5 81 143.5 q7 13 18.5 24 q11.5 11 25.5 18.5 q14 7.5 28 10 q14 2.5 26 -1.5 q11 -3 20 -12.5 q9 -9.5 13 -22 q4 -12.5 3.5 -26.5 q-0.5 -14 -8.5 -27 q-38 -76 -83 -150 l-109 -616 q-2 -14 -10.5 -27 q-8.5 -13 -19.5 -23.5 q-11 -10.5 -25 -16.5 q-14 -6 -27 -6 q-13 0 -23.5 6 q-10.5 6 -19 16.5 q-8.5 10.5 -12 23 q-3.5 12.5 -1.5 26.5 Z" /><glyph glyph-name="uni4EF6" unicode="&#x4ef6;" d="M290 308 q3 14 11 26.5 q8 12.5 20.5 22.5 q12.5 10 26.5 16 q14 6 27 6 l190 0 l26 146 l-61 0 q-16 0 -29 8 q-3 1 -6 3 q-17 -30 -35 -58 q-8 -14 -21.5 -23.5 q-13.5 -9.5 -27.5 -14 q-14 -4.5 -28 -4 q-14 0.5 -24 6.5 q-22 14 -23 32 q-1 18 -1 21 q0 29 16 55 q25 38 48 82.5 q23 44.5 42 90.5 q5 14 16.5 25.5 q11.5 11.5 25 20 q13.5 8.5 28 12 q14.5 3.5 27.5 0.5 q12 -3 21.5 -11.5 q9.5 -8.5 15 -20.5 q5.5 -12 5.5 -25.5 q0 -13.5 -5 -27.5 l-14 -30 l55 0 l18 104 q2 13 10.5 26 q8.5 13 20 23 q11.5 10 25.5 16 q14 6 27 6 l5 0 q13 0 25 -6 q12 -6 20.5 -16 q8.5 -10 12 -23 q3.5 -13 1.5 -26 l-18 -104 l127 0 q14 0 25 -6 q11 -6 20 -16 q9 -10 13 -22.5 q4 -12.5 1 -26.5 q-2 -13 -10.5 -26 q-8.5 -13 -20.5 -23 q-12 -10 -25.5 -16 q-13.5 -6 -27.5 -6 l-127 0 l-26 -146 l177 0 q14 0 25.5 -6 q11.5 -6 20 -16 q8.5 -10 12.5 -22.5 q4 -12.5 1 -26.5 q-2 -13 -10.5 -26 q-8.5 -13 -20.5 -23 q-12 -10 -25.5 -16 q-13.5 -6 -27.5 -6 l-177 0 l-46 -260 q-2 -13 -10.5 -26 q-8.5 -13 -20 -23 q-11.5 -10 -26 -16 q-14.5 -6 -27.5 -6 l-5 0 q-13 0 -24.5 6 q-11.5 6 -20 16 q-8.5 10 -12 23 q-3.5 13 -1.5 26 l46 260 l-190 0 q-13 0 -25 6 q-12 6 -21 16 q-9 10 -12.5 23 q-3.5 13 -1.5 26 ZM33 458 q0 13 6 34 q6 21 23 38 q55 53 106 119 q51 66 94 138 q7 12 19 21.5 q12 9.5 25.5 15.5 q13.5 6 27.5 8 q14 2 25 -2 q14 -4 22.5 -14 q8.5 -10 12 -23.5 q3.5 -13.5 2.5 -28 q-1 -14.5 -9 -27.5 q-44 -72 -94 -142 l-109 -618 q-2 -13 -10.5 -26 q-8.5 -13 -19.5 -23 q-11 -10 -25 -16 q-14 -6 -27 -6 q-13 0 -23.5 6 q-10.5 6 -19 16.5 q-8.5 10.5 -12 23 q-3.5 12.5 -1.5 26.5 l74 417 l-4 -2 q-11 -4 -22 -4 q-4 0 -14 1.5 q-10 1.5 -22 12 q-12 10.5 -18 28.5 q-2 2 -2 4 q0 2 -2 4 q-3 9 -3 19 Z" /><glyph glyph-name="uni4EF7" unicode="&#x4ef7;" d="M603 -22 l70 394 q2 13 10 26 q8 13 20.5 23 q12.5 10 26.5 16 q14 6 27 6 l7 0 q14 0 25.5 -6 q11.5 -6 20 -16 q8.5 -10 12.5 -23 q4 -13 2 -26 l-70 -394 q-2 -13 -10.5 -26 q-8.5 -13 -20.5 -23 q-12 -10 -25.5 -16 q-13.5 -6 -27.5 -6 l-7 0 q-13 0 -25 6 q-12 6 -21 16 q-9 10 -12.5 23 q-3.5 13 -1.5 26 ZM295 464 q0 16 11.5 42.5 q11.5 26.5 46.5 46.5 q43 27 81 56.5 q38 29.5 69.5 61 q31.5 31.5 57 64.5 q25.5 33 46.5 67 q14 20 38 33.5 q24 13.5 43 13.5 q5 0 10 -1 l8 -1 q16 -3 27 -12 q11 -9 16 -22 q4 -13 3 -27 q13 -10 19 -23 q13 -28 28.5 -54.5 q15.5 -26.5 34.5 -52 q19 -25.5 41 -48.5 q22 -23 47 -43 q27 -22 27 -58 q0 -34 -26 -59 q-10 -9 -23 -15 q-13 -6 -26.5 -8 q-13.5 -2 -27 0.5 q-13.5 2.5 -22.5 10.5 q-30 26 -56 56.5 q-26 30.5 -49 64.5 q-23 34 -42 72 q-6 10 -11 22 q-32 -40 -69 -76 q-43 -42 -92.5 -80 q-49.5 -38 -106.5 -72 q-20 -12 -42 -12 q-8 0 -26.5 4 q-18.5 4 -29.5 24 q-5 12 -5 25 ZM252 -20 q0 10 6.5 34 q6.5 24 31.5 55 q26 30 43.5 59 q17.5 29 28.5 58 q11 29 18 58.5 q7 29.5 13 59.5 l11 64 q2 14 10.5 26.5 q8.5 12.5 20.5 23 q12 10.5 26.5 16.5 q14.5 6 27.5 6 l4 0 q14 0 25 -6 q11 -6 20 -16 q9 -10 12.5 -23 q3.5 -13 1.5 -26 l-12 -67 q-7 -39 -19 -83.5 q-12 -44.5 -33 -90.5 q-21 -46 -51.5 -91.5 q-30.5 -45.5 -72.5 -87.5 q-11 -11 -25.5 -16 q-14.5 -5 -28.5 -5.5 q-14 -0.5 -25.5 4 q-11.5 4.5 -19.5 13.5 q-13 14 -13 35 ZM39 462 q0 12 6 33 q6 21 23 38 q54 53 105.5 119 q51.5 66 93.5 138 q7 12 19.5 21.5 q12.5 9.5 26 15.5 q13.5 6 27.5 8 q14 2 25 -2 q13 -4 22 -14 q9 -10 12.5 -23.5 q3.5 -13.5 2.5 -28 q-1 -14.5 -10 -27.5 q-42 -70 -91 -138 l-110 -624 q-2 -14 -10.5 -26.5 q-8.5 -12.5 -20.5 -23 q-12 -10.5 -26 -16.5 q-14 -6 -28 -6 l-2 0 q-13 0 -24.5 6 q-11.5 6 -20.5 16.5 q-9 10.5 -12.5 23 q-3.5 12.5 -1.5 26.5 l74 417 q-15 -5 -28 -2 q-15 2 -27.5 12.5 q-12.5 10.5 -17.5 28.5 q-2 2 -2 4 q0 2 -2 4 q-3 9 -3 20 Z" /><glyph glyph-name="uni4EFB" unicode="&#x4efb;" d="M290 7 q3 13 11 25.5 q8 12.5 19.5 22 q11.5 9.5 25.5 15.5 q14 6 27 6 l153 0 l0 1 q-4 13 -2 26 l35 200 l-186 0 q-14 0 -25.5 6 q-11.5 6 -20.5 16 q-9 10 -13 22.5 q-4 12.5 -1 25.5 q2 13 10 25.5 q8 12.5 20.5 22.5 q12.5 10 26.5 16 q14 6 28 6 l186 0 l29 164 q2 14 11 27 q3 4 7 9 q-18 -3 -36 -5 q-52 -7 -102 -13 q-4 -1 -9 -1 q-20 0 -40 13 q-20 13 -24 33 q-1 4 -1 8 q0 24 22.5 48 q22.5 24 58.5 29 q49 7 98 15.5 q49 8.5 96 18.5 q47 10 91.5 20.5 q44.5 10.5 83.5 22.5 q9 2 18 2 q10 0 27 -4 q17 -4 25 -18 l9 -13 q9 -14 10 -23.5 q1 -9.5 1 -12.5 q0 -13 -6.5 -26 q-6.5 -13 -20 -24.5 q-13.5 -11.5 -32.5 -16.5 q-48 -12 -99 -22 q-29 -7 -58 -12 q2 -3 5 -5 q8 -11 11.5 -23.5 q3.5 -12.5 1.5 -26.5 l-29 -164 l161 0 q14 0 25.5 -6 q11.5 -6 20 -16 q8.5 -10 12.5 -22.5 q4 -12.5 2 -25.5 q-3 -13 -11 -25.5 q-8 -12.5 -20 -22.5 q-12 -10 -26 -16 q-14 -6 -28 -6 l-161 0 l-35 -200 q-2 -13 -10 -26 l-1 -1 l160 0 q13 0 25 -6 q12 -6 20.5 -15.5 q8.5 -9.5 12.5 -22 q4 -12.5 1 -25.5 q-2 -13 -10 -25.5 q-8 -12.5 -20 -22.5 q-12 -10 -26 -16 q-14 -6 -27 -6 l-448 0 q-13 0 -25 6 q-12 6 -20 16 q-8 10 -12 22.5 q-4 12.5 -2 25.5 ZM33 443 q0 13 7 36 q7 23 25 40 q59 55 115 123.5 q56 68.5 103 143.5 q7 12 19 22 q12 10 26 16 q14 6 28 7.5 q14 1.5 25 -2.5 l7 -2 q13 -4 21.5 -14.5 q8.5 -10.5 12.5 -23.5 q4 -13 2.5 -28 q-1.5 -15 -10.5 -28 q-41 -65 -87 -128 l-111 -626 q-2 -14 -10.5 -26.5 q-8.5 -12.5 -20.5 -23 q-12 -10.5 -25.5 -16.5 q-13.5 -6 -27.5 -6 q-13 0 -25 6 q-12 6 -21 16.5 q-9 10.5 -12.5 23.5 q-3.5 13 -1.5 27 l72 409 q-12 -10 -24 -14 q-12 -4 -23 -4 q-5 0 -14.5 1.5 q-9.5 1.5 -22 12 q-12.5 10.5 -19.5 26.5 q-1 3 -1.5 5.5 q-0.5 2.5 -2.5 5.5 q-4 9 -4 21 Z" /><glyph glyph-name="uni4EFD" unicode="&#x4efd;" d="M242 -23 q0 14 10.5 38.5 q10.5 24.5 44.5 50.5 q54 42 90.5 101.5 q36.5 59.5 59.5 135.5 q5 13 15 26 q7 10 17 18 l-15 0 q-14 0 -26 6 q-12 6 -20.5 15.5 q-8.5 9.5 -12.5 21.5 q-3 8 -3 17 q-9 -7 -20 -10 q-16 -5 -30.5 -3 q-14.5 2 -26.5 10.5 q-12 8.5 -19 22.5 q-5 11 -4.5 26 q0.5 15 5.5 30 q5 15 13.5 29.5 q8.5 14.5 19.5 24.5 q48 45 88 101 q40 56 73 121 q12 26 38.5 40 q26.5 14 46.5 14 q6 0 12 -1 q14 -3 23 -12 q9 -9 14.5 -22 q5.5 -13 5.5 -27 q0 -14 -8 -28 q-44 -88 -100 -167 q-29 -40 -60 -77 q8 2 15 2 l302 0 l-4 8 q-18 34 -30 72.5 q-12 38.5 -19.5 82.5 q-7.5 44 -11.5 95 q0 14 5 27.5 q5 13.5 14.5 25.5 q9.5 12 22 20.5 q12.5 8.5 25.5 10.5 q6 1 11 1 q19 0 38.5 -15.5 q19.5 -15.5 22.5 -41.5 q4 -36 10.5 -67.5 q6.5 -31.5 15.5 -59 q9 -27.5 22 -51 q13 -23.5 30 -44.5 q19 -23 19 -54 q0 -36 -23 -60 q-11 -12 -26.5 -19 q-15.5 -7 -30.5 -8 q-8 -1 -15 0 l0 -1 q-22 -101 -38 -174 q-18 -78 -33.5 -131 q-15.5 -53 -29 -84 q-13.5 -31 -27.5 -46 q-23 -25 -45 -35.5 q-22 -10.5 -49 -15.5 q-11 -2 -26 -3.5 q-15 -1.5 -32 -1.5 q-1 0 -3 0 q-23 0 -42 15.5 q-19 15.5 -21 34.5 q0 3 0 6 q0 28 18.5 50.5 q18.5 22.5 52.5 22.5 q11 0 19 3 q8 3 18 12 q8 9 17.5 34 q9.5 25 22.5 72.5 q13 47.5 29 119.5 l13 65 l-132 0 l2 -2 q7 -12 9 -25.5 q2 -13.5 -3 -27.5 q-40 -120 -98 -207 q-58 -87 -147 -147 q-11 -8 -24.5 -10.5 q-13.5 -2.5 -26.5 -1 q-13 1.5 -23.5 7 q-10.5 5.5 -15.5 13.5 q-9 14 -9 30 ZM29 458 q0 13 6 34 q6 21 23 38 q55 53 106 119 q51 66 94 138 q7 12 19 21.5 q12 9.5 25.5 15.5 q13.5 6 27.5 8 q14 2 25 -2 q14 -4 22.5 -14 q8.5 -10 12 -23.5 q3.5 -13.5 2.5 -28 q-1 -14.5 -9 -27.5 q-40 -66 -86 -131 l-111 -628 q-2 -14 -10.5 -26.5 q-8.5 -12.5 -20.5 -23 q-12 -10.5 -26 -16.5 q-14 -6 -28 -6 q-13 0 -24.5 6 q-11.5 6 -20.5 16.5 q-9 10.5 -12.5 23 q-3.5 12.5 -1.5 26.5 l74 417 l-4 -2 q-11 -4 -22 -4 q-4 0 -14 1.5 q-10 1.5 -22 12 q-12 10.5 -18 28.5 q-2 2 -2 4 q0 2 -2 4 q-3 9 -3 19 Z" /><glyph glyph-name="uni4EFF" unicode="&#x4eff;" d="M630 757 q-1 14 4 28.5 q5 14.5 15 27.5 q10 13 23 22.5 q13 9.5 27 12.5 l11 3 q7 1 13 1 l29 -11 q30 -11 34 -34 l4 -24 q2 -13 -2.5 -26.5 q-4.5 -13.5 -13.5 -25.5 q-9 -12 -21.5 -21.5 q-12.5 -9.5 -25.5 -12.5 l-12 -3 q-14 -4 -28.5 -1 q-14.5 3 -26.5 11 q-12 8 -19.5 20 q-7.5 12 -9.5 27 l0 3 q0 1 -1 3 ZM225 -12 q0 11 7 34.5 q7 23.5 37 51.5 q49 46 82.5 99.5 q33.5 53.5 57 112.5 q23.5 59 39.5 123.5 q16 64.5 29 131.5 l0 2 l-68 0 q-13 0 -25 6 q-12 6 -20.5 16 q-8.5 10 -12 23 q-3.5 13 -1.5 26 q3 14 11 26.5 q8 12.5 20 22.5 q12 10 26 16 q14 6 27 6 l510 0 q13 0 25 -6 q12 -6 20 -16 q8 -10 12 -22.5 q4 -12.5 1 -26.5 q-2 -13 -10.5 -26 q-8.5 -13 -20 -23 q-11.5 -10 -25.5 -16 q-14 -6 -27 -6 l-284 0 q0 -3 -1 -7 q-9 -42 -20 -83 q3 1 7 3 q14 6 27 6 l210 0 q14 0 26 -6 q10 -6 19 -14 q7 -6 12 -12 q5 -9 4 -17 q2 -9 0 -18 q-2 -11 -8 -21 q-19 -87 -35 -152 q-19 -75 -35 -126 q-16 -51 -30.5 -81 q-14.5 -30 -29.5 -45 q-27 -26 -52 -36 q-25 -10 -57 -14 q-16 -3 -36.5 -4 q-20.5 -1 -44.5 -1 q-1 0 -3 0 q-23 0 -42 15.5 q-19 15.5 -20 33.5 q0 4 0 7 q0 29 24.5 51 q24.5 22 69.5 22 l2 0 q13 0 22.5 3 q9.5 3 19.5 12 q11 9 22 33.5 q11 24.5 24.5 70 q13.5 45.5 29.5 113.5 q6 24 12 51 l-127 0 q-13 0 -25 6 q-9 5 -16 11 q-21 -67 -50 -129 q-34 -74 -82 -140.5 q-48 -66.5 -116 -122.5 q-12 -10 -27 -14.5 q-15 -4.5 -29 -4 q-14 0.5 -25.5 5.5 q-11.5 5 -17.5 14 q-12 15 -12 35 ZM34 464 q0 14 6.5 36 q6.5 22 23.5 39 q54 53 104.5 118 q50.5 65 93.5 136 q7 12 19 22 q12 10 27 16 q15 6 29 8 q14 2 27 -2 q13 -4 21.5 -14.5 q8.5 -10.5 12.5 -23.5 q4 -13 2 -28 q-2 -15 -10 -28 q-44 -72 -94 -143 l-110 -622 q-2 -14 -10.5 -26.5 q-8.5 -12.5 -20 -23 q-11.5 -10.5 -25.5 -16.5 q-14 -6 -27 -6 q-13 0 -24.5 6 q-11.5 6 -20 16.5 q-8.5 10.5 -12 23 q-3.5 12.5 -1.5 26.5 l74 420 l-1 0 q-12 -4 -23 -4 q-4 0 -13.5 1 q-9.5 1 -21.5 11.5 q-12 10.5 -18 27.5 q-2 3 -2.5 6 q-0.5 3 -2.5 5 q-3 9 -3 19 Z" /><glyph glyph-name="uni4F01" unicode="&#x4f01;" d="M67 498 q0 15 11.5 39.5 q11.5 24.5 49.5 41.5 q51 21 101 47 q50 26 97.5 55.5 q47.5 29.5 91.5 63 q44 33.5 83 70.5 q18 18 39 23.5 q21 5.5 32 5.5 q15 0 26 -7 q12 -7 19.5 -19.5 q7.5 -12.5 8.5 -26.5 q1 -11 -2 -21 q21 -5 33 -17 q59 -65 123.5 -106.5 q64.5 -41.5 129.5 -69.5 q35 -15 38.5 -34 q3.5 -19 3.5 -25 q0 -25 -20 -49 q-8 -9 -21 -16.5 q-13 -7.5 -26.5 -11.5 q-13.5 -4 -27.5 -4 q-14 0 -25 5 q-72 35 -142.5 86.5 q-70.5 51.5 -139.5 134.5 q-6 7 -9 15 q-19 -16 -39 -32 q-52 -41 -107.5 -77.5 q-55.5 -36.5 -113 -68 q-57.5 -31.5 -115.5 -58.5 q-12 -5 -25.5 -5.5 q-13.5 -0.5 -26 3 q-12.5 3.5 -22 10.5 q-9.5 7 -15.5 16 q-10 15 -10 32 ZM-9 -3 q3 12 11 23.5 q8 11.5 20 21 q12 9.5 26 15 q14 5.5 27 5.5 l27 0 q0 2 1 5 l45 259 q3 14 11.5 27 q8.5 13 20.5 23.5 q12 10.5 26 16.5 q14 6 27 6 q13 0 25 -6 q12 -6 20.5 -16.5 q8.5 -10.5 12 -23.5 q3.5 -13 0.5 -27 l-45 -259 q-1 -3 -1 -5 l114 0 l75 424 q2 14 10.5 26.5 q8.5 12.5 20.5 23 q12 10.5 26 16.5 q14 6 28 6 l9 0 q14 0 26 -6 q12 -6 21 -16.5 q9 -10.5 12.5 -23 q3.5 -12.5 1.5 -26.5 l-21 -122 l184 0 q13 0 25 -5.5 q12 -5.5 20.5 -14.5 q8.5 -9 12.5 -20.5 q4 -11.5 2 -23.5 q-2 -12 -10 -24 q-8 -12 -20 -21 q-12 -9 -26 -14.5 q-14 -5.5 -27 -5.5 l-184 0 l-31 -173 l273 0 q14 0 25.5 -5.5 q11.5 -5.5 20.5 -15 q9 -9.5 13 -21 q4 -11.5 1 -23.5 q-2 -12 -10 -24 q-8 -12 -20 -21.5 q-12 -9.5 -25.5 -15 q-13.5 -5.5 -27.5 -5.5 l-712 0 q-13 0 -25 5.5 q-12 5.5 -21 15 q-9 9.5 -13 21.5 q-4 12 -2 24 Z" /><glyph glyph-name="uni4F11" unicode="&#x4f11;" d="M256 111 q0 9 3 22 q3 13 11.5 28.5 q8.5 15.5 21.5 27.5 q35 32 68.5 69 q33.5 37 64.5 77 q31 40 60 82 q20 30 38 60 l-118 0 q-13 0 -25 6 q-12 6 -20 16 q-8 10 -12 23 q-4 13 -1 26 q2 13 10 25.5 q8 12.5 20 22.5 q12 10 26 16 q14 6 27 6 l169 0 l26 146 q2 14 10.5 27 q8.5 13 20.5 23.5 q12 10.5 26.5 16.5 q14.5 6 27.5 6 q14 0 25 -6 q11 -6 20 -16.5 q9 -10.5 12.5 -23.5 q3.5 -13 1.5 -27 l-26 -146 l176 0 q13 0 25 -6 q12 -6 20 -16 q8 -10 12 -22.5 q4 -12.5 2 -25.5 q-3 -13 -11 -26 q-8 -13 -20 -23 q-12 -10 -26 -16 q-14 -6 -27 -6 l-119 0 q6 -27 14 -54 q11 -42 26 -81 q15 -39 33 -75 q18 -36 39 -68 q13 -20 13 -45 q0 -7 -3 -28 q-3 -21 -27 -43 q-12 -11 -27.5 -17 q-15.5 -6 -30.5 -5.5 q-15 0.5 -28.5 7.5 q-13.5 7 -20.5 20 q-23 39 -41 84 q-18 45 -31 94 l-6 22 l-55 -310 q-2 -14 -10.5 -27 q-8.5 -13 -21 -23.5 q-12.5 -10.5 -26 -16.5 q-13.5 -6 -27.5 -6 q-13 0 -25 6 q-12 6 -20.5 16.5 q-8.5 10.5 -12 23.5 q-3.5 13 -1.5 27 l53 297 l-16 -22 q-36 -50 -73.5 -95 q-37.5 -45 -77.5 -84 q-12 -12 -27 -17.5 q-15 -5.5 -29.5 -5.5 q-14.5 0 -27.5 6 q-13 6 -21 16 q-8 11 -9.5 21.5 q-1.5 10.5 -1.5 16.5 ZM29 443 q0 13 7 36 q7 23 26 40 q59 55 115.5 123.5 q56.5 68.5 104.5 143.5 q15 24 40 35 q25 11 42 11 q10 0 18 -3 l7 -2 q13 -4 21.5 -14.5 q8.5 -10.5 12.5 -24 q4 -13.5 1.5 -28.5 q-2.5 -15 -10.5 -28 q-44 -69 -94 -136 l-109 -617 q-2 -14 -10.5 -26.5 q-8.5 -12.5 -20.5 -23 q-12 -10.5 -25.5 -16.5 q-13.5 -6 -27.5 -6 q-13 0 -25 6 q-12 6 -21 16.5 q-9 10.5 -12.5 23.5 q-3.5 13 -1.5 27 l72 406 q-11 -9 -24 -13 q-11 -4 -22 -4 q-4 0 -14 1.5 q-10 1.5 -22.5 11.5 q-12.5 10 -18.5 26 q-1 4 -2 7 q-1 3 -3 7 q-4 9 -4 21 Z" /><glyph glyph-name="uni4F17" unicode="&#x4f17;" d="M339 -11 q0 7 4 28.5 q4 21.5 34 50.5 q66 64 114.5 151 q48.5 87 83.5 192 q5 13 15 25 q10 12 22.5 21 q12.5 9 27 14 q14.5 5 27.5 3 l3 0 q13 -1 24 -9 q11 -8 18 -19 q7 -11 8.5 -24.5 q1.5 -13.5 -3.5 -27.5 q-16 -45 -33 -87 q7 -4 12 -10 q9 -11 14 -25 q7 -22 15.5 -44 q8.5 -22 20.5 -43 q12 -21 26.5 -40 q14.5 -19 31.5 -36 q27 -26 27 -65 q0 -35 -26 -62 q-9 -11 -23 -18 q-14 -7 -28 -9.5 q-14 -2.5 -27.5 0 q-13.5 2.5 -21.5 11.5 q-26 27 -47 59 q-21 32 -36 67 q-11 24 -20 49 q-32 -54 -68 -100 q-38 -48 -81 -87 q-10 -9 -22.5 -14 q-12.5 -5 -26 -6 q-13.5 -1 -25.5 2 q-12 3 -20 10 q-20 17 -20 43 ZM3 -3 q0 5 1.5 16 q1.5 11 9.5 28.5 q8 17.5 22 32.5 q59 65 102.5 151 q43.5 86 75.5 188 q1 3 2 5 q-11 -5 -21 -10 q-13 -6 -27 -6.5 q-14 -0.5 -27 4 q-13 4.5 -23.5 12.5 q-10.5 8 -16.5 18 q-9 17 -9 35 q0 15 10.5 40.5 q10.5 25.5 49.5 42.5 q100 44 189 107 q89 63 158 150 q18 20 41.5 28.5 q23.5 8.5 37.5 8.5 q12 0 21 -4 l8 -4 q13 -6 20.5 -17 q7.5 -11 10.5 -24.5 q3 -13.5 0 -28.5 q-1 -5 -3 -10 q11 -7 17 -17 q19 -29 43 -56 q24 -27 53.5 -51.5 q29.5 -24.5 63.5 -45.5 q34 -21 72 -38 q36 -16 39 -35.5 q3 -19.5 3 -25.5 q0 -28 -24 -55 q-16 -17 -37 -23.5 q-21 -6.5 -34 -6.5 q-12 0 -21 4 q-46 22 -86 50 q-40 28 -74.5 61.5 q-34.5 33.5 -63.5 72.5 q-21 29 -40 60 q-56 -58 -118 -105 q-53 -39 -109 -73 q7 -3 13 -7 q10 -8 17 -19 q7 -11 9 -25 q2 -14 -2 -28 q-13 -41 -28 -79 q16 -3 26 -13 q10 -10 19.5 -20.5 q9.5 -10.5 18.5 -21.5 q9 -11 18 -21.5 q9 -10.5 17 -20.5 q7 -8 8.5 -19.5 q1.5 -11.5 -1.5 -24 q-3 -12.5 -8.5 -24 q-5.5 -11.5 -14.5 -19.5 q-13 -12 -27.5 -16.5 q-14.5 -4.5 -27.5 -4.5 q-3 0 -12 0.5 q-9 0.5 -23 7.5 q-14 7 -23 20 q-5 8 -10.5 15 q-5.5 7 -11.5 15 q-4 4 -7 9 l-14 -26 q-58 -111 -135 -191 q-9 -10 -22.5 -15.5 q-13.5 -5.5 -27.5 -7 q-14 -1.5 -26.5 1.5 q-12.5 3 -20.5 10 q-12 10 -16 22 q-4 12 -4 23 Z" /><glyph glyph-name="uni4F18" unicode="&#x4f18;" d="M794 705 q-8 12 -9.5 26.5 q-1.5 14.5 1.5 28.5 q3 14 11 27 q8 13 20 20 q15 9 33 9 q5 0 21 -2 q16 -2 29 -19 q10 -13 18.5 -25.5 q8.5 -12.5 17.5 -24.5 q9 -13 9 -29 q0 -9 -5.5 -28 q-5.5 -19 -27.5 -33 q-12 -8 -26.5 -10 q-14.5 -2 -28.5 1.5 q-14 3.5 -26 12 q-12 8.5 -20 20.5 q-4 6 -8.5 12.5 q-4.5 6.5 -8.5 13.5 ZM547 23 q0 32 9 78 l47 270 q3 14 11 26.5 q8 12.5 20 23 q12 10.5 26 16.5 q14 6 27 6 q14 0 25.5 -6 q11.5 -6 19.5 -16.5 q8 -10.5 12 -23 q4 -12.5 1 -26.5 l-47 -270 q-3 -19 -3 -28 q0 -5 1.5 -9.5 q1.5 -4.5 15.5 -4.5 l44 0 q5 0 8.5 1.5 q3.5 1.5 7.5 6 q4 4.5 7 11.5 q3 7 6 19 q14 44 37.5 61 q23.5 17 42.5 17 q12 0 23 -5 q16 -6 22.5 -23.5 q6.5 -17.5 6.5 -29.5 q0 -9 -3 -18 q-14 -49 -28.5 -82 q-14.5 -33 -33.5 -53 q-19 -20 -44 -28.5 q-25 -8.5 -61 -8.5 l-83 0 q-42 0 -67.5 9 q-25.5 9 -37.5 30 q-12 21 -12 57 ZM213 -6 q0 11 7 35.5 q7 24.5 37 50.5 q70 60 116 133.5 q46 73.5 77 160.5 q20 57 36 119 l-109 0 q-13 0 -25 6 q-12 6 -21 15.5 q-9 9.5 -12.5 22 q-3.5 12.5 -1.5 25.5 q2 13 10.5 25 q8.5 12 20.5 21.5 q12 9.5 26 15.5 q14 6 27 6 l115 0 q13 67 25 138 q3 14 11 26.5 q8 12.5 20.5 23 q12.5 10.5 26.5 16.5 q14 6 28 6 q14 0 25.5 -6 q11.5 -6 20 -16.5 q8.5 -10.5 12.5 -23.5 q4 -13 1 -27 q-13 -70 -27 -137 l260 0 q14 0 25.5 -6 q11.5 -6 20.5 -15.5 q9 -9.5 12.5 -21.5 q3.5 -12 1.5 -25 q-2 -13 -10.5 -25.5 q-8.5 -12.5 -20.5 -22 q-12 -9.5 -25.5 -15.5 q-13.5 -6 -27.5 -6 l-266 0 q-25 -100 -60 -190 q-40 -104 -98.5 -192.5 q-58.5 -88.5 -145.5 -159.5 q-11 -10 -26.5 -14 q-15.5 -4 -29 -2.5 q-13.5 1.5 -25.5 7.5 q-12 6 -19 16 q-12 16 -12 36 ZM37 458 q0 13 6 34 q6 21 22 38 q54 53 104 118.5 q50 65.5 92 136.5 q8 12 20 22.5 q12 10.5 25.5 16.5 q13.5 6 27.5 8 q14 2 25 -2 q14 -4 22.5 -14 q8.5 -10 12.5 -23 q4 -13 2.5 -27.5 q-1.5 -14.5 -9.5 -27.5 q-44 -74 -94 -145 l-109 -616 q-2 -13 -10.5 -26 q-8.5 -13 -19.5 -23 q-11 -10 -25 -16 q-14 -6 -27 -6 q-13 0 -23.5 6 q-10.5 6 -19 16.5 q-8.5 10.5 -12 23 q-3.5 12.5 -1.5 26.5 l74 416 q-13 -4 -24 -4 q-4 0 -13 1 q-9 1 -21 11.5 q-12 10.5 -18 28.5 q-2 2 -2 4 q0 2 -2 4 q-3 9 -3 19 Z" /><glyph glyph-name="uni4F19" unicode="&#x4f19;" d="M764.5 388.5 q-4.5 12.5 -4.5 27.5 q0 15 5 29 q9 18 16.5 36.5 q7.5 18.5 15.5 37.5 q8 19 15.5 38.5 q7.5 19.5 13.5 38.5 q6 15 16.5 27.5 q10.5 12.5 25 21 q14.5 8.5 29.5 12 q15 3.5 30 0.5 l9 -2 q14 -3 24 -12.5 q10 -9.5 15 -22.5 q5 -13 5 -27 q0 -14 -6 -28 q-22 -46 -43 -89 q-21 -43 -40 -81 q-6 -11 -17.5 -20.5 q-11.5 -9.5 -24 -15.5 q-12.5 -6 -25.5 -7.5 q-13 -1.5 -24 1.5 q-12 3 -21.5 13 q-9.5 10 -14 22.5 ZM344.5 392.5 q-3.5 13.5 -3 29 q0.5 15.5 6.5 28.5 q15 34 29 72.5 q14 38.5 26 77.5 q4 14 14 27 q10 13 23.5 22 q13.5 9 28.5 14 q15 5 29 3 q12 -2 22 -9 q10 -7 16.5 -17.5 q6.5 -10.5 9.5 -23 q3 -12.5 -1 -24.5 q-14 -51 -30.5 -102 q-16.5 -51 -36.5 -96 q-5 -13 -16.5 -23.5 q-11.5 -10.5 -25.5 -16.5 q-14 -6 -28 -7.5 q-14 -1.5 -25 3.5 l-7 2 q-12 5 -20 16 q-8 11 -11.5 24.5 ZM263 -8 q0 14 9.5 39.5 q9.5 25.5 44.5 48.5 q79 53 128.5 120.5 q49.5 67.5 81.5 152 q32 84.5 53 187.5 q21 103 43 227 q3 14 11 26.5 q8 12.5 20.5 23 q12.5 10.5 26.5 16.5 q14 6 27 6 l14 0 q14 0 25.5 -6 q11.5 -6 20 -16.5 q8.5 -10.5 12.5 -23.5 q4 -13 1 -27 q-26 -144 -54 -267 q-6 -25 -12 -48 q5 -11 4 -23 q1 -54 6.5 -102.5 q5.5 -48.5 19 -91 q13.5 -42.5 35 -77.5 q21.5 -35 53.5 -62 q28 -24 29.5 -43.5 q1.5 -19.5 1.5 -22.5 q0 -33 -26 -61 q-9 -11 -22 -18.5 q-13 -7.5 -27 -11 q-14 -3.5 -28 -2.5 q-14 1 -24 9 q-47 35 -77 82 q-30 47 -47 105 q-6 19 -11 40 q-28 -46 -61 -87 q-68 -83 -172 -146 q-13 -8 -27.5 -9.5 q-14.5 -1.5 -28 1.5 q-13.5 3 -24 10 q-10.5 7 -16.5 17 q-10 16 -10 34 ZM32 461 q0 14 7 36.5 q7 22.5 25 39.5 q57 52 111 118 q54 66 100 138 q8 12 20 21.5 q12 9.5 25.5 15.5 q13.5 6 28 7.5 q14.5 1.5 25.5 -2.5 l2 0 q14 -4 22.5 -14.5 q8.5 -10.5 12 -24 q3.5 -13.5 1.5 -28.5 q-2 -15 -11 -28 q-35 -55 -74 -110 l-115 -650 q-2 -14 -10.5 -27 q-8.5 -13 -20 -23.5 q-11.5 -10.5 -25.5 -16.5 q-14 -6 -27 -6 l-10 0 q-13 0 -25 6 q-12 6 -20.5 16.5 q-8.5 10.5 -12 23 q-3.5 12.5 -1.5 26.5 l75 426 q-9 -7 -20 -11 q-13 -4 -24 -4 q-5 0 -14.5 1.5 q-9.5 1.5 -21 12 q-11.5 10.5 -16.5 27.5 q-1 3 -2 6.5 q-1 3.5 -3 6.5 q-2 8 -2 17 Z" /><glyph glyph-name="uni4F1A" unicode="&#x4f1a;" d="M386 558 l278 0 l-1 1 q-38 29 -73 59 q-28 24 -51 48 q-61 -49 -128 -92 q-13 -8 -25 -16 ZM314 91 l290 14 q-1 0 -1 1 q-10 14 -11 24 q-1 10 -1 14 q0 12 4 25.5 q4 13.5 16 27 q12 13.5 29 21.5 q5 3 11 4 l-203 0 q-2 -8 -5 -15 q-7 -14 -19 -25 q-53 -47 -110 -91 ZM115 102 l1 1 l9 6 q-4 -3 -7 -6 q3 3 15 12 q13 8 32 23 q19 15 43 35.5 q24 20.5 52 46.5 l2 2 l-144 0 q-13 0 -25 6 q-12 6 -20.5 16 q-8.5 10 -12.5 23 q-4 13 -1 26 q2 13 10 25.5 q8 12.5 20.5 22.5 q12.5 10 26.5 16 q14 6 27 6 l689 0 q14 0 25.5 -6 q11.5 -6 20 -16 q8.5 -10 12.5 -22.5 q4 -12.5 2 -25.5 q-3 -13 -11 -26 q-8 -13 -20.5 -23 q-12.5 -10 -26 -16 q-13.5 -6 -27.5 -6 l-122 0 q19 -4 28 -14 q16 -19 32.5 -39.5 q16.5 -20.5 32 -41.5 q15.5 -21 29.5 -42.5 q14 -21.5 26 -41.5 q6 -10 5.5 -24 q-0.5 -14 -6.5 -27.5 q-6 -13.5 -15.5 -25.5 q-9.5 -12 -22.5 -19 l-5 -2 q-13 -8 -28 -9 q-15 -1 -29.5 2.5 q-14.5 3.5 -26 11.5 q-11.5 8 -17.5 20 q-3 6 -6 11 q-12 -4 -24 -5 q-105 -7 -184.5 -12.5 q-79.5 -5.5 -139 -9.5 q-59.5 -4 -100.5 -7.5 q-41 -3.5 -71 -6.5 q-6 -1 -12 -1 q-12 0 -25.5 3.5 q-13.5 3.5 -25.5 11.5 q-6 4 -10 8 l0 1 q-14 3 -23 12 q-9 9 -11 24 q-2 13 3 28 q5 15 15.5 30 q10.5 15 23.5 29 q10 9 20 17 l-1 0 l-2 -1 ZM81 507 q0 16 11.5 42.5 q11.5 26.5 51.5 43.5 q105 45 203 103.5 q98 58.5 173 124.5 q16 15 35.5 19 q19.5 4 28.5 4 q15 0 27 -6 l2 -1 q12 -7 19.5 -19.5 q7.5 -12.5 8.5 -27.5 q0 -14 -6 -29 q23 -20 51 -40 q31 -23 66.5 -45.5 q35.5 -22.5 74.5 -43 q39 -20.5 79 -38.5 q35 -15 37 -34 q2 -19 2 -22 q0 -30 -26 -59 q-17 -17 -38 -23 q-21 -6 -31 -6 q-13 0 -23 5 q-42 22 -84 49 q-1 0 -3 1 q1 -6 0 -13 q-3 -13 -11 -25 q-8 -12 -20 -21.5 q-12 -9.5 -25.5 -15 q-13.5 -5.5 -27.5 -5.5 l-319 0 q-14 0 -26 5.5 q-12 5.5 -21 15 q-9 9.5 -13 21.5 q-4 12 -1 25 q0 2 1 3 q-48 -25 -97 -47 q-12 -5 -25.5 -5.5 q-13.5 -0.5 -26 3.5 q-12.5 4 -22.5 11 q-10 7 -16 16 q-9 16 -9 34 Z" /><glyph glyph-name="uni4F1F" unicode="&#x4f1f;" d="M287 286 q3 12 11 24 q8 12 20 21.5 q12 9.5 26 15.5 q14 6 27 6 l169 0 l10 59 l-112 0 q-13 0 -25 6 q-12 6 -21 15.5 q-9 9.5 -13 21.5 q-4 12 -2 24 q3 13 11 25 q8 12 20 21.5 q12 9.5 26 15 q14 5.5 27 5.5 l113 0 l10 55 l-138 0 q-13 0 -25 6 q-12 6 -21 15.5 q-9 9.5 -12.5 21.5 q-3.5 12 -1.5 24 q2 13 10 25 q8 12 20.5 21.5 q12.5 9.5 26.5 15 q14 5.5 27 5.5 l137 0 l9 49 q3 14 11 26.5 q8 12.5 20 23 q12 10.5 25.5 16.5 q13.5 6 26.5 6 q13 0 24.5 -6 q11.5 -6 19 -16.5 q7.5 -10.5 11.5 -23 q4 -12.5 1 -26.5 l-9 -49 l185 0 q14 0 25.5 -5.5 q11.5 -5.5 20 -15 q8.5 -9.5 12.5 -21.5 q4 -12 2 -25 q-2 -12 -10.5 -24 q-8.5 -12 -20.5 -21.5 q-12 -9.5 -25.5 -15.5 q-13.5 -6 -27.5 -6 l-184 0 l-10 -55 l145 0 q14 0 25.5 -5.5 q11.5 -5.5 20.5 -15 q9 -9.5 13 -21.5 q4 -12 1 -25 q-2 -12 -10 -24 q-8 -12 -20 -21.5 q-12 -9.5 -25.5 -15.5 q-13.5 -6 -27.5 -6 l-146 0 l-10 -59 l206 0 q12 0 22 -5 q12 -3 21 -8 q10 -6 15.5 -14 q5.5 -8 3.5 -16 l-1 -7 q1 -8 -1 -17 q-2 -12 -9 -24 q-11 -42 -21 -76 q-14 -48 -26 -82 q-12 -34 -23 -55.5 q-11 -21.5 -23 -33.5 q-18 -18 -34.5 -26 q-16.5 -8 -35.5 -12 q-5 -2 -12 -2.5 q-7 -0.5 -15 -1.5 q-12 -1 -23.5 2.5 q-11.5 3.5 -20 10.5 q-8.5 7 -13.5 15.5 q-5 8.5 -6 17.5 q0 30 9 52 q9 22 29 22 q8 0 14.5 2.5 q6.5 2.5 14.5 9.5 q6 6 13 21 q7 15 16 42 q7 21 15 50 l-139 0 l-42 -240 q-2 -14 -10.5 -26.5 q-8.5 -12.5 -19.5 -23 q-11 -10.5 -25 -16.5 q-14 -6 -27 -6 q-13 0 -24 6 q-11 6 -19.5 16.5 q-8.5 10.5 -12 23 q-3.5 12.5 -1.5 26.5 l42 240 l-169 0 q-13 0 -24.5 6 q-11.5 6 -20.5 15.5 q-9 9.5 -13 21.5 q-4 12 -2 25 ZM37 458 q0 13 6 34 q6 21 22 38 q54 53 104 118.5 q50 65.5 92 136.5 q8 12 20 22.5 q12 10.5 25.5 16.5 q13.5 6 27.5 8 q14 2 25 -2 q14 -4 22.5 -14 q8.5 -10 12.5 -23 q4 -13 2.5 -27.5 q-1.5 -14.5 -9.5 -27.5 q-38 -64 -81 -126 l-112 -635 q-2 -13 -10.5 -26 q-8.5 -13 -19.5 -23 q-11 -10 -25 -16 q-14 -6 -27 -6 q-13 0 -23.5 6 q-10.5 6 -19 16.5 q-8.5 10.5 -12 23 q-3.5 12.5 -1.5 26.5 l75 421 q-6 -3 -11 -5 q-13 -4 -24 -4 q-4 0 -13 1 q-9 1 -21 11.5 q-12 10.5 -18 28.5 q-2 2 -2 4 q0 2 -2 4 q-3 9 -3 19 Z" /><glyph glyph-name="uni4F20" unicode="&#x4f20;" d="M303 502 q2 13 10 25 q8 12 19.5 21.5 q11.5 9.5 25.5 15 q14 5.5 27 5.5 l106 0 q12 27 23 54 l-59 0 q-14 0 -26 5.5 q-12 5.5 -21 15 q-9 9.5 -13 21.5 q-4 12 -2 24 q3 12 11 24 q8 12 20 21.5 q12 9.5 26 15 q14 5.5 28 5.5 l92 0 q5 11 9 22 q5 12 15 23 q10 11 23 18.5 q13 7.5 26.5 12 q13.5 4.5 25.5 2.5 q15 -2 26 -10.5 q11 -8.5 17 -21 q6 -12.5 7 -26.5 q1 -10 -2 -20 l178 0 q14 0 26 -5.5 q12 -5.5 21 -15 q9 -9.5 13 -21.5 q4 -12 1 -24 q-2 -12 -10 -24 q-8 -12 -20 -21.5 q-12 -9.5 -26 -15 q-14 -5.5 -28 -5.5 l-210 0 q-11 -27 -23 -54 l280 0 q13 0 25 -5.5 q12 -5.5 20.5 -15 q8.5 -9.5 12.5 -21.5 q4 -12 2 -25 q-3 -12 -11 -24 q-8 -12 -19.5 -21.5 q-11.5 -9.5 -25.5 -15.5 q-14 -6 -27 -6 l-316 0 q-10 -24 -20 -47 l-8 -18 l221 0 q12 0 24 -5 q1 1 4 2 q6 3 13 3 q2 0 4.5 0.5 q2.5 0.5 4.5 0.5 q8 2 20 -0.5 q12 -2.5 19 -7.5 l7 -5 q12 -9 17.5 -22.5 q5.5 -13.5 4.5 -28.5 q-1 -15 -7.5 -30 q-6.5 -15 -19.5 -26 q-28 -26 -58.5 -52.5 q-30.5 -26.5 -61 -53.5 q-30.5 -27 -61.5 -53 q-7 -7 -14 -13 q15 -11 28 -23 q9 -8 13.5 -21 q4.5 -13 2.5 -27 q-2 -14 -8.5 -28 q-6.5 -14 -18.5 -24 q-11 -11 -26 -16.5 q-15 -5.5 -30 -6 q-15 -0.5 -28 3.5 q-13 4 -23 13 q-14 13 -29.5 27 q-15.5 14 -32.5 27.5 q-17 13.5 -34.5 27.5 q-17.5 14 -35.5 27 q-13 10 -18.5 24 q-5.5 14 -4.5 29.5 q1 15.5 9 30 q8 14.5 22 25.5 q15 11 29 12 q14 1 18 1 q17 0 28 -6 q18 -10 35 -22 q25 21 50 43 q23 20 45 39 l-134 0 q-13 0 -24 6 q-10 5 -17 12 l-4 -2 q-24 -16 -44 -16 l-8 0 q-18 0 -31 7.5 q-13 7.5 -20 21 q-7 13.5 -7 30.5 q0 15 8 31 q24 50 50 106 l2 4 l-69 0 q-13 0 -25 6 q-12 6 -20.5 15.5 q-8.5 9.5 -12.5 21.5 q-4 12 -1 24 ZM31 458 q0 13 6 34 q6 21 23 38 q55 53 106 119 q51 66 94 138 q7 12 19 21.5 q12 9.5 25.5 15.5 q13.5 6 27.5 8 q14 2 25 -2 q14 -4 22.5 -14 q8.5 -10 12 -23.5 q3.5 -13.5 2.5 -28 q-1 -14.5 -9 -27.5 q-42 -70 -90 -137 l-110 -622 q-2 -14 -10.5 -26.5 q-8.5 -12.5 -20 -23 q-11.5 -10.5 -25.5 -16.5 q-14 -6 -27 -6 q-13 0 -24.5 6 q-11.5 6 -20 16.5 q-8.5 10.5 -12 23 q-3.5 12.5 -1.5 26.5 l74 417 l-4 -2 q-11 -4 -22 -4 q-4 0 -14 1.5 q-10 1.5 -22 12 q-12 10.5 -18 28.5 q-2 2 -2 4 q0 2 -2 4 q-3 9 -3 19 Z" /><glyph glyph-name="uni4F24" unicode="&#x4f24;" d="M348.5 527.5 q-3.5 14.5 -1.5 30.5 q2 16 10 33 q8 17 21 31 q32 35 59.5 76.5 q27.5 41.5 52.5 86.5 q7 12 18 23 q11 11 24.5 18.5 q13.5 7.5 28 10.5 q14.5 3 26.5 0 q13 -3 23 -12 q10 -9 14.5 -22 q4.5 -13 4 -27 q-0.5 -14 -7.5 -28 q-8 -15 -16 -29 l307 0 q14 0 25.5 -6 q11.5 -6 20 -15.5 q8.5 -9.5 12.5 -21.5 q4 -12 2 -25 q-3 -13 -11 -25.5 q-8 -12.5 -20 -22 q-12 -9.5 -25.5 -15.5 q-13.5 -6 -27.5 -6 l-343 0 q-13 0 -25 6 l-1 0 q-28 -37 -57 -69 q-10 -11 -24 -17.5 q-14 -6.5 -27.5 -8 q-13.5 -1.5 -26 1 q-12.5 2.5 -20.5 9.5 q-12 9 -15.5 23.5 ZM254 -24 q0 14 10.5 38.5 q10.5 24.5 43.5 49.5 q54 40 90 87.5 q36 47.5 61 101.5 q12 26 22 54 l-89 0 q-13 0 -25 5.5 q-12 5.5 -21 15 q-9 9.5 -12.5 21.5 q-3.5 12 -1.5 25 q2 12 10 24 q8 12 20.5 21.5 q12.5 9.5 26.5 15 q14 5.5 27 5.5 l104 0 l12 52 q2 13 10.5 25.5 q8.5 12.5 20.5 22 q12 9.5 26 15.5 q14 6 27 6 q14 0 26.5 -6.5 q12.5 -6.5 20.5 -17 q8 -10.5 11.5 -23.5 q3.5 -13 0.5 -27 q-5 -24 -11 -47 l193 0 q14 0 26 -5 q5 -3 9 -6 q4 -2 7 -4 q10 -7 15.5 -16 q5.5 -9 3.5 -18 l-1 -4 q1 -6 0 -13 q-1 -8 -5 -16 q-18 -88 -31 -152 q-16 -72 -30 -121 q-14 -49 -26.5 -78 q-12.5 -29 -25.5 -43 q-24 -26 -47 -36 q-23 -10 -52 -14 q-15 -2 -33.5 -3.5 q-18.5 -1.5 -39.5 -1.5 q-1 0 -3 0 q-23 0 -42.5 15.5 q-19.5 15.5 -20.5 34.5 q-1 4 -1 8 q0 27 25 48.5 q25 21.5 68 21.5 q13 0 21.5 3 q8.5 3 17.5 11 q8 8 17.5 31.5 q9.5 23.5 20 67 q10.5 43.5 24.5 109.5 q4 22 9 48 l-137 0 q-23 -67 -54 -128 q-37 -70 -89 -130.5 q-52 -60.5 -127 -109.5 q-12 -9 -26.5 -11.5 q-14.5 -2.5 -28 -1 q-13.5 1.5 -24 7 q-10.5 5.5 -15.5 14.5 q-8 13 -8 28 ZM33 458 q0 13 6 34 q6 21 23 38 q55 53 106 119 q51 66 94 138 q7 12 19 21.5 q12 9.5 25.5 15.5 q13.5 6 27.5 8 q14 2 25 -2 q14 -4 22.5 -14 q8.5 -10 12 -23.5 q3.5 -13.5 2.5 -28 q-1 -14.5 -9 -27.5 q-44 -72 -94 -142 l-109 -618 q-2 -13 -10.5 -26 q-8.5 -13 -19.5 -23 q-11 -10 -25 -16 q-14 -6 -27 -6 q-13 0 -23.5 6 q-10.5 6 -19 16.5 q-8.5 10.5 -12 23 q-3.5 12.5 -1.5 26.5 l74 417 l-4 -2 q-11 -4 -22 -4 q-4 0 -14 1.5 q-10 1.5 -22 12 q-12 10.5 -18 28.5 q-2 2 -2 4 q0 2 -2 4 q-3 9 -3 19 Z" /><glyph glyph-name="uni4F2A" unicode="&#x4f2a;" d="M398 680 q-5 13 -3 28.5 q2 15.5 9 29.5 q7 14 19 26 q12 12 27 18 q10 4 22 4 q10 0 28.5 -5 q18.5 -5 26.5 -22 q4 -7 6.5 -13.5 q2.5 -6.5 6.5 -13.5 q5 -11 3.5 -24 q-1.5 -13 -8 -26 q-6.5 -13 -17 -23.5 q-10.5 -10.5 -23.5 -15.5 q-14 -6 -29.5 -6 q-15.5 0 -29 5.5 q-13.5 5.5 -23.5 15 q-10 9.5 -15 22.5 ZM230 -14 q0 9 5 32 q5 23 33 49 q50 47 89 100.5 q39 53.5 68.5 111 q29.5 57.5 51.5 118.5 q13 36 24 73 l-96 0 q-14 0 -26 6 q-12 6 -20.5 16 q-8.5 10 -12.5 23 q-4 13 -2 26 q3 14 11 26.5 q8 12.5 20.5 22.5 q12.5 10 26.5 16 q14 6 28 6 l107 0 q3 16 7 31 q12 62 23 122 q2 13 11 26 q9 13 20.5 23 q11.5 10 25.5 16 q14 6 27 6 l7 0 q14 0 26 -6.5 q12 -6.5 20 -17 q8 -10.5 12 -23.5 q4 -13 1 -27 q-13 -69 -29 -141 q-1 -4 -2 -9 l220 0 q14 0 26 -6 q12 -6 21 -16 q1 -1 2 -3 q5 -5 8 -12 q4 -9 4 -19 q1 -7 -1 -15 q-1 -9 -5 -17 q-25 -129 -46 -221 q-22 -99 -39.5 -165 q-17.5 -66 -33 -103.5 q-15.5 -37.5 -31.5 -55.5 q-26 -30 -50 -42 q-24 -12 -54 -18 q-16 -3 -35 -4 q-19 -1 -41 -2 q-24 0 -43.5 17 q-19.5 17 -21.5 37 q0 4 0 8 q0 30 23 53.5 q23 23.5 65 23.5 q13 0 21.5 3.5 q8.5 3.5 18.5 13.5 q11 11 23.5 43.5 q12.5 32.5 27.5 93.5 q15 61 35 154 l22 110 l-154 0 q-15 -51 -34 -102 q5 4 11 7 q13 6 28 6 q10 0 28.5 -4.5 q18.5 -4.5 27.5 -23.5 q8 -16 15.5 -31.5 q7.5 -15.5 13.5 -31.5 q4 -10 2.5 -22.5 q-1.5 -12.5 -7.5 -25 q-6 -12.5 -15.5 -23 q-9.5 -10.5 -21.5 -16.5 l-1 0 q-14 -7 -30.5 -8 q-16.5 -1 -30.5 4 q-14 5 -25 15 q-11 10 -16 24 q-4 8 -7 16.5 q-3 8.5 -6 17.5 q-1 3 -2 7 q-19 -42 -41 -83 q-37 -67 -84 -128.5 q-47 -61.5 -107 -116.5 q-12 -11 -26.5 -16 q-14.5 -5 -29 -5 q-14.5 0 -27.5 5 q-13 5 -20 14 q-13 15 -13 37 ZM33 463 q0 13 6.5 34.5 q6.5 21.5 24.5 38.5 q54 53 105 117.5 q51 64.5 94 133.5 q7 12 18.5 22 q11.5 10 26 16 q14.5 6 28.5 8 q14 2 26 -2 q13 -4 22 -14.5 q9 -10.5 13 -24 q4 -13.5 2.5 -28 q-1.5 -14.5 -9.5 -28.5 q-40 -64 -84 -125 l-112 -632 q-2 -14 -10.5 -26.5 q-8.5 -12.5 -19.5 -23 q-11 -10.5 -24.5 -16.5 q-13.5 -6 -26.5 -6 q-13 0 -24.5 6 q-11.5 6 -20 16.5 q-8.5 10.5 -12 23 q-3.5 12.5 -1.5 26.5 l76 427 q-8 -5 -15 -7 q-12 -4 -23 -4 q-5 0 -14.5 1.5 q-9.5 1.5 -21.5 12 q-12 10.5 -18 27.5 q-1 2 -1.5 2.5 q-0.5 0.5 -0.5 2.5 q-4 10 -4 22 Z" /><glyph glyph-name="uni4F30" unicode="&#x4f30;" d="M449 84 l258 0 l24 135 q0 2 -1.5 4 q-1.5 2 -3.5 2 l-246 0 q-2 0 -4.5 -2 q-2.5 -2 -2.5 -4 l-24 -135 ZM286 -24 l55 315 q3 13 11 26 q8 13 20 23 q12 10 26 16 q14 6 27 6 l127 0 l28 157 l-164 0 q-14 0 -26 6 q-12 6 -21 16 q-9 10 -12.5 22.5 q-3.5 12.5 -1.5 25.5 q2 13 10.5 25.5 q8.5 12.5 20.5 22.5 q12 10 26 16 q14 6 28 6 l164 0 l22 125 q3 14 11 26.5 q8 12.5 20 23 q12 10.5 26 16.5 q14 6 27 6 l10 0 q13 0 25 -6 q12 -6 20 -16.5 q8 -10.5 12 -23 q4 -12.5 1 -26.5 l-22 -125 l182 0 q14 0 26 -6 q12 -6 21 -16 q9 -10 12.5 -22.5 q3.5 -12.5 1.5 -25.5 q-2 -13 -10.5 -25.5 q-8.5 -12.5 -20.5 -22.5 q-12 -10 -26 -16 q-14 -6 -28 -6 l-182 0 l-28 -157 l132 0 q13 0 25 -6 q12 -6 20 -16.5 q8 -10.5 11.5 -23.5 q3.5 -13 1.5 -27 l-54 -307 q-3 -14 -11 -27 q-8 -13 -20.5 -23.5 q-12.5 -10.5 -26 -16.5 q-13.5 -6 -27.5 -6 l-7 0 q-13 0 -25 6 q-12 6 -20 17 q-6 7 -10 15 l-276 0 q-8 -11 -18 -19 q-13 -11 -26.5 -17 q-13.5 -6 -27.5 -6 q-13 0 -25 6 q-12 6 -20.5 16 q-8.5 10 -12.5 23 q-4 13 -1 26 ZM33 458 q0 13 6 34 q6 21 23 38 q55 53 106 119 q51 66 94 138 q7 12 19 21.5 q12 9.5 25.5 15.5 q13.5 6 27.5 8 q14 2 25 -2 q14 -4 22.5 -14 q8.5 -10 12 -23.5 q3.5 -13.5 2.5 -28 q-1 -14.5 -9 -27.5 q-44 -72 -94 -142 l-109 -618 q-2 -13 -10.5 -26 q-8.5 -13 -19.5 -23 q-11 -10 -25 -16 q-14 -6 -27 -6 q-13 0 -23.5 6 q-10.5 6 -19 16.5 q-8.5 10.5 -12 23 q-3.5 12.5 -1.5 26.5 l74 417 l-4 -2 q-11 -4 -22 -4 q-4 0 -14 1.5 q-10 1.5 -22 12 q-12 10.5 -18 28.5 q-2 2 -2 4 q0 2 -2 4 q-3 9 -3 19 Z" /><glyph glyph-name="uni4F34" unicode="&#x4f34;" d="M807.5 613.5 q-2.5 13.5 -0.5 28.5 q2 15 9 28 q10 17 19 33.5 q9 16.5 17 33.5 q7 14 19 25.5 q12 11.5 26.5 19 q14.5 7.5 30 9.5 q15.5 2 28.5 -3 q13 -4 21.5 -15 q8.5 -11 12 -25 q3.5 -14 1 -29.5 q-2.5 -15.5 -12.5 -29.5 q-14 -22 -27 -42 q-13 -20 -27 -40 q-14 -20 -35.5 -28 q-21.5 -8 -34.5 -8 q-10 0 -18 3 q-11 5 -18.5 15.5 q-7.5 10.5 -10 24 ZM427 690 q-3 14 0.5 28.5 q3.5 14.5 11 28 q7.5 13.5 19 24 q11.5 10.5 24.5 15.5 q9 3 18 3 q13 0 32 -9 q19 -9 25 -31 q6 -23 11 -47 q5 -24 8 -47 q1 -4 1 -8 q0 -18 -15.5 -40 q-15.5 -22 -36.5 -30 q-11 -4 -22 -4 q-4 0 -14 1.5 q-10 1.5 -22.5 9.5 q-12.5 8 -20.5 20.5 q-8 12.5 -10 28.5 q-3 14 -5 28.5 q-2 14.5 -4 28.5 ZM289 229 q3 13 11 25 q8 12 20 21.5 q12 9.5 26 15 q14 5.5 27 5.5 l178 0 l20 111 l-139 0 q-13 0 -25 6 q-12 6 -20.5 15.5 q-8.5 9.5 -12.5 21.5 q-4 12 -1 24 q2 13 10 25 q8 12 19.5 21.5 q11.5 9.5 25.5 15 q14 5.5 27 5.5 l140 0 l40 229 q2 13 10.5 26 q8.5 13 20 23 q11.5 10 25.5 16 q14 6 27 6 l5 0 q13 0 25 -6 q12 -6 20.5 -16 q8.5 -10 12 -23 q3.5 -13 1.5 -26 l-40 -229 l139 0 q27 0 44 -18.5 q17 -18.5 17 -39.5 q0 -4 -1 -9 q-3 -12 -11 -24 q-8 -12 -19.5 -21.5 q-11.5 -9.5 -25 -15.5 q-13.5 -6 -27.5 -6 l-140 0 l-20 -111 l180 0 q14 0 25.5 -5.5 q11.5 -5.5 20.5 -15 q9 -9.5 13 -21.5 q4 -12 1 -25 q-2 -12 -10 -24 q-8 -12 -20 -21.5 q-12 -9.5 -25.5 -15.5 q-13.5 -6 -27.5 -6 l-180 0 l-33 -186 q-3 -13 -11 -26 q-8 -13 -20 -23 q-12 -10 -26 -16 q-14 -6 -27 -6 l-5 0 q-13 0 -25 6 q-12 6 -20 16 q-8 10 -12 23 q-4 13 -1 26 l33 186 l-178 0 q-13 0 -25 6 q-12 6 -21 15.5 q-9 9.5 -13 21.5 q-4 12 -2 24 ZM32 455 q0 14 7 37.5 q7 23.5 25 40.5 q58 54 112 119.5 q54 65.5 99 137.5 q7 12 19.5 21.5 q12.5 9.5 26 15.5 q13.5 6 26.5 7.5 q13 1.5 25 -2.5 q13 -4 21.5 -14.5 q8.5 -10.5 12.5 -23.5 q4 -13 2 -27.5 q-2 -14.5 -11 -27.5 q-37 -58 -79 -116 l-114 -644 q-2 -13 -10.5 -26 q-8.5 -13 -19.5 -23 q-11 -10 -24.5 -16 q-13.5 -6 -26.5 -6 q-13 0 -24 6 q-11 6 -19 16.5 q-8 10.5 -12 23 q-4 12.5 -2 26.5 l77 435 q-14 -13 -29 -19 q-12 -4 -23 -4 q-5 0 -15 1.5 q-10 1.5 -22 12 q-12 10.5 -18 27.5 q0 2 -0.5 3 q-0.5 1 -1.5 2 q-2 8 -2 17 Z" /><glyph glyph-name="uni4F38" unicode="&#x4f38;" d="M716 503 l108 0 l10 56 q0 3 -1.5 5 q-1.5 2 -3.5 2 l-101 0 l-12 -63 ZM683 315 l107 0 l12 63 l-108 0 l-11 -63 ZM467 495 q4 1 7 3 q14 5 27 5 l72 0 l12 63 l-99 0 q-2 0 -4.5 -2 q-2.5 -2 -2.5 -5 l-12 -64 ZM433 304 l12 6 q14 5 27 5 l68 0 l11 63 l-72 0 q-13 0 -25 6 l-6 2 l-15 -82 ZM280 207 l74 417 q2 14 10.5 27 q8.5 13 21 23.5 q12.5 10.5 26.5 16.5 q14 6 27 6 l169 0 l14 82 q3 14 11 26.5 q8 12.5 20.5 23 q12.5 10.5 26.5 16.5 q14 6 27 6 q13 0 25 -6 q12 -6 20 -16.5 q8 -10.5 12 -23 q4 -12.5 1 -26.5 l-14 -82 l178 0 q14 0 25.5 -6 q11.5 -6 20 -16 q8.5 -10 12.5 -23 q4 -13 1 -26 l-72 -410 q-2 -13 -10.5 -26 q-8.5 -13 -20 -23 q-11.5 -10 -25.5 -16 q-14 -6 -27 -6 q-13 0 -25 6 q-12 6 -21 17 q-7 8 -11 17 q-6 -1 -12 -1 l-104 0 l-36 -206 q-2 -14 -10.5 -26.5 q-8.5 -12.5 -20 -23 q-11.5 -10.5 -26 -16.5 q-14.5 -6 -27.5 -6 q-13 0 -24.5 6 q-11.5 6 -20.5 16.5 q-9 10.5 -12.5 23 q-3.5 12.5 -1.5 26.5 l36 206 l-69 0 q-13 0 -25 6 q-5 2 -10 5 q-3 -8 -7 -15 q-9 -13 -20 -23.5 q-11 -10.5 -24 -16.5 q-13 -6 -26 -6 q-13 0 -24 6 q-11 6 -19 16.5 q-8 10.5 -11.5 23.5 q-3.5 13 -1.5 27 ZM27 458 q0 13 6 34 q6 21 23 38 q55 53 106 119 q51 66 94 138 q7 12 19 21.5 q12 9.5 25.5 15.5 q13.5 6 27.5 8 q14 2 25 -2 q14 -4 22.5 -14 q8.5 -10 12 -23.5 q3.5 -13.5 2.5 -28 q-1 -14.5 -9 -27.5 q-40 -66 -86 -131 l-111 -629 q-2 -13 -10.5 -26 q-8.5 -13 -19.5 -23 q-11 -10 -25 -16 q-14 -6 -27 -6 q-13 0 -23.5 6 q-10.5 6 -19 16.5 q-8.5 10.5 -12 23 q-3.5 12.5 -1.5 26.5 l74 420 q-5 -3 -10 -5 q-11 -4 -22 -4 q-4 0 -14 1.5 q-10 1.5 -22 12 q-12 10.5 -18 28.5 q-2 2 -2 4 q0 2 -2 4 q-3 9 -3 19 Z" /><glyph glyph-name="uni4F3C" unicode="&#x4f3c;" d="M543 651 q-2 13 1 27.5 q3 14.5 10.5 27.5 q7.5 13 18 23 q10.5 10 23.5 14 q12 4 23.5 2.5 q11.5 -1.5 22.5 -7.5 q11 -6 19 -15 q8 -9 11 -21 q5 -25 10.5 -51.5 q5.5 -26.5 10 -52.5 q4.5 -26 9 -59 q4.5 -33 4.5 -45 q0 -20 -16 -43 q-16 -23 -37 -31 q-16 -6 -30.5 -4 q-14.5 2 -26.5 10 q-12 8 -20.5 21 q-8.5 13 -9.5 29 q-1 21 -4 42.5 q-3 21.5 -5.5 44 q-2.5 22.5 -6 44.5 q-3.5 22 -7.5 44 ZM488 -2 q0 8 4.5 30 q4.5 22 32.5 49 q57 57 100 129 q43 72 76.5 157.5 q33.5 85.5 59.5 184.5 q26 99 49 210 q2 14 11 26.5 q9 12.5 21 22.5 q12 10 26 16 q14 6 27 6 q14 0 25.5 -6.5 q11.5 -6.5 19.5 -17 q8 -10.5 11 -24 q3 -13.5 1 -27.5 q-28 -129 -59 -243 q-31 -110 -69 -205 q16 -11 21 -28 q9 -29 16.5 -59 q7.5 -30 15 -59.5 q7.5 -29.5 13.5 -58.5 q6 -29 10 -55 q1 -4 1 -8 q0 -17 -14.5 -39.5 q-14.5 -22.5 -36.5 -32.5 l-2 -1 q-14 -6 -28 -6 l-10 1 q-10 0 -23.5 6.5 q-13.5 6.5 -22.5 18.5 q-9 12 -11 27 q-3 24 -8 49.5 q-5 25.5 -10 52.5 l-2 10 q-3 -5 -5 -9 q-52 -84 -117 -151 q-11 -12 -26 -17.5 q-15 -5.5 -30.5 -6.5 q-15.5 -1 -28.5 3.5 q-13 4.5 -22 13.5 q-16 17 -16 41 ZM253 38 q-5 10 -3.5 24 q1.5 14 7 29 q5.5 15 12 30 q6.5 15 13.5 28 q3 5 5.5 6 q2.5 1 3.5 3.5 q1 2.5 3 10 q2 7.5 5 24.5 l92 522 q3 14 11 26.5 q8 12.5 20 23 q12 10.5 26 16.5 q14 6 27 6 q13 0 24.5 -6 q11.5 -6 19.5 -16.5 q8 -10.5 12 -23 q4 -12.5 1 -26.5 l-88 -495 l48 26 q17 9 33.5 11.5 q16.5 2.5 30 -1 q13.5 -3.5 23 -12.5 q9.5 -9 13.5 -22 q1 -5 1 -10 q0 -16 -12.5 -39.5 q-12.5 -23.5 -36.5 -37.5 q-28 -16 -51.5 -30 q-23.5 -14 -43.5 -26.5 q-20 -12.5 -37 -23 q-17 -10.5 -31 -19.5 q-20 -13 -39 -16 q-1 -1 -3 -1 q-5 -3 -10 -5 q-15 -6 -28 -6 q-2 0 -10 0.5 q-8 0.5 -20.5 8 q-12.5 7.5 -17.5 21.5 ZM24 453 q0 11 5.5 30 q5.5 19 18.5 33 q50 56 97.5 125 q47.5 69 87.5 144 q8 13 19.5 24 q11.5 11 24.5 18 q13 7 27.5 9.5 q14.5 2.5 25.5 -1.5 q13 -4 21 -13.5 q8 -9.5 12.5 -22 q4.5 -12.5 3.5 -26.5 q-1 -14 -8 -27 q-34 -63 -73 -126 l-114 -641 q-2 -14 -10.5 -27 q-8.5 -13 -19.5 -23.5 q-11 -10.5 -25 -16.5 q-14 -6 -27 -6 q-13 0 -23.5 6 q-10.5 6 -19 16.5 q-8.5 10.5 -12 23 q-3.5 12.5 -1.5 26.5 l72 408 q-1 -1 -2 -1 q-12 -5 -24 -5 q-3 0 -12.5 1 q-9.5 1 -21 12 q-11.5 11 -15.5 30 q-2 4 -2.5 7.5 q-0.5 3.5 -2.5 7.5 q-2 7 -2 15 Z" /><glyph glyph-name="uni4F46" unicode="&#x4f46;" d="M554 548 q-1 -2 1 -4 q2 -2 5 -2 l201 0 q3 0 5 2 q2 2 3 4 l18 107 q1 2 -0.5 4 q-1.5 2 -4.5 2 l-201 0 q-3 0 -5.5 -2 q-2.5 -2 -3.5 -4 l-18 -107 ZM508 291 q0 -2 1.5 -4 q1.5 -2 4.5 -2 l201 0 q3 0 5.5 2 q2.5 2 2.5 4 l20 111 q0 2 -1.5 4 q-1.5 2 -4.5 2 l-201 0 q-3 0 -5.5 -2 q-2.5 -2 -2.5 -4 l-20 -111 ZM345 224 l88 498 q3 14 11 27 q8 13 20.5 23.5 q12.5 10.5 26.5 16.5 q14 6 27 6 l381 0 q14 0 25.5 -6 q11.5 -6 20 -16.5 q8.5 -10.5 12.5 -23.5 q4 -13 1 -27 l-88 -498 q-2 -14 -10.5 -27 q-8.5 -13 -20.5 -23.5 q-12 -10.5 -25.5 -16.5 q-13.5 -6 -27.5 -6 l-381 0 q-13 0 -25 6 q-12 6 -21 16.5 q-9 10.5 -12.5 23.5 q-3.5 13 -1.5 27 ZM244 3 q2 12 10 24 q8 12 19.5 21.5 q11.5 9.5 25.5 15.5 q14 6 27 6 l511 0 q13 0 25 -6 q12 -6 20.5 -15.5 q8.5 -9.5 12.5 -21.5 q4 -12 2 -24 q-3 -13 -11 -25 q-8 -12 -19.5 -21.5 q-11.5 -9.5 -25.5 -15.5 q-14 -6 -27 -6 l-511 0 q-13 0 -25 6 q-12 6 -20.5 15.5 q-8.5 9.5 -12.5 21.5 q-4 12 -1 25 ZM35 455 q0 14 6.5 37 q6.5 23 23.5 40 q55 52 107.5 117.5 q52.5 65.5 97.5 137.5 q7 12 19 21.5 q12 9.5 26 15.5 q14 6 28.5 7.5 q14.5 1.5 25.5 -2.5 l2 0 q13 -4 22 -14.5 q9 -10.5 13 -24 q4 -13.5 2.5 -28.5 q-1.5 -15 -10.5 -28 q-41 -67 -89 -133 l-110 -623 q-2 -14 -10.5 -26.5 q-8.5 -12.5 -20.5 -23 q-12 -10.5 -26 -16.5 q-14 -6 -28 -6 q-13 0 -24.5 6 q-11.5 6 -20.5 16.5 q-9 10.5 -12.5 23 q-3.5 12.5 -1.5 26.5 l73 414 q-5 -3 -10 -5 q-12 -4 -23 -4 q-5 0 -14.5 1.5 q-9.5 1.5 -21 12 q-11.5 10.5 -17.5 28.5 q-2 3 -2.5 6 q-0.5 3 -2.5 6 q-2 8 -2 18 Z" /><glyph glyph-name="uni4F4D" unicode="&#x4f4d;" d="M622 765 q-2 14 3 29 q5 15 14.5 28.5 q9.5 13.5 23 23 q13.5 9.5 27.5 13.5 l2 0 q8 2 15 2 q17 0 37 -11.5 q20 -11.5 24 -33.5 q1 -7 2 -13 q1 -6 1 -12 q3 -13 -1.5 -27 q-4.5 -14 -13.5 -26 q-9 -12 -21 -21.5 q-12 -9.5 -26 -13.5 q-15 -4 -30 -1 q-15 3 -27 11 q-12 8 -20 19.5 q-8 11.5 -9 25.5 l0 4 q0 1 -1 3 ZM413 187 q2 29 3.5 60.5 q1.5 31.5 2.5 63.5 q1 32 2.5 65 q1.5 33 2.5 64 q0 13 5.5 26.5 q5.5 13.5 15 25 q9.5 11.5 21.5 20 q12 8.5 24 11.5 q13 3 26 -0.5 q13 -3.5 23 -11.5 q10 -8 16.5 -19 q6.5 -11 6.5 -25 q1 -33 1 -68 q0 -35 -0.5 -69 q-0.5 -34 -1 -67 q-0.5 -33 -2.5 -62 q-1 -23 -20.5 -46 q-19.5 -23 -41.5 -29 l-3 -1 q-10 -2 -19 -2 q-7 0 -17.5 2 q-10.5 2 -22 10.5 q-11.5 8.5 -17.5 22 q-6 13.5 -5 29.5 ZM390.5 598 q-3.5 13 -1.5 26 q2 13 10.5 25.5 q8.5 12.5 20 22.5 q11.5 10 25.5 16 q14 6 27 6 l426 0 q14 0 25.5 -6 q11.5 -6 20 -16 q8.5 -10 12 -22.5 q3.5 -12.5 1.5 -25.5 q-2 -13 -10.5 -26 q-8.5 -13 -20 -23 q-11.5 -10 -25 -16 q-13.5 -6 -27.5 -6 l-426 0 q-13 0 -25 6 q-12 6 -20.5 16 q-8.5 10 -12 23 ZM248 14 q3 13 11 25.5 q8 12.5 20 22.5 q12 10 26 16 q14 6 27 6 l294 0 q-2 10 -2 21 q0 15 6 29 q14 37 29.5 78 q15.5 41 29.5 83 q14 42 27.5 84.5 q13.5 42.5 25.5 82.5 q5 15 15 27.5 q10 12.5 23 22 q13 9.5 28 14 q15 4.5 29 2.5 l5 -1 q13 -2 23.5 -10.5 q10.5 -8.5 16.5 -20 q6 -11.5 7.5 -25 q1.5 -13.5 -3.5 -26.5 q-16 -46 -33.5 -92.5 q-17.5 -46.5 -35.5 -91 q-18 -44.5 -36 -86.5 q-18 -42 -34 -79 q-3 -6 -7 -12 l81 0 q13 0 25 -6 q12 -6 20 -16 q8 -10 12 -22.5 q4 -12.5 1 -25.5 q-2 -13 -10 -25.5 q-8 -12.5 -20 -22.5 q-12 -10 -26 -16 q-14 -6 -27 -6 l-489 0 q-13 0 -25 6 q-12 6 -20 16 q-8 10 -12 22.5 q-4 12.5 -2 25.5 ZM48 458 q0 13 6 34 q6 21 23 38 q55 53 106 119 q51 66 94 138 q7 12 19 21.5 q12 9.5 25.5 15.5 q13.5 6 27.5 8 q14 2 25 -2 q14 -4 22.5 -14 q8.5 -10 12 -23.5 q3.5 -13.5 2.5 -28 q-1 -14.5 -9 -27.5 q-39 -64 -82 -126 l-112 -633 q-2 -14 -10.5 -26.5 q-8.5 -12.5 -20 -23 q-11.5 -10.5 -26 -16.5 q-14.5 -6 -27.5 -6 l-5 0 q-13 0 -24.5 6 q-11.5 6 -20 16.5 q-8.5 10.5 -12 23 q-3.5 12.5 -1.5 26.5 l74 417 l-4 -2 q-11 -4 -22 -4 q-4 0 -14 1.5 q-10 1.5 -22 12 q-12 10.5 -18 28.5 q-2 2 -2 4 q0 2 -2 4 q-3 9 -3 19 Z" /><glyph glyph-name="uni4F4E" unicode="&#x4f4e;" d="M521 72 q-3 13 -1 27.5 q2 14.5 8.5 27 q6.5 12.5 15.5 21.5 q9 9 19 12 q5 2 11 2 q13 0 30 -12 q17 -12 22 -35 q7 -24 13 -48 q6 -24 10 -47 q1 -7 1 -13 q0 -18 -11 -40.5 q-11 -22.5 -32 -29.5 q-11 -4 -22.5 -1.5 q-11.5 2.5 -21.5 10 q-10 7.5 -17 19 q-7 11.5 -10 25.5 q-3 20 -7 40.5 q-4 20.5 -8 41.5 ZM503 474 q9 6 21 11 q14 6 27 6 l114 0 q8 71 19 148 q2 13 9 25 q-43 -8 -86 -15 q-38 -6 -75 -11 l-29 -164 ZM263 -35 q-3 9 1.5 23 q4.5 14 11.5 30 q7 16 13.5 32.5 q6.5 16.5 8.5 31.5 l102 575 q3 17 13 31 q10 14 24 24 q1 1 3 2 q5 9 14 18 q24 26 62 32 q48 8 95 17 q47 9 92.5 19 q45.5 10 88 21 q42.5 11 80.5 23 q8 2 18 2 q10 0 26 -3.5 q16 -3.5 26 -15.5 l10 -13 q11 -14 12 -23.5 q1 -9.5 1 -12.5 q0 -13 -6 -26 q-6 -13 -19.5 -25 q-13.5 -12 -32.5 -17 q-47 -12 -95 -22 q6 -9 9 -19 q4 -13 1 -27 q-12 -78 -20 -151 l92 0 q14 0 25 -6 q11 -6 20 -15.5 q9 -9.5 13 -21.5 q4 -12 2 -24 q-3 -13 -11 -25 q-8 -12 -20 -21.5 q-12 -9.5 -25.5 -15.5 q-13.5 -6 -27.5 -6 l-80 0 q-4 -56 -5 -103 q-1 -30 -1 -56 q0 -38 3.5 -73.5 q3.5 -35.5 14.5 -35.5 q21 0 34.5 11 q13.5 11 24.5 22.5 q11 11.5 21.5 17.5 q10.5 6 23.5 -4 q9 -7 10 -19 q1 -12 1 -17 q0 -15 -5 -28 q-19 -48 -38 -79 q-19 -31 -37 -48.5 q-18 -17.5 -35 -24 q-17 -6.5 -32 -6.5 q-53 0 -82 52 q-29 52 -35 122 q-6 70 -6 124 q0 60 5 131 q0 7 1 14 l-126 0 q-13 0 -25 6 q-9 5 -17 11 l-52 -297 q13 2 26 0 q15 -3 26 -11 q11 -8 17 -19.5 q6 -11.5 4 -25.5 q-4 -19 -25 -39.5 q-21 -20.5 -45 -26.5 q-17 -5 -32 -9 q-15 -4 -28 -7 q-17 -5 -33 -5 q-3 0 -5 0 q-16 1 -28 6 l-11 0 q-30 2 -36 26 ZM37 431 q0 12 5 32.5 q5 20.5 19 36.5 q53 58 104 130.5 q51 72.5 94 151.5 q7 13 19 23.5 q12 10.5 25.5 17.5 q13.5 7 28 9.5 q14.5 2.5 26.5 -1.5 q12 -4 20.5 -14 q8.5 -10 13 -22.5 q4.5 -12.5 3.5 -27 q-1 -14.5 -9 -27.5 q-33 -59 -69 -118 l-114 -644 q-2 -14 -10.5 -26.5 q-8.5 -12.5 -19.5 -23 q-11 -10.5 -25 -16.5 q-14 -6 -27 -6 q-13 0 -24 6 q-11 6 -19.5 16.5 q-8.5 10.5 -12 23 q-3.5 12.5 -1.5 26.5 l70 397 q-7 -6 -14 -9 q-13 -5 -24 -5 q-4 0 -13.5 1.5 q-9.5 1.5 -21.5 12 q-12 10.5 -18 28.5 q-1 3 -2 5.5 q-1 2.5 -2 5.5 q-2 8 -2 17 Z" /><glyph glyph-name="uni4F4F" unicode="&#x4f4f;" d="M631 739 q-3 15 0.5 31 q3.5 16 12 30 q8.5 14 21.5 25.5 q13 11.5 28 16.5 q11 3 23.5 2 q12.5 -1 23 -5.5 q10.5 -4.5 18.5 -12 q8 -7.5 12 -16.5 q3 -11 7 -20.5 q4 -9.5 7 -20.5 q3 -11 -0.5 -24 q-3.5 -13 -11.5 -25 q-8 -12 -19.5 -21.5 q-11.5 -9.5 -23.5 -14.5 l-3 0 q-15 -5 -30.5 -3.5 q-15.5 1.5 -28 8.5 q-12.5 7 -21.5 18.5 q-9 11.5 -13 25.5 l0 3 l-2 3 ZM251 4 q2 13 10 25.5 q8 12.5 20.5 22 q12.5 9.5 26.5 15.5 q14 6 27 6 l182 0 l30 171 l-130 0 q-13 0 -25 6 q-12 6 -20.5 15.5 q-8.5 9.5 -12 22 q-3.5 12.5 -1.5 25.5 q2 13 10.5 25 q8.5 12 20 21.5 q11.5 9.5 25.5 15.5 q14 6 27 6 l130 0 l27 152 l-161 0 q-13 0 -25 6 q-12 6 -20.5 16 q-8.5 10 -12.5 22 q-4 12 -2 25 q2 13 10.5 25.5 q8.5 12.5 20.5 22 q12 9.5 26 15.5 q14 6 27 6 l469 0 q14 0 25.5 -6 q11.5 -6 20.5 -15.5 q9 -9.5 12.5 -22 q3.5 -12.5 1.5 -25.5 q-2 -13 -10 -25 q-8 -12 -20.5 -22 q-12.5 -10 -26 -16 q-13.5 -6 -27.5 -6 l-160 0 l-27 -152 l134 0 q13 0 25 -6 q12 -6 20.5 -15.5 q8.5 -9.5 12 -21.5 q3.5 -12 1.5 -25 q-2 -13 -10.5 -25.5 q-8.5 -12.5 -20 -22 q-11.5 -9.5 -25.5 -15.5 q-14 -6 -27 -6 l-134 0 l-30 -171 l175 0 q14 0 25.5 -6 q11.5 -6 20 -15.5 q8.5 -9.5 12.5 -22 q4 -12.5 2 -25.5 q-3 -13 -11 -25.5 q-8 -12.5 -20 -22 q-12 -9.5 -25.5 -15.5 q-13.5 -6 -27.5 -6 l-505 0 q-13 0 -25 6 q-12 6 -21 15.5 q-9 9.5 -13 22 q-4 12.5 -1 25.5 ZM37 456 q0 14 6.5 36 q6.5 22 23.5 39 q54 53 105 118.5 q51 65.5 94 137.5 q7 12 19 21.5 q12 9.5 25.5 15.5 q13.5 6 28 8 q14.5 2 25.5 -2 l2 -1 q13 -4 22.5 -14.5 q9.5 -10.5 13 -23.5 q3.5 -13 2 -28 q-1.5 -15 -9.5 -28 q-41 -67 -87 -133 l-110 -624 q-2 -14 -10.5 -26.5 q-8.5 -12.5 -20 -23 q-11.5 -10.5 -26 -16.5 q-14.5 -6 -27.5 -6 l-5 0 q-13 0 -24.5 6 q-11.5 6 -20 16.5 q-8.5 10.5 -12 23 q-3.5 12.5 -1.5 26.5 l73 411 q-2 0 -3 -1 q-11 -4 -21 -4 q-5 0 -15 2 q-10 2 -22 12.5 q-12 10.5 -18 27.5 q-1 3 -1.5 5.5 q-0.5 2.5 -2.5 5.5 q-3 9 -3 19 Z" /><glyph glyph-name="uni4F53" unicode="&#x4f53;" d="M251 104 q-7 10 -9 24.5 q-2 14.5 1 30 q3 15.5 11 30.5 q8 15 20 27 q34 35 66.5 74.5 q32.5 39.5 63.5 83 q31 43.5 59 89.5 q27 45 50 89 l-103 0 q-14 0 -26 6 q-12 6 -20.5 16 q-8.5 10 -12.5 22 q-4 12 -2 25 q3 13 11 25.5 q8 12.5 20.5 22 q12.5 9.5 26.5 15.5 q14 6 28 6 l164 0 l16 88 q2 13 10.5 26 q8.5 13 20.5 23 q12 10 26 16 q14 6 27 6 q14 0 25.5 -6 q11.5 -6 19.5 -16 q8 -10 11.5 -23 q3.5 -13 1.5 -26 l-16 -88 l192 0 q14 0 26 -6 q12 -6 20.5 -15.5 q8.5 -9.5 12.5 -22 q4 -12.5 1 -25.5 q-2 -13 -10 -25 q-8 -12 -20.5 -22 q-12.5 -10 -26.5 -16 q-14 -6 -28 -6 l-125 0 q0 -3 1 -7 q9 -43 20.5 -86.5 q11.5 -43.5 26.5 -84.5 q15 -41 32.5 -79.5 q17.5 -38.5 37.5 -71.5 q7 -12 9.5 -27 q2.5 -15 -0.5 -30.5 q-3 -15.5 -10 -29.5 q-7 -14 -19 -24 q-13 -11 -27 -16 q-14 -5 -26 -5 l-11 1 q-11 1 -23.5 9 q-12.5 8 -18.5 23 q-19 41 -34.5 87 q-15.5 46 -27.5 96 q-12 47 -22 96 l-37 -210 l47 0 q14 0 25.5 -5.5 q11.5 -5.5 20.5 -14.5 q9 -9 13 -20.5 q4 -11.5 2 -23.5 q-2 -12 -10.5 -24 q-8.5 -12 -20.5 -21 q-12 -9 -25.5 -14.5 q-13.5 -5.5 -27.5 -5.5 l-47 0 l-14 -80 q-2 -13 -10.5 -26 q-8.5 -13 -20 -23 q-11.5 -10 -25 -16 q-13.5 -6 -27.5 -6 q-13 0 -25 6 q-12 6 -20.5 16 q-8.5 10 -12 23 q-3.5 13 -1.5 26 l14 80 l-41 0 q-13 0 -25 5.5 q-12 5.5 -21 14.5 q-9 9 -12.5 21 q-3.5 12 -1.5 24 q2 12 10 23.5 q8 11.5 20 20.5 q12 9 26 14.5 q14 5.5 27 5.5 l41 0 l34 196 q-24 -44 -49 -85 q-33 -53 -68 -101 q-35 -48 -72 -90 q-11 -13 -26.5 -20.5 q-15.5 -7.5 -30 -8 q-14.5 -0.5 -27.5 4.5 q-13 5 -22 15 ZM30 440 q-4 9 -4 20 q0 11 5.5 32 q5.5 21 21.5 38 q51 53 98.5 118 q47.5 65 87.5 136 q7 12 19 22.5 q12 10.5 26 17 q14 6.5 28.5 8.5 q14.5 2 25.5 -2 q13 -4 21.5 -14 q8.5 -10 13 -23 q4.5 -13 2.5 -27.5 q-2 -14.5 -9 -27.5 q-32 -56 -68 -110 l-115 -651 q-2 -13 -10.5 -26 q-8.5 -13 -19.5 -23 q-11 -10 -25 -16 q-14 -6 -27 -6 q-13 0 -23.5 6 q-10.5 6 -19 16.5 q-8.5 10.5 -12 23 q-3.5 12.5 -1.5 26.5 l75 422 q-5 -3 -10 -5 q-13 -5 -25 -5 q-3 0 -12.5 1 q-9.5 1 -21.5 11.5 q-12 10.5 -18 27.5 q-1 2 -1.5 5 q-0.5 3 -1.5 5 Z" /><glyph glyph-name="uni4F55" unicode="&#x4f55;" d="M468 296 l70 0 q2 0 4.5 2 q2.5 2 2.5 4 l20 114 q1 2 -1 4 q-2 2 -4 2 l-69 0 l-23 -126 ZM402 706 q3 13 11 25.5 q8 12.5 20.5 22 q12.5 9.5 26.5 15.5 q14 6 27 6 l473 0 q14 0 25.5 -6 q11.5 -6 20 -15.5 q8.5 -9.5 12.5 -22 q4 -12.5 1 -25.5 q-2 -13 -10 -25.5 q-8 -12.5 -20.5 -22.5 q-12.5 -10 -25.5 -16 q-4 -2 -8 -3 l-101 -571 q-10 -59 -29.5 -90.5 q-19.5 -31.5 -57.5 -48.5 q-29 -13 -66 -18.5 q-37 -5.5 -82 -7.5 q-1 0 -2 0 q-22 0 -41 17.5 q-19 17.5 -22 37.5 q-1 5 -1 9 q0 13 5 27 q5 14 17 26.5 q12 12.5 29 19.5 q17 7 37 7 l37 0 q14 0 21 4.5 q7 4.5 9 18.5 l100 566 l-346 0 q-13 0 -25 6 q-12 6 -20.5 16 q-8.5 10 -12.5 22.5 q-4 12.5 -2 25.5 ZM312 181 l52 293 q2 14 10 26.5 q8 12.5 19.5 23 q11.5 10.5 24.5 16.5 q13 6 26 6 q13 0 24 -6 l4 -2 q3 1 7 3 q14 5 27 5 l144 0 q14 0 25.5 -6 q11.5 -6 20 -16.5 q8.5 -10.5 12.5 -23 q4 -12.5 2 -26.5 l-41 -230 q-2 -13 -10.5 -26 q-8.5 -13 -21 -23.5 q-12.5 -10.5 -26 -16.5 q-13.5 -6 -27.5 -6 l-138 0 q-3 -8 -8 -17 q-9 -13 -20.5 -23.5 q-11.5 -10.5 -24.5 -16.5 q-13 -6 -26 -6 q-13 0 -24 6 q-11 6 -18.5 16.5 q-7.5 10.5 -11 23.5 q-3.5 13 -1.5 26 ZM42 467 q0 14 7 36 q7 22 24 39 q53 52 104 116.5 q51 64.5 95 134.5 q7 12 19 22 q12 10 26 16 q14 6 28 8 q14 2 26 -2 q12 -4 20.5 -14 q8.5 -10 12.5 -23.5 q4 -13.5 2 -28 q-2 -14.5 -10 -27.5 q-32 -53 -69 -105 l-116 -659 q-2 -14 -10 -26.5 q-8 -12.5 -20.5 -23 q-12.5 -10.5 -26 -16.5 q-13.5 -6 -27.5 -6 q-14 0 -26 6 q-12 6 -20.5 16.5 q-8.5 10.5 -12.5 23 q-4 12.5 -2 26.5 l77 436 q-9 -7 -19 -11 q-12 -4 -23 -4 q-5 0 -14.5 1.5 q-9.5 1.5 -21.5 12 q-12 10.5 -18 27.5 q-1 2 -1 4 q0 2 -2 4 q-2 8 -2 17 Z" /><glyph glyph-name="uni4F59" unicode="&#x4f59;" d="M604 106 q0 10 4 22.5 q4 12.5 15 26.5 q11 14 28 23 q14 6 31 6 q4 0 18 -1 q14 -1 26 -12 q12 -12 25 -24.5 q13 -12.5 25 -25.5 l23 -26 q11 -13 22 -25 q9 -11 11 -25.5 q2 -14.5 -3 -28.5 q-5 -14 -15 -27 q-10 -13 -25 -21 l-4 -3 q-12 -6 -26.5 -8 q-14.5 -2 -28 0.5 q-13.5 2.5 -25 9 q-11.5 6.5 -18.5 15.5 q-7 10 -15 21 l-17 21 q-9 10 -18 21 q-9 11 -18 21 q-11 12 -13 23 q-2 11 -2 17 ZM354 555 l324 0 q-56 45 -118 109 q-11 12 -14 27 l0 2 q-24 -20 -48 -38 q-54 -41 -110 -78 l-34 -22 ZM73 469 q-9 15 -9 31.5 q0 16.5 7.5 32 q7.5 15.5 20.5 28.5 q13 13 32 21 q52 23 104.5 49 q52.5 26 102.5 56 q50 30 97.5 63.5 q47.5 33.5 88.5 69.5 q19 17 38.5 21.5 q19.5 4.5 28.5 4.5 q14 0 23 -6 q11 -7 16 -19 q5 -12 5 -26 q-1 -9 -4 -19 l5 0 q23 -4 35 -15 q64 -61 127.5 -102.5 q63.5 -41.5 127.5 -70.5 q34 -16 37 -34.5 q3 -18.5 3 -23.5 q0 -27 -23 -52 q-17 -20 -39.5 -26 q-22.5 -6 -33.5 -6 q-16 0 -29 7 q-38 20 -76 45 q0 -4 -1 -8 q-2 -12 -10 -23.5 q-8 -11.5 -20 -21 q-12 -9.5 -25.5 -15 q-13.5 -5.5 -27.5 -5.5 l-103 0 l-13 -71 l256 0 q13 0 25 -6 q12 -6 20.5 -15.5 q8.5 -9.5 12.5 -21.5 q4 -12 1 -25 q-2 -13 -10 -25 q-8 -12 -19.5 -21.5 q-11.5 -9.5 -26 -15.5 q-14.5 -6 -27.5 -6 l-255 0 l-29 -162 q-9 -51 -27.5 -80.5 q-18.5 -29.5 -56.5 -46.5 q-27 -12 -56.5 -17.5 q-29.5 -5.5 -63.5 -7.5 q-1 0 -3 0 q-21 0 -39.5 15 q-18.5 15 -21.5 33 q-2 8 -2 15 q0 26 22 50 q22 24 65 24 l3 0 q12 1 18 4.5 q6 3.5 7 13.5 l28 159 l-240 0 q-13 0 -24.5 6 q-11.5 6 -20 15.5 q-8.5 9.5 -12.5 21.5 q-4 12 -2 25 q3 13 11 25 q8 12 19.5 21.5 q11.5 9.5 25.5 15.5 q14 6 27 6 l240 0 l13 71 l-112 0 q-13 0 -25 5.5 q-12 5.5 -21 15 q-9 9.5 -13 21.5 q-4 11 -2 22 q-40 -22 -80 -41 q-15 -8 -32 -8 q-10 0 -29 5 q-19 5 -29 24 ZM6 7 q0 10 7 33 q7 23 40 47 q25 17 48.5 35.5 q23.5 18.5 43.5 37.5 q16 14 35.5 19.5 q19.5 5.5 31.5 5.5 q11 0 19 -3 l1 -1 q15 -6 23.5 -18 q8.5 -12 10 -26.5 q1.5 -14.5 -4.5 -30 q-6 -15.5 -20 -28.5 q-31 -29 -64.5 -56.5 q-33.5 -27.5 -66.5 -51.5 q-20 -15 -47 -15 q-1 0 -15.5 0.5 q-14.5 0.5 -26.5 14.5 q-15 16 -15 37 Z" /><glyph glyph-name="uni4F5B" unicode="&#x4f5b;" d="M776 512 l35 0 q2 0 4.5 2 q2.5 2 3.5 5 l10 59 q0 3 -1.5 5 q-1.5 2 -3.5 2 l-35 0 l-13 -73 ZM607 512 l43 0 l13 73 l-43 0 l-13 -73 ZM574 322 l43 0 l12 68 l-43 0 l-9 -50 q-2 -9 -3 -18 ZM405 322 l43 0 q1 9 3 18 l9 52 q-5 1 -9 4 q-11 5 -20 13 q-10 -33 -19 -66 q-4 -11 -7 -21 ZM242 -42 q0 14 13.5 38.5 q13.5 24.5 46.5 51.5 q37 28 61.5 57.5 q24.5 29.5 40.5 64.5 q7 14 13 30 l-32 0 q-17 0 -30 7 q-5 2 -9 5 q-18 -12 -34 -12 q-14 0 -25 7.5 q-11 7.5 -17 19.5 q-6 12 -6.5 21 q-0.5 9 -0.5 12 q0 13 4 26 q14 38 27 79.5 q13 41.5 25 81.5 q7 25 30 45 q23 20 44 20 q13 0 23.5 -7 q10.5 -7 16.5 -18 q1 -1 1 -3 q5 5 11 9 q17 13 36 17 l13 75 l-81 0 q-14 0 -26 5.5 q-12 5.5 -21 14 q-9 8.5 -13 19.5 q-4 11 -2 22 q4 23 30 42 q26 19 53 19 l82 0 l11 63 q2 14 10 27 q8 13 19 23.5 q11 10.5 23 16.5 q12 6 24 6 q24 0 37.5 -20 q13.5 -20 13.5 -40 q0 -7 -1 -13 l-11 -63 l43 0 l11 64 q2 13 10 26 q8 13 18.5 23 q10.5 10 22.5 16 q12 6 24 6 q12 0 22.5 -6 q10.5 -6 17.5 -16 q7 -10 10 -23 q3 -13 1 -26 l-11 -64 l96 0 q14 0 25.5 -6 q11.5 -6 20 -16.5 q8.5 -10.5 12 -23 q3.5 -12.5 1.5 -26.5 l-31 -173 q-2 -13 -10 -26 q-8 -13 -20.5 -23.5 q-12.5 -10.5 -26.5 -16.5 q-14 -6 -28 -6 l-95 0 l-12 -68 l124 0 q6 0 12 -1 q19 -2 35 -11 q18 -10 18 -22 q0 -2 -1 -4 l-2 -10 l0 -2 q0 -6 -1 -11 q-1 -5 -3 -10 q-8 -42 -14 -75 q-9 -42 -17 -72 q-8 -30 -16 -49 q-8 -19 -17 -29 q-16 -17 -31.5 -24.5 q-15.5 -7.5 -33.5 -11.5 q-5 -1 -9.5 -1.5 q-4.5 -0.5 -10.5 -1.5 q-5 -1 -9 -1 q-21 0 -39 13 q-18 13 -19 30 q0 29 8 50 q8 21 25 21 q7 -1 12.5 1.5 q5.5 2.5 11.5 8.5 q4 5 8.5 17 q4.5 12 9.5 35 l7 38 l-70 0 l-39 -223 q-2 -13 -10 -26 q-8 -13 -18 -23 q-10 -10 -23 -16 q-13 -6 -25 -6 q-12 0 -21.5 6 q-9.5 6 -17 16 q-7.5 10 -10.5 23 q-3 13 -1 26 l39 223 l-51 0 q-17 -52 -41 -98 q-28 -54 -69.5 -99 q-41.5 -45 -102.5 -78 q-17 -9 -36 -9 q-5 0 -20.5 2 q-15.5 2 -24.5 16 q-8 11 -8 24 ZM27 458 q0 13 6 34 q6 21 23 38 q55 53 106 119 q51 66 94 138 q7 12 19 21.5 q12 9.5 25.5 15.5 q13.5 6 27.5 8 q14 2 25 -2 q14 -4 22.5 -14 q8.5 -10 12 -23.5 q3.5 -13.5 2.5 -28 q-1 -14.5 -9 -27.5 q-40 -66 -86 -131 l-111 -629 q-2 -13 -10.5 -26 q-8.5 -13 -19.5 -23 q-11 -10 -25 -16 q-14 -6 -27 -6 q-13 0 -23.5 6 q-10.5 6 -19 16.5 q-8.5 10.5 -12 23 q-3.5 12.5 -1.5 26.5 l74 420 q-5 -3 -10 -5 q-11 -4 -22 -4 q-4 0 -14 1.5 q-10 1.5 -22 12 q-12 10.5 -18 28.5 q-2 2 -2 4 q0 2 -2 4 q-3 9 -3 19 Z" /><glyph glyph-name="uni4F5C" unicode="&#x4f5c;" d="M353 423 q-9 10 -12 24 q-3 14 0 29.5 q3 15.5 10 31 q7 15.5 18 27.5 q49 52 94 115 q45 63 83 132 q7 12 18.5 22 q11.5 10 24.5 17 q13 7 27.5 9.5 q14.5 2.5 25.5 -0.5 q14 -4 23 -13.5 q9 -9.5 14 -22.5 q5 -13 4 -27.5 q-1 -14.5 -10 -28.5 l-26 -44 l301 0 q14 0 25.5 -6 q11.5 -6 20.5 -15.5 q9 -9.5 12.5 -22 q3.5 -12.5 1.5 -25.5 q-2 -13 -10 -25 q-8 -12 -20 -22 q-12 -10 -26 -16 q-14 -6 -27 -6 l-200 0 l-15 -83 l172 0 q14 0 25.5 -5.5 q11.5 -5.5 20.5 -15 q9 -9.5 13 -21.5 q4 -12 2 -24 q-2 -12 -10.5 -24 q-8.5 -12 -20.5 -21.5 q-12 -9.5 -25.5 -15 q-13.5 -5.5 -27.5 -5.5 l-172 0 l-16 -90 l185 0 q14 0 25.5 -6 q11.5 -6 20.5 -15.5 q9 -9.5 13 -21.5 q4 -12 1 -24 q-2 -13 -10 -25 q-8 -12 -20 -21.5 q-12 -9.5 -26 -15.5 q-14 -6 -28 -6 l-185 0 l-24 -138 q-2 -14 -10.5 -27 q-8.5 -13 -21 -23.5 q-12.5 -10.5 -26.5 -16.5 q-14 -6 -28 -6 l-4 0 q-14 0 -26 6 q-12 6 -20.5 16.5 q-8.5 10.5 -12 23.5 q-3.5 13 -1.5 27 l102 578 l-19 0 q-48 -66 -97 -120 q-11 -13 -26 -20 q-15 -7 -29.5 -8.5 q-14.5 -1.5 -28 2.5 q-13.5 4 -22.5 13 ZM37 456 q0 14 6.5 36 q6.5 22 23.5 39 q54 53 105 118.5 q51 65.5 94 137.5 q7 12 19 21.5 q12 9.5 25.5 15.5 q13.5 6 28 8 q14.5 2 25.5 -2 l2 -1 q13 -4 22.5 -14.5 q9.5 -10.5 13 -23.5 q3.5 -13 2 -28 q-1.5 -15 -9.5 -28 q-41 -67 -87 -133 l-110 -624 q-2 -14 -10.5 -26.5 q-8.5 -12.5 -20 -23 q-11.5 -10.5 -26 -16.5 q-14.5 -6 -27.5 -6 l-5 0 q-13 0 -24.5 6 q-11.5 6 -20 16.5 q-8.5 10.5 -12 23 q-3.5 12.5 -1.5 26.5 l73 411 q-2 0 -3 -1 q-11 -4 -21 -4 q-5 0 -15 2 q-10 2 -22 12.5 q-12 10.5 -18 27.5 q-1 3 -1.5 5.5 q-0.5 2.5 -2.5 5.5 q-3 9 -3 19 Z" /></font>
</defs>
</svg>
