<?xml version="1.0" standalone="no"?><!DOCTYPE svg PUBLIC "-//W3C//DTD SVG 1.1//EN" "http://www.w3.org/Graphics/SVG/1.1/DTD/svg11.dtd" ><svg xmlns="http://www.w3.org/2000/svg"><metadata></metadata><defs><font id="JetBrainsMapleMono-MediumItalic-1.2304.70" horiz-adv-x="1200"><font-face font-family="JetBrains Maple Mono Medium" font-weight="500" font-stretch="normal" units-per-em="1000" panose-1="2 0 0 9 0 0 0 0 0 0" ascent="1020" descent="-300" x-height="0" bbox="-7 -180 1138 870" underline-thickness="50" underline-position="-155" unicode-range="U+0022-9f99" /><missing-glyph horiz-adv-x="600" d="M160 50 l300 0 l0 571 l-300 -571 ZM140 109 l300 571 l-300 0 l0 -571 ZM90 0 l0 730 l420 0 l0 -730 l-420 0 Z" /><glyph glyph-name="quotedbl" unicode="&quot;" d="M168 430 l40 300 l110 0 l-55 -300 l-95 0 ZM386 430 l40 300 l110 0 l-55 -300 l-95 0 Z" /><glyph glyph-name="dollar" unicode="$" d="M302 80 q48 7 79 35.5 q31 28.5 38 74.5 q2 11 2 21 q0 30 -18 58 q-18 28 -63 39 l1 13 l-39 -241 ZM227 530 q0 -30 15.5 -56.5 q15.5 -26.5 55.5 -40.5 l34 217 q-42 -6 -69 -32 q-27 -26 -34 -67 q-2 -11 -2 -21 ZM52 155 q0 18 3 37 l99 0 q-2 -11 -2 -21 q0 -33 20 -58.5 q20 -25.5 70 -32.5 l39 249 l-23 7 q-74 23 -103.5 71 q-29.5 48 -29.5 100 q0 17 3 36 q13 82 72 134.5 q59 52.5 146 60.5 l21 132 l61 0 l-21 -131 q84 -8 122 -54.5 q38 -46.5 38 -105.5 q0 -17 -3 -35 l-99 0 q2 12 2 22 q0 28 -16 52.5 q-16 24.5 -58 31.5 l-37 -236 l36 -12 q73 -23 101 -70.5 q28 -47.5 28 -99.5 q0 -19 -3 -40 q-13 -83 -75.5 -137.5 q-62.5 -54.5 -153.5 -63.5 l-21 -131 l-61 0 l21 131 q-94 8 -135 55 q-41 47 -41 109 Z" /><glyph glyph-name="comma" unicode="," d="M135 -160 l102 306 l119 0 l-119 -306 l-102 0 Z" /><glyph glyph-name="hyphen" unicode="-" d="M139 286 l14 89 l325 0 l-14 -89 l-325 0 Z" /><glyph glyph-name="period" unicode="." d="M181 58 q0 8 1 16 q6 39 33.5 63 q27.5 24 66.5 24 q38 0 58 -24 q15 -18 14 -45 q0 -8 -1 -18 q-6 -37 -33.5 -60.5 q-27.5 -23.5 -65.5 -23.5 q-38 0 -58 24 q-15 18 -15 44 Z" /><glyph glyph-name="zero" unicode="0" d="M252 354 q0 6 1 14 q4 28 23.5 42.5 q19.5 14.5 46.5 14.5 q28 0 41 -13 q13 -13 13 -33 q0 -5 -1 -11 q-5 -28 -24 -43.5 q-19 -15.5 -47 -15.5 q-28 0 -40.5 13.5 q-12.5 13.5 -12.5 31.5 ZM158 180 q0 -41 26 -73 q26 -32 84 -32 q58 0 99 36.5 q41 36.5 49 94.5 l51 318 q2 14 2 26 q0 40 -25.5 72.5 q-25.5 32.5 -83.5 32.5 q-58 0 -99 -36.5 q-41 -36.5 -50 -94.5 l-51 -318 q-2 -14 -2 -26 ZM62 163 q0 21 3 43 l51 318 q16 103 83.5 159.5 q67.5 56.5 173.5 56.5 q103 0 148 -51.5 q45 -51.5 45 -119.5 q0 -21 -4 -45 l-51 -318 q-16 -103 -83 -159.5 q-67 -56.5 -174 -56.5 q-103 0 -147.5 52 q-44.5 52 -44.5 121 Z" /><glyph glyph-name="one" unicode="1" d="M45 0 l14 90 l196 0 l87 548 l-219 -146 l17 115 l186 123 l129 0 l-101 -640 l159 0 l-14 -90 l-454 0 Z" /><glyph glyph-name="two" unicode="2" d="M39 0 l14 91 l290 262 q55 51 82.5 92 q27.5 41 33.5 81 q2 14 2 27 q0 39 -23.5 69 q-23.5 30 -80.5 30 q-58 0 -98 -35 q-40 -35 -49 -95 l-99 0 q19 104 87.5 161 q68.5 57 172.5 57 q102 0 147.5 -51.5 q45.5 -51.5 45.5 -119.5 q0 -20 -3 -42 q-9 -53 -44 -110.5 q-35 -57.5 -113 -126.5 l-224 -200 l320 0 l-14 -90 l-447 0 Z" /><glyph glyph-name="three" unicode="3" d="M52 158 q0 20 3 42 l99 0 q-2 -14 -2 -26 q0 -39 25 -67.5 q25 -28.5 82 -28.5 q58 0 96.5 32.5 q38.5 32.5 48.5 89.5 l8 51 q2 14 2 26 q0 39 -25 68.5 q-25 29.5 -83 29.5 l-82 0 l14 83 l203 183 l-294 0 l14 89 l407 0 l-15 -90 l-200 -180 q87 -9 124 -57 q37 -48 37 -110 q0 -20 -3 -42 l-8 -51 q-16 -100 -84 -155 q-68 -55 -175 -55 q-103 0 -147.5 50 q-44.5 50 -44.5 118 Z" /><glyph glyph-name="four" unicode="4" d="M48 156 l24 151 l334 423 l116 0 l-357 -451 l-6 -34 l231 0 l29 175 l99 0 l-68 -420 l-99 0 l25 156 l-328 0 Z" /><glyph glyph-name="five" unicode="5" d="M56 157 q0 20 4 43 l99 0 q-3 -15 -3 -28 q0 -37 25 -65.5 q25 -28.5 83 -28.5 q57 0 96 33 q39 33 48 90 l7 46 q2 14 2 27 q0 38 -24 67 q-24 29 -80 29 l-202 0 l58 360 l396 0 l-15 -90 l-303 0 l-28 -181 l113 0 q101 0 143.5 -49 q42.5 -49 42.5 -116 q0 -22 -4 -47 l-7 -46 q-16 -100 -84 -155.5 q-68 -55.5 -174 -55.5 q-102 0 -147.5 50.5 q-45.5 50.5 -45.5 116.5 Z" /><glyph glyph-name="six" unicode="6" d="M149 193 q0 -44 28 -80 q28 -36 91 -36 q63 0 108.5 41 q45.5 41 55.5 107 q3 17 3 32 q0 45 -28.5 81 q-28.5 36 -91.5 36 q-63 0 -108 -41 q-45 -41 -55 -108 q-3 -17 -3 -32 ZM49 178 q0 23 4 47 q7 47 33.5 98.5 q26.5 51.5 66.5 107.5 l214 299 l114 0 l-232 -315 l3 -2 q33 37 101 37 q61 0 104.5 -29 q43.5 -29 60 -71 q16.5 -42 16.5 -82 q0 -20 -3 -41 q-18 -110 -91.5 -173.5 q-73.5 -63.5 -184.5 -63.5 q-72 0 -121 29.5 q-49 29.5 -67 73.5 q-18 44 -18 85 Z" /><glyph glyph-name="seven" unicode="7" d="M117 523 l33 207 l472 0 l-15 -91 l-361 -639 l-112 0 l363 641 l-262 0 l-19 -118 l-99 0 Z" /><glyph glyph-name="eight" unicode="8" d="M221 515 q0 -35 24.5 -63 q24.5 -28 77.5 -28 q54 0 91.5 32 q37.5 32 46.5 83 q2 11 2 22 q0 36 -25 64.5 q-25 28.5 -78 28.5 q-53 0 -91 -32 q-38 -32 -46 -83 q-2 -13 -2 -24 ZM148 184 q0 -42 29 -74.5 q29 -32.5 91 -32.5 q62 0 106.5 36.5 q44.5 36.5 53.5 94.5 q2 12 2 24 q0 42 -29.5 74.5 q-29.5 32.5 -90.5 32.5 q-62 0 -106.5 -36.5 q-44.5 -36.5 -53.5 -94.5 q-2 -12 -2 -24 ZM48 168 q0 18 3 37 q11 68 57.5 118 q46.5 50 110.5 61 l0 3 q-51 12 -73.5 50.5 q-22.5 38.5 -22.5 77.5 q0 15 3 31 q14 90 80.5 142 q66.5 52 166.5 52 q64 0 109 -25 q45 -25 63 -62 q18 -37 18 -74 q0 -16 -3 -33 q-10 -58 -50 -102.5 q-40 -44.5 -95 -56.5 l0 -3 q60 -11 86.5 -54 q26.5 -43 26.5 -88 q0 -18 -3 -37 q-10 -66 -46.5 -114 q-36.5 -48 -94 -74.5 q-57.5 -26.5 -130.5 -26.5 q-70 0 -119 27.5 q-49 27.5 -68 68.5 q-19 41 -19 82 Z" /><glyph glyph-name="nine" unicode="9" d="M203 475 q0 -46 28 -82.5 q28 -36.5 91 -36.5 q63 0 108.5 41 q45.5 41 55.5 108 q3 17 3 32 q0 45 -28.5 80.5 q-28.5 35.5 -91.5 35.5 q-63 0 -108 -41 q-45 -41 -56 -107 q-2 -16 -2 -30 ZM103 459 q0 21 4 44 q17 110 91 173.5 q74 63.5 185 63.5 q71 0 120.5 -29.5 q49.5 -29.5 67.5 -73.5 q18 -44 18 -87 q0 -22 -4 -45 q-8 -47 -34.5 -98.5 q-26.5 -51.5 -66.5 -107.5 l-214 -299 l-113 0 l232 315 l-3 2 q-34 -37 -102 -37 q-61 0 -104.5 29 q-43.5 29 -60 70.5 q-16.5 41.5 -16.5 79.5 Z" /><glyph glyph-name="colon" unicode=":" d="M246 470 q0 6 1 13 q5 35 32 56 q27 21 66 21 q39 0 59 -21 q15 -16 15 -41 q0 -7 -1 -15 q-5 -35 -32 -56 q-27 -21 -66 -21 q-38 0 -58 21 q-16 17 -16 43 ZM180 52 q0 7 1 15 q5 35 32 56.5 q27 21.5 66 21.5 q38 1 58 -21 q16 -17 16 -44 q0 -6 -1 -13 q-5 -35 -32 -56 q-27 -21 -66 -21 q-39 0 -59 21 q-15 17 -15 41 Z" /><glyph glyph-name="semicolon" unicode=";" d="M244 469 q0 7 1 14 q6 33 31.5 55 q25.5 22 58.5 22 l20 0 q33 0 51 -22 q15 -17 15 -41 q0 -7 -1 -14 q-6 -34 -31 -55.5 q-25 -21.5 -59 -21.5 l-20 0 q-34 0 -52 22 q-14 18 -14 41 ZM97 -160 l129 311 l138 0 l-179 -311 l-88 0 Z" /><glyph glyph-name="A" unicode="A" d="M215 272 l175 0 l-19 218 q-5 60 -7.5 102 q-2.5 42 -2.5 57 q-4 -15 -19 -57 q-15 -42 -39 -101 l-88 -219 ZM2 0 l305 730 l131 0 l72 -730 l-97 0 l-16 190 l-214 0 l-76 -190 l-105 0 Z" /><glyph glyph-name="B" unicode="B" d="M208 422 l113 0 q56 0 93 29.5 q37 29.5 46 80.5 q2 12 2 22 q0 36 -22 60 q-28 30 -82 29 l-115 0 l-35 -221 ZM155 87 l120 0 q61 0 101 32.5 q40 32.5 50 88.5 q2 12 2 24 q0 42 -24 70 q-30 36 -90 36 l-119 0 l-40 -251 ZM45 0 l116 730 l211 0 q101 0 151 -50 q40 -40 40 -104 q0 -17 -3 -35 q-6 -38 -27.5 -71 q-21.5 -33 -54 -55.5 q-32.5 -22.5 -70.5 -29.5 l-1 -3 q63 -8 95 -58 q24 -38 24 -86 q0 -16 -3 -34 q-15 -95 -82.5 -149.5 q-67.5 -54.5 -170.5 -54.5 l-225 0 Z" /><glyph glyph-name="C" unicode="C" d="M73 159 q0 20 3 43 l52 327 q16 100 82 155.5 q66 55.5 171 55.5 q65 0 110 -26.5 q45 -26.5 65 -74.5 q13 -32 13 -70 q0 -19 -3 -40 l-99 0 q2 14 2 27 q0 38 -20 62 q-27 34 -82 34 q-56 0 -94 -33.5 q-38 -33.5 -46 -89.5 l-52 -327 q-2 -14 -2 -27 q0 -37 20 -63 q27 -34 83 -34 q56 0 93.5 33.5 q37.5 33.5 46.5 90.5 l99 0 q-17 -101 -83 -156.5 q-66 -55.5 -170 -55.5 q-101 0 -151 57 q-38 44 -38 112 Z" /><glyph glyph-name="D" unicode="D" d="M157 89 l97 0 q63 0 104.5 35.5 q41.5 35.5 51.5 97.5 l46 287 q2 15 2 29 q0 42 -23 68 q-31 35 -94 35 l-97 0 l-87 -552 ZM44 0 l116 730 l196 0 q107 0 161 -60 q42 -47 42 -117 q0 -21 -4 -44 l-46 -287 q-10 -67 -47 -117 q-37 -50 -94 -77.5 q-57 -27.5 -128 -27.5 l-196 0 Z" /><glyph glyph-name="E" unicode="E" d="M53 0 l116 730 l425 0 l-15 -89 l-327 0 l-34 -217 l292 0 l-14 -88 l-292 0 l-39 -247 l327 0 l-15 -89 l-424 0 Z" /><glyph glyph-name="F" unicode="F" d="M47 0 l116 730 l436 0 l-14 -91 l-339 0 l-37 -230 l313 0 l-15 -90 l-310 0 l-51 -319 l-99 0 Z" /><glyph glyph-name="G" unicode="G" d="M68 157 q0 21 4 45 l52 327 q17 100 83 155.5 q66 55.5 170 55.5 q65 0 109 -26 q46 -27 66 -75 q14 -32 13 -71 q0 -19 -3 -39 l-99 0 q2 14 2 27 q0 38 -20 62 q-27 34 -82 34 q-56 0 -94 -33 q-38 -33 -47 -90 l-51 -327 q-2 -14 -2 -27 q0 -39 20 -64 q27 -33 83 -33 q56 0 93 33 q37 33 47 91 l15 95 l-142 0 l14 88 l241 0 l-29 -183 q-17 -101 -83 -156.5 q-66 -55.5 -170 -55.5 q-102 0 -152 57 q-38 43 -38 110 Z" /><glyph glyph-name="H" unicode="H" d="M45 0 l116 730 l99 0 l-49 -308 l224 0 l49 308 l99 0 l-116 -730 l-99 0 l52 332 l-224 0 l-52 -332 l-99 0 Z" /><glyph glyph-name="I" unicode="I" d="M57 0 l14 89 l149 0 l87 552 l-148 0 l14 89 l398 0 l-14 -89 l-149 0 l-87 -552 l148 0 l-14 -89 l-398 0 Z" /><glyph glyph-name="J" unicode="J" d="M27 166 q0 22 4 46 l99 0 q-3 -17 -3 -31 q-1 -42 21 -68 q28 -35 90 -35 q60 0 100.5 35.5 q40.5 35.5 50.5 97.5 l83 519 l99 0 l-83 -519 q-17 -105 -86 -163 q-69 -58 -178 -58 q-105 0 -157 60 q-40 46 -40 116 Z" /><glyph glyph-name="K" unicode="K" d="M44 0 l116 730 l99 0 l-49 -308 l100 0 l205 308 l110 0 l-233 -355 l126 -375 l-109 0 l-110 334 l-103 0 l-53 -334 l-99 0 Z" /><glyph glyph-name="L" unicode="L" d="M84 0 l116 730 l99 0 l-102 -640 l325 0 l-15 -90 l-423 0 Z" /><glyph glyph-name="M" unicode="M" d="M24 0 l116 730 l138 0 l40 -315 l143 315 l144 0 l-116 -730 l-95 0 l53 335 q9 53 21 117.5 q12 64.5 25.5 129 q13.5 64.5 26.5 116.5 l-173 -374 l-84 0 l-52 365 q-7 -148 -40 -354 l-53 -335 l-94 0 Z" /><glyph glyph-name="N" unicode="N" d="M42 0 l116 730 l127 0 l121 -616 q2 26 5.5 64.5 q3.5 38.5 8 80 q4.5 41.5 10.5 78.5 l63 393 l94 0 l-117 -730 l-127 0 l-120 616 q-2 -26 -5.5 -63.5 q-3.5 -37.5 -8.5 -78.5 q-5 -41 -11 -77 l-63 -397 l-93 0 Z" /><glyph glyph-name="O" unicode="O" d="M169 172 q0 -39 18 -62 q25 -32 81 -32 q57 0 92.5 32 q35.5 32 44.5 92 l52 327 q2 16 2 29 q0 38 -18 62 q-25 32 -82 32 q-57 0 -92 -32 q-35 -32 -45 -91 l-51 -327 q-2 -16 -2 -30 ZM69 161 q0 20 3 41 l52 327 q16 100 81 155.5 q65 55.5 168 55.5 q64 0 109 -26 q44 -26 64 -74 q13 -32 13 -71 q0 -19 -3 -40 l-52 -327 q-16 -101 -81.5 -156.5 q-65.5 -55.5 -168.5 -55.5 q-64 0 -108 26 q-44 26 -64 74 q-12 32 -13 71 Z" /><glyph glyph-name="P" unicode="P" d="M204 384 l138 0 q57 0 97.5 35 q40.5 35 49.5 93 q2 14 2 27 q0 41 -22 67 q-29 35 -86 35 l-138 0 l-41 -257 ZM44 0 l116 730 l237 0 q105 0 157 -59 q41 -46 40 -117 q0 -20 -3 -42 q-11 -66 -47 -114.5 q-36 -48.5 -91 -75.5 q-55 -27 -125 -27 l-138 0 l-47 -295 l-99 0 Z" /><glyph glyph-name="Q" unicode="Q" d="M162 179 q0 -41 21 -67 q28 -34 85 -34 q58 0 96.5 34.5 q38.5 34.5 47.5 93.5 l51 318 q2 15 2 28 q-1 40 -21 66 q-28 35 -84 35 q-57 0 -96.5 -35 q-39.5 -35 -48.5 -94 l-51 -318 q-2 -14 -2 -27 ZM61 162 q0 21 4 44 l51 318 q10 66 45 114.5 q35 48.5 89.5 75 q54.5 26.5 122.5 26.5 q101 0 153 -58 q39 -45 40 -113 q0 -21 -4 -45 l-51 -318 q-11 -68 -48.5 -118 q-37.5 -50 -94.5 -75 l86 -193 l-105 0 l-76 171 q-10 -1 -19 -1 q-102 0 -154 59 q-40 45 -39 113 Z" /><glyph glyph-name="R" unicode="R" d="M205 393 l129 0 q55 0 93 34 q38 34 47 90 q2 14 2 27 q0 39 -20 64 q-28 34 -83 34 l-129 0 l-39 -249 ZM45 0 l116 730 l226 0 q67 0 113 -26 q46 -27 66 -75 q14 -32 13 -71 q0 -19 -3 -40 q-11 -73 -55 -126 q-44 -53 -114 -76 l97 -316 l-105 0 l-91 305 l-117 0 l-48 -305 l-98 0 Z" /><glyph glyph-name="S" unicode="S" d="M53 162 q0 19 3 40 l99 0 q-2 -13 -2 -24 q0 -41 25 -67 q32 -33 94 -33 q60 0 101 34 q41 34 50 89 q1 10 1 20 q0 30 -13 54 q-18 32 -58 44 l-103 29 q-68 20 -101 72 q-25 39 -25 88 q0 17 3 35 q15 93 78.5 145 q63.5 52 164.5 52 q63 0 107.5 -25 q44.5 -25 65.5 -69 q15 -31 15 -68 q0 -16 -3 -33 l-99 0 q2 11 2 21 q0 34 -22 57 q-28 30 -79 30 q-52 0 -88.5 -30 q-36.5 -30 -43.5 -78 q-2 -11 -2 -22 q0 -25 12 -45 q17 -28 54 -37 l105 -31 q70 -20 104 -76 q25 -41 25 -93 q0 -19 -3 -40 q-16 -100 -85 -155.5 q-69 -55.5 -177 -55.5 q-107 0 -162 56 q-43 44 -43 116 Z" /><glyph glyph-name="T" unicode="T" d="M110 639 l15 91 l494 0 l-14 -91 l-198 0 l-101 -639 l-99 0 l101 639 l-198 0 Z" /><glyph glyph-name="U" unicode="U" d="M70 155 q0 22 4 47 l84 528 l99 0 l-84 -528 q-3 -17 -3 -32 q0 -35 16 -59 q24 -33 82 -33 q58 0 92 33 q34 33 44 91 l84 528 l99 0 l-84 -528 q-16 -99 -80.5 -155.5 q-64.5 -56.5 -168.5 -56.5 q-104 0 -150 57 q-34 43 -34 108 Z" /><glyph glyph-name="V" unicode="V" d="M118 730 l100 0 l43 -491 q4 -47 6.5 -91 q2.5 -44 2.5 -67 q7 23 22 67 q15 44 34 91 l198 491 l102 0 l-304 -730 l-133 0 l-71 730 Z" /><glyph glyph-name="W" unicode="W" d="M59 0 l32 730 l85 0 l-31 -532 q-1 -32 -4.5 -68.5 q-3.5 -36.5 -6.5 -59.5 q6 23 15 59.5 q9 36.5 18 68.5 l155 532 l99 0 l-20 -532 q-2 -32 -3.5 -68.5 q-1.5 -36.5 -2.5 -59.5 q5 23 13.5 59.5 q8.5 36.5 16.5 68.5 l140 532 l88 0 l-202 -730 l-120 0 l23 540 q1 33 4 67.5 q3 34.5 5 55.5 q-6 -21 -13.5 -55.5 q-7.5 -34.5 -17.5 -67.5 l-154 -540 l-119 0 Z" /><glyph glyph-name="X" unicode="X" d="M-7 0 l266 373 l-139 357 l109 0 l75 -208 q6 -18 13 -37 q7 -19 11 -29 q6 10 17.5 29 q11.5 19 23.5 37 l142 208 l113 0 l-252 -356 l147 -374 l-108 0 l-85 224 q-7 18 -13 37.5 q-6 19.5 -9 31.5 q-7 -12 -19 -31.5 q-12 -19.5 -23 -36.5 l-156 -225 l-113 0 Z" /><glyph glyph-name="Y" unicode="Y" d="M104 730 l101 0 l88 -288 q9 -26 13 -47 q4 -21 5 -30 q4 9 15 30 q11 21 27 47 l180 288 l107 0 l-292 -459 l-42 -271 l-99 0 l42 271 l-145 459 Z" /><glyph glyph-name="Z" unicode="Z" d="M40 0 l15 98 l403 541 l-312 0 l15 91 l417 0 l-16 -97 l-402 -542 l327 0 l-15 -91 l-432 0 Z" /><glyph glyph-name="underscore" unicode="_" d="M-1 -110 l13 85 l480 0 l-13 -85 l-480 0 Z" /><glyph glyph-name="a" unicode="a" d="M163 173 q0 -38 16 -63 q22 -34 69 -34 q47 0 80.5 34 q33.5 34 42.5 92 l23 147 q3 16 3 30 q0 36 -17 61 q-23 34 -69 34 q-48 0 -81 -34 q-33 -34 -42 -91 l-23 -147 q-2 -15 -2 -29 ZM61 150 q0 22 4 46 l25 158 q10 61 39 107.5 q29 46.5 71 72.5 q42 26 91 26 q56 0 87.5 -31.5 q31.5 -31.5 30.5 -83.5 l2 0 l15 105 l99 0 l-66 -417 q-1 -4 -1 -8 q0 -14 8 -24 q10 -12 30 -12 l45 0 l-14 -89 l-50 0 q-51 0 -79 32 q-21 25 -22 61 q0 10 2 22 q-19 -57 -66.5 -91 q-47.5 -34 -111.5 -34 q-49 0 -83 26 q-33 26 -47 72 q-8 28 -9 62 Z" /><glyph glyph-name="b" unicode="b" d="M173 173 q1 -39 19 -64 q26 -33 79 -33 q54 0 89 28.5 q35 28.5 45 92.5 l25 156 q3 18 3 33 q0 40 -19 60 q-26 28 -81 28 q-53 0 -89 -33 q-36 -33 -46 -93 l-23 -146 q-2 -15 -2 -29 ZM44 0 l116 730 l99 0 l-26 -158 l-22 -128 q16 55 60.5 85.5 q44.5 30.5 110.5 30.5 q82 0 122 -56 q29 -40 29 -101 q0 -23 -4 -49 l-25 -158 q-15 -98 -71.5 -152 q-56.5 -54 -141.5 -54 q-62 0 -96.5 30.5 q-34.5 30.5 -35.5 85.5 l-17 -106 l-98 0 Z" /><glyph glyph-name="c" unicode="c" d="M70 161 q0 20 3 41 l23 147 q15 100 83 155.5 q68 55.5 174 55.5 q97 0 149 -52 q42 -43 42 -110 q0 -14 -2 -30 l-98 0 q0 6 0 12 q0 42 -24 66 q-28 28 -81 27 q-57 0 -95.5 -32.5 q-38.5 -32.5 -48.5 -91.5 l-23 -147 q-2 -15 -2 -28 q0 -40 21 -64 q28 -32 85 -32 q54 0 90.5 27 q36.5 27 47.5 77 l99 0 q-19 -92 -84.5 -142 q-65.5 -50 -166.5 -50 q-100 0 -152 58 q-40 46 -40 113 Z" /><glyph glyph-name="d" unicode="d" d="M166 164 q0 -40 19 -60 q26 -28 81 -28 q53 0 89.5 33 q36.5 33 45.5 93 l23 146 q2 16 2 29 q0 39 -18 64 q-26 33 -79 33 q-55 0 -90 -28.5 q-35 -28.5 -45 -92.5 l-25 -156 q-3 -18 -3 -33 ZM66 151 q0 21 4 45 l25 158 q15 98 71 152 q56 54 143 54 q60 0 95.5 -31 q35.5 -31 36.5 -85 l18 128 l26 158 l99 0 l-116 -730 l-98 0 l17 107 q-17 -56 -61 -86.5 q-44 -30.5 -108 -30.5 q-80 0 -121 56 q-31 42 -31 105 Z" /><glyph glyph-name="e" unicode="e" d="M184 323 l194 0 q22 0 38 13 q16 13 21 44 q1 9 1 17 q0 33 -23 55 q-29 28 -83 28 q-59 0 -97 -34 q-38 -34 -48 -97 l-3 -26 ZM65 164 q0 22 4 46 l21 130 q17 105 84 162.5 q67 57.5 171 57.5 q64 0 110 -23 q46 -23 68 -63 q16 -30 16 -66 q0 -13 -2 -27 q-11 -66 -54 -99.5 q-43 -33.5 -111 -33.5 l-200 0 l-7 -46 q-3 -16 -3 -30 q0 -39 21 -64 q28 -34 85 -34 q47 0 81 18 q34 18 46 50 l98 0 q-21 -73 -83.5 -112.5 q-62.5 -39.5 -155.5 -39.5 q-99 0 -150 59 q-39 45 -39 115 Z" /><glyph glyph-name="f" unicode="f" d="M0 -180 l14 88 l69 0 q82 0 95 78 l58 359 l-168 0 l14 90 l169 0 l21 134 q12 74 66 117.5 q54 43.5 135 43.5 l127 0 l-14 -89 l-127 0 q-75 0 -88 -73 l-21 -133 l211 0 l-15 -90 l-211 0 l-58 -360 q-13 -77 -68 -121 q-55 -44 -140 -44 l-69 0 Z" /><glyph glyph-name="g" unicode="g" d="M174 212 q0 -36 19 -60 q25 -32 80 -32 q53 0 89.5 33 q36.5 33 45.5 93 l16 103 q2 15 2 29 q0 39 -18 63 q-26 33 -79 33 q-55 0 -90 -31.5 q-35 -31.5 -44 -85.5 l-19 -120 q-2 -13 -2 -25 ZM74 193 q0 23 4 48 l18 113 q14 95 72.5 150.5 q58.5 55.5 143.5 55.5 q58 0 92 -28 q34 -28 37 -77 l1 0 l15 95 l97 0 l-87 -548 q-13 -84 -74 -133 q-61 -49 -152 -49 l-155 0 l14 88 l155 0 q45 0 76 25.5 q31 25.5 38 69.5 l7 46 l17 95 q-18 -51 -61 -79 q-43 -28 -103 -28 q-85 1 -125 55 q-30 40 -30 101 Z" /><glyph glyph-name="h" unicode="h" d="M44 0 l116 730 l99 0 l-29 -180 l-18 -105 l2 0 q15 54 58.5 84.5 q43.5 30.5 106.5 30.5 q82 0 123 -52 q30 -38 30 -95 q0 -21 -4 -45 l-58 -368 l-99 0 l56 353 q2 16 2 29 q0 38 -18 62 q-25 32 -77 32 q-53 0 -90 -33.5 q-37 -33.5 -46 -93.5 l-55 -349 l-99 0 Z" /><glyph glyph-name="i" unicode="i" d="M35 0 l14 90 l194 0 l59 370 l-170 0 l15 90 l266 0 l-72 -460 l181 0 l-15 -90 l-472 0 ZM310 701 q0 5 1 11 q5 31 27.5 49 q22.5 18 56.5 18 q35 0 52 -18 q13 -14 13 -36 q0 -6 -1 -13 q-5 -30 -27.5 -47.5 q-22.5 -17.5 -56.5 -17.5 q-35 -1 -51 17 q-14 14 -14 37 Z" /><glyph glyph-name="j" unicode="j" d="M15 -180 l14 90 l130 0 q58 0 96 32.5 q38 32.5 48 90.5 l67 427 l-258 0 l14 90 l357 0 l-82 -518 q-16 -101 -83 -156.5 q-67 -55.5 -172 -55.5 l-131 0 ZM376 701 q0 5 1 11 q5 31 27.5 49 q22.5 18 56.5 18 q35 0 52 -18 q13 -14 13 -36 q0 -6 -1 -13 q-5 -30 -27.5 -47.5 q-22.5 -17.5 -56.5 -17.5 q-35 -1 -51 17 q-14 14 -14 37 Z" /><glyph glyph-name="k" unicode="k" d="M49 0 l116 730 l99 0 l-64 -404 l96 0 l184 224 l116 0 l-216 -263 l138 -287 l-110 0 l-115 241 l-107 0 l-38 -241 l-99 0 Z" /><glyph glyph-name="l" unicode="l" d="M87 640 l14 90 l287 0 l-90 -568 q-2 -9 -2 -17 q0 -21 12 -35 q16 -20 47 -20 l167 0 l-14 -90 l-170 0 q-75 0 -113 44 q-29 33 -29 84 q0 16 3 33 l76 479 l-188 0 Z" /><glyph glyph-name="m" unicode="m" d="M13 0 l87 550 l84 0 l-11 -75 l2 0 q10 38 38.5 61.5 q28.5 23.5 66.5 23.5 q37 0 58.5 -21.5 q21.5 -21.5 25.5 -58.5 q12 36 41 58 q29 22 67 22 q52 0 78 -40 q18 -28 18 -67 q0 -17 -3 -35 l-66 -418 l-90 0 l65 417 q1 9 1 17 q0 18 -8 32 q-12 18 -38 19 q-26 0 -44 -18 q-18 -18 -22 -50 l-67 -417 l-80 0 l65 417 q2 9 2 18 q-1 19 -9 31 q-12 18 -37 19 q-26 0 -44.5 -18 q-18.5 -18 -22.5 -50 l-67 -417 l-90 0 Z" /><glyph glyph-name="n" unicode="n" d="M44 0 l87 550 l98 0 l-17 -105 l2 0 q15 54 58.5 84.5 q43.5 30.5 106.5 30.5 q83 0 123 -52 q30 -39 30 -97 q0 -20 -4 -43 l-58 -368 l-99 0 l56 352 q2 16 2 30 q0 39 -18 62 q-25 32 -77 32 q-53 0 -89.5 -33.5 q-36.5 -33.5 -46.5 -93.5 l-55 -349 l-99 0 Z" /><glyph glyph-name="o" unicode="o" d="M169 172 q0 -38 18 -62 q25 -32 81 -32 q56 0 92 31.5 q36 31.5 45 92.5 l23 147 q2 16 2 30 q0 39 -18 62 q-25 32 -81 32 q-56 0 -92 -32 q-36 -32 -45 -92 l-23 -147 q-2 -16 -2 -30 ZM68 159 q0 21 4 43 l23 147 q15 100 80.5 155.5 q65.5 55.5 169.5 55.5 q99 0 149 -57 q38 -44 37 -111 q0 -20 -3 -43 l-24 -147 q-16 -101 -81.5 -156.5 q-65.5 -55.5 -168.5 -55.5 q-99 0 -148 58 q-38 44 -38 111 Z" /><glyph glyph-name="p" unicode="p" d="M173 173 q1 -39 19 -64 q26 -33 79 -33 q54 0 89 28.5 q35 28.5 45 92.5 l25 156 q3 18 3 33 q0 40 -19 60 q-26 28 -81 28 q-53 0 -89.5 -33 q-36.5 -33 -45.5 -93 l-23 -146 q-2 -15 -2 -29 ZM15 -180 l116 730 l98 0 l-17 -106 q17 55 60.5 85.5 q43.5 30.5 109.5 30.5 q80 0 120 -56 q30 -42 31 -105 q0 -21 -4 -45 l-25 -157 q-15 -99 -71 -153 q-56 -54 -142 -54 q-60 0 -95.5 31.5 q-35.5 31.5 -35.5 84.5 l-2 0 l-18 -127 l-26 -159 l-99 0 Z" /><glyph glyph-name="q" unicode="q" d="M169 171 q-1 -39 17 -63 q24 -32 80 -32 q53 0 89.5 33 q36.5 33 45.5 93 l23 146 q2 16 2 29 q0 39 -18 64 q-26 33 -79 33 q-55 0 -90.5 -32.5 q-35.5 -32.5 -44.5 -92.5 l-23 -147 q-2 -17 -2 -31 ZM67 148 q0 23 4 49 l25 157 q15 99 71 152.5 q56 53.5 142 53.5 q59 0 94.5 -31.5 q35.5 -31.5 36.5 -84.5 l17 106 l98 0 l-116 -730 l-99 0 l26 159 l22 125 l-1 0 q-17 -55 -60.5 -84.5 q-43.5 -29.5 -108.5 -29.5 q-82 0 -122 56 q-29 41 -29 102 Z" /><glyph glyph-name="r" unicode="r" d="M64 0 l87 550 l98 0 l-17 -106 l2 0 q16 54 59.5 85 q43.5 31 107.5 31 q85 0 123 -52 q28 -38 28 -98 q0 -23 -4 -50 l-8 -48 l-99 0 l7 47 q3 17 3 31 q0 84 -97 84 q-57 0 -91.5 -33 q-34.5 -33 -44.5 -94 l-55 -347 l-99 0 Z" /><glyph glyph-name="s" unicode="s" d="M58 124 q0 14 2 28 l98 0 q-1 -7 -1 -13 q1 -27 19 -43 q22 -20 70 -21 l44 0 q48 0 78 21 q30 21 36 59 q2 10 2 18 q0 49 -56 57 l-144 21 q-58 9 -84 49 q-19 29 -18 71 q0 15 2 31 q12 76 67.5 116 q55.5 40 147.5 40 l45 0 q82 0 128 -40 q39 -34 40 -89 q0 -8 -1 -17 l-99 0 q2 28 -19.5 46.5 q-21.5 18.5 -61.5 18.5 l-45 0 q-45 0 -72 -20 q-27 -20 -33 -54 q-1 -8 -1 -15 q0 -41 46 -47 l135 -20 q121 -16 121 -125 q0 -19 -4 -41 q-26 -163 -223 -163 l-44 0 q-93 0 -139 42 q-36 34 -36 90 Z" /><glyph glyph-name="t" unicode="t" d="M73 460 l14 90 l156 0 l26 155 l99 0 l-25 -155 l223 0 l-14 -90 l-224 0 l-49 -309 q-1 -6 -1 -12 q0 -19 10 -32 q13 -17 39 -17 l161 0 l-14 -90 l-163 0 q-71 0 -107 41 q-27 31 -27 78 q0 15 3 31 l49 310 l-156 0 Z" /><glyph glyph-name="u" unicode="u" d="M70 158 q0 21 4 44 l55 348 l99 0 l-55 -348 q-2 -16 -2 -30 q0 -38 18 -62 q25 -32 78 -33 q54 0 90.5 32.5 q36.5 32.5 45.5 92.5 l55 348 l99 0 l-55 -348 q-16 -101 -81 -156.5 q-65 -55.5 -168 -55.5 q-97 0 -145 57 q-38 44 -38 111 Z" /><glyph glyph-name="v" unicode="v" d="M93 550 l101 0 l60 -361 q5 -32 8.5 -62.5 q3.5 -30.5 3.5 -48.5 q5 18 18 48.5 q13 30.5 28 62.5 l173 361 l109 0 l-274 -550 l-128 0 l-99 550 Z" /><glyph glyph-name="w" unicode="w" d="M70 550 l82 0 l-5 -375 q-1 -25 -3 -54 q-2 -29 -3 -47 q4 18 11.5 47 q7.5 29 16.5 54 l125 375 l94 0 l7 -375 q0 -25 -1 -53.5 q-1 -28.5 -2 -47.5 q4 19 12 47.5 q8 28.5 15 53.5 l115 375 l82 0 l-180 -550 l-106 0 l-2 370 q0 27 1.5 60 q1.5 33 2.5 52 q-4 -19 -13.5 -52 q-9.5 -33 -18.5 -60 l-121 -370 l-107 0 l-2 550 Z" /><glyph glyph-name="x" unicode="x" d="M7 0 l235 286 l-136 264 l113 0 l74 -161 q5 -12 10 -25 q5 -13 8 -21 q4 8 12.5 21 q8.5 13 16.5 25 l124 161 l117 0 l-220 -271 l144 -279 l-112 0 l-82 173 q-5 11 -10.5 25.5 q-5.5 14.5 -8.5 23.5 q-6 -9 -15 -23.5 q-9 -14.5 -18 -25.5 l-136 -173 l-116 0 Z" /><glyph glyph-name="y" unicode="y" d="M75 190 q0 20 4 42 l51 318 l99 0 l-49 -307 q-2 -14 -2 -26 q0 -37 18 -61 q24 -32 77 -32 q54 0 90.5 33.5 q36.5 33.5 46.5 94.5 l47 298 l99 0 l-90 -565 q-13 -77 -68 -121 q-55 -44 -140 -44 l-176 0 l14 88 l176 0 q83 0 95 78 l11 67 l17 102 l-2 0 q-15 -55 -58 -85 q-43 -30 -106 -30 q-82 0 -123 52 q-31 39 -31 98 Z" /><glyph glyph-name="z" unicode="z" d="M43 0 l15 96 l357 365 l-291 0 l14 89 l407 0 l-15 -96 l-362 -365 l315 0 l-14 -89 l-426 0 Z" /><glyph glyph-name="braceleft" unicode="{" d="M80 315 l13 89 l119 0 q60 0 83 23 q23 23 26 73 l11 162 q5 79 63.5 123.5 q58.5 44.5 147.5 44.5 l51 0 l-14 -89 l-46 0 q-45 0 -73 -21 q-28 -21 -30 -61 l-11 -162 q-4 -57 -42 -92 q-38 -35 -111 -42 q70 -8 97 -46 q18 -25 18 -58 q0 -17 -5 -36 l-41 -162 q-3 -13 -3 -24 q0 -23 14 -37 q21 -21 66 -21 l46 0 l-14 -89 l-51 0 q-88 0 -133 44 q-31 30 -31 78 q0 22 7 47 l40 161 q5 22 5 38 q0 20 -8 34 q-16 22 -75 23 l-119 0 Z" /><glyph glyph-name="braceright" unicode="}" d="M32 -110 l14 89 l47 0 q44 0 73 21 q29 21 30 61 l2 162 q0 55 35.5 93.5 q35.5 38.5 88.5 47.5 q-50 9 -74 43 q-14 20 -14 47 q0 20 7 43 l49 162 q4 14 4 26 q0 22 -14 35 q-22 21 -66 21 l-47 0 l14 89 l51 0 q58 0 100 -20 q42 -20 58 -58 q8 -18 8 -40 q0 -23 -9 -50 l-49 -162 q-7 -23 -7 -41 q0 -20 9 -32 q17 -23 77 -23 l127 0 l-13 -89 l-127 0 q-60 0 -85 -22.5 q-25 -22.5 -25 -72.5 l-2 -161 q-1 -53 -29 -91 q-28 -38 -75.5 -58 q-47.5 -20 -106.5 -20 l-51 0 Z" /><glyph glyph-name="uni3001" unicode="&#x3001;" d="M128 121 q-6 8 -8 17.5 q-2 9.5 0 20 q2 10.5 7.5 20.5 q5.5 10 15.5 17 l13 10 q13 10 32.5 10 q19.5 0 30.5 -11 q32 -34 66 -74.5 q34 -40.5 64 -80.5 q5 -8 5 -17 q0 -9 -1.5 -18.5 q-1.5 -9.5 -7 -18.5 q-5.5 -9 -13.5 -15 l-14 -10 q-8 -6 -18.5 -8.5 q-10.5 -2.5 -20.5 -2 q-10 0.5 -18.5 4.5 q-8.5 4 -13.5 11 q-27 39 -57.5 76.5 q-30.5 37.5 -61.5 68.5 Z" /><glyph glyph-name="uni3002" unicode="&#x3002;" d="M134 81 q0 -11 3.5 -24.5 q3.5 -13.5 14 -26.5 q10.5 -13 26.5 -20.5 q16 -7.5 36 -7.5 q20 0 38.5 7.5 q18.5 7.5 34 20.5 q15.5 13 26 30 q10.5 17 13.5 37 q2 9 2 18 q0 10 -3.5 23.5 q-3.5 13.5 -14 26 q-10.5 12.5 -26.5 20 q-16 7.5 -36 7.5 q-19 0 -38 -7.5 q-19 -7.5 -34.5 -20 q-15.5 -12.5 -26 -30.5 q-10.5 -18 -14.5 -37 q-1 -8 -1 -16 ZM71 69 q0 14 3 28 q5 33 22.5 61.5 q17.5 28.5 43 50 q25.5 21.5 56.5 33.5 q31 12 63 12 q33 0 59 -12 q26 -12 43.5 -33.5 q17.5 -21.5 23 -44 q5.5 -22.5 5.5 -40.5 q0 -13 -2 -27 q-6 -32 -23.5 -61 q-17.5 -29 -42 -50.5 q-24.5 -21.5 -55.5 -33.5 q-31 -12 -64 -12 q-32 0 -58.5 12 q-26.5 12 -44 33.5 q-17.5 21.5 -23.5 44 q-6 22.5 -6 39.5 Z" /><glyph glyph-name="uni300A" unicode="&#x300a;" d="M779 366 q-1 5 0.5 14 q1.5 9 4.5 14 l260 413 q9 16 26 25.5 q17 9.5 28 6.5 q7 -3 11 -9 q4 -6 4.5 -15 q0.5 -9 -1.5 -19 q-2 -10 -8 -19 l-248 -392 q-1 -2 -2 -5 q-1 -3 0 -5 l110 -392 q3 -9 1.5 -19 q-1.5 -10 -5.5 -19 q-4 -9 -10 -15 q-6 -6 -14 -9 q-12 -3 -25.5 6.5 q-13.5 9.5 -17.5 25.5 l-114 413 ZM614 366 q-1 5 0.5 14 q1.5 9 4.5 14 l260 413 q9 16 26 25.5 q17 9.5 27 6.5 q8 -3 11.5 -9 q3.5 -6 4.5 -15 q1 -9 -1 -19 q-2 -10 -8 -19 l-248 -392 q-1 -2 -2 -5 q-1 -3 0 -5 l110 -392 q3 -9 1.5 -19 q-1.5 -10 -6 -19 q-4.5 -9 -10 -15 q-5.5 -6 -13.5 -9 q-12 -3 -25.5 6.5 q-13.5 9.5 -17.5 25.5 l-114 413 Z" /><glyph glyph-name="uni300B" unicode="&#x300b;" d="M230 -70 q-4 6 -4.5 15 q-0.5 9 1.5 19 q2 10 7 19 l249 392 q1 2 2 5 q1 3 0 5 l-110 392 q-3 9 -1.5 19 q1.5 10 5.5 19 q4 9 10 15 q6 6 13 9 q13 3 26.5 -6.5 q13.5 -9.5 17.5 -25.5 l113 -413 q2 -5 0.5 -14 q-1.5 -9 -4.5 -14 l-260 -413 q-10 -16 -26.5 -25.5 q-16.5 -9.5 -27.5 -6.5 q-7 3 -11 9 ZM65 -70 q-4 6 -5 15 q-1 9 1.5 19 q2.5 10 7.5 19 l248 392 q2 2 3 5 q1 3 -1 5 l-110 392 q-2 9 -1 19 q1 10 5.5 19 q4.5 9 10.5 15 q6 6 13 9 q13 3 26.5 -6.5 q13.5 -9.5 16.5 -25.5 l114 -413 q2 -5 0 -14 q-2 -9 -4 -14 l-261 -413 q-9 -16 -25.5 -25.5 q-16.5 -9.5 -27.5 -6.5 q-7 3 -11 9 Z" /><glyph glyph-name="uni300C" unicode="&#x300c;" d="M710 256 l96 543 q2 10 7.5 18.5 q5.5 8.5 14.5 16 q9 7.5 18.5 11.5 q9.5 4 18.5 4 l223 0 q10 0 18.5 -3.5 q8.5 -3.5 14.5 -10 q6 -6.5 8.5 -14.5 q2.5 -8 0.5 -17 q-1 -8 -6.5 -15.5 q-5.5 -7.5 -13.5 -14 q-8 -6.5 -17.5 -10.5 q-9.5 -4 -19.5 -4 l-171 0 q-2 0 -4.5 -2 q-2.5 -2 -2.5 -4 l-89 -499 q-1 -9 -6.5 -18 q-5.5 -9 -13.5 -16 q-8 -7 -17.5 -11 q-9.5 -4 -18.5 -4 q-9 0 -17 4 q-8 4 -13.5 11.5 q-5.5 7.5 -8 16.5 q-2.5 9 -1.5 18 Z" /><glyph glyph-name="uni300D" unicode="&#x300d;" d="M44 -44 q1 8 6.5 16 q5.5 8 13.5 14.5 q8 6.5 18 10 q10 3.5 19 3.5 l171 0 q2 0 4.5 2 q2.5 2 2.5 4 l89 499 q1 9 7 18 q6 9 14 16 q8 7 17 11 q9 4 18 4 q9 0 17 -4 q8 -4 13.5 -11.5 q5.5 -7.5 8 -16 q2.5 -8.5 1.5 -18.5 l-96 -543 q-2 -10 -7.5 -18.5 q-5.5 -8.5 -14.5 -16 q-9 -7.5 -18 -11.5 q-9 -4 -19 -4 l-223 0 q-10 0 -18.5 4 q-8.5 4 -14 10.5 q-5.5 6.5 -8.5 14 q-3 7.5 -1 16.5 Z" /><glyph glyph-name="uni300E" unicode="&#x300e;" d="M699 232 q0 -2 1.5 -4 q1.5 -2 4.5 -2 l91 0 q3 0 5.5 2 q2.5 2 2.5 4 l77 438 q2 10 7.5 19 q5.5 9 14 16 q8.5 7 18.5 11 q10 4 19 4 l131 0 q3 0 5 2 q2 2 2 4 l14 78 q1 2 -1 4 q-2 2 -4 2 l-280 0 q-2 0 -4.5 -2 q-2.5 -2 -2.5 -4 l-101 -572 ZM661 237 l99 562 q2 10 8 18.5 q6 8.5 14.5 16 q8.5 7.5 18 11.5 q9.5 4 18.5 4 l270 0 q9 0 17.5 -4 q8.5 -4 14 -11 q5.5 -7 8 -16 q2.5 -9 1.5 -19 l-12 -68 q-2 -9 -7.5 -18 q-5.5 -9 -14 -16 q-8.5 -7 -18.5 -11 q-10 -4 -19 -4 l-132 0 q-2 0 -4 -2 q-2 -2 -3 -4 l-77 -439 q-1 -9 -7 -18 q-6 -9 -14.5 -16.5 q-8.5 -7.5 -18 -11.5 q-9.5 -4 -19.5 -4 l-82 0 q-9 0 -17 4 q-8 4 -14 11.5 q-6 7.5 -8.5 16.5 q-2.5 9 -1.5 18 Z" /><glyph glyph-name="uni300F" unicode="&#x300f;" d="M82 -44 q-1 -2 1 -4 q2 -2 4 -2 l280 0 q2 0 4.5 2 q2.5 2 2.5 4 l101 572 q0 2 -1.5 4 q-1.5 2 -4.5 2 l-91 0 q-3 0 -5.5 -2 q-2.5 -2 -2.5 -4 l-77 -438 q-2 -10 -7.5 -19 q-5.5 -9 -14 -16 q-8.5 -7 -18 -11 q-9.5 -4 -19.5 -4 l-131 0 q-3 0 -5 -2 q-2 -2 -2 -4 l-14 -78 ZM44 -39 l12 68 q2 9 7.5 18 q5.5 9 14 16 q8.5 7 18.5 11 q10 4 19 4 l132 0 q2 0 4 2 q2 2 3 4 l77 439 q1 10 7 18.5 q6 8.5 14.5 16 q8.5 7.5 18.5 11.5 q10 4 19 4 l82 0 q9 0 17 -4 q8 -4 14 -11.5 q6 -7.5 8.5 -16 q2.5 -8.5 1.5 -18.5 l-99 -562 q-2 -10 -8 -18.5 q-6 -8.5 -14.5 -16 q-8.5 -7.5 -18 -11.5 q-9.5 -4 -18.5 -4 l-270 0 q-9 0 -17.5 4 q-8.5 4 -14 11 q-5.5 7 -8 16 q-2.5 9 -1.5 19 Z" /><glyph glyph-name="uni3010" unicode="&#x3010;" d="M676 -39 l148 838 q2 10 7.5 18.5 q5.5 8.5 14 16 q8.5 7.5 18.5 11.5 q10 4 19 4 l206 0 q19 0 34 -1 q15 0 15 -1 q0 -2 -5 -6 q-5 -4 -10 -9 q-45 -35 -87 -81.5 q-42 -46.5 -77 -103.5 q-35 -57 -61.5 -123.5 q-26.5 -66.5 -39.5 -143.5 q-11 -59 -11 -114 q0 -13 2 -52.5 q2 -39.5 16.5 -97 q14.5 -57.5 39.5 -105.5 q25 -48 58 -83 q4 -5 7.5 -9 q3.5 -4 3.5 -5 q-1 -2 -16.5 -2.5 q-15.5 -0.5 -34.5 -0.5 l-206 0 q-9 0 -17.5 4 q-8.5 4 -14 11.5 q-5.5 7.5 -8 16 q-2.5 8.5 -1.5 18.5 Z" /><glyph glyph-name="uni3011" unicode="&#x3011;" d="M36 -86 q0 1 5 5 q5 4 10 9 q45 35 87 81.5 q42 46.5 77 103.5 q35 57 61.5 123.5 q26.5 66.5 39.5 143.5 q11 61 11 118 q0 11 -1.5 49.5 q-1.5 38.5 -16.5 96 q-15 57.5 -40 105.5 q-25 48 -58 83 q-4 5 -7.5 9 q-3.5 4 -3.5 6 q1 1 16.5 1.5 q15.5 0.5 34.5 0.5 l206 0 q9 0 17.5 -4 q8.5 -4 14 -11.5 q5.5 -7.5 8 -16 q2.5 -8.5 1.5 -18.5 l-148 -838 q-2 -10 -7.5 -18.5 q-5.5 -8.5 -14 -16 q-8.5 -7.5 -18 -11.5 q-9.5 -4 -19.5 -4 l-206 0 q-19 0 -34 1 q-15 0 -15 2 Z" /><glyph glyph-name="uni4E00" unicode="&#x4e00;" d="M129 386 l2 9 q1 9 7 17.5 q6 8.5 14.5 15.5 q8.5 7 18 11 q9.5 4 19.5 4 l820 0 q10 0 18 -4 q8 -4 14 -11 q6 -7 8.5 -15.5 q2.5 -8.5 1.5 -17.5 l-2 -9 q-2 -9 -7.5 -18 q-5.5 -9 -14 -16 q-8.5 -7 -18 -11.5 q-9.5 -4.5 -19.5 -4.5 l-820 0 q-9 0 -17.5 4.5 q-8.5 4.5 -15 11.5 q-6.5 7 -9 16 q-2.5 9 -0.5 18 Z" /><glyph glyph-name="uni4E01" unicode="&#x4e01;" d="M202 708 l1 6 q2 9 7 17.5 q5 8.5 14 15 q9 6.5 18.5 10.5 q9.5 4 18.5 4 l786 0 q10 0 18 -4 q8 -4 14 -10.5 q6 -6.5 9 -15 q3 -8.5 1 -17.5 l-1 -6 q-2 -9 -7.5 -17.5 q-5.5 -8.5 -14 -15.5 q-8.5 -7 -18 -11 q-9.5 -4 -19.5 -4 l-305 0 l-106 -598 q-9 -53 -29 -80 q-20 -27 -59 -40 q-33 -11 -83.5 -14.5 q-50.5 -3.5 -121.5 -4.5 q-14 0 -27.5 11.5 q-13.5 11.5 -15.5 24.5 q0 2 -0.5 4 q-0.5 2 -1.5 5 q-2 7 -2 14 q0 18 13.5 35 q13.5 17 40.5 17 q1 0 3 0 q37 -2 64 -2 q7 0 26 0.5 q19 0.5 39 1.5 q19 1 28 6.5 q9 5.5 12 22.5 l105 597 l-366 0 q-9 0 -17.5 4 q-8.5 4 -14 11 q-5.5 7 -8.5 15.5 q-3 8.5 -1 17.5 Z" /><glyph glyph-name="uni4E03" unicode="&#x4e03;" d="M145 403 l0 4 q0 9 5 18 q5 9 11.5 17 q6.5 8 16 13.5 q9.5 5.5 18.5 6.5 l243 37 l49 278 q2 9 7.5 17.5 q5.5 8.5 14 16 q8.5 7.5 18 11.5 q9.5 4 18.5 4 l9 0 q9 0 17 -4 q8 -4 13.5 -11 q5.5 -7 8 -16 q2.5 -9 0.5 -18 l-46 -261 l472 72 q9 2 18 -1 q9 -3 16 -9 q7 -6 11.5 -13.5 q4.5 -7.5 3.5 -16.5 l0 -5 q-1 -9 -5 -18.5 q-4 -9.5 -11.5 -17 q-7.5 -7.5 -16.5 -13 q-9 -5.5 -19 -6.5 l-487 -74 l-51 -291 q-5 -22 -5 -36 q0 -17 7.5 -26 q7.5 -9 23 -12 q15.5 -3 41.5 -3 l228 0 q22 0 37 5 q15 5 26 19 q11 14 20.5 37.5 q9.5 23.5 19.5 59.5 q8 28 25.5 37 q17.5 9 30.5 9 l21 -5 q13 -5 19 -18 q6 -13 6 -23 q0 -6 -2 -12 q-16 -57 -32.5 -96.5 q-16.5 -39.5 -40 -64 q-23.5 -24.5 -57 -35.5 q-33.5 -11 -84.5 -11 l-241 0 q-52 0 -85 8.5 q-33 8.5 -50.5 28.5 q-17.5 20 -19 40.5 q-1.5 20.5 -1.5 29.5 q0 30 7 69 l48 274 l-227 -35 q-10 -1 -18.5 2 q-8.5 3 -15.5 8.5 q-7 5.5 -11 13 q-4 7.5 -4 16.5 Z" /><glyph glyph-name="uni4E07" unicode="&#x4e07;" d="M75 -25 q0 8 5.5 24 q5.5 16 28.5 33 q86 54 143 125.5 q57 71.5 94.5 152.5 q37.5 81 59.5 167 q22 86 40 168 q1 9 7 18 q5 8 13 14 l-215 0 q-10 0 -18.5 4.5 q-8.5 4.5 -14.5 11 q-6 6.5 -8.5 15 q-2.5 8.5 -0.5 17.5 q1 10 7 18 q6 8 14 15 q8 7 18 11 q10 4 20 4 l778 0 q10 0 18.5 -4 q8.5 -4 14.5 -11 q6 -7 8.5 -15 q2.5 -8 0.5 -18 q-2 -9 -7.5 -17.5 q-5.5 -8.5 -14 -15 q-8.5 -6.5 -18 -11 q-9.5 -4.5 -19.5 -4.5 l-490 0 q6 -7 8 -16 q2 -9 0 -18 q-16 -77 -37 -156 q2 2 5 3 q10 4 19 4 l378 0 q9 0 17 -4 q8 -4 14 -11 q2 -2 3 -5 q3 -3 5 -6 l2 -8 q1 -7 0 -14 q-1 -6 -5 -12 q-25 -110 -45 -189 q-21 -84 -39.5 -140 q-18.5 -56 -35 -88.5 q-16.5 -32.5 -34.5 -48.5 q-24 -23 -48 -31.5 q-24 -8.5 -56 -11.5 q-23 -2 -58 -2 q-35 0 -75 2 q-16 0 -30 11.5 q-14 11.5 -14 29.5 q0 21 16.5 36 q16.5 15 44.5 15 q2 0 3 0 q15 -1 26.5 -1.5 q11.5 -0.5 22.5 -0.5 l40 0 q17 0 28 2 q11 2 22 11 q14 11 28.5 40.5 q14.5 29.5 31 83.5 q16.5 54 36.5 134 q13 50 27 113 l-322 0 q-9 0 -17 4 q-7 3 -12 8 q-25 -79 -61 -153 q-45 -93 -112 -173.5 q-67 -80.5 -166 -140.5 q-8 -6 -18 -8 q-10 -2 -19 -1 q-9 1 -17 5 q-8 4 -12 11 q-8 11 -8 24 Z" /><glyph glyph-name="uni4E09" unicode="&#x4e09;" d="M273 374 l1 2 q2 9 7.5 17.5 q5.5 8.5 14 15.5 q8.5 7 18.5 11 q10 4 19 4 l514 0 q9 0 17 -4 q8 -4 14 -11 q6 -7 9 -15.5 q3 -8.5 0 -17.5 l0 -2 q-1 -9 -7 -18 q-6 -9 -14.5 -16 q-8.5 -7 -18 -11 q-9.5 -4 -18.5 -4 l-514 0 q-9 0 -17.5 4 q-8.5 4 -14.5 11 q-6 7 -8.5 16 q-2.5 9 -1.5 18 ZM264 697 l1 3 q1 10 6.5 18.5 q5.5 8.5 14.5 15.5 q9 7 18.5 10.5 q9.5 3.5 18.5 3.5 l660 0 q9 0 17.5 -3.5 q8.5 -3.5 14 -10.5 q5.5 -7 8.5 -15.5 q3 -8.5 1 -18.5 l-1 -3 q-1 -8 -6.5 -17 q-5.5 -9 -14 -16 q-8.5 -7 -18 -11 q-9.5 -4 -19.5 -4 l-660 0 q-8 0 -16.5 4 q-8.5 4 -14.5 11 q-6 7 -9 16 q-3 9 -1 17 ZM89 30 l0 3 q3 9 8.5 17.5 q5.5 8.5 13.5 15.5 q8 7 18 11 q10 4 19 4 l771 0 q9 0 17 -4 q8 -4 14 -11 q6 -7 9 -15.5 q3 -8.5 1 -17.5 l-1 -3 q-1 -9 -7 -17.5 q-6 -8.5 -14 -16 q-8 -7.5 -17.5 -11 q-9.5 -3.5 -19.5 -3.5 l-770 0 q-9 0 -17.5 3.5 q-8.5 3.5 -14.5 11 q-6 7.5 -8.5 16 q-2.5 8.5 -1.5 17.5 Z" /><glyph glyph-name="uni4E0A" unicode="&#x4e0a;" d="M69 12 l0 2 q3 9 8.5 18 q5.5 9 14 15.5 q8.5 6.5 18 10.5 q9.5 4 18.5 4 l318 0 l127 720 q2 9 7.5 18 q5.5 9 13.5 16 q8 7 17.5 11 q9.5 4 18.5 4 l8 0 q9 0 17 -4 q8 -4 13.5 -11 q5.5 -7 8 -16 q2.5 -9 0.5 -18 l-44 -249 l316 0 q9 0 17 -4 q8 -4 14.5 -10.5 q6.5 -6.5 8.5 -15.5 q2 -9 1 -18 l0 -3 q-2 -8 -7.5 -17 q-5.5 -9 -14.5 -15.5 q-9 -6.5 -18 -10.5 q-9 -4 -18 -4 l-316 0 l-66 -373 l385 0 q10 0 18 -4 q8 -4 13.5 -10.5 q5.5 -6.5 8.5 -15.5 q3 -9 1 -18 l0 -2 q-2 -9 -7.5 -18 q-5.5 -9 -14 -15.5 q-8.5 -6.5 -17.5 -10.5 q-9 -4 -19 -4 l-808 0 q-9 0 -17 4 q-8 4 -14 10.5 q-6 6.5 -8.5 15.5 q-2.5 9 -1.5 18 Z" /><glyph glyph-name="uni4E0B" unicode="&#x4e0b;" d="M201 720 l0 3 q2 9 7.5 18 q5.5 9 14 15.5 q8.5 6.5 18 10.5 q9.5 4 18.5 4 l795 0 q9 0 17 -4 q8 -4 14 -10.5 q6 -6.5 9 -15.5 q3 -9 1 -18 l-1 -3 q-1 -8 -6.5 -17 q-5.5 -9 -14 -15.5 q-8.5 -6.5 -18 -10.5 q-9.5 -4 -18.5 -4 l-382 0 q0 -1 1 -1 q5 -7 7.5 -16 q2.5 -9 0.5 -18 l-24 -136 q9 6 23 8 q18 4 30 -3 q31 -18 65 -38 q34 -20 66.5 -41 q32.5 -21 62.5 -42 q30 -21 54 -39 q7 -5 10 -13.5 q3 -8.5 3 -18 q0 -9.5 -4 -18.5 q-4 -9 -10 -16 l-11 -11 q-8 -8 -18 -12.5 q-10 -4.5 -20.5 -5.5 q-10.5 -1 -20 1.5 q-9.5 2.5 -16.5 8.5 q-21 18 -48 38 q-27 20 -56 40 q-29 20 -60 40 q-31 20 -60 38 q-2 1 -4 3 l-80 -454 q-2 -10 -7 -18.5 q-5 -8.5 -13.5 -16 q-8.5 -7.5 -17.5 -11.5 q-9 -4 -18 -4 l-9 0 q-9 0 -17 4 q-8 4 -13.5 11.5 q-5.5 7.5 -8 16 q-2.5 8.5 -0.5 18.5 l118 671 q2 9 7.5 18 q5.5 9 13.5 16 l1 1 l-340 0 q-9 0 -17 4 q-8 4 -14 10.5 q-6 6.5 -9 15.5 q-3 9 -1 17 Z" /><glyph glyph-name="uni4E0D" unicode="&#x4e0d;" d="M685 443 q-3 10 -2 20 q1 10 7 20 q6 10 16 16 l2 3 q13 9 31 9 q18 0 29 -8 q31 -24 63.5 -51 q32.5 -27 63 -54 q30.5 -27 59 -54.5 q28.5 -27.5 50.5 -51.5 q5 -7 7.5 -15.5 q2.5 -8.5 0.5 -18.5 q-2 -10 -7 -18.5 q-5 -8.5 -13 -14.5 l-10 -9 q-9 -6 -19 -9 q-10 -3 -20.5 -2.5 q-10.5 0.5 -19 4.5 q-8.5 4 -13.5 11 q-20 24 -45 50 q-25 26 -53 52.5 q-28 26.5 -58 52.5 q-30 26 -59 50 q-7 8 -10 18 ZM137 211 q-6 10 -6.5 21 q-0.5 11 4 22 q4.5 11 13.5 21 q9 10 21 16 q71 37 139 84 q68 47 129 100 q61 53 114 110 q43 45 79 92 l-374 0 q-9 0 -17.5 4 q-8.5 4 -14.5 11 q-6 7 -8.5 15.5 q-2.5 8.5 -0.5 17.5 l1 3 q1 9 6.5 17.5 q5.5 8.5 14 15.5 q8.5 7 18 11 q9.5 4 18.5 4 l768 0 q9 0 17 -4 q8 -4 14 -11 q6 -7 9 -15.5 q3 -8.5 1 -17.5 l0 -3 q-2 -9 -7.5 -17.5 q-5.5 -8.5 -14 -15.5 q-8.5 -7 -18 -11 q-9.5 -4 -19.5 -4 l-274 0 q0 -3 -1 -5 q-2 -11 -9 -19 q-34 -44 -71 -87 q3 -9 0 -25 l-101 -574 q-2 -10 -7.5 -18.5 q-5.5 -8.5 -14 -16 q-8.5 -7.5 -17 -11.5 q-8.5 -4 -18.5 -4 l-9 0 q-9 0 -17 4 q-8 4 -14 11.5 q-6 7.5 -8.5 16 q-2.5 8.5 -0.5 18.5 l84 474 l-48 -42 q-69 -59 -143.5 -111 q-74.5 -52 -153.5 -93 q-8 -5 -17.5 -6 q-9.5 -1 -18 1.5 q-8.5 2.5 -16 7 q-7.5 4.5 -11.5 11.5 l0 2 Z" /><glyph glyph-name="uni4E0E" unicode="&#x4e0e;" d="M273 392.5 q-5 8.5 -6 19.5 q-1 11 4 22 q16 38 33.5 80.5 q17.5 42.5 34.5 87.5 q17 45 34 90.5 q17 45.5 31 86.5 q3 9 10 17 q7 8 15 14 q8 6 17.5 9 q9.5 3 17.5 3 l4 -1 q9 -1 17 -6.5 q8 -5.5 12 -13.5 q4 -8 5 -18 q1 -10 -2 -19 q-9 -24 -18 -49 l497 0 q9 0 17 -4 q8 -4 14.5 -10.5 q6.5 -6.5 9 -15 q2.5 -8.5 0.5 -16.5 q-1 -9 -7 -17.5 q-6 -8.5 -14 -15.5 q-8 -7 -17.5 -11 q-9.5 -4 -19.5 -4 l-493 0 q-8 0 -17 4 q-1 1 -3 2 l-18 -48 q-18 -46 -35 -89 q-5 -14 -10 -27 q4 1 9 1 l560 0 q9 0 17 -4 q8 -4 14.5 -10.5 q6.5 -6.5 9 -14.5 q2.5 -8 0.5 -17 q-1 -8 -7 -16 q-1 -2 -2 -3 q-26 -96 -48 -166 q-24 -77 -45 -129 q-21 -52 -40.5 -84 q-19.5 -32 -40.5 -50 q-27 -23 -52.5 -31 q-25.5 -8 -62.5 -11 q-24 -1 -60.5 -1 q-36.5 0 -78.5 2 q-17 0 -30 12 q-13 12 -15 25 q0 4 0 7 q0 20 15.5 35.5 q15.5 15.5 44.5 15.5 q2 0 3 0 q17 -1 32 -2 q15 -1 28 -1 l47 0 q19 0 31.5 1.5 q12.5 1.5 23.5 10.5 q17 12 34.5 41 q17.5 29 37 79.5 q19.5 50.5 41.5 122.5 q13 44 28 97 l-502 0 q-8 0 -16.5 4 q-8.5 4 -14.5 10 q0 1 -1 1 q-2 -2 -5 -4 q-16 -11 -30 -11 l-5 0 q-12 0 -20 5.5 q-8 5.5 -13 14 ZM110 185.5 q-2 8.5 -1 17.5 q1 9 7 17.5 q6 8.5 14 15 q8 6.5 17.5 10.5 q9.5 4 18.5 4 l526 0 q9 0 17 -4 q8 -4 14.5 -10.5 q6.5 -6.5 9 -15 q2.5 -8.5 0.5 -17.5 q-1 -9 -7 -17.5 q-6 -8.5 -14 -15 q-8 -6.5 -17.5 -10.5 q-9.5 -4 -18.5 -4 l-526 0 q-9 0 -17 4 q-8 4 -14.5 10.5 q-6.5 6.5 -8.5 15 Z" /><glyph glyph-name="uni4E13" unicode="&#x4e13;" d="M161 501 q2 9 7.5 17.5 q5.5 8.5 14 15 q8.5 6.5 18.5 10.5 q10 4 19 4 l223 0 l6 12 q22 45 43 90 l-173 0 q-9 0 -17.5 4 q-8.5 4 -14 11 q-5.5 7 -8.5 15 q-3 8 -1 17 q2 9 7.5 17 q5.5 8 13.5 14.5 q8 6.5 18 10.5 q10 4 18 4 l199 0 q15 32 28 62 q4 8 11 15.5 q7 7.5 15.5 13 q8.5 5.5 17.5 8.5 q9 3 17 2 l5 -1 q9 -2 16 -7.5 q7 -5.5 11.5 -14 q4.5 -8.5 4.5 -18.5 q0 -10 -4 -20 q-9 -20 -19 -40 l328 0 q10 0 18 -4 q8 -4 14 -10.5 q6 -6.5 9 -14.5 q3 -8 1 -17 q-2 -9 -7.5 -17 q-5.5 -8 -14 -15 q-8.5 -7 -18 -11 q-9.5 -4 -18.5 -4 l-355 0 q-24 -52 -48 -102 l457 0 q10 0 18 -4 q8 -4 14 -10.5 q6 -6.5 8.5 -15 q2.5 -8.5 1.5 -17.5 q-2 -8 -7.5 -16.5 q-5.5 -8.5 -14 -15.5 q-8.5 -7 -18 -11 q-9.5 -4 -18.5 -4 l-487 0 q-12 -25 -24 -49 q-12 -25 -24 -49 l379 0 q9 0 17 -4 l2 0 q1 1 3 2 q5 2 11 2 q1 0 3.5 0.5 q2.5 0.5 4.5 1.5 q6 2 13.5 0.5 q7.5 -1.5 12.5 -5.5 l9 -5 q8 -6 12.5 -15 q4.5 -9 4 -19 q-0.5 -10 -5.5 -20.5 q-5 -10.5 -15 -19.5 q-31 -26 -65.5 -55.5 q-34.5 -29.5 -70.5 -60 q-36 -30.5 -73 -60.5 q-20 -17 -40 -33 l14 -6 q44 -20 81 -39 q8 -4 13.5 -12 q5.5 -8 6 -18 q0.5 -10 -2.5 -20.5 q-3 -10.5 -11 -18.5 l-1 -2 q-12 -14 -27 -17.5 q-15 -3.5 -23 -3.5 q-11 0 -19 4 q-31 18 -70 37.5 q-39 19.5 -83 38.5 q-44 19 -90 37 q-46 18 -91 33 q-12 3 -19 11 q-7 8 -9.5 17.5 q-2.5 9.5 0 20 q2.5 10.5 11.5 20.5 q8 8 23 13 q15 5 25 3 q46 -13 95 -30 q43 -15 85 -31 q3 4 8 7 q37 31 75 62.5 q38 31.5 74 62.5 q19 16 37 31 l-327 0 q-9 0 -18 4 q-5 3 -10 7 q-1 0 -2 -1 q-15 -10 -28 -10 l-5 0 q-13 0 -21.5 5.5 q-8.5 5.5 -12.5 14.5 q-4 9 -4.5 20 q-0.5 11 5.5 23 q28 51 57 110 l8 16 l-195 0 q-9 0 -17.5 4 q-8.5 4 -14.5 11 q-6 7 -8.5 15.5 q-2.5 8.5 -1.5 16.5 Z" /><glyph glyph-name="uni4E14" unicode="&#x4e14;" d="M419 544 q4 1 7 1 l381 0 q9 0 17 -3 l26 147 q1 2 -0.5 4 q-1.5 2 -3.5 2 l-395 0 q-2 0 -4 -2 q-2 -2 -3 -4 l-25 -145 ZM376 300 q3 1 7 1 l381 0 q9 0 17 -4 l28 161 q-9 -4 -18 -4 l-381 0 q-3 0 -7 1 l-27 -155 ZM332 53 l406 0 l0 2 l28 155 q-10 -3 -18 -3 l-389 0 l-26 -152 q-1 -1 -1 -2 ZM72 6 q2 9 8 17.5 q6 8.5 13.5 15 q7.5 6.5 17 10.5 q9.5 4 18.5 4 l106 0 q0 1 1 2 l120 684 q2 10 7.5 18.5 q5.5 8.5 14 16 q8.5 7.5 18 11.5 q9.5 4 18.5 4 l506 0 q9 0 17 -4 q8 -4 14 -11.5 q6 -7.5 8.5 -16 q2.5 -8.5 0.5 -18.5 l-120 -684 q-1 -1 -1 -2 l92 0 q9 0 17 -4 q8 -4 14 -10.5 q6 -6.5 8.5 -15 q2.5 -8.5 0.5 -17.5 q-1 -9 -7 -18 q-6 -9 -14 -15.5 q-8 -6.5 -17.5 -10.5 q-9.5 -4 -18.5 -4 l-801 0 q-9 0 -17.5 4 q-8.5 4 -14 10.5 q-5.5 6.5 -8 15.5 q-2.5 9 -1.5 18 Z" /><glyph glyph-name="uni4E16" unicode="&#x4e16;" d="M617 293 q0 -2 1.5 -4 q1.5 -2 4.5 -2 l151 0 q3 0 5.5 2 q2.5 2 2.5 4 l37 212 l-164 0 l-38 -212 ZM166.5 534.5 q-2.5 8.5 -1.5 17.5 q1 9 7 17 q6 8 14 15 q8 7 18 11 q10 4 18 4 l92 0 l30 168 q1 9 7 18 q6 9 14 16 q8 7 17.5 11.5 q9.5 4.5 18.5 4.5 l4 0 q9 0 17 -4.5 q8 -4.5 14 -11.5 q6 -7 8.5 -16 q2.5 -9 0.5 -18 l-29 -168 l158 0 l33 190 q3 10 8 18.5 q5 8.5 13.5 15.5 q8.5 7 18 11 q9.5 4 19 4 q9.5 0 17 -4 q7.5 -4 13.5 -11 q6 -7 8.5 -16 q2.5 -9 0.5 -18 l-34 -190 l165 0 l32 179 q1 10 7 18.5 q6 8.5 14 16 q8 7.5 17.5 11.5 q9.5 4 17.5 4 l6 0 q9 0 17 -4 q8 -4 14 -11.5 q6 -7.5 8 -16 q2 -8.5 1 -18.5 l-32 -179 l92 0 q9 0 17 -4 q8 -4 14 -11 q6 -7 8.5 -15 q2.5 -8 1.5 -17 q-2 -9 -7.5 -17.5 q-5.5 -8.5 -14 -15 q-8.5 -6.5 -18 -10.5 q-9.5 -4 -19.5 -4 l-91 0 l-46 -259 q-1 -9 -7 -18 q-6 -9 -14 -16 q-8 -7 -18 -11 q-10 -4 -20 -4 l-262 0 q-10 0 -18 4 q-8 4 -14.5 11 q-6.5 7 -8.5 16 q-2 9 -1 18 l45 259 l-158 0 l-76 -429 q0 -2 1.5 -4 q1.5 -2 3.5 -2 l581 0 q10 0 17.5 -4 q7.5 -4 14 -11 q6.5 -7 9 -15 q2.5 -8 0.5 -17 q-1 -9 -7 -17.5 q-6 -8.5 -14 -15.5 q-8 -7 -17.5 -11 q-9.5 -4 -19.5 -4 l-638 0 q-9 0 -17.5 4 q-8.5 4 -14.5 11 q-6 7 -8.5 16 q-2.5 9 -1.5 18 l85 481 l-92 0 q-9 0 -16.5 4 q-7.5 4 -13.5 10.5 q-6 6.5 -8.5 15 Z" /><glyph glyph-name="uni4E1A" unicode="&#x4e1a;" d="M778 255.5 q-4 7.5 -4.5 17 q-0.5 9.5 1.5 19.5 q2 10 8 18 q20 28 41.5 59.5 q21.5 31.5 42.5 65 q21 33.5 41 66.5 q20 33 38 65 q5 10 14 18.5 q9 8.5 19.5 13 q10.5 4.5 21 4.5 q10.5 0 19.5 -4 q6 -4 10.5 -10.5 q4.5 -6.5 6 -15 q1.5 -8.5 0 -17.5 q-1.5 -9 -5.5 -17 q-20 -34 -42 -70 q-22 -36 -44.5 -71 q-22.5 -35 -45 -67.5 q-22.5 -32.5 -44.5 -62.5 q-5 -8 -13.5 -14.5 q-8.5 -6.5 -18 -9.5 q-9.5 -3 -18.5 -3 q-9 0 -16 4 q-7 4 -11 11.5 ZM207 549 q-1 9 2 19 q3 10 8.5 19 q5.5 9 13.5 16 q8 7 18 9 q6 2 12 2 q11 0 24 -8 q13 -8 17 -24 q8 -34 17 -70 q9 -36 16.5 -71.5 q7.5 -35.5 14.5 -69 q7 -33.5 11 -62.5 q0 -8 -2.5 -17.5 q-2.5 -9.5 -8 -17.5 q-5.5 -8 -13.5 -14.5 q-8 -6.5 -15 -9.5 l-5 -1 q-10 -3 -20.5 -1.5 q-10.5 1.5 -18.5 6.5 q-8 5 -13.5 13 q-5.5 8 -6.5 18 q-3 28 -8.5 60.5 q-5.5 32.5 -12 67 q-6.5 34.5 -14.5 69 q-8 34.5 -16 67.5 ZM78 13 q1 10 7 18.5 q6 8.5 14 15.5 q8 7 18 11 q10 4 19 4 l222 0 q-1 6 0 11 l125 710 q2 9 7.5 18 q5.5 9 14 16 q8.5 7 17.5 11 q9 4 19 4 l2 0 q10 0 18 -4 q8 -4 14 -11 q6 -7 8 -16 q2 -9 0 -18 l-125 -710 q-1 -5 -3 -11 l152 0 q0 3 1 6 l126 714 q1 9 7 18.5 q6 9.5 14.5 16.5 q8.5 7 17.5 11 q9 4 19 4 l2 0 q10 0 18 -4 q8 -4 13.5 -11 q5.5 -7 7.5 -16.5 q2 -9.5 1 -18.5 l-126 -714 l-2 -6 l223 0 q9 0 17 -4 q8 -4 14 -11 q6 -7 8.5 -15.5 q2.5 -8.5 0.5 -18.5 q-2 -9 -7.5 -17.5 q-5.5 -8.5 -13.5 -15.5 q-8 -7 -17.5 -11.5 q-9.5 -4.5 -19.5 -4.5 l-792 0 q-9 0 -17.5 4.5 q-8.5 4.5 -14 11.5 q-5.5 7 -8.5 15.5 q-3 8.5 -1 17.5 Z" /><glyph glyph-name="uni4E1C" unicode="&#x4e1c;" d="M755 174 q-5 9 -6 19.5 q-1 10.5 2.5 21 q3.5 10.5 11 19 q7.5 8.5 17.5 13.5 q13 5 29 1.5 q16 -3.5 23 -12.5 q17 -21 34 -44.5 q17 -23.5 33 -47 q16 -23.5 30 -46 q14 -22.5 24 -43.5 q5 -7 4 -17 q-1 -10 -5 -19 q-4 -9 -10.5 -17 q-6.5 -8 -16.5 -12 l-2 -1 q-8 -5 -18.5 -5 q-10.5 0 -19 3 q-8.5 3 -16 9 q-7.5 6 -11.5 13 q-9 19 -20.5 39.5 q-11.5 20.5 -25 41.5 q-13.5 21 -28 42.5 q-14.5 21.5 -29.5 41.5 ZM212 668 q1 9 6.5 17.5 q5.5 8.5 14.5 15 q9 6.5 18.5 10.5 q9.5 4 18.5 4 l225 0 q31 45 61 93 q5 8 13.5 14.5 q8.5 6.5 18 10.5 q9.5 4 19.5 4.5 q10 0.5 17 -2.5 l12 -4 q9 -3 14 -10.5 q5 -7.5 7.5 -17 q2.5 -9.5 0.5 -19.5 q-2 -10 -9 -19 l-34 -50 l406 0 q9 0 17.5 -4 q8.5 -4 14 -10.5 q5.5 -6.5 8.5 -15 q3 -8.5 2 -17.5 q-2 -8 -8 -16.5 q-6 -8.5 -14.5 -15.5 q-8.5 -7 -17.5 -11 q-9 -4 -19 -4 l-457 0 q-25 -33 -51 -65 q-39 -49 -79 -94 q-17 -19 -33 -37 l209 0 l15 87 q2 10 7.5 19 q5.5 9 14 16 q8.5 7 18 11 q9.5 4 17.5 4 l3 0 q9 0 17 -4 q8 -4 13.5 -11 q5.5 -7 8 -16 q2.5 -9 0.5 -18 l-15 -88 l233 0 q10 0 18 -3.5 q8 -3.5 14 -10.5 q6 -7 8.5 -15.5 q2.5 -8.5 0.5 -18.5 q-1 -9 -7 -17 q-6 -8 -14 -14.5 q-8 -6.5 -17.5 -10.5 q-9.5 -4 -18.5 -4 l-234 0 l-51 -292 q-7 -40 -21 -62.5 q-14 -22.5 -44 -34.5 q-22 -10 -52.5 -13.5 q-30.5 -3.5 -70.5 -4.5 q-1 0 -3 0 q-15 0 -27.5 11 q-12.5 11 -14.5 24 q-1 5 -1 9 q0 19 16 36.5 q16 17.5 44 17.5 q18 0 28 -0.5 q10 -0.5 23 0.5 q12 1 17 4.5 q5 3.5 7 14.5 l51 290 l-213 0 q-11 0 -18 -0.5 q-7 -0.5 -12 -1.5 q-16 0 -30.5 2.5 q-14.5 2.5 -25.5 8.5 q-5 3 -9 6 q-1 0 -3 1 q-10 2 -17 8 q-7 6 -9 16 q-2 8 1.5 18.5 q3.5 10.5 10 21 q6.5 10.5 15 20.5 q8.5 10 17.5 18 l9 9 q3 3 9 10 q6 7 21 24 q14 15 40 46 q26 31 58 73 l8 10 l-175 0 q-9 0 -17.5 4 q-8.5 4 -14 11 q-5.5 7 -8.5 15.5 q-3 8.5 -1 16.5 ZM118 8 q0 4 2.5 19 q2.5 15 22.5 34 q39 34 75.5 75 q36.5 41 66.5 84 q10 15 27.5 23 q17.5 8 29.5 8 q5 0 9 -1 l2 -2 q10 -2 16 -9 q6 -7 8.5 -16.5 q2.5 -9.5 1 -19.5 q-1.5 -10 -8.5 -20 q-38 -55 -83 -106 q-45 -51 -91 -92 q-7 -6 -16 -10 q-9 -4 -18 -5 q-9 -1 -17.5 1 q-8.5 2 -13.5 8 q-13 11 -13 29 Z" /><glyph glyph-name="uni4E1D" unicode="&#x4e1d;" d="M570 186 q-1 8 2.5 18 q3.5 10 10 20 q6.5 10 15.5 20 q9 10 19 17 l8 5 q1 1 5 4 q4 3 12 10 q8 7 25 23 q17 14 49.5 44.5 q32.5 30.5 72.5 73.5 q1 0 2 1 q-38 -2 -62 -4 q-30 -2 -47 -4 q-13 -1 -25 1.5 q-12 2.5 -20 8.5 l-6 4 q-2 0 -5 1 q-17 3 -20 21 q-2 7 1 17 q3 10 9.5 20.5 q6.5 10.5 14.5 21 q8 10.5 17 19.5 q1 2 2 2 l0 -1 l1 1 q1 1 5 5.5 q4 4.5 16 18.5 q9 11 28 34.5 q19 23.5 43 55.5 q24 32 50.5 71 q26.5 39 49.5 79 q6 9 14.5 16.5 q8.5 7.5 18.5 12 q10 4.5 20 5.5 q10 1 18 -3 q8 -3 13 -10.5 q5 -7.5 7 -16 q2 -8.5 0 -18.5 q-2 -10 -8 -19 q-57 -85 -119 -164 q-40 -51 -80 -94 l95 4 q14 0 24 -5 q7 -3 11 -7 q9 9 17 19 q45 51 86 104 q7 8 15.5 14.5 q8.5 6.5 18.5 9.5 q10 3 20 2.5 q10 -0.5 17 -4.5 q8 -4 11.5 -12.5 q3.5 -8.5 4.5 -18 q1 -9.5 -2 -19 q-3 -9.5 -10 -18.5 q-92 -109 -191 -206 q-64 -63 -127 -117 l215 10 q11 0 20.5 -4 q9.5 -4 15.5 -10.5 q6 -6.5 9 -15 q3 -8.5 1 -17.5 q-4 -15 -21 -27 q-17 -12 -35 -14 q-59 -3 -104 -5.5 q-45 -2.5 -78 -5 q-33 -2.5 -56 -4 q-23 -1.5 -39 -3.5 q-13 -1 -24 1.5 q-11 2.5 -20 7.5 q-2 1 -3 3 l-8 0 q-17 4 -20 21 ZM157 184 q-2 8 1.5 17.5 q3.5 9.5 10 19 q6.5 9.5 15.5 19 q9 9.5 18 18.5 q5 3 7 4.5 q2 1.5 5.5 4.5 q3.5 3 11.5 10.5 q8 7.5 24 23.5 q17 14 48 46 q30 30 66 70 q-31 -2 -52 -3 q-30 -2 -47 -4 q-12 -1 -24 1 q-12 2 -21 8 l-8 6 q-1 0 -2 1 q-19 3 -21 21 q-2 8 1 17.5 q3 9.5 9.5 19.5 q6.5 10 14.5 20 q8 10 15 19 l2 2 l1 0 q1 1 5.5 6 q4.5 5 15.5 19 q10 11 29 35 q19 24 42.5 57 q23.5 33 49 72 q25.5 39 49.5 79 q5 10 13.5 17.5 q8.5 7.5 18 12 q9.5 4.5 19.5 5.5 q10 1 19 -2 q7 -3 12 -10.5 q5 -7.5 7 -16 q2 -8.5 0.5 -18.5 q-1.5 -10 -6.5 -18 q-56 -87 -118 -168 q-40 -52 -79 -97 l96 4 q14 0 24 -4 l4 -2 q9 10 18 21 q43 52 82 106 q6 9 15 15 q9 6 19 9.5 q10 3.5 20 3 q10 -0.5 17 -4.5 q8 -4 12 -12 q4 -8 5 -17.5 q1 -9.5 -2 -19 q-3 -9.5 -9 -17.5 q-88 -111 -185 -212 q-64 -67 -126 -124 l185 10 q11 0 20.5 -3.5 q9.5 -3.5 16 -10 q6.5 -6.5 9 -15 q2.5 -8.5 0.5 -17.5 q-4 -14 -21.5 -27 q-17.5 -13 -36.5 -14 q-50 -4 -89 -6.5 q-39 -2.5 -68 -5 q-29 -2.5 -49 -4 q-20 -1.5 -35 -3.5 q-13 -1 -24 1.5 q-11 2.5 -20 8.5 q-3 2 -5 4 l-5 0 q-18 4 -20 22 ZM71 14 q2 8 7.5 16.5 q5.5 8.5 13.5 15 q8 6.5 17.5 10 q9.5 3.5 18.5 3.5 l804 0 q9 0 17 -3.5 q8 -3.5 14 -10 q6 -6.5 9 -15 q3 -8.5 1 -16.5 q-2 -9 -7.5 -17 q-5.5 -8 -13.5 -14.5 q-8 -6.5 -17 -10 q-9 -3.5 -19 -3.5 l-803 0 q-9 0 -17.5 3.5 q-8.5 3.5 -14.5 10 q-6 6.5 -9 14.5 q-3 8 -1 17 Z" /><glyph glyph-name="uni4E22" unicode="&#x4e22;" d="M137 344 q1 8 6.5 16 q5.5 8 14 14.5 q8.5 6.5 18 10.5 q9.5 4 18.5 4 l346 0 q-1 6 0 12 l17 100 l-263 0 q-8 0 -16.5 4 q-8.5 4 -14.5 10.5 q-6 6.5 -9 14.5 q-3 8 -1 17 q2 9 7.5 17 q5.5 8 13.5 14.5 q8 6.5 18 10.5 q10 4 19 4 l263 0 l19 106 q-57 -4 -115 -7 q-85 -4 -165 -6 q-2 0 -3 0 q-16 0 -29.5 11 q-13.5 11 -13.5 28 q0 18 17.5 34 q17.5 16 43.5 17 q83 3 168 8 q85 5 167 12.5 q82 7.5 156 17 q74 9.5 133 22.5 q11 2 23 -2.5 q12 -4.5 16 -12.5 l8 -10 q7 -10 7.5 -21 q0.5 -11 -4 -21 q-4.5 -10 -14.5 -17 q-10 -7 -24 -9 q-71 -13 -151 -23 q-59 -7 -120 -12 l0 -7 l-19 -108 l265 0 q9 0 17 -4 q8 -4 14 -10.5 q6 -6.5 9 -14.5 q3 -8 1 -17 q-1 -9 -6.5 -17 q-5.5 -8 -14 -14.5 q-8.5 -6.5 -18 -10.5 q-9.5 -4 -19.5 -4 l-265 0 l-17 -100 q-1 -6 -4 -12 l346 0 q10 0 17.5 -4 q7.5 -4 13.5 -10.5 q6 -6.5 9 -14.5 q3 -8 2 -16 q-2 -9 -7.5 -17 q-5.5 -8 -14 -14.5 q-8.5 -6.5 -17.5 -10.5 q-9 -4 -19 -4 l-465 0 q3 -3 6 -7 q5 -8 6 -18.5 q1 -10.5 -3.5 -21 q-4.5 -10.5 -14.5 -19.5 q-65 -64 -131 -122 q-24 -21 -47 -39 l441 30 q-5 8 -10 17 q-16 26 -32 51 q-5 10 -5.5 21 q-0.5 11 3.5 22 q4 11 12.5 19.5 q8.5 8.5 20.5 12.5 l1 1 q12 5 27.5 1 q15.5 -4 20.5 -14 q20 -26 38.5 -55 q18.5 -29 35.5 -58 q17 -29 31.5 -58 q14.5 -29 24.5 -55 q4 -8 2.5 -17.5 q-1.5 -9.5 -6.5 -18.5 q-5 -9 -12.5 -17 q-7.5 -8 -17.5 -12 l-5 -2 q-10 -4 -19.5 -3.5 q-9.5 0.5 -19 4 q-9.5 3.5 -16 10 q-6.5 6.5 -10.5 14.5 q-7 23 -20 49 q-3 8 -7 16 q-7 -5 -14 -8 q-10 -5 -22 -6 q-131 -11 -223 -18 q-92 -7 -155 -12.5 q-63 -5.5 -102 -9 q-39 -3.5 -63 -7.5 q-12 -1 -23.5 1 q-11.5 2 -19.5 8 q-6 3 -10 9 q-7 2 -12 6 q-7 6 -9 16 q-2 8 2 17.5 q4 9.5 11.5 19 q7.5 9.5 16.5 18 q9 8.5 20 14.5 l3 2 l0 1 l-1 0 l1 1 l5 4 q5 4 18 14 q12 8 34.5 27 q22.5 19 51 44.5 q28.5 25.5 59.5 56 q31 30.5 60 63.5 q4 4 9 8 l-254 0 q-9 0 -17 4 q-8 4 -14 10.5 q-6 6.5 -9 14.5 q-3 8 -1 17 Z" /><glyph glyph-name="uni4E24" unicode="&#x4e24;" d="M540 564 l156 0 l18 100 q1 9 7 18 q0 1 1 2 l-166 0 l0 -2 q3 -9 1 -18 l-17 -100 ZM110 -36 l97 550 q1 10 7 18.5 q6 8.5 14 16 q8 7.5 18 11.5 q10 4 19 4 l179 0 l17 100 q2 9 7 18 q1 1 1 2 l-221 0 q-9 0 -17 4 q-8 4 -14 10.5 q-6 6.5 -9 15 q-3 8.5 0 17.5 q1 9 6.5 17.5 q5.5 8.5 14 15 q8.5 6.5 18 10.5 q9.5 4 18.5 4 l787 0 q9 0 17 -4 q8 -4 14 -10.5 q6 -6.5 8.5 -15 q2.5 -8.5 1.5 -17.5 q-2 -9 -7.5 -17.5 q-5.5 -8.5 -14 -15 q-8.5 -6.5 -17.5 -10.5 q-9 -4 -19 -4 l-227 0 q0 -1 1 -2 q2 -9 1 -18 l-18 -100 l185 0 q9 0 17 -4 q2 -1 5 -3 q4 -3 8 -7 q6 -7 8.5 -15 q2.5 -8 0.5 -17 l0 -4 l-85 -484 q-8 -41 -23.5 -64.5 q-15.5 -23.5 -46.5 -35.5 q-25 -8 -62 -11.5 q-37 -3.5 -89 -3.5 q-1 0 -3 0 q-14 0 -26.5 10.5 q-12.5 10.5 -14.5 23.5 q0 3 0 7 q0 21 17 37.5 q17 16.5 45 16.5 q28 -1 45 -1 q17 0 31 1 q14 0 20 4.5 q6 4.5 8 17.5 l78 440 l-135 0 q-6 -26 -13 -54 q-5 -20 -12 -41 q7 -4 12 -9 q13 -19 26 -39 q13 -20 25 -39.5 q12 -19.5 22 -38.5 q10 -19 18 -35 q6 -10 3.5 -26 q-2.5 -16 -11.5 -25 q-8 -10 -19.5 -14 q-11.5 -4 -22.5 -3.5 q-11 0.5 -20.5 6 q-9.5 5.5 -15.5 15.5 q-8 16 -17 33 q-9 17 -19 34.5 q-10 17.5 -21 35.5 q-19 -38 -42 -77 q-34 -56 -84 -107 q-8 -9 -18 -13.5 q-10 -4.5 -19.5 -5 q-9.5 -0.5 -18 2 q-8.5 2.5 -13.5 8.5 q-7 9 -7 23 q0 7 3.5 23 q3.5 16 19.5 36 q40 42 67 87.5 q27 45.5 44.5 91 q17.5 45.5 28.5 91.5 q4 20 9 40 l-158 0 q-5 -26 -12 -54 l-12 -42 q4 -3 8 -7 q16 -23 30 -48.5 q14 -25.5 23 -46.5 q6 -8 3.5 -23.5 q-2.5 -15.5 -11.5 -24.5 q-9 -11 -20 -15.5 q-11 -4.5 -22 -4 q-11 0.5 -21 6 q-10 5.5 -16 15.5 q-8 17 -18 37 q-17 -35 -39 -70 q-34 -56 -83 -107 q-8 -9 -18 -13.5 q-10 -4.5 -19.5 -5 q-9.5 -0.5 -18 2 q-8.5 2.5 -13.5 8.5 q-7 9 -7 23 q0 7 3.5 23 q3.5 16 18.5 36 q40 42 67 87.5 q27 45.5 45 91 q18 45.5 28 91.5 q5 20 9 40 l-125 0 q-2 0 -3.5 -2 q-1.5 -2 -2.5 -4 l-88 -502 q-2 -9 -7.5 -18 q-5.5 -9 -14 -16 q-8.5 -7 -17.5 -11.5 q-9 -4.5 -19 -4.5 l-1 0 q-9 0 -16.5 4.5 q-7.5 4.5 -13.5 11.5 q-6 7 -8.5 16 q-2.5 9 -0.5 18 Z" /><glyph glyph-name="uni4E25" unicode="&#x4e25;" d="M823 498.5 q-5 7.5 -7 17 q-2 9.5 0 20 q2 10.5 8 20.5 q15 19 32 42 q17 23 30 43 q5 9 13 17 q8 8 18 13 q10 5 19.5 6.5 q9.5 1.5 18.5 -0.5 q9 -3 15 -10 q6 -7 8.5 -17 q2.5 -10 0.5 -20.5 q-2 -10.5 -9 -20.5 q-20 -25 -40.5 -52 q-20.5 -27 -38.5 -48 q-10 -11 -27 -18 q-17 -7 -27 -2 q-9 2 -14 9.5 ZM543 466 l115 0 q-1 8 0 15 l40 227 l-110 0 l-40 -226 q-1 -8 -5 -16 ZM291 609 q-2 10 0 21 q2 11 6.5 20.5 q4.5 9.5 13 17 q8.5 7.5 17.5 10.5 q15 4 30 -3 q15 -7 19 -21 q11 -24 20 -51 q9 -27 13 -50 q1 -3 1 -7 q0 -13 -10.5 -27.5 q-10.5 -14.5 -25.5 -20.5 q-11 -3 -20.5 -1.5 q-9.5 1.5 -17.5 7 q-8 5.5 -14 14.5 q-6 9 -7 19 q-3 16 -9.5 35.5 q-6.5 19.5 -15.5 36.5 ZM61 -17 q0 24 13 46 q25 33 42 68 q17 35 29 70 q12 35 20 71 q8 36 14 72 l19 106 q2 10 7.5 18.5 q5.5 8.5 14 16 q8.5 7.5 18 11.5 q9.5 4 17.5 4 q9 0 15 -3 q10 3 19 3 l164 0 q-2 8 -1 16 l40 226 l-198 0 q-8 0 -16.5 3.5 q-8.5 3.5 -15 9.5 q-6.5 6 -9 13.5 q-2.5 7.5 -0.5 15.5 q1 9 6.5 16 q5.5 7 13.5 13.5 q8 6.5 18 10 q10 3.5 18 3.5 l709 0 q10 0 18 -3.5 q8 -3.5 14 -10 q6 -6.5 9 -13.5 q3 -7 2 -16 q-2 -8 -7.5 -15.5 q-5.5 -7.5 -13.5 -13.5 q-8 -6 -17.5 -9.5 q-9.5 -3.5 -19.5 -3.5 l-208 0 l-40 -227 q-2 -7 -5 -15 l240 0 q20 0 32 -12 q12 -12 12 -25 q0 -3 -1 -6 q-1 -8 -6.5 -15.5 q-5.5 -7.5 -14 -14 q-8.5 -6.5 -18 -10 q-9.5 -3.5 -19.5 -3.5 l-686 0 l-13 -71 q-7 -37 -17.5 -79.5 q-10.5 -42.5 -25.5 -87.5 q-15 -45 -37 -89 q-22 -44 -51 -84 q-6 -11 -16 -17.5 q-10 -6.5 -20.5 -8 q-10.5 -1.5 -20 1 q-9.5 2.5 -16.5 9.5 q-11 10 -11 29 Z" /><glyph glyph-name="uni4E2A" unicode="&#x4e2a;" d="M462 -35 l92 522 q2 9 7.5 18 q5.5 9 13.5 15.5 q8 6.5 17.5 11 q9.5 4.5 18.5 4.5 l5 0 q9 0 17 -4.5 q8 -4.5 13.5 -11 q5.5 -6.5 8 -15.5 q2.5 -9 0.5 -18 l-91 -522 q-2 -9 -7.5 -17.5 q-5.5 -8.5 -13.5 -15.5 q-8 -7 -17.5 -11 q-9.5 -4 -18.5 -4 l-5 0 q-9 0 -17 4 q-8 4 -14 11 q-6 7 -8.5 15.5 q-2.5 8.5 -0.5 17.5 ZM161 438 q0 10 7.5 27 q7.5 17 34.5 29 q61 27 121.5 61.5 q60.5 34.5 116 74.5 q55.5 40 106.5 85 q51 45 93 94 q7 7 15.5 12 q8.5 5 18 7.5 q9.5 2.5 18.5 2.5 q9 0 15 -3 l2 -1 q7 -4 12 -12 q5 -8 5.5 -17.5 q0.5 -9.5 -1.5 -19.5 q-3 -10 -10 -19 q65 -91 139.5 -155 q74.5 -64 158.5 -112 q25 -13 25 -39 q0 -22 -18 -42 q-6 -7 -15.5 -12 q-9.5 -5 -19 -7.5 q-9.5 -2.5 -19 -2 q-9.5 0.5 -17.5 4.5 q-85 52 -163 123 q-73 67 -142 165 q-17 -16 -34 -33 q-57 -53 -119 -99 q-62 -46 -127.5 -86 q-65.5 -40 -132.5 -71 q-8 -4 -17 -4 q-9 0 -17.5 2.5 q-8.5 2.5 -15.5 7.5 q-7 5 -11 12 l-2 3 q-7 12 -7 24 Z" /><glyph glyph-name="uni4E2D" unicode="&#x4e2d;" d="M627 332 l258 0 l41 235 q1 2 -1 4 q-2 2 -4 2 l-251 0 l-43 -241 ZM268 332 l257 0 l42 241 l-250 0 q-2 0 -4.5 -2 q-2.5 -2 -2.5 -4 l-42 -235 ZM152 226 l69 393 q2 10 8 18.5 q6 8.5 14 15.5 q8 7 18 11.5 q10 4.5 19 4.5 l304 0 l22 126 q2 10 7.5 18.5 q5.5 8.5 14 16 q8.5 7.5 18 11.5 q9.5 4 18.5 4 l6 0 q9 0 16.5 -4 q7.5 -4 13.5 -11.5 q6 -7.5 8.5 -16 q2.5 -8.5 0.5 -18.5 l-22 -126 l310 0 q9 0 17 -4.5 q8 -4.5 14 -11 q6 -6.5 8.5 -15.5 q2.5 -9 0.5 -18 l-68 -389 q-2 -9 -7 -18 q-5 -9 -13.5 -16 q-8.5 -7 -17.5 -11 q-9 -4 -19 -4 l-5 0 q-9 0 -17 4 q-8 4 -13.5 11.5 q-5.5 7.5 -8.5 16.5 q-3 9 0 18 l0 4 l-257 0 l-48 -270 q-2 -10 -7.5 -18.5 q-5.5 -8.5 -14 -16 q-8.5 -7.5 -17.5 -11.5 q-9 -4 -18 -4 l-6 0 q-9 0 -17 4 q-8 4 -14 11.5 q-6 7.5 -8.5 16 q-2.5 8.5 -0.5 18.5 l48 270 l-256 0 l-2 -9 q-2 -9 -7.5 -18 q-5.5 -9 -14 -16.5 q-8.5 -7.5 -17.5 -11.5 q-9 -4 -18 -4 l-1 0 q-9 0 -17 4 q-8 4 -14 11.5 q-6 7.5 -8.5 16.5 q-2.5 9 -0.5 17 Z" /><glyph glyph-name="uni4E30" unicode="&#x4e30;" d="M105 198 l0 1 q2 9 7.5 17.5 q5.5 8.5 14 16 q8.5 7.5 18 11 q9.5 3.5 18.5 3.5 l347 0 l24 138 l-259 0 q-9 0 -17.5 4 q-8.5 4 -15 10.5 q-6.5 6.5 -9 15 q-2.5 8.5 -0.5 17.5 q1 9 7 17 q6 8 14 15 q8 7 18 10.5 q10 3.5 19 3.5 l260 0 l22 125 l-310 0 q-10 0 -18.5 4 q-8.5 4 -14.5 11.5 q-6 7.5 -8.5 16 q-2.5 8.5 -0.5 18.5 q2 9 7.5 17.5 q5.5 8.5 14 15.5 q8.5 7 18 11 q9.5 4 18.5 4 l311 0 l17 95 q2 9 7.5 18 q5.5 9 13.5 16 q8 7 17.5 11.5 q9.5 4.5 18.5 4.5 l9 0 q9 0 16.5 -4.5 q7.5 -4.5 13.5 -11.5 q6 -7 8.5 -16 q2.5 -9 -0.5 -18 l-16 -95 l311 0 q9 0 17.5 -4 q8.5 -4 14 -11 q5.5 -7 8.5 -15.5 q3 -8.5 1 -17.5 q-1 -10 -7 -18.5 q-6 -8.5 -14.5 -16 q-8.5 -7.5 -17.5 -11.5 q-9 -4 -19 -4 l-311 0 l-22 -125 l264 0 q10 0 18.5 -3.5 q8.5 -3.5 14.5 -10.5 q6 -7 8.5 -15 q2.5 -8 1.5 -17 q-2 -9 -7.5 -17.5 q-5.5 -8.5 -14 -15 q-8.5 -6.5 -18 -10.5 q-9.5 -4 -19.5 -4 l-265 0 l-24 -138 l352 0 q8 0 16.5 -3.5 q8.5 -3.5 14 -11 q5.5 -7.5 8.5 -16 q3 -8.5 0 -17.5 l0 -1 q-1 -9 -6.5 -17.5 q-5.5 -8.5 -14 -15.5 q-8.5 -7 -18 -11.5 q-9.5 -4.5 -18.5 -4.5 l-351 0 l-33 -183 q-1 -9 -6.5 -18 q-5.5 -9 -13.5 -16 q-8 -7 -18 -11 q-10 -4 -18 -4 l-9 0 q-9 0 -16.5 4 q-7.5 4 -13.5 11 q-6 7 -8 16 q-2 9 -1 18 l32 183 l-348 0 q-9 0 -17 4.5 q-8 4.5 -13.5 11.5 q-5.5 7 -8.5 15.5 q-3 8.5 -1 17.5 Z" /><glyph glyph-name="uni4E32" unicode="&#x4e32;" d="M663 531 l202 0 q2 0 4.5 2 q2.5 2 2.5 4 l18 102 q1 2 -1 4 q-2 2 -4 2 l-202 0 l-20 -114 ZM598 163 l245 0 q4 0 8 -1 l20 116 q0 2 -1.5 4 q-1.5 2 -3.5 2 l-246 0 l-22 -121 ZM353 537 q0 -2 1.5 -4 q1.5 -2 3.5 -2 l200 0 l20 114 l-199 0 q-3 0 -5 -2 q-2 -2 -3 -4 l-18 -102 ZM248 161 q5 2 10 2 l235 0 l22 121 l-240 0 q-2 0 -4 -2 q-2 -2 -3 -4 l-20 -117 ZM133 85 l42 239 q2 9 7.5 18 q5.5 9 14 16 q8.5 7 18.5 11.5 q10 4.5 19 4.5 l296 0 l13 72 l-256 0 q-9 0 -17.5 4 q-8.5 4 -14.5 11 q-6 7 -8.5 15.5 q-2.5 8.5 -0.5 17.5 l33 188 q1 9 7 18 q6 9 14 16 q8 7 18 11 q10 4 20 4 l255 0 l12 64 q1 9 7 18 q6 9 14 16 q8 7 17.5 11 q9.5 4 18.5 4 l8 0 q10 0 17 -4 q7 -4 13.5 -11 q6.5 -7 8.5 -16 q2 -9 1 -18 l-12 -64 l265 0 q10 0 17.5 -4 q7.5 -4 14 -11 q6.5 -7 8.5 -16 q2 -9 1 -18 l-33 -188 q-2 -9 -7.5 -17.5 q-5.5 -8.5 -14 -15.5 q-8.5 -7 -18 -11 q-9.5 -4 -19.5 -4 l-264 0 l-13 -72 l309 0 q10 0 18 -4.5 q8 -4.5 14 -11.5 q6 -7 8.5 -16 q2.5 -9 0.5 -18 l-42 -238 q-2 -9 -7 -18 q-5 -9 -13.5 -16.5 q-8.5 -7.5 -17.5 -11.5 q-9 -4 -19 -4 l-9 0 q-9 0 -17 4 q-8 4 -13.5 11.5 q-5.5 7.5 -8.5 16.5 q-1 4 -1 8 q-4 -1 -9 -1 l-245 0 l-20 -110 q-1 -9 -6.5 -18 q-5.5 -9 -14 -16 q-8.5 -7 -17.5 -11 q-9 -4 -19 -4 l-8 0 q-9 0 -17 4 q-8 4 -13.5 11 q-5.5 7 -8 16 q-2.5 9 -1.5 18 l20 110 l-235 0 q-5 0 -11 2 q-2 -5 -5 -11 q-5 -9 -13.5 -16 q-8.5 -7 -17.5 -11 q-9 -4 -18 -4 l-6 0 q-9 0 -17 4 q-8 4 -13.5 11 q-5.5 7 -8 16 q-2.5 9 -0.5 19 Z" /><glyph glyph-name="uni4E34" unicode="&#x4e34;" d="M752 57 l112 0 l38 223 q1 2 -0.5 3.5 q-1.5 1.5 -4.5 1.5 l-105 0 l0 -13 l-36 -202 q-1 -6 -4 -13 ZM729 538.5 q-3 9.5 -2.5 19.5 q0.5 10 5.5 19.5 q5 9.5 13 15.5 q11 9 29 9.5 q18 0.5 28 -7.5 q25 -21 48.5 -45 q23.5 -24 41.5 -44 q6 -6 8.5 -14.5 q2.5 -8.5 1.5 -18 q-1 -9.5 -5 -18.5 q-4 -9 -11 -15 q-7 -7 -17.5 -10.5 q-10.5 -3.5 -20.5 -3.5 q-10 0 -18.5 3.5 q-8.5 3.5 -15.5 9.5 q-15 19 -35 41 q-20 22 -40 42 q-7 7 -10 16.5 ZM550 56 q4 1 8 1 l108 0 q-1 7 1 13 l35 202 q1 7 4 13 l-109 0 q-3 0 -5 -1.5 q-2 -1.5 -3 -4.5 l-39 -223 ZM483 497 q0 3 1.5 16 q1.5 13 19.5 34 q49 52 91.5 117.5 q42.5 65.5 76.5 138.5 q4 9 11.5 16.5 q7.5 7.5 16.5 12.5 q9 5 19 7.5 q10 2.5 18 0.5 q10 -2 16.5 -7.5 q6.5 -5.5 10.5 -14 q4 -8.5 4 -18 q0 -9.5 -4 -19.5 q-12 -25 -25 -49 l315 0 q10 0 18 -3.5 q8 -3.5 14 -10.5 q6 -7 8.5 -15.5 q2.5 -8.5 1.5 -17.5 q-2 -9 -8 -17 q-6 -8 -14 -15 q-8 -7 -17.5 -11 q-9.5 -4 -18.5 -4 l-340 0 q-7 0 -12 1 q-8 -11 -15 -22 q-51 -78 -106 -137 q-6 -8 -15 -12.5 q-9 -4.5 -19 -6.5 q-10 -2 -18.5 -1 q-8.5 1 -14.5 6 q-15 12 -15 31 ZM440 -35 l64 364 q2 10 7.5 18.5 q5.5 8.5 14 15.5 q8.5 7 18.5 11.5 q10 4.5 19 4.5 l406 0 q10 0 18 -4.5 q8 -4.5 13.5 -11 q5.5 -6.5 8.5 -15.5 q3 -9 1 -18 l-63 -361 q-2 -9 -7.5 -18 q-5.5 -9 -14 -15.5 q-8.5 -6.5 -17.5 -11 q-9 -4.5 -18 -4.5 l-2 0 q-9 0 -17 4.5 q-8 4.5 -13.5 11.5 q-5.5 7 -8.5 16 q-2 7 -1 14 l-306 0 q-4 0 -8 1 l0 -2 q-2 -9 -7.5 -18 q-5.5 -9 -13.5 -16 q-8 -7 -17 -11 q-9 -4 -17.5 -4 q-8.5 0 -16.5 4 q-8 4 -13.5 11 q-5.5 7 -8 16 q-2.5 9 -0.5 18 ZM259 -26 l143 810 q2 9 7 17.5 q5 8.5 14 16 q9 7.5 18 11.5 q9 4 18 4 q9 0 17 -4 q8 -4 13.5 -11.5 q5.5 -7.5 8 -16 q2.5 -8.5 -0.5 -17.5 l-142 -810 q-2 -10 -7.5 -18.5 q-5.5 -8.5 -13.5 -15.5 q-8 -7 -17.5 -11.5 q-9.5 -4.5 -18 -4.5 q-8.5 0 -16.5 4.5 q-8 4.5 -14 11.5 q-6 7 -8.5 15.5 q-2.5 8.5 -0.5 18.5 ZM110 88 l104 591 q2 10 7 18.5 q5 8.5 13 15.5 q8 7 17 11.5 q9 4.5 18 4.5 q8 0 15.5 -4.5 q7.5 -4.5 12.5 -11.5 q5 -7 7.5 -15.5 q2.5 -8.5 0.5 -18.5 l-104 -591 q-2 -9 -7.5 -18 q-5.5 -9 -13 -16 q-7.5 -7 -16.5 -11 q-9 -4 -17 -4 q-9 0 -16.5 4 q-7.5 4 -12.5 11 q-5 7 -7.5 16 q-2.5 9 -0.5 18 Z" /><glyph glyph-name="uni4E3A" unicode="&#x4e3a;" d="M598 314 q-4 9 -4 20 q0 11 4 21 q4 10 11.5 18 q7.5 8 17.5 12 q8 4 17 4 q6 0 18 -3.5 q12 -3.5 19 -15.5 q19 -28 36.5 -59 q17.5 -31 28.5 -57 q3 -7 1.5 -16 q-1.5 -9 -5 -18 q-3.5 -9 -10.5 -16 q-7 -7 -15 -11 q-9 -5 -19.5 -5 q-10.5 0 -20 4 q-9.5 4 -16.5 10.5 q-7 6.5 -10 15.5 q-9 22 -23.5 47.5 q-14.5 25.5 -29.5 48.5 ZM332 733 q-5 9 -4 20 q1 11 5 21.5 q4 10.5 12 18.5 q8 8 19 13 q13 5 29 0.5 q16 -4.5 22 -15.5 q13 -19 24.5 -39.5 q11.5 -20.5 20.5 -37.5 q4 -9 2.5 -18 q-1.5 -9 -5.5 -18 q-4 -9 -11.5 -16.5 q-7.5 -7.5 -16.5 -10.5 q-9 -4 -19 -3.5 q-10 0.5 -19.5 4 q-9.5 3.5 -16.5 10.5 q-7 7 -10 16 q-6 12 -14.5 26.5 q-8.5 14.5 -17.5 28.5 ZM105 -11 q0 7 4.5 23 q4.5 16 28.5 33 q114 77 187 163.5 q73 86.5 117 174.5 q32 64 53 126 l-257 0 q-10 0 -18.5 4 q-8.5 4 -14 11 q-5.5 7 -8 15.5 q-2.5 8.5 -1.5 17.5 l1 3 q1 9 7 17.5 q6 8.5 14 15.5 q8 7 18 11 q10 4 19 4 l266 0 q14 56 23 108 l14 77 q1 10 7 18.5 q6 8.5 14 16 q8 7.5 17.5 11.5 q9.5 4 17.5 4 l3 0 q9 0 17 -4 q8 -4 14 -11.5 q6 -7.5 8.5 -16 q2.5 -8.5 0.5 -18.5 l-14 -78 q-9 -50 -22 -107 l364 0 q9 0 17 -4 q8 -4 14.5 -11 q6.5 -7 9 -15.5 q2.5 -8.5 0.5 -17.5 l0 -3 q-1 -6 -4 -12 q-30 -140 -52 -238 q-24 -103 -43.5 -170.5 q-19.5 -67.5 -36.5 -105.5 q-17 -38 -35 -56 q-24 -25 -47 -34.5 q-23 -9.5 -53 -13.5 q-21 -2 -51 -2 q-30 0 -64 1 q-18 0 -31 12 q-13 12 -15 26 q0 4 0 7 q0 21 16 37.5 q16 16.5 44 16.5 q2 0 3 0 q12 -1 21 -1.5 q9 -0.5 17 -0.5 l33 0 q15 0 25 3 q10 3 21 12 q14 12 29 47.5 q15 35.5 33.5 101 q18.5 65.5 40.5 164.5 q17 69 35 158 l-317 0 q-25 -82 -68 -167 q-51 -101 -133.5 -199.5 q-82.5 -98.5 -212.5 -183.5 q-8 -6 -17.5 -8 q-9.5 -2 -19 -1 q-9.5 1 -17.5 4 q-8 3 -12 9 q-10 11 -10 26 Z" /><glyph glyph-name="uni4E3B" unicode="&#x4e3b;" d="M73 -4 q2 9 7.5 17.5 q5.5 8.5 14 15.5 q8.5 7 18 11 q9.5 4 18.5 4 l343 0 l39 219 l-248 0 q-9 0 -17.5 4.5 q-8.5 4.5 -14.5 11 q-6 6.5 -8.5 15 q-2.5 8.5 -1.5 17.5 q1 9 7 17 q6 8 14.5 15 q8.5 7 18 11 q9.5 4 18.5 4 l249 0 l29 163 q1 9 6.5 17.5 q5.5 8.5 13.5 15.5 q0 1 1 1 l-314 0 q-9 0 -17 4 q-8 4 -14.5 10.5 q-6.5 6.5 -8.5 15.5 q-2 9 -1 18 q1 9 7 17.5 q6 8.5 14 15.5 q8 7 18 11 q10 4 19 4 l373 0 q-5 3 -10 7 q-14 21 -36 44.5 q-22 23.5 -45 45.5 q-9 8 -12 18.5 q-3 10.5 -1.5 21 q1.5 10.5 8 21 q6.5 10.5 17.5 16.5 l4 2 q11 6 26.5 6.5 q15.5 0.5 23.5 -6.5 q29 -24 56.5 -51 q27.5 -27 48.5 -52 q7 -7 9 -16 q2 -9 -0.5 -19 q-2.5 -10 -8.5 -19 q-6 -9 -16 -15 l-6 -4 l270 0 q10 0 18 -4 q8 -4 14 -11 q6 -7 8.5 -15.5 q2.5 -8.5 1.5 -17.5 q-2 -9 -7.5 -18 q-5.5 -9 -13.5 -15.5 q-8 -6.5 -18 -10.5 q-10 -4 -20 -4 l-311 0 l0 -1 q6 -7 8.5 -15.5 q2.5 -8.5 1.5 -17.5 l-29 -163 l251 0 q10 0 18 -4 q8 -4 14 -11 q6 -7 8.5 -15 q2.5 -8 1.5 -17 q-1 -9 -7 -17.5 q-6 -8.5 -14.5 -15 q-8.5 -6.5 -17.5 -11 q-9 -4.5 -19 -4.5 l-252 0 l-39 -219 l347 0 q10 0 18 -4 q8 -4 13.5 -11 q5.5 -7 8.5 -15.5 q3 -8.5 1 -17.5 q-1 -9 -7 -17.5 q-6 -8.5 -14.5 -15.5 q-8.5 -7 -17.5 -11 q-9 -4 -18 -4 l-798 0 q-9 0 -17 4 q-8 4 -14 11 q-6 7 -8.5 15.5 q-2.5 8.5 -1.5 17.5 Z" /><glyph glyph-name="uni4E3E" unicode="&#x4e3e;" d="M575 764 q-3 10 -2.5 21 q0.5 11 4 21.5 q3.5 10.5 11.5 18.5 q8 8 18 12 q12 6 28 1 q16 -5 22 -17 q11 -19 20.5 -40.5 q9.5 -21.5 16.5 -40.5 q3 -7 1.5 -16 q-1.5 -9 -5.5 -18 q-4 -9 -11 -15.5 q-7 -6.5 -15 -9.5 q-10 -4 -20 -4 q-10 0 -19 4 q-9 4 -15.5 11.5 q-6.5 7.5 -10.5 16.5 q-4 12 -10 26.5 q-6 14.5 -13 28.5 ZM332 736 q-4 10 -4 21 q0 11 4 21.5 q4 10.5 11.5 19.5 q7.5 9 18.5 13 q12 6 28 2.5 q16 -3.5 23 -13.5 q13 -19 25 -39.5 q12 -20.5 21 -38.5 q4 -8 3 -17 q-1 -9 -5 -18 q-4 -9 -11 -16.5 q-7 -7.5 -15 -11.5 q-9 -5 -19 -5 l381 0 q0 2 -1 5 q0 10 3.5 21 q3.5 11 11.5 22 q19 20 40.5 44.5 q21.5 24.5 38.5 47.5 q11 15 27.5 22 q16.5 7 27.5 7 q6 0 11 -2 l3 -1 q11 -3 17 -11 q6 -8 7.5 -18 q1.5 -10 -1.5 -21 q-3 -11 -12 -20 q-25 -28 -52 -56 q-20 -22 -40 -40 l162 0 q9 0 17 -4 q8 -4 14 -10 q6 -6 9 -14 q3 -8 1 -16 q-1 -9 -7 -17 q-6 -8 -14 -14.5 q-8 -6.5 -17.5 -10 q-9.5 -3.5 -17.5 -3.5 l-174 0 q11 -21 25 -41 q18 -24 38.5 -46 q20.5 -22 44.5 -41.5 q24 -19.5 49 -34.5 q21 -14 22.5 -27 q1.5 -13 1.5 -16 q0 -20 -16 -36 q-11 -12 -24.5 -14.5 q-13.5 -2.5 -18.5 -2.5 q-13 0 -22 6 q-30 19 -57 43.5 q-27 24.5 -51.5 52.5 q-24.5 28 -44.5 59.5 q-20 31.5 -35 64.5 q-4 9 -3 19 q0 7 2 14 l-270 0 q1 -8 -2 -17 q-2 -10 -10 -19 q-28 -35 -60.5 -68 q-32.5 -33 -68 -62 q-35.5 -29 -73.5 -53.5 q-38 -24.5 -76 -44.5 q-11 -6 -24 -6 q-5 0 -16.5 2 q-11.5 2 -18.5 14 q-5 9 -5 19 q0 10 8 27 q8 17 33 31 q33 16 65 36 q32 20 61.5 44 q29.5 24 56.5 50 q23 23 43 47 l-180 0 q-9 0 -17 3.5 q-8 3.5 -14 10 q-6 6.5 -8.5 14.5 q-2.5 8 -1.5 17 q2 8 7.5 16 q5.5 8 13.5 14 q8 6 17.5 10 q9.5 4 18.5 4 l175 0 q-11 0 -21 3.5 q-10 3.5 -17.5 10 q-7.5 6.5 -11.5 15.5 q-5 12 -12.5 26 q-7.5 14 -17.5 27 ZM136 145 q1 8 6.5 16 q5.5 8 14 15 q8.5 7 18 11 q9.5 4 18.5 4 l313 0 l18 105 l-163 0 q-9 0 -17.5 4 q-8.5 4 -14.5 10 q-6 6 -9 14 q-3 8 -1 17 q1 9 7 17 q6 8 14 14.5 q8 6.5 18 10 q10 3.5 19 3.5 l163 0 l12 67 q1 9 7 18 q6 9 14.5 16 q8.5 7 18 11 q9.5 4 18.5 4 l1 0 q9 0 17 -4 q8 -4 13.5 -11 q5.5 -7 8 -16 q2.5 -9 1.5 -18 l-12 -67 l164 0 q10 0 18 -3.5 q8 -3.5 14 -10 q6 -6.5 8.5 -14.5 q2.5 -8 1.5 -17 q-1 -9 -6.5 -17 q-5.5 -8 -14 -14 q-8.5 -6 -18 -10 q-9.5 -4 -18.5 -4 l-165 0 l-19 -105 l321 0 q9 0 17 -4 q8 -4 14 -11 q6 -7 8.5 -15 q2.5 -8 1.5 -16 q-2 -9 -7.5 -17 q-5.5 -8 -14 -14.5 q-8.5 -6.5 -17.5 -10.5 q-9 -4 -19 -4 l-320 0 l-24 -135 q-1 -9 -7 -18 q-6 -9 -14 -15.5 q-8 -6.5 -17 -11 q-9 -4.5 -19 -4.5 l-1 0 q-9 0 -17 4.5 q-8 4.5 -14 11 q-6 6.5 -8.5 15.5 q-2.5 9 -0.5 18 l23 135 l-312 0 q-9 0 -17 4 q-8 4 -14 10.5 q-6 6.5 -9 14.5 q-3 8 -1 17 Z" /><glyph glyph-name="uni4E45" unicode="&#x4e45;" d="M93 -26 q0 9 6.5 26.5 q6.5 17.5 33.5 31.5 q93 44 180 104.5 q87 60.5 163 139 q76 78.5 139 174.5 q44 66 80 139 l-237 0 q-23 -32 -46 -62 q-87 -112 -183 -194 q-7 -6 -17 -9 q-10 -3 -19.5 -3.5 q-9.5 -0.5 -18.5 2 q-9 2.5 -15 8.5 l-1 1 l0 1 q-9 8 -11.5 18.5 q-2.5 10.5 -0.5 22 q2 11.5 8.5 22.5 q6.5 11 16.5 20 q89 73 165 171.5 q76 98.5 136 212.5 q4 8 12 15.5 q8 7.5 17 12 q9 4.5 18.5 6.5 q9.5 2 17.5 0 l10 -2 q9 -2 15.5 -9 q6.5 -7 10 -15.5 q3.5 -8.5 2.5 -18.5 q-1 -10 -6 -20 q-23 -41 -47 -81 l196 0 q10 0 18 -4 q1 0 1 -1 q6 5 11 5 q2 0 4.5 0.5 q2.5 0.5 5.5 1.5 l3 0 q4 2 10.5 1 q6.5 -1 10.5 -3 l22 -11 q5 -3 10 -9.5 q5 -6.5 7 -14 q2 -7.5 1.5 -16 q-0.5 -8.5 -3.5 -15.5 q-56 -123 -125 -226 q4 -7 6 -14 q13 -54 34.5 -104.5 q21.5 -50.5 51.5 -94.5 q30 -44 67.5 -81.5 q37.5 -37.5 81.5 -64.5 q22 -14 22 -40 q0 -24 -19 -43 q-6 -7 -15 -12 q-9 -5 -18.5 -7 q-9.5 -2 -18.5 -1.5 q-9 0.5 -15 5.5 q-52 32 -94 75 q-42 43 -75.5 95 q-33.5 52 -58.5 112 q-14 35 -25 72 q-42 -52 -87 -98 q-84 -86 -177.5 -151.5 q-93.5 -65.5 -191.5 -110.5 q-7 -5 -16.5 -5 q-9.5 0 -18 2.5 q-8.5 2.5 -15.5 7 q-7 4.5 -11 10.5 q-8 12 -8 26 Z" /><glyph glyph-name="uni4E48" unicode="&#x4e48;" d="M187 383 q-7 8 -9 18.5 q-2 10.5 1 21.5 q3 11 9.5 21 q6.5 10 18.5 19 q50 34 100 75.5 q50 41.5 97 85 q47 43.5 89.5 88.5 q42.5 45 77.5 87 q10 14 25.5 20 q15.5 6 25.5 6 q8 0 14 -3 l7 -2 q9 -4 15 -12 q6 -8 7.5 -18 q1.5 -10 -2 -21 q-3.5 -11 -11.5 -20 q-41 -48 -89 -98 q-48 -50 -99.5 -97.5 q-51.5 -47.5 -105 -91.5 q-53.5 -44 -106.5 -82 q-8 -5 -17 -7 q-9 -2 -18.5 -2 q-9.5 0 -17 3 q-7.5 3 -12.5 9 ZM144 16 q-2 9 1 19.5 q3 10.5 9.5 21.5 q6.5 11 15.5 20 q9 9 19 16 q9 5 15.5 8.5 q6.5 3.5 15 10 q8.5 6.5 23.5 17.5 q15 11 42 32 q29 20 81 64 q52 44 118 104 q66 60 139 133 q73 73 142 150 q5 7 14 12 q9 5 18 7.5 q9 2.5 18 2.5 q9 0 15 -4 l11 -6 q9 -5 14 -13 q5 -8 5.5 -18.5 q0.5 -10.5 -3 -21 q-3.5 -10.5 -11.5 -18.5 q-150 -162 -302 -294 q-109 -95 -211 -173 l465 35 q-15 31 -31 62 q-17 34 -36 66 q-5 9 -4.5 20 q0.5 11 5 21 q4.5 10 12 18.5 q7.5 8.5 17.5 12.5 l4 2 q8 4 18 4 q7 0 19.5 -3.5 q12.5 -3.5 19.5 -16.5 q21 -34 41 -71.5 q20 -37.5 38 -74.5 q18 -37 33.5 -73 q15.5 -36 25.5 -67 q3 -8 1.5 -17 q-1.5 -9 -6 -17.5 q-4.5 -8.5 -11 -16 q-6.5 -7.5 -14.5 -11.5 l-8 -4 q-10 -5 -20.5 -5 q-10.5 0 -20 4 q-9.5 4 -16 11 q-6.5 7 -9.5 16 q-9 27 -21 56 q-4 -2 -7 -4 q-10 -5 -22 -6 q-143 -12 -243 -20 q-100 -8 -168 -13.5 q-68 -5.5 -108.5 -9 q-40.5 -3.5 -65.5 -6.5 q-13 -1 -24 1.5 q-11 2.5 -19 8.5 q-2 1 -3 3 q-3 0 -6 1 q-20 6 -25 24 Z" /><glyph glyph-name="uni4E49" unicode="&#x4e49;" d="M576 768 q-1 9 0.5 19.5 q1.5 10.5 6.5 20 q5 9.5 13 17 q8 7.5 18 10.5 q6 2 12 2 q9 0 22 -6.5 q13 -6.5 18 -20.5 q12 -40 23.5 -81.5 q11.5 -41.5 18.5 -77.5 q1 -8 -0.5 -17 q-1.5 -9 -7 -18 q-5.5 -9 -12.5 -16 q-7 -7 -16 -10 q-10 -3 -20 -2.5 q-10 0.5 -18 5.5 q-8 5 -14.5 12.5 q-6.5 7.5 -7.5 16.5 q-6 34 -15 72.5 q-9 38.5 -21 73.5 ZM73 -34 q0 12 10.5 29 q10.5 17 37.5 26 q145 50 264 121 q53 32 101 66 q-70 90 -118 199 q-50 111 -80 236 q-1 9 1.5 19 q2.5 10 8.5 19.5 q6 9.5 14 16 q8 6.5 17 9.5 q9 3 18 1 q9 -2 16.5 -6.5 q7.5 -4.5 13.5 -11.5 q6 -7 8 -15 q25 -111 70.5 -210 q45.5 -99 113.5 -182 l4 -6 l30 26 q97 90 174.5 195.5 q77.5 105.5 139.5 224.5 q4 9 12.5 16 q8.5 7 18 12 q9.5 5 19.5 6.5 q10 1.5 19 -0.5 l5 -2 q8 -3 14.5 -9.5 q6.5 -6.5 9 -15 q2.5 -8.5 2 -18.5 q-0.5 -10 -5.5 -19 q-71 -130 -156.5 -245 q-85.5 -115 -192.5 -212 q-13 -13 -28 -25 q42 -41 90 -76 q88 -65 196 -107 q27 -10 28.5 -23 q1.5 -13 1.5 -16 q0 -21 -18 -41 q-9 -11 -23.5 -16 q-14.5 -5 -23.5 -5 q-7 0 -12 2 q-122 45 -217 115 q-60 44 -111 96 q-58 -42 -120 -79 q-131 -78 -292 -133 q-8 -3 -16 -3 q-9 0 -22.5 5.5 q-13.5 5.5 -17.5 18.5 q-4 9 -4 17 Z" /><glyph glyph-name="uni4E4B" unicode="&#x4e4b;" d="M589 761 q-3 9 -3 19.5 q0 10.5 4 20.5 q4 10 11.5 18.5 q7.5 8.5 16.5 12.5 l5 3 q8 3 16 3.5 q8 0.5 16.5 -1.5 q8.5 -2 15.5 -6.5 q7 -4.5 10 -10.5 q13 -22 25 -45 q12 -23 20 -43 q4 -8 3.5 -17.5 q-0.5 -9.5 -4.5 -18.5 q-4 -9 -10.5 -16.5 q-6.5 -7.5 -15.5 -12.5 l-6 -3 q-10 -5 -20 -5.5 q-10 -0.5 -19.5 2.5 q-9.5 3 -17 9 q-7.5 6 -11.5 15 q-6 17 -16 37.5 q-10 20.5 -20 38.5 ZM88 -17 q-3 6 -4 14.5 q-1 8.5 1 17.5 q2 9 7 17 q5 8 11 14 q54 44 98.5 71.5 q44.5 27.5 85.5 27.5 q8 0 16 -3 q8 10 21 18 q79 45 162 102 q83 57 159 118.5 q76 61.5 141 124.5 q28 27 52 52 l-574 0 q-9 0 -17.5 4 q-8.5 4 -14.5 11 q-6 7 -8.5 15.5 q-2.5 8.5 -0.5 17.5 q1 9 7 17.5 q6 8.5 14 15.5 q8 7 18 11 q10 4 19 4 l613 0 q10 0 18 -4 q5 4 11 4 q2 0 4.5 0.5 q2.5 0.5 4.5 0.5 q7 1 15 -0.5 q8 -1.5 12 -4.5 l18 -12 q6 -5 10 -13.5 q4 -8.5 4 -18.5 q0 -10 -3 -20 q-3 -10 -10 -17 q-61 -67 -135 -135.5 q-74 -68.5 -154.5 -132 q-80.5 -63.5 -165.5 -120.5 q-74 -51 -147 -91 q5 -4 10 -7 q42 -31 104.5 -39.5 q62.5 -8.5 145.5 -8.5 q66 0 141.5 3.5 q75.5 3.5 143.5 8.5 q4 0 8 0 q22 0 31 -12 q9 -12 9 -24 q0 -10 -5 -21 q-6 -15 -24 -28 q-18 -13 -34 -14 q-29 -2 -64.5 -3 q-35.5 -1 -73 -2.5 q-37.5 -1.5 -76.5 -2 q-39 -0.5 -76 -0.5 q-92 0 -154 11.5 q-62 11.5 -108 42.5 q-28 20 -48.5 40 q-20.5 20 -37.5 20 q-17 0 -42.5 -20.5 q-25.5 -20.5 -55.5 -52.5 q-10 -10 -20.5 -15.5 q-10.5 -5.5 -22 -6 q-11.5 -0.5 -20.5 4 q-9 4.5 -15 14.5 l-4 6 Z" /><glyph glyph-name="uni4E4C" unicode="&#x4e4c;" d="M266 350 l61 342 q2 10 7.5 19 q5.5 9 14 16 q8.5 7 18.5 11 q10 4 18 4 l157 0 q-3 14 4 28 q7 8 14 18 q7 10 13 19 q7 16 24 26 q17 10 32 10 q3 0 5 0 q11 -1 19 -7 q8 -6 11 -15 q3 -9 2 -20 q-1 -11 -8 -21 q-9 -12 -18 -23 q-5 -8 -10 -15 l313 0 q10 0 18 -3.5 q8 -3.5 14 -10 q6 -6.5 9 -14 q3 -7.5 2 -15.5 q-2 -8 -8 -16 l0 -1 q-11 -42 -21 -74 q-11 -37 -22 -63 q-11 -26 -21 -42.5 q-10 -16.5 -21 -26.5 q-18 -16 -38.5 -21.5 q-20.5 -5.5 -44.5 -7.5 q-16 -1 -41 -1 q-25 0 -54 2 q-16 0 -29 10.5 q-13 10.5 -13 22.5 q0 20 18 33 q18 13 43 13 q2 0 4 0 q8 -1 13 -1 l33 0 q14 0 21.5 1.5 q7.5 1.5 14.5 8.5 q7 5 14.5 19 q7.5 14 16 37 q8.5 23 18.5 56 q1 4 2 7 l-450 0 q-3 0 -5 -2 q-2 -2 -3 -4 l-45 -256 q0 -3 1 -4.5 q1 -1.5 3 -1.5 l597 0 q9 0 18 -4 q6 -3 11 -7 l1 -1 q7 -5 10.5 -12 q3.5 -7 2.5 -14 l0 -2 q-1 -2 -1 -3 q0 -3 -1 -6 l-36 -156 q-16 -66 -30.5 -111 q-14.5 -45 -27.5 -71 q-13 -26 -26 -40 q-21 -20 -42 -27.5 q-21 -7.5 -49 -10.5 q-19 -1 -38 -1.5 q-19 -0.5 -29 -0.5 q-20 0 -42 1 q-16 0 -29 11 q-13 11 -14 23 q0 3 0 7 q0 20 16 34 q16 14 44 14 q2 0 3 0 q11 -1 19 -2 l46 0 q13 -1 23 1.5 q10 2.5 19 10.5 q11 9 21 31.5 q10 22.5 22.5 65 q12.5 42.5 27.5 104.5 q8 35 18 78 l-599 0 q-9 0 -17.5 4.5 q-8.5 4.5 -14 11.5 q-5.5 7 -8 16 q-2.5 9 -1.5 19 ZM102 159 q2 8 7.5 15.5 q5.5 7.5 13.5 14 q8 6.5 18 10 q10 3.5 19 3.5 l596 0 q9 0 17.5 -3.5 q8.5 -3.5 15 -10 q6.5 -6.5 9 -14 q2.5 -7.5 1.5 -15.5 q-2 -8 -7.5 -16 q-5.5 -8 -13.5 -14 q-8 -6 -18 -10 q-10 -4 -19 -4 l-596 0 q-9 0 -17.5 4 q-8.5 4 -15 10 q-6.5 6 -9 14 q-2.5 8 -1.5 16 Z" /><glyph glyph-name="uni4E4D" unicode="&#x4e4d;" d="M166 415 q-4 10 -3 21 q1 11 6 22.5 q5 11.5 14 20.5 q72 65 138 149 q66 84 119 175 q5 8 12.5 14.5 q7.5 6.5 16.5 11.5 q9 5 18.5 6.5 q9.5 1.5 17.5 -0.5 l7 -1 q9 -3 16 -10 q7 -7 9.5 -16 q2.5 -9 1.5 -19 q-1 -10 -6 -19 q-28 -47 -58 -91 l562 0 q10 0 18 -4 q8 -4 14 -11 q6 -7 8.5 -15 q2.5 -8 0.5 -18 q-1 -9 -6.5 -17.5 q-5.5 -8.5 -14 -15 q-8.5 -6.5 -18.5 -11 q-10 -4.5 -19 -4.5 l-407 0 l-23 -129 q5 1 9 1 l340 0 q9 0 17 -4 q8 -4 13.5 -10.5 q5.5 -6.5 8.5 -15 q3 -8.5 1 -16.5 q-2 -9 -7.5 -17.5 q-5.5 -8.5 -13.5 -15.5 q-8 -7 -17.5 -11 q-9.5 -4 -18.5 -4 l-339 0 q-5 0 -9 1 l-24 -135 q5 1 10 1 l356 0 q10 0 18 -3.5 q8 -3.5 14 -10.5 q6 -7 8.5 -15.5 q2.5 -8.5 0.5 -17.5 q-1 -9 -6.5 -18 q-5.5 -9 -14 -15.5 q-8.5 -6.5 -18 -10.5 q-9.5 -4 -18.5 -4 l-357 0 q-5 0 -10 1 l-30 -169 q-2 -9 -7 -18 q-5 -9 -13.5 -16 q-8.5 -7 -17.5 -11.5 q-9 -4.5 -19 -4.5 l-5 0 q-9 0 -17 4.5 q-8 4.5 -14 11.5 q-6 7 -8.5 16 q-2.5 9 -0.5 18 l109 618 l-93 0 q-5 0 -10 2 q-5 -7 -10 -13 q-73 -93 -148 -165 q-7 -8 -16.5 -12 q-9.5 -4 -19.5 -5 q-10 -1 -19.5 1.5 q-9.5 2.5 -15.5 6.5 q-8 7 -12 17 Z" /><glyph glyph-name="uni4E4E" unicode="&#x4e4e;" d="M798 427.5 q-5 7.5 -6.5 17 q-1.5 9.5 0.5 20.5 q2 11 8 20 q11 14 21.5 30 q10.5 16 21.5 33 q11 17 21.5 34 q10.5 17 19.5 33 q5 9 13 17 q8 8 18 12.5 q10 4.5 20.5 6 q10.5 1.5 18.5 -1.5 l2 -1 q10 -2 16 -10 q6 -8 8 -18 q2 -10 0 -20.5 q-2 -10.5 -9 -20.5 q-25 -36 -51.5 -73.5 q-26.5 -37.5 -50.5 -67.5 q-10 -13 -28 -19.5 q-18 -6.5 -30 -1.5 q-8 3 -13 10.5 ZM297 564 q-2 10 -0.5 20.5 q1.5 10.5 7 20 q5.5 9.5 13.5 17 q8 7.5 17 10.5 q7 3 14 3 q9 0 21 -6 q12 -6 16 -20 q12 -32 22 -67 q10 -35 15 -65 q2 -8 0 -16.5 q-2 -8.5 -7.5 -16.5 q-5.5 -8 -12 -14 q-6.5 -6 -14.5 -9 q-11 -4 -21 -2.5 q-10 1.5 -18.5 6.5 q-8.5 5 -14.5 13 q-6 8 -8 18 q-4 24 -11.5 52.5 q-7.5 28.5 -17.5 55.5 ZM128 325 l0 2 q2 9 7.5 18 q5.5 9 14 16 q8.5 7 18 10.5 q9.5 3.5 18.5 3.5 l358 0 l54 308 q0 2 1 4 q-58 -5 -116 -8 q-84 -5 -163 -8 q-1 0 -3 0 q-16 0 -30.5 12 q-14.5 12 -14.5 28 q0 18 17.5 33 q17.5 15 42.5 17 q80 3 164 9 q84 6 164.5 14.5 q80.5 8.5 155 19 q74.5 10.5 134.5 23.5 q14 3 28.5 -4.5 q14.5 -7.5 19.5 -18.5 l1 -4 q5 -10 3 -21 q-2 -11 -8 -20.5 q-6 -9.5 -16 -16.5 q-10 -7 -22 -9 q-67 -14 -145 -24 q-53 -7 -108 -13 q1 -6 0 -13 l-54 -308 l340 0 q10 0 18 -3.5 q8 -3.5 13.5 -10.5 q5.5 -7 8.5 -16 q3 -9 1 -18 l0 -2 q-2 -10 -8 -18.5 q-6 -8.5 -14 -16 q-8 -7.5 -17.5 -11.5 q-9.5 -4 -18.5 -4 l-341 0 l-41 -234 q-9 -49 -27 -73 q-18 -24 -53 -35 q-30 -11 -73.5 -14 q-43.5 -3 -106.5 -4 q-15 0 -28.5 10.5 q-13.5 10.5 -15.5 24.5 q-1 6 -1 11 q0 18 14 35 q14 17 42 17 q1 0 3 0 q25 -1 45 -1 q10 0 26 0.5 q16 0.5 34 0.5 q17 1 25 6.5 q8 5.5 10 21.5 l42 234 l-358 0 q-9 0 -17 4 q-8 4 -14 11.5 q-6 7.5 -8.5 16 q-2.5 8.5 -0.5 18.5 Z" /><glyph glyph-name="uni4E4F" unicode="&#x4e4f;" d="M537 599 q-2 8 -1 18 q1 10 5.5 20 q4.5 10 11.5 18 q7 8 16 12 l1 0 q8 3 17 3 q9 0 17.5 -2 q8.5 -2 14.5 -7.5 q6 -5.5 10 -11.5 q9 -16 17.5 -32.5 q8.5 -16.5 15.5 -30.5 q3 -8 2 -17.5 q-1 -9.5 -5 -18 q-4 -8.5 -11 -16 q-7 -7.5 -15 -12.5 q-10 -5 -21 -5.5 q-11 -0.5 -20 3 q-9 3.5 -17 10 q-8 6.5 -11 15.5 q-6 12 -12.5 26.5 q-6.5 14.5 -14.5 27.5 ZM268 706 q-1 10 3.5 19.5 q4.5 9.5 13 17 q8.5 7.5 20 12 q11.5 4.5 24.5 5.5 q84 3 172 9.5 q88 6.5 172.5 14.5 q84.5 8 161 19 q76.5 11 138.5 24 q11 2 24 -2.5 q13 -4.5 17 -12.5 l7 -10 q7 -10 7.5 -20.5 q0.5 -10.5 -4.5 -20 q-5 -9.5 -15 -17 q-10 -7.5 -24 -10.5 q-71 -13 -154 -24 q-83 -11 -170 -18.5 q-87 -7.5 -175.5 -13 q-88.5 -5.5 -170.5 -7.5 q-2 0 -3 0 q-16 0 -29.5 10.5 q-13.5 10.5 -14.5 24.5 ZM81 -15 q-7 12 -4 30 q3 18 15 28 q55 52 98.5 81.5 q43.5 29.5 78.5 29.5 q12 0 23 -5.5 q11 -5.5 22 -15.5 l18 -18 q12 18 37 30 q71 31 143 71 q72 40 137.5 83 q65.5 43 121.5 87 q10 8 19 16 l-530 0 q-9 0 -17 4 q-8 4 -14 11 q-6 7 -8.5 16 q-2.5 9 -1.5 17 q2 9 7.5 18 q5.5 9 14 15.5 q8.5 6.5 18 10.5 q9.5 4 18.5 4 l579 0 q9 0 17 -4 q3 -1 5 -3 l2 2 q6 5 13 5 q2 0 4.5 0.5 q2.5 0.5 4.5 0.5 q6 1 15 -0.5 q9 -1.5 13 -5.5 l13 -10 q7 -6 10 -15 q3 -9 2.5 -19 q-0.5 -10 -5 -20 q-4.5 -10 -13.5 -18 q-54 -49 -120 -97.5 q-66 -48.5 -137 -93.5 q-71 -45 -145 -85 q-73 -39 -143 -69 q36 -23 85 -31 q64 -9 155 -9 q70 0 147.5 3.5 q77.5 3.5 145.5 8.5 q4 0 8 0 q23 0 32 -11.5 q9 -11.5 9 -23.5 q0 -10 -5 -22 q-6 -14 -23.5 -27 q-17.5 -13 -34.5 -14 q-30 -2 -66.5 -3.5 q-36.5 -1.5 -75.5 -2.5 q-39 -1 -79.5 -2 q-40.5 -1 -79.5 -1 q-49 0 -89.5 3 q-40.5 3 -73 10 q-32.5 7 -59.5 18.5 q-27 11.5 -50 29.5 q-15 11 -28 23 q-13 12 -24 22.5 q-11 10.5 -20 17 q-9 6.5 -17 6.5 q-15 0 -37.5 -20.5 q-22.5 -20.5 -51.5 -54.5 q-16 -25 -29 -27.5 q-13 -2.5 -16 -2.5 q-18 0 -29 20 l-5 9 Z" /><glyph glyph-name="uni4E50" unicode="&#x4e50;" d="M775 193 q-5 9 -5 20 q0 11 4.5 21 q4.5 10 12 18.5 q7.5 8.5 18.5 12.5 q14 5 30 0.5 q16 -4.5 22 -14.5 q16 -22 31.5 -46 q15.5 -24 30.5 -47.5 q15 -23.5 28 -46.5 q13 -23 23 -43 q4 -9 3 -18.5 q-1 -9.5 -5.5 -18.5 q-4.5 -9 -11.5 -16.5 q-7 -7.5 -16 -12.5 l-3 -1 q-9 -4 -19 -4 q-10 0 -19 3.5 q-9 3.5 -16 9.5 q-7 6 -10 14 q-8 19 -19.5 40 q-11.5 21 -24.5 43 q-13 22 -26.5 43.5 q-13.5 21.5 -27.5 42.5 ZM226 471 q0 1 1 2 l-1 -2 ZM199 390 q-1 8 1.5 18 q2.5 10 7 21 q4.5 11 10 22.5 q5.5 11.5 9.5 20.5 q1 2 0 2 q1 0 1 1 q3 5 8 18 q4 11 12.5 33 q8.5 22 18.5 51.5 q10 29.5 20.5 65 q10.5 35.5 18.5 71.5 q3 12 10 21.5 q7 9.5 17 16.5 q4 3 9 5 q1 1 1 2 q9 7 20.5 12 q11.5 5 23.5 5 q75 2 153.5 6.5 q78.5 4.5 154 11 q75.5 6.5 145 15.5 q69.5 9 125.5 21 q13 2 27 -4.5 q14 -6.5 18 -17.5 l2 -3 q4 -11 2.5 -22 q-1.5 -11 -7.5 -21 q-6 -10 -16 -16.5 q-10 -6.5 -23 -8.5 q-64 -12 -137 -21 q-73 -9 -150 -15 q-77 -6 -155 -9 q-65 -4 -126 -5 q-18 -68 -44 -138 q-19 -53 -38 -98 l252 0 l25 138 q1 9 6.5 18 q5.5 9 14 16 q8.5 7 17.5 11 q9 4 18 4 l4 0 q10 0 17.5 -4 q7.5 -4 13.5 -11 q6 -7 8 -16 q2 -9 1 -18 l-24 -138 l305 0 q9 0 17 -4 q8 -4 14 -11 q6 -7 9 -16 q3 -9 1 -18 l-1 -1 q-1 -9 -7 -18 q-6 -9 -14 -15.5 q-8 -6.5 -17.5 -11 q-9.5 -4.5 -19.5 -4.5 l-305 0 l-55 -316 q-8 -43 -23 -65.5 q-15 -22.5 -44 -34.5 q-24 -10 -58.5 -13 q-34.5 -3 -84.5 -5 q-15 0 -27.5 11.5 q-12.5 11.5 -14.5 24.5 q0 4 0 7 q0 20 15.5 37.5 q15.5 17.5 43.5 17.5 q16 -1 27 -1 q6 0 15 0.5 q9 0.5 22 0.5 q14 1 20 5 q6 4 8 16 l56 315 l-242 0 q-9 0 -16 -1 q-16 0 -31 2.5 q-15 2.5 -26 9.5 q-3 1 -6 3 q-4 0 -7 1 q-10 1 -17 7 q-7 6 -9 16 ZM92 21.5 q-2 9.5 -1 20.5 q1 11 7 22 q6 11 15 20 q41 34 81 76 q40 42 74 85 q12 13 27.5 19 q15.5 6 25.5 6 q6 0 11 -2 l1 -1 q9 -3 15 -11 q6 -8 8 -17.5 q2 -9.5 -1 -20 q-3 -10.5 -11 -20.5 q-40 -49 -85.5 -97 q-45.5 -48 -88.5 -88 q-8 -6 -17.5 -10.5 q-9.5 -4.5 -19 -5.5 q-9.5 -1 -17.5 1 q-8 2 -14 7 q-8 7 -10 16.5 Z" /><glyph glyph-name="uni4E58" unicode="&#x4e58;" d="M705 248 q0 20 6 50 l31 180 q2 10 7.5 18.5 q5.5 8.5 13.5 15.5 q8 7 16.5 11.5 q8.5 4.5 16.5 4.5 q8 0 15.5 -4.5 q7.5 -4.5 12.5 -11.5 q5 -7 7 -15.5 q2 -8.5 1 -18.5 l-7 -41 q23 9 47 18 q26 10 48 21 q10 4 21 4 q6 0 18 -2 q12 -2 19 -13 q5 -8 4 -17.5 q-1 -9.5 -6 -19 q-5 -9.5 -14.5 -17 q-9.5 -7.5 -21.5 -11.5 q-26 -10 -55.5 -19.5 q-29.5 -9.5 -58.5 -18.5 q-8 -2 -15 -2 l-11 -62 q-3 -18 1.5 -23 q4.5 -5 23.5 -5 l81 0 q7 0 11 4 q4 4 7 21 q7 2 14.5 6.5 q7.5 4.5 16 8.5 q8.5 4 17.5 5.5 q9 1.5 19 -1.5 q5 -3 9 -8.5 q4 -5.5 5.5 -13 q1.5 -7.5 0.5 -16 q-1 -8.5 -5 -17.5 q-8 -20 -16.5 -34 q-8.5 -14 -18.5 -22 q-10 -8 -25.5 -11.5 q-15.5 -3.5 -39.5 -3.5 l-104 0 q-32 0 -52 5.5 q-20 5.5 -30 18 q-10 12.5 -10 36.5 ZM135 242 q0 9 4 17 q4 8 11.5 15.5 q7.5 7.5 18 12 q10.5 4.5 21.5 5.5 q34 4 74 11 q39 6 80 12 l13 71 l-127 0 q-19 0 -32 12.5 q-13 12.5 -11 26.5 q1 7 6.5 14 q5.5 7 13.5 12.5 q8 5.5 18 9 q10 3.5 19 3.5 l126 0 l2 11 q3 9 8 18.5 q5 9.5 13 16.5 q8 7 17 11 q9 4 17 4 q9 0 16.5 -4 q7.5 -4 12.5 -11 q5 -7 7.5 -16.5 q2.5 -9.5 0.5 -18.5 l-40 -228 q-2 -9 -7.5 -18 q-5.5 -9 -13.5 -16.5 q-8 -7.5 -16.5 -11.5 q-8.5 -4 -16.5 -4 q-9 0 -16.5 4 q-7.5 4 -13 11.5 q-5.5 7.5 -7.5 16.5 q-1 4 -1 10 q-35 -7 -68 -13 q-42 -7 -80 -14 q-4 -1 -8 -1 q-13 0 -26.5 8.5 q-13.5 8.5 -14.5 22.5 ZM83 -3 q0 11 10 28 q10 17 38 27 q55 20 108 47 q53 27 102.5 60.5 q49.5 33.5 93 71.5 q43.5 38 78.5 79 q5 6 12 11 l40 230 l-334 0 q-10 0 -18.5 4 q-8.5 4 -14 10 q-5.5 6 -8.5 14 q-3 8 -2 16 q2 9 7.5 17 q5.5 8 14 14 q8.5 6 18 10 q9.5 4 18.5 4 l335 0 l11 60 q1 7 4 13 l-104 -6 q-80 -4 -155 -6 q-1 0 -3 0 q-15 0 -29 10.5 q-14 10.5 -14 27.5 q0 16 17 30.5 q17 14.5 43 15.5 q76 3 156.5 8 q80.5 5 158 11.5 q77.5 6.5 149 14.5 q71.5 8 129.5 18 q14 2 28 -5.5 q14 -7.5 17 -18.5 q4 -11 1 -21.5 q-3 -10.5 -9.5 -20 q-6.5 -9.5 -16.5 -15.5 q-10 -6 -22 -7 q-64 -10 -139 -18 q-54 -6 -110 -11 q0 -1 1 -2 q2 -9 1 -18 l-11 -60 l335 0 q10 0 18 -4 q8 -4 14 -10 q6 -6 9 -14 q3 -8 1 -17 q-1 -8 -6.5 -16 q-5.5 -8 -14 -14 q-8.5 -6 -18 -10 q-9.5 -4 -19.5 -4 l-335 0 l-41 -232 q6 -5 10 -11 q20 -41 49.5 -79 q29.5 -38 66.5 -71.5 q37 -33.5 80.5 -61 q43.5 -27.5 90.5 -47.5 q25 -10 28 -23.5 q3 -13.5 3 -17.5 q0 -17 -15 -34 q-10 -11 -23.5 -15 q-13.5 -4 -21.5 -4 q-8 0 -15 3 q-52 22 -99.5 54.5 q-47.5 32.5 -87.5 72 q-40 39.5 -73 86.5 q-8 11 -15 22 l-40 -227 q-2 -10 -7.5 -18.5 q-5.5 -8.5 -13.5 -16 q-8 -7.5 -17.5 -11.5 q-9.5 -4 -18.5 -4 l-6 0 q-9 0 -17 4 q-8 4 -13.5 11.5 q-5.5 7.5 -8 16 q-2.5 8.5 -1.5 18.5 l40 225 q-10 -10 -21 -20 q-49 -46 -104 -85 q-55 -39 -114.5 -71 q-59.5 -32 -119.5 -54 q-8 -3 -16 -3 q-8 0 -20 4 q-12 4 -18 14 q-6 11 -6 21 Z" /><glyph glyph-name="uni4E5D" unicode="&#x4e5d;" d="M77 -27 q0 9 6.5 25.5 q6.5 16.5 30.5 31.5 q103 59 167.5 139 q64.5 80 104.5 177 q30 71 50 149 l-203 0 q-9 0 -17 4.5 q-8 4.5 -14 11 q-6 6.5 -8.5 15 q-2.5 8.5 -1.5 17.5 l1 3 q1 9 7 17.5 q6 8.5 14.5 15.5 q8.5 7 18 11 q9.5 4 18.5 4 l208 0 q20 92 37 189 q1 9 7 18 q6 9 14 16 q8 7 17.5 11.5 q9.5 4.5 18.5 4.5 l9 0 q10 0 17.5 -4.5 q7.5 -4.5 13 -11.5 q5.5 -7 8 -16 q2.5 -9 0.5 -18 q-16 -88 -34 -173 q-2 -8 -3 -16 l252 0 q9 0 17 -4 q8 -4 14 -11 l2 -4 q4 -5 5 -11 q3 -9 1 -18 l0 -2 l-83 -474 q-4 -17 -4 -27 q0 -7 3 -12.5 q3 -5.5 25 -5.5 l84 0 q8 0 13.5 3 q5.5 3 10.5 10.5 q5 7.5 9.5 21.5 q4.5 14 9.5 35 q9 30 25.5 40.5 q16.5 10.5 28.5 10.5 q9 0 18 -4 q11 -5 16.5 -17.5 q5.5 -12.5 5.5 -21.5 q0 -6 -2 -13 q-12 -45 -24.5 -75.5 q-12.5 -30.5 -28 -49.5 q-15.5 -19 -37 -27 q-21.5 -8 -52.5 -8 l-111 0 q-33 0 -54 6 q-21 6 -32 22.5 q-11 16.5 -11.5 31.5 q-0.5 15 -0.5 19 q0 25 6 62 l75 424 l-205 0 q-7 -24 -14 -49 q-24 -79 -56 -151.5 q-32 -72.5 -76.5 -137 q-44.5 -64.5 -104.5 -119.5 q-60 -55 -139 -98 q-9 -6 -18.5 -7 q-9.5 -1 -18 0.5 q-8.5 1.5 -16 5.5 q-7.5 4 -12.5 10 q-8 11 -8 24 Z" /><glyph glyph-name="uni4E5F" unicode="&#x4e5f;" d="M136 382 q-5 7 -6 15 q-1 8 2 17.5 q3 9.5 9.5 17.5 q6.5 8 14.5 14.5 q8 6.5 18 9.5 l138 41 l40 228 q2 10 7.5 19 q5.5 9 13.5 16 q8 7 17.5 11.5 q9.5 4.5 18.5 4.5 q9 0 17 -4.5 q8 -4.5 13.5 -11.5 q5.5 -7 8 -15.5 q2.5 -8.5 0.5 -18.5 l-35 -200 l192 57 l37 210 q2 9 7.5 18 q5.5 9 13.5 16.5 q8 7.5 17.5 11.5 q9.5 4 18.5 4 q9 0 17 -4 q8 -4 14 -11.5 q6 -7.5 8 -16.5 q2 -9 0 -18 l-31 -180 l198 58 q7 2 15 2 l16 11 l0 1 q8 5 21.5 6 q13.5 1 20.5 -2 l10 -5 q12 -6 21 -15 q9 -9 7 -15 q0 -2 -1.5 -5 q-1.5 -3 -1.5 -6 q-27 -139 -49 -227.5 q-22 -88.5 -46 -132.5 q-21 -40 -44.5 -58 q-23.5 -18 -51.5 -24 q-16 -3 -37.5 -4.5 q-21.5 -1.5 -41.5 -2.5 q-16 0 -29.5 10 q-13.5 10 -13.5 22 q0 3 0 6 q0 19 13 34 q13 15 35 15 l35 0 q16 0 29.5 8 q13.5 8 27.5 36 q18 36 37 119 q13 57 28 138 l-215 -65 l-59 -332 q-1 -9 -7 -18 q-6 -9 -14 -16.5 q-8 -7.5 -17.5 -11.5 q-9.5 -4 -18.5 -4 q-9 0 -17 4 q-8 4 -13.5 11.5 q-5.5 7.5 -8 16.5 q-2.5 9 -1.5 18 l54 302 l-192 -57 l-56 -319 q-4 -21 -4 -36 q0 -4 1 -14.5 q1 -10.5 11 -20 q10 -9.5 32.5 -13 q22.5 -3.5 59.5 -3.5 l329 0 q26 0 45 4.5 q19 4.5 33 15.5 q14 11 25 29.5 q11 18.5 22 47.5 q14 25 31 36 q17 11 30 11 q8 0 15 -3 q13 -6 18 -18.5 q5 -12.5 5 -21.5 q0 -8 -3 -15 q-17 -49 -33 -82.5 q-16 -33.5 -41 -54 q-25 -20.5 -62 -29.5 q-37 -9 -96 -9 l-333 0 q-61 0 -100.5 8 q-39.5 8 -60.5 28 q-21 20 -23.5 42.5 q-2.5 22.5 -2.5 34.5 q0 28 6 65 l51 287 l-109 -32 q-10 -3 -19.5 -2 q-9.5 1 -17.5 5 q-8 4 -13 11 Z" /><glyph glyph-name="uni4E60" unicode="&#x4e60;" d="M371 536 q-3 9 -2 19 q1 10 5 20 q4 10 12 16 q13 10 24 11 q11 1 13 1 q16 0 26 -9 q21 -16 43 -34 q22 -18 43.5 -35.5 q21.5 -17.5 40.5 -35.5 q19 -18 36 -34 q6 -6 8.5 -15 q2.5 -9 1.5 -18 q-1 -9 -5.5 -18.5 q-4.5 -9.5 -11.5 -15.5 l-2 -2 q-7 -7 -17 -10.5 q-10 -3.5 -20.5 -4 q-10.5 -0.5 -20 3 q-9.5 3.5 -15.5 9.5 q-14 16 -31.5 33 q-17.5 17 -37.5 34 q-20 17 -40 35 q-20 18 -40 34 q-7 7 -10 16 ZM261 732 q2 9 7.5 17.5 q5.5 8.5 14 15 q8.5 6.5 18 10.5 q9.5 4 18.5 4 l687 0 q9 0 17 -4 q8 -4 14 -10.5 q6 -6.5 9 -14.5 q1 -6 1 -12 l0 -6 l-2 -9 q-36 -193 -63 -324.5 q-27 -131.5 -47 -216.5 q-20 -85 -37.5 -130.5 q-17.5 -45.5 -36.5 -66.5 q-25 -29 -49 -41 q-24 -12 -55 -15 q-25 -3 -47.5 -3.5 q-22.5 -0.5 -33.5 -0.5 q-23 0 -46 1 q-18 1 -32.5 13.5 q-14.5 12.5 -14.5 28.5 q0 20 16.5 34.5 q16.5 14.5 44.5 14.5 q2 0 3 0 l25 0 q10 0 20 -0.5 q10 -0.5 20 -0.5 l20 0 q15 0 25.5 3.5 q10.5 3.5 19.5 13.5 q15 14 31.5 60.5 q16.5 46.5 37 133.5 q20.5 87 46.5 218 q21 104 47 240 l-637 0 q-9 0 -17 4 q-8 4 -14 11 q-6 7 -8.5 15 q-2.5 8 -1.5 17 ZM151 98 q-2 8 1 18.5 q3 10.5 9.5 19 q6.5 8.5 15 15.5 q8.5 7 18.5 10 q51 15 112.5 34 q61.5 19 129 40.5 q67.5 21.5 138 43.5 q70.5 22 141.5 46 q11 3 21 2 q10 -1 18.5 -5.5 q8.5 -4.5 13.5 -12.5 q5 -8 5 -17 q0 -15 -12.5 -31.5 q-12.5 -16.5 -28.5 -22.5 q-68 -22 -137.5 -45.5 q-69.5 -23.5 -137 -46 q-67.5 -22.5 -130.5 -43 q-63 -20.5 -119 -38.5 q-9 -3 -19 -2 q-10 1 -18 5 q-8 4 -14 11 q-6 7 -6 15 l-1 4 Z" /><glyph glyph-name="uni4E66" unicode="&#x4e66;" d="M885 739.5 q-4 9.5 -4 19 q0 9.5 3.5 19 q3.5 9.5 11.5 16.5 q10 10 28 12.5 q18 2.5 30 -5.5 q28 -20 57.5 -43 q29.5 -23 52.5 -43 q7 -5 10 -13.5 q3 -8.5 2.5 -18 q-0.5 -9.5 -4 -18.5 q-3.5 -9 -10.5 -16 q-6 -7 -15.5 -11 q-9.5 -4 -20 -4.5 q-10.5 -0.5 -20 2 q-9.5 2.5 -16.5 8.5 q-19 19 -43.5 40.5 q-24.5 21.5 -49.5 40.5 q-8 5 -12 14.5 ZM593 403 l208 0 l29 170 q0 2 -1.5 4 q-1.5 2 -3.5 2 l-201 0 l-31 -176 ZM143 340.5 q-3 8.5 -1 17.5 q2 9 7 17 q5 8 13 14.5 q8 6.5 18 10 q10 3.5 19 3.5 l294 0 l31 176 l-234 0 q-9 0 -17.5 4 q-8.5 4 -14.5 11 q-6 7 -8.5 15.5 q-2.5 8.5 -1.5 16.5 q2 9 7.5 17.5 q5.5 8.5 14 15 q8.5 6.5 18.5 10.5 q10 4 18 4 l235 0 l21 119 q1 9 6.5 18 q5.5 9 14 16 q8.5 7 18 11.5 q9.5 4.5 18.5 4.5 l2 0 q10 0 18 -4.5 q8 -4.5 13.5 -11.5 q5.5 -7 8 -16 q2.5 -9 1.5 -18 l-21 -119 l255 0 q9 0 17.5 -4 q8.5 -4 14 -11 q5.5 -7 8.5 -16 q3 -9 1 -18 l-39 -221 l96 0 q9 0 17.5 -3.5 q8.5 -3.5 14.5 -10 q6 -6.5 9 -14.5 q3 -8 0 -17 q-1 -9 -7 -18 l-1 -1 q-16 -62 -29 -108 q-15 -54 -29.5 -91.5 q-14.5 -37.5 -27.5 -60 q-13 -22.5 -27 -34.5 q-21 -20 -43.5 -27 q-22.5 -7 -51.5 -9 q-15 -2 -37 -2 q-5 0 -22.5 0.5 q-17.5 0.5 -51.5 0.5 q-17 1 -30.5 11.5 q-13.5 10.5 -14.5 23.5 q0 3 0 7 q0 20 16.5 34 q16.5 14 44.5 14 q2 0 4 0 q11 0 20 -0.5 q9 -0.5 17 0.5 l32 0 q16 0 25.5 1 q9.5 1 20.5 8 q9 8 19.5 27.5 q10.5 19.5 22 53 q11.5 33.5 25.5 83.5 q5 19 11 40 l-344 0 l-61 -343 q-1 -10 -7 -18.5 q-6 -8.5 -14 -16 q-8 -7.5 -17.5 -11.5 q-9.5 -4 -19.5 -4 l-2 0 q-9 0 -17 4 q-8 4 -14 11.5 q-6 7.5 -8 16 q-2 8.5 -1 18.5 l61 343 l-294 0 q-10 0 -18 4 q-8 4 -13.5 10.5 q-5.5 6.5 -8.5 15 Z" /><glyph glyph-name="uni4E70" unicode="&#x4e70;" d="M601.5 94 q-6.5 8 -8 17.5 q-1.5 9.5 0 19 q1.5 9.5 10.5 18.5 q9 9 25.5 13.5 q16.5 4.5 28.5 -0.5 q70 -32 137 -69.5 q67 -37.5 117 -72.5 q9 -5 13.5 -13.5 q4.5 -8.5 4.5 -18.5 q0 -10 -4 -20.5 q-4 -10.5 -12 -18.5 q-11 -12 -24 -13.5 q-13 -1.5 -18 -1.5 q-15 0 -24 6 q-45 34 -105 70.5 q-60 36.5 -125 70.5 q-10 5 -16.5 13 ZM368.5 570.5 q-5.5 8.5 -7 18 q-1.5 9.5 1.5 19.5 q3 10 11 17 q8 10 25.5 13 q17.5 3 28.5 -2 q29 -14 59 -31.5 q30 -17.5 53 -33.5 q8 -5 11.5 -13 q3.5 -8 4.5 -17 q1 -9 -2.5 -18 q-3.5 -9 -9.5 -17 q-6 -6 -15.5 -10 q-9.5 -4 -19.5 -4.5 q-10 -0.5 -19 1 q-9 1.5 -17 6.5 q-18 15 -41.5 30 q-23.5 15 -47.5 28 q-10 5 -15.5 13.5 ZM256 739 q2 9 7.5 17 q5.5 8 14 14.5 q8.5 6.5 18 10.5 q9.5 4 18.5 4 l660 0 q10 0 18 -4 q2 -1 3 -2 q2 2 3 4 q5 3 10 3 q2 0 5 0.5 q3 0.5 5 1.5 q4 1 11 1 q7 0 11 -2 l14 -5 q8 -3 13.5 -11 q5.5 -8 7.5 -17 q2 -9 0 -19.5 q-2 -10.5 -7 -18.5 q-29 -43 -58 -84.5 q-29 -41.5 -57 -75.5 q-11 -13 -24 -16.5 q-13 -3.5 -19 -3.5 q-9 0 -17 4 q-8 3 -12 11.5 q-4 8.5 -4.5 18.5 q-0.5 10 3 21 q3.5 11 10.5 19 q26 35 53 76 q2 3 5 7 l-650 0 q-9 0 -17 4 q-8 4 -14 10.5 q-6 6.5 -9 14.5 q-3 8 -2 17 ZM231.5 428 q-5.5 9 -7 18.5 q-1.5 9.5 1.5 19 q3 9.5 11 16.5 q9 10 25.5 13 q16.5 3 27.5 -2 q28 -12 56.5 -28 q28.5 -16 48.5 -31 q8 -4 12 -12 q4 -8 4.5 -17 q0.5 -9 -2 -18 q-2.5 -9 -8.5 -16 q-7 -7 -16 -10.5 q-9 -3.5 -19 -5 q-10 -1.5 -19.5 0.5 q-9.5 2 -16.5 7 q-17 13 -39 26 q-22 13 -45 25 q-9 5 -14.5 14 ZM88 -39 q0 12 12 28 q12 16 41 23 q92 21 160 50.5 q68 29.5 117 67.5 q49 38 82 86 q2 4 5 8 l-332 0 q-9 0 -17.5 3.5 q-8.5 3.5 -14 10 q-5.5 6.5 -8.5 14.5 q-3 8 -2 17 q3 8 8 16.5 q5 8.5 13 15 q8 6.5 18 10 q10 3.5 19 3.5 l365 0 q1 4 3 7 q24 58 41 126.5 q17 68.5 33 148.5 q1 9 7 17.5 q6 8.5 14.5 15.5 q8.5 7 17.5 11 q9 4 18 4 l1 0 q9 0 17.5 -4.5 q8.5 -4.5 13.5 -12 q5 -7.5 7.5 -16.5 q2.5 -9 0.5 -18 q-28 -135 -62 -243 q-6 -18 -13 -36 l315 0 q9 0 17 -3.5 q8 -3.5 14 -10 q6 -6.5 9 -15 q3 -8.5 0 -16.5 q-1 -9 -6.5 -17 q-5.5 -8 -13.5 -14.5 q-8 -6.5 -17.5 -10 q-9.5 -3.5 -18.5 -3.5 l-341 0 q-19 -34 -42 -64 q-62 -82 -162.5 -141 q-100.5 -59 -261.5 -95 q-6 -1 -12 -1 q-11 0 -24.5 6 q-13.5 6 -17.5 17 q-3 8 -3 15 Z" /><glyph glyph-name="uni4E71" unicode="&#x4e71;" d="M628 12 q0 27 7 67 l124 702 q1 9 7 18 q6 9 14 16 q8 7 17.5 11 q9.5 4 18.5 4 q9 0 16.5 -4 q7.5 -4 14 -11 q6.5 -7 8.5 -16 q2 -9 1 -18 l-124 -703 q-4 -23 -4 -36 q0 -9 3.5 -16.5 q3.5 -7.5 27.5 -7.5 l99 0 q10 0 18 5 q8 5 14.5 17 q6.5 12 12.5 33 q6 21 13 52 q9 30 24.5 40.5 q15.5 10.5 27.5 10.5 q9 0 18 -4 q10 -5 16.5 -20.5 q6.5 -15.5 3.5 -30.5 q-14 -53 -27.5 -90.5 q-13.5 -37.5 -30.5 -60.5 q-17 -23 -40 -33 q-23 -10 -58 -10 l-121 0 q-35 0 -57 7 q-22 7 -32.5 24.5 q-10.5 17.5 -11 34 q-0.5 16.5 -0.5 19.5 ZM205 61 l258 0 l31 176 q1 2 -1 3.5 q-2 1.5 -4 1.5 l-247 0 q-2 0 -3.5 -1.5 q-1.5 -1.5 -2.5 -4.5 l-31 -175 ZM100 -15 l53 295 q1 9 6.5 17.5 q5.5 8.5 14.5 16 q9 7.5 18.5 11.5 q9.5 4 19.5 4 l122 0 l26 150 l-172 0 q-9 0 -17.5 3.5 q-8.5 3.5 -14 10 q-5.5 6.5 -8.5 14.5 q-3 8 -1 16 q1 8 6.5 16 q5.5 8 13.5 14 q8 6 17.5 9.5 q9.5 3.5 18.5 3.5 l173 0 l23 135 q-21 -3 -43 -6 q-48 -5 -94 -10 q-3 0 -6 0 q-13 0 -27.5 8 q-14.5 8 -14.5 22 q0 16 15.5 32 q15.5 16 42.5 19 q45 6 91.5 13 q46.5 7 91 15 q44.5 8 85 17.5 q40.5 9.5 73.5 19.5 q11 3 24.5 -1 q13.5 -4 19.5 -11 l3 -4 q8 -9 9 -20 q1 -11 -3.5 -21.5 q-4.5 -10.5 -14 -18 q-9.5 -7.5 -23.5 -10.5 q-40 -11 -85 -20 l-46 -8 q0 -5 -1 -10 l-25 -141 l162 0 q9 0 17.5 -3.5 q8.5 -3.5 14 -9.5 q5.5 -6 8.5 -14 q3 -8 1.5 -16 q-1.5 -8 -6.5 -16 q-5 -8 -13.5 -14.5 q-8.5 -6.5 -18 -10 q-9.5 -3.5 -18.5 -3.5 l-162 0 l-26 -150 l126 0 q10 0 18 -4 q8 -4 14 -11.5 q6 -7.5 8.5 -16 q2.5 -8.5 0.5 -17.5 l-50 -286 q-2 -10 -7.5 -18.5 q-5.5 -8.5 -13.5 -15.5 q-8 -7 -17 -11.5 q-9 -4.5 -19 -4.5 q-8 0 -16 4.5 q-8 4.5 -14 11.5 q-5 6 -8 14 l-264 0 q-1 -3 -3 -6 q-6 -9 -13.5 -16.5 q-7.5 -7.5 -16.5 -11.5 q-9 -4 -17 -4 q-9 0 -16 4 q-7 4 -12.5 11.5 q-5.5 7.5 -8 16 q-2.5 8.5 -1.5 17.5 Z" /><glyph glyph-name="uni4E86" unicode="&#x4e86;" d="M243 723 q1 9 6.5 17.5 q5.5 8.5 14 15.5 q8.5 7 18 11 q9.5 4 18.5 4 l612 0 q9 0 17 -4 q4 -2 7 -4 l2 2 q8 6 17 6 q2 0 4.5 0.5 q2.5 0.5 5.5 1.5 l1 0 q6 1 15.5 -1 q9.5 -2 14.5 -7 l16 -13 q7 -6 9.5 -15 q2.5 -9 2 -19.5 q-0.5 -10.5 -5 -20.5 q-4.5 -10 -14.5 -17 q-37 -32 -80 -64 q-43 -32 -88 -62.5 q-45 -30.5 -91 -57.5 q-46 -27 -91 -50 l0 -1 l-73 -412 q-8 -45 -24.5 -68 q-16.5 -23 -52.5 -34 q-29 -10 -71.5 -13 q-42.5 -3 -103.5 -3 q-16 0 -29 10.5 q-13 10.5 -16 24.5 q-1 5 -1 9 q0 19 15 35.5 q15 16.5 42 16.5 q1 0 3 0 q25 -1 44 -1 q10 0 26 0.5 q16 0.5 33 0.5 q17 1 24 5.5 q7 4.5 9 18.5 l72 409 q2 10 7.5 18.5 q5.5 8.5 14 16 q8.5 7.5 17.5 11.5 l1 0 l0 2 q4 10 12.5 20 q8.5 10 20.5 16 q42 23 85 50.5 q43 27.5 82 55.5 q29 20 55 41 l-562 0 q-9 0 -17.5 3.5 q-8.5 3.5 -14.5 11 q-6 7.5 -8.5 16 q-2.5 8.5 -0.5 17.5 Z" /><glyph glyph-name="uni4E88" unicode="&#x4e88;" d="M144 420 q2 9 7.5 17.5 q5.5 8.5 14 15 q8.5 6.5 18 10.5 q9.5 4 18.5 4 l440 0 q-25 13 -53 27 q-32 16 -65 32 q-33 16 -65 30 q-10 4 -16 12 q-6 8 -8 17.5 q-2 9.5 1 20 q3 10.5 10 18.5 q9 10 25.5 15 q16.5 5 29.5 1 q31 -14 65.5 -29 q34.5 -15 68.5 -31 q3 5 7 10 q9 9 20 16 q30 18 61 37.5 q31 19.5 60 40.5 q10 8 21 16 l-465 0 q-9 0 -17.5 3.5 q-8.5 3.5 -14.5 10 q-6 6.5 -8.5 14.5 q-2.5 8 -1.5 17 q1 9 6.5 17 q5.5 8 14.5 14 q9 6 18.5 10 q9.5 4 18.5 4 l523 0 q9 0 18 -4 q1 0 1 -1 q8 5 15 5 l5 0 q3 0 4 1 q8 1 17 -0.5 q9 -1.5 14 -6.5 l10 -9 q7 -7 10 -16.5 q3 -9.5 1.5 -20 q-1.5 -10.5 -6.5 -20 q-5 -9.5 -14 -16.5 q-30 -23 -62 -46.5 q-32 -23.5 -66 -46 q-34 -22.5 -67 -42.5 q-21 -13 -42 -25 q23 -11 43 -21 q9 -3 15 -11 q6 -8 7.5 -18 q1.5 -10 -0.5 -20 q-1 -3 -2 -5 l151 0 q9 0 17 -4 q1 0 2 -1 q1 1 2 1 q5 4 10 4 q2 0 4.5 0.5 q2.5 0.5 4.5 1.5 q6 2 13.5 2 q7.5 0 12.5 -3 l19 -9 q8 -3 13.5 -10.5 q5.5 -7.5 7 -17 q1.5 -9.5 0 -19 q-1.5 -9.5 -7.5 -17.5 q-38 -48 -77.5 -94 q-39.5 -46 -77.5 -83 q-5 -6 -13.5 -10 q-8.5 -4 -17 -6 q-8.5 -2 -17 -1 q-8.5 1 -15.5 5 l-2 1 q-7 5 -11 13.5 q-4 8.5 -4 18.5 q0 10 3 20.5 q3 10.5 10 19.5 q34 36 70 80 q6 7 12 15 l-255 0 q3 -5 4 -12 q3 -9 1 -18 l-56 -317 q-7 -40 -22.5 -62 q-15.5 -22 -49.5 -32 q-26 -9 -63 -11.5 q-37 -2.5 -89 -3.5 q-15 -1 -28 9.5 q-13 10.5 -16 23.5 q-1 5 -1 9 q0 19 15 34.5 q15 15.5 41 15.5 q1 0 3 0 q20 -1 35 -1 q7 0 19 0.5 q12 0.5 27 0.5 q15 1 20.5 5 q5.5 4 7.5 15 l56 315 q1 9 7 18 q4 6 8 11 l-366 0 q-9 0 -17.5 4 q-8.5 4 -14.5 10.5 q-6 6.5 -8.5 15 q-2.5 8.5 -1.5 16.5 Z" /><glyph glyph-name="uni4E89" unicode="&#x4e89;" d="M636 410 l193 0 l15 84 q0 2 -1.5 4 q-1.5 2 -3.5 2 l-189 0 q1 -6 0 -13 l-14 -77 ZM603 225 l193 0 l17 96 l-193 0 l-17 -96 ZM366 586 l290 0 q2 5 5 10 q7 11 16 20 q32 28 62 61 l0 1 l-211 0 q-15 0 -24 5 q-9 5 -12 14 q-27 -26 -55 -52 q-34 -30 -71 -59 ZM122 366 q2 8 7.5 16 q5.5 8 14 14 q8.5 6 18 10 q9.5 4 18.5 4 l356 0 l14 78 q1 6 4 12 l-211 0 q-10 0 -18.5 4 q-8.5 4 -15 10 q-6.5 6 -8.5 13 q-2 6 -2 12 q-8 -6 -16 -11 q-15 -10 -31 -10 q-2 0 -13 1 q-11 1 -19 12 q-9 10 -9 23 q0 8 6 23.5 q6 15.5 31 32.5 q75 47 133.5 101 q58.5 54 100.5 105 q9 11 26.5 18.5 q17.5 7.5 29.5 4.5 l6 -1 q12 -2 19.5 -9.5 q7.5 -7.5 10 -17 q2.5 -9.5 0 -20.5 q-2.5 -11 -12.5 -22 l-7 -7 l210 0 q9 0 17 -3 q8 -4 14 -10 q2 5 7 8 q7 5 13 5 q2 0 4.5 0.5 q2.5 0.5 4.5 0.5 q5 1 13.5 -1 q8.5 -2 12.5 -6 l12 -9 q7 -5 10 -14 q3 -9 3 -18.5 q0 -9.5 -4 -19 q-4 -9.5 -11 -17.5 q-31 -34 -68 -68 q-14 -12 -27 -24 l142 0 q9 0 17 -4 q8 -4 14 -11 q6 -7 8 -16 q2 -9 1 -19 l-22 -126 l83 0 q9 0 17.5 -4 q8.5 -4 14.5 -10 q6 -6 8.5 -14 q2.5 -8 1.5 -16 q-2 -8 -7.5 -16.5 q-5.5 -8.5 -13.5 -15 q-8 -6.5 -17.5 -10 q-9.5 -3.5 -19.5 -3.5 l-83 0 l-24 -134 q-1 -10 -7 -19 q-6 -9 -14 -16.5 q-8 -7.5 -17 -11.5 q-9 -4 -18 -4 q-9 0 -16 4 l-1 -1 q-9 -3 -19 -3 l-205 0 l-19 -109 q-8 -41 -22.5 -62.5 q-14.5 -21.5 -47.5 -32.5 q-25 -9 -61 -12 q-36 -3 -88 -4 q-15 0 -27.5 10.5 q-12.5 10.5 -14.5 21.5 q-2 6 -2 12 q0 17 15 32 q15 15 42 15 q1 0 3 0 l44 0 q16 0 30 1 q15 1 21 5 q6 4 8 16 l19 107 l-250 0 q-9 0 -17.5 3.5 q-8.5 3.5 -14.5 10 q-6 6.5 -9 14.5 q-3 8 -1 17 q1 8 6.5 16 q5.5 8 14 14 q8.5 6 18.5 10 q10 4 19 4 l249 0 l17 96 l-356 0 q-9 0 -17 3.5 q-8 3.5 -14 10 q-6 6.5 -9 15 q-3 8.5 -2 16.5 Z" /><glyph glyph-name="uni4E8B" unicode="&#x4e8b;" d="M658 520 l187 0 q2 0 4.5 2 q2.5 2 2.5 4 l9 48 q0 2 -1.5 4 q-1.5 2 -4.5 2 l-187 0 l-10 -60 ZM614 274 l210 0 l9 50 q1 2 -0.5 4 q-1.5 2 -4.5 2 l-204 0 l-10 -56 ZM590 137 l210 0 l11 61 l-210 0 l-11 -61 ZM374 526 q0 -2 1.5 -4 q1.5 -2 3.5 -2 l179 0 l11 60 l-179 0 q-2 0 -4.5 -2 q-2.5 -2 -2.5 -4 l-9 -48 ZM105 236 q2 14 19.5 26 q17.5 12 35.5 12 l355 0 l10 56 l-256 0 q-19 0 -32.5 10.5 q-13.5 10.5 -11.5 23.5 q3 13 20 23.5 q17 10.5 36 10.5 l256 0 l10 58 l-229 0 q-9 0 -17.5 4 q-8.5 4 -14.5 11 q-6 7 -8.5 16.5 q-2.5 9.5 -0.5 18.5 l16 88 q1 9 6.5 18 q5.5 9 14 16.5 q8.5 7.5 18.5 11.5 q10 4 19 4 l229 0 l9 50 l-332 0 q-19 0 -31.5 11 q-12.5 11 -12.5 25 q0 16 19 29 q19 13 39 13 l332 0 l4 23 q2 10 7.5 18.5 q5.5 8.5 14 16 q8.5 7.5 18 11.5 q9.5 4 18.5 4 l2 0 q9 0 17 -4 q8 -4 13.5 -11.5 q5.5 -7.5 8 -16 q2.5 -8.5 0.5 -18.5 l-4 -23 l342 0 q20 0 33 -12 q13 -12 11 -26 q-3 -16 -20.5 -28 q-17.5 -12 -36.5 -12 l-343 0 l-9 -50 l243 0 q9 0 17.5 -4 q8.5 -4 14.5 -11.5 q6 -7.5 8.5 -16.5 q2.5 -9 1.5 -18 l-16 -88 q-2 -9 -7.5 -18.5 q-5.5 -9.5 -14 -16.5 q-8.5 -7 -18.5 -11 q-10 -4 -19 -4 l-243 0 l-10 -58 l260 0 q9 0 17.5 -4 q8.5 -4 14 -11.5 q5.5 -7.5 8 -16.5 q2.5 -9 0.5 -18 l-13 -74 l56 0 q18 0 31.5 -12 q13.5 -12 10.5 -26 q-2 -14 -20 -26 q-18 -12 -35 -12 l-56 0 l-23 -127 q-1 -9 -6.5 -18 q-5.5 -9 -14 -16.5 q-8.5 -7.5 -17.5 -11.5 q-9 -4 -19 -4 l-2 0 q-9 0 -17 4 q-8 4 -13.5 11.5 q-5.5 7.5 -7.5 16.5 q-2 6 -2 12 l-211 0 l-9 -50 q-6 -41 -21 -59.5 q-15 -18.5 -43 -28.5 q-23 -9 -55.5 -11 q-32.5 -2 -80.5 -3 q-15 -1 -28 7.5 q-13 8.5 -15 18.5 q-1 4 -1 7 q0 16 16.5 30 q16.5 14 46.5 14 q19 -1 30 -0.5 q11 0.5 23 0.5 q14 1 20.5 6 q6.5 5 8.5 19 l9 50 l-264 0 q-19 0 -32.5 11 q-13.5 11 -11.5 25 q2 14 20 25 q18 11 38 11 l263 0 l10 61 l-354 0 q-18 0 -31.5 12 q-13.5 12 -10.5 26 Z" /><glyph glyph-name="uni4E8C" unicode="&#x4e8c;" d="M274 647 l1 9 q2 9 7.5 17.5 q5.5 8.5 14 15.5 q8.5 7 18 11 q9.5 4 18.5 4 l624 0 q9 0 17.5 -4 q8.5 -4 14 -11 q5.5 -7 8 -15.5 q2.5 -8.5 1.5 -17.5 l-2 -9 q-2 -10 -7.5 -18.5 q-5.5 -8.5 -13.5 -15.5 q-8 -7 -18 -11 q-10 -4 -19 -4 l-624 0 q-8 0 -16.5 4 q-8.5 4 -14.5 11 q-6 7 -8.5 15.5 q-2.5 8.5 -0.5 18.5 ZM85 55 l3 14 q1 10 6.5 18 q5.5 8 14.5 15.5 q9 7.5 18.5 11.5 q9.5 4 17.5 4 l792 0 q10 0 18 -4 q8 -4 14 -11.5 q6 -7.5 8.5 -15.5 q2.5 -8 0.5 -18 l-2 -14 q-2 -9 -7.5 -17.5 q-5.5 -8.5 -14 -15.5 q-8.5 -7 -18 -11 q-9.5 -4 -18.5 -4 l-792 0 q-9 0 -17 4 q-8 4 -14 11 q-6 7 -8.5 15.5 q-2.5 8.5 -1.5 17.5 Z" /><glyph glyph-name="uni4E8E" unicode="&#x4e8e;" d="M144 403 q1 9 7 17.5 q6 8.5 14 15.5 q8 7 17.5 11 q9.5 4 18.5 4 l357 0 l40 229 l-288 0 q-8 0 -16.5 4.5 q-8.5 4.5 -14 11.5 q-5.5 7 -8.5 15.5 q-3 8.5 -2 17.5 q2 9 7.5 17.5 q5.5 8.5 14 15.5 q8.5 7 18.5 11 q10 4 19 4 l659 0 q10 0 17.5 -4 q7.5 -4 13.5 -11 q6 -7 8.5 -15.5 q2.5 -8.5 0.5 -17.5 q-1 -9 -6.5 -17.5 q-5.5 -8.5 -14 -15.5 q-8.5 -7 -18 -11.5 q-9.5 -4.5 -18.5 -4.5 l-268 0 l-41 -229 l337 0 q10 0 18 -4 q8 -4 14 -11 q6 -7 8.5 -15.5 q2.5 -8.5 0.5 -17.5 q-1 -9 -6.5 -18 q-5.5 -9 -14 -16 q-8.5 -7 -18 -11 q-9.5 -4 -18.5 -4 l-338 0 l-54 -307 q-8 -48 -26 -72.5 q-18 -24.5 -52 -36.5 q-29 -10 -72 -13 q-43 -3 -105 -5 q-15 0 -28 11.5 q-13 11.5 -16 24.5 q-1 6 -1 11 q0 19 15 36.5 q15 17.5 44 17.5 q36 -1 60.5 -1 q24.5 0 42.5 1 q17 1 24.5 6.5 q7.5 5.5 10.5 20.5 l54 306 l-357 0 q-9 0 -17 4 q-8 4 -14 11 q-6 7 -8.5 16 q-2.5 9 -0.5 18 Z" /><glyph glyph-name="uni4E91" unicode="&#x4e91;" d="M310 721 l1 2 q1 10 7 18.5 q6 8.5 14 15.5 q8 7 18.5 11 q10.5 4 18.5 4 l584 0 q9 0 16.5 -4 q7.5 -4 14 -11 q6.5 -7 9 -15.5 q2.5 -8.5 0.5 -18.5 l0 -2 q-2 -10 -7.5 -18.5 q-5.5 -8.5 -14 -15.5 q-8.5 -7 -18 -11 q-9.5 -4 -18.5 -4 l-583 0 q-9 0 -17.5 4 q-8.5 4 -14.5 11 q-6 7 -8.5 15.5 q-2.5 8.5 -1.5 18.5 ZM141 12 q-2 9 1 19.5 q3 10.5 9.5 21.5 q6.5 11 15 21 q8.5 10 17.5 17 q4 3 5 4.5 q1 1.5 4 4 q3 2.5 9 9.5 q6 7 20 22 q14 13 40 42 q26 29 58 68 q32 39 67 85 l46 64 l-244 0 q-8 0 -16.5 4 q-8.5 4 -14 11 q-5.5 7 -8 16 q-2.5 9 -1.5 18 l1 4 q1 9 7 17.5 q6 8.5 14 15.5 q8 7 17.5 11 q9.5 4 18.5 4 l800 0 q9 0 17 -4 q8 -4 14 -11 q6 -7 8.5 -15.5 q2.5 -8.5 0.5 -17.5 l-1 -4 q-1 -9 -6.5 -18 q-5.5 -9 -14 -16 q-8.5 -7 -18 -11 q-9.5 -4 -17.5 -4 l-424 0 q-3 -8 -9 -16 q-76 -102 -159 -195 q-49 -55 -96 -102 l457 32 q-11 24 -24 48 q-17 35 -34 67 q-4 9 -4 19 q0 10 4.5 20.5 q4.5 10.5 12 19 q7.5 8.5 16.5 12.5 l7 4 q9 3 18 3 q7 0 19.5 -3 q12.5 -3 18.5 -15 q19 -34 38 -70 q19 -36 37 -71.5 q18 -35.5 34 -69.5 q16 -34 28 -64 q3 -8 2 -17.5 q-1 -9.5 -5 -19 q-4 -9.5 -10 -17.5 q-6 -8 -15 -12 l-10 -5 q-9 -6 -19.5 -6.5 q-10.5 -0.5 -20 3 q-9.5 3.5 -17 9.5 q-7.5 6 -11.5 15 q-11 29 -25 62 l0 1 q-1 -1 -2 -1 q-11 -6 -23 -6 q-136 -12 -231 -19.5 q-95 -7.5 -159.5 -13 q-64.5 -5.5 -104 -9.5 q-39.5 -4 -63.5 -8 q-13 -1 -24 1.5 q-11 2.5 -19 8.5 q-5 4 -9 10 q-8 3 -14 9 q-7 7 -9 18 Z" /><glyph glyph-name="uni4E92" unicode="&#x4e92;" d="M386 278 l318 0 q8 0 14 -3 q8 26 16 51 q20 63 37 119 l6 20 l-318 0 l-12 -32 q-23 -58 -44 -112 q-9 -23 -17 -43 ZM69 -6 q1 9 6.5 17.5 q5.5 8.5 14.5 15 q9 6.5 18 10.5 q9 4 18 4 l527 0 q-2 5 -3 10 q-1 10 3 21 q19 55 37 115 l-330 0 q-9 0 -18 3 l-6 4 q-13 -7 -25 -7 l-10 0 q-12 0 -21 5 q-9 5 -14 13.5 q-5 8.5 -5 19.5 q0 11 5 22 q20 47 41.5 101 q21.5 54 43.5 111 q22 57 43 114.5 q21 57.5 39 109.5 q4 10 12 19 l-170 0 q-9 0 -17.5 4 q-8.5 4 -14.5 11 q-6 7 -8.5 15 q-2.5 8 -1.5 17 q1 9 7 17.5 q6 8.5 14.5 15 q8.5 6.5 18 10.5 q9.5 4 18.5 4 l745 0 q9 0 17.5 -4 q8.5 -4 15 -10.5 q6.5 -6.5 9 -15 q2.5 -8.5 0.5 -17.5 q-1 -9 -7 -17 q-6 -8 -14 -15 q-8 -7 -18 -11 q-10 -4 -19 -4 l-488 0 q3 -7 4 -15 q1 -10 -3 -21 q-19 -53 -40 -110 l292 0 q9 0 17 -4 l1 1 q3 3 6 3 q2 0 4 0.5 q2 0.5 4 0.5 l8 2 q2 0 5 0.5 q3 0.5 5 -0.5 l20 -2 q9 0 16 -5.5 q7 -5.5 12 -13.5 q5 -8 6.5 -17 q1.5 -9 -0.5 -18 q-14 -48 -31 -104 q-17 -56 -35 -115 q-18 -59 -37 -117.5 q-19 -58.5 -37 -112.5 q-2 -6 -7 -13 l192 0 q10 0 18 -4 q8 -4 13.5 -10.5 q5.5 -6.5 8.5 -15 q3 -8.5 1 -17.5 q-2 -9 -7.5 -17.5 q-5.5 -8.5 -14 -15.5 q-8.5 -7 -17.5 -11 q-9 -4 -18 -4 l-808 0 q-9 0 -17.5 4 q-8.5 4 -14.5 11 q-6 7 -8.5 15.5 q-2.5 8.5 -0.5 17.5 Z" /><glyph glyph-name="uni4E94" unicode="&#x4e94;" d="M433 63 l244 0 q14 47 27 96 q15 53 28.5 104.5 q13.5 51.5 24.5 99.5 q1 1 1 2 q-4 -1 -8 -1 l-210 0 l-10 -28 q-28 -81 -55 -157 q-22 -63 -42 -116 ZM78 15 q1 9 6.5 17.5 q5.5 8.5 14 15.5 q8.5 7 18 11 q9.5 4 18.5 4 l190 0 q1 0 1 1 q24 63 51.5 138 q27.5 75 54.5 156 l2 6 l-129 0 q-9 0 -17.5 4 q-8.5 4 -14.5 11 q-6 7 -8.5 16 q-2.5 9 -0.5 17 q1 9 6.5 18 q5.5 9 14 15.5 q8.5 6.5 18.5 10.5 q10 4 19 4 l144 0 q10 29 20 59 q23 70 43 135 l-229 0 q-9 0 -17 4 q-8 4 -14 11 q-6 7 -8.5 16 q-2.5 9 -0.5 17 q1 10 6.5 18.5 q5.5 8.5 14 15.5 q8.5 7 18 10.5 q9.5 3.5 18.5 3.5 l666 0 q10 0 18 -3.5 q8 -3.5 13.5 -10.5 q5.5 -7 8.5 -15.5 q3 -8.5 1 -18.5 q-2 -8 -7.5 -17 q-5.5 -9 -14 -16 q-8.5 -7 -17.5 -11 q-9 -4 -19 -4 l-329 0 q-24 -74 -51 -154 q-6 -20 -13 -40 l194 0 q8 0 16 -3 q2 3 5 3 q1 0 3.5 0.5 q2.5 0.5 4.5 0.5 l9 2 q2 0 4.5 0.5 q2.5 0.5 4.5 0.5 l24 -2 q9 -1 16 -6 q7 -5 12.5 -12 q5.5 -7 7.5 -16 q2 -9 0 -18 q-10 -42 -22 -88 q-12 -46 -25 -93.5 q-13 -47.5 -26 -94.5 q-10 -36 -20 -71 l149 0 q10 0 17.5 -4 q7.5 -4 13.5 -11 q6 -7 9 -15.5 q3 -8.5 1 -17.5 q-2 -9 -7.5 -17.5 q-5.5 -8.5 -14 -15.5 q-8.5 -7 -17.5 -11.5 q-9 -4.5 -19 -4.5 l-795 0 q-9 0 -17 4.5 q-8 4.5 -14 11.5 q-6 7 -8.5 15.5 q-2.5 8.5 -0.5 17.5 Z" /><glyph glyph-name="uni4E9A" unicode="&#x4e9a;" d="M767 237 q-2 9 -0.5 19.5 q1.5 10.5 6.5 19.5 q18 26 37.5 56 q19.5 30 38 60.5 q18.5 30.5 36.5 62 q18 31.5 34 60.5 q4 10 12 18 q8 8 18 13 q10 5 20.5 7 q10.5 2 19.5 -2 l1 0 q7 -3 12.5 -9.5 q5.5 -6.5 8.5 -15 q3 -8.5 2.5 -18 q-0.5 -9.5 -5.5 -17.5 q-18 -32 -37.5 -66 q-19.5 -34 -40 -66 q-20.5 -32 -40.5 -63 q-20 -31 -40 -59 q-3 -8 -11 -14 q-8 -6 -17 -9.5 q-9 -3.5 -17.5 -4.5 q-8.5 -1 -16.5 2 q-9 2 -14 9.5 q-5 7.5 -7 16.5 ZM456 63 l139 0 l110 627 l-138 0 l-111 -627 ZM199 489 q-1 9 1.5 18.5 q2.5 9.5 7 18.5 q4.5 9 12 16 q7.5 7 16.5 9 q8 3 17.5 2 q9.5 -1 17 -5 q7.5 -4 13.5 -10.5 q6 -6.5 8 -14.5 q9 -31 17.5 -64.5 q8.5 -33.5 16 -67 q7.5 -33.5 14 -64.5 q6.5 -31 11.5 -59 q1 -7 -2 -16 q-3 -9 -8 -17 q-5 -8 -12 -14.5 q-7 -6.5 -15 -9.5 l-3 -2 q-10 -4 -20.5 -3 q-10.5 1 -18.5 6 q-8 5 -14 13 q-6 8 -8 19 q-3 27 -8.5 57 q-5.5 30 -12 62 q-6.5 32 -14.5 64 q-8 32 -16 62 ZM61 17 q2 8 7.5 16.5 q5.5 8.5 14 15 q8.5 6.5 18 10.5 q9.5 4 18.5 4 l231 0 l111 627 l-200 0 q-9 0 -17.5 4.5 q-8.5 4.5 -14 11 q-5.5 6.5 -8.5 15.5 q-3 9 -1 18 q2 9 7.5 17.5 q5.5 8.5 14 15.5 q8.5 7 18 11 q9.5 4 18.5 4 l766 0 q9 0 17.5 -4 q8.5 -4 14.5 -11 q6 -7 8.5 -15.5 q2.5 -8.5 0.5 -17.5 q-2 -9 -7.5 -18 q-5.5 -9 -14 -15.5 q-8.5 -6.5 -17.5 -11 q-9 -4.5 -19 -4.5 l-216 0 l-110 -627 l241 0 q9 0 17 -4 q8 -4 14 -10.5 q6 -6.5 9 -15 q3 -8.5 0 -16.5 q-1 -9 -6.5 -17.5 q-5.5 -8.5 -14 -15 q-8.5 -6.5 -17.5 -11 q-9 -4.5 -19 -4.5 l-823 0 q-9 0 -17 4.5 q-8 4.5 -14 11 q-6 6.5 -8.5 15 q-2.5 8.5 -1.5 17.5 Z" /><glyph glyph-name="uni4E9B" unicode="&#x4e9b;" d="M640 403 q0 24 6 58 l58 334 q2 9 7.5 18 q5.5 9 14 16 q8.5 7 17.5 11.5 q9 4.5 18 4.5 l2 0 q9 0 17 -4.5 q8 -4.5 13.5 -11.5 q5.5 -7 8 -16 q2.5 -9 0.5 -18 l-25 -138 q20 7 39 14 q26 9 52 19 q26 10 49.5 20.5 q23.5 10.5 43.5 20.5 q13 6 30.5 3.5 q17.5 -2.5 25.5 -12.5 l2 -3 q7 -9 8.5 -20 q1.5 -11 -2.5 -21 q-4 -10 -13 -18.5 q-9 -8.5 -21 -13.5 q-52 -21 -109 -40.5 q-57 -19.5 -114 -35.5 q-3 -1 -6 -1 l-19 -108 q-2 -12 -2 -20 q0 -11 5.5 -17 q5.5 -6 36.5 -6 l132 0 q8 0 14.5 1.5 q6.5 1.5 11 7 q4.5 5.5 8.5 15 q4 9.5 8 25.5 q12 8 22 18 q10 10 19.5 18 q9.5 8 18.5 12.5 q9 4.5 20 -0.5 q11 -5 16 -17 q5 -12 5 -19 q0 -8 -4 -16 q-13 -40 -24.5 -66.5 q-11.5 -26.5 -28 -42 q-16.5 -15.5 -38.5 -22 q-22 -6.5 -56 -6.5 l-152 0 q-40 0 -64.5 6.5 q-24.5 6.5 -37 22 q-12.5 15.5 -13 30.5 q-0.5 15 -0.5 18 ZM221 202 q2 9 7.5 17.5 q5.5 8.5 14 15 q8.5 6.5 18 10.5 q9.5 4 19.5 4 l579 0 q9 0 17.5 -4 q8.5 -4 14.5 -10.5 q6 -6.5 8.5 -15 q2.5 -8.5 1.5 -17.5 q-1 -9 -7 -17 q-6 -8 -14.5 -15 q-8.5 -7 -18 -11 q-9.5 -4 -18.5 -4 l-579 0 q-10 0 -18.5 4 q-8.5 4 -14.5 11 q-6 7 -8.5 15 q-2.5 8 -1.5 17 ZM126 325 q-4 8 -3 17 q1 9 5.5 18.5 q4.5 9.5 12.5 17 q8 7.5 17.5 12.5 q9.5 5 19.5 6 q8 1 16 1 q-1 2 -1 4 q-3 9 -1 19 l48 269 q1 9 6 18 q5 9 13 16 q8 7 17 11.5 q9 4.5 18 4.5 q8 0 15.5 -4.5 q7.5 -4.5 12.5 -11.5 q5 -7 7 -15.5 q2 -8.5 1 -18.5 l-48 -271 q-1 -6 -4 -12 q35 4 73 8 q3 0 8 1 q-3 9 -1 18 l64 362 q2 9 7 18 q5 9 14 16 q9 7 18 11.5 q9 4.5 18 4.5 q9 0 17 -4.5 q8 -4.5 13.5 -11 q5.5 -6.5 8 -16 q2.5 -9.5 0.5 -17.5 l-20 -113 l90 0 q10 0 18.5 -3.5 q8.5 -3.5 14 -9.5 q5.5 -6 8.5 -14 q3 -8 1.5 -16 q-1.5 -8 -7 -16.5 q-5.5 -8.5 -13.5 -14.5 q-8 -6 -18 -9.5 q-10 -3.5 -19 -3.5 l-90 0 l-29 -163 q0 -4 -2 -8 q48 5 97 11 q10 1 18.5 -2.5 q8.5 -3.5 16 -9.5 q7.5 -6 11 -14 q3.5 -8 1.5 -18 q-3 -15 -19 -29.5 q-16 -14.5 -32 -16.5 q-101 -12 -198.5 -24 q-97.5 -12 -176.5 -21 q-10 -1 -18.5 2 q-8.5 3 -15 8.5 q-6.5 5.5 -10.5 13.5 ZM69 -13 q2 10 7.5 18 q5.5 8 14 15 q8.5 7 18 11 q9.5 4 19.5 4 l798 0 q10 0 18 -4 q8 -4 14 -11 q6 -7 8.5 -15 q2.5 -8 0.5 -18 q-1 -9 -7 -18 q-6 -9 -14 -16 q-8 -7 -17.5 -11 q-9.5 -4 -19.5 -4 l-798 0 q-9 0 -17.5 4 q-8.5 4 -15 11 q-6.5 7 -8.5 16 q-2 9 -1 18 Z" /><glyph glyph-name="uni4EA4" unicode="&#x4ea4;" d="M756.5 523 q-3.5 10 -1.5 21 q2 11 8 20.5 q6 9.5 17 16.5 q11 7 28 7.5 q17 0.5 25 -6.5 q22 -18 45 -37.5 q23 -19.5 44.5 -40 q21.5 -20.5 41 -41 q19.5 -20.5 36.5 -39.5 q6 -6 7 -15.5 q1 -9.5 -0.5 -19.5 q-1.5 -10 -7.5 -19 q-6 -9 -15 -15 l-4 -3 q-14 -9 -30 -9 q-4 0 -16.5 1.5 q-12.5 1.5 -23.5 14.5 q-12 17 -28.5 35.5 q-16.5 18.5 -35 37.5 q-18.5 19 -38 37.5 q-19.5 18.5 -40.5 35.5 q-8 8 -11.5 18 ZM200 665 q2 9 7.5 17.5 q5.5 8.5 13.5 15 q8 6.5 18 10.5 q10 4 19 4 l364 0 q-3 3 -5 6 q-6 7 -9 16 q-2 9 -6 19 q-4 10 -10 19 q-3 9 -1 20.5 q2 11.5 7.5 21 q5.5 9.5 14 17.5 q8.5 8 18.5 11 l4 1 q14 5 30.5 -1 q16.5 -6 21.5 -19 q7 -14 13 -29 q6 -15 10 -29 q3 -8 1.5 -17 q-1.5 -9 -7 -17.5 q-5.5 -8.5 -12.5 -15.5 l-3 -3 l344 0 q9 0 17 -4 q8 -4 14 -10.5 q6 -6.5 8.5 -15 q2.5 -8.5 0.5 -17.5 q-1 -9 -7 -17.5 q-6 -8.5 -14 -15.5 q-8 -7 -17.5 -11 q-9.5 -4 -18.5 -4 l-775 0 q-9 0 -17.5 4 q-8.5 4 -14.5 11 q-6 7 -8 15.5 q-2 8.5 -1 17.5 ZM184 380 q0 7 5.5 23.5 q5.5 16.5 31.5 31.5 q49 29 97 64 q48 35 88 72 q10 9 27 14 q17 5 29 0 l5 -2 q10 -4 15.5 -12.5 q5.5 -8.5 6 -19 q0.5 -10.5 -4.5 -21 q-5 -10.5 -15 -18.5 q-49 -46 -106 -87.5 q-57 -41.5 -110 -75.5 q-12 -7 -27 -7 q-3 0 -13.5 1 q-10.5 1 -17.5 10 q-11 12 -11 27 ZM97 -54 q-5 11 -4 22.5 q1 11.5 7.5 21.5 q6.5 10 17 17.5 q10.5 7.5 23.5 10.5 q95 23 178.5 55.5 q83.5 32.5 154.5 76.5 q2 2 4 3 q-16 20 -30 42 q-42 66 -68 148 q-3 10 -2 20 q1 10 6 19.5 q5 9.5 13.5 16.5 q8.5 7 18.5 9 q7 2 15 1 q8 -1 15.5 -5.5 q7.5 -4.5 13.5 -10.5 q6 -6 9 -14 q29 -95 91 -167 q23 20 45 41 q60 59 105 131 q11 16 28.5 23.5 q17.5 7.5 28.5 7.5 q5 0 9 -1 l5 -2 q9 -2 15 -9.5 q6 -7.5 8.5 -16.5 q2.5 -9 0.5 -19.5 q-2 -10.5 -9 -19.5 q-56 -85 -126 -152 q-23 -23 -47 -43 q108 -88 281 -128 q28 -7 32 -20 q4 -13 4 -19 q0 -16 -14 -34 q-9 -12 -23.5 -18 q-14.5 -6 -24.5 -6 q-4 0 -9 1 q-98 22 -178 59 q-80 37 -140 89 q-7 6 -13 12 q-9 -6 -18 -11 q-81 -51 -173.5 -88.5 q-92.5 -37.5 -196.5 -64.5 q-5 -1 -10 -1 q-11 0 -24.5 5.5 q-13.5 5.5 -18.5 17.5 Z" /><glyph glyph-name="uni4EA6" unicode="&#x4ea6;" d="M836 406 q-3 9 -2 19.5 q1 10.5 5.5 20 q4.5 9.5 12.5 17.5 q8 8 17 12 q8 3 16 2.5 q8 -0.5 16 -3.5 q8 -3 14 -8 q6 -5 8 -11 q13 -31 25 -63 q12 -32 21.5 -64 q9.5 -32 17 -63.5 q7.5 -31.5 11.5 -57.5 q1 -3 1 -6 q0 -12 -10 -27 q-10 -15 -25 -21 l-3 -2 q-10 -4 -21 -3.5 q-11 0.5 -20 5.5 q-9 5 -15 13.5 q-6 8.5 -8 18.5 q-5 25 -11 52 q-6 27 -14 55.5 q-8 28.5 -17 57.5 q-9 29 -19 56 ZM593 771 q-3 10 -1 20.5 q2 10.5 7.5 20 q5.5 9.5 14 17.5 q8.5 8 18.5 11 l5 2 q6 2 12 2 q10 0 22.5 -5.5 q12.5 -5.5 16.5 -19.5 q8 -15 15.5 -32 q7.5 -17 12.5 -31 q3 -9 1 -19 q-2 -10 -7.5 -19 q-5.5 -9 -13 -16 q-7.5 -7 -17.5 -11 l-4 -1 q-9 -2 -19 -1.5 q-10 0.5 -18.5 4.5 q-8.5 4 -15 11 q-6.5 7 -7.5 16 q-4 11 -9.5 25 q-5.5 14 -12.5 26 ZM165 -30 q0 7 4 22.5 q4 15.5 26 32.5 q70 53 115 108.5 q45 55.5 73.5 113.5 q28.5 58 43.5 116 q15 58 25 114 l16 92 q2 8 6 15 l-243 0 q-10 0 -18 4 q-8 4 -14 11 q-6 7 -8.5 15.5 q-2.5 8.5 -1.5 17.5 q2 9 7.5 17.5 q5.5 8.5 14 15.5 q8.5 7 18.5 11 q10 4 19 4 l785 0 q9 0 17.5 -4 q8.5 -4 14 -11 q5.5 -7 8 -15.5 q2.5 -8.5 1.5 -17.5 q-1 -9 -7 -17.5 q-6 -8.5 -14.5 -15.5 q-8.5 -7 -18 -11 q-9.5 -4 -19.5 -4 l-208 0 l0 -2 q2 -9 1 -19 l-93 -528 q-8 -42 -22 -65 q-14 -23 -44 -34 q-25 -10 -58.5 -13 q-33.5 -3 -81.5 -5 q-16 0 -29.5 11.5 q-13.5 11.5 -15.5 24.5 q0 3 0 7 q0 20 16 37 q16 17 42 17 q1 0 3 0 l64 0 q12 1 17.5 5 q5.5 4 7.5 16 l94 528 q1 9 7 18 q0 1 1 2 l-149 0 q1 -8 0 -15 l-16 -93 q-11 -61 -29 -130 q-18 -69 -53 -139 q-35 -70 -90 -138 q-55 -68 -138 -128 q-8 -6 -17.5 -8.5 q-9.5 -2.5 -19 -2.5 q-9.5 0 -17.5 3.5 q-8 3.5 -13 10.5 q-9 11 -9 26 ZM132.5 189.5 q-3.5 9.5 -3 20.5 q0.5 11 4 22 q3.5 11 11.5 21 q33 40 62.5 88 q29.5 48 53.5 100 q4 9 11.5 16.5 q7.5 7.5 16.5 13 q9 5.5 19 8 q10 2.5 19 -0.5 l2 0 q8 -2 14.5 -8 q6.5 -6 10.5 -14 q4 -8 4 -18 q0 -10 -5 -20 q-30 -63 -66.5 -122 q-36.5 -59 -74.5 -106 q-7 -8 -16 -13 q-9 -5 -18.5 -7 q-9.5 -2 -18.5 -1 q-9 1 -15 6 q-8 5 -11.5 14.5 Z" /><glyph glyph-name="uni4EA7" unicode="&#x4ea7;" d="M404 554 q-4 10 -3 21 q1 11 5.5 21 q4.5 10 12.5 18 q8 8 19 12 q13 5 29 0 q16 -5 21 -16 q10 -16 18 -34 q8 -18 14 -34 q4 -7 3 -16.5 q-1 -9.5 -6 -18 q-5 -8.5 -12 -15.5 q-7 -7 -15 -11 l-1 0 q-9 -3 -19.5 -3 q-10.5 0 -19.5 3.5 q-9 3.5 -15.5 10 q-6.5 6.5 -10.5 15.5 q-3 10 -8.5 23 q-5.5 13 -11.5 24 ZM247 687 q2 8 7.5 16.5 q5.5 8.5 14 15 q8.5 6.5 18 10.5 q9.5 4 18.5 4 l312 0 q-1 2 -1 5 q-3 8 -7.5 18 q-4.5 10 -10.5 19 q-3 9 -1 19 q2 10 8.5 19 q6.5 9 16 15.5 q9.5 6.5 22.5 9.5 l10 2 q11 3 24.5 -2 q13.5 -5 17.5 -15 q7 -11 13 -24 q6 -13 11 -23 q3 -9 1 -18 q-2 -9 -7 -18 q-3 -4 -5 -7 l299 0 q10 0 18 -4 q8 -4 14 -10.5 q6 -6.5 8.5 -15 q2.5 -8.5 1.5 -16.5 q-2 -9 -7.5 -17 q-5.5 -8 -14 -15 q-8.5 -7 -18 -11 q-9.5 -4 -18.5 -4 l-703 0 q-9 0 -17.5 4 q-8.5 4 -14.5 11 q-6 7 -8.5 15 q-2.5 8 -1.5 17 ZM72 -40.5 q-2 9.5 -1.5 20.5 q0.5 11 3.5 22 q3 11 9 21 q26 37 44.5 75 q18.5 38 31.5 76.5 q13 38.5 21.5 77.5 q8.5 39 15.5 78 l15 88 q2 10 7.5 18.5 q5.5 8.5 14 16 q8.5 7.5 17.5 11.5 q9 4 18 4 l6 0 q9 0 17 -4 l6 -4 q5 2 9 4 q10 4 19 4 l403 0 q-1 2 -1 5 q-1 9 1.5 20 q2.5 11 8.5 21 q12 15 25 35 q13 20 24 38 q5 8 13.5 15 q8.5 7 18 11.5 q9.5 4.5 19.5 5.5 q10 1 19 -2 l1 0 q11 -4 17 -11.5 q6 -7.5 7.5 -18 q1.5 -10.5 -2 -21.5 q-3.5 -11 -12.5 -21 l-34 -44 q-13 -18 -26 -33 l178 0 q9 0 17.5 -4 q8.5 -4 14 -11 q5.5 -7 8.5 -15 q3 -8 2 -18 q-2 -9 -7.5 -17.5 q-5.5 -8.5 -14.5 -15.5 q-9 -7 -18 -11 q-9 -4 -19 -4 l-663 0 l-8 -44 q-7 -40 -18.5 -86.5 q-11.5 -46.5 -28 -95.5 q-16.5 -49 -40 -97 q-23.5 -48 -54.5 -92 q-7 -10 -17 -16 q-10 -6 -20.5 -7.5 q-10.5 -1.5 -20.5 1 q-10 2.5 -17 9.5 q-7 6 -9 15.5 Z" /><glyph glyph-name="uni4EAB" unicode="&#x4eab;" d="M388 491 q0 -3 1.5 -5 q1.5 -2 3.5 -2 l426 0 q2 0 4.5 2 q2.5 2 2.5 5 l10 59 q1 3 -1 5 q-2 2 -4 2 l-425 0 q-2 0 -4.5 -2 q-2.5 -2 -2.5 -5 l-11 -59 ZM286 464 l20 113 q2 9 8 18 q6 9 14 16 q8 7 17.5 11 q9.5 4 19.5 4 l537 0 q10 0 18 -4 q8 -4 14.5 -11 q6.5 -7 9 -16 q2.5 -9 0.5 -18 l-20 -113 q-1 -9 -7 -18 q-6 -9 -14.5 -16 q-8.5 -7 -18 -11 q-9.5 -4 -19.5 -4 l-536 0 q-10 0 -18.5 4 q-8.5 4 -14.5 11 q-6 7 -8.5 16 q-2.5 9 -1.5 18 ZM210 719 q0 9 6.5 18 q6.5 9 14.5 14.5 q8 5.5 18 9 q10 3.5 19 3.5 l336 0 q-1 2 -1 4 q-3 9 -7 18 q0 2 0 4 q0 17 14 34 q14 17 36 21 l9 1 q13 3 27.5 -5.5 q14.5 -8.5 16.5 -22.5 q5 -11 9 -22.5 q4 -11.5 6 -21.5 q1 -5 0 -10 l326 0 q10 0 18 -3.5 q8 -3.5 14 -9 q6 -5.5 9 -13 q3 -7.5 1 -15.5 q-2 -16 -19.5 -29 q-17.5 -13 -36.5 -13 l-772 0 q-19 0 -31.5 12 q-12.5 12 -12.5 26 ZM97 144 q1 9 6.5 16.5 q5.5 7.5 13.5 13.5 q8 6 17.5 9 q9.5 3 18.5 3 l346 0 l1 2 q1 9 7 18 q6 9 14 16 q8 7 17 12 q4 1 7 2 q15 15 40 23 q34 8 66 19 q14 4 29 9 l-412 0 q-19 0 -32.5 12 q-13.5 12 -10.5 27 q2 14 19.5 26 q17.5 12 37.5 12 l514 0 q17 0 29 -9 q2 3 6 5 q8 5 17 5 l4 0 q3 0 5 1 q6 1 15.5 -1.5 q9.5 -2.5 14.5 -7.5 q7 -8 8.5 -18.5 q1.5 -10.5 -1.5 -21 q-3 -10.5 -11 -19 q-8 -8.5 -21 -14.5 q-32 -14 -66.5 -27.5 q-34.5 -13.5 -71 -25 q-36.5 -11.5 -73.5 -21.5 q-24 -7 -47 -13 q0 -5 -1 -10 l0 -1 l351 0 q9 0 17.5 -3 q8.5 -3 14.5 -9 q6 -6 8.5 -13.5 q2.5 -7.5 0.5 -16.5 q-1 -7 -6.5 -14.5 q-5.5 -7.5 -13.5 -13.5 q-8 -6 -17.5 -10 q-9.5 -4 -18.5 -4 l-351 0 l-17 -93 q-6 -38 -22 -56.5 q-16 -18.5 -49 -27.5 q-27 -7 -65 -8.5 q-38 -1.5 -91 -2.5 q-14 0 -26.5 8.5 q-12.5 8.5 -14.5 18.5 q-1 4 -1 8 q0 16 15.5 29.5 q15.5 13.5 42.5 13.5 q2 0 3 0 l47 0 q18 0 31 1 q14 1 19.5 4.5 q5.5 3.5 7.5 14.5 l16 90 l-346 0 q-9 0 -17 4 q-8 4 -14 10 q-6 6 -9 13.5 q-3 7.5 -1 14.5 Z" /><glyph glyph-name="uni4EAC" unicode="&#x4eac;" d="M753 113 q-5 8 -6 18.5 q-1 10.5 2 21 q3 10.5 9.5 19.5 q6.5 9 17.5 14 q10 5 23 5 q4 0 15.5 -1.5 q11.5 -1.5 18.5 -12.5 q14 -17 28 -35.5 q14 -18.5 27.5 -36.5 q13.5 -18 25 -35.5 q11.5 -17.5 21.5 -33.5 q5 -7 5 -16 q0 -9 -3 -18.5 q-3 -9.5 -9 -18 q-6 -8.5 -15 -13.5 l-3 -1 q-10 -6 -20 -7.5 q-10 -1.5 -20 1 q-10 2.5 -18 8 q-8 5.5 -12 13.5 q-9 14 -19 30 q-10 16 -21 33 q-11 17 -22.5 34 q-11.5 17 -24.5 32 ZM358 352 q0 -2 1.5 -4 q1.5 -2 3.5 -2 l438 0 q2 0 4 2 q2 2 3 4 l21 122 q1 2 -1 4 q-2 2 -4 2 l-437 0 q-2 0 -4 -2 q-2 -2 -3 -4 l-22 -122 ZM254 310 l36 206 q2 9 7.5 18 q5.5 9 14 16 q8.5 7 18.5 11 q10 4 19 4 l549 0 q10 0 18.5 -4 q8.5 -4 14 -11 q5.5 -7 8.5 -16 q3 -9 1 -18 l-37 -206 q-1 -9 -6.5 -18 q-5.5 -9 -14 -16 q-8.5 -7 -18 -11 q-9.5 -4 -19.5 -4 l-229 0 q1 -2 1 -3 q3 -9 1 -18 l-39 -219 q-7 -40 -21 -61.5 q-14 -21.5 -46 -32.5 q-25 -8 -60 -10.5 q-35 -2.5 -85 -2.5 q-15 -1 -28 9.5 q-13 10.5 -15 23.5 q0 3 0 6 q0 19 16 35.5 q16 16.5 41 16.5 q1 0 3 0 l40 0 q14 0 27 1 q14 0 19 3.5 q5 3.5 7 13.5 l38 217 q2 9 7 18 q1 1 2 3 l-228 0 q-10 0 -18 4 q-8 4 -14.5 11 q-6.5 7 -8.5 16 q-2 9 -1 18 ZM200 679 q2 9 7.5 17.5 q5.5 8.5 14 15 q8.5 6.5 18 10.5 q9.5 4 18.5 4 l352 0 q-4 10 -9 22 q-5 13 -11 25 q-3 10 -0.5 20.5 q2.5 10.5 7.5 19.5 q5 9 14 16.5 q9 7.5 19 10.5 l7 2 q14 5 30 -2 q16 -7 21 -20 q7 -14 14 -29.5 q7 -15.5 11 -29.5 q3 -8 1 -18 q-1 -9 -5 -17 l330 0 q9 0 17 -4 q8 -4 13.5 -10.5 q5.5 -6.5 8.5 -15 q3 -8.5 1 -17.5 q-1 -9 -7 -18 q-6 -9 -14 -16 q-8 -7 -17.5 -11 q-9.5 -4 -18.5 -4 l-781 0 q-9 0 -17 4 q-8 4 -14 11 q-6 7 -8.5 16 q-2.5 9 -1.5 18 ZM102 -29 q-6 6 -7.5 15.5 q-1.5 9.5 0.5 19.5 q2 10 8.5 20.5 q6.5 10.5 15.5 19.5 q36 28 70.5 60.5 q34.5 32.5 60.5 63.5 q12 13 27 18 q15 5 24 5 q7 0 12 -2 l1 -1 q10 -4 15.5 -12 q5.5 -8 7 -18 q1.5 -10 -2 -20.5 q-3.5 -10.5 -12.5 -20.5 q-35 -37 -74.5 -74.5 q-39.5 -37.5 -79.5 -68.5 q-8 -7 -17 -10.5 q-9 -3.5 -18.5 -4 q-9.5 -0.5 -17 1.5 q-7.5 2 -13.5 8 Z" /><glyph glyph-name="uni4EAE" unicode="&#x4eae;" d="M400 497 q0 -2 1 -3.5 q1 -1.5 3 -1.5 l404 0 q2 0 4.5 1.5 q2.5 1.5 2.5 3.5 l10 60 q0 2 -1 4 q-1 2 -3 2 l-404 0 q-2 0 -4 -2 q-2 -2 -2 -4 l-11 -60 ZM299 474 l19 105 q1 10 7 18.5 q6 8.5 14 16 q8 7.5 18 11.5 q10 4 19 4 l515 0 q10 0 18 -4 q8 -4 14 -11.5 q6 -7.5 8.5 -16 q2.5 -8.5 1.5 -18.5 l-20 -105 q-1 -8 -6.5 -17.5 q-5.5 -9.5 -14 -16.5 q-8.5 -7 -18 -11 q-9.5 -4 -19.5 -4 l-515 0 q-9 0 -17 4 q-8 4 -14 11 q-6 7 -8.5 16.5 q-2.5 9.5 -1.5 17.5 ZM201 719 q2 16 20 28 q18 12 36 12 l357 0 l0 1 q-3 7 -6.5 15.5 q-3.5 8.5 -6.5 17.5 q-1 3 -1 6 q0 12 14.5 26.5 q14.5 14.5 35.5 19.5 l9 1 q13 4 26 -2 q13 -6 17 -16 q5 -9 9 -18 q4 -9 6 -17 q3 -7 -0.5 -15.5 q-3.5 -8.5 -8.5 -16.5 l-2 -2 l343 0 q19 0 32 -12 q13 -12 10 -28 q-1 -8 -6.5 -15 q-5.5 -7 -13.5 -13 q-8 -6 -17.5 -9.5 q-9.5 -3.5 -19.5 -3.5 l-791 0 q-9 0 -17.5 3.5 q-8.5 3.5 -14.5 9.5 q-6 6 -9 13 q-3 7 -1 15 ZM131 242 l14 82 q2 9 8 17.5 q6 8.5 14 16 q8 7.5 18 11.5 q10 4 19 4 l762 0 q10 0 18 -4 q8 -4 14 -11 q6 -7 8.5 -16 q2.5 -9 0.5 -18 l-13 -81 q-3 -9 -8 -18 q-5 -9 -13.5 -16 q-8.5 -7 -17.5 -11 q-9 -4 -19 -4 q-9 0 -17 4 q-8 4 -13.5 11 q-5.5 7 -8.5 16 q-3 9 0 18 l8 48 q0 2 -1.5 4 q-1.5 2 -3.5 2 l-661 0 q-2 0 -4 -2 q-2 -2 -3 -4 l-8 -49 q-2 -9 -7.5 -18 q-5.5 -9 -13.5 -16 q-8 -7 -16.5 -11.5 q-8.5 -4.5 -17.5 -4.5 q-9 0 -16.5 4.5 q-7.5 4.5 -13 11.5 q-5.5 7 -8 16 q-2.5 9 -0.5 18 ZM97 -38 q0 13 12 28.5 q12 15.5 43 24.5 q45 12 76.5 27.5 q31.5 15.5 53 36.5 q21.5 21 35.5 49.5 q14 28.5 24 65.5 q7 18 24.5 32.5 q17.5 14.5 34.5 14.5 l5 0 q7 0 13 -2 q8 2 16 2 l249 0 q8 0 16 -3 q8 3 15 3 l7 0 q10 0 17.5 -4 q7.5 -4 13.5 -11.5 q6 -7.5 8 -16.5 q2 -9 1 -19 l-26 -143 q-3 -20 2 -25 q5 -5 26 -5 l84 0 q5 0 8 1 q3 1 5.5 5 q2.5 4 5 11 q2.5 7 5.5 19 q11 3 21 11 q10 8 19.5 16 q9.5 8 19.5 13 q10 5 20 1 q11 -4 15.5 -16 q4.5 -12 4.5 -20 q0 -8 -3 -16 q-10 -33 -20.5 -54 q-10.5 -21 -24 -33.5 q-13.5 -12.5 -32.5 -17.5 q-19 -5 -48 -5 l-111 0 q-37 0 -59 5.5 q-22 5.5 -33.5 19 q-11.5 13.5 -12 26.5 q-0.5 13 -0.5 17 q0 20 4 47 l20 113 l-218 0 q-12 -37 -27 -67 q-22 -42 -54.5 -74 q-32.5 -32 -81 -54.5 q-48.5 -22.5 -117.5 -38.5 q-6 -2 -13 -2 l-18 6 q-17 6 -22 17 q-3 8 -3 15 Z" /><glyph glyph-name="uni4EB2" unicode="&#x4eb2;" d="M720 113 q-7 9 -8 19 q-1 10 2 21 q3 11 10 20 q7 9 17 15 q13 6 30 3.5 q17 -2.5 25 -11.5 q15 -16 29.5 -33 q14.5 -17 27.5 -34 q13 -17 24.5 -34 q11.5 -17 21.5 -32 q5 -7 5 -16.5 q0 -9.5 -3 -18.5 q-3 -9 -9.5 -17.5 q-6.5 -8.5 -15.5 -13.5 l-3 -1 q-10 -5 -19.5 -6.5 q-9.5 -1.5 -19.5 1 q-10 2.5 -17.5 7.5 q-7.5 5 -12.5 13 q-7 13 -17 28 q-10 15 -21 30 q-11 15 -22.5 30 q-11.5 15 -23.5 30 ZM266.5 670 q-2.5 7 -1.5 15 q1 8 7 15.5 q6 7.5 13.5 13 q7.5 5.5 17.5 9 q10 3.5 19 3.5 l285 0 q-1 3 -1 5 q-3 10 -7.5 21 q-4.5 11 -9.5 22 q0 9 2.5 19.5 q2.5 10.5 9 19 q6.5 8.5 15.5 15.5 q9 7 20 9 l7 1 q14 4 29 -4 q15 -8 18 -21 q7 -15 12.5 -31 q5.5 -16 8.5 -30 q2 -8 -1 -17 q-2 -5 -4 -9 l282 0 q9 0 17.5 -3.5 q8.5 -3.5 14 -9 q5.5 -5.5 8.5 -13 q3 -7.5 2 -15.5 q-2 -8 -7.5 -15 q-5.5 -7 -13.5 -13.5 q-8 -6.5 -17.5 -9.5 q-9.5 -3 -18.5 -3 l-666 0 q-9 0 -17.5 3 q-8.5 3 -14.5 9.5 q-6 6.5 -8.5 13.5 ZM159 273 q2 8 7.5 15.5 q5.5 7.5 13.5 13.5 q8 6 18 9.5 q10 3.5 18 3.5 l314 0 l10 60 q2 9 8 18 q4 7 10 13 l-349 0 q-9 0 -17.5 4 q-8.5 4 -14.5 9.5 q-6 5.5 -9 13.5 q-3 8 -1 16 q1 8 6.5 15.5 q5.5 7.5 13.5 13.5 q8 6 18 10 q10 4 19 4 l191 0 q-2 2 -4 5 q-5 7 -7 16 q-2 12 -6.5 25.5 q-4.5 13.5 -9.5 26.5 q-3 10 -0.5 21 q2.5 11 8.5 20 q6 9 14.5 16 q8.5 7 19.5 10 q14 3 28.5 -4.5 q14.5 -7.5 18.5 -19.5 q7 -17 13.5 -36 q6.5 -19 10.5 -35 q2 -9 -0.5 -18 q-2.5 -9 -8.5 -17 q-3 -6 -8 -10 l223 0 l0 2 q2 11 8 21 q14 17 29 37.5 q15 20.5 27 37.5 q5 9 12 16 q7 7 15.5 12.5 q8.5 5.5 18 7.5 q9.5 2 17.5 1 q10 -3 17 -9.5 q7 -6.5 9.5 -15.5 q2.5 -9 1 -20.5 q-1.5 -11.5 -7.5 -21.5 q-15 -22 -33 -45 q-9 -12 -17 -23 l186 0 q9 0 17 -4 q8 -4 14 -10 q6 -6 9 -13.5 q3 -7.5 2 -15.5 q-2 -8 -7 -16 q-5 -8 -13.5 -13.5 q-8.5 -5.5 -18 -9.5 q-9.5 -4 -19.5 -4 l-340 0 q4 -6 6 -13 q2 -9 1 -18 l-11 -60 l313 0 q10 0 18 -3.5 q8 -3.5 14.5 -9.5 q6.5 -6 9 -13.5 q2.5 -7.5 0.5 -15.5 q-1 -9 -6.5 -16.5 q-5.5 -7.5 -13.5 -13.5 q-8 -6 -17.5 -10 q-9.5 -4 -19.5 -4 l-313 0 l-37 -210 q-7 -37 -20 -57 q-13 -20 -41 -31 q-21 -8 -51 -10.5 q-30 -2.5 -70 -4.5 q-16 0 -29 10 q-13 10 -14 22 q0 3 0 6 q0 18 15.5 33.5 q15.5 15.5 40.5 15.5 q1 0 3 0 l24 0 q8 0 20 1 q11 0 15.5 3.5 q4.5 3.5 6.5 13.5 l37 208 l-314 0 q-8 0 -16.5 4 q-8.5 4 -15 10 q-6.5 6 -9 13.5 q-2.5 7.5 -1.5 16.5 ZM138 3 q0 5 3 19.5 q3 14.5 26 33.5 q32 23 61 51 q29 28 53 58 q11 13 26 19 q15 6 25 6 q6 0 11 -2 l2 0 q10 -3 16 -10.5 q6 -7.5 8 -17 q2 -9.5 -1 -20 q-3 -10.5 -12 -20.5 q-32 -39 -69.5 -75 q-37.5 -36 -74.5 -65 q-14 -11 -32.5 -12 q-18.5 -1 -29.5 7 q-12 12 -12 28 Z" /><glyph glyph-name="uni4EBA" unicode="&#x4eba;" d="M89 -20 q0 7 4.5 23 q4.5 16 30.5 32 q88 51 155.5 115 q67.5 64 117.5 133.5 q50 69.5 84.5 142 q34.5 72.5 57.5 140 q23 67.5 37 126.5 q14 59 22 102 q2 9 7.5 18 q5.5 9 14 15.5 q8.5 6.5 17.5 11 q9 4.5 18 4.5 l14 0 q10 0 17.5 -4.5 q7.5 -4.5 13 -12 q5.5 -7.5 8 -17 q2.5 -9.5 0.5 -18.5 q-10 -48 -26 -109 q1 -6 0 -12 l0 -79 q0 -48 7 -104.5 q7 -56.5 22.5 -118 q15.5 -61.5 44 -120.5 q28.5 -59 72 -113 q43.5 -54 106.5 -94 q22 -16 22 -41 q0 -22 -18 -40 q-7 -7 -16 -11.5 q-9 -4.5 -18.5 -7 q-9.5 -2.5 -19 -2 q-9.5 0.5 -16.5 5.5 q-71 45 -120.5 105 q-49.5 60 -81.5 127 q-32 67 -48 137 q-14 62 -22 120 q-13 -29 -28 -60 q-40 -80 -97 -157.5 q-57 -77.5 -132 -147.5 q-75 -70 -174 -126 q-8 -5 -17.5 -6.5 q-9.5 -1.5 -19 0 q-9.5 1.5 -17 5.5 q-7.5 4 -12.5 10 q-10 13 -10 28 Z" /><glyph glyph-name="uni4EBF" unicode="&#x4ebf;" d="M397 62 q0 13 3 27 q3 18 10 38 q7 20 26.5 50.5 q19.5 30.5 56 75 q36.5 44.5 97.5 110.5 q61 66 152 157 q61 62 140 138 l-307 0 q-10 0 -18 4 q-8 4 -14.5 10.5 q-6.5 6.5 -9.5 14.5 q-3 8 0 17 q1 9 6.5 17 q5.5 8 14 15 q8.5 7 18.5 10.5 q10 3.5 20 3.5 l355 0 q10 0 18 -4 q3 -1 6 -3 q2 2 6 3 q8 4 13 4 q2 0 5 0.5 q3 0.5 5 0.5 l8 2 q3 1 9 -0.5 q6 -1.5 9 -3.5 l8 -4 l19 -11 l17 -18 l-6 -6 l-6 -5 q-128 -121 -219 -210 q-91 -89 -152 -152 q-61 -63 -97.5 -104.5 q-36.5 -41.5 -56 -68.5 q-19.5 -27 -26 -42.5 q-6.5 -15.5 -8.5 -27.5 q-1 -5 -1 -10 q0 -21 20.5 -32 q20.5 -11 64.5 -11 l236 0 q16 0 28 4.5 q12 4.5 21.5 18 q9.5 13.5 18.5 37.5 q9 24 18 61 q9 27 25.5 39 q16.5 12 29.5 12 q6 0 13 -2 q12 -4 17 -16.5 q5 -12.5 5 -21.5 q0 -7 -2 -14 q-17 -66 -34.5 -108 q-17.5 -42 -39.5 -65 q-22 -23 -51.5 -31.5 q-29.5 -8.5 -71.5 -8.5 l-226 0 q-51 0 -86 10 q-35 10 -55.5 28 q-20.5 18 -26 37.5 q-5.5 19.5 -5.5 34.5 ZM140 421 q-2 6 -2 14 q0 8 4 23 q4 15 16 27 q69 62 133 143.5 q64 81.5 116 169.5 q5 8 13 14.5 q8 6.5 17 11 q9 4.5 18.5 6 q9.5 1.5 16.5 -1.5 q10 -3 15.5 -9.5 q5.5 -6.5 8 -16 q2.5 -9.5 1.5 -19.5 q-1 -10 -6 -19 q-47 -78 -101 -152 l-114 -645 q-1 -10 -7 -18.5 q-6 -8.5 -13.5 -16 q-7.5 -7.5 -17 -11.5 q-9.5 -4 -18.5 -4 q-9 0 -16.5 4 q-7.5 4 -13.5 11.5 q-6 7.5 -8 16 q-2 8.5 -1 18.5 l88 497 q-27 -29 -53 -56 q-10 -10 -21.5 -14.5 q-11.5 -4.5 -21.5 -3 q-10 1.5 -18.5 8 q-8.5 6.5 -12.5 18.5 q-1 1 -1 2 q0 1 -1 2 Z" /><glyph glyph-name="uni4EC0" unicode="&#x4ec0;" d="M430 458 q1 9 7 18 q6 9 14 15.5 q8 6.5 17.5 10.5 q9.5 4 18.5 4 l220 0 l49 276 q1 10 7 18.5 q6 8.5 14 16 q8 7.5 17.5 11.5 q9.5 4 18.5 4 l5 0 q9 0 17 -4 q8 -4 14 -11.5 q6 -7.5 8 -16 q2 -8.5 0 -18.5 l-48 -276 l210 0 q9 0 17.5 -4 q8.5 -4 14 -10.5 q5.5 -6.5 8 -15.5 q2.5 -9 0.5 -18 q-1 -9 -7 -17.5 q-6 -8.5 -14 -15.5 q-8 -7 -17.5 -11 q-9.5 -4 -18.5 -4 l-210 0 l-78 -445 q-2 -9 -7.5 -18 q-5.5 -9 -14 -16 q-8.5 -7 -17.5 -11.5 q-9 -4.5 -18 -4.5 l-6 0 q-9 0 -17 4.5 q-8 4.5 -13.5 11.5 q-5.5 7 -8 16 q-2.5 9 -0.5 18 l78 445 l-220 0 q-9 0 -17 4 q-8 4 -14 11 q-6 7 -8.5 15.5 q-2.5 8.5 -0.5 17.5 ZM145 415 q-3 7 -3 15 q0 8 4.5 22 q4.5 14 16.5 26 q69 64 135 146.5 q66 82.5 119 172.5 q5 8 13 14.5 q8 6.5 17 11 q9 4.5 18.5 6 q9.5 1.5 16.5 -1.5 q10 -3 15.5 -9.5 q5.5 -6.5 8 -15.5 q2.5 -9 1.5 -19.5 q-1 -10.5 -7 -19.5 q-46 -78 -100 -151 l-114 -645 q-1 -10 -7 -19 q-6 -9 -13.5 -16 q-7.5 -7 -17 -11 q-9.5 -4 -18.5 -4 q-9 0 -16.5 4 q-7.5 4 -14 11 q-6.5 7 -8.5 16 q-2 9 0 18 l87 497 q-28 -32 -57 -61 q-11 -10 -21.5 -14 q-10.5 -4 -21.5 -3 q-11 1 -19 7.5 q-8 6.5 -12 17.5 q-1 1 -1.5 2.5 q-0.5 1.5 -0.5 2.5 Z" /><glyph glyph-name="uni4EC5" unicode="&#x4ec5;" d="M596 646 q6 -2 11 -7 q7 -5 11.5 -13 q4.5 -8 5.5 -17 q8 -99 29 -187 q21 -88 59 -162 q8 9 17 19 q75 85 136 193 q45 81 82 174 l-351 0 ZM347 -34 q0 12 10 29.5 q10 17.5 36 29.5 q92 41 176 104 q34 26 67 55 l-4 8 q-42 82 -66 182 q-24 100 -34 215 q-1 9 2.5 18.5 q3.5 9.5 9.5 18 q6 8.5 14 14.5 q5 4 11 6 l-17 0 q-8 0 -16.5 4 q-8.5 4 -15 10.5 q-6.5 6.5 -9 14.5 q-2.5 8 -0.5 17 q1 8 6.5 16.5 q5.5 8.5 14 15 q8.5 6.5 18.5 10.5 q10 4 19 4 l393 0 q10 0 18 -4 q4 4 9 4 q1 0 3.5 0.5 q2.5 0.5 4.5 0.5 l5 1 q4 1 8 0.5 q4 -0.5 7 -1.5 l17 -5 q13 -5 19 -18 q6 -13 6 -23 q0 -6 -2 -12 q-52 -148 -121.5 -266.5 q-69.5 -118.5 -151.5 -209.5 q-11 -13 -23 -25 q20 -27 44 -52 q55 -58 130 -97 q22 -13 24 -26 q2 -13 2 -17 q0 -18 -15 -35 q-4 -6 -12 -10 q-8 -4 -16.5 -6 q-8.5 -2 -17 -2 q-8.5 0 -15.5 3 q-87 43 -149 107 q-28 29 -52 62 q-37 -33 -77 -61 q-94 -66 -197 -111 q-11 -4 -22 -4 q-7 0 -19 3 q-12 3 -18 15 q-4 8 -4 17 ZM131 420 q0 9 5 25 q5 16 19 28 q72 63 141.5 147 q69.5 84 126.5 176 q10 16 27 23.5 q17 7.5 28 7.5 q6 0 12 -2 l4 -1 q8 -3 14 -10 q6 -7 8.5 -16 q2.5 -9 0.5 -19.5 q-2 -10.5 -7 -19.5 q-52 -83 -112 -162 l-111 -630 q-2 -9 -7.5 -18 q-5.5 -9 -13.5 -16 q-8 -7 -17 -11.5 q-9 -4.5 -19 -4.5 q-9 0 -16.5 4.5 q-7.5 4.5 -14 11.5 q-6.5 7 -8.5 16 q-2 9 -1 19 l86 485 q-32 -34 -65 -64 q-10 -10 -21 -13.5 q-11 -3.5 -21 -2.5 q-10 1 -18.5 7.5 q-8.5 6.5 -13.5 16.5 q0 3 -1 4.5 q-1 1.5 -2 3.5 q-3 7 -3 15 Z" /><glyph glyph-name="uni4ECA" unicode="&#x4eca;" d="M526 500.5 q-3 9.5 -2.5 19.5 q0.5 10 5.5 19.5 q5 9.5 13 16.5 q12 10 21.5 10.5 q9.5 0.5 10.5 0.5 q17 0 28 -10 q28 -23 56.5 -50 q28.5 -27 50.5 -51 q7 -5 9 -14 q2 -9 0.5 -18 q-1.5 -9 -6 -18.5 q-4.5 -9.5 -11.5 -15.5 q-7 -6 -17.5 -9.5 q-10.5 -3.5 -21 -3.5 q-10.5 0 -19.5 3.5 q-9 3.5 -16 10.5 q-17 22 -41.5 46.5 q-24.5 24.5 -49.5 46.5 q-7 7 -10 16.5 ZM232 305 l0 3 q2 10 7.5 18 q5.5 8 14 15 q8.5 7 18 11 q9.5 4 19.5 4 l514 0 q10 0 18 -4 q8 -4 14 -11 l1 -1 q0 1 1 1 q1 2 2.5 4 q1.5 2 1.5 4 q0 3 4.5 5 q4.5 2 9.5 2 q2 0 4.5 0.5 q2.5 0.5 4.5 1.5 l2 0 q4 1 11 0.5 q7 -0.5 11 -2.5 l13 -7 q9 -4 13.5 -12.5 q4.5 -8.5 5 -18.5 q0.5 -10 -2.5 -21 q-3 -11 -11 -20 q-35 -37 -74.5 -79 q-39.5 -42 -81.5 -86 q-42 -44 -84.5 -87.5 q-42.5 -43.5 -82.5 -83.5 q-11 -12 -29.5 -16.5 q-18.5 -4.5 -30.5 1.5 l-10 6 q-10 4 -15 13 q-5 9 -5.5 19.5 q-0.5 10.5 4 21.5 q4.5 11 14.5 20 l90 90 q46 46 89 91 q35 36 67 70 l-486 0 q-9 0 -17 4 q-8 4 -14.5 11 q-6.5 7 -9 15.5 q-2.5 8.5 -0.5 17.5 ZM167 463 q0 9 6.5 26 q6.5 17 33.5 29 q58 28 115.5 61.5 q57.5 33.5 111 71.5 q53.5 38 102.5 80.5 q49 42.5 91 86.5 q6 7 14.5 12 q8.5 5 18 7.5 q9.5 2.5 18 2.5 q8.5 0 14.5 -4 l8 -3 q9 -5 14 -13.5 q5 -8.5 5 -18.5 q0 -8 -2 -16 q4 -2 6 -5 q26 -36 59.5 -71 q33.5 -35 72 -67.5 q38.5 -32.5 80 -61.5 q41.5 -29 82.5 -52 q12 -6 17.5 -16 q5.5 -10 6 -21 q0.5 -11 -5 -23 q-5.5 -12 -14.5 -22 q-2 -1 -2 -1.5 q0 -0.5 -1 -0.5 q-6 -7 -15 -11.5 q-9 -4.5 -18.5 -6.5 q-9.5 -2 -19 -1 q-9.5 1 -16.5 5 q-41 26 -83 59 q-42 33 -81.5 70 q-39.5 37 -76.5 78 q-31 35 -57 71 q-24 -23 -50 -46 q-55 -48 -114.5 -91 q-59.5 -43 -121.5 -81 q-62 -38 -125 -69 q-9 -4 -18 -5 q-9 -1 -18.5 1.5 q-9.5 2.5 -16 7 q-6.5 4.5 -11.5 10.5 q0 2 -1 2 l0 1 q-8 12 -8 25 Z" /><glyph glyph-name="uni4ECB" unicode="&#x4ecb;" d="M656 -36 l75 428 q2 10 8 18.5 q6 8.5 14 16 q8 7.5 17 11.5 q9 4 19 4 l5 0 q9 0 17.5 -4 q8.5 -4 14.5 -11.5 q6 -7.5 8 -16 q2 -8.5 1 -18.5 l-76 -428 q-1 -10 -7 -18.5 q-6 -8.5 -14 -15.5 q-8 -7 -18 -11.5 q-10 -4.5 -19 -4.5 l-5 0 q-10 0 -17.5 4.5 q-7.5 4.5 -13.5 11.5 q-6 7 -8.5 15.5 q-2.5 8.5 -0.5 18.5 ZM156 464 q0 12 9.5 30 q9.5 18 36.5 28 q60 23 119.5 55 q59.5 32 114 69.5 q54.5 37.5 104.5 80 q50 42.5 90 86.5 q7 8 17 13 q10 5 20 7 q10 2 19.5 0.5 q9.5 -1.5 16.5 -6.5 q7 -5 9.5 -13.5 q2.5 -8.5 2.5 -18 q0 -9.5 -3 -18.5 l-2 -4 q9 -5 14 -11 q22 -35 54 -69 q32 -34 71 -64 q39 -30 83.5 -55 q44.5 -25 90.5 -43 q26 -9 27.5 -22 q1.5 -13 1.5 -16 q0 -21 -18 -41 q0 -1 -1 -1 q-10 -12 -25 -17 q-15 -5 -24 -5 q-7 0 -12 2 q-51 20 -99 49.5 q-48 29.5 -90.5 65 q-42.5 35.5 -79.5 76.5 q-34 39 -59 80 q-22 -21 -45 -41 q-57 -50 -119 -93.5 q-62 -43.5 -128 -80.5 q-66 -37 -132 -63 q-9 -4 -18.5 -4 q-9.5 0 -17.5 3 q-8 3 -15 8.5 q-7 5.5 -9 12.5 q-4 10 -4 20 ZM119 -29 q0 7 4 22.5 q4 15.5 29 34.5 q53 33 86.5 68 q33.5 35 54.5 71 q21 36 31.5 74.5 q10.5 38.5 18.5 79.5 l12 70 q2 9 7.5 18 q5.5 9 14 16 q8.5 7 17.5 11.5 q9 4.5 18 4.5 l6 0 q10 0 17.5 -4.5 q7.5 -4.5 13.5 -11.5 q6 -7 8 -16 q2 -9 1 -19 l-13 -71 q-8 -47 -22.5 -97 q-14.5 -50 -42.5 -99.5 q-28 -49.5 -72.5 -96.5 q-44.5 -47 -115.5 -88 q-7 -5 -16 -7 q-9 -2 -18 -0.5 q-9 1.5 -16.5 4.5 q-7.5 3 -12.5 8 q-10 13 -10 28 Z" /><glyph glyph-name="uni4ECD" unicode="&#x4ecd;" d="M293 -23 q0 4 2 17.5 q2 13.5 18 31.5 q60 63 101.5 142 q41.5 79 72 166.5 q30.5 87.5 50.5 179.5 q19 88 36 172 l-57 0 q-9 0 -17 3.5 q-8 3.5 -14 10 q-6 6.5 -8.5 14.5 q-2.5 8 -1.5 17 q2 8 7.5 15.5 q5.5 7.5 13.5 14.5 q8 7 17.5 10.5 q9.5 3.5 18.5 3.5 l330 0 q9 0 17 -4 q5 -2 9 -5 q13 9 25 9 q10 0 18.5 -5 q8.5 -5 13 -13 q4.5 -8 5 -18.5 q0.5 -10.5 -2.5 -21.5 q-13 -34 -27.5 -71.5 q-14.5 -37.5 -28 -73.5 q-13.5 -36 -27.5 -70 q-2 -5 -4 -9 l127 0 q10 0 18 -3.5 q8 -3.5 14 -10.5 q1 -1 1 -2 q4 -4 7 -9 q2 -4 2 -7 q1 -6 1 -13 q-2 -5 -5 -11 q-25 -113 -45 -195 q-21 -84 -38.5 -140.5 q-17.5 -56.5 -33 -89 q-15.5 -32.5 -31.5 -47.5 q-20 -21 -40.5 -29.5 q-20.5 -8.5 -47.5 -11.5 q-17 -1 -34.5 -1.5 q-17.5 -0.5 -27.5 -0.5 q-18 0 -38 1 q-1 0 -3 0 q-15 0 -28.5 11.5 q-13.5 11.5 -13.5 26.5 q0 21 16.5 37.5 q16.5 16.5 44.5 16.5 q2 0 3 0 q9 -1 15.5 -1 q6.5 0 12 -0.5 q5.5 -0.5 11.5 -1.5 l15 0 q14 0 23.5 3 q9.5 3 19.5 12 q13 10 25.5 39 q12.5 29 28.5 81.5 q16 52.5 35 133.5 q13 54 29 123 l-74 0 q-11 0 -19 4 q-6 3 -11 8 q-1 0 -2 -1 q-16 -11 -28 -11 q-11 0 -19.5 5 q-8.5 5 -12.5 13.5 q-4 8.5 -4 19.5 q0 11 4 22 q12 30 25.5 63.5 q13.5 33.5 27 68.5 q13.5 35 25.5 70 q4 10 7 20 l-169 0 q-18 -94 -42 -192 q-24 -100 -58.5 -195.5 q-34.5 -95.5 -82 -182.5 q-47.5 -87 -113.5 -156 q-8 -9 -18 -14.5 q-10 -5.5 -20.5 -7 q-10.5 -1.5 -20 1.5 q-9.5 3 -15.5 10 q-10 11 -10 27 ZM131 424 q-5 11 -0.5 28 q4.5 17 15.5 28 q59 63 115.5 144.5 q56.5 81.5 102.5 170.5 q5 8 13 15.5 q8 7.5 16.5 12 q8.5 4.5 18.5 6.5 q10 2 17 -1 q9 -2 14.5 -8.5 q5.5 -6.5 8.5 -15 q3 -8.5 2 -18.5 q-1 -10 -5 -19 q-41 -77 -88 -150 l-115 -651 q-2 -10 -7.5 -19 q-5.5 -9 -13 -16 q-7.5 -7 -17 -11 q-9.5 -4 -18.5 -4 q-9 0 -16 4 q-7 4 -12.5 11 q-5.5 7 -8 16 q-2.5 9 -0.5 19 l85 480 q-17 -19 -33 -38 q-10 -11 -20.5 -16 q-10.5 -5 -21 -4 q-10.5 1 -18.5 7.5 q-8 6.5 -12 19.5 q-1 2 -1 4 q0 2 -1 5 Z" /><glyph glyph-name="uni4ECE" unicode="&#x4ece;" d="M425 -29.5 q-4 10.5 -3 22 q1 11.5 6.5 23.5 q5.5 12 14.5 21 q67 61 118.5 138.5 q51.5 77.5 92.5 170.5 q41 93 73.5 201.5 q32.5 108.5 60.5 229.5 q3 9 9 18 q6 9 14.5 16 q8.5 7 18 11 q9.5 4 18.5 3 l10 0 q9 -1 17 -5 q8 -4 13 -11.5 q5 -7.5 7 -16.5 q2 -9 0 -19 q-33 -135 -70 -254 q-6 -20 -13 -39 q1 -2 2 -3 q5 -9 6 -21 q3 -51 11.5 -105.5 q8.5 -54.5 24 -106.5 q15.5 -52 39 -99 q23.5 -47 57.5 -84 q10 -15 10 -35 q0 -3 -1 -17 q-1 -14 -18 -32 q-9 -8 -19 -13 q-10 -5 -21.5 -6 q-11.5 -1 -20.5 2.5 q-9 3.5 -15 12.5 q-37 46 -62 103.5 q-25 57.5 -41 119.5 q-13 51 -21 103 q-45 -102 -102 -187.5 q-57 -85.5 -129 -153.5 q-7 -7 -17 -11 q-10 -4 -20 -5 q-10 -1 -19 1 q-9 2 -15 8 l-1 2 l-3 0 q-8 7 -12 17.5 ZM82.5 -29 q-3.5 10 -2.5 21 q1 11 5.5 22 q4.5 11 11.5 21 q58 63 103 142.5 q45 79.5 81.5 173.5 q36.5 94 65.5 200.5 q29 106.5 56 224.5 q1 9 7.5 18 q6.5 9 15 16 q8.5 7 18 11 q9.5 4 18.5 4 l9 -1 q9 0 17 -4.5 q8 -4.5 13 -11.5 q5 -7 7.5 -16.5 q2.5 -9.5 0.5 -18.5 q-30 -130 -63 -245 l-12 -42 q7 -1 13 -4 q8 -3 13 -11 q16 -25 31.5 -51.5 q15.5 -26.5 29.5 -53 q14 -26.5 25.5 -52 q11.5 -25.5 20.5 -48.5 q5 -12 -0.5 -29 q-5.5 -17 -15.5 -27 l-3 -2 q-11 -8 -22 -11 q-11 -3 -21.5 -1 q-10.5 2 -19.5 8.5 q-9 6.5 -13 16.5 q-9 21 -19.5 44.5 q-10.5 23.5 -22.5 47.5 l-24 48 l-8 14 q-12 -33 -24 -65 q-40 -102 -89.5 -189 q-49.5 -87 -110.5 -158 q-7 -9 -17 -13.5 q-10 -4.5 -20.5 -6 q-10.5 -1.5 -20.5 0 q-10 1.5 -17 7.5 q-2 1 -2.5 1.5 q-0.5 0.5 -2.5 1.5 q-8 7 -11.5 17 Z" /><glyph glyph-name="uni4ED3" unicode="&#x4ed3;" d="M159 444 q0 10 7.5 27 q7.5 17 34.5 29 q60 27 118 61 q58 34 112 73 q54 39 103.5 83.5 q49.5 44.5 89.5 92.5 q7 6 15.5 11.5 q8.5 5.5 17.5 8.5 q9 3 18 3.5 q9 0.5 16 -2.5 l4 -2 q9 -4 14 -12 q5 -8 6 -18 q1 -10 -2 -20 l-2 -6 q5 -3 8 -7 q59 -84 134 -144.5 q75 -60.5 165 -108.5 q24 -12 25.5 -24.5 q1.5 -12.5 1.5 -15.5 q0 -19 -15 -35 q-6 -7 -15 -12 q-9 -5 -19 -7.5 q-10 -2.5 -19.5 -1.5 q-9.5 1 -17.5 5 q-93 55 -172 123 q-76 66 -140 155 q-23 -23 -47 -45 q-56 -51 -116 -96 q-49 -37 -100 -69 q7 0 13 -4 l4 -2 q4 1 7 3 q9 4 18 4 l402 0 q9 0 17 -4 q8 -4 14 -11 q5 -5 7 -10 q3 -5 3 -11 l0 -10 q-2 -6 -5 -12 q-12 -56 -23 -97 q-11 -46 -21 -78 q-10 -32 -20 -51 q-10 -19 -21 -30 q-18 -18 -38.5 -24.5 q-20.5 -6.5 -44.5 -7.5 q-17 -2 -33.5 -2.5 q-16.5 -0.5 -25.5 -0.5 q-18 0 -37 1 q-17 1 -30.5 12 q-13.5 11 -13.5 26 q0 19 18.5 32.5 q18.5 13.5 47.5 13.5 q7 0 12.5 -0.5 q5.5 -0.5 10 -1 q4.5 -0.5 9.5 -0.5 l13 0 q13 0 21.5 2 q8.5 2 15.5 9 q7 6 14 22 q7 16 15 44.5 q8 28.5 18 70.5 q3 12 6 25 l-345 0 l-54 -306 q-3 -17 -1.5 -28.5 q1.5 -11.5 11 -17.5 q9.5 -6 28 -8.5 q18.5 -2.5 50.5 -2.5 l265 0 q19 0 33 3 q14 3 24.5 11 q10.5 8 19 22 q8.5 14 16.5 36 q9 11 18.5 21 q9.5 10 20 16 q10.5 6 21 8.5 q10.5 2.5 22.5 -2.5 q6 -2 11.5 -8 q5.5 -6 8.5 -14 q3 -8 3.5 -17 q0.5 -9 -2.5 -18 q-15 -45 -30.5 -75 q-15.5 -30 -37.5 -47.5 q-22 -17.5 -55.5 -25 q-33.5 -7.5 -84.5 -7.5 l-275 0 q-57 0 -93.5 7 q-36.5 7 -56 24 q-19.5 17 -22 37 q-2.5 20 -2.5 32 q0 24 5 54 l61 350 q1 5 3 10 q-44 -25 -90 -46 q-9 -4 -18.5 -5 q-9.5 -1 -18 1.5 q-8.5 2.5 -15.5 7.5 q-7 5 -11 11 q-7 11 -7 23 Z" /><glyph glyph-name="uni4ED4" unicode="&#x4ed4;" d="M402 349 q-2 8 -1 17 q1 9 7 17.5 q6 8.5 14.5 15 q8.5 6.5 18 10.5 q9.5 4 18.5 4 l230 0 l16 92 q2 9 7.5 18 q5.5 9 13.5 16 q7 7 16 11 q0 2 2 4 q9 22 32 37 q30 18 59.5 37.5 q29.5 19.5 56.5 40.5 q9 7 19 15 l-341 0 q-9 0 -17.5 4 q-8.5 4 -15 10.5 q-6.5 6.5 -8.5 14.5 q-2 8 -1 16 q1 9 6.5 17 q5.5 8 14 15 q8.5 7 18.5 10.5 q10 3.5 19 3.5 l390 0 q9 0 17 -4 l4 -2 q1 0 1 1 q7 5 14 5 q2 0 4.5 0.5 q2.5 0.5 4.5 0.5 q5 2 14.5 0 q9.5 -2 14.5 -7 l7 -6 q7 -6 10.5 -15 q3.5 -9 3 -19 q-0.5 -10 -5.5 -20 q-5 -10 -13 -17 q-27 -24 -57.5 -48 q-30.5 -24 -62.5 -46.5 q-32 -22.5 -64.5 -43.5 q-32.5 -21 -62.5 -39 l-1 0 q1 -4 0 -9 l-16 -93 l220 0 q10 0 18 -4 q8 -4 14 -10.5 q6 -6.5 8.5 -15 q2.5 -8.5 1.5 -17.5 q-1 -9 -7 -17 q-6 -8 -14.5 -15 q-8.5 -7 -17.5 -11 q-9 -4 -19 -4 l-221 0 l-50 -283 q-8 -43 -23 -65.5 q-15 -22.5 -47 -35.5 q-26 -9 -63.5 -11.5 q-37.5 -2.5 -90.5 -3.5 q-15 -1 -28.5 10.5 q-13.5 11.5 -15.5 25.5 q-1 12 2.5 22.5 q3.5 10.5 12 19 q8.5 8.5 20 13.5 q11.5 5 25.5 5 q29 0 41.5 -0.5 q12.5 -0.5 17.5 -0.5 q12 0 22 1 q14 1 20.5 5 q6.5 4 8.5 16 l50 282 l-230 0 q-9 0 -17.5 4 q-8.5 4 -15 11 q-6.5 7 -8.5 15 ZM142 422 q-2 7 -2 15 q0 8 3.5 22.5 q3.5 14.5 15.5 26.5 q66 62 127.5 143 q61.5 81 111.5 169 q5 9 13 15.5 q8 6.5 17 11 q9 4.5 18.5 6 q9.5 1.5 17.5 -1.5 q9 -3 15 -9.5 q6 -6.5 8.5 -15.5 q2.5 -9 1.5 -19 q-1 -10 -7 -19 q-52 -91 -114 -176 l-110 -625 q-2 -9 -7.5 -18 q-5.5 -9 -13 -16 q-7.5 -7 -17 -11 q-9.5 -4 -18.5 -4 q-9 0 -16 4 q-7 4 -12.5 11 q-5.5 7 -8 16 q-2.5 9 -0.5 18 l84 478 q-16 -17 -32 -33 q-9 -10 -20.5 -14.5 q-11.5 -4.5 -21.5 -3.5 q-10 1 -18.5 7.5 q-8.5 6.5 -12.5 18.5 q-1 1 -1 2 q0 1 -1 2 Z" /><glyph glyph-name="uni4ED6" unicode="&#x4ed6;" d="M388 382 q-6 6 -8 14 q-2 8 0 17.5 q2 9.5 8 18 q6 8.5 14 16 q8 7.5 17 11.5 l82 30 l35 200 q2 10 7.5 18.5 q5.5 8.5 14 16 q8.5 7.5 18 11.5 q9.5 4 17.5 4 q10 0 17.5 -4 q7.5 -4 13.5 -11.5 q6 -7.5 8 -16 q2 -8.5 1 -18.5 l-29 -163 l130 48 l39 217 q1 10 7 19 q6 9 13.5 16 q7.5 7 16.5 11.5 q9 4.5 18 4.5 q9 0 16.5 -4.5 q7.5 -4.5 12.5 -11.5 q5 -7 7 -16 q2 -9 1 -19 l-32 -181 l125 45 q6 2 12 3 l14 11 q8 5 20 7 q12 2 19 -2 l6 -3 q15 -5 24.5 -13.5 q9.5 -8.5 7.5 -13.5 q0 -2 -1 -5 q-1 -3 -1 -5 q-12 -66 -22.5 -122.5 q-10.5 -56.5 -20 -101 q-9.5 -44.5 -16.5 -76.5 q-7 -32 -13 -48 q-11 -36 -29.5 -54.5 q-18.5 -18.5 -43.5 -27.5 q-14 -4 -31 -6 q-17 -2 -34 -3 q-8 -1 -16 2 q-8 3 -14 7.5 q-6 4.5 -9.5 11 q-3.5 6.5 -3.5 16.5 q0 19 9 34.5 q9 15.5 25 15.5 l27 0 q11 0 19.5 5 q8.5 5 14.5 22 q4 9 10.5 35.5 q6.5 26.5 15 69 q8.5 42.5 19.5 101.5 q3 21 8 45 l-139 -51 l-55 -313 q-2 -10 -7.5 -19 q-5.5 -9 -13 -16 q-7.5 -7 -16.5 -11 q-9 -4 -18 -4 q-9 0 -16 4 q-7 4 -12.5 11 q-5.5 7 -8 16 q-2.5 9 -0.5 19 l49 277 l-131 -48 l-60 -338 q-3 -22 -3 -35.5 q0 -13.5 7.5 -21 q7.5 -7.5 23 -10 q15.5 -2.5 40.5 -2.5 l230 0 q16 0 27.5 3 q11.5 3 20.5 10.5 q9 7.5 16 20.5 q7 13 15 33 q16 26 32 38 q16 12 29 12 q7 0 14 -3 q12 -6 16.5 -19 q4.5 -13 4.5 -21 q0 -7 -2 -15 q-13 -41 -27 -69 q-14 -28 -34 -46 q-20 -18 -49 -25.5 q-29 -7.5 -73 -7.5 l-241 0 q-50 0 -82 7.5 q-32 7.5 -48.5 25.5 q-16.5 18 -17.5 36.5 q-1 18.5 -1 24.5 q0 27 6 65 l53 299 l-45 -16 q-8 -3 -18 -2.5 q-10 0.5 -18 4 q-8 3.5 -14 9.5 ZM129 434 q0 9 4 23.5 q4 14.5 17 27.5 q67 62 131 142.5 q64 80.5 115 168.5 q6 8 14 15 q8 7 17 11.5 q9 4.5 18.5 6 q9.5 1.5 17.5 -1.5 q9 -3 14.5 -9.5 q5.5 -6.5 8 -15.5 q2.5 -9 1 -19 q-1.5 -10 -7.5 -19 q-48 -82 -106 -160 l-113 -637 q-1 -10 -6.5 -19 q-5.5 -9 -13 -16 q-7.5 -7 -17.5 -11 q-10 -4 -19 -4 q-9 0 -16.5 4 q-7.5 4 -13.5 11 q-6 7 -8.5 16 q-2.5 9 -0.5 18 l86 491 q-22 -25 -45 -47 q-10 -11 -21 -15.5 q-11 -4.5 -21.5 -3 q-10.5 1.5 -18.5 7.5 q-8 6 -13 17 q-1 1 -1 2 l0 2 q-2 6 -2 14 Z" /><glyph glyph-name="uni4ED8" unicode="&#x4ed8;" d="M510 351 q-3 9 -2 19.5 q1 10.5 5.5 20 q4.5 9.5 12 17.5 q7.5 8 16.5 12 l1 0 q8 4 17 3.5 q9 -0.5 17 -3 q8 -2.5 15 -7.5 q7 -5 9 -13 q10 -19 19.5 -40 q9.5 -21 19 -41.5 q9.5 -20.5 18 -40 q8.5 -19.5 14.5 -36.5 q3 -7 1.5 -16.5 q-1.5 -9.5 -6 -18.5 q-4.5 -9 -11 -16.5 q-6.5 -7.5 -15.5 -11.5 l-3 -2 q-9 -4 -19.5 -4 q-10.5 0 -20 3 q-9.5 3 -16.5 10 q-7 7 -11 16 q-5 16 -12 34.5 q-7 18.5 -15 38 q-8 19.5 -17 39 q-9 19.5 -17 37.5 ZM469 575 l1 3 q1 8 7 17 q6 9 14 16 q8 7 18 10.5 q10 3.5 20 3.5 l343 0 l28 159 q2 9 7.5 18 q5.5 9 14 16 q8.5 7 18 11 q9.5 4 17.5 4 l4 0 q10 0 18 -4 q8 -4 13.5 -11 q5.5 -7 8 -16 q2.5 -9 0.5 -18 l-28 -159 l68 0 q9 0 17.5 -3.5 q8.5 -3.5 15 -10.5 q6.5 -7 9 -16 q2.5 -9 0.5 -17 l0 -3 q-2 -9 -7.5 -18 q-5.5 -9 -14.5 -15.5 q-9 -6.5 -18.5 -10.5 q-9.5 -4 -19.5 -4 l-68 0 l-86 -488 q-8 -50 -26 -74 q-18 -24 -53 -35 q-30 -10 -76 -13 q-46 -3 -114 -3 q-15 0 -27.5 10.5 q-12.5 10.5 -15.5 23.5 q-1 4 -1 9 q0 19 16 35.5 q16 16.5 45 16.5 q40 -1 67.5 -1 q27.5 0 45.5 1 q19 1 27.5 7 q8.5 6 11.5 23 l86 488 l-344 0 q-10 0 -18.5 4 q-8.5 4 -14 10.5 q-5.5 6.5 -8 15.5 q-2.5 9 -1.5 18 ZM147 408 q-2 7 -2 16 q0 9 2 18.5 q2 9.5 7 18 q5 8.5 12 15.5 q70 63 136.5 145.5 q66.5 82.5 119.5 173.5 q6 8 14 14.5 q8 6.5 17.5 11 q9.5 4.5 19 6 q9.5 1.5 16.5 -1.5 l4 -1 q9 -3 15 -9.5 q6 -6.5 8.5 -15.5 q2.5 -9 1 -19.5 q-1.5 -10.5 -7.5 -19.5 q-51 -85 -110 -165 l-111 -628 q-1 -9 -7 -18 q-6 -9 -14 -16 q-8 -7 -17 -11.5 q-9 -4.5 -18 -4.5 l-3 0 q-9 0 -16.5 4.5 q-7.5 4.5 -14 11.5 q-6.5 7 -8.5 16 q-2 9 -1 19 l85 477 q-25 -26 -51 -51 q-10 -10 -21 -14 q-11 -4 -21 -2.5 q-10 1.5 -19 7.5 q-9 6 -13 16 q-1 2 -1 4 q0 2 -2 3 Z" /><glyph glyph-name="uni4EE3" unicode="&#x4ee3;" d="M906 741 q-5 8 -6.5 18.5 q-1.5 10.5 0.5 20.5 q2 10 8 19 q6 9 15 14 q12 7 28.5 4 q16.5 -3 24.5 -12 q24 -23 46.5 -49.5 q22.5 -26.5 38.5 -48.5 q4 -7 4.5 -15.5 q0.5 -8.5 -2.5 -17 q-3 -8.5 -8.5 -16.5 q-5.5 -8 -13.5 -12 q-8 -5 -18.5 -6 q-10.5 -1 -20 2 q-9.5 3 -18 9 q-8.5 6 -13.5 14 q-11 17 -28.5 37.5 q-17.5 20.5 -36.5 38.5 ZM440 457 q1 9 5 18 q4 9 11.5 16.5 q7.5 7.5 17 13 q9.5 5.5 19.5 6.5 l176 22 q10 115 27 245 q2 10 7.5 19 q5.5 9 13.5 16.5 q8 7.5 17.5 12 q9.5 4.5 18.5 4.5 l1 0 q10 0 17.5 -4 q7.5 -4 13.5 -11 q6 -7 9 -16 q3 -9 1 -18 q-18 -125 -28 -235 l252 31 q10 2 19 -0.5 q9 -2.5 15.5 -8.5 q6.5 -6 10.5 -13.5 q4 -7.5 4 -16.5 q0 -9 -5 -17.5 q-5 -8.5 -12.5 -16 q-7.5 -7.5 -16.5 -13 q-9 -5.5 -19 -6.5 l-254 -32 q-3 -55 -3 -104 q0 -49 3 -91 q8 -100 34.5 -159 q26.5 -59 76.5 -65 l1 0 q12 0 25.5 21 q13.5 21 27.5 64 q13 30 27.5 38.5 q14.5 8.5 24.5 8.5 q11 0 22 -7 q7 -6 11 -19.5 q4 -13.5 0 -25.5 q-20 -59 -39.5 -97.5 q-19.5 -38.5 -38 -61 q-18.5 -22.5 -36.5 -30.5 q-18 -8 -35 -8 l-7 0 q-82 7 -127 72 q-45 65 -57.5 156 q-12.5 91 -12.5 175 q0 55 4 116 l0 4 l-174 -22 q-9 -1 -18 1.5 q-9 2.5 -15.5 8 q-6.5 5.5 -10.5 13 q-4 7.5 -4 16.5 ZM126 412 q0 9 5.5 25.5 q5.5 16.5 19.5 28.5 q79 64 154 149 q75 85 135 178 q5 8 13 14.5 q8 6.5 17.5 10.5 q9.5 4 19 5 q9.5 1 16.5 -1 l1 -1 q8 -3 14 -10 q6 -7 8 -16 q2 -9 0.5 -19.5 q-1.5 -10.5 -6.5 -19.5 q-49 -75 -105 -145 l-114 -644 q-1 -10 -6.5 -18.5 q-5.5 -8.5 -14 -16 q-8.5 -7.5 -17.5 -11.5 q-9 -4 -18 -4 l-4 0 q-9 0 -17 4 q-8 4 -14 11.5 q-6 7.5 -8.5 16.5 q-2.5 9 -0.5 18 l88 500 q-43 -44 -88 -83 q-10 -9 -21 -12.5 q-11 -3.5 -21.5 -2 q-10.5 1.5 -18.5 8 q-8 6.5 -12 16.5 q-1 1 -1 2 q0 1 -1 2 q-3 6 -3 14 Z" /><glyph glyph-name="uni4EE4" unicode="&#x4ee4;" d="M537.5 523 q-2.5 10 -0.5 20.5 q2 10.5 7 19.5 q5 9 14 15 q11 8 27 8 q2 0 12 -0.5 q10 -0.5 19 -10.5 q21 -19 40.5 -41 q19.5 -22 33.5 -41 q5 -7 6.5 -16 q1.5 -9 -0.5 -18 q-2 -9 -7.5 -17.5 q-5.5 -8.5 -12.5 -13.5 q-8 -7 -18.5 -9 q-10.5 -2 -21 -1 q-10.5 1 -19 6 q-8.5 5 -14.5 13 q-10 16 -25.5 34.5 q-15.5 18.5 -31.5 33.5 q-6 8 -8.5 18 ZM243 338 q2 9 7.5 17.5 q5.5 8.5 14 15.5 q8.5 7 18 11 q9.5 4 19.5 4 l520 0 q9 0 17 -4 q5 -2 9 -6 q1 1 1 2 q1 4 5.5 6 q4.5 2 10.5 2 q1 0 3.5 0.5 q2.5 0.5 4.5 0.5 q6 2 13.5 0.5 q7.5 -1.5 12.5 -4.5 l8 -6 q9 -5 12.5 -14.5 q3.5 -9.5 3.5 -19.5 q0 -10 -5.5 -21 q-5.5 -11 -14.5 -19 q-33 -28 -69.5 -60 q-36.5 -32 -75.5 -64.5 q-39 -32.5 -77 -65.5 q-27 -22 -52 -44 q2 -2 4 -3 q29 -23 51 -43 q8 -5 11.5 -14 q3.5 -9 3 -19 q-0.5 -10 -4.5 -19.5 q-4 -9.5 -12 -17.5 l-10 -9 q-7 -6 -17 -10 q-10 -4 -19 -4.5 q-9 -0.5 -18.5 1.5 q-9.5 2 -15.5 7 q-20 20 -45 41.5 q-25 21.5 -53 43.5 q-28 22 -57.5 44 q-29.5 22 -57.5 41 q-10 6 -14 15.5 q-4 9.5 -4.5 20 q-0.5 10.5 4.5 21 q5 10.5 15 18.5 l3 3 q10 9 27.5 12 q17.5 3 28.5 -3 q30 -19 61 -41 q23 -15 45 -31 q38 31 77 63 q40 35 79 68 q22 19 43 37 l-469 0 q-9 0 -17.5 4 q-8.5 4 -14.5 11 q-6 7 -9 15.5 q-3 8.5 -1 16.5 ZM170 483 q0 10 7 26.5 q7 16.5 34 28.5 q59 26 119 57.5 q60 31.5 115.5 67.5 q55.5 36 106.5 76 q51 40 94 81 q13 12 26.5 14.5 q13.5 2.5 19.5 2.5 q11 0 18 -4 l3 -2 q9 -5 13.5 -14 q4.5 -9 4 -19 q-0.5 -10 -4.5 -21 q-1 -2 -3 -4 q27 -31 61 -63 q35 -32 75 -61.5 q40 -29.5 83 -56 q43 -26.5 86 -47.5 q25 -12 25 -38 q0 -22 -20 -43 l-1 -1 q-5 -6 -14 -10.5 q-9 -4.5 -18 -7 q-9 -2.5 -18 -2 q-9 0.5 -15 4.5 q-42 23 -86 53 q-44 30 -85.5 64 q-41.5 34 -79.5 72 q-35 34 -64 69 q-23 -20 -47 -39 q-57 -44 -117 -84 q-60 -40 -123 -75 q-63 -35 -127 -64 q-8 -3 -17 -3.5 q-9 -0.5 -18 1.5 q-9 2 -15.5 6.5 q-6.5 4.5 -10.5 10.5 q-7 12 -7 24 Z" /><glyph glyph-name="uni4EE5" unicode="&#x4ee5;" d="M535 654 q-5 9 -5 20 q0 11 4 21 q4 10 11.5 19 q7.5 9 16.5 13 l2 1 q10 4 20 4 q6 0 17.5 -2.5 q11.5 -2.5 18.5 -14.5 q12 -19 23 -40 q11 -21 21.5 -41.5 q10.5 -20.5 19 -40.5 q8.5 -20 15.5 -38 q3 -7 2 -16 q-1 -9 -5 -17.5 q-4 -8.5 -10.5 -16 q-6.5 -7.5 -13.5 -12.5 l-4 -2 q-10 -5 -21 -5.5 q-11 -0.5 -20.5 2.5 q-9.5 3 -16.5 10 q-7 7 -11 16 q-11 32 -28 69.5 q-17 37.5 -36 70.5 ZM400 -31 q0 9 7 26.5 q7 17.5 33 31.5 q101 49 173.5 116 q72.5 67 126 156 q53.5 89 92 202 q38.5 113 70.5 253 q2 9 8.5 18.5 q6.5 9.5 14.5 16 q8 6.5 18 10 q10 3.5 19 3.5 l6 -1 q10 0 17.5 -4.5 q7.5 -4.5 12.5 -12 q5 -7.5 7 -16.5 q2 -9 0 -18 q-38 -158 -83.5 -285 q-45.5 -127 -106.5 -227 l-4 -6 q21 -25 43 -51 q22 -27 43 -54.5 q21 -27.5 39.5 -54 q18.5 -26.5 32.5 -51.5 q4 -7 4.5 -16 q0.5 -9 -2 -18.5 q-2.5 -9.5 -8.5 -17.5 q-6 -8 -14 -14 l-7 -4 q-9 -6 -20 -7.5 q-11 -1.5 -21 0 q-10 1.5 -18 7 q-8 5.5 -13 13.5 q-13 22 -28.5 47.5 q-15.5 25.5 -33.5 51.5 q-18 26 -38 52 q-12 15 -23 29 q-36 -44 -78 -81 q-83 -76 -198 -132 q-8 -4 -17 -5 q-9 -1 -18 1.5 q-9 2.5 -16 6.5 q-7 4 -11 10 q0 1 -1 1 q-8 11 -8 24 ZM137 65 q0 9 8 26 q8 17 24 35 q6 6 11 9.5 q5 3.5 10 9 q5 5.5 8.5 15.5 q3.5 10 6.5 29 l94 534 q2 9 7.5 18 q5.5 9 14 16 q8.5 7 18 11 q9.5 4 18.5 4 l9 0 q9 0 17 -4 q8 -4 13.5 -11.5 q5.5 -7.5 8 -16 q2.5 -8.5 0.5 -18.5 l-93 -529 l167 74 q12 5 23 5.5 q11 0.5 20.5 -3.5 q9.5 -4 16 -12.5 q6.5 -8.5 6.5 -20.5 q0 -12 -11 -29 q-11 -17 -26 -24 q-59 -27 -104 -47.5 q-45 -20.5 -78 -36 q-33 -15.5 -56 -27 q-23 -11.5 -40 -20.5 q-13 -8 -26 -10 l-9 0 q-12 -5 -22 -5 q-11 -1 -19.5 3 q-8.5 4 -12.5 12 q-4 6 -4 13 Z" /><glyph glyph-name="uni4EEA" unicode="&#x4eea;" d="M714 738 q-3 9 -2 19.5 q1 10.5 5 20.5 q4 10 10 17.5 q6 7.5 16 11.5 q8 4 16 4 q7 0 19 -4 q12 -4 18 -18 q16 -30 29.5 -63 q13.5 -33 21.5 -61 q3 -13 -5.5 -30 q-8.5 -17 -22.5 -24 q-10 -5 -20.5 -5 q-10.5 0 -20 4.5 q-9.5 4.5 -16 12 q-6.5 7.5 -9.5 17.5 q-7 23 -17 48.5 q-10 25.5 -22 49.5 ZM317 -39 q0 11 9 28 q9 17 35 28 q125 54 220 128 l38 32 q-14 26 -26 54 q-41 98 -59 217.5 q-18 119.5 -21 259.5 q0 10 4.5 19 q4.5 9 11 17 q6.5 8 15 13.5 q8.5 5.5 17.5 7.5 q9 1 17.5 -2 q8.5 -3 15 -8.5 q6.5 -5.5 10 -14 q3.5 -8.5 4.5 -17.5 q1 -122 18.5 -228.5 q17.5 -106.5 55.5 -195.5 q9 -21 19 -42 q24 26 46 54 q71 91 124.5 198.5 q53.5 107.5 96.5 226.5 q3 9 10 17.5 q7 8.5 16 14 q9 5.5 19 8.5 q10 3 20 1 q9 -1 15 -7 q6 -6 10.5 -14 q4.5 -8 5 -17.5 q0.5 -9.5 -2.5 -18.5 q-50 -133 -110 -250.5 q-60 -117.5 -140 -217.5 q-30 -37 -62 -71 q15 -20 31 -39 q61 -68 150 -114 q24 -14 24 -39 q0 -23 -18 -43 q-12 -11 -26 -15 q-14 -4 -22 -4 q-10 0 -17 4 q-101 51 -168 126 q-20 22 -38 46 l-40 -32 q-106 -81 -245 -140 q-10 -4 -20 -4 q-7 0 -19.5 3 q-12.5 3 -18.5 13 q-5 9 -5 18 ZM129 434 q0 9 4 23.5 q4 14.5 17 27.5 q68 62 132 143 q64 81 116 169 q4 9 12.5 15 q8.5 6 17.5 10.5 q9 4.5 18.5 6 q9.5 1.5 16.5 -1.5 q10 -3 15.5 -9.5 q5.5 -6.5 8 -15.5 q2.5 -9 1.5 -19.5 q-1 -10.5 -6 -19.5 q-50 -83 -109 -163 l-113 -634 q-1 -9 -6.5 -18 q-5.5 -9 -13 -16 q-7.5 -7 -17 -11 q-9.5 -4 -18.5 -4 q-9 0 -15.5 4 q-6.5 4 -13 11 q-6.5 7 -8.5 16 q-2 9 0 18 l86 491 q-23 -26 -48 -49 q-10 -11 -21 -15 q-11 -4 -21 -3 q-10 1 -18.5 7.5 q-8.5 6.5 -12.5 18.5 q-1 1 -1 2 q0 1 -1 2 q-2 6 -2 14 Z" /><glyph glyph-name="uni4EEC" unicode="&#x4eec;" d="M721 -45 q0 19 17 35 q17 16 45 17 l27 0 q10 0 22 1 q12 0 17.5 5 q5.5 5 7.5 17 l122 692 l-208 0 q-9 0 -17.5 3.5 q-8.5 3.5 -14.5 10 q-6 6.5 -8.5 14.5 q-2.5 8 -1.5 16 q1 8 6.5 16 q5.5 8 14 14.5 q8.5 6.5 18 10 q9.5 3.5 18.5 3.5 l257 0 q8 0 15 -3 l1 -1 q8 -3 14.5 -9.5 q6.5 -6.5 9 -14.5 q2.5 -8 1.5 -16 q0 -1 -1 -2 l0 -4 l-129 -732 q-7 -39 -21 -60 q-14 -21 -42 -33 q-21 -9 -51.5 -12 q-30.5 -3 -73.5 -4 q-1 0 -3 0 q-14 0 -28 10.5 q-14 10.5 -14 25.5 ZM554 757 q-4 8 -4 18.5 q0 10.5 3 20.5 q3 10 9 18 q6 8 15 12 q9 5 19 5 q6 0 18 -3.5 q12 -3.5 18 -17.5 q17 -28 31 -59 q14 -31 23 -57 q4 -7 3.5 -16 q-0.5 -9 -4.5 -17.5 q-4 -8.5 -9.5 -16 q-5.5 -7.5 -12.5 -11.5 q-10 -5 -20 -5.5 q-10 -0.5 -19 3 q-9 3.5 -16.5 10.5 q-7.5 7 -11.5 16 q-8 23 -19 49 q-11 26 -23 51 ZM341 -34 l109 617 q1 10 7 19 q6 9 14 16 q8 7 17.5 11 q9.5 4 17.5 4 q10 0 17.5 -4 q7.5 -4 13 -11 q5.5 -7 8 -16 q2.5 -9 0.5 -19 l-109 -617 q-1 -9 -7 -18 q-6 -9 -13.5 -16.5 q-7.5 -7.5 -16.5 -11.5 q-9 -4 -19 -4 q-9 0 -17 4 q-8 4 -13.5 11.5 q-5.5 7.5 -8 16.5 q-2.5 9 -0.5 18 ZM140 414 q-5 11 -1 28 q4 17 14 27 q56 65 109 148.5 q53 83.5 97 174.5 q4 8 12 16 q8 8 17.5 13 q9.5 5 19 7 q9.5 2 17.5 -1 q8 -2 14 -8 q6 -6 8.5 -14.5 q2.5 -8.5 2 -18.5 q-0.5 -10 -5.5 -19 q-42 -87 -93 -170 l-111 -630 q-2 -10 -7.5 -19 q-5.5 -9 -13 -16.5 q-7.5 -7.5 -17 -11.5 q-9.5 -4 -18 -4 q-8.5 0 -16 4 q-7.5 4 -13 11.5 q-5.5 7.5 -8 16 q-2.5 8.5 -0.5 18.5 l80 451 q-7 -8 -13 -15 q-10 -12 -21 -17.5 q-11 -5.5 -21.5 -5 q-10.5 0.5 -18.5 8 q-8 7.5 -12 19.5 q-1 2 -1 4 l0 3 Z" /><glyph glyph-name="uni4EF6" unicode="&#x4ef6;" d="M390 306 q2 9 7.5 17.5 q5.5 8.5 14 15.5 q8.5 7 18 10.5 q9.5 3.5 18.5 3.5 l230 0 l35 197 l-110 0 q-11 0 -20 5 q-3 1 -6 3 q-30 -55 -63 -101 q-5 -10 -14.5 -16 q-9.5 -6 -19 -9 q-9.5 -3 -19 -3 q-9.5 0 -16.5 4 q-15 11 -15 35 q0 20 11 39 q37 49 68 109 q31 60 56 126 q3 9 10.5 17.5 q7.5 8.5 17 14 q9.5 5.5 19 8 q9.5 2.5 18.5 0.5 q8 -2 14.5 -7.5 q6.5 -5.5 10 -14 q3.5 -8.5 3.5 -18 q0 -9.5 -4 -19.5 q-16 -39 -33 -77 l108 0 l25 138 q1 9 7 17.5 q6 8.5 14 15.5 q8 7 17 11 q9 4 18 4 l3 0 q9 0 17 -4 q8 -4 13.5 -11 q5.5 -7 8 -15.5 q2.5 -8.5 0.5 -17.5 l-24 -138 l170 0 q9 0 17 -4 q8 -4 14 -11 q6 -7 9 -15.5 q3 -8.5 1 -17.5 q-2 -9 -7.5 -18 q-5.5 -9 -13.5 -15.5 q-8 -6.5 -17.5 -10.5 q-9.5 -4 -19.5 -4 l-170 0 l-35 -197 l217 0 q9 0 17 -3.5 q8 -3.5 14 -10.5 q6 -7 8.5 -15.5 q2.5 -8.5 0.5 -17.5 q-1 -9 -7 -18 q-6 -9 -14 -15.5 q-8 -6.5 -17.5 -10.5 q-9.5 -4 -18.5 -4 l-217 0 l-51 -294 q-2 -9 -7.5 -17.5 q-5.5 -8.5 -13 -15.5 q-7.5 -7 -17.5 -11 q-10 -4 -19 -4 l-3 0 q-9 0 -16.5 4 q-7.5 4 -13 11 q-5.5 7 -8 15.5 q-2.5 8.5 -1.5 17.5 l52 294 l-230 0 q-8 0 -16.5 4 q-8.5 4 -14.5 10.5 q-6 6.5 -8.5 15.5 q-2.5 9 -1.5 18 ZM140 420 q-2 7 -2 15 q0 8 3.5 22.5 q3.5 14.5 16.5 26.5 q66 62 128 143.5 q62 81.5 113 169.5 q5 9 12.5 15 q7.5 6 17 10.5 q9.5 4.5 19 6 q9.5 1.5 16.5 -1.5 q10 -3 15.5 -9.5 q5.5 -6.5 8 -15.5 q2.5 -9 1.5 -19.5 q-1 -10.5 -7 -19.5 q-49 -85 -108 -166 l-112 -631 q-1 -9 -7 -18 q-6 -9 -13.5 -16 q-7.5 -7 -17 -11 q-9.5 -4 -18 -4 q-8.5 0 -15.5 4 q-7 4 -13 11 q-6 7 -8 16 q-2 9 -1 18 l85 482 l-38 -40 q-10 -11 -21 -15 q-11 -4 -21.5 -3 q-10.5 1 -19 7.5 q-8.5 6.5 -12.5 18.5 q-1 1 -1 2 q0 1 -1 2 Z" /><glyph glyph-name="uni4EF7" unicode="&#x4ef7;" d="M725 -34 l77 433 q2 9 7 18 q5 9 13.5 16 q8.5 7 18 11 q9.5 4 18.5 4 l4 0 q9 0 17 -4 q8 -4 13.5 -11 q5.5 -7 8 -16 q2.5 -9 1.5 -18 l-77 -433 q-2 -9 -7.5 -18 q-5.5 -9 -13.5 -16 q-8 -7 -17 -11 q-9 -4 -18 -4 l-5 0 q-8 0 -16.5 4 q-8.5 4 -14.5 11 q-6 7 -8 16 q-2 9 -1 18 ZM384 452 q0 11 8 28.5 q8 17.5 32 31.5 q53 32 99.5 68 q46.5 36 86 74.5 q39.5 38.5 70.5 78 q31 39.5 56 76.5 q9 14 25.5 23 q16.5 9 29.5 9 q3 0 5 0 l5 -1 q11 -2 18.5 -8.5 q7.5 -6.5 10.5 -15.5 q3 -9 2 -20 q-1 -8 -5 -16 q5 -5 8 -11 q16 -35 37 -69 q21 -34 46 -65.5 q25 -31.5 53.5 -59 q28.5 -27.5 58.5 -49.5 q19 -15 19 -40 q0 -23 -17 -40 q-7 -6 -15.5 -10 q-8.5 -4 -18 -5 q-9.5 -1 -18.5 0.5 q-9 1.5 -15 7.5 q-33 26 -64 58.5 q-31 32.5 -59 70 q-28 37.5 -52 78.5 q-14 24 -25 48 q-6 -6 -11 -13 q-38 -47 -84 -91.5 q-46 -44.5 -99.5 -86 q-53.5 -41.5 -115.5 -78.5 q-15 -8 -30 -8 q-5 0 -17 2 q-12 2 -20 15 q-4 9 -4 18 ZM330 -36 q0 7 4.5 22.5 q4.5 15.5 22.5 35.5 q40 35 67 71.5 q27 36.5 43 73.5 q16 37 25 73 q9 36 16 70 l15 87 q2 10 7.5 18.5 q5.5 8.5 13.5 15.5 q8 7 17.5 11.5 q9.5 4.5 18.5 4.5 l3 0 q9 0 16.5 -4.5 q7.5 -4.5 13.5 -11 q6 -6.5 8 -15.5 q2 -9 1 -18 l-16 -89 q-7 -40 -19.5 -86 q-12.5 -46 -35 -94 q-22.5 -48 -58 -95.5 q-35.5 -47.5 -87.5 -91.5 q-8 -7 -18 -10.5 q-10 -3.5 -19.5 -4 q-9.5 -0.5 -17 3 q-7.5 3.5 -12.5 9.5 q-9 10 -9 24 ZM144 440 q0 8 3.5 21.5 q3.5 13.5 15.5 25.5 q66 62 127.5 143.5 q61.5 81.5 110.5 169.5 q5 9 13.5 15 q8.5 6 17.5 10.5 q9 4.5 18.5 6 q9.5 1.5 16.5 -0.5 q9 -3 15 -10 q6 -7 8.5 -16 q2.5 -9 1.5 -19 q-1 -10 -7 -20 q-49 -85 -107 -165 l-112 -635 q-1 -10 -7 -19 q-6 -9 -14 -16 q-8 -7 -17.5 -11 q-9.5 -4 -19.5 -4 l-1 0 q-9 0 -16.5 4 q-7.5 4 -13.5 11 q-6 7 -8 16 q-2 9 -1 18 l84 478 q-15 -17 -30 -32 q-10 -11 -21 -15 q-11 -4 -21.5 -3 q-10.5 1 -18.5 7.5 q-8 6.5 -12 18.5 q-1 1 -1 2 q0 1 -1 2 q-3 8 -3 17 Z" /><glyph glyph-name="uni4EFB" unicode="&#x4efb;" d="M372 -18 q-3 8 -1 17 q2 9 7.5 17.5 q5.5 8.5 13.5 15 q8 6.5 17.5 10 q9.5 3.5 18.5 3.5 l202 0 q-1 2 -1 4 q-2 9 -1 18 l46 261 l-235 0 q-9 0 -17.5 4 q-8.5 4 -14.5 10.5 q-6 6.5 -8.5 15 q-2.5 8.5 -0.5 17.5 q1 9 6.5 17.5 q5.5 8.5 14 15 q8.5 6.5 18 10.5 q9.5 4 19.5 4 l235 0 l39 225 q2 9 7 18 l1 1 q-34 -5 -69 -10 q-60 -9 -118 -16 q-3 0 -6 0 q-14 0 -28 8 q-14 8 -17 22 q0 3 0 6 q0 15 15 31 q15 16 40 19 q58 9 117.5 18.5 q59.5 9.5 116.5 21 q57 11.5 109 24 q52 12.5 94 25.5 q12 4 27 0 q15 -4 21 -13 l5 -8 q6 -9 7 -20 q1 -11 -3.5 -21 q-4.5 -10 -14 -18 q-9.5 -8 -22.5 -12 q-50 -13 -106 -25 q-42 -9 -85 -17 q5 -7 7 -16 q2 -9 1 -18 l-39 -225 l217 0 q10 0 18 -4 q8 -4 14 -10.5 q6 -6.5 8.5 -15 q2.5 -8.5 1.5 -17.5 q-2 -9 -7.5 -17.5 q-5.5 -8.5 -14 -15 q-8.5 -6.5 -18 -10.5 q-9.5 -4 -19.5 -4 l-217 0 l-46 -261 q-2 -9 -7 -18 q-1 -2 -3 -4 l211 0 q8 0 16.5 -3.5 q8.5 -3.5 14.5 -10 q6 -6.5 9 -15 q3 -8.5 1 -17.5 q-2 -9 -7.5 -17 q-5.5 -8 -13.5 -15 q-8 -7 -18 -11 q-10 -4 -19 -4 l-499 0 q-9 0 -17.5 4 q-8.5 4 -14 11 q-5.5 7 -8.5 15 ZM131 424 q0 9 5 25 q5 16 18 28 q73 63 143 146.5 q70 83.5 127 175.5 q4 8 12 15 q8 7 17.5 11 q9.5 4 19 5.5 q9.5 1.5 16.5 -1.5 l4 -1 q9 -3 14.5 -10 q5.5 -7 8.5 -16 q3 -9 1.5 -19.5 q-1.5 -10.5 -7.5 -18.5 q-51 -83 -110 -160 l-113 -638 q-2 -10 -7.5 -18.5 q-5.5 -8.5 -13.5 -16 q-8 -7.5 -17.5 -11.5 q-9.5 -4 -18.5 -4 q-9 0 -17 4 q-8 4 -13.5 11.5 q-5.5 7.5 -8 16.5 q-2.5 9 -1.5 18 l87 494 q-32 -34 -66 -65 q-10 -10 -21 -14 q-11 -4 -21.5 -3 q-10.5 1 -19 8 q-8.5 7 -13.5 17 q0 1 -0.5 2.5 q-0.5 1.5 -1.5 3.5 q-3 7 -3 15 Z" /><glyph glyph-name="uni4EFD" unicode="&#x4efd;" d="M401 418 q-3 7 -3 17.5 q0 10.5 3.5 20.5 q3.5 10 9.5 20 q6 10 14 17 q63 53 116 123.5 q53 70.5 93 155.5 q9 17 26.5 27 q17.5 10 30.5 10 q5 0 9 -1 q9 -2 15.5 -8 q6.5 -6 10 -15 q3.5 -9 3.5 -19 q0 -10 -6 -19 q-49 -100 -112 -185 q-63 -85 -137 -150 q-9 -9 -20 -12.5 q-11 -3.5 -21 -2.5 q-10 1 -18.5 6.5 q-8.5 5.5 -13.5 14.5 ZM340 -36 q0 9 7 26 q7 17 31 34 q77 52 127 131.5 q50 79.5 81 188.5 q3 8 10 17 q3 4 6 7 l-67 0 q-10 0 -18 4 q-8 4 -14 10.5 q-6 6.5 -9 14.5 q-3 8 -1 17 q1 8 6.5 16.5 q5.5 8.5 14 14.5 q8.5 6 18 10 q9.5 4 19.5 4 l359 0 q10 0 18 -4 q8 -3 14 -9 q-15 21 -28 44 q-20 36 -34.5 77.5 q-14.5 41.5 -23.5 89 q-9 47.5 -14 102.5 q0 10 3.5 19 q3.5 9 10 17.5 q6.5 8.5 14.5 14.5 q8 6 17 7 q4 1 8 1 q13 0 25.5 -11 q12.5 -11 14.5 -28 q5 -46 13.5 -85.5 q8.5 -39.5 21 -73 q12.5 -33.5 30 -63 q17.5 -29.5 40.5 -55.5 q14 -16 14 -38 q0 -24 -17 -40 q-7 -8 -18 -12.5 q-11 -4.5 -21.5 -5.5 q-10.5 -1 -20 2.5 q-9.5 3.5 -16.5 12.5 q-4 6 -9 12 q2 -6 1 -13 l0 -6 q-1 -4 -3 -8 q-24 -109 -42 -185 q-19 -79 -35 -131.5 q-16 -52.5 -29.5 -82.5 q-13.5 -30 -28.5 -44 q-18 -20 -36.5 -28 q-18.5 -8 -41.5 -11 q-13 -1 -26.5 -1.5 q-13.5 -0.5 -20.5 -0.5 q-14 0 -28 1 q-1 0 -3 0 q-15 0 -27.5 10.5 q-12.5 10.5 -13.5 23.5 q0 3 0 5 q0 19 13.5 33.5 q13.5 14.5 37.5 14.5 q6 0 10 -0.5 q4 -0.5 8 -1.5 l18 0 q12 0 20 3 q8 3 17 12 q10 9 21 35 q11 26 25.5 75.5 q14.5 49.5 32.5 124.5 q11 49 25 110 l-168 0 q3 -6 4 -13 q1 -10 -2 -19 q-44 -138 -108 -235.5 q-64 -97.5 -164 -162.5 q-7 -6 -16.5 -7.5 q-9.5 -1.5 -18 -0.5 q-8.5 1 -15.5 4.5 q-7 3.5 -11 8.5 q-7 9 -7 21 ZM140 420 q-2 7 -2 15 q0 8 3.5 22.5 q3.5 14.5 16.5 27.5 q64 62 124.5 143 q60.5 81 109.5 169 q5 9 13 15 q8 6 17 10.5 q9 4.5 18.5 6 q9.5 1.5 16.5 -0.5 q10 -3 15.5 -10 q5.5 -7 8 -16 q2.5 -9 1.5 -19 q-1 -10 -6 -19 q-47 -84 -103 -162 l-112 -636 q-2 -10 -7.5 -19 q-5.5 -9 -14 -16 q-8.5 -7 -17.5 -11 q-9 -4 -19 -4 q-9 0 -16.5 4 q-7.5 4 -13.5 11 q-6 7 -8.5 16 q-2.5 9 -0.5 18 l84 479 q-16 -19 -32 -36 q-10 -11 -21 -15 q-11 -4 -21 -3 q-10 1 -18.5 7.5 q-8.5 6.5 -13.5 18.5 q-1 1 -1 2 q0 1 -1 2 Z" /><glyph glyph-name="uni4EFF" unicode="&#x4eff;" d="M748 774 q-1 9 2 19 q3 10 9.5 19 q6.5 9 15.5 15.5 q9 6.5 18 8.5 l7 2 q4 1 8 1 q12 0 25.5 -8 q13.5 -8 16.5 -24 q3 -15 6 -31.5 q3 -16.5 5 -30.5 q1 -9 -2 -18.5 q-3 -9.5 -9 -18 q-6 -8.5 -14.5 -14.5 q-8.5 -6 -16.5 -9 l-7 -1 q-10 -3 -19.5 -1 q-9.5 2 -17.5 7.5 q-8 5.5 -13 14 q-5 8.5 -7 18.5 q0 11 -2.5 24 q-2.5 13 -4.5 27 ZM321 -30 q0 7 4.5 23 q4.5 16 25.5 35 q60 48 101 109 q41 61 70 131.5 q29 70.5 48.5 148 q19.5 77.5 35.5 156.5 l0 2 l-113 0 q-9 0 -17 4.5 q-8 4.5 -14 11 q-6 6.5 -8.5 15 q-2.5 8.5 -1.5 17.5 q3 10 8.5 18 q5.5 8 13.5 15 q8 7 17.5 11 q9.5 4 18.5 4 l544 0 q9 0 17 -4 q8 -4 14 -11 q6 -7 8.5 -15 q2.5 -8 0.5 -18 q-1 -9 -7 -17.5 q-6 -8.5 -14 -15 q-8 -6.5 -17.5 -11 q-9.5 -4.5 -18.5 -4.5 l-327 0 q0 -2 -1 -5 q-14 -64 -29 -126 l4 2 q9 4 19 4 l247 0 q10 0 18 -4 q8 -4 15 -11 l2 -2 q3 -3 5 -7 q3 -5 3 -10 q1 -6 0 -11 q-2 -7 -5 -13 q-22 -102 -40 -175 q-20 -77 -35.5 -128.5 q-15.5 -51.5 -29.5 -80.5 q-14 -29 -28 -43 q-22 -20 -42 -28 q-20 -8 -47 -10 q-16 -3 -41 -3 q-25 0 -53 1 q-17 0 -30.5 11 q-13.5 11 -13.5 27 q0 20 17.5 35 q17.5 15 47.5 15 q8 -1 12.5 -1 q4.5 0 8.5 -0.5 q4 -0.5 9 -0.5 l13 0 q13 0 21.5 2 q8.5 2 16.5 10 q1 0 3 2 l1 1 q12 11 23 36.5 q11 25.5 25 73.5 q14 48 31 120 q11 45 23 102 l-193 0 q-9 0 -18 4 q-5 3 -10 7 q-22 -78 -54 -148 q-35 -80 -85.5 -150 q-50.5 -70 -122.5 -124 q-9 -7 -19 -10 q-10 -3 -19.5 -3 q-9.5 0 -17.5 3 q-8 3 -12 9 q-8 10 -8 24 ZM139 439 q0 9 4 23.5 q4 14.5 16 26.5 q66 62 127 143 q61 81 112 169 q4 8 12 15 q8 7 18 11 q10 4 19.5 5.5 q9.5 1.5 18.5 -1.5 q9 -3 14.5 -10 q5.5 -7 8 -15.5 q2.5 -8.5 1.5 -19 q-1 -10.5 -7 -19.5 q-50 -87 -110 -170 l-111 -630 q-2 -10 -7.5 -19 q-5.5 -9 -13.5 -16 q-8 -7 -17.5 -11 q-9.5 -4 -18 -4 q-8.5 0 -16.5 4 q-8 4 -13.5 11 q-5.5 7 -8 16 q-2.5 9 -1.5 18 l85 480 q-16 -18 -33 -36 q-11 -10 -22 -14 q-11 -4 -21 -3 q-10 1 -18.5 7.5 q-8.5 6.5 -12.5 16.5 q-1 2 -1.5 4 q-0.5 2 -1.5 3 q-2 7 -2 15 Z" /><glyph glyph-name="uni4F01" unicode="&#x4f01;" d="M164 475 q0 10 7.5 26.5 q7.5 16.5 33.5 28.5 q60 25 118 57 q58 32 113 69 q55 37 104 78.5 q49 41.5 90 85.5 q13 13 27 16.5 q14 3.5 21 3.5 q10 0 18 -4 q8 -4 12.5 -12.5 q4.5 -8.5 5.5 -18.5 q1 -10 -4 -21 q0 -2 -1 -4 q9 -4 15 -10 q61 -84 137 -141.5 q76 -57.5 160 -99.5 q24 -11 26.5 -24 q2.5 -13 2.5 -17 q0 -18 -14 -34 q-5 -6 -13.5 -10.5 q-8.5 -4.5 -18 -7 q-9.5 -2.5 -19 -2 q-9.5 0.5 -16.5 3.5 q-88 48 -168 111.5 q-80 63.5 -149 160.5 q-3 2 -4 5 q-26 -24 -53 -47 q-54 -46 -114 -88 q-60 -42 -123 -77.5 q-63 -35.5 -128 -64.5 q-8 -3 -17 -3.5 q-9 -0.5 -17.5 1.5 q-8.5 2 -15 6.5 q-6.5 4.5 -10.5 10.5 q-6 11 -6 22 ZM95 -12 q1 9 7 16.5 q6 7.5 14 14 q8 6.5 17.5 10 q9.5 3.5 18.5 3.5 l69 0 q0 3 1 6 l53 304 q2 10 7.5 19 q5.5 9 14 16.5 q8.5 7.5 18 11.5 q9.5 4 18 4 q8.5 0 16.5 -4 q8 -4 13.5 -11.5 q5.5 -7.5 8 -16.5 q2.5 -9 0.5 -19 l-53 -304 l-2 -6 l166 0 l85 482 q1 10 6.5 18.5 q5.5 8.5 14 16 q8.5 7.5 18 11.5 q9.5 4 18.5 4 l6 0 q9 0 17 -4 q8 -4 14 -11.5 q6 -7.5 8 -16 q2 -8.5 1 -18.5 l-30 -169 l230 0 q9 0 17.5 -3.5 q8.5 -3.5 14.5 -10 q6 -6.5 8.5 -14 q2.5 -7.5 1.5 -15.5 q-2 -9 -7.5 -17 q-5.5 -8 -13.5 -14 q-8 -6 -18 -10 q-10 -4 -18 -4 l-230 0 l-40 -225 l322 0 q9 0 17.5 -3.5 q8.5 -3.5 14.5 -10 q6 -6.5 8.5 -14 q2.5 -7.5 1.5 -16.5 q-2 -8 -7.5 -16 q-5.5 -8 -14 -14.5 q-8.5 -6.5 -17.5 -10.5 q-9 -4 -19 -4 l-754 0 q-9 0 -17.5 4 q-8.5 4 -14.5 10.5 q-6 6.5 -9 14.5 q-3 8 -1 16 Z" /><glyph glyph-name="uni4F0F" unicode="&#x4f0f;" d="M906 732 q-4 9 -4.5 19 q-0.5 10 3 19.5 q3.5 9.5 9.5 18 q6 8.5 16 12.5 q6 3 14.5 3.5 q8.5 0.5 16.5 -1.5 q8 -2 14 -7 q6 -5 9 -11 q16 -24 30.5 -50.5 q14.5 -26.5 23.5 -48.5 q4 -6 3.5 -15 q-0.5 -9 -4 -17.5 q-3.5 -8.5 -9.5 -15.5 q-6 -7 -13 -11 q-9 -5 -19.5 -6 q-10.5 -1 -19.5 3 q-9 4 -16.5 10.5 q-7.5 6.5 -11.5 16.5 q-8 18 -19.5 39.5 q-11.5 21.5 -22.5 41.5 ZM346 -27 q0 4 2.5 18.5 q2.5 14.5 21.5 31.5 q87 69 143 141.5 q56 72.5 92 146 q36 73.5 56 146.5 q0 2 1 4 l-196 0 q-9 0 -17 4.5 q-8 4.5 -14 11.5 q-6 7 -9 15.5 q-3 8.5 0 17.5 q1 9 6.5 17.5 q5.5 8.5 14 15.5 q8.5 7 18 11 q9.5 4 18.5 4 l201 0 q5 21 8 42 l34 193 q2 9 7.5 18 q5.5 9 14 16.5 q8.5 7.5 17.5 11.5 q9 4 18 4 l3 0 q9 0 17 -4 q8 -4 13.5 -11.5 q5.5 -7.5 8 -16 q2.5 -8.5 0.5 -18.5 l-34 -194 q-4 -20 -8 -41 l237 0 q10 0 17.5 -4 q7.5 -4 13.5 -11 q6 -7 8.5 -15.5 q2.5 -8.5 1.5 -17.5 q-2 -9 -7.5 -17.5 q-5.5 -8.5 -14 -15.5 q-8.5 -7 -18 -11.5 q-9.5 -4.5 -18.5 -4.5 l-223 0 q4 -65 15 -125 q11 -63 31 -117 q20 -54 49 -99 q29 -45 67 -78 q15 -16 15 -37 q0 -27 -20 -47 q-7 -7 -17 -11.5 q-10 -4.5 -20 -5.5 q-10 -1 -19.5 1.5 q-9.5 2.5 -16.5 9.5 q-42 40 -73 91.5 q-31 51.5 -52 114.5 q-21 63 -33 135 q-1 4 -1 8 l-14 -30 q-41 -85 -105 -167.5 q-64 -82.5 -159 -155.5 q-7 -7 -17 -10 q-10 -3 -19.5 -3.5 q-9.5 -0.5 -18 2 q-8.5 2.5 -13.5 7.5 q-13 11 -13 29 ZM139 420 q-3 6 -3 14 q0 8 4.5 22.5 q4.5 14.5 16.5 26.5 q68 63 132.5 145 q64.5 82 117.5 172 q5 8 13 14.5 q8 6.5 17.5 11 q9.5 4.5 19 6 q9.5 1.5 17.5 -0.5 q9 -3 15 -10 q6 -7 8.5 -16 q2.5 -9 1.5 -19 q-1 -10 -6 -19 q-49 -82 -106 -160 l-113 -640 q-1 -10 -7 -19 q-6 -9 -14.5 -16.5 q-8.5 -7.5 -17.5 -11.5 q-9 -4 -19 -4 l-1 0 q-9 0 -16.5 4 q-7.5 4 -13.5 11.5 q-6 7.5 -8.5 16 q-2.5 8.5 -0.5 18.5 l86 487 q-23 -25 -47 -48 q-10 -11 -21 -15 q-11 -4 -21.5 -3 q-10.5 1 -18.5 7.5 q-8 6.5 -13 17.5 q-1 2 -1 4 q0 2 -1 4 Z" /><glyph glyph-name="uni4F11" unicode="&#x4f11;" d="M345 72 q-6 8 -7.5 18 q-1.5 10 1.5 21 q3 11 9 22 q6 11 15 19 q41 33 81 75 q40 42 77.5 89 q37.5 47 72.5 98 q29 43 54 87 l-177 0 q-9 0 -17.5 4 q-8.5 4 -14 10.5 q-5.5 6.5 -8.5 15.5 q-3 9 -1 17 q2 9 7.5 17.5 q5.5 8.5 13.5 15.5 q8 7 18 11 q10 4 18 4 l220 0 l33 184 q1 9 7 18 q6 9 14 16 q8 7 17.5 11.5 q9.5 4.5 18.5 4.5 q10 0 17.5 -4.5 q7.5 -4.5 13 -11.5 q5.5 -7 8 -16 q2.5 -9 0.5 -18 l-32 -184 l227 0 q9 0 17.5 -4 q8.5 -4 14 -11 q5.5 -7 8.5 -15.5 q3 -8.5 2 -17.5 q-3 -8 -8.5 -17 q-5.5 -9 -13.5 -15.5 q-8 -6.5 -17.5 -10.5 q-9.5 -4 -18.5 -4 l-180 0 q9 -42 23 -83 q16 -51 36 -97.5 q20 -46.5 44.5 -87.5 q24.5 -41 50.5 -74 q10 -14 10 -31 q0 -4 -2 -18.5 q-2 -14.5 -18 -28.5 q-9 -7 -19.5 -11 q-10.5 -4 -20.5 -4 q-10 0 -19 4.5 q-9 4.5 -14 13.5 q-28 38 -52 85.5 q-24 47.5 -43.5 100.5 q-19.5 53 -35.5 110 l-6 20 l-77 -435 q-1 -10 -6.5 -18.5 q-5.5 -8.5 -14 -16 q-8.5 -7.5 -17.5 -11.5 q-9 -4 -19 -4 q-8 0 -16 4 q-8 4 -14 11.5 q-6 7.5 -8 16 q-2 8.5 -1 18.5 l73 412 l-4 -6 q-38 -58 -78.5 -111.5 q-40.5 -53.5 -83.5 -101 q-43 -47.5 -87 -85.5 q-8 -8 -18.5 -11.5 q-10.5 -3.5 -20 -3.5 q-9.5 0 -18.5 3.5 q-9 3.5 -14 10.5 ZM128 424 q0 9 5 24.5 q5 15.5 19 27.5 q74 62 143.5 145 q69.5 83 126.5 175 q10 16 27 23.5 q17 7.5 29 7.5 q6 0 11 -2 l5 -1 q8 -3 14 -10 q6 -7 8.5 -16 q2.5 -9 0.5 -19.5 q-2 -10.5 -8 -19.5 q-52 -85 -114 -164 l-111 -628 q-1 -9 -7 -18 q-6 -9 -14 -16 q-8 -7 -17 -11.5 q-9 -4.5 -19 -4.5 q-8 0 -16 4.5 q-8 4.5 -14.5 11.5 q-6.5 7 -8.5 16 q-2 9 -1 19 l86 487 q-32 -33 -66 -63 q-9 -10 -20 -13.5 q-11 -3.5 -21.5 -2 q-10.5 1.5 -19 7.5 q-8.5 6 -12.5 17 q0 2 -0.5 3.5 q-0.5 1.5 -2.5 4.5 q-3 7 -3 15 Z" /><glyph glyph-name="uni4F17" unicode="&#x4f17;" d="M448 -29 q0 5 2.5 19.5 q2.5 14.5 24.5 34.5 q85 70 141.5 171.5 q56.5 101.5 95.5 231.5 q4 10 10.5 18 q6.5 8 15 14.5 q8.5 6.5 18.5 10 q10 3.5 18 2.5 l2 0 q9 -1 16.5 -6.5 q7.5 -5.5 12 -13 q4.5 -7.5 5.5 -17 q1 -9.5 -2 -18.5 q-16 -51 -34 -97 q4 -3 6 -6 q6 -8 10 -18 q6 -33 16 -67 q10 -34 26 -66 q16 -32 37.5 -60.5 q21.5 -28.5 50.5 -51.5 q18 -18 18 -45 q0 -23 -17 -41 q-6 -7 -15 -11.5 q-9 -4.5 -18.5 -6 q-9.5 -1.5 -18.5 0 q-9 1.5 -15 7.5 q-35 31 -61.5 69 q-26.5 38 -44.5 80 q-18 42 -30 85 q0 2 -1 3 q-12 -25 -26 -48 q-35 -59 -76 -108 q-41 -49 -90 -90 q-7 -6 -15.5 -9 q-8.5 -3 -18 -4 q-9.5 -1 -17.5 1 q-8 2 -13 7 q-13 11 -13 29 ZM181 462 q0 11 7.5 28.5 q7.5 17.5 34.5 29.5 q122 46 226 120 q104 74 178 173 q12 14 28 20.5 q16 6.5 26 6.5 q7 0 14 -3 l5 -3 q8 -4 13 -11.5 q5 -7.5 7 -16.5 q2 -9 0 -19.5 q-2 -10.5 -9 -18.5 q-2 -2 -3 -4 q6 -5 10 -11 q21 -37 50.5 -71 q29.5 -34 66.5 -64 q37 -30 79.5 -55 q42.5 -25 88.5 -43 q25 -10 27.5 -23.5 q2.5 -13.5 2.5 -17.5 q0 -19 -17 -38 q-11 -12 -25.5 -16 q-14.5 -4 -23.5 -4 q-8 0 -14 2 q-51 21 -97 51 q-46 30 -86.5 66 q-40.5 36 -72.5 79 q-28 35 -50 73 q-65 -70 -142 -127 q-117 -87 -255 -144 q-9 -4 -18.5 -4.5 q-9.5 -0.5 -18 2.5 q-8.5 3 -15.5 8.5 q-7 5.5 -11 11.5 q-6 11 -6 23 ZM96 -35 q-3 10 -1.5 21.5 q1.5 11.5 7.5 23 q6 11.5 16 21.5 q82 72 138 173 q56 101 96 229 q3 9 10 17.5 q7 8.5 15.5 14.5 q8.5 6 18 9.5 q9.5 3.5 18.5 3.5 l1 0 q9 -1 16 -6.5 q7 -5.5 12 -13 q5 -7.5 6 -17 q1 -9.5 -1 -19.5 q-19 -57 -39 -109 q10 -2 16 -9 q16 -14 31 -29.5 q15 -15.5 29 -31.5 q14 -16 27 -31 q13 -15 24 -29 q5 -5 6 -13 q1 -8 -1.5 -17 q-2.5 -9 -6 -17 q-3.5 -8 -9.5 -13 q-9 -8 -20 -11.5 q-11 -3.5 -21.5 -3 q-10.5 0.5 -20 5.5 q-9.5 5 -15.5 14 q-9 12 -19.5 25 q-10.5 13 -22 27 q-11.5 14 -23.5 27 q-7 8 -15 15 q-17 -35 -35 -67 q-66 -117 -160 -199 q-6 -7 -15.5 -10.5 q-9.5 -3.5 -18.5 -4.5 q-9 -1 -18 1 q-9 2 -14 7 q-8 6 -11 16 Z" /><glyph glyph-name="uni4F18" unicode="&#x4f18;" d="M886 731 q-6 9 -7.5 19 q-1.5 10 0 19.5 q1.5 9.5 7 18.5 q5.5 9 13.5 14 q12 7 29.5 5 q17.5 -2 26.5 -14 q17 -20 33.5 -41.5 q16.5 -21.5 29.5 -39.5 q6 -9 6 -20 q0 -6 -3.5 -19.5 q-3.5 -13.5 -18.5 -23.5 q-7 -5 -17 -6.5 q-10 -1.5 -19.5 1 q-9.5 2.5 -18 8 q-8.5 5.5 -13.5 13.5 q-9 15 -22 32.5 q-13 17.5 -26 33.5 ZM657 11 q0 24 6 58 l59 331 q1 10 6.5 18.5 q5.5 8.5 14 15.5 q8.5 7 17.5 11.5 q9 4.5 18 4.5 q10 0 17.5 -4.5 q7.5 -4.5 13 -11.5 q5.5 -7 8 -15.5 q2.5 -8.5 0.5 -18.5 l-58 -331 q-2 -13 -2 -21 q0 -8 3 -13 q3 -5 23 -5 l83 0 q8 0 13.5 3 q5.5 3 11 11 q5.5 8 10 22.5 q4.5 14.5 9.5 37.5 q9 30 25 42 q16 12 28 12 q8 0 16 -3 q11 -5 16.5 -20 q5.5 -15 1.5 -29 q-12 -48 -24 -80 q-12 -32 -27.5 -51 q-15.5 -19 -36 -26.5 q-20.5 -7.5 -50.5 -7.5 l-106 0 q-33 0 -54 6 q-21 6 -31.5 21 q-10.5 15 -10.5 43 ZM314 -23 q0 8 5 24 q5 16 26 34 q80 62 133 145.5 q53 83.5 88 180.5 q28 76 48 158 l-160 0 q-9 0 -17.5 4 q-8.5 4 -14.5 10.5 q-6 6.5 -8.5 15 q-2.5 8.5 -0.5 17.5 q1 9 7 17 q6 8 14 14.5 q8 6.5 18 10 q10 3.5 18 3.5 l165 0 q17 85 32 171 q3 10 8.5 18.5 q5.5 8.5 13.5 15.5 q8 7 17.5 11.5 q9.5 4.5 19 4.5 q9.5 0 17 -4.5 q7.5 -4.5 13.5 -11.5 q6 -7 8.5 -16 q2.5 -9 0.5 -19 q-16 -85 -34 -170 l300 0 q10 0 18 -3.5 q8 -3.5 14 -10 q6 -6.5 8.5 -14.5 q2.5 -8 1.5 -17 q-1 -9 -7 -17.5 q-6 -8.5 -14.5 -15 q-8.5 -6.5 -17.5 -10.5 q-9 -4 -19 -4 l-304 0 q-26 -108 -65 -206 q-42 -109 -104 -201.5 q-62 -92.5 -153 -162.5 q-8 -6 -18 -8.5 q-10 -2.5 -19.5 -2 q-9.5 0.5 -17 4 q-7.5 3.5 -12.5 10.5 q-8 11 -8 24 ZM145 421 q-3 7 -3 15 q0 8 4 22.5 q4 14.5 16 26.5 q66 62 127.5 143 q61.5 81 111.5 169 q5 8 13 15 q8 7 17 11.5 q9 4.5 19 6 q10 1.5 17 -1.5 q9 -3 15 -9.5 q6 -6.5 8.5 -15.5 q2.5 -9 1.5 -19 q-1 -10 -7 -19 q-52 -91 -114 -176 l-110 -624 q-2 -9 -7.5 -18 q-5.5 -9 -13 -16 q-7.5 -7 -17 -11 q-9.5 -4 -18.5 -4 q-9 0 -16 4 q-7 4 -12.5 11 q-5.5 7 -8 16 q-2.5 9 -1.5 18 l84 476 l-30 -32 q-10 -10 -21.5 -14.5 q-11.5 -4.5 -21.5 -3.5 q-10 1 -18.5 7.5 q-8.5 6.5 -12.5 18.5 q-1 1 -1 2 q0 1 -1 2 Z" /><glyph glyph-name="uni4F19" unicode="&#x4f19;" d="M870.5 381.5 q-2.5 8.5 -2 18.5 q0.5 10 4.5 20 q13 21 26 44 q13 23 26 47.5 q13 24.5 25 48.5 q12 24 22 47 q4 10 11.5 18.5 q7.5 8.5 17.5 14.5 q10 6 20 8 q10 2 20 -1 l5 -1 q10 -2 16 -8.5 q6 -6.5 9 -15.5 q3 -9 3 -19 q0 -10 -4 -19 q-28 -52 -58 -104 q-30 -52 -57 -95 q-3 -8 -11.5 -14 q-8.5 -6 -17 -10.5 q-8.5 -4.5 -17 -5 q-8.5 -0.5 -16.5 1.5 q-8 2 -14 9 q-6 7 -8.5 15.5 ZM433 374.5 q-2 9.5 -1 20.5 q1 11 5 19 q24 41 44.5 91.5 q20.5 50.5 35.5 100.5 q4 9 10.5 18 q6.5 9 15.5 15.5 q9 6.5 19 9.5 q10 3 19 2 q8 -1 14.5 -6 q6.5 -5 11 -12.5 q4.5 -7.5 6 -16 q1.5 -8.5 -0.5 -16.5 q-17 -57 -39.5 -116.5 q-22.5 -59.5 -49.5 -108.5 q-4 -8 -12 -15 q-8 -7 -17.5 -11.5 q-9.5 -4.5 -19 -5 q-9.5 -0.5 -16.5 2.5 l-4 1 q-9 3 -14 10.5 q-5 7.5 -7 17 ZM340 -27 q0 10 7 26.5 q7 16.5 32 31.5 q96 51 156 122.5 q60 71.5 98 164.5 q38 93 62 209 q24 116 49 257 q2 10 7 18.5 q5 8.5 14 16 q9 7.5 18.5 11.5 q9.5 4 17.5 4 l9 0 q9 0 16.5 -4 q7.5 -4 13 -11.5 q5.5 -7.5 8.5 -16.5 q3 -9 1 -18 q-28 -155 -57 -285 q-7 -31 -15 -60 q3 -7 3 -16 q0 -8 0 -16 q0 -59 7 -113.5 q7 -54.5 25.5 -103 q18.5 -48.5 49.5 -86 q31 -37.5 77 -63.5 q20 -15 21.5 -28.5 q1.5 -13.5 1.5 -16.5 q0 -21 -17 -40 q-6 -7 -14.5 -11.5 q-8.5 -4.5 -17.5 -7 q-9 -2.5 -18.5 -2 q-9.5 0.5 -16.5 5.5 q-56 31 -93.5 76.5 q-37.5 45.5 -58.5 104.5 q-18 48 -27 105 q-42 -83 -102 -150 q-72 -81 -186 -138 q-9 -6 -18.5 -7 q-9.5 -1 -18.5 1 q-9 2 -16 6.5 q-7 4.5 -11 10.5 q-7 11 -7 23 ZM139 439 q0 9 4.5 24 q4.5 15 18.5 27 q66 61 129.5 142 q63.5 81 115.5 169 q5 8 13 14.5 q8 6.5 17 11 q9 4.5 19 5.5 q10 1 18 -2 l1 0 q9 -3 14.5 -10 q5.5 -7 8 -16 q2.5 -9 1.5 -19.5 q-1 -10.5 -8 -18.5 q-46 -78 -100 -152 l-114 -647 q-1 -10 -7 -19 q-6 -9 -13.5 -16 q-7.5 -7 -17 -11 q-9.5 -4 -18.5 -4 l-6 0 q-9 0 -17 4 q-8 4 -13.5 11 q-5.5 7 -8 16 q-2.5 9 -0.5 18 l86 489 q-22 -24 -44 -45 q-10 -10 -21.5 -14.5 q-11.5 -4.5 -22 -3 q-10.5 1.5 -18.5 8 q-8 6.5 -12 17.5 q-1 2 -1.5 4 q-0.5 2 -1.5 3 q-2 6 -2 14 Z" /><glyph glyph-name="uni4F1A" unicode="&#x4f1a;" d="M177 485 q0 11 7.5 28.5 q7.5 17.5 34.5 29.5 q125 54 234.5 124.5 q109.5 70.5 186.5 150.5 q11 11 24.5 14 q13.5 3 20.5 3 q10 0 17 -4 l1 -1 q9 -4 14.5 -12.5 q5.5 -8.5 6 -19 q0.5 -10.5 -3.5 -20.5 q-3 -6 -6 -11 q22 -27 52 -54 q33 -31 73 -60 q40 -29 85 -55.5 q45 -26.5 93 -48.5 q24 -10 25.5 -23 q1.5 -13 1.5 -15 q0 -20 -18 -39 q-11 -12 -26 -16 q-15 -4 -22 -4 q-8 0 -15 3 q-49 24 -97 55.5 q-48 31.5 -89.5 65.5 q-41.5 34 -77.5 69 q-30 29 -52 57 q-69 -62 -150 -116 q-38 -25 -77 -48 q5 1 11 1 l372 0 q10 0 18 -3.5 q8 -3.5 14 -10.5 q6 -7 9 -15 q3 -8 2 -16 q-2 -9 -7.5 -17 q-5.5 -8 -14 -14.5 q-8.5 -6.5 -18 -10 q-9.5 -3.5 -19.5 -3.5 l-372 0 q-10 0 -18 3.5 q-8 3.5 -14.5 10 q-6.5 6.5 -9 14.5 q-2.5 8 -0.5 17 q1 8 6 16 l6 8 q-68 -38 -141 -71 q-8 -4 -17.5 -4.5 q-9.5 -0.5 -18 2 q-8.5 2.5 -15 7.5 q-6.5 5 -10.5 10 q-6 11 -6 23 ZM160 -12 q-1 9 2 19.5 q3 10.5 10.5 20.5 q7.5 10 16.5 19 q9 9 19 17 l3 1 l1 1 q1 1 6.5 5 q5.5 4 19.5 15 q13 9 35.5 28.5 q22.5 19.5 50.5 45.5 q28 26 60 58 q16 16 32 33 l-214 0 q-9 0 -17.5 4 q-8.5 4 -14 10.5 q-5.5 6.5 -8.5 15.5 q-3 9 -1 17 q1 9 6.5 17.5 q5.5 8.5 14 15.5 q8.5 7 18.5 11 q10 4 19 4 l731 0 q9 0 17 -4 q8 -4 14 -11 q6 -7 8.5 -15.5 q2.5 -8.5 1.5 -17.5 q-2 -8 -7.5 -17 q-5.5 -9 -14 -15.5 q-8.5 -6.5 -18 -10.5 q-9.5 -4 -18.5 -4 l-396 0 q-1 -6 -3 -12 q-5 -10 -13 -17 q-65 -65 -134 -125 q-26 -22 -52 -43 l408 27 q-5 7 -11 14 q-16 24 -33 44 q-7 10 -8.5 21 q-1.5 11 1.5 21.5 q3 10.5 11 19.5 q8 9 19 14 q11 6 26.5 3.5 q15.5 -2.5 23.5 -10.5 q20 -23 40 -48 q20 -25 38.5 -51 q18.5 -26 34.5 -51.5 q16 -25.5 28 -47.5 q4 -8 4 -17 q0 -9 -4 -18.5 q-4 -9.5 -10.5 -17.5 q-6.5 -8 -15.5 -13 l-3 -1 q-9 -6 -19 -6.5 q-10 -0.5 -20 2 q-10 2.5 -17.5 8 q-7.5 5.5 -11.5 13.5 q-9 19 -21 39 q-8 -4 -17 -4 q-132 -10 -224 -17.5 q-92 -7.5 -156 -13 q-64 -5.5 -102 -9 q-38 -3.5 -63 -6.5 q-12 -2 -23.5 0.5 q-11.5 2.5 -19.5 8.5 q-4 2 -7 5 l0 1 q-9 2 -15.5 8 q-6.5 6 -7.5 16 Z" /><glyph glyph-name="uni4F1F" unicode="&#x4f1f;" d="M381 298 q2 8 7.5 16 q5.5 8 14 14.5 q8.5 6.5 17.5 10.5 q9 4 18 4 l215 0 l17 98 l-158 0 q-9 0 -17 4 q-8 4 -14.5 10.5 q-6.5 6.5 -9.5 14.5 q-3 8 -1 16 q2 9 7.5 17 q5.5 8 13.5 15 q8 7 18 10.5 q10 3.5 19 3.5 l158 0 l17 93 l-183 0 q-9 0 -17.5 4 q-8.5 4 -15 10.5 q-6.5 6.5 -8.5 14.5 q-2 8 -1 16 q1 9 6.5 17 q5.5 8 14.5 14.5 q9 6.5 18.5 10.5 q9.5 4 18.5 4 l183 0 l14 79 q2 10 7.5 18.5 q5.5 8.5 13.5 16 q8 7.5 17 11.5 q9 4 18 4 q9 0 16.5 -4 q7.5 -4 13 -11.5 q5.5 -7.5 8 -16 q2.5 -8.5 -0.5 -18.5 l-14 -79 l216 0 q10 0 18 -4 q8 -4 14 -10.5 q6 -6.5 8.5 -14.5 q2.5 -8 1.5 -17 q-2 -8 -7.5 -16 q-5.5 -8 -13.5 -14.5 q-8 -6.5 -18 -10.5 q-10 -4 -19 -4 l-215 0 l-17 -93 l182 0 q10 0 18 -3.5 q8 -3.5 14 -10.5 q6 -7 9 -15 q3 -8 1 -17 q-2 -8 -7.5 -16 q-5.5 -8 -13.5 -14.5 q-8 -6.5 -17.5 -10.5 q-9.5 -4 -18.5 -4 l-183 0 l-17 -98 l239 0 q8 0 16 -3 q8 -3 14 -7 q6 -4 9.5 -10.5 q3.5 -6.5 2.5 -12.5 l-1 -1 q1 -5 0 -11 q-1 -8 -6 -15 q-13 -54 -24 -94 q-14 -49 -25.5 -81.5 q-11.5 -32.5 -21.5 -52.5 q-10 -20 -21 -30 q-15 -14 -29 -20.5 q-14 -6.5 -32 -8.5 q-7 -2 -19 -2 l-25 0 q-8 -1 -15.5 1.5 q-7.5 2.5 -13.5 7.5 q-6 5 -9.5 10.5 q-3.5 5.5 -4.5 11.5 q0 21 8 36 q8 15 24 15 q8 -1 12 -1 l13 0 q8 0 14.5 2 q6.5 2 13.5 8 q7 7 14 22.5 q7 15.5 16.5 44.5 q9.5 29 21.5 72 q4 13 7 28 l-194 0 l-51 -286 q-1 -10 -6.5 -18.5 q-5.5 -8.5 -13.5 -16 q-8 -7.5 -17 -11.5 q-9 -4 -18 -4 q-9 0 -16.5 4 q-7.5 4 -13 11.5 q-5.5 7.5 -8 16 q-2.5 8.5 -1.5 18.5 l51 286 l-215 0 q-9 0 -17 4 q-8 4 -14 10.5 q-6 6.5 -8.5 14.5 q-2.5 8 -1.5 17 ZM144 434 q0 9 4 23.5 q4 14.5 16 26.5 q65 62 126.5 143 q61.5 81 111.5 169 q6 8 14 15 q8 7 17 11.5 q9 4.5 18 6 q9 1.5 17 -1.5 q10 -3 15.5 -9.5 q5.5 -6.5 8 -15.5 q2.5 -9 1.5 -19 q-1 -10 -7 -19 q-48 -85 -106 -165 l-112 -634 q-1 -10 -6.5 -19 q-5.5 -9 -13.5 -16 q-8 -7 -17.5 -11 q-9.5 -4 -18 -4 q-8.5 0 -15.5 4 q-7 4 -13 11.5 q-6 7.5 -8.5 16 q-2.5 8.5 -0.5 18.5 l85 484 q-19 -21 -38 -41 q-10 -10 -21 -14.5 q-11 -4.5 -21 -3.5 q-10 1 -18.5 7.5 q-8.5 6.5 -12.5 18.5 q-2 1 -2 2 q0 1 -1 2 q-2 6 -2 14 Z" /><glyph glyph-name="uni4F20" unicode="&#x4f20;" d="M410 469.5 q-6 6.5 -9 14.5 q-3 8 0 16 q1 9 6.5 17 q5.5 8 13.5 15 q8 7 17.5 10.5 q9.5 3.5 18.5 3.5 l145 0 q2 3 3 6 l42 92 l-114 0 q-9 0 -17.5 4 q-8.5 4 -14.5 10.5 q-6 6.5 -9 14.5 q-3 8 -1 16 q2 8 7.5 16 q5.5 8 13.5 15 q8 7 17.5 10.5 q9.5 3.5 19.5 3.5 l137 0 q13 30 25 59 q4 8 10.5 15.5 q6.5 7.5 15.5 12.5 q9 5 18 8.5 q9 3.5 17 1.5 q10 -1 17 -7 q7 -6 11 -14.5 q4 -8.5 4.5 -18.5 q0.5 -10 -4.5 -20 q-7 -18 -15 -37 l224 0 q10 0 18 -3.5 q8 -3.5 14.5 -10.5 q6.5 -7 9 -15 q2.5 -8 0.5 -16 q-1 -8 -6.5 -16 q-5.5 -8 -14 -14.5 q-8.5 -6.5 -18 -10.5 q-9.5 -4 -18.5 -4 l-249 0 q-21 -50 -43 -98 l324 0 q8 0 16.5 -3.5 q8.5 -3.5 14.5 -10.5 q6 -7 9 -15 q3 -8 1 -17 q-2 -8 -7.5 -16 q-5.5 -8 -13 -14.5 q-7.5 -6.5 -17.5 -10.5 q-10 -4 -19 -4 l-350 0 q-12 -28 -24 -54 q-12 -25 -23 -48 l270 0 q8 0 17 -4 q1 1 3 2 q4 2 9 2 q2 0 4 0.5 q2 0.5 4 0.5 q5 2 13 0 q8 -2 13 -5 l4 -3 q9 -6 12.5 -15 q3.5 -9 2.5 -19.5 q-1 -10.5 -5 -20.5 q-4 -10 -13 -18 q-28 -27 -58.5 -55 q-30.5 -28 -62 -57 q-31.5 -29 -63.5 -58 l-36 -32 q10 -8 19 -16 q21 -18 37 -35 q6 -6 9 -15 q3 -9 1.5 -19 q-1.5 -10 -6 -19.5 q-4.5 -9.5 -13.5 -16.5 q-7 -7 -17.5 -10.5 q-10.5 -3.5 -20.5 -4 q-10 -0.5 -19 2.5 q-9 3 -15 10 q-15 15 -32.5 33 q-17.5 18 -37.5 35.5 q-20 17.5 -41 35.5 q-21 18 -43 33 q-9 7 -13 16.5 q-4 9.5 -3 20.5 q1 11 6.5 20.5 q5.5 9.5 14.5 17.5 q10 7 26 8 q16 1 26 -4 q24 -16 49 -35 l8 -6 q27 24 55 50 q34 31 66 60 q16 15 30 29 l-218 0 q-8 0 -17 4 q-7 3 -12 8 l-2 -2 q-16 -10 -30 -10 l-5 0 q-12 0 -21 5 q-9 5 -13 14 q-4 9 -4.5 20.5 q-0.5 11.5 5.5 22.5 q25 50 53 108 q5 11 11 23 l-119 0 q-9 0 -17 4 q-8 4 -14 10.5 ZM127 433 q0 9 4.5 24 q4.5 15 16.5 28 q69 62 133 143 q64 81 115 169 q5 9 13 15 q8 6 17.5 10.5 q9.5 4.5 19 6 q9.5 1.5 16.5 -1.5 q9 -3 15 -9.5 q6 -6.5 8.5 -15.5 q2.5 -9 1.5 -19.5 q-1 -10.5 -7 -19.5 q-50 -85 -110 -165 l-112 -631 q-1 -10 -7 -19 q-6 -9 -13.5 -16 q-7.5 -7 -17 -11 q-9.5 -4 -18 -4 q-8.5 0 -16.5 4 q-8 4 -14 11 q-6 7 -8 16 q-2 9 -1 18 l87 487 q-22 -24 -45 -45 q-10 -11 -21 -15 q-11 -4 -21 -3 q-10 1 -18.5 7.5 q-8.5 6.5 -12.5 18.5 q-1 1 -1 2 q0 1 -2 2 q-2 6 -2 13 Z" /><glyph glyph-name="uni4F24" unicode="&#x4f24;" d="M437.5 513 q-2.5 10 -0.5 20.5 q2 10.5 7.5 22 q5.5 11.5 14.5 21.5 q46 44 87 100.5 q41 56.5 76 119.5 q4 8 11.5 15.5 q7.5 7.5 16.5 12.5 q9 5 19 7 q10 2 18 0 q8 -2 15 -8 q7 -6 10 -15 q3 -9 2.5 -19 q-0.5 -10 -5.5 -19 q-19 -36 -41 -71 l357 0 q10 0 18 -3.5 q8 -3.5 14 -10 q6 -6.5 9 -14.5 q3 -8 1 -17 q-2 -9 -7.5 -17.5 q-5.5 -8.5 -13.5 -15 q-8 -6.5 -17.5 -10.5 q-9.5 -4 -19.5 -4 l-383 0 q-9 0 -17 4 q-1 0 -2 1 q-44 -59 -91 -106 q-7 -7 -16.5 -11.5 q-9.5 -4.5 -19 -5.5 q-9.5 -1 -18.5 0.5 q-9 1.5 -14 6.5 q-8 6 -10.5 16 ZM339 -37 q0 9 7.5 25.5 q7.5 16.5 31.5 33.5 q68 41 114.5 96 q46.5 55 78.5 120 q24 49 41 102 l-139 0 q-9 0 -17 4 q-8 4 -14.5 10.5 q-6.5 6.5 -9 14.5 q-2.5 8 -0.5 17 q1 8 6.5 16 q5.5 8 14 14.5 q8.5 6.5 18.5 10 q10 3.5 19 3.5 l148 0 q12 45 22 91 q2 9 7.5 17.5 q5.5 8.5 14 15.5 q8.5 7 17.5 11 q9 4 18 4 q10 0 18.5 -4.5 q8.5 -4.5 13.5 -11.5 q5 -7 7.5 -16.5 q2.5 -9.5 0.5 -18.5 q-10 -45 -22 -88 l227 0 q9 0 17 -3 q4 -2 7 -4 q3 -2 5 -4 q7 -5 10.5 -11.5 q3.5 -6.5 1.5 -13.5 q1 -4 0 -8 q-1 -5 -3 -10 q-20 -97 -36 -167 q-16 -73 -30 -121.5 q-14 -48.5 -26.5 -76.5 q-12.5 -28 -25.5 -41 q-19 -20 -38 -27.5 q-19 -7.5 -45 -10.5 q-18 -1 -35 -1.5 q-17 -0.5 -26 -0.5 q-18 0 -37 1 q-1 0 -3 0 q-15 0 -28.5 11 q-13.5 11 -13.5 27 q0 19 17 33.5 q17 14.5 45 14.5 q2 0 3 0 q9 0 15 -0.5 q6 -0.5 11 -0.5 l23 0 q14 0 23 2 q9 2 17 10 q9 9 19.5 33 q10.5 24 22.5 69.5 q12 45.5 27 115.5 q9 42 20 94 l-190 0 q-25 -81 -64 -154 q-39 -75 -96.5 -138 q-57.5 -63 -140.5 -111 q-8 -5 -17.5 -7 q-9.5 -2 -18.5 -1 q-9 1 -15.5 4.5 q-6.5 3.5 -10.5 9.5 q-7 9 -7 20 ZM132 422 q-2 6 -2 14 q0 8 4 22.5 q4 14.5 16 26.5 q69 62 133 143.5 q64 81.5 116 170.5 q4 8 12.5 14.5 q8.5 6.5 17.5 10.5 q9 4 18.5 5.5 q9.5 1.5 16.5 -1.5 q9 -2 15 -9 q6 -7 8.5 -16 q2.5 -9 1.5 -19 q-1 -10 -6 -19 q-52 -88 -114 -171 l-111 -628 q-2 -9 -7.5 -18 q-5.5 -9 -13 -16 q-7.5 -7 -17 -11 q-9.5 -4 -18 -4 q-8.5 0 -15.5 4 q-7 4 -13 11 q-6 7 -8.5 16 q-2.5 9 -0.5 18 l86 486 q-22 -22 -43 -44 q-10 -10 -21 -14.5 q-11 -4.5 -21.5 -3 q-10.5 1.5 -19 8 q-8.5 6.5 -12.5 18.5 q-1 1 -1 2 q0 1 -1 3 Z" /><glyph glyph-name="uni4F2A" unicode="&#x4f2a;" d="M694 305 q-4 9 -3.5 19 q0.5 10 4.5 20 q4 10 11 18 q7 8 16 13 q9 4 18 4 q6 0 18.5 -3 q12.5 -3 19.5 -16 q16 -23 31.5 -49.5 q15.5 -26.5 25.5 -49.5 q2 -7 1.5 -16 q-0.5 -9 -4.5 -17.5 q-4 -8.5 -10.5 -15.5 q-6.5 -7 -13.5 -11 l-1 0 q-10 -5 -21 -6 q-11 -1 -20.5 2.5 q-9.5 3.5 -17 10 q-7.5 6.5 -10.5 16.5 q-8 18 -19.5 39.5 q-11.5 21.5 -24.5 41.5 ZM509 703 q-4 9 -3 19.5 q1 10.5 5.5 20 q4.5 9.5 12 18 q7.5 8.5 17.5 12.5 q13 5 30 0.5 q17 -4.5 23 -16.5 q11 -15 20.5 -31.5 q9.5 -16.5 15.5 -31.5 q4 -7 3 -16 q-1 -9 -5 -18 q-4 -9 -11 -16 q-7 -7 -16 -11 q-9 -4 -19.5 -4 q-10.5 0 -19.5 3.5 q-9 3.5 -16 10.5 q-7 7 -10 16 q-5 9 -12 21 q-7 12 -15 23 ZM312 -25 q0 6 4 22 q4 16 25 34 q61 47 108.5 104.5 q47.5 57.5 83.5 121 q36 63.5 62 131.5 q20 53 36 107 l-153 0 q-10 0 -18.5 4 q-8.5 4 -14 10.5 q-5.5 6.5 -8.5 15.5 q-3 9 -2 18 q2 9 8 17.5 q6 8.5 14 15.5 q8 7 18 11 q10 4 20 4 l162 0 q8 34 15 67 q14 66 25 126 q1 9 7.5 18 q6.5 9 14 15.5 q7.5 6.5 17 11 q9.5 4.5 17.5 4.5 l5 0 q9 0 17 -4.5 q8 -4.5 13.5 -12 q5.5 -7.5 8 -16.5 q2.5 -9 0.5 -18 q-12 -66 -29 -140 q-5 -25 -12 -51 l251 0 q10 0 18 -4 q8 -4 14 -11 q3 -4 5 -7 l2 -4 q1 -2 2 -5 q3 -8 1 -17 q-1 -6 -4 -12 q-28 -138 -50 -235 q-23 -100 -42 -166 q-19 -66 -34.5 -102.5 q-15.5 -36.5 -32.5 -53.5 q-21 -23 -41.5 -32.5 q-20.5 -9.5 -47.5 -12.5 q-18 -3 -44 -3 q-26 0 -57 1 q-15 0 -29 12 q-14 12 -14 29 q0 21 16 36.5 q16 15.5 43 15.5 q2 0 3 0 q8 -1 15 -1 l36 0 q14 0 23 2.5 q9 2.5 19 12.5 q12 11 26.5 44.5 q14.5 33.5 31 96.5 q16.5 63 38.5 161 q15 69 34 159 l-208 0 l0 -1 q-22 -75 -53 -149.5 q-31 -74.5 -71.5 -145 q-40.5 -70.5 -94 -133 q-53.5 -62.5 -121.5 -114.5 q-8 -7 -18 -10.5 q-10 -3.5 -19.5 -3.5 q-9.5 0 -18 3 q-8.5 3 -12.5 9 q-10 10 -10 25 ZM134 439 q0 8 4 23 q4 15 17 27 q68 62 131.5 142 q63.5 80 114.5 166 q5 9 13 15.5 q8 6.5 17.5 10.5 q9.5 4 19 5.5 q9.5 1.5 17.5 -0.5 q9 -3 15 -10 q6 -7 8.5 -16 q2.5 -9 2 -19.5 q-0.5 -10.5 -6.5 -19.5 q-50 -82 -107 -159 l-113 -637 q-1 -9 -7 -18 q-6 -9 -13.5 -16 q-7.5 -7 -16.5 -11.5 q-9 -4.5 -18 -4.5 q-9 0 -16.5 4.5 q-7.5 4.5 -13.5 11.5 q-6 7 -8 16 q-2 9 -1 18 l87 494 q-24 -26 -48 -49 q-10 -10 -21 -14 q-11 -4 -21.5 -3 q-10.5 1 -19 7.5 q-8.5 6.5 -12.5 18.5 l-1 1 l0 2 q-3 6 -3 15 Z" /><glyph glyph-name="uni4F30" unicode="&#x4f30;" d="M504 51 l331 0 l36 200 q0 2 -1.5 4 q-1.5 2 -4.5 2 l-318 0 q-3 0 -5 -2 q-2 -2 -3 -4 l-35 -200 ZM392 -35 l59 335 q2 9 7.5 18 q5.5 9 13.5 16 q8 7 17.5 11 q9.5 4 18.5 4 l163 0 l33 190 l-212 0 q-10 0 -18 4 q-8 4 -14.5 11 q-6.5 7 -9 15 q-2.5 8 -0.5 17 q1 9 7 17.5 q6 8.5 14 15 q8 6.5 17.5 10.5 q9.5 4 19.5 4 l212 0 l29 163 q2 9 7.5 18 q5.5 9 13.5 16 q8 7 17.5 11 q9.5 4 17.5 4 l6 0 q9 0 17 -4 q8 -4 13.5 -11 q5.5 -7 8 -16 q2.5 -9 0.5 -18 l-29 -163 l226 0 q9 0 17.5 -4 q8.5 -4 14.5 -10.5 q6 -6.5 8.5 -15 q2.5 -8.5 1.5 -17.5 q-2 -9 -8 -17 q-6 -8 -14 -15 q-8 -7 -17.5 -11 q-9.5 -4 -18.5 -4 l-226 0 l-33 -190 l168 0 q9 0 17 -4 q8 -4 13.5 -11 q5.5 -7 8 -16.5 q2.5 -9.5 1.5 -18.5 l-58 -329 q-2 -10 -7.5 -19 q-5.5 -9 -14 -16 q-8.5 -7 -17.5 -11.5 q-9 -4.5 -18 -4.5 l-5 0 q-8 0 -16 4.5 q-8 4.5 -14 11.5 q-6 7 -8 16 q-1 3 -2 7 l-333 0 q-2 -6 -6 -11 q-5 -9 -13.5 -16 q-8.5 -7 -17.5 -11.5 q-9 -4.5 -19 -4.5 q-9 0 -17 4.5 q-8 4.5 -13.5 11 q-5.5 6.5 -8 16 q-2.5 9.5 -0.5 18.5 ZM129 434 q0 9 4 23.5 q4 14.5 17 27.5 q68 62 132 143 q64 81 116 169 q4 9 12.5 15 q8.5 6 17.5 10.5 q9 4.5 18.5 6 q9.5 1.5 16.5 -1.5 q10 -3 15.5 -9.5 q5.5 -6.5 8 -15.5 q2.5 -9 1.5 -19.5 q-1 -10.5 -6 -19.5 q-52 -86 -113 -168 l-111 -629 q-2 -9 -7.5 -18 q-5.5 -9 -13 -16 q-7.5 -7 -17 -11 q-9.5 -4 -18 -4 q-8.5 0 -15.5 4 q-7 4 -13 11 q-6 7 -8.5 16 q-2.5 9 -0.5 18 l86 487 q-22 -24 -45 -45 q-10 -11 -21 -15 q-11 -4 -21 -3 q-10 1 -18.5 7.5 q-8.5 6.5 -12.5 18.5 q-1 1 -1 2 q0 1 -1 2 q-2 6 -2 14 Z" /><glyph glyph-name="uni4F34" unicode="&#x4f34;" d="M892.5 576 q-4.5 7 -6 16 q-1.5 9 0 19.5 q1.5 10.5 6.5 19.5 q20 27 40 58.5 q20 31.5 36 60.5 q6 9 14 17 q8 8 18 13 q10 5 20.5 6.5 q10.5 1.5 19.5 -2.5 q8 -2 13.5 -10 q5.5 -8 7.5 -17.5 q2 -9.5 0.5 -20 q-1.5 -10.5 -8.5 -19.5 q-21 -33 -44.5 -66.5 q-23.5 -33.5 -45.5 -62.5 q-9 -14 -24 -20 q-15 -6 -23 -6 q-7 0 -12 3 q-8 4 -12.5 11 ZM522 714 q-3 9 -0.5 19.5 q2.5 10.5 7.5 19.5 q5 9 12.5 16.5 q7.5 7.5 16.5 11.5 q6 2 12 2 q9 0 22 -6.5 q13 -6.5 17 -21.5 q12 -32 21.5 -67 q9.5 -35 13.5 -64 q1 -3 1 -6 q0 -12 -10.5 -27.5 q-10.5 -15.5 -24.5 -20.5 q-11 -4 -21.5 -2.5 q-10.5 1.5 -19 6.5 q-8.5 5 -14 13.5 q-5.5 8.5 -6.5 19.5 q-5 24 -12 52.5 q-7 28.5 -15 54.5 ZM370 235 q2 9 7.5 17 q5.5 8 13.5 14.5 q8 6.5 18 10.5 q10 4 19 4 l227 0 l27 155 l-186 0 q-9 0 -17.5 4 q-8.5 4 -14 10.5 q-5.5 6.5 -8.5 14.5 q-3 8 -1 16 q1 9 6.5 17 q5.5 8 13.5 14.5 q8 6.5 18 10.5 q10 4 19 4 l186 0 l46 257 q1 9 6.5 17.5 q5.5 8.5 13.5 15.5 q8 7 17.5 11 q9.5 4 18.5 4 l3 0 q9 0 16.5 -4 q7.5 -4 13.5 -11 q6 -7 8 -15.5 q2 -8.5 1 -17.5 l-45 -257 l192 0 q19 0 31 -12.5 q12 -12.5 12 -26.5 q0 -3 -1 -7 q-2 -8 -7.5 -16 q-5.5 -8 -13.5 -14.5 q-8 -6.5 -17.5 -10.5 q-9.5 -4 -18.5 -4 l-193 0 l-28 -155 l234 0 q10 0 18 -4 q8 -4 14 -10.5 q6 -6.5 9 -14.5 q3 -8 0 -17 q-1 -8 -6.5 -16 q-5.5 -8 -13.5 -14.5 q-8 -6.5 -17.5 -10.5 q-9.5 -4 -19.5 -4 l-234 0 l-40 -226 q-2 -9 -7 -18 q-5 -9 -13.5 -15.5 q-8.5 -6.5 -17.5 -11 q-9 -4.5 -18 -4.5 l-3 0 q-9 0 -17 4.5 q-8 4.5 -13.5 11 q-5.5 6.5 -8 15.5 q-2.5 9 -0.5 18 l40 226 l-227 0 q-9 0 -17 4 q-8 4 -14.5 10.5 q-6.5 6.5 -9.5 14.5 q-3 8 -1 16 ZM130 435 q0 9 4.5 24.5 q4.5 15.5 17.5 28.5 q70 62 136.5 142.5 q66.5 80.5 119.5 168.5 q5 8 13.5 14.5 q8.5 6.5 17.5 10.5 q9 4 18 5.5 q9 1.5 17 -1.5 q9 -2 14.5 -9 q5.5 -7 8.5 -16 q3 -9 1.5 -19.5 q-1.5 -10.5 -7.5 -18.5 q-48 -78 -104 -152 l-114 -646 q-2 -9 -7.5 -18 q-5.5 -9 -13 -16 q-7.5 -7 -17 -11 q-9.5 -4 -18 -4 q-8.5 0 -16 4 q-7.5 4 -13 11.5 q-5.5 7.5 -8 16 q-2.5 8.5 -1.5 18.5 l89 504 q-30 -33 -61 -62 q-10 -10 -21 -14 q-11 -4 -21.5 -2.5 q-10.5 1.5 -19 8 q-8.5 6.5 -12.5 17.5 l0 2 l-1 0 q-2 6 -2 14 Z" /><glyph glyph-name="uni4F38" unicode="&#x4f38;" d="M784 484 l171 0 l19 107 q1 3 -1 5 q-2 2 -4 2 l-165 0 l-20 -114 ZM749 283 l170 0 l21 116 q-3 -1 -6 -1 l-165 0 l-20 -115 ZM521 479 q2 1 3 1 q10 4 19 4 l145 0 l20 114 l-160 0 q-2 0 -4 -2 q-2 -2 -3 -5 l-20 -112 ZM485 276 q4 2 7 3 q10 4 19 4 l142 0 l20 115 l-145 0 q-9 0 -17 4 q-2 1 -3 1 l-23 -127 ZM379 193 l78 443 q2 10 8 19 q6 9 14.5 16 q8.5 7 18 11.5 q9.5 4.5 18.5 4.5 l208 0 l18 104 q2 9 7.5 18 q5.5 9 14 16 q8.5 7 18 11 q9.5 4 18 4 q8.5 0 17 -4 q8.5 -4 13.5 -11 q5 -7 7.5 -16 q2.5 -9 0.5 -18 l-18 -104 l216 0 q10 0 18.5 -4.5 q8.5 -4.5 14 -11 q5.5 -6.5 8.5 -16 q3 -9.5 1 -17.5 l-77 -438 q-1 -9 -7 -18 q-6 -9 -13.5 -16 q-7.5 -7 -17 -11 q-9.5 -4 -18.5 -4 q-9 0 -17 4 q-8 4 -14 11 q-6 7 -8 17 q-2 5 -2 11 l-171 0 l-40 -229 q-2 -9 -7.5 -17.5 q-5.5 -8.5 -13 -16 q-7.5 -7.5 -17 -11.5 q-9.5 -4 -18.5 -4 q-9 0 -17 4 q-8 4 -14 11.5 q-6 7.5 -8 16 q-2 8.5 -1 17.5 l40 229 l-142 0 q-9 0 -18 4 q-2 1 -5 2 l-1 -8 q-2 -9 -7.5 -18 q-5.5 -9 -13 -16 q-7.5 -7 -16.5 -11.5 q-9 -4.5 -17.5 -4.5 q-8.5 0 -16 4.5 q-7.5 4.5 -13 11.5 q-5.5 7 -7.5 16 q-2 9 -1 19 ZM125 434 q0 9 4.5 23.5 q4.5 14.5 16.5 27.5 q68 62 132 143 q64 81 116 169 q5 9 13 15 q8 6 17 10.5 q9 4.5 18.5 6 q9.5 1.5 17.5 -1.5 q9 -3 14.5 -9.5 q5.5 -6.5 8 -15.5 q2.5 -9 2 -19.5 q-0.5 -10.5 -6.5 -19.5 q-50 -83 -108 -162 l-112 -635 q-2 -9 -7.5 -18 q-5.5 -9 -13 -16 q-7.5 -7 -17 -11 q-9.5 -4 -18 -4 q-8.5 0 -15.5 4 q-7 4 -13 11 q-6 7 -8.5 16 q-2.5 9 -0.5 18 l87 492 q-25 -26 -49 -50 q-10 -11 -21 -15 q-11 -4 -21.5 -3 q-10.5 1 -18.5 7.5 q-8 6.5 -13 18.5 q-1 1 -1 2 q0 1 -1 2 q-2 7 -2 14 Z" /><glyph glyph-name="uni4F3C" unicode="&#x4f3c;" d="M645 675 q-1 9 0.5 19 q1.5 10 6.5 19 q5 9 12 16 q7 7 16 10 q8 3 16 1.5 q8 -1.5 15.5 -5 q7.5 -3.5 13 -10 q5.5 -6.5 7.5 -14.5 q9 -28 17.5 -58.5 q8.5 -30.5 15.5 -61 q7 -30.5 13.5 -68.5 q6.5 -38 6.5 -49 q0 -13 -10.5 -29 q-10.5 -16 -25.5 -21 q-11 -4 -20.5 -3 q-9.5 1 -17.5 6.5 q-8 5.5 -14 14.5 q-6 9 -7 20 q-2 23 -7 49.5 q-5 26.5 -10 54 q-5 27.5 -12 55 q-7 27.5 -16 54.5 ZM571 -20 q0 6 3.5 21.5 q3.5 15.5 23.5 33.5 q71 58 122.5 132.5 q51.5 74.5 90.5 166.5 q39 92 69 201 q30 109 57 235 q1 9 7.5 18 q6.5 9 14.5 15.5 q8 6.5 17.5 10.5 q9.5 4 18.5 4 q9 0 17 -4.5 q8 -4.5 13.5 -11.5 q5.5 -7 7.5 -16.5 q2 -9.5 0 -18.5 q-30 -139 -64 -258 q-30 -105 -68 -196 q12 -7 16 -20 q11 -33 21.5 -68.5 q10.5 -35.5 20 -70 q9.5 -34.5 17 -67.5 q7.5 -33 11.5 -61 q1 -3 1 -6 q0 -11 -9.5 -27 q-9.5 -16 -24.5 -22 l-1 -1 q-11 -5 -22 -4.5 q-11 0.5 -20 5 q-9 4.5 -15.5 13 q-6.5 8.5 -7.5 18.5 q-5 27 -11.5 58 q-6.5 31 -14.5 64 q-8 33 -17 65 q0 3 -1 5 q-26 -46 -55 -88 q-58 -83 -134 -149 q-8 -7 -18.5 -11 q-10.5 -4 -21 -4.5 q-10.5 -0.5 -19.5 3 q-9 3.5 -15 9.5 q-10 11 -10 26 ZM367 49 q-3 6 -2 16 q1 10 4.5 20 q3.5 10 8 20.5 q4.5 10.5 9.5 19.5 q4 5 6.5 7 q2.5 2 4.5 6 q2 4 4.5 12.5 q2.5 8.5 4.5 24.5 l98 552 q2 9 7 18 q5 9 13.5 16 q8.5 7 17.5 11.5 q9 4.5 18 4.5 q9 0 17 -4.5 q8 -4.5 13 -11.5 q5 -7 8 -16 q3 -9 0 -18 l-96 -546 l120 70 q11 7 22.5 9 q11.5 2 21 -0.5 q9.5 -2.5 15.5 -9 q6 -6.5 9 -16.5 q3 -12 -7 -29.5 q-10 -17.5 -25 -26.5 q-42 -26 -74 -46 l-56 -35 q-24 -15 -41.5 -26.5 q-17.5 -11.5 -30.5 -20.5 q-14 -9 -27 -11 q-2 -1 -4 -1 q-3 -2 -6 -3 q-11 -5 -21 -5 q-10 0 -19 4.5 q-9 4.5 -13 14.5 ZM124 415 q-4 11 1 28 q5 17 15 28 q61 64 120 148 q59 84 106 175 q6 9 13.5 16.5 q7.5 7.5 16 12 q8.5 4.5 18.5 6.5 q10 2 17 -1 q9 -2 14.5 -8.5 q5.5 -6.5 8.5 -15 q3 -8.5 2 -18.5 q-1 -10 -5 -19 q-41 -76 -87 -148 l-116 -653 q-2 -10 -7.5 -19 q-5.5 -9 -13 -16 q-7.5 -7 -17 -11 q-9.5 -4 -18 -4 q-8.5 0 -15.5 4 q-7 4 -13 11 q-6 7 -8.5 16 q-2.5 9 -0.5 19 l85 483 q-20 -25 -42 -49 q-9 -11 -20 -16 q-11 -5 -21.5 -4.5 q-10.5 0.5 -18.5 7.5 q-8 7 -11 19 q-1 2 -1.5 4.5 q-0.5 2.5 -1.5 4.5 Z" /><glyph glyph-name="uni4F46" unicode="&#x4f46;" d="M604 520 q-1 -2 1 -4 q2 -2 4 -2 l281 0 q3 0 5 2 q2 2 3 4 l27 160 q1 2 -0.5 4 q-1.5 2 -4.5 2 l-281 0 q-2 0 -4.5 -2 q-2.5 -2 -3.5 -4 l-27 -160 ZM556 254 q0 -2 1.5 -4 q1.5 -2 4.5 -2 l280 0 q3 0 5.5 2 q2.5 2 2.5 4 l29 164 q0 2 -1.5 4 q-1.5 2 -3.5 2 l-281 0 q-3 0 -5.5 -2 q-2.5 -2 -2.5 -4 l-29 -164 ZM447 207 l91 520 q3 9 8.5 18.5 q5.5 9.5 14 16.5 q8.5 7 18 11 q9.5 4 18.5 4 l402 0 q9 0 17 -4 q8 -4 14 -11 q6 -7 8.5 -16.5 q2.5 -9.5 0.5 -18.5 l-92 -520 q-1 -9 -7 -18 q-6 -9 -14 -16.5 q-8 -7.5 -17.5 -11.5 q-9.5 -4 -19.5 -4 l-401 0 q-9 0 -17 4 q-8 4 -14.5 11.5 q-6.5 7.5 -9 16.5 q-2.5 9 -0.5 18 ZM333 -2 q1 9 6.5 17 q5.5 8 13.5 14.5 q8 6.5 17.5 10.5 q9.5 4 18.5 4 l559 0 q9 0 17.5 -4 q8.5 -4 14.5 -10.5 q6 -6.5 8.5 -14.5 q2.5 -8 1.5 -17 q-2 -8 -7.5 -16.5 q-5.5 -8.5 -13.5 -15 q-8 -6.5 -18 -10.5 q-10 -4 -18 -4 l-559 0 q-9 0 -17.5 4 q-8.5 4 -14.5 10.5 q-6 6.5 -8.5 15 q-2.5 8.5 -0.5 16.5 ZM135 433 q0 9 4.5 24.5 q4.5 15.5 17.5 28.5 q68 61 133 142 q65 81 118 169 q5 9 13 15 q8 6 17.5 10.5 q9.5 4.5 19 5.5 q9.5 1 17.5 -1 l1 0 q9 -3 15 -10 q6 -7 8.5 -16.5 q2.5 -9.5 1.5 -19.5 q-1 -10 -8 -19 q-49 -84 -109 -163 l-112 -632 q-1 -10 -7 -19 q-6 -9 -14 -16 q-8 -7 -17.5 -11 q-9.5 -4 -18.5 -4 q-9 0 -16.5 4 q-7.5 4 -13.5 11 q-6 7 -8.5 16 q-2.5 9 -1.5 18 l86 486 q-23 -25 -48 -49 q-10 -10 -21 -14 q-11 -4 -21.5 -2.5 q-10.5 1.5 -18.5 8 q-8 6.5 -12 17.5 q-1 2 -1.5 3.5 q-0.5 1.5 -1.5 3.5 q-2 6 -2 14 Z" /><glyph glyph-name="uni4F4D" unicode="&#x4f4d;" d="M736 781 q-2 10 1.5 20 q3.5 10 9.5 19 q6 9 15 16 q9 7 18 9 l2 0 q5 2 11 2 l19 -9 q18 -8 21 -23 q3 -18 6 -35 q3 -17 4 -32 q1 -9 -2 -18.5 q-3 -9.5 -9 -17.5 q-6 -8 -13.5 -14.5 q-7.5 -6.5 -16.5 -9.5 q-11 -3 -21 -1 q-10 2 -18.5 7.5 q-8.5 5.5 -13.5 13.5 q-5 8 -6 18 q-1 13 -2.5 27 q-1.5 14 -4.5 28 ZM532 146 q2 33 3.5 72 q1.5 39 2.5 80 q1 41 1 83 q0 42 -1 81 q0 9 4 18.5 q4 9.5 10.5 17 q6.5 7.5 14 13.5 q7.5 6 16.5 8 q9 2 17.5 -0.5 q8.5 -2.5 15 -8 q6.5 -5.5 11 -13.5 q4.5 -8 4.5 -17 q2 -41 2.5 -84.5 q0.5 -43.5 0.5 -86 q0 -42.5 -0.5 -82 q-0.5 -39.5 -3.5 -71.5 q0 -16 -13 -32 q-13 -16 -28 -20 l-2 0 q-12 -3 -22 -1 q-10 2 -18 7.5 q-8 5.5 -12 15 q-4 9.5 -3 20.5 ZM495 623 q2 9 7.5 17 q5.5 8 13.5 15 q8 7 18 11 q10 4 19 4 l453 0 q10 0 18.5 -4 q8.5 -4 14 -11 q5.5 -7 8 -15 q2.5 -8 0.5 -17 q-1 -9 -6.5 -17.5 q-5.5 -8.5 -13.5 -15.5 q-8 -7 -17.5 -11 q-9.5 -4 -19.5 -4 l-453 0 q-9 0 -17.5 4 q-8.5 4 -14.5 11 q-6 7 -8.5 15.5 q-2.5 8.5 -1.5 17.5 ZM346 3 q2 9 7.5 17.5 q5.5 8.5 14 15 q8.5 6.5 18 10.5 q9.5 4 17.5 4 l314 0 q-1 7 -1 15 q0 10 4 19 q18 43 38 93 q20 50 38.5 102 q18.5 52 36 104 q17.5 52 32.5 98 q3 11 10.5 19.5 q7.5 8.5 16 15 q8.5 6.5 19 9.5 q10.5 3 19.5 1 l3 0 q9 -1 16 -7 q7 -6 11 -14 q4 -8 4.5 -17.5 q0.5 -9.5 -2.5 -18.5 q-17 -51 -37.5 -105 q-20.5 -54 -42 -107.5 q-21.5 -53.5 -42.5 -104 q-21 -50.5 -40 -93.5 q-2 -5 -5 -9 l140 0 q9 0 17.5 -4 q8.5 -4 14 -10.5 q5.5 -6.5 8 -15 q2.5 -8.5 1.5 -17.5 q-2 -9 -7.5 -17 q-5.5 -8 -13.5 -15 q-8 -7 -17.5 -11 q-9.5 -4 -18.5 -4 l-532 0 q-9 0 -17 4 q-8 4 -14 11 q-6 7 -8.5 15 q-2.5 8 -1.5 17 ZM147 434 q0 9 4 23.5 q4 14.5 16 27.5 q69 62 133 143 q64 81 116 169 q5 9 13 15 q8 6 17 10.5 q9 4.5 18.5 6 q9.5 1.5 16.5 -1.5 q10 -3 15.5 -9.5 q5.5 -6.5 8 -15.5 q2.5 -9 1.5 -19.5 q-1 -10.5 -6 -19.5 q-49 -82 -107 -159 l-112 -637 q-1 -10 -7 -19 q-6 -9 -13.5 -16 q-7.5 -7 -17.5 -11 q-10 -4 -19 -4 l-3 0 q-8 0 -16 4 q-8 4 -14 11 q-6 7 -8 16 q-2 9 -1 18 l87 487 q-22 -24 -44 -45 q-11 -11 -21.5 -15 q-10.5 -4 -21 -3 q-10.5 1 -18.5 7.5 q-8 6.5 -13 18.5 q-1 1 -1 2 q0 1 -1 2 q-2 6 -2 14 Z" /><glyph glyph-name="uni4F4E" unicode="&#x4f4e;" d="M628 85 q-2 10 -1 20 q1 10 5.5 18.5 q4.5 8.5 11 15 q6.5 6.5 13.5 8.5 q12 4 26 -5 q14 -9 17 -25 q11 -28 21 -58.5 q10 -30.5 16 -57.5 q1 -4 1 -8 q0 -12 -8 -28 q-8 -16 -23 -21 q-7 -3 -15 -1 q-8 2 -15 7 q-7 5 -12 13 q-5 8 -7 17 q-5 24 -13 51.5 q-8 27.5 -17 53.5 ZM565 458 q4 3 10 5 q9 4 18 4 l175 0 q10 102 25 216 q1 7 4 13 q-51 -10 -103 -18 q-47 -8 -93 -15 l-36 -205 ZM362 -45 q-2 7 1 16.5 q3 9.5 8 20.5 l10 22 q5 11 8 20 q1 1 2 1 q1 0 2 -1 q1 -3 2 -3 q1 0 3 4 q1 4 3 18 l110 621 q2 12 9 21.5 q7 9.5 16 16.5 q1 1 3 2 q3 6 9 12 q17 17 44 21 q53 9 106.5 19 q53.5 10 104.5 21 q51 11 97.5 23 q46.5 12 85.5 24 q10 4 24.5 1 q14.5 -3 21.5 -11 l6 -8 q8 -9 9.5 -20 q1.5 -11 -2.5 -21.5 q-4 -10.5 -13.5 -18.5 q-9.5 -8 -22.5 -12 q-48 -13 -100 -24 q-14 -4 -28 -7 q3 -5 4 -10 q3 -9 1 -18 q-17 -115 -26 -218 l147 0 q9 0 17 -4 q8 -4 14 -10.5 q6 -6.5 8.5 -14.5 q2.5 -8 1.5 -16 q-2 -9 -7.5 -17 q-5.5 -8 -13.5 -14.5 q-8 -6.5 -17.5 -10.5 q-9.5 -4 -18.5 -4 l-138 0 q-4 -67 -4 -122 q0 -11 0 -22 q1 -88 13 -139.5 q12 -51.5 36 -52.5 q7 0 14.5 15 q7.5 15 15.5 43 q13 2 22 10.5 q9 8.5 16.5 16 q7.5 7.5 15 11.5 q7.5 4 16.5 -3 q7 -5 9 -19 q2 -14 -3 -26 q-18 -48 -34 -80 q-16 -32 -32 -51 q-16 -19 -31 -26 q-15 -7 -30 -7 q-54 1 -82.5 58.5 q-28.5 57.5 -35.5 158.5 q-4 44 -4 96 q0 64 6 139 l-184 0 q-9 0 -17 4 q-4 2 -8 5 l-61 -346 l63 15 q12 2 22.5 0.5 q10.5 -1.5 18.5 -7 q8 -5.5 12 -13 q4 -7.5 3 -16.5 q-3 -13 -17.5 -27 q-14.5 -14 -30.5 -18 q-48 -14 -76 -22 q-28 -8 -44 -13 q-14 -4 -26 -4 q-11 1 -20 4 l-8 0 q-21 1 -26 17 ZM132 406 q-4 12 1 30.5 q5 18.5 16 30.5 q67 65 131 150 q64 85 116 177 q5 9 13 16 q8 7 17 12 q9 5 19 6.5 q10 1.5 18 -0.5 q8 -3 13.5 -9.5 q5.5 -6.5 8.5 -15.5 q3 -9 2.5 -19 q-0.5 -10 -6.5 -19 q-46 -80 -99 -157 l-113 -641 q-1 -10 -7 -19 q-6 -9 -13.5 -16 q-7.5 -7 -17 -11 q-9.5 -4 -18 -4 q-8.5 0 -16 4 q-7.5 4 -13.5 11 q-6 7 -8 16 q-2 9 -1 18 l86 484 q-26 -30 -53 -57 q-10 -11 -21 -16 q-11 -5 -21 -3.5 q-10 1.5 -18.5 8 q-8.5 6.5 -12.5 17.5 q-1 2 -1.5 3.5 q-0.5 1.5 -1.5 3.5 Z" /><glyph glyph-name="uni4F4F" unicode="&#x4f4f;" d="M729 766 q-3 10 -1 21 q2 11 7 20.5 q5 9.5 14 17.5 q9 8 19 12 q7 2 15.5 1.5 q8.5 -0.5 15.5 -3.5 q7 -3 12.5 -8.5 q5.5 -5.5 8.5 -11.5 q10 -21 18.5 -42.5 q8.5 -21.5 13.5 -40.5 q2 -7 -0.5 -16 q-2.5 -9 -7.5 -17.5 q-5 -8.5 -12.5 -15 q-7.5 -6.5 -15.5 -9.5 l-2 0 q-10 -4 -20.5 -3 q-10.5 1 -19.5 5.5 q-9 4.5 -15 12.5 q-6 8 -9 18 q-3 13 -9 28.5 q-6 15.5 -12 30.5 ZM338 -5 q1 9 6.5 17.5 q5.5 8.5 14.5 14.5 q9 6 18.5 10 q9.5 4 18.5 4 l229 0 l40 227 l-172 0 q-9 0 -17.5 4 q-8.5 4 -14 10.5 q-5.5 6.5 -8 15 q-2.5 8.5 -1.5 17.5 q1 9 7 17 q6 8 14 14.5 q8 6.5 17.5 10.5 q9.5 4 19.5 4 l172 0 l35 199 l-205 0 q-9 0 -17.5 4 q-8.5 4 -14.5 11 q-6 7 -8.5 15 q-2.5 8 -1.5 17 q2 8 7.5 16.5 q5.5 8.5 13.5 15 q8 6.5 18 10.5 q10 4 19 4 l510 0 q10 0 18 -4 q8 -4 14 -10.5 q6 -6.5 8.5 -15 q2.5 -8.5 1.5 -16.5 q-2 -9 -7.5 -17 q-5.5 -8 -14 -15 q-8.5 -7 -18 -11 q-9.5 -4 -19.5 -4 l-205 0 l-35 -199 l177 0 q10 0 18 -4 q8 -4 14 -10.5 q6 -6.5 8.5 -14.5 q2.5 -8 1.5 -17 q-2 -9 -7.5 -17.5 q-5.5 -8.5 -13.5 -15 q-8 -6.5 -18 -10.5 q-10 -4 -19 -4 l-178 0 l-40 -227 l221 0 q10 0 18 -4 q8 -4 14 -10 q6 -6 8.5 -14.5 q2.5 -8.5 1.5 -17.5 q-2 -9 -7.5 -17.5 q-5.5 -8.5 -13.5 -15 q-8 -6.5 -17.5 -10.5 q-9.5 -4 -19.5 -4 l-549 0 q-9 0 -17.5 4 q-8.5 4 -14.5 10.5 q-6 6.5 -9 15 q-3 8.5 -1 17.5 ZM145 419 q-3 7 -3 15 q0 8 4.5 23.5 q4.5 15.5 17.5 27.5 q67 62 131 143 q64 81 116 169 q5 9 13 15 q8 6 17.5 10.5 q9.5 4.5 19 6 q9.5 1.5 17.5 -1.5 l1 0 q9 -3 15 -10 q6 -7 8.5 -16 q2.5 -9 1 -19.5 q-1.5 -10.5 -6.5 -19.5 q-50 -83 -108 -163 l-112 -632 q-1 -10 -7 -19 q-6 -9 -14 -16 q-8 -7 -17.5 -11 q-9.5 -4 -18.5 -4 l-3 0 q-9 0 -16.5 4 q-7.5 4 -13.5 11 q-6 7 -8 16 q-2 9 -1 18 l85 482 q-21 -23 -43 -44 q-10 -10 -21 -14 q-11 -4 -21 -2.5 q-10 1.5 -18.5 8 q-8.5 6.5 -12.5 17.5 q-1 2 -1 3 q0 1 -1 3 Z" /><glyph glyph-name="uni4F53" unicode="&#x4f53;" d="M335 109 q-5 7 -6 17 q-1 10 1 20.5 q2 10.5 8.5 20.5 q6.5 10 14.5 18 q40 35 79.5 78 q39.5 43 77 92 q37.5 49 71.5 102 q33 52 62 105 l-169 0 q-9 0 -17.5 4 q-8.5 4 -14.5 10.5 q-6 6.5 -8.5 14.5 q-2.5 8 -1.5 17 q2 9 7.5 17.5 q5.5 8.5 14 15 q8.5 6.5 18.5 10.5 q10 4 19 4 l218 0 l24 137 q1 9 7 18 q6 9 14 15.5 q8 6.5 17.5 11 q9.5 4.5 17.5 4.5 q10 0 18 -4.5 q8 -4.5 13 -11 q5 -6.5 7.5 -15.5 q2.5 -9 0.5 -18 l-24 -137 l239 0 q9 0 17.5 -4 q8.5 -4 14 -10.5 q5.5 -6.5 8.5 -15 q3 -8.5 1 -17.5 q-1 -9 -6.5 -17 q-5.5 -8 -14 -14.5 q-8.5 -6.5 -18.5 -10.5 q-10 -4 -20 -4 l-184 0 q1 -2 1 -4 q9 -51 24 -103 q15 -52 34.5 -99 q19.5 -47 43 -89.5 q23.5 -42.5 50.5 -75.5 q6 -8 8 -18.5 q2 -10.5 0 -21 q-2 -10.5 -6.5 -20.5 q-4.5 -10 -13.5 -17 q-9 -7 -19 -10.5 q-10 -3.5 -20.5 -3 q-10.5 0.5 -19 5.5 q-8.5 5 -12.5 15 q-26 39 -49 86.5 q-23 47.5 -41.5 100.5 q-18.5 53 -32.5 111 q-8 32 -14 65 l-54 -303 l99 0 q9 0 17 -4 q8 -4 14.5 -10 q6.5 -6 9 -14 q2.5 -8 1.5 -16 q-1 -8 -7 -16.5 q-6 -8.5 -14.5 -14.5 q-8.5 -6 -18 -9.5 q-9.5 -3.5 -18.5 -3.5 l-98 0 l-22 -123 q-1 -9 -6.5 -17.5 q-5.5 -8.5 -13.5 -15.5 q-8 -7 -17 -11 q-9 -4 -19 -4 q-8 0 -16 4 q-8 4 -14 11 q-6 7 -8 15.5 q-2 8.5 -1 17.5 l21 123 l-98 0 q-9 0 -17.5 3.5 q-8.5 3.5 -14.5 9.5 q-6 6 -8.5 14.5 q-2.5 8.5 -1.5 16.5 q2 8 7.5 16 q5.5 8 13.5 14 q8 6 18 10 q10 4 19 4 l98 0 l52 294 q-15 -27 -30 -53 q-36 -59 -75 -114 q-39 -55 -80.5 -104 q-41.5 -49 -83.5 -89 q-8 -9 -18.5 -13.5 q-10.5 -4.5 -20.5 -5 q-10 -0.5 -19 2.5 q-9 3 -15 10 ZM137 421 q-3 7 -3 15 q0 8 4 22 q4 14 15 27 q63 62 121.5 142.5 q58.5 80.5 105.5 168.5 q5 8 13 15 q8 7 17 11.5 q9 4.5 19 6 q10 1.5 17 -0.5 q9 -3 14.5 -10 q5.5 -7 8.5 -15.5 q3 -8.5 2 -19 q-1 -10.5 -6 -19.5 q-43 -78 -94 -152 l-114 -646 q-1 -9 -7 -18 q-6 -9 -13 -16 q-7 -7 -16.5 -11 q-9.5 -4 -18.5 -4 q-9 0 -16 4 q-7 4 -13 11 q-6 7 -8 16 q-2 9 -1 18 l86 485 q-19 -22 -37 -42 q-10 -10 -21 -15 q-11 -5 -21 -4 q-10 1 -18.5 7.5 q-8.5 6.5 -13.5 17.5 q0 1 -0.5 3 q-0.5 2 -1.5 3 Z" /><glyph glyph-name="uni4F55" unicode="&#x4f55;" d="M525 265 l135 0 q2 0 4.5 2 q2.5 2 2.5 4 l31 173 q1 2 -1 4 q-2 2 -4 2 l-136 0 l-32 -185 ZM491 689.5 q-3 8.5 -1 17.5 q2 9 7.5 17 q5.5 8 14 14.5 q8.5 6.5 18 10.5 q9.5 4 18.5 4 l522 0 q10 0 18 -4 q8 -4 13.5 -10.5 q5.5 -6.5 8.5 -14.5 q3 -8 1 -17 q-1 -9 -6.5 -17.5 q-5.5 -8.5 -14 -15.5 q-8.5 -7 -18 -10.5 q-9.5 -3.5 -18.5 -3.5 l-18 0 l-110 -622 q-8 -47 -24 -70 q-16 -23 -48 -35 q-27 -10 -67 -13 q-40 -3 -97 -5 q-15 0 -28.5 12 q-13.5 12 -15.5 25 q-1 12 2.5 23.5 q3.5 11.5 12 20 q8.5 8.5 20 13 q11.5 4.5 25.5 4.5 q22 -1 39 -1 q8 0 22 0.5 q14 0.5 30 1.5 q16 0 22.5 5 q6.5 5 9.5 20 l109 621 l-407 0 q-9 0 -17 3.5 q-8 3.5 -14 10.5 q-6 7 -9 15.5 ZM415 162 l57 323 q1 10 6.5 18.5 q5.5 8.5 13.5 16 q8 7.5 17 11.5 q9 4 18 4 q9 0 16 -4 q1 -1 3 -2 l6 2 q10 4 18 4 l186 0 q9 0 17 -4 q8 -4 13.5 -11.5 q5.5 -7.5 8.5 -16 q3 -8.5 1 -18.5 l-45 -255 q-1 -9 -7 -18 q-6 -9 -14.5 -16.5 q-8.5 -7.5 -17.5 -11.5 q-9 -4 -19 -4 l-183 0 l-3 -18 q-2 -9 -7.5 -18 q-5.5 -9 -13.5 -16 q-8 -7 -16.5 -11.5 q-8.5 -4.5 -17.5 -4.5 q-9 0 -16.5 4.5 q-7.5 4.5 -12.5 11.5 q-5 7 -7.5 16 q-2.5 9 -0.5 18 ZM145 442 q0 9 4.5 24 q4.5 15 17.5 27 q64 62 124.5 142 q60.5 80 109.5 166 q5 8 13 15 q8 7 17.5 11 q9.5 4 19 5.5 q9.5 1.5 17.5 -0.5 q8 -3 14 -10 q6 -7 8.5 -16 q2.5 -9 1 -19.5 q-1.5 -10.5 -7.5 -18.5 q-42 -74 -92 -145 l-115 -656 q-2 -10 -7.5 -18.5 q-5.5 -8.5 -14 -16 q-8.5 -7.5 -17.5 -11.5 q-9 -4 -18 -4 q-9 0 -17.5 4 q-8.5 4 -14 11.5 q-5.5 7.5 -8 16 q-2.5 8.5 -1.5 18.5 l88 496 q-22 -24 -44 -47 q-10 -10 -21.5 -14.5 q-11.5 -4.5 -21.5 -3 q-10 1.5 -18.5 8 q-8.5 6.5 -12.5 17.5 q-1 1 -1 2 q0 1 -1 3 q-2 6 -2 13 Z" /><glyph glyph-name="uni4F59" unicode="&#x4f59;" d="M726 114 q-7 8 -9.5 18.5 q-2.5 10.5 0 21.5 q2.5 11 10 20.5 q7.5 9.5 17.5 15.5 q12 6 28 4.5 q16 -1.5 24 -9.5 q17 -16 35 -33.5 q18 -17.5 34 -35.5 q16 -18 31 -36 q15 -18 27 -34 q6 -7 7.5 -17 q1.5 -10 -1.5 -19.5 q-3 -9.5 -10 -18 q-7 -8.5 -17 -14.5 l-2 -2 q-8 -4 -18 -5.5 q-10 -1.5 -19 0.5 q-9 2 -17.5 6 q-8.5 4 -12.5 11 q-10 15 -22.5 30.5 q-12.5 15.5 -26 32 q-13.5 16.5 -28.5 33 q-15 16.5 -30 31.5 ZM165 464 q-7 10 -6.5 21.5 q0.5 11.5 5.5 22 q5 10.5 14.5 19.5 q9.5 9 21.5 14 q59 26 118 57.5 q59 31.5 115.5 68 q56.5 36.5 108.5 76 q52 39.5 96 80.5 q13 12 31.5 16.5 q18.5 4.5 29.5 -2.5 q7 -4 10.5 -12.5 q3.5 -8.5 2.5 -18.5 q0 -9 -4 -18 q15 -3 23 -11 q61 -76 136.5 -130 q75.5 -54 164.5 -96 q23 -11 25.5 -23.5 q2.5 -12.5 2.5 -16.5 q0 -18 -16 -34 q-11 -13 -26 -17 q-15 -4 -23 -4 q-11 0 -20 5 q-91 47 -168.5 106.5 q-77.5 59.5 -145.5 144.5 q-7 8 -9 18 q-31 -27 -64 -53 q-57 -45 -118 -85 q-42 -29 -85 -55 q10 4 18 4 l420 0 q9 0 17.5 -3.5 q8.5 -3.5 14.5 -10 q6 -6.5 9 -14.5 q3 -8 0 -16 q-1 -9 -6.5 -16.5 q-5.5 -7.5 -13.5 -14 q-8 -6.5 -17.5 -10.5 q-9.5 -4 -19.5 -4 l-153 0 l-19 -109 l306 0 q9 0 17.5 -4 q8.5 -4 14.5 -10.5 q6 -6.5 8.5 -14.5 q2.5 -8 0.5 -17 q-1 -9 -6.5 -17 q-5.5 -8 -13.5 -14.5 q-8 -6.5 -18 -10.5 q-10 -4 -19 -4 l-307 0 l-39 -226 q-7 -39 -22 -60 q-15 -21 -44 -34 q-23 -8 -54 -11.5 q-31 -3.5 -74 -4.5 q-15 0 -28.5 10 q-13.5 10 -16.5 22 q-1 4 -1 9 q0 18 15.5 34.5 q15.5 16.5 44.5 16.5 q19 -1 29 -0.5 q10 0.5 22 0.5 q12 1 18 5 q6 4 7 14 l40 225 l-302 0 q-8 0 -16.5 4 q-8.5 4 -14.5 10.5 q-6 6.5 -8.5 14.5 q-2.5 8 -1.5 17 q2 9 7.5 17 q5.5 8 13.5 14.5 q8 6.5 18 10.5 q10 4 19 4 l301 0 l20 109 l-163 0 q-9 0 -17.5 4 q-8.5 4 -14.5 10.5 q-6 6.5 -9 14 q-3 7.5 -2 16.5 q3 8 8 16 q5 6 11 12 q-8 -5 -16 -9 q-62 -36 -123 -65 q-10 -5 -22 -5 q-6 0 -19 3 q-13 3 -19 15 ZM104 0 q0 7 4.5 22.5 q4.5 15.5 28.5 31.5 q40 26 79.5 57.5 q39.5 31.5 70.5 64.5 q11 10 28.5 15 q17.5 5 30.5 0 q11 -4 16.5 -12.5 q5.5 -8.5 6.5 -18 q1 -9.5 -3.5 -20.5 q-4.5 -11 -13.5 -20 q-41 -40 -87 -77.5 q-46 -37.5 -91 -67.5 q-13 -10 -31 -10 q-1 0 -11 0.5 q-10 0.5 -18 9.5 q-10 11 -10 25 Z" /><glyph glyph-name="uni4F5B" unicode="&#x4f5b;" d="M853 500 l84 0 q2 0 4.5 2 q2.5 2 2.5 4 l18 101 q0 3 -1.5 4.5 q-1.5 1.5 -4.5 1.5 l-83 0 l-20 -113 ZM675 500 l92 0 l19 113 l-92 0 l-19 -113 ZM639 305 l93 0 l20 111 l-92 0 l-9 -52 q-6 -30 -12 -59 ZM460 305 l93 0 q6 28 11 59 l9 52 l-44 0 q-9 0 -17 4 q-7 3 -12 7 q-12 -38 -25 -77 q-7 -24 -15 -45 ZM322 -48 q0 10 8.5 26.5 q8.5 16.5 31.5 34.5 q53 34 87 71.5 q34 37.5 56 79.5 q14 28 25 57 l-86 0 q-11 0 -20 5 l-6 4 q-12 -9 -23 -9 q-10 0 -17.5 5.5 q-7.5 5.5 -11.5 14 q-4 8.5 -5 19 q-1 10.5 3 21.5 q16 39 32 86 l29 88 q5 17 20.5 31 q15.5 14 30.5 14 q9 0 16 -5 q6 -5 11 -12 l4 4 q18 13 37 13 l44 0 l20 113 l-116 0 q-9 0 -17.5 3.5 q-8.5 3.5 -14.5 9.5 q-6 6 -9 13.5 q-3 7.5 -1 15.5 q3 16 20.5 29 q17.5 13 36.5 13 l116 0 l15 86 q2 10 7.5 19 q5.5 9 13 16 q7.5 7 15.5 11 q8 4 17 4 q16 0 25 -13 q9 -13 9 -26 q0 -5 -1 -11 l-15 -86 l92 0 l16 87 q1 9 6.5 18 q5.5 9 12.5 16 q7 7 15.5 11 q8.5 4 16.5 4 q8 0 15 -4 q7 -4 12 -11 q5 -7 7 -16 q2 -9 1 -18 l-15 -87 l126 0 q10 0 18.5 -4.5 q8.5 -4.5 14 -11.5 q5.5 -7 8 -16 q2.5 -9 1.5 -18 l-33 -181 q-1 -9 -6.5 -18 q-5.5 -9 -14 -16 q-8.5 -7 -18 -11.5 q-9.5 -4.5 -19.5 -4.5 l-127 0 l-20 -111 l163 0 q15 -1 27 -9 q14 -10 10 -21 l0 -3 q0 -4 -1 -9 q0 -4 -3 -9 q-9 -46 -17 -80 q-9 -41 -16.5 -69.5 q-7.5 -28.5 -15 -46 q-7.5 -17.5 -15.5 -27.5 l-2 -2 q-1 -1 -2 -1 q-13 -13 -25.5 -18.5 q-12.5 -5.5 -30.5 -7.5 q-8 -1 -19 -1.5 q-11 -0.5 -24 0.5 q-3 0 -6 0 q-14 0 -26 8.5 q-12 8.5 -13 19.5 q0 21 7 35.5 q7 14.5 22 13.5 q9 -1 14 -1 l13 0 q8 0 13.5 1.5 q5.5 1.5 11.5 7.5 q5 5 10.5 18 q5.5 13 11 37 q5.5 24 13.5 61 q2 9 5 19 l-119 0 l-46 -256 q-1 -9 -6.5 -18 q-5.5 -9 -12.5 -16 q-7 -7 -15.5 -11 q-8.5 -4 -17 -4 q-8.5 0 -15 4 q-6.5 4 -11.5 11 q-5 7 -7 16 q-2 9 -1 18 l45 256 l-100 0 q-17 -54 -44 -103 q-30 -56 -76.5 -103.5 q-46.5 -47.5 -115.5 -84.5 q-11 -6 -24 -6 q-3 0 -13.5 1 q-10.5 1 -16.5 10 q-5 8 -5 17 ZM125 434 q0 9 4.5 23.5 q4.5 14.5 16.5 27.5 q68 62 132 143 q64 81 116 169 q5 9 13 15 q8 6 17 10.5 q9 4.5 18.5 6 q9.5 1.5 17.5 -1.5 q9 -3 14.5 -9.5 q5.5 -6.5 8 -15.5 q2.5 -9 2 -19.5 q-0.5 -10.5 -6.5 -19.5 q-50 -83 -108 -162 l-112 -635 q-2 -9 -7.5 -18 q-5.5 -9 -13 -16 q-7.5 -7 -17 -11 q-9.5 -4 -18 -4 q-8.5 0 -15.5 4 q-7 4 -13 11 q-6 7 -8.5 16 q-2.5 9 -0.5 18 l87 492 q-25 -26 -49 -50 q-10 -11 -21 -15 q-11 -4 -21.5 -3 q-10.5 1 -18.5 7.5 q-8 6.5 -13 18.5 q-1 1 -1 2 q0 1 -1 2 q-2 7 -2 14 Z" /><glyph glyph-name="uni4F5C" unicode="&#x4f5c;" d="M437 419 q-7 7 -9 16 q-2 9 0.5 20 q2.5 11 7.5 21.5 q5 10.5 12 18.5 q60 60 115.5 136 q55.5 76 101.5 158 q5 9 12.5 16 q7.5 7 16.5 11.5 q9 4.5 18.5 6.5 q9.5 2 17.5 0 q9 -3 15 -9.5 q6 -6.5 9.5 -15 q3.5 -8.5 2.5 -19 q-1 -10.5 -7 -19.5 q-23 -41 -48 -80 l355 0 q9 0 17.5 -4 q8.5 -4 14.5 -11 q6 -7 8.5 -15 q2.5 -8 0.5 -17 q-1 -9 -6.5 -17 q-5.5 -8 -14 -15 q-8.5 -7 -18 -11 q-9.5 -4 -18.5 -4 l-249 0 l-22 -125 l224 0 q9 0 17.5 -3.5 q8.5 -3.5 14.5 -10 q6 -6.5 9 -14.5 q3 -8 1.5 -16 q-1.5 -8 -7 -16.5 q-5.5 -8.5 -14 -15 q-8.5 -6.5 -18 -10 q-9.5 -3.5 -19.5 -3.5 l-223 0 l-23 -132 l236 0 q10 0 18 -4 q8 -4 14 -10.5 q6 -6.5 9 -14.5 q3 -8 1 -16 q-1 -9 -6.5 -17 q-5.5 -8 -14 -14.5 q-8.5 -6.5 -18 -10.5 q-9.5 -4 -19.5 -4 l-237 0 l-32 -183 q-1 -9 -6.5 -18.5 q-5.5 -9.5 -14.5 -16.5 q-9 -7 -18 -11 q-9 -4 -19 -4 l-2 0 q-9 0 -17.5 4 q-8.5 4 -14 11 q-5.5 7 -8 16.5 q-2.5 9.5 -0.5 18.5 l109 620 l-52 0 q-2 -2 -4 -5 q-62 -85 -127 -152 q-7 -9 -17.5 -14 q-10.5 -5 -20.5 -6 q-10 -1 -19 1.5 q-9 2.5 -15 8.5 ZM145 419 q-3 7 -3 15 q0 8 4.5 23.5 q4.5 15.5 17.5 27.5 q67 62 131 143 q64 81 116 169 q5 9 13 15 q8 6 17.5 10.5 q9.5 4.5 19 6 q9.5 1.5 17.5 -1.5 l1 0 q9 -3 15 -10 q6 -7 8.5 -16 q2.5 -9 1 -19.5 q-1.5 -10.5 -6.5 -19.5 q-50 -83 -108 -163 l-112 -632 q-1 -10 -7 -19 q-6 -9 -14 -16 q-8 -7 -17.5 -11 q-9.5 -4 -18.5 -4 l-3 0 q-9 0 -16.5 4 q-7.5 4 -13.5 11 q-6 7 -8 16 q-2 9 -1 18 l85 482 q-21 -23 -43 -44 q-10 -10 -21 -14 q-11 -4 -21 -2.5 q-10 1.5 -18.5 8 q-8.5 6.5 -12.5 17.5 q-1 2 -1 3 q0 1 -1 3 Z" /></font>
</defs>
</svg>
