<?xml version="1.0" standalone="no"?><!DOCTYPE svg PUBLIC "-//W3C//DTD SVG 1.1//EN" "http://www.w3.org/Graphics/SVG/1.1/DTD/svg11.dtd"><svg t="1755831230283" class="icon" viewBox="0 0 1024 1024" version="1.1" xmlns="http://www.w3.org/2000/svg" p-id="8260" xmlns:xlink="http://www.w3.org/1999/xlink" width="256" height="256"><path d="M900.608 739.2c-23.296 40.512-71.168 61.184-137.28 61.184-26.112 0-55.36-3.456-86.784-9.92-36.16 115.968-94.08 181.76-162.24 181.76-68.032 0-125.952-65.792-162.112-181.76a429.952 429.952 0 0 1-88.448 10.048c-65.408 0-112.064-20.352-135.616-61.312-32.768-57.28-6.592-137.792 71.424-224.384C121.6 428.224 95.36 347.712 128.128 290.432c32.448-56.448 113.088-74.368 224-51.2 36.224-116.032 94.144-181.76 162.176-181.76 68.16 0 126.08 65.728 162.24 181.76a416.192 416.192 0 0 1 94.976-10.112c62.016 1.28 106.432 21.824 129.088 61.312 32.768 57.28 6.592 137.792-71.424 224.384 78.016 86.592 104.192 167.104 71.424 224.384z m-476.672-10.368c28.16 114.816 70.4 157.568 90.368 157.568 17.728 0 52.48-33.024 79.744-118.912-31.936-10.944-64.704-24.32-98.112-40.192a1075.84 1075.84 0 0 1-80.768-42.752c2.688 14.976 5.312 30.08 8.768 44.288z m-221.376-32.256c8.128 14.08 49.856 26.816 129.664 10.496-6.4-33.92-11.776-68.8-14.72-105.6-1.92-25.856-2.88-52.672-3.072-79.36-8.832 7.68-17.472 15.616-25.536 23.424-80.832 78.72-95.872 134.4-86.336 151.04z m168.064-364.8c-105.024-29.568-158.848-14.848-168.128 1.28-8.256 14.464 2.176 58.624 58.496 121.856 22.784-19.84 47.616-39.424 74.496-58.56 25.856-18.176 52.288-35.2 78.464-50.56a704 704 0 0 0-43.328-13.952z m234.24-31.04c-28.16-114.752-70.4-157.504-90.56-157.504-17.6 0-52.352 33.024-79.616 119.04 31.936 10.88 64.704 24.192 98.112 40.128a1073.984 1073.984 0 0 1 80.768 42.688c-2.688-14.976-5.312-30.08-8.768-44.352z m21.568 154.048c-19.008-12.8-38.08-25.152-57.216-36.288a1035.456 1035.456 0 0 0-54.912-29.44c-18.624 9.408-37.12 19.136-54.784 29.44a1016.32 1016.32 0 0 0-57.216 36.288c-1.152 19.84-2.304 39.68-2.304 60.032 0 20.288 1.152 40.256 2.304 60.16a927.36 927.36 0 0 0 112 65.664c18.752-9.408 37.248-19.136 54.912-29.44 19.136-11.072 38.208-23.488 57.216-36.288 1.088-19.84 2.24-39.808 2.24-60.096 0-20.288-1.152-40.192-2.24-60.032z m-11.648 229.056c14.72 5.12 29.184 9.984 43.328 13.952 104.96 29.568 158.72 14.848 168.128-1.216 8.256-14.464-2.24-58.624-58.496-121.92-22.784 19.84-47.68 39.488-74.496 58.624-25.856 18.304-52.288 35.2-78.464 50.56z m211.392-350.784c-8.128-14.016-49.92-26.88-129.664-10.496a952.96 952.96 0 0 1 17.792 185.024c8.704-7.68 17.216-15.488 25.536-23.488 80.832-78.72 95.872-134.4 86.336-151.04z" fill="#505766" p-id="8261"></path><path d="M614.784 683.84l-100.416-43.2 112-65.728c19.392-12.928 48.704-35.392 87.936-67.328 0-91.008-8.832-128.64-17.792-184.96a827.648 827.648 0 0 0-19.968-83.392 416.192 416.192 0 0 1 94.976-10.112c62.016 1.28 106.432 21.824 129.088 61.312 32.768 57.28 6.592 137.792-71.424 224.384a859.008 859.008 0 0 1-214.4 168.96z m211.392-350.784c-8.128-14.016-49.92-26.88-129.664-10.496a952.96 952.96 0 0 1 17.792 185.024c8.704-7.68 17.216-15.488 25.536-23.488 80.832-78.72 95.872-134.4 86.336-151.04z" fill="#2F93F0" p-id="8262"></path></svg>