<?xml version="1.0" standalone="no"?><!DOCTYPE svg PUBLIC "-//W3C//DTD SVG 1.1//EN" "http://www.w3.org/Graphics/SVG/1.1/DTD/svg11.dtd"><svg t="1768804178586" class="icon" viewBox="0 0 1024 1024" version="1.1" xmlns="http://www.w3.org/2000/svg" p-id="8707" xmlns:xlink="http://www.w3.org/1999/xlink" width="256" height="256"><path d="M675.669333 199.125333a167.296 167.296 0 0 0-142.506666 79.616V847.36c37.034667-28.330667 85.077333-38.997333 134.613333-38.997333H917.333333V199.125333h-241.664zM106.666667 808.362667h249.557333c49.365333 0 97.28 10.581333 134.272 38.698666V278.186667a167.296 167.296 0 0 0-142.165333-79.061334H106.666667v609.237334z m853.333333 11.562666a31.104 31.104 0 0 1-31.104 31.104h-261.12c-62.549333 0-111.274667 18.645333-137.386667 62.506667a21.12 21.12 0 0 1-16.469333 10.24 20.48 20.48 0 0 1-9.216-1.194667 21.12 21.12 0 0 1-11.093333-9.045333c-26.112-43.861333-74.837333-62.506667-137.386667-62.506667h-261.12a31.104 31.104 0 0 1-30.464-24.789333l-0.64-6.314667V187.562667c0-17.152 13.909333-31.104 31.104-31.104h253.226667c66.218667 0 125.184 30.72 163.669333 78.506666a209.706667 209.706667 0 0 1 163.669333-78.506666h253.226667c17.194667 0 31.104 13.952 31.104 31.104v632.362666z" fill="#252525" p-id="8708"></path><path d="M170.666667 734.122667V281.344c0-4.693333 3.925333-8.277333 8.661333-8.277333C385.152 273.28 426.666667 281.728 426.666667 375.082667v358.869333c0 4.693333-3.84 8.448-8.533334 8.448H179.2c-4.693333 0-8.533333-3.584-8.533333-8.277333z" fill="#1B7AFE" p-id="8709"></path><path d="M405.333333 375.125333c0-22.314667-2.56-36.266667-7.381333-45.653333-4.266667-8.277333-11.178667-14.976-25.386667-20.394667-15.018667-5.76-36.949333-9.6-69.248-11.861333-29.312-2.005333-65.834667-2.645333-111.317333-2.773333V721.066667h213.333333V375.125333z m42.666667 358.826667a29.824 29.824 0 0 1-29.866667 29.781333H179.2a29.738667 29.738667 0 0 1-29.696-26.453333l-0.170667-3.157333V281.344l0.170667-3.242667a29.866667 29.866667 0 0 1 29.866667-26.368l36.778666 0.170667c35.072 0.298667 64.896 1.024 90.154667 2.773333 33.365333 2.346667 60.416 6.485333 81.493333 14.549334 21.888 8.405333 38.186667 21.333333 48.170667 40.874666 9.386667 18.474667 12.032 40.618667 12.032 65.024v358.826667z" fill="#1B7AFE" p-id="8710"></path><path d="M810.581333 424.064a21.333333 21.333333 0 0 1 0 42.666667h-177.066666a21.333333 21.333333 0 1 1 0-42.666667h177.066666z" fill="#252525" p-id="8711"></path><path d="M768 576a21.333333 21.333333 0 0 1 0 42.666667h-128a21.333333 21.333333 0 0 1 0-42.666667h128z" fill="#057C52" p-id="8712"></path><path d="M248.448 447.018667a14.72 14.72 0 0 1 25.514667 0l1.024 2.304 46.122666 126.72a12.8 12.8 0 0 1-24.021333 8.746666l-7.509333-20.48H232.832l-7.466667 20.48a12.8 12.8 0 0 1-24.064-8.746666l46.08-126.72 1.066667-2.304zM349.866667 579.541333V448.853333a12.8 12.8 0 1 1 25.6 0v130.688a12.8 12.8 0 1 1-25.6 0z m-107.733334-40.789333h38.186667l-19.114667-52.48-19.072 52.48z" fill="#FFFFFF" p-id="8713"></path></svg>