<?xml version="1.0" standalone="no"?><!DOCTYPE svg PUBLIC "-//W3C//DTD SVG 1.1//EN" "http://www.w3.org/Graphics/SVG/1.1/DTD/svg11.dtd"><svg t="1772155444956" class="icon" viewBox="0 0 1024 1024" version="1.1" xmlns="http://www.w3.org/2000/svg" p-id="18052" xmlns:xlink="http://www.w3.org/1999/xlink" width="256" height="256"><path d="M991.1872 734.592V825.6a65.984 65.984 0 0 0-66.368-17.344 79.808 79.808 0 0 0-38.4 120.384 66.752 66.752 0 0 0 72.96 29.312 180.608 180.608 0 0 0 31.68-15.296c1.536 14.592 1.536 14.592 17.792 14.592H1024.1472v-222.656z m-40.128 195.008a47.232 47.232 0 1 1 43.264-47.424 44.8 44.8 0 0 1-43.264 47.424M467.3472 825.984a67.136 67.136 0 0 0-101.184 5.312 84.224 84.224 0 0 0-5.952 93.632 68.224 68.224 0 0 0 63.36 34.816 62.08 62.08 0 0 0 43.776-20.8c0 4.352-0.896 7.424 0 9.28 2.048 3.264 4.992 7.808 8.064 8.256a161.984 161.984 0 0 0 24.32 0.448v-222.272H467.3472z m-41.216 103.616a47.232 47.232 0 1 1 44.032-47.488 44.288 44.288 0 0 1-44.032 47.488M118.2912 825.024a67.264 67.264 0 0 0-96 1.216A83.2 83.2 0 0 0 19.3472 935.808a68.096 68.096 0 0 0 98.752 4.864 23.744 23.744 0 0 0 0.896 8.576c1.664 2.88 4.48 6.912 7.168 7.168a218.368 218.368 0 0 0 25.088 0.384v-148.032h-32l-1.088 16.256m-40.384 104.576a47.296 47.296 0 0 1-0.512-94.336 47.296 47.296 0 0 1 0.512 94.336M711.1232 805.12a77.376 77.376 0 1 0 76.8 77.824 76.8 76.8 0 0 0-76.8-77.824m-1.536 123.584a46.144 46.144 0 0 1 0-92.224 46.144 46.144 0 0 1 0 92.224M321.3632 851.2A53.888 53.888 0 0 0 256.1472 806.4a57.088 57.088 0 0 0-34.944 21.76v-19.2h-32.64v135.68c0 5.248 0 10.752 6.72 11.328 8.576 0.704 17.216 0 26.432 0 0-26.112-0.704-51.2 0-76.16a70.976 70.976 0 0 1 7.808-28.032 33.152 33.152 0 0 1 37.376-15.936 31.36 31.36 0 0 1 22.848 30.528c0 4.352 0.384 8.768 0.384 13.12v66.496c0 5.12 0.896 9.728 7.04 9.984 8.32 0.384 16.704 0 25.6 0v-57.6a410.048 410.048 0 0 0-1.92-46.976M614.5472 806.4a45.312 45.312 0 0 0-44.16 24.32v-22.4h-33.472V944.96c0 5.76 0.96 11.072 7.872 11.392 8.384 0.512 16.768 0 25.6 0v-10.56c0-21.568-0.768-43.136 0.384-64.64a60.864 60.864 0 0 1 7.872-27.136 34.304 34.304 0 0 1 43.136-12.8v-27.264c0-5.76-1.92-7.424-7.488-7.744M813.5232 865.152v80.512c0 5.824 1.152 10.752 8.064 11.072 8.128 0.32 16.256 0 24.576 0v-147.968h-32.576v56.384M830.4192 732.288a21.632 21.632 0 0 0-22.208 20.992 21.248 21.248 0 0 0 20.992 22.976 21.504 21.504 0 0 0 22.784-22.144 21.952 21.952 0 0 0-21.568-21.824" p-id="18053"></path><path d="M1023.5072 629.12a561.344 561.344 0 0 0-29.312-125.248 498.816 498.816 0 0 0-64.448-120.192 413.504 413.504 0 0 0-82.112-87.872c-24.96-19.2-51.584-36.608-77.696-54.464-4.864-3.328-6.4-5.568-3.2-11.008 11.968-20.544 23.296-41.536 35.264-62.208 14.592-25.024 29.696-49.92 44.416-75.008 6.4-10.56 4.992-22.336-3.456-26.24a18.752 18.752 0 0 0-27.136 8.896c-2.56 5.12-5.888 9.984-8.768 14.976-21.888 38.016-43.648 76.032-65.664 114.048-9.92 17.088-10.112 16.768-28.032 9.216A501.76 501.76 0 0 0 563.3472 177.344a556.8 556.8 0 0 0-140.8 4.864 517.952 517.952 0 0 0-121.6 36.352c-6.848 3.008-9.6 1.024-12.416-3.904l-63.168-110.464c-6.4-11.328-12.8-22.656-20.032-33.664a19.2 19.2 0 0 0-21.312-4.992 17.024 17.024 0 0 0-9.152 18.368 24.192 24.192 0 0 0 3.264 7.872c14.848 25.6 29.888 50.56 44.8 76.032 12.352 21.312 24.256 42.944 36.608 64.384 3.008 5.248-0.512 6.72-3.84 8.576A554.944 554.944 0 0 0 163.3472 307.584 501.376 501.376 0 0 0 8.7232 582.4c-3.648 18.112-5.696 36.672-8.576 56.32h1023.424a80.32 80.32 0 0 0 0-9.728M276.1792 494.464a43.072 43.072 0 0 1-0.384-86.144 43.072 43.072 0 1 1 0.384 86.144m471.744 0a42.112 42.112 0 0 1-42.688-41.536 43.136 43.136 0 0 1 43.904-44.8 43.584 43.584 0 0 1 41.984 45.696 43.008 43.008 0 0 1-43.2 40.448" fill="#3DDB84" p-id="18054"></path></svg>