<?xml version="1.0" standalone="no"?><!DOCTYPE svg PUBLIC "-//W3C//DTD SVG 1.1//EN" "http://www.w3.org/Graphics/SVG/1.1/DTD/svg11.dtd"><svg t="1772155388957" class="icon" viewBox="0 0 1024 1024" version="1.1" xmlns="http://www.w3.org/2000/svg" p-id="13228" xmlns:xlink="http://www.w3.org/1999/xlink" width="256" height="256"><path d="M951.808 688.128H72.192c-16.384 0-29.184-13.312-29.184-29.184V365.568c0-16.384 13.312-29.184 29.184-29.184h879.616c16.384 0 29.184 13.312 29.184 29.184v293.376c0 15.872-12.8 29.184-29.184 29.184z" fill="#17DA8D" p-id="13229"></path><path d="M189.44 570.88l48.128-125.952h17.92L307.2 570.88h-18.944l-14.848-37.888H220.672l-13.824 37.888H189.44z m36.352-51.712h42.496l-13.312-34.816c-4.096-10.752-7.168-19.456-8.704-26.112-1.536 8.192-4.096 15.872-6.656 24.064l-13.824 36.864zM318.464 570.88V479.232h13.824v12.8c6.656-10.24 16.384-14.848 29.184-14.848 5.632 0 10.752 1.024 15.36 3.072 4.608 2.048 8.192 4.608 10.24 7.68s4.096 7.168 4.608 11.264c0.512 3.072 1.024 7.68 1.024 14.848v56.32h-15.36v-55.296c0-6.144-0.512-11.264-2.048-14.336s-3.584-5.632-6.144-7.68c-3.072-2.048-6.656-2.56-10.752-2.56-6.656 0-12.288 2.048-16.896 6.144s-7.168 12.288-7.168 23.552v49.664h-15.872zM475.648 570.88v-11.264c-5.632 9.216-14.336 13.824-25.6 13.824-7.168 0-13.824-2.048-19.968-6.144-6.144-4.096-10.752-9.728-14.336-16.896-3.584-7.168-5.12-15.36-5.12-24.576 0-9.216 1.536-17.408 4.608-24.576 3.072-7.168 7.68-13.312 13.824-16.896 6.144-4.096 12.8-6.144 20.48-6.144 5.632 0 10.24 1.024 14.848 3.584 4.096 2.56 7.68 5.12 10.24 9.216v-45.056h15.36v125.952h-14.336z m-49.152-45.568c0 11.776 2.56 20.48 7.168 26.112 5.12 5.632 10.752 8.704 17.408 8.704 6.656 0 12.288-2.56 17.408-8.192 4.608-5.632 7.168-13.824 7.168-25.088 0-12.288-2.56-21.504-7.168-27.648-4.608-5.632-10.752-8.704-17.92-8.704-6.656 0-12.8 2.56-17.408 8.192-4.096 5.632-6.656 14.336-6.656 26.624zM514.048 570.88V479.232h13.824v13.824c3.584-6.656 6.656-10.752 9.728-12.8 3.072-2.048 6.144-3.072 9.728-3.072 5.12 0 10.752 1.536 15.872 5.12l-5.12 14.336c-3.584-2.048-7.68-3.584-11.264-3.584-3.584 0-6.656 1.024-9.216 3.072-2.56 2.048-4.608 4.608-5.632 8.704-1.536 5.632-2.56 11.264-2.56 17.92v47.616h-15.36zM566.784 524.8c0-16.896 4.608-29.184 14.336-37.376 7.68-6.656 17.408-10.24 28.672-10.24 12.288 0 23.04 4.096 30.72 12.288 8.192 8.192 11.776 19.456 11.776 34.304 0 11.776-1.536 20.992-5.12 27.648-3.584 6.656-8.704 11.776-15.36 15.872-6.656 3.584-13.824 5.632-22.016 5.632-12.8 0-23.04-4.096-30.72-12.288-8.192-8.192-12.288-19.968-12.288-35.84z m15.872 0c0 11.776 2.56 20.48 7.68 26.112 5.12 5.632 11.264 8.704 19.456 8.704 7.68 0 13.824-3.072 18.944-8.704s7.68-14.848 7.68-26.624c0-11.264-2.56-19.968-7.68-25.6s-11.264-8.704-18.944-8.704-14.336 3.072-19.456 8.704c-5.12 6.144-7.68 14.848-7.68 26.112zM670.72 462.336v-17.92h15.36v17.92h-15.36z m0 108.544V479.232h15.36v91.136h-15.36zM769.024 570.88v-11.264c-5.632 9.216-14.336 13.824-25.6 13.824-7.168 0-13.824-2.048-19.968-6.144-6.144-4.096-10.752-9.728-14.336-16.896-3.584-7.168-5.12-15.36-5.12-24.576 0-9.216 1.536-17.408 4.608-24.576 3.072-7.168 7.68-13.312 13.824-16.896 6.144-4.096 12.8-6.144 20.48-6.144 5.632 0 10.24 1.024 14.848 3.584 4.096 2.56 7.68 5.12 10.24 9.216v-45.056h15.36v125.952h-14.336z m-49.152-45.568c0 11.776 2.56 20.48 7.168 26.112s10.752 8.704 17.408 8.704c6.656 0 12.288-2.56 17.408-8.192s7.168-13.824 7.168-25.088c0-12.288-2.56-21.504-7.168-27.648-4.608-5.632-10.752-8.704-17.92-8.704-6.656 0-12.8 2.56-17.408 8.192-4.096 5.632-6.656 14.336-6.656 26.624z" fill="#FFFFFF" p-id="13230"></path></svg>