<?xml version="1.0" standalone="no"?><!DOCTYPE svg PUBLIC "-//W3C//DTD SVG 1.1//EN" "http://www.w3.org/Graphics/SVG/1.1/DTD/svg11.dtd"><svg t="1772155351922" class="icon" viewBox="0 0 1024 1024" version="1.1" xmlns="http://www.w3.org/2000/svg" p-id="11387" xmlns:xlink="http://www.w3.org/1999/xlink" width="256" height="256"><path d="M735.744 0H287.744C235.008 0 192 43.008 192 95.744v832c0 52.736 43.008 95.744 95.744 95.744h448c52.736 0 95.744-43.008 95.744-95.744V96.256C832 43.008 788.992 0 735.744 0z m-312.32 48.64h176.64c8.704 0 15.872 7.168 15.872 15.872 0 8.704-7.168 15.872-15.872 15.872H423.424c-8.704 0-15.872-7.168-15.872-15.872s7.168-15.872 15.872-15.872z m88.576 911.36c-35.328 0-64-28.672-64-64s28.672-64 64-64 64 28.672 64 64-28.672 64-64 64z m256-192H256V128h512v640z" fill="#2F8CFF" p-id="11388"></path><path d="M617.984 382.464H400.896v166.912s-2.56 21.504 16.384 21.504h22.016v47.104c0 13.824 11.264 24.576 25.6 24.576h1.024c6.656 0 13.312-2.56 17.92-7.168 5.12-4.608 7.68-10.752 7.68-17.408v-47.104h35.84v47.104c0 6.144 2.56 12.8 7.68 17.408 4.608 4.608 11.264 7.168 17.92 7.168h1.024c6.656 0 13.312-2.56 17.92-7.168s7.68-10.752 7.68-17.408v-47.104h22.016c18.944 0 16.384-21.504 16.384-21.504V382.464z m-62.976-45.056c-3.072 0-5.632-1.024-7.68-3.072-2.048-2.048-3.072-4.608-3.072-7.68 0-6.144 5.12-10.752 11.264-10.752 6.144 0 11.264 4.608 11.264 10.752-1.024 5.632-5.632 10.752-11.776 10.752z m-91.136 0c-4.096 0-7.68-2.048-10.24-5.12-2.048-3.584-2.048-7.68 0-10.752 2.048-3.584 6.144-5.12 10.24-5.12 6.144 0 11.264 4.608 11.264 10.752 0 2.56-1.024 5.632-3.072 7.68-2.048 1.536-5.12 2.56-8.192 2.56z m99.84-41.984l15.36-30.72c1.024-2.048 0-4.608-2.048-5.632-1.024-0.512-2.56-0.512-3.584 0s-2.048 1.024-2.56 2.048l-15.36 30.72c-14.336-6.656-30.208-10.24-46.08-10.24s-31.744 3.584-46.08 10.24l-15.36-30.72c-0.512-1.024-1.024-1.536-2.56-2.048-1.024-0.512-2.56-0.512-3.584 0-1.024 0.512-2.048 1.024-2.048 2.56-0.512 1.024-0.512 2.048 0 3.072l15.36 30.72c-28.16 15.36-47.616 41.984-53.248 73.216h215.04c-5.632-30.72-25.088-57.344-53.248-73.216z m93.184 87.04c-12.8 0-23.04 9.728-23.04 22.016v93.696c0 12.288 10.24 22.016 23.04 22.016 6.144 0 11.776-2.56 16.384-6.144 4.096-4.096 6.656-9.728 6.656-15.36V404.48c0-5.632-2.56-11.264-6.656-15.36-4.608-4.608-10.24-6.656-16.384-6.656z m-294.912 0c-6.144 0-11.776 2.56-16.384 6.144-4.096 4.096-6.656 9.728-6.656 15.36v93.696c0 12.288 10.24 22.016 23.04 22.016 6.144 0 11.776-2.56 16.384-6.144 4.096-4.096 6.656-9.728 6.656-15.36V404.48c-0.512-12.288-10.752-22.016-23.04-22.016z" fill="#2F8CFF" p-id="11389"></path></svg>