<?xml version="1.0" standalone="no"?><!DOCTYPE svg PUBLIC "-//W3C//DTD SVG 1.1//EN" "http://www.w3.org/Graphics/SVG/1.1/DTD/svg11.dtd"><svg t="1751436393263" class="icon" viewBox="0 0 1024 1024" version="1.1" xmlns="http://www.w3.org/2000/svg" p-id="11742" xmlns:xlink="http://www.w3.org/1999/xlink" width="256" height="256"><path d="M50.944961 321.83485v380.287207c0 47.061235 25.087948 90.538478 65.877196 114.090429l329.300647 190.122271a131.669059 131.669059 0 0 0 131.754392 0l329.300647-190.122271a131.711726 131.711726 0 0 0 65.877196-114.090429V321.83485a131.583726 131.583726 0 0 0-65.877196-114.047763L577.877196 17.664817a131.669059 131.669059 0 0 0-131.754392 0L116.822157 207.787087a131.626392 131.626392 0 0 0-65.877196 114.047763z m230.527519 124.330407v131.711726a32.853265 32.853265 0 0 0 32.938598 32.938598 32.981265 32.981265 0 0 0 32.938598-32.938598 32.981265 32.981265 0 0 1 56.191883-23.295952 33.066598 33.066598 0 0 1 9.642647 23.295952 98.730461 98.730461 0 1 1-197.588922 0v-131.711726c0-26.239945 10.410645-51.327893 28.970606-69.845188a98.645128 98.645128 0 0 1 139.690376 0c18.517295 18.517295 28.92794 43.647909 28.92794 69.845188a32.810598 32.810598 0 0 1-9.642647 23.253285 32.725265 32.725265 0 0 1-46.549236 0 32.853265 32.853265 0 0 1-9.642647-23.253285 32.853265 32.853265 0 0 0-32.938598-32.938598 32.895931 32.895931 0 0 0-32.938598 32.938598z m526.932236 131.711726a32.853265 32.853265 0 0 1-32.938598 32.938598h-32.938598v32.938598a32.981265 32.981265 0 0 1-65.877196 0v-32.938598h-65.877196v32.938598a32.981265 32.981265 0 0 1-56.191883 23.295951 33.066598 33.066598 0 0 1-9.642647-23.295951v-32.938598H512a32.895931 32.895931 0 1 1 0-65.877196h32.938598v-65.83453H512a32.853265 32.853265 0 1 1 0-65.877196h32.938598v-32.938598a32.981265 32.981265 0 0 1 56.191883-23.295951 33.066598 33.066598 0 0 1 9.642647 23.295951v32.938598h65.877196v-32.938598a32.981265 32.981265 0 0 1 65.877196 0v32.938598h32.938598a32.938598 32.938598 0 0 1 0 65.877196h-32.938598v65.83453h32.938598a33.109264 33.109264 0 0 1 32.938598 32.938598z m-131.754392-98.773128h-65.877196v65.83453h65.877196v-65.83453z" fill="#512BD4" p-id="11743"></path></svg>