<?xml version="1.0" standalone="no"?><!DOCTYPE svg PUBLIC "-//W3C//DTD SVG 1.1//EN" "http://www.w3.org/Graphics/SVG/1.1/DTD/svg11.dtd"><svg t="1779954105357" class="icon" viewBox="0 0 3872 1024" version="1.1" xmlns="http://www.w3.org/2000/svg" p-id="6348" xmlns:xlink="http://www.w3.org/1999/xlink" width="968" height="256"><path d="M3614.981015 217.854625c-64.130701 0-117.224416 14.367446-157.03502 43.121701-43.1217 28.754255-64.130701 66.357462-64.130701 114.997655s21.009001 85.139702 65.253763 111.686559c26.546857 17.697905 74.083352 34.272748 141.544512 50.866954 61.923304 15.490508 102.837607 27.650556 121.639211 36.499508 35.39581 17.697905 54.17805 42.018002 54.17805 74.083353 0 64.130701-51.970653 97.319114-153.704561 97.319113-48.659557 0-85.139702-8.848952-109.479162-26.546857-24.320097-19.905302-40.914303-51.970653-47.555858-97.319114h-86.262764c13.263747 131.591861 95.092353 197.949323 245.505181 197.949324 161.449815 0 242.174722-59.715907 242.174722-176.940323 0-49.763255-23.216398-88.470161-68.564859-117.224415-29.857953-18.801604-78.51751-36.499508-147.082369-53.074352-57.508509-15.490508-97.319114-27.650556-118.328114-37.603207-33.169049-16.594206-48.659557-37.603207-48.659557-61.923304 0-25.443159 12.160048-45.348461 36.499509-59.715906 22.112699-15.490508 53.074351-22.112699 92.884955-22.1127 45.348461 0 80.724907 8.848952 105.045004 26.546858 22.112699 15.490508 36.499508 42.018002 44.225399 77.413811h86.262764c-15.451781-119.41245-92.865593-178.024658-234.410105-178.024658zM3026.670902 290.834279c-57.508509 0-102.837607 22.112699-133.799258 67.46116-28.754255 39.810604-43.1217 92.884956-43.121701 157.03502v11.05635c0 66.357462 15.490508 119.431813 48.659557 160.346116 30.961652 39.810604 71.875955 60.819605 124.950306 60.819605 61.923304 0 108.375463-22.112699 140.440814-64.130701 28.754255-39.810604 43.1217-93.988654 43.121701-162.553513 0-67.46116-14.367446-121.63921-40.914303-161.449815-32.065351-46.471523-78.51751-68.584222-139.337116-68.584222z m11.05635-72.979654c81.828606 0 147.082369 29.857953 194.618864 91.781257 43.1217 55.301112 65.253763 124.950306 65.253763 211.21307 0 84.036003-22.112699 153.704561-64.130701 209.005673-46.452159 59.715907-109.479162 90.677558-191.307768 90.677559s-144.855609-39.810604-189.100371-119.431813v322.899629h-88.470161V233.32577h82.932305v93.988654c40.914303-72.979654 103.960669-109.459799 190.204069-109.459799z m-765.231072-137.129718c-90.677558 0-162.553513 30.961652-214.524166 93.988655-48.659557 59.715907-72.979654 138.233417-72.979653 236.656228 0 97.319114 24.320097 175.836624 72.979653 235.552531 50.866954 61.923304 122.742909 92.884956 213.420468 92.884955s162.553513-30.961652 213.420467-90.677558c48.659557-59.715907 74.083352-138.233417 74.083352-237.759928 0-100.63021-25.443159-180.251418-74.083352-239.967324-50.866954-60.819605-121.63921-90.677558-212.316769-90.677559z m0-80.724907c117.224416 0 211.21307 38.706906 279.777929 118.328114 64.130701 75.206414 97.319114 172.506164 97.319114 293.041676 0 119.431813-33.169049 215.647228-97.319114 290.834279-68.564859 78.51751-162.553513 118.328114-280.881627 118.328115-118.328114 0-211.21307-39.810604-279.777929-118.328115-65.253763-75.206414-97.319114-172.506164-97.319114-290.834279 0-119.431813 32.065351-216.750927 97.319114-291.937977C2060.179412 39.810604 2153.064367 0 2272.49618 0zM1320.372135 233.32577l215.647228 571.715906h89.57386L1842.324786 233.32577h-97.319113l-163.657212 461.133046-163.676575-461.133046h-97.299751z m-312.946978 58.612207c-50.866954 0-91.781257 16.594206-122.742909 49.763256-30.961652 33.169049-48.659557 77.413811-54.17805 133.799259h357.19174c-11.095076-122.742909-71.914681-183.562514-180.270781-183.562515z m-2.226761-74.083352c91.781257 0 161.449815 30.961652 207.901975 92.884956 42.018002 55.301112 64.130701 133.799259 66.357461 233.32577H828.277437c4.414795 64.130701 21.009001 113.893957 51.970653 149.289766 30.961652 35.39581 74.083352 53.074351 128.280766 53.074351 46.452159 0 85.139702-12.160048 113.893956-35.395809 24.320097-19.905302 43.1217-49.763255 57.508509-89.57386h88.470161c-13.263747 55.301112-38.706906 99.526511-77.413811 134.902957-47.555858 42.018002-108.375463 64.130701-182.458815 64.130701-81.828606 0-148.186068-27.650556-196.845625-80.724907-50.866954-55.301112-75.206414-128.280765-75.206414-221.165721 0-84.036003 23.216398-154.80826 71.875955-211.21307 48.67892-59.67718 113.91332-89.535133 196.845624-89.535134zM90.677558 93.988654v632.535512h168.09137c102.837607 0 180.251418-27.650556 232.222071-81.828606 48.659557-53.074351 74.083352-131.591861 74.083352-234.429468 0-106.168066-23.216398-184.666213-68.564859-235.55253-48.659557-54.17805-123.846608-80.724907-227.807276-80.724908H90.677558zM0 15.490508h283.089025c124.950306 0 218.958324 35.39581 283.089025 108.375463 58.612208 66.357462 88.470161 162.553513 88.470161 286.419484 0 121.63921-32.065351 217.854625-95.092353 286.419484-66.357462 71.875955-161.449815 108.375463-285.296422 108.375463H0V15.490508z" fill="#515151" p-id="6349"></path></svg>