<?xml version="1.0" standalone="no"?><!DOCTYPE svg PUBLIC "-//W3C//DTD SVG 1.1//EN" "http://www.w3.org/Graphics/SVG/1.1/DTD/svg11.dtd"><svg t="1779954146479" class="icon" viewBox="0 0 2112 1024" version="1.1" xmlns="http://www.w3.org/2000/svg" p-id="7641" xmlns:xlink="http://www.w3.org/1999/xlink" width="528" height="256"><path d="M1266.304 151.68c33.28 3.712 67.008 6.912 100.736 10.24 8.832 0.896 18.176 1.472 27.968 2.432l-2.368 45.568c-1.792 28.288-3.84 56.32-5.376 84.608a22.208 22.208 0 0 1-5.376 14.016c-54.08 59.904-108.032 120.064-162.112 180.224l-0.064-0.064-184.768 205.248 0.384 0.384-151.424 168.832v-144.32h-135.36c-0.32-0.832-0.32-1.664-0.64-2.56l162.56-179.648 0.192 0.128 158.016-175.68 1.152-0.832a14.592 14.592 0 0 0 1.984-1.92c60.672-67.072 121.792-134.08 182.336-201.536a14.016 14.016 0 0 1 12.16-5.12z m-42.624 384.64l-22.912-25.728c46.72 52.736 93.568 104.96 141.76 158.528l0.064 0.064h-138.496c-4.48 41.344-8.576 82.496-13.44 125.44l-99.456-111.232 132.48-147.136z m-420.096-331.776c20.928 2.048 41.152 3.84 61.696 5.952 22.016 2.048 44.416 4.48 66.56 7.104a15.104 15.104 0 0 1 9.152 4.48c34.432 37.952 68.864 76.352 103.104 114.432l-132.032 146.56-5.376-5.888c-36.032-40.192-72.32-80.448-108.16-120.96a18.368 18.368 0 0 1-3.84-11.072c2.112-40.128 4.48-80.192 7.104-120.32 0.384-6.656 1.216-13.44 1.792-20.288z" fill="#0077FF" p-id="7642"></path><path d="M1799.04 299.904c49.472 3.008 98.048 5.632 147.84 8.576l11.52-131.584c2.176 2.048 3.648 3.2 4.8 4.736 56.64 71.552 98.368 150.208 120.128 238.976 11.008 45.824 15.424 92.352 11.008 139.392-8 84.288-40.768 158.72-94.464 223.744-19.904 24.128-42.88 46.144-64.64 68.8-1.792 2.112-5.632 3.328-8.32 3.328-35.456-2.176-70.656-4.8-106.176-7.168a1249.28 1249.28 0 0 0-34.24-2.176c3.84-42.56 8.64-84.224 11.136-126.272a78.72 78.72 0 0 1 17.472-44.672c33.984-45.568 58.048-96.256 67.392-152.576 11.328-69.12-5.696-131.072-49.792-185.6-9.856-12.8-21.44-24.064-33.664-37.568v0.064z" fill="#A6D0FF" p-id="7643"></path><path d="M1984.512 391.36a21.312 21.312 0 0 0-12.8-13.76 26.496 26.496 0 0 0-18.944 0.128 25.984 25.984 0 0 0-14.72 11.648 21.376 21.376 0 0 0-1.472 18.752 21.824 21.824 0 0 0 12.8 13.824c5.76 2.304 12.032 2.24 18.816-0.128a26.496 26.496 0 0 0 14.912-11.712 21.44 21.44 0 0 0 1.408-18.752z m-5.952 2.048a14.336 14.336 0 0 1-1.536 13.312 22.336 22.336 0 0 1-11.328 8 22.4 22.4 0 0 1-13.696 0.768 14.336 14.336 0 0 1-9.536-9.408 13.824 13.824 0 0 1 1.6-13.184 21.568 21.568 0 0 1 11.2-8 21.696 21.696 0 0 1 13.824-0.768c4.672 1.344 7.808 4.48 9.472 9.28zM1998.272 461.76a17.088 17.088 0 0 0-10.56-15.168l7.936-0.64-0.64-7.04-66.304 5.76 0.64 7.36 27.072-2.304c-6.4 4.288-9.28 9.856-8.64 16.704 0.576 6.848 3.584 11.968 8.96 15.36 4.928 3.2 10.88 4.48 17.92 3.968a27.968 27.968 0 0 0 17.28-7.04 19.52 19.52 0 0 0 6.4-16.96z m-6.208-0.384a13.312 13.312 0 0 1-4.736 12.16 24.32 24.32 0 0 1-13.248 4.608 22.976 22.976 0 0 1-13.952-2.496 13.952 13.952 0 0 1-6.4-11.328 12.608 12.608 0 0 1 4.224-10.88 20.672 20.672 0 0 1 13.12-5.248l0.896-0.064a22.208 22.208 0 0 1 13.44 2.496 12.8 12.8 0 0 1 6.656 10.752zM1997.184 525.312a20.224 20.224 0 0 0-5.952-17.152 26.24 26.24 0 0 0-17.152-7.68 26.24 26.24 0 0 0-19.136 4.608 21.504 21.504 0 0 0-8.32 15.872 22.4 22.4 0 0 0 3.968 15.744 21.76 21.76 0 0 0 10.752 7.552l0.64-7.424a16.832 16.832 0 0 1-7.04-5.504 14.912 14.912 0 0 1-2.048-9.792 13.632 13.632 0 0 1 5.44-10.368 20.736 20.736 0 0 1 12.864-3.2l-3.456 37.824a33.28 33.28 0 0 0 20.096-3.776c5.504-3.392 8.64-8.96 9.344-16.64z m-6.208-0.384c-0.832 9.088-6.4 13.696-16.768 13.696l2.752-29.952a18.56 18.56 0 0 1 10.816 5.568c2.56 2.88 3.584 6.4 3.2 10.688zM1987.2 587.2a13.44 13.44 0 0 0-1.152-9.216 17.536 17.536 0 0 0-5.376-6.272l8.192 1.792 1.536-7.232-47.04-10.24-1.536 7.168 24.96 5.44a17.344 17.344 0 0 1 10.304 6.208c2.752 3.2 3.648 6.592 2.816 10.24a24.256 24.256 0 0 1-2.496 6.784l7.296 1.536a17.216 17.216 0 0 0 2.496-6.208zM1972.864 629.504a25.472 25.472 0 0 0 1.728-14.208 16.512 16.512 0 0 0-7.872-10.88l-3.2 6.656c2.688 1.792 4.288 4.096 4.8 6.912a15.36 15.36 0 0 1-1.088 8.896c-2.944 7.808-8.128 10.304-15.744 7.488l-2.368-0.896 3.904-10.88a30.848 30.848 0 0 0 2.112-17.088 13.568 13.568 0 0 0-9.28-10.56 12.16 12.16 0 0 0-10.624 0.768 17.28 17.28 0 0 0-7.488 9.472 24.448 24.448 0 0 0-1.408 12.288 22.4 22.4 0 0 0 3.392 9.152l-7.552-2.816-2.496 6.528 28.928 10.88a19.2 19.2 0 0 0 13.824 0.64c4.544-1.856 8-5.952 10.432-12.352z m-28.928 1.984l-3.84-1.408c-3.52-1.344-6.016-4.16-7.488-8.448a18.176 18.176 0 0 1 0.064-12.864 11.776 11.776 0 0 1 4.608-6.08 6.592 6.592 0 0 1 6.08-0.576c6.528 2.496 7.936 8.768 4.288 18.944l-3.712 10.432zM1959.68 687.808l1.216-7.936-10.688-6.464 5.12-8.32-5.376-3.2-5.056 8.32-26.176-16c-3.072-1.92-5.76-2.624-8.192-2.24-2.56 0.384-4.992 2.304-7.04 5.632l-3.776 6.208 5.312 3.2 3.2-5.248c0.896-1.408 1.92-2.176 2.88-2.368 1.024-0.256 2.304 0.192 3.84 1.088l26.112 16-6.208 10.112 5.376 3.264 6.208-10.176 13.248 8.128zM1915.008 721.792a20.224 20.224 0 0 0 5.504-17.28 26.24 26.24 0 0 0-9.152-16.448 26.24 26.24 0 0 0-18.112-7.744 21.568 21.568 0 0 0-16.128 7.744 22.4 22.4 0 0 0-6.272 15.04 21.76 21.76 0 0 0 4.096 12.48l4.992-5.568a16.832 16.832 0 0 1-2.368-8.64 14.912 14.912 0 0 1 4.16-9.088 13.632 13.632 0 0 1 10.56-5.12c3.968 0.128 8 1.92 12.288 5.184l-25.408 28.224a33.28 33.28 0 0 0 18.304 8.96c6.528 0.64 12.352-1.92 17.536-7.68z m-4.736-4.032c-6.144 6.784-13.376 7.168-21.632 0.96l20.096-22.4a18.56 18.56 0 0 1 5.312 11.008 13.44 13.44 0 0 1-3.84 10.432z" fill="#FFFFFF" p-id="7644"></path><path d="M171.52 830.08h138.304c5.056-41.472 10.048-82.56 15.168-123.392 14.016 10.368 27.328 20.8 41.664 30.4 40.768 27.008 87.296 44.096 135.872 49.728a319.872 319.872 0 0 0 167.424-25.92c11.648-5.056 22.656-11.008 34.24-16.064a22.208 22.208 0 0 1 9.92-1.792c32.128 2.048 64.32 4.48 96.384 6.848 14.08 0.832 28.352 2.112 42.368 2.944 4.736 0.384 5.12 2.688 5.12 6.272v47.68c0 21.76-0.384 43.84 0.256 65.6 0.32 6.784-2.432 11.072-7.04 15.168a451.648 451.648 0 0 1-258.368 101.312c-91.52 6.016-176.64-15.744-258.56-54.208a809.92 809.92 0 0 1-156.16-98.304c-1.792-2.176-3.584-3.584-6.528-6.336z" fill="#0077FF" p-id="7645"></path><path d="M1226.816 692.096l139.072 11.584c8.064 0.64 15.744 3.648 22.016 8.64 48 36.672 100.48 63.168 160.64 72.704 61.952 9.6 121.216 0.32 177.856-27.136 13.632-6.464 26.816-14.528 41.152-22.592-4.288 47.36-8.704 94.08-12.8 141.824 45.568 3.584 90.432 7.424 136.32 11.008-2.048 1.472-2.944 2.688-4.416 3.264-61.952 36.992-127.168 65.28-197.76 80.512a497.984 497.984 0 0 1-127.872 11.072c-110.528-5.696-208.512-45.056-294.976-114.176-15.168-11.968-28.8-25.6-43.136-38.784a15.872 15.872 0 0 1-4.48-10.688c2.048-37.312 4.48-74.88 6.848-112.064 0.832-4.8 1.216-9.792 1.536-15.168z" fill="#A6D0FF" p-id="7646"></path><path d="M226.112 270.08c1.472-23.872 2.56-46.72 4.096-69.44 1.216-20.48 3.008-41.088 3.904-61.632 0.256-5.76 2.048-8.96 6.848-11.968A724.672 724.672 0 0 1 444.416 48.96 544.256 544.256 0 0 1 596.672 37.12c91.52 6.592 174.272 36.736 246.976 93.312 19.968 15.424 38.4 32.448 57.472 48.832l-1.152 2.368c-41.728-2.944-83.136-5.632-125.44-8.576-4.48 47.36-8.576 94.4-13.056 142.336-8.256-7.68-16.64-15.232-25.088-22.592a279.552 279.552 0 0 0-142.72-64.64c-60.8-8.96-118.592 2.432-174.528 26.24-7.168 2.944-14.592 5.376-20.928 9.792-17.536 12.544-36.928 12.8-57.152 11.584-33.344-2.048-67.008-2.944-100.352-4.416-4.8-0.32-9.28-0.832-14.592-1.216z" fill="#0077FF" p-id="7647"></path><path d="M427.136 142.912a20.48 20.48 0 0 0-13.44 12.8 27.328 27.328 0 0 0 0.512 18.816 26.88 26.88 0 0 0 11.264 15.04c5.376 3.2 11.456 3.648 18.304 1.28a21.376 21.376 0 0 0 11.968-9.152 23.168 23.168 0 0 0 2.176-15.616l-7.04 2.432c1.664 8.192-1.408 13.76-9.152 16.448a13.056 13.056 0 0 1-12.16-1.216 22.144 22.144 0 0 1-8.192-11.84 22.592 22.592 0 0 1-0.896-14.464 13.248 13.248 0 0 1 8.704-8.64 14.72 14.72 0 0 1 9.664-0.512c2.816 0.96 5.12 3.136 7.04 6.4l6.912-2.432a19.2 19.2 0 0 0-10.752-10.112 22.784 22.784 0 0 0-14.912 0.768zM485.76 126.592a21.312 21.312 0 0 0-15.104 11.072 26.496 26.496 0 0 0-2.048 18.88c1.6 6.976 4.928 12.352 9.92 16 5.312 3.904 11.392 5.12 18.496 3.52a21.824 21.824 0 0 0 15.168-11.2 26.368 26.368 0 0 0 1.984-18.688 26.496 26.496 0 0 0-9.92-16.128 21.44 21.44 0 0 0-18.496-3.456z m1.408 6.08a14.336 14.336 0 0 1 12.992 3.072c3.2 2.88 5.504 6.848 6.656 12.16a22.4 22.4 0 0 1-0.768 13.696 14.336 14.336 0 0 1-10.432 8.32 13.824 13.824 0 0 1-12.928-3.008 21.568 21.568 0 0 1-6.656-12.096 21.696 21.696 0 0 1 0.832-13.824 13.824 13.824 0 0 1 10.24-8.32zM568.192 101.248l0.128 28.48c-3.776-6.784-9.088-10.112-16-10.112-6.848 0-12.16 2.56-16 7.808a27.52 27.52 0 0 0-5.376 17.536 28.16 28.16 0 0 0 5.504 17.92 19.776 19.776 0 0 0 16.448 7.488 17.024 17.024 0 0 0 16-9.28v7.936H576l-0.32-67.84h-7.424z m-14.272 24.512c4.288 0 7.872 1.664 10.56 5.184a22.016 22.016 0 0 1 4.096 13.568v0.96a22.592 22.592 0 0 1-3.52 13.12 13.12 13.12 0 0 1-11.2 5.632 13.44 13.44 0 0 1-11.776-5.632 23.68 23.68 0 0 1-3.52-13.632c0-5.76 1.088-10.24 3.52-13.568 2.56-3.712 6.528-5.568 11.84-5.632zM618.88 125.696a20.224 20.224 0 0 0-17.6 4.608 26.24 26.24 0 0 0-8.96 16.512 26.24 26.24 0 0 0 3.072 19.456c3.264 5.12 8.384 8.32 15.168 9.472a22.4 22.4 0 0 0 16.064-2.688 21.76 21.76 0 0 0 8.32-10.112l-7.296-1.28a16.832 16.832 0 0 1-6.08 6.656 14.912 14.912 0 0 1-9.92 1.28 13.632 13.632 0 0 1-9.92-6.208 20.736 20.736 0 0 1-2.176-13.12l37.44 6.4a33.28 33.28 0 0 0-2.176-20.288c-3.008-5.76-8.32-9.408-15.936-10.688z m-0.896 6.208c9.024 1.536 13.184 7.424 12.352 17.792l-29.632-5.12a18.56 18.56 0 0 1 6.4-10.304 13.44 13.44 0 0 1 10.88-2.368z" fill="#FFFFFF" p-id="7648"></path><path d="M200.96 153.344l-13.376 136.896 147.264 11.264c-8.576 10.112-17.024 19.072-24.384 28.544a264.512 264.512 0 0 0-58.496 151.04c-4.48 67.712 12.16 130.56 43.52 189.824 5.12 9.6 1.472 17.92 0.896 26.816-2.56 34.304-6.528 68.48-9.856 102.848-0.256 2.944-0.832 5.632-1.408 9.216-16.384-1.536-32-2.752-47.744-4.224a6076.288 6076.288 0 0 0-73.216-6.784c-5.12-0.64-9.92-0.64-14.976-1.536-1.792-0.256-3.84-2.048-5.12-3.584-42.24-61.056-72.64-126.912-87.232-199.872a440 440 0 0 1-7.168-126.656c5.952-64 24.768-124.16 54.528-181.44a547.84 547.84 0 0 1 90.496-127.552c1.792-1.728 2.688-4.8 4.224-7.168a19.84 19.84 0 0 0 2.048 2.368z" fill="#0077FF" p-id="7649"></path><path d="M200.128 447.488l-66.496-13.312-1.344 6.848 7.744 1.536c-6.656 1.984-10.688 6.592-12.16 13.888-1.408 6.848 0.064 12.8 4.224 17.664a28.8 28.8 0 0 0 16.448 8.768c6.976 1.408 12.992 0.704 18.24-1.856a19.008 19.008 0 0 0 10.752-14.272c1.344-6.72-0.896-12.608-6.848-17.6l27.968 5.632 1.472-7.296z m-28.288 16.512a13.632 13.632 0 0 1-7.808 10.496 22.144 22.144 0 0 1-13.952 0.896 24.384 24.384 0 0 1-12.8-6.016 13.44 13.44 0 0 1-3.2-12.608 12.992 12.992 0 0 1 7.68-9.984 21.888 21.888 0 0 1 13.568-0.96l0.96 0.192a20.928 20.928 0 0 1 12.48 6.656c2.944 3.2 3.904 7.04 3.072 11.328zM172.224 493.632l-29.76-1.344c-12.992-0.64-19.84 4.864-20.48 16.64a18.112 18.112 0 0 0 8.064 16l-7.424-0.384-0.32 7.424 48.064 2.24 0.32-7.424-29.248-1.344a17.024 17.024 0 0 1-9.856-5.248 12.16 12.16 0 0 1-3.328-8.704c0.192-4.352 1.536-7.488 3.84-9.344 2.368-1.856 5.824-2.56 10.432-2.432l29.376 1.408 0.32-7.488zM189.696 549.888a5.312 5.312 0 0 0-1.792-3.904c-0.96-1.088-2.304-1.472-3.968-1.408a5.312 5.312 0 0 0-3.904 1.792 5.76 5.76 0 0 0-1.408 4.096 5.76 5.76 0 0 0 1.792 3.904c1.216 1.088 2.56 1.536 4.096 1.472a4.8 4.8 0 0 0 3.84-1.92 5.312 5.312 0 0 0 1.344-4.032z m-18.304-2.752l-48.064 2.56 0.384 7.36 48.064-2.56-0.384-7.36zM192.96 569.152l-67.392 7.04 0.768 7.296 67.392-7.04zM202.176 622.4l-28.032 5.248c6.016-4.928 8.32-10.752 7.04-17.536a18.88 18.88 0 0 0-10.56-14.4 27.52 27.52 0 0 0-18.24-2.048 28.16 28.16 0 0 0-16.576 8.64 19.712 19.712 0 0 0-4.48 17.6 17.024 17.024 0 0 0 12.096 14.016l-7.808 1.472 1.28 6.848 66.624-12.544-1.344-7.296z m-26.752-9.6a12.608 12.608 0 0 1-3.2 11.328 22.016 22.016 0 0 1-12.608 6.4l-0.896 0.192a22.592 22.592 0 0 1-13.568-1.024 13.12 13.12 0 0 1-7.552-10.048 13.44 13.44 0 0 1 3.392-12.544 23.68 23.68 0 0 1 12.8-5.952 22.144 22.144 0 0 1 13.952 1.024c4.16 1.856 6.72 5.44 7.68 10.624z" fill="#FFFFFF" p-id="7650"></path><path d="M349.184 436.16c2.88-0.384 5.632-0.64 8.32-0.64 19.904 0 39.552-0.896 59.52 0 22.72 1.152 43.776 8.32 60.8 24.448 17.28 16.64 22.08 38.4 20.48 61.376-2.368 41.6-28.16 61.376-62.272 70.016-26.816 6.784-53.824 6.208-81.28 4.16-1.728 0-3.264-0.832-5.312-1.536-0.384-52.096-0.384-104.832-0.384-157.952l0.128 0.128z m40.768 121.216c6.848 0 13.056 0.32 19.648 0 4.16 0 8.32-0.64 12.544-1.216a40.128 40.128 0 0 0 32.448-38.144c1.152-18.816-9.6-36.992-26.88-41.408-11.904-3.008-24.704-3.008-37.76-4.16v84.928z" fill="#0077FF" p-id="7651"></path><path d="M1435.072 590.464a78.528 78.528 0 0 1-78.72-79.04 78.848 78.848 0 1 1 157.632 0.896 79.104 79.104 0 0 1-78.912 78.144z m40.064-78.4a40.448 40.448 0 1 0-80.64-0.192 40.448 40.448 0 0 0 80.768 0.192h-0.128z m58.56-38.4h36.288c0.32 4.736 0.32 9.152 0.576 13.376 7.424-3.84 14.336-7.68 21.44-10.688 14.336-5.952 27.136-2.752 38.72 7.04 25.344 21.184 27.712 64.384 4.48 88a45.632 45.632 0 0 1-60.8 4.16l-3.52-2.624v42.24h-36.928c-0.32-47.04-0.32-94.144-0.32-141.568l0.064 0.128z m36.608 55.36c0 14.016 9.216 25.344 20.8 25.344 12.224 0 23.936-12.48 23.936-24.96 0-12.608-11.392-24.832-23.296-24.832a22.4 22.4 0 0 0-21.44 24.448z" fill="#A6D0FF" p-id="7652"></path><path d="M638.656 545.152H557.632c2.048 14.016 20.224 23.936 32.192 18.432l4.8-2.048c16-8.96 20.8-8 32.768 5.632 5.12 5.76 5.12 8.96-0.64 13.696a63.808 63.808 0 0 1-46.464 16.448c-25.28-1.536-47.36-10.432-58.88-34.56-19.2-39.68 2.048-85.568 48.768-91.776 32.768-4.48 66.176 15.808 67.584 57.216l0.896 16.96z m-82.176-22.592h41.984c-3.584-11.712-11.264-17.6-21.76-17.344-10.112 0.32-17.6 6.592-20.224 17.28z m156.992 18.432c6.272-19.072 12.16-37.824 18.432-56.64 5.12-15.168 0.896-12.16 16.768-12.544 9.792-0.256 19.584 0 30.72 0a64.64 64.64 0 0 1-1.92 6.592l-42.24 110.912c-1.792 4.416-3.904 6.784-8.96 6.464-9.792-0.64-19.968-0.256-29.824-0.832-2.048 0-5.12-2.176-5.632-3.84-15.232-39.104-30.08-78.464-45.632-118.912 14.592 0 28.352-0.384 42.048 0.256 1.536 0 3.328 3.904 4.224 6.208 6.272 18.56 12.16 36.992 18.112 55.744l2.368 6.848c0.384-0.256 0.896-0.256 1.536-0.256z" fill="#0077FF" p-id="7653"></path><path d="M1671.872 545.408c11.968 4.288 22.016 7.744 32.448 11.072 1.536 0.64 3.328 1.28 4.48 0.64a56.96 56.96 0 0 0 9.6-4.8c-2.176-2.752-3.584-6.848-6.592-8.128a100.48 100.48 0 0 0-20.288-6.464c-19.072-4.288-28.608-15.552-27.072-33.152a35.52 35.52 0 0 1 32.768-32.768c23.808-1.408 40.128 1.792 55.04 11.648l-1.216 3.328c-8.32 21.76-9.216 22.016-30.72 13.952a31.36 31.36 0 0 0-11.264-2.688c-2.624 0-5.376 2.688-8 3.904 1.472 2.368 2.624 5.632 4.8 6.848 6.208 2.624 12.8 4.48 19.584 6.592a41.792 41.792 0 0 1 23.552 16 31.424 31.424 0 0 1-13.632 48.32c-17.088 7.424-34.56 5.632-51.52 0.256a98.048 98.048 0 0 1-18.24-7.68c-5.12-2.688-5.952-7.168-2.944-11.968 2.624-5.376 6.208-10.368 9.216-14.912z" fill="#A6D0FF" p-id="7654"></path><path d="M975.872 593.92a13.44 13.44 0 0 0-3.584 8.512 17.536 17.536 0 0 0 1.536 8.128l-6.208-5.568-4.928 5.44 35.776 32.256 4.928-5.504-18.944-17.088a17.344 17.344 0 0 1-5.952-10.496 11.328 11.328 0 0 1 2.56-10.24 24.256 24.256 0 0 1 5.568-4.672l-5.504-4.992a17.216 17.216 0 0 0-5.248 4.16zM1000.192 566.848a20.224 20.224 0 0 0-5.44 17.28 26.24 26.24 0 0 0 9.152 16.448 26.24 26.24 0 0 0 18.048 7.744c6.08 0 11.52-2.624 16.192-7.744a22.4 22.4 0 0 0 6.208-15.04 21.76 21.76 0 0 0-4.032-12.416l-4.992 5.504c1.664 3.2 2.496 6.016 2.368 8.64a14.912 14.912 0 0 1-4.224 9.152 13.632 13.632 0 0 1-10.56 4.992 20.736 20.736 0 0 1-12.224-5.12l25.408-28.224a33.28 33.28 0 0 0-18.368-8.96c-6.464-0.64-12.352 1.92-17.536 7.68z m4.8 4.032c6.08-6.784 13.312-7.168 21.632-0.96l-20.16 22.4a18.56 18.56 0 0 1-5.312-11.008 13.44 13.44 0 0 1 3.84-10.432zM1011.392 527.04l50.368 45.312 4.928-5.44-50.368-45.376zM1054.4 506.624a20.224 20.224 0 0 0-5.504 17.344 26.24 26.24 0 0 0 9.216 16.448 26.24 26.24 0 0 0 18.048 7.68c6.08 0 11.52-2.56 16.128-7.68a22.4 22.4 0 0 0 6.272-15.04 21.76 21.76 0 0 0-4.096-12.48l-4.928 5.568c1.664 3.136 2.432 5.952 2.304 8.64a14.912 14.912 0 0 1-4.16 9.088 13.632 13.632 0 0 1-10.56 5.056 20.736 20.736 0 0 1-12.288-5.12l25.408-28.288a33.28 33.28 0 0 0-18.304-8.96c-6.528-0.64-12.352 1.984-17.536 7.744z m4.736 4.032c6.144-6.784 13.376-7.168 21.696-0.896l-20.16 22.336a18.56 18.56 0 0 1-5.312-10.944 13.44 13.44 0 0 1 3.84-10.496zM1092.224 464.64a25.472 25.472 0 0 0-6.784 12.544c-0.832 4.48 0.32 8.96 3.392 13.056l5.312-5.12a10.496 10.496 0 0 1-1.92-8.128 15.36 15.36 0 0 1 4.224-7.872c5.632-6.272 11.392-6.656 17.408-1.28l1.92 1.728-7.616 8.704a30.848 30.848 0 0 0-8.192 15.168 13.568 13.568 0 0 0 4.8 13.184 12.16 12.16 0 0 0 10.24 3.2 17.28 17.28 0 0 0 10.368-6.208 24.448 24.448 0 0 0 5.824-10.88 22.4 22.4 0 0 0 0.128-9.792l6.016 5.44 4.672-5.184-22.976-20.672a19.2 19.2 0 0 0-12.608-5.632c-4.928 0.064-9.6 2.624-14.208 7.744z m27.648 8.64l3.072 2.752c2.752 2.496 4.096 6.016 3.904 10.56a18.176 18.176 0 0 1-4.736 11.968 11.776 11.776 0 0 1-6.464 3.968 6.592 6.592 0 0 1-5.888-1.664c-5.184-4.672-4.224-11.072 2.88-19.2l7.232-8.384zM1126.912 426.112a22.208 22.208 0 0 0-6.144 12.224 11.008 11.008 0 0 0 3.584 10.496 10.24 10.24 0 0 0 10.688 2.24 41.344 41.344 0 0 0 11.136-6.016c4.48-3.008 7.488-4.864 9.152-5.504 3.072-1.28 5.632-1.024 7.68 0.768 3.968 3.584 3.2 8.704-2.56 15.104a15.616 15.616 0 0 1-7.872 5.312c-2.56 0.448-5.568-0.32-8.768-2.496l-4.864 5.376c8.96 6.592 17.792 5.248 26.24-4.16 9.088-10.112 9.92-18.56 2.56-25.152a11.2 11.2 0 0 0-11.2-2.304 44.032 44.032 0 0 0-11.584 6.208c-4.224 2.752-7.232 4.48-9.024 5.312-2.88 1.152-5.12 0.896-6.592-0.448-1.6-1.472-2.176-3.328-1.728-5.696a13.504 13.504 0 0 1 3.84-7.04 14.976 14.976 0 0 1 7.616-5.12c2.176-0.448 4.672 0.128 7.296 1.664l4.864-5.44c-8.32-5.76-16.32-4.16-24.32 4.672zM1162.752 386.304a20.224 20.224 0 0 0-5.504 17.408 26.24 26.24 0 0 0 9.152 16.384 26.24 26.24 0 0 0 18.112 7.744c6.016 0 11.52-2.624 16.128-7.744a22.4 22.4 0 0 0 6.272-15.04 21.76 21.76 0 0 0-4.096-12.48l-4.992 5.568c1.664 3.136 2.496 6.016 2.368 8.64a14.912 14.912 0 0 1-4.224 9.088 13.632 13.632 0 0 1-10.496 5.12 20.736 20.736 0 0 1-12.288-5.184l25.408-28.288a33.28 33.28 0 0 0-18.368-8.96c-6.464-0.64-12.352 2.048-17.472 7.744z m4.736 4.032c6.08-6.72 13.312-7.104 21.632-0.896l-20.096 22.336a18.56 18.56 0 0 1-5.312-10.88 13.44 13.44 0 0 1 3.776-10.56z" fill="#FFFFFF" p-id="7655"></path><path d="M874.112 264.064a17.088 17.088 0 0 0-17.6-5.76l5.888-5.248-4.672-5.184-49.472 44.544 4.992 5.504 20.16-18.176c-2.432 7.232-1.408 13.44 3.2 18.56 4.608 5.12 10.112 7.296 16.448 6.848a28.288 28.288 0 0 0 16.704-7.744 27.968 27.968 0 0 0 9.6-16 19.52 19.52 0 0 0-5.248-17.28z m-5.248 3.456c3.456 3.84 4.672 7.936 3.584 12.544a24.32 24.32 0 0 1-7.808 11.648 22.976 22.976 0 0 1-12.608 6.464 13.952 13.952 0 0 1-11.904-5.12 12.608 12.608 0 0 1-3.2-11.264c0.64-4.416 3.136-8.32 7.232-12.096l0.704-0.64a22.208 22.208 0 0 1 12.288-6.144 12.8 12.8 0 0 1 11.712 4.608zM912.32 279.104l-50.368 45.44 4.928 5.44 50.368-45.44zM928.832 324.864a25.472 25.472 0 0 0-11.776-8.064 16.512 16.512 0 0 0-13.376 2.048l4.48 5.76a10.496 10.496 0 0 1 8.384-0.96 15.36 15.36 0 0 1 7.424 4.992c5.568 6.272 5.44 12.032-0.64 17.472l-1.856 1.664-7.808-8.448a30.848 30.848 0 0 0-14.272-9.728 13.568 13.568 0 0 0-13.632 3.392 12.16 12.16 0 0 0-4.224 9.792 17.28 17.28 0 0 0 5.056 11.008c2.944 3.328 6.4 5.632 10.24 6.912a22.4 22.4 0 0 0 9.664 1.216l-6.016 5.376 4.672 5.184 23.04-20.672a19.2 19.2 0 0 0 6.848-11.968c0.448-4.928-1.6-9.856-6.208-14.976z m-11.52 26.624l-3.008 2.752c-2.752 2.56-6.4 3.456-10.88 2.816a18.176 18.176 0 0 1-11.456-6.016 11.776 11.776 0 0 1-3.2-6.848 6.592 6.592 0 0 1 2.24-5.632c5.184-4.672 11.456-3.072 18.816 4.864l7.552 8.064zM967.232 367.488a17.152 17.152 0 0 0-7.488-4.928 16.896 16.896 0 0 0-8.832-0.64l5.248-4.736-4.992-5.568-35.84 32.256 5.056 5.504 21.568-19.456a15.488 15.488 0 0 1 10.624-3.776 11.84 11.84 0 0 1 8.512 4.032c5.568 6.208 4.992 12.48-1.984 18.816l-21.632 19.392 4.992 5.568 22.016-19.84c9.856-8.832 10.688-17.728 2.752-26.624z" fill="#FFFFFF" p-id="7656"></path><path d="M1924.8 290.112c-19.136 0-37.312 0.576-55.488 0-28.544-0.896-56.832-2.752-85.376-3.968a24.384 24.384 0 0 1-16.128-5.952 232.96 232.96 0 0 0-109.12-54.208 277.504 277.504 0 0 0-88.704-3.2c-55.744 6.528-106.944 25.216-155.84 52.352-0.256 0.32-0.896 0-2.688 0 3.264-44.16 6.272-88.192 9.6-133.12-46.528-3.968-92.416-7.552-139.776-11.392 2.112-1.472 2.944-2.624 4.48-3.2A775.296 775.296 0 0 1 1502.976 45.44a551.168 551.168 0 0 1 150.08-9.92 456.384 456.384 0 0 1 235.392 83.776c16 11.328 30.72 25.344 45.568 38.4a13.824 13.824 0 0 1 3.2 9.6c-2.304 27.456-5.248 54.848-8.192 81.92-1.28 14.08-2.752 28.032-4.288 40.896h0.064z" fill="#A6D0FF" p-id="7657"></path><path d="M1572.224 92.544l5.888 27.84c-5.056-5.888-10.88-8.064-17.664-6.592a18.88 18.88 0 0 0-14.144 10.88 27.52 27.52 0 0 0-1.664 18.24 28.16 28.16 0 0 0 8.96 16.384 19.712 19.712 0 0 0 17.728 4.032 17.024 17.024 0 0 0 13.76-12.288l1.6 7.68 6.848-1.408-14.016-66.304-7.296 1.536z m-8.96 26.88a12.608 12.608 0 0 1 11.392 2.944c3.2 2.816 5.568 7.04 6.72 12.48l0.192 0.896a22.592 22.592 0 0 1-0.768 13.568 13.12 13.12 0 0 1-9.856 7.808 13.44 13.44 0 0 1-12.608-3.136 23.68 23.68 0 0 1-6.208-12.672 22.144 22.144 0 0 1 0.64-13.952c1.792-4.16 5.312-6.784 10.496-7.936zM1624.832 107.584c-6.976 0-12.416 2.56-16.512 7.616a26.24 26.24 0 0 0-6.016 17.792 26.24 26.24 0 0 0 6.4 18.56c4.096 4.48 9.664 6.784 16.576 6.784a22.4 22.4 0 0 0 15.36-5.44 21.76 21.76 0 0 0 6.4-11.392h-7.36a16.832 16.832 0 0 1-4.864 7.616 14.912 14.912 0 0 1-9.6 3.008 13.632 13.632 0 0 1-10.752-4.48 20.736 20.736 0 0 1-4.48-12.544l38.016-0.128a33.28 33.28 0 0 0-5.632-19.584c-3.904-5.248-9.792-7.808-17.536-7.808z m0.256 6.272c9.088 0 14.208 5.12 15.168 15.36l-30.08 0.128a18.56 18.56 0 0 1 4.544-11.328 13.44 13.44 0 0 1 10.368-4.16zM1685.952 112.128a17.088 17.088 0 0 0-17.088 7.04l1.024-7.872-6.912-0.896-8.768 65.92 7.424 1.024 3.52-26.944c2.816 7.104 7.68 11.136 14.464 12.032a19.264 19.264 0 0 0 16.96-5.44 28.288 28.288 0 0 0 7.68-16.704 27.968 27.968 0 0 0-3.072-18.368 19.52 19.52 0 0 0-15.232-9.792z m-1.728 5.952c5.056 0.64 8.704 3.008 10.88 7.232a24.32 24.32 0 0 1 1.6 13.952 22.976 22.976 0 0 1-5.376 13.12 13.952 13.952 0 0 1-12.48 3.776 12.608 12.608 0 0 1-9.728-6.4 20.672 20.672 0 0 1-2.304-13.952l0.128-0.96a22.208 22.208 0 0 1 5.376-12.608 12.8 12.8 0 0 1 11.904-4.16zM1725.952 100.16l-13.952 66.368 7.168 1.472 13.952-66.304zM1766.656 130.432a21.312 21.312 0 0 0-18.624 2.176 26.496 26.496 0 0 0-11.136 15.36 25.984 25.984 0 0 0 0.704 18.816 21.376 21.376 0 0 0 14.272 12.224 21.824 21.824 0 0 0 18.816-2.176 26.368 26.368 0 0 0 10.88-15.232 26.496 26.496 0 0 0-0.64-19.008 21.44 21.44 0 0 0-14.272-12.16z m-1.792 6.016c4.8 1.472 8.064 4.48 9.792 9.088a22.336 22.336 0 0 1-0.256 13.824 22.4 22.4 0 0 1-7.488 11.52 14.336 14.336 0 0 1-13.184 2.176 13.824 13.824 0 0 1-9.728-9.088 21.568 21.568 0 0 1 0.192-13.76 21.696 21.696 0 0 1 7.552-11.648 13.824 13.824 0 0 1 13.12-2.112zM1797.696 142.08l-0.96 50.752-15.36 14.72 7.488 3.2 50.432-50.88-7.552-3.2-28.032 29.312 1.408-40.704z" fill="#FFFFFF" p-id="7658"></path><path d="M472.64 846.976l-7.872 1.152-3.072 12.16-9.344-2.368-1.536 6.016 9.408 2.368-7.488 29.696c-0.896 3.52-0.832 6.336 0.256 8.512 1.152 2.432 3.712 4.096 7.488 5.056l7.04 1.792 1.536-6.08-5.952-1.472c-1.664-0.448-2.688-1.152-3.2-2.048-0.512-0.896-0.448-2.24 0-3.968l7.424-29.696 11.52 2.88 1.536-6.016-11.52-2.944 3.776-15.04zM505.408 866.176a20.224 20.224 0 0 0-17.28 5.76 26.24 26.24 0 0 0-7.808 17.088 26.24 26.24 0 0 0 4.352 19.2c3.648 4.864 8.96 7.744 15.808 8.448a22.4 22.4 0 0 0 15.808-3.776 21.76 21.76 0 0 0 7.68-10.624l-7.424-0.768a16.832 16.832 0 0 1-5.568 7.04 14.912 14.912 0 0 1-9.856 1.92 13.632 13.632 0 0 1-10.24-5.568 20.736 20.736 0 0 1-3.136-12.928l37.76 3.904a33.28 33.28 0 0 0-3.456-20.096c-3.392-5.632-8.96-8.832-16.64-9.6z m-0.448 6.208c9.088 0.96 13.632 6.592 13.504 16.96l-29.888-3.136a18.56 18.56 0 0 1 5.696-10.688 13.44 13.44 0 0 1 10.688-3.136zM551.04 867.584a22.208 22.208 0 0 0-13.056 4.096 11.008 11.008 0 0 0-5.12 9.856 10.24 10.24 0 0 0 5.824 9.216 41.344 41.344 0 0 0 12.096 3.84c5.248 1.152 8.704 2.048 10.304 2.752 3.072 1.344 4.672 3.328 4.8 6.08 0.192 5.376-4.096 8.32-12.672 8.576a15.616 15.616 0 0 1-9.28-1.92c-2.112-1.6-3.584-4.224-4.288-8l-7.232 0.256c1.472 11.008 8.576 16.384 21.184 15.936 13.632-0.512 20.224-5.76 19.84-15.616a11.2 11.2 0 0 0-6.08-9.6 44.032 44.032 0 0 0-12.48-4.096 71.296 71.296 0 0 1-10.112-2.816c-2.816-1.28-4.16-3.008-4.224-5.12-0.128-2.112 0.896-3.84 2.88-5.12a13.504 13.504 0 0 1 7.744-2.112 14.976 14.976 0 0 1 8.96 1.92c1.92 1.28 3.2 3.456 3.84 6.4l7.296-0.256c-1.6-9.984-8.32-14.72-20.224-14.272zM589.888 849.728l-6.848 4.096 1.792 12.352-9.6 1.408 0.896 6.144 9.6-1.408 4.352 30.336c0.512 3.584 1.664 6.144 3.456 7.808 1.92 1.792 4.992 2.368 8.832 1.792l7.168-1.024-0.832-6.144-6.08 0.832c-1.664 0.256-2.944 0-3.712-0.64-0.832-0.64-1.28-1.92-1.536-3.648l-4.416-30.336 11.84-1.728-0.896-6.144-11.84 1.664-2.176-15.36z" fill="#FFFFFF" p-id="7659"></path><path d="M1390.272 806.08c-4.672-2.752-9.856-2.944-15.68-0.32l3.328-5.504-6.4-3.84-24.64 41.344 6.4 3.84 14.976-25.216a14.4 14.4 0 0 1 7.872-6.592 10.24 10.24 0 0 1 9.344 0.832c6.336 3.776 7.36 9.28 3.008 16.64l-15.552 26.048 6.4 3.84 15.424-25.92a13.184 13.184 0 0 1 7.68-6.4 9.92 9.92 0 0 1 8.576 1.024c3.52 2.112 5.504 4.48 5.952 7.36 0.512 2.688-0.32 5.888-2.56 9.6l-15.488 25.984 6.4 3.84 16.128-27.072a18.752 18.752 0 0 0 2.816-13.632 16.384 16.384 0 0 0-8-10.368 15.36 15.36 0 0 0-8.448-2.368 17.664 17.664 0 0 0-9.28 2.432c0.832-6.656-1.92-11.776-8.32-15.552zM1457.6 840.256a21.312 21.312 0 0 0-18.752 0.64 26.496 26.496 0 0 0-12.288 14.4 25.984 25.984 0 0 0-0.832 18.816 21.376 21.376 0 0 0 13.248 13.312 21.824 21.824 0 0 0 18.88-0.64 26.368 26.368 0 0 0 12.16-14.336 26.496 26.496 0 0 0 0.896-18.944 21.44 21.44 0 0 0-13.312-13.248z m-2.304 5.76c4.672 1.92 7.68 5.12 9.024 9.856a22.336 22.336 0 0 1-1.28 13.824 22.4 22.4 0 0 1-8.448 10.88 14.336 14.336 0 0 1-13.312 1.088 13.824 13.824 0 0 1-8.96-9.856 21.568 21.568 0 0 1 1.28-13.696 21.696 21.696 0 0 1 8.512-11.008 13.824 13.824 0 0 1 13.184-1.088zM1508.736 856.512a17.152 17.152 0 0 0-8.96-0.128 16.896 16.896 0 0 0-7.808 4.288l1.92-6.848-7.232-1.92-12.544 46.464 7.232 1.92 7.552-28.032a15.488 15.488 0 0 1 6.848-8.96 11.84 11.84 0 0 1 9.28-1.28c8.064 2.24 11.008 7.808 8.576 16.896l-7.552 28.096 7.168 1.92 7.68-28.608c3.456-12.8-0.64-20.736-12.16-23.808zM1546.304 847.488a5.312 5.312 0 0 0-4.224 0.832c-1.28 0.704-1.92 1.92-2.24 3.584a5.312 5.312 0 0 0 0.832 4.224 5.76 5.76 0 0 0 3.648 2.24 5.76 5.76 0 0 0 4.224-0.832 5.44 5.44 0 0 0 2.368-3.648 4.8 4.8 0 0 0-0.96-4.096 5.312 5.312 0 0 0-3.648-2.304z m-6.912 17.216l-8.64 47.36 7.296 1.28 8.64-47.36-7.296-1.28zM1574.72 853.504l-7.68 2.368-1.216 12.416-9.6-1.024-0.64 6.208 9.6 1.024-3.008 30.464c-0.384 3.584 0.064 6.4 1.472 8.32 1.472 2.24 4.224 3.584 8.128 3.968l7.232 0.704 0.64-6.208-6.144-0.64c-1.664-0.128-2.816-0.704-3.392-1.536-0.64-0.768-0.832-2.112-0.64-3.84l3.072-30.528 11.84 1.216 0.64-6.208-11.84-1.216 1.536-15.488zM1613.12 868.608a21.312 21.312 0 0 0-17.152 7.68 26.496 26.496 0 0 0-5.952 17.984 25.984 25.984 0 0 0 6.4 17.728 21.376 21.376 0 0 0 17.28 7.36 21.824 21.824 0 0 0 17.216-7.68 26.368 26.368 0 0 0 5.824-17.92 26.496 26.496 0 0 0-6.336-17.92 21.44 21.44 0 0 0-17.28-7.232z m0 6.272c5.12-0.064 9.088 1.856 12.16 5.76 2.56 3.456 3.84 7.808 3.968 13.248a22.4 22.4 0 0 1-3.712 13.248 14.336 14.336 0 0 1-11.904 6.016 13.824 13.824 0 0 1-12.032-5.76 21.568 21.568 0 0 1-3.968-13.184c0-5.376 1.152-9.792 3.712-13.376a13.824 13.824 0 0 1 11.84-5.952zM1664.384 864.128a13.44 13.44 0 0 0-8.256 4.288 17.536 17.536 0 0 0-4.032 7.232l-1.152-8.32-7.296 1.024 6.656 47.68 7.296-1.024-3.52-25.28c-0.64-4.416 0-8.32 2.176-11.84a11.328 11.328 0 0 1 8.64-6.208 24.256 24.256 0 0 1 7.232 0l-1.024-7.36a17.216 17.216 0 0 0-6.72-0.192z" fill="#FFFFFF" p-id="7660"></path></svg>