<?xml version="1.0" standalone="no"?><!DOCTYPE svg PUBLIC "-//W3C//DTD SVG 1.1//EN" "http://www.w3.org/Graphics/SVG/1.1/DTD/svg11.dtd"><svg t="1751436107550" class="icon" viewBox="0 0 1024 1024" version="1.1" xmlns="http://www.w3.org/2000/svg" p-id="4654" xmlns:xlink="http://www.w3.org/1999/xlink" width="256" height="256"><path d="M213.333333 731.338272c-28.444444 0-54.270194-23.297354-54.270194-51.5612s23.297354-51.696649 54.270194-51.696649 54.495944 23.297354 54.495944 51.651499-25.870899 51.561199-54.541094 51.6515z m666.096649-281.374251c-5.598589-41.267019-31.198589-74.903704-64.880423-100.684303l-13.093474-10.38448-10.56508 12.867725c-20.54321 23.297354-28.715344 64.609524-26.186949 95.492063 2.483245 23.387654 9.978131 46.594709 23.071605 64.654674-10.565079 5.417989-23.613404 10.38448-33.681834 15.712169-23.703704 7.765785-46.775309 10.38448-69.892063 10.38448H16.840917l-2.483245 15.39612c-5.01164 49.168254 2.483245 100.684303 23.387654 147.279012l10.15873 18.105115v2.483245c62.397178 103.302998 173.465961 149.762257 294.467725 149.762258 232.747795 0 423.596473-100.684303 514.076896-317.53933 59.281834 2.573545 119.150617-12.867725 147.279013-69.756614l7.494885-12.867725-12.461376-7.765784c-33.681834-20.54321-79.870194-23.297354-118.563668-12.867725l-0.632099-0.22575zM546.313933 408.697002H445.31358v100.684303h101.090653V408.651852H546.313933z m0-126.510053H445.31358v100.684303h101.090653V282.322399l-0.0903-0.13545z m0-129.128748H445.31358v100.684303h101.090653V153.058201H546.313933z m123.575309 255.729101h-100.458554v100.684303h100.684303V408.742152h-0.270899z m-374.337919 0.045149H195.183069v100.684304h100.729453V408.787302h-0.361199z m126.058554 0.04515H321.783422v100.684304h100.413403V408.832451h-0.586948z m-250.852911 0.04515H71.065961v100.684304h101.000353V408.877601h-1.309348z m250.852911-126.510053H321.783422v100.684304h100.413403V282.548148l-0.586948-0.13545z m-126.690653 0H195.318519v100.684304h100.368253V282.548148l-0.767548-0.13545z" fill="#1488C6" p-id="4655"></path></svg>