<?xml version="1.0" standalone="no"?><!DOCTYPE svg PUBLIC "-//W3C//DTD SVG 1.1//EN" "http://www.w3.org/Graphics/SVG/1.1/DTD/svg11.dtd"><svg t="1755739614789" class="icon" viewBox="0 0 1024 1024" version="1.1" xmlns="http://www.w3.org/2000/svg" p-id="7942" xmlns:xlink="http://www.w3.org/1999/xlink" width="256" height="256"><path d="M582.112 418.272H662.4v82.112h40.64a176 176 0 0 0 55.808-9.344 142.784 142.784 0 0 0 27.136-12.256 100.768 100.768 0 0 1-18.848-51.936 109.664 109.664 0 0 1 19.712-77.312l8.448-9.76 10.048 8.096a128 128 0 0 1 50.4 81.216 122.784 122.784 0 0 1 93.216 8.672l11.04 6.4-5.792 11.328a116.128 116.128 0 0 1-116.736 55.68c-69.536 173.216-220.8 255.232-404.544 255.232A254.656 254.656 0 0 1 201.6 646.752l-0.8-1.376-7.232-14.688a232.96 232.96 0 0 1-18.528-118.176l1.12-12.16h68.576v-82.08h80.32v-80.32h160.64v-80.32h96.384v160.64z" fill="#3A4E55" p-id="7943"></path><path d="M842.368 448.672a105.952 105.952 0 0 0-45.376-90.272 98.304 98.304 0 0 0 9.248 122.272 168.928 168.928 0 0 1-103.2 33.184H188.256a216.928 216.928 0 0 0 21.344 119.584l5.856 10.72a198.4 198.4 0 0 0 12.128 18.208q31.744 2.048 58.528 1.44a287.104 287.104 0 0 0 85.408-12.448 6.176 6.176 0 1 1 4.032 11.68c-2.88 0.992-5.888 1.952-8.992 2.816a268.8 268.8 0 0 1-59.04 9.6c1.408 0-1.472 0.224-1.472 0.224l-2.624 0.224a686.56 686.56 0 0 1-64.256-0.192l-0.32 0.224a252.224 252.224 0 0 0 194.016 77.12c177.92 0 328.832-78.88 395.68-256 47.424 4.864 92.992-7.232 113.696-47.68a112 112 0 0 0-99.904-0.704" fill="#00AADA" p-id="7944"></path><path d="M842.368 448.672a105.952 105.952 0 0 0-45.376-90.272 98.304 98.304 0 0 0 9.248 122.272 168.928 168.928 0 0 1-103.2 33.184H218.752a167.136 167.136 0 0 0 67.392 149.952 287.104 287.104 0 0 0 85.408-12.448 6.176 6.176 0 1 1 4.032 11.68c-2.88 0.992-5.888 1.952-8.992 2.816a282.56 282.56 0 0 1-60.608 10.048l-0.608-0.704c60.544 31.072 148.352 30.944 249.024-7.712a699.776 699.776 0 0 0 291.2-220.448l-3.2 1.536" fill="#27B9EC" p-id="7945"></path><path d="M189.216 567.424a205.792 205.792 0 0 0 20.384 65.952l5.856 10.72a198.4 198.4 0 0 0 12.128 18.208q31.744 2.048 58.528 1.44a287.104 287.104 0 0 0 85.408-12.448 6.176 6.176 0 1 1 4.032 11.68c-2.88 0.992-5.888 1.952-8.992 2.816a282.432 282.432 0 0 1-60.512 9.824h-3.2c-9.312 0.512-19.2 0.832-29.504 0.832-11.232 0-22.688-0.224-35.2-0.832a253.216 253.216 0 0 0 194.432 77.216c152.32 0 284.8-57.824 361.6-185.6z" fill="#088CB9" p-id="7946"></path><path d="M223.36 567.424a154.624 154.624 0 0 0 62.752 96.32 287.104 287.104 0 0 0 85.408-12.448 6.176 6.176 0 1 1 4.032 11.68c-2.88 0.992-5.888 1.952-8.992 2.816a286.688 286.688 0 0 1-60.8 9.824c60.544 31.072 148.096 30.624 248.736-8.064a657.44 657.44 0 0 0 172.064-100.16z" fill="#039CC7" p-id="7947"></path><path d="M316.448 437.472h5.504v58.016h-5.504v-58.016z m-10.56 0h5.728v58.016h-5.728v-58.016z m-10.56 0h5.728v58.016H295.36v-58.016z m-10.56 0h5.728v58.016H284.8v-58.016z m-10.56 0h5.728v58.016H274.24v-58.016z m-10.336 0h5.504v58.016h-5.44v-58.016z m-5.792-5.792h69.6v69.632H258.112V431.68zM396.8 357.152h5.504v58.016H396.8v-58.016z m-10.56 0h5.728v58.016h-5.728v-58.016z m-10.56 0h5.728v58.016h-5.728v-58.016z m-10.56 0h5.728v58.016h-5.728v-58.016z m-10.56 0h5.696v58.016h-5.696v-58.016z m-10.336 0h5.504v58.016h-5.504v-58.016z m-5.792-5.792h69.632v69.632h-69.6v-69.664z" fill="#00ACD3" p-id="7948"></path><path d="M396.8 437.472h5.504v58.016H396.8v-58.016z m-10.56 0h5.728v58.016h-5.728v-58.016z m-10.56 0h5.728v58.016h-5.728v-58.016z m-10.56 0h5.728v58.016h-5.728v-58.016z m-10.56 0h5.696v58.016h-5.696v-58.016z m-10.336 0h5.504v58.016h-5.504v-58.016z m-5.792-5.792h69.632v69.632h-69.6V431.68z" fill="#26C2EE" p-id="7949"></path><path d="M477.088 437.472h5.504v58.016h-5.504v-58.016z m-10.56 0h5.728v58.016h-5.696v-58.016z m-10.56 0h5.728v58.016h-5.696v-58.016z m-10.56 0h5.792v58.016h-5.728v-58.016z m-10.56 0h5.728v58.016h-5.728v-58.016z m-10.336 0h5.504v58.016h-5.504v-58.016z m-5.792-5.792h69.632v69.632h-69.568V431.68z" fill="#00ACD3" p-id="7950"></path><path d="M477.088 357.152h5.504v58.016h-5.504v-58.016z m-10.56 0h5.728v58.016h-5.696v-58.016z m-10.56 0h5.728v58.016h-5.696v-58.016z m-10.56 0h5.792v58.016h-5.728v-58.016z m-10.56 0h5.728v58.016h-5.728v-58.016z m-10.336 0h5.504v58.016h-5.504v-58.016z m-5.792-5.792h69.632v69.632h-69.568v-69.664zM557.44 437.472h5.504v58.016h-5.504v-58.016z m-10.56 0h5.728v58.016h-5.728v-58.016z m-10.56 0h5.728v58.016h-5.728v-58.016z m-10.56 0h5.728v58.016h-5.728v-58.016z m-10.56 0h5.728v58.016H515.2v-58.016z m-10.336 0h5.504v58.016h-5.504v-58.016z m-5.664-5.792h69.632v69.632H499.2V431.68z" fill="#26C2EE" p-id="7951"></path><path d="M557.44 357.152h5.504v58.016h-5.504v-58.016z m-10.56 0h5.728v58.016h-5.728v-58.016z m-10.56 0h5.728v58.016h-5.728v-58.016z m-10.56 0h5.728v58.016h-5.728v-58.016z m-10.56 0h5.728v58.016H515.2v-58.016z m-10.336 0h5.504v58.016h-5.504v-58.016z m-5.792-5.792h69.632v69.632H499.2v-69.664z" fill="#00ACD3" p-id="7952"></path><path d="M557.44 276.8h5.504v58.016h-5.504V276.8z m-10.56 0h5.728v58.016h-5.728V276.8z m-10.56 0h5.728v58.016h-5.728V276.8z m-10.56 0h5.728v58.016h-5.728V276.8z m-10.56 0h5.728v58.016H515.2V276.8z m-10.336 0h5.504v58.016h-5.504V276.8z m-5.664-5.792h69.632v69.632H499.2V271.008z" fill="#26C2EE" p-id="7953"></path><path d="M637.76 437.472h5.44v58.016h-5.44v-58.016z m-10.56 0h5.696v58.016H627.2v-58.016z m-10.56 0h5.728v58.016h-5.728v-58.016z m-10.56 0h5.728v58.016h-5.728v-58.016z m-10.56 0h5.728v58.016h-5.728v-58.016z m-10.336 0h5.504v58.016h-5.504v-58.016z m-5.792-5.792h69.632v69.632h-69.6V431.68z" fill="#00ACD3" p-id="7954"></path><path d="M403.712 614.176a19.2 19.2 0 1 1-19.2 19.2 19.2 19.2 0 0 1 19.2-19.2" fill="#D5EEF2" p-id="7955"></path><path d="M403.712 619.616a13.792 13.792 0 0 1 4.992 0.928 5.6 5.6 0 1 0 7.712 7.552 13.76 13.76 0 1 1-12.8-8.48M64 574.368h893.44c-19.456-4.928-61.536-11.584-54.624-37.088-35.36 40.928-120.672 28.8-142.208 8.544-23.968 34.784-163.552 21.568-173.28-5.536-30.048 35.2-123.2 35.2-153.248 0-9.6 27.104-149.312 40.32-173.28 5.536-21.536 20.192-106.816 32.384-142.208-8.544 6.944 25.6-35.2 32.16-54.624 37.088" fill="#3A4E55" p-id="7956"></path><path d="M454.752 752.576a169.184 169.184 0 0 1-88.192-86.752 294.4 294.4 0 0 1-63.584 9.6q-13.952 0.768-29.344 0.8-17.728 0-37.376-1.056a254.144 254.144 0 0 0 196.64 77.76q11.008 0 21.856-0.416" fill="#C0DBE1" p-id="7957"></path><path d="M384.224 696.736a166.592 166.592 0 0 1-17.664-30.912 294.4 294.4 0 0 1-63.584 9.6 202.4 202.4 0 0 0 81.248 21.248" fill="#D5EEF2" p-id="7958"></path></svg>