<?xml version="1.0" standalone="no"?><!DOCTYPE svg PUBLIC "-//W3C//DTD SVG 1.1//EN" "http://www.w3.org/Graphics/SVG/1.1/DTD/svg11.dtd"><svg t="1751436368425" class="icon" viewBox="0 0 1024 1024" version="1.1" xmlns="http://www.w3.org/2000/svg" p-id="10732" xmlns:xlink="http://www.w3.org/1999/xlink" width="256" height="256"><path d="M512 512m-512 0a512 512 0 1 0 1024 0 512 512 0 1 0-1024 0Z" fill="#7765E4" p-id="10733"></path><path d="M162.901333 614.4c9.258667 0 18.133333 3.605333 24.682667 10.005333 6.549333 6.4 10.24 15.082667 10.24 24.128 0 9.045333-3.690667 17.728-10.24 24.128-6.528 6.4-15.424 10.005333-24.682667 10.005334-9.258667 0-18.133333-3.605333-24.682666-10.005334-6.549333-6.4-10.218667-15.082667-10.218667-24.128 0-9.045333 3.669333-17.728 10.24-24.128 6.528-6.4 15.402667-10.005333 24.661333-10.005333zM826.176 682.666667h-69.802667V409.6h-69.824V341.333333H896v68.266667h-69.824V682.666667z m-174.528-341.333334v68.266667h-69.824v68.266667h69.824v68.266666h-69.824v68.266667h69.824V682.666667H512V341.333333h139.648z m-174.549333 0v341.333334H407.253333l-104.746666-204.8V682.666667H232.746667V341.333333h69.824l104.725333 204.8V341.333333h69.824z" fill="#FFFFFF" p-id="10734"></path></svg>