<?xml version="1.0" standalone="no"?><!DOCTYPE svg PUBLIC "-//W3C//DTD SVG 1.1//EN" "http://www.w3.org/Graphics/SVG/1.1/DTD/svg11.dtd"><svg t="1769396587316" class="icon" viewBox="0 0 1024 1024" version="1.1" xmlns="http://www.w3.org/2000/svg" p-id="8048" xmlns:xlink="http://www.w3.org/1999/xlink" width="256" height="256"><path d="M512 512m-384 0a384 384 0 1 0 768 0 384 384 0 1 0-768 0Z" fill="#D64E6D" p-id="8049"></path><path d="M698.88 575.296c25.472-26.624 67.904-16.384 75.904 19.072 3.52 15.808 9.984 22.528 24.064 29.248a45.056 45.056 0 0 1 6.592 78.08c-6.848-11.648-11.776-25.216-21.056-34.56-15.232-15.36-38.144-11.2-60.992 9.216-54.592 48.832-118.016 70.976-191.36 67.776-155.52-6.848-276.736-181.504-225.664-326.4 33.28-94.336 132.672-151.488 226.944-130.368 99.52 22.272 168.576 113.472 157.888 213.568-3.2 29.888-16.384 58.624-24.96 87.936-3.648 12.352-10.944 25.216-9.728 37.12 2.048 19.968 15.808 33.408 37.056 35.008 20.096 1.536 34.56-9.216 40.448-27.52 6.08-19.072 1.536-36.864-16.64-48.576-5.76-3.712-12.16-6.4-18.496-9.6" fill="#FFFFFF" p-id="8050"></path></svg>