<?xml version="1.0" standalone="no"?><!DOCTYPE svg PUBLIC "-//W3C//DTD SVG 1.1//EN" "http://www.w3.org/Graphics/SVG/1.1/DTD/svg11.dtd"><svg t="1754371145715" class="icon" viewBox="0 0 1024 1024" version="1.1" xmlns="http://www.w3.org/2000/svg" p-id="10399" xmlns:xlink="http://www.w3.org/1999/xlink" width="256" height="256"><path d="M648.544 745.824l273.056-273.056h-312.32l-116.736 117.088 156 156zM609.28 5.12L102.4 512l156 156L921.6 5.12z" fill="#42A5F5" opacity=".8" p-id="10400"></path><path d="M558.752 878.944l-44.384 44.704-21.856-21.856v0.352l116.736 116.736h312.32l-267.616-267.616 69.984 70.656z" fill="#0D47A1" p-id="10401"></path><path d="M336.736 746.112l155.904-155.936 155.936 155.904-155.904 155.936-155.936-155.904z" fill="#42A5F5" p-id="10402"></path><path d="M514.4 923.648l44.384-44.704-66.208 22.88z" fill="#0D47A1" p-id="10403"></path><path d="M514.4 923.648l44.384-44.704-66.208 22.88zM648.544 745.824zM492.544 901.792zM648.544 745.824v0.352zM648.544 745.824z" p-id="10404"></path><path d="M492.544 901.792z" fill="#0D47A1" p-id="10405"></path><path d="M492.544 901.792z" p-id="10406"></path><path d="M648.544 746.144l21.504 21.504-111.264 111.264 165.216-56.992-75.424-76.128z" fill="#0D47A1" p-id="10407"></path><path d="M648.544 746.144l21.504 21.504-111.264 111.264 165.216-56.992-75.424-76.128zM648.544 746.144l-156 155.648zM648.544 746.144l-156 155.648z" p-id="10408"></path><path d="M492.544 901.792l66.208-22.88 111.264-111.264-21.504-21.504-156 155.648z" fill="#0D47A1" p-id="10409"></path><path d="M492.544 901.792l66.208-22.88 111.264-111.264-21.504-21.504-156 155.648z" p-id="10410"></path><path d="M492.544 901.792l66.208-22.88 111.264-111.264-21.504-21.504-156 155.648z" p-id="10411"></path></svg>