<?xml version="1.0" standalone="no"?><!DOCTYPE svg PUBLIC "-//W3C//DTD SVG 1.1//EN" "http://www.w3.org/Graphics/SVG/1.1/DTD/svg11.dtd"><svg t="1780536839619" class="icon" viewBox="0 0 1024 1024" version="1.1" xmlns="http://www.w3.org/2000/svg" p-id="12740" xmlns:xlink="http://www.w3.org/1999/xlink" width="256" height="256"><path d="M144.981333 96l66.005334 746.581333 300.8 85.418667 299.605333-85.418667L878.72 96H144.981333z m610.901334 700.586667l-244.053334 69.632-245.248-69.632L209.92 155.392H813.653333L755.882667 796.586667z" fill="#4FA546" p-id="12741"></path><path d="M209.877333 155.392L266.581333 796.586667l245.205334 69.589333 244.053333-69.589333L813.653333 155.392H209.92zM740.266667 273.28l-4.778667 47.189333-1.706667 19.498667H381.696l8.192 94.208h121.088v-0.213333h214.698667l-3.2 24.32-21.205334 242.176-1.706666 16.298666-187.690667 51.712v0.426667h-1.706667l-188.586666-52.053333-11.306667-144.64h91.008l6.485333 73.173333 102.4 27.733333h0.810667v-0.213333l102.4-27.733333 11.392-118.485334h-112.896v0.085334h-206.506667l-22.698666-253.482667-1.706667-24.32H741.973333l-1.706666 24.32z" fill="#4FA546" opacity=".1" p-id="12742"></path><path d="M281.002667 249.002667l1.706666 24.32 22.698667 253.44h206.506667v-0.085334h112.896l-11.392 118.528-102.4 27.733334v0.170666h-0.853334l-102.4-27.733333-6.485333-73.173333H310.314667l11.264 144.682666 188.586666 52.053334h1.706667v-0.426667l187.733333-51.712 1.706667-16.298667 21.205333-242.218666 3.2-24.32h-214.698666v0.256H389.888l-8.192-94.208h352.085333l1.706667-19.498667 4.821333-47.232 1.706667-24.32H281.002667z" fill="#4FA546" p-id="12743"></path></svg>