<?xml version="1.0" standalone="no"?><!DOCTYPE svg PUBLIC "-//W3C//DTD SVG 1.1//EN" "http://www.w3.org/Graphics/SVG/1.1/DTD/svg11.dtd"><svg t="1755062704082" class="icon" viewBox="0 0 1785 1024" version="1.1" xmlns="http://www.w3.org/2000/svg" p-id="20547" xmlns:xlink="http://www.w3.org/1999/xlink" width="446.25" height="256"><path d="M836.746378 719.567568H1338.810811a55.351351 55.351351 0 1 0 0-110.702703H836.746378m-111.560648 332.108108h502.050594a55.351351 55.351351 0 1 0 0-110.702703h-362.551351m251.032216-442.810811h-529.989189a55.351351 55.351351 0 1 0 0 110.702703h529.989189a55.351351 55.351351 0 1 0-0.041513-110.702703z m111.560649 110.702703h-529.989189a55.351351 55.351351 0 1 0 0 110.702703h529.989189a55.351351 55.351351 0 1 0-0.041514-110.702703z m111.574486 221.405406H948.320865c-27.675676 0-63.488 110.702703-55.780324 110.702702h446.27027a55.351351 55.351351 0 1 0 0-110.702702z" fill="#E5EAEF" p-id="20548"></path><path d="M1729.286919 719.567568h-529.989189a55.351351 55.351351 0 1 0 0 110.702702h529.989189a55.351351 55.351351 0 1 0 0-110.702702z" fill="#FFFFFF" p-id="20549"></path><path d="M1645.623351 498.162162h-529.989189a55.351351 55.351351 0 1 0 0 110.702703h529.989189a55.351351 55.351351 0 1 0 0-110.702703z" fill="#FFFFFF" p-id="20550"></path><path d="M1394.604973 885.192649m-55.780324 0a55.780324 55.780324 0 1 0 111.560648 0 55.780324 55.780324 0 1 0-111.560648 0Z" fill="#E5EAEF" p-id="20551"></path><path d="M193.937297 885.621622v83.027027a27.675676 27.675676 0 0 1-55.351351 0v-83.027027m0 0h-83.027027a27.675676 27.675676 0 1 1 0-55.351352h83.027027m55.351351 55.351352h83.027027a27.675676 27.675676 0 1 0 0-55.351352h-83.027027m0 0v-83.027027a27.675676 27.675676 0 0 0-55.351351 0v83.027027" fill="#FF6E3B" p-id="20552"></path><path d="M83.027027 249.081081a27.675676 27.675676 0 0 1 27.675676 27.675676v110.702702a27.675676 27.675676 0 0 1-55.351352 0v-110.702702a27.675676 27.675676 0 0 1 27.675676-27.675676z m84.313946 83.027027a27.772541 27.772541 0 0 1-27.883243 27.675676H27.883243a27.675676 27.675676 0 1 1 0-55.351352h111.574487a27.758703 27.758703 0 0 1 27.883243 27.675676z" fill="#DDE8F5" p-id="20553"></path><path d="M1065.721081 0a27.675676 27.675676 0 0 1 27.675676 27.675676v110.702702a27.675676 27.675676 0 0 1-55.351352 0V27.675676a27.675676 27.675676 0 0 1 27.675676-27.675676z m83.027027 83.027027a27.675676 27.675676 0 0 1-27.675676 27.675676h-110.702702a27.675676 27.675676 0 1 1 0-55.351352h110.702702a27.675676 27.675676 0 0 1 27.675676 27.675676z" fill="#9DD9FF" p-id="20554"></path><path d="M935.23027 793.157189L641.508324 996.324324s4.815568 15.04173-55.780324 0c-97.529081-24.202378-306.812541-138.378378-306.812541-138.378378l-55.794162-613.76346 45.913946-22.569513h689.124325l17.989189 22.583351z" fill="#FF571C" p-id="20555"></path><path d="M608.864865 276.756757l258.87827 0.207567L885.621622 299.52l-12.99373 438.272L608.864865 913.297297" fill="#FF8B02" p-id="20556"></path><path d="M888.541405 887.724973S664.838919 1024 613.625081 1024c-45.734054 0-302.841081-136.247351-302.841081-136.247351-34.982054-29.197838-59.765622-47.532973-59.765622-85.144217l-55.780324-596.106378A68.746378 68.746378 0 0 1 264.565622 138.378378h670.208a68.746378 68.746378 0 0 1 69.327567 68.123676S994.234811 370.023784 982.486486 525.837838c-4.718703 62.519351-60.153081 64.539676-55.351351 0 10.212324-137.174486 21.18573-276.756757 21.18573-276.756757a51.988757 51.988757 0 0 0-55.780324-55.351351H306.812541a52.002595 52.002595 0 0 0-55.794163 55.351351l55.794163 525.837838c0 33.764324 33.888865 55.185297 64.885621 81.366486 0 0 201.40973 112.349405 241.926919 112.349406 45.360432 0 251.018378-138.378378 251.018378-138.378379A90.028973 90.028973 0 0 0 913.297297 747.243243v-13.837838s14.419027-27.675676 28.533622-27.675675C955.378162 705.72973 968.648649 733.405405 968.648649 733.405405s0.857946 55.351351-13.837838 83.027027a216.160865 216.160865 0 0 1-66.269406 71.292541z m66.421622-278.887784a27.675676 27.675676 0 1 1-27.675676 27.675676A27.675676 27.675676 0 0 1 955.018378 608.864865z" fill="#4D3333" p-id="20557"></path><path d="M470.486486 691.891892l124.540541 69.189189c0.235243 1.093189 38.247784-0.19373 41.513514 0l102.912-55.351351c2.476973-1.383784 21.171892-15.429189 21.62854-27.675676v-96.864865c0.456649-12.232649-15.595243-27.84173-44.986811-27.84173L470.486486 553.513514c-81.72627 0.428973-66.587676-27.039135-69.189189-41.513514v-138.226162c0-66.698378 42.579027-69.867243 68.082162-69.867243h329.714163c12.966054 0 17.311135 12.772324 17.311135 28.201513s-4.345081 27.675676-17.311135 27.675676H484.324324a30.761514 30.761514 0 0 0-27.675675 27.675675v83.027027a31.204324 31.204324 0 0 0 26.596324 28.021622h246.687135C807.756108 498.508108 816.432432 512.733405 816.432432 567.351351v124.540541c-0.456649 12.232649-4.981622 42.371459-49.08281 69.189189L636.540541 830.27027c0 7.237189-37.362162-1.715892-42.758919-1.715892L415.135135 719.567568c-2.684541-1.563676-13.837838-69.189189-13.837838-69.18919a26.610162 26.610162 0 0 1 26.624-27.855567A28.921081 28.921081 0 0 1 456.496432 650.378378 367.311568 367.311568 0 0 0 470.486486 691.891892z" fill="#FFFFFF" p-id="20558"></path></svg>