<?xml version="1.0" standalone="no"?><!DOCTYPE svg PUBLIC "-//W3C//DTD SVG 1.1//EN" "http://www.w3.org/Graphics/SVG/1.1/DTD/svg11.dtd"><svg t="1780536849638" class="icon" viewBox="0 0 1024 1024" version="1.1" xmlns="http://www.w3.org/2000/svg" p-id="13731" xmlns:xlink="http://www.w3.org/1999/xlink" width="256" height="256"><path d="M873.818061 200.732366l-65.924609 738.528088-296.335956 82.152599-295.519025-82.039136L150.181939 200.732366h723.636122z" fill="#E44D26" p-id="13732"></path><path d="M512 958.617175l239.454316-66.384133 56.334183-631.107369H512V958.617175z" fill="#F16529" p-id="13733"></path><path d="M383.843989 442.311269H512v-90.59138H284.839357l2.167136 24.30369 22.267036 249.646094H512v-90.591379H392.123922l-8.279933-92.767025zM404.261584 670.966781h-90.940277l12.690793 142.242394 185.570925 51.512022 0.416975-0.113463V770.354349l-0.397119 0.104953-100.890947-27.242371-6.45035-72.25015z" fill="#EBEBEB" p-id="13734"></path><path d="M217.507812 0h46.037451v45.484321h42.114482V0h46.040288v137.737928h-46.037451v-46.122548H263.5481v46.122548h-46.037452V0zM412.238006 45.677208H371.714837V0h127.117828v45.677208h-40.548698v92.06072h-46.037452V45.677208h-0.002836zM519.006316 0h48.003191l29.528643 48.397474L626.038427 0h48.023047v137.737928h-45.850239V69.467479l-31.673085 48.973297h-0.794239L564.05097 69.467479v68.270449h-45.044654V0zM696.97241 0h46.051634v92.211058h64.741762v45.52687h-110.796233V0z" p-id="13735"></path><path d="M511.687978 625.669673h111.553595l-10.517983 117.490526-101.038449 27.270737v94.247712l185.718427-51.469473 1.361551-15.306106 21.291258-238.498393 2.209684-24.326382H511.687978v90.591379zM511.687978 442.090017v0.221252h218.821141l1.815402-20.360865 4.130039-45.926825 2.164299-24.30369H511.687978v90.372964z" fill="#FFFFFF" p-id="13736"></path></svg>