<?xml version="1.0" standalone="no"?><!DOCTYPE svg PUBLIC "-//W3C//DTD SVG 1.1//EN" "http://www.w3.org/Graphics/SVG/1.1/DTD/svg11.dtd"><svg t="1754378765393" class="icon" viewBox="0 0 1024 1024" version="1.1" xmlns="http://www.w3.org/2000/svg" p-id="5044" xmlns:xlink="http://www.w3.org/1999/xlink" width="256" height="256"><path d="M400.896 704.292571v194.889143a376.795429 376.795429 0 0 1-84.845714-12.8c-21.028571-34.486857-48.384-93.732571-65.682286-182.089143h150.528z m448 8.521143v38.070857H803.108571V885.028571h-41.984v-134.144h-89.929142V885.028571h-41.984v-134.144h-45.860572v-38.034285h265.508572z m-368.347429 0v63.561143h50.395429V712.777143h41.984V885.028571h-41.984v-70.582857H480.548571v70.582857h-41.947428V712.777143h41.947428z m433.188572 0c19.456 0 32.146286 0.841143 38.509714 2.633143 10.057143 2.742857 18.505143 8.740571 25.161143 17.810286 6.729143 9.069714 10.020571 20.662857 10.020571 34.596571 0 10.715429-1.901714 19.894857-5.741714 27.428572a49.115429 49.115429 0 0 1-33.024 26.404571c-7.899429 1.645714-19.017143 2.450286-33.462857 2.450286h-14.994286V885.028571h-41.947428V712.777143h55.478857z m-691.602286-8.521143c15.579429 79.798857 39.460571 135.606857 59.465143 171.154286a377.526857 377.526857 0 0 1-198.144-171.154286h138.678857z m693.248 35.84h-25.929143v56.576h22.491429c12.946286 0 21.686857-0.914286 26.697143-2.925714a26.038857 26.038857 0 0 0 12.214857-9.984 27.757714 27.757714 0 0 0 4.388571-15.506286 26.733714 26.733714 0 0 0-6.217143-18.029714 26.697143 26.697143 0 0 0-15.652571-8.923428 114.505143 114.505143 0 0 0-17.993143-1.170286z m-514.486857-203.410285v139.629714h-155.428571a957.586286 957.586286 0 0 1-11.702858-139.629714h167.131429z m-195.108571 0a955.977143 955.977143 0 0 0 11.776 139.629714H70.107429A372.626286 372.626286 0 0 1 36.571429 536.722286h169.216z m390.217142 0a957.696 957.696 0 0 1-11.702857 139.629714h-155.428571v-139.629714h167.131428z m193.170286 0a374.930286 374.930286 0 0 1-33.389714 139.629714H612.205714a956.342857 956.342857 0 0 0 11.776-139.629714h165.193143z m-32.548571-167.570286c19.346286 42.934857 30.902857 89.965714 32.841143 139.629714h-165.376c-0.694857-52.48-5.010286-98.742857-11.556572-139.629714h144.091429z m-355.730286 0v139.629714H233.581714c0.731429-52.516571 5.12-98.742857 11.629715-139.629714h155.684571z m-183.661714 0a965.412571 965.412571 0 0 0-11.593143 139.629714H36.790857c1.828571-49.627429 13.019429-96.768 32.256-139.629714H217.234286z m367.323428 0c6.546286 40.923429 10.898286 87.113143 11.629715 139.629714h-167.350858v-139.629714h155.721143z m-34.998857-197.595429c82.651429 32.109714 150.528 92.891429 193.060572 169.691429H607.817143c-15.286857-78.189714-38.509714-133.741714-58.258286-169.691429zM428.873143 146.285714c29.696 1.316571 58.514286 5.997714 86.125714 13.750857 20.955429 35.181714 47.908571 93.952 64.987429 181.174858h-151.149715V146.285714z m-27.977143 0.036572v194.925714H249.819429c17.115429-87.771429 44.324571-146.724571 65.316571-181.833143A376.758857 376.758857 0 0 1 400.896 146.285714z m-120.100571 24.064c-19.858286 35.949714-43.410286 91.794286-58.88 170.825143H83.053714a378.404571 378.404571 0 0 1 197.741715-170.788572z" fill="#FF8900" p-id="5045"></path></svg>