<?xml version="1.0" standalone="no"?><!DOCTYPE svg PUBLIC "-//W3C//DTD SVG 1.1//EN" "http://www.w3.org/Graphics/SVG/1.1/DTD/svg11.dtd"><svg t="1770013673724" class="icon" viewBox="0 0 1024 1024" version="1.1" xmlns="http://www.w3.org/2000/svg" p-id="6358" xmlns:xlink="http://www.w3.org/1999/xlink" width="256" height="256"><path d="M204.8 0h435.2l256 256v691.2a76.8 76.8 0 0 1-76.8 76.8H204.8a76.8 76.8 0 0 1-76.8-76.8V76.8a76.8 76.8 0 0 1 76.8-76.8z" fill="#9AEEFC" p-id="6359"></path><path d="M691.2 328.1152v-59.2256c-60.2112-1.8432-117.568 24.5248-154.0736 70.7968-15.168 19.4432-28.4416 40.256-38.4 62.9376l-28.4416 68.9408a506.5344 506.5344 0 0 1-26.0736 62.016c-7.1168 16.6528-16.128 31.4624-27.0208 46.272a88.5504 88.5504 0 0 1-35.0848 27.7632A119.3728 119.3728 0 0 1 332.8 618.24V678.4c96.4864 0.0896 165.4144-68.1856 192.9856-163.7888C553.344 419.0208 594.7136 323.4304 691.2 328.1152z" fill="#FFFFFF" p-id="6360"></path><path d="M640 0l256 256H716.8a76.8 76.8 0 0 1-76.8-76.8V0z" fill="#00B8D8" p-id="6361"></path><path d="M0 716.8h947.2a76.8 76.8 0 0 1 76.8 76.8v153.6a76.8 76.8 0 0 1-76.8 76.8H76.8a76.8 76.8 0 0 1-76.8-76.8V716.8z" fill="#00D7F3" p-id="6362"></path><path d="M128 640v76.8H0z" fill="#00B8D8" p-id="6363"></path><path d="M52.352 972.8h114.688v-31.744h-76.8V783.36H52.352zM278.4 976.384c50.176 0 84.736-37.632 84.736-99.072 0-61.44-34.56-97.536-84.736-97.536s-84.736 35.84-84.736 97.536c0 61.44 34.56 99.072 84.736 99.072z m0-32.768c-28.16 0-46.08-25.856-46.08-66.304 0-40.704 17.92-65.024 46.08-65.024s46.08 24.32 46.08 65.024c0 40.448-17.92 66.304-46.08 66.304zM442.752 972.8h37.888V814.848h53.76V783.36H389.504v31.488h53.248zM615.552 972.8h37.888V814.848h53.76V783.36H562.304v31.488h53.248zM750.72 972.8h37.888V783.36h-37.888zM848 972.8h119.04v-31.744h-81.152v-50.688h66.56v-31.744h-66.56v-43.776h78.336V783.36h-116.224z" fill="#FFFFFF" p-id="6364"></path></svg>