<?xml version="1.0" standalone="no"?><!DOCTYPE svg PUBLIC "-//W3C//DTD SVG 1.1//EN" "http://www.w3.org/Graphics/SVG/1.1/DTD/svg11.dtd"><svg t="1754371081263" class="icon" viewBox="0 0 1088 1024" version="1.1" xmlns="http://www.w3.org/2000/svg" p-id="5856" xmlns:xlink="http://www.w3.org/1999/xlink" width="272" height="256"><path d="M734.495791 445.60732c-18.927268 31.081412-50.410248 54.907817-88.130928 65.857255l-2.864523 0.85668c-5.809359 1.633046-11.779346 2.677124-17.722562 2.677124-26.128732 0-40.906458-17.66902-32.955399-39.46081 5.782588-15.928889 21.015425-29.368052 39.594667-35.605752 28.779085-10.494327 48.911059-34.427817 48.911059-62.29668 0-37.560052-36.542745-67.998954-81.598746-67.998954s-81.571974 30.438902-81.571973 67.998954v208.494432c0 50.142536-29.073569 94.127686-72.550066 118.99817a164.000627 164.000627 0 0 1-81.571974 21.524078c-84.971922 0-154.122039-63.046275-154.122039-140.522248 0-24.656314 7.067608-47.813438 19.355608-67.998955 19.007582-31.188497 50.704732-55.095216 88.639582-65.991111l0.107085-0.026771c6.398327-2.007843 13.037595-3.105464 19.569777-3.105464 26.235817 0 41.093856 17.749333 33.116027 39.621438-5.38102 14.831268-19.917804 27.574379-36.864 34.374274-2.007843 0.669281-3.988915 1.445647-5.943216 2.248785-26.905098 11.110065-45.457569 34.160105-45.457569 60.877804 0 37.560052 36.542745 67.998954 81.598745 67.998954s81.571974-30.438902 81.571974-67.998954v-208.494432c0-50.142536 29.073569-94.127686 72.550066-118.99817a164.000627 164.000627 0 0 1 81.571973-21.524078c84.971922 0 154.122039 63.046275 154.12204 140.522248a130.108235 130.108235 0 0 1-19.355608 67.998955M481.882353 53.542484C245.304889 53.542484 53.542484 245.304889 53.542484 481.882353s191.762405 428.339869 428.339869 428.339869 428.339869-191.762405 428.339869-428.339869S718.459817 53.542484 481.882353 53.542484" fill="#07C160" p-id="5857"></path></svg>