<?xml version="1.0" standalone="no"?><!DOCTYPE svg PUBLIC "-//W3C//DTD SVG 1.1//EN" "http://www.w3.org/Graphics/SVG/1.1/DTD/svg11.dtd"><svg t="1751507410950" class="icon" viewBox="0 0 1066 1024" version="1.1" xmlns="http://www.w3.org/2000/svg" p-id="5732" xmlns:xlink="http://www.w3.org/1999/xlink" width="266.5" height="256"><path d="M448.033707 446.890667c0 27.946667 22.613333 50.602667 50.602666 50.602666h156.245334c9.941333 0 15.914667 11.050667 10.410666 19.370667l-40.106666 60.928a12.074667 12.074667 0 0 1-9.941334 5.418667l-148.693333 1.408a32.298667 32.298667 0 0 1-28.757333-17.066667L359.201707 420.522667a23.509333 23.509333 0 0 1 0.426666-22.954667l83.84-143.829333a12.288 12.288 0 0 1 10.581334-6.101334h170.24c4.309333 0 8.362667 2.261333 10.666666 5.973334l49.536 81.066666c1.706667 2.773333 4.778667 4.48 8.064 4.48h109.696c3.541333 0 5.76-3.84 3.882667-6.912L698.401707 154.88a21.034667 21.034667 0 0 0-17.92-10.069333H385.52704a20.992 20.992 0 0 0-18.432 10.922666L235.553707 397.994667a20.906667 20.906667 0 0 0 0.170666 20.309333L378.060373 671.146667c2.133333 3.797333 6.144 6.144 10.453334 6.144h288.64a20.906667 20.906667 0 0 0 18.346666-10.965334l143.061334-262.826666 0.938666-2.005334a3.754667 3.754667 0 0 0-3.498666-5.12H498.636373c-27.946667 0-50.602667 22.613333-50.602666 50.517334" fill="#14A655" p-id="5733"></path><path d="M303.521707 714.922667a17.792 17.792 0 0 0-17.749334 17.792v85.76L189.04704 721.792a17.792 17.792 0 0 0-31.829333 10.922667v128.725333a17.749333 17.749333 0 0 0 35.541333 0v-85.632l97.962667 97.92 0.426666 0.469333 0.213334 0.213334a17.706667 17.706667 0 0 0 29.866666-12.970667v-128.725333a17.749333 17.749333 0 0 0-17.749333-17.792M736.37504 714.922667a17.749333 17.749333 0 0 0-13.994667 6.869333l-96.682666 96.682667v-85.76a17.792 17.792 0 1 0-35.541334 0v128.725333a17.749333 17.749333 0 0 0 29.866667 12.970667l0.213333-0.213334 0.469334-0.426666 97.92-97.962667v85.632a17.749333 17.749333 0 0 0 35.541333 0v-128.725333a17.792 17.792 0 0 0-17.792-17.792M553.20704 714.922667a17.792 17.792 0 0 0-17.792 17.834666v45.610667h35.541333v-45.653333a17.792 17.792 0 0 0-17.749333-17.792" fill="#14A655" p-id="5734"></path><path d="M535.41504 861.397333c0 9.813333 9.813333 17.792 21.888 17.792 12.074667 0 21.845333-7.978667 21.845333-17.792V789.461333H535.41504v71.936z" fill="#14A655" p-id="5735"></path><path d="M927.052373 844.672l-47.786666-47.616L926.924373 749.312c9.173333-9.173333 11.008-22.229333 4.053334-29.184-6.912-6.954667-20.010667-5.12-29.184 4.096l-47.786667 47.786667L806.177707 724.266667C796.961707 715.093333 783.86304 713.344 776.95104 720.298667 770.03904 727.253333 771.916373 740.309333 781.089707 749.482667l47.872 47.616-47.786667 47.744c-9.173333 9.173333-11.008 22.272-4.053333 29.184 6.954667 6.912 20.010667 5.12 29.226666-4.053334l47.786667-47.786666 47.872 47.658666c9.173333 9.173333 22.272 10.965333 29.184 4.010667 6.954667-6.954667 5.12-20.053333-4.138667-29.184" fill="#14A655" p-id="5736"></path><path d="M516.129707 788.565333H425.121707a18.602667 18.602667 0 0 0-18.816 16.853334 18.133333 18.133333 0 0 0 17.834666 19.413333l35.754667 0.298667c2.304 0 3.797333 2.474667 2.688 4.48l-6.314667 11.904a3.072 3.072 0 0 1-2.645333 1.621333H403.83104a3.114667 3.114667 0 0 1-2.730667-1.578667L377.46304 798.506667a3.072 3.072 0 0 1 0-2.901334l23.168-43.093333a2.986667 2.986667 0 0 1 2.688-1.621333h52.992a2.986667 2.986667 0 0 1 2.816 1.877333l9.472 22.4c0.768 1.792 2.56 2.986667 4.522667 2.986667h30.336a2.986667 2.986667 0 0 0 2.773333-4.138667L483.361707 717.866667A4.821333 4.821333 0 0 0 478.881707 714.88H383.265707c-1.664 0-3.029333 0.853333-3.925334 2.005333l-0.554666 1.066667-41.386667 76.074667-0.426667 0.426666-0.554666 1.066667A7.168 7.168 0 0 0 336.076373 797.226667c0 0.426667 0.042667 0.725333 0.128 1.066666a4.693333 4.693333 0 0 0 1.28 2.389334l41.813334 76.330666c0.682667 1.322667 2.133333 2.133333 3.584 2.133334h92.373333a4.181333 4.181333 0 0 0 3.754667-2.389334l39.765333-84.010666a2.986667 2.986667 0 0 0-2.645333-4.181334" fill="#14A655" p-id="5737"></path></svg>