<?xml version="1.0" standalone="no"?><!DOCTYPE svg PUBLIC "-//W3C//DTD SVG 1.1//EN" "http://www.w3.org/Graphics/SVG/1.1/DTD/svg11.dtd"><svg t="1751436631897" class="icon" viewBox="0 0 1024 1024" version="1.1" xmlns="http://www.w3.org/2000/svg" p-id="25105" xmlns:xlink="http://www.w3.org/1999/xlink" width="256" height="256"><path d="M116.280889 264.533333L463.644444 107.861333a113.777778 113.777778 0 0 1 93.127112-0.113777l349.923555 156.615111a56.888889 56.888889 0 0 1-0.398222 103.992889l-350.264889 153.6a113.777778 113.777778 0 0 1-91.591111-0.170667L116.679111 368.412444a56.888889 56.888889 0 0 1-0.398222-103.936z" fill="#4D91FF" p-id="25106"></path><path d="M510.748444 727.04c-16.782222-0.056889-33.393778-3.640889-48.64-10.581333l-365.795555-163.953778a42.666667 42.666667 0 0 1 34.872889-77.824l365.795555 163.896889a32.824889 32.824889 0 0 0 27.420445 0l368.412444-163.953778a42.666667 42.666667 0 0 1 34.702222 77.937778l-368.412444 164.010666c-15.189333 6.826667-31.687111 10.410667-48.355556 10.467556z" fill="#C1D9FF" p-id="25107"></path><path d="M510.748444 926.151111c-16.782222-0.056889-33.393778-3.640889-48.64-10.581333l-365.795555-163.896889a42.666667 42.666667 0 0 1 34.872889-77.937778l365.795555 163.953778a32.711111 32.711111 0 0 0 27.420445 0l368.412444-163.953778a42.666667 42.666667 0 0 1 34.702222 77.937778l-368.412444 164.010667c-15.189333 6.826667-31.687111 10.410667-48.355556 10.410666z" fill="#C1D9FF" p-id="25108"></path></svg>