<?xml version="1.0" standalone="no"?><!DOCTYPE svg PUBLIC "-//W3C//DTD SVG 1.1//EN" "http://www.w3.org/Graphics/SVG/1.1/DTD/svg11.dtd"><svg t="1780990334522" class="icon" viewBox="0 0 1024 1024" version="1.1" xmlns="http://www.w3.org/2000/svg" p-id="6609" xmlns:xlink="http://www.w3.org/1999/xlink" width="256" height="256"><path d="M402.432 0A146.432 146.432 0 0 0 256 146.432v86.016h219.648c19.968 0 36.352 29.184 36.352 49.152H146.432A146.432 146.432 0 0 0 0 428.032v193.6a146.432 146.432 0 0 0 146.432 146.432h60.416V630.848a145.92 145.92 0 0 1 145.92-146.432h268.8A146.048 146.048 0 0 0 768 338.432v-192A146.432 146.432 0 0 0 621.568 0H402.432z m-36.864 82.432c20.48 0 36.864 6.144 36.864 36.352s-16.384 45.632-36.864 45.632c-19.968 0-36.352-15.36-36.352-45.568s16.384-36.416 36.352-36.416z m0 0" fill="#3C78AA" p-id="6610"></path><path d="M817.088 256v137.216a145.856 145.856 0 0 1-145.92 146.368H402.432A145.92 145.92 0 0 0 256 685.568v192A146.432 146.432 0 0 0 402.432 1024h219.136A146.432 146.432 0 0 0 768 877.632v-86.016H548.288c-19.968 0-36.288-29.184-36.288-49.152h365.568A146.432 146.432 0 0 0 1024 596.032V402.432A146.432 146.432 0 0 0 877.568 256h-60.48zM323.584 487.104l-0.192 0.192 1.92-0.192h-1.728z m334.848 372.544c19.968 0 36.352 15.36 36.352 45.568a36.48 36.48 0 0 1-36.352 36.352c-20.48 0-36.864-6.144-36.864-36.352s16.384-45.568 36.864-45.568z m0 0" fill="#FDD835" p-id="6611"></path></svg>