<?xml version="1.0" standalone="no"?><!DOCTYPE svg PUBLIC "-//W3C//DTD SVG 1.1//EN" "http://www.w3.org/Graphics/SVG/1.1/DTD/svg11.dtd"><svg t="1754460182196" class="icon" viewBox="0 0 1024 1024" version="1.1" xmlns="http://www.w3.org/2000/svg" p-id="10317" xmlns:xlink="http://www.w3.org/1999/xlink" width="256" height="256"><path d="M877.8752 315.323733c-18.295467-30.958933-59.118933-46.421333-113.9712-46.421333a499.575467 499.575467 0 0 0-112.64 15.4624c-30.890667-108.4416-81.544533-180.1216-139.264-180.1216s-108.3392 71.68-139.298133 181.521067a422.8096 422.8096 0 0 0-112.64-15.4624c-54.8864 0-95.573333 15.4624-113.9712 46.421333-28.16 49.2544 7.031467 129.467733 87.2448 211.080533-78.7456 81.6128-115.336533 161.826133-87.176534 211.080534 18.295467 30.958933 59.118933 46.421333 113.9712 46.421333a499.575467 499.575467 0 0 0 112.64-15.4624c30.958933 106.939733 81.6128 178.722133 139.298134 178.722133s108.3392-71.68 139.298133-181.521066a422.843733 422.843733 0 0 0 112.64 15.4624c54.8864 0 95.573333-15.4624 113.9712-46.421334 28.16-49.2544-7.031467-129.467733-87.2448-211.080533 78.711467-80.213333 115.3024-160.426667 87.1424-209.681067z" fill="#D3EBFF" p-id="10318"></path><path d="M877.8752 311.0912c-18.295467-30.958933-59.118933-46.421333-113.9712-46.421333a499.575467 499.575467 0 0 0-112.64 15.4624C620.373333 171.690667 569.719467 100.010667 512 100.010667s-108.3392 71.68-139.298133 181.521066a422.8096 422.8096 0 0 0-112.64-15.4624c-54.8864 0-95.573333 15.4624-113.9712 46.421334-28.16 49.2544 7.031467 129.467733 87.2448 211.080533-78.7456 81.6128-115.336533 161.826133-87.176534 211.080533 18.295467 30.958933 59.118933 46.421333 113.9712 46.421334a499.575467 499.575467 0 0 0 112.64-15.4624c30.958933 106.939733 81.6128 178.722133 139.298134 178.722133s108.3392-71.68 139.298133-181.521067a422.8096 422.8096 0 0 0 112.64 15.4624c54.8864 0 95.573333-15.4624 113.9712-46.421333 28.16-49.2544-7.031467-129.467733-87.2448-211.080533 78.711467-80.213333 115.3024-160.426667 87.1424-209.681067z m-112.64 9.864533v4.334934h-1.262933c40.96 0 60.5184 7.031467 64.853333 15.4624 9.864533 18.295467-11.264 74.581333-78.813867 143.530666a778.717867 778.717867 0 0 0-73.181866-57.685333 895.7952 895.7952 0 0 0-12.663467-91.477333 483.328 483.328 0 0 1 101.137067-14.165334z m-196.949333 301.294934a428.817067 428.817067 0 0 1-56.285867 29.559466c-19.694933-9.864533-37.9904-19.694933-57.685333-30.958933s-37.9904-22.528-54.8864-33.757867c-1.399467-21.0944-2.798933-42.222933-2.798934-64.853333s1.399467-43.6224 2.798934-64.853333q25.326933-16.896 54.8864-33.757867c18.295467-11.264 37.9904-21.0944 56.285866-30.958933 18.295467 9.864533 37.9904 19.694933 56.285867 29.559466q29.559467 16.896 54.8864 33.757867c1.399467 21.0944 2.798933 42.222933 2.798933 64.853333s-1.399467 45.021867-2.798933 66.1504a390.894933 390.894933 0 0 1-53.486933 35.259734z m47.786666 35.191466c-1.399467 11.264-4.232533 23.893333-5.632 33.757867-11.264-4.232533-21.0944-8.430933-32.3584-12.663467 7.031467-4.232533 12.663467-7.031467 19.694934-11.264a79.121067 79.121067 0 0 0 18.363733-10.001066z m-168.8576 23.893334l-33.757866 12.663466a262.826667 262.826667 0 0 1-5.632-35.191466c5.632 4.232533 12.663467 7.031467 19.694933 11.264 5.700267 2.6624 12.731733 6.792533 19.7632 11.127466z m-105.540266-136.533334c-9.864533-7.031467-18.295467-15.4624-26.7264-22.528 8.430933-7.031467 16.896-15.4624 26.7264-22.528v45.021867z m66.218666-157.730133c1.399467-11.264 4.232533-23.893333 5.632-33.757867 11.264 4.232533 21.0944 8.430933 32.3584 12.663467-7.031467 4.232533-12.663467 7.031467-19.694933 11.264a58.402133 58.402133 0 0 0-18.295467 9.8304z m168.8576-22.528c11.264-4.232533 22.528-8.430933 32.3584-12.663467a262.826667 262.826667 0 0 1 5.632 35.191467c-5.632-4.232533-12.663467-7.031467-19.694933-11.264a128.477867 128.477867 0 0 0-18.295467-11.229867z m104.1408 135.099733c9.864533 8.430933 19.694933 15.4624 28.16 22.528-8.430933 7.031467-18.295467 15.4624-28.16 22.528v-45.056zM512 156.296533c21.0944 0 59.118933 47.786667 85.845333 140.731734-28.16 9.864533-56.285867 21.0944-85.845333 33.757866a601.019733 601.019733 0 0 0-85.947733-33.757866c26.862933-92.8768 64.853333-140.731733 85.947733-140.731734z m-316.6208 182.954667c4.232533-8.430933 25.326933-18.295467 64.853333-18.295467a459.5712 459.5712 0 0 1 99.908267 14.062934 844.049067 844.049067 0 0 0-12.663467 91.477333 797.866667 797.866667 0 0 0-71.68 56.285867c-69.154133-68.949333-91.682133-125.2352-80.418133-143.530667z m64.853333 384.170667c-40.96 0-60.5184-9.864533-64.853333-18.295467-11.264-18.295467 11.264-74.581333 78.813867-143.530667 22.528 19.694933 46.421333 37.9904 71.68 56.285867a844.049067 844.049067 0 0 0 12.663466 91.477333 369.220267 369.220267 0 0 1-98.4064 14.0288z m251.904 164.6592c-21.0944 0-59.118933-47.786667-85.845333-140.731734a1355.298133 1355.298133 0 0 0 85.845333-33.757866 600.9856 600.9856 0 0 0 85.845334 33.757866c-26.862933 92.842667-64.853333 140.6976-85.981867 140.6976z m316.6208-182.920534c-4.232533 8.430933-25.326933 18.295467-64.853333 18.295467a459.5712 459.5712 0 0 1-99.908267-14.062933 844.014933 844.014933 0 0 0 12.663467-91.477334 797.866667 797.866667 0 0 0 71.68-56.285866c69.051733 68.9152 90.146133 125.201067 80.2816 143.496533z" fill="#1F9BFF" p-id="10319"></path></svg>