<?xml version="1.0" standalone="no"?><!DOCTYPE svg PUBLIC "-//W3C//DTD SVG 1.1//EN" "http://www.w3.org/Graphics/SVG/1.1/DTD/svg11.dtd"><svg t="1768806573563" class="icon" viewBox="0 0 1207 1024" version="1.1" xmlns="http://www.w3.org/2000/svg" p-id="4734" xmlns:xlink="http://www.w3.org/1999/xlink" width="301.75" height="256"><path d="M276.632838 228.38724c-11.75132 1.584346-19.087596 3.280351-30.087484 6.956034-55.850458 18.665104-87.090742 59.936562-75.789075 100.127645 6.838339 24.323483 27.166252 40.725235 54.824406 44.237957 2.489686 0.316869 7.091834 1.035106 10.230348 1.602453 16.818209 3.029873 40.67695-1.228245 59.429571-10.610591 25.093022-12.551038 46.41681-34.424065 56.125078-57.56457 19.540267-46.573735-20.563301-92.052008-74.732844-84.748928m503.209397 93.636355c1.418367 6.089924 2.275423 39.753503 1.336886 52.434306-3.02082 40.794645-22.573157 90.99276-43.966354 112.874841-6.94698 7.106923-23.822527 19.648908-29.130841 21.646692-0.914394 0.344029-4.155513 1.765414-7.197458 3.156621-28.647993 13.103295-63.826508 13.145545-82.929193 0.099587-1.590382-1.086409-3.286386-2.202995-3.769234-2.477615-1.726183-0.989839-3.99557-3.141532-5.788144-5.489382-2.024945-2.655666-2.169799-2.365957-1.264459 2.504776 0.307816 1.641684 0.615632 3.437276 0.688059 3.989534 0.97475 7.583736 6.708573 19.190202 14.431128 29.209304 10.010049 12.988619 26.840329 21.667817 52.730051 27.190394 6.035604 1.285584 19.380323 1.300673 24.643369 0.024142 21.435446-5.196655 52.823603-30.648795 64.62019-52.40111 1.050195-1.934411 2.459508-4.342617 3.126443-5.347545 1.928375-2.894072 5.797197-12.457486 9.131868-22.567122 4.430133-13.429218 5.860571-18.87635 13.224008-50.294685 9.180153-39.186156 9.536254-70.800648 1.092444-96.823153-2.785431-8.582628-12.502753-24.275198-10.978763-17.729585m-390.04183 5.136298c-19.316949 3.594202-38.760646 16.911761-47.077708 32.245213a86.019423 86.019423 0 0 1-3.325617 5.610093c-12.179848 18.049473-4.490489 38.196317 16.302165 42.716985 29.197232 6.343419 64.445157-12.713999 73.739987-39.86818 8.350258-24.404963-12.448432-45.761947-39.638827-40.704111m270.847712 10.034191c-18.761674 4.342617-34.855611 21.055203-41.932356 43.552916-7.927765 25.189592-5.329438 48.562467 7.203493 64.852561 25.400838 33.008716 71.938359 13.405076 83.719857-35.263014 10.233366-42.276385-15.614107-80.865017-48.990994-73.142463m192.88582 34.749988c-34.487439 6.971122-55.965134 57.97499-39.231423 93.168595 19.416537 40.839912 70.891182 25.298233 83.185706-25.117164 9.593592-39.349118-12.985601-74.307334-43.954283-68.051431m109.866092 17.500233c-0.09657 47.590734-15.463216 95.890652-38.676147 121.575163-18.375395 20.327913-34.318442 29.891327-57.356342 34.411994-26.834294 5.263046-46.531486 0.715219-62.643529-14.467342-1.955536-1.843877-3.633433-3.352778-3.726986-3.352778-0.193139 0 4.756056 15.134276 6.599933 20.189094 5.905838 16.181453 24.480408 31.032056 48.954781 39.137872 18.843154 6.243832 44.102156-2.381046 63.349695-21.628585 10.72225-10.72225 24.39591-33.186766 30.44962-50.020065 0.992857-2.767324 2.012874-5.483346 2.263352-6.035604 0.464741-1.026053 4.472382-13.966387 5.45015-17.602838 2.510811-9.343114 7.933801-38.166139 9.457791-50.297702 2.052105-16.308201 1.062266-48.69525-1.834824-60.105559-2.236191-8.805946-2.25128-8.754643-2.287494 8.19635" fill="#FBFBF4" p-id="4735"></path><path d="M911.880117 61.363982c-10.69509 0.869127-13.145545 1.113569-20.370162 2.027963-10.405381 1.318779-23.90099 3.817519-27.326195 5.060853-1.569257 0.567347-4.662504 1.599435-6.877571 2.29353-11.075333 3.467454-13.830586 4.42108-13.830585 4.795287 0 0.223317-0.552258 0.407403-1.228246 0.407403-0.675988 0-1.354993 0.208228-1.514936 0.464741-0.156926 0.253495-1.020017 0.615632-1.916304 0.802736-1.883108 0.392314-6.391704 2.239209-10.562307 4.32451-1.596417 0.7967-3.180763 1.448545-3.521774 1.448545-0.341012-0.003018-3.111354 1.219192-6.153298 2.709986a552.982002 552.982002 0 0 1-8.549433 4.113263c-1.659791 0.766522-3.132478 1.536061-3.271297 1.705058-0.138819 0.172015-2.40217 1.394224-5.027658 2.722058a831.555286 831.555286 0 0 0-11.316756 5.863589 2654.908117 2654.908117 0 0 1-10.061352 5.287188c-1.934411 1.007946-3.826573 2.088319-4.20078 2.396135a13.664607 13.664607 0 0 1-1.599435 1.086409c-1.45458 0.829895-4.84659 2.875965-10.734321 6.47922-3.011766 1.840859-5.67045 3.346742-5.911873 3.346742-0.241424 0-0.437581 0.17805-0.437582 0.39835 0 0.217282-1.273512 1.167889-2.830698 2.112461-1.557186 0.941554-3.084193 1.958553-3.395027 2.257316-0.310834 0.298762-2.202995 1.584346-4.203798 2.854841-2.000803 1.273512-4.375813 2.888036-5.281153 3.591184-0.902323 0.703148-3.567042 2.706968-5.917909 4.451257-2.350868 1.747307-4.348652 3.34976-4.442205 3.564024-0.090534 0.211246-0.386279 0.386279-0.654863 0.386279s-2.00382 1.19505-3.85675 2.655666-3.932196 3.014784-4.62629 3.452365c-0.691077 0.440599-2.218084 1.735236-3.395027 2.878983s-2.335779 2.079265-2.577203 2.079265c-0.241424 0-1.819734 1.189014-3.503668 2.640577-1.686951 1.451563-4.590077 3.886929-6.449042 5.407901a117.132959 117.132959 0 0 0-5.220798 4.526702c-1.010964 0.965697-2.592292 2.326725-3.512721 3.017802-5.410919 4.067997-21.10047 20.684014-26.610976 28.180233-1.327833 1.807663-2.909161 4.255101-3.512721 5.438079-0.60356 1.182978-1.846895 3.328635-2.761289 4.762091-0.914394 1.436474-1.967607 3.515739-2.341814 4.623273-0.374207 1.104515-0.826878 2.236191-1.007946 2.513829-2.329743 3.57006-3.947285 15.378718-2.821645 20.620639 1.210139 5.634236 5.791162 13.833603 7.731608 13.833604 0.229353 0 0.669952 0.395332 0.977768 0.87818 0.310834 0.485866 1.665827 1.448545 3.014784 2.139622 1.34594 0.691077 2.571167 1.418367 2.71904 1.614524 0.510009 0.675988 9.460809 4.436169 11.636643 4.885821 1.198067 0.24746 3.760181 0.826878 5.69761 1.288601 1.937429 0.461724 3.859769 0.902323 4.276225 0.977768 0.413439 0.078463 1.318779 0.283673 2.009856 0.455688 0.694094 0.175033 2.27844 0.446635 3.521775 0.606578 1.243334 0.159943 2.830698 0.374207 3.521775 0.476813 6.080871 0.905341 15.71973 1.762396 22.380018 1.988731 4.427115 0.153908 9.291812 0.377225 10.815802 0.500955 5.115174 0.410421 10.77657 0.766522 16.597909 1.047178 12.038011 0.579418 21.450535 1.590382 30.678974 3.298457 6.17744 1.140729 17.678283 5.585951 19.283753 7.45397 3.201888 3.72095 1.062266 34.052876-2.709986 38.443777-0.199175 0.229353-1.880091-1.077355-3.736039-2.906143-1.858966-1.831806-4.203798-3.784323-5.214761-4.345634-3.452365-1.910269-5.456186-3.229048-7.209529-4.737949a93.500553 93.500553 0 0 0-3.081175-2.540989 255.864326 255.864326 0 0 1-2.975553-2.362939c-4.704753-3.796395-6.373597-4.991444-8.437774-6.029568-1.246352-0.624685-2.568149-1.424402-2.942356-1.777485-2.287494-2.166782-18.846172-8.018299-26.481211-9.358204-5.616129-0.986821-10.797695-1.82577-12.825658-2.076247-1.246352-0.153908-4.025748-0.506991-6.17744-0.784629-13.480521-1.735236-42.707931 1.077355-52.419217 5.048783a95.694495 95.694495 0 0 1-3.521775 1.285583c-1.382153 0.47983-2.728093 1.07132-2.990642 1.309726a2.166782 2.166782 0 0 1-1.258423 0.440599c-0.682023 0.003018-2.673772 0.950608-11.844872 5.637254-10.526093 5.377723-26.402748 20.901295-37.318137 36.485224-0.884216 1.261441-1.789556 2.42933-2.012874 2.592292-0.923447 0.682023-9.162046 13.528805-9.475898 14.781193-0.187104 0.748415-0.491902 1.361029-0.675987 1.361028-0.181068 0-0.887234 1.016999-1.569257 2.263352-0.679005 1.243334-1.367064 2.263351-1.530026 2.263351-0.437581 0-1.988731-3.425205-1.988731-4.393919 0-0.766522-2.764306-6.774965-7.34533-15.976243-2.550043-5.124227-5.404883-10.188099-6.385668-11.334864-0.470777-0.54924-0.857056-1.189014-0.857056-1.418366 0-0.232371-0.45267-0.829895-1.004928-1.330851-0.552258-0.500955-1.004928-1.219192-1.004928-1.596417 0-0.380243-0.624685-1.644702-1.385171-2.815609-1.505883-2.317672-1.677898-2.55306-3.150585-4.342617-0.54924-0.663916-0.998892-1.391207-0.998893-1.614524 0-0.591489-8.42872-13.042939-9.853122-14.554858-0.666934-0.706166-1.210139-1.533043-1.210139-1.834824 0-0.30178-1.246352-2.160746-2.767324-4.128353-1.520972-1.970625-2.767324-3.723967-2.767324-3.898999 0-0.27462-2.37501-3.328635-4.433151-5.69761-0.362136-0.416457-1.339904-1.665827-2.172818-2.770342-2.049087-2.722057-6.005426-7.387579-13.009743-15.339487-6.358508-7.2216-25.693565-25.928953-28.663082-27.736616-0.817824-0.494919-1.77145-1.361029-2.124532-1.925358-0.350065-0.561311-0.7967-1.020017-0.992857-1.020017s-0.965697-0.567347-1.714111-1.258423c-0.745397-0.691077-1.533043-1.258423-1.747308-1.258423-0.214264 0-1.050195-0.621667-1.855948-1.382154a42.059104 42.059104 0 0 0-2.679808-2.311636c-2.055123-1.575293-9.038316-6.587861-9.928568-7.12503-1.883108-1.140729-3.908053-2.544007-4.713806-3.274315-0.470777-0.42551-2.62247-1.665827-4.780198-2.755253-2.157728-1.089426-4.424097-2.353885-5.039729-2.812591-1.273512-0.94759-22.180843-11.368059-23.300448-11.612502-0.401368-0.090534-0.841967-0.277638-0.980785-0.422492-0.138819-0.141837-1.9495-0.863091-4.02273-1.599435-2.076248-0.736344-4.961266-1.789556-6.412829-2.335778-1.45458-0.54924-2.640577-0.899305-2.640577-0.778593 0 0.120712-0.510009-0.087516-1.131675-0.467759-0.624685-0.377225-2.151693-0.968714-3.395027-1.312744-2.070212-0.573382-5.658378-1.632631-13.833604-4.089122-1.659791-0.500955-4.375813-1.158836-6.035603-1.466651a292.606063 292.606063 0 0 1-6.286082-1.255406c-4.499542-0.956643-10.864086-2.157728-13.580108-2.562114-1.246352-0.184086-2.716022-0.431546-3.268279-0.552257a44.464292 44.464292 0 0 0-3.567042-0.458706 104.747901 104.747901 0 0 1-5.199672-0.663917c-1.451563-0.229353-4.59913-0.473795-6.995265-0.543204a123.319453 123.319453 0 0 1-6.117084-0.304798c-9.726375-0.986821-40.016052-1.361029-47.783874-0.588471a266.321009 266.321009 0 0 1-8.298955 0.648827c-8.326115 0.510009-17.056616 1.789556-24.142414 3.536864-1.659791 0.410421-3.470472 0.835931-4.02273 0.941554-0.552258 0.108641-2.136604 0.464741-3.521775 0.793682-6.503363 1.542097-7.300063 1.780503-14.835513 4.409008-2.350868 0.820842-5.522577 1.892162-7.04355 2.384064-1.520972 0.491902-3.443312 1.246352-4.273207 1.677897-0.829895 0.428528-1.623577 0.7967-1.762396 0.811789-0.923447 0.102605-15.17049 6.337384-15.589964 6.820232-0.138819 0.159943-1.044159 0.600543-2.012874 0.977768-0.968714 0.377225-3.458401 1.593399-5.531631 2.70395-2.076248 1.110551-4.891857 2.565132-6.258921 3.232066-1.364046 0.666934-3.174727 1.723165-4.02273 2.350868-1.699022 1.255406-4.692682 2.788449-5.447132 2.788449-0.265567 0-2.067194 1.077355-3.998587 2.390099-1.934411 1.312744-4.233976 2.842769-5.106121 3.395027-5.791162 3.666629-6.853428 4.405991-6.853428 4.768127 0 0.2203-0.567347 0.546222-1.258423 0.718236-0.691077 0.175033-1.258423 0.540187-1.258424 0.811789a0.503973 0.503973 0 0 1-0.510008 0.491902c-0.280656 0-1.735236 0.962679-3.232066 2.136603-1.49683 1.176943-4.466347 3.497632-6.596915 5.157424s-4.641379 3.751128-5.579915 4.650432c-0.935519 0.899305-1.868019 1.638666-2.070212 1.644702-0.202193 0.003018-1.418367 0.965697-2.700933 2.136604-1.282566 1.170907-3.760181 3.373902-5.510506 4.894874-3.437276 2.993659-3.877875 3.385974-12.52086 11.153796-5.842464 5.250975-12.750213 12.143634-17.358395 17.3252a113.167568 113.167568 0 0 1-4.399955 4.662504c-1.038124 1.010964-1.886126 2.115479-1.886127 2.45649 0 0.337994-0.172015 0.618649-0.377225 0.621668-0.654863 0.009053-10.191117 12.412219-14.075027 18.309003-1.291619 1.961571-2.504775 3.6787-2.694897 3.817519-0.356101 0.259531-1.726183 2.477615-3.41917 5.531631a17.322182 17.322182 0 0 1-2.061159 2.909161c-0.597525 0.633738-1.52399 2.142639-2.061158 3.355796-0.537169 1.213156-1.143747 2.281458-1.34594 2.371992-0.389296 0.172015-1.189014 1.563221-3.998587 6.940944-0.935519 1.789556-2.00382 3.600238-2.37501 4.02273-0.368172 0.422492-1.810681 3.032891-3.19887 5.800215l-3.80243 7.544504c-2.697915 5.332456-5.963176 12.454468-7.088817 15.466235a295.663096 295.663096 0 0 1-3.28035 8.172207 162.526734 162.526734 0 0 0-3.050998 7.794982c-1.64772 4.834518-2.513829 7.263849-2.954428 8.298955-3.769234 8.836124-9.059441 26.725653-11.380131 38.476973-1.511919 7.656163-1.943464 22.630496-0.80877 28.168162 0.310834 1.520972 0.703148 3.669647 0.872144 4.77718 0.165979 1.107533 0.407403 2.181871 0.534151 2.387081 0.126748 0.205211 0.307816 0.772557 0.401368 1.258424 0.298762 1.554168 3.373902 10.390292 4.110246 11.814694 0.392314 0.757468 0.721255 1.55115 0.733326 1.762396 0.009053 0.208228 0.42551 0.832913 0.920429 1.388189 0.494919 0.552258 1.053213 1.436474 1.240317 1.961571 3.37692 9.503058 15.535644 15.858548 30.980753 16.196542l8.286884 0.181068 2.115479 3.153603c1.457598 2.169799 2.531936 4.641379 3.449347 7.930783 2.040034 7.312134 4.903928 13.999583 9.264652 21.625568 0.552258 0.968714 2.284476 4.137406 3.847697 7.04355 2.86993 5.335474 4.765109 8.452863 8.32008 13.679695 1.07132 1.57831 1.9495 3.069104 1.9495 3.316564 0 0.24746 0.573382 1.107533 1.273512 1.910269 0.703148 0.805753 2.550043 3.470472 4.107228 5.920927 1.557186 2.453473 3.470472 5.163459 4.258119 6.023532 0.784628 0.860074 1.424402 1.774467 1.424402 2.030981 0 0.443617 3.530828 5.308313 4.903928 6.762894 0.347047 0.365154 0.630721 0.893269 0.630721 1.173925 0 0.570365 2.848805 4.783216 4.025747 5.957141 0.416457 0.413439 1.068302 1.354993 1.44251 2.091336 0.377225 0.733326 1.312744 2.021927 2.079265 2.860876 0.766522 0.838949 1.913286 2.275423 2.544007 3.189817 0.630721 0.917412 2.362939 3.023837 3.844679 4.683628 1.484758 1.659791 2.972535 3.367867 3.307511 3.799413 3.733021 4.783216 20.349038 21.360001 22.911151 22.856831 0.476813 0.277638 1.309726 0.884216 1.855949 1.351975 0.546222 0.467759 1.925358 1.599435 3.066086 2.513829 1.143747 0.917412 3.038926 2.459508 4.215869 3.428222 1.176943 0.965697 2.960464 2.329743 3.962374 3.026856 0.998892 0.697112 2.755253 1.943464 3.895982 2.767324 1.143747 0.82386 2.501758 1.777485 3.017802 2.118497l5.208726 3.452365c2.344832 1.557186 4.795287 3.032891 5.441097 3.277333 0.64581 0.24746 1.907251 1.004928 2.803537 1.689969 1.575293 1.201085 8.012264 4.819429 12.131564 6.820232 1.107533 0.537169 2.350868 1.192032 2.767324 1.451563 1.225228 0.775575 10.064369 4.789251 13.329631 6.05371 3.645505 1.412331 5.187601 2.058141 8.79991 3.6787 1.520972 0.682023 4.236994 1.708076 6.035603 2.281459 4.321492 1.376118 6.901713 2.477615 7.294027 3.117389 0.17805 0.283673 0.525098 0.392314 0.775575 0.238406 0.24746-0.153908 1.533043 0.156926 2.854841 0.694095 1.324815 0.537169 4.894875 1.77145 7.936818 2.743181 3.044962 0.968714 6.892659 2.221102 8.552451 2.782414 1.659791 0.561311 4.828483 1.502865 7.040531 2.094354 2.212049 0.588471 4.701735 1.267477 5.531631 1.505883 6.937926 1.997785 8.609789 2.417259 13.079153 3.292422 1.934411 0.377225 4.086104 0.832913 4.77718 1.010964 2.405188 0.618649 10.3239 2.193942 12.321685 2.453472a172.316483 172.316483 0 0 1 6.289099 1.026053c2.350868 0.422492 7.441899 1.013981 11.316757 1.318779 3.87184 0.30178 8.359311 0.697112 9.970817 0.878181l2.930285 0.32894-4.919016 2.516847c-6.032586 3.084193-15.580911 9.418559-17.789942 11.805641-0.138819 0.147872-1.044159 0.860074-2.012874 1.581328-0.968714 0.721255-3.343724 2.95141-5.281153 4.952212-1.937429 2.00382-4.481436 4.617237-5.658378 5.809269-1.176943 1.192032-2.136604 2.414241-2.136604 2.713004 0 0.30178-0.172015 0.54924-0.377225 0.552257-0.208228 0.003018-0.75445 0.624685-1.213157 1.382154-0.455688 0.760486-1.871037 2.851823-3.138514 4.650432-1.270495 1.79861-2.308618 3.440294-2.311636 3.65154 0 0.211246-0.443617 1.342922-0.983803 2.513829-5.263046 11.413326-5.045765 19.917492 0.666934 26.149253 1.204103 1.315762 2.335779 2.390099 2.519865 2.390099 0.181068 0 1.173925 0.531133 2.206013 1.176943 1.032088 0.648827 2.556078 1.364046 3.385973 1.593399l1.886126 0.52208a1.472687 1.472687 0 0 1 0.500956 0.229353c0.787646 0.7967 10.462719 1.469669 14.210828 0.986821 6.286081-0.805753 7.064674-0.932501 8.04546-1.309726 1.032088-0.395332 0.875163 0.015089-0.992857 2.586256-3.717932 5.112156-8.365347 17.225613-9.334061 24.3265-1.092444 7.97605 0.114676 19.682103 2.024945 19.682104 0.217282 0 0.775575 0.811789 1.246352 1.801627 0.470777 0.989839 0.953625 1.70204 1.074338 1.584346 0.117694-0.120712 0.968714 0.482848 1.886126 1.339904 3.95332 3.690772 13.815497 5.564827 21.95149 4.170602 0.968714-0.165979 2.664719-0.440599 3.772252-0.612613 1.107533-0.168997 4.04989-0.832913 6.539577-1.475705 2.489686-0.642792 5.884714-1.511919 7.544504-1.931394a59.601586 59.601586 0 0 0 5.782109-1.837841c10.191117-3.959356 11.033083-3.935214 7.677287 0.229353-2.178853 2.70395-5.564827 7.463024-6.922837 9.723357a5.29926 5.29926 0 0 1-0.820842 1.092445c-0.175033 0.135801-1.050195 1.608488-1.946482 3.268279-0.893269 1.659791-2.021927 3.585149-2.507793 4.276225-1.907251 2.713004-7.695395 16.069795-8.283866 19.111739a192.33658 192.33658 0 0 1-1.300673 5.785126c-3.002713 12.538966-3.232066 22.823635-0.712201 31.599403 3.986516 13.869817 14.956226 16.87253 41.727145 11.416344 8.55245-1.741272 17.065669-3.524793 17.856334-3.736039 0.413439-0.111659 4.261136-0.935519 8.549432-1.828788 4.288296-0.893269 8.700323-1.822752 9.807856-2.064176 1.107533-0.241424 3.029873-0.633738 4.276225-0.872145 3.259226-0.630721 7.022425-1.599435 9.053405-2.338796 0.965697-0.350065 3.57006-0.989839 5.782109-1.418367a128.202256 128.202256 0 0 0 6.289099-1.3731l4.77718-1.258423c1.382153-0.362136 4.665522-1.110551 7.294027-1.659791 7.819124-1.635649 12.762284-2.652648 13.830586-2.845787 2.534954-0.464741 4.243029-0.829895 7.040531-1.511919 2.556078-0.621667 14.751015-3.238101 18.861261-4.046872 0.694094-0.135801 1.711094-0.392314 2.263352-0.573383 0.555276-0.181068 1.234281-0.37119 1.508901-0.42551 2.381046-0.467759 14.681606-3.865804 16.012456-4.421079 1.913286-0.799717 4.134388-1.192032 8.884409-1.566239 1.79861-0.141837 4.855643-0.482848 6.790054-0.757469a275.516251 275.516251 0 0 1 5.281153-0.703147c0.968714-0.111659 2.667737-0.331958 3.772252-0.491902 1.107533-0.159943 3.711896-0.419474 5.785126-0.5764a69.228373 69.228373 0 0 0 7.294027-1.026053c1.934411-0.407403 5.094049-0.965697 7.019407-1.237299 1.925358-0.27462 3.905036-0.627703 4.396937-0.784628 1.056231-0.334976 2.420277-0.579418 5.181566-0.929483 1.104515-0.141837 2.49874-0.362136 3.096265-0.488884 9.249563-1.988731 42.635504-2.033998 49.965744-0.069409 0.138819 0.039231 1.044159 0.238406 2.012874 0.446634 0.965697 0.208228 3.117389 0.688059 4.77718 1.068302 1.659791 0.380243 3.947285 0.784628 5.081978 0.902323 1.137711 0.117694 2.305601 0.359118 2.598328 0.540186 0.292727 0.181068 1.514937 0.437581 2.713003 0.567347 1.201085 0.129765 4.897892 0.591489 8.217475 1.026053l7.794982 1.013981c0.968714 0.12373 3.57006 0.52208 5.785126 0.884216 2.378028 0.389296 7.616932 0.630721 12.825658 0.591489 26.650208-0.202193 37.628971-0.39835 43.50463-0.775575a565.566236 565.566236 0 0 1 15.089009-0.679005c4.704753-0.144854 11.832801-0.380243 15.84346-0.525098 4.010659-0.144854 16.459091-0.407403 27.664189-0.579418 23.403053-0.362136 23.529801-0.365154 26.982166-1.104515 2.580221-0.552258 6.213654-0.307816 6.213654 0.419474 0 0.211246 1.415349 0.374207 3.144549 0.362137 5.374705-0.033196 24.51964 0.712201 28.515209 1.113568 2.450455 0.244442 4.034801 0.193139 4.466347-0.144854 0.476813-0.374207 0.784628-0.331958 1.080373 0.144854 0.286691 0.461724 1.053213 0.585454 2.477615 0.392315 1.246352-0.165979 2.061159-0.072427 2.061159 0.235388 0 0.283673 0.666934 0.416457 1.484759 0.295745 0.814806-0.120712 1.367064-0.033196 1.225227 0.193139-0.229353 0.374207 0.271602 0.464741 3.591184 0.657881 0.558293 0.033196 1.291619 0.226335 1.623578 0.434563 0.331958 0.205211 2.136604 0.688059 4.010658 1.074338 1.874055 0.383261 5.103103 1.092444 7.179351 1.572274 2.07323 0.47983 4.279243 0.890252 4.903928 0.911377 0.621667 0.021125 1.131676 0.235389 1.131675 0.473795 0 0.241424 0.45267 0.316869 1.004928 0.172014 0.555276-0.144854 0.896287-0.081481 0.757469 0.138819-0.27462 0.443617 2.227138 1.216174 2.631523 0.811789 0.138819-0.138819 0.54924 0.045267 0.911376 0.407403 0.365154 0.365154 1.626595 0.814806 2.809573 1.004928 1.179961 0.187104 2.444419 0.591489 2.809574 0.896287 0.368172 0.30178 0.7967 0.422492 0.950607 0.265567 0.156926-0.153908 1.216174 0.045267 2.356904 0.446634 1.137711 0.401368 2.362939 0.618649 2.719039 0.479831 0.359118-0.135801 0.651845-0.006036 0.651845 0.292727 0 0.295745 0.337994 0.410421 0.754451 0.250477 0.413439-0.159943 0.75445-0.042249 0.75445 0.256513s0.45267 0.428528 1.007946 0.283674c0.552258-0.144854 0.87818-0.060356 0.724272 0.193139-0.156926 0.250478 0.126748 0.488884 0.627703 0.531133 1.626595 0.135801 1.901215 0.214264 3.057033 0.85102 0.627703 0.344029 1.364046 0.491902 1.635649 0.322905 0.271602-0.165979 0.491902-0.090534 0.491902 0.172015s0.621667 0.582436 1.382153 0.715219c2.598327 0.446635 6.412829 1.533043 8.425702 2.396134 2.260334 0.968714 5.335474 2.00382 5.914892 1.99175 0.211246-0.003018 1.080373 0.353083 1.934411 0.796699 0.854038 0.440599 1.994767 0.887234 2.531936 0.989839 1.30369 0.250478 4.348652 1.240317 6.216671 2.01891 2.206013 0.92043 3.711896 1.508901 14.207811 5.567844l5.157423 1.997785c6.02655 2.338796 15.520555 1.677898 18.106811-1.264459 0.135801-0.156926 0.703148-0.531133 1.255406-0.832913 1.439491-0.778593 5.181566-6.512416 5.833411-8.938729 0.528115-1.964589 0.685041-11.612501 0.202192-12.39713-0.126748-0.205211-0.362136-1.475705-0.519061-2.824663-0.159943-1.348957-0.808771-4.152495-1.44251-6.23176-1.038124-3.40408-1.12564-4.532738-0.552257-7.034496 0.09657-0.416457 0.193139-0.908358 0.214263-1.095462 0.021125-0.187104 1.24937-0.214264 2.731111-0.063374 5.350563 0.552258 8.990032-2.151693 11.899193-8.84216 2.891054-6.6452 1.472687-20.321877-3.135496-30.235356-3.443312-7.408703-3.512721-8.739554-0.434564-8.247652 3.37692 0.540187 14.12633-2.761289 14.12633-4.339599 0-0.168997 0.679005-1.07132 1.508901-2.000803 0.829895-0.929483 1.508901-1.892162 1.508901-2.136603 0-0.24746 0.341012-0.790664 0.757468-1.207121 0.419474-0.419474 0.630721-0.968714 0.473795-1.22221-0.156926-0.253495-0.093552-0.461724 0.138819-0.461724 0.573382 0 0.87818-2.477615 0.869127-7.043549-0.009053-3.702843-1.484758-10.058333-2.335779-10.058333-0.223317 0-0.407403-0.564329-0.407403-1.258424 0-0.691077-0.205211-1.255406-0.455688-1.255405-0.250478 0-0.799717-1.007946-1.216174-2.236191-0.419474-1.228245-1.744289-3.660594-2.945375-5.404883-1.198067-1.747307-2.486669-3.769234-2.860876-4.499543-0.37119-0.730308-1.45458-2.199978-2.40217-3.268279-0.950608-1.07132-2.115479-2.664719-2.586256-3.545917-1.738254-3.232066-10.471772-12.333756-14.379826-14.986404a34.629276 34.629276 0 0 1-3.497632-2.785431c-0.87818-0.82386-1.877073-1.49683-2.22412-1.49683-0.344029-0.003018-0.627703-0.229353-0.627703-0.506991 0-0.27462-0.202193-0.500955-0.449652-0.500955-0.244442 0-2.42933-1.246352-4.852625-2.767324s-4.680611-2.767324-5.015587-2.767324c-1.493812 0-7.025443-7.284974-6.298152-8.298955 0.679005-0.94759 3.503668-8.549433 4.113264-11.063262 0.331958-1.385171 1.164871-3.760181 1.846894-5.281153 0.682023-1.52399 2.07323-5.142334 3.093247-8.048477 1.871037-5.344527 1.988731-5.522577 7.475095-11.262436 2.290512-2.396135 4.224923-3.554971 6.690467-4.001606 2.462526-0.446635 9.373292-3.011766 13.767212-5.109138a261.58306 261.58306 0 0 1 7.022424-3.238101c1.3731-0.588471 2.845787-1.370082 3.271298-1.732219 0.422492-0.365154 2.583238-1.629613 4.795287-2.812591 7.429828-3.968409 13.737034-8.329133 20.391286-14.093134 3.50065-3.032891 9.032281-8.603753 9.032281-9.098673 0-0.172015 0.510009-0.881198 1.131676-1.575292 2.254298-2.522882 2.969517-3.52781 4.439186-6.24685 0.82386-1.52399 2.067194-3.373902 2.764307-4.116282 0.697112-0.739361 1.744289-2.136604 2.326725-3.105318a718.870567 718.870567 0 0 1 4.80434-7.801017c0.347047-0.54924 0.869127-1.566239 1.158836-2.257316 0.97475-2.323707 4.071015-8.292919 4.6957-9.053406 0.341012-0.416457 1.053213-1.774467 1.581328-3.017801 0.528115-1.246352 1.086409-2.378028 1.240317-2.516847 0.153908-0.138819 0.682023-1.161854 1.170907-2.27844 0.660899-1.49683 1.511919-2.350868 3.256208-3.26828 7.366454-3.874858 14.723855-15.233863 16.211631-25.032666 0.238406-1.57831 0.784628-4.903928 1.210139-7.393614 2.332761-13.57709 2.15471-34.6504-0.407404-48.788802a345.085636 345.085636 0 0 1-0.826877-5.027658c-0.555276-3.524793-2.420277-10.806748-3.736039-14.588054a154.704592 154.704592 0 0 1-1.801628-5.782108c-1.110551-3.808466-2.284476-6.949998-4.122317-11.033083a44.307366 44.307366 0 0 1-1.717129-4.629308c-0.392314-1.318779-1.101498-2.788449-1.57831-3.265262-0.47983-0.476813-0.772557-0.884216-0.651846-0.90534 0.389296-0.063374-1.656773-4.309421-2.073229-4.309421-0.223317 0-0.407403-0.238406-0.407404-0.531133 0-0.531133-1.611506-4.080068-2.49874-5.504471-0.259531-0.416457-1.650738-2.791467-3.093246-5.281153-1.445527-2.489686-3.328635-5.432043-4.188709-6.539576a115.074818 115.074818 0 0 1-3.521775-4.903928c-1.074337-1.590382-2.142639-2.891054-2.371992-2.891055-0.232371 0-0.419474-0.259531-0.419475-0.573382 0-2.815609-19.92051-21.314734-27.111931-25.17752-1.548132-0.832913-3.156621-1.783521-3.57006-2.112462-0.413439-0.32894-1.433456-0.899305-2.263351-1.264459s-1.849913-0.844985-2.263351-1.068301a226.428687 226.428687 0 0 0-4.526703-2.233174 209.791546 209.791546 0 0 1-4.644397-2.302582 4.255101 4.255101 0 0 0-1.683933-0.476813c-0.446635 0-1.409313-0.322905-2.145658-0.718237-8.715412-4.698717-23.059024-9.10169-33.775237-10.369167a565.294634 565.294634 0 0 1-7.794982-0.989839c-2.215067-0.30178-6.956033-0.476813-10.535146-0.395332l-6.512417 0.15089-0.606578-4.025748c-0.893269-5.887731-5.14837-18.278826-8.673162-25.262018-1.149782-2.275423-2.106426-4.427115-2.127551-4.777181-0.018107-0.353083-0.908358-1.997785-1.97666-3.657575a98.923543 98.923543 0 0 1-3.295439-5.534649c-0.742379-1.382153-2.341814-3.681718-3.554971-5.109138-1.210139-1.42742-2.202995-2.785431-2.202995-3.02082 0-0.232371-1.185996-1.686951-2.640577-3.232066a180.881004 180.881004 0 0 1-3.687754-4.019712 55.105061 55.105061 0 0 0-3.017801-3.087211 162.224954 162.224954 0 0 1-2.47158-2.384063c-10.595502-10.785624-21.058221-16.22672-35.459171-18.435752a67.945808 67.945808 0 0 1-3.772252-0.721254 24.522657 24.522657 0 0 0-4.372795-0.464742c-3.742074-0.021125-3.283368-1.068302 1.846894-4.212851a22.639549 22.639549 0 0 0 3.026856-2.344832 21.824743 21.824743 0 0 1 3.069104-2.338796c1.315762-0.781611 10.375203-7.888534 12.774355-10.02212 0.739361-0.657881 4.427115-3.82959 8.338187-7.173315 5.917909-5.057836 7.622967-6.569755 9.744482-8.624878 1.282566-1.246352 4.303385-4.158531 6.711591-6.473185 2.408206-2.314654 4.37883-4.333563 4.37883-4.481435 0-0.15089 1.243334-1.57831 2.767324-3.17171 1.520972-1.596417 2.764306-3.147567 2.764307-3.449347 0-0.298762 1.016999-1.792574 2.257316-3.319582 1.243334-1.52399 2.670755-3.621362 3.171709-4.659486 0.500955-1.038124 1.738254-3.238101 2.7462-4.891857 7.112959-11.651733 10.574378-27.59478 8.697305-40.061319-0.09657-0.639774-0.313851-2.184889-0.482849-3.428223-0.344029-2.513829-3.002713-9.143939-4.415044-11.008941-0.497937-0.657881-0.908358-1.493812-0.908358-1.855948s-1.354993-2.085301-3.008748-3.82959c-1.653755-1.747307-3.011766-3.337689-3.017802-3.533846-0.006036-0.199175-1.198067-1.246352-2.64963-2.329743a78.788769 78.788769 0 0 1-3.899-3.081176c-2.091337-1.855948-12.529913-6.605968-17.35236-7.894569-5.495417-1.469669-15.273095-3.588166-18.327111-3.971428-1.231263-0.153908-2.405188-0.383261-2.610398-0.510008-0.205211-0.126748-2.480633-0.356101-5.057836-0.513026-2.577203-0.156926-6.94698-0.491902-9.714304-0.745397-2.767324-0.253495-10.106618-0.37119-16.314237-0.259531l-11.283561 0.199175 2.845788-2.589274c1.566239-1.424402 4.128353-3.72095 5.694592-5.106121a718.34547 718.34547 0 0 0 7.043549-6.286081 328.57826 328.57826 0 0 1 5.444114-4.77718c1.614524-1.385171 5.341509-4.665522 8.280849-7.294027 2.939339-2.628505 7.025443-6.249868 9.080565-8.048478 2.052105-1.79861 4.345635-3.832608 5.097067-4.526703l6.31626-5.782108c11.265454-10.299758 19.820922-20.216254 21.040114-24.39591 0.202193-0.691077 0.648827-1.708076 0.995874-2.263351 3.44633-5.50447 2.067194-14.201775-2.903125-18.321075-4.472382-3.702843-18.60173-5.057836-37.061624-3.55497m21.532016 19.440679c-4.028765 5.658378-15.152383 17.047562-21.785511 22.301555-1.104515 0.875163-2.918214 2.423295-4.025748 3.437277-2.112461 1.937429-9.306901 8.32008-12.279435 10.9003-0.956643 0.829895-3.008748 2.640577-4.559899 4.02273-1.55115 1.382153-4.393919 3.87184-6.316259 5.53163s-4.629308 4.055926-6.011461 5.320385c-3.204906 2.933303-8.993049 7.629003-12.889032 10.462719-10.704143 7.773857-24.583013 22.998668-24.583013 26.961041 0 4.792269 2.040034 5.407901 15.843459 4.783216 53.970367-2.444419 68.67008-1.958553 82.874873 2.734128 25.328411 8.365347 29.833989 29.716294 12.059136 57.123971-14.171597 21.845867-64.765044 61.656709-93.072025 73.232996a94.001508 94.001508 0 0 0-10.812784 5.432043c-2.824662 1.708076-6.943962 4.206816-9.156011 5.549738-2.215067 1.342922-7.936819 5.009551-12.717016 8.148064-10.224313 6.708573-9.702233 6.934909-7.957944-3.437276 2.809573-16.703533 4.327528-33.111321 4.327528-46.797052 0-10.852015 2.109443-12.454468 16.392699-12.454468 14.023725 0 18.815994-1.605471 18.815995-6.301171 0-3.92616-1.499847-5.07896-7.514327-5.770037-2.091337-0.241424-7.876463-1.016999-12.855836-1.720147-18.659069-2.646612-28.979951-3.512721-48.284828-4.052907a574.010045 574.010045 0 0 1-17.856334-0.784629 2830.185064 2830.185064 0 0 0-26.155288-1.499847c-54.631266-2.936321-70.287622-7.24876-69.249498-19.075526 1.460616-16.646195 19.12381-36.777951 60.775511-69.27364 34.209801-26.689439 80.813714-52.71798 116.583719-65.109074 24.036791-8.329133 44.008604-11.570252 73.368797-11.908246l8.706358-0.099587-1.665826 2.341814M356.423517 187.61372c29.444692 1.671862 48.417612 5.088014 71.600366 12.882996 13.682713 4.602148 30.356068 11.980673 35.788112 15.837424 0.736344 0.52208 1.484758 0.94759 1.662808 0.94759 1.653755 0 20.79869 13.595197 30.199143 21.444499 37.14914 31.016967 74.159461 82.751143 87.000208 121.599306 8.292919 25.093022 11.835819 52.606321 9.267669 71.974573a127.146026 127.146026 0 0 0-0.651845 6.111049c-0.099587 1.42742-0.325923 2.824662-0.503973 3.108336-0.175033 0.283673 0.138819 0.660899 0.694095 0.835931 1.738254 0.552258 0.875163 13.842657-2.34785 36.216639-1.013981 7.049585-4.415044 23.496605-5.978265 28.922613-0.440599 1.520972-1.789556 6.500345-2.999695 11.063261-1.213156 4.565934-2.7462 9.883301-3.410116 11.82073l-2.839752 8.298955c-0.899305 2.628505-1.807663 5.003515-2.015892 5.281153-0.211246 0.277638-1.297655 2.540989-2.414241 5.030675-6.681413 14.892852-7.004318 15.448127-15.958136 27.495193-13.411111 18.040419-24.242002 30.292694-30.790632 34.82845-1.877073 1.300673-4.771145 3.364849-6.430935 4.584041-4.587059 3.37692-10.526093 7.30308-18.695283 12.363934-3.370885 2.088319-12.155706 6.913784-14.751015 8.105816-0.968714 0.446635-4.203798 1.958553-7.191421 3.364849-2.990642 1.406296-5.516542 2.556078-5.622165 2.556078-0.102605 0-3.880893 1.566239-8.398543 3.479525-18.070597 7.656163-37.831163 12.188901-59.514069 13.652536-14.268167 0.965697-35.090999-0.588471-58.07156-4.327528-32.97552-5.365652-81.184904-22.663692-107.153089-38.449813a812.814737 812.814737 0 0 0-8.549432-5.142334c-3.44633-1.985714-16.000385-11.232258-17.605856-12.964477-0.138819-0.147872-2.740164-2.456491-5.782108-5.127245-16.851405-14.793264-31.285551-32.553028-41.627558-51.227185-15.221792-27.477085-21.999775-46.555628-21.999775-61.919258 0-5.257011 0.108641-6.032586 0.881198-6.304188 1.871037-0.654863 16.525483-6.841357 21.40225-9.035298 2.821645-1.267477 6.714609-2.86993 8.64902-3.564024a111.257299 111.257299 0 0 0 5.534649-2.133586c4.44824-1.934411 6.931891-2.667737 6.464131-1.910269-0.208228 0.337994-0.066392 0.449652 0.368172 0.286691 1.810681-0.691077 9.850105-3.126443 10.541182-3.195852 0.42551-0.042249 1.273512-0.347047 1.886126-0.672969 0.609596-0.325923 1.110551-0.446635 1.110551-0.262549 0 0.181068 0.280656 0.117694 0.627703-0.138819a2.426313 2.426313 0 0 1 1.382153-0.422492c0.416457 0.024142 0.869127-0.078463 1.007946-0.229353 0.663916-0.72729 9.466844-2.021927 13.752123-2.021928 8.64902 0 11.159831 4.249065 14.874745 25.183557 2.12755 11.995762 8.398542 29.299838 12.321684 34.007608 0.419474 0.503973 1.42742 1.913286 2.236192 3.132478 16.932886 25.506461 47.237652 27.175305 137.379391 7.571665 27.878453-6.062764 47.986066-10.176028 57.941795-11.853925 7.242724-1.22221 9.098672-0.497937 11.404273 4.460311 3.002713 6.449042 4.037819 11.709071 4.074032 20.662889 0.024142 6.485256 2.435366 9.131868 8.311026 9.131868 7.0013 0 8.600735-2.809573 8.12694-14.280238-1.436474-34.858629-9.306901-44.132334-31.765381-37.435832-7.580718 2.260334-15.55375 4.101193-36.4641 8.413632a1696.306393 1696.306393 0 0 0-16.851405 3.539881c-11.739249 2.643594-30.380211 6.313241-32.064144 6.313242-1.086409 0-4.164566 0.437581-6.835321 0.971732-2.670755 0.534151-7.801018 1.433456-11.39522 2.000802-43.009711 6.784018-60.84492 6.45206-71.020947-1.315761-1.19505-0.911376-2.381046-1.656773-2.634541-1.656773-1.201085 0-6.784018-8.301973-9.343115-13.896978-5.616129-12.2734-8.135994-24.106201-9.309918-43.743037-1.520972-25.443087-8.422685-34.149445-23.122398-29.161019-6.400758 2.169799-43.202851 17.666212-63.373837 26.683404-38.419635 17.171292-60.869062 20.813779-69.149911 11.223205-11.343917-13.139509-12.167777-36.850378-2.296547-66.282999 17.771835-53.010706 34.457261-83.427131 62.878918-114.631201C164.3857 262.65438 182.570973 245.649067 195.402667 236.173169l6.539576-4.837536c26.997255-20.017079 66.026486-36.880556 95.815207-41.401223 17.506268-2.658683 38.265727-3.479525 58.666067-2.32069m426.421431 135.81617c11.57327 15.71973 17.310111 50.409361 13.175722 79.663932-5.667432 40.094515-20.632711 95.673371-28.883381 107.26173-0.615632 0.863091-1.119604 1.70204-1.119604 1.861983 0 2.664719-9.518147 15.387771-17.584731 23.505659-26.514407 26.689439-49.769587 36.681381-73.703774 31.668812-40.556238-8.492094-63.108271-28.735509-67.855273-60.905276-0.869127-5.87566-1.016999-5.782108 2.420277-1.527008 1.569257 1.943464 3.57006 3.905036 4.445222 4.357706 0.875163 0.45267 2.872947 1.696005 4.439186 2.764306 19.015169 12.979566 54.595052 12.861871 82.702859-0.27462 2.709986-1.264459 5.229851-2.302583 5.60104-2.302582 2.824662 0 22.835706-14.585036 30.159911-21.984687 19.229433-19.422572 37.541454-62.79442 43.17569-102.246142 1.846895-12.952405 2.018909-47.762749 0.289709-59.351108-0.983803-6.587861-0.561311-6.97414 2.737147-2.492705m-102.228036 14.757051c35.027626 11.974638 42.590237 68.851148 13.848692 104.171501-31.834791 39.1258-80.569273 17.337271-80.445543-35.960127 0.021125-9.675073 0.141837-10.396327 3.938232-23.891937 9.207313-32.728061 37.67122-52.862834 62.658619-44.319437m190.81259 34.689632c24.139397 7.846285 35.287156 42.445382 24.088094 74.763022-15.713694 45.342472-62.89099 55.856494-81.193958 18.094739-17.470055-36.038589 4.415044-87.311042 40.218245-94.221808 3.57006-0.691077 12.886014 0.063374 16.887619 1.364047m92.513732 1.520972c5.920927 14.171597 6.693484 51.571215 1.677898 81.290527-7.393614 43.830553-15.689552 67.671188-32.725043 94.058847-16.941939 26.242804-46.609949 42.828643-69.804774 39.026213-14.177633-2.323707-36.732684-14.687641-45.819284-25.114147-6.844374-7.85232-8.821035-11.748302-14.023725-27.637029-3.108336-9.494004-3.093247-9.59661 0.745397-6.056728 13.52277 12.472575 25.265037 17.020402 43.758126 16.950993 30.374175-0.117694 56.209576-12.001798 75.303208-34.644365 0.932501-1.107533 2.519865-2.888036 3.524793-3.959356 12.554055-13.362826 26.592869-45.807214 32.278408-74.584972 3.80243-19.250558 6.005426-51.07026 4.113264-59.393357-0.485866-2.133586 0.069409-2.097372 0.971732 0.063374m55.002455 32.507761c8.990032 2.193942 26.713582 9.744482 35.130231 14.965279 31.207088 19.356181 55.038669 67.797935 55.117132 112.029856 0.066392 39.928536-10.489879 51.553108-33.008716 36.343387-16.096955-10.876158-34.734899-2.815609-34.780166 15.043742-0.030178 12.30056 14.741962 13.468449 16.3927 1.294637 0.75445-5.561809 3.123425-6.011461 9.792767-1.855948 2.465544 1.536061 6.068799 3.554971 8.006228 4.484454 1.934411 0.929483 3.6787 1.849913 3.874857 2.046069 0.938536 0.938536-6.446025 11.660786-11.932388 17.334254-2.009856 2.07323-3.899 4.261136-4.203798 4.858661-0.395332 0.778593-0.875163 1.013981-1.689969 0.835931-0.914394-0.202193-0.989839-0.144854-0.383261 0.289709 0.510009 0.365154 0.552258 0.540187 0.12373 0.546222-0.344029 0.003018-0.627703 0.32894-0.627703 0.718237 0 0.392314-0.265567 0.802735-0.591489 0.911376-0.331958 0.111659-0.422492 0.470777-0.208228 0.820842 0.295745 0.476813 0.552258 0.485866 1.095462 0.033196 0.561311-0.464741 0.709183-0.416457 0.709183 0.229353 0 0.506991 0.428528 0.817824 1.131676 0.82386 0.682023 0.003018 0.899305 0.153908 0.54924 0.377225-0.365154 0.232371 0.162961 0.691077 1.391207 1.216174 1.086409 0.464741 1.858966 0.654863 1.714111 0.419475-0.144854-0.235389 0.018107-0.561311 0.368172-0.727291 0.347047-0.165979 0.120712-0.205211-0.500955-0.090534-0.621667 0.114676-1.131676 0.111659-1.131676-0.009053 0-0.374207 2.239209-1.092444 2.64963-0.848002 0.211246 0.12373-0.087516 0.893269-0.666934 1.705058-0.579418 0.814806-1.261441 1.351975-1.517954 1.192031-0.256513-0.156926-0.464741 0.144854-0.464742 0.669952 0 6.497327-33.784291 27.664189-51.242275 32.106394-7.683323 1.952518-7.061656 3.6787-6.020514-16.730694 0.600543-11.781498 0.558293-13.02785-1.095462-30.857023-1.520972-16.413824-4.538774-32.082251-8.5947-44.648378-6.319277-19.570445-20.774548-47.385524-26.595887-51.166829-0.908358-0.591489-1.457598-1.318779-1.327833-1.762396 0.120712-0.413439 0.905341-3.017802 1.741272-5.782109 2.37501-7.855338 3.862786-14.087099 6.593897-27.664189 4.037819-20.077435 5.127245-27.274893 6.249867-41.337849 0.657881-8.226528 0.772557-8.784821 2.338797-11.567234 9.29483-16.498322 16.154293-20.023115 31.614491-16.247845m-234.643143 111.981571c3.310529 39.149943 17.865387 61.44848 50.37013 77.159157 27.009326 13.055011 45.179511 13.236079 69.913414 0.697112 24.45023-12.394112 40.465704-30.184054 55.802173-61.979613 3.02082-6.258921 2.734128-6.334366 6.27401 1.665826 15.602035 35.247925 26.580798 91.228148 22.938312 116.963963-5.094049 35.975215-19.748495 72.475528-38.256674 95.272002-9.409506 11.591377-27.350338 29.245517-43.990497 43.290367-7.963979 6.720645-8.667127 7.194439-25.651315 17.279933-16.863476 10.013066-37.475063 18.381431-57.59173 23.384947-23.110326 5.745895-24.263126 5.954123-39.684093 7.073727-32.444387 2.356903-56.942902 0.503973-103.14243-7.807053-15.276113-2.749217-39.738414-9.032281-54.112204-13.896978-8.341204-2.824662-18.840137-12.717017-32.347818-30.470744-14.838531-19.510089-26.52346-29.803811-39.267637-34.590045-15.049778-5.652343-36.720612-20.819815-46.44397-32.498707-2.888036-3.47349-3.853733-4.29735-10.224312-8.733519-12.077243-8.407596-26.134164-23.406071-29.520137-31.499815-1.406296-3.355796-2.139621-10.010049-1.62056-14.693677 0.455688-4.122317 0.470777-4.14646 3.280351-5.232868a109.944555 109.944555 0 0 0 5.030675-2.157728c1.659791-0.760486 4.828483-2.15471 7.040532-3.099283 16.812174-7.170297 43.341669-24.012649 57.591729-36.557651 2.07323-1.82577 5.241922-4.541792 7.040532-6.032586 16.869512-13.999583 33.642454-38.908519 50.252436-74.633256 1.010964-2.175835 0.793682-2.378028 6.08087 5.664414 9.804838 14.913977 21.390179 24.178628 40.740325 32.580188 14.790247 6.421882 38.528276 10.462719 51.344879 8.742572 30.105591-4.043854 69.487904-34.541759 85.005442-65.827311 2.547025-5.136299 2.719039-5.139316 3.147567-0.063374m-45.897748 60.856992c-16.35045 7.128048-5.528613 24.748993 19.567427 31.864969 1.795592 0.510009 4.511614 1.288601 6.035604 1.7292 11.893157 3.443312 28.433729 3.642487 40.95157 0.488884 4.043854-1.016999 3.606273-1.397242-2.22412-1.940446-28.325088-2.628505-56.57473-16.655248-61.07729-30.331926-0.959661-2.918214-0.854038-2.857858-3.253191-1.810681m327.630671 38.395492c0.181068 0.295745-0.042249 0.365154-0.555276 0.165979-0.561311-0.214264-0.745397-0.135801-0.52208 0.223317 0.187104 0.304798 0.132783 0.685041-0.123729 0.841967-0.368172 0.229353-0.413439-0.552258-0.090534-1.602453 0.099587-0.331958 1.020017-0.066392 1.291619 0.37119M434.312982 683.532108c1.659791 0.325923 3.247155 0.784628 3.52781 1.013982 0.277638 0.232371 1.635649 0.697112 3.017802 1.035106 4.279243 1.050195 9.361221 3.974445 6.937926 3.992551-0.703148 0.006036-0.621667 0.156926 0.347048 0.654863 1.062266 0.54924 1.30369 0.531133 1.55115-0.105623 0.229353-0.591489 0.347047-0.537169 0.552257 0.24746 0.214264 0.820842 0.015089 0.995875-1.12564 0.980786-0.763504-0.012071-1.264459-0.2203-1.113569-0.464742 0.15089-0.244442-0.039231-0.32894-0.422492-0.190121s-0.642792 0.510009-0.573382 0.820842c0.069409 0.310834-0.138819 0.564329-0.461724 0.564329s-0.455688 0.132783-0.292727 0.292726c0.159943 0.159943 0.718237 0.063374 1.240317-0.217281 0.552258-0.292727 1.246352-0.325923 1.653755-0.072428 0.540187 0.331958 0.392314 0.573382-0.65788 1.050195-1.240317 0.564329-1.57831 1.062266-1.415349 2.091337 0.033196 0.208228-0.181068 0.377225-0.473795 0.377225s-0.392314 0.226335-0.2203 0.503973c0.168997 0.27462 0.057338 0.500955-0.253495 0.500955-0.307816 0-0.422492 0.226335-0.250478 0.503973 0.172015 0.277638 0.072427 0.503973-0.220299 0.503973-0.295745 0-0.534151 0.325923-0.534151 0.724273s-0.223317 0.863091-0.497938 1.032088c-0.286691 0.17805-0.386279-0.075445-0.235388-0.600543 0.147872-0.510009 0.003018-0.413439-0.334976 0.226335-0.416457 0.793682-1.059248 1.137711-2.151693 1.149783-3.443312 0.042249-18.677175 2.927268-22.431321 4.246047-5.287189 1.858966-14.989422 5.917909-16.848387 7.046567a90.202096 90.202096 0 0 1-5.060854 2.743182c-2.909161 1.451563-10.360114 6.711591-13.073117 9.22542-0.742379 0.691077-2.788449 1.563221-4.90091 2.094355-1.991749 0.500955-5.932998 1.768432-8.757661 2.815609-13.353773 4.952213-25.539657 6.841357-29.26966 4.532738-1.409313-0.869127 2.040034-9.246545 6.017497-14.615214 17.977045-24.251055 58.210379-40.351028 86.731624-34.704721M467.759279 717.938066c6.331348 1.026053 8.549433 1.696005 8.549433 2.583239 0 1.077355-2.052105 6.844374-2.89709 8.148065-0.404385 0.621667-0.60356 1.463634-0.446635 1.871037 0.165979 0.434563-0.175033 1.068302-0.811788 1.514936-0.60356 0.422492-0.929483 0.766522-0.721255 0.766522 0.205211 0 0.006036 0.564329-0.446635 1.255405-0.45267 0.688059-1.020017 1.128658-1.264459 0.977768-0.241424-0.15089-0.313851 0.05432-0.159943 0.455688s0.003018 0.902323-0.334976 1.110551c-0.419474 0.259531-0.485866 0.172015-0.208228-0.277637 0.262549-0.42551 0.208228-0.537169-0.153908-0.313852-0.304798 0.190122-0.416457 0.718237-0.241424 1.170907 0.238406 0.621667 0.108641 0.745397-0.525098 0.503973-0.597525-0.229353-0.841967-0.057338-0.841967 0.603561 0 0.513026-0.337994 1.213156-0.75445 1.557185-1.255406 1.041142-0.983803 1.261441 5.549737 4.532739 7.529415 3.772252 7.381543 3.600238 4.107229 4.771144-11.814694 4.230958-26.300143 12.545002-37.155176 21.326806-2.700933 2.187906-3.388991 2.495722-6.243832 2.80052-6.717627 0.721255-17.913671 3.654558-33.654526 8.824052-12.768319 4.194745-18.399538 5.528613-24.755028 5.872642-6.777983 0.365154-7.185386 0.165979-7.17935-3.551952 0.015089-10.746392 8.709376-27.356373 21.559176-41.180924 2.248262-2.417259 4.089121-4.635344 4.089121-4.925052 0-2.115479 7.45397-7.855338 14.52468-11.183974 18.803923-8.848195 41.404241-12.294525 60.416392-9.213349m526.2141 15.918905c13.809461 7.025443 22.180843 14.431128 30.675956 27.133056 9.358203 13.987511 10.224313 18.02533 3.367867 15.659374-11.787534-4.067997-18.559481-8.084691-24.441177-14.491485-5.456186-5.94507-13.411111-12.336774-18.622855-14.962261a261.746021 261.746021 0 0 1-4.058944-2.067194c-0.075445-0.05432 0.208228-0.751433 0.630721-1.548133 0.908358-1.705058 4.713806-10.000995 5.338491-11.630608 0.510009-1.333868 0.995875-1.201085 7.109941 1.907251m-492.807034 9.331043c1.122622 0.431546 0.986821 1.204103-0.211246 1.204103-0.558293 0-1.004928-0.334976-1.004928-0.75445 0-0.848002 0.090534-0.881198 1.216174-0.449653m476.025039 19.060436c12.152688 6.412829 24.742957 21.535034 35.19964 42.279404 4.460311 8.848195 7.493202 20.433536 5.643289 21.577282-0.685041 0.422492-7.72859-4.230958-11.84789-7.82516-1.45458-1.270495-4.372795-3.256208-6.482238-4.415044-2.109443-1.158836-5.625183-3.561006-7.813089-5.344527-5.033693-4.095157-9.331043-6.880588-14.123312-9.146957-2.07323-0.980786-6.488274-3.090229-9.807856-4.683628-9.071512-4.354688-11.636644-5.47731-15.436056-6.756859-4.387884-1.478723-4.35167-1.424402-2.133586-3.12946 4.897892-3.760181 10.951603-9.59661 13.610286-13.12442 4.77718-6.337384 8.839141-11.193027 9.361221-11.193027 0.268584 0 1.991749 0.793682 3.829591 1.762396m-457.571181 0.006036c26.8524 2.640577 37.179318 8.996067 39.726343 24.45023 0.639774 3.880893-0.193139 8.902515-1.623577 9.783714-0.262549 0.162961-0.337994 0.72729-0.172015 1.255405 0.383261 1.210139-1.985714 5.727788-4.034801 7.698412-0.829895 0.7967-1.210139 1.282566-0.844984 1.080374 0.54924-0.304798 0.552258-0.187104 0.02716 0.654863-0.353083 0.564329-0.857056 0.893269-1.122622 0.72729-0.262549-0.162961-0.334976-0.060356-0.156926 0.226335 0.17805 0.286691-0.165979 1.143747-0.763504 1.901215l-1.086409 1.382153 5.839447 5.591987c3.210941 3.078158 7.773857 7.17935 10.142832 9.116779 4.946177 4.040837 4.919017 3.920125 1.412331 6.901713-6.09596 5.181566-17.593785 8.884409-45.888694 14.778175-16.492287 3.437276-29.607653 6.391704-38.980946 8.781804-5.257011 1.342922-13.17874 3.229048-17.602838 4.197762-4.427115 0.965697-9.874247 2.215067-12.104403 2.776378-2.233173 0.561311-6.871535 1.584346-10.311829 2.275422-3.440294 0.691077-10.667929 2.175835-16.060741 3.298458-16.69448 3.476508-21.19704 3.316564-22.147647-0.772558-6.69952-28.892434 27.860346-79.132799 67.665152-98.371285 15.692569-7.580718 28.575565-9.653948 48.088671-7.734626m435.257554 48.287847c13.906031 0.923447 16.914779 1.514937 22.865884 4.50256 16.863476 8.47097 26.604941 21.782493 29.930559 40.903285 1.744289 10.040227-3.147567 12.481628-14.437164 7.203493-13.015779-6.083888-70.109571-23.366839-84.833427-25.678475-5.525595-0.866109-9.231456-4.713806-7.12503-7.393615 0.5764-0.730308 1.044159-1.85293 1.04416-2.498739 0-1.756361 8.884409-9.412524 14.413021-12.418255 9.557378-5.196655 16.576785-6.047675 38.141997-4.620254m-123.0901 41.838804c0.624685 0.120712 1.530026 0.117694 2.012874-0.009054 0.47983-0.126748-0.033196-0.223317-1.137711-0.220299-1.107533 0.006036-1.499847 0.108641-0.875163 0.229353m5.02464 0c0.621667 0.120712 1.638666 0.120712 2.263352 0 0.621667-0.120712 0.111659-0.217282-1.131676-0.217282-1.246352 0-1.756361 0.09657-1.131676 0.217282m5.537667 0c0.624685 0.120712 1.530026 0.117694 2.012873-0.009054 0.47983-0.126748-0.033196-0.223317-1.137711-0.220299-1.107533 0.006036-1.499847 0.108641-0.875162 0.229353" fill="#584544" p-id="4736"></path><path d="M916.153324 79.018122c-12.505771 0.588471-32.215034 2.875965-38.262709 4.436169-18.411609 4.756056-33.929146 10.130761-48.508146 16.797085a128.437645 128.437645 0 0 1-5.407901 2.308618c-7.463024 2.942357-38.579578 19.94767-50.964636 27.854311a2041.150605 2041.150605 0 0 1-7.794983 4.943159c-7.004318 4.42108-24.607156 17.086794-31.385138 22.579193a2792.613431 2792.613431 0 0 1-13.776265 11.039119c-11.609484 9.180153-27.926738 25.627173-26.96406 27.184359 0.241424 0.386279 0.322905 0.884216 0.187104 1.104515-0.135801 0.2203 0.006036 0.401368 0.313852 0.401368 0.310834 0 0.422492 0.226335 0.253495 0.503973-0.172015 0.27462-0.129765 0.503973 0.093552 0.506991 0.226335 0.003018 0.841967 0.908358 1.370082 2.012873 0.528115 1.104515 1.167889 2.006838 1.418367 2.006839 0.682023 0 1.89518 1.339904 1.536061 1.699022-0.172015 0.172015-0.057338 0.310834 0.256513 0.310834 0.310834 0 1.424402 0.866109 2.47158 1.922339 2.589274 2.610399 6.681413 5.685539 7.167279 5.383759 0.217282-0.135801 0.977768 0.292727 1.686951 0.950607 0.709183 0.657881 1.415349 1.068302 1.572275 0.911376 0.153908-0.153908 0.280656 0.075445 0.280655 0.510009 0 0.558293 0.334976 0.718237 1.131676 0.543204 0.733326-0.159943 0.914394-0.093552 0.519062 0.19314-0.416457 0.298762 0.111659 0.654863 1.635648 1.104515 1.234281 0.365154 2.248262 0.87818 2.248263 1.140729 0 0.262549 0.205211 0.350065 0.458706 0.193139 0.253495-0.156926 0.5764 0 0.715219 0.347048 0.190122 0.473795 0.265567 0.47983 0.295744 0.021124 0.024142-0.401368 0.679005-0.232371 1.904233 0.488884 1.026053 0.606578 2.10039 1.155818 2.387081 1.219192 0.289709 0.066392 1.430438 0.374207 2.537972 0.685041 1.671862 0.470777 7.233671 1.858966 10.960656 2.734129 0.494919 0.117694 1.626595 0.431546 2.513829 0.70013 3.464436 1.050195 7.230653 2.030981 9.038316 2.353885 1.041142 0.187104 2.015892 0.540187 2.166782 0.787646 0.15089 0.244442 1.460616 0.443617 2.906143 0.443617 1.448545 0 3.980481 0.365154 5.6282 0.808771 1.650738 0.446635 3.639469 0.896287 4.42108 1.00191 0.781611 0.105623 1.590382 0.295745 1.795592 0.422492 0.350065 0.217282 7.209529 2.130568 9.355186 2.607381 2.652648 0.594507 6.675378 1.330851 7.864391 1.442509 0.72729 0.066392 1.581328 0.283673 1.901215 0.482849 0.319887 0.196157 1.418367 0.461724 2.441402 0.588471 1.023035 0.126748 2.317672 0.519062 2.875965 0.869127 0.555276 0.353083 1.889144 0.694094 2.960464 0.757468 1.086409 0.063374 2.308618 0.503973 2.767324 0.995875 0.449652 0.488884 0.64581 0.624685 0.437581 0.304798-0.395332-0.606578 4.62629 0.114676 5.157423 0.739361 0.138819 0.162961 0.932501 0.316869 1.762397 0.34403 2.193942 0.066392 7.342312 0.636756 8.79991 0.97475 0.694094 0.159943 2.275423 0.313851 3.521774 0.341011 1.243334 0.02716 2.42933 0.295745 2.631524 0.600543 0.262549 0.389296 0.374207 0.377225 0.377225-0.039232 0.006036-0.389296 0.654863-0.510009 1.895179-0.3561 2.77336 0.347047 9.681108 0.482848 9.684126 0.193139 0-0.138819 2.263351-0.304798 5.027658-0.371189 3.723967-0.090534 5.030676 0.042249 5.036711 0.500955 0.006036 0.416457 0.162961 0.380243 0.473795-0.111659 0.265567-0.422492 1.382153-0.781611 2.631523-0.844985 1.192032-0.063374 2.169799-0.15089 2.1698-0.199174s0.790664-0.147872 1.759378-0.2203a138.981844 138.981844 0 0 0 5.030676-0.528115 143.040788 143.040788 0 0 1 4.300368-0.476813c0.567347-0.045267 1.246352-0.214264 1.5089-0.374207 1.140729-0.703148 4.50256-0.600543 4.36676 0.132783-0.078463 0.437581 0.24746 0.286691 0.814806-0.377225 0.67297-0.784628 1.626595-1.149782 3.277333-1.255406 1.279548-0.084498 2.326725-0.334976 2.329743-0.558293 0-0.223317 0.205211-0.277638 0.458706-0.120712 0.253495 0.153908 0.537169 0.081481 0.627703-0.165979 0.093552-0.24746 1.189014-0.570365 2.432348-0.715219 1.246352-0.147872 2.716022-0.401368 3.271297-0.564329 0.552258-0.162961 2.248262-0.546222 3.772252-0.854038 1.520972-0.304798 3.331653-0.7967 4.02273-1.089427 0.691077-0.295745 1.370082-0.558293 1.508901-0.582435 0.138819-0.024142 0.534151-0.223317 0.881198-0.4406 0.344029-0.2203 0.814806-0.286691 1.041142-0.144854 0.226335 0.141837 1.020017-0.060356 1.759378-0.443617 0.742379-0.383261 1.348957-0.579418 1.348958-0.437581 0 0.144854 0.784628-0.2203 1.741271-0.811789 0.959661-0.594507 2.365957-1.192032 3.129461-1.33085 0.760486-0.135801 1.617542-0.431546 1.901215-0.657881 0.286691-0.223317 1.726183-0.688059 3.19887-1.035106 1.472687-0.344029 2.80052-0.941554 2.945374-1.321797 0.147872-0.383261 0.657881-0.697112 1.134694-0.697113 0.47983 0 1.038124-0.168997 1.246352-0.377225a1.548132 1.548132 0 0 1 0.712201-0.413439c1.038124-0.120712 8.132976-3.814501 8.132976-4.236993 0-0.277638 0.250478-0.503973 0.558293-0.503973 0.905341 0 7.991139-4.581023 7.991139-5.166477 0-0.292727 0.138819-0.395332 0.310834-0.223317 0.172015 0.172015 1.131676-0.467759 2.136604-1.421385 1.004928-0.950608 2.148675-1.732218 2.540989-1.735236 0.392314-0.003018 0.582436-0.132783 0.42551-0.289709-0.159943-0.159943 0.467759-1.119604 1.391207-2.139622l3.485561-3.847697c0.992857-1.101498 2.184889-2.854841 2.646612-3.899 0.458706-1.044159 1.020017-1.898197 1.243334-1.898197 0.223317 0 0.362136-0.172015 0.307816-0.377225-0.057338-0.208228 0.748415-2.160746 1.783521-4.342617 1.038124-2.178853 2.10039-5.100085 2.365956-6.488274 0.262549-1.388189 0.715219-2.809573 1.004928-3.159638 0.368172-0.443617 0.353083-0.739361-0.057338-0.992857-0.383261-0.235389-0.404385-0.464741-0.063374-0.679006 4.001605-2.47158-1.970625-5.371687-16.25388-7.894569-6.744787-1.192032-42.994622-0.799717-70.245373 0.760486-13.737034 0.787646-17.056616-1.587364-12.819622-9.165064 2.483651-4.442204 13.999583-16.030563 22.208004-22.346823 8.495112-6.542594 9.421577-7.339294 37.930751-32.598295a637.812411 637.812411 0 0 1 11.108528-9.626787c6.817214-5.700628 17.35236-16.788031 20.343002-21.414322l0.896287-1.382153-4.961266 0.075445c-2.728093 0.042249-8.808963 0.256513-13.513717 0.47983M309.57818 188.953624c-3.044962 0.416457-5.721752 1.020017-5.948087 1.339904-0.298762 0.416457-0.482848 0.42551-0.648828 0.02716-0.32894-0.793682-2.797502-0.232371-3.859768 0.875163-0.494919 0.516044-1.119604 0.938536-1.385171 0.938536-0.570365 0-0.648827-0.829895-0.105623-1.134693 0.208228-0.114676 0.039231-0.108641-0.377226 0.018107-0.416457 0.126748-1.038124 0.241424-1.382153 0.253495-0.347047 0.012071-0.633738 0.268584-0.636756 0.567347-0.006036 0.30178-0.226335 0.205211-0.494919-0.208229-0.404385-0.624685-0.491902-0.582436-0.503973 0.250478-0.012071 0.835931-0.099587 0.87818-0.503973 0.253495-0.268584-0.419474-0.488884-0.497937-0.49492-0.175032-0.009053 0.739361-2.957446 1.786539-3.711896 1.312744-1.213156-0.757468-1.934411-0.615632-1.228245 0.241424 0.585454 0.709183 0.534151 0.730308-0.482849 0.187103-1.312744-0.697112-2.121515-0.377225-2.142639 0.851021-0.015089 0.787646-0.051303 0.787646-0.503973 0.018106-0.630721-1.080373-3.04798-0.12373-2.604363 1.029071 0.199175 0.525098 0.039231 0.639774-0.561311 0.410421-0.464741-0.17805-0.841967-0.105623-0.841967 0.162961a0.491902 0.491902 0 0 1-0.488883 0.488884c-0.268584 0-0.341012-0.377225-0.16598-0.838949 0.217282-0.561311 0.129765-0.718237-0.265566-0.473795-0.325923 0.202193-0.588471 0.736344-0.588471 1.192032 0 0.609596-0.147872 0.675988-0.567347 0.259531-0.416457-0.419474-0.835931-0.313851-1.605471 0.404385-0.609596 0.570365-1.418367 0.85102-1.9495 0.682024-0.546222-0.172015-0.908358-0.036214-0.908358 0.344029 0 0.353083-0.325923 0.202193-0.739361-0.341012-0.72729-0.965697-0.739361-0.965697-0.787647 0.027161l-0.051302 1.007945-0.434564-1.007945-0.431545-1.004928-0.075446 1.004928c-0.042249 0.591489-0.181068 0.739361-0.334976 0.3561-0.187104-0.464741-0.443617-0.497937-0.899304-0.117694-0.350065 0.289709-1.572275 0.582436-2.716022 0.648827-1.143747 0.066392-2.079265 0.313851-2.079266 0.54924 0 0.238406-0.353083 0.298762-0.78161 0.132784-0.428528-0.165979-0.660899-0.102605-0.513027 0.135801 0.147872 0.238406-0.286691 0.434563-0.968714 0.434563-1.176943 0-5.954123 1.632631-8.000192 2.731111-0.528115 0.283673-2.338796 0.965697-4.02273 1.517954-3.74811 1.22221-23.20086 10.84598-29.302856 14.500538-8.386471 5.015587-19.422572 12.36997-23.218967 15.469252-0.92043 0.751433-2.601345 1.991749-3.736038 2.758271-10.948585 7.387579-40.725235 36.032554-53.457342 51.417307a99.285679 99.285679 0 0 1-2.776377 3.271297 11.144742 11.144742 0 0 0-1.004928 1.297655c-0.401368 0.5764-1.566239 2.049087-2.589274 3.271297-1.82577 2.172817-8.063566 10.800713-11.425398 15.80121-6.596915 9.804838-5.770037 9.632823 4.801323-1.013981 11.386166-11.467647 24.163539-23.665602 28.602725-27.311107 7.354383-6.035604 11.030066-8.851213 19.31695-14.7993 4.179655-2.999695 17.500233-11.950495 17.783906-11.950495 0.117694 0 2.115479-1.246352 4.442204-2.767324s4.402973-2.767324 4.614219-2.767324c0.214264 0 2.024945-0.986821 4.025748-2.19696 2.000803-1.207121 4.994462-2.839751 6.654252-3.630416 1.659791-0.787646 3.82959-1.928375 4.822448-2.534953 0.989839-0.606578 3.820537-1.934411 6.286081-2.954428 2.465544-1.020017 4.710789-2.015892 4.988426-2.215067 0.27462-0.199175 2.085301-0.989839 4.02273-1.753343 1.937429-0.766522 4.765109-1.919322 6.286081-2.562113 6.491292-2.7462 16.109026-6.406793 27.160216-10.335971 3.736039-1.327833 8.036406-2.891054 9.557379-3.476508a49.914442 49.914442 0 0 1 4.526702-1.49683c1.611506-0.395332 5.588969-1.708076 10.058334-3.316564 2.396135-0.863091 6.627093-2.076248 10.562306-3.023837 1.79861-0.434563 6.439989-1.593399 10.311829-2.580221 3.87184-0.983803 8.398542-1.979678 10.058333-2.209031 1.659791-0.229353 4.264154-0.651845 5.785126-0.935518 11.60043-2.172817 10.607573-2.033998 26.656244-3.757164 11.002905-1.179961 36.602918-3.159638 53.055973-4.101192 4.402973-0.253495 8.887426-1.101498 6.545612-1.237299-0.27462-0.018107-3.105318-0.712201-6.286081-1.545115-7.942854-2.079265-18.960849-3.941249-38.72745-6.536558-7.61995-0.998892-53.538822-1.09848-60.606514-0.129766m509.03979 134.271056a150.509847 150.509847 0 0 1-1.306708 6.590879c-0.573382 2.275423 0.030178 2.381046 2.583238 0.449652a204.564713 204.564713 0 0 1 5.76702-4.137406c2.221102-1.539079 3.476508-2.731111 3.331653-3.168692-0.159943-0.476813-0.015089-0.570365 0.458706-0.295744 0.383261 0.2203 0.519062 0.208228 0.304798-0.027161-0.567347-0.621667-3.932196-0.721255-3.551953-0.102605 0.168997 0.27462-0.003018 0.386279-0.389297 0.24746-0.383261-0.138819-0.633738-0.537169-0.552257-0.881198 0.090534-0.389296-0.156926-0.510009-0.654863-0.319887-0.440599 0.168997-0.669952 0.093552-0.510009-0.165979 0.341012-0.546222-1.288601-1.527008-2.537971-1.527008-0.473795 0-1.12564-0.365154-1.451563-0.811789-0.488884-0.666934-0.757468 0.084498-1.490794 4.149478" fill="#FBDA75" p-id="4737"></path><path d="M328.312694 187.981892c5.323402 0.081481 14.038814 0.081481 19.362216 0 5.32642-0.081481 0.968714-0.147872-9.681108-0.147872-10.649823 0-15.007528 0.066392-9.681108 0.147872m-16.09092 0.482848c0.627703 0.120712 1.533043 0.117694 2.012874-0.009053 0.47983-0.126748-0.030178-0.223317-1.137711-0.2203-1.107533 0.006036-1.499847 0.108641-0.875163 0.229353m50.551198 0.006036c0.763504 0.114676 1.89518 0.111659 2.513829-0.006036 0.618649-0.120712-0.006036-0.214264-1.391206-0.211246-1.382153 0.003018-1.889144 0.102605-1.122623 0.217282m-54.573927 0.497937c0.624685 0.120712 1.530026 0.114676 2.012873-0.009053 0.47983-0.126748-0.033196-0.226335-1.137711-0.2203-1.107533 0.006036-1.499847 0.108641-0.875162 0.229353m60.977703 0.172015a28.65101 28.65101 0 0 0 4.526703 0.37119l2.263351-0.036214-2.764307-0.380243c-3.977463-0.54924-7.167279-0.513026-4.025747 0.045267m-66.159269 0.510008c-0.184086 0.295745-0.184086 0.685041-0.003018 0.86611 0.181068 0.181068 0.488884 0.075445 0.682023-0.238407 0.193139-0.313851 1.02907-0.669952 1.858966-0.790664 1.385171-0.205211 1.358011-0.226335-0.350065-0.295744-1.023035-0.042249-2.006838 0.165979-2.187906 0.458705m-4.004623 0.301781c-2.221102 0.482848-16.317254 3.186799-16.600928 3.186798-0.168997 0-0.168997 0.223317 0 0.497938 0.175033 0.283673-0.021125 0.37119-0.461723 0.202192-0.917412-0.353083-17.168274 4.62629-22.168772 6.793072-1.934411 0.838949-3.256208 1.533043-2.933304 1.542097 0.322905 0.009053 1.680916-0.449652 3.017802-1.023035 1.336886-0.5764 3.044962-1.062266 3.796395-1.083391 0.751433-0.021125 1.24937-0.229353 1.107533-0.461723-0.144854-0.229353 0.090534-0.286691 0.519062-0.120712s0.781611 0.105623 0.78161-0.132784c0-0.235389 0.935519-0.482848 2.079266-0.54924 1.143747-0.066392 2.365957-0.359118 2.716022-0.648827 0.455688-0.380243 0.712201-0.347047 0.899304 0.117694 0.153908 0.383261 0.292727 0.235389 0.334976-0.3561l0.075446-1.004928 0.431545 1.004928 0.434564 1.007945 0.051302-1.007945c0.048285-0.992857 0.060356-0.992857 0.787647-0.027161 0.413439 0.543204 0.739361 0.694094 0.739361 0.341012 0-0.380243 0.362136-0.516044 0.908358-0.344029 0.531133 0.168997 1.339904-0.111659 1.9495-0.682024 0.769539-0.718237 1.189014-0.82386 1.605471-0.404385 0.419474 0.416457 0.567347 0.350065 0.567347-0.259531 0-0.455688 0.262549-0.989839 0.588471-1.192032 0.395332-0.244442 0.482848-0.087516 0.265566 0.473795-0.175033 0.461724-0.102605 0.838949 0.16598 0.838949a0.491902 0.491902 0 0 0 0.488883-0.488884c0-0.268584 0.377225-0.341012 0.841967-0.162961 0.636756 0.244442 0.763504 0.117694 0.516044-0.519062-0.205211-0.537169-0.069409-0.841967 0.374208-0.841967 0.383261 0 0.787646 0.271602 0.899305 0.603561 0.12373 0.37119 0.331958 0.262549 0.540186-0.277638 0.226335-0.591489 0.147872-0.763504-0.238406-0.525098-0.377225 0.232371-0.434563 0.129765-0.168997-0.30178 0.319887-0.519062 0.534151-0.482848 1.023035 0.184086 0.564329 0.772557 0.636756 0.757468 0.881198-0.175032 0.144854-0.558293 0.570365-1.013981 0.941554-1.007946 0.473795 0.003018 0.503973 0.117694 0.102605 0.377225-0.407403 0.262549-0.344029 0.582436 0.223318 1.107533 0.706166 0.654863 0.75445 0.633738 0.440599-0.184086-0.27462-0.715219-0.168997-0.848002 0.476812-0.600542 0.679005 0.259531 0.721255 0.184086 0.229353-0.404386-0.651845-0.787646 0.132783-0.890252 1.282566-0.172014 0.75445 0.473795 3.702843-0.573382 3.711896-1.312744 0.006036-0.322905 0.226335-0.244442 0.49492 0.175032 0.404385 0.624685 0.491902 0.582436 0.503973-0.253495 0.012071-0.832913 0.099587-0.875163 0.503973-0.250478 0.268584 0.413439 0.488884 0.510009 0.494919 0.208229 0.003018-0.298762 0.289709-0.555276 0.636756-0.567347 0.344029-0.012071 0.965697-0.126748 1.382153-0.253495s0.585454-0.132783 0.377226-0.018107c-0.543204 0.304798-0.464741 1.134693 0.105623 1.134693 0.265567 0 0.890252-0.431546 1.385171-0.959661a4.617237 4.617237 0 0 1 2.15471-1.189014l1.258424-0.229353-1.258424-0.012071a12.69891 12.69891 0 0 0-2.263351 0.208229m81.734144 0.45267c2.07323 0.362136 4.451258 0.64581 5.281153 0.63072 0.829895-0.015089-0.30178-0.322905-2.516847-0.685041-2.212049-0.362136-4.587059-0.64581-5.281153-0.63072-0.691077 0.012071 0.440599 0.322905 2.516847 0.685041m7.091834 0.941554c0.283673 0.283673 12.342809 2.308618 13.441289 2.257316 1.421385-0.069409 0.075445-0.392314-6.035603-1.454581-5.794179-1.007946-7.831196-1.231263-7.405686-0.802735m16.29613 3.063069c1.104515 0.365154 2.462526 0.666934 3.017802 0.669952 0.552258 0.003018-0.015089-0.316869-1.258424-0.709184-1.246352-0.392314-2.604363-0.694094-3.017801-0.666934-0.416457 0.024142 0.15089 0.341012 1.258423 0.706166m4.273207 0.938536c0 0.108641 1.614524 0.591489 3.585149 1.077355 4.565934 1.116587 3.805448 1.566239-3.340707 1.976661-16.453055 0.941554-42.053068 2.921232-53.055973 4.101192-16.04867 1.723165-15.055813 1.584346-26.656244 3.757164-1.520972 0.283673-4.125335 0.706166-5.785126 0.935518-1.659791 0.229353-6.186494 1.225228-10.058333 2.209031-3.87184 0.986821-8.513219 2.145657-10.311829 2.580221-3.935214 0.94759-8.166172 2.160746-10.562306 3.023837-4.469364 1.608488-8.446827 2.921232-10.058334 3.316564-0.968714 0.241424-3.005731 0.914394-4.526702 1.49683-1.520972 0.585454-5.82134 2.148675-9.557379 3.476508-11.05119 3.929178-20.668925 7.589772-27.160216 10.335971-1.520972 0.642792-4.348652 1.795592-6.286081 2.562113-1.937429 0.763504-3.74811 1.554168-4.02273 1.753343-0.277638 0.199175-2.522882 1.19505-4.988426 2.215067-2.465544 1.020017-5.296242 2.34785-6.286081 2.954428-0.992857 0.606578-3.162656 1.747307-4.822448 2.534953-1.659791 0.790664-4.65345 2.423295-6.654252 3.630416-2.000803 1.210139-3.811484 2.19696-4.025748 2.19696-0.211246 0-2.287494 1.246352-4.614219 2.767324-2.326725 1.520972-4.32451 2.767324-4.442204 2.767324-0.283673 0-13.604251 8.9508-17.783906 11.950495-8.286884 5.948087-11.962566 8.763696-19.31695 14.7993-4.372795 3.588166-17.11999 15.749908-28.626868 27.311107-7.879481 7.915694-9.732411 9.563414-8.67618 7.713501 1.934411-3.382956 1.635649-3.6787-0.416456-0.413439-1.77145 2.818627-2.157728 3.826573-1.258424 3.268279 0.820842-0.503973 0.573382 0.072427-0.347047 0.820843-0.579418 0.467759-0.730308 0.488884-0.473795 0.060356 0.208228-0.347047 0.271602-0.627703 0.141837-0.627703-0.271602 0-4.888839 8.232563-9.032281 16.093937-5.091032 9.666019-10.541182 22.17179-15.010546 34.454243a2826.654236 2826.654236 0 0 1-3.038927 8.298955c-12.415237 33.485529-14.530716 51.64666-8.105815 69.560331 4.32451 12.050083 9.143939 15.291202 22.014864 14.7993 13.85171-0.531133 25.953095-4.161549 51.073278-15.321379 46.353436-20.590462 65.803168-28.29491 71.419297-28.291892 11.262436 0.009053 15.312326 7.469059 16.875548 31.086376 2.356903 35.59799 11.410309 55.841405 27.694367 61.934347 11.250365 4.206816 36.877538 2.894072 72.732041-3.733021 3.796395-0.703148 7.794982-1.27653 8.884409-1.27653 1.092444 0 9.530218-1.596417 18.75262-3.548935 9.222402-1.9495 22.763279-4.786234 30.09352-6.298153 20.843957-4.29735 28.798883-6.132173 37.472045-8.636948 14.207811-4.107228 20.768512-2.658683 25.660368 5.658378 6.989229 11.896175 8.727483 42.318635 2.628506 46.027513-6.741769 4.101193-12.786426-0.165979-13.299453-9.391399-0.24746-4.478418-0.404385-5.091032-1.641684-6.458096a26.330321 26.330321 0 0 1-2.667737-3.772252c-4.789251-8.317062-8.944765-8.579611-39.85309-2.522883-1.382153 0.271602-4.77718 0.857056-7.544505 1.303691-2.764306 0.443617-7.970015 1.339904-11.567234 1.991749-3.59722 0.651845-11.404273 1.997785-17.352361 2.996677-11.226223 1.883108-20.246432 3.479525-24.142414 4.279243-58.367305 11.941442-89.209239 11.416344-101.488675-1.726183-1.982696-2.121515-4.128353-5.398847-6.901712-10.541181-2.212049-4.107228-4.605166-8.175225-5.317367-9.041334-0.712201-0.866109-2.124532-2.963481-3.141532-4.656469-7.149172-11.920317-15.873637-19.114757-25.491372-21.025025-13.076135-2.59531-39.509061-2.166782-57.338234 0.932501-9.789749 1.70204-8.911569 0.866109-7.553558 7.200475 2.806556 13.085189 9.87123 30.570332 18.704336 46.302133 4.42108 7.873445 6.035604 10.580413 9.207313 15.439074 13.709874 21.003901 39.409474 46.474148 57.691317 57.175273 1.569257 0.92043 5.531631 3.283368 8.802928 5.250975a221.6334 221.6334 0 0 0 10.667929 5.987319l4.72286 2.411224 16.151275-0.322905c33.67565-0.669952 60.455623-3.717932 79.600559-9.059441 8.694287-2.426313 17.044545-4.882803 18.53232-5.45015 12.430326-4.747002 30.890219-13.94828 44.313402-22.087292 29.906416-18.133971 54.59807-37.411689 78.876286-61.587299 4.852625-4.831501 11.093439-11.398237 13.670642-14.385861 0.860074-0.992857 1.916304-2.006838 2.350868-2.25128 1.913286-1.077355 17.180346-20.690049 23.89" fill="#FBB997" p-id="4738"></path></svg>