<?xml version="1.0" standalone="no"?><!DOCTYPE svg PUBLIC "-//W3C//DTD SVG 1.1//EN" "http://www.w3.org/Graphics/SVG/1.1/DTD/svg11.dtd"><svg t="1753924852931" class="icon" viewBox="0 0 4352 1024" version="1.1" xmlns="http://www.w3.org/2000/svg" p-id="5875" xmlns:xlink="http://www.w3.org/1999/xlink" width="1088" height="256"><path d="M670.688 153.696h-277.504V1011.2H280.704V153.696H3.2V51.2h664.992v102.496zM1189.472 246.56l-233.056 588.224C913.856 940.224 856.512 992 780.704 992c-20.352 0-38.848-1.856-53.664-5.536v-72.16c16.64 5.568 33.312 9.248 48.096 9.248 40.704 0 72.128-24.032 92.48-73.984l40.704-96.192L710.4 246.56h90.624l136.896 390.304c1.856 5.536 5.536 18.496 11.104 38.848h3.68c1.856-7.424 5.568-20.352 9.248-36.992L1106.24 246.56z m136.896 434.688h-1.856v307.04h-81.408V248.416h81.408v88.8h1.856c40.672-66.592 98.016-101.76 175.712-101.76 64.736 0 116.544 22.208 153.536 68.448 36.992 46.24 55.488 105.44 55.488 183.136 0 85.088-20.352 153.504-61.056 203.456-40.704 49.952-98.016 75.84-170.176 75.84-66.592 0-116.512-27.744-153.504-85.088z m-1.856-205.312v70.272c0 42.56 12.928 77.696 40.672 107.296 27.744 29.6 61.056 44.384 103.584 44.384 49.952 0 86.944-18.496 116.544-57.344 29.6-38.848 42.56-90.624 42.56-157.216 0-57.344-12.96-99.872-38.848-133.184-25.92-31.424-61.056-48.096-105.44-48.096-48.096 0-85.088 16.672-114.688 49.952-29.6 33.28-44.384 73.984-44.384 123.936z m887.84 44.384H1853.536c1.824 57.344 16.64 99.904 46.24 131.328 29.568 31.456 68.416 46.24 120.224 46.24 57.344 0 109.12-18.496 157.216-57.344v75.84c-44.384 33.312-103.584 48.096-177.568 48.096-72.128 0-127.616-22.176-168.32-68.448-40.704-46.24-61.056-110.976-61.056-194.208 0-79.52 22.208-142.432 66.592-192.352 44.416-49.952 99.904-74.016 166.496-74.016 66.592 0 118.368 22.208 153.504 64.768 36.992 42.528 53.664 101.728 53.664 179.392v40.704z m-83.232-68.448c0-46.24-11.104-83.232-33.28-109.12-22.208-25.888-53.632-38.848-92.48-38.848-38.848 0-70.304 12.96-98.048 40.704-25.888 27.744-42.528 62.88-49.952 107.264z m127.648 277.472v-55.488c51.776 33.28 101.728 48.096 155.36 48.096 55.488 0 98.048-11.104 125.792-35.168 29.6-22.176 42.528-55.488 42.528-96.16 0-36.992-9.248-64.736-29.6-86.944-18.496-22.208-61.024-51.808-125.76-88.8-72.16-42.528-118.4-77.664-136.896-105.408a175.36 175.36 0 0 1-29.568-98.048c0-49.952 20.32-92.48 59.168-127.616C2356.64 48.64 2408.448 32 2473.184 32c42.528 0 85.088 7.392 127.616 22.208v51.776a330.56 330.56 0 0 0-133.184-27.744c-48.096 0-86.912 12.96-114.688 36.992-27.744 24.064-42.528 55.488-42.528 92.48 0 36.992 9.248 64.736 29.6 86.944 18.496 22.208 61.024 49.952 125.76 86.944 66.592 36.992 111.008 70.272 133.184 99.872 22.208 29.6 33.312 62.912 33.312 101.728 0 53.664-18.496 98.048-57.344 133.184-36.992 35.168-90.624 51.808-160.928 51.808-24.032 0-51.776-3.712-85.088-11.104-29.6-9.248-53.632-18.496-72.128-27.744z m804.608 1.856c-36.992 22.176-83.232 35.136-135.008 35.136-68.448 0-123.936-24.032-166.496-70.304-42.528-48.064-62.88-109.12-62.88-186.816 0-81.376 24.032-146.112 72.128-197.92 48.096-51.776 109.152-77.664 183.136-77.664 38.848 0 75.84 7.392 112.832 24.032v51.808a226.304 226.304 0 0 0-120.224-33.312c-59.2 0-107.296 22.208-144.288 64.736-36.992 42.56-55.488 98.048-55.488 166.464 0 66.592 16.64 118.4 49.952 159.104 33.28 40.672 77.664 59.168 133.152 59.168 49.952 0 94.336-12.928 133.184-40.672z m307.072-436.544c-14.816-11.104-33.312-16.64-53.664-16.64-40.672 0-73.984 20.352-99.872 61.024-27.744 40.704-40.704 99.904-40.704 175.744v238.592h-44.384V246.56h44.384v112.832h1.856c11.104-38.848 29.6-68.448 55.488-90.624 25.888-22.208 53.632-31.456 86.944-31.456 18.496 0 35.136 3.712 49.952 9.248z m77.664-175.712c-9.248 0-18.496-3.712-25.888-11.104a37.664 37.664 0 0 1-11.104-27.744c0-11.104 3.712-20.352 11.104-25.888 7.392-7.424 16.64-9.248 25.888-9.248 11.104 0 18.496 3.68 27.744 9.248 7.424 7.392 11.104 14.784 11.104 25.888 0 11.104-3.68 20.352-11.104 27.744-9.248 7.392-16.64 11.104-27.744 11.104z m-22.176 636.288V248.416h46.24v506.816z m205.312-90.624h-1.856v323.68h-46.24V248.416h46.24v105.44h1.856c18.496-36.992 44.384-66.592 77.696-86.944 33.28-20.352 70.272-29.6 110.976-29.6 64.736 0 114.688 22.208 151.68 66.592 36.992 44.384 53.632 105.44 53.632 181.28 0 85.088-20.352 153.536-62.88 205.312-40.704 51.808-96.192 77.696-164.64 77.696-73.984-1.856-129.472-35.136-166.464-103.584z m-1.856-188.672v64.736c0 51.776 16.64 94.336 48.096 131.328 31.456 36.992 73.984 55.488 125.792 55.488 51.776 0 94.336-22.208 125.76-66.592 31.456-44.384 48.096-103.584 48.096-175.712 0-62.88-14.784-114.688-44.384-151.68-29.6-36.992-70.304-55.488-118.4-55.488-59.168 0-105.408 20.352-136.864 59.2-31.456 38.816-48.096 85.088-48.096 138.72z m678.848 271.904c-24.032 11.104-46.24 16.64-66.592 16.64-75.84 0-112.832-44.384-112.832-135.008V289.12h-90.624v-42.56h90.624V115.232c7.392-1.856 14.784-5.536 22.208-7.392 7.392-1.856 14.784-5.536 22.176-7.392v147.968h133.184v42.528h-133.184v334.816c0 35.136 5.568 61.024 16.672 75.84 11.072 14.784 29.568 24.032 55.488 24.032 18.496 0 38.848-5.536 61.024-18.496v40.704z" fill="#F3AC34" p-id="5876"></path></svg>