<?xml version="1.0" standalone="no"?><!DOCTYPE svg PUBLIC "-//W3C//DTD SVG 1.1//EN" "http://www.w3.org/Graphics/SVG/1.1/DTD/svg11.dtd"><svg t="1755062629369" class="icon" viewBox="0 0 1024 1024" version="1.1" xmlns="http://www.w3.org/2000/svg" p-id="15251" xmlns:xlink="http://www.w3.org/1999/xlink" width="256" height="256"><path d="M512 67.795862L137.710345 185.026207l1.977379 443.497931v8.474483a310.731034 310.731034 0 0 0 88.134621 148.585931c53.671724 52.25931 175.704276 115.535448 234.460689 146.043586l6.497104 3.389793 39.547586 21.186207 29.943173-15.254069c31.638069-15.254069 192.935724-94.631724 255.646896-155.365517a297.454345 297.454345 0 0 0 88.699586-154.800552l2.259862-445.47531-372.877241-117.512828z" fill="#726CF0" p-id="15252"></path><path d="M512 41.807448l395.475862 124.009931-2.542345 472.593655A315.815724 315.815724 0 0 1 812.279172 801.121103c-66.383448 64.406069-238.980414 149.433379-273.160827 165.81738l-28.248276 14.971586-40.96-21.46869-7.062069-3.672276c-62.42869-32.485517-192.935724-100.281379-250.279724-156.212965a324.007724 324.007724 0 0 1-92.654345-155.083035v-8.756965L116.806621 165.817379l395.475862-124.009931m0-7.627034L109.744552 160.450207l1.977379 476.830896v9.321931a333.894621 333.894621 0 0 0 96.044138 159.320276c56.496552 56.496552 188.698483 124.574897 251.974621 157.342897l7.062069 3.672276 42.654896 22.881103 31.920552-16.384c34.180414-16.666483 207.624828-101.976276 274.855724-167.229793a322.312828 322.312828 0 0 0 95.761655-166.664827l2.259862-480.22069-402.255448-125.139862z" fill="#726CF0" p-id="15253"></path><path d="M322.736552 346.888828H188.274759v-56.496552h329.939862v56.496552h-134.461793v325.985103H322.736552zM554.937379 642.365793V579.089655a214.969379 214.969379 0 0 0 128.247173 44.632276c58.756414 0 80.790069-21.46869 80.790069-52.541793s-28.248276-43.502345-79.660138-64.971035c-75.705379-31.638069-112.993103-58.191448-112.993104-125.422344 0-60.45131 56.496552-102.823724 138.416552-102.823725a164.687448 164.687448 0 0 1 95.479172 28.248276v66.100966a152.54069 152.54069 0 0 0-101.128827-36.722759c-41.807448 0-69.490759 15.819034-69.490759 44.067311 0 33.897931 25.423448 44.632276 77.400276 66.100965 76.83531 31.638069 115.252966 56.496552 115.252966 124.857379s-56.496552 110.168276-144.066207 110.168276a196.043034 196.043034 0 0 1-128.247173-38.417655z" fill="#FFFFFF" p-id="15254"></path></svg>