<?xml version="1.0" standalone="no"?><!DOCTYPE svg PUBLIC "-//W3C//DTD SVG 1.1//EN" "http://www.w3.org/Graphics/SVG/1.1/DTD/svg11.dtd"><svg t="1760152204518" class="icon" viewBox="0 0 1024 1024" version="1.1" xmlns="http://www.w3.org/2000/svg" p-id="9850" xmlns:xlink="http://www.w3.org/1999/xlink" width="256" height="256"><path d="M749.878303 355.321794l-224.274618 324.272873a19.307055 19.307055 0 0 1-31.793649-0.049649 19.108461 19.108461 0 0 1-3.30783-11.73566l8.973964-179.032437-144.905309-30.732412A19.257406 19.257406 0 0 1 340.712727 446.401939a19.083636 19.083636 0 0 1 2.048-17.966545l224.268412-324.266667a19.344291 19.344291 0 0 1 22.043928-7.316945c3.971879 1.334303 7.391418 3.916024 9.749721 7.366594 2.358303 3.444364 3.518836 7.571394 3.30783 11.729454l-8.973963 179.038643 144.905309 30.726206c3.096824 0.657842 5.982642 2.066618 8.403006 4.096a19.089842 19.089842 0 0 1 3.413333 25.519321z" fill="#FFCA28" p-id="9851"></path><path d="M515.022352 951.637333a45.279418 45.279418 0 0 1-32.110158-13.299588l-211.912146-211.899733a45.397333 45.397333 0 0 1 32.128776-77.433018 45.428364 45.428364 0 0 1 32.085334 13.212703l179.808194 179.789576 391.714133-391.695515a45.403539 45.403539 0 0 1 64.214109 64.214109l-423.824291 423.811878a45.22977 45.22977 0 0 1-32.103951 13.299588z" fill="#689F38" p-id="9852"></path><path d="M514.83617 951.637333a45.279418 45.279418 0 0 0 32.110157-13.299588l211.912146-211.899733a45.384921 45.384921 0 0 0-0.086885-64.127224 45.428364 45.428364 0 0 0-64.13343-0.093091l-179.808194 179.789576L123.11583 450.311758A45.409745 45.409745 0 0 0 58.901721 514.525867l423.830497 423.811878a45.242182 45.242182 0 0 0 32.103952 13.299588z" fill="#689F38" fill-opacity=".502" p-id="9853"></path></svg>