<svg class="icon" viewBox="0 0 1024 1024" xmlns="http://www.w3.org/2000/svg">
  <path
    d="M489.813 60.613 C 440.992 72.585,395.915 123.526,366.047 200.479 C 362.028 210.834,357.371 223.723,355.698 229.120 C 354.025 234.517,351.837 238.909,350.835 238.880 C 349.833 238.850,340.565 237.271,330.240 235.370 C 302.543 230.270,247.003 228.959,223.704 232.855 C 188.469 238.747,164.877 249.774,144.859 269.708 C 92.831 321.519,107.766 404.356,186.219 499.113 L 199.210 514.805 185.753 530.896 C 108.127 623.713,93.302 708.923,145.642 761.442 C 183.869 799.798,250.786 809.555,350.415 791.297 C 351.186 791.156,354.731 799.104,358.292 808.960 C 391.628 901.209,435.259 954.754,488.610 968.889 C 502.981 972.697,526.905 972.548,541.013 968.563 C 594.191 953.542,639.443 897.819,669.929 809.813 C 673.506 799.488,676.491 790.937,676.563 790.812 C 676.635 790.686,684.373 791.962,693.760 793.646 C 777.225 808.623,843.381 797.954,880.574 763.521 C 919.880 727.130,924.775 672.947,894.566 608.629 C 883.140 584.301,859.837 549.825,838.060 525.029 C 829.456 515.232,829.333 514.941,832.293 511.376 C 833.956 509.372,824.587 518.565,811.472 531.804 C 798.357 545.043,782.439 560.573,776.098 566.314 C 769.757 572.056,765.533 576.426,766.711 576.026 C 767.889 575.626,773.905 581.601,780.079 589.303 C 811.047 627.932,827.733 661.321,827.733 684.656 C 827.733 693.069,827.027 695.337,823.040 699.728 C 809.480 714.660,764.378 718.836,712.477 709.964 C 671.452 702.952,614.636 686.427,617.213 682.258 C 617.876 681.185,617.536 680.930,616.388 681.640 C 614.061 683.078,516.993 641.586,518.183 639.661 C 518.634 638.930,517.830 638.783,516.394 639.334 C 511.758 641.113,454.558 609.659,417.942 585.195 C 403.384 575.468,403.233 575.294,402.123 566.932 C 400.685 556.087,400.661 473.214,402.093 462.416 C 403.144 454.496,403.618 453.912,415.351 446.107 C 435.211 432.895,465.200 415.115,490.266 401.690 L 513.759 389.108 527.813 396.170 C 549.906 407.270,570.428 419.059,599.213 437.185 L 625.839 453.951 626.936 468.042 C 628.378 486.573,628.173 548.813,626.618 564.303 L 625.394 576.499 633.124 571.242 C 644.435 563.549,664.985 547.970,691.805 526.754 L 715.449 508.050 714.331 483.998 C 711.549 424.205,708.427 392.523,700.859 347.307 C 698.034 330.425,697.407 323.045,698.724 322.159 C 700.059 321.260,700.049 320.898,698.687 320.879 C 697.642 320.865,695.458 314.133,693.834 305.920 C 685.544 264.002,671.707 219.760,655.036 181.877 C 625.943 115.766,584.011 71.940,539.198 60.809 C 525.835 57.490,502.920 57.399,489.813 60.613 M527.453 148.204 C 553.296 164.701,579.952 213.128,598.324 276.956 C 604.661 298.974,613.205 338.659,612.352 342.118 C 612.033 343.409,605.065 340.358,593.920 334.049 C 554.210 311.568,475.362 275.652,441.460 264.601 C 433.638 262.052,433.565 262.711,444.872 233.854 C 458.177 199.901,473.820 173.303,489.502 157.968 C 505.364 142.457,514.691 140.057,527.453 148.204 M764.191 229.930 C 767.258 230.310,771.866 230.302,774.431 229.913 C 776.995 229.523,774.485 229.213,768.853 229.222 C 763.221 229.232,761.123 229.550,764.191 229.930 M730.027 231.530 C 731.200 232.004,733.120 232.004,734.293 231.530 C 735.467 231.057,734.507 230.669,732.160 230.669 C 729.813 230.669,728.853 231.057,730.027 231.530 M794.987 231.566 C 796.219 232.059,797.691 231.998,798.258 231.431 C 798.825 230.864,797.817 230.461,796.018 230.535 C 794.030 230.617,793.625 231.021,794.987 231.566 M882.275 268.373 C 886.460 272.832,890.108 276.480,890.382 276.480 C 891.664 276.480,890.309 274.948,882.773 267.875 L 874.667 260.267 882.275 268.373 M747.979 315.209 C 749.640 315.642,751.944 315.614,753.099 315.146 C 754.255 314.679,752.896 314.325,750.080 314.359 C 747.264 314.394,746.319 314.777,747.979 315.209 M771.840 315.203 C 773.483 315.632,776.171 315.632,777.813 315.203 C 779.456 314.774,778.112 314.423,774.827 314.423 C 771.541 314.423,770.197 314.774,771.840 315.203 M306.865 318.295 C 332.592 321.953,361.052 328.678,389.002 337.706 L 413.648 345.667 387.304 362.127 C 354.778 382.449,316.256 409.774,289.467 431.524 C 278.305 440.586,267.243 449.495,264.883 451.321 L 260.592 454.643 255.536 448.761 C 233.569 423.212,212.096 388.991,204.894 368.060 C 194.695 338.415,200.610 326.180,228.693 318.832 C 242.954 315.101,282.484 314.830,306.865 318.295 M716.480 318.606 C 717.712 319.099,719.184 319.038,719.751 318.471 C 720.318 317.904,719.310 317.501,717.511 317.575 C 715.523 317.657,715.119 318.061,716.480 318.606 M913.578 344.747 C 913.578 349.909,913.898 352.021,914.289 349.440 C 914.680 346.859,914.680 342.635,914.289 340.053 C 913.898 337.472,913.578 339.584,913.578 344.747 M827.868 350.862 C 827.950 352.850,828.354 353.255,828.899 351.893 C 829.392 350.661,829.332 349.189,828.764 348.622 C 828.197 348.055,827.794 349.063,827.868 350.862 M783.142 436.480 C 781.019 439.187,781.080 439.247,783.787 437.124 C 785.429 435.836,786.773 434.492,786.773 434.138 C 786.773 432.733,785.372 433.637,783.142 436.480 M775.518 445.867 L 772.267 449.707 776.107 446.455 C 779.715 443.400,780.724 442.027,779.358 442.027 C 779.034 442.027,777.306 443.755,775.518 445.867 M761.946 461.227 L 755.200 468.480 762.453 461.734 C 769.199 455.460,770.491 453.973,769.200 453.973 C 768.921 453.973,765.657 457.237,761.946 461.227 M727.040 495.787 C 722.894 500.011,719.887 503.467,720.356 503.467 C 720.825 503.467,724.601 500.011,728.747 495.787 C 732.892 491.563,735.900 488.107,735.431 488.107 C 734.961 488.107,731.186 491.563,727.040 495.787 M847.996 491.093 C 845.873 493.800,845.933 493.861,848.640 491.738 C 850.283 490.449,851.627 489.105,851.627 488.751 C 851.627 487.346,850.225 488.250,847.996 491.093 M839.551 501.333 L 835.413 506.027 840.107 501.889 C 842.688 499.614,844.800 497.502,844.800 497.196 C 844.800 495.857,843.418 496.947,839.551 501.333 M314.059 533.760 C 314.185 571.519,319.691 632.785,326.897 676.622 C 329.205 690.663,331.093 703.431,331.093 704.995 C 331.093 707.295,327.586 708.385,312.747 710.697 C 262.704 718.494,222.084 714.626,206.790 700.609 C 200.809 695.127,200.539 694.400,200.666 684.077 C 201.072 651.020,232.507 601.682,288.277 546.568 C 300.867 534.126,311.811 523.947,312.597 523.947 C 313.383 523.947,314.041 528.363,314.059 533.760 M436.181 696.496 C 477.326 719.480,526.823 742.546,568.164 758.000 C 580.922 762.769,591.905 766.996,592.571 767.394 C 593.238 767.791,591.466 774.681,588.634 782.704 C 567.493 842.602,538.671 883.206,515.807 885.300 C 508.873 885.936,506.572 885.264,499.505 880.539 C 479.638 867.255,456.031 828.352,439.679 781.947 C 428.064 748.984,413.170 686.080,416.981 686.080 C 417.286 686.080,425.926 690.767,436.181 696.496"
    fill="#505766"
    fill-rule="evenodd"
  />
</svg>
