<svg class="icon" viewBox="0 0 1024 1024" xmlns="http://www.w3.org/2000/svg">
  <path
    d="M80.594 160.590 C 75.654 163.062,71.793 166.797,68.647 172.148 L 64.000 180.053 64.000 503.467 L 64.000 826.880 67.565 833.707 C 69.526 837.461,74.392 842.837,78.377 845.653 L 85.624 850.773 239.505 851.736 C 375.628 852.588,394.761 853.031,405.297 855.569 C 437.709 863.377,456.832 873.118,474.495 890.814 C 481.558 897.890,489.810 907.346,492.834 911.826 C 498.782 920.639,503.570 923.307,513.438 923.307 C 521.628 923.307,525.869 920.195,534.001 908.220 C 548.430 886.973,572.846 869.475,600.747 860.386 C 626.166 852.106,636.011 851.647,788.603 851.637 C 914.711 851.628,932.158 851.311,939.227 848.902 C 949.452 845.419,956.743 836.759,959.120 825.276 C 960.338 819.391,960.763 715.241,960.454 498.347 L 960.000 180.053 955.331 172.111 C 952.057 166.541,948.409 163.077,943.124 160.519 L 935.586 156.870 789.073 157.410 L 642.560 157.950 624.716 162.791 C 586.645 173.119,553.373 192.173,526.888 218.814 L 511.909 233.882 498.728 220.435 C 470.594 191.734,439.505 173.866,397.799 162.427 L 381.440 157.941 234.667 157.439 L 87.893 156.938 80.594 160.590 M375.467 201.478 C 392.564 204.208,418.422 213.721,433.766 222.925 C 449.745 232.511,471.714 252.342,482.429 266.854 L 489.813 276.855 489.813 561.763 L 489.813 846.671 482.149 841.398 C 470.510 833.390,448.006 823.219,431.464 818.490 C 399.375 809.317,392.365 808.960,244.261 808.960 L 107.520 808.960 107.520 504.320 L 107.520 199.680 235.947 199.693 C 316.382 199.701,368.519 200.368,375.467 201.478 M916.480 504.320 L 916.480 808.960 779.739 808.960 C 631.635 808.960,624.625 809.317,592.536 818.490 C 575.994 823.219,553.490 833.390,541.851 841.398 L 534.187 846.671 534.187 561.876 L 534.187 277.081 540.142 268.704 C 554.924 247.914,583.554 224.359,606.236 214.328 C 617.848 209.193,636.876 203.327,647.953 201.468 C 652.496 200.705,714.773 199.991,786.347 199.881 L 916.480 199.680 916.480 504.320 M165.547 256.322 C 160.102 259.224,156.749 262.611,154.027 267.956 L 150.187 275.497 150.187 507.733 L 150.187 739.970 154.027 747.510 C 156.755 752.868,160.044 756.184,165.388 758.965 L 172.910 762.880 298.667 762.880 L 424.423 762.880 431.855 758.950 C 436.934 756.264,440.531 752.668,443.217 747.588 L 447.147 740.156 447.147 547.795 C 447.147 334.182,447.285 337.131,436.119 312.963 C 420.258 278.634,386.698 262.754,315.733 255.999 C 304.939 254.971,268.459 253.703,234.667 253.180 L 173.227 252.229 165.547 256.322 M620.961 428.808 C 612.428 436.022,610.302 446.104,615.282 455.736 C 620.642 466.100,618.758 465.920,721.920 465.920 C 802.636 465.920,816.665 465.553,820.963 463.331 C 832.632 457.297,834.563 438.735,824.461 429.709 L 819.146 424.960 722.320 424.968 L 625.493 424.977 620.961 428.808 M370.970 438.737 L 375.467 442.274 375.467 513.831 C 375.467 583.111,375.358 585.495,372.053 588.800 C 369.940 590.913,366.364 592.213,362.667 592.213 C 358.969 592.213,355.393 590.913,353.280 588.800 C 349.975 585.495,349.867 583.111,349.867 513.831 L 349.867 442.274 354.363 438.737 C 356.837 436.792,360.573 435.200,362.667 435.200 C 364.760 435.200,368.497 436.792,370.970 438.737 M271.708 443.348 C 274.659 446.323,322.560 575.793,322.560 580.791 C 322.560 586.074,314.922 592.782,308.907 592.782 C 301.646 592.782,296.455 586.937,292.459 574.263 L 289.485 564.827 261.228 565.294 L 232.971 565.760 229.394 575.852 C 227.426 581.402,224.218 587.738,222.264 589.932 C 215.670 597.335,202.747 593.760,200.590 583.937 C 199.776 580.232,205.245 563.322,223.630 512.698 C 236.888 476.189,248.609 445.267,249.676 443.981 C 254.571 438.082,266.157 437.749,271.708 443.348 M260.594 490.990 C 259.326 493.042,244.053 535.095,244.053 536.535 C 244.053 537.121,251.733 537.600,261.120 537.600 C 270.507 537.600,278.187 536.998,278.187 536.262 C 278.187 532.620,261.464 489.583,260.594 490.990 M629.355 579.525 C 620.303 584.436,616.914 597.583,622.109 607.629 C 627.334 617.734,627.976 617.813,704.000 617.813 C 780.024 617.813,780.666 617.734,785.891 607.629 C 791.180 597.402,787.643 584.276,778.296 579.442 C 770.917 575.626,636.402 575.701,629.355 579.525"
    fill="#252525"
    fill-rule="evenodd"
  />
</svg>
