<svg class="icon" viewBox="0 0 2304 1024" xmlns="http://www.w3.org/2000/svg">
  <path
    d="M340.330 205.318 C 317.014 213.629,298.597 230.674,286.080 255.527 L 274.560 278.400 274.560 504.960 L 274.560 731.520 283.522 749.717 C 294.484 771.977,320.756 795.813,341.018 801.884 C 351.837 805.125,419.907 806.389,582.206 806.362 L 808.320 806.325 827.548 797.371 C 859.470 782.506,885.794 743.620,882.549 716.125 C 881.365 706.093,876.535 703.352,810.240 675.082 C 771.168 658.420,718.464 635.358,693.120 623.831 L 647.040 602.874 617.838 631.060 C 565.708 681.376,511.058 706.600,454.363 706.514 C 390.708 706.418,346.968 682.793,327.987 638.257 C 319.528 618.407,320.208 580.504,329.397 559.731 C 360.903 488.508,439.937 473.620,577.267 513.040 C 602.252 520.212,623.180 526.080,623.773 526.080 C 625.838 526.080,651.771 466.487,654.270 456.000 L 656.786 445.440 539.593 445.440 L 422.400 445.440 422.400 432.000 L 422.400 418.560 483.840 418.560 L 545.280 418.560 545.280 397.440 L 545.280 376.320 470.400 376.320 L 395.520 376.320 395.520 364.883 L 395.520 353.446 469.440 352.403 L 543.360 351.360 545.280 316.800 L 547.200 282.240 580.800 281.130 L 614.400 280.021 614.400 316.650 L 614.400 353.280 687.360 353.280 L 760.320 353.280 760.320 364.800 L 760.320 376.320 687.360 376.320 L 614.400 376.320 614.400 397.440 L 614.400 418.560 673.920 418.560 C 706.656 418.560,733.440 419.335,733.440 420.282 C 733.440 428.959,710.163 492.061,698.110 516.059 C 686.693 538.790,684.098 547.104,687.721 549.343 C 695.833 554.357,853.422 606.137,868.951 608.891 L 883.501 611.471 882.391 439.176 L 881.280 266.880 870.910 249.241 C 858.286 227.766,838.353 211.975,814.999 204.947 C 789.298 197.212,362.133 197.546,340.330 205.318 M1804.800 255.360 L 1804.800 272.640 1745.112 272.640 L 1685.424 272.640 1686.552 300.480 L 1687.680 328.320 1719.360 329.435 L 1751.040 330.551 1751.040 313.115 L 1751.040 295.680 1837.440 295.680 L 1923.840 295.680 1923.840 312.960 L 1923.840 330.240 1954.560 330.240 L 1985.280 330.240 1985.280 306.048 C 1985.280 292.352,1983.281 279.857,1980.672 277.248 C 1977.533 274.109,1959.168 272.640,1923.072 272.640 L 1870.080 272.640 1870.080 255.360 L 1870.080 238.080 1837.440 238.080 L 1804.800 238.080 1804.800 255.360 M1108.251 247.994 C 1106.969 251.335,1105.920 261.703,1105.920 271.034 L 1105.920 288.000 1044.237 288.000 L 982.553 288.000 983.757 300.480 L 984.960 312.960 1045.440 314.018 L 1105.920 315.075 1105.920 334.178 L 1105.920 353.280 1054.080 353.280 L 1002.240 353.280 1002.240 364.800 L 1002.240 376.320 1105.920 376.320 C 1162.944 376.320,1209.600 377.406,1209.600 378.733 C 1209.600 386.485,1182.207 426.823,1163.304 446.905 L 1141.190 470.400 1106.075 434.880 L 1070.960 399.360 1046.200 399.360 C 1032.582 399.360,1021.440 400.345,1021.440 401.548 C 1021.440 408.443,1048.089 440.358,1074.936 465.613 L 1105.903 494.744 1093.055 502.685 C 1075.580 513.485,1027.788 534.973,1003.200 543.086 C 984.107 549.385,983.040 550.432,983.040 562.869 C 983.040 573.233,984.585 576.000,990.374 576.000 C 1003.221 576.000,1067.490 553.380,1105.674 535.419 L 1142.577 518.061 1179.036 535.332 C 1216.633 553.142,1281.490 576.000,1294.426 576.000 C 1300.057 576.000,1301.760 573.254,1301.760 564.171 C 1301.760 553.795,1299.756 551.575,1285.440 546.093 C 1276.464 542.656,1248.547 529.624,1223.402 517.134 L 1177.684 494.424 1199.465 475.319 C 1235.633 443.593,1265.556 399.653,1276.688 361.920 L 1279.238 353.280 1227.139 353.280 L 1175.040 353.280 1175.040 334.178 L 1175.040 315.075 1235.520 314.018 L 1296.000 312.960 1297.203 300.480 L 1298.407 288.000 1236.723 288.000 L 1175.040 288.000 1175.040 264.960 L 1175.040 241.920 1142.811 241.920 C 1116.964 241.920,1110.120 243.123,1108.251 247.994 M1342.080 315.192 C 1325.184 355.455,1310.784 390.000,1310.080 391.959 C 1309.376 393.918,1320.176 395.520,1334.080 395.520 L 1359.360 395.520 1359.360 483.840 L 1359.360 572.160 1386.240 572.160 L 1413.120 572.160 1413.120 453.120 L 1413.120 334.080 1403.520 334.080 C 1398.240 334.080,1393.920 333.399,1393.920 332.567 C 1393.920 331.735,1402.560 311.509,1413.120 287.620 C 1423.680 263.732,1432.320 243.677,1432.320 243.053 C 1432.320 242.430,1418.928 241.935,1402.560 241.953 L 1372.800 241.987 1342.080 315.192 M1570.560 274.560 L 1570.560 303.360 1501.440 303.360 L 1432.320 303.360 1432.320 314.880 L 1432.320 326.400 1501.500 326.400 L 1570.680 326.400 1569.660 434.880 L 1568.640 543.360 1550.400 544.530 C 1533.034 545.645,1532.160 546.243,1532.160 557.010 L 1532.160 568.320 1574.182 568.320 C 1613.254 568.320,1616.624 567.721,1622.182 559.786 C 1627.262 552.533,1628.160 534.365,1628.160 438.826 L 1628.160 326.400 1639.680 326.400 C 1649.920 326.400,1651.200 325.120,1651.200 314.880 C 1651.200 304.640,1649.920 303.360,1639.680 303.360 L 1628.160 303.360 1628.160 274.560 L 1628.160 245.760 1599.360 245.760 L 1570.560 245.760 1570.560 274.560 M1687.235 354.976 C 1686.066 358.020,1685.711 363.636,1686.444 367.456 C 1687.653 373.751,1693.447 374.499,1748.397 375.458 L 1809.017 376.517 1807.869 398.498 L 1806.720 420.480 1745.994 421.539 L 1685.269 422.598 1686.474 433.059 L 1687.680 443.520 1748.160 444.578 L 1808.640 445.635 1808.640 493.440 L 1808.640 541.245 1748.160 542.302 L 1687.680 543.360 1686.465 553.920 L 1685.250 564.480 1839.178 564.480 L 1993.106 564.480 1990.515 553.920 C 1989.090 548.112,1984.305 532.128,1979.882 518.400 L 1971.840 493.440 1942.216 492.321 L 1912.592 491.202 1917.601 507.681 C 1920.357 516.744,1923.868 528.048,1925.404 532.800 C 1928.145 541.277,1927.612 541.440,1897.219 541.440 L 1866.240 541.440 1866.240 493.440 L 1866.240 445.440 1925.760 445.440 L 1985.280 445.440 1985.280 434.020 L 1985.280 422.600 1926.720 421.540 L 1868.160 420.480 1867.008 398.400 L 1865.857 376.320 1925.568 376.320 L 1985.280 376.320 1985.280 362.880 L 1985.280 349.440 1837.319 349.440 C 1712.006 349.440,1689.034 350.287,1687.235 354.976 M1455.359 363.840 C 1455.358 365.424,1462.702 390.461,1471.679 419.478 L 1488.000 472.237 1515.572 472.278 L 1543.144 472.320 1540.060 461.760 C 1538.364 455.952,1530.612 430.896,1522.835 406.080 L 1508.693 360.960 1482.027 360.960 C 1467.360 360.960,1455.359 362.256,1455.359 363.840 M392.508 537.180 C 338.935 555.685,325.155 605.609,363.552 642.091 C 394.137 671.151,455.118 674.550,505.580 650.007 C 529.760 638.246,566.684 608.864,581.201 589.832 L 591.928 575.768 559.134 560.400 C 496.327 530.968,435.167 522.445,392.508 537.180 M1043.742 691.409 L 1018.363 760.738 1032.259 759.569 C 1044.252 758.560,1046.644 756.690,1049.714 745.920 L 1053.271 733.440 1079.298 733.440 L 1105.324 733.440 1109.760 746.880 C 1113.675 758.743,1115.731 760.320,1127.282 760.320 L 1140.368 760.320 1133.312 742.080 C 1129.431 732.048,1117.937 700.944,1107.769 672.960 C 1090.450 625.298,1088.643 622.080,1079.202 622.080 C 1069.632 622.080,1067.839 625.585,1043.742 691.409 M1221.120 691.200 L 1221.120 760.320 1263.360 760.320 L 1305.600 760.320 1305.600 750.720 C 1305.600 741.333,1304.960 741.120,1276.800 741.120 L 1248.000 741.120 1248.000 681.600 L 1248.000 622.080 1234.560 622.080 L 1221.120 622.080 1221.120 691.200 M1397.760 691.200 L 1397.760 760.320 1409.280 760.320 L 1420.800 760.320 1420.800 691.200 L 1420.800 622.080 1409.280 622.080 L 1397.760 622.080 1397.760 691.200 M1520.640 691.200 L 1520.640 760.320 1534.080 760.320 L 1547.520 760.320 1547.520 733.440 L 1547.520 706.560 1569.600 706.546 C 1598.036 706.527,1614.679 696.996,1620.014 677.673 C 1622.129 670.014,1622.942 660.852,1621.821 657.314 C 1612.913 629.190,1599.159 622.080,1553.660 622.080 L 1520.640 622.080 1520.640 691.200 M1719.209 659.520 C 1711.760 680.112,1700.367 711.216,1693.890 728.640 L 1682.113 760.320 1695.159 760.320 C 1706.663 760.320,1708.728 758.732,1712.640 746.880 L 1717.076 733.440 1743.102 733.440 L 1769.129 733.440 1772.686 745.920 C 1775.752 756.675,1778.156 758.561,1790.077 759.565 L 1803.910 760.731 1778.435 691.433 C 1754.249 625.642,1752.449 622.134,1742.856 622.108 C 1733.554 622.082,1731.676 625.055,1719.209 659.520 M1862.474 624.960 C 1862.514 626.544,1871.154 644.054,1881.674 663.872 C 1899.941 698.285,1900.800 701.260,1900.800 730.112 L 1900.800 760.320 1914.240 760.320 L 1927.680 760.320 1927.680 731.732 C 1927.680 704.424,1928.640 701.331,1949.133 662.612 L 1970.585 622.080 1956.563 622.080 C 1942.824 622.080,1942.264 622.678,1928.891 651.621 L 1915.243 681.162 1901.721 651.621 C 1888.775 623.339,1887.649 622.080,1875.299 622.080 C 1868.205 622.080,1862.433 623.376,1862.474 624.960 M1591.462 649.814 C 1605.738 670.195,1594.154 687.360,1566.125 687.360 L 1547.520 687.360 1547.520 664.320 L 1547.520 641.280 1566.502 641.280 C 1581.765 641.280,1586.656 642.952,1591.462 649.814 M1096.017 705.600 C 1098.610 713.776,1097.723 714.240,1079.506 714.240 L 1060.254 714.240 1067.768 692.160 C 1071.901 680.016,1076.319 667.488,1077.585 664.320 C 1079.663 659.118,1085.221 671.564,1096.017 705.600 M1753.749 689.280 L 1761.864 714.240 1743.360 714.240 L 1724.856 714.240 1732.971 689.280 C 1737.434 675.552,1742.109 664.320,1743.360 664.320 C 1744.611 664.320,1749.286 675.552,1753.749 689.280"
    fill-rule="evenodd"
  />
</svg>
