<svg class="icon" viewBox="0 0 1024 1024" xmlns="http://www.w3.org/2000/svg">
  <path
    d="M503.008 58.138 C 484.172 61.197,490.267 55.523,275.065 270.324 C 163.055 382.126,69.247 476.694,66.604 480.475 C 61.079 488.377,56.320 502.965,56.320 512.000 C 56.320 521.060,60.617 534.065,66.589 543.082 C 69.462 547.420,164.566 643.127,277.931 755.764 L 484.049 960.559 496.593 964.370 C 507.676 967.736,510.318 967.960,519.266 966.297 C 524.836 965.261,532.591 962.865,536.498 960.973 C 544.153 957.268,718.996 784.292,726.407 773.093 C 732.326 764.148,734.678 750.261,732.251 738.574 C 725.737 707.196,691.307 690.239,662.395 704.170 C 654.488 707.980,640.736 720.792,584.214 777.008 C 519.722 841.151,515.340 845.155,510.827 844.070 C 507.478 843.265,456.627 793.538,342.613 679.573 C 198.774 535.795,179.200 515.618,179.198 511.128 C 179.196 506.636,198.806 486.427,343.465 341.839 L 507.733 177.651 514.416 179.163 C 520.202 180.472,530.155 189.717,588.656 248.127 C 663.610 322.966,663.903 323.195,684.373 323.178 C 720.037 323.148,743.525 283.284,725.921 252.664 C 722.847 247.316,689.263 211.977,634.337 156.293 C 556.836 77.721,546.486 67.832,537.057 63.345 C 525.259 57.730,515.094 56.176,503.008 58.138"
    fill="#29ccfe"
    fill-rule="evenodd"
  />
</svg>
