<svg class="icon" viewBox="0 0 1024 1024" xmlns="http://www.w3.org/2000/svg">
  <path
    d="M828.997 77.533 C 821.963 80.043,801.130 99.193,739.469 159.831 C 707.182 191.582,701.307 198.134,699.908 203.947 C 698.955 207.904,697.811 279.289,697.187 373.760 C 696.578 465.871,695.396 540.471,694.469 545.312 C 693.567 550.023,690.734 557.007,688.174 560.832 C 685.614 564.658,645.120 604.869,598.187 650.191 C 551.253 695.513,512.635 733.151,512.369 733.831 C 511.075 737.132,547.984 762.802,570.027 773.932 C 601.206 789.676,630.126 797.255,659.627 797.415 C 693.360 797.598,684.880 803.469,767.828 722.504 C 863.679 628.943,858.844 634.248,867.146 613.547 L 871.253 603.307 871.713 354.439 C 872.044 175.372,871.639 103.589,870.269 98.501 C 867.851 89.521,857.919 79.465,849.028 76.997 C 840.407 74.603,836.947 74.696,828.997 77.533 M372.829 80.989 C 368.747 85.071,367.419 92.113,369.641 97.902 C 371.019 101.494,497.746 223.872,503.047 226.729 C 511.972 231.541,515.476 229.006,561.094 184.745 C 659.936 88.842,650.322 98.877,650.279 91.656 C 650.251 87.089,649.004 83.943,646.051 80.989 L 641.862 76.800 509.440 76.800 L 377.018 76.800 372.829 80.989"
    fill="#0e72ff"
    fill-rule="evenodd"
  />
</svg>
