<svg class="icon" viewBox="0 0 1024 1024" xmlns="http://www.w3.org/2000/svg">
  <path
    d="M474.453 67.538 C 472.107 67.934,463.275 69.119,454.827 70.172 C 434.233 72.739,403.026 80.493,382.699 88.095 C 329.753 107.895,288.458 134.416,249.069 173.916 C 192.946 230.197,159.658 295.365,145.674 376.330 C 141.493 400.536,141.536 456.927,145.754 480.427 C 160.195 560.906,190.559 620.364,246.000 676.725 L 267.855 698.944 268.328 816.672 L 268.800 934.400 272.812 940.853 C 277.676 948.676,287.525 954.027,297.061 954.027 C 301.652 954.027,340.491 942.050,408.004 919.815 L 511.883 885.604 619.044 920.847 C 724.741 955.608,726.309 956.062,733.773 954.052 C 743.145 951.528,751.676 943.272,754.161 934.320 C 755.434 929.734,756.037 891.065,756.044 813.590 L 756.053 699.606 775.352 680.470 C 862.407 594.145,899.242 473.779,874.524 356.396 C 860.323 288.958,828.185 228.526,779.947 178.557 C 724.271 120.882,655.408 84.630,575.123 70.728 C 559.727 68.062,485.325 65.705,474.453 67.538 M554.667 128.177 C 616.025 135.370,678.403 164.956,724.813 208.878 C 835.562 313.691,851.934 475.856,764.287 599.865 C 750.977 618.696,722.251 648.807,703.933 663.128 C 598.473 745.577,448.960 750.866,337.766 676.080 C 253.488 619.398,203.091 525.774,203.050 425.813 C 203.003 311.182,272.469 203.767,378.869 153.945 C 431.242 129.422,490.805 120.692,554.667 128.177 M469.333 193.689 C 433.234 199.872,405.828 210.925,373.656 232.276 C 353.416 245.708,323.487 275.492,310.371 295.253 C 268.593 358.200,258.175 429.984,280.908 498.245 C 305.108 570.907,363.266 628.703,435.262 651.636 C 463.843 660.740,478.869 662.908,512.853 662.835 C 537.759 662.781,546.864 662.065,560.962 659.053 C 657.932 638.335,729.154 566.963,750.284 469.333 C 754.678 449.032,754.678 404.301,750.284 384.000 C 728.553 283.593,651.908 209.577,553.047 193.529 C 534.938 190.589,486.896 190.681,469.333 193.689 M565.760 283.172 C 579.982 286.312,598.258 296.016,607.665 305.422 C 635.979 333.737,636.524 384.744,608.800 411.768 C 599.841 420.501,574.118 434.108,562.699 436.154 C 559.138 436.792,556.450 437.926,556.726 438.673 C 557.001 439.420,561.067 442.657,565.760 445.866 C 588.825 461.637,627.511 518.987,633.303 545.997 C 634.966 553.749,634.781 555.278,631.543 560.516 C 624.731 571.538,606.461 576.586,593.292 571.084 C 583.862 567.144,576.981 558.255,552.618 518.542 C 523.323 470.787,514.321 459.583,499.305 452.191 C 489.240 447.236,486.231 446.613,468.591 445.835 L 449.035 444.972 448.518 498.539 C 448.000 552.079,447.998 552.111,443.724 559.787 C 438.362 569.418,430.782 573.434,417.959 573.437 C 405.960 573.441,398.336 568.773,392.960 558.131 L 389.120 550.530 389.120 426.844 C 389.120 307.088,389.227 302.936,392.497 296.182 C 395.816 289.325,402.080 284.353,411.038 281.465 C 417.596 279.350,555.332 280.870,565.760 283.172 M448.853 363.653 L 448.853 403.040 490.240 402.364 C 534.435 401.642,542.498 400.356,554.792 392.072 C 573.512 379.456,572.855 346.069,553.627 332.908 C 543.674 326.095,530.235 324.341,487.680 324.302 L 448.853 324.267 448.853 363.653 M384.000 765.394 C 481.701 799.457,582.930 794.110,675.413 750.002 L 698.027 739.216 698.027 813.342 C 698.027 854.110,697.577 887.467,697.027 887.467 C 696.476 887.467,656.348 874.419,607.853 858.473 C 559.358 842.526,517.350 829.023,514.501 828.466 C 510.583 827.700,487.523 834.607,419.781 856.836 C 370.534 872.996,329.280 886.581,328.107 887.025 C 326.420 887.663,325.973 872.323,325.973 813.828 L 325.973 739.823 346.027 749.485 C 357.056 754.799,374.144 761.958,384.000 765.394"
    fill-rule="evenodd"
  />
</svg>
