<svg class="icon" viewBox="0 0 6875 1024" xmlns="http://www.w3.org/2000/svg">
  <path
    d="M4706.626 29.309 C 4532.966 71.400,4391.744 202.638,4341.260 368.846 C 4270.826 600.734,4385.680 846.546,4614.746 954.162 C 4682.346 985.920,4706.988 991.107,4808.647 994.972 C 4905.431 998.653,4937.669 995.221,4999.461 974.658 C 5140.277 927.797,5244.489 835.180,5309.673 698.958 C 5342.212 630.958,5345.313 614.512,5345.313 509.896 C 5345.313 404.644,5342.312 388.979,5308.473 317.538 C 5198.772 85.937,4954.883 -30.863,4706.626 29.309 M6325.278 29.051 C 6208.049 62.003,6128.925 125.088,6095.778 212.030 C 6074.027 269.079,6078.746 379.462,6105.147 431.213 C 6145.661 510.626,6196.243 536.091,6486.501 623.200 C 6540.665 639.456,6598.673 663.525,6615.407 676.688 C 6651.675 705.217,6655.023 747.060,6623.556 778.528 C 6558.266 843.817,6299.955 814.843,6171.765 727.850 L 6131.393 700.453 6084.967 786.523 C 6059.433 833.861,6038.542 876.663,6038.542 881.637 C 6038.542 894.958,6184.869 958.064,6269.144 981.087 C 6372.567 1009.342,6585.109 1009.777,6665.058 981.897 C 6791.343 937.859,6859.451 858.212,6871.511 740.465 C 6879.884 658.725,6859.059 592.115,6809.700 542.756 C 6756.714 489.770,6684.385 458.147,6511.622 412.435 C 6336.737 366.162,6302.083 346.441,6302.083 293.188 C 6302.083 242.546,6340.380 211.013,6414.217 200.858 C 6484.393 191.206,6620.007 219.177,6688.417 257.412 C 6717.000 273.388,6741.970 286.458,6743.906 286.458 C 6749.193 286.458,6829.167 133.873,6829.167 123.785 C 6829.167 112.035,6747.449 71.044,6669.301 43.593 C 6582.203 12.998,6408.510 5.656,6325.278 29.051 M413.394 48.698 C 407.895 62.878,317.242 270.417,211.942 509.896 C 106.642 749.375,16.006 956.914,10.528 971.094 C 0.613 996.755,1.089 996.875,113.038 996.875 L 225.509 996.875 274.436 882.292 L 323.363 767.708 515.061 767.708 L 706.759 767.708 755.686 882.292 L 804.613 996.875 912.202 996.875 C 975.994 996.875,1019.792 992.230,1019.792 985.464 C 1019.792 976.526,682.425 194.629,618.076 54.427 C 604.087 23.949,600.660 22.917,513.502 22.917 C 430.655 22.917,422.585 24.995,413.394 48.698 M1638.542 27.924 C 1638.542 30.678,1708.900 122.202,1794.894 231.310 C 1880.888 340.417,1965.774 448.233,1983.529 470.900 L 2015.810 512.112 1833.059 745.900 C 1732.546 874.483,1650.239 983.555,1650.154 988.281 C 1650.069 993.008,1700.273 996.747,1761.719 996.590 L 1873.438 996.304 1930.729 920.278 C 1962.240 878.464,2019.821 803.553,2058.689 753.809 L 2129.357 663.365 2259.169 830.120 L 2388.981 996.875 2501.417 996.875 C 2588.256 996.875,2611.919 993.614,2605.360 982.552 C 2600.689 974.674,2517.328 866.338,2420.113 741.805 C 2250.322 524.301,2244.037 514.369,2260.584 489.721 C 2270.059 475.609,2355.091 366.094,2449.546 246.354 L 2621.282 28.646 2512.593 25.352 C 2452.813 23.541,2397.930 27.016,2390.630 33.074 C 2383.329 39.133,2323.272 113.950,2257.168 199.334 C 2191.064 284.718,2133.831 354.720,2129.984 354.893 C 2126.136 355.066,2064.654 280.443,1993.358 189.063 L 1863.728 22.917 1751.135 22.917 C 1689.209 22.917,1638.542 25.170,1638.542 27.924 M3520.610 48.698 L 3483.729 74.479 3483.531 472.656 C 3483.422 691.654,3486.015 870.833,3489.294 870.833 C 3492.572 870.833,3550.058 825.716,3617.041 770.573 L 3738.828 670.313 3656.914 666.946 L 3575.000 663.579 3575.000 343.248 C 3575.000 167.066,3571.060 22.917,3566.245 22.917 C 3561.430 22.917,3540.894 34.518,3520.610 48.698 M3294.271 228.550 C 3231.250 279.542,3177.969 326.322,3175.868 332.506 C 3173.626 339.105,3203.138 343.750,3247.310 343.750 L 3322.571 343.750 3325.608 674.885 L 3328.646 1006.020 3371.766 969.811 L 3414.887 933.603 3411.870 534.720 L 3408.854 135.838 3294.271 228.550 M4974.263 238.250 C 5085.863 296.550,5140.931 400.556,5130.404 533.150 C 5109.859 791.949,4800.582 909.260,4622.340 725.863 C 4503.319 603.399,4509.449 386.681,4635.054 276.398 C 4697.397 221.660,4738.073 207.210,4831.244 206.698 C 4899.023 206.327,4923.485 211.723,4974.263 238.250 M584.992 426.149 C 619.314 502.979,649.115 570.010,651.215 575.107 C 653.316 580.204,592.178 584.375,515.354 584.375 C 387.059 584.375,376.295 582.741,383.298 564.323 C 405.146 506.865,510.463 286.458,516.071 286.458 C 519.655 286.458,550.670 349.319,584.992 426.149"
    fill-rule="evenodd"
  />
</svg>
