<svg class="icon" viewBox="0 0 1024 1024" xmlns="http://www.w3.org/2000/svg">
  <path
    d="M527.360 238.914 C 489.169 260.915,484.693 264.916,484.693 277.053 C 484.693 286.475,490.443 294.517,499.732 298.089 C 506.720 300.775,507.495 300.751,515.092 297.615 C 522.863 294.407,523.601 293.428,540.712 263.636 C 550.402 246.764,560.226 229.696,562.544 225.707 C 565.317 220.932,566.004 218.506,564.552 218.606 C 563.339 218.690,546.603 227.829,527.360 238.914 M476.341 415.316 C 491.105 425.663,496.537 441.630,496.606 474.880 L 496.640 491.520 482.987 491.520 L 469.333 491.520 469.333 475.642 C 469.333 462.122,468.702 458.509,465.085 451.322 C 462.554 446.292,458.243 441.155,454.419 438.613 L 448.000 434.347 370.222 434.347 L 292.444 434.347 285.522 438.927 C 274.875 445.973,271.360 454.899,271.360 474.884 L 271.360 491.305 240.780 491.839 L 210.201 492.373 202.959 497.493 C 198.976 500.309,194.113 505.685,192.152 509.440 C 188.676 516.095,188.575 518.686,188.118 612.540 C 187.604 718.318,187.753 720.175,197.735 732.217 C 200.484 735.534,206.846 740.526,211.873 743.311 L 221.013 748.373 375.040 748.844 C 521.597 749.291,529.070 749.167,529.131 746.284 C 529.167 744.617,532.047 741.281,535.531 738.871 C 539.016 736.461,544.171 730.317,546.987 725.218 L 552.107 715.947 552.107 616.107 L 552.107 516.267 547.350 508.174 C 544.505 503.335,539.879 498.533,535.843 496.228 L 529.093 492.373 529.080 468.308 C 529.072 454.558,529.912 441.756,531.038 438.441 C 533.725 430.536,540.221 421.676,547.638 415.803 C 551.385 412.836,552.471 411.315,550.400 411.934 C 530.407 417.916,494.430 417.937,473.600 411.979 C 471.723 411.442,472.956 412.944,476.341 415.316 M671.180 436.024 C 668.148 437.342,664.119 440.960,662.227 444.063 C 658.968 449.408,658.786 452.574,658.780 503.893 L 658.773 558.080 652.347 558.080 C 642.774 558.080,634.637 563.116,630.187 571.795 C 626.388 579.203,626.347 580.037,626.356 649.322 C 626.362 692.234,627.048 721.818,628.128 725.707 C 630.401 733.890,637.015 741.678,645.267 745.888 C 651.485 749.060,655.773 749.227,731.307 749.227 C 806.091 749.227,811.178 749.034,817.135 745.979 C 825.141 741.874,830.263 736.398,833.625 728.352 C 835.868 722.984,836.267 711.137,836.267 649.842 C 836.267 582.843,836.039 577.230,833.107 571.762 C 828.763 563.662,822.706 559.570,813.529 558.536 L 805.761 557.660 805.227 503.604 C 804.636 443.744,804.663 443.894,793.081 436.832 C 787.964 433.712,784.194 433.510,732.160 433.567 C 688.396 433.614,675.530 434.133,671.180 436.024 M781.312 457.728 C 782.810 459.226,783.360 472.974,783.360 508.928 L 783.360 558.080 731.307 558.080 L 679.253 558.080 679.253 508.928 C 679.253 472.974,679.803 459.226,681.301 457.728 C 684.223 454.806,778.390 454.806,781.312 457.728 M436.845 465.846 C 438.530 466.912,439.565 471.347,440.024 479.473 L 440.705 491.520 370.539 491.520 L 300.373 491.520 300.373 481.168 C 300.373 462.720,294.323 464.209,369.127 464.239 C 406.143 464.254,435.427 464.949,436.845 465.846"
    fill="#ccd8e5"
    fill-rule="evenodd"
  />
</svg>
