<svg class="icon" viewBox="0 0 2299 1024" xmlns="http://www.w3.org/2000/svg">
  <path
    d="M136.024 14.966 C 95.180 30.666,3.079 68.445,1.292 70.233 C 0.703 70.822,6.943 105.695,15.159 147.728 C 50.999 331.083,87.320 602.399,112.845 877.452 C 118.223 935.406,123.607 991.875,124.810 1002.939 L 126.996 1023.055 167.935 1023.055 C 323.539 1023.055,494.093 976.201,585.679 908.294 C 634.337 872.217,654.932 842.164,658.107 802.602 C 659.873 780.607,659.002 776.223,650.241 762.983 C 632.727 736.517,574.817 703.030,507.413 680.392 C 425.510 652.883,362.382 642.388,276.838 642.059 C 235.504 641.900,210.738 640.369,210.733 637.972 C 210.728 635.865,208.226 609.139,205.173 578.582 C 187.825 404.988,179.569 219.923,182.993 81.423 C 184.674 13.418,184.127 0.020,179.673 0.119 C 176.741 0.184,157.098 6.866,136.024 14.966 M1320.009 6.521 C 1300.352 14.377,1166.949 69.742,1166.102 70.395 C 1165.750 70.667,1169.692 91.579,1174.862 116.867 C 1209.816 287.839,1252.227 599.400,1277.613 871.704 C 1282.918 928.604,1288.299 985.936,1289.570 999.107 L 1291.882 1023.055 1332.767 1023.050 C 1416.609 1023.041,1538.001 1003.609,1609.524 978.748 C 1743.889 932.044,1823.714 864.511,1823.836 797.439 C 1823.862 783.276,1821.410 772.831,1816.007 764.089 C 1795.561 731.007,1716.803 690.514,1626.543 666.677 C 1552.896 647.228,1517.179 642.418,1444.045 642.099 L 1376.497 641.804 1372.294 599.656 C 1354.049 416.674,1348.785 315.306,1348.764 146.561 C 1348.744 -17.988,1351.216 -5.952,1320.009 6.521 M811.355 119.713 C 790.817 122.351,781.660 125.127,781.660 128.715 C 781.660 131.568,786.769 163.794,793.013 200.329 C 816.850 339.806,847.546 587.626,867.843 804.448 C 873.257 862.292,878.065 909.986,878.527 910.435 C 878.989 910.885,899.774 911.838,924.716 912.553 L 970.065 913.852 967.817 894.694 C 959.539 824.138,912.714 237.867,907.222 136.024 L 906.189 116.866 873.620 116.382 C 855.707 116.116,827.688 117.615,811.355 119.713 M1980.972 119.439 C 1965.166 121.441,1950.800 124.495,1949.047 126.225 C 1947.294 127.955,1951.090 160.180,1957.484 197.836 C 1984.415 356.459,2013.136 588.813,2034.854 823.759 C 2039.235 871.149,2043.128 910.222,2043.506 910.588 C 2043.885 910.953,2064.630 911.838,2089.608 912.553 L 2135.021 913.852 2132.745 892.778 C 2124.620 817.532,2090.717 399.397,2077.600 212.657 L 2070.871 116.866 2040.290 116.332 C 2023.471 116.039,1996.777 117.437,1980.972 119.439 M685.868 308.967 C 685.868 315.596,705.953 469.547,706.956 470.606 C 707.595 471.280,720.354 470.626,735.310 469.153 C 767.435 465.987,765.181 476.382,754.787 379.335 C 750.611 340.348,747.190 308.018,747.185 307.491 C 747.179 306.964,733.381 306.533,716.522 306.533 C 699.662 306.533,685.868 307.629,685.868 308.967 M1852.259 320.902 C 1853.490 328.805,1858.110 364.583,1862.525 400.409 C 1866.940 436.235,1871.850 466.916,1873.436 468.589 C 1875.022 470.262,1887.797 470.455,1901.824 469.018 C 1926.500 466.490,1927.328 466.061,1927.328 455.805 C 1927.328 445.243,1917.997 353.785,1913.760 322.818 L 1911.532 306.533 1880.777 306.533 L 1850.021 306.533 1852.259 320.902 M636.057 319.160 C 622.358 321.100,610.854 322.941,610.492 323.252 C 609.201 324.358,639.049 479.396,640.911 481.259 C 641.955 482.302,652.066 480.776,663.381 477.867 L 683.952 472.578 682.819 445.199 C 681.345 409.596,668.527 321.993,664.268 318.411 C 662.450 316.882,649.755 317.219,636.057 319.160 M1800.883 319.440 C 1777.458 323.518,1776.054 324.345,1777.259 333.355 C 1779.751 351.975,1804.602 480.123,1805.991 481.511 C 1809.282 484.803,1847.861 473.154,1849.721 468.307 C 1851.711 463.119,1837.504 339.928,1832.942 322.818 C 1831.677 318.076,1829.551 314.401,1828.216 314.651 C 1826.881 314.901,1814.582 317.056,1800.883 319.440 M1065.980 400.427 C 1066.978 443.639,1068.506 479.706,1069.376 480.577 C 1070.247 481.447,1083.027 482.732,1097.776 483.433 L 1124.594 484.706 1125.628 405.730 L 1126.662 326.754 1108.809 324.307 C 1098.989 322.961,1084.928 321.860,1077.561 321.860 L 1064.166 321.860 1065.980 400.427 M2231.086 400.779 C 2232.316 444.184,2233.877 480.251,2234.554 480.928 C 2235.231 481.605,2247.853 482.732,2262.603 483.433 L 2289.421 484.706 2290.455 405.730 L 2291.489 326.754 2273.635 324.307 C 2263.816 322.961,2249.722 321.860,2242.315 321.860 L 2228.848 321.860 2231.086 400.779 M988.650 338.145 C 988.787 359.557,999.568 483.570,1001.456 485.458 C 1002.444 486.446,1012.880 486.051,1024.648 484.580 L 1046.045 481.907 1046.045 403.799 L 1046.045 325.692 1017.308 325.692 L 988.570 325.692 988.650 338.145 M2153.397 334.400 C 2153.397 351.255,2164.870 484.046,2166.464 485.640 C 2167.352 486.528,2177.707 486.051,2189.475 484.580 L 2210.872 481.907 2210.872 403.799 L 2210.872 325.692 2182.134 325.692 C 2154.801 325.692,2153.397 326.117,2153.397 334.400 M710.774 521.495 C 696.022 523.449,675.331 527.189,664.794 529.806 C 647.651 534.063,645.754 535.569,646.760 544.120 C 649.332 565.988,725.352 948.527,727.544 950.630 C 729.921 952.912,819.197 944.811,821.565 942.098 C 822.842 940.636,820.643 918.758,800.628 733.764 C 787.986 616.923,775.555 528.793,771.085 524.331 C 765.943 519.197,738.033 517.884,710.774 521.495 M1878.073 521.265 C 1864.680 523.078,1844.420 526.493,1833.051 528.853 C 1814.229 532.761,1812.384 534.064,1812.437 543.410 C 1812.501 554.585,1890.604 949.444,1893.182 951.629 C 1895.137 953.284,1984.457 944.224,1986.476 942.166 C 1987.938 940.674,1967.369 739.571,1956.147 645.636 C 1950.994 602.508,1939.122 524.194,1937.467 522.423 C 1934.613 519.367,1897.442 518.642,1878.073 521.265 M1024.013 535.188 C 1000.152 536.793,1000.065 536.842,1000.065 548.636 C 1000.065 561.133,1033.004 921.414,1036.695 949.295 L 1038.851 965.580 1062.960 965.580 C 1076.220 965.580,1097.942 964.444,1111.232 963.054 L 1135.395 960.529 1132.754 767.342 C 1131.302 661.090,1129.082 566.630,1127.821 557.432 C 1126.411 547.139,1123.139 539.778,1119.314 538.290 C 1110.984 535.048,1053.778 533.186,1024.013 535.188 M2188.329 535.201 L 2163.870 536.826 2166.536 570.157 C 2170.051 614.102,2198.471 919.660,2201.443 945.464 L 2203.760 965.580 2227.828 965.580 C 2241.065 965.580,2262.773 964.443,2276.067 963.054 L 2300.238 960.527 2297.744 762.575 C 2296.372 653.701,2294.176 559.253,2292.864 552.689 C 2291.551 546.125,2287.653 539.656,2284.201 538.313 C 2275.784 535.037,2218.697 533.185,2188.329 535.201 M360.177 769.062 C 424.154 791.990,463.632 808.505,463.632 812.341 C 463.632 818.091,321.976 924.825,318.696 921.545 C 316.838 919.687,295.149 767.184,295.086 755.538 C 295.030 745.129,291.137 744.320,360.177 769.062 M1516.178 765.741 C 1581.368 788.625,1628.458 808.169,1628.458 812.341 C 1628.458 818.064,1486.911 924.933,1483.650 921.672 C 1482.036 920.058,1459.896 763.791,1459.877 753.880 C 1459.871 750.192,1460.635 747.175,1461.577 747.175 C 1462.518 747.175,1487.089 755.530,1516.178 765.741"
    fill-rule="evenodd"
  />
</svg>
