<svg class="icon" viewBox="0 0 1129 1024" xmlns="http://www.w3.org/2000/svg">
  <path
    d="M252.909 3.702 C 235.327 7.459,220.432 17.999,208.787 34.924 C 190.378 61.680,191.656 102.464,211.728 128.780 C 216.660 135.247,249.184 164.448,261.246 173.240 L 267.526 177.817 205.737 178.912 C 151.808 179.868,142.272 180.484,130.776 183.759 C 70.509 200.923,25.409 244.191,6.539 302.948 L 1.403 318.942 1.722 590.843 C 1.927 765.352,2.728 866.680,3.957 873.733 C 13.150 926.480,47.901 975.565,94.502 1001.625 C 111.302 1011.021,136.849 1019.166,157.119 1021.590 C 180.721 1024.414,955.449 1024.435,975.737 1021.613 C 1043.403 1012.202,1099.337 964.454,1120.194 898.299 C 1128.893 870.708,1129.304 855.376,1128.579 585.198 C 1127.833 307.572,1128.798 329.348,1115.741 295.489 C 1100.589 256.199,1065.035 218.375,1024.567 198.497 C 994.447 183.701,984.514 182.113,915.956 181.136 L 856.269 180.286 865.151 173.232 C 883.181 158.914,911.150 132.981,916.442 125.676 C 927.832 109.952,933.372 86.654,929.743 69.734 C 924.442 45.015,907.946 24.069,884.959 12.871 C 872.842 6.967,871.038 6.630,851.454 6.609 C 832.308 6.588,829.989 6.989,820.533 11.958 C 805.439 19.891,806.397 19.099,710.541 102.950 L 621.891 180.498 563.559 180.504 L 505.227 180.510 414.996 101.449 C 326.961 24.314,311.955 12.419,295.228 6.518 C 285.160 2.965,263.197 1.504,252.909 3.702 M912.131 324.743 C 943.351 331.192,964.599 346.514,976.289 371.009 L 982.230 383.457 982.216 588.290 C 982.207 719.547,981.506 797.516,980.264 805.353 C 974.838 839.600,949.832 867.532,918.038 874.862 C 912.641 876.106,792.275 876.771,570.145 876.783 C 273.753 876.799,228.969 876.439,218.448 873.959 C 185.206 866.124,160.347 841.021,154.311 809.193 C 153.108 802.851,152.416 722.389,152.416 589.175 L 152.418 379.156 157.977 367.405 C 167.501 347.274,185.977 330.640,205.640 324.495 C 212.070 322.485,278.250 321.993,555.641 321.891 C 860.639 321.779,899.276 322.088,912.131 324.743 M323.444 450.315 C 298.849 460.595,281.078 481.036,274.710 506.369 C 273.217 512.305,272.766 531.875,273.278 568.464 C 273.954 616.809,274.396 622.891,277.931 632.404 C 283.718 647.981,286.792 653.230,295.209 661.903 C 327.194 694.861,380.382 695.039,411.015 662.290 C 429.635 642.384,432.719 629.151,432.756 568.991 C 432.785 520.193,431.564 509.242,424.332 493.443 C 417.682 478.920,409.215 469.030,396.259 460.656 C 382.632 451.849,371.174 448.469,349.990 447.008 C 335.954 446.040,332.704 446.445,323.444 450.315 M748.145 451.478 C 723.936 459.446,703.586 479.929,696.237 503.724 C 692.835 514.736,692.453 521.197,692.453 567.720 C 692.453 633.199,695.061 645.325,713.429 665.253 C 737.747 691.634,776.791 698.515,809.085 682.109 C 821.344 675.882,833.879 664.152,839.695 653.466 C 849.372 635.686,850.513 626.775,850.513 568.976 C 850.513 522.181,850.092 514.559,846.948 504.458 C 839.871 481.717,826.060 465.881,803.710 454.878 C 788.054 447.170,765.439 445.786,748.145 451.478"
    fill-rule="evenodd"
  />
</svg>
