<svg class="icon" viewBox="0 0 1024 1024" xmlns="http://www.w3.org/2000/svg">
  <path
    d="M491.231 1.629 C 478.588 3.949,464.179 8.493,455.461 12.911 C 438.389 21.562,114.652 209.060,104.960 215.910 C 78.230 234.801,58.544 266.467,52.982 299.520 C 51.494 308.362,51.116 365.348,51.525 518.827 C 52.040 712.054,52.286 726.885,55.128 736.427 C 63.283 763.802,81.281 790.316,102.441 806.123 C 114.670 815.259,433.103 999.916,454.827 1010.469 C 475.450 1020.488,487.173 1023.072,512.000 1023.072 C 536.827 1023.072,548.550 1020.488,569.173 1010.469 C 590.897 999.916,909.330 815.259,921.559 806.123 C 944.567 788.934,962.293 761.476,969.306 732.160 C 972.695 717.992,972.776 712.858,972.788 512.538 C 972.801 287.385,973.181 296.284,962.455 270.518 C 953.339 248.621,938.225 229.631,919.040 215.969 C 909.700 209.318,583.674 20.498,567.215 12.208 C 548.952 3.009,511.858 -2.156,491.231 1.629 M338.783 350.794 C 366.787 358.088,390.194 377.205,402.425 402.773 C 416.311 431.799,416.348 457.844,402.523 470.556 C 398.344 474.398,385.845 479.581,380.799 479.564 C 373.995 479.540,364.457 475.456,358.374 469.961 C 351.395 463.655,349.145 458.495,347.311 444.587 C 342.779 410.214,298.803 401.759,284.808 432.569 C 281.926 438.915,281.675 445.273,281.675 512.000 C 281.675 578.915,281.919 585.062,284.826 591.360 C 292.057 607.028,308.675 614.422,324.439 608.986 C 338.302 604.205,345.075 594.732,347.922 576.143 C 350.005 562.537,355.603 554.030,365.811 548.957 C 377.697 543.049,396.238 546.313,404.842 555.828 C 416.307 568.506,415.461 594.017,402.694 620.621 C 386.162 655.068,353.061 675.997,314.794 676.199 C 270.144 676.434,232.721 647.948,219.033 603.307 C 216.172 593.977,215.893 585.863,215.893 512.000 C 215.893 438.137,216.172 430.023,219.033 420.693 C 229.568 386.335,254.831 360.776,287.573 351.351 C 300.687 347.576,325.396 347.307,338.783 350.794 M591.015 350.466 C 598.309 353.514,606.950 363.558,609.177 371.580 C 610.162 375.126,610.972 385.899,610.977 395.520 L 610.987 413.013 644.267 413.013 L 677.547 413.013 677.547 392.933 C 677.547 370.073,679.391 364.678,690.196 355.933 C 695.532 351.614,698.286 350.728,707.936 350.221 C 718.224 349.681,720.142 350.123,727.221 354.670 C 739.326 362.446,742.400 370.367,742.400 393.786 L 742.400 412.735 763.307 413.301 C 788.475 413.982,795.149 416.627,802.804 428.952 C 813.217 445.718,807.430 466.394,789.876 475.142 C 781.879 479.127,779.040 479.573,761.692 479.573 L 742.400 479.573 742.400 511.770 L 742.400 543.966 763.307 544.777 C 785.856 545.653,791.033 547.253,798.938 555.794 C 805.746 563.150,807.497 567.671,807.497 577.891 C 807.497 589.462,801.654 600.351,792.335 606.145 C 786.664 609.671,783.395 610.203,764.160 610.731 L 742.400 611.329 742.400 630.516 C 742.400 647.311,741.905 650.641,738.427 657.225 C 727.301 678.292,698.768 680.574,683.630 661.608 C 678.491 655.169,678.390 654.674,677.838 633.021 L 677.275 610.987 644.131 610.987 L 610.987 610.987 610.987 629.815 C 610.987 651.006,608.990 657.928,600.280 666.927 C 585.311 682.393,558.663 677.778,548.269 657.920 C 546.431 654.408,545.334 646.233,544.777 631.893 L 543.966 610.987 524.931 610.987 C 508.556 610.987,504.846 610.450,498.381 607.147 C 477.745 596.604,473.201 572.007,488.733 554.931 C 495.770 547.195,501.443 545.535,523.520 544.754 L 544.427 544.015 544.427 511.794 L 544.427 479.573 526.933 479.564 C 506.727 479.553,498.828 477.780,491.498 471.613 C 478.200 460.424,475.577 439.811,485.835 427.120 C 495.001 415.778,499.968 413.943,523.320 413.270 L 544.026 412.673 544.760 391.937 C 545.551 369.581,547.090 364.619,555.794 356.365 C 558.459 353.837,562.560 351.006,564.907 350.073 C 571.122 347.602,584.647 347.805,591.015 350.466 M610.987 512.000 L 610.987 544.427 644.267 544.427 L 677.547 544.427 677.547 512.000 L 677.547 479.573 644.267 479.573 L 610.987 479.573 610.987 512.000"
    fill-rule="evenodd"
  />
</svg>
