<svg class="icon" viewBox="0 0 1024 1024" xmlns="http://www.w3.org/2000/svg">
  <path
    d="M472.747 65.934 C 470.400 66.273,461.568 67.387,453.120 68.410 C 356.576 80.096,259.360 129.546,189.415 202.548 C 156.924 236.459,131.541 272.801,110.958 314.880 C 101.650 333.908,83.627 378.905,83.627 383.114 C 83.627 383.596,212.843 384.184,370.773 384.422 L 657.920 384.853 660.009 395.093 C 674.968 468.403,674.968 555.597,660.009 628.907 L 657.920 639.147 552.496 639.586 L 447.071 640.026 447.536 672.013 L 448.000 704.000 543.947 704.441 L 639.894 704.882 634.656 719.801 C 616.855 770.502,582.362 833.744,547.273 880.014 C 537.486 892.920,536.221 893.969,529.255 894.947 C 519.608 896.303,504.269 896.292,494.745 894.923 C 486.221 893.698,484.147 891.416,461.171 857.988 L 448.000 838.827 447.550 895.891 C 447.302 927.277,447.686 953.518,448.403 954.206 C 451.184 956.873,485.282 959.625,515.413 959.614 C 572.121 959.593,625.893 949.484,678.085 929.031 C 819.108 873.768,924.152 748.394,953.851 599.893 C 960.397 567.163,961.693 552.636,961.693 512.000 C 961.693 471.364,960.397 456.837,953.851 424.107 C 940.238 356.039,908.104 286.998,864.488 232.107 C 825.158 182.608,770.863 139.450,710.827 109.962 C 664.310 87.115,617.661 73.318,566.822 67.371 C 547.549 65.116,485.019 64.162,472.747 65.934 M529.255 129.077 C 537.483 130.259,538.901 131.743,559.456 160.690 C 589.300 202.716,618.590 258.628,634.645 304.213 L 639.904 319.147 511.995 319.147 L 384.086 319.147 389.096 305.558 C 410.354 247.904,436.697 198.813,472.747 149.674 C 484.853 133.171,488.100 129.788,492.373 129.223 C 501.314 128.041,521.493 127.961,529.255 129.077 M392.387 153.173 C 361.265 204.284,337.178 255.637,321.543 304.213 L 316.736 319.147 248.682 319.147 L 180.628 319.147 184.491 312.747 C 227.481 241.520,296.461 184.037,376.320 152.890 C 396.185 145.143,397.265 145.162,392.387 153.173 M645.602 152.097 C 725.444 182.404,796.240 241.058,839.509 312.747 L 843.372 319.147 775.318 319.147 L 707.264 319.147 702.457 304.213 C 686.822 255.637,662.735 204.284,631.613 153.173 C 629.420 149.572,628.560 146.773,629.646 146.773 C 630.708 146.773,637.888 149.169,645.602 152.097 M878.875 400.640 C 890.556 438.304,895.017 469.078,895.017 512.000 C 895.017 554.922,890.556 585.696,878.875 623.360 L 873.714 640.000 798.670 640.000 C 754.604 640.000,723.627 639.357,723.627 638.443 C 723.627 637.587,724.722 631.165,726.060 624.170 C 732.795 588.966,734.668 564.565,734.668 512.000 C 734.668 459.435,732.795 435.034,726.060 399.830 C 724.722 392.835,723.627 386.413,723.627 385.557 C 723.627 384.643,754.604 384.000,798.670 384.000 L 873.714 384.000 878.875 400.640 M15.753 464.672 L 0.000 480.491 0.000 735.637 L 0.000 990.784 16.671 1007.392 L 33.341 1024.000 192.063 1024.000 L 350.784 1024.000 367.392 1007.329 L 384.000 990.659 384.000 735.509 L 384.000 480.359 368.181 464.606 L 352.363 448.853 191.934 448.853 L 31.506 448.853 15.753 464.672 M320.853 736.427 L 320.853 960.853 192.000 960.853 L 63.147 960.853 63.147 736.427 L 63.147 512.000 192.000 512.000 L 320.853 512.000 320.853 736.427 M839.509 711.253 C 802.675 772.280,744.382 825.448,680.107 856.640 C 658.384 867.182,632.091 877.741,629.689 876.886 C 628.897 876.604,633.988 866.773,641.002 855.040 C 664.513 815.710,688.754 762.361,702.457 719.787 L 707.264 704.853 775.318 704.853 L 843.372 704.853 839.509 711.253 M128.000 864.427 L 128.000 896.000 192.000 896.000 L 256.000 896.000 256.000 864.427 L 256.000 832.853 192.000 832.853 L 128.000 832.853 128.000 864.427"
    fill="#212121"
    fill-rule="evenodd"
  />
</svg>
