<svg class="icon" viewBox="0 0 1024 1024" xmlns="http://www.w3.org/2000/svg">
  <path
    d="M88.747 32.241 C 88.747 38.359,165.519 898.248,166.119 898.847 C 166.357 899.086,244.278 921.128,339.276 947.829 L 512.000 996.376 684.724 947.829 C 779.722 921.128,857.645 899.083,857.887 898.842 C 858.478 898.251,935.264 37.966,935.258 32.000 L 935.253 27.307 512.000 27.307 L 88.747 27.307 88.747 32.241 M779.947 207.993 C 779.947 210.430,767.446 349.350,750.209 538.453 C 741.311 636.075,733.505 722.983,732.862 731.584 C 732.219 740.184,731.158 748.086,730.505 749.143 C 729.852 750.200,680.409 764.537,620.633 781.002 L 511.948 810.940 402.395 780.869 C 342.141 764.330,292.640 750.596,292.393 750.349 C 291.877 749.832,278.187 587.849,278.187 582.256 L 278.187 578.560 331.647 578.560 L 385.107 578.560 388.217 620.800 C 389.928 644.032,391.927 664.229,392.659 665.681 C 393.545 667.438,413.745 673.685,452.995 684.339 L 512.000 700.356 571.084 684.318 C 620.478 670.910,630.395 667.710,631.553 664.806 C 632.315 662.896,636.108 631.765,639.982 595.627 C 643.855 559.488,647.473 527.299,648.021 524.095 L 649.017 518.271 461.042 519.315 C 357.656 519.890,273.003 520.207,272.925 520.020 C 271.425 516.417,261.921 420.416,262.997 419.744 C 263.834 419.222,352.534 417.929,460.110 416.871 C 567.686 415.813,655.907 414.704,656.157 414.407 C 656.812 413.629,663.919 319.539,663.905 311.827 L 663.893 305.361 457.387 306.558 C 280.091 307.585,250.878 307.414,250.864 305.344 C 250.855 304.018,249.333 282.197,247.482 256.853 C 245.631 231.509,244.103 209.813,244.085 208.640 C 244.060 206.942,298.763 206.507,512.000 206.507 C 663.014 206.507,779.947 207.155,779.947 207.993"
    fill="#2196f3"
    fill-rule="evenodd"
  />
</svg>
