<svg class="icon" viewBox="0 0 1024 1024" xmlns="http://www.w3.org/2000/svg">
  <path
    d="M445.440 203.947 L 445.440 254.293 495.787 254.293 L 546.133 254.293 546.133 203.947 L 546.133 153.600 495.787 153.600 L 445.440 153.600 445.440 203.947 M445.440 331.947 L 445.440 382.293 495.787 382.293 L 546.133 382.293 546.133 331.947 L 546.133 281.600 495.787 281.600 L 445.440 281.600 445.440 331.947 M194.961 333.227 L 195.413 383.147 245.333 383.599 L 295.253 384.052 295.253 333.679 L 295.253 283.307 244.881 283.307 L 194.508 283.307 194.961 333.227 M321.254 333.227 L 321.707 383.147 372.053 383.147 L 422.400 383.147 422.852 333.227 L 423.305 283.307 372.053 283.307 L 320.802 283.307 321.254 333.227 M792.159 350.201 C 775.351 370.726,766.730 395.228,765.056 427.233 C 763.606 454.970,770.174 483.931,782.253 503.065 C 784.739 507.003,786.755 510.817,786.734 511.539 C 786.690 512.984,753.634 527.771,744.107 530.607 C 720.358 537.678,724.611 537.600,362.626 537.600 C 35.447 537.600,17.372 537.756,16.278 540.587 C 13.861 546.845,12.412 586.828,13.916 605.792 C 21.081 696.159,68.372 772.397,147.186 820.637 C 187.809 845.501,241.563 862.884,295.613 868.636 C 319.713 871.201,381.031 870.795,411.580 867.869 C 526.626 856.848,620.269 822.000,702.293 759.685 C 722.354 744.445,764.180 703.316,780.620 682.667 C 805.489 651.428,832.570 607.176,848.422 571.874 C 855.607 555.873,856.982 553.870,860.479 554.312 C 868.576 555.334,907.060 551.118,920.487 547.738 C 955.916 538.818,982.484 519.385,1000.533 489.186 C 1005.931 480.156,1010.347 472.155,1010.347 471.405 C 1010.347 469.509,990.791 458.313,980.480 454.306 C 957.218 445.264,916.422 442.306,890.880 447.808 C 884.779 449.122,879.744 450.087,879.692 449.952 C 879.640 449.817,878.270 443.947,876.648 436.907 C 870.034 408.204,850.249 379.111,820.385 354.175 C 810.816 346.185,802.499 339.643,801.903 339.637 C 801.307 339.631,796.922 344.385,792.159 350.201 M71.680 459.972 L 71.680 510.345 121.600 509.892 L 171.520 509.440 171.972 459.520 L 172.425 409.600 122.052 409.600 L 71.680 409.600 71.680 459.972 M194.961 459.520 L 195.413 509.440 245.760 509.440 L 296.107 509.440 296.559 459.520 L 297.012 409.600 245.760 409.600 L 194.508 409.600 194.961 459.520 M321.254 459.520 L 321.707 509.440 372.053 509.440 L 422.400 509.440 422.852 459.520 L 423.305 409.600 372.053 409.600 L 320.802 409.600 321.254 459.520 M445.440 459.947 L 445.440 510.293 495.787 510.293 L 546.133 510.293 546.133 459.947 L 546.133 409.600 495.787 409.600 L 445.440 409.600 445.440 459.947 M570.027 459.972 L 570.027 510.345 619.947 509.892 L 669.867 509.440 670.319 459.520 L 670.772 409.600 620.399 409.600 L 570.027 409.600 570.027 459.972 M236.101 632.877 C 246.496 637.475,257.131 647.543,262.440 657.812 C 268.832 670.176,268.816 688.361,262.401 700.770 C 248.895 726.898,217.901 738.056,191.606 726.256 C 146.206 705.881,150.270 643.777,197.889 630.269 C 208.046 627.388,226.547 628.651,236.101 632.877"
    fill-rule="evenodd"
  />
</svg>
