<svg class="icon" viewBox="0 0 1024 1024" xmlns="http://www.w3.org/2000/svg">
  <path
    d="M484.693 297.813 L 484.693 337.920 404.480 337.920 L 324.267 337.920 324.267 378.027 L 324.267 418.133 284.160 418.133 L 244.053 418.133 244.053 459.093 L 244.053 500.053 210.066 500.053 L 176.078 500.053 174.917 512.442 C 174.279 519.255,174.021 533.464,174.345 544.017 C 175.016 565.895,175.652 565.169,159.565 560.884 C 146.666 557.449,135.073 551.867,126.856 545.133 C 120.100 539.597,119.467 539.388,119.467 542.690 C 119.467 553.628,107.734 562.844,85.427 569.426 L 72.533 573.230 124.438 573.762 L 176.343 574.293 180.161 589.653 C 188.156 621.824,197.174 641.946,213.463 663.961 C 251.796 715.768,310.851 751.917,375.210 762.967 C 397.691 766.828,447.341 767.515,481.840 764.444 C 620.429 752.107,727.308 692.466,797.260 588.433 L 807.341 573.440 878.551 573.349 L 949.760 573.258 935.295 568.984 C 913.655 562.589,903.080 554.855,902.352 544.890 L 901.973 539.703 895.739 544.637 C 885.997 552.347,868.368 559.825,853.823 562.418 C 840.815 564.737,815.503 565.760,813.779 564.037 C 813.300 563.558,816.520 556.070,820.933 547.397 C 825.347 538.723,830.744 527.211,832.926 521.813 L 836.895 512.000 853.221 511.975 C 884.992 511.926,911.158 501.625,933.261 480.466 C 944.753 469.466,955.038 455.684,958.337 446.866 C 960.676 440.613,929.972 427.776,905.522 424.785 C 892.069 423.139,878.746 423.983,860.892 427.612 C 855.720 428.664,855.624 428.554,853.551 419.294 C 850.735 406.710,840.263 385.555,830.367 372.458 C 820.990 360.048,798.063 340.566,794.461 341.948 C 790.774 343.362,781.776 356.311,776.506 367.787 C 762.342 398.630,763.246 436.872,778.846 466.773 C 781.785 472.405,784.437 477.548,784.739 478.202 C 785.523 479.893,772.682 486.170,758.646 490.957 C 739.244 497.575,720.574 500.053,690.123 500.053 L 662.187 500.053 662.187 459.093 L 662.187 418.133 622.080 418.133 L 581.973 418.133 581.973 337.920 L 581.973 257.707 533.333 257.707 L 484.693 257.707 484.693 297.813 M568.320 305.493 L 568.320 339.627 534.187 339.627 L 500.053 339.627 500.053 305.493 L 500.053 271.360 534.187 271.360 L 568.320 271.360 568.320 305.493 M407.893 385.707 L 407.893 419.840 373.760 419.840 L 339.627 419.840 339.627 385.707 L 339.627 351.573 373.760 351.573 L 407.893 351.573 407.893 385.707 M488.107 385.707 L 488.107 419.840 453.973 419.840 L 419.840 419.840 419.840 385.707 L 419.840 351.573 453.973 351.573 L 488.107 351.573 488.107 385.707 M568.320 385.707 L 568.320 419.840 534.187 419.840 L 500.053 419.840 500.053 385.707 L 500.053 351.573 534.187 351.573 L 568.320 351.573 568.320 385.707 M823.630 386.004 C 833.944 401.094,839.515 416.259,840.762 432.640 C 841.262 439.211,841.944 445.486,842.277 446.586 C 842.700 447.979,846.665 447.270,855.362 444.244 C 872.469 438.292,899.494 436.934,916.947 441.151 C 927.120 443.609,937.366 447.425,940.073 449.765 C 941.619 451.102,934.082 461.897,925.868 470.111 C 908.252 487.727,881.991 496.640,847.706 496.640 L 828.245 496.640 823.433 508.160 C 820.786 514.496,814.092 528.794,808.557 539.933 L 798.493 560.187 791.353 559.110 C 787.426 558.519,778.926 555.445,772.463 552.281 L 760.713 546.528 753.690 551.451 C 744.153 558.136,730.471 562.663,713.306 564.816 C 667.283 570.586,606.563 560.483,590.455 544.375 C 587.128 541.048,587.059 541.062,579.751 546.640 C 562.699 559.657,541.318 565.556,511.147 565.571 C 479.276 565.586,456.320 559.203,441.522 546.211 L 435.200 540.660 429.367 545.782 C 422.033 552.221,409.448 556.960,387.036 561.724 C 365.453 566.311,314.734 567.280,297.813 563.430 C 282.810 560.015,270.644 555.123,265.653 550.497 L 261.260 546.426 249.670 552.147 C 236.316 558.738,216.596 563.200,200.819 563.200 C 189.918 563.200,189.862 563.175,188.800 557.867 C 187.444 551.087,187.450 522.616,188.809 517.547 L 189.838 513.707 455.691 513.707 C 744.127 513.707,732.538 514.059,760.888 504.417 C 774.546 499.772,793.818 490.040,800.797 484.264 L 805.434 480.427 796.976 467.954 C 785.013 450.313,780.775 435.762,780.972 413.013 C 781.143 393.329,784.441 380.099,792.683 366.035 L 797.282 358.188 806.107 365.734 C 810.962 369.885,818.847 379.006,823.630 386.004 M327.680 465.920 L 327.680 500.053 293.547 500.053 L 259.413 500.053 259.413 465.920 L 259.413 431.787 293.547 431.787 L 327.680 431.787 327.680 465.920 M407.893 465.920 L 407.893 500.053 373.760 500.053 L 339.627 500.053 339.627 465.920 L 339.627 431.787 373.760 431.787 L 407.893 431.787 407.893 465.920 M488.107 465.920 L 488.107 500.053 453.973 500.053 L 419.840 500.053 419.840 465.920 L 419.840 431.787 453.973 431.787 L 488.107 431.787 488.107 465.920 M568.320 465.920 L 568.320 500.053 534.187 500.053 L 500.053 500.053 500.053 465.920 L 500.053 431.787 534.187 431.787 L 568.320 431.787 568.320 465.920 M648.533 465.920 L 648.533 500.053 614.400 500.053 L 580.267 500.053 580.267 465.920 L 580.267 431.787 614.400 431.787 L 648.533 431.787 648.533 465.920 M414.823 616.960 C 427.772 625.259,424.986 647.150,410.367 651.975 C 396.772 656.462,384.021 647.224,384.006 632.878 C 383.991 618.235,402.166 608.848,414.823 616.960 M395.016 623.709 C 386.631 632.094,392.118 646.827,403.627 646.827 C 409.773 646.827,416.427 640.500,416.427 634.655 C 416.427 631.662,415.716 629.998,414.705 630.623 C 413.758 631.208,411.378 631.178,409.416 630.555 C 406.619 629.667,406.006 628.353,406.575 624.471 C 407.203 620.195,406.751 619.520,403.254 619.520 C 401.027 619.520,397.320 621.405,395.016 623.709 M370.907 672.457 C 384.182 701.251,411.546 729.407,442.490 746.112 L 454.827 752.772 418.133 752.030 C 392.414 751.510,377.689 750.438,368.896 748.445 C 323.227 738.092,281.721 716.698,247.222 685.727 L 236.373 675.988 267.093 675.908 C 302.542 675.816,329.580 673.581,349.013 669.135 C 367.662 664.870,367.390 664.829,370.907 672.457"
    fill="#3a4e55"
    fill-rule="evenodd"
  />
</svg>
