<svg class="icon" viewBox="0 0 1024 1024" xmlns="http://www.w3.org/2000/svg">
  <path
    d="M469.435 1.811 C 293.396 17.496,140.208 119.242,58.378 274.831 C 31.845 325.279,14.433 379.450,4.643 442.005 C -0.595 475.476,-0.595 548.524,4.643 581.995 C 22.790 697.950,71.194 795.028,150.146 873.813 C 229.672 953.171,325.983 1001.199,442.005 1019.357 C 475.476 1024.595,548.524 1024.595,581.995 1019.357 C 698.017 1001.199,794.328 953.171,873.854 873.813 C 952.808 795.026,1001.266 697.834,1019.347 581.995 C 1022.336 562.847,1022.956 551.113,1023.000 512.853 C 1023.057 463.603,1021.493 447.341,1012.660 405.400 C 990.354 299.475,932.260 199.895,851.469 129.100 C 772.106 59.555,680.622 18.088,576.000 4.236 C 551.131 0.944,493.810 -0.361,469.435 1.811 M354.987 443.344 L 407.040 545.280 407.480 443.307 L 407.920 341.333 442.893 341.333 L 477.867 341.333 477.867 512.000 L 477.867 682.667 442.453 682.651 L 407.040 682.636 354.987 580.717 L 302.933 478.799 302.493 580.733 L 302.053 682.667 267.080 682.667 L 232.107 682.667 232.107 512.000 L 232.107 341.333 267.520 341.371 L 302.933 341.408 354.987 443.344 M651.947 375.467 L 651.947 409.600 616.960 409.600 L 581.973 409.600 581.973 443.733 L 581.973 477.867 616.960 477.867 L 651.947 477.867 651.947 512.000 L 651.947 546.133 616.960 546.133 L 581.973 546.133 581.973 580.267 L 581.973 614.400 616.960 614.400 L 651.947 614.400 651.947 648.533 L 651.947 682.667 581.973 682.667 L 512.000 682.667 512.000 512.000 L 512.000 341.333 581.973 341.333 L 651.947 341.333 651.947 375.467 M896.000 375.467 L 896.000 409.600 861.013 409.600 L 826.027 409.600 826.027 546.133 L 826.027 682.667 791.040 682.667 L 756.053 682.667 756.053 546.133 L 756.053 409.600 721.067 409.600 L 686.080 409.600 686.080 375.467 L 686.080 341.333 791.040 341.333 L 896.000 341.333 896.000 375.467 M175.415 617.051 C 188.116 622.356,197.898 636.054,197.898 648.533 C 197.898 661.012,188.116 674.711,175.415 680.016 C 165.928 683.979,156.956 683.325,146.600 677.915 C 139.236 674.068,136.599 671.430,132.752 664.066 C 126.682 652.447,126.682 644.619,132.752 633.000 C 140.858 617.483,159.641 610.461,175.415 617.051"
    fill="#7765e4"
    fill-rule="evenodd"
  />
</svg>
