<svg class="icon" viewBox="0 0 1024 1024" xmlns="http://www.w3.org/2000/svg">
  <path
    d="M482.987 129.051 C 478.763 129.439,466.859 130.940,456.533 132.386 C 367.059 144.924,281.509 191.634,222.321 260.267 C 121.027 377.724,99.458 541.817,167.124 680.195 C 231.526 811.900,365.925 896.000,512.000 896.000 C 658.242 896.000,792.718 811.841,856.829 680.195 C 924.492 541.254,903.023 377.783,801.679 260.267 C 742.848 192.048,658.716 145.916,568.320 132.309 C 550.761 129.666,498.170 127.658,482.987 129.051 M536.899 288.248 C 603.831 304.778,658.829 353.877,681.431 417.280 C 688.768 437.861,691.789 456.285,691.788 480.427 C 691.786 508.305,690.032 516.246,671.594 571.868 C 655.913 619.170,654.629 626.788,660.250 639.161 C 666.973 653.962,681.329 661.398,700.787 660.158 C 721.569 658.835,733.851 644.902,735.230 621.088 C 735.933 608.939,735.592 607.052,731.407 599.910 C 726.485 591.512,718.250 584.685,706.830 579.535 C 702.927 577.775,699.733 575.667,699.733 574.850 C 699.733 572.055,715.421 563.413,723.730 561.631 C 729.298 560.437,734.934 560.401,740.850 561.523 C 757.057 564.597,766.949 573.368,773.025 590.053 C 781.379 612.997,783.906 616.231,799.792 624.322 C 808.828 628.924,819.740 641.322,822.313 649.910 C 825.371 660.119,824.722 673.932,820.773 682.667 C 816.950 691.121,807.561 701.832,805.234 700.393 C 804.420 699.891,801.095 694.197,797.844 687.742 C 791.151 674.451,783.392 664.880,776.365 661.246 C 773.735 659.886,767.087 658.773,761.593 658.773 C 748.636 658.773,738.961 663.569,720.109 679.337 C 682.693 710.632,644.580 729.765,601.086 739.086 C 576.875 744.275,531.931 745.517,508.389 741.647 C 402.976 724.319,314.293 631.951,296.916 521.387 C 291.979 489.971,295.929 447.513,306.561 417.735 C 330.792 349.862,390.482 299.127,461.653 285.911 C 480.316 282.445,518.163 283.621,536.899 288.248"
    fill="#d64e6d"
    fill-rule="evenodd"
  />
</svg>
