<svg class="icon" viewBox="0 0 3282 1024" xmlns="http://www.w3.org/2000/svg">
  <path
    d="M733.455 94.674 C 577.178 162.310,527.558 186.080,523.531 195.238 C 520.172 202.880,520.004 286.331,523.068 425.236 C 527.215 613.222,529.117 645.088,536.882 656.658 C 541.835 664.037,640.563 728.536,756.277 799.987 C 917.662 899.640,970.802 929.900,984.416 929.900 C 1005.345 929.900,1397.595 763.055,1413.086 747.564 C 1422.691 737.959,1423.090 729.189,1419.928 597.055 C 1413.227 317.003,1411.463 290.732,1398.359 275.726 C 1391.916 268.349,1293.184 204.523,1178.955 133.892 C 1023.620 37.843,967.085 5.550,954.685 5.787 C 945.566 5.961,846.012 45.960,733.455 94.674 M1139.233 213.204 L 1311.500 319.743 1314.817 421.064 C 1316.642 476.790,1318.781 559.191,1319.570 604.176 L 1321.005 685.968 1151.449 758.769 C 1058.192 798.810,978.243 830.171,973.783 828.460 C 969.323 826.748,890.181 778.623,797.912 721.514 L 630.151 617.681 627.052 575.503 C 625.348 552.305,623.255 469.626,622.400 391.771 L 620.845 250.216 787.680 177.675 C 879.439 137.777,957.316 105.478,960.740 105.899 C 964.164 106.320,1044.486 154.607,1139.233 213.204 M663.007 320.811 L 664.605 362.653 776.740 431.996 L 888.875 501.340 892.331 574.768 C 894.232 615.153,896.078 667.288,896.434 690.623 L 897.080 733.052 934.002 756.589 C 954.310 769.535,974.156 782.067,978.105 784.438 C 983.996 787.975,984.657 761.882,981.785 639.157 C 979.860 556.881,975.947 483.411,973.090 475.890 C 970.232 468.369,959.211 456.566,948.599 449.662 C 876.355 402.660,672.776 278.970,667.661 278.970 C 663.378 278.970,661.913 292.144,663.007 320.811 M380.820 347.904 C 330.035 370.074,284.730 391.326,280.142 395.129 C 272.843 401.180,272.251 423.939,275.406 577.085 C 278.588 731.558,280.134 753.628,288.564 764.918 C 303.028 784.290,620.872 979.786,638.715 980.285 C 651.808 980.650,821.275 912.757,833.233 902.355 C 837.029 899.054,760.325 847.850,751.584 847.850 C 749.995 847.850,722.978 858.836,691.545 872.262 L 634.395 896.675 500.950 814.088 L 367.506 731.501 363.892 665.233 C 361.905 628.786,361.061 564.700,362.017 522.821 L 363.755 446.677 422.558 421.859 L 481.360 397.042 481.276 358.519 C 481.230 337.331,479.384 317.205,477.174 313.794 C 474.418 309.543,444.129 320.265,380.820 347.904 M1719.460 383.128 C 1665.498 393.800,1616.882 435.927,1600.052 486.599 C 1580.501 545.461,1597.861 623.814,1639.122 662.944 C 1683.761 705.277,1768.694 716.579,1827.172 687.969 C 1843.797 679.835,1864.242 666.038,1872.606 657.307 L 1887.813 641.434 1866.181 624.301 L 1844.549 607.168 1826.339 624.178 C 1816.324 633.534,1801.910 643.570,1794.308 646.482 C 1775.828 653.558,1738.416 653.239,1715.914 645.813 C 1691.222 637.664,1663.016 607.409,1657.561 583.223 L 1653.092 563.410 1779.117 563.410 L 1905.142 563.410 1901.837 528.015 C 1895.845 463.852,1861.654 410.586,1814.068 391.279 C 1790.103 381.556,1746.434 377.794,1719.460 383.128 M2085.276 383.242 C 2059.875 388.247,2034.400 403.954,2021.263 422.710 C 2013.278 434.110,2012.960 433.679,2012.960 411.467 L 2012.960 388.370 1982.875 388.370 L 1952.790 388.370 1952.790 541.530 L 1952.790 694.690 1982.875 694.690 L 2012.960 694.690 2012.991 603.067 C 2013.007 552.675,2015.453 502.690,2018.426 491.989 C 2033.502 437.721,2109.621 416.926,2149.037 456.308 L 2163.385 470.644 2165.065 582.667 L 2166.746 694.690 2196.518 694.690 L 2226.290 694.690 2226.170 578.452 C 2226.065 476.768,2224.770 459.396,2215.825 439.700 C 2202.404 410.146,2174.731 389.720,2138.909 382.926 C 2122.969 379.903,2109.647 377.700,2109.306 378.029 C 2108.964 378.359,2098.151 380.704,2085.276 383.242 M2695.193 383.264 C 2620.992 395.309,2563.821 464.185,2563.821 541.530 C 2563.821 649.080,2667.849 727.518,2770.794 697.591 C 2847.415 675.317,2891.524 616.699,2890.287 538.795 C 2889.546 492.084,2879.318 467.102,2846.627 432.153 C 2808.333 391.214,2754.091 373.702,2695.193 383.264 M2248.990 393.203 C 2250.043 396.164,2277.981 465.189,2311.075 546.591 L 2371.245 694.596 2404.535 694.643 L 2437.825 694.690 2498.245 541.530 L 2558.666 388.370 2527.150 388.370 L 2495.635 388.370 2452.647 503.240 C 2429.004 566.418,2408.400 618.055,2406.862 617.987 C 2405.324 617.920,2384.320 566.843,2360.188 504.485 L 2316.312 391.105 2281.693 389.462 C 2260.645 388.463,2247.826 389.930,2248.990 393.203 M2901.397 397.406 C 2903.422 402.683,2932.167 472.829,2965.276 553.285 L 3025.473 699.569 3008.205 741.047 C 2987.812 790.033,2972.042 801.858,2934.046 796.650 L 2910.666 793.445 2906.959 818.165 C 2904.920 831.761,2904.991 844.618,2907.116 846.735 C 2909.241 848.853,2930.038 850.585,2953.332 850.585 C 2991.081 850.585,2997.821 848.954,3015.351 835.581 C 3026.411 827.144,3040.909 807.992,3048.476 791.821 C 3063.298 760.148,3205.420 397.765,3205.420 391.645 C 3205.420 389.543,3191.589 388.562,3174.683 389.465 L 3143.947 391.105 3102.206 507.283 C 3079.248 571.181,3059.196 623.488,3057.645 623.521 C 3056.094 623.553,3034.907 571.273,3010.562 507.342 L 2966.300 391.105 2932.008 389.459 C 2901.215 387.980,2898.091 388.791,2901.397 397.406 M1794.245 436.802 C 1815.893 448.321,1837.696 482.241,1837.830 504.607 L 1837.920 519.650 1747.988 519.650 C 1698.525 519.650,1656.911 517.797,1655.511 515.533 C 1651.537 509.103,1666.203 470.919,1677.397 458.550 C 1705.133 427.902,1758.762 417.920,1794.245 436.802 M2777.881 447.309 C 2823.236 468.195,2842.834 545.374,2815.696 596.230 C 2792.608 639.495,2747.154 658.818,2699.713 645.535 C 2636.804 627.922,2607.581 552.488,2639.136 489.166 C 2664.551 438.163,2721.024 421.126,2777.881 447.309 M147.690 528.680 C 110.084 545.127,74.766 563.057,69.206 568.523 C 59.695 577.874,59.335 586.315,63.127 710.999 C 66.903 835.147,67.889 844.343,78.707 856.294 C 97.151 876.671,330.007 1017.420,345.276 1017.420 C 355.855 1017.420,495.009 961.834,502.046 954.797 C 502.906 953.937,486.984 942.809,466.663 930.069 L 429.717 906.903 388.531 924.467 C 365.879 934.126,344.883 942.112,341.875 942.212 C 338.866 942.312,293.329 915.747,240.680 883.179 C 188.031 850.611,144.649 823.800,144.276 823.600 C 143.902 823.399,141.861 776.270,139.740 718.869 L 135.883 614.503 185.547 593.677 L 235.210 572.851 235.210 535.310 C 235.210 503.013,233.873 497.840,225.637 498.273 C 220.373 498.549,185.296 512.232,147.690 528.680 M399.385 526.032 C 399.426 542.077,400.822 560.279,402.488 566.481 C 405.045 576.002,472.384 623.580,483.302 623.580 C 485.242 623.580,486.830 606.630,486.830 585.913 L 486.830 548.247 447.173 524.376 C 425.362 511.247,405.670 499.684,403.413 498.682 C 401.156 497.679,399.344 509.986,399.385 526.032 M531.692 747.283 L 533.325 784.840 560.675 802.973 C 610.635 836.097,607.170 836.802,607.170 793.511 L 607.170 755.196 576.149 735.352 C 528.291 704.738,529.824 704.326,531.692 747.283"
    fill="#fffffe"
    fill-rule="evenodd"
  />
</svg>
