<svg version="1.1" viewBox="0 0 1500 1500" xmlns="http://www.w3.org/2000/svg">
  <path
    d="M592.976 654.375 C 593.765 658.475,603.212 658.791,743.159 659.395 C 891.242 660.034,892.500 659.997,892.500 655.020 C 892.500 650.049,891.029 650.000,742.317 650.000 C 600.631 650.000,592.181 650.248,592.976 654.375 M817.500 752.683 C 817.500 799.129,817.826 802.804,821.875 802.030 C 825.572 801.323,826.362 797.835,826.970 779.523 C 827.676 758.270,827.857 757.704,836.391 750.212 C 859.895 729.575,873.384 740.161,871.850 778.043 C 871.164 795.001,871.743 800.134,874.460 801.176 C 881.032 803.699,882.500 799.685,882.486 779.227 C 882.469 753.910,879.253 741.742,870.827 735.114 C 862.239 728.359,853.264 728.661,839.122 736.180 L 827.500 742.359 827.500 722.430 C 827.500 704.167,827.082 702.500,822.500 702.500 C 817.666 702.500,817.500 704.167,817.500 752.683 M636.250 734.651 C 608.959 751.509,604.363 790.540,627.975 804.936 C 638.198 811.169,648.227 811.278,661.250 805.298 C 675.288 798.852,681.694 791.303,677.458 786.200 C 674.576 782.727,673.524 782.960,667.738 788.347 C 664.170 791.670,658.793 795.652,655.789 797.195 C 633.325 808.736,613.980 782.089,627.439 758.143 C 636.306 742.367,654.964 734.670,662.456 743.697 C 664.860 746.594,666.655 746.790,670.740 744.604 C 675.893 741.846,675.873 741.743,669.088 735.907 C 660.640 728.640,646.836 728.113,636.250 734.651 M696.041 736.517 C 693.539 737.554,698.309 758.472,708.483 791.071 C 715.626 813.962,725.494 807.886,736.610 773.749 C 740.366 762.219,744.182 753.244,745.090 753.806 C 745.999 754.368,749.352 764.537,752.542 776.405 C 757.884 796.286,762.379 805.000,767.291 805.000 C 772.261 805.000,778.385 793.437,787.285 767.247 C 795.541 742.953,796.420 738.435,793.244 736.616 C 788.169 733.709,787.403 735.068,777.583 764.374 C 772.862 778.467,768.261 789.155,767.359 788.124 C 766.458 787.093,762.771 776.603,759.166 764.813 C 755.561 753.023,750.424 741.397,747.751 738.977 C 743.085 734.755,742.741 734.812,739.146 740.415 C 737.086 743.624,731.733 756.832,727.250 769.767 L 719.100 793.283 712.119 766.514 C 703.521 733.547,703.465 733.442,696.041 736.517 M592.972 846.875 C 593.701 850.681,597.466 851.342,621.905 851.957 C 637.357 852.346,650.000 853.144,650.000 853.732 C 650.000 854.319,647.061 866.209,643.468 880.154 C 637.620 902.856,637.335 905.907,640.742 909.314 C 645.475 914.046,644.634 914.673,680.872 879.375 L 708.463 852.500 800.481 852.500 C 890.833 852.500,892.500 852.409,892.500 847.500 C 892.500 842.589,890.833 842.500,798.376 842.500 L 704.253 842.500 676.942 869.375 C 647.622 898.227,648.180 898.210,656.591 870.000 C 661.074 854.965,660.883 845.874,656.046 844.017 C 653.871 843.183,638.601 842.500,622.112 842.500 C 594.908 842.500,592.211 842.905,592.972 846.875"
    fill-rule="evenodd"
  />
</svg>
