<svg class="icon" viewBox="0 0 1024 1024" xmlns="http://www.w3.org/2000/svg">
  <path
    d="M496.640 87.244 C 478.204 90.212,463.964 99.115,439.898 122.717 L 417.980 144.213 454.324 180.382 L 490.667 216.551 499.200 214.883 C 516.557 211.489,542.021 216.948,558.749 227.649 C 585.297 244.631,601.082 279.105,596.049 309.110 L 594.223 320.000 648.916 374.855 C 702.991 429.089,703.669 429.692,708.913 428.188 C 716.063 426.137,729.366 426.271,741.660 428.516 C 775.893 434.769,803.795 463.861,809.258 499.000 C 817.209 550.145,776.935 597.333,725.333 597.333 C 685.548 597.333,648.925 567.061,641.850 528.327 C 639.604 516.032,639.471 502.729,641.522 495.578 C 643.022 490.348,642.417 489.646,598.855 446.108 L 554.667 401.945 554.667 505.473 L 554.667 609.002 560.539 612.631 C 569.775 618.339,583.107 634.045,588.746 645.861 C 604.320 678.493,597.641 716.795,571.885 742.551 C 537.917 776.519,486.083 776.519,452.115 742.551 C 426.359 716.795,419.680 678.493,435.254 645.861 C 440.893 634.045,454.225 618.339,463.461 612.631 L 469.333 609.002 469.333 490.667 L 469.333 372.332 463.461 368.703 C 439.314 353.779,422.601 315.528,427.911 287.337 L 429.795 277.333 393.650 241.051 L 357.505 204.768 229.314 333.211 C 105.795 456.971,100.897 462.120,94.949 474.453 C 82.657 499.944,82.651 524.009,94.932 549.547 C 100.920 561.999,105.980 567.239,281.370 742.630 C 456.761 918.020,462.001 923.080,474.453 929.068 C 499.974 941.340,524.026 941.340,549.547 929.068 C 561.999 923.080,567.239 918.020,742.630 742.630 C 918.020 567.239,923.080 561.999,929.068 549.547 C 941.340 524.026,941.340 499.974,929.068 474.453 C 923.080 462.001,918.020 456.761,742.630 281.370 C 567.030 105.771,562.014 100.928,549.547 94.953 C 537.656 89.255,520.345 85.106,510.293 85.546 C 507.947 85.648,501.803 86.412,496.640 87.244"
    fill-rule="evenodd"
  />
</svg>
