<svg class="icon" viewBox="0 0 1024 1024" xmlns="http://www.w3.org/2000/svg">
  <path
    d="M478.720 1.047 C 350.808 11.273,239.548 61.715,151.315 149.481 C 71.293 229.080,22.756 325.893,4.658 442.005 C -0.556 475.454,-0.556 548.546,4.658 581.995 C 17.630 665.218,44.176 733.715,88.981 799.573 C 107.780 827.206,122.592 845.149,147.767 870.785 C 227.418 951.895,324.834 1001.079,442.005 1019.342 C 475.454 1024.556,548.546 1024.556,581.995 1019.342 C 665.218 1006.370,733.715 979.824,799.573 935.019 C 827.401 916.088,845.268 901.310,871.066 875.889 C 952.301 795.843,1001.080 699.158,1019.342 581.995 C 1024.556 548.546,1024.556 475.454,1019.342 442.005 C 1006.370 358.782,979.824 290.285,935.019 224.427 C 893.775 163.803,837.248 110.287,775.680 73.578 C 712.792 36.081,649.001 13.940,576.000 4.272 C 556.180 1.647,496.117 -0.344,478.720 1.047 M559.787 27.431 C 598.999 31.067,642.800 41.106,682.109 55.466 C 722.732 70.307,775.774 100.155,814.080 129.730 C 835.391 146.184,879.862 190.994,896.203 212.480 C 949.460 282.502,980.822 356.351,994.412 443.733 C 996.813 459.175,997.464 473.732,997.464 512.000 C 997.464 564.825,995.988 579.537,986.508 621.227 C 955.796 756.288,866.919 873.423,744.596 940.051 C 636.507 998.927,506.737 1014.602,388.266 983.095 C 299.902 959.594,224.724 915.435,161.581 849.943 C 125.573 812.594,99.164 774.967,75.919 727.893 C 40.898 656.969,25.600 591.334,25.600 512.000 C 25.600 432.666,40.898 367.031,75.919 296.107 C 100.892 245.534,127.563 208.422,167.993 167.993 C 195.808 140.177,214.672 124.758,246.613 103.729 C 269.843 88.436,316.921 64.588,341.891 55.466 C 378.948 41.929,424.531 31.219,460.800 27.529 C 481.928 25.380,537.072 25.325,559.787 27.431 M376.190 155.340 C 371.860 157.483,367.832 161.276,365.523 165.384 L 361.813 171.985 361.816 297.192 C 361.819 436.799,361.243 429.908,373.586 438.153 C 379.190 441.897,380.687 442.027,418.211 442.027 L 457.036 442.027 457.638 456.409 C 458.312 472.505,460.920 477.774,471.218 483.840 C 476.803 487.129,480.083 487.253,561.493 487.253 C 642.904 487.253,646.184 487.129,651.768 483.840 C 654.955 481.963,659.179 478.259,661.155 475.609 C 664.717 470.831,664.751 469.781,665.244 347.609 C 665.518 279.859,665.283 221.885,664.721 218.778 C 663.340 211.137,653.120 200.167,645.379 198.017 C 641.951 197.065,623.292 196.281,603.914 196.276 L 568.681 196.267 568.067 182.729 C 567.407 168.206,565.108 163.278,555.717 156.265 C 552.051 153.527,547.852 152.615,536.791 152.152 C 524.175 151.624,522.174 151.960,518.995 155.138 C 513.921 160.212,514.330 167.860,519.910 172.249 C 523.391 174.987,526.864 175.787,535.282 175.787 L 546.156 175.787 545.718 296.533 L 545.280 417.280 465.493 417.724 L 385.707 418.167 385.707 296.977 L 385.707 175.787 430.636 175.787 L 475.565 175.787 479.489 171.610 C 484.372 166.412,484.526 159.555,479.858 155.206 C 476.519 152.095,473.471 151.893,429.725 151.895 C 386.448 151.896,382.654 152.140,376.190 155.340 M640.000 342.187 L 640.000 464.213 559.787 464.213 L 479.573 464.213 479.573 453.120 L 479.573 442.027 514.160 442.027 C 544.323 442.027,549.507 441.629,554.693 438.914 C 563.567 434.269,568.320 423.759,568.320 408.785 L 568.320 396.747 588.917 376.293 C 615.055 350.338,618.667 344.524,618.667 328.399 C 618.667 317.934,617.977 315.203,613.506 307.972 C 610.668 303.382,605.038 297.301,600.995 294.459 C 594.606 289.969,591.876 289.212,580.129 288.679 L 566.613 288.065 566.613 255.001 L 566.613 221.936 602.027 221.438 C 621.504 221.164,638.016 220.765,638.720 220.550 C 639.424 220.336,640.000 275.072,640.000 342.187 M434.752 262.875 C 419.962 280.738,407.676 295.970,407.450 296.725 C 406.963 298.355,460.581 363.520,462.409 363.520 C 463.631 363.520,467.252 359.304,502.199 317.191 L 518.693 297.316 491.296 264.285 C 476.228 246.117,463.392 231.061,462.772 230.825 C 462.152 230.590,449.543 245.012,434.752 262.875 M474.397 281.155 C 480.999 289.358,486.400 296.571,486.400 297.183 C 486.400 299.036,462.414 326.827,460.815 326.827 C 458.800 326.827,436.649 298.571,437.268 296.790 C 437.731 295.460,461.228 266.559,462.024 266.341 C 462.227 266.286,467.795 272.952,474.397 281.155 M591.531 314.709 C 596.339 319.517,597.333 321.776,597.333 327.884 C 597.333 334.872,596.600 335.969,583.253 348.961 L 569.173 362.667 568.680 341.333 C 568.106 316.503,568.612 313.521,573.830 311.006 C 580.743 307.674,585.488 308.667,591.531 314.709 M564.907 644.515 L 564.907 700.230 581.810 699.298 C 623.647 696.993,644.248 705.262,652.863 727.820 C 656.716 737.910,655.624 755.755,650.545 765.702 C 637.784 790.692,598.643 796.888,567.163 778.901 C 563.241 776.660,559.593 774.827,559.056 774.827 C 558.519 774.827,558.080 781.231,558.080 789.059 C 558.080 802.798,558.237 803.364,562.600 805.352 C 584.439 815.302,623.806 814.493,646.367 803.631 C 656.014 798.986,669.812 786.370,675.083 777.375 C 680.993 767.292,684.939 747.506,683.551 734.914 C 679.383 697.082,652.029 675.941,607.147 675.865 L 592.213 675.840 592.213 644.267 L 592.213 612.693 633.173 612.693 L 674.133 612.693 674.133 600.747 L 674.133 588.800 619.520 588.800 L 564.907 588.800 564.907 644.515 M339.627 699.733 L 339.627 808.960 354.133 808.960 L 368.640 808.960 368.640 759.467 L 368.640 709.973 424.107 709.973 L 479.573 709.973 479.573 759.467 L 479.573 808.960 493.227 808.960 L 506.880 808.960 506.880 699.733 L 506.880 590.507 493.254 590.507 L 479.627 590.507 479.174 637.867 L 478.720 685.227 423.680 685.677 L 368.640 686.127 368.640 638.317 L 368.640 590.507 354.133 590.507 L 339.627 590.507 339.627 699.733"
    fill-rule="evenodd"
  />
</svg>
