<svg class="icon" viewBox="0 0 1785 1024" xmlns="http://www.w3.org/2000/svg">
  <path
    d="M231.692 148.138 C 212.165 158.339,199.059 177.519,197.211 198.598 C 195.731 215.490,251.474 811.627,256.075 828.105 C 259.765 841.321,277.417 861.629,299.293 877.826 C 316.071 890.248,453.026 959.643,518.799 989.050 C 541.893 999.375,571.958 1011.512,585.610 1016.022 C 608.233 1023.495,611.793 1023.917,625.773 1020.783 C 647.531 1015.905,701.116 991.999,752.945 964.047 L 797.347 940.100 1018.022 940.100 C 1236.817 940.100,1238.807 940.046,1251.732 933.790 C 1271.055 924.435,1280.737 908.170,1280.737 885.062 C 1280.737 848.392,1258.423 830.076,1213.604 829.960 C 1183.970 829.882,1167.968 823.946,1156.355 808.720 C 1145.754 794.822,1142.442 778.087,1146.854 760.711 C 1150.626 745.857,1156.226 738.118,1170.663 727.810 C 1179.168 721.737,1183.709 721.365,1267.350 719.896 C 1364.307 718.194,1366.833 717.718,1381.459 698.384 C 1390.490 686.447,1396.094 666.403,1393.489 655.355 C 1390.008 640.594,1379.391 624.613,1368.613 617.909 C 1358.300 611.495,1355.506 611.332,1230.163 609.875 L 1102.237 608.388 1089.302 600.982 C 1067.851 588.701,1056.302 562.888,1062.298 540.622 C 1069.275 514.713,1084.163 503.194,1118.318 497.283 C 1147.435 492.243,1164.217 477.388,1170.407 451.171 C 1175.878 428.003,1155.934 396.738,1131.325 389.904 C 1125.095 388.174,1091.559 386.776,1056.072 386.767 L 992.056 386.750 997.113 313.119 C 1004.166 210.409,1004.060 193.117,996.278 177.638 C 987.625 160.424,982.506 155.195,966.230 146.941 L 952.198 139.825 599.901 139.825 L 247.604 139.825 231.692 148.138 M926.161 203.165 C 932.147 207.731,938.449 214.090,940.165 217.296 C 943.254 223.069,940.025 223.125,605.322 223.125 C 368.816 223.125,265.555 224.090,261.350 226.341 C 258.045 228.110,254.776 228.992,254.085 228.302 C 251.104 225.321,267.439 206.284,278.250 200.140 L 290.063 193.428 602.670 194.145 L 915.277 194.863 926.161 203.165 M877.102 287.915 L 886.004 299.154 879.569 518.243 C 876.030 638.742,872.471 737.969,871.661 738.747 C 868.548 741.735,612.961 910.350,611.544 910.350 C 610.721 910.350,609.674 892.612,609.218 870.931 C 608.390 831.627,608.366 831.510,601.098 830.484 C 590.631 829.007,414.120 720.633,412.338 714.588 C 408.594 701.894,401.625 658.634,401.625 648.086 C 401.625 615.200,449.741 612.138,456.759 644.578 C 457.763 649.217,461.498 661.549,465.061 671.982 L 471.538 690.952 532.525 724.777 C 568.703 744.842,596.841 758.607,601.694 758.613 L 609.875 758.625 609.875 655.988 L 609.875 553.350 524.917 553.350 C 434.727 553.350,418.415 551.501,407.665 540.058 C 401.412 533.402,401.329 531.843,402.214 436.745 L 403.113 340.189 411.491 327.536 C 426.567 304.766,432.236 303.591,527.319 303.515 L 609.875 303.450 609.875 290.063 L 609.875 276.675 739.038 276.675 L 868.200 276.675 877.102 287.915 M474.440 364.128 C 460.202 370.331,458.150 378.850,458.150 431.744 L 458.150 479.433 466.846 488.129 L 475.542 496.825 542.709 496.825 L 609.875 496.825 609.875 428.400 L 609.875 359.975 546.656 360.091 C 501.108 360.175,480.923 361.304,474.440 364.128"
    fill="#e5eaef"
    fill-rule="evenodd"
  />
</svg>
