<svg class="icon" viewBox="0 0 1024 1024" xmlns="http://www.w3.org/2000/svg">
  <path
    d="M365.189 149.549 C 355.312 150.878,339.952 153.696,331.056 155.812 L 314.880 159.657 306.774 174.122 C 286.368 210.533,265.479 269.531,252.858 326.400 L 249.544 341.333 325.305 341.333 L 401.067 341.333 401.067 244.053 L 401.067 146.773 392.107 146.953 C 387.179 147.051,375.066 148.219,365.189 149.549 M428.373 244.053 L 428.373 341.333 504.353 341.333 L 580.332 341.333 579.499 337.493 C 570.541 296.201,558.945 256.650,546.601 225.280 C 537.953 203.305,520.899 168.369,516.037 162.666 C 513.710 159.937,508.259 157.953,495.787 155.296 C 477.999 151.507,443.674 146.773,433.985 146.773 L 428.373 146.773 428.373 244.053 M262.533 178.137 C 201.121 205.795,150.677 245.518,112.528 296.260 C 101.865 310.443,83.627 338.329,83.627 340.450 C 83.627 340.936,114.716 341.333,152.714 341.333 L 221.802 341.333 222.593 337.493 C 233.628 283.942,252.170 227.681,271.440 189.281 C 276.205 179.785,279.826 171.737,279.487 171.398 C 279.147 171.058,271.518 174.091,262.533 178.137 M558.480 189.016 C 575.831 224.264,592.128 271.704,602.564 317.341 C 605.474 330.066,608.056 340.679,608.303 340.925 C 608.550 341.172,638.869 341.172,675.680 340.927 L 742.610 340.480 733.000 325.120 C 717.068 299.656,700.108 278.481,677.587 255.937 C 645.976 224.293,612.364 200.402,574.293 182.516 C 548.043 170.184,549.013 169.785,558.480 189.016 M62.615 384.584 C 49.293 419.388,40.566 457.050,37.934 491.093 L 36.582 508.587 121.274 508.587 L 205.967 508.587 207.097 476.587 C 208.162 446.426,211.021 413.631,214.947 386.560 C 215.899 379.989,216.694 373.269,216.713 371.627 C 216.745 368.828,212.097 368.640,142.732 368.640 L 68.718 368.640 62.615 384.584 M244.919 370.773 C 241.661 380.237,233.813 467.300,233.813 493.973 L 233.813 508.587 317.440 508.587 L 401.067 508.587 401.067 438.613 L 401.067 368.640 323.360 368.640 C 262.724 368.640,245.492 369.109,244.919 370.773 M428.373 438.613 L 428.373 508.587 512.000 508.587 L 595.627 508.587 595.620 491.093 C 595.608 460.980,587.647 375.384,584.364 370.072 C 583.877 369.284,548.580 368.640,505.926 368.640 L 428.373 368.640 428.373 438.613 M613.265 375.021 C 618.479 408.033,622.933 459.051,622.933 485.748 C 622.933 495.340,623.400 504.402,623.969 505.887 C 624.894 508.297,633.847 508.587,707.473 508.587 L 789.940 508.587 789.103 498.773 C 785.835 460.437,776.589 419.215,764.284 388.130 L 756.907 369.493 684.579 369.048 L 612.251 368.603 613.265 375.021 M36.558 541.440 C 36.989 543.552,37.806 551.424,38.374 558.933 C 40.552 587.702,53.604 638.922,65.765 666.421 L 69.930 675.840 143.576 675.840 L 217.222 675.840 216.112 666.880 C 209.525 613.733,206.517 578.179,206.511 553.387 L 206.507 537.600 121.141 537.600 L 35.775 537.600 36.558 541.440 M234.392 564.594 C 235.818 599.167,241.313 654.796,245.002 672.000 L 245.825 675.840 323.446 675.840 L 401.067 675.840 401.067 606.720 L 401.067 537.600 317.173 537.600 L 233.280 537.600 234.392 564.594 M428.373 606.720 L 428.373 675.840 506.606 675.840 L 584.840 675.840 586.931 659.200 C 591.838 620.163,593.946 596.374,595.021 567.893 L 596.165 537.600 512.269 537.600 L 428.373 537.600 428.373 606.720 M622.343 569.600 C 621.260 600.281,617.971 637.511,614.402 659.502 C 613.476 665.202,612.713 671.211,612.706 672.853 C 612.694 675.651,617.236 675.840,684.293 675.840 L 755.894 675.840 759.485 667.733 C 774.242 634.417,788.480 574.809,788.480 546.341 L 788.480 537.600 705.977 537.600 L 623.473 537.600 622.343 569.600 M87.226 711.253 C 96.098 725.897,111.293 747.764,120.829 759.610 C 133.251 775.040,162.140 803.715,178.347 816.702 C 204.353 837.541,244.679 861.192,272.641 872.006 L 281.602 875.471 271.595 855.442 C 253.475 819.175,240.165 781.423,229.537 736.147 C 226.047 721.282,222.918 708.160,222.583 706.987 C 222.108 705.325,206.649 704.853,152.661 704.853 L 83.348 704.853 87.226 711.253 M250.880 707.282 C 250.880 712.970,266.908 772.942,273.826 793.139 C 286.501 830.144,309.358 879.946,316.115 885.281 C 321.602 889.612,378.866 899.413,398.687 899.413 C 400.694 899.413,401.067 884.181,401.067 802.133 L 401.067 704.853 325.973 704.853 C 262.164 704.853,250.880 705.218,250.880 707.282 M438.613 799.626 L 438.613 885.865 459.520 885.386 L 480.427 884.907 480.888 849.493 L 481.349 814.080 506.061 814.080 L 530.773 814.080 530.773 849.973 L 530.773 885.865 551.680 885.386 L 572.587 884.907 573.029 799.147 L 573.472 713.387 552.122 713.387 L 530.773 713.387 530.773 744.960 L 530.773 776.533 506.027 776.533 L 481.280 776.533 481.280 744.960 L 481.280 713.387 459.947 713.387 L 438.613 713.387 438.613 799.626 M583.680 732.160 L 583.680 750.933 606.720 750.933 L 629.760 750.933 629.760 818.347 L 629.760 885.760 650.240 885.760 L 670.720 885.760 670.720 818.347 L 670.720 750.933 715.947 750.933 L 761.173 750.933 761.173 818.399 L 761.173 885.865 782.080 885.386 L 802.987 884.907 803.433 817.920 L 803.880 750.933 826.900 750.933 L 849.920 750.933 849.920 732.160 L 849.920 713.387 716.800 713.387 L 583.680 713.387 583.680 732.160 M858.453 799.504 L 858.453 885.865 879.360 885.386 L 900.267 884.907 900.732 854.854 L 901.197 824.801 923.772 823.815 C 949.661 822.684,955.758 821.094,966.955 812.553 C 982.367 800.799,989.997 779.789,986.653 758.313 C 983.688 739.266,975.385 726.949,960.000 718.774 L 951.467 714.240 904.960 713.691 L 858.453 713.142 858.453 799.504 M940.399 744.533 C 950.302 749.553,954.801 757.341,954.630 769.167 C 954.529 776.163,953.484 779.482,949.908 784.170 C 942.242 794.222,937.168 795.888,911.787 796.692 L 889.173 797.409 889.173 769.051 L 889.173 740.693 910.998 740.693 C 930.249 740.693,933.717 741.146,940.399 744.533"
    fill-rule="evenodd"
  />
</svg>
