<svg class="icon" viewBox="0 0 1024 1024" xmlns="http://www.w3.org/2000/svg">
  <path
    d="M459.093 49.726 C 236.320 72.549,62.394 244.583,36.599 467.627 C 33.135 497.578,34.036 557.549,38.354 584.533 C 52.119 670.536,80.183 737.645,130.422 804.693 C 147.561 827.566,187.509 868.617,209.920 886.386 C 279.885 941.858,361.277 976.166,449.269 987.275 C 474.558 990.468,526.659 990.918,552.107 988.164 C 645.458 978.062,734.354 941.194,804.198 883.613 C 828.443 863.625,863.282 827.369,881.154 803.527 C 975.967 677.041,1001.913 517.485,951.995 367.879 C 949.159 359.380,946.589 352.160,946.284 351.833 C 945.726 351.237,938.973 353.632,913.368 363.507 L 899.541 368.839 902.684 376.846 C 912.012 400.616,921.615 444.195,925.107 478.601 C 927.660 503.761,926.304 558.935,922.546 582.827 C 911.188 655.041,880.583 724.666,834.776 782.507 C 820.282 800.808,789.537 831.695,770.560 847.019 C 708.653 897.010,629.096 929.873,548.693 938.666 C 525.499 941.202,477.347 940.730,454.555 937.742 C 370.022 926.661,293.988 893.139,231.253 839.294 C 112.219 737.128,60.494 581.395,93.919 425.813 C 106.094 369.146,137.674 303.742,176.254 255.298 C 247.202 166.208,352.287 109.784,467.627 98.849 C 493.369 96.409,541.229 97.711,566.613 101.543 C 592.197 105.405,622.398 112.970,645.120 121.209 C 655.915 125.123,666.231 128.444,668.046 128.589 C 670.701 128.802,673.094 124.858,680.309 108.373 C 685.239 97.109,689.322 87.075,689.383 86.074 C 689.525 83.737,651.142 69.909,626.075 63.266 C 602.125 56.920,573.345 51.810,548.693 49.528 C 526.740 47.495,479.859 47.599,459.093 49.726 M812.373 64.931 C 758.391 78.859,721.929 125.756,721.537 181.760 C 721.106 243.514,766.015 294.095,828.726 302.486 C 845.754 304.764,864.085 302.602,882.607 296.131 C 950.672 272.350,983.054 192.281,950.607 127.989 C 925.165 77.577,866.708 50.911,812.373 64.931 M913.067 182.613 L 913.067 201.387 843.093 201.387 L 773.120 201.387 773.120 182.613 L 773.120 163.840 843.093 163.840 L 913.067 163.840 913.067 182.613 M201.806 485.120 L 202.240 686.933 512.000 686.933 L 821.760 686.933 822.196 538.880 L 822.632 390.827 814.322 390.827 C 806.594 390.827,791.559 388.593,784.640 386.416 C 781.819 385.529,781.653 390.894,781.653 482.872 L 781.653 580.267 512.000 580.267 L 242.347 580.267 242.347 452.267 L 242.347 324.267 476.359 324.267 C 698.455 324.267,710.323 324.115,709.413 321.280 C 705.571 309.304,701.440 292.121,701.440 288.115 L 701.440 283.307 451.406 283.307 L 201.373 283.307 201.806 485.120 M569.173 351.620 C 564.480 352.444,553.423 356.699,544.603 361.077 C 529.127 368.758,527.961 369.056,511.323 369.554 C 484.495 370.358,469.213 377.084,451.729 395.783 C 442.999 405.119,434.494 421.388,432.480 432.605 L 431.260 439.397 445.498 424.356 C 459.232 409.846,474.225 397.821,486.120 391.775 C 490.109 389.747,486.240 394.408,473.194 407.347 C 451.338 429.023,441.328 442.600,431.084 464.467 C 414.973 498.858,413.603 528.934,427.478 543.646 C 433.582 550.118,444.860 553.750,453.818 552.128 C 463.333 550.406,476.745 543.724,484.192 536.997 L 490.960 530.882 507.880 531.854 C 526.925 532.948,544.569 530.056,557.873 523.660 C 573.446 516.173,590.897 494.238,594.645 477.440 L 595.692 472.747 568.779 472.757 L 541.867 472.768 539.029 477.757 C 534.632 485.485,526.689 488.828,512.558 488.899 C 502.835 488.947,499.323 488.237,495.491 485.447 C 490.014 481.458,482.987 468.843,482.987 462.998 L 482.987 459.093 540.160 459.093 L 597.333 459.093 597.304 450.987 C 597.260 439.055,593.097 421.429,587.737 410.482 C 582.187 399.149,564.157 381.329,553.319 376.466 C 549.313 374.668,546.300 372.364,546.623 371.346 C 546.945 370.327,551.333 367.257,556.374 364.523 C 563.620 360.592,567.819 359.521,576.439 359.403 C 586.923 359.259,587.563 359.497,593.190 365.628 C 598.736 371.672,599.039 372.647,599.020 384.402 C 599.009 391.221,597.885 400.988,596.523 406.107 C 595.160 411.226,594.289 415.658,594.587 415.956 C 594.885 416.254,597.316 411.682,599.990 405.795 C 605.570 393.513,607.435 376.002,604.205 366.217 C 600.171 353.993,586.981 348.497,569.173 351.620 M528.416 408.957 C 535.236 412.194,540.608 419.092,542.094 426.523 L 543.147 431.787 524.587 431.775 C 514.379 431.768,500.926 431.281,494.692 430.692 L 483.357 429.621 484.838 424.457 C 486.688 418.004,492.519 411.565,499.200 408.596 C 506.289 405.445,521.409 405.632,528.416 408.957 M453.754 508.554 C 459.037 513.789,467.774 520.354,473.169 523.143 C 478.564 525.932,482.979 528.597,482.980 529.067 C 482.982 531.468,466.765 539.668,458.643 541.371 C 450.354 543.110,448.723 542.958,443.613 539.974 C 434.191 534.471,430.933 526.988,431.061 511.147 C 431.121 503.637,432.158 494.038,433.366 489.815 L 435.560 482.136 439.855 490.586 C 442.216 495.233,448.471 503.318,453.754 508.554 M498.347 721.067 L 498.347 740.693 437.760 740.693 L 377.173 740.693 377.173 761.173 L 377.173 781.653 512.000 781.653 L 646.827 781.653 646.827 761.173 L 646.827 740.693 586.240 740.693 L 525.653 740.693 525.653 721.067 L 525.653 701.440 512.000 701.440 L 498.347 701.440 498.347 721.067"
    fill-rule="evenodd"
  />
</svg>
