<svg class="icon" viewBox="0 0 1024 1024" xmlns="http://www.w3.org/2000/svg">
  <path
    d="M529.920 104.533 C 529.510 105.707,514.706 189.058,497.021 289.760 L 464.867 472.852 483.628 472.373 L 502.388 471.893 534.394 291.840 C 551.998 192.811,566.813 109.675,567.318 107.093 L 568.235 102.400 549.450 102.400 C 535.959 102.400,530.456 103.001,529.920 104.533 M290.987 207.925 L 202.240 260.358 202.240 290.105 L 202.240 319.853 292.267 373.128 L 382.293 426.404 382.293 391.861 L 382.293 357.319 320.680 324.047 C 286.793 305.748,259.085 290.132,259.108 289.346 C 259.130 288.561,286.664 273.614,320.294 256.131 L 381.440 224.345 381.902 189.826 C 382.156 170.840,381.772 155.348,381.049 155.399 C 380.325 155.451,339.797 179.087,290.987 207.925 M650.240 189.279 L 650.240 223.252 712.533 256.210 C 746.795 274.336,774.827 289.591,774.827 290.109 C 774.827 290.628,746.808 306.013,712.562 324.299 L 650.298 357.547 650.269 392.203 L 650.240 426.860 656.845 422.923 C 660.478 420.758,701.172 396.715,747.276 369.493 L 831.102 320.000 830.698 290.263 L 830.293 260.527 740.882 207.917 C 691.706 178.981,651.194 155.307,650.856 155.307 C 650.517 155.307,650.240 170.594,650.240 189.279 M75.093 680.960 L 75.093 853.333 95.573 853.333 L 116.053 853.333 116.053 680.960 L 116.053 508.587 95.573 508.587 L 75.093 508.587 75.093 680.960 M121.173 681.013 L 121.173 853.438 142.080 852.959 L 162.987 852.480 163.432 779.520 L 163.877 706.560 206.525 706.560 L 249.173 706.560 249.173 677.547 L 249.173 648.533 206.507 648.533 L 163.840 648.533 163.840 607.573 L 163.840 566.613 213.333 566.613 L 262.827 566.613 262.827 709.973 L 262.827 853.333 283.307 853.333 L 303.787 853.333 303.787 781.653 L 303.787 709.973 315.049 709.973 C 329.926 709.973,336.772 713.377,343.913 724.325 C 350.384 734.245,354.808 744.348,380.231 807.253 L 398.510 852.480 428.759 852.946 C 458.982 853.411,459.009 853.408,459.941 849.533 C 461.570 842.755,476.160 776.122,476.160 775.461 C 476.160 775.112,494.839 774.827,517.668 774.827 L 559.176 774.827 567.308 810.240 C 571.781 829.717,575.845 847.397,576.340 849.527 L 577.240 853.401 612.460 852.941 L 647.680 852.480 648.269 722.773 L 648.859 593.067 668.353 721.067 C 679.075 791.467,688.193 850.027,688.617 851.200 C 689.171 852.737,694.833 853.333,708.881 853.333 C 727.700 853.333,728.407 853.200,729.256 849.493 C 729.740 847.381,738.848 788.241,749.495 718.071 L 768.853 590.488 769.291 721.911 L 769.728 853.333 789.344 853.333 L 808.960 853.333 808.960 680.960 L 808.960 508.587 777.600 508.587 L 746.240 508.587 745.369 513.280 C 744.889 515.861,736.552 568.131,726.842 629.434 C 717.132 690.737,708.894 740.014,708.535 738.939 C 708.176 737.863,699.664 685.785,689.618 623.211 L 671.353 509.440 640.326 508.975 L 609.300 508.510 608.863 651.232 L 608.427 793.954 574.108 651.697 L 539.790 509.440 517.623 508.966 L 495.456 508.491 491.122 526.886 C 488.738 537.003,473.527 601.851,457.320 670.994 L 427.852 796.708 416.136 767.520 C 403.035 734.880,399.157 727.510,386.942 712.030 C 382.279 706.121,378.750 701.074,379.099 700.813 C 379.448 700.552,383.565 698.917,388.248 697.179 C 405.520 690.770,420.509 670.428,427.866 643.413 C 432.576 626.119,432.101 582.220,427.011 564.379 C 419.676 538.672,408.077 522.263,392.505 515.564 C 378.701 509.626,357.286 508.677,235.947 508.631 L 121.173 508.587 121.173 681.013 M814.873 510.702 C 814.422 511.885,814.251 589.269,814.493 682.667 L 814.933 852.480 893.867 852.924 L 972.800 853.367 972.800 824.337 L 972.800 795.307 914.773 795.307 L 856.747 795.307 856.747 748.373 L 856.747 701.440 908.800 701.440 L 960.853 701.440 960.853 672.427 L 960.853 643.413 908.800 643.413 L 856.747 643.413 856.747 605.013 L 856.747 566.613 913.108 566.613 L 969.469 566.613 969.001 538.027 L 968.533 509.440 892.113 508.996 C 831.888 508.646,815.519 509.007,814.873 510.702 M371.992 570.848 C 383.537 576.818,387.960 587.667,388.053 610.243 C 388.117 625.573,387.623 628.443,383.459 636.955 C 380.893 642.200,376.812 647.789,374.392 649.375 C 369.039 652.882,341.576 655.715,319.824 655.003 L 304.640 654.507 304.184 610.316 L 303.728 566.126 335.692 567.366 C 356.487 568.173,369.171 569.389,371.992 570.848 M531.894 655.360 L 545.608 716.800 517.711 716.800 C 502.367 716.800,489.803 716.224,489.791 715.520 C 489.728 711.940,516.294 593.920,517.163 593.920 C 517.722 593.920,524.350 621.568,531.894 655.360"
    fill-rule="evenodd"
  />
</svg>
