<svg class="icon" viewBox="0 0 2131 1024" xmlns="http://www.w3.org/2000/svg">
  <path
    d="M67.459 3.304 C 41.025 11.389,19.091 30.930,7.382 56.827 C 0.264 72.571,0.156 78.319,0.156 442.183 C 0.156 806.046,0.264 811.794,7.382 827.538 C 16.228 847.103,32.619 864.703,51.499 874.909 L 65.706 882.589 914.438 883.506 C 1855.320 884.523,1781.068 886.375,1810.538 861.150 C 1818.455 854.374,1828.669 841.242,1833.236 831.968 L 1841.539 815.108 1842.508 449.586 C 1843.575 47.186,1844.297 61.697,1821.866 34.625 C 1815.794 27.298,1803.353 16.909,1794.218 11.539 L 1777.609 1.776 926.985 1.178 C 459.142 0.850,72.355 1.806,67.459 3.304 M1768.927 60.484 C 1787.048 70.182,1786.488 58.009,1786.488 442.183 C 1786.488 826.356,1787.048 814.183,1768.927 823.881 C 1764.295 826.360,1490.717 827.538,919.842 827.538 L 77.590 827.538 67.208 817.157 L 56.827 806.775 56.827 442.182 L 56.827 77.590 67.208 67.208 L 77.590 56.827 919.842 56.827 C 1490.717 56.827,1764.295 58.005,1768.927 60.484 M396.011 250.119 C 368.133 262.614,355.357 287.319,355.245 328.949 L 355.167 357.783 340.108 359.803 C 321.391 362.313,312.547 372.349,312.547 391.077 C 312.547 408.413,321.138 417.524,340.584 420.809 L 355.167 423.273 355.167 508.434 C 355.167 594.795,356.341 603.668,369.066 613.437 C 375.997 618.759,399.380 619.288,408.638 614.333 C 424.414 605.890,426.200 594.904,426.200 506.289 L 426.200 422.648 436.624 422.648 C 450.286 422.648,465.317 416.778,471.081 409.190 C 473.620 405.848,475.748 397.048,475.810 389.634 C 475.974 370.108,463.645 358.718,442.344 358.718 L 426.200 358.718 426.200 336.343 C 426.200 311.010,429.761 305.443,445.966 305.443 C 462.446 305.443,475.923 293.474,475.923 278.839 C 475.923 262.066,472.957 256.205,461.463 250.261 C 448.886 243.758,410.390 243.674,396.011 250.119 M235.496 278.496 L 225.531 287.065 224.535 441.472 L 223.540 595.879 232.842 606.935 C 240.901 616.512,244.450 617.990,259.389 617.990 C 272.496 617.990,279.025 615.934,286.599 609.421 L 296.564 600.852 297.647 459.363 C 298.242 381.544,297.765 311.223,296.588 303.093 C 293.535 282.015,280.477 269.927,260.761 269.927 C 249.710 269.927,242.694 272.306,235.496 278.496 M516.072 362.114 C 508.261 366.877,504.048 372.686,502.561 380.747 C 501.372 387.189,500.886 439.082,501.480 496.065 L 502.561 599.671 511.171 608.830 C 523.889 622.360,547.253 621.792,561.437 607.608 L 571.818 597.226 571.818 531.071 C 571.818 449.387,571.650 449.817,611.551 429.845 C 627.578 421.824,642.942 413.393,645.693 411.109 C 661.773 397.764,655.610 370.097,634.292 359.931 C 623.529 354.799,619.710 354.591,606.865 358.440 C 598.657 360.899,587.515 367.337,582.104 372.748 L 572.268 382.584 568.156 372.658 C 561.068 355.546,535.375 350.344,516.072 362.114 M761.832 360.135 C 738.775 367.427,726.852 374.950,710.865 392.294 C 694.172 410.404,684.886 429.321,678.831 457.555 C 664.311 525.258,695.987 595.309,748.796 612.284 C 789.164 625.259,816.996 622.652,844.409 603.328 C 854.540 596.186,859.503 594.308,859.503 597.616 C 859.503 600.327,863.202 606.020,867.723 610.268 C 879.581 621.407,903.078 620.909,914.716 609.272 L 923.433 600.555 923.433 488.242 L 923.433 375.930 912.614 365.110 C 903.344 355.841,899.963 354.588,889.018 356.364 C 875.408 358.573,859.503 370.871,859.503 379.187 C 859.503 382.552,855.692 380.997,847.960 374.478 C 841.612 369.125,831.275 362.590,824.989 359.956 C 810.896 354.050,780.802 354.136,761.832 360.135 M985.587 358.524 C 981.681 360.123,975.288 364.985,971.381 369.327 C 964.595 376.869,964.278 382.222,964.278 489.035 L 964.278 600.847 974.243 609.418 C 988.428 621.620,1011.383 621.346,1023.149 608.834 C 1031.616 599.831,1031.789 598.342,1033.535 519.155 C 1034.770 463.161,1036.695 436.208,1039.856 430.676 C 1051.605 410.113,1086.586 406.611,1104.222 424.232 L 1113.447 433.449 1115.298 514.176 C 1117.208 597.468,1118.855 606.878,1132.830 614.357 C 1145.931 621.369,1166.573 618.720,1175.870 608.834 C 1184.317 599.853,1184.516 598.185,1186.333 520.931 C 1188.342 435.503,1190.277 426.262,1208.082 417.054 C 1234.202 403.547,1262.390 417.892,1268.123 447.611 C 1269.808 456.346,1271.257 494.025,1271.342 531.343 C 1271.495 598.343,1271.606 599.312,1280.206 608.592 C 1286.905 615.820,1292.289 617.990,1303.526 617.990 C 1338.633 617.990,1342.530 608.368,1342.530 521.674 C 1342.530 484.134,1340.752 443.211,1338.580 430.735 C 1330.766 385.864,1301.805 359.742,1255.823 356.091 C 1228.703 353.938,1209.520 359.046,1186.465 374.560 L 1168.404 386.715 1159.550 377.860 C 1130.424 348.734,1075.557 347.360,1038.286 374.822 C 1031.100 380.117,1030.455 380.007,1028.267 373.113 C 1023.980 359.604,1001.621 351.962,985.587 358.524 M1457.199 360.319 C 1412.238 374.371,1383.524 406.430,1371.155 456.389 C 1355.831 518.280,1384.449 584.734,1436.214 607.460 C 1488.115 630.245,1568.050 620.300,1598.739 587.238 C 1610.825 574.218,1613.928 563.455,1608.522 553.306 C 1597.674 532.943,1586.502 531.997,1552.024 548.520 C 1519.401 564.154,1495.188 567.474,1474.414 559.162 C 1458.197 552.673,1438.425 530.065,1438.425 518.010 C 1438.425 511.809,1442.991 511.440,1519.720 511.440 C 1594.298 511.440,1601.703 510.882,1609.349 504.692 C 1615.734 499.521,1617.596 494.632,1617.311 483.776 C 1616.727 461.517,1603.013 422.498,1589.207 403.817 C 1560.162 364.515,1503.507 345.847,1457.199 360.319 M1519.032 418.940 C 1532.588 427.206,1540.505 438.479,1543.591 453.911 L 1545.863 465.268 1489.983 465.268 L 1434.103 465.268 1436.424 455.501 C 1444.832 420.125,1488.951 400.598,1519.032 418.940 M824.042 425.731 C 863.543 446.908,863.909 528.803,824.605 551.699 C 809.670 560.399,789.132 560.502,774.653 551.949 C 750.331 537.582,738.788 491.272,750.996 457.042 C 762.789 423.976,795.007 410.165,824.042 425.731"
    fill-rule="evenodd"
  />
</svg>
