<svg class="icon" viewBox="0 0 1024 1024" xmlns="http://www.w3.org/2000/svg">
  <path
    d="M0.000 512.000 L 0.000 1024.000 512.000 1024.000 L 1024.000 1024.000 1024.000 512.000 L 1024.000 0.000 512.000 0.000 L 0.000 0.000 0.000 512.000 M348.272 112.700 C 351.285 114.313,351.573 116.474,351.573 137.464 L 351.573 160.461 274.347 160.017 L 197.120 159.573 196.625 139.947 C 196.061 117.627,196.749 113.210,200.961 112.110 C 207.467 110.409,345.022 110.961,348.272 112.700 M402.567 209.087 L 444.174 240.640 274.709 240.640 C 181.504 240.640,105.633 240.252,106.107 239.777 C 106.582 239.302,125.334 225.113,147.779 208.246 L 188.587 177.578 274.773 177.557 L 360.960 177.535 402.567 209.087 M183.919 311.040 L 184.371 361.813 134.852 361.813 L 85.333 361.813 85.333 310.587 L 85.333 259.361 134.400 259.814 L 183.467 260.267 183.919 311.040 M337.920 310.613 L 337.920 361.813 269.653 361.813 L 201.387 361.813 201.387 310.613 L 201.387 259.413 269.653 259.413 L 337.920 259.413 337.920 310.613 M464.213 310.613 L 464.213 361.813 410.453 361.813 L 356.693 361.813 356.693 310.613 L 356.693 259.413 410.453 259.413 L 464.213 259.413 464.213 310.613 M442.795 382.198 C 441.903 383.084,423.188 397.292,401.205 413.771 L 361.237 443.733 274.773 443.733 L 188.310 443.733 148.342 413.771 C 126.359 397.292,107.644 383.084,106.752 382.198 C 105.735 381.187,168.389 380.587,274.773 380.587 C 381.158 380.587,443.811 381.187,442.795 382.198 M850.322 407.040 C 852.890 408.917,856.538 413.576,858.429 417.392 C 861.701 423.996,861.867 427.602,861.867 492.067 L 861.867 559.803 685.653 559.368 L 509.440 558.933 508.987 495.787 C 508.703 456.265,509.207 429.383,510.335 423.934 C 512.104 415.383,516.749 409.222,524.800 404.746 C 527.250 403.383,572.985 402.958,686.933 403.237 C 842.642 403.619,845.742 403.691,850.322 407.040 M557.056 439.296 L 551.253 445.099 551.253 481.280 L 551.253 517.461 557.056 523.264 L 562.859 529.067 599.040 529.067 L 635.221 529.067 641.024 523.264 L 646.827 517.461 646.827 481.280 L 646.827 445.099 641.024 439.296 L 635.221 433.493 599.040 433.493 L 562.859 433.493 557.056 439.296 M730.054 438.473 L 724.480 443.453 724.480 481.280 L 724.480 519.107 730.054 524.087 L 735.627 529.067 771.611 529.067 L 807.595 529.067 813.397 523.264 L 819.200 517.461 819.200 482.384 C 819.200 458.824,818.531 445.838,817.161 442.832 C 813.319 434.400,808.807 433.493,770.672 433.493 L 735.627 433.493 730.054 438.473 M606.293 452.248 L 629.760 452.267 629.760 481.280 L 629.760 510.293 599.893 510.293 L 570.027 510.293 570.027 480.203 L 570.027 450.113 576.427 451.171 C 579.947 451.753,593.387 452.238,606.293 452.248 M778.453 452.267 L 802.133 452.267 802.133 481.280 L 802.133 510.293 772.267 510.293 L 742.400 510.293 742.400 481.564 C 742.400 465.764,742.971 452.265,743.668 451.567 C 744.366 450.870,747.150 450.742,749.855 451.283 C 752.560 451.824,765.429 452.267,778.453 452.267 M351.573 711.680 L 351.573 960.853 274.773 960.853 L 197.973 960.853 197.973 753.873 C 197.973 569.302,197.686 546.482,195.317 543.100 C 193.855 541.014,191.551 539.307,190.197 539.307 C 188.842 539.307,187.733 538.155,187.733 536.747 C 187.733 535.339,188.501 534.187,189.440 534.187 C 190.379 534.187,192.683 532.651,194.560 530.773 C 197.734 527.600,197.973 525.084,197.973 494.933 L 197.973 462.507 274.773 462.507 L 351.573 462.507 351.573 711.680 M888.006 580.466 C 890.056 581.515,893.060 584.011,894.682 586.013 C 897.420 589.393,897.635 599.421,897.692 726.187 C 897.726 801.280,898.192 864.354,898.728 866.352 C 899.264 868.350,901.558 870.829,903.825 871.862 C 907.188 873.395,907.947 875.003,907.947 880.603 C 907.947 885.446,907.222 887.467,905.483 887.467 C 904.129 887.467,901.825 889.174,900.363 891.260 C 898.182 894.374,897.707 900.938,897.707 927.953 L 897.707 960.853 777.387 960.853 L 657.067 960.853 657.067 889.734 C 657.067 825.952,656.775 818.293,654.242 815.494 C 651.575 812.547,646.485 812.373,562.823 812.373 C 505.017 812.373,473.082 812.987,470.928 814.140 C 467.744 815.844,467.627 818.475,467.627 888.380 L 467.627 960.853 418.987 960.853 L 370.347 960.853 370.347 865.280 L 370.347 769.707 621.339 769.707 C 791.090 769.707,873.400 769.135,875.632 767.940 C 878.745 766.274,878.933 763.993,878.933 727.877 L 878.933 689.581 874.240 687.168 C 871.659 685.841,858.569 680.821,845.151 676.013 C 699.180 623.707,545.436 614.379,393.594 648.616 C 381.306 651.386,371.048 653.653,370.799 653.653 C 370.550 653.653,370.347 636.757,370.347 616.107 L 370.347 578.560 627.312 578.560 C 813.209 578.560,885.309 579.087,888.006 580.466 M602.453 698.880 L 602.453 750.933 569.173 750.933 L 535.893 750.933 535.893 700.018 C 535.893 672.014,536.405 648.590,537.031 647.964 C 537.657 647.339,552.633 646.827,570.311 646.827 L 602.453 646.827 602.453 698.880 M517.120 699.733 L 517.120 750.933 484.693 750.933 L 452.267 750.933 452.267 703.351 L 452.267 655.770 474.880 652.993 C 504.346 649.374,506.861 649.092,512.427 648.789 L 517.120 648.533 517.120 699.733 M669.013 652.498 L 685.227 654.533 685.680 702.733 L 686.133 750.933 653.680 750.933 L 621.227 750.933 621.227 699.500 L 621.227 648.066 637.013 649.264 C 645.696 649.924,660.096 651.379,669.013 652.498 M433.493 705.807 L 433.493 750.933 401.920 750.933 L 370.347 750.933 370.347 711.847 L 370.347 672.760 389.547 668.329 C 418.598 661.624,430.800 659.241,432.213 659.997 C 432.917 660.373,433.493 680.988,433.493 705.807 M738.987 664.580 C 748.843 666.817,760.171 669.527,764.160 670.603 L 771.413 672.558 771.413 711.746 L 771.413 750.933 738.133 750.933 L 704.853 750.933 704.853 704.633 L 704.853 658.334 712.960 659.424 C 717.419 660.023,729.131 662.343,738.987 664.580 M811.520 684.242 C 822.784 687.915,838.720 693.360,846.933 696.342 L 861.867 701.763 861.867 726.348 L 861.867 750.933 826.027 750.933 L 790.187 750.933 790.187 714.240 C 790.187 694.059,790.379 677.550,790.613 677.554 C 790.848 677.559,800.256 680.568,811.520 684.242 M556.373 896.000 L 556.373 960.853 520.533 960.853 L 484.693 960.853 484.693 896.000 L 484.693 831.147 520.533 831.147 L 556.373 831.147 556.373 896.000 M638.293 896.000 L 638.293 960.853 606.720 960.853 L 575.147 960.853 575.147 896.000 L 575.147 831.147 606.720 831.147 L 638.293 831.147 638.293 896.000"
    fill="transparent"
    fill-rule="evenodd"
  />
</svg>
