<svg class="icon" viewBox="0 0 1024 1024" xmlns="http://www.w3.org/2000/svg">
  <path
    d="M290.133 130.331 L 70.827 257.016 70.391 407.548 L 69.955 558.080 102.391 558.080 L 134.827 558.080 134.827 426.227 L 134.827 294.374 322.133 186.095 C 425.152 126.542,510.598 77.807,512.013 77.796 C 513.428 77.784,530.132 86.772,549.133 97.768 C 568.134 108.763,584.291 117.760,585.038 117.760 C 585.786 117.760,591.142 109.504,596.941 99.413 C 602.741 89.323,609.761 77.146,612.542 72.355 L 617.599 63.643 566.226 33.955 C 537.971 17.626,513.635 4.127,512.147 3.957 C 510.658 3.786,410.752 60.655,290.133 130.331 M688.866 111.360 C 687.540 113.472,680.556 125.539,673.348 138.176 C 661.138 159.581,660.452 161.305,663.309 163.395 C 664.996 164.628,716.509 194.602,777.781 230.002 L 889.186 294.367 888.753 512.602 L 888.320 730.837 853.695 750.849 C 834.651 761.855,818.305 771.626,817.370 772.561 C 816.240 773.691,820.358 782.522,829.634 798.864 C 837.314 812.396,844.542 824.496,845.695 825.755 C 847.418 827.635,857.193 822.607,900.483 797.576 L 953.173 767.108 953.173 512.071 L 953.173 257.034 823.467 182.330 C 752.128 141.243,693.202 107.602,692.519 107.573 C 691.837 107.544,690.193 109.248,688.866 111.360 M354.133 240.213 L 197.120 330.321 196.686 511.332 L 196.251 692.343 352.644 782.651 C 438.660 832.321,509.703 873.216,510.518 873.529 C 511.333 873.842,512.000 855.718,512.000 833.255 L 512.000 792.412 530.033 791.309 C 629.257 785.238,721.059 722.952,763.741 632.743 C 828.548 495.773,773.994 332.927,640.166 263.864 C 603.825 245.110,572.348 236.621,525.257 232.872 L 512.060 231.821 511.603 190.963 L 511.147 150.105 354.133 240.213 M512.000 258.725 L 512.000 285.343 518.992 293.285 C 522.838 297.653,529.661 308.720,534.154 317.878 C 542.742 335.380,552.494 362.848,550.742 364.600 C 550.176 365.166,541.228 366.031,530.857 366.523 L 512.000 367.417 512.000 394.684 L 512.000 421.950 526.933 420.846 C 535.147 420.238,546.556 419.301,552.288 418.765 L 562.709 417.788 564.779 433.747 C 565.918 442.525,567.295 457.963,567.840 468.053 L 568.831 486.400 540.416 486.400 L 512.000 486.400 512.000 512.853 L 512.000 539.307 540.364 539.307 L 568.728 539.307 567.512 557.144 C 566.843 566.954,565.407 581.738,564.321 589.997 L 562.346 605.013 537.173 604.365 L 512.000 603.717 512.000 630.149 L 512.000 656.581 531.175 657.794 C 541.721 658.462,550.605 659.263,550.917 659.575 C 551.229 659.886,549.080 667.322,546.143 676.098 C 538.913 697.693,526.942 721.682,518.750 730.989 L 512.000 738.657 512.000 765.520 L 512.000 792.383 496.213 791.220 C 452.131 787.973,413.267 776.705,376.660 756.560 C 281.377 704.124,224.207 597.575,233.690 490.104 C 236.056 463.285,239.236 447.784,247.441 423.062 C 274.906 340.313,340.262 274.953,423.062 247.432 C 450.929 238.169,475.868 233.657,506.453 232.345 L 512.000 232.107 512.000 258.725 M506.775 290.239 C 499.715 297.299,489.787 314.759,483.210 331.683 C 475.341 351.931,471.851 363.193,473.067 364.409 C 473.544 364.887,482.499 365.767,492.967 366.366 L 512.000 367.455 512.000 327.087 C 512.000 304.885,511.616 286.720,511.147 286.720 C 510.677 286.720,508.710 288.303,506.775 290.239 M424.654 304.635 C 417.445 307.688,408.613 311.928,405.027 314.056 C 389.960 322.998,377.173 331.578,377.173 332.748 C 377.173 334.689,415.388 351.573,419.782 351.573 C 420.619 351.573,422.579 347.157,424.138 341.760 C 425.696 336.363,429.649 324.773,432.922 316.005 C 436.194 307.237,438.622 299.843,438.316 299.573 C 438.010 299.304,431.862 301.581,424.654 304.635 M613.547 310.963 C 623.515 315.916,648.533 331.704,648.533 333.041 C 648.533 334.306,614.362 349.013,607.573 350.670 C 603.574 351.647,603.112 351.040,600.203 340.976 C 598.496 335.071,594.464 323.617,591.243 315.522 C 588.022 307.427,585.387 300.376,585.387 299.855 C 585.387 298.787,603.130 305.786,613.547 310.963 M326.836 383.044 C 316.345 397.746,305.054 419.608,299.019 436.907 C 294.692 449.306,292.561 457.712,287.446 482.560 L 286.655 486.400 343.756 486.400 L 400.858 486.400 401.761 479.147 C 402.258 475.157,403.155 464.275,403.754 454.963 C 404.352 445.651,405.822 431.059,407.020 422.536 C 408.219 414.013,408.713 406.532,408.119 405.911 C 407.526 405.289,399.360 401.948,389.973 398.486 C 380.587 395.024,364.255 387.731,353.680 382.280 L 334.454 372.369 326.836 383.044 M697.051 382.886 C 713.976 406.604,727.684 438.362,732.927 466.000 C 734.382 473.673,735.574 481.210,735.574 482.749 C 735.575 485.295,730.548 485.502,679.755 485.052 C 649.054 484.779,623.770 484.392,623.570 484.192 C 623.369 483.991,622.290 472.726,621.172 459.157 C 620.054 445.588,618.227 427.815,617.112 419.660 L 615.084 404.833 628.822 400.064 C 636.378 397.441,652.544 390.154,664.747 383.871 C 676.949 377.588,687.471 372.359,688.127 372.250 C 688.784 372.142,692.799 376.928,697.051 382.886 M459.277 431.151 C 458.177 438.540,456.799 453.995,456.215 465.493 L 455.153 486.400 483.577 486.400 L 512.000 486.400 512.000 454.230 L 512.000 422.060 495.360 420.945 C 486.208 420.332,474.795 419.354,469.999 418.772 L 461.277 417.714 459.277 431.151 M735.573 541.085 C 735.573 547.258,730.315 570.514,725.979 583.521 C 720.435 600.151,708.359 624.039,697.713 639.440 L 689.150 651.827 671.828 642.672 C 662.301 637.636,647.211 630.710,638.293 627.279 C 629.376 623.849,620.517 620.408,618.607 619.632 C 615.144 618.225,615.143 618.149,618.112 592.844 C 619.750 578.886,621.574 560.747,622.165 552.533 L 623.240 537.600 679.407 537.600 C 734.822 537.600,735.573 537.647,735.573 541.085 M288.427 543.321 C 288.427 550.416,297.027 581.710,303.152 596.903 C 309.182 611.861,324.108 638.447,331.591 647.559 L 335.696 652.558 344.548 647.111 C 355.180 640.569,386.313 626.375,399.360 622.120 C 404.523 620.437,408.938 618.908,409.172 618.723 C 409.405 618.537,408.456 610.385,407.062 600.606 C 405.668 590.827,404.015 573.035,403.388 561.067 L 402.248 539.307 345.337 539.307 L 288.427 539.307 288.427 543.321 M456.160 557.653 C 456.705 567.744,458.080 583.165,459.216 591.923 C 461.155 606.874,461.501 607.784,464.881 606.840 C 466.860 606.287,478.272 605.339,490.240 604.734 L 512.000 603.633 512.000 571.470 L 512.000 539.307 483.584 539.307 L 455.169 539.307 456.160 557.653 M69.973 705.498 C 69.973 751.761,70.472 766.270,72.107 767.565 C 76.376 770.945,510.360 1020.587,511.968 1020.587 C 513.169 1020.587,769.562 873.760,772.735 871.256 C 773.126 870.947,742.985 817.520,741.677 816.204 C 741.439 815.965,689.896 845.341,627.138 881.484 C 564.380 917.628,512.569 947.200,512.002 947.200 C 511.436 947.200,426.532 898.509,323.326 838.998 L 135.680 730.797 135.224 687.958 L 134.768 645.120 102.371 645.120 L 69.973 645.120 69.973 705.498 M481.707 658.325 C 476.779 658.670,472.747 659.780,472.747 660.793 C 472.747 665.004,483.897 694.740,490.228 707.413 C 497.496 721.964,507.861 737.280,510.439 737.280 C 511.338 737.280,512.000 720.284,512.000 697.173 L 512.000 657.067 501.333 657.382 C 495.467 657.556,486.635 657.980,481.707 658.325 M406.187 676.499 C 401.024 678.659,391.922 682.901,385.960 685.926 L 375.119 691.425 385.960 699.058 C 396.270 706.319,426.694 722.169,434.673 724.437 C 438.293 725.466,438.230 725.046,432.710 711.337 C 429.574 703.547,425.320 691.605,423.258 684.800 C 421.195 677.995,418.622 672.459,417.540 672.499 C 416.459 672.538,411.349 674.338,406.187 676.499 M620.465 677.583 C 627.604 680.419,636.931 684.511,641.191 686.676 L 648.937 690.613 640.629 696.652 C 625.747 707.469,585.387 727.551,585.387 724.138 C 585.387 723.620,588.027 716.573,591.254 708.478 C 594.481 700.383,598.447 688.960,600.067 683.093 C 601.768 676.936,603.958 672.427,605.249 672.427 C 606.478 672.427,613.326 674.747,620.465 677.583"
    fill-rule="evenodd"
  />
</svg>
