<svg class="icon" viewBox="0 0 7678 1024" xmlns="http://www.w3.org/2000/svg">
  <path
    d="M120.149 157.933 C 49.379 218.807,97.279 332.713,193.648 332.713 C 249.991 332.713,312.610 267.544,301.546 220.420 C 290.436 173.099,236.935 127.967,191.950 127.967 C 171.620 127.967,139.310 141.452,120.149 157.933 M393.007 136.381 C 378.279 160.211,344.554 310.433,352.203 318.133 C 356.673 322.633,407.327 329.194,464.768 332.713 C 552.765 338.104,569.906 342.787,573.650 362.458 C 576.094 375.298,568.058 396.893,555.793 410.445 C 536.624 431.628,515.360 435.126,404.311 435.368 C 223.312 435.761,133.420 478.461,75.400 591.601 C 53.160 634.969,0.307 828.228,0.090 866.974 C -0.036 889.357,209.405 889.357,226.944 866.974 C 233.838 858.176,257.731 767.806,280.039 666.151 C 302.348 564.496,322.818 479.106,325.529 476.396 C 330.990 470.934,355.865 512.659,476.365 729.410 L 558.178 876.572 684.255 880.259 C 753.597 882.287,814.968 879.311,820.635 873.644 C 826.301 867.978,796.577 804.638,754.580 732.888 C 680.337 606.047,667.572 575.850,688.194 575.850 C 693.678 575.850,720.023 554.619,746.739 528.670 C 878.780 400.419,876.782 239.724,742.163 160.654 C 705.590 139.172,670.243 133.549,548.617 129.868 C 466.777 127.390,396.752 130.321,393.007 136.381 M1678.464 150.361 C 1672.085 162.678,1642.377 284.268,1612.445 420.562 C 1553.314 689.816,1553.410 721.918,1613.584 798.416 C 1666.918 866.219,1733.381 889.368,1874.712 889.368 C 1982.067 889.368,2012.216 884.669,2061.892 860.194 C 2243.334 770.801,2319.216 587.415,2234.546 442.938 C 2183.342 355.565,2104.428 320.211,1960.227 320.042 C 1864.947 319.930,1854.473 317.570,1860.291 297.522 C 1885.191 211.721,1894.671 161.214,1888.764 145.820 C 1883.746 132.744,1856.247 127.967,1785.987 127.967 C 1707.577 127.967,1687.943 132.056,1678.464 150.361 M3161.439 140.763 C 3155.658 144.282,3124.897 264.065,3093.081 406.946 C 3027.761 700.289,3028.542 730.217,3103.357 800.777 C 3163.847 857.825,3232.835 886.567,3312.868 888.063 L 3382.729 889.368 3405.944 812.588 C 3437.007 709.853,3436.658 708.238,3381.519 699.368 C 3285.514 683.923,3262.526 646.154,3283.945 539.060 C 3291.852 499.523,3292.830 499.068,3370.322 498.874 C 3413.431 498.766,3456.484 493.746,3465.996 487.719 C 3484.593 475.934,3522.099 335.149,3511.297 317.672 C 3507.711 311.868,3467.014 307.120,3420.861 307.120 C 3339.933 307.120,3337.238 306.095,3345.164 278.327 C 3349.684 262.492,3356.945 221.941,3361.299 188.215 L 3369.215 126.894 3270.582 130.630 C 3216.334 132.684,3167.219 137.244,3161.439 140.763 M3442.814 159.344 C 3408.820 200.304,3458.748 263.224,3503.088 235.301 C 3515.404 227.545,3527.397 211.462,3529.738 199.561 C 3539.272 151.087,3474.527 121.131,3442.814 159.344 M2637.659 321.901 C 2491.729 345.385,2390.294 416.553,2333.741 535.133 C 2268.358 672.229,2301.951 796.308,2421.783 860.323 C 2467.946 884.983,2495.475 889.354,2604.122 889.275 C 2762.445 889.160,2838.963 859.722,2922.528 766.777 C 2984.631 697.703,3027.762 576.156,3014.697 507.040 C 2988.642 369.214,2829.438 291.040,2637.659 321.901 M1083.912 338.374 C 965.383 380.654,877.422 470.505,837.811 589.763 C 806.968 682.621,821.500 747.864,887.826 814.314 C 949.160 875.764,1007.436 895.594,1126.983 895.695 C 1261.759 895.810,1336.040 867.034,1421.454 781.620 C 1477.643 725.431,1499.719 692.028,1515.267 639.672 C 1541.254 552.165,1540.556 517.484,1511.533 454.282 C 1465.857 354.814,1394.108 319.654,1238.489 320.478 C 1180.198 320.787,1110.638 328.840,1083.912 338.374 M1285.339 527.511 C 1315.627 570.752,1309.781 621.573,1269.309 666.869 C 1240.297 699.339,1220.825 708.309,1168.421 713.344 C 1114.276 718.547,1098.984 715.084,1076.405 692.505 C 1029.540 645.640,1049.771 552.926,1114.719 516.928 C 1131.539 507.605,1172.328 499.773,1205.360 499.523 C 1253.223 499.162,1269.464 504.845,1285.339 527.511 M2019.026 518.991 C 2040.019 533.695,2047.467 551.778,2047.467 588.047 C 2047.467 628.272,2039.264 644.384,2002.233 676.898 C 1920.461 748.694,1791.533 721.584,1791.533 632.594 C 1791.533 591.285,1812.215 550.264,1847.417 521.749 C 1882.102 493.653,1980.591 492.070,2019.026 518.991 M2765.413 525.996 C 2825.040 585.623,2738.272 716.613,2639.149 716.613 C 2566.917 716.613,2533.740 687.793,2533.740 625.047 C 2533.740 583.683,2541.701 565.885,2573.483 536.196 C 2624.762 488.294,2722.516 483.099,2765.413 525.996"
    fill-rule="evenodd"
  />
</svg>
