<svg class="icon" viewBox="0 0 1024 1024" xmlns="http://www.w3.org/2000/svg">
  <path
    d="M493.361 88.045 C 481.839 91.143,156.596 274.343,145.749 283.845 C 140.985 288.019,136.005 295.033,131.878 303.383 L 125.440 316.410 125.440 511.911 L 125.440 707.413 130.917 718.976 C 139.499 737.094,147.645 743.611,194.732 770.031 C 265.529 809.755,281.087 815.813,312.166 815.757 C 330.079 815.725,345.171 813.061,360.960 807.147 C 368.851 804.190,373.982 800.533,383.328 791.202 C 395.559 778.990,400.183 771.755,406.824 754.429 C 410.437 745.002,410.455 744.114,410.922 552.576 C 411.388 361.368,411.370 360.170,407.936 356.736 C 404.799 353.599,402.301 353.280,380.851 353.280 C 360.220 353.280,356.868 353.672,354.428 356.368 C 351.882 359.182,351.593 375.908,351.177 544.528 L 350.720 729.600 346.930 736.688 C 342.143 745.639,332.241 753.889,323.413 756.281 C 314.029 758.823,297.740 758.441,287.971 755.449 C 279.264 752.782,192.868 704.868,186.453 699.149 L 182.613 695.725 182.613 512.029 C 182.613 367.619,183.070 327.767,184.747 325.689 C 187.470 322.315,508.171 141.653,511.437 141.653 C 512.778 141.653,516.334 142.909,519.338 144.444 C 540.310 155.161,837.558 323.537,839.253 325.660 C 840.931 327.761,841.381 367.577,841.361 511.900 C 841.346 612.861,840.748 696.389,840.031 697.516 C 838.549 699.849,840.080 698.972,659.097 801.096 C 585.234 842.776,521.940 878.240,518.445 879.906 C 510.546 883.672,513.576 884.994,463.051 855.751 C 441.291 843.157,422.266 832.853,420.773 832.853 C 419.279 832.853,412.123 835.828,404.869 839.465 C 397.615 843.101,385.947 848.136,378.939 850.654 C 366.292 855.198,361.813 857.684,361.813 860.161 C 361.813 862.411,378.295 872.569,432.095 903.476 C 489.802 936.628,497.567 939.794,517.133 938.157 C 523.241 937.646,531.782 935.824,536.111 934.107 C 540.441 932.391,617.548 889.515,707.461 838.827 C 833.808 767.599,872.839 744.828,879.305 738.572 C 884.384 733.656,889.809 725.947,893.115 718.945 L 898.560 707.413 898.560 511.911 L 898.560 316.410 892.122 303.383 C 887.979 295.001,883.028 288.035,878.234 283.845 C 866.414 273.515,542.106 91.139,529.905 87.961 C 517.534 84.739,505.558 84.766,493.361 88.045 M567.467 344.899 C 527.319 349.183,489.880 366.063,472.200 387.851 C 448.639 416.886,445.525 462.402,465.148 490.895 C 485.487 520.426,515.135 531.460,599.893 541.039 C 652.104 546.940,673.546 551.333,689.328 559.362 C 701.858 565.737,705.398 570.940,706.175 584.125 C 706.710 593.189,706.087 596.170,701.988 604.160 C 696.028 615.779,686.974 622.183,667.168 628.790 C 655.114 632.812,648.402 633.815,625.493 635.020 C 588.729 636.953,569.882 634.804,543.012 625.616 C 525.621 619.669,520.015 615.756,512.275 604.166 C 506.386 595.347,504.423 589.880,500.761 572.100 C 499.573 566.327,493.587 564.907,470.455 564.907 C 443.441 564.907,442.027 565.743,442.027 581.712 C 442.027 611.844,458.037 641.830,483.276 658.970 C 497.105 668.361,515.030 676.568,532.892 681.686 C 570.466 692.453,642.349 692.465,683.633 681.712 C 738.653 667.381,770.701 630.190,770.314 581.120 C 770.053 548.032,754.449 522.248,726.468 508.673 C 705.489 498.494,680.276 492.684,618.667 483.831 C 551.556 474.188,532.190 469.385,522.882 460.076 C 509.534 446.729,515.776 420.699,534.630 411.080 C 549.012 403.744,560.532 400.891,581.372 399.506 C 618.572 397.035,656.959 403.259,673.142 414.387 C 682.814 421.038,690.680 432.615,694.821 446.293 C 696.810 452.864,699.644 459.200,701.119 460.373 C 702.978 461.853,711.198 462.507,727.955 462.507 C 759.914 462.507,760.883 461.505,755.201 434.347 C 749.708 408.094,730.460 380.070,709.584 367.932 C 698.254 361.344,672.156 352.306,652.440 348.143 C 632.743 343.985,590.975 342.390,567.467 344.899"
    fill-rule="evenodd"
  />
</svg>
