<svg viewBox="0 0 137 28" xmlns="http://www.w3.org/2000/svg">
  <path
    d="M15.560 1.741 C 14.537 2.573,13.700 3.327,13.700 3.416 C 13.700 3.506,14.576 4.274,15.648 5.123 C 16.996 6.192,17.681 6.601,17.874 6.454 C 19.659 5.091,21.463 3.565,21.463 3.419 C 21.463 3.226,17.796 0.232,17.558 0.230 C 17.482 0.229,16.583 0.909,15.560 1.741 M77.582 6.108 L 77.519 9.476 73.238 9.538 L 68.957 9.600 68.957 10.617 L 68.957 11.635 73.238 11.697 L 77.519 11.759 77.580 17.410 L 77.641 23.062 72.728 23.062 L 67.815 23.062 67.815 24.203 L 67.815 25.345 78.775 25.345 L 89.735 25.345 89.735 24.203 L 89.735 23.062 84.822 23.062 L 79.909 23.062 79.970 17.410 L 80.031 11.759 84.312 11.697 L 88.593 11.635 88.593 10.612 L 88.593 9.590 84.255 9.590 L 79.917 9.590 79.917 6.165 L 79.917 2.740 78.781 2.740 L 77.646 2.740 77.582 6.108 M53.017 3.911 L 53.087 4.855 54.800 5.488 C 56.180 5.999,56.424 6.157,56.056 6.301 C 55.805 6.400,55.034 6.698,54.343 6.963 C 53.163 7.416,53.083 7.496,53.017 8.289 C 52.968 8.869,53.039 9.133,53.245 9.134 C 53.410 9.134,54.837 8.668,56.417 8.099 L 59.290 7.063 62.411 8.182 L 65.532 9.301 65.532 8.357 C 65.532 7.425,65.517 7.409,64.333 6.989 C 61.749 6.074,61.800 6.194,63.705 5.501 L 65.418 4.878 65.488 3.923 L 65.558 2.968 62.403 4.078 L 59.247 5.188 56.175 4.078 C 54.486 3.468,53.068 2.968,53.025 2.968 C 52.982 2.968,52.979 3.393,53.017 3.911 M92.932 4.795 L 92.932 6.622 92.132 6.622 C 91.352 6.622,91.333 6.643,91.333 7.535 C 91.333 8.428,91.351 8.448,92.139 8.448 L 92.944 8.448 92.881 11.694 L 92.817 14.939 92.075 15.152 C 91.366 15.355,91.333 15.415,91.333 16.497 C 91.333 17.309,91.414 17.600,91.619 17.523 C 93.019 16.997,92.932 16.870,92.924 19.450 C 92.919 20.746,92.769 22.474,92.589 23.290 C 92.410 24.106,92.259 24.851,92.255 24.945 C 92.250 25.040,92.695 25.117,93.243 25.117 L 94.239 25.117 94.512 23.804 C 94.663 23.082,94.846 21.089,94.919 19.375 L 95.053 16.259 95.762 16.057 C 96.411 15.871,96.477 15.763,96.540 14.777 C 96.614 13.641,96.523 13.561,95.572 13.923 L 94.987 14.145 94.987 11.297 L 94.987 8.448 95.672 8.448 C 96.319 8.448,96.357 8.398,96.357 7.535 C 96.357 6.672,96.319 6.622,95.672 6.622 L 94.987 6.622 94.987 4.795 L 94.987 2.968 93.959 2.968 L 92.932 2.968 92.932 4.795 M97.659 13.415 C 97.604 19.160,97.482 24.143,97.388 24.489 C 97.220 25.106,97.235 25.117,98.240 25.117 L 99.263 25.117 99.408 24.057 C 99.488 23.475,99.553 20.033,99.553 16.408 L 99.553 9.818 105.947 9.818 L 112.340 9.818 112.340 6.393 L 112.340 2.968 105.050 2.968 L 97.759 2.968 97.659 13.415 M119.190 5.093 C 117.997 6.259,116.629 7.517,116.151 7.889 C 115.318 8.538,115.284 8.617,115.352 9.748 L 115.422 10.929 117.478 9.422 C 118.608 8.593,120.184 7.264,120.981 6.469 L 122.429 5.023 125.776 5.025 L 129.123 5.027 130.971 6.799 C 131.988 7.774,133.607 9.115,134.568 9.779 L 136.315 10.987 136.315 9.759 L 136.315 8.531 134.486 7.090 C 133.479 6.298,132.098 5.046,131.415 4.309 L 130.174 2.968 125.767 2.971 L 121.359 2.974 119.190 5.093 M47.836 3.553 C 45.575 3.714,43.700 3.853,43.669 3.863 C 43.637 3.873,43.612 4.307,43.612 4.826 L 43.612 5.771 45.324 5.616 L 47.037 5.461 47.037 6.955 L 47.037 8.448 45.324 8.448 L 43.612 8.448 43.612 9.476 L 43.612 10.503 45.324 10.503 L 47.037 10.503 47.037 17.810 L 47.037 25.117 47.950 25.117 L 48.863 25.117 48.863 17.810 L 48.863 10.503 50.576 10.503 L 52.288 10.503 52.288 9.476 L 52.288 8.448 50.565 8.448 L 48.842 8.448 48.910 6.907 L 48.977 5.366 50.633 5.299 L 52.288 5.232 52.288 4.214 C 52.288 3.655,52.211 3.211,52.117 3.229 C 52.023 3.246,50.096 3.392,47.836 3.553 M110.285 6.279 L 110.285 7.763 104.919 7.763 L 99.553 7.763 99.553 6.431 C 99.553 5.699,99.622 5.031,99.706 4.947 C 99.789 4.864,102.204 4.795,105.071 4.795 L 110.285 4.795 110.285 6.279 M8.137 7.615 L 6.663 8.823 11.976 13.020 C 14.897 15.329,17.382 17.249,17.498 17.287 C 17.722 17.362,28.211 9.146,28.289 8.834 C 28.315 8.732,27.708 8.146,26.939 7.532 L 25.543 6.415 21.678 9.487 C 19.552 11.176,17.709 12.558,17.582 12.558 C 17.454 12.558,15.609 11.174,13.480 9.483 L 9.611 6.407 8.137 7.615 M55.371 9.818 C 55.057 10.425,54.899 10.503,53.995 10.503 L 52.973 10.503 52.973 11.417 C 52.973 12.301,52.997 12.330,53.742 12.330 L 54.511 12.330 53.555 15.013 L 52.599 17.696 53.243 17.767 L 53.887 17.839 53.887 21.021 L 53.887 24.203 54.800 24.203 L 55.713 24.203 55.713 20.550 L 55.713 16.897 57.197 16.897 L 58.682 16.897 58.682 21.007 L 58.682 25.117 59.595 25.117 L 60.508 25.117 60.508 21.007 L 60.508 16.897 61.992 16.897 L 63.477 16.897 63.477 19.494 C 63.477 21.219,63.362 22.417,63.134 23.062 C 62.946 23.596,62.792 24.071,62.792 24.118 C 62.792 24.165,63.242 24.203,63.792 24.203 C 64.785 24.203,64.794 24.196,65.048 23.189 C 65.188 22.631,65.303 20.631,65.303 18.744 L 65.303 15.314 62.963 15.249 L 60.623 15.184 60.552 14.214 C 60.482 13.248,60.478 13.243,59.582 13.243 L 58.682 13.243 58.682 14.271 L 58.682 15.298 57.059 15.298 C 55.857 15.298,55.463 15.224,55.541 15.013 C 55.599 14.856,55.824 14.188,56.041 13.529 L 56.435 12.330 60.983 12.330 L 65.532 12.330 65.532 11.417 L 65.532 10.503 61.393 10.503 L 57.255 10.503 57.392 9.818 C 57.525 9.150,57.507 9.133,56.627 9.133 C 55.856 9.133,55.674 9.233,55.371 9.818 M118.505 10.161 L 118.505 11.188 121.588 11.188 L 124.670 11.188 124.670 13.015 L 124.670 14.842 120.446 14.842 L 116.222 14.842 116.222 15.755 L 116.222 16.668 120.446 16.668 L 124.670 16.668 124.670 19.865 L 124.670 23.062 123.099 23.062 L 121.528 23.062 121.263 21.977 C 121.117 21.381,120.846 20.353,120.659 19.694 L 120.319 18.495 119.298 18.495 C 118.736 18.495,118.277 18.521,118.277 18.554 C 118.277 18.586,118.532 19.536,118.845 20.666 C 119.157 21.795,119.414 22.796,119.415 22.890 C 119.417 22.985,118.545 23.062,117.478 23.062 L 115.537 23.062 115.537 24.089 L 115.537 25.117 125.698 25.117 L 135.858 25.117 135.858 24.089 L 135.858 23.062 133.939 23.062 L 132.020 23.062 132.569 21.065 C 132.871 19.967,133.118 18.940,133.118 18.782 C 133.118 18.596,132.774 18.495,132.143 18.495 L 131.168 18.495 130.588 20.721 L 130.007 22.948 128.360 23.015 L 126.712 23.082 126.776 19.932 L 126.839 16.782 131.120 16.720 L 135.402 16.658 135.402 15.755 L 135.402 14.852 131.120 14.790 L 126.839 14.727 126.772 12.958 L 126.706 11.188 129.912 11.188 L 133.118 11.188 133.118 10.161 L 133.118 9.133 125.812 9.133 L 118.505 9.133 118.505 10.161 M105.718 13.586 L 105.718 15.983 104.463 15.983 L 103.207 15.983 103.207 13.928 L 103.207 11.873 102.293 11.873 L 101.380 11.873 101.380 14.842 L 101.380 17.810 103.549 17.810 L 105.718 17.810 105.718 20.664 L 105.718 23.518 104.348 23.518 L 102.978 23.518 102.978 21.349 L 102.978 19.180 102.065 19.180 L 101.152 19.180 101.152 22.148 L 101.152 25.117 106.632 25.117 L 112.112 25.117 112.112 22.148 L 112.112 19.180 111.198 19.180 L 110.285 19.180 110.285 21.349 L 110.285 23.518 108.915 23.518 L 107.545 23.518 107.545 20.664 L 107.545 17.810 109.714 17.810 L 111.883 17.810 111.883 14.842 L 111.883 11.873 110.970 11.873 L 110.057 11.873 110.057 13.928 L 110.057 15.983 108.801 15.983 L 107.545 15.983 107.545 13.586 L 107.545 11.188 106.632 11.188 L 105.718 11.188 105.718 13.586 M44.423 11.702 C 44.375 11.859,44.222 13.991,44.084 16.440 C 43.946 18.889,43.769 21.740,43.691 22.776 L 43.549 24.660 44.494 24.660 C 45.094 24.660,45.441 24.556,45.445 24.375 C 45.448 24.218,45.600 21.829,45.782 19.066 C 45.964 16.303,46.116 13.452,46.118 12.730 L 46.123 11.417 45.317 11.417 C 44.871 11.417,44.471 11.544,44.423 11.702 M49.854 12.958 C 49.929 13.806,50.050 16.246,50.124 18.381 C 50.299 23.466,50.253 23.290,51.399 23.290 L 52.328 23.290 52.204 22.434 C 52.136 21.963,52.020 19.831,51.947 17.696 C 51.874 15.561,51.755 13.275,51.682 12.615 L 51.551 11.417 50.634 11.417 L 49.718 11.417 49.854 12.958 M1.556 12.981 C 0.842 13.565,0.277 14.109,0.300 14.191 C 0.354 14.382,17.087 27.628,17.448 27.767 C 17.726 27.873,34.821 14.491,34.821 14.167 C 34.821 14.068,34.237 13.512,33.524 12.931 L 32.227 11.874 25.020 17.582 C 21.056 20.721,17.708 23.290,17.580 23.290 C 17.451 23.290,14.188 20.791,10.329 17.737 C 6.469 14.682,3.208 12.124,3.083 12.052 C 2.957 11.980,2.270 12.398,1.556 12.981"
    fill="#1e80ff"
    fill-rule="evenodd"
  />
</svg>
