<svg xmlns="http://www.w3.org/2000/svg" viewBox="0 0 388.79999999999995 95.04">
  <path
    d="M18.529 21.764 C 14.016 23.204,8.474 28.858,6.512 34.025 C 4.729 38.719,4.001 50.092,5.106 55.983 C 6.728 64.632,11.840 71.452,18.315 73.608 C 25.635 76.045,35.936 74.398,38.576 70.369 C 39.599 68.808,39.602 68.573,38.616 67.068 C 37.322 65.094,36.230 65.047,32.590 66.809 C 30.684 67.731,28.517 68.170,25.860 68.170 C 20.065 68.170,16.607 65.858,13.608 59.980 C 11.384 55.620,11.340 55.384,11.349 47.693 C 11.359 38.627,12.545 34.938,16.726 30.958 C 21.886 26.048,29.703 26.090,33.852 31.051 C 35.299 32.782,37.249 32.773,38.470 31.030 C 40.108 28.692,38.358 25.132,34.443 22.838 C 30.812 20.710,23.400 20.210,18.529 21.764 M50.062 21.525 C 49.221 21.931,48.334 23.211,47.959 24.559 C 47.584 25.909,47.310 36.466,47.308 49.610 C 47.304 74.831,47.296 74.782,51.221 74.409 L 53.460 74.196 53.631 52.650 C 53.725 40.800,54.033 31.104,54.317 31.104 C 54.600 31.104,56.273 36.106,58.034 42.220 C 59.795 48.334,61.621 53.728,62.092 54.208 C 63.196 55.332,66.404 55.332,67.508 54.208 C 67.979 53.728,69.805 48.334,71.566 42.220 C 73.327 36.106,75.000 31.104,75.283 31.104 C 75.567 31.104,75.875 40.800,75.969 52.650 L 76.140 74.196 78.379 74.409 C 82.304 74.782,82.296 74.831,82.292 49.610 C 82.290 36.502,82.015 25.908,81.642 24.565 C 80.939 22.034,78.978 20.736,75.857 20.736 C 72.290 20.736,71.439 22.233,68.321 33.986 C 66.719 40.026,65.271 45.105,65.104 45.272 C 64.472 45.904,64.022 44.583,61.244 33.941 C 58.149 22.086,57.338 20.698,53.550 20.780 C 52.431 20.804,50.861 21.139,50.062 21.525 M102.518 21.513 C 99.592 22.504,94.528 28.235,93.148 32.119 C 90.686 39.047,90.232 51.501,92.147 59.616 C 93.003 63.246,95.547 68.522,97.410 70.533 C 101.076 74.489,109.260 75.930,114.347 73.517 C 121.639 70.056,125.726 58.654,124.879 44.128 C 124.262 33.536,121.021 25.988,115.668 22.680 C 112.884 20.960,105.966 20.345,102.518 21.513 M137.023 22.327 L 135.432 23.917 135.432 48.194 C 135.432 61.546,135.609 72.931,135.825 73.495 C 136.314 74.768,140.156 74.883,141.175 73.655 C 141.659 73.071,141.949 66.054,142.065 52.124 L 142.236 31.459 149.605 51.989 C 153.658 63.280,157.504 72.998,158.152 73.584 C 159.853 75.124,163.797 74.955,165.481 73.271 C 166.832 71.921,166.864 71.398,167.044 47.355 C 167.208 25.532,167.113 22.702,166.188 21.776 C 164.960 20.549,162.580 20.416,161.482 21.514 C 160.909 22.086,160.704 27.763,160.704 43.027 C 160.704 54.722,160.460 63.495,160.144 63.148 C 159.836 62.809,156.464 53.784,152.650 43.092 C 145.271 22.405,144.367 20.736,140.550 20.736 C 139.358 20.736,138.002 21.347,137.023 22.327 M188.973 21.688 C 183.957 23.476,179.860 29.264,178.274 36.806 C 177.339 41.254,177.345 54.050,178.284 58.431 C 179.413 63.694,181.261 67.455,184.197 70.462 C 187.225 73.563,189.907 74.670,194.400 74.670 C 198.998 74.670,201.767 73.488,204.747 70.255 C 209.912 64.652,211.558 58.155,211.084 45.239 C 210.837 38.502,210.445 35.703,209.295 32.464 C 205.955 23.055,197.586 18.618,188.973 21.688 M266.623 22.327 L 265.032 23.917 265.032 48.194 C 265.032 61.546,265.209 72.931,265.425 73.495 C 265.914 74.768,269.756 74.883,270.775 73.655 C 271.259 73.071,271.549 66.054,271.665 52.124 L 271.836 31.459 279.205 51.989 C 283.258 63.280,287.104 72.998,287.752 73.584 C 289.453 75.124,293.397 74.955,295.081 73.271 C 296.432 71.921,296.464 71.398,296.644 47.355 C 296.808 25.532,296.713 22.702,295.788 21.776 C 294.560 20.549,292.180 20.416,291.082 21.514 C 290.509 22.086,290.304 27.763,290.304 43.027 C 290.304 54.722,290.060 63.495,289.744 63.148 C 289.436 62.809,286.064 53.784,282.250 43.092 C 274.871 22.405,273.967 20.736,270.150 20.736 C 268.958 20.736,267.602 21.347,266.623 22.327 M312.540 22.037 C 311.762 22.350,310.814 23.187,310.434 23.897 C 309.983 24.740,309.744 33.165,309.744 48.233 C 309.744 70.493,309.789 71.325,311.053 72.589 C 312.295 73.831,313.056 73.889,325.795 73.723 L 339.228 73.548 339.441 71.309 C 339.783 67.710,338.787 67.392,327.185 67.392 C 318.505 67.392,316.953 67.241,316.617 66.367 C 316.401 65.803,316.224 61.867,316.224 57.619 L 316.224 49.896 325.898 49.896 C 336.314 49.896,337.608 49.511,337.608 46.415 C 337.608 43.679,336.604 43.416,326.138 43.416 L 316.224 43.416 316.224 36.418 C 316.224 31.838,316.493 29.150,317.002 28.642 C 317.540 28.103,320.890 27.864,327.888 27.864 C 338.725 27.864,339.552 27.634,339.552 24.624 C 339.552 21.545,338.855 21.381,325.976 21.425 C 319.365 21.448,313.319 21.723,312.540 22.037 M350.184 23.004 C 349.201 24.505,349.201 24.743,350.184 26.244 C 351.199 27.793,351.530 27.864,357.703 27.864 L 364.160 27.864 364.330 51.030 L 364.500 74.196 366.739 74.409 C 370.657 74.782,370.656 74.787,370.656 50.096 L 370.656 27.864 376.766 27.864 C 383.222 27.864,384.912 27.192,384.912 24.624 C 384.912 23.962,384.454 22.962,383.894 22.402 C 383.024 21.532,380.574 21.384,367.061 21.384 L 351.246 21.384 350.184 23.004 M113.905 30.202 C 117.203 34.017,118.248 38.426,118.186 48.276 C 118.126 57.879,116.910 62.305,113.322 65.974 C 111.606 67.730,110.835 68.040,108.189 68.040 C 102.389 68.040,98.943 62.980,97.947 53.001 C 96.803 41.536,99.281 31.335,103.916 28.422 C 107.176 26.373,111.219 27.094,113.905 30.202 M198.389 28.350 C 199.598 29.064,201.076 31.040,202.377 33.682 C 204.413 37.817,204.444 38.018,204.444 47.290 C 204.444 58.097,203.488 62.021,199.937 65.786 C 198.033 67.805,197.455 68.040,194.400 68.040 C 191.350 68.040,190.766 67.803,188.877 65.801 C 185.898 62.642,184.633 58.469,184.213 50.413 C 183.477 36.305,187.401 27.288,194.300 27.233 C 195.492 27.224,197.332 27.726,198.389 28.350 M233.741 64.160 C 229.257 67.687,232.160 74.822,238.013 74.657 C 240.529 74.586,243.648 71.432,243.648 68.959 C 243.648 67.037,242.578 64.812,241.112 63.687 C 239.498 62.447,235.601 62.697,233.741 64.160"
    fill-rule="evenodd"
  />
</svg>
