<svg class="icon" viewBox="0 0 1024 1024" xmlns="http://www.w3.org/2000/svg">
  <path
    d="M469.333 15.492 C 405.509 21.846,348.515 38.156,290.987 66.531 C 210.647 106.156,145.637 163.498,96.494 238.080 C 65.594 284.975,45.768 329.166,31.476 383.000 C -0.358 502.912,11.627 630.414,64.619 735.573 C 72.079 750.376,73.546 752.198,81.484 756.515 C 86.265 759.115,96.192 762.943,103.542 765.022 C 115.955 768.532,120.310 768.792,164.693 768.676 C 192.744 768.603,218.119 767.699,226.133 766.486 C 357.216 746.656,473.554 688.389,574.092 592.213 C 636.060 532.934,690.813 455.947,725.354 379.527 L 734.118 360.137 725.986 335.545 L 717.854 310.954 711.780 309.949 C 693.785 306.972,667.242 309.752,655.117 315.885 C 647.656 319.658,637.316 331.292,635.797 337.622 C 635.194 340.133,628.515 353.707,620.954 367.787 C 542.815 513.293,410.737 621.320,266.240 657.912 C 231.954 666.594,188.075 672.408,156.748 672.421 L 141.976 672.427 136.544 657.493 C 129.192 637.281,120.569 602.558,116.731 577.707 C 112.264 548.780,112.264 483.754,116.731 454.827 C 125.758 396.378,145.985 342.031,175.563 296.754 C 189.721 275.081,199.868 262.393,222.339 238.266 C 287.359 168.455,374.982 124.411,469.058 114.254 C 490.770 111.909,544.024 112.906,560.640 115.967 C 576.396 118.870,602.557 125.051,601.894 125.715 C 600.695 126.914,571.548 135.209,533.333 145.227 C 487.961 157.121,455.500 167.578,435.076 176.880 C 321.879 228.434,223.116 323.202,154.305 446.293 C 147.872 457.802,147.631 458.804,147.754 473.600 C 147.860 486.336,148.895 492.022,153.810 506.880 L 159.738 524.800 189.967 525.266 L 220.196 525.732 224.872 517.823 C 264.393 450.967,300.890 402.131,342.130 360.921 C 355.302 347.757,372.608 331.763,380.587 325.378 C 433.806 282.786,494.148 253.589,551.947 242.464 C 650.054 223.581,744.623 246.287,811.326 304.741 C 847.672 336.593,871.133 369.091,888.145 411.153 C 898.624 437.061,908.802 481.754,913.224 521.270 L 915.311 539.927 925.709 549.540 C 931.428 554.827,939.578 562.303,943.821 566.152 L 951.535 573.151 968.763 565.783 C 989.076 557.095,997.931 551.772,1003.930 544.642 C 1007.609 540.270,1008.528 536.982,1009.578 524.430 C 1010.985 507.606,1009.648 469.095,1006.895 447.147 C 987.722 294.273,889.305 151.517,750.080 74.630 C 700.303 47.141,635.633 25.754,578.560 17.908 C 554.888 14.653,491.781 13.258,469.333 15.492 M962.458 606.537 C 962.024 606.971,952.846 608.556,942.061 610.060 C 915.809 613.720,910.430 615.349,903.439 621.756 C 898.827 625.982,896.760 629.952,894.198 639.507 C 889.573 656.751,875.971 687.728,863.475 709.473 C 815.321 793.273,736.668 858.702,640.383 895.057 C 633.554 897.635,627.026 899.345,625.876 898.857 C 624.727 898.368,617.036 892.613,608.785 886.068 L 593.783 874.167 607.824 860.221 C 622.116 846.024,640.730 830.658,687.529 794.424 C 734.400 758.133,761.169 730.064,764.727 713.477 C 769.114 693.018,755.715 669.591,734.175 660.063 C 725.135 656.064,709.796 655.663,701.367 659.204 C 698.122 660.568,686.635 669.235,675.840 678.465 C 610.616 734.233,558.555 770.335,506.027 796.225 C 462.183 817.835,424.846 829.746,380.073 836.406 C 334.599 843.171,303.924 837.835,240.695 812.160 C 227.115 806.645,215.103 802.133,214.003 802.133 C 212.304 802.133,168.694 821.604,160.132 826.185 C 157.513 827.586,157.678 829.233,162.125 846.070 C 170.511 877.818,172.751 882.189,186.591 893.804 C 258.563 954.203,347.387 992.322,448.853 1006.353 C 475.406 1010.025,545.696 1010.525,570.027 1007.215 C 637.185 998.078,688.775 981.754,748.683 950.685 C 860.209 892.845,950.493 786.448,988.827 667.680 L 995.041 648.427 981.715 627.583 C 969.899 609.102,965.119 603.877,962.458 606.537"
    fill-rule="evenodd"
  />
</svg>
