<svg class="icon" viewBox="0 0 1024 1024" xmlns="http://www.w3.org/2000/svg">
  <path
    d="M64.853 167.690 C 64.853 246.262,88.497 329.375,130.477 398.369 C 160.867 448.315,204.213 495.049,256.000 533.701 C 288.166 557.709,309.187 577.901,324.064 599.079 C 342.453 625.257,355.249 653.670,363.062 685.672 L 367.536 704.000 368.199 792.320 L 368.861 880.640 512.000 880.640 L 655.139 880.640 655.801 792.320 C 656.462 704.237,656.475 703.952,660.865 686.080 C 668.412 655.356,681.621 625.533,698.595 600.895 C 711.060 582.803,735.100 558.226,754.230 544.019 C 788.627 518.474,794.931 513.436,810.744 498.858 C 844.264 467.958,873.518 432.256,895.068 395.951 C 910.105 370.620,916.180 358.198,927.207 330.240 C 948.407 276.492,959.147 221.833,959.147 167.690 L 959.147 143.360 938.240 143.366 C 850.857 143.390,764.465 169.425,690.347 218.069 C 663.428 235.737,646.743 249.164,623.193 272.114 C 583.412 310.881,556.653 347.370,532.587 395.668 C 527.132 406.616,520.509 421.141,517.869 427.947 C 515.229 434.752,512.588 440.320,512.000 440.320 C 511.412 440.320,508.779 434.752,506.150 427.947 C 490.661 387.856,462.019 340.394,431.737 304.640 C 417.111 287.371,385.317 256.378,368.640 243.133 C 322.487 206.479,262.696 175.817,205.653 159.550 C 171.109 149.698,124.556 143.360,86.744 143.360 L 64.853 143.360 64.853 167.690"
    fill-rule="evenodd"
  />
</svg>
