<svg class="icon" viewBox="0 0 1024 1024" xmlns="http://www.w3.org/2000/svg">
  <path
    d="M319.147 75.093 L 319.147 150.187 250.825 150.187 C 177.265 150.187,176.780 150.239,164.741 159.421 C 161.851 161.626,157.202 167.554,154.410 172.595 L 149.333 181.760 148.818 251.307 L 148.303 320.853 74.152 320.853 L 0.000 320.853 0.000 342.187 L 0.000 363.520 74.240 363.520 L 148.480 363.520 148.480 427.520 L 148.480 491.520 74.240 491.520 L 0.000 491.520 0.000 512.853 L 0.000 534.187 74.240 534.187 L 148.480 534.187 148.480 598.187 L 148.480 662.187 74.240 662.187 L 0.000 662.187 0.000 683.520 L 0.000 704.853 74.151 704.853 L 148.301 704.853 148.817 773.547 L 149.333 842.240 154.410 851.405 C 159.530 860.650,164.839 865.635,175.787 871.479 C 181.284 874.413,187.230 874.708,250.453 875.183 L 319.147 875.699 319.147 949.849 L 319.147 1024.000 341.333 1024.000 L 363.520 1024.000 363.520 949.760 L 363.520 875.520 426.667 875.520 L 489.813 875.520 489.813 949.760 L 489.813 1024.000 512.000 1024.000 L 534.187 1024.000 534.187 949.760 L 534.187 875.520 597.333 875.520 L 660.480 875.520 660.480 949.760 L 660.480 1024.000 682.667 1024.000 L 704.853 1024.000 704.853 949.849 L 704.853 875.699 773.547 875.183 C 836.770 874.708,842.716 874.413,848.213 871.479 C 859.161 865.635,864.470 860.650,869.590 851.405 L 874.667 842.240 875.199 773.547 L 875.730 704.853 949.865 704.853 L 1024.000 704.853 1024.000 683.520 L 1024.000 662.187 949.760 662.187 L 875.520 662.187 875.520 598.187 L 875.520 534.187 949.760 534.187 L 1024.000 534.187 1024.000 512.853 L 1024.000 491.520 949.760 491.520 L 875.520 491.520 875.520 427.520 L 875.520 363.520 949.760 363.520 L 1024.000 363.520 1024.000 342.187 L 1024.000 320.853 949.848 320.853 L 875.697 320.853 875.182 251.307 L 874.667 181.760 869.590 172.595 C 866.798 167.554,862.149 161.626,859.259 159.421 C 847.220 150.239,846.735 150.187,773.175 150.187 L 704.853 150.187 704.853 75.093 L 704.853 0.000 682.667 0.000 L 660.480 0.000 660.480 75.093 L 660.480 150.187 597.333 150.187 L 534.187 150.187 534.187 75.093 L 534.187 0.000 512.000 0.000 L 489.813 0.000 489.813 75.093 L 489.813 150.187 426.667 150.187 L 363.520 150.187 363.520 75.093 L 363.520 0.000 341.333 0.000 L 319.147 0.000 319.147 75.093 M819.265 196.693 C 824.941 199.555,827.399 202.055,828.917 206.507 C 832.143 215.968,832.026 813.791,828.797 821.521 C 824.123 832.706,845.279 832.000,514.560 832.000 C 272.897 832.000,212.754 831.566,206.855 829.780 C 201.768 828.239,198.505 825.889,196.195 822.100 C 192.927 816.740,192.866 811.085,192.885 512.000 C 192.900 271.841,193.355 206.457,195.036 203.093 C 196.208 200.747,199.845 197.484,203.117 195.843 C 208.714 193.036,226.925 192.858,510.358 192.856 L 811.650 192.853 819.265 196.693 M587.093 281.666 C 564.507 287.474,547.326 297.413,529.744 314.841 C 506.761 337.622,495.078 361.344,491.511 392.474 C 490.588 400.526,489.835 457.528,489.827 519.927 C 489.814 627.691,489.660 633.312,486.425 643.783 C 475.444 679.336,442.503 703.659,405.333 703.659 C 367.771 703.659,335.016 679.190,323.991 642.892 C 321.035 633.161,320.557 628.079,321.210 613.384 C 321.953 596.691,322.431 594.760,329.233 581.034 C 340.851 557.587,359.103 542.405,384.315 535.216 C 395.158 532.124,400.027 527.320,402.817 516.960 C 404.925 509.128,401.969 500.368,395.747 496.010 C 380.970 485.659,333.588 506.247,308.938 533.729 C 283.981 561.554,271.235 601.486,276.247 636.151 C 280.550 665.909,292.669 690.503,313.055 710.851 C 353.649 751.367,411.653 760.071,463.313 733.397 C 483.389 723.032,505.067 700.938,515.601 680.107 C 519.873 671.659,524.764 659.563,526.471 653.227 C 528.359 646.217,530.476 641.707,531.880 641.707 C 533.797 641.707,534.187 620.538,534.187 516.446 C 534.187 396.318,534.325 390.737,537.575 380.217 C 548.632 344.418,580.822 320.853,618.667 320.853 C 656.902 320.853,688.908 344.562,700.009 381.108 C 702.965 390.839,703.443 395.921,702.790 410.616 C 702.050 427.243,701.551 429.276,694.914 442.669 C 683.528 465.647,664.233 482.136,641.722 488.127 C 630.883 491.011,625.345 495.533,622.034 504.202 C 616.570 518.510,624.792 530.794,639.803 530.751 C 649.500 530.722,672.630 522.851,685.596 515.167 C 699.011 507.217,718.798 488.135,728.034 474.242 C 743.805 450.520,751.444 418.666,747.626 392.553 C 739.626 337.844,701.406 294.600,649.540 281.577 C 631.626 277.078,604.785 277.117,587.093 281.666"
    fill-rule="evenodd"
  />
</svg>
