<svg class="icon" viewBox="0 0 1088 1024" xmlns="http://www.w3.org/2000/svg">
  <path
    d="M440.640 55.631 C 291.901 70.877,163.139 159.948,97.962 292.679 C 72.222 345.098,58.216 397.992,54.544 456.642 C 43.908 626.550,136.897 788.156,289.410 864.818 C 409.065 924.962,549.976 925.732,670.027 866.896 C 783.259 811.402,867.501 707.209,897.373 585.707 C 906.903 546.949,909.318 525.798,909.279 481.440 C 909.239 436.343,906.715 415.243,896.676 376.071 C 852.345 203.105,704.416 75.029,527.298 56.265 C 511.002 54.539,455.273 54.131,440.640 55.631 M630.205 240.330 C 688.505 250.497,737.296 294.077,749.969 347.303 C 753.872 363.697,753.905 392.544,750.038 408.000 C 748.416 414.483,743.290 427.521,738.647 436.974 C 731.407 451.713,727.725 456.623,712.809 471.432 C 693.771 490.333,682.550 497.765,658.603 507.339 C 620.837 522.438,591.032 513.232,591.186 486.517 C 591.290 468.624,604.905 453.219,631.716 440.658 C 654.082 430.180,666.811 419.308,674.330 404.261 C 682.046 388.820,683.162 376.824,678.355 360.999 C 669.400 331.516,636.055 310.080,599.148 310.080 C 567.499 310.080,536.137 327.855,523.964 352.693 L 519.520 361.760 518.506 484.160 C 517.365 621.981,518.081 614.580,502.905 645.508 C 495.677 660.236,491.982 665.171,477.075 679.997 C 451.911 705.027,426.223 718.510,392.500 724.391 C 339.935 733.558,288.924 718.104,251.957 681.813 C 234.250 664.431,224.058 648.575,216.406 626.507 C 211.839 613.334,211.377 609.665,211.377 586.613 C 211.377 563.562,211.839 559.892,216.406 546.720 C 224.058 524.652,234.250 508.796,251.957 491.413 C 269.875 473.824,287.502 462.937,311.403 454.698 C 324.801 450.080,329.060 449.400,340.141 450.112 C 362.865 451.570,372.782 461.187,371.391 480.417 C 370.085 498.469,354.462 515.509,331.182 524.273 C 317.289 529.503,301.015 541.616,293.809 552.089 C 285.084 564.770,282.285 574.831,283.272 589.955 C 284.589 610.109,294.777 627.203,312.373 638.784 C 356.519 667.837,418.018 654.532,439.296 611.326 L 445.173 599.391 446.080 476.042 L 446.987 352.693 452.078 338.187 C 459.551 316.896,470.150 300.206,486.724 283.631 C 523.641 246.715,576.075 230.890,630.205 240.330"
    fill-rule="evenodd"
  />
</svg>
