<svg class="icon" viewBox="0 0 1477 1024" xmlns="http://www.w3.org/2000/svg">
  <path
    d="M823.763 193.577 C 818.774 198.565,817.273 202.501,817.273 210.595 C 817.273 219.655,819.404 223.987,832.541 241.646 C 844.783 258.099,849.903 268.023,858.370 291.707 C 864.289 308.262,873.097 327.302,878.408 335.019 L 887.885 348.791 882.247 370.714 C 870.516 416.324,878.265 461.773,901.038 480.935 C 910.438 488.845,913.697 488.993,921.656 481.871 C 926.363 477.660,928.640 471.908,931.157 457.870 L 934.467 439.407 942.571 455.189 C 950.403 470.444,971.243 495.169,980.395 500.067 C 983.365 501.656,982.060 498.500,976.493 490.624 C 964.647 473.868,949.739 447.120,941.491 427.827 C 935.788 414.487,933.789 411.860,931.062 414.123 C 924.492 419.576,918.165 435.758,915.440 454.080 C 912.406 474.484,909.570 476.860,901.105 466.098 C 887.019 448.191,882.982 399.219,893.177 369.943 C 900.014 350.312,899.885 345.749,892.237 336.660 C 883.444 326.211,878.139 315.096,867.890 285.652 C 861.054 266.010,855.292 254.946,843.054 237.954 C 834.290 225.786,827.120 213.376,827.120 210.376 C 827.120 202.615,833.134 198.505,841.920 200.263 C 851.966 202.272,878.732 215.732,885.755 222.307 C 890.225 226.492,895.613 227.957,910.578 229.057 C 943.832 231.500,983.212 254.201,1018.205 291.099 C 1044.671 319.006,1053.256 333.248,1080.902 395.097 C 1105.826 450.856,1106.639 451.877,1133.743 461.488 C 1160.206 470.870,1206.217 500.102,1206.217 507.532 C 1206.217 508.650,1199.803 509.565,1191.964 509.565 C 1177.984 509.565,1153.589 514.641,1144.696 519.401 C 1132.732 525.803,1156.809 551.853,1191.025 569.525 C 1203.317 575.873,1218.411 584.912,1224.566 589.610 C 1230.721 594.308,1235.757 597.303,1235.757 596.265 C 1235.757 591.926,1196.345 556.101,1181.220 546.691 C 1167.273 538.013,1159.815 530.529,1162.471 527.873 C 1162.845 527.499,1172.564 525.407,1184.069 523.225 C 1195.573 521.042,1209.176 518.129,1214.297 516.750 L 1223.609 514.243 1218.523 507.101 C 1207.106 491.066,1167.191 462.055,1141.685 451.251 C 1133.175 447.647,1124.727 443.565,1122.912 442.181 C 1118.788 439.037,1096.984 395.710,1083.163 363.196 C 1069.052 330.000,1052.470 306.039,1024.304 278.147 C 985.041 239.266,950.304 219.480,914.214 215.441 C 902.706 214.154,896.364 211.777,887.361 205.376 C 872.771 195.002,852.130 187.087,839.672 187.087 C 832.777 187.087,828.514 188.826,823.763 193.577 M906.735 265.847 C 910.147 269.901,913.690 275.586,914.608 278.480 C 915.920 282.612,916.741 283.012,918.433 280.340 C 924.312 271.057,917.213 258.475,906.096 258.475 L 900.532 258.475 906.735 265.847 M220.327 591.415 C 216.699 601.864,207.845 714.144,203.439 805.580 L 202.401 827.120 220.269 827.120 L 238.137 827.120 239.663 817.889 C 240.503 812.812,241.201 796.472,241.215 781.579 C 241.251 744.932,246.340 649.421,248.468 645.459 C 249.411 643.704,263.350 683.860,279.445 734.694 L 308.708 827.120 324.032 827.120 L 339.356 827.120 353.269 783.425 C 360.921 759.393,374.513 717.022,383.474 689.267 L 399.767 638.802 401.529 652.342 C 404.724 676.895,408.679 735.213,410.290 781.532 L 411.877 827.120 432.619 827.120 L 453.362 827.120 451.815 799.426 C 447.538 722.805,437.910 609.091,434.404 593.789 C 433.157 588.342,432.353 588.184,409.353 588.865 L 385.591 589.569 356.916 676.958 L 328.242 764.347 299.399 676.343 L 270.556 588.338 245.976 588.338 C 228.523 588.338,221.086 589.231,220.327 591.415 M472.640 651.391 C 472.640 652.221,483.834 687.392,497.515 729.548 C 525.414 815.516,528.527 832.039,519.517 846.341 C 512.920 856.812,497.262 863.921,480.640 863.991 L 467.717 864.045 467.717 873.701 C 467.717 882.624,468.396 883.581,476.679 886.314 C 534.952 905.546,587.139 831.218,619.076 683.506 C 622.479 667.765,625.263 653.760,625.263 652.383 C 625.263 650.910,617.689 649.880,606.848 649.880 C 589.709 649.880,588.358 650.264,587.359 655.419 C 586.769 658.465,583.407 676.715,579.888 695.973 C 573.726 729.703,558.847 786.335,553.937 794.744 C 552.032 798.007,551.548 797.347,551.488 791.409 C 551.398 782.514,544.619 757.686,525.449 696.036 L 511.097 649.880 491.868 649.880 C 481.293 649.880,472.640 650.560,472.640 651.391"
    fill="#5d87a1"
    fill-rule="evenodd"
  />
</svg>
