<svg class="icon" viewBox="0 0 1066 1024" xmlns="http://www.w3.org/2000/svg">
  <path
    d="M372.365 149.684 C 369.897 151.883,337.696 209.247,300.808 277.160 C 244.447 380.923,233.736 401.773,233.724 407.745 C 233.712 413.831,244.135 433.344,306.316 543.644 C 346.249 614.480,380.210 673.425,381.785 674.634 C 384.018 676.348,417.779 676.743,535.078 676.427 L 685.508 676.022 690.159 671.652 C 696.731 665.477,841.173 399.849,839.091 397.767 C 838.086 396.762,768.153 396.304,660.789 396.599 C 491.559 397.065,483.881 397.226,477.923 400.438 C 453.841 413.421,443.218 436.654,450.271 460.914 C 452.608 468.956,455.413 473.362,463.364 481.480 C 479.247 497.700,477.612 497.467,575.567 497.467 C 668.101 497.467,666.250 497.229,666.250 509.123 C 666.250 513.987,661.769 521.999,644.486 548.042 C 632.516 566.079,621.808 581.208,620.691 581.663 C 619.574 582.118,584.254 583.067,542.202 583.773 C 457.707 585.192,453.931 584.854,444.455 575.013 C 441.494 571.938,420.630 534.951,398.090 492.820 C 354.401 411.154,353.781 409.600,360.035 397.441 C 368.136 381.690,443.137 254.466,446.129 251.398 C 449.505 247.938,451.935 247.845,539.422 247.845 L 629.248 247.845 633.191 252.429 C 635.360 254.950,648.188 275.149,661.699 297.315 C 678.783 325.344,687.409 337.896,690.026 338.533 C 692.095 339.037,718.962 339.225,749.730 338.952 C 799.080 338.514,805.735 338.124,806.212 335.644 C 806.881 332.162,699.704 155.204,693.582 149.684 L 689.149 145.687 533.000 145.687 L 376.851 145.687 372.365 149.684 M165.906 717.613 C 162.858 719.471,159.460 723.585,158.355 726.755 C 157.003 730.635,156.348 753.759,156.349 797.544 C 156.353 871.233,156.582 872.670,169.117 877.384 C 174.987 879.592,176.374 879.504,182.442 876.540 C 192.629 871.564,193.441 867.303,193.556 818.166 L 193.657 775.538 245.103 826.961 C 292.415 874.252,297.036 878.384,302.614 878.384 C 310.089 878.384,317.603 873.679,319.938 867.538 C 321.019 864.696,321.501 836.418,321.192 794.040 L 320.688 725.163 316.468 720.672 C 311.165 715.030,303.368 713.236,296.502 716.080 C 286.698 720.141,286.043 723.718,286.043 773.194 L 286.043 818.132 235.852 768.140 C 208.248 740.644,183.915 717.264,181.781 716.184 C 176.254 713.387,172.244 713.748,165.906 717.613 M358.048 755.411 L 335.535 796.657 339.007 802.964 C 340.917 806.433,350.285 823.663,359.826 841.252 C 369.367 858.841,378.380 874.631,379.854 876.341 C 382.280 879.155,386.966 879.450,429.299 879.450 L 476.065 879.450 478.757 875.341 C 482.513 869.609,518.787 792.862,518.787 790.648 C 518.787 789.464,501.257 788.840,468.015 788.840 L 417.243 788.840 412.050 794.033 C 408.211 797.872,406.857 800.914,406.857 805.698 C 406.857 820.766,413.531 824.373,441.413 824.373 C 464.204 824.373,464.367 824.480,458.939 835.861 L 455.945 842.140 428.853 842.140 L 401.761 842.140 389.331 819.494 L 376.901 796.847 388.770 774.212 L 400.638 751.577 429.607 751.554 L 458.576 751.530 462.942 761.746 C 470.003 778.266,468.429 777.236,487.470 777.801 C 500.479 778.186,504.855 777.737,505.542 775.947 C 506.040 774.648,501.010 760.428,494.363 744.347 L 482.278 715.108 431.420 714.637 L 380.562 714.166 358.048 755.411 M544.060 717.781 C 540.860 719.732,537.462 723.379,536.509 725.885 C 535.556 728.391,534.777 741.183,534.777 754.311 L 534.777 778.180 552.543 778.180 L 570.310 778.180 570.310 752.302 C 570.310 737.950,569.495 724.901,568.481 723.005 C 566.392 719.102,557.819 714.217,553.076 714.227 C 551.317 714.230,547.260 715.830,544.060 717.781 M597.612 717.369 C 595.528 719.057,592.929 722.185,591.838 724.319 C 589.321 729.240,589.057 861.134,591.551 867.693 C 593.832 873.693,601.408 878.384,608.816 878.384 C 614.394 878.384,619.015 874.252,666.327 826.961 L 717.773 775.538 717.773 818.668 C 717.773 852.515,718.333 863.137,720.374 868.023 C 725.587 880.498,743.301 882.178,750.940 870.921 C 753.925 866.523,754.238 860.671,754.719 800.327 C 755.311 725.891,754.917 722.738,744.309 717.052 C 739.842 714.657,736.462 714.042,732.768 714.950 C 729.155 715.839,711.803 731.928,676.466 767.154 L 625.387 818.073 625.387 771.340 L 625.387 724.607 620.193 719.413 C 614.093 713.313,603.773 712.378,597.612 717.369 M777.211 720.358 C 772.468 725.101,771.479 733.070,774.818 739.654 C 775.900 741.789,788.469 755.315,802.749 769.712 L 828.713 795.889 803.668 821.235 C 789.893 835.176,777.324 849.140,775.736 852.268 C 767.199 869.085,779.432 882.513,797.151 875.776 C 799.896 874.733,813.951 862.163,828.386 847.843 L 854.632 821.808 880.810 847.877 C 906.088 873.049,912.337 877.673,921.078 877.673 C 926.797 877.673,933.919 871.576,935.039 865.721 C 936.761 856.711,931.284 848.806,905.141 822.573 L 879.445 796.787 901.844 774.603 C 930.277 746.442,934.527 740.791,934.527 731.141 C 934.527 716.172,920.964 711.410,906.004 721.127 C 901.659 723.949,888.134 736.330,875.947 748.642 L 853.789 771.026 827.965 745.408 C 813.762 731.319,799.896 718.937,797.151 717.894 C 788.896 714.755,781.956 715.612,777.211 720.358 M535.125 827.787 C 535.658 866.222,535.722 866.795,539.975 871.319 C 549.196 881.126,565.969 880.680,574.622 870.397 L 579.193 864.964 579.193 826.902 L 579.193 788.840 556.889 788.840 L 534.584 788.840 535.125 827.787"
    fill-rule="evenodd"
  />
</svg>
