<svg class="icon" viewBox="0 0 1024 1024" xmlns="http://www.w3.org/2000/svg">
  <path
    d="M475.073 157.373 C 469.313 159.522,400.583 198.144,322.340 243.200 C 161.761 335.668,163.678 334.360,157.109 356.000 C 153.564 367.680,153.536 369.355,153.993 541.050 L 154.453 714.314 159.900 725.370 C 162.896 731.451,167.888 738.885,170.993 741.890 C 178.283 748.943,254.161 792.785,273.067 800.868 C 281.045 804.279,291.375 807.917,296.022 808.952 C 307.101 811.420,335.416 811.327,345.869 808.788 C 374.450 801.845,393.205 783.408,402.114 753.493 C 404.937 744.017,405.208 730.491,405.745 572.229 C 406.322 401.963,406.310 401.190,402.843 397.723 C 399.726 394.606,397.219 394.240,378.977 394.240 C 359.848 394.240,358.430 394.473,355.937 398.033 C 353.577 401.403,353.280 420.273,353.280 567.061 C 353.280 726.303,353.162 732.526,350.023 738.628 C 340.535 757.074,319.979 764.072,297.813 756.402 C 288.505 753.182,214.858 711.541,208.640 705.984 L 204.800 702.552 204.800 536.473 L 204.800 370.395 211.200 366.269 C 224.697 357.567,490.455 204.313,493.371 203.550 C 495.306 203.044,548.767 232.925,637.768 284.256 C 715.497 329.087,780.437 366.916,782.080 368.321 C 784.886 370.722,785.067 380.885,785.067 536.747 C 785.067 695.390,784.930 702.741,781.940 705.448 C 776.840 710.063,497.962 870.401,495.046 870.394 C 493.576 870.390,475.477 860.416,454.827 848.230 C 434.176 836.043,416.301 826.062,415.104 826.050 C 413.907 826.037,407.379 828.847,400.597 832.294 C 393.815 835.741,382.896 840.566,376.332 843.018 C 369.024 845.748,364.188 848.566,363.856 850.289 C 363.457 852.362,375.580 860.410,409.924 880.868 C 435.559 896.138,461.556 911.224,467.696 914.392 C 481.771 921.655,495.287 923.228,509.107 919.210 C 521.305 915.664,804.664 752.575,816.112 742.512 C 820.716 738.464,826.154 731.326,828.912 725.710 L 833.707 715.947 834.164 539.880 C 834.620 364.399,834.610 363.782,831.022 354.193 C 823.368 333.735,824.222 334.311,667.307 243.806 C 588.928 198.600,521.473 160.130,517.406 158.317 C 505.618 153.064,487.694 152.664,475.073 157.373 M542.005 387.525 C 508.820 391.372,481.266 403.069,464.669 420.353 C 452.860 432.651,448.144 441.042,444.605 456.053 C 439.722 476.762,441.965 497.025,451.048 514.254 C 464.915 540.561,495.078 553.830,558.343 561.453 C 630.117 570.102,652.342 575.819,662.018 588.120 C 666.910 594.339,667.025 611.742,662.236 621.130 C 652.093 641.012,620.501 650.190,570.027 647.919 C 532.474 646.228,512.263 640.248,500.323 627.295 C 493.581 619.981,486.400 604.054,486.400 596.416 C 486.400 594.105,484.864 590.677,482.987 588.800 C 479.967 585.780,477.298 585.387,459.834 585.387 C 448.978 585.387,438.610 586.182,436.794 587.153 C 429.740 590.929,433.722 620.160,444.091 640.717 C 464.211 680.605,524.596 702.292,599.479 696.524 C 676.519 690.590,717.134 660.847,721.372 607.260 C 723.360 582.113,716.042 560.440,700.996 546.912 C 680.767 528.724,657.174 521.525,583.680 511.116 C 511.229 500.855,498.347 495.406,498.347 475.022 C 498.347 464.439,501.267 456.447,507.092 451.085 C 519.578 439.593,547.348 434.003,582.827 435.841 C 627.984 438.180,645.974 448.677,655.478 478.233 C 657.590 484.802,660.590 490.666,662.310 491.586 C 663.996 492.488,674.111 493.227,684.788 493.227 C 709.779 493.227,710.890 492.527,709.466 477.692 C 707.243 454.547,695.393 430.242,679.512 416.257 C 669.388 407.341,644.328 395.288,628.907 391.916 C 603.182 386.292,567.977 384.513,542.005 387.525"
    fill-rule="evenodd"
  />
</svg>
