<svg class="icon" viewBox="0 0 2633 1024" xmlns="http://www.w3.org/2000/svg">
  <path
    d="M0.000 438.833 L 0.000 877.667 366.426 877.667 L 732.852 877.667 732.852 950.074 L 732.852 1022.482 1024.676 1022.482 L 1316.500 1022.482 1316.500 950.074 L 1316.500 877.667 1974.750 877.667 L 2633.000 877.667 2633.000 438.833 L 2633.000 0.000 1316.500 0.000 L 0.000 0.000 0.000 438.833 M731.786 437.736 L 730.658 730.658 658.250 730.658 L 585.843 730.658 584.704 512.338 L 583.566 294.018 511.200 294.018 L 438.833 294.018 438.833 513.435 L 438.833 732.852 294.018 732.852 L 149.203 732.852 149.203 438.833 L 149.203 144.815 441.059 144.815 L 732.914 144.815 731.786 437.736 M1461.315 438.833 L 1461.315 732.852 1316.500 732.852 L 1171.685 732.852 1171.685 805.259 L 1171.685 877.667 1024.676 877.667 L 877.667 877.667 877.667 511.241 L 877.667 144.815 1169.491 144.815 L 1461.315 144.815 1461.315 438.833 M2487.119 437.736 L 2485.991 730.658 2414.680 731.863 L 2343.370 733.069 2343.370 513.544 L 2343.370 294.018 2268.768 294.018 L 2194.167 294.018 2194.167 513.435 L 2194.167 732.852 2121.759 732.852 L 2049.352 732.852 2049.352 513.435 L 2049.352 294.018 1974.750 294.018 L 1900.148 294.018 1900.148 513.435 L 1900.148 732.852 1755.333 732.852 L 1610.518 732.852 1610.518 438.833 L 1610.518 144.815 2049.383 144.815 L 2488.247 144.815 2487.119 437.736 M1171.685 438.833 L 1171.685 583.648 1244.093 583.648 L 1316.500 583.648 1316.500 438.833 L 1316.500 294.018 1244.093 294.018 L 1171.685 294.018 1171.685 438.833"
    fill-rule="evenodd"
  />
</svg>
