<svg class="icon" viewBox="0 0 1024 1024" xmlns="http://www.w3.org/2000/svg">
  <path
    d="M569.173 153.048 C 559.787 159.347,543.275 169.814,532.480 176.308 C 520.763 183.357,508.039 192.755,500.907 199.625 C 494.336 205.955,485.791 212.748,481.917 214.721 C 473.781 218.865,472.162 221.814,474.561 228.123 C 475.694 231.103,476.249 342.000,476.191 553.442 L 476.102 874.241 485.456 873.465 C 492.980 872.841,497.098 871.168,506.506 864.912 C 512.939 860.634,521.607 855.409,525.768 853.301 C 529.929 851.192,539.112 845.127,546.176 839.822 C 553.239 834.518,563.735 828.458,569.501 826.356 C 580.385 822.387,589.604 814.143,591.375 806.795 C 591.880 804.701,592.083 654.389,591.827 472.770 C 591.414 180.841,591.063 142.498,588.800 142.075 C 587.392 141.811,578.560 146.750,569.173 153.048 M606.293 351.203 L 600.747 351.790 600.747 390.135 C 600.747 419.359,601.254 428.621,602.880 429.070 C 604.053 429.394,617.331 432.011,632.387 434.884 C 647.442 437.758,670.586 443.658,683.818 447.997 C 706.768 455.522,756.082 477.906,756.027 480.773 C 755.967 483.895,752.423 486.579,731.307 499.497 C 694.213 522.190,680.417 531.906,683.571 533.117 C 685.105 533.705,740.440 534.187,806.540 534.187 C 924.444 534.187,926.785 534.122,930.133 530.773 C 933.442 527.465,933.547 525.084,933.547 453.221 C 933.547 412.444,932.925 378.697,932.165 378.228 C 930.678 377.309,889.873 401.500,868.344 416.065 C 861.111 420.957,853.647 424.960,851.755 424.960 C 849.864 424.960,839.960 420.360,829.748 414.738 C 782.243 388.587,730.122 370.774,663.040 357.761 C 632.650 351.865,617.056 350.063,606.293 351.203 M412.160 355.746 C 316.356 372.624,224.482 412.497,166.400 462.405 C 127.584 495.759,97.307 543.971,87.597 587.888 C 84.176 603.363,83.785 637.353,86.851 652.800 C 92.076 679.127,106.484 712.084,122.992 735.468 C 170.453 802.700,273.658 860.516,389.953 885.022 C 425.622 892.538,433.938 893.917,450.870 895.124 L 467.393 896.301 467.937 856.471 C 468.235 834.564,468.349 816.381,468.189 816.065 C 468.029 815.749,461.885 814.755,454.536 813.858 C 415.149 809.047,372.928 795.980,333.653 776.444 C 268.502 744.038,232.835 706.274,218.147 654.146 C 213.322 637.020,212.988 607.109,217.436 590.507 C 229.693 544.764,272.383 499.568,331.028 470.247 C 367.674 451.925,409.385 438.531,448.427 432.549 L 467.627 429.606 467.627 390.590 L 467.627 351.573 450.987 351.705 C 441.835 351.777,424.363 353.596,412.160 355.746"
    fill="#cdcccc"
    fill-rule="evenodd"
  />
</svg>
