<svg class="icon" viewBox="0 0 1024 1024" xmlns="http://www.w3.org/2000/svg">
  <path
    d="M311.467 72.857 C 298.637 74.304,294.820 75.642,285.200 82.066 C 261.642 97.798,243.594 133.129,232.968 184.320 C 226.900 213.553,225.494 256.558,229.406 293.269 L 232.195 319.444 214.657 337.752 C 194.620 358.668,182.103 375.958,171.551 397.293 C 157.165 426.380,150.187 456.599,150.187 489.813 C 150.187 524.528,157.161 553.326,173.430 585.782 L 182.611 604.098 175.721 621.390 C 160.612 659.316,154.854 688.218,154.845 726.187 C 154.835 766.688,161.750 797.722,178.697 833.239 L 188.246 853.252 182.223 866.519 C 172.651 887.607,167.283 910.212,163.672 944.640 C 161.664 963.792,162.526 992.763,165.425 1003.520 C 166.310 1006.805,167.882 1012.757,168.917 1016.747 L 170.798 1024.000 200.812 1024.000 L 230.827 1024.000 229.659 1018.453 C 226.079 1001.453,225.299 990.836,225.290 959.030 C 225.279 919.030,225.816 916.237,239.152 887.011 C 251.569 859.797,254.782 850.414,253.494 845.127 C 252.879 842.600,248.238 833.237,243.182 824.320 C 230.319 801.636,224.253 788.092,219.869 772.267 C 216.593 760.442,216.085 754.384,216.080 727.040 C 216.074 698.305,216.475 693.983,220.543 678.964 C 223.002 669.888,227.866 656.064,231.352 648.244 C 253.942 597.577,254.092 594.947,235.757 571.025 C 225.341 557.435,218.218 542.884,213.120 524.777 C 208.110 506.985,207.717 475.762,212.295 459.093 C 225.787 409.961,254.476 373.419,294.124 354.865 C 312.470 346.280,320.758 344.789,350.254 344.767 C 376.249 344.747,377.168 344.626,379.427 340.907 C 380.711 338.795,385.114 331.071,389.213 323.743 C 406.782 292.335,434.266 269.801,470.043 257.469 C 498.467 247.672,525.507 247.723,554.359 257.628 C 590.111 269.901,618.378 294.648,638.268 331.087 L 644.327 342.187 654.537 342.621 C 691.714 344.202,715.480 348.609,734.720 357.489 C 762.566 370.343,781.426 390.650,797.988 425.612 C 808.836 448.513,813.055 467.236,813.031 492.373 C 813.002 523.557,807.049 541.777,787.506 570.494 C 770.326 595.741,770.374 596.569,791.817 644.967 C 816.800 701.357,816.066 760.176,789.769 808.960 C 784.962 817.877,778.456 830.165,775.312 836.267 L 769.595 847.360 772.910 856.992 C 774.733 862.290,780.911 877.083,786.639 889.865 C 794.354 907.082,797.543 916.527,798.943 926.312 C 801.064 941.134,799.752 996.101,796.978 1008.640 C 796.044 1012.864,794.882 1018.066,794.397 1020.200 L 793.515 1024.079 823.827 1023.613 L 854.138 1023.147 857.487 1012.053 C 860.341 1002.599,860.829 995.917,860.793 966.827 C 860.755 936.476,860.244 930.285,856.184 910.961 C 851.582 889.054,846.622 873.767,839.742 860.282 L 836.003 852.953 844.579 835.650 C 877.072 770.086,878.696 698.613,849.410 622.999 L 841.833 603.438 849.279 587.397 C 866.121 551.109,872.205 525.715,872.224 491.623 C 872.243 458.366,866.701 430.512,854.098 400.522 C 844.895 378.621,833.288 362.022,811.589 339.728 L 792.387 320.000 794.601 299.520 C 804.140 211.276,785.326 122.963,750.135 90.801 C 735.536 77.458,724.695 72.878,707.732 72.888 C 689.037 72.899,677.337 77.428,663.923 89.846 C 643.317 108.924,627.354 142.833,618.646 186.027 C 615.069 203.771,611.408 213.333,608.190 213.333 C 606.856 213.333,601.371 211.496,596.002 209.251 C 564.045 195.887,541.576 192.076,502.059 193.317 C 470.847 194.297,461.046 196.339,432.826 207.737 C 421.672 212.242,416.925 213.417,414.906 212.173 C 413.162 211.098,409.936 201.501,406.066 185.880 C 395.590 143.585,387.813 124.243,372.744 102.999 C 361.273 86.827,345.839 76.216,330.823 74.178 C 326.748 73.624,321.877 72.971,320.000 72.726 C 318.123 72.480,314.283 72.540,311.467 72.857 M326.007 140.849 C 341.299 163.076,353.418 211.617,353.902 252.587 C 354.183 276.445,353.105 278.902,340.866 282.292 C 328.928 285.598,290.258 290.826,288.762 289.336 C 286.678 287.261,286.382 238.809,288.329 218.453 C 290.577 194.948,295.360 174.732,302.903 156.845 C 309.250 141.797,314.891 133.120,318.328 133.120 C 319.627 133.120,323.082 136.598,326.007 140.849 M714.664 142.080 C 721.987 154.204,727.897 170.486,732.277 190.602 C 735.200 204.025,736.101 215.285,736.804 247.181 C 737.364 272.605,737.065 287.617,735.978 288.705 C 734.843 289.839,726.929 289.476,712.310 287.619 C 670.406 282.295,671.525 283.349,671.708 249.408 C 671.929 208.532,684.394 157.934,698.942 138.860 C 705.030 130.878,708.303 131.548,714.664 142.080 M473.349 474.423 C 450.707 477.642,416.551 496.289,396.800 516.214 C 375.249 537.955,365.483 559.902,363.960 590.017 C 363.178 605.475,363.578 609.047,367.496 621.590 C 377.089 652.298,398.534 674.707,434.144 691.236 C 441.765 694.773,452.070 698.516,457.044 699.554 C 468.468 701.936,554.309 702.067,566.683 699.720 C 599.325 693.530,637.722 665.384,650.859 638.016 C 659.673 619.657,663.251 599.395,660.774 581.876 C 655.051 541.406,628.469 508.081,584.106 485.756 C 577.300 482.332,567.475 478.421,562.272 477.066 C 550.809 474.080,488.737 472.235,473.349 474.423 M323.413 476.915 C 322.475 477.274,319.575 478.039,316.970 478.614 C 300.409 482.271,286.316 512.013,291.695 531.954 C 295.014 544.258,313.600 556.373,329.158 556.373 C 336.712 556.373,348.172 549.431,355.112 540.651 C 376.644 513.411,365.456 480.579,333.474 477.156 C 328.879 476.664,324.352 476.555,323.413 476.915 M678.400 480.201 C 673.707 482.406,668.552 485.691,666.945 487.501 C 658.074 497.493,656.269 515.960,662.798 529.920 C 667.742 540.489,680.048 552.038,689.329 554.819 C 700.141 558.058,713.529 554.472,722.912 545.823 C 731.921 537.519,734.558 530.150,733.452 516.369 C 732.096 499.475,723.698 486.955,709.190 480.199 C 698.288 475.123,689.211 475.123,678.400 480.201 M544.427 515.695 C 556.958 518.043,571.931 525.311,585.685 535.723 C 607.174 551.991,619.516 572.526,619.519 592.015 C 619.519 598.008,618.676 605.729,617.644 609.173 C 612.457 626.485,589.105 648.731,569.173 655.349 C 552.501 660.885,532.596 662.743,501.760 661.645 C 460.538 660.176,446.213 655.415,425.937 636.449 C 410.488 621.996,405.333 611.143,405.333 593.067 C 405.333 581.492,406.078 577.896,410.226 569.450 C 420.129 549.281,450.045 523.801,471.040 517.653 C 489.282 512.312,521.741 511.446,544.427 515.695 M486.436 557.807 C 479.429 559.136,476.773 564.517,478.523 573.844 C 479.537 579.250,481.305 582.331,490.565 594.831 C 491.979 596.741,493.892 603.639,494.816 610.161 C 496.840 624.458,498.884 626.347,512.326 626.347 C 525.414 626.347,529.067 622.976,529.067 610.902 C 529.067 601.492,532.023 594.388,539.519 585.782 C 548.868 575.048,548.000 563.808,537.561 560.422 C 530.327 558.076,494.641 556.251,486.436 557.807"
    fill-rule="evenodd"
  />
</svg>
