<svg class="icon" viewBox="0 0 1024 1024" xmlns="http://www.w3.org/2000/svg">
  <path
    d="M497.493 99.170 C 490.923 99.777,480.171 102.170,473.600 104.487 C 467.029 106.804,382.624 144.338,286.033 187.896 C 129.526 258.474,109.463 267.955,101.686 275.006 C 71.738 302.160,78.761 348.969,115.565 367.517 C 131.301 375.446,468.572 523.532,477.593 526.473 C 496.784 532.727,526.572 532.366,545.726 525.647 C 551.113 523.758,635.724 487.082,733.752 444.146 C 904.676 369.280,912.381 365.713,921.694 357.138 C 932.867 346.849,938.597 335.433,939.922 320.820 C 941.607 302.236,931.492 280.522,916.480 270.499 C 905.402 263.102,550.665 104.810,538.453 101.814 C 525.377 98.607,512.554 97.779,497.493 99.170"
    fill="#4d91ff"
    fill-rule="evenodd"
  />
</svg>
