<svg class="icon" viewBox="0 0 1024 1024" xmlns="http://www.w3.org/2000/svg">
  <path
    d="M742.400 99.489 C 736.299 102.762,710.793 117.309,685.721 131.815 L 640.136 158.189 653.174 165.649 C 669.767 175.143,675.175 179.739,679.328 187.880 C 682.578 194.251,682.667 199.118,682.667 371.874 C 682.667 492.661,682.089 550.859,680.858 554.129 C 679.864 556.771,676.373 561.690,673.100 565.059 L 667.150 571.184 709.362 595.352 C 748.548 617.788,752.199 619.520,760.305 619.520 C 768.668 619.520,773.416 616.996,873.051 559.582 C 930.260 526.615,979.084 498.214,981.550 496.468 C 991.894 489.143,991.576 493.603,991.545 356.435 L 991.517 231.253 987.705 224.616 C 984.259 218.615,973.664 212.078,877.227 156.459 C 755.151 86.052,762.027 88.958,742.400 99.489 M503.467 665.684 C 430.720 707.909,368.234 743.265,364.608 744.253 C 354.547 746.993,346.726 744.789,327.877 733.899 L 310.613 723.925 310.623 806.122 C 310.629 854.995,311.316 890.781,312.319 894.390 C 313.246 897.729,316.122 902.432,318.709 904.842 C 325.471 911.139,514.893 1020.818,522.218 1022.677 C 526.573 1023.782,530.300 1023.546,535.106 1021.860 C 543.220 1019.013,729.558 910.865,735.367 905.632 C 744.234 897.642,744.107 899.529,744.107 775.680 C 744.107 651.829,744.233 653.704,735.367 645.740 C 730.318 641.205,640.248 588.779,637.636 588.855 C 636.590 588.886,576.213 623.459,503.467 665.684"
    fill="#c1d0ff"
    fill-rule="evenodd"
  />
</svg>
