<svg class="icon" viewBox="0 0 1024 1024" xmlns="http://www.w3.org/2000/svg">
  <path
    d="M503.921 157.840 C 489.889 163.939,471.229 187.377,455.662 218.453 C 440.162 249.398,423.305 296.491,427.233 297.878 C 459.494 309.272,472.180 314.120,490.189 321.940 L 511.898 331.365 548.501 316.723 C 568.632 308.669,585.576 302.080,586.153 302.080 C 586.731 302.080,589.847 300.975,593.079 299.625 L 598.956 297.169 590.389 271.891 C 570.750 213.947,541.625 166.926,519.699 157.764 C 512.540 154.773,510.957 154.781,503.921 157.840 M226.133 323.372 C 210.904 326.715,201.901 330.843,196.916 336.768 C 192.781 341.681,192.511 343.000,193.204 354.926 C 194.480 376.896,209.542 406.306,237.342 441.104 C 249.578 456.421,274.060 482.987,275.939 482.987 C 276.387 482.987,284.179 476.775,293.256 469.183 C 302.333 461.591,318.321 449.111,328.784 441.450 L 347.809 427.520 348.970 416.427 C 349.608 410.325,352.098 391.893,354.503 375.467 C 356.908 359.040,359.230 343.155,359.664 340.166 C 360.404 335.077,360.036 334.623,353.880 333.016 C 313.353 322.442,251.609 317.780,226.133 323.372 M725.076 323.425 C 705.011 325.856,668.601 332.652,665.553 334.535 C 664.129 335.416,664.529 341.154,667.052 356.028 C 668.945 367.189,671.823 387.840,673.448 401.920 C 675.073 416.000,677.235 428.028,678.254 428.649 C 684.075 432.195,716.774 457.483,731.948 470.173 L 749.657 484.982 757.294 477.584 C 775.964 459.501,807.471 417.307,818.499 395.618 C 825.575 381.703,831.147 362.655,831.147 352.382 C 831.147 343.723,830.557 342.109,825.571 337.123 C 819.111 330.663,805.639 326.996,781.227 325.052 C 773.013 324.398,766.293 323.186,766.293 322.358 C 766.293 320.283,746.867 320.786,725.076 323.425 M886.271 353.280 C 886.271 358.443,886.591 360.555,886.982 357.973 C 887.373 355.392,887.373 351.168,886.982 348.587 C 886.591 346.005,886.271 348.117,886.271 353.280 M591.787 357.902 C 583.573 361.182,576.879 364.363,576.910 364.972 C 576.966 366.047,608.266 384.770,613.125 386.634 C 615.156 387.414,615.296 385.706,613.996 375.968 C 611.734 359.011,610.240 352.724,608.376 352.309 C 607.465 352.106,600.000 354.623,591.787 357.902 M412.238 357.120 C 410.503 365.048,407.893 381.324,407.893 384.219 C 407.893 386.706,410.762 385.743,424.533 378.631 C 433.685 373.905,442.266 368.987,443.602 367.702 C 445.690 365.695,445.450 365.145,441.896 363.786 C 439.621 362.917,432.828 360.197,426.799 357.743 C 413.498 352.327,413.289 352.318,412.238 357.120 M136.929 361.813 C 136.929 365.099,137.281 366.443,137.710 364.800 C 138.139 363.157,138.139 360.469,137.710 358.827 C 137.281 357.184,136.929 358.528,136.929 361.813 M884.251 370.095 C 883.896 377.296,873.876 404.670,866.045 419.833 C 851.842 447.333,828.462 479.469,802.861 506.684 C 795.638 514.362,790.302 521.195,791.003 521.869 C 794.684 525.404,841.971 467.303,859.038 438.276 C 873.541 413.609,887.347 376.991,885.196 368.893 C 884.713 367.074,884.379 367.499,884.251 370.095 M139.261 379.298 C 146.756 412.241,166.187 448.308,197.424 487.253 C 215.224 509.446,231.430 526.813,232.958 525.333 C 233.625 524.687,226.835 516.035,217.870 506.106 C 197.129 483.136,178.589 458.525,166.066 437.338 C 155.121 418.821,142.326 388.741,140.647 377.579 C 140.045 373.578,138.941 369.926,138.192 369.464 C 137.444 369.002,137.925 373.427,139.261 379.298 M488.960 403.436 C 470.532 413.200,422.164 441.650,405.780 452.362 C 401.201 455.355,399.044 458.220,398.141 462.507 C 396.486 470.365,396.510 574.191,398.169 582.241 C 399.341 587.930,401.146 589.535,418.607 600.410 C 441.288 614.535,472.621 632.445,495.158 644.165 L 511.372 652.597 523.199 647.579 C 538.906 640.913,593.159 609.140,609.437 597.073 L 622.394 587.468 623.508 570.641 C 624.937 549.058,624.944 493.818,623.520 472.319 L 622.418 455.678 608.596 446.811 C 582.257 429.914,514.619 392.470,510.598 392.559 C 509.961 392.573,500.224 397.468,488.960 403.436 M327.834 510.279 C 321.299 515.903,315.585 521.100,315.135 521.827 C 314.385 523.040,335.052 541.771,340.634 544.938 C 342.653 546.083,343.040 542.582,343.040 523.178 C 343.040 509.306,342.375 500.053,341.377 500.053 C 340.463 500.053,334.368 504.655,327.834 510.279 M680.960 522.139 C 680.960 534.397,681.536 544.409,682.240 544.387 C 682.944 544.365,689.493 539.440,696.794 533.442 L 710.068 522.537 697.647 512.456 C 690.816 506.911,684.267 501.807,683.093 501.114 C 681.431 500.131,680.960 504.774,680.960 522.139 M259.526 576.527 C 232.376 606.133,208.809 640.496,198.821 665.041 C 195.642 672.852,193.818 680.912,193.287 689.493 C 192.587 700.796,192.934 702.848,196.249 707.034 C 198.313 709.642,202.848 713.227,206.326 715.001 C 229.044 726.591,287.158 726.417,340.480 714.599 L 357.547 710.817 357.398 704.848 C 357.316 701.566,355.263 685.440,352.836 669.013 C 350.410 652.587,347.894 634.155,347.245 628.053 L 346.066 616.960 326.412 602.453 C 315.603 594.475,299.571 581.995,290.787 574.720 C 282.002 567.445,274.477 561.493,274.064 561.493 C 273.650 561.493,267.108 568.259,259.526 576.527 M733.867 572.892 C 726.827 579.038,710.891 591.725,698.453 601.087 C 686.016 610.448,675.840 619.006,675.840 620.104 C 675.840 625.689,670.251 668.721,667.113 687.291 C 665.145 698.943,663.959 708.902,664.479 709.422 C 666.080 711.022,691.031 716.404,711.680 719.602 C 725.041 721.671,741.385 722.663,762.880 722.708 C 791.312 722.767,795.716 722.377,807.142 718.788 C 816.039 715.994,821.588 713.046,825.710 708.924 C 831.534 703.100,831.581 702.931,830.772 690.723 C 829.389 669.855,815.217 641.208,789.673 607.642 C 777.664 591.861,749.910 561.383,747.753 561.606 C 747.155 561.667,740.907 566.746,733.867 572.892 M599.893 665.870 C 591.445 670.427,582.696 675.190,580.451 676.453 C 576.536 678.655,577.051 679.020,592.943 685.310 C 605.558 690.303,609.835 691.356,610.847 689.719 C 612.326 687.326,616.844 658.875,615.871 658.084 C 615.531 657.809,608.341 661.312,599.893 665.870 M407.956 664.182 C 408.026 670.544,412.015 692.477,413.343 693.805 C 414.403 694.866,447.151 682.607,447.136 681.156 C 447.124 680.006,444.735 678.579,422.747 666.594 L 407.893 658.497 407.956 664.182 M137.062 702.293 C 137.072 707.925,137.390 710.024,137.770 706.956 C 138.150 703.889,138.142 699.281,137.753 696.716 C 137.363 694.152,137.053 696.661,137.062 702.293 M886.093 704.000 C 886.127 706.816,886.510 707.761,886.943 706.101 C 887.375 704.440,887.347 702.136,886.879 700.981 C 886.412 699.825,886.058 701.184,886.093 704.000 M882.725 718.565 C 876.824 742.000,850.889 762.797,816.832 771.405 C 780.034 780.705,724.962 779.015,671.103 766.933 C 660.421 764.537,651.458 762.837,651.184 763.155 C 650.910 763.473,646.306 776.789,640.953 792.747 C 605.180 899.377,549.806 955.854,495.266 941.336 C 450.097 929.313,408.961 874.100,380.431 787.204 C 374.660 769.628,372.427 764.778,370.397 765.418 C 364.738 767.201,334.415 773.068,317.440 775.664 C 291.540 779.625,247.645 780.920,228.326 778.292 C 180.729 771.818,151.587 752.264,140.497 719.360 L 138.196 712.533 139.161 719.360 C 141.744 737.634,157.864 757.523,179.161 768.715 C 215.412 787.764,275.774 790.032,348.656 775.084 C 361.601 772.429,372.442 770.709,372.746 771.262 C 373.051 771.815,376.211 781.099,379.769 791.893 C 404.359 866.514,439.666 920.017,477.013 939.254 C 487.013 944.404,503.332 948.907,512.000 948.907 C 520.668 948.907,536.987 944.404,546.987 939.254 C 585.031 919.657,621.395 863.214,645.224 786.773 C 648.296 776.917,651.058 768.541,651.362 768.159 C 651.665 767.777,659.025 769.119,667.716 771.140 C 723.010 784.000,779.176 786.044,816.693 776.560 C 843.204 769.859,866.728 754.745,876.439 738.175 C 881.544 729.465,886.333 715.960,885.357 713.031 C 884.969 711.867,883.784 714.357,882.725 718.565 M496.551 719.264 C 489.462 722.366,472.182 729.258,458.151 734.579 C 444.120 739.901,430.954 744.954,428.893 745.808 L 425.146 747.362 432.529 769.201 C 442.212 797.843,445.711 806.431,456.017 826.842 C 471.971 858.442,490.600 881.464,504.517 886.779 C 511.465 889.433,512.522 889.438,519.305 886.847 C 533.924 881.264,554.196 855.884,569.928 823.467 C 585.397 791.590,600.661 747.951,596.798 746.645 C 576.624 739.824,547.970 728.845,532.557 722.030 C 521.805 717.276,512.205 713.440,511.224 713.505 C 510.243 713.570,503.640 716.162,496.551 719.264"
    fill="#d3ebff"
    fill-rule="evenodd"
  />
</svg>
