<svg class="icon" viewBox="0 0 1024 1024" xmlns="http://www.w3.org/2000/svg">
  <path
    d="M691.200 63.080 C 645.146 72.943,587.877 105.740,529.664 155.588 C 521.076 162.943,513.489 168.960,512.805 168.960 C 512.121 168.960,506.232 163.932,499.717 157.786 C 452.070 112.838,393.684 78.003,344.892 65.413 C 330.369 61.665,326.445 61.319,309.929 62.330 C 299.696 62.956,287.211 64.539,282.184 65.849 C 233.503 78.528,207.857 126.105,205.314 208.449 C 204.199 244.540,206.182 271.132,212.867 309.760 C 219.253 346.664,221.151 342.002,196.267 350.544 C 164.804 361.344,153.760 365.900,125.440 379.759 C 53.934 414.754,11.906 457.275,5.032 501.582 C -4.946 565.891,66.662 631.329,196.693 676.727 C 207.308 680.432,215.040 684.066,215.040 685.348 C 215.040 686.566,213.850 693.182,212.396 700.048 C 202.648 746.070,198.543 810.135,203.043 845.998 C 218.661 970.463,301.387 997.697,425.813 919.334 C 443.801 908.005,480.282 880.708,497.966 865.346 L 512.092 853.075 521.480 861.655 C 563.748 900.286,619.315 935.687,660.493 950.220 C 690.524 960.819,723.314 963.956,744.821 958.289 C 813.341 940.232,838.776 843.346,812.172 701.735 C 810.121 690.820,809.189 681.800,810.030 681.017 C 810.850 680.255,816.128 678.331,821.760 676.741 C 856.974 666.802,910.029 643.105,938.667 624.526 C 1023.890 569.237,1041.463 505.602,988.463 444.212 C 958.457 409.457,893.309 372.061,822.613 349.012 C 814.635 346.411,807.930 344.146,807.715 343.980 C 807.499 343.814,809.203 334.060,811.502 322.304 C 818.976 284.081,821.471 259.096,821.532 221.867 C 821.575 195.381,820.840 182.733,818.508 169.813 C 812.002 133.767,801.748 109.923,784.796 91.423 C 770.192 75.485,754.991 68.313,726.613 63.971 C 723.093 63.433,720.213 62.259,720.213 61.363 C 720.213 58.868,707.300 59.632,691.200 63.080 M341.614 112.799 C 366.850 119.726,403.774 139.927,435.978 164.425 C 451.077 175.912,480.094 200.990,480.999 203.335 C 481.313 204.151,475.267 211.534,467.562 219.743 C 452.554 235.731,418.972 276.855,405.626 295.588 C 398.216 305.990,396.841 307.099,390.316 307.942 C 328.686 315.903,306.156 319.765,281.218 326.641 L 266.329 330.746 265.228 324.520 C 264.622 321.095,261.850 306.773,259.067 292.693 C 252.526 259.597,250.615 206.233,254.953 177.849 C 261.180 137.110,275.453 114.509,296.674 111.784 C 301.055 111.222,305.792 110.033,307.200 109.142 C 310.665 106.950,326.390 108.621,341.614 112.799 M718.103 109.080 C 719.733 109.937,725.383 111.506,730.658 112.566 C 751.520 116.756,765.474 138.459,772.403 177.493 C 776.113 198.396,775.702 241.973,771.476 275.792 C 768.361 300.717,763.652 329.269,762.488 330.292 C 762.234 330.515,750.123 328.111,735.573 324.950 C 712.053 319.841,661.440 310.932,639.779 308.090 C 631.973 307.065,631.695 306.804,616.426 286.117 C 601.129 265.392,563.424 220.554,553.159 210.881 C 550.234 208.124,547.892 205.052,547.955 204.054 C 548.212 200.023,597.475 161.072,622.933 144.771 C 665.418 117.567,705.598 102.499,718.103 109.080 M528.221 255.912 C 542.678 272.388,562.102 296.839,564.926 302.117 C 566.157 304.417,560.086 304.709,511.856 304.677 C 481.902 304.657,457.393 304.394,457.391 304.094 C 457.382 302.935,468.541 287.169,475.123 279.040 C 485.826 265.823,510.562 238.933,512.018 238.933 C 512.736 238.933,520.027 246.574,528.221 255.912 M599.955 356.014 C 606.823 356.979,606.920 357.099,632.577 396.518 C 662.458 442.426,665.068 446.800,685.861 485.822 L 701.468 515.111 688.492 536.020 C 681.356 547.520,670.349 566.596,664.033 578.411 C 641.645 620.293,607.992 671.054,601.294 673.043 C 599.585 673.551,587.127 674.883,573.609 676.003 C 549.398 678.010,450.493 677.164,427.946 674.758 C 418.236 673.722,418.052 673.598,410.756 663.255 C 389.053 632.488,353.540 572.607,331.617 529.813 L 323.693 514.346 340.230 483.280 C 359.155 447.730,385.459 403.659,404.070 376.320 C 411.100 365.995,417.041 357.325,417.274 357.053 C 419.962 353.923,578.667 353.020,599.955 356.014 M692.053 363.485 C 721.005 368.801,749.227 375.569,749.227 377.195 C 749.227 378.734,735.931 418.109,727.766 440.747 C 725.143 448.021,722.493 453.973,721.879 453.973 C 721.264 453.973,719.973 452.245,719.010 450.133 C 717.124 445.999,690.934 401.623,675.226 375.945 C 669.932 367.290,665.600 359.788,665.600 359.272 C 665.600 358.757,667.328 358.718,669.440 359.186 C 671.552 359.655,681.728 361.589,692.053 363.485 M357.855 361.387 C 357.445 362.091,351.009 372.651,343.555 384.853 C 336.100 397.056,323.617 418.421,315.816 432.331 C 308.015 446.240,301.051 456.992,300.341 456.224 C 297.672 453.334,270.662 379.009,271.849 377.822 C 274.241 375.430,327.041 364.358,350.720 361.283 C 353.536 360.917,356.461 360.503,357.221 360.362 C 357.980 360.222,358.266 360.683,357.855 361.387 M230.335 399.787 C 236.471 420.413,245.203 444.304,259.477 479.524 L 273.065 513.048 263.769 534.604 C 253.374 558.709,236.330 604.900,230.377 625.100 C 226.858 637.043,226.114 638.252,222.888 637.276 C 161.664 618.760,105.980 589.756,76.078 560.808 C 57.061 542.398,48.353 525.250,49.986 509.429 C 51.400 495.723,58.438 483.873,74.893 467.490 C 99.781 442.710,134.490 422.419,190.293 400.025 C 207.189 393.245,222.283 387.634,223.834 387.555 C 225.897 387.451,227.642 390.734,230.335 399.787 M837.973 404.001 C 891.732 426.114,927.079 447.060,950.759 470.836 C 983.578 503.787,983.372 523.928,949.876 557.271 C 932.386 574.681,908.909 590.976,880.169 605.653 C 859.060 616.433,799.131 640.980,797.618 639.467 C 797.093 638.941,792.186 625.215,786.714 608.963 C 781.243 592.710,770.679 564.821,763.240 546.987 C 749.874 514.941,749.744 514.490,752.245 508.587 C 768.006 471.386,777.636 446.592,785.734 422.360 C 791.060 406.425,795.741 392.457,796.136 391.322 C 797.123 388.482,808.977 392.074,837.973 404.001 M482.888 423.744 C 449.811 435.020,425.889 461.708,418.742 495.307 C 409.969 536.550,431.809 580.571,470.187 599.002 C 485.597 606.403,497.302 609.280,512.000 609.280 C 534.584 609.280,560.682 598.965,576.459 583.803 C 629.519 532.813,610.669 447.457,541.112 423.744 C 532.322 420.747,526.074 419.928,512.000 419.928 C 497.926 419.928,491.678 420.747,482.888 423.744 M730.918 590.080 C 741.899 618.378,751.544 646.785,750.519 647.810 C 749.228 649.101,672.025 664.078,669.541 663.519 C 668.260 663.231,674.210 652.149,684.458 635.733 C 693.835 620.715,705.892 599.787,711.252 589.227 C 716.612 578.667,721.479 570.027,722.067 570.027 C 722.656 570.027,726.638 579.051,730.918 590.080 M306.491 577.280 C 309.621 583.501,331.116 621.097,347.471 648.960 C 354.081 660.221,357.348 667.307,355.930 667.307 C 350.865 667.307,312.104 660.152,294.827 656.028 C 280.522 652.614,276.480 651.017,276.480 648.782 C 276.480 647.206,280.746 633.641,285.960 618.638 C 300.537 576.692,302.344 571.733,303.046 571.733 C 303.405 571.733,304.955 574.229,306.491 577.280 M764.915 710.058 C 770.064 735.628,773.315 764.819,774.317 794.488 C 776.261 852.064,767.213 891.007,747.951 907.962 C 737.789 916.907,726.419 919.333,707.240 916.650 C 663.788 910.572,614.262 882.124,552.960 828.030 L 545.280 821.254 557.339 808.707 C 572.504 792.927,599.178 760.737,616.952 736.765 C 624.680 726.343,632.082 718.065,634.019 717.678 C 635.901 717.302,645.120 716.139,654.507 715.094 C 681.338 712.107,719.337 705.404,739.840 700.040 C 750.165 697.339,759.381 695.262,760.320 695.424 C 761.259 695.586,763.326 702.171,764.915 710.058 M306.988 708.241 C 330.102 712.889,358.613 717.966,370.347 719.524 C 384.902 721.456,392.141 723.149,393.131 724.852 C 399.821 736.359,438.637 784.217,463.831 812.021 L 476.249 825.725 459.565 839.692 C 401.768 888.076,355.464 914.512,316.203 921.540 C 306.026 923.361,305.033 923.214,292.561 918.022 C 277.440 911.727,269.901 904.895,263.010 891.241 C 247.957 861.415,243.950 817.485,250.914 758.613 C 256.043 715.251,259.444 697.673,262.479 698.838 C 263.845 699.362,283.875 703.594,306.988 708.241 M506.880 726.071 C 512.981 726.434,528.725 726.191,541.867 725.532 C 555.008 724.872,565.993 724.471,566.277 724.639 C 568.302 725.840,516.481 788.156,512.074 789.821 C 509.638 790.740,464.453 737.053,458.846 726.578 C 457.149 723.406,461.310 723.362,506.880 726.071"
    fill-rule="evenodd"
  />
</svg>
