<svg class="icon" viewBox="0 0 1024 1024" xmlns="http://www.w3.org/2000/svg">
  <path
    d="M331.301 31.932 C 323.461 35.794,319.161 43.378,319.153 53.358 C 319.148 60.189,320.051 62.477,324.799 67.658 C 329.537 72.828,331.867 73.962,339.197 74.666 C 350.662 75.768,358.574 71.172,362.619 61.061 C 367.511 48.835,362.410 36.348,350.488 31.367 C 343.161 28.305,338.377 28.446,331.301 31.932 M314.638 134.748 C 306.013 136.805,297.965 142.690,293.908 149.908 C 290.615 155.768,290.133 159.154,290.133 176.446 L 290.133 196.267 342.187 196.267 L 394.240 196.267 394.240 180.809 C 394.240 160.035,391.797 151.157,383.909 143.269 C 379.267 138.627,375.142 136.381,368.736 135.007 C 358.993 132.917,323.036 132.745,314.638 134.748 M261.973 251.160 C 239.155 255.452,213.124 274.978,201.867 296.246 C 187.087 324.168,187.500 360.355,202.889 385.796 C 214.908 405.667,230.738 418.498,253.794 427.057 C 263.186 430.544,267.152 430.760,333.213 431.391 C 413.850 432.160,421.096 431.491,441.764 421.368 C 465.034 409.972,481.647 390.199,489.265 364.834 C 493.557 350.543,492.844 326.027,487.706 311.254 C 479.853 288.672,464.661 270.705,444.197 259.798 C 425.401 249.780,419.729 249.206,341.333 249.389 C 302.379 249.481,266.667 250.277,261.973 251.160 M93.013 291.111 C 77.185 299.343,75.093 305.131,75.093 340.702 C 75.093 367.987,75.273 369.501,79.345 376.448 C 86.052 387.893,93.390 391.427,112.150 392.247 C 120.867 392.629,128.000 392.273,128.000 391.456 C 128.000 390.640,126.861 384.596,125.470 378.026 C 122.086 362.054,122.070 320.268,125.440 302.657 C 126.848 295.300,128.000 289.088,128.000 288.853 C 128.000 288.619,121.280 288.431,113.067 288.437 C 102.879 288.444,96.506 289.294,93.013 291.111 M555.376 291.413 C 561.467 310.777,561.467 370.183,555.376 389.547 C 554.532 392.229,555.883 392.530,568.632 392.496 C 601.620 392.409,610.517 379.418,608.924 333.659 C 608.092 309.734,606.659 304.917,597.912 296.642 C 590.918 290.025,585.284 288.427,568.947 288.427 C 555.907 288.427,554.532 288.729,555.376 291.413 M871.680 330.517 C 872.853 330.990,874.773 330.990,875.947 330.517 C 877.120 330.044,876.160 329.656,873.813 329.656 C 871.467 329.656,870.507 330.044,871.680 330.517 M884.480 332.270 C 886.123 332.699,888.811 332.699,890.453 332.270 C 892.096 331.841,890.752 331.489,887.467 331.489 C 884.181 331.489,882.837 331.841,884.480 332.270 M901.284 335.145 C 915.013 338.845,925.276 349.570,928.217 363.291 C 940.177 419.092,938.021 555.803,924.763 582.335 C 918.134 595.599,910.811 599.734,886.157 604.133 C 845.174 611.444,827.014 613.055,775.680 613.933 L 724.480 614.809 707.020 631.963 C 688.939 649.726,687.920 652.032,697.125 654.342 C 703.952 656.055,708.801 652.923,728.622 633.994 L 747.668 615.805 769.354 616.967 C 814.982 619.412,914.044 609.096,931.469 600.085 C 938.170 596.620,946.427 586.967,948.660 579.986 C 953.332 565.387,959.147 504.031,959.147 469.333 C 959.147 431.031,953.021 370.881,947.863 358.533 C 942.373 345.390,932.375 338.503,913.920 335.150 C 898.427 332.335,890.850 332.332,901.284 335.145 M688.569 437.329 C 688.090 438.577,687.910 452.240,688.169 467.692 L 688.640 495.787 703.613 496.280 L 718.586 496.774 718.120 466.414 L 717.653 436.053 703.546 435.557 C 693.027 435.187,689.218 435.638,688.569 437.329 M736.356 437.329 C 735.877 438.577,735.697 452.240,735.956 467.692 L 736.427 495.787 750.933 495.787 L 765.440 495.787 765.440 465.920 L 765.440 436.053 751.333 435.557 C 740.814 435.187,737.005 435.638,736.356 437.329 M783.360 465.920 L 783.360 496.773 798.293 496.280 L 813.227 495.787 813.227 465.920 L 813.227 436.053 798.293 435.560 L 783.360 435.067 783.360 465.920 M221.708 546.560 C 221.621 546.795,218.616 582.699,215.030 626.347 C 208.165 709.928,208.155 715.327,214.846 728.290 C 219.085 736.504,229.124 746.043,238.933 751.179 L 246.613 755.200 337.067 755.703 C 399.359 756.049,429.911 755.614,435.200 754.306 C 452.441 750.042,466.045 736.883,471.985 718.722 C 474.836 710.004,474.744 707.558,468.628 630.078 C 465.169 586.255,462.017 549.440,461.623 548.267 C 461.059 546.587,435.484 546.133,341.387 546.133 C 275.651 546.133,221.795 546.325,221.708 546.560 M426.923 575.284 C 433.950 579.045,435.200 586.450,435.200 624.331 C 435.200 645.343,434.447 662.130,433.366 665.233 C 429.601 676.032,431.157 675.840,347.235 675.840 L 271.097 675.840 266.109 670.851 L 261.120 665.863 261.120 624.640 L 261.120 583.417 266.109 578.429 L 271.097 573.440 347.288 573.440 C 398.601 573.440,424.603 574.042,426.923 575.284 M294.410 696.749 C 297.383 699.306,299.192 702.937,299.818 707.601 C 300.633 713.680,300.077 715.371,295.620 720.359 C 291.329 725.162,289.300 726.109,283.307 726.109 C 277.368 726.109,275.278 725.155,271.185 720.574 C 264.416 712.998,264.432 704.692,271.229 697.895 C 277.639 691.485,287.712 690.987,294.410 696.749 M353.411 697.895 C 361.818 706.302,359.961 719.260,349.580 724.628 C 339.580 729.799,327.085 723.606,324.990 712.440 C 321.991 696.456,341.823 686.307,353.411 697.895 M283.663 923.869 L 284.160 975.632 289.082 982.082 C 297.848 993.569,303.329 994.906,341.815 994.949 C 378.638 994.990,382.943 994.155,391.145 985.384 C 393.666 982.687,396.546 978.318,397.545 975.676 C 398.675 972.685,399.360 952.230,399.360 921.489 L 399.360 872.107 341.263 872.107 L 283.165 872.107 283.663 923.869"
    fill="#e0860e"
    fill-rule="evenodd"
  />
</svg>
