<svg class="icon" viewBox="0 0 1987 1024" xmlns="http://www.w3.org/2000/svg">
  <path
    d="M849.442 58.258 C 706.792 66.695,636.165 73.318,551.059 86.240 C 383.910 111.620,239.149 155.406,164.484 203.169 C 136.994 220.754,118.293 239.135,97.053 269.448 C 65.008 315.178,54.008 359.951,57.478 430.517 C 62.609 534.874,86.094 618.367,120.330 653.965 L 134.123 668.307 126.403 683.187 C 109.039 716.655,114.766 746.029,145.028 778.716 C 166.514 801.923,189.611 818.354,226.849 836.922 C 434.484 940.456,874.065 987.970,1276.147 950.340 C 1672.108 913.284,1920.178 803.639,1868.737 688.421 C 1864.978 680.002,1856.346 666.962,1849.554 659.444 C 1842.761 651.926,1839.157 645.775,1841.545 645.775 C 1843.932 645.775,1870.949 651.143,1901.582 657.704 C 1932.215 664.265,1959.529 668.770,1962.280 667.714 C 1969.650 664.886,1972.013 655.860,1966.755 650.617 C 1963.361 647.233,1863.008 622.593,1852.619 622.593 C 1851.777 622.593,1854.073 616.740,1857.723 609.586 C 1886.044 554.071,1902.344 402.414,1886.689 340.063 C 1875.251 294.502,1842.301 245.554,1803.166 215.984 C 1703.134 140.401,1486.102 86.685,1183.921 62.718 C 1141.472 59.351,888.084 55.972,849.442 58.258 M1155.772 69.739 C 1561.775 93.369,1851.222 191.084,1851.222 304.517 C 1851.222 334.357,1818.294 373.453,1769.588 401.444 C 1612.513 491.715,1285.108 544.860,923.955 538.709 C 707.907 535.029,538.109 515.593,384.153 476.918 C 263.680 446.654,181.006 410.572,135.336 368.326 C 78.985 316.199,88.795 263.499,164.187 213.335 C 288.057 130.914,568.420 74.324,899.117 64.991 C 952.550 63.484,1092.905 66.080,1155.772 69.739 M1879.563 343.952 C 1889.713 391.840,1883.215 497.409,1866.141 562.000 C 1846.499 636.308,1814.057 671.571,1729.004 711.066 C 1612.442 765.192,1427.217 802.981,1185.577 821.934 C 1113.346 827.599,838.747 827.553,764.995 821.863 C 405.426 794.124,163.914 721.123,106.785 622.910 C 64.309 549.887,50.208 384.338,80.416 313.342 L 87.296 297.174 92.744 317.078 C 103.934 357.955,138.467 390.258,206.979 423.937 C 309.446 474.308,474.029 513.138,668.957 532.932 C 775.591 543.761,849.859 547.226,975.286 547.226 C 1207.163 547.226,1399.198 526.998,1567.383 484.858 C 1751.011 438.849,1857.111 373.058,1857.967 304.673 L 1858.153 289.771 1866.528 305.867 C 1871.134 314.721,1877.000 331.858,1879.563 343.952 M1783.203 415.342 C 1752.566 437.149,1734.215 447.367,1702.197 460.447 C 1630.399 489.776,1603.364 503.654,1590.681 517.692 C 1545.885 567.276,1540.672 682.497,1581.599 718.432 C 1597.397 732.303,1614.090 731.995,1652.599 717.122 C 1750.697 679.237,1829.182 624.474,1848.271 580.592 C 1865.649 540.644,1872.724 466.872,1863.100 425.965 C 1857.047 400.237,1848.766 389.395,1834.205 388.135 C 1824.476 387.292,1817.030 391.265,1783.203 415.342"
    fill="#d4d9e6"
    fill-rule="evenodd"
  />
</svg>
