<svg class="icon" viewBox="0 0 1024 1024" xmlns="http://www.w3.org/2000/svg">
  <path
    d="M471.040 30.717 C 469.009 33.321,464.130 34.550,447.425 36.663 C 373.540 46.012,308.975 70.162,246.613 111.774 C 216.041 132.174,198.840 146.055,172.579 171.516 C 102.205 239.749,57.458 320.914,37.559 416.427 C 35.045 428.493,32.761 435.272,30.566 437.180 C 27.719 439.655,25.746 450.560,28.145 450.560 C 28.606 450.560,34.800 448.551,41.909 446.096 C 66.719 437.528,78.764 441.651,102.935 466.984 C 109.441 473.803,117.268 480.570,120.327 482.022 C 126.770 485.080,128.134 489.538,126.745 502.998 L 125.816 512.000 76.561 512.000 C 29.527 512.000,27.307 512.144,27.307 515.202 C 27.307 518.266,29.465 518.395,77.191 518.189 L 127.076 517.973 129.959 529.920 C 131.544 536.491,132.904 544.502,132.981 547.723 C 133.142 554.486,148.596 587.254,159.897 604.795 C 179.436 635.120,209.667 657.515,249.173 670.928 L 265.387 676.433 393.387 677.945 C 551.640 679.814,734.490 678.679,746.667 675.752 C 797.818 663.458,823.056 650.596,847.205 624.511 C 859.342 611.403,867.847 598.860,878.524 578.327 C 887.025 561.980,889.742 553.338,891.867 535.893 C 892.496 530.731,893.664 524.779,894.463 522.667 L 895.916 518.827 948.983 518.827 L 1002.051 518.827 1001.505 514.987 L 1000.960 511.147 962.560 511.719 C 928.647 512.224,902.481 510.516,899.573 507.609 C 899.137 507.173,898.206 497.807,897.503 486.795 C 896.537 471.665,894.720 461.561,890.063 445.440 C 882.959 420.844,874.414 405.697,852.963 379.675 C 841.569 365.852,837.605 362.411,823.565 354.148 C 798.964 339.669,797.011 337.678,797.027 327.102 C 797.034 322.257,798.987 309.077,801.366 297.813 C 808.102 265.925,808.725 261.943,811.273 234.579 C 815.104 193.435,821.926 185.138,853.611 183.085 L 868.952 182.091 854.743 167.706 C 806.153 118.515,731.020 74.504,657.721 52.296 C 621.646 41.365,593.946 35.713,578.335 36.097 C 565.137 36.422,564.184 36.197,560.465 31.874 L 556.537 27.307 515.069 27.370 C 476.217 27.430,473.438 27.641,471.040 30.717 M385.073 835.794 C 384.582 837.462,383.693 844.971,383.097 852.480 C 381.284 875.326,365.109 872.940,521.837 872.951 C 669.040 872.961,663.651 873.327,667.225 863.074 C 671.094 851.977,668.001 837.095,661.297 834.546 C 659.160 833.734,596.337 833.000,521.689 832.915 C 393.043 832.769,385.919 832.920,385.073 835.794"
    fill="#efefef"
    fill-rule="evenodd"
  />
</svg>
