<svg class="icon" viewBox="0 0 1207 1024" xmlns="http://www.w3.org/2000/svg">
  <path
    d="M912.291 61.529 C 908.972 61.969,898.237 63.334,888.435 64.563 C 848.509 69.571,789.905 96.229,739.288 132.409 C 685.905 170.566,659.319 201.299,658.960 225.270 C 658.612 248.437,678.636 257.430,737.276 260.447 C 768.640 262.060,785.934 264.517,796.944 268.922 L 805.129 272.197 804.301 289.522 C 803.845 299.050,802.784 307.960,801.943 309.321 C 800.864 311.067,796.275 308.494,786.371 300.592 C 768.234 286.121,754.369 279.910,731.576 276.048 C 693.936 269.671,657.963 278.434,635.170 299.531 C 622.989 310.807,607.663 329.840,600.924 342.062 L 597.342 348.558 589.649 332.698 C 562.152 276.011,510.876 221.033,463.689 197.641 C 426.954 179.431,399.475 173.107,350.487 171.592 C 296.537 169.923,271.387 175.017,228.324 196.337 C 200.214 210.255,175.889 228.393,147.720 256.444 C 112.926 291.091,90.588 328.245,72.101 382.217 C 64.134 405.475,63.483 408.948,63.428 428.485 C 63.374 447.217,63.972 450.897,68.710 461.004 C 75.045 474.516,79.925 478.132,95.776 481.059 C 112.244 484.099,113.058 484.726,117.910 498.088 C 123.531 513.569,133.049 530.066,152.309 557.709 C 180.284 597.861,211.834 625.090,251.688 643.477 C 283.298 658.061,327.294 670.548,362.701 674.986 L 372.355 676.196 360.690 683.776 C 339.962 697.243,324.034 718.527,323.923 732.904 C 323.894 736.548,325.991 740.704,329.759 744.471 C 335.037 749.750,336.961 750.352,348.562 750.352 L 361.485 750.352 356.647 760.127 C 353.986 765.503,351.288 774.957,350.650 781.135 C 349.561 791.689,349.862 792.738,355.641 798.517 C 363.841 806.717,375.585 807.268,397.266 800.469 C 403.925 798.381,410.097 796.660,410.980 796.646 C 411.863 796.632,409.947 800.467,406.724 805.170 C 391.910 826.779,384.779 849.362,386.958 867.762 C 388.345 879.476,393.766 886.222,403.218 887.995 C 410.280 889.320,438.029 884.567,478.777 875.053 C 548.768 858.710,570.187 854.293,601.062 849.835 C 641.945 843.931,650.266 843.826,680.409 848.828 C 709.679 853.685,705.727 853.582,807.684 852.155 C 885.294 851.069,893.485 851.275,908.268 854.694 C 934.309 860.715,964.978 870.118,987.300 878.925 C 1010.709 888.161,1023.457 881.798,1021.206 861.999 C 1020.577 856.467,1019.495 849.994,1018.801 847.614 C 1017.742 843.986,1018.572 843.061,1023.943 841.882 C 1028.801 840.814,1031.098 838.703,1033.463 833.132 C 1036.645 825.632,1036.113 821.629,1028.936 799.135 C 1027.682 795.204,1028.205 794.608,1032.911 794.608 C 1039.756 794.608,1050.090 784.609,1050.090 777.985 C 1050.090 763.387,1026.074 731.488,1008.228 722.384 C 997.234 716.775,996.310 712.123,1002.776 694.943 C 1008.880 678.726,1013.720 672.896,1023.731 669.699 C 1037.539 665.291,1058.707 652.974,1069.623 642.998 C 1080.760 632.819,1090.092 619.808,1099.324 601.591 C 1102.135 596.042,1106.521 590.136,1109.069 588.467 C 1120.930 580.695,1128.035 553.325,1125.792 524.039 C 1122.125 476.144,1095.106 426.873,1061.404 406.628 C 1045.020 396.785,1018.856 388.354,1000.241 386.919 L 984.325 385.691 981.764 375.700 C 972.931 341.234,944.452 309.398,918.232 304.677 C 903.892 302.096,903.748 300.974,916.540 291.532 C 923.054 286.724,936.332 275.133,946.047 265.773 C 968.900 243.755,978.430 226.062,978.500 205.519 C 978.615 171.850,951.995 154.975,898.581 154.858 L 880.104 154.817 891.300 144.297 C 897.458 138.510,912.246 124.814,924.163 113.860 C 947.269 92.620,955.124 81.055,952.781 71.720 C 952.060 68.850,949.803 65.608,947.764 64.517 C 943.491 62.230,921.184 60.351,912.291 61.529 M929.979 85.543 C 924.652 92.264,884.986 127.754,860.592 147.626 C 849.405 156.738,839.262 170.048,841.669 172.455 C 842.357 173.143,863.529 173.774,888.717 173.858 C 933.503 174.006,934.730 174.120,944.317 179.051 C 949.709 181.824,955.971 186.571,958.233 189.601 C 964.136 197.507,963.514 212.254,956.690 226.201 C 945.990 248.072,902.189 285.517,864.939 304.639 C 854.471 310.013,839.693 318.399,832.099 323.274 C 824.505 328.150,817.840 331.688,817.289 331.136 C 816.737 330.584,817.243 324.426,818.412 317.450 C 819.582 310.475,821.161 296.362,821.920 286.089 C 823.504 264.671,824.449 263.528,840.580 263.528 C 853.095 263.528,856.970 262.088,856.970 257.438 C 856.970 255.067,855.033 253.402,851.438 252.683 C 837.250 249.846,810.064 247.440,769.462 245.430 C 692.496 241.620,677.521 238.490,676.307 225.958 C 675.463 217.255,681.644 205.917,695.232 191.239 C 729.921 153.771,803.816 106.806,854.958 89.722 C 878.691 81.795,894.527 79.066,918.915 78.703 L 935.597 78.455 929.979 85.543 M385.609 190.204 C 409.902 193.812,436.194 201.930,456.184 211.997 C 511.475 239.841,570.958 313.482,586.740 373.627 C 599.054 420.555,591.663 497.937,570.052 548.340 C 560.645 570.281,536.591 601.050,517.996 614.929 C 488.869 636.669,450.040 653.140,416.565 657.955 C 370.926 664.519,307.561 651.701,252.464 624.758 C 225.956 611.795,208.714 599.085,189.813 578.572 C 165.927 552.650,143.930 510.368,141.356 485.432 L 140.262 474.834 154.118 468.595 C 174.587 459.378,196.652 452.447,209.500 451.197 C 219.865 450.190,221.114 450.509,223.884 454.880 C 225.553 457.512,227.934 464.645,229.176 470.730 C 236.342 505.841,248.823 524.424,269.224 530.354 C 288.364 535.919,317.357 533.136,386.153 519.132 C 456.814 504.748,451.355 503.698,455.697 532.505 C 457.106 541.852,462.483 545.478,468.064 540.847 C 472.272 537.354,470.747 508.651,465.851 499.183 C 460.765 489.349,455.090 488.133,435.860 492.756 C 374.817 507.433,318.294 516.998,292.603 516.998 C 270.900 516.998,262.288 512.923,254.830 499.121 C 248.392 487.210,246.144 478.283,243.528 454.233 C 241.073 431.671,238.533 424.828,232.003 423.190 C 225.085 421.453,219.967 423.137,178.032 440.942 C 118.637 466.162,104.640 469.948,93.017 463.938 C 77.043 455.677,74.738 426.009,87.214 389.257 C 96.872 360.808,113.575 326.052,127.097 306.269 C 140.668 286.414,183.551 243.445,203.179 230.034 C 231.812 210.471,266.027 195.549,294.709 190.116 C 314.306 186.403,360.314 186.448,385.609 190.204 M968.944 404.848 C 968.386 406.231,967.929 405.099,967.929 402.333 C 967.929 399.567,968.386 398.436,968.944 399.819 C 969.502 401.202,969.502 403.465,968.944 404.848 M1025.950 408.793 C 1062.498 419.565,1093.310 454.665,1104.537 498.317 C 1110.126 520.045,1110.168 553.725,1104.622 566.263 C 1099.167 578.594,1094.106 579.526,1077.232 571.306 C 1061.766 563.771,1052.843 564.162,1046.154 572.665 C 1037.194 584.056,1044.387 601.156,1054.067 591.476 C 1056.305 589.238,1058.137 586.049,1058.137 584.389 C 1058.137 580.116,1061.163 580.618,1071.333 586.578 C 1081.507 592.540,1081.441 593.012,1068.351 607.878 C 1060.679 616.591,1060.369 617.380,1064.147 618.580 C 1067.834 619.750,1067.947 620.273,1065.325 624.016 C 1061.004 630.186,1044.870 641.284,1029.024 648.986 C 1007.617 659.392,1007.847 659.542,1007.833 635.184 C 1007.806 588.485,993.928 538.261,974.754 515.474 C 970.585 510.519,969.939 508.384,971.425 504.475 C 974.562 496.223,981.361 462.576,983.685 443.800 C 986.052 424.677,988.605 417.944,996.087 411.084 C 1003.519 404.269,1009.138 403.838,1025.950 408.793 M794.563 558.144 C 807.570 585.013,847.759 607.856,876.759 604.863 C 904.756 601.973,936.118 578.157,953.389 546.670 C 958.092 538.096,962.685 531.080,963.594 531.080 C 966.274 531.080,976.669 560.451,982.817 585.395 C 990.136 615.094,991.072 656.155,984.950 678.938 C 979.878 697.809,968.174 724.675,959.012 738.474 C 950.723 750.961,919.908 782.535,904.273 794.564 C 881.966 811.726,852.859 825.293,818.896 834.360 C 801.547 838.991,795.849 839.511,761.416 839.604 C 720.461 839.714,693.316 836.223,651.780 825.501 C 622.953 818.059,617.160 814.576,600.776 794.829 C 578.785 768.327,569.570 759.981,554.214 752.665 C 537.398 744.653,525.157 736.108,505.026 718.328 C 480.588 696.745,470.821 685.740,468.521 677.198 C 465.068 664.374,466.911 661.577,483.790 654.024 C 517.787 638.814,556.913 607.193,573.687 581.372 C 577.640 575.286,584.775 562.839,589.543 553.711 C 597.343 538.778,601.488 533.677,601.488 539.012 C 601.488 540.055,606.586 546.415,612.817 553.145 C 629.014 570.640,650.119 580.177,682.264 584.527 C 693.586 586.059,710.013 581.727,726.939 572.747 C 742.379 564.555,766.545 541.824,775.861 526.731 L 783.268 514.731 786.762 531.989 C 788.684 541.480,792.194 553.250,794.563 558.144 M736.750 580.773 C 735.354 581.295,733.276 583.471,732.132 585.608 C 725.208 598.546,756.667 615.807,786.481 615.429 C 798.966 615.270,810.552 611.941,799.500 611.688 C 791.264 611.499,773.625 606.152,762.267 600.401 C 753.719 596.072,747.994 591.237,741.796 583.112 C 740.416 581.303,738.146 580.250,736.750 580.773 M437.538 684.187 C 449.280 687.411,451.104 689.395,447.453 694.967 C 445.268 698.302,441.061 700.228,432.131 701.985 C 417.739 704.817,400.279 712.163,390.855 719.350 C 382.971 725.364,365.634 731.639,351.857 733.467 C 343.435 734.584,341.983 734.280,341.983 731.400 C 341.983 725.295,347.690 716.822,358.109 707.453 C 380.320 687.484,413.814 677.673,437.538 684.187 M475.117 719.736 C 477.146 721.764,473.834 731.014,469.012 736.785 C 465.663 740.795,465.602 740.690,473.733 744.866 L 479.754 747.959 468.704 752.925 C 462.627 755.656,452.223 761.624,445.584 766.186 C 438.946 770.749,431.659 774.484,429.392 774.487 C 427.124 774.490,416.714 777.191,406.257 780.489 C 383.722 787.599,369.229 789.959,367.297 786.833 C 363.367 780.474,377.781 753.314,393.743 737.001 C 402.176 728.383,417.501 721.270,434.520 718.074 C 445.372 716.036,472.529 717.148,475.117 719.736 M1011.817 745.516 C 1019.853 752.775,1031.985 770.010,1031.985 774.165 C 1031.985 780.730,1014.601 772.632,999.071 758.833 C 993.200 753.615,986.661 748.341,984.542 747.113 C 980.821 744.957,980.809 744.624,984.197 737.511 L 987.707 730.143 995.855 734.299 C 1000.336 736.585,1007.519 741.633,1011.817 745.516 M538.450 765.610 C 557.652 770.893,564.349 786.148,555.067 803.466 L 550.890 811.258 560.096 820.605 C 565.159 825.745,569.302 830.580,569.302 831.349 C 569.302 834.259,553.552 840.564,536.109 844.636 C 416.615 872.532,406.054 874.383,403.554 867.870 C 399.825 858.150,406.842 835.698,419.622 816.462 C 437.341 789.789,470.042 765.903,493.634 762.400 C 506.336 760.514,524.708 761.830,538.450 765.610 M979.579 763.375 C 993.206 770.421,1017.903 807.573,1017.903 821.025 L 1017.903 826.911 1002.313 815.688 C 986.943 804.624,957.236 788.573,952.128 788.573 C 950.686 788.573,949.507 788.044,949.507 787.396 C 949.507 786.222,972.099 760.600,973.244 760.476 C 973.575 760.440,976.426 761.744,979.579 763.375 M972.985 812.997 C 983.008 816.038,995.026 825.806,1000.740 835.557 C 1007.026 846.283,1009.814 863.831,1005.495 865.488 C 1003.935 866.087,992.283 862.999,979.603 858.626 C 966.922 854.253,944.332 847.302,929.402 843.180 C 899.645 834.964,896.902 832.688,905.571 823.407 C 911.806 816.732,920.538 812.246,930.396 810.655 C 940.292 809.057,964.362 810.380,972.985 812.997"
    fill="#fbfbf4"
    fill-rule="evenodd"
  />
</svg>
