<svg class="icon" viewBox="0 0 1024 1024" xmlns="http://www.w3.org/2000/svg">
  <path
    d="M117.760 28.230 C 102.452 31.514,80.763 42.858,68.398 54.048 C 55.074 66.105,42.079 85.971,36.210 103.253 L 31.573 116.907 31.120 434.293 C 30.724 712.065,30.991 753.557,33.263 766.724 C 39.603 803.460,57.860 828.491,88.914 843.023 C 109.729 852.763,116.954 853.333,219.626 853.333 C 322.948 853.333,320.678 853.570,327.792 842.058 C 331.021 836.834,331.316 834.191,330.806 815.066 C 330.276 795.196,329.972 793.578,325.973 789.303 C 316.997 779.707,319.553 779.947,225.989 779.947 C 166.113 779.947,137.488 779.347,132.987 777.999 C 123.563 775.175,114.495 766.947,109.877 757.028 L 105.847 748.373 105.867 448.853 C 105.888 151.311,105.911 149.283,109.361 141.653 C 113.611 132.252,121.488 123.795,130.560 118.890 L 137.387 115.200 520.533 115.200 L 903.680 115.200 910.507 118.890 C 919.579 123.795,927.455 132.252,931.706 141.653 C 935.155 149.283,935.179 151.311,935.199 448.853 L 935.220 748.373 931.190 757.028 C 926.571 766.947,917.503 775.175,908.079 777.999 C 903.511 779.367,870.117 779.947,795.788 779.947 L 689.998 779.947 684.356 783.787 C 673.008 791.510,671.573 795.164,671.573 816.338 C 671.573 838.205,673.996 844.619,684.347 850.154 C 689.973 853.162,696.284 853.333,801.530 853.333 C 927.577 853.333,929.343 853.192,953.663 841.144 C 979.481 828.355,998.170 804.509,1006.309 773.973 C 1009.364 762.513,1009.493 748.885,1009.493 439.467 L 1009.493 116.907 1004.857 103.253 C 993.448 69.657,965.480 41.680,931.866 30.238 L 920.747 26.453 524.800 26.152 C 191.767 25.898,127.091 26.228,117.760 28.230 M197.434 198.645 C 182.746 204.096,179.200 211.578,179.200 237.113 C 179.200 259.300,181.111 265.324,190.402 272.415 C 196.755 277.264,197.207 277.341,222.583 277.855 C 246.654 278.342,248.817 278.121,256.000 274.441 C 261.566 271.590,264.766 268.393,267.627 262.827 C 271.198 255.877,271.523 253.280,271.039 235.520 C 270.585 218.899,269.934 214.978,266.783 209.920 C 260.003 199.035,254.778 197.263,227.840 196.714 C 210.412 196.360,202.184 196.882,197.434 198.645 M317.909 197.845 C 302.134 201.818,297.051 211.406,296.997 237.292 C 296.950 259.950,300.421 268.379,312.255 274.347 C 319.048 277.772,322.364 278.183,342.975 278.149 C 369.426 278.106,377.171 275.824,384.169 266.012 C 388.009 260.628,388.267 258.816,388.267 237.227 C 388.267 215.835,387.982 213.788,384.292 208.614 C 377.321 198.841,372.182 197.240,346.453 196.828 C 333.781 196.625,320.937 197.083,317.909 197.845 M453.120 202.114 C 441.577 209.060,439.467 214.506,439.467 237.351 C 439.467 255.881,439.748 257.527,444.008 263.965 C 446.505 267.739,451.497 272.291,455.101 274.080 C 461.427 277.221,468.173 277.333,650.240 277.333 C 832.307 277.333,839.053 277.221,845.379 274.080 C 848.983 272.291,853.975 267.739,856.472 263.965 C 860.732 257.527,861.013 255.881,861.013 237.351 C 861.013 214.507,858.559 208.366,846.785 201.748 L 840.069 197.973 650.008 197.989 L 459.947 198.006 453.120 202.114 M512.632 481.767 C 505.860 485.629,334.886 677.645,333.975 682.411 C 332.860 688.242,336.471 696.818,341.533 700.364 C 344.983 702.780,351.976 703.147,394.620 703.147 L 443.733 703.147 443.732 728.320 C 443.726 830.925,419.943 895.116,365.793 938.678 C 340.723 958.845,307.120 976.038,264.228 990.643 L 241.493 998.383 261.120 998.373 C 311.060 998.348,376.647 986.737,419.682 970.304 C 461.503 954.334,491.798 935.124,520.598 906.312 C 554.936 871.960,574.806 836.330,588.049 785.361 C 593.165 765.671,597.333 734.849,597.333 716.713 L 597.333 703.147 646.447 703.147 C 701.070 703.147,701.191 703.123,705.981 691.660 C 708.215 686.312,708.154 685.136,705.346 679.510 C 702.163 673.134,539.519 489.500,531.393 483.108 C 526.405 479.184,518.190 478.597,512.632 481.767"
    fill="#292d32"
    fill-rule="evenodd"
  />
</svg>
