<svg class="icon" viewBox="0 0 1024 1024" xmlns="http://www.w3.org/2000/svg">
  <path
    d="M288.000 170.143 L 121.173 275.373 121.173 459.982 C 121.173 639.440,121.083 644.673,117.918 647.537 C 112.034 652.862,107.045 667.276,106.941 679.253 C 106.700 707.104,129.974 731.068,159.573 733.443 C 186.985 735.644,212.423 716.252,218.655 688.406 C 221.316 676.514,218.743 664.448,210.695 651.082 L 204.800 641.293 204.887 481.500 L 204.975 321.707 330.028 244.153 C 398.808 201.498,455.996 166.295,457.113 165.922 C 458.660 165.407,459.037 177.358,458.692 216.045 L 458.240 266.845 374.187 318.980 L 290.133 371.116 290.133 563.320 L 290.133 755.524 286.472 758.775 C 281.294 763.374,276.767 774.346,275.460 785.465 C 274.598 792.798,275.204 797.818,278.101 807.357 C 281.295 817.871,283.319 821.192,291.556 829.429 C 304.307 842.180,316.592 847.072,333.653 846.194 C 348.217 845.445,358.846 840.671,369.359 830.159 C 387.892 811.625,390.858 785.586,376.935 763.633 L 372.037 755.909 372.472 587.599 L 372.907 419.289 412.160 394.002 C 433.749 380.094,451.989 368.698,452.693 368.678 C 453.397 368.657,453.973 479.248,453.973 614.437 L 453.973 860.233 449.773 866.597 C 439.094 882.775,436.807 904.140,443.796 922.441 C 449.132 936.414,463.052 950.334,477.026 955.671 C 500.035 964.458,524.272 959.278,541.268 941.940 C 562.787 919.988,564.506 886.497,545.266 864.020 L 539.307 857.057 539.307 586.551 L 539.307 316.045 580.693 289.532 L 622.080 263.018 622.512 508.707 L 622.945 754.396 618.951 760.771 C 608.179 777.968,605.429 799.118,611.622 817.146 C 615.768 829.216,630.115 844.717,642.115 850.093 C 649.482 853.393,654.004 854.122,667.307 854.151 C 681.329 854.182,684.789 853.581,692.907 849.707 C 704.927 843.970,716.085 832.824,721.734 820.907 C 725.505 812.954,726.185 809.174,726.186 796.160 C 726.187 782.663,725.602 779.661,721.371 771.413 C 718.722 766.251,714.690 760.065,712.411 757.667 L 708.267 753.307 708.313 583.587 L 708.360 413.867 750.127 386.130 L 791.893 358.393 791.893 501.492 L 791.893 644.591 788.298 647.842 C 786.321 649.630,783.066 654.165,781.066 657.920 C 775.756 667.884,775.887 690.411,781.325 702.293 C 786.238 713.030,797.054 724.282,808.107 730.155 C 815.521 734.094,818.654 734.689,832.000 734.689 C 845.346 734.689,848.479 734.094,855.893 730.155 C 879.922 717.388,892.519 690.085,884.995 667.082 C 883.384 662.157,879.829 654.875,877.095 650.901 L 872.123 643.676 871.688 476.106 L 871.253 308.537 831.147 284.797 C 809.088 271.741,789.853 261.343,788.401 261.692 C 786.950 262.040,768.338 273.958,747.042 288.176 C 725.746 302.394,707.937 314.027,707.466 314.027 C 706.995 314.027,706.407 290.819,706.158 262.453 L 705.707 210.879 664.320 186.470 L 622.933 162.060 581.546 188.582 L 540.160 215.103 539.307 163.685 L 538.453 112.268 498.347 88.578 C 476.288 75.548,457.472 64.893,456.533 64.901 C 455.595 64.908,379.755 112.267,288.000 170.143"
    fill="#506bee"
    fill-rule="evenodd"
  />
</svg>
