<svg class="icon" viewBox="0 0 1024 1024" xmlns="http://www.w3.org/2000/svg">
  <path
    d="M413.678 9.375 C 404.314 14.041,398.945 20.204,394.654 31.210 C 392.385 37.030,391.672 47.608,390.912 86.730 L 389.973 135.059 372.783 141.543 C 334.111 156.129,291.057 181.087,260.125 206.851 L 244.623 219.762 206.365 197.584 C 185.323 185.385,165.130 174.339,161.492 173.036 C 146.374 167.621,127.347 171.215,118.442 181.167 C 116.471 183.371,95.463 218.820,71.759 259.943 C 41.997 311.576,28.382 336.791,27.760 341.429 C 27.265 345.123,27.875 351.773,29.116 356.206 C 33.013 370.126,43.761 378.963,86.801 403.635 L 124.962 425.510 124.059 431.635 C 123.562 435.004,121.798 446.208,120.139 456.533 C 114.398 492.256,116.408 554.047,124.452 589.156 L 125.902 595.486 86.952 617.975 C 65.529 630.344,45.334 642.662,42.075 645.349 C 30.493 654.896,24.540 673.343,29.104 685.542 C 33.015 695.996,115.548 837.145,120.723 842.231 C 129.837 851.188,144.017 853.837,158.875 849.359 C 163.014 848.111,183.920 836.946,205.333 824.547 C 243.940 802.192,244.298 802.029,248.207 805.055 C 250.374 806.733,257.441 812.463,263.911 817.786 C 293.098 841.805,336.204 866.297,373.199 879.883 L 390.557 886.258 391.119 935.076 L 391.680 983.893 396.800 994.059 C 399.696 999.808,404.769 1006.482,408.477 1009.419 L 415.034 1014.613 506.611 1015.131 C 567.376 1015.475,600.268 1015.042,604.374 1013.846 C 613.091 1011.307,623.778 999.151,627.086 988.012 C 629.225 980.810,629.762 969.760,629.770 932.810 L 629.780 886.613 648.059 879.898 C 689.989 864.494,733.369 838.991,766.651 810.177 L 776.396 801.741 814.048 823.448 C 834.757 835.388,855.532 846.612,860.215 848.391 C 874.341 853.759,889.549 851.985,899.228 843.840 C 903.272 840.438,953.046 756.617,988.130 694.126 C 997.267 677.853,995.007 661.709,981.677 648.020 C 978.052 644.298,959.359 632.366,937.813 620.021 C 917.163 608.189,899.294 597.627,898.105 596.551 C 896.367 594.978,896.681 590.592,899.704 574.204 C 902.958 556.568,903.462 547.935,903.437 510.293 C 903.411 473.014,902.874 463.859,899.687 446.452 C 897.641 435.276,896.166 425.936,896.410 425.698 C 896.654 425.460,913.716 415.535,934.325 403.643 C 954.935 391.752,974.670 379.747,978.182 376.966 C 981.693 374.185,986.619 367.714,989.127 362.586 C 992.913 354.849,993.560 351.595,992.928 343.458 C 992.217 334.292,989.354 328.791,948.965 258.980 C 925.203 217.910,903.758 182.283,901.308 179.808 C 894.850 173.285,887.312 170.662,875.148 170.704 C 861.894 170.750,859.865 171.658,814.654 197.763 C 794.945 209.143,778.028 218.453,777.062 218.453 C 776.096 218.453,769.245 213.391,761.839 207.203 C 727.730 178.706,675.213 149.477,635.733 137.016 L 630.613 135.400 629.760 85.193 C 628.935 36.648,628.773 34.717,624.855 26.830 C 620.158 17.373,610.991 9.177,602.453 6.801 C 598.938 5.823,560.619 5.135,509.348 5.130 L 422.217 5.120 413.678 9.375 M581.973 112.311 L 581.973 171.715 594.347 174.869 C 653.247 189.880,708.348 220.728,751.840 263.040 L 768.960 279.695 819.106 250.732 C 846.686 234.802,869.930 221.994,870.759 222.271 C 872.203 222.752,942.435 343.364,941.621 343.964 C 941.404 344.124,925.483 353.303,906.240 364.362 C 886.997 375.421,864.229 388.585,855.645 393.616 L 840.036 402.763 844.128 418.555 C 852.557 451.080,855.554 474.769,855.625 509.440 C 855.661 527.275,854.734 548.395,853.564 556.373 C 851.517 570.337,842.774 610.775,840.639 616.158 C 839.848 618.151,851.739 625.773,890.861 648.352 L 942.118 677.935 938.893 683.288 C 937.119 686.231,921.278 713.600,903.690 744.107 C 886.102 774.613,871.490 799.820,871.218 800.122 C 870.947 800.424,847.975 787.523,820.171 771.452 L 769.616 742.234 752.168 758.444 C 702.910 804.206,658.105 829.070,591.787 847.443 L 581.973 850.162 581.973 908.921 L 581.973 967.680 511.147 967.680 L 440.320 967.680 440.320 908.866 L 440.320 850.052 433.067 848.234 C 369.519 832.306,316.983 803.747,272.126 760.747 C 261.600 750.656,252.643 742.400,252.221 742.400 C 251.800 742.400,228.862 755.441,201.248 771.379 C 155.414 797.834,150.848 800.101,148.830 797.406 C 147.615 795.782,131.607 768.441,113.256 736.649 C 85.824 689.122,80.299 678.471,82.186 676.749 C 83.448 675.597,106.176 662.183,132.693 646.940 C 159.211 631.697,180.907 618.854,180.907 618.402 C 180.907 617.949,179.033 610.143,176.743 601.056 C 167.727 565.281,166.499 554.551,166.448 511.147 C 166.397 467.444,167.208 460.023,176.029 423.503 C 178.830 411.907,180.881 402.243,180.588 402.028 C 180.294 401.812,157.557 388.705,130.062 372.900 C 91.260 350.596,80.301 343.561,81.096 341.469 C 83.871 334.166,149.563 221.934,151.040 221.974 C 151.979 221.999,175.019 234.924,202.240 250.696 L 251.733 279.373 268.800 263.235 C 312.845 221.587,361.189 193.717,417.280 177.637 L 439.467 171.276 439.915 112.091 L 440.364 52.907 511.169 52.907 L 581.973 52.907 581.973 112.311 M415.138 368.314 L 320.835 415.589 416.006 463.150 L 511.177 510.711 605.455 463.566 C 657.308 437.636,699.733 416.039,699.733 415.573 C 699.733 414.538,512.533 320.816,510.726 320.947 C 510.019 320.998,467.004 342.314,415.138 368.314 M320.853 552.103 L 320.853 619.513 401.060 659.623 C 445.173 681.684,481.653 699.733,482.126 699.733 C 482.599 699.733,482.987 669.399,482.987 632.324 L 482.987 564.914 402.780 524.804 C 358.667 502.743,322.187 484.693,321.714 484.693 C 321.241 484.693,320.853 515.028,320.853 552.103 M618.240 525.314 L 537.600 565.743 537.600 632.738 C 537.600 676.449,538.196 699.733,539.314 699.733 C 540.256 699.733,577.120 681.684,621.234 659.623 L 701.440 619.513 701.440 552.103 C 701.440 515.028,700.864 484.736,700.160 484.789 C 699.456 484.842,662.592 503.078,618.240 525.314"
    fill-rule="evenodd"
  />
</svg>
