<svg class="icon" viewBox="0 0 1024 1024" xmlns="http://www.w3.org/2000/svg">
  <path
    d="M320.853 94.851 C 218.069 127.184,128.663 155.235,122.174 157.188 L 110.374 160.738 111.455 404.759 L 112.535 648.781 118.724 667.004 C 132.677 708.085,157.767 751.100,186.594 783.360 C 231.223 833.304,297.605 877.680,436.601 950.490 C 458.491 961.956,483.835 975.255,492.921 980.041 L 509.440 988.744 556.373 965.177 C 697.406 894.359,777.813 843.940,824.357 797.140 C 860.762 760.533,885.967 719.543,903.143 669.013 L 910.395 647.680 911.515 538.453 C 912.131 478.379,912.728 368.555,912.842 294.400 L 913.048 159.573 713.804 97.674 C 604.220 63.629,513.024 35.840,511.147 35.920 C 509.269 35.999,423.637 62.518,320.853 94.851 M712.533 103.946 L 907.093 165.000 906.520 401.220 L 905.946 637.440 901.662 653.653 C 890.947 694.203,869.422 736.195,842.162 769.731 C 829.632 785.145,798.869 814.733,782.507 827.108 C 735.491 862.666,669.717 901.387,567.142 953.894 L 511.147 982.558 486.400 969.763 C 310.535 878.835,237.325 831.606,190.841 779.093 C 163.044 747.691,140.096 708.288,126.466 668.557 L 119.577 648.473 117.752 407.642 C 116.748 275.185,116.398 166.340,116.972 165.765 C 119.427 163.311,511.466 41.361,514.560 42.089 C 516.437 42.531,605.525 70.367,712.533 103.946 M502.613 70.606 C 498.859 71.826,415.229 98.072,316.770 128.929 L 137.754 185.034 138.698 412.090 L 139.641 639.147 145.139 655.360 C 162.591 706.830,186.328 744.413,225.561 782.692 C 267.466 823.579,321.497 857.555,466.773 934.372 L 507.733 956.030 549.547 935.255 C 621.290 899.611,673.637 870.688,720.077 841.034 C 805.005 786.805,848.967 735.230,874.745 659.581 L 881.127 640.853 882.424 588.800 C 883.138 560.171,883.929 457.661,884.183 361.000 L 884.645 185.253 702.163 127.671 C 601.797 96.001,517.376 69.706,514.560 69.238 C 511.744 68.770,506.368 69.385,502.613 70.606 M750.713 282.365 C 765.113 285.947,781.773 292.649,794.880 300.131 L 805.547 306.220 805.547 339.223 L 805.547 372.226 794.613 364.424 C 781.370 354.974,759.162 344.466,744.107 340.526 C 729.975 336.828,693.597 335.228,680.287 337.719 C 667.918 340.034,652.736 346.815,646.185 352.950 C 635.932 362.551,632.258 379.121,636.927 394.704 C 638.053 398.462,642.659 405.568,647.162 410.496 C 656.760 420.997,669.572 428.048,709.120 444.592 C 787.165 477.241,813.015 498.601,823.743 539.307 C 827.368 553.061,827.755 582.582,824.482 595.627 C 810.617 650.886,758.499 680.936,676.490 680.955 C 634.766 680.965,598.124 670.463,564.495 648.856 L 554.697 642.560 554.682 611.413 C 554.673 594.283,555.033 580.267,555.480 580.267 C 555.927 580.267,561.495 583.772,567.853 588.057 C 601.609 610.803,643.310 623.181,686.080 623.150 C 736.845 623.113,762.973 605.849,763.079 572.269 C 763.163 545.672,749.393 533.865,687.787 507.706 C 639.857 487.354,616.603 473.768,599.040 455.858 C 592.698 449.391,585.898 440.319,583.165 434.679 C 568.040 403.472,567.909 362.390,582.853 336.857 C 599.877 307.771,633.378 287.668,676.693 280.549 C 694.290 277.656,735.891 278.677,750.713 282.365 M518.827 318.293 L 518.827 346.453 451.413 346.453 L 384.000 346.453 384.000 509.440 L 384.000 672.427 353.280 672.427 L 322.560 672.427 322.560 509.440 L 322.560 346.453 255.147 346.453 L 187.733 346.453 187.733 318.293 L 187.733 290.133 353.280 290.133 L 518.827 290.133 518.827 318.293"
    fill="#726cf0"
    fill-rule="evenodd"
  />
</svg>
