<svg class="icon" viewBox="0 0 1024 1024" xmlns="http://www.w3.org/2000/svg">
  <path
    d="M564.944 37.837 C 460.303 58.444,374.383 75.608,374.012 75.979 C 373.640 76.351,372.047 98.552,370.471 125.316 C 368.894 152.080,367.061 174.522,366.396 175.186 C 365.731 175.851,288.907 162.755,195.676 146.083 C 40.278 118.293,25.551 115.935,18.786 117.757 C 4.814 121.519,-2.641 134.445,1.107 148.411 C 2.335 152.986,436.640 917.263,485.811 1001.378 C 493.145 1013.924,496.409 1017.857,501.743 1020.578 C 512.439 1026.035,525.744 1024.125,532.739 1016.129 C 536.475 1011.857,1011.683 161.846,1016.002 151.711 C 1018.476 145.903,1019.030 142.133,1018.121 137.288 C 1016.534 128.830,1006.408 118.457,998.243 116.925 C 994.036 116.135,951.128 123.320,852.408 141.345 C 775.477 155.392,712.179 166.549,711.746 166.139 C 711.312 165.729,721.491 128.756,734.365 83.977 C 747.239 39.197,757.769 1.984,757.766 1.280 C 757.758 -0.326,783.952 -5.292,564.944 37.837 M202.768 179.038 C 291.293 194.883,364.117 208.241,364.598 208.723 C 365.080 209.204,361.996 268.201,357.747 339.827 C 353.497 411.453,350.182 470.217,350.379 470.415 C 350.577 470.612,380.586 463.886,417.067 455.467 C 453.547 447.048,483.740 440.505,484.162 440.927 C 484.584 441.349,476.677 482.082,466.592 531.445 C 456.506 580.809,448.776 621.719,449.414 622.357 C 450.052 622.995,472.543 616.813,499.393 608.620 C 526.244 600.427,548.589 594.100,549.050 594.561 C 549.511 595.022,538.569 650.170,524.735 717.113 C 510.901 784.055,499.639 841.016,499.709 843.692 C 499.990 854.542,512.550 858.916,521.269 851.200 C 525.454 847.497,828.926 244.677,827.382 243.133 C 826.995 242.746,794.265 248.673,754.651 256.304 C 715.036 263.936,682.276 269.831,681.850 269.405 C 681.424 268.979,685.499 253.344,690.906 234.660 L 700.736 200.689 838.901 175.442 C 914.892 161.556,978.047 150.385,979.246 150.618 C 981.222 151.001,515.864 986.369,513.707 986.312 C 512.871 986.289,39.008 155.425,37.851 151.952 C 37.527 150.981,38.286 150.196,39.538 150.208 C 40.789 150.220,114.243 163.194,202.768 179.038"
    fill-rule="evenodd"
  />
</svg>
