<svg class="icon" viewBox="0 0 1024 1024" xmlns="http://www.w3.org/2000/svg">
  <path
    d="M576.000 97.211 C 574.123 97.992,570.602 100.824,568.176 103.503 C 563.880 108.246,350.492 416.476,343.267 428.373 C 337.389 438.052,339.217 449.369,347.538 454.822 C 349.723 456.253,384.357 464.398,424.502 472.922 C 464.647 481.446,497.853 488.774,498.293 489.205 C 498.733 489.637,497.069 530.847,494.597 580.782 C 490.495 663.611,490.333 672.066,492.747 677.195 C 497.268 686.800,508.787 690.418,518.633 685.327 C 521.899 683.638,557.910 632.954,633.525 523.620 C 694.099 436.034,745.680 361.386,748.150 357.735 C 755.709 346.560,753.042 332.088,742.629 327.775 C 739.850 326.624,705.576 318.902,666.465 310.616 C 627.354 302.330,594.914 295.109,594.376 294.571 C 593.837 294.033,595.446 252.827,597.951 203.002 C 602.156 119.369,602.297 111.972,599.787 106.685 C 595.679 98.026,584.620 93.622,576.000 97.211"
    fill="#ffca28"
    fill-rule="evenodd"
  />
</svg>
