<svg class="icon" viewBox="0 0 1024 1024" xmlns="http://www.w3.org/2000/svg">
  <path
    d="M579.413 46.079 C 537.789 59.994,522.461 109.162,549.217 142.944 C 569.762 168.884,613.763 174.084,637.313 153.355 L 644.788 146.775 664.154 154.546 C 799.762 208.959,896.036 331.530,913.968 472.593 C 917.930 503.761,916.788 562.070,911.658 590.507 C 908.691 606.958,902.496 631.453,898.710 641.707 C 898.015 643.590,905.087 648.438,925.450 660.038 L 953.136 675.809 955.399 669.424 C 973.165 619.305,982.967 555.589,980.668 505.173 C 975.305 387.569,929.668 284.093,846.649 201.304 C 797.501 152.293,741.333 116.458,677.126 93.151 C 662.486 87.837,662.112 87.561,657.772 78.852 C 643.650 50.513,609.223 36.114,579.413 46.079 M398.507 80.101 C 362.646 89.309,336.461 99.074,303.787 115.425 C 255.378 139.650,219.526 165.666,180.893 204.604 C 107.949 278.125,64.039 369.684,51.887 473.600 C 47.934 507.403,49.422 560.015,55.266 593.067 C 59.397 616.433,59.420 617.035,56.297 620.378 C 54.541 622.258,50.964 628.402,48.349 634.032 C 44.322 642.699,43.594 646.489,43.594 658.773 C 43.594 671.045,44.325 674.858,48.339 683.520 C 56.106 700.279,68.975 711.694,86.715 717.559 C 100.050 721.968,120.631 720.732,133.492 714.751 C 146.400 708.748,159.279 696.443,165.064 684.589 C 169.107 676.306,169.755 672.872,169.782 659.601 C 169.810 645.620,169.300 643.173,164.195 632.793 C 156.657 617.466,141.816 605.273,124.521 600.195 C 121.457 599.296,116.820 573.153,114.363 542.923 C 112.610 521.351,114.594 482.396,118.660 458.560 C 143.261 314.354,247.040 195.187,388.668 148.515 C 402.969 143.803,415.641 139.942,416.828 139.937 C 418.015 139.932,421.867 139.128,425.387 138.150 L 431.787 136.373 431.787 104.880 L 431.787 73.387 427.947 73.457 C 425.835 73.496,412.587 76.485,398.507 80.101 M487.253 211.076 C 477.865 211.876,459.514 214.880,452.094 216.831 L 445.949 218.448 481.108 253.652 L 516.267 288.856 532.480 289.090 C 550.502 289.350,559.146 292.373,569.845 302.158 L 575.637 307.455 598.005 298.080 C 624.484 286.983,648.956 278.323,675.698 270.586 L 695.182 264.950 681.671 256.970 C 621.783 221.598,553.349 205.443,487.253 211.076 M387.351 236.966 C 329.114 262.492,278.882 306.273,245.285 360.790 L 239.079 370.860 246.885 379.564 C 266.578 401.521,309.482 437.710,313.829 436.030 C 330.432 429.612,337.678 428.074,346.870 429.018 C 354.888 429.842,363.604 432.580,370.522 436.448 C 371.087 436.765,379.535 430.639,389.295 422.835 C 412.208 404.515,420.232 398.685,450.963 378.027 L 476.351 360.960 476.715 345.600 C 477.012 333.047,477.908 328.457,481.619 320.484 L 486.158 310.728 464.332 287.204 C 440.509 261.529,406.479 230.186,402.773 230.507 C 402.304 230.548,395.364 233.454,387.351 236.966 M701.440 301.328 C 675.537 308.015,625.657 324.477,605.013 333.152 L 591.360 338.889 590.248 350.077 C 589.570 356.896,587.387 364.715,584.660 370.098 L 580.184 378.929 589.342 394.691 C 604.662 421.058,610.171 431.604,622.098 457.387 C 632.497 479.867,652.229 529.998,659.556 552.551 C 662.217 560.740,663.253 561.898,671.353 565.730 C 682.914 571.199,693.558 580.418,698.966 589.647 C 702.951 596.446,704.002 597.133,712.181 598.284 C 721.524 599.599,825.468 600.172,826.714 598.916 C 827.813 597.808,832.587 554.444,833.840 534.187 C 835.813 502.305,829.686 459.822,818.136 425.302 C 803.188 380.622,781.796 345.477,748.588 311.040 C 736.912 298.932,732.330 295.268,728.923 295.316 C 726.479 295.351,714.112 298.056,701.440 301.328 M479.285 402.558 C 449.637 421.630,436.663 430.800,414.837 448.116 L 393.879 464.742 394.995 470.878 C 395.609 474.252,396.560 481.378,397.109 486.712 L 398.107 496.411 436.089 514.370 C 498.500 543.881,534.385 557.984,582.249 571.813 L 605.772 578.610 613.401 572.787 C 617.596 569.584,622.006 566.638,623.199 566.240 C 624.900 565.673,624.713 563.157,622.336 554.608 C 612.441 519.018,586.437 461.372,560.320 417.131 L 551.164 401.621 543.581 402.772 C 532.282 404.487,517.617 401.892,506.656 396.240 L 496.916 391.216 479.285 402.558 M220.340 409.312 C 217.264 415.161,207.824 446.834,204.678 461.861 C 196.447 501.185,196.148 541.127,203.803 578.782 C 208.657 602.660,213.791 619.079,216.007 617.813 C 216.829 617.344,223.573 607.744,230.994 596.480 C 243.300 577.800,267.434 544.906,284.954 522.934 L 291.885 514.242 288.117 505.868 C 284.142 497.033,282.966 480.899,285.448 469.274 L 286.737 463.242 269.235 449.349 C 259.609 441.708,245.007 428.934,236.786 420.961 C 224.289 408.842,221.592 406.932,220.340 409.312 M372.405 530.163 C 359.828 539.846,340.788 543.449,325.143 539.105 C 318.409 537.236,318.273 537.291,311.860 544.518 C 293.100 565.658,262.143 609.425,242.004 643.282 L 230.407 662.777 235.752 672.295 C 256.275 708.843,288.126 744.921,323.340 771.508 L 332.785 778.639 344.313 769.266 C 373.141 745.826,427.034 709.241,464.213 687.872 C 493.191 671.217,535.030 650.954,564.907 639.106 C 578.517 633.709,589.865 629.122,590.123 628.914 C 590.382 628.706,590.099 624.329,589.494 619.188 L 588.396 609.840 565.131 602.632 C 515.319 587.201,462.012 565.594,411.307 540.282 L 379.733 524.521 372.405 530.163 M712.153 635.206 C 703.699 636.748,702.831 637.416,695.333 648.141 C 688.549 657.846,687.558 660.310,688.347 665.512 C 694.198 704.083,696.802 725.604,698.532 749.670 L 700.587 778.274 715.947 765.982 C 745.720 742.158,774.311 709.571,792.965 678.200 C 801.532 663.793,814.080 638.153,814.080 635.055 C 814.080 632.679,725.280 632.810,712.153 635.206 M597.333 663.801 C 529.897 688.648,463.646 725.544,392.085 778.107 L 365.182 797.867 378.431 804.238 C 385.718 807.743,400.896 813.642,412.160 817.348 C 491.665 843.505,581.226 839.435,647.063 806.674 L 661.333 799.573 661.856 779.093 C 662.459 755.501,660.313 729.228,655.076 696.083 L 651.398 672.806 641.006 671.641 C 630.584 670.473,617.661 665.799,612.756 661.424 C 610.514 659.425,608.273 659.770,597.333 663.801 M825.173 742.987 C 794.288 753.230,776.338 779.012,779.233 808.969 L 780.305 820.071 766.046 831.351 C 700.790 882.973,625.831 912.039,541.396 918.462 C 469.920 923.898,395.608 908.376,327.929 873.871 C 293.372 856.252,264.187 835.480,231.679 805.364 L 215.039 789.948 188.159 804.741 C 173.376 812.877,160.744 820.035,160.089 820.647 C 156.608 823.899,198.806 864.026,231.153 888.224 C 321.100 955.509,439.112 989.251,550.400 979.504 C 647.152 971.030,738.746 933.814,809.221 874.341 L 822.384 863.234 838.285 862.969 C 851.623 862.748,855.765 861.967,863.975 858.125 C 877.456 851.817,884.440 846.137,891.486 835.747 C 899.764 823.542,903.530 809.502,902.238 795.666 C 900.264 774.526,888.892 757.514,870.005 747.446 C 860.880 742.583,857.299 741.669,845.653 741.233 C 837.489 740.928,829.255 741.633,825.173 742.987"
    fill-rule="evenodd"
  />
</svg>
