<svg class="icon" viewBox="0 0 1076 1024" xmlns="http://www.w3.org/2000/svg">
  <path
    d="M500.340 1.119 C 358.534 11.559,232.911 66.931,138.822 160.469 C 45.453 253.291,-3.792 374.048,0.587 499.443 C 2.207 545.841,8.731 582.291,23.084 625.146 C 53.879 717.092,113.916 797.660,199.356 861.701 L 204.135 865.283 191.805 937.017 C 178.506 1014.388,178.283 1018.732,187.426 1022.209 C 198.392 1026.378,225.935 1011.432,307.392 957.110 L 339.507 935.693 362.985 943.011 C 390.753 951.665,401.486 954.387,427.182 959.291 C 542.087 981.217,661.810 968.559,768.443 923.211 C 915.107 860.840,1023.846 740.335,1061.666 598.262 C 1071.430 561.583,1074.519 538.728,1075.525 495.717 C 1077.028 431.419,1069.897 388.248,1048.011 329.154 C 1040.583 309.094,1022.494 270.703,1020.207 270.143 C 1019.655 270.007,968.431 301.322,906.376 339.730 C 528.490 573.622,408.587 646.643,393.298 652.192 C 379.960 657.034,368.458 657.502,359.082 653.584 C 350.007 649.793,345.553 645.228,341.184 635.244 C 322.291 592.070,253.904 424.063,251.093 413.918 C 247.072 399.409,246.316 380.275,249.632 376.959 C 252.948 373.643,262.059 374.415,268.912 378.593 C 272.315 380.667,287.245 391.478,302.088 402.617 C 340.772 431.645,372.386 452.539,384.732 457.239 C 398.652 462.537,423.476 464.037,438.574 460.491 C 450.397 457.714,977.367 208.403,977.367 205.587 C 977.367 202.630,952.808 175.036,933.160 155.917 C 846.977 72.052,737.737 21.000,608.837 4.348 C 589.230 1.816,519.196 -0.269,500.340 1.119"
    fill-rule="evenodd"
  />
</svg>
