<svg class="icon" viewBox="0 0 3150 1024" xmlns="http://www.w3.org/2000/svg">
  <path
    d="M1853.299 174.732 C 1835.979 224.332,1803.766 292.234,1781.834 325.376 C 1770.761 342.108,1769.876 346.728,1774.952 361.289 C 1778.156 370.480,1782.846 378.000,1785.374 378.000 C 1787.902 378.000,1798.303 365.628,1808.486 350.508 L 1827.000 323.015 1827.000 450.258 L 1827.000 577.500 1845.375 577.500 L 1863.750 577.500 1863.750 411.956 C 1863.750 271.832,1865.040 243.416,1872.151 226.894 C 1881.376 205.460,1905.742 136.500,1904.090 136.500 C 1903.521 136.500,1895.610 134.365,1886.510 131.755 L 1869.964 127.009 1853.299 174.732 M2035.718 134.392 L 2021.310 142.054 2034.405 162.798 C 2041.607 174.207,2047.500 184.770,2047.500 186.271 C 2047.500 187.772,2014.425 189.000,1974.000 189.000 L 1900.500 189.000 1900.500 204.750 L 1900.500 220.500 2063.250 220.500 L 2226.000 220.500 2226.000 204.750 L 2226.000 189.000 2145.938 188.840 C 2087.910 188.725,2068.458 187.177,2075.261 183.218 C 2084.156 178.042,2084.045 176.746,2073.139 158.441 C 2054.597 127.319,2052.070 125.695,2035.718 134.392 M2450.688 158.813 L 2449.125 191.625 2345.438 193.048 L 2241.750 194.472 2241.750 210.111 L 2241.750 225.750 2346.750 225.750 L 2451.750 225.750 2451.750 259.875 L 2451.750 294.000 2370.375 294.000 L 2289.000 294.000 2289.000 309.750 C 2289.000 324.616,2290.175 325.500,2309.924 325.500 C 2330.338 325.500,2331.251 326.302,2347.293 358.313 C 2365.504 394.649,2402.425 448.658,2419.627 464.126 C 2425.745 469.627,2430.750 475.903,2430.750 478.074 C 2430.750 484.293,2359.499 512.271,2304.750 527.550 C 2277.319 535.205,2251.977 542.392,2248.435 543.522 C 2239.480 546.379,2257.429 577.449,2268.000 577.389 C 2283.516 577.303,2401.784 534.857,2433.635 517.944 L 2466.120 500.694 2491.747 515.515 C 2517.596 530.463,2611.324 562.884,2646.797 569.147 C 2664.459 572.266,2666.837 571.128,2676.985 554.709 C 2690.901 532.191,2690.779 530.250,2675.450 530.250 C 2655.555 530.250,2565.815 505.555,2533.043 491.061 L 2503.173 477.851 2538.242 439.974 C 2578.435 396.562,2613.547 340.691,2618.041 312.996 L 2621.124 294.000 2554.812 294.000 L 2488.500 294.000 2488.500 259.991 L 2488.500 225.982 2586.938 224.553 L 2685.375 223.125 2687.036 208.688 L 2688.697 194.250 2588.599 194.250 L 2488.500 194.250 2488.500 160.125 L 2488.500 126.000 2470.376 126.000 L 2452.251 126.000 2450.688 158.813 M2793.005 172.456 C 2773.208 224.865,2746.373 279.976,2722.286 317.687 C 2707.283 341.176,2706.091 345.783,2711.178 360.623 C 2714.311 369.766,2718.400 378.744,2720.264 380.574 C 2722.127 382.405,2733.940 367.991,2746.514 348.544 L 2769.375 313.186 2770.778 445.343 L 2772.180 577.500 2790.465 577.500 L 2808.750 577.500 2808.750 406.936 L 2808.750 236.373 2827.323 191.505 C 2837.538 166.828,2844.630 144.590,2843.083 142.086 C 2841.535 139.582,2833.495 135.172,2825.215 132.286 L 2810.160 127.038 2793.005 172.456 M1371.042 162.278 C 1361.372 179.172,1342.814 205.164,1329.802 220.039 C 1308.066 244.887,1306.444 248.669,1309.837 266.604 L 1313.530 286.125 1340.187 257.250 C 1354.849 241.369,1378.406 210.693,1392.537 189.081 L 1418.229 149.787 1406.783 140.518 C 1400.487 135.421,1393.827 131.320,1391.981 131.406 C 1390.135 131.492,1380.713 145.384,1371.042 162.278 M1640.629 153.563 C 1634.404 192.758,1616.655 258.307,1603.504 290.672 C 1591.592 319.988,1591.325 322.683,1599.440 331.651 C 1610.727 344.123,1614.268 343.755,1620.712 329.438 C 1625.250 319.356,1627.003 323.362,1632.673 356.780 C 1636.327 378.315,1643.733 408.769,1649.130 424.456 C 1658.928 452.935,1658.926 453.006,1647.462 471.554 C 1641.148 481.771,1624.623 503.779,1610.741 520.460 C 1596.858 537.142,1585.500 552.890,1585.500 555.456 C 1585.500 558.023,1589.892 564.097,1595.259 568.955 C 1604.521 577.337,1605.981 576.722,1623.893 556.895 C 1634.274 545.405,1649.097 526.440,1656.832 514.752 C 1664.567 503.063,1672.353 493.504,1674.135 493.509 C 1675.917 493.515,1683.829 503.555,1691.717 515.822 C 1699.604 528.089,1713.779 547.131,1723.217 558.139 L 1740.375 578.153 1750.484 559.276 L 1760.592 540.400 1739.374 518.262 C 1727.704 506.087,1712.214 487.130,1704.951 476.136 L 1691.747 456.147 1704.374 418.825 C 1717.248 380.771,1732.500 304.403,1732.500 277.992 C 1732.500 256.517,1737.599 246.750,1748.812 246.750 C 1756.354 246.750,1758.750 242.953,1758.750 231.000 L 1758.750 215.250 1708.875 215.250 C 1681.444 215.250,1659.084 213.478,1659.187 211.313 C 1659.290 209.147,1662.797 193.200,1666.980 175.875 C 1677.338 132.979,1677.047 131.250,1659.461 131.250 C 1645.531 131.250,1643.858 133.232,1640.629 153.563 M3045.000 181.125 L 3045.000 231.000 2939.667 231.000 L 2834.335 231.000 2835.980 248.063 L 2837.625 265.125 2941.313 266.548 L 3045.000 267.972 3045.000 393.676 C 3045.000 540.022,3049.339 530.250,2984.358 530.250 C 2945.094 530.250,2944.109 530.563,2947.191 542.063 C 2948.932 548.559,2950.389 556.828,2950.428 560.438 C 2950.544 571.050,3036.932 569.258,3055.555 558.257 C 3082.069 542.595,3083.939 532.559,3085.954 395.063 L 3087.820 267.750 3118.910 267.750 L 3150.000 267.750 3150.000 249.375 L 3150.000 231.000 3118.500 231.000 L 3087.000 231.000 3087.000 181.125 L 3087.000 131.250 3066.000 131.250 L 3045.000 131.250 3045.000 181.125 M1496.250 194.250 L 1496.250 252.000 1478.096 252.000 L 1459.942 252.000 1458.408 211.313 C 1456.899 171.262,1456.649 170.599,1442.438 168.964 L 1428.000 167.303 1428.000 225.401 L 1428.000 283.500 1496.250 283.500 C 1553.417 283.500,1564.500 284.779,1564.500 291.375 C 1564.500 296.275,1569.458 299.250,1577.625 299.250 L 1590.750 299.250 1590.750 233.625 L 1590.750 168.000 1577.846 168.000 C 1565.382 168.000,1564.889 169.389,1563.408 208.688 L 1561.875 249.375 1544.813 251.020 L 1527.750 252.665 1527.750 194.583 L 1527.750 136.500 1512.000 136.500 L 1496.250 136.500 1496.250 194.250 M1700.835 266.438 C 1700.600 294.516,1681.853 399.247,1676.018 405.082 C 1669.821 411.279,1654.843 342.766,1650.300 287.438 L 1646.959 246.750 1673.980 246.750 L 1701.000 246.750 1700.835 266.438 M1376.053 282.031 C 1365.385 303.988,1332.762 355.464,1309.981 386.285 C 1303.355 395.250,1303.006 400.319,1308.022 414.708 L 1314.127 432.220 1334.157 409.047 L 1354.187 385.875 1354.343 482.036 L 1354.500 578.197 1368.938 576.536 L 1383.375 574.875 1386.000 451.500 C 1388.624 328.189,1388.633 328.110,1403.638 299.601 C 1417.888 272.527,1418.171 270.725,1409.197 264.163 C 1393.965 253.025,1388.789 255.815,1376.053 282.031 M1926.750 278.250 L 1926.750 294.000 2060.625 294.000 L 2194.500 294.000 2194.500 278.250 L 2194.500 262.500 2060.625 262.500 L 1926.750 262.500 1926.750 278.250 M1438.500 335.852 L 1438.500 351.750 1512.349 351.750 L 1586.197 351.750 1584.536 337.313 L 1582.875 322.875 1510.688 321.414 L 1438.500 319.954 1438.500 335.852 M2881.866 328.917 L 2868.358 337.305 2899.408 389.152 C 2916.486 417.669,2932.080 441.000,2934.061 441.000 C 2944.522 441.000,2961.404 423.361,2958.449 415.518 C 2953.670 402.830,2901.247 320.226,2898.079 320.390 C 2896.592 320.467,2889.296 324.304,2881.866 328.917 M2558.365 352.525 C 2540.787 384.753,2478.863 451.500,2466.542 451.500 C 2454.389 451.500,2408.578 398.656,2389.180 362.262 C 2380.281 345.566,2373.000 330.464,2373.000 328.703 C 2373.000 326.941,2418.024 325.500,2473.053 325.500 L 2573.106 325.500 2558.365 352.525 M1926.750 351.750 L 1926.750 367.500 2060.625 367.500 L 2194.500 367.500 2194.500 351.750 L 2194.500 336.000 2060.625 336.000 L 1926.750 336.000 1926.750 351.750 M1443.750 424.533 C 1443.750 464.527,1434.356 504.184,1420.615 522.199 C 1408.276 538.376,1408.219 538.946,1417.665 551.468 L 1427.298 564.240 1440.507 551.831 C 1456.963 536.371,1469.497 500.870,1473.613 458.063 L 1476.768 425.250 1504.884 425.250 L 1533.000 425.250 1533.000 459.065 C 1533.000 477.663,1530.638 494.340,1527.750 496.125 C 1520.052 500.882,1521.229 506.218,1533.383 521.669 L 1544.265 535.504 1580.582 502.690 C 1615.523 471.118,1620.701 462.003,1613.845 444.137 C 1611.273 437.435,1606.421 439.414,1587.595 454.840 L 1564.500 473.765 1564.500 436.382 L 1564.500 399.000 1504.125 399.000 L 1443.750 399.000 1443.750 424.533 M1932.000 493.408 L 1932.000 577.500 1950.375 577.500 C 1966.475 577.500,1968.750 575.875,1968.750 564.375 L 1968.750 551.250 2063.250 551.250 L 2157.750 551.250 2157.750 564.375 C 2157.750 575.893,2160.016 577.500,2176.258 577.500 L 2194.767 577.500 2193.321 494.813 L 2191.875 412.125 2061.938 410.721 L 1932.000 409.317 1932.000 493.408 M2157.750 480.375 L 2157.750 519.750 2063.250 519.750 L 1968.750 519.750 1968.750 480.375 L 1968.750 441.000 2063.250 441.000 L 2157.750 441.000 2157.750 480.375 M2056.250 691.250 C 2054.325 693.175,2052.750 746.331,2052.750 809.375 L 2052.750 924.000 2068.500 924.000 L 2084.250 924.000 2084.250 868.636 C 2084.250 816.855,2085.084 812.439,2097.136 800.386 C 2109.774 787.749,2133.065 783.447,2145.152 791.518 C 2158.391 800.358,2163.000 820.922,2163.000 871.155 L 2163.000 924.000 2176.542 924.000 L 2190.084 924.000 2188.355 855.881 C 2186.807 794.949,2185.460 786.598,2175.583 776.735 C 2157.840 759.016,2127.394 757.748,2103.938 773.752 L 2084.250 787.184 2084.250 737.467 C 2084.250 688.883,2083.971 687.750,2072.000 687.750 C 2065.262 687.750,2058.175 689.325,2056.250 691.250 M1913.625 708.203 C 1871.038 727.920,1847.921 766.495,1848.115 817.519 C 1848.427 899.556,1915.134 947.308,1995.703 923.169 C 2012.112 918.253,2016.000 914.616,2016.000 904.182 C 2016.000 893.196,2014.242 891.829,2004.188 894.993 C 1997.691 897.038,1979.381 899.807,1963.500 901.145 C 1929.730 903.992,1907.216 892.964,1889.679 864.985 C 1880.947 851.056,1879.259 840.953,1880.599 810.637 C 1881.969 779.662,1884.654 770.242,1896.565 754.626 C 1904.713 743.943,1919.092 733.144,1929.929 729.567 C 1948.670 723.382,1988.805 724.809,2006.813 732.301 C 2014.203 735.376,2016.000 733.422,2016.000 722.307 C 2016.000 712.306,2012.281 707.076,2002.533 703.370 C 1981.017 695.189,1936.507 697.609,1913.625 708.203 M1377.676 712.688 C 1379.262 717.741,1392.492 763.219,1407.076 813.750 C 1421.660 864.281,1434.856 909.759,1436.400 914.813 C 1438.337 921.151,1444.606 924.000,1456.614 924.000 L 1474.020 924.000 1496.140 843.938 C 1516.090 771.732,1527.750 741.122,1527.750 760.958 C 1527.750 764.839,1537.527 803.112,1549.477 846.008 L 1571.205 924.000 1588.650 924.000 C 1604.355 924.000,1606.631 922.036,1611.464 904.313 C 1614.417 893.484,1628.357 843.746,1642.443 793.784 L 1668.053 702.943 1651.714 704.534 L 1635.375 706.125 1612.108 797.675 L 1588.841 889.226 1564.445 797.675 C 1540.072 706.210,1540.035 706.124,1524.401 704.555 L 1508.752 702.984 1482.845 795.042 L 1456.938 887.100 1439.556 822.863 C 1404.559 693.526,1408.637 703.500,1390.750 703.500 C 1377.954 703.500,1375.364 705.320,1377.676 712.688 M2604.000 813.258 L 2604.000 924.000 2619.750 924.000 L 2635.500 924.000 2635.500 885.348 L 2635.500 846.696 2665.322 843.191 C 2681.724 841.263,2702.735 834.994,2712.013 829.260 C 2749.371 806.171,2755.563 751.406,2724.213 721.350 C 2709.216 706.972,2705.432 706.025,2656.167 704.321 L 2604.000 702.516 2604.000 813.258 M2418.938 722.869 C 2412.155 724.641,2409.750 730.666,2409.750 745.885 C 2409.750 764.374,2408.397 766.500,2396.625 766.500 C 2387.000 766.500,2383.500 769.300,2383.500 777.000 C 2383.500 784.600,2387.000 787.500,2396.173 787.500 C 2408.740 787.500,2408.861 788.009,2410.611 848.350 C 2412.264 905.355,2413.178 909.849,2425.094 919.488 C 2442.866 933.864,2474.722 931.214,2477.006 915.169 C 2478.364 905.630,2475.728 903.433,2461.256 902.044 L 2443.875 900.375 2442.385 843.938 L 2440.895 787.500 2459.447 787.500 C 2474.500 787.500,2478.000 785.519,2478.000 777.000 C 2478.000 768.500,2474.500 766.500,2459.625 766.500 C 2441.347 766.500,2441.250 766.375,2441.250 742.875 C 2441.250 719.021,2439.537 717.486,2418.938 722.869 M2705.201 746.341 C 2713.184 757.066,2714.774 764.688,2712.052 779.193 C 2707.741 802.173,2691.374 814.068,2659.049 817.711 L 2635.500 820.366 2635.500 774.796 L 2635.500 729.226 2665.153 730.801 C 2690.186 732.130,2696.425 734.551,2705.201 746.341 M1722.373 770.446 C 1694.453 784.682,1683.393 803.753,1681.242 841.369 C 1678.965 881.180,1690.477 906.376,1717.195 920.054 C 1751.263 937.496,1811.250 926.431,1811.250 902.706 C 1811.250 893.994,1809.128 892.239,1802.063 895.110 C 1778.496 904.687,1760.233 908.145,1747.597 905.423 C 1731.598 901.977,1714.176 884.449,1710.136 867.735 C 1707.381 856.333,1708.471 856.064,1763.224 854.610 L 1819.125 853.125 1818.175 831.252 C 1816.854 800.854,1803.478 777.604,1782.195 768.711 C 1758.688 758.889,1744.213 759.309,1722.373 770.446 M2262.750 767.832 C 2248.474 772.915,2243.997 777.669,2242.682 789.144 L 2240.989 803.913 2256.859 795.707 C 2279.811 783.838,2313.474 784.871,2320.315 797.655 C 2330.319 816.347,2326.771 823.615,2306.063 826.850 C 2246.249 836.194,2228.864 848.834,2228.864 882.977 C 2228.864 899.586,2231.994 906.807,2243.475 916.682 C 2262.210 932.798,2292.621 933.547,2311.917 918.369 C 2323.384 909.349,2325.750 908.900,2325.750 915.744 C 2325.750 921.478,2330.726 924.000,2342.040 924.000 L 2358.330 924.000 2356.477 858.492 C 2354.708 795.906,2354.008 792.367,2340.805 779.166 C 2324.406 762.770,2290.707 757.876,2262.750 767.832 M2794.313 769.077 C 2781.327 774.721,2777.250 779.761,2777.250 790.169 C 2777.250 803.253,2777.755 803.492,2788.918 795.673 C 2807.031 782.986,2843.120 784.952,2853.077 799.168 C 2866.889 818.888,2863.053 822.997,2824.811 829.447 C 2778.682 837.228,2761.500 851.265,2761.500 881.168 C 2761.500 910.008,2774.630 924.403,2803.949 927.707 C 2824.162 929.986,2830.058 928.313,2844.429 916.220 C 2860.471 902.722,2861.250 902.574,2861.250 913.033 C 2861.250 921.231,2864.564 924.000,2874.375 924.000 L 2887.500 924.000 2887.500 863.967 C 2887.500 830.948,2885.239 797.987,2882.476 790.718 C 2872.452 764.354,2829.459 753.801,2794.313 769.077 M2913.791 767.813 C 2913.814 768.534,2927.724 804.563,2944.704 847.875 L 2975.575 926.625 2964.957 947.625 C 2952.739 971.790,2947.324 976.308,2930.447 976.420 C 2920.839 976.483,2918.624 978.992,2919.947 988.313 C 2921.333 998.071,2924.670 999.982,2939.141 999.302 C 2972.265 997.744,2978.124 988.244,3034.199 845.151 L 3065.021 766.500 3050.407 766.500 C 3036.471 766.500,3034.757 769.427,3013.500 829.500 C 3001.239 864.150,2990.542 892.500,2989.729 892.500 C 2988.915 892.500,2978.253 864.150,2966.035 829.500 C 2944.644 768.837,2943.262 766.500,2928.785 766.500 C 2920.516 766.500,2913.768 767.091,2913.791 767.813 M1782.077 799.168 C 1786.572 805.586,1790.250 815.036,1790.250 820.168 C 1790.250 828.281,1785.107 829.500,1750.875 829.500 C 1717.449 829.500,1711.500 828.163,1711.500 820.651 C 1711.500 791.375,1765.175 775.037,1782.077 799.168 M2325.750 862.635 C 2325.750 892.878,2292.787 916.266,2268.489 903.262 C 2255.976 896.565,2252.869 864.487,2264.063 857.556 C 2269.732 854.046,2298.392 847.989,2319.188 845.907 C 2323.249 845.500,2325.750 851.877,2325.750 862.635 M2859.536 864.276 C 2855.885 886.779,2844.519 900.790,2826.183 905.392 C 2797.901 912.491,2774.864 878.230,2796.079 860.623 C 2800.661 856.821,2814.245 852.102,2826.267 850.137 C 2864.086 843.955,2862.915 843.457,2859.536 864.276"
    fill="#4c4948"
    fill-rule="evenodd"
  />
</svg>
