<svg class="icon" viewBox="0 0 1024 1024" xmlns="http://www.w3.org/2000/svg">
  <path
    d="M386.260 224.214 C 382.340 225.500,376.458 228.205,373.188 230.226 C 357.939 239.651,333.459 272.801,323.908 296.960 C 317.763 312.506,311.131 340.403,308.087 363.520 C 303.930 395.088,301.605 480.334,302.641 563.200 C 304.053 676.022,307.739 697.874,334.126 749.860 C 350.925 782.955,371.563 799.907,397.211 801.676 C 415.070 802.908,425.907 798.119,442.146 781.820 C 456.172 767.743,471.086 745.098,478.225 727.040 C 484.384 711.461,491.010 683.559,494.031 660.480 C 498.165 628.898,500.532 541.976,499.490 459.947 C 498.070 348.039,494.338 326.013,468.007 274.140 C 451.143 240.915,430.933 224.338,405.237 222.653 C 397.767 222.163,390.753 222.740,386.260 224.214 M811.520 223.361 C 790.780 228.866,768.342 252.190,751.358 285.898 C 741.231 305.997,732.990 339.308,728.565 378.027 C 725.758 402.581,724.457 611.314,726.925 640.953 C 730.750 686.881,737.958 713.597,756.153 749.285 C 768.537 773.577,781.730 788.444,797.867 796.297 C 806.748 800.619,810.031 801.277,822.613 801.256 C 835.210 801.235,838.337 800.595,846.364 796.390 C 868.655 784.714,894.023 749.130,905.098 714.004 C 910.213 697.781,915.609 670.118,918.369 645.973 C 921.175 621.419,922.477 412.686,920.008 383.047 C 916.180 337.084,908.977 310.407,890.732 274.620 C 873.374 240.574,853.603 224.194,828.033 222.678 C 821.767 222.306,814.336 222.614,811.520 223.361 M77.448 233.387 C 77.930 235.029,96.030 309.191,117.669 398.190 L 157.013 560.006 157.013 676.803 L 157.013 793.600 185.173 793.600 L 213.333 793.600 213.333 678.432 L 213.333 563.263 255.220 399.818 C 278.257 309.924,297.509 235.029,298.001 233.387 C 298.830 230.622,296.681 230.400,269.098 230.400 C 246.790 230.400,239.113 230.936,238.560 232.533 C 238.153 233.707,226.743 284.776,213.204 346.020 C 199.664 407.265,188.203 457.374,187.733 457.374 C 187.264 457.374,175.802 407.265,162.263 346.020 C 148.723 284.776,137.313 233.707,136.907 232.533 C 136.354 230.936,128.677 230.400,106.369 230.400 C 78.792 230.400,76.635 230.623,77.448 233.387 M532.902 514.133 L 533.333 797.867 622.933 797.867 L 712.533 797.867 712.986 748.800 L 713.439 699.733 651.120 699.733 L 588.800 699.733 588.800 465.067 L 588.800 230.400 560.635 230.400 L 532.470 230.400 532.902 514.133 M410.622 327.519 C 414.470 329.266,419.168 332.897,421.062 335.588 C 426.406 343.178,434.948 361.272,437.762 370.964 C 441.795 384.850,443.683 424.092,443.685 494.080 C 443.688 595.026,440.328 643.234,431.676 666.358 C 424.935 684.373,408.885 699.733,396.800 699.733 C 389.885 699.733,379.732 693.668,373.100 685.575 C 358.586 667.861,354.219 648.803,351.345 590.616 C 349.180 546.782,350.423 425.217,353.310 398.507 C 357.679 358.081,367.828 335.176,384.783 327.475 C 393.565 323.485,401.772 323.499,410.622 327.519 M828.263 326.581 C 835.587 329.642,847.866 343.497,854.004 355.627 C 863.944 375.274,864.031 376.293,864.838 482.133 C 866.024 637.877,862.182 667.537,837.875 690.274 C 824.003 703.250,811.743 702.445,797.906 687.652 C 776.796 665.084,773.136 639.383,773.131 513.707 C 773.126 388.326,777.155 358.847,797.287 336.945 C 808.408 324.846,817.128 321.929,828.263 326.581"
    fill-rule="evenodd"
  />
</svg>
