<svg class="icon" viewBox="0 0 1024 1024" xmlns="http://www.w3.org/2000/svg">
  <path
    d="M604.947 241.067 C 604.500 242.240,604.332 328.832,604.574 433.493 L 605.013 623.787 653.227 624.240 L 701.440 624.693 701.440 431.813 L 701.440 238.933 653.600 238.933 C 616.899 238.933,605.570 239.430,604.947 241.067 M399.728 341.271 C 346.314 355.669,304.241 408.870,298.896 468.771 C 293.965 524.042,316.942 576.591,359.238 606.773 C 383.840 624.328,405.469 630.637,436.631 629.345 C 471.201 627.912,496.542 616.451,520.879 591.238 C 540.888 570.511,550.900 553.527,559.122 526.372 C 563.270 512.671,563.734 508.497,563.757 484.693 C 563.785 454.636,560.982 440.775,550.326 418.285 C 533.987 383.798,502.162 354.164,469.333 342.867 C 453.270 337.339,417.369 336.516,399.728 341.271 M843.461 341.271 C 795.901 354.091,755.801 398.939,744.980 451.413 C 741.464 468.468,741.363 498.231,744.762 515.719 C 755.239 569.618,798.406 616.364,847.864 627.367 C 857.193 629.443,865.627 629.956,880.365 629.345 C 914.577 627.927,936.876 618.126,962.282 593.338 C 982.514 573.599,994.597 553.623,1002.917 526.160 C 1006.995 512.699,1007.468 508.411,1007.490 484.693 C 1007.518 454.636,1004.715 440.775,994.060 418.285 C 977.720 383.798,945.895 354.164,913.067 342.867 C 897.003 337.339,861.103 336.516,843.461 341.271 M29.392 445.013 C 29.943 546.667,29.957 547.024,33.938 558.933 C 41.766 582.352,52.576 598.362,68.035 609.433 C 91.064 625.923,120.424 627.086,148.864 612.633 L 158.780 607.595 157.700 612.277 C 155.915 620.018,145.599 640.442,140.221 646.884 C 126.891 662.852,101.355 668.216,77.227 660.116 L 64.853 655.962 64.853 701.556 L 64.853 747.149 71.253 749.696 C 95.944 759.521,132.972 760.362,158.720 751.682 C 196.629 738.903,232.436 702.528,246.084 662.932 C 256.755 631.973,256.458 636.760,257.222 483.413 L 257.921 343.040 209.174 343.040 L 160.427 343.040 160.427 423.308 C 160.427 508.772,160.076 512.741,152.150 516.983 C 142.174 522.322,129.458 516.670,126.362 505.522 C 125.277 501.616,124.602 469.369,124.596 421.120 L 124.587 343.040 76.713 343.040 L 28.840 343.040 29.392 445.013 M445.973 444.343 C 452.649 447.132,461.583 455.770,465.374 463.101 C 469.667 471.403,470.393 489.959,466.793 499.385 C 453.126 535.172,407.604 534.201,395.299 497.860 C 391.874 487.747,391.811 480.906,395.044 470.070 C 398.063 459.952,405.937 449.973,414.450 445.476 C 421.931 441.524,437.856 440.951,445.973 444.343 M889.655 444.335 C 897.276 447.538,909.028 460.830,911.221 468.728 C 914.303 479.827,913.449 493.188,909.054 502.626 C 892.706 537.732,845.696 531.300,837.632 492.853 C 833.769 474.437,842.211 454.666,857.679 445.905 C 865.579 441.430,880.948 440.676,889.655 444.335"
    fill-rule="evenodd"
  />
</svg>
