<?xml version="1.0" standalone="no"?><!DOCTYPE svg PUBLIC "-//W3C//DTD SVG 1.1//EN" "http://www.w3.org/Graphics/SVG/1.1/DTD/svg11.dtd" ><svg xmlns="http://www.w3.org/2000/svg"><metadata></metadata><defs><font id="JetBrainsMapleMono-Light-1.2304.70-beta36" horiz-adv-x="1200"><font-face font-family="JetBrains Maple Mono Light" font-weight="300" font-stretch="normal" units-per-em="1000" panose-1="2 0 0 9 0 0 0 0 0 0" ascent="1020" descent="-300" x-height="0" bbox="25 -180 1078 870" underline-thickness="50" underline-position="-155" unicode-range="U+0022-9f99" /><missing-glyph horiz-adv-x="600" d="M160 50 l300 0 l0 571 l-300 -571 ZM140 109 l300 571 l-300 0 l0 -571 ZM90 0 l0 730 l420 0 l0 -730 l-420 0 Z" /><glyph glyph-name="quotedbl" unicode="&quot;" d="M150 730 l92 0 l-7 -300 l-77 0 l-8 300 ZM358 730 l92 0 l-7 -300 l-77 0 l-8 300 Z" /><glyph glyph-name="dollar" unicode="$" d="M332 62 q54 7 83.5 39 q29.5 32 29.5 84 q0 47 -26 82.5 q-26 35.5 -73 50.5 l-14 4 l0 -260 ZM175 556 q0 -48 26.5 -83 q26.5 -35 76.5 -49 l0 244 q-49 -7 -76 -36 q-27 -29 -27 -76 ZM75 189 l80 0 q0 -54 32.5 -87 q32.5 -33 90.5 -40 l0 278 l-27 8 q-75 22 -115.5 75.5 q-40.5 53.5 -40.5 125.5 q0 80 49.5 131 q49.5 51 133.5 58 l0 132 l54 0 l0 -131 q84 -7 133 -59 q49 -52 50 -134 l-79 0 q0 50 -27.5 82.5 q-27.5 32.5 -76.5 39.5 l0 -262 l37 -12 q74 -23 115 -78 q41 -55 41 -129 q0 -83 -52.5 -135.5 q-52.5 -52.5 -140.5 -60.5 l0 -131 l-54 0 l0 131 q-94 7 -147.5 59.5 q-53.5 52.5 -55.5 138.5 Z" /><glyph glyph-name="comma" unicode="," d="M213 -160 l56 306 l98 0 l-71 -306 l-83 0 Z" /><glyph glyph-name="hyphen" unicode="-" d="M140 295 l0 70 l320 0 l0 -70 l-320 0 Z" /><glyph glyph-name="period" unicode="." d="M242 11.5 q-22 21.5 -22 56.5 q0 35 22 57.5 q22 22.5 58 22.5 q36 0 58 -22.5 q22 -22.5 22 -57.5 q0 -35 -22 -56.5 q-22 -21.5 -58 -21.5 q-36 0 -58 21.5 Z" /><glyph glyph-name="zero" unicode="0" d="M258.5 327.5 q-15.5 14.5 -15.5 40.5 q0 26 15.5 39.5 q15.5 13.5 41.5 13.5 q26 0 41.5 -13.5 q15.5 -13.5 15.5 -39.5 q0 -26 -15.5 -40.5 q-15.5 -14.5 -41.5 -14.5 q-26 0 -41.5 14.5 ZM161 205 q0 -66 38 -106.5 q38 -40.5 101 -40.5 q63 0 101 40.5 q38 40.5 38 106.5 l0 320 q0 66 -38 106.5 q-38 40.5 -101 40.5 q-63 0 -101 -40.5 q-38 -40.5 -38 -106.5 l0 -320 ZM84 205 l0 320 q0 98 58.5 156.5 q58.5 58.5 157.5 58.5 q100 0 158 -58.5 q58 -58.5 58 -156.5 l0 -320 q0 -98 -58.5 -156.5 q-58.5 -58.5 -157.5 -58.5 q-99 0 -157.5 58.5 q-58.5 58.5 -58.5 156.5 Z" /><glyph glyph-name="one" unicode="1" d="M93 0 l0 72 l200 0 l0 589 l-198 -148 l0 91 l170 126 l107 0 l0 -658 l165 0 l0 -72 l-444 0 Z" /><glyph glyph-name="two" unicode="2" d="M78 528 q2 97 62 154.5 q60 57.5 158 57.5 q99 0 158.5 -57 q59.5 -57 59.5 -153 q0 -54 -29 -113 q-29 -59 -94 -128 l-208 -217 l340 0 l0 -72 l-436 0 l0 73 l248 265 q52 54 75 101 q23 47 23 92 q0 63 -37 101 q-37 38 -100 38 q-64 0 -102.5 -39 q-38.5 -39 -38.5 -103 l-79 0 Z" /><glyph glyph-name="three" unicode="3" d="M74 199 l79 0 q0 -64 37.5 -101 q37.5 -37 99.5 -37 q62 0 99.5 37 q37.5 37 37.5 101 l0 54 q0 63 -37 99 q-37 36 -100 36 l-74 0 l0 69 l185 201 l-306 0 l0 72 l395 0 l0 -74 l-181 -198 q91 -5 144 -60 q53 -55 53 -145 l0 -54 q0 -96 -58.5 -152.5 q-58.5 -56.5 -158.5 -56.5 q-99 0 -157 56.5 q-58 56.5 -58 152.5 Z" /><glyph glyph-name="four" unicode="4" d="M74 163 l0 130 l271 437 l90 0 l-282 -456 l0 -39 l252 0 l0 185 l80 0 l0 -420 l-80 0 l0 163 l-331 0 Z" /><glyph glyph-name="five" unicode="5" d="M79 199 l79 0 q0 -64 37.5 -101 q37.5 -37 99.5 -37 q62 0 99.5 37 q37.5 37 37.5 101 l0 45 q0 65 -36 102.5 q-36 37.5 -98 37.5 l-194 0 l0 346 l383 0 l0 -72 l-309 0 l2 -202 l122 0 q99 0 154 -55.5 q55 -55.5 55 -156.5 l0 -45 q0 -96 -58.5 -152.5 q-58.5 -56.5 -158.5 -56.5 q-99 0 -157 56.5 q-58 56.5 -58 152.5 Z" /><glyph glyph-name="six" unicode="6" d="M147 219 q0 -70 42 -114 q42 -44 111 -44 q68 0 110.5 44.5 q42.5 44.5 42.5 116.5 q0 72 -42.5 117 q-42.5 45 -110.5 45 q-68 0 -110.5 -45 q-42.5 -45 -42.5 -120 ZM68 222 q0 48 18 97.5 q18 49.5 47 101.5 l174 309 l88 0 l-186 -321 l3 -2 q13 17 42 28.5 q29 11.5 65 11.5 q64 0 112 -28.5 q48 -28.5 74.5 -78.5 q26.5 -50 26.5 -116 q0 -69 -29 -122 q-29 -53 -81.5 -82.5 q-52.5 -29.5 -120.5 -29.5 q-70 0 -122.5 29.5 q-52.5 29.5 -81.5 81.5 q-29 52 -29 121 Z" /><glyph glyph-name="seven" unicode="7" d="M84 530 l0 200 l459 0 l0 -75 l-262 -655 l-86 0 l264 658 l-296 0 l0 -128 l-79 0 Z" /><glyph glyph-name="eight" unicode="8" d="M170 543 q0 -57 36 -92 q36 -35 94 -35 q58 0 94 35 q36 35 36 92 q0 56 -36 91.5 q-36 35.5 -94 35.5 q-58 0 -94 -35.5 q-36 -35.5 -36 -91.5 ZM191.5 306 q-41.5 -40 -41.5 -103 q0 -63 41.5 -102.5 q41.5 -39.5 108.5 -39.5 q67 0 108.5 39.5 q41.5 39.5 41.5 102.5 q0 63 -41.5 103 q-41.5 40 -108.5 40 q-67 0 -108.5 -40 ZM70 202 q0 68 39.5 118.5 q39.5 50.5 104.5 62.5 l0 3 q-56 13 -90 57.5 q-34 44.5 -34 103.5 q0 57 26.5 100.5 q26.5 43.5 74 68 q47.5 24.5 109.5 24.5 q62 0 109.5 -24.5 q47.5 -24.5 74 -68 q26.5 -43.5 26.5 -100.5 q0 -59 -34 -103.5 q-34 -44.5 -90 -57.5 l0 -3 q65 -12 104.5 -62.5 q39.5 -50.5 39.5 -118.5 q0 -63 -29 -110.5 q-29 -47.5 -81 -74.5 q-52 -27 -120 -27 q-68 0 -120 27 q-52 27 -81 74.5 q-29 47.5 -29 110.5 Z" /><glyph glyph-name="nine" unicode="9" d="M148 506 q0 -71 42 -115.5 q42 -44.5 110 -44.5 q68 0 110 44.5 q42 44.5 43 116.5 q0 72 -42.5 117 q-42.5 45 -110.5 45 q-68 0 -110 -45 q-42 -45 -42 -118 ZM68 505 q0 70 29.5 123 q29.5 53 81.5 82.5 q52 29.5 120 29.5 q69 0 121.5 -29.5 q52.5 -29.5 82 -81.5 q29.5 -52 29.5 -121 q0 -48 -17 -97.5 q-17 -49.5 -47 -101.5 l-176 -309 l-92 0 l188 321 l-3 2 q-11 -16 -41 -28 q-30 -12 -67 -12 q-62 0 -109 28 q-47 28 -73.5 78 q-26.5 50 -26.5 116 Z" /><glyph glyph-name="colon" unicode=":" d="M220 487 q0 33 20.5 53 q20.5 20 59.5 20 q39 0 59.5 -20 q20.5 -20 20.5 -53 q0 -34 -20.5 -54 q-20.5 -20 -59.5 -20 q-39 0 -59.5 20 q-20.5 20 -20.5 54 ZM220 63 q0 34 20.5 54 q20.5 20 59.5 20 q39 0 59.5 -20 q20.5 -20 20.5 -54 q0 -33 -20.5 -53 q-20.5 -20 -59.5 -20 q-39 0 -59.5 20 q-20.5 20 -20.5 53 Z" /><glyph glyph-name="semicolon" unicode=";" d="M238 433.5 q-21 20.5 -21 52.5 q0 32 21 53 q21 21 53 21 l18 0 q32 0 52.5 -21 q20.5 -21 20.5 -53 q0 -32 -20.5 -52.5 q-20.5 -20.5 -52.5 -20.5 l-18 0 q-32 0 -53 20.5 ZM208 -160 l56 306 l98 0 l-71 -306 l-83 0 Z" /><glyph glyph-name="A" unicode="A" d="M202 266 l195 0 l-62 244 q-15 61 -24 102 q-9 41 -11 54 q-2 -13 -11 -54 q-9 -41 -24 -102 l-63 -244 ZM55 0 l193 730 l105 0 l192 -730 l-80 0 l-51 198 l-228 0 l-50 -198 l-81 0 Z" /><glyph glyph-name="B" unicode="B" d="M175 413 l124 0 q61 0 96 33 q35 33 35 90 q0 57 -35 89.5 q-35 32.5 -96 32.5 l-124 0 l0 -245 ZM175 72 l129 0 q67 0 105.5 35.5 q38.5 35.5 38.5 96.5 q0 63 -38.5 101.5 q-38.5 38.5 -105.5 38.5 l-129 0 l0 -272 ZM98 0 l0 730 l201 0 q98 0 154 -50.5 q56 -50.5 56 -138.5 q0 -37 -16 -70.5 q-16 -33.5 -44.5 -56.5 q-28.5 -23 -66.5 -30 l0 -3 q43 -6 75 -31 q32 -25 50.5 -63.5 q18.5 -38.5 18.5 -84.5 q0 -93 -57.5 -147.5 q-57.5 -54.5 -157.5 -54.5 l-213 0 Z" /><glyph glyph-name="C" unicode="C" d="M97 197 l0 336 q0 96 57 151.5 q57 55.5 155 55.5 q96 0 153.5 -56.5 q57.5 -56.5 57.5 -153.5 l-79 0 q0 66 -35.5 102.5 q-35.5 36.5 -96.5 36.5 q-63 0 -98 -35.5 q-35 -35.5 -35 -100.5 l0 -336 q0 -65 35 -100.5 q35 -35.5 98 -35.5 q62 0 97 36.5 q35 36.5 35 102.5 l79 0 q0 -97 -57.5 -153.5 q-57.5 -56.5 -153.5 -56.5 q-98 0 -155 55.5 q-57 55.5 -57 151.5 Z" /><glyph glyph-name="D" unicode="D" d="M176 71 l102 0 q69 0 109.5 40 q40.5 40 40.5 109 l0 291 q0 68 -40.5 108 q-40.5 40 -109.5 40 l-102 0 l0 -588 ZM97 0 l0 730 l181 0 q70 0 121.5 -27 q51.5 -27 79.5 -76.5 q28 -49.5 28 -115.5 l0 -291 q0 -67 -28 -116.5 q-28 -49.5 -79.5 -76.5 q-51.5 -27 -121.5 -27 l-181 0 Z" /><glyph glyph-name="E" unicode="E" d="M105 0 l0 730 l412 0 l0 -72 l-333 0 l0 -241 l298 0 l0 -71 l-298 0 l0 -274 l333 0 l0 -72 l-412 0 Z" /><glyph glyph-name="F" unicode="F" d="M100 0 l0 730 l425 0 l0 -72 l-347 0 l0 -256 l319 0 l0 -72 l-317 0 l0 -330 l-80 0 Z" /><glyph glyph-name="G" unicode="G" d="M93 197 l0 336 q0 96 57 151.5 q57 55.5 155 55.5 q96 0 153.5 -56.5 q57.5 -56.5 57.5 -153.5 l-79 0 q0 66 -35.5 102.5 q-35.5 36.5 -96.5 36.5 q-63 0 -98 -35.5 q-35 -35.5 -35 -100.5 l0 -336 q0 -65 35 -100.5 q35 -35.5 98 -35.5 q62 0 97 36.5 q35 36.5 35 102.5 l0 105 l-155 0 l0 72 l234 0 l0 -177 q0 -97 -57.5 -153.5 q-57.5 -56.5 -153.5 -56.5 q-98 0 -155 55.5 q-57 55.5 -57 151.5 Z" /><glyph glyph-name="H" unicode="H" d="M98 0 l0 730 l79 0 l0 -316 l246 0 l0 316 l79 0 l0 -730 l-79 0 l0 342 l-246 0 l0 -342 l-79 0 Z" /><glyph glyph-name="I" unicode="I" d="M109 0 l0 72 l151 0 l0 586 l-151 0 l0 72 l382 0 l0 -72 l-150 0 l0 -586 l150 0 l0 -72 l-382 0 Z" /><glyph glyph-name="J" unicode="J" d="M52 207 l79 0 q0 -69 37 -107.5 q37 -38.5 103 -38.5 q66 0 103.5 38.5 q37.5 38.5 37.5 107.5 l0 523 l79 0 l0 -523 q0 -101 -59 -159 q-59 -58 -161 -58 q-102 0 -160.5 58 q-58.5 58 -58.5 159 Z" /><glyph glyph-name="K" unicode="K" d="M97 0 l0 730 l79 0 l0 -318 l120 0 l162 318 l87 0 l-179 -351 l189 -379 l-92 0 l-169 342 l-118 0 l0 -342 l-79 0 Z" /><glyph glyph-name="L" unicode="L" d="M133 0 l0 730 l79 0 l0 -658 l337 0 l0 -72 l-416 0 Z" /><glyph glyph-name="M" unicode="M" d="M77 0 l0 730 l117 0 l105 -330 l107 330 l117 0 l0 -730 l-77 0 l0 370 q0 50 1 110 q1 60 4 119 q3 59 6 105 l-123 -378 l-72 0 l-121 371 q7 -65 10 -149.5 q3 -84.5 3 -177.5 l0 -370 l-77 0 Z" /><glyph glyph-name="N" unicode="N" d="M95 0 l0 730 l106 0 l235 -638 q-1 23 -3 56 q-2 33 -3.5 68 q-1.5 35 -1.5 64 l0 450 l77 0 l0 -730 l-107 0 l-233 638 q2 -30 4.5 -84 q2.5 -54 2.5 -104 l0 -450 l-77 0 Z" /><glyph glyph-name="O" unicode="O" d="M172 197 q0 -65 33.5 -100.5 q33.5 -35.5 94.5 -35.5 q61 0 94.5 35.5 q33.5 35.5 33.5 100.5 l0 336 q0 65 -33.5 100.5 q-33.5 35.5 -94.5 35.5 q-61 0 -94.5 -35.5 q-33.5 -35.5 -33.5 -100.5 l0 -336 ZM93 205 l0 320 q0 102 55.5 158.5 q55.5 56.5 151.5 56.5 q96 0 151.5 -56.5 q55.5 -56.5 55.5 -157.5 l0 -321 q0 -102 -55.5 -158.5 q-55.5 -56.5 -151.5 -56.5 q-96 0 -151.5 56.5 q-55.5 56.5 -55.5 158.5 Z" /><glyph glyph-name="P" unicode="P" d="M176 378 l150 0 q63 0 100.5 38 q37.5 38 37.5 102 q0 65 -37 102.5 q-37 37.5 -101 37.5 l-150 0 l0 -280 ZM97 0 l0 730 l229 0 q101 0 160.5 -57.5 q59.5 -57.5 59.5 -154.5 q0 -96 -59.5 -154 q-59.5 -58 -160.5 -58 l-150 0 l0 -306 l-79 0 Z" /><glyph glyph-name="Q" unicode="Q" d="M166 201 q0 -65 36 -102.5 q36 -37.5 98 -37.5 q62 0 98 37.5 q36 37.5 36 102.5 l0 328 q0 65 -36 102.5 q-36 37.5 -98 37.5 q-62 0 -98 -37.5 q-36 -37.5 -36 -102.5 l0 -328 ZM87 201 l0 328 q0 96 57.5 153.5 q57.5 57.5 155.5 57.5 q98 0 155.5 -58 q57.5 -58 57.5 -153 l0 -328 q0 -66 -28 -115.5 q-28 -49.5 -80 -73.5 l117 -192 l-93 0 l-104 171 q-5 0 -11.5 -0.5 q-6.5 -0.5 -13.5 -0.5 q-98 0 -155.5 57.5 q-57.5 57.5 -57.5 153.5 Z" /><glyph glyph-name="R" unicode="R" d="M176 387 l141 0 q61 0 97.5 37 q36.5 37 36.5 99 q0 61 -37 98 q-37 37 -97 37 l-141 0 l0 -271 ZM98 0 l0 730 l219 0 q65 0 113.5 -26 q48.5 -26 75 -72.5 q26.5 -46.5 26.5 -109.5 q0 -76 -39.5 -128.5 q-39.5 -52.5 -106.5 -71.5 l155 -322 l-89 0 l-148 315 l-128 0 l0 -315 l-78 0 Z" /><glyph glyph-name="S" unicode="S" d="M75 200 l80 0 q0 -64 41 -101.5 q41 -37.5 108 -37.5 q65 0 104 37 q39 37 39 97 q0 48 -25.5 83 q-25.5 35 -71.5 48 l-109 31 q-68 20 -107.5 71 q-39.5 51 -39.5 121 q0 57 26 100 q26 43 72 67 q46 24 107 24 q61 0 108 -24.5 q47 -24.5 73.5 -68 q26.5 -43.5 26.5 -101.5 l-79 0 q0 55 -36 89.5 q-36 34.5 -93 34.5 q-57 0 -92 -33 q-35 -33 -35 -86 q0 -43 23 -74 q23 -31 65 -44 l111 -32 q72 -20 113 -75.5 q41 -55.5 41 -130.5 q0 -62 -27.5 -108 q-27.5 -46 -77 -71.5 q-49.5 -25.5 -116.5 -25.5 q-103 0 -166 56.5 q-63 56.5 -63 153.5 Z" /><glyph glyph-name="T" unicode="T" d="M56 658 l0 72 l488 0 l0 -72 l-204 0 l0 -658 l-79 0 l0 658 l-205 0 Z" /><glyph glyph-name="U" unicode="U" d="M95 197 l0 533 l79 0 l0 -533 q0 -63 32 -99.5 q32 -36.5 94 -36.5 q62 0 94 36.5 q32 36.5 32 99.5 l0 533 l79 0 l0 -533 q0 -96 -53 -151.5 q-53 -55.5 -152 -55.5 q-98 0 -151.5 56 q-53.5 56 -53.5 151 Z" /><glyph glyph-name="V" unicode="V" d="M55 730 l81 0 l132 -511 q12 -50 20.5 -92.5 q8.5 -42.5 12.5 -64.5 q4 22 13.5 65 q9.5 43 21.5 93 l128 510 l81 0 l-192 -730 l-107 0 l-191 730 Z" /><glyph glyph-name="W" unicode="W" d="M25 730 l73 0 l60 -540 q4 -31 7 -70 q3 -39 5 -63 q2 24 6 63 q4 39 8 70 l75 540 l88 0 l69 -540 q3 -31 7.5 -70 q4.5 -39 7.5 -63 q2 24 6 63 q4 39 7 70 l60 540 l71 0 l-90 -730 l-102 0 l-68 545 q-4 35 -7.5 71 q-3.5 36 -5.5 57 q-3 -21 -5.5 -57 q-2.5 -36 -7.5 -71 l-74 -545 l-102 0 l-88 730 Z" /><glyph glyph-name="X" unicode="X" d="M43 0 l212 373 l-199 357 l91 0 l115 -218 q9 -17 20.5 -38.5 q11.5 -21.5 18.5 -35.5 q7 14 18.5 35.5 q11.5 21.5 20.5 38.5 l117 218 l87 0 l-199 -352 l212 -378 l-91 0 l-128 237 q-9 17 -20 39 l-18 36 q-8 -14 -19 -36 q-11 -22 -20 -38 l-130 -238 l-88 0 Z" /><glyph glyph-name="Y" unicode="Y" d="M39 730 l85 0 l148 -308 q11 -24 18.5 -42 q7.5 -18 10.5 -27 q3 8 10.5 26.5 q7.5 18.5 19.5 42.5 l148 308 l82 0 l-221 -455 l0 -275 l-80 0 l0 275 l-221 455 Z" /><glyph glyph-name="Z" unicode="Z" d="M86 0 l0 79 l337 579 l-332 0 l0 72 l412 0 l0 -81 l-336 -577 l347 0 l0 -72 l-428 0 Z" /><glyph glyph-name="underscore" unicode="_" d="M60 -25 l480 0 l0 -67 l-480 0 l0 67 Z" /><glyph glyph-name="a" unicode="a" d="M152 164 q0 -48 33 -77 q33 -29 91 -29 q68 0 108 33.5 q40 33.5 40 91.5 l0 83 l-168 0 q-46 0 -75 -28.5 q-29 -28.5 -29 -73.5 ZM72 161 q0 50 22.5 87.5 q22.5 37.5 62.5 59 q40 21.5 92 21.5 l175 0 l0 46 q0 116 -122 116 q-55 0 -88.5 -22 q-33.5 -22 -36.5 -59 l-79 0 q5 65 59.5 107.5 q54.5 42.5 144.5 42.5 q97 0 149 -48 q52 -48 52 -135 l0 -377 l-78 0 l0 103 l-1 0 q-8 -52 -52.5 -82.5 q-44.5 -30.5 -115.5 -30.5 q-86 0 -135 47.5 q-49 47.5 -49 123.5 Z" /><glyph glyph-name="b" unicode="b" d="M176 197 q0 -65 34 -101.5 q34 -36.5 92 -36.5 q60 0 93.5 32.5 q33.5 32.5 33.5 101.5 l0 163 q0 69 -33.5 102 q-33.5 33 -93.5 33 q-59 0 -92.5 -36.5 q-33.5 -36.5 -33.5 -101.5 l0 -156 ZM97 0 l0 730 l79 0 l0 -157 l-1 -123 q9 51 50 80.5 q41 29.5 102 29.5 q83 0 132 -55 q49 -55 49 -149 l0 -163 q0 -94 -49.5 -148.5 q-49.5 -54.5 -131.5 -54.5 q-61 0 -101 29.5 q-40 29.5 -50 80.5 l0 -100 l-79 0 Z" /><glyph glyph-name="c" unicode="c" d="M94 197 l0 156 q0 96 58.5 151.5 q58.5 55.5 155.5 55.5 q94 0 151.5 -51 q57.5 -51 59.5 -139 l-80 0 q-2 57 -37 88 q-35 31 -94 31 q-61 0 -97.5 -35.5 q-36.5 -35.5 -36.5 -100.5 l0 -156 q0 -65 36.5 -100.5 q36.5 -35.5 97.5 -35.5 q59 0 94 31.5 q35 31.5 37 87.5 l80 0 q-2 -88 -59.5 -139 q-57.5 -51 -151.5 -51 q-97 0 -155.5 55.5 q-58.5 55.5 -58.5 151.5 Z" /><glyph glyph-name="d" unicode="d" d="M171 193 q0 -69 33.5 -101.5 q33.5 -32.5 93.5 -32.5 q58 0 92 36.5 q34 36.5 34 101.5 l0 156 q0 65 -33.5 101.5 q-33.5 36.5 -92.5 36.5 q-60 0 -93.5 -33 q-33.5 -33 -33.5 -102 l0 -163 ZM92 193 l0 163 q0 94 49 149 q49 55 132 55 q61 0 102 -29.5 q41 -29.5 50 -80.5 l-1 123 l0 157 l79 0 l0 -730 l-79 0 l0 100 q-10 -51 -50 -80.5 q-40 -29.5 -101 -29.5 q-82 0 -131.5 54.5 q-49.5 54.5 -49.5 148.5 Z" /><glyph glyph-name="e" unicode="e" d="M167 318 l266 0 l0 35 q0 67 -35 104 q-35 37 -98 37 q-63 0 -98 -37 q-35 -37 -35 -104 l0 -35 ZM90 205 l0 140 q0 100 57 157.5 q57 57.5 153 57.5 q96 0 153 -56.5 q57 -56.5 57 -150.5 l0 -98 l-343 0 l0 -58 q0 -63 36 -100.5 q36 -37.5 97 -37.5 q52 0 86 21.5 q34 21.5 41 58.5 l79 0 q-9 -69 -65 -109 q-56 -40 -141 -40 q-96 0 -153 57.5 q-57 57.5 -57 157.5 Z" /><glyph glyph-name="f" unicode="f" d="M58 403 l0 72 l162 0 l0 119 q0 63 39.5 99.5 q39.5 36.5 108.5 36.5 l159 0 l0 -72 l-159 0 q-68 0 -68 -64 l0 -119 l227 0 l0 -72 l-227 0 l0 -403 l-80 0 l0 403 l-162 0 Z" /><glyph glyph-name="g" unicode="g" d="M172 236 q0 -61 33 -96 q33 -35 93 -35 q58 0 92 36.5 q34 36.5 34 101.5 l0 110 q0 65 -33.5 101.5 q-33.5 36.5 -92.5 36.5 q-60 0 -93 -35 q-33 -35 -33 -96 l0 -124 ZM93 240 l0 117 q0 93 49 148 q49 55 133 55 q60 0 99 -28 q39 -28 49 -77 l1 0 l0 95 l78 0 l0 -554 q0 -83 -49.5 -129.5 q-49.5 -46.5 -136.5 -46.5 l-152 0 l0 72 l153 0 q50 0 78 27.5 q28 27.5 28 76.5 l0 49 l2 96 l-2 0 q-10 -48 -49 -75 q-39 -27 -99 -27 q-84 0 -133 53.5 q-49 53.5 -49 147.5 Z" /><glyph glyph-name="h" unicode="h" d="M97 0 l0 730 l79 0 l0 -281 l1 0 q8 53 47 82 q39 29 101 29 q82 0 131 -51.5 q49 -51.5 49 -139.5 l0 -369 l-79 0 l0 356 q0 66 -33 101.5 q-33 35.5 -90 35.5 q-59 0 -93 -37 q-34 -37 -34 -103 l0 -353 l-79 0 Z" /><glyph glyph-name="i" unicode="i" d="M88 0 l0 72 l196 0 l0 406 l-175 0 l0 72 l255 0 l0 -478 l186 0 l0 -72 l-462 0 ZM247 711 q0 29 18.5 46 q18.5 17 49.5 17 q31 0 49.5 -17 q18.5 -17 18.5 -46 q0 -28 -18.5 -44 q-18.5 -16 -49.5 -16 q-31 0 -49.5 16 q-18.5 16 -18.5 44 Z" /><glyph glyph-name="j" unicode="j" d="M90 478 l0 72 l341 0 l0 -525 q0 -94 -57.5 -149.5 q-57.5 -55.5 -156.5 -55.5 l-122 0 l0 72 l122 0 q65 0 100 34.5 q35 34.5 35 98.5 l0 453 l-262 0 ZM312 711 q0 29 18.5 46 q18.5 17 49.5 17 q31 0 49.5 -17 q18.5 -17 18.5 -46 q0 -28 -18.5 -44 q-18.5 -16 -49.5 -16 q-31 0 -49.5 16 q-18.5 16 -18.5 44 Z" /><glyph glyph-name="k" unicode="k" d="M102 0 l0 730 l79 0 l0 -411 l112 0 l158 231 l91 0 l-179 -262 l189 -288 l-93 0 l-165 250 l-113 0 l0 -250 l-79 0 Z" /><glyph glyph-name="l" unicode="l" d="M35 658 l0 72 l267 0 l0 -580 q0 -37 20 -57.5 q20 -20.5 55 -20.5 l170 0 l0 -72 l-170 0 q-71 0 -112.5 40.5 q-41.5 40.5 -41.5 109.5 l0 508 l-188 0 Z" /><glyph glyph-name="m" unicode="m" d="M64 0 l0 550 l69 0 l0 -74 l2 0 q5 38 29.5 61 q24.5 23 63.5 23 q37 0 62.5 -21.5 q25.5 -21.5 35.5 -58.5 l1 0 q6 37 31 58.5 q25 21.5 64 21.5 q52 0 83 -38.5 q31 -38.5 31 -100.5 l0 -421 l-75 0 l0 421 q0 35 -17 56 q-17 21 -47 21 q-29 0 -46 -20.5 q-17 -20.5 -17 -56.5 l0 -421 l-68 0 l0 421 q0 35 -17 56 q-17 21 -46 21 q-30 0 -47 -20.5 q-17 -20.5 -17 -56.5 l0 -421 l-75 0 Z" /><glyph glyph-name="n" unicode="n" d="M97 0 l0 550 l79 0 l0 -102 q9 53 47.5 82.5 q38.5 29.5 101.5 29.5 q82 0 131 -51.5 q49 -51.5 49 -139.5 l0 -369 l-79 0 l0 356 q0 66 -33 101.5 q-33 35.5 -90 35.5 q-59 0 -93 -37 q-34 -37 -34 -103 l0 -353 l-79 0 Z" /><glyph glyph-name="o" unicode="o" d="M169 199 q0 -67 35 -102 q35 -35 96 -35 q61 0 96 35 q35 35 35 102 l0 152 q0 67 -35 102 q-35 35 -96 35 q-61 0 -96 -35 q-35 -35 -35 -102 l0 -152 ZM90 206 l0 138 q0 101 56.5 158 q56.5 57 153.5 57 q97 0 153.5 -57 q56.5 -57 56.5 -158 l0 -138 q0 -101 -57 -158 q-57 -57 -153 -57 q-96 0 -153 57 q-57 57 -57 158 Z" /><glyph glyph-name="p" unicode="p" d="M176 197 q0 -65 34 -101.5 q34 -36.5 92 -36.5 q60 0 93.5 32.5 q33.5 32.5 33.5 102.5 l0 163 q0 69 -33.5 101.5 q-33.5 32.5 -93.5 32.5 q-58 0 -92 -36.5 q-34 -36.5 -34 -101.5 l0 -156 ZM97 -180 l0 730 l79 0 l0 -100 q10 51 50 80.5 q40 29.5 101 29.5 q82 0 131.5 -54.5 q49.5 -54.5 49.5 -148.5 l0 -163 q0 -94 -49 -149 q-49 -55 -132 -55 q-61 0 -101.5 30.5 q-40.5 30.5 -49.5 81.5 l-1 0 l1 -117 l0 -165 l-79 0 Z" /><glyph glyph-name="q" unicode="q" d="M171 190 q0 -66 33.5 -98.5 q33.5 -32.5 93.5 -32.5 q59 0 92.5 36.5 q33.5 36.5 33.5 101.5 l0 156 q0 65 -34 101.5 q-34 36.5 -92 36.5 q-60 0 -93.5 -32 q-33.5 -32 -33.5 -99 l0 -170 ZM92 194 l0 163 q0 94 49.5 148.5 q49.5 54.5 131.5 54.5 q60 0 100 -28.5 q40 -28.5 50 -78.5 l1 0 l0 97 l79 0 l0 -730 l-79 0 l0 157 l1 120 l-2 0 q-10 -50 -50.5 -78.5 q-40.5 -28.5 -99.5 -28.5 q-83 0 -132 55 q-49 55 -49 149 Z" /><glyph glyph-name="r" unicode="r" d="M117 0 l0 550 l80 0 l0 -102 q9 52 47.5 82 q38.5 30 100.5 30 q87 0 133 -51.5 q46 -51.5 46 -145.5 l0 -48 l-79 0 l0 48 q0 128 -123 128 q-61 0 -93 -36 q-32 -36 -32 -102 l0 -353 l-80 0 Z" /><glyph glyph-name="s" unicode="s" d="M86 147 l80 0 q2 -40 31 -63 q29 -23 79 -23 l51 0 q52 0 80.5 23.5 q28.5 23.5 28.5 65.5 q0 38 -18.5 61.5 q-18.5 23.5 -54.5 27.5 l-144 20 q-60 9 -93 46.5 q-33 37.5 -33 100.5 q0 71 49 112 q49 41 134 41 l47 0 q79 0 128.5 -39 q49.5 -39 54.5 -102 l-80 0 q-4 31 -31.5 52 q-27.5 21 -71.5 21 l-47 0 q-49 0 -77 -23 q-28 -23 -28 -62 q0 -64 67 -73 l136 -19 q68 -9 104 -51 q36 -42 36 -111 q0 -76 -49.5 -118.5 q-49.5 -42.5 -137.5 -42.5 l-51 0 q-88 0 -138 41.5 q-50 41.5 -52 114.5 Z" /><glyph glyph-name="t" unicode="t" d="M51 478 l0 72 l159 0 l0 155 l80 0 l0 -155 l226 0 l0 -72 l-226 0 l0 -338 q0 -32 17.5 -50 q17.5 -18 47.5 -18 l156 0 l0 -72 l-156 0 q-67 0 -106 37.5 q-39 37.5 -39 102.5 l0 338 l-159 0 Z" /><glyph glyph-name="u" unicode="u" d="M95 198 l0 352 l79 0 l0 -352 q0 -64 33.5 -101 q33.5 -37 91.5 -37 q59 0 93 37 q34 37 34 101 l0 352 l79 0 l0 -352 q0 -96 -56 -152 q-56 -56 -150 -56 q-94 0 -149 56 q-55 56 -55 152 Z" /><glyph glyph-name="v" unicode="v" d="M61 550 l85 0 l126 -381 q10 -31 17.5 -61 q7.5 -30 12.5 -47 q4 17 11 47 q7 30 17 61 l125 381 l84 0 l-187 -550 l-104 0 l-187 550 Z" /><glyph glyph-name="w" unicode="w" d="M36 550 l70 0 l59 -394 q4 -26 6.5 -52 q2.5 -26 4.5 -43 q1 17 4.5 43 q3.5 26 7.5 52 l72 394 l80 0 l72 -394 q5 -25 8.5 -51 q3.5 -26 5.5 -44 q1 18 4 44 q3 26 7 51 l60 394 l67 0 l-94 -550 l-90 0 l-65 383 q-4 27 -8.5 59.5 q-4.5 32.5 -6.5 50.5 q-1 -18 -6 -50.5 q-5 -32.5 -9 -59.5 l-68 -383 l-90 0 l-91 550 Z" /><glyph glyph-name="x" unicode="x" d="M57 0 l195 283 l-183 267 l93 0 l116 -178 q6 -10 12.5 -22 q6.5 -12 10.5 -20 q3 8 9.5 20 q6.5 12 13.5 22 l115 178 l93 0 l-183 -268 l194 -282 l-93 0 l-124 188 q-7 11 -14 24.5 q-7 13.5 -11 21.5 q-5 -8 -12.5 -21.5 q-7.5 -13.5 -14.5 -24.5 l-124 -188 l-93 0 Z" /><glyph glyph-name="y" unicode="y" d="M60 550 l86 0 l132 -343 q8 -22 16 -45.5 q8 -23.5 12 -39.5 q4 16 11.5 39.5 q7.5 23.5 15.5 46.5 l123 342 l84 0 l-274 -730 l-82 0 l81 215 l-205 515 Z" /><glyph glyph-name="z" unicode="z" d="M93 0 l0 78 l313 400 l-304 0 l0 72 l393 0 l0 -79 l-317 -399 l329 0 l0 -72 l-414 0 Z" /><glyph glyph-name="braceleft" unicode="{" d="M79 324 l0 71 l119 0 q64 -1 85 23 q16 18 16 55 q0 10 -1 22 l-20 173 q-1 12 -1 23 q0 61 42 97 q50 42 134 42 l48 0 l0 -71 l-48 0 q-47 0 -74 -23 q-23 -19 -23 -54 q0 -6 1 -14 l20 -173 q1 -9 1 -18 q0 -45 -24 -73 q-30 -34 -95 -41 q64 -9 94 -46 q25 -31 25 -74 q0 -9 -1 -18 l-20 -173 q-1 -7 -1 -14 q0 -35 23 -54 q27 -23 74 -23 l48 0 l0 -71 l-48 0 q-84 0 -134 42 q-42 36 -42 97 q0 11 1 23 l20 173 q1 10 1 20 q-1 38 -17 56 q-20 23 -84 23 l-119 0 Z" /><glyph glyph-name="braceright" unicode="}" d="M99 -39 l47 0 q48 0 76 23 q23 18 22 51 q0 8 -1 17 l-27 173 q-2 12 -2 24 q0 39 21 67 q27 38 74 48 q-47 8 -74 42 q-21 27 -21 65 q0 11 2 24 l27 173 q1 9 1 17 q0 33 -22 51 q-28 23 -76 23 l-47 0 l0 71 l47 0 q56 0 99 -19 q43 -19 64 -55 q15 -26 15 -61 q0 -13 -2 -27 l-27 -173 q-2 -14 -2 -27 q0 -34 16 -50 q22 -23 86 -23 l126 0 l0 -71 l-126 0 q-64 0 -86 -23 q-16 -17 -16 -50 q0 -12 2 -26 l27 -173 q2 -14 2 -27 q0 -35 -15 -61 q-21 -36 -64 -55 q-43 -19 -99 -19 l-47 0 l0 71 Z" /><glyph glyph-name="uni3001" unicode="&#x3001;" d="M175 152.5 q-3 7.5 -2.5 15.5 q0.5 8 3 15 q2.5 7 8.5 13 l7 6 q9 8 23.5 8 q14.5 0 24.5 -8 q43 -37 88.5 -82 q45.5 -45 88.5 -92 q4 -5 6 -12 q2 -7 1.5 -14 q-0.5 -7 -3.5 -14 q-3 -7 -8 -11 l-8 -7 q-5 -4 -12.5 -6 q-7.5 -2 -15.5 -2 q-8 0 -14.5 3.5 q-6.5 3.5 -11.5 8.5 q-39 45 -82 88 q-43 43 -84 78 q-6 5 -9 12.5 Z" /><glyph glyph-name="uni3002" unicode="&#x3002;" d="M200 136.5 q-8 -18.5 -8 -39.5 q0 -21 8 -40 q8 -19 22 -32.5 q14 -13.5 32.5 -21.5 q18.5 -8 39.5 -8 q22 0 40.5 8 q18.5 8 32 21.5 q13.5 13.5 21.5 32 q8 18.5 8 40.5 q0 21 -8 39.5 q-8 18.5 -21.5 32.5 q-13.5 14 -32 22 q-18.5 8 -40.5 8 q-21 0 -39.5 -8 q-18.5 -8 -32.5 -22 q-14 -14 -22 -32.5 ZM143 97 q0 32 12 59.5 q12 27.5 32.5 48 q20.5 20.5 48 32.5 q27.5 12 58.5 12 q32 0 59.5 -12 q27.5 -12 48 -32.5 q20.5 -20.5 32.5 -48 q12 -27.5 12 -59.5 q0 -31 -11.5 -59 q-11.5 -28 -32.5 -48.5 q-21 -20.5 -48.5 -32.5 q-27.5 -12 -59.5 -12 q-31 0 -58.5 12 q-27.5 12 -48 32.5 q-20.5 20.5 -32.5 48.5 q-12 28 -12 59 Z" /><glyph glyph-name="uni300A" unicode="&#x300a;" d="M792 369 q-2 4 -2 11 q0 7 2 11 l205 423 q5 12 16.5 19 q11.5 7 20.5 4 q6 -2 9.5 -6.5 q3.5 -4.5 5 -11 q1.5 -6.5 1.5 -14.5 q0 -8 -4 -15 l-198 -405 q-2 -2 -2 -5 q0 -3 2 -5 l198 -405 q4 -7 4 -15 q0 -8 -1.5 -14.5 q-1.5 -6.5 -5 -11 q-3.5 -4.5 -9.5 -6.5 q-9 -3 -20.5 4 q-11.5 7 -16.5 19 l-205 423 ZM635 369 q-2 4 -2 11 q0 7 2 11 l205 423 q5 12 17 19 q12 7 20 4 q6 -2 9.5 -6.5 q3.5 -4.5 5.5 -11 q2 -6.5 1.5 -14.5 q-0.5 -8 -3.5 -15 l-199 -405 q-1 -2 -1 -5 q0 -3 1 -5 l199 -405 q3 -7 3.5 -15 q0.5 -8 -1.5 -14.5 q-2 -6.5 -5.5 -11 q-3.5 -4.5 -9.5 -6.5 q-8 -3 -20 4 q-12 7 -17 19 l-205 423 Z" /><glyph glyph-name="uni300B" unicode="&#x300b;" d="M307.5 -59.5 q-1.5 6.5 -1 14.5 q0.5 8 3.5 15 l198 405 q2 2 2 5 q0 3 -2 5 l-198 405 q-3 7 -3.5 15 q-0.5 8 1 14.5 q1.5 6.5 5.5 11 q4 4.5 9 6.5 q9 3 20.5 -4 q11.5 -7 16.5 -19 l205 -423 q2 -4 2 -11 q0 -7 -2 -11 l-205 -423 q-5 -12 -16.5 -19 q-11.5 -7 -20.5 -4 q-5 2 -9 6.5 q-4 4.5 -5.5 11 ZM151 -59.5 q-2 6.5 -1.5 14.5 q0.5 8 3.5 15 l198 405 q2 2 2 5 q0 3 -2 5 l-198 405 q-3 7 -3.5 15 q-0.5 8 1.5 14.5 q2 6.5 5.5 11 q3.5 4.5 8.5 6.5 q9 3 20.5 -4 q11.5 -7 16.5 -19 l206 -423 q2 -4 2 -11 q0 -7 -2 -11 l-206 -423 q-5 -12 -16.5 -19 q-11.5 -7 -20.5 -4 q-5 2 -8.5 6.5 q-3.5 4.5 -5.5 11 Z" /><glyph glyph-name="uni300C" unicode="&#x300c;" d="M751 236 l0 572 q0 7 3 13.5 q3 6.5 8.5 12 q5.5 5.5 12.5 8.5 q7 3 14 3 l238 0 q8 0 14.5 -2.5 q6.5 -2.5 12 -7.5 q5.5 -5 8.5 -10.5 q3 -5.5 3 -12 q0 -6.5 -3 -12 q-3 -5.5 -8.5 -10.5 q-5.5 -5 -12 -8 q-6.5 -3 -14.5 -3 l-199 0 q-2 0 -4 -2 q-2 -2 -2 -4 l0 -538 q0 -7 -3 -13.5 q-3 -6.5 -8 -12 q-5 -5.5 -11.5 -8.5 q-6.5 -3 -13 -3 q-6.5 0 -13 3 q-6.5 3 -11.5 8.5 q-5 5.5 -8 12.5 q-3 7 -3 14 Z" /><glyph glyph-name="uni300D" unicode="&#x300d;" d="M138 -64.5 q-3 5.5 -3 12 q0 6.5 3 12.5 q3 6 8.5 10.5 q5.5 4.5 12 7.5 q6.5 3 14.5 3 l199 0 q2 0 4 2 q2 2 2 4 l0 538 q0 7 3.5 13.5 q3.5 6.5 8.5 12 q5 5.5 11 8.5 q6 3 12.5 3 q6.5 0 13 -3 q6.5 -3 11.5 -8.5 q5 -5.5 8 -12.5 q3 -7 3 -14 l0 -572 q0 -7 -3 -13.5 q-3 -6.5 -8.5 -12 q-5.5 -5.5 -12 -8.5 q-6.5 -3 -14.5 -3 l-238 0 q-8 0 -14.5 2.5 q-6.5 2.5 -12 7.5 q-5.5 5 -8.5 10.5 Z" /><glyph glyph-name="uni300E" unicode="&#x300e;" d="M731 221 q0 -2 2 -4 q2 -2 5 -2 l91 0 q3 0 5 2 q2 2 2 4 l0 464 q0 8 3.5 14.5 q3.5 6.5 8.5 12 q5 5.5 12 8.5 q7 3 14 3 l153 0 q3 0 4.5 2 q1.5 2 1.5 4 l0 78 q0 2 -2 4 q-2 2 -4 2 l-290 0 q-2 0 -4 -2 q-2 -2 -2 -4 l0 -586 ZM699 220 l0 588 q0 7 3.5 13.5 q3.5 6.5 8.5 12 q5 5.5 12 8.5 q7 3 14 3 l291 0 q7 0 13.5 -3 q6.5 -3 12 -8 q5.5 -5 8.5 -12 q3 -7 3 -14 l0 -79 q0 -7 -3 -14 q-3 -7 -8.5 -12.5 q-5.5 -5.5 -12 -8.5 q-6.5 -3 -13.5 -3 l-153 0 q-3 0 -4.5 -2 q-1.5 -2 -1.5 -4 l0 -464 q0 -7 -3.5 -14 q-3.5 -7 -8.5 -12.5 q-5 -5.5 -12 -8.5 q-7 -3 -15 -3 l-93 0 q-7 0 -14 3 q-7 3 -12 8.5 q-5 5.5 -8.5 12.5 q-3.5 7 -3.5 13 Z" /><glyph glyph-name="uni300F" unicode="&#x300f;" d="M167 31 l0 -78 q0 -2 2 -4 q2 -2 4 -2 l290 0 q2 0 4 2 q2 2 2 4 l0 586 q0 2 -2 4 q-2 2 -5 2 l-91 0 q-3 0 -5 -2 q-2 -2 -2 -4 l0 -464 q0 -7 -3.5 -14 q-3.5 -7 -8.5 -12.5 q-5 -5.5 -12 -8.5 q-7 -3 -14 -3 l-153 0 q-3 0 -4.5 -2 q-1.5 -2 -1.5 -4 ZM135 31 q0 7 3 14 q3 7 8.5 12.5 q5.5 5.5 12 8.5 q6.5 3 13.5 3 l153 0 q3 0 4.5 2 q1.5 2 1.5 4 l0 464 q0 8 3.5 14.5 q3.5 6.5 8.5 12 q5 5.5 12 8.5 q7 3 15 3 l93 0 q7 0 14 -3 q7 -3 12 -8.5 q5 -5.5 8.5 -12 q3.5 -6.5 3.5 -13.5 l0 -588 q0 -7 -3.5 -13.5 q-3.5 -6.5 -8.5 -12 q-5 -5.5 -12 -8.5 q-7 -3 -14 -3 l-291 0 q-7 0 -13.5 3 q-6.5 3 -12 8 q-5.5 5 -8.5 12 q-3 7 -3 14 l0 79 Z" /><glyph glyph-name="uni3010" unicode="&#x3010;" d="M767 -48 l0 856 q0 7 3 13.5 q3 6.5 8.5 12 q5.5 5.5 12 8.5 q6.5 3 13.5 3 l224 0 q14 0 25.5 -0.5 q11.5 -0.5 11.5 -1.5 q0 -2 -3 -4.5 q-3 -2.5 -7 -6.5 q-39 -35 -73 -82 q-34 -47 -59.5 -103.5 q-25.5 -56.5 -40.5 -123.5 q-15 -67 -15 -143 q0 -74 15 -140.5 q15 -66.5 40.5 -124 q25.5 -57.5 59.5 -105 q34 -47.5 73 -82.5 q4 -4 7 -6.5 q3 -2.5 3 -3.5 q0 -2 -11.5 -2.5 q-11.5 -0.5 -25.5 -0.5 l-224 0 q-7 0 -13.5 3 q-6.5 3 -12 8.5 q-5.5 5.5 -8.5 12 q-3 6.5 -3 13.5 Z" /><glyph glyph-name="uni3011" unicode="&#x3011;" d="M135 -82 q0 1 3 3.5 q3 2.5 7 6.5 q39 35 73 82 q34 47 59.5 103.5 q25.5 56.5 40.5 123.5 q15 67 15 143 q0 74 -15 140.5 q-15 66.5 -40.5 124 q-25.5 57.5 -59.5 105 q-34 47.5 -73 82.5 q-4 4 -7 6.5 q-3 2.5 -3 4.5 q0 1 11.5 1.5 q11.5 0.5 25.5 0.5 l224 0 q7 0 13.5 -3 q6.5 -3 12 -8.5 q5.5 -5.5 8.5 -12 q3 -6.5 3 -13.5 l0 -856 q0 -7 -3 -13.5 q-3 -6.5 -8.5 -12 q-5.5 -5.5 -12 -8.5 q-6.5 -3 -13.5 -3 l-224 0 q-14 0 -25.5 0.5 q-11.5 0.5 -11.5 2.5 Z" /><glyph glyph-name="uni4E00" unicode="&#x4e00;" d="M145 388 l0 5 q0 7 3 13.5 q3 6.5 8.5 11.5 q5.5 5 12 8 q6.5 3 13.5 3 l840 0 q6 0 13 -3 q7 -3 12.5 -8 q5.5 -5 8.5 -11.5 q3 -6.5 3 -13.5 l0 -5 q0 -7 -3 -14 q-3 -7 -8.5 -12 q-5.5 -5 -12.5 -8 q-7 -3 -13 -3 l-840 0 q-7 0 -13.5 3 q-6.5 3 -12 8 q-5.5 5 -8.5 12 q-3 7 -3 14 Z" /><glyph glyph-name="uni4E01" unicode="&#x4e01;" d="M161 708 l0 4 q0 6 3 12.5 q3 6.5 8.5 11.5 q5.5 5 12.5 7.5 q7 2.5 14 2.5 l802 0 q7 0 14 -2.5 q7 -2.5 12.5 -7.5 q5.5 -5 8.5 -11.5 q3 -6.5 3 -12.5 l0 -4 q0 -6 -3 -12.5 q-3 -6.5 -8.5 -11.5 q-5.5 -5 -12.5 -8 q-7 -3 -14 -3 l-330 0 l0 -633 q0 -44 -13.5 -65.5 q-13.5 -21.5 -45.5 -30.5 q-28 -9 -78 -11 q-50 -2 -128 -3 q-10 0 -21 8 q-11 8 -15 17 q0 2 -0.5 3 q-0.5 1 -0.5 3 q-4 9 -4 17 q0 9 7 20.5 q7 11.5 26 11.5 q1 0 3 0 q45 -2 79 -2 q8 0 31.5 0.5 q23.5 0.5 43.5 1.5 q19 1 26.5 7 q7.5 6 7.5 23 l0 633 l-390 0 q-7 0 -14 3 q-7 3 -12.5 8 q-5.5 5 -8.5 11.5 q-3 6.5 -3 12.5 Z" /><glyph glyph-name="uni4E03" unicode="&#x4e03;" d="M156 402 l0 3 q-1 7 1 13.5 q2 6.5 6.5 12 q4.5 5.5 10.5 10 q6 4.5 14 4.5 l252 41 l0 300 q0 7 2.5 13 q2.5 6 8 11.5 q5.5 5.5 12 8.5 q6.5 3 13.5 3 l5 0 q7 0 13 -3 q6 -3 11 -8 q5 -5 8 -11.5 q3 -6.5 3 -13.5 l0 -287 l489 79 q6 2 13 -0.5 q7 -2.5 13 -6.5 q6 -4 10.5 -9.5 q4.5 -5.5 5.5 -12.5 l0 -2 q1 -7 -1 -14 q-2 -7 -6.5 -12.5 q-4.5 -5.5 -10.5 -10 q-6 -4.5 -13 -4.5 l-500 -81 l0 -321 q0 -23 3 -38 q3 -15 12.5 -23.5 q9.5 -8.5 26 -11.5 q16.5 -3 44.5 -3 l261 0 q22 0 36.5 5 q14.5 5 23.5 19.5 q9 14.5 13.5 39 q4.5 24.5 7.5 61.5 q3 22 14.5 28.5 q11.5 6.5 21.5 6.5 q8 0 16 -3 q10 -4 17.5 -16 q7.5 -12 6.5 -24 q-5 -52 -13 -88 q-8 -36 -24.5 -58.5 q-16.5 -22.5 -44.5 -32.5 q-28 -10 -74 -10 l-265 0 q-45 0 -76 7 q-31 7 -49.5 23.5 q-18.5 16.5 -26 45.5 q-7.5 29 -7.5 73 l0 308 l-242 -39 q-7 -1 -13.5 1 q-6.5 2 -12.5 6 q-6 4 -10.5 9.5 q-4.5 5.5 -5.5 11.5 Z" /><glyph glyph-name="uni4E07" unicode="&#x4e07;" d="M159 -34 q0 3 2 13.5 q2 10.5 18 22.5 q86 56 136 134 q50 78 76 167 q26 89 34 184 q8 95 11 184 q0 6 3 13 q2 5 5 9 l-243 0 q-7 0 -14 3.5 q-7 3.5 -12.5 8 q-5.5 4.5 -8.5 11 q-3 6.5 -3 13.5 q0 7 3 13 q3 6 8.5 11 q5.5 5 12.5 8 q7 3 14 3 l799 0 q7 0 14 -3 q7 -3 12.5 -8 q5.5 -5 8.5 -11 q3 -6 3 -13 q0 -7 -3 -13.5 q-3 -6.5 -8.5 -11 q-5.5 -4.5 -12.5 -8 q-7 -3.5 -14 -3.5 l-499 0 q3 -4 6 -10 q3 -7 2 -14 q-3 -91 -12 -187 q1 1 2 1 q6 3 13 3 l397 0 q6 0 13 -3 q7 -3 12 -8 l6 -6 l2 -4 l1 -1 q3 -7 3 -13 q0 -5 -1 -9 q-7 -117 -13 -200 q-7 -85 -15.5 -142 q-8.5 -57 -19.5 -89 q-11 -32 -26 -48 q-17 -19 -36.5 -26 q-19.5 -7 -48.5 -9 q-18 -2 -47 -2 q-7 0 -30 0.5 q-23 0.5 -67 3.5 q-12 0 -23.5 8 q-11.5 8 -13.5 18 q-2 6 -2 11 q0 12 9 21 q9 9 28 9 q3 0 7 0 q19 -1 35 -1.5 q16 -0.5 30 -1 q14 -0.5 26 -0.5 l21 0 q18 -1 28.5 1.5 q10.5 2.5 19.5 10.5 q12 11 22 41.5 q10 30.5 17.5 86 q7.5 55.5 13.5 138.5 q5 63 9 144 l-357 0 q-7 0 -13 3 l-8 4 q-11 -81 -35 -158 q-30 -98 -86.5 -182 q-56.5 -84 -152.5 -143 q-5 -5 -12 -6.5 q-7 -1.5 -13.5 -1 q-6.5 0.5 -12.5 3.5 q-6 3 -10 8 q-10 9 -10 22 Z" /><glyph glyph-name="uni4E09" unicode="&#x4e09;" d="M287 378 l0 2 q0 7 3 13 q3 6 8.5 11 q5.5 5 12.5 8 q7 3 14 3 l538 0 q7 0 14 -3 q7 -3 12 -8 q5 -5 8.5 -11 q3.5 -6 3.5 -13 l0 -2 q0 -6 -3.5 -12.5 q-3.5 -6.5 -8.5 -11.5 q-5 -5 -12 -8 q-7 -3 -14 -3 l-538 0 q-7 0 -14 3 q-7 3 -12.5 8 q-5.5 5 -8.5 11.5 q-3 6.5 -3 12.5 ZM223 705 l0 2 q0 7 3.5 13 q3.5 6 8.5 11 q5 5 12 8 q7 3 14 3 l681 0 q7 0 13.5 -3 q6.5 -3 12 -8 q5.5 -5 8.5 -11 q3 -6 3 -13 l0 -2 q0 -6 -3 -12.5 q-3 -6.5 -8.5 -12 q-5.5 -5.5 -12 -8 q-6.5 -2.5 -13.5 -2.5 l-681 0 q-7 0 -14 2.5 q-7 2.5 -12 8 q-5 5.5 -8.5 12 q-3.5 6.5 -3.5 12.5 ZM165 30 l0 2 q0 7 3.5 13 q3.5 6 8.5 11 q5 5 12 8 q7 3 15 3 l792 0 q7 0 14 -3 q7 -3 12 -8 q5 -5 8.5 -11 q3.5 -6 3.5 -13 l0 -2 q0 -7 -3.5 -13 q-3.5 -6 -8.5 -11.5 q-5 -5.5 -12 -8.5 q-7 -3 -14 -3 l-792 0 q-8 0 -15 3 q-7 3 -12 8.5 q-5 5.5 -8.5 11.5 q-3.5 6 -3.5 13 Z" /><glyph glyph-name="uni4E0A" unicode="&#x4e0a;" d="M152 4 l0 1 q0 7 3 13.5 q3 6.5 8.5 11 q5.5 4.5 12 7.5 q6.5 3 13.5 3 l340 0 l0 747 q0 7 3 13.5 q3 6.5 8 12 q5 5.5 11.5 8.5 q6.5 3 12.5 3 l6 0 q6 0 12.5 -3 q6.5 -3 11.5 -8.5 q5 -5.5 7.5 -12 q2.5 -6.5 2.5 -13.5 l0 -274 q1 1 3 1 l337 0 q7 0 13.5 -3 q6.5 -3 12 -8 q5.5 -5 8.5 -11 q3 -6 3 -13 l0 -2 q0 -6 -3 -12.5 q-3 -6.5 -8.5 -11.5 q-5.5 -5 -12 -8 q-6.5 -3 -13.5 -3 l-340 0 l0 -402 l408 0 q7 0 13.5 -3 q6.5 -3 12 -7.5 q5.5 -4.5 8.5 -11 q3 -6.5 3 -13.5 l0 -1 q0 -7 -3 -13.5 q-3 -6.5 -8.5 -11.5 q-5.5 -5 -12 -8 q-6.5 -3 -13.5 -3 l-823 0 q-7 0 -13.5 3 q-6.5 3 -12 8 q-5.5 5 -8.5 11.5 q-3 6.5 -3 13.5 Z" /><glyph glyph-name="uni4E0B" unicode="&#x4e0b;" d="M156 728 l0 2 q0 7 3 13 q3 6 8.5 11.5 q5.5 5.5 12 8 q6.5 2.5 13.5 2.5 l815 0 q7 0 13.5 -2.5 q6.5 -2.5 12 -8 q5.5 -5.5 8.5 -11.5 q3 -6 3 -13 l0 -2 q0 -6 -3 -12.5 q-3 -6.5 -8.5 -11.5 q-5.5 -5 -12 -8 q-6.5 -3 -13.5 -3 l-397 0 q3 -3 4 -7 q3 -6 3 -13 l0 -162 q6 5 16 7 q13 2 23 -3 q39 -19 80.5 -41.5 q41.5 -22.5 81.5 -45.5 q40 -23 76.5 -46 q36.5 -23 65.5 -42 q6 -4 9 -10.5 q3 -6.5 4.5 -13 q1.5 -6.5 0.5 -13.5 q-1 -7 -6 -12 l-5 -7 q-5 -6 -11.5 -9.5 q-6.5 -3.5 -14.5 -4 q-8 -0.5 -15 1.5 q-7 2 -14 6 q-27 20 -60.5 42 q-33.5 22 -71 44.5 q-37.5 22.5 -76.5 45 q-39 22.5 -76 41.5 q-4 2 -7 5 l0 -496 q0 -7 -3 -14 q-3 -7 -7.5 -12.5 q-4.5 -5.5 -11 -8.5 q-6.5 -3 -13.5 -3 l-5 0 q-7 0 -13 3 q-6 3 -11.5 8.5 q-5.5 5.5 -8 12.5 q-2.5 7 -2.5 14 l0 713 q0 7 3 13 q1 4 3 7 l-356 0 q-7 0 -13.5 3 q-6.5 3 -12 8 q-5.5 5 -8.5 11.5 q-3 6.5 -3 12.5 Z" /><glyph glyph-name="uni4E0D" unicode="&#x4e0d;" d="M686 465.5 q-4 7.5 -4.5 15 q-0.5 7.5 2 15 q2.5 7.5 8.5 11.5 l1 2 q8 7 21 7 q13 0 23 -6 q39 -25 79.5 -53.5 q40.5 -28.5 79.5 -57.5 q39 -29 74 -57.5 q35 -28.5 63 -54.5 q5 -4 7.5 -10.5 q2.5 -6.5 2.5 -14 q0 -7.5 -2 -14 q-2 -6.5 -7 -11.5 l-6 -5 q-5 -4 -12.5 -6.5 q-7.5 -2.5 -15 -2 q-7.5 0.5 -14.5 3.5 q-7 3 -12 9 q-26 24 -58 52 q-32 28 -68.5 56 q-36.5 28 -75 56 q-38.5 28 -75.5 53 q-7 5 -11 12.5 ZM175 219 q-6 7 -7.5 15 q-1.5 8 0.5 16 q2 8 7.5 15.5 q5.5 7.5 13.5 11.5 q70 40 134.5 89.5 q64.5 49.5 120.5 106 q56 56.5 103 117.5 q40 52 71 106 l-411 0 q-6 0 -13 3 q-7 3 -12.5 8 q-5.5 5 -8.5 11.5 q-3 6.5 -3 13.5 l0 1 q0 7 3 13.5 q3 6.5 8.5 11.5 q5.5 5 12.5 8 q7 3 13 3 l786 0 q7 0 13.5 -3 q6.5 -3 12 -8 q5.5 -5 8.5 -11.5 q3 -6.5 3 -13.5 l0 -1 q0 -7 -3 -13.5 q-3 -6.5 -8.5 -11.5 q-5.5 -5 -12 -8 q-6.5 -3 -13.5 -3 l-289 0 l0 -3 q0 -8 -4 -14 q-30 -51 -66 -100 q3 -8 3 -19 l0 -600 q0 -7 -2.5 -14 q-2.5 -7 -8 -12 q-5.5 -5 -11.5 -8.5 q-6 -3.5 -13 -3.5 l-5 0 q-7 0 -13.5 3.5 q-6.5 3.5 -11.5 8.5 q-5 5 -8 12 q-3 7 -3 14 l0 527 q-31 -36 -65 -70 q-61 -60 -129.5 -113 q-68.5 -53 -143.5 -96 q-5 -3 -12 -4 q-7 -1 -13.5 0.5 q-6.5 1.5 -12.5 5 q-6 3.5 -9 8.5 q-1 0 -1 1 Z" /><glyph glyph-name="uni4E0E" unicode="&#x4e0e;" d="M282.5 394.5 q-4.5 6.5 -6 15.5 q-1.5 9 0.5 17 q10 38 20.5 82 q10.5 44 20.5 90.5 q10 46.5 20 93.5 q10 47 18 89 q1 7 5 12.5 q4 5.5 9 10 q5 4.5 11.5 7 q6.5 2.5 12.5 2.5 l2 -1 q7 0 13.5 -4 q6.5 -4 10.5 -10.5 q4 -6.5 6 -13.5 q2 -7 1 -14 q-7 -35 -14 -72 l525 0 q7 0 13.5 -2.5 q6.5 -2.5 12 -7.5 q5.5 -5 8.5 -11 q3 -6 3 -12.5 q0 -6.5 -3 -12.5 q-3 -6 -8.5 -11.5 q-5.5 -5.5 -12 -8 q-6.5 -2.5 -13.5 -2.5 l-526 0 q-7 0 -13 3 q-6 -27 -12 -53 q-10 -48 -21 -93 q-5 -21 -10 -41 q3 1 6 1 l590 0 q7 0 13.5 -3 q6.5 -3 12 -8 q5.5 -5 8.5 -11 q3 -6 3 -12 q0 -6 -3 -12 q-1 -2 -1 -3 q-10 -99 -21 -172 q-11 -77 -23 -129 q-12 -52 -25.5 -83.5 q-13.5 -31.5 -31.5 -47.5 q-19 -19 -40 -25.5 q-21 -6.5 -53 -8.5 q-15 -1 -37 -1 q-11 0 -37.5 0.5 q-26.5 0.5 -71.5 3.5 q-12 0 -23.5 8.5 q-11.5 8.5 -14.5 18.5 q-2 5 -2 10 q0 11 9.5 21.5 q9.5 10.5 30.5 10.5 q2 0 3 0 q21 -1 38.5 -2 q17.5 -1 32.5 -2 q15 -1 28 0 l23 0 q20 0 31.5 1.5 q11.5 1.5 21.5 9.5 q14 13 27 42 q13 29 24 79.5 q11 50.5 21 123.5 q8 54 15 123 l-548 0 q-7 0 -14 3 q-7 3 -12 8 l-2 -2 q-11 -9 -21 -9 l-3 0 q-9 0 -16 4 q-7 4 -11.5 10.5 ZM158 202 q0 6 3 12.5 q3 6.5 8.5 11.5 q5.5 5 12 7.5 q6.5 2.5 13.5 2.5 l550 0 q7 0 13.5 -2.5 q6.5 -2.5 11.5 -7.5 q5 -5 8.5 -11.5 q3.5 -6.5 3.5 -13 q0 -6.5 -3.5 -12.5 q-3.5 -6 -8.5 -11 q-5 -5 -11.5 -8 q-6.5 -3 -13.5 -3 l-550 0 q-7 0 -13.5 3 q-6.5 3 -12 8 q-5.5 5 -8.5 11 q-3 6 -3 13 Z" /><glyph glyph-name="uni4E13" unicode="&#x4e13;" d="M157 502 q0 6 3 12 q3 6 8.5 11 q5.5 5 12.5 8 q7 3 13 3 l241 0 q5 14 9 28 q16 47 30 94 l-199 0 q-7 0 -14 2.5 q-7 2.5 -12 8 q-5 5.5 -8.5 11.5 q-3.5 6 -3.5 12.5 q0 6.5 3.5 12.5 q3.5 6 8.5 10.5 q5 4.5 12 7.5 q7 3 14 3 l220 0 q13 43 24 82 q2 6 6 11.5 q4 5.5 10 10 q6 4.5 12 6.5 q6 2 12 1 l3 -1 q7 -1 13 -5.5 q6 -4.5 10 -10.5 q4 -6 5 -13.5 q1 -7.5 -1 -15.5 q-9 -31 -20 -65 l350 0 q6 0 13 -3 q7 -3 12.5 -7.5 q5.5 -4.5 8.5 -10.5 q3 -6 3 -12.5 q0 -6.5 -3 -12.5 q-3 -6 -8.5 -11.5 q-5.5 -5.5 -12.5 -8 q-7 -2.5 -13 -2.5 l-371 0 q-19 -61 -38 -120 q0 -1 -1 -2 l482 0 q6 0 13 -3 q7 -3 12.5 -8 q5.5 -5 8.5 -11 q3 -6 3 -12.5 q0 -6.5 -3 -12.5 q-3 -6 -8.5 -11 q-5.5 -5 -12.5 -8 q-7 -3 -13 -3 l-505 0 q-9 -26 -17 -52 q-12 -33 -22 -62 l409 0 q7 0 14 -3 q1 -1 2 -1 q1 1 3 2 q3 2 7 2 q2 0 4 0.5 q2 0.5 4 0.5 q3 1 9.5 0 q6.5 -1 10.5 -4 l6 -3 q7 -4 11 -11 q4 -7 5 -14.5 q1 -7.5 -1.5 -15.5 q-2.5 -8 -8.5 -14 q-27 -27 -58 -57.5 q-31 -30.5 -64 -63 q-33 -32.5 -66 -64.5 q-25 -24 -49 -47 q21 -9 41 -18 q48 -21 86 -42 q7 -3 12 -9 q5 -6 6.5 -13.5 q1.5 -7.5 1 -15 q-0.5 -7.5 -5.5 -13.5 l-1 -1 q-7 -11 -22 -14.5 q-15 -3.5 -27 2.5 q-33 19 -77 40 q-44 21 -92 41.5 q-48 20.5 -99 40 q-51 19.5 -100 35.5 q-9 3 -15.5 8.5 q-6.5 5.5 -10 12.5 q-3.5 7 -2.5 15 q1 8 6 15 q5 6 15.5 9.5 q10.5 3.5 18.5 1.5 q49 -15 102 -33 q47 -17 92 -34 q3 5 8 9 q33 31 67.5 64.5 q34.5 33.5 67.5 65.5 l59 59 l-375 0 q-6 0 -13 2 q-5 2 -9 6 l-1 -1 q-11 -7 -19 -7 l-4 0 q-9 0 -16 4 q-7 4 -11.5 11 q-4.5 7 -5.5 15 q-1 8 2 17 q19 50 39 109 q4 12 9 25 l-218 0 q-6 0 -13 3 q-7 3 -12.5 8 q-5.5 5 -8.5 11 q-3 6 -3 13 Z" /><glyph glyph-name="uni4E14" unicode="&#x4e14;" d="M384 534 l429 0 q6 0 12 -2 l0 174 q0 2 -1.5 3.5 q-1.5 1.5 -3.5 1.5 l-431 0 q-2 0 -3.5 -1.5 q-1.5 -1.5 -1.5 -3.5 l0 -172 ZM384 284 l429 0 q6 0 12 -2 l0 187 q-6 -2 -12 -2 l-423 0 q-3 0 -6 1 l0 -184 ZM384 35 l441 0 l0 183 q-6 -3 -12 -3 l-423 0 q-3 0 -6 1 l0 -181 ZM157.5 -13 q-3.5 6 -3.5 13 q0 7 3.5 13 q3.5 6 8.5 11 q5 5 11.5 8 q6.5 3 13.5 3 l122 0 l0 709 q0 6 3 13 q3 7 8.5 12.5 q5.5 5.5 12 8.5 q6.5 3 13.5 3 l512 0 q7 0 13.5 -3 q6.5 -3 11.5 -8.5 q5 -5.5 8.5 -12.5 q3.5 -7 3.5 -13 l0 -709 l112 0 q6 0 12.5 -3 q6.5 -3 12 -8 q5.5 -5 8.5 -11 q3 -6 3 -13 q0 -7 -3 -13 q-3 -6 -8.5 -11.5 q-5.5 -5.5 -12 -8 q-6.5 -2.5 -12.5 -2.5 l-820 0 q-7 0 -13.5 2.5 q-6.5 2.5 -11.5 8 q-5 5.5 -8.5 11.5 Z" /><glyph glyph-name="uni4E16" unicode="&#x4e16;" d="M630 273 q0 -2 2 -4 q2 -2 4 -2 l183 0 q2 0 4 2 q2 2 2 4 l0 246 l-195 0 l0 -246 ZM152 553 q0 7 3 13 q3 6 8.5 11.5 q5.5 5.5 12 8 q6.5 2.5 12.5 2.5 l110 0 l0 187 q0 7 3 14 q3 7 8.5 12 q5.5 5 12 8 q6.5 3 12.5 3 l3 0 q7 0 13.5 -3 q6.5 -3 11.5 -8 q5 -5 8 -12 q3 -7 3 -14 l0 -187 l186 0 l0 210 q0 7 2.5 13.5 q2.5 6.5 8 12 q5.5 5.5 12 8.5 q6.5 3 13.5 3 q7 0 13 -3 q6 -3 11 -8.5 q5 -5.5 8 -12.5 q3 -7 3 -14 l0 -209 l195 0 l0 198 q0 7 3 14 q3 7 8.5 12.5 q5.5 5.5 11.5 8.5 q6 3 13 3 l3 0 q7 0 13 -3 q6 -3 11 -8.5 q5 -5.5 8 -12.5 q3 -7 3 -14 l0 -198 l114 0 q7 0 13.5 -2.5 q6.5 -2.5 12 -8 q5.5 -5.5 8.5 -11.5 q3 -6 3 -12.5 q0 -6.5 -3 -12.5 q-3 -6 -8.5 -11 q-5.5 -5 -12 -8 q-6.5 -3 -13.5 -3 l-114 0 l0 -281 q0 -7 -3 -14 q-3 -7 -8.5 -12.5 q-5.5 -5.5 -12.5 -8.5 q-7 -3 -15 -3 l-263 0 q-7 0 -14 3 q-7 3 -12.5 8.5 q-5.5 5.5 -8.5 12 q-3 6.5 -3 13.5 l0 282 l-186 0 l0 -457 q0 -2 1.5 -4 q1.5 -2 3.5 -2 l606 0 q7 0 14 -2.5 q7 -2.5 12 -7.5 q5 -5 8.5 -11 q3.5 -6 3.5 -13 q0 -7 -3.5 -13 q-3.5 -6 -8.5 -11 q-5 -5 -12 -8 q-7 -3 -14 -3 l-648 0 q-7 0 -14 3 q-7 3 -12.5 8.5 q-5.5 5.5 -8.5 12 q-3 6.5 -3 14.5 l0 494 l-110 0 q-6 0 -12.5 3 q-6.5 3 -12 8 q-5.5 5 -8.5 11 q-3 6 -3 12 Z" /><glyph glyph-name="uni4E1A" unicode="&#x4e1a;" d="M803.5 265 q-1.5 7 -1 14.5 q0.5 7.5 4.5 13.5 q17 29 35 63 q18 34 36 69.5 q18 35.5 34 70.5 q16 35 30 68 q3 8 8.5 14 q5.5 6 12.5 9.5 q7 3.5 14.5 3.5 q7.5 0 13.5 -3 q6 -3 10 -8 q4 -5 6.5 -11.5 q2.5 -6.5 2.5 -13.5 q0 -7 -3 -13 q-15 -35 -32.5 -72 q-17.5 -37 -36 -73.5 q-18.5 -36.5 -37 -70.5 q-18.5 -34 -37.5 -65 q-2 -6 -8 -11 q-6 -5 -12.5 -7 q-6.5 -2 -13 -2 q-6.5 0 -11.5 2 q-6 4 -10 9.5 q-4 5.5 -5.5 12.5 ZM198 550 q-2 8 -2 15.5 q0 7.5 3 14.5 q3 7 8.5 12 q5.5 5 12.5 8 q12 3 24.5 -4 q12.5 -7 18.5 -19 q16 -34 33 -71.5 q17 -37.5 33 -74.5 q16 -37 30 -71.5 q14 -34.5 24 -63.5 q1 -6 0.5 -13 q-0.5 -7 -3.5 -13 q-3 -6 -7.5 -11 q-4.5 -5 -10.5 -7 l-2 -1 q-7 -2 -15 -1 q-8 1 -15 4.5 q-7 3.5 -12 9.5 q-5 6 -7 13 q-9 29 -22 62.5 q-13 33.5 -27.5 69.5 q-14.5 36 -31 72 q-16.5 36 -32.5 69 ZM164 -4.5 q-3 6.5 -3 13.5 q0 7 3 13 q3 6 8 11 q5 5 12 8 q7 3 14 3 l246 0 q-1 4 -1 8 l0 738 q0 7 2.5 13.5 q2.5 6.5 8 12 q5.5 5.5 12 8.5 q6.5 3 13.5 3 l1 0 q7 0 13 -3 q6 -3 11.5 -8.5 q5.5 -5.5 8 -12 q2.5 -6.5 2.5 -13.5 l0 -738 q0 -4 -1 -8 l173 0 l0 745 q0 7 2.5 13.5 q2.5 6.5 8 12 q5.5 5.5 12 8.5 q6.5 3 13.5 3 l1 0 q7 0 13.5 -3 q6.5 -3 11.5 -8.5 q5 -5.5 7.5 -12 q2.5 -6.5 2.5 -13.5 l0 -745 l245 0 q7 0 14 -3 q7 -3 12.5 -8 q5.5 -5 8.5 -11 q3 -6 3 -13 q0 -7 -3 -13.5 q-3 -6.5 -8.5 -11.5 q-5.5 -5 -12.5 -8 q-7 -3 -14 -3 l-806 0 q-7 0 -14 3 q-7 3 -12 8 q-5 5 -8 11.5 Z" /><glyph glyph-name="uni4E1C" unicode="&#x4e1c;" d="M789.5 212 q-2.5 8 -1.5 15.5 q1 7.5 5 14 q4 6.5 11 9.5 q8 4 20.5 1.5 q12.5 -2.5 18.5 -9.5 q24 -23 49 -49 q25 -26 47.5 -52.5 q22.5 -26.5 43 -51.5 q20.5 -25 35.5 -47 q4 -6 5 -13 q1 -7 -0.5 -14 q-1.5 -7 -5.5 -12.5 q-4 -5.5 -10 -9.5 l0 -1 q-6 -3 -13.5 -3.5 q-7.5 -0.5 -14.5 2 q-7 2.5 -13.5 7 q-6.5 4.5 -10.5 9.5 q-14 21 -32 45 q-18 24 -39 48.5 q-21 24.5 -43 49 q-22 24.5 -44 46.5 q-5 7 -7.5 15 ZM209 -17 q-13 11 -13 29.5 q0 18.5 13 32.5 q40 38 75 86.5 q35 48.5 61 99.5 q6 11 19.5 18 q13.5 7 25.5 4 l1 0 q7 -3 13 -8 q6 -5 9 -12 q3 -7 2.5 -15 q-0.5 -8 -4.5 -15 q-31 -60 -71.5 -116 q-40.5 -56 -83.5 -99 q-4 -5 -10 -7.5 q-6 -2.5 -13 -3.5 q-7 -1 -13 0.5 q-6 1.5 -11 5.5 ZM181 660 q-3 6 -3 12.5 q0 6.5 3 12.5 q3 6 8.5 11 q5.5 5 12.5 7.5 q7 2.5 13 2.5 l243 0 q26 51 48 103 q3 7 8.5 12 q5.5 5 12.5 8 q7 3 14 3 q7 0 14 -2 l7 -3 q7 -2 11.5 -7.5 q4.5 -5.5 7 -12.5 q2.5 -7 2.5 -14.5 q0 -7.5 -4 -14.5 q-17 -36 -35 -72 l434 0 q7 0 13.5 -2.5 q6.5 -2.5 12 -7.5 q5.5 -5 8.5 -11 q3 -6 3 -12.5 q0 -6.5 -3 -12.5 q-3 -6 -8.5 -11.5 q-5.5 -5.5 -12 -8 q-6.5 -2.5 -13.5 -2.5 l-470 0 q-21 -38 -42 -75 q-31 -52 -62 -98 q-19 -28 -38 -54 l243 0 l0 111 q0 7 3 14 q3 7 8 12.5 q5 5.5 11.5 8.5 q6.5 3 12.5 3 l2 0 q7 0 13 -3 q6 -3 11.5 -8.5 q5.5 -5.5 8 -12.5 q2.5 -7 2.5 -13 l0 -112 l255 0 q7 0 13.5 -2.5 q6.5 -2.5 12 -7.5 q5.5 -5 8.5 -11.5 q3 -6.5 3 -13.5 q0 -6 -3 -12 q-3 -6 -8.5 -11 q-5.5 -5 -12 -8 q-6.5 -3 -13.5 -3 l-255 0 l0 -321 q0 -33 -8.5 -50.5 q-8.5 -17.5 -31.5 -27.5 q-19 -8 -49 -10.5 q-30 -2.5 -73 -2.5 q-12 -1 -23 7 q-11 8 -15 19 q-2 7 -2 13 q0 11 8.5 22.5 q8.5 11.5 29.5 11.5 q26 -1 42.5 -1 q16.5 0 29.5 1 q12 1 16 4.5 q4 3.5 4 14.5 l0 320 l-223 0 q-17 0 -28 -0.5 q-11 -0.5 -18 -2.5 q-12 0 -23 2 q-11 2 -19 6 q-4 1 -7 3 q-2 1 -3 1 q-8 1 -14 5.5 q-6 4.5 -9 11.5 q-2 7 -1 14.5 q1 7.5 5 15.5 q4 8 9 15.5 q5 7.5 10 14.5 l7 7 q2 2 5.5 7 q3.5 5 9.5 13.5 q6 8.5 17 25.5 q11 15 31.5 47.5 q20.5 32.5 45.5 76.5 q9 16 18 33 l-207 0 q-6 0 -13 2.5 q-7 2.5 -12.5 8 q-5.5 5.5 -8.5 11.5 Z" /><glyph glyph-name="uni4E1D" unicode="&#x4e1d;" d="M607 446 q-2 6 -1 13.5 q1 7.5 4.5 15.5 q3.5 8 8 15.5 q4.5 7.5 10.5 14.5 q3 3 4.5 4 q1.5 1 3.5 3.5 q2 2.5 7 9.5 l13 19 q8 12 24.5 37.5 q16.5 25.5 36.5 60.5 q20 35 42 76.5 q22 41.5 40 83.5 q3 7 8.5 12.5 q5.5 5.5 12 9 q6.5 3.5 14 4 q7.5 0.5 14 -1.5 q6.5 -2 11 -8 q4.5 -6 7 -12.5 q2.5 -6.5 2.5 -14 q0 -7.5 -4 -14.5 q-44 -89 -95 -172 q-38 -63 -76 -114 l131 6 q11 0 19 -3 q7 -3 11 -7 l16 22 q37 52 70 105 q4 7 9.5 11.5 q5.5 4.5 12.5 6.5 q7 2 14.5 2 q7.5 0 12.5 -4 q6 -2 10.5 -8.5 q4.5 -6.5 6 -13.5 q1.5 -7 0.5 -14.5 q-1 -7.5 -5 -13.5 q-75 -112 -157 -211 q-62 -74 -124 -135 l246 13 q9 0 16.5 -3.5 q7.5 -3.5 13.5 -8.5 q6 -5 9 -11.5 q3 -6.5 3 -13.5 q-1 -10 -12 -19 q-11 -9 -24 -10 q-68 -4 -117.5 -6.5 q-49.5 -2.5 -84 -5 q-34.5 -2.5 -57.5 -4.5 q-23 -2 -37 -4 q-9 0 -18 1.5 q-9 1.5 -16 5.5 q-2 1 -3 2 q-3 0 -5 1 q-14 2 -19 15 q-2 6 -0.5 13.5 q1.5 7.5 5 15 q3.5 7.5 9.5 15 q6 7.5 12 12.5 q6 4 9 7 q3 3 8 7 q5 4 13 12.5 q8 8.5 22 23.5 q15 15 43 46.5 q28 31.5 62 74.5 q8 11 16 21 q-59 -4 -92 -6 q-36 -3 -54 -5 q-10 -1 -19 1 q-9 2 -16 6 q-4 1 -6 3 q-2 1 -3 1 q-14 2 -18 15 ZM196 442 q-2 6 -1 13 q1 7 4.5 14.5 q3.5 7.5 8.5 15 q5 7.5 10 14.5 q2 3 3.5 4 q1.5 1 4 4 q2.5 3 7.5 10 l13 19 q8 12 24 38 q16 26 36 61.5 q20 35.5 41 77 q21 41.5 39 85.5 q2 6 7.5 12 q5.5 6 12 9.5 q6.5 3.5 14 4 q7.5 0.5 14.5 -2.5 q6 -2 10.5 -7.5 q4.5 -5.5 7 -12 q2.5 -6.5 2.5 -14 q0 -7.5 -3 -13.5 q-43 -91 -93 -176 q-37 -64 -76 -117 l134 7 q10 0 18 -3 q1 0 2 -1 q9 12 18 25 q35 53 67 108 q3 6 9.5 10.5 q6.5 4.5 13 7 q6.5 2.5 14 2.5 q7.5 0 13.5 -3 q6 -3 10 -9 q4 -6 5.5 -13.5 q1.5 -7.5 1 -15 q-0.5 -7.5 -4.5 -13.5 q-72 -113 -152 -215 q-60 -78 -121 -142 l218 12 q8 0 15.5 -2.5 q7.5 -2.5 13.5 -7 q6 -4.5 9 -10.5 q3 -6 3 -13 q-2 -10 -13 -20 q-11 -10 -26 -11 q-59 -4 -102 -7 q-43 -3 -74 -6 q-31 -3 -51 -4.5 q-20 -1.5 -34 -3.5 q-9 -1 -18 1 q-9 2 -17 6 q-2 2 -5 3 q-1 1 -2 1 q-15 3 -19 16 q-2 6 -1 13 q1 7 5 14.5 q4 7.5 9.5 14.5 q5.5 7 12.5 13 q5 4 8.5 7 q3.5 3 7.5 7.5 q4 4.5 12 13 q8 8.5 21 24.5 q14 15 41 47.5 q27 32.5 60 76.5 l10 14 q-51 -4 -81 -6 q-36 -3 -54 -5 q-9 -1 -18.5 1 q-9.5 2 -17.5 6 q-4 2 -7 5 l-1 0 q-15 2 -19 16 ZM152 14 q0 6 3 12 q3 6 8.5 11 q5.5 5 12 7.5 q6.5 2.5 13.5 2.5 l819 0 q7 0 13.5 -2.5 q6.5 -2.5 12 -7.5 q5.5 -5 8.5 -11 q3 -6 3 -12 q0 -7 -3 -13 q-3 -6 -8.5 -10.5 q-5.5 -4.5 -12 -7.5 q-6.5 -3 -13.5 -3 l-819 0 q-7 0 -13.5 3 q-6.5 3 -12 7.5 q-5.5 4.5 -8.5 10.5 q-3 6 -3 13 Z" /><glyph glyph-name="uni4E22" unicode="&#x4e22;" d="M159 347 q0 6 3 12 q3 6 8.5 11 q5.5 5 12 8 q6.5 3 12.5 3 l369 0 q-1 3 -1 6 l0 132 l-284 0 q-6 0 -13 2.5 q-7 2.5 -12.5 7.5 q-5.5 5 -8.5 11 q-3 6 -3 13 q0 7 3 12.5 q3 5.5 8.5 10.5 q5.5 5 12.5 7.5 q7 2.5 13 2.5 l284 0 l0 128 q-63 -5 -127 -8 q-88 -6 -169 -8 q-14 -1 -25.5 7.5 q-11.5 8.5 -14.5 18.5 q-4 15 7.5 28 q11.5 13 31.5 13 q84 4 171 9 q87 5 170.5 13.5 q83.5 8.5 158 18.5 q74.5 10 130.5 23 q8 2 18 -1.5 q10 -3.5 15 -9.5 l5 -6 q7 -8 9 -16 q2 -8 -0.5 -15.5 q-2.5 -7.5 -8.5 -13 q-6 -5.5 -17 -7.5 q-65 -13 -144 -24 q-67 -9 -139 -15 q2 -5 2 -9 l0 -126 l285 0 q7 0 13.5 -2.5 q6.5 -2.5 12 -7.5 q5.5 -5 8.5 -10.5 q3 -5.5 3 -12.5 q0 -7 -3 -13 q-3 -6 -8.5 -11 q-5.5 -5 -12 -7.5 q-6.5 -2.5 -13.5 -2.5 l-285 0 l0 -132 q0 -3 -1 -6 l369 0 q7 0 13.5 -3 q6.5 -3 11.5 -8 q5 -5 8.5 -11 q3.5 -6 3.5 -12 q0 -7 -3.5 -12.5 q-3.5 -5.5 -8.5 -10.5 q-5 -5 -11.5 -8 q-6.5 -3 -13.5 -3 l-466 0 q4 -3 7 -6 q5 -6 7 -14 q2 -8 -0.5 -16 q-2.5 -8 -7.5 -14 q-57 -74 -117 -140 q-34 -39 -68 -72 l491 34 q-17 24 -35 47 q-24 30 -48 58 q-5 7 -7 15.5 q-2 8.5 -0.5 16.5 q1.5 8 7 14.5 q5.5 6.5 13.5 9.5 q8 4 20 1 q12 -3 18 -10 q26 -29 52.5 -60.5 q26.5 -31.5 50.5 -63.5 q24 -32 45 -63 q21 -31 36 -59 q4 -6 4 -13.5 q0 -7.5 -2 -14.5 q-2 -7 -6.5 -12.5 q-4.5 -5.5 -11.5 -8.5 l-3 -1 q-7 -4 -14.5 -3.5 q-7.5 0.5 -14.5 3.5 q-7 3 -13 7.5 q-6 4.5 -10 10.5 q-13 25 -31 54 q-6 9 -13 19 q-4 -4 -9 -7 q-8 -3 -17 -4 q-144 -11 -242.5 -18.5 q-98.5 -7.5 -163.5 -13 q-65 -5.5 -101.5 -9 q-36.5 -3.5 -57.5 -6.5 q-9 -1 -18 0.5 q-9 1.5 -16 5.5 q-5 2 -8 6 q-6 2 -11 5 q-6 4 -8 12 q-2 6 -0.5 13 q1.5 7 6 14.5 q4.5 7.5 10.5 14 q6 6.5 13 10.5 q4 3 6 5 l12 12 q5 5 17 16 q11 9 31.5 30.5 q20.5 21.5 46 51 q25.5 29.5 53.5 64.5 q28 35 52 72 q4 4 8 7 l-295 0 q-6 0 -12.5 3 q-6.5 3 -12 8 q-5.5 5 -8.5 10.5 q-3 5.5 -3 12.5 Z" /><glyph glyph-name="uni4E24" unicode="&#x4e24;" d="M502 700 q2 -6 2 -13 l0 -128 l186 0 l0 128 q0 7 3 13 l-191 0 ZM160 735 q0 6 3 12.5 q3 6.5 8.5 11.5 q5.5 5 12 7.5 q6.5 2.5 13.5 2.5 l808 0 q6 0 12.5 -2.5 q6.5 -2.5 12 -7.5 q5.5 -5 8.5 -11.5 q3 -6.5 3 -13 q0 -6.5 -3 -12.5 q-3 -6 -8.5 -11 q-5.5 -5 -12 -8 q-6.5 -3 -12.5 -3 l-247 0 q2 -6 2 -13 l0 -128 l205 0 q7 0 13 -3 q4 -3 8 -5 q1 -2 2 -3 q6 -4 9 -10 q3 -6 3 -13 l0 -512 q0 -34 -9.5 -53 q-9.5 -19 -35.5 -28 q-22 -7 -60.5 -9 q-38.5 -2 -94.5 -2 q-12 -1 -23 7 q-11 8 -14 18 q-2 6 -2 11 q0 12 9 23 q9 11 28 11 q1 0 3 0 q25 -1 45 -1 q10 0 26.5 0.5 q16.5 0.5 31.5 0.5 q14 1 19 5.5 q5 4.5 5 17.5 l0 477 l-169 0 q-1 -20 -3 -41 q-2 -30 -7 -62 q7 -3 12 -8 q20 -23 39.5 -48 q19.5 -25 37.5 -50 q18 -25 34 -48 q16 -23 28 -43 q5 -8 5 -20 q0 -12 -5 -18 q-6 -8 -13.5 -10.5 q-7.5 -2.5 -15.5 -2 q-8 0.5 -15.5 5 q-7.5 4.5 -13.5 11.5 q-12 20 -26.5 42.5 q-14.5 22.5 -31.5 45.5 q-17 23 -35 47 q-8 11 -16 21 q-13 -50 -36 -101 q-27 -61 -74 -115 q-5 -7 -12 -10.5 q-7 -3.5 -14 -4.5 q-7 -1 -13.5 1 q-6.5 2 -11.5 7 q-10 10 -9 27.5 q1 17.5 11 32.5 q41 48 64 100.5 q23 52.5 35 105 q12 52.5 15 103.5 q0 16 1 32 l-186 0 q-1 -20 -3 -41 q-2 -31 -7 -62 q5 -3 9 -7 q25 -30 47 -62.5 q22 -32.5 36 -58.5 q5 -6 5 -18 q0 -12 -5 -18 q-6 -7 -13.5 -10.5 q-7.5 -3.5 -15.5 -3 q-8 0.5 -16.5 5.5 q-8.5 5 -13.5 12 q-14 24 -33 53 q-9 14 -17 27 q-14 -48 -35 -96 q-27 -61 -74 -115 q-5 -7 -12 -10.5 q-7 -3.5 -14 -4.5 q-7 -1 -13.5 1 q-6.5 2 -11.5 7 q-10 10 -9 27.5 q1 17.5 10 32.5 q41 48 64.5 100.5 q23.5 52.5 35.5 105 q12 52.5 14 103.5 l2 32 l-154 0 q-2 0 -4 -2 q-2 -2 -2 -5 l0 -526 q0 -8 -2.5 -14.5 q-2.5 -6.5 -7.5 -12 q-5 -5.5 -11.5 -8.5 q-6.5 -3 -12.5 -3 l-1 0 q-7 0 -13 3 q-6 3 -11.5 8.5 q-5.5 5.5 -8.5 12 q-3 6.5 -3 13.5 l0 564 q0 7 3.5 14 q3.5 7 8.5 12 q5 5 12 8.5 q7 3.5 13 3.5 l195 0 l0 128 q0 7 3 13 l-240 0 q-7 0 -13.5 3 q-6.5 3 -12 8 q-5.5 5 -8.5 11 q-3 6 -3 13 Z" /><glyph glyph-name="uni4E25" unicode="&#x4e25;" d="M802 504 q-2 7 -1.5 15.5 q0.5 8.5 4.5 15.5 q16 25 34.5 57 q18.5 32 31.5 59 q3 7 8.5 13 q5.5 6 12 9.5 q6.5 3.5 13.5 5 q7 1.5 14 -0.5 q7 -2 12 -8 q5 -6 8 -13 q3 -7 3 -15 q0 -8 -4 -15 q-19 -32 -39.5 -66.5 q-20.5 -34.5 -40.5 -61.5 q-6 -8 -18 -13 q-12 -5 -20 -2 q-6 2 -11 7.5 q-5 5.5 -7 12.5 ZM527 454 l143 0 q-2 5 -2 10 l0 255 l-139 0 l0 -254 q0 -6 -2 -11 ZM267 625 q-3 8 -3.5 16 q-0.5 8 1.5 15.5 q2 7.5 6.5 13 q4.5 5.5 11.5 7.5 q10 4 22 -1.5 q12 -5.5 17 -15.5 q21 -30 39.5 -64.5 q18.5 -34.5 28.5 -63.5 q4 -12 -2 -24.5 q-6 -12.5 -16 -16.5 q-8 -2 -15 -1 q-7 1 -13.5 5 q-6.5 4 -12 10.5 q-5.5 6.5 -8.5 14.5 q-9 23 -23.5 51.5 q-14.5 28.5 -32.5 53.5 ZM144 -21 q0 14 6 26 q22 33 34.5 68.5 q12.5 35.5 19 71 q6.5 35.5 9 72 q2.5 36.5 2.5 72.5 l0 128 q0 7 2.5 13.5 q2.5 6.5 8 12 q5.5 5.5 11.5 8.5 q6 3 13 3 q6 0 12 -3 q7 3 15 3 l183 0 q-1 5 -1 11 l0 254 l-216 0 q-7 0 -14 3 q-7 3 -12.5 7.5 q-5.5 4.5 -8.5 10 q-3 5.5 -3 11.5 q0 6 3 11.5 q3 5.5 8.5 10.5 q5.5 5 12.5 7.5 q7 2.5 14 2.5 l724 0 q7 0 14 -2.5 q7 -2.5 12.5 -7.5 q5.5 -5 8.5 -10.5 q3 -5.5 3 -11.5 q0 -6 -3 -11.5 q-3 -5.5 -8.5 -10 q-5.5 -4.5 -12.5 -7.5 q-7 -3 -14 -3 l-228 0 l0 -255 q0 -5 -1 -10 l260 0 q15 0 26.5 -10 q11.5 -10 11.5 -22 q0 -6 -3 -11.5 q-3 -5.5 -8.5 -10.5 q-5.5 -5 -12.5 -7.5 q-7 -2.5 -14 -2.5 l-713 0 l0 -102 q0 -36 -3 -77.5 q-3 -41.5 -11.5 -84.5 q-8.5 -43 -23.5 -85.5 q-15 -42.5 -38 -80.5 q-4 -8 -11 -12.5 q-7 -4.5 -14 -5.5 q-7 -1 -15 0.5 q-8 1.5 -13 6.5 q-12 10 -12 30 Z" /><glyph glyph-name="uni4E2A" unicode="&#x4e2a;" d="M562 -42 l0 553 q0 6 3.5 12.5 q3.5 6.5 8 12 q4.5 5.5 11 8.5 q6.5 3 12.5 3 l4 0 q7 0 13 -3 q6 -3 11.5 -8.5 q5.5 -5.5 8 -12 q2.5 -6.5 2.5 -12.5 l0 -553 q0 -6 -2.5 -13 q-2.5 -7 -8 -12 q-5.5 -5 -11.5 -8 q-6 -3 -13 -3 l-4 0 q-6 0 -12.5 3 q-6.5 3 -11 8 q-4.5 5 -8 12 q-3.5 7 -3.5 13 ZM162 429 q0 5 3 16 q3 11 21 20 q60 30 117.5 68.5 q57.5 38.5 109 83 q51.5 44.5 96.5 94.5 q45 50 79 102 l10 8 q5 4 12 6 q7 2 13.5 2.5 q6.5 0.5 11.5 -2.5 l1 0 q6 -3 10.5 -9.5 q4.5 -6.5 6 -13 q1.5 -6.5 1 -14.5 q-0.5 -8 -5.5 -14 q-2 -4 -5 -8 l2 -2 q77 -98 169.5 -170.5 q92.5 -72.5 201.5 -131.5 q19 -9 22 -20.5 q3 -11.5 3 -16.5 q0 -12 -8 -23 q-3 -5 -9.5 -8.5 q-6.5 -3.5 -13.5 -5 q-7 -1.5 -14 -1 q-7 0.5 -13 4.5 q-112 62 -207 140 q-92 75 -174 177 q-19 -24 -40 -49 q-48 -55 -103.5 -104 q-55.5 -49 -116 -91 q-60.5 -42 -124.5 -74 q-5 -3 -11.5 -3.5 q-6.5 -0.5 -13 1 q-6.5 1.5 -12 5.5 q-5.5 4 -9.5 8 l-2 2 q-8 11 -8 23 Z" /><glyph glyph-name="uni4E2D" unicode="&#x4e2d;" d="M635 320 l293 0 l0 264 q0 2 -2 4 q-2 2 -4 2 l-287 0 l0 -270 ZM268 320 l292 0 l0 270 l-286 0 q-2 0 -4 -2 q-2 -2 -2 -4 l0 -264 ZM197 224 l0 400 q0 6 3 12.5 q3 6.5 8.5 12 q5.5 5.5 12.5 8.5 q7 3 14 3 l325 0 l0 142 q0 7 3 14 q3 7 8 12 q5 5 11.5 8.5 q6.5 3.5 13.5 3.5 l3 0 q7 0 13 -3.5 q6 -3.5 11.5 -8.5 q5.5 -5 8.5 -12 q3 -7 3 -14 l0 -142 l329 0 q7 0 13.5 -3 q6.5 -3 12 -8 q5.5 -5 8.5 -12 q3 -7 3 -13 l0 -395 q0 -7 -2.5 -13.5 q-2.5 -6.5 -8 -12 q-5.5 -5.5 -11.5 -8.5 q-6 -3 -13 -3 l-3 0 q-7 0 -13 3 q-6 3 -11.5 8.5 q-5.5 5.5 -8 12.5 q-2.5 7 -2.5 14 l0 20 l-293 0 l0 -290 q0 -7 -3 -14 q-3 -7 -8.5 -12 q-5.5 -5 -11.5 -8.5 q-6 -3.5 -13 -3.5 l-3 0 q-7 0 -13.5 3.5 q-6.5 3.5 -11.5 8.5 q-5 5 -8 12 q-3 7 -3 14 l0 290 l-292 0 l0 -25 q0 -7 -2.5 -14 q-2.5 -7 -8 -12.5 q-5.5 -5.5 -11.5 -8.5 q-6 -3 -13 -3 q-7 0 -13.5 3 q-6.5 3 -11.5 8.5 q-5 5.5 -8 12 q-3 6.5 -3 13.5 Z" /><glyph glyph-name="uni4E30" unicode="&#x4e30;" d="M154 198 l0 1 q0 7 3 13 q3 6 8 11.5 q5 5.5 11.5 8.5 q6.5 3 13.5 3 l372 0 l0 165 l-284 0 q-7 0 -14 3 q-7 3 -12.5 8 q-5.5 5 -8.5 11 q-3 6 -3 13 q0 7 3 13 q3 6 8.5 11 q5.5 5 12.5 7.5 q7 2.5 14 2.5 l284 0 l0 153 l-334 0 q-7 0 -14 2.5 q-7 2.5 -12.5 8 q-5.5 5.5 -8.5 12 q-3 6.5 -3 13.5 q0 7 3 13 q3 6 8.5 11 q5.5 5 12.5 8 q7 3 14 3 l334 0 l0 110 q0 7 3 13.5 q3 6.5 8 12 q5 5.5 11 8.5 q6 3 13 3 l5 0 q7 0 13 -3 q6 -3 11.5 -8.5 q5.5 -5.5 8 -12 q2.5 -6.5 2.5 -13.5 l0 -110 l333 0 q7 0 14 -3 q7 -3 12.5 -8 q5.5 -5 8.5 -11 q3 -6 3 -13 q0 -7 -3 -13.5 q-3 -6.5 -8.5 -12 q-5.5 -5.5 -12.5 -8 q-7 -2.5 -14 -2.5 l-333 0 l0 -153 l288 0 q7 0 13.5 -2.5 q6.5 -2.5 12 -7.5 q5.5 -5 8.5 -11 q3 -6 3 -13 q0 -7 -3 -13 q-3 -6 -8.5 -11 q-5.5 -5 -12 -8 q-6.5 -3 -13.5 -3 l-288 0 l0 -165 l374 0 q7 0 13.5 -3 q6.5 -3 12 -8.5 q5.5 -5.5 8.5 -11.5 q3 -6 3 -13 l0 -1 q0 -6 -3 -12.5 q-3 -6.5 -8.5 -11.5 q-5.5 -5 -12 -8 q-6.5 -3 -13.5 -3 l-374 0 l0 -203 q0 -7 -2.5 -13.5 q-2.5 -6.5 -8 -12 q-5.5 -5.5 -11.5 -8.5 q-6 -3 -13 -3 l-5 0 q-7 0 -13 3 q-6 3 -11 8.5 q-5 5.5 -8 12 q-3 6.5 -3 13.5 l0 203 l-372 0 q-7 0 -13.5 3 q-6.5 3 -11.5 8 q-5 5 -8 11.5 q-3 6.5 -3 12.5 Z" /><glyph glyph-name="uni4E32" unicode="&#x4e32;" d="M635 517 l237 0 q2 0 4 2 q2 2 2 4 l0 130 q0 2 -2 4 q-2 2 -4 2 l-237 0 l0 -142 ZM635 152 l281 0 q4 0 7 -1 l0 144 q0 2 -2 4 q-2 2 -4 2 l-282 0 l0 -149 ZM318 523 q0 -2 2 -4 q2 -2 4 -2 l235 0 l0 142 l-235 0 q-2 0 -4 -2 q-2 -2 -2 -4 l0 -130 ZM279 151 q4 1 8 1 l272 0 l0 149 l-274 0 q-2 0 -4 -2 q-2 -2 -2 -4 l0 -144 ZM206 83 l0 247 q0 8 3 14.5 q3 6.5 8.5 12 q5.5 5.5 12.5 8.5 q7 3 13 3 l316 0 l0 85 l-276 0 q-7 0 -14 3 q-7 3 -12.5 8.5 q-5.5 5.5 -8.5 12 q-3 6.5 -3 13.5 l0 197 q0 6 3 12.5 q3 6.5 8.5 12 q5.5 5.5 12.5 8.5 q7 3 14 3 l276 0 l0 79 q0 7 3 13.5 q3 6.5 8 12 q5 5.5 11.5 8.5 q6.5 3 12.5 3 l6 0 q6 0 12.5 -3 q6.5 -3 11.5 -8.5 q5 -5.5 8 -12 q3 -6.5 3 -13.5 l0 -79 l281 0 q8 0 14.5 -3 q6.5 -3 12 -8.5 q5.5 -5.5 8.5 -12 q3 -6.5 3 -12.5 l0 -197 q0 -7 -3 -13.5 q-3 -6.5 -8.5 -12 q-5.5 -5.5 -12 -8.5 q-6.5 -3 -14.5 -3 l-281 0 l0 -85 l327 0 q7 0 13.5 -3 q6.5 -3 12 -8.5 q5.5 -5.5 8.5 -12 q3 -6.5 3 -13.5 l0 -247 q0 -6 -3 -13 q-3 -7 -8 -12.5 q-5 -5.5 -11 -8.5 q-6 -3 -13 -3 l-5 0 q-7 0 -13.5 3 q-6.5 3 -12 8.5 q-5.5 5.5 -8 12.5 q-2.5 7 -2.5 14 l0 3 q-3 -1 -7 -1 l-281 0 l0 -128 q0 -7 -3 -13.5 q-3 -6.5 -8 -12 q-5 -5.5 -11.5 -8.5 q-6.5 -3 -12.5 -3 l-6 0 q-6 0 -12.5 3 q-6.5 3 -11.5 8.5 q-5 5.5 -8 12 q-3 6.5 -3 13.5 l0 128 l-272 0 q-4 0 -8 1 l0 -5 q0 -7 -3 -14 q-3 -7 -7.5 -12.5 q-4.5 -5.5 -11 -8.5 q-6.5 -3 -12.5 -3 l-4 0 q-7 0 -13 3 q-6 3 -11.5 8.5 q-5.5 5.5 -8 12.5 q-2.5 7 -2.5 14 Z" /><glyph glyph-name="uni4E34" unicode="&#x4e34;" d="M806 42 l145 0 l0 262 q0 2 -2 4 q-2 2 -5 2 l-138 0 q2 -5 2 -10 l0 -246 q0 -6 -2 -12 ZM706 556 q-4 7 -5 14.5 q-1 7.5 1.5 15 q2.5 7.5 7.5 12.5 q7 6 20.5 6 q13.5 0 22.5 -6 q32 -26 64.5 -54.5 q32.5 -28.5 55.5 -51.5 q6 -4 9 -10.5 q3 -6.5 3.5 -13.5 q0.5 -7 -1.5 -13.5 q-2 -6.5 -6.5 -11.5 q-4.5 -5 -11.5 -7.5 q-7 -2.5 -14.5 -2.5 q-7.5 0 -14.5 2.5 q-7 2.5 -13 8.5 q-21 22 -50.5 49 q-29.5 27 -57.5 51 q-6 5 -10 12 ZM596 42 l147 0 q-2 6 -2 12 l0 246 q0 5 2 10 l-140 0 q-3 0 -5 -2 q-2 -2 -2 -5 l0 -261 ZM526 -42 l0 384 q0 7 3.5 13 q3.5 6 8.5 11.5 q5 5.5 12 8.5 q7 3 14 3 l421 0 q8 0 14.5 -3 q6.5 -3 12 -8 q5.5 -5 8.5 -11.5 q3 -6.5 3 -13.5 l0 -380 q0 -6 -3 -12.5 q-3 -6.5 -8 -12 q-5 -5.5 -11.5 -8.5 q-6.5 -3 -12.5 -3 l-1 0 q-7 0 -13.5 3 q-6.5 3 -11.5 8.5 q-5 5.5 -8 12 q-3 6.5 -3 13.5 l0 12 l-349 0 q-3 0 -6 1 l0 -17 q0 -7 -3 -13.5 q-3 -6.5 -7.5 -12 q-4.5 -5.5 -11 -8.5 q-6.5 -3 -13 -3 q-6.5 0 -13 3 q-6.5 3 -11 8.5 q-4.5 5.5 -8 11.5 q-3.5 6 -3.5 13 ZM470 499 q0 15 11 30 q44 57 78.5 128.5 q34.5 71.5 57.5 151.5 q2 7 6.5 12.5 q4.5 5.5 10.5 9.5 q6 4 13 6 q7 2 13 0 q7 -1 13 -5.5 q6 -4.5 10 -10.5 q4 -6 5 -13.5 q1 -7.5 -1 -14.5 q-11 -36 -24 -71 l352 0 q7 0 13 -2.5 q6 -2.5 11.5 -8 q5.5 -5.5 8.5 -11.5 q3 -6 3 -12.5 q0 -6.5 -3 -12.5 q-3 -6 -8.5 -11 q-5.5 -5 -12 -8 q-6.5 -3 -13.5 -3 l-368 0 q-6 0 -11 1 q-7 -16 -15 -32 q-39 -81 -86 -141 q-4 -6 -10 -10 q-6 -4 -13 -5.5 q-7 -1.5 -13.5 -0.5 q-6.5 1 -11.5 4 q-16 10 -16 30 ZM353 -35 l0 825 q0 7 2.5 13.5 q2.5 6.5 8 11.5 q5.5 5 12 8.5 q6.5 3.5 13 3.5 q6.5 0 12.5 -3.5 q6 -3.5 11 -8.5 q5 -5 8 -11.5 q3 -6.5 3 -13.5 l0 -825 q0 -7 -3 -13 q-3 -6 -8 -11.5 q-5 -5.5 -11 -8.5 q-6 -3 -12.5 -3 q-6.5 0 -13 3 q-6.5 3 -12 8.5 q-5.5 5.5 -8 11.5 q-2.5 6 -2.5 13 ZM187 91 l0 590 q0 7 2.5 13.5 q2.5 6.5 7.5 11.5 q5 5 11 8.5 q6 3.5 13 3.5 q6 0 12 -3.5 q6 -3.5 10.5 -8.5 q4.5 -5 7.5 -11.5 q3 -6.5 3 -13.5 l0 -590 q0 -7 -3 -13.5 q-3 -6.5 -7.5 -12 q-4.5 -5.5 -10.5 -8.5 q-6 -3 -12 -3 q-7 0 -13 3 q-6 3 -11 8.5 q-5 5.5 -7.5 12 q-2.5 6.5 -2.5 13.5 Z" /><glyph glyph-name="uni4E3A" unicode="&#x4e3a;" d="M619.5 350.5 q-1.5 8.5 -0.5 16 q1 7.5 5.5 13.5 q4.5 6 10.5 10 q10 4 22.5 0.5 q12.5 -3.5 19.5 -12.5 q31 -33 60 -71 q29 -38 47 -69 q4 -5 4 -11.5 q0 -6.5 -1.5 -13 q-1.5 -6.5 -5.5 -12 q-4 -5.5 -9 -9.5 q-7 -3 -14.5 -3 q-7.5 0 -15 2.5 q-7.5 2.5 -13.5 8 q-6 5.5 -10 11.5 q-17 28 -42 61.5 q-25 33.5 -51 62.5 q-5 7 -6.5 15.5 ZM291 747 q-5 7 -6.5 15 q-1.5 8 0 16 q1.5 8 6 14 q4.5 6 11.5 9 q9 5 21.5 1.5 q12.5 -3.5 18.5 -12.5 q21 -22 41 -47.5 q20 -25.5 34 -46.5 q4 -6 4.5 -13 q0.5 -7 -1.5 -13.5 q-2 -6.5 -6.5 -12 q-4.5 -5.5 -9.5 -8.5 q-6 -3 -14 -3 q-8 0 -15 3 q-7 3 -13.5 8 q-6.5 5 -10.5 11 q-11 18 -27 39 q-16 21 -33 40 ZM181 -17 q0 21 18 35 q110 81 173.5 172 q63.5 91 94.5 183 q26 78 36 154 l-282 0 q-8 0 -15 2.5 q-7 2.5 -12 8 q-5 5.5 -8.5 11.5 q-3.5 6 -3.5 13 l0 2 q0 6 3.5 12.5 q3.5 6.5 8.5 11.5 q5 5 12 7.5 q7 2.5 15 2.5 l288 0 q4 64 4 122 l0 80 q0 7 3 14 q3 7 8 12 q5 5 11.5 8.5 q6.5 3.5 12.5 3.5 l2 0 q7 0 13 -3.5 q6 -3.5 11.5 -8.5 q5.5 -5 8 -12 q2.5 -7 2.5 -14 l0 -80 q0 -57 -4 -122 l381 0 q7 0 14 -2.5 q7 -2.5 12 -7.5 q5 -5 8.5 -11.5 q3.5 -6.5 3.5 -12.5 l0 -2 q0 -4 -1 -7 q-6 -148 -12 -251 q-6 -104 -14 -172.5 q-8 -68.5 -18 -105.5 q-10 -37 -25 -55 q-17 -20 -36 -28.5 q-19 -8.5 -46 -10.5 q-14 -1 -34 -1 q-10 0 -32 0.5 q-22 0.5 -60 1.5 q-13 0 -24.5 9 q-11.5 9 -14.5 19 q-2 6 -2 11 q0 12 9.5 22.5 q9.5 10.5 30.5 10.5 q2 0 3 0 q16 -1 29.5 -1.5 q13.5 -0.5 25 -1 q11.5 -0.5 21.5 -0.5 l20 0 q15 -1 24.5 2 q9.5 3 18.5 13 q12 12 21.5 47.5 q9.5 35.5 17 102.5 q7.5 67 13.5 169 q4 82 9 191 l-349 0 q-9 -90 -41 -184 q-34 -101 -103 -201 q-69 -100 -190 -187 q-5 -4 -12.5 -5.5 q-7.5 -1.5 -14 -1 q-6.5 0.5 -13 2.5 q-6.5 2 -10.5 6 q-10 12 -10 26 Z" /><glyph glyph-name="uni4E3B" unicode="&#x4e3b;" d="M504.5 779 q-3.5 8 -4 16 q-0.5 8 2.5 15 q3 7 11 11 l2 2 q7 4 18.5 4 q11.5 0 18.5 -5 q37 -28 73.5 -60 q36.5 -32 63.5 -61 q5 -5 7.5 -12 q2.5 -7 2 -14 q-0.5 -7 -4 -13.5 q-3.5 -6.5 -8.5 -10.5 l-3 -3 q-5 -4 -12 -5.5 q-7 -1.5 -14 0 q-7 1.5 -14 4 q-7 2.5 -12 7.5 q-21 25 -52 55 q-31 30 -64 56 q-8 6 -11.5 14 ZM160 -23 q-3 6 -3 13 q0 7 3 13.5 q3 6.5 8.5 11 q5.5 4.5 12 7.5 q6.5 3 12.5 3 l368 0 l0 250 l-275 0 q-6 0 -13 3.5 q-7 3.5 -12.5 8 q-5.5 4.5 -8.5 10.5 q-3 6 -3 13 q0 7 3 13 q3 6 8.5 11 q5.5 5 12.5 8 q7 3 13 3 l275 0 l0 201 q0 7 3 14 q2 4 6 8 l-329 0 q-7 0 -14 3.5 q-7 3.5 -12 8 q-5 4.5 -8.5 11 q-3.5 6.5 -3.5 13.5 q0 7 3.5 13 q3.5 6 8.5 11 q5 5 12 8 q7 3 14 3 l718 0 q7 0 14 -3 q7 -3 12 -8 q5 -5 8.5 -11 q3.5 -6 3.5 -13 q0 -7 -3.5 -13.5 q-3.5 -6.5 -8.5 -11 q-5 -4.5 -12 -8 q-7 -3.5 -14 -3.5 l-329 0 q3 -4 5 -8 q3 -7 3 -14 l0 -201 l280 0 q7 0 14 -3 q7 -3 12.5 -8 q5.5 -5 8.5 -11 q3 -6 3 -13 q0 -7 -3 -13 q-3 -6 -8.5 -10.5 q-5.5 -4.5 -12.5 -8 q-7 -3.5 -14 -3.5 l-280 0 l0 -250 l373 0 q7 0 13.5 -3 q6.5 -3 11.5 -7.5 q5 -4.5 8.5 -11 q3.5 -6.5 3.5 -13.5 q0 -7 -3.5 -13 q-3.5 -6 -8.5 -11.5 q-5 -5.5 -11.5 -8 q-6.5 -2.5 -13.5 -2.5 l-818 0 q-6 0 -12.5 2.5 q-6.5 2.5 -12 8 q-5.5 5.5 -8.5 11.5 Z" /><glyph glyph-name="uni4E3E" unicode="&#x4e3e;" d="M524 781 q-4 7 -5.5 15.5 q-1.5 8.5 0 16 q1.5 7.5 5.5 13.5 q4 6 11 9 q9 4 21.5 0.5 q12.5 -3.5 18.5 -12.5 q18 -25 34.5 -52.5 q16.5 -27.5 27.5 -49.5 q3 -6 3 -12.5 q0 -6.5 -1.5 -13 q-1.5 -6.5 -6 -11.5 q-4.5 -5 -9.5 -8 q-7 -2 -14.5 -2 q-7.5 0 -14.5 3 q-7 3 -12.5 9 q-5.5 6 -9.5 12 q-9 19 -21.5 40.5 q-12.5 21.5 -26.5 42.5 ZM280.5 766.5 q-1.5 8.5 -0.5 16 q1 7.5 5.5 14 q4.5 6.5 11.5 10.5 q9 4 21 1.5 q12 -2.5 18 -10.5 q21 -23 40.5 -49 q19.5 -26 33.5 -49 q4 -5 4.5 -12 q0.5 -7 -1 -13.5 q-1.5 -6.5 -5.5 -12 q-4 -5.5 -10 -8.5 q-6 -3 -13.5 -3.5 q-7.5 -0.5 -15 2.5 q-7.5 3 -14 7.5 q-6.5 4.5 -10.5 11.5 q-11 18 -26 39 q-15 21 -32 40 q-5 7 -6.5 15.5 ZM192 153 q0 6 3.5 12 q3.5 6 8.5 11 q5 5 12 7.5 q7 2.5 13 2.5 l335 0 l0 127 l-194 0 q-7 0 -14 3 q-7 3 -12 8 q-5 5 -8.5 10.5 q-3.5 5.5 -3.5 12.5 q0 6 3.5 12 q3.5 6 8.5 11 q5 5 12 7.5 q7 2.5 14 2.5 l194 0 l0 88 q0 6 3 13 q3 7 8 12 q5 5 11.5 8.5 q6.5 3.5 13.5 3.5 l1 0 q6 0 12.5 -3.5 q6.5 -3.5 11.5 -8.5 q5 -5 8 -12 q3 -7 3 -13 l0 -88 l202 0 q7 0 13.5 -2.5 q6.5 -2.5 12 -7.5 q5.5 -5 8.5 -11 q3 -6 3 -12 q0 -7 -3 -12.5 q-3 -5.5 -8.5 -10.5 q-5.5 -5 -12 -8 q-6.5 -3 -13.5 -3 l-202 0 l0 -127 l343 0 q7 0 13.5 -2.5 q6.5 -2.5 12 -7.5 q5.5 -5 8.5 -11 q3 -6 3 -12 q0 -7 -3 -13 q-3 -6 -8.5 -10.5 q-5.5 -4.5 -12 -7.5 q-6.5 -3 -13.5 -3 l-343 0 l0 -162 q0 -7 -3 -14 q-3 -7 -8 -12 q-5 -5 -11.5 -8 q-6.5 -3 -12.5 -3 l-1 0 q-7 0 -13.5 3 q-6.5 3 -11.5 8 q-5 5 -8 12 q-3 7 -3 14 l0 162 l-335 0 q-6 0 -13 3 q-7 3 -12 7.5 q-5 4.5 -8.5 10.5 q-3.5 6 -3.5 13 ZM154 337 q0 5 3.5 16.5 q3.5 11.5 21.5 21.5 q34 16 66.5 39 q32.5 23 61.5 50 q29 27 54 58 q22 26 39 54 l-208 0 q-6 0 -12.5 2.5 q-6.5 2.5 -12 7.5 q-5.5 5 -8.5 11 q-3 6 -3 12 q0 6 3 12 q3 6 8.5 10.5 q5.5 4.5 12 7 q6.5 2.5 12.5 2.5 l565 0 q0 2 -1 4 q-1 8 0.5 16 q1.5 8 6.5 16 q20 26 44 58.5 q24 32.5 41 60.5 q6 12 20.5 18 q14.5 6 26.5 2 l1 0 q8 -3 13.5 -9 q5.5 -6 7.5 -13.5 q2 -7.5 1 -15.5 q-1 -8 -6 -15 q-24 -33 -51 -68 q-22 -29 -44 -54 l192 0 q7 0 13.5 -2.5 q6.5 -2.5 11.5 -7 q5 -4.5 8 -10.5 q3 -6 3 -12 q0 -6 -3 -12 q-3 -6 -8 -11 q-5 -5 -11.5 -7.5 q-6.5 -2.5 -13.5 -2.5 l-204 0 q17 -24 38 -48 q26 -29 55.5 -55 q29.5 -26 61.5 -48.5 q32 -22.5 64 -38.5 q18 -10 21.5 -21.5 q3.5 -11.5 3.5 -16.5 q0 -11 -7 -20 q-7 -9 -21.5 -11.5 q-14.5 -2.5 -25.5 3.5 q-36 20 -71.5 45.5 q-35.5 25.5 -68 56 q-32.5 30.5 -61.5 64.5 q-29 34 -51 70 q-5 6 -5 14 q-1 3 -1 6 l-271 0 q1 -5 1 -9 q-1 -8 -6 -14 q-22 -39 -51 -74 q-29 -35 -61.5 -65.5 q-32.5 -30.5 -69 -56.5 q-36.5 -26 -73.5 -46 q-11 -6 -24.5 -4 q-13.5 2 -20.5 11 q-7 9 -7 19 Z" /><glyph glyph-name="uni4E45" unicode="&#x4e45;" d="M161.5 343 q-3.5 8 -3.5 16 q0 8 3.5 16.5 q3.5 8.5 10.5 14.5 q83 78 147.5 185 q64.5 107 107.5 230 q2 7 7 12 q5 5 11 9 q6 4 13 5 q7 1 13 0 l6 -1 q7 -2 12.5 -7 q5.5 -5 9 -11.5 q3.5 -6.5 4.5 -14 q1 -7.5 -2 -14.5 q-20 -55 -43 -107 l232 0 q7 0 14 -2 q1 -1 2 -1 q3 3 7 3 q2 0 4 0.5 q2 0.5 5 1.5 l2 0 q2 1 7 0.5 q5 -0.5 8 -2.5 l16 -7 q5 -2 9 -7 q4 -5 6.5 -11 q2.5 -6 3.5 -12 q1 -6 0 -11 q-33 -126 -86 -230 q5 -5 8 -12 q24 -59 57 -115 q33 -56 74 -105 q41 -49 89 -89 q48 -40 101 -68 q18 -10 20.5 -21.5 q2.5 -11.5 2.5 -15.5 q0 -13 -8 -24 q-4 -5 -9.5 -8.5 q-5.5 -3.5 -12 -5 q-6.5 -1.5 -13.5 -0.5 q-7 1 -12 4 q-59 31 -111.5 75 q-52.5 44 -97.5 98.5 q-45 54.5 -82 117.5 q-26 45 -47 93 q-41 -69 -89 -128 q-70 -86 -153.5 -151 q-83.5 -65 -173.5 -111 q-5 -3 -12.5 -3 q-7.5 0 -14 1.5 q-6.5 1.5 -12 4.5 q-5.5 3 -9.5 8 q-10 11 -10 25 q0 4 2.5 15 q2.5 11 22.5 22 q86 44 165.5 105.5 q79.5 61.5 145 142 q65.5 80.5 114.5 181.5 q39 79 65 170 l-266 0 q-19 -38 -41 -73 q-70 -116 -157 -200 q-5 -5 -11.5 -7 q-6.5 -2 -14 -2.5 q-7.5 -0.5 -14 1 q-6.5 1.5 -11.5 5.5 l-1 1 q-7 6 -10.5 14 Z" /><glyph glyph-name="uni4E48" unicode="&#x4e48;" d="M219 11 q-3 7 -2 15 q1 8 4.5 15.5 q3.5 7.5 9.5 14.5 q6 7 13 12 q9 5 16 10.5 q7 5.5 16.5 13 q9.5 7.5 24 20 q14.5 12.5 36.5 33.5 q24 20 69.5 65 q45.5 45 101.5 106 q56 61 118 134.5 q62 73.5 118 150.5 q4 5 9.5 9 q5.5 4 12 5.5 q6.5 1.5 13 1.5 q6.5 0 11.5 -2 l8 -4 q7 -4 11.5 -10 q4.5 -6 6.5 -14 q2 -8 0.5 -16 q-1.5 -8 -5.5 -14 q-125 -162 -255 -299 q-104 -108 -204 -195 l524 43 q-2 3 -5 7 q-26 37 -54.5 75 q-28.5 38 -56.5 72 q-5 7 -6 15 q-1 8 0.5 15.5 q1.5 7.5 5.5 14 q4 6.5 11 9.5 l2 1 q10 5 23.5 1.5 q13.5 -3.5 20.5 -12.5 q30 -36 61 -76 q31 -40 59 -79.5 q28 -39.5 52 -77.5 q24 -38 42 -71 q3 -5 3 -12 q0 -7 -2 -13.5 q-2 -6.5 -5.5 -12 q-3.5 -5.5 -9.5 -8.5 l-4 -2 q-6 -4 -14 -4 q-8 0 -15.5 2.5 q-7.5 2.5 -13 7.5 q-5.5 5 -9.5 12 q-18 32 -40 68 q-2 3 -4 7 q-2 -2 -4 -3 q-7 -4 -16 -4 q-159 -14 -267.5 -23 q-108.5 -9 -178.5 -15.5 q-70 -6.5 -109 -10 q-39 -3.5 -60 -6.5 q-9 -1 -18 1 q-9 2 -16 6 l-4 2 q-2 1 -4 1 q-15 4 -21 18 ZM186.5 396.5 q-2.5 7.5 -1.5 15.5 q1 8 5 15.5 q4 7.5 11 13.5 q47 37 92.5 80.5 q45.5 43.5 88.5 90 q43 46.5 80 94.5 q37 48 66 94 q7 10 20.5 15.5 q13.5 5.5 25.5 1.5 l4 -2 q8 -2 13 -8 q5 -6 7 -13.5 q2 -7.5 1 -16 q-1 -8.5 -6 -14.5 q-34 -50 -74.5 -101.5 q-40.5 -51.5 -86 -101 q-45.5 -49.5 -93.5 -95 q-48 -45.5 -96 -84.5 q-4 -3 -11 -5 q-7 -2 -13.5 -1.5 q-6.5 0.5 -13 2.5 q-6.5 2 -10.5 6 q-6 6 -8.5 13.5 Z" /><glyph glyph-name="uni4E49" unicode="&#x4e49;" d="M532 783 q-3 7 -3 14.5 q0 7.5 2.5 14.5 q2.5 7 7 12.5 q4.5 5.5 10.5 8.5 q10 4 23.5 -2.5 q13.5 -6.5 19.5 -17.5 q21 -44 41 -90.5 q20 -46.5 34 -86.5 q2 -6 1.5 -12.5 q-0.5 -6.5 -2.5 -13 q-2 -6.5 -6.5 -11.5 q-4.5 -5 -10.5 -8 q-6 -2 -13.5 -1.5 q-7.5 0.5 -14.5 4 q-7 3.5 -12.5 9.5 q-5.5 6 -8.5 13 q-12 38 -30.5 82.5 q-18.5 44.5 -37.5 84.5 ZM157 -37 q0 7 5 18.5 q5 11.5 24 18.5 q140 53 249 127 q61 41 115 88 l-3 3 q-90 95 -161.5 209 q-71.5 114 -125.5 241 q-2 7 -2 14.5 q0 7.5 3 14 q3 6.5 8.5 12 q5.5 5.5 10.5 7.5 q6 2 13 0.5 q7 -1.5 13.5 -5 q6.5 -3.5 11.5 -8.5 q5 -5 7 -11 q48 -117 116 -222.5 q68 -105.5 154 -194.5 q4 -5 8 -9 q14 14 27 28 q85 93 146.5 202.5 q61.5 109.5 105.5 233.5 q2 6 7 11.5 q5 5.5 11.5 9.5 q6.5 4 14 5 q7.5 1 13.5 -1 l4 -1 q6 -2 11.5 -7 q5.5 -5 8 -11.5 q2.5 -6.5 3.5 -14 q1 -7.5 -2 -13.5 q-49 -133 -115.5 -249 q-66.5 -116 -156.5 -215 q-13 -13 -26 -27 q61 -54 129 -100 q103 -70 222 -114 q21 -8 24.5 -19.5 q3.5 -11.5 3.5 -16.5 q0 -12 -8 -23 q-6 -8 -18.5 -12.5 q-12.5 -4.5 -23.5 -0.5 q-128 46 -237 119 q-78 52 -147 115 q-59 -52 -127 -98 q-117 -78 -267 -135 q-11 -4 -24.5 0.5 q-13.5 4.5 -19.5 14.5 q-5 7 -5 16 Z" /><glyph glyph-name="uni4E4B" unicode="&#x4e4b;" d="M541 776 q-4 6 -5.5 14 q-1.5 8 0 15.5 q1.5 7.5 5.5 14 q4 6.5 11 9.5 l3 1 q4 3 10.5 3 q6.5 0 12.5 -1 q6 -1 11.5 -4.5 q5.5 -3.5 8.5 -8.5 q21 -27 40 -55.5 q19 -28.5 32 -52.5 q4 -5 5 -12 q1 -7 -0.5 -14 q-1.5 -7 -5.5 -12.5 q-4 -5.5 -10 -9.5 l-4 -1 q-6 -4 -13.5 -4.5 q-7.5 -0.5 -15 2 q-7.5 2.5 -13.5 7.5 q-6 5 -10 11 q-11 22 -28 48.5 q-17 26.5 -34 49.5 ZM165 -9.5 q-2 6.5 -2 13 q0 6.5 2.5 13 q2.5 6.5 6.5 10.5 q45 46 83.5 75 q38.5 29 77.5 29 q9 0 18 -3 q5 7 14 13 q73 44 148 102 q75 58 143.5 121.5 q68.5 63.5 125.5 129.5 q35 39 62 76 l-605 0 q-7 0 -14 3 q-7 3 -12.5 8 q-5.5 5 -8.5 11 q-3 6 -3 13 q0 7 3 13 q3 6 8.5 11.5 q5.5 5.5 12.5 8 q7 2.5 14 2.5 l633 0 q7 0 14 -3 q3 3 8 3 q2 0 4 0.5 q2 0.5 4 0.5 q4 2 10 0.5 q6 -1.5 10 -4.5 l12 -7 q5 -4 9 -10.5 q4 -6.5 6 -14 q2 -7.5 0.5 -15 q-1.5 -7.5 -5.5 -12.5 q-48 -67 -111.5 -137 q-63.5 -70 -135 -135 q-71.5 -65 -147.5 -123 q-71 -53 -139 -95 q13 -10 30 -20 q47 -31 110 -39.5 q63 -8.5 147 -8.5 q75 0 157 3.5 q82 3.5 150 8.5 q4 1 7 1 q16 0 25 -10.5 q9 -10.5 9 -22.5 q0 -5 -1 -11 q-2 -11 -14 -20.5 q-12 -9.5 -24 -9.5 q-30 -2 -69 -3.5 q-39 -1.5 -80.5 -3 q-41.5 -1.5 -83.5 -2 q-42 -0.5 -78 -0.5 q-92 0 -156 11 q-64 11 -115 43 q-31 19 -54 39 q-23 20 -40 20 q-19 0 -45 -23.5 q-26 -23.5 -55 -60.5 q-6 -8 -13.5 -11.5 q-7.5 -3.5 -15.5 -4 q-8 -0.5 -15.5 2 q-7.5 2.5 -13.5 9.5 l-3 4 q-3 5 -5 11.5 Z" /><glyph glyph-name="uni4E4C" unicode="&#x4e4c;" d="M293 348 l0 350 q0 8 3 14.5 q3 6.5 8.5 12 q5.5 5.5 12.5 8.5 q7 3 13 3 l162 0 q-2 10 1 20 q9 12 17.5 27.5 q8.5 15.5 14.5 29.5 q4 12 16 20 q12 8 25 6 q8 -1 14 -5.5 q6 -4.5 9.5 -11.5 q3.5 -7 4 -15 q0.5 -8 -3.5 -16 q-9 -16 -19 -33 q-6 -11 -13 -22 l328 0 q7 0 14 -3 q7 -3 12 -7.5 q5 -4.5 8.5 -10 q3.5 -5.5 3.5 -11.5 q0 -6 -4 -12 l0 -1 q-4 -47 -9 -81 q-4 -38 -10 -64.5 q-6 -26.5 -13 -43 q-7 -16.5 -16 -25.5 q-13 -12 -29 -17 q-16 -5 -38 -6 q-16 -1 -41.5 -1 q-25.5 0 -55.5 2 q-12 0 -23 7.5 q-11 7.5 -13 15.5 q-4 16 8 26 q12 10 31 10 q2 0 4 0 q10 0 18.5 -0.5 q8.5 -0.5 16.5 -1 q8 -0.5 15 -0.5 l13 0 q14 0 21.5 2 q7.5 2 13.5 8 q5 5 10.5 19 q5.5 14 10 38.5 q4.5 24.5 8.5 60.5 q2 14 4 31 l-477 0 q-3 0 -5 -2 q-2 -2 -2 -4 l0 -284 q0 -2 1.5 -3.5 q1.5 -1.5 3.5 -1.5 l615 0 q7 0 14 -3 q5 -2 9 -6 q1 0 2 -1 q5 -4 9 -9 q0 -1 1 -2 q3 -5 3 -12 q0 -3 -1 -6 q-5 -93 -11 -158 q-5 -67 -12 -111.5 q-7 -44.5 -16 -70.5 q-9 -26 -20 -39 q-15 -16 -32 -22 q-17 -6 -43 -9 q-18 -1 -48.5 -1 q-30.5 0 -66.5 2 q-12 0 -23 8 q-11 8 -14 17 q-1 5 -1 9 q0 12 9.5 22 q9.5 10 30.5 10 q2 0 3 0 q14 -1 25.5 -1.5 q11.5 -0.5 22 -1 q10.5 -0.5 19.5 -0.5 l17 0 q14 0 23.5 2 q9.5 2 17.5 9 q9 9 16.5 32.5 q7.5 23.5 13 66.5 q5.5 43 10.5 107 q4 45 7 102 l-617 0 q-6 0 -13 3 q-7 3 -12.5 8.5 q-5.5 5.5 -8.5 12.5 q-3 7 -3 14 ZM158 163 q0 6 3 11.5 q3 5.5 8.5 10 q5.5 4.5 12 7 q6.5 2.5 13.5 2.5 l625 0 q7 0 14 -2.5 q7 -2.5 12.5 -7 q5.5 -4.5 8.5 -10 q3 -5.5 3 -12 q0 -6.5 -3 -12 q-3 -5.5 -8.5 -10.5 q-5.5 -5 -12.5 -7.5 q-7 -2.5 -14 -2.5 l-625 0 q-7 0 -13.5 2.5 q-6.5 2.5 -12 7.5 q-5.5 5 -8.5 10.5 q-3 5.5 -3 12.5 Z" /><glyph glyph-name="uni4E4D" unicode="&#x4e4d;" d="M168 412.5 q-4 7.5 -4.5 16 q-0.5 8.5 2.5 17 q3 8.5 8 15.5 q68 68 126 158.5 q58 90.5 99 190.5 q3 6 7.5 11 q4.5 5 10.5 8.5 q6 3.5 13 5 q7 1.5 12 -0.5 l5 -1 q7 -2 13 -7 q6 -5 9 -11.5 q3 -6.5 3.5 -14.5 q0.5 -8 -2.5 -15 q-26 -60 -56 -117 l590 0 q7 0 14 -2.5 q7 -2.5 12 -8 q5 -5.5 8.5 -11.5 q3.5 -6 3.5 -13 q0 -6 -3.5 -12.5 q-3.5 -6.5 -8.5 -11.5 q-5 -5 -12 -8 q-7 -3 -14 -3 l-429 0 l0 -151 q4 1 7 1 l366 0 q7 0 13.5 -3 q6.5 -3 11.5 -7.5 q5 -4.5 8.5 -11 q3.5 -6.5 3.5 -13 q0 -6.5 -3.5 -12.5 q-3.5 -6 -8.5 -11 q-5 -5 -11.5 -8 q-6.5 -3 -13.5 -3 l-366 0 q-3 0 -7 1 l0 -158 q4 1 8 1 l380 0 q7 0 13.5 -2.5 q6.5 -2.5 12 -8 q5.5 -5.5 8.5 -11.5 q3 -6 3 -13 q0 -6 -3 -12.5 q-3 -6.5 -8.5 -11.5 q-5.5 -5 -12 -8 q-6.5 -3 -13.5 -3 l-380 0 q-4 0 -8 1 l0 -196 q0 -7 -2.5 -13.5 q-2.5 -6.5 -7.5 -12 q-5 -5.5 -11.5 -8.5 q-6.5 -3 -13.5 -3 l-3 0 q-7 0 -13 3 q-6 3 -11.5 8.5 q-5.5 5.5 -8.5 12 q-3 6.5 -3 13.5 l0 640 l-111 0 q-8 0 -15 3 q-7 -12 -14 -23 q-62 -98 -131 -172 q-4 -5 -10.5 -7.5 q-6.5 -2.5 -14 -3.5 q-7.5 -1 -14.5 0.5 q-7 1.5 -12 4.5 q-7 5 -11 12.5 Z" /><glyph glyph-name="uni4E4E" unicode="&#x4e4e;" d="M790.5 438 q-2.5 7 -2 15 q0.5 8 3.5 15 q11 17 21.5 37 q10.5 20 21 41.5 q10.5 21.5 20 43 q9.5 21.5 17.5 40.5 q2 7 7.5 13 q5.5 6 12 9.5 q6.5 3.5 14 4.5 q7.5 1 14.5 -1 l1 -1 q8 -2 13 -8 q5 -6 7.5 -13.5 q2.5 -7.5 2.5 -15.5 q0 -8 -4 -15 q-22 -43 -45.5 -88.5 q-23.5 -45.5 -45.5 -81.5 q-6 -10 -18.5 -15 q-12.5 -5 -22.5 -1 q-6 3 -10.5 8.5 q-4.5 5.5 -7 12.5 ZM286 589 q-4 8 -4 16 q0 8 2.5 15 q2.5 7 7.5 13 q5 6 12 8 q9 4 22 -2 q13 -6 18 -16 q22 -39 42 -82.5 q20 -43.5 32 -78.5 q2 -5 1.5 -11.5 q-0.5 -6.5 -3 -12.5 q-2.5 -6 -7 -11 q-4.5 -5 -10.5 -7 q-7 -3 -14.5 -2 q-7.5 1 -14.5 5 q-7 4 -12.5 10 q-5.5 6 -8.5 13 q-10 31 -27 69.5 q-17 38.5 -36 73.5 ZM155 330 l0 1 q0 7 3 13.5 q3 6.5 8.5 11.5 q5.5 5 12 7.5 q6.5 2.5 13.5 2.5 l379 0 l0 336 q-65 -5 -132 -9 q-86 -5 -167 -8 q-14 -1 -26 7.5 q-12 8.5 -15 18.5 q-4 14 8 26 q12 12 30 13 q81 3 167.5 9 q86.5 6 169 15 q82.5 9 157 19.5 q74.5 10.5 130.5 24.5 q11 2 22.5 -3 q11.5 -5 16.5 -13 l1 -3 q5 -7 5.5 -15 q0.5 -8 -3 -15.5 q-3.5 -7.5 -10 -12.5 q-6.5 -5 -15.5 -7 q-63 -14 -140 -25 q-61 -8 -125 -15 q2 -6 2 -11 l0 -332 l364 0 q7 0 13.5 -2.5 q6.5 -2.5 11.5 -7.5 q5 -5 8.5 -11.5 q3.5 -6.5 3.5 -13.5 l0 -1 q0 -7 -3.5 -13.5 q-3.5 -6.5 -8.5 -12 q-5 -5.5 -11.5 -8 q-6.5 -2.5 -13.5 -2.5 l-364 0 l0 -275 q0 -40 -12.5 -59 q-12.5 -19 -41.5 -28 q-24 -8 -67.5 -10 q-43.5 -2 -111.5 -2 q-11 -1 -22 6.5 q-11 7.5 -15 17.5 q-3 8 -3 14 q0 10 8 21.5 q8 11.5 28 11.5 q1 0 3 0 q38 -2 65 -2 q7 0 26 0.5 q19 0.5 36 1.5 q17 1 24 6.5 q7 5.5 7 22.5 l0 274 l-379 0 q-7 0 -13.5 2.5 q-6.5 2.5 -12 8 q-5.5 5.5 -8.5 12 q-3 6.5 -3 13.5 Z" /><glyph glyph-name="uni4E4F" unicode="&#x4e4f;" d="M515 621 q-3 6 -4 13.5 q-1 7.5 0.5 15 q1.5 7.5 6 13.5 q4.5 6 10.5 9 q6 3 12.5 3 q6.5 0 12.5 -2 q6 -2 12 -6 q6 -4 9 -8 q17 -21 32.5 -43.5 q15.5 -22.5 27.5 -40.5 q3 -5 3.5 -12 q0.5 -7 -1 -13.5 q-1.5 -6.5 -5.5 -12.5 q-4 -6 -9 -9 q-7 -4 -14.5 -4.5 q-7.5 -0.5 -15 2 q-7.5 2.5 -14.5 7.5 q-7 5 -10 11 q-11 18 -25 38.5 q-14 20.5 -28 38.5 ZM228 707 q-3 7 -0.5 14 q2.5 7 8 12.5 q5.5 5.5 14 9 q8.5 3.5 17.5 3.5 q85 5 175.5 11 q90.5 6 177 14.5 q86.5 8.5 164.5 19.5 q78 11 137 25 q9 1 19.5 -2.5 q10.5 -3.5 15.5 -10.5 l5 -5 q6 -8 7 -15.5 q1 -7.5 -1.5 -14.5 q-2.5 -7 -9 -12.5 q-6.5 -5.5 -16.5 -7.5 q-67 -14 -149 -25 q-82 -11 -170.5 -19 q-88.5 -8 -179 -14 q-90.5 -6 -175.5 -8 q-13 -1 -25 7 q-12 8 -14 18 ZM167 -21 q-7 9 -7 22.5 q0 13.5 7 21.5 q46 53 84.5 84.5 q38.5 31.5 73.5 31.5 q13 0 24 -5.5 q11 -5.5 23 -15.5 q7 -5 14 -12 q7 12 23 20 q70 32 139 73.5 q69 41.5 132 87 q63 45.5 115 93.5 q24 22 44 43 l-581 0 q-7 0 -14 2.5 q-7 2.5 -12 8 q-5 5.5 -8.5 12 q-3.5 6.5 -3.5 12.5 q0 7 3.5 13.5 q3.5 6.5 8.5 11 q5 4.5 12 7.5 q7 3 14 3 l614 0 q7 0 13 -3 l4 -2 q1 1 2 1 q3 4 8 4 q2 0 4 0.5 q2 0.5 4 0.5 q4 1 11 -0.5 q7 -1.5 11 -3.5 l8 -6 q7 -5 10.5 -12 q3.5 -7 4 -14.5 q0.5 -7.5 -1.5 -15 q-2 -7.5 -8 -13.5 q-45 -51 -104.5 -102 q-59.5 -51 -126 -98.5 q-66.5 -47.5 -137.5 -88.5 q-70 -41 -140 -72 q1 -1 2 -1 q48 -34 112 -44 q64 -10 153 -10 q78 0 159 3.5 q81 3.5 149 9.5 q3 0 6 0 q19 0 27.5 -10.5 q8.5 -10.5 8.5 -22.5 q0 -5 -1 -10 q-3 -11 -14 -20 q-11 -9 -24 -11 q-30 -2 -69 -3 q-39 -1 -81.5 -2.5 q-42.5 -1.5 -85 -2 q-42.5 -0.5 -78.5 -0.5 q-48 0 -88 2.5 q-40 2.5 -74 9 q-34 6.5 -62.5 18 q-28.5 11.5 -54.5 29.5 q-15 11 -29.5 22.5 q-14.5 11.5 -26.5 22 q-12 10.5 -22 16.5 q-10 6 -18 6 q-19 0 -43.5 -24.5 q-24.5 -24.5 -54.5 -65.5 q-9 -18 -18 -19 q-9 -1 -11 -1 q-14 0 -25 13 l-4 6 Z" /><glyph glyph-name="uni4E50" unicode="&#x4e50;" d="M814 227 q-2 8 -0.5 15.5 q1.5 7.5 6 13.5 q4.5 6 11.5 9 q10 4 22.5 1 q12.5 -3 18.5 -11 q23 -23 46 -49.5 q23 -26.5 45.5 -53 q22.5 -26.5 42 -51.5 q19.5 -25 34.5 -47 q4 -6 4.5 -13 q0.5 -7 -1 -13.5 q-1.5 -6.5 -5.5 -12.5 q-4 -6 -10 -10 l-2 0 q-5 -4 -13 -4 q-8 0 -15 2 q-7 2 -13 7 q-6 5 -9 11 q-14 21 -32.5 44.5 q-18.5 23.5 -38.5 48.5 q-20 25 -41.5 50 q-21.5 25 -42.5 48 q-5 7 -7 15 ZM217 391 q-2 6 -1.5 14.5 q0.5 8.5 2.5 16.5 q2 8 5 17 q3 9 5 17 l1 3 l0 1 q0 1 2 6.5 q2 5.5 5 18.5 q2 11 7 34.5 q5 23.5 10.5 54.5 q5.5 31 10 68 q4.5 37 6.5 74 q1 9 5 16.5 q4 7.5 10 12.5 q2 2 5 3 q1 2 3 3 q5 6 13 9.5 q8 3.5 18 3.5 q76 2 157 7 q81 5 158.5 12 q77.5 7 147 17 q69.5 10 121.5 23 q9 1 20.5 -3.5 q11.5 -4.5 15.5 -11.5 l1 -2 q6 -7 6.5 -15.5 q0.5 -8.5 -2.5 -16 q-3 -7.5 -9.5 -13 q-6.5 -5.5 -16.5 -6.5 q-59 -14 -131.5 -23.5 q-72.5 -9.5 -151 -16 q-78.5 -6.5 -159.5 -11.5 q-71 -3 -138 -5 q-7 -73 -21 -148 q-12 -62 -24 -113 l285 0 l0 167 q0 6 3 13 q3 7 8.5 12 q5.5 5 11.5 8.5 q6 3.5 13 3.5 l3 0 q6 0 12.5 -3.5 q6.5 -3.5 11.5 -8.5 q5 -5 7.5 -12 q2.5 -7 2.5 -14 l0 -166 l331 0 q7 0 14 -3 q7 -3 12 -8 q5 -5 8.5 -11.5 q3.5 -6.5 3.5 -13.5 l-1 0 q0 -7 -3 -13.5 q-3 -6.5 -8 -11.5 q-5 -5 -12 -8 q-7 -3 -15 -3 l-330 0 l0 -351 q0 -35 -9.5 -53 q-9.5 -18 -32.5 -26 q-21 -8 -54 -10.5 q-33 -2.5 -87 -2.5 q-10 -1 -21 7 q-11 8 -13 17 q-3 7 -3 14 q0 10 8.5 21 q8.5 11 29.5 11 q21 -1 38 -1 q8 0 21.5 0.5 q13.5 0.5 25.5 0.5 q14 1 19 5.5 q5 4.5 5 16.5 l0 351 l-237 0 q-19 0 -32 -0.5 q-13 -0.5 -22 -1.5 q-12 -1 -23.5 1 q-11.5 2 -19.5 7 q-3 1 -5 2 q-3 0 -6 1 q-7 0 -13 5 q-6 5 -8 11 ZM164 18 q-3 7 -3 15 q0 8 2.5 16 q2.5 8 8.5 15 q41 38 80 87.5 q39 49.5 70 99.5 q6 10 19.5 15.5 q13.5 5.5 24.5 1.5 q8 -3 13.5 -8.5 q5.5 -5.5 7.5 -12.5 q2 -7 1.5 -15 q-0.5 -8 -5.5 -15 q-34 -56 -76.5 -109.5 q-42.5 -53.5 -83.5 -96.5 q-5 -5 -11.5 -8.5 q-6.5 -3.5 -13.5 -4 q-7 -0.5 -14 1.5 q-7 2 -11 6 q-6 5 -9 12 Z" /><glyph glyph-name="uni4E58" unicode="&#x4e58;" d="M744 288 l0 210 q0 7 3 13.5 q3 6.5 8 12 q5 5.5 10.5 8.5 q5.5 3 12 3 q6.5 0 12.5 -3 q6 -3 10.5 -8.5 q4.5 -5.5 7 -12 q2.5 -6.5 2.5 -13.5 l0 -67 q31 12 61 25 q33 14 58 27 q10 5 23.5 2.5 q13.5 -2.5 20.5 -10.5 q5 -6 6 -13.5 q1 -7.5 -1 -14 q-2 -6.5 -8 -12.5 q-6 -6 -15 -9 q-30 -14 -64.5 -26.5 q-34.5 -12.5 -68.5 -24.5 q-6 -2 -12 -2 l0 -86 q0 -17 6 -21.5 q6 -4.5 29 -4.5 l102 0 q11 0 15.5 6.5 q4.5 6.5 6.5 31.5 q4 4 9 8 q5 4 10.5 7.5 q5.5 3.5 12.5 5 q7 1.5 14 -0.5 q5 -2 8.5 -6.5 q3.5 -4.5 6 -10 q2.5 -5.5 3 -12 q0.5 -6.5 -1.5 -12.5 q-3 -23 -8 -38.5 q-5 -15.5 -13 -24 q-8 -8.5 -21 -12.5 q-13 -4 -35 -4 l-117 0 q-28 0 -46 4 q-18 4 -28.5 14.5 q-10.5 10.5 -14.5 27.5 q-4 17 -4 43 ZM172 243 q-2 6 0 13 q2 7 6.5 12.5 q4.5 5.5 11.5 9 q7 3.5 15 4.5 q39 6 85 14 q46 8 95 18 l1 0 l0 90 l-156 0 q-15 0 -26.5 9.5 q-11.5 9.5 -11.5 20.5 q0 5 3 10.5 q3 5.5 8.5 9.5 q5.5 4 12.5 6.5 q7 2.5 14 2.5 l156 0 l0 33 q0 7 3 14 q3 7 8 12 q5 5 11 8.5 q6 3.5 12 3.5 q7 0 12.5 -3.5 q5.5 -3.5 10.5 -8.5 q5 -5 7.5 -12 q2.5 -7 2.5 -14 l0 -250 q0 -7 -2.5 -14 q-2.5 -7 -7.5 -12.5 q-5 -5.5 -10.5 -8.5 q-5.5 -3 -12.5 -3 q-6 0 -12 3 q-6 3 -11 8.5 q-5 5.5 -8 12.5 q-3 7 -3 14 l0 10 q-43 -9 -85 -17 q-47 -9 -89 -18 q-12 -2 -25 5 q-13 7 -15 17 ZM161 -4 q0 6 4.5 17.5 q4.5 11.5 24.5 19.5 q56 21 108.5 51 q52.5 30 100 67 q47.5 37 87 80 q39.5 43 68.5 88 q3 4 8 8 l0 236 l-359 0 q-7 0 -14 3 q-7 3 -12.5 7.5 q-5.5 4.5 -8.5 10.5 q-3 6 -3 12 q0 6 3 12 q3 6 8.5 11 q5.5 5 12.5 7.5 q7 2.5 14 2.5 l359 0 l0 87 q0 4 1 9 q-60 -5 -123 -8 q-83 -5 -160 -7 q-13 -1 -25 6.5 q-12 7.5 -14 17.5 q-4 14 7.5 25.5 q11.5 11.5 30.5 12.5 q79 3 162.5 8 q83.5 5 163.5 12.5 q80 7.5 152.5 16.5 q72.5 9 128.5 20 q10 1 21.5 -4 q11.5 -5 16.5 -14 q4 -7 3 -15 q-1 -8 -4.5 -15 q-3.5 -7 -10.5 -11.5 q-7 -4.5 -15 -5.5 q-62 -11 -137 -20 q-62 -7 -127 -13 q0 -1 1 -1 q2 -7 2 -14 l0 -87 l360 0 q8 0 15 -2.5 q7 -2.5 12 -7.5 q5 -5 8.5 -11 q3.5 -6 3.5 -12 q0 -6 -3.5 -12 q-3.5 -6 -8.5 -10.5 q-5 -4.5 -12 -7.5 q-7 -3 -15 -3 l-360 0 l0 -236 q6 -5 10 -10 q29 -45 69 -88 q40 -43 86.5 -80.5 q46.5 -37.5 99 -68 q52.5 -30.5 107.5 -51.5 q20 -8 25 -19.5 q5 -11.5 5 -17.5 q0 -10 -7 -19 q-6 -8 -19 -12 q-13 -4 -23 1 q-59 23 -115 57 q-56 34 -106 76 q-50 42 -94 90 q-20 23 -38 47 l0 -273 q0 -7 -2.5 -14 q-2.5 -7 -8 -12 q-5.5 -5 -11.5 -8.5 q-6 -3.5 -13 -3.5 l-4 0 q-6 0 -12.5 3.5 q-6.5 3.5 -11.5 8.5 q-5 5 -8 12 q-3 7 -3 14 l0 269 q-17 -21 -35 -42 q-43 -48 -94 -89.5 q-51 -41.5 -107.5 -75 q-56.5 -33.5 -115.5 -56.5 q-10 -4 -23 0 q-13 4 -19 12 q-7 9 -7 19 Z" /><glyph glyph-name="uni4E5D" unicode="&#x4e5d;" d="M160 -32 q0 4 2 14.5 q2 10.5 19 21.5 q101 59 157 143 q56 84 82 187 q21 83 28 176 l-231 0 q-6 0 -12.5 3 q-6.5 3 -12 8 q-5.5 5 -8.5 11.5 q-3 6.5 -3 12.5 l0 2 q0 7 3 13 q3 6 8.5 11 q5.5 5 12 8 q6.5 3 12.5 3 l235 0 q4 102 4 209 q0 7 3 14 q3 7 8 12 q5 5 11.5 8 q6.5 3 13.5 3 l5 0 q7 0 13 -3 q6 -3 11.5 -8.5 q5.5 -5.5 8 -12 q2.5 -6.5 2.5 -13.5 q-1 -88 -3 -174 q-1 -18 -1 -35 l267 0 q6 0 12 -3 q7 -3 12 -8 q5 -5 8 -11 q3 -6 3 -13 l0 -500 q0 -26 6 -33.5 q6 -7.5 30 -7.5 l105 0 q9 0 15 3 q6 3 10 12.5 q4 9.5 6 26.5 q2 17 3 43 q3 23 13.5 30.5 q10.5 7.5 19.5 7.5 q7 0 14 -3 q9 -3 16 -15 q7 -12 6 -23 q-4 -43 -9 -72.5 q-5 -29.5 -15.5 -47.5 q-10.5 -18 -28 -25 q-17.5 -7 -44.5 -7 l-121 0 q-28 0 -47.5 4.5 q-19.5 4.5 -31 17.5 q-11.5 13 -16.5 34.5 q-5 21.5 -5 55.5 l0 462 l-233 0 l-6 -60 q-10 -80 -29.5 -154.5 q-19.5 -74.5 -54.5 -139.5 q-35 -65 -87 -120 q-52 -55 -128 -98 q-6 -3 -13 -4 q-7 -1 -13.5 0 q-6.5 1 -12 3.5 q-5.5 2.5 -9.5 7.5 q-10 10 -10 23 Z" /><glyph glyph-name="uni4E5F" unicode="&#x4e5f;" d="M141 395 q-2 6 -1 13 q1 7 5 13 q4 6 9.5 11 q5.5 5 12.5 7 l148 45 l0 249 q0 7 3 14 q3 7 8 12.5 q5 5.5 11.5 8.5 q6.5 3 12.5 3 q7 0 13 -3 q6 -3 11.5 -8.5 q5.5 -5.5 8 -12 q2.5 -6.5 2.5 -14.5 l0 -227 l213 65 l0 229 q0 7 2.5 14 q2.5 7 8 12 q5.5 5 12 8.5 q6.5 3.5 12.5 3.5 q7 0 13 -3.5 q6 -3.5 11.5 -8.5 q5.5 -5 8 -12 q2.5 -7 2.5 -14 l0 -208 l220 68 q6 2 13 1 l10 10 q5 4 15 5 q10 1 17 -2 l6 -3 q11 -4 18.5 -11 q7.5 -7 6.5 -11 q0 -2 -0.5 -5 q-0.5 -3 -0.5 -6 q-2 -139 -9.5 -228.5 q-7.5 -89.5 -24.5 -133.5 q-14 -39 -34.5 -55 q-20.5 -16 -45.5 -20 q-17 -2 -40 -3 q-23 -1 -45 -1 q-12 0 -23.5 7.5 q-11.5 7.5 -13.5 16.5 q-4 17 5.5 29 q9.5 12 26.5 11 l55 0 q18 0 30.5 8 q12.5 8 23.5 38 q13 38 18 123 q4 67 5 165 l-233 -72 l0 -351 q0 -7 -2.5 -14 q-2.5 -7 -8 -12.5 q-5.5 -5.5 -11.5 -8.5 q-6 -3 -13 -3 q-6 0 -12.5 3 q-6.5 3 -12 8.5 q-5.5 5.5 -8 12.5 q-2.5 7 -2.5 14 l0 329 l-213 -65 l0 -341 q0 -26 5 -43.5 q5 -17.5 17.5 -27 q12.5 -9.5 36 -13.5 q23.5 -4 60.5 -4 l358 0 q30 0 49 5.5 q19 5.5 32 20 q13 14.5 20.5 38.5 q7.5 24 12.5 61 q6 19 17 27 q11 8 21 8 q6 0 12 -2 q10 -4 16.5 -16 q6.5 -12 5.5 -24 q-7 -52 -16 -87 q-9 -35 -28.5 -56.5 q-19.5 -21.5 -53 -31 q-33.5 -9.5 -88.5 -9.5 l-355 0 q-54 0 -91.5 7 q-37.5 7 -59.5 24.5 q-22 17.5 -31.5 48 q-9.5 30.5 -9.5 77.5 l0 316 l-129 -40 q-7 -2 -14 -1.5 q-7 0.5 -13.5 3.5 q-6.5 3 -11 8 q-4.5 5 -6.5 11 Z" /><glyph glyph-name="uni4E60" unicode="&#x4e60;" d="M356.5 550.5 q-3.5 7.5 -4.5 14.5 q-1 7 0.5 14.5 q1.5 7.5 7.5 12.5 q8 7 21.5 7.5 q13.5 0.5 24.5 -6.5 q27 -18 56.5 -38.5 q29.5 -20.5 58 -41.5 q28.5 -21 54 -41.5 q25.5 -20.5 46.5 -37.5 q5 -5 8 -11.5 q3 -6.5 3.5 -13.5 q0.5 -7 -1.5 -14 q-2 -7 -7 -12 q-5 -6 -12 -8.5 q-7 -2.5 -14.5 -2.5 q-7.5 0 -15 2.5 q-7.5 2.5 -13.5 6.5 q-19 18 -43 37.5 q-24 19.5 -50.5 40 q-26.5 20.5 -54.5 41 q-28 20.5 -54 38.5 q-7 5 -10.5 12.5 ZM219 731 q0 7 3.5 13 q3.5 6 8.5 11 q5 5 12 8 q7 3 13 3 l694 0 q7 0 13.5 -3 q6.5 -3 12 -8 q5.5 -5 8.5 -11 q3 -6 3 -13 l0 -9 q-3 -197 -6 -331 q-3 -134 -8.5 -219.5 q-5.5 -85.5 -14.5 -130.5 q-9 -45 -24 -64 q-16 -25 -35 -34.5 q-19 -9.5 -46 -11.5 q-19 -2 -44 -2 q-6 0 -26.5 0.5 q-20.5 0.5 -55.5 1.5 q-14 0 -25 8.5 q-11 8.5 -14 18.5 q-1 5 -1 10 q0 11 9.5 20.5 q9.5 9.5 30.5 9.5 q2 0 3 0 q16 -1 29.5 -1 q13.5 0 25.5 -0.5 q12 -0.5 22 -0.5 l20 0 q14 -1 23 2.5 q9 3.5 17 13.5 q13 13 21 59 q8 46 13 133.5 q5 87.5 9 220.5 q3 116 5 272 l-659 0 q-6 0 -13 3 q-7 3 -12 8 q-5 5 -8.5 11 q-3.5 6 -3.5 12 ZM218 96 q-3 7 -2 14.5 q1 7.5 4 14.5 q3 7 9 12 q6 5 13 7 q51 16 112 36 q61 20 128.5 42.5 q67.5 22.5 139 46 q71.5 23.5 142.5 48.5 q8 3 15.5 2 q7.5 -1 14.5 -4.5 q7 -3.5 12 -9 q5 -5.5 7 -12.5 q2 -11 -6 -23.5 q-8 -12.5 -19 -16.5 q-69 -24 -139 -48 q-70 -24 -137.5 -47.5 q-67.5 -23.5 -130 -45 q-62.5 -21.5 -116.5 -39.5 q-6 -2 -13.5 -1.5 q-7.5 0.5 -14.5 3.5 q-7 3 -12 8 q-5 5 -7 11 l0 2 Z" /><glyph glyph-name="uni4E66" unicode="&#x4e66;" d="M844.5 748 q-4.5 7 -5.5 14 q-1 7 0 14.5 q1 7.5 6 12.5 q6 7 19.5 8.5 q13.5 1.5 22.5 -4.5 q35 -23 71 -49.5 q36 -26.5 64 -48.5 q5 -4 8.5 -10.5 q3.5 -6.5 4.5 -13.5 q1 -7 -0.5 -13.5 q-1.5 -6.5 -5.5 -12.5 q-4 -4 -11 -7 q-7 -3 -14.5 -3.5 q-7.5 -0.5 -15 2 q-7.5 2.5 -12.5 6.5 q-25 21 -56.5 46.5 q-31.5 25.5 -64.5 47.5 q-6 4 -10.5 11 ZM593 393 l235 0 l0 195 q0 3 -2 5 q-2 2 -4 2 l-229 0 l0 -202 ZM164 347 q-3 6 -3 12.5 q0 6.5 3 12.5 q3 6 8 11 q5 5 12 7.5 q7 2.5 14 2.5 l323 0 l0 202 l-257 0 q-6 0 -13 2.5 q-7 2.5 -12.5 8 q-5.5 5.5 -8.5 11.5 q-3 6 -3 12.5 q0 6.5 3 12.5 q3 6 8.5 11 q5.5 5 12.5 7.5 q7 2.5 13 2.5 l257 0 l0 136 q0 7 2.5 13.5 q2.5 6.5 8 12 q5.5 5.5 12 8.5 q6.5 3 13.5 3 l1 0 q7 0 13.5 -3 q6.5 -3 11.5 -8.5 q5 -5.5 7.5 -12 q2.5 -6.5 2.5 -13.5 l0 -136 l269 0 q7 0 13.5 -3 q6.5 -3 12 -8.5 q5.5 -5.5 8.5 -12 q3 -6.5 3 -13.5 l0 -233 l108 0 q7 0 14 -2.5 q7 -2.5 12 -7.5 q5 -5 8.5 -11 q3.5 -6 3.5 -12.5 q0 -6.5 -4 -12.5 l0 -1 q-6 -67 -11 -115 q-5 -54 -12.5 -90.5 q-7.5 -36.5 -16 -58 q-8.5 -21.5 -19.5 -32.5 q-16 -16 -33.5 -21.5 q-17.5 -5.5 -43.5 -7.5 q-13 -1 -31 -1 q-9 0 -30 0.5 q-21 0.5 -58 1.5 q-12 1 -23.5 8.5 q-11.5 7.5 -14.5 17.5 q-1 5 -1 10 q0 11 9.5 20.5 q9.5 9.5 30.5 9.5 q2 0 4 0 q14 0 26.5 -1 q12.5 -1 23.5 -1 l39 0 q15 0 24.5 1.5 q9.5 1.5 17.5 7.5 q8 8 15 27.5 q7 19.5 13 53.5 q6 34 11 85 q3 29 6 64 l-374 0 l0 -366 q0 -7 -2.5 -13.5 q-2.5 -6.5 -7.5 -12 q-5 -5.5 -11.5 -8.5 q-6.5 -3 -13.5 -3 l-1 0 q-7 0 -13.5 3 q-6.5 3 -12 8.5 q-5.5 5.5 -8 12 q-2.5 6.5 -2.5 13.5 l0 366 l-323 0 q-7 0 -14 3 q-7 3 -12 8 q-5 5 -8 11 Z" /><glyph glyph-name="uni4E70" unicode="&#x4e70;" d="M653.5 127 q-2.5 7 -2.5 14 q0 7 5 14 q5 6 17 9 q12 3 22 -1 q82 -37 160.5 -80 q78.5 -43 137.5 -83 q7 -4 11.5 -10.5 q4.5 -6.5 6 -14 q1.5 -7.5 0 -15 q-1.5 -7.5 -6.5 -13.5 q-7 -8 -22 -10 q-15 -2 -26 5 q-54 39 -128 81 q-74 42 -152 81 q-8 4 -14 10 q-6 6 -8.5 13 ZM343 599.5 q-3 7.5 -2 14.5 q1 7 5 13 q6 6 18 8.5 q12 2.5 21 -1.5 q37 -16 75 -36.5 q38 -20.5 66 -39.5 q6 -4 10 -9.5 q4 -5.5 5.5 -12.5 q1.5 -7 0.5 -13.5 q-1 -6.5 -5 -11.5 q-3 -5 -9.5 -8 q-6.5 -3 -14 -3.5 q-7.5 -0.5 -14.5 1 q-7 1.5 -14 5.5 q-23 18 -55.5 36 q-32.5 18 -64.5 34 q-8 4 -13.5 10 q-5.5 6 -8.5 13.5 ZM233 454 q-3 7 -2 14 q1 7 6 12 q5 7 17 9.5 q12 2.5 21 -1.5 q37 -14 75 -33.5 q38 -19.5 65 -38.5 q6 -3 10 -8.5 q4 -5.5 5.5 -12.5 q1.5 -7 1 -13.5 q-0.5 -6.5 -4.5 -11.5 q-4 -5 -10.5 -8 q-6.5 -3 -13.5 -3.5 q-7 -0.5 -14.5 1 q-7.5 1.5 -13.5 4.5 q-24 17 -56 34.5 q-32 17.5 -65 31.5 q-8 4 -13 10.5 q-5 6.5 -8 13.5 ZM212 739 q0 6 3.5 12 q3.5 6 8.5 11 q5 5 12 8 q7 3 14 3 l686 0 q7 0 13 -3 q2 -1 3 -1 l2 2 q3 3 7 3 q2 0 4 0.5 q2 0.5 4 0.5 q3 2 8.5 1.5 q5.5 -0.5 8.5 -1.5 l9 -3 q6 -3 11 -9 q5 -6 7.5 -12.5 q2.5 -6.5 2.5 -14 q0 -7.5 -2 -14.5 q-22 -44 -43.5 -88.5 q-21.5 -44.5 -44.5 -78.5 q-6 -10 -19.5 -14 q-13.5 -4 -22.5 1 q-7 3 -11 9 q-4 6 -5.5 13.5 q-1.5 7.5 0 15.5 q1.5 8 5.5 15 q20 35 41 77 q8 16 15 33 l-679 0 q-7 0 -14 3 q-7 3 -12 7.5 q-5 4.5 -8.5 10.5 q-3.5 6 -3.5 13 ZM168 266 q0 6 3 12 q3 6 8 11 q5 5 12 7.5 q7 2.5 14 2.5 l384 0 q1 7 3 13 q14 61 19 134.5 q5 73.5 8 158.5 q0 7 3 13.5 q3 6.5 8.5 11.5 q5.5 5 11.5 8 q6 3 13 3 q7 0 14 -3 q7 -3 11.5 -9 q4.5 -6 7.5 -13 q3 -7 3 -13 q-5 -141 -20 -251 q-3 -27 -9 -53 l337 0 q7 0 14 -2.5 q7 -2.5 12 -7.5 q5 -5 8.5 -11 q3.5 -6 3.5 -12 q0 -7 -3.5 -12.5 q-3.5 -5.5 -8.5 -10.5 q-5 -5 -12 -8 q-7 -3 -14 -3 l-356 0 q-14 -38 -34 -73 q-48 -83 -138.5 -141 q-90.5 -58 -245.5 -92 q-13 -3 -26.5 2.5 q-13.5 5.5 -18.5 14.5 q-8 15 0.5 29 q8.5 14 28.5 19 q94 21 160 51 q66 30 111 69.5 q45 39.5 71 89.5 q8 15 15 31 l-361 0 q-7 0 -14 3 q-7 3 -12 8 q-5 5 -8 10.5 q-3 5.5 -3 12.5 Z" /><glyph glyph-name="uni4E71" unicode="&#x4e71;" d="M711 61 l0 729 q0 7 3 13.5 q3 6.5 8.5 12 q5.5 5.5 11.5 8.5 q6 3 13 3 q7 0 13 -3 q6 -3 11.5 -8.5 q5.5 -5.5 8 -12 q2.5 -6.5 2.5 -13.5 l0 -730 q0 -37 8 -47.5 q8 -10.5 36 -10.5 l122 0 q12 0 19.5 5.5 q7.5 5.5 13 20 q5.5 14.5 8 39.5 q2.5 25 4.5 63 q2 23 12 31 q10 8 19 8 q6 0 13 -3 q9 -4 15.5 -15.5 q6.5 -11.5 6.5 -22.5 q-4 -54 -9.5 -91 q-5.5 -37 -16.5 -59.5 q-11 -22.5 -30 -32.5 q-19 -10 -50 -10 l-134 0 q-31 0 -52.5 6 q-21.5 6 -33.5 20 q-12 14 -17 38.5 q-5 24.5 -5 61.5 ZM260 49 l291 0 l0 204 q0 2 -1.5 4 q-1.5 2 -3.5 2 l-280 0 q-2 0 -4 -2 q-2 -2 -2 -4 l0 -204 ZM143 515 q-3 6 -3 12 q0 6 3 12 q3 6 8.5 10.5 q5.5 4.5 12 7 q6.5 2.5 13.5 2.5 l194 0 l0 155 q-31 -5 -62 -9 q-50 -6 -98 -12 q-13 -1 -25 5 q-12 6 -14 14 q-5 13 5.5 25.5 q10.5 12.5 29.5 16.5 q48 5 98.5 12.5 q50.5 7.5 97.5 16.5 q47 9 89 19.5 q42 10.5 75 21.5 q8 3 18.5 0 q10.5 -3 15.5 -8 l2 -2 q8 -7 10.5 -15.5 q2.5 -8.5 0 -16.5 q-2.5 -8 -8 -13.5 q-5.5 -5.5 -16.5 -8.5 q-38 -11 -84 -21 q-32 -7 -64 -13 l0 -167 l186 0 q6 0 13 -2.5 q7 -2.5 12.5 -7 q5.5 -4.5 8.5 -10.5 q3 -6 3 -12 q0 -6 -3 -12 q-3 -6 -8.5 -11 q-5.5 -5 -12.5 -7.5 q-7 -2.5 -13 -2.5 l-186 0 l0 -170 l143 0 q7 0 14 -3.5 q7 -3.5 12 -8.5 q5 -5 8.5 -11.5 q3.5 -6.5 3.5 -13.5 l0 -304 q0 -7 -3 -13.5 q-3 -6.5 -8 -12 q-5 -5.5 -11 -8.5 q-6 -3 -13 -3 q-7 0 -13.5 3 q-6.5 3 -11 8.5 q-4.5 5.5 -8 12.5 q-3.5 7 -3.5 14 l-288 0 q-2 0 -3 1 l0 -7 q0 -7 -2.5 -14 q-2.5 -7 -7.5 -12.5 q-5 -5.5 -11 -8.5 q-6 -3 -12 -3 q-6 0 -12 3 q-6 3 -11 8.5 q-5 5.5 -8 12 q-3 6.5 -3 13.5 l0 310 q0 7 3 13.5 q3 6.5 8.5 11.5 q5.5 5 12.5 8.5 q7 3.5 14 3.5 l140 0 l0 170 l-194 0 q-7 0 -13.5 2.5 q-6.5 2.5 -12 7.5 q-5.5 5 -8.5 11 Z" /><glyph glyph-name="uni4E86" unicode="&#x4e86;" d="M200 713 q-3 6 -3 13 q0 7 3 13 q3 6 8.5 11 q5.5 5 12 8 q6.5 3 13.5 3 l650 0 q7 0 14 -3 q3 -1 5 -3 q1 1 2 1 q4 5 10 5 l5 0 q2 0 3 1 l1 0 q5 1 12 -0.5 q7 -1.5 11 -5.5 l11 -8 q7 -4 10 -11 q3 -7 4 -15 q1 -8 -1.5 -15 q-2.5 -7 -7.5 -13 q-33 -33 -71.5 -66 q-38.5 -33 -80.5 -64 q-42 -31 -85 -58.5 q-43 -27.5 -85 -49.5 l0 -441 q0 -37 -11.5 -55 q-11.5 -18 -40.5 -27 q-25 -7 -67.5 -9.5 q-42.5 -2.5 -108.5 -2.5 q-12 0 -23 8 q-11 8 -15 18 q-2 7 -2 13 q0 10 7.5 20.5 q7.5 10.5 27.5 10.5 q1 0 3 0 q31 -1 56 -1 q12 0 33 0.5 q21 0.5 38 1.5 q16 1 22 5.5 q6 4.5 6 18.5 l0 437 q0 7 3 13.5 q3 6.5 8 12 q5 5.5 12 8.5 q0 1 1 1 l0 1 q2 8 7.5 15 q5.5 7 13.5 12 q40 23 81 50.5 q41 27.5 78.5 56.5 q37.5 29 70.5 59 q4 4 9 8 l-616 0 q-7 0 -13.5 3 q-6.5 3 -12 8.5 q-5.5 5.5 -8.5 11.5 Z" /><glyph glyph-name="uni4E88" unicode="&#x4e88;" d="M157 420 q-3 6 -3 12.5 q0 6.5 3 12.5 q3 6 8.5 11 q5.5 5 12.5 8 q7 3 13 3 l485 0 l-20 10 q-35 18 -73.5 37 q-38.5 19 -78 37.5 q-39.5 18.5 -76.5 34.5 q-8 4 -14 10 q-6 6 -8.5 13.5 q-2.5 7.5 -2 14.5 q0.5 7 5.5 14 q5 6 17 9.5 q12 3.5 22 0.5 q37 -16 77.5 -34 q40.5 -18 79.5 -37 q4 -1 7 -2 l4 6 q5 7 12 12 q31 18 62 39 q31 21 60 44 q28 21 52 43 l-517 0 q-6 0 -13 2.5 q-7 2.5 -12.5 7.5 q-5.5 5 -8.5 11 q-3 6 -3 12 q0 7 3 13 q3 6 8.5 10.5 q5.5 4.5 12.5 7 q7 2.5 13 2.5 l558 0 q7 0 14 -2 l1 -1 q5 3 11 3 q2 0 4 0.5 q2 0.5 3 1.5 q6 0 12.5 -1.5 q6.5 -1.5 10.5 -4.5 l8 -6 q6 -5 9.5 -12 q3.5 -7 4 -14.5 q0.5 -7.5 -2.5 -15 q-3 -7.5 -9 -13.5 q-26 -25 -56.5 -50 q-30.5 -25 -63.5 -49 q-33 -24 -65 -45 q-25 -17 -49 -31 q3 -2 7 -4 q36 -17 66 -32 q8 -4 13 -10 q5 -6 7.5 -13 q2.5 -7 2.5 -15 q-1 -2 -1 -4 l185 0 q7 0 14 -3 q1 0 1 -1 q0 1 1 1 q3 3 7 3 q2 0 4 0.5 q2 0.5 4 0.5 q4 2 9.5 1.5 q5.5 -0.5 9.5 -2.5 l13 -6 q6 -2 11 -7.5 q5 -5.5 7.5 -13 q2.5 -7.5 2 -14.5 q-0.5 -7 -4.5 -14 q-34 -51 -70.5 -100.5 q-36.5 -49.5 -72.5 -86.5 q-3 -4 -8.5 -7 q-5.5 -3 -12 -4 q-6.5 -1 -12.5 -0.5 q-6 0.5 -11 2.5 l-1 1 q-7 4 -10.5 10.5 q-3.5 6.5 -4.5 14 q-1 7.5 0.5 15 q1.5 7.5 5.5 14.5 q33 37 67 84 q16 22 29 43 l-296 0 q2 -4 4 -7 q2 -7 2 -14 l0 -365 q0 -34 -10 -51 q-10 -17 -37 -25 q-21 -7 -58 -9 q-37 -2 -92 -2 q-12 -1 -23 6.5 q-11 7.5 -14 17.5 q-3 7 -3 13 q0 9 8 19.5 q8 10.5 27 10.5 q1 0 3 0 q25 -1 45 -1 q10 0 26 0.5 q16 0.5 31 1.5 q14 1 18.5 5 q4.5 4 4.5 15 l0 364 q0 7 4 14 q1 4 3 7 l-385 0 q-6 0 -13 3 q-7 3 -12.5 8 q-5.5 5 -8.5 11 Z" /><glyph glyph-name="uni4E89" unicode="&#x4e89;" d="M630 215 l225 0 l0 121 l-225 0 l0 -121 ZM629 514 q1 -4 1 -9 l0 -104 l225 0 l0 107 q0 2 -2 4 q-2 2 -4 2 l-220 0 ZM321 579 l312 0 q1 4 3 8 q4 8 10 15 q29 30 57 66 q10 13 18 25 l-244 0 q-12 0 -19 4 q-7 4 -11 10 q-22 -26 -47 -53 q-36 -39 -79 -75 ZM146.5 357 q-3.5 6 -3.5 12 q0 6 3.5 12 q3.5 6 8.5 10.5 q5 4.5 12 7 q7 2.5 14 2.5 l376 0 l0 104 q0 5 2 9 l-239 0 q-8 0 -15 3 q-7 3 -12.5 7.5 q-5.5 4.5 -8.5 10 q-3 5.5 -3 12.5 l0 1 q-11 -9 -22 -17 q-11 -8 -25.5 -7 q-14.5 1 -21.5 9 q-10 10 -10 23 q0 3 2 13.5 q2 10.5 19 22.5 q74 51 129 111.5 q55 60.5 89 115.5 q6 8 17.5 13.5 q11.5 5.5 21.5 3.5 l3 0 q10 -2 17 -7.5 q7 -5.5 10 -12.5 q3 -7 2.5 -15.5 q-0.5 -8.5 -6.5 -16.5 l-20 -28 l241 0 q7 0 13.5 -2.5 q6.5 -2.5 11.5 -6.5 l1 0 q0 3 3 6 q4 3 9 3 q2 0 4 0.5 q2 0.5 4 0.5 q3 1 9.5 -0.5 q6.5 -1.5 10.5 -4.5 l9 -6 q6 -4 9.5 -10.5 q3.5 -6.5 4.5 -14 q1 -7.5 -0.5 -14.5 q-1.5 -7 -5.5 -13 q-26 -37 -60 -75 q-19 -21 -38 -40 l176 0 q7 0 13.5 -3 q6.5 -3 12 -8.5 q5.5 -5.5 8.5 -12.5 q3 -7 3 -15 l0 -139 l98 0 q7 0 14 -2.5 q7 -2.5 12 -7 q5 -4.5 8.5 -10.5 q3.5 -6 3.5 -12 q0 -6 -3.5 -12 q-3.5 -6 -8.5 -11 q-5 -5 -12 -7.5 q-7 -2.5 -14 -2.5 l-98 0 l0 -148 q0 -7 -3 -14 q-3 -7 -8 -12.5 q-5 -5.5 -11 -8.5 q-6 -3 -13 -3 q-5 0 -10 2 q-6 -3 -13 -3 l-237 0 l0 -137 q0 -34 -10 -51.5 q-10 -17.5 -36 -26.5 q-23 -7 -59 -9 q-36 -2 -94 -2 q-11 0 -21.5 7.5 q-10.5 7.5 -14.5 15.5 q-3 7 -3 14 q0 10 8.5 20 q8.5 10 31.5 10 q38 -1 61.5 -1 q23.5 0 38.5 1 q15 1 20 6 q5 5 5 16 l0 137 l-278 0 q-7 0 -14 3 q-7 3 -12 8 q-5 5 -8.5 11 q-3.5 6 -3.5 12 q0 6 3.5 11.5 q3.5 5.5 8.5 10.5 q5 5 12 7.5 q7 2.5 14 2.5 l278 0 l0 121 l-376 0 q-7 0 -14 2.5 q-7 2.5 -12 7.5 q-5 5 -8.5 11 Z" /><glyph glyph-name="uni4E8B" unicode="&#x4e8b;" d="M633 514 l223 0 q2 0 4 2 q2 2 2 4 l0 61 q0 2 -2 4 q-2 2 -4 2 l-223 0 l0 -73 ZM633 265 l245 0 l0 66 q0 2 -1.5 4 q-1.5 2 -4.5 2 l-239 0 l0 -72 ZM633 130 l245 0 l0 77 l-245 0 l0 -77 ZM341 520 q0 -2 2 -4 q2 -2 5 -2 l212 0 l0 73 l-212 0 q-3 0 -5 -2 q-2 -2 -2 -4 l0 -61 ZM149 237 q0 10 12 19 q12 9 25 9 l374 0 l0 72 l-279 0 q-14 0 -25.5 8 q-11.5 8 -11.5 19 q0 9 11.5 17.5 q11.5 8.5 25.5 8.5 l279 0 l0 73 l-249 0 q-7 0 -14 3 q-7 3 -12.5 8.5 q-5.5 5.5 -8.5 12.5 q-3 7 -3 14 l0 99 q0 7 3 14 q3 7 8.5 12 q5.5 5 12.5 8.5 q7 3.5 14 3.5 l249 0 l0 61 l-354 0 q-15 0 -26.5 9 q-11.5 9 -11.5 21 q0 11 11.5 20 q11.5 9 26.5 9 l354 0 l0 44 q0 7 3.5 14 q3.5 7 8.5 12 q5 5 11 8.5 q6 3.5 13 3.5 l1 0 q7 0 13.5 -3.5 q6.5 -3.5 11.5 -8.5 q5 -5 8 -12 q3 -7 3 -14 l0 -44 l364 0 q15 0 26.5 -9 q11.5 -9 11.5 -20 q0 -12 -11.5 -21 q-11.5 -9 -26.5 -9 l-364 0 l0 -61 l264 0 q7 0 13.5 -3.5 q6.5 -3.5 12 -8.5 q5.5 -5 8.5 -12 q3 -7 3 -14 l0 -99 q0 -7 -3 -14 q-3 -7 -8.5 -12.5 q-5.5 -5.5 -12 -8.5 q-6.5 -3 -13.5 -3 l-264 0 l0 -73 l279 0 q7 0 14 -3 q7 -3 12.5 -8.5 q5.5 -5.5 8.5 -12.5 q3 -7 3 -14 l0 -87 l68 0 q13 0 24.5 -9 q11.5 -9 11.5 -19 q0 -12 -11.5 -21 q-11.5 -9 -24.5 -9 l-68 0 l0 -140 q0 -7 -3 -14 q-3 -7 -8 -12.5 q-5 -5.5 -11 -8.5 q-6 -3 -13 -3 l-1 0 q-7 0 -13.5 3 q-6.5 3 -11.5 8.5 q-5 5.5 -8 12.5 q-3 7 -3 14 l0 7 l-245 0 l0 -71 q0 -35 -10.5 -50.5 q-10.5 -15.5 -33.5 -23.5 q-20 -7 -53 -8.5 q-33 -1.5 -85 -2.5 q-11 0 -21.5 6 q-10.5 6 -13.5 15 q-6 15 4.5 26.5 q10.5 11.5 30.5 11.5 q2 0 3 0 l50 0 q19 0 32 1 q14 1 19 6 q5 5 5 19 l0 71 l-287 0 q-16 0 -27.5 9 q-11.5 9 -11.5 19 q0 11 11.5 19.5 q11.5 8.5 27.5 8.5 l287 0 l0 77 l-374 0 q-13 0 -25 9 q-12 9 -12 21 Z" /><glyph glyph-name="uni4E8C" unicode="&#x4e8c;" d="M242 655 l0 5 q0 7 3 13.5 q3 6.5 8 11.5 q5 5 12 8 q7 3 14 3 l644 0 q6 0 13 -3 q7 -3 12 -8 q5 -5 8.5 -11.5 q3.5 -6.5 3.5 -13.5 l0 -5 q0 -7 -3.5 -13 q-3.5 -6 -8.5 -11.5 q-5 -5.5 -12 -8.5 q-7 -3 -13 -3 l-644 0 q-7 0 -14 3 q-7 3 -12 8.5 q-5 5.5 -8 11.5 q-3 6 -3 13 ZM157 57 l0 9 q0 7 3 13 q3 6 8.5 11.5 q5.5 5.5 12 8.5 q6.5 3 13.5 3 l814 0 q7 0 13.5 -3 q6.5 -3 11.5 -8.5 q5 -5.5 8.5 -11.5 q3.5 -6 3.5 -13 l0 -9 q0 -6 -3.5 -12.5 q-3.5 -6.5 -8.5 -11.5 q-5 -5 -11.5 -8 q-6.5 -3 -13.5 -3 l-814 0 q-7 0 -13.5 3 q-6.5 3 -12 8 q-5.5 5 -8.5 11.5 q-3 6.5 -3 12.5 Z" /><glyph glyph-name="uni4E8E" unicode="&#x4e8e;" d="M158 390.5 q-3 6.5 -3 13.5 q0 7 3 13 q3 6 8.5 11 q5.5 5 12 8 q6.5 3 13.5 3 l380 0 l0 257 l-311 0 q-6 0 -12.5 3.5 q-6.5 3.5 -12 8.5 q-5.5 5 -8.5 11 q-3 6 -3 13 q0 7 3 13 q3 6 8.5 11.5 q5.5 5.5 12 8 q6.5 2.5 12.5 2.5 l678 0 q7 0 13.5 -2.5 q6.5 -2.5 12 -8 q5.5 -5.5 8.5 -11.5 q3 -6 3 -13 q0 -7 -3 -13 q-3 -6 -8.5 -11 q-5.5 -5 -12 -8.5 q-6.5 -3.5 -13.5 -3.5 l-292 0 l0 -257 l362 0 q7 0 13.5 -3 q6.5 -3 12 -8 q5.5 -5 8.5 -11 q3 -6 3 -13 q0 -7 -3 -13.5 q-3 -6.5 -8.5 -11.5 q-5.5 -5 -12 -8 q-6.5 -3 -13.5 -3 l-362 0 l0 -341 q0 -40 -12 -59.5 q-12 -19.5 -40 -28.5 q-25 -8 -67 -10 q-42 -2 -109 -3 q-11 0 -22 8 q-11 8 -15 18 q-3 8 -3 15 q0 10 8 21.5 q8 11.5 30 11.5 q36 -2 63 -2 q7 0 26 0.5 q19 0.5 36 1.5 q16 0 23 5.5 q7 5.5 7 21.5 l0 341 l-380 0 q-7 0 -13.5 3 q-6.5 3 -12 8 q-5.5 5 -8.5 11.5 Z" /><glyph glyph-name="uni4E91" unicode="&#x4e91;" d="M265 721 l0 2 q0 7 3 13 q3 6 8.5 11 q5.5 5 12.5 8 q7 3 14 3 l601 0 q7 0 13.5 -3 q6.5 -3 12 -8 q5.5 -5 8.5 -11 q3 -6 3 -13 l0 -2 q0 -7 -3 -13 q-3 -6 -8.5 -11.5 q-5.5 -5.5 -12 -8.5 q-6.5 -3 -13.5 -3 l-601 0 q-7 0 -14 3 q-7 3 -12.5 8.5 q-5.5 5.5 -8.5 11.5 q-3 6 -3 13 ZM156 438 l0 3 q0 7 3.5 13 q3.5 6 8.5 11 q5 5 11.5 8 q6.5 3 13.5 3 l815 0 q7 0 13.5 -3 q6.5 -3 12 -8 q5.5 -5 8.5 -11 q3 -6 3 -13 l0 -3 q0 -6 -3 -12.5 q-3 -6.5 -8.5 -12 q-5.5 -5.5 -12 -8 q-6.5 -2.5 -13.5 -2.5 l-443 0 q0 -7 -4 -13 q-58 -108 -126 -207 q-48 -72 -96 -131 l511 40 q0 1 -1 2 q-25 38 -51.5 76 q-26.5 38 -51.5 72 q-4 7 -5.5 14.5 q-1.5 7.5 0.5 15.5 q2 8 6 14.5 q4 6.5 11 9.5 l3 2 q10 5 24 1.5 q14 -3.5 20 -13.5 q27 -36 54.5 -75 q27.5 -39 54 -77.5 q26.5 -38.5 50 -75.5 q23.5 -37 41.5 -68 q3 -6 4 -13.5 q1 -7.5 -1 -14 q-2 -6.5 -5.5 -12.5 q-3.5 -6 -9.5 -9 l-6 -4 q-6 -3 -13 -3.5 q-7 -0.5 -14.5 2 q-7.5 2.5 -14 7 q-6.5 4.5 -10.5 11.5 q-17 31 -39 67 q-3 4 -5 8 q-1 0 -2 -1 q-7 -4 -16 -4 q-150 -14 -252 -23 q-102 -9 -168.5 -15 q-66.5 -6 -103.5 -10 q-37 -4 -59 -7 q-9 -2 -17.5 -0.5 q-8.5 1.5 -15.5 6.5 q-5 3 -8 7 q-7 1 -12 6 q-6 5 -9 13 q-3 7 -1.5 15 q1.5 8 4.5 16 q3 8 8.5 15.5 q5.5 7.5 11.5 13.5 q5 4 7 6.5 q2 2.5 6 7 q4 4.5 10 13 q6 8.5 17 24.5 q12 13 33.5 44.5 q21.5 31.5 48 74 q26.5 42.5 54.5 92.5 q23 39 43 80 l-277 0 q-7 0 -13.5 2.5 q-6.5 2.5 -11.5 8 q-5 5.5 -8.5 12 q-3.5 6.5 -3.5 12.5 Z" /><glyph glyph-name="uni4E92" unicode="&#x4e92;" d="M393 259 l361 0 q5 0 10 -1 q3 27 7 53 q9 67 16 125 q2 24 5 45 q-4 -1 -8 -1 l-346 0 l-8 -38 q-12 -62 -24 -120 q-7 -33 -13 -63 ZM156 -20 q-3 6 -3 13 q0 7 3 13 q3 6 8.5 11 q5.5 5 12 8 q6.5 3 13.5 3 l546 0 q0 2 -1 4 q-2 8 -1 16 q10 60 19 129 q1 7 2 15 l-366 0 q-7 0 -14 3 q-4 1 -7 3 q-9 -6 -18 -6 l-6 0 q-9 0 -16.5 4 q-7.5 4 -12 10.5 q-4.5 6.5 -6 14.5 q-1.5 8 0.5 16 q11 48 23.5 106 q12.5 58 24.5 119 q12 61 23 122.5 q11 61.5 20 115.5 q1 6 4 11 l-181 0 q-7 0 -14 3 q-7 3 -12.5 8 q-5.5 5 -8.5 11 q-3 6 -3 13 q0 7 3 13 q3 6 8.5 11 q5.5 5 12.5 7.5 q7 2.5 14 2.5 l759 0 q7 0 13.5 -2.5 q6.5 -2.5 12 -7.5 q5.5 -5 8.5 -11 q3 -6 3 -13 q0 -7 -3 -13 q-3 -6 -8.5 -11 q-5.5 -5 -12 -8 q-6.5 -3 -13.5 -3 l-511 0 q2 -3 3 -7 q2 -7 1 -16 q-11 -57 -22 -120 q-2 -11 -4 -21 l334 0 q8 0 15 -3 l0 1 q2 2 4 2 q1 0 2.5 0.5 q1.5 0.5 3.5 1.5 l4 1 q2 0 5 0.5 q3 0.5 5 -0.5 l12 -1 q7 -1 13 -5 q6 -4 10.5 -10 q4.5 -6 7 -12.5 q2.5 -6.5 1.5 -13.5 q-5 -49 -12 -107.5 q-7 -58.5 -15 -121.5 q-8 -63 -16.5 -126 q-8.5 -63 -17.5 -119 l-2 -6 l210 0 q7 0 13.5 -3 q6.5 -3 11.5 -8 q5 -5 8.5 -11 q3.5 -6 3.5 -13 q0 -7 -3.5 -13 q-3.5 -6 -8.5 -11 q-5 -5 -11.5 -8 q-6.5 -3 -13.5 -3 l-824 0 q-7 0 -13.5 3 q-6.5 3 -12 8 q-5.5 5 -8.5 11 Z" /><glyph glyph-name="uni4E94" unicode="&#x4e94;" d="M481 47 l285 0 q5 49 11 102 q6 54 10.5 106.5 q4.5 52.5 8.5 100.5 q1 13 2 25 q-3 -1 -6 -1 l-251 0 q-4 -20 -7 -41 q-15 -85 -29 -163 q-12 -71 -24 -129 ZM156 11 q0 7 3.5 13.5 q3.5 6.5 8.5 11.5 q5 5 12 8 q7 3 13 3 l210 0 q0 2 1 4 q14 64 28.5 142.5 q14.5 78.5 28.5 162.5 l4 24 l-152 0 q-7 0 -14 3 q-7 3 -12.5 8 q-5.5 5 -8.5 11.5 q-3 6.5 -3 13 q0 6.5 3 12.5 q3 6 8.5 11 q5.5 5 12.5 8 q7 3 14 3 l163 0 q6 38 12 75 q12 77 21 146 l-252 0 q-6 0 -13 3 q-7 3 -12 8 q-5 5 -8.5 11.5 q-3.5 6.5 -3.5 13.5 q0 6 3.5 12.5 q3.5 6.5 8.5 11.5 q5 5 12 7.5 q7 2.5 13 2.5 l681 0 q7 0 13 -2.5 q6 -2.5 11.5 -7.5 q5.5 -5 8.5 -11.5 q3 -6.5 3 -12.5 q0 -7 -3 -13.5 q-3 -6.5 -8.5 -11.5 q-5.5 -5 -11.5 -8 q-6 -3 -13 -3 l-352 0 q-11 -76 -24 -161 l-10 -60 l240 0 q6 0 12 -2 q2 2 4 2 l2 1 l4 0 l5 2 q2 0 4.5 0.5 q2.5 0.5 4.5 -0.5 l14 -1 q7 -1 13 -4.5 q6 -3.5 11 -9 q5 -5.5 7.5 -12 q2.5 -6.5 2.5 -13.5 q-3 -40 -7 -87.5 q-4 -47.5 -9 -97 q-5 -49.5 -10 -98.5 q-4 -43 -9 -83 l168 0 q7 0 13.5 -3 q6.5 -3 12 -8 q5.5 -5 8.5 -11.5 q3 -6.5 3 -13.5 q0 -6 -3 -12.5 q-3 -6.5 -8.5 -11.5 q-5.5 -5 -12 -8 q-6.5 -3 -13.5 -3 l-816 0 q-6 0 -13 3 q-7 3 -12 8 q-5 5 -8.5 11.5 q-3.5 6.5 -3.5 12.5 Z" /><glyph glyph-name="uni4E9A" unicode="&#x4e9a;" d="M802 239.5 q-2 7.5 -2 15 q0 7.5 3 14.5 q15 27 32.5 59.5 q17.5 32.5 33.5 65 q16 32.5 31.5 66 q15.5 33.5 27.5 63.5 q3 7 8 13 q5 6 11.5 10 q6.5 4 14 5 q7.5 1 14.5 -2 l1 0 q5 -2 10 -7.5 q5 -5.5 8 -11.5 q3 -6 3.5 -13.5 q0.5 -7.5 -2.5 -13.5 q-15 -33 -31 -68 q-16 -35 -33.5 -69 q-17.5 -34 -34.5 -66.5 q-17 -32.5 -34 -61.5 q-2 -5 -7 -9.5 q-5 -4.5 -11.5 -7 q-6.5 -2.5 -13 -3 q-6.5 -0.5 -11.5 1.5 q-7 2 -11.5 7 q-4.5 5 -6.5 12.5 ZM510 50 l165 0 l0 658 l-165 0 l0 -658 ZM199 504 q-2 6 -2 14 q0 8 2.5 14.5 q2.5 6.5 6.5 12 q4 5.5 11 7.5 q5 1 11.5 0.5 q6.5 -0.5 12.5 -3.5 q6 -3 11.5 -8 q5.5 -5 7.5 -10 q17 -33 33.5 -68.5 q16.5 -35.5 32 -70.5 q15.5 -35 28.5 -68 q13 -33 23 -60 q3 -6 2.5 -13 q-0.5 -7 -3.5 -13 q-3 -6 -7.5 -11 q-4.5 -5 -9.5 -7 l-2 -1 q-7 -3 -14.5 -2 q-7.5 1 -14 4.5 q-6.5 3.5 -12 9.5 q-5.5 6 -7.5 14 q-9 27 -21.5 59 q-12.5 32 -27 66 q-14.5 34 -30 68 q-15.5 34 -31.5 66 ZM145 15 q0 7 3.5 13 q3.5 6 8.5 11 q5 5 12 8 q7 3 13 3 l252 0 l0 658 l-224 0 q-6 0 -13 3 q-7 3 -12.5 8 q-5.5 5 -8.5 11.5 q-3 6.5 -3 12.5 q0 7 3 13.5 q3 6.5 8.5 11.5 q5.5 5 12.5 8 q7 3 13 3 l784 0 q7 0 13.5 -3 q6.5 -3 12 -8 q5.5 -5 8.5 -11.5 q3 -6.5 3 -13.5 q0 -6 -3 -12.5 q-3 -6.5 -8.5 -11.5 q-5.5 -5 -12 -8 q-6.5 -3 -13.5 -3 l-243 0 l0 -658 l266 0 q7 0 13.5 -3 q6.5 -3 11.5 -8 q5 -5 8.5 -11 q3.5 -6 3.5 -12.5 q0 -6.5 -3.5 -13 q-3.5 -6.5 -8.5 -11 q-5 -4.5 -11.5 -8 q-6.5 -3.5 -13.5 -3.5 l-835 0 q-6 0 -13 3.5 q-7 3.5 -12 8 q-5 4.5 -8.5 11 q-3.5 6.5 -3.5 12.5 Z" /><glyph glyph-name="uni4E9B" unicode="&#x4e9b;" d="M651 444 l0 358 q0 7 2.5 13.5 q2.5 6.5 8 12 q5.5 5.5 11.5 8.5 q6 3 13 3 l1 0 q7 0 13 -3 q6 -3 11 -8.5 q5 -5.5 8 -12 q3 -6.5 3 -13.5 l0 -164 q24 9 49 18 q29 12 56.5 24 q27.5 12 52.5 24 q25 12 44 24 q10 4 23 3 q13 -1 21 -8 l1 -2 q7 -7 9.5 -15 q2.5 -8 1 -15.5 q-1.5 -7.5 -6.5 -14 q-5 -6.5 -14 -10.5 q-50 -25 -110.5 -48.5 q-60.5 -23.5 -121.5 -43.5 q-2 -1 -5 -1 l0 -129 q0 -27 9.5 -34.5 q9.5 -7.5 44.5 -7.5 l161 0 q11 0 18.5 2.5 q7.5 2.5 12 11 q4.5 8.5 7.5 23 q3 14.5 4 37.5 q7 7 13 15 q6 8 12 14 q6 6 12 9 q6 3 15 -1 q9 -4 15.5 -16 q6.5 -12 4.5 -23 q-4 -41 -10 -68 q-6 -27 -18 -43 q-12 -16 -31 -22.5 q-19 -6.5 -50 -6.5 l-172 0 q-36 0 -59 5 q-23 5 -36.5 17.5 q-13.5 12.5 -18.5 34 q-5 21.5 -5 53.5 ZM269 201 q0 7 3 13 q3 6 8.5 11 q5.5 5 12.5 8 q7 3 14 3 l599 0 q7 0 14 -3 q7 -3 12 -8 q5 -5 8.5 -11 q3.5 -6 3.5 -12.5 q0 -6.5 -3.5 -12.5 q-3.5 -6 -8.5 -11 q-5 -5 -12 -8 q-7 -3 -14 -3 l-599 0 q-7 0 -14 3 q-7 3 -12.5 8 q-5.5 5 -8.5 11 q-3 6 -3 12 ZM160 -31.5 q-3 6.5 -3 13.5 q0 7 3 13 q3 6 8.5 11 q5.5 5 12.5 8 q7 3 14 3 l811 0 q8 0 14.5 -3 q6.5 -3 12 -8 q5.5 -5 8.5 -11 q3 -6 3 -13 q0 -7 -3 -13.5 q-3 -6.5 -8.5 -12 q-5.5 -5.5 -12 -8 q-6.5 -2.5 -14.5 -2.5 l-811 0 q-7 0 -14 2.5 q-7 2.5 -12.5 8 q-5.5 5.5 -8.5 12 ZM147 338 q-1 7 1.5 14 q2.5 7 7.5 12.5 q5 5.5 11.5 9.5 q6.5 4 13.5 4 l32 4 q-3 7 -3 15 l0 295 q0 7 2.5 13.5 q2.5 6.5 7.5 12 q5 5.5 11 8.5 q6 3 12 3 q7 0 12.5 -3 q5.5 -3 10.5 -8.5 q5 -5.5 7.5 -12 q2.5 -6.5 2.5 -13.5 l0 -303 q38 5 81 10 l14 2 q-3 6 -3 14 l0 387 q0 7 3 13.5 q3 6.5 8 12 q5 5.5 11.5 8.5 q6.5 3 12.5 3 q7 0 13.5 -3 q6.5 -3 11.5 -8.5 q5 -5.5 7.5 -12 q2.5 -6.5 2.5 -13.5 l0 -136 l120 0 q7 0 14 -3 q7 -3 12.5 -7.5 q5.5 -4.5 8.5 -10 q3 -5.5 3 -12 q0 -6.5 -3 -12 q-3 -5.5 -8.5 -10.5 q-5.5 -5 -12.5 -7.5 q-7 -2.5 -14 -2.5 l-120 0 l0 -192 q61 8 124 15 q7 1 14.5 -1.5 q7.5 -2.5 13.5 -7 q6 -4.5 10 -10 q4 -5.5 4 -12.5 q0 -12 -10.5 -22.5 q-10.5 -10.5 -22.5 -11.5 q-103 -14 -203 -27.5 q-100 -13.5 -180 -23.5 q-6 0 -13 2 q-7 2 -13 6 q-6 4 -10 10 q-4 6 -5 12 Z" /><glyph glyph-name="uni4EA4" unicode="&#x4ea4;" d="M748 540.5 q-4 7.5 -4.5 15.5 q-0.5 8 2.5 15.5 q3 7.5 10 11.5 q7 6 19.5 6 q12.5 0 19.5 -5 q29 -19 58 -41 q29 -22 57 -45 q28 -23 52.5 -45.5 q24.5 -22.5 44.5 -43.5 q5 -5 7.5 -12 q2.5 -7 2.5 -14.5 q0 -7.5 -3 -13.5 q-3 -6 -8 -11 l-3 -1 q-11 -9 -26.5 -7 q-15.5 2 -25.5 12 q-17 18 -39.5 39.5 q-22.5 21.5 -47.5 43 q-25 21.5 -51 42.5 q-26 21 -53 40 q-8 6 -12 13.5 ZM541 786 q-4 7 -4.5 15.5 q-0.5 8.5 2 16 q2.5 7.5 7.5 13.5 q5 6 13 8 l2 1 q9 3 22 -1.5 q13 -4.5 19 -14.5 q12 -17 23.5 -36.5 q11.5 -19.5 19.5 -36.5 q4 -6 4 -12.5 q0 -6.5 -2.5 -13 q-2.5 -6.5 -7 -11.5 q-4.5 -5 -10.5 -8 l-3 -1 q-7 -2 -14.5 -1.5 q-7.5 0.5 -14.5 3.5 q-7 3 -12.5 8.5 q-5.5 5.5 -9.5 12.5 q-6 13 -15 28.5 q-9 15.5 -19 29.5 ZM197 382 q0 3 2 14 q2 11 19 22 q50 33 99 74.5 q49 41.5 86 85.5 q6 7 18.5 10.5 q12.5 3.5 21.5 -0.5 l3 -1 q8 -3 13 -9.5 q5 -6.5 6.5 -14 q1.5 -7.5 -0.5 -15.5 q-2 -8 -8 -15 q-44 -49 -98 -95.5 q-54 -46.5 -106 -83.5 q-10 -6 -23.5 -5 q-13.5 1 -20.5 9 q-12 10 -12 24 ZM177 -57 q-5 7 -5.5 16 q-0.5 9 2.5 16 q3 7 10.5 12.5 q7.5 5.5 16.5 8.5 q98 23 181 58.5 q83 35.5 151 83.5 l18 14 q-27 27 -51 57 q-56 70 -96 156 q-3 6 -3.5 14 q-0.5 8 2 15 q2.5 7 7.5 12 q5 5 12 7 q5 2 11.5 0.5 q6.5 -1.5 12.5 -4.5 q6 -3 11 -8 q5 -5 8 -11 q52 -111 138 -194 q27 26 50 55 q52 64 86 145 q6 12 20 19.5 q14 7.5 25 3.5 l3 -1 q7 -2 12.5 -7.5 q5.5 -5.5 8 -12 q2.5 -6.5 3 -14.5 q0.5 -8 -3.5 -15 q-40 -91 -98 -161 q-25 -30 -53 -57 q6 -5 13 -9 q133 -97 329 -138 q22 -5 27.5 -16.5 q5.5 -11.5 5.5 -18.5 q0 -10 -6 -19 q-5 -9 -17 -14.5 q-12 -5.5 -23 -2.5 q-106 22 -195 60 q-89 38 -162 92 q-12 10 -25 19 l-26 -20 q-74 -53 -163.5 -91.5 q-89.5 -38.5 -192.5 -66.5 q-11 -3 -24.5 2 q-13.5 5 -19.5 15 ZM167 665 q0 7 3.5 13 q3.5 6 8.5 11 q5 5 12 8 q7 3 14 3 l789 0 q6 0 13 -3 q7 -3 12 -8 q5 -5 8.5 -11 q3.5 -6 3.5 -13 q0 -6 -3.5 -12.5 q-3.5 -6.5 -8.5 -11.5 q-5 -5 -12 -8 q-7 -3 -13 -3 l-789 0 q-7 0 -14 3 q-7 3 -12 8 q-5 5 -8.5 11.5 q-3.5 6.5 -3.5 12.5 Z" /><glyph glyph-name="uni4EA6" unicode="&#x4ea6;" d="M848 424 q-4 8 -5 16 q-1 8 1.5 15 q2.5 7 7 13 q4.5 6 11.5 8 q5 3 10.5 2.5 q5.5 -0.5 12 -3 q6.5 -2.5 11 -6 q4.5 -3.5 7.5 -8.5 q20 -32 39.5 -67.5 q19.5 -35.5 36.5 -70.5 q17 -35 31.5 -68.5 q14.5 -33.5 23.5 -62.5 q4 -10 -2 -23 q-6 -13 -16 -18 l-1 -1 q-8 -3 -15.5 -2.5 q-7.5 0.5 -15 4.5 q-7.5 4 -13 10.5 q-5.5 6.5 -8.5 13.5 q-9 27 -22 58 q-13 31 -28 63 q-15 32 -31.5 65 q-16.5 33 -34.5 62 ZM542 784 q-4 7 -4.5 15 q-0.5 8 2.5 15.5 q3 7.5 8 13.5 q5 6 12 8 l3 1 q9 3 22 -1.5 q13 -4.5 18 -14.5 q16 -22 31 -46 q15 -24 24 -44 q4 -7 4 -14.5 q0 -7.5 -2.5 -14 q-2.5 -6.5 -7 -12 q-4.5 -5.5 -11.5 -8.5 l-3 0 q-6 -2 -13.5 -1.5 q-7.5 0.5 -14.5 3.5 q-7 3 -12.5 8.5 q-5.5 5.5 -8.5 11.5 q-8 17 -20.5 38.5 q-12.5 21.5 -26.5 41.5 ZM184.5 189 q-3.5 7 -5 15 q-1.5 8 0 16.5 q1.5 8.5 6.5 15.5 q30 45 55.5 100.5 q25.5 55.5 43.5 115.5 q2 7 6.5 12.5 q4.5 5.5 10.5 9.5 q6 4 12.5 6 q6.5 2 13.5 0 l1 -1 q7 -1 12.5 -5.5 q5.5 -4.5 9 -10.5 q3.5 -6 4.5 -13.5 q1 -7.5 -1 -15.5 q-21 -68 -49.5 -131.5 q-28.5 -63.5 -62.5 -112.5 q-3 -6 -9 -10 q-6 -4 -13 -5 q-7 -1 -13.5 -0.5 q-6.5 0.5 -12.5 3.5 q-6 4 -9.5 11 ZM161 630 q0 7 3 13 q3 6 8.5 11 q5.5 5 12.5 8 q7 3 14 3 l803 0 q7 0 14 -3 q7 -3 12 -8 q5 -5 8.5 -11 q3.5 -6 3.5 -12.5 q0 -6.5 -3.5 -13 q-3.5 -6.5 -8.5 -12 q-5 -5.5 -12 -8 q-7 -2.5 -14 -2.5 l-229 0 q3 -7 3 -14 l0 -566 q0 -35 -9.5 -53 q-9.5 -18 -33.5 -27 q-22 -8 -56.5 -10 q-34.5 -2 -86.5 -2 q-12 -1 -23 7.5 q-11 8.5 -14 17.5 q-2 6 -2 12 q0 11 9 22.5 q9 11.5 30 11.5 q33 -1 54.5 -1 q21.5 0 35.5 1 q13 0 17.5 4.5 q4.5 4.5 4.5 17.5 l0 566 q0 6 3 13 l-175 0 q1 -5 1 -10 l0 -108 q0 -63 -6 -132.5 q-6 -69.5 -29.5 -139.5 q-23.5 -70 -68 -138 q-44.5 -68 -121.5 -129 q-5 -4 -12.5 -6.5 q-7.5 -2.5 -14.5 -2 q-7 0.5 -13 3 q-6 2.5 -11 6.5 q-10 10 -10 24 q0 3 1.5 13 q1.5 10 14.5 22 q69 56 108 115.5 q39 59.5 59.5 121 q20.5 61.5 26 123 q5.5 61.5 5.5 119.5 l0 109 q0 4 1 9 l-262 0 q-7 0 -14 2.5 q-7 2.5 -12.5 8 q-5.5 5.5 -8.5 12 q-3 6.5 -3 12.5 Z" /><glyph glyph-name="uni4EA7" unicode="&#x4ea7;" d="M389 576 q-4 7 -5 15.5 q-1 8.5 0.5 16 q1.5 7.5 6.5 13 q5 5.5 12 8.5 q9 4 21.5 0.5 q12.5 -3.5 17.5 -12.5 q16 -21 31 -45 q15 -24 26 -43 q4 -6 4 -13 q0 -7 -2 -13.5 q-2 -6.5 -6 -12 q-4 -5.5 -10 -7.5 q-6 -3 -13.5 -3 q-7.5 0 -15 3 q-7.5 3 -13 8 q-5.5 5 -9.5 11 q-8 17 -20 36.5 q-12 19.5 -25 37.5 ZM211 684 q0 6 3 12 q3 6 8.5 11 q5.5 5 12.5 7.5 q7 2.5 13 2.5 l345 0 q-4 5 -6 10 q-8 13 -17.5 28.5 q-9.5 15.5 -20.5 29.5 q-4 6 -4 14 q0 8 3 15 q3 7 9 12 q6 5 14 7 l6 1 q8 2 19 -1.5 q11 -3.5 16 -10.5 q13 -16 25 -34 q12 -18 20 -34 q4 -6 3.5 -13 q-0.5 -7 -2.5 -14 q-2 -5 -6 -10 l312 0 q7 0 14 -2.5 q7 -2.5 12 -7.5 q5 -5 8.5 -11 q3.5 -6 3.5 -12.5 q0 -6.5 -3.5 -12.5 q-3.5 -6 -8.5 -11 q-5 -5 -12 -8 q-7 -3 -14 -3 l-716 0 q-6 0 -13 3 q-7 3 -12.5 8 q-5.5 5 -8.5 11 q-3 6 -3 13 ZM154 -32 q-1 8 0 16.5 q1 8.5 5 15.5 q22 38 35 79.5 q13 41.5 20 83 q7 41.5 9 83 q2 41.5 2 81.5 l0 98 q0 7 3.5 14 q3.5 7 8.5 12.5 q5 5.5 11 8.5 q6 3 13 3 l3 0 q7 0 13 -3 l6 -4 q4 3 8 4 q7 3 13 3 l419 0 q-1 1 -1 3 q-2 6 -1.5 14.5 q0.5 8.5 4.5 15.5 q13 22 27 50.5 q14 28.5 25 52.5 q3 7 8 12 q5 5 11.5 8.5 q6.5 3.5 14 4 q7.5 0.5 13.5 -1.5 l1 0 q8 -3 13.5 -8.5 q5.5 -5.5 8 -13 q2.5 -7.5 1 -15.5 q-1.5 -8 -6.5 -16 q-15 -28 -32 -58 q-14 -27 -28 -48 l209 0 q7 0 14 -3 q7 -3 12 -8 q5 -5 8.5 -11 q3.5 -6 3.5 -13 q0 -7 -3.5 -13 q-3.5 -6 -8.5 -11 q-5 -5 -12 -8 q-7 -3 -14 -3 l-690 0 l0 -68 q0 -40 -3.5 -87 q-3.5 -47 -12 -95.5 q-8.5 -48.5 -24 -97.5 q-15.5 -49 -40.5 -92 q-4 -8 -11 -12.5 q-7 -4.5 -14.5 -6 q-7.5 -1.5 -15 0.5 q-7.5 2 -13.5 7 q-5 3 -8 10.5 q-3 7.5 -4 15.5 Z" /><glyph glyph-name="uni4EAB" unicode="&#x4eab;" d="M362 483 q0 -3 2 -5 q2 -2 4 -2 l466 0 q2 0 4 2 q2 2 2 5 l0 80 q0 2 -2 4 q-2 2 -4 2 l-466 0 q-2 0 -4 -2 q-2 -2 -2 -4 l0 -80 ZM291 459 l0 127 q0 7 3 13.5 q3 6.5 8.5 12 q5.5 5.5 12.5 8.5 q7 3 15 3 l546 0 q8 0 15 -3 q7 -3 12.5 -8.5 q5.5 -5.5 8.5 -12 q3 -6.5 3 -13.5 l0 -127 q0 -7 -3 -13.5 q-3 -6.5 -8.5 -12 q-5.5 -5.5 -12.5 -8.5 q-7 -3 -15 -3 l-546 0 q-8 0 -15 3 q-7 3 -12.5 8.5 q-5.5 5.5 -8.5 12 q-3 6.5 -3 13.5 ZM164 720 q0 6 3 11.5 q3 5.5 8.5 10 q5.5 4.5 12.5 7 q7 2.5 14 2.5 l369 0 q-3 8 -8 16 q-7 15 -15 28 q-5 14 3 28 q8 14 23 17 l5 1 q9 3 21 -3.5 q12 -6.5 16 -15.5 q10 -16 18.5 -32 q8.5 -16 14.5 -30 q2 -4 2 -9 l346 0 q7 0 14 -2.5 q7 -2.5 12 -7 q5 -4.5 8.5 -10 q3.5 -5.5 3.5 -11.5 q0 -12 -12 -21.5 q-12 -9.5 -26 -9.5 l-795 0 q-15 0 -26.5 9.5 q-11.5 9.5 -11.5 21.5 ZM158 134.5 q-3 5.5 -3 11.5 q0 6 3 11.5 q3 5.5 8 10.5 q5 5 11.5 7.5 q6.5 2.5 13.5 2.5 l370 0 l0 22 q0 8 3 15 q3 7 8 12 q5 5 12 8 q3 2 7 3 q9 10 27 16 q34 8 68 18.5 q34 10.5 65 21.5 q10 4 19 7 l-484 0 q-15 0 -26.5 9.5 q-11.5 9.5 -11.5 20.5 q0 10 11.5 19.5 q11.5 9.5 26.5 9.5 l558 0 q13 0 23 -7 q1 2 4 4 q5 3 11 3 q1 0 3.5 0.5 q2.5 0.5 4.5 0.5 q5 1 11.5 -1 q6.5 -2 11.5 -5 q6 -7 9 -14.5 q3 -7.5 2 -15.5 q-1 -8 -6 -14.5 q-5 -6.5 -13 -10.5 q-31 -16 -65.5 -30 q-34.5 -14 -71 -26 q-36.5 -12 -73.5 -23 q-30 -9 -59 -16 l0 -27 l375 0 q6 0 13 -2.5 q7 -2.5 12 -7.5 q5 -5 8 -10.5 q3 -5.5 3 -11.5 q0 -6 -3 -11.5 q-3 -5.5 -8 -10 q-5 -4.5 -12 -7 q-7 -2.5 -13 -2.5 l-375 0 l0 -120 q0 -31 -10 -45.5 q-10 -14.5 -36 -21.5 q-23 -7 -59.5 -8 q-36.5 -1 -93.5 -1 q-11 0 -21 6.5 q-10 6.5 -14 13.5 q-6 16 5 27 q11 11 31 11 q2 0 3 0 q25 -1 43 -1 q9 0 24.5 0.5 q15.5 0.5 29.5 0.5 q14 1 18.5 5 q4.5 4 4.5 15 l0 118 l-370 0 q-7 0 -13.5 2.5 q-6.5 2.5 -11.5 7 q-5 4.5 -8 10 Z" /><glyph glyph-name="uni4EAC" unicode="&#x4eac;" d="M807.5 150 q-2.5 8 -1.5 15.5 q1 7.5 4.5 14 q3.5 6.5 10.5 10.5 q9 5 22.5 3 q13.5 -2 21.5 -10 q19 -19 39.5 -40.5 q20.5 -21.5 39.5 -42.5 q19 -21 36.5 -41.5 q17.5 -20.5 31.5 -37.5 q4 -5 5.5 -12 q1.5 -7 0.5 -14.5 q-1 -7.5 -4 -13.5 q-3 -6 -8 -9 l-3 -1 q-6 -4 -13 -5 q-7 -1 -15 0.5 q-8 1.5 -15 5.5 q-7 4 -11 11 q-12 16 -28 35 q-16 19 -33 39 q-17 20 -35.5 40.5 q-18.5 20.5 -37.5 38.5 q-5 6 -7.5 14 ZM360 339 q0 -3 2 -5 q2 -2 4 -2 l474 0 q2 0 4 2 q2 2 2 5 l0 151 q0 3 -2 5 q-2 2 -4 2 l-474 0 q-2 0 -4 -2 q-2 -2 -2 -5 l0 -151 ZM289 305 l0 218 q0 7 3 14 q3 7 8.5 12 q5.5 5 12.5 8 q7 3 14 3 l556 0 q7 0 14 -3 q7 -3 12.5 -8 q5.5 -5 8.5 -12 q3 -7 3 -14 l0 -218 q0 -7 -3 -13.5 q-3 -6.5 -8.5 -12 q-5.5 -5.5 -12.5 -8.5 q-7 -3 -14 -3 l-245 0 q3 -6 3 -13 l0 -250 q0 -33 -9.5 -49.5 q-9.5 -16.5 -34.5 -25.5 q-21 -7 -58 -8.5 q-37 -1.5 -93 -1.5 q-11 0 -22 7.5 q-11 7.5 -13 15.5 q-2 6 -2 12 q0 10 8.5 20.5 q8.5 10.5 27.5 10.5 q1 0 3 0 l59 0 q22 0 36 1 q14 1 18.5 4.5 q4.5 3.5 4.5 14.5 l0 249 q0 7 3 13 l-242 0 q-7 0 -14 3 q-7 3 -12.5 8.5 q-5.5 5.5 -8.5 12 q-3 6.5 -3 13.5 ZM176 -15 q-2 7 -1.5 14.5 q0.5 7.5 4 15.5 q3.5 8 10.5 15 q37 32 72.5 71 q35.5 39 58.5 77 q7 10 20.5 15 q13.5 5 23.5 1 l1 0 q8 -3 13 -9 q5 -6 7 -13.5 q2 -7.5 0.5 -15.5 q-1.5 -8 -6.5 -15 q-30 -43 -68 -86 q-38 -43 -79 -77 q-5 -5 -11.5 -7.5 q-6.5 -2.5 -13.5 -3.5 q-7 -1 -12.5 1 q-5.5 2 -10.5 5 q-6 5 -8 12 ZM165 680 q0 6 3 12.5 q3 6.5 8.5 11 q5.5 4.5 12.5 7.5 q7 3 13 3 l377 0 q-8 16 -19 35 q-11 19 -24 38 q-3 7 -3.5 15 q-0.5 8 2 15 q2.5 7 8 12.5 q5.5 5.5 12.5 7.5 l4 2 q10 3 22.5 -2 q12.5 -5 17.5 -15 q14 -20 27.5 -42 q13.5 -22 23.5 -41 q3 -6 3 -14 q0 -6 -1 -11 l348 0 q6 0 13 -3 q7 -3 12 -7.5 q5 -4.5 8.5 -11 q3.5 -6.5 3.5 -13 q0 -6.5 -3.5 -13 q-3.5 -6.5 -8.5 -11.5 q-5 -5 -12 -8 q-7 -3 -13 -3 l-798 0 q-6 0 -13 3 q-7 3 -12.5 8 q-5.5 5 -8.5 11.5 q-3 6.5 -3 13.5 Z" /><glyph glyph-name="uni4EAE" unicode="&#x4eae;" d="M373 490 q0 -2 2 -3.5 q2 -1.5 4 -1.5 l446 0 q2 0 3.5 1.5 q1.5 1.5 1.5 3.5 l0 77 q0 2 -1.5 4 q-1.5 2 -3.5 2 l-446 0 q-2 0 -4 -2 q-2 -2 -2 -4 l0 -77 ZM302 469 l0 118 q0 7 3 14 q3 7 8.5 12.5 q5.5 5.5 12.5 8.5 q7 3 14 3 l527 0 q7 0 14 -3 q7 -3 12 -8.5 q5 -5.5 8.5 -12.5 q3.5 -7 3.5 -14 l0 -118 q0 -6 -3.5 -13 q-3.5 -7 -8.5 -12.5 q-5 -5.5 -12 -8.5 q-7 -3 -14 -3 l-527 0 q-7 0 -14 3 q-7 3 -12.5 8.5 q-5.5 5.5 -8.5 12.5 q-3 7 -3 13 ZM188 -57 q-9 15 0 29.5 q9 14.5 31 20.5 q51 12 84.5 29 q33.5 17 54.5 42 q21 25 31 59.5 q10 34.5 14 80.5 q2 14 13 25 q11 11 24 11 l3 0 q6 0 11 -3 q6 3 13 3 l261 0 q7 0 13 -3 q6 3 12 3 l4 0 q7 0 13 -3 q6 -3 11.5 -8.5 q5.5 -5.5 8 -12.5 q2.5 -7 2.5 -15 l0 -173 q0 -18 7 -23.5 q7 -5.5 31 -5.5 l105 0 q7 0 11.5 2 q4.5 2 7 8 q2.5 6 4 17.5 q1.5 11.5 2.5 29.5 q7 4 13 10.5 q6 6.5 12 12.5 q6 6 12.5 9.5 q6.5 3.5 14.5 1.5 q9 -4 15.5 -16 q6.5 -12 4.5 -24 q-3 -34 -8.5 -55.5 q-5.5 -21.5 -15 -34.5 q-9.5 -13 -25 -18 q-15.5 -5 -40.5 -5 l-123 0 q-31 0 -51 4 q-20 4 -31.5 14.5 q-11.5 10.5 -16 28.5 q-4.5 18 -4.5 45 l0 150 l-243 0 q-6 -46 -17 -82 q-13 -45 -41 -77 q-28 -32 -73 -54.5 q-45 -22.5 -113 -37.5 q-12 -4 -24.5 1.5 q-12.5 5.5 -17.5 13.5 ZM179 240 l0 91 q0 7 3.5 13.5 q3.5 6.5 8.5 11.5 q5 5 12 8.5 q7 3.5 14 3.5 l764 0 q8 0 14.5 -3.5 q6.5 -3.5 12 -8.5 q5.5 -5 8.5 -11.5 q3 -6.5 3 -13.5 l0 -90 q0 -7 -3 -13.5 q-3 -6.5 -8 -12 q-5 -5.5 -11.5 -8.5 q-6.5 -3 -13.5 -3 q-6 0 -12.5 3 q-6.5 3 -11.5 8.5 q-5 5.5 -8 12 q-3 6.5 -3 13.5 l0 62 q0 3 -2 5 q-2 2 -4 2 l-688 0 q-2 0 -4 -2 q-2 -2 -2 -5 l0 -63 q0 -7 -3 -13.5 q-3 -6.5 -8 -12 q-5 -5.5 -11 -8.5 q-6 -3 -12.5 -3 q-6.5 0 -12.5 3 q-6 3 -10.5 8.5 q-4.5 5.5 -8 12 q-3.5 6.5 -3.5 13.5 ZM161 713 q0 12 11.5 21.5 q11.5 9.5 26.5 9.5 l385 0 l-2 4 q-6 10 -13.5 23.5 q-7.5 13.5 -15.5 25.5 q-6 13 2.5 26 q8.5 13 23.5 16 l5 1 q9 3 20 -2 q11 -5 14 -12 q10 -13 18.5 -27 q8.5 -14 15.5 -26 q3 -6 2 -12.5 q-1 -6.5 -4 -12.5 q-1 -2 -3 -4 l352 0 q14 0 26 -9.5 q12 -9.5 12 -21.5 q0 -6 -3.5 -11.5 q-3.5 -5.5 -8.5 -9.5 q-5 -4 -12 -7 q-7 -3 -14 -3 l-800 0 q-7 0 -14 3 q-7 3 -12.5 7 q-5.5 4 -8.5 9.5 q-3 5.5 -3 11.5 Z" /><glyph glyph-name="uni4EB2" unicode="&#x4eb2;" d="M767.5 152.5 q-2.5 7.5 -2 15.5 q0.5 8 4 14.5 q3.5 6.5 10.5 11.5 q8 5 21 3 q13 -2 21 -9 q21 -18 41.5 -38.5 q20.5 -20.5 40 -40.5 q19.5 -20 36.5 -39.5 q17 -19.5 31 -37.5 q5 -5 6 -12 q1 -7 0 -14 q-1 -7 -4.5 -13 q-3.5 -6 -8.5 -10 l-2 -1 q-6 -4 -13.5 -4.5 q-7.5 -0.5 -14.5 1 q-7 1.5 -14 5.5 q-7 4 -11 10 q-12 15 -27.5 33.5 q-15.5 18.5 -33 37.5 q-17.5 19 -36 37.5 q-18.5 18.5 -37.5 35.5 q-5 7 -7.5 14.5 ZM372 585 q-4 8 -4 16 q0 8 3 15.5 q3 7.5 8 12.5 q5 5 13 7 q9 3 21 -2.5 q12 -5.5 17 -14.5 q15 -23 28 -49 q13 -26 21 -47 q3 -6 2.5 -13 q-0.5 -7 -3.5 -13 q-3 -6 -8 -10.5 q-5 -4.5 -11 -6.5 q-7 -2 -14.5 -1 q-7.5 1 -14 4.5 q-6.5 3.5 -11.5 9.5 q-5 6 -8 13 q-6 18 -16.5 39 q-10.5 21 -22.5 40 ZM236 673.5 q-3 5.5 -3 11.5 q0 6 3 11.5 q3 5.5 8 9.5 q5 4 12 6.5 q7 2.5 14 2.5 l306 0 q0 2 -1 3 q-7 15 -17 32 q-10 17 -21 34 q-2 7 -1.5 15 q0.5 8 4 14.5 q3.5 6.5 9 11.5 q5.5 5 12.5 7 l4 1 q10 3 22.5 -2.5 q12.5 -5.5 16.5 -15.5 q12 -19 24 -40.5 q12 -21.5 20 -39.5 q3 -6 2 -13 q-1 -3 -2 -7 l296 0 q7 0 14 -2.5 q7 -2.5 12 -6.5 q5 -4 8.5 -9.5 q3.5 -5.5 3.5 -11.5 q0 -6 -3.5 -11.5 q-3.5 -5.5 -8.5 -10.5 q-5 -5 -12 -7 q-7 -2 -14 -2 l-674 0 q-7 0 -14 2 q-7 2 -12 7 q-5 5 -8 10.5 ZM216 3 q0 19 16 34 q36 29 67.5 65.5 q31.5 36.5 55.5 75.5 q6 10 19 15.5 q13 5.5 23 1.5 l2 0 q7 -2 12.5 -7.5 q5.5 -5.5 8 -13 q2.5 -7.5 1.5 -15 q-1 -7.5 -6 -15.5 q-29 -46 -65.5 -88 q-36.5 -42 -75.5 -75 q-9 -9 -22.5 -9.5 q-13.5 -0.5 -22.5 5.5 q-13 10 -13 26 ZM175 434.5 q-3 5.5 -3 12 q0 6.5 3 12 q3 5.5 8.5 10 q5.5 4.5 12 7 q6.5 2.5 13.5 2.5 l486 0 l0 1 q0 8 4 16 q17 25 34.5 56 q17.5 31 30.5 57 q3 6 7.5 11.5 q4.5 5.5 10.5 9.5 q6 4 12.5 5 q6.5 1 12.5 0 q7 -2 13 -7 q6 -5 9 -12 q3 -7 3.5 -15 q0.5 -8 -3.5 -16 q-16 -31 -35 -63 q-13 -23 -26 -43 l224 0 q7 0 14 -2.5 q7 -2.5 12 -7 q5 -4.5 8.5 -10 q3.5 -5.5 3.5 -12 q0 -6.5 -3.5 -12 q-3.5 -5.5 -8.5 -10 q-5 -4.5 -12 -7.5 q-7 -3 -14 -3 l-361 0 q3 -4 5 -8 q3 -7 3 -14 l0 -85 l338 0 q7 0 14 -3 q7 -3 12 -7 q5 -4 8.5 -10 q3.5 -6 3.5 -12 q0 -6 -3.5 -11.5 q-3.5 -5.5 -8.5 -10.5 q-5 -5 -12 -7.5 q-7 -2.5 -14 -2.5 l-338 0 l0 -238 q0 -30 -8 -46 q-8 -16 -31 -25 q-18 -7 -47.5 -8.5 q-29.5 -1.5 -73.5 -2.5 q-12 0 -22.5 7.5 q-10.5 7.5 -13.5 15.5 q-2 6 -2 11 q0 10 9 20.5 q9 10.5 30 10.5 q17 -1 29 -1 q6 0 16 0.5 q10 0.5 22 0.5 q11 1 15 4 q4 3 4 14 l0 237 l-337 0 q-6 0 -13 2.5 q-7 2.5 -12.5 7.5 q-5.5 5 -8.5 10.5 q-3 5.5 -3 11.5 q0 6 3 12 q3 6 8.5 10 q5.5 4 12.5 7 q7 3 13 3 l337 0 l0 85 q0 7 3 14 q2 4 5 8 l-365 0 q-7 0 -13.5 3 q-6.5 3 -12 7.5 q-5.5 4.5 -8.5 10 Z" /><glyph glyph-name="uni4EBA" unicode="&#x4eba;" d="M171 -26 q0 3 1.5 13.5 q1.5 10.5 19.5 21.5 q86 51 146.5 117.5 q60.5 66.5 101 140.5 q40.5 74 64 150.5 q23.5 76.5 35.5 147.5 q12 71 16 132 q4 61 5 102 q0 7 2.5 13.5 q2.5 6.5 7.5 12 q5 5.5 11.5 8.5 q6.5 3 12.5 3 l9 0 q7 0 13.5 -3.5 q6.5 -3.5 11.5 -9 q5 -5.5 8 -12.5 q3 -7 2 -14 q-1 -47 -6 -114 q2 -4 2 -8 q4 -30 13 -79 q9 -49 26 -108.5 q17 -59.5 44.5 -125.5 q27.5 -66 68.5 -129.5 q41 -63.5 97.5 -120.5 q56.5 -57 131.5 -98 q18 -11 20.5 -22 q2.5 -11 2.5 -15 q0 -12 -8 -22 q-4 -5 -10 -8.5 q-6 -3.5 -13 -5 q-7 -1.5 -13.5 -1 q-6.5 0.5 -12.5 4.5 q-82 43 -143.5 104.5 q-61.5 61.5 -106 130 q-44.5 68.5 -74 141 q-29.5 72.5 -47.5 137.5 q-4 15 -8 28 q-12 -52 -30 -107 q-26 -82 -71 -161.5 q-45 -79.5 -111 -150.5 q-66 -71 -159 -125 q-6 -3 -12.5 -4.5 q-6.5 -1.5 -13.5 0 q-7 1.5 -13 4 q-6 2.5 -11 7.5 q-10 11 -10 25 Z" /><glyph glyph-name="uni4EBF" unicode="&#x4ebf;" d="M470 82 q0 16 3.5 35 q3.5 19 18 48.5 q14.5 29.5 44 73 q29.5 43.5 81 109.5 q51.5 66 128.5 158 q59 70 136 159 l-352 0 q-8 0 -15 3 q-7 3 -12.5 8 q-5.5 5 -8.5 11 q-3 6 -3 13 q0 6 3 12 q3 6 8.5 11 q5.5 5 12.5 8 q7 3 15 3 l387 0 q8 0 15 -3 q3 -2 6 -3 q2 1 4 3 q6 3 9 3 l4 0 q2 0 4 1 l5 0 q3 1 7.5 0.5 q4.5 -0.5 8.5 -2.5 l4 -3 l17 -8 l14 -14 l-8 -8 q-110 -123 -187 -213.5 q-77 -90.5 -128.5 -154 q-51.5 -63.5 -81 -105.5 q-29.5 -42 -45 -68.5 q-15.5 -26.5 -19 -42 q-3.5 -15.5 -3.5 -26.5 q0 -29 25.5 -41 q25.5 -12 68.5 -12 l265 -1 q17 0 28.5 6 q11.5 6 19 22 q7.5 16 12 45 q4.5 29 6.5 75 q3 20 15.5 31 q12.5 11 28.5 7 q10 -4 17 -15.5 q7 -11.5 5 -24.5 q-5 -68 -13 -110 q-8 -42 -23 -65.5 q-15 -23.5 -39 -31.5 q-24 -8 -61 -8 l-256 0 q-44 0 -76 8 q-32 8 -53 23 q-21 15 -31.5 36.5 q-10.5 21.5 -10.5 47.5 ZM150 411 q-7 11 -5 25.5 q2 14.5 10 24.5 q64 67 119.5 156.5 q55.5 89.5 95.5 186.5 q2 7 7 11.5 q5 4.5 11.5 7.5 q6.5 3 13 4.5 q6.5 1.5 12.5 -0.5 q7 -2 12 -7 q5 -5 8 -12 q3 -7 4 -14.5 q1 -7.5 -3 -14.5 q-35 -85 -80 -164 l0 -654 q0 -7 -3 -14 q-3 -7 -8 -12 q-5 -5 -11 -8.5 q-6 -3.5 -12.5 -3.5 q-6.5 0 -13 3.5 q-6.5 3.5 -11.5 8.5 q-5 5 -8 12 q-3 7 -3 14 l0 543 q-37 -53 -78 -99 q-6 -8 -13.5 -11 q-7.5 -3 -15.5 -2.5 q-8 0.5 -15 5 q-7 4.5 -11 12.5 q-1 0 -1 1 q0 1 -1 1 Z" /><glyph glyph-name="uni4EC0" unicode="&#x4ec0;" d="M426 457 q0 7 3.5 13.5 q3.5 6.5 8.5 11.5 q5 5 11.5 8 q6.5 3 13.5 3 l245 0 l0 299 q0 7 3.5 13.5 q3.5 6.5 8 12 q4.5 5.5 11 8.5 q6.5 3 13.5 3 l3 0 q7 0 13 -3 q6 -3 11.5 -8.5 q5.5 -5.5 8 -12 q2.5 -6.5 2.5 -13.5 l0 -299 l236 0 q7 0 13.5 -3 q6.5 -3 12 -8 q5.5 -5 8.5 -11.5 q3 -6.5 3 -13 q0 -6.5 -3 -13 q-3 -6.5 -8.5 -11.5 q-5.5 -5 -12 -8 q-6.5 -3 -13.5 -3 l-236 0 l0 -464 q0 -7 -2.5 -13.5 q-2.5 -6.5 -8 -12 q-5.5 -5.5 -11.5 -8.5 q-6 -3 -13 -3 l-3 0 q-7 0 -13.5 3 q-6.5 3 -11 8.5 q-4.5 5.5 -8 12 q-3.5 6.5 -3.5 13.5 l0 464 l-245 0 q-7 0 -13.5 3 q-6.5 3 -11.5 8 q-5 5 -8.5 11.5 q-3.5 6.5 -3.5 12.5 ZM154 404 q-6 10 -4.5 24.5 q1.5 14.5 10.5 23.5 q64 68 122 159.5 q58 91.5 98 191.5 q3 6 8 11 q5 5 11.5 8 q6.5 3 13 4.5 q6.5 1.5 12.5 -0.5 q7 -3 12 -7.5 q5 -4.5 8 -11.5 q3 -7 3.5 -14.5 q0.5 -7.5 -3.5 -14.5 q-37 -89 -85 -172 l0 -645 q0 -8 -2.5 -14.5 q-2.5 -6.5 -7.5 -12 q-5 -5.5 -11 -8.5 q-6 -3 -13 -3 q-7 0 -13 3 q-6 3 -11.5 8.5 q-5.5 5.5 -8 12 q-2.5 6.5 -2.5 13.5 l0 537 q-38 -54 -80 -100 q-6 -7 -13 -10.5 q-7 -3.5 -15 -3 q-8 0.5 -15.5 5 q-7.5 4.5 -11.5 12.5 q-1 0 -1 1 q0 1 -1 2 Z" /><glyph glyph-name="uni4EC5" unicode="&#x4ec5;" d="M555 662 q2 -1 3 -3 q6 -4 10.5 -10 q4.5 -6 5.5 -13 q27 -110 66.5 -206.5 q39.5 -96.5 93.5 -177.5 q4 -6 8 -11 q6 8 13 17 q65 88 112 201 q39 93 63 203 l-375 0 ZM420 -37 q0 7 5 18.5 q5 11.5 22 19.5 q87 40 165 104 q44 37 84 81 q-6 8 -11 16 q-59 87 -102 193 q-43 106 -73 227 q-2 7 -0.5 14 q1.5 7 4.5 13 q3 6 8 11 l2 2 l-24 0 q-6 0 -13 3 q-7 3 -12.5 7.5 q-5.5 4.5 -8.5 10.5 q-3 6 -3 13 q0 6 3 12 q3 6 8.5 11 q5.5 5 12.5 7.5 q7 2.5 13 2.5 l429 0 q7 0 14 -2 l0 -1 q2 3 6 3 q1 0 3 0.5 q2 0.5 4 1.5 l3 0 q2 1 5.5 0.5 q3.5 -0.5 6.5 -1.5 l10 -3 q11 -4 19 -16.5 q8 -12.5 5 -23.5 q-28 -150 -79.5 -270 q-51.5 -120 -121.5 -213 q-8 -11 -17 -22 q33 -40 72 -74 q70 -62 158 -102 q19 -10 23 -21.5 q4 -11.5 4 -17.5 q0 -11 -7 -20 q-3 -5 -8 -7.5 q-5 -2.5 -11 -4 q-6 -1.5 -12.5 -1 q-6.5 0.5 -11.5 2.5 q-97 44 -174 111 q-42 37 -79 80 q-43 -46 -91 -83 q-84 -67 -178 -110 q-12 -5 -26 -1.5 q-14 3.5 -20 11.5 q-6 9 -6 18 ZM145 396 q-7 11 -5 26.5 q2 15.5 11 24.5 q69 69 129 160.5 q60 91.5 103 193.5 q5 12 19.5 19 q14.5 7 26.5 3 l2 0 q7 -3 12 -8 q5 -5 8 -11.5 q3 -6.5 3 -14.5 q0 -8 -3 -15 q-41 -94 -93 -180 l0 -633 q0 -8 -3 -14.5 q-3 -6.5 -8 -12 q-5 -5.5 -11 -8.5 q-6 -3 -13 -3 q-7 0 -13 3 q-6 3 -11.5 8.5 q-5.5 5.5 -8.5 12.5 q-3 7 -3 14 l0 527 q-40 -55 -83 -101 q-7 -7 -14.5 -10 q-7.5 -3 -15.5 -2 q-8 1 -15 5 q-7 4 -11 11 l-3 5 Z" /><glyph glyph-name="uni4ECA" unicode="&#x4eca;" d="M516 520 q-4 7 -5 14.5 q-1 7.5 1.5 14.5 q2.5 7 7.5 12 q8 7 21.5 7 q13.5 0 22.5 -6 q37 -28 75.5 -59.5 q38.5 -31.5 66.5 -58.5 q6 -4 8.5 -11 q2.5 -7 2.5 -13.5 q0 -6.5 -2.5 -13.5 q-2.5 -7 -6.5 -12 q-5 -4 -12.5 -6.5 q-7.5 -2.5 -15 -2 q-7.5 0.5 -14.5 3 q-7 2.5 -12 7.5 q-25 25 -59 55 q-34 30 -69 56 q-6 6 -10 13 ZM262 310 l0 2 q0 7 3 13 q3 6 8.5 11 q5.5 5 12 7.5 q6.5 2.5 13.5 2.5 l548 0 q7 0 14 -2.5 q7 -2.5 12 -7.5 q1 1 1 2 q1 1 1 3 q0 3 3 4 q3 1 7 1 q2 0 4 0.5 q2 0.5 4 1.5 l1 0 q2 1 8 0.5 q6 -0.5 9 -2.5 l9 -4 q7 -3 11.5 -9.5 q4.5 -6.5 5.5 -14 q1 -7.5 0 -15.5 q-1 -8 -6 -15 q-28 -37 -62 -80.5 q-34 -43.5 -70 -88.5 l-73 -91 q-37 -46 -72 -88 q-8 -9 -20.5 -12 q-12.5 -3 -22.5 1 l-7 4 q-7 3 -12 9.5 q-5 6.5 -6.5 14.5 q-1.5 8 0.5 16.5 q2 8.5 8 14.5 q38 44 77.5 92 q39.5 48 76 94 q36.5 46 69.5 88 l10 12 l-528 0 q-7 0 -13.5 3 q-6.5 3 -12 8.5 q-5.5 5.5 -8.5 11.5 q-3 6 -3 13 ZM162 460 q0 4 2.5 15.5 q2.5 11.5 20.5 20.5 q58 29 113.5 65.5 q55.5 36.5 105.5 78 q50 41.5 94 87 q44 45.5 79 92.5 q4 5 9.5 9 q5.5 4 12 5.5 q6.5 1.5 13 1.5 q6.5 0 11.5 -2 l5 -2 q7 -3 11.5 -9.5 q4.5 -6.5 6 -14 q1.5 -7.5 -0.5 -15.5 q0 -2 -1 -4 q3 -1 4 -3 q34 -40 77.5 -80 q43.5 -40 91.5 -76.5 q48 -36.5 98.5 -68.5 q50.5 -32 98.5 -56 q10 -4 15.5 -11.5 q5.5 -7.5 7.5 -16 q2 -8.5 0 -17 q-2 -8.5 -8 -16.5 l-1 0 l0 -1 q-4 -5 -10.5 -8 q-6.5 -3 -13 -4.5 q-6.5 -1.5 -13.5 -1 q-7 0.5 -13 3.5 q-48 26 -99.5 61 q-51.5 35 -101.5 75 q-50 40 -96 84 q-42 41 -77 81 q-24 -29 -51 -57 q-48 -49 -102 -94.5 q-54 -45.5 -112 -84.5 q-58 -39 -119 -71 q-6 -3 -12.5 -3.5 q-6.5 -0.5 -13.5 1 q-7 1.5 -12.5 4.5 q-5.5 3 -9.5 8 l-1 1 q-9 10 -9 23 Z" /><glyph glyph-name="uni4ECB" unicode="&#x4ecb;" d="M754 -43 l0 452 q0 8 3 14.5 q3 6.5 8 12 q5 5.5 11.5 8.5 q6.5 3 13.5 3 l3 0 q7 0 13 -3 q6 -3 11.5 -8.5 q5.5 -5.5 8.5 -12 q3 -6.5 3 -14.5 l0 -452 q0 -8 -3 -14.5 q-3 -6.5 -8.5 -12 q-5.5 -5.5 -11.5 -8.5 q-6 -3 -13 -3 l-3 0 q-7 0 -13.5 3 q-6.5 3 -11.5 8.5 q-5 5.5 -8 12 q-3 6.5 -3 14.5 ZM198 -34 q0 3 1.5 13 q1.5 10 18.5 23 q54 35 86 72.5 q32 37.5 49 77 q17 39.5 21.5 81 q4.5 41.5 4.5 84.5 l0 91 q0 7 3 14 q3 7 8 12 q5 5 11.5 8.5 q6.5 3.5 12.5 3.5 l4 0 q7 0 13 -3.5 q6 -3.5 11.5 -8.5 q5.5 -5 8 -12 q2.5 -7 2.5 -14 l0 -93 q0 -47 -5.5 -97 q-5.5 -50 -26 -99 q-20.5 -49 -59 -95.5 q-38.5 -46.5 -105.5 -86.5 q-5 -4 -11.5 -5 q-6.5 -1 -13 0 q-6.5 1 -12.5 3 q-6 2 -11 6 q-11 11 -11 25 ZM153 454 q0 6 4.5 17.5 q4.5 11.5 23.5 19.5 q59 25 116 60 q57 35 108.5 76.5 q51.5 41.5 95.5 89.5 q44 48 76 97 q5 6 11.5 9.5 q6.5 3.5 13.5 5.5 q7 2 14 1 q7 -1 13 -4 q5 -4 8.5 -10.5 q3.5 -6.5 4.5 -13 q1 -6.5 -1 -13.5 q-1 -5 -3 -9 q8 -4 13 -10 q31 -41 73 -81 q42 -40 90.5 -75.5 q48.5 -35.5 101.5 -64.5 q53 -29 106 -49 q20 -7 23.5 -18 q3.5 -11 3.5 -17 q0 -12 -8 -23 q0 -1 -1 -1 q-5 -9 -18.5 -13 q-13.5 -4 -23.5 -1 q-56 22 -112.5 55 q-56.5 33 -108.5 72 q-52 39 -98 84 q-44 44 -79 90 q-22 -30 -49 -58 q-48 -53 -103.5 -99.5 q-55.5 -46.5 -117 -85 q-61.5 -38.5 -124.5 -66.5 q-6 -2 -13 -2.5 q-7 -0.5 -13.5 2 q-6.5 2.5 -12 6 q-5.5 3.5 -8.5 9.5 q-6 10 -6 20 Z" /><glyph glyph-name="uni4ECD" unicode="&#x4ecd;" d="M377 -56 q-11 9 -11 26 q0 17 10 30 q56 64 88.5 148 q32.5 84 49.5 178.5 q17 94.5 22 191.5 q5 96 7 183 l-84 0 q-7 0 -13.5 3 q-6.5 3 -11.5 7.5 q-5 4.5 -8.5 10.5 q-3.5 6 -3.5 12 q0 6 3.5 12 q3.5 6 8.5 11 q5 5 11.5 7.5 q6.5 2.5 13.5 2.5 l362 0 q6 0 13 -2 q4 -2 7 -4 q8 6 17 6 q7 0 14 -3.5 q7 -3.5 11.5 -9.5 q4.5 -6 6.5 -13.5 q2 -7.5 1 -16.5 q-7 -35 -14.5 -73 q-7.5 -38 -15 -75.5 q-7.5 -37.5 -15.5 -71.5 q-3 -13 -5 -25 l141 0 q8 0 14.5 -2.5 q6.5 -2.5 12 -7.5 q5.5 -5 8.5 -11 q3 -6 3 -12 q0 -5 -1 -9 q-7 -117 -13 -200 q-6 -84 -14 -140 q-8 -56 -17.5 -88.5 q-9.5 -32.5 -23.5 -46.5 q-14 -18 -31.5 -24.5 q-17.5 -6.5 -42.5 -9.5 q-13 -1 -30 -1 q-9 0 -29.5 0.5 q-20.5 0.5 -56.5 2.5 q-12 -1 -24 7.5 q-12 8.5 -14 18.5 q-1 4 -1 8 q0 12 9.5 22.5 q9.5 10.5 30.5 10.5 q2 0 3 0 q14 -1 25.5 -1.5 q11.5 -0.5 22 -1 q10.5 -0.5 19.5 -0.5 l17 0 q15 0 24 2 q9 2 18 11 q11 10 19.5 39.5 q8.5 29.5 15.5 83.5 q7 54 13 136 q4 63 8 147 l-103 0 q-8 0 -15 3 q-5 2 -9 6 q0 -1 -1 -1 q-10 -8 -19 -8 q-9 0 -15.5 4 q-6.5 4 -11 10 q-4.5 6 -6 14.5 q-1.5 8.5 0.5 16.5 q7 30 15 64.5 q8 34.5 15 71 q7 36.5 14 73.5 l6 34 l-202 0 q-2 -96 -9 -198 q-7 -105 -26 -205 q-19 -100 -55 -189.5 q-36 -89.5 -97 -156.5 q-4 -7 -11 -10.5 q-7 -3.5 -14.5 -5 q-7.5 -1.5 -14.5 0.5 q-7 2 -12 7 ZM140 416 q-6 8 -5 21.5 q1 13.5 8 22.5 q54 67 99.5 155.5 q45.5 88.5 77.5 184.5 q2 6 7 11.5 q5 5.5 10.5 9 q5.5 3.5 12.5 5 q7 1.5 13 -0.5 q7 -2 12 -7 q5 -5 8.5 -11.5 q3.5 -6.5 4 -14 q0.5 -7.5 -2.5 -13.5 q-29 -85 -67 -164 l0 -656 q0 -7 -2.5 -14 q-2.5 -7 -7.5 -12.5 q-5 -5.5 -11 -8.5 q-6 -3 -12.5 -3 q-6.5 0 -12.5 3 q-6 3 -11 8.5 q-5 5.5 -8 12 q-3 6.5 -3 14.5 l0 528 q-26 -42 -53 -79 q-6 -8 -13.5 -12 q-7.5 -4 -15 -4 q-7.5 0 -14.5 4.5 q-7 4.5 -12 13.5 l0 3 l-2 3 Z" /><glyph glyph-name="uni4ECE" unicode="&#x4ece;" d="M499 -39 q-4 8 -4.5 16.5 q-0.5 8.5 2.5 17.5 q3 9 9 16 q62 62 104.5 141.5 q42.5 79.5 69.5 176.5 q27 97 42 209.5 q15 112.5 24 241.5 q0 7 3.5 13.5 q3.5 6.5 9 12 q5.5 5.5 12 8 q6.5 2.5 13.5 2.5 l6 0 q7 -1 13 -4 q6 -3 11 -9 q5 -6 7 -12.5 q2 -6.5 2 -14.5 q-10 -139 -27 -260 q-3 -22 -7 -43 q1 -2 2 -3 q5 -7 7 -16 q13 -55 32 -114 q19 -59 46.5 -115.5 q27.5 -56.5 63.5 -107.5 q36 -51 82 -90 q13 -13 14 -23 q1 -10 1 -13 q0 -14 -9 -25 q-4 -6 -11.5 -9.5 q-7.5 -3.5 -15.5 -4 q-8 -0.5 -15.5 2 q-7.5 2.5 -12.5 8.5 q-50 46 -89 105 q-39 59 -68 123 q-29 64 -49 130 q-3 9 -5 18 q-6 -23 -13 -46 q-29 -102 -74 -187.5 q-45 -85.5 -112 -153.5 q-4 -5 -10.5 -8 q-6.5 -3 -13.5 -3.5 q-7 -0.5 -14 1 q-7 1.5 -12 5.5 q-1 0 -1.5 0.5 q-0.5 0.5 -0.5 1.5 q-8 4 -12 12 ZM168 -40 q-4 7 -4.5 15.5 q-0.5 8.5 1 16.5 q1.5 8 7.5 15 q51 65 84.5 147 q33.5 82 55 179.5 q21.5 97.5 33 209.5 q11.5 112 17.5 235 q0 7 4 14 q4 7 9 12 q5 5 11.5 8 q6.5 3 13.5 3 l5 -1 q7 0 13.5 -3 q6.5 -3 11 -9 q4.5 -6 7.5 -12.5 q3 -6.5 3 -13.5 q-8 -134 -21 -251 q-2 -18 -4 -35 q4 -1 9 -3 q6 -3 11 -9 q23 -29 46 -60.5 q23 -31.5 44.5 -62.5 q21.5 -31 39.5 -61 q18 -30 31 -56 q5 -9 3.5 -22 q-1.5 -13 -8.5 -20 l-1 -1 q-7 -6 -15 -8 q-8 -2 -16 -0.5 q-8 1.5 -15 6.5 q-7 5 -12 12 q-13 25 -30.5 54 q-17.5 29 -37 58.5 q-19.5 29.5 -39.5 58.5 l-22 32 q-9 -54 -20 -104 q-23 -102 -58.5 -189.5 q-35.5 -87.5 -88.5 -158.5 q-4 -7 -11 -10.5 q-7 -3.5 -14.5 -4.5 q-7.5 -1 -15.5 0 q-8 1 -14 5 l-1 1 q-1 0 -2 1 q-6 5 -10 12 Z" /><glyph glyph-name="uni4ED3" unicode="&#x4ed3;" d="M330 74 l0 373 q0 6 3.5 13 q3.5 7 8.5 12.5 q5 5.5 11 8.5 q6 3 13 3 l3 0 q7 0 14 -3 q2 -1 4 -3 q2 2 5 3 q6 3 13 3 l422 0 q7 0 13.5 -3 q6.5 -3 11.5 -8 q5 -5 8 -11 q3 -6 3 -12 q0 -5 -1 -10 q-3 -59 -6 -102 q-4 -46 -8 -77 q-4 -31 -10 -49.5 q-6 -18.5 -14 -28.5 q-13 -14 -29.5 -19 q-16.5 -5 -38.5 -7 q-17 -1 -44.5 -1 q-27.5 0 -60.5 1 q-12 1 -23 8.5 q-11 7.5 -14 16.5 q-4 16 8.5 26.5 q12.5 10.5 31.5 10.5 q2 0 4 0 q11 0 21 -1 q10 -1 18 -1 l29 0 q14 0 22 1.5 q8 1.5 14 7.5 q5 6 9.5 22 q4.5 16 8 45 q3.5 29 6.5 73 q1 22 2 49 l-383 0 l0 -341 q0 -17 4 -28 q4 -11 14.5 -17.5 q10.5 -6.5 30 -8.5 q19.5 -2 51.5 -2 l293 0 q22 0 37 3.5 q15 3.5 25 14.5 q10 11 15.5 30.5 q5.5 19.5 8.5 49.5 q5 9 10.5 16.5 q5.5 7.5 12 12 q6.5 4.5 14.5 6.5 q8 2 17 -2 q5 -2 9.5 -6 q4.5 -4 8 -10 q3.5 -6 5 -13 q1.5 -7 0.5 -13 q-6 -47 -14.5 -78 q-8.5 -31 -25.5 -49 q-17 -18 -46 -25.5 q-29 -7.5 -75 -7.5 l-296 0 q-50 0 -83.5 5.5 q-33.5 5.5 -53.5 19.5 q-20 14 -28.5 39 q-8.5 25 -8.5 63 ZM158 438 q0 5 3 16 q3 11 21 21 q59 29 115.5 66.5 q56.5 37.5 108 80.5 q51.5 43 95.5 91.5 q44 48.5 79 98.5 q3 5 8.5 9 q5.5 4 12 6.5 q6.5 2.5 13.5 3 q7 0.5 12 -2.5 l3 -1 q7 -3 11.5 -9 q4.5 -6 6 -13.5 q1.5 -7.5 0.5 -14.5 q-1 -8 -5 -14 q3 -2 4 -4 q79 -95 172 -162.5 q93 -67.5 201 -121.5 q19 -9 22.5 -20 q3.5 -11 3.5 -16 q0 -11 -8 -20 q-3 -5 -9 -8.5 q-6 -3.5 -13 -5 q-7 -1.5 -14 -0.5 q-7 1 -13 4 q-111 60 -208 133 q-94 71 -177 169 q-23 -29 -48 -57 q-49 -53 -104 -100.5 q-55 -47.5 -115 -88.5 q-60 -41 -123 -73 q-5 -2 -11.5 -2.5 q-6.5 -0.5 -13 1 q-6.5 1.5 -12.5 4.5 q-6 3 -9 8 q-9 10 -9 22 Z" /><glyph glyph-name="uni4ED4" unicode="&#x4ed4;" d="M414.5 358 q-3.5 6 -3.5 12.5 q0 6.5 3.5 13 q3.5 6.5 8.5 11 q5 4.5 12 7.5 q7 3 14 3 l253 0 l0 108 q0 7 3 13.5 q3 6.5 8 12.5 q5 5 11 8 q0 2 1 4 q5 16 21 27 q29 18 57.5 39 q28.5 21 55.5 43 q24 21 46 41 l-394 0 q-7 0 -13.5 3.5 q-6.5 3.5 -12 8 q-5.5 4.5 -8.5 10.5 q-3 6 -3 12 q0 7 3 12.5 q3 5.5 8.5 10.5 q5.5 5 12 8 q6.5 3 13.5 3 l428 0 q7 0 14 -3 l4 -2 l0 1 q4 4 9 4 q2 0 4 0.5 q2 0.5 4 0.5 q4 1 11 -0.5 q7 -1.5 12 -5.5 l5 -3 q6 -5 9.5 -11.5 q3.5 -6.5 4.5 -14.5 q1 -8 -1 -15 q-2 -7 -8 -13 q-24 -26 -52 -51 q-28 -25 -58.5 -49 q-30.5 -24 -61.5 -45.5 q-31 -21.5 -60 -39.5 q-1 0 -2 -1 l0 -116 l250 0 q7 0 13.5 -3 q6.5 -3 12 -7.5 q5.5 -4.5 8.5 -11 q3 -6.5 3 -13 q0 -6.5 -3 -12.5 q-3 -6 -8.5 -11 q-5.5 -5 -12 -8 q-6.5 -3 -13.5 -3 l-250 0 l0 -318 q0 -36 -9.5 -54 q-9.5 -18 -35.5 -27 q-22 -7 -59 -9 q-37 -2 -94 -2 q-12 -1 -23 7.5 q-11 8.5 -15 17.5 q-2 10 -0.5 18 q1.5 8 6.5 14 q5 6 13 9.5 q8 3.5 19 3.5 q38 -1 63 -1 q25 0 39 1 q14 1 19.5 5 q5.5 4 5.5 17 l0 318 l-253 0 q-7 0 -14 3 q-7 3 -12 8 q-5 5 -8.5 11 ZM150 413 q-6 10 -4.5 25 q1.5 15 9.5 24 q60 67 111.5 156.5 q51.5 89.5 89.5 186.5 q3 7 8 12 q5 5 11 8 q6 3 12.5 4.5 q6.5 1.5 13.5 -0.5 q7 -2 12 -7 q5 -5 7.5 -11.5 q2.5 -6.5 3.5 -14.5 q1 -8 -2 -14 q-40 -101 -92 -193 l0 -631 q0 -7 -2.5 -14 q-2.5 -7 -7.5 -12 q-5 -5 -11 -8 q-6 -3 -12.5 -3 q-6.5 0 -12.5 3 q-6 3 -11 8.5 q-5 5.5 -8 12 q-3 6.5 -3 13.5 l0 521 q-26 -38 -54 -72 q-7 -7 -14.5 -10.5 q-7.5 -3.5 -15 -3 q-7.5 0.5 -15 5 q-7.5 4.5 -11.5 12.5 q-1 0 -1 1 q0 1 -1 1 Z" /><glyph glyph-name="uni4ED6" unicode="&#x4ed6;" d="M386 392 q-3 6 -2.5 13 q0.5 7 3.5 13.5 q3 6.5 8.5 12 q5.5 5.5 11.5 7.5 l91 36 l0 229 q0 7 3 13.5 q3 6.5 8.5 12 q5.5 5.5 11.5 8.5 q6 3 13 3 q7 0 13 -3 q6 -3 11 -8.5 q5 -5.5 8 -12 q3 -6.5 3 -13.5 l0 -202 l151 59 l0 239 q0 8 3.5 14.5 q3.5 6.5 8 12 q4.5 5.5 10.5 8.5 q6 3 12.5 3 q6.5 0 12.5 -3 q6 -3 11 -8.5 q5 -5.5 8 -12 q3 -6.5 3 -14.5 l0 -212 l150 58 q5 2 10 2 l9 9 q5 5 14 6 q9 1 15 -2 l4 -1 q12 -5 20 -11 q8 -6 7 -10 q-1 -2 -1 -5 l0 -5 q0 -68 -1 -127 q-1 -59 -2.5 -106.5 q-1.5 -47.5 -3.5 -81.5 q-2 -34 -6 -50 q-6 -34 -21.5 -50 q-15.5 -16 -38.5 -21 q-14 -3 -32.5 -4.5 q-18.5 -1.5 -35.5 -1.5 q-7 0 -13 2 q-6 2 -11 5.5 q-5 3.5 -8.5 8 q-3.5 4.5 -4.5 8.5 q-3 17 2.5 28.5 q5.5 11.5 20.5 11.5 l41 0 q13 0 21.5 5.5 q8.5 5.5 14.5 25.5 q3 12 5 42 q2 30 3.5 75.5 q1.5 45.5 1.5 105.5 l0 71 l-160 -62 l0 -332 q0 -7 -3 -14 q-3 -7 -8 -12.5 q-5 -5.5 -11 -8.5 q-6 -3 -12.5 -3 q-6.5 0 -12.5 3 q-6 3 -10.5 8.5 q-4.5 5.5 -8 12.5 q-3.5 7 -3.5 14 l0 305 l-151 -59 l0 -358 q0 -21 3 -35 q3 -14 12 -21.5 q9 -7.5 26 -10.5 q17 -3 44 -3 l261 0 q19 0 31 4 q12 4 20.5 14.5 q8.5 10.5 13 28 q4.5 17.5 7.5 44.5 q8 20 20.5 30.5 q12.5 10.5 28.5 4.5 q10 -5 17 -17.5 q7 -12.5 5 -24.5 q-5 -42 -12.5 -70.5 q-7.5 -28.5 -22.5 -46 q-15 -17.5 -40 -25 q-25 -7.5 -66 -7.5 l-265 0 q-44 0 -74 6 q-30 6 -48 21.5 q-18 15.5 -25 41.5 q-7 26 -7 67 l0 330 l-65 -26 q-7 -2 -14.5 -2 q-7.5 0 -14 2.5 q-6.5 2.5 -11.5 7 q-5 4.5 -7 10.5 ZM136 410 q-6 10 -4 25 q2 15 10 25 q63 67 118.5 156 q55.5 89 94.5 186 q3 7 8 11.5 q5 4.5 11.5 8 q6.5 3.5 13 5 q6.5 1.5 12.5 -0.5 q7 -3 11.5 -7.5 q4.5 -4.5 7.5 -11.5 q3 -7 3.5 -14.5 q0.5 -7.5 -2.5 -14.5 q-38 -91 -88 -176 l0 -641 q0 -8 -3 -14.5 q-3 -6.5 -7.5 -12 q-4.5 -5.5 -11 -8.5 q-6.5 -3 -13 -3 q-6.5 0 -13 3 q-6.5 3 -11.5 8.5 q-5 5.5 -8 12 q-3 6.5 -3 13.5 l0 533 q-34 -47 -70 -88 q-6 -7 -13.5 -10.5 q-7.5 -3.5 -15.5 -3 q-8 0.5 -14.5 4.5 q-6.5 4 -11.5 11 q0 1 -0.5 1.5 q-0.5 0.5 -0.5 1.5 Z" /><glyph glyph-name="uni4ED8" unicode="&#x4ed8;" d="M530 372 q-4 6 -5 14 q-1 8 1 15 q2 7 6 13 q4 6 11 9 q6 3 12.5 2.5 q6.5 -0.5 12.5 -2 q6 -1.5 11.5 -5.5 q5.5 -4 8.5 -10 q16 -22 32 -47 q16 -25 31.5 -49 q15.5 -24 29.5 -47 q14 -23 25 -42 q3 -6 3.5 -13 q0.5 -7 -1.5 -13.5 q-2 -6.5 -6 -12 q-4 -5.5 -10 -8.5 l-1 -1 q-7 -4 -14.5 -4 q-7.5 0 -15 2.5 q-7.5 2.5 -14 7.5 q-6.5 5 -10.5 12 q-9 19 -22 41 q-13 22 -27 45 q-14 23 -29 47 q-15 24 -29 46 ZM444 579 l0 2 q0 7 3.5 13 q3.5 6 8.5 11.5 q5 5.5 12 8 q7 2.5 15 2.5 l369 0 l0 174 q0 7 3 13.5 q3 6.5 8.5 12 q5.5 5.5 11.5 8.5 q6 3 13 3 l2 0 q7 0 13.5 -3 q6.5 -3 11.5 -8.5 q5 -5.5 7.5 -12 q2.5 -6.5 2.5 -13.5 l0 -174 l90 0 q7 0 14 -2.5 q7 -2.5 12.5 -8 q5.5 -5.5 8.5 -11.5 q3 -6 3 -13 l0 -2 q0 -6 -3 -12.5 q-3 -6.5 -8.5 -11 q-5.5 -4.5 -12.5 -8 q-7 -3.5 -14 -3.5 l-90 0 l0 -524 q0 -42 -12.5 -61 q-12.5 -19 -40.5 -28 q-26 -8 -71 -10 q-45 -2 -115 -2 q-11 0 -21.5 7.5 q-10.5 7.5 -14.5 16.5 q-3 7 -3 14 q0 10 8.5 21 q8.5 11 28.5 11 q1 0 3 0 q48 -1 81.5 -1 q33.5 0 51.5 1 q18 2 25 8 q7 6 7 23 l0 524 l-369 0 q-8 0 -15 3.5 q-7 3.5 -12 8 q-5 4.5 -8.5 11 q-3.5 6.5 -3.5 12.5 ZM153 410 q-1 7 -0.5 14 q0.5 7 3 13.5 q2.5 6.5 7.5 11.5 q65 68 122.5 159.5 q57.5 91.5 98.5 191.5 q2 6 7 11 q5 5 11.5 8.5 q6.5 3.5 13 4.5 q6.5 1 12.5 -1 l3 0 q7 -3 12 -7.5 q5 -4.5 8 -11.5 q3 -7 3 -14.5 q0 -7.5 -2 -14.5 q-41 -97 -93 -186 l0 -628 q0 -8 -2.5 -14.5 q-2.5 -6.5 -8 -12 q-5.5 -5.5 -11.5 -8.5 q-6 -3 -13 -3 l-1 0 q-7 0 -13 3 q-6 3 -11.5 8.5 q-5.5 5.5 -8.5 12.5 q-3 7 -3 14 l0 518 q-34 -47 -71 -88 q-6 -8 -14 -11 q-8 -3 -15.5 -2.5 q-7.5 0.5 -15 4.5 q-7.5 4 -11.5 12 q-1 1 -1.5 2 q-0.5 1 -0.5 2 q-4 5 -5 12 Z" /><glyph glyph-name="uni4EE3" unicode="&#x4ee3;" d="M838 764.5 q-3 7.5 -3 15 q0 7.5 3 14 q3 6.5 9 10.5 q7 5 19.5 3 q12.5 -2 20.5 -9 q34 -26 68 -57 q34 -31 58 -57 q4 -5 6 -11.5 q2 -6.5 1 -13 q-1 -6.5 -4 -12 q-3 -5.5 -7 -9.5 q-6 -3 -13.5 -4 q-7.5 -1 -15 1 q-7.5 2 -14 6.5 q-6.5 4.5 -11.5 9.5 q-20 22 -49.5 49 q-29.5 27 -59.5 51 q-5 6 -8 13.5 ZM428 461 q-1 6 1 12.5 q2 6.5 7 12.5 q5 6 11.5 10 q6.5 4 13.5 4 l209 26 q-12 122 -19 259 q0 8 3 15 q3 7 7.5 12.5 q4.5 5.5 11 9 q6.5 3.5 13.5 3.5 l1 0 q6 0 12.5 -3 q6.5 -3 11.5 -8 q5 -5 8 -12 q3 -7 3 -14 q6 -134 18 -253 l267 33 q7 1 13.5 -0.5 q6.5 -1.5 12.5 -5.5 q6 -4 10 -10 q4 -6 5 -12 q2 -6 -1 -13 q-3 -7 -7 -12.5 q-4 -5.5 -10.5 -9 q-6.5 -3.5 -14.5 -4.5 l-268 -34 q17 -129 43 -227 q28 -105 70 -167 q42 -62 99 -67 l1 0 q16 0 28 28.5 q12 28.5 20 85.5 q5 23 15 29.5 q10 6.5 18 6.5 q8 0 16 -4 q6 -5 10.5 -15 q4.5 -10 3.5 -19 q-9 -58 -19.5 -95.5 q-10.5 -37.5 -24 -60.5 q-13.5 -23 -29 -32 q-15.5 -9 -32.5 -9 q-2 0 -4 0 q-82 6 -137.5 73 q-55.5 67 -91.5 182 q-36 115 -54 271 l-2 12 l-208 -26 q-7 -1 -13.5 0.5 q-6.5 1.5 -12.5 5.5 q-6 4 -10 9.5 q-4 5.5 -5 12.5 ZM141 391 q-7 11 -5 26.5 q2 15.5 12 24.5 q75 69 141 161 q66 92 112 194 q3 6 8 11 q5 5 11.5 8 q6.5 3 13 4 q6.5 1 12.5 -1 l0 -1 q7 -2 12.5 -7 q5.5 -5 8 -11.5 q2.5 -6.5 2.5 -14.5 q0 -8 -3 -15 q-41 -88 -92 -168 l0 -642 q0 -7 -3 -14 q-3 -7 -8 -12 q-5 -5 -11 -8.5 q-6 -3.5 -13 -3.5 l-3 0 q-6 0 -12.5 3.5 q-6.5 3.5 -12 8.5 q-5.5 5 -8 12 q-2.5 7 -2.5 14 l0 539 q-50 -63 -104 -116 q-6 -7 -13.5 -9 q-7.5 -2 -15 -1.5 q-7.5 0.5 -14.5 5 q-7 4.5 -11 11.5 q-1 1 -1 1.5 q0 0.5 -1 0.5 Z" /><glyph glyph-name="uni4EE4" unicode="&#x4ee4;" d="M525.5 543.5 q-3.5 7.5 -4 15 q-0.5 7.5 2 14.5 q2.5 7 8.5 12 q8 6 21 5 q13 -1 22 -8 q30 -24 60 -52 q30 -28 49 -52 q5 -5 7.5 -12 q2.5 -7 2 -13.5 q-0.5 -6.5 -3.5 -12.5 q-3 -6 -7 -11 q-5 -4 -12.5 -5.5 q-7.5 -1.5 -15.5 -0.5 q-8 1 -15 4.5 q-7 3.5 -12 9.5 q-17 22 -42 47 q-25 25 -52 46 q-5 6 -8.5 13.5 ZM272 330 q-3 6 -3 12.5 q0 6.5 3 12.5 q3 6 8.5 11.5 q5.5 5.5 12.5 8 q7 2.5 14 2.5 l544 0 q7 0 14 -2 q4 -2 8 -5 l0 1 q0 4 3.5 5 q3.5 1 7.5 1 q1 0 3.5 0.5 q2.5 0.5 4.5 1.5 q3 1 9 0 q6 -1 11 -4 l5 -4 q7 -4 11 -10.5 q4 -6.5 5 -14.5 q1 -8 -2 -16 q-3 -8 -8 -14 q-28 -29 -60.5 -62 q-32.5 -33 -67 -67 q-34.5 -34 -68.5 -69 q-29 -28 -56 -55 q12 -9 23 -17 q33 -25 58 -47 q7 -4 10.5 -11 q3.5 -7 4 -14 q0.5 -7 -1.5 -14 q-2 -7 -7 -13 l-5 -5 q-4 -5 -11 -7.5 q-7 -2.5 -14 -3 q-7 -0.5 -14 1.5 q-7 2 -12 6 q-24 21 -53.5 45 q-29.5 24 -62.5 49 q-33 25 -68 49.5 q-35 24.5 -68 45.5 q-8 5 -12.5 12 q-4.5 7 -6 15 q-1.5 8 0.5 15.5 q2 7.5 8 13.5 l2 2 q7 6 19.5 8 q12.5 2 20.5 -3 q35 -22 72 -46 l58 -40 q34 33 69 67 q37 36 71 71 q34 34 64 65 l-509 0 q-7 0 -14 3 q-7 3 -12.5 8 q-5.5 5 -8.5 11 ZM162 475 q0 4 3 15 q3 11 21 20 q59 28 116 62.5 q57 34.5 109 74.5 q52 40 98 83.5 q46 43.5 82 88.5 q8 9 21.5 12.5 q13.5 3.5 24.5 -2.5 l2 -1 q7 -3 11 -9.5 q4 -6.5 5 -14.5 q1 -8 -1 -15 q-2 -7 -6 -12 q35 -37 79 -74 q44 -37 93 -71.5 q49 -34.5 101 -64 q52 -29.5 100 -51.5 q19 -9 22 -20 q3 -11 3 -16 q0 -12 -9 -24 l0 -1 q-4 -4 -9.5 -7.5 q-5.5 -3.5 -12 -5 q-6.5 -1.5 -13 -1 q-6.5 0.5 -12.5 3.5 q-49 24 -101.5 56.5 q-52.5 32.5 -103.5 69.5 q-51 37 -99 78 q-45 39 -82 78 q-23 -24 -48 -48 q-49 -48 -104 -90 q-55 -42 -114.5 -79.5 q-59.5 -37.5 -119.5 -67.5 q-6 -2 -12.5 -2.5 q-6.5 -0.5 -13.5 0.5 q-7 1 -12.5 4.5 q-5.5 3.5 -8.5 7.5 q-9 11 -9 23 Z" /><glyph glyph-name="uni4EE5" unicode="&#x4ee5;" d="M501 678 q-5 7 -6.5 15 q-1.5 8 0 16 q1.5 8 5.5 14.5 q4 6.5 11 9.5 q10 6 23.5 2.5 q13.5 -3.5 20.5 -12.5 q17 -21 34 -44.5 q17 -23.5 32.5 -47 q15.5 -23.5 29 -46 q13.5 -22.5 24.5 -42.5 q3 -5 3.5 -12 q0.5 -7 -1 -13.5 q-1.5 -6.5 -5 -12 q-3.5 -5.5 -8.5 -9.5 l-2 -1 q-7 -4 -15 -4 q-8 0 -15 2.5 q-7 2.5 -13.5 7.5 q-6.5 5 -10.5 12 q-19 38 -48 82 q-29 44 -59 83 ZM471 -38 q0 5 3 16.5 q3 11.5 21 21.5 q103 49 169.5 118 q66.5 69 107.5 162 q41 93 60.5 213 q19.5 120 28.5 270 q0 7 3.5 14 q3.5 7 9 12 q5.5 5 12.5 7.5 q7 2.5 13 2.5 l4 0 q7 0 13 -3.5 q6 -3.5 11 -9 q5 -5.5 7.5 -12.5 q2.5 -7 2.5 -14 q-11 -164 -34.5 -293.5 q-23.5 -129.5 -68.5 -229.5 q-2 -5 -4 -9 q1 0 1 -1 q29 -27 58.5 -56.5 q29.5 -29.5 57.5 -59 q28 -29.5 53 -58.5 q25 -29 44 -54 q4 -5 5.5 -12 q1.5 -7 1 -14 q-0.5 -7 -4 -13 q-3.5 -6 -8.5 -11 l-4 -2 q-6 -5 -13.5 -6 q-7.5 -1 -15 0.5 q-7.5 1.5 -14.5 5.5 q-7 4 -11 10 q-18 24 -40.5 51.5 q-22.5 27.5 -48 56 q-25.5 28.5 -53.5 57.5 q-21 23 -42 43 q-35 -57 -82 -104 q-73 -75 -185 -131 q-6 -3 -12.5 -3.5 q-6.5 -0.5 -13.5 1 q-7 1.5 -12.5 4.5 q-5.5 3 -9.5 8 l-1 0 q-9 10 -9 22 ZM222 56 q-7 10 -2.5 26 q4.5 16 14.5 28 q5 6 10 9.5 q5 3.5 9 9.5 q4 6 6.5 15.5 q2.5 9.5 2.5 26.5 l0 553 q0 7 2.5 14 q2.5 7 8 12 q5.5 5 11.5 8 q6 3 13 3 l6 0 q7 0 13 -3 q6 -3 11 -8.5 q5 -5.5 8 -12 q3 -6.5 3 -13.5 l0 -564 l193 89 q8 5 16.5 5 q8.5 0 15.5 -2.5 q7 -2.5 12.5 -8 q5.5 -5.5 8.5 -12.5 q3 -10 -3.5 -23 q-6.5 -13 -17.5 -19 q-63 -29 -108 -50.5 q-45 -21.5 -77 -37 q-32 -15.5 -53 -26.5 q-21 -11 -35 -19 q-9 -5 -19 -7 l-5 0 q-1 -1 -2 -1 q-8 -4 -16 -4 q-8 0 -15 3 q-7 3 -11 9 Z" /><glyph glyph-name="uni4EEA" unicode="&#x4eea;" d="M663 751 q-4 6 -5 14 q-1 8 0.5 16 q1.5 8 5 13.5 q3.5 5.5 9.5 8.5 q10 5 23 1 q13 -4 20 -14 q25 -36 49 -76 q24 -40 39 -72 q4 -10 0 -23 q-4 -13 -13 -18 q-7 -4 -14.5 -4 q-7.5 0 -15 3.5 q-7.5 3.5 -14 9 q-6.5 5.5 -9.5 12.5 q-14 29 -34 63 q-20 34 -41 66 ZM399 -59 q-10 13 -3.5 29.5 q6.5 16.5 23.5 24.5 q125 55 213 131 q26 23 49 47 q-20 28 -38 58 q-61 100 -102 222 q-41 122 -69 266 q-1 7 0.5 14.5 q1.5 7.5 5.5 13 q4 5.5 9.5 9.5 q5.5 4 12.5 6 q7 0 13 -2 q6 -2 11.5 -6 q5.5 -4 10 -11 q4.5 -7 5.5 -13 q24 -130 62.5 -243 q38.5 -113 95.5 -206 q16 -26 34 -50 q25 32 46 66 q60 95 96.5 207.5 q36.5 112.5 59.5 240.5 q1 6 5 12.5 q4 6.5 10.5 10.5 q6.5 4 13.5 6.5 q7 2.5 14 0.5 q7 0 12.5 -4.5 q5.5 -4.5 9.5 -11 q4 -6.5 5.5 -13.5 q1.5 -7 0.5 -14 q-27 -137 -67 -257 q-40 -120 -105 -222 q-26 -40 -57 -77 q27 -30 57 -58 q78 -70 182 -115 q18 -10 21 -21 q3 -11 3 -16 q0 -12 -9 -23 q-7 -9 -20.5 -12.5 q-13.5 -3.5 -24.5 1.5 q-113 49 -197 124 q-34 30 -63 63 q-25 -25 -52 -48 q-95 -81 -230 -139 q-10 -5 -24 -2 q-14 3 -20 11 ZM136 410 q-6 10 -4 25 q2 15 10 25 q64 67 119.5 156 q55.5 89 93.5 187 q3 6 8.5 11 q5.5 5 11.5 8 q6 3 12.5 4.5 q6.5 1.5 12.5 -0.5 q7 -3 12 -7.5 q5 -4.5 8 -11.5 q3 -7 3.5 -14.5 q0.5 -7.5 -1.5 -14.5 q-39 -93 -90 -180 l0 -638 q0 -7 -3 -14 q-3 -7 -7.5 -12 q-4.5 -5 -10.5 -8 q-6 -3 -12.5 -3 q-6.5 0 -12.5 3 q-6 3 -11.5 8.5 q-5.5 5.5 -8 12 q-2.5 6.5 -2.5 13.5 l0 533 q-34 -48 -71 -90 q-6 -7 -13.5 -10 q-7.5 -3 -15.5 -2.5 q-8 0.5 -15 5 q-7 4.5 -11 11.5 q-1 1 -1 1.5 q0 0.5 -1 1.5 Z" /><glyph glyph-name="uni4EEC" unicode="&#x4eec;" d="M678.5 758 q-3.5 6 -3.5 12 q0 6 3.5 12 q3.5 6 8.5 10.5 q5 4.5 12 7 q7 2.5 14 2.5 l273 0 q7 0 13 -3 q6 -3 11 -7 q5 -4 8.5 -10 q3.5 -6 3.5 -12 q0 -1 -1 -3 q1 -1 1 -3 l0 -751 q0 -33 -9.5 -50.5 q-9.5 -17.5 -32.5 -26.5 q-18 -7 -49.5 -9.5 q-31.5 -2.5 -78.5 -2.5 q-12 -1 -23.5 7 q-11.5 8 -14.5 17 q-1 5 -1 9 q0 12 9.5 22.5 q9.5 10.5 30.5 11.5 q27 -1 45 -1 q18 0 30 1 q12 1 17 5.5 q5 4.5 5 17.5 l0 723 l-237 0 q-7 0 -14 2.5 q-7 2.5 -12 7.5 q-5 5 -8.5 11 ZM500 788 q-2 8 -0.5 15 q1.5 7 5 13 q3.5 6 8.5 9 q10 6 23 2 q13 -4 20 -15 q24 -32 46.5 -69 q22.5 -37 38.5 -66 q3 -6 4 -13 q1 -7 -0.5 -13 q-1.5 -6 -5 -11.5 q-3.5 -5.5 -8.5 -8.5 q-6 -4 -13.5 -4 q-7.5 0 -14.5 2.5 q-7 2.5 -13 8 q-6 5.5 -11 11.5 q-13 28 -33 61 q-20 33 -40 64 q-4 6 -6 14 ZM440 -41 l0 642 q0 7 3 14 q3 7 8 12.5 q5 5.5 11.5 8.5 q6.5 3 12.5 3 q7 0 13 -3 q6 -3 11 -8.5 q5 -5.5 8 -12.5 q3 -7 3 -14 l0 -642 q0 -7 -3 -14 q-3 -7 -8 -12.5 q-5 -5.5 -11 -8.5 q-6 -3 -13 -3 q-6 0 -12.5 3 q-6.5 3 -11.5 8.5 q-5 5.5 -8 12.5 q-3 7 -3 14 ZM151 402 q-6 8 -5.5 21.5 q0.5 13.5 7.5 21.5 q50 70 92 161.5 q42 91.5 71 190.5 q2 6 7 12 q5 6 11.5 10 q6.5 4 13 5.5 q6.5 1.5 12.5 -0.5 q6 -1 11.5 -5.5 q5.5 -4.5 8.5 -11 q3 -6.5 4 -14 q1 -7.5 -2 -14.5 q-28 -93 -66 -181 l0 -638 q0 -8 -3 -15 q-3 -7 -7.5 -12 q-4.5 -5 -10.5 -8.5 q-6 -3.5 -13 -3.5 q-7 0 -12.5 3.5 q-5.5 3.5 -11 8.5 q-5.5 5 -8 12 q-2.5 7 -2.5 14 l0 501 q-20 -33 -40 -64 q-6 -8 -13.5 -12.5 q-7.5 -4.5 -15.5 -4.5 q-8 0 -14.5 5 q-6.5 5 -11.5 14 q-1 1 -1 2 q0 1 -1 2 Z" /><glyph glyph-name="uni4EF6" unicode="&#x4ef6;" d="M417 304 q0 7 3 13 q3 6 8.5 11.5 q5.5 5.5 12 8 q6.5 2.5 12.5 2.5 l253 0 l0 224 l-137 0 q-8 0 -16 4 l-6 4 q-25 -70 -56 -126 q-4 -7 -10 -11.5 q-6 -4.5 -12.5 -7 q-6.5 -2.5 -13.5 -2 q-7 0.5 -13 3.5 q-12 7 -14 17.5 q-2 10.5 -2 15.5 q0 11 5 22 q33 54 56 123 q23 69 38 146 q2 6 6 12.5 q4 6.5 10 11 q6 4.5 13 6.5 q7 2 14 1 q6 -2 11.5 -6.5 q5.5 -4.5 9 -10.5 q3.5 -6 5 -13 q1.5 -7 -0.5 -15 q-11 -54 -26 -104 l139 0 l0 157 q0 6 2.5 13 q2.5 7 8 12 q5.5 5 11.5 8 q6 3 13 3 l1 0 q7 0 13.5 -3 q6.5 -3 11 -8 q4.5 -5 7.5 -12 q3 -7 3 -13 l0 -157 l194 0 q7 0 13.5 -3 q6.5 -3 12 -8 q5.5 -5 8.5 -11 q3 -6 3 -13 q0 -7 -3 -13.5 q-3 -6.5 -8.5 -11 q-5.5 -4.5 -12 -8 q-6.5 -3.5 -14.5 -3.5 l-193 0 l0 -224 l238 0 q7 0 13.5 -2.5 q6.5 -2.5 11.5 -8 q5 -5.5 8.5 -11.5 q3.5 -6 3.5 -13 q0 -6 -3.5 -12.5 q-3.5 -6.5 -8.5 -11.5 q-5 -5 -11.5 -8 q-6.5 -3 -13.5 -3 l-238 0 l0 -312 q0 -6 -3 -13 q-3 -7 -7.5 -12 q-4.5 -5 -11 -8 q-6.5 -3 -13.5 -3 l-1 0 q-7 0 -13 3 q-6 3 -11.5 8 q-5.5 5 -8 12 q-2.5 7 -2.5 13 l0 312 l-253 0 q-6 0 -12.5 3 q-6.5 3 -12 8 q-5.5 5 -8.5 11.5 q-3 6.5 -3 12.5 ZM150 410 q-6 10 -4.5 25 q1.5 15 9.5 24 q60 67 112.5 156.5 q52.5 89.5 89.5 187.5 q3 6 8 11 q5 5 11 8 q6 3 13 4.5 q7 1.5 13 -0.5 q7 -3 12 -7.5 q5 -4.5 8 -11.5 q3 -7 3.5 -14.5 q0.5 -7.5 -2.5 -14.5 q-37 -94 -86 -181 l0 -637 q0 -7 -2.5 -14 q-2.5 -7 -7.5 -12 q-5 -5 -11.5 -8 q-6.5 -3 -13 -3 q-6.5 0 -12.5 3 q-6 3 -10.5 8.5 q-4.5 5.5 -8 12 q-3.5 6.5 -3.5 13.5 l0 525 q-29 -43 -60 -81 q-6 -8 -14 -11 q-8 -3 -15.5 -2.5 q-7.5 0.5 -15 5 q-7.5 4.5 -11.5 11.5 q-1 1 -1 1.5 q0 0.5 -1 1.5 Z" /><glyph glyph-name="uni4EF7" unicode="&#x4ef7;" d="M825 -41 l0 455 q0 7 2.5 14 q2.5 7 8 12 q5.5 5 12 8 q6.5 3 12.5 3 l3 0 q7 0 13 -3 q6 -3 11 -8 q5 -5 8 -12 q3 -7 3 -14 l0 -455 q0 -6 -3 -13 q-3 -7 -8 -12 q-5 -5 -11 -8.5 q-6 -3.5 -13 -3.5 l-3 0 q-6 0 -12.5 3.5 q-6.5 3.5 -12 8.5 q-5.5 5 -8 12 q-2.5 7 -2.5 13 ZM415 -63 q-11 11 -9 28 q2 17 14 32 q42 37 66 77.5 q24 40.5 36 82 q12 41.5 15.5 81.5 q3.5 40 3.5 76 l0 99 q0 7 2.5 13.5 q2.5 6.5 8 12 q5.5 5.5 12 8.5 q6.5 3 12.5 3 l2 0 q7 0 13 -3 q6 -3 11 -8 q5 -5 8 -12 q3 -7 3 -13 l0 -101 q0 -40 -4.5 -87.5 q-4.5 -47.5 -20 -96.5 q-15.5 -49 -45 -97.5 q-29.5 -48.5 -78.5 -92.5 q-5 -5 -12 -8 q-7 -3 -14 -3 q-7 0 -13 2 q-6 2 -11 7 ZM379 451 q0 5 3.5 16.5 q3.5 11.5 19.5 21.5 q53 35 97 75 q44 40 80 82 q36 42 63 85 q27 43 46 83 q4 10 16.5 17.5 q12.5 7.5 23.5 4.5 l3 0 q9 -2 15 -6.5 q6 -4.5 9.5 -11.5 q3.5 -7 4 -15 q0.5 -8 -3.5 -16 q-2 -3 -4 -7 q4 -4 7 -8 q24 -39 55 -76.5 q31 -37.5 65.5 -73 q34.5 -35.5 72 -65.5 q37.5 -30 74.5 -53 q16 -11 18 -22 q2 -11 2 -15 q0 -12 -8 -22 q-3 -4 -9.5 -7 q-6.5 -3 -13 -3.5 q-6.5 -0.5 -13.5 0.5 q-7 1 -13 5 q-39 26 -78.5 60 q-39.5 34 -77 73 q-37.5 39 -71.5 82 q-24 31 -45 63 l-16 -26 q-31 -48 -71 -94 q-40 -46 -88.5 -89.5 q-48.5 -43.5 -105.5 -81.5 q-13 -8 -28 -6 q-15 2 -22 11 q-7 9 -7 19 ZM156 413 q-7 10 -5.5 25 q1.5 15 9.5 24 q59 67 110.5 156.5 q51.5 89.5 87.5 187.5 q2 6 7 11 q5 5 11.5 8.5 q6.5 3.5 13 4.5 q6.5 1 12.5 -1 q7 -2 12.5 -7 q5.5 -5 8 -12 q2.5 -7 3.5 -14.5 q1 -7.5 -3 -14.5 q-36 -94 -83 -181 l0 -641 q0 -8 -3 -14.5 q-3 -6.5 -8.5 -12 q-5.5 -5.5 -11.5 -8.5 q-6 -3 -13 -3 q-7 0 -13.5 3 q-6.5 3 -11.5 8.5 q-5 5.5 -8 12 q-3 6.5 -3 13.5 l0 523 q-26 -39 -54 -75 q-7 -7 -14.5 -10 q-7.5 -3 -15.5 -2.5 q-8 0.5 -15 5 q-7 4.5 -11 11.5 q-1 1 -1 1.5 q0 0.5 -1 1.5 Z" /><glyph glyph-name="uni4EFB" unicode="&#x4efb;" d="M406 363.5 q-3 6.5 -3 13 q0 6.5 3 12.5 q3 6 8.5 11 q5.5 5 12.5 7.5 q7 2.5 13 2.5 l262 0 l0 258 q0 6 2 11 q-43 -7 -86 -13 q-64 -10 -125 -18 q-13 -2 -26 5 q-13 7 -16 16 q-5 14 5.5 26.5 q10.5 12.5 28.5 15.5 q61 9 124.5 19.5 q63.5 10.5 123.5 22.5 q60 12 114 25.5 q54 13.5 95 27.5 q9 3 21 0 q12 -3 17 -9 l4 -5 q6 -7 8 -15.5 q2 -8.5 0 -16 q-2 -7.5 -8 -13.5 q-6 -6 -16 -9 q-48 -14 -106 -27 q-47 -10 -96 -20 q3 -4 5 -9 q3 -7 3 -14 l0 -258 l249 0 q6 0 13 -2.5 q7 -2.5 12.5 -7.5 q5.5 -5 8.5 -11 q3 -6 3 -12.5 q0 -6.5 -3 -13 q-3 -6.5 -8.5 -11.5 q-5.5 -5 -12.5 -8 q-7 -3 -13 -3 l-249 0 l0 -294 q0 -6 -3 -13 q-1 -3 -2 -5 l238 0 q6 0 13 -3 q7 -3 12 -7.5 q5 -4.5 8.5 -11 q3.5 -6.5 3.5 -13 q0 -6.5 -3.5 -12.5 q-3.5 -6 -8.5 -11 q-5 -5 -12 -8 q-7 -3 -13 -3 l-528 0 q-7 0 -14 3 q-7 3 -12 8 q-5 5 -8.5 11 q-3.5 6 -3.5 12.5 q0 6.5 3.5 13 q3.5 6.5 8.5 11 q5 4.5 12 7.5 q7 3 14 3 l228 0 q-1 2 -2 5 q-3 7 -3 13 l0 294 l-262 0 q-6 0 -13 3 q-7 3 -12.5 8 q-5.5 5 -8.5 11.5 ZM142 402 q-8 11 -5.5 26.5 q2.5 15.5 10.5 25.5 q70 68 131.5 159.5 q61.5 91.5 105.5 192.5 q2 6 7 11 q5 5 11.5 8.5 q6.5 3.5 13 4.5 q6.5 1 12.5 -1 l2 -1 q7 -2 12 -7 q5 -5 8 -11.5 q3 -6.5 3.5 -14.5 q0.5 -8 -3.5 -15 q-40 -92 -92 -176 l0 -645 q0 -7 -2.5 -14 q-2.5 -7 -8 -12.5 q-5.5 -5.5 -11.5 -8.5 q-6 -3 -13 -3 q-7 0 -13 3 q-6 3 -11 8.5 q-5 5.5 -8.5 12.5 q-3.5 7 -3.5 14 l0 540 q-42 -57 -87 -105 q-6 -7 -14 -10 q-8 -3 -15.5 -2.5 q-7.5 0.5 -15 5 q-7.5 4.5 -11.5 11.5 q-1 1 -1.5 2 q-0.5 1 -0.5 2 Z" /><glyph glyph-name="uni4EFD" unicode="&#x4efd;" d="M796 770 q-2 7 -0.5 14.5 q1.5 7.5 5 13.5 q3.5 6 9 10.5 q5.5 4.5 11.5 4.5 q12 3 24 -6 q12 -9 16 -22 q14 -51 31 -94.5 q17 -43.5 38 -80.5 q21 -37 47 -69.5 q26 -32.5 57 -62.5 q13 -12 15.5 -29 q2.5 -17 -6.5 -29 q-5 -5 -12 -8.5 q-7 -3.5 -15 -4 q-8 -0.5 -15.5 2.5 q-7.5 3 -14.5 9 q-34 34 -63 71.5 q-29 37.5 -52 80.5 q-23 43 -41 92 q-18 49 -34 107 ZM427 -38 q0 4 2.5 15.5 q2.5 11.5 17.5 23.5 q80 58 121 148.5 q41 90.5 55 216.5 q1 6 5 13 l0 1 l-96 0 q-7 0 -14 2.5 q-7 2.5 -12.5 7.5 q-5.5 5 -8.5 11 q-3 6 -3 12 q0 7 3 13 q3 6 8.5 10.5 q5.5 4.5 12.5 7 q7 2.5 14 2.5 l381 0 q7 0 14 -2.5 q7 -2.5 12.5 -7 q5.5 -4.5 8.5 -10.5 q3 -6 3 -13 q0 -4 -1 -7 q-5 -112 -11 -189 q-5 -80 -12 -132.5 q-7 -52.5 -16 -81.5 q-9 -29 -21 -43 q-13 -16 -28.5 -23 q-15.5 -7 -36.5 -8 q-14 -1 -27 -1.5 q-13 -0.5 -18 -0.5 q-18 0 -38 2 q-13 -1 -24 7 q-11 8 -14 18 q-4 16 5 27.5 q9 11.5 26 11.5 q1 0 3 0 q10 -1 17.5 -1 q7.5 0 14 -1 q6.5 -1 12.5 0 l13 0 q12 0 19.5 2.5 q7.5 2.5 14.5 10.5 q9 10 16 36.5 q7 26.5 13.5 77 q6.5 50.5 12.5 128.5 q4 57 7 134 l-188 0 l2 -6 q2 -7 1 -14 q-19 -148 -68.5 -251 q-49.5 -103 -143.5 -171 q-5 -4 -11.5 -5.5 q-6.5 -1.5 -13 -1 q-6.5 0.5 -12 3 q-5.5 2.5 -9.5 6.5 q-8 9 -8 21 ZM401.5 425.5 q-1.5 7.5 -0.5 15.5 q1 8 4.5 15.5 q3.5 7.5 8.5 12.5 q62 57 107.5 136 q45.5 79 74.5 174 q4 12 17 21 q13 9 26 6 q7 -1 12.5 -6 q5.5 -5 9 -11.5 q3.5 -6.5 5 -14 q1.5 -7.5 -1.5 -14.5 q-33 -106 -84 -195 q-51 -89 -119 -155 q-6 -6 -13.5 -9 q-7.5 -3 -15 -2 q-7.5 1 -14.5 4.5 q-7 3.5 -11 9.5 q-4 5 -5.5 12.5 ZM152 410 q-7 10 -5.5 25 q1.5 15 10.5 25 q57 67 107 156.5 q50 89.5 85 186.5 q2 6 7 11 q5 5 11.5 8.5 q6.5 3.5 13 4.5 q6.5 1 12.5 -1 q7 -2 12.5 -7 q5.5 -5 8.5 -11.5 q3 -6.5 3.5 -14.5 q0.5 -8 -2.5 -14 q-35 -94 -81 -180 l0 -640 q0 -8 -2.5 -14.5 q-2.5 -6.5 -8 -12 q-5.5 -5.5 -11.5 -8.5 q-6 -3 -13 -3 q-7 0 -13.5 3 q-6.5 3 -11.5 8.5 q-5 5.5 -8 12 q-3 6.5 -3 13.5 l0 520 q-26 -39 -53 -74 q-7 -8 -14 -11 q-7 -3 -15 -2.5 q-8 0.5 -15 5 q-7 4.5 -12 11.5 q-1 1 -1 1.5 q0 0.5 -1 1.5 Z" /><glyph glyph-name="uni4EFF" unicode="&#x4eff;" d="M699 783 q-2 7 -1.5 14.5 q0.5 7.5 4.5 14 q4 6.5 9.5 11.5 q5.5 5 12.5 6 l4 2 q11 2 23.5 -5 q12.5 -7 16.5 -18 q8 -21 16 -43.5 q8 -22.5 13 -41.5 q2 -6 1 -13 q-1 -7 -4.5 -13.5 q-3.5 -6.5 -8.5 -11 q-5 -4.5 -11 -6.5 l-4 -1 q-7 -2 -14 -0.5 q-7 1.5 -13.5 6 q-6.5 4.5 -11 10.5 q-4.5 6 -7.5 13 q-4 17 -10.5 36.5 q-6.5 19.5 -14.5 39.5 ZM415 -57 q-12 11 -10 28 q2 17 16 31 q57 50 90.5 115.5 q33.5 65.5 52 142 q18.5 76.5 25 161 q6.5 84.5 8.5 169.5 l0 3 l-137 0 q-7 0 -13.5 3 q-6.5 3 -11.5 8 q-5 5 -8.5 11 q-3.5 6 -3.5 13 q0 7 3.5 13 q3.5 6 8.5 11.5 q5 5.5 11.5 8 q6.5 2.5 13.5 2.5 l563 0 q6 0 13 -2.5 q7 -2.5 12 -8 q5 -5.5 8 -11.5 q3 -6 3 -13 q0 -7 -3 -13 q-3 -6 -8 -11 q-5 -5 -12 -8 q-7 -3 -13 -3 l-351 0 l0 -5 q-3 -75 -9 -149 q1 0 3 1 q7 3 14 3 l268 0 q8 0 14.5 -3 q6.5 -3 11.5 -8 q4 -2 6 -6 l2 -2 q2 -3 2 -5 q2 -5 2 -9 q0 -5 -1 -9 q-5 -109 -11 -186 q-5 -79 -12 -130.5 q-7 -51.5 -15 -80.5 q-8 -29 -20 -42 q-15 -17 -31.5 -23.5 q-16.5 -6.5 -40.5 -8.5 q-16 -1 -43.5 -1 q-27.5 0 -57.5 1 q-12 1 -23.5 9 q-11.5 8 -14.5 17 q-4 17 7.5 28 q11.5 11 31.5 11 q2 0 4 0 q12 0 21 -0.5 q9 -0.5 16.5 -1 q7.5 -0.5 14.5 -0.5 l14 0 q13 0 20.5 1.5 q7.5 1.5 14.5 8.5 l5 5 q9 11 15.5 37.5 q6.5 26.5 12.5 75.5 q6 49 11 125 q3 55 6 130 l-230 0 q-7 0 -14 2 l-8 4 q-8 -83 -28 -158 q-21 -84 -60 -155.5 q-39 -71.5 -105 -124.5 q-5 -5 -12 -7.5 q-7 -2.5 -14 -2.5 q-7 0 -13.5 2 q-6.5 2 -10.5 7 ZM151 412 q-7 11 -5.5 26 q1.5 15 9.5 24 q60 67 111.5 156.5 q51.5 89.5 88.5 186.5 q3 6 8 11 q5 5 11.5 8 q6.5 3 13.5 4.5 q7 1.5 13 -0.5 q7 -2 12 -7 q5 -5 8 -11.5 q3 -6.5 3.5 -14.5 q0.5 -8 -2.5 -15 q-38 -95 -87 -185 l0 -634 q0 -8 -2.5 -14.5 q-2.5 -6.5 -8 -12 q-5.5 -5.5 -11.5 -8.5 q-6 -3 -12.5 -3 q-6.5 0 -13 3 q-6.5 3 -11 8.5 q-4.5 5.5 -8 12 q-3.5 6.5 -3.5 13.5 l0 521 q-27 -40 -56 -76 q-6 -7 -14 -10.5 q-8 -3.5 -15.5 -3 q-7.5 0.5 -14.5 5 q-7 4.5 -12 11.5 q0 1 -0.5 2.5 q-0.5 1.5 -1.5 1.5 Z" /><glyph glyph-name="uni4F01" unicode="&#x4f01;" d="M180 -16 q0 6 3 11.5 q3 5.5 8.5 10.5 q5.5 5 12.5 7.5 q7 2.5 13 2.5 l92 0 q-1 3 -1 7 l0 328 q0 8 3 14.5 q3 6.5 8 12 q5 5.5 11.5 8.5 q6.5 3 13 3 q6.5 0 13 -3 q6.5 -3 11.5 -8.5 q5 -5.5 7.5 -12 q2.5 -6.5 2.5 -14.5 l0 -335 l194 0 l0 513 q0 7 2.5 14 q2.5 7 8 12.5 q5.5 5.5 11.5 8.5 q6 3 13 3 l4 0 q7 0 13 -3 q6 -3 11 -8.5 q5 -5.5 8 -12.5 q3 -7 3 -14 l0 -194 l255 0 q7 0 14 -2.5 q7 -2.5 12 -7.5 q5 -5 8 -10.5 q3 -5.5 3 -12 q0 -6.5 -3 -12.5 q-3 -6 -8 -10.5 q-5 -4.5 -12 -7 q-7 -2.5 -14 -2.5 l-255 0 l0 -254 l349 0 q7 0 13.5 -2.5 q6.5 -2.5 12 -7.5 q5.5 -5 8.5 -10.5 q3 -5.5 3 -12 q0 -6.5 -3 -12.5 q-3 -6 -8.5 -11 q-5.5 -5 -12 -7.5 q-6.5 -2.5 -13.5 -2.5 l-778 0 q-6 0 -13 2.5 q-7 2.5 -12.5 7.5 q-5.5 5 -8.5 11 q-3 6 -3 13 ZM159 467 q0 5 3.5 16 q3.5 11 21.5 20 q59 27 116 62.5 q57 35.5 108 76.5 q51 41 95 86.5 q44 45.5 78 94.5 q7 9 21 13.5 q14 4.5 25 -0.5 q7 -3 11.5 -9.5 q4.5 -6.5 6 -14 q1.5 -7.5 -0.5 -15.5 q-1 -6 -5 -11 q5 -3 9 -7 q80 -95 173.5 -160.5 q93.5 -65.5 197.5 -116.5 q20 -8 23.5 -19 q3.5 -11 3.5 -17 q0 -10 -6 -20 q-3 -4 -8.5 -7.5 q-5.5 -3.5 -12.5 -4.5 q-7 -1 -14 -0.5 q-7 0.5 -13 2.5 q-107 55 -204 125.5 q-97 70.5 -185 173.5 q-1 1 -1 2 q-24 -29 -50 -57 q-48 -49 -102 -93.5 q-54 -44.5 -114 -82.5 q-60 -38 -122 -68 q-6 -3 -12.5 -3.5 q-6.5 -0.5 -13 1 q-6.5 1.5 -12 5 q-5.5 3.5 -9.5 7.5 q-8 10 -8 21 Z" /><glyph glyph-name="uni4F11" unicode="&#x4f11;" d="M392.5 85.5 q-2.5 7.5 -1.5 15.5 q1 8 4.5 16 q3.5 8 9.5 14 q37 34 73 78.5 q36 44.5 68 95.5 q32 51 60 107 q25 51 45 101 l-210 0 q-6 0 -13 3.5 q-7 3.5 -12 8 q-5 4.5 -8.5 11 q-3.5 6.5 -3.5 13 q0 6.5 3.5 12.5 q3.5 6 8.5 11.5 q5 5.5 12 8 q7 2.5 13 2.5 l248 0 l0 205 q0 7 3 13.5 q3 6.5 8.5 12 q5.5 5.5 11.5 8.5 q6 3 13 3 q7 0 13 -3 q6 -3 11 -8.5 q5 -5.5 8 -12 q3 -6.5 3 -13.5 l0 -205 l256 0 q6 0 13 -2.5 q7 -2.5 12 -8 q5 -5.5 8.5 -11.5 q3.5 -6 3.5 -12.5 q0 -6.5 -3.5 -13 q-3.5 -6.5 -8.5 -11 q-5 -4.5 -12 -8 q-7 -3.5 -13 -3.5 l-213 0 q19 -49 45 -98 q28 -55 60 -105.5 q32 -50.5 67.5 -94.5 q35.5 -44 70.5 -78 q11 -13 12 -30 q1 -17 -9 -27 q-5 -5 -12.5 -8 q-7.5 -3 -15 -3 q-7.5 0 -14.5 3.5 q-7 3.5 -13 9.5 q-36 37 -72 85.5 q-36 48.5 -69 104 q-33 55.5 -62 115.5 q-17 35 -31 70 l0 -499 q0 -7 -3 -14 q-3 -7 -8 -12 q-5 -5 -11 -8.5 q-6 -3.5 -13 -3.5 q-7 0 -13 3.5 q-6 3.5 -11.5 8.5 q-5.5 5 -8.5 12 q-3 7 -3 14 l0 479 q-12 -29 -25 -57 q-30 -61 -64 -117 q-34 -56 -71.5 -104.5 q-37.5 -48.5 -75.5 -85.5 q-6 -6 -13 -9 q-7 -3 -14 -3 q-7 0 -14 3 q-7 3 -12 8 q-5 6 -7.5 13.5 ZM140 402 q-8 10 -5.5 25.5 q2.5 15.5 11.5 24.5 q71 67 132.5 157.5 q61.5 90.5 104.5 191.5 q5 12 19 19 q14 7 26 3 l3 0 q7 -3 12 -8 q5 -5 7.5 -11.5 q2.5 -6.5 3 -14.5 q0.5 -8 -3.5 -15 q-41 -94 -94 -180 l0 -633 q0 -8 -3 -14.5 q-3 -6.5 -8 -12 q-5 -5.5 -11 -8.5 q-6 -3 -13 -3 q-7 0 -13 3 q-6 3 -11.5 8.5 q-5.5 5.5 -8 12.5 q-2.5 7 -2.5 14 l0 532 q-43 -55 -88 -102 q-6 -7 -14 -9.5 q-8 -2.5 -15.5 -1.5 q-7.5 1 -14.5 5 q-7 4 -12 11 l-2 6 Z" /><glyph glyph-name="uni4F17" unicode="&#x4f17;" d="M538 -33 q0 19 15 34 q83 73 124.5 182.5 q41.5 109.5 57.5 254.5 q1 7 5.5 13.5 q4.5 6.5 10 11 q5.5 4.5 12 7.5 q6.5 3 12.5 2 l1 0 q7 0 13 -4.5 q6 -4.5 10.5 -10 q4.5 -5.5 6.5 -13 q2 -7.5 1 -14.5 q-7 -53 -16 -102 q2 -2 4 -3 q5 -6 9 -15 q13 -38 30.5 -78.5 q17.5 -40.5 42.5 -78.5 q25 -38 56.5 -72 q31.5 -34 71.5 -61 q15 -12 18 -24 q3 -12 3 -16 q0 -13 -9 -23 q-3 -5 -9 -8 q-6 -3 -13 -4 q-7 -1 -13.5 0.5 q-6.5 1.5 -12.5 5.5 q-46 32 -82 74 q-36 42 -64 87.5 q-28 45.5 -48 92.5 q-4 11 -9 21 q-12 -42 -28 -80 q-25 -61 -59.5 -111 q-34.5 -50 -79.5 -91 q-4 -5 -10 -7.5 q-6 -2.5 -12.5 -3 q-6.5 -0.5 -13 1 q-6.5 1.5 -11.5 5.5 q-14 9 -14 27 ZM174 465 q0 5 3 16 q3 11 22 20 q125 48 223 128 q98 80 156 185 q7 11 22 17 q15 6 26 1 l3 -1 q7 -3 11.5 -8.5 q4.5 -5.5 7 -12 q2.5 -6.5 2 -14.5 q-0.5 -8 -4.5 -14 q-4 -8 -9 -15 q6 -4 9 -9 q29 -40 69 -78 q40 -38 86.5 -71 q46.5 -33 98.5 -60.5 q52 -27.5 106 -45.5 q20 -8 24 -19.5 q4 -11.5 4 -17.5 q0 -12 -8 -23 q-7 -8 -20 -12.5 q-13 -4.5 -24 -0.5 q-57 21 -112 51.5 q-55 30.5 -105 68.5 q-50 38 -93 82 q-39 40 -69 82 q-55 -77 -130 -140 q-107 -90 -243 -146 q-5 -3 -12 -3 q-7 0 -13.5 2 q-6.5 2 -12 5.5 q-5.5 3.5 -9.5 8.5 q-8 12 -8 24 ZM177.5 -40.5 q-3.5 7.5 -3.5 15.5 q0 8 3 17 q3 9 10 16 q80 75 124.5 184.5 q44.5 109.5 63.5 251.5 q0 7 4 13.5 q4 6.5 10 11 q6 4.5 12.5 7 q6.5 2.5 12.5 1.5 l1 0 q7 0 13 -4 q6 -4 10.5 -10 q4.5 -6 6.5 -13 q2 -7 1 -14 q-9 -66 -24 -125 q9 -2 14 -7 q21 -17 42.5 -35.5 q21.5 -18.5 42 -36.5 q20.5 -18 38.5 -36 l33 -33 q4 -4 6 -10.5 q2 -6.5 1.5 -13 q-0.5 -6.5 -2.5 -12.5 q-2 -6 -6 -10 q-6 -6 -13 -8.5 q-7 -2.5 -15 -2 q-8 0.5 -15.5 4 q-7.5 3.5 -13.5 10.5 q-13 14 -29 30.5 q-16 16.5 -34 33.5 q-18 17 -37 34 q-15 13 -29 25 q-14 -46 -32 -88 q-49 -120 -137 -204 q-4 -5 -10.5 -7.5 q-6.5 -2.5 -13.5 -3.5 q-7 -1 -13.5 0.5 q-6.5 1.5 -11.5 5.5 q-6 5 -9.5 12.5 Z" /><glyph glyph-name="uni4F18" unicode="&#x4f18;" d="M821 759.5 q-3 7.5 -3 15 q0 7.5 2.5 14 q2.5 6.5 7.5 10.5 q8 5 21 3 q13 -2 21 -10 q26 -23 51.5 -50 q25.5 -27 44.5 -49 q8 -10 7.5 -24.5 q-0.5 -14.5 -9.5 -22.5 q-6 -3 -13 -4.5 q-7 -1.5 -14.5 0.5 q-7.5 2 -14 6 q-6.5 4 -11.5 10 q-16 19 -37.5 43 q-21.5 24 -43.5 45 q-6 6 -9 13.5 ZM738 51 l0 365 q0 7 3 13.5 q3 6.5 8 12 q5 5.5 11.5 8.5 q6.5 3 13.5 3 q7 0 13 -3 q6 -3 11 -8.5 q5 -5.5 7.5 -12 q2.5 -6.5 2.5 -13.5 l0 -365 q0 -23 6.5 -30 q6.5 -7 29.5 -7 l105 0 q10 0 16 4 q6 4 10 14 q4 10 6 28.5 q2 18.5 3 47.5 q3 23 13 32 q10 9 19 9 q6 0 13 -3 q9 -3 15 -14.5 q6 -11.5 5 -22.5 q-3 -47 -8 -78 q-5 -31 -15.5 -49.5 q-10.5 -18.5 -27 -26 q-16.5 -7.5 -43.5 -7.5 l-119 0 q-29 0 -48 5 q-19 5 -30 17 q-11 12 -15.5 31.5 q-4.5 19.5 -4.5 49.5 ZM390 568 q0 6 3.5 12 q3.5 6 8.5 11 q5 5 12 7.5 q7 2.5 14 2.5 l191 0 q4 95 4 189 q0 7 3 13.5 q3 6.5 8 12 q5 5.5 11.5 8.5 q6.5 3 13.5 3 q7 0 13 -3 q6 -3 11.5 -8.5 q5.5 -5.5 8.5 -12.5 q3 -7 3 -14 q-1 -93 -5 -188 l322 0 q7 0 14 -2.5 q7 -2.5 12.5 -7.5 q5.5 -5 8.5 -11 q3 -6 3 -12.5 q0 -6.5 -3 -12.5 q-3 -6 -8.5 -11 q-5.5 -5 -12.5 -8 q-7 -3 -14 -3 l-326 0 q-6 -111 -28 -215 q-24 -111 -71 -206 q-47 -95 -129 -164 q-5 -4 -12 -6 q-7 -2 -14 -2 q-7 0 -13 2.5 q-6 2.5 -10 7.5 q-11 11 -9 28.5 q2 17.5 17 31.5 q73 63 114.5 152 q41.5 89 61.5 192 q17 86 23 179 l-188 0 q-7 0 -14 3 q-7 3 -12 8 q-5 5 -8.5 11 q-3.5 6 -3.5 13 ZM155 411 q-6 11 -4.5 25.5 q1.5 14.5 9.5 23.5 q60 67 112 156.5 q52 89.5 89 187.5 q3 6 8 11 q5 5 11 8 q6 3 13 4.5 q7 1.5 13 -0.5 q7 -2 12 -7 q5 -5 7.5 -11.5 q2.5 -6.5 3.5 -14.5 q1 -8 -2 -14 q-40 -100 -92 -193 l0 -629 q0 -7 -2.5 -14 q-2.5 -7 -7.5 -12 q-5 -5 -11 -8 q-6 -3 -13 -3 q-7 0 -13 3 q-6 3 -10.5 8.5 q-4.5 5.5 -8 12 q-3.5 6.5 -3.5 13.5 l0 518 q-26 -37 -53 -71 q-6 -7 -14 -10.5 q-8 -3.5 -15.5 -3 q-7.5 0.5 -15 5 q-7.5 4.5 -11.5 12.5 q-1 0 -1 1 q0 1 -1 1 Z" /><glyph glyph-name="uni4F19" unicode="&#x4f19;" d="M887 378 q-3 6 -3 13.5 q0 7.5 2 14.5 q10 22 21.5 48 q11.5 26 22.5 53 q11 27 21 54.5 q10 27.5 18 51.5 q2 8 7 14 q5 6 11.5 10 q6.5 4 13.5 5.5 q7 1.5 14 -0.5 l4 0 q7 -2 12 -7.5 q5 -5.5 8.5 -12 q3.5 -6.5 4.5 -14 q1 -7.5 -2 -14.5 q-21 -55 -45.5 -112 q-24.5 -57 -47.5 -102 q-2 -6 -7.5 -11 q-5.5 -5 -11.5 -8 q-6 -3 -12 -3.5 q-6 -0.5 -12 1.5 q-6 2 -11 7.5 q-5 5.5 -8 11.5 ZM442.5 365 q-2.5 7 -3 15 q-0.5 8 2.5 15 q20 44 34 101 q14 57 22 113 q1 7 5 13.5 q4 6.5 10 11.5 q6 5 12.5 7.5 q6.5 2.5 13.5 0.5 q6 0 11 -4 q5 -4 9 -9.5 q4 -5.5 6.5 -12 q2.5 -6.5 1.5 -12.5 q-7 -60 -22 -124 q-15 -64 -37 -115 q-2 -6 -7 -11.5 q-5 -5.5 -11.5 -8.5 q-6.5 -3 -13.5 -3.5 q-7 -0.5 -13 2.5 l-2 0 q-7 3 -11.5 8.5 q-4.5 5.5 -7 12.5 ZM414 -34 q0 5 3 16 q3 11 20 22 q97 50 150 123.5 q53 73.5 76.5 171 q23.5 97.5 28 220.5 q4.5 123 4.5 274 q0 8 2.5 14.5 q2.5 6.5 8 12 q5.5 5.5 11.5 8.5 q6 3 13 3 l5 0 q7 0 13 -3 q6 -3 11 -8.5 q5 -5.5 8 -12.5 q3 -7 3 -13 q0 -162 -6 -295 q-2 -34 -5 -67 q3 -5 4 -11 q12 -76 31.5 -140 q19.5 -64 50 -115.5 q30.5 -51.5 73.5 -90.5 q43 -39 101 -64 q18 -10 21.5 -21.5 q3.5 -11.5 3.5 -17.5 q0 -11 -7 -22 q-3 -5 -8.5 -8.5 q-5.5 -3.5 -12 -5 q-6.5 -1.5 -13.5 -1 q-7 0.5 -12 3.5 q-67 29 -116 73.5 q-49 44.5 -83.5 103.5 q-34.5 59 -57.5 133 l-4 14 q0 -2 -1 -4 q-29 -106 -89.5 -186.5 q-60.5 -80.5 -170.5 -134.5 q-6 -3 -13 -4 q-7 -1 -13.5 0 q-6.5 1 -12 4.5 q-5.5 3.5 -9.5 7.5 q-8 9 -8 20 ZM152 415 q-6 11 -4.5 25.5 q1.5 14.5 10.5 23.5 q61 67 113.5 155.5 q52.5 88.5 90.5 185.5 q3 6 8 11 q5 5 11 8.5 q6 3.5 13 4 q7 0.5 14 -1.5 q7 -2 12 -7 q5 -5 8 -11.5 q3 -6.5 3.5 -14.5 q0.5 -8 -2.5 -14 q-37 -91 -84 -176 l0 -644 q0 -7 -2.5 -14 q-2.5 -7 -8 -12.5 q-5.5 -5.5 -11.5 -8.5 q-6 -3 -13 -3 l-3 0 q-7 0 -13 3 q-6 3 -11 8.5 q-5 5.5 -8 12 q-3 6.5 -3 13.5 l0 527 q-30 -42 -61 -79 q-6 -8 -14 -11.5 q-8 -3.5 -16 -2.5 q-8 1 -15 5.5 q-7 4.5 -11 12.5 q-1 1 -1.5 2 q-0.5 1 -1.5 2 Z" /><glyph glyph-name="uni4F1A" unicode="&#x4f1a;" d="M366 483 q-3 6 -3 12 q0 6 3 12 q3 6 8.5 11 q5.5 5 12.5 8 q7 3 15 3 l401 0 q8 0 14.5 -3 q6.5 -3 12 -8 q5.5 -5 8.5 -11 q3 -6 3 -12 q0 -6 -3 -12 q-3 -6 -8.5 -11 q-5.5 -5 -12 -8 q-6.5 -3 -14.5 -3 l-401 0 q-8 0 -15 3 q-7 3 -12.5 8 q-5.5 5 -8.5 11 ZM189 301 q0 7 3 13 q3 6 8.5 11.5 q5.5 5.5 12.5 8 q7 2.5 13 2.5 l754 0 q7 0 13.5 -2.5 q6.5 -2.5 12 -8 q5.5 -5.5 8.5 -11.5 q3 -6 3 -12.5 q0 -6.5 -3 -13 q-3 -6.5 -8.5 -11.5 q-5.5 -5 -12 -8 q-6.5 -3 -13.5 -3 l-416 0 q0 -4 -1 -9 q-1 -8 -6 -14 q-57 -72 -119 -139 q-35 -38 -71 -71 l464 36 q-16 20 -34 39 q-24 26 -48 50 q-7 7 -9.5 15 q-2.5 8 -2 15.5 q0.5 7.5 5 14.5 q4.5 7 11.5 11 q8 4 19.5 2 q11.5 -2 18.5 -8 q27 -25 54 -52.5 q27 -27.5 52 -56 q25 -28.5 47 -56 q22 -27.5 38 -52.5 q4 -5 5 -12 q1 -7 -0.5 -14 q-1.5 -7 -5 -13 q-3.5 -6 -9.5 -9 l-1 -1 q-6 -4 -13.5 -4.5 q-7.5 -0.5 -15 1.5 q-7.5 2 -14 6 q-6.5 4 -11.5 10 q-14 23 -34 49 q-2 2 -3 4 q-6 -2 -13 -3 q-144 -12 -242 -20.5 q-98 -8.5 -162.5 -14.5 q-64.5 -6 -101 -10 q-36.5 -4 -57.5 -7 q-9 -1 -18 1 q-9 2 -15 6 q-4 2 -6 4 l-1 0 q-7 2 -12.5 6.5 q-5.5 4.5 -7.5 11.5 q-2 7 -1 14.5 q1 7.5 5.5 15.5 q4.5 8 10.5 14.5 q6 6.5 13 12.5 q3 3 4.5 3.5 q1.5 0.5 4 3.5 q2.5 3 8.5 8 q6 5 18 16 q11 10 31.5 32 q20.5 22 46 51 q25.5 29 53.5 64 q20 24 38 49 l-251 0 q-6 0 -13 3 q-7 3 -12.5 8 q-5.5 5 -8.5 11.5 q-3 6.5 -3 12.5 ZM170 479 q0 5 3 16 q3 11 22 21 q125 59 227 136 q102 77 165 165 q7 7 20.5 11 q13.5 4 23.5 -1 l1 0 q8 -3 13 -9.5 q5 -6.5 7 -14.5 q2 -8 0.5 -15.5 q-1.5 -7.5 -7.5 -14.5 l-1 -1 q29 -31 67 -64 q40 -34 88 -67 q48 -33 101.5 -63 q53.5 -30 109.5 -53 q19 -7 22.5 -18.5 q3.5 -11.5 3.5 -16.5 q0 -12 -8 -23 q-7 -8 -21.5 -12 q-14.5 -4 -24.5 1 q-57 25 -113.5 58.5 q-56.5 33.5 -107 70.5 q-50.5 37 -93.5 75 q-36 32 -65 62 q-61 -69 -139 -129 q-107 -83 -238 -147 q-6 -2 -12.5 -2.5 q-6.5 -0.5 -13.5 1 q-7 1.5 -12.5 4.5 q-5.5 3 -9.5 7 q-8 11 -8 23 Z" /><glyph glyph-name="uni4F1F" unicode="&#x4f1f;" d="M404 305 q0 6 3 12 q3 6 8.5 10.5 q5.5 4.5 12 7.5 q6.5 3 13.5 3 l239 0 l0 119 l-183 0 q-7 0 -13.5 3 q-6.5 3 -12 7.5 q-5.5 4.5 -8.5 10.5 q-3 6 -3 13 q0 6 3 12 q3 6 8.5 11 q5.5 5 12 7.5 q6.5 2.5 13.5 2.5 l183 0 l0 114 l-207 0 q-7 0 -14 3 q-7 3 -12.5 8 q-5.5 5 -8.5 11 q-3 6 -3 12 q0 6 3 12 q3 6 8.5 11 q5.5 5 12.5 7.5 q7 2.5 14 2.5 l207 0 l0 96 q0 7 3.5 14 q3.5 7 8 12 q4.5 5 11 8.5 q6.5 3.5 13 3.5 q6.5 0 12.5 -3.5 q6 -3.5 11 -8.5 q5 -5 8 -12 q3 -7 3 -14 l0 -96 l232 0 q7 0 14 -2.5 q7 -2.5 12 -7.5 q5 -5 8.5 -11 q3.5 -6 3.5 -12 q0 -6 -3.5 -12 q-3.5 -6 -8.5 -11 q-5 -5 -12 -8 q-7 -3 -14 -3 l-232 0 l0 -114 l202 0 q7 0 14 -2.5 q7 -2.5 12 -7.5 q5 -5 8.5 -11 q3.5 -6 3.5 -12 q0 -7 -3.5 -13 q-3.5 -6 -8.5 -10.5 q-5 -4.5 -12 -7.5 q-7 -3 -14 -3 l-202 0 l0 -119 l257 0 q5 0 10 -2 q1 0 2 -1 q7 -2 12 -5.5 q5 -3.5 8 -8.5 q2 -4 3 -7 q2 -5 2 -9 q0 -6 -3 -12 q-4 -59 -8 -103 q-4 -48 -9.5 -80.5 q-5.5 -32.5 -12.5 -51.5 q-7 -19 -15 -28 q-10 -12 -22 -17.5 q-12 -5.5 -30 -6.5 q-9 -2 -22.5 -1.5 q-13.5 0.5 -30.5 0.5 q-6 0 -12 2 q-6 2 -11 5.5 q-5 3.5 -8.5 7.5 q-3.5 4 -4.5 9 q-4 16 2 27 q6 11 20 10 q13 -1 21 -1 l17 0 q9 0 15 2 q6 2 12 7 q5 7 10 23 q5 16 9.5 46 q4.5 30 8.5 75 q2 23 4 52 l-224 0 l0 -311 q0 -7 -3 -14 q-3 -7 -8 -12 q-5 -5 -11 -8.5 q-6 -3.5 -12.5 -3.5 q-6.5 0 -13 3.5 q-6.5 3.5 -11 8.5 q-4.5 5 -8 12 q-3.5 7 -3.5 14 l0 311 l-239 0 q-7 0 -13.5 3 q-6.5 3 -12 8 q-5.5 5 -8.5 11 q-3 6 -3 13 ZM158 410 q-6 10 -5 25 q1 15 9 24 q60 67 112 156.5 q52 89.5 90 186.5 q2 7 7 12 q5 5 11.5 8 q6.5 3 12.5 4.5 q6 1.5 13 -0.5 q7 -3 12 -7.5 q5 -4.5 7.5 -11.5 q2.5 -7 3.5 -14.5 q1 -7.5 -2 -14.5 q-38 -96 -87 -186 l0 -634 q0 -7 -3 -14 q-3 -7 -8 -12.5 q-5 -5.5 -11 -8.5 q-6 -3 -13 -3 q-7 0 -12.5 3 q-5.5 3 -10.5 8.5 q-5 5.5 -8 12.5 q-3 7 -3 14 l0 522 q-28 -40 -58 -76 q-6 -7 -13.5 -10.5 q-7.5 -3.5 -15 -3 q-7.5 0.5 -15 5 q-7.5 4.5 -11.5 11.5 l-1 2 q-1 0 -1 1 Z" /><glyph glyph-name="uni4F20" unicode="&#x4f20;" d="M391 499 q0 7 3 13 q3 6 8 11 q5 5 12 7.5 q7 2.5 14 2.5 l166 0 q3 11 7 23 l28 100 l-144 0 q-7 0 -13.5 3 q-6.5 3 -12 7.5 q-5.5 4.5 -8.5 10.5 q-3 6 -3 12 q0 6 3 12 q3 6 8.5 11 q5.5 5 12 7.5 q6.5 2.5 13.5 2.5 l162 0 q11 42 20 80 q2 6 6 11.5 q4 5.5 9.5 9.5 q5.5 4 12 6 q6.5 2 12.5 1 q7 -1 13 -5.5 q6 -4.5 10 -10.5 q4 -6 5.5 -14 q1.5 -8 -0.5 -15 q-8 -31 -16 -63 l251 0 q7 0 13.5 -2.5 q6.5 -2.5 12 -7.5 q5.5 -5 8.5 -11 q3 -6 3 -12 q0 -6 -3 -12 q-3 -6 -8.5 -10.5 q-5.5 -4.5 -12 -7.5 q-6.5 -3 -13.5 -3 l-269 0 q-17 -62 -34 -123 l349 0 q6 0 13 -2.5 q7 -2.5 12 -7.5 q5 -5 8.5 -11 q3.5 -6 3.5 -13 q0 -6 -3.5 -12 q-3.5 -6 -8.5 -10.5 q-5 -4.5 -12 -7.5 q-7 -3 -13 -3 l-369 0 q-8 -30 -17 -58 q-10 -34 -20 -64 l297 0 q7 0 14 -3 q1 1 3 1 q2 2 6 2 q2 0 3.5 0.5 q1.5 0.5 3.5 0.5 q4 1 10 0 q6 -1 11 -4 l2 -2 q7 -4 11 -11 q4 -7 5 -14.5 q1 -7.5 -1 -15 q-2 -7.5 -8 -13.5 q-22 -27 -47.5 -56 q-25.5 -29 -52.5 -59.5 q-27 -30.5 -54 -60.5 q-20 -21 -39 -42 q19 -15 37 -29 q25 -20 44 -38 q6 -5 9 -12 q3 -7 3.5 -14.5 q0.5 -7.5 -2 -14.5 q-2.5 -7 -8.5 -12 q-4 -5 -11.5 -7.5 q-7.5 -2.5 -14.5 -2.5 q-7 0 -14.5 2.5 q-7.5 2.5 -12.5 6.5 q-18 18 -40.5 37.5 q-22.5 19.5 -48 39.5 q-25.5 20 -51.5 39.5 q-26 19.5 -53 37.5 q-8 5 -12 12 q-4 7 -5 15 q-1 8 2 15.5 q3 7.5 9 12.5 q7 5 18.5 6 q11.5 1 19.5 -3 q29 -18 58 -39 q10 -6 19 -13 q25 26 50 54 q29 32 55 63 q25 28 47 54 l-262 0 q-7 0 -14 2 q-5 3 -10 7 l-2 -2 q-10 -7 -20 -7 l-3 0 q-9 0 -16.5 4 q-7.5 4 -12 10.5 q-4.5 6.5 -5.5 15 q-1 8.5 1 17.5 q17 49 36 109 q5 16 10 33 l-146 0 q-7 0 -14 3 q-7 3 -12 7.5 q-5 4.5 -8 10.5 q-3 6 -3 12 ZM135 410 q-6 10 -4 25 q2 15 10 25 q64 67 119.5 156 q55.5 89 94.5 187 q2 6 7.5 11 q5.5 5 11.5 8 q6 3 13 4.5 q7 1.5 12 -0.5 q7 -3 12 -7.5 q5 -4.5 8.5 -11.5 q3.5 -7 4 -14.5 q0.5 -7.5 -2.5 -14.5 q-39 -94 -90 -181 l0 -636 q0 -8 -3 -14.5 q-3 -6.5 -8 -12 q-5 -5.5 -11 -8.5 q-6 -3 -12.5 -3 q-6.5 0 -13 3 q-6.5 3 -11.5 8.5 q-5 5.5 -8 12 q-3 6.5 -3 13.5 l0 530 q-33 -46 -69 -87 q-6 -7 -13.5 -10 q-7.5 -3 -15.5 -2.5 q-8 0.5 -15 5 q-7 4.5 -11 11.5 q-1 1 -1 1.5 q0 0.5 -1 1.5 Z" /><glyph glyph-name="uni4F24" unicode="&#x4f24;" d="M422 505 q-3 7 -2.5 15 q0.5 8 3 16.5 q2.5 8.5 8.5 15.5 q46 49 83 114 q37 65 63 138 q3 6 7.5 11 q4.5 5 10.5 9 q6 4 13 5.5 q7 1.5 12 0.5 q7 -2 13 -6.5 q6 -4.5 9 -11.5 q3 -7 4 -14.5 q1 -7.5 -2 -14.5 q-17 -48 -39 -93 l386 0 q7 0 14 -2.5 q7 -2.5 12 -7.5 q5 -5 8.5 -11 q3.5 -6 3.5 -12.5 q0 -6.5 -3.5 -12.5 q-3.5 -6 -8.5 -11 q-5 -5 -12 -8 q-7 -3 -14 -3 l-405 0 q-7 0 -14 3 q-1 0 -1 1 q-41 -71 -89 -125 q-5 -6 -11 -9 q-6 -3 -13.5 -4 q-7.5 -1 -14.5 0 q-7 1 -11 5 q-7 5 -10 12 ZM419 -40 q0 5 3.5 16 q3.5 11 19.5 23 q69 42 110.5 101 q41.5 59 64.5 129 q20 61 29 129 l-166 0 q-7 0 -13.5 3 q-6.5 3 -12 7.5 q-5.5 4.5 -8.5 10.5 q-3 6 -3 13 q0 6 3 12 q3 6 8.5 11 q5.5 5 12 7.5 q6.5 2.5 13.5 2.5 l173 0 q5 55 8 112 q0 6 3 13 q3 7 8.5 12 q5.5 5 11.5 8 q6 3 13 3 q7 0 14 -3 q7 -3 11.5 -8.5 q4.5 -5.5 7.5 -12.5 q3 -7 3 -15 q-3 -55 -9 -109 l245 0 q7 0 14 -2 q2 -1 5 -3 l6 -4 q5 -4 8 -9 q3 -4 3 -9 q1 -3 1 -6 q0 -4 -1 -7 q-3 -102 -7 -174 q-4 -74 -9.5 -122.5 q-5.5 -48.5 -13 -75.5 q-7.5 -27 -18.5 -39 q-13 -17 -29 -23.5 q-16 -6.5 -40 -8.5 q-18 -1 -47.5 -1 q-29.5 0 -63.5 2 q-12 0 -23.5 8 q-11.5 8 -13.5 17 q-5 16 7 27 q12 11 32 11 q2 0 3 0 q14 0 24.5 -1 q10.5 -1 20.5 -1 l32 0 q15 0 23.5 2 q8.5 2 15.5 10 q8 8 14 33 q6 25 10.5 71.5 q4.5 46.5 8.5 118.5 q2 51 5 119 l-219 0 q0 -1 -1 -3 q-11 -87 -38.5 -164.5 q-27.5 -77.5 -76 -142.5 q-48.5 -65 -128.5 -112 q-5 -3 -11.5 -4.5 q-6.5 -1.5 -13 -1 q-6.5 0.5 -12 3 q-5.5 2.5 -9.5 6.5 q-8 9 -8 20 ZM137 412 q-6 10 -4.5 25 q1.5 15 10.5 24 q63 67 118.5 156.5 q55.5 89.5 95.5 187.5 q2 6 7.5 11 q5.5 5 11.5 8 q6 3 13 4.5 q7 1.5 12 -1.5 q7 -2 12.5 -6.5 q5.5 -4.5 8.5 -11.5 q3 -7 3.5 -15 q0.5 -8 -1.5 -14 q-41 -97 -94 -187 l0 -633 q0 -7 -2.5 -14 q-2.5 -7 -7.5 -12 q-5 -5 -11 -8 q-6 -3 -12.5 -3 q-6.5 0 -12.5 3 q-6 3 -11 8.5 q-5 5.5 -8 12 q-3 6.5 -3 13.5 l0 529 q-32 -45 -67 -84 q-6 -8 -13.5 -11 q-7.5 -3 -15.5 -2.5 q-8 0.5 -15.5 5 q-7.5 4.5 -11.5 12.5 q-1 1 -1 1.5 q0 0.5 -1 1.5 Z" /><glyph glyph-name="uni4F2A" unicode="&#x4f2a;" d="M725 323 q-5 6 -6.5 13.5 q-1.5 7.5 0 15 q1.5 7.5 5.5 14 q4 6.5 11 9.5 q9 5 22 2 q13 -3 20 -12 q26 -29 51.5 -61.5 q25.5 -32.5 41.5 -58.5 q3 -6 3.5 -12.5 q0.5 -6.5 -1.5 -13 q-2 -6.5 -5 -11.5 q-3 -5 -8 -9 l-1 0 q-6 -4 -14 -4 q-8 0 -15.5 2.5 q-7.5 2.5 -14 7 q-6.5 4.5 -10.5 11.5 q-15 24 -36 52.5 q-21 28.5 -43 54.5 ZM469 715 q-5 7 -6 14.5 q-1 7.5 0.5 15 q1.5 7.5 6 13.5 q4.5 6 10.5 10 q10 4 22.5 0.5 q12.5 -3.5 19.5 -12.5 q18 -20 35 -41.5 q17 -21.5 30 -40.5 q3 -6 3.5 -12.5 q0.5 -6.5 -1 -13.5 q-1.5 -7 -5.5 -12 q-4 -5 -10 -8 q-6 -3 -13.5 -3 q-7.5 0 -15 2.5 q-7.5 2.5 -13.5 7.5 q-6 5 -10 12 q-10 15 -24 33.5 q-14 18.5 -29 34.5 ZM388 -24 q0 20 16 35 q59 47 100.5 106.5 q41.5 59.5 69 127 q27.5 67.5 43.5 139.5 q13 62 21 124 l-185 0 q-7 0 -14 3.5 q-7 3.5 -12.5 8 q-5.5 4.5 -8.5 11 q-3 6.5 -3 13.5 q0 7 3 13 q3 6 8.5 11 q5.5 5 12.5 8 q7 3 14 3 l192 0 q4 45 6 88 q2 68 2 127 q0 7 3.5 13.5 q3.5 6.5 8 12 q4.5 5.5 11 8.5 q6.5 3 12.5 3 l3 0 q7 0 13.5 -3.5 q6.5 -3.5 11.5 -8.5 q5 -5 8 -12 q3 -7 3 -14 q-1 -65 -5 -139 q-1 -37 -4 -75 l267 0 q8 0 14.5 -3 q6.5 -3 12.5 -8 q1 -2 3 -3 q3 -3 5 -7 l0 -1 q3 -6 3 -13 l0 -7 q-6 -144 -12 -244 q-5 -101 -13 -167 q-8 -66 -17 -102.5 q-9 -36.5 -23 -52.5 q-15 -19 -32.5 -26.5 q-17.5 -7.5 -42.5 -10.5 q-15 -2 -37 -2 q-6 0 -24 0.5 q-18 0.5 -53 1.5 q-12 1 -23 9 q-11 8 -14 18 q-1 5 -1 9 q0 12 10 22.5 q10 10.5 32 10.5 q14 -2 25 -2 q11 0 20 -0.5 q9 -0.5 18 -0.5 l17 0 q14 0 23 2.5 q9 2.5 17 12.5 q11 11 20 45 q9 34 15.5 98.5 q6.5 64.5 11.5 163.5 q5 80 9 186 l-239 0 l0 -4 q-10 -77 -28.5 -154 q-18.5 -77 -48.5 -148.5 q-30 -71.5 -75.5 -135 q-45.5 -63.5 -109.5 -114.5 q-5 -5 -12 -7 q-7 -2 -13.5 -2.5 q-6.5 -0.5 -13 1.5 q-6.5 2 -10.5 7 q-11 10 -11 25 ZM143 414 q-6 11 -4.5 25.5 q1.5 14.5 9.5 24.5 q63 67 118.5 154.5 q55.5 87.5 94.5 184.5 q2 6 7.5 11 q5.5 5 11.5 8 q6 3 13 4.5 q7 1.5 13 -0.5 q7 -2 12.5 -7 q5.5 -5 8.5 -12 q3 -7 3.5 -14.5 q0.5 -7.5 -2.5 -14.5 q-39 -92 -89 -177 l0 -640 q0 -8 -3 -14.5 q-3 -6.5 -8 -12 q-5 -5.5 -11 -8.5 q-6 -3 -12.5 -3 q-6.5 0 -12.5 3 q-6 3 -11 8.5 q-5 5.5 -8 12 q-3 6.5 -3 13.5 l0 534 q-33 -46 -69 -87 q-6 -7 -14 -10 q-8 -3 -15.5 -2.5 q-7.5 0.5 -15 5 q-7.5 4.5 -11.5 12.5 l-2 2 Z" /><glyph glyph-name="uni4F30" unicode="&#x4f30;" d="M553 32 l372 0 l0 236 q0 2 -2 4 q-2 2 -5 2 l-358 0 q-3 0 -5 -2 q-2 -2 -2 -4 l0 -236 ZM427 572 q-3 6 -3 12.5 q0 6.5 3 12.5 q3 6 8.5 11 q5.5 5 12 8 q6.5 3 13.5 3 l239 0 l0 183 q0 7 3 13.5 q3 6.5 8 12 q5 5.5 11.5 8.5 q6.5 3 12.5 3 l4 0 q6 0 12.5 -3 q6.5 -3 11.5 -8.5 q5 -5.5 7.5 -12 q2.5 -6.5 2.5 -13.5 l0 -183 l249 0 q7 0 14 -3 q7 -3 12 -8 q5 -5 8.5 -11 q3.5 -6 3.5 -12.5 q0 -6.5 -3.5 -12.5 q-3.5 -6 -8.5 -11.5 q-5 -5.5 -12 -8 q-7 -2.5 -14 -2.5 l-249 0 l0 -208 l189 0 q6 0 12.5 -3 q6.5 -3 12 -8.5 q5.5 -5.5 8.5 -12.5 q3 -7 3 -14 l0 -341 q0 -7 -3 -14 q-3 -7 -8 -12.5 q-5 -5.5 -11 -8.5 q-6 -3 -13 -3 l-2 0 q-7 0 -13.5 3 q-6.5 3 -11.5 8.5 q-5 5.5 -8 12 q-3 6.5 -3 13.5 l0 2 l-372 0 l0 -6 q0 -7 -2.5 -13.5 q-2.5 -6.5 -8 -12 q-5.5 -5.5 -11.5 -8.5 q-6 -3 -13 -3 q-7 0 -13 3 q-6 3 -11.5 8.5 q-5.5 5.5 -8.5 12 q-3 6.5 -3 14.5 l0 345 q0 8 3 15 q3 7 8.5 12 q5.5 5 12 8 q6.5 3 13.5 3 l181 0 l0 208 l-239 0 q-7 0 -13.5 2.5 q-6.5 2.5 -12 8 q-5.5 5.5 -8.5 11.5 ZM136 410 q-6 10 -4 25 q2 15 10 25 q64 67 119.5 156 q55.5 89 93.5 187 q3 6 8.5 11 q5.5 5 11.5 8 q6 3 12.5 4.5 q6.5 1.5 12.5 -0.5 q7 -3 12 -7.5 q5 -4.5 8 -11.5 q3 -7 3.5 -14.5 q0.5 -7.5 -1.5 -14.5 q-40 -95 -92 -183 l0 -635 q0 -7 -2.5 -14 q-2.5 -7 -7.5 -12 q-5 -5 -11 -8 q-6 -3 -12.5 -3 q-6.5 0 -12.5 3 q-6 3 -11 8.5 q-5 5.5 -8 12 q-3 6.5 -3 13.5 l0 530 q-33 -46 -69 -87 q-6 -7 -13.5 -10 q-7.5 -3 -15.5 -2.5 q-8 0.5 -15 5 q-7 4.5 -11 11.5 q-1 1 -1 1.5 q0 0.5 -1 1.5 Z" /><glyph glyph-name="uni4F34" unicode="&#x4f34;" d="M852 580.5 q-2 6.5 -1.5 14.5 q0.5 8 3.5 14 q19 33 38 73 q19 40 34 75 q3 7 8 13 q5 6 11.5 9.5 q6.5 3.5 14.5 4.5 q8 1 15 -2 q6 -2 11 -8 q5 -6 7.5 -13 q2.5 -7 2.5 -14.5 q0 -7.5 -4 -14.5 q-18 -39 -40 -80 q-22 -41 -42 -75 q-6 -10 -18.5 -15.5 q-12.5 -5.5 -22.5 -1.5 q-6 3 -10.5 8.5 q-4.5 5.5 -6.5 12 ZM471 727 q-3 7 -3 15 q0 8 2 15 q2 7 7 12.5 q5 5.5 11 8.5 q10 4 22.5 -2 q12.5 -6 18.5 -17 q21 -37 40 -78.5 q19 -41.5 30 -74.5 q4 -10 -1.5 -23 q-5.5 -13 -15.5 -17 q-7 -3 -15.5 -2.5 q-8.5 0.5 -15 4.5 q-6.5 4 -12 10.5 q-5.5 6.5 -8.5 14.5 q-11 30 -26.5 66 q-15.5 36 -33.5 68 ZM398 239 q0 6 3 12 q3 6 8.5 11 q5.5 5 12 7.5 q6.5 2.5 13.5 2.5 l254 0 l0 179 l-212 0 q-7 0 -14 3 q-7 3 -12 8 q-5 5 -8 11 q-3 6 -3 12 q0 6 3 12 q3 6 8 11 q5 5 12 8 q7 3 14 3 l212 0 l0 272 q0 7 2.5 13.5 q2.5 6.5 8 11.5 q5.5 5 11.5 8.5 q6 3.5 13 3.5 l2 0 q6 0 12.5 -3.5 q6.5 -3.5 11 -8.5 q4.5 -5 7.5 -11.5 q3 -6.5 3 -13.5 l0 -272 l223 0 q14 0 25.5 -10.5 q11.5 -10.5 11.5 -23.5 q0 -6 -3.5 -12 q-3.5 -6 -8.5 -11 q-5 -5 -11.5 -8 q-6.5 -3 -13.5 -3 l-223 0 l0 -179 l264 0 q7 0 13.5 -2.5 q6.5 -2.5 12 -7.5 q5.5 -5 8.5 -11 q3 -6 3 -12 q0 -7 -3 -12.5 q-3 -5.5 -8.5 -10.5 q-5.5 -5 -12 -8 q-6.5 -3 -13.5 -3 l-264 0 l0 -248 q0 -6 -3 -12.5 q-3 -6.5 -7.5 -12 q-4.5 -5.5 -11 -8.5 q-6.5 -3 -12.5 -3 l-2 0 q-7 0 -13 3 q-6 3 -11.5 8.5 q-5.5 5.5 -8 12 q-2.5 6.5 -2.5 12.5 l0 248 l-254 0 q-7 0 -13.5 3 q-6.5 3 -12 8 q-5.5 5 -8.5 10.5 q-3 5.5 -3 12.5 ZM138 412 q-7 11 -4.5 26 q2.5 15 10.5 25 q65 66 122.5 154.5 q57.5 88.5 98.5 186.5 q3 6 8 11 q5 5 11.5 8 q6.5 3 13 4 q6.5 1 11.5 -1 q7 -2 12.5 -7 q5.5 -5 8.5 -11.5 q3 -6.5 3 -14.5 q0 -8 -3 -14 q-38 -89 -87 -171 l0 -647 q0 -7 -3 -14 q-3 -7 -8 -12 q-5 -5 -11 -8.5 q-6 -3.5 -12.5 -3.5 q-6.5 0 -12.5 3.5 q-6 3.5 -11 8.5 q-5 5 -8 12 q-3 7 -3 14 l0 542 q-39 -52 -79 -98 q-7 -7 -14.5 -9.5 q-7.5 -2.5 -15.5 -2 q-8 0.5 -15 5 q-7 4.5 -11 12.5 l-1 1 Z" /><glyph glyph-name="uni4F38" unicode="&#x4f38;" d="M763 474 l200 0 q3 0 6 -1 l0 136 q0 2 -2 4 q-2 2 -4 2 l-200 0 l0 -141 ZM763 265 l206 0 l0 145 q-3 -1 -6 -1 l-200 0 l0 -144 ZM493 471 l1 0 q7 3 14 3 l185 0 l0 141 l-194 0 q-2 0 -4 -2 q-2 -2 -2 -4 l0 -138 ZM493 261 q2 1 4 1 q7 3 13 3 l183 0 l0 144 l-185 0 q-7 0 -14 3 l-1 1 l0 -152 ZM426 185 l0 458 q0 7 3 14 q3 7 8.5 12.5 q5.5 5.5 12.5 8.5 q7 3 14 3 l229 0 l0 117 q0 7 3 13 q3 6 8.5 11.5 q5.5 5.5 11.5 8.5 q6 3 12.5 3 q6.5 0 13 -3 q6.5 -3 11.5 -8.5 q5 -5.5 7.5 -11.5 q2.5 -6 2.5 -13 l0 -117 l238 0 q7 0 14 -3 q7 -3 12.5 -8.5 q5.5 -5.5 8.5 -12 q3 -6.5 3 -13.5 l0 -453 q0 -7 -3 -13.5 q-3 -6.5 -8 -12 q-5 -5.5 -11 -8.5 q-6 -3 -12.5 -3 q-6.5 0 -13 3 q-6.5 3 -12 8.5 q-5.5 5.5 -8 12.5 q-2.5 7 -2.5 14 l0 7 l-206 0 l0 -241 q0 -7 -2.5 -13.5 q-2.5 -6.5 -7.5 -11.5 q-5 -5 -11.5 -8.5 q-6.5 -3.5 -13 -3.5 q-6.5 0 -12.5 3.5 q-6 3.5 -11.5 8.5 q-5.5 5 -8.5 11.5 q-3 6.5 -3 13.5 l0 241 l-183 0 q-6 0 -13 3 q-2 1 -4 1 l0 -19 q0 -7 -2.5 -13.5 q-2.5 -6.5 -7.5 -12 q-5 -5.5 -10.5 -8.5 q-5.5 -3 -12.5 -3 q-7 0 -12.5 3 q-5.5 3 -10.5 8.5 q-5 5.5 -8 12.5 q-3 7 -3 14 ZM134 410 q-7 10 -4.5 25 q2.5 15 10.5 25 q63 67 118.5 156 q55.5 89 94.5 187 q3 6 8.5 11 q5.5 5 11.5 8 q6 3 12.5 4.5 q6.5 1.5 12.5 -0.5 q7 -3 12 -7.5 q5 -4.5 8 -11.5 q3 -7 3.5 -14.5 q0.5 -7.5 -2.5 -14.5 q-38 -93 -89 -179 l0 -639 q0 -7 -2.5 -14 q-2.5 -7 -7.5 -12 q-5 -5 -11 -8 q-6 -3 -12.5 -3 q-6.5 0 -12.5 3 q-6 3 -11 8.5 q-5 5.5 -8 12 q-3 6.5 -3 13.5 l0 533 q-34 -48 -71 -90 q-6 -7 -13.5 -10 q-7.5 -3 -15.5 -2.5 q-8 0.5 -15 5 q-7 4.5 -12 11.5 q0 1 -0.5 1.5 q-0.5 0.5 -0.5 1.5 Z" /><glyph glyph-name="uni4F3C" unicode="&#x4f3c;" d="M646 -23 q0 20 15 35 q68 58 111 134 q43 76 68.5 171.5 q25.5 95.5 37 210 q11.5 114.5 16.5 248.5 q0 7 4 13.5 q4 6.5 9 11.5 q5 5 11.5 8 q6.5 3 13.5 3 q7 0 13 -3.5 q6 -3.5 11 -9 q5 -5.5 7.5 -12 q2.5 -6.5 2.5 -13.5 q-6 -145 -20 -266 q-11 -103 -33 -191 q10 -5 15 -15 q19 -36 38 -74.5 q19 -38.5 36 -76 q17 -37.5 31.5 -72.5 q14.5 -35 24.5 -64 q4 -11 -1.5 -24 q-5.5 -13 -16.5 -18 q-8 -4 -16 -3.5 q-8 0.5 -15 3.5 q-7 3 -13 9.5 q-6 6.5 -9 14.5 q-10 29 -23.5 62.5 q-13.5 33.5 -29.5 70 q-16 36.5 -33 72.5 q-6 15 -13 29 q-24 -70 -58 -130 q-46 -82 -118 -147 q-5 -6 -12.5 -8.5 q-7.5 -2.5 -15 -3 q-7.5 -0.5 -15 2 q-7.5 2.5 -12.5 7.5 q-11 10 -11 25 ZM605 687 q-2 8 -2.5 15.5 q-0.5 7.5 2 14.5 q2.5 7 7 12.5 q4.5 5.5 10.5 7.5 q5 2 11 1 q6 -1 12 -4 q6 -3 11 -7.5 q5 -4.5 7 -10.5 q17 -30 33 -63 q16 -33 30 -65.5 q14 -32.5 25.5 -63 q11.5 -30.5 19.5 -57.5 q4 -11 -2.5 -24 q-6.5 -13 -16.5 -17 q-7 -3 -14.5 -2.5 q-7.5 0.5 -14.5 5 q-7 4.5 -12 11 q-5 6.5 -7 14.5 q-8 25 -18.5 54 q-10.5 29 -23 59.5 q-12.5 30.5 -27 61 q-14.5 30.5 -30.5 58.5 ZM446 55 q-4 5 -4.5 12 q-0.5 7 0.5 14.5 q1 7.5 3.5 15.5 q2.5 8 5.5 16 q2 5 4.5 7 q2.5 2 4 7 q1.5 5 2.5 13.5 q1 8.5 1 24.5 l0 569 q0 7 3 13.5 q3 6.5 8 12 q5 5.5 11 8.5 q6 3 13 3 q7 0 13 -3 q6 -3 11 -8.5 q5 -5.5 7.5 -12 q2.5 -6.5 2.5 -13.5 l0 -576 l142 96 q8 5 16.5 7 q8.5 2 16 0 q7.5 -2 13 -7.5 q5.5 -5.5 8.5 -12.5 q3 -9 -2 -21.5 q-5 -12.5 -14 -18.5 q-44 -31 -76.5 -54 q-32.5 -23 -56 -40 q-23.5 -17 -39.5 -28.5 q-16 -11.5 -27 -20.5 q-9 -7 -18 -9 q-3 -1 -5 -1 q-2 -1 -3 -2 q-8 -4 -15.5 -4 q-7.5 0 -14.5 3 q-7 3 -11 10 ZM132 402 q-5 8 -4 21.5 q1 13.5 8 22.5 q56 69 105 161 q49 92 83 192 q2 7 6.5 12.5 q4.5 5.5 10.5 9 q6 3.5 13 5 q7 1.5 13 -0.5 q6 -2 11 -6.5 q5 -4.5 8.5 -11 q3.5 -6.5 4 -14 q0.5 -7.5 -2.5 -14.5 q-28 -83 -66 -162 l0 -658 q0 -7 -3 -14 q-3 -7 -7.5 -12.5 q-4.5 -5.5 -10.5 -8.5 q-6 -3 -12.5 -3 q-6.5 0 -12.5 3 q-6 3 -11.5 8.5 q-5.5 5.5 -8 12 q-2.5 6.5 -2.5 14.5 l0 531 q-31 -51 -64 -95 q-6 -8 -14 -12 q-8 -4 -15.5 -4 q-7.5 0 -14.5 5 q-7 5 -11 13 q-1 1 -1.5 2.5 q-0.5 1.5 -1.5 2.5 Z" /><glyph glyph-name="uni4F46" unicode="&#x4f46;" d="M567 505 q0 -2 2 -4 q2 -2 4 -2 l324 0 q3 0 5 2 q2 2 2 4 l0 189 q0 2 -2 4 q-2 2 -5 2 l-324 0 q-2 0 -4 -2 q-2 -2 -2 -4 l0 -189 ZM567 233 q0 -2 2 -4 q2 -2 4 -2 l324 0 q3 0 5 2 q2 2 2 4 l0 193 q0 2 -2 4 q-2 2 -5 2 l-324 0 q-2 0 -4 -2 q-2 -2 -2 -4 l0 -193 ZM493 198 l0 532 q0 7 3 13.5 q3 6.5 8.5 12 q5.5 5.5 12.5 8.5 q7 3 13 3 l413 0 q7 0 13.5 -3 q6.5 -3 12 -8.5 q5.5 -5.5 8.5 -12 q3 -6.5 3 -13.5 l0 -532 q0 -7 -3 -13.5 q-3 -6.5 -8.5 -12 q-5.5 -5.5 -12 -8.5 q-6.5 -3 -13.5 -3 l-413 0 q-6 0 -13 3 q-7 3 -12.5 8.5 q-5.5 5.5 -8.5 12 q-3 6.5 -3 13.5 ZM407 -4 q0 6 3 12 q3 6 8.5 10.5 q5.5 4.5 12 7.5 q6.5 3 13.5 3 l585 0 q7 0 14 -3 q7 -3 12 -7.5 q5 -4.5 8 -10.5 q3 -6 3 -12 q0 -7 -3 -12.5 q-3 -5.5 -8 -11 q-5 -5.5 -12 -8 q-7 -2.5 -14 -2.5 l-585 0 q-7 0 -13.5 2.5 q-6.5 2.5 -12 8 q-5.5 5.5 -8.5 11 q-3 5.5 -3 12.5 ZM145 409 q-7 11 -4.5 26 q2.5 15 10.5 25 q64 67 120 156 q56 89 96 187 q3 6 8 11 q5 5 11.5 8 q6.5 3 13 4 q6.5 1 13.5 -1 q7 -2 12 -7 q5 -5 8 -12 q3 -7 4 -15 q1 -8 -3 -14 q-39 -93 -89 -179 l0 -637 q0 -8 -3 -14.5 q-3 -6.5 -8.5 -12 q-5.5 -5.5 -11.5 -8.5 q-6 -3 -13 -3 q-7 0 -13 3 q-6 3 -11 8.5 q-5 5.5 -8 12 q-3 6.5 -3 13.5 l0 529 q-34 -47 -71 -88 q-6 -7 -14 -10.5 q-8 -3.5 -15.5 -2.5 q-7.5 1 -14.5 5 q-7 4 -11 12 q-1 1 -1.5 2 q-0.5 1 -1.5 2 Z" /><glyph glyph-name="uni4F4D" unicode="&#x4f4d;" d="M684 790 q-2 7 -1.5 14.5 q0.5 7.5 4 14.5 q3.5 7 9 12 q5.5 5 11.5 7 l1 0 q12 3 25 -4.5 q13 -7.5 17 -19.5 q9 -23 16.5 -46.5 q7.5 -23.5 13.5 -43.5 q2 -7 1 -14 q-1 -7 -4.5 -13 q-3.5 -6 -8.5 -10.5 q-5 -4.5 -11 -6.5 q-7 -2 -14.5 -0.5 q-7.5 1.5 -14.5 5.5 q-7 4 -12 10 q-5 6 -7 13 q-4 19 -10.5 40 q-6.5 21 -14.5 42 ZM543 474 q-2 7 -0.5 14 q1.5 7 5 13 q3.5 6 9 10.5 q5.5 4.5 11.5 5.5 q6 1 12.5 -0.5 q6.5 -1.5 12 -6 q5.5 -4.5 10 -10.5 q4.5 -6 6.5 -13 q10 -45 19.5 -93.5 q9.5 -48.5 18 -95 q8.5 -46.5 15 -90 q6.5 -43.5 10.5 -77.5 q2 -12 -5.5 -24 q-7.5 -12 -18.5 -15 l-1 0 q-8 -2 -16 -1 q-8 1 -14.5 5.5 q-6.5 4.5 -11 11.5 q-4.5 7 -5.5 16 q-3 35 -9.5 78 q-6.5 43 -14 89 q-7.5 46 -16 93 q-8.5 47 -17.5 90 ZM472 609 q-3 6 -3 13 q0 7 3 13 q3 6 8.5 11 q5.5 5 12.5 7.5 q7 2.5 14 2.5 l468 0 q8 0 14.5 -2.5 q6.5 -2.5 12 -7.5 q5.5 -5 8.5 -11 q3 -6 3 -13 q0 -7 -3 -13 q-3 -6 -8.5 -11 q-5.5 -5 -12 -8 q-6.5 -3 -14.5 -3 l-468 0 q-7 0 -14 3 q-7 3 -12.5 8 q-5.5 5 -8.5 11 ZM429 -15 q-3 6 -3 12.5 q0 6.5 3 12.5 q3 6 8.5 11 q5.5 5 12 8 q6.5 3 12.5 3 l325 0 q-2 5 -3 11 q-1 7 1 14 q12 46 24.5 101 q12.5 55 23.5 112 q11 57 21 114.5 q10 57.5 17 107.5 q1 8 5 14.5 q4 6.5 10 11 q6 4.5 13.5 7 q7.5 2.5 14.5 0.5 l2 0 q6 -1 11.5 -5 q5.5 -4 10 -10 q4.5 -6 6 -13.5 q1.5 -7.5 0.5 -13.5 q-9 -54 -20.5 -112.5 q-11.5 -58.5 -24 -117 q-12.5 -58.5 -26 -113.5 q-13.5 -55 -26.5 -101 q-1 -4 -3 -7 l174 0 q7 0 13.5 -3 q6.5 -3 11.5 -8 q5 -5 8 -11 q3 -6 3 -12.5 q0 -6.5 -3 -12.5 q-3 -6 -8 -11.5 q-5 -5.5 -11.5 -8 q-6.5 -2.5 -13.5 -2.5 l-556 0 q-6 0 -12.5 2.5 q-6.5 2.5 -12 8 q-5.5 5.5 -8.5 11.5 ZM156 410 q-7 10 -5 25 q2 15 10 25 q64 67 119.5 156 q55.5 89 95.5 187 q2 6 7 11 q5 5 11.5 8 q6.5 3 13 4.5 q6.5 1.5 12.5 -0.5 q7 -3 12 -7.5 q5 -4.5 8 -11.5 q3 -7 4 -14.5 q1 -7.5 -3 -14.5 q-38 -92 -88 -178 l0 -639 q0 -8 -3 -14.5 q-3 -6.5 -7.5 -12 q-4.5 -5.5 -11 -8.5 q-6.5 -3 -13.5 -3 l-1 0 q-7 0 -13.5 3 q-6.5 3 -11.5 8.5 q-5 5.5 -8 12 q-3 6.5 -3 13.5 l0 529 q-32 -46 -68 -86 q-6 -7 -13.5 -10 q-7.5 -3 -15.5 -2.5 q-8 0.5 -15 5 q-7 4.5 -11 11.5 q-1 1 -1 1.5 q0 0.5 -1 1.5 Z" /><glyph glyph-name="uni4F4E" unicode="&#x4f4e;" d="M696 92 q-3 8 -3.5 15.5 q-0.5 7.5 1.5 14 q2 6.5 6 11.5 q4 5 9 7 q8 3 20 -3.5 q12 -6.5 16 -17.5 q19 -31 36.5 -65 q17.5 -34 29.5 -63 q5 -12 0.5 -25.5 q-4.5 -13.5 -14.5 -17.5 q-6 -2 -12 -1 q-6 1 -12 5 q-6 4 -10.5 10 q-4.5 6 -8.5 13 q-10 26 -25.5 57 q-15.5 31 -32.5 60 ZM545 449 q1 1 3 2 q7 3 13 3 l209 0 q-11 119 -16 253 l0 7 q-54 -11 -110 -21 q-50 -9 -99 -16 l0 -228 ZM450 -50 q-2 5 -1 12.5 q1 7.5 3 15.5 q2 8 5.5 16 q3.5 8 5.5 14 q2 2 4.5 2 q2.5 0 4.5 1 q2 1 3.5 6.5 q1.5 5.5 1.5 20.5 l0 645 q0 9 3.5 16 q3.5 7 9.5 13 q1 1 3 2 q2 4 5 8 q11 13 30 16 q55 9 110 19.5 q55 10.5 107.5 22 q52.5 11.5 98.5 24.5 q46 13 83 25 q7 3 18 1 q11 -2 16 -7 l6 -6 q7 -7 10 -15 q3 -8 1.5 -16 q-1.5 -8 -7.5 -14 q-6 -6 -15 -9 q-45 -13 -96 -25 q-22 -6 -44 -11 q1 -2 3 -5 q3 -7 3 -14 q4 -134 16 -254 l176 0 q7 0 13.5 -3 q6.5 -3 11.5 -7.5 q5 -4.5 8.5 -10.5 q3.5 -6 3.5 -12 q0 -7 -3.5 -13 q-3.5 -6 -8.5 -11 q-5 -5 -11.5 -7.5 q-6.5 -2.5 -13.5 -2.5 l-169 0 q11 -93 26 -167 q19 -94 45 -149 q26 -55 58 -57 q11 0 18 23 q7 23 12 67 q8 3 13.5 9.5 q5.5 6.5 10.5 12 q5 5.5 10 8.5 q5 3 12 -2 q7 -3 10.5 -14 q3.5 -11 1.5 -21 q-8 -48 -17 -80.5 q-9 -32.5 -20 -52 q-11 -19.5 -24 -27 q-13 -7.5 -27 -7.5 q-56 1 -95 61.5 q-39 60.5 -64 165.5 q-24 99 -38 230 l-216 0 q-6 0 -13 3 q-2 0 -3 1 l0 -375 l97 26 q9 2 17 1 q8 -1 14.5 -5 q6.5 -4 11 -9.5 q4.5 -5.5 4.5 -12.5 q0 -9 -9 -19.5 q-9 -10.5 -21 -13.5 q-62 -19 -94.5 -29 q-32.5 -10 -49.5 -15 q-11 -4 -20 -4 q-8 0 -15 3 q-4 -1 -8 -1 q-16 1 -22 13 ZM138 401 q-5 10 -3.5 24 q1.5 14 8.5 24 q63 69 118 160.5 q55 91.5 94 191.5 q2 7 7.5 12 q5.5 5 11.5 8.5 q6 3.5 13 5 q7 1.5 12 -0.5 q7 -2 12 -7 q5 -5 8.5 -11.5 q3.5 -6.5 4 -14 q0.5 -7.5 -2.5 -14.5 q-37 -92 -84 -177 l0 -641 q0 -8 -3 -14.5 q-3 -6.5 -7.5 -12 q-4.5 -5.5 -10.5 -8.5 q-6 -3 -12.5 -3 q-6.5 0 -13 3 q-6.5 3 -11.5 8.5 q-5 5.5 -8 12 q-3 6.5 -3 13.5 l0 530 q-35 -51 -72 -96 q-6 -8 -13.5 -11.5 q-7.5 -3.5 -15.5 -2.5 q-8 1 -15 5 q-7 4 -12 12 q0 1 -0.5 2 q-0.5 1 -1.5 2 Z" /><glyph glyph-name="uni4F4F" unicode="&#x4f4f;" d="M669 781 q-4 7 -4.5 15.5 q-0.5 8.5 2 15.5 q2.5 7 8 13 q5.5 6 12.5 9 q5 1 11 1 q6 0 12 -2.5 q6 -2.5 11 -6 q5 -3.5 7 -8.5 q18 -26 34 -54 q16 -28 27 -52 q2 -6 2 -12.5 q0 -6.5 -2.5 -13 q-2.5 -6.5 -7.5 -11.5 q-5 -5 -10 -7 l-1 0 q-7 -3 -15 -2.5 q-8 0.5 -15.5 4 q-7.5 3.5 -13 9.5 q-5.5 6 -8.5 14 q-9 19 -22 42.5 q-13 23.5 -27 45.5 ZM416 -23 q-3 6 -3 13 q0 7 3 13 q3 6 8.5 10.5 q5.5 4.5 12.5 7.5 q7 3 13 3 l256 0 l0 258 l-196 0 q-7 0 -14 2.5 q-7 2.5 -12 7.5 q-5 5 -8 11.5 q-3 6.5 -3 13 q0 6.5 3 12.5 q3 6 8 10.5 q5 4.5 12 7.5 q7 3 14 3 l196 0 l0 225 l-229 0 q-7 0 -14 2.5 q-7 2.5 -12.5 8 q-5.5 5.5 -8.5 11 q-3 5.5 -3 12.5 q0 7 3 13 q3 6 8.5 10.5 q5.5 4.5 12.5 7.5 q7 3 14 3 l532 0 q7 0 14 -3 q7 -3 12 -7.5 q5 -4.5 8.5 -10.5 q3.5 -6 3.5 -13 q0 -7 -3.5 -12.5 q-3.5 -5.5 -8.5 -11 q-5 -5.5 -12 -8 q-7 -2.5 -14 -2.5 l-231 0 l0 -225 l201 0 q8 0 15 -3 q7 -3 12 -7.5 q5 -4.5 8 -10.5 q3 -6 3 -12.5 q0 -6.5 -3 -13 q-3 -6.5 -8 -11.5 q-5 -5 -12 -7.5 q-7 -2.5 -15 -2.5 l-201 0 l0 -258 l246 0 q7 0 14 -3 q7 -3 12 -7.5 q5 -4.5 8.5 -10.5 q3.5 -6 3.5 -13 q0 -7 -3.5 -13 q-3.5 -6 -8.5 -11 q-5 -5 -12 -8 q-7 -3 -14 -3 l-574 0 q-6 0 -13 3 q-7 3 -12.5 8 q-5.5 5 -8.5 11 ZM155 409 q-7 11 -5 26 q2 15 11 25 q63 67 118.5 156 q55.5 89 95.5 187 q2 6 7 11 q5 5 11.5 8 q6.5 3 13.5 4.5 q7 1.5 13 -0.5 l0 -1 q7 -2 12.5 -7 q5.5 -5 8.5 -11.5 q3 -6.5 3 -14.5 q0 -8 -3 -15 q-38 -93 -88 -179 l0 -637 q0 -8 -3 -14.5 q-3 -6.5 -8 -12 q-5 -5.5 -11.5 -8.5 q-6.5 -3 -12.5 -3 l-2 0 q-7 0 -13 3 q-6 3 -11 8.5 q-5 5.5 -8 12 q-3 6.5 -3 13.5 l0 526 q-33 -45 -68 -85 q-6 -7 -14 -10 q-8 -3 -15.5 -2.5 q-7.5 0.5 -14.5 5 q-7 4.5 -12 12.5 l0 2 l-2 1 Z" /><glyph glyph-name="uni4F53" unicode="&#x4f53;" d="M380 124 q-2 7 -1.5 15 q0.5 8 4 15.5 q3.5 7.5 9.5 14.5 q37 34 72 79 q35 45 67 97 q32 52 60 109 q27 56 48 113 l-204 0 q-7 0 -14 3 q-7 3 -12.5 8 q-5.5 5 -8.5 11 q-3 6 -3 12.5 q0 6.5 3 12.5 q3 6 8.5 11 q5.5 5 12.5 8 q7 3 14 3 l247 0 l0 164 q0 6 2.5 13 q2.5 7 8 12 q5.5 5 11.5 8 q6 3 13 3 q7 0 13 -3 q6 -3 11 -8 q5 -5 7.5 -12 q2.5 -7 2.5 -13 l0 -164 l264 0 q7 0 14 -3 q7 -3 12.5 -8 q5.5 -5 8.5 -11 q3 -6 3 -12.5 q0 -6.5 -3 -12.5 q-3 -6 -8.5 -11 q-5.5 -5 -12.5 -8 q-7 -3 -14 -3 l-217 0 q1 -1 1 -2 q20 -56 46.5 -112 q26.5 -56 57.5 -107 q31 -51 65.5 -95 q34.5 -44 71.5 -77 q6 -7 9 -14.5 q3 -7.5 3.5 -15.5 q0.5 -8 -2 -15.5 q-2.5 -7.5 -8.5 -13.5 q-5 -5 -12 -7.5 q-7 -2.5 -14.5 -2 q-7.5 0.5 -14.5 4 q-7 3.5 -12 10.5 q-37 37 -72 85 q-35 48 -67 103.5 q-32 55.5 -59 116.5 q-22 50 -40 100 l0 -351 l127 0 q7 0 13.5 -2.5 q6.5 -2.5 12 -7.5 q5.5 -5 8.5 -11 q3 -6 3 -12 q0 -6 -3 -12 q-3 -6 -8.5 -10.5 q-5.5 -4.5 -12 -7.5 q-6.5 -3 -13.5 -3 l-127 0 l0 -145 q0 -7 -2.5 -13.5 q-2.5 -6.5 -7.5 -11.5 q-5 -5 -11 -8.5 q-6 -3.5 -13 -3.5 q-7 0 -13 3.5 q-6 3.5 -11.5 8.5 q-5.5 5 -8 11.5 q-2.5 6.5 -2.5 13.5 l0 145 l-130 0 q-7 0 -14 3 q-7 3 -12 7.5 q-5 4.5 -8.5 10.5 q-3.5 6 -3.5 12 q0 6 3.5 12 q3.5 6 8.5 11 q5 5 12 7.5 q7 2.5 14 2.5 l130 0 l0 346 q-17 -46 -38 -92 q-28 -62 -60.5 -118 q-32.5 -56 -68.5 -105.5 q-36 -49.5 -74 -88.5 q-5 -6 -12.5 -9.5 q-7.5 -3.5 -15 -4 q-7.5 -0.5 -14.5 2 q-7 2.5 -12 7.5 q-5 5 -7 12 ZM149 411 q-7 9 -5.5 24 q1.5 15 9.5 25 q56 67 105 156 q49 89 83 186 q3 6 7.5 11 q4.5 5 11 9 q6.5 4 13 5 q6.5 1 12.5 -1 q7 -2 12 -7 q5 -5 8.5 -11.5 q3.5 -6.5 3.5 -14 q0 -7.5 -2 -14.5 q-34 -91 -77 -176 l0 -643 q0 -7 -3 -14 q-3 -7 -7.5 -12 q-4.5 -5 -10.5 -8 q-6 -3 -13 -3 q-7 0 -12.5 3 q-5.5 3 -11 8.5 q-5.5 5.5 -8 12 q-2.5 6.5 -2.5 13.5 l0 524 q-27 -42 -56 -79 q-6 -8 -13 -11.5 q-7 -3.5 -15 -3 q-8 0.5 -15 5 q-7 4.5 -12 11.5 q0 1 -0.5 2 q-0.5 1 -1.5 2 Z" /><glyph glyph-name="uni4F55" unicode="&#x4f55;" d="M537 248 l172 0 q2 0 4 2 q2 2 2 4 l0 205 q0 2 -2 4 q-2 2 -4 2 l-172 0 l0 -217 ZM470 152 l0 339 q0 7 2.5 14 q2.5 7 7.5 12 q5 5 11 8.5 q6 3.5 12.5 3.5 q6.5 0 12.5 -3 q2 -1 3 -2 q3 1 5 2 q7 3 14 3 l208 0 q6 0 12.5 -3.5 q6.5 -3.5 12 -8.5 q5.5 -5 8.5 -12 q3 -7 3 -14 l0 -269 q0 -7 -3 -14 q-3 -7 -8.5 -12.5 q-5.5 -5.5 -12 -8.5 q-6.5 -3 -12.5 -3 l-209 0 l0 -32 q0 -7 -2.5 -14 q-2.5 -7 -7.5 -12.5 q-5 -5.5 -11 -8.5 q-6 -3 -12.5 -3 q-6.5 0 -12.5 3 q-6 3 -11 8.5 q-5 5.5 -7.5 12.5 q-2.5 7 -2.5 14 ZM439 707 q0 7 3 13 q3 6 8.5 10.5 q5.5 4.5 12 7.5 q6.5 3 13.5 3 l549 0 q7 0 13.5 -3 q6.5 -3 12 -7.5 q5.5 -4.5 8.5 -10.5 q3 -6 3 -12.5 q0 -6.5 -3 -13 q-3 -6.5 -8.5 -11.5 q-5.5 -5 -12 -8 q-6.5 -3 -13.5 -3 l-38 0 l0 -651 q0 -40 -10.5 -58.5 q-10.5 -18.5 -38.5 -27.5 q-24 -7 -65.5 -9.5 q-41.5 -2.5 -103.5 -3.5 q-12 0 -23 8.5 q-11 8.5 -15 18.5 q-3 9 -1.5 17.5 q1.5 8.5 6.5 15 q5 6.5 13.5 10 q8.5 3.5 18.5 3.5 q35 -2 61 -2 q7 0 25 0.5 q18 0.5 35 1.5 q16 1 21.5 6 q5.5 5 5.5 20 l0 651 l-440 0 q-7 0 -13.5 3 q-6.5 3 -12 8 q-5.5 5 -8.5 11.5 q-3 6.5 -3 12.5 ZM155 417 q-6 10 -4 25 q2 15 10 24 q58 67 108 155.5 q50 88.5 87 183.5 q2 6 7 11.5 q5 5.5 11 8.5 q6 3 13 4 q7 1 13 0 q6 -2 11.5 -7.5 q5.5 -5.5 8.5 -12 q3 -6.5 3.5 -14.5 q0.5 -8 -2.5 -15 q-34 -85 -76 -166 l0 -654 q0 -7 -3 -14 q-3 -7 -8 -12.5 q-5 -5.5 -11 -8.5 q-6 -3 -13 -3 q-7 0 -13.5 3 q-6.5 3 -11.5 8.5 q-5 5.5 -8 12.5 q-3 7 -3 14 l0 533 q-29 -43 -61 -82 q-6 -8 -14 -11.5 q-8 -3.5 -15.5 -2.5 q-7.5 1 -15 5 q-7.5 4 -11.5 12 q-1 1 -1 1.5 q0 0.5 -1 1.5 Z" /><glyph glyph-name="uni4F59" unicode="&#x4f59;" d="M775 154 q-3 8 -3 15.5 q0 7.5 4 15 q4 7.5 11 12.5 q7 4 19 3 q12 -1 20 -7 q23 -19 47 -39.5 q24 -20.5 46.5 -41 q22.5 -20.5 42.5 -41 q20 -20.5 37 -37.5 q5 -6 7 -13.5 q2 -7.5 1.5 -14.5 q-0.5 -7 -4.5 -13.5 q-4 -6.5 -10 -10.5 l-2 -1 q-5 -3 -12 -4.5 q-7 -1.5 -14 0 q-7 1.5 -14 5 q-7 3.5 -11 8.5 q-14 17 -32 35.5 q-18 18.5 -38.5 38.5 q-20.5 20 -42 39.5 q-21.5 19.5 -42.5 36.5 q-7 6 -10 14 ZM198 291 q-3 6 -3 12.5 q0 6.5 3 12.5 q3 6 8 10.5 q5 4.5 12 7.5 q7 3 14 3 l335 0 l0 130 l-191 0 q-6 0 -13 3 q-7 3 -12.5 8 q-5.5 5 -8.5 10.5 q-3 5.5 -3 11.5 q0 6 3 12 q3 6 8.5 11 q5.5 5 12.5 7.5 q7 2.5 13 2.5 l447 0 q7 0 14 -2.5 q7 -2.5 12 -7.5 q5 -5 8.5 -11 q3.5 -6 3.5 -12 q0 -6 -3.5 -11.5 q-3.5 -5.5 -8.5 -10.5 q-5 -5 -12 -8 q-7 -3 -14 -3 l-181 0 l0 -130 l335 0 q6 0 13 -3 q7 -3 12.5 -7.5 q5.5 -4.5 8.5 -10.5 q3 -6 3 -12.5 q0 -6.5 -3 -12.5 q-3 -6 -8.5 -11 q-5.5 -5 -12.5 -8 q-7 -3 -13 -3 l-335 0 l0 -261 q0 -32 -9.5 -49 q-9.5 -17 -32.5 -26 q-20 -7 -51 -9.5 q-31 -2.5 -80 -2.5 q-11 0 -22 7 q-11 7 -15 16 q-3 7 -3 13 q0 9 8 20 q8 11 28 11 q1 0 3 0 q19 -1 34 -1 q7 0 19 0.5 q12 0.5 25 1.5 q12 1 16.5 4.5 q4.5 3.5 4.5 14.5 l0 261 l-335 0 q-7 0 -14 3 q-7 3 -12 8 q-5 5 -8 11 ZM183 1 q0 3 1.5 13 q1.5 10 17.5 22 q43 31 84 69.5 q41 38.5 72 78.5 q6 8 18.5 12 q12.5 4 22.5 0 l1 0 q8 -3 13 -9 q5 -6 7 -13.5 q2 -7.5 0 -15.5 q-2 -8 -8 -15 q-37 -46 -82.5 -89 q-45.5 -43 -90.5 -76 q-10 -8 -24 -7.5 q-14 0.5 -21 6.5 q-11 10 -11 24 ZM158 462 q-5 7 -6.5 15.5 q-1.5 8.5 1 16 q2.5 7.5 8.5 14.5 q6 7 15 11 q57 28 114 62 q57 34 109.5 74 q52.5 40 99.5 83 q47 43 84 87 q9 9 22 12 q13 3 22 -1 q6 -4 9.5 -10 q3.5 -6 4 -13.5 q0.5 -7.5 -1.5 -14.5 q0 -2 -1 -4 q10 -3 16 -9 q74 -83 166.5 -144 q92.5 -61 205.5 -110 q18 -8 22 -19 q4 -11 4 -16 q0 -10 -7 -20 q-7 -9 -22 -12.5 q-15 -3.5 -27 1.5 q-115 54 -210 119 q-95 65 -175 155 q-6 5 -9 12 q-28 -31 -61 -62 q-51 -47 -106 -89.5 q-55 -42.5 -113.5 -79.5 q-58.5 -37 -117.5 -67 q-11 -5 -25 -2.5 q-14 2.5 -21 11.5 Z" /><glyph glyph-name="uni4F5B" unicode="&#x4f5b;" d="M833 493 l111 0 q2 0 4 2 q2 2 2 4 l0 124 q0 2 -2 4 q-2 2 -5 2 l-110 0 l0 -136 ZM650 493 l118 0 l0 136 l-118 0 l0 -136 ZM647 296 l121 0 l0 135 l-118 0 l0 -54 q0 -41 -3 -81 ZM463 296 l119 0 q3 39 3 81 l0 54 l-78 0 q-7 0 -14 3 q-3 1 -6 3 q-6 -41 -14 -84 q-5 -30 -10 -57 ZM400.5 247.5 q-4.5 6.5 -6.5 14 q-2 7.5 0 16.5 q9 40 17.5 89 q8.5 49 15.5 93 q2 13 12 23 q10 10 20 10 q7 0 13 -3 q5 -3 8 -7 q1 0 1 1 q12 9 27 9 l77 0 l0 136 l-135 0 q-7 0 -13.5 2.5 q-6.5 2.5 -12 7 q-5.5 4.5 -8.5 10 q-3 5.5 -3 11.5 q0 12 11.5 21.5 q11.5 9.5 26.5 9.5 l134 0 l0 99 q0 7 3 14 q3 7 7.5 12.5 q4.5 5.5 10 8.5 q5.5 3 11.5 3 q13 0 23 -11.5 q10 -11.5 10 -26.5 l0 -99 l118 0 l0 100 q0 7 3 13.5 q3 6.5 7.5 12 q4.5 5.5 10 8.5 q5.5 3 12 3 q6.5 0 12 -3 q5.5 -3 10 -8.5 q4.5 -5.5 7.5 -12 q3 -6.5 3 -13.5 l0 -100 l144 0 q7 0 14 -3 q7 -3 12.5 -8.5 q5.5 -5.5 8.5 -12 q3 -6.5 3 -13.5 l0 -186 q0 -6 -3 -13 q-3 -7 -8.5 -12.5 q-5.5 -5.5 -12 -8.5 q-6.5 -3 -13.5 -3 l-145 0 l0 -135 l175 0 q14 0 25 -8 q11 -8 11 -17 q1 -3 1 -6 q0 -4 -2 -7 q-1 -49 -3 -86 q-2 -39 -5 -67 q-3 -28 -7 -45 q-4 -17 -11 -26 q-1 -2 -2 -3.5 q-1 -1.5 -3 -1.5 q-9 -10 -19 -14.5 q-10 -4.5 -27 -6.5 q-10 0 -20 -0.5 q-10 -0.5 -15 -0.5 q-10 0 -22 1 q-12 -1 -23 6.5 q-11 7.5 -14 15.5 q-3 15 2.5 26 q5.5 11 18.5 10 q15 -1 24 -1 l18 0 q9 -1 14.5 1 q5.5 2 10.5 7 q5 6 8 19 q3 13 5.5 38 q2.5 25 3.5 63 q1 18 2 40 l-146 0 l0 -275 q0 -7 -3 -13.5 q-3 -6.5 -7.5 -11.5 q-4.5 -5 -10 -8.5 q-5.5 -3.5 -12 -3.5 q-6.5 0 -12 3.5 q-5.5 3.5 -10 8.5 q-4.5 5 -7.5 11.5 q-3 6.5 -3 13.5 l0 275 l-127 0 q-7 -55 -27 -106 q-21 -57 -61.5 -106 q-40.5 -49 -106.5 -89 q-9 -6 -22 -4.5 q-13 1.5 -18 8.5 q-11 11 -5.5 28 q5.5 17 21.5 30 q54 37 86 79 q32 42 49 88 q13 35 19 72 l-114 0 q-9 0 -17 4 q-2 1 -5 2 q-7 -6 -15 -6 q-8 0 -14 4 q-6 4 -10.5 10.5 ZM134 410 q-7 10 -4.5 25 q2.5 15 10.5 25 q63 67 118.5 156 q55.5 89 94.5 187 q3 6 8.5 11 q5.5 5 11.5 8 q6 3 12.5 4.5 q6.5 1.5 12.5 -0.5 q7 -3 12 -7.5 q5 -4.5 8 -11.5 q3 -7 3.5 -14.5 q0.5 -7.5 -2.5 -14.5 q-38 -93 -89 -179 l0 -639 q0 -7 -2.5 -14 q-2.5 -7 -7.5 -12 q-5 -5 -11 -8 q-6 -3 -12.5 -3 q-6.5 0 -12.5 3 q-6 3 -11 8.5 q-5 5.5 -8 12 q-3 6.5 -3 13.5 l0 533 q-34 -48 -71 -90 q-6 -7 -13.5 -10 q-7.5 -3 -15.5 -2.5 q-8 0.5 -15 5 q-7 4.5 -12 11.5 q0 1 -0.5 1.5 q-0.5 0.5 -0.5 1.5 Z" /><glyph glyph-name="uni4F5C" unicode="&#x4f5c;" d="M426.5 428 q-2.5 7 -2.5 15.5 q0 8.5 2.5 16 q2.5 7.5 7.5 14.5 q54 63 100.5 146 q46.5 83 80.5 174 q2 6 7 11 q5 5 11 9 q6 4 13 5 q7 1 13 0 q7 -2 12.5 -6.5 q5.5 -4.5 8.5 -11.5 q3 -7 4 -14.5 q1 -7.5 -3 -14.5 q-19 -51 -42 -100 l384 0 q7 0 14 -3 q7 -3 12 -8 q5 -5 8.5 -11 q3.5 -6 3.5 -12.5 q0 -6.5 -3.5 -12.5 q-3.5 -6 -8.5 -11 q-5 -5 -12 -8 q-7 -3 -14 -3 l-274 0 l0 -148 l252 0 q7 0 13.5 -2.5 q6.5 -2.5 12 -7.5 q5.5 -5 8.5 -10.5 q3 -5.5 3 -12 q0 -6.5 -3 -12.5 q-3 -6 -8.5 -11 q-5.5 -5 -12 -7.5 q-6.5 -2.5 -13.5 -2.5 l-252 0 l0 -155 l265 0 q7 0 14 -2.5 q7 -2.5 12.5 -7.5 q5.5 -5 8.5 -11 q3 -6 3 -12 q0 -7 -3 -13 q-3 -6 -8.5 -10.5 q-5.5 -4.5 -12.5 -7.5 q-7 -3 -14 -3 l-265 0 l0 -208 q0 -7 -3 -13.5 q-3 -6.5 -8.5 -12 q-5.5 -5.5 -11.5 -8.5 q-6 -3 -13 -3 l-2 0 q-7 0 -13 3 q-6 3 -11 8.5 q-5 5.5 -8 12 q-3 6.5 -3 13.5 l0 644 l-72 0 q-5 -10 -10 -19 q-50 -90 -107 -159 q-4 -6 -11.5 -10 q-7.5 -4 -14.5 -5 q-7 -1 -14 1 q-7 2 -13 6 q-5 4 -7.5 11 ZM155 409 q-7 11 -5 26 q2 15 11 25 q63 67 118.5 156 q55.5 89 95.5 187 q2 6 7 11 q5 5 11.5 8 q6.5 3 13.5 4.5 q7 1.5 13 -0.5 l0 -1 q7 -2 12.5 -7 q5.5 -5 8.5 -11.5 q3 -6.5 3 -14.5 q0 -8 -3 -15 q-38 -93 -88 -179 l0 -637 q0 -8 -3 -14.5 q-3 -6.5 -8 -12 q-5 -5.5 -11.5 -8.5 q-6.5 -3 -12.5 -3 l-2 0 q-7 0 -13 3 q-6 3 -11 8.5 q-5 5.5 -8 12 q-3 6.5 -3 13.5 l0 526 q-33 -45 -68 -85 q-6 -7 -14 -10 q-8 -3 -15.5 -2.5 q-7.5 0.5 -14.5 5 q-7 4.5 -12 12.5 l0 2 l-2 1 Z" /><glyph glyph-name="uni4F60" unicode="&#x4f60;" d="M877 360 q-3 7 -3 15 q0 8 2.5 15 q2.5 7 7.5 12.5 q5 5.5 12 7.5 q5 2 11 1 q6 -1 12 -3.5 q6 -2.5 11 -6.5 q5 -4 7 -10 q18 -33 34 -69.5 q16 -36.5 30 -72.5 q14 -36 25 -70.5 q11 -34.5 18 -65.5 q3 -11 -4 -23.5 q-7 -12.5 -18 -16.5 q-8 -2 -15.5 -1 q-7.5 1 -14 5.5 q-6.5 4.5 -11.5 11 q-5 6.5 -7 14.5 q-7 28 -17 60 q-10 32 -23 65.5 q-13 33.5 -27 67 q-14 33.5 -30 64.5 ZM434.5 85.5 q-3.5 6.5 -4.5 14.5 q-1 8 0.5 16.5 q1.5 8.5 5.5 15.5 q34 50 61 112.5 q27 62.5 45 131.5 q2 7 6.5 13 q4.5 6 10.5 10 q6 4 13 6 q7 2 13 0 q7 -1 12.5 -5.5 q5.5 -4.5 9.5 -10.5 q4 -6 5 -13.5 q1 -7.5 -1 -14.5 q-21 -78 -51 -147.5 q-30 -69.5 -66 -124.5 q-4 -6 -10.5 -10 q-6.5 -4 -13 -6.5 q-6.5 -2.5 -13.5 -1.5 q-7 1 -12 4 q-7 4 -10.5 10.5 ZM424 438 q-3 7 -3.5 15 q-0.5 8 1.5 16.5 q2 8.5 6 14.5 q42 63 74.5 144.5 q32.5 81.5 54.5 170.5 q2 6 6.5 12 q4.5 6 11 10 q6.5 4 13 6 q6.5 2 12.5 0 q7 -1 13 -6 q6 -5 9.5 -11.5 q3.5 -6.5 5 -13.5 q1.5 -7 -0.5 -15 q-19 -70 -43 -136 l387 0 q7 0 14 -2 q1 -1 3 -2 q0 1 1 2 q2 2 5 2 q1 0 3.5 0.5 q2.5 0.5 4.5 0.5 l3 1 q2 1 5 0.5 q3 -0.5 5 -1.5 l10 -1 q7 -2 12 -6 q5 -4 9 -10 q4 -6 6 -13 q2 -7 0 -14 q-7 -37 -15 -74.5 q-8 -37.5 -15 -67.5 q-3 -14 -14.5 -23.5 q-11.5 -9.5 -23.5 -6.5 q-11 3 -19.5 15.5 q-8.5 12.5 -5.5 26.5 q6 35 14 78 q2 15 5 29 q-4 -1 -8 -1 l-186 0 l0 -569 q0 -31 -7.5 -48.5 q-7.5 -17.5 -27.5 -26.5 q-16 -7 -41 -9.5 q-25 -2.5 -61 -3.5 q-12 -1 -22.5 7 q-10.5 8 -13.5 17 q-2 7 -2 14 q0 10 6.5 21 q6.5 11 24.5 11 q1 0 2 0 l32 0 q12 0 23 1 q9 0 12.5 3.5 q3.5 3.5 3.5 13.5 l0 569 l-134 0 q-9 0 -17 4 q-1 1 -2 1 q-34 -81 -76 -146 q-4 -7 -11 -10.5 q-7 -3.5 -14 -5 q-7 -1.5 -13.5 0 q-6.5 1.5 -12.5 4.5 q-6 5 -9 12 ZM134 410 q-7 10 -4.5 25 q2.5 15 10.5 25 q63 67 118.5 156 q55.5 89 94.5 187 q3 6 8.5 11 q5.5 5 11.5 8 q6 3 12.5 4.5 q6.5 1.5 12.5 -0.5 q7 -3 12 -7.5 q5 -4.5 8 -11.5 q3 -7 3.5 -14.5 q0.5 -7.5 -2.5 -14.5 q-38 -93 -89 -179 l0 -639 q0 -7 -2.5 -14 q-2.5 -7 -7.5 -12 q-5 -5 -11 -8 q-6 -3 -12.5 -3 q-6.5 0 -12.5 3 q-6 3 -11 8.5 q-5 5.5 -8 12 q-3 6.5 -3 13.5 l0 533 q-34 -48 -71 -90 q-6 -7 -13.5 -10 q-7.5 -3 -15.5 -2.5 q-8 0.5 -15 5 q-7 4.5 -12 11.5 q0 1 -0.5 1.5 q-0.5 0.5 -0.5 1.5 Z" /><glyph glyph-name="uni4F6C" unicode="&#x4f6c;" d="M370 185 q-2 8 -0.5 16.5 q1.5 8.5 7.5 15 q6 6.5 14 11.5 q168 86 305 211 l-277 0 q-8 0 -15 2.5 q-7 2.5 -12 7.5 q-5 5 -8 11 q-3 6 -3 12 q0 6 3 12 q3 6 8 10.5 q5 4.5 12 7 q7 2.5 15 2.5 l194 0 l0 139 l-145 0 q-6 0 -13 2.5 q-7 2.5 -12 7.5 q-5 5 -8 10.5 q-3 5.5 -3 12.5 q0 6 3 11.5 q3 5.5 8 10 q5 4.5 12 7.5 q7 3 13 3 l145 0 l0 94 q0 7 3 13.5 q3 6.5 8.5 12 q5.5 5.5 11.5 8.5 q6 3 13 3 q7 0 13 -3 q6 -3 11.5 -8.5 q5.5 -5.5 8 -12 q2.5 -6.5 2.5 -13.5 l0 -94 l146 0 q6 0 12.5 -3 q6.5 -3 12 -7.5 q5.5 -4.5 8.5 -10 q3 -5.5 3 -12 q0 -6.5 -3 -12 q-3 -5.5 -8.5 -10.5 q-5.5 -5 -12 -7.5 q-6.5 -2.5 -12.5 -2.5 l-146 0 l0 -139 l78 0 q112 118 193 259 q3 5 8 9.5 q5 4.5 11.5 7 q6.5 2.5 13.5 3.5 q7 1 13 -1 q7 -2 12 -8 q5 -6 7 -13 q2 -7 2 -14.5 q0 -7.5 -4 -14.5 q-72 -123 -163 -228 l167 0 q7 0 14 -2.5 q7 -2.5 12 -7 q5 -4.5 8 -10.5 q3 -6 3 -12 q0 -6 -3 -12 q-3 -6 -8 -11 q-5 -5 -12 -7.5 q-7 -2.5 -14 -2.5 l-227 0 q-18 -19 -37 -36 q-60 -57 -125 -106 q2 -6 2 -12 l0 -82 q34 12 68 25 q37 14 71.5 29 q34.5 15 65.5 30 q31 15 56 30 q9 5 23 3.5 q14 -1.5 22 -8.5 q6 -6 8.5 -14 q2.5 -8 1.5 -16 q-1 -8 -6 -14.5 q-5 -6.5 -13 -10.5 q-30 -15 -64.5 -30.5 q-34.5 -15.5 -72 -30 q-37.5 -14.5 -75.5 -27.5 q-38 -13 -76 -25 q-5 -1 -9 -1 l0 -99 q0 -12 2.5 -20 q2.5 -8 10 -12 q7.5 -4 21 -5.5 q13.5 -1.5 35.5 -1.5 l203 0 q14 0 23 3 q9 3 15 10.5 q6 7.5 10 22 q4 14.5 6 37.5 q6 7 11.5 15 q5.5 8 12 13.5 q6.5 5.5 13 8.5 q6.5 3 13.5 -1 q10 -3 17 -15 q7 -12 4 -24 q-4 -41 -10 -67.5 q-6 -26.5 -19 -42 q-13 -15.5 -35 -21.5 q-22 -6 -57 -6 l-212 0 q-40 0 -66 4.5 q-26 4.5 -41 16.5 q-15 12 -21.5 32.5 q-6.5 20.5 -6.5 51.5 l0 205 q-68 -47 -141 -85 q-10 -6 -24 -3.5 q-14 2.5 -21 10.5 q-6 7 -8 15 ZM150 410 q-7 10 -5.5 25 q1.5 15 9.5 25 q58 67 108 156.5 q50 89.5 85 186.5 q2 6 7 11 q5 5 11.5 8.5 q6.5 3.5 13 4.5 q6.5 1 12.5 -1 q7 -2 12 -7 q5 -5 8 -11.5 q3 -6.5 3.5 -14.5 q0.5 -8 -2.5 -14 q-35 -95 -82 -183 l0 -636 q0 -7 -2.5 -14 q-2.5 -7 -7.5 -12 q-5 -5 -11 -8 q-6 -3 -12.5 -3 q-6.5 0 -12.5 3 q-6 3 -11 8.5 q-5 5.5 -8 12 q-3 6.5 -3 13.5 l0 521 q-27 -41 -55 -77 q-6 -8 -13.5 -11 q-7.5 -3 -15 -2.5 q-7.5 0.5 -15 5 q-7.5 4.5 -12.5 11.5 q0 1 -0.5 1.5 q-0.5 0.5 -0.5 1.5 Z" /><glyph glyph-name="uni4F73" unicode="&#x4f73;" d="M431 446 q-3 6 -3 12.5 q0 6.5 3 12.5 q3 6 8.5 11 q5.5 5 12 8 q6.5 3 14.5 3 l230 0 l0 146 l-183 0 q-6 0 -13 3 q-7 3 -12 8 q-5 5 -8.5 11 q-3.5 6 -3.5 12 q0 7 3.5 12.5 q3.5 5.5 8.5 10.5 q5 5 12 7.5 q7 2.5 13 2.5 l183 0 l0 96 q0 7 2.5 14 q2.5 7 8 12 q5.5 5 11.5 8.5 q6 3.5 13 3.5 l1 0 q7 0 13.5 -3.5 q6.5 -3.5 11.5 -8.5 q5 -5 7.5 -12 q2.5 -7 2.5 -14 l0 -96 l190 0 q6 0 13 -2.5 q7 -2.5 12.5 -7.5 q5.5 -5 8.5 -10.5 q3 -5.5 3 -12.5 q0 -6 -3 -12 q-3 -6 -8.5 -11 q-5.5 -5 -12.5 -8 q-7 -3 -13 -3 l-190 0 l0 -146 l234 0 q8 0 14.5 -3 q6.5 -3 12 -8 q5.5 -5 8.5 -11 q3 -6 3 -12.5 q0 -6.5 -3 -12.5 q-3 -6 -8.5 -10.5 q-5.5 -4.5 -12 -8 q-6.5 -3.5 -14.5 -3.5 l-535 0 q-8 0 -14.5 3.5 q-6.5 3.5 -12 8 q-5.5 4.5 -8.5 10.5 ZM397 -19 q-3 6 -3 12.5 q0 6.5 3 13 q3 6.5 8.5 11 q5.5 4.5 12.5 7.5 q7 3 13 3 l265 0 l0 172 l-203 0 q-6 0 -13 2.5 q-7 2.5 -12.5 7.5 q-5.5 5 -8.5 11 q-3 6 -3 13 q0 7 3 13 q3 6 8.5 10.5 q5.5 4.5 12.5 7.5 q7 3 13 3 l203 0 l0 78 q0 8 2.5 15 q2.5 7 8 12 q5.5 5 11.5 8.5 q6 3.5 13 3.5 l1 0 q7 0 13.5 -3.5 q6.5 -3.5 11.5 -8.5 q5 -5 7.5 -12 q2.5 -7 2.5 -15 l0 -78 l207 0 q6 0 13 -3 q7 -3 12.5 -7.5 q5.5 -4.5 8.5 -10.5 q3 -6 3 -13 q0 -7 -3 -13 q-3 -6 -8.5 -11 q-5.5 -5 -12.5 -7.5 q-7 -2.5 -13 -2.5 l-207 0 l0 -172 l255 0 q7 0 14 -3 q7 -3 12 -7.5 q5 -4.5 8.5 -11 q3.5 -6.5 3.5 -13 q0 -6.5 -3.5 -12.5 q-3.5 -6 -8.5 -11 q-5 -5 -12 -8 q-7 -3 -14 -3 l-591 0 q-6 0 -13 3 q-7 3 -12.5 8 q-5.5 5 -8.5 11 ZM158 411 q-7 9 -5.5 24 q1.5 15 9.5 24 q58 67 109 156.5 q51 89.5 86 187.5 q3 6 8 11 q5 5 11 8.5 q6 3.5 13 4.5 q7 1 12 -1 q7 -2 12.5 -7 q5.5 -5 8.5 -11.5 q3 -6.5 3.5 -14 q0.5 -7.5 -2.5 -14.5 q-36 -95 -84 -184 l0 -637 q0 -7 -2.5 -13.5 q-2.5 -6.5 -8 -12 q-5.5 -5.5 -11.5 -8.5 q-6 -3 -13 -3 q-7 0 -13 3 q-6 3 -11 8.5 q-5 5.5 -8.5 12 q-3.5 6.5 -3.5 13.5 l0 518 q-25 -38 -52 -72 q-6 -7 -14 -10.5 q-8 -3.5 -16 -3 q-8 0.5 -15 5 q-7 4.5 -12 12.5 l-1 3 Z" /><glyph glyph-name="uni4F7F" unicode="&#x4f7f;" d="M769 347 l184 0 q2 0 4 2 q2 2 2 4 l0 141 q0 3 -2 5 q-2 2 -4 2 l-183 0 l0 -106 q0 -24 -1 -48 ZM516 353 q0 -2 2 -4 q2 -2 4 -2 l177 0 q1 24 1 48 l0 106 l-178 0 q-2 0 -4 -2 q-2 -2 -2 -5 l0 -141 ZM407 -45 q0 7 5.5 18.5 q5.5 11.5 24.5 19.5 q93 31 146 74 q8 6 15 13 q-15 11 -30 24 q-55 46 -94 104 q-5 6 -6 14 q-1 8 0.5 14.5 q1.5 6.5 6.5 12.5 q5 6 12 8 q9 3 21 -2.5 q12 -5.5 18 -13.5 q34 -50 84 -90 q15 -13 31 -24 q12 17 21 35 q26 51 32 110 q1 7 1 14 l-208 0 q-6 0 -13 3 q-7 3 -12.5 8 q-5.5 5 -8.5 12 q-3 7 -3 14 l0 201 q0 7 3 14 q3 7 8.5 12 q5.5 5 12.5 8 q7 3 13 3 l213 0 l0 100 l-242 0 q-7 0 -14 3 q-7 3 -12.5 7.5 q-5.5 4.5 -8.5 10.5 q-3 6 -3 13 q0 6 3 11.5 q3 5.5 8.5 10.5 q5.5 5 12.5 8 q7 3 14 3 l242 0 l0 70 q0 7 2.5 13.5 q2.5 6.5 8 12 q5.5 5.5 12 8.5 q6.5 3 12.5 3 q7 0 13 -3 q6 -3 11 -8.5 q5 -5.5 8 -12 q3 -6.5 3 -13.5 l0 -70 l254 0 q7 0 13.5 -3 q6.5 -3 12 -8 q5.5 -5 8.5 -10.5 q3 -5.5 3 -12 q0 -6.5 -3 -12.5 q-3 -6 -8.5 -10.5 q-5.5 -4.5 -12 -7.5 q-6.5 -3 -13.5 -3 l-254 0 l0 -100 l221 0 q7 0 13.5 -3 q6.5 -3 12 -8 q5.5 -5 8.5 -12 q3 -7 3 -14 l0 -201 q0 -7 -3 -14 q-3 -7 -8.5 -12 q-5.5 -5 -12 -8 q-6.5 -3 -13.5 -3 l-227 0 q-1 -15 -3 -29 q-9 -69 -41 -130 q-10 -19 -22 -36 q11 -6 23 -12 q62 -32 135 -53.5 q73 -21.5 154 -34.5 q23 -4 29 -15 q6 -11 6 -18 q0 -9 -6 -19 q-5 -7 -16 -12.5 q-11 -5.5 -21 -3.5 q-88 14 -166.5 38.5 q-78.5 24.5 -145.5 60.5 q-18 9 -35 19 q-14 -14 -30 -27 q-62 -52 -170 -87 q-10 -5 -23 -0.5 q-13 4.5 -19 11.5 q-6 8 -6 17 ZM139 417 q-7 11 -4.5 26 q2.5 15 10.5 25 q65 66 122.5 154.5 q57.5 88.5 98.5 186.5 q3 6 8 11 q5 5 11.5 8 q6.5 3 13 4 q6.5 1 11.5 -1 q7 -2 12.5 -7 q5.5 -5 8.5 -11.5 q3 -6.5 3 -14.5 q0 -8 -3 -14 q-39 -90 -88 -173 l0 -657 q0 -7 -3 -14 q-3 -7 -8 -12.5 q-5 -5.5 -11 -8.5 q-6 -3 -12.5 -3 q-6.5 0 -12.5 3 q-6 3 -11 8.5 q-5 5.5 -8 12.5 q-3 7 -3 14 l0 553 q-38 -52 -78 -97 q-7 -7 -14.5 -9.5 q-7.5 -2.5 -15.5 -2 q-8 0.5 -15 5 q-7 4.5 -11 12.5 l-1 1 Z" /></font>
</defs>
</svg>
