<?xml version="1.0" standalone="no"?><!DOCTYPE svg PUBLIC "-//W3C//DTD SVG 1.1//EN" "http://www.w3.org/Graphics/SVG/1.1/DTD/svg11.dtd" ><svg xmlns="http://www.w3.org/2000/svg"><metadata></metadata><defs><font id="JetBrainsMapleMono-Thin-1.2304.70-beta36" horiz-adv-x="1200"><font-face font-family="JetBrains Maple Mono Thin" font-weight="100" font-stretch="normal" units-per-em="1000" panose-1="2 0 0 9 0 0 0 0 0 0" ascent="1020" descent="-300" x-height="0" bbox="40 -180 1074 870" underline-thickness="50" underline-position="-155" unicode-range="U+0022-9f99" /><missing-glyph horiz-adv-x="600" d="M160 50 l300 0 l0 571 l-300 -571 ZM140 109 l300 571 l-300 0 l0 -571 ZM90 0 l0 730 l420 0 l0 -730 l-420 0 Z" /><glyph glyph-name="quotedbl" unicode="&quot;" d="M167 730 l66 0 l-6 -300 l-53 0 l-7 300 ZM367 730 l66 0 l-6 -300 l-53 0 l-7 300 Z" /><glyph glyph-name="dollar" unicode="$" d="M325 36 q66 5 103 42 q37 37 37 99 q0 58 -33 101 q-33 43 -90 60 l-17 5 l0 -307 ZM155 563 q0 -54 31 -94.5 q31 -40.5 84 -57.5 l15 -5 l0 288 q-60 -5 -95 -40 q-35 -35 -35 -91 ZM85 185 l50 0 q0 -64 40.5 -104 q40.5 -40 109.5 -45 l0 319 l-27 8 q-72 22 -112.5 73.5 q-40.5 51.5 -40.5 122.5 q0 79 48.5 127 q48.5 48 131.5 53 l0 131 l40 0 l0 -131 q83 -5 131.5 -56 q48.5 -51 48.5 -135 l-50 0 q0 62 -35 101 q-35 39 -95 45 l0 -300 l29 -9 q75 -23 118 -78.5 q43 -55.5 43 -129.5 q0 -81 -51.5 -131 q-51.5 -50 -138.5 -55 l0 -131 l-40 0 l0 131 q-92 5 -146 57 q-54 52 -54 137 Z" /><glyph glyph-name="comma" unicode="," d="M220 -160 l59 306 l70 0 l-71 -306 l-58 0 Z" /><glyph glyph-name="hyphen" unicode="-" d="M140 308 l0 45 l320 0 l0 -45 l-320 0 Z" /><glyph glyph-name="period" unicode="." d="M227 65 q0 32 20.5 52.5 q20.5 20.5 52.5 20.5 q32 0 52.5 -20.5 q20.5 -20.5 20.5 -52.5 q0 -33 -20.5 -54 q-20.5 -21 -52.5 -21 q-32 0 -52.5 21 q-20.5 21 -20.5 54 Z" /><glyph glyph-name="zero" unicode="0" d="M250 368 q0 23 14 34.5 q14 11.5 36 11.5 q23 0 36.5 -11.5 q13.5 -11.5 13.5 -34.5 q0 -22 -13.5 -34.5 q-13.5 -12.5 -36.5 -12.5 q-22 0 -36 12.5 q-14 12.5 -14 34.5 ZM145 205 q0 -79 42 -125 q42 -46 114 -46 q71 0 112.5 46 q41.5 46 41.5 125 l0 320 q0 79 -41.5 125 q-41.5 46 -112.5 46 q-72 0 -114 -46 q-42 -46 -42 -125 l0 -320 ZM95 205 l0 320 q0 99 55.5 157 q55.5 58 150.5 58 q94 0 149 -58 q55 -58 55 -157 l0 -320 q0 -99 -55 -157 q-55 -58 -149 -58 q-95 0 -150.5 58 q-55.5 58 -55.5 157 Z" /><glyph glyph-name="one" unicode="1" d="M100 0 l0 45 l207 0 l0 640 l-199 -146 l0 56 l183 135 l66 0 l0 -685 l173 0 l0 -45 l-430 0 Z" /><glyph glyph-name="two" unicode="2" d="M84 535 q0 61 27 107 q27 46 75 72 q48 26 111 26 q63 0 111 -25.5 q48 -25.5 75 -71.5 q27 -46 27 -107 q0 -58 -30 -121.5 q-30 -63.5 -86 -121.5 l-236 -248 l362 0 l0 -45 l-423 0 l0 45 l263 278 q48 50 74 105.5 q26 55.5 26 107.5 q0 71 -45 115.5 q-45 44.5 -118 44.5 q-73 0 -118 -45 q-45 -45 -45 -116 l-50 0 Z" /><glyph glyph-name="three" unicode="3" d="M85 195 l50 0 q0 -73 43 -116.5 q43 -43.5 112 -43.5 q69 0 112 43.5 q43 43.5 43 116.5 l0 66 q0 71 -42 110.5 q-42 39.5 -113 39.5 l-61 0 l0 43 l201 231 l-320 0 l0 45 l374 0 l0 -48 l-195 -226 q93 0 149.5 -52.5 q56.5 -52.5 56.5 -142.5 l0 -66 q0 -94 -56.5 -149.5 q-56.5 -55.5 -148.5 -55.5 q-92 0 -148.5 55.5 q-56.5 55.5 -56.5 149.5 Z" /><glyph glyph-name="four" unicode="4" d="M85 170 l0 100 l286 459 l55 0 l-291 -473 l0 -41 l285 0 l0 205 l50 0 l0 -420 l-50 0 l0 170 l-335 0 Z" /><glyph glyph-name="five" unicode="5" d="M90 195 l50 0 q0 -73 43 -116.5 q43 -43.5 112 -43.5 q69 0 112 43.5 q43 43.5 43 116.5 l0 48 q0 79 -40.5 122 q-40.5 43 -114.5 43 l-180 0 l0 322 l365 0 l0 -45 l-317 0 l0 -232 l132 0 q98 0 151.5 -55 q53.5 -55 53.5 -155 l0 -48 q0 -94 -56.5 -149.5 q-56.5 -55.5 -148.5 -55.5 q-92 0 -148.5 55.5 q-56.5 55.5 -56.5 149.5 Z" /><glyph glyph-name="six" unicode="6" d="M128 210 q0 -50 20.5 -90 q20.5 -40 60 -62.5 q39.5 -22.5 91.5 -22.5 q51 0 90 22.5 q39 22.5 60.5 63.5 q21.5 41 21.5 94 q0 54 -21.5 94.5 q-21.5 40.5 -60.5 63 q-39 22.5 -90 22.5 q-51 0 -89.5 -22.5 q-38.5 -22.5 -60.5 -64 q-22 -41.5 -22 -98.5 ZM78 220 q0 47 17.5 93.5 q17.5 46.5 43.5 92.5 l187 324 l57 0 l-205 -343 l4 -3 q15 18 51.5 35.5 q36.5 17.5 86.5 17.5 q60 0 105.5 -28 q45.5 -28 71 -78 q25.5 -50 25.5 -116 q0 -66 -28 -116.5 q-28 -50.5 -78 -79 q-50 -28.5 -116 -29.5 q-66 0 -116 29 q-50 29 -78 81 q-28 52 -28 120 Z" /><glyph glyph-name="seven" unicode="7" d="M90 530 l0 200 l445 0 l0 -49 l-273 -681 l-55 0 l277 685 l-344 0 l0 -155 l-50 0 Z" /><glyph glyph-name="eight" unicode="8" d="M152 547 q0 -65 41 -105.5 q41 -40.5 107 -40.5 q66 0 107 40.5 q41 40.5 41 105.5 q0 66 -41 107.5 q-41 41.5 -107 41.5 q-66 0 -107 -41.5 q-41 -41.5 -41 -107.5 ZM132 193 q0 -70 46.5 -114 q46.5 -44 121.5 -44 q75 0 121.5 44 q46.5 44 46.5 114 q0 73 -46.5 118 q-46.5 45 -121.5 45 q-75 0 -121.5 -45 q-46.5 -45 -46.5 -118 ZM82 196 q0 67 39 118 q39 51 102 67 l0 3 q-54 11 -87.5 56.5 q-33.5 45.5 -33.5 106.5 q0 57 25 100.5 q25 43.5 70 68 q45 24.5 103 24.5 q59 0 103.5 -24.5 q44.5 -24.5 69.5 -68 q25 -43.5 25 -100.5 q0 -61 -33.5 -106.5 q-33.5 -45.5 -87.5 -56.5 l0 -3 q63 -16 102 -67 q39 -51 39 -118 q0 -61 -27.5 -107.5 q-27.5 -46.5 -76.5 -72.5 q-49 -26 -114 -26 q-64 0 -113.5 26 q-49.5 26 -77 72.5 q-27.5 46.5 -27.5 107.5 Z" /><glyph glyph-name="nine" unicode="9" d="M130 510 q0 -52 22 -92 q22 -40 60.5 -62 q38.5 -22 87.5 -22 q77 0 124 49 q47 49 47 133 q0 53 -21 93 q-21 40 -60 63 q-39 23 -90 23 q-49 0 -87.5 -23 q-38.5 -23 -60.5 -64.5 q-22 -41.5 -22 -97.5 ZM80 510 q0 69 28.5 120.5 q28.5 51.5 78 80.5 q49.5 29 113.5 29 q65 0 114.5 -29 q49.5 -29 77.5 -80.5 q28 -51.5 28 -120.5 q0 -46 -13 -92.5 q-13 -46.5 -41 -93.5 l-196 -324 l-58 0 l213 343 l-3 3 q-15 -18 -53.5 -37 q-38.5 -19 -88.5 -19 q-58 0 -103 27.5 q-45 27.5 -71 77 q-26 49.5 -26 115.5 Z" /><glyph glyph-name="colon" unicode=":" d="M247 436 q-20 20 -20 52 q0 32 20 52 q20 20 53 20 q33 0 53 -20 q20 -20 20 -52 q0 -32 -20 -52 q-20 -20 -53 -20 q-33 0 -53 20 ZM247 10 q-20 20 -20 52 q0 32 20 52 q20 20 53 20 q33 0 53 -20 q20 -20 20 -52 q0 -32 -20 -52 q-20 -20 -53 -20 q-33 0 -53 20 Z" /><glyph glyph-name="semicolon" unicode=";" d="M224 490 q0 32 19.5 51 q19.5 19 51.5 19 l10 0 q32 0 51 -19 q19 -19 19 -51 q0 -31 -19 -50.5 q-19 -19.5 -51 -19.5 l-10 0 q-32 0 -51.5 19.5 q-19.5 19.5 -19.5 50.5 ZM215 -160 l59 306 l70 0 l-71 -306 l-58 0 Z" /><glyph glyph-name="A" unicode="A" d="M186 255 l226 0 l-79 295 q-14 54 -22.5 90.5 q-8.5 36.5 -10.5 47.5 q-2 -11 -11 -47.5 q-9 -36.5 -23 -90.5 l-80 -295 ZM68 0 l201 730 l62 0 l201 -730 l-52 0 l-56 210 l-250 0 l-56 -210 l-50 0 Z" /><glyph glyph-name="B" unicode="B" d="M160 398 l138 0 q71 0 110.5 38 q39.5 38 39.5 105 q0 67 -40 105 q-40 38 -110 38 l-138 0 l0 -286 ZM160 46 l141 0 q77 0 121 41 q44 41 44 112 q0 71 -44 112.5 q-44 41.5 -121 41.5 l-141 0 l0 -307 ZM110 0 l0 730 l188 0 q91 0 145.5 -51 q54.5 -51 54.5 -137 q0 -37 -16 -71 q-16 -34 -44 -57 q-28 -23 -63 -30 l0 -3 q40 -6 71.5 -32.5 q31.5 -26.5 50 -65 q18.5 -38.5 18.5 -83.5 q0 -91 -57.5 -145.5 q-57.5 -54.5 -156.5 -54.5 l-191 0 Z" /><glyph glyph-name="C" unicode="C" d="M109 190 l0 350 q0 92 55 146 q55 54 146 54 q93 0 148.5 -57 q55.5 -57 55.5 -153 l-50 0 q0 77 -41.5 121 q-41.5 44 -112.5 44 q-70 0 -110.5 -41.5 q-40.5 -41.5 -40.5 -113.5 l0 -350 q0 -72 40.5 -113.5 q40.5 -41.5 110.5 -41.5 q72 0 113 44.5 q41 44.5 41 120.5 l50 0 q0 -96 -55.5 -153 q-55.5 -57 -148.5 -57 q-91 0 -146 54.5 q-55 54.5 -55 145.5 Z" /><glyph glyph-name="D" unicode="D" d="M160 46 l110 0 q79 0 127 47.5 q48 47.5 48 126.5 l0 290 q0 78 -48.5 126 q-48.5 48 -126.5 48 l-110 0 l0 -638 ZM110 0 l0 730 l160 0 q68 0 118.5 -27.5 q50.5 -27.5 78.5 -77 q28 -49.5 28 -115.5 l0 -290 q0 -66 -28 -115.5 q-28 -49.5 -78.5 -77 q-50.5 -27.5 -118.5 -27.5 l-160 0 Z" /><glyph glyph-name="E" unicode="E" d="M120 0 l0 730 l390 0 l0 -46 l-340 0 l0 -281 l305 0 l0 -45 l-305 0 l0 -312 l340 0 l0 -46 l-390 0 Z" /><glyph glyph-name="F" unicode="F" d="M115 0 l0 730 l410 0 l0 -46 l-360 0 l0 -292 l325 0 l0 -46 l-325 0 l0 -346 l-50 0 Z" /><glyph glyph-name="G" unicode="G" d="M105 190 l0 350 q0 92 55 146 q55 54 146 54 q93 0 148.5 -57 q55.5 -57 55.5 -153 l-50 0 q0 77 -41.5 121 q-41.5 44 -112.5 44 q-70 0 -110.5 -41.5 q-40.5 -41.5 -40.5 -113.5 l0 -350 q0 -72 40.5 -113.5 q40.5 -41.5 110.5 -41.5 q72 0 113 44.5 q41 44.5 41 120.5 l0 118 l-173 0 l0 46 l223 0 l0 -164 q0 -96 -55.5 -153 q-55.5 -57 -148.5 -57 q-91 0 -146 54.5 q-55 54.5 -55 145.5 Z" /><glyph glyph-name="H" unicode="H" d="M110 0 l0 730 l50 0 l0 -328 l280 0 l0 328 l50 0 l0 -730 l-50 0 l0 357 l-280 0 l0 -357 l-50 0 Z" /><glyph glyph-name="I" unicode="I" d="M120 0 l0 46 l156 0 l0 638 l-156 0 l0 46 l360 0 l0 -46 l-154 0 l0 -638 l154 0 l0 -46 l-360 0 Z" /><glyph glyph-name="J" unicode="J" d="M70 200 l50 0 q0 -77 41.5 -121 q41.5 -44 113.5 -44 q72 0 113.5 44 q41.5 44 41.5 120 l0 531 l50 0 l0 -531 q0 -97 -55 -153 q-55 -56 -150 -56 q-96 0 -150.5 56 q-54.5 56 -54.5 154 Z" /><glyph glyph-name="K" unicode="K" d="M110 0 l0 730 l50 0 l0 -329 l153 0 l162 329 l55 0 l-172 -349 l182 -381 l-59 0 l-169 356 l-152 0 l0 -356 l-50 0 Z" /><glyph glyph-name="L" unicode="L" d="M140 0 l0 730 l50 0 l0 -684 l355 0 l0 -46 l-405 0 Z" /><glyph glyph-name="M" unicode="M" d="M92 0 l0 730 l71 0 l138 -369 l136 369 l71 0 l0 -730 l-49 0 l0 440 q0 51 1 102.5 q1 51.5 3 94.5 q2 43 4 70 l-139 -382 l-55 0 l-142 380 q3 -27 5 -70 q2 -43 3.5 -93.5 q1.5 -50.5 1.5 -101.5 l0 -440 l-49 0 Z" /><glyph glyph-name="N" unicode="N" d="M110 0 l0 730 l68 0 l268 -675 q-1 20 -2 44 q-1 24 -1.5 44 q-0.5 20 -0.5 27 l0 560 l48 0 l0 -730 l-69 0 l-265 675 q1 -14 1.5 -45.5 q0.5 -31.5 0.5 -69.5 l0 -560 l-48 0 Z" /><glyph glyph-name="O" unicode="O" d="M155 190 q0 -74 38 -115 q38 -41 107 -41 q69 0 107 41 q38 41 38 115 l0 350 q0 74 -38.5 115 q-38.5 41 -106.5 41 q-68 0 -106.5 -41 q-38.5 -41 -38.5 -115 l0 -350 ZM105 190 l0 350 q0 91 53.5 145.5 q53.5 54.5 141.5 54.5 q89 0 142 -54.5 q53 -54.5 53 -145.5 l0 -350 q0 -91 -53 -145.5 q-53 -54.5 -142 -54.5 q-88 0 -141.5 54.5 q-53.5 54.5 -53.5 145.5 Z" /><glyph glyph-name="P" unicode="P" d="M160 370 l165 0 q73 0 116.5 42.5 q43.5 42.5 43.5 114.5 q0 73 -43 115 q-43 42 -117 42 l-165 0 l0 -314 ZM110 0 l0 730 l215 0 q96 0 153 -55.5 q57 -55.5 57 -147.5 q0 -92 -57.5 -147.5 q-57.5 -55.5 -152.5 -55.5 l-165 0 l0 -324 l-50 0 Z" /><glyph glyph-name="Q" unicode="Q" d="M155 190 q0 -73 38.5 -114 q38.5 -41 107.5 -41 q68 0 106 41 q38 41 38 114 l0 350 q0 73 -38 114 q-38 41 -106 41 q-69 0 -107.5 -40.5 q-38.5 -40.5 -38.5 -114.5 l0 -350 ZM105 190 l0 350 q0 92 53 146 q53 54 143 54 q60 0 103.5 -26 q43.5 -26 67 -71 q23.5 -45 23.5 -103 l0 -350 q0 -63 -26 -110 q-26 -47 -74 -70 l115 -190 l-61 0 l-106 173 q-9 -1 -20 -2 q-11 -1 -22 -1 q-89 0 -142.5 54.5 q-53.5 54.5 -53.5 145.5 Z" /><glyph glyph-name="R" unicode="R" d="M160 375 l155 0 q73 0 116.5 42.5 q43.5 42.5 43.5 112.5 q0 71 -43.5 112.5 q-43.5 41.5 -116.5 41.5 l-155 0 l0 -309 ZM110 0 l0 730 l205 0 q97 0 153.5 -54.5 q56.5 -54.5 56.5 -147.5 q0 -79 -44.5 -132 q-44.5 -53 -121.5 -64 l171 -332 l-60 0 l-165 330 l-145 0 l0 -330 l-50 0 Z" /><glyph glyph-name="S" unicode="S" d="M85 200 l49 0 q0 -73 47.5 -119 q47.5 -46 123.5 -46 q71 0 116 40.5 q45 40.5 45 104.5 q0 58 -31 101.5 q-31 43.5 -84 59.5 l-102 31 q-66 20 -105 70.5 q-39 50.5 -39 116.5 q0 54 25 94.5 q25 40.5 70 63.5 q45 23 104 23 q59 0 104 -24.5 q45 -24.5 70 -68.5 q25 -44 25 -102 l-49 0 q0 68 -41.5 109.5 q-41.5 41.5 -109.5 41.5 q-66 0 -107.5 -37 q-41.5 -37 -41.5 -96 q0 -51 29 -90 q29 -39 78 -55 l102 -32 q70 -22 111 -76.5 q41 -54.5 41 -126.5 q0 -57 -26.5 -100.5 q-26.5 -43.5 -73.5 -68 q-47 -24.5 -110 -24.5 q-65 0 -114.5 26.5 q-49.5 26.5 -77.5 74 q-28 47.5 -28 109.5 Z" /><glyph glyph-name="T" unicode="T" d="M60 685 l0 45 l480 0 l0 -45 l-214 0 l0 -685 l-50 0 l0 685 l-216 0 Z" /><glyph glyph-name="U" unicode="U" d="M108 190 l0 540 l50 0 l0 -540 q0 -73 38 -114 q38 -41 105 -41 q67 0 104 41 q37 41 37 114 l0 540 l50 0 l0 -540 q0 -91 -52 -145.5 q-52 -54.5 -139 -54.5 q-88 0 -140.5 54.5 q-52.5 54.5 -52.5 145.5 Z" /><glyph glyph-name="V" unicode="V" d="M68 730 l53 0 l148 -550 q12 -43 20 -81.5 q8 -38.5 12 -58.5 q4 20 12.5 58.5 q8.5 38.5 20.5 81.5 l149 550 l49 0 l-200 -730 l-64 0 l-200 730 Z" /><glyph glyph-name="W" unicode="W" d="M40 730 l46 0 l68 -540 q3 -18 5.5 -46 q2.5 -28 6 -57 q3.5 -29 5.5 -52 q3 23 6.5 52 q3.5 29 7.5 57 q4 28 6 46 l80 540 l64 0 l77 -540 q3 -18 6 -46 q3 -28 6.5 -57 q3.5 -29 6.5 -52 q3 23 7 52 q4 29 7.5 57 q3.5 28 5.5 46 l62 540 l47 0 l-91 -730 l-72 0 l-75 530 q-5 38 -10 84.5 q-5 46.5 -9 75.5 q-4 -28 -9.5 -74.5 q-5.5 -46.5 -11.5 -85.5 l-82 -530 l-70 0 l-90 730 Z" /><glyph glyph-name="X" unicode="X" d="M53 0 l217 380 l-202 350 l56 0 l122 -222 q9 -17 25.5 -45 q16.5 -28 28.5 -48 q11 20 27.5 48 q16.5 28 26.5 45 l124 222 l54 0 l-202 -348 l217 -382 l-56 0 l-136 252 q-9 16 -25.5 44 q-16.5 28 -28.5 49 l-28 -49 q-16 -28 -25 -44 l-140 -252 l-55 0 Z" /><glyph glyph-name="Y" unicode="Y" d="M50 730 l53 0 l165 -330 q11 -22 20 -41 q9 -19 13 -29 q5 9 13 28.5 q8 19.5 19 41.5 l165 330 l52 0 l-225 -450 l0 -280 l-50 0 l0 280 l-225 450 Z" /><glyph glyph-name="Z" unicode="Z" d="M90 0 l0 50 l359 634 l-355 0 l0 46 l403 0 l0 -57 l-356 -627 l369 0 l0 -46 l-420 0 Z" /><glyph glyph-name="underscore" unicode="_" d="M60 -25 l480 0 l0 -45 l-480 0 l0 45 Z" /><glyph glyph-name="a" unicode="a" d="M134 163 q0 -57 39.5 -92.5 q39.5 -35.5 106.5 -35.5 q74 0 117 38 q43 38 43 104 l0 99 l-188 0 q-52 0 -85 -32 q-33 -32 -33 -81 ZM84 159 q0 71 46.5 116 q46.5 45 122.5 45 l187 0 l0 55 q0 68 -35.5 104 q-35.5 36 -100.5 36 q-63 0 -101.5 -29 q-38.5 -29 -41.5 -76 l-50 0 q4 68 56.5 109 q52.5 41 137.5 41 q89 0 137 -48 q48 -48 48 -137 l0 -375 l-50 0 l0 91 q-17 -46 -63.5 -73.5 q-46.5 -27.5 -110.5 -27.5 q-85 0 -133.5 47.5 q-48.5 47.5 -48.5 121.5 Z" /><glyph glyph-name="b" unicode="b" d="M160 189 q0 -73 38 -114.5 q38 -41.5 105 -41.5 q67 0 104.5 41.5 q37.5 41.5 37.5 114.5 l0 171 q0 74 -37.5 115.5 q-37.5 41.5 -104.5 41.5 q-68 0 -105.5 -41.5 q-37.5 -41.5 -37.5 -115.5 l0 -171 ZM110 0 l0 730 l50 0 l0 -263 q17 43 57 68 q40 25 96 25 q83 0 132.5 -55 q49.5 -55 49.5 -145 l0 -171 q0 -90 -49.5 -144.5 q-49.5 -54.5 -132.5 -54.5 q-56 0 -96 25 q-40 25 -57 68 l0 -83 l-50 0 Z" /><glyph glyph-name="c" unicode="c" d="M112 190 l0 170 q0 91 53.5 145.5 q53.5 54.5 143.5 54.5 q91 0 144.5 -51.5 q53.5 -51.5 53.5 -138.5 l-50 0 q0 68 -39.5 106 q-39.5 38 -108.5 38 q-68 0 -107.5 -40.5 q-39.5 -40.5 -39.5 -113.5 l0 -170 q0 -72 39.5 -113 q39.5 -41 107.5 -41 q69 0 108.5 38.5 q39.5 38.5 39.5 105.5 l50 0 q0 -87 -53.5 -138.5 q-53.5 -51.5 -144.5 -51.5 q-91 0 -144 54.5 q-53 54.5 -53 145.5 Z" /><glyph glyph-name="d" unicode="d" d="M155 189 q0 -73 37.5 -114.5 q37.5 -41.5 104.5 -41.5 q68 0 105.5 41.5 q37.5 41.5 37.5 114.5 l0 171 q0 74 -37.5 115.5 q-37.5 41.5 -105.5 41.5 q-67 0 -104.5 -41.5 q-37.5 -41.5 -37.5 -115.5 l0 -171 ZM105 189 l0 171 q0 90 50 145 q50 55 132 55 q56 0 96 -25 q40 -25 57 -68 l0 263 l50 0 l0 -730 l-50 0 l0 83 q-17 -43 -57 -68 q-40 -25 -96 -25 q-82 0 -132 54.5 q-50 54.5 -50 144.5 Z" /><glyph glyph-name="e" unicode="e" d="M155 308 l290 0 l0 52 q0 72 -37.5 114 q-37.5 42 -106.5 42 q-70 0 -108 -41.5 q-38 -41.5 -38 -114.5 l0 -52 ZM105 190 l0 170 q0 91 52.5 145.5 q52.5 54.5 143.5 54.5 q91 0 142.5 -54.5 q51.5 -54.5 51.5 -145.5 l0 -95 l-340 0 l0 -75 q0 -72 38 -114 q38 -42 108 -42 q56 0 94 27 q38 27 46 74 l50 0 q-12 -67 -62.5 -106 q-50.5 -39 -127.5 -39 q-92 0 -144 54.5 q-52 54.5 -52 145.5 Z" /><glyph glyph-name="f" unicode="f" d="M65 429 l0 45 l170 0 l0 131 q0 59 34.5 92 q34.5 33 95.5 33 l153 0 l0 -45 l-153 0 q-38 0 -59 -21 q-21 -21 -21 -59 l0 -131 l233 0 l0 -45 l-233 0 l0 -429 l-50 0 l0 429 l-170 0 Z" /><glyph glyph-name="g" unicode="g" d="M155 239 q0 -73 37.5 -114.5 q37.5 -41.5 104.5 -41.5 q68 0 105.5 41.5 q37.5 41.5 37.5 114.5 l0 121 q0 74 -37.5 115.5 q-37.5 41.5 -105.5 41.5 q-67 0 -104.5 -41.5 q-37.5 -41.5 -37.5 -115.5 l0 -121 ZM105 239 l0 121 q0 90 50 145 q50 55 132 55 q58 0 98.5 -27 q40.5 -27 54.5 -74 l0 91 l50 0 l0 -565 q0 -165 -171 -165 l-145 0 l0 45 l145 0 q121 0 121 120 l0 156 q-14 -47 -54.5 -74 q-40.5 -27 -98.5 -27 q-82 0 -132 54.5 q-50 54.5 -50 144.5 Z" /><glyph glyph-name="h" unicode="h" d="M110 0 l0 730 l50 0 l0 -270 q15 47 55 73.5 q40 26.5 98 26.5 q81 0 130 -52 q49 -52 49 -141 l0 -367 l-50 0 l0 360 q0 74 -37 115.5 q-37 41.5 -102 41.5 q-66 0 -104.5 -42 q-38.5 -42 -38.5 -115 l0 -360 l-50 0 Z" /><glyph glyph-name="i" unicode="i" d="M95 0 l0 45 l201 0 l0 460 l-176 0 l0 45 l226 0 l0 -505 l189 0 l0 -45 l-440 0 ZM273 670 q-16 15 -16 40 q0 25 16 40 q16 15 42 15 q26 0 42 -15 q16 -15 16 -40 q0 -25 -16 -40 q-16 -15 -42 -15 q-26 0 -42 15 Z" /><glyph glyph-name="j" unicode="j" d="M105 505 l0 45 l315 0 l0 -540 q0 -89 -51 -139.5 q-51 -50.5 -143 -50.5 l-116 0 l0 45 l116 0 q71 0 107.5 37.5 q36.5 37.5 36.5 107.5 l0 495 l-265 0 ZM338 670 q-16 15 -16 40 q0 25 16 40 q16 15 42 15 q26 0 42 -15 q16 -15 16 -40 q0 -25 -16 -40 q-16 -15 -42 -15 q-26 0 -42 15 Z" /><glyph glyph-name="k" unicode="k" d="M115 0 l0 730 l50 0 l0 -421 l129 0 l171 241 l58 0 l-184 -262 l194 -288 l-59 0 l-179 264 l-130 0 l0 -264 l-50 0 Z" /><glyph glyph-name="l" unicode="l" d="M50 685 l0 45 l230 0 l0 -595 q0 -90 90 -90 l170 0 l0 -45 l-170 0 q-67 0 -103.5 35 q-36.5 35 -36.5 100 l0 550 l-180 0 Z" /><glyph glyph-name="m" unicode="m" d="M75 0 l0 550 l44 0 l0 -75 l3 0 q4 40 29 62.5 q25 22.5 65 22.5 q38 0 65 -21.5 q27 -21.5 37 -58.5 q6 37 31.5 58.5 q25.5 21.5 66.5 21.5 q50 0 79.5 -35 q29.5 -35 29.5 -94 l0 -431 l-49 0 l0 425 q0 43 -20 68 q-20 25 -55 25 q-35 0 -56 -25 q-21 -25 -21 -68 l0 -425 l-48 0 l0 425 q0 43 -20 68 q-20 25 -55 25 q-35 0 -56 -25 q-21 -25 -21 -68 l0 -425 l-49 0 Z" /><glyph glyph-name="n" unicode="n" d="M110 0 l0 550 l50 0 l0 -90 q15 47 54.5 73.5 q39.5 26.5 98.5 26.5 q81 0 130 -52 q49 -52 49 -141 l0 -367 l-50 0 l0 360 q0 74 -37 115.5 q-37 41.5 -102 41.5 q-66 0 -104.5 -42 q-38.5 -42 -38.5 -115 l0 -360 l-50 0 Z" /><glyph glyph-name="o" unicode="o" d="M155 190 q0 -74 38 -115 q38 -41 107 -41 q69 0 107 41 q38 41 38 115 l0 170 q0 74 -38.5 115 q-38.5 41 -106.5 41 q-68 0 -106.5 -41 q-38.5 -41 -38.5 -115 l0 -170 ZM105 190 l0 170 q0 91 53.5 145.5 q53.5 54.5 141.5 54.5 q89 0 142 -54.5 q53 -54.5 53 -145.5 l0 -170 q0 -91 -53 -145.5 q-53 -54.5 -142 -54.5 q-88 0 -141.5 54.5 q-53.5 54.5 -53.5 145.5 Z" /><glyph glyph-name="p" unicode="p" d="M160 190 q0 -74 38 -115.5 q38 -41.5 105 -41.5 q67 0 104.5 41.5 q37.5 41.5 37.5 115.5 l0 171 q0 74 -37.5 115 q-37.5 41 -104.5 41 q-67 0 -105 -41 q-38 -41 -38 -115 l0 -171 ZM110 -180 l0 730 l50 0 l0 -83 q16 43 56 68 q40 25 97 25 q83 0 132.5 -54.5 q49.5 -54.5 49.5 -144.5 l0 -171 q0 -60 -23 -105 q-23 -45 -63.5 -70 q-40.5 -25 -95.5 -25 q-56 0 -96.5 25 q-40.5 25 -56.5 68 l0 -263 l-50 0 Z" /><glyph glyph-name="q" unicode="q" d="M155 190 q0 -73 37.5 -115 q37.5 -42 104.5 -42 q68 0 105.5 42 q37.5 42 37.5 115 l0 171 q0 74 -37.5 115 q-37.5 41 -105.5 41 q-67 0 -104.5 -41 q-37.5 -41 -37.5 -115 l0 -171 ZM105 190 l0 171 q0 90 50 144.5 q50 54.5 132 54.5 q53 0 92.5 -22.5 q39.5 -22.5 57.5 -62.5 l3 0 l0 75 l50 0 l0 -730 l-50 0 l0 255 l-3 0 q-18 -40 -57.5 -62.5 q-39.5 -22.5 -92.5 -22.5 q-82 0 -132 55 q-50 55 -50 145 Z" /><glyph glyph-name="r" unicode="r" d="M132 0 l0 550 l50 0 l0 -86 q16 45 53.5 70.5 q37.5 25.5 92.5 25.5 q91 0 135.5 -51 q44.5 -51 44.5 -144 l0 -50 l-50 0 l0 50 q0 74 -35 113 q-35 39 -103 39 q-67 0 -102.5 -41 q-35.5 -41 -35.5 -116 l0 -360 l-50 0 Z" /><glyph glyph-name="s" unicode="s" d="M90 135 l50 0 q8 -43 42.5 -71.5 q34.5 -28.5 86.5 -28.5 l73 0 q55 0 87 28.5 q32 28.5 32 76.5 q0 43 -25.5 76 q-25.5 33 -69.5 38 l-121 15 q-70 9 -109 45 q-39 36 -39 97 q0 68 47.5 108.5 q47.5 40.5 126.5 40.5 l54 0 q75 0 122.5 -37 q47.5 -37 54.5 -98 l-50 0 q-6 39 -40 64.5 q-34 25.5 -87 25.5 l-54 0 q-56 0 -89.5 -28 q-33.5 -28 -33.5 -75 q0 -41 27 -64 q27 -23 78 -30 l119 -15 q63 -8 100.5 -51.5 q37.5 -43.5 37.5 -104.5 q0 -71 -45.5 -114 q-45.5 -43 -122.5 -43 l-73 0 q-75 0 -123.5 40.5 q-48.5 40.5 -55.5 104.5 Z" /><glyph glyph-name="t" unicode="t" d="M62 505 l0 45 l163 0 l0 155 l50 0 l0 -155 l230 0 l0 -45 l-230 0 l0 -380 q0 -80 80 -80 l145 0 l0 -45 l-145 0 q-63 0 -96.5 32 q-33.5 32 -33.5 93 l0 380 l-163 0 Z" /><glyph glyph-name="u" unicode="u" d="M108 194 l0 356 l50 0 l0 -356 q0 -75 37.5 -117 q37.5 -42 103.5 -42 q67 0 105 42 q38 42 38 117 l0 356 l50 0 l0 -356 q0 -94 -51.5 -149 q-51.5 -55 -141.5 -55 q-89 0 -140 54.5 q-51 54.5 -51 149.5 Z" /><glyph glyph-name="v" unicode="v" d="M80 550 l54 0 l139 -410 q9 -27 16.5 -55.5 q7.5 -28.5 11.5 -45.5 q3 17 11 45.5 q8 28.5 17 55.5 l137 410 l54 0 l-189 -550 l-62 0 l-189 550 Z" /><glyph glyph-name="w" unicode="w" d="M50 550 l47 0 l68 -409 q6 -37 8.5 -61 q2.5 -24 3.5 -45 q2 21 6.5 44.5 q4.5 23.5 11.5 60.5 l80 410 l52 0 l80 -410 q7 -34 12 -58 q5 -24 6 -47 q2 22 3.5 47 q1.5 25 7.5 59 l68 409 l46 0 l-94 -550 l-66 0 l-69 391 q-4 27 -11 60.5 q-7 33.5 -9 55.5 q-1 -22 -8 -55.5 q-7 -33.5 -12 -60.5 l-72 -391 l-66 0 l-93 550 Z" /><glyph glyph-name="x" unicode="x" d="M75 0 l196 282 l-184 268 l59 0 l133 -200 q5 -8 11.5 -18 q6.5 -10 10.5 -17 q5 7 11.5 17.5 q6.5 10.5 11.5 17.5 l132 200 l58 0 l-184 -268 l195 -282 l-58 0 l-141 210 q-6 9 -13.5 20 q-7.5 11 -12.5 18 q-4 -7 -12 -18 q-8 -11 -14 -20 l-142 -210 l-57 0 Z" /><glyph glyph-name="y" unicode="y" d="M76 550 l56 0 l136 -350 l22 -56 q11 -28 16 -43 q6 15 16 43.5 q10 28.5 20 57.5 l128 348 l54 0 l-274 -730 l-51 0 l81 219 l-204 511 Z" /><glyph glyph-name="z" unicode="z" d="M103 0 l0 46 l324 459 l-315 0 l0 45 l372 0 l0 -47 l-325 -458 l338 0 l0 -45 l-394 0 Z" /><glyph glyph-name="braceleft" unicode="{" d="M90 336 l0 46 l129 0 q62 0 86 22 q17 16 17 48 q0 13 -3 30 l-34 198 q-2 14 -2 28 q0 30 12 52 q18 34 55 52 q37 18 85 18 l55 0 l0 -45 l-55 0 q-46 0 -77 -28 q-25 -22 -25 -58 q0 -9 2 -19 l34 -198 q2 -13 2 -24 q-1 -32 -17 -56 q-22 -32 -60 -42 q38 -9 60 -42 q17 -24 17 -57 q0 -12 -2 -24 l-34 -197 q-2 -10 -2 -19 q0 -36 25 -58 q31 -28 77 -28 l55 0 l0 -45 l-55 0 q-48 0 -85 18 q-37 18 -55 52 q-12 23 -12 52 q0 13 2 28 l34 197 q3 15 3 28 q0 31 -16 48 q-22 23 -87 23 l-129 0 Z" /><glyph glyph-name="braceright" unicode="}" d="M110 -65 l54 0 q48 0 78 28 q24 22 24 58 q0 9 -2 19 l-32 197 q-2 13 -2 24 q0 33 16 57 q22 33 61 42 q-39 10 -61 42 q-17 24 -16 56 q0 11 2 24 l32 198 q2 10 2 19 q0 35 -24 58 q-30 28 -78 28 l-54 0 l0 45 l54 0 q48 0 84 -18 q38 -18 56 -52 q13 -23 12 -53 q0 -13 -2 -27 l-32 -198 q-2 -15 -2 -28 q0 -34 17 -50 q24 -22 85 -22 l128 0 l0 -46 l-128 0 q-64 0 -86 -23 q-16 -16 -17 -48 q0 -13 3 -28 l32 -197 q2 -14 2 -27 q0 -29 -12 -53 q-18 -34 -55 -52 q-37 -18 -85 -18 l-54 0 l0 45 Z" /><glyph glyph-name="uni3001" unicode="&#x3001;" d="M175 166 q-2 5 -2 10.5 q0 5.5 1.5 10.5 q1.5 5 5.5 9 l3 2 q7 6 17 6 q10 0 16 -6 q48 -39 98 -88 q50 -49 97 -101 q3 -4 4.5 -9 q1.5 -5 1.5 -10 q0 -5 -2.5 -10 q-2.5 -5 -6.5 -8 l-3 -2 q-4 -3 -9 -4.5 q-5 -1.5 -10.5 -1.5 q-5.5 0 -10 2 q-4.5 2 -7.5 6 q-44 51 -92.5 99.5 q-48.5 48.5 -94.5 86.5 q-4 3 -6 8 Z" /><glyph glyph-name="uni3002" unicode="&#x3002;" d="M186 97 q0 -23 8.5 -42.5 q8.5 -19.5 23.5 -34 q15 -14.5 35 -23.5 q20 -9 42 -9 q23 0 42.5 9 q19.5 9 34 23.5 q14.5 14.5 23 34 q8.5 19.5 8.5 42.5 q0 22 -8.5 42 q-8.5 20 -23 34.5 q-14.5 14.5 -34 23.5 q-19.5 9 -42.5 9 q-22 0 -42 -9 q-20 -9 -35 -23.5 q-15 -14.5 -23.5 -34.5 q-8.5 -20 -8.5 -42 ZM160 39.5 q-12 26.5 -12 57.5 q0 31 12 57.5 q12 26.5 32 46.5 q20 20 46.5 31.5 q26.5 11.5 56.5 11.5 q30 0 57 -11.5 q27 -11.5 47 -31.5 q20 -20 31 -46.5 q11 -26.5 11 -57.5 q0 -31 -11 -57.5 q-11 -26.5 -31 -46.5 q-20 -20 -47 -31.5 q-27 -11.5 -57 -11.5 q-30 0 -56.5 11.5 q-26.5 11.5 -46.5 31.5 q-20 20 -32 46.5 Z" /><glyph glyph-name="uni300A" unicode="&#x300a;" d="M789 371 q-2 3 -2 9 q0 6 2 9 l222 432 q4 8 12.5 12.5 q8.5 4.5 14.5 2.5 q4 -1 6 -4.5 q2 -3.5 3 -8 q1 -4.5 1 -10 q0 -5.5 -2 -10.5 l-217 -418 q-2 -2 -2 -5 q0 -3 2 -5 l217 -418 q2 -5 2 -10.5 q0 -5.5 -1 -10 q-1 -4.5 -3 -8 q-2 -3.5 -6 -4.5 q-6 -2 -14.5 2.5 q-8.5 4.5 -12.5 12.5 l-222 432 ZM640 371 q-2 3 -2 9 q0 6 2 9 l223 432 q3 8 11.5 12.5 q8.5 4.5 14.5 2.5 q4 -1 6.5 -4.5 q2.5 -3.5 3.5 -8 q1 -4.5 1 -10 q0 -5.5 -3 -10.5 l-217 -418 q-1 -2 -1 -5 q0 -3 1 -5 l217 -418 q3 -5 3 -10.5 q0 -5.5 -1 -10 q-1 -4.5 -3.5 -8 q-2.5 -3.5 -6.5 -4.5 q-6 -2 -14.5 2.5 q-8.5 4.5 -11.5 12.5 l-223 432 Z" /><glyph glyph-name="uni300B" unicode="&#x300b;" d="M300 -63.5 q-1 4.5 -0.5 10 q0.5 5.5 2.5 10.5 l217 418 q2 2 2 5 q0 3 -2 5 l-217 418 q-2 5 -2.5 10.5 q-0.5 5.5 0.5 10 q1 4.5 3.5 8 q2.5 3.5 6.5 4.5 q6 2 14.5 -2.5 q8.5 -4.5 12.5 -12.5 l222 -432 q2 -3 2 -9 q0 -6 -2 -9 l-222 -432 q-4 -8 -12.5 -12.5 q-8.5 -4.5 -14.5 -2.5 q-4 1 -6.5 4.5 q-2.5 3.5 -3.5 8 ZM152 -63.5 q-1 4.5 -0.5 10 q0.5 5.5 2.5 10.5 l216 418 q2 2 2 5 q0 3 -2 5 l-216 418 q-2 5 -2.5 10.5 q-0.5 5.5 0.5 10 q1 4.5 3.5 8 q2.5 3.5 6.5 4.5 q6 2 14 -2.5 q8 -4.5 12 -12.5 l222 -432 q2 -3 2 -9 q0 -6 -2 -9 l-222 -432 q-4 -8 -12 -12.5 q-8 -4.5 -14 -2.5 q-4 1 -6.5 4.5 q-2.5 3.5 -3.5 8 Z" /><glyph glyph-name="uni300C" unicode="&#x300c;" d="M756 217 l0 599 q0 5 2.5 10 q2.5 5 6 8.5 q3.5 3.5 8.5 5.5 q5 2 10 2 l252 0 q6 0 11 -1.5 q5 -1.5 8.5 -5 q3.5 -3.5 5.5 -7.5 q2 -4 2 -8 q0 -4 -2 -8 q-2 -4 -5.5 -7 q-3.5 -3 -8.5 -5 q-5 -2 -11 -2 l-226 0 q-2 0 -4 -2 q-2 -2 -2 -4 l0 -576 q0 -5 -2 -9 q-2 -4 -5.5 -8 q-3.5 -4 -7.5 -6 q-4 -2 -8.5 -2 q-4.5 0 -8.5 2 q-4 2 -7 6 q-3 4 -5.5 8.5 q-2.5 4.5 -2.5 9.5 Z" /><glyph glyph-name="uni300D" unicode="&#x300d;" d="M140 -68 q-2 4 -2 8 q0 4 2 8 q2 4 5.5 7.5 q3.5 3.5 8.5 5 q5 1.5 11 1.5 l226 0 q2 0 4 2 q2 2 2 4 l0 576 q0 5 2 9 q2 4 5.5 8 q3.5 4 7.5 6 q4 2 8.5 2 q4.5 0 8.5 -2 q4 -2 7.5 -6 q3.5 -4 5.5 -8.5 q2 -4.5 2 -9.5 l0 -599 q0 -5 -2.5 -10 q-2.5 -5 -6 -8.5 q-3.5 -3.5 -8.5 -5.5 q-5 -2 -10 -2 l-252 0 q-6 0 -11 2 q-5 2 -8.5 5 q-3.5 3 -5.5 7 Z" /><glyph glyph-name="uni300E" unicode="&#x300e;" d="M725 211 q0 -2 2 -4 q2 -2 5 -2 l91 0 q3 0 5 2 q2 2 2 4 l0 488 q0 6 2.5 10.5 q2.5 4.5 6 8.5 q3.5 4 8.5 6 q5 2 9 2 l173 0 q3 0 5 2 q2 2 2 4 l0 78 q0 2 -2 4 q-2 2 -4 2 l-299 0 q-2 0 -4 -2 q-2 -2 -2 -4 l0 -599 ZM699 205 l0 611 q0 5 2 10 q2 5 6 8.5 q4 3.5 9 5.5 q5 2 9 2 l311 0 q5 0 10 -2 q5 -2 8.5 -5.5 q3.5 -3.5 5.5 -8.5 q2 -5 2 -10 l0 -89 q0 -6 -2 -10.5 q-2 -4.5 -5.5 -8.5 q-3.5 -4 -8.5 -6 q-5 -2 -10 -2 l-173 0 q-3 0 -5 -2 q-2 -2 -2 -4 l0 -488 q0 -6 -2 -11 q-2 -5 -5.5 -8.5 q-3.5 -3.5 -8.5 -5.5 q-5 -2 -10 -2 l-104 0 q-5 0 -10 2 q-5 2 -9 5.5 q-4 3.5 -6 8.5 q-2 5 -2 10 Z" /><glyph glyph-name="uni300F" unicode="&#x300f;" d="M164 28 l0 -78 q0 -2 2 -4 q2 -2 4 -2 l299 0 q2 0 4 2 q2 2 2 4 l0 599 q0 2 -2 4 q-2 2 -5 2 l-91 0 q-3 0 -5 -2 q-2 -2 -2 -4 l0 -488 q0 -6 -2.5 -10.5 q-2.5 -4.5 -6 -8.5 q-3.5 -4 -8.5 -6 q-5 -2 -9 -2 l-173 0 q-3 0 -5 -2 q-2 -2 -2 -4 ZM138 33 q0 6 2 10.5 q2 4.5 5.5 8.5 q3.5 4 8.5 6 q5 2 10 2 l173 0 q3 0 5 2 q2 2 2 4 l0 488 q0 6 2 11 q2 5 5.5 8.5 q3.5 3.5 8.5 5.5 q5 2 10 2 l104 0 q6 0 10.5 -2 q4.5 -2 8.5 -5.5 q4 -3.5 6 -8.5 q2 -5 2 -10 l0 -611 q0 -5 -2 -10 q-2 -5 -6 -8.5 q-4 -3.5 -8.5 -5.5 q-4.5 -2 -9.5 -2 l-311 0 q-5 0 -10 2 q-5 2 -8.5 5.5 q-3.5 3.5 -5.5 8.5 q-2 5 -2 10 l0 89 Z" /><glyph glyph-name="uni3010" unicode="&#x3010;" d="M770 -56 l0 872 q0 5 2 10 q2 5 5.5 8.5 q3.5 3.5 8.5 5.5 q5 2 10 2 l240 0 q10 0 18 -0.5 q8 -0.5 8 -1.5 q0 -2 -2 -4 l-5 -5 q-39 -34 -74 -81 q-35 -47 -61 -104 q-26 -57 -41 -124 q-15 -67 -15 -142 q0 -74 15 -140.5 q15 -66.5 41 -124 q26 -57.5 61 -105 q35 -47.5 74 -81.5 l5 -5 q2 -2 2 -3 q0 -2 -8 -2.5 q-8 -0.5 -18 -0.5 l-240 0 q-5 0 -10 2 q-5 2 -8.5 5.5 q-3.5 3.5 -5.5 8.5 q-2 5 -2 10 Z" /><glyph glyph-name="uni3011" unicode="&#x3011;" d="M138 -79 q0 1 2 3 l5 5 q40 34 74.5 81 q34.5 47 60.5 104 q26 57 41 124 q15 67 15 142 q0 74 -15 140.5 q-15 66.5 -41 124 q-26 57.5 -60.5 105 q-34.5 47.5 -74.5 81.5 l-5 5 q-2 2 -2 4 q0 1 8 1.5 q8 0.5 18 0.5 l240 0 q5 0 10 -2 q5 -2 8.5 -5.5 q3.5 -3.5 5.5 -8.5 q2 -5 2 -10 l0 -872 q0 -5 -2 -10 q-2 -5 -5.5 -8.5 q-3.5 -3.5 -8.5 -5.5 q-5 -2 -10 -2 l-240 0 q-10 0 -18 0.5 q-8 0.5 -8 2.5 Z" /><glyph glyph-name="uni4E00" unicode="&#x4e00;" d="M148 390 l0 2 q0 4 2 8.5 q2 4.5 5.5 8 q3.5 3.5 8.5 5.5 q5 2 10 2 l857 0 q4 0 9 -2 q5 -2 8.5 -5.5 q3.5 -3.5 6 -8 q2.5 -4.5 2.5 -8.5 l0 -2 q0 -5 -2.5 -10 q-2.5 -5 -6 -8 q-3.5 -3 -8.5 -5 q-5 -2 -9 -2 l-857 0 q-5 0 -10 2 q-5 2 -8.5 5 q-3.5 3 -5.5 8 q-2 5 -2 10 Z" /><glyph glyph-name="uni4E01" unicode="&#x4e01;" d="M165 709 l0 1 q0 5 2 9 q2 4 5.5 7 q3.5 3 8.5 5 q5 2 10 2 l817 0 q5 0 10 -2 q5 -2 8.5 -5 q3.5 -3 6 -7 q2.5 -4 2.5 -9 l0 -1 q0 -5 -2.5 -9 q-2.5 -4 -6 -7.5 q-3.5 -3.5 -8.5 -5.5 q-5 -2 -10 -2 l-353 0 l0 -666 q0 -35 -12 -51.5 q-12 -16.5 -39 -22.5 q-25 -6 -75 -7 q-50 -1 -134 -1 q-7 -1 -14 4.5 q-7 5.5 -9 10.5 l0 2 l-1 0 q-6 13 1 23.5 q7 10.5 22 9.5 q52 -2 92 -2 q10 0 37.5 0.5 q27.5 0.5 46.5 1.5 q19 1 26.5 7.5 q7.5 6.5 7.5 24.5 l0 666 l-413 0 q-5 0 -10 2 q-5 2 -8.5 5.5 q-3.5 3.5 -5.5 7.5 q-2 4 -2 9 Z" /><glyph glyph-name="uni4E03" unicode="&#x4e03;" d="M158 402 l0 1 q0 5 1.5 9 q1.5 4 4.5 8 q3 4 7 6.5 q4 2.5 10 3.5 l267 44 l0 320 q0 5 1.5 9.5 q1.5 4.5 5 8 q3.5 3.5 7.5 5.5 q4 2 9 2 l2 0 q5 0 9 -2 q4 -2 7 -5.5 q3 -3.5 5 -8 q2 -4.5 2 -9.5 l0 -311 l517 86 q4 1 8.5 -0.5 q4.5 -1.5 9 -4 q4.5 -2.5 7.5 -5.5 q3 -3 4 -8 l0 -1 q0 -5 -1.5 -9.5 q-1.5 -4.5 -4.5 -8.5 q-3 -4 -7 -6.5 q-4 -2.5 -10 -3.5 l-523 -87 l0 -350 q0 -21 3.5 -36 q3.5 -15 13.5 -23.5 q10 -8.5 27.5 -12 q17.5 -3.5 45.5 -3.5 l292 0 q23 0 37.5 6 q14.5 6 23.5 21 q9 15 13.5 40 q4.5 25 7.5 63 q2 15 12 21.5 q10 6.5 22 1.5 q7 -3 12 -11 q5 -8 4 -16 q-4 -48 -10.5 -81 q-6.5 -33 -20.5 -53.5 q-14 -20.5 -38 -29 q-24 -8.5 -65 -8.5 l-288 0 q-39 0 -66 5.5 q-27 5.5 -43.5 19 q-16.5 13.5 -23.5 37.5 q-7 24 -7 61 l0 340 l-261 -43 q-4 -1 -8.5 0.5 q-4.5 1.5 -9 4 q-4.5 2.5 -7 6 q-2.5 3.5 -4.5 7.5 Z" /><glyph glyph-name="uni4E07" unicode="&#x4e07;" d="M166 -63 q-9 8 -6.5 18.5 q2.5 10.5 14.5 18.5 q96 58 151.5 142 q55.5 84 84 181 q28.5 97 37 200 q8.5 103 11.5 198 q0 4 2 9 q1 2 2 5 l-270 0 q-6 0 -11 2 q-5 2 -8.5 5 q-3.5 3 -5.5 7 q-2 4 -2 9 q0 4 2 8 q2 4 5.5 8 q3.5 4 8.5 5.5 q5 1.5 11 1.5 l817 0 q6 0 11 -1.5 q5 -1.5 8.5 -5.5 q3.5 -4 5.5 -8 q2 -4 2 -8 q0 -5 -2 -9 q-2 -4 -5.5 -7 q-3.5 -3 -8.5 -5 q-5 -2 -11 -2 l-508 0 l2 -6 q2 -4 2 -9 q-3 -102 -13 -211 l0 -6 q3 1 6 1 l415 0 q5 0 9 -2 q5 -1 8 -5 l1 0 q1 -2 2 -3 q2 -2 3 -4 q2 -4 2 -9 l0 -5 q-7 -124 -14 -211 q-7 -87 -15.5 -144 q-8.5 -57 -19.5 -89 q-11 -32 -26 -47 q-14 -16 -31 -21 q-17 -5 -43 -7 q-12 -1 -28 -1 q-16 0 -47.5 1 q-31.5 1 -79.5 4 q-8 0 -15.5 5 q-7.5 5 -9.5 13 q-3 12 5.5 20 q8.5 8 24.5 6 q23 -2 43.5 -3 q20.5 -1 38 -1.5 q17.5 -0.5 30.5 -0.5 l24 0 q18 0 28 2 q10 2 19 10 q12 12 22.5 42.5 q10.5 30.5 18 87.5 q7.5 57 14.5 143 q6 74 12 173 l-391 0 q-4 0 -9 2 q-1 1 -2 1 q-11 -84 -36 -164 q-31 -102 -91 -189.5 q-60 -87.5 -163 -146.5 q-3 -3 -8 -4 q-5 -1 -9 -0.5 q-4 0.5 -7.5 2 q-3.5 1.5 -6.5 4.5 Z" /><glyph glyph-name="uni4E09" unicode="&#x4e09;" d="M286 383 l0 1 q0 4 2.5 8 q2.5 4 6 7.5 q3.5 3.5 8.5 5 q5 1.5 9 1.5 l562 0 q5 0 10 -1.5 q5 -1.5 8.5 -5 q3.5 -3.5 5.5 -7.5 q2 -4 2 -8 l0 -1 q0 -5 -2 -9 q-2 -4 -5.5 -7.5 q-3.5 -3.5 -8.5 -5 q-5 -1.5 -10 -1.5 l-562 0 q-4 0 -9 1.5 q-5 1.5 -8.5 5 q-3.5 3.5 -6 7.5 q-2.5 4 -2.5 9 ZM226 713 l0 1 q0 4 2 8 q2 4 5.5 7.5 q3.5 3.5 8.5 5 q5 1.5 9 1.5 l701 0 q5 0 9.5 -1.5 q4.5 -1.5 8.5 -5 q4 -3.5 6 -7.5 q2 -4 2 -8 l0 -1 q0 -5 -2 -9 q-2 -4 -6 -7.5 q-4 -3.5 -8.5 -5 q-4.5 -1.5 -9.5 -1.5 l-701 0 q-4 0 -9 1.5 q-5 1.5 -8.5 5 q-3.5 3.5 -5.5 7.5 q-2 4 -2 9 ZM167 30 l0 1 q0 4 2 8 q2 4 6 7.5 q4 3.5 8.5 5 q4.5 1.5 10.5 1.5 l813 0 q5 0 10 -1.5 q5 -1.5 8.5 -5 q3.5 -3.5 5.5 -7.5 q2 -4 2 -8 l0 -1 q0 -4 -2 -8.5 q-2 -4.5 -5.5 -8 q-3.5 -3.5 -8.5 -5 q-5 -1.5 -10 -1.5 l-813 0 q-6 0 -10.5 1.5 q-4.5 1.5 -8.5 5 q-4 3.5 -6 8 q-2 4.5 -2 8.5 Z" /><glyph glyph-name="uni4E0A" unicode="&#x4e0a;" d="M156 -3 q0 4 2 8 q2 4 6 7.5 q4 3.5 8.5 5 q4.5 1.5 8.5 1.5 l361 0 l0 773 q0 4 2 9 q2 5 5.5 8.5 q3.5 3.5 7.5 6 q4 2.5 8 2.5 l2 0 q5 0 9 -2.5 q4 -2.5 7 -6 q3 -3.5 5 -8.5 q2 -5 2 -9 l0 -297 l362 0 q5 0 9.5 -1.5 q4.5 -1.5 8 -4.5 q3.5 -3 5.5 -7 q2 -4 2 -9 l0 -1 q0 -4 -2 -8 q-2 -4 -5.5 -7.5 q-3.5 -3.5 -8 -5.5 q-4.5 -2 -9.5 -2 l-357 0 q-3 0 -5 1 l0 -431 l430 0 q4 0 8.5 -1.5 q4.5 -1.5 8.5 -5 q4 -3.5 6 -7.5 q2 -4 2 -8 l0 -1 q0 -4 -2 -8 q-2 -4 -6 -8 q-4 -4 -8.5 -5.5 q-4.5 -1.5 -8.5 -1.5 l-839 0 q-4 0 -8.5 1.5 q-4.5 1.5 -8.5 5.5 q-4 4 -6 8 q-2 4 -2 8 l0 1 Z" /><glyph glyph-name="uni4E0B" unicode="&#x4e0b;" d="M158 736 l0 1 q0 4 2 8 q2 4 5.5 7.5 q3.5 3.5 8 5.5 q4.5 2 9.5 2 l835 0 q5 0 9.5 -2 q4.5 -2 8 -5.5 q3.5 -3.5 5.5 -7.5 q2 -4 2 -8 l0 -1 q0 -5 -2 -9 q-2 -4 -5.5 -7 q-3.5 -3 -8 -5 q-4.5 -2 -9.5 -2 l-414 0 q1 -4 1 -8 l0 -185 q4 4 12 5 q8 1 15 -2 q43 -21 88.5 -45 q45.5 -24 88.5 -49.5 q43 -25.5 82.5 -50 q39.5 -24.5 70.5 -45.5 q4 -2 6 -6.5 q2 -4.5 3 -9 q1 -4.5 0.5 -9 q-0.5 -4.5 -2.5 -7.5 l-3 -3 q-3 -5 -7.5 -7 q-4.5 -2 -9.5 -2 q-5 0 -10 0.5 q-5 0.5 -9 3.5 q-29 21 -66.5 45.5 q-37.5 24.5 -79.5 49.5 q-42 25 -85.5 49 q-43.5 24 -84.5 45 q-6 3 -9 8 l0 -537 q0 -5 -2 -10 q-2 -5 -5 -8.5 q-3 -3.5 -7 -5.5 q-4 -2 -8 -2 l-3 0 q-4 0 -8 2 q-4 2 -7.5 5.5 q-3.5 3.5 -5.5 8.5 q-2 5 -2 10 l0 752 q0 4 1 8 l-375 0 q-5 0 -9.5 2 q-4.5 2 -8 5 q-3.5 3 -5.5 7 q-2 4 -2 9 Z" /><glyph glyph-name="uni4E0D" unicode="&#x4e0d;" d="M685 487.5 q-3 5.5 -4 10 q-1 4.5 0.5 9.5 q1.5 5 5.5 8 q5 5 13.5 5 q8.5 0 15.5 -4 q42 -25 86 -55 q44 -30 86 -60.5 q42 -30.5 79 -60.5 q37 -30 66 -56 q3 -3 5 -7.5 q2 -4.5 2.5 -9.5 q0.5 -5 -1 -9.5 q-1.5 -4.5 -4.5 -7.5 l-2 -2 q-3 -4 -8.5 -5 q-5.5 -1 -10.5 -1 q-5 0 -9.5 2 q-4.5 2 -8.5 6 q-27 25 -62 54.5 q-35 29.5 -75 59.5 q-40 30 -82.5 59.5 q-42.5 29.5 -83.5 55.5 q-5 3 -8 8.5 ZM171 227 q-4 4 -5 9.5 q-1 5.5 0.5 10 q1.5 4.5 5.5 10 q4 5.5 9 8.5 q75 41 144 93.5 q69 52.5 129 111.5 q60 59 110 124 q46 59 81 120 l-447 0 q-4 0 -9 2.5 q-5 2.5 -8.5 5.5 q-3.5 3 -6 7 q-2.5 4 -2.5 9 q0 5 2.5 9 q2.5 4 6 7.5 q3.5 3.5 8.5 5.5 q5 2 9 2 l803 0 q5 0 10 -2 q5 -2 8.5 -5.5 q3.5 -3.5 5.5 -7.5 q2 -4 2 -9 q0 -5 -2 -9 q-2 -4 -5.5 -7 q-3.5 -3 -8.5 -5.5 q-5 -2.5 -10 -2.5 l-302 0 l0 -1 q0 -5 -3 -10 q-33 -57 -75 -113 q2 -5 2 -12 l0 -624 q0 -5 -1.5 -10 q-1.5 -5 -5.5 -8.5 q-4 -3.5 -8 -6 q-4 -2.5 -8 -2.5 l-3 0 q-4 0 -8 2.5 q-4 2.5 -7.5 6 q-3.5 3.5 -5.5 8.5 q-2 5 -2 9 l0 577 q-42 -49 -88 -95 q-63 -62 -134.5 -116 q-71.5 -54 -149.5 -98 q-3 -2 -7.5 -3 q-4.5 -1 -9 0 q-4.5 1 -8.5 3 q-4 2 -6 5 l0 1 Z" /><glyph glyph-name="uni4E0E" unicode="&#x4e0e;" d="M281.5 397.5 q-3.5 4.5 -4 10.5 q-0.5 6 1.5 12 q10 38 21.5 83.5 q11.5 45.5 22.5 93.5 q11 48 22 96.5 q11 48.5 19 91.5 q1 4 3.5 8 q2.5 4 6 7 q3.5 3 8 4.5 q4.5 1.5 7.5 1.5 l1 0 q5 0 9 -3 q4 -3 6.5 -7 q2.5 -4 3.5 -9.5 q1 -5.5 0 -9.5 q-8 -44 -19 -92 l553 0 q4 0 9 -1.5 q5 -1.5 8.5 -5 q3.5 -3.5 6 -7.5 q2.5 -4 2.5 -8.5 q0 -4.5 -2.5 -8 q-2.5 -3.5 -6 -7.5 q-3.5 -4 -8.5 -5.5 q-5 -1.5 -9 -1.5 l-557 0 q-3 0 -6 1 q-6 -30 -13 -59 q-11 -49 -23 -95 q-7 -29 -14 -55 l621 0 q4 0 9 -1.5 q5 -1.5 8.5 -5 q3.5 -3.5 6 -7.5 q2.5 -4 2.5 -8 q0 -5 -3 -8 l0 -2 q-12 -104 -23 -179 q-12 -77 -23.5 -128.5 q-11.5 -51.5 -25.5 -82 q-14 -30.5 -31 -46.5 q-16 -15 -34 -20 q-18 -5 -45 -7 q-23 0 -64 1 q-41 1 -88 5 q-9 0 -16.5 5.5 q-7.5 5.5 -9.5 11.5 q-3 12 5.5 20 q8.5 8 24.5 7 q23 -2 43.5 -2.5 q20.5 -0.5 37.5 -1.5 q17 -1 31 -1 l24 0 q20 0 31.5 1.5 q11.5 1.5 19.5 9.5 q15 13 28 42 q13 29 25 79.5 q12 50.5 22 124.5 q9 64 18 148 l-592 0 q-4 0 -9 2 q-4 2 -7 5 l-1 -1 q-7 -6 -14 -6 l-1 0 q-6 0 -10.5 3 q-4.5 3 -8 7.5 ZM163 201 q0 4 2 8 q2 4 5.5 7.5 q3.5 3.5 8 5.5 q4.5 2 9.5 2 l572 0 q5 0 9.5 -2 q4.5 -2 8 -5.5 q3.5 -3.5 5.5 -7.5 q2 -4 2 -8.5 q0 -4.5 -2 -8.5 q-2 -4 -5.5 -7 q-3.5 -3 -8 -5 q-4.5 -2 -9.5 -2 l-572 0 q-5 0 -9.5 2 q-4.5 2 -8 5 q-3.5 3 -5.5 7 q-2 4 -2 9 Z" /><glyph glyph-name="uni4E13" unicode="&#x4e13;" d="M161 502 q0 4 2 8 q2 4 5.5 7.5 q3.5 3.5 8.5 5.5 q5 2 9 2 l256 0 q7 21 15 43 q17 49 33 97 l-225 0 q-4 0 -9 1.5 q-5 1.5 -8.5 5.5 q-3.5 4 -5.5 7.5 q-2 3.5 -2 8 q0 4.5 2 8.5 q2 4 5.5 7.5 q3.5 3.5 8.5 5 q5 1.5 9 1.5 l240 0 q18 53 33 101 q1 4 4 8 q3 4 6.5 7 q3.5 3 7.5 4 q4 1 8 0 l1 0 q5 -1 8.5 -4 q3.5 -3 6 -7.5 q2.5 -4.5 3 -9.5 q0.5 -5 -1.5 -10 q-13 -42 -29 -89 l370 0 q5 0 10 -1.5 q5 -1.5 8.5 -5 q3.5 -3.5 5.5 -7.5 q2 -4 2 -8.5 q0 -4.5 -2 -8 q-2 -3.5 -5.5 -7.5 q-3.5 -4 -8.5 -5.5 q-5 -1.5 -10 -1.5 l-385 0 q-19 -59 -39 -117 q-5 -12 -9 -23 l505 0 q5 0 10 -2 q5 -2 8.5 -5.5 q3.5 -3.5 5.5 -7.5 q2 -4 2 -8.5 q0 -4.5 -2 -8.5 q-2 -4 -5.5 -7 q-3.5 -3 -8.5 -5 q-5 -2 -10 -2 l-521 0 q-10 -27 -19 -54 q-15 -41 -29 -76 l439 0 q4 0 9 -1 l4 -2 q0 2 2 2 q2 1 5 1 q1 0 3 0.5 q2 0.5 4 0.5 q2 2 6 0.5 q4 -1.5 8 -3.5 l2 -1 q5 -3 7.5 -7.5 q2.5 -4.5 3 -10 q0.5 -5.5 -1.5 -10.5 q-2 -5 -7 -9 l-59 -59 q-33 -33 -68 -66.5 q-35 -33.5 -70 -67.5 q-32 -32 -63 -60 q35 -15 67 -30 q47 -23 84 -44 q5 -3 8.5 -7 q3.5 -4 4.5 -9.5 q1 -5.5 0 -10.5 q-1 -5 -4 -8 l0 -1 q-4 -7 -15 -9 q-11 -2 -19 3 q-33 20 -77.5 42 q-44.5 22 -94 44 q-49.5 22 -102 43 q-52.5 21 -102.5 38 q-6 3 -11 6.5 q-5 3.5 -7 8 q-2 4.5 -1.5 9.5 q0.5 5 4.5 10 q3 4 10.5 6 q7.5 2 13.5 0 q50 -16 103 -36 q48 -18 95 -37 q0 1 1 1 q2 6 7 10 q34 32 70.5 67 q36.5 35 71 68.5 q34.5 33.5 64.5 63.5 q11 11 20 21 l-418 0 q-5 0 -9 2 q-4 1 -7 3 l-1 0 q-7 -5 -12 -5 l-2 0 q-6 0 -10.5 3 q-4.5 3 -7 7.5 q-2.5 4.5 -3 10.5 q-0.5 6 1.5 12 q20 49 41 108 q6 16 12 33 l-239 0 q-4 0 -9 2 q-5 2 -8.5 5 q-3.5 3 -5.5 7 q-2 4 -2 9 Z" /><glyph glyph-name="uni4E14" unicode="&#x4e14;" d="M365 523 q3 1 6 1 l463 0 q3 0 7 -1 l0 198 q0 2 -2 4 q-2 2 -4 2 l-464 0 q-2 0 -4 -2 q-2 -2 -2 -4 l0 -198 ZM365 268 q3 1 6 1 l463 0 q3 0 7 -1 l0 212 q-4 -1 -7 -1 l-463 0 q-3 0 -6 1 l0 -212 ZM365 17 l476 0 l0 208 q-4 -2 -7 -2 l-463 0 q-3 0 -6 1 l0 -207 ZM157 -5 q0 4 2 8 q2 4 6 7.5 q4 3.5 8.5 5 q4.5 1.5 8.5 1.5 l138 0 q-1 1 -1 3 l0 727 q0 5 2.5 10 q2.5 5 6 8.5 q3.5 3.5 8 5.5 q4.5 2 9.5 2 l518 0 q5 0 9.5 -2 q4.5 -2 8 -5.5 q3.5 -3.5 5.5 -8.5 q2 -5 2 -10 l0 -730 l131 0 q5 0 9.5 -1.5 q4.5 -1.5 8 -5 q3.5 -3.5 5.5 -7.5 q2 -4 2 -8 q0 -5 -2 -9 q-2 -4 -5.5 -7.5 q-3.5 -3.5 -8 -5.5 q-4.5 -2 -9.5 -2 l-837 0 q-4 0 -8.5 2 q-4.5 2 -8.5 5.5 q-4 3.5 -6 7.5 q-2 4 -2 9 Z" /><glyph glyph-name="uni4E16" unicode="&#x4e16;" d="M614 255 q0 -3 2 -5 q2 -2 5 -2 l212 0 q2 0 4 2 q2 2 2 5 l0 277 l-225 0 l0 -277 ZM157.5 547 q-2.5 4 -2.5 8 q0 4 2.5 8 q2.5 4 6 8 q3.5 4 8 5.5 q4.5 1.5 8.5 1.5 l128 0 l0 204 q0 5 2 10 q2 5 5 8.5 q3 3.5 7.5 6 q4.5 2.5 9.5 2.5 l1 0 q4 0 8.5 -2.5 q4.5 -2.5 8 -6 q3.5 -3.5 5.5 -8.5 q2 -5 2 -9 l0 -205 l211 0 l0 228 q0 5 2 9.5 q2 4.5 5.5 8 q3.5 3.5 7.5 5.5 q4 2 9 2 q5 0 8.5 -2 q3.5 -2 7 -5.5 q3.5 -3.5 5 -8.5 q1.5 -5 1.5 -10 l0 -227 l225 0 l0 216 q0 4 2 9 q2 5 5.5 8.5 q3.5 3.5 7.5 6 q4 2.5 9 2.5 l1 0 q5 0 9 -2.5 q4 -2.5 7 -6 q3 -3.5 5 -8.5 q2 -5 2 -9 l0 -216 l135 0 q5 0 9 -1.5 q4 -1.5 8 -5.5 q4 -4 6 -8 q2 -4 2 -8 q0 -4 -2 -8 q-2 -4 -6 -7.5 q-4 -3.5 -8 -5.5 q-4 -2 -9 -2 l-135 0 l0 -302 q0 -5 -2.5 -10 q-2.5 -5 -6 -8.5 q-3.5 -3.5 -8.5 -5.5 q-5 -2 -10 -2 l-265 0 q-5 0 -10 2 q-5 2 -8.5 5.5 q-3.5 3.5 -6 8 q-2.5 4.5 -2.5 9.5 l0 303 l-211 0 l0 -482 q0 -2 1.5 -4 q1.5 -2 3.5 -2 l629 0 q5 0 9.5 -2 q4.5 -2 8.5 -5 q4 -3 6 -7 q2 -4 2 -8.5 q0 -4.5 -2 -8.5 q-2 -4 -6 -7.5 q-4 -3.5 -8.5 -5.5 q-4.5 -2 -9.5 -2 l-658 0 q-4 0 -9 2.5 q-5 2.5 -8.5 6 q-3.5 3.5 -5.5 8.5 q-2 5 -2 10 l0 507 l-128 0 q-4 0 -8.5 2 q-4.5 2 -8 5.5 q-3.5 3.5 -6 7.5 Z" /><glyph glyph-name="uni4E1A" unicode="&#x4e1a;" d="M802 258 q-1 5 -0.5 10 q0.5 5 3.5 10 q19 30 39.5 65.5 q20.5 35.5 40.5 73 q20 37.5 38 75 q18 37.5 33 70.5 q2 5 6 9.5 q4 4.5 8.5 6.5 q4.5 2 9.5 2 q5 0 9 -2 q4 -1 7 -4.5 q3 -3.5 4.5 -8.5 q1.5 -5 1 -10 q-0.5 -5 -2.5 -9 q-17 -35 -36 -73.5 q-19 -38.5 -39.5 -76.5 q-20.5 -38 -41 -73.5 q-20.5 -35.5 -40.5 -67.5 q-1 -4 -5.5 -7 q-4.5 -3 -9 -4.5 q-4.5 -1.5 -8.5 -2 q-4 -0.5 -7 1.5 q-4 3 -6.5 6.5 q-2.5 3.5 -3.5 8.5 ZM206 552 q-2 5 -2.5 10.5 q-0.5 5.5 1.5 10.5 q2 5 5.5 9 q3.5 4 8.5 5 q8 2 16 -2 q8 -4 12 -12 q19 -35 37.5 -74 q18.5 -39 36.5 -77 q18 -38 33 -73.5 q15 -35.5 25 -64.5 q2 -4 1.5 -9 q-0.5 -5 -2.5 -9 q-2 -4 -5 -7.5 q-3 -3.5 -6 -5.5 l-1 0 q-5 -2 -10.5 -1 q-5.5 1 -10 3 q-4.5 2 -8 6 q-3.5 4 -5.5 9 q-9 29 -23.5 63.5 q-14.5 34.5 -31.5 71.5 q-17 37 -35 75 q-18 38 -36 72 ZM168 -5 q-2 4 -2 9 q0 5 2 9 q2 4 5.5 7.5 q3.5 3.5 8.5 5 q5 1.5 10 1.5 l267 0 l0 769 q0 5 1.5 10 q1.5 5 5.5 8.5 q4 3.5 8 5.5 q4 2 8 2 l1 0 q5 0 9 -2 q4 -2 7 -5.5 q3 -3.5 5 -8.5 q2 -5 2 -10 l0 -765 q0 -2 -1 -4 l192 0 l0 768 q0 4 1.5 9 q1.5 5 5.5 8.5 q4 3.5 8 6 q4 2.5 8 2.5 l1 0 q5 0 9 -2.5 q4 -2.5 7 -6 q3 -3.5 5 -8.5 q2 -5 2 -9 l0 -768 l267 0 q5 0 10 -1.5 q5 -1.5 8.5 -5 q3.5 -3.5 5.5 -7.5 q2 -4 2 -9 q0 -5 -2 -9 q-2 -4 -5.5 -7 q-3.5 -3 -8.5 -5 q-5 -2 -10 -2 l-819 0 q-5 0 -10 2 q-5 2 -8.5 5 q-3.5 3 -5.5 7 Z" /><glyph glyph-name="uni4E1C" unicode="&#x4e1c;" d="M784 229 q-2 5 -2 10 q0 5 2.5 9.5 q2.5 4.5 7.5 6.5 q5 3 13 1.5 q8 -1.5 13 -6.5 q27 -25 55 -54 q28 -29 53.5 -57.5 q25.5 -28.5 48 -56 q22.5 -27.5 38.5 -51.5 q3 -4 4 -8.5 q1 -4.5 0 -9.5 q-1 -5 -3.5 -8.5 q-2.5 -3.5 -5.5 -6.5 l-1 0 q-3 -3 -8 -3.5 q-5 -0.5 -10 1.5 q-5 2 -9.5 4.5 q-4.5 2.5 -7.5 7.5 q-16 23 -36.5 49.5 q-20.5 26.5 -44.5 54.5 q-24 28 -50 55.5 q-26 27.5 -51 51.5 q-4 5 -6 10 ZM204 -12 q-9 7 -8.5 19.5 q0.5 12.5 9.5 22.5 q47 42 87.5 97 q40.5 55 70.5 114 q4 8 12.5 12.5 q8.5 4.5 16.5 3.5 l1 -1 q5 -1 8.5 -4.5 q3.5 -3.5 5.5 -8.5 q2 -5 1.5 -10.5 q-0.5 -5.5 -3.5 -10.5 q-33 -66 -77.5 -126 q-44.5 -60 -92.5 -105 q-3 -3 -7 -4.5 q-4 -1.5 -8.5 -2.5 q-4.5 -1 -8.5 0 q-4 1 -7 4 ZM184 668 q-2 4 -2 8.5 q0 4.5 2 8.5 q2 4 5.5 7 q3.5 3 8.5 4.5 q5 1.5 9 1.5 l260 0 q1 1 1 2 q27 54 50 110 q2 5 6 9 q4 4 9 6 q5 2 10 2 q5 0 9 -2 l4 -2 q3 -1 5.5 -5 q2.5 -4 4.5 -8.5 q2 -4.5 1.5 -9 q-0.5 -4.5 -2.5 -9.5 q-20 -46 -43 -93 l459 0 q5 0 9.5 -1.5 q4.5 -1.5 8.5 -4.5 q4 -3 6 -7 q2 -4 2 -8.5 q0 -4.5 -2 -8.5 q-2 -4 -6 -7.5 q-4 -3.5 -8.5 -5.5 q-4.5 -2 -9.5 -2 l-482 0 q-22 -42 -45 -83 q-30 -54 -61 -103 q-24 -36 -47 -69 l273 0 l0 134 q0 4 2 9 q2 5 5.5 8.5 q3.5 3.5 7.5 6 q4 2.5 8 2.5 l1 0 q5 0 8.5 -2.5 q3.5 -2.5 7.5 -6 q4 -3.5 5.5 -8.5 q1.5 -5 1.5 -9 l0 -134 l275 0 q5 0 10 -1.5 q5 -1.5 8.5 -5 q3.5 -3.5 5.5 -7.5 q2 -4 2 -8 q0 -5 -2 -9 q-2 -4 -5.5 -7.5 q-3.5 -3.5 -8.5 -5 q-5 -1.5 -10 -1.5 l-275 0 l0 -350 q0 -26 -7 -39 q-7 -13 -27 -20 q-17 -6 -47.5 -7.5 q-30.5 -1.5 -75.5 -1.5 q-8 0 -15.5 5 q-7.5 5 -10.5 12 q-4 12 3 22 q7 10 22 11 q34 -1 56.5 -1 q22.5 0 35.5 1 q12 0 15.5 3.5 q3.5 3.5 3.5 14.5 l0 350 l-232 0 q-22 0 -37 -1 q-15 -1 -24 -3 q-8 -1 -15.5 0.5 q-7.5 1.5 -12.5 3.5 q-2 1 -3 1 q-2 1 -4 1 q-5 1 -9 3.5 q-4 2.5 -6 7.5 q-1 4 -0.5 9.5 q0.5 5.5 3.5 11 q3 5.5 6.5 11 q3.5 5.5 7.5 9.5 q4 5 8 9.5 q4 4.5 8.5 10.5 q4.5 6 11 16 q6.5 10 17.5 27 q11 16 31.5 50 q20.5 34 46.5 80 q14 25 28 53 l-237 0 q-4 0 -9 2 q-5 2 -8.5 5.5 q-3.5 3.5 -5.5 7.5 Z" /><glyph glyph-name="uni4E1D" unicode="&#x4e1d;" d="M607 443 q-2 4 -1 9 q1 5 3.5 10.5 q2.5 5.5 6.5 10.5 l8 10 l7 7 q2 2 5.5 6.5 q3.5 4.5 9 12 q5.5 7.5 14.5 21.5 q9 12 27 39.5 q18 27.5 39.5 65 q21.5 37.5 45 81.5 q23.5 44 43.5 88 q2 5 6 9 q4 4 8 6.5 q4 2.5 9.5 2.5 q5.5 0 10 -1.5 q4.5 -1.5 7 -5.5 q2.5 -4 4 -8.5 q1.5 -4.5 1.5 -9.5 q0 -5 -2 -10 q-47 -94 -99 -181 q-44 -74 -90 -133 l168 9 q7 0 13 -2 q5 -2 9 -6 q8 12 17 24 q39 53 74 107 q2 5 6 8 q4 3 8.5 4.5 q4.5 1.5 9.5 1.5 q5 0 8 -3 q4 -2 7 -6 q3 -4 4 -9 q1 -5 0.5 -10.5 q-0.5 -5.5 -3.5 -10.5 q-77 -112 -160 -214 q-71 -85 -141 -153 l279 14 q6 0 11.5 -1.5 q5.5 -1.5 9.5 -5 q4 -3.5 6 -8 q2 -4.5 2 -8.5 q0 -8 -7.5 -13.5 q-7.5 -5.5 -16.5 -6.5 q-77 -4 -130.5 -7 q-53.5 -3 -90.5 -5.5 q-37 -2.5 -60 -4.5 q-23 -2 -36 -4 q-6 0 -12 1 q-6 1 -11 4 q-2 0 -3 1 q-1 0 -2 1 q-10 1 -13 10 q-2 4 -1 9 q1 5 3.5 10.5 q2.5 5.5 6.5 10.5 q4 5 9 8 q6 5 11 9 q5 4 11.5 10 q6.5 6 15.5 15.5 q9 9.5 23 24.5 q15 15 43.5 47 q28.5 32 64.5 77 q15 19 31 39 q-81 -6 -122 -9 q-43 -4 -62 -6 q-7 -1 -13.5 0.5 q-6.5 1.5 -11.5 4.5 q-2 1 -5 3 q-10 1 -13 10 ZM202 437 q-2 4 -1 9 q1 5 3.5 10 q2.5 5 6.5 10 l8 10 q3 4 5.5 6.5 q2.5 2.5 6 7.5 q3.5 5 9 12.5 q5.5 7.5 14.5 21.5 q9 12 27 40 q18 28 39.5 65.5 q21.5 37.5 44 82 q22.5 44.5 42.5 89.5 q2 5 5.5 9 q3.5 4 8 6.5 q4.5 2.5 9.5 2.5 q5 0 10 -1 q4 -2 7 -6 q3 -4 4.5 -8.5 q1.5 -4.5 1.5 -9.5 q0 -5 -3 -9 q-45 -95 -97 -184 q-43 -76 -88 -135 l169 9 q7 0 13 -2 l20 28 q38 55 71 110 q2 4 6.5 7 q4.5 3 9 4.5 q4.5 1.5 9 1.5 q4.5 0 8.5 -2 q4 -2 6.5 -6 q2.5 -4 3.5 -9.5 q1 -5.5 0.5 -10.5 q-0.5 -5 -3.5 -9 q-75 -115 -155 -219 q-69 -89 -139 -160 l252 16 q6 0 11 -1.5 q5 -1.5 9.5 -5 q4.5 -3.5 6.5 -7 q2 -3.5 2 -7.5 q-1 -8 -9 -15 q-8 -7 -19 -7 q-67 -4 -115 -8 q-48 -4 -81 -7 q-33 -3 -53.5 -4.5 q-20.5 -1.5 -33.5 -3.5 q-7 -1 -13 0.5 q-6 1.5 -11 3.5 q-2 2 -4 3 l-1 0 q-10 2 -13 11 q-2 4 -1 9 q1 5 4 10 q3 5 7 9.5 q4 4.5 9 9.5 l10 8 q5 4 11 10.5 q6 6.5 14.5 16 q8.5 9.5 21.5 25.5 q15 15 43 48.5 q28 33.5 63 78.5 q12 15 23 31 q-71 -5 -110 -8 q-43 -3 -62 -5 q-6 -1 -12.5 0 q-6.5 1 -11.5 4 q-3 1 -6 3 q-10 1 -13 11 ZM156 13 q0 5 2 8.5 q2 3.5 5.5 7 q3.5 3.5 8 5.5 q4.5 2 9.5 2 l834 0 q4 0 8.5 -2 q4.5 -2 8 -5.5 q3.5 -3.5 6 -7 q2.5 -3.5 2.5 -8.5 q0 -4 -2.5 -8 q-2.5 -4 -6 -7 q-3.5 -3 -8 -5 q-4.5 -2 -8.5 -2 l-834 0 q-5 0 -9.5 2 q-4.5 2 -8 5 q-3.5 3 -5.5 7 q-2 4 -2 8 Z" /><glyph glyph-name="uni4E22" unicode="&#x4e22;" d="M161 350 q0 4 2.5 8 q2.5 4 6 7.5 q3.5 3.5 8 5.5 q4.5 2 8.5 2 l390 0 l0 162 l-303 0 q-4 0 -9 2 q-5 2 -8.5 5.5 q-3.5 3.5 -6 7.5 q-2.5 4 -2.5 8 q0 5 2.5 9 q2.5 4 6 7 q3.5 3 8.5 4.5 q5 1.5 9 1.5 l303 0 l0 142 q0 4 1 7 q-70 -6 -142 -11 q-90 -5 -173 -8 q-9 -1 -17 4.5 q-8 5.5 -11 12.5 q-3 10 5.5 19 q8.5 9 21.5 9 q85 4 175.5 9.5 q90.5 5.5 176.5 14.5 q86 9 162 19.5 q76 10.5 132 23.5 q6 2 13.5 -0.5 q7.5 -2.5 10.5 -7.5 l2 -2 q4 -5 5.5 -10.5 q1.5 -5.5 -0.5 -11 q-2 -5.5 -6 -9.5 q-4 -4 -11 -5 q-63 -14 -142 -25 q-76 -10 -158 -18 l0 -1 q2 -5 2 -10 l0 -142 l304 0 q4 0 9 -1.5 q5 -1.5 8.5 -4.5 q3.5 -3 6 -7 q2.5 -4 2.5 -8.5 q0 -4.5 -2.5 -8.5 q-2.5 -4 -6 -7.5 q-3.5 -3.5 -8.5 -5.5 q-5 -2 -9 -2 l-304 0 l0 -162 l390 0 q5 0 9.5 -2 q4.5 -2 8 -5.5 q3.5 -3.5 5.5 -7.5 q2 -4 2 -8 q0 -5 -2 -8.5 q-2 -3.5 -5.5 -7 q-3.5 -3.5 -8 -5.5 q-4.5 -2 -9.5 -2 l-466 0 q4 -2 7 -5 q3 -5 4 -10.5 q1 -5.5 -0.5 -10.5 q-1.5 -5 -4.5 -10 q-60 -82 -123 -157 q-46 -56 -95 -102 l544 38 q-3 4 -6 9 q-24 33 -50.5 66.5 q-26.5 33.5 -53.5 63.5 q-4 4 -5.5 10 q-1.5 6 -1 11.5 q0.5 5.5 4 10 q3.5 4.5 9.5 7.5 q5 3 13 1 q8 -2 12 -8 q29 -30 57.5 -64.5 q28.5 -34.5 54.5 -69 q26 -34.5 48.5 -68 q22.5 -33.5 38.5 -62.5 q2 -4 2.5 -9.5 q0.5 -5.5 -1 -10 q-1.5 -4.5 -5 -9 q-3.5 -4.5 -7.5 -5.5 l-1 -1 q-5 -2 -10 -2 q-5 0 -10 2 q-5 2 -9 5 q-4 3 -7 7 q-14 28 -34 60 q-7 10 -15 21 q-3 -3 -7 -5 q-5 -3 -12 -3 q-158 -12 -263.5 -19.5 q-105.5 -7.5 -173 -13 q-67.5 -5.5 -103 -9 q-35.5 -3.5 -53.5 -6.5 q-6 -1 -12.5 0 q-6.5 1 -11.5 4 q-3 1 -5 3 q-5 1 -8 4 q-4 3 -5 8 q-2 4 -0.5 9 q1.5 5 4.5 10 q3 5 7.5 9.5 q4.5 4.5 9.5 7.5 q5 4 8.5 7 q3.5 3 7.5 7 l29 29 q12 11 34 35 q22 24 49.5 57 q27.5 33 57 72 q29.5 39 55.5 79 q4 4 9 7 l-334 0 q-4 0 -8.5 2 q-4.5 2 -8 5.5 q-3.5 3.5 -6 7 q-2.5 3.5 -2.5 8.5 Z" /><glyph glyph-name="uni4E24" unicode="&#x4e24;" d="M488 715 q1 -3 1 -6 l0 -155 l214 0 l0 155 q0 3 1 6 l-216 0 ZM162 739 q0 4 2 8 q2 4 5.5 7.5 q3.5 3.5 8 5 q4.5 1.5 9.5 1.5 l827 0 q4 0 8.5 -1.5 q4.5 -1.5 8 -5 q3.5 -3.5 6 -7.5 q2.5 -4 2.5 -8.5 q0 -4.5 -2.5 -8.5 q-2.5 -4 -6 -7 q-3.5 -3 -8 -5.5 q-4.5 -2.5 -8.5 -2.5 l-266 0 q1 -3 1 -6 l0 -119 q0 -18 -1 -36 l221 0 q1 0 2 -1 l1 1 l1 0 q4 0 8 -3 q3 -1 6 -4 q4 -3 6 -7 q2 -4 2 -8 l0 -535 q0 -28 -8.5 -42 q-8.5 -14 -30.5 -21 q-21 -5 -61 -6.5 q-40 -1.5 -100 -1.5 q-7 0 -15 5 q-8 5 -9 11 q-4 13 3.5 23 q7.5 10 21.5 9 q38 -2 67 -2 q7 0 26.5 0.5 q19.5 0.5 34.5 1.5 q15 1 20 6 q5 5 5 17 l0 512 l-202 0 q-1 -14 -2 -29 q-3 -39 -10 -80 l2 -2 q5 -2 8 -6 q23 -27 46 -57 q23 -30 43.5 -60 q20.5 -30 39 -57.5 q18.5 -27.5 31.5 -50.5 q3 -6 2.5 -14.5 q-0.5 -8.5 -3.5 -12.5 q-5 -4 -9.5 -5.5 q-4.5 -1.5 -10 -0.5 q-5.5 1 -10.5 4 q-5 3 -8 8 q-14 23 -31.5 50.5 q-17.5 27.5 -37 56 q-19.5 28.5 -41.5 57.5 q-16 22 -31 41 q-15 -61 -44 -123 q-29 -64 -82 -123 q-3 -5 -8 -7.5 q-5 -2.5 -10 -3 q-5 -0.5 -9.5 0.5 q-4.5 1 -7.5 4 q-7 7 -6 18.5 q1 11.5 8 21.5 q48 54 75.5 113 q27.5 59 41.5 118 q14 59 17 115 q1 12 1 24 l-214 0 q0 -14 -1 -29 q-3 -40 -10 -81 l1 0 q5 -3 8 -7 q28 -36 53.5 -75.5 q25.5 -39.5 41.5 -69.5 q3 -4 2.5 -12 q-0.5 -8 -4.5 -12 q-4 -5 -9 -7 q-5 -2 -10.5 -1 q-5.5 1 -11 4.5 q-5.5 3.5 -8.5 9.5 q-16 30 -40 66 q-17 28 -35 53 q-15 -59 -42 -120 q-30 -64 -82 -123 q-4 -5 -9 -7.5 q-5 -2.5 -10 -3 q-5 -0.5 -9.5 0.5 q-4.5 1 -7.5 4 q-7 7 -6 18.5 q1 11.5 8 21.5 q49 54 76.5 113 q27.5 59 41 118 q13.5 59 16.5 115 l2 24 l-182 0 q-2 0 -4 -2 q-2 -2 -2 -5 l0 -550 q0 -5 -1.5 -10 q-1.5 -5 -5 -8.5 q-3.5 -3.5 -7.5 -6 q-4 -2.5 -8 -2.5 l-1 0 q-4 0 -8 2.5 q-4 2.5 -7.5 6 q-3.5 3.5 -5.5 8.5 q-2 5 -2 9 l0 577 q0 4 2 9 q2 5 6 8.5 q4 3.5 8.5 6 q4.5 2.5 9.5 2.5 l209 0 q1 18 1 36 l0 125 l-257 0 q-5 0 -9.5 2.5 q-4.5 2.5 -8 5.5 q-3.5 3 -5.5 7 q-2 4 -2 9 Z" /><glyph glyph-name="uni4E25" unicode="&#x4e25;" d="M799.5 494 q-1.5 5 -0.5 10.5 q1 5.5 4 10.5 q22 31 45.5 71.5 q23.5 40.5 40.5 74.5 q2 5 6 9 q4 4 8.5 6.5 q4.5 2.5 9 3 q4.5 0.5 9.5 -0.5 q5 -2 7.5 -6 q2.5 -4 4.5 -9 q2 -5 2 -10.5 q0 -5.5 -3 -9.5 q-22 -39 -47.5 -81 q-25.5 -42 -48.5 -73 q-5 -6 -13 -9.5 q-8 -3.5 -13 -0.5 q-5 1 -7.5 5 q-2.5 4 -4 9 ZM514 443 l169 0 q-1 2 -1 4 l0 283 l-167 0 l0 -281 q0 -3 -1 -6 ZM271 641 q-4 5 -4.5 10.5 q-0.5 5.5 0.5 11 q1 5.5 3.5 9 q2.5 3.5 7.5 4.5 q6 3 14 -0.5 q8 -3.5 12 -9.5 q26 -35 48.5 -76.5 q22.5 -41.5 34.5 -76.5 q3 -8 -0.5 -17 q-3.5 -9 -11.5 -11 q-4 -2 -9 -1 q-5 1 -9 3 q-4 2 -8 6.5 q-4 4.5 -5 10.5 q-11 30 -30.5 67 q-19.5 37 -42.5 70 ZM152 -56 q-7 6 -7 17.5 q0 11.5 6 20.5 q24 34 38 70 q14 36 21.5 72.5 q7.5 36.5 10.5 73 q3 36.5 3 71.5 l0 148 q0 4 1.5 9 q1.5 5 5.5 8.5 q4 3.5 8 6 q4 2.5 8 2.5 q5 0 9 -2 q5 2 11 2 l203 0 q-1 3 -1 6 l0 281 l-233 0 q-5 0 -10 2 q-5 2 -8.5 5 q-3.5 3 -5.5 6.5 q-2 3.5 -2 8.5 q0 4 2 7.5 q2 3.5 5.5 7 q3.5 3.5 8.5 5 q5 1.5 10 1.5 l739 0 q5 0 10 -1.5 q5 -1.5 8.5 -5 q3.5 -3.5 5.5 -7 q2 -3.5 2 -8 q0 -4.5 -2 -8 q-2 -3.5 -5.5 -6.5 q-3.5 -3 -8.5 -5 q-5 -2 -10 -2 l-246 0 l0 -287 l278 0 q11 0 19 -7 q8 -7 8 -14 q0 -5 -2.5 -8.5 q-2.5 -3.5 -6 -7 q-3.5 -3.5 -8.5 -5 q-5 -1.5 -10 -1.5 l-737 0 l0 -131 q0 -35 -3.5 -75.5 q-3.5 -40.5 -12 -82 q-8.5 -41.5 -25 -82.5 q-16.5 -41 -41.5 -77 q-3 -5 -8 -8 q-5 -3 -9.5 -4 q-4.5 -1 -10 0 q-5.5 1 -8.5 4 Z" /><glyph glyph-name="uni4E2A" unicode="&#x4e2a;" d="M576 -48 l0 581 q0 4 2 8.5 q2 4.5 5 8 q3 3.5 7.5 6 q4.5 2.5 8.5 2.5 l1 0 q5 0 9 -2.5 q4 -2.5 7.5 -6 q3.5 -3.5 5.5 -8 q2 -4.5 2 -8.5 l0 -581 q0 -5 -2 -9.5 q-2 -4.5 -5.5 -8 q-3.5 -3.5 -7.5 -5.5 q-4 -2 -9 -2 l-1 0 q-4 0 -8.5 2 q-4.5 2 -7.5 5.5 q-3 3.5 -5 8 q-2 4.5 -2 9.5 ZM166 398 q-8 10 -5 21.5 q3 11.5 16 18.5 q63 33 123.5 75 q60.5 42 115 91 q54.5 49 101 103 q46.5 54 82.5 109 q3 3 6 5.5 q3 2.5 8 4 q5 1.5 9 2 q4 0.5 7 -1.5 q5 -1 7.5 -5.5 q2.5 -4.5 3.5 -9 q1 -4.5 0.5 -10 q-0.5 -5.5 -3.5 -10.5 q-5 -8 -11 -16 q2 -1 4 -3 q74 -105 172 -185.5 q98 -80.5 224 -148.5 q13 -7 16 -19 q3 -12 -4 -21 q-2 -3 -6.5 -5 q-4.5 -2 -9 -2.5 q-4.5 -0.5 -9 0 q-4.5 0.5 -9.5 2.5 q-128 73 -228 157 q-98 83 -175 189 q-24 -32 -51 -64 q-50 -58 -107 -109.5 q-57 -51.5 -119.5 -95.5 q-62.5 -44 -127.5 -78 q-3 -1 -7 -1.5 q-4 -0.5 -8.5 0 q-4.5 0.5 -8 2.5 q-3.5 2 -5.5 4 l-1 1 Z" /><glyph glyph-name="uni4E2D" unicode="&#x4e2d;" d="M621 309 l326 0 l0 292 q0 2 -2 4 q-2 2 -4 2 l-320 0 l0 -298 ZM248 308 q3 1 5 1 l320 0 l0 298 l-319 0 q-2 0 -4 -2 q-2 -2 -2 -4 l0 -293 ZM202 222 l0 405 q0 5 2 9.5 q2 4.5 5.5 8 q3.5 3.5 8.5 5.5 q5 2 10 2 l345 0 l0 157 q0 4 2 9 q2 5 5.5 8.5 q3.5 3.5 7.5 6 q4 2.5 8 2.5 l2 0 q4 0 8 -2.5 q4 -2.5 8 -6 q4 -3.5 5.5 -8.5 q1.5 -5 1.5 -9 l0 -157 l348 0 q4 0 9 -2 q5 -2 8.5 -5.5 q3.5 -3.5 6 -8 q2.5 -4.5 2.5 -8.5 l0 -402 q0 -4 -2 -8.5 q-2 -4.5 -5 -8 q-3 -3.5 -7 -5.5 q-4 -2 -9 -2 l-1 0 q-5 0 -9 2 q-4 2 -7.5 5.5 q-3.5 3.5 -5.5 8.5 q-2 5 -2 9 l0 36 l-326 0 l0 -309 q0 -5 -1.5 -9.5 q-1.5 -4.5 -5.5 -8.5 q-4 -4 -8 -6 q-4 -2 -8 -2 l-2 0 q-4 0 -8 2 q-4 2 -7.5 6 q-3.5 4 -5.5 8.5 q-2 4.5 -2 9.5 l0 309 l-320 0 q-2 0 -5 1 l0 -42 q0 -4 -2 -9 q-2 -5 -5 -8.5 q-3 -3.5 -7 -5.5 q-4 -2 -9 -2 q-4 0 -8 2 q-4 2 -8 5.5 q-4 3.5 -5.5 8 q-1.5 4.5 -1.5 9.5 Z" /><glyph glyph-name="uni4E30" unicode="&#x4e30;" d="M159 190 q-2 4 -2 9 q0 5 2 9 q2 4 5.5 7.5 q3.5 3.5 8 5 q4.5 1.5 9.5 1.5 l393 0 l0 193 l-306 0 q-5 0 -9.5 2 q-4.5 2 -8.5 5.5 q-4 3.5 -6 7 q-2 3.5 -2 8.5 q0 4 2 8 q2 4 6 7.5 q4 3.5 8.5 5.5 q4.5 2 9.5 2 l306 0 l0 178 l-354 0 q-5 0 -10 2 q-5 2 -8.5 5.5 q-3.5 3.5 -6 7.5 q-2.5 4 -2.5 8.5 q0 4.5 2.5 8.5 q2.5 4 6 7.5 q3.5 3.5 8.5 5 q5 1.5 10 1.5 l354 0 l0 124 q0 4 2.5 9 q2.5 5 5.5 8.5 q3 3.5 7 6 q4 2.5 9 2.5 l2 0 q4 0 8 -2.5 q4 -2.5 8 -6 q4 -3.5 5.5 -8.5 q1.5 -5 1.5 -9 l0 -124 l353 0 q5 0 10 -1.5 q5 -1.5 8.5 -5 q3.5 -3.5 6 -7.5 q2.5 -4 2.5 -8.5 q0 -4.5 -2.5 -8.5 q-2.5 -4 -6 -7.5 q-3.5 -3.5 -8.5 -5.5 q-5 -2 -10 -2 l-353 0 l0 -178 l309 0 q4 0 9 -2 q5 -2 8.5 -5.5 q3.5 -3.5 6 -7.5 q2.5 -4 2.5 -8.5 q0 -4.5 -2.5 -8 q-2.5 -3.5 -6 -7 q-3.5 -3.5 -8.5 -5.5 q-5 -2 -9 -2 l-309 0 l0 -193 l395 0 q5 0 9.5 -1.5 q4.5 -1.5 8 -5 q3.5 -3.5 5.5 -7.5 q2 -4 2 -9 q0 -5 -2 -9 q-2 -4 -5.5 -7 q-3.5 -3 -8 -5.5 q-4.5 -2.5 -9.5 -2.5 l-395 0 l0 -221 q0 -5 -1.5 -9.5 q-1.5 -4.5 -5.5 -8 q-4 -3.5 -8 -6 q-4 -2.5 -8 -2.5 l-2 0 q-5 0 -9 2.5 q-4 2.5 -7 6 q-3 3.5 -5.5 8 q-2.5 4.5 -2.5 9.5 l0 221 l-393 0 q-5 0 -9.5 2.5 q-4.5 2.5 -8 5.5 q-3.5 3 -5.5 7 Z" /><glyph glyph-name="uni4E32" unicode="&#x4e32;" d="M621 503 l270 0 q2 0 4 2 q2 2 2 4 l0 156 q0 2 -2 4 q-2 2 -4 2 l-270 0 l0 -168 ZM621 142 l316 0 q3 0 6 -1 l0 171 q0 2 -2 4 q-2 2 -4 2 l-316 0 l0 -176 ZM298 509 q0 -2 2 -4 q2 -2 4 -2 l269 0 l0 168 l-269 0 q-2 0 -4 -2 q-2 -2 -2 -4 l0 -156 ZM260 141 q3 1 6 1 l307 0 l0 176 l-307 0 q-2 0 -4 -2 q-2 -2 -2 -4 l0 -171 ZM213 81 l0 255 q0 5 2 10 q2 5 6 8.5 q4 3.5 8.5 6 q4.5 2.5 9.5 2.5 l334 0 l0 97 l-295 0 q-5 0 -10 2 q-5 2 -8.5 6 q-3.5 4 -5.5 8.5 q-2 4.5 -2 8.5 l0 205 q0 5 2 9.5 q2 4.5 5.5 8 q3.5 3.5 8.5 5.5 q5 2 10 2 l295 0 l0 93 q0 5 2 10 q2 5 5 8.5 q3 3.5 7.5 5.5 q4.5 2 8.5 2 l2 0 q5 0 9 -2 q4 -2 7.5 -5.5 q3.5 -3.5 5 -8.5 q1.5 -5 1.5 -10 l0 -93 l297 0 q6 0 10.5 -2 q4.5 -2 8.5 -5.5 q4 -3.5 6 -8 q2 -4.5 2 -9.5 l0 -205 q0 -4 -2 -8.5 q-2 -4.5 -6 -8.5 q-4 -4 -8.5 -6 q-4.5 -2 -10.5 -2 l-297 0 l0 -97 l344 0 q4 0 9 -2.5 q5 -2.5 8.5 -6 q3.5 -3.5 6 -8.5 q2.5 -5 2.5 -9 l0 -254 q0 -5 -2 -9.5 q-2 -4.5 -5 -8.5 q-3 -4 -7 -6 q-4 -2 -9 -2 l-2 0 q-5 0 -9 2 q-4 2 -7.5 6 q-3.5 4 -5 8.5 q-1.5 4.5 -1.5 10.5 l0 15 q-3 -1 -6 -1 l-316 0 l0 -144 q0 -5 -1.5 -9.5 q-1.5 -4.5 -5 -8.5 q-3.5 -4 -7.5 -6 q-4 -2 -9 -2 l-2 0 q-4 0 -8.5 2 q-4.5 2 -7.5 6 q-3 4 -5 8.5 q-2 4.5 -2 9.5 l0 144 l-307 0 q-3 0 -6 1 l0 -18 q0 -5 -1.5 -10 q-1.5 -5 -5 -8.5 q-3.5 -3.5 -7.5 -6 q-4 -2.5 -8 -2.5 l-2 0 q-4 0 -8 2.5 q-4 2.5 -8 6 q-4 3.5 -5.5 8.5 q-1.5 5 -1.5 10 Z" /><glyph glyph-name="uni4E34" unicode="&#x4e34;" d="M792 29 l175 0 l0 298 q0 2 -2 4 q-2 2 -5 2 l-168 0 q1 -4 1 -7 l0 -288 q0 -5 -1 -9 ZM699 573.5 q-3 4.5 -4 9.5 q-1 5 0.5 10 q1.5 5 5.5 8 q5 4 14 4 q9 0 15 -5 q36 -29 73 -62 q37 -33 62 -59 q3 -3 5 -7.5 q2 -4.5 2.5 -9 q0.5 -4.5 -0.5 -9 q-1 -4.5 -4 -7.5 q-3 -3 -8 -4.5 q-5 -1.5 -10 -2 q-5 -0.5 -10 1.5 q-5 2 -9 6 q-24 26 -58 57.5 q-34 31.5 -67 60.5 q-4 4 -7 8.5 ZM574 28 q2 1 4 1 l172 0 q-2 4 -2 9 l0 288 q0 3 1 7 l-169 0 q-2 0 -4 -2 q-2 -2 -2 -5 l0 -298 ZM527 -48 l0 401 q0 5 2 9 q2 4 5.5 8 q3.5 4 8.5 6 q5 2 10 2 l435 0 q5 0 10 -2 q5 -2 8.5 -5.5 q3.5 -3.5 6 -8 q2.5 -4.5 2.5 -9.5 l0 -397 q0 -4 -2.5 -8.5 q-2.5 -4.5 -5.5 -8 q-3 -3.5 -7 -6 q-4 -2.5 -9 -2.5 q-4 0 -8.5 2.5 q-4.5 2.5 -8 6 q-3.5 3.5 -5.5 8.5 q-2 5 -2 9 l0 26 l-389 0 q-2 0 -4 1 l0 -31 q0 -5 -2.5 -9.5 q-2.5 -4.5 -5.5 -8 q-3 -3.5 -7 -6 q-4 -2.5 -8.5 -2.5 q-4.5 0 -9 2.5 q-4.5 2.5 -7.5 6 q-3 3.5 -5 8 q-2 4.5 -2 8.5 ZM476 472 q-9 6 -9.5 17.5 q-0.5 11.5 7.5 22.5 q49 61 86.5 139 q37.5 78 63.5 164 q1 5 4 8.5 q3 3.5 7 6.5 q4 3 8.5 4 q4.5 1 8.5 0 q4 0 8 -3 q4 -3 6.5 -7.5 q2.5 -4.5 3 -10 q0.5 -5.5 -1.5 -9.5 q-14 -47 -31 -91 l386 0 q5 0 9.5 -2 q4.5 -2 8 -5.5 q3.5 -3.5 5.5 -7.5 q2 -4 2 -8.5 q0 -4.5 -2 -8.5 q-2 -4 -5.5 -7 q-3.5 -3 -8.5 -5.5 q-5 -2.5 -10 -2.5 l-394 0 q-5 0 -10 2 q-9 -21 -19 -41 q-41 -83 -91 -146 q-2 -4 -6 -6.5 q-4 -2.5 -8.5 -4 q-4.5 -1.5 -9 -1 q-4.5 0.5 -8.5 2.5 ZM361 -43 l0 839 q0 5 2 9 q2 4 5.5 8 q3.5 4 7.5 6 q4 2 8.5 2 q4.5 0 8.5 -2 q4 -2 7 -6 q3 -4 5 -8 q2 -4 2 -9 l0 -839 q0 -4 -2 -8.5 q-2 -4.5 -5 -8 q-3 -3.5 -7 -6 q-4 -2.5 -8.5 -2.5 q-4.5 0 -8.5 2.5 q-4 2.5 -7.5 6 q-3.5 3.5 -5.5 8 q-2 4.5 -2 8.5 ZM199 93 l0 589 q0 5 1.5 9.5 q1.5 4.5 5 8 q3.5 3.5 7.5 5.5 q4 2 9 2 q4 0 8 -2 q4 -2 7 -5.5 q3 -3.5 4.5 -8 q1.5 -4.5 1.5 -9.5 l0 -589 q0 -4 -1.5 -8.5 q-1.5 -4.5 -4.5 -8.5 q-3 -4 -7 -6 q-4 -2 -8 -2 q-5 0 -9 2 q-4 2 -7.5 6 q-3.5 4 -5 8.5 q-1.5 4.5 -1.5 8.5 Z" /><glyph glyph-name="uni4E3A" unicode="&#x4e3a;" d="M623 366.5 q-2 5.5 -1 10.5 q1 5 3 9.5 q2 4.5 6 6.5 q7 3 15.5 1 q8.5 -2 13.5 -8 q37 -39 71.5 -83.5 q34.5 -44.5 55.5 -79.5 q3 -3 3 -7.5 q0 -4.5 -1 -9 q-1 -4.5 -3 -8 q-2 -3.5 -6 -6.5 q-4 -2 -9 -2 q-5 0 -10 1.5 q-5 1.5 -9.5 5 q-4.5 3.5 -6.5 8.5 q-21 33 -52.5 74 q-31.5 41 -64.5 77 q-3 5 -5 10.5 ZM293.5 770.5 q-1.5 5.5 -1.5 10.5 q0 5 3 9.5 q3 4.5 8 7.5 q5 3 13.5 0.5 q8.5 -2.5 13.5 -8.5 q25 -26 49 -56 q24 -30 40 -55 q3 -4 3.5 -8.5 q0.5 -4.5 -0.5 -9 q-1 -4.5 -3.5 -8 q-2.5 -3.5 -6.5 -6.5 q-3 -2 -8.5 -2 q-5.5 0 -10 1.5 q-4.5 1.5 -9 5 q-4.5 3.5 -7.5 7.5 q-15 23 -35.5 50 q-20.5 27 -42.5 51 q-4 5 -5.5 10.5 ZM182 -48 q-8 8 -6.5 20 q1.5 12 12.5 20 q121 86 189 181 q68 95 101 190 q32 92 41 180 l-305 0 q-6 0 -10.5 1.5 q-4.5 1.5 -8.5 5.5 q-4 4 -6 8 q-2 4 -2 8 l0 1 q0 4 2 8 q2 4 6 7.5 q4 3.5 8.5 5 q4.5 1.5 10.5 1.5 l308 0 q5 71 5 135 l0 83 q0 4 2 9 q2 5 5.5 8.5 q3.5 3.5 7.5 6 q4 2.5 9 2.5 q5 0 9 -2.5 q4 -2.5 7.5 -6 q3.5 -3.5 5 -8.5 q1.5 -5 1.5 -9 l0 -83 q0 -63 -4 -135 l397 0 q4 0 7 -1 q1 0 2 -1 q4 -1 8 -4.5 q4 -3.5 6 -7.5 q2 -4 2 -8 l0 -7 q-7 -153 -13 -259 q-6 -106 -14 -174.5 q-8 -68.5 -18.5 -105.5 q-10.5 -37 -25.5 -54 q-15 -16 -31.5 -22.5 q-16.5 -6.5 -40.5 -8.5 q-9 0 -20 0 q-17 0 -46.5 1 q-29.5 1 -70.5 3 q-9 0 -16.5 6 q-7.5 6 -9.5 12 q-3 12 5 21 q8 9 24 8 q20 -2 37.5 -3 q17.5 -1 33 -1.5 q15.5 -0.5 27.5 -0.5 l21 0 q17 0 26.5 2.5 q9.5 2.5 17.5 11.5 q13 13 22.5 48.5 q9.5 35.5 17.5 104 q8 68.5 15 173.5 q5 93 10 221 l-377 0 q-9 -97 -44 -199 q-36 -101 -108 -202 q-72 -101 -198 -191 q-4 -2 -9 -3.5 q-5 -1.5 -10 -1.5 q-5 0 -9 1.5 q-4 1.5 -6 4.5 Z" /><glyph glyph-name="uni4E3B" unicode="&#x4e3b;" d="M510.5 790.5 q-2.5 5.5 -3 10.5 q-0.5 5 1.5 10 q2 5 7 7 l1 1 q4 3 12 2 q8 -1 13 -4 q40 -31 80.5 -68.5 q40.5 -37.5 67.5 -68.5 q4 -4 5.5 -8.5 q1.5 -4.5 1.5 -9.5 q0 -5 -2.5 -9 q-2.5 -4 -5.5 -7 l-2 -1 q-3 -3 -7.5 -3.5 q-4.5 -0.5 -9.5 0.5 q-5 1 -9.5 3 q-4.5 2 -7.5 5 q-24 30 -60 65 q-36 35 -74 66 q-6 4 -8.5 9.5 ZM159 -15 q0 4 2.5 8 q2.5 4 6 7.5 q3.5 3.5 8 5 q4.5 1.5 8.5 1.5 l391 0 l0 279 l-300 0 q-4 0 -9 2.5 q-5 2.5 -8.5 5.5 q-3.5 3 -5.5 7 q-2 4 -2 8.5 q0 4.5 2 8.5 q2 4 5.5 7.5 q3.5 3.5 8.5 5.5 q5 2 9 2 l300 0 l0 237 q0 5 2 9 q0 1 1 2 l-344 0 q-5 0 -9.5 2.5 q-4.5 2.5 -8.5 5.5 q-4 3 -6 7 q-2 4 -2 8 q0 5 2 9 q2 4 6 7.5 q4 3.5 8.5 5.5 q4.5 2 9.5 2 l734 0 q5 0 9.5 -2 q4.5 -2 8.5 -5.5 q4 -3.5 6 -7.5 q2 -4 2 -9 q0 -4 -2 -8 q-2 -4 -6 -7 q-4 -3 -8.5 -5.5 q-4.5 -2.5 -9.5 -2.5 l-347 0 q1 -1 1 -2 q2 -4 2 -9 l0 -237 l307 0 q4 0 9 -2 q5 -2 8.5 -5.5 q3.5 -3.5 6 -7.5 q2.5 -4 2.5 -8.5 q0 -4.5 -2.5 -8.5 q-2.5 -4 -6 -7 q-3.5 -3 -8.5 -5.5 q-5 -2.5 -9 -2.5 l-307 0 l0 -279 l396 0 q5 0 9.5 -1.5 q4.5 -1.5 8 -5 q3.5 -3.5 5.5 -7.5 q2 -4 2 -8 q0 -5 -2 -9 q-2 -4 -5.5 -7.5 q-3.5 -3.5 -8 -5.5 q-4.5 -2 -9.5 -2 l-836 0 q-4 0 -8.5 2 q-4.5 2 -8 5.5 q-3.5 3.5 -6 7.5 q-2.5 4 -2.5 9 Z" /><glyph glyph-name="uni4E3E" unicode="&#x4e3e;" d="M523 807.5 q-1 5.5 -0.5 11 q0.5 5.5 3 9.5 q2.5 4 7.5 5 q6 3 14 0.5 q8 -2.5 13 -9.5 q21 -29 40.5 -62 q19.5 -33 31.5 -59 q2 -5 2 -9 q0 -4 -1 -8.5 q-1 -4.5 -4 -8 q-3 -3.5 -6 -4.5 q-4 -2 -9 -2 q-5 0 -10 2 q-5 2 -8 6.5 q-3 4.5 -6 8.5 q-12 24 -28.5 53 q-16.5 29 -34.5 55 q-3 6 -4 11.5 ZM286 775 q-1 6 -0.5 11 q0.5 5 3 9.5 q2.5 4.5 7.5 6.5 q6 3 14 1 q8 -2 12 -8 q24 -26 47.5 -57 q23.5 -31 39.5 -57 q3 -5 3 -9.5 q0 -4.5 -1 -9 q-1 -4.5 -3.5 -8 q-2.5 -3.5 -5.5 -5.5 q-5 -2 -9.5 -2.5 q-4.5 -0.5 -9.5 2 q-5 2.5 -9.5 5.5 q-4.5 3 -7.5 7 q-13 24 -33 51.5 q-20 27.5 -42 52.5 q-4 4 -5 10 ZM197 152 q-2 4 -2 8 q0 4 2 8 q2 4 5.5 7.5 q3.5 3.5 8 5.5 q4.5 2 9.5 2 l355 0 l0 147 l-223 0 q-4 0 -9 2 q-5 2 -8.5 5 q-3.5 3 -6 7 q-2.5 4 -2.5 8 q0 5 2.5 8.5 q2.5 3.5 6 7 q3.5 3.5 8.5 5.5 q5 2 9 2 l223 0 l0 106 q0 5 2 10 q2 5 5 8.5 q3 3.5 7.5 5.5 q4.5 2 9.5 2 q5 0 9 -2 q4 -2 7 -5.5 q3 -3.5 5 -8.5 q2 -5 2 -10 l0 -106 l237 0 q4 0 9 -2 q5 -2 8.5 -5.5 q3.5 -3.5 6 -7 q2.5 -3.5 2.5 -8.5 q0 -4 -2.5 -8 q-2.5 -4 -6 -7 q-3.5 -3 -8.5 -5 q-5 -2 -9 -2 l-237 0 l0 -147 l365 0 q4 0 8.5 -2 q4.5 -2 8 -5.5 q3.5 -3.5 6 -7.5 q2.5 -4 2.5 -8 q0 -4 -2.5 -8 q-2.5 -4 -6 -7 q-3.5 -3 -8 -5.5 q-4.5 -2.5 -8.5 -2.5 l-365 0 l0 -187 q0 -5 -2 -9.5 q-2 -4.5 -5 -8.5 q-3 -4 -7 -6 q-4 -2 -9 -2 q-5 0 -9.5 2 q-4.5 2 -7.5 6 q-3 4 -5 8.5 q-2 4.5 -2 9.5 l0 187 l-355 0 q-5 0 -9.5 2.5 q-4.5 2.5 -8 5.5 q-3.5 3 -5.5 7 ZM158 325 q-7 8 -3 19.5 q4 11.5 16 18.5 q38 17 74.5 42 q36.5 25 69 55 q32.5 30 60.5 65 q24 30 42 61 l-233 0 q-5 0 -9.5 1.5 q-4.5 1.5 -8 5 q-3.5 3.5 -5.5 7.5 q-2 4 -2 8 q0 5 2 8.5 q2 3.5 5.5 7 q3.5 3.5 8 5 q4.5 1.5 9.5 1.5 l572 0 l0 2 q-1 6 1 11 q2 5 5 10 q26 32 55.5 71.5 q29.5 39.5 50.5 73.5 q5 9 15 13 q10 4 18 0 q6 -2 9 -6 q3 -4 4 -9 q1 -5 0 -10 q-1 -5 -4 -10 q-27 -39 -58 -79 q-29 -37 -56 -67 l221 0 q4 0 8.5 -1.5 q4.5 -1.5 8 -5 q3.5 -3.5 6 -7 q2.5 -3.5 2.5 -8 q0 -4.5 -2.5 -8.5 q-2.5 -4 -6 -7.5 q-3.5 -3.5 -8 -5 q-4.5 -1.5 -8.5 -1.5 l-232 0 q19 -28 42 -55 q29 -33 63 -62.5 q34 -29.5 71 -54.5 q37 -25 74 -43 q12 -6 16 -17.5 q4 -11.5 -3 -20.5 q-5 -6 -14.5 -7.5 q-9.5 -1.5 -17.5 2.5 q-39 20 -78 47 q-39 27 -74.5 59.5 q-35.5 32.5 -67.5 69 q-32 36.5 -56 74.5 q-2 4 -3 8 l-273 0 l0 -2 q-1 -5 -4 -9 q-23 -41 -53.5 -78.5 q-30.5 -37.5 -65.5 -70 q-35 -32.5 -74 -59.5 q-39 -27 -79 -46 q-7 -4 -16 -3 q-9 1 -14 7 Z" /><glyph glyph-name="uni4E45" unicode="&#x4e45;" d="M157.5 335 q-2.5 5 -2 10.5 q0.5 5.5 3 11 q2.5 5.5 7.5 9.5 q90 82 160 197 q70 115 116 247 q2 5 5.5 8.5 q3.5 3.5 7.5 6 q4 2.5 8.5 3.5 q4.5 1 8.5 1 l2 -1 q5 -1 8.5 -4.5 q3.5 -3.5 5.5 -8 q2 -4.5 3 -10 q1 -5.5 -2 -10.5 q-24 -67 -54 -130 l267 0 q5 0 10 -1 q1 -1 3 -1 q2 2 4 2 q2 0 4 1 l4 1 q2 1 5.5 0.5 q3.5 -0.5 6.5 -2.5 l7 -4 q3 -1 6 -4.5 q3 -3.5 4.5 -7.5 q1.5 -4 2.5 -8 q1 -4 0 -8 q-33 -127 -85 -233 q4 -4 6 -10 q25 -65 60.5 -126.5 q35.5 -61.5 79.5 -114 q44 -52.5 96 -95 q52 -42.5 109 -71.5 q14 -7 17 -19 q3 -12 -5 -21 q-2 -4 -5.5 -5.5 q-3.5 -1.5 -8 -2.5 q-4.5 -1 -9 -0.5 q-4.5 0.5 -7.5 2.5 q-61 30 -116 75.5 q-55 45.5 -102 102 q-47 56.5 -85 122.5 q-32 55 -56 114 q-49 -87 -107 -158 q-72 -86 -156.5 -151 q-84.5 -65 -175.5 -110 q-4 -2 -9 -2.5 q-5 -0.5 -9.5 0.5 q-4.5 1 -8 3 q-3.5 2 -6.5 5 q-8 10 -4.5 22 q3.5 12 16.5 19 q88 44 170 106.5 q82 62.5 150.5 145.5 q68.5 83 121.5 187 q45 92 74 200 l-289 0 q-1 0 -3 1 q-23 -44 -48 -85 q-73 -119 -164 -206 q-4 -3 -8.5 -4.5 q-4.5 -1.5 -9 -1.5 q-4.5 0 -9.5 1 q-5 1 -8 3 q-5 4 -7.5 9 Z" /><glyph glyph-name="uni4E48" unicode="&#x4e48;" d="M217 6 q-2 5 -1.5 10 q0.5 5 3 10.5 q2.5 5.5 7 10 q4.5 4.5 9.5 7.5 q10 6 18.5 12.5 q8.5 6.5 20.5 16 q12 9.5 27 23 q15 13.5 37 34.5 q23 20 68.5 65.5 q45.5 45.5 103 107.5 q57.5 62 121 136 q63.5 74 120.5 151 q3 4 6.5 6.5 q3.5 2.5 8 3.5 q4.5 1 9 1.5 q4.5 0.5 7.5 -1.5 l3 -1 q4 -3 7.5 -7.5 q3.5 -4.5 4.5 -10 q1 -5.5 0 -10.5 q-1 -5 -4 -10 q-127 -162 -258 -303 q-115 -122 -227 -216 l587 50 q-7 10 -15 20 q-30 41 -62 81.5 q-32 40.5 -65 76.5 q-3 5 -4 10.5 q-1 5.5 -0.5 10.5 q0.5 5 2.5 9.5 q2 4.5 7 6.5 l1 0 q6 3 15 1.5 q9 -1.5 15 -8.5 q33 -37 67 -79 q34 -42 65.5 -84 q31.5 -42 58.5 -82 q27 -40 46 -74 q2 -4 2 -8.5 q0 -4.5 -1 -9 q-1 -4.5 -3.5 -8.5 q-2.5 -4 -5.5 -6 l-2 -1 q-4 -2 -9 -2 q-5 0 -10 1.5 q-5 1.5 -9 4.5 q-4 3 -6 8 q-20 33 -46 72 q-6 10 -13 19 q-5 -3 -11 -3 q-176 -15 -293 -25 q-117 -10 -190.5 -17.5 q-73.5 -7.5 -111.5 -11 q-38 -3.5 -57 -6.5 q-6 -1 -12.5 0 q-6.5 1 -11.5 3 q-2 2 -4 3 q-11 3 -15 12 ZM191 383 q-4 3 -5 8.5 q-1 5.5 0 11 q1 5.5 3.5 10 q2.5 4.5 7.5 9.5 q49 38 98 83.5 q49 45.5 94.5 95 q45.5 49.5 85.5 100 q40 50.5 71 99.5 q4 7 13.5 11 q9.5 4 16.5 1 l2 0 q5 -2 8 -6.5 q3 -4.5 4.5 -9.5 q1.5 -5 0.5 -10.5 q-1 -5.5 -4 -10.5 q-35 -51 -77.5 -104 q-42.5 -53 -89.5 -104 q-47 -51 -97 -97.5 q-50 -46.5 -100 -87.5 q-3 -2 -7.5 -3 q-4.5 -1 -9 -1 q-4.5 0 -8.5 1 q-4 1 -7 4 Z" /><glyph glyph-name="uni4E49" unicode="&#x4e49;" d="M542 797 q-2 5 -2 10 q0 5 1.5 9.5 q1.5 4.5 4 8.5 q2.5 4 5.5 5 q8 4 17 -0.5 q9 -4.5 13 -12.5 q23 -48 45 -100 q22 -52 36 -94 q1 -5 0.5 -9.5 q-0.5 -4.5 -1.5 -8.5 q-1 -4 -4 -7.5 q-3 -3.5 -6 -5.5 q-4 -1 -9.5 -1 q-5.5 0 -10 2.5 q-4.5 2.5 -8 7 q-3.5 4.5 -5.5 9.5 q-13 42 -33.5 92 q-20.5 50 -42.5 95 ZM159 -56 q-7 9 -2 20 q5 11 19 16 q142 56 255 132 q74 51 138 110 l-8 8 q-93 98 -167 215.5 q-74 117.5 -129 246.5 q-2 4 -2 9.5 q0 5.5 1.5 10 q1.5 4.5 5 8 q3.5 3.5 7.5 4.5 q3 2 7.5 0.5 q4.5 -1.5 8.5 -3.5 q4 -2 8 -5.5 q4 -3.5 5 -8.5 q51 -122 123 -234 q72 -112 162 -206 q6 -6 11 -12 q15 15 29 30 q88 96 152 209.5 q64 113.5 110 241.5 q2 5 5.5 8.5 q3.5 3.5 8 6 q4.5 2.5 9 3.5 q4.5 1 8.5 -1 l2 0 q4 -2 7 -5 q3 -3 5 -7.5 q2 -4.5 2.5 -9.5 q0.5 -5 -1.5 -10 q-50 -134 -118 -251.5 q-68 -117.5 -159 -217.5 q-13 -14 -27 -29 q71 -68 153 -124 q106 -73 227 -120 q15 -5 19 -17 q4 -12 -5 -22 q-3 -5 -11.5 -7.5 q-8.5 -2.5 -15.5 0.5 q-127 47 -238 123 q-87 60 -164 134 q-67 -63 -146 -116 q-117 -80 -266 -137 q-7 -3 -16 -0.5 q-9 2.5 -13 7.5 Z" /><glyph glyph-name="uni4E4B" unicode="&#x4e4b;" d="M542 800 q-1 5 -0.5 10 q0.5 5 3 9.5 q2.5 4.5 7.5 6.5 l1 1 q3 1 7 1 q4 0 8 -1 q4 -1 8 -3 q4 -2 6 -5 q23 -32 45.5 -66 q22.5 -34 36.5 -61 q3 -4 3.5 -8.5 q0.5 -4.5 -0.5 -9 q-1 -4.5 -4 -8 q-3 -3.5 -6 -6.5 l-2 -1 q-4 -1 -9 -1.5 q-5 -0.5 -9.5 1 q-4.5 1.5 -8.5 5 q-4 3.5 -7 7.5 q-13 27 -33.5 59 q-20.5 32 -41.5 60 q-3 5 -4 10 ZM165.5 -16.5 q-1.5 4.5 -1.5 9.5 q0 5 1.5 9 q1.5 4 4.5 8 q43 47 80.5 77.5 q37.5 30.5 74.5 30.5 q10 0 20 -4 q3 5 9 8 q75 44 153 103 q78 59 149 124.5 q71 65.5 131 133.5 q46 52 80 99 l-635 0 q-5 0 -10 2 q-5 2 -8.5 5 q-3.5 3 -5.5 7.5 q-2 4.5 -2 8.5 q0 5 2 9 q2 4 5.5 7.5 q3.5 3.5 8.5 5 q5 1.5 10 1.5 l653 0 q4 0 9 -1 q2 1 5 1 q2 0 3.5 0.5 q1.5 0.5 3.5 0.5 q2 1 6 0 q4 -1 7 -3 l5 -2 q4 -3 7 -8 q3 -5 4 -10 q1 -5 0.5 -10 q-0.5 -5 -3.5 -9 q-48 -67 -112.5 -138 q-64.5 -71 -138 -137.5 q-73.5 -66.5 -152.5 -125.5 q-74 -56 -145 -98 q5 -4 11 -9 q15 -11 35 -24 q47 -30 109.5 -38.5 q62.5 -8.5 146.5 -8.5 q85 0 172.5 3.5 q87.5 3.5 158.5 8.5 q14 1 22.5 -8 q8.5 -9 4.5 -22 q-1 -8 -9 -14 q-8 -6 -17 -6 q-31 -2 -73.5 -3.5 q-42.5 -1.5 -88 -3 q-45.5 -1.5 -90.5 -2 q-45 -0.5 -81 -0.5 q-90 0 -155 10.5 q-65 10.5 -115 42.5 q-29 19 -52 39 q-23 20 -39 20 q-22 0 -51.5 -26.5 q-29.5 -26.5 -62.5 -69.5 q-5 -5 -10 -7.5 q-5 -2.5 -10.5 -3 q-5.5 -0.5 -10.5 1.5 q-5 2 -8 6 l-1 1 q-3 4 -4.5 8.5 Z" /><glyph glyph-name="uni4E4C" unicode="&#x4e4c;" d="M301 347 l0 357 q0 6 2 10.5 q2 4.5 5.5 8 q3.5 3.5 8.5 6 q5 2.5 10 2.5 l166 0 q0 5 2 11 q12 17 23.5 37.5 q11.5 20.5 19.5 38.5 q3 9 11.5 14 q8.5 5 17.5 3 q5 -1 8.5 -4.5 q3.5 -3.5 5.5 -8.5 q2 -5 2 -10 q0 -5 -3 -10 l-24 -42 q-9 -16 -17 -29 l341 0 q5 0 9.5 -2 q4.5 -2 8.5 -5 q4 -3 6 -7 q2 -4 2 -8.5 q0 -4.5 -2 -8.5 l-1 -1 q-4 -51 -9 -88 q-4 -39 -10 -66 q-6 -27 -12.5 -42.5 q-6.5 -15.5 -14.5 -24.5 q-11 -10 -24 -13.5 q-13 -3.5 -33 -4.5 l-42 0 q-27 0 -58 2 q-8 0 -15.5 5.5 q-7.5 5.5 -8.5 10.5 q-3 11 5.5 18 q8.5 7 23.5 6 q13 -1 25 -1 q12 0 22 -0.5 q10 -0.5 18 -0.5 l15 0 q14 0 21 1.5 q7 1.5 13 6.5 q6 6 11 20.5 q5 14.5 10 40 q5 25.5 10 63.5 q3 23 6 54 l-502 0 q-3 0 -5 -1.5 q-2 -1.5 -2 -4.5 l0 -310 q0 -2 1.5 -3.5 q1.5 -1.5 3.5 -1.5 l635 0 q3 0 6 -2 q5 -2 8 -5 l1 0 q4 -3 6 -7 q2 -4 2 -8 q0 -3 -1 -6 q-6 -95 -13 -161 q-7 -68 -14.5 -112.5 q-7.5 -44.5 -16.5 -69.5 q-9 -25 -21 -38 q-13 -13 -27.5 -18 q-14.5 -5 -37.5 -6 q-12 -1 -31 -1 q-9 0 -31 0.5 q-22 0.5 -60 3.5 q-8 0 -15.5 5 q-7.5 5 -8.5 11 q-4 12 5 20.5 q9 8.5 25 7.5 q17 -2 32 -2.5 q15 -0.5 28 -1 q13 -0.5 23 0.5 l19 0 q14 -1 23.5 0.5 q9.5 1.5 16.5 8.5 q10 10 18.5 34 q8.5 24 15 67.5 q6.5 43.5 12.5 109.5 q5 53 10 124 l-634 0 q-5 0 -10 2 q-5 2 -8.5 6 q-3.5 4 -5.5 9 q-2 5 -2 10 ZM161 166 q0 4 2 8 q2 4 5.5 7 q3.5 3 8.5 4.5 q5 1.5 10 1.5 l652 0 q5 0 9.5 -1.5 q4.5 -1.5 8.5 -4.5 q4 -3 6 -7 q2 -4 2 -8.5 q0 -4.5 -2 -8 q-2 -3.5 -6 -7 q-4 -3.5 -8.5 -5 q-4.5 -1.5 -9.5 -1.5 l-652 0 q-5 0 -10 1.5 q-5 1.5 -8.5 5 q-3.5 3.5 -5.5 7 q-2 3.5 -2 8.5 Z" /><glyph glyph-name="uni4E4D" unicode="&#x4e4d;" d="M163.5 411 q-2.5 5 -2.5 11 q0 6 2.5 11 q2.5 5 6.5 10 q76 72 139.5 169 q63.5 97 109.5 204 q1 5 4 8 q3 3 7 6 q4 3 8.5 3.5 q4.5 0.5 8.5 0.5 l2 -1 q4 -1 8 -4.5 q4 -3.5 6.5 -8 q2.5 -4.5 2.5 -10.5 q0 -6 -3 -10 q-31 -74 -70 -142 l618 0 q4 0 9 -1.5 q5 -1.5 8.5 -5.5 q3.5 -4 6 -8 q2.5 -4 2.5 -8 q0 -5 -2.5 -9 q-2.5 -4 -6 -7 q-3.5 -3 -8.5 -5 q-5 -2 -10 -2 l-448 0 l0 -172 q2 1 5 1 l391 0 q4 0 8.5 -2 q4.5 -2 8 -5 q3.5 -3 5.5 -7 q2 -4 2 -8.5 q0 -4.5 -2 -8.5 q-2 -4 -5.5 -7.5 q-3.5 -3.5 -8 -5 q-4.5 -1.5 -8.5 -1.5 l-396 0 l0 -178 l407 0 q4 0 9 -1.5 q5 -1.5 8.5 -5 q3.5 -3.5 6 -7.5 q2.5 -4 2.5 -9 q0 -4 -2.5 -8 q-2.5 -4 -6 -7.5 q-3.5 -3.5 -8.5 -5.5 q-5 -2 -9 -2 l-401 0 q-3 0 -6 1 l0 -221 q0 -4 -1.5 -9 q-1.5 -5 -5 -8.5 q-3.5 -3.5 -7.5 -6 q-4 -2.5 -8 -2.5 l-2 0 q-4 0 -8 2.5 q-4 2.5 -8 6 q-4 3.5 -5.5 8.5 q-1.5 5 -1.5 9 l0 660 l-130 0 q-7 0 -12 2 q-2 2 -4 3 l-22 -34 q-67 -101 -142 -177 q-3 -3 -7.5 -5 q-4.5 -2 -9.5 -2.5 q-5 -0.5 -9.5 1 q-4.5 1.5 -7.5 3.5 q-5 3 -7.5 8 Z" /><glyph glyph-name="uni4E4E" unicode="&#x4e4e;" d="M788 432 q-1 5 -0.5 10 q0.5 5 2.5 10 q13 20 26 44 q13 24 25.5 49.5 q12.5 25.5 24 51 q11.5 25.5 21.5 47.5 q2 5 5.5 9 q3.5 4 8 6.5 q4.5 2.5 9.5 3 q5 0.5 10 -0.5 l1 0 q4 -2 7 -6 q3 -4 5 -9 q2 -5 2 -10.5 q0 -5.5 -3 -10.5 q-25 -49 -52 -102.5 q-27 -53.5 -53 -94.5 q-4 -7 -12.5 -10.5 q-8.5 -3.5 -16.5 -0.5 q-3 1 -6 5 q-3 4 -4 9 ZM293 613 q-3 6 -3 11.5 q0 5.5 1.5 10.5 q1.5 5 5 9 q3.5 4 7.5 5 q7 3 15.5 -1.5 q8.5 -4.5 11.5 -11.5 q26 -46 49.5 -97 q23.5 -51 36.5 -90 q2 -5 1.5 -9 q-0.5 -4 -2.5 -8.5 q-2 -4.5 -4.5 -8 q-2.5 -3.5 -7.5 -4.5 q-4 -2 -9 -1 q-5 1 -9 3.5 q-4 2.5 -8 7 q-4 4.5 -6 8.5 q-12 38 -33 85.5 q-21 47.5 -46 90.5 ZM161 326 q-2 4 -2 9 q0 5 2 9 q2 4 6 7 q4 3 8.5 5 q4.5 2 8.5 2 l399 0 l0 353 q0 3 1 6 q-73 -6 -149 -11 q-89 -5 -172 -8 q-10 -1 -18 4.5 q-8 5.5 -10 12.5 q-3 9 5 16.5 q8 7.5 21 8.5 q83 3 172.5 9 q89.5 6 175.5 15 q86 9 162 20 q76 11 131 26 q7 1 15 -2 q8 -3 11 -9 l0 -1 q4 -4 4.5 -9.5 q0.5 -5.5 -2 -10.5 q-2.5 -5 -6.5 -8.5 q-4 -3.5 -11 -5.5 q-61 -14 -139 -25 q-69 -10 -144 -18 q2 -5 2 -10 l0 -353 l386 0 q5 0 9 -2 q4 -2 8 -5 q4 -3 6 -7 q2 -4 2 -9 q0 -5 -2 -9 q-2 -4 -6 -7.5 q-4 -3.5 -8 -5.5 q-4 -2 -9 -2 l-386 0 l0 -311 q0 -33 -11 -48 q-11 -15 -36 -21 q-21 -6 -64.5 -6.5 q-43.5 -0.5 -115.5 -1.5 q-8 0 -15.5 4.5 q-7.5 4.5 -9.5 11.5 q-5 12 2.5 22 q7.5 10 22.5 9 q44 -2 77 -2 q8 0 31 0.5 q23 0.5 40 1.5 q17 1 23.5 6.5 q6.5 5.5 6.5 22.5 l0 312 l-399 0 q-4 0 -8.5 2 q-4.5 2 -8.5 5.5 q-4 3.5 -6 7.5 Z" /><glyph glyph-name="uni4E4F" unicode="&#x4e4f;" d="M518 642 q-3 4 -3.5 9 q-0.5 5 0 10 q0.5 5 3 9.5 q2.5 4.5 6.5 6.5 l1 0 q3 1 7 1 q4 0 8.5 -1 q4.5 -1 8 -3.5 q3.5 -2.5 6.5 -5.5 q20 -26 40 -53.5 q20 -27.5 34 -49.5 q3 -3 3.5 -8 q0.5 -5 -0.5 -9.5 q-1 -4.5 -3 -8 q-2 -3.5 -6 -6.5 q-4 -2 -9 -2.5 q-5 -0.5 -10.5 1 q-5.5 1.5 -10 4.5 q-4.5 3 -7.5 8 q-14 21 -32 47.5 q-18 26.5 -36 50.5 ZM231 707 q-1 5 1 9.5 q2 4.5 6 8.5 q4 4 9.5 6.5 q5.5 2.5 12.5 2.5 q87 4 180.5 10.5 q93.5 6.5 183.5 15.5 q90 9 170.5 20 q80.5 11 140.5 25 q6 1 14 -2 q8 -3 11 -8 l2 -2 q4 -5 4 -9.5 q0 -4.5 -2.5 -9.5 q-2.5 -5 -6.5 -8.5 q-4 -3.5 -11 -5.5 q-64 -14 -147.5 -25 q-83.5 -11 -174.5 -19.5 q-91 -8.5 -185 -14.5 q-94 -6 -181 -9 q-9 -1 -17 4 q-8 5 -10 11 ZM170 -27 q-5 7 -5 16 q0 9 5 16 q45 53 83.5 86.5 q38.5 33.5 75.5 33.5 q12 0 22.5 -5.5 q10.5 -5.5 22.5 -15.5 q4 -3 7 -6 q6 6 14 10 q74 32 147.5 75.5 q73.5 43.5 140.5 91.5 q67 48 123 99 q39 36 69 69 l-628 0 q-5 0 -10 1.5 q-5 1.5 -8.5 5 q-3.5 3.5 -5.5 7.5 q-2 4 -2 9 q0 4 2 8 q2 4 5.5 7.5 q3.5 3.5 8.5 5 q5 1.5 10 1.5 l647 0 q4 0 9 -2 q2 0 3 -1 l1 1 q3 2 5 2 q2 0 3.5 0.5 q1.5 0.5 3.5 0.5 q3 1 7.5 0 q4.5 -1 7.5 -3 l3 -2 q4 -3 6.5 -8 q2.5 -5 3 -10 q0.5 -5 -1 -10.5 q-1.5 -5.5 -5.5 -9.5 q-46 -53 -107.5 -106.5 q-61.5 -53.5 -131 -103 q-69.5 -49.5 -144.5 -92.5 q-72 -42 -144 -73 q10 -8 22 -17 q49 -33 110.5 -42.5 q61.5 -9.5 149.5 -9.5 q85 0 170.5 3.5 q85.5 3.5 154.5 8.5 q15 2 23 -7.5 q8 -9.5 4 -21.5 q-1 -8 -8.5 -14 q-7.5 -6 -16.5 -7 q-30 -2 -72.5 -3.5 q-42.5 -1.5 -87.5 -2.5 q-45 -1 -89.5 -2 q-44.5 -1 -78.5 -1 q-47 0 -86.5 2.5 q-39.5 2.5 -72.5 9 q-33 6.5 -62 18 q-29 11.5 -53 29.5 q-15 11 -28.5 22 q-13.5 11 -25 21 q-11.5 10 -21 16 q-9.5 6 -17.5 6 q-23 0 -52.5 -29 q-29.5 -29 -66.5 -75 q-7 -11 -18 -12.5 q-11 -1.5 -19 8.5 l-2 2 Z" /><glyph glyph-name="uni4E50" unicode="&#x4e50;" d="M815.5 239.5 q-1.5 5.5 -1 10.5 q0.5 5 3 9.5 q2.5 4.5 7.5 6.5 q6 3 14 1 q8 -2 13 -7 q26 -26 52.5 -54.5 q26.5 -28.5 51.5 -57.5 q25 -29 47 -56 q22 -27 39 -50 q3 -5 3.5 -9.5 q0.5 -4.5 -0.5 -9 q-1 -4.5 -3.5 -8.5 q-2.5 -4 -5.5 -7 l-1 0 q-3 -3 -8.5 -3 q-5.5 0 -10 1 q-4.5 1 -9 4 q-4.5 3 -6.5 7 q-16 23 -37 49.5 q-21 26.5 -44.5 54 q-23.5 27.5 -48.5 55.5 q-25 28 -50 54 q-4 4 -5.5 9.5 ZM222 393 q-1 4 -0.5 10 q0.5 6 2 12 q1.5 6 4 13 q2.5 7 3.5 12 q2 3 2.5 4.5 q0.5 1.5 1 4.5 q0.5 3 2.5 9 q2 6 5 19 q3 11 8.5 36 q5.5 25 11 57 q5.5 32 11 70.5 q5.5 38.5 7.5 78.5 q0 6 2.5 11 q2.5 5 7.5 8 l2 2 q1 2 4 4 q3 4 8.5 6.5 q5.5 2.5 12.5 2.5 q78 2 162.5 7 q84.5 5 165 13 q80.5 8 151.5 18.5 q71 10.5 121 24.5 q6 1 13.5 -1.5 q7.5 -2.5 10.5 -6.5 l1 -1 q4 -5 5 -10.5 q1 -5.5 -1 -10.5 q-2 -5 -6.5 -9 q-4.5 -4 -11.5 -6 q-57 -14 -130.5 -24.5 q-73.5 -10.5 -154 -18 q-80.5 -7.5 -164.5 -11.5 q-78 -5 -151 -7 q-7 -77 -22 -157 q-13 -70 -28 -127 l318 0 l0 193 q0 4 1.5 9 q1.5 5 5 8.5 q3.5 3.5 8 6 q4.5 2.5 8.5 2.5 l1 0 q5 0 9 -2.5 q4 -2.5 7 -6 q3 -3.5 5 -8.5 q2 -5 2 -9 l0 -193 l354 0 q5 0 9.5 -2 q4.5 -2 8.5 -5.5 q4 -3.5 6 -7.5 q2 -4 2 -8 l0 -1 q0 -4 -2 -8.5 q-2 -4.5 -6 -7.5 q-4 -3 -8.5 -5.5 q-4.5 -2.5 -10.5 -2.5 l-353 0 l0 -383 q0 -28 -8.5 -41 q-8.5 -13 -28.5 -19 q-18 -6 -51 -7 q-33 -1 -91 -2 q-6 0 -13 5 q-7 5 -9 10 q-5 12 2.5 21.5 q7.5 9.5 21.5 8.5 q27 -1 47 -1 q10 0 28 0.5 q18 0.5 31 1.5 q13 1 18.5 5.5 q5.5 4.5 5.5 16.5 l0 384 l-254 0 q-25 0 -42 -0.5 q-17 -0.5 -28 -1.5 q-8 -1 -15.5 0 q-7.5 1 -13.5 4 q-1 1 -3 2 l-3 0 q-6 0 -9.5 3 q-3.5 3 -5.5 8 ZM160 14 q-2 5 -2 10.5 q0 5.5 2.5 10.5 q2.5 5 6.5 10 q47 43 91.5 98.5 q44.5 55.5 78.5 112.5 q5 7 14 11 q9 4 15 2 l1 0 q4 -2 8 -6 q4 -4 5 -8.5 q1 -4.5 0.5 -10 q-0.5 -5.5 -3.5 -10.5 q-37 -61 -84.5 -120 q-47.5 -59 -93.5 -105 q-3 -4 -8 -6 q-5 -2 -9.5 -2 q-4.5 0 -9 1 q-4.5 1 -7.5 4 q-3 3 -5 8 Z" /><glyph glyph-name="uni4E58" unicode="&#x4e58;" d="M750 278 l0 239 q0 5 1.5 9 q1.5 4 5 8 q3.5 4 7.5 6 q4 2 8.5 2 q4.5 0 8.5 -2 q4 -2 7 -6 q3 -4 4.5 -8 q1.5 -4 1.5 -9 l0 -91 q38 14 77 31 q40 17 70 33 q7 3 16 1.5 q9 -1.5 14 -6.5 q4 -5 4.5 -10 q0.5 -5 -0.5 -10 q-1 -5 -5 -9 q-4 -4 -10 -6 q-34 -17 -75.5 -32.5 q-41.5 -15.5 -81.5 -30.5 q-4 -1 -9 -1 l0 -109 q0 -16 7 -20.5 q7 -4.5 32 -4.5 l122 0 q16 0 22 8.5 q6 8.5 7 42.5 q2 5 5 9 q3 4 7 7.5 q4 3.5 9 4.5 q5 1 10 0 q3 -2 5.5 -5 q2.5 -3 4.5 -6.5 q2 -3.5 2.5 -8 q0.5 -4.5 -0.5 -8.5 q-2 -26 -5.5 -43 q-3.5 -17 -11 -26 q-7.5 -9 -19 -13 q-11.5 -4 -31.5 -4 l-129 0 q-24 0 -40 2.5 q-16 2.5 -25 10.5 q-9 8 -12.5 21 q-3.5 13 -3.5 34 ZM171 244 q-1 4 -0.5 9 q0.5 5 4 9 q3.5 4 8.5 6.5 q5 2.5 10 3.5 q43 8 95.5 17.5 q52.5 9.5 109.5 21.5 q2 1 5 1 l0 109 l-185 0 q-11 0 -19 6.5 q-8 6.5 -8 14.5 q0 4 2.5 7.5 q2.5 3.5 6 6.5 q3.5 3 8.5 4.5 q5 1.5 10 1.5 l185 0 l0 54 q0 4 1.5 9 q1.5 5 5 8.5 q3.5 3.5 7.5 6 q4 2.5 8 2.5 q5 0 9 -2.5 q4 -2.5 7 -6 q3 -3.5 4.5 -8.5 q1.5 -5 1.5 -9 l0 -272 q0 -5 -1.5 -9.5 q-1.5 -4.5 -4.5 -8.5 q-3 -4 -7 -6 q-4 -2 -9 -2 q-4 0 -8 2 q-4 2 -7.5 6 q-3.5 4 -5 8.5 q-1.5 4.5 -1.5 9.5 l0 29 q-53 -12 -105 -22 q-53 -11 -99 -21 q-8 -2 -16.5 2.5 q-8.5 4.5 -11.5 11.5 ZM163 -23 q-7 10 -2.5 21 q4.5 11 18.5 17 q60 21 116.5 53.5 q56.5 32.5 107.5 73.5 q51 41 93.5 88 q42.5 47 72.5 97 q2 3 5 6 l0 241 l-381 0 q-5 0 -10 2 q-5 2 -9 5.5 q-4 3.5 -6 7 q-2 3.5 -2 8 q0 4.5 2 8.5 q2 4 6 7.5 q4 3.5 9 5 q5 1.5 10 1.5 l381 0 l0 112 q0 2 1 5 q-69 -6 -141 -10 q-87 -6 -167 -8 q-9 -1 -17 3.5 q-8 4.5 -10 11.5 q-2 10 6 18 q8 8 21 8 q81 4 168.5 9.5 q87.5 5.5 171 13 q83.5 7.5 158.5 17.5 q75 10 131 22 q7 1 15 -2 q8 -3 10 -9 q3 -5 2.5 -10.5 q-0.5 -5.5 -3 -10 q-2.5 -4.5 -7 -7.5 q-4.5 -3 -10.5 -4 q-61 -12 -138 -22 q-69 -9 -144 -16 q2 -5 2 -9 l0 -112 l383 0 q6 0 10.5 -1.5 q4.5 -1.5 8.5 -5 q4 -3.5 6 -7.5 q2 -4 2 -8.5 q0 -4.5 -2 -8 q-2 -3.5 -6 -7 q-4 -3.5 -8.5 -5.5 q-4.5 -2 -10.5 -2 l-383 0 l0 -241 q5 -3 8 -8 q31 -49 73.5 -96.5 q42.5 -47.5 93 -89 q50.5 -41.5 107 -74.5 q56.5 -33 115.5 -56 q14 -5 19 -16 q5 -11 -3 -20 q-3 -6 -11.5 -8.5 q-8.5 -2.5 -15.5 1.5 q-61 22 -120 58 q-59 36 -112 80 q-53 44 -99 95 q-30 35 -55 71 l0 -318 q0 -4 -2 -9 q-2 -5 -5.5 -8.5 q-3.5 -3.5 -7.5 -6 q-4 -2.5 -9 -2.5 l-1 0 q-5 0 -9 2.5 q-4 2.5 -7 6 q-3 3.5 -5.5 8.5 q-2.5 5 -2.5 9 l0 314 q-23 -33 -51 -65 q-45 -51 -98.5 -94.5 q-53.5 -43.5 -112.5 -78.5 q-59 -35 -120 -58 q-8 -3 -16.5 -0.5 q-8.5 2.5 -12.5 7.5 Z" /><glyph glyph-name="uni4E5D" unicode="&#x4e5d;" d="M165 -59 q-8 8 -5.5 19.5 q2.5 11.5 13.5 19.5 q111 59 171.5 147 q60.5 88 88.5 195 q26 95 33 202 l-257 0 q-4 0 -8.5 2 q-4.5 2 -8 5 q-3.5 3 -6 7 q-2.5 4 -2.5 9 l0 1 q0 4 2.5 8 q2.5 4 6 7.5 q3.5 3.5 8 5.5 q4.5 2 8.5 2 l259 0 q5 112 5 227 q0 5 2 10 q2 5 5.5 8.5 q3.5 3.5 7.5 6 q4 2.5 9 2.5 l2 0 q4 0 8 -2.5 q4 -2.5 8 -6 q4 -3.5 5.5 -8 q1.5 -4.5 1.5 -9.5 q-1 -88 -3 -175 q-1 -27 -2 -53 l281 0 q4 0 8 -2 l4 -2 q1 -2 3 -3 l0 -1 l1 0 q1 -2 3 -3 l2 -4 q2 -4 2 -8 l0 -523 q0 -23 7 -30.5 q7 -7.5 33 -7.5 l125 0 q10 0 16.5 4 q6.5 4 11 15.5 q4.5 11.5 6.5 31 q2 19.5 3 49.5 q1 16 10.5 23 q9.5 7 21.5 2 q5 -3 10 -11 q5 -8 4 -16 q-2 -41 -6 -69 q-4 -28 -13 -44.5 q-9 -16.5 -23.5 -23.5 q-14.5 -7 -38.5 -7 l-130 0 q-24 0 -40.5 3.5 q-16.5 3.5 -26.5 13 q-10 9.5 -14 26.5 q-4 17 -4 42 l0 498 l-259 0 q-3 -35 -7 -70 q-10 -82 -30 -157.5 q-20 -75.5 -56 -141.5 q-36 -66 -90.5 -121.5 q-54.5 -55.5 -133.5 -96.5 q-4 -2 -8.5 -3 q-4.5 -1 -9 0 q-4.5 1 -8 2.5 q-3.5 1.5 -6.5 4.5 Z" /><glyph glyph-name="uni4E5F" unicode="&#x4e5f;" d="M141 392 q-1 5 0 9.5 q1 4.5 3.5 8.5 q2.5 4 6.5 7.5 q4 3.5 9 4.5 l165 50 l0 268 q0 5 2 10 q2 5 5.5 9 q3.5 4 7.5 6 q4 2 8 2 q5 0 9 -2 q4 -2 7.5 -6 q3.5 -4 5.5 -8.5 q2 -4.5 2 -10.5 l0 -254 l241 74 l0 246 q0 5 1.5 10 q1.5 5 5.5 8.5 q4 3.5 8 6 q4 2.5 8 2.5 q5 0 9 -2.5 q4 -2.5 7 -6 q3 -3.5 5 -8.5 q2 -5 2 -10 l0 -233 l249 76 q5 2 9 1 l2 0 l6 8 q4 4 11.5 4.5 q7.5 0.5 11.5 -2.5 l3 -1 q7 -3 13 -8 q4 -4 3 -6 l0 -1 q0 -2 -0.5 -5 q-0.5 -3 -0.5 -6 q-2 -138 -10 -228.5 q-8 -90.5 -25 -135.5 q-14 -37 -34.5 -51.5 q-20.5 -14.5 -44.5 -16.5 q-18 -1 -43 -1 l-49 0 q-7 1 -15 5.5 q-8 4.5 -10 10.5 q-2 12 5 20 q7 8 21 7 q12 0 22 -0.5 q10 -0.5 19 -0.5 l32 0 q19 0 32.5 8.5 q13.5 8.5 24.5 40.5 q15 40 21 127 q5 77 7 189 l-260 -79 l0 -369 q0 -5 -2 -10 q-2 -5 -5 -8.5 q-3 -3.5 -7 -5.5 q-4 -2 -9 -2 q-4 0 -8 2 q-4 2 -8 5.5 q-4 3.5 -5.5 8.5 q-1.5 5 -1.5 10 l0 355 l-241 -73 l0 -360 q0 -26 5 -43.5 q5 -17.5 18 -28 q13 -10.5 37 -14.5 q24 -4 61 -4 l385 0 q33 0 53.5 6.5 q20.5 6.5 33.5 24 q13 17.5 20.5 46.5 q7.5 29 11.5 74 q3 14 12.5 21 q9.5 7 21.5 3 q6 -3 10.5 -11 q4.5 -8 3.5 -16 q-6 -54 -14 -91 q-8 -37 -25.5 -59.5 q-17.5 -22.5 -48.5 -32.5 q-31 -10 -83 -10 l-375 0 q-49 0 -82.5 6.5 q-33.5 6.5 -54 21.5 q-20.5 15 -29 42 q-8.5 27 -8.5 68 l0 343 l-153 -47 q-5 -2 -9.5 -1.5 q-4.5 0.5 -9 2.5 q-4.5 2 -7.5 5 q-3 3 -5 6 Z" /><glyph glyph-name="uni4E60" unicode="&#x4e60;" d="M356.5 564 q-3.5 5 -4.5 10 q-1 5 0.5 10 q1.5 5 5.5 8 q5 5 14 5 q9 0 16 -4 q32 -21 65 -44 q33 -23 65 -47 q32 -24 60.5 -46.5 q28.5 -22.5 50.5 -42.5 q3 -3 5.5 -7.5 q2.5 -4.5 2.5 -9 q0 -4.5 -1 -9 q-1 -4.5 -4 -7.5 l0 -1 q-4 -4 -8.5 -5.5 q-4.5 -1.5 -9.5 -1.5 q-5 0 -10 2 q-5 2 -9 5 q-21 19 -48.5 41.5 q-27.5 22.5 -57.5 45.5 q-30 23 -62.5 46 q-32.5 23 -62.5 44 q-4 3 -7.5 8 ZM226 731 q0 4 2.5 8 q2.5 4 6 7 q3.5 3 8 5 q4.5 2 8.5 2 l701 0 q4 0 8.5 -2 q4.5 -2 8.5 -5 q4 -3 6 -7 q2 -4 2 -8 l0 -10 q-3 -201 -6 -337.5 q-3 -136.5 -8 -222.5 q-5 -86 -14 -130 q-9 -44 -23 -62 q-13 -20 -29.5 -27.5 q-16.5 -7.5 -40.5 -8.5 q-15 -1 -35 -1 q-10 0 -32.5 0.5 q-22.5 0.5 -58.5 2.5 q-9 0 -16 5.5 q-7 5.5 -9 12.5 q-3 11 5.5 19.5 q8.5 8.5 24.5 7.5 q19 -1 34.5 -1.5 q15.5 -0.5 29.5 -1 q14 -0.5 25 -1.5 l20 0 q13 -1 22 2.5 q9 3.5 17 13.5 q11 14 19 58.5 q8 44.5 13.5 132.5 q5.5 88 9.5 224 q3 125 6 301 l-680 0 q-4 0 -8.5 2 q-4.5 2 -8 5 q-3.5 3 -6 7 q-2.5 4 -2.5 9 ZM221 95 q-1 4 -1 9.5 q0 5.5 2.5 10 q2.5 4.5 6.5 8.5 q4 4 10 5 q52 17 116 37.5 q64 20.5 135 44.5 q71 24 147 49 q76 25 151 50 q6 3 11 2 q5 -1 10 -3 q5 -2 8 -6 q3 -4 5 -9 q1 -7 -5 -15.5 q-6 -8.5 -13 -10.5 q-73 -25 -147.5 -50 q-74.5 -25 -146 -49.5 q-71.5 -24.5 -137 -46.5 q-65.5 -22 -120.5 -40 q-4 -2 -9 -1.5 q-5 0.5 -10 2.5 q-5 2 -8 5 q-3 3 -4 7 l-1 1 Z" /><glyph glyph-name="uni4E66" unicode="&#x4e66;" d="M854 756 q-3 5 -4 9.5 q-1 4.5 0 9.5 q1 5 4 9 q4 4 13 4.5 q9 0.5 15 -3.5 q38 -26 76.5 -55.5 q38.5 -29.5 66.5 -53.5 q3 -3 5.5 -7 q2.5 -4 3 -9 q0.5 -5 -0.5 -9.5 q-1 -4.5 -3 -8.5 q-3 -3 -8 -4.5 q-5 -1.5 -10 -2 q-5 -0.5 -10 1.5 q-5 2 -8 5 q-26 24 -61.5 52.5 q-35.5 28.5 -71.5 53.5 q-4 3 -7 8 ZM585 384 l261 0 l0 219 q0 2 -2 4 q-2 2 -4 2 l-255 0 l0 -225 ZM165 353 q-2 4 -2 8.5 q0 4.5 2 8.5 q2 4 5.5 7 q3.5 3 8.5 5 q5 2 10 2 l350 0 l0 225 l-278 0 q-4 0 -9 1.5 q-5 1.5 -8.5 5.5 q-3.5 4 -6 8 q-2.5 4 -2.5 8.5 q0 4.5 2.5 8 q2.5 3.5 6 7 q3.5 3.5 8.5 5 q5 1.5 9 1.5 l278 0 l0 151 q0 4 1.5 9 q1.5 5 5 8.5 q3.5 3.5 8 6 q4.5 2.5 8.5 2.5 l1 0 q4 0 8 -2.5 q4 -2.5 7.5 -6 q3.5 -3.5 5 -8.5 q1.5 -5 1.5 -9 l0 -151 l281 0 q5 0 9.5 -2 q4.5 -2 8.5 -5.5 q4 -3.5 6 -8.5 q2 -5 2 -10 l0 -244 l119 0 q5 0 10 -2 q5 -2 8.5 -5 q3.5 -3 5.5 -7 q2 -4 2 -8.5 q0 -4.5 -2 -8.5 l-1 -1 q-5 -71 -11 -121 q-5 -53 -12 -88.5 q-7 -35.5 -15 -56.5 q-8 -21 -19 -31 q-13 -13 -27.5 -17 q-14.5 -4 -36.5 -6 q-9 0 -23 0 q-14 0 -39.5 0.5 q-25.5 0.5 -65.5 2.5 q-8 1 -15.5 6 q-7.5 5 -9.5 11 q-3 12 6 20 q9 8 25 7 q18 -1 34 -2 q16 -1 29.5 -1 q13.5 0 24.5 -1 l19 0 q16 0 25 1.5 q9 1.5 16 7.5 q8 8 15 27.5 q7 19.5 13 53.5 q6 34 11 86 q4 38 9 88 l-402 0 l0 -388 q0 -4 -1.5 -9 q-1.5 -5 -5 -8.5 q-3.5 -3.5 -7.5 -5.5 q-4 -2 -8 -2 l-1 0 q-4 0 -8.5 2 q-4.5 2 -8 5.5 q-3.5 3.5 -5 8.5 q-1.5 5 -1.5 9 l0 388 l-350 0 q-5 0 -10 1.5 q-5 1.5 -8.5 5 q-3.5 3.5 -5.5 7.5 Z" /><glyph glyph-name="uni4E70" unicode="&#x4e70;" d="M652.5 141.5 q-1.5 4.5 -1.5 9.5 q0 5 3 9 q4 4 12 5.5 q8 1.5 15 -1.5 q88 -42 171.5 -90 q83.5 -48 145.5 -93 q5 -3 8 -7.5 q3 -4.5 3.5 -9.5 q0.5 -5 -0.5 -10 q-1 -5 -4 -9 q-5 -5 -15 -5.5 q-10 -0.5 -17 4.5 q-58 43 -138.5 90.5 q-80.5 47.5 -166.5 91.5 q-5 3 -9.5 7 q-4.5 4 -6 8.5 ZM347.5 610 q-2.5 5 -2 9.5 q0.5 4.5 3.5 8.5 q3 4 11.5 5.5 q8.5 1.5 15.5 -1.5 q41 -17 84 -40.5 q43 -23.5 72 -45.5 q4 -3 6.5 -6.5 q2.5 -3.5 4 -8 q1.5 -4.5 0.5 -9 q-1 -4.5 -3 -8.5 q-3 -3 -7 -4.5 q-4 -1.5 -9.5 -2 q-5.5 -0.5 -10.5 1 q-5 1.5 -9 4.5 q-27 20 -64.5 41.5 q-37.5 21.5 -75.5 39.5 q-6 3 -10 7 q-4 4 -6.5 9 ZM240 461 q-2 5 -1.5 9.5 q0.5 4.5 3.5 7.5 q3 5 11 7 q8 2 15 -1 q44 -17 88 -40 q44 -23 74 -45 q3 -1 6 -5 q3 -4 4 -8.5 q1 -4.5 0.5 -8.5 q-0.5 -4 -2.5 -7 q-3 -4 -7 -6.5 q-4 -2.5 -9 -2.5 q-5 0 -10 1 q-5 1 -10 4 q-29 20 -68 41 q-39 21 -79 38 q-5 3 -9 7 q-4 4 -6 9 ZM218 738 q0 5 2 9 q2 4 6 7.5 q4 3.5 8.5 5 q4.5 1.5 9.5 1.5 l710 0 q5 0 10 -2 l1 0 q1 1 1 2 q2 2 5 2 q2 0 4 0.5 q2 0.5 4 0.5 q1 1 5 0.5 q4 -0.5 6 -1.5 l4 -1 q4 -2 7.5 -6 q3.5 -4 5 -8.5 q1.5 -4.5 1.5 -10 q0 -5.5 -2 -9.5 q-22 -47 -43.5 -93.5 q-21.5 -46.5 -44.5 -80.5 q-5 -7 -14 -10 q-9 -3 -15 0 q-5 2 -7.5 6 q-2.5 4 -3 9 q-0.5 5 0.5 11 q1 6 4 10 q21 35 42 79 q14 29 25 57 l-706 0 q-5 0 -9.5 2 q-4.5 2 -8.5 5 q-4 3 -6 7 q-2 4 -2 8 ZM173 255 q-2 4 -2 8 q0 4 2 8 q2 4 5.5 7.5 q3.5 3.5 8.5 5.5 q5 2 10 2 l401 0 q2 8 5 17 q15 65 20.5 142.5 q5.5 77.5 7.5 168.5 q0 4 2 8.5 q2 4.5 5.5 8 q3.5 3.5 8 6 q4.5 2.5 8.5 2.5 q5 0 9.5 -2.5 q4.5 -2.5 7.5 -6.5 q3 -4 5 -9 q2 -5 1 -9 q-4 -145 -18 -257 q-5 -36 -13 -69 l359 0 q5 0 10 -2 q5 -2 8.5 -5.5 q3.5 -3.5 5.5 -7.5 q2 -4 2 -8 q0 -4 -2 -8 q-2 -4 -5.5 -7 q-3.5 -3 -8.5 -5.5 q-5 -2.5 -10 -2.5 l-372 0 q-15 -43 -37 -81 q-47 -84 -138 -141 q-91 -57 -247 -90 q-10 -2 -19 1.5 q-9 3.5 -12 9.5 q-6 11 -0.5 20 q5.5 9 20.5 12 q98 21 167.5 51.5 q69.5 30.5 116.5 71 q47 40.5 75 93.5 q13 25 23 53 l-386 0 q-5 0 -10 2.5 q-5 2.5 -8.5 5.5 q-3.5 3 -5.5 7 Z" /><glyph glyph-name="uni4E71" unicode="&#x4e71;" d="M721 45 l0 753 q0 5 2 9.5 q2 4.5 5 8.5 q3 4 7 6 q4 2 9 2 q5 0 8.5 -2 q3.5 -2 7.5 -6 q4 -4 5.5 -8.5 q1.5 -4.5 1.5 -9.5 l0 -754 q0 -37 9.5 -47.5 q9.5 -10.5 40.5 -10.5 l143 0 q13 0 22 6.5 q9 6.5 14.5 23 q5.5 16.5 8 45.5 q2.5 29 4.5 74 q2 15 10 22.5 q8 7.5 20 2.5 q6 -3 10.5 -10.5 q4.5 -7.5 4.5 -15.5 q-3 -54 -7.5 -90.5 q-4.5 -36.5 -14 -59 q-9.5 -22.5 -26.5 -32 q-17 -9.5 -45 -9.5 l-146 0 q-27 0 -46 4.5 q-19 4.5 -29.5 16 q-10.5 11.5 -14.5 31.5 q-4 20 -4 50 ZM247 38 l323 0 l0 231 q0 2 -2 3.5 q-2 1.5 -4 1.5 l-312 0 q-2 0 -3.5 -1.5 q-1.5 -1.5 -1.5 -3.5 l0 -231 ZM145 531 q0 4 2.5 7.5 q2.5 3.5 6 7 q3.5 3.5 8.5 5 q5 1.5 9 1.5 l214 0 l0 175 q-39 -7 -79 -12 q-54 -8 -105 -14 q-9 -1 -17 3 q-8 4 -10 9 q-3 9 4 17.5 q7 8.5 20 10.5 q52 6 107 14 q55 8 106 17.5 q51 9.5 96.5 21 q45.5 11.5 78.5 23.5 q5 3 12.5 1 q7.5 -2 10.5 -5 l1 -1 q6 -5 7.5 -10.5 q1.5 -5.5 0 -11 q-1.5 -5.5 -5 -9.5 q-3.5 -4 -10.5 -6 q-40 -12 -88 -24 q-40 -9 -83 -17 q1 -2 1 -4 l0 -178 l207 0 q5 0 10 -1.5 q5 -1.5 8.5 -5 q3.5 -3.5 5.5 -7 q2 -3.5 2 -8 q0 -4.5 -2 -8.5 q-2 -4 -5.5 -7.5 q-3.5 -3.5 -8.5 -5 q-5 -1.5 -10 -1.5 l-207 0 l0 -189 l157 0 q6 0 10.5 -2.5 q4.5 -2.5 8.5 -6 q4 -3.5 6 -8 q2 -4.5 2 -9.5 l0 -320 q0 -5 -2 -9.5 q-2 -4.5 -5.5 -8 q-3.5 -3.5 -7.5 -5.5 q-4 -2 -8 -2 q-5 0 -9 2 q-4 2 -7 5.5 q-3 3.5 -5 8.5 q-2 5 -2 10 l0 20 l-320 0 q-1 0 -3 1 l0 -25 q0 -5 -1.5 -10 q-1.5 -5 -5 -8.5 q-3.5 -3.5 -7 -5.5 q-3.5 -2 -8.5 -2 q-4 0 -8 2 q-4 2 -7.5 5.5 q-3.5 3.5 -5 8 q-1.5 4.5 -1.5 9.5 l0 324 q0 5 2 9.5 q2 4.5 5.5 8 q3.5 3.5 8.5 6 q5 2.5 10 2.5 l156 0 l0 189 l-214 0 q-4 0 -9 1.5 q-5 1.5 -8.5 5 q-3.5 3.5 -6 7.5 q-2.5 4 -2.5 9 Z" /><glyph glyph-name="uni4E86" unicode="&#x4e86;" d="M199 728 q0 5 2 9 q2 4 5.5 7 q3.5 3 8 5 q4.5 2 9.5 2 l687 0 q4 0 9 -2 l4 -2 l0 1 q3 3 7 3 l4 0 q1 0 2 1 l1 0 q3 0 7.5 -1 q4.5 -1 7.5 -3 l5 -4 q4 -3 6 -7.5 q2 -4.5 3 -10 q1 -5.5 -0.5 -10.5 q-1.5 -5 -6.5 -9 q-32 -34 -72 -67.5 q-40 -33.5 -83.5 -65 q-43.5 -31.5 -88.5 -59.5 q-45 -28 -88 -50 l-2 0 q1 -2 1 -4 l0 -463 q0 -30 -10 -43.5 q-10 -13.5 -34 -19.5 q-22 -6 -65.5 -7 q-43.5 -1 -114.5 -1 q-8 0 -15.5 5.5 q-7.5 5.5 -10.5 11.5 q-5 12 2.5 21 q7.5 9 21.5 8 q46 -2 79 -2 q8 0 31 0.5 q23 0.5 40 2.5 q16 0 21.5 5 q5.5 5 5.5 19 l0 463 q0 5 2.5 10 q2.5 5 5.5 8.5 q3 3.5 7 5.5 q1 0 2 1 l0 1 q2 5 6 9.5 q4 4.5 10 7.5 q43 22 86 50.5 q43 28.5 84 58.5 q41 30 76 61 q18 16 33 31 l-666 0 q-5 0 -9.5 1.5 q-4.5 1.5 -8 5.5 q-3.5 4 -5.5 8 q-2 4 -2 8 Z" /><glyph glyph-name="uni4E88" unicode="&#x4e88;" d="M160 435 q-2 4 -2 8.5 q0 4.5 2 8.5 q2 4 5.5 7.5 q3.5 3.5 8.5 5 q5 1.5 9 1.5 l524 0 q-21 12 -46 25 q-37 21 -78.5 42 q-41.5 21 -84.5 42.5 q-43 21.5 -83 39.5 q-6 3 -10 7 q-4 4 -5.5 9 q-1.5 5 -1 10 q0.5 5 3.5 9 q4 4 12 6 q8 2 15 0 q40 -19 83.5 -39.5 q43.5 -20.5 86.5 -41.5 l12 -6 q1 2 2 3 q4 5 9 9 q33 18 68 40.5 q35 22.5 67.5 47 q32.5 24.5 62.5 49.5 q11 9 21 19 l-565 0 q-5 0 -10 1.5 q-5 1.5 -8.5 5 q-3.5 3.5 -5.5 7.5 q-2 4 -2 8 q0 5 2 8.5 q2 3.5 5.5 7 q3.5 3.5 8.5 5 q5 1.5 10 1.5 l590 0 q5 0 10 -2 l1 0 q2 2 6 2 l4 0 q2 0 3 1 q3 0 7.5 -0.5 q4.5 -0.5 6.5 -3.5 l3 -2 q5 -3 7.5 -8 q2.5 -5 3 -10.5 q0.5 -5.5 -1.5 -10.5 q-2 -5 -6 -9 q-28 -27 -61 -54 q-33 -27 -68.5 -52 q-35.5 -25 -70.5 -48 q-30 -20 -58 -36 q14 -7 28 -15 q39 -20 69 -37 q5 -2 8.5 -6.5 q3.5 -4.5 5.5 -9 q2 -4.5 1 -9.5 l0 -5 l217 0 q5 0 10 -1 q0 -1 1 -1 q2 2 4 2 q2 0 4 0.5 q2 0.5 4 1.5 q2 1 5.5 0.5 q3.5 -0.5 6.5 -2.5 l6 -2 q4 -2 7 -6 q3 -4 4.5 -9.5 q1.5 -5.5 1 -10.5 q-0.5 -5 -4.5 -9 q-38 -54 -79.5 -107 q-41.5 -53 -82.5 -90 q-1 -3 -5 -4.5 q-4 -1.5 -8 -2.5 q-4 -1 -7.5 -0.5 q-3.5 0.5 -6.5 1.5 l-1 1 q-4 2 -6.5 6.5 q-2.5 4.5 -3 9.5 q-0.5 5 1.5 10.5 q2 5.5 6 9.5 q37 38 77 88 q28 35 51 69 l-339 0 q1 -1 1 -3 q2 -5 2 -9 l0 -411 q0 -27 -8.5 -39.5 q-8.5 -12.5 -30.5 -18.5 q-19 -6 -55.5 -7 q-36.5 -1 -96.5 -1 q-7 0 -14.5 4.5 q-7.5 4.5 -10.5 10.5 q-5 12 2.5 21 q7.5 9 21.5 8 l77 0 q30 0 45 1 q13 1 17.5 5.5 q4.5 4.5 4.5 15.5 l0 411 q0 4 2 9 q1 2 2 3 l-403 0 q-4 0 -9 2.5 q-5 2.5 -8.5 5.5 q-3.5 3 -5.5 7 Z" /><glyph glyph-name="uni4E89" unicode="&#x4e89;" d="M617 206 l254 0 l0 143 l-254 0 l0 -143 ZM616 528 q1 -3 1 -6 l0 -129 l254 0 l0 129 q0 2 -2 4 q-2 2 -4 2 l-249 0 ZM298 571 q3 1 6 1 l329 0 q1 3 3 6 q3 6 7 10 q32 31 63 72 q19 25 35 48 l-275 0 q-9 0 -14 3 q-4 2 -7 6 q-22 -27 -47 -54 q-45 -48 -100 -92 ZM150.5 364 q-2.5 4 -2.5 8 q0 4 2.5 8 q2.5 4 6 7 q3.5 3 8.5 4.5 q5 1.5 9 1.5 l395 0 l0 129 q0 3 1 6 l-264 0 q-5 0 -10 2 q-5 2 -8.5 5 q-3.5 3 -6 6.5 q-2.5 3.5 -2.5 8.5 q0 3 2 7 l-33 -23 q-7 -5 -16.5 -4.5 q-9.5 0.5 -14.5 5.5 q-8 8 -6 20 q2 12 15 21 q81 55 140.5 121 q59.5 66 96.5 125 q3 6 11 9.5 q8 3.5 15 2.5 l1 -1 q7 -1 12 -4.5 q5 -3.5 7 -8.5 q2 -5 2 -11 q0 -6 -4 -11 q-16 -24 -35 -47 l271 0 q4 0 9 -2 q5 -2 9 -4 q0 -1 1 -1 q0 3 2 5 q2 2 5 2 l3 0 q1 0 3 1 q2 0 6.5 -1 q4.5 -1 7.5 -3 l5 -4 q4 -2 6 -6.5 q2 -4.5 3.5 -9.5 q1.5 -5 0.5 -9.5 q-1 -4.5 -4 -8.5 q-27 -42 -63 -83 q-27 -30 -53 -55 l209 0 q4 0 8.5 -2 q4.5 -2 8.5 -6 q4 -4 6 -9 q2 -5 2 -10 l0 -152 l112 0 q5 0 9.5 -1.5 q4.5 -1.5 8.5 -4.5 q4 -3 6 -7 q2 -4 2 -8 q0 -4 -2 -8 q-2 -4 -6 -7.5 q-4 -3.5 -8.5 -5.5 q-4.5 -2 -9.5 -2 l-112 0 l0 -159 q0 -5 -2 -10 q-2 -5 -5.5 -9 q-3.5 -4 -7.5 -6 q-4 -2 -8 -2 l-4 0 q-4 -1 -7 -1 l-267 0 l0 -165 q0 -27 -9 -40.5 q-9 -13.5 -32 -20.5 q-21 -5 -48.5 -5.5 q-27.5 -0.5 -53.5 -0.5 q-25 0 -56 0 q-7 -1 -14 3.5 q-7 4.5 -9 10.5 q-6 12 1 21 q7 9 23 8 q48 -1 79.5 -1 q31.5 0 45.5 2 q15 1 20 6 q5 5 5 17 l0 165 l-304 0 q-5 0 -10 2 q-5 2 -8.5 5.5 q-3.5 3.5 -5.5 7 q-2 3.5 -2 8 q0 4.5 2 8.5 q2 4 5.5 7 q3.5 3 8.5 4.5 q5 1.5 10 1.5 l304 0 l0 143 l-395 0 q-4 0 -9 2 q-5 2 -8.5 5.5 q-3.5 3.5 -6 7.5 Z" /><glyph glyph-name="uni4E8B" unicode="&#x4e8b;" d="M621 508 l256 0 q3 0 5 2 q2 2 2 4 l0 74 q0 2 -2 4 q-2 2 -5 2 l-256 0 l0 -86 ZM621 257 l278 0 l0 80 q0 2 -1.5 4 q-1.5 2 -4.5 2 l-272 0 l0 -86 ZM621 123 l278 0 l0 93 l-278 0 l0 -93 ZM323 514 q0 -2 2 -4 q2 -2 5 -2 l243 0 l0 86 l-243 0 q-3 0 -5 -2 q-2 -2 -2 -4 l0 -74 ZM155 237 q0 7 8 13.5 q8 6.5 17 6.5 l393 0 l0 86 l-301 0 q-10 0 -18 6.5 q-8 6.5 -8 13.5 q0 7 8 13 q8 6 19 6 l300 0 l0 87 l-269 0 q-5 0 -10 2.5 q-5 2.5 -8.5 6 q-3.5 3.5 -5.5 8.5 q-2 5 -2 10 l0 110 q0 5 2 9.5 q2 4.5 5.5 8.5 q3.5 4 8.5 6 q5 2 10 2 l269 0 l0 72 l-375 0 q-11 0 -18.5 6.5 q-7.5 6.5 -7.5 14.5 q0 7 7.5 13.5 q7.5 6.5 18.5 6.5 l375 0 l0 64 q0 4 2.5 9 q2.5 5 5.5 8.5 q3 3.5 7 6 q4 2.5 9 2.5 q5 0 9 -2.5 q4 -2.5 7.5 -6 q3.5 -3.5 5.5 -8.5 q2 -5 2 -9 l0 -64 l385 0 q10 0 18 -6.5 q8 -6.5 8 -13.5 q0 -8 -8 -14.5 q-8 -6.5 -18 -6.5 l-385 0 l0 -72 l284 0 q4 0 9 -2 q5 -2 8.5 -6 q3.5 -4 6 -8.5 q2.5 -4.5 2.5 -9.5 l0 -110 q0 -5 -2.5 -10 q-2.5 -5 -6 -8.5 q-3.5 -3.5 -8.5 -6 q-5 -2.5 -9 -2.5 l-284 0 l0 -87 l298 0 q5 0 10 -2 q5 -2 8.5 -5.5 q3.5 -3.5 5.5 -8.5 q2 -5 2 -10 l0 -99 l79 0 q9 0 17 -6.5 q8 -6.5 8 -13.5 q0 -8 -8 -14.5 q-8 -6.5 -17 -6.5 l-79 0 l0 -154 q0 -5 -1.5 -9.5 q-1.5 -4.5 -5 -8.5 q-3.5 -4 -7.5 -6 q-4 -2 -8 -2 l-1 0 q-4 0 -8 2 q-4 2 -8 6 q-4 4 -5.5 8.5 q-1.5 4.5 -1.5 9.5 l0 20 l-278 0 l0 -90 q0 -30 -10 -42.5 q-10 -12.5 -30 -18.5 q-18 -5 -52 -6 q-34 -1 -89 -2 q-8 0 -15 4.5 q-7 4.5 -10 10.5 q-4 11 3.5 20 q7.5 9 22.5 8 q26 -1 47 -1 q11 0 29.5 0.5 q18.5 0.5 31.5 1.5 q14 1 19 6 q5 5 5 19 l0 90 l-310 0 q-11 0 -19 6.5 q-8 6.5 -8 14.5 q0 7 8 13.5 q8 6.5 19 6.5 l310 0 l0 93 l-393 0 q-9 0 -17 6.5 q-8 6.5 -8 14.5 Z" /><glyph glyph-name="uni4E8C" unicode="&#x4e8c;" d="M244 663 l0 2 q0 5 2 9 q2 4 5.5 7 q3.5 3 8.5 5 q5 2 9 2 l663 0 q4 0 9 -2 q5 -2 8.5 -5 q3.5 -3 5.5 -7 q2 -4 2 -9 l0 -2 q0 -5 -2 -9 q-2 -4 -5.5 -7.5 q-3.5 -3.5 -8.5 -5.5 q-5 -2 -9 -2 l-663 0 q-4 0 -9 2 q-5 2 -8.5 5.5 q-3.5 3.5 -5.5 7.5 q-2 4 -2 9 ZM158 60 l0 3 q0 5 2 9 q2 4 6 7.5 q4 3.5 8.5 5 q4.5 1.5 8.5 1.5 l835 0 q5 0 9 -1.5 q4 -1.5 8 -5 q4 -3.5 6 -7.5 q2 -4 2 -9 l0 -3 q0 -5 -2 -9 q-2 -4 -6 -7.5 q-4 -3.5 -8 -5.5 q-4 -2 -9 -2 l-835 0 q-4 0 -8.5 2 q-4.5 2 -8.5 5.5 q-4 3.5 -6 7.5 q-2 4 -2 9 Z" /><glyph glyph-name="uni4E8E" unicode="&#x4e8e;" d="M157 404 q0 5 2.5 9 q2.5 4 6 7.5 q3.5 3.5 8 5.5 q4.5 2 8.5 2 l402 0 l0 284 l-331 0 q-5 0 -9.5 2 q-4.5 2 -8 5 q-3.5 3 -5.5 7 q-2 4 -2 9 q0 5 2 8.5 q2 3.5 5.5 7.5 q3.5 4 8 5.5 q4.5 1.5 9.5 1.5 l695 0 q5 0 9 -1.5 q4 -1.5 8 -5.5 q4 -4 6 -7.5 q2 -3.5 2 -8.5 q0 -5 -2 -9 q-2 -4 -6 -7 q-4 -3 -8 -5 q-4 -2 -9 -2 l-315 0 l0 -284 l386 0 q4 0 8.5 -2 q4.5 -2 8 -5.5 q3.5 -3.5 6 -7.5 q2.5 -4 2.5 -9 q0 -4 -2.5 -8 q-2.5 -4 -6 -7.5 q-3.5 -3.5 -8 -5.5 q-4.5 -2 -8.5 -2 l-386 0 l0 -373 q0 -32 -11 -47 q-11 -15 -35 -21 q-22 -6 -64 -7 q-42 -1 -113 -2 q-7 0 -14 5 q-7 5 -10 12 q-6 12 1.5 22 q7.5 10 21.5 10 q43 -2 76 -2 q8 0 31 0.5 q23 0.5 39 1.5 q16 1 22.5 6.5 q6.5 5.5 6.5 20.5 l0 374 l-402 0 q-4 0 -8.5 2 q-4.5 2 -8 5.5 q-3.5 3.5 -6 7.5 q-2.5 4 -2.5 8 Z" /><glyph glyph-name="uni4E91" unicode="&#x4e91;" d="M269 713 q-2 4 -2 9 q0 5 2 9 q2 4 5.5 7 q3.5 3 8.5 5 q5 2 10 2 l618 0 q5 0 9.5 -2 q4.5 -2 8.5 -5 q4 -3 6 -7 q2 -4 2 -9 q0 -5 -2 -9 q-2 -4 -6 -7.5 q-4 -3.5 -8.5 -5.5 q-4.5 -2 -9.5 -2 l-618 0 q-5 0 -10 2 q-5 2 -8.5 5.5 q-3.5 3.5 -5.5 7.5 ZM161 438 l0 1 q0 5 2 9 q2 4 5.5 7 q3.5 3 8 5 q4.5 2 9.5 2 l830 0 q4 0 8.5 -2 q4.5 -2 8 -5 q3.5 -3 6 -7 q2.5 -4 2.5 -9 l0 -1 q0 -4 -2.5 -8 q-2.5 -4 -6 -8 q-3.5 -4 -8 -5.5 q-4.5 -1.5 -8.5 -1.5 l-461 0 l0 -1 q-1 -5 -4 -9 q-58 -113 -126 -219 q-56 -88 -113 -159 l567 49 q-7 12 -15 24 q-28 41 -57 82 q-29 41 -56 78 q-3 4 -4 9.5 q-1 5.5 0 11 q1 5.5 3.5 10 q2.5 4.5 6.5 6.5 l2 0 q6 4 15 1 q9 -3 14 -10 q29 -38 58.5 -79.5 q29.5 -41.5 58.5 -83 q29 -41.5 53.5 -81 q24.5 -39.5 43.5 -72.5 q3 -4 3 -9 q0 -5 -1 -9.5 q-1 -4.5 -3.5 -9 q-2.5 -4.5 -6.5 -5.5 l-2 -2 q-4 -2 -8.5 -2 q-4.5 0 -9.5 2 q-5 2 -9.5 5 q-4.5 3 -6.5 7 q-19 33 -43 72 q-5 7 -9 15 q-1 0 -2 -1 q-5 -3 -12 -3 q-164 -15 -273.5 -25 q-109.5 -10 -178.5 -16.5 q-69 -6.5 -105.5 -11 q-36.5 -4.5 -55.5 -7.5 q-6 -1 -12 -0.5 q-6 0.5 -11 3.5 q-3 1 -5 4 q-5 1 -8 4 q-4 3 -6 8 q-2 5 -1 10 q1 5 3.5 10.5 q2.5 5.5 6.5 11 q4 5.5 8 9.5 q5 4 8.5 8 q3.5 4 9 10.5 q5.5 6.5 12.5 16.5 q7 10 18 26 q12 15 34.5 49 q22.5 34 50.5 79 q28 45 58 98 q27 47 50 96 l-309 0 q-5 0 -9.5 1.5 q-4.5 1.5 -8 5.5 q-3.5 4 -5.5 8 q-2 4 -2 8 Z" /><glyph glyph-name="uni4E92" unicode="&#x4e92;" d="M370 241 l407 0 q3 28 7 57 q9 69 16 130 q4 37 7 67 q-3 -1 -6 -1 l-374 0 q-4 0 -7 1 q-4 -22 -9 -44 q-12 -66 -24 -127 q-9 -45 -17 -83 ZM157 -7 q0 4 2 8 q2 4 5.5 7 q3.5 3 8 5 q4.5 2 9.5 2 l566 0 q-1 5 0 10 q9 61 18 132 q2 20 5 40 l-399 0 q-5 0 -10 1 q-4 2 -7 4 q-6 -5 -13 -5 l-3 0 q-6 0 -10.5 2.5 q-4.5 2.5 -8 7 q-3.5 4.5 -4 10 q-0.5 5.5 0.5 11.5 q11 49 23.5 110 q12.5 61 24.5 126.5 q12 65.5 23.5 130.5 q11.5 65 20.5 122 q0 1 1 3 l-193 0 q-5 0 -10 2 q-5 2 -8.5 5.5 q-3.5 3.5 -5.5 7.5 q-2 4 -2 8 q0 5 2 8.5 q2 3.5 5.5 7.5 q3.5 4 8.5 5.5 q5 1.5 10 1.5 l772 0 q4 0 9 -1.5 q5 -1.5 8.5 -5.5 q3.5 -4 6 -7.5 q2.5 -3.5 2.5 -8 q0 -4.5 -2.5 -8.5 q-2.5 -4 -6 -7.5 q-3.5 -3.5 -8.5 -5.5 q-5 -2 -9 -2 l-533 0 q1 -5 1 -11 q-10 -59 -22 -126 l-8 -44 l374 0 q5 0 10 -2 l1 0 q1 2 2 2 q1 0 2 0.5 q1 0.5 2 1.5 l2 0 q2 0 4.5 0.5 q2.5 0.5 4.5 -0.5 l5 0 q4 -1 8 -3.5 q4 -2.5 7 -7 q3 -4.5 5 -9 q2 -4.5 1 -8.5 q-5 -49 -12 -110.5 q-7 -61.5 -15 -128 q-8 -66.5 -17 -133.5 q-9 -67 -17 -125 l-1 -1 l227 0 q5 0 9.5 -2 q4.5 -2 8 -5 q3.5 -3 6 -7 q2.5 -4 2.5 -8 q0 -5 -2.5 -9 q-2.5 -4 -6 -7.5 q-3.5 -3.5 -8 -5.5 q-4.5 -2 -9.5 -2 l-838 0 q-5 0 -9.5 2 q-4.5 2 -8 5.5 q-3.5 3.5 -5.5 7.5 q-2 4 -2 9 Z" /><glyph glyph-name="uni4E94" unicode="&#x4e94;" d="M461 32 l324 0 l0 4 q6 49 12 103.5 q6 54.5 11 108.5 q5 54 9 102 q2 25 3 46 l-294 0 q-4 -27 -9 -54 q-14 -88 -29 -169 q-14 -80 -27 -141 ZM158 8 q0 5 2 9 q2 4 6 7.5 q4 3.5 8.5 5.5 q4.5 2 8.5 2 l229 0 q0 4 1 8 q14 64 29 145.5 q15 81.5 30 169.5 q3 20 6 41 l-173 0 q-4 0 -9 1.5 q-5 1.5 -8.5 5 q-3.5 3.5 -6 7.5 q-2.5 4 -2.5 8.5 q0 4.5 2.5 8.5 q2.5 4 6 7 q3.5 3 8.5 4.5 q5 1.5 9 1.5 l180 0 q8 46 15 91 q13 84 23 156 l-273 0 q-4 0 -8.5 1.5 q-4.5 1.5 -8.5 5.5 q-4 4 -6 8 q-2 4 -2 8 q0 5 2 9 q2 4 6 7 q4 3 8.5 5 q4.5 2 8.5 2 l694 0 q4 0 8.5 -2 q4.5 -2 8 -5 q3.5 -3 6 -7 q2.5 -4 2.5 -9 q0 -4 -2.5 -8 q-2.5 -4 -6 -8 q-3.5 -4 -8 -5.5 q-4.5 -1.5 -8.5 -1.5 l-372 0 q-12 -79 -26 -167 q-6 -40 -13 -80 l284 0 q4 0 8 -1 q1 1 2 1 l2 1 q2 0 3 1 l2 1 q2 0 4 0.5 q2 0.5 4 -0.5 l6 -1 q5 0 8.5 -2.5 q3.5 -2.5 7 -6.5 q3.5 -4 5.5 -8 q2 -4 2 -9 q-3 -40 -7.5 -88 q-4.5 -48 -9.5 -99.5 q-5 -51.5 -10 -102.5 q-6 -50 -12 -94 l187 0 q4 0 8.5 -2 q4.5 -2 8 -5.5 q3.5 -3.5 6 -7.5 q2.5 -4 2.5 -9 q0 -4 -2.5 -8 q-2.5 -4 -6 -7.5 q-3.5 -3.5 -8 -5.5 q-4.5 -2 -8.5 -2 l-836 0 q-4 0 -8.5 2 q-4.5 2 -8.5 5.5 q-4 3.5 -6 7.5 q-2 4 -2 8 Z" /><glyph glyph-name="uni4E9A" unicode="&#x4e9a;" d="M798 242 q-1 5 -0.5 10 q0.5 5 2.5 10 q19 29 39 63 q20 34 39.5 69 q19.5 35 37 70 q17.5 35 32.5 67 q2 4 5.5 8 q3.5 4 8 6.5 q4.5 2.5 9 3 q4.5 0.5 9.5 -1.5 q4 -1 6.5 -5 q2.5 -4 4.5 -8.5 q2 -4.5 2 -9.5 q0 -5 -2 -10 q-17 -33 -35.5 -69.5 q-18.5 -36.5 -38.5 -72 q-20 -35.5 -40 -69.5 q-20 -34 -39 -64 q-1 -3 -4.5 -6 q-3.5 -3 -7.5 -4.5 q-4 -1.5 -8.5 -1.5 q-4.5 0 -8.5 1 q-4 2 -7 5.5 q-3 3.5 -4 8.5 ZM496 37 l190 0 l0 688 l-190 0 q1 -2 1 -3 l0 -683 q0 -1 -1 -2 ZM205 517 q-2 6 -2.5 11.5 q-0.5 5.5 1 10 q1.5 4.5 4 8 q2.5 3.5 6.5 5.5 q4 1 8 0 q4 -1 8 -2.5 q4 -1.5 7.5 -5 q3.5 -3.5 4.5 -6.5 q19 -34 37.5 -71.5 q18.5 -37.5 35.5 -73.5 q17 -36 31.5 -70.5 q14.5 -34.5 25.5 -63.5 q2 -4 2 -9 q0 -5 -2 -9 q-2 -4 -5 -7.5 q-3 -3.5 -6 -5.5 l-1 0 q-5 -2 -9.5 -1 q-4.5 1 -9 3.5 q-4.5 2.5 -8 6.5 q-3.5 4 -5.5 8 q-9 29 -23 62.5 q-14 33.5 -30.5 69 q-16.5 35.5 -34 71.5 q-17.5 36 -35.5 69 ZM152 14 q0 4 2.5 8 q2.5 4 6 7.5 q3.5 3.5 8 5.5 q4.5 2 8.5 2 l271 0 l0 688 l-246 0 q-5 0 -9.5 2 q-4.5 2 -8.5 5 q-4 3 -6 7 q-2 4 -2 9 q0 5 2 8.5 q2 3.5 6 7.5 q4 4 8.5 5.5 q4.5 1.5 9.5 1.5 l800 0 q4 0 9 -1.5 q5 -1.5 8.5 -5.5 q3.5 -4 5.5 -7.5 q2 -3.5 2 -8.5 q0 -5 -2 -9 q-2 -4 -5.5 -7 q-3.5 -3 -8.5 -5 q-5 -2 -9 -2 l-268 0 q1 -2 1 -3 l0 -685 l288 0 q5 0 9 -2 q4 -2 8 -5.5 q4 -3.5 6 -7.5 q2 -4 2 -8.5 q0 -4.5 -2 -8.5 q-2 -4 -6 -7 q-4 -3 -8 -5 q-4 -2 -9 -2 l-846 0 q-4 0 -8.5 2 q-4.5 2 -8 5 q-3.5 3 -6 7 q-2.5 4 -2.5 9 Z" /><glyph glyph-name="uni4E9B" unicode="&#x4e9b;" d="M657 428 l0 380 q0 4 1.5 9 q1.5 5 5.5 8.5 q4 3.5 8 6 q4 2.5 8 2.5 q5 0 9 -2.5 q4 -2.5 7 -6 q3 -3.5 5 -8.5 q2 -5 2 -9 l0 -188 q31 11 62 23 q33 13 64 27 q31 14 58.5 28 q27.5 14 48.5 28 q7 3 16 2.5 q9 -0.5 14 -5.5 l1 0 q4 -5 6.5 -10 q2.5 -5 1.5 -10.5 q-1 -5.5 -4.5 -10 q-3.5 -4.5 -9.5 -7.5 q-53 -29 -119.5 -56.5 q-66.5 -27.5 -133.5 -50.5 q-2 -1 -5 -1 l0 -150 q0 -25 10.5 -33 q10.5 -8 49.5 -8 l188 0 q14 0 23.5 4 q9.5 4 15 15 q5.5 11 8.5 30 q3 19 4 50 q3 6 6.5 12 q3.5 6 8 9.5 q4.5 3.5 9 5.5 q4.5 2 10.5 -1 q6 -2 10.5 -10.5 q4.5 -8.5 2.5 -15.5 q-3 -42 -7.5 -70 q-4.5 -28 -15 -44 q-10.5 -16 -27.5 -22.5 q-17 -6.5 -46 -6.5 l-191 0 q-31 0 -51 3.5 q-20 3.5 -32.5 13 q-12.5 9.5 -17 26.5 q-4.5 17 -4.5 43 ZM273 201 q0 4 2 8 q2 4 5.5 7.5 q3.5 3.5 8.5 5.5 q5 2 10 2 l617 0 q5 0 9.5 -2 q4.5 -2 8.5 -5.5 q4 -3.5 6 -7.5 q2 -4 2 -8.5 q0 -4.5 -2 -8.5 q-2 -4 -6 -7 q-4 -3 -8.5 -5 q-4.5 -2 -9.5 -2 l-617 0 q-5 0 -10 2 q-5 2 -8.5 5 q-3.5 3 -5.5 7 q-2 4 -2 9 ZM162 -23 q0 4 2.5 8 q2.5 4 6 7.5 q3.5 3.5 8.5 5 q5 1.5 10 1.5 l823 0 q5 0 10 -1.5 q5 -1.5 8.5 -5 q3.5 -3.5 6 -7.5 q2.5 -4 2.5 -8.5 q0 -4.5 -2.5 -8.5 q-2.5 -4 -6 -8 q-3.5 -4 -8.5 -5.5 q-5 -1.5 -10 -1.5 l-823 0 q-5 0 -10 1.5 q-5 1.5 -8.5 5.5 q-3.5 4 -6 8 q-2.5 4 -2.5 9 ZM152 334 q-1 5 0.5 9.5 q1.5 4.5 5 8.5 q3.5 4 8 6.5 q4.5 2.5 9.5 2.5 q22 3 47 7 q-1 3 -1 7 l0 319 q0 5 1.5 9.5 q1.5 4.5 5 8.5 q3.5 4 7.5 6 q4 2 8 2 q4 0 8 -2 q4 -2 7 -6 q3 -4 5 -8 q2 -4 2 -9 l0 -322 q42 6 91 12 q10 1 20 3 q-2 4 -2 9 l0 411 q0 4 1.5 9 q1.5 5 5.5 8.5 q4 3.5 8 6 q4 2.5 8 2.5 q5 0 9 -2.5 q4 -2.5 7 -6 q3 -3.5 5 -8.5 q2 -5 2 -9 l0 -159 l148 0 q5 0 10 -1.5 q5 -1.5 8.5 -4.5 q3.5 -3 5.5 -7 q2 -4 2 -8 q0 -4 -2 -8 q-2 -4 -5.5 -7.5 q-3.5 -3.5 -8.5 -5 q-5 -1.5 -10 -1.5 l-148 0 l0 -213 q74 10 151 20 q6 1 11 -0.5 q5 -1.5 9 -4.5 q4 -3 7 -7 q3 -4 3 -8 q0 -8 -7 -15 q-7 -7 -15 -8 q-109 -15 -213.5 -29.5 q-104.5 -14.5 -185.5 -25.5 q-4 0 -9 1 q-5 1 -9 4 q-4 3 -7 6.5 q-3 3.5 -3 7.5 Z" /><glyph glyph-name="uni4EA4" unicode="&#x4ea4;" d="M752 557 q-3 5 -3.5 10.5 q-0.5 5.5 1 10 q1.5 4.5 5.5 8.5 q5 3 13.5 3 q8.5 0 13.5 -3 q31 -21 62.5 -45 q31.5 -24 61.5 -49 q30 -25 56.5 -49.5 q26.5 -24.5 46.5 -46.5 q4 -4 6 -9 q2 -5 1.5 -10 q-0.5 -5 -2 -9 q-1.5 -4 -5.5 -7 l-1 -1 q-7 -6 -17.5 -4.5 q-10.5 1.5 -17.5 8.5 q-18 21 -42.5 45 q-24.5 24 -52.5 47.5 q-28 23.5 -58 47 q-30 23.5 -59 44.5 q-6 4 -9 9 ZM546 799 q-4 5 -4.5 11 q-0.5 6 1 11 q1.5 5 5 9 q3.5 4 7.5 6 l1 0 q6 2 14.5 -1 q8.5 -3 12.5 -9 q15 -21 29 -45 q14 -24 24 -43 q3 -4 3 -8.5 q0 -4.5 -1.5 -9 q-1.5 -4.5 -4.5 -8 q-3 -3.5 -7 -5.5 l-1 0 q-5 -2 -10 -1.5 q-5 0.5 -9.5 2.5 q-4.5 2 -8 5.5 q-3.5 3.5 -6.5 8.5 q-8 17 -20 37.5 q-12 20.5 -25 39.5 ZM205 361 q-8 9 -6 21.5 q2 12.5 14 19.5 q56 37 111 84.5 q55 47.5 96 97.5 q5 4 13 7 q8 3 14 0 l2 0 q4 -2 7.5 -6.5 q3.5 -4.5 4.5 -9.5 q1 -5 -0.5 -11 q-1.5 -6 -5.5 -10 q-47 -54 -105.5 -104.5 q-58.5 -50.5 -113.5 -90.5 q-7 -4 -16.5 -3.5 q-9.5 0.5 -14.5 5.5 ZM172 666 q0 4 2 8 q2 4 5.5 7.5 q3.5 3.5 8.5 5 q5 1.5 10 1.5 l802 0 q4 0 9 -1.5 q5 -1.5 8.5 -5 q3.5 -3.5 6 -7.5 q2.5 -4 2.5 -8 q0 -5 -2.5 -9 q-2.5 -4 -6 -7.5 q-3.5 -3.5 -8.5 -5.5 q-5 -2 -9 -2 l-802 0 q-5 0 -10 2 q-5 2 -8.5 5.5 q-3.5 3.5 -5.5 7.5 q-2 4 -2 9 ZM168 -61 q-3 5 -3.5 11 q-0.5 6 2 10.5 q2.5 4.5 7.5 8.5 q5 4 11 6 q105 25 193.5 62 q88.5 37 160.5 90 q16 12 31 24 q-35 34 -64 71 q-58 73 -97 162 q-2 5 -2.5 10.5 q-0.5 5.5 1 10 q1.5 4.5 5 8 q3.5 3.5 7.5 4.5 q3 1 7.5 0.5 q4.5 -0.5 9 -3 q4.5 -2.5 8 -6 q3.5 -3.5 5.5 -7.5 q55 -128 154 -220 q33 32 61 68 q54 70 89 158 q4 9 13.5 14 q9.5 5 17.5 3 l1 -1 q4 -1 8 -4.5 q4 -3.5 5.5 -8.5 q1.5 -5 2 -10.5 q0.5 -5.5 -2.5 -9.5 q-39 -96 -98 -170 q-29 -37 -62 -69 q12 -10 25 -20 q143 -104 351 -147 q16 -3 21.5 -13.5 q5.5 -10.5 -2.5 -22.5 q-3 -6 -11.5 -9.5 q-8.5 -3.5 -15.5 -2.5 q-109 22 -201.5 62 q-92.5 40 -167.5 96 l-34 26 q-18 -15 -37 -29 q-75 -55 -167 -95 q-92 -40 -200 -68 q-9 -3 -18.5 1 q-9.5 4 -13.5 10 Z" /><glyph glyph-name="uni4EA6" unicode="&#x4ea6;" d="M852 442 q-4 5 -5 11 q-1 6 0.5 11 q1.5 5 4.5 8.5 q3 3.5 8 5.5 q3 2 6.5 1.5 q3.5 -0.5 7.5 -2.5 q4 -2 7.5 -4.5 q3.5 -2.5 4.5 -5.5 q22 -35 43.5 -73 q21.5 -38 40 -76 q18.5 -38 34 -74 q15.5 -36 24.5 -66 q3 -7 -0.5 -16 q-3.5 -9 -10.5 -12 l-1 0 q-4 -2 -9 -1.5 q-5 0.5 -10 3 q-5 2.5 -8.5 7 q-3.5 4.5 -5.5 9.5 q-10 28 -24 62.5 q-14 34.5 -31.5 70 q-17.5 35.5 -36.5 72 q-19 36.5 -39 69.5 ZM547 795 q-4 6 -4.5 11.5 q-0.5 5.5 1 11 q1.5 5.5 5 9.5 q3.5 4 8.5 5 l1 1 q5 2 13.5 -1.5 q8.5 -3.5 11.5 -9.5 q20 -28 39.5 -58.5 q19.5 -30.5 32.5 -56.5 q2 -4 2 -9 q0 -5 -1.5 -10 q-1.5 -5 -4.5 -9 q-3 -4 -7 -5 l-1 0 q-5 -2 -10 -1.5 q-5 0.5 -9.5 3 q-4.5 2.5 -8 6 q-3.5 3.5 -5.5 7.5 q-11 23 -27.5 51.5 q-16.5 28.5 -35.5 54.5 ZM189.5 189.5 q-2.5 4.5 -3.5 9.5 q-1 5 0.5 10.5 q1.5 5.5 4.5 10.5 q35 50 64.5 112.5 q29.5 62.5 49.5 130.5 q2 4 5 8 q3 4 6.5 6.5 q3.5 2.5 8 3.5 q4.5 1 8.5 0 l1 0 q4 0 7.5 -3.5 q3.5 -3.5 6 -8 q2.5 -4.5 3 -9.5 q0.5 -5 -1.5 -10 q-22 -74 -53.5 -141 q-31.5 -67 -67.5 -119 q-3 -4 -7 -6.5 q-4 -2.5 -8.5 -3.5 q-4.5 -1 -9 -0.5 q-4.5 0.5 -7.5 2.5 q-4 3 -6.5 7.5 ZM164 628 q0 5 2 9 q2 4 6 7 q4 3 8.5 5 q4.5 2 10.5 2 l819 0 q6 0 10.5 -2 q4.5 -2 8.5 -5 q4 -3 6 -7 q2 -4 2 -8.5 q0 -4.5 -2 -8.5 q-2 -4 -6 -8 q-4 -4 -8.5 -5.5 q-4.5 -1.5 -10.5 -1.5 l-248 0 q1 -3 1 -7 l0 -601 q0 -29 -8.5 -42.5 q-8.5 -13.5 -28.5 -19.5 q-20 -6 -56 -7 q-36 -1 -92 -2 q-8 0 -15.5 5.5 q-7.5 5.5 -9.5 10.5 q-4 12 3.5 22 q7.5 10 22.5 9 q42 -1 71 -1 q29 0 43 1 q14 1 18.5 5.5 q4.5 4.5 4.5 17.5 l0 602 q0 4 1 7 l-200 0 l0 -128 q0 -64 -6.5 -134 q-6.5 -70 -31 -140.5 q-24.5 -70.5 -71 -138.5 q-46.5 -68 -126.5 -128 q-4 -3 -9 -5 q-5 -2 -9.5 -2 q-4.5 0 -9 2 q-4.5 2 -7.5 5 q-8 7 -6 18 q2 11 12 19 q75 58 118.5 121 q43.5 63 65.5 128 q22 65 28 129.5 q6 64.5 6 126.5 l0 127 l-280 0 q-6 0 -10.5 1.5 q-4.5 1.5 -8.5 5.5 q-4 4 -6 8 q-2 4 -2 8 Z" /><glyph glyph-name="uni4EA7" unicode="&#x4ea7;" d="M392 596 q-4 6 -5 11.5 q-1 5.5 0.5 10.5 q1.5 5 4 9 q2.5 4 7.5 6 q5 2 13.5 -1 q8.5 -3 11.5 -8 q20 -26 38 -55.5 q18 -29.5 31 -52.5 q3 -4 3 -9 q0 -5 -1 -9.5 q-1 -4.5 -4 -8 q-3 -3.5 -6 -5.5 q-4 -2 -8.5 -2 q-4.5 0 -9.5 2.5 q-5 2.5 -9 6 q-4 3.5 -6 7.5 q-11 22 -27 48 q-16 26 -33 50 ZM215 681 q0 4 2 8 q2 4 6 7.5 q4 3.5 9 5 q5 1.5 9 1.5 l379 0 q-10 4 -14 13 q-9 18 -22 38.5 q-13 20.5 -27 39.5 q-4 4 -4.5 9.5 q-0.5 5.5 1 10.5 q1.5 5 4.5 8.5 q3 3.5 8 5.5 l3 0 q5 2 13 -0.5 q8 -2.5 12 -7.5 q17 -20 32 -43 q15 -23 26 -43 q2 -4 2 -9 q0 -5 -1 -9.5 q-1 -4.5 -5 -7.5 q-2 -3 -5 -5 l326 0 q4 0 9 -1.5 q5 -1.5 8.5 -5 q3.5 -3.5 6 -7.5 q2.5 -4 2.5 -8.5 q0 -4.5 -2.5 -8 q-2.5 -3.5 -6 -7.5 q-3.5 -4 -8.5 -5.5 q-5 -1.5 -9 -1.5 l-728 0 q-4 0 -9 1.5 q-5 1.5 -9 5.5 q-4 4 -6 7.5 q-2 3.5 -2 8.5 ZM156 -53.5 q-2 4.5 -2 10 q0 5.5 1 11 q1 5.5 3 10.5 q25 41 39.5 85 q14.5 44 22 88.5 q7.5 44.5 10.5 88 q3 43.5 3 83.5 l0 108 q0 6 2 11 q2 5 5.5 8.5 q3.5 3.5 7.5 5.5 q4 2 8 2 l2 0 q4 0 8 -2 q3 -1 5 -3 q3 2 7 3 q4 2 9 2 l433 0 l0 1 q-1 4 -0.5 10 q0.5 6 3.5 10 q17 28 35.5 64.5 q18.5 36.5 31.5 68.5 q2 4 5.5 7.5 q3.5 3.5 8 6 q4.5 2.5 9 2.5 q4.5 0 9.5 -1 q5 -2 8 -6 q3 -4 4.5 -9 q1.5 -5 1 -10.5 q-0.5 -5.5 -3.5 -9.5 q-17 -35 -37 -72 q-19 -34 -36 -62 l238 0 q5 0 9.5 -1.5 q4.5 -1.5 8.5 -5 q4 -3.5 6 -7.5 q2 -4 2 -9 q0 -4 -2 -8.5 q-2 -4.5 -6 -7.5 q-4 -3 -8.5 -5 q-4.5 -2 -9.5 -2 l-710 0 q-3 0 -6 1 l0 -91 q0 -40 -3.5 -87 q-3.5 -47 -12.5 -96 q-9 -49 -25 -97.5 q-16 -48.5 -42 -92.5 q-3 -5 -7.5 -8.5 q-4.5 -3.5 -10 -4.5 q-5.5 -1 -10 -0.5 q-4.5 0.5 -9.5 3.5 q-3 3 -5 7.5 Z" /><glyph glyph-name="uni4EAB" unicode="&#x4eab;" d="M344 475 q0 -2 2 -4 q2 -2 4 -2 l504 0 q2 0 4 2 q2 2 2 4 l0 99 q0 2 -2 4 q-2 2 -4 2 l-504 0 q-2 0 -4 -2 q-2 -2 -2 -4 l0 -99 ZM298 454 l0 141 q0 5 2 9 q2 4 5.5 8 q3.5 4 8.5 6 q5 2 11 2 l556 0 q5 0 10 -2 q5 -2 9 -6 q4 -4 6 -8 q2 -4 2 -9 l0 -141 q0 -4 -2 -8.5 q-2 -4.5 -6 -8.5 q-4 -4 -9 -6 q-5 -2 -10 -2 l-556 0 q-6 0 -11 2 q-5 2 -8.5 6 q-3.5 4 -5.5 8.5 q-2 4.5 -2 8.5 ZM165 718 q0 4 2 7.5 q2 3.5 5.5 6.5 q3.5 3 8.5 5 q5 2 10 2 l401 0 l-14 28 l-20 36 q-5 11 -1 21 q4 10 15 13 l2 0 q5 2 13.5 -2 q8.5 -4 10.5 -10 q12 -19 23.5 -39.5 q11.5 -20.5 19.5 -38.5 q2 -4 2 -8 l365 0 q5 0 10 -2 q5 -2 8.5 -5 q3.5 -3 5.5 -6.5 q2 -3.5 2 -7.5 q0 -9 -8 -15.5 q-8 -6.5 -18 -6.5 l-817 0 q-10 0 -18 6.5 q-8 6.5 -8 15.5 ZM160 140 q-2 4 -2 8 q0 4 2 8 q2 4 5.5 7 q3.5 3 8 5 q4.5 2 9.5 2 l392 0 l0 43 q0 5 2 10 q2 5 5 8.5 q3 3.5 7 5.5 q4 2 8 2 q6 7 18 10 q38 8 75 19 q37 11 72 23 q34 11 65 24 l-552 0 q-10 0 -18 6.5 q-8 6.5 -8 14.5 q0 7 8 13.5 q8 6.5 18 6.5 l599 0 q9 0 16 -5 l3 3 q2 2 6 2 l4 0 q2 0 3 1 q3 0 7.5 -1 q4.5 -1 7.5 -4 q5 -4 7 -9 q2 -5 1.5 -10.5 q-0.5 -5.5 -4 -10.5 q-3.5 -5 -9.5 -8 q-31 -16 -68 -31 q-37 -15 -75.5 -27.5 q-38.5 -12.5 -77.5 -23.5 q-37 -10 -72 -18 l0 -44 l397 0 q4 0 8.5 -2 q4.5 -2 8 -5 q3.5 -3 6 -7 q2.5 -4 2.5 -8 q0 -4 -2.5 -8 q-2.5 -4 -6 -7 q-3.5 -3 -8 -5 q-4.5 -2 -8.5 -2 l-397 0 l0 -144 q0 -24 -8 -35 q-8 -11 -29 -17 q-19 -5 -55 -5.5 q-36 -0.5 -97 -0.5 q-7 0 -13.5 4 q-6.5 4 -9.5 9 q-4 11 3.5 18.5 q7.5 7.5 22.5 6.5 q29 -1 52 -1 q11 0 30.5 0.5 q19.5 0.5 33.5 1.5 q13 1 17.5 4.5 q4.5 3.5 4.5 14.5 l0 144 l-392 0 q-5 0 -9.5 2 q-4.5 2 -8 5 q-3.5 3 -5.5 7 Z" /><glyph glyph-name="uni4EAC" unicode="&#x4eac;" d="M812 167 q-2 5 -1.5 10 q0.5 5 2.5 9.5 q2 4.5 6 7.5 q6 3 15 1.5 q9 -1.5 14 -7.5 q23 -21 46 -45 q23 -24 44.5 -48 q21.5 -24 41 -46.5 q19.5 -22.5 34.5 -41.5 q3 -4 4.5 -8.5 q1.5 -4.5 1 -9.5 q-0.5 -5 -2.5 -9.5 q-2 -4.5 -5 -6.5 l-1 0 q-4 -3 -9 -4 q-5 -1 -10 0.5 q-5 1.5 -10 4.5 q-5 3 -8 7 q-14 19 -32 41 q-18 22 -38.5 45 q-20.5 23 -42.5 46.5 q-22 23.5 -43 43.5 q-4 5 -6 10 ZM344 326 q0 -3 2 -5 q2 -2 4 -2 l509 0 q2 0 4 2 q2 2 2 5 l0 179 q0 3 -2 5 q-2 2 -4 2 l-509 0 q-2 0 -4 -2 q-2 -2 -2 -5 l0 -179 ZM298 300 l0 230 q0 5 2 9.5 q2 4.5 6 8 q4 3.5 8.5 5.5 q4.5 2 10.5 2 l562 0 q5 0 10 -2 q5 -2 8.5 -5.5 q3.5 -3.5 5.5 -8 q2 -4.5 2 -9.5 l0 -230 q0 -4 -2 -8.5 q-2 -4.5 -5.5 -8.5 q-3.5 -4 -8.5 -6 q-5 -2 -10 -2 l-261 0 q1 -3 1 -7 l0 -279 q0 -25 -8 -37.5 q-8 -12.5 -30 -18.5 q-19 -6 -48 -6.5 q-29 -0.5 -54 -0.5 q-25 0 -56 0 q-7 0 -14 4.5 q-7 4.5 -9 8.5 q-5 12 3 21 q8 9 22 8 q31 -1 55 -1 q12 0 32.5 0.5 q20.5 0.5 34.5 1.5 q14 1 18.5 5.5 q4.5 4.5 4.5 14.5 l0 279 q0 4 2 7 l-255 0 q-6 0 -10.5 2 q-4.5 2 -8.5 6 q-4 4 -6 8.5 q-2 4.5 -2 8.5 ZM176 -17 q-1 5 -0.5 10.5 q0.5 5.5 3.5 11 q3 5.5 8 9.5 q43 37 84.5 82.5 q41.5 45.5 68.5 89.5 q4 7 13 10.5 q9 3.5 16 0.5 q5 -2 8.5 -6 q3.5 -4 5 -9 q1.5 -5 0 -10.5 q-1.5 -5.5 -4.5 -10.5 q-33 -48 -76 -96 q-43 -48 -89 -85 q-4 -3 -8.5 -5 q-4.5 -2 -9 -3 q-4.5 -1 -8 0 q-3.5 1 -6.5 3 q-4 3 -5 8 ZM169 680 q0 5 2.5 9 q2.5 4 6 7 q3.5 3 8.5 5 q5 2 9 2 l401 0 q-11 21 -25 46 q-16 26 -33 51 q-2 5 -3 10.5 q-1 5.5 0.5 10.5 q1.5 5 5 8.5 q3.5 3.5 8.5 5.5 l1 0 q7 3 15 -0.5 q8 -3.5 11 -10.5 q18 -25 35.5 -53.5 q17.5 -28.5 30.5 -52.5 q2 -4 2 -9 q0 -3 -1 -6 l365 0 q5 0 9.5 -2 q4.5 -2 8.5 -5 q4 -3 6 -7 q2 -4 2 -8.5 q0 -4.5 -2 -8.5 q-2 -4 -6 -7.5 q-4 -3.5 -8.5 -5.5 q-4.5 -2 -9.5 -2 l-813 0 q-4 0 -9 2 q-5 2 -8.5 5.5 q-3.5 3.5 -6 7.5 q-2.5 4 -2.5 8 Z" /><glyph glyph-name="uni4EAE" unicode="&#x4eae;" d="M355 483 q0 -2 1.5 -3.5 q1.5 -1.5 3.5 -1.5 l486 0 q2 0 4 1.5 q2 1.5 2 3.5 l0 94 q0 2 -2 3.5 q-2 1.5 -4 1.5 l-486 0 q-2 0 -3.5 -1.5 q-1.5 -1.5 -1.5 -3.5 l0 -94 ZM309 464 l0 131 q0 4 2 9 q2 5 5.5 8.5 q3.5 3.5 8.5 6 q5 2.5 10 2.5 l539 0 q4 0 9 -2.5 q5 -2.5 8.5 -6 q3.5 -3.5 6 -8.5 q2.5 -5 2.5 -9 l0 -131 q0 -4 -2.5 -9 q-2.5 -5 -6 -8.5 q-3.5 -3.5 -8.5 -6 q-5 -2.5 -9 -2.5 l-539 0 q-5 0 -10 2.5 q-5 2.5 -8.5 6 q-3.5 3.5 -5.5 8.5 q-2 5 -2 9 ZM190 238 l0 99 q0 5 2 9.5 q2 4.5 5.5 8 q3.5 3.5 8.5 6 q5 2.5 11 2.5 l765 0 q5 0 10 -2.5 q5 -2.5 8.5 -6 q3.5 -3.5 5.5 -8 q2 -4.5 2 -8.5 l0 -100 q0 -4 -1.5 -8.5 q-1.5 -4.5 -5 -8 q-3.5 -3.5 -7.5 -6 q-4 -2.5 -9 -2.5 q-4 0 -8.5 2.5 q-4.5 2.5 -7.5 6 q-3 3.5 -5 8 q-2 4.5 -2 8.5 l0 76 q0 3 -2 5 q-2 2 -4 2 l-714 0 q-2 0 -4 -2 q-2 -2 -2 -5 l0 -76 q0 -4 -2 -8.5 q-2 -4.5 -5.5 -8.5 q-3.5 -4 -7.5 -6 q-4 -2 -8.5 -2 q-4.5 0 -8.5 2 q-4 2 -7 6 q-3 4 -5 8.5 q-2 4.5 -2 8.5 ZM186 -61 q-6 10 0.5 20 q6.5 10 22.5 13 q59 13 97 31.5 q38 18.5 61.5 46.5 q23.5 28 34.5 68 q11 40 15 96 q2 9 9 17 q7 8 16 8 l1 0 q4 0 9 -2 l0 -1 q5 3 11 3 l272 0 q5 0 10 -2 q4 2 8 2 l2 0 q5 0 9 -2.5 q4 -2.5 7.5 -6 q3.5 -3.5 5.5 -8.5 q2 -5 2 -10 l0 -202 q0 -17 7.5 -22 q7.5 -5 34.5 -5 l123 0 q9 0 15 2.5 q6 2.5 10 10.5 q4 8 6 23 q2 15 3 40 q3 5 6.5 10 q3.5 5 7.5 9.5 q4 4.5 8.5 6.5 q4.5 2 9.5 0 q6 -3 10 -10.5 q4 -7.5 4 -16.5 q-2 -35 -6.5 -57.5 q-4.5 -22.5 -12.5 -35.5 q-8 -13 -21 -18 q-13 -5 -35 -5 l-133 0 q-25 0 -42 3 q-17 3 -26.5 10.5 q-9.5 7.5 -13.5 21 q-4 13.5 -4 34.5 l0 186 l-267 0 q-5 -56 -17 -97 q-13 -46 -41.5 -79 q-28.5 -33 -74.5 -54.5 q-46 -21.5 -116 -36.5 q-8 -2 -16.5 1 q-8.5 3 -11.5 8 ZM168 708 q0 8 8 14.5 q8 6.5 18 6.5 l414 0 q-3 3 -5 6 q-8 15 -18 32.5 q-10 17.5 -21 34.5 q-6 10 -1.5 19.5 q4.5 9.5 14.5 12.5 l2 0 q6 2 13 -1 q7 -3 10 -9 q13 -17 24.5 -35.5 q11.5 -18.5 20.5 -35.5 q2 -4 1.5 -8.5 q-0.5 -4.5 -1.5 -8.5 q-2 -4 -4 -7 l360 0 q10 0 18 -6.5 q8 -6.5 8 -14.5 q0 -5 -2 -8.5 q-2 -3.5 -6 -6.5 q-4 -3 -8.5 -5 q-4.5 -2 -9.5 -2 l-809 0 q-4 0 -9 2 q-5 2 -9 5 q-4 3 -6 6.5 q-2 3.5 -2 8.5 Z" /><glyph glyph-name="uni4EB2" unicode="&#x4eb2;" d="M765.5 172 q-1.5 5 -2 10 q-0.5 5 2 9.5 q2.5 4.5 6.5 7.5 q5 4 13.5 2.5 q8.5 -1.5 15.5 -5.5 q23 -21 47.5 -44 q24.5 -23 47 -46 q22.5 -23 42 -46 q19.5 -23 34.5 -42 q3 -3 3.5 -8 q0.5 -5 0.5 -9.5 q0 -4.5 -2 -8.5 q-2 -4 -6 -7 l-1 -1 q-4 -2 -8.5 -3 q-4.5 -1 -10 0 q-5.5 1 -10 4 q-4.5 3 -7.5 7 q-14 18 -32.5 40 q-18.5 22 -39.5 44 q-21 22 -43.5 44 q-22.5 22 -43.5 42 q-5 5 -6.5 10 ZM376 605 q-3 5 -3.5 11 q-0.5 6 1 11 q1.5 5 4.5 8.5 q3 3.5 8 4.5 q6 3 14 -0.5 q8 -3.5 12 -10.5 q19 -28 35 -60.5 q16 -32.5 26 -57.5 q2 -5 1.5 -9.5 q-0.5 -4.5 -2 -8.5 q-1.5 -4 -5 -7.5 q-3.5 -3.5 -6.5 -4.5 q-5 -1 -10 -0.5 q-5 0.5 -9.5 2.5 q-4.5 2 -8 6.5 q-3.5 4.5 -5.5 9.5 q-9 24 -22.5 52 q-13.5 28 -29.5 54 ZM243 676.5 q-2 3.5 -2 7.5 q0 4 2 8 q2 4 5.5 7 q3.5 3 8.5 4.5 q5 1.5 9 1.5 l327 0 q-1 0 -1 1 q-9 19 -22.5 42 q-13.5 23 -27.5 45 q-2 6 -2.5 11.5 q-0.5 5.5 1.5 10.5 q2 5 5.5 8.5 q3.5 3.5 8.5 4.5 l1 0 q7 2 15 -1.5 q8 -3.5 11 -9.5 q16 -23 31 -49.5 q15 -26.5 25 -48.5 q2 -4 2 -9 q0 -3 -1 -5 l310 0 q4 0 9 -1.5 q5 -1.5 8.5 -4.5 q3.5 -3 6 -7 q2.5 -4 2.5 -8 q0 -4 -2.5 -7.5 q-2.5 -3.5 -6 -7 q-3.5 -3.5 -8.5 -5 q-5 -1.5 -9 -1.5 l-683 0 q-4 0 -9 1.5 q-5 1.5 -8.5 5 q-3.5 3.5 -5.5 7 ZM224 -22 q-9 7 -8.5 19 q0.5 12 11.5 22 q44 34 82.5 78.5 q38.5 44.5 66.5 92.5 q4 7 12.5 10.5 q8.5 3.5 15.5 1.5 l1 0 q5 -1 8 -5 q3 -4 5 -9 q2 -5 1 -10 q-1 -5 -4 -11 q-32 -53 -74 -101.5 q-42 -48.5 -86 -84.5 q-7 -6 -16 -6.5 q-9 -0.5 -15 3.5 ZM177.5 435.5 q-2.5 3.5 -2.5 8 q0 4.5 2.5 8.5 q2.5 4 6 7 q3.5 3 8.5 5 q5 2 9 2 l489 0 q1 5 4 10 q23 33 46 73.5 q23 40.5 41 75.5 q2 4 5 7.5 q3 3.5 7 6 q4 2.5 8.5 3 q4.5 0.5 8.5 -0.5 q5 -1 8.5 -4.5 q3.5 -3.5 5.5 -8.5 q2 -5 2 -11 q0 -6 -3 -10 q-21 -40 -45 -81 q-19 -33 -37 -60 l260 0 q5 0 9.5 -2 q4.5 -2 8.5 -5 q4 -3 6 -7 q2 -4 2 -8.5 q0 -4.5 -2 -8 q-2 -3.5 -6 -6.5 q-4 -3 -8.5 -5 q-4.5 -2 -9.5 -2 l-381 0 q2 -2 3 -5 q2 -4 2 -9 l0 -109 l361 0 q5 0 9.5 -2 q4.5 -2 8.5 -5 q4 -3 6 -6.5 q2 -3.5 2 -8 q0 -4.5 -2 -8 q-2 -3.5 -6 -7 q-4 -3.5 -8.5 -5.5 q-4.5 -2 -9.5 -2 l-361 0 l0 -263 q0 -24 -7.5 -36.5 q-7.5 -12.5 -25.5 -18.5 q-16 -5 -46 -6 q-30 -1 -78 -1 q-8 -1 -15 4 q-7 5 -9 10 q-4 12 3 21 q7 9 22 8 q22 -1 39 -1 q9 0 23.5 0.5 q14.5 0.5 26.5 1.5 q11 0 15 3.5 q4 3.5 4 14.5 l0 263 l-359 0 q-4 0 -9 2 q-5 2 -8.5 5.5 q-3.5 3.5 -5.5 7 q-2 3.5 -2 8 q0 4.5 2 8 q2 3.5 5.5 6.5 q3.5 3 8.5 5 q5 2 9 2 l359 0 l0 109 q0 5 2 9 q1 3 2 5 l-380 0 q-4 0 -9 2 q-5 2 -8.5 5 q-3.5 3 -6 6.5 Z" /><glyph glyph-name="uni4EBA" unicode="&#x4eba;" d="M176 -55 q-8 9 -5.5 20.5 q2.5 11.5 15.5 19.5 q92 51 157 120 q65 69 108.5 146.5 q43.5 77.5 68.5 158.5 q25 81 38 155 q13 74 16.5 136.5 q3.5 62.5 4.5 102.5 q0 4 2 9 q2 5 5 8.5 q3 3.5 7 5.5 q4 2 9 2 l3 0 q5 0 9.5 -2 q4.5 -2 7.5 -6 q3 -4 5 -9 q2 -5 2 -10 q-1 -44 -6 -110 l0 -7 q1 -3 1 -5 q4 -28 12.5 -78.5 q8.5 -50.5 26.5 -113 q18 -62.5 46.5 -133 q28.5 -70.5 71.5 -138 q43 -67.5 103 -127 q60 -59.5 139 -101.5 q13 -7 16 -18 q3 -11 -4 -21 q-2 -3 -6 -5 q-4 -2 -8.5 -3 q-4.5 -1 -9.5 -0.5 q-5 0.5 -9 2.5 q-84 43 -147 105 q-63 62 -108.5 133 q-45.5 71 -75 145 q-29.5 74 -48.5 141 q-11 40 -19 76 q-14 -77 -40 -160 q-28 -85 -74.5 -165.5 q-46.5 -80.5 -115 -152.5 q-68.5 -72 -166.5 -124 q-4 -2 -8.5 -3 q-4.5 -1 -9 0 q-4.5 1 -8 2 q-3.5 1 -6.5 4 Z" /><glyph glyph-name="uni4EBF" unicode="&#x4ebf;" d="M476 76 q0 14 3.5 31.5 q3.5 17.5 18.5 46.5 q15 29 45 71.5 q30 42.5 83 109 q53 66.5 132 158.5 q67 77 158 179 l-397 0 q-6 0 -11 2 q-5 2 -8.5 5.5 q-3.5 3.5 -5.5 7.5 q-2 4 -2 8 q0 5 2 8.5 q2 3.5 5.5 7 q3.5 3.5 8.5 5.5 q5 2 11 2 l418 0 q5 0 10 -2 q3 -1 6 -3 q2 2 4 3 q3 2 5 2 q1 0 3 0.5 q2 0.5 4 0.5 l2 0 q2 1 5.5 0.5 q3.5 -0.5 5.5 -1.5 l14 -7 l9 -10 l-3 -3 l-4 -3 q-112 -125 -191 -216.5 q-79 -91.5 -132 -156 q-53 -64.5 -83.5 -106.5 q-30.5 -42 -45.5 -68.5 q-15 -26.5 -19 -41.5 q-4 -15 -4 -26 q0 -29 26.5 -41 q26.5 -12 69.5 -12 l291 -1 q19 0 31.5 7 q12.5 7 20 26 q7.5 19 11 52.5 q3.5 33.5 5.5 86.5 q2 15 10.5 23 q8.5 8 19.5 4 q7 -2 11.5 -10 q4.5 -8 3.5 -16 q-4 -70 -10 -112.5 q-6 -42.5 -18.5 -66 q-12.5 -23.5 -32.5 -31.5 q-20 -8 -53 -8 l-285 0 q-37 0 -65 6.5 q-28 6.5 -46.5 18.5 q-18.5 12 -27.5 29.5 q-9 17.5 -9 40.5 ZM154 402 q-6 7 -4.5 17.5 q1.5 10.5 8.5 18.5 q69 72 130 169 q61 97 104 203 q1 4 4.5 7.5 q3.5 3.5 8 5.5 q4.5 2 8.5 3 q4 1 8 0 q5 -2 8 -5 q3 -3 5 -7.5 q2 -4.5 2.5 -10 q0.5 -5.5 -2.5 -10.5 q-38 -91 -86 -176 l0 -662 q0 -5 -2 -9.5 q-2 -4.5 -5 -8.5 q-3 -4 -7 -6 q-4 -2 -8.5 -2 q-4.5 0 -8.5 2 q-4 2 -7.5 6 q-3.5 4 -5.5 8.5 q-2 4.5 -2 10.5 l0 588 q-52 -79 -110 -143 q-5 -5 -10 -7 q-5 -2 -10.5 -2 q-5.5 0 -10 2.5 q-4.5 2.5 -7.5 6.5 l0 1 Z" /><glyph glyph-name="uni4EC0" unicode="&#x4ec0;" d="M424 457 q0 4 2 8 q2 4 5.5 7.5 q3.5 3.5 8 5.5 q4.5 2 9.5 2 l269 0 l0 322 q0 4 2.5 8.5 q2.5 4.5 5.5 8 q3 3.5 7 6 q4 2.5 8 2.5 l2 0 q4 0 8 -2.5 q4 -2.5 8 -6 q4 -3.5 5.5 -8 q1.5 -4.5 1.5 -8.5 l0 -322 l260 0 q5 0 9.5 -2 q4.5 -2 8 -5.5 q3.5 -3.5 5.5 -7.5 q2 -4 2 -8.5 q0 -4.5 -2 -8.5 q-2 -4 -5.5 -7 q-3.5 -3 -8 -5.5 q-4.5 -2.5 -9.5 -2.5 l-260 0 l0 -481 q0 -5 -1.5 -9.5 q-1.5 -4.5 -5.5 -8 q-4 -3.5 -8 -6 q-4 -2.5 -8 -2.5 l-2 0 q-4 0 -8 2.5 q-4 2.5 -7 6 q-3 3.5 -5.5 8 q-2.5 4.5 -2.5 9.5 l0 481 l-269 0 q-5 0 -9.5 2.5 q-4.5 2.5 -8 5.5 q-3.5 3 -5.5 7 q-2 4 -2 9 ZM156 393 q-4 7 -3 17.5 q1 10.5 7 17.5 q72 73 135.5 172 q63.5 99 107.5 208 q2 5 5 8 q3 3 7.5 5 q4.5 2 8.5 3 q4 1 9 0 q4 -1 7.5 -4.5 q3.5 -3.5 5 -8 q1.5 -4.5 2 -10 q0.5 -5.5 -2.5 -9.5 q-42 -100 -96 -191 l0 -646 q0 -6 -1.5 -10.5 q-1.5 -4.5 -4.5 -8 q-3 -3.5 -7 -6 q-4 -2.5 -9 -2.5 q-4 0 -8 2.5 q-4 2.5 -8 6 q-4 3.5 -5.5 8 q-1.5 4.5 -1.5 9.5 l0 576 q-52 -76 -109 -138 q-5 -5 -9.5 -7 q-4.5 -2 -10 -2 q-5.5 0 -10.5 2.5 q-5 2.5 -8 6.5 l0 1 l-1 0 Z" /><glyph glyph-name="uni4EC5" unicode="&#x4ec5;" d="M545 676 q2 -2 4 -5 q3 -4 4 -9 q28 -120 70 -225 q42 -105 100 -193 q7 -11 15 -21 l12 16 q70 91 122 207 q46 104 73 230 l-400 0 ZM412 -58 q-6 10 -1 21 q5 11 17 16 q88 39 170 104 q58 46 110 105 q-8 11 -17 24 q-60 91 -104 202.5 q-44 111.5 -74 239.5 q-2 4 -1 8.5 q1 4.5 3 9.5 l2 4 l-34 0 q-5 0 -9.5 2 q-4.5 2 -8.5 5.5 q-4 3.5 -6 7 q-2 3.5 -2 8.5 q0 4 2 8 q2 4 6 7.5 q4 3.5 8.5 5 q4.5 1.5 9.5 1.5 l462 0 q4 0 9 -1 q1 1 4 1 q1 0 2.5 0.5 q1.5 0.5 3.5 1.5 l1 0 q1 1 4 0.5 q3 -0.5 5 -1.5 l4 -2 q7 -2 13 -10.5 q6 -8.5 3 -17.5 q-29 -151 -84.5 -273 q-55.5 -122 -127.5 -216 q-8 -9 -16 -19 q41 -51 89 -94 q75 -67 170 -108 q14 -7 17.5 -18.5 q3.5 -11.5 -3.5 -21.5 q-2 -3 -5.5 -4.5 q-3.5 -1.5 -7 -2.5 q-3.5 -1 -8 -0.5 q-4.5 0.5 -8.5 2.5 q-100 43 -179 113 q-51 45 -94 100 q-54 -60 -114 -107 q-86 -66 -179 -107 q-8 -4 -17.5 -2 q-9.5 2 -14.5 8 ZM148 388 q-6 7 -5 18 q1 11 9 17 q74 73 139.5 173 q65.5 100 111.5 210 q4 7 13 12 q9 5 17 3 l1 0 q5 -1 8 -4.5 q3 -3.5 5 -8 q2 -4.5 2 -10 q0 -5.5 -3 -10.5 q-44 -104 -102 -198 l0 -635 q0 -5 -2 -10 q-2 -5 -5 -8.5 q-3 -3.5 -7 -6 q-4 -2.5 -9 -2.5 q-4 0 -8 2.5 q-4 2.5 -8 6 q-4 3.5 -5.5 8.5 q-1.5 5 -1.5 9 l0 567 q-53 -75 -112 -136 q-4 -4 -9.5 -6.5 q-5.5 -2.5 -10.5 -2 q-5 0.5 -9.5 3 q-4.5 2.5 -7.5 6.5 l-1 2 Z" /><glyph glyph-name="uni4ECA" unicode="&#x4eca;" d="M514 538 q-3 5 -3.5 10 q-0.5 5 1 10 q1.5 5 5.5 8 q5 4 13.5 4 q8.5 0 15.5 -5 q41 -30 84 -66 q43 -36 73 -66 q4 -3 5.5 -8 q1.5 -5 2 -9.5 q0.5 -4.5 -1.5 -9.5 q-2 -5 -5 -8 q-3 -2 -8 -3.5 q-5 -1.5 -10 -1 q-5 0.5 -10 2.5 q-5 2 -8 5 q-27 28 -67 63 q-40 35 -80 65 q-4 4 -7 9 ZM266 314 l0 1 q0 4 2 8 q2 4 5.5 7.5 q3.5 3.5 8 5 q4.5 1.5 9.5 1.5 l580 0 q4 0 9 -1 q4 -2 8 -5 q1 1 1 3 q0 2 1.5 2.5 q1.5 0.5 4.5 0.5 q2 0 3.5 0.5 q1.5 0.5 3.5 0.5 q2 2 6 1 q4 -1 7 -2 l3 -1 q5 -3 7.5 -7.5 q2.5 -4.5 3 -9.5 q0.5 -5 -0.5 -10.5 q-1 -5.5 -4 -10.5 q-29 -36 -64.5 -81 q-35.5 -45 -73.5 -92 q-38 -47 -77 -94.5 q-39 -47.5 -76 -91.5 q-5 -5 -13.5 -7.5 q-8.5 -2.5 -14.5 0.5 l-3 1 q-5 2 -8 6.5 q-3 4.5 -4 10 q-1 5.5 0.5 11.5 q1.5 6 5.5 11 q39 44 80 93 q41 49 79.5 97 q38.5 48 72.5 91 q16 20 30 38 l-567 0 q-5 0 -9.5 1.5 q-4.5 1.5 -8 5.5 q-3.5 4 -5.5 8 q-2 4 -2 8 ZM164 436 q-7 9 -4 20.5 q3 11.5 16 18.5 q62 31 121 70.5 q59 39.5 112 83.5 q53 44 99.5 93 q46.5 49 82.5 98 q3 3 6.5 6 q3.5 3 7.5 4 q4 1 8.5 1.5 q4.5 0.5 7.5 -1.5 l2 -1 q5 -2 7.5 -6 q2.5 -4 3 -9.5 q0.5 -5.5 -0.5 -10.5 q-1 -5 -4 -10 l3 -3 q36 -44 82.5 -88.5 q46.5 -44.5 98 -85 q51.5 -40.5 105.5 -75 q54 -34.5 106 -59.5 q6 -3 10.5 -8.5 q4.5 -5.5 6 -11 q1.5 -5.5 0.5 -11 q-1 -5.5 -6 -10.5 l0 -1 q-2 -3 -6.5 -5 q-4.5 -2 -9 -2.5 q-4.5 -0.5 -9 0 q-4.5 0.5 -8.5 2.5 q-51 25 -106 62 q-55 37 -108 79.5 q-53 42.5 -102 90.5 q-47 45 -84 91 q-28 -35 -60 -69 q-50 -51 -105.5 -98 q-55.5 -47 -116 -87.5 q-60.5 -40.5 -124.5 -72.5 q-4 -2 -8 -2.5 q-4 -0.5 -8.5 0.5 q-4.5 1 -8 3 q-3.5 2 -6.5 4 l-1 0 Z" /><glyph glyph-name="uni4ECB" unicode="&#x4ecb;" d="M765 -50 l0 475 q0 5 2 10 q2 5 5 8.5 q3 3.5 7 6 q4 2.5 9 2.5 l1 0 q5 0 9 -2.5 q4 -2.5 7.5 -6 q3.5 -3.5 5.5 -8.5 q2 -5 2 -10 l0 -475 q0 -6 -2 -10.5 q-2 -4.5 -5.5 -8.5 q-3.5 -4 -7.5 -6 q-4 -2 -9 -2 l-1 0 q-5 0 -9 2 q-4 2 -7 6 q-3 4 -5 8.5 q-2 4.5 -2 10.5 ZM200 -61 q-8 8 -5 19 q3 11 15 20 q61 36 97 76 q36 40 55 82.5 q19 42.5 24 87 q5 44.5 5 89.5 l0 112 q0 4 2 9 q2 5 5.5 8.5 q3.5 3.5 7.5 6 q4 2.5 8 2.5 l2 0 q4 0 8 -2.5 q4 -2.5 8 -6 q4 -3.5 5.5 -8.5 q1.5 -5 1.5 -9 l0 -113 q0 -48 -6.5 -98 q-6.5 -50 -27.5 -98.5 q-21 -48.5 -61.5 -94 q-40.5 -45.5 -110.5 -85.5 q-4 -2 -8.5 -3 q-4.5 -1 -9 -0.5 q-4.5 0.5 -8.5 2 q-4 1.5 -7 4.5 ZM157 424 q-7 10 -2 21 q5 11 18 17 q62 26 122 64 q60 38 114 84 q54 46 99.5 98 q45.5 52 78.5 106 q3 4 7 7 q4 3 9 4.5 q5 1.5 9.5 1.5 q4.5 0 8.5 -2 q3 -2 5 -6.5 q2 -4.5 3 -9 q1 -4.5 0 -9 q-1 -4.5 -4 -8.5 q-1 -3 -3 -6 q7 -3 11 -8 q34 -47 79.5 -92.5 q45.5 -45.5 98 -86 q52.5 -40.5 110 -73.5 q57.5 -33 113.5 -55 q13 -5 17 -16.5 q4 -11.5 -4 -22.5 l0 -1 q-4 -5 -12.5 -7.5 q-8.5 -2.5 -15.5 0.5 q-58 23 -117 58.5 q-59 35.5 -114 78.5 q-55 43 -104 93 q-48 49 -84 99 q-27 -38 -59 -75 q-49 -56 -105.5 -105 q-56.5 -49 -119.5 -89.5 q-63 -40.5 -128 -67.5 q-4 -2 -8.5 -2.5 q-4.5 -0.5 -9 1 q-4.5 1.5 -8.5 3.5 q-4 2 -5 6 Z" /><glyph glyph-name="uni4ECD" unicode="&#x4ecd;" d="M363 -62 q-8 6 -7.5 17.5 q0.5 11.5 8.5 20.5 q63 64 100 153.5 q37 89.5 56 189.5 q19 100 25 204 q6 102 8 192 l-109 0 q-5 0 -9.5 2 q-4.5 2 -8 5.5 q-3.5 3.5 -5.5 7 q-2 3.5 -2 8.5 q0 4 2 8 q2 4 5.5 7.5 q3.5 3.5 8 5 q4.5 1.5 9.5 1.5 l391 0 q5 0 9 -2 q2 -1 5 -2 q5 4 11 4 q5 0 9.5 -2.5 q4.5 -2.5 7.5 -6.5 q3 -4 4 -9.5 q1 -5.5 1 -10.5 q-6 -36 -13.5 -75 q-7.5 -39 -15 -77 q-7.5 -38 -15.5 -74 q-4 -21 -9 -39 l156 0 q3 0 6 -1 q2 0 3 -1 q5 -1 8.5 -4.5 q3.5 -3.5 6 -7.5 q2.5 -4 2.5 -8 q0 -4 -2 -7 q-6 -120 -13 -205 q-7 -84 -15 -140 q-8 -56 -17.5 -87.5 q-9.5 -31.5 -23.5 -44.5 q-13 -15 -28.5 -20.5 q-15.5 -5.5 -39.5 -7.5 q-20 0 -55 0.5 q-35 0.5 -76 3.5 q-8 0 -16 5.5 q-8 5.5 -10 11.5 q-3 12 6 20 q9 8 24 7 q19 -2 35.5 -2.5 q16.5 -0.5 31.5 -1.5 q15 -1 26 -1 l20 0 q15 0 24.5 2.5 q9.5 2.5 17.5 10.5 q12 11 21 40.5 q9 29.5 16.5 84.5 q7.5 55 14.5 139 q5 71 10 169 l-131 0 q-6 0 -11 2 q-3 2 -5 4 q-7 -6 -13 -6 q-6 0 -10.5 3 q-4.5 3 -7.5 7.5 q-3 4.5 -4 10 q-1 5.5 1 11.5 q7 30 14.5 65.5 q7.5 35.5 15 73 q7.5 37.5 14.5 76.5 q4 24 8 47 l-233 0 q-2 -97 -9 -205 q-7 -108 -28 -211.5 q-21 -103.5 -60 -196 q-39 -92.5 -107 -158.5 q-3 -4 -7.5 -6 q-4.5 -2 -9 -3.5 q-4.5 -1.5 -9 -0.5 q-4.5 1 -7.5 4 ZM144 408 q-6 6 -5 16 q1 10 7 17 q57 70 106 165.5 q49 95.5 83 198.5 q1 4 4.5 7.5 q3.5 3.5 7 5.5 q3.5 2 8.5 3.5 q5 1.5 8 -0.5 q4 0 8 -3.5 q4 -3.5 6 -8 q2 -4.5 2.5 -10 q0.5 -5.5 -1.5 -9.5 q-31 -92 -72 -177 l0 -661 q0 -5 -2 -10 q-2 -5 -5 -8.5 q-3 -3.5 -7 -5.5 q-4 -2 -8.5 -2 q-4.5 0 -8.5 2 q-4 2 -7.5 5.5 q-3.5 3.5 -5 8.5 q-1.5 5 -1.5 10 l0 575 q-38 -65 -79 -120 q-4 -5 -9 -7.5 q-5 -2.5 -10.5 -3 q-5.5 -0.5 -10.5 2 q-5 2.5 -7 7.5 q-1 1 -1 2 Z" /><glyph glyph-name="uni4ECE" unicode="&#x4ece;" d="M489.5 -47.5 q-2.5 5.5 -3 11.5 q-0.5 6 2 11.5 q2.5 5.5 6.5 10.5 q69 64 115 145.5 q46 81.5 76 181.5 q30 100 47 217.5 q17 117.5 27 251.5 q0 5 2 9.5 q2 4.5 6 8.5 q4 4 8 5.5 q4 1.5 8 1.5 l3 0 q5 0 8.5 -2.5 q3.5 -2.5 7 -6.5 q3.5 -4 4.5 -9 q1 -5 1 -10 q-11 -143 -29 -266 q-3 -24 -8 -47 l2 -2 q3 -5 5 -12 q13 -58 33.5 -121.5 q20.5 -63.5 50.5 -124.5 q30 -61 69.5 -115.5 q39.5 -54.5 91.5 -95.5 q9 -8 11 -20 q2 -12 -4 -20 q-3 -3 -8 -5.5 q-5 -2.5 -10 -2.5 q-5 0 -10 2 q-5 2 -9 5 q-55 46 -97.5 106.5 q-42.5 60.5 -73.5 126.5 q-31 66 -52 133 q-9 30 -16 58 q-11 -47 -24 -90 q-32 -103 -80.5 -188 q-48.5 -85 -120.5 -153 q-3 -4 -7 -5.5 q-4 -1.5 -8.5 -2 q-4.5 -0.5 -8.5 0.5 q-4 1 -7 3 l-1 1 q-5 3 -7.5 8.5 ZM168 -50 q-2 5 -2.5 10 q-0.5 5 1 10.5 q1.5 5.5 5.5 9.5 q56 67 92 151.5 q36 84.5 59 186 q23 101.5 35.5 217.5 q12.5 116 18.5 245 q0 5 3 10 q3 5 6 8.5 q3 3.5 7.5 5 q4.5 1.5 9.5 1.5 l2 0 q5 0 9 -2 q4 -2 7 -6 q3 -4 5 -9 q2 -5 1 -10 q-8 -136 -22 -256 q-1 -14 -3 -29 l4 -2 q5 -2 8 -6 q26 -33 51.5 -69 q25.5 -36 49.5 -72 q24 -36 43.5 -69.5 q19.5 -33.5 33.5 -62.5 q4 -7 3 -15.5 q-1 -8.5 -6 -13.5 q-5 -4 -10 -5 q-5 -1 -10.5 0 q-5.5 1 -10 4.5 q-4.5 3.5 -8.5 8.5 q-15 28 -34.5 62 q-19.5 34 -42 68.5 q-22.5 34.5 -46.5 69.5 q-16 24 -33 47 q-11 -73 -26 -139 q-24 -103 -61.5 -190.5 q-37.5 -87.5 -92.5 -159.5 q-4 -5 -9 -7.5 q-5 -2.5 -10 -3.5 q-5 -1 -10.5 -0.5 q-5.5 0.5 -8.5 3.5 l-1 1 q-5 3 -7 8 Z" /><glyph glyph-name="uni4ED3" unicode="&#x4ed3;" d="M341 58 l0 394 q0 4 2.5 9 q2.5 5 5.5 8.5 q3 3.5 7 5.5 q4 2 9 2 l1 0 q5 0 9 -2 q1 -1 3 -2 q2 2 4 3 q5 1 9 1 l441 0 q5 0 9.5 -1.5 q4.5 -1.5 8 -5 q3.5 -3.5 5.5 -7.5 q2 -4 2 -8 q0 -4 -1 -7 q-3 -63 -6 -108 q-4 -45 -8 -76 q-4 -31 -9.5 -48.5 q-5.5 -17.5 -13.5 -26.5 q-11 -11 -24 -15 q-13 -4 -34 -5 q-17 -1 -47 -1 q-30 0 -65 2 q-8 1 -16 6 q-8 5 -9 11 q-3 11 6 18.5 q9 7.5 24 6.5 q15 -1 29 -2 q14 -1 25 -1 l37 0 q13 0 21 1.5 q8 1.5 14 6.5 q6 6 10 22 q4 16 8 45.5 q4 29.5 7 75.5 q1 31 3 72 l-418 0 l0 -374 q0 -17 3.5 -28 q3.5 -11 15 -17.5 q11.5 -6.5 31.5 -9 q20 -2.5 51 -2.5 l319 0 q25 0 41.5 5 q16.5 5 27 18.5 q10.5 13.5 15.5 37.5 q5 24 9 62 q1 7 4.5 12.5 q3.5 5.5 8 9 q4.5 3.5 10 4.5 q5.5 1 11.5 -1 q3 -2 6 -5 q3 -3 5 -6.5 q2 -3.5 3.5 -8.5 q1.5 -5 0.5 -10 q-5 -48 -12 -79.5 q-7 -31.5 -22 -50.5 q-15 -19 -41 -26.5 q-26 -7.5 -67 -7.5 l-316 0 q-44 0 -73.5 4.5 q-29.5 4.5 -47 15.5 q-17.5 11 -25 31 q-7.5 20 -7.5 52 ZM162 411 q-9 9 -5.5 21 q3.5 12 16.5 19 q62 31 123 71.5 q61 40.5 115.5 87.5 q54.5 47 102 99 q47.5 52 82.5 105 q3 4 7 6.5 q4 2.5 8 4 q4 1.5 8.5 2 q4.5 0.5 7.5 -0.5 l1 -1 q5 -2 7.5 -6 q2.5 -4 3.5 -9 q1 -5 0 -10.5 q-1 -5.5 -3 -9.5 l-8 -10 l2 -2 q82 -105 183 -179.5 q101 -74.5 216 -134.5 q13 -6 16.5 -17.5 q3.5 -11.5 -3.5 -19.5 q-2 -4 -6 -5.5 q-4 -1.5 -8.5 -2.5 q-4.5 -1 -9 0 q-4.5 1 -9.5 2 q-116 64 -219 142 q-101 77 -187 183 q-27 -34 -57 -67 q-51 -56 -108 -105.5 q-57 -49.5 -119.5 -92.5 q-62.5 -43 -127.5 -76 q-3 -2 -7.5 -2 q-4.5 0 -8.5 0.5 q-4 0.5 -7.5 2.5 q-3.5 2 -5.5 5 Z" /><glyph glyph-name="uni4ED4" unicode="&#x4ed4;" d="M408.5 367 q-2.5 4 -2.5 8.5 q0 4.5 2.5 8 q2.5 3.5 6 7 q3.5 3.5 8.5 5 q5 1.5 9 1.5 l275 0 l0 124 q0 5 2 9.5 q2 4.5 5.5 8 q3.5 3.5 7.5 5.5 l1 1 q1 1 1 2 q4 11 16 19 q31 18 63 40.5 q32 22.5 61.5 46 q29.5 23.5 55.5 47.5 l18 18 l-443 0 q-5 0 -10 2 q-5 2 -8.5 5 q-3.5 3 -5.5 7 q-2 4 -2 8 q0 5 2 9 q2 4 5.5 7.5 q3.5 3.5 8.5 5 q5 1.5 10 1.5 l464 0 q4 0 9 -2 q2 0 3 -1 l0 1 q2 2 6 2 q2 0 3.5 0.5 q1.5 0.5 3.5 0.5 q2 1 7 0 q5 -1 8 -4 l2 -2 q4 -2 6.5 -6.5 q2.5 -4.5 3.5 -10.5 q1 -6 -0.5 -11 q-1.5 -5 -5.5 -9 q-26 -27 -56 -53.5 q-30 -26.5 -62 -51.5 q-32 -25 -65.5 -47.5 q-33.5 -22.5 -64.5 -39.5 l-4 -2 q1 -3 1 -5 l0 -125 l275 0 q5 0 10 -1.5 q5 -1.5 8.5 -5 q3.5 -3.5 5.5 -7 q2 -3.5 2 -8 q0 -4.5 -2 -8.5 q-2 -4 -5.5 -8 q-3.5 -4 -8.5 -5.5 q-5 -1.5 -10 -1.5 l-275 0 l0 -352 q0 -28 -9 -41.5 q-9 -13.5 -30 -20.5 q-20 -5 -57.5 -6 q-37.5 -1 -97.5 -1 q-8 0 -15.5 5 q-7.5 5 -10.5 12 q-1 6 -0.5 11 q0.5 5 4.5 9 q4 4 9.5 6.5 q5.5 2.5 12.5 2.5 q46 -1 77.5 -1 q31.5 0 45.5 1 q14 1 19 5.5 q5 4.5 5 17.5 l0 352 l-275 0 q-4 0 -9 1.5 q-5 1.5 -8.5 5.5 q-3.5 4 -6 8 ZM152 405 q-4 7 -3.5 17.5 q0.5 10.5 6.5 17.5 q66 71 122.5 168.5 q56.5 97.5 96.5 203.5 q1 5 4.5 8 q3.5 3 7.5 5 q4 2 8.5 3.5 q4.5 1.5 8.5 -0.5 q5 -1 8 -4 q3 -3 5 -7.5 q2 -4.5 2.5 -10.5 q0.5 -6 -1.5 -10 q-43 -109 -99 -208 l0 -636 q0 -5 -2 -10 q-2 -5 -5 -8.5 q-3 -3.5 -7 -5.5 q-4 -2 -8.5 -2 q-4.5 0 -8.5 2 q-4 2 -7.5 5.5 q-3.5 3.5 -5 8.5 q-1.5 5 -1.5 10 l0 562 q-39 -59 -82 -109 q-4 -5 -9 -7.5 q-5 -2.5 -10.5 -2.5 q-5.5 0 -10.5 2 q-5 2 -8 7 l0 1 l-1 0 Z" /><glyph glyph-name="uni4ED6" unicode="&#x4ed6;" d="M382 389 q-2 4 -1.5 8.5 q0.5 4.5 2.5 8.5 q2 4 6 8 q4 4 8 5 l105 41 l0 256 q0 5 1.5 9.5 q1.5 4.5 5 8.5 q3.5 4 8 6 q4.5 2 8.5 2 q5 0 9 -2 q4 -2 7 -6 q3 -4 5 -8.5 q2 -4.5 2 -9.5 l0 -238 l179 69 l0 260 q0 5 2.5 10 q2.5 5 5.5 8.5 q3 3.5 7 6 q4 2.5 8.5 2.5 q4.5 0 8 -2.5 q3.5 -2.5 7 -6 q3.5 -3.5 5.5 -8.5 q2 -5 2 -10 l0 -242 l181 71 q4 1 9 1 l6 7 q3 4 9.5 4.5 q6.5 0.5 11.5 -1.5 l2 -1 q7 -3 12 -7 q5 -4 5 -7 q-1 -1 -1 -4 l0 -6 q0 -69 -1 -131 q-1 -62 -2.5 -112.5 q-1.5 -50.5 -4.5 -86 q-3 -35.5 -7 -51.5 q-7 -32 -23.5 -45 q-16.5 -13 -38.5 -16 q-15 -2 -28.5 -2.5 q-13.5 -0.5 -20.5 -0.5 q-13 0 -25 1 q-4 0 -8 1 q-4 1 -7 3.5 q-3 2.5 -5.5 5 q-2.5 2.5 -3.5 5.5 q-2 12 3 20 q5 8 18 8 q17 -1 30.5 -0.5 q13.5 0.5 24.5 0.5 q15 0 24.5 6 q9.5 6 16.5 28 q4 14 6 47.5 q2 33.5 4 82 q2 48.5 2 109.5 q1 45 1 96 l-190 -74 l0 -349 q0 -6 -2 -10.5 q-2 -4.5 -5.5 -8.5 q-3.5 -4 -7 -6 q-3.5 -2 -8 -2 q-4.5 0 -8.5 2 q-4 2 -7 6 q-3 4 -5.5 8.5 q-2.5 4.5 -2.5 10.5 l0 331 l-179 -69 l0 -376 q0 -22 3.5 -35.5 q3.5 -13.5 13 -21.5 q9.5 -8 27.5 -11 q18 -3 45 -3 l292 0 q21 0 34 5 q13 5 22 17.5 q9 12.5 13 34.5 q4 22 7 54 q4 15 12.5 22 q8.5 7 20.5 3 q7 -3 11.5 -11.5 q4.5 -8.5 3.5 -17.5 q-4 -43 -10 -71.5 q-6 -28.5 -19 -46.5 q-13 -18 -36.5 -25.5 q-23.5 -7.5 -61.5 -7.5 l-286 0 q-40 0 -66.5 5 q-26.5 5 -42.5 18 q-16 13 -22.5 35 q-6.5 22 -6.5 57 l0 358 l-88 -34 q-4 -1 -9.5 -1 q-5.5 0 -10 1.5 q-4.5 1.5 -8 4.5 q-3.5 3 -4.5 7 ZM135 401 q-5 7 -3.5 17.5 q1.5 10.5 8.5 17.5 q69 72 130 169 q61 97 103 203 q1 4 4.5 7.5 q3.5 3.5 8 5.5 q4.5 2 8.5 3 q4 1 8 0 q5 -1 8 -4.5 q3 -3.5 5 -8 q2 -4.5 2 -10 q0 -5.5 -2 -9.5 q-41 -100 -97 -192 l0 -645 q0 -6 -1.5 -10.5 q-1.5 -4.5 -4.5 -8 q-3 -3.5 -7.5 -6 q-4.5 -2.5 -8.5 -2.5 q-4 0 -8.5 2.5 q-4.5 2.5 -8 6 q-3.5 3.5 -5 8 q-1.5 4.5 -1.5 9.5 l0 574 q-48 -70 -100 -127 q-5 -5 -10 -7 q-5 -2 -10.5 -2.5 q-5.5 -0.5 -10 1.5 q-4.5 2 -7.5 6 l0 2 Z" /><glyph glyph-name="uni4ED8" unicode="&#x4ed8;" d="M531 391 q-3 4 -3.5 9.5 q-0.5 5.5 0 10.5 q0.5 5 3 9 q2.5 4 7.5 6 q3 2 7 1.5 q4 -0.5 8 -1.5 q4 -1 8 -4 q4 -3 6 -6 q18 -26 37 -54.5 q19 -28.5 37 -56 q18 -27.5 33.5 -53.5 q15.5 -26 27.5 -47 q3 -4 3 -8.5 q0 -4.5 -1 -9 q-1 -4.5 -3.5 -8.5 q-2.5 -4 -6.5 -6 q-5 -3 -9.5 -3 q-4.5 0 -10 1.5 q-5.5 1.5 -9.5 5 q-4 3.5 -7 8.5 q-11 21 -26 46.5 q-15 25.5 -32 52 q-17 26.5 -34.5 54.5 q-17.5 28 -34.5 53 ZM441 584 l0 1 q0 4 2.5 8 q2.5 4 6 7.5 q3.5 3.5 8.5 5.5 q5 2 10 2 l394 0 l0 188 q0 5 2 9.5 q2 4.5 5.5 8 q3.5 3.5 7.5 6 q4 2.5 9 2.5 l1 0 q4 0 8 -2.5 q4 -2.5 7.5 -6 q3.5 -3.5 5 -8 q1.5 -4.5 1.5 -9.5 l0 -188 l109 0 q6 0 11 -2 q5 -2 8.5 -5.5 q3.5 -3.5 5.5 -7.5 q2 -4 2 -8 l0 -1 q0 -5 -2 -9 q-2 -4 -5.5 -7 q-3.5 -3 -8.5 -5 q-5 -2 -11 -2 l-109 0 l0 -559 q0 -34 -11 -49 q-11 -15 -35 -21 q-24 -6 -68.5 -7 q-44.5 -1 -118.5 -1 q-6 0 -13 4.5 q-7 4.5 -9 11.5 q-6 12 2 22 q8 10 23 9 q44 -2 78 -2 q9 0 32.5 0.5 q23.5 0.5 41.5 1.5 q17 1 24 7.5 q7 6.5 7 23.5 l0 559 l-394 0 q-5 0 -10 2 q-5 2 -8.5 5 q-3.5 3 -6 7 q-2.5 4 -2.5 9 ZM156 397 q-1 5 -1 9.5 q0 4.5 2 9 q2 4.5 6 8.5 q72 73 134 172.5 q62 99.5 106 208.5 q2 4 5 7 q3 3 7.5 5.5 q4.5 2.5 9 3.5 q4.5 1 8.5 0 l1 0 q5 -1 8 -4.5 q3 -3.5 5 -8 q2 -4.5 2 -10 q0 -5.5 -2 -9.5 q-44 -109 -103 -205 l0 -629 q0 -5 -1.5 -10 q-1.5 -5 -5 -8.5 q-3.5 -3.5 -7.5 -6 q-4 -2.5 -8 -2.5 l-1 0 q-4 0 -8 2.5 q-4 2.5 -8 6 q-4 3.5 -5.5 8.5 q-1.5 5 -1.5 9 l0 558 q-48 -69 -100 -125 q-4 -4 -9.5 -6.5 q-5.5 -2.5 -10.5 -2.5 q-5 0 -9.5 2.5 q-4.5 2.5 -7.5 6.5 q-1 0 -1 1 l0 1 q-3 3 -4 8 Z" /><glyph glyph-name="uni4EE3" unicode="&#x4ee3;" d="M830.5 770 q-2.5 5 -3 9.5 q-0.5 4.5 1 9 q1.5 4.5 5.5 7.5 q4 3 12.5 2 q8.5 -1 14.5 -6 q40 -30 81 -65 q41 -35 68 -64 q3 -4 4.5 -8 q1.5 -4 1 -8.5 q-0.5 -4.5 -1.5 -8.5 q-1 -4 -5 -7 q-3 -2 -8 -2.5 q-5 -0.5 -9.5 0.5 q-4.5 1 -9 3.5 q-4.5 2.5 -7.5 6.5 q-26 26 -63.5 59.5 q-37.5 33.5 -74.5 61.5 q-4 5 -6.5 10 ZM417 465 q0 4 1.5 8 q1.5 4 5 8 q3.5 4 7.5 6.5 q4 2.5 9 2.5 l244 30 q-14 129 -22 272 q0 6 2 11 q2 5 5 9 q3 4 7 6 q4 2 9 2 q5 0 9 -2 q4 -2 7 -5.5 q3 -3.5 5.5 -8 q2.5 -4.5 2.5 -9.5 q6 -143 20 -270 l287 35 q4 0 9 -1 q5 -1 9 -3.5 q4 -2.5 7 -6.5 q3 -4 3 -7 q1 -5 -1 -9.5 q-2 -4.5 -5 -7.5 q-3 -3 -7.5 -6 q-4.5 -3 -10.5 -3 l-286 -35 l0 -2 q19 -147 50.5 -256 q31.5 -109 78 -174 q46.5 -65 108.5 -70 l1 0 q20 0 34 36 q14 36 23 107 q4 15 12.5 21.5 q8.5 6.5 19.5 1.5 q4 -3 7.5 -10 q3.5 -7 2.5 -14 q-7 -56 -16.5 -93 q-9.5 -37 -21 -60.5 q-11.5 -23.5 -26.5 -32.5 q-15 -9 -31 -9 q-2 0 -3 0 q-81 5 -136 73.5 q-55 68.5 -90.5 185.5 q-35.5 117 -55.5 273 l-2 18 l-244 -30 q-4 0 -8.5 1 q-4.5 1 -9 3.5 q-4.5 2.5 -7 6 q-2.5 3.5 -3.5 8.5 ZM143 385 q-6 8 -4 18 q2 10 9 17 q81 73 152.5 172 q71.5 99 120.5 209 q2 4 5 7.5 q3 3.5 7.5 5.5 q4.5 2 8.5 2.5 q4 0.5 9 -0.5 q5 -2 8 -5 q3 -3 4.5 -7.5 q1.5 -4.5 2 -10 q0.5 -5.5 -2.5 -10.5 q-45 -99 -105 -189 l0 -641 q0 -4 -2 -9 q-2 -5 -5 -8.5 q-3 -3.5 -7 -6 q-4 -2.5 -9 -2.5 l-1 0 q-4 0 -8 2.5 q-4 2.5 -8 6 q-4 3.5 -5.5 8.5 q-1.5 5 -1.5 10 l0 575 q-62 -82 -132 -146 q-4 -5 -9 -6.5 q-5 -1.5 -9.5 -1 q-4.5 0.5 -9.5 2.5 q-5 2 -8 6 l0 1 Z" /><glyph glyph-name="uni4EE4" unicode="&#x4ee4;" d="M525 563 q-3 5 -3.5 10.5 q-0.5 5.5 1 10 q1.5 4.5 5.5 7.5 q5 4 13.5 3 q8.5 -1 14.5 -6 q36 -27 71.5 -61 q35.5 -34 58.5 -63 q3 -3 4.5 -8 q1.5 -5 1.5 -9.5 q0 -4.5 -2 -8.5 q-2 -4 -5 -7 q-4 -3 -8.5 -3.5 q-4.5 -0.5 -10 0 q-5.5 0.5 -10 3.5 q-4.5 3 -7.5 7 q-21 26 -52.5 57.5 q-31.5 31.5 -64.5 58.5 q-4 4 -7 9 ZM276.5 338 q-2.5 4 -2.5 8.5 q0 4.5 2.5 8.5 q2.5 4 6 7.5 q3.5 3.5 8.5 5 q5 1.5 9 1.5 l567 0 q4 0 9 -1 q4 -2 7 -4 l1 1 q0 3 2 3.5 q2 0.5 5 0.5 q1 0 3 0.5 q2 0.5 4 1.5 q2 1 6 0 q4 -1 8 -4 l2 -1 q5 -3 7 -7.5 q2 -4.5 2.5 -10 q0.5 -5.5 -1.5 -11 q-2 -5.5 -6 -9.5 q-28 -29 -61.5 -63 q-33.5 -34 -69.5 -70 l-72 -72 q-33 -33 -64 -65 q20 -15 38 -31 q33 -27 57 -50 q5 -3 7 -8 q2 -5 2 -9.5 q0 -4.5 -1 -9.5 q-1 -5 -5 -8 l-2 -2 q-2 -4 -7 -5.5 q-5 -1.5 -9.5 -1 q-4.5 0.5 -10 2 q-5.5 1.5 -8.5 4.5 q-23 22 -53.5 48.5 q-30.5 26.5 -64.5 54 q-34 27.5 -70.5 54 q-36.5 26.5 -71.5 50.5 q-6 4 -9 9 q-3 5 -4 10 q-1 5 0.5 10 q1.5 5 5.5 9 l1 0 q4 4 12.5 5 q8.5 1 14.5 -3 q36 -24 74 -51 l66 -48 q35 34 73 71 l73 73 q36 36 67 69 q12 11 22 22 l-546 0 q-4 0 -9 2.5 q-5 2.5 -8.5 5.5 q-3.5 3 -6 7 ZM166 445 q-8 10 -5 21 q3 11 16 17 q62 30 122.5 68 q60.5 38 114.5 81 q54 43 101.5 90.5 q47.5 47.5 84.5 95.5 q6 6 14.5 9 q8.5 3 15.5 -1 l1 0 q5 -2 7.5 -6.5 q2.5 -4.5 3 -10 q0.5 -5.5 -1 -10.5 q-1.5 -5 -5.5 -9 l-6 -8 q1 -1 2 -3 q37 -41 84.5 -83 q47.5 -42 100.5 -80 q53 -38 108.5 -71.5 q55.5 -33.5 106.5 -56.5 q13 -6 16 -17.5 q3 -11.5 -5 -22.5 q-2 -3 -5.5 -5 q-3.5 -2 -8 -3 q-4.5 -1 -9 -0.5 q-4.5 0.5 -8.5 2.5 q-51 25 -107 59.5 q-56 34.5 -110.5 74.5 q-54.5 40 -104.5 85 q-50 43 -89 87 q-25 -30 -55 -59 q-49 -50 -105.5 -94.5 q-56.5 -44.5 -118 -83.5 q-61.5 -39 -124.5 -71 q-5 -1 -9 -1.5 q-4 -0.5 -8.5 0 q-4.5 0.5 -8 2.5 q-3.5 2 -5.5 4 Z" /><glyph glyph-name="uni4EE5" unicode="&#x4ee5;" d="M498 711.5 q-1 5.5 -0.5 11 q0.5 5.5 3 9.5 q2.5 4 6.5 6 l1 0 q6 4 14.5 1.5 q8.5 -2.5 14.5 -8.5 l38 -50 q19 -26 36 -52 q17 -26 32 -50.5 q15 -24.5 27 -46.5 q2 -4 2.5 -9 q0.5 -5 -0.5 -9.5 q-1 -4.5 -3.5 -8 q-2.5 -3.5 -5.5 -6.5 l-1 0 q-5 -3 -10 -2.5 q-5 0.5 -9.5 2.5 q-4.5 2 -9 5.5 q-4.5 3.5 -7.5 8.5 q-21 41 -54.5 92.5 q-33.5 51.5 -68.5 95.5 q-4 5 -5 10.5 ZM464 -65 q-8 10 -4.5 21.5 q3.5 11.5 17.5 18.5 q112 49 184 120 q72 71 116 168 q44 97 65 223 q21 126 30 286 q0 5 2.5 9.5 q2.5 4.5 6 8 q3.5 3.5 8 5.5 q4.5 2 9.5 2 l1 0 q5 0 9 -2.5 q4 -2.5 7 -6.5 q3 -4 5 -9 q2 -5 1 -10 q-11 -169 -34.5 -300.5 q-23.5 -131.5 -70.5 -233.5 q-2 -5 -5 -11 q2 -1 3 -2 q32 -29 64 -60.5 q32 -31.5 62 -63.5 q30 -32 56.5 -62.5 q26.5 -30.5 46.5 -57.5 q3 -4 3.5 -9 q0.5 -5 0.5 -9.5 q0 -4.5 -2.5 -8.5 q-2.5 -4 -6.5 -7 l-1 -1 q-4 -3 -9 -3.5 q-5 -0.5 -10 0 q-5 0.5 -9.5 3.5 q-4.5 3 -7.5 8 q-18 25 -42.5 54.5 q-24.5 29.5 -53 61 q-28.5 31.5 -59.5 62.5 q-28 29 -56 55 q-41 -70 -98 -125 q-77 -75 -196 -130 q-4 -2 -8.5 -2.5 q-4.5 -0.5 -9 0.5 q-4.5 1 -8 3 q-3.5 2 -6.5 5 ZM232 60 q-5 7 -1.5 17.5 q3.5 10.5 11.5 18.5 q5 5 10 8.5 q5 3.5 9.5 9.5 q4.5 6 7 15 q2.5 9 2.5 25 l0 570 q0 6 1.5 11 q1.5 5 5.5 8.5 q4 3.5 8 5.5 q4 2 8 2 l2 0 q5 0 9 -2 q4 -2 7 -6 q3 -4 5 -8.5 q2 -4.5 2 -9.5 l0 -594 l231 102 q4 3 10 3 q6 0 10.5 -1 q4.5 -1 8.5 -4.5 q4 -3.5 5 -7.5 q3 -7 -2 -16 q-5 -9 -12 -13 q-70 -30 -119.5 -52 q-49.5 -22 -83 -38 q-33.5 -16 -54 -26 q-20.5 -10 -33.5 -17 q-7 -4 -13 -5 q-2 -1 -3 -1 l-4 -2 q-5 -2 -10.5 -2 q-5.5 0 -10 2 q-4.5 2 -7.5 7 Z" /><glyph glyph-name="uni4EEA" unicode="&#x4eea;" d="M661 763 q-3 4 -4 9.5 q-1 5.5 0 11 q1 5.5 3.5 10 q2.5 4.5 6.5 5.5 q7 4 15.5 1 q8.5 -3 12.5 -9 q30 -42 58 -88.5 q28 -46.5 46 -82.5 q3 -7 0.5 -16 q-2.5 -9 -9.5 -12 q-4 -3 -9 -3 q-5 0 -10 2 q-5 2 -9.5 6 q-4.5 4 -7.5 9 q-16 34 -41 76 q-25 42 -52 81 ZM386 -61 q-7 8 -2 18.5 q5 10.5 17 16.5 q134 56 227 134 q36 30 66 62 q-22 30 -42 62 q-63 101 -105.5 225.5 q-42.5 124.5 -70.5 272.5 q-1 4 0 9 q1 5 3.5 9 q2.5 4 6.5 7 q4 3 8 4 q5 0 9 -1.5 q4 -1.5 7.5 -4.5 q3.5 -3 6.5 -7.5 q3 -4.5 3 -9.5 q26 -137 66.5 -256 q40.5 -119 101.5 -215 q19 -30 40 -58 q31 37 56 77 q63 99 102 216.5 q39 117.5 63 252.5 q1 4 4 8.5 q3 4.5 7 7 q4 2.5 9 4 q5 1.5 9 0.5 q5 0 8.5 -3 q3.5 -3 6 -7.5 q2.5 -4.5 3 -9 q0.5 -4.5 0.5 -8.5 q-28 -142 -68.5 -265 q-40.5 -123 -107.5 -225 q-29 -44 -63 -84 q34 -40 74 -75 q83 -72 193 -117 q13 -6 16 -17.5 q3 -11.5 -5 -21.5 q-5 -6 -14 -8.5 q-9 -2.5 -17 1.5 q-116 47 -202 122 q-42 37 -79 79 q-32 -32 -68 -62 q-98 -81 -239 -139 q-7 -4 -16.5 -1.5 q-9.5 2.5 -13.5 7.5 ZM135 401 q-5 7 -3.5 17.5 q1.5 10.5 8.5 17.5 q69 72 130 169 q61 97 103 203 q2 5 5.5 8 q3.5 3 7.5 5 q4 2 8.5 3 q4.5 1 7.5 0 q5 -1 8 -4.5 q3 -3.5 5.5 -8 q2.5 -4.5 2.5 -10 q0 -5.5 -1 -9.5 q-43 -102 -99 -195 l0 -642 q0 -6 -1.5 -10.5 q-1.5 -4.5 -4.5 -8 q-3 -3.5 -7 -6 q-4 -2.5 -8.5 -2.5 q-4.5 0 -8.5 2.5 q-4 2.5 -7.5 6 q-3.5 3.5 -5.5 8 q-2 4.5 -2 9.5 l0 573 q-47 -70 -100 -127 q-4 -5 -9.5 -7.5 q-5.5 -2.5 -10.5 -2.5 q-5 0 -10 2.5 q-5 2.5 -8 6.5 l0 2 Z" /><glyph glyph-name="uni4EEC" unicode="&#x4eec;" d="M677 774 q0 4 2 8 q2 4 6 7 q4 3 8.5 4.5 q4.5 1.5 9.5 1.5 l288 0 q5 0 9 -2 l1 -1 q3 -1 6 -3 q3 -3 5.5 -7 q2.5 -4 2.5 -8 l0 -776 q0 -27 -8.5 -41 q-8.5 -14 -28.5 -21 q-18 -5 -50 -6 q-32 -1 -84 -1 q-7 -1 -15 4.5 q-8 5.5 -11 12.5 q-3 11 4.5 20 q7.5 9 22.5 9 q24 -1 44 -1 q10 0 27 0.5 q17 0.5 29 1.5 q12 1 17 5.5 q5 4.5 5 16.5 l0 753 l-264 0 q-5 0 -9.5 1.5 q-4.5 1.5 -8.5 5.5 q-4 4 -6 7.5 q-2 3.5 -2 8.5 ZM506.5 799.5 q-1.5 5.5 -0.5 10.5 q1 5 3 9 q2 4 7 6 q6 3 14.5 0 q8.5 -3 13.5 -10 q27 -38 52.5 -80 q25.5 -42 41.5 -75 q3 -4 3 -9 q0 -5 -1 -9 q-1 -4 -3 -8 q-2 -4 -6 -5 q-4 -2 -8.5 -2.5 q-4.5 -0.5 -9.5 1.5 q-5 2 -9 6 q-4 4 -6 8 q-16 32 -39.5 71.5 q-23.5 39.5 -47.5 75.5 q-3 5 -4.5 10.5 ZM452 -48 l0 666 q0 5 2 10 q2 5 5.5 8.5 q3.5 3.5 7.5 5.5 q4 2 9 2 q4 0 8 -2 q4 -2 7.5 -5.5 q3.5 -3.5 5 -8.5 q1.5 -5 1.5 -10 l0 -666 q0 -5 -1.5 -10 q-1.5 -5 -5 -8.5 q-3.5 -3.5 -7.5 -5.5 q-4 -2 -8 -2 q-5 0 -9 2 q-4 2 -7.5 5.5 q-3.5 3.5 -5.5 8.5 q-2 5 -2 10 ZM155 391 q-5 5 -4.5 15 q0.5 10 6.5 16 q54 75 99 174 q45 99 76 206 q2 4 5 8 q3 4 7.5 7 q4.5 3 8.5 4 q4 1 8 0 q5 0 8 -3.5 q3 -3.5 5 -7.5 q2 -4 3 -9.5 q1 -5.5 -1 -10.5 q-30 -99 -70 -191 l0 -646 q0 -5 -1.5 -10 q-1.5 -5 -4.5 -8.5 q-3 -3.5 -7 -6 q-4 -2.5 -8.5 -2.5 q-4.5 0 -8.5 2.5 q-4 2.5 -7.5 6 q-3.5 3.5 -5.5 8.5 q-2 5 -2 9 l0 552 q-32 -62 -67 -113 q-4 -6 -9 -8.5 q-5 -2.5 -10.5 -3 q-5.5 -0.5 -10 2 q-4.5 2.5 -8.5 7.5 l0 1 q-1 0 -1 1 Z" /><glyph glyph-name="uni4EF6" unicode="&#x4ef6;" d="M417 303 q0 4 2 8 q2 4 6 8 q4 4 8 5.5 q4 1.5 9 1.5 l273 0 l0 250 l-162 0 q-6 0 -11 3 q-4 1 -7 4 q0 -2 -1 -4 q-28 -81 -65 -145 q-3 -4 -7 -7 q-4 -3 -8.5 -4.5 q-4.5 -1.5 -9 -1.5 q-4.5 0 -8.5 2 q-8 5 -9.5 16 q-1.5 11 4.5 22 q37 59 63 136.5 q26 77.5 42 163.5 q1 4 3.5 9 q2.5 5 6.5 8 q4 3 8.5 4 q4.5 1 9.5 1 q4 -1 7.5 -4 q3.5 -3 6 -7.5 q2.5 -4.5 3 -9.5 q0.5 -5 -0.5 -10 q-14 -68 -32 -130 q2 1 3 1 l164 0 l0 174 q0 5 1.5 9.5 q1.5 4.5 5 8 q3.5 3.5 7.5 5.5 q4 2 9 2 l1 0 q4 0 8 -2 q4 -2 7.5 -5.5 q3.5 -3.5 5 -8 q1.5 -4.5 1.5 -9.5 l0 -174 l216 0 q4 0 9 -2 q5 -2 8.5 -5.5 q3.5 -3.5 6 -7.5 q2.5 -4 2.5 -9 q0 -4 -2.5 -8 q-2.5 -4 -6 -7 q-3.5 -3 -8.5 -5.5 q-5 -2.5 -10 -2.5 l-215 0 l0 -250 l258 0 q5 0 9 -1.5 q4 -1.5 8 -5.5 q4 -4 6 -8 q2 -4 2 -8 q0 -5 -2 -9 q-2 -4 -6 -7 q-4 -3 -8 -5 q-4 -2 -9 -2 l-258 0 l0 -329 q0 -5 -1.5 -9.5 q-1.5 -4.5 -5 -8 q-3.5 -3.5 -7.5 -5.5 q-4 -2 -8 -2 l-1 0 q-5 0 -9 2 q-4 2 -7.5 5.5 q-3.5 3.5 -5 8 q-1.5 4.5 -1.5 9.5 l0 329 l-273 0 q-5 0 -9 2 q-4 2 -8 5 q-4 3 -6 7 q-2 4 -2 9 ZM154 401 q-5 7 -4.5 17.5 q0.5 10.5 7.5 16.5 q65 72 121.5 169.5 q56.5 97.5 97.5 203.5 q1 5 4.5 8 q3.5 3 7.5 5 q4 2 8.5 3 q4.5 1 8.5 0 q5 -1 8 -4.5 q3 -3.5 5 -8 q2 -4.5 2.5 -10 q0.5 -5.5 -2.5 -9.5 q-39 -102 -91 -195 l0 -642 q0 -6 -1.5 -10.5 q-1.5 -4.5 -5 -8 q-3.5 -3.5 -7.5 -6 q-4 -2.5 -8.5 -2.5 q-4.5 0 -8.5 2.5 q-4 2.5 -7 6 q-3 3.5 -5.5 8 q-2.5 4.5 -2.5 9.5 l0 567 q-42 -66 -88 -121 q-5 -4 -10 -7 q-5 -3 -10.5 -3 q-5.5 0 -10.5 2.5 q-5 2.5 -8 6.5 l0 2 Z" /><glyph glyph-name="uni4EF7" unicode="&#x4ef7;" d="M837 -47 l0 475 q0 5 2 10 q2 5 5.5 8.5 q3.5 3.5 7.5 5.5 q4 2 9 2 l1 0 q4 0 8 -2 q4 -2 7.5 -5.5 q3.5 -3.5 5 -8.5 q1.5 -5 1.5 -10 l0 -475 q0 -4 -1.5 -9 q-1.5 -5 -5 -8.5 q-3.5 -3.5 -7.5 -6 q-4 -2.5 -8 -2.5 l-1 0 q-5 0 -9 2.5 q-4 2.5 -7.5 6 q-3.5 3.5 -5.5 8.5 q-2 5 -2 9 ZM402 -66 q-8 7 -6 18.5 q2 11.5 11 20.5 q49 39 77 84 q28 45 42.5 90 q14.5 45 18 88.5 q3.5 43.5 3.5 81.5 l0 112 q0 4 1.5 8.5 q1.5 4.5 5.5 8 q4 3.5 8 6 q4 2.5 8 2.5 l1 0 q5 0 9 -2.5 q4 -2.5 7 -6 q3 -3.5 4.5 -8 q1.5 -4.5 1.5 -8.5 l0 -112 q0 -41 -4.5 -89 q-4.5 -48 -20 -98.5 q-15.5 -50.5 -47.5 -100 q-32 -49.5 -87 -94.5 q-4 -3 -8.5 -5 q-4.5 -2 -9 -2 q-4.5 0 -8.5 1.5 q-4 1.5 -7 4.5 ZM380 430 q-7 8 -3.5 19 q3.5 11 14.5 19 q57 37 105 80.5 q48 43.5 87.5 89 q39.5 45.5 68.5 92 q29 46.5 49 87.5 q4 8 11.5 12.5 q7.5 4.5 15.5 3.5 l1 -1 q6 -1 10 -4.5 q4 -3.5 6.5 -8 q2.5 -4.5 2.5 -10 q0 -5.5 -3 -11.5 q-4 -9 -9 -18 q2 -2 4 -5 q26 -43 60.5 -84 q34.5 -41 73 -79.5 q38.5 -38.5 79.5 -71 q41 -32.5 81 -56.5 q11 -8 13.5 -19.5 q2.5 -11.5 -4.5 -19.5 q-2 -3 -6.5 -5 q-4.5 -2 -9 -2 q-4.5 0 -9 0.5 q-4.5 0.5 -8.5 3.5 q-41 26 -83 61 q-42 35 -82.5 75.5 q-40.5 40.5 -77.5 85.5 q-30 38 -55 75 q-11 -18 -23 -36 q-33 -49 -74.5 -97 q-41.5 -48 -91.5 -93.5 q-50 -45.5 -110 -84.5 q-8 -5 -18 -4.5 q-10 0.5 -15 6.5 ZM160 404 q-6 7 -5.5 17.5 q0.5 10.5 7.5 16.5 q63 72 118.5 169.5 q55.5 97.5 94.5 203.5 q1 5 4.5 8 q3.5 3 7.5 5.5 q4 2.5 8.5 3 q4.5 0.5 7.5 0.5 q5 -2 8.5 -5 q3.5 -3 5.5 -8 q2 -5 2.5 -10 q0.5 -5 -2.5 -10 q-38 -102 -89 -195 l0 -648 q0 -5 -1.5 -10 q-1.5 -5 -5.5 -8.5 q-4 -3.5 -8 -5.5 q-4 -2 -8 -2 l-1 0 q-4 0 -8 2 q-4 2 -7.5 5.5 q-3.5 3.5 -5.5 8.5 q-2 5 -2 10 l0 567 q-40 -64 -83 -116 q-4 -5 -9 -7.5 q-5 -2.5 -10.5 -2.5 q-5.5 0 -10 2.5 q-4.5 2.5 -7.5 6.5 l0 1 l-1 1 Z" /><glyph glyph-name="uni4EFB" unicode="&#x4efb;" d="M397 369 q-2 4 -2 8.5 q0 4.5 2 8.5 q2 4 5.5 7 q3.5 3 8.5 4.5 q5 1.5 10 1.5 l286 0 l0 290 q0 2 1 3 q-52 -9 -105 -17 q-68 -11 -133 -19 q-10 -2 -18.5 2.5 q-8.5 4.5 -11.5 10.5 q-3 9 4 17.5 q7 8.5 20 9.5 q65 10 134 21 q69 11 134 24 q65 13 123 27 q58 14 101 29 q6 2 14 0 q8 -2 11 -5 l2 -2 q4 -5 5.5 -11 q1.5 -6 0 -11.5 q-1.5 -5.5 -6 -9 q-4.5 -3.5 -10.5 -6.5 q-49 -15 -110 -29 q-53 -12 -111 -23 q1 -1 1 -2 q2 -4 2 -9 l0 -290 l278 0 q4 0 9 -1.5 q5 -1.5 8.5 -4.5 q3.5 -3 6 -7 q2.5 -4 2.5 -8.5 q0 -4.5 -2.5 -8.5 q-2.5 -4 -6 -7.5 q-3.5 -3.5 -8.5 -5.5 q-5 -2 -9 -2 l-278 0 l0 -325 q0 -5 -2 -10 q-1 -3 -3 -6 l264 0 q4 0 9 -2 q5 -2 8.5 -5 q3.5 -3 6 -7 q2.5 -4 2.5 -8.5 q0 -4.5 -2.5 -8.5 q-2.5 -4 -6 -7.5 q-3.5 -3.5 -8.5 -5 q-5 -1.5 -9 -1.5 l-555 0 q-4 0 -9 1.5 q-5 1.5 -8.5 5 q-3.5 3.5 -6 7.5 q-2.5 4 -2.5 8.5 q0 4.5 2.5 8.5 q2.5 4 6 7 q3.5 3 8.5 5 q5 2 9 2 l255 0 q-3 3 -4 6 q-2 5 -2 10 l0 325 l-286 0 q-5 0 -10 2 q-5 2 -8.5 5.5 q-3.5 3.5 -5.5 7.5 ZM141 396 q-6 7 -4 18 q2 11 8 18 q77 72 144 171.5 q67 99.5 114 208.5 q2 5 5 8.5 q3 3.5 7.5 5.5 q4.5 2 9 3 q4.5 1 7.5 0 l1 0 q5 -2 8 -5 q3 -3 5 -7.5 q2 -4.5 2 -10 q0 -5.5 -3 -10.5 q-43 -101 -100 -192 l0 -651 q0 -6 -2 -11 q-2 -5 -5.5 -8.5 q-3.5 -3.5 -7.5 -5.5 q-4 -2 -9 -2 q-4 0 -8 2 q-4 2 -7.5 5.5 q-3.5 3.5 -5.5 8.5 q-2 5 -2 10 l0 583 q-56 -78 -118 -141 q-4 -5 -9.5 -7 q-5.5 -2 -10.5 -2 q-5 0 -10 2.5 q-5 2.5 -8 6.5 l0 1 l-1 1 Z" /><glyph glyph-name="uni4EFD" unicode="&#x4efd;" d="M803 781 q-1 4 -0.5 9 q0.5 5 3 9.5 q2.5 4.5 6 7.5 q3.5 3 7.5 3 q8 3 15.5 -3.5 q7.5 -6.5 10.5 -15.5 q15 -57 34 -104 q19 -47 42.5 -87.5 q23.5 -40.5 52 -76 q28.5 -35.5 63.5 -67.5 q10 -8 11.5 -20 q1.5 -12 -5.5 -20 q-3 -3 -8 -5 q-5 -2 -10.5 -2 q-5.5 0 -10.5 2 q-5 2 -9 6 q-37 35 -67.5 74 q-30.5 39 -55 83.5 q-24.5 44.5 -43.5 95 q-19 50.5 -36 111.5 ZM433 -61 q-7 8 -5 20.5 q2 12.5 13 20.5 q91 62 137 163 q46 101 62 244 l0 4 l-125 0 q-5 0 -10 1.5 q-5 1.5 -8.5 5 q-3.5 3.5 -5.5 7.5 q-2 4 -2 8 q0 5 2 8.5 q2 3.5 5.5 7 q3.5 3.5 8.5 5 q5 1.5 10 1.5 l403 0 q5 0 9 -2 q2 -1 3 -1 q2 -2 5 -3 q3 -4 5.5 -7.5 q2.5 -3.5 2.5 -8.5 q0 -3 -1 -6 q-6 -115 -12 -195 q-6 -80 -13.5 -132 q-7.5 -52 -16.5 -80.5 q-9 -28.5 -21 -41.5 q-12 -14 -25.5 -19.5 q-13.5 -5.5 -33.5 -6.5 l-39 0 q-25 0 -53 2 q-8 0 -15.5 5.5 q-7.5 5.5 -8.5 11.5 q-3 11 4 19 q7 8 22 7 q13 -1 23.5 -1.5 q10.5 -0.5 20 -1 q9.5 -0.5 17.5 -0.5 l14 0 q13 0 20.5 2.5 q7.5 2.5 14.5 10.5 q9 10 16.5 37 q7.5 27 15 79 q7.5 52 13.5 130 q5 67 10 158 l-210 0 q1 -5 1 -9 q-19 -157 -71 -265.5 q-52 -108.5 -151 -178.5 q-3 -3 -7.5 -3.5 q-4.5 -0.5 -9 -0.5 q-4.5 0 -8 1 q-3.5 1 -6.5 4 ZM401 417 q-1 5 -0.5 10 q0.5 5 3.5 10.5 q3 5.5 6 9.5 q70 61 120.5 147 q50.5 86 81.5 191 q3 9 11.5 15 q8.5 6 16.5 3 q5 0 8.5 -3 q3.5 -3 6 -7.5 q2.5 -4.5 3.5 -10 q1 -5.5 -1 -10.5 q-35 -112 -89 -204 q-54 -92 -126 -159 q-4 -5 -9 -6.5 q-5 -1.5 -10.5 -1.5 q-5.5 0 -10 1.5 q-4.5 1.5 -7.5 5.5 q-3 4 -4 9 ZM158 401 q-6 7 -5 17.5 q1 10.5 7 17.5 q62 72 115.5 169.5 q53.5 97.5 90.5 202.5 q1 5 4.5 8 q3.5 3 7.5 5.5 q4 2.5 8.5 3 q4.5 0.5 8.5 0.5 q5 -2 8 -5 q3 -3 5 -7.5 q2 -4.5 2.5 -10 q0.5 -5.5 -1.5 -10.5 q-37 -102 -87 -196 l0 -644 q0 -5 -1.5 -10 q-1.5 -5 -5.5 -8.5 q-4 -3.5 -8 -5.5 q-4 -2 -8 -2 q-5 0 -9 2 q-4 2 -7 5.5 q-3 3.5 -5.5 8.5 q-2.5 5 -2.5 10 l0 562 q-37 -61 -79 -114 q-4 -4 -9 -7 q-5 -3 -10 -3 q-5 0 -10 2.5 q-5 2.5 -8 6.5 l-1 1 l0 1 Z" /><glyph glyph-name="uni4EFF" unicode="&#x4eff;" d="M707 791 q-2 6 -2 11 q0 5 2.5 9.5 q2.5 4.5 6.5 8 q4 3.5 8 3.5 l2 1 q7 1 14.5 -4 q7.5 -5 10.5 -12 q10 -26 20 -53.5 q10 -27.5 16 -50.5 q2 -5 1.5 -10 q-0.5 -5 -3 -9 q-2.5 -4 -5.5 -7.5 q-3 -3.5 -7 -4.5 l-1 0 q-5 -2 -9.5 -0.5 q-4.5 1.5 -9 4.5 q-4.5 3 -7.5 7 q-3 4 -4 9 q-7 21 -15.5 47 q-8.5 26 -17.5 51 ZM411 -61 q-8 7 -6.5 18.5 q1.5 11.5 11.5 20.5 q63 51 99.5 120.5 q36.5 69.5 56.5 152 q20 82.5 27 173.5 q7 91 10 183 l0 3 l-160 0 q-5 0 -9.5 2 q-4.5 2 -8 5 q-3.5 3 -5.5 7 q-2 4 -2 9 q0 4 2 8 q2 4 5.5 8 q3.5 4 8 5.5 q4.5 1.5 9.5 1.5 l580 0 q5 0 9.5 -1.5 q4.5 -1.5 8 -5.5 q3.5 -4 5.5 -8 q2 -4 2 -8 q0 -5 -2 -9 q-2 -4 -5.5 -7 q-3.5 -3 -8 -5 q-4.5 -2 -9.5 -2 l-373 0 l0 -4 q-3 -86 -9 -171 q5 1 10 1 l288 0 q6 0 10.5 -1.5 q4.5 -1.5 8.5 -4.5 q4 -3 6 -7 q2 -4 2 -8 q0 -2 -1 -4 l0 -1 q-5 -117 -10.5 -197.5 q-5.5 -80.5 -12 -132 q-6.5 -51.5 -15 -80 q-8.5 -28.5 -19.5 -40.5 q-13 -14 -27 -19.5 q-14 -5.5 -36 -6.5 q-11 -1 -27 -1 q-8 0 -28 0.5 q-20 0.5 -53 1.5 q-8 1 -15.5 6.5 q-7.5 5.5 -9.5 11.5 q-3 12 5.5 19.5 q8.5 7.5 24.5 6.5 q16 -1 28.5 -1.5 q12.5 -0.5 23.5 -0.5 l36 0 q12 -1 19.5 0 q7.5 1 12.5 7 l8 8 q9 11 15.5 38 q6.5 27 12.5 77.5 q6 50.5 11 127.5 q4 66 8 157 l-266 0 q-5 0 -10 2 q-2 0 -4 1 q-8 -89 -28 -168 q-21 -87 -61.5 -160.5 q-40.5 -73.5 -108.5 -125.5 q-4 -3 -8.5 -4.5 q-4.5 -1.5 -9 -2 q-4.5 -0.5 -9 0.5 q-4.5 1 -7.5 4 ZM155 401 q-6 8 -5 18.5 q1 10.5 8 17.5 q64 71 119.5 168.5 q55.5 97.5 95.5 203.5 q1 5 4.5 8 q3.5 3 7.5 5 q4 2 8.5 3 q4.5 1 9.5 0 q4 -1 7.5 -4.5 q3.5 -3.5 5 -8 q1.5 -4.5 2.5 -10 q1 -5.5 -2 -10.5 q-39 -103 -92 -198 l0 -639 q0 -6 -2 -10.5 q-2 -4.5 -5.5 -8 q-3.5 -3.5 -7.5 -6 q-4 -2.5 -8.5 -2.5 q-4.5 0 -8.5 2.5 q-4 2.5 -7 6 q-3 3.5 -5 8 q-2 4.5 -2 9.5 l0 562 q-41 -63 -84 -116 q-5 -5 -10 -7 q-5 -2 -10.5 -2 q-5.5 0 -10 2.5 q-4.5 2.5 -7.5 6.5 l0 1 l-1 0 Z" /><glyph glyph-name="uni4F01" unicode="&#x4f01;" d="M184.5 -29 q-2.5 4 -2.5 8 q0 4 2.5 8 q2.5 4 6 7 q3.5 3 8.5 5 q5 2 9 2 l113 0 q-1 3 -1 7 l0 351 q0 6 2 11 q2 5 5.5 8.5 q3.5 3.5 7.5 5.5 q4 2 8.5 2 q4.5 0 8.5 -2 q4 -2 7.5 -5.5 q3.5 -3.5 5 -8.5 q1.5 -5 1.5 -11 l0 -351 q0 -4 -1 -7 l221 0 l0 542 q0 6 1.5 10.5 q1.5 4.5 5.5 8.5 q4 4 8 6 q4 2 9 2 l1 0 q4 0 8.5 -2 q4.5 -2 7.5 -6 q3 -4 5 -8.5 q2 -4.5 2 -10.5 l0 -217 l278 0 q5 0 10 -2 q5 -2 8.5 -5.5 q3.5 -3.5 5.5 -7 q2 -3.5 2 -8 q0 -4.5 -2 -8.5 q-2 -4 -5.5 -7 q-3.5 -3 -8.5 -5 q-5 -2 -10 -2 l-278 0 l0 -276 q0 -2 -1 -4 l375 0 q5 0 9.5 -2 q4.5 -2 8.5 -5 q4 -3 6 -7 q2 -4 2 -8 q0 -4 -2 -8 q-2 -4 -6 -7.5 q-4 -3.5 -8.5 -5 q-4.5 -1.5 -9.5 -1.5 l-800 0 q-4 0 -9 1.5 q-5 1.5 -8.5 5 q-3.5 3.5 -6 7.5 ZM165 440 q-8 9 -4.5 20 q3.5 11 16.5 17 q63 30 123.5 68.5 q60.5 38.5 114.5 83 q54 44.5 100 94.5 q46 50 81 102 q5 7 13.5 10.5 q8.5 3.5 16.5 -0.5 q4 -2 7 -6 q3 -4 4 -9.5 q1 -5.5 -0.5 -10.5 q-1.5 -5 -4.5 -9 q-3 -5 -6 -9 l3 -3 q83 -105 184.5 -179 q101.5 -74 215.5 -132 q14 -6 18 -17.5 q4 -11.5 -3 -21.5 q-2 -2 -6 -4 q-4 -2 -8.5 -2.5 q-4.5 -0.5 -9 0.5 q-4.5 1 -8.5 2 q-117 62 -220 138 q-102 76 -191 185 q-25 -33 -55 -65 q-48 -53 -104 -100 q-56 -47 -118.5 -87 q-62.5 -40 -128.5 -72 q-3 -1 -7.5 -1.5 q-4.5 -0.5 -9 0.5 q-4.5 1 -8 3 q-3.5 2 -5.5 5 Z" /><glyph glyph-name="uni4F11" unicode="&#x4f11;" d="M383.5 80.5 q-1.5 5.5 -0.5 11 q1 5.5 3.5 11 q2.5 5.5 7.5 9.5 q40 35 78.5 81.5 q38.5 46.5 73.5 101 q35 54.5 65 115.5 q28 58 50 116 l-239 0 q-5 0 -10 2 q-5 2 -8.5 5 q-3.5 3 -5.5 7 q-2 4 -2 8.5 q0 4.5 2 8.5 q2 4 5.5 7.5 q3.5 3.5 8.5 5.5 q5 2 10 2 l274 0 l0 224 q0 5 1.5 9.5 q1.5 4.5 5 8 q3.5 3.5 7.5 6 q4 2.5 9 2.5 q5 0 9 -2.5 q4 -2.5 7 -6 q3 -3.5 4.5 -8 q1.5 -4.5 1.5 -9.5 l0 -224 l283 0 q5 0 9.5 -2 q4.5 -2 8.5 -5.5 q4 -3.5 6 -7.5 q2 -4 2 -8.5 q0 -4.5 -2 -8.5 q-2 -4 -6 -7 q-4 -3 -8.5 -5 q-4.5 -2 -9.5 -2 l-244 0 q22 -57 52 -114 q32 -59 67.5 -113.5 q35.5 -54.5 74.5 -101 q39 -46.5 77 -81.5 q8 -8 9 -19.5 q1 -11.5 -6 -17.5 q-3 -4 -8.5 -5.5 q-5.5 -1.5 -10.5 -1.5 q-5 0 -9.5 2 q-4.5 2 -8.5 5 q-39 37 -78 87 q-39 50 -75.5 107.5 q-36.5 57.5 -68.5 120.5 q-30 58 -54 116 l0 -559 q0 -5 -1.5 -9.5 q-1.5 -4.5 -4.5 -8 q-3 -3.5 -7 -6 q-4 -2.5 -9 -2.5 q-5 0 -9 2.5 q-4 2.5 -7.5 6 q-3.5 3.5 -5 8 q-1.5 4.5 -1.5 9.5 l0 545 q-21 -54 -47 -107 q-31 -65 -67.5 -122.5 q-36.5 -57.5 -77 -107 q-40.5 -49.5 -80.5 -87.5 q-4 -3 -8.5 -5 q-4.5 -2 -9.5 -2 q-5 0 -9.5 1.5 q-4.5 1.5 -7.5 4.5 q-4 4 -5.5 9.5 ZM140 395 q-6 7 -4 17.5 q2 10.5 9 17.5 q78 71 144.5 168.5 q66.5 97.5 112.5 207.5 q4 7 13 12 q9 5 17 3 l1 0 q5 -1 8 -4.5 q3 -3.5 5 -8 q2 -4.5 2 -10 q0 -5.5 -3 -10.5 q-43 -102 -102 -194 l0 -639 q0 -5 -2 -10 q-2 -5 -5 -8.5 q-3 -3.5 -7 -6 q-4 -2.5 -9 -2.5 q-4 0 -8 2.5 q-4 2.5 -7.5 6 q-3.5 3.5 -5.5 8.5 q-2 5 -2 9 l0 574 q-56 -76 -119 -137 q-4 -4 -9 -6 q-5 -2 -10.5 -1.5 q-5.5 0.5 -10 3 q-4.5 2.5 -7.5 6.5 l-1 2 Z" /><glyph glyph-name="uni4F17" unicode="&#x4f17;" d="M553 -63 q-9 8 -8 20 q1 12 11 21 q92 77 136.5 194 q44.5 117 60.5 275 q0 5 3 9.5 q3 4.5 7 8 q4 3.5 8 5.5 q4 2 8 1 l1 0 q4 0 8 -2.5 q4 -2.5 7 -7 q3 -4.5 4 -9.5 q1 -5 1 -9 q-6 -57 -16 -109 l1 0 q4 -4 6 -11 q13 -43 33 -90 q20 -47 48 -91 q28 -44 64 -83 q36 -39 82 -69 q11 -7 14 -19.5 q3 -12.5 -5 -21.5 q-2 -4 -6 -5.5 q-4 -1.5 -8.5 -1.5 q-4.5 0 -9 0.5 q-4.5 0.5 -8.5 3.5 q-51 34 -90.5 79 q-39.5 45 -69.5 94.5 q-30 49.5 -51 99.5 q-8 21 -15 42 q-16 -62 -38 -115 q-26 -61 -62 -112.5 q-36 -51.5 -83 -93.5 q-3 -3 -7.5 -4.5 q-4.5 -1.5 -9 -2 q-4.5 -0.5 -9 0.5 q-4.5 1 -7.5 3 ZM173 -46.5 q-2 5.5 -1.5 10.5 q0.5 5 3 11 q2.5 6 7.5 11 q91 78 140.5 195.5 q49.5 117.5 70.5 272.5 q0 5 3 9.5 q3 4.5 6.5 7.5 q3.5 3 7.5 4.5 q4 1.5 9 1.5 q5 0 9 -3 q4 -3 7 -7 q3 -4 4 -8.5 q1 -4.5 1 -9.5 q-11 -75 -28 -141 q6 -1 10 -5 q24 -19 48.5 -40 q24.5 -21 48 -41.5 q23.5 -20.5 44.5 -41 q21 -20.5 37 -37.5 q2 -3 3.5 -7 q1.5 -4 1.5 -9 q0 -5 -1.5 -9 q-1.5 -4 -4.5 -7 q-4 -4 -8.5 -5.5 q-4.5 -1.5 -10.5 -1 q-6 0.5 -10.5 2.5 q-4.5 2 -8.5 7 q-15 16 -34.5 36 q-19.5 20 -41 40 q-21.5 20 -44.5 40 q-20 18 -41 35 q-16 -58 -38 -108 q-54 -123 -150 -209 q-3 -3 -7 -4.5 q-4 -1.5 -8.5 -2 q-4.5 -0.5 -9 0 q-4.5 0.5 -8.5 3.5 q-4 3 -6 8.5 ZM175 443 q-8 11 -4.5 22.5 q3.5 11.5 17.5 17.5 q135 49 240 135 q105 86 164 197 q5 8 15 12.5 q10 4.5 18 1.5 l1 -1 q4 -2 7 -5.5 q3 -3.5 4.5 -8 q1.5 -4.5 1 -10 q-0.5 -5.5 -2.5 -9.5 q-8 -13 -15 -26 l6 -6 q31 -44 74 -85.5 q43 -41.5 94 -77.5 q51 -36 107.5 -65.5 q56.5 -29.5 114.5 -48.5 q14 -5 18.5 -17 q4.5 -12 -4.5 -24 q-4 -5 -12.5 -8 q-8.5 -3 -16.5 0 q-59 21 -117.5 52 q-58.5 31 -112 70.5 q-53.5 39.5 -98.5 85.5 q-43 43 -76 89 q-57 -83 -139 -152 q-112 -93 -254 -148 q-4 -1 -8.5 -1 q-4.5 0 -8.5 1.5 q-4 1.5 -7.5 3.5 q-3.5 2 -5.5 5 Z" /><glyph glyph-name="uni4F18" unicode="&#x4f18;" d="M816.5 769 q-2.5 5 -3 10 q-0.5 5 1 9.5 q1.5 4.5 4.5 7.5 q5 3 13.5 2 q8.5 -1 14.5 -7 q30 -27 60.5 -58 q30.5 -31 51.5 -57 q6 -7 6 -17 q0 -10 -6 -16 q-3 -2 -7.5 -2.5 q-4.5 -0.5 -10 0 q-5.5 0.5 -10 3.5 q-4.5 3 -7.5 7 q-19 24 -46 53.5 q-27 29.5 -55 55.5 q-4 4 -6.5 9 ZM745 34 l0 398 q0 4 2 8.5 q2 4.5 5.5 8 q3.5 3.5 7.5 6 q4 2.5 9 2.5 q4 0 8 -2.5 q4 -2.5 7 -6 q3 -3.5 5 -8 q2 -4.5 2 -8.5 l0 -398 q0 -21 7.5 -28 q7.5 -7 33.5 -7 l125 0 q11 0 18 4.5 q7 4.5 11.5 17 q4.5 12.5 7 34 q2.5 21.5 3.5 57.5 q1 15 9 23 q8 8 20 3 q6 -2 10.5 -10 q4.5 -8 3.5 -15 q-2 -47 -6 -77.5 q-4 -30.5 -12.5 -48 q-8.5 -17.5 -23 -25 q-14.5 -7.5 -38.5 -7.5 l-131 0 q-24 0 -40.5 3.5 q-16.5 3.5 -26 12.5 q-9.5 9 -13.5 24.5 q-4 15.5 -4 38.5 ZM388 570 q0 4 2 8 q2 4 5.5 7 q3.5 3 8.5 5 q5 2 10 2 l216 0 q5 105 5 205 q0 5 2.5 9.5 q2.5 4.5 5.5 8.5 q3 4 7 6 q4 2 9 2 q5 0 9 -2 q4 -2 7.5 -6 q3.5 -4 5 -9 q1.5 -5 1.5 -9 q-1 -101 -5 -205 l343 0 q5 0 10 -2 q5 -2 8.5 -5 q3.5 -3 5.5 -7 q2 -4 2 -8.5 q0 -4.5 -2 -8.5 q-2 -4 -5.5 -7.5 q-3.5 -3.5 -8.5 -5 q-5 -1.5 -10 -1.5 l-345 0 q-7 -116 -30 -224 q-24 -113 -72.5 -210.5 q-48.5 -97.5 -133.5 -164.5 q-3 -4 -7.5 -5 q-4.5 -1 -9 -1 q-4.5 0 -8 1.5 q-3.5 1.5 -6.5 3.5 q-8 7 -6 18.5 q2 11.5 12 20.5 q79 65 123 159 q44 94 66 202 q19 97 25 200 l-214 0 q-5 0 -10 1.5 q-5 1.5 -8.5 5 q-3.5 3.5 -5.5 7.5 q-2 4 -2 9 ZM159 402 q-5 7 -4 17.5 q1 10.5 7 17.5 q66 72 122 169.5 q56 97.5 97 203.5 q1 4 4.5 7.5 q3.5 3.5 7.5 5.5 q4 2 8.5 3 q4.5 1 8.5 0 q5 -2 8 -5 q3 -3 5 -7.5 q2 -4.5 2.5 -10 q0.5 -5.5 -2.5 -10.5 q-42 -108 -99 -208 l0 -633 q0 -5 -1.5 -10 q-1.5 -5 -5 -8.5 q-3.5 -3.5 -7.5 -5.5 q-4 -2 -8.5 -2 q-4.5 0 -8.5 2 q-4 2 -7 5.5 q-3 3.5 -5 8.5 q-2 5 -2 10 l0 558 q-39 -58 -81 -108 q-4 -5 -9.5 -7.5 q-5.5 -2.5 -10.5 -2.5 q-5 0 -10 2.5 q-5 2.5 -8 6.5 l0 1 l-1 0 Z" /><glyph glyph-name="uni4F19" unicode="&#x4f19;" d="M890.5 374.5 q-1.5 4.5 -1 9 q0.5 4.5 2.5 9.5 q12 24 26 52.5 q14 28.5 27 58 q13 29.5 25 59 q12 29.5 21 56.5 q3 5 6 9.5 q3 4.5 7.5 7 q4.5 2.5 9.5 3 q5 0.5 9 -1.5 l2 0 q5 -1 7.5 -5 q2.5 -4 4.5 -8.5 q2 -4.5 2.5 -10 q0.5 -5.5 -0.5 -10.5 q-25 -57 -52.5 -118.5 q-27.5 -61.5 -54.5 -109.5 q-2 -5 -5.5 -8 q-3.5 -3 -8 -5 q-4.5 -2 -8.5 -2.5 q-4 -0.5 -7 1.5 q-5 2 -8 5.5 q-3 3.5 -4.5 8 ZM438.5 356 q-1.5 5 -1.5 10.5 q0 5.5 3 10.5 q23 47 39.5 110.5 q16.5 63.5 25.5 124.5 q1 5 3.5 9 q2.5 4 6.5 7.5 q4 3.5 8 5.5 q4 2 9 0 q3 0 6.5 -2.5 q3.5 -2.5 6 -6.5 q2.5 -4 3.5 -8 q1 -4 1 -9 q-8 -64 -25.5 -132 q-17.5 -68 -42.5 -120 q-2 -5 -5.5 -8 q-3.5 -3 -8 -5.5 q-4.5 -2.5 -9 -2.5 q-4.5 0 -7.5 1 l-1 1 q-5 1 -7.5 5 q-2.5 4 -4 9 ZM410 -58 q-8 8 -4.5 19 q3.5 11 16.5 17 q106 50 163.5 125 q57.5 75 83.5 177 q26 102 31 232 q5 130 5 290 q0 5 1.5 10 q1.5 5 5.5 8.5 q4 3.5 8 6 q4 2.5 8 2.5 l2 0 q5 0 9 -2.5 q4 -2.5 7 -6 q3 -3.5 5 -8.5 q2 -5 2 -9 q-1 -167 -6 -304 q-2 -38 -5 -73 q2 -4 3 -7 q11 -83 33 -152 q22 -69 55.5 -124 q33.5 -55 81.5 -95 q48 -40 113 -65 q13 -6 17.5 -17 q4.5 -11 -2.5 -22 q-2 -3 -5.5 -5 q-3.5 -2 -7.5 -3 q-4 -1 -8.5 -1 q-4.5 0 -8.5 2 q-71 27 -123.5 70.5 q-52.5 43.5 -89.5 103 q-37 59.5 -60 135.5 q-9 28 -16 58 q-6 -26 -12 -49 q-30 -107 -93 -186.5 q-63 -79.5 -179 -130.5 q-4 -2 -8.5 -2.5 q-4.5 -0.5 -8.5 0 q-4 0.5 -7.5 2 q-3.5 1.5 -5.5 4.5 ZM157 406 q-5 7 -4 17 q1 10 8 17 q65 71 121 167.5 q56 96.5 96 201.5 q2 5 5 8.5 q3 3.5 7 5.5 q4 2 9 2.5 q5 0.5 9 -0.5 q5 -2 8 -5 q3 -3 5 -7.5 q2 -4.5 2.5 -10 q0.5 -5.5 -2.5 -9.5 q-40 -103 -92 -198 l0 -641 q0 -6 -2 -11 q-2 -5 -5.5 -8.5 q-3.5 -3.5 -7.5 -5.5 q-4 -2 -9 -2 l-1 0 q-5 0 -9 2 q-4 2 -7 5.5 q-3 3.5 -5 8.5 q-2 5 -2 10 l0 563 q-40 -61 -83 -112 q-5 -5 -10 -7.5 q-5 -2.5 -11 -2 q-6 0.5 -11 2.5 q-5 2 -8 7 l0 1 l-1 1 Z" /><glyph glyph-name="uni4F1A" unicode="&#x4f1a;" d="M361 496 q0 5 2.5 8.5 q2.5 3.5 6 7 q3.5 3.5 8.5 5.5 q5 2 10 2 l429 0 q6 0 10.5 -2 q4.5 -2 8.5 -5.5 q4 -3.5 6 -7 q2 -3.5 2 -8.5 q0 -4 -2 -8 q-2 -4 -6 -7 q-4 -3 -8.5 -5 q-4.5 -2 -10.5 -2 l-429 0 q-5 0 -10 2 q-5 2 -8.5 5 q-3.5 3 -6 7 q-2.5 4 -2.5 8 ZM190 304 q0 5 2 8.5 q2 3.5 5.5 7.5 q3.5 4 8.5 5.5 q5 1.5 9 1.5 l776 0 q4 0 9 -1.5 q5 -1.5 8.5 -5.5 q3.5 -4 6 -7.5 q2.5 -3.5 2.5 -8 q0 -4.5 -2.5 -8.5 q-2.5 -4 -6 -7.5 q-3.5 -3.5 -8.5 -5.5 q-5 -2 -9 -2 l-435 0 l0 -7 q-1 -6 -4 -10 q-60 -80 -124 -153 q-47 -53 -95 -98 l520 45 l-3 3 q-25 30 -52.5 59 q-27.5 29 -53.5 55 q-5 5 -7.5 10 q-2.5 5 -2 10.5 q0.5 5.5 3 10 q2.5 4.5 7.5 6.5 q5 3 12.5 1.5 q7.5 -1.5 13.5 -5.5 q29 -27 58.5 -57 q29.5 -30 56 -61 q26.5 -31 50 -60.5 q23.5 -29.5 40.5 -55.5 q3 -4 3.5 -8.5 q0.5 -4.5 -0.5 -9 q-1 -4.5 -3 -9 q-2 -4.5 -6 -6.5 q-5 -3 -9.5 -3 q-4.5 0 -10 1 q-5.5 1 -10 4 q-4.5 3 -6.5 7 q-17 25 -38 54 q-5 6 -10 13 q-5 -2 -10 -2 q-157 -14 -261.5 -23.5 q-104.5 -9.5 -171 -16 q-66.5 -6.5 -101.5 -10.5 q-35 -4 -53 -7 q-6 -1 -12.5 0 q-6.5 1 -10.5 4 q-2 1 -4 3 q-5 1 -8.5 4 q-3.5 3 -5.5 8 q-1 4 -0.5 9.5 q0.5 5.5 4 10.5 q3.5 5 7.5 9.5 q4 4.5 9 8.5 q4 4 7.5 6 q3.5 2 7.5 6 q4 4 11 10.5 q7 6.5 19 17.5 q11 11 33 35 q22 24 49 56 q27 32 57 70 q25 32 48 65 l-285 0 q-4 0 -9 2 q-5 2 -8.5 5.5 q-3.5 3.5 -5.5 7.5 q-2 4 -2 8 ZM175 451 q-8 9 -5 20.5 q3 11.5 17 18.5 q133 64 240.5 147.5 q107.5 83.5 170.5 177.5 q4 6 13 9 q9 3 17 -1 q5 -2 8.5 -6 q3.5 -4 5.5 -9.5 q2 -5.5 1 -11 q-1 -5.5 -5 -9.5 q-4 -5 -7 -10 q29 -35 70 -73 q42 -38 93 -75 q51 -37 108 -69.5 q57 -32.5 117 -57.5 q14 -5 17.5 -17 q3.5 -12 -4.5 -21 q-5 -6 -14.5 -8.5 q-9.5 -2.5 -17.5 0.5 q-61 26 -120.5 62 q-59.5 36 -112.5 75.5 q-53 39.5 -97 80.5 q-38 35 -67 68 q-62 -76 -148 -143 q-110 -87 -247 -154 q-5 -1 -9.5 -1.5 q-4.5 -0.5 -9 0 q-4.5 0.5 -8 3 q-3.5 2.5 -6.5 4.5 Z" /><glyph glyph-name="uni4F1F" unicode="&#x4f1f;" d="M400 311 q0 4 2 8 q2 4 6 7 q4 3 8.5 5 q4.5 2 8.5 2 l263 0 l0 139 l-207 0 q-4 0 -9 2 q-5 2 -9 5 q-4 3 -6 7 q-2 4 -2 8 q0 5 2 9 q2 4 6 7.5 q4 3.5 9 5 q5 1.5 9 1.5 l207 0 l0 133 l-231 0 q-5 0 -9.5 2 q-4.5 2 -8.5 5.5 q-4 3.5 -6 7.5 q-2 4 -2 8 q0 5 2 8.5 q2 3.5 6 7 q4 3.5 8.5 5 q4.5 1.5 9.5 1.5 l231 0 l0 112 q0 5 2 9.5 q2 4.5 5.5 8.5 q3.5 4 7 6 q3.5 2 8 2 q4.5 0 8.5 -2 q4 -2 7.5 -6 q3.5 -4 5.5 -8.5 q2 -4.5 2 -9.5 l0 -112 l249 0 q4 0 9 -1.5 q5 -1.5 8.5 -5 q3.5 -3.5 6 -7 q2.5 -3.5 2.5 -8.5 q0 -4 -2.5 -8 q-2.5 -4 -6 -7.5 q-3.5 -3.5 -8.5 -5.5 q-5 -2 -9 -2 l-249 0 l0 -133 l222 0 q4 0 9 -1.5 q5 -1.5 8.5 -5 q3.5 -3.5 6 -7.5 q2.5 -4 2.5 -9 q0 -4 -2.5 -8 q-2.5 -4 -6 -7 q-3.5 -3 -8.5 -5 q-5 -2 -9 -2 l-222 0 l0 -139 l275 0 q5 0 9 -2 q4 -2 7 -5 q1 0 1 -1 q3 -3 5 -6 q2 -4 2 -8 q0 -4 -1 -7 q-4 -66 -8 -112 q-5 -49 -10 -81 q-5 -32 -11.5 -50 q-6.5 -18 -14.5 -26 q-9 -10 -20 -14.5 q-11 -4.5 -28 -5.5 q-10 -1 -26.5 -0.5 q-16.5 0.5 -35.5 1.5 q-4 0 -8 1.5 q-4 1.5 -7.5 4 q-3.5 2.5 -6.5 5 q-3 2.5 -3 5.5 q-2 11 3.5 18.5 q5.5 7.5 18.5 6.5 q17 -2 29 -2 l21 0 q10 0 16 2 q6 2 11 7 q6 7 11 23 q5 16 9.5 47 q4.5 31 8.5 78 q3 33 6 76 l-253 0 l0 -336 q0 -4 -2 -9 q-2 -5 -5.5 -8.5 q-3.5 -3.5 -7.5 -6 q-4 -2.5 -8.5 -2.5 q-4.5 0 -8 2.5 q-3.5 2.5 -7 6 q-3.5 3.5 -5.5 8.5 q-2 5 -2 9 l0 336 l-263 0 q-4 0 -8.5 1.5 q-4.5 1.5 -8.5 5 q-4 3.5 -6 7.5 q-2 4 -2 9 ZM163 401 q-5 7 -4.5 17.5 q0.5 10.5 7.5 16.5 q65 72 121.5 169.5 q56.5 97.5 96.5 203.5 q2 4 5 7.5 q3 3.5 7 5.5 q4 2 8 3 q4 1 9 0 q4 -1 7.5 -4.5 q3.5 -3.5 5 -8 q1.5 -4.5 2 -10 q0.5 -5.5 -1.5 -9.5 q-41 -108 -97 -206 l0 -635 q0 -5 -1.5 -10 q-1.5 -5 -5 -8.5 q-3.5 -3.5 -7.5 -5.5 q-4 -2 -8.5 -2 q-4.5 0 -8.5 2 q-4 2 -7 5.5 q-3 3.5 -5 8.5 q-2 5 -2 10 l0 560 q-40 -60 -82 -111 q-5 -4 -10 -6.5 q-5 -2.5 -10.5 -3 q-5.5 -0.5 -10.5 2 q-5 2.5 -8 6.5 l0 2 Z" /><glyph glyph-name="uni4F20" unicode="&#x4f20;" d="M390 499 q0 4 2 8 q2 4 5.5 7.5 q3.5 3.5 8.5 5 q5 1.5 10 1.5 l185 0 l12 38 q16 54 31 108 l-172 0 q-5 0 -9 2 q-4 2 -8 5 q-4 3 -6 7 q-2 4 -2 8 q0 4 2 8 q2 4 6 7.5 q4 3.5 8 5 q4 1.5 9 1.5 l184 0 q14 52 27 99 q1 5 3.5 8.5 q2.5 3.5 6 6 q3.5 2.5 8 4 q4.5 1.5 8.5 1.5 q5 -2 8.5 -4.5 q3.5 -2.5 6 -7 q2.5 -4.5 3.5 -10 q1 -5.5 -1 -10.5 q-11 -41 -23 -87 l277 0 q4 0 8.5 -1.5 q4.5 -1.5 8 -5 q3.5 -3.5 6 -7.5 q2.5 -4 2.5 -8 q0 -4 -2.5 -8 q-2.5 -4 -6 -7 q-3.5 -3 -8 -5 q-4.5 -2 -8.5 -2 l-290 0 q-17 -64 -35 -126 l-6 -20 l372 0 q5 0 9.5 -1.5 q4.5 -1.5 8.5 -5 q4 -3.5 6 -7.5 q2 -4 2 -8 q0 -5 -2 -9 q-2 -4 -6 -7 q-4 -3 -8.5 -5 q-4.5 -2 -9.5 -2 l-386 0 q-9 -31 -18 -61 q-14 -43 -26 -80 l323 0 q4 0 9 -2 l2 0 q0 1 1 1 q2 1 5 1 q2 0 3 0.5 q1 0.5 3 0.5 q2 1 6.5 0.5 q4.5 -0.5 7.5 -2.5 l1 -1 q4 -3 6.5 -7.5 q2.5 -4.5 3.5 -9.5 q1 -5 -0.5 -10.5 q-1.5 -5.5 -5.5 -9.5 q-22 -27 -47.5 -56.5 q-25.5 -29.5 -52.5 -61.5 q-27 -32 -54 -63 q-24 -27 -47 -52 q27 -21 52 -41 q25 -22 45 -41 q4 -4 5.5 -9 q1.5 -5 2 -10 q0.5 -5 -1.5 -10 q-2 -5 -6 -8 q-3 -3 -8 -4.5 q-5 -1.5 -10 -1.5 q-5 0 -10 2 q-5 2 -8 5 q-19 19 -43 40.5 q-24 21.5 -51 43.5 q-27 22 -55.5 44 q-28.5 22 -57.5 41 q-5 3 -8 8 q-3 5 -3.5 10 q-0.5 5 1.5 10.5 q2 5.5 6 8.5 q4 3 12.5 3.5 q8.5 0.5 13.5 -2.5 q30 -20 61 -42 q14 -10 29 -21 q25 29 52 60 q29 32 56 64 q27 32 51 61 q7 8 13 16 l-301 0 q-5 0 -10 2 q-4 2 -7 5 q-1 -1 -2 -1 q-6 -6 -13 -6 l-1 0 q-6 0 -11.5 3 q-5.5 3 -8.5 7.5 q-3 4.5 -3.5 10.5 q-0.5 6 1.5 12 q18 49 37 110 q7 21 13 43 l-171 0 q-5 0 -10 2 q-5 2 -8.5 5 q-3.5 3 -5.5 7 q-2 4 -2 9 ZM134 401 q-4 7 -2.5 17.5 q1.5 10.5 7.5 17.5 q70 72 131 169 q61 97 103 203 q1 5 5 8 q4 3 8 5 q4 2 8.5 3 q4.5 1 7.5 0 q5 -1 8 -4.5 q3 -3.5 5.5 -8 q2.5 -4.5 2.5 -10 q0 -5.5 -2 -9.5 q-42 -102 -98 -196 l0 -641 q0 -6 -2 -10.5 q-2 -4.5 -5 -8 q-3 -3.5 -7 -6 q-4 -2.5 -8.5 -2.5 q-4.5 0 -8.5 2.5 q-4 2.5 -7.5 6 q-3.5 3.5 -5.5 8 q-2 4.5 -2 9.5 l0 571 q-47 -69 -99 -125 q-5 -5 -10 -7.5 q-5 -2.5 -10.5 -2.5 q-5.5 0 -10 2.5 q-4.5 2.5 -7.5 6.5 l0 1 l-1 1 Z" /><glyph glyph-name="uni4F24" unicode="&#x4f24;" d="M418 497.5 q-2 4.5 -1.5 10 q0.5 5.5 2.5 11 q2 5.5 6 9.5 q52 55 95 127.5 q43 72.5 73 154.5 q1 4 4 7.5 q3 3.5 7 6 q4 2.5 8.5 3.5 q4.5 1 8.5 1 q4 -2 8 -5.5 q4 -3.5 6 -8 q2 -4.5 2.5 -9.5 q0.5 -5 -1.5 -10 q-22 -60 -50 -114 l413 0 q6 0 10.5 -2 q4.5 -2 8.5 -5 q4 -3 6 -7 q2 -4 2 -8.5 q0 -4.5 -2 -8.5 q-2 -4 -6 -7.5 q-4 -3.5 -8.5 -5 q-4.5 -1.5 -10.5 -1.5 l-425 0 q-5 0 -10 1 l-1 1 q-2 -4 -4 -7 q-46 -78 -99 -136 q-4 -4 -8.5 -6.5 q-4.5 -2.5 -9.5 -3 q-5 -0.5 -10 0.5 q-5 1 -8 3 q-4 4 -6 8.5 ZM419 -62 q-8 9 -4.5 20 q3.5 11 15.5 19 q76 43 122.5 106 q46.5 63 71.5 138 q25 73 35 154 l-192 0 q-5 0 -9.5 2 q-4.5 2 -8 5.5 q-3.5 3.5 -5.5 7 q-2 3.5 -2 8.5 q0 4 2 8 q2 4 5.5 7.5 q3.5 3.5 8 5 q4.5 1.5 9.5 1.5 l196 0 q7 65 10 132 q0 4 2 9 q2 5 5.5 8.5 q3.5 3.5 8 5.5 q4.5 2 8.5 2 q5 0 9.5 -2 q4.5 -2 7.5 -6 q3 -4 5 -8.5 q2 -4.5 1 -10.5 q-3 -66 -10 -130 l263 0 q5 0 9.5 -1.5 q4.5 -1.5 7.5 -5.5 q3 -2 5 -6 q0 -1 1 -1 q2 -4 2 -8 q0 -2 -1 -3 l0 -1 q-3 -107 -7.5 -181.5 q-4.5 -74.5 -10.5 -122.5 q-6 -48 -13 -74.5 q-7 -26.5 -18 -38.5 q-12 -13 -26 -18.5 q-14 -5.5 -36 -6.5 q-13 -1 -32 -1 q-10 0 -32 0.5 q-22 0.5 -60 2.5 q-8 0 -16 5.5 q-8 5.5 -9 11.5 q-3 11 6 18.5 q9 7.5 25 6.5 q18 -1 33.5 -2 q15.5 -1 28.5 -1 l40 0 q15 0 24 1.5 q9 1.5 15 9.5 q9 9 15 34 q6 25 11.5 73 q5.5 48 9.5 121 q3 61 6 143 l-246 0 q-1 -5 -1 -11 q-12 -90 -40.5 -170 q-28.5 -80 -79.5 -146.5 q-51 -66.5 -135 -111.5 q-3 -3 -7.5 -3.5 q-4.5 -0.5 -8.5 -0.5 q-4 0 -7.5 2 q-3.5 2 -6.5 4 ZM136 403 q-4 7 -3 17.5 q1 10.5 7 17.5 q70 72 131 169.5 q61 97.5 104 203.5 q1 4 5 7 q4 3 8 5.5 q4 2.5 8.5 3.5 q4.5 1 7.5 0 q5 -2 8.5 -5 q3.5 -3 5.5 -7.5 q2 -4.5 2.5 -10 q0.5 -5.5 -1.5 -10.5 q-43 -105 -101 -201 l0 -638 q0 -6 -2 -10.5 q-2 -4.5 -5 -8 q-3 -3.5 -7 -6 q-4 -2.5 -8.5 -2.5 q-4.5 0 -8.5 2.5 q-4 2.5 -7.5 6 q-3.5 3.5 -5 8 q-1.5 4.5 -1.5 9.5 l0 569 q-47 -67 -98 -122 q-4 -5 -9 -7 q-5 -2 -10.5 -2 q-5.5 0 -10.5 2.5 q-5 2.5 -8 7.5 l0 1 l-1 0 Z" /><glyph glyph-name="uni4F2A" unicode="&#x4f2a;" d="M723.5 349 q-1.5 5 -0.5 10 q1 5 3.5 9.5 q2.5 4.5 6.5 6.5 q6 3 14 1.5 q8 -1.5 13 -8.5 q31 -32 61.5 -70 q30.5 -38 48.5 -69 q3 -4 3.5 -8 q0.5 -4 -0.5 -8.5 q-1 -4.5 -3 -8.5 q-2 -4 -5 -6 q-5 -3 -10 -3 q-5 0 -10 1.5 q-5 1.5 -9.5 4.5 q-4.5 3 -7.5 8 q-18 28 -44.5 63.5 q-26.5 35.5 -54.5 66.5 q-4 5 -5.5 10 ZM467.5 736.5 q-1.5 5.5 -1 10.5 q0.5 5 3 9.5 q2.5 4.5 7.5 6.5 q6 3 14.5 0.5 q8.5 -2.5 13.5 -7.5 q23 -25 44.5 -51.5 q21.5 -26.5 35.5 -50.5 q3 -4 3.5 -8.5 q0.5 -4.5 -0.5 -9 q-1 -4.5 -3.5 -8 q-2.5 -3.5 -6.5 -5.5 q-3 -2 -8.5 -2 q-5.5 0 -10 1.5 q-4.5 1.5 -9 5 q-4.5 3.5 -7.5 8.5 q-13 20 -32 44.5 q-19 24.5 -38 46.5 q-4 4 -5.5 9.5 ZM388 -48 q-9 7 -7.5 19 q1.5 12 12.5 21 q65 47 110.5 109 q45.5 62 75.5 132.5 q30 70.5 48 145.5 q16 72 25 142 l-215 0 q-5 0 -10 2.5 q-5 2.5 -8.5 5.5 q-3.5 3 -6 7 q-2.5 4 -2.5 8 q0 5 2.5 9 q2.5 4 6 7.5 q3.5 3.5 8.5 5.5 q5 2 10 2 l219 0 q6 55 8 107 q3 70 3 129 q0 5 2 9.5 q2 4.5 5 8 q3 3.5 7.5 5.5 q4.5 2 8.5 2 l1 0 q5 0 9 -2 q4 -2 7.5 -6 q3.5 -4 5 -8.5 q1.5 -4.5 1.5 -9.5 q-1 -63 -4 -138 q-2 -48 -6 -97 l284 0 q3 0 5 -1 q2 0 5 -1 q5 -2 8.5 -5.5 q3.5 -3.5 5.5 -7.5 q2 -4 2 -9 l0 -6 q-6 -147 -12.5 -248.5 q-6.5 -101.5 -14.5 -167.5 q-8 -66 -18 -102 q-10 -36 -23 -51 q-14 -17 -29.5 -23 q-15.5 -6 -39.5 -7 q-11 -1 -27 -1 q-12 0 -36.5 1 q-24.5 1 -63.5 2 q-8 1 -15 6.5 q-7 5.5 -9 11.5 q-3 12 5.5 20 q8.5 8 24.5 7 q18 -1 33.5 -1.5 q15.5 -0.5 29 -1 q13.5 -0.5 24.5 -1.5 l20 0 q14 0 23.5 2.5 q9.5 2.5 17.5 11.5 q11 12 20.5 47 q9.5 35 17 100 q7.5 65 13.5 167 q6 89 10 211 l-267 0 q0 -4 -1 -8 q-9 -78 -28.5 -157 q-19.5 -79 -52 -152.5 q-32.5 -73.5 -80.5 -137.5 q-48 -64 -117 -113 q-3 -4 -7.5 -5 q-4.5 -1 -9 -1.5 q-4.5 -0.5 -8.5 1 q-4 1.5 -6 4.5 ZM145 405 q-5 7 -4 17.5 q1 10.5 7 17.5 q69 71 129.5 167 q60.5 96 102.5 201 q2 5 5.5 8 q3.5 3 7.5 5 q4 2 8.5 3.5 q4.5 1.5 8.5 -0.5 q4 -1 8 -4.5 q4 -3.5 5.5 -8 q1.5 -4.5 2 -10 q0.5 -5.5 -1.5 -10.5 q-43 -101 -98 -193 l0 -643 q0 -5 -2 -10 q-2 -5 -5.5 -8.5 q-3.5 -3.5 -7.5 -6 q-4 -2.5 -8 -2.5 q-4 0 -8 2.5 q-4 2.5 -7.5 6 q-3.5 3.5 -5.5 8.5 q-2 5 -2 9 l0 572 q-46 -67 -96 -122 q-4 -5 -9.5 -7 q-5.5 -2 -10.5 -2 q-5 0 -10.5 2 q-5.5 2 -8.5 7 l0 1 Z" /><glyph glyph-name="uni4F30" unicode="&#x4f30;" d="M533 15 l410 0 l0 270 q0 2 -2 4 q-2 2 -5 2 l-396 0 q-3 0 -5 -2 q-2 -2 -2 -4 l0 -270 ZM424 575 q-2 4 -2 8 q0 4 2 8 q2 4 5.5 7.5 q3.5 3.5 8 5 q4.5 1.5 9.5 1.5 l264 0 l0 203 q0 5 1.5 9.5 q1.5 4.5 5 8 q3.5 3.5 7.5 6 q4 2.5 9 2.5 l1 0 q5 0 9 -2.5 q4 -2.5 7 -6 q3 -3.5 5 -8 q2 -4.5 2 -9.5 l0 -203 l271 0 q5 0 9.5 -1.5 q4.5 -1.5 8 -5 q3.5 -3.5 6 -7.5 q2.5 -4 2.5 -8 q0 -4 -2.5 -8 q-2.5 -4 -6 -8 q-3.5 -4 -8 -5.5 q-4.5 -1.5 -9.5 -1.5 l-271 0 l0 -224 l207 0 q4 0 8.5 -2.5 q4.5 -2.5 8 -6 q3.5 -3.5 6 -8.5 q2.5 -5 2.5 -10 l0 -352 q0 -5 -2 -10 q-2 -5 -5 -8.5 q-3 -3.5 -7 -6 q-4 -2.5 -9 -2.5 l-1 0 q-4 0 -8 2.5 q-4 2.5 -8 6 q-4 3.5 -5.5 8 q-1.5 4.5 -1.5 8.5 l0 15 l-410 0 l0 -18 q0 -5 -2 -9.5 q-2 -4.5 -5.5 -8 q-3.5 -3.5 -7.5 -6 q-4 -2.5 -8 -2.5 q-5 0 -9 2.5 q-4 2.5 -7 6 q-3 3.5 -5.5 8.5 q-2.5 5 -2.5 10 l0 356 q0 5 2.5 10 q2.5 5 6 8.5 q3.5 3.5 8 6 q4.5 2.5 8.5 2.5 l200 0 l0 224 l-264 0 q-5 0 -9.5 1.5 q-4.5 1.5 -8 5.5 q-3.5 4 -5.5 8 ZM135 401 q-5 7 -3.5 17.5 q1.5 10.5 8.5 17.5 q69 72 130 169 q61 97 103 203 q2 5 5.5 8 q3.5 3 7.5 5 q4 2 8.5 3 q4.5 1 7.5 0 q5 -1 8 -4.5 q3 -3.5 5.5 -8 q2.5 -4.5 2.5 -10 q0 -5.5 -1 -9.5 q-43 -103 -99 -196 l0 -641 q0 -6 -2 -10.5 q-2 -4.5 -5 -8 q-3 -3.5 -7 -6 q-4 -2.5 -8.5 -2.5 q-4.5 0 -8.5 2.5 q-4 2.5 -7.5 6 q-3.5 3.5 -5 8 q-1.5 4.5 -1.5 9.5 l0 571 q-48 -69 -100 -125 q-4 -5 -9.5 -7.5 q-5.5 -2.5 -10.5 -2.5 q-5 0 -10 2.5 q-5 2.5 -8 6.5 l0 2 Z" /><glyph glyph-name="uni4F34" unicode="&#x4f34;" d="M843 569.5 q-1 4.5 -0.5 9.5 q0.5 5 3.5 10 q23 37 46.5 85.5 q23.5 48.5 41.5 88.5 q2 5 5.5 9.5 q3.5 4.5 8 6.5 q4.5 2 10 2.5 q5.5 0.5 9.5 -1.5 q4 -1 7 -5 q3 -4 4.5 -9 q1.5 -5 1.5 -10 q0 -5 -3 -10 q-21 -45 -46.5 -92.5 q-25.5 -47.5 -49.5 -86.5 q-4 -7 -12.5 -11 q-8.5 -4 -14.5 -1 q-5 3 -7.5 6.5 q-2.5 3.5 -3.5 8 ZM466 739 q-2 5 -2.5 10.5 q-0.5 5.5 1 10.5 q1.5 5 4.5 9 q3 4 7 6 q7 3 15 -1.5 q8 -4.5 12 -11.5 q26 -42 48 -89 q22 -47 35 -83 q2 -7 -1.5 -16 q-3.5 -9 -9.5 -12 q-5 -2 -10.5 -1.5 q-5.5 0.5 -10 3 q-4.5 2.5 -8.5 6.5 q-4 4 -6 10 q-13 35 -32.5 78 q-19.5 43 -41.5 81 ZM387 242 q0 4 2.5 8 q2.5 4 6 7.5 q3.5 3.5 8.5 5 q5 1.5 9 1.5 l279 0 l0 202 l-236 0 q-5 0 -10 2 q-5 2 -8.5 5 q-3.5 3 -5.5 7 q-2 4 -2 9 q0 4 2 8 q2 4 5.5 7.5 q3.5 3.5 8.5 5 q5 1.5 10 1.5 l236 0 l0 287 q0 5 1.5 9.5 q1.5 4.5 5 8 q3.5 3.5 8 5.5 q4.5 2 8.5 2 l1 0 q4 0 8 -2 q4 -2 7.5 -5.5 q3.5 -3.5 5 -8 q1.5 -4.5 1.5 -9.5 l0 -287 l250 0 q10 0 18 -7 q8 -7 8 -15 q0 -5 -2 -9 q-2 -4 -6 -7 q-4 -3 -8.5 -5 q-4.5 -2 -9.5 -2 l-250 0 l0 -202 l292 0 q5 0 9.5 -1.5 q4.5 -1.5 8 -5 q3.5 -3.5 6 -7.5 q2.5 -4 2.5 -8 q0 -5 -2.5 -8.5 q-2.5 -3.5 -6 -7 q-3.5 -3.5 -8 -5.5 q-4.5 -2 -9.5 -2 l-292 0 l0 -268 q0 -4 -1.5 -8.5 q-1.5 -4.5 -5 -8 q-3.5 -3.5 -7.5 -6 q-4 -2.5 -8 -2.5 l-1 0 q-4 0 -8.5 2.5 q-4.5 2.5 -8 6 q-3.5 3.5 -5 8 q-1.5 4.5 -1.5 8.5 l0 268 l-279 0 q-4 0 -9 2 q-5 2 -8.5 5.5 q-3.5 3.5 -6 7 q-2.5 3.5 -2.5 8.5 ZM138 404 q-5 7 -3.5 17.5 q1.5 10.5 7.5 17.5 q71 71 133.5 167.5 q62.5 96.5 106.5 202.5 q1 4 5 7 q4 3 8 5.5 q4 2.5 8.5 3.5 q4.5 1 7.5 -1 q5 -1 8 -4.5 q3 -3.5 5 -8 q2 -4.5 2.5 -10 q0.5 -5.5 -1.5 -9.5 q-42 -99 -98 -189 l0 -648 q0 -5 -1.5 -10 q-1.5 -5 -5 -8.5 q-3.5 -3.5 -7.5 -6 q-4 -2.5 -8.5 -2.5 q-4.5 0 -8.5 2.5 q-4 2.5 -7 6 q-3 3.5 -5 8.5 q-2 5 -2 9 l0 579 q-51 -72 -106 -131 q-4 -5 -9 -7 q-5 -2 -10.5 -1.5 q-5.5 0.5 -10.5 3 q-5 2.5 -8 6.5 l0 1 Z" /><glyph glyph-name="uni4F38" unicode="&#x4f38;" d="M748 464 l233 0 q3 0 6 -1 l0 163 q0 2 -2 4 q-2 2 -4 2 l-233 0 l0 -168 ZM748 248 l239 0 l0 172 l-239 0 l0 -172 ZM471 462 q4 2 8 2 l224 0 l0 168 l-226 0 q-2 0 -4 -2 q-2 -2 -2 -4 l0 -164 ZM471 246 l1 1 q5 1 10 1 l221 0 l0 172 l-224 0 q-4 0 -8 1 l0 -175 ZM427 177 l0 473 q0 4 2 9 q2 5 5.5 8.5 q3.5 3.5 8.5 6 q5 2.5 10 2.5 l250 0 l0 128 q0 4 1.5 8.5 q1.5 4.5 5 8 q3.5 3.5 7.5 6 q4 2.5 8.5 2.5 q4.5 0 8.5 -2.5 q4 -2.5 7.5 -6 q3.5 -3.5 5 -8 q1.5 -4.5 1.5 -8.5 l0 -128 l258 0 q5 0 10 -2.5 q5 -2.5 8.5 -6 q3.5 -3.5 5.5 -8.5 q2 -5 2 -9 l0 -467 q0 -5 -1.5 -10 q-1.5 -5 -4.5 -8.5 q-3 -3.5 -7 -5.5 q-4 -2 -8.5 -2 q-4.5 0 -9 2 q-4.5 2 -8 6 q-3.5 4 -5 8.5 q-1.5 4.5 -1.5 10.5 l0 21 q-2 -1 -3 -1 l-236 0 l0 -252 q0 -5 -1.5 -9.5 q-1.5 -4.5 -5 -8 q-3.5 -3.5 -7.5 -6 q-4 -2.5 -8.5 -2.5 q-4.5 0 -8.5 2.5 q-4 2.5 -7.5 6 q-3.5 3.5 -5 8 q-1.5 4.5 -1.5 9.5 l0 252 l-221 0 q-5 0 -10 2 l-1 1 l0 -31 q0 -4 -1.5 -8.5 q-1.5 -4.5 -4.5 -8.5 q-3 -4 -7 -6 q-4 -2 -8.5 -2 q-4.5 0 -8.5 2 q-4 2 -7.5 6 q-3.5 4 -5 9 q-1.5 5 -1.5 9 ZM134 401 q-5 7 -3.5 17.5 q1.5 10.5 8.5 17.5 q69 72 130 169 q61 97 103 203 q2 5 5.5 8 q3.5 3 7.5 5 q4 2 8.5 3 q4.5 1 8.5 0 q4 -1 7.5 -4.5 q3.5 -3.5 5.5 -8 q2 -4.5 2 -10 q0 -5.5 -1 -9.5 q-43 -102 -98 -195 l0 -642 q0 -6 -2 -10.5 q-2 -4.5 -5 -8 q-3 -3.5 -7 -6 q-4 -2.5 -8.5 -2.5 q-4.5 0 -8.5 2.5 q-4 2.5 -7.5 6 q-3.5 3.5 -5 8 q-1.5 4.5 -1.5 9.5 l0 573 q-48 -70 -101 -127 q-4 -5 -9.5 -7.5 q-5.5 -2.5 -10.5 -2.5 q-5 0 -9.5 2.5 q-4.5 2.5 -7.5 6.5 l-1 1 l0 1 Z" /><glyph glyph-name="uni4F3C" unicode="&#x4f3c;" d="M646 -50 q-8 8 -6.5 20 q1.5 12 11.5 20 q75 59 122 136.5 q47 77.5 75 176 q28 98.5 41 218 q13 119.5 18 261.5 q0 5 3 9.5 q3 4.5 6 7.5 q3 3 7.5 5.5 q4.5 2.5 8.5 2.5 q5 0 9.5 -3 q4.5 -3 7.5 -6.5 q3 -3.5 4.5 -8 q1.5 -4.5 1.5 -9.5 q-6 -149 -21 -273 q-11 -100 -33 -186 q7 -4 11 -11 q21 -38 41.5 -79.5 q20.5 -41.5 39 -81.5 q18.5 -40 34.5 -77.5 q16 -37.5 26 -67.5 q3 -7 -0.5 -16 q-3.5 -9 -10.5 -13 q-5 -2 -10.5 -2 q-5.5 0 -10.5 2 q-5 2 -9 6.5 q-4 4.5 -6 10.5 q-11 30 -26 67 q-15 37 -33 76 q-18 39 -37 79 q-12 26 -24 50 q-29 -92 -75 -167 q-50 -82 -127 -147 q-4 -3 -9 -4.5 q-5 -1.5 -10.5 -2 q-5.5 -0.5 -10.5 1.5 q-5 2 -8 5 ZM605 700 q-3 5 -3 10.5 q0 5.5 1 10.5 q1 5 4 8.5 q3 3.5 7 4.5 q4 2 7.5 1.5 q3.5 -0.5 7.5 -2.5 q4 -2 7.5 -5 q3.5 -3 5.5 -7 q18 -32 36.5 -67 q18.5 -35 34 -69.5 q15.5 -34.5 28.5 -67.5 q13 -33 21 -61 q3 -7 -1 -16 q-4 -9 -11 -12 q-5 -2 -10 -1.5 q-5 0.5 -9.5 3 q-4.5 2.5 -8 7 q-3.5 4.5 -5.5 9.5 q-8 27 -20 58.5 q-12 31.5 -26.5 64.5 q-14.5 33 -31 66.5 q-16.5 33.5 -34.5 64.5 ZM452 60 q-2 3 -2.5 8 q-0.5 5 0 10.5 q0.5 5.5 2 11 q1.5 5.5 4.5 10.5 q2 5 4.5 8 q2.5 3 4.5 8.5 q2 5.5 3 14.5 q1 9 1 25 l0 584 q0 4 1.5 9 q1.5 5 5.5 8.5 q4 3.5 8 6 q4 2.5 8.5 2.5 q4.5 0 8.5 -2.5 q4 -2.5 7 -6 q3 -3.5 4.5 -8.5 q1.5 -5 1.5 -9 l0 -604 l176 121 q5 4 11 5 q6 1 11 0 q5 -1 8.5 -5 q3.5 -4 5.5 -9 q1 -6 -2 -13.5 q-3 -7.5 -9 -11.5 q-49 -36 -85.5 -62 q-36.5 -26 -62 -44.5 q-25.5 -18.5 -41.5 -30.5 q-16 -12 -26 -20 q-7 -5 -13 -7 q-3 -1 -6 -1 q0 -1 -1 -1 q-4 -3 -9.5 -3.5 q-5.5 -0.5 -10.5 1 q-5 1.5 -8 5.5 ZM133 390 q-4 6 -3.5 16 q0.5 10 6.5 16 q61 74 114 173.5 q53 99.5 90 208.5 q1 4 4.5 8 q3.5 4 7 6 q3.5 2 8 3.5 q4.5 1.5 8.5 -0.5 q5 0 8 -3 q3 -3 5 -7.5 q2 -4.5 2.5 -10 q0.5 -5.5 -1.5 -10.5 q-31 -90 -71 -174 l0 -664 q0 -5 -2 -10 q-2 -5 -5 -8.5 q-3 -3.5 -7 -5.5 q-4 -2 -8.5 -2 q-4.5 0 -8.5 2 q-4 2 -7.5 5.5 q-3.5 3.5 -5 8.5 q-1.5 5 -1.5 10 l0 579 q-45 -78 -94 -141 q-4 -5 -9.5 -7.5 q-5.5 -2.5 -10.5 -3 q-5 -0.5 -10 2 q-5 2.5 -8 6.5 l0 2 l-1 0 Z" /><glyph glyph-name="uni4F46" unicode="&#x4f46;" d="M543 491 q0 -2 2 -4 q2 -2 4 -2 l366 0 q2 0 4 2 q2 2 2 4 l0 216 q0 2 -2 4 q-2 2 -4 2 l-366 0 q-2 0 -4 -2 q-2 -2 -2 -4 l0 -216 ZM543 214 q0 -2 2 -4 q2 -2 4 -2 l366 0 q2 0 4 2 q2 2 2 4 l0 220 q0 2 -2 4 q-2 2 -4 2 l-366 0 q-2 0 -4 -2 q-2 -2 -2 -4 l0 -220 ZM495 190 l0 542 q0 5 2.5 10 q2.5 5 6 8.5 q3.5 3.5 8.5 5.5 q5 2 9 2 l423 0 q5 0 9.5 -2 q4.5 -2 8.5 -5.5 q4 -3.5 6 -8.5 q2 -5 2 -10 l0 -542 q0 -5 -2 -10 q-2 -5 -6 -8.5 q-4 -3.5 -8.5 -5.5 q-4.5 -2 -9.5 -2 l-423 0 q-4 0 -9 2 q-5 2 -8.5 5.5 q-3.5 3.5 -6 8.5 q-2.5 5 -2.5 10 ZM402 -6 q0 4 2 8 q2 4 5.5 7 q3.5 3 8.5 4.5 q5 1.5 9 1.5 l610 0 q5 0 10 -1.5 q5 -1.5 8.5 -4.5 q3.5 -3 5.5 -7 q2 -4 2 -8 q0 -5 -2 -9 q-2 -4 -5.5 -7.5 q-3.5 -3.5 -8.5 -5 q-5 -1.5 -10 -1.5 l-610 0 q-4 0 -9 1.5 q-5 1.5 -8.5 5 q-3.5 3.5 -5.5 7.5 q-2 4 -2 9 ZM147 400 q-6 8 -4 18.5 q2 10.5 8 17.5 q70 72 131 169 q61 97 104 203 q2 5 5 8 q3 3 7.5 5 q4.5 2 8.5 3 q4 1 9 0 q5 -2 8 -5 q3 -3 5 -7.5 q2 -4.5 2.5 -10 q0.5 -5.5 -2.5 -10.5 q-42 -101 -97 -194 l0 -642 q0 -6 -2 -10.5 q-2 -4.5 -5.5 -8 q-3.5 -3.5 -7.5 -6 q-4 -2.5 -9 -2.5 q-4 0 -8 2.5 q-4 2.5 -7.5 6 q-3.5 3.5 -5.5 8 q-2 4.5 -2 9.5 l0 570 q-47 -69 -100 -125 q-4 -5 -9.5 -7 q-5.5 -2 -10.5 -2.5 q-5 -0.5 -9.5 2 q-4.5 2.5 -7.5 7.5 l-1 1 Z" /><glyph glyph-name="uni4F4D" unicode="&#x4f4d;" d="M690 798 q-1 5 -1.5 10 q-0.5 5 1.5 9.5 q2 4.5 5.5 8 q3.5 3.5 8.5 5.5 q8 2 16.5 -3.5 q8.5 -5.5 11.5 -14.5 q11 -28 20.5 -57.5 q9.5 -29.5 16.5 -54.5 q1 -4 0.5 -8.5 q-0.5 -4.5 -2.5 -8.5 q-2 -4 -5.5 -7 q-3.5 -3 -6.5 -5 q-5 -1 -10 0 q-5 1 -9.5 3.5 q-4.5 2.5 -8 7 q-3.5 4.5 -4.5 8.5 q-6 25 -14.5 53 q-8.5 28 -18.5 54 ZM548 485 q-1 5 0 10 q1 5 3.5 9 q2.5 4 5.5 7 q3 3 7 3 q5 2 9 0.5 q4 -1.5 8 -5 q4 -3.5 6.5 -7.5 q2.5 -4 4.5 -9 q11 -49 21.5 -101.5 q10.5 -52.5 20 -103.5 q9.5 -51 16.5 -97.5 q7 -46.5 11 -83.5 q2 -8 -3 -16 q-5 -8 -12 -10 l-1 0 q-6 -2 -11 -1 q-5 1 -9.5 4 q-4.5 3 -7.5 8 q-3 5 -3 11 q-4 37 -11 84 q-7 47 -15.5 97 q-8.5 50 -18.5 102 q-10 52 -21 99 ZM473 621 q0 5 2 9 q2 4 5.5 7 q3.5 3 8.5 5 q5 2 10 2 l483 0 q5 0 10 -2 q5 -2 8.5 -5 q3.5 -3 5.5 -7 q2 -4 2 -8.5 q0 -4.5 -2 -8.5 q-2 -4 -5.5 -7.5 q-3.5 -3.5 -8.5 -5.5 q-5 -2 -10 -2 l-483 0 q-5 0 -10 2 q-5 2 -8.5 5.5 q-3.5 3.5 -5.5 7.5 q-2 4 -2 8 ZM428 -17 q-2 4 -2 8.5 q0 4.5 2 8.5 q2 4 6 7.5 q4 3.5 8 5 q4 1.5 9 1.5 l334 0 l-2 8 q0 5 1 10 q13 48 27 107.5 q14 59.5 26.5 122 q12.5 62.5 24 124.5 q11.5 62 19.5 116 q1 6 4 10.5 q3 4.5 7 7.5 q4 3 9 4.5 q5 1.5 9 0.5 l1 -1 q5 0 8 -3 q3 -3 6 -7 q3 -4 4 -9 q1 -5 1 -10 q-10 -56 -22.5 -118.5 q-12.5 -62.5 -26 -125.5 q-13.5 -63 -27.5 -122.5 q-14 -59.5 -28 -108.5 q0 -3 -2 -6 l205 0 q4 0 8.5 -1.5 q4.5 -1.5 8 -5 q3.5 -3.5 6 -7.5 q2.5 -4 2.5 -8.5 q0 -4.5 -2.5 -8.5 q-2.5 -4 -6 -7.5 q-3.5 -3.5 -8 -5 q-4.5 -1.5 -8.5 -1.5 l-578 0 q-5 0 -9 1.5 q-4 1.5 -8 5 q-4 3.5 -6 7.5 ZM157 401 q-6 7 -4.5 17.5 q1.5 10.5 8.5 17.5 q69 72 130 169 q61 97 104 203 q1 5 4.5 8 q3.5 3 8 5 q4.5 2 8.5 3 q4 1 8 0 q5 -1 8 -4.5 q3 -3.5 5 -8 q2 -4.5 2.5 -10 q0.5 -5.5 -2.5 -9.5 q-42 -102 -97 -195 l0 -642 q0 -6 -2 -10.5 q-2 -4.5 -5 -8 q-3 -3.5 -7 -6 q-4 -2.5 -8 -2.5 l-1 0 q-5 0 -9 2.5 q-4 2.5 -7.5 6 q-3.5 3.5 -5 8 q-1.5 4.5 -1.5 9.5 l0 571 q-47 -69 -99 -125 q-5 -5 -10 -7.5 q-5 -2.5 -10 -2.5 q-5 0 -10 2.5 q-5 2.5 -8 6.5 l0 2 Z" /><glyph glyph-name="uni4F4E" unicode="&#x4f4e;" d="M699 99 q-2 6 -3 11.5 q-1 5.5 0.5 9.5 q1.5 4 4 7.5 q2.5 3.5 6.5 5.5 q5 2 13 -2 q8 -4 11 -11 q22 -33 42 -70.5 q20 -37.5 33 -67.5 q3 -9 0 -18.5 q-3 -9.5 -10 -11.5 q-4 -2 -8 -1 q-4 1 -8.5 3 q-4.5 2 -7.5 6.5 q-3 4.5 -5 9.5 q-12 28 -30 62.5 q-18 34.5 -38 66.5 ZM526 440 q4 2 8 2 l240 0 q-13 136 -20 287 l0 2 q-2 0 -5 -1 q-56 -12 -114 -22 q-55 -10 -109 -18 l0 -250 ZM451 -55 q-2 4 -1.5 9 q0.5 5 2.5 10.5 q2 5.5 5 10.5 q3 5 5 9 q4 2 7.5 3.5 q3.5 1.5 6 5 q2.5 3.5 4 10 q1.5 6.5 1.5 20.5 l0 669 q0 6 2.5 11 q2.5 5 6.5 9 l2 2 q2 2 4 5 q8 8 21 11 q58 9 116 20 q58 11 113 23 q55 12 103.5 25.5 q48.5 13.5 85.5 25.5 q4 3 11 1.5 q7 -1.5 10 -4.5 l4 -3 q5 -4 7.5 -10 q2.5 -6 1.5 -11.5 q-1 -5.5 -5 -9.5 q-4 -4 -11 -6 q-44 -14 -96 -27 q-29 -7 -60 -14 l0 -1 q2 -4 2 -9 q6 -152 20 -286 l0 -2 l204 0 q4 0 8.5 -2 q4.5 -2 8.5 -5 q4 -3 6 -7 q2 -4 2 -8 q0 -5 -2 -9 q-2 -4 -6 -7.5 q-4 -3.5 -8.5 -5 q-4.5 -1.5 -8.5 -1.5 l-199 0 q12 -105 30 -188 q22 -99 52.5 -158 q30.5 -59 69.5 -61 l1 0 q14 0 23.5 30.5 q9.5 30.5 15.5 88.5 q4 5 7.5 10 q3.5 5 7 8 q3.5 3 7.5 5 q4 2 9 0 q5 -3 7.5 -10.5 q2.5 -7.5 1.5 -15.5 q-7 -49 -14.5 -81.5 q-7.5 -32.5 -17 -52.5 q-9.5 -20 -21.5 -28.5 q-12 -8.5 -26 -8.5 q-56 2 -95.5 65.5 q-39.5 63.5 -65.5 171.5 q-23 98 -37 225 l-245 0 q-4 0 -8 1 l0 -403 l133 36 q5 1 11 0.5 q6 -0.5 10.5 -3 q4.5 -2.5 7.5 -6 q3 -3.5 3 -7.5 q0 -6 -6 -13 q-6 -7 -15 -10 q-77 -23 -115.5 -35 q-38.5 -12 -57.5 -18 q-7 -3 -14 -3 q-5 0 -10 1 l-7 0 q-10 1 -15 8 ZM136 397 q-5 7 -3.5 17 q1.5 10 7.5 18 q70 72 130.5 170 q60.5 98 102.5 206 q1 4 4.5 7.5 q3.5 3.5 7.5 5.5 q4 2 9 3.5 q5 1.5 8 -0.5 q5 -1 8 -4.5 q3 -3.5 5.5 -7.5 q2.5 -4 2.5 -9.5 q0 -5.5 -2 -10.5 q-41 -101 -96 -194 l0 -643 q0 -6 -1.5 -10.5 q-1.5 -4.5 -4.5 -8 q-3 -3.5 -7 -6 q-4 -2.5 -8.5 -2.5 q-4.5 0 -8.5 2.5 q-4 2.5 -7.5 6 q-3.5 3.5 -5.5 8 q-2 4.5 -2 9.5 l0 572 q-48 -72 -101 -130 q-4 -5 -9.5 -7.5 q-5.5 -2.5 -10.5 -2.5 q-5 0 -9.5 2.5 q-4.5 2.5 -7.5 6.5 l-1 1 l0 1 Z" /><glyph glyph-name="uni4F4F" unicode="&#x4f4f;" d="M666 794 q-4 5 -4.5 11 q-0.5 6 0.5 11 q1 5 4.5 9 q3.5 4 8.5 6 q3 1 7 1 q4 0 7.5 -1.5 q3.5 -1.5 7 -4 q3.5 -2.5 5.5 -5.5 q22 -31 41.5 -65.5 q19.5 -34.5 32.5 -62.5 q2 -4 1.5 -8.5 q-0.5 -4.5 -1.5 -9 q-1 -4.5 -4.5 -8 q-3.5 -3.5 -6.5 -4.5 q-5 -3 -10.5 -2.5 q-5.5 0.5 -10.5 2.5 q-5 2 -8.5 6.5 q-3.5 4.5 -6.5 9.5 q-11 25 -28 56 q-17 31 -35 59 ZM409 -23 q-2 4 -2 8.5 q0 4.5 2 8.5 q2 4 6 7 q4 3 8.5 4.5 q4.5 1.5 9.5 1.5 l280 0 l0 287 l-217 0 q-5 0 -10 2 q-5 2 -8.5 5.5 q-3.5 3.5 -6 7.5 q-2.5 4 -2.5 8.5 q0 4.5 2.5 8.5 q2.5 4 6 7 q3.5 3 8.5 4.5 q5 1.5 10 1.5 l217 0 l0 249 l-251 0 q-6 0 -11 2 q-5 2 -8.5 5.5 q-3.5 3.5 -5.5 7.5 q-2 4 -2 8 q0 5 2 9 q2 4 5.5 7 q3.5 3 8.5 4.5 q5 1.5 11 1.5 l552 0 q6 0 10.5 -1.5 q4.5 -1.5 8.5 -4.5 q4 -3 6 -7 q2 -4 2 -8.5 q0 -4.5 -2 -8.5 q-2 -4 -6 -7.5 q-4 -3.5 -8.5 -5.5 q-4.5 -2 -10.5 -2 l-255 0 l0 -249 l225 0 q5 0 10 -1.5 q5 -1.5 8.5 -4.5 q3.5 -3 6 -7 q2.5 -4 2.5 -8.5 q0 -4.5 -2.5 -8.5 q-2.5 -4 -6 -7.5 q-3.5 -3.5 -8.5 -5.5 q-5 -2 -10 -2 l-225 0 l0 -287 l271 0 q5 0 9.5 -1.5 q4.5 -1.5 8.5 -4.5 q4 -3 6 -7 q2 -4 2 -8.5 q0 -4.5 -2 -8.5 q-2 -4 -6 -7.5 q-4 -3.5 -8.5 -5.5 q-4.5 -2 -9.5 -2 l-597 0 q-5 0 -9.5 2 q-4.5 2 -8.5 5.5 q-4 3.5 -6 7.5 ZM159 400 q-6 8 -4 18.5 q2 10.5 8 17.5 q70 72 131 169 q61 97 103 203 q2 5 5.5 8 q3.5 3 7.5 5 q4 2 8.5 3 q4.5 1 8.5 0 q5 -2 8.5 -5 q3.5 -3 5 -7.5 q1.5 -4.5 1.5 -10 q0 -5.5 -1 -10.5 q-42 -101 -98 -194 l0 -642 q0 -6 -1.5 -10.5 q-1.5 -4.5 -5 -8 q-3.5 -3.5 -7.5 -6 q-4 -2.5 -9 -2.5 q-5 0 -9 2.5 q-4 2.5 -7 6 q-3 3.5 -5.5 8 q-2.5 4.5 -2.5 9.5 l0 569 q-47 -68 -98 -124 q-5 -5 -10 -7 q-5 -2 -10.5 -2 q-5.5 0 -10 2 q-4.5 2 -7.5 7 l0 1 l-1 0 Z" /><glyph glyph-name="uni4F53" unicode="&#x4f53;" d="M374 122.5 q-1 5.5 -0.5 10.5 q0.5 5 3.5 10.5 q3 5.5 7 9.5 q40 34 78.5 81 q38.5 47 73.5 102 q35 55 65 115 q29 60 52 121 l-238 0 q-4 0 -9 2 q-5 2 -8.5 5 q-3.5 3 -6 7 q-2.5 4 -2.5 8.5 q0 4.5 2.5 8.5 q2.5 4 6 7.5 q3.5 3.5 8.5 5 q5 1.5 9 1.5 l275 0 l0 190 q0 4 1.5 8.5 q1.5 4.5 5 8.5 q3.5 4 7.5 6 q4 2 9 2 q4 0 8 -2 q4 -2 7.5 -6 q3.5 -4 5 -8.5 q1.5 -4.5 1.5 -8.5 l0 -190 l288 0 q5 0 10 -1.5 q5 -1.5 8.5 -5 q3.5 -3.5 5.5 -7.5 q2 -4 2 -8.5 q0 -4.5 -2 -8.5 q-2 -4 -5.5 -7 q-3.5 -3 -8.5 -5 q-5 -2 -10 -2 l-247 0 q21 -61 50 -121 q29 -60 63 -114 q34 -54 72 -100.5 q38 -46.5 78 -79.5 q5 -4 7.5 -9.5 q2.5 -5.5 3 -11 q0.5 -5.5 -1 -11 q-1.5 -5.5 -5.5 -9.5 q-4 -3 -8.5 -4.5 q-4.5 -1.5 -9.5 -1.5 q-5 0 -9.5 2 q-4.5 2 -7.5 6 q-40 36 -79.5 85 q-39.5 49 -74.5 106.5 q-35 57.5 -65 121.5 q-30 64 -52 129 q-2 6 -2 12 l0 -405 l153 0 q5 0 9.5 -1.5 q4.5 -1.5 8.5 -5 q4 -3.5 6 -7 q2 -3.5 2 -8 q0 -4.5 -2 -8.5 q-2 -4 -6 -7 q-4 -3 -8.5 -5 q-4.5 -2 -9.5 -2 l-153 0 l0 -167 q0 -5 -1.5 -9.5 q-1.5 -4.5 -5 -8 q-3.5 -3.5 -7.5 -5.5 q-4 -2 -8 -2 q-5 0 -9 2 q-4 2 -7.5 5.5 q-3.5 3.5 -5 8 q-1.5 4.5 -1.5 9.5 l0 167 l-160 0 q-5 0 -9.5 2 q-4.5 2 -8.5 5 q-4 3 -6 7 q-2 4 -2 8.5 q0 4.5 2 8 q2 3.5 6 7 q4 3.5 8.5 5 q4.5 1.5 9.5 1.5 l160 0 l0 394 q-23 -65 -53 -128 q-31 -63 -66.5 -121 q-35.5 -58 -75 -107.5 q-39.5 -49.5 -80.5 -87.5 q-3 -4 -8.5 -6 q-5.5 -2 -11 -2.5 q-5.5 -0.5 -10 1 q-4.5 1.5 -7.5 4.5 q-3 3 -4 8.5 ZM155 401 q-6 7 -5 17.5 q1 10.5 7 17.5 q62 72 115 169.5 q53 97.5 89 202.5 q2 4 5 7.5 q3 3.5 7 6 q4 2.5 8.5 3 q4.5 0.5 8.5 0.5 q4 -2 7.5 -5 q3.5 -3 5.5 -7.5 q2 -4.5 2.5 -10 q0.5 -5.5 -1.5 -9.5 q-37 -103 -86 -198 l0 -640 q0 -6 -2 -10.5 q-2 -4.5 -5 -8 q-3 -3.5 -7 -6 q-4 -2.5 -8.5 -2.5 q-4.5 0 -8.5 2.5 q-4 2.5 -7.5 6 q-3.5 3.5 -5 8 q-1.5 4.5 -1.5 9.5 l0 562 q-38 -63 -80 -115 q-4 -5 -9 -7.5 q-5 -2.5 -10 -3 q-5 -0.5 -10 2 q-5 2.5 -8 6.5 q0 1 -0.5 1 q-0.5 0 -0.5 1 Z" /><glyph glyph-name="uni4F55" unicode="&#x4f55;" d="M517 232 l206 0 q2 0 4 2 q2 2 2 4 l0 235 q0 2 -2 4 q-2 2 -4 2 l-206 0 l0 -247 ZM473 143 l0 353 q0 6 1.5 10.5 q1.5 4.5 5 8.5 q3.5 4 7.5 6 q4 2 8.5 2 q4.5 0 8.5 -2 q1 -1 3 -2 l4 2 q5 2 9 2 l229 0 q5 0 9.5 -2 q4.5 -2 8 -6 q3.5 -4 5.5 -8.5 q2 -4.5 2 -9.5 l0 -283 q0 -4 -2 -9 q-2 -5 -5.5 -8.5 q-3.5 -3.5 -8 -6 q-4.5 -2.5 -9.5 -2.5 l-232 0 l0 -45 q0 -6 -1.5 -11 q-1.5 -5 -4.5 -8.5 q-3 -3.5 -7 -5.5 q-4 -2 -8.5 -2 q-4.5 0 -8.5 2 q-4 2 -7.5 5.5 q-3.5 3.5 -5 8.5 q-1.5 5 -1.5 11 ZM432 708 q0 4 2.5 8 q2.5 4 6 7 q3.5 3 8 5 q4.5 2 8.5 2 l576 0 q4 0 8.5 -2 q4.5 -2 8.5 -5 q4 -3 6 -7 q2 -4 2 -8.5 q0 -4.5 -2 -8.5 q-2 -4 -6 -7.5 q-4 -3.5 -8.5 -5 q-4.5 -1.5 -8.5 -1.5 l-57 0 l0 -679 q0 -34 -10 -48.5 q-10 -14.5 -35 -20.5 q-23 -6 -66.5 -7 q-43.5 -1 -111.5 -1 q-8 -1 -15.5 5 q-7.5 6 -10.5 12 q-1 6 -0.5 12 q0.5 6 4.5 10 q4 4 9.5 6.5 q5.5 2.5 12.5 2.5 q43 -2 76 -2 q8 0 31.5 0.5 q23.5 0.5 41.5 2.5 q17 1 22.5 6 q5.5 5 5.5 21 l0 680 l-473 0 q-4 0 -8.5 1.5 q-4.5 1.5 -8 5 q-3.5 3.5 -6 7.5 q-2.5 4 -2.5 9 ZM159 406 q-5 7 -4 17.5 q1 10.5 7 17.5 q63 72 116.5 168.5 q53.5 96.5 91.5 199.5 q2 5 5 8.5 q3 3.5 7 5.5 q4 2 8.5 2.5 q4.5 0.5 8.5 0.5 q4 -2 8 -5.5 q4 -3.5 5.5 -8 q1.5 -4.5 2 -10 q0.5 -5.5 -1.5 -9.5 q-37 -98 -85 -187 l0 -652 q0 -6 -1.5 -11 q-1.5 -5 -5 -8.5 q-3.5 -3.5 -7.5 -5.5 q-4 -2 -9 -2 q-5 0 -9 2 q-4 2 -7 5.5 q-3 3.5 -5 8.5 q-2 5 -2 10 l0 571 q-40 -64 -84 -118 q-5 -5 -10 -7.5 q-5 -2.5 -10.5 -3 q-5.5 -0.5 -10.5 2 q-5 2.5 -8 6.5 l0 2 Z" /><glyph glyph-name="uni4F59" unicode="&#x4f59;" d="M777.5 174 q-2.5 5 -3 10.5 q-0.5 5.5 1.5 10.5 q2 5 6 8 q5 3 13 2 q8 -1 14 -5 q26 -21 53 -44 q27 -23 52 -46 q25 -23 48 -46 q23 -23 40 -43 q3 -3 4.5 -8 q1.5 -5 1 -9.5 q-0.5 -4.5 -2.5 -9 q-2 -4.5 -6 -7.5 l-1 -1 q-3 -2 -8 -3 q-5 -1 -9.5 0 q-4.5 1 -9.5 3 q-5 2 -8 6 q-16 20 -36.5 41.5 q-20.5 21.5 -44 44.5 q-23.5 23 -48.5 45 q-25 22 -50 42 q-4 4 -6.5 9 ZM192 301 q-2 4 -2 8.5 q0 4.5 2 8 q2 3.5 5.5 6.5 q3.5 3 8.5 5 q5 2 9 2 l367 0 l0 148 q0 1 1 2 l-218 0 q-4 0 -9 2 q-5 2 -8.5 5.5 q-3.5 3.5 -5.5 7 q-2 3.5 -2 8.5 q0 4 2 8 q2 4 5.5 7.5 q3.5 3.5 8.5 5 q5 1.5 9 1.5 l473 0 q4 0 9 -1.5 q5 -1.5 8.5 -5 q3.5 -3.5 6 -7.5 q2.5 -4 2.5 -8.5 q0 -4.5 -2.5 -8 q-2.5 -3.5 -6 -7 q-3.5 -3.5 -8.5 -5.5 q-5 -2 -9 -2 l-207 0 l0 -150 l361 0 q4 0 9 -2 q5 -2 8.5 -5 q3.5 -3 6 -6.5 q2.5 -3.5 2.5 -8 q0 -4.5 -2.5 -8.5 q-2.5 -4 -6 -7.5 q-3.5 -3.5 -8.5 -5.5 q-5 -2 -9 -2 l-361 0 l0 -294 q0 -26 -8.5 -38.5 q-8.5 -12.5 -27.5 -19.5 q-18 -5 -43.5 -6 q-25.5 -1 -52.5 -1 q-18 0 -40 0 q-8 0 -15.5 4.5 q-7.5 4.5 -9.5 9.5 q-5 12 2.5 21 q7.5 9 21.5 8 q26 -1 46 -1 q10 0 27 0.5 q17 0.5 30 1.5 q12 1 16.5 5 q4.5 4 4.5 16 l0 294 l-367 0 q-4 0 -9 2 q-5 2 -8.5 5.5 q-3.5 3.5 -5.5 7.5 ZM190 -21 q-9 8 -7 20 q2 12 14 21 q50 35 97.5 79.5 q47.5 44.5 83.5 92.5 q5 6 13 9 q8 3 15 0 q5 -2 8.5 -6 q3.5 -4 5 -9 q1.5 -5 0 -10.5 q-1.5 -5.5 -5.5 -11.5 q-42 -51 -93 -99 q-51 -48 -101 -85 q-7 -5 -16 -4.5 q-9 0.5 -14 3.5 ZM155 460 q-5 4 -5.5 9.5 q-0.5 5.5 1.5 11 q2 5.5 6.5 10 q4.5 4.5 10.5 7.5 q60 29 120 66.5 q60 37.5 115 80 q55 42.5 104 89 q49 46.5 87 93.5 q6 6 14.5 8 q8.5 2 14.5 -1 q4 -2 6.5 -6 q2.5 -4 2.5 -9.5 q0 -5.5 -1 -10.5 q-1 -4 -5 -8 q5 -3 9 -7 q74 -90 174 -157.5 q100 -67.5 227 -123.5 q12 -6 16 -16.5 q4 -10.5 -3 -20.5 q-5 -5 -14.5 -7 q-9.5 -2 -17.5 1 q-129 60 -230.5 130.5 q-101.5 70.5 -179.5 164.5 q-4 3 -5 7 q-31 -36 -69 -71 q-51 -48 -108 -92.5 q-57 -44.5 -118.5 -83.5 q-61.5 -39 -121.5 -69 q-8 -4 -17 -2.5 q-9 1.5 -13 7.5 Z" /><glyph glyph-name="uni4F5B" unicode="&#x4f5b;" d="M822 487 l136 0 q2 0 4 1.5 q2 1.5 2 4.5 l0 145 q0 2 -2 3.5 q-2 1.5 -5 1.5 l-135 0 l0 -156 ZM634 487 l144 0 l0 156 l-144 0 l0 -156 ZM630 287 l148 0 l0 158 l-144 0 l0 -56 q0 -52 -4 -102 ZM440 287 l146 0 q4 49 4 102 l0 56 l-110 0 q-4 0 -9 1 l-1 1 q-7 -44 -16 -90 q-7 -38 -14 -70 ZM393 -63 q-7 7 -3.5 19 q3.5 12 14.5 20 q62 40 98.5 86 q36.5 46 55.5 97 q16 41 23 85 l-142 0 q-6 0 -11 3 q-2 0 -4 1 q-5 -4 -10 -4 q-5 0 -9.5 3 q-4.5 3 -7.5 7.5 q-3 4.5 -4.5 9.5 q-1.5 5 0.5 11 q10 41 19.5 92.5 q9.5 51.5 16.5 96.5 q2 9 8.5 16 q6.5 7 13.5 7 q5 0 9 -2 q2 -2 4 -3 q7 5 17 5 l109 0 l0 156 l-153 0 q-5 0 -9.5 1.5 q-4.5 1.5 -8.5 5 q-4 3.5 -6 7.5 q-2 4 -2 8 q0 7 8 14 q8 7 19 7 l152 0 l0 111 q0 5 2 10 q2 5 5 8.5 q3 3.5 6.5 5.5 q3.5 2 8.5 2 q8 0 15 -8 q7 -8 7 -18 l0 -111 l144 0 l0 112 q0 5 2 9.5 q2 4.5 5 8 q3 3.5 6.5 5.5 q3.5 2 8 2 q4.5 0 8.5 -2 q4 -2 7 -5.5 q3 -3.5 5 -8 q2 -4.5 2 -9.5 l0 -112 l160 0 q5 0 10 -2.5 q5 -2.5 8.5 -6 q3.5 -3.5 5.5 -8.5 q2 -5 2 -9 l0 -189 q0 -5 -2 -10 q-2 -5 -5.5 -8.5 q-3.5 -3.5 -8 -5.5 q-4.5 -2 -9.5 -2 l-161 0 l0 -158 l194 0 q8 0 16 -6 q3 -4 5 -8 q2 -3 2 -7 q0 -3 -1 -6 q-2 -51 -5 -89 q-2 -39 -5 -66 q-3 -27 -7 -43.5 q-4 -16.5 -10 -25.5 q-1 -1 -3 -3.5 q-2 -2.5 -4 -3.5 q-8 -7 -16.5 -10.5 q-8.5 -3.5 -25.5 -4.5 l-29 0 q-19 0 -40 1 q-8 0 -15.5 5 q-7.5 5 -8.5 10 q-3 11 3 18.5 q6 7.5 17 6.5 q20 -2 33 -2 l23 0 q10 0 15.5 1 q5.5 1 10.5 7 q5 5 8.5 19 q3.5 14 6.5 39.5 q3 25.5 5 64.5 q2 26 3 60 l-172 0 l0 -293 q0 -4 -2 -8.5 q-2 -4.5 -5 -8 q-3 -3.5 -7 -6 q-4 -2.5 -8.5 -2.5 q-4.5 0 -8 2.5 q-3.5 2.5 -6.5 6 q-3 3.5 -5 8 q-2 4.5 -2 8.5 l0 293 l-153 0 q-7 -56 -28 -108 q-23 -58 -65 -108.5 q-42 -50.5 -112 -93.5 q-6 -3 -14 -2.5 q-8 0.5 -13 5.5 ZM134 401 q-5 7 -3.5 17.5 q1.5 10.5 8.5 17.5 q69 72 130 169 q61 97 103 203 q2 5 5.5 8 q3.5 3 7.5 5 q4 2 8.5 3 q4.5 1 8.5 0 q4 -1 7.5 -4.5 q3.5 -3.5 5.5 -8 q2 -4.5 2 -10 q0 -5.5 -1 -9.5 q-43 -102 -98 -195 l0 -642 q0 -6 -2 -10.5 q-2 -4.5 -5 -8 q-3 -3.5 -7 -6 q-4 -2.5 -8.5 -2.5 q-4.5 0 -8.5 2.5 q-4 2.5 -7.5 6 q-3.5 3.5 -5 8 q-1.5 4.5 -1.5 9.5 l0 573 q-48 -70 -101 -127 q-4 -5 -9.5 -7.5 q-5.5 -2.5 -10.5 -2.5 q-5 0 -9.5 2.5 q-4.5 2.5 -7.5 6.5 l-1 1 l0 1 Z" /><glyph glyph-name="uni4F5C" unicode="&#x4f5c;" d="M420.5 422.5 q-1.5 4.5 -1.5 10 q0 5.5 2 11 q2 5.5 6 9.5 q59 67 110 157 q51 90 87 187 q1 5 4.5 8.5 q3.5 3.5 7.5 6 q4 2.5 8.5 3.5 q4.5 1 8.5 0 q5 -1 8.5 -4 q3.5 -3 5.5 -7.5 q2 -4.5 2.5 -10 q0.5 -5.5 -1.5 -10.5 q-24 -61 -52 -119 l413 0 q5 0 9.5 -1.5 q4.5 -1.5 8.5 -5 q4 -3.5 6 -7.5 q2 -4 2 -8.5 q0 -4.5 -2 -8.5 q-2 -4 -6 -7 q-4 -3 -8.5 -5.5 q-4.5 -2.5 -10.5 -2.5 l-299 0 l0 -169 l279 0 q5 0 9.5 -1.5 q4.5 -1.5 8.5 -4.5 q4 -3 6 -7 q2 -4 2 -8.5 q0 -4.5 -2 -8.5 q-2 -4 -6 -7.5 q-4 -3.5 -8.5 -5 q-4.5 -1.5 -9.5 -1.5 l-279 0 l0 -176 l292 0 q5 0 10 -2 q5 -2 8.5 -5.5 q3.5 -3.5 6 -7 q2.5 -3.5 2.5 -8.5 q0 -4 -2.5 -8 q-2.5 -4 -6 -7 q-3.5 -3 -8.5 -5.5 q-5 -2.5 -10 -2.5 l-292 0 l0 -230 q0 -4 -1.5 -9 q-1.5 -5 -5 -8.5 q-3.5 -3.5 -8 -6 q-4.5 -2.5 -8.5 -2.5 l-1 0 q-4 0 -8 2.5 q-4 2.5 -7.5 6 q-3.5 3.5 -5.5 8.5 q-2 5 -2 9 l0 665 l-83 0 q-3 0 -6 1 q-9 -17 -18 -33 q-52 -94 -113 -165 q-3 -4 -8 -6.5 q-5 -2.5 -9.5 -3.5 q-4.5 -1 -9.5 0 q-5 1 -9 3 q-4 4 -5.5 8.5 ZM159 400 q-6 8 -4 18.5 q2 10.5 8 17.5 q70 72 131 169 q61 97 103 203 q2 5 5.5 8 q3.5 3 7.5 5 q4 2 8.5 3 q4.5 1 8.5 0 q5 -2 8.5 -5 q3.5 -3 5 -7.5 q1.5 -4.5 1.5 -10 q0 -5.5 -1 -10.5 q-42 -101 -98 -194 l0 -642 q0 -6 -1.5 -10.5 q-1.5 -4.5 -5 -8 q-3.5 -3.5 -7.5 -6 q-4 -2.5 -9 -2.5 q-5 0 -9 2.5 q-4 2.5 -7 6 q-3 3.5 -5.5 8 q-2.5 4.5 -2.5 9.5 l0 569 q-47 -68 -98 -124 q-5 -5 -10 -7 q-5 -2 -10.5 -2 q-5.5 0 -10 2 q-4.5 2 -7.5 7 l0 1 l-1 0 Z" /><glyph glyph-name="uni4F60" unicode="&#x4f60;" d="M882 383 q-3 5 -3 10.5 q0 5.5 1 10.5 q1 5 4.5 8.5 q3.5 3.5 7.5 5.5 q4 0 8 -0.5 q4 -0.5 7.5 -2 q3.5 -1.5 7 -4.5 q3.5 -3 5.5 -6 q19 -36 37.5 -75.5 q18.5 -39.5 34.5 -79 q16 -39.5 28.5 -77 q12.5 -37.5 19.5 -69.5 q3 -9 -1.5 -17.5 q-4.5 -8.5 -12.5 -10.5 q-5 -2 -10 -1.5 q-5 0.5 -9 3.5 q-4 3 -7 7.5 q-3 4.5 -5 9.5 q-8 31 -20 67 q-12 36 -27 73.5 q-15 37.5 -31.5 75.5 q-16.5 38 -34.5 72 ZM432.5 83 q-2.5 4 -3 9.5 q-0.5 5.5 1 11.5 q1.5 6 3.5 10 q41 56 72 128 q31 72 53 151 q1 5 4 9 q3 4 7 7 q4 3 8 4.5 q4 1.5 9 -0.5 q4 0 8 -3.5 q4 -3.5 6.5 -7.5 q2.5 -4 3 -9.5 q0.5 -5.5 -0.5 -10.5 q-24 -86 -57.5 -162.5 q-33.5 -76.5 -74.5 -135.5 q-3 -3 -7 -6 q-4 -3 -8.5 -4 q-4.5 -1 -9.5 -0.5 q-5 0.5 -8 2.5 q-4 3 -6.5 7 ZM427 425 q-2 5 -2 10 q0 5 1 11 q1 6 4 10 q46 69 81 159 q35 90 57 189 q2 4 5 8 q3 4 7 7.5 q4 3.5 8 4.5 q4 1 9 0 q4 0 8 -3.5 q4 -3.5 6.5 -8 q2.5 -4.5 3.5 -9.5 q1 -5 0 -11 q-21 -83 -48 -159 l428 0 q5 0 9 -2 l2 0 q1 2 3 2 q1 0 3 0.5 q2 0.5 4 0.5 l2 0 q1 1 3.5 0.5 q2.5 -0.5 4.5 -1.5 l4 -1 q5 -1 8.5 -4 q3.5 -3 5.5 -7 q2 -4 3.5 -9 q1.5 -5 -0.5 -9 q-8 -40 -17 -81 q-9 -41 -17 -73 q-2 -10 -9.5 -16 q-7.5 -6 -15.5 -4 q-7 1 -12.5 10.5 q-5.5 9.5 -3.5 18.5 q7 35 16 79 l10 52 q-2 -1 -4 -1 l-221 0 l0 -598 q0 -24 -7 -36.5 q-7 -12.5 -24 -18.5 q-14 -6 -39.5 -7.5 q-25.5 -1.5 -64.5 -1.5 q-8 -1 -14.5 4 q-6.5 5 -9.5 11 q-4 12 3 22 q7 10 20 9 q18 -1 32 -1 q7 0 18.5 0.5 q11.5 0.5 22.5 1.5 q9 0 12.5 3.5 q3.5 3.5 3.5 13.5 l0 598 l-163 0 q-6 0 -12 3 q-37 -93 -84 -165 q-3 -5 -7.5 -7.5 q-4.5 -2.5 -9 -4 q-4.5 -1.5 -9 -0.5 q-4.5 1 -7.5 3 q-5 3 -7 8 ZM134 401 q-5 7 -3.5 17.5 q1.5 10.5 8.5 17.5 q69 72 130 169 q61 97 103 203 q2 5 5.5 8 q3.5 3 7.5 5 q4 2 8.5 3 q4.5 1 8.5 0 q4 -1 7.5 -4.5 q3.5 -3.5 5.5 -8 q2 -4.5 2 -10 q0 -5.5 -1 -9.5 q-43 -102 -98 -195 l0 -642 q0 -6 -2 -10.5 q-2 -4.5 -5 -8 q-3 -3.5 -7 -6 q-4 -2.5 -8.5 -2.5 q-4.5 0 -8.5 2.5 q-4 2.5 -7.5 6 q-3.5 3.5 -5 8 q-1.5 4.5 -1.5 9.5 l0 573 q-48 -70 -101 -127 q-4 -5 -9.5 -7.5 q-5.5 -2.5 -10.5 -2.5 q-5 0 -9.5 2.5 q-4.5 2.5 -7.5 6.5 l-1 1 l0 1 Z" /><glyph glyph-name="uni4F6C" unicode="&#x4f6c;" d="M362.5 180.5 q-1.5 5.5 -0.5 11 q1 5.5 5.5 10 q4.5 4.5 10.5 8.5 q185 94 337 235 l-314 0 q-5 0 -10 1.5 q-5 1.5 -8.5 5 q-3.5 3.5 -6 7.5 q-2.5 4 -2.5 8.5 q0 4.5 2.5 8 q2.5 3.5 6 6.5 q3.5 3 8.5 5 q5 2 10 2 l224 0 l0 160 l-172 0 q-4 0 -8.5 1.5 q-4.5 1.5 -8 5 q-3.5 3.5 -6 7.5 q-2.5 4 -2.5 8 q0 4 2.5 8 q2.5 4 6 7 q3.5 3 8 4.5 q4.5 1.5 8.5 1.5 l172 0 l0 117 q0 5 2 9.5 q2 4.5 5.5 8 q3.5 3.5 7.5 5.5 q4 2 8 2 q5 0 9 -2 q4 -2 7.5 -5.5 q3.5 -3.5 5.5 -8 q2 -4.5 2 -9.5 l0 -117 l172 0 q4 0 8.5 -1.5 q4.5 -1.5 8.5 -4.5 q4 -3 6 -7 q2 -4 2 -8 q0 -4 -2 -8 q-2 -4 -6 -7.5 q-4 -3.5 -8.5 -5 q-4.5 -1.5 -8.5 -1.5 l-172 0 l0 -160 l88 0 q123 125 213 277 q2 3 5.5 6 q3.5 3 8 5 q4.5 2 9 2.5 q4.5 0.5 7.5 -1.5 q5 -1 8 -5 q3 -4 4.5 -9 q1.5 -5 1 -10.5 q-0.5 -5.5 -3.5 -9.5 q-83 -140 -191 -255 l205 0 q6 0 10.5 -2 q4.5 -2 8 -5 q3.5 -3 6 -6.5 q2.5 -3.5 2.5 -8 q0 -4.5 -2.5 -8.5 q-2.5 -4 -6 -7.5 q-3.5 -3.5 -8 -5 q-4.5 -1.5 -10.5 -1.5 l-247 0 q-18 -18 -36 -35 q-64 -59 -133 -110 q1 -5 1 -10 l0 -102 q39 14 79 28 q42 16 81 32.5 q39 16.5 73 33 q34 16.5 61 33.5 q6 3 15.5 2.5 q9.5 -0.5 15.5 -4.5 q4 -5 6 -10 q2 -5 1.5 -11 q-0.5 -6 -3.5 -10.5 q-3 -4.5 -9 -7.5 q-32 -17 -69 -33.5 q-37 -16.5 -78 -33 q-41 -16.5 -82.5 -31 q-41.5 -14.5 -83.5 -27.5 q-3 -1 -7 -1 l0 -122 q0 -11 3 -18.5 q3 -7.5 11 -12 q8 -4.5 22.5 -5.5 q14.5 -1 37.5 -1 l229 0 q17 0 27.5 3.5 q10.5 3.5 17.5 13 q7 9.5 11 28 q4 18.5 6 49.5 q3 6 6 11.5 q3 5.5 7 9 q4 3.5 9 5.5 q5 2 10 -1 q7 -2 11.5 -10 q4.5 -8 2.5 -16 q-3 -41 -7.5 -68 q-4.5 -27 -16.5 -43 q-12 -16 -31.5 -22 q-19.5 -6 -51.5 -6 l-231 0 q-34 0 -57 3.5 q-23 3.5 -37 12.5 q-14 9 -19 25.5 q-5 16.5 -5 41.5 l0 242 q-81 -56 -169 -102 q-7 -3 -16 -1.5 q-9 1.5 -13 6.5 q-5 4 -6.5 9.5 ZM155 401 q-6 7 -5 17.5 q1 10.5 8 17.5 q62 72 115.5 169.5 q53.5 97.5 90.5 202.5 q1 5 4.5 8 q3.5 3 7.5 5.5 q4 2.5 8 3 q4 0.5 8 0.5 q5 -2 8 -5 q3 -3 5.5 -7.5 q2.5 -4.5 2.5 -10 q0 -5.5 -2 -10.5 q-38 -104 -88 -199 l0 -638 q0 -6 -2 -10.5 q-2 -4.5 -5 -8 q-3 -3.5 -7 -6 q-4 -2.5 -8.5 -2.5 q-4.5 0 -8.5 2.5 q-4 2.5 -7.5 6 q-3.5 3.5 -5 8 q-1.5 4.5 -1.5 9.5 l0 560 q-38 -61 -80 -114 q-4 -4 -8.5 -7 q-4.5 -3 -10 -3 q-5.5 0 -10.5 2.5 q-5 2.5 -8 6.5 q0 1 -0.5 1 q-0.5 0 -0.5 1 Z" /><glyph glyph-name="uni4F73" unicode="&#x4f73;" d="M428 447 q-2 4 -2 8.5 q0 4.5 2 8.5 q2 4 6 7.5 q4 3.5 8.5 5 q4.5 1.5 10.5 1.5 l252 0 l0 168 l-203 0 q-5 0 -9.5 1.5 q-4.5 1.5 -8.5 5 q-4 3.5 -6 7.5 q-2 4 -2 8 q0 5 2 8.5 q2 3.5 6 7 q4 3.5 8.5 5 q4.5 1.5 9.5 1.5 l203 0 l0 119 q0 4 1.5 9 q1.5 5 5.5 8.5 q4 3.5 8 6 q4 2.5 8 2.5 l1 0 q4 0 8 -2.5 q4 -2.5 7.5 -6 q3.5 -3.5 5 -8.5 q1.5 -5 1.5 -9 l0 -119 l211 0 q4 0 9 -1.5 q5 -1.5 8.5 -5 q3.5 -3.5 5.5 -7 q2 -3.5 2 -8.5 q0 -4 -2 -8 q-2 -4 -5.5 -7.5 q-3.5 -3.5 -8.5 -5 q-5 -1.5 -9 -1.5 l-211 0 l0 -168 l255 0 q6 0 11 -1.5 q5 -1.5 8.5 -5 q3.5 -3.5 5.5 -7.5 q2 -4 2 -8.5 q0 -4.5 -2 -8.5 q-2 -4 -5.5 -7 q-3.5 -3 -8.5 -5.5 q-5 -2.5 -11 -2.5 l-553 0 q-6 0 -10.5 2.5 q-4.5 2.5 -8.5 5.5 q-4 3 -6 7 ZM392.5 -18 q-2.5 4 -2.5 8.5 q0 4.5 2.5 8.5 q2.5 4 6 7 q3.5 3 8.5 5 q5 2 9 2 l289 0 l0 198 l-224 0 q-4 0 -9 1.5 q-5 1.5 -8.5 5 q-3.5 3.5 -6 7.5 q-2.5 4 -2.5 8 q0 5 2.5 9 q2.5 4 6 7 q3.5 3 8.5 4.5 q5 1.5 9 1.5 l224 0 l0 105 q0 6 1.5 11 q1.5 5 5.5 8.5 q4 3.5 8 5.5 q4 2 8 2 l1 0 q4 0 8 -2 q4 -2 7.5 -5.5 q3.5 -3.5 5 -8.5 q1.5 -5 1.5 -11 l0 -105 l226 0 q5 0 10 -1.5 q5 -1.5 8.5 -4.5 q3.5 -3 5.5 -7 q2 -4 2 -8.5 q0 -4.5 -2 -8.5 q-2 -4 -5.5 -7.5 q-3.5 -3.5 -8.5 -5 q-5 -1.5 -10 -1.5 l-226 0 l0 -198 l278 0 q4 0 9 -2 q5 -2 8.5 -5 q3.5 -3 6 -7 q2.5 -4 2.5 -8.5 q0 -4.5 -2.5 -8.5 q-2.5 -4 -6 -7.5 q-3.5 -3.5 -8.5 -5.5 q-5 -2 -9 -2 l-613 0 q-4 0 -9 2 q-5 2 -8.5 5.5 q-3.5 3.5 -6 7.5 ZM164 401 q-5 7 -4.5 17.5 q0.5 10.5 6.5 16.5 q63 72 117.5 169.5 q54.5 97.5 92.5 203.5 q1 5 4 8 q3 3 7 5.5 q4 2.5 9 3 q5 0.5 8 0.5 q5 -2 8.5 -5 q3.5 -3 5.5 -7.5 q2 -4.5 2.5 -10 q0.5 -5.5 -1.5 -9.5 q-39 -106 -91 -202 l0 -639 q0 -5 -2 -10 q-2 -5 -5.5 -8.5 q-3.5 -3.5 -7.5 -5.5 q-4 -2 -8 -2 q-5 0 -9 2 q-4 2 -7 5.5 q-3 3.5 -5.5 8.5 q-2.5 5 -2.5 10 l0 558 q-37 -59 -77 -109 q-5 -5 -10 -7.5 q-5 -2.5 -11 -3 q-6 -0.5 -11 2 q-5 2.5 -8 7.5 l0 1 Z" /><glyph glyph-name="uni4F7F" unicode="&#x4f7f;" d="M752 332 l217 0 q2 0 4 2 q2 2 2 4 l0 170 q0 2 -2 4 q-2 2 -4 2 l-216 0 l0 -116 q0 -33 -1 -66 ZM493 338 q0 -2 2 -4 q2 -2 4 -2 l207 0 q2 33 2 67 l0 115 l-209 0 q-2 0 -4 -2 q-2 -2 -2 -4 l0 -170 ZM399 -65 q-7 9 -1.5 19.5 q5.5 10.5 18.5 15.5 q105 34 164 81 q16 13 30 26 q-25 18 -47 37 q-58 49 -97 109 q-3 5 -3.5 10 q-0.5 5 0.5 9.5 q1 4.5 4 8.5 q3 4 7 6 q7 2 15.5 -2 q8.5 -4 12.5 -10 q36 -54 89 -99 q23 -20 48 -37 q17 22 28 45 q29 56 35 118 q0 9 1 17 l-229 0 q-4 0 -9 2.5 q-5 2.5 -9 6 q-4 3.5 -6 8.5 q-2 5 -2 9 l0 215 q0 5 2 9.5 q2 4.5 6 8 q4 3.5 9 6 q5 2.5 9 2.5 l234 0 l0 115 l-268 0 q-4 0 -9 2 q-5 2 -9 5 q-4 3 -6 7 q-2 4 -2 8 q0 4 2 8 q2 4 6 7.5 q4 3.5 9 5 q5 1.5 9 1.5 l268 0 l0 91 q0 4 1.5 9 q1.5 5 5 8.5 q3.5 3.5 7.5 6 q4 2.5 9 2.5 q5 0 8.5 -2.5 q3.5 -2.5 7 -6 q3.5 -3.5 5 -8.5 q1.5 -5 1.5 -9 l0 -91 l279 0 q4 0 9 -1.5 q5 -1.5 8.5 -5 q3.5 -3.5 6 -7.5 q2.5 -4 2.5 -8 q0 -4 -2.5 -8 q-2.5 -4 -6 -7 q-3.5 -3 -8.5 -5 q-5 -2 -9 -2 l-279 0 l0 -115 l242 0 q5 0 9.5 -2.5 q4.5 -2.5 8.5 -6 q4 -3.5 6 -8 q2 -4.5 2 -9.5 l0 -215 q0 -4 -2 -9 q-2 -5 -6 -8.5 q-4 -3.5 -8.5 -6 q-4.5 -2.5 -9.5 -2.5 l-247 0 q-1 -13 -3 -27 q-8 -69 -40 -131 q-12 -24 -29 -46 q17 -10 35 -19 q67 -34 145.5 -58 q78.5 -24 165.5 -37 q16 -3 21.5 -13 q5.5 -10 -1.5 -22 q-3 -5 -10.5 -8.5 q-7.5 -3.5 -14.5 -2.5 q-91 15 -173.5 40.5 q-82.5 25.5 -152.5 62.5 q-23 12 -43 25 q-19 -19 -41 -37 q-65 -53 -180 -89 q-7 -3 -16 0 q-9 3 -12 8 ZM139 409 q-5 7 -3.5 17.5 q1.5 10.5 7.5 17.5 q71 71 133.5 167.5 q62.5 96.5 106.5 202.5 q1 4 5 7 q4 3 8 5.5 q4 2.5 8.5 3.5 q4.5 1 7.5 -1 q5 -1 8 -4.5 q3 -3.5 5 -8 q2 -4.5 2.5 -10 q0.5 -5.5 -1.5 -9.5 q-43 -100 -99 -190 l0 -660 q0 -5 -1.5 -10 q-1.5 -5 -5 -8.5 q-3.5 -3.5 -7.5 -6 q-4 -2.5 -8.5 -2.5 q-4.5 0 -8.5 2.5 q-4 2.5 -7 6 q-3 3.5 -5 8.5 q-2 5 -2 9 l0 591 q-51 -72 -105 -130 q-4 -5 -9 -7 q-5 -2 -10.5 -1.5 q-5.5 0.5 -10.5 3 q-5 2.5 -8 6.5 l0 1 Z" /><glyph glyph-name="uni4F8B" unicode="&#x4f8b;" d="M835 -51 q-2 6 -1 11.5 q1 5.5 4.5 10 q3.5 4.5 9.5 6.5 q6 2 13 2 q21 -1 38 -1 q9 0 24 0.5 q15 0.5 26 0.5 q12 1 16.5 5.5 q4.5 4.5 4.5 16.5 l0 806 q0 4 2 9 q2 5 5 8.5 q3 3.5 7 6 q4 2.5 9 2.5 q4 0 8 -2.5 q4 -2.5 7.5 -6 q3.5 -3.5 5 -8.5 q1.5 -5 1.5 -9 l0 -806 q0 -27 -8 -40 q-8 -13 -27 -18 q-15 -7 -44.5 -8 q-29.5 -1 -76.5 -1 q-7 -1 -14.5 4.5 q-7.5 5.5 -9.5 10.5 ZM804 189 l0 497 q0 5 2 10 q2 5 5 8.5 q3 3.5 7 5.5 q4 2 8.5 2 q4.5 0 8 -2 q3.5 -2 6.5 -5.5 q3 -3.5 4.5 -8.5 q1.5 -5 1.5 -10 l0 -497 q0 -5 -1.5 -9.5 q-1.5 -4.5 -4.5 -8.5 q-3 -4 -6.5 -6 q-3.5 -2 -8 -2 q-4.5 0 -8.5 2 q-4 2 -7 6 q-3 4 -5 8.5 q-2 4.5 -2 9.5 ZM377.5 291 q-2.5 4 -3 9.5 q-0.5 5.5 0.5 10.5 q1 5 4 10 q52 79 89 187 q35 104 58 220 l-102 0 q-4 0 -9 2 q-5 2 -8.5 5 q-3.5 3 -6 7 q-2.5 4 -2.5 8 q0 5 2.5 9 q2.5 4 6 7.5 q3.5 3.5 8.5 5 q5 1.5 9 1.5 l299 0 q5 0 10 -1.5 q5 -1.5 8.5 -5 q3.5 -3.5 5.5 -7.5 q2 -4 2 -9 q0 -4 -2 -8 q-2 -4 -5.5 -7 q-3.5 -3 -8.5 -5 q-5 -2 -10 -2 l-150 0 l0 -2 q-20 -92 -45 -175 l135 0 q5 0 9 -2 q2 0 3 -1 l1 1 q1 2 3 2 q2 0 4 0.5 q2 0.5 3 0.5 l1 0 q2 1 5 0.5 q3 -0.5 5 -1.5 l2 0 q8 -3 13.5 -11 q5.5 -8 4.5 -17 q-28 -218 -101 -362.5 q-73 -144.5 -174 -219.5 q-4 -3 -9 -5 q-5 -2 -10.5 -2 q-5.5 0 -9.5 2.5 q-4 2.5 -7 5.5 q-4 3 -4.5 8 q-0.5 5 0.5 10.5 q1 5.5 4.5 11 q3.5 5.5 8.5 9.5 q48 35 89.5 87.5 q41.5 52.5 75.5 122.5 q3 6 6 13 q-6 2 -10 6 q-17 19 -42 39.5 q-25 20.5 -50 37.5 q-8 7 -10.5 17 q-2.5 10 2.5 17 q3 3 6.5 4.5 q3.5 1.5 8 1.5 q4.5 0 9 -1 q4.5 -1 8.5 -4 q28 -19 56 -41 q23 -18 40 -34 q19 47 33 100 q21 75 32 161 q-3 -1 -7 -1 l-136 0 q-6 0 -11 2 l-8 -22 q-38 -112 -92 -195 q-2 -4 -6 -6.5 q-4 -2.5 -9 -4 q-5 -1.5 -9 -0.5 q-4 1 -7 3 q-4 3 -6.5 7 ZM153 419 q-4 5 -3.5 15 q0.5 10 5.5 16 q55 70 98 163 q43 93 72 195 q2 5 5 9 q3 4 7.5 7 q4.5 3 8.5 3.5 q4 0.5 8 0.5 q4 -1 7.5 -4 q3.5 -3 5.5 -7.5 q2 -4.5 2.5 -9.5 q0.5 -5 -0.5 -10 q-27 -92 -65 -177 l0 -665 q0 -5 -2 -9.5 q-2 -4.5 -5 -8.5 q-3 -4 -7 -6 q-4 -2 -8 -2 q-4 0 -8 2 q-4 2 -7.5 6 q-3.5 4 -5.5 8.5 q-2 4.5 -2 9.5 l0 574 q-32 -60 -68 -110 q-4 -6 -9 -9 q-5 -3 -10.5 -3 q-5.5 0 -10 2.5 q-4.5 2.5 -7.5 7.5 l-1 1 l0 1 Z" /><glyph glyph-name="uni4F9B" unicode="&#x4f9b;" d="M837 134.5 q-2 5.5 -2 11 q0 5.5 2 10 q2 4.5 6 6.5 q6 3 14.5 1.5 q8.5 -1.5 13.5 -6.5 q22 -22 44.5 -46 q22.5 -24 43 -48 q20.5 -24 38 -47.5 q17.5 -23.5 30.5 -44.5 q3 -4 4 -8.5 q1 -4.5 0 -9.5 q-1 -5 -3 -9 q-2 -4 -6 -6 q-3 -3 -8.5 -3 q-5.5 0 -10 1 q-4.5 1 -9 4.5 q-4.5 3.5 -7.5 7.5 q-26 40 -64.5 88 q-38.5 48 -79.5 89 q-4 4 -6 9.5 ZM618 287 l227 0 l0 276 l-227 0 l0 -276 ZM433 -61 q-9 8 -8 20 q1 12 10 21 q40 36 77.5 82 q37.5 46 65.5 95 q4 7 12.5 11 q8.5 4 16.5 2 q4 -2 8 -5.5 q4 -3.5 5.5 -8.5 q1.5 -5 1.5 -11 q0 -6 -4 -10 q-32 -54 -73 -104.5 q-41 -50.5 -83 -88.5 q-6 -6 -15 -6.5 q-9 -0.5 -14 3.5 ZM407.5 255 q-2.5 4 -2.5 9 q0 5 2.5 9 q2.5 4 6 7.5 q3.5 3.5 8.5 5 q5 1.5 9 1.5 l140 0 l0 276 l-114 0 q-4 0 -9 2 q-5 2 -8.5 5.5 q-3.5 3.5 -6 7.5 q-2.5 4 -2.5 8 q0 5 2.5 9 q2.5 4 6 7 q3.5 3 8.5 5 q5 2 9 2 l114 0 l0 187 q0 4 2.5 9 q2.5 5 5.5 8.5 q3 3.5 7 6 q4 2.5 9 2.5 q4 0 8 -2.5 q4 -2.5 7.5 -6 q3.5 -3.5 5.5 -8.5 q2 -5 2 -9 l0 -187 l227 0 l0 187 q0 5 1.5 9.5 q1.5 4.5 5 8.5 q3.5 4 7.5 6 q4 2 9 2 q4 0 8 -2 q4 -2 7.5 -6 q3.5 -4 5 -8.5 q1.5 -4.5 1.5 -9.5 l0 -187 l126 0 q5 0 9.5 -2 q4.5 -2 8.5 -5 q4 -3 6 -7 q2 -4 2 -8.5 q0 -4.5 -2 -8.5 q-2 -4 -6 -7.5 q-4 -3.5 -8.5 -5.5 q-4.5 -2 -9.5 -2 l-126 0 l0 -276 l139 0 q5 0 10 -1.5 q5 -1.5 8.5 -5 q3.5 -3.5 5.5 -7.5 q2 -4 2 -9 q0 -5 -2 -9 q-2 -4 -5.5 -7 q-3.5 -3 -8.5 -5 q-5 -2 -10 -2 l-598 0 q-4 0 -9 2 q-5 2 -8.5 5 q-3.5 3 -6 7 ZM138 401 q-5 7 -3 17.5 q2 10.5 8 18.5 q69 71 130 168.5 q61 97.5 103 203.5 q2 4 5.5 7 q3.5 3 7.5 5.5 q4 2.5 8.5 3.5 q4.5 1 8.5 -1 q4 -1 7.5 -4 q3.5 -3 5.5 -7.5 q2 -4.5 2.5 -10 q0.5 -5.5 -1.5 -10.5 q-42 -102 -98 -195 l0 -642 q0 -6 -2 -10.5 q-2 -4.5 -5.5 -8 q-3.5 -3.5 -7.5 -6 q-4 -2.5 -8.5 -2.5 q-4.5 0 -8.5 2.5 q-4 2.5 -7 6 q-3 3.5 -5.5 8 q-2.5 4.5 -2.5 9.5 l0 571 q-47 -69 -99 -125 q-4 -5 -9 -7 q-5 -2 -10.5 -2 q-5.5 0 -10 2.5 q-4.5 2.5 -7.5 6.5 l-1 1 Z" /><glyph glyph-name="uni4F9D" unicode="&#x4f9d;" d="M665 786 q-3 5 -3 10.5 q0 5.5 1 10.5 q1 5 4.5 8.5 q3.5 3.5 8.5 5.5 l7 0 q4 0 7.5 -1.5 q3.5 -1.5 7 -4.5 q3.5 -3 4.5 -6 q18 -29 34 -61 q16 -32 27 -58 q2 -4 1.5 -8.5 q-0.5 -4.5 -2 -9 q-1.5 -4.5 -4.5 -8 q-3 -3.5 -7 -4.5 q-4 -2 -9 -1.5 q-5 0.5 -9.5 3 q-4.5 2.5 -8.5 7 q-4 4.5 -6 9.5 q-10 24 -24.5 53 q-14.5 29 -28.5 55 ZM361 245 q-4 5 -5 10.5 q-1 5.5 0 11 q1 5.5 4.5 10.5 q3.5 5 8.5 9 q89 59 169 141 q74 77 127 166 l-248 0 q-4 0 -9 1.5 q-5 1.5 -8.5 5 q-3.5 3.5 -5.5 7.5 q-2 4 -2 8 q0 5 2 9 q2 4 5.5 7 q3.5 3 8.5 4.5 q5 1.5 9 1.5 l594 0 q5 0 9.5 -1.5 q4.5 -1.5 8.5 -4.5 q4 -3 6 -7 q2 -4 2 -9 q0 -4 -2 -8 q-2 -4 -6 -7.5 q-4 -3.5 -8.5 -5 q-4.5 -1.5 -9.5 -1.5 l-295 0 l0 -1 q0 -6 -3 -10 q-3 -4 -6 -9 l3 -3 l4 -10 q21 -88 52 -171 q16 -42 34 -82 l2 2 q24 17 49.5 36 q25.5 19 50.5 39.5 q25 20.5 48.5 41.5 q23.5 21 42.5 39 q4 3 8.5 5 q4.5 2 9 2.5 q4.5 0.5 9 -0.5 q4.5 -1 8.5 -4 q4 -3 5.5 -7.5 q1.5 -4.5 0.5 -10 q-1 -5.5 -3 -10 q-2 -4.5 -7 -8.5 q-22 -20 -47.5 -41 q-25.5 -21 -52.5 -41.5 q-27 -20.5 -53 -39 q-26 -18.5 -50 -34.5 q-2 -2 -5 -3 q10 -19 21 -38 q40 -72 90.5 -129 q50.5 -57 109.5 -94 q10 -8 11.5 -20 q1.5 -12 -5.5 -20 q-2 -4 -6.5 -5.5 q-4.5 -1.5 -9.5 -2 q-5 -0.5 -9.5 0.5 q-4.5 1 -7.5 3 q-62 40 -114 101 q-52 61 -94 137 q-42 76 -74 164 q-28 77 -48 161 q-50 -73 -112 -138 q-5 -4 -9 -8 q2 -3 3 -5 q1 -5 1 -10 l0 -366 l163 63 q6 2 11.5 2 q5.5 0 10 -2 q4.5 -2 8 -5.5 q3.5 -3.5 4.5 -7.5 q2 -7 -3.5 -15 q-5.5 -8 -13.5 -11 q-47 -19 -81 -32.5 q-34 -13.5 -58 -23.5 q-24 -10 -40.5 -17 q-16.5 -7 -26.5 -12 q-7 -2 -14 -3 q-4 0 -8 1 q-5 -3 -10 -3 q-11 -1 -17 8 q-2 3 -2.5 7 q-0.5 4 1 9.5 q1.5 5.5 4 10 q2.5 4.5 5.5 8.5 q5 4 8.5 7 q3.5 3 6.5 8 q3 5 5 13.5 q2 8.5 2 24.5 l0 310 q-61 -56 -124 -100 q-4 -3 -8.5 -4 q-4.5 -1 -9 -1 q-4.5 0 -9 2 q-4.5 2 -6.5 4 ZM152 404 q-4 7 -3.5 17.5 q0.5 10.5 6.5 17.5 q66 71 122.5 168.5 q56.5 97.5 96.5 203.5 q1 5 4.5 8 q3.5 3 7.5 5.5 q4 2.5 8.5 3.5 q4.5 1 8.5 -1 q5 -1 8 -4 q3 -3 5 -7.5 q2 -4.5 2.5 -10 q0.5 -5.5 -1.5 -10.5 q-43 -109 -99 -208 l0 -636 q0 -5 -2 -10 q-2 -5 -5 -8.5 q-3 -3.5 -7 -5.5 q-4 -2 -8.5 -2 q-4.5 0 -8.5 2 q-4 2 -7.5 5.5 q-3.5 3.5 -5 8.5 q-1.5 5 -1.5 10 l0 562 q-39 -59 -82 -109 q-4 -5 -9 -7.5 q-5 -2.5 -10.5 -2.5 q-5.5 0 -10.5 2 q-5 2 -8 7 l0 1 l-1 0 Z" /></font>
</defs>
</svg>
