<?xml version="1.0" standalone="no"?><!DOCTYPE svg PUBLIC "-//W3C//DTD SVG 1.1//EN" "http://www.w3.org/Graphics/SVG/1.1/DTD/svg11.dtd" ><svg xmlns="http://www.w3.org/2000/svg"><metadata></metadata><defs><font id="JetBrainsMapleMono-ExtraLight-pre" horiz-adv-x="1000"><font-face font-family="JetBrains Maple Mono ExtraLight" font-weight="200" font-stretch="normal" units-per-em="1000" panose-1="2 0 0 9 0 0 0 0 0 0" ascent="1020" descent="-300" x-height="0" bbox="26 -180 976 870" underline-thickness="50" underline-position="-155" unicode-range="U+0022-9f99" /><missing-glyph horiz-adv-x="600" d="M160 50 l300 0 l0 571 l-300 -571 ZM140 109 l300 571 l-300 0 l0 -571 ZM90 0 l0 730 l420 0 l0 -730 l-420 0 Z" /><glyph glyph-name="quotedbl" unicode="&quot;" d="M158 730 l80 0 l-6 -300 l-67 0 l-7 300 ZM362 730 l80 0 l-6 -300 l-67 0 l-7 300 Z" /><glyph glyph-name="dollar" unicode="$" d="M329 50 q59 6 92 40.5 q33 34.5 33 90.5 q0 52 -29 91 q-29 39 -81 55 l-15 5 l0 -282 ZM166 559 q0 -53 31 -91.5 q31 -38.5 84 -51.5 l0 264 q-54 -6 -84.5 -38 q-30.5 -32 -30.5 -83 ZM80 187 l66 0 q0 -58 36 -94.5 q36 -36.5 99 -42.5 l0 297 l-27 8 q-73 22 -113.5 74.5 q-40.5 52.5 -40.5 124.5 q0 79 48.5 128.5 q48.5 49.5 132.5 56.5 l0 131 l48 0 l0 -131 q83 -6 132 -57.5 q49 -51.5 50 -134.5 l-66 0 q0 55 -31 90.5 q-31 35.5 -85 42.5 l0 -280 l33 -10 q74 -23 116 -78.5 q42 -55.5 42 -129.5 q0 -81 -52 -132.5 q-52 -51.5 -139 -58.5 l0 -131 l-48 0 l0 131 q-93 6 -147 58.5 q-54 52.5 -54 137.5 Z" /><glyph glyph-name="comma" unicode="," d="M216 -160 l57 306 l86 0 l-71 -306 l-72 0 Z" /><glyph glyph-name="hyphen" unicode="-" d="M140 301 l0 59 l320 0 l0 -59 l-320 0 Z" /><glyph glyph-name="period" unicode="." d="M244.5 11.5 q-21.5 21.5 -21.5 55.5 q0 34 21.5 55.5 q21.5 21.5 55.5 21.5 q34 0 55.5 -21.5 q21.5 -21.5 21.5 -55.5 q0 -34 -21.5 -55.5 q-21.5 -21.5 -55.5 -21.5 q-34 0 -55.5 21.5 Z" /><glyph glyph-name="zero" unicode="0" d="M246 368 q0 24 15 37 q15 13 39 13 q24 0 39 -13 q15 -13 15 -37 q0 -25 -15 -38 q-15 -13 -39 -13 q-24 0 -39 13 q-15 13 -15 38 ZM154 205 q0 -72 39.5 -115 q39.5 -43 107.5 -43 q66 0 105.5 43 q39.5 43 39.5 115 l0 320 q0 72 -39.5 115 q-39.5 43 -105.5 43 q-68 0 -107.5 -43 q-39.5 -43 -39.5 -115 l0 -320 ZM89 205 l0 320 q0 99 57 157 q57 58 155 58 q96 0 153 -58 q57 -58 57 -157 l0 -320 q0 -98 -57 -156.5 q-57 -58.5 -153 -58.5 q-98 0 -155 58 q-57 58 -57 157 Z" /><glyph glyph-name="one" unicode="1" d="M96 0 l0 60 l203 0 l0 612 l-198 -147 l0 75 l176 130 l88 0 l0 -670 l169 0 l0 -60 l-438 0 Z" /><glyph glyph-name="two" unicode="2" d="M81 531 q1 63 28 110 q27 47 75.5 73 q48.5 26 112.5 26 q65 0 113.5 -25.5 q48.5 -25.5 75.5 -72.5 q27 -47 27 -109 q0 -56 -29.5 -117.5 q-29.5 -61.5 -90.5 -124.5 l-220 -231 l350 0 l0 -60 l-430 0 l0 60 l255 271 q98 104 98 202 q0 67 -40.5 108 q-40.5 41 -108.5 41 q-68 0 -109 -41.5 q-41 -41.5 -41 -109.5 l-66 0 Z" /><glyph glyph-name="three" unicode="3" d="M79 197 l66 0 q0 -68 40 -108 q40 -40 105 -40 q65 0 105 40 q40 40 40 108 l0 60 q0 66 -39 104 q-39 38 -106 38 l-68 0 l0 57 l192 214 l-312 0 l0 60 l385 0 l0 -62 l-187 -211 q92 -3 146.5 -56.5 q54.5 -53.5 54.5 -143.5 l0 -60 q0 -95 -57.5 -151 q-57.5 -56 -153.5 -56 q-96 0 -153.5 56 q-57.5 56 -57.5 151 Z" /><glyph glyph-name="four" unicode="4" d="M79 166 l0 116 l278 447 l74 0 l-286 -463 l0 -40 l267 0 l0 194 l66 0 l0 -420 l-66 0 l0 166 l-333 0 Z" /><glyph glyph-name="five" unicode="5" d="M84 197 l66 0 q0 -68 40 -108 q40 -40 105 -40 q65 0 105 40 q40 40 40 108 l0 47 q0 71 -38 111 q-38 40 -105 40 l-188 0 l0 335 l375 0 l0 -60 l-313 0 l1 -215 l127 0 q98 0 152.5 -55.5 q54.5 -55.5 54.5 -155.5 l0 -47 q0 -95 -57.5 -151 q-57.5 -56 -153.5 -56 q-96 0 -153.5 56 q-57.5 56 -57.5 151 Z" /><glyph glyph-name="six" unicode="6" d="M138 216 q0 -74 44.5 -120.5 q44.5 -46.5 117.5 -46.5 q72 0 117 47 q45 47 45 123 q0 76 -45 123 q-45 47 -117 47 q-72 0 -117 -47.5 q-45 -47.5 -45 -125.5 ZM72 221 q0 47 18 95.5 q18 48.5 46 97.5 l180 316 l74 0 l-195 -331 l3 -3 q15 18 47 32 q32 14 75 14 q61 0 108 -28 q47 -28 73.5 -78 q26.5 -50 26.5 -116 q0 -68 -29 -119.5 q-29 -51.5 -80 -81 q-51 -29.5 -119 -29.5 q-67 0 -118.5 29.5 q-51.5 29.5 -80.5 81.5 q-29 52 -29 120 Z" /><glyph glyph-name="seven" unicode="7" d="M87 530 l0 200 l452 0 l0 -63 l-267 -667 l-72 0 l270 670 l-317 0 l0 -140 l-66 0 Z" /><glyph glyph-name="eight" unicode="8" d="M200 644 q-38 -38 -38 -99 q0 -61 38 -98.5 q38 -37.5 100 -37.5 q62 0 100 37.5 q38 37.5 38 98.5 q0 61 -38 99 q-38 38 -100 38 q-62 0 -100 -38 ZM142 198 q0 -66 44 -107.5 q44 -41.5 114 -41.5 q71 0 114.5 41.5 q43.5 41.5 43.5 107.5 q0 68 -43.5 110 q-43.5 42 -114.5 42 q-70 0 -114 -42 q-44 -42 -44 -110 ZM76 199 q0 68 39 118.5 q39 50.5 103 64.5 l0 3 q-55 12 -88.5 57 q-33.5 45 -33.5 105 q0 57 25.5 100.5 q25.5 43.5 72 68 q46.5 24.5 106.5 24.5 q61 0 107 -24.5 q46 -24.5 71.5 -68 q25.5 -43.5 25.5 -100.5 q0 -60 -33.5 -105 q-33.5 -45 -88.5 -57 l0 -3 q64 -14 103 -64.5 q39 -50.5 39 -118.5 q0 -62 -28 -109 q-28 -47 -78.5 -73.5 q-50.5 -26.5 -117.5 -26.5 q-66 0 -117 26.5 q-51 26.5 -79 73.5 q-28 47 -28 109 Z" /><glyph glyph-name="nine" unicode="9" d="M140 508 q0 -75 44.5 -121.5 q44.5 -46.5 115.5 -46.5 q72 0 116.5 47 q44.5 47 44.5 125 q0 75 -44.5 122 q-44.5 47 -116.5 47 q-71 0 -115.5 -47.5 q-44.5 -47.5 -44.5 -125.5 ZM74 507 q0 70 28.5 122 q28.5 52 79.5 81.5 q51 29.5 118 29.5 q67 0 118 -29 q51 -29 79.5 -81 q28.5 -52 28.5 -121 q0 -47 -15 -95.5 q-15 -48.5 -44 -97.5 l-185 -316 l-77 0 l200 331 l-3 3 q-13 -17 -47 -32.5 q-34 -15.5 -77 -15.5 q-60 0 -106 28 q-46 28 -72 77.5 q-26 49.5 -26 115.5 Z" /><glyph glyph-name="colon" unicode=":" d="M243.5 434 q-20.5 20 -20.5 53 q0 33 20.5 53 q20.5 20 56.5 20 q36 0 56.5 -20 q20.5 -20 20.5 -53 q0 -33 -20.5 -53 q-20.5 -20 -56.5 -20 q-36 0 -56.5 20 ZM243.5 10 q-20.5 20 -20.5 53 q0 33 20.5 53 q20.5 20 56.5 20 q36 0 56.5 -20 q20.5 -20 20.5 -53 q0 -33 -20.5 -53 q-20.5 -20 -56.5 -20 q-36 0 -56.5 20 Z" /><glyph glyph-name="semicolon" unicode=";" d="M240 436 q-20 20 -20 52 q0 32 20.5 52 q20.5 20 52.5 20 l14 0 q32 0 52 -20 q20 -20 20 -52 q0 -32 -20 -52 q-20 -20 -52 -20 l-14 0 q-33 0 -53 20 ZM211 -160 l57 306 l86 0 l-71 -306 l-72 0 Z" /><glyph glyph-name="A" unicode="A" d="M195 261 l209 0 l-70 267 q-15 58 -23.5 97 q-8.5 39 -10.5 51 q-2 -12 -11 -51 q-9 -39 -24 -97 l-70 -267 ZM61 0 l196 730 l86 0 l196 -730 l-67 0 l-53 204 l-239 0 l-52 -204 l-67 0 Z" /><glyph glyph-name="B" unicode="B" d="M168 406 l130 0 q66 0 103 35.5 q37 35.5 37 96.5 q0 62 -37 97 q-37 35 -102 35 l-131 0 l0 -264 ZM168 60 l135 0 q71 0 112 38 q41 38 41 104 q0 67 -41 106.5 q-41 39.5 -112 39.5 l-135 0 l0 -288 ZM103 0 l0 730 l196 0 q94 0 149.5 -51 q55.5 -51 55.5 -137 q0 -38 -16 -71.5 q-16 -33.5 -44.5 -56.5 q-28.5 -23 -64.5 -30 l0 -3 q41 -6 73 -31.5 q32 -25.5 50.5 -64.5 q18.5 -39 18.5 -84 q0 -92 -57.5 -146.5 q-57.5 -54.5 -156.5 -54.5 l-204 0 Z" /><glyph glyph-name="C" unicode="C" d="M102 194 l0 342 q0 94 56 149 q56 55 151 55 q95 0 151.5 -57 q56.5 -57 56.5 -153 l-66 0 q0 71 -38 111 q-38 40 -104 40 q-65 0 -103 -38.5 q-38 -38.5 -38 -106.5 l0 -342 q0 -68 37.5 -106.5 q37.5 -38.5 103.5 -38.5 q67 0 104.5 40 q37.5 40 37.5 111 l66 0 q0 -96 -56.5 -153 q-56.5 -57 -151.5 -57 q-95 0 -151 55 q-56 55 -56 149 Z" /><glyph glyph-name="D" unicode="D" d="M169 60 l105 0 q74 0 118 43 q44 43 44 117 l0 290 q0 73 -44 116.5 q-44 43.5 -118 43.5 l-105 0 l0 -610 ZM103 0 l0 730 l171 0 q69 0 120 -27.5 q51 -27.5 79.5 -76.5 q28.5 -49 28.5 -116 l0 -290 q0 -66 -28.5 -115.5 q-28.5 -49.5 -79.5 -77 q-51 -27.5 -120 -27.5 l-171 0 Z" /><glyph glyph-name="E" unicode="E" d="M112 0 l0 730 l402 0 l0 -60 l-336 0 l0 -259 l301 0 l0 -59 l-301 0 l0 -292 l336 0 l0 -60 l-402 0 Z" /><glyph glyph-name="F" unicode="F" d="M107 0 l0 730 l418 0 l0 -60 l-353 0 l0 -272 l322 0 l0 -61 l-321 0 l0 -337 l-66 0 Z" /><glyph glyph-name="G" unicode="G" d="M98 194 l0 342 q0 94 56 149 q56 55 151 55 q95 0 151.5 -57 q56.5 -57 56.5 -153 l-66 0 q0 71 -38 111 q-38 40 -104 40 q-65 0 -103 -38.5 q-38 -38.5 -38 -106.5 l0 -342 q0 -68 37.5 -106.5 q37.5 -38.5 103.5 -38.5 q67 0 104.5 40 q37.5 40 37.5 111 l0 111 l-163 0 l0 60 l229 0 l0 -171 q0 -96 -56.5 -153 q-56.5 -57 -151.5 -57 q-95 0 -151 55 q-56 55 -56 149 Z" /><glyph glyph-name="H" unicode="H" d="M103 0 l0 730 l66 0 l0 -322 l262 0 l0 322 l66 0 l0 -730 l-66 0 l0 349 l-262 0 l0 -349 l-66 0 Z" /><glyph glyph-name="I" unicode="I" d="M114 0 l0 60 l153 0 l0 610 l-153 0 l0 60 l372 0 l0 -60 l-152 0 l0 -610 l152 0 l0 -60 l-372 0 Z" /><glyph glyph-name="J" unicode="J" d="M60 204 l66 0 q0 -73 39 -114 q39 -41 108 -41 q69 0 108 41 q39 41 39 113 l0 527 l66 0 l0 -527 q0 -99 -57 -156 q-57 -57 -156 -57 q-100 0 -156.5 57 q-56.5 57 -56.5 157 Z" /><glyph glyph-name="K" unicode="K" d="M103 0 l0 730 l66 0 l0 -323 l135 0 l162 323 l72 0 l-176 -350 l186 -380 l-77 0 l-169 348 l-133 0 l0 -348 l-66 0 Z" /><glyph glyph-name="L" unicode="L" d="M136 0 l0 730 l66 0 l0 -670 l345 0 l0 -60 l-411 0 Z" /><glyph glyph-name="M" unicode="M" d="M84 0 l0 730 l96 0 l120 -348 l120 348 l96 0 l0 -730 l-64 0 l0 402 q0 50 1 106.5 q1 56.5 3.5 108 q2.5 51.5 5.5 88.5 l-131 -380 l-64 0 l-130 376 q5 -54 8 -133.5 q3 -79.5 3 -165.5 l0 -402 l-64 0 Z" /><glyph glyph-name="N" unicode="N" d="M102 0 l0 730 l89 0 l250 -655 q-2 22 -3.5 51 q-1.5 29 -2.5 57 q-1 28 -1 47 l0 500 l64 0 l0 -730 l-89 0 l-248 655 q1 -23 3 -66.5 q2 -43.5 2 -88.5 l0 -500 l-64 0 Z" /><glyph glyph-name="O" unicode="O" d="M164 194 q0 -69 35.5 -107 q35.5 -38 100.5 -38 q65 0 100.5 38 q35.5 38 35.5 107 l0 342 q0 69 -36 107 q-36 38 -100 38 q-64 0 -100 -38 q-36 -38 -36 -107 l0 -342 ZM98 198 l0 334 q0 97 55 152.5 q55 55.5 147 55.5 q92 0 147 -55.5 q55 -55.5 55 -152.5 l0 -334 q0 -97 -54.5 -152.5 q-54.5 -55.5 -147.5 -55.5 q-92 0 -147 55.5 q-55 55.5 -55 152.5 Z" /><glyph glyph-name="P" unicode="P" d="M169 374 l157 0 q67 0 107.5 40 q40.5 40 40.5 108 q0 68 -40 108 q-40 40 -108 40 l-157 0 l0 -296 ZM103 0 l0 730 l223 0 q98 0 156.5 -56.5 q58.5 -56.5 58.5 -151.5 q0 -94 -58.5 -151 q-58.5 -57 -156.5 -57 l-157 0 l0 -314 l-66 0 Z" /><glyph glyph-name="Q" unicode="Q" d="M161 196 q0 -69 37.5 -108 q37.5 -39 102.5 -39 q64 0 101 39 q37 39 37 108 l0 338 q0 68 -37 107.5 q-37 39.5 -101 39.5 q-65 0 -102.5 -39 q-37.5 -39 -37.5 -108 l0 -338 ZM95 196 l0 338 q0 94 55.5 150 q55.5 56 150.5 56 q62 0 108 -26 q46 -26 71 -72.5 q25 -46.5 25 -107.5 l0 -338 q0 -65 -27.5 -113 q-27.5 -48 -76.5 -72 l115 -191 l-78 0 l-105 172 q-6 -1 -15 -1.5 q-9 -0.5 -17 -0.5 q-94 0 -150 56 q-56 56 -56 150 Z" /><glyph glyph-name="R" unicode="R" d="M169 381 l147 0 q66 0 106 39.5 q40 39.5 40 105.5 q0 66 -40 105 q-40 39 -106 39 l-147 0 l0 -289 ZM103 0 l0 730 l213 0 q97 0 155 -56 q58 -56 58 -149 q0 -78 -42 -130.5 q-42 -52.5 -113 -67.5 l162 -327 l-76 0 l-156 322 l-135 0 l0 -322 l-66 0 Z" /><glyph glyph-name="S" unicode="S" d="M80 200 l65 0 q0 -68 44 -109.5 q44 -41.5 116 -41.5 q67 0 109 38.5 q42 38.5 42 100.5 q0 52 -28 91 q-28 39 -78 54 l-105 31 q-68 20 -107 71 q-39 51 -39 118 q0 56 25.5 98 q25.5 42 71 65.5 q45.5 23.5 105.5 23.5 q60 0 106 -24.5 q46 -24.5 72 -68.5 q26 -44 26 -101 l-65 0 q0 60 -39 98 q-39 38 -100 38 q-61 0 -99 -35 q-38 -35 -38 -90 q0 -47 25.5 -82 q25.5 -35 71.5 -49 l106 -32 q71 -21 112 -76 q41 -55 41 -128 q0 -60 -27 -105 q-27 -45 -75.5 -70 q-48.5 -25 -112.5 -25 q-68 0 -118.5 26 q-50.5 26 -78.5 73 q-28 47 -28 111 Z" /><glyph glyph-name="T" unicode="T" d="M58 670 l0 60 l484 0 l0 -60 l-208 0 l0 -670 l-66 0 l0 670 l-210 0 Z" /><glyph glyph-name="U" unicode="U" d="M101 194 l0 536 l66 0 l0 -536 q0 -68 34.5 -106.5 q34.5 -38.5 99.5 -38.5 q64 0 98 38.5 q34 38.5 34 106.5 l0 536 l66 0 l0 -536 q0 -94 -52.5 -149 q-52.5 -55 -145.5 -55 q-94 0 -147 55.5 q-53 55.5 -53 148.5 Z" /><glyph glyph-name="V" unicode="V" d="M61 730 l68 0 l139 -529 q13 -47 21 -87.5 q8 -40.5 12 -61.5 q4 21 13 62 q9 41 21 88 l138 528 l66 0 l-195 -730 l-88 0 l-195 730 Z" /><glyph glyph-name="W" unicode="W" d="M32 730 l61 0 l63 -540 q4 -29 8 -71.5 q4 -42.5 6 -71.5 q4 29 8.5 71.5 q4.5 42.5 8.5 71.5 l77 540 l77 0 l73 -540 q4 -29 8.5 -71.5 q4.5 -42.5 8.5 -71.5 q2 19 5 45 l6 52 q3 26 5 46 l61 540 l60 0 l-90 -730 l-89 0 l-71 538 q-5 36 -9 77 q-4 41 -6 66 q-4 -25 -8 -65.5 q-4 -40.5 -9 -77.5 l-78 -538 l-87 0 l-89 730 Z" /><glyph glyph-name="X" unicode="X" d="M48 0 l214 376 l-201 354 l75 0 l119 -220 q9 -17 22.5 -41.5 q13.5 -24.5 23.5 -40.5 q9 16 22.5 40.5 q13.5 24.5 22.5 41.5 l121 220 l72 0 l-201 -350 l214 -380 l-75 0 l-131 244 q-9 16 -22.5 41 q-13.5 25 -23.5 42 q-9 -17 -22.5 -42 q-13.5 -25 -22.5 -41 l-134 -244 l-73 0 Z" /><glyph glyph-name="Y" unicode="Y" d="M44 730 l70 0 l156 -318 q11 -23 19 -41.5 q8 -18.5 12 -27.5 q4 8 11.5 27 q7.5 19 19.5 42 l156 318 l68 0 l-223 -453 l0 -277 l-66 0 l0 277 l-223 453 Z" /><glyph glyph-name="Z" unicode="Z" d="M88 0 l0 66 l347 604 l-343 0 l0 60 l408 0 l0 -70 l-345 -600 l357 0 l0 -60 l-424 0 Z" /><glyph glyph-name="underscore" unicode="_" d="M60 -25 l480 0 l0 -57 l-480 0 l0 57 Z" /><glyph glyph-name="a" unicode="a" d="M144 164 q0 -53 36 -85 q36 -32 98 -32 q70 0 111.5 36 q41.5 36 41.5 97 l0 90 l-177 0 q-49 0 -79.5 -30 q-30.5 -30 -30.5 -76 ZM77 160 q0 73 48 119 q48 46 126 46 l180 0 l0 50 q0 127 -128 127 q-59 0 -94.5 -25 q-35.5 -25 -38.5 -67 l-66 0 q4 66 57.5 108 q53.5 42 141.5 42 q94 0 144 -48 q50 -48 50 -136 l0 -376 l-65 0 l0 95 q-14 -48 -59.5 -76.5 q-45.5 -28.5 -112.5 -28.5 q-85 0 -134 47.5 q-49 47.5 -49 122.5 Z" /><glyph glyph-name="b" unicode="b" d="M169 193 q0 -69 35.5 -107.5 q35.5 -38.5 98.5 -38.5 q62 0 97.5 36.5 q35.5 36.5 35.5 107.5 l0 167 q0 71 -35.5 108 q-35.5 37 -97.5 37 q-64 0 -99 -39 q-35 -39 -35 -108 l0 -163 ZM103 0 l0 730 l66 0 l0 -154 l-1 -116 q14 46 54.5 73 q40.5 27 98.5 27 q82 0 131.5 -55 q49.5 -55 49.5 -147 l0 -167 q0 -92 -49.5 -146.5 q-49.5 -54.5 -131.5 -54.5 q-58 0 -98.5 26.5 q-40.5 26.5 -53.5 73.5 l0 -90 l-66 0 Z" /><glyph glyph-name="c" unicode="c" d="M102 194 l0 162 q0 94 56.5 149 q56.5 55 150.5 55 q92 0 147.5 -51.5 q55.5 -51.5 56.5 -138.5 l-66 0 q-1 62 -38 96 q-37 34 -100 34 q-65 0 -103 -37.5 q-38 -37.5 -38 -106.5 l0 -162 q0 -68 38 -106 q38 -38 103 -38 q63 0 100 34.5 q37 34.5 38 95.5 l66 0 q-1 -87 -56.5 -138.5 q-55.5 -51.5 -147.5 -51.5 q-95 0 -151 55 q-56 55 -56 149 Z" /><glyph glyph-name="d" unicode="d" d="M164 191 q0 -71 35.5 -107.5 q35.5 -36.5 97.5 -36.5 q63 0 98.5 38.5 q35.5 38.5 35.5 107.5 l0 163 q0 69 -35 108 q-35 39 -99 39 q-62 0 -97.5 -37 q-35.5 -37 -35.5 -108 l0 -167 ZM98 191 l0 167 q0 92 49.5 147 q49.5 55 131.5 55 q58 0 98.5 -27 q40.5 -27 54.5 -73 l-1 116 l0 154 l66 0 l0 -730 l-66 0 l0 90 q-13 -47 -53.5 -73.5 q-40.5 -26.5 -98.5 -26.5 q-82 0 -131.5 54.5 q-49.5 54.5 -49.5 146.5 Z" /><glyph glyph-name="e" unicode="e" d="M162 314 l276 0 l0 42 q0 69 -36 108.5 q-36 39.5 -101 39.5 q-67 0 -103 -39 q-36 -39 -36 -109 l0 -42 ZM97 198 l0 154 q0 96 55 152 q55 56 149 56 q93 0 147.5 -55.5 q54.5 -55.5 54.5 -148.5 l0 -96 l-341 0 l0 -66 q0 -67 36.5 -106.5 q36.5 -39.5 102.5 -39.5 q53 0 89 23.5 q36 23.5 43 65.5 l66 0 q-10 -68 -63.5 -107.5 q-53.5 -39.5 -134.5 -39.5 q-95 0 -149.5 56 q-54.5 56 -54.5 152 Z" /><glyph glyph-name="f" unicode="f" d="M61 415 l0 59 l166 0 l0 125 q0 61 37 96 q37 35 103 35 l156 0 l0 -60 l-156 0 q-36 0 -55 -18.5 q-19 -18.5 -19 -52.5 l0 -125 l230 0 l0 -59 l-230 0 l0 -415 l-66 0 l0 415 l-166 0 Z" /><glyph glyph-name="g" unicode="g" d="M164 237 q0 -66 35.5 -104 q35.5 -38 97.5 -38 q63 0 98.5 38.5 q35.5 38.5 35.5 107.5 l0 115 q0 69 -35 108 q-35 39 -99 39 q-62 0 -97.5 -38 q-35.5 -38 -35.5 -105 l0 -123 ZM98 239 l0 119 q0 92 49.5 147 q49.5 55 133.5 55 q59 0 99 -28 q40 -28 51 -77 l0 95 l66 0 l0 -559 q0 -82 -47 -126.5 q-47 -44.5 -133 -44.5 l-148 0 l0 60 l149 0 q54 0 83.5 28.5 q29.5 28.5 29.5 82.5 l0 47 l1 105 l-1 0 q-11 -49 -51 -76.5 q-40 -27.5 -99 -27.5 q-84 0 -133.5 54.5 q-49.5 54.5 -49.5 145.5 Z" /><glyph glyph-name="h" unicode="h" d="M103 0 l0 730 l66 0 l0 -276 q11 50 51 78 q40 28 99 28 q82 0 131 -52 q49 -52 49 -140 l0 -368 l-66 0 l0 358 q0 69 -35 107.5 q-35 38.5 -95 38.5 q-62 0 -98 -39.5 q-36 -39.5 -36 -108.5 l0 -356 l-66 0 Z" /><glyph glyph-name="i" unicode="i" d="M91 0 l0 60 l199 0 l0 430 l-176 0 l0 60 l242 0 l0 -490 l187 0 l0 -60 l-452 0 ZM269 668.5 q-17 15.5 -17 42.5 q0 27 17 43 q17 16 46 16 q29 0 46 -16 q17 -16 17 -43 q0 -27 -17 -42.5 q-17 -15.5 -46 -15.5 q-29 0 -46 15.5 Z" /><glyph glyph-name="j" unicode="j" d="M97 490 l0 60 l329 0 l0 -532 q0 -92 -54.5 -145 q-54.5 -53 -150.5 -53 l-119 0 l0 60 l119 0 q67 0 103 36 q36 36 36 102 l0 472 l-263 0 ZM334 668.5 q-17 15.5 -17 42.5 q0 27 17 43 q17 16 46 16 q29 0 46 -16 q17 -16 17 -43 q0 -27 -17 -42.5 q-17 -15.5 -46 -15.5 q-29 0 -46 15.5 Z" /><glyph glyph-name="k" unicode="k" d="M108 0 l0 730 l66 0 l0 -415 l119 0 l164 235 l76 0 l-181 -262 l191 -288 l-77 0 l-171 256 l-121 0 l0 -256 l-66 0 Z" /><glyph glyph-name="l" unicode="l" d="M42 670 l0 60 l250 0 l0 -587 q0 -40 21.5 -61.5 q21.5 -21.5 60.5 -21.5 l170 0 l0 -60 l-170 0 q-70 0 -109 38 q-39 38 -39 105 l0 527 l-184 0 Z" /><glyph glyph-name="m" unicode="m" d="M69 0 l0 550 l58 0 l0 -74 l2 0 q4 39 29 61.5 q25 22.5 64 22.5 q38 0 64.5 -22 q26.5 -22 36.5 -59 q5 38 30.5 59.5 q25.5 21.5 65.5 21.5 q51 0 81.5 -36.5 q30.5 -36.5 30.5 -97.5 l0 -426 l-63 0 l0 423 q0 38 -18.5 61 q-18.5 23 -50.5 23 q-32 0 -51 -22.5 q-19 -22.5 -19 -61.5 l0 -423 l-58 0 l0 423 q0 38 -18.5 61 q-18.5 23 -50.5 23 q-32 0 -51 -22.5 q-19 -22.5 -19 -61.5 l0 -423 l-63 0 Z" /><glyph glyph-name="n" unicode="n" d="M103 0 l0 550 l66 0 l0 -95 q12 49 51 77 q39 28 99 28 q82 0 131 -52 q49 -52 49 -140 l0 -368 l-66 0 l0 358 q0 69 -35 107.5 q-35 38.5 -95 38.5 q-62 0 -98 -39.5 q-36 -39.5 -36 -108.5 l0 -356 l-66 0 Z" /><glyph glyph-name="o" unicode="o" d="M163 195 q0 -70 36 -108 q36 -38 101 -38 q65 0 101 38 q36 38 36 108 l0 160 q0 70 -36.5 108 q-36.5 38 -100.5 38 q-64 0 -100.5 -38 q-36.5 -38 -36.5 -108 l0 -160 ZM97 199 l0 152 q0 97 55 152.5 q55 55.5 148 55.5 q93 0 148 -55.5 q55 -55.5 55 -152.5 l0 -152 q0 -97 -55 -152.5 q-55 -55.5 -148 -55.5 q-93 0 -148 55.5 q-55 55.5 -55 152.5 Z" /><glyph glyph-name="p" unicode="p" d="M169 194 q0 -69 35.5 -108 q35.5 -39 98.5 -39 q62 0 97.5 36.5 q35.5 36.5 35.5 108.5 l0 167 q0 71 -35.5 107.5 q-35.5 36.5 -97.5 36.5 q-63 0 -98.5 -38.5 q-35.5 -38.5 -35.5 -107.5 l0 -163 ZM103 -180 l0 730 l66 0 l0 -90 q13 46 53 73 q40 27 99 27 q82 0 131.5 -54.5 q49.5 -54.5 49.5 -146.5 l0 -167 q0 -92 -49.5 -147 q-49.5 -55 -131.5 -55 q-59 0 -99.5 27.5 q-40.5 27.5 -53.5 75.5 l1 -101 l0 -172 l-66 0 Z" /><glyph glyph-name="q" unicode="q" d="M164 190 q0 -70 35.5 -106.5 q35.5 -36.5 97.5 -36.5 q64 0 99 39 q35 39 35 108 l0 163 q0 69 -35.5 107.5 q-35.5 38.5 -98.5 38.5 q-62 0 -97.5 -36.5 q-35.5 -36.5 -35.5 -105.5 l0 -171 ZM98 192 l0 167 q0 92 49.5 146.5 q49.5 54.5 131.5 54.5 q57 0 97 -26 q40 -26 54 -71 l1 0 l0 87 l66 0 l0 -730 l-66 0 l0 154 l1 113 l-2 0 q-14 -45 -54 -71 q-40 -26 -97 -26 q-82 0 -131.5 55 q-49.5 55 -49.5 147 Z" /><glyph glyph-name="r" unicode="r" d="M124 0 l0 550 l66 0 l0 -93 q13 48 51 75.5 q38 27.5 96 27.5 q89 0 134.5 -51.5 q45.5 -51.5 45.5 -144.5 l0 -49 l-66 0 l0 49 q0 139 -130 139 q-64 0 -97.5 -38 q-33.5 -38 -33.5 -109 l0 -356 l-66 0 Z" /><glyph glyph-name="s" unicode="s" d="M88 141 l66 0 q5 -41 36.5 -66.5 q31.5 -25.5 82.5 -25.5 l61 0 q53 0 83 26 q30 26 30 71 q0 40 -21.5 67.5 q-21.5 27.5 -61.5 32.5 l-133 18 q-65 9 -100.5 45.5 q-35.5 36.5 -35.5 98.5 q0 70 48 110.5 q48 40.5 131 40.5 l50 0 q77 0 125.5 -38 q48.5 -38 54.5 -100 l-66 0 q-5 35 -35.5 58 q-30.5 23 -78.5 23 l-50 0 q-53 0 -83 -25 q-30 -25 -30 -68 q0 -72 84 -83 l128 -17 q66 -9 102.5 -51.5 q36.5 -42.5 36.5 -107.5 q0 -74 -47.5 -116.5 q-47.5 -42.5 -130.5 -42.5 l-61 0 q-82 0 -131.5 41 q-49.5 41 -53.5 109 Z" /><glyph glyph-name="t" unicode="t" d="M56 490 l0 60 l161 0 l0 155 l66 0 l0 -155 l228 0 l0 -60 l-228 0 l0 -357 q0 -35 19 -54 q19 -19 53 -19 l151 0 l0 -60 l-151 0 q-65 0 -101.5 35 q-36.5 35 -36.5 98 l0 357 l-161 0 Z" /><glyph glyph-name="u" unicode="u" d="M101 196 l0 354 l66 0 l0 -354 q0 -69 35.5 -108 q35.5 -39 96.5 -39 q62 0 98 39 q36 39 36 108 l0 354 l66 0 l0 -354 q0 -95 -54 -150.5 q-54 -55.5 -146 -55.5 q-92 0 -145 55.5 q-53 55.5 -53 150.5 Z" /><glyph glyph-name="v" unicode="v" d="M70 550 l71 0 l131 -394 q10 -29 17.5 -58.5 q7.5 -29.5 11.5 -46.5 q4 17 11.5 46.5 q7.5 29.5 17.5 58.5 l130 394 l70 0 l-188 -550 l-84 0 l-188 550 Z" /><glyph glyph-name="w" unicode="w" d="M42 550 l60 0 l63 -401 q5 -31 7.5 -56 q2.5 -25 3.5 -44 q2 19 5.5 44 q3.5 25 9.5 56 l76 401 l67 0 l76 -401 q5 -29 9.5 -54.5 q4.5 -25.5 5.5 -45.5 q2 20 4.5 45.5 q2.5 25.5 6.5 54.5 l64 401 l58 0 l-94 -550 l-80 0 l-66 387 q-5 27 -10.5 59.5 q-5.5 32.5 -6.5 52.5 q-2 -20 -7.5 -52.5 q-5.5 -32.5 -10.5 -59.5 l-70 -387 l-79 0 l-92 550 Z" /><glyph glyph-name="x" unicode="x" d="M65 0 l196 282 l-184 268 l78 0 l123 -188 q6 -9 12.5 -20.5 q6.5 -11.5 10.5 -18.5 q4 7 10.5 18.5 q6.5 11.5 12.5 20.5 l123 188 l77 0 l-184 -268 l195 -282 l-77 0 l-132 198 q-7 10 -14 22.5 q-7 12.5 -12 19.5 q-4 -7 -11.5 -19.5 q-7.5 -12.5 -14.5 -22.5 l-132 -198 l-77 0 Z" /><glyph glyph-name="y" unicode="y" d="M67 550 l73 0 l133 -346 q10 -25 19.5 -50.5 q9.5 -25.5 13.5 -40.5 q5 15 13.5 41 q8.5 26 17.5 51 l125 345 l71 0 l-274 -730 l-68 0 l81 217 l-205 513 Z" /><glyph glyph-name="z" unicode="z" d="M98 0 l0 64 l317 426 l-309 0 l0 60 l384 0 l0 -64 l-321 -426 l333 0 l0 -60 l-404 0 Z" /><glyph glyph-name="braceleft" unicode="{" d="M84 330 l0 59 l123 0 q63 0 85 23 q17 17 17 51 q0 12 -2 26 l-26 185 q-2 13 -2 24 q0 34 15 60 q20 35 59.5 53.5 q39.5 18.5 91.5 18.5 l51 0 l0 -59 l-51 0 q-47 1 -75 -25 q-24 -21 -24 -57 q0 -7 1 -15 l26 -185 q2 -12 2 -23 q-1 -36 -21 -62 q-26 -34 -78 -42 q52 -8 78 -44 q20 -27 21 -65 q0 -11 -2 -23 l-26 -184 q-1 -8 -1 -15 q0 -35 24 -57 q28 -26 75 -25 l51 0 l0 -59 l-51 0 q-52 0 -91.5 18.5 q-39.5 18.5 -59.5 53.5 q-15 26 -15 60 q0 12 2 24 l26 184 q2 14 2 27 q1 33 -15 49 q-22 24 -87 24 l-123 0 Z" /><glyph glyph-name="braceright" unicode="}" d="M104 -51 l50 0 q46 -1 76 25 q23 20 24 53 q0 9 -2 19 l-29 184 q-2 13 -2 24 q0 36 19 64 q25 36 68 44 q-43 8 -68 42 q-19 25 -19 61 q0 11 2 24 l29 185 q2 10 2 19 q0 33 -24 53 q-30 26 -76 25 l-50 0 l0 59 l50 0 q53 0 92.5 -18.5 q39.5 -18.5 59.5 -53.5 q14 -25 14 -57 q0 -13 -2 -27 l-29 -185 q-2 -14 -2 -26 q1 -34 17 -51 q22 -23 85 -23 l127 0 l0 -59 l-127 0 q-65 0 -87 -24 q-16 -17 -16 -48 q0 -13 3 -28 l29 -184 q2 -14 2 -27 q0 -32 -14 -57 q-20 -35 -59.5 -53.5 q-39.5 -18.5 -92.5 -18.5 l-50 0 l0 59 Z" /><glyph glyph-name="uni3001" unicode="&#x3001;" d="M75 159.5 q-3 6.5 -2.5 13 q0.5 6.5 2.5 12.5 q2 6 7 11 l5 4 q8 7 20.5 7 q12.5 0 20.5 -7 q45 -38 92.5 -85 q47.5 -47 92.5 -96 q4 -5 5.5 -11 q1.5 -6 1.5 -12 q0 -6 -2.5 -12 q-2.5 -6 -7.5 -10 l-5 -4 q-5 -4 -11.5 -5.5 q-6.5 -1.5 -13 -1.5 q-6.5 0 -12 3 q-5.5 3 -9.5 7 q-41 48 -87 94 q-46 46 -89 82 q-5 4 -8 10.5 Z" /><glyph glyph-name="uni3002" unicode="&#x3002;" d="M89 97 q0 -22 8.5 -41.5 q8.5 -19.5 23 -33.5 q14.5 -14 33.5 -22 q19 -8 40 -8 q23 0 42 8 q19 8 33 22.5 q14 14.5 22.5 33.5 q8.5 19 8.5 41 q0 22 -8.5 41 q-8.5 19 -22.5 33.5 q-14 14.5 -33 22.5 q-19 8 -42 8 q-21 0 -40 -8 q-19 -8 -33.5 -22.5 q-14.5 -14.5 -23 -34 q-8.5 -19.5 -8.5 -40.5 ZM57 39 q-12 27 -12 58 q0 31 12 58 q12 27 32.5 47.5 q20.5 20.5 47.5 32 q27 11.5 57 11.5 q32 0 59 -11.5 q27 -11.5 47.5 -32 q20.5 -20.5 32 -47.5 q11.5 -27 11.5 -58 q0 -31 -11.5 -58 q-11.5 -27 -32 -47.5 q-20.5 -20.5 -47.5 -32 q-27 -11.5 -59 -11.5 q-30 0 -57 11.5 q-27 11.5 -47.5 32 q-20.5 20.5 -32.5 47.5 Z" /><glyph glyph-name="uni300A" unicode="&#x300a;" d="M690 370 q-2 3 -2 10 q0 7 2 10 l214 428 q5 9 14.5 15 q9.5 6 17.5 4 q5 -2 8 -6 q3 -4 4 -9.5 q1 -5.5 1 -12 q0 -6.5 -3 -12.5 l-207 -412 q-2 -2 -2 -5 q0 -3 2 -5 l207 -412 q3 -6 3 -12.5 q0 -6.5 -1 -12 q-1 -5.5 -4 -9.5 q-3 -4 -8 -6 q-8 -2 -17.5 4 q-9.5 6 -14.5 15 l-214 428 ZM538 370 q-2 3 -2 10 q0 7 2 10 l213 428 q5 9 15 15 q10 6 17 4 q5 -2 8 -6 q3 -4 4.5 -9.5 q1.5 -5.5 1 -12 q-0.5 -6.5 -3.5 -12.5 l-207 -412 q-2 -2 -2 -5 q0 -3 2 -5 l207 -412 q3 -6 3.5 -12.5 q0.5 -6.5 -1 -12 q-1.5 -5.5 -4.5 -9.5 q-3 -4 -8 -6 q-7 -2 -17 4 q-10 6 -15 15 l-213 428 Z" /><glyph glyph-name="uni300B" unicode="&#x300b;" d="M204 -61.5 q-1 5.5 -0.5 12 q0.5 6.5 2.5 12.5 l207 412 q2 2 2 5 q0 3 -2 5 l-207 412 q-2 6 -2.5 12.5 q-0.5 6.5 0.5 12 q1 5.5 4 9.5 q3 4 8 6 q7 2 17 -4 q10 -6 15 -15 l214 -428 q2 -3 2 -10 q0 -7 -2 -10 l-214 -428 q-5 -9 -15 -15 q-10 -6 -17 -4 q-5 2 -8 6 q-3 4 -4 9.5 ZM51.5 -61.5 q-1.5 5.5 -1 12 q0.5 6.5 2.5 12.5 l208 412 q1 2 1 5 q0 3 -1 5 l-208 412 q-2 6 -2.5 12.5 q-0.5 6.5 1 12 q1.5 5.5 4.5 9.5 q3 4 8 6 q7 2 17 -4 q10 -6 14 -15 l214 -428 q2 -3 2 -10 q0 -7 -2 -10 l-214 -428 q-4 -9 -14 -15 q-10 -6 -17 -4 q-5 2 -8 6 q-3 4 -4.5 9.5 Z" /><glyph glyph-name="uni300C" unicode="&#x300c;" d="M654 226 l0 586 q0 6 2.5 11.5 q2.5 5.5 7 10.5 q4.5 5 10.5 7.5 q6 2.5 12 2.5 l245 0 q7 0 12.5 -2 q5.5 -2 10.5 -6.5 q5 -4.5 7.5 -9.5 q2.5 -5 2.5 -10 q0 -5 -2.5 -10 q-2.5 -5 -7.5 -9 q-5 -4 -10.5 -6.5 q-5.5 -2.5 -12.5 -2.5 l-213 0 q-2 0 -4 -2 q-2 -2 -2 -4 l0 -557 q0 -5 -2 -10.5 q-2 -5.5 -6.5 -10 q-4.5 -4.5 -9.5 -7 q-5 -2.5 -10.5 -2.5 q-5.5 0 -11 2.5 q-5.5 2.5 -9.5 7 q-4 4.5 -6.5 10.5 q-2.5 6 -2.5 11 Z" /><glyph glyph-name="uni300D" unicode="&#x300d;" d="M38.5 -66 q-2.5 5 -2.5 10 q0 5 2.5 10 q2.5 5 7.5 9 q5 4 10.5 6.5 q5.5 2.5 12.5 2.5 l213 0 q2 0 4 2 q2 2 2 4 l0 557 q0 5 2.5 10.5 q2.5 5.5 6.5 10 q4 4.5 9.5 7 q5.5 2.5 11 2.5 q5.5 0 10.5 -2.5 q5 -2.5 9.5 -7 q4.5 -4.5 6.5 -10.5 q2 -6 2 -11 l0 -586 q0 -6 -2.5 -11.5 q-2.5 -5.5 -7 -10.5 q-4.5 -5 -10.5 -7.5 q-6 -2.5 -12 -2.5 l-245 0 q-7 0 -12.5 2.5 q-5.5 2.5 -10.5 6.5 q-5 4 -7.5 9 Z" /><glyph glyph-name="uni300E" unicode="&#x300e;" d="M628 216 q0 -2 2 -4 q2 -2 5 -2 l91 0 q3 0 5 2 q2 2 2 4 l0 476 q0 7 3 12.5 q3 5.5 7.5 10 q4.5 4.5 10 7.5 q5.5 3 11.5 3 l163 0 q3 0 5 2 q2 2 2 4 l0 78 q0 2 -2 4 q-2 2 -4 2 l-295 0 q-2 0 -4 -2 q-2 -2 -2 -5 l0 -592 ZM599 212 l0 600 q0 6 3 11.5 q3 5.5 7.5 10.5 q4.5 5 10 7.5 q5.5 2.5 11.5 2.5 l301 0 q6 0 11.5 -2.5 q5.5 -2.5 10.5 -7 q5 -4.5 7.5 -10.5 q2.5 -6 2.5 -12 l0 -84 q0 -6 -2.5 -12 q-2.5 -6 -7.5 -10.5 q-5 -4.5 -10.5 -7 q-5.5 -2.5 -11.5 -2.5 l-163 0 q-3 0 -5 -2 q-2 -2 -2 -4 l0 -477 q0 -6 -2.5 -12 q-2.5 -6 -7 -10.5 q-4.5 -4.5 -10 -7 q-5.5 -2.5 -12.5 -2.5 l-98 0 q-7 0 -12.5 2.5 q-5.5 2.5 -10 7 q-4.5 4.5 -7.5 10.5 q-3 6 -3 11 Z" /><glyph glyph-name="uni300F" unicode="&#x300f;" d="M65 29 l0 -78 q0 -2 2 -4 q2 -2 4 -2 l295 0 q2 0 4 2 q2 2 2 5 l0 592 q0 2 -2 4 q-2 2 -5 2 l-91 0 q-3 0 -5 -2 q-2 -2 -2 -4 l0 -476 q0 -7 -3 -12.5 q-3 -5.5 -7.5 -10 q-4.5 -4.5 -10 -7.5 q-5.5 -3 -11.5 -3 l-163 0 q-3 0 -5 -2 q-2 -2 -2 -4 ZM36 32 q0 6 2.5 12 q2.5 6 7.5 10.5 q5 4.5 10.5 7 q5.5 2.5 11.5 2.5 l163 0 q3 0 5 2 q2 2 2 4 l0 477 q0 6 2.5 12 q2.5 6 7 10.5 q4.5 4.5 10.5 7 q6 2.5 12 2.5 l98 0 q7 0 12.5 -2.5 q5.5 -2.5 10 -7 q4.5 -4.5 7.5 -10.5 q3 -6 3 -11 l0 -600 q0 -6 -3 -11.5 q-3 -5.5 -7.5 -10.5 q-4.5 -5 -10 -7.5 q-5.5 -2.5 -11.5 -2.5 l-301 0 q-6 0 -11.5 2.5 q-5.5 2.5 -10.5 7 q-5 4.5 -7.5 10.5 q-2.5 6 -2.5 12 l0 84 Z" /><glyph glyph-name="uni3010" unicode="&#x3010;" d="M668 -52 l0 864 q0 6 2.5 11.5 q2.5 5.5 7.5 10.5 q5 5 10.5 7.5 q5.5 2.5 11.5 2.5 l232 0 q12 0 22 -0.5 q10 -0.5 10 -1.5 q0 -2 -2.5 -4.5 q-2.5 -2.5 -6.5 -5.5 q-39 -35 -73.5 -82 q-34.5 -47 -60.5 -103.5 q-26 -56.5 -40.5 -123.5 q-14.5 -67 -14.5 -143 q0 -74 14.5 -140.5 q14.5 -66.5 40.5 -124 q26 -57.5 60.5 -105 q34.5 -47.5 73.5 -82.5 q4 -3 6.5 -5.5 q2.5 -2.5 2.5 -3.5 q0 -2 -10 -2.5 q-10 -0.5 -22 -0.5 l-232 0 q-6 0 -11.5 2.5 q-5.5 2.5 -10.5 7.5 q-5 5 -7.5 10.5 q-2.5 5.5 -2.5 11.5 Z" /><glyph glyph-name="uni3011" unicode="&#x3011;" d="M36 -81 q0 1 2.5 3.5 q2.5 2.5 6.5 5.5 q39 35 73.5 82 q34.5 47 60.5 103.5 q26 56.5 40.5 123.5 q14.5 67 14.5 143 q0 74 -14.5 140.5 q-14.5 66.5 -40.5 124 q-26 57.5 -60.5 105 q-34.5 47.5 -73.5 82.5 q-4 3 -6.5 5.5 q-2.5 2.5 -2.5 4.5 q0 1 10 1.5 q10 0.5 22 0.5 l232 0 q6 0 11.5 -2.5 q5.5 -2.5 10.5 -7.5 q5 -5 7.5 -10.5 q2.5 -5.5 2.5 -11.5 l0 -864 q0 -6 -2.5 -11.5 q-2.5 -5.5 -7.5 -10.5 q-5 -5 -10.5 -7.5 q-5.5 -2.5 -11.5 -2.5 l-232 0 q-12 0 -22 0.5 q-10 0.5 -10 2.5 Z" /><glyph glyph-name="uni4E00" unicode="&#x4e00;" d="M46 389 l0 4 q0 5 2.5 10.5 q2.5 5.5 7.5 9.5 q5 4 10.5 7 q5.5 3 11.5 3 l848 0 q6 0 12 -3 q6 -3 10.5 -7 q4.5 -4 7 -9.5 q2.5 -5.5 2.5 -10.5 l0 -4 q0 -6 -2.5 -12 q-2.5 -6 -7 -10 q-4.5 -4 -10.5 -6.5 q-6 -2.5 -12 -2.5 l-848 0 q-6 0 -11.5 2.5 q-5.5 2.5 -10.5 6.5 q-5 4 -7.5 10 q-2.5 6 -2.5 12 Z" /><glyph glyph-name="uni4E01" unicode="&#x4e01;" d="M63 708 l0 3 q0 6 2.5 11 q2.5 5 7 9 q4.5 4 10.5 6 q6 2 12 2 l809 0 q7 0 12.5 -2 q5.5 -2 10.5 -6 q5 -4 7.5 -9 q2.5 -5 2.5 -11 l0 -3 q0 -5 -2.5 -10 q-2.5 -5 -7.5 -9.5 q-5 -4.5 -10.5 -7 q-5.5 -2.5 -12.5 -2.5 l-341 0 l0 -649 q0 -40 -13 -59 q-13 -19 -42 -27 q-27 -7 -77 -8.5 q-50 -1.5 -130 -2.5 q-9 0 -18 6.5 q-9 6.5 -12 14.5 q0 1 -0.5 2 q-0.5 1 -0.5 2 q-7 16 1.5 28.5 q8.5 12.5 26.5 11.5 q48 -2 85 -2 q9 0 34.5 0.5 q25.5 0.5 45.5 2.5 q19 1 26.5 7 q7.5 6 7.5 24 l0 649 l-402 0 q-6 0 -12 2.5 q-6 2.5 -10.5 7 q-4.5 4.5 -7 9.5 q-2.5 5 -2.5 10 Z" /><glyph glyph-name="uni4E03" unicode="&#x4e03;" d="M57 402 l0 2 q-1 6 1 11 q2 5 5.5 10 q3.5 5 9 8.5 q5.5 3.5 11.5 3.5 l260 43 l0 310 q0 6 2 11 q2 5 6.5 10 q4.5 5 10 7.5 q5.5 2.5 10.5 2.5 l4 0 q6 0 11 -2.5 q5 -2.5 9 -7 q4 -4.5 6.5 -10 q2.5 -5.5 2.5 -11.5 l0 -299 l503 83 q5 1 10.5 -1 q5.5 -2 11 -5 q5.5 -3 9 -7.5 q3.5 -4.5 4.5 -10.5 l1 -2 q0 -5 -1.5 -11 q-1.5 -6 -5.5 -10.5 q-4 -4.5 -9 -8.5 q-5 -4 -12 -4 l-511 -84 l0 -335 q0 -23 3.5 -37.5 q3.5 -14.5 13 -23.5 q9.5 -9 26.5 -12 q17 -3 45 -3 l277 0 q22 0 36.5 5.5 q14.5 5.5 23.5 20 q9 14.5 13.5 39.5 q4.5 25 7.5 62 q2 19 14.5 26.5 q12.5 7.5 28.5 1.5 q9 -3 15 -13.5 q6 -10.5 5 -19.5 q-5 -50 -12 -85 q-7 -35 -22 -56 q-15 -21 -41.5 -30.5 q-26.5 -9.5 -69.5 -9.5 l-276 0 q-43 0 -72 6 q-29 6 -46.5 21.5 q-17.5 15.5 -24.5 41.5 q-7 26 -7 67 l0 324 l-251 -41 q-6 -1 -11.5 1 q-5.5 2 -10.5 5 q-5 3 -9 7.5 q-4 4.5 -5 9.5 Z" /><glyph glyph-name="uni4E07" unicode="&#x4e07;" d="M67 -60 q-10 10 -7 24 q3 14 16 24 q92 57 144.5 138 q52.5 81 80 174 q27.5 93 35.5 192 q8 99 11 191 q0 5 2 11 q2 4 4 7 l-257 0 q-6 0 -12 2.5 q-6 2.5 -10.5 6.5 q-4.5 4 -7 9.5 q-2.5 5.5 -2.5 10.5 q0 6 2.5 11 q2.5 5 7 9.5 q4.5 4.5 10.5 6.5 q6 2 12 2 l809 0 q6 0 12 -2 q6 -2 10.5 -6.5 q4.5 -4.5 7 -9.5 q2.5 -5 2.5 -11 q0 -5 -2.5 -10.5 q-2.5 -5.5 -7 -9.5 q-4.5 -4 -10.5 -6.5 q-6 -2.5 -12 -2.5 l-504 0 q2 -3 4 -8 q2 -6 2 -11 q-3 -98 -12 -202 q5 2 10 2 l405 0 q6 0 12 -2.5 q6 -2.5 10.5 -6.5 q4.5 -4 7 -9.5 q2.5 -5.5 2.5 -10.5 q0 -3 -1 -6 q-6 -122 -13 -207 q-7 -86 -15.5 -142.5 q-8.5 -56.5 -19.5 -89 q-11 -32.5 -26 -47.5 q-16 -18 -34 -24 q-18 -6 -46 -8 q-12 -1 -27 -1 q-16 0 -46 1 q-30 1 -76 3 q-10 0 -19.5 7 q-9.5 7 -11.5 16 q-4 15 5 24 q9 9 25 9 q3 0 6 0 q21 -1 39 -2 q18 -1 34 -1.5 q16 -0.5 29 -0.5 l22 0 q18 0 28.5 2 q10.5 2 18.5 10 q13 12 23 42.5 q10 30.5 17.5 86.5 q7.5 56 14.5 141 q5 68 10 158 l-374 0 q-5 0 -11 3 q-3 1 -5 2 q-11 -83 -35 -161 q-31 -100 -89 -186 q-58 -86 -158 -145 q-4 -3 -10 -4.5 q-6 -1.5 -11.5 -1 q-5.5 0.5 -10 3 q-4.5 2.5 -8.5 5.5 Z" /><glyph glyph-name="uni4E09" unicode="&#x4e09;" d="M187 381 l0 1 q0 5 2.5 10.5 q2.5 5.5 7 9.5 q4.5 4 10.5 6 q6 2 11 2 l551 0 q6 0 11.5 -2 q5.5 -2 10 -6 q4.5 -4 7.5 -9.5 q3 -5.5 3 -10.5 l0 -1 q0 -6 -3 -11 q-3 -5 -7.5 -9.5 q-4.5 -4.5 -10 -7 q-5.5 -2.5 -11.5 -2.5 l-551 0 q-5 0 -11 2.5 q-6 2.5 -10.5 7 q-4.5 4.5 -7 9.5 q-2.5 5 -2.5 11 ZM124 709 l0 1 q0 6 3 11 q3 5 7.5 9.5 q4.5 4.5 10.5 6.5 q6 2 11 2 l691 0 q6 0 11.5 -2 q5.5 -2 10 -6.5 q4.5 -4.5 7.5 -9.5 q3 -5 3 -11 l0 -1 q0 -5 -3 -10.5 q-3 -5.5 -7.5 -10 q-4.5 -4.5 -10 -6.5 q-5.5 -2 -11.5 -2 l-691 0 q-5 0 -11 2 q-6 2 -10.5 6.5 q-4.5 4.5 -7.5 10 q-3 5.5 -3 10.5 ZM66 30 l0 1 q0 6 3 11 q3 5 7.5 9 q4.5 4 10 6.5 q5.5 2.5 12.5 2.5 l802 0 q7 0 12.5 -2.5 q5.5 -2.5 10 -6.5 q4.5 -4 7.5 -9 q3 -5 3 -11 l0 -1 q0 -6 -3 -11 q-3 -5 -7.5 -9.5 q-4.5 -4.5 -10 -6.5 q-5.5 -2 -12.5 -2 l-802 0 q-7 0 -12.5 2 q-5.5 2 -10 6.5 q-4.5 4.5 -7.5 9.5 q-3 5 -3 11 Z" /><glyph glyph-name="uni4E0A" unicode="&#x4e0a;" d="M54 0 l0 1 q0 6 2.5 11 q2.5 5 7 9 q4.5 4 10 6.5 q5.5 2.5 11.5 2.5 l351 0 l0 759 q0 6 2 12 q2 6 6.5 10.5 q4.5 4.5 9.5 7 q5 2.5 11 2.5 l4 0 q5 0 10 -2.5 q5 -2.5 9 -7 q4 -4.5 6.5 -10.5 q2.5 -6 2.5 -12 l0 -285 q2 1 4 1 l347 0 q6 0 11.5 -2.5 q5.5 -2.5 10 -6.5 q4.5 -4 7 -9 q2.5 -5 2.5 -11 l0 -1 q0 -6 -2.5 -11 q-2.5 -5 -7 -9.5 q-4.5 -4.5 -10 -6.5 q-5.5 -2 -11.5 -2 l-351 0 l0 -416 l419 0 q6 0 11.5 -2.5 q5.5 -2.5 10 -6.5 q4.5 -4 7 -9 q2.5 -5 2.5 -11 l0 -1 q0 -6 -2.5 -11 q-2.5 -5 -7 -9.5 q-4.5 -4.5 -10 -6.5 q-5.5 -2 -11.5 -2 l-831 0 q-6 0 -11.5 2 q-5.5 2 -10 6.5 q-4.5 4.5 -7 9.5 q-2.5 5 -2.5 11 Z" /><glyph glyph-name="uni4E0B" unicode="&#x4e0b;" d="M57 732 l0 1 q0 6 2.5 11 q2.5 5 7 9.5 q4.5 4.5 10 7 q5.5 2.5 11.5 2.5 l825 0 q6 0 11.5 -2.5 q5.5 -2.5 10 -7 q4.5 -4.5 7 -9.5 q2.5 -5 2.5 -11 l0 -1 q0 -5 -2.5 -10.5 q-2.5 -5.5 -7 -9.5 q-4.5 -4 -10 -6.5 q-5.5 -2.5 -11.5 -2.5 l-405 0 q1 -1 1 -2 q2 -6 2 -12 l0 -173 q5 4 14 5 q11 2 19 -2 q41 -20 84.5 -43.5 q43.5 -23.5 85.5 -47.5 q42 -24 80 -47.5 q38 -23.5 67 -43.5 q5 -4 8 -9 q3 -5 4 -11 q1 -6 0.5 -11.5 q-0.5 -5.5 -4.5 -9.5 l-4 -5 q-4 -5 -9.5 -8 q-5.5 -3 -12 -3.5 q-6.5 -0.5 -12.5 1 q-6 1.5 -11 5.5 q-29 20 -64.5 43 q-35.5 23 -75 47 q-39.5 24 -81 47.5 q-41.5 23.5 -80.5 43.5 q-4 2 -8 5 l0 -516 q0 -6 -2 -11.5 q-2 -5.5 -6 -10 q-4 -4.5 -9 -7.5 q-5 -3 -11 -3 l-4 0 q-5 0 -10.5 3 q-5.5 3 -9.5 7.5 q-4 4.5 -6.5 10 q-2.5 5.5 -2.5 11.5 l0 733 q0 6 2 12 q1 1 1 2 l-365 0 q-6 0 -11.5 2.5 q-5.5 2.5 -10 6.5 q-4.5 4 -7 9.5 q-2.5 5.5 -2.5 10.5 Z" /><glyph glyph-name="uni4E0D" unicode="&#x4e0d;" d="M585.5 476.5 q-3.5 6.5 -4 12.5 q-0.5 6 1.5 12 q2 6 6 10 l1 1 q7 6 17.5 6 q10.5 0 18.5 -5 q41 -25 83.5 -54 q42.5 -29 83 -59 q40.5 -30 76.5 -59 q36 -29 64 -55 q4 -4 6.5 -9.5 q2.5 -5.5 2.5 -12 q0 -6.5 -1.5 -12 q-1.5 -5.5 -6.5 -8.5 l-3 -4 q-5 -4 -11 -6 q-6 -2 -12.5 -1.5 q-6.5 0.5 -12 3 q-5.5 2.5 -10.5 7.5 q-26 25 -60 53.5 q-34 28.5 -72 57.5 q-38 29 -78.5 57.5 q-40.5 28.5 -79.5 54.5 q-6 4 -9.5 10.5 ZM73 223 q-5 5 -6 12 q-1 7 0.5 13.5 q1.5 6.5 6 12.5 q4.5 6 11.5 10 q73 41 139.5 92 q66.5 51 124.5 108.5 q58 57.5 107 120.5 q43 56 75 113 l-428 0 q-6 0 -12 2.5 q-6 2.5 -10.5 7 q-4.5 4.5 -7 9.5 q-2.5 5 -2.5 11 l0 1 q0 6 2.5 11 q2.5 5 7 9.5 q4.5 4.5 10.5 6.5 q6 2 12 2 l794 0 q6 0 11.5 -2 q5.5 -2 10.5 -6.5 q5 -4.5 7.5 -9.5 q2.5 -5 2.5 -11 l0 -1 q0 -6 -2.5 -11 q-2.5 -5 -7.5 -9.5 q-5 -4.5 -10.5 -7 q-5.5 -2.5 -11.5 -2.5 l-295 0 l0 -2 q0 -7 -4 -12 q-32 -54 -70 -107 q2 -6 2 -15 l0 -612 q0 -6 -2 -12 q-2 -6 -6.5 -10.5 q-4.5 -4.5 -9.5 -7 q-5 -2.5 -11 -2.5 l-4 0 q-6 0 -11 2.5 q-5 2.5 -9 7 q-4 4.5 -7 10.5 q-3 6 -3 12 l0 551 q-36 -42 -76 -82 q-62 -61 -132 -114.5 q-70 -53.5 -146 -96.5 q-4 -3 -10 -4 q-6 -1 -11.5 0.5 q-5.5 1.5 -10.5 4 q-5 2.5 -8 6.5 l0 1 Z" /><glyph glyph-name="uni4E0E" unicode="&#x4e0e;" d="M182 396 q-4 5 -5 12.5 q-1 7.5 1 14.5 q10 38 21 83 q11 45 22 93 l21 95 q10 47 18 89 q1 6 4 11 q3 5 7.5 8.5 q4.5 3.5 10 5.5 q5.5 2 10.5 2 l1 0 q6 -1 11 -4.5 q5 -3.5 8.5 -8.5 q3.5 -5 5 -11.5 q1.5 -6.5 0.5 -11.5 q-8 -39 -17 -82 l539 0 q6 0 12 -2 q6 -2 10.5 -6 q4.5 -4 7 -9 q2.5 -5 2.5 -10.5 q0 -5.5 -2.5 -10.5 q-2.5 -5 -7 -9.5 q-4.5 -4.5 -10.5 -7 q-6 -2.5 -12 -2.5 l-541 0 q-5 0 -10 2 q-6 -28 -12 -55 q-11 -49 -22 -94 q-6 -26 -12 -48 l608 0 q6 0 12 -2 q6 -2 10.5 -6.5 q4.5 -4.5 7 -9.5 q2.5 -5 2.5 -10 q0 -5 -3 -10 q0 -1 -1 -2 q-10 -102 -21 -176 q-12 -77 -24 -129 q-12 -52 -25.5 -82.5 q-13.5 -30.5 -30.5 -46.5 q-18 -18 -37.5 -23.5 q-19.5 -5.5 -49.5 -7.5 q-11 -1 -27 -1 q-16 0 -45.5 1 q-29.5 1 -75.5 4 q-11 0 -20.5 7 q-9.5 7 -11.5 16 q-5 15 4.5 24.5 q9.5 9.5 26.5 9.5 q2 0 4 0 q22 -1 41 -2 q19 -1 35 -2 q16 -1 30 -1 l23 0 q20 0 31.5 2 q11.5 2 20.5 10 q15 12 28 41.5 q13 29.5 24.5 79.5 q11.5 50 21.5 124 q8 59 16 136 l-570 0 q-6 0 -11 2 q-6 3 -10 6 q-1 -1 -2 -1 q-9 -7 -17 -7 l-2 0 q-7 0 -13 3.5 q-6 3.5 -10 8.5 ZM60 201 q0 6 3 11 q3 5 7.5 9 q4.5 4 10 6.5 q5.5 2.5 10.5 2.5 l562 0 q5 0 10.5 -2.5 q5.5 -2.5 10 -6.5 q4.5 -4 7 -9 q2.5 -5 2.5 -10.5 q0 -5.5 -2.5 -10.5 q-2.5 -5 -7 -9 q-4.5 -4 -10 -7 q-5.5 -3 -10.5 -3 l-562 0 q-5 0 -10.5 3 q-5.5 3 -10 7 q-4.5 4 -7.5 9 q-3 5 -3 10 Z" /><glyph glyph-name="uni4E13" unicode="&#x4e13;" d="M59 502 q0 5 2.5 10 q2.5 5 7 9.5 q4.5 4.5 10.5 6.5 q6 2 11 2 l248 0 q7 18 13 36 q16 48 31 95 l-212 0 q-5 0 -11 2.5 q-6 2.5 -10.5 7 q-4.5 4.5 -7.5 9.5 q-3 5 -3 10.5 q0 5.5 3 10.5 q3 5 7.5 8.5 q4.5 3.5 10.5 6 q6 2.5 11 2.5 l230 0 q15 48 28 91 q2 6 5.5 10.5 q3.5 4.5 8.5 8 q5 3.5 10 5 q5 1.5 9 1.5 l2 -1 q6 -1 11 -4.5 q5 -3.5 8 -9 q3 -5.5 4 -12 q1 -6.5 -1 -12.5 q-11 -37 -24 -77 l359 0 q6 0 12 -2.5 q6 -2.5 10.5 -6 q4.5 -3.5 7 -8.5 q2.5 -5 2.5 -10.5 q0 -5.5 -2.5 -10.5 q-2.5 -5 -7 -9.5 q-4.5 -4.5 -10.5 -7 q-6 -2.5 -12 -2.5 l-377 0 q-20 -59 -39 -118 q-2 -6 -5 -13 l493 0 q6 0 12 -2 q6 -2 10.5 -6.5 q4.5 -4.5 7 -9.5 q2.5 -5 2.5 -10.5 q0 -5.5 -2.5 -10.5 q-2.5 -5 -7 -9 q-4.5 -4 -10.5 -6.5 q-6 -2.5 -12 -2.5 l-512 0 q-10 -27 -19 -53 q-13 -37 -25 -69 l424 0 q6 0 11 -2 q2 -1 3 -2 q1 2 3 3 q3 1 6 1 q1 0 3 0.5 q2 0.5 4 0.5 q3 2 8 0.5 q5 -1.5 9 -3.5 l4 -3 q6 -3 9.5 -9 q3.5 -6 4 -12 q0.5 -6 -1.5 -12.5 q-2 -6.5 -8 -12.5 q-27 -27 -58.5 -58 q-31.5 -31 -65.5 -64 q-34 -33 -68 -67 q-29 -28 -56 -53 q28 -12 54 -24 q48 -22 85 -43 q6 -3 10.5 -8 q4.5 -5 5.5 -11.5 q1 -6.5 0.5 -13 q-0.5 -6.5 -4.5 -10.5 l-1 -1 q-6 -9 -19 -11.5 q-13 -2.5 -22 2.5 q-33 19 -77.5 40.5 q-44.5 21.5 -93.5 43 q-49 21.5 -100.5 41.5 q-51.5 20 -101.5 37 q-7 3 -12.5 7.5 q-5.5 4.5 -8.5 10.5 q-3 6 -2 12.5 q1 6.5 5 11.5 q4 5 13 8 q9 3 16 1 q50 -15 103 -35 q47 -17 93 -35 q3 5 8 10 q33 32 69 66 q36 34 69 67 q33 33 63 62 l9 9 l-396 0 q-6 0 -12 2 q-4 2 -8 5 l-1 -1 q-8 -6 -15 -6 l-3 0 q-7 0 -13 3.5 q-6 3.5 -9.5 9.5 q-3.5 6 -4 13 q-0.5 7 1.5 14 q19 50 40 109 q5 14 10 29 l-228 0 q-5 0 -11 2.5 q-6 2.5 -10.5 6.5 q-4.5 4 -7 9 q-2.5 5 -2.5 11 Z" /><glyph glyph-name="uni4E14" unicode="&#x4e14;" d="M275 529 l448 0 q5 0 10 -1 l0 186 q0 2 -1.5 3.5 q-1.5 1.5 -3.5 1.5 l-448 0 q-2 0 -3.5 -1.5 q-1.5 -1.5 -1.5 -3.5 l0 -185 ZM275 276 l448 0 q5 0 10 -1 l0 200 q-5 -2 -10 -2 l-442 0 q-3 0 -6 1 l0 -198 ZM274 26 l459 0 l0 195 q-5 -2 -10 -2 l-442 0 q-3 0 -6 1 l0 -192 q0 -1 -1 -2 ZM56 -3 q0 6 2.5 11 q2.5 5 7 9 q4.5 4 10 6.5 q5.5 2.5 10.5 2.5 l130 0 l0 719 q0 6 2.5 12 q2.5 6 7 10.5 q4.5 4.5 10.5 7 q6 2.5 11 2.5 l515 0 q6 0 11.5 -2.5 q5.5 -2.5 10 -7 q4.5 -4.5 7 -10.5 q2.5 -6 2.5 -12 l0 -719 l122 0 q5 0 10.5 -2.5 q5.5 -2.5 10 -6.5 q4.5 -4 7.5 -9 q3 -5 3 -11 q0 -5 -3 -10.5 q-3 -5.5 -7.5 -9.5 q-4.5 -4 -10 -6.5 q-5.5 -2.5 -10.5 -2.5 l-829 0 q-5 0 -10.5 2.5 q-5.5 2.5 -10 6.5 q-4.5 4 -7 9.5 q-2.5 5.5 -2.5 10.5 Z" /><glyph glyph-name="uni4E16" unicode="&#x4e16;" d="M522 264 q0 -3 2 -5 q2 -2 4 -2 l198 0 q2 0 4 2 q2 2 2 5 l0 261 l-210 0 l0 -261 ZM53 554 q0 6 3 11 q3 5 7.5 9.5 q4.5 4.5 10 6.5 q5.5 2 10.5 2 l119 0 l0 195 q0 7 2.5 12.5 q2.5 5.5 6.5 10 q4 4.5 10 7.5 q6 3 11 3 l2 0 q6 0 11 -3 q5 -3 9.5 -7.5 q4.5 -4.5 7 -10 q2.5 -5.5 2.5 -11.5 l0 -196 l199 0 l0 219 q0 6 2 11.5 q2 5.5 6.5 10 q4.5 4.5 10 7 q5.5 2.5 11 2.5 q5.5 0 10.5 -2.5 q5 -2.5 9 -7 q4 -4.5 6.5 -10.5 q2.5 -6 2.5 -12 l0 -218 l210 0 l0 207 q0 6 2.5 11.5 q2.5 5.5 7 10.5 q4.5 5 9.5 7.5 q5 2.5 11 2.5 l2 0 q6 0 11 -2.5 q5 -2.5 9 -7.5 q4 -5 6.5 -10.5 q2.5 -5.5 2.5 -11.5 l0 -207 l125 0 q5 0 10.5 -2 q5.5 -2 10 -6.5 q4.5 -4.5 7.5 -9.5 q3 -5 3 -10.5 q0 -5.5 -3 -10.5 q-3 -5 -7.5 -9 q-4.5 -4 -10 -7 q-5.5 -3 -10.5 -3 l-125 0 l0 -291 q0 -6 -3 -12 q-3 -6 -7.5 -10.5 q-4.5 -4.5 -10 -7 q-5.5 -2.5 -12.5 -2.5 l-264 0 q-6 0 -12 2.5 q-6 2.5 -10.5 7 q-4.5 4.5 -7 10 q-2.5 5.5 -2.5 11.5 l0 292 l-199 0 l0 -469 q0 -2 1.5 -4 q1.5 -2 3.5 -2 l618 0 q5 0 11 -2.5 q6 -2.5 10.5 -6.5 q4.5 -4 7 -9 q2.5 -5 2.5 -10.5 q0 -5.5 -2.5 -10.5 q-2.5 -5 -7 -9.5 q-4.5 -4.5 -10.5 -6.5 q-6 -2 -11 -2 l-653 0 q-6 0 -12 2.5 q-6 2.5 -10.5 7 q-4.5 4.5 -7 10 q-2.5 5.5 -2.5 12.5 l0 500 l-119 0 q-5 0 -10.5 3 q-5.5 3 -10 7 q-4.5 4 -7.5 9 q-3 5 -3 10 Z" /><glyph glyph-name="uni4E1A" unicode="&#x4e1a;" d="M702.5 262 q-1.5 6 -0.5 12 q1 6 4 11 q18 30 37 64.5 q19 34.5 38 71.5 q19 37 36.5 73 q17.5 36 31.5 69 q3 6 7.5 11.5 q4.5 5.5 10 8 q5.5 2.5 12 3 q6.5 0.5 11.5 -2.5 q5 -2 8.5 -6.5 q3.5 -4.5 5.5 -10 q2 -5.5 2 -11.5 q0 -6 -3 -11 q-16 -35 -34.5 -73 q-18.5 -38 -38 -75 q-19.5 -37 -39 -72 q-19.5 -35 -38.5 -66 q-2 -5 -7 -9 q-5 -4 -10.5 -6 q-5.5 -2 -10.5 -2 q-5 0 -10 2 q-5 3 -8 8 q-3 5 -4.5 11 ZM102 551 q-2 7 -2 13.5 q0 6.5 2.5 12 q2.5 5.5 7 10.5 q4.5 5 9.5 6 q10 3 20.5 -2.5 q10.5 -5.5 15.5 -15.5 q17 -35 35 -73 q18 -38 35 -75.5 q17 -37.5 31.5 -72.5 q14.5 -35 24.5 -64 q2 -5 1.5 -11 q-0.5 -6 -3 -11 q-2.5 -5 -6.5 -9.5 q-4 -4.5 -8 -6.5 l-2 0 q-6 -2 -13 -1 q-7 1 -12.5 4 q-5.5 3 -10 8 q-4.5 5 -6.5 11 q-9 28 -22.5 62.5 q-13.5 34.5 -29 71 q-15.5 36.5 -33 73 q-17.5 36.5 -34.5 70.5 ZM63 6 q0 6 2.5 11 q2.5 5 7 9.5 q4.5 4.5 10.5 7 q6 2.5 12 2.5 l256 0 l0 757 q0 6 2 11.5 q2 5.5 6.5 10.5 q4.5 5 10 7.5 q5.5 2.5 10.5 2.5 l1 0 q6 0 11.5 -2.5 q5.5 -2.5 9.5 -7.5 q4 -5 6 -10.5 q2 -5.5 2 -11.5 l0 -757 l182 0 l0 756 q0 5 2 11 q2 6 6.5 10.5 q4.5 4.5 10 7.5 q5.5 3 11.5 3 l1 0 q5 0 10.5 -3 q5.5 -3 9.5 -7.5 q4 -4.5 6 -10.5 q2 -6 2 -11 l0 -756 l256 0 q7 0 12.5 -2.5 q5.5 -2.5 10 -7 q4.5 -4.5 7.5 -9.5 q3 -5 3 -10.5 q0 -5.5 -3 -11 q-3 -5.5 -7.5 -9.5 q-4.5 -4 -10 -6.5 q-5.5 -2.5 -12.5 -2.5 l-812 0 q-6 0 -12 2.5 q-6 2.5 -10.5 6.5 q-4.5 4 -7 9.5 q-2.5 5.5 -2.5 10.5 Z" /><glyph glyph-name="uni4E1C" unicode="&#x4e1c;" d="M687 220.5 q-2 6.5 -1.5 13 q0.5 6.5 3.5 12 q3 5.5 9 7.5 q6 4 16.5 1.5 q10.5 -2.5 16.5 -7.5 q25 -25 51.5 -52 q26.5 -27 50.5 -54.5 q24 -27.5 45.5 -54 q21.5 -26.5 37.5 -49.5 q3 -5 4 -11 q1 -6 0 -11.5 q-1 -5.5 -4.5 -10.5 q-3.5 -5 -8.5 -8 q-5 -3 -11 -3.5 q-6 -0.5 -12 1.5 q-6 2 -11.5 5.5 q-5.5 3.5 -9.5 8.5 q-14 22 -33.5 47 q-19.5 25 -42 51.5 q-22.5 26.5 -46.5 52.5 q-24 26 -47 49 q-5 6 -7 12.5 ZM107 -14 q-11 9 -11 24 q0 15 11 27 q43 41 81 92.5 q38 51.5 66 106.5 q5 9 16 15 q11 6 21 4 l1 -1 q6 -1 10.5 -5.5 q4.5 -4.5 7 -10.5 q2.5 -6 2.5 -13 q0 -7 -4 -12 q-32 -63 -74.5 -121 q-42.5 -58 -88.5 -102 q-3 -4 -8 -6.5 q-5 -2.5 -11 -3 q-6 -0.5 -10.5 0.5 q-4.5 1 -8.5 5 ZM82.5 664 q-2.5 5 -2.5 10.5 q0 5.5 2.5 10.5 q2.5 5 7 9 q4.5 4 10.5 6 q6 2 11 2 l252 0 q27 53 49 108 q3 6 7.5 10.5 q4.5 4.5 10.5 7 q6 2.5 12 2.5 q6 0 12 -3 l5 -2 q5 -2 8.5 -6.5 q3.5 -4.5 5.5 -10.5 q2 -6 2 -12 q0 -6 -3 -11 q-19 -42 -39 -83 l446 0 q6 0 12 -2 q6 -2 10.5 -6 q4.5 -4 7 -9 q2.5 -5 2.5 -10.5 q0 -5.5 -2.5 -10.5 q-2.5 -5 -7 -9.5 q-4.5 -4.5 -10.5 -6.5 q-6 -2 -12 -2 l-475 0 q-22 -41 -44 -80 q-31 -52 -62 -100 q-21 -32 -42 -61 l258 0 l0 122 q0 6 2.5 11.5 q2.5 5.5 6.5 10.5 q4 5 9.5 7.5 q5.5 2.5 10.5 2.5 l1 0 q6 0 11 -2.5 q5 -2.5 9.5 -7 q4.5 -4.5 7 -10.5 q2.5 -6 2.5 -12 l0 -122 l264 0 q6 0 12 -2.5 q6 -2.5 10.5 -6.5 q4.5 -4 7 -9 q2.5 -5 2.5 -11 q0 -6 -2.5 -10.5 q-2.5 -4.5 -7 -9 q-4.5 -4.5 -10.5 -7 q-6 -2.5 -11 -2.5 l-265 0 l0 -335 q0 -29 -8 -44.5 q-8 -15.5 -30 -23.5 q-18 -7 -48 -9 q-30 -2 -74 -3 q-10 0 -19.5 6.5 q-9.5 6.5 -12.5 15.5 q-5 15 4 27.5 q9 12.5 26 12.5 q31 -1 50.5 -1 q19.5 0 32.5 1 q11 1 15 4.5 q4 3.5 4 14.5 l0 334 l-228 0 q-19 0 -32 -0.5 q-13 -0.5 -21 -2.5 q-10 0 -19 1.5 q-9 1.5 -16 4.5 q-3 1 -5 2 q-2 1 -3 1 q-7 1 -12 4.5 q-5 3.5 -7 9.5 q-2 5 -1 12 q1 7 4 13.5 q3 6.5 7.5 13 q4.5 6.5 9.5 11.5 q4 5 7 8.5 q3 3.5 7 9 q4 5.5 10 15 q6 9.5 17 25.5 q11 16 32 49.5 q21 33.5 46 78.5 q11 20 23 43 l-222 0 q-5 0 -11 2 q-6 2 -10.5 6.5 q-4.5 4.5 -7 9.5 Z" /><glyph glyph-name="uni4E1D" unicode="&#x4e1d;" d="M507 445 q-2 5 -1 11 q1 6 4 12.5 q3 6.5 7.5 13 q4.5 6.5 8.5 12.5 q4 3 6 5 q2 2 5 5.5 q3 3.5 8 10.5 l13 21 q9 11 26 38 q17 27 38 63 q21 36 44 78.5 q23 42.5 42 86.5 q2 5 6.5 10 q4.5 5 10 8 q5.5 3 12 3.5 q6.5 0.5 12 -1.5 q5.5 -2 9 -7 q3.5 -5 5.5 -10.5 q2 -5.5 2 -12 q0 -6.5 -3 -11.5 q-46 -92 -97 -177 q-41 -68 -83 -124 l150 8 q8 0 15 -3 q6 -2 10 -6 q9 11 17 23 q38 52 72 106 q3 6 8 9.5 q5 3.5 10.5 5.5 q5.5 2 11.5 2 q6 0 11 -3 q5 -3 8.5 -8 q3.5 -5 4.5 -11 q1 -6 0.5 -12.5 q-0.5 -6.5 -4.5 -12.5 q-75 -112 -158 -212 q-66 -80 -133 -144 l263 13 q7 0 14 -2 q7 -2 12 -6.5 q5 -4.5 7.5 -10 q2.5 -5.5 2.5 -10.5 q-1 -9 -10 -16.5 q-9 -7.5 -21 -8.5 q-72 -4 -123.5 -7 q-51.5 -3 -87.5 -5 q-36 -2 -58.5 -4 q-22.5 -2 -36.5 -4 q-7 -1 -15 0.5 q-8 1.5 -14 4.5 q-1 1 -3 2 q-1 0 -3 1 q-12 2 -16 13 q-2 5 -1 11 q1 6 4.5 12.5 q3.5 6.5 8.5 12.5 q5 6 10 11 q6 4 10 7.5 q4 3.5 10 8.5 q6 5 14 14 q8 9 22 24 q15 15 43.5 47 q28.5 32 63.5 76 q12 14 24 30 q-70 -5 -107 -8 q-40 -3 -58 -5 q-9 -1 -17 0.5 q-8 1.5 -14 4.5 q-3 2 -5 4 l-1 0 q-12 1 -16 13 ZM99 439 q-2 5 -1 11 q1 6 4 12.5 q3 6.5 7.5 13 q4.5 6.5 8.5 11.5 q3 4 5 6 q2 2 5 5.5 q3 3.5 8 10.5 q5 7 14 21 q8 12 25.5 39 q17.5 27 38 63.5 q20.5 36.5 42 79.5 q21.5 43 40.5 87 q2 6 6.5 11 q4.5 5 10.5 8 q6 3 12 3.5 q6 0.5 12 -1.5 q5 -2 8.5 -7 q3.5 -5 5.5 -10.5 q2 -5.5 2.5 -11.5 q0.5 -6 -2.5 -12 q-44 -93 -95 -180 q-41 -69 -82 -125 l151 7 q9 0 15 -2 l2 0 l18 26 q37 54 69 109 q3 5 8.5 8.5 q5.5 3.5 11 5.5 q5.5 2 11.5 2 q6 0 11 -2 q5 -2 8.5 -7.5 q3.5 -5.5 4.5 -11.5 q1 -6 0.5 -12.5 q-0.5 -6.5 -3.5 -11.5 q-74 -114 -154 -217 q-65 -83 -130 -151 l235 14 q7 0 13.5 -2 q6.5 -2 11.5 -6 q5 -4 7.5 -8.5 q2.5 -4.5 2.5 -10.5 q-1 -9 -11 -17.5 q-10 -8.5 -22 -8.5 q-63 -5 -108 -8 l-78 -6 q-33 -3 -53 -4.5 q-20 -1.5 -33 -3.5 q-9 -1 -16.5 0.5 q-7.5 1.5 -13.5 4.5 q-2 2 -4 3 l-2 0 q-13 3 -16 14 q-2 5 -1 11 q1 6 4.5 12 q3.5 6 8.5 12 q5 6 10 11 q6 5 10 8.5 q4 3.5 9 8.5 q5 5 13 14 q8 9 22 25 q14 15 41.5 48 q27.5 33 61.5 78 q8 11 17 22 q-62 -4 -96 -6 q-40 -3 -58 -5 q-8 -1 -15.5 0 q-7.5 1 -14.5 5 l-6 4 l-1 0 q-12 2 -16 13 ZM54 14 q0 5 2.5 10 q2.5 5 7 9 q4.5 4 10 6 q5.5 2 11.5 2 l826 0 q6 0 11.5 -2 q5.5 -2 10 -6 q4.5 -4 7 -9 q2.5 -5 2.5 -10 q0 -6 -2.5 -11 q-2.5 -5 -7 -9 q-4.5 -4 -10 -6.5 q-5.5 -2.5 -11.5 -2.5 l-826 0 q-6 0 -11.5 2.5 q-5.5 2.5 -10 6.5 q-4.5 4 -7 9 q-2.5 5 -2.5 11 Z" /><glyph glyph-name="uni4E22" unicode="&#x4e22;" d="M60 348 q0 6 2.5 11 q2.5 5 7 9 q4.5 4 10 6.5 q5.5 2.5 11.5 2.5 l379 0 l0 150 l-294 0 q-5 0 -11 2.5 q-6 2.5 -10.5 6.5 q-4.5 4 -7 9 q-2.5 5 -2.5 11 q0 5 2.5 10 q2.5 5 7 9 q4.5 4 10.5 6 q6 2 11 2 l294 0 l0 139 q-67 -6 -135 -10 q-88 -5 -170 -8 q-12 -1 -22 6 q-10 7 -12 15 q-4 13 6 24 q10 11 27 11 q84 4 172.5 9.5 q88.5 5.5 173.5 14 q85 8.5 160.5 18.5 q75.5 10 130.5 24 q8 2 16.5 -1 q8.5 -3 12.5 -9 l4 -4 q5 -6 7 -13 q2 -7 -0.5 -13.5 q-2.5 -6.5 -7.5 -11 q-5 -4.5 -14 -6.5 q-64 -13 -143 -24 q-71 -10 -148 -17 q1 -5 1 -10 l0 -134 l295 0 q5 0 11 -2 q6 -2 10.5 -6 q4.5 -4 7 -9 q2.5 -5 2.5 -10.5 q0 -5.5 -2.5 -10.5 q-2.5 -5 -7 -9 q-4.5 -4 -10.5 -6.5 q-6 -2.5 -11 -2.5 l-295 0 l0 -150 l380 0 q5 0 10.5 -2.5 q5.5 -2.5 10 -6.5 q4.5 -4 7.5 -9 q3 -5 3 -11 q0 -5 -3 -10 q-3 -5 -7.5 -9 q-4.5 -4 -10 -6.5 q-5.5 -2.5 -10.5 -2.5 l-466 0 q4 -2 6 -6 q5 -5 6 -11.5 q1 -6.5 -0.5 -13 q-1.5 -6.5 -6.5 -12.5 q-58 -78 -119 -149 q-41 -47 -82 -87 l518 37 q-22 30 -46 61 q-25 31 -51 60 q-5 6 -6.5 13 q-1.5 7 -0.5 14 q1 7 5.5 12.5 q4.5 5.5 11.5 8.5 q7 3 17 0.5 q10 -2.5 15 -8.5 q27 -30 54.5 -62.5 q27.5 -32.5 52.5 -66 q25 -33.5 47 -66 q22 -32.5 37 -60.5 q3 -5 3.5 -11.5 q0.5 -6.5 -1.5 -12 q-2 -5.5 -6 -10.5 q-4 -5 -10 -8 l-2 -1 q-5 -3 -11.5 -2.5 q-6.5 0.5 -12.5 3 q-6 2.5 -11 6.5 q-5 4 -8 9 q-14 26 -33 56 q-7 10 -14 21 q-4 -4 -8 -6 q-6 -4 -14 -4 q-152 -11 -254 -19 q-102 -8 -168 -13 l-102 -9 q-36 -3 -56 -6 q-7 -2 -14.5 -0.5 q-7.5 1.5 -13.5 4.5 q-4 2 -7 5 q-5 2 -9 4 q-5 4 -7 10 q-2 5 -0.5 11.5 q1.5 6.5 5 12.5 q3.5 6 9 11.5 q5.5 5.5 11.5 9.5 q5 3 8 6 l14 14 q6 6 18 17 q11 10 32.5 33 q21.5 23 48 54 q26.5 31 55 68 q28.5 37 54.5 76 q3 4 8 7 l-314 0 q-6 0 -11.5 2.5 q-5.5 2.5 -10 6.5 q-4.5 4 -7 9 q-2.5 5 -2.5 10 Z" /><glyph glyph-name="uni4E24" unicode="&#x4e24;" d="M395 708 q2 -5 2 -10 l0 -142 l200 0 l0 142 q0 5 1 10 l-203 0 ZM61 737 q0 5 2.5 10 q2.5 5 7 9.5 q4.5 4.5 10 6.5 q5.5 2 11.5 2 l817 0 q6 0 11.5 -2 q5.5 -2 10 -6.5 q4.5 -4.5 7 -9.5 q2.5 -5 2.5 -10.5 q0 -5.5 -2.5 -10.5 q-2.5 -5 -7 -9 q-4.5 -4 -10 -6.5 q-5.5 -2.5 -11.5 -2.5 l-256 0 q2 -5 2 -10 l0 -142 l214 0 q6 0 11 -3 q3 -1 7 -4 q0 -1 1 -1 q4 -4 7 -9 q3 -5 3 -11 q0 -1 -1 -1 q1 -2 1 -3 l0 -519 q0 -31 -9 -47.5 q-9 -16.5 -34 -24.5 q-21 -6 -60 -7.5 q-39 -1.5 -97 -2.5 q-10 0 -19.5 6.5 q-9.5 6.5 -11.5 14.5 q-5 16 4.5 27.5 q9.5 11.5 27.5 11.5 q34 -2 59 -2 q6 0 23.5 0.5 q17.5 0.5 32.5 1.5 q14 0 19.5 5 q5.5 5 5.5 18 l0 494 l-186 0 q-1 -17 -2 -35 q-3 -35 -9 -71 l1 0 q6 -3 10 -8 q21 -25 42.5 -52.5 q21.5 -27.5 41 -55 q19.5 -27.5 36.5 -53 q17 -25.5 29 -46.5 q5 -7 4.5 -17.5 q-0.5 -10.5 -4.5 -15.5 q-5 -6 -11 -8 q-6 -2 -13 -1 q-7 1 -13.5 4.5 q-6.5 3.5 -10.5 9.5 q-13 22 -29 47 q-16 25 -34 51 q-18 26 -38 52 q-12 16 -24 31 q-14 -56 -40 -112 q-28 -62 -78 -119 q-4 -6 -10 -9 q-6 -3 -12 -3.5 q-6 -0.5 -11.5 0.5 q-5.5 1 -9.5 5 q-9 9 -7.5 23.5 q1.5 14.5 9.5 26.5 q45 52 70 107.5 q25 55.5 38 111 q13 55.5 16 109.5 q1 14 1 28 l-200 0 q-1 -17 -2 -35 q-2 -35 -8 -71 q5 -3 9 -7 q26 -34 50 -70 q24 -36 38 -63 q5 -6 4.5 -15.5 q-0.5 -9.5 -5.5 -14.5 q-5 -7 -11 -9.5 q-6 -2.5 -13 -1.5 q-7 1 -13.5 5 q-6.5 4 -11.5 10 q-15 27 -36 60 q-13 21 -26 40 q-14 -54 -39 -108 q-28 -62 -78 -119 q-4 -6 -10 -9 q-6 -3 -12 -3.5 q-6 -0.5 -11.5 0.5 q-5.5 1 -9.5 5 q-9 9 -7.5 23.5 q1.5 14.5 9.5 26.5 q45 52 70 107.5 q25 55.5 38 111 q13 55.5 16 109.5 q1 14 1 28 l-167 0 q-2 0 -4 -2 q-2 -2 -2 -5 l0 -538 q0 -6 -2.5 -12 q-2.5 -6 -6.5 -10.5 q-4 -4.5 -9 -7 q-5 -2.5 -11 -2.5 q-6 0 -11 2.5 q-5 2.5 -9.5 7 q-4.5 4.5 -7 10.5 q-2.5 6 -2.5 11 l0 570 q0 6 2.5 12 q2.5 6 7 10.5 q4.5 4.5 10.5 7 q6 2.5 12 2.5 l202 0 l0 142 q0 5 1 10 l-248 0 q-6 0 -11.5 2.5 q-5.5 2.5 -10 6.5 q-4.5 4 -7 9 q-2.5 5 -2.5 11 Z" /><glyph glyph-name="uni4E25" unicode="&#x4e25;" d="M701 499 q-2 6 -1.5 13 q0.5 7 4.5 13 q19 28 40 64 q21 36 36 67 q3 6 7.5 11 q4.5 5 10 8 q5.5 3 11.5 4 q6 1 11 -1 q6 -2 10 -6.5 q4 -4.5 6.5 -11 q2.5 -6.5 2.5 -13 q0 -6.5 -4 -12.5 q-20 -35 -43 -73.5 q-23 -38.5 -44 -67.5 q-6 -7 -16 -11 q-10 -4 -17 -1 q-5 2 -8.5 6.5 q-3.5 4.5 -5.5 10.5 ZM421 448 l155 0 q-1 4 -1 8 l0 268 l-153 0 l0 -267 q0 -4 -1 -9 ZM169 633 q-4 7 -4.5 13.5 q-0.5 6.5 1 13 q1.5 6.5 5.5 11 q4 4.5 9 6.5 q8 3 18.5 -1.5 q10.5 -4.5 14.5 -12.5 q24 -33 44 -71 q20 -38 31 -69 q4 -11 -1 -21.5 q-5 -10.5 -14 -13.5 q-6 -2 -12 -1 q-6 1 -11 4 q-5 3 -10 8.5 q-5 5.5 -7 12.5 q-10 27 -26.5 59.5 q-16.5 32.5 -37.5 61.5 ZM54 -53 q-9 7 -9.5 21 q-0.5 14 5.5 26 q23 33 36.5 68.5 q13.5 35.5 20.5 72 q7 36.5 9.5 73 q2.5 36.5 2.5 71.5 l0 138 q0 6 2.5 11.5 q2.5 5.5 7 10 q4.5 4.5 9.5 7 q5 2.5 11 2.5 q5 0 10 -2 q6 2 13 2 l193 0 q-1 5 -1 9 l0 267 l-225 0 q-5 0 -11 2.5 q-6 2.5 -10.5 6.5 q-4.5 4 -7.5 8.5 q-3 4.5 -3 9.5 q0 6 3 10.5 q3 4.5 7.5 8.5 q4.5 4 10.5 6 q6 2 11 2 l732 0 q6 0 12 -2 q6 -2 10.5 -6 q4.5 -4 7 -8.5 q2.5 -4.5 2.5 -10 q0 -5.5 -2.5 -10 q-2.5 -4.5 -7 -8.5 q-4.5 -4 -10.5 -6.5 q-6 -2.5 -12 -2.5 l-237 0 l0 -268 q0 -4 -1 -8 l269 0 q13 0 23 -8 q10 -8 10 -18 q0 -5 -2.5 -10 q-2.5 -5 -7.5 -9 q-5 -4 -10.5 -6 q-5.5 -2 -12.5 -2 l-725 0 l0 -116 q0 -36 -3 -77 q-3 -41 -11.5 -83 q-8.5 -42 -24 -84 q-15.5 -42 -40.5 -79 q-3 -6 -9 -10 q-6 -4 -12 -5 q-6 -1 -12.5 0 q-6.5 1 -10.5 6 Z" /><glyph glyph-name="uni4E2A" unicode="&#x4e2a;" d="M469 -45 l0 567 q0 5 2.5 10.5 q2.5 5.5 6.5 10 q4 4.5 9.5 7 q5.5 2.5 10.5 2.5 l3 0 q5 0 10.5 -2.5 q5.5 -2.5 9.5 -7 q4 -4.5 6.5 -10 q2.5 -5.5 2.5 -10.5 l0 -567 q0 -6 -2.5 -11.5 q-2.5 -5.5 -6.5 -10 q-4 -4.5 -9.5 -7 q-5.5 -2.5 -10.5 -2.5 l-3 0 q-5 0 -10.5 2.5 q-5.5 2.5 -9.5 7 q-4 4.5 -6.5 10 q-2.5 5.5 -2.5 11.5 ZM68 402 q-9 13 -5.5 27 q3.5 14 19.5 22 q61 32 120 72.5 q59 40.5 112 87 q53 46.5 99 98.5 q46 52 81 105 q3 4 7.5 7.5 q4.5 3.5 10 5 q5.5 1.5 11 2 q5.5 0.5 9.5 -1.5 l1 0 q5 -3 8.5 -8 q3.5 -5 5 -11 q1.5 -6 0.5 -12.5 q-1 -6.5 -4 -11.5 q-4 -7 -8 -13 l2 -2 q76 -101 171.5 -177.5 q95.5 -76.5 212.5 -140.5 q16 -8 20 -23 q4 -15 -6 -27 q-2 -4 -7.5 -6.5 q-5.5 -2.5 -11 -4 q-5.5 -1.5 -11.5 -1 q-6 0.5 -12 4.5 q-119 67 -217 148 q-95 79 -174 183 q-22 -28 -46 -57 q-49 -56 -105 -106 q-56 -50 -118 -93.5 q-62 -43.5 -126 -75.5 q-4 -3 -9.5 -3.5 q-5.5 -0.5 -10.5 1 q-5 1.5 -9.5 4 q-4.5 2.5 -8.5 6.5 q0 1 -1 1 Z" /><glyph glyph-name="uni4E2D" unicode="&#x4e2d;" d="M528 314 l309 0 l0 278 q0 2 -2 4 q-2 2 -4 2 l-303 0 l0 -284 ZM158 314 l309 0 l0 284 l-303 0 q-2 0 -4 -2 q-2 -2 -2 -4 l0 -278 ZM99 223 l0 402 q0 6 3 11.5 q3 5.5 7.5 10 q4.5 4.5 10.5 7 q6 2.5 11 2.5 l336 0 l0 149 q0 6 2.5 12 q2.5 6 6.5 10.5 q4 4.5 9 7 q5 2.5 11 2.5 l3 0 q5 0 10 -2.5 q5 -2.5 9.5 -7 q4.5 -4.5 7 -10.5 q2.5 -6 2.5 -12 l0 -149 l338 0 q6 0 12 -2.5 q6 -2.5 10.5 -7 q4.5 -4.5 7 -10 q2.5 -5.5 2.5 -10.5 l0 -398 q0 -6 -2.5 -11.5 q-2.5 -5.5 -6.5 -10 q-4 -4.5 -9 -7 q-5 -2.5 -11 -2.5 l-2 0 q-6 0 -11 2.5 q-5 2.5 -9.5 7 q-4.5 4.5 -7 10.5 q-2.5 6 -2.5 12 l0 28 l-309 0 l0 -300 q0 -6 -2.5 -12 q-2.5 -6 -7 -10.5 q-4.5 -4.5 -9.5 -7 q-5 -2.5 -10 -2.5 l-3 0 q-6 0 -11 2.5 q-5 2.5 -9 7 q-4 4.5 -6.5 10.5 q-2.5 6 -2.5 12 l0 300 l-309 0 l0 -33 q0 -6 -2 -12 q-2 -6 -6.5 -10.5 q-4.5 -4.5 -9.5 -7 q-5 -2.5 -11 -2.5 q-6 0 -11 2.5 q-5 2.5 -9.5 7 q-4.5 4.5 -7 10 q-2.5 5.5 -2.5 11.5 Z" /><glyph glyph-name="uni4E30" unicode="&#x4e30;" d="M55 198 l0 1 q0 6 2.5 11 q2.5 5 7 9.5 q4.5 4.5 10 6.5 q5.5 2 11.5 2 l383 0 l0 180 l-296 0 q-5 0 -11 2.5 q-6 2.5 -10.5 6.5 q-4.5 4 -7.5 9 q-3 5 -3 10 q0 6 3 11 q3 5 7.5 9.5 q4.5 4.5 10.5 6.5 q6 2 11 2 l296 0 l0 165 l-344 0 q-7 0 -12.5 2.5 q-5.5 2.5 -10.5 7 q-5 4.5 -7.5 9.5 q-2.5 5 -2.5 11 q0 6 2.5 11 q2.5 5 7.5 9 q5 4 10.5 6.5 q5.5 2.5 12.5 2.5 l344 0 l0 117 q0 5 2.5 11 q2.5 6 6.5 10.5 q4 4.5 9 7 q5 2.5 11 2.5 l4 0 q5 0 10 -2.5 q5 -2.5 9.5 -7 q4.5 -4.5 7 -10.5 q2.5 -6 2.5 -11 l0 -117 l342 0 q7 0 12.5 -2.5 q5.5 -2.5 10.5 -6.5 q5 -4 7.5 -9 q2.5 -5 2.5 -11 q0 -6 -2.5 -11 q-2.5 -5 -7.5 -9.5 q-5 -4.5 -10.5 -7 q-5.5 -2.5 -12.5 -2.5 l-342 0 l0 -165 l298 0 q5 0 11 -2 q6 -2 10.5 -6.5 q4.5 -4.5 7.5 -9.5 q3 -5 3 -10.5 q0 -5.5 -3 -10.5 q-3 -5 -7.5 -9 q-4.5 -4 -10.5 -6.5 q-6 -2.5 -11 -2.5 l-298 0 l0 -180 l384 0 q6 0 11.5 -2 q5.5 -2 10 -6.5 q4.5 -4.5 7 -9.5 q2.5 -5 2.5 -11 l0 -1 q0 -5 -2.5 -10 q-2.5 -5 -7 -9.5 q-4.5 -4.5 -10 -7 q-5.5 -2.5 -11.5 -2.5 l-384 0 l0 -212 q0 -6 -2.5 -11.5 q-2.5 -5.5 -7 -10 q-4.5 -4.5 -9.5 -7.5 q-5 -3 -10 -3 l-4 0 q-6 0 -11 3 q-5 3 -9 7.5 q-4 4.5 -6.5 10 q-2.5 5.5 -2.5 11.5 l0 212 l-383 0 q-6 0 -11.5 2.5 q-5.5 2.5 -10 7 q-4.5 4.5 -7 9.5 q-2.5 5 -2.5 10 Z" /><glyph glyph-name="uni4E32" unicode="&#x4e32;" d="M528 510 l253 0 q2 0 4 2 q2 2 2 4 l0 143 q0 2 -2 4 q-2 2 -4 2 l-253 0 l0 -155 ZM528 147 l299 0 q3 0 6 -1 l0 157 q0 2 -2 4 q-2 2 -4 2 l-299 0 l0 -162 ZM208 516 q0 -2 2 -4 q2 -2 4 -2 l252 0 l0 155 l-252 0 q-2 0 -4 -2 q-2 -2 -2 -4 l0 -143 ZM170 146 q3 1 7 1 l289 0 l0 162 l-290 0 q-2 0 -4 -2 q-2 -2 -2 -4 l0 -157 ZM109 82 l0 251 q0 6 3 12 q3 6 7.5 10.5 q4.5 4.5 10.5 7 q6 2.5 11 2.5 l325 0 l0 92 l-285 0 q-6 0 -12 2.5 q-6 2.5 -10.5 7 q-4.5 4.5 -7.5 10 q-3 5.5 -3 10.5 l0 201 q0 6 3 11.5 q3 5.5 7.5 10 q4.5 4.5 10.5 7 q6 2.5 12 2.5 l285 0 l0 86 q0 6 2.5 11.5 q2.5 5.5 6.5 10.5 q4 5 9.5 7.5 q5.5 2.5 10.5 2.5 l4 0 q6 0 11 -2.5 q5 -2.5 9.5 -7.5 q4.5 -5 6.5 -10.5 q2 -5.5 2 -11.5 l0 -86 l289 0 q7 0 12.5 -2.5 q5.5 -2.5 10 -7 q4.5 -4.5 7.5 -10 q3 -5.5 3 -11.5 l0 -201 q0 -5 -3 -10.5 q-3 -5.5 -7.5 -10 q-4.5 -4.5 -10 -7 q-5.5 -2.5 -12.5 -2.5 l-289 0 l0 -92 l335 0 q6 0 12 -2.5 q6 -2.5 10.5 -7 q4.5 -4.5 7 -10.5 q2.5 -6 2.5 -11 l0 -250 q0 -6 -2.5 -12 q-2.5 -6 -6.5 -10.5 q-4 -4.5 -9 -7 q-5 -2.5 -11 -2.5 l-4 0 q-5 0 -10.5 2.5 q-5.5 2.5 -10 7 q-4.5 4.5 -6.5 10.5 q-2 6 -2 12 l0 9 l-305 0 l0 -136 q0 -6 -2 -12 q-2 -6 -6.5 -10.5 q-4.5 -4.5 -9.5 -7 q-5 -2.5 -11 -2.5 l-4 0 q-5 0 -10.5 2.5 q-5.5 2.5 -9.5 7 q-4 4.5 -6.5 10.5 q-2.5 6 -2.5 12 l0 136 l-289 0 q-4 0 -7 1 l0 -12 q0 -6 -2.5 -12 q-2.5 -6 -6.5 -10.5 q-4 -4.5 -9 -7 q-5 -2.5 -11 -2.5 l-2 0 q-6 0 -11 2.5 q-5 2.5 -9.5 7 q-4.5 4.5 -7 10.5 q-2.5 6 -2.5 12 Z" /><glyph glyph-name="uni4E34" unicode="&#x4e34;" d="M699 35 l160 0 l0 281 q0 2 -2 3.5 q-2 1.5 -5 1.5 l-153 0 q1 -4 1 -8 l0 -267 q0 -5 -1 -11 ZM602.5 565 q-3.5 6 -4.5 12 q-1 6 1 12 q2 6 7 10 q6 5 17 5 q11 0 18 -5 q35 -27 69.5 -58 q34.5 -31 58.5 -56 q4 -3 6.5 -8.5 q2.5 -5.5 3 -11 q0.5 -5.5 -1 -11.5 q-1.5 -6 -5 -10 q-3.5 -4 -9.5 -6 q-6 -2 -12.5 -2 q-6.5 0 -12 2.5 q-5.5 2.5 -10.5 6.5 q-23 24 -54.5 53.5 q-31.5 29.5 -62.5 55.5 q-5 5 -8.5 11 ZM485 35 l162 0 q-2 6 -2 11 l0 267 q0 4 1 8 l-154 0 q-3 0 -5 -1.5 q-2 -1.5 -2 -4.5 l0 -280 ZM426 -45 l0 392 q0 6 3 11.5 q3 5.5 7.5 10 q4.5 4.5 10.5 7 q6 2.5 12 2.5 l427 0 q7 0 13 -2.5 q6 -2.5 10.5 -7 q4.5 -4.5 7 -10 q2.5 -5.5 2.5 -10.5 l0 -389 q0 -5 -2.5 -10.5 q-2.5 -5.5 -7 -10 q-4.5 -4.5 -9.5 -7 q-5 -2.5 -11 -2.5 q-6 0 -11.5 2.5 q-5.5 2.5 -9.5 7 q-4 4.5 -6.5 10.5 q-2.5 6 -2.5 11 l0 19 l-369 0 q-2 0 -5 1 l0 -24 q0 -6 -2.5 -11.5 q-2.5 -5.5 -6.5 -10 q-4 -4.5 -9 -7.5 q-5 -3 -10.5 -3 q-5.5 0 -11 3 q-5.5 3 -9.5 7.5 q-4 4.5 -7 10 q-3 5.5 -3 10.5 ZM381 470 q-11 8 -12 22.5 q-1 14.5 8 28.5 q47 58 83 133 q36 75 60 158 q2 6 6 10.5 q4 4.5 9 8 q5 3.5 10.5 5 q5.5 1.5 10.5 0.5 q6 -1 10.5 -5 q4.5 -4 8 -9 q3.5 -5 4 -11.5 q0.5 -6.5 -0.5 -12.5 q-13 -41 -28 -81 l369 0 q6 0 11 -2 q5 -2 10 -6.5 q5 -4.5 7.5 -9.5 q2.5 -5 2.5 -10.5 q0 -5.5 -2.5 -10.5 q-2.5 -5 -7.5 -9 q-5 -4 -10.5 -6.5 q-5.5 -2.5 -11.5 -2.5 l-381 0 q-6 0 -10 1 q-9 -19 -18 -37 q-40 -82 -88 -143 q-3 -5 -8 -8 q-5 -3 -11 -4.5 q-6 -1.5 -11.5 -1 q-5.5 0.5 -9.5 2.5 ZM257 -39 l0 832 q0 6 2 11.5 q2 5.5 6.5 10 q4.5 4.5 10 7 q5.5 2.5 11 2.5 q5.5 0 10.5 -2.5 q5 -2.5 9 -7 q4 -4.5 6.5 -10 q2.5 -5.5 2.5 -11.5 l0 -832 q0 -5 -2.5 -10.5 q-2.5 -5.5 -6.5 -10 q-4 -4.5 -9 -7.5 q-5 -3 -10.5 -3 q-5.5 0 -11 3 q-5.5 3 -10 7.5 q-4.5 4.5 -6.5 10 q-2 5.5 -2 10.5 ZM93 92 l0 589 q0 6 2 11.5 q2 5.5 6.5 10 q4.5 4.5 9.5 7 q5 2.5 10 2.5 q6 0 10.5 -2.5 q4.5 -2.5 8.5 -7 q4 -4.5 6.5 -10 q2.5 -5.5 2.5 -11.5 l0 -589 q0 -6 -2.5 -11.5 q-2.5 -5.5 -6.5 -10 q-4 -4.5 -8.5 -7 q-4.5 -2.5 -10.5 -2.5 q-5 0 -10 2.5 q-5 2.5 -9.5 7 q-4.5 4.5 -6.5 10 q-2 5.5 -2 11.5 Z" /><glyph glyph-name="uni4E3A" unicode="&#x4e3a;" d="M521 358 q-2 7 -1 13.5 q1 6.5 4.5 11.5 q3.5 5 8.5 8 q8 4 18.5 1 q10.5 -3 17.5 -10 q33 -36 65 -77.5 q32 -41.5 52 -73.5 q3 -5 3 -10.5 q0 -5.5 -1.5 -11 q-1.5 -5.5 -4.5 -10 q-3 -4.5 -7 -7.5 q-5 -3 -11.5 -3 q-6.5 0 -12.5 2.5 q-6 2.5 -11.5 6.5 q-5.5 4 -8.5 10 q-19 30 -47.5 67.5 q-28.5 37.5 -57.5 70.5 q-4 5 -6 12 ZM189 766 q-1 7 -0.5 13.5 q0.5 6.5 4 12 q3.5 5.5 9.5 8.5 q7 3 18 0 q11 -3 16 -10 q23 -24 45 -51.5 q22 -27.5 37 -50.5 q3 -6 3.5 -11.5 q0.5 -5.5 -1 -11 q-1.5 -5.5 -5 -10 q-3.5 -4.5 -7.5 -7.5 q-5 -2 -11.5 -2 q-6.5 0 -12.5 2 q-6 2 -11 6 q-5 4 -9 10 q-13 20 -31 44 q-18 24 -38 45 q-5 6 -6 13 ZM86 -46 q-10 11 -8 26 q2 15 15 25 q116 84 181.5 176.5 q65.5 92.5 97.5 186.5 q30 85 39 167 l-294 0 q-6 0 -12 2 q-6 2 -10.5 6.5 q-4.5 4.5 -7 9.5 q-2.5 5 -2.5 11 l0 1 q0 6 2.5 11 q2.5 5 7 9 q4.5 4 10.5 6.5 q6 2.5 12 2.5 l299 0 q4 67 4 128 l0 81 q0 6 2.5 12 q2.5 6 7 10.5 q4.5 4.5 9.5 7 q5 2.5 10 2.5 l1 0 q6 0 11 -2.5 q5 -2.5 9.5 -7 q4.5 -4.5 7 -10.5 q2.5 -6 2.5 -12 l0 -81 q0 -60 -5 -128 l388 0 q7 0 13 -2.5 q6 -2.5 10.5 -6.5 q4.5 -4 7 -9 q2.5 -5 2.5 -11 l0 -1 q0 -2 -1 -5 q-6 -152 -12 -257 q-6 -105 -14 -173.5 q-8 -68.5 -18.5 -105.5 q-10.5 -37 -25.5 -54 q-15 -18 -33 -25.5 q-18 -7.5 -44 -9.5 q-10 0 -25 0 q-14 0 -40.5 0.5 q-26.5 0.5 -65.5 2.5 q-11 0 -20.5 7 q-9.5 7 -11.5 16 q-5 15 4.5 25.5 q9.5 10.5 26.5 10.5 q2 0 12 -0.5 q10 -0.5 25 -1.5 q15 -1 28.5 -1.5 q13.5 -0.5 24.5 -0.5 l21 0 q16 0 25.5 2.5 q9.5 2.5 18.5 11.5 q12 13 21.5 48.5 q9.5 35.5 17 103.5 q7.5 68 14.5 171 q5 87 10 206 l-363 0 q-9 -94 -43 -191 q-35 -102 -105.5 -202 q-70.5 -100 -194.5 -189 q-4 -3 -10 -4.5 q-6 -1.5 -12 -1 q-6 0.5 -11 2 q-5 1.5 -9 4.5 Z" /><glyph glyph-name="uni4E3B" unicode="&#x4e3b;" d="M407.5 784.5 q-3.5 6.5 -3.5 13 q0 6.5 2.5 13 q2.5 6.5 8.5 9.5 l1 1 q6 4 16 3.5 q10 -0.5 15 -4.5 q39 -30 77.5 -64.5 q38.5 -34.5 65.5 -65.5 q5 -4 7 -10 q2 -6 1.5 -11.5 q-0.5 -5.5 -3.5 -11 q-3 -5.5 -7 -9.5 l-3 -1 q-4 -4 -9.5 -5 q-5.5 -1 -11.5 0 q-6 1 -12 3.5 q-6 2.5 -9 6.5 q-23 27 -56.5 59.5 q-33.5 32.5 -68.5 61.5 q-7 5 -10.5 11.5 ZM58 -12 q0 5 2.5 10 q2.5 5 7 9 q4.5 4 10 6.5 q5.5 2.5 11.5 2.5 l379 0 l0 265 l-287 0 q-6 0 -11.5 2.5 q-5.5 2.5 -10 6.5 q-4.5 4 -7.5 9 q-3 5 -3 10.5 q0 5.5 3 10.5 q3 5 7.5 9.5 q4.5 4.5 10 7 q5.5 2.5 11.5 2.5 l287 0 l0 219 q0 6 2 12 q2 2 3 5 l-336 0 q-5 0 -11 2.5 q-6 2.5 -10.5 6.5 q-4.5 4 -7 9 q-2.5 5 -2.5 11 q0 6 2.5 11 q2.5 5 7 9.5 q4.5 4.5 10.5 6.5 q6 2 11 2 l727 0 q5 0 11 -2 q6 -2 10.5 -6.5 q4.5 -4.5 7 -9.5 q2.5 -5 2.5 -11 q0 -6 -2.5 -11 q-2.5 -5 -7 -9 q-4.5 -4 -10.5 -6.5 q-6 -2.5 -11 -2.5 l-338 0 q2 -3 3 -5 q2 -6 2 -12 l0 -219 l294 0 q5 0 11 -2.5 q6 -2.5 10.5 -7 q4.5 -4.5 7 -9.5 q2.5 -5 2.5 -10.5 q0 -5.5 -2.5 -10.5 q-2.5 -5 -7 -9 q-4.5 -4 -10.5 -6.5 q-6 -2.5 -11 -2.5 l-294 0 l0 -265 l385 0 q5 0 10.5 -2.5 q5.5 -2.5 10 -6.5 q4.5 -4 7.5 -9 q3 -5 3 -10 q0 -6 -3 -11 q-3 -5 -7.5 -9.5 q-4.5 -4.5 -10 -7 q-5.5 -2.5 -10.5 -2.5 l-827 0 q-6 0 -11.5 2.5 q-5.5 2.5 -10 7 q-4.5 4.5 -7 9.5 q-2.5 5 -2.5 11 Z" /><glyph glyph-name="uni4E3E" unicode="&#x4e3e;" d="M420.5 802 q-1.5 7 -0.5 13.5 q1 6.5 4.5 11.5 q3.5 5 9.5 7 q7 4 17.5 0.5 q10.5 -3.5 15.5 -11.5 q20 -26 38 -56.5 q18 -30.5 30 -54.5 q2 -5 2 -10.5 q0 -5.5 -1 -11 q-1 -5.5 -5 -9.5 q-4 -4 -8 -6 q-6 -3 -12 -2.5 q-6 0.5 -12 3 q-6 2.5 -10.5 7.5 q-4.5 5 -7.5 10 q-10 21 -25 46.5 q-15 25.5 -31 49.5 q-3 6 -4.5 13 ZM183.5 771 q-1.5 7 -0.5 13.5 q1 6.5 4 12 q3 5.5 10 7.5 q7 4 17 1.5 q10 -2.5 15 -8.5 q22 -25 44 -53.5 q22 -28.5 37 -52.5 q3 -5 3.5 -11 q0.5 -6 -1 -11.5 q-1.5 -5.5 -5 -10 q-3.5 -4.5 -7.5 -6.5 q-6 -3 -12 -3.5 q-6 -0.5 -12 2 q-6 2.5 -11.5 6.5 q-5.5 4 -9.5 9 q-11 21 -29 45.5 q-18 24.5 -37 46.5 q-4 6 -5.5 13 ZM93 156 q0 6 3 10.5 q3 4.5 7.5 9 q4.5 4.5 10 7 q5.5 2.5 10.5 2.5 l345 0 l0 136 l-208 0 q-6 0 -11.5 3 q-5.5 3 -10 6.5 q-4.5 3.5 -7.5 8.5 q-3 5 -3 11 q0 5 3 10 q3 5 7.5 8.5 q4.5 3.5 10 6.5 q5.5 3 11.5 3 l208 0 l0 97 q0 5 2.5 11 q2.5 6 7 10.5 q4.5 4.5 10 7 q5.5 2.5 10.5 2.5 l1 0 q6 0 11 -2.5 q5 -2.5 9 -7 q4 -4.5 6.5 -10.5 q2.5 -6 2.5 -11 l0 -97 l219 0 q6 0 12 -2.5 q6 -2.5 10.5 -7 q4.5 -4.5 7 -9 q2.5 -4.5 2.5 -9.5 q0 -6 -2.5 -11 q-2.5 -5 -7 -8.5 q-4.5 -3.5 -10.5 -6.5 q-6 -3 -12 -3 l-219 0 l0 -136 l354 0 q6 0 11 -2.5 q5 -2.5 10 -7 q5 -4.5 7.5 -9 q2.5 -4.5 2.5 -10.5 q0 -5 -2.5 -10 q-2.5 -5 -7.5 -9 q-5 -4 -10 -6.5 q-5 -2.5 -11 -2.5 l-354 0 l0 -175 q0 -5 -2.5 -11 q-2.5 -6 -6.5 -10.5 q-4 -4.5 -9 -7 q-5 -2.5 -11 -2.5 l-1 0 q-5 0 -10.5 2.5 q-5.5 2.5 -10 7 q-4.5 4.5 -7 10.5 q-2.5 6 -2.5 11 l0 175 l-345 0 q-5 0 -10.5 2.5 q-5.5 2.5 -10 6.5 q-4.5 4 -7.5 9 q-3 5 -3 10 ZM60 322 q-10 10 -5 24 q5 14 20 22 q36 17 70.5 41 q34.5 24 65.5 53 q31 29 57 61 q23 28 41 58 l-221 0 q-5 0 -10.5 2 q-5.5 2 -10 6.5 q-4.5 4.5 -7.5 9 q-3 4.5 -3 10.5 q0 5 3 10 q3 5 7.5 8.5 q4.5 3.5 10 6 q5.5 2.5 10.5 2.5 l569 0 q-1 1 -1 3 q-1 6 0.5 13 q1.5 7 6.5 13 q23 29 49.5 65 q26.5 36 45.5 67 q6 10 18 15.5 q12 5.5 22 1.5 l1 -1 q6 -2 10.5 -7 q4.5 -5 6 -11.5 q1.5 -6.5 0.5 -12.5 q-1 -6 -5 -12 q-25 -37 -54 -74 q-26 -33 -50 -60 l206 0 q5 0 10.5 -2.5 q5.5 -2.5 10 -6 q4.5 -3.5 7.5 -8.5 q3 -5 3 -10.5 q0 -5.5 -3 -10 q-3 -4.5 -7.5 -9 q-4.5 -4.5 -10 -6.5 q-5.5 -2 -10.5 -2 l-218 0 q18 -26 40 -51 q27 -32 59 -59.5 q32 -27.5 66.5 -51.5 q34.5 -24 69.5 -40 q15 -9 19.5 -23 q4.5 -14 -4.5 -25 q-6 -8 -18 -10 q-12 -2 -22 3 q-37 20 -74 46 q-37 26 -71.5 57.5 q-34.5 31.5 -64.5 67 q-30 35.5 -53 72.5 q-4 5 -5 11 l0 3 l-272 0 l0 -6 q-1 -6 -4 -11 q-23 -40 -52.5 -76.5 q-29.5 -36.5 -63.5 -68 q-34 -31.5 -72 -57.5 q-38 -26 -76 -46 q-9 -5 -20.5 -3.5 q-11.5 1.5 -16.5 9.5 Z" /><glyph glyph-name="uni4E45" unicode="&#x4e45;" d="M59.5 338.5 q-2.5 6.5 -2.5 13.5 q0 7 3 14 q3 7 9 12 q86 80 153.5 191 q67.5 111 112.5 239 q2 5 6 9.5 q4 4.5 9 8 q5 3.5 10.5 4.5 q5.5 1 10.5 0 l5 -1 q5 -1 10 -5.5 q5 -4.5 7.5 -10 q2.5 -5.5 3.5 -12 q1 -6.5 -2 -12.5 q-22 -61 -49 -118 l250 0 q6 0 12 -2 q1 -1 2 -1 q3 3 6 3 q2 0 4 0.5 q2 0.5 4 0.5 l1 0 q2 2 6.5 1 q4.5 -1 7.5 -2 l11 -6 q4 -2 7.5 -6 q3.5 -4 6 -9 q2.5 -5 3 -10 q0.5 -5 -0.5 -10 q-32 -126 -85 -231 q5 -5 7 -11 q24 -62 58.5 -121 q34.5 -59 77 -109.5 q42.5 -50.5 92.5 -92 q50 -41.5 105 -69.5 q16 -9 19.5 -23.5 q3.5 -14.5 -6.5 -27.5 q-2 -4 -7 -6.5 q-5 -2.5 -10 -4 q-5 -1.5 -11 -0.5 q-6 1 -10 3 q-60 31 -113.5 75.5 q-53.5 44.5 -100 100 q-46.5 55.5 -83.5 120.5 q-29 50 -52 103 q-44 -77 -98 -142 q-71 -87 -154.5 -151.5 q-83.5 -64.5 -174.5 -110.5 q-5 -3 -11 -3 q-6 0 -11.5 1.5 q-5.5 1.5 -10 4 q-4.5 2.5 -8.5 6.5 q-10 12 -6 27 q4 15 20 24 q87 44 168 106 q81 62 147.5 144 q66.5 82 117.5 184 q43 86 70 185 l-279 0 q-21 -40 -44 -79 q-72 -117 -161 -202 q-4 -4 -10 -6 q-6 -2 -12 -2.5 q-6 -0.5 -11.5 1 q-5.5 1.5 -9.5 4.5 l-1 0 l0 1 q-6 4 -8.5 10.5 Z" /><glyph glyph-name="uni4E48" unicode="&#x4e48;" d="M118 9 q-2 5 -1.5 11.5 q0.5 6.5 3.5 13.5 q3 7 8 12.5 q5 5.5 11 9.5 q10 6 18 11.5 q8 5.5 18.5 14.5 q10.5 9 25 22 q14.5 13 36.5 34 q24 20 69.5 65 q45.5 45 102 106.5 q56.5 61.5 119.5 135 q63 73.5 120 151.5 q3 4 7.5 7 q4.5 3 10 4.5 q5.5 1.5 11 1.5 q5.5 0 9.5 -2 l5 -2 q6 -4 10 -9 q4 -5 5.5 -11.5 q1.5 -6.5 0.5 -13.5 q-1 -7 -5 -12 q-126 -162 -257 -301 q-109 -115 -215 -205 l556 46 q-5 6 -10 13 q-28 39 -58.5 78.5 q-30.5 39.5 -60.5 74.5 q-5 6 -6 12.5 q-1 6.5 0 13 q1 6.5 4 12 q3 5.5 9 7.5 l2 1 q8 4 19.5 1.5 q11.5 -2.5 17.5 -10.5 q32 -37 64.5 -78 q32.5 -41 62 -81.5 q29.5 -40.5 55 -79.5 q25.5 -39 43.5 -72 q3 -5 3 -10.5 q0 -5.5 -1.5 -11 q-1.5 -5.5 -4.5 -10.5 q-3 -5 -8 -7 l-3 -2 q-5 -3 -11.5 -3 q-6.5 0 -12.5 2 q-6 2 -11 6 q-5 4 -8 10 q-18 32 -43 70 q-4 7 -8 13 q-1 -1 -2 -1 q-6 -4 -13 -4 q-168 -14 -280.5 -24 q-112.5 -10 -184.5 -16.5 q-72 -6.5 -110.5 -10.5 q-38.5 -4 -58.5 -7 q-8 -1 -15.5 0.5 q-7.5 1.5 -13.5 5.5 l-4 2 q-1 0 -2 1 q-13 3 -18 15 ZM86 394.5 q-2 6.5 -1 13 q1 6.5 4.5 12.5 q3.5 6 9.5 12 q48 37 95.5 81.5 q47.5 44.5 91.5 92.5 q44 48 82.5 97 q38.5 49 68.5 97 q6 9 17 13.5 q11 4.5 21 1.5 l3 -1 q6 -3 10.5 -8 q4.5 -5 6 -11.5 q1.5 -6.5 0.5 -13 q-1 -6.5 -5 -12.5 q-34 -50 -76 -102.5 q-42 -52.5 -88 -102.5 q-46 -50 -95 -96.5 q-49 -46.5 -98 -85.5 q-4 -3 -9.5 -4.5 q-5.5 -1.5 -11 -1.5 q-5.5 0 -10.5 1.5 q-5 1.5 -9 5.5 q-5 5 -7 11.5 Z" /><glyph glyph-name="uni4E49" unicode="&#x4e49;" d="M437 790 q-2 6 -2.5 12.5 q-0.5 6.5 1.5 12 q2 5.5 5.5 10.5 q3.5 5 8.5 7 q9 4 20.5 -2 q11.5 -6 16.5 -15 q22 -46 43 -95 q21 -49 34 -91 q2 -5 1.5 -10.5 q-0.5 -5.5 -2 -10.5 q-1.5 -5 -5 -9.5 q-3.5 -4.5 -8.5 -6.5 q-5 -2 -11.5 -2 q-6.5 0 -12 3.5 q-5.5 3.5 -10.5 8.5 q-5 5 -7 11 q-13 40 -32 87.5 q-19 47.5 -40 89.5 ZM61 -54 q-8 11 -2 24.5 q6 13.5 22 19.5 q141 54 252 130 q68 46 126 99 l-5 5 q-91 97 -164 212.5 q-73 115.5 -128 243.5 q-2 6 -2 12 q0 6 2.5 12 q2.5 6 7 10 q4.5 4 9.5 6 q4 2 10 0.5 q6 -1.5 11 -4 q5 -2.5 9.5 -7 q4.5 -4.5 6.5 -9.5 q49 -120 119 -228.5 q70 -108.5 158 -200.5 l10 -10 q14 14 27 29 q87 94 150 205.5 q63 111.5 108 237.5 q1 6 5.5 10.5 q4.5 4.5 10 7.5 q5.5 3 11.5 4 q6 1 11 -1 l3 -1 q5 -1 9 -5.5 q4 -4.5 6.5 -9.5 q2.5 -5 3 -11.5 q0.5 -6.5 -1.5 -11.5 q-50 -134 -117 -251 q-67 -117 -157 -216 q-14 -14 -27 -28 q66 -61 141 -112 q104 -71 225 -117 q17 -6 22 -21 q5 -15 -6 -28 q-4 -7 -14.5 -10 q-10.5 -3 -19.5 0 q-128 46 -237 121 q-83 56 -156 125 q-63 -58 -136 -107 q-117 -80 -267 -136 q-9 -4 -20.5 -0.5 q-11.5 3.5 -15.5 11.5 Z" /><glyph glyph-name="uni4E4B" unicode="&#x4e4b;" d="M439 795.5 q-1 6.5 -0.5 12.5 q0.5 6 4 11.5 q3.5 5.5 9.5 8.5 l2 1 q4 2 9 2 q5 0 10 -1.5 q5 -1.5 9.5 -4 q4.5 -2.5 7.5 -6.5 q22 -29 43 -60.5 q21 -31.5 34 -56.5 q4 -5 4.5 -11 q0.5 -6 -1 -11.5 q-1.5 -5.5 -5 -10 q-3.5 -4.5 -7.5 -7.5 l-3 -1 q-5 -3 -11 -3.5 q-6 -0.5 -12 1.5 q-6 2 -11.5 6 q-5.5 4 -8.5 10 q-12 24 -31 53 q-19 29 -37 55 q-4 6 -5 12.5 ZM65 -13.5 q-2 5.5 -2 11.5 q0 6 2.5 11.5 q2.5 5.5 5.5 9.5 q44 46 82 75.5 q38 29.5 76 29.5 q10 0 19 -3 q4 6 11 11 q75 43 151.5 101.5 q76.5 58.5 146 123.5 q69.5 65 128.5 131 q40 46 71 88 l-621 0 q-5 0 -11 2.5 q-6 2.5 -10.5 6.5 q-4.5 4 -7.5 9 q-3 5 -3 11 q0 6 3 11 q3 5 7.5 9.5 q4.5 4.5 10.5 6.5 q6 2 11 2 l644 0 q5 0 11 -2 q3 2 6 2 q2 0 4 0.5 q2 0.5 4 0.5 q3 1 8 0 q5 -1 9 -3 l8 -5 q5 -3 8 -9 q3 -6 4.5 -12 q1.5 -6 0.5 -12.5 q-1 -6.5 -4 -11.5 q-48 -67 -112 -137.5 q-64 -70.5 -136.5 -136 q-72.5 -65.5 -150.5 -124.5 q-72 -54 -142 -96 q2 -1 3 -2 q15 -12 35 -25 q48 -30 110.5 -38.5 q62.5 -8.5 146.5 -8.5 q80 0 165 3.5 q85 3.5 154 8.5 q18 2 28 -9 q10 -11 6 -28 q-2 -9 -12 -16.5 q-10 -7.5 -20 -8.5 q-31 -2 -72 -3.5 q-41 -1.5 -84.5 -2.5 q-43.5 -1 -87 -1.5 q-43.5 -0.5 -79.5 -0.5 q-91 0 -155.5 10.5 q-64.5 10.5 -114.5 42.5 q-30 19 -53 39 q-23 20 -39 20 q-21 0 -48.5 -25 q-27.5 -25 -59.5 -65 q-5 -6 -11.5 -9.5 q-6.5 -3.5 -13 -4 q-6.5 -0.5 -13 2 q-6.5 2.5 -10.5 8.5 l-2 2 q-3 4 -5 9.5 Z" /><glyph glyph-name="uni4E4C" unicode="&#x4e4c;" d="M197 348 l0 353 q0 7 2.5 12.5 q2.5 5.5 7 10 q4.5 4.5 10.5 7.5 q6 3 12 3 l163 0 q-1 7 2 15 q11 15 20.5 33 q9.5 18 17.5 33 q3 11 13.5 17.5 q10.5 6.5 20.5 4.5 q7 -1 12 -5 q5 -4 7.5 -10 q2.5 -6 2.5 -12.5 q0 -6.5 -3 -13.5 q-11 -18 -21 -37 q-8 -13 -15 -25 l334 0 q6 0 11.5 -2.5 q5.5 -2.5 10 -6.5 q4.5 -4 7.5 -8.5 q3 -4.5 3 -10 q0 -5.5 -3 -10.5 l0 -1 q-5 -49 -9 -85 q-5 -38 -10.5 -64.5 q-5.5 -26.5 -12.5 -43 q-7 -16.5 -16 -24.5 q-11 -12 -25.5 -16 q-14.5 -4 -36.5 -5 q-10 -1 -25 -1 q-8 0 -25.5 0.5 q-17.5 0.5 -47.5 2.5 q-10 0 -19.5 6 q-9.5 6 -10.5 13 q-3 13 7.5 22 q10.5 9 28.5 8 q12 -1 22 -1 q10 0 19 -0.5 q9 -0.5 17 -0.5 l14 0 q14 0 21 1.5 q7 1.5 13 7.5 q5 6 10.5 20 q5.5 14 10.5 39 q5 25 9 62 q2 19 5 42 l-490 0 q-3 0 -5 -1.5 q-2 -1.5 -2 -3.5 l0 -297 q0 -2 1.5 -4 q1.5 -2 3.5 -2 l624 0 q6 0 12 -2 q3 -1 5 -3 q2 -1 4 -3 l1 0 q5 -4 7 -9 q3 -4 3 -10 q0 -3 -1 -6 q-6 -94 -12 -160 q-6 -67 -13.5 -111.5 q-7.5 -44.5 -16.5 -70 q-9 -25.5 -20 -38.5 q-14 -15 -30 -20.5 q-16 -5.5 -40 -7.5 l-49 0 q-32 0 -69 2 q-10 0 -19.5 7 q-9.5 7 -11.5 14 q-4 15 6 24.5 q10 9.5 27 9.5 q2 0 3 0 q16 -1 29 -1.5 q13 -0.5 24.5 -1 q11.5 -0.5 21.5 -0.5 l18 0 q14 0 23.5 2 q9.5 2 16.5 9 q10 9 18 32.5 q8 23.5 14 67 q6 43.5 12 108.5 q4 49 8 113 l-625 0 q-6 0 -12 2.5 q-6 2.5 -10.5 7 q-4.5 4.5 -7 10.5 q-2.5 6 -2.5 13 ZM61.5 154 q-2.5 5 -2.5 10 q0 5 2.5 10 q2.5 5 7.5 8.5 q5 3.5 10.5 6 q5.5 2.5 11.5 2.5 l639 0 q5 0 11 -2.5 q6 -2.5 10.5 -6 q4.5 -3.5 7.5 -8.5 q3 -5 3 -10 q0 -5 -3 -10 q-3 -5 -7.5 -9 q-4.5 -4 -10.5 -6 q-6 -2 -11 -2 l-639 0 q-6 0 -11.5 2 q-5.5 2 -10.5 6 q-5 4 -7.5 9 Z" /><glyph glyph-name="uni4E4D" unicode="&#x4e4d;" d="M66 411.5 q-3 6.5 -3.5 13.5 q-0.5 7 2 14 q2.5 7 7.5 13 q72 70 133 164 q61 94 104 197 q2 5 6 9 q4 4 9 7.5 q5 3.5 10.5 4.5 q5.5 1 10.5 0 l3 -1 q6 -2 10.5 -6 q4.5 -4 7.5 -9.5 q3 -5.5 3.5 -12.5 q0.5 -7 -2.5 -12 q-29 -67 -63 -130 l603 0 q6 0 12 -2 q6 -2 10.5 -6.5 q4.5 -4.5 7 -9.5 q2.5 -5 2.5 -11 q0 -6 -2.5 -11 q-2.5 -5 -7 -9 q-4.5 -4 -10.5 -6.5 q-6 -2.5 -12 -2.5 l-438 0 l0 -162 q3 1 5 1 l379 0 q5 0 10.5 -2 q5.5 -2 10 -6 q4.5 -4 7.5 -9 q3 -5 3 -10.5 q0 -5.5 -3 -10.5 q-3 -5 -7.5 -9.5 q-4.5 -4.5 -10 -7 q-5.5 -2.5 -10.5 -2.5 l-379 0 q-2 0 -5 1 l0 -168 q3 1 6 1 l391 0 q5 0 11 -2.5 q6 -2.5 10.5 -7 q4.5 -4.5 7 -9.5 q2.5 -5 2.5 -10 q0 -6 -2.5 -11 q-2.5 -5 -7 -9 q-4.5 -4 -10.5 -7 q-6 -3 -11 -3 l-391 0 q-3 0 -6 1 l0 -208 q0 -5 -2.5 -11 q-2.5 -6 -6.5 -10.5 q-4 -4.5 -9 -7 q-5 -2.5 -11 -2.5 l-3 0 q-5 0 -10 2.5 q-5 2.5 -9.5 7 q-4.5 4.5 -7 10.5 q-2.5 6 -2.5 11 l0 650 l-120 0 q-9 0 -15 3 l-1 1 l-18 -28 q-64 -100 -136 -175 q-4 -4 -9.5 -6.5 q-5.5 -2.5 -11.5 -3 q-6 -0.5 -12 1 q-6 1.5 -10 3.5 q-6 4 -9 10.5 Z" /><glyph glyph-name="uni4E4E" unicode="&#x4e4e;" d="M689.5 435 q-1.5 6 -1.5 12.5 q0 6.5 3 12.5 q12 19 23.5 41 q11.5 22 23.5 45.5 q12 23.5 22.5 46.5 q10.5 23 19.5 44 q2 6 6 11 q4 5 10 8 q6 3 12 4 q6 1 12 -1 l1 -1 q6 -1 10 -6 q4 -5 6 -11.5 q2 -6.5 2 -13 q0 -6.5 -3 -12.5 q-23 -47 -48.5 -96 q-25.5 -49 -49.5 -88 q-5 -8 -15.5 -12.5 q-10.5 -4.5 -19.5 -1.5 q-5 3 -8.5 7.5 q-3.5 4.5 -5 10.5 ZM189 601 q-3 7 -3 14 q0 7 2 13 q2 6 6 10.5 q4 4.5 10 6.5 q8 4 18.5 -1.5 q10.5 -5.5 14.5 -13.5 q25 -43 46.5 -90 q21.5 -47 34.5 -85 q2 -5 1.5 -10 q-0.5 -5 -3 -10.5 q-2.5 -5.5 -6 -9.5 q-3.5 -4 -8.5 -6 q-6 -2 -12.5 -1 q-6.5 1 -12 4 q-5.5 3 -10 8.5 q-4.5 5.5 -6.5 11.5 q-12 34 -30.5 77 q-18.5 43 -41.5 82 ZM57 332 l0 1 q0 6 2.5 11 q2.5 5 7 9.5 q4.5 4.5 10 6.5 q5.5 2 11.5 2 l389 0 l0 343 q0 2 1 5 q-70 -6 -141 -10 q-88 -6 -169 -8 q-12 -1 -22 5.5 q-10 6.5 -13 15.5 q-4 12 6.5 21.5 q10.5 9.5 25.5 10.5 q82 3 170 9 q88 6 172 15 q84 9 159.5 20 q75.5 11 131.5 25 q8 2 18 -2 q10 -4 14 -11 l1 -2 q4 -6 4.5 -13 q0.5 -7 -2.5 -13 q-3 -6 -8.5 -10.5 q-5.5 -4.5 -13.5 -5.5 q-61 -15 -139 -26 q-65 -9 -134 -16 q1 -5 1 -10 l0 -343 l375 0 q6 0 11.5 -2 q5.5 -2 10 -6.5 q4.5 -4.5 7 -9.5 q2.5 -5 2.5 -11 l0 -1 q0 -6 -2.5 -11 q-2.5 -5 -7 -9.5 q-4.5 -4.5 -10 -7 q-5.5 -2.5 -11.5 -2.5 l-375 0 l0 -292 q0 -37 -11.5 -54 q-11.5 -17 -38.5 -24 q-23 -8 -66 -9 q-43 -1 -114 -2 q-9 0 -18.5 6 q-9.5 6 -11.5 14 q-6 16 2.5 28 q8.5 12 27.5 11 q51 -1 85.5 -1 q34.5 0 52.5 1 q17 2 23.5 7.5 q6.5 5.5 6.5 21.5 l0 293 l-389 0 q-6 0 -11.5 2.5 q-5.5 2.5 -10 7 q-4.5 4.5 -7 9.5 q-2.5 5 -2.5 11 Z" /><glyph glyph-name="uni4E4F" unicode="&#x4e4f;" d="M416 631 q-3 6 -3.5 12 q-0.5 6 0.5 12.5 q1 6.5 4.5 11.5 q3.5 5 8.5 7 l1 0 q4 2 9 2 q5 0 10.5 -1 q5.5 -1 10.5 -4.5 q5 -3.5 8 -7.5 q18 -23 35.5 -48 q17.5 -25 30.5 -45 q4 -4 4.5 -10 q0.5 -6 -1 -11.5 q-1.5 -5.5 -4.5 -10 q-3 -4.5 -8 -7.5 q-5 -4 -11.5 -4.5 q-6.5 -0.5 -12.5 1.5 q-6 2 -12 6 q-6 4 -9 10 q-12 19 -28 43 q-16 24 -33 44 ZM129 707 q-1 6 1 12 q2 6 6.5 10.5 q4.5 4.5 11.5 7.5 q7 3 16 3 q86 4 178 10.5 q92 6.5 180 15 q88 8.5 167 20 q79 11.5 139 24.5 q7 2 16.5 -1.5 q9.5 -3.5 13.5 -9.5 l4 -4 q5 -6 5.5 -12 q0.5 -6 -2 -12 q-2.5 -6 -8 -10.5 q-5.5 -4.5 -13.5 -6.5 q-66 -14 -148.5 -25 q-82.5 -11 -172.5 -19 q-90 -8 -182.5 -14 q-92.5 -6 -177.5 -9 q-11 -1 -21.5 5.5 q-10.5 6.5 -12.5 14.5 ZM68 -24 q-6 8 -6 19.5 q0 11.5 7 18.5 q45 53 83.5 85.5 q38.5 32.5 74.5 32.5 q12 0 23 -5.5 q11 -5.5 23 -15.5 q5 -4 11 -9 q6 9 18 15 q72 32 143.5 74.5 q71.5 42.5 136 89.5 q64.5 47 119.5 96 q31 29 56 56 l-605 0 q-5 0 -11 2 q-6 2 -10.5 6.5 q-4.5 4.5 -7.5 10 q-3 5.5 -3 10.5 q0 6 3 11 q3 5 7.5 9 q4.5 4 10.5 6.5 q6 2.5 11 2.5 l631 0 q5 0 11 -3 q2 0 4 -1 l1 1 q3 3 7 3 q2 0 3.5 0.5 q1.5 0.5 3.5 0.5 q3 1 9 -0.5 q6 -1.5 9 -3.5 l6 -4 q6 -4 8.5 -10 q2.5 -6 3.5 -12.5 q1 -6.5 -1 -13 q-2 -6.5 -7 -11.5 q-45 -52 -105.5 -104 q-60.5 -52 -129 -100.5 q-68.5 -48.5 -141.5 -90.5 q-71 -41 -142 -73 q6 -4 13 -9 q48 -33 111 -42.5 q63 -9.5 151 -9.5 q81 0 164.5 3.5 q83.5 3.5 152.5 8.5 q18 2 28 -9 q10 -11 6 -27 q-2 -9 -11.5 -17 q-9.5 -8 -20.5 -9 q-30 -2 -71 -3.5 q-41 -1.5 -84 -2.5 l-87 -2 q-44 -1 -79 -1 q-47 0 -87 3 q-40 3 -73.5 9 q-33.5 6 -62 17.5 q-28.5 11.5 -54.5 29.5 q-15 12 -28.5 23 q-13.5 11 -25.5 21 q-12 10 -22 16.5 q-10 6.5 -18 6.5 q-20 0 -47 -27 q-27 -27 -61 -70 q-8 -15 -21.5 -17 q-13.5 -2 -24.5 11 l-3 4 Z" /><glyph glyph-name="uni4E50" unicode="&#x4e50;" d="M714.5 233.5 q-1.5 6.5 -0.5 13 q1 6.5 4.5 11.5 q3.5 5 9.5 7 q8 4 18.5 1.5 q10.5 -2.5 15.5 -8.5 q25 -25 49.5 -52.5 q24.5 -27.5 48 -55 q23.5 -27.5 44.5 -54 q21 -26.5 37 -48.5 q3 -5 3.5 -11 q0.5 -6 -0.5 -11.5 q-1 -5.5 -4.5 -10.5 q-3.5 -5 -7.5 -8 l-1 -1 q-5 -3 -11.5 -3 q-6.5 0 -12 1.5 q-5.5 1.5 -11 5.5 q-5.5 4 -8.5 9 q-15 22 -34.5 47 q-19.5 25 -41.5 51.5 q-22 26.5 -45 53 q-23 26.5 -46 50.5 q-5 6 -6.5 12.5 ZM119 392 q-1 5 -0.5 12 q0.5 7 2.5 14.5 q2 7.5 4.5 15 q2.5 7.5 3.5 14.5 q2 3 2 3.5 q0 0.5 0.5 2.5 q0.5 2 2.5 8 q2 6 5 19 q2 11 7.5 35 q5.5 24 11 56 q5.5 32 10.5 69.5 q5 37.5 7 75.5 q0 8 3.5 14.5 q3.5 6.5 8.5 10.5 l4 2 q1 2 3 4 q4 4 11 7 q7 3 16 3 q77 3 159.5 7.5 q82.5 4.5 161.5 12 q79 7.5 149 18 q70 10.5 121 23.5 q8 2 17.5 -1.5 q9.5 -3.5 13.5 -9.5 l1 -1 q5 -7 5.5 -14 q0.5 -7 -2 -13 q-2.5 -6 -8 -11 q-5.5 -5 -13.5 -6 q-58 -14 -131 -24 q-73 -10 -153 -17 q-80 -7 -162 -11 q-75 -5 -144 -6 q-8 -76 -22 -153 q-12 -66 -26 -120 l302 0 l0 180 q0 5 2 11 q2 6 6.5 10.5 q4.5 4.5 9.5 7 q5 2.5 11 2.5 l2 0 q6 0 11 -2.5 q5 -2.5 9 -7 q4 -4.5 6 -10.5 q2 -6 2 -11 l0 -180 l343 0 q6 0 11.5 -2.5 q5.5 -2.5 10 -6.5 q4.5 -4 7.5 -9.5 q3 -5.5 3 -11.5 q0 -6 -3 -11.5 q-3 -5.5 -7.5 -9.5 q-4.5 -4 -10 -6.5 q-5.5 -2.5 -12.5 -2.5 l-342 0 l0 -367 q0 -32 -8.5 -47 q-8.5 -15 -30.5 -22 q-19 -8 -52.5 -9.5 q-33.5 -1.5 -88.5 -2.5 q-9 0 -17.5 6.5 q-8.5 6.5 -11.5 13.5 q-5 15 4 27 q9 12 26 11 q24 -1 42 -1 q9 0 25 0.5 q16 0.5 29 1.5 q13 0 18.5 4.5 q5.5 4.5 5.5 17.5 l0 367 l-246 0 q-22 0 -37 -0.5 q-15 -0.5 -25 -1.5 q-10 -1 -19.5 0.5 q-9.5 1.5 -16.5 5.5 l-4 2 l-5 0 q-6 1 -11 4.5 q-5 3.5 -7 9.5 ZM61.5 16 q-2.5 6 -2 12.5 q0.5 6.5 3 13.5 q2.5 7 7.5 12 q43 41 85 93.5 q42 52.5 75 105.5 q5 9 16.5 14 q11.5 5 19.5 1 q7 -2 11.5 -6.5 q4.5 -4.5 6 -10.5 q1.5 -6 1 -13 q-0.5 -7 -4.5 -13 q-36 -58 -81 -114 q-45 -56 -88 -101 q-4 -4 -9.5 -7 q-5.5 -3 -11.5 -3.5 q-6 -0.5 -11.5 1 q-5.5 1.5 -9.5 5.5 q-5 4 -7.5 10 Z" /><glyph glyph-name="uni4E58" unicode="&#x4e58;" d="M647 283 l0 225 q0 5 2 10.5 q2 5.5 6.5 10 q4.5 4.5 9.5 7.5 q5 3 10 3 q5 0 10 -3 q5 -3 9 -7.5 q4 -4.5 6 -10 q2 -5.5 2 -10.5 l0 -80 q35 14 69 28 q36 16 64 31 q9 3 20 1.5 q11 -1.5 17 -8.5 q5 -5 5.5 -11.5 q0.5 -6.5 -1 -12.5 q-1.5 -6 -6.5 -11 q-5 -5 -12 -7 q-33 -15 -71 -29.5 q-38 -14.5 -74 -27.5 q-6 -1 -11 -2 l0 -97 q0 -16 6.5 -21 q6.5 -5 30.5 -5 l112 0 q14 0 19 7.5 q5 7.5 7 37.5 q2 5 6.5 9 q4.5 4 9 7.5 q4.5 3.5 10.5 4.5 q6 1 12 -1 q4 -1 7 -5 q3 -4 5 -8.5 q2 -4.5 2.5 -10 q0.5 -5.5 -0.5 -10.5 q-3 -24 -7 -40.5 q-4 -16.5 -11.5 -25.5 q-7.5 -9 -20 -12.5 q-12.5 -3.5 -33.5 -3.5 l-123 0 q-26 0 -43 3 q-17 3 -26.5 12 q-9.5 9 -13.5 24 q-4 15 -4 39 ZM72 243 q-2 6 -0.5 11.5 q1.5 5.5 5 10.5 q3.5 5 9.5 8 q6 3 13 4 q41 7 90.5 16 q49.5 9 102.5 20 l2 0 l0 99 l-170 0 q-13 0 -22.5 8.5 q-9.5 8.5 -9.5 17.5 q0 4 2.5 8.5 q2.5 4.5 7 8.5 q4.5 4 10.5 6 q6 2 12 2 l170 0 l0 43 q0 5 2.5 11 q2.5 6 7 10.5 q4.5 4.5 9 7.5 q4.5 3 10.5 3 q5 0 10 -3 q5 -3 9 -7.5 q4 -4.5 6 -10.5 q2 -6 2 -11 l0 -261 q0 -6 -2 -12 q-2 -6 -6 -10.5 q-4 -4.5 -9 -7 q-5 -2.5 -10 -2.5 q-6 0 -10.5 2.5 q-4.5 2.5 -9 7 q-4.5 4.5 -7 10.5 q-2.5 6 -2.5 12 l0 19 q-48 -10 -94 -19 q-51 -10 -94 -19 q-11 -3 -21.5 3 q-10.5 6 -12.5 14 ZM66 -23 q-10 13 -4 26.5 q6 13.5 23 20.5 q57 21 112 52 q55 31 104 70.5 q49 39.5 90 84 q41 44.5 71 92.5 q2 4 6 7 l0 239 l-370 0 q-6 0 -12 2.5 q-6 2.5 -10.5 6 q-4.5 3.5 -7.5 8.5 q-3 5 -3 10.5 q0 5.5 3 10 q3 4.5 7.5 9 q4.5 4.5 10.5 6.5 q6 2 12 2 l370 0 l0 99 q0 4 1 7 q-65 -5 -132 -9 q-85 -5 -164 -7 q-11 -1 -20.5 5 q-9.5 6 -11.5 15 q-4 11 6 21 q10 10 26 10 q80 4 165.5 9.5 q85.5 5.5 167.5 12.5 q82 7 155.5 16.5 q73.5 9.5 129.5 21.5 q8 1 18 -3 q10 -4 14 -11 q3 -7 2.5 -13.5 q-0.5 -6.5 -3.5 -12 q-3 -5.5 -9 -9.5 q-6 -4 -13 -5 q-62 -12 -137 -21 q-66 -8 -136 -15 q2 -6 2 -12 l0 -99 l372 0 q7 0 12.5 -2 q5.5 -2 10 -6.5 q4.5 -4.5 7.5 -9 q3 -4.5 3 -10 q0 -5.5 -3 -10.5 q-3 -5 -7.5 -8.5 q-4.5 -3.5 -10 -6 q-5.5 -2.5 -12.5 -2.5 l-372 0 l0 -239 q6 -4 9 -9 q30 -47 71.5 -92 q41.5 -45 90 -85 q48.5 -40 103 -71.5 q54.5 -31.5 111.5 -53.5 q17 -7 23 -20.5 q6 -13.5 -4 -25.5 q-4 -7 -15 -10 q-11 -3 -19 1 q-60 22 -117.5 57 q-57.5 35 -109 78 q-51.5 43 -96.5 93 q-25 29 -47 59 l0 -295 q0 -6 -2 -12 q-2 -6 -6.5 -10.5 q-4.5 -4.5 -9.5 -7 q-5 -2.5 -11 -2.5 l-3 0 q-5 0 -10 2.5 q-5 2.5 -9.5 7 q-4.5 4.5 -7 10.5 q-2.5 6 -2.5 12 l0 291 q-20 -27 -43 -53 q-44 -50 -96 -92.5 q-52 -42.5 -110 -77 q-58 -34.5 -118 -56.5 q-9 -4 -20 -1 q-11 3 -15 10 Z" /><glyph glyph-name="uni4E5D" unicode="&#x4e5d;" d="M67 -57 q-10 11 -7 25.5 q3 14.5 17 23.5 q106 59 164 145 q58 86 86 191 q23 89 30 189 l-244 0 q-5 0 -10.5 2.5 q-5.5 2.5 -10 6.5 q-4.5 4 -7.5 9 q-3 5 -3 11 l0 1 q0 6 3 11 q3 5 7.5 9.5 q4.5 4.5 10 6.5 q5.5 2 10.5 2 l247 0 q4 108 4 218 q0 7 3 12.5 q3 5.5 7 10 q4 4.5 9 7.5 q5 3 11 3 l4 0 q6 0 11 -3 q5 -3 9.5 -7.5 q4.5 -4.5 6.5 -10 q2 -5.5 2 -11.5 q-1 -88 -3 -175 l-2 -44 l274 0 q6 0 11 -2 q4 -2 8 -6 l2 -2 q4 -4 6 -8 q2 -5 2 -11 l0 -511 q0 -24 6.5 -31.5 q6.5 -7.5 32.5 -7.5 l115 0 q9 0 15 3.5 q6 3.5 10.5 13.5 q4.5 10 6.5 28.5 q2 18.5 3 46.5 q2 19 13.5 27.5 q11.5 8.5 25.5 2.5 q8 -3 13.5 -13 q5.5 -10 5.5 -19 q-3 -42 -8 -71 q-5 -29 -14.5 -46 q-9.5 -17 -25.5 -24.5 q-16 -7.5 -41 -7.5 l-126 0 q-26 0 -44 4.5 q-18 4.5 -28.5 15.5 q-10.5 11 -15.5 30 q-5 19 -5 49 l0 480 l-246 0 q-2 -33 -6 -65 q-10 -81 -29.5 -156 q-19.5 -75 -55 -140.5 q-35.5 -65.5 -89 -120.5 q-53.5 -55 -131.5 -97 q-4 -3 -10 -4 q-6 -1 -11.5 0 q-5.5 1 -10 3 q-4.5 2 -8.5 6 Z" /><glyph glyph-name="uni4E5F" unicode="&#x4e5f;" d="M41 394 q-2 5 -1 10.5 q1 5.5 4.5 10.5 q3.5 5 8 9.5 q4.5 4.5 11.5 6.5 l156 47 l0 258 q0 7 2.5 13 q2.5 6 6.5 10.5 q4 4.5 9.5 7 q5.5 2.5 10.5 2.5 q6 0 11 -2.5 q5 -2.5 9.5 -7 q4.5 -4.5 6.5 -10.5 q2 -6 2 -12 l0 -241 l227 69 l0 238 q0 6 2.5 12 q2.5 6 7 10.5 q4.5 4.5 9.5 7 q5 2.5 11 2.5 q5 0 10.5 -2.5 q5.5 -2.5 9.5 -7 q4 -4.5 6 -10.5 q2 -6 2 -12 l0 -220 l235 71 q5 2 11 2 l1 0 l8 8 q5 4 13.5 5 q8.5 1 13.5 -2 l5 -2 q9 -3 15.5 -9 q6.5 -6 5.5 -10 q0 -1 -0.5 -4 q-0.5 -3 -0.5 -6 q-2 -139 -10 -229 q-8 -90 -25 -135 q-14 -37 -34.5 -52.5 q-20.5 -15.5 -44.5 -18.5 q-18 -1 -36 -2 q-18 -1 -30 -1 q-12 0 -23 1 q-10 0 -19.5 6 q-9.5 6 -11.5 14 q-3 14 5 24 q8 10 24 9 q10 0 19 -0.5 q9 -0.5 17 -0.5 l28 0 q19 0 32 8.5 q13 8.5 24 39.5 q14 39 19 125 q5 72 6 177 l-247 -76 l0 -360 q0 -6 -2 -11.5 q-2 -5.5 -6 -10 q-4 -4.5 -9.5 -7.5 q-5.5 -3 -10.5 -3 q-6 0 -11 3 q-5 3 -9.5 7.5 q-4.5 4.5 -7 10 q-2.5 5.5 -2.5 11.5 l0 343 l-227 -70 l0 -350 q0 -26 5 -43.5 q5 -17.5 18 -27.5 q13 -10 37 -14 q24 -4 61 -4 l371 0 q31 0 51 6 q20 6 33 22 q13 16 20.5 42.5 q7.5 26.5 11.5 67.5 q5 17 16.5 25.5 q11.5 8.5 25.5 2.5 q8 -3 14 -13 q6 -10 4 -20 q-6 -53 -14.5 -89 q-8.5 -36 -27 -58 q-18.5 -22 -50.5 -31.5 q-32 -9.5 -86 -9.5 l-365 0 q-52 0 -87 6.5 q-35 6.5 -56.5 22.5 q-21.5 16 -30.5 45 q-9 29 -9 73 l0 329 l-141 -43 q-6 -2 -12 -1.5 q-6 0.5 -11 3 q-5 2.5 -9 6.5 q-4 4 -6 9 Z" /><glyph glyph-name="uni4E60" unicode="&#x4e60;" d="M256.5 557 q-3.5 6 -4.5 12 q-1 6 0.5 12.5 q1.5 6.5 6.5 10.5 q6 6 17.5 6.5 q11.5 0.5 20.5 -5.5 q29 -19 60.5 -41 q31.5 -22 61.5 -44.5 q30 -22.5 57.5 -44 q27.5 -21.5 48.5 -40.5 q4 -3 6.5 -9 q2.5 -6 3 -11.5 q0.5 -5.5 -1 -11 q-1.5 -5.5 -5.5 -9.5 l0 -1 q-4 -5 -10 -7 q-6 -2 -12.5 -2 q-6.5 0 -12.5 2 q-6 2 -11 6 q-20 19 -45.5 40 q-25.5 21 -54 42.5 q-28.5 21.5 -58.5 43.5 q-30 22 -59 41 q-5 4 -8.5 10 ZM125.5 720 q-2.5 5 -2.5 11 q0 6 2.5 11 q2.5 5 7 9 q4.5 4 10 6 q5.5 2 11.5 2 l697 0 q6 0 11.5 -2 q5.5 -2 10 -6 q4.5 -4 7 -9 q2.5 -5 2.5 -11 l0 -10 q-3 -199 -6 -334 q-3 -135 -8.5 -221 q-5.5 -86 -14 -130 q-8.5 -44 -23.5 -63 q-15 -22 -32.5 -30.5 q-17.5 -8.5 -43.5 -10.5 q-18 -2 -44 -2 q-6 0 -26 0.5 q-20 0.5 -56 2.5 q-11 0 -20 7 q-9 7 -11 15 q-4 15 5.5 24.5 q9.5 9.5 26.5 9.5 q2 0 3 0 q18 -1 32.5 -1.5 q14.5 -0.5 27.5 -0.5 l43 0 q14 -1 23 2 q9 3 17 13 q12 14 20 59 q8 45 13.5 132.5 q5.5 87.5 8.5 222.5 q3 121 6 287 l-669 0 q-6 0 -11.5 2 q-5.5 2 -10 6 q-4.5 4 -7 9 ZM119 96 q-1 5 -1 11.5 q0 6.5 3 12 q3 5.5 8 10 q5 4.5 12 6.5 q51 16 113.5 36.5 q62.5 20.5 132 43.5 q69.5 23 143 47.5 q73.5 24.5 146.5 49.5 q7 3 13.5 2 q6.5 -1 12.5 -4 q6 -3 10 -7.5 q4 -4.5 5 -10.5 q2 -9 -5 -19.5 q-7 -10.5 -16 -13.5 q-71 -24 -143.5 -49 q-72.5 -25 -141.5 -49 q-69 -24 -133 -45.5 q-64 -21.5 -119 -39.5 q-5 -2 -11.5 -1.5 q-6.5 0.5 -12 3 q-5.5 2.5 -9.5 6.5 q-4 4 -6 9 l-1 2 Z" /><glyph glyph-name="uni4E66" unicode="&#x4e66;" d="M749.5 752 q-3.5 6 -5 12 q-1.5 6 0 12 q1.5 6 4.5 10 q6 6 17 7 q11 1 19 -4 q36 -25 73.5 -53 q37.5 -28 64.5 -51 q4 -3 7 -8.5 q3 -5.5 4 -11.5 q1 -6 0 -11.5 q-1 -5.5 -5 -9.5 q-3 -4 -9 -6.5 q-6 -2.5 -12 -2.5 q-6 0 -12.5 2 q-6.5 2 -10.5 5 q-26 23 -59.5 50 q-33.5 27 -67.5 51 q-5 3 -8.5 9 ZM489 388 l248 0 l0 208 q0 2 -2 4 q-2 2 -4 2 l-242 0 l0 -214 ZM64.5 350 q-2.5 5 -2.5 10.5 q0 5.5 2.5 10.5 q2.5 5 7 9 q4.5 4 10.5 6 q6 2 12 2 l336 0 l0 214 l-267 0 q-6 0 -12 2 q-6 2 -10.5 6.5 q-4.5 4.5 -7 9.5 q-2.5 5 -2.5 10.5 q0 5.5 2.5 10.5 q2.5 5 7 9 q4.5 4 10.5 6.5 q6 2.5 12 2.5 l267 0 l0 143 q0 5 2 11 q2 6 6.5 10.5 q4.5 4.5 10 7 q5.5 2.5 10.5 2.5 l1 0 q6 0 11.5 -2.5 q5.5 -2.5 9.5 -7 q4 -4.5 6 -10.5 q2 -6 2 -11 l0 -143 l275 0 q6 0 11.5 -2.5 q5.5 -2.5 10 -7 q4.5 -4.5 7.5 -10.5 q3 -6 3 -12 l0 -239 l113 0 q6 0 12 -2 q6 -2 10.5 -6 q4.5 -4 7 -9 q2.5 -5 2.5 -10.5 q0 -5.5 -3 -10.5 l0 -1 q-6 -69 -11 -118 q-6 -54 -13 -90 q-7 -36 -15.5 -57 q-8.5 -21 -19.5 -31 q-14 -15 -30 -20 q-16 -5 -40 -6 q-13 -1 -32 -1 q-9 0 -31 0.5 q-22 0.5 -60 2.5 q-11 0 -20.5 6.5 q-9.5 6.5 -11.5 14.5 q-4 15 6 24 q10 9 27 9 q2 0 4 0 q16 0 30.5 -1 q14.5 -1 26.5 -1.5 q12 -0.5 22 -0.5 l19 0 q16 0 25 1.5 q9 1.5 16 8.5 q9 8 16 27 q7 19 12.5 53 q5.5 34 11.5 86 q3 34 7 76 l-388 0 l0 -377 q0 -5 -2 -11 q-2 -6 -6 -10.5 q-4 -4.5 -9.5 -7 q-5.5 -2.5 -11.5 -2.5 l-1 0 q-5 0 -10.5 2.5 q-5.5 2.5 -10 7 q-4.5 4.5 -6.5 10.5 q-2 6 -2 11 l0 377 l-336 0 q-6 0 -12 2.5 q-6 2.5 -10.5 6.5 q-4.5 4 -7 9 Z" /><glyph glyph-name="uni4E70" unicode="&#x4e70;" d="M553 134.5 q-2 5.5 -2 11.5 q0 6 4 12 q5 5 15 7 q10 2 18 -1 q85 -40 166 -85.5 q81 -45.5 142 -87.5 q5 -4 9 -9.5 q4 -5.5 5 -11.5 q1 -6 -0.5 -12.5 q-1.5 -6.5 -5.5 -11.5 q-6 -7 -18 -8 q-12 -1 -22 5 q-55 41 -132.5 85.5 q-77.5 44.5 -159.5 86.5 q-7 3 -12 8.5 q-5 5.5 -7 11 ZM245.5 605 q-2.5 6 -2 11.5 q0.5 5.5 4.5 10.5 q4 6 14 8 q10 2 18 -2 q40 -16 80 -38 q40 -22 69 -43 q5 -3 8 -8 q3 -5 4.5 -10.5 q1.5 -5.5 0.5 -11 q-1 -5.5 -3 -10.5 q-4 -4 -9 -6 q-5 -2 -11.5 -2.5 q-6.5 -0.5 -12.5 1 q-6 1.5 -11 4.5 q-25 20 -60 39.5 q-35 19.5 -71 36.5 q-7 4 -11.5 9 q-4.5 5 -7 11 ZM136.5 457.5 q-2.5 5.5 -2 11.5 q0.5 6 4.5 10 q4 6 14.5 8.5 q10.5 2.5 18.5 -1.5 q40 -15 81 -36.5 q41 -21.5 69 -41.5 q5 -3 8.5 -7.5 q3.5 -4.5 5 -10 q1.5 -5.5 1 -11 q-0.5 -5.5 -3.5 -9.5 q-4 -5 -9.5 -7.5 q-5.5 -2.5 -11.5 -3 q-6 -0.5 -12 1 q-6 1.5 -11 4.5 q-27 19 -62.5 38 q-35.5 19 -71.5 35 q-7 3 -11.5 8.5 q-4.5 5.5 -7 11 ZM115 739 q0 5 2.5 10 q2.5 5 7 9 q4.5 4 10.5 6.5 q6 2.5 12 2.5 l698 0 q6 0 12 -2 q1 -1 2 -1 q0 1 1 2 q2 2 6 2 q2 0 4 0.5 q2 0.5 4 1.5 q2 1 6.5 0.5 q4.5 -0.5 7.5 -1.5 l6 -2 q6 -2 10 -7 q4 -5 6 -11 q2 -6 2 -12.5 q0 -6.5 -2 -11.5 q-22 -46 -43.5 -91 q-21.5 -45 -44.5 -80 q-5 -8 -16.5 -11.5 q-11.5 -3.5 -19.5 0.5 q-5 2 -8.5 7 q-3.5 5 -4.5 11.5 q-1 6.5 0.5 13.5 q1.5 7 4.5 12 q21 35 41 79 q11 22 21 44 l-693 0 q-6 0 -12 2.5 q-6 2.5 -10.5 6.5 q-4.5 4 -7 9 q-2.5 5 -2.5 11 ZM69 265 q0 5 2.5 10 q2.5 5 7 9 q4.5 4 10.5 6 q6 2 12 2 l392 0 l4 16 q15 62 20.5 137.5 q5.5 75.5 7.5 164.5 q0 5 2.5 10.5 q2.5 5.5 7 10 q4.5 4.5 9.5 7 q5 2.5 11 2.5 q6 0 11.5 -2.5 q5.5 -2.5 9.5 -7.5 q4 -5 6.5 -11 q2.5 -6 1.5 -12 q-4 -142 -19 -254 q-4 -31 -11 -61 l349 0 q5 0 11 -2 q6 -2 10.5 -6 q4.5 -4 7 -9 q2.5 -5 2.5 -10 q0 -6 -2.5 -11 q-2.5 -5 -7 -9 q-4.5 -4 -10.5 -6.5 q-6 -2.5 -11 -2.5 l-365 0 q-14 -41 -35 -77 q-47 -83 -138 -141 q-91 -58 -247 -91 q-11 -3 -22 2 q-11 5 -16 12 q-7 13 0.5 24.5 q7.5 11.5 24.5 15.5 q96 21 164 51.5 q68 30.5 113.5 70.5 q45.5 40 72.5 91 q11 20 20 42 l-374 0 q-6 0 -12 2.5 q-6 2.5 -10.5 6.5 q-4.5 4 -7 9 q-2.5 5 -2.5 11 Z" /><glyph glyph-name="uni4E71" unicode="&#x4e71;" d="M616 53 l0 741 q0 6 2.5 11.5 q2.5 5.5 6.5 10 q4 4.5 9.5 7.5 q5.5 3 10.5 3 q6 0 11 -3 q5 -3 9.5 -7.5 q4.5 -4.5 7 -10 q2.5 -5.5 2.5 -11.5 l0 -742 q0 -37 8.5 -47.5 q8.5 -10.5 38.5 -10.5 l132 0 q13 0 21 6 q8 6 13.5 21.5 q5.5 15.5 8 42.5 q2.5 27 4.5 68 q2 20 12.5 28.5 q10.5 8.5 24.5 2.5 q7 -3 13 -12.5 q6 -9.5 5 -19.5 q-3 -54 -8 -91 q-5 -37 -15.5 -59.5 q-10.5 -22.5 -28.5 -32 q-18 -9.5 -47 -9.5 l-140 0 q-29 0 -49 5 q-20 5 -31.5 18 q-11.5 13 -16 35 q-4.5 22 -4.5 56 ZM154 44 l306 0 l0 217 q0 2 -1.5 4 q-1.5 2 -3.5 2 l-296 0 q-2 0 -3.5 -2 q-1.5 -2 -1.5 -4 l0 -217 ZM43 529 q0 5 2.5 10 q2.5 5 7 8.5 q4.5 3.5 10.5 5.5 q6 2 11 2 l204 0 l0 165 l-70 -10 q-53 -7 -102 -13 q-11 -1 -21 4 q-10 5 -12 12 q-4 11 5 21.5 q9 10.5 25 12.5 q50 6 102.5 14 q52.5 8 101.5 17 q49 9 92.5 20 q43.5 11 76.5 23 q7 2 16 0 q9 -2 13 -7 l2 -1 q6 -6 8 -13 q2 -7 0.5 -13.5 q-1.5 -6.5 -6.5 -11.5 q-5 -5 -13 -7 q-40 -12 -87 -23 q-35 -8 -73 -15 l0 -175 l197 0 q6 0 11.5 -2 q5.5 -2 10 -5.5 q4.5 -3.5 7 -8.5 q2.5 -5 2.5 -10.5 q0 -5.5 -2.5 -10 q-2.5 -4.5 -7 -9 q-4.5 -4.5 -10 -6.5 q-5.5 -2 -11.5 -2 l-197 0 l0 -180 l150 0 q7 0 13 -2.5 q6 -2.5 10.5 -7 q4.5 -4.5 7 -10 q2.5 -5.5 2.5 -11.5 l0 -312 q0 -6 -2.5 -11.5 q-2.5 -5.5 -6.5 -10 q-4 -4.5 -9.5 -7 q-5.5 -2.5 -10.5 -2.5 q-6 0 -11 2.5 q-5 2.5 -9 7 q-4 4.5 -7 10.5 q-3 6 -3 12 l0 10 l-306 0 l0 -15 q0 -6 -2.5 -12 q-2.5 -6 -6.5 -10.5 q-4 -4.5 -8.5 -7 q-4.5 -2.5 -10.5 -2.5 q-5 0 -10 2.5 q-5 2.5 -9.5 7 q-4.5 4.5 -6.5 10 q-2 5.5 -2 11.5 l0 317 q0 6 2.5 11.5 q2.5 5.5 7 10 q4.5 4.5 10.5 7 q6 2.5 12 2.5 l148 0 l0 180 l-204 0 q-5 0 -11 2 q-6 2 -10.5 6.5 q-4.5 4.5 -7 9 q-2.5 4.5 -2.5 10.5 Z" /><glyph glyph-name="uni4E86" unicode="&#x4e86;" d="M100.5 716 q-2.5 5 -2.5 11 q0 6 2.5 11 q2.5 5 7 9 q4.5 4 10 6.5 q5.5 2.5 11.5 2.5 l669 0 q5 0 11 -3 l4 -2 l1 1 q4 4 9 4 l4 0 q2 0 3 1 l1 0 q4 0 10 -1 q6 -1 9 -4 l8 -6 q5 -3 8 -9 q3 -6 3.5 -12.5 q0.5 -6.5 -1 -13 q-1.5 -6.5 -6.5 -10.5 q-33 -34 -72 -67.5 q-39 -33.5 -82 -64.5 q-43 -31 -87 -59 q-44 -28 -86 -49 l-1 -1 l0 -453 q0 -34 -10.5 -49.5 q-10.5 -15.5 -37.5 -23.5 q-23 -7 -66 -8.5 q-43 -1.5 -112 -1.5 q-10 0 -19.5 6.5 q-9.5 6.5 -12.5 14.5 q-6 16 3 27 q9 11 27 10 q52 -1 87 -1 q35 0 52 2 q16 1 21.5 5.5 q5.5 4.5 5.5 18.5 l0 450 q0 6 3 11.5 q3 5.5 7 10.5 q4 5 9 7 q1 0 1 1 l1 1 q1 6 6 12 q5 6 12 10 q41 22 83 50 q42 28 81.5 58 q39.5 30 73.5 60 q11 10 21 20 l-641 0 q-6 0 -11.5 2 q-5.5 2 -10 6.5 q-4.5 4.5 -7 9.5 Z" /><glyph glyph-name="uni4E88" unicode="&#x4e88;" d="M58.5 427 q-2.5 5 -2.5 10.5 q0 5.5 2.5 10.5 q2.5 5 7 9.5 q4.5 4.5 10.5 7 q6 2.5 11 2.5 l505 0 q-16 8 -33 17 q-37 19 -76.5 39 q-39.5 20 -81 40 q-41.5 20 -80.5 38 q-7 3 -12 8 q-5 5 -7 11 q-2 6 -1.5 12.5 q0.5 6.5 4.5 11.5 q5 5 15 8 q10 3 18 0 q39 -17 81 -36.5 q42 -19.5 83 -39.5 q5 -2 9 -4 q2 2 3 5 q5 6 11 10 q32 18 65 40 q33 22 64 45.5 q31 23.5 58 47.5 q5 4 9 8 l-541 0 q-5 0 -11 2 q-6 2 -10.5 6.5 q-4.5 4.5 -7 9 q-2.5 4.5 -2.5 10.5 q0 5 2.5 10 q2.5 5 7 9 q4.5 4 10.5 6 q6 2 11 2 l575 0 q5 0 11 -2 q1 0 2 -1 q3 3 8 3 l4 0 q2 0 3 1 q4 1 9.5 0 q5.5 -1 9.5 -5 l5 -4 q5 -4 8 -9.5 q3 -5.5 4 -12.5 q1 -7 -1.5 -13 q-2.5 -6 -8.5 -11 q-27 -26 -58.5 -52 q-31.5 -26 -65.5 -50.5 q-34 -24.5 -68 -46.5 q-28 -18 -54 -34 q9 -4 18 -9 q37 -19 68 -35 q6 -2 10.5 -7.5 q4.5 -5.5 6.5 -11 q2 -5.5 1 -12.5 l0 -4 l201 0 q6 0 12 -3 l1 0 q3 3 6 3 q2 0 4 0.5 q2 0.5 4 0.5 q3 1 7.5 1 q4.5 0 8.5 -3 l9 -4 q5 -2 9 -6.5 q4 -4.5 6 -11 q2 -6.5 1.5 -12.5 q-0.5 -6 -4.5 -12 q-36 -52 -75 -103 q-39 -51 -77 -89 q-3 -3 -7.5 -5.5 q-4.5 -2.5 -9.5 -3.5 q-5 -1 -10 -0.5 q-5 0.5 -9 2.5 l-1 1 q-5 3 -8 8.5 q-3 5.5 -4 12 q-1 6.5 0.5 12.5 q1.5 6 5.5 12 q36 37 73 86 q21 28 39 56 l-317 0 q1 -2 2 -5 q3 -6 3 -12 l0 -388 q0 -30 -9.5 -45 q-9.5 -15 -33.5 -22 q-21 -6 -57.5 -7.5 q-36.5 -1.5 -93.5 -1.5 q-10 -1 -19 5.5 q-9 6.5 -13 14.5 q-6 14 3 25.5 q9 11.5 27 10.5 q28 -1 50 -1 q11 0 29 0.5 q18 0.5 33 1.5 q13 1 18 5 q5 4 5 15 l0 388 q0 5 2 11 q2 3 3 5 l-394 0 q-5 0 -11 2.5 q-6 2.5 -10.5 6.5 q-4.5 4 -7 9 Z" /><glyph glyph-name="uni4E89" unicode="&#x4e89;" d="M523 211 l240 0 l0 132 l-240 0 l0 -132 ZM522 521 q1 -4 1 -8 l0 -116 l240 0 l0 118 q0 2 -2 4 q-2 2 -4 2 l-235 0 ZM210 575 l323 0 q1 4 3 8 q3 6 8 12 q31 30 61 69 q14 19 26 37 l-260 0 q-10 0 -16 3 q-6 3 -9 8 q-22 -26 -47 -53 q-40 -44 -89 -84 ZM48.5 360 q-2.5 5 -2.5 10.5 q0 5.5 2.5 10 q2.5 4.5 7 8.5 q4.5 4 10.5 6 q6 2 12 2 l385 0 l0 116 q0 4 1 8 l-251 0 q-7 0 -12.5 2.5 q-5.5 2.5 -10 6.5 q-4.5 4 -7.5 8.5 q-3 4.5 -3 9.5 q0 2 1 5 q-14 -11 -28 -20 q-9 -7 -20.5 -6 q-11.5 1 -18.5 7 q-10 10 -7 24.5 q3 14.5 17 25.5 q78 53 135 116 q57 63 93 120 q4 7 14 12 q10 5 18 3 l3 0 q8 -2 14 -6.5 q6 -4.5 8.5 -10.5 q2.5 -6 2 -13 q-0.5 -7 -5.5 -14 q-13 -19 -27 -37 l256 0 q6 0 11.5 -2.5 q5.5 -2.5 10.5 -5.5 q0 3 3 5 q3 3 7 3 l4 0 q1 0 3 1 q2 0 7.5 -1 q5.5 -1 9.5 -4 l7 -5 q5 -3 7.5 -8.5 q2.5 -5.5 4 -11.5 q1.5 -6 0.5 -12 q-1 -6 -5 -11 q-26 -40 -61 -79 q-24 -26 -46 -48 l192 0 q6 0 11.5 -2.5 q5.5 -2.5 10 -7 q4.5 -4.5 7 -10.5 q2.5 -6 2.5 -12 l0 -146 l106 0 q5 0 11 -2 q6 -2 10.5 -6 q4.5 -4 7 -8.5 q2.5 -4.5 2.5 -10 q0 -5.5 -2.5 -10.5 q-2.5 -5 -7 -9 q-4.5 -4 -10.5 -6 q-6 -2 -11 -2 l-106 0 l0 -154 q0 -6 -2 -12 q-2 -6 -6.5 -10.5 q-4.5 -4.5 -9.5 -7 q-5 -2.5 -11 -2.5 q-3 0 -6 1 q-6 -2 -11 -2 l-252 0 l0 -152 q0 -30 -9.5 -45.5 q-9.5 -15.5 -33.5 -23.5 q-22 -6 -58.5 -7.5 q-36.5 -1.5 -96.5 -1.5 q-9 0 -18 6 q-9 6 -12 13 q-7 15 2 26 q9 11 28 11 q43 -1 71 -1 q28 0 42 1 q15 1 20 6 q5 5 5 16 l0 152 l-291 0 q-6 0 -12 2 q-6 2 -10.5 6.5 q-4.5 4.5 -7 9 q-2.5 4.5 -2.5 10 q0 5.5 2.5 10.5 q2.5 5 7 8.5 q4.5 3.5 10.5 6 q6 2.5 12 2.5 l291 0 l0 132 l-385 0 q-6 0 -12 2 q-6 2 -10.5 6 q-4.5 4 -7 9 Z" /><glyph glyph-name="uni4E8B" unicode="&#x4e8b;" d="M527 511 l239 0 q3 0 5 2 q2 2 2 4 l0 68 q0 2 -2 4 q-2 2 -5 2 l-239 0 l0 -80 ZM527 261 l261 0 l0 73 q0 2 -1.5 4 q-1.5 2 -3.5 2 l-256 0 l0 -79 ZM527 126 l261 0 l0 86 l-261 0 l0 -86 ZM232 517 q0 -2 2 -4 q2 -2 5 -2 l228 0 l0 80 l-228 0 q-3 0 -5 -2 q-2 -2 -2 -4 l0 -68 ZM52 237 q0 9 10 16.5 q10 7.5 21 7.5 l384 0 l0 79 l-290 0 q-12 0 -22 7 q-10 7 -10 17 q0 8 10 15 q10 7 22 7 l290 0 l0 80 l-260 0 q-6 0 -11.5 2.5 q-5.5 2.5 -10.5 7 q-5 4.5 -7.5 10.5 q-2.5 6 -2.5 12 l0 105 q0 6 2.5 12 q2.5 6 7.5 10.5 q5 4.5 10.5 7 q5.5 2.5 11.5 2.5 l260 0 l0 66 l-365 0 q-13 0 -22.5 8 q-9.5 8 -9.5 18 q0 9 9.5 17 q9.5 8 22.5 8 l365 0 l0 53 q0 6 2.5 12 q2.5 6 6.5 10.5 q4 4.5 9.5 7 q5.5 2.5 10.5 2.5 l1 0 q6 0 11 -2.5 q5 -2.5 9.5 -7 q4.5 -4.5 7 -10.5 q2.5 -6 2.5 -12 l0 -53 l375 0 q12 0 22 -8 q10 -8 10 -17 q0 -10 -10 -18 q-10 -8 -22 -8 l-375 0 l0 -66 l274 0 q5 0 11 -2.5 q6 -2.5 10.5 -7 q4.5 -4.5 7.5 -10.5 q3 -6 3 -12 l0 -105 q0 -6 -3 -12 q-3 -6 -7.5 -10.5 q-4.5 -4.5 -10.5 -7 q-6 -2.5 -11 -2.5 l-274 0 l0 -80 l288 0 q7 0 12.5 -2.5 q5.5 -2.5 10 -7 q4.5 -4.5 7.5 -10.5 q3 -6 3 -12 l0 -93 l73 0 q11 0 21 -7.5 q10 -7.5 10 -16.5 q0 -10 -10 -17.5 q-10 -7.5 -21 -7.5 l-73 0 l0 -148 q0 -5 -2.5 -11 q-2.5 -6 -6.5 -10.5 q-4 -4.5 -9 -7.5 q-5 -3 -11 -3 l-1 0 q-6 0 -11 3 q-5 3 -9.5 7.5 q-4.5 4.5 -7 10.5 q-2.5 6 -2.5 11 l0 14 l-261 0 l0 -81 q0 -32 -10 -46 q-10 -14 -32 -21 q-19 -6 -52.5 -7.5 q-33.5 -1.5 -87.5 -1.5 q-9 0 -18 5 q-9 5 -11 13 q-6 13 3.5 23 q9.5 10 28.5 10 q23 -1 41 -1 q9 0 25 0.5 q16 0.5 29 0.5 q14 1 19 6 q5 5 5 19 l0 81 l-299 0 q-13 0 -23 7.5 q-10 7.5 -10 16.5 q0 10 10 17 q10 7 23 7 l299 0 l0 86 l-384 0 q-11 0 -21 7.5 q-10 7.5 -10 17.5 Z" /><glyph glyph-name="uni4E8C" unicode="&#x4e8c;" d="M143 659 l0 4 q0 5 2.5 10.5 q2.5 5.5 7 9.5 q4.5 4 10.5 6.5 q6 2.5 11 2.5 l653 0 q6 0 11.5 -2.5 q5.5 -2.5 10 -6.5 q4.5 -4 7.5 -9.5 q3 -5.5 3 -10.5 l0 -4 q0 -6 -3 -11 q-3 -5 -7.5 -9.5 q-4.5 -4.5 -10 -7 q-5.5 -2.5 -11.5 -2.5 l-653 0 q-5 0 -11 2.5 q-6 2.5 -10.5 7 q-4.5 4.5 -7 9.5 q-2.5 5 -2.5 11 ZM57 58 l0 7 q0 5 3 10 q3 5 7.5 9.5 q4.5 4.5 10 7 q5.5 2.5 10.5 2.5 l825 0 q6 0 11 -2.5 q5 -2.5 9.5 -7 q4.5 -4.5 7.5 -9.5 q3 -5 3 -10 l0 -7 q0 -5 -3 -10 q-3 -5 -7.5 -9.5 q-4.5 -4.5 -9.5 -7 q-5 -2.5 -11 -2.5 l-825 0 q-5 0 -10.5 2.5 q-5.5 2.5 -10 7 q-4.5 4.5 -7.5 9.5 q-3 5 -3 10 Z" /><glyph glyph-name="uni4E8E" unicode="&#x4e8e;" d="M58.5 393 q-2.5 5 -2.5 11 q0 6 2.5 11 q2.5 5 7.5 9.5 q5 4.5 10.5 6.5 q5.5 2 10.5 2 l391 0 l0 271 l-321 0 q-5 0 -10.5 2.5 q-5.5 2.5 -10.5 7 q-5 4.5 -7.5 9.5 q-2.5 5 -2.5 10 q0 6 2.5 11 q2.5 5 7.5 9.5 q5 4.5 10.5 7 q5.5 2.5 10.5 2.5 l687 0 q5 0 10.5 -2.5 q5.5 -2.5 10 -7 q4.5 -4.5 7.5 -9.5 q3 -5 3 -11 q0 -5 -3 -10 q-3 -5 -7.5 -9.5 q-4.5 -4.5 -10 -7 q-5.5 -2.5 -10.5 -2.5 l-304 0 l0 -271 l374 0 q6 0 11 -2 q5 -2 10 -6.5 q5 -4.5 7.5 -9.5 q2.5 -5 2.5 -11 q0 -6 -2.5 -11 q-2.5 -5 -7.5 -9 q-5 -4 -10 -6.5 q-5 -2.5 -11 -2.5 l-374 0 l0 -357 q0 -37 -11.5 -54 q-11.5 -17 -37.5 -25 q-23 -6 -65.5 -8 q-42.5 -2 -110.5 -2 q-9 -1 -18.5 6 q-9.5 7 -12.5 15 q-6 15 2.5 27.5 q8.5 12.5 26.5 12.5 q39 -2 69 -2 q8 0 29 0.5 q21 0.5 38 1.5 q16 1 22.5 6.5 q6.5 5.5 6.5 20.5 l0 358 l-391 0 q-5 0 -10.5 2.5 q-5.5 2.5 -10.5 6.5 q-5 4 -7.5 9 Z" /><glyph glyph-name="uni4E91" unicode="&#x4e91;" d="M166 721 l0 2 q0 5 2.5 10.5 q2.5 5.5 7 9.5 q4.5 4 10.5 6 q6 2 12 2 l609 0 q6 0 12 -2 q6 -2 10.5 -6 q4.5 -4 7 -9.5 q2.5 -5.5 2.5 -10.5 l0 -2 q0 -5 -2.5 -10.5 q-2.5 -5.5 -7 -10 q-4.5 -4.5 -10.5 -6.5 q-6 -2 -12 -2 l-609 0 q-6 0 -12 2 q-6 2 -10.5 6.5 q-4.5 4.5 -7 10 q-2.5 5.5 -2.5 10.5 ZM59 438 l0 2 q0 6 2.5 11 q2.5 5 7 9 q4.5 4 10 6.5 q5.5 2.5 10.5 2.5 l823 0 q6 0 11.5 -2.5 q5.5 -2.5 10 -6.5 q4.5 -4 7 -9 q2.5 -5 2.5 -11 l0 -2 q0 -5 -2.5 -10.5 q-2.5 -5.5 -7 -10 q-4.5 -4.5 -10 -6.5 q-5.5 -2 -11.5 -2 l-452 0 q0 -6 -4 -12 q-58 -110 -126 -213 q-52 -80 -105 -145 l540 45 q-4 7 -9 13 q-26 40 -53.5 79 q-27.5 39 -54.5 75 q-3 6 -4.5 12.5 q-1.5 6.5 0 13 q1.5 6.5 5 12 q3.5 5.5 9.5 7.5 l2 2 q8 4 19.5 1 q11.5 -3 17.5 -12 q27 -37 56 -77 q29 -40 56.5 -80.5 q27.5 -40.5 51.5 -78.5 q24 -38 43 -70 q3 -5 3 -11 q0 -6 -1 -12 q-1 -6 -4 -11 q-3 -5 -8 -7 l-4 -3 q-5 -3 -11 -3 q-6 0 -12 2 q-6 2 -11.5 6 q-5.5 4 -9.5 10 q-17 32 -40 69 l-8 12 l-1 -1 q-7 -4 -15 -4 q-157 -14 -262.5 -23.5 q-105.5 -9.5 -173.5 -16 q-68 -6.5 -104.5 -11 q-36.5 -4.5 -56.5 -7.5 q-8 -1 -15.5 0 q-7.5 1 -13.5 5 q-3 2 -6 5 q-6 2 -10 5 q-5 5 -8 11 q-2 6 -1 12.5 q1 6.5 4 13.5 q3 7 7.5 13 q4.5 6 9.5 11 q5 4 8 7.5 q3 3.5 7.5 9 q4.5 5.5 11 15 q6.5 9.5 17.5 25.5 q12 14 34.5 46.5 q22.5 32.5 49.5 76 q27 43.5 56 95.5 q25 43 47 88 l-294 0 q-5 0 -10.5 2 q-5.5 2 -10 6.5 q-4.5 4.5 -7 10 q-2.5 5.5 -2.5 10.5 Z" /><glyph glyph-name="uni4E92" unicode="&#x4e92;" d="M281 250 l382 0 q4 0 7 -1 q4 28 7 56 q9 67 16 127 q4 30 6 56 q-3 -1 -7 -1 l-357 0 q-3 0 -6 1 l-8 -42 q-12 -64 -24 -123 q-8 -39 -16 -73 ZM57.5 -18 q-2.5 5 -2.5 11 q0 6 2.5 11 q2.5 5 7 9 q4.5 4 10 6 q5.5 2 11.5 2 l556 0 q0 1 -1 2 q-1 6 0 13 q9 61 18 131 q2 14 4 27 l-382 0 q-6 0 -12 2 q-4 2 -7 4 q-8 -6 -16 -6 l-5 0 q-7 0 -13 3.5 q-6 3.5 -10 9 q-4 5.5 -5 12 q-1 6.5 1 13.5 q11 49 23.5 108.5 q12.5 59.5 24 122.5 q11.5 63 23 126.5 q11.5 63.5 20.5 118.5 l2 8 l-187 0 q-5 0 -11 2.5 q-6 2.5 -10.5 6.5 q-4.5 4 -7.5 9 q-3 5 -3 11 q0 5 3 10 q3 5 7.5 9.5 q4.5 4.5 10.5 6.5 q6 2 11 2 l766 0 q5 0 11 -2 q6 -2 10.5 -6.5 q4.5 -4.5 7.5 -9.5 q3 -5 3 -10.5 q0 -5.5 -3 -10.5 q-3 -5 -7.5 -9 q-4.5 -4 -10.5 -6.5 q-6 -2.5 -11 -2.5 l-522 0 q1 -2 1 -4 q2 -6 1 -13 q-10 -59 -21 -124 l-6 -32 l353 0 q7 0 13 -2 l0 -1 l1 1 q1 2 2 2 q1 0 2.5 0.5 q1.5 0.5 3.5 1.5 l3 0 q2 0 4.5 0.5 q2.5 0.5 4.5 -0.5 l9 0 q5 -1 10 -4.5 q5 -3.5 9 -8.5 q4 -5 6 -10.5 q2 -5.5 1 -11.5 q-5 -48 -12 -108.5 q-7 -60.5 -15 -125 q-8 -64.5 -17 -129.5 q-9 -65 -17 -122 q0 -2 -1 -4 l218 0 q6 0 11.5 -2 q5.5 -2 10 -6 q4.5 -4 7 -9 q2.5 -5 2.5 -11 q0 -6 -2.5 -11 q-2.5 -5 -7 -9.5 q-4.5 -4.5 -10 -6.5 q-5.5 -2 -11.5 -2 l-831 0 q-6 0 -11.5 2 q-5.5 2 -10 6.5 q-4.5 4.5 -7 9.5 Z" /><glyph glyph-name="uni4E94" unicode="&#x4e94;" d="M371 39 l304 0 l0 2 q6 49 12 103 q6 54 10.5 107.5 q4.5 53.5 8.5 101.5 q2 19 3 35 l-276 0 q-4 -24 -7 -47 q-15 -87 -29 -167 q-14 -75 -26 -135 ZM60 -1 q-3 5 -3 11 q0 6 3 11 q3 5 7.5 9.5 q4.5 4.5 10 6.5 q5.5 2 10.5 2 l220 0 l0 7 q14 63 29 143.5 q15 80.5 29 166.5 q3 16 5 32 l-162 0 q-6 0 -11.5 2.5 q-5.5 2.5 -10.5 6.5 q-5 4 -7.5 9 q-2.5 5 -2.5 10.5 q0 5.5 2.5 11 q2.5 5.5 7.5 9.5 q5 4 10.5 6 q5.5 2 11.5 2 l172 0 q6 42 13 83 q12 81 22 151 l-262 0 q-6 0 -11.5 2.5 q-5.5 2.5 -10 7 q-4.5 4.5 -7 9.5 q-2.5 5 -2.5 10 q0 6 2.5 11 q2.5 5 7 9.5 q4.5 4.5 10 6.5 q5.5 2 11.5 2 l687 0 q5 0 10.5 -2 q5.5 -2 10 -6.5 q4.5 -4.5 7.5 -9.5 q3 -5 3 -11 q0 -5 -3 -10 q-3 -5 -7.5 -9.5 q-4.5 -4.5 -10 -7 q-5.5 -2.5 -10.5 -2.5 l-362 0 q-11 -77 -25 -164 q-6 -35 -11 -70 l262 0 q5 0 10 -2 q1 2 2 2 q1 0 2.5 0.5 q1.5 0.5 3.5 1.5 l3 1 q2 0 4.5 0.5 q2.5 0.5 4.5 -0.5 l10 -1 q6 0 11 -3.5 q5 -3.5 9 -8 q4 -4.5 6.5 -10 q2.5 -5.5 1.5 -11.5 q-3 -40 -7 -87.5 q-4 -47.5 -9 -98 q-5 -50.5 -10 -100.5 q-5 -46 -11 -89 l178 0 q6 0 11 -2 q5 -2 10 -6.5 q5 -4.5 7.5 -9.5 q2.5 -5 2.5 -11 q0 -6 -2.5 -11 q-2.5 -5 -7.5 -9 q-5 -4 -10 -7 q-5 -3 -11 -3 l-826 0 q-5 0 -10.5 3 q-5.5 3 -10 7 q-4.5 4 -7.5 9 Z" /><glyph glyph-name="uni4E9A" unicode="&#x4e9a;" d="M700.5 241 q-1.5 6 -1.5 12.5 q0 6.5 3 11.5 q16 29 35 62 q19 33 37 67 q18 34 34 68 q16 34 30 65 q2 6 6.5 11 q4.5 5 10 8 q5.5 3 11.5 3.5 q6 0.5 12 -1.5 q5 -2 9 -6.5 q4 -4.5 6 -9.5 q2 -5 2.5 -11.5 q0.5 -6.5 -2.5 -11.5 q-15 -34 -32.5 -69.5 q-17.5 -35.5 -36 -70.5 q-18.5 -35 -37 -68 q-18.5 -33 -37.5 -62 q-1 -5 -5.5 -8.5 q-4.5 -3.5 -9.5 -5.5 q-5 -2 -10.5 -2.5 q-5.5 -0.5 -10.5 1.5 q-5 2 -8.5 6.5 q-3.5 4.5 -5 10.5 ZM403 43 l178 0 l0 673 l-178 0 l0 -673 ZM102 511 q-2 6 -2 12.5 q0 6.5 1.5 12 q1.5 5.5 5 10 q3.5 4.5 9.5 6.5 q4 1 9.5 0.5 q5.5 -0.5 10 -3 q4.5 -2.5 9 -6.5 q4.5 -4 6.5 -9 q18 -33 35.5 -69.5 q17.5 -36.5 33.5 -72 q16 -35.5 30 -69 q14 -33.5 25 -62.5 q2 -5 1.5 -10.5 q-0.5 -5.5 -2.5 -11 q-2 -5.5 -6 -9.5 q-4 -4 -8 -6 l-1 -1 q-6 -2 -12.5 -1 q-6.5 1 -11.5 4 q-5 3 -10 8 q-5 5 -7 11 q-9 28 -22 60.5 q-13 32.5 -28.5 67.5 q-15.5 35 -32 70 q-16.5 35 -33.5 68 ZM49 15 q0 5 2.5 10 q2.5 5 7 9.5 q4.5 4.5 10 6.5 q5.5 2 11.5 2 l261 0 l0 673 l-235 0 q-5 0 -11 3 q-6 3 -10.5 7 q-4.5 4 -7.5 9 q-3 5 -3 11 q0 5 3 10.5 q3 5.5 7.5 10 q4.5 4.5 10.5 6.5 q6 2 11 2 l792 0 q5 0 11 -2 q6 -2 10.5 -6.5 q4.5 -4.5 7 -10 q2.5 -5.5 2.5 -10.5 q0 -6 -2.5 -11 q-2.5 -5 -7 -9 q-4.5 -4 -10.5 -7 q-6 -3 -11 -3 l-255 0 l0 -673 l277 0 q6 0 11.5 -2 q5.5 -2 10 -6.5 q4.5 -4.5 7 -9.5 q2.5 -5 2.5 -10.5 q0 -5.5 -2.5 -10.5 q-2.5 -5 -7 -9 q-4.5 -4 -10 -6.5 q-5.5 -2.5 -11.5 -2.5 l-840 0 q-6 0 -11.5 2.5 q-5.5 2.5 -10 6.5 q-4.5 4 -7 9 q-2.5 5 -2.5 11 Z" /><glyph glyph-name="uni4E9B" unicode="&#x4e9b;" d="M554 436 l0 369 q0 5 2 11 q2 6 6.5 10.5 q4.5 4.5 10 7 q5.5 2.5 10.5 2.5 l1 0 q5 0 10 -2.5 q5 -2.5 9.5 -7 q4.5 -4.5 6.5 -10.5 q2 -6 2 -11 l0 -176 q28 10 56 21 q31 12 60 25 q29 13 55.5 26 q26.5 13 46.5 26 q8 4 19 3 q11 -1 18 -7 l1 -1 q6 -6 8.5 -12.5 q2.5 -6.5 1 -13 q-1.5 -6.5 -5.5 -12 q-4 -5.5 -12 -8.5 q-51 -28 -115 -53.5 q-64 -25.5 -127 -46.5 q-3 -1 -6 -1 l0 -139 q0 -26 10.5 -34 q10.5 -8 46.5 -8 l175 0 q12 0 20.5 3.5 q8.5 3.5 13.5 13 q5 9.5 8.5 26 q3.5 16.5 4.5 44.5 q4 6 9 13 q5 7 10 12 q5 5 10.5 7 q5.5 2 12.5 -1 q8 -3 13.5 -13 q5.5 -10 3.5 -20 q-3 -41 -8.5 -68.5 q-5.5 -27.5 -16.5 -43.5 q-11 -16 -29.5 -22.5 q-18.5 -6.5 -47.5 -6.5 l-182 0 q-33 0 -55 4.5 q-22 4.5 -34.5 15.5 q-12.5 11 -17.5 30 q-5 19 -5 48 ZM173.5 190 q-2.5 5 -2.5 11 q0 6 2.5 11 q2.5 5 7 9 q4.5 4 10.5 6.5 q6 2.5 12 2.5 l608 0 q6 0 11.5 -2.5 q5.5 -2.5 10 -6.5 q4.5 -4 7.5 -9 q3 -5 3 -11 q0 -6 -3 -11 q-3 -5 -7.5 -9 q-4.5 -4 -10 -6.5 q-5.5 -2.5 -11.5 -2.5 l-608 0 q-6 0 -12 2.5 q-6 2.5 -10.5 6.5 q-4.5 4 -7 9 ZM62.5 -32 q-2.5 5 -2.5 11 q0 6 2.5 11 q2.5 5 7 9 q4.5 4 10.5 6.5 q6 2.5 12 2.5 l817 0 q6 0 12 -2.5 q6 -2.5 10.5 -6.5 q4.5 -4 7 -9 q2.5 -5 2.5 -11 q0 -6 -2.5 -11 q-2.5 -5 -7 -9.5 q-4.5 -4.5 -10.5 -7 q-6 -2.5 -12 -2.5 l-817 0 q-6 0 -12 2.5 q-6 2.5 -10.5 7 q-4.5 4.5 -7 9.5 ZM50 336 q-1 6 0.5 11.5 q1.5 5.5 6 10.5 q4.5 5 10 8.5 q5.5 3.5 11.5 3.5 q19 2 39 5 q-2 5 -2 11 l0 307 q0 6 2 11.5 q2 5.5 6.5 10 q4.5 4.5 9.5 7.5 q5 3 10 3 q6 0 10.5 -3 q4.5 -3 8.5 -7.5 q4 -4.5 6 -10 q2 -5.5 2 -10.5 l0 -313 q41 5 87 11 l16 2 q-2 6 -2 12 l0 399 q0 5 2 11 q2 6 6.5 10.5 q4.5 4.5 10 7 q5.5 2.5 10.5 2.5 q6 0 11 -2.5 q5 -2.5 9.5 -7 q4.5 -4.5 6.5 -10.5 q2 -6 2 -11 l0 -148 l1 1 l133 0 q6 0 12 -2.5 q6 -2.5 10.5 -6 q4.5 -3.5 7 -8.5 q2.5 -5 2.5 -10 q0 -5 -2.5 -10 q-2.5 -5 -7 -9.5 q-4.5 -4.5 -10.5 -6.5 q-6 -2 -12 -2 l-134 0 l0 -202 q67 9 138 18 q6 1 12 -1 q6 -2 11.5 -6 q5.5 -4 8.5 -8.5 q3 -4.5 3 -10.5 q0 -10 -8.5 -18.5 q-8.5 -8.5 -18.5 -10.5 q-106 -14 -208.5 -28 q-102.5 -14 -182.5 -24 q-5 -1 -11 0.5 q-6 1.5 -11 5.5 q-5 4 -8.5 8.5 q-3.5 4.5 -3.5 9.5 Z" /><glyph glyph-name="uni4EA4" unicode="&#x4ea4;" d="M650 548.5 q-4 6.5 -4 13.5 q0 7 2 12.5 q2 5.5 8 9.5 q6 5 16.5 5 q10.5 0 15.5 -4 q30 -20 60.5 -43 q30.5 -23 59.5 -47 q29 -24 54.5 -47.5 q25.5 -23.5 45.5 -45.5 q4 -4 6.5 -10 q2.5 -6 2.5 -12 q0 -6 -2.5 -11.5 q-2.5 -5.5 -7.5 -8.5 l-1 -2 q-9 -7 -22.5 -5.5 q-13.5 1.5 -21.5 10.5 q-18 20 -41.5 42.5 q-23.5 22.5 -49.5 45 q-26 22.5 -54.5 45 q-28.5 22.5 -56.5 41.5 q-6 5 -10 11.5 ZM443 792 q-3 7 -4 14 q-1 7 1.5 13 q2.5 6 6.5 11.5 q4 5.5 10 7.5 l2 0 q7 3 18 -1 q11 -4 15 -12 q14 -19 27 -41 q13 -22 22 -39 q3 -6 3 -11.5 q0 -5.5 -2 -11 q-2 -5.5 -5.5 -9.5 q-3.5 -4 -9.5 -6 l-2 -1 q-6 -2 -12 -1.5 q-6 0.5 -11.5 3 q-5.5 2.5 -10.5 7 q-5 4.5 -8 10.5 q-7 15 -17.5 33 q-10.5 18 -22.5 34 ZM107 359 q-11 11 -8.5 26.5 q2.5 15.5 17.5 24.5 q52 35 104 79.5 q52 44.5 91 91.5 q6 5 16.5 8.5 q10.5 3.5 17.5 -0.5 l2 0 q7 -3 11 -8 q4 -5 5.5 -11.5 q1.5 -6.5 -0.5 -13.5 q-2 -7 -7 -12 q-45 -52 -101.5 -100.5 q-56.5 -48.5 -109.5 -86.5 q-9 -5 -20.5 -4.5 q-11.5 0.5 -17.5 6.5 ZM70 665 q0 6 2.5 11 q2.5 5 7 9 q4.5 4 10.5 6.5 q6 2.5 11 2.5 l796 0 q5 0 11 -2.5 q6 -2.5 10.5 -6.5 q4.5 -4 7 -9 q2.5 -5 2.5 -11 q0 -5 -2.5 -10 q-2.5 -5 -7 -9.5 q-4.5 -4.5 -10.5 -7 q-6 -2.5 -11 -2.5 l-796 0 q-5 0 -11 2.5 q-6 2.5 -10.5 7 q-4.5 4.5 -7 9.5 q-2.5 5 -2.5 10 ZM72 -59 q-4 6 -4 13.5 q0 7.5 2.5 13.5 q2.5 6 8.5 10.5 q6 4.5 14 6.5 q102 25 187.5 61 q85.5 36 155.5 87 q13 9 25 18 q-31 31 -58 65 q-57 71 -97 158 q-2 6 -2.5 13 q-0.5 7 1.5 12.5 q2 5.5 6 9.5 q4 4 10 6 q4 1 9.5 0.5 q5.5 -0.5 10.5 -3.5 q5 -3 9.5 -7 q4.5 -4 6.5 -9 q54 -120 146 -207 q30 28 56 61 q53 67 88 152 q4 10 16 16 q12 6 21 3 l2 0 q6 -2 11 -6.5 q5 -4.5 7 -10 q2 -5.5 2.5 -12.5 q0.5 -7 -3.5 -13 q-40 -93 -98 -165 q-27 -33 -58 -63 q10 -7 19 -14 q139 -101 341 -143 q19 -4 25.5 -17 q6.5 -13 -2.5 -28 q-4 -8 -14.5 -12.5 q-10.5 -4.5 -19.5 -2.5 q-107 22 -198 61 q-91 39 -165 94 q-15 12 -29 23 l-32 -24 q-75 -55 -165.5 -94 q-90.5 -39 -196.5 -67 q-9 -3 -21 1.5 q-12 4.5 -17 12.5 Z" /><glyph glyph-name="uni4EA6" unicode="&#x4ea6;" d="M750 433 q-4 7 -5 13.5 q-1 6.5 1 12.5 q2 6 6 11 q4 5 9 7 q5 2 9.5 1.5 q4.5 -0.5 9.5 -2.5 q5 -2 9 -5 q4 -3 6 -7 q21 -34 41.5 -70.5 q20.5 -36.5 38.5 -73 q18 -36.5 32.5 -71.5 q14.5 -35 24.5 -64 q3 -9 -1.5 -20 q-4.5 -11 -13.5 -14 l-1 -1 q-6 -3 -12.5 -2.5 q-6.5 0.5 -12.5 4 q-6 3.5 -10.5 9 q-4.5 5.5 -7.5 11.5 q-9 28 -22.5 60.5 q-13.5 32.5 -29.5 66 q-16 33.5 -34 68.5 q-18 35 -37 66 ZM444 789 q-3 7 -4 13.5 q-1 6.5 1.5 13 q2.5 6.5 7 11.5 q4.5 5 10.5 7 l1 1 q8 3 18.5 -1 q10.5 -4 14.5 -13 q18 -24 35.5 -51.5 q17.5 -27.5 28.5 -50.5 q3 -5 3 -11.5 q0 -6.5 -2.5 -12.5 q-2.5 -6 -6 -10.5 q-3.5 -4.5 -9.5 -6.5 l-1 0 q-6 -2 -12.5 -1.5 q-6.5 0.5 -12 3 q-5.5 2.5 -10 7 q-4.5 4.5 -6.5 10.5 q-10 20 -24.5 45 q-14.5 25 -31.5 47 ZM87 189 q-3 6 -4 12.5 q-1 6.5 0 13.5 q1 7 6 13 q32 47 59.5 106.5 q27.5 59.5 46.5 122.5 q2 6 5.5 10.5 q3.5 4.5 8.5 8 q5 3.5 10.5 5 q5.5 1.5 11.5 -0.5 q6 -1 10.5 -5 q4.5 -4 7.5 -9 q3 -5 4 -11 q1 -6 -1 -13 q-22 -71 -52 -136.5 q-30 -65.5 -65 -115.5 q-3 -5 -8 -8 q-5 -3 -10.5 -4.5 q-5.5 -1.5 -11 -1 q-5.5 0.5 -10.5 3.5 q-5 3 -8 9 ZM62 629 q0 6 3 11 q3 5 7.5 9 q4.5 4 10.5 6.5 q6 2.5 12 2.5 l811 0 q6 0 12 -2.5 q6 -2.5 10.5 -6.5 q4.5 -4 7 -9 q2.5 -5 2.5 -10.5 q0 -5.5 -2.5 -11 q-2.5 -5.5 -7 -10 q-4.5 -4.5 -10.5 -6.5 q-6 -2 -12 -2 l-238 0 q1 -5 1 -10 l0 -584 q0 -32 -9 -47.5 q-9 -15.5 -31 -23.5 q-20 -7 -55.5 -8.5 q-35.5 -1.5 -89.5 -2.5 q-10 0 -19 7 q-9 7 -12 14 q-5 15 4 27 q9 12 27 11 l102 0 q14 1 18.5 5.5 q4.5 4.5 4.5 17.5 l0 584 q0 5 2 10 l-187 0 l0 -123 q0 -63 -6.5 -133 q-6.5 -70 -30 -140 q-23.5 -70 -69.5 -138 q-46 -68 -124 -129 q-5 -4 -11 -6 q-6 -2 -12 -1.5 q-6 0.5 -11 2.5 q-5 2 -9 6 q-10 9 -8 23.5 q2 14.5 14 24.5 q72 57 113 118 q41 61 62.5 124 q21.5 63 27 126.5 q5.5 63.5 5.5 122.5 l0 117 q0 3 1 6 l-271 0 q-6 0 -12 2 q-6 2 -10.5 6.5 q-4.5 4.5 -7.5 10 q-3 5.5 -3 10.5 Z" /><glyph glyph-name="uni4EA7" unicode="&#x4ea7;" d="M290 586 q-4 6 -5 13 q-1 7 0.5 13.5 q1.5 6.5 5.5 11.5 q4 5 10 7 q7 3 17.5 -0.5 q10.5 -3.5 14.5 -10.5 q18 -23 34.5 -49.5 q16.5 -26.5 28.5 -48.5 q3 -5 3 -11 q0 -6 -1.5 -11 q-1.5 -5 -4.5 -10 q-3 -5 -8 -7 q-5 -2 -11 -2 q-6 0 -12 2.5 q-6 2.5 -11 7 q-5 4.5 -8 9.5 q-9 19 -23.5 42 q-14.5 23 -29.5 44 ZM113 682 q0 6 2.5 11 q2.5 5 7 9 q4.5 4 10.5 6 q6 2 12 2 l361 0 q-7 5 -10 11 q-8 16 -19 34 q-11 18 -24 34 q-4 6 -4 12.5 q0 6.5 2 12.5 q2 6 6.5 10 q4.5 4 11.5 6 l4 1 q7 2 16 -1 q9 -3 14 -9 q15 -18 28.5 -38.5 q13.5 -20.5 22.5 -38.5 q4 -5 3.5 -11 q-0.5 -6 -2 -11.5 q-1.5 -5.5 -6.5 -9.5 q-1 -1 -1 -2 l318 0 q6 0 12 -2 q6 -2 10.5 -6 q4.5 -4 7 -9 q2.5 -5 2.5 -10.5 q0 -5.5 -2.5 -10.5 q-2.5 -5 -7 -9.5 q-4.5 -4.5 -10.5 -6.5 q-6 -2 -12 -2 l-721 0 q-6 0 -12 2 q-6 2 -10.5 6.5 q-4.5 4.5 -7 9.5 q-2.5 5 -2.5 10 ZM54 -38 q-1 7 0 14 q1 7 5 13 q23 40 36.5 82.5 q13.5 42.5 21 85.5 q7.5 43 10 85.5 q2.5 42.5 2.5 82.5 l0 103 q0 7 2.5 12.5 q2.5 5.5 7 10 q4.5 4.5 9.5 7.5 q5 3 11 3 l2 0 q6 0 11 -3 q2 -2 5 -3 q3 2 7 3 q6 3 12 3 l425 0 l0 1 q-1 6 -0.5 13 q0.5 7 3.5 13 q15 25 31.5 57 q16.5 32 27.5 61 q3 5 7 9.5 q4 4.5 10 7 q6 2.5 12 3 q6 0.5 11 -1.5 l1 0 q6 -2 10 -6.5 q4 -4.5 6 -11 q2 -6.5 1.5 -13.5 q-0.5 -7 -4.5 -13 q-17 -31 -35 -65 q-16 -30 -32 -54 l224 0 q5 0 11 -2.5 q6 -2.5 10.5 -7 q4.5 -4.5 7 -9.5 q2.5 -5 2.5 -11 q0 -5 -2.5 -10 q-2.5 -5 -7 -9.5 q-4.5 -4.5 -10.5 -7 q-6 -2.5 -11 -2.5 l-698 0 q-3 0 -6 1 l0 -79 q0 -40 -3 -87 q-3 -47 -12 -96 q-9 -49 -24.5 -97.5 q-15.5 -48.5 -41.5 -92.5 q-3 -6 -9 -10 q-6 -4 -12.5 -5.5 q-6.5 -1.5 -12.5 0 q-6 1.5 -11 5.5 q-5 3 -7 8.5 q-2 5.5 -3 12.5 Z" /><glyph glyph-name="uni4EAB" unicode="&#x4eab;" d="M253 479 q0 -2 2 -4 q2 -2 4 -2 l485 0 q2 0 4 2 q2 2 2 4 l0 89 q0 3 -2 5 q-2 2 -4 2 l-485 0 q-2 0 -4 -2 q-2 -2 -2 -5 l0 -89 ZM194 457 l0 134 q0 5 3 10.5 q3 5.5 7.5 10 q4.5 4.5 10.5 7.5 q6 3 12 3 l552 0 q6 0 12 -3 q6 -3 10.5 -7.5 q4.5 -4.5 7 -10 q2.5 -5.5 2.5 -10.5 l0 -134 q0 -6 -2.5 -11.5 q-2.5 -5.5 -7 -10 q-4.5 -4.5 -10.5 -7 q-6 -2.5 -12 -2.5 l-552 0 q-6 0 -12 2.5 q-6 2.5 -10.5 7 q-4.5 4.5 -7.5 10 q-3 5.5 -3 11.5 ZM64 719 q0 5 3 9.5 q3 4.5 7.5 8.5 q4.5 4 10 6 q5.5 2 12.5 2 l385 0 l-11 22 l-18 32 q-5 13 1 25 q6 12 19 15 l4 0 q7 3 17 -2.5 q10 -5.5 13 -13.5 q11 -17 21 -35.5 q10 -18.5 17 -33.5 q2 -5 2 -9 l355 0 q7 0 12.5 -2 q5.5 -2 10 -6 q4.5 -4 7.5 -8.5 q3 -4.5 3 -9.5 q0 -10 -10 -18.5 q-10 -8.5 -23 -8.5 l-805 0 q-13 0 -23 8.5 q-10 8.5 -10 18.5 ZM58.5 137.5 q-2.5 4.5 -2.5 9.5 q0 5 2.5 10 q2.5 5 7 9 q4.5 4 10 6 q5.5 2 11.5 2 l381 0 l0 33 q0 6 2.5 12 q2.5 6 6.5 10.5 q4 4.5 10 6.5 q3 2 7 3 q8 8 23 13 q35 8 70.5 18.5 q35.5 10.5 69.5 22.5 q21 7 42 15 l-518 0 q-13 0 -22.5 8 q-9.5 8 -9.5 17 q0 9 9.5 17 q9.5 8 22.5 8 l578 0 q11 0 20 -6 q1 2 3 3 q3 3 8 3 l4 0 q2 0 4 1 q4 1 9.5 -0.5 q5.5 -1.5 9.5 -4.5 q5 -6 7.5 -12.5 q2.5 -6.5 2 -13 q-0.5 -6.5 -4.5 -12.5 q-4 -6 -12 -9 q-31 -16 -66.5 -30.5 q-35.5 -14.5 -73 -27 q-37.5 -12.5 -75.5 -23.5 q-34 -9 -66 -16 l0 -36 l386 0 q6 0 11.5 -2 q5.5 -2 10 -6 q4.5 -4 7 -9 q2.5 -5 2.5 -10 q0 -5 -2.5 -9.5 q-2.5 -4.5 -7 -8.5 q-4.5 -4 -10 -6.5 q-5.5 -2.5 -11.5 -2.5 l-386 0 l0 -132 q0 -27 -9 -40 q-9 -13 -32 -19 q-21 -6 -57.5 -6.5 q-36.5 -0.5 -94.5 -1.5 q-9 0 -17.5 5.5 q-8.5 5.5 -11.5 11.5 q-5 13 4 22.5 q9 9.5 28 8.5 l67 0 q26 0 39 1 q14 1 18.5 4.5 q4.5 3.5 4.5 14.5 l0 131 l-381 0 q-6 0 -11.5 2.5 q-5.5 2.5 -10 6.5 q-4.5 4 -7 8.5 Z" /><glyph glyph-name="uni4EAC" unicode="&#x4eac;" d="M710 158.5 q-2 6.5 -1.5 13 q0.5 6.5 3 12 q2.5 5.5 8.5 8.5 q8 4 19 2.5 q11 -1.5 18 -8.5 q20 -21 42 -43.5 q22 -22.5 42.5 -45 q20.5 -22.5 38.5 -44 q18 -21.5 33 -39.5 q3 -5 4.5 -10.5 q1.5 -5.5 1 -11.5 q-0.5 -6 -3 -11.5 q-2.5 -5.5 -6.5 -8.5 l-2 0 q-5 -4 -11 -5 q-6 -1 -12.5 0.5 q-6.5 1.5 -12.5 5 q-6 3.5 -10 9.5 q-13 17 -30 37.5 q-17 20.5 -35.5 42.5 q-18.5 22 -38.5 43.5 q-20 21.5 -41 40.5 q-4 6 -6 12.5 ZM252 332 q0 -3 2 -5 q2 -2 4 -2 l491 0 q2 0 4 2 q2 2 2 5 l0 166 q0 3 -2 5 q-2 2 -4 2 l-491 0 q-2 0 -4 -2 q-2 -2 -2 -5 l0 -166 ZM193 303 l0 224 q0 5 3 11 q3 6 7.5 10 q4.5 4 10.5 7 q6 3 12 3 l559 0 q6 0 12 -3 q6 -3 10.5 -7 q4.5 -4 7 -10 q2.5 -6 2.5 -11 l0 -224 q0 -6 -2.5 -11.5 q-2.5 -5.5 -7 -10 q-4.5 -4.5 -10.5 -7 q-6 -2.5 -12 -2.5 l-253 0 q2 -5 2 -10 l0 -265 q0 -29 -8.5 -43.5 q-8.5 -14.5 -32.5 -21.5 q-20 -7 -50 -8 q-30 -1 -61 -1 q-20 0 -44 0 q-9 0 -17.5 6 q-8.5 6 -11.5 12 q-5 15 4.5 26 q9.5 11 26.5 10 l69 0 q26 0 40 1 q14 1 18.5 5 q4.5 4 4.5 15 l0 264 q0 5 2 10 l-248 0 q-6 0 -12 2.5 q-6 2.5 -10.5 7 q-4.5 4.5 -7.5 10 q-3 5.5 -3 11.5 ZM76 -16 q-2 6 -1.5 12.5 q0.5 6.5 4 13.5 q3.5 7 9.5 12 q40 35 78.5 77 q38.5 42 63.5 83 q6 8 17 12.5 q11 4.5 19 0.5 l1 0 q6 -2 10.5 -7 q4.5 -5 6.5 -11 q2 -6 0.5 -13 q-1.5 -7 -5.5 -13 q-32 -45 -72.5 -90.5 q-40.5 -45.5 -83.5 -81.5 q-5 -4 -10.5 -6 q-5.5 -2 -11 -3 q-5.5 -1 -10.5 0 q-5 1 -8 4 q-5 4 -7 10 ZM69.5 669 q-2.5 5 -2.5 11 q0 6 2.5 11 q2.5 5 7 9 q4.5 4 10.5 6 q6 2 12 2 l389 0 q-10 19 -22 41 q-14 23 -29 45 q-3 5 -3.5 12 q-0.5 7 1.5 13 q2 6 6.5 10.5 q4.5 4.5 10.5 6.5 l3 1 q8 3 18 -1.5 q10 -4.5 14 -12.5 q17 -22 32.5 -47.5 q15.5 -25.5 26.5 -46.5 q2 -6 2 -12 l0 -9 l356 0 q5 0 11 -2 q6 -2 10.5 -6 q4.5 -4 7 -9 q2.5 -5 2.5 -11 q0 -6 -2.5 -11 q-2.5 -5 -7 -9.5 q-4.5 -4.5 -10.5 -6.5 q-6 -2 -11 -2 l-805 0 q-6 0 -12 2 q-6 2 -10.5 6.5 q-4.5 4.5 -7 9.5 Z" /><glyph glyph-name="uni4EAE" unicode="&#x4eae;" d="M264 486 q0 -2 2 -3.5 q2 -1.5 4 -1.5 l465 0 q2 0 4 1.5 q2 1.5 2 3.5 l0 86 q0 2 -2 3.5 q-2 1.5 -4 1.5 l-465 0 q-2 0 -4 -1.5 q-2 -1.5 -2 -3.5 l0 -86 ZM205 467 l0 124 q0 6 3 11.5 q3 5.5 7.5 10.5 q4.5 5 10.5 7.5 q6 2.5 11 2.5 l533 0 q6 0 12 -2.5 q6 -2.5 10.5 -7.5 q4.5 -5 7 -10.5 q2.5 -5.5 2.5 -11.5 l0 -124 q0 -6 -2.5 -12 q-2.5 -6 -7 -10.5 q-4.5 -4.5 -10.5 -7 q-6 -2.5 -12 -2.5 l-533 0 q-5 0 -11 2.5 q-6 2.5 -10.5 7 q-4.5 4.5 -7.5 10.5 q-3 6 -3 12 ZM87 -59 q-8 13 0 25 q8 12 27 17 q55 12 91 30 q36 18 58 44 q22 26 32.5 63.5 q10.5 37.5 14.5 88.5 q2 11 11 20.5 q9 9.5 20 9.5 l2 0 q5 0 10 -2 q6 2 12 2 l266 0 q6 0 12 -2 q5 2 10 2 l3 0 q6 0 11 -2.5 q5 -2.5 9.5 -7 q4.5 -4.5 6.5 -10.5 q2 -6 2 -12 l0 -188 q0 -17 7.5 -22.5 q7.5 -5.5 32.5 -5.5 l114 0 q8 0 13.5 2.5 q5.5 2.5 8.5 9.5 q3 7 5 20 q2 13 3 35 q5 4 10 10 q5 6 9.5 11 q4.5 5 10 8 q5.5 3 12.5 0 q7 -3 12.5 -12.5 q5.5 -9.5 4.5 -20.5 q-3 -34 -7.5 -56 q-4.5 -22 -13.5 -35.5 q-9 -13.5 -23.5 -18.5 q-14.5 -5 -37.5 -5 l-128 0 q-28 0 -46.5 3.5 q-18.5 3.5 -29 13 q-10.5 9.5 -14.5 25 q-4 15.5 -4 39.5 l0 168 l-256 0 q-5 -51 -16 -89 q-14 -46 -42 -78.5 q-28 -32.5 -73.5 -54.5 q-45.5 -22 -114.5 -37 q-10 -3 -20.5 1.5 q-10.5 4.5 -14.5 10.5 ZM85 239 l0 95 q0 6 2.5 11.5 q2.5 5.5 7 10 q4.5 4.5 10.5 7 q6 2.5 12 2.5 l764 0 q7 0 12.5 -2.5 q5.5 -2.5 10 -7 q4.5 -4.5 7.5 -10 q3 -5.5 3 -11.5 l0 -94 q0 -6 -2.5 -11.5 q-2.5 -5.5 -7 -10 q-4.5 -4.5 -9.5 -7 q-5 -2.5 -11 -2.5 q-5 0 -10.5 2.5 q-5.5 2.5 -9.5 7 q-4 4.5 -6.5 10 q-2.5 5.5 -2.5 11.5 l0 69 q0 2 -2 4 q-2 2 -4 2 l-701 0 q-2 0 -4 -2 q-2 -2 -2 -4 l0 -70 q0 -6 -2.5 -11.5 q-2.5 -5.5 -6.5 -10 q-4 -4.5 -9 -7 q-5 -2.5 -10.5 -2.5 q-5.5 0 -10.5 2.5 q-5 2.5 -9 7 q-4 4.5 -6.5 10 q-2.5 5.5 -2.5 11.5 ZM65 710 q0 11 9.5 18.5 q9.5 7.5 21.5 7.5 l400 0 q-2 3 -4 5 q-6 13 -15 28.5 q-9 15.5 -19 30.5 q-5 11 1 22 q6 11 19 14 l4 1 q7 3 16 -1 q9 -4 12 -11 q11 -15 21.5 -31.5 q10.5 -16.5 17.5 -30.5 q3 -5 2.5 -10.5 q-0.5 -5.5 -3.5 -10.5 q-1 -3 -3 -6 l356 0 q12 0 22 -7.5 q10 -7.5 10 -18.5 q0 -5 -2.5 -9.5 q-2.5 -4.5 -7 -8 q-4.5 -3.5 -10.5 -6 q-6 -2.5 -12 -2.5 l-805 0 q-5 0 -11 2.5 q-6 2.5 -10.5 6 q-4.5 3.5 -7 8 q-2.5 4.5 -2.5 9.5 Z" /><glyph glyph-name="uni4EB2" unicode="&#x4eb2;" d="M666.5 162 q-2.5 6 -2 13 q0.5 7 3 12.5 q2.5 5.5 8.5 8.5 q7 5 17.5 3.5 q10.5 -1.5 17.5 -7.5 q23 -19 45.5 -41 q22.5 -22 43.5 -43.5 q21 -21.5 39 -43 q18 -21.5 32 -39.5 q4 -4 5 -10 q1 -6 0.5 -11.5 q-0.5 -5.5 -3.5 -11 q-3 -5.5 -7 -8.5 l-1 -1 q-6 -3 -11.5 -4 q-5.5 -1 -12 0.5 q-6.5 1.5 -12.5 5 q-6 3.5 -9 8.5 q-13 17 -30 37 q-17 20 -36.5 40.5 q-19.5 20.5 -39.5 41 q-20 20.5 -40 38.5 q-5 6 -7.5 12 ZM274 595 q-3 7 -3.5 14 q-0.5 7 1.5 13 q2 6 6.5 10 q4.5 4 10.5 6 q7 3 17.5 -1.5 q10.5 -4.5 14.5 -12.5 q17 -26 31.5 -55 q14.5 -29 23.5 -52 q2 -5 2 -11 q0 -6 -2.5 -11 q-2.5 -5 -6.5 -9 q-4 -4 -9 -6 q-6 -1 -12 -0.5 q-6 0.5 -11.5 3.5 q-5.5 3 -10 8 q-4.5 5 -7.5 11 q-7 21 -19 46 q-12 25 -26 47 ZM137 685 q0 5 2.5 9.5 q2.5 4.5 7 8 q4.5 3.5 10.5 5.5 q6 2 11 2 l316 0 l0 2 q-8 17 -20 37 l-24 40 q-3 6 -3 12.5 q0 6.5 3 12.5 q3 6 7.5 10.5 q4.5 4.5 10.5 5.5 l3 1 q8 2 18 -2.5 q10 -4.5 14 -12.5 q14 -21 27.5 -45 q13.5 -24 22.5 -44 q2 -5 2 -11 q-1 -3 -1 -6 l303 0 q5 0 11 -2 q6 -2 10.5 -5.5 q4.5 -3.5 7 -8 q2.5 -4.5 2.5 -10 q0 -5.5 -2.5 -10 q-2.5 -4.5 -7 -8.5 q-4.5 -4 -10.5 -6 q-6 -2 -11 -2 l-679 0 q-5 0 -11 2 q-6 2 -10.5 6 q-4.5 4 -7 8.5 q-2.5 4.5 -2.5 10.5 ZM126 -23 q-11 10 -10 24.5 q1 14.5 14 26.5 q39 31 74.5 71.5 q35.5 40.5 60.5 84.5 q5 8 16 12.5 q11 4.5 20 2.5 l1 0 q6 -2 10.5 -6.5 q4.5 -4.5 6.5 -11 q2 -6.5 1 -13 q-1 -6.5 -5 -12.5 q-30 -50 -69.5 -95.5 q-39.5 -45.5 -80.5 -79.5 q-8 -7 -19.5 -8 q-11.5 -1 -19.5 4 ZM76 435 q-3 5 -3 10 q0 5 3 10 q3 5 7.5 9 q4.5 4 10.5 6 q6 2 11 2 l488 0 q0 7 4 14 q20 28 40 64 q20 36 35 66 q3 6 6.5 10.5 q3.5 4.5 9 7.5 q5.5 3 11 4 q5.5 1 9.5 0 q6 -2 11 -6 q5 -4 7.5 -10 q2.5 -6 2.5 -13.5 q0 -7.5 -3 -13.5 q-19 -35 -40 -72 q-16 -27 -32 -51 l243 0 q5 0 11 -2 q6 -2 10.5 -6 q4.5 -4 7 -9 q2.5 -5 2.5 -10 q0 -5 -2.5 -10 q-2.5 -5 -7 -8.5 q-4.5 -3.5 -10.5 -6 q-6 -2.5 -11 -2.5 l-371 0 q2 -3 3 -6 q3 -6 3 -12 l0 -97 l350 0 q5 0 11 -2.5 q6 -2.5 10.5 -6 q4.5 -3.5 7 -8.5 q2.5 -5 2.5 -10 q0 -5 -2.5 -9.5 q-2.5 -4.5 -7 -9 q-4.5 -4.5 -10.5 -6.5 q-6 -2 -11 -2 l-350 0 l0 -250 q0 -28 -8 -42 q-8 -14 -28 -22 q-17 -5 -46.5 -6.5 q-29.5 -1.5 -76.5 -2.5 q-9 0 -18 6 q-9 6 -12 13 q-5 14 4.5 25 q9.5 11 26.5 10 l48 0 q19 0 31 1 q11 0 14.5 3.5 q3.5 3.5 3.5 14.5 l0 250 l-347 0 q-6 0 -11.5 2 q-5.5 2 -10 6.5 q-4.5 4.5 -7.5 9 q-3 4.5 -3 9.5 q0 5 3 10 q3 5 7.5 8.5 q4.5 3.5 10 6 q5.5 2.5 11.5 2.5 l347 0 l0 97 q0 6 3 12 q1 3 3 6 l-372 0 q-5 0 -11 2.5 q-6 2.5 -10.5 6 q-4.5 3.5 -7.5 8.5 Z" /><glyph glyph-name="uni4EBA" unicode="&#x4eba;" d="M79 -53 q-11 11 -8.5 25.5 q2.5 14.5 18.5 24.5 q89 51 151.5 119 q62.5 68 105 143.5 q42.5 75.5 66.5 154.5 q24 79 36.5 151 q12.5 72 16 134 q3.5 62 4.5 102 q0 6 2.5 12 q2.5 6 6.5 10 q4 4 9.5 7 q5.5 3 10.5 3 l6 0 q6 0 11.5 -3 q5.5 -3 9.5 -8 q4 -5 6.5 -11 q2.5 -6 2.5 -12 q-1 -45 -6 -112 l0 -3 q1 -3 1 -7 q4 -28 12.5 -78 q8.5 -50 26.5 -111 q18 -61 45.5 -129 q27.5 -68 70 -134 q42.5 -66 100.5 -124 q58 -58 135 -99 q16 -9 19.5 -23.5 q3.5 -14.5 -6.5 -25.5 q-3 -4 -7.5 -7 q-4.5 -3 -10.5 -4 q-6 -1 -12 -1 q-6 0 -11 4 q-83 43 -145 104.5 q-62 61.5 -107 131.5 q-45 70 -74.5 143 q-29.5 73 -47.5 139 q-8 26 -14 51 q-13 -64 -35 -132 q-27 -84 -73 -164 q-46 -80 -113 -151.5 q-67 -71.5 -163 -124.5 q-4 -3 -9.5 -4 q-5.5 -1 -11.5 0 q-6 1 -11 3 q-5 2 -8 6 Z" /><glyph glyph-name="uni4EBF" unicode="&#x4ebf;" d="M373 79 q0 15 3.5 33.5 q3.5 18.5 18.5 47.5 q15 29 44.5 72 q29.5 43 82 109 q52.5 66 130.5 158 q62 74 147 170 l-375 0 q-7 0 -13 2.5 q-6 2.5 -10.5 6.5 q-4.5 4 -7 9 q-2.5 5 -2.5 10 q0 6 2.5 11 q2.5 5 7 9 q4.5 4 10.5 6.5 q6 2.5 13 2.5 l402 0 q7 0 13 -3 q3 -1 6 -3 q2 2 4 3 q4 3 7 3 l4 0 q2 0 4 1 l3 0 q3 1 7 0.5 q4 -0.5 6 -2.5 l18 -9 l12 -11 l-8 -8 q-111 -124 -189 -214.5 q-78 -90.5 -130 -155 q-52 -64.5 -82 -106 q-30 -41.5 -45.5 -68 q-15.5 -26.5 -19.5 -42 q-4 -15.5 -4 -26.5 q0 -29 26.5 -41 q26.5 -12 68.5 -12 l279 -1 q18 0 30 6.5 q12 6.5 19.5 24 q7.5 17.5 11.5 49 q4 31.5 6 80.5 q2 18 12.5 27 q10.5 9 24.5 5 q8 -2 14 -12 q6 -10 4 -21 q-4 -68 -11 -110.5 q-7 -42.5 -21 -66 q-14 -23.5 -36 -31.5 q-22 -8 -57 -8 l-270 0 q-41 0 -71 7 q-30 7 -50 21 q-20 14 -29.5 33.5 q-9.5 19.5 -9.5 43.5 ZM52 407 q-7 8 -5 21 q2 13 9 21 q67 70 125 163 q58 93 100 195 q2 5 6 9 q4 4 9.5 7 q5.5 3 10.5 4 q5 1 11 -1 q5 -1 9.5 -5.5 q4.5 -4.5 6.5 -10 q2 -5.5 3 -12 q1 -6.5 -2 -12.5 q-37 -88 -84 -170 l0 -658 q0 -6 -2 -12 q-2 -6 -6 -10.5 q-4 -4.5 -9.5 -7 q-5.5 -2.5 -11 -2.5 q-5.5 0 -10.5 2.5 q-5 2.5 -9.5 7 q-4.5 4.5 -6.5 10.5 q-2 6 -2 13 l0 565 q-45 -66 -95 -121 q-5 -6 -11.5 -9 q-6.5 -3 -13 -2.5 q-6.5 0.5 -12 4 q-5.5 3.5 -9.5 9.5 q-1 0 -1 1 l0 1 Z" /><glyph glyph-name="uni4EC0" unicode="&#x4ec0;" d="M327.5 446 q-2.5 5 -2.5 11 q0 6 2.5 11 q2.5 5 7 9.5 q4.5 4.5 10 6.5 q5.5 2 11.5 2 l257 0 l0 311 q0 6 3 11.5 q3 5.5 7 10 q4 4.5 9 7 q5 2.5 11 2.5 l2 0 q6 0 11 -2.5 q5 -2.5 9.5 -7 q4.5 -4.5 6.5 -10 q2 -5.5 2 -11.5 l0 -311 l248 0 q6 0 11.5 -2 q5.5 -2 10 -6.5 q4.5 -4.5 7 -9.5 q2.5 -5 2.5 -11 q0 -6 -2.5 -11 q-2.5 -5 -7 -9 q-4.5 -4 -10 -6.5 q-5.5 -2.5 -11.5 -2.5 l-248 0 l0 -473 q0 -6 -2 -11.5 q-2 -5.5 -6.5 -10 q-4.5 -4.5 -9.5 -7 q-5 -2.5 -11 -2.5 l-2 0 q-6 0 -11 2.5 q-5 2.5 -9 7 q-4 4.5 -7 10 q-3 5.5 -3 11.5 l0 473 l-257 0 q-6 0 -11.5 2.5 q-5.5 2.5 -10 6.5 q-4.5 4 -7 9 ZM55 398 q-5 9 -3.5 21.5 q1.5 12.5 8.5 20.5 q68 71 128.5 166 q60.5 95 103.5 199 q2 6 6 10 q4 4 9.5 6.5 q5.5 2.5 11 4 q5.5 1.5 10.5 -0.5 q6 -2 10 -6 q4 -4 6.5 -9.5 q2.5 -5.5 2.5 -12.5 q0 -7 -3 -12 q-39 -95 -90 -181 l0 -646 q0 -7 -2.5 -12.5 q-2.5 -5.5 -6.5 -10 q-4 -4.5 -9 -7.5 q-5 -3 -11 -3 q-5 0 -10 3 q-5 3 -9.5 7.5 q-4.5 4.5 -7 10 q-2.5 5.5 -2.5 11.5 l0 557 q-45 -65 -94 -119 q-5 -6 -11 -9 q-6 -3 -12.5 -2.5 q-6.5 0.5 -13 3.5 q-6.5 3 -10.5 9 l0 2 l-1 0 Z" /><glyph glyph-name="uni4EC5" unicode="&#x4ec5;" d="M450 669 q5 -4 8.5 -9 q3.5 -5 5.5 -11 q27 -115 67.5 -216 q40.5 -101 96.5 -185 l12 -16 q6 8 13 16 q67 90 116 204 q43 99 68 217 l-387 0 ZM319 -56 q-8 12 -2 26 q6 14 21 20 q87 40 167 104 q51 41 97 93 l-14 20 q-60 89 -103.5 197.5 q-43.5 108.5 -73.5 233.5 q-1 6 0 11.5 q1 5.5 3 10.5 q3 5 6 9 l-28 0 q-6 0 -12 2.5 q-6 2.5 -10.5 6.5 q-4.5 4 -7 9 q-2.5 5 -2.5 10 q0 5 2.5 10 q2.5 5 7 9.5 q4.5 4.5 10.5 6.5 q6 2 12 2 l445 0 q6 0 11 -2 q2 2 5 2 q1 0 3 0.5 q2 0.5 4 1.5 l2 0 q2 1 5 0.5 q3 -0.5 5 -1.5 l8 -2 q9 -4 15.5 -14.5 q6.5 -10.5 4.5 -19.5 q-29 -151 -82.5 -272 q-53.5 -121 -124.5 -214 q-8 -11 -16 -21 q37 -45 80 -84 q72 -65 164 -105 q16 -9 21 -23 q5 -14 -4 -27 q-3 -3 -7 -5 q-4 -2 -9 -3.5 q-5 -1.5 -10.5 -1 q-5.5 0.5 -9.5 2.5 q-98 44 -176 112 q-47 41 -87 90 q-48 -53 -102 -95 q-86 -66 -179 -109 q-10 -4 -22 -1 q-12 3 -17 10 ZM46 392 q-6 9 -4.5 22 q1.5 13 9.5 21 q72 71 135 167 q63 96 107 201 q4 10 16 16 q12 6 22 3 l2 0 q5 -2 9.5 -6 q4.5 -4 6.5 -10 q2 -6 2.5 -12.5 q0.5 -6.5 -2.5 -12.5 q-43 -99 -98 -189 l0 -634 q0 -6 -2.5 -12 q-2.5 -6 -6.5 -10.5 q-4 -4.5 -9 -7 q-5 -2.5 -11 -2.5 q-6 0 -11 2.5 q-5 2.5 -9.5 7 q-4.5 4.5 -6.5 10.5 q-2 6 -2 12 l0 546 q-47 -64 -98 -118 q-6 -6 -12 -8.5 q-6 -2.5 -12.5 -2 q-6.5 0.5 -12.5 4 q-6 3.5 -10 9.5 l-2 3 Z" /><glyph glyph-name="uni4ECA" unicode="&#x4eca;" d="M415 529 q-3 6 -4 12.5 q-1 6.5 1 12.5 q2 6 7 10 q6 5 17 5 q11 0 19 -6 q39 -29 80 -62.5 q41 -33.5 70 -62.5 q4 -3 6.5 -9 q2.5 -6 2.5 -11.5 q0 -5.5 -2 -11.5 q-2 -6 -6 -10 q-4 -3 -10.5 -5 q-6.5 -2 -12.5 -1.5 q-6 0.5 -12 2.5 q-6 2 -10 6 q-26 27 -63 59.5 q-37 32.5 -74 60.5 q-6 5 -9 11 ZM164 312 l0 1 q0 6 2.5 11 q2.5 5 7 9 q4.5 4 10 6.5 q5.5 2.5 11.5 2.5 l564 0 q6 0 11.5 -2.5 q5.5 -2.5 10.5 -6.5 l0 1 q1 2 1 4 q0 2 2.5 3 q2.5 1 5.5 1 q2 0 3.5 0.5 q1.5 0.5 3.5 0.5 l1 0 q2 1 7 0.5 q5 -0.5 8 -1.5 l6 -3 q6 -3 9.5 -8.5 q3.5 -5.5 4.5 -12 q1 -6.5 -0.5 -13 q-1.5 -6.5 -4.5 -12.5 q-29 -36 -63.5 -80.5 q-34.5 -44.5 -72 -91 q-37.5 -46.5 -75.5 -93 q-38 -46.5 -74 -88.5 q-6 -8 -16.5 -10.5 q-10.5 -2.5 -18.5 1.5 l-5 2 q-6 3 -10 8.5 q-4 5.5 -5.5 12 q-1.5 6.5 0.5 13.5 q2 7 7 13 q38 44 78.5 92.5 q40.5 48.5 78 95.5 q37.5 47 70.5 89 q11 13 20 25 l-547 0 q-6 0 -11.5 2.5 q-5.5 2.5 -10 7 q-4.5 4.5 -7 9.5 q-2.5 5 -2.5 11 ZM68 437 q-10 11 -6.5 26 q3.5 15 19.5 23 q59 30 116.5 67.5 q57.5 37.5 109 80.5 q51.5 43 97 90.5 q45.5 47.5 80.5 95.5 q4 4 8.5 7 q4.5 3 9.5 4.5 q5 1.5 10.5 2 q5.5 0.5 9.5 -1.5 l4 -2 q6 -2 9.5 -7.5 q3.5 -5.5 4 -12 q0.5 -6.5 -0.5 -12.5 l-2 -8 q2 -1 3 -3 q35 -42 80 -84 q45 -42 95 -80.5 q50 -38.5 102 -71.5 q52 -33 102 -58 q8 -4 13 -10 q5 -6 7 -13 q2 -7 0 -14.5 q-2 -7.5 -7 -13.5 q0 -1 -1 -1 q-2 -4 -7.5 -6.5 q-5.5 -2.5 -11.5 -3.5 q-6 -1 -11.5 -0.5 q-5.5 0.5 -10.5 2.5 q-49 26 -102.5 62 q-53.5 36 -105 77.5 q-51.5 41.5 -98.5 86.5 q-45 43 -81 86 q-26 -32 -56 -62 q-49 -51 -103.5 -97 q-54.5 -46 -114 -85.5 q-59.5 -39.5 -121.5 -72.5 q-5 -2 -10 -2.5 q-5 -0.5 -11 0.5 q-6 1 -10.5 3.5 q-4.5 2.5 -8.5 6.5 l0 1 Z" /><glyph glyph-name="uni4ECB" unicode="&#x4ecb;" d="M659 -47 l0 464 q0 7 2.5 12.5 q2.5 5.5 7 10 q4.5 4.5 9.5 7 q5 2.5 11 2.5 l2 0 q6 0 11 -2.5 q5 -2.5 9.5 -7 q4.5 -4.5 7 -10 q2.5 -5.5 2.5 -12.5 l0 -464 q0 -6 -2.5 -12 q-2.5 -6 -7 -10.5 q-4.5 -4.5 -9.5 -7 q-5 -2.5 -11 -2.5 l-2 0 q-6 0 -11 2.5 q-5 2.5 -9.5 7 q-4.5 4.5 -7 10.5 q-2.5 6 -2.5 12 ZM105 -60 q-11 10 -8 24.5 q3 14.5 17 25.5 q58 35 92 74 q34 39 51.5 80 q17.5 41 22.5 84 q5 43 5 87 l0 101 q0 6 2.5 12 q2.5 6 6.5 10.5 q4 4.5 9.5 7 q5.5 2.5 10.5 2.5 l3 0 q6 0 11 -2.5 q5 -2.5 9.5 -7 q4.5 -4.5 6.5 -10.5 q2 -6 2 -12 l0 -102 q0 -48 -6 -98 q-6 -50 -27 -98.5 q-21 -48.5 -60.5 -94.5 q-39.5 -46 -107.5 -86 q-4 -4 -9.5 -5 q-5.5 -1 -11.5 0 q-6 1 -11 2.5 q-5 1.5 -8 5.5 ZM58 429 q-8 13 -2.5 27 q5.5 14 21.5 21 q60 25 119 61.5 q59 36.5 111.5 80 q52.5 43.5 97.5 93.5 q45 50 77 102 q4 5 9 8.5 q5 3.5 11 5 q6 1.5 12 1 q6 -0.5 11 -3.5 q4 -3 6.5 -8 q2.5 -5 3.5 -11 q1 -6 0 -11.5 q-1 -5.5 -5 -10.5 l0 -1 q7 -3 12 -9 q32 -44 76 -86.5 q44 -42.5 94.5 -80.5 q50.5 -38 106 -69.5 q55.5 -31.5 109.5 -51.5 q17 -7 21.5 -21 q4.5 -14 -5.5 -28 q0 -1 -1 -1 q-4 -7 -15 -10 q-11 -3 -20 0 q-57 22 -114.5 56 q-57.5 34 -111 75.5 q-53.5 41.5 -100.5 88.5 q-46 46 -82 94 q-24 -33 -54 -66 q-48 -54 -104.5 -102 q-56.5 -48 -118.5 -87.5 q-62 -39.5 -126 -66.5 q-5 -3 -10.5 -3 q-5.5 0 -11 2 q-5.5 2 -10.5 4.5 q-5 2.5 -7 7.5 Z" /><glyph glyph-name="uni4ECD" unicode="&#x4ecd;" d="M270 -59 q-10 8 -9.5 22 q0.5 14 9.5 25 q60 64 94.5 150.5 q34.5 86.5 52.5 184 q18 97.5 24 197.5 q5 99 7 188 l-97 0 q-5 0 -10.5 2.5 q-5.5 2.5 -10 6.5 q-4.5 4 -7 9 q-2.5 5 -2.5 10 q0 5 2.5 10 q2.5 5 7 9 q4.5 4 10 6.5 q5.5 2.5 10.5 2.5 l377 0 q6 0 11 -3 l6 -2 q7 5 14 5 q6 0 11.5 -3 q5.5 -3 9.5 -8.5 q4 -5.5 5.5 -12 q1.5 -6.5 0.5 -13.5 q-6 -35 -13.5 -73.5 q-7.5 -38.5 -15 -76.5 q-7.5 -38 -15.5 -73 q-3 -16 -7 -32 l148 0 q7 0 12.5 -2 q5.5 -2 10 -6 q4.5 -4 7 -9 q2.5 -5 2.5 -10 q0 -4 -1 -8 q-6 -119 -13 -202 q-7 -85 -14.5 -141 q-7.5 -56 -17.5 -87.5 q-10 -31.5 -24 -45.5 q-13 -17 -29.5 -23 q-16.5 -6 -40.5 -8 l-52 0 q-33 0 -72 3 q-10 -1 -20 6 q-10 7 -12 15 q-3 15 6 24.5 q9 9.5 24 9.5 q3 0 6 0 q16 -1 30.5 -1.5 q14.5 -0.5 27 -1 q12.5 -0.5 22.5 -0.5 l19 0 q14 0 23.5 2 q9.5 2 18.5 10 q11 11 19.5 40.5 q8.5 29.5 16 84 q7.5 54.5 13.5 137.5 q5 67 10 158 l-118 0 q-6 0 -12 3 q-4 1 -8 4 q-8 -7 -16 -7 q-7 0 -13 3.5 q-6 3.5 -9.5 8.5 q-3.5 5 -4.5 12.5 q-1 7.5 1 14.5 q7 29 14.5 64.5 q7.5 35.5 15 72.5 q7.5 37 13.5 74 q4 21 7 41 l-217 0 q-2 -96 -9 -202 q-7 -106 -27 -207.5 q-20 -101.5 -57.5 -192.5 q-37.5 -91 -101.5 -158 q-4 -6 -9.5 -8.5 q-5.5 -2.5 -11.5 -4 q-6 -1.5 -12 0 q-6 1.5 -10 5.5 ZM42 412 q-6 7 -5 18.5 q1 11.5 7 19.5 q56 69 103 161 q47 92 80 191 q2 6 6 10 q4 4 9 7 q5 3 10.5 4.5 q5.5 1.5 10.5 -0.5 q6 -1 10 -5.5 q4 -4.5 7 -9.5 q3 -5 3.5 -11.5 q0.5 -6.5 -1.5 -12.5 q-31 -88 -70 -170 l0 -659 q0 -6 -2.5 -11.5 q-2.5 -5.5 -6 -10.5 q-3.5 -5 -8.5 -7.5 q-5 -2.5 -11 -2.5 q-6 0 -10.5 2.5 q-4.5 2.5 -9 7.5 q-4.5 5 -7 10.5 q-2.5 5.5 -2.5 12.5 l0 551 q-31 -53 -65 -99 q-5 -7 -11.5 -10.5 q-6.5 -3.5 -13 -3.5 q-6.5 0 -12.5 3.5 q-6 3.5 -10 10.5 q0 1 -0.5 2 q-0.5 1 -0.5 2 Z" /><glyph glyph-name="uni4ECE" unicode="&#x4ece;" d="M394.5 -43.5 q-3.5 6.5 -4 14 q-0.5 7.5 2 15 q2.5 7.5 7.5 12.5 q66 64 110 144.5 q44 80.5 72.5 178.5 q28.5 98 45 213.5 q16.5 115.5 25.5 246.5 q0 6 3 11.5 q3 5.5 7.5 10 q4.5 4.5 9.5 7 q5 2.5 11 1.5 l4 0 q6 0 11 -2.5 q5 -2.5 9 -7.5 q4 -5 6 -11 q2 -6 1 -13 q-10 -141 -28 -262 q-3 -23 -7 -46 l2 -2 q4 -6 6 -14 q13 -57 33 -118 q20 -61 48.5 -120 q28.5 -59 66 -111.5 q37.5 -52.5 87.5 -92.5 q11 -10 13 -25 q2 -15 -7 -25 q-4 -5 -10 -8 q-6 -3 -12.5 -3.5 q-6.5 -0.5 -13 2 q-6.5 2.5 -10.5 7.5 q-53 46 -93.5 105.5 q-40.5 59.5 -70.5 124.5 q-30 65 -50 131 q-6 20 -11 38 q-9 -34 -19 -67 q-30 -103 -77 -188 q-47 -85 -116 -153 q-3 -5 -8.5 -7 q-5.5 -2 -11.5 -3 q-6 -1 -11 0.5 q-5 1.5 -10 4.5 l0 1 l-1 0 q-6 4 -9.5 10.5 ZM68 -45 q-3 6 -3.5 13 q-0.5 7 1 13.5 q1.5 6.5 6.5 12.5 q53 65 88 148.5 q35 83.5 57.5 183 q22.5 99.5 34.5 213.5 q12 114 18 240 q0 6 3 12 q3 6 7.5 10.5 q4.5 4.5 10 6.5 q5.5 2 10.5 2 l4 0 q6 0 11 -3 q5 -3 9 -7.5 q4 -4.5 6.5 -10.5 q2.5 -6 1.5 -12 q-8 -135 -21 -253 q-2 -17 -4 -32 q4 -1 7 -3 q6 -3 10 -8 q24 -30 48 -64 q24 -34 47 -67.5 q23 -33.5 41.5 -65 q18.5 -31.5 32.5 -59.5 q5 -8 3.5 -19 q-1.5 -11 -7.5 -16 l-1 -1 q-5 -5 -12 -6.5 q-7 -1.5 -13.5 0 q-6.5 1.5 -12.5 5.5 q-6 4 -10 10 q-14 27 -32.5 58 q-18.5 31 -39.5 63 q-21 32 -43 65 q-14 20 -28 39 q-10 -63 -23 -121 q-23 -103 -59.5 -190.5 q-36.5 -87.5 -90.5 -159.5 q-4 -5 -10 -8.5 q-6 -3.5 -12.5 -4 q-6.5 -0.5 -13 0 q-6.5 0.5 -10.5 4.5 l-1 0 l-1 1 q-6 4 -9 10 Z" /><glyph glyph-name="uni4ED3" unicode="&#x4ed3;" d="M236 66 l0 383 q0 6 2.5 12 q2.5 6 6.5 10 q4 4 9.5 7 q5.5 3 11.5 3 l2 0 q6 0 11 -3 q2 -1 3 -2 q3 1 5 2 q6 3 11 3 l432 0 q5 0 10.5 -2.5 q5.5 -2.5 10 -6.5 q4.5 -4 7 -9 q2.5 -5 2.5 -11 q0 -4 -1 -8 q-3 -61 -6 -105 q-4 -46 -8 -77 q-4 -31 -10 -49 q-6 -18 -14 -27 q-11 -13 -26 -17.5 q-15 -4.5 -37 -5.5 q-17 -1 -45.5 -1 q-28.5 0 -62.5 2 q-10 0 -19.5 6.5 q-9.5 6.5 -11.5 13.5 q-3 14 8 23 q11 9 29 9 q13 -1 25 -2 q12 -1 22 -1 l32 0 q14 0 22 1.5 q8 1.5 14 7.5 q5 6 9.5 22 q4.5 16 8.5 45 q4 29 6 74 q2 27 3 60 l-400 0 l-1 1 l0 -358 q0 -17 4 -28 q4 -11 15 -17.5 q11 -6.5 30.5 -8.5 q19.5 -2 51.5 -2 l306 0 q24 0 39.5 4 q15.5 4 25.5 16.5 q10 12.5 15.5 34 q5.5 21.5 8.5 55.5 q4 8 8.5 14.5 q4.5 6.5 10 10.5 q5.5 4 12 5.5 q6.5 1.5 13.5 -1.5 q5 -2 8.5 -5.5 q3.5 -3.5 6 -8.5 q2.5 -5 4 -11 q1.5 -6 1.5 -11 q-6 -47 -13.5 -78.5 q-7.5 -31.5 -23.5 -50 q-16 -18.5 -43.5 -26 q-27.5 -7.5 -71.5 -7.5 l-306 0 q-47 0 -78.5 5 q-31.5 5 -50.5 17.5 q-19 12.5 -26.5 35 q-7.5 22.5 -7.5 57.5 ZM64 413 q-10 12 -6 27 q4 15 19 23 q61 30 119.5 69 q58.5 39 111.5 84 q53 45 99 95.5 q46 50.5 81 101.5 q3 4 8 7.5 q5 3.5 10 5.5 q5 2 10.5 2.5 q5.5 0.5 9.5 -1.5 l3 -1 q5 -2 9 -7.5 q4 -5.5 5 -11.5 q1 -6 0 -12.5 q-1 -6.5 -4 -11.5 q-2 -2 -4 -5 q2 -1 3 -3 q80 -100 177 -171 q97 -71 209 -128 q16 -8 20.5 -22 q4.5 -14 -4.5 -25 q-3 -4 -8 -6.5 q-5 -2.5 -10.5 -4 q-5.5 -1.5 -11.5 -0.5 q-6 1 -12 4 q-113 61 -213 137 q-97 74 -182 176 q-25 -31 -53 -62 q-49 -54 -105.5 -103 q-56.5 -49 -117.5 -91 q-61 -42 -125 -74 q-4 -2 -9.5 -2.5 q-5.5 -0.5 -11 1 q-5.5 1.5 -10 4 q-4.5 2.5 -7.5 5.5 Z" /><glyph glyph-name="uni4ED4" unicode="&#x4ed4;" d="M311.5 362 q-2.5 5 -2.5 10.5 q0 5.5 2.5 11 q2.5 5.5 7 9.5 q4.5 4 10.5 6 q6 2 12 2 l264 0 l0 116 q0 6 2 11.5 q2 5.5 6.5 10 q4.5 4.5 9.5 7.5 l1 0 q0 2 1 3 q4 13 18 23 q30 18 60 39.5 q30 21.5 58.5 44.5 q28.5 23 52.5 46 q4 4 8 7 l-419 0 q-6 0 -12 3 q-6 3 -10.5 7 q-4.5 4 -7 8.5 q-2.5 4.5 -2.5 10.5 q0 5 2.5 10 q2.5 5 7 9.5 q4.5 4.5 10.5 6.5 q6 2 12 2 l446 0 q6 0 12 -2 q1 -1 3 -2 l0 1 q3 3 8 3 q2 0 3.5 0.5 q1.5 0.5 3.5 0.5 q3 1 9 -0.5 q6 -1.5 10 -4.5 l3 -2 q5 -4 8.5 -9.5 q3.5 -5.5 4 -12.5 q0.5 -7 -1 -13 q-1.5 -6 -6.5 -11 q-25 -26 -54 -52 q-29 -26 -60 -50.5 q-31 -24.5 -63.5 -46.5 q-32.5 -22 -62.5 -40 q-1 0 -3 -1 q1 -3 1 -6 l0 -117 l262 0 q6 0 11.5 -2 q5.5 -2 10.5 -6 q5 -4 7.5 -9.5 q2.5 -5.5 2.5 -11 q0 -5.5 -2.5 -10.5 q-2.5 -5 -7.5 -9 q-5 -4 -10.5 -6.5 q-5.5 -2.5 -11.5 -2.5 l-262 0 l0 -335 q0 -32 -9.5 -47.5 q-9.5 -15.5 -32.5 -24.5 q-22 -6 -59 -7.5 q-37 -1.5 -96 -1.5 q-9 0 -18.5 7 q-9.5 7 -12.5 15 q-2 7 -1 13.5 q1 6.5 5.5 12 q4.5 5.5 11.5 8.5 q7 3 15 3 q42 -1 70.5 -1 q28.5 0 42.5 1 q14 0 19.5 4.5 q5.5 4.5 5.5 17.5 l0 335 l-264 0 q-6 0 -12 2.5 q-6 2.5 -10.5 6.5 q-4.5 4 -7 9 ZM51 409 q-5 9 -4 21.5 q1 12.5 8 20.5 q63 69 117 162.5 q54 93.5 93 195.5 q2 5 6 9 q4 4 9 7 q5 3 11 4 q6 1 11 0 q6 -2 10 -6 q4 -4 6.5 -9.5 q2.5 -5.5 3 -12.5 q0.5 -7 -2.5 -12 q-41 -105 -95 -201 l0 -633 q0 -6 -2.5 -12 q-2.5 -6 -6 -10.5 q-3.5 -4.5 -8.5 -7 q-5 -2.5 -11 -2.5 q-6 0 -10.5 2.5 q-4.5 2.5 -9 7.5 q-4.5 5 -7 10.5 q-2.5 5.5 -2.5 11.5 l0 541 q-32 -48 -67 -90 q-6 -6 -12.5 -9 q-6.5 -3 -12.5 -3 q-6 0 -12.5 3.5 q-6.5 3.5 -10.5 9.5 l0 2 l-1 0 Z" /><glyph glyph-name="uni4ED6" unicode="&#x4ed6;" d="M284 391 q-2 4 -1.5 10 q0.5 6 3 11 q2.5 5 7 10 q4.5 5 9.5 7 l98 38 l0 243 q0 5 2 11 q2 6 7 10.5 q5 4.5 10 7 q5 2.5 10 2.5 q6 0 11 -2.5 q5 -2.5 9.5 -7 q4.5 -4.5 6.5 -10.5 q2 -6 2 -11 l0 -221 l166 65 l0 249 q0 7 2.5 12.5 q2.5 5.5 6.5 10 q4 4.5 9 7.5 q5 3 10.5 3 q5.5 0 10.5 -3 q5 -3 9 -7.5 q4 -4.5 6.5 -10 q2.5 -5.5 2.5 -12.5 l0 -227 l166 64 q4 2 9 2 l7 8 q4 4 12 5 q8 1 14 -2 l2 -1 q10 -3 16.5 -8.5 q6.5 -5.5 6.5 -8.5 q-1 -1 -1 -4 l0 -6 q0 -68 -1 -129 q-1 -61 -3 -109.5 q-2 -48.5 -4 -83.5 q-2 -35 -7 -51 q-6 -33 -22 -47.5 q-16 -14.5 -39 -18.5 q-14 -2 -33.5 -3 q-19.5 -1 -36.5 -1 q-6 0 -11 1.5 q-5 1.5 -9 4.5 q-4 3 -7 6.5 q-3 3.5 -4 7.5 q-3 14 2.5 23.5 q5.5 9.5 19.5 9.5 l48 0 q14 0 23 6 q9 6 15 27 q4 13 6 44.5 q2 31.5 3.5 78.5 q1.5 47 2.5 108 l0 83 l-175 -68 l0 -340 q0 -7 -2.5 -12.5 q-2.5 -5.5 -6.5 -10 q-4 -4.5 -9 -7.5 q-5 -3 -10.5 -3 q-5.5 0 -10.5 3 q-5 3 -9 7.5 q-4 4.5 -6.5 10 q-2.5 5.5 -2.5 12.5 l0 318 l-166 -64 l0 -367 q0 -21 3.5 -35 q3.5 -14 13 -21.5 q9.5 -7.5 27 -10.5 q17.5 -3 44.5 -3 l276 0 q20 0 32.5 4 q12.5 4 21 16 q8.5 12 13 31.5 q4.5 19.5 7.5 48.5 q6 18 16.5 26.5 q10.5 8.5 24.5 3.5 q9 -3 14.5 -14 q5.5 -11 4.5 -21 q-5 -42 -11.5 -70.5 q-6.5 -28.5 -21 -46.5 q-14.5 -18 -38.5 -25.5 q-24 -7.5 -63 -7.5 l-276 0 q-42 0 -70 5.5 q-28 5.5 -45.5 19.5 q-17.5 14 -24 38.5 q-6.5 24.5 -6.5 62.5 l0 343 l-77 -30 q-5 -1 -11.5 -1 q-6.5 0 -12 2 q-5.5 2 -9.5 6 q-4 4 -6 9 ZM35 405 q-5 9 -3 21.5 q2 12.5 9 21.5 q66 69 124.5 162 q58.5 93 98.5 195 q2 5 6 9 q4 4 9.5 7 q5.5 3 11 4.5 q5.5 1.5 10.5 -0.5 q6 -2 10 -6 q4 -4 6 -9.5 q2 -5.5 2.5 -12 q0.5 -6.5 -1.5 -12.5 q-40 -95 -93 -184 l0 -643 q0 -7 -2 -12.5 q-2 -5.5 -6 -10 q-4 -4.5 -9.5 -7.5 q-5.5 -3 -11 -3 q-5.5 0 -10.5 3 q-5 3 -9.5 7.5 q-4.5 4.5 -7 10 q-2.5 5.5 -2.5 11.5 l0 554 q-40 -59 -84 -108 q-6 -6 -12.5 -9 q-6.5 -3 -13 -2.5 q-6.5 0.5 -12 3.5 q-5.5 3 -9.5 8 l0 2 l-1 0 Z" /><glyph glyph-name="uni4ED8" unicode="&#x4ed8;" d="M430 381 q-3 6 -4 12.5 q-1 6.5 0.5 12.5 q1.5 6 5 11 q3.5 5 8.5 7 l1 1 q4 2 9 1.5 q5 -0.5 10.5 -2 q5.5 -1.5 10 -5 q4.5 -3.5 6.5 -7.5 q17 -24 35 -50.5 q18 -26.5 34.5 -52.5 q16.5 -26 31.5 -50.5 q15 -24.5 26 -44.5 q3 -5 3 -10.5 q0 -5.5 -1.5 -11 q-1.5 -5.5 -4.5 -10.5 q-3 -5 -8 -8 l-1 0 q-5 -3 -11.5 -3 q-6.5 0 -12.5 2 q-6 2 -11.5 6 q-5.5 4 -8.5 10 q-11 20 -24.5 43.5 q-13.5 23.5 -29.5 48.5 q-16 25 -32 51 q-16 26 -32 49 ZM343 582 l0 1 q0 5 2.5 10.5 q2.5 5.5 7 10 q4.5 4.5 10.5 6.5 q6 2 12 2 l382 0 l0 181 q0 6 2.5 11.5 q2.5 5.5 7 10 q4.5 4.5 9.5 7.5 q5 3 11 3 l2 0 q5 0 10 -3 q5 -3 9.5 -7.5 q4.5 -4.5 6.5 -10 q2 -5.5 2 -11.5 l0 -181 l99 0 q7 0 13 -2 q6 -2 10.5 -6.5 q4.5 -4.5 7 -10 q2.5 -5.5 2.5 -10.5 l0 -1 q0 -6 -2.5 -11 q-2.5 -5 -7 -9 q-4.5 -4 -10.5 -7 q-6 -3 -13 -3 l-99 0 l0 -541 q0 -38 -12 -55 q-12 -17 -38 -24 q-24 -8 -60 -9 q-36 -1 -73 -1 q-24 0 -53 0 q-9 0 -17.5 6 q-8.5 6 -11.5 14 q-6 15 2.5 26.5 q8.5 11.5 25.5 11.5 q1 0 3 0 q42 -2 73 -2 q8 0 30 0.5 q22 0.5 39 1.5 q18 2 25 8 q7 6 7 23 l0 541 l-382 0 q-6 0 -12 3 q-6 3 -10.5 7 q-4.5 4 -7 9 q-2.5 5 -2.5 11 ZM54.5 403 q-1.5 6 -1 12 q0.5 6 2.5 11.5 q2 5.5 7 10.5 q68 70 128 165.5 q60 95.5 102 199.5 q2 5 6.5 9.5 q4.5 4.5 10 7.5 q5.5 3 10.5 3.5 q5 0.5 11 -0.5 l1 0 q6 -2 10.5 -6 q4.5 -4 6.5 -9.5 q2 -5.5 2.5 -12.5 q0.5 -7 -2.5 -12 q-42 -103 -97 -196 l0 -628 q0 -6 -2.5 -12 q-2.5 -6 -6.5 -10.5 q-4 -4.5 -9 -7 q-5 -2.5 -11 -2.5 l-1 0 q-6 0 -11 2.5 q-5 2.5 -9.5 7 q-4.5 4.5 -6.5 10.5 q-2 6 -2 12 l0 538 q-41 -58 -86 -107 q-5 -6 -11.5 -8.5 q-6.5 -2.5 -13 -2.5 q-6.5 0 -12.5 3.5 q-6 3.5 -10 8.5 l0 2 l-1 1 q-3 4 -4.5 10 Z" /><glyph glyph-name="uni4EE3" unicode="&#x4ee3;" d="M734 767 q-3 6 -3 12.5 q0 6.5 2 12 q2 5.5 7 8.5 q6 4 16.5 2.5 q10.5 -1.5 17.5 -7.5 q37 -28 74.5 -61 q37.5 -33 63.5 -61 q3 -4 4.5 -9.5 q1.5 -5.5 1 -10.5 q-0.5 -5 -2.5 -10 q-2 -5 -6 -8 q-5 -3 -11 -3.5 q-6 -0.5 -12 1 q-6 1.5 -11.5 4.5 q-5.5 3 -9.5 8 q-23 24 -56.5 54.5 q-33.5 30.5 -66.5 56.5 q-5 5 -8 11 ZM323 463 q-1 5 1 10.5 q2 5.5 6 10 q4 4.5 9.5 8 q5.5 3.5 10.5 3.5 l227 28 q-13 125 -20 266 q0 6 2 12 q2 6 6 11 q4 5 9 8 q5 3 11 3 l1 0 q6 0 11 -3 q5 -3 9 -7 q4 -4 6.5 -10 q2.5 -6 2.5 -11 q6 -139 19 -262 l277 34 q6 1 11.5 -0.5 q5.5 -1.5 11 -5 q5.5 -3.5 9 -8 q3.5 -4.5 3.5 -9.5 q1 -6 -1 -11.5 q-2 -5.5 -5.5 -9.5 q-3.5 -4 -9.5 -7.5 q-6 -3.5 -12 -4.5 l-277 -34 q17 -138 46 -242 q30 -107 74 -171 q44 -64 104 -69 l1 0 q18 0 31 32.5 q13 32.5 22 96.5 q4 19 15 27 q11 8 25 0 q5 -3 9 -12 q4 -9 3 -17 q-8 -56 -18 -93.5 q-10 -37.5 -22.5 -61 q-12.5 -23.5 -27 -32 q-14.5 -8.5 -29.5 -8.5 q-3 0 -7 0 q-81 5 -136 73 q-55 68 -91 184 q-36 116 -55 271 q-1 8 -2 15 l-226 -27 q-5 -1 -11 0.5 q-6 1.5 -11 4.5 q-5 3 -8.5 7.5 q-3.5 4.5 -3.5 10.5 ZM42 388 q-7 9 -5 22 q2 13 11 21 q78 71 146.5 166.5 q68.5 95.5 116.5 201.5 q2 5 6.5 9 q4.5 4 10 7 q5.5 3 10.5 3.5 q5 0.5 10 -1.5 l1 0 q5 -2 9.5 -6 q4.5 -4 6.5 -9.5 q2 -5.5 2.5 -12.5 q0.5 -7 -2.5 -12 q-44 -94 -99 -179 l0 -641 q0 -6 -2.5 -12 q-2.5 -6 -6.5 -10.5 q-4 -4.5 -9 -7 q-5 -2.5 -11 -2.5 l-2 0 q-5 0 -10.5 2.5 q-5.5 2.5 -10 7 q-4.5 4.5 -6.5 10.5 q-2 6 -2 12 l0 557 q-56 -73 -118 -131 q-5 -6 -11 -8 q-6 -2 -12.5 -1.5 q-6.5 0.5 -12 4 q-5.5 3.5 -9.5 9.5 l-1 1 Z" /><glyph glyph-name="uni4EE4" unicode="&#x4ee4;" d="M425 553.5 q-3 6.5 -3.5 13 q-0.5 6.5 1.5 12 q2 5.5 7 9.5 q6 5 17 4 q11 -1 19 -7 q32 -26 65 -56.5 q33 -30.5 54 -57.5 q4 -4 6 -10 q2 -6 2 -11.5 q0 -5.5 -3 -10.5 q-3 -5 -6 -9 q-5 -4 -11 -5 q-6 -1 -12.5 0 q-6.5 1 -12.5 4 q-6 3 -10 8 q-19 24 -47 52.5 q-28 28.5 -58 52.5 q-5 5 -8 11.5 ZM174.5 334 q-2.5 5 -2.5 10.5 q0 5.5 2.5 10.5 q2.5 5 7 9.5 q4.5 4.5 10.5 6.5 q6 2 12 2 l555 0 q6 0 11 -2 q5 -2 8 -4 l1 1 q0 3 2.5 4 q2.5 1 6.5 1 q1 0 3 0.5 q2 0.5 4 1.5 q2 1 7.5 0 q5.5 -1 9.5 -4 l4 -2 q6 -4 8.5 -9.5 q2.5 -5.5 3.5 -12.5 q1 -7 -1.5 -13.5 q-2.5 -6.5 -7.5 -11.5 q-28 -29 -60.5 -62.5 q-32.5 -33.5 -68 -68.5 q-35.5 -35 -70.5 -70 q-31 -31 -60 -61 q16 -12 31 -23 q32 -26 57 -49 q6 -4 8.5 -9.5 q2.5 -5.5 3 -11.5 q0.5 -6 -1 -12 q-1.5 -6 -5.5 -10 l-4 -4 q-3 -4 -9 -6.5 q-6 -2.5 -12 -2.5 q-6 0 -12 2 q-6 2 -10 5 q-23 22 -53.5 47.5 q-30.5 25.5 -64 51.5 q-33.5 26 -69 51.5 q-35.5 25.5 -69.5 48.5 q-7 4 -10.5 10 q-3.5 6 -5 12.5 q-1.5 6.5 0 13 q1.5 6.5 7.5 10.5 l1 2 q6 5 16 6 q10 1 18 -3 q35 -23 72 -48 q32 -22 63 -45 q34 34 71 70 l72 72 q35 35 65 67 q6 5 11 11 l-527 0 q-6 0 -12 2.5 q-6 2.5 -10.5 6.5 q-4.5 4 -7 9 ZM68 448 q-9 13 -5.5 27 q3.5 14 19.5 22 q60 28 118.5 64.5 q58.5 36.5 112 78 q53.5 41.5 100 87 q46.5 45.5 82.5 91.5 q7 8 18.5 11 q11.5 3 20.5 -1 l1 -1 q6 -3 9.5 -8.5 q3.5 -5.5 4 -12 q0.5 -6.5 -1.5 -12.5 q-2 -6 -7 -12 l-2 -2 l2 -2 q35 -39 81 -78.5 q46 -39.5 97 -75.5 q51 -36 104.5 -68 q53.5 -32 103.5 -54 q16 -7 20 -22 q4 -15 -6 -28 l-1 0 q-2 -4 -7 -6.5 q-5 -2.5 -10.5 -4 q-5.5 -1.5 -11 -1 q-5.5 0.5 -10.5 2.5 q-49 25 -103.5 58.5 q-54.5 33.5 -107.5 72 q-53 38.5 -101 81.5 q-48 41 -86 83 q-24 -27 -51 -54 q-50 -49 -105.5 -92.5 q-55.5 -43.5 -116 -81.5 q-60.5 -38 -122.5 -69 q-5 -2 -10.5 -2.5 q-5.5 -0.5 -11 0.5 q-5.5 1 -10 3.5 q-4.5 2.5 -7.5 5.5 Z" /><glyph glyph-name="uni4EE5" unicode="&#x4ee5;" d="M402 690 q-5 5 -6 12 q-1 7 0 13.5 q1 6.5 4.5 12 q3.5 5.5 8.5 8.5 l1 0 q8 4 19 1.5 q11 -2.5 17 -10.5 q18 -23 36 -47.5 q18 -24.5 34.5 -49 q16.5 -24.5 30.5 -48.5 q14 -24 25 -45 q3 -4 3.5 -10 q0.5 -6 -1 -11.5 q-1.5 -5.5 -4.5 -10 q-3 -4.5 -7 -7.5 l-1 -1 q-6 -3 -12.5 -3 q-6.5 0 -12.5 2 q-6 2 -11.5 6.5 q-5.5 4.5 -8.5 10.5 q-20 39 -51 87 q-31 48 -64 90 ZM372 -62 q-10 11 -6 26 q4 15 20 23 q108 50 177 119.5 q69 69.5 111.5 164.5 q42.5 95 63 218 q20.5 123 29.5 279 q0 5 3 11 q3 6 7.5 10.5 q4.5 4.5 10 6.5 q5.5 2 11.5 2 l2 0 q6 0 11 -3 q5 -3 9 -8 q4 -5 6 -11 q2 -6 2 -11 q-11 -167 -34.5 -297.5 q-23.5 -130.5 -69.5 -231.5 l-4 -10 q1 0 2 -1 q30 -28 61 -58.5 q31 -30.5 60 -61.5 q29 -31 54.5 -60.5 q25.5 -29.5 45.5 -55.5 q3 -5 4 -11 q1 -6 0.5 -11.5 q-0.5 -5.5 -3 -11 q-2.5 -5.5 -7.5 -8.5 l-3 -2 q-4 -4 -10.5 -4.5 q-6.5 -0.5 -12.5 0.5 q-6 1 -12 4.5 q-6 3.5 -10 8.5 q-18 24 -41.5 53 q-23.5 29 -50 59 q-26.5 30 -56.5 60 l-49 49 q-38 -64 -90 -115 q-75 -75 -190 -131 q-5 -2 -11 -2.5 q-6 -0.5 -11.5 1 q-5.5 1.5 -10 4 q-4.5 2.5 -7.5 5.5 q0 1 -1 1 ZM127 58 q-6 8 -2 21.5 q4 13.5 13 23.5 q5 5 10 9 q5 4 9.5 9.5 q4.5 5.5 6.5 15 q2 9.5 2 26.5 l0 561 q0 6 2.5 12 q2.5 6 7 10.5 q4.5 4.5 9.5 7 q5 2.5 11 2.5 l4 0 q5 0 10 -2.5 q5 -2.5 9.5 -7 q4.5 -4.5 6.5 -10.5 q2 -6 2 -12 l0 -578 l212 95 q7 4 14 4 q7 0 13 -2 q6 -2 10.5 -6.5 q4.5 -4.5 6.5 -9.5 q3 -9 -3 -20 q-6 -11 -15 -16 q-66 -29 -113.5 -51 q-47.5 -22 -80 -37.5 q-32.5 -15.5 -53.5 -26 q-21 -10.5 -34 -17.5 q-8 -5 -16 -7 l-4 0 q-1 -1 -3 -1 q-7 -3 -13.5 -3.5 q-6.5 -0.5 -12 2 q-5.5 2.5 -9.5 8.5 Z" /><glyph glyph-name="uni4EEA" unicode="&#x4eea;" d="M562 757 q-3 5 -4 12 q-1 7 0 13.5 q1 6.5 4 11.5 q3 5 8 7 q8 5 19 1 q11 -4 16 -12 q28 -38 54 -81.5 q26 -43.5 42 -77.5 q4 -9 1 -20 q-3 -11 -11 -15 q-6 -3 -12.5 -3 q-6.5 0 -12.5 2.5 q-6 2.5 -11.5 7.5 q-5.5 5 -8.5 11 q-15 31 -37.5 69.5 q-22.5 38.5 -46.5 73.5 ZM292 -60 q-8 10 -2.5 24 q5.5 14 20.5 21 q130 55 220 132 q31 26 58 55 q-21 28 -41 59 q-62 101 -103.5 224.5 q-41.5 123.5 -69.5 269.5 q-1 5 0.5 11 q1.5 6 4.5 11 q3 5 8 8.5 q5 3.5 10 4.5 q6 1 11 -1 q5 -2 9.5 -5.5 q4.5 -3.5 8 -9 q3.5 -5.5 4.5 -11.5 q25 -134 64.5 -250 q39.5 -116 98.5 -210 q17 -28 37 -54 q28 35 51 72 q62 96 99.5 211 q37.5 115 61.5 247 q1 5 4.5 10.5 q3.5 5.5 8.5 9 q5 3.5 11 5.5 q6 2 11 0 q6 0 10.5 -4 q4.5 -4 8 -9 q3.5 -5 4.5 -11 q1 -6 0 -11 q-27 -140 -67.5 -261.5 q-40.5 -121.5 -106.5 -223.5 q-27 -42 -59 -80 q30 -36 65 -67 q81 -71 187 -116 q16 -8 19.5 -22.5 q3.5 -14.5 -6.5 -26.5 q-5 -8 -16.5 -11 q-11.5 -3 -21.5 1 q-114 48 -199 124 q-38 33 -71 71 q-28 -29 -60 -56 q-96 -81 -234 -139 q-9 -4 -21 -1.5 q-12 2.5 -17 9.5 ZM35 405 q-5 9 -3 21.5 q2 12.5 9 21.5 q66 69 124.5 162.5 q58.5 93.5 98.5 195.5 q2 5 6.5 9 q4.5 4 9.5 6.5 q5 2.5 11 4 q6 1.5 10 -0.5 q6 -2 10 -6 q4 -4 7 -9.5 q3 -5.5 3 -12.5 q0 -7 -2 -12 q-41 -98 -94 -188 l0 -639 q0 -7 -2 -13 q-2 -6 -6 -10 q-4 -4 -9 -7 q-5 -3 -10.5 -3 q-5.5 0 -10.5 3 q-5 3 -9.5 7.5 q-4.5 4.5 -6.5 10 q-2 5.5 -2 11.5 l0 552 q-41 -58 -86 -107 q-5 -7 -11.5 -9.5 q-6.5 -2.5 -13 -2 q-6.5 0.5 -12.5 3.5 q-6 3 -9 9 q-1 1 -1 1.5 q0 0.5 -1 0.5 Z" /><glyph glyph-name="uni4EEC" unicode="&#x4eec;" d="M576 772 q0 5 3 10 q3 5 7.5 8.5 q4.5 3.5 10 6 q5.5 2.5 11.5 2.5 l281 0 q5 0 10 -3 l1 0 q5 -2 8 -5 q5 -4 7.5 -9 q2.5 -5 2.5 -10 l0 -767 q0 -30 -9 -45.5 q-9 -15.5 -30 -23.5 q-18 -6 -49.5 -7.5 q-31.5 -1.5 -81.5 -2.5 q-9 0 -19 6.5 q-10 6.5 -13 14.5 q-4 14 5.5 25 q9.5 11 27.5 11 q32 -1 53.5 -1 q21.5 0 34.5 1 q12 1 16.5 5.5 q4.5 4.5 4.5 17.5 l0 738 l-250 0 q-6 0 -11.5 2 q-5.5 2 -10 6.5 q-4.5 4.5 -7.5 9 q-3 4.5 -3 10.5 ZM403.5 793.5 q-1.5 6.5 -0.5 13 q1 6.5 3.5 11 q2.5 4.5 7.5 7.5 q8 4 19 0.5 q11 -3.5 17 -12.5 q25 -34 49.5 -73.5 q24.5 -39.5 40.5 -70.5 q3 -5 3 -11 q0 -6 -1 -11.5 q-1 -5.5 -3.5 -10 q-2.5 -4.5 -7.5 -6.5 q-5 -3 -11 -3 q-6 0 -12 2 q-6 2 -11 6.5 q-5 4.5 -9 10.5 q-14 29 -35.5 65.5 q-21.5 36.5 -44.5 70.5 q-3 5 -4.5 11.5 ZM346 -45 l0 655 q0 6 2.5 11.5 q2.5 5.5 7 10 q4.5 4.5 9.5 7.5 q5 3 10 3 q6 0 11 -3 q5 -3 9 -7.5 q4 -4.5 6.5 -10 q2.5 -5.5 2.5 -11.5 l0 -655 q0 -5 -2.5 -11 q-2.5 -6 -6.5 -10.5 q-4 -4.5 -9 -7.5 q-5 -3 -11 -3 q-5 0 -10 3 q-5 3 -9.5 7.5 q-4.5 4.5 -7 10.5 q-2.5 6 -2.5 11 ZM53 396 q-5 7 -4.5 18.5 q0.5 11.5 6.5 18.5 q52 73 95.5 168.5 q43.5 95.5 73.5 197.5 q2 6 6 11 q4 5 9.5 8.5 q5.5 3.5 10.5 4.5 q5 1 11 0 q5 -1 9 -5 q4 -4 7 -9.5 q3 -5.5 3.5 -12 q0.5 -6.5 -1.5 -11.5 q-29 -97 -68 -187 l0 -641 q0 -7 -2 -13 q-2 -6 -6 -10.5 q-4 -4.5 -9 -7 q-5 -2.5 -10.5 -2.5 q-5.5 0 -10.5 2.5 q-5 2.5 -9.5 7 q-4.5 4.5 -6.5 10.5 q-2 6 -2 12 l0 526 q-26 -48 -54 -89 q-5 -6 -11 -10 q-6 -4 -13 -4 q-7 0 -12.5 3.5 q-5.5 3.5 -10.5 10.5 l0 2 l-1 1 Z" /><glyph glyph-name="uni4EF6" unicode="&#x4ef6;" d="M317 304 q0 5 2.5 10 q2.5 5 7 9.5 q4.5 4.5 10 7 q5.5 2.5 11.5 2.5 l262 0 l0 237 l-149 0 q-7 0 -14 3 q-3 1 -6 4 q-26 -77 -61 -137 q-3 -6 -8 -10 q-5 -4 -11 -5.5 q-6 -1.5 -11.5 -1.5 q-5.5 0 -10.5 3 q-10 6 -12 19.5 q-2 13.5 4 26.5 q35 57 59.5 130 q24.5 73 39.5 154 q2 6 5.5 11.5 q3.5 5.5 8.5 9 q5 3.5 10.5 5.5 q5.5 2 11.5 1 q5 -2 9.5 -5.5 q4.5 -3.5 7.5 -9 q3 -5.5 4 -11.5 q1 -6 -1 -12 q-12 -61 -29 -117 l153 0 l0 166 q0 6 2.5 11.5 q2.5 5.5 6.5 10 q4 4.5 9.5 7 q5.5 2.5 10.5 2.5 l2 0 q5 0 10 -2.5 q5 -2.5 9 -7 q4 -4.5 6.5 -10 q2.5 -5.5 2.5 -11.5 l0 -166 l205 0 q5 0 11 -2 q6 -2 10.5 -6.5 q4.5 -4.5 7 -9.5 q2.5 -5 2.5 -11 q0 -6 -2.5 -11 q-2.5 -5 -7 -9 q-4.5 -4 -10.5 -6.5 q-6 -2.5 -12 -2.5 l-204 0 l0 -237 l248 0 q6 0 11.5 -2.5 q5.5 -2.5 10 -7 q4.5 -4.5 7 -9.5 q2.5 -5 2.5 -10 q0 -6 -2.5 -11 q-2.5 -5 -7 -9 q-4.5 -4 -10 -7 q-5.5 -3 -11.5 -3 l-248 0 l0 -320 q0 -6 -2.5 -11.5 q-2.5 -5.5 -6.5 -10 q-4 -4.5 -9 -7 q-5 -2.5 -10 -2.5 l-2 0 q-5 0 -10.5 2.5 q-5.5 2.5 -9.5 7 q-4 4.5 -6.5 10 q-2.5 5.5 -2.5 11.5 l0 320 l-262 0 q-6 0 -11.5 3 q-5.5 3 -10 7 q-4.5 4 -7 9 q-2.5 5 -2.5 11 ZM52 405 q-6 9 -5 21.5 q1 12.5 9 20.5 q63 70 117.5 163.5 q54.5 93.5 92.5 195.5 q2 5 6.5 9 q4.5 4 9.5 6.5 q5 2.5 10.5 4 q5.5 1.5 10.5 -0.5 q6 -2 10.5 -6 q4.5 -4 6.5 -9.5 q2 -5.5 3 -12.5 q1 -7 -2 -12 q-39 -98 -89 -188 l0 -639 q0 -7 -2 -13 q-2 -6 -6.5 -10 q-4.5 -4 -9.5 -7 q-5 -3 -10.5 -3 q-5.5 0 -10.5 3 q-5 3 -9 7.5 q-4 4.5 -6.5 10 q-2.5 5.5 -2.5 11.5 l0 546 q-36 -54 -75 -101 q-5 -6 -11.5 -9 q-6.5 -3 -13 -2.5 q-6.5 0.5 -12.5 3.5 q-6 3 -10 9 q-1 1 -1 2 Z" /><glyph glyph-name="uni4EF7" unicode="&#x4ef7;" d="M731 -44 l0 465 q0 6 2.5 12 q2.5 6 7 10 q4.5 4 9.5 7 q5 3 10 3 l2 0 q6 0 11 -3 q5 -3 9 -7 q4 -4 6.5 -10 q2.5 -6 2.5 -12 l0 -465 q0 -5 -2.5 -11 q-2.5 -6 -6.5 -10.5 q-4 -4.5 -9 -7 q-5 -2.5 -11 -2.5 l-2 0 q-5 0 -10 2.5 q-5 2.5 -9.5 7 q-4.5 4.5 -7 10.5 q-2.5 6 -2.5 11 ZM309 -65 q-10 10 -8 24 q2 14 12 26 q46 38 72 80.5 q26 42.5 39 86 q13 43.5 16.5 85 q3.5 41.5 3.5 78.5 l0 106 q0 6 2.5 11.5 q2.5 5.5 7 10 q4.5 4.5 9.5 7 q5 2.5 11 2.5 l1 0 q6 0 11 -2.5 q5 -2.5 9 -7 q4 -4.5 6.5 -10 q2.5 -5.5 2.5 -11.5 l0 -106 q0 -41 -4.5 -88.5 q-4.5 -47.5 -20 -97 q-15.5 -49.5 -46.5 -99 q-31 -49.5 -83 -93.5 q-5 -4 -10.5 -6.5 q-5.5 -2.5 -11 -2.5 q-5.5 0 -11 2 q-5.5 2 -8.5 5 ZM283 431 q-8 10 -4 24.5 q4 14.5 18 22.5 q55 36 100.5 78 q45.5 42 83.5 86 q38 44 66 88.5 q28 44.5 48 84.5 q4 9 13.5 15 q9.5 6 19.5 5 l2 -1 q7 -1 12 -5 q5 -4 8 -10 q3 -6 3.5 -12.5 q0.5 -6.5 -2.5 -13.5 q-4 -7 -7 -13 q3 -3 6 -7 q24 -40 57 -79.5 q33 -39.5 69.5 -76.5 q36.5 -37 75.5 -68 q39 -31 78 -55 q13 -9 16 -24 q3 -15 -6 -25 q-2 -4 -7.5 -6 q-5.5 -2 -11 -2.5 q-5.5 -0.5 -11.5 0.5 q-6 1 -11 4 q-40 26 -80.5 60.5 q-40.5 34.5 -79.5 74.5 q-39 40 -74 83 q-27 35 -50 70 q-10 -16 -20 -31 q-32 -49 -72.5 -96 q-40.5 -47 -90 -91.5 q-49.5 -44.5 -107.5 -83.5 q-11 -6 -23.5 -5 q-12.5 1 -18.5 9 ZM58 408 q-6 9 -5.5 21.5 q0.5 12.5 8.5 20.5 q61 70 114.5 163.5 q53.5 93.5 90.5 195.5 q2 5 6.5 9 q4.5 4 9.5 7 q5 3 10.5 4 q5.5 1 9.5 0 q6 -2 10.5 -6 q4.5 -4 7 -10 q2.5 -6 3 -12.5 q0.5 -6.5 -2.5 -12.5 q-37 -98 -86 -188 l0 -644 q0 -7 -2.5 -12.5 q-2.5 -5.5 -7 -10.5 q-4.5 -5 -9.5 -7.5 q-5 -2.5 -11 -2.5 q-6 0 -11 2.5 q-5 2.5 -9 7.5 q-4 5 -6.5 10.5 q-2.5 5.5 -2.5 11.5 l0 544 q-34 -50 -69 -94 q-5 -7 -11.5 -9.5 q-6.5 -2.5 -13 -2 q-6.5 0.5 -12.5 3.5 q-6 3 -10 9 l0 2 l-1 0 Z" /><glyph glyph-name="uni4EFB" unicode="&#x4efb;" d="M301.5 366 q-2.5 5 -2.5 10.5 q0 5.5 2.5 10.5 q2.5 5 7 9 q4.5 4 10.5 6.5 q6 2.5 12 2.5 l274 0 l0 274 q0 3 1 7 q-47 -9 -95 -16 q-66 -10 -129 -18 q-12 -2 -22.5 3.5 q-10.5 5.5 -14.5 13.5 q-3 11 5.5 21.5 q8.5 10.5 24.5 12.5 q63 10 129 20.5 q66 10.5 128.5 23 q62.5 12.5 118.5 26.5 q56 14 98 28 q7 3 17 0.5 q10 -2.5 14 -7.5 l3 -3 q6 -6 7.5 -13 q1.5 -7 -0.5 -13.5 q-2 -6.5 -7 -11.5 q-5 -5 -13 -8 q-49 -15 -108 -28 q-50 -11 -103 -21 q1 -3 3 -6 q2 -6 2 -11 l0 -274 l263 0 q6 0 11.5 -2.5 q5.5 -2.5 10.5 -6.5 q5 -4 7.5 -9 q2.5 -5 2.5 -10.5 q0 -5.5 -2.5 -10.5 q-2.5 -5 -7.5 -9.5 q-5 -4.5 -10.5 -6.5 q-5.5 -2 -11.5 -2 l-263 0 l0 -310 q0 -5 -2 -11 l-3 -6 l251 0 q5 0 11 -2.5 q6 -2.5 10.5 -6.5 q4.5 -4 7 -9 q2.5 -5 2.5 -10.5 q0 -5.5 -2.5 -10.5 q-2.5 -5 -7 -9.5 q-4.5 -4.5 -10.5 -6.5 q-6 -2 -11 -2 l-542 0 q-5 0 -11 2 q-6 2 -10.5 6.5 q-4.5 4.5 -7 9.5 q-2.5 5 -2.5 10.5 q0 5.5 2.5 10.5 q2.5 5 7 9 q4.5 4 10.5 6.5 q6 2.5 11 2.5 l242 0 q-2 2 -3 6 q-2 6 -2 11 l0 310 l-274 0 q-6 0 -12 2 q-6 2 -10.5 6.5 q-4.5 4.5 -7 9.5 ZM42 399 q-7 9 -5 22.5 q2 13.5 9 21.5 q73 70 137.5 165.5 q64.5 95.5 109.5 200.5 q2 5 6.5 9.5 q4.5 4.5 9.5 7.5 q5 3 10.5 4 q5.5 1 10.5 -1 l2 -1 q5 -1 9.5 -5.5 q4.5 -4.5 6.5 -10 q2 -5.5 2.5 -12 q0.5 -6.5 -2.5 -12.5 q-42 -96 -97 -184 l0 -648 q0 -7 -2 -12.5 q-2 -5.5 -6.5 -10 q-4.5 -4.5 -9.5 -7.5 q-5 -3 -11 -3 q-6 0 -11 3 q-5 3 -9 7.5 q-4 4.5 -6.5 10.5 q-2.5 6 -2.5 11 l0 562 q-50 -67 -103 -123 q-5 -6 -11.5 -8.5 q-6.5 -2.5 -13 -2 q-6.5 0.5 -12.5 4 q-6 3.5 -10 8.5 q0 1 -0.5 1.5 q-0.5 0.5 -0.5 1.5 Z" /><glyph glyph-name="uni4EFD" unicode="&#x4efd;" d="M700 776 q-2 5 -1 11 q1 6 4 11.5 q3 5.5 7.5 9 q4.5 3.5 9.5 4.5 q10 3 19.5 -5 q9.5 -8 13.5 -19 q14 -54 32 -99.5 q18 -45.5 40.5 -84 q22.5 -38.5 50 -72.5 q27.5 -34 60.5 -65 q11 -10 13 -24.5 q2 -14.5 -6 -24.5 q-4 -4 -10 -6.5 q-6 -2.5 -12.5 -3 q-6.5 -0.5 -13 2 q-6.5 2.5 -12.5 7.5 q-35 35 -64.5 73 q-29.5 38 -53.5 81.5 q-24 43.5 -42.5 93.5 q-18.5 50 -34.5 110 ZM334 -60 q-9 10 -6 25 q3 15 16 26 q85 60 128.5 155.5 q43.5 95.5 58.5 229.5 q1 5 3 9 l-111 0 q-6 0 -11.5 2.5 q-5.5 2.5 -10 6.5 q-4.5 4 -7.5 9 q-3 5 -3 10 q0 6 3 11 q3 5 7.5 8.5 q4.5 3.5 10 6 q5.5 2.5 11.5 2.5 l392 0 q6 0 12 -2.5 q6 -2.5 10.5 -6 q4.5 -3.5 7 -8.5 q2.5 -5 2.5 -11 q0 -3 -1 -7 q-6 -113 -11 -192 q-6 -79 -13.5 -131.5 q-7.5 -52.5 -16.5 -81 q-9 -28.5 -21 -42.5 q-12 -15 -26.5 -21 q-14.5 -6 -34.5 -8 l-37 0 q-24 0 -51 1 q-10 0 -19.5 6.5 q-9.5 6.5 -11.5 14.5 q-4 14 4.5 24 q8.5 10 25.5 9 q11 -1 20 -1 q9 0 17.5 0 q8.5 0 15.5 -1 l13 0 q12 0 19.5 2 q7.5 2 15.5 11 q9 9 16 36 q7 27 14 78 q7 51 13 129 q5 63 9 146 l-199 0 q0 -1 1 -2 q1 -6 1 -12 q-19 -153 -70 -258.5 q-51 -105.5 -148 -174.5 q-4 -4 -9.5 -5 q-5.5 -1 -11 -0.5 q-5.5 0.5 -10 2.5 q-4.5 2 -7.5 5 ZM301.5 421.5 q-1.5 6.5 -0.5 13 q1 6.5 4 12.5 q3 6 7 11 q66 59 114 141.5 q48 82.5 78 182.5 q3 10 14 17.5 q11 7.5 21 5.5 q6 -1 11 -5 q5 -4 8 -9.5 q3 -5.5 4 -12 q1 -6.5 -1 -12.5 q-35 -109 -87.5 -199.5 q-52.5 -90.5 -121.5 -156.5 q-5 -6 -11.5 -8.5 q-6.5 -2.5 -13 -2 q-6.5 0.5 -12 3.5 q-5.5 3 -9.5 8 q-3 4 -4.5 10.5 ZM55 405 q-6 9 -5 21.5 q1 12.5 8 21.5 q60 69 111.5 163 q51.5 94 87.5 195 q2 5 6.5 9 q4.5 4 9.5 7 q5 3 10.5 4 q5.5 1 10.5 0 q6 -2 10 -6 q4 -4 7 -10 q3 -6 3 -12.5 q0 -6.5 -2 -11.5 q-36 -98 -84 -189 l0 -641 q0 -7 -2 -12.5 q-2 -5.5 -6.5 -10.5 q-4.5 -5 -9.5 -7.5 q-5 -2.5 -11 -2.5 q-6 0 -11 2.5 q-5 2.5 -9 7.5 q-4 5 -7 10.5 q-3 5.5 -3 11.5 l0 541 q-32 -50 -66 -94 q-5 -6 -11 -9 q-6 -3 -12.5 -2.5 q-6.5 0.5 -13 3.5 q-6.5 3 -10.5 9 l0 2 l-1 0 Z" /><glyph glyph-name="uni4EFF" unicode="&#x4eff;" d="M603 787 q-2 6 -1.5 12.5 q0.5 6.5 3.5 12 q3 5.5 7.5 10 q4.5 4.5 10.5 4.5 l3 1 q9 2 19 -4 q10 -6 13 -15 q10 -23 18.5 -48.5 q8.5 -25.5 14.5 -45.5 q2 -6 1.5 -12 q-0.5 -6 -3.5 -11.5 q-3 -5.5 -7 -9 q-4 -3.5 -9 -5.5 l-3 -1 q-6 -1 -11.5 0.5 q-5.5 1.5 -11 5 q-5.5 3.5 -9.5 8.5 q-4 5 -6 11 q-5 19 -12.5 42 q-7.5 23 -16.5 45 ZM313 -59 q-10 9 -8 23.5 q2 14.5 14 25.5 q59 50 94.5 117.5 q35.5 67.5 54.5 147.5 q19 80 25.5 167.5 q6.5 87.5 9.5 175.5 l0 3 l-149 0 q-5 0 -10.5 3 q-5.5 3 -10 7 q-4.5 4 -7.5 9 q-3 5 -3 10 q0 6 3 11 q3 5 7.5 9.5 q4.5 4.5 10 7 q5.5 2.5 10.5 2.5 l572 0 q6 0 11.5 -2.5 q5.5 -2.5 10 -7 q4.5 -4.5 7 -9.5 q2.5 -5 2.5 -11 q0 -5 -2.5 -10 q-2.5 -5 -7 -9 q-4.5 -4 -10 -7 q-5.5 -3 -11.5 -3 l-362 0 l0 -4 q-3 -81 -9 -160 l1 0 q6 3 13 3 l278 0 q6 0 12 -2.5 q6 -2.5 10.5 -6.5 q4.5 -4 7 -9 q2.5 -5 2.5 -10 q0 -3 -1 -6 q-5 -113 -11 -192 q-5 -80 -12 -131.5 q-7 -51.5 -15 -80 q-8 -28.5 -20 -41.5 q-13 -16 -28.5 -21.5 q-15.5 -5.5 -38.5 -7.5 q-13 -2 -34 -2 q-5 0 -22 0.5 q-17 0.5 -48 2.5 q-10 0 -20 7 q-10 7 -12 14 q-4 15 6 24 q10 9 27 9 q2 0 4 0 q13 0 24 -0.5 q11 -0.5 20 -1 q9 -0.5 17 -0.5 l16 0 q12 -1 19.5 0.5 q7.5 1.5 13.5 7.5 l3 4 l4 3 q9 11 15.5 38 q6.5 27 12 76.5 q5.5 49.5 10.5 126.5 q4 60 7 143 l-247 0 q-7 0 -13 2 q-3 1 -5 3 q-9 -86 -28 -164 q-22 -85 -61.5 -157.5 q-39.5 -72.5 -106.5 -125.5 q-4 -4 -10 -6 q-6 -2 -12 -2 q-6 0 -11 1.5 q-5 1.5 -9 5.5 ZM53 407 q-6 9 -5 21.5 q1 12.5 8 20.5 q63 70 116.5 163.5 q53.5 93.5 91.5 194.5 q2 5 6 9.5 q4 4.5 9.5 7 q5.5 2.5 11 3.5 q5.5 1 11.5 0 q6 -2 10 -6.5 q4 -4.5 6.5 -10 q2.5 -5.5 3 -12 q0.5 -6.5 -2.5 -12.5 q-38 -99 -89 -191 l0 -637 q0 -7 -2.5 -12.5 q-2.5 -5.5 -7 -10 q-4.5 -4.5 -9.5 -7.5 q-5 -3 -10.5 -3 q-5.5 0 -10.5 3 q-5 3 -9 7.5 q-4 4.5 -6.5 10 q-2.5 5.5 -2.5 11.5 l0 541 q-34 -51 -71 -95 q-5 -6 -11.5 -9 q-6.5 -3 -13 -2.5 q-6.5 0.5 -12.5 3.5 q-6 3 -9 9 q-1 1 -1 1.5 q0 0.5 -1 1.5 Z" /><glyph glyph-name="uni4F01" unicode="&#x4f01;" d="M81 -19 q0 6 2.5 10.5 q2.5 4.5 7 8.5 q4.5 4 10.5 6 q6 2 12 2 l102 0 q-1 4 -1 7 l0 340 q0 7 2.5 12.5 q2.5 5.5 7 10.5 q4.5 5 9.5 7.5 q5 2.5 10.5 2.5 q5.5 0 11 -2.5 q5.5 -2.5 9.5 -7.5 q4 -5 6 -10.5 q2 -5.5 2 -12.5 l0 -340 q0 -3 -1 -7 l208 0 l0 528 q0 7 2 12.5 q2 5.5 6.5 10 q4.5 4.5 10 7 q5.5 2.5 10.5 2.5 l3 0 q6 0 11 -2.5 q5 -2.5 9 -7 q4 -4.5 6.5 -10 q2.5 -5.5 2.5 -12.5 l0 -206 l267 0 q5 0 11 -2 q6 -2 10.5 -6 q4.5 -4 7 -9 q2.5 -5 2.5 -10 q0 -5 -2.5 -10 q-2.5 -5 -7 -9 q-4.5 -4 -10.5 -6.5 q-6 -2.5 -11 -2.5 l-267 0 l0 -267 l362 0 q5 0 11 -2 q6 -2 10.5 -6 q4.5 -4 7 -8.5 q2.5 -4.5 2.5 -10 q0 -5.5 -2.5 -10.5 q-2.5 -5 -7 -9 q-4.5 -4 -10.5 -6.5 q-6 -2.5 -11 -2.5 l-789 0 q-6 0 -12 2.5 q-6 2.5 -10.5 6.5 q-4.5 4 -7 9 q-2.5 5 -2.5 10 ZM66 443 q-10 12 -5.5 25.5 q4.5 13.5 20.5 21.5 q61 29 119.5 65.5 q58.5 36.5 111 79.5 q52.5 43 97.5 91 q45 48 80 98 q6 8 17 12 q11 4 20 0 q6 -3 9.5 -8.5 q3.5 -5.5 5 -11.5 q1.5 -6 0 -12.5 q-1.5 -6.5 -6.5 -12.5 q-1 -1 -2 -3 q4 -2 6 -4 q82 -100 179.5 -170 q97.5 -70 206.5 -124 q17 -8 21.5 -22 q4.5 -14 -3.5 -26 q-3 -3 -7.5 -5.5 q-4.5 -2.5 -10 -3.5 q-5.5 -1 -11.5 -0.5 q-6 0.5 -11 2.5 q-112 58 -212 132 q-100 73 -189 180 q-24 -31 -52 -61 q-48 -51 -103 -97 q-55 -46 -116 -85 q-61 -39 -125 -69 q-5 -2 -10.5 -2.5 q-5.5 -0.5 -11 0.5 q-5.5 1 -10 4 q-4.5 3 -7.5 6 Z" /><glyph glyph-name="uni4F11" unicode="&#x4f11;" d="M288 83 q-2 6 -1 13 q1 7 4 14 q3 7 8 12 q39 34 76 79.5 q37 45.5 71 98.5 q34 53 63 111 q26 54 47 109 l-224 0 q-6 0 -12 2.5 q-6 2.5 -10.5 6.5 q-4.5 4 -7 9 q-2.5 5 -2.5 10.5 q0 5.5 2.5 10.5 q2.5 5 7 9.5 q4.5 4.5 10.5 7 q6 2.5 12 2.5 l260 0 l0 214 q0 6 2.5 11.5 q2.5 5.5 7 10 q4.5 4.5 9.5 7.5 q5 3 11 3 q6 0 11 -3 q5 -3 9 -7.5 q4 -4.5 6.5 -10 q2.5 -5.5 2.5 -11.5 l0 -214 l269 0 q5 0 11 -2.5 q6 -2.5 10.5 -7 q4.5 -4.5 7 -9.5 q2.5 -5 2.5 -10.5 q0 -5.5 -2.5 -10.5 q-2.5 -5 -7 -9 q-4.5 -4 -10.5 -6.5 q-6 -2.5 -11 -2.5 l-229 0 q21 -54 49 -106 q30 -58 64 -110.5 q34 -52.5 71 -97.5 q37 -45 73 -79 q10 -11 11 -25 q1 -14 -8 -23 q-4 -4 -10 -6.5 q-6 -2.5 -12.5 -2 q-6.5 0.5 -12.5 3 q-6 2.5 -11 7.5 q-37 36 -74.5 85.5 q-37.5 49.5 -72.5 106 q-35 56.5 -65 117.5 q-23 47 -42 93 l0 -529 q0 -6 -2.5 -11.5 q-2.5 -5.5 -6.5 -10 q-4 -4.5 -9 -7 q-5 -2.5 -11 -2.5 q-6 0 -11 2.5 q-5 2.5 -9.5 7 q-4.5 4.5 -7 10 q-2.5 5.5 -2.5 11.5 l0 512 q-16 -41 -36 -82 q-30 -63 -65 -119.5 q-35 -56.5 -74 -105.5 q-39 -49 -79 -86 q-5 -5 -10.5 -7.5 q-5.5 -2.5 -11.5 -2.5 q-6 0 -12 2 q-6 2 -10 7 q-4 5 -6 11 ZM40 398 q-7 9 -4.5 22 q2.5 13 10.5 21 q74 69 138 163 q64 94 108 199 q5 10 16.5 16 q11.5 6 21.5 3 l2 0 q6 -2 10 -6 q4 -4 6.5 -10 q2.5 -6 2.5 -12.5 q0 -6.5 -3 -12.5 q-42 -98 -99 -187 l0 -636 q0 -6 -2 -12 q-2 -6 -6 -10.5 q-4 -4.5 -9 -7 q-5 -2.5 -11 -2.5 q-6 0 -11 2.5 q-5 2.5 -9.5 7 q-4.5 4.5 -7 10.5 q-2.5 6 -2.5 12 l0 552 q-49 -65 -103 -119 q-5 -6 -11.5 -8 q-6.5 -2 -13 -1.5 q-6.5 0.5 -12.5 4 q-6 3.5 -9 9.5 l-2 3 Z" /><glyph glyph-name="uni4F17" unicode="&#x4f17;" d="M453 -61 q-12 9 -11.5 24 q0.5 15 13.5 27 q87 75 130 188 q43 113 59 264 q1 7 4.5 12 q3.5 5 8 9 q4.5 4 10 6.5 q5.5 2.5 10.5 2.5 l1 0 q6 0 11 -4 q5 -4 8.5 -9 q3.5 -5 5 -11 q1.5 -6 0.5 -11 q-6 -56 -15 -106 l2 -2 q5 -5 7 -12 q13 -41 32 -84.5 q19 -43.5 45.5 -84.5 q26.5 -41 60.5 -78 q34 -37 76 -65 q14 -10 17.5 -25 q3.5 -15 -6.5 -27 q-2 -4 -7 -6.5 q-5 -2.5 -11 -3 q-6 -0.5 -11.5 0.5 q-5.5 1 -10.5 5 q-48 33 -86 76 q-38 43 -67 90.5 q-29 47.5 -49 96.5 q-7 16 -12 31 q-15 -52 -34 -97 q-25 -61 -60 -112 q-35 -51 -82 -92 q-3 -4 -8.5 -6 q-5.5 -2 -11 -2.5 q-5.5 -0.5 -10.5 0.5 q-5 1 -9 5 ZM79 442 q-10 14 -6 28.5 q4 14.5 21 21.5 q129 49 231 131.5 q102 82.5 160 191.5 q6 9 18.5 14 q12.5 5 22.5 2 l2 -1 q5 -3 9 -7.5 q4 -4.5 5.5 -10 q1.5 -5.5 1.5 -12 q0 -6.5 -4 -11.5 q-5 -11 -11 -21 q4 -3 7 -8 q30 -42 71.5 -81.5 q41.5 -39.5 90 -74 q48.5 -34.5 103 -63 q54.5 -28.5 110.5 -46.5 q17 -7 22 -22 q5 -15 -5 -29 q-5 -6 -16 -10 q-11 -4 -20 0 q-58 20 -115 51 q-57 31 -109 70 q-52 39 -96 84 q-40 41 -72 85 q-56 -80 -135 -146 q-109 -91 -248 -147 q-4 -2 -10 -2 q-6 0 -11.5 1.5 q-5.5 1.5 -10 4.5 q-4.5 3 -6.5 7 ZM75.5 -43.5 q-2.5 6.5 -2.5 13 q0 6.5 3 14 q3 7.5 8 13.5 q86 76 133 190 q47 114 67 262 q0 6 3.5 11.5 q3.5 5.5 8.5 9 q5 3.5 10 6 q5 2.5 11 1.5 q6 0 11 -3.5 q5 -3.5 8.5 -8.5 q3.5 -5 5 -11 q1.5 -6 1.5 -11 q-10 -71 -26 -134 q7 -1 12 -5 q23 -19 46 -38.5 q23 -19.5 44.5 -39 q21.5 -19.5 41 -38.5 q19.5 -19 35.5 -35 q3 -3 4.5 -8.5 q1.5 -5.5 1.5 -11 q0 -5.5 -1.5 -11 q-1.5 -5.5 -5.5 -8.5 q-5 -5 -11 -7 q-6 -2 -13 -1.5 q-7 0.5 -13 3.5 q-6 3 -11 8 q-13 16 -31 34 q-18 18 -37.5 36.5 q-19.5 18.5 -40.5 37.5 q-18 15 -35 30 q-16 -53 -35 -99 q-52 -121 -144 -206 q-3 -4 -8.5 -6 q-5.5 -2 -11.5 -3 q-6 -1 -11.5 0.5 q-5.5 1.5 -9.5 4.5 q-5 4 -7.5 10.5 Z" /><glyph glyph-name="uni4F18" unicode="&#x4f18;" d="M718.5 764.5 q-2.5 6.5 -3 12.5 q-0.5 6 1.5 11.5 q2 5.5 7 8.5 q6 5 17 3.5 q11 -1.5 18 -9.5 q27 -25 55.5 -54 q28.5 -29 48.5 -52 q7 -9 6.5 -21.5 q-0.5 -12.5 -8.5 -18.5 q-4 -3 -10 -4 q-6 -1 -12 0.5 q-6 1.5 -12 4.5 q-6 3 -10 8 q-17 22 -41.5 48.5 q-24.5 26.5 -49.5 50.5 q-5 5 -7.5 11.5 ZM642 43 l0 381 q0 6 2 11.5 q2 5.5 6.5 10 q4.5 4.5 10 7 q5.5 2.5 10.5 2.5 q6 0 11 -2.5 q5 -2.5 9 -7 q4 -4.5 6.5 -10 q2.5 -5.5 2.5 -11.5 l0 -381 q0 -22 6.5 -29 q6.5 -7 31.5 -7 l115 0 q10 0 17 4 q7 4 11 15 q4 11 6.5 31.5 q2.5 20.5 3.5 52.5 q2 19 12 28.5 q10 9.5 25 3.5 q7 -3 12 -12.5 q5 -9.5 5 -18.5 q-3 -47 -7.5 -77.5 q-4.5 -30.5 -14 -49 q-9.5 -18.5 -25 -25.5 q-15.5 -7 -41.5 -7 l-125 0 q-26 0 -43.5 4 q-17.5 4 -28 14.5 q-10.5 10.5 -14.5 28 q-4 17.5 -4 44.5 ZM289 569 q0 5 2.5 10 q2.5 5 7 9 q4.5 4 10.5 6 q6 2 12 2 l204 0 q4 100 4 197 q0 6 3 12 q3 6 7 10.5 q4 4.5 9 7 q5 2.5 11 2.5 q6 0 11 -2.5 q5 -2.5 9.5 -7 q4.5 -4.5 6.5 -10.5 q2 -6 2 -12 q0 -97 -5 -197 l333 0 q6 0 12 -2 q6 -2 10.5 -6 q4.5 -4 7 -9 q2.5 -5 2.5 -10.5 q0 -5.5 -2.5 -10.5 q-2.5 -5 -7 -9 q-4.5 -4 -10.5 -6.5 q-6 -2.5 -12 -2.5 l-335 0 q-7 -114 -30 -219 q-23 -112 -71 -208.5 q-48 -96.5 -132 -164.5 q-4 -4 -9.5 -5.5 q-5.5 -1.5 -11 -1.5 q-5.5 0 -10.5 2 q-5 2 -9 5 q-9 10 -7 24.5 q2 14.5 15 25.5 q76 64 118.5 155.5 q42.5 91.5 63.5 196.5 q18 92 24 190 l-201 0 q-6 0 -12 2.5 q-6 2.5 -10.5 6.5 q-4.5 4 -7 9 q-2.5 5 -2.5 11 ZM57 407 q-5 8 -4 21 q1 13 8 21 q63 69 117 162.5 q54 93.5 93 195.5 q2 5 6 9 q4 4 9 7 q5 3 11 4 q6 1 11 -1 q6 -1 10 -5.5 q4 -4.5 6.5 -10 q2.5 -5.5 3 -12 q0.5 -6.5 -2.5 -11.5 q-41 -105 -95 -201 l0 -631 q0 -6 -2.5 -12 q-2.5 -6 -6.5 -10.5 q-4 -4.5 -9 -7 q-5 -2.5 -10.5 -2.5 q-5.5 0 -10.5 2.5 q-5 2.5 -9 7.5 q-4 5 -6.5 10.5 q-2.5 5.5 -2.5 11.5 l0 538 q-33 -48 -68 -89 q-5 -6 -11.5 -9 q-6.5 -3 -12.5 -3 q-6 0 -12.5 3.5 q-6.5 3.5 -10.5 9.5 l0 1 l-1 1 Z" /><glyph glyph-name="uni4F19" unicode="&#x4f19;" d="M789 376.5 q-2 5.5 -2 11.5 q0 6 2 11 q11 24 24 51 q13 27 25 55.5 q12 28.5 23 56.5 q11 28 19 54 q2 6 6 11.5 q4 5.5 10 9 q6 3.5 11.5 4 q5.5 0.5 11.5 -0.5 l3 -1 q6 -1 10 -5.5 q4 -4.5 6.5 -10.5 q2.5 -6 3 -12.5 q0.5 -6.5 -0.5 -11.5 q-23 -56 -49.5 -115.5 q-26.5 -59.5 -50.5 -106.5 q-2 -5 -7 -9 q-5 -4 -10 -6.5 q-5 -2.5 -10 -3 q-5 -0.5 -9 1.5 q-6 2 -10 6.5 q-4 4.5 -6 10 ZM340.5 360 q-1.5 6 -2 13 q-0.5 7 2.5 13 q21 46 36.5 106 q15.5 60 24.5 118 q1 6 4 11.5 q3 5.5 8 10 q5 4.5 10.5 6.5 q5.5 2 11.5 0 q4 0 8.5 -3.5 q4.5 -3.5 7.5 -8 q3 -4.5 5 -10 q2 -5.5 1 -10.5 q-8 -62 -24 -128 q-16 -66 -40 -118 q-1 -5 -5.5 -9 q-4.5 -4 -10 -7 q-5.5 -3 -11.5 -3 q-6 0 -10 2 l-2 0 q-5 2 -9 6.5 q-4 4.5 -5.5 10.5 ZM316 -56 q-9 11 -5 24.5 q4 13.5 18 22.5 q102 50 157 124.5 q55 74.5 80 174 q25 99.5 29.5 226 q4.5 126.5 4.5 282.5 q0 6 2.5 12 q2.5 6 7 10.5 q4.5 4.5 9.5 7 q5 2.5 11 2.5 l3 0 q6 0 11 -2.5 q5 -2.5 9 -7 q4 -4.5 6.5 -10.5 q2.5 -6 2.5 -12 q0 -164 -6 -299 q-2 -36 -5 -70 q3 -5 4 -9 q11 -80 31.5 -146 q20.5 -66 53 -119.5 q32.5 -53.5 78 -93 q45.5 -39.5 106.5 -64.5 q15 -8 20.5 -22.5 q5.5 -14.5 -4.5 -27.5 q-2 -4 -6.5 -6.5 q-4.5 -2.5 -10 -4 q-5.5 -1.5 -11 -1 q-5.5 0.5 -10.5 2.5 q-68 28 -119 72 q-51 44 -87 103.5 q-36 59.5 -59 134.5 l-10 34 q-3 -13 -6 -25 q-29 -107 -91 -186.5 q-62 -79.5 -175 -132.5 q-5 -3 -10.5 -3.5 q-5.5 -0.5 -11 0 q-5.5 0.5 -10 3.5 q-4.5 3 -7.5 6 ZM55 410 q-6 9 -4.5 21.5 q1.5 12.5 8.5 20.5 q63 69 117.5 161.5 q54.5 92.5 93.5 193.5 q3 5 7 9.5 q4 4.5 9 7 q5 2.5 10.5 3.5 q5.5 1 11.5 -1 q6 -2 10 -6 q4 -4 6.5 -9.5 q2.5 -5.5 3 -12 q0.5 -6.5 -2.5 -12.5 q-38 -97 -88 -186 l0 -643 q0 -7 -2.5 -12.5 q-2.5 -5.5 -6.5 -10.5 q-4 -5 -9.5 -7.5 q-5.5 -2.5 -10.5 -2.5 l-3 0 q-5 0 -10.5 2.5 q-5.5 2.5 -9.5 7.5 q-4 5 -6.5 10.5 q-2.5 5.5 -2.5 11.5 l0 545 q-34 -52 -72 -96 q-5 -6 -11.5 -9 q-6.5 -3 -13.5 -2.5 q-7 0.5 -13 4 q-6 3.5 -10 9.5 l0 2 l-1 1 Z" /><glyph glyph-name="uni4F1A" unicode="&#x4f1a;" d="M262 496 q0 5 3 10 q3 5 7.5 9 q4.5 4 10 6.5 q5.5 2.5 12.5 2.5 l415 0 q7 0 12.5 -2.5 q5.5 -2.5 10 -6.5 q4.5 -4 7.5 -9 q3 -5 3 -10 q0 -6 -3 -11 q-3 -5 -7.5 -8.5 q-4.5 -3.5 -10 -6 q-5.5 -2.5 -12.5 -2.5 l-415 0 q-7 0 -12.5 2.5 q-5.5 2.5 -10 6 q-4.5 3.5 -7.5 8.5 q-3 5 -3 11 ZM89 303 q0 5 3 10 q3 5 7.5 9.5 q4.5 4.5 10 7 q5.5 2.5 11.5 2.5 l764 0 q6 0 12 -2.5 q6 -2.5 10.5 -7 q4.5 -4.5 7 -9.5 q2.5 -5 2.5 -10.5 q0 -5.5 -2.5 -10.5 q-2.5 -5 -7 -9 q-4.5 -4 -10.5 -6.5 q-6 -2.5 -12 -2.5 l-425 0 q0 -5 -1 -9 q-1 -6 -5 -11 q-58 -77 -121 -146 q-41 -46 -83 -85 l492 40 q-21 26 -45 51 q-25 28 -51 52 q-5 6 -7.5 13 q-2.5 7 -2 13.5 q0.5 6.5 4 12 q3.5 5.5 9.5 8.5 q6 3 15.5 1.5 q9.5 -1.5 15.5 -6.5 q29 -26 57 -55 q28 -29 53.5 -58.5 q25.5 -29.5 48.5 -58 q23 -28.5 40 -53.5 q3 -5 4 -11 q1 -6 -0.5 -11.5 q-1.5 -5.5 -4.5 -11 q-3 -5.5 -7 -7.5 l-1 -1 q-5 -3 -11.5 -3.5 q-6.5 -0.5 -12.5 1.5 q-6 2 -11.5 5.5 q-5.5 3.5 -9.5 8.5 q-15 23 -36 51 q-3 4 -7 9 q-5 -2 -11 -3 q-150 -13 -251.5 -22 q-101.5 -9 -167 -15.5 q-65.5 -6.5 -101 -10 q-35.5 -3.5 -55.5 -6.5 q-7 -2 -15 -0.5 q-8 1.5 -13 5.5 q-3 1 -5 3 q-6 2 -11 6 q-5 4 -7 10 q-1 5 0 11.5 q1 6.5 4.5 13 q3.5 6.5 8.5 12 q5 5.5 11 10.5 q4 3 6.5 4.5 q2.5 1.5 6 5 q3.5 3.5 9.5 9 q6 5.5 18 17.5 q11 10 32.5 33 q21.5 23 48 53.5 q26.5 30.5 55.5 66.5 q22 28 42 58 l-267 0 q-6 0 -11.5 2.5 q-5.5 2.5 -10 6.5 q-4.5 4 -7.5 9 q-3 5 -3 11 ZM77 454 q-10 11 -6 26 q4 15 20 23 q129 62 233.5 142 q104.5 80 167.5 171 q6 7 17.5 10 q11.5 3 20.5 -1 q7 -2 11 -7.5 q4 -5.5 6 -12 q2 -6.5 1 -13.5 q-1 -7 -6 -12 q-3 -3 -5 -6 q29 -33 69 -68 q41 -36 90.5 -71 q49.5 -35 105 -66.5 q55.5 -31.5 113.5 -55.5 q16 -6 20 -20.5 q4 -14.5 -5 -26.5 q-6 -8 -18 -11 q-12 -3 -21 1 q-59 25 -117 60 q-58 35 -110 73.5 q-52 38.5 -95 77.5 q-37 34 -66 65 q-61 -73 -143 -136 q-109 -85 -243 -150 q-5 -2 -11 -2.5 q-6 -0.5 -11.5 0.5 q-5.5 1 -10 4 q-4.5 3 -7.5 6 Z" /><glyph glyph-name="uni4F1F" unicode="&#x4f1f;" d="M302 308 q0 5 2.5 10 q2.5 5 7 9 q4.5 4 10 6 q5.5 2 11.5 2 l251 0 l0 129 l-195 0 q-6 0 -11.5 3 q-5.5 3 -10 6.5 q-4.5 3.5 -7.5 8.5 q-3 5 -3 10 q0 6 3 11 q3 5 7.5 9 q4.5 4 10 6.5 q5.5 2.5 11.5 2.5 l195 0 l0 123 l-219 0 q-6 0 -12 2.5 q-6 2.5 -10.5 6.5 q-4.5 4 -7 9 q-2.5 5 -2.5 10 q0 6 2.5 11 q2.5 5 7 9 q4.5 4 10.5 6 q6 2 12 2 l219 0 l0 104 q0 6 2.5 12 q2.5 6 6.5 10.5 q4 4.5 9.5 7 q5.5 2.5 11 2.5 q5.5 0 10.5 -2.5 q5 -2.5 9 -7 q4 -4.5 6.5 -10.5 q2.5 -6 2.5 -12 l0 -104 l240 0 q6 0 12 -2 q6 -2 10.5 -6 q4.5 -4 7 -9 q2.5 -5 2.5 -11 q0 -5 -2.5 -10 q-2.5 -5 -7 -9 q-4.5 -4 -10.5 -6.5 q-6 -2.5 -12 -2.5 l-240 0 l0 -123 l212 0 q6 0 11.5 -2.5 q5.5 -2.5 10 -6.5 q4.5 -4 7.5 -9 q3 -5 3 -11 q0 -5 -3 -10 q-3 -5 -7.5 -8.5 q-4.5 -3.5 -10 -6.5 q-5.5 -3 -11.5 -3 l-212 0 l0 -129 l270 0 q4 -1 7 -2 q5 -2 9 -5 q4 -3 6 -8 l2 -2 q2 -5 2 -10 q0 -5 -2 -10 q-3 -62 -7 -107 q-5 -49 -10 -81 q-5 -32 -12 -50.5 q-7 -18.5 -15 -27.5 q-10 -10 -21.5 -15 q-11.5 -5 -28.5 -6 q-9 -2 -24.5 -1.5 q-15.5 0.5 -32.5 0.5 q-6 0 -10.5 2 q-4.5 2 -9 5 q-4.5 3 -7.5 6 q-3 3 -4 7 q-3 14 3 23 q6 9 19 9 q15 -2 25 -2 l19 0 q10 0 16 2 q6 2 11 7 q6 7 10.5 23 q4.5 16 9 46.5 q4.5 30.5 9.5 76.5 q2 28 5 64 l-239 0 l0 -323 q0 -6 -2.5 -12 q-2.5 -6 -6.5 -10.5 q-4 -4.5 -9 -7 q-5 -2.5 -10.5 -2.5 q-5.5 0 -11 2.5 q-5.5 2.5 -9.5 7 q-4 4.5 -6.5 10.5 q-2.5 6 -2.5 12 l0 323 l-251 0 q-6 0 -11.5 2.5 q-5.5 2.5 -10 6.5 q-4.5 4 -7 9 q-2.5 5 -2.5 11 ZM60 405 q-5 9 -4 21.5 q1 12.5 8 20.5 q63 70 117 163.5 q54 93.5 93 194.5 q2 5 6 9.5 q4 4.5 9 7 q5 2.5 10.5 4 q5.5 1.5 10.5 -0.5 q6 -2 10 -6 q4 -4 6.5 -9.5 q2.5 -5.5 3 -12 q0.5 -6.5 -2.5 -12.5 q-39 -102 -92 -196 l0 -634 q0 -7 -2 -12.5 q-2 -5.5 -6.5 -10 q-4.5 -4.5 -9.5 -7.5 q-5 -3 -10.5 -3 q-5.5 0 -10.5 3 q-5 3 -9 7.5 q-4 4.5 -6.5 10 q-2.5 5.5 -2.5 11.5 l0 541 q-33 -49 -70 -93 q-5 -6 -11.5 -9 q-6.5 -3 -12.5 -2.5 q-6 0.5 -12.5 3.5 q-6.5 3 -10.5 9 l0 2 l-1 0 Z" /><glyph glyph-name="uni4F20" unicode="&#x4f20;" d="M290 499 q0 6 3 10.5 q3 4.5 7 9 q4 4.5 10 6.5 q6 2 12 2 l176 0 q4 15 9 31 q15 51 29 103 l-157 0 q-6 0 -11.5 2.5 q-5.5 2.5 -10 6.5 q-4.5 4 -7 9 q-2.5 5 -2.5 10 q0 5 2.5 10 q2.5 5 7 9.5 q4.5 4.5 10 6.5 q5.5 2 11.5 2 l173 0 q12 47 23 89 q2 5 5 10 q3 5 7.5 8 q4.5 3 10 5 q5.5 2 10.5 1 q6 -1 10.5 -5 q4.5 -4 8 -9 q3.5 -5 4.5 -12 q1 -7 0 -13 q-10 -35 -20 -74 l264 0 q6 0 11.5 -2 q5.5 -2 10 -6.5 q4.5 -4.5 7 -9.5 q2.5 -5 2.5 -10 q0 -5 -2.5 -10 q-2.5 -5 -7 -9 q-4.5 -4 -10 -6.5 q-5.5 -2.5 -11.5 -2.5 l-280 0 q-17 -63 -35 -125 q-1 -4 -2 -9 l360 0 q6 0 12 -2 q6 -2 10.5 -6.5 q4.5 -4.5 7 -9 q2.5 -4.5 2.5 -10.5 q0 -5 -2.5 -10 q-2.5 -5 -7 -9 q-4.5 -4 -10.5 -6.5 q-6 -2.5 -12 -2.5 l-377 0 q-9 -30 -17 -59 q-12 -39 -23 -73 l309 0 q6 0 12 -2 l1 0 q1 1 2 1 q2 1 5 1 q2 0 3.5 0.5 q1.5 0.5 3.5 0.5 q3 2 8.5 1 q5.5 -1 8.5 -3 l2 -2 q6 -3 9 -9 q3 -6 4 -12.5 q1 -6.5 -1 -12.5 q-2 -6 -6 -11 q-23 -27 -48.5 -56.5 q-25.5 -29.5 -52 -60.5 q-26.5 -31 -54.5 -62 q-21 -24 -42 -47 q23 -18 44 -35 q25 -21 45 -40 q5 -4 7 -10 q2 -6 2.5 -12 q0.5 -6 -2 -12 q-2.5 -6 -6.5 -10 q-4 -5 -10.5 -6.5 q-6.5 -1.5 -12.5 -2 q-6 -0.5 -12 2 q-6 2.5 -10 6.5 q-18 18 -41.5 38.5 q-23.5 20.5 -49.5 41.5 q-26 21 -53.5 42 q-27.5 21 -55.5 39 q-7 4 -10.5 10 q-3.5 6 -4 12.5 q-0.5 6.5 2 13 q2.5 6.5 7.5 10.5 q6 4 15.5 4.5 q9.5 0.5 16.5 -2.5 q30 -19 60 -40 q12 -9 24 -17 q25 27 51 56 q28 33 55 64 q27 31 51 60 q2 3 5 6 l-282 0 q-6 0 -12 2 q-5 2 -9 5 l-1 -1 q-8 -6 -17 -6 l-2 0 q-8 0 -14 3 q-6 3 -10 8.5 q-4 5.5 -4.5 13 q-0.5 7.5 1.5 15.5 q17 49 36 109 l12 38 l-159 0 q-6 0 -12 2.5 q-6 2.5 -10 6.5 q-4 4 -7 9 q-3 5 -3 10 ZM35 405 q-6 9 -4 21.5 q2 12.5 9 21.5 q67 69 125 162.5 q58 93.5 99 195.5 q2 5 6.5 9 q4.5 4 9.5 6.5 q5 2.5 10.5 4 q5.5 1.5 10.5 -0.5 q5 -2 9.5 -6 q4.5 -4 7 -9.5 q2.5 -5.5 3 -12.5 q0.5 -7 -1.5 -12 q-41 -98 -95 -188 l0 -639 q0 -7 -2 -12.5 q-2 -5.5 -6 -10 q-4 -4.5 -9 -7.5 q-5 -3 -11 -3 q-6 0 -11 3 q-5 3 -9.5 7.5 q-4.5 4.5 -6.5 10 q-2 5.5 -2 11.5 l0 551 q-41 -58 -84 -106 q-6 -7 -12.5 -9.5 q-6.5 -2.5 -13 -2 q-6.5 0.5 -12 3.5 q-5.5 3 -9.5 9 l0 2 l-1 0 Z" /><glyph glyph-name="uni4F24" unicode="&#x4f24;" d="M320.5 501 q-2.5 6 -2.5 12.5 q0 6.5 2.5 13.5 q2.5 7 7.5 13 q49 52 89 121 q40 69 68 146 q2 5 6 9 q4 4 8.5 7.5 q4.5 3.5 10.5 5 q6 1.5 10 0.5 q6 -2 11 -6 q5 -4 7.5 -9.5 q2.5 -5.5 3.5 -12 q1 -6.5 -2 -12.5 q-20 -54 -44 -104 l399 0 q6 0 12 -2 q6 -2 10.5 -6 q4.5 -4 7 -9 q2.5 -5 2.5 -10.5 q0 -5.5 -2.5 -10.5 q-2.5 -5 -7 -9 q-4.5 -4 -10.5 -6.5 q-6 -2.5 -12 -2.5 l-415 0 q-6 0 -12 2 l-1 1 q-1 -1 -1 -2 q-44 -75 -95 -132 q-4 -5 -9.5 -7.5 q-5.5 -2.5 -11.5 -3.5 q-6 -1 -12 0 q-6 1 -10 4 q-5 4 -7.5 10 ZM323 -61 q-9 11 -5 25 q4 14 18 24 q72 43 116 104 q44 61 68 133 q23 67 32 142 l-179 0 q-5 0 -10.5 2.5 q-5.5 2.5 -10 6.5 q-4.5 4 -7.5 8.5 q-3 4.5 -3 10.5 q0 5 3 10 q3 5 7.5 9.5 q4.5 4.5 10 6.5 q5.5 2 10.5 2 l185 0 q6 60 9 121 q0 6 2.5 11.5 q2.5 5.5 7 10 q4.5 4.5 9.5 7 q5 2.5 11 2.5 q6 0 11.5 -2.5 q5.5 -2.5 9.5 -7 q4 -4.5 6.5 -10.5 q2.5 -6 1.5 -13 q-3 -60 -9 -119 l254 0 q6 0 11 -2 l4 -2 l6 -4 q4 -4 7 -9 l2 -4 q1 -3 1 -7 q0 -3 -1 -5 q-3 -105 -7 -178 q-4 -74 -10 -122.5 q-6 -48.5 -13 -75 q-7 -26.5 -18 -39.5 q-13 -15 -28 -20.5 q-15 -5.5 -38 -7.5 q-19 -1 -50.5 -1 q-31.5 0 -67.5 3 q-10 -1 -19.5 6 q-9.5 7 -11.5 14 q-3 14 7 23 q10 9 26 9 q2 0 4 0 q16 -1 29 -1.5 q13 -0.5 24 -1 q11 -0.5 20 -0.5 l16 0 q15 0 24 2 q9 2 15 10 q9 9 15 34 q6 25 11 72 q5 47 9 119 q3 57 5 132 l-232 0 q0 -4 -1 -7 q-12 -89 -40 -168 q-28 -79 -77.5 -144.5 q-49.5 -65.5 -131.5 -111.5 q-4 -3 -9.5 -4 q-5.5 -1 -11 -0.5 q-5.5 0.5 -9.5 2.5 q-4 2 -8 5 ZM37 408 q-6 8 -4.5 20.5 q1.5 12.5 9.5 20.5 q66 70 124.5 163.5 q58.5 93.5 99.5 195.5 q2 5 6.5 9 q4.5 4 9.5 6.5 q5 2.5 10.5 4 q5.5 1.5 10.5 -0.5 q5 -2 10 -6 q5 -4 7.5 -9.5 q2.5 -5.5 3 -12 q0.5 -6.5 -2.5 -12.5 q-42 -101 -97 -194 l0 -635 q0 -7 -2.5 -13 q-2.5 -6 -6 -10 q-3.5 -4 -8.5 -7 q-5 -3 -11 -3 q-6 0 -10.5 3 q-4.5 3 -9 7.5 q-4.5 4.5 -7 10 q-2.5 5.5 -2.5 11.5 l0 549 q-39 -56 -82 -103 q-5 -6 -11.5 -9 q-6.5 -3 -13 -2.5 q-6.5 0.5 -12.5 4 q-6 3.5 -10 10.5 l0 1 q-1 0 -1 1 Z" /><glyph glyph-name="uni4F2A" unicode="&#x4f2a;" d="M621.5 343 q-1.5 6 -0.5 12.5 q1 6.5 4 11.5 q3 5 9 8 q7 4 17.5 1.5 q10.5 -2.5 17.5 -10.5 q28 -30 56 -65 q28 -35 45 -64 q3 -5 3.5 -10.5 q0.5 -5.5 -1 -10.5 q-1.5 -5 -4 -9.5 q-2.5 -4.5 -6.5 -7.5 l-1 0 q-5 -4 -11.5 -4 q-6.5 0 -13 2 q-6.5 2 -11.5 6 q-5 4 -9 10 q-16 26 -40 58 q-24 32 -49 60 q-4 6 -5.5 12 ZM365.5 733.5 q-1.5 6.5 -0.5 12.5 q1 6 4.5 11.5 q3.5 5.5 9.5 8.5 q7 3 17.5 0 q10.5 -3 16.5 -10 q21 -23 40.5 -47 q19.5 -24 32.5 -45 q3 -5 3.5 -10.5 q0.5 -5.5 -1 -11 q-1.5 -5.5 -4.5 -10 q-3 -4.5 -8 -6.5 q-5 -3 -11.5 -3 q-6.5 0 -12.5 2 q-6 2 -11 6.5 q-5 4.5 -8 9.5 q-12 18 -28.5 39.5 q-16.5 21.5 -33.5 40.5 q-4 6 -5.5 12.5 ZM293 -49 q-10 10 -8.5 24.5 q1.5 14.5 14.5 25.5 q62 47 105 108 q43 61 72 130 q29 69 46 143 q15 66 23 133 l-200 0 q-6 0 -12 2.5 q-6 2.5 -10.5 6.5 q-4.5 4 -7 9 q-2.5 5 -2.5 11 q0 6 2.5 11 q2.5 5 7 9.5 q4.5 4.5 10.5 6.5 q6 2 12 2 l206 0 q4 50 6 98 q3 69 3 128 q0 6 2.5 11.5 q2.5 5.5 6.5 10 q4 4.5 9.5 7 q5.5 2.5 10.5 2.5 l2 0 q6 0 11 -3 q5 -3 9.5 -7.5 q4.5 -4.5 6.5 -10 q2 -5.5 2 -11.5 q-1 -64 -4 -138 q-1 -43 -5 -87 l275 0 q7 0 13 -2 q6 -2 10 -7 l4 -4 q0 -1 1 -2 q1 -1 2 -3 q3 -5 3 -11 q0 -2 -1 -5 q-6 -147 -12 -248 q-6 -101 -13.5 -167 q-7.5 -66 -17.5 -102 q-10 -36 -23 -52 q-15 -18 -31 -25 q-16 -7 -41 -9 q-13 -1 -31 -1 q-9 0 -31 0.5 q-22 0.5 -58 2.5 q-10 0 -19 7 q-9 7 -12 15 q-3 15 7 25 q10 10 29 10 q15 -2 28.5 -2.5 q13.5 -0.5 25.5 -0.5 l39 0 q14 0 23.5 2 q9.5 2 17.5 12 q11 11 20 45.5 q9 34.5 16 99 q7 64.5 13 165.5 q5 84 9 199 l-253 0 l0 -7 q-10 -77 -29 -155 q-19 -78 -50 -150.5 q-31 -72.5 -78 -136.5 q-47 -64 -114 -114 q-4 -4 -9.5 -5.5 q-5.5 -1.5 -11 -2 q-5.5 -0.5 -11 1 q-5.5 1.5 -8.5 5.5 ZM44 410 q-6 8 -4.5 21 q1.5 13 8.5 21 q66 69 124 161 q58 92 98 193 q2 5 6.5 9 q4.5 4 10 6.5 q5.5 2.5 11 4 q5.5 1.5 10.5 -0.5 q5 -2 10 -6 q5 -4 7.5 -9.5 q2.5 -5.5 3 -12.5 q0.5 -7 -2.5 -12 q-41 -97 -94 -186 l0 -641 q0 -6 -2 -12 q-2 -6 -6.5 -10.5 q-4.5 -4.5 -9.5 -7 q-5 -2.5 -10.5 -2.5 q-5.5 0 -10.5 2.5 q-5 2.5 -9 7 q-4 4.5 -6.5 10.5 q-2.5 6 -2.5 11 l0 553 q-40 -56 -82 -104 q-6 -6 -12.5 -9 q-6.5 -3 -13 -2.5 q-6.5 0.5 -12.5 4 q-6 3.5 -10 9.5 q0 1 -0.5 1 q-0.5 0 -0.5 1 Z" /><glyph glyph-name="uni4F30" unicode="&#x4f30;" d="M443 24 l391 0 l0 252 q0 2 -2 4 q-2 2 -5 2 l-377 0 q-3 0 -5 -2 q-2 -2 -2 -4 l0 -252 ZM325.5 573 q-2.5 5 -2.5 10.5 q0 5.5 2.5 10.5 q2.5 5 7 9 q4.5 4 10 6.5 q5.5 2.5 11.5 2.5 l251 0 l0 193 q0 6 2.5 11.5 q2.5 5.5 7 10 q4.5 4.5 9.5 7.5 q5 3 11 3 l2 0 q6 0 11 -3 q5 -3 9 -7.5 q4 -4.5 6 -10 q2 -5.5 2 -11.5 l0 -193 l261 0 q6 0 11.5 -2.5 q5.5 -2.5 10 -6.5 q4.5 -4 7 -9 q2.5 -5 2.5 -10.5 q0 -5.5 -2.5 -10.5 q-2.5 -5 -7 -9.5 q-4.5 -4.5 -10 -6.5 q-5.5 -2 -11.5 -2 l-261 0 l0 -216 l198 0 q6 0 11.5 -2.5 q5.5 -2.5 10 -7 q4.5 -4.5 7 -10.5 q2.5 -6 2.5 -13 l0 -346 q0 -6 -2.5 -12 q-2.5 -6 -6.5 -10.5 q-4 -4.5 -9 -7 q-5 -2.5 -11 -2.5 l-2 0 q-5 0 -10 2.5 q-5 2.5 -9.5 7 q-4.5 4.5 -7 10 q-2.5 5.5 -2.5 11.5 l0 8 l-391 0 l0 -12 q0 -6 -2 -11.5 q-2 -5.5 -7 -10 q-5 -4.5 -10 -7 q-5 -2.5 -10 -2.5 q-6 0 -11 2.5 q-5 2.5 -9.5 7 q-4.5 4.5 -7 10.5 q-2.5 6 -2.5 12 l0 351 q0 6 2.5 12 q2.5 6 7 10.5 q4.5 4.5 10 7 q5.5 2.5 11.5 2.5 l190 0 l0 216 l-251 0 q-6 0 -11.5 2 q-5.5 2 -10 6.5 q-4.5 4.5 -7 9.5 ZM35 405 q-5 9 -3 21.5 q2 12.5 9 21.5 q66 69 124.5 162.5 q58.5 93.5 98.5 195.5 q2 5 6.5 9 q4.5 4 9.5 6.5 q5 2.5 11 4 q6 1.5 10 -0.5 q6 -2 10 -6 q4 -4 7 -9.5 q3 -5.5 3 -12.5 q0 -7 -2 -12 q-41 -99 -95 -190 l0 -637 q0 -7 -2.5 -13 q-2.5 -6 -6 -10 q-3.5 -4 -8.5 -7 q-5 -3 -11 -3 q-6 0 -10.5 3 q-4.5 3 -9 7.5 q-4.5 4.5 -7 10 q-2.5 5.5 -2.5 11.5 l0 551 q-40 -58 -84 -106 q-5 -7 -11.5 -9.5 q-6.5 -2.5 -13 -2 q-6.5 0.5 -12.5 3.5 q-6 3 -9 9 q-1 1 -1 1.5 q0 0.5 -1 0.5 Z" /><glyph glyph-name="uni4F34" unicode="&#x4f34;" d="M747.5 575 q-1.5 6 -1 12.5 q0.5 6.5 3.5 11.5 q21 35 42 79 q21 44 38 82 q2 6 6.5 11 q4.5 5 10 8 q5.5 3 12 3.5 q6.5 0.5 12.5 -1.5 q5 -1 9 -6.5 q4 -5.5 6 -11 q2 -5.5 2 -12 q0 -6.5 -3 -12.5 q-20 -42 -44 -86.5 q-24 -44.5 -46 -80.5 q-5 -9 -15.5 -13.5 q-10.5 -4.5 -18.5 -0.5 q-5 2 -8.5 6.5 q-3.5 4.5 -5 10.5 ZM369 733 q-3 6 -3 12.5 q0 6.5 1.5 12.5 q1.5 6 5.5 11 q4 5 9 7 q8 4 18.5 -1 q10.5 -5 15.5 -15 q24 -39 44.5 -83.5 q20.5 -44.5 31.5 -78.5 q4 -9 -1 -19.5 q-5 -10.5 -13 -14.5 q-6 -3 -13 -2 q-7 1 -12.5 4 q-5.5 3 -10 8.5 q-4.5 5.5 -7.5 12.5 q-11 32 -28.5 71.5 q-17.5 39.5 -37.5 74.5 ZM292 240 q0 6 3 11 q3 5 7.5 9 q4.5 4 10.5 6 q6 2 11 2 l266 0 l0 191 l-224 0 q-5 0 -11 2.5 q-6 2.5 -10.5 6.5 q-4.5 4 -7 8.5 q-2.5 4.5 -2.5 10.5 q0 5 2.5 10 q2.5 5 7 9.5 q4.5 4.5 10.5 6.5 q6 2 11 2 l224 0 l0 280 q0 5 2.5 10.5 q2.5 5.5 7 10 q4.5 4.5 9.5 7 q5 2.5 10 2.5 l2 0 q5 0 10.5 -2.5 q5.5 -2.5 9.5 -7 q4 -4.5 6 -10 q2 -5.5 2 -10.5 l0 -280 l236 0 q12 0 22 -8.5 q10 -8.5 10 -19.5 q0 -6 -2.5 -10.5 q-2.5 -4.5 -7 -8.5 q-4.5 -4 -10.5 -6.5 q-6 -2.5 -12 -2.5 l-236 0 l0 -191 l278 0 q6 0 11.5 -2 q5.5 -2 10 -6 q4.5 -4 7.5 -9 q3 -5 3 -11 q0 -5 -3 -10 q-3 -5 -7.5 -9 q-4.5 -4 -10 -6.5 q-5.5 -2.5 -11.5 -2.5 l-278 0 l0 -258 q0 -5 -2 -10.5 q-2 -5.5 -6 -10 q-4 -4.5 -9.5 -7 q-5.5 -2.5 -10.5 -2.5 l-2 0 q-5 0 -10 2.5 q-5 2.5 -9.5 7 q-4.5 4.5 -7 10 q-2.5 5.5 -2.5 10.5 l0 258 l-266 0 q-5 0 -11 2.5 q-6 2.5 -10.5 6.5 q-4.5 4 -7.5 9 q-3 5 -3 10 ZM38 408 q-6 9 -4 22 q2 13 9 21 q68 69 128 161.5 q60 92.5 102 193.5 q3 6 7.5 10 q4.5 4 9.5 6.5 q5 2.5 10.5 3.5 q5.5 1 9.5 -1 q6 -1 10 -5.5 q4 -4.5 7 -10 q3 -5.5 3 -12 q0 -6.5 -2 -12.5 q-41 -93 -93 -179 l0 -648 q0 -6 -2.5 -12 q-2.5 -6 -6.5 -10.5 q-4 -4.5 -9 -7 q-5 -2.5 -10.5 -2.5 q-5.5 0 -10.5 2.5 q-5 2.5 -9 7 q-4 4.5 -6.5 10.5 q-2.5 6 -2.5 12 l0 560 q-45 -62 -93 -114 q-5 -6 -11 -8.5 q-6 -2.5 -13 -2 q-7 0.5 -13 4 q-6 3.5 -9 9.5 l-1 1 Z" /><glyph glyph-name="uni4F38" unicode="&#x4f38;" d="M656 469 l216 0 q3 0 6 -1 l0 149 q0 2 -2 4 q-2 2 -4 2 l-216 0 l0 -154 ZM656 257 l222 0 l0 158 l-222 0 l0 -158 ZM382 467 q6 2 11 2 l205 0 l0 154 l-210 0 q-2 0 -4 -2 q-2 -2 -2 -4 l0 -150 ZM382 254 q1 0 3 1 q5 2 11 2 l202 0 l0 158 l-205 0 q-5 0 -11 2 l0 -163 ZM326 181 l0 465 q0 6 3 12 q3 6 7.5 10.5 q4.5 4.5 10 7 q5.5 2.5 12.5 2.5 l239 0 l0 123 q0 5 2 10.5 q2 5.5 6.5 10 q4.5 4.5 10 7.5 q5.5 3 11 3 q5.5 0 10.5 -3 q5 -3 9 -7.5 q4 -4.5 6.5 -10 q2.5 -5.5 2.5 -10.5 l0 -123 l247 0 q7 0 12.5 -2.5 q5.5 -2.5 10 -7 q4.5 -4.5 7.5 -10.5 q3 -6 3 -11 l0 -460 q0 -6 -2.5 -11.5 q-2.5 -5.5 -6.5 -10 q-4 -4.5 -9 -7.5 q-5 -3 -10.5 -3 q-5.5 0 -11 3 q-5.5 3 -10 7.5 q-4.5 4.5 -6.5 10.5 q-2 6 -2 12 l0 14 l-222 0 l0 -247 q0 -6 -2.5 -11.5 q-2.5 -5.5 -6.5 -10 q-4 -4.5 -9 -7 q-5 -2.5 -10.5 -2.5 q-5.5 0 -11 2.5 q-5.5 2.5 -10 7 q-4.5 4.5 -6.5 10 q-2 5.5 -2 11.5 l0 247 l-202 0 q-6 0 -11 2 q-2 0 -3 1 l0 -25 q0 -6 -2 -11.5 q-2 -5.5 -6 -10 q-4 -4.5 -9 -7 q-5 -2.5 -10.5 -2.5 q-5.5 0 -10.5 2.5 q-5 2.5 -9 7 q-4 4.5 -6.5 10.5 q-2.5 6 -2.5 12 ZM34 405 q-6 9 -4 21.5 q2 12.5 9 21.5 q67 69 125 162.5 q58 93.5 99 195.5 q2 5 6.5 9 q4.5 4 9.5 6.5 q5 2.5 10.5 4 q5.5 1.5 10.5 -0.5 q5 -2 9.5 -6 q4.5 -4 7 -9.5 q2.5 -5.5 3 -12.5 q0.5 -7 -1.5 -12 q-41 -97 -94 -187 l0 -640 q0 -7 -2.5 -13 q-2.5 -6 -6 -10 q-3.5 -4 -8.5 -7 q-5 -3 -11 -3 q-6 0 -10.5 3 q-4.5 3 -9 7.5 q-4.5 4.5 -7 10 q-2.5 5.5 -2.5 11.5 l0 553 q-41 -59 -85 -108 q-6 -7 -12.5 -9.5 q-6.5 -2.5 -13 -2 q-6.5 0.5 -12 3.5 q-5.5 3 -9.5 9 l0 2 l-1 0 Z" /><glyph glyph-name="uni4F3C" unicode="&#x4f3c;" d="M552 -49 q-10 9 -9 24 q1 15 13 26 q72 58 117 135 q45 77 71.5 174 q26.5 97 39 214 q12.5 117 17.5 255 q0 6 3 11.5 q3 5.5 7 9.5 q4 4 9.5 7 q5.5 3 11.5 3 q6 0 11.5 -3.5 q5.5 -3.5 9.5 -8 q4 -4.5 6 -10 q2 -5.5 2 -11.5 q-7 -147 -21 -270 q-11 -101 -33 -188 q9 -5 13 -13 q20 -37 39.5 -77 q19.5 -40 37.5 -79 q18 -39 33 -75 q15 -36 26 -66 q3 -8 -1.5 -19.5 q-4.5 -11.5 -13.5 -15.5 q-6 -3 -13 -3 q-7 0 -13 3 q-6 3 -11 8 q-5 5 -7 12 q-11 30 -25.5 65 q-14.5 35 -31 73 q-16.5 38 -34.5 76 q-10 20 -19 39 q-27 -81 -66 -148 q-48 -82 -123 -147 q-5 -4 -11 -6.5 q-6 -2.5 -12.5 -2.5 q-6.5 0 -12.5 2 q-6 2 -10 6 ZM505 694 q-2 6 -2.5 12.5 q-0.5 6.5 1 12.5 q1.5 6 5.5 10.5 q4 4.5 9 6.5 q4 1 9 0.5 q5 -0.5 10 -3 q5 -2.5 9.5 -6 q4.5 -3.5 6.5 -9.5 q17 -31 34 -64.5 q17 -33.5 32 -67 q15 -33.5 27 -65.5 q12 -32 21 -59 q3 -10 -2 -21 q-5 -11 -14 -14 q-6 -3 -12 -2.5 q-6 0.5 -12 4.5 q-6 4 -10.5 9.5 q-4.5 5.5 -5.5 11.5 q-8 26 -19.5 56 q-11.5 30 -25 62 q-13.5 32 -29 64 q-15.5 32 -32.5 62 ZM349 57 q-3 4 -3.5 10.5 q-0.5 6.5 0.5 13 q1 6.5 2.5 13 q1.5 6.5 4.5 12.5 q3 5 5.5 7.5 q2.5 2.5 4 8 q1.5 5.5 2.5 14.5 q1 9 1 25 l0 576 q0 5 2 11 q2 6 6.5 10.5 q4.5 4.5 10 7 q5.5 2.5 11 2.5 q5.5 0 10.5 -2.5 q5 -2.5 9 -7 q4 -4.5 6 -10.5 q2 -6 2 -11 l0 -590 l159 109 q7 4 14 5.5 q7 1.5 13 0 q6 -1.5 11 -6 q5 -4.5 7 -11.5 q2 -7 -2 -17 q-4 -10 -12 -15 q-46 -33 -80.5 -57.5 q-34.5 -24.5 -59 -42.5 q-24.5 -18 -40.5 -30 q-16 -12 -27 -20 q-7 -6 -15 -8 q-3 -1 -5 -1 q-1 -1 -2 -1 q-6 -4 -12.5 -4.5 q-6.5 -0.5 -12.5 2 q-6 2.5 -10 7.5 ZM33 396 q-5 7 -4 19 q1 12 7 19 q59 72 110 167.5 q51 95.5 86 199.5 q2 6 6 10.5 q4 4.5 8.5 7.5 q4.5 3 10 4.5 q5.5 1.5 10.5 -0.5 q6 -1 10 -5 q4 -4 7 -9.5 q3 -5.5 3 -12 q0 -6.5 -2 -11.5 q-29 -87 -69 -168 l0 -662 q0 -6 -2 -11.5 q-2 -5.5 -6 -10.5 q-4 -5 -9 -7.5 q-5 -2.5 -10.5 -2.5 q-5.5 0 -10.5 2.5 q-5 2.5 -9.5 7.5 q-4.5 5 -6.5 10.5 q-2 5.5 -2 12.5 l0 555 q-38 -64 -79 -118 q-5 -7 -11.5 -10.5 q-6.5 -3.5 -13 -3.5 q-6.5 0 -12.5 3.5 q-6 3.5 -9 9.5 q-1 1 -1.5 2 q-0.5 1 -0.5 2 Z" /><glyph glyph-name="uni4F46" unicode="&#x4f46;" d="M455 498 q0 -2 2 -4 q2 -2 4 -2 l345 0 q2 0 4 2 q2 2 2 4 l0 203 q0 2 -2 4 q-2 2 -4 2 l-345 0 q-2 0 -4 -2 q-2 -2 -2 -4 l0 -203 ZM455 224 q0 -2 2 -4 q2 -2 4 -2 l345 0 q2 0 4 2 q2 2 2 4 l0 206 q0 2 -2 4 q-2 2 -4 2 l-345 0 q-2 0 -4 -2 q-2 -2 -2 -4 l0 -206 ZM394 194 l0 537 q0 6 2.5 12 q2.5 6 7.5 10.5 q5 4.5 10.5 7 q5.5 2.5 11.5 2.5 l417 0 q6 0 12 -2.5 q6 -2.5 10.5 -7 q4.5 -4.5 7 -10.5 q2.5 -6 2.5 -12 l0 -537 q0 -6 -2.5 -11.5 q-2.5 -5.5 -7 -10.5 q-4.5 -5 -10.5 -7.5 q-6 -2.5 -12 -2.5 l-417 0 q-6 0 -11.5 2.5 q-5.5 2.5 -10.5 7.5 q-5 5 -7.5 10.5 q-2.5 5.5 -2.5 11.5 ZM304 -5 q0 5 3 10 q3 5 7 9 q4 4 10 6 q6 2 12 2 l597 0 q6 0 12 -2 q6 -2 10.5 -6 q4.5 -4 7 -9 q2.5 -5 2.5 -10 q0 -6 -2.5 -11 q-2.5 -5 -7 -9 q-4.5 -4 -10.5 -6.5 q-6 -2.5 -12 -2.5 l-597 0 q-6 0 -12 2.5 q-6 2.5 -10 6.5 q-4 4 -7 9 q-3 5 -3 11 ZM46 405 q-6 9 -4 22 q2 13 9 21 q67 70 125.5 163 q58.5 93 100.5 195 q2 5 6 9 q4 4 9.5 6.5 q5.5 2.5 11 3.5 q5.5 1 10.5 0 l1 0 q5 -2 9.5 -6.5 q4.5 -4.5 7 -10 q2.5 -5.5 3 -12 q0.5 -6.5 -2.5 -12.5 q-41 -97 -94 -187 l0 -639 q0 -7 -2 -12.5 q-2 -5.5 -6.5 -10 q-4.5 -4.5 -9.5 -7.5 q-5 -3 -11 -3 q-6 0 -11 3 q-5 3 -9 7.5 q-4 4.5 -7 10 q-3 5.5 -3 11.5 l0 549 q-40 -57 -85 -106 q-5 -6 -11.5 -9 q-6.5 -3 -13 -2.5 q-6.5 0.5 -12 4 q-5.5 3.5 -9.5 9.5 l-1 2 q-1 0 -1 1 Z" /><glyph glyph-name="uni4F4D" unicode="&#x4f4d;" d="M587 794 q-2 6 -1.5 12.5 q0.5 6.5 3 12 q2.5 5.5 7 10 q4.5 4.5 10.5 5.5 q10 3 21 -3.5 q11 -6.5 14 -16.5 q10 -26 18.5 -52.5 q8.5 -26.5 15.5 -48.5 q1 -6 0 -12 q-1 -6 -3.5 -10.5 q-2.5 -4.5 -6.5 -8.5 q-4 -4 -9 -6 q-6 -2 -12.5 -0.5 q-6.5 1.5 -12 5 q-5.5 3.5 -9.5 8.5 q-4 5 -6 11 q-5 21 -12.5 45.5 q-7.5 24.5 -16.5 48.5 ZM445 480 q-1 5 0 11 q1 6 4 11 q3 5 7.5 9 q4.5 4 9.5 5 q5 1 10.5 -0.5 q5.5 -1.5 10 -5.5 q4.5 -4 8.5 -9 q4 -5 5 -11 q11 -47 21 -97.5 q10 -50.5 19 -99.5 q9 -49 16 -93.5 q7 -44.5 11 -80.5 q1 -10 -5 -20 q-6 -10 -15 -13 l-1 0 q-7 -2 -13.5 -0.5 q-6.5 1.5 -12 5 q-5.5 3.5 -9 9.5 q-3.5 6 -4.5 13 q-4 37 -10.5 81.5 q-6.5 44.5 -14.5 93 q-8 48.5 -17 97.5 q-9 49 -20 95 ZM371 622 q0 5 2.5 10 q2.5 5 7 9 q4.5 4 10.5 6.5 q6 2.5 12 2.5 l475 0 q7 0 12.5 -2.5 q5.5 -2.5 10 -6.5 q4.5 -4 7.5 -9 q3 -5 3 -10.5 q0 -5.5 -3 -10.5 q-3 -5 -7.5 -9.5 q-4.5 -4.5 -10 -6.5 q-5.5 -2 -12.5 -2 l-475 0 q-6 0 -12 2 q-6 2 -10.5 6.5 q-4.5 4.5 -7 9.5 q-2.5 5 -2.5 11 ZM328.5 -16 q-2.5 5 -2.5 10.5 q0 5.5 2.5 10.5 q2.5 5 7 9 q4.5 4 10 6.5 q5.5 2.5 11.5 2.5 l329 0 q-2 4 -2 9 q-1 7 1 12 q12 47 25 104.5 q13 57.5 25 117.5 q12 60 22.5 119.5 q10.5 59.5 18.5 111.5 q1 7 4.5 12.5 q3.5 5.5 8.5 9 q5 3.5 11 5.5 q6 2 12 1 l1 0 q6 -1 10.5 -4.5 q4.5 -3.5 8 -8.5 q3.5 -5 5 -11 q1.5 -6 0.5 -12 q-9 -55 -21 -115.5 q-12 -60.5 -25 -121 q-13 -60.5 -27 -118 q-14 -57.5 -27 -104.5 q-1 -4 -3 -7 l189 0 q6 0 11.5 -2.5 q5.5 -2.5 10 -6.5 q4.5 -4 7 -9 q2.5 -5 2.5 -10.5 q0 -5.5 -2.5 -10.5 q-2.5 -5 -7 -9.5 q-4.5 -4.5 -10 -6.5 q-5.5 -2 -11.5 -2 l-566 0 q-6 0 -11.5 2 q-5.5 2 -10 6.5 q-4.5 4.5 -7 9.5 ZM56 405 q-6 9 -4 21.5 q2 12.5 9 21.5 q67 69 125 162.5 q58 93.5 99 195.5 q2 5 6.5 9 q4.5 4 9.5 6.5 q5 2.5 10.5 4 q5.5 1.5 10.5 -0.5 q6 -2 10 -6 q4 -4 6.5 -9.5 q2.5 -5.5 3 -12.5 q0.5 -7 -2.5 -12 q-40 -97 -93 -186 l0 -641 q0 -7 -2 -12.5 q-2 -5.5 -6 -10 q-4 -4.5 -9 -7.5 q-5 -3 -11 -3 l-1 0 q-6 0 -11 3 q-5 3 -9.5 7.5 q-4.5 4.5 -6.5 10 q-2 5.5 -2 11.5 l0 550 q-40 -57 -84 -105 q-5 -7 -11.5 -9.5 q-6.5 -2.5 -13 -2 q-6.5 0.5 -12.5 3.5 q-6 3 -9 9 q-1 1 -1 1.5 q0 0.5 -1 0.5 Z" /><glyph glyph-name="uni4F4E" unicode="&#x4f4e;" d="M598 96 q-3 6 -4 12.5 q-1 6.5 1 12 q2 5.5 5.5 10 q3.5 4.5 7.5 5.5 q7 3 16.5 -2.5 q9.5 -5.5 13.5 -14.5 q20 -32 39 -67.5 q19 -35.5 32 -65.5 q4 -10 0 -21.5 q-4 -11.5 -12 -14.5 q-5 -2 -10.5 -1 q-5.5 1 -10.5 4 q-5 3 -9 8 q-4 5 -6 11 q-11 28 -28 60.5 q-17 32.5 -35 63.5 ZM436 445 l1 0 q5 3 11 3 l224 0 q-12 128 -18 270 l0 5 q-1 -1 -2 -1 q-56 -11 -112 -21 q-53 -10 -104 -18 l0 -238 ZM350 -52 q-1 4 -0.5 10.5 q0.5 6.5 2.5 13 q2 6.5 5 13 q3 6.5 6 11.5 q2 2 5 2.5 q3 0.5 5.5 3 q2.5 2.5 4 8.5 q1.5 6 1.5 20 l0 658 q0 7 3 13 q3 6 8 11 q1 1 3 2 q1 3 4 6 q9 11 26 14 q56 9 112.5 20 q56.5 11 110 22.5 q53.5 11.5 101 24.5 q47.5 13 84.5 26 q5 3 14 1 q9 -2 14 -6 l4 -4 q7 -6 9.5 -13 q2.5 -7 1 -13.5 q-1.5 -6.5 -6 -11.5 q-4.5 -5 -12.5 -8 q-45 -14 -96 -26 q-26 -6 -53 -12 l2 -4 q3 -5 3 -11 q5 -144 17 -271 l190 0 q6 0 11.5 -2.5 q5.5 -2.5 10 -6.5 q4.5 -4 7 -8.5 q2.5 -4.5 2.5 -10.5 q0 -5 -2.5 -10 q-2.5 -5 -7 -9.5 q-4.5 -4.5 -10 -6.5 q-5.5 -2 -11.5 -2 l-184 0 q12 -99 29 -177 q20 -97 48 -154 q28 -57 64 -59 l1 0 q12 0 20 27 q8 27 14 78 q6 3 10.5 9 q4.5 6 8.5 10.5 q4 4.5 9 6.5 q5 2 11 -1 q5 -3 8.5 -12.5 q3.5 -9.5 1.5 -17.5 q-7 -49 -15.5 -81.5 q-8.5 -32.5 -19 -52.5 q-10.5 -20 -22.5 -28 q-12 -8 -27 -8 q-56 2 -95 64 q-39 62 -65 169 q-23 98 -37 227 l-230 0 q-6 0 -11 2 q-1 0 -1 1 l0 -389 l114 30 q8 2 15 1 q7 -1 12 -4 q5 -3 9 -7.5 q4 -4.5 4 -9.5 q0 -8 -7.5 -16.5 q-7.5 -8.5 -18.5 -11.5 q-69 -21 -104.5 -32 q-35.5 -11 -53.5 -17 q-9 -3 -17 -3 q-6 0 -12 1 l-8 0 q-13 1 -19 11 ZM37 399 q-5 8 -3.5 20.5 q1.5 12.5 8.5 20.5 q66 71 124 166 q58 95 98 198 q2 6 6.5 10 q4.5 4 9.5 7 q5 3 10.5 4.5 q5.5 1.5 10.5 -0.5 q5 -2 9.5 -6 q4.5 -4 7 -9.5 q2.5 -5.5 3 -12 q0.5 -6.5 -1.5 -11.5 q-39 -97 -90 -186 l0 -642 q0 -7 -2.5 -12.5 q-2.5 -5.5 -6.5 -10 q-4 -4.5 -9 -7.5 q-5 -3 -10.5 -3 q-5.5 0 -10.5 3 q-5 3 -9.5 7.5 q-4.5 4.5 -6.5 10 q-2 5.5 -2 11.5 l0 551 q-42 -61 -87 -113 q-5 -6 -11.5 -9 q-6.5 -3 -13 -3 q-6.5 0 -12.5 3.5 q-6 3.5 -9 9.5 q-1 1 -1 1.5 q0 0.5 -1 1.5 Z" /><glyph glyph-name="uni4F4F" unicode="&#x4f4f;" d="M568 788 q-4 6 -4.5 13 q-0.5 7 1 13 q1.5 6 6 11 q4.5 5 10.5 7 q4 2 9 1.5 q5 -0.5 10 -2 q5 -1.5 9 -5 q4 -3.5 6 -6.5 q20 -29 38 -60.5 q18 -31.5 29 -56.5 q2 -5 2 -11 q0 -6 -2 -11 q-2 -5 -6 -9.5 q-4 -4.5 -8 -6.5 l-1 0 q-6 -2 -12.5 -2 q-6.5 0 -12.5 3 q-6 3 -10.5 8 q-4.5 5 -7.5 12 q-10 22 -25.5 49 q-15.5 27 -30.5 53 ZM312.5 -23 q-2.5 5 -2.5 10.5 q0 5.5 2.5 10.5 q2.5 5 7 9 q4.5 4 10.5 6.5 q6 2.5 12 2.5 l267 0 l0 272 l-206 0 q-6 0 -12 2.5 q-6 2.5 -10.5 6.5 q-4.5 4 -7 9 q-2.5 5 -2.5 10.5 q0 5.5 2.5 10.5 q2.5 5 7 9 q4.5 4 10.5 6 q6 2 12 2 l206 0 l0 238 l-240 0 q-6 0 -12 2 q-6 2 -10.5 6.5 q-4.5 4.5 -7 9.5 q-2.5 5 -2.5 10 q0 6 2.5 11 q2.5 5 7 9 q4.5 4 10.5 6 q6 2 12 2 l542 0 q7 0 13 -2 q6 -2 10.5 -6 q4.5 -4 7 -9 q2.5 -5 2.5 -10.5 q0 -5.5 -2.5 -10.5 q-2.5 -5 -7 -9.5 q-4.5 -4.5 -10.5 -6.5 q-6 -2 -13 -2 l-242 0 l0 -238 l213 0 q6 0 12 -2 q6 -2 10.5 -6 q4.5 -4 7 -9 q2.5 -5 2.5 -10.5 q0 -5.5 -2.5 -10.5 q-2.5 -5 -7 -9 q-4.5 -4 -10.5 -6.5 q-6 -2.5 -12 -2.5 l-213 0 l0 -272 l258 0 q6 0 12 -2.5 q6 -2.5 10.5 -6.5 q4.5 -4 7 -9 q2.5 -5 2.5 -10.5 q0 -5.5 -2.5 -10.5 q-2.5 -5 -7 -9.5 q-4.5 -4.5 -10.5 -6.5 q-6 -2 -12 -2 l-585 0 q-6 0 -12 2 q-6 2 -10.5 6.5 q-4.5 4.5 -7 9.5 ZM57 405 q-6 9 -4 21.5 q2 12.5 9 21.5 q67 70 125 163 q58 93 99 195 q2 5 6 9 q4 4 9.5 6.5 q5.5 2.5 11 4 q5.5 1.5 10.5 -0.5 l1 0 q6 -2 10 -6.5 q4 -4.5 6.5 -10 q2.5 -5.5 2.5 -12 q0 -6.5 -2 -12.5 q-40 -97 -93 -186 l0 -640 q0 -7 -2 -12.5 q-2 -5.5 -6.5 -10 q-4.5 -4.5 -10 -7.5 q-5.5 -3 -10.5 -3 l-1 0 q-6 0 -11 3 q-5 3 -9 7.5 q-4 4.5 -6.5 10 q-2.5 5.5 -2.5 11.5 l0 548 q-40 -57 -84 -105 q-5 -6 -11.5 -8.5 q-6.5 -2.5 -13 -2.5 q-6.5 0 -12.5 3.5 q-6 3.5 -9 9.5 q-1 1 -1 1.5 q0 0.5 -1 1.5 Z" /><glyph glyph-name="uni4F53" unicode="&#x4f53;" d="M277.5 123.5 q-1.5 6.5 -1.5 13 q0 6.5 3.5 12.5 q3.5 6 8.5 12 q39 34 75.5 80 q36.5 46 70 99.5 q33.5 53.5 62.5 112.5 q28 57 50 116 l-221 0 q-6 0 -12 2.5 q-6 2.5 -10.5 7 q-4.5 4.5 -7 9 q-2.5 4.5 -2.5 10 q0 5.5 2.5 10.5 q2.5 5 7 9.5 q4.5 4.5 10.5 7 q6 2.5 12 2.5 l261 0 l0 176 q0 6 2 11.5 q2 5.5 6.5 10 q4.5 4.5 9.5 7 q5 2.5 11 2.5 q6 0 11 -2.5 q5 -2.5 9 -7 q4 -4.5 6 -10 q2 -5.5 2 -11.5 l0 -176 l276 0 q6 0 12 -2.5 q6 -2.5 10.5 -7 q4.5 -4.5 7 -9.5 q2.5 -5 2.5 -10.5 q0 -5.5 -2.5 -10 q-2.5 -4.5 -7 -9 q-4.5 -4.5 -10.5 -7 q-6 -2.5 -12 -2.5 l-232 0 q21 -59 48.5 -117 q27.5 -58 60 -110.5 q32.5 -52.5 69 -97.5 q36.5 -45 75.5 -78 q5 -6 8 -12.5 q3 -6.5 3 -13 q0 -6.5 -2 -13 q-2 -6.5 -7 -11.5 q-4 -5 -10 -7 q-6 -2 -12 -1.5 q-6 0.5 -12 3 q-6 2.5 -9 8.5 q-39 36 -76.5 85 q-37.5 49 -71 105.5 q-33.5 56.5 -61.5 118.5 q-26 58 -47 117 l0 -374 l140 0 q6 0 11.5 -2.5 q5.5 -2.5 10 -6.5 q4.5 -4 7.5 -9 q3 -5 3 -10 q0 -5 -3 -10 q-3 -5 -7.5 -8.5 q-4.5 -3.5 -10 -6 q-5.5 -2.5 -11.5 -2.5 l-140 0 l0 -157 q0 -5 -2 -10.5 q-2 -5.5 -6 -10 q-4 -4.5 -9 -7 q-5 -2.5 -11 -2.5 q-6 0 -11 2.5 q-5 2.5 -9.5 7 q-4.5 4.5 -6.5 10 q-2 5.5 -2 10.5 l0 157 l-145 0 q-6 0 -12 2.5 q-6 2.5 -10.5 6 q-4.5 3.5 -7 8.5 q-2.5 5 -2.5 10 q0 5 2.5 10 q2.5 5 7 9 q4.5 4 10.5 6.5 q6 2.5 12 2.5 l145 0 l0 370 q-20 -56 -46 -110 q-29 -63 -63 -120 q-34 -57 -72 -106.5 q-38 -49.5 -77 -87.5 q-4 -6 -10.5 -8.5 q-6.5 -2.5 -13 -3 q-6.5 -0.5 -12.5 1.5 q-6 2 -10 6 q-3 4 -4.5 10.5 ZM52 406 q-6 8 -5 20.5 q1 12.5 8 21.5 q59 69 110 162.5 q51 93.5 86 194.5 q2 5 6 9 q4 4 9.5 7.5 q5.5 3.5 10.5 4.5 q5 1 11 0 q5 -2 9.5 -6 q4.5 -4 7 -9.5 q2.5 -5.5 3 -12.5 q0.5 -7 -1.5 -12 q-36 -97 -82 -187 l0 -641 q0 -7 -2.5 -13 q-2.5 -6 -6.5 -10 q-4 -4 -9 -7 q-5 -3 -10.5 -3 q-5.5 0 -10.5 3 q-5 3 -9 7.5 q-4 4.5 -6.5 10 q-2.5 5.5 -2.5 11.5 l0 542 q-32 -51 -67 -96 q-5 -6 -11 -9.5 q-6 -3.5 -12.5 -3 q-6.5 0.5 -13 3.5 q-6.5 3 -10.5 9 l0 2 l-1 1 Z" /><glyph glyph-name="uni4F55" unicode="&#x4f55;" d="M427 240 l189 0 q2 0 4 2 q2 2 2 4 l0 220 q0 2 -2 4 q-2 2 -4 2 l-189 0 l0 -232 ZM371 147 l0 346 q0 7 2.5 13 q2.5 6 6.5 10.5 q4 4.5 9 7 q5 2.5 10.5 2.5 q5.5 0 10.5 -3 q2 -1 3 -2 q2 2 5 3 q5 2 11 2 l218 0 q6 0 11.5 -2.5 q5.5 -2.5 10 -7 q4.5 -4.5 7 -10.5 q2.5 -6 2.5 -12 l0 -276 q0 -6 -2.5 -11.5 q-2.5 -5.5 -7 -10.5 q-4.5 -5 -10 -7.5 q-5.5 -2.5 -11.5 -2.5 l-220 0 l0 -39 q0 -6 -2 -12 q-2 -6 -6 -10.5 q-4 -4.5 -9 -7 q-5 -2.5 -10.5 -2.5 q-5.5 0 -10.5 2.5 q-5 2.5 -9 7 q-4 4.5 -6.5 10.5 q-2.5 6 -2.5 12 ZM336 707 q0 6 2.5 11 q2.5 5 7 9 q4.5 4 10 6 q5.5 2 11.5 2 l562 0 q6 0 11.5 -2 q5.5 -2 10 -6 q4.5 -4 7 -9 q2.5 -5 2.5 -10.5 q0 -5.5 -2.5 -10.5 q-2.5 -5 -7 -9.5 q-4.5 -4.5 -10 -6.5 q-5.5 -2 -11.5 -2 l-47 0 l0 -666 q0 -36 -10.5 -52.5 q-10.5 -16.5 -36.5 -24.5 q-24 -7 -66.5 -8.5 q-42.5 -1.5 -107.5 -2.5 q-10 0 -19.5 7 q-9.5 7 -12.5 16 q-2 7 -1 14 q1 7 5.5 12.5 q4.5 5.5 11.5 8.5 q7 3 16 3 q39 -2 69 -2 q7 0 27.5 0.5 q20.5 0.5 38.5 2.5 q16 0 21.5 5.5 q5.5 5.5 5.5 20.5 l0 666 l-456 0 q-6 0 -11.5 2 q-5.5 2 -10 6.5 q-4.5 4.5 -7 9.5 q-2.5 5 -2.5 10 ZM57 411 q-6 9 -4.5 21.5 q1.5 12.5 8.5 21.5 q61 69 113 161.5 q52 92.5 89 191.5 q2 5 6 9.5 q4 4.5 9 7.5 q5 3 11 3.5 q6 0.5 10 -0.5 q6 -1 10.5 -5.5 q4.5 -4.5 6.5 -10.5 q2 -6 3 -12.5 q1 -6.5 -2 -11.5 q-35 -92 -80 -177 l0 -653 q0 -7 -2.5 -12.5 q-2.5 -5.5 -7 -10 q-4.5 -4.5 -9.5 -7.5 q-5 -3 -10.5 -3 q-5.5 0 -11 3 q-5.5 3 -9.5 7.5 q-4 4.5 -6.5 10 q-2.5 5.5 -2.5 11.5 l0 553 q-35 -54 -73 -101 q-5 -6 -11.5 -9 q-6.5 -3 -13 -2.5 q-6.5 0.5 -12.5 3.5 q-6 3 -10 9 l0 2 l-1 0 Z" /><glyph glyph-name="uni4F59" unicode="&#x4f59;" d="M676 164 q-3 6 -3 13 q0 7 3 13 q3 6 8 10 q6 3 16 2 q10 -1 18 -6 q24 -19 49.5 -41 q25.5 -22 49.5 -44 q24 -22 45 -43.5 q21 -21.5 38 -40.5 q4 -4 6 -10 q2 -6 1.5 -12 q-0.5 -6 -3.5 -11.5 q-3 -5.5 -8 -9.5 l-1 0 q-4 -3 -10.5 -4 q-6.5 -1 -12 0 q-5.5 1 -11.5 3.5 q-6 2.5 -10 7.5 q-15 18 -34 38.5 q-19 20.5 -41 41.5 q-22 21 -45 42 q-23 21 -46 40 q-6 5 -9 11 ZM94.5 296 q-2.5 5 -2.5 10.5 q0 5.5 2.5 10.5 q2.5 5 7 8.5 q4.5 3.5 10.5 6 q6 2.5 12 2.5 l351 0 l0 140 l-204 0 q-6 0 -11.5 2.5 q-5.5 2.5 -10 6.5 q-4.5 4 -7.5 9 q-3 5 -3 10 q0 5 3 10 q3 5 7.5 9 q4.5 4 10 6.5 q5.5 2.5 11.5 2.5 l460 0 q5 0 11 -2.5 q6 -2.5 10.5 -6.5 q4.5 -4 7 -9 q2.5 -5 2.5 -10 q0 -5 -2.5 -10 q-2.5 -5 -7 -9 q-4.5 -4 -10.5 -6.5 q-6 -2.5 -11 -2.5 l-195 0 l0 -140 l348 0 q6 0 12 -2.5 q6 -2.5 10 -6 q4 -3.5 7 -8.5 q3 -5 3 -10.5 q0 -5.5 -3 -10.5 q-3 -5 -7 -9.5 q-4 -4.5 -10 -6.5 q-6 -2 -12 -2 l-348 0 l0 -278 q0 -29 -8.5 -43.5 q-8.5 -14.5 -30.5 -23.5 q-18 -6 -50 -7.5 q-32 -1.5 -83 -1.5 q-9 0 -18.5 5.5 q-9.5 5.5 -12.5 12.5 q-6 15 3 26.5 q9 11.5 27 10.5 q23 -1 40 -1 q9 0 23.5 0.5 q14.5 0.5 27.5 1.5 q12 1 16.5 5 q4.5 4 4.5 15 l0 278 l-351 0 q-6 0 -12 2 q-6 2 -10.5 6.5 q-4.5 4.5 -7 9.5 ZM92 -22 q-11 10 -9 24.5 q2 14.5 16 25.5 q47 33 91.5 74.5 q44.5 41.5 77.5 85.5 q5 7 15.5 10.5 q10.5 3.5 19.5 -0.5 q6 -2 10.5 -7 q4.5 -5 6 -11 q1.5 -6 0 -13 q-1.5 -7 -6.5 -14 q-39 -48 -87.5 -93.5 q-48.5 -45.5 -96.5 -80.5 q-8 -6 -19.5 -6 q-11.5 0 -17.5 5 ZM57 461 q-5 6 -6.5 12.5 q-1.5 6.5 1 13 q2.5 6.5 8 12.5 q5.5 6 12.5 10 q58 28 116.5 63.5 q58.5 35.5 112.5 77 q54 41.5 102 86 q48 44.5 86 90.5 q7 7 18 10 q11 3 18 -1 q5 -3 8 -8 q3 -5 3.5 -11.5 q0.5 -6.5 -1.5 -12.5 q-1 -3 -3 -6 q8 -3 12 -8 q75 -87 171 -151 q96 -64 216 -116 q15 -7 20 -20.5 q5 -13.5 -4 -25.5 q-6 -8 -18.5 -10.5 q-12.5 -2.5 -22.5 1.5 q-122 57 -220 124.5 q-98 67.5 -177 159.5 q-5 5 -7 10 q-30 -34 -65 -66 q-51 -48 -107 -91.5 q-56 -43.5 -116 -81.5 q-60 -38 -119 -68 q-10 -5 -21.5 -2.5 q-11.5 2.5 -16.5 9.5 Z" /><glyph glyph-name="uni4F5B" unicode="&#x4f5b;" d="M727 490 l124 0 q2 0 4 2 q2 2 2 4 l0 134 q0 3 -2 4.5 q-2 1.5 -5 1.5 l-123 0 l0 -146 ZM542 490 l131 0 l0 146 l-131 0 l0 -146 ZM538 291 l135 0 l0 147 l-131 0 l0 -55 q0 -47 -4 -92 ZM351 291 l133 0 q3 44 3 92 l0 55 l-93 0 q-6 0 -12 2 q-2 1 -3 1 q-7 -42 -16 -86 q-6 -34 -12 -64 ZM293 276 q10 41 19 91 q9 50 16 95 q2 11 10 19.5 q8 8.5 17 8.5 q6 0 11 -3 q3 -2 6 -5 q10 8 22 8 l93 0 l0 146 l-143 0 q-6 0 -12 2 q-6 2 -10.5 6 q-4.5 4 -7 8.5 q-2.5 4.5 -2.5 9.5 q0 10 9.5 18 q9.5 8 22.5 8 l143 0 l0 106 q0 6 2.5 11.5 q2.5 5.5 6.5 10.5 q4 5 8.5 7.5 q4.5 2.5 10.5 2.5 q10 0 18.5 -10 q8.5 -10 8.5 -22 l0 -106 l131 0 l0 107 q0 5 2.5 10.5 q2.5 5.5 6 10 q3.5 4.5 8.5 7.5 q5 3 10 3 q5 0 10 -3 q5 -3 9 -7.5 q4 -4.5 6 -10 q2 -5.5 2 -10.5 l0 -107 l152 0 q7 0 12.5 -2.5 q5.5 -2.5 10 -7 q4.5 -4.5 7.5 -10.5 q3 -6 3 -11 l0 -188 q0 -5 -3 -11 q-3 -6 -7.5 -10.5 q-4.5 -4.5 -10 -7 q-5.5 -2.5 -11.5 -2.5 l-153 0 l0 -147 l185 0 q11 0 21 -7 q7 -6 8 -13 q1 -3 1 -6 q0 -3 -1 -6 q-2 -50 -4 -87 q-3 -39 -6 -66.5 q-3 -27.5 -7 -44.5 q-4 -17 -10 -26 q-1 -2 -2.5 -3.5 q-1.5 -1.5 -3.5 -2.5 q-9 -9 -18 -12.5 q-9 -3.5 -26 -5.5 q-10 0 -20 -0.5 q-10 -0.5 -14 -0.5 q-14 0 -29 2 q-10 -1 -19.5 5 q-9.5 6 -10.5 13 q-3 13 2.5 22 q5.5 9 17.5 8 q17 -1 28 -2 l21 0 q9 0 15 1.5 q6 1.5 11 7.5 q4 5 7.5 18.5 q3.5 13.5 6 39 q2.5 25.5 4.5 63.5 q1 23 3 51 l-160 0 l0 -284 q0 -6 -2 -11.5 q-2 -5.5 -6 -10 q-4 -4.5 -9 -7 q-5 -2.5 -10 -2.5 q-5 0 -10 2.5 q-5 2.5 -8.5 7 q-3.5 4.5 -6 10 q-2.5 5.5 -2.5 11.5 l0 284 l-140 0 q-7 -56 -27 -108 q-22 -57 -63.5 -107 q-41.5 -50 -109.5 -91 q-7 -4 -18 -3.5 q-11 0.5 -16 6.5 q-8 10 -4 24.5 q4 14.5 18 24.5 q58 39 92.5 82.5 q34.5 43.5 52.5 92.5 q14 38 20 79 l-128 0 q-7 0 -13 3 q-3 1 -5 2 q-6 -5 -12 -5 q-7 0 -12.5 3.5 q-5.5 3.5 -9 8.5 q-3.5 5 -5 11.5 q-1.5 6.5 -0.5 13.5 ZM34 405 q-6 9 -4 21.5 q2 12.5 9 21.5 q67 69 125 162.5 q58 93.5 99 195.5 q2 5 6.5 9 q4.5 4 9.5 6.5 q5 2.5 10.5 4 q5.5 1.5 10.5 -0.5 q5 -2 9.5 -6 q4.5 -4 7 -9.5 q2.5 -5.5 3 -12.5 q0.5 -7 -1.5 -12 q-41 -97 -94 -187 l0 -640 q0 -7 -2.5 -13 q-2.5 -6 -6 -10 q-3.5 -4 -8.5 -7 q-5 -3 -11 -3 q-6 0 -10.5 3 q-4.5 3 -9 7.5 q-4.5 4.5 -7 10 q-2.5 5.5 -2.5 11.5 l0 553 q-41 -59 -85 -108 q-6 -7 -12.5 -9.5 q-6.5 -2.5 -13 -2 q-6.5 0.5 -12 3.5 q-5.5 3 -9.5 9 l0 2 l-1 0 Z" /><glyph glyph-name="uni4F5C" unicode="&#x4f5c;" d="M323.5 425.5 q-2.5 5.5 -2.5 12.5 q0 7 2.5 13.5 q2.5 6.5 6.5 11.5 q57 66 105.5 152.5 q48.5 86.5 83.5 179.5 q2 6 6.5 10.5 q4.5 4.5 9.5 7.5 q5 3 10.5 4 q5.5 1 10.5 0 q6 -1 10.5 -5 q4.5 -4 7 -9.5 q2.5 -5.5 3 -12.5 q0.5 -7 -2.5 -12 q-21 -57 -47 -110 l399 0 q6 0 12 -2.5 q6 -2.5 10.5 -6.5 q4.5 -4 7 -9 q2.5 -5 2.5 -10.5 q0 -5.5 -2.5 -10.5 q-2.5 -5 -7 -9 q-4.5 -4 -10.5 -6.5 q-6 -2.5 -12 -2.5 l-287 0 l0 -159 l265 0 q6 0 12 -2 q6 -2 10.5 -6 q4.5 -4 7 -9 q2.5 -5 2.5 -10 q0 -5 -2.5 -10 q-2.5 -5 -7 -9.5 q-4.5 -4.5 -10.5 -6.5 q-6 -2 -12 -2 l-265 0 l0 -165 l278 0 q7 0 12.5 -2.5 q5.5 -2.5 10.5 -6.5 q5 -4 7.5 -9 q2.5 -5 2.5 -11 q0 -5 -2.5 -10 q-2.5 -5 -7.5 -9 q-5 -4 -10.5 -6.5 q-5.5 -2.5 -12.5 -2.5 l-278 0 l0 -219 q0 -5 -2 -11 q-2 -6 -7 -10.5 q-5 -4.5 -10 -7.5 q-5 -3 -11 -3 l-1 0 q-5 0 -10.5 3 q-5.5 3 -9.5 7.5 q-4 4.5 -6.5 10.5 q-2.5 6 -2.5 11 l0 655 l-80 0 l-14 -26 q-52 -92 -110 -162 q-4 -5 -10 -8.5 q-6 -3.5 -12 -4 q-6 -0.5 -12 1 q-6 1.5 -11 4.5 q-4 4 -6.5 9.5 ZM57 405 q-6 9 -4 21.5 q2 12.5 9 21.5 q67 70 125 163 q58 93 99 195 q2 5 6 9 q4 4 9.5 6.5 q5.5 2.5 11 4 q5.5 1.5 10.5 -0.5 l1 0 q6 -2 10 -6.5 q4 -4.5 6.5 -10 q2.5 -5.5 2.5 -12 q0 -6.5 -2 -12.5 q-40 -97 -93 -186 l0 -640 q0 -7 -2 -12.5 q-2 -5.5 -6.5 -10 q-4.5 -4.5 -10 -7.5 q-5.5 -3 -10.5 -3 l-1 0 q-6 0 -11 3 q-5 3 -9 7.5 q-4 4.5 -6.5 10 q-2.5 5.5 -2.5 11.5 l0 548 q-40 -57 -84 -105 q-5 -6 -11.5 -8.5 q-6.5 -2.5 -13 -2.5 q-6.5 0 -12.5 3.5 q-6 3.5 -9 9.5 q-1 1 -1 1.5 q0 0.5 -1 1.5 Z" /><glyph glyph-name="uni4F60" unicode="&#x4f60;" d="M779 371 q-2 6 -2.5 13 q-0.5 7 1.5 13 q2 6 6.5 10.5 q4.5 4.5 9.5 6.5 q4 1 9 0.5 q5 -0.5 10 -2.5 q5 -2 9.5 -6 q4.5 -4 6.5 -8 q18 -34 35.5 -72 q17.5 -38 32 -76 q14.5 -38 26.5 -74 q12 -36 19 -68 q3 -9 -3 -19.5 q-6 -10.5 -15 -14.5 q-6 -2 -12.5 -1 q-6.5 1 -12 5 q-5.5 4 -9.5 9.5 q-4 5.5 -5 11.5 q-8 30 -19 63.5 q-11 33.5 -25 69.5 q-14 36 -29.5 71.5 q-15.5 35.5 -32.5 67.5 ZM334 84.5 q-3 5.5 -4 12 q-1 6.5 0.5 13.5 q1.5 7 4.5 13 q38 53 67 120.5 q29 67.5 48 140.5 q2 6 6 11.5 q4 5.5 9 9 q5 3.5 10 5 q5 1.5 11 -0.5 q6 0 10.5 -4 q4.5 -4 7.5 -9.5 q3 -5.5 4 -12 q1 -6.5 0 -11.5 q-23 -82 -54.5 -155 q-31.5 -73 -70.5 -130 q-3 -5 -8.5 -8.5 q-5.5 -3.5 -11 -5.5 q-5.5 -2 -11.5 -1 q-6 1 -10 3 q-5 4 -8 9.5 ZM325.5 431.5 q-2.5 5.5 -3 12.5 q-0.5 7 1 14 q1.5 7 5.5 12 q44 66 78 151.5 q34 85.5 56 179.5 q1 6 5 11 q4 5 9 8.5 q5 3.5 10.5 5 q5.5 1.5 11.5 0.5 q5 -1 10 -5.5 q5 -4.5 8 -10 q3 -5.5 4.5 -11.5 q1.5 -6 -0.5 -12 q-20 -77 -46 -148 l408 0 q6 0 11 -2 q1 -1 2 -1 l1 1 q2 2 5 2 q1 0 3 0.5 q2 0.5 4 0.5 l3 0 q1 1 3.5 0.5 q2.5 -0.5 4.5 -0.5 l8 -2 q5 -1 9.5 -4.5 q4.5 -3.5 7.5 -8.5 q3 -5 4.5 -11 q1.5 -6 0.5 -12 q-8 -38 -16.5 -77 q-8.5 -39 -16.5 -71 q-2 -11 -11.5 -19 q-9.5 -8 -19.5 -5 q-9 2 -16 12.5 q-7 10.5 -5 22.5 q7 35 15 78 q4 21 8 41 q-3 -1 -6 -1 l-203 0 l0 -583 q0 -28 -7.5 -43 q-7.5 -15 -25.5 -23 q-16 -6 -41 -8 q-25 -2 -63 -3 q-9 0 -18 6.5 q-9 6.5 -12 13.5 q-5 15 3 27.5 q8 12.5 25 11.5 q15 -1 27 -1 q6 0 15.5 0.5 q9.5 0.5 20.5 1.5 q10 0 13.5 3 q3.5 3 3.5 13 l0 584 l-149 0 q-8 0 -14 3 l-1 1 q-36 -87 -80 -156 q-4 -5 -9.5 -8.5 q-5.5 -3.5 -11.5 -4.5 q-6 -1 -11.5 0 q-5.5 1 -10.5 4 q-5 4 -7.5 9.5 ZM34 405 q-6 9 -4 21.5 q2 12.5 9 21.5 q67 69 125 162.5 q58 93.5 99 195.5 q2 5 6.5 9 q4.5 4 9.5 6.5 q5 2.5 10.5 4 q5.5 1.5 10.5 -0.5 q5 -2 9.5 -6 q4.5 -4 7 -9.5 q2.5 -5.5 3 -12.5 q0.5 -7 -1.5 -12 q-41 -97 -94 -187 l0 -640 q0 -7 -2.5 -13 q-2.5 -6 -6 -10 q-3.5 -4 -8.5 -7 q-5 -3 -11 -3 q-6 0 -10.5 3 q-4.5 3 -9 7.5 q-4.5 4.5 -7 10 q-2.5 5.5 -2.5 11.5 l0 553 q-41 -59 -85 -108 q-6 -7 -12.5 -9.5 q-6.5 -2.5 -13 -2 q-6.5 0.5 -12 3.5 q-5.5 3 -9.5 9 l0 2 l-1 0 Z" /><glyph glyph-name="uni4F6C" unicode="&#x4f6c;" d="M266 183 q-2 7 -0.5 13.5 q1.5 6.5 6.5 12.5 q5 6 12 10 q177 90 321 223 l-295 0 q-7 0 -12.5 2 q-5.5 2 -10 6.5 q-4.5 4.5 -7 9 q-2.5 4.5 -2.5 10 q0 5.5 2.5 10.5 q2.5 5 7 8.5 q4.5 3.5 10 5.5 q5.5 2 12.5 2 l209 0 l0 150 l-158 0 q-6 0 -11.5 2 q-5.5 2 -10 6 q-4.5 4 -7 9 q-2.5 5 -2.5 10 q0 6 2.5 10.5 q2.5 4.5 7 8.5 q4.5 4 10 6 q5.5 2 11.5 2 l158 0 l0 106 q0 5 2.5 10.5 q2.5 5.5 7 10 q4.5 4.5 9.5 7.5 q5 3 11 3 q5 0 10 -3 q5 -3 9.5 -7.5 q4.5 -4.5 7 -10 q2.5 -5.5 2.5 -10.5 l0 -106 l159 0 q5 0 10.5 -2 q5.5 -2 10 -6 q4.5 -4 7 -8.5 q2.5 -4.5 2.5 -10 q0 -5.5 -2.5 -10.5 q-2.5 -5 -7 -9 q-4.5 -4 -10 -6 q-5.5 -2 -10.5 -2 l-159 0 l0 -150 l83 0 q118 122 203 268 q3 5 7 8.5 q4 3.5 9.5 6 q5.5 2.5 11 3 q5.5 0.5 10.5 -1.5 q6 -2 10 -7 q4 -5 6 -11 q2 -6 1.5 -12 q-0.5 -6 -3.5 -12 q-78 -131 -177 -242 l185 0 q7 0 13 -2 q6 -2 10 -5.5 q4 -3.5 7 -8.5 q3 -5 3 -10.5 q0 -5.5 -3 -10 q-3 -4.5 -7 -9 q-4 -4.5 -10 -6.5 q-6 -2 -13 -2 l-237 0 l-36 -36 q-62 -57 -129 -108 q2 -5 2 -11 l0 -91 q36 12 73 26 q39 15 76 30.5 q37 15.5 69.5 31.5 q32.5 16 58.5 32 q8 4 19.5 3 q11.5 -1 18.5 -7 q5 -5 7.5 -11.5 q2.5 -6.5 1.5 -13.5 q-1 -7 -5 -12.5 q-4 -5.5 -11 -9.5 q-31 -15 -67 -31 q-36 -16 -75 -31.5 q-39 -15.5 -79 -29.5 q-40 -14 -80 -26 q-3 -2 -7 -2 l0 -110 q0 -12 2.5 -19.5 q2.5 -7.5 10 -11.5 q7.5 -4 22 -5.5 q14.5 -1.5 36.5 -1.5 l216 0 q15 0 25 3 q10 3 16.5 12 q6.5 9 10.5 25.5 q4 16.5 6 42.5 q5 7 9 13.5 q4 6.5 9 11.5 q5 5 11 7 q6 2 12 -1 q9 -3 14.5 -13 q5.5 -10 3.5 -19 q-4 -42 -9.5 -68.5 q-5.5 -26.5 -17.5 -42 q-12 -15.5 -33 -21.5 q-21 -6 -54 -6 l-222 0 q-37 0 -61.5 4 q-24.5 4 -39 14.5 q-14.5 10.5 -20.5 28.5 q-6 18 -6 47 l0 223 q-74 -51 -154 -94 q-9 -4 -20.5 -2 q-11.5 2 -17.5 8 q-5 6 -7 13 ZM52 405 q-6 9 -5 21.5 q1 12.5 9 21.5 q60 69 111.5 163 q51.5 94 87.5 195 q2 5 6.5 9 q4.5 4 9.5 7 q5 3 10 4 q5 1 10 0 q6 -2 10.5 -6 q4.5 -4 7 -10 q2.5 -6 3 -12.5 q0.5 -6.5 -2.5 -11.5 q-37 -100 -85 -191 l0 -637 q0 -7 -2.5 -13 q-2.5 -6 -6 -10 q-3.5 -4 -8.5 -7 q-5 -3 -11 -3 q-6 0 -10.5 3 q-4.5 3 -9 7.5 q-4.5 4.5 -7 10 q-2.5 5.5 -2.5 11.5 l0 540 q-32 -51 -67 -95 q-5 -6 -11 -9 q-6 -3 -12.5 -2.5 q-6.5 0.5 -13 3.5 q-6.5 3 -9.5 9 q-1 1 -1 1.5 q0 0.5 -1 0.5 Z" /><glyph glyph-name="uni4F73" unicode="&#x4f73;" d="M329.5 446.5 q-2.5 5.5 -2.5 11 q0 5.5 2.5 10 q2.5 4.5 7 9 q4.5 4.5 10.5 6.5 q6 2 12 2 l241 0 l0 157 l-192 0 q-6 0 -12 2.5 q-6 2.5 -10 6.5 q-4 4 -7 9 q-3 5 -3 11 q0 5 3 10 q3 5 7 9 q4 4 10 6 q6 2 12 2 l192 0 l0 107 q0 6 2.5 12 q2.5 6 7 10.5 q4.5 4.5 9.5 7 q5 2.5 11 2.5 l1 0 q5 0 10 -2.5 q5 -2.5 9.5 -7 q4.5 -4.5 6.5 -10.5 q2 -6 2 -12 l0 -107 l200 0 q6 0 12 -2 q6 -2 10 -6 q4 -4 7 -9 q3 -5 3 -10 q0 -6 -3 -11 q-3 -5 -7 -9 q-4 -4 -10 -6.5 q-6 -2.5 -12 -2.5 l-200 0 l0 -157 l245 0 q6 0 12 -2 q6 -2 10.5 -6.5 q4.5 -4.5 7 -9 q2.5 -4.5 2.5 -10 q0 -5.5 -2.5 -11 q-2.5 -5.5 -7 -9 q-4.5 -3.5 -10.5 -6.5 q-6 -3 -12 -3 l-545 0 q-6 0 -12 3 q-6 3 -10.5 6.5 q-4.5 3.5 -7 9 ZM294.5 -18.5 q-2.5 5.5 -2.5 11 q0 5.5 2.5 10.5 q2.5 5 7 9 q4.5 4 10.5 6 q6 2 12 2 l276 0 l0 185 l-213 0 q-5 0 -11 2.5 q-6 2.5 -10.5 6.5 q-4.5 4 -7 9 q-2.5 5 -2.5 11 q0 5 2.5 10 q2.5 5 7 9 q4.5 4 10.5 6 q6 2 11 2 l213 0 l0 92 q0 7 2.5 13 q2.5 6 7 10.5 q4.5 4.5 9.5 7 q5 2.5 11 2.5 l1 0 q5 0 10 -2.5 q5 -2.5 9.5 -7 q4.5 -4.5 6.5 -10.5 q2 -6 2 -13 l0 -92 l216 0 q6 0 12 -2 q6 -2 10.5 -6 q4.5 -4 7 -9 q2.5 -5 2.5 -10.5 q0 -5.5 -2.5 -10.5 q-2.5 -5 -7 -9 q-4.5 -4 -10.5 -6.5 q-6 -2.5 -12 -2.5 l-216 0 l0 -185 l266 0 q6 0 12 -2 q6 -2 10.5 -6 q4.5 -4 7 -9 q2.5 -5 2.5 -10.5 q0 -5.5 -2.5 -11 q-2.5 -5.5 -7 -9.5 q-4.5 -4 -10.5 -6.5 q-6 -2.5 -12 -2.5 l-601 0 q-6 0 -12 2.5 q-6 2.5 -10.5 6.5 q-4.5 4 -7 9.5 ZM61 406 q-6 8 -5 20.5 q1 12.5 8 20.5 q61 70 113.5 163.5 q52.5 93.5 88.5 195.5 q2 5 6.5 9 q4.5 4 9.5 7 q5 3 10.5 4 q5.5 1 10.5 0 q5 -2 9.5 -6 q4.5 -4 7.5 -9.5 q3 -5.5 3 -12.5 q0 -7 -2 -12 q-38 -100 -87 -193 l0 -638 q0 -6 -2.5 -11.5 q-2.5 -5.5 -7 -10.5 q-4.5 -5 -9.5 -7.5 q-5 -2.5 -11 -2.5 q-5 0 -10.5 2.5 q-5.5 2.5 -9.5 7.5 q-4 5 -6.5 10.5 q-2.5 5.5 -2.5 11.5 l0 538 q-32 -48 -65 -90 q-6 -7 -12 -10 q-6 -3 -13 -2.5 q-7 0.5 -13.5 3.5 q-6.5 3 -9.5 10 l-1 2 Z" /><glyph glyph-name="uni4F7F" unicode="&#x4f7f;" d="M660 339 l201 0 q2 0 4 2 q2 2 2 5 l0 155 q0 2 -2 4 q-2 2 -4 2 l-199 0 l0 -111 q0 -28 -2 -57 ZM405 346 q0 -3 1.5 -5 q1.5 -2 3.5 -2 l192 0 q2 29 2 58 l0 110 l-194 0 q-2 0 -3.5 -2 q-1.5 -2 -1.5 -4 l0 -155 ZM306 -63 q-8 12 -2 25 q6 13 22 20 q100 32 156 77 q12 9 22 19 q-20 15 -39 31 q-56 48 -95 107 q-4 5 -5 11.5 q-1 6.5 0.5 12 q1.5 5.5 5.5 10.5 q4 5 9 7 q8 3 18.5 -2 q10.5 -5 15.5 -12 q35 -52 87 -95 q18 -16 39 -30 q14 19 25 40 q27 54 33 114 q0 8 1 15 l-218 0 q-6 0 -12 3 q-6 3 -10.5 7.5 q-4.5 4.5 -7 10 q-2.5 5.5 -2.5 11.5 l0 208 q0 6 2.5 12 q2.5 6 7 10 q4.5 4 10.5 7 q6 3 12 3 l223 0 l0 107 l-255 0 q-6 0 -12 2.5 q-6 2.5 -10.5 6.5 q-4.5 4 -7 8.5 q-2.5 4.5 -2.5 10.5 q0 5 2.5 10 q2.5 5 7 9 q4.5 4 10.5 6 q6 2 12 2 l255 0 l0 81 q0 6 2 11.5 q2 5.5 6.5 10 q4.5 4.5 10 7.5 q5.5 3 10.5 3 q6 0 11 -3 q5 -3 9 -7.5 q4 -4.5 6.5 -10 q2.5 -5.5 2.5 -11.5 l0 -81 l266 0 q6 0 11.5 -2 q5.5 -2 10 -6 q4.5 -4 7.5 -9 q3 -5 3 -10.5 q0 -5.5 -3 -10 q-3 -4.5 -7.5 -8.5 q-4.5 -4 -10 -6.5 q-5.5 -2.5 -11.5 -2.5 l-266 0 l0 -107 l231 0 q6 0 11.5 -3 q5.5 -3 10 -7 q4.5 -4 7.5 -10 q3 -6 3 -12 l0 -208 q0 -6 -3 -11.5 q-3 -5.5 -7.5 -10 q-4.5 -4.5 -10 -7.5 q-5.5 -3 -11.5 -3 l-237 0 q-1 -14 -3 -28 q-9 -69 -41 -130 q-11 -21 -25 -41 q14 -8 29 -16 q64 -33 140 -55.5 q76 -22.5 160 -35.5 q19 -3 26 -15.5 q7 -12.5 -2 -27.5 q-4 -6 -13 -11 q-9 -5 -18 -3 q-89 14 -169.5 39.5 q-80.5 25.5 -149.5 61.5 q-20 10 -39 22 q-16 -16 -35 -32 q-64 -52 -175 -88 q-9 -4 -19.5 -0.5 q-10.5 3.5 -15.5 10.5 ZM39 413 q-6 9 -4 22 q2 13 9 21 q68 69 128 161.5 q60 92.5 102 193.5 q3 6 7.5 10 q4.5 4 9.5 6.5 q5 2.5 10.5 3.5 q5.5 1 9.5 -1 q6 -1 10 -5.5 q4 -4.5 7 -10 q3 -5.5 3 -12 q0 -6.5 -2 -12.5 q-41 -94 -94 -181 l0 -658 q0 -7 -2.5 -12.5 q-2.5 -5.5 -6.5 -10.5 q-4 -5 -9 -7.5 q-5 -2.5 -10.5 -2.5 q-5.5 0 -10.5 2.5 q-5 2.5 -9 7.5 q-4 5 -6.5 10.5 q-2.5 5.5 -2.5 11.5 l0 572 q-44 -62 -92 -113 q-5 -6 -11 -8.5 q-6 -2.5 -13 -2 q-7 0.5 -13 4 q-6 3.5 -9 9.5 l-1 1 Z" /><glyph glyph-name="uni4F8B" unicode="&#x4f8b;" d="M728 -49 q-2 7 -0.5 14 q1.5 7 5.5 12.5 q4 5.5 11 8 q7 2.5 16 2.5 l81 0 q12 1 17 5.5 q5 4.5 5 16.5 l0 792 q0 6 2.5 11.5 q2.5 5.5 6.5 10.5 q4 5 8.5 7.5 q4.5 2.5 10.5 2.5 q5 0 10 -2.5 q5 -2.5 9.5 -7.5 q4.5 -5 6.5 -10.5 q2 -5.5 2 -11.5 l0 -791 q0 -31 -8.5 -46 q-8.5 -15 -28.5 -23 q-17 -7 -47 -8.5 q-30 -1.5 -77 -2.5 q-9 0 -18 6.5 q-9 6.5 -12 13.5 ZM698 195 l0 491 q0 6 2 11.5 q2 5.5 6 10 q4 4.5 9 7 q5 2.5 10 2.5 q5 0 10 -2.5 q5 -2.5 8.5 -7 q3.5 -4.5 5.5 -10 q2 -5.5 2 -11.5 l0 -491 q0 -5 -2 -11 q-2 -6 -5.5 -10.5 q-3.5 -4.5 -8.5 -7 q-5 -2.5 -10 -2.5 q-5 0 -10 2.5 q-5 2.5 -9 7 q-4 4.5 -6 10.5 q-2 6 -2 11 ZM274.5 293 q-2.5 5 -3.5 11.5 q-1 6.5 0.5 13 q1.5 6.5 4.5 11.5 q50 77 85 181 q34 100 56 212 l-87 0 q-6 0 -12 2.5 q-6 2.5 -10.5 6.5 q-4.5 4 -7 8.5 q-2.5 4.5 -2.5 10.5 q0 5 2.5 10 q2.5 5 7 9.5 q4.5 4.5 10.5 6.5 q6 2 12 2 l286 0 q6 0 11.5 -2 q5.5 -2 10 -6.5 q4.5 -4.5 7 -9.5 q2.5 -5 2.5 -10 q0 -6 -2.5 -10.5 q-2.5 -4.5 -7 -8.5 q-4.5 -4 -10 -6.5 q-5.5 -2.5 -11.5 -2.5 l-142 0 l0 -4 q-18 -84 -41 -162 l120 0 q5 0 11 -2 q2 -1 4 -1 q2 3 5 3 q2 0 4 0.5 q2 0.5 3 0.5 l3 0 q2 1 4.5 0.5 q2.5 -0.5 4.5 -0.5 l5 -1 q9 -3 16 -13 q7 -10 6 -21 q-27 -214 -97 -357.5 q-70 -143.5 -169 -220.5 q-5 -4 -11 -6 q-6 -2 -12.5 -2 q-6.5 0 -11.5 2.5 q-5 2.5 -9 6.5 q-4 4 -5 10 q-1 6 0.5 13 q1.5 7 5.5 13.5 q4 6.5 9 11.5 q47 36 86 89 q40 52 72 120 q-6 3 -11 7 q-15 17 -37 35 q-22 18 -44 33 q-9 8 -12 20.5 q-3 12.5 4 20.5 q4 4 8.5 6 q4.5 2 10 2.5 q5.5 0.5 11.5 -1 q6 -1.5 10 -5.5 q25 -17 50 -37 q19 -14 32 -27 q18 47 32 101 q18 68 29 145 q-4 -1 -8 -1 l-122 0 q-7 0 -13 3 q-3 -10 -6 -19 q-37 -109 -90 -191 q-2 -5 -7 -8.5 q-5 -3.5 -11 -5 q-6 -1.5 -11.5 -0.5 q-5.5 1 -9.5 5 q-5 3 -7.5 8 ZM50 425 q-5 6 -4 17.5 q1 11.5 7 18.5 q51 67 92 156.5 q41 89.5 70 187.5 q1 5 5 10 q4 5 9.5 8.5 q5.5 3.5 10.5 5 q5 1.5 11 0.5 q5 -2 9 -6 q4 -4 6.5 -9 q2.5 -5 3.5 -11 q1 -6 -1 -12 q-26 -87 -62 -168 l0 -665 q0 -6 -2 -12 q-2 -6 -6 -10.5 q-4 -4.5 -9 -7 q-5 -2.5 -10 -2.5 q-6 0 -10.5 2.5 q-4.5 2.5 -9 7 q-4.5 4.5 -6.5 10.5 q-2 6 -2 12 l0 552 q-27 -48 -55 -89 q-5 -7 -11.5 -10.5 q-6.5 -3.5 -12.5 -3.5 q-6 0 -12 4 q-6 4 -10 10 q0 1 -0.5 2 q-0.5 1 -0.5 2 Z" /></font>
</defs>
</svg>
