<?xml version="1.0" standalone="no"?><!DOCTYPE svg PUBLIC "-//W3C//DTD SVG 1.1//EN" "http://www.w3.org/Graphics/SVG/1.1/DTD/svg11.dtd"><svg t="1734334186467" class="icon" viewBox="0 0 1024 1024" version="1.1" xmlns="http://www.w3.org/2000/svg" p-id="14727" xmlns:xlink="http://www.w3.org/1999/xlink" width="256" height="256"><path d="M913.067 465.92c-13.654 0-25.6-11.947-25.6-25.6V322.56c0-15.36-8.534-30.72-22.187-37.547L537.6 93.867c-13.653-8.534-30.72-8.534-44.373 0L163.84 283.307c-13.653 8.533-22.187 22.186-22.187 37.546v64.854c0 13.653-11.946 25.6-25.6 25.6-13.653 0-25.6-11.947-25.6-25.6v-64.854c0-34.133 18.774-64.853 47.787-81.92l329.387-189.44c29.013-17.066 66.56-17.066 95.573 0l329.387 189.44c29.013 17.067 47.786 47.787 47.786 81.92v117.76c-1.706 15.36-11.946 27.307-27.306 27.307zM515.413 988.16c-17.066 0-32.426-3.413-47.786-11.947L138.24 785.067C109.227 768 90.453 737.28 90.453 703.147V593.92c0-13.653 11.947-25.6 25.6-25.6 13.654 0 25.6 11.947 25.6 25.6v109.227c0 15.36 8.534 30.72 22.187 37.546l329.387 189.44c13.653 8.534 30.72 8.534 44.373 0l329.387-189.44c13.653-8.533 22.186-22.186 22.186-37.546v-71.68c0-13.654 11.947-25.6 25.6-25.6 13.654 0 23.894 10.24 23.894 25.6v71.68c0 34.133-18.774 64.853-47.787 81.92L563.2 974.507c-15.36 8.533-32.427 13.653-47.787 13.653z" fill="#6633FF" p-id="14728"></path><path d="M42.667 544.47a69.973 69.973 0 1 0 139.946 0 69.973 69.973 0 0 0-139.946 0z m798.72-76.843a69.973 69.973 0 1 0 139.946 0 69.973 69.973 0 0 0-139.946 0z" fill="#6633FF" p-id="14729"></path><path d="M814.08 646.827V377.173c0-23.893-13.653-46.08-34.133-59.733L546.133 182.613c-20.48-11.946-47.786-11.946-68.266 0L244.053 317.44c-20.48 11.947-34.133 34.133-34.133 59.733v271.36c0 23.894 13.653 46.08 34.133 59.734l233.814 133.12c20.48 11.946 47.786 11.946 68.266 0L779.947 706.56c22.186-11.947 34.133-34.133 34.133-59.733z" fill="#6633FF" opacity=".3" p-id="14730"></path><path d="M597.333 645.077h-73.386l-23.894-71.68H385.707l-23.894 71.68h-73.386l114.346-314.026h78.507l116.053 314.026zM486.4 520.491l-35.84-109.227c-1.707-6.827-3.413-15.36-5.12-27.307h-1.707c0 8.534-3.413 18.774-5.12 27.307l-35.84 109.227H486.4z m218.453-191.147v314.027h-66.56V329.344h66.56z" fill="#6633FF" p-id="14731"></path></svg>