<?xml version="1.0" standalone="no"?><!DOCTYPE svg PUBLIC "-//W3C//DTD SVG 1.1//EN" "http://www.w3.org/Graphics/SVG/1.1/DTD/svg11.dtd"><svg t="1778481421928" class="icon" viewBox="0 0 1024 1024" version="1.1" xmlns="http://www.w3.org/2000/svg" p-id="8777" xmlns:xlink="http://www.w3.org/1999/xlink" width="256" height="256"><path d="M186.136 949.164h-0.016c-22.686 0-43.888-12.188-55.31-31.746L68 809.73a21.26 21.26 0 0 1-2.906-10.75V545.742H42.39c-9.64 0-18.078-6.454-20.592-15.75a21.334 21.334 0 0 1 9.842-24L755.74 83.554a63.96 63.96 0 0 1 32.188-8.718c22.688 0 43.904 12.156 55.31 31.75l171.994 294.818c17.812 30.482 7.468 69.748-23 87.528L218.338 940.414a63.944 63.944 0 0 1-32.202 8.75z" fill="#DA4453" p-id="8778"></path><path d="M678.308 234.75c-3 11.406 3.812 23.062 15.186 26.062 11.376 3 23.06-3.812 26.058-15.202 3-11.39-3.81-23.062-15.184-26.06-11.406-2.984-23.06 3.812-26.06 15.2zM721.302 308.468c-3 11.39 3.812 23.062 15.188 26.062 11.406 2.984 23.062-3.812 26.062-15.218 3-11.39-3.812-23.062-15.188-26.044a21.318 21.318 0 0 0-26.062 15.2zM764.302 382.168c-3 11.39 3.812 23.062 15.188 26.062 11.406 3 23.062-3.812 26.062-15.204 3-11.406-3.812-23.062-15.188-26.062-11.406-2.998-23.062 3.814-26.062 15.204zM807.302 455.868c-3 11.39 3.812 23.062 15.186 26.062 11.406 3 23.062-3.812 26.062-15.204 2.998-11.39-3.812-23.062-15.188-26.062-11.404-2.998-23.06 3.814-26.06 15.204z" fill="#080808" opacity=".1" p-id="8779"></path><path d="M892.018 423.12a21.386 21.386 0 0 1-18.468-10.578l-108.622-186.18c-5.938-10.17-2.5-23.234 7.688-29.17s23.25-2.5 29.188 7.672l108.622 186.18c5.938 10.172 2.5 23.234-7.688 29.17a21.21 21.21 0 0 1-10.72 2.906z" fill="#F6BB42" p-id="8780"></path><path d="M370.348 502.618a21.328 21.328 0 0 1-18.454-10.578c-5.936-10.172-2.5-23.234 7.688-29.172l257.976-150.51c10.156-5.938 23.218-2.5 29.156 7.686 5.938 10.172 2.5 23.234-7.656 29.172l-257.976 150.494a21.28 21.28 0 0 1-10.734 2.908zM413.348 576.332a21.31 21.31 0 0 1-18.454-10.594c-5.922-10.184-2.5-23.23 7.688-29.168l257.976-150.512c10.156-5.938 23.216-2.5 29.154 7.688 5.938 10.172 2.5 23.234-7.654 29.17L424.08 573.426a21.296 21.296 0 0 1-10.732 2.906z" fill="#434A54" p-id="8781"></path><path d="M959.984 437.166H149.606L31.64 505.992a21.324 21.324 0 1 0 10.75 39.75h22.702V798.98c0 3.782 1 7.5 2.906 10.75l56.436 96.75h152.074l715.724-417.55a63.964 63.964 0 0 0 22.094-21.516c-11.312-18.14-31.438-30.248-54.342-30.248z" fill="#080808" opacity=".1" p-id="8782"></path><path d="M959.984 479.836H64.014c-35.296 0-63.998 28.718-63.998 64v341.332c0 35.278 28.702 63.996 63.998 63.996h895.97c35.31 0 63.998-28.718 63.998-63.996V543.836c0-35.282-28.688-64-63.998-64z" fill="#ED5564" p-id="8783"></path><path d="M816.926 571.426c-8.374 8.312-8.374 21.812 0 30.156 8.312 8.344 21.812 8.344 30.156 0 8.342-8.344 8.342-21.844 0-30.156-8.344-8.344-21.844-8.344-30.156 0zM816.926 656.738a21.278 21.278 0 0 0 0 30.188c8.312 8.312 21.812 8.312 30.156 0a21.336 21.336 0 0 0 0-30.188c-8.344-8.312-21.844-8.312-30.156 0zM816.926 742.078c-8.374 8.344-8.374 21.844 0 30.156 8.312 8.344 21.812 8.344 30.156 0 8.342-8.312 8.342-21.812 0-30.156-8.344-8.344-21.844-8.344-30.156 0z" fill="#DA4453" p-id="8784"></path><path d="M288.742 847.668c-9.952 0-18.858-7-20.89-17.156l-30.17-150.836c-2.312-11.562 5.172-22.812 16.734-25.124 11.546-2.282 22.796 5.188 25.094 16.75l30.17 150.868c2.312 11.532-5.172 22.782-16.734 25.094-1.408 0.278-2.814 0.404-4.204 0.404z" fill="#E6E9ED" p-id="8785"></path><path d="M258.618 696.828c-1.39 0-2.796-0.156-4.204-0.406L103.56 666.238c-11.546-2.312-19.032-13.562-16.734-25.094 2.312-11.562 13.562-19.032 25.11-16.718l150.838 30.124c11.562 2.312 19.046 13.562 16.734 25.124-2.016 10.126-10.922 17.154-20.89 17.154z" fill="#E6E9ED" p-id="8786"></path><path d="M816.926 827.418c-8.374 8.312-8.374 21.812 0 30.156 8.312 8.344 21.812 8.344 30.156 0 8.342-8.344 8.342-21.844 0-30.156-8.344-8.344-21.844-8.344-30.156 0z" fill="#DA4453" p-id="8787"></path><path d="M334.022 600.05c-8.328-8.312-21.842-8.312-30.17 0l-144.604 144.622h-51.5c-11.782 0-21.328 9.562-21.328 21.312 0 11.812 9.546 21.34 21.328 21.34h39.014v39.032c0 11.75 9.546 21.312 21.328 21.312s21.328-9.562 21.328-21.312V774.86l144.604-144.622c8.328-8.312 8.328-21.844 0-30.188z" fill="#F5F7FA" p-id="8788"></path><path d="M917.298 844.73c-11.75 0-21.312-9.562-21.312-21.344V607.832c0-11.782 9.562-21.344 21.312-21.344 11.812 0 21.376 9.562 21.376 21.344v215.554c0 11.782-9.562 21.344-21.376 21.344z" fill="#FFCE54" p-id="8789"></path><path d="M426.674 650.488h298.628c11.812 0 21.376-9.562 21.376-21.312 0-11.812-9.562-21.344-21.376-21.344H426.674a21.332 21.332 0 0 0-21.342 21.344c0 11.75 9.562 21.312 21.342 21.312zM725.302 693.176H426.674c-11.78 0-21.342 9.558-21.342 21.308a21.332 21.332 0 0 0 21.342 21.344h298.628c11.812 0 21.376-9.532 21.376-21.344 0-11.75-9.562-21.308-21.376-21.308zM597.308 778.484h-170.634c-11.78 0-21.342 9.558-21.342 21.34s9.562 21.344 21.342 21.344h170.634c11.812 0 21.376-9.562 21.376-21.344s-9.562-21.34-21.376-21.34z" fill="#434A54" p-id="8790"></path></svg>