<?xml version="1.0" standalone="no"?><!DOCTYPE svg PUBLIC "-//W3C//DTD SVG 1.1//EN" "http://www.w3.org/Graphics/SVG/1.1/DTD/svg11.dtd"><svg t="1769131024701" class="icon" viewBox="0 0 2304 1024" version="1.1" xmlns="http://www.w3.org/2000/svg" p-id="5588" xmlns:xlink="http://www.w3.org/1999/xlink" width="576" height="256"><path d="M422.976 529.1648c-15.2064 1.5104-43.7632 8.2304-59.3792 21.9904-46.7968 40.6784-18.8032 115.072 75.904 115.072 55.04 0 110.0544-35.0976 153.2672-91.2768-61.44-29.9136-113.536-51.328-169.792-45.7856z" fill="#1F94FA" p-id="5589"></path><path d="M776.2176 580.5696c87.6672 29.2736 107.5456 30.848 107.5456 30.848v-314.752c0-53.7088-43.6096-97.2288-97.4848-97.2288H372.5312c-53.888 0-97.5104 43.52-97.5104 97.2416v412.544c0 53.6832 43.6352 97.216 97.5104 97.216h413.7472c53.888 0 97.4848-43.52 97.4848-97.2288v-3.968s-158.336-65.8304-238.2976-104.1664c-53.6064 65.7792-122.7904 105.728-194.6112 105.728-121.4592 0-162.7008-105.984-105.2032-175.7696 12.544-15.1808 33.8816-29.7216 66.9952-37.8624 51.776-12.672 134.208 7.936 211.456 33.344a422.4256 422.4256 0 0 0 34.2784-83.5584H420.3264v-24.0512h122.7392V375.808H394.4064v-24.064h148.6592v-61.4784s0-10.368 10.5344-10.368h59.9808v71.8592H760.576v24.064H613.5808v43.0848h119.9872c-11.4688 46.8992-28.928 90.0736-50.8032 127.9744 36.416 13.12 69.1072 25.5744 93.4528 33.6896zM1750.2208 294.592h174.2592v34.496h62.2208v-40.8704l-0.0128-0.2432c0-9.1776-7.2064-16.6144-16.128-16.768h-100.7104v-32.1664h-65.1264v32.1664h-116.736v57.8816h62.2336v-34.496zM1373.2096 242.0096l-63.808 150.912h48.9472v179.584h53.5296v-238.208h-19.392l40.32-92.288zM1993.856 564.2496l-19.5712-66.048a10.1632 10.1632 0 0 0-9.6384-7.2704h-51.8016l15.0016 50.7264h-60.9024v-98.24h119.6288v-23.4112h-119.6288v-46.2336h119.6288v-23.3984h-298.5856v23.3984h119.616v46.2336h-119.616v23.4112h119.616v98.24h-119.616v23.3984h305.856l-0.2432-0.7936h0.256v-0.0128zM1510.0928 365.7088a12.416 12.416 0 0 0-11.008-7.04h-46.336l36.0832 113.664h54.8224l-33.5616-106.624z" fill="#1F94FA" p-id="5590"></path><path d="M1627.392 244.7616h-55.6288v58.112h-137.1008v23.3984h137.1008v208.9728a9.6 9.6 0 0 1-8.9728 8.7552h-28.2624v24.2176h72.0896c11.392-0.4864 20.5312-9.9584 20.7744-21.6832V326.272h22.592v-23.3856h-22.592v-58.1248zM1280.2944 350.6432h-106.8672v-38.2848h123.904V288.512h-123.904v-48.5248h-55.2448c-6.0416 0-10.944 5.0688-10.944 11.328v37.1968h-123.0208v23.8464h123.0208v38.2848h-103.8336v23.8464H1210.24s-11.456 44.736-68.1984 92.8384c-50.816-38.4768-67.8144-69.12-67.8144-69.12h-55.488c22.4384 38.8992 54.3488 70.0544 88.704 94.7712-31.5648 20.5056-72.4736 40.2816-125.3888 56.0768v28.5696s81.6256-15.4112 160.512-61.888c79.0144 46.1184 158.3744 61.888 158.3744 61.888v-27.0464c-50.7904-18.4832-91.0208-38.8096-122.624-58.432 45.7856-33.8944 85.888-79.9232 101.9776-141.504zM1104.9088 731.9936l9.2416 27.8912h25.9072l-51.008-138.496h-19.8016l-50.816 138.496h25.9072l9.6384-27.904h50.944z m-25.0496-74.9184l19.1616 57.4336h-39.0016l19.84-57.4336zM1221.7728 621.3888v138.496h83.8528v-18.8544h-58.944v-119.6416zM1397.0048 621.3888h24.9344v138.4832h-24.9344zM1576.7552 621.3888h-53.824v138.496h24.896v-53.248h28.928c26.8544 0 45.6192-17.5232 45.6192-42.624 0-25.088-18.7648-42.624-45.6192-42.624z m-1.408 66.2272h-27.52v-47.3856h27.52c13.824 0 22.0928 12.0832 22.0928 23.7952 0 11.4304-7.744 23.5904-22.08 23.5904zM1768.6656 731.9936l9.2288 27.8912h25.9072l-51.0208-138.496h-19.7888l-50.816 138.496h25.92l9.6128-27.904h50.944z m-25.0624-74.9184l19.1616 57.4336h-39.0016l19.84-57.4336zM1942.5664 621.3888l-27.1872 59.008-27.584-59.008h-26.9184l41.9328 81.6v56.896h24.7296V702.976l0.1536-0.3072 41.792-81.2928z" fill="#1F94FA" p-id="5591"></path></svg>