<?xml version="1.0" standalone="no"?><!DOCTYPE svg PUBLIC "-//W3C//DTD SVG 1.1//EN" "http://www.w3.org/Graphics/SVG/1.1/DTD/svg11.dtd"><svg t="1729473692503" class="icon" viewBox="0 0 1024 1024" version="1.1" xmlns="http://www.w3.org/2000/svg" p-id="11855" xmlns:xlink="http://www.w3.org/1999/xlink" width="200" height="200"><path d="M882.5 426.8C879.7 225 714 63.6 512.1 66c-201.8-2.5-367.6 159-370.4 360.8 0.3 104.9 46.7 204.3 126.9 271.9v227.7c0.2 9.1 4.6 17.6 12 22.9 7.6 5.2 17.1 6.6 25.8 3.9L512 885.6l205.6 67.7c2.9 1.1 6 1.7 9.2 1.7 5.9 0.1 11.7-1.6 16.6-4.9 7.5-5.2 12-13.8 12-23V699.3c80.3-67.9 126.7-167.5 127.1-272.5z m-680.5 0c2.5-168.7 141-303.5 309.7-301.6 168.6-1.9 307 132.9 309.6 301.6-2.5 168.6-140.9 303.5-309.6 301.6-168.6 1.9-307-133-309.5-301.6h-0.2z m495.5 461.1l-176.9-58.2c-5.9-2.2-12.4-2.2-18.4 0l-176.7 58.2V739c115.5 64.9 256.6 64.9 372.1 0v148.8l-0.1 0.1zM569 363c0-7.6-2.2-15-6.3-21.3-4.1-6.2-10.2-11-17.2-13.4-13.4-3.7-27.4-5.3-41.3-4.5h-55.7v79.5h53.8c12.2 0.3 24.4-1 36.2-4 8.6-1.7 16.5-6.1 22.6-12.4 5.5-6.6 8.4-15.2 7.9-23.9z m-57.4-172.8c-132.3-1.5-240.9 104.3-242.9 236.6 2 132.3 110.6 238.1 242.9 236.7 132.3 1.5 240.9-104.4 242.9-236.7-1.8-132.4-110.5-238.3-242.9-236.6z m119.5 371c-2.5 4-6.1 7.1-10.3 8.9-4.6 2.3-9.7 3.5-14.8 3.4-6 0.1-12-1.4-17.2-4.5-4.7-3.2-8.8-7.2-12-11.8-4.8-6.6-9.2-13.5-13.2-20.7l-24.1-39.2c-6.5-11.6-14.2-22.5-23-32.4-5.6-6.6-12.7-11.8-20.7-15.1-8.5-2.9-17.4-4.3-26.4-4h-20.8v92.9c0.8 9.6-2.1 19.2-8 26.8-5.8 5.7-13.7 8.7-21.8 8.4-8.5 0.6-16.7-2.7-22.4-8.9-5.7-7.5-8.5-16.8-8-26.3V316c-1-9.9 2.1-19.8 8.6-27.4 7.9-6.4 18-9.4 28.1-8.4h97.6c11.5-0.1 23.1 0.5 34.6 1.7 8.9 0.9 17.6 3.2 25.8 6.7 9.1 4 17.4 9.5 24.7 16.2 7 7 12.5 15.4 16.1 24.7 3.6 9.5 5.5 19.5 5.7 29.6 0.9 19-6 37.6-19 51.5-15.9 14.4-35.6 24-56.8 27.5 11.7 6.2 22 14.6 30.5 24.7 9.6 10.6 18.2 22 25.8 34.1 6.8 10.5 12.7 21.6 17.8 33 3.2 6.3 5.3 13.1 6.3 20.1 1.1 4 0 8.2-2.9 11.2h-0.2z" fill="#EC6C00" p-id="11856"></path></svg>