<?xml version="1.0" standalone="no"?><!DOCTYPE svg PUBLIC "-//W3C//DTD SVG 1.1//EN" "http://www.w3.org/Graphics/SVG/1.1/DTD/svg11.dtd"><svg t="1715655121080" class="icon" viewBox="0 0 1024 1024" version="1.1" xmlns="http://www.w3.org/2000/svg" p-id="24201" xmlns:xlink="http://www.w3.org/1999/xlink" width="200" height="200"><path d="M656 272a144 144 0 1 0-192 136.64 48 48 0 0 1 32 46.08V776h32V454.72a48 48 0 0 1 32-45.76A144 144 0 0 0 656 272z" fill="#CCD8E5" p-id="24202"></path><path d="M512.008587 272.521934m-20.929639 143.117714a144.64 144.64 0 1 0 41.859279-286.235427 144.64 144.64 0 1 0-41.859279 286.235427Z" fill="#DFE8F4" p-id="24203"></path><path d="M496 256l68-38.72a2.08 2.08 0 0 1 2.72 2.88L528 288a24.16 24.16 0 0 1-26.88 12 23.68 23.68 0 0 1-14.56-34.56A24.8 24.8 0 0 1 496 256z" fill="#0795FF" p-id="24204"></path><path d="M882.72 750.08H141.28a13.28 13.28 0 0 0-13.28 13.28V832a13.44 13.44 0 0 0 13.28 13.44 24.8 24.8 0 0 1 24.96 24.8A24.96 24.96 0 0 0 192 896h19.04a24.96 24.96 0 0 0 24.96-24.96 24.96 24.96 0 0 1 24.96-24.96h502.88a24.96 24.96 0 0 1 24.96 24.96A24.96 24.96 0 0 0 813.76 896h19.04a24.96 24.96 0 0 0 24.96-24.96 24.8 24.8 0 0 1 24.96-24.8A13.44 13.44 0 0 0 896 832v-68.64a13.28 13.28 0 0 0-13.28-13.28z" fill="#CCD8E5" p-id="24205"></path><path d="M128 750.08m13.28 0l741.44 0q13.28 0 13.28 13.28l0 69.44q0 13.28-13.28 13.28l-741.44 0q-13.28 0-13.28-13.28l0-69.44q0-13.28 13.28-13.28Z" fill="#DFE8F4" p-id="24206"></path><path d="M222.24 490.88h296a34.88 34.88 0 0 1 34.88 34.88V704a45.28 45.28 0 0 1-45.28 45.28h-275.2A45.28 45.28 0 0 1 187.36 704V525.76a34.88 34.88 0 0 1 34.88-34.88z" fill="#156CDD" p-id="24207"></path><path d="M518.24 490.88h-296a34.72 34.72 0 0 0-34.88 34.88v92.96a45.28 45.28 0 0 0 45.28 45.28h275.2a45.28 45.28 0 0 0 45.28-45.28v-92.96a34.72 34.72 0 0 0-34.88-34.88z" fill="#0795FF" p-id="24208"></path><path d="M469.6 490.88h-30.4v-19.68A7.84 7.84 0 0 0 432 464h-123.04a7.84 7.84 0 0 0-7.68 7.68v19.68h-30.4v-26.24a32 32 0 0 1 32-32h134.72a32 32 0 0 1 32 32zM652.32 557.28h158.4a25.92 25.92 0 0 1 25.92 25.92v133.12a33.76 33.76 0 0 1-33.76 33.76h-142.88a33.76 33.76 0 0 1-33.76-33.76v-133.12a25.92 25.92 0 0 1 26.08-25.92z" fill="#156CDD" p-id="24209"></path><path d="M810.72 557.28h-158.4a26.08 26.08 0 0 0-25.92 25.92v69.12a33.6 33.6 0 0 0 33.6 33.76h143.04a33.6 33.6 0 0 0 33.6-33.76v-69.12a25.92 25.92 0 0 0-25.92-25.92z" fill="#0795FF" p-id="24210"></path><path d="M805.44 557.28h-22.72v-96a5.76 5.76 0 0 0-5.6-5.76h-91.04a5.76 5.76 0 0 0-5.76 5.76v96H657.6v-100.48a23.84 23.84 0 0 1 23.84-23.84h100.16a23.84 23.84 0 0 1 23.84 23.84z" fill="#156CDD" p-id="24211"></path></svg>