<?xml version="1.0" standalone="no"?><!DOCTYPE svg PUBLIC "-//W3C//DTD SVG 1.1//EN" "http://www.w3.org/Graphics/SVG/1.1/DTD/svg11.dtd"><svg t="1722580808979" class="icon" viewBox="0 0 1024 1024" version="1.1" xmlns="http://www.w3.org/2000/svg" p-id="7071" xmlns:xlink="http://www.w3.org/1999/xlink" width="200" height="200"><path d="M512 64a448 448 0 0 0-428.352 320h574.144a607.168 607.168 0 0 1 14.208 128 607.168 607.168 0 0 1-14.208 128H448v64h192.32a606.656 606.656 0 0 1-104.448 190.784C527.936 895.296 520.064 896 512 896s-15.936-0.704-23.872-1.216A595.84 595.84 0 0 1 448 838.4V955.008A448 448 0 1 0 512 64zM316.544 320H179.968a385.472 385.472 0 0 1 217.6-174.528A673.088 673.088 0 0 0 316.544 320zM384 320a606.784 606.784 0 0 1 104.192-190.784C496.128 128.704 503.936 128 512 128s15.936 0.704 23.872 1.216A606.656 606.656 0 0 1 640.32 320z m242.496-174.528A385.344 385.344 0 0 1 844.032 320h-136.64a670.976 670.976 0 0 0-80.896-174.528z m0 733.056A670.976 670.976 0 0 0 707.392 704h136.64a385.344 385.344 0 0 1-217.536 174.528zM723.2 640a652.8 652.8 0 0 0 0-256h150.4a376.896 376.896 0 0 1 0 256z" fill="#212121" p-id="7072"></path><path d="M352 992h-320v-512h320z" fill="#1F801F" opacity=".1" p-id="7073"></path><path d="M928 512A414.976 414.976 0 0 1 448 922.88V453.504L378.496 384H117.312A415.36 415.36 0 0 1 928 512z" fill="#212121" opacity=".1" p-id="7074"></path><path d="M352 448h-320l-32 32v512l32 32h320l32-32v-512zM320 960H64V512h256z m-64-64H128v-64h128z" fill="#1F801F" p-id="7075"></path></svg>