<?xml version="1.0" encoding="UTF-8" standalone="no"?>
<svg
  version="1.1"
  id="svg1"
  width="1500"
  height="1500"
  viewBox="0 0 1500 1500"
  xmlns="http://www.w3.org/2000/svg"
  xmlns:svg="http://www.w3.org/2000/svg">
  <defs
    id="defs1">
    <linearGradient id="grad" x1="0%" x2="100%" y1="0%" y2="0%">
      <stop offset="0%" style="stop-color: #2c7bb6;"></stop>
      <stop offset="20%" style="stop-color: #00a6ca;"></stop>
      <stop offset="40%" style="stop-color: #00ccbc;"></stop>
      <stop offset="100%" style="stop-color: #90eb9d;"></stop>
    </linearGradient>
    <linearGradient id="logoGradient" x1="100%" y1="100%">
      <stop offset="0%" stop-color="#2c7bb6" stop-opacity=".5">
        <!-- <animate attributeName="stop-color" values="#2c7bb6;#00a6ca;#00ccbc;#90eb9d;#00ccbc;#f9d057;#f29e2e;#e76818;#d7191c" dur="2s" repeatCount="indefinite" /> -->
      </stop>
      <stop offset="100%" stop-color="#d7191c" stop-opacity=".5">
        <!-- <animate attributeName="stop-color" values="#d7191c;#e76818;#f29e2e;#f9d057;#f29e2e;#90eb9d;#00ccbc;#00a6ca;#2c7bb6" dur="2s" repeatCount="indefinite" />
        <animate attributeName="offset" values=".99;.875;.75;.5;.375;.25;.125;0;.125;.25.375;.5;.625;.75;.875;.99" dur="2s" repeatCount="indefinite" /> -->
      </stop>
    </linearGradient>
    <style>
    #path{
      stroke-dasharray: 150 700;
      <!-- animation: dash 8s linear forwards infinite; -->
      animation-name: dash;
      animation-duration: 12s;
      animation-iteration-count: infinite;
      animation-fill-mode: forwards;
      animation-direction: normal;
      animation-timing-function: ease-in-out;
    }
    .animated-path {
      stroke-dasharray: 150 700;
      animation-name: dash;
      animation-duration: 6s;
      animation-iteration-count: infinite;
      animation-fill-mode: forwards;
      animation-direction: normal;
      animation-timing-function: ease-in-out;
    }
    @keyframes dash {
      0%{
        stroke-dashoffset: 800;
      }

      100%{
        stroke-dashoffset: 150;
      }
    }
    </style>
  </defs>
  <g id="g1" stroke="url(#grad)" stroke-width="10" fill="none" fill-rule="evenodd">
    <!-- <circle cx="200" cy="200" r="50" stroke="#333" fill="red" opacity="0.2" >
      <animate  attributeType="CSS" attributeName="r" from="50" to="0" dur="5s" repeatCount="indefinite"/>
    </circle> -->
    <!-- <path stroke="gray"
      d="m 594,654 h 299 m -71,47 c 0,6.01013 0,9.45013 0,15 0,7.78229 0,18.07733 0,26 0,4.67505 -1.72522,9.06409 1.60339,10.74384 2.53522,1.27935 6.10535,-2.8559 7.82099,-4.75849 2.59094,-2.87329 6.13238,-6.39514 9.57562,-8.51697 5.36969,-3.30896 10.98328,-4.46917 17,-4.46685 12.56653,0.005 16.34906,8.47662 18.38501,19.99847 0.59192,3.34985 0.60974,5.74976 0.61499,9 0.01,6.03772 4.3e-4,13.85681 0,20 -4.3e-4,6.11224 -0.86646,10.5285 -1,17 M 677,786 c -4.66852,6.12732 -9.74451,11.56158 -17,15.18982 -5.28876,2.64471 -11.15674,3.87512 -17,3.79169 -4.55658,-0.0651 -8.15497,-1.14038 -12,-3.46064 C 618.44531,793.94489 615.8833,779.58704 618.46759,766 621.43518,750.39746 636.7182,734.55188 653,734.12885 c 8.17078,-0.21229 13.18811,3.05975 18,9.87115 m 26,-8 c 7.84259,13.59875 10.25922,33.84991 14.57867,49 0.91108,3.19543 1.84784,7.18903 2.90052,9.99536 0.62854,1.67566 1.39428,3.99158 3.63885,4.659 4.10272,1.21997 6.00153,-5.03607 7.54865,-9.65436 2.91284,-8.69501 6.05365,-17.24487 9.00073,-26 1.52356,-4.52625 3.79608,-10.77789 5.34955,-14.99847 1.28967,-3.50391 2.60461,-5.19965 3.98303,-7.00153 2.0755,2.22449 4.13348,4.26306 5.60107,8 3.61792,9.21246 8.2027,27.68762 11.37421,38 1.71332,5.57098 1.2569,10.47137 6.1142,11.21759 3.39734,0.52197 5.62768,-5.53717 7.25464,-10.21759 6.02075,-17.32062 13.55597,-35.27844 17.65588,-53 m -48,4 v 2 m 79,12 -1,29 v 8 10 m -228,46 h 46 c 4.06598,0 12.5672,-1.50269 14.96838,1.60339 2.78528,3.60285 -1.34942,12.76978 -2.67749,17.39661 -4.03845,14.0697 -8.02148,31.18732 -9.29089,38 4.71326,0.68353 6.61176,-0.18933 11,-4.10803 9.59534,-8.56867 17.50232,-18.1659 26.01465,-26.89197 6.6029,-6.76868 11.6532,-11.70038 17.98535,-17.99921 3.12531,-3.10882 5.79498,-6.41687 10,-7.56714 C 713.30676,845.98206 720.47845,847 726,847 h 39 128 m -248,58 -4,5"
      />
    <path stroke="url(#grad)"
      d="m 594,654 h 299 m -71,47 c 0,6.01013 0,9.45013 0,15 0,7.78229 0,18.07733 0,26 0,4.67505 -1.72522,9.06409 1.60339,10.74384 2.53522,1.27935 6.10535,-2.8559 7.82099,-4.75849 2.59094,-2.87329 6.13238,-6.39514 9.57562,-8.51697 5.36969,-3.30896 10.98328,-4.46917 17,-4.46685 12.56653,0.005 16.34906,8.47662 18.38501,19.99847 0.59192,3.34985 0.60974,5.74976 0.61499,9 0.01,6.03772 4.3e-4,13.85681 0,20 -4.3e-4,6.11224 -0.86646,10.5285 -1,17 M 677,786 c -4.66852,6.12732 -9.74451,11.56158 -17,15.18982 -5.28876,2.64471 -11.15674,3.87512 -17,3.79169 -4.55658,-0.0651 -8.15497,-1.14038 -12,-3.46064 C 618.44531,793.94489 615.8833,779.58704 618.46759,766 621.43518,750.39746 636.7182,734.55188 653,734.12885 c 8.17078,-0.21229 13.18811,3.05975 18,9.87115 m 26,-8 c 7.84259,13.59875 10.25922,33.84991 14.57867,49 0.91108,3.19543 1.84784,7.18903 2.90052,9.99536 0.62854,1.67566 1.39428,3.99158 3.63885,4.659 4.10272,1.21997 6.00153,-5.03607 7.54865,-9.65436 2.91284,-8.69501 6.05365,-17.24487 9.00073,-26 1.52356,-4.52625 3.79608,-10.77789 5.34955,-14.99847 1.28967,-3.50391 2.60461,-5.19965 3.98303,-7.00153 2.0755,2.22449 4.13348,4.26306 5.60107,8 3.61792,9.21246 8.2027,27.68762 11.37421,38 1.71332,5.57098 1.2569,10.47137 6.1142,11.21759 3.39734,0.52197 5.62768,-5.53717 7.25464,-10.21759 6.02075,-17.32062 13.55597,-35.27844 17.65588,-53 m -48,4 v 2 m 79,12 -1,29 v 8 10 m -228,46 h 46 c 4.06598,0 12.5672,-1.50269 14.96838,1.60339 2.78528,3.60285 -1.34942,12.76978 -2.67749,17.39661 -4.03845,14.0697 -8.02148,31.18732 -9.29089,38 4.71326,0.68353 6.61176,-0.18933 11,-4.10803 9.59534,-8.56867 17.50232,-18.1659 26.01465,-26.89197 6.6029,-6.76868 11.6532,-11.70038 17.98535,-17.99921 3.12531,-3.10882 5.79498,-6.41687 10,-7.56714 C 713.30676,845.98206 720.47845,847 726,847 h 39 128 m -248,58 -4,5"
      id="path" /> -->
    <!-- <path stroke="red"
      d="m 637.5,915.94481 c -1.85365,-1.2047 -2.86766,-2.61749 -2.65366,-3.69727 0.19048,-0.96115 4.05915,-15.13504 8.59703,-31.49754 L 651.69408,851 h -30.90183 -30.90183 l 0.30479,-4.75 0.30479,-4.75 36.75,-0.26232 c 27.45335,-0.19596 36.75,0.0324 36.75,0.90268 0,0.90953 -12.47185,47.16042 -14.5236,53.85964 -0.25267,0.825 12.02428,-11.22631 27.2821,-26.78068 L 704.5,840.93864 801.25,840.96932 898,841 v 5 5 l -94.75,0.0158 -94.75,0.0158 -32.5,33.23419 c -17.875,18.2788 -33.175,33.32296 -34,33.43146 -0.825,0.1085 -2.85,-0.68011 -4.5,-1.75246 z m -4.16755,-108.72982 c -14.54499,-5.21232 -21.14589,-16.81379 -20.0912,-35.31147 0.42536,-7.46032 1.06342,-10.01265 4.10327,-16.4137 4.70985,-9.91761 12.78794,-18.44565 21.56197,-22.76296 5.83637,-2.87183 7.49507,-3.22638 15.07571,-3.22247 7.52266,0.004 9.07536,0.33162 13.29019,2.80528 2.62482,1.54048 5.92281,4.53928 7.32887,6.66398 2.21118,3.34132 2.39054,4.17802 1.3279,6.19472 -2.67742,5.0813 -5.83914,5.07715 -9.20704,-0.0121 -5.06689,-7.65659 -13.47514,-9.1189 -23.53333,-4.09277 -7.08941,3.54262 -12.94951,9.70415 -16.89055,17.75934 -2.21038,4.51786 -2.79115,7.26937 -3.08611,14.62114 -0.33506,8.35132 -0.14346,9.4835 2.46227,14.54981 1.84486,3.58697 4.33197,6.53723 7.16561,8.5 3.90118,2.70223 5.11452,3.00619 12,3.00619 9.6098,0 16.13281,-2.9394 25.63716,-11.55263 5.9897,-5.42811 10.52283,-7.54222 10.52283,-4.90753 0,2.51171 -4.57895,9.63435 -9.10033,14.15573 -10.05568,10.05568 -26.52595,14.33451 -38.56722,10.01942 z M 715.51111,806.75 c -2.19074,-1.89552 -4.09792,-7.43464 -12.10556,-35.15879 -5.22783,-18.09983 -9.93274,-33.70775 -10.45535,-34.68426 -0.52261,-0.97651 -0.9502,-2.69648 -0.9502,-3.82216 0,-4.44314 9.72935,-3.58729 11.11473,0.97771 0.40685,1.34063 4.2447,15.42082 8.52856,31.28932 4.28386,15.8685 7.98691,28.2435 8.229,27.5 0.24209,-0.7435 4.00009,-11.47682 8.35112,-23.85182 4.35103,-12.375 8.69865,-25.65 9.66138,-29.5 1.60338,-6.41203 1.98475,-7.02745 4.5403,-7.3268 3.78957,-0.44389 8.57491,1.67522 8.57491,3.79726 0,1.54827 15.0661,52.35871 16.61365,56.02954 0.35695,0.84669 5.28283,-12.4373 11.30981,-30.5 11.53565,-34.57205 11.18025,-33.93187 17.50303,-31.52795 3.65293,1.38884 3.70917,1.13775 -6.80616,30.38648 -4.71762,13.12219 -10.22756,28.87219 -12.24432,35 -2.01676,6.12781 -4.14303,11.74798 -4.72504,12.48927 C 770.50865,810.57643 761,807.0404 761,803.5151 c 0,-1.79687 -15.09583,-51.9106 -15.89348,-52.7617 -0.62734,-0.66937 -10.87165,26.89209 -17.74692,47.7466 -1.45058,4.4 -3.08001,8.5625 -3.62096,9.25 -1.52902,1.94328 -5.36467,1.47708 -8.22753,-1 z m 103.57918,-0.5 -2.13127,-1.75 0.27049,-55 0.27049,-55 2.30782,-0.32713 c 1.26929,-0.17992 3.40679,0.39296 4.75,1.27306 L 827,697.04611 v 24.41173 24.41173 l 5.25,-5.23427 c 12.76419,-12.72593 32.07997,-15.30533 41.80301,-5.58229 6.64081,6.64081 7.34915,10.84482 7.40173,43.92955 0.0426,26.81901 -0.0616,28.50336 -1.78384,28.83856 -1.006,0.1958 -3.11292,-0.17578 -4.68204,-0.82574 l -2.85295,-1.18173 -0.31796,-28.65682 c -0.34733,-31.30465 -0.65235,-33.03654 -6.49226,-36.863 -5.70424,-3.73756 -18.10254,-1.17589 -26.12482,5.39777 -9.1884,7.5292 -12.11543,18.72708 -12.16999,46.5584 L 827,808 h -2.88922 c -1.58906,0 -3.84829,-0.7875 -5.02049,-1.75 z M 590.66667,658.33333 C 590.3,657.96667 590,655.71667 590,653.33333 V 649 h 154 154 v 5 5 H 744.66667 c -84.33334,0 -153.63334,-0.3 -154,-0.66667 z"
      id="path" /> -->
    <path stroke-width="5"
      fill="url(#logoGradient)"
      class="animated-path"
      d="M 590.66667,658.33333 C 590.3,657.96667 590,655.71667 590,653.33333 V 649 H 649.16773 744 898 v 5 5 H 744.66667 c -84.33334,0 -153.63334,-0.3 -154,-0.66667 z"
      id="path10" />
    <path
      fill="url(#logoGradient)"
      class="animated-path"
      d="m 819.09029,806.25 -2.13127,-1.75 0.27049,-55 0.27049,-55 2.30782,-0.32713 c 1.26929,-0.17992 3.40679,0.39296 4.75,1.27306 L 827,697.04611 v 24.41173 24.41173 l 5.25,-5.23427 c 12.76419,-12.72593 32.07997,-15.30533 41.80301,-5.58229 6.64081,6.64081 7.34915,10.84482 7.40173,43.92955 0.0426,26.81901 -0.0616,28.50336 -1.78384,28.83856 -1.006,0.1958 -3.11292,-0.17578 -4.68204,-0.82574 l -2.85295,-1.18173 -0.31796,-28.65682 c -0.34733,-31.30465 -0.65235,-33.03654 -6.49226,-36.863 -5.70424,-3.73756 -18.10254,-1.17589 -26.12482,5.39777 -9.1884,7.5292 -12.11543,18.72708 -12.16999,46.5584 L 827,808 h -2.88922 c -1.58906,0 -3.84829,-0.7875 -5.02049,-1.75 z"
      id="path9" />
    <path
      fill="url(#logoGradient)"
      class="animated-path"
      d="m 715.51111,806.75 c -2.19074,-1.89552 -4.09792,-7.43464 -12.10556,-35.15879 -5.22783,-18.09983 -9.93274,-33.70775 -10.45535,-34.68426 -0.52261,-0.97651 -0.9502,-2.69648 -0.9502,-3.82216 0,-4.44314 9.72935,-3.58729 11.11473,0.97771 0.40685,1.34063 4.2447,15.42082 8.52856,31.28932 4.28386,15.8685 7.98691,28.2435 8.229,27.5 0.24209,-0.7435 4.00009,-11.47682 8.35112,-23.85182 4.35103,-12.375 8.69865,-25.65 9.66138,-29.5 1.60338,-6.41203 1.98475,-7.02745 4.5403,-7.3268 3.78957,-0.44389 8.57491,1.67522 8.57491,3.79726 0,1.54827 15.0661,52.35871 16.61365,56.02954 0.35695,0.84669 5.28283,-12.4373 11.30981,-30.5 11.53565,-34.57205 11.18025,-33.93187 17.50303,-31.52795 3.65293,1.38884 3.70917,1.13775 -6.80616,30.38648 -4.71762,13.12219 -10.22756,28.87219 -12.24432,35 -2.01676,6.12781 -4.14303,11.74798 -4.72504,12.48927 C 770.50865,810.57643 761,807.0404 761,803.5151 c 0,-1.79687 -15.09583,-51.9106 -15.89348,-52.7617 -0.62734,-0.66937 -10.87165,26.89209 -17.74692,47.7466 -1.45058,4.4 -3.08001,8.5625 -3.62096,9.25 -1.52902,1.94328 -5.36467,1.47708 -8.22753,-1 z"
      id="path8" />
    <path
      fill="url(#logoGradient)"
      class="animated-path"
      d="m 633.33245,807.21499 c -14.54499,-5.21232 -21.14589,-16.81379 -20.0912,-35.31147 0.42536,-7.46032 1.06342,-10.01265 4.10327,-16.4137 4.70985,-9.91761 12.78794,-18.44565 21.56197,-22.76296 5.83637,-2.87183 7.49507,-3.22638 15.07571,-3.22247 7.52266,0.004 9.07536,0.33162 13.29019,2.80528 2.62482,1.54048 5.92281,4.53928 7.32887,6.66398 2.21118,3.34132 2.39054,4.17802 1.3279,6.19472 -2.67742,5.0813 -5.83914,5.07715 -9.20704,-0.0121 -5.06689,-7.65659 -13.47514,-9.1189 -23.53333,-4.09277 -7.08941,3.54262 -12.94951,9.70415 -16.89055,17.75934 -2.21038,4.51786 -2.79115,7.26937 -3.08611,14.62114 -0.33506,8.35132 -0.14346,9.4835 2.46227,14.54981 1.84486,3.58697 4.33197,6.53723 7.16561,8.5 3.90118,2.70223 5.11452,3.00619 12,3.00619 9.6098,0 16.13281,-2.9394 25.63716,-11.55263 5.9897,-5.42811 10.52283,-7.54222 10.52283,-4.90753 0,2.51171 -4.57895,9.63435 -9.10033,14.15573 -10.05568,10.05568 -26.52595,14.33451 -38.56722,10.01942 z"
      id="path7" />
    <path stroke-width="5"
       fill="url(#logoGradient)"
       class="animated-path"
       d="m 637.5,915.94481 c -1.85365,-1.2047 -2.86766,-2.61749 -2.65366,-3.69727 0.19048,-0.96115 4.05915,-15.13504 8.59703,-31.49754 L 651.69408,851 h -30.90183 -30.90183 l 0.30479,-4.75 0.30479,-4.75 36.75,-0.26232 c 27.45335,-0.19596 36.75,0.0324 36.75,0.90268 0,0.90953 -12.47185,47.16042 -14.5236,53.85964 -0.25267,0.825 12.02428,-11.22631 27.2821,-26.78068 L 704.5,840.93864 801.25,840.96932 898,841 v 5 5 l -94.75,0.0158 -94.75,0.0158 -32.5,33.23419 c -17.875,18.2788 -33.175,33.32296 -34,33.43146 -0.825,0.1085 -2.85,-0.68011 -4.5,-1.75246 z"
       id="path4" />
    <!-- <circle cx="100" cy="100" r="10" fill="red">
      <animateMotion begin="0s" dur="5s">
        <mpath xlink:href="#path10"/>
      </animateMotion>
    </circle> -->
  </g>
</svg>
