<?xml version="1.0" standalone="no"?><!DOCTYPE svg PUBLIC "-//W3C//DTD SVG 1.1//EN" "http://www.w3.org/Graphics/SVG/1.1/DTD/svg11.dtd"><svg t="1739249981748" class="icon" viewBox="0 0 3282 1024" version="1.1" xmlns="http://www.w3.org/2000/svg" p-id="5186" xmlns:xlink="http://www.w3.org/1999/xlink" width="820.5" height="256"><path d="M1839.312032 516.804529c-0.435056-13.069815-2.507616-25.051989-6.211636-35.952565-3.697978-10.888491-9.25703-20.357007-16.659029-28.423675-7.420126-8.060626-16.671114-14.387069-27.783176-18.95516-11.112062-4.574133-24.079155-6.870263-38.889195-6.870263-14.374984 0-27.559605 2.725144-39.541779 8.16939-11.994259 5.462373-22.121402 12.538079-30.399555 21.245247a98.346882 98.346882 0 0 0-19.281452 29.088344c-4.574133 10.683048-6.858178 21.245247-6.858178 31.698682h185.624z m-185.624 47.058584c0 13.516956 2.942672 25.825422 8.821974 36.937484a91.935845 91.935845 0 0 0 23.203 28.429718c9.57728 7.843097 20.689342 13.94597 33.336185 18.296532a119.144988 119.144988 0 0 0 39.215487 6.537929c18.302575 0 34.200255-4.241798 47.723254-12.743523 13.492786-8.495682 25.916059-19.710465 37.251691-33.662477l44.442205 33.994812c-32.683601 42.266923-78.437017 63.397364-137.260247 63.397363-24.405447 0-46.520807-4.151162-66.340036-12.41723-19.831314-8.272111-36.60515-19.716508-50.333591-34.321104-13.716357-14.592512-24.296683-31.801403-31.698682-51.626675-7.414084-19.831314-11.112062-41.288047-11.112062-64.394368 0-23.088194 4.030313-44.544926 12.096981-64.37624 8.054583-19.819229 19.166645-37.034163 33.330143-51.632718 14.157455-14.598554 31.046097-26.036908 50.659883-34.321104 19.601701-8.272111 40.94967-12.41723 64.055991-12.41723 27.450841 0 50.653841 4.797704 69.609 14.387068 18.955159 9.583322 34.526547 22.109317 46.732292 37.577984 12.19366 15.474709 21.021676 32.907171 26.471964 52.285302a217.914842 217.914842 0 0 1 8.16939 59.155565v20.912912H1653.688032z m299.34287-176.475734h58.823231v47.711169h1.305169c7.401999-16.556307 20.26637-29.952414 38.562902-40.194364 18.302575-10.235907 39.433015-15.359903 63.397364-15.359902 14.816082 0 29.094387 2.290088 42.810744 6.86422 13.728442 4.580176 25.710616 11.661924 35.952565 21.239205 10.235907 9.595407 18.405296 21.897831 24.514211 36.937484 6.09683 15.027568 9.154309 32.792365 9.154309 53.264179v199.358484h-58.835316V514.194191c0-14.387069-1.957753-26.689492-5.873259-36.931441-3.927591-10.229864-9.154309-18.51406-15.69828-24.834461a58.805103 58.805103 0 0 0-22.544373-13.728442 83.113871 83.113871 0 0 0-26.465922-4.253883c-12.211787 0-23.535335 1.963796-33.994812 5.885344s-19.601701 10.133185-27.456884 18.628867c-7.843097 8.495682-13.94597 19.281451-18.296532 32.351266-4.356605 13.0819-6.531886 28.550566-6.531886 46.412042v159.484371h-58.823231V387.387379m293.421272 0h68.037963l92.812 237.280888 88.884409-237.280888h62.72061l-121.574052 309.790263H2372.618486l-126.166312-309.790263m379.163607 154.904195c0 15.69828 2.386767 30.182027 7.184471 43.469371 4.791661 13.30547 11.547118 24.622975 20.26637 33.994812 8.707167 9.365794 19.378131 16.779878 32.024974 22.218081 12.634759 5.45633 26.798257 8.16939 42.484451 8.169389s29.84365-2.713059 42.484452-8.169389c12.634759-5.438203 23.305722-12.852287 32.024974-22.218081 8.71321-9.371837 15.462624-20.689342 20.26637-33.994812 4.791661-13.287343 7.190513-27.771091 7.190513-43.469371 0-15.686195-2.398852-30.1639-7.190513-43.457285-4.803746-13.287343-11.55316-24.616933-20.26637-33.994812-8.719252-9.359752-19.390215-16.761751-32.024974-22.224124-12.640801-5.438203-26.798257-8.16939-42.484452-8.169389s-29.849693 2.731186-42.484451 8.169389c-12.646844 5.462373-23.317807 12.864372-32.024974 22.224124-8.719252 9.377879-15.474709 20.707469-20.26637 33.994812-4.797704 13.293385-7.184471 27.771091-7.184471 43.457285z m-62.750822 0c0-22.647095 4.253883-43.783578 12.743523-63.397364 8.495682-19.607744 20.151564-36.810593 34.967646-51.63876 14.81004-14.803997 32.242502-26.465922 52.291345-34.967646 20.036757-8.495682 41.602254-12.743523 64.708574-12.743522 23.088194 0 44.659733 4.247841 64.708575 12.743522 20.036757 8.501724 37.475262 20.163649 52.297387 34.967646a165.617455 165.617455 0 0 1 34.967646 51.63876c8.489639 19.613786 12.743523 40.750269 12.743523 63.397364 0 22.665222-4.253883 43.910469-12.743523 63.735741-8.501724 19.837357-20.163649 37.040206-34.967646 51.63876-14.822125 14.598554-32.260629 26.13963-52.297387 34.641354-20.048842 8.495682-41.620381 12.743523-64.708575 12.743522-23.106321 0-44.671818-4.247841-64.708574-12.743522-20.048842-8.501724-37.481304-20.0428-52.291345-34.641354-14.816082-14.598554-26.471964-31.801403-34.967646-51.63876-8.489639-19.825272-12.743523-41.070519-12.743523-63.735741z m333.99631-154.904195h67.977539l91.742487 241.842936h1.317253l87.996169-241.842936h62.74478l-147.061098 376.486803a401.399816 401.399816 0 0 1-16.278355 36.937484c-5.637604 11.099977-12.368891 20.58662-20.169691 28.429718-7.818928 7.843097-17.251189 13.939927-28.326996 18.296532-11.063722 4.350563-24.622975 6.537929-40.677759 6.537929-8.682998 0-17.474759-0.549863-26.3632-1.637504a95.349828 95.349828 0 0 1-25.710616-6.858178l7.154258-53.596513c11.680052 4.791661 23.372189 7.184471 35.064325 7.18447 9.087842 0 16.773835-1.202447 23.057982-3.589214a45.578185 45.578185 0 0 0 16.236057-10.465519 61.288549 61.288549 0 0 0 11.365845-16.012487c3.021224-6.102872 6.054533-13.069815 9.093884-20.912913l19.039753-49.02238-128.202617-311.778228" fill="#FFFFFE" p-id="5187"></path><path d="M399.632347 494.59249l1.945668 82.14708 86.503684 53.608598-1.939625-82.177292-86.509727-53.578386" fill="#953984" p-id="5188"></path><path d="M610.76152 836.014968l-1.891286-80.455194-75.808552-46.97399c-1.123895-0.700924-2.120899-1.522697-3.214582-2.259876l1.915456 80.727104 78.998964 48.961956m-270.097423 108.322964L142.882692 821.785003l-4.809789-205.672843 96.963162-41.813739L233.090397 492.151341 78.343306 558.866009c-11.903622 5.178378-19.057881 16.097081-18.767844 28.834561l5.806793 246.743361c0.290038 12.731438 8.024371 25.197008 20.248243 32.82862l237.190251 146.988588c11.051637 6.834009 24.381277 8.707167 35.62023 5.154208 1.190362-0.374632 2.27196-0.803646 3.353559-1.226617l145.550485-62.744779-78.944582-48.943828-87.736344 37.837809" fill="#953984" p-id="5189"></path><path d="M979.71339 489.891466c-0.362547-14.791913-9.347667-29.444849-23.619929-38.254738l-287.970983-178.475785-8.888441 3.836955 2.036305 86.358666 228.0299 141.272432 5.450288 231.063209 87.210651 54.043654 4.755406-2.054432-7.003197-297.789961" fill="#AC6199" p-id="5190"></path><path d="M634.846717 895.490783L367.311293 729.686012 360.737109 451.37086l121.88826-52.50283-2.259876-95.857394L291.109982 384.595768C277.230479 390.644258 268.861689 403.454248 269.224236 418.240118l7.704121 326.261976c0.290038 14.816082 9.317455 29.366297 23.589716 38.182228l313.578878 194.391593c12.918754 7.994159 28.45993 10.163397 41.559957 6.02432 1.341423-0.422971 2.646592-0.918452 3.909464-1.486442l185.237283-79.850949-92.111076-57.076963-117.845862 50.804902" fill="#AC6199" p-id="5191"></path><path d="M978.807023 832.347202l-349.440806-216.543206-8.592361-363.453243 340.86053-146.910037 349.404551 216.464655 8.592361 363.453243-340.824275 146.988588z m408.632626-570.969032L985.369121 12.163448C970.534912 2.972884 952.854709 0.549863 937.730462 5.329439a48.641706 48.641706 0 0 0-4.374732 1.619376L541.176689 176.07089c-15.885596 6.852136-25.438706 21.444648-25.039904 38.387672l9.861275 418.27033c0.392759 16.943024 10.71326 33.583926 27.0037 43.680856l402.040315 249.136171c14.779828 9.154309 32.466073 11.643797 47.499683 6.894433 1.486442-0.471311 3.015182-1.033259 4.507667-1.673758l392.215295-169.049566c15.885596-6.852136 25.402451-21.517157 25.003649-38.466223l-9.818978-418.191779c-0.398802-16.943024-10.719303-33.589968-27.009742-43.680856z" fill="#C04589" p-id="5192"></path></svg>