<?xml version="1.0" standalone="no"?><!DOCTYPE svg PUBLIC "-//W3C//DTD SVG 1.1//EN" "http://www.w3.org/Graphics/SVG/1.1/DTD/svg11.dtd"><svg t="1724119165735" class="icon" viewBox="0 0 1024 1024" version="1.1" xmlns="http://www.w3.org/2000/svg" p-id="17538" xmlns:xlink="http://www.w3.org/1999/xlink" width="200" height="200"><path d="M637.522581 196.541935h-69.367742v-18.167741c0-14.864516-11.56129-26.425806-26.425807-26.425807h-18.167742c-4.954839 1.651613-8.258065 6.606452-8.258064 11.56129 0 4.954839 3.303226 9.909677 8.258064 11.561291h19.819355c1.651613 0 3.303226 1.651613 3.303226 3.303226V414.554839c0 1.651613-1.651613 3.303226-3.303226 3.303226h-155.251613c-1.651613 0-3.303226-1.651613-3.303226-3.303226V178.374194c0-1.651613 1.651613-3.303226 3.303226-3.303226h89.187097v-1.651613c3.303226-1.651613 6.606452-6.606452 6.606452-9.909678 0-4.954839-3.303226-8.258065-6.606452-9.909677v-1.651613h-89.187097c-14.864516 0-26.425806 11.56129-26.425806 26.425807v237.832258c0 14.864516 11.56129 26.425806 26.425806 26.425806h69.367742v18.167742c0 14.864516 11.56129 26.425806 26.425807 26.425806h155.251613c14.864516 0 26.425806-11.56129 26.425806-26.425806V222.967742c-1.651613-14.864516-13.212903-26.425806-28.077419-26.425807z m0 23.122581c1.651613 0 3.303226 1.651613 3.303225 3.303226v237.832258c0 1.651613-1.651613 3.303226-3.303225 3.303226h-155.251613c-1.651613 0-3.303226-1.651613-3.303226-3.303226v-18.167742h62.76129c14.864516 0 26.425806-11.56129 26.425807-26.425806V396.387097l39.638709-39.63871c8.258065-8.258065 11.56129-18.167742 11.561291-28.077419 0-23.122581-18.167742-41.290323-41.290323-41.290323-3.303226 0-8.258065 0-11.56129 1.651613v-67.716129h71.019355z m-69.367742 97.445161c1.651613-4.954839 8.258065-8.258065 11.56129-8.258064 9.909677 0 18.167742 8.258065 18.167742 18.167742 0 4.954839-1.651613 9.909677-4.954839 13.212903L568.154839 363.354839v-46.245162z" fill="#ED7029" p-id="17539"></path><path d="M406.296774 297.290323l56.154839 67.716129 56.154839-67.716129-56.154839-67.716129-56.154839 67.716129z m80.929032 0l-26.425806 31.380645-24.774194-31.380645 26.425807-31.380646 24.774193 31.380646z" fill="#ED7029" p-id="17540"></path><path d="M512 24.774194c269.212903 0 487.225806 218.012903 487.225806 487.225806S781.212903 999.225806 512 999.225806 24.774194 781.212903 24.774194 512 242.787097 24.774194 512 24.774194M512 0C229.574194 0 0 229.574194 0 512s229.574194 512 512 512 512-229.574194 512-512S794.425806 0 512 0z" fill="#ED7029" p-id="17541"></path><path d="M507.045161 809.290323H478.967742v-99.096775h-110.658065v99.096775h-28.077419V589.625806h28.077419v95.793549H478.967742v-95.793549h28.077419V809.290323zM559.896774 774.606452c14.864516 9.909677 29.729032 14.864516 46.245161 14.864516 14.864516 0 28.077419-4.954839 36.335484-13.212903 9.909677-8.258065 13.212903-19.819355 13.212904-33.032259 0-14.864516-4.954839-24.774194-14.864517-33.032258-9.909677-8.258065-23.122581-11.56129-41.290322-11.56129-8.258065 0-19.819355 0-34.683871 1.651613v-112.309677h109.006452v24.774193h-82.580646v62.76129h18.167742c23.122581 0 41.290323 6.606452 54.503226 18.167742s19.819355 28.077419 19.819355 47.896775c0 21.470968-6.606452 37.987097-21.470968 51.2s-33.032258 19.819355-57.806451 19.819354c-19.819355 0-36.335484-3.303226-46.245162-9.909677v-28.077419z" p-id="17542"></path></svg>