<?xml version="1.0" standalone="no"?><!DOCTYPE svg PUBLIC "-//W3C//DTD SVG 1.1//EN" "http://www.w3.org/Graphics/SVG/1.1/DTD/svg11.dtd"><svg t="1731377790350" class="icon" viewBox="0 0 1024 1024" version="1.1" xmlns="http://www.w3.org/2000/svg" p-id="5218" xmlns:xlink="http://www.w3.org/1999/xlink" width="200" height="200"><path d="M407.376842 57.626947A469.450105 469.450105 0 0 1 683.52 82.189474l6.656 2.775579-19.482947 45.662315A419.84 419.84 0 0 0 417.684211 106.172632C189.763368 154.624 44.261053 378.691368 92.712421 606.625684c48.437895 227.934316 272.505263 373.436632 500.439579 324.985263 227.934316-48.437895 373.436632-272.505263 324.985263-500.439579a426.091789 426.091789 0 0 0-15.171368-53.827368l-3.193263-8.704 46.403368-17.610105a475.001263 475.001263 0 0 1 20.520421 69.820631c54.164211 254.760421-108.463158 505.168842-363.223579 559.319579-254.760421 54.164211-505.168842-108.463158-559.319579-363.223579-54.150737-254.760421 108.463158-505.168842 363.223579-559.319579z" fill="#9C82D4" p-id="5219"></path><path d="M842.266947 60.793263a121.263158 121.263158 0 1 1 0 242.526316 121.263158 121.263158 0 0 1 0-242.526316z m70.912 102.117053h-140.395789v38.29221h140.395789v-38.29221z" fill="#9C82D4" p-id="5220"></path><path d="M525.473684 700.631579v40.421053h121.263158v40.421052H377.263158v-40.421052h121.263158v-40.421053h26.947368z m185.290105-377.249684L242.526316 323.368421v256h538.947368V385.697684a114.499368 114.499368 0 0 0 40.421053 4.850527V687.157895H202.105263V282.947368h498.714948a113.893053 113.893053 0 0 0 9.943578 40.434527z m-129.024 26.947368l3.233685 0.229053c24.522105 3.772632 22.932211 30.773895 19.2 44.813473-4.271158 14.578526-11.735579 24.306526-11.735579 24.306527s13.338947-34.56 4.796631-49.677474c-6.4-11.344842-16.006737-13.500632-30.949052-9.728-8.003368 1.616842-17.071158 8.097684-22.406737 11.88379 17.071158 5.928421 29.345684 17.273263 38.938947 29.696 12.692211 17.381053 14.389895 41.445053 14.497684 51.725473v2.344421c-0.013474 1.347368-0.053895 2.223158-0.080842 2.519579v0.10779h-115.253894s1.589895 31.326316 28.281263 31.326316c27.782737 0 31.258947-16.074105 31.461052-17.219369l0.013474-0.067368h53.894737c-3.193263 19.981474-17.071158 39.962947-36.810105 50.768842-10.145684 5.389474-38.426947 12.948211-66.708211 6.467368-16.545684 18.364632-37.349053 25.384421-52.291368 21.61179-16.006737-3.786105-33.616842-27.001263-12.274527-80.464842 0.808421-2.021053 1.603368-3.435789 2.398316-4.931369l0.808421-1.549474v-0.538947c21.342316-45.352421 65.616842-77.217684 65.616842-77.217684-28.806737 11.344842-56.549053 39.962947-65.616842 55.619368 2.128842-16.195368 8.003368-30.787368 14.403369-39.424 18.135579-23.754105 38.952421-34.56 70.965894-34.021052 4.271158 0 9.067789 0.538947 12.8 1.077894 10.994526-7.720421 30.949053-18.917053 49.542737-19.631157l3.274105-0.013474z m-146.189473 131.449263c-7.464421 24.293053-6.4 41.579789 0 51.833263 7.464421 11.344842 26.138947 13.500632 49.098105-5.389473a81.650526 81.650526 0 0 1-32.026947-19.994948 79.925895 79.925895 0 0 1-17.071158-26.448842z m73.10821-75.600842c-23.120842 1.562947-24.966737 22.635789-25.074526 24.198737v0.094316l60.294737 1.077895c-3.206737-17.812211-13.877895-27.540211-35.220211-25.370948z" fill="#9C82D4" p-id="5221"></path></svg>