<?xml version="1.0" standalone="no"?><!DOCTYPE svg PUBLIC "-//W3C//DTD SVG 1.1//EN" "http://www.w3.org/Graphics/SVG/1.1/DTD/svg11.dtd"><svg t="1724119018365" class="icon" viewBox="0 0 1024 1024" version="1.1" xmlns="http://www.w3.org/2000/svg" p-id="7476" xmlns:xlink="http://www.w3.org/1999/xlink" width="200" height="200"><path d="M382.141 426.231L201.877 319.542V260.46l180.264-106.201v69.58l-125.737 65.43 125.737 67.871v69.091zM464.944 473.106l65.11-370.117h37.847l-65.828 370.117h-37.129zM650.704 426.476v-69.092l125.916-67.383-125.916-66.65v-68.604l180.443 106.201v58.594L650.704 426.476zM74.602 852.714V509.12h41.67v343.594h-41.67zM121.301 852.714V509.12h141.887v58.125H162.971v81.328h86.785v58.125h-86.785v146.016h-41.67z" p-id="7477"></path><path d="M262.533 852.714V509.12h87.991c22.498 0 38.571 3.087 48.214 9.258 9.643 6.174 17.563 16.875 23.762 32.109 6.199 15.234 9.299 33.479 9.299 54.727 0 26.876-4.735 48.516-14.206 64.922s-22.931 26.719-40.379 30.938c8.954 8.753 16.358 18.321 22.213 28.711 5.854 10.394 13.832 29.026 23.935 55.898l25.14 67.031h-49.858L368.4 777.948c-10.886-27.03-18.279-43.945-22.181-50.742-3.904-6.797-8.037-11.484-12.398-14.063-4.364-2.578-11.365-3.867-21.007-3.867h-8.61v143.438h-41.671z m41.671-198.281h30.995c18.941 0 30.995-1.132 36.16-3.398 5.166-2.263 9.355-6.833 12.57-13.711 3.212-6.874 4.821-16.015 4.821-27.422 0-10.936-1.609-19.725-4.821-26.367-3.215-6.64-7.577-11.21-13.087-13.711-3.904-1.718-15.212-2.578-33.922-2.578h-32.717v87.187z" p-id="7478"></path><path d="M622.622 852.714h-45.306l-18.128-77.813h-82.863l-17.114 77.813h-44.426L495.39 509.12h44.262l82.97 343.594z m-76.89-135.938l-28.578-127.5-28.043 127.5h56.621z" p-id="7479"></path><path d="M608.71 852.714V509.12h62.495l37.635 234.609 37.339-234.609h62.791v343.594h-38.915V582.011L728.79 852.714h-40.207l-40.958-270.703v270.703H608.71zM815.03 852.714V509.12h153.596v58.125H856.701v76.172h104.004v57.891H856.701v93.281h115.713v58.125H815.03z" p-id="7480"></path></svg>