<?xml version="1.0" standalone="no"?><!DOCTYPE svg PUBLIC "-//W3C//DTD SVG 1.1//EN" "http://www.w3.org/Graphics/SVG/1.1/DTD/svg11.dtd"><svg t="1724119093687" class="icon" viewBox="0 0 2131 1024" version="1.1" xmlns="http://www.w3.org/2000/svg" p-id="12907" xmlns:xlink="http://www.w3.org/1999/xlink" width="416.2109375" height="200"><path d="M91.734989 885.209899A91.835741 91.835741 0 0 1 0 793.424534V91.709801A91.810553 91.810553 0 0 1 91.734989 0h1658.71066a91.785365 91.785365 0 0 1 91.734989 91.709801V793.424534a91.810553 91.810553 0 0 1-91.734989 91.734988zM55.89235 91.709801V793.424534a35.867827 35.867827 0 0 0 35.842639 35.842638h1658.71066a35.943391 35.943391 0 0 0 35.943391-35.842638V91.709801a35.968579 35.968579 0 0 0-35.943391-35.867827H91.734989a35.893015 35.893015 0 0 0-35.842639 35.867827z m1309.780183 397.971671q11.485765-126.116719 126.116719-135.637813 110.827554 9.571471 126.141906 127.980636a27.02681 27.02681 0 0 1-30.603517 30.603518h-150.926978a61.484104 61.484104 0 0 0 66.899541 51.585189 121.608052 121.608052 0 0 0 53.449107-17.153083 66.647661 66.647661 0 0 1 26.800118-11.485765 32.165179 32.165179 0 0 1 28.638847 30.603518q-13.349683 49.620518-114.656142 55.413777-124.101672-5.76807-131.809225-131.884789z m68.788647-22.921154h112.741848q-7.556424-53.474295-55.413776-55.413777a57.932585 57.932585 0 0 0-57.277695 55.438966z m-760.478524 22.921154q9.571471-124.227613 116.570436-135.637813a73.775888 73.775888 0 0 1 66.849166 32.442247 34.50767 34.50767 0 0 1 34.406918-30.527953q34.356542 0 32.467435 45.867494v173.797755q1.889106 43.978388-32.467435 43.978388a30.930963 30.930963 0 0 1-34.406918-26.749741 87.629332 87.629332 0 0 1-66.849166 28.664036q-108.938448-5.692506-116.52006-131.809225z m70.702942 0q3.828588 66.899542 55.413777 70.702941 51.585189-3.828588 55.413777-70.702941-3.8034-66.849165-55.413777-70.677754-51.484436 3.828588-55.338213 70.702942z m525.498922 93.674471v-122.288131q-1.889106-47.857353-42.013718-49.721271-40.300929 3.828588-42.064095 49.721271v122.288131q-1.863918 36.270836-34.406917 36.270836t-34.38173-36.270836v-122.288131q-1.889106-45.892683-42.013718-49.721271-40.1498 1.96467-42.038907 49.721271v122.288131q-1.889106 36.270836-34.432106 36.270836c-22.921153 0-34.961056-12.115467-36.296023-36.296024v-187.24819c1.334968-25.465149 13.374871-38.84002 36.296023-40.099424a30.527953 30.527953 0 0 1 32.492624 26.724553 85.639473 85.639473 0 0 1 65.010436-28.638847 87.175946 87.175946 0 0 1 72.541671 34.331353 115.260656 115.260656 0 0 1 74.556718-34.331353q93.548531 3.828588 97.427496 93.573718v135.713378a33.147514 33.147514 0 0 1-36.270836 36.270836q-32.467436 0-34.406918-36.270836z m-769.470669 0v-191.076778a34.457294 34.457294 0 0 1 36.296024-36.296024q34.406918 0 34.38173 30.527953a56.975438 56.975438 0 0 1 49.72127-30.527953 36.044143 36.044143 0 0 1 34.406918 38.210318q0 17.178271-28.714412 28.638847a203.015928 203.015928 0 0 0-13.37487 5.742883q-43.928012 17.228647-42.064095 45.867494v108.91326a33.122326 33.122326 0 0 1-36.270835 36.270836q-32.41706 0-34.38173-36.270836z m-146.56944 0v-162.437931h-15.238789a26.523049 26.523049 0 0 1-26.774929-30.502765c1.259404-19.117753 10.075232-29.268549 26.749741-30.603518h15.238789v-36.3464q1.989858-76.445824 74.506342-80.249224 47.857353 0 47.857352 32.467435a25.364397 25.364397 0 0 1-28.689223 28.714412q-22.946341-3.828588-22.946341 26.724553v28.638848h20.981671a27.706888 27.706888 0 0 1 30.653893 30.653894 27.706888 27.706888 0 0 1-30.653893 30.502765h-21.032048v162.437931a33.147514 33.147514 0 0 1-36.245647 36.270836q-32.442248 0-34.406918-36.270836z m-129.970495 1.889106V306.312246a36.3464 36.3464 0 1 1 72.592048 0v278.932803a32.341495 32.341495 0 0 1-36.245648 34.38173A32.341495 32.341495 0 0 1 224.173916 585.245049z" fill="#1785FF" p-id="12908"></path></svg>