<?xml version="1.0" standalone="no"?><!DOCTYPE svg PUBLIC "-//W3C//DTD SVG 1.1//EN" "http://www.w3.org/Graphics/SVG/1.1/DTD/svg11.dtd"><svg t="1755668494399" class="icon" viewBox="0 0 1024 1024" version="1.1" xmlns="http://www.w3.org/2000/svg" p-id="7357" xmlns:xlink="http://www.w3.org/1999/xlink" width="256" height="256"><path d="M0 0h1024v1024H0z" fill="transparent" p-id="7358"></path><path d="M907.50781 896.156038v74.449676h-683.934477V596.163048a27.209143 27.209143 0 0 1 27.209143-27.209143h629.516191a27.209143 27.209143 0 0 1 27.209143 27.209143v267.576076" fill="#B5D8FE" p-id="7359"></path><path d="M892.693943 713.191619v64.853333c0 5.36381-4.291048 9.752381-9.752381 9.752381h-602.599619c-5.36381 0-9.752381-4.388571-9.752381-9.752381v-64.853333c0-4.096 2.535619-7.704381 6.339048-9.167238 207.920762-78.60419 413.013333-78.60419 609.621333 0.097524a9.752381 9.752381 0 0 1 6.144 9.069714z" fill="#9BCAFC" p-id="7360"></path><path d="M476.228267 821.706362h171.563885v148.899352H476.228267z" fill="#FFFFFF" p-id="7361"></path><path d="M870.575543 568.953905H500.306895V427.349333a33.938286 33.938286 0 0 1 33.938286-33.938285h302.401829a33.938286 33.938286 0 0 1 33.938285 33.938285v141.604572z" fill="#B5D8FE" p-id="7362"></path><path d="M658.539276 464.817981v57.148952c0 11.117714-9.069714 20.187429-20.187428 20.187429h-57.148953c-11.117714 0-20.187429-9.069714-20.187428-20.187429v-57.148952c0-11.117714 9.069714-20.187429 20.187428-20.187429h57.148953c11.117714 0 20.187429 9.069714 20.187428 20.187429zM831.058895 464.817981v57.148952c0 11.117714-9.069714 20.187429-20.187428 20.187429h-57.148953c-11.117714 0-20.187429-9.069714-20.187428-20.187429v-57.148952c0-11.117714 9.069714-20.187429 20.187428-20.187429h57.148953c11.117714 0 20.187429 9.069714 20.187428 20.187429z" fill="#9BCAFC" p-id="7363"></path><path d="M870.575543 695.510552c-195.184152-78.155581-396.04419-78.155581-602.609372 0v64.863086h602.609372v-64.863086z" fill="#FFFFFF" p-id="7364"></path><path d="M188.230705 452.77379h172.987733v517.831924H188.230705z" fill="#FFFFFF" p-id="7365"></path><path d="M188.230705 452.77379h172.987733v51.580343H188.230705z" fill="#E9F1FE" p-id="7366"></path><path d="M473.019733 371.575467H76.42941l108.075885 81.198323h180.438553zM76.42941 250.343619h396.590323L364.934095 169.155048H184.505295z" fill="#B5D8FE" p-id="7367"></path><path d="M76.42941 250.343619h396.590323v121.231848H76.42941zM361.169676 117.535695v51.590095h-173.494857v-51.590095c0-8.289524 7.236267-15.11619 16.247467-15.11619h140.999924c9.0112 0 16.247467 6.826667 16.247466 15.11619z" fill="#FFFFFF" p-id="7368"></path><path d="M627.760762 520.192h-57.148952a10.435048 10.435048 0 0 1-10.435048-10.435048v-57.148952c0-5.753905 4.681143-10.435048 10.435048-10.435048h57.148952c5.77341 0 10.435048 4.681143 10.435048 10.435048v57.148952c0 5.77341-4.661638 10.435048-10.435048 10.435048zM800.260876 520.192h-57.148952a10.435048 10.435048 0 0 1-10.435048-10.435048v-57.148952c0-5.753905 4.681143-10.435048 10.435048-10.435048h57.148952c5.763657 0 10.435048 4.681143 10.435048 10.435048v57.148952c0 5.77341-4.67139 10.435048-10.435048 10.435048z" fill="#FFFFFF" p-id="7369"></path><path d="M917.26019 961.038629v-64.872839a9.752381 9.752381 0 1 0-19.504761 0v64.687543H657.505524V821.667352c0-5.36381-4.291048-9.752381-9.752381-9.752381H476.208762c-5.36381 0-9.752381 4.388571-9.752381 9.752381v139.185981h-95.47581V770.126019h499.594972a9.752381 9.752381 0 0 0 9.752381-9.752381v-64.872838c0-3.988724-2.438095-7.567848-6.124495-9.05021-78.955276-31.607467-167.15581-53.052952-259.852191-57.821866-0.916724-0.282819-1.833448-0.57539-2.847695-0.575391-0.711924 0-1.336076 0.263314-1.999238 0.4096-75.707733-3.413333-154.165638 3.705905-238.523734 24.81981V578.706286h509.327848c9.615848 0 17.44701 7.831162 17.44701 17.447009v267.566324a9.752381 9.752381 0 1 0 19.504761 0V596.163048a37.000533 37.000533 0 0 0-36.912761-36.951772V427.37859c0-24.088381-19.602286-43.690667-43.690667-43.690666H534.235429c-24.088381 0-43.690667 19.602286-43.690667 43.690666v131.832686H370.980571V460.341638c91.652876-68.77379 106.983619-80.067048 107.958858-81.042286a9.518324 9.518324 0 0 0 3.803428-7.704381v-121.222095c0-3.900952-2.477105-7.187505-4.291047-8.094476l-107.568762-80.847238v-43.885714c0-13.750857-11.605333-24.868571-25.941334-24.868572h-60.464762V53.394286a9.752381 9.752381 0 1 0-19.504762 0v39.28259h-61.049904c-14.336 0-26.038857 11.117714-26.038857 24.868572v44.373333l-106.886096 80.359619c-1.921219 0.965486-4.291048 4.349562-4.291047 8.094476v121.222095c0 2.82819 1.111771 5.558857 3.803428 7.704381 0.975238 0.975238 18.666057 14.033676 107.958857 81.042286v64.463238c0 5.461333 4.388571 9.752381 9.752381 9.752381s9.752381-4.291048 9.752381-9.752381v-62.317714h153.502477v498.346667H197.973333v-413.208381c0-5.461333-4.388571-9.752381-9.752381-9.752381s-9.752381 4.291048-9.752381 9.752381v413.227885h-77.78499a9.752381 9.752381 0 1 0 0 19.504762h815.659886a9.752381 9.752381 0 0 0 9.752381-9.752381 9.654857 9.654857 0 0 0-8.835658-9.557333zM510.049524 427.388343a24.185905 24.185905 0 0 1 24.185905-24.185905h302.421333a24.185905 24.185905 0 0 1 24.185905 24.185905V559.201524H510.049524V427.37859z m127.951238 533.455238h-62.70781v-129.414095h62.70781v129.414095z m-152.039619-129.414095h69.827047v129.414095h-69.827047v-129.414095z m-33.713981-80.808229V656.432762a806.677943 806.677943 0 0 1 65.038628-7.3728v101.561295h-65.038628z m234.037638 0h-65.028876v-102.009905c21.74781 1.345829 43.427352 3.637638 65.028876 6.836419v95.173486z m19.504762-92.179505c21.74781 3.803429 43.398095 8.591848 64.960609 14.277486v77.902019h-64.950857v-92.179505z m155.0336 92.179505h-70.568229v-72.401676a827.323733 827.323733 0 0 1 70.568229 23.912838v48.488838z m-259.072-102.985143v102.985143h-64.96061V648.016457a774.261029 774.261029 0 0 1 64.96061-0.37059z m-169.008762 12.190476v90.794667H370.980571v-77.336381a862.461562 862.461562 0 0 1 61.761829-13.458286zM86.211048 260.13501h96.655847v101.717333H86.211048v-101.717333z m116.160609 0h135.441067v101.717333H202.361905v-101.717333z m154.945829 0H463.238095v101.717333H357.317486v-101.717333zM197.38819 117.545448c0-2.925714 3.023238-5.36381 6.534096-5.36381h141.019428c3.510857 0 6.436571 2.438095 6.436572 5.36381v41.837714H197.38819v-41.837714z m-9.75238 61.342476H361.71581l82.115047 61.732571H105.618286l82.017524-61.732571z m0.097523 264.094476l-82.115047-61.635048h338.212571l-82.115047 61.635048H187.733333zM59.947886 960.853333H44.207543a9.752381 9.752381 0 1 0 0 19.504762h15.740343a9.752381 9.752381 0 1 0 0-19.504762zM979.792457 960.853333h-25.161143a9.752381 9.752381 0 1 0 0 19.504762h25.161143a9.752381 9.752381 0 1 0 0-19.504762z" fill="#077AF1" p-id="7370"></path><path d="M627.760762 432.449829h-57.148952c-11.117714 0-20.187429 9.069714-20.187429 20.187428v57.148953c0 11.117714 9.069714 20.187429 20.187429 20.187428h57.148952c11.117714 0 20.187429-9.069714 20.187428-20.187428v-57.148953c0-11.117714-9.069714-20.187429-20.187428-20.187428z m0.682667 77.336381c0 0.390095-0.292571 0.682667-0.682667 0.682666l-57.831619-0.682666 0.682667-57.83162 57.831619 0.682667v57.148953zM800.280381 432.449829H743.131429c-11.117714 0-20.187429 9.069714-20.187429 20.187428v57.148953c0 11.117714 9.069714 20.187429 20.187429 20.187428h57.148952c11.117714 0 20.187429-9.069714 20.187429-20.187428v-57.148953c0-11.117714-9.069714-20.187429-20.187429-20.187428z m0.682667 77.336381c0 0.390095-0.292571 0.682667-0.682667 0.682666l-57.831619-0.682666 0.682667-57.83162 57.831619 0.682667v57.148953z" fill="#077AF1" p-id="7371"></path></svg>