<?xml version="1.0" standalone="no"?><!DOCTYPE svg PUBLIC "-//W3C//DTD SVG 1.1//EN" "http://www.w3.org/Graphics/SVG/1.1/DTD/svg11.dtd"><svg t="1734334086235" class="icon" viewBox="0 0 7678 1024" version="1.1" xmlns="http://www.w3.org/2000/svg" p-id="11983" xmlns:xlink="http://www.w3.org/1999/xlink" width="1919.5" height="256"><path d="M535.152062 132.48517h94.385901a202.081814 202.081814 0 0 1 186.340165 309.905708 324.303557 324.303557 0 0 1-129.644634 135.083822c-13.565974 7.742843-16.509534 14.909773-7.806834 27.899832 52.344181 78.3243 92.402197 163.687549 142.954646 243.163678 5.055245 7.934815 10.622413 16.253572 6.079092 25.596176-5.311207 10.494432-16.573524 10.302461-26.875985 9.790538-65.654193-3.455484-131.372376-1.599761-197.09056-0.831876a58.999187 58.999187 0 0 1-60.151015-33.27503C479.928311 732.139597 414.018156 616.316898 348.555934 500.238237c-5.503178-9.726547-9.086643-26.556033-22.716606-23.804444-10.238471 2.047694-8.76669 18.365257-11.070347 28.667717-25.596177 114.414909-51.576296 228.765828-76.084634 343.4367a37.818351 37.818351 0 0 1-43.769462 34.554838c-53.68798-0.895866-107.375961 0-160.999951 0-33.722963 0-38.394265-7.358901-30.523441-39.546093 14.013907-56.50356 25.596177-113.583034 40.953883-169.766641a298.899352 298.899352 0 0 1 188.963773-222.942698A289.300786 289.300786 0 0 1 336.845684 435.287939c53.68798 0.767885 107.375961 0.639904 161.063941 0.447933a79.284157 79.284157 0 0 0 76.404587-44.793309 41.913739 41.913739 0 0 0-40.697921-63.990441c-52.792114 0-105.584228-0.639904-158.312352 0-23.292521 0.447933-30.203488-9.982509-25.596177-30.203489 10.750394-46.968984 22.524635-93.682006 32.955078-140.778971A28.411756 28.411756 0 0 1 415.937869 130.757428c39.802055 0.703895 79.604109 0 119.406164 0v1.727742M1781.237928 131.653294c26.811995 0 53.68798-0.703895 80.435984 0 33.147049 1.151828 38.394265 7.23092 31.163345 38.010322-10.11049 44.345376-20.092999 88.754742-32.635125 132.396224-6.079092 21.500788-4.799283 27.51589 19.901028 22.012712a390.341693 390.341693 0 0 1 239.324251 15.421696 246.107238 246.107238 0 0 1 144.618397 292.628289 370.056723 370.056723 0 0 1-359.818252 262.36081 419.777296 419.777296 0 0 1-185.57228-22.460645 230.365589 230.365589 0 0 1-149.033738-163.68755 269.783701 269.783701 0 0 1 5.247216-119.150202c36.026619-143.786522 64.694336-289.236795 96.817538-433.855192 3.967407-17.789343 11.070346-25.212234 29.05166-24.828292 26.811995 0.639904 53.68798 0 80.499976 0v0.639905m164.775386 363.017774A137.899401 137.899401 0 0 0 1791.73236 608.446073a84.403392 84.403392 0 0 0 68.14982 106.480095 153.577059 153.577059 0 0 0 164.583415-57.97534 95.473739 95.473739 0 0 0 8.830681-129.772615 106.992018 106.992018 0 0 0-87.282962-33.019068M2602.363272 894.163394a325.007452 325.007452 0 0 1-141.162914-17.917323 221.406927 221.406927 0 0 1-139.435172-315.472876c59.38313-154.472926 184.996366-224.542459 344.716508-244.827429a380.359184 380.359184 0 0 1 248.602865 45.433213 195.042865 195.042865 0 0 1 99.825089 190.755506 348.811896 348.811896 0 0 1-251.354454 319.952207 397.25266 397.25266 0 0 1-161.191922 22.332664M2527.942389 640.057351a66.294097 66.294097 0 0 0 31.99522 61.174862 157.160524 157.160524 0 0 0 226.590153-104.176438 78.900214 78.900214 0 0 0-65.590202-99.249175 205.537298 205.537298 0 0 0-90.610465 2.94356A136.683583 136.683583 0 0 0 2527.942389 640.057351" fill="#6CB86A" p-id="11984"></path><path d="M1115.097432 894.93128a308.369937 308.369937 0 0 1-156.712591-26.428053 213.856055 213.856055 0 0 1-128.748768-257.753498 384.326591 384.326591 0 0 1 320.976054-289.94069 467.130222 467.130222 0 0 1 224.60645 11.58227 219.231252 219.231252 0 0 1 153.577059 261.272972 371.656484 371.656484 0 0 1-383.366734 301.266999h-30.523441m93.042102-400.772135c-105.7762 0.831876-165.28731 60.215005-158.184371 153.577059a63.542508 63.542508 0 0 0 30.52344 51.768268 154.024993 154.024993 0 0 0 223.006689-86.131135 94.961815 94.961815 0 0 0-32.635126-104.560381 123.053619 123.053619 0 0 0-62.710632-14.717801M3269.911557 131.845266c25.596177 0 51.896248 1.023847 77.748386 0 20.668913-1.087838 24.444349 6.399044 22.588626 25.596176-4.159379 42.937586-19.837037 83.187574-27.57988 125.101313-3.519474 19.197132 0.383943 26.04411 21.436798 25.276225 41.593787-1.47178 83.187574-0.831876 124.973332-0.447934 19.197132 0 35.834647 8.76669 27.643871 29.691565-16.381553 41.97773-17.533381 87.090991-31.163345 129.580644a35.066762 35.066762 0 0 1-40.825902 27.003966c-41.657777-1.087838-83.187574 0-124.973332-0.767885a25.020263 25.020263 0 0 0-28.98767 21.628769 880.188522 880.188522 0 0 0-19.197133 101.808793 53.432019 53.432019 0 0 0 30.843393 58.615244 176.549628 176.549628 0 0 0 106.416104 23.356511c22.716607-2.367646 26.556033 6.399044 20.924875 26.364062-14.141888 50.68043-26.811995 101.872783-39.802055 152.873165-2.431637 9.406595-4.927264 17.085448-17.213429 17.533381a351.947428 351.947428 0 0 1-285.781311-106.864038 178.27737 178.27737 0 0 1-40.825902-168.486832c33.978924-154.600906 69.365639-308.881861 103.728506-463.354786a25.596177 25.596177 0 0 1 28.411756-23.484492H3269.911557V131.845266M300.755075 231.414392c6.015101 60.215005-62.774623 104.112448-109.999569 102.384707A111.343368 111.343368 0 0 1 82.547669 227.830928 107.759903 107.759903 0 0 1 193.187143 128.13382 101.936773 101.936773 0 0 1 300.755075 231.414392" fill="#6CB86A" p-id="11985"></path><path d="M3480.376119 138.436281a59.831063 59.831063 0 0 1 53.815961 55.863655 53.62399 53.62399 0 0 1-55.03178 49.656583 48.376774 48.376774 0 0 1-51.896248-50.872401 55.03178 55.03178 0 0 1 53.112067-54.647837" fill="#6CB86A" p-id="11986"></path></svg>