<?xml version="1.0" standalone="no"?><!DOCTYPE svg PUBLIC "-//W3C//DTD SVG 1.1//EN" "http://www.w3.org/Graphics/SVG/1.1/DTD/svg11.dtd"><svg t="1762327851121" class="icon" viewBox="0 0 1024 1024" version="1.1" xmlns="http://www.w3.org/2000/svg" p-id="23508" xmlns:xlink="http://www.w3.org/1999/xlink" width="256" height="256"><path d="M134.018246 188.092632C259.413333 37.905965 477.866667-25.150877 663.62386 37.546667c209.470877 64.673684 364.867368 281.150877 344.746666 501.580351-12.575439 19.761404-37.546667 24.072982-56.948772 34.133333l-36.109473-33.235088c-7.006316-79.225263-25.689825-163.121404-86.950176-218.812631-83.89614-91.261754-225.818947-105.633684-337.021754-61.260351-122.161404 46.888421-207.674386 154.677895-270.731228 265.162105l-60.541755 0.718596c-8.26386-26.228772-22.815439-56.589474-4.131929-82.279298 64.853333-116.053333 163.660351-217.375439 286.899649-270.37193 51.738947-21.198596 107.430175-30.001404 160.426666-47.607017-135.275789-39.882105-288.516491 10.419649-382.113684 113.897544C110.484211 351.034386 84.255439 527.988772 141.922807 671.887719c212.704561 6.467368 403.49193-142.461754 491.879298-328.937544 10.599298-38.624561 51.918596-35.390877 83.896141-32.69614 5.389474 16.34807 10.958596 32.875789 16.527719 49.22386-88.207719 210.90807-286.899649 380.496842-517.030176 407.983158-47.427368 1.257544-100.603509 10.060351-143.539649-14.551579-98.627368-176.954386-73.296842-412.474386 60.362106-564.816842zM894.113684 641.706667c3.233684-38.085614 47.06807-26.947368 73.296842-36.468772 6.826667 10.778947 20.659649 32.336842 27.486316 43.115789-39.702456 140.844912-144.078596 259.772632-278.096842 317.978948-176.415439 81.381053-398.282105 47.06807-542.360702-82.997895-7.365614-18.144561-13.114386-36.82807-17.066666-56.230176 18.863158-8.443509 37.726316-17.066667 56.409824-26.049122 49.942456 20.659649 102.220351 45.271579 157.911579 36.468772 123.239298-13.473684 225.459649-90.722807 316.182456-169.409123 36.289123-35.031579 93.597193 12.575439 73.656141 55.870877-44.912281 61.080702-117.670175 93.417544-167.432983 150.366316 8.084211 6.467368 24.432281 19.222456 32.516491 25.689824 121.981754-41.139649 226.537544-134.557193 267.497544-258.335438z" fill="#26BC93" p-id="23509"></path></svg>