<?xml version="1.0" standalone="no"?><!DOCTYPE svg PUBLIC "-//W3C//DTD SVG 1.1//EN" "http://www.w3.org/Graphics/SVG/1.1/DTD/svg11.dtd"><svg t="1770273187003" class="icon" viewBox="0 0 1024 1024" version="1.1" xmlns="http://www.w3.org/2000/svg" p-id="7357" xmlns:xlink="http://www.w3.org/1999/xlink" width="256" height="256"><path d="M786.24 754.88v64H625.92v-64z" fill="#A8AFBF" p-id="7358"></path><path d="M876.48 952.96H529.6a64 64 0 0 1-64-64V672a64 64 0 0 1 64-64h346.88a64 64 0 0 1 64 64v215.68a64 64 0 0 1-64 65.28z m-346.88-64h346.56V672H529.6v216.96z" fill="#FF6A00" p-id="7359"></path><path d="M832 546.88a124.48 124.48 0 1 0-248.96 0v79.36h64v-73.92a61.12 61.12 0 1 1 122.24 0V576h64v-27.52l-1.28-1.6z" fill="#181818" p-id="7360"></path><path d="M400.96 864a228.48 228.48 0 0 1-51.2-24.32 422.08 422.08 0 0 1-102.4-89.6 444.48 444.48 0 0 1-60.8-121.28 371.84 371.84 0 0 1-11.84-130.56v-187.2L480 179.2l303.04 131.84 1.6 119.36h74.24L856.32 256 480 89.6 97.92 256v234.56a455.04 455.04 0 0 0 15.04 162.88 562.56 562.56 0 0 0 75.52 152 531.84 531.84 0 0 0 128 111.68 321.545 321.545 0 0 0 84.8 37.44l-0.32-90.56z" fill="#FF6A00" p-id="7361"></path></svg>