<?xml version="1.0" standalone="no"?><!DOCTYPE svg PUBLIC "-//W3C//DTD SVG 1.1//EN" "http://www.w3.org/Graphics/SVG/1.1/DTD/svg11.dtd"><svg t="1724118943036" class="icon" viewBox="0 0 1024 1024" version="1.1" xmlns="http://www.w3.org/2000/svg" p-id="5636" xmlns:xlink="http://www.w3.org/1999/xlink" width="200" height="200"><path d="M1024 362.666667v-42.666667h-149.333333V192c0-23.466667-19.2-42.666667-42.666667-42.666667h-128V0h-42.666667v149.333333h-128V0h-42.666666v149.333333h-128V0h-42.666667v149.333333H192c-23.466667 0-42.666667 19.2-42.666667 42.666667v128H0v42.666667h149.333333v128H0v42.666666h149.333333v128H0v42.666667h149.333333v128c0 23.466667 19.2 42.666667 42.666667 42.666667h128v149.333333h42.666667v-149.333333h128v149.333333h42.666666v-149.333333h128v149.333333h42.666667v-149.333333h128c23.466667 0 42.666667-19.2 42.666667-42.666667v-128h149.333333v-42.666667h-149.333333v-128h149.333333v-42.666666h-149.333333v-128h149.333333z m-192 426.666666c0 42.666667-2.133333 42.666667-42.666667 42.666667H234.666667c-42.666667 0-42.666667-6.4-42.666667-42.666667V234.666667c0-38.4 0-42.666667 42.666667-42.666667h554.666666c38.4 0 42.666667 6.4 42.666667 42.666667v554.666666zM618.666667 277.333333c-70.4 0-128 57.6-128 128v213.333334c0 46.933333-38.4 85.333333-85.333334 85.333333s-85.333333-38.4-85.333333-85.333333c0-40.533333 27.733333-74.666667 64-83.2 25.6-4.266667 27.733333-44.8-2.133333-42.666667-59.733333 10.666667-106.666667 64-106.666667 128 0 70.4 57.6 128 128 128 64 0 115.2-46.933333 125.866667-106.666667h4.266666V405.333333c0-46.933333 38.4-85.333333 85.333334-85.333333s85.333333 38.4 85.333333 85.333333c0 40.533333-27.733333 74.666667-64 83.2-25.6 4.266667-27.733333 44.8 2.133333 42.666667 59.733333-10.666667 106.666667-61.866667 106.666667-125.866667-2.133333-70.4-59.733333-128-130.133333-128z" fill="#00A4FF" p-id="5637"></path></svg>