<?xml version="1.0" standalone="no"?><!DOCTYPE svg PUBLIC "-//W3C//DTD SVG 1.1//EN" "http://www.w3.org/Graphics/SVG/1.1/DTD/svg11.dtd"><svg t="1762332324025" class="icon" viewBox="0 0 1024 1024" version="1.1" xmlns="http://www.w3.org/2000/svg" p-id="5195" xmlns:xlink="http://www.w3.org/1999/xlink" width="256" height="256"><path d="M468.09 895.183a221.729 221.729 0 0 1-65.038-7.767 544.949 544.949 0 0 1-188.485-70.32c-51.782-32.104-96.107-72.493-117.958-130.8a172.536 172.536 0 0 1 6.006-141.777C141.348 466.432 210.01 423.97 286.75 391.453a599.63 599.63 0 0 1 159.28-40.7 148.717 148.717 0 0 1 21.438 0.62v78.294a389.708 389.708 0 0 0-98.592 23.923c-49.71 18.435-94.243 44.429-126.658 87.718a126.658 126.658 0 0 0-20.712 124.276c17.709 50.332 57.063 81.918 101.802 106.152a378.316 378.316 0 0 0 144.988 43.6z m132.25-543.81c25.269-3.52 49.399 3.936 73.736 8.286a552.716 552.716 0 0 1 134.632 44.014c12.117 5.592 23.613 12.531 35.419 18.849a12.738 12.738 0 0 0 14.81 0 824.258 824.258 0 0 1 71.768-44.843c4.143 1.657 2.797 5.489 2.797 8.595v134.632c0 8.803-1.864 12.946-11.91 12.946H689.714a81.608 81.608 0 0 1-9.735-1.554c14.085-9.217 25.166-16.673 36.454-23.82s22.68-14.084 34.176-20.712c7.457-4.453 7.043-7.663-0.621-11.599a416.841 416.841 0 0 0-139.5-45.568c-3.728 0-7.767 0-9.734-4.453q0.103-37.282-0.415-74.772z" fill="#CDCCCC" p-id="5196"></path><path d="M584.79 379.648q0 30.805 0.682 61.867c-3.243 3.754-2.048 8.533-2.048 12.458V752.64a15.53 15.53 0 0 1-7.68 15.53c-31.915 19.627-63.573 39.595-95.403 59.734a15.19 15.19 0 0 1-4.522 0.683l-0.768-66.219c2.56-3.157 1.536-6.827 1.536-10.24V454.4c0-3.499 1.024-7.168-1.536-10.24v-64.512a851.627 851.627 0 0 0 0.682-95.659c-0.426-15.018 2.219-25.088 17.067-33.45 27.307-15.446 52.992-34.134 79.445-51.2 2.56-1.622 6.23-3.67 8.534-2.987 4.181 1.365 2.389 6.144 2.389 9.387v158.464a40.192 40.192 0 0 0 1.621 15.445z m-5.803 100.096V227.328c0-5.547-1.11-11.008-0.854-16.47s-2.645-5.973-6.4-3.583c-18.005 11.264-35.413 23.808-54.101 34.133-13.056 6.997-19.37 21.504-33.707 26.539a7.168 7.168 0 0 0-4.181 8.96c5.376 12.288 1.45 24.832 1.536 37.205v491.776c0 5.035 1.365 5.717 6.912 5.717 14.25 0 21.76-11.946 33.45-16.384 13.74-5.205 22.529-18.688 37.633-23.21a24.405 24.405 0 0 0 19.029-17.579 203.605 203.605 0 0 0 0.512-27.99z" fill="#E7722A" p-id="5197"></path><path d="M593.297 472.853v299.09a247.101 247.101 0 0 1-0.621 33.969 29.619 29.619 0 0 1-23.095 21.334c-18.33 5.489-28.998 21.852-45.671 28.17-14.188 5.384-23.302 19.987-40.597 19.883-6.732 0-8.596-0.828-8.389-6.939V271.527c0-15.017 4.66-30.24-1.864-45.154a8.7 8.7 0 0 1 5.075-10.874c17.398-6.11 25.062-23.716 40.907-32.208 22.68-12.22 43.807-27.444 65.66-41.425 4.556-2.9 8.077-3.21 7.766 4.35s1.036 13.255 1.036 19.987q0 153.48-0.207 306.65z" fill="#FD6202" p-id="5198"></path></svg>