<?xml version="1.0" standalone="no"?><!DOCTYPE svg PUBLIC "-//W3C//DTD SVG 1.1//EN" "http://www.w3.org/Graphics/SVG/1.1/DTD/svg11.dtd"><svg t="1741920017134" class="icon" viewBox="0 0 1024 1024" version="1.1" xmlns="http://www.w3.org/2000/svg" p-id="2633" xmlns:xlink="http://www.w3.org/1999/xlink" width="256" height="256"><path d="M843.177 744.357H180.824c-44.23 0-80.214-35.983-80.214-80.214V182.434c0-44.23 35.984-80.214 80.214-80.214h662.353c44.23 0 80.214 35.984 80.214 80.214v481.709c0 44.231-35.984 80.214-80.214 80.214zM180.824 142.22c-22.174 0-40.214 18.04-40.214 40.214v481.709c0 22.174 18.04 40.214 40.214 40.214h662.353c22.174 0 40.214-18.04 40.214-40.214V182.434c0-22.174-18.04-40.214-40.214-40.214H180.824zM903.391 894.229H120.61c-11.046 0-20-8.954-20-20s8.954-20 20-20h782.78c11.046 0 20 8.954 20 20s-8.953 20-19.999 20z" fill="#808080" p-id="2634"></path><path d="M634.688 288.778c-51.261 0.184-92.452 42.412-92.452 93.672v43.022H405.542c-16.171 0-29.292 13.12-29.292 29.292V571.93c0 16.173 13.12 29.292 29.292 29.292h214.805c16.172 0 29.292-13.119 29.292-29.292V454.765c0-16.172-13.12-29.292-29.292-29.292h-29.291v-43.389c0-24.165 19.345-44.242 43.51-44.486 24.41-0.244 44.365 19.589 44.365 43.938v48.819a14.61 14.61 0 0 0 14.646 14.646h19.528c8.116 0 14.646-6.53 14.646-14.646v-48.819c-0.001-51.261-41.803-92.94-93.063-92.758z" fill="#33DEB4" opacity=".4" p-id="2635"></path><path d="M594.688 258.778c-51.261 0.184-92.452 42.412-92.452 93.672v43.022H365.542c-16.171 0-29.292 13.12-29.292 29.292V541.93c0 16.173 13.12 29.292 29.292 29.292h214.805c16.172 0 29.292-13.119 29.292-29.292V424.765c0-16.172-13.12-29.292-29.292-29.292h-29.291v-43.389c0-24.165 19.345-44.242 43.51-44.486 24.41-0.244 44.365 19.589 44.365 43.938v48.819a14.61 14.61 0 0 0 14.646 14.646h19.528c8.116 0 14.646-6.53 14.646-14.646v-48.819c-0.001-51.261-41.803-92.94-93.063-92.758z" fill="#33DEB4" p-id="2636"></path></svg>