<?xml version="1.0" standalone="no"?><!DOCTYPE svg PUBLIC "-//W3C//DTD SVG 1.1//EN" "http://www.w3.org/Graphics/SVG/1.1/DTD/svg11.dtd"><svg t="1762327525579" class="icon" viewBox="0 0 1024 1024" version="1.1" xmlns="http://www.w3.org/2000/svg" p-id="12601" xmlns:xlink="http://www.w3.org/1999/xlink" width="256" height="256"><path d="M633.886118 571.527529c1.536 16.564706 14.034824 29.846588 30.358588 33.15953 7.152941 1.536 14.034824 2.816 21.187765 3.84v30.870588c0 13.507765 16.323765 20.660706 26.021647 10.962824l30.870588-30.102589c3.056941-2.816 7.137882-4.336941 11.474823-4.080941 55.627294 3.312941 111.766588-1.28 167.905883-12.513882a35.809882 35.809882 0 0 0 28.566588-29.590588c11.745882-70.927059 11.233882-140.077176 0.256-207.947295a36.909176 36.909176 0 0 0-29.846588-30.117647c-83.696941-14.019765-169.170824-14.275765-256.180706-0.256a36.848941 36.848941 0 0 0-30.870588 32.918589 1196.468706 1196.468706 0 0 0 0.256 202.842353z" fill="#E0860E" p-id="12602"></path><path d="M341.534118 152.124235c-5.993412-16.956235-7.333647-33.927529-7.589647-50.883764 0.225882-16.956235 1.566118-33.912471 7.589647-50.868706 6.023529 16.956235 7.378824 33.912471 7.589647 50.868706-0.256 16.956235-1.596235 33.927529-7.589647 50.898823z" fill="#D1DAFE" p-id="12603"></path><path d="M394.300235 165.677176v30.569412h-105.562353v-30.569412c0-17.92 14.607059-32.527059 32.527059-32.527058h40.658824c17.92 0 32.376471 14.607059 32.37647 32.527058zM609.189647 319.879529v40.508236c0 18.070588-14.456471 32.527059-32.376471 32.527059h-46.832941v-105.562353h46.832941c17.92 0 32.376471 14.607059 32.376471 32.527058zM106.375529 287.352471h46.832942v105.562353h-46.832942c-17.92 0-32.527059-14.456471-32.527058-32.527059v-40.508236c0-17.92 14.607059-32.527059 32.527058-32.527058z" fill="#4269C4" p-id="12604"></path><path d="M520.779294 530.447059s24.380235 6.174118 54.392471 51.802353c17.829647 27.090824 29.530353 57.645176 36.291764 89.359059 10.526118 49.242353 15.450353 119.356235-41.667764 119.265882-34.484706-0.060235-43.806118-50.251294-42.872471-115.425882zM162.334118 530.447059s-24.365176 6.174118-54.392471 51.802353c-17.814588 27.090824-29.515294 57.645176-36.291765 89.359059-10.511059 49.242353-15.450353 119.356235 41.682824 119.265882 34.484706-0.060235 43.791059-50.251294 42.857412-115.425882zM465.076706 797.394824v41.261176c0 17.92-14.456471 32.527059-32.527059 32.527059h-182.061176c-17.92 0-32.527059-14.607059-32.527059-32.527059v-41.261176z" fill="#8A9BEA" p-id="12605"></path><path d="M559.646118 326.204235v28.009412c0 71.830588-58.127059 129.957647-129.957647 129.957647h-176.188236c-71.830588 0-129.957647-58.127059-129.957647-129.957647v-28.009412c0-71.830588 58.127059-129.957647 129.957647-129.957647h176.188236c71.830588 0 129.957647 58.127059 129.957647 129.957647z" fill="#D1DAFE" p-id="12606"></path><path d="M559.616 326.219294v28.114824a129.957647 129.957647 0 0 1-129.912471 129.91247H253.424941a129.385412 129.385412 0 0 1-86.603294-33.129412 481.882353 481.882353 0 0 0 102.716235 10.797177c151.792941 0 276.555294-67.011765 289.024-152.410353 0.752941 5.466353 1.054118 11.098353 1.054118 16.715294z" fill="#8A9BEA" p-id="12607"></path><path d="M493.206588 340.133647v0.150588a91.708235 91.708235 0 0 1-91.617882 91.632941h-120.048941a91.708235 91.708235 0 0 1-91.617883-91.617882v-0.165647a91.708235 91.708235 0 0 1 91.617883-91.617882h120.048941a91.708235 91.708235 0 0 1 91.617882 91.617882z" fill="#4269C4" p-id="12608"></path><path d="M286.012235 309.443765c0 13.884235-7.408941 24.997647-16.429176 24.997647s-16.323765-11.113412-16.323765-24.997647c0-13.778824 7.288471-24.892235 16.323765-24.892236s16.429176 11.113412 16.429176 24.892236zM429.869176 309.443765c0 13.884235-7.408941 24.997647-16.444235 24.997647-9.035294 0-16.323765-11.113412-16.323765-24.997647 0-13.778824 7.303529-24.892235 16.323765-24.892236 9.035294 0 16.444235 11.113412 16.444235 24.892236z" fill="#3A3A3A" p-id="12609"></path><path d="M394.375529 375.175529c-4.668235 9.185882-12.589176 16.715294-21.910588 21.790118-9.321412 5.225412-20.118588 7.755294-30.900706 7.905882-10.797176-0.135529-21.594353-2.665412-30.915764-7.890823-9.336471-5.074824-17.242353-12.604235-21.910589-21.805177 18.040471 9.517176 35.056941 14.561882 52.826353 14.501647 17.754353 0.105412 34.785882-4.969412 52.811294-14.501647z" fill="#255299" p-id="12610"></path><path d="M421.857882 817.573647h-160.677647c-66.409412 0-118.663529-56.621176-113.392941-122.88l12.197647-150.738823a64.978824 64.978824 0 0 1 64.752941-59.78353h233.712942c33.882353 0 62.042353 26.051765 64.752941 59.78353l12.047059 150.738823c5.270588 66.258824-46.983529 122.88-113.392942 122.88z" fill="#D1DAFE" p-id="12611"></path><path d="M474.714353 699.663059c1.204706 14.908235-3.764706 29.063529-13.854118 40.05647-10.24 10.992941-23.943529 17.016471-38.851764 17.016471h-160.828236c-14.908235 0-28.762353-6.023529-38.851764-17.016471-10.24-10.992941-15.058824-25.148235-13.854118-40.05647l12.047059-150.738824c0.150588-2.258824 1.957647-3.915294 4.21647-3.915294h233.712942c2.108235 0 3.915294 1.656471 4.21647 3.915294z" fill="#4269C4" p-id="12612"></path><path d="M399.872 871.183059v94.418823c0 16.263529-13.101176 29.364706-29.214118 29.364706h-58.127058c-16.263529 0-29.364706-13.101176-29.364706-29.364706v-94.418823z" fill="#3A3A3A" p-id="12613"></path><path d="M399.917176 904.719059v12.001882c-3.644235 1.054118-7.303529 1.505882-10.797176 1.505883-7.288471-0.150588-14.426353-1.505882-21.564235-7.589648 7.137882-5.918118 14.275765-7.288471 21.564235-7.589647 3.493647 0.150588 7.152941 0.602353 10.797176 1.656471zM399.917176 942.546824v11.851294c-3.644235 1.219765-7.303529 1.505882-10.797176 1.671529-7.288471-0.150588-14.426353-1.505882-21.564235-7.589647 7.137882-5.933176 14.275765-7.303529 21.564235-7.604706 3.493647 0.150588 7.152941 0.602353 10.797176 1.67153z" fill="#2D2D2D" p-id="12614"></path><path d="M315.587765 910.637176c-7.152941 6.083765-14.305882 7.454118-21.579294 7.604706-3.508706 0-7.152941-0.451765-10.797177-1.520941v-12.001882c3.644235-1.069176 7.288471-1.520941 10.797177-1.67153 7.288471 0.301176 14.426353 1.656471 21.579294 7.589647zM315.587765 948.48c-7.152941 6.068706-14.305882 7.288471-21.579294 7.589647a44.995765 44.995765 0 0 1-10.797177-1.505882v-12.016941c3.644235-1.054118 7.288471-1.505882 10.797177-1.656471 7.288471 0.301176 14.426353 1.656471 21.579294 7.589647z" fill="#2D2D2D" p-id="12615"></path><path d="M434.055529 589.884235v69.571765c0 9.185882-7.378824 16.414118-16.414117 16.414118h-140.047059c-9.035294 0-16.414118-7.228235-16.414118-16.414118v-69.571765c0-9.185882 7.378824-16.564706 16.414118-16.564706h140.047059c9.035294 0 16.414118 7.378824 16.414117 16.564706z" fill="#FFFFFF" p-id="12616"></path><path d="M286.524235 705.024m-17.106823 0a17.106824 17.106824 0 1 0 34.213647 0 17.106824 17.106824 0 1 0-34.213647 0Z" fill="#255299" p-id="12617"></path><path d="M345.163294 705.024m-17.106823 0a17.106824 17.106824 0 1 0 34.213647 0 17.106824 17.106824 0 1 0-34.213647 0Z" fill="#255299" p-id="12618"></path><path d="M403.802353 705.024m-17.106824 0a17.106824 17.106824 0 1 0 34.213647 0 17.106824 17.106824 0 1 0-34.213647 0Z" fill="#255299" p-id="12619"></path><path d="M283.301647 709.315765m-17.106823 0a17.106824 17.106824 0 1 0 34.213647 0 17.106824 17.106824 0 1 0-34.213647 0Z" fill="#FBAD3E" p-id="12620"></path><path d="M341.940706 709.315765m-17.106824 0a17.106824 17.106824 0 1 0 34.213647 0 17.106824 17.106824 0 1 0-34.213647 0Z" fill="#AEC46E" p-id="12621"></path><path d="M400.579765 709.315765m-17.106824 0a17.106824 17.106824 0 1 0 34.213647 0 17.106824 17.106824 0 1 0-34.213647 0Z" fill="#B53016" p-id="12622"></path><path d="M341.564235 29.033412c12.995765 0 23.552 10.556235 23.552 23.552 0 12.995765-10.556235 23.401412-23.552 23.401412-12.995765 0-23.552-10.390588-23.552-23.401412s10.541176-23.552 23.552-23.552z" fill="#B53016" p-id="12623"></path><path d="M612.246588 569.645176c1.520941 16.564706 14.019765 29.846588 30.358588 33.15953 7.137882 1.536 14.034824 2.816 21.172706 3.84v30.870588c0 13.507765 16.338824 20.660706 26.021647 10.962824l30.870589-30.102589c3.072-2.816 7.152941-4.336941 11.489882-4.080941 55.627294 3.312941 111.751529-1.28 167.890824-12.513882a35.809882 35.809882 0 0 0 28.581647-29.590588c11.745882-70.927059 11.218824-140.077176 0.256-207.947294a36.909176 36.909176 0 0 0-29.861647-30.117648c-83.681882-14.019765-169.155765-14.275765-256.165648-0.256a36.848941 36.848941 0 0 0-30.870588 32.918589 1196.468706 1196.468706 0 0 0 0.256 202.842353z" fill="#FBAD3E" p-id="12624"></path><path d="M607.894588 469.383529c0 33.159529 1.28 66.319059 4.352 100.261647 1.520941 16.564706 14.019765 29.846588 30.358588 33.15953 7.137882 1.536 14.034824 2.816 21.172706 3.84v30.870588c0 13.507765 16.338824 20.660706 26.021647 10.962824l30.870589-30.102589c3.072-2.816 7.152941-4.336941 11.489882-4.080941 55.627294 3.312941 111.751529-1.28 167.890824-12.513882a35.809882 35.809882 0 0 0 28.581647-29.590588c1.776941-11.489882 3.568941-22.964706 4.592941-34.18353-34.710588 15.555765-75.279059 24.244706-118.904471 24.244706-90.578824 0-169.170824-37.782588-206.426353-92.882823z" fill="#FA990E" p-id="12625"></path><path d="M887.777882 443.211294v45.628235c0 6.475294-5.270588 11.745882-11.89647 11.745883h-31.322353v-69.12h31.322353c6.625882 0 11.896471 5.270588 11.89647 11.745882z" fill="#8A9BEA" p-id="12626"></path><path d="M858.247529 429.447529v73.185883c0 13.974588-11.218824 25.208471-25.193411 25.20847H682.420706a25.118118 25.118118 0 0 1-25.193412-25.20847v-73.185883c0-13.989647 11.218824-25.208471 25.193412-25.20847H833.054118c13.974588 0 25.193412 11.218824 25.193411 25.20847z" fill="#D1DAFE" p-id="12627"></path><path d="M814.290824 438.543059v54.964706c0 2.258824-1.957647 4.216471-4.216471 4.21647h-23.491765c-2.258824 0-4.216471-1.957647-4.21647-4.21647v-54.964706c0-2.258824 1.957647-4.216471 4.21647-4.216471h23.491765c2.258824 0 4.216471 1.957647 4.216471 4.216471zM719.269647 438.543059v54.964706c0 2.258824-1.957647 4.216471-4.216471 4.21647h-23.491764c-2.258824 0-4.216471-1.957647-4.216471-4.21647v-54.964706c0-2.258824 1.957647-4.216471 4.216471-4.216471h23.491764c2.258824 0 4.216471 1.957647 4.216471 4.216471zM766.704941 438.543059v54.964706c0 2.258824-1.807059 4.216471-4.21647 4.21647h-23.341177a4.216471 4.216471 0 0 1-4.21647-4.21647v-54.964706c0-2.258824 1.807059-4.216471 4.21647-4.216471h23.341177c2.409412 0 4.216471 1.957647 4.21647 4.216471z" fill="#617F4D" p-id="12628"></path></svg>