<?xml version="1.0" standalone="no"?><!DOCTYPE svg PUBLIC "-//W3C//DTD SVG 1.1//EN" "http://www.w3.org/Graphics/SVG/1.1/DTD/svg11.dtd"><svg t="1734333894568" class="icon" viewBox="0 0 1987 1024" version="1.1" xmlns="http://www.w3.org/2000/svg" p-id="7356" xmlns:xlink="http://www.w3.org/1999/xlink" width="496.75" height="256"><path d="M116.525176 719.239529a879.766588 244.525176 0 1 0 1759.533177 0 879.766588 244.525176 0 1 0-1759.533177 0Z" fill="#D4D9E6" p-id="7357"></path><path d="M1248.225882 726.076235a15.329882 15.329882 0 0 1 19.636706 0.451765l1.897412 1.987765 81.769412 102.942117a15.329882 15.329882 0 0 1-22.106353 21.082353l-1.897412-2.017882-81.739294-102.942118a15.329882 15.329882 0 0 1 2.439529-21.504z" fill="#3655A3" p-id="7358"></path><path d="M1330.537412 831.909647a12.769882 12.769882 0 0 1 16.052706-1.566118l1.987764 1.656471 16.805647 16.956235 133.421177 38.369883c5.933176 1.716706 9.667765 7.318588 9.216 13.251764l-0.481882 2.529883a12.769882 12.769882 0 0 1-13.251765 9.216l-2.529883-0.451765-136.583529-39.273412-5.541647-3.312941-19.184941-19.305412a12.769882 12.769882 0 0 1 0.090353-18.070588z" fill="#3655A3" p-id="7359"></path><path d="M1090.499765 809.441882a12.769882 12.769882 0 0 1 17.829647 18.070589l-1.837177 1.807058-29.605647 23.823059-178.085647 24.576a12.769882 12.769882 0 0 1-5.722353-24.756706l2.228706-0.542117 171.068235-23.612236 24.094118-19.365647z" fill="#3655A3" p-id="7360"></path><path d="M1788.566588 601.750588a12.769882 12.769882 0 0 1 15.932236-2.710588l2.108235 1.505882 17.950117 15.75153 135.740236 28.973176c6.023529 1.295059 10.179765 6.656 10.119529 12.589177l-0.301176 2.56a12.769882 12.769882 0 0 1-12.559059 10.119529l-2.56-0.301176-138.992941-29.635765-5.752471-2.891294-20.48-17.950118a12.769882 12.769882 0 0 1-1.204706-18.010353z" fill="#3655A3" p-id="7361"></path><path d="M1888.617412 444.235294c-6.565647 80.655059-18.221176 134.656-38.369883 173.387294a117.037176 117.037176 0 0 1-29.364705 40.96l-0.301177 0.210824c-106.706824 100.864-445.018353 174.320941-845.462588 174.320941-331.143529 0-619.52-50.416941-769.897412-124.536471a310.482824 310.482824 0 0 1-75.565176-49.694117l-0.240942-0.301177a117.248 117.248 0 0 1-29.364705-40.929882C79.962353 578.951529 68.276706 524.950588 61.680941 444.265412c-0.602353-7.529412-1.024-14.757647-1.204706-21.624471C56.681412 308.404706 102.008471 271.390118 102.008471 271.390118l312.018823 38.00847 62.283294 82.130824c141.854118-26.864941 313.645176-42.586353 498.868706-42.586353s357.074824 15.721412 498.868706 42.586353l62.343529-82.130824 312.018824-38.00847s50.898824 41.592471 40.207059 172.845176z" fill="#E3EAFF" p-id="7362"></path><path d="M1847.868235 266.902588l-312.018823 38.008471-3.041883 1.776941-60.687058 79.872 2.770823 0.542118c-145.889882-27.648-318.735059-42.676706-499.712-42.676706l-27.105882 0.090353c-162.063059 1.355294-316.777412 14.757647-450.499765 38.550588l-19.365647 3.493647-60.596706-79.872-3.041882-1.776941-312.018824-38.008471-3.403294 0.993883a55.717647 55.717647 0 0 0-7.168 7.589647 123.482353 123.482353 0 0 0-14.938353 23.943529c-14.697412 30.298353-22.829176 70.957176-21.082353 123.361882 0.210824 6.957176 0.602353 14.245647 1.204706 21.865412 6.746353 81.980235 18.642824 136.101647 38.881882 175.104 5.812706 13.583059 14.305882 26.202353 24.937412 37.044706l5.51153 5.270588c20.178824 18.010353 42.465882 33.28 66.439529 45.537883l10.390588 5.059764c116.404706 57.374118 310.392471 98.966588 536.576 116.193883l35.026824 2.439529c64.692706 4.156235 131.764706 6.324706 200.192 6.324706l17.167059-0.060235 34.093176-0.361412 33.792-0.692706a3140.065882 3140.065882 0 0 0 50.05553-1.746823l32.918588-1.566118 32.527059-1.897412c5.421176-0.331294 10.782118-0.692706 16.112941-1.084235l31.924706-2.409412c5.270588-0.391529 10.541176-0.843294 15.751529-1.295059l31.201882-2.861176c10.330353-1.024 20.540235-2.078118 30.72-3.192471l30.147765-3.493647 29.605647-3.764706 14.607059-2.017882 28.732235-4.216471 28.129883-4.487529 27.467294-4.788706c18.070588-3.252706 35.749647-6.716235 52.886588-10.360471l25.389176-5.571764c16.655059-3.794824 32.828235-7.770353 48.459295-11.896471l23.04-6.324706c94.268235-26.804706 166.821647-59.813647 209.01647-97.008941l4.879059-4.487529a121.735529 121.735529 0 0 0 30.659765-42.646589c20.178824-38.701176 32.045176-92.822588 38.701176-174.802823 5.12-62.795294-3.011765-110.561882-19.787294-145.167059a123.392 123.392 0 0 0-14.878118-23.943529 55.597176 55.597176 0 0 0-7.168-7.589647l-3.403294-0.993883zM1538.800941 313.645176l308.10353-37.556705 2.16847 2.16847c4.487529 4.848941 10.24 13.040941 16.112941 25.118118 16.052706 33.099294 23.913412 79.239529 18.913883 140.468706-6.565647 80.926118-18.221176 133.963294-37.857883 171.670588a113.091765 113.091765 0 0 1-23.401411 34.936471l-5.12 4.879058c-40.568471 38.309647-114.386824 72.342588-211.666824 99.900236l-22.889412 6.234353-23.642353 6.023529-12.137411 2.891294-24.847059 5.662118c-25.178353 5.511529-51.501176 10.631529-78.817883 15.36l-27.617882 4.608-28.250353 4.306823-28.852706 4.035765-29.455059 3.764706c-9.938824 1.204706-19.907765 2.349176-29.997176 3.433412l-30.509177 3.162353c-10.270118 0.993882-20.600471 1.957647-31.021176 2.861176l-31.503059 2.529882-31.924706 2.198589c-10.721882 0.692706-21.504 1.325176-32.346353 1.897411l-32.768 1.566118-33.099294 1.204706-33.430588 0.903529-16.865882 0.301177-33.882353 0.361412a3232.587294 3232.587294 0 0 1-181.097412-4.186353l-35.358118-2.048a2919.936 2919.936 0 0 1-34.906353-2.43953l-34.394353-2.831059-33.822117-3.19247c-11.203765-1.114353-22.287059-2.319059-33.28-3.553883l-32.64753-3.915294a2185.396706 2185.396706 0 0 1-123.663058-19.215058l-29.003295-5.632c-95.292235-19.275294-176.579765-43.911529-237.778823-72.673883l-9.035294-4.336941a306.176 306.176 0 0 1-64.873412-40.779294l-9.758118-8.342588a113.031529 113.031529 0 0 1-28.370823-39.514353C84.48 577.867294 72.824471 524.830118 66.198588 443.934118c-0.602353-7.439059-1.024-14.576941-1.204706-21.38353-1.716706-50.989176 6.144-90.202353 20.178824-119.145412l2.499765-4.939294a96.978824 96.978824 0 0 1 13.673411-20.178823l2.108236-2.168471 308.103529 37.556706 61.138824 80.624941 4.457411 1.716706c145.377882-27.557647 317.590588-42.526118 498.025412-42.526117 180.434824 0 352.677647 14.968471 498.025412 42.526117l4.427294-1.716706 61.168941-80.624941z" fill="#3655A3" p-id="7363"></path><path d="M1750.136471 447.006118c57.464471-34.454588 65.445647-57.434353 88.967529-52.193883 23.491765 5.240471 37.165176 139.866353-7.890824 202.089412s-175.706353 113.182118-192.572235 118.723765c-16.865882 5.541647-56.259765 26.021647-73.185882-39.363765-16.926118-65.415529 9.547294-138.209882 37.135059-161.008941 27.557647-22.768941 115.380706-49.001412 147.57647-68.246588z" fill="#3655A3" fill-opacity=".5" p-id="7364"></path><path d="M1821.334588 388.367059c-1.264941 0.451765-3.553882 1.807059-6.595764 3.855059l-6.957177 4.818823-33.340235 24.124235-10.149647 7.228236-9.577412 6.505412c-1.505882 1.024-3.011765 1.987765-4.457412 2.891294l-7.137882 4.306823-6.113883 3.312941-5.481411 2.650353-16.143059 6.927059-52.796235 21.293177-15.600942 6.505411-4.698353 2.048c-21.082353 9.216-35.629176 16.986353-44.66447 24.425412-34.334118 28.370824-55.717647 107.038118-39.695059 168.96 8.282353 32.015059 22.889412 48.609882 42.767059 51.983059 8.372706 1.415529 16.384 0.512 25.810823-2.228706l7.168-2.349176 15.841883-5.601883 10.480941-4.096 12.107294-5.029647 13.251765-5.842823 14.034823-6.445177c4.758588-2.258824 9.577412-4.577882 14.366118-6.927059l14.215529-7.28847c50.085647-26.292706 88.756706-54.211765 109.537883-82.944 42.285176-58.337882 39.725176-206.095059 3.282823-214.226824a33.340235 33.340235 0 0 0-19.456 1.144471z m16.082824 14.034823c3.312941 0.722824 7.288471 10.029176 10.420706 24.304942l1.746823 9.125647c1.927529 11.264 3.282824 24.606118 3.523765 38.791529 0.783059 46.712471-8.884706 91.075765-28.190118 117.699765-19.034353 26.292706-56.048941 53.037176-104.176941 78.305882l-13.914353 7.107765-14.004706 6.77647-13.703529 6.324706-12.950588 5.662118-11.745883 4.909176-10.119529 3.945412-17.016471 6.02353c-9.818353 3.373176-17.106824 4.638118-23.973647 3.493647-13.101176-2.228706-23.461647-13.974588-30.32847-40.568471-14.576941-56.32 5.12-128.722824 34.544941-153.057882 5.903059-4.879059 15.420235-10.330353 28.702117-16.594824l12.288-5.571765 14.486589-6.144 62.554353-25.298823 15.149176-6.686118 5.330824-2.68047 6.445176-3.614118 1.656471-0.993882c2.710588-1.596235 5.571765-3.433412 8.553411-5.391059l9.306353-6.234353 9.637647-6.776471 37.556706-27.407059 4.818824-3.312941a17.287529 17.287529 0 0 1 2.710588-1.566117 17.016471 17.016471 0 0 1 7.770353-1.054118l2.921412 0.481882z" fill="#3655A3" p-id="7365"></path><path d="M1706.426004 562.577381a33.039059 52.946824 8 1 0 65.43505 9.196297 33.039059 52.946824 8 1 0-65.43505-9.196297Z" fill="#3655A3" p-id="7366"></path><path d="M94.479059 302.441412a880.549647 242.206118 0 1 0 1761.099294 0 880.549647 242.206118 0 1 0-1761.099294 0Z" fill="#B6C7F7" p-id="7367"></path><path d="M94.479059 302.441412a880.549647 242.206118 0 1 0 1761.099294 0 880.549647 242.206118 0 1 0-1761.099294 0Z" fill="#B6C7F7" p-id="7368"></path><path d="M975.028706 55.717647l-29.214118 0.120471-14.546823 0.180706-28.882824 0.512-28.611765 0.752941-28.310588 1.024-28.069647 1.264941-13.914353 0.722823-27.557647 1.596236-27.286588 1.867294-26.895059 2.078117-26.593882 2.319059-26.202353 2.529883-25.780706 2.740706-25.419294 2.981647-24.997647 3.162353-24.606118 3.403294-24.094118 3.584-23.702588 3.794823-23.190588 3.97553-11.444706 2.078117-22.467765 4.276706-11.053176 2.198588-21.684706 4.517647-21.202823 4.758589-10.390589 2.409411-20.359529 5.029647-9.938824 2.56-19.546353 5.240471-18.913882 5.421177-9.216 2.770823-18.010353 5.662118-17.408 5.812706-16.745412 5.963294c-5.481412 2.017882-10.842353 4.035765-16.082823 6.113882l-15.450353 6.264471-7.469177 3.162353-14.396235 6.475294c-79.631059 37.044706-125.409882 80.534588-125.409882 127.397647 0 49.633882 51.320471 95.472941 139.806117 133.872941l15.119059 6.324706 15.75153 6.204235c5.360941 2.017882 10.842353 4.035765 16.414117 6.02353l17.076706 5.903058 17.709177 5.722353 18.311529 5.571765 18.913882 5.421176c3.222588 0.903529 6.445176 1.807059 9.697883 2.650353l19.787294 5.180236 10.119529 2.499764 20.630589 4.909177 21.172705 4.72847 21.714824 4.577883 22.226823 4.367059 22.708706 4.156235 23.190589 4.005647 23.702588 3.794824 24.124235 3.584 24.576 3.373176 24.997647 3.192471 25.449412 2.951529 25.810823 2.770824 26.202353 2.529882 26.563765 2.288941 26.895059 2.108235 27.286588 1.837177 27.557647 1.626353 27.919059 1.385412 28.190118 1.114352 14.185411 0.481883 28.611765 0.783059 14.426353 0.301176 28.973177 0.361412 29.214117 0.12047 29.244236-0.12047 29.003294-0.39153 43.008-1.054117 28.340706-1.024 28.039529-1.234824 27.738353-1.505882 13.763765-0.843294 27.25647-1.837177 26.925177-2.108235 26.563764-2.288941 26.202353-2.529882 25.810824-2.770824 25.419294-2.951529 24.997647-3.192471 24.576-3.373176 24.154353-3.614118 23.672471-3.764706 23.190588-4.005647 22.738823-4.156235 22.226824-4.367059 21.684706-4.577883 21.202823-4.72847 20.630588-4.909177 20.088471-5.059764c6.595765-1.746824 13.101176-3.493647 19.486118-5.270589l18.913882-5.421176 18.341647-5.571765 17.679059-5.722353 17.076706-5.903058 16.444235-6.02353 15.75153-6.204235 15.088941-6.324706c9.848471-4.276706 19.215059-8.613647 28.099764-13.071059l12.980706-6.716235c63.096471-34.002824 98.755765-72.734118 98.755765-114.085647 0-38.580706-31.051294-74.902588-86.497882-107.218824l-12.257883-6.836706c-4.216471-2.288941-8.523294-4.517647-12.950588-6.746353l-13.733647-6.595764-14.396235-6.475294a662.889412 662.889412 0 0 0-7.469177-3.162353l-15.420235-6.264471a799.623529 799.623529 0 0 0-16.082824-6.113882l-16.775529-5.963294c-5.692235-1.957647-11.474824-3.915294-17.377882-5.812706l-18.010353-5.662118-9.246118-2.770823-18.913882-5.421177-19.486118-5.240471-9.968941-2.56-20.35953-4.999529-20.931764-4.818823-21.443765-4.638118-21.985882-4.457412-22.437647-4.276706-22.979765-4.096-23.431529-3.885176-23.913412-3.704471-24.365177-3.463529-24.786823-3.312941-25.208471-3.041883-25.6-2.861176-26.021647-2.650353-26.383059-2.409412L1214.915765 64.752941a2879.186824 2879.186824 0 0 0-13.522824-0.993882l-27.25647-1.867294-27.587765-1.596236-27.888941-1.385411-14.064941-0.602353-28.310589-1.024-28.611764-0.752941-28.912942-0.512L975.058824 55.717647z m0 9.035294l28.912941 0.120471c4.788706 0.060235 9.577412 0.090353 14.336 0.180706l28.551529 0.512 28.310589 0.752941 41.893647 1.596235 27.587764 1.355294 27.286589 1.596236 26.985411 1.807058 26.624 2.078118 26.292706 2.258824 12.980706 1.204705 38.460236 4.005647 25.148235 2.921412 24.756706 3.102118 24.304941 3.312941 23.913412 3.523765 23.431529 3.734588 22.949647 3.915294 22.497882 4.065882 21.985883 4.276706 21.504 4.427294c3.553882 0.752941 7.077647 1.505882 10.541176 2.288942l20.720941 4.698353 20.178824 4.879058 19.576471 4.99953 9.607529 2.590117 18.733176 5.270589 9.125648 2.68047 17.859764 5.481412c2.921412 0.903529 5.812706 1.867294 8.673883 2.800941l16.896 5.722353c2.770824 0.933647 5.511529 1.897412 8.222117 2.891294l15.962353 5.903059c36.442353 13.944471 67.463529 28.973176 92.310588 44.875294l10.270118 6.866824c37.857882 26.503529 58.639059 55.175529 58.639059 84.992 0 50.597647-59.723294 97.882353-161.219765 136.734117l-15.962353 5.933177c-5.421176 1.927529-10.932706 3.855059-16.564706 5.75247l-17.227294 5.632-8.854588 2.770824-18.130824 5.421176-18.733176 5.270589-19.335529 5.12-19.877647 4.909176-20.419765 4.818824-20.992 4.577882-21.473883 4.457412-21.985882 4.246588-22.528 4.096-22.949647 3.915294-11.655529 1.867294-23.672471 3.614118-24.094118 3.433412-12.227764 1.626353-24.756706 3.132235-25.148235 2.891294-25.539765 2.710588-25.901177 2.499765-26.292706 2.288941-26.624 2.048-13.462588 0.933647-27.105882 1.716706-27.437177 1.505882-27.738353 1.204706-13.974588 0.542118-28.16 0.903529-28.431059 0.602353-28.672 0.39153-28.912941 0.12047-28.882823-0.12047-28.672-0.39153-28.400941-0.602353-28.16-0.903529-41.712942-1.776941-27.437176-1.505883-27.105882-1.686588-26.804706-1.927529-26.50353-2.168471-13.071059-1.174588-25.901176-2.499765-25.569882-2.710588-25.148236-2.891294-24.726588-3.132235-36.321882-5.059765-23.672471-3.614118-23.190588-3.794823-22.738824-4.005647-22.256941-4.186353-21.744941-4.336941-21.232941-4.517647a1620.178824 1620.178824 0 0 1-10.420706-2.349177l-20.419765-4.788706-19.877647-4.939294-19.335529-5.12-18.733177-5.240471-18.130823-5.421176-17.528471-5.571765-16.926117-5.692235-16.26353-5.842824a797.394824 797.394824 0 0 1-7.890823-2.981647l-15.299765-6.023529a533.082353 533.082353 0 0 1-60.235294-28.732235l-11.384471-6.716236-10.631529-6.806588c-41.050353-27.407059-63.668706-57.313882-63.668706-88.455529 0-46.682353 50.868706-90.563765 138.541176-127.608471l14.938353-6.113882 15.631059-5.993412 8.041412-2.921412 16.594823-5.782588 8.553412-2.831059 17.528471-5.571764 8.975059-2.710589 18.462117-5.330823c3.102118-0.903529 6.264471-1.746824 9.426824-2.620236l19.305412-5.12 9.878588-2.469647 20.178823-4.879058 20.690824-4.698353 21.232941-4.517647 21.744941-4.367059 22.256941-4.186353 22.738824-3.97553 23.190588-3.824941 23.672471-3.614117 24.094117-3.403295 24.545883-3.222588 24.937411-3.011764 12.649412-1.445648 38.430118-3.975529 26.112-2.409412 26.443294-2.138353 26.804706-1.957647 13.552941-0.903529 27.256471-1.566118 27.587764-1.355294 27.888942-1.14447 14.034823-0.451765 28.310588-0.752941 28.521412-0.512 28.792471-0.271059 14.45647-0.030118z" fill="#3655A3" p-id="7369"></path><path d="M150.166588 302.441412a824.862118 226.876235 0 1 0 1649.724236 0 824.862118 226.876235 0 1 0-1649.724236 0Z" fill="#FFFFFF" p-id="7370"></path><path d="M572.325647 522.300235l40.929882 5.662118v279.401412l-40.929882-5.541647z" fill="#90A2D3" opacity=".443" p-id="7371"></path><path d="M1449.863529 116.555294l15.781647 3.343059L874.616471 527.751529l-17.769412-0.662588z" fill="#90A2D3" opacity=".241" p-id="7372"></path><path d="M1191.634824 331.745882a173.899294 54.422588 0 1 0 347.798588 0 173.899294 54.422588 0 1 0-347.798588 0Z" fill="#D5E0FF" p-id="7373"></path><path d="M1212.476235 311.567059a153.057882 47.887059 0 1 0 306.115765 0 153.057882 47.887059 0 1 0-306.115765 0Z" fill="#6E85C4" p-id="7374"></path><path d="M1206.603294 253.590588h21.564235c27.858824-15.058824 79.932235-25.208471 139.565177-25.20847 59.632941 0 111.676235 10.149647 139.535059 25.20847h21.564235v25.208471c0 27.858824-72.131765 50.416941-161.129412 50.416941-88.967529 0-161.129412-22.588235-161.129412-50.416941v-25.208471z" fill="#D5E0FF" p-id="7375"></path><path d="M1206.603294 253.590588a161.129412 50.416941 0 1 0 322.258824 0 161.129412 50.416941 0 1 0-322.258824 0Z" fill="#F0F4FF" p-id="7376"></path><path d="M77.040941 546.424471c-12.920471-61.44-14.245647-137.336471-14.245647-137.336471s7.800471 38.4 39.755294 63.006118c3.915294 3.011765-3.945412 39.845647 0 80.715294 3.915294 40.899765 20.992 98.454588 20.992 98.454588S89.931294 607.864471 77.040941 546.424471z" fill="#7E92CB" p-id="7377"></path></svg>