<?xml version="1.0" standalone="no"?><!DOCTYPE svg PUBLIC "-//W3C//DTD SVG 1.1//EN" "http://www.w3.org/Graphics/SVG/1.1/DTD/svg11.dtd"><svg t="1741919750665" class="icon" viewBox="0 0 1024 1024" version="1.1" xmlns="http://www.w3.org/2000/svg" p-id="4427" xmlns:xlink="http://www.w3.org/1999/xlink" width="256" height="256"><path d="M706.005333 692.736a17.92 17.92 0 0 0-3.882666-19.413333l-168.277334-189.013334a17.877333 17.877333 0 0 0-25.173333 0l-169.728 189.013334a17.664 17.664 0 0 0-3.84 19.413333 17.493333 17.493333 0 0 0 16.426667 10.624h93.184c0 157.738667-27.093333 243.498667-206.848 295.68 301.013333 0 359.936-174.08 359.936-295.68h91.733333a17.493333 17.493333 0 0 0 16.469333-10.624z" fill="#292D32" p-id="4428"></path><path d="M143.658667 24.96a113.066667 113.066667 0 0 0-113.066667 113.066667v603.008c0 62.421333 34.304 113.066667 113.066667 113.066666h162.816a25.6 25.6 0 0 0 25.6-25.6v-23.253333a25.6 25.6 0 0 0-25.6-25.6H143.658667c-20.736 0-37.674667-17.877333-37.674667-38.613333V157.525333a42.666667 42.666667 0 0 1 42.666667-42.666666h743.765333a42.666667 42.666667 0 0 1 42.666667 42.666666v583.509334c0 20.736-16.938667 38.613333-37.674667 38.613333h-200.533333a25.6 25.6 0 0 0-25.6 25.6v23.253333a25.6 25.6 0 0 0 25.6 25.6h200.533333c74.069333 0 113.066667-50.645333 113.066667-113.066666V138.026667a113.066667 113.066667 0 0 0-113.066667-113.066667H143.658667z" fill="#292D32" p-id="4429"></path><path d="M271.146667 250.88a27.050667 27.050667 0 0 1-27.093334 27.093333h-37.973333a27.050667 27.050667 0 0 1-27.136-27.093333v-27.093333c0-14.976 12.117333-27.093333 27.093333-27.093334h37.973334c15.018667 0 27.136 12.074667 27.136 27.093334v27.093333zM389.248 250.88a27.050667 27.050667 0 0 1-27.093333 27.093333h-37.973334a27.050667 27.050667 0 0 1-27.093333-27.093333v-27.093333c0-14.976 12.117333-27.093333 27.093333-27.093334h37.973334c14.976 0 27.093333 12.074667 27.093333 27.093334v27.093333z" fill="#292D32" p-id="4430"></path><path d="M832.256 277.973333h-364.032a29.866667 29.866667 0 0 1-29.866667-29.866666V226.56a29.866667 29.866667 0 0 1 29.866667-29.866667h364.032a29.866667 29.866667 0 0 1 29.866667 29.866667v21.546667a29.866667 29.866667 0 0 1-29.866667 29.866666z" fill="#0077FF" p-id="4431"></path></svg>