<?xml version="1.0" standalone="no"?><!DOCTYPE svg PUBLIC "-//W3C//DTD SVG 1.1//EN" "http://www.w3.org/Graphics/SVG/1.1/DTD/svg11.dtd">
<svg t="1599119539399" class="icon" viewBox="0 0 1024 1024" version="1.1" xmlns="http://www.w3.org/2000/svg" p-id="16161" xmlns:xlink="http://www.w3.org/1999/xlink" width="200" height="200">
  <defs>
    <path id="path"
      d="M456.533333 64l83.2 49.066667v102.4l83.2-53.333334 83.2 49.066667v104.533333l83.2-55.466666 83.2 49.066666v334.933334c8.533333 10.666667 14.933333 23.466667 14.933334 36.266666 0 29.866667-25.6 55.466667-55.466667 55.466667s-55.466667-25.6-55.466667-55.466667c0-14.933333 4.266667-27.733333 14.933334-36.266666V358.4l-83.2 55.466667v339.2c10.666667 10.666667 19.2 25.6 19.2 42.666666 0 32-25.6 59.733333-59.733334 59.733334s-59.733333-25.6-59.733333-59.733334c0-14.933333 6.4-29.866667 14.933333-40.533333V262.4l-83.2 53.333333v541.866667c10.666667 10.666667 19.2 25.6 19.2 42.666667 0 32-25.6 59.733333-59.733333 59.733333-32 0-59.733333-25.6-59.733333-59.733333 0-14.933333 6.4-29.866667 14.933333-40.533334V366.933333l-83.2 53.333334v334.933333c8.533333 10.666667 14.933333 23.466667 14.933333 36.266667 0 29.866667-25.6 55.466667-55.466666 55.466666s-55.466667-25.6-55.466667-55.466666c0-14.933333 4.266667-27.733333 14.933333-36.266667v-384l168.533334-104.533333V164.266667L204.8 322.133333v320c8.533333 10.666667 14.933333 23.466667 14.933333 36.266667 0 29.866667-25.6 55.466667-55.466666 55.466667S106.666667 710.4 106.666667 680.533333c0-14.933333 4.266667-27.733333 14.933333-36.266666V275.2L456.533333 64z"
      fill='#506BEE' />
    <radialGradient id="grad1" cx="50%" cy="50%" r="50%" fx="50%" fy="50%">
          <stop offset="0%" style="stop-color:#03e4fe;stop-opacity:1" />
          <stop offset="20%" style="stop-color:#03e4fe;stop-opacity:.9" />
          <stop offset="100%" style="stop-color:#03e4fe;stop-opacity:0" />
        </radialGradient>
        <mask id="mask">
          <circle id="circle" cx='0' cy='0' r='120' fill='url(#grad1)'>
            <animateMotion dur='10'
                           path="M456.533333 64l83.2 49.066667v102.4l83.2-53.333334 83.2 49.066667v104.533333l83.2-55.466666 83.2 49.066666v334.933334c8.533333 10.666667 14.933333 23.466667 14.933334 36.266666 0 29.866667-25.6 55.466667-55.466667 55.466667s-55.466667-25.6-55.466667-55.466667c0-14.933333 4.266667-27.733333 14.933334-36.266666V358.4l-83.2 55.466667v339.2c10.666667 10.666667 19.2 25.6 19.2 42.666666 0 32-25.6 59.733333-59.733334 59.733334s-59.733333-25.6-59.733333-59.733334c0-14.933333 6.4-29.866667 14.933333-40.533333V262.4l-83.2 53.333333v541.866667c10.666667 10.666667 19.2 25.6 19.2 42.666667 0 32-25.6 59.733333-59.733333 59.733333-32 0-59.733333-25.6-59.733333-59.733333 0-14.933333 6.4-29.866667 14.933333-40.533334V366.933333l-83.2 53.333334v334.933333c8.533333 10.666667 14.933333 23.466667 14.933333 36.266667 0 29.866667-25.6 55.466667-55.466666 55.466666s-55.466667-25.6-55.466667-55.466666c0-14.933333 4.266667-27.733333 14.933333-36.266667v-384l168.533334-104.533333V164.266667L204.8 322.133333v320c8.533333 10.666667 14.933333 23.466667 14.933333 36.266667 0 29.866667-25.6 55.466667-55.466666 55.466667S106.666667 710.4 106.666667 680.533333c0-14.933333 4.266667-27.733333 14.933333-36.266666V275.2L456.533333 64z"
                           rotate='auto' repeatCount='indefinite' />
          </circle>
        </mask>
      </defs>
  <use href='#path' stroke="rgba(0, 0, 0, .1)" strokeWidth='15'>
      </use>
      <use href='#path' stroke="#03e4fe" mask='url(#mask)' stroke-width="30">
        <animate attributeName='stroke-dasharray' from='0, 0' to='0, 0' dur='10s' repeatCount='indefinite' />
      </use>
  </svg>
