<?xml version="1.0" standalone="no"?><!DOCTYPE svg PUBLIC "-//W3C//DTD SVG 1.1//EN" "http://www.w3.org/Graphics/SVG/1.1/DTD/svg11.dtd"><svg t="1741916499983" class="icon" viewBox="0 0 1024 1024" version="1.1" xmlns="http://www.w3.org/2000/svg" p-id="8537" xmlns:xlink="http://www.w3.org/1999/xlink" width="256" height="256"><path d="M593.643 1016h-165.98c-20.57 0-36.083-19.108-36.083-44.446V886.5c-54.354-17.216-104.508-46.203-146.771-84.823l-73.733 42.569c-8.362 4.829-17.387 7.382-26.095 7.382-13.127 0-24.506-6.133-30.438-16.405l-82.99-143.744c-5.862-10.151-5.561-22.941 0.809-34.214 4.344-7.688 11.136-14.348 19.64-19.256l73.681-42.541a395.676 395.676 0 0 1-9.171-84.77c0-28.571 3.081-57.006 9.171-84.769L52.004 383.39c-8.506-4.912-15.298-11.57-19.642-19.258-6.369-11.271-6.67-24.062-0.808-34.214l82.989-143.742c5.931-10.274 17.311-16.408 30.438-16.408 8.706 0 17.729 2.552 26.094 7.38l73.733 42.571c42.262-38.62 92.417-67.607 146.772-84.823V49.842c0-25.339 15.513-44.448 36.083-44.448h165.979c20.57 0 36.082 19.108 36.082 44.448v85.054c54.357 17.216 104.512 46.204 146.774 84.824l73.731-42.571c8.368-4.829 17.391-7.381 26.096-7.381 13.127 0 24.505 6.134 30.437 16.407l82.991 143.744c5.862 10.152 5.558 22.942-0.81 34.213-4.346 7.69-11.139 14.35-19.645 19.259l-73.677 42.538a395.702 395.702 0 0 1 9.172 84.769c0 28.568-3.081 57.002-9.172 84.77l73.679 42.537c21.944 12.669 30.737 35.657 20.453 53.474l-82.992 143.745c-5.931 10.271-17.31 16.404-30.436 16.404h-0.001c-8.706 0-17.73-2.553-26.096-7.382l-73.735-42.569c-42.264 38.622-92.411 67.604-146.771 84.823v85.054c0.003 25.338-15.509 44.446-36.079 44.446z m-153.952-48.11h141.925V849.935l17.895-4.739c58.981-15.626 113.045-46.866 156.341-90.347l13.053-13.107 102.209 59.009 70.961-122.911-102.135-58.967 4.813-17.85c7.917-29.358 11.932-59.749 11.932-90.324s-4.015-60.964-11.931-90.323l-4.813-17.85 102.132-58.967-70.961-122.912-102.207 59.011-13.054-13.109c-43.294-43.48-97.356-74.722-156.341-90.348l-17.895-4.741V53.505H439.691V171.46l-17.896 4.741c-58.984 15.625-113.046 46.867-156.342 90.347l-13.052 13.109-102.207-59.01-70.963 122.911 102.134 58.967-4.814 17.851c-7.916 29.355-11.93 59.744-11.93 90.323 0 30.58 4.014 60.968 11.93 90.324l4.813 17.85-102.133 58.966 70.963 122.911 102.208-59.009 13.052 13.107c43.297 43.481 97.358 74.722 156.34 90.347l17.896 4.739V967.89z" fill="#3E3A39" p-id="8538"></path><path d="M537.868 701.111V565.103l163.212-81.607v136.01zM320.225 415.492l190.441-95.209 190.414 95.209-190.414 95.206zM483.464 701.111l-163.213-81.605v-136.01l163.213 81.607z" fill="#3E3A39" p-id="8539"></path></svg>