<?xml version="1.0" standalone="no"?><!DOCTYPE svg PUBLIC "-//W3C//DTD SVG 1.1//EN" "http://www.w3.org/Graphics/SVG/1.1/DTD/svg11.dtd"><svg t="1778637312187" class="icon" viewBox="0 0 1024 1024" version="1.1" xmlns="http://www.w3.org/2000/svg" p-id="9757" xmlns:xlink="http://www.w3.org/1999/xlink" width="256" height="256"><path d="M245.333333 362.666667c-64 0-117.333333 53.333333-117.333333 117.333333V682.666667c0 12.8 8.533333 21.333333 21.333333 21.333333h192c12.8 0 21.333333-8.533333 21.333334-21.333333v-202.666667c0-64-53.333333-117.333333-117.333334-117.333333zM170.666667 245.333333c0 40.533333 34.133333 74.666667 74.666666 74.666667s74.666667-34.133333 74.666667-74.666667S285.866667 170.666667 245.333333 170.666667 170.666667 204.8 170.666667 245.333333z" fill="#5059C9" p-id="9758"></path><path d="M448 384c-70.4 0-128 57.6-128 128v234.666667c0 12.8 8.533333 21.333333 21.333333 21.333333h213.333334c12.8 0 21.333333-8.533333 21.333333-21.333333V512c0-70.4-57.6-128-128-128zM362.666667 234.666667c0 46.933333 38.4 85.333333 85.333333 85.333333s85.333333-38.4 85.333333-85.333333-38.4-85.333333-85.333333-85.333334-85.333333 38.4-85.333333 85.333334z" fill="#7B83EB" p-id="9759"></path><path d="M704 426.666667c-106.666667 0-192 85.333333-192 192v277.333333c0 12.8 8.533333 21.333333 21.333333 21.333333h341.333334c12.8 0 21.333333-8.533333 21.333333-21.333333V618.666667c0-106.666667-85.333333-192-192-192zM576 234.666667c0 70.4 57.6 128 128 128s128-57.6 128-128-57.6-128-128-128-128 57.6-128 128z" fill="#4B53BC" p-id="9760"></path></svg>