<?xml version="1.0" standalone="no"?><!DOCTYPE svg PUBLIC "-//W3C//DTD SVG 1.1//EN" "http://www.w3.org/Graphics/SVG/1.1/DTD/svg11.dtd"><svg t="1769131519457" class="icon" viewBox="0 0 3150 1024" version="1.1" xmlns="http://www.w3.org/2000/svg" p-id="15226" xmlns:xlink="http://www.w3.org/1999/xlink" width="787.5" height="256"><path d="M1301.661538 396.524308c34.225231-39.936 63.842462-87.236923 87.827693-141.942154l30.168615 14.217846c-11.382154 23.945846-22.764308 46.198154-35.328 66.717538v239.419077h-30.759384V383.409231c-12.563692 18.235077-26.230154 34.776615-39.936 49.585231a453.828923 453.828923 0 0 0-11.972924-36.470154z m2.284308-147.101539c38.203077-38.754462 67.268923-78.651077 86.094769-119.138461l28.514462 15.990154a543.980308 543.980308 0 0 1-103.778462 138.515692c-2.835692-11.421538-6.813538-23.394462-10.830769-35.367385z m229.730462 177.860923h-60.416v21.110154c0 54.744615-15.36 93.459692-46.15877 116.854154a283.766154 283.766154 0 0 0-20.519384-29.065846c23.906462-15.990154 35.879385-46.198154 35.879384-91.214769v-48.443077h121.42277v79.202461c14.257231-11.972923 30.208-26.190769 47.891692-42.732307 2.835692 13.115077 5.12 25.088 7.995077 35.328-16.541538 13.115077-35.918769 29.656615-57.028923 49.033846-6.813538 6.301538-12.524308 12.524308-18.235077 18.235077l-23.355077-29.065847c7.955692-7.995077 12.524308-19.377231 12.524308-33.083076V427.323077z m-105.432616-145.92V169.629538h29.065846v80.935385h37.612308V134.301538h30.208v115.712h37.612308V169.078154h29.065846V296.172308h-29.065846v-14.808616h-134.498462z m9.097846 40.487385h145.329231v31.901538h-145.329231v-31.901538z m207.517539-193.811692l30.759385 5.671384c-5.12 27.963077-10.830769 54.744615-17.092924 80.384h98.619077v33.083077h-21.661538c-6.301538 87.197538-21.110154 156.16-43.913846 206.887385a286.798769 286.798769 0 0 0 69.001846 87.236923c-6.852923 11.972923-13.115077 23.355077-19.377231 35.328a360.448 360.448 0 0 1-66.717538-88.339692c-18.235077 31.901538-41.590154 62.109538-70.695385 91.766153-6.262154-8.546462-13.666462-18.235077-22.212923-28.514461 33.083077-31.350154 58.683077-63.803077 76.957538-98.067692-17.092923-42.141538-27.372308-89.442462-30.798769-141.90277-5.12 11.972923-10.24 22.803692-15.36 34.185846a205.587692 205.587692 0 0 0-21.661538-23.906461c25.048615-53.602462 43.874462-117.444923 54.153846-193.811692z m59.273846 118.547692h-54.744615l-1.142154 4.568615c0.590769 62.109538 9.137231 116.854154 26.230154 163.603693 13.115077-37.651692 22.843077-93.499077 29.656615-168.172308z m64.984615 100.312615c44.465231-66.126769 78.099692-139.657846 100.903385-220.002461l35.328 10.24a1125.139692 1125.139692 0 0 1-43.323077 113.427692v327.207385h-33.083077V317.282462a597.858462 597.858462 0 0 1-44.425846 67.268923l-15.399385-37.651693zM1901.371077 189.046154h148.755692c-9.097846-15.36-18.786462-31.350154-28.514461-46.749539l30.798769-15.950769c10.830769 16.541538 21.661538 33.634462 32.492308 51.869539l-19.968 10.24h157.932307v31.940923h-321.496615V189.046154z m25.048615 74.121846h269.075693v30.759385h-269.075693v-30.759385z m0 73.531077h269.075693v30.759385h-269.075693v-30.759385z m5.12 74.082461h259.938462v167.030154h-35.328v-27.372307h-189.243077v27.372307h-35.328v-166.990769z m224.610462 30.79877h-189.243077v77.508923h189.243077v-77.508923z m86.646154-250.249846h207.517538V125.755077h37.612308v65.536h197.789538v33.083077H2487.926154v67.820308h128.787692v31.901538c-27.332923 60.455385-66.087385 111.182769-116.263384 151.630769 49.624615 26.781538 113.427692 46.198154 191.527384 57.580308-10.830769 15.399385-19.377231 28.514462-26.190769 39.896615-86.646154-17.092923-153.363692-41.590154-200.073846-72.940307-49.624615 30.759385-117.444923 57.580308-204.091077 79.79323-6.301538-14.257231-12.563692-26.230154-19.968-35.918769 82.668308-18.786462 147.652923-41.038769 193.811692-66.678154-43.874462-37.612308-78.099692-88.379077-102.596923-151.079384H2287.852308v-33.083077h162.461538V224.964923h-207.517538v-33.634461z m328.900923 134.537846h-200.625231c22.212923 54.744615 54.153846 98.067692 96.334769 129.378461 47.300923-35.918769 82.077538-78.651077 104.290462-129.378461z m133.395692 18.786461c42.180923-59.273846 76.957538-131.662769 104.329846-217.718154l37.612308 14.217847a1408.787692 1408.787692 0 0 1-38.754462 94.64123v339.180308h-36.470153V308.145231A717.508923 717.508923 0 0 1 2719.901538 387.938462c-6.301538-20.48-10.830769-34.737231-14.848-43.323077z m132.844308-113.979077h209.171692V130.875077h37.060923v99.761231h66.126769v34.776615h-66.126769V496.246154c0 47.340308-21.661538 71.286154-64.393846 72.428308-14.257231 0.551385-37.060923 0-68.411077-0.59077a537.127385 537.127385 0 0 0-7.404308-41.038769 931.052308 931.052308 0 0 0 67.820308 3.426462c14.257231 0.551385 23.355077-2.875077 28.514462-9.137231 5.12-5.710769 7.404308-17.644308 7.404307-35.918769V265.452308h-209.762461v-34.776616z m29.617231 107.126154l30.798769-19.337846c18.786462 26.781538 40.448 62.109538 65.536 105.432615l-33.083077 20.519385c-21.661538-41.590154-42.732308-77.508923-63.251692-106.574769z m-1199.340308 363.716923l-62.700308 224.019693h-33.634461l-45.056-161.319385a77.193846 77.193846 0 0 1-3.387077-23.355077h-0.59077c-0.551385 7.955692-1.693538 15.36-3.977846 22.764308l-45.607384 161.870769h-33.634462l-64.984615-223.980308h31.901538l45.607385 169.275077c2.284308 7.443692 3.426462 15.399385 3.426461 22.843077h1.181539c0.551385-5.710769 2.244923-13.705846 4.529231-22.843077l48.443077-169.275077h28.514461l46.158769 170.417231c1.732923 5.710769 2.875077 12.563692 4.017231 21.661538h0.551385c0.590769-6.262154 1.732923-13.666462 3.977846-22.212923l43.913846-169.865846h31.350154z m151.630769 151.630769h-112.285538c0.551385 17.092923 5.12 30.208 14.217846 39.305847 9.137231 9.137231 21.110154 14.257231 37.060923 14.25723 17.683692 0 34.225231-5.671385 49.624615-17.092923v25.088c-14.257231 9.688615-32.531692 14.808615-55.886769 14.808616-23.355077 0-41.038769-7.404308-54.153846-22.212923-13.115077-14.848-19.377231-34.776615-19.377231-61.00677 0-24.497231 6.852923-44.465231 21.070769-60.416 14.257231-15.950769 31.940923-23.945846 53.011693-23.945846 21.110154 0 37.060923 6.852923 49.033846 19.968 11.972923 13.115077 17.683692 32.492308 17.683692 56.398769v14.848z m-28.514461-22.843076c0-14.217846-3.426462-25.6-10.24-33.595077-6.852923-7.995077-16.541538-11.972923-28.514462-11.972923a38.006154 38.006154 0 0 0-29.065846 12.524307 57.856 57.856 0 0 0-15.36 33.083077h83.180308z m223.468307 86.094769c-16.541538 8.546462-37.060923 13.115077-62.148923 13.115077-31.901538 0-57.580308-10.24-76.957538-30.759385s-29.065846-47.340308-29.065846-80.974769c0-35.879385 10.830769-64.984615 32.492307-87.197539 21.661538-22.212923 49.033846-33.083077 82.077539-33.083077 21.661538 0 39.345231 2.875077 53.011692 9.137231v30.208c-15.950769-9.097846-33.634462-13.115077-53.011692-13.115077-25.088 0-45.607385 8.546462-60.967385 25.088-15.399385 16.541538-23.394462 39.345231-23.394461 67.268923 0 26.781538 7.404308 47.891692 22.252307 63.842462 14.808615 15.950769 33.634462 23.945846 57.580308 23.945846 22.212923 0 41.590154-5.12 58.131692-14.808615v27.332923z m176.128 9.688615h-28.514461v-91.766154c0-32.492308-11.972923-48.443077-35.879385-48.443077a39.384615 39.384615 0 0 0-30.798769 14.257231c-8.546462 9.688615-11.972923 21.070769-11.972923 35.328v90.624h-28.514462v-237.095384h28.514462v103.187692h0.590769c11.972923-19.968 29.617231-30.247385 52.420923-30.247385 35.918769 0 54.153846 21.661538 54.153846 65.536v98.619077z m51.318154-149.346461a104.093538 104.093538 0 0 1 55.296-14.808616c38.754462 0 58.131692 20.519385 58.131692 61.006769v103.187693h-27.963077v-24.536616h-0.551384c-10.830769 18.825846-27.332923 28.514462-48.994462 28.514462-15.399385 0-27.963077-4.017231-37.060923-12.563692-9.137231-8.546462-13.705846-19.928615-13.705846-34.185847 0-29.656615 17.723077-47.300923 53.011692-52.460307l47.340308-6.813539c0-26.230154-10.830769-39.345231-32.492308-39.34523-19.377231 0-36.509538 6.301538-52.460307 19.37723v-27.372307h-0.551385z m47.300923 73.531077c-13.115077 1.732923-22.212923 5.12-27.372308 9.688615-5.12 4.568615-7.404308 11.421538-7.404307 20.558769 0 7.404308 2.875077 13.666462 7.995077 18.786462s12.524308 7.404308 21.661538 7.404307c12.524308 0 22.803692-4.529231 30.759385-13.115077 7.995077-8.546462 11.972923-19.377231 11.972923-32.492307v-15.36l-37.612308 4.529231z m189.243077 74.121846c-6.262154 3.426462-14.257231 5.12-25.088 5.12-28.475077 0-42.732308-15.950769-42.732308-47.891693V789.267692h-27.372307v-23.394461h27.372307v-38.754462l28.514462-9.097846v47.261539h39.896615v23.394461H2439.483077v87.236923c0 10.24 1.693538 18.235077 5.12 22.803692 3.426462 4.529231 9.688615 6.813538 17.683692 6.813539a27.175385 27.175385 0 0 0 16.541539-5.12v23.945846z m153.915077-82.077539v83.771077h-28.514462v-224.019692h63.842462c23.945846 0 42.771692 5.710769 56.438154 17.683692 13.705846 11.972923 19.968 28.514462 19.968 50.176 0 22.212923-7.995077 39.896615-23.394462 53.563077-15.36 13.705846-35.328 19.968-58.683077 19.377231h-29.656615v-0.551385z m0-115.160615v89.521231h26.781538c17.683692 0 31.350154-4.017231 40.487385-11.972923 9.137231-7.995077 13.666462-19.416615 13.666462-34.225231 0-29.065846-17.092923-43.323077-51.27877-43.323077h-29.656615z m142.493538 49.624615a104.093538 104.093538 0 0 1 55.296-14.848c38.793846 0 58.171077 20.519385 58.171077 61.006769v103.187693h-27.963077v-24.536616h-0.551384c-10.830769 18.825846-27.372308 28.514462-49.033846 28.514462-15.36 0-27.923692-4.017231-37.021539-12.563692-9.137231-8.546462-13.705846-19.928615-13.705846-34.185847 0-29.656615 17.683692-47.300923 53.011692-52.460307l47.300923-6.813539c0-26.230154-10.830769-39.345231-32.492307-39.34523-19.377231 0-36.470154 6.301538-52.420923 19.37723v-27.372307h-0.59077z m47.340308 73.491693c-13.115077 1.732923-22.252308 5.12-27.372308 9.688615-5.12 4.568615-7.404308 11.421538-7.404307 20.558769 0 7.404308 2.835692 13.666462 7.955692 18.786462s12.563692 7.404308 21.661539 7.404307c12.563692 0 22.843077-4.529231 30.798769-13.115077 7.995077-8.546462 11.972923-19.377231 11.972923-32.492307v-15.36l-37.612308 4.529231z m242.806154-84.361847l-72.388923 184.123077c-13.666462 34.225231-32.492308 51.318154-56.989539 51.318154-6.852923 0-13.115077-0.590769-18.235076-2.284308v-25.088c5.710769 2.284308 10.830769 3.426462 15.950769 3.426462 13.115077 0 22.252308-7.404308 29.065846-22.803692l12.563692-29.065846-62.700307-159.625847h31.350153l41.590154 120.280616 3.426462 13.115077h0.551384c0.590769-2.835692 1.732923-7.404308 3.426462-13.115077l43.913846-120.832h28.475077v0.551384z" fill="#4C4948" p-id="15227"></path><path d="M415.271385 645.592615a34.422154 34.422154 0 0 1-17.092923 4.017231 37.888 37.888 0 0 1-33.083077-19.377231l-2.244923-5.710769-103.778462-227.446154a18.983385 18.983385 0 0 1 17.092923-26.781538c4.017231 0 7.995077 1.142154 11.421539 3.977846l121.974153 86.646154a57.816615 57.816615 0 0 0 50.76677 5.710769l575.724307-256.512C932.864 88.694154 762.998154 8.861538 570.289231 8.861538 255.645538 8.900923 0.275692 221.577846 0.275692 483.761231c0 143.084308 76.957538 271.911385 197.238154 359.108923a37.809231 37.809231 0 0 1 15.990154 30.798769c0 3.977846-1.181538 7.955692-2.284308 11.972923-9.688615 35.918769-25.088 92.908308-25.678769 95.744-1.142154 4.568615-2.835692 9.137231-2.835692 13.705846 0 10.24 8.546462 18.786462 18.825846 18.786462 3.938462 0 7.404308-1.693538 10.830769-3.426462l125.400616-70.656a56.32 56.32 0 0 1 30.208-8.546461c5.710769 0 11.421538 1.142154 16.541538 2.284307 58.131692 16.541538 120.832 26.190769 185.816615 26.19077 314.683077 0 570.013538-212.598154 570.013539-474.820923 0-79.241846-23.355077-154.466462-64.984616-220.041847l-656.108307 378.486154-3.938462 2.284308z" fill="#00CC00" p-id="15228"></path></svg>