<?xml version="1.0" standalone="no"?><!DOCTYPE svg PUBLIC "-//W3C//DTD SVG 1.1//EN" "http://www.w3.org/Graphics/SVG/1.1/DTD/svg11.dtd"><svg t="1716798949145" class="icon" viewBox="0 0 1024 1024" version="1.1" xmlns="http://www.w3.org/2000/svg" p-id="2754" xmlns:xlink="http://www.w3.org/1999/xlink" width="200" height="200"><path d="M213.333333 563.2v230.4H157.866667v-230.4L76.8 230.4h59.733333l51.2 230.4 51.2-230.4H298.666667l-85.333334 332.8zM473.6 738.133333c-21.333333 38.4-42.666667 64-72.533333 64s-55.466667-21.333333-72.533334-64c-29.866667-55.466667-25.6-128-25.6-226.133333s0-170.666667 25.6-226.133333c21.333333-38.4 42.666667-64 72.533334-64s55.466667 21.333333 72.533333 64c29.866667 55.466667 25.6 128 25.6 226.133333s0 170.666667-25.6 226.133333z m-42.666667-384c-8.533333-21.333333-17.066667-29.866667-34.133333-29.866666-12.8 0-25.6 8.533333-34.133333 29.866666-8.533333 21.333333-12.8 46.933333-12.8 157.866667s4.266667 136.533333 12.8 157.866667c8.533333 17.066667 21.333333 29.866667 34.133333 29.866666 12.8 0 25.6-12.8 34.133333-29.866666 8.533333-25.6 12.8-51.2 12.8-157.866667 0-110.933333 0-136.533333-12.8-157.866667zM533.333333 793.6V230.4h55.466667v469.333333h123.733333v98.133334h-179.2zM896 738.133333c-21.333333 38.4-42.666667 64-72.533333 64s-55.466667-21.333333-72.533334-64c-29.866667-55.466667-25.6-128-25.6-226.133333s0-170.666667 25.6-226.133333c21.333333-38.4 42.666667-64 72.533334-64s55.466667 21.333333 72.533333 64c29.866667 55.466667 25.6 128 25.6 226.133333s0 170.666667-25.6 226.133333z m-42.666667-384c-8.533333-17.066667-21.333333-29.866667-34.133333-29.866666-12.8 0-25.6 12.8-34.133333 29.866666-8.533333 25.6-12.8 51.2-12.8 157.866667 0 110.933333 4.266667 136.533333 12.8 157.866667 8.533333 17.066667 21.333333 29.866667 34.133333 29.866666 12.8 0 25.6-12.8 34.133333-29.866666 8.533333-25.6 12.8-51.2 12.8-157.866667 0-110.933333 0-136.533333-12.8-157.866667z" p-id="2755"></path></svg>