<?xml version="1.0" standalone="no"?><!DOCTYPE svg PUBLIC "-//W3C//DTD SVG 1.1//EN" "http://www.w3.org/Graphics/SVG/1.1/DTD/svg11.dtd"><svg t="1716798941324" class="icon" viewBox="0 0 1024 1024" version="1.1" xmlns="http://www.w3.org/2000/svg" p-id="2594" xmlns:xlink="http://www.w3.org/1999/xlink" width="200" height="200"><path d="M65.06 747.49v-91.7c12.56 5.77 24.24 8.65 35.06 8.65 29.65 0 49.36-19.23 59.13-57.67-16.4 10.77-32.96 16.15-49.71 16.15-23.02 0-42.21-9.52-57.56-28.55-15.35-19.03-23.02-43.92-23.02-74.68V343.22h95.76v151.1c0 16.54 6.28 24.8 18.84 24.8 11.85 0 17.79-9.23 17.79-27.68V343.22h95.76v250.87c0 50.75-13.96 90.83-41.86 120.24-27.91 29.41-60 44.12-96.28 44.12-17.8 0-35.77-3.66-53.91-10.96zM297.91 483.94c0-39.98 13.16-74.48 39.51-103.52 26.33-29.02 57.64-43.54 93.92-43.54s67.58 14.52 93.92 43.54c26.34 29.03 39.51 63.54 39.51 103.52 0 39.99-13.08 74.39-39.24 103.23-26.16 28.84-57.56 43.25-94.19 43.25s-68.02-14.42-94.19-43.25c-26.16-28.84-39.24-63.24-39.24-103.23z m94.71 0c0 11.53 3.74 21.44 11.25 29.7 7.5 8.27 16.65 12.4 27.47 12.4 10.81 0 19.97-4.13 27.47-12.4 7.5-8.26 11.25-18.17 11.25-29.7 0-11.91-3.75-22-11.25-30.28-7.51-8.26-16.66-12.4-27.47-12.4-10.82 0-19.97 4.14-27.47 12.4-7.51 8.27-11.25 18.37-11.25 30.28zM700.81 239.42v384.66h-95.76V239.42h95.76zM741.61 483.94c0-39.98 13.16-74.48 39.51-103.52 26.33-29.02 57.64-43.54 93.92-43.54s67.58 14.52 93.92 43.54c26.34 29.03 39.51 63.54 39.51 103.52 0 39.99-13.08 74.39-39.24 103.23-26.16 28.84-57.56 43.25-94.19 43.25s-68.02-14.42-94.19-43.25c-26.16-28.84-39.24-63.24-39.24-103.23z m94.71 0c0 11.53 3.74 21.44 11.25 29.7 7.5 8.27 16.65 12.4 27.47 12.4 10.81 0 19.97-4.13 27.47-12.4 7.5-8.26 11.25-18.17 11.25-29.7 0-11.91-3.75-22-11.25-30.28-7.51-8.26-16.66-12.4-27.47-12.4-10.82 0-19.97 4.14-27.47 12.4-7.5 8.27-11.25 18.37-11.25 30.28z" fill="#29ABE2" p-id="2595"></path></svg>