<svg viewBox="0 0 300 300" fill="none" stroke="white" stroke-width="22">
  <path fill="rebeccapurple" stroke="none" d="
    M0,0 H250
    A 50 50 0 0 1 300 50
    V250
    A 50 50 0 0 1 250 300
    H50
    A 50 50 0 0 1 0 250
    Z"
  />
  <g id="css" transform="translate(70 220)">
    <path class="C" transform="translate(32 0)" d="
      M 21,-24
      C 21,-33 18,-48 0,-48
      C -18,-48 -21,-33 -21,-24
      V 24
      C -21,28 -18,48 0,48
      C 18,48 21,28  21,24
    " />
    <path class="S" transform="translate(104 0)" d="M 21,-24
      C 21,-33 18,-48 0,-48
      C -18,-48 -21,-33 -21,-24
      C -21,-14 -15,-6.25 0,0
      C 15,6.25 21,14 21,24
      C 21,28 18,48 0,48
      C -18,48 -21,28 -21,24"
    />
    <path class="S" transform="translate(176 0)" d="M 21,-24
      C 21,-33 18,-48 0,-48
      C -18,-48 -21,-33 -21,-24
      C -21,-14 -15,-6.25 0,0
      C 15,6.25 21,14 21,24
      C 21,28 18,48 0,48
      C -18,48 -21,28 -21,24"
    />
  </g>
</svg>
