<?xml version="1.0" standalone="no"?><!DOCTYPE svg PUBLIC "-//W3C//DTD SVG 1.1//EN" "http://www.w3.org/Graphics/SVG/1.1/DTD/svg11.dtd" ><svg xmlns="http://www.w3.org/2000/svg"><metadata></metadata><defs><font id="2.304;JB;JetBrainsMono-ExtraBold" horiz-adv-x="600"><font-face font-family="JetBrains Mono ExtraBold" font-weight="800" font-stretch="normal" units-per-em="1000" panose-1="2 0 0 9 0 0 0 0 0 0" ascent="1020" descent="-300" x-height="0" bbox="5 -180 595 870" underline-thickness="50" underline-position="-155" unicode-range="U+0022-007d" /><missing-glyph horiz-adv-x="600" d="M90 0 l0 730 l420 0 l0 -730 l-420 0 ZM140 109 l300 571 l-300 0 l0 -571 ZM160 50 l300 0 l0 571 l-300 -571 Z" /><glyph glyph-name="A" unicode="A" d="M25 0 l179 730 l190 0 l181 -730 l-153 0 l-35 165 l-174 0 l-35 -165 l-153 0 ZM238 285 l123 0 l-35 176 q-7 38 -14.5 75.5 q-7.5 37.5 -11.5 58.5 q-4 -21 -10.5 -58 q-6.5 -37 -14.5 -75 l-37 -177 Z" /><glyph glyph-name="B" unicode="B" d="M66 0 l0 730 l235 0 q73 0 127.5 -23.5 q54.5 -23.5 85 -65.5 q30.5 -42 30.5 -99 q0 -62 -34 -103.5 q-34 -41.5 -88 -49.5 l0 -2 q41 -4 72.5 -28.5 q31.5 -24.5 49 -62.5 q17.5 -38 17.5 -85 q0 -63 -31.5 -110.5 q-31.5 -47.5 -88 -74 q-56.5 -26.5 -131.5 -26.5 l-244 0 ZM211 436 l88 0 q44 0 69 23.5 q25 23.5 25 63.5 q0 41 -25 63.5 q-25 22.5 -69 22.5 l-88 0 l0 -173 ZM211 121 l94 0 q49 0 77 26 q28 26 28 72 q0 46 -28 72.5 q-28 26.5 -77 26.5 l-94 0 l0 -197 Z" /><glyph glyph-name="C" unicode="C" d="M308 -10 q-73 0 -128 27.5 q-55 27.5 -85.5 77 q-30.5 49.5 -30.5 115.5 l0 310 q0 67 30.5 116 q30.5 49 85.5 76.5 q55 27.5 128 27.5 q74 0 128.5 -27.5 q54.5 -27.5 85 -76.5 q30.5 -49 30.5 -116 l-150 0 q0 44 -24.5 67 q-24.5 23 -69.5 23 q-45 0 -69.5 -23 q-24.5 -23 -24.5 -67 l0 -310 q0 -43 24.5 -66.5 q24.5 -23.5 69.5 -23.5 q45 0 69.5 23.5 q24.5 23.5 24.5 66.5 l150 0 q0 -66 -30.5 -115.5 q-30.5 -49.5 -85 -77 q-54.5 -27.5 -128.5 -27.5 Z" /><glyph glyph-name="D" unicode="D" d="M63 0 l0 730 l237 0 q76 0 132.5 -29 q56.5 -29 88 -81.5 q31.5 -52.5 31.5 -123.5 l0 -261 q0 -70 -31.5 -123 q-31.5 -53 -88 -82.5 q-56.5 -29.5 -132.5 -29.5 l-237 0 ZM213 135 l87 0 q45 0 73.5 28 q28.5 28 28.5 72 l0 261 q0 44 -28.5 71.5 q-28.5 27.5 -73.5 27.5 l-87 0 l0 -460 Z" /><glyph glyph-name="E" unicode="E" d="M80 0 l0 730 l450 0 l0 -130 l-303 0 l0 -164 l268 0 l0 -124 l-268 0 l0 -182 l303 0 l0 -130 l-450 0 Z" /><glyph glyph-name="F" unicode="F" d="M70 0 l0 730 l470 0 l0 -140 l-322 0 l0 -162 l296 0 l0 -140 l-294 0 l0 -288 l-150 0 Z" /><glyph glyph-name="G" unicode="G" d="M304 -10 q-73 0 -128 27.5 q-55 27.5 -85.5 77 q-30.5 49.5 -30.5 115.5 l0 310 q0 67 30.5 116 q30.5 49 85.5 76.5 q55 27.5 128 27.5 q74 0 128.5 -27.5 q54.5 -27.5 85 -76.5 q30.5 -49 30.5 -116 l-150 0 q0 44 -24.5 67 q-24.5 23 -69.5 23 q-45 0 -69.5 -23 q-24.5 -23 -24.5 -67 l0 -310 q0 -43 24.5 -66.5 q24.5 -23.5 69.5 -23.5 q45 0 69.5 23.5 q24.5 23.5 24.5 66.5 l0 68 l-108 0 l0 127 l258 0 l0 -195 q0 -66 -30.5 -115.5 q-30.5 -49.5 -85 -77 q-54.5 -27.5 -128.5 -27.5 Z" /><glyph glyph-name="H" unicode="H" d="M66 0 l0 730 l150 0 l0 -284 l168 0 l0 284 l150 0 l0 -730 l-150 0 l0 311 l-168 0 l0 -311 l-150 0 Z" /><glyph glyph-name="I" unicode="I" d="M80 0 l0 135 l145 0 l0 460 l-145 0 l0 135 l440 0 l0 -135 l-145 0 l0 -460 l145 0 l0 -135 l-440 0 Z" /><glyph glyph-name="J" unicode="J" d="M270 -10 q-115 0 -182.5 62.5 q-67.5 62.5 -67.5 168.5 l150 0 q0 -46 27 -73.5 q27 -27.5 73 -27.5 q46 0 73 26.5 q27 26.5 27 72.5 l0 511 l150 0 l0 -511 q0 -106 -67 -167.5 q-67 -61.5 -183 -61.5 Z" /><glyph glyph-name="K" unicode="K" d="M65 0 l0 730 l150 0 l0 -286 l70 0 l122 286 l162 0 l-152 -345 l158 -385 l-164 0 l-125 313 l-71 0 l0 -313 l-150 0 Z" /><glyph glyph-name="L" unicode="L" d="M115 0 l0 730 l150 0 l0 -595 l295 0 l0 -135 l-445 0 Z" /><glyph glyph-name="M" unicode="M" d="M42 0 l0 730 l183 0 l74 -312 l74 312 l185 0 l0 -730 l-137 0 l0 280 q0 110 9.5 211.5 q9.5 101.5 19.5 178.5 l-92 -360 l-120 0 l-90 351 q10 -65 20.5 -165.5 q10.5 -100.5 10.5 -215.5 l0 -280 l-137 0 Z" /><glyph glyph-name="N" unicode="N" d="M60 0 l0 730 l175 0 l189 -565 q-3 37 -7 85.5 q-4 48.5 -6.5 97 q-2.5 48.5 -2.5 82.5 l0 300 l132 0 l0 -730 l-175 0 l-187 565 q3 -32 6 -76 q3 -44 5.5 -89 q2.5 -45 2.5 -80 l0 -320 l-132 0 Z" /><glyph glyph-name="O" unicode="O" d="M300 -10 q-110 0 -175 62 q-65 62 -65 168 l0 290 q0 107 65 168.5 q65 61.5 175 61.5 q110 0 175 -61.5 q65 -61.5 65 -168.5 l0 -290 q0 -106 -65 -168 q-65 -62 -175 -62 ZM300 120 q90 0 90 90 l0 310 q0 90 -90 90 q-90 0 -90 -90 l0 -310 q0 -90 90 -90 Z" /><glyph glyph-name="P" unicode="P" d="M66 0 l0 730 l249 0 q77 0 134.5 -29 q57.5 -29 89 -81 q31.5 -52 31.5 -122 q0 -69 -32 -121.5 q-32 -52.5 -89 -81.5 q-57 -29 -134 -29 l-99 0 l0 -266 l-150 0 ZM216 396 l99 0 q48 0 76.5 29 q28.5 29 28.5 73 q0 44 -28.5 73 q-28.5 29 -76.5 29 l-99 0 l0 -204 Z" /><glyph glyph-name="Q" unicode="Q" d="M400 -180 l-103 170 q-72 1 -125 28.5 q-53 27.5 -82.5 77 q-29.5 49.5 -29.5 114.5 l0 310 q0 67 30 116 q30 49 84 76.5 q54 27.5 126 27.5 q72 0 126 -27.5 q54 -27.5 84 -77 q30 -49.5 30 -115.5 l0 -310 q0 -65 -27.5 -114.5 q-27.5 -49.5 -79.5 -75.5 l123 -200 l-156 0 ZM300 121 q47 0 68.5 23 q21.5 23 21.5 66 l0 310 q0 44 -23 67 q-23 23 -67 23 q-43 0 -66.5 -23 q-23.5 -23 -23.5 -67 l0 -310 q0 -43 22 -66 q22 -23 68 -23 Z" /><glyph glyph-name="R" unicode="R" d="M66 0 l0 730 l234 0 q78 0 135 -27 q57 -27 88.5 -77 q31.5 -50 31.5 -118 q0 -71 -34.5 -127 q-34.5 -56 -93.5 -81 l138 -300 l-163 0 l-118 276 l-70 0 l0 -276 l-148 0 ZM214 406 l86 0 q50 0 77.5 25 q27.5 25 27.5 70 q0 47 -27.5 73 q-27.5 26 -77.5 26 l-86 0 l0 -194 Z" /><glyph glyph-name="S" unicode="S" d="M302 -10 q-77 0 -134.5 27 q-57.5 27 -89 76.5 q-31.5 49.5 -31.5 116.5 l146 0 q0 -41 29.5 -65.5 q29.5 -24.5 79.5 -24.5 q49 0 76.5 23.5 q27.5 23.5 27.5 62.5 q0 31 -18 55.5 q-18 24.5 -53 32.5 l-89 21 q-86 20 -136.5 77.5 q-50.5 57.5 -50.5 137.5 q0 98 63.5 154 q63.5 56 173.5 56 q110 0 175 -56.5 q65 -56.5 65 -152.5 l-146 0 q0 38 -25 59.5 q-25 21.5 -69 21.5 q-43 0 -67 -21 q-24 -21 -24 -56 q0 -57 69 -73 l92 -21 q86 -19 136.5 -82.5 q50.5 -63.5 50.5 -152.5 q0 -65 -30.5 -114 q-30.5 -49 -87 -75.5 q-56.5 -26.5 -133.5 -26.5 Z" /><glyph glyph-name="T" unicode="T" d="M225 0 l0 595 l-185 0 l0 135 l520 0 l0 -135 l-185 0 l0 -595 l-150 0 Z" /><glyph glyph-name="U" unicode="U" d="M300 -10 q-111 0 -175.5 60 q-64.5 60 -64.5 164 l0 516 l150 0 l0 -515 q0 -46 23.5 -70.5 q23.5 -24.5 66.5 -24.5 q42 0 66 24.5 q24 24.5 24 70.5 l0 515 l150 0 l0 -516 q0 -103 -64.5 -163.5 q-64.5 -60.5 -175.5 -60.5 Z" /><glyph glyph-name="V" unicode="V" d="M206 0 l-181 730 l155 0 l101 -461 q5 -24 12.5 -61 q7.5 -37 11.5 -63 q4 26 10 63 q6 37 11 62 l98 460 l151 0 l-179 -730 l-190 0 Z" /><glyph glyph-name="W" unicode="W" d="M78 0 l-68 730 l119 0 l37 -488 q1 -14 2.5 -39.5 q1.5 -25.5 3 -53 q1.5 -27.5 1.5 -49.5 q2 22 4.5 49.5 q2.5 27.5 5 53 q2.5 25.5 3.5 39.5 l58 488 l114 0 l56 -488 q2 -14 4.5 -39.5 q2.5 -25.5 5.5 -53 q3 -27.5 5 -49.5 q1 22 2 49.5 q1 27.5 2.5 53 q1.5 25.5 2.5 39.5 l34 488 l120 0 l-73 -730 l-156 0 l-49 485 q-1 17 -3.5 44.5 q-2.5 27.5 -4.5 57.5 q-2 30 -4 53 q-1 -23 -3 -53 q-2 -30 -4 -57.5 q-2 -27.5 -4 -44.5 l-54 -485 l-157 0 Z" /><glyph glyph-name="X" unicode="X" d="M20 0 l196 377 l-183 353 l165 0 l76 -160 q11 -22 18.5 -40 q7.5 -18 9.5 -26 q2 8 9 26 q7 18 17 40 l78 160 l161 0 l-183 -353 l196 -377 l-165 0 l-88 180 q-10 22 -18 41 q-8 19 -12 29 q-3 -10 -10 -29 q-7 -19 -18 -41 l-88 -180 l-161 0 Z" /><glyph glyph-name="Y" unicode="Y" d="M225 0 l0 260 l-210 470 l157 0 l92 -220 q14 -33 24.5 -70 q10.5 -37 14.5 -60 q5 23 14.5 60 q9.5 37 22.5 70 l89 220 l156 0 l-210 -470 l0 -260 l-150 0 Z" /><glyph glyph-name="Z" unicode="Z" d="M75 0 l0 135 l268 460 l-260 0 l0 135 l431 0 l0 -135 l-269 -460 l280 0 l0 -135 l-450 0 Z" /><glyph glyph-name="a" unicode="a" d="M229 -10 q-82 0 -130 47.5 q-48 47.5 -48 124.5 q0 83 59 131 q59 48 166 48 l108 0 l0 35 q0 31 -21.5 48.5 q-21.5 17.5 -61.5 17.5 q-38 0 -60.5 -15 q-22.5 -15 -24.5 -44 l-142 0 q3 81 64 129 q61 48 165 48 q109 0 170 -50 q61 -50 61 -140 l0 -370 l-145 0 l0 95 q-10 -49 -52.5 -77 q-42.5 -28 -107.5 -28 ZM282 110 q47 0 74.5 23.5 q27.5 23.5 27.5 61.5 l0 56 l-105 0 q-40 0 -61.5 -19.5 q-21.5 -19.5 -21.5 -50.5 q0 -31 22.5 -51 q22.5 -20 63.5 -20 Z" /><glyph glyph-name="b" unicode="b" d="M362 -10 q-55 0 -94 28.5 q-39 28.5 -57 80.5 l0 -99 l-145 0 l0 730 l150 0 l0 -150 l-4 -126 q18 51 56.5 78.5 q38.5 27.5 93.5 27.5 q80 0 129 -58.5 q49 -58.5 49 -156.5 l0 -140 q0 -98 -49 -156.5 q-49 -58.5 -129 -58.5 ZM304 120 q41 0 63.5 23.5 q22.5 23.5 22.5 66.5 l0 130 q0 44 -22.5 67 q-22.5 23 -63.5 23 q-43 0 -65.5 -24.5 q-22.5 -24.5 -22.5 -70.5 l0 -120 q0 -46 22.5 -70.5 q22.5 -24.5 65.5 -24.5 Z" /><glyph glyph-name="c" unicode="c" d="M309 -10 q-73 0 -128 27.5 q-55 27.5 -85 77 q-30 49.5 -30 115.5 l0 130 q0 67 30 116 q30 49 85 76.5 q55 27.5 128 27.5 q109 0 174 -55 q65 -55 69 -150 l-146 0 q-3 35 -29.5 55 q-26.5 20 -67.5 20 q-45 0 -69 -23 q-24 -23 -24 -67 l0 -130 q0 -43 24 -66.5 q24 -23.5 69 -23.5 q41 0 67.5 19.5 q26.5 19.5 29.5 55.5 l146 0 q-4 -95 -69 -150 q-65 -55 -174 -55 Z" /><glyph glyph-name="d" unicode="d" d="M238 -10 q-79 0 -128.5 58.5 q-49.5 58.5 -49.5 156.5 l0 140 q0 98 49.5 156.5 q49.5 58.5 128.5 58.5 q55 0 93.5 -27.5 q38.5 -27.5 56.5 -78.5 l-4 126 l0 150 l150 0 l0 -730 l-145 0 l0 99 q-18 -52 -57 -80.5 q-39 -28.5 -94 -28.5 ZM296 120 q43 0 65.5 24.5 q22.5 24.5 22.5 70.5 l0 120 q0 46 -22.5 70.5 q-22.5 24.5 -65.5 24.5 q-41 0 -63.5 -23 q-22.5 -23 -22.5 -67 l0 -130 q0 -43 22.5 -66.5 q22.5 -23.5 63.5 -23.5 Z" /><glyph glyph-name="e" unicode="e" d="M301 -10 q-73 0 -127.5 27.5 q-54.5 27.5 -84 77 q-29.5 49.5 -29.5 115.5 l0 130 q0 66 29.5 115.5 q29.5 49.5 84 77 q54.5 27.5 127.5 27.5 q73 0 126.5 -27.5 q53.5 -27.5 83 -77 q29.5 -49.5 29.5 -115.5 l0 -102 l-337 0 l0 -28 q0 -52 24.5 -76 q24.5 -24 73.5 -24 q32 0 56 10 q24 10 28 30 l147 0 q-16 -72 -79 -116 q-63 -44 -152 -44 ZM203 340 l0 -13 l194 2 l0 13 q0 51 -23.5 79 q-23.5 28 -72.5 28 q-49 0 -73.5 -29 q-24.5 -29 -24.5 -80 Z" /><glyph glyph-name="f" unicode="f" d="M190 0 l0 340 l-146 0 l0 135 l146 0 l0 85 q0 77 52.5 123.5 q52.5 46.5 137.5 46.5 l161 0 l0 -130 l-156 0 q-20 0 -32.5 -12.5 q-12.5 -12.5 -12.5 -32.5 l0 -80 l201 0 l0 -135 l-201 0 l0 -340 l-150 0 Z" /><glyph glyph-name="g" unicode="g" d="M145 -180 l0 120 l155 0 q42 0 64.5 21 q22.5 21 22.5 58 l0 21 l1 82 q-20 -44 -57 -68 q-37 -24 -88 -24 q-83 0 -133 58 q-50 58 -50 157 l0 100 q0 98 50 156.5 q50 58.5 133 58.5 q52 0 89 -24.5 q37 -24.5 57 -68.5 l0 83 l145 0 l0 -536 q0 -90 -61.5 -142 q-61.5 -52 -167.5 -52 l-160 0 ZM297 160 q41 0 64 23.5 q23 23.5 23 66.5 l0 90 q0 43 -23 66.5 q-23 23.5 -64 23.5 q-42 0 -64.5 -23.5 q-22.5 -23.5 -22.5 -66.5 l0 -90 q0 -43 22.5 -66.5 q22.5 -23.5 64.5 -23.5 Z" /><glyph glyph-name="h" unicode="h" d="M66 0 l0 730 l150 0 l0 -180 l-5 -99 q13 50 52.5 79.5 q39.5 29.5 95.5 29.5 q80 0 128.5 -56 q48.5 -56 48.5 -149 l0 -355 l-150 0 l0 340 q0 43 -22.5 66.5 q-22.5 23.5 -62.5 23.5 q-40 0 -62.5 -23.5 q-22.5 -23.5 -22.5 -66.5 l0 -340 l-150 0 Z" /><glyph glyph-name="i" unicode="i" d="M70 0 l0 135 l182 0 l0 280 l-162 0 l0 135 l312 0 l0 -415 l158 0 l0 -135 l-490 0 ZM320 637 q-41 0 -65.5 21 q-24.5 21 -24.5 57 q0 36 24.5 57 q24.5 21 65.5 21 q41 0 65.5 -21 q24.5 -21 24.5 -57 q0 -36 -24.5 -57 q-24.5 -21 -65.5 -21 Z" /><glyph glyph-name="j" unicode="j" d="M75 -180 l0 135 l160 0 q38 0 61.5 25 q23.5 25 23.5 65 l0 370 l-250 0 l0 135 l400 0 l0 -510 q0 -102 -60 -161 q-60 -59 -164 -59 l-171 0 ZM390 637 q-41 0 -65.5 21 q-24.5 21 -24.5 57 q0 36 24.5 57 q24.5 21 65.5 21 q41 0 65.5 -21 q24.5 -21 24.5 -57 q0 -36 -24.5 -57 q-24.5 -21 -65.5 -21 Z" /><glyph glyph-name="k" unicode="k" d="M71 0 l0 730 l150 0 l0 -388 l76 0 l115 208 l165 0 l-153 -269 l156 -281 l-168 0 l-116 216 l-75 0 l0 -216 l-150 0 Z" /><glyph glyph-name="l" unicode="l" d="M395 0 q-58 0 -102 24.5 q-44 24.5 -68.5 68.5 q-24.5 44 -24.5 102 l0 400 l-175 0 l0 135 l325 0 l0 -530 q0 -29 16.5 -47 q16.5 -18 43.5 -18 l155 0 l0 -135 l-170 0 Z" /><glyph glyph-name="m" unicode="m" d="M38 0 l0 550 l123 0 l0 -85 l2 0 q3 42 28 68.5 q25 26.5 64 26.5 q36 0 62.5 -25.5 q26.5 -25.5 34.5 -66.5 q3 42 29 67 q26 25 65 25 q49 0 82.5 -39 q33.5 -39 33.5 -101 l0 -420 l-129 0 l0 403 q0 48 -38 48 q-36 0 -36 -48 l0 -403 l-118 0 l0 403 q0 48 -36 48 q-38 0 -38 -48 l0 -403 l-129 0 Z" /><glyph glyph-name="n" unicode="n" d="M66 0 l0 550 l145 0 l0 -100 q12 50 51.5 80 q39.5 30 96.5 30 q80 0 128.5 -56 q48.5 -56 48.5 -149 l0 -355 l-150 0 l0 340 q0 43 -22.5 66.5 q-22.5 23.5 -62.5 23.5 q-40 0 -62.5 -23.5 q-22.5 -23.5 -22.5 -66.5 l0 -340 l-150 0 Z" /><glyph glyph-name="o" unicode="o" d="M300 -10 q-73 0 -127 27.5 q-54 27.5 -83.5 77 q-29.5 49.5 -29.5 115.5 l0 130 q0 66 29.5 115.5 q29.5 49.5 83.5 77 q54 27.5 127 27.5 q74 0 127.5 -27.5 q53.5 -27.5 83 -77 q29.5 -49.5 29.5 -115.5 l0 -130 q0 -66 -29.5 -115.5 q-29.5 -49.5 -83 -77 q-53.5 -27.5 -127.5 -27.5 ZM300 120 q44 0 67 23.5 q23 23.5 23 66.5 l0 130 q0 44 -23 67 q-23 23 -67 23 q-43 0 -66.5 -23 q-23.5 -23 -23.5 -67 l0 -130 q0 -43 23.5 -66.5 q23.5 -23.5 66.5 -23.5 Z" /><glyph glyph-name="p" unicode="p" d="M66 -180 l0 730 l145 0 l0 -100 q18 52 57 81 q39 29 94 29 q53 0 93 -27.5 q40 -27.5 62.5 -75.5 q22.5 -48 22.5 -112 l0 -140 q0 -63 -22.5 -111.5 q-22.5 -48.5 -62.5 -76 q-40 -27.5 -93 -27.5 q-54 0 -93 28.5 q-39 28.5 -57 79.5 l4 -128 l0 -150 l-150 0 ZM304 120 q41 0 63.5 23.5 q22.5 23.5 22.5 66.5 l0 130 q0 44 -22.5 67 q-22.5 23 -63.5 23 q-43 0 -65.5 -24.5 q-22.5 -24.5 -22.5 -70.5 l0 -120 q0 -46 22.5 -70.5 q22.5 -24.5 65.5 -24.5 Z" /><glyph glyph-name="q" unicode="q" d="M384 -180 l0 150 l5 125 l-1 0 q-19 -50 -57.5 -77.5 q-38.5 -27.5 -92.5 -27.5 q-79 0 -128.5 58.5 q-49.5 58.5 -49.5 156.5 l0 140 q0 98 49.5 156.5 q49.5 58.5 128.5 58.5 q55 0 94 -28.5 q39 -28.5 57 -80.5 l0 99 l145 0 l0 -730 l-150 0 ZM296 120 q43 0 65.5 24.5 q22.5 24.5 22.5 70.5 l0 120 q0 46 -22.5 70.5 q-22.5 24.5 -65.5 24.5 q-41 0 -63.5 -23 q-22.5 -23 -22.5 -67 l0 -130 q0 -43 22.5 -66.5 q22.5 -23.5 63.5 -23.5 Z" /><glyph glyph-name="r" unicode="r" d="M86 0 l0 550 l145 0 l0 -104 q12 53 52.5 83.5 q40.5 30.5 101.5 30.5 q83 0 130 -56 q47 -56 47 -154 l0 -55 l-150 0 l0 45 q0 43 -23 66.5 q-23 23.5 -65 23.5 q-42 0 -65 -26.5 q-23 -26.5 -23 -75.5 l0 -328 l-150 0 Z" /><glyph glyph-name="s" unicode="s" d="M277 -10 q-68 0 -119 21.5 q-51 21.5 -79.5 59.5 q-28.5 38 -28.5 89 l147 0 q0 -28 21 -42 q21 -14 59 -14 l44 0 q41 0 63.5 14 q22.5 14 22.5 40 q0 25 -18 36.5 q-18 11.5 -55 15.5 l-126 15 q-73 9 -112 54.5 q-39 45.5 -39 113.5 q0 167 214 167 l47 0 q101 0 161 -44 q60 -44 60 -118 l-147 0 q0 24 -19.5 37 q-19.5 13 -54.5 13 l-47 0 q-35 0 -53 -13 q-18 -13 -18 -36 q0 -23 17.5 -31 q17.5 -8 49.5 -12 l120 -15 q81 -10 122 -57 q41 -47 41 -124 q0 -81 -58 -125.5 q-58 -44.5 -171 -44.5 l-44 0 Z" /><glyph glyph-name="t" unicode="t" d="M355 0 q-84 0 -132 48 q-48 48 -48 132 l0 235 l-148 0 l0 135 l148 0 l0 155 l150 0 l0 -155 l215 0 l0 -135 l-215 0 l0 -230 q0 -22 11.5 -36 q11.5 -14 33.5 -14 l165 0 l0 -135 l-180 0 Z" /><glyph glyph-name="u" unicode="u" d="M300 -10 q-111 0 -173.5 60 q-62.5 60 -62.5 164 l0 336 l150 0 l0 -335 q0 -95 86 -95 q41 0 63.5 24.5 q22.5 24.5 22.5 70.5 l0 335 l150 0 l0 -336 q0 -105 -63 -164.5 q-63 -59.5 -173 -59.5 Z" /><glyph glyph-name="v" unicode="v" d="M207 0 l-183 550 l155 0 l96 -309 q9 -28 16.5 -58 q7.5 -30 9.5 -56 q2 26 9 56 q7 30 15 57 l94 310 l157 0 l-181 -550 l-188 0 Z" /><glyph glyph-name="w" unicode="w" d="M88 0 l-83 550 l115 0 l43 -300 q5 -38 8 -81 q3 -43 5 -72 q2 29 5 72 q3 43 10 81 l53 300 l114 0 l51 -300 q7 -38 11 -81.5 q4 -43.5 6 -72.5 q2 29 4 72.5 q2 43.5 8 81.5 l45 300 l112 0 l-84 -550 l-150 0 l-45 310 q-4 29 -9 69 q-5 40 -7 66 q0 -17 -3 -42 q-3 -25 -6 -49.5 q-3 -24.5 -6 -43.5 l-46 -310 l-151 0 Z" /><glyph glyph-name="x" unicode="x" d="M26 0 l190 285 l-177 265 l167 0 l68 -110 q8 -13 15 -29 q7 -16 11 -26 q4 10 11 26 q7 16 15 29 l68 110 l167 0 l-176 -265 l189 -285 l-167 0 l-80 130 q-8 14 -15.5 29.5 q-7.5 15.5 -11.5 25.5 q-4 -10 -11 -25.5 q-7 -15.5 -15 -29.5 l-81 -130 l-167 0 Z" /><glyph glyph-name="y" unicode="y" d="M156 -180 l75 207 l-207 523 l156 0 l89 -240 q10 -27 20.5 -62 q10.5 -35 14.5 -66 q4 31 13 66 q9 35 19 62 l83 240 l157 0 l-263 -730 l-157 0 Z" /><glyph glyph-name="z" unicode="z" d="M70 0 l0 130 l272 290 l-262 0 l0 130 l439 0 l0 -130 l-272 -290 l283 0 l0 -130 l-460 0 Z" /><glyph glyph-name="zero" unicode="0" d="M300 -10 q-73 0 -127 27.5 q-54 27.5 -83.5 77 q-29.5 49.5 -29.5 115.5 l0 310 q0 66 29.5 115.5 q29.5 49.5 83.5 77 q54 27.5 127 27.5 q74 0 127.5 -27.5 q53.5 -27.5 83 -77 q29.5 -49.5 29.5 -115.5 l0 -310 q0 -66 -29.5 -115.5 q-29.5 -49.5 -83 -77 q-53.5 -27.5 -127.5 -27.5 ZM300 120 q47 0 73.5 24 q26.5 24 26.5 66 l0 310 q0 42 -26.5 66 q-26.5 24 -73.5 24 q-47 0 -73.5 -24 q-26.5 -24 -26.5 -66 l0 -310 q0 -42 27 -66 q27 -24 73 -24 ZM300 301 q-31 0 -50.5 17.5 q-19.5 17.5 -19.5 49.5 q0 32 19.5 48.5 q19.5 16.5 50.5 16.5 q32 0 51 -16.5 q19 -16.5 19 -48.5 q0 -32 -19 -49.5 q-19 -17.5 -51 -17.5 Z" /><glyph glyph-name="one" unicode="1" d="M80 0 l0 135 l184 0 l0 443 l-186 -134 l0 166 l171 120 l165 0 l0 -595 l146 0 l0 -135 l-480 0 Z" /><glyph glyph-name="two" unicode="2" d="M65 0 l0 134 l277 275 q42 42 42 101 q0 41 -24.5 68 q-24.5 27 -64.5 27 q-41 0 -66.5 -28 q-25.5 -28 -25.5 -72 l-150 0 q0 70 31.5 122.5 q31.5 52.5 87 82.5 q55.5 30 128.5 30 q71 0 124 -27.5 q53 -27.5 83 -77 q30 -49.5 30 -114.5 q0 -58 -25 -112.5 q-25 -54.5 -81 -107.5 l-174 -166 l288 0 l0 -135 l-480 0 Z" /><glyph glyph-name="three" unicode="3" d="M296 -10 q-112 0 -178 56.5 q-66 56.5 -66 153.5 l150 0 q0 -37 25.5 -58.5 q25.5 -21.5 68.5 -21.5 q44 0 69 21.5 q25 21.5 25 58.5 l0 58 q0 41 -24.5 63.5 q-24.5 22.5 -69.5 22.5 l-100 0 l0 116 l160 140 l-274 0 l0 130 l436 0 l0 -121 l-161 -144 q86 -15 134.5 -69 q48.5 -54 48.5 -137 l0 -59 q0 -97 -65.5 -153.5 q-65.5 -56.5 -178.5 -56.5 Z" /><glyph glyph-name="four" unicode="4" d="M370 0 l0 134 l-318 0 l0 209 l272 387 l165 0 l-297 -429 l0 -37 l178 0 l0 156 l150 0 l0 -420 l-150 0 Z" /><glyph glyph-name="five" unicode="5" d="M298 -10 q-112 0 -179 56.5 q-67 56.5 -67 153.5 l150 0 q0 -37 26.5 -58.5 q26.5 -21.5 69.5 -21.5 q44 0 68 22.5 q24 22.5 24 62.5 l0 51 q0 84 -92 84 l-221 0 l0 390 l436 0 l0 -135 l-293 0 l0 -125 l84 0 q113 0 174.5 -56 q61.5 -56 61.5 -158 l0 -51 q0 -100 -64.5 -157.5 q-64.5 -57.5 -177.5 -57.5 Z" /><glyph glyph-name="six" unicode="6" d="M300 -10 q-78 0 -135.5 30.5 q-57.5 30.5 -88.5 86 q-31 55.5 -31 131.5 q0 41 19 99 q19 58 52 118 l150 275 l171 0 l-193 -328 l5 -3 q17 25 47.5 39 q30.5 14 67.5 14 q88 0 139.5 -60 q51.5 -60 51.5 -163 q0 -110 -68.5 -174.5 q-68.5 -64.5 -186.5 -64.5 ZM300 115 q50 0 79.5 30 q29.5 30 29.5 82 q0 53 -29.5 83.5 q-29.5 30.5 -79.5 30.5 q-50 0 -79.5 -30.5 q-29.5 -30.5 -29.5 -83.5 q0 -52 29.5 -82 q29.5 -30 79.5 -30 Z" /><glyph glyph-name="seven" unicode="7" d="M136 0 l272 600 l-201 0 l0 -120 l-150 0 l0 250 l513 0 l0 -129 l-270 -601 l-164 0 Z" /><glyph glyph-name="eight" unicode="8" d="M300 -10 q-76 0 -133.5 27.5 q-57.5 27.5 -90 77 q-32.5 49.5 -32.5 113.5 q0 44 17.5 81 q17.5 37 48 63 q30.5 26 69.5 35 l0 2 q-50 9 -82 51.5 q-32 42.5 -32 101.5 q0 59 30 103.5 q30 44.5 83 69.5 q53 25 122 25 q70 0 123 -25 q53 -25 83 -69.5 q30 -44.5 30 -103.5 q0 -59 -32.5 -101.5 q-32.5 -42.5 -82.5 -51.5 l0 -2 q40 -9 70 -35 q30 -26 47.5 -63 q17.5 -37 17.5 -81 q0 -64 -32.5 -113.5 q-32.5 -49.5 -90 -77 q-57.5 -27.5 -133.5 -27.5 ZM300 437 q41 0 66.5 25.5 q25.5 25.5 25.5 65.5 q0 41 -25.5 66 q-25.5 25 -66.5 25 q-40 0 -65.5 -25 q-25.5 -25 -25.5 -66 q0 -40 25.5 -65.5 q25.5 -25.5 65.5 -25.5 ZM300 113 q50 0 81 29 q31 29 31 75 q0 47 -31 75.5 q-31 28.5 -81 28.5 q-49 0 -80.5 -28.5 q-31.5 -28.5 -31.5 -75.5 q0 -46 31.5 -75 q31.5 -29 80.5 -29 Z" /><glyph glyph-name="nine" unicode="9" d="M160 0 l164 281 q-8 -5 -18.5 -9 q-10.5 -4 -39.5 -4 q-58 0 -108.5 29.5 q-50.5 29.5 -81.5 82.5 q-31 53 -31 121 q0 110 68.5 174.5 q68.5 64.5 186.5 64.5 q79 0 136 -30.5 q57 -30.5 88 -86 q31 -55.5 31 -131.5 q0 -40 -19 -98.5 q-19 -58.5 -52 -118.5 l-150 -275 l-174 0 ZM300 389 q50 0 79.5 31 q29.5 31 29.5 83 q0 52 -29.5 82 q-29.5 30 -79.5 30 q-50 0 -79.5 -30 q-29.5 -30 -29.5 -82 q0 -52 29.5 -83 q29.5 -31 79.5 -31 Z" /><glyph glyph-name="period" unicode="." d="M300 -10 q-45 0 -73 28 q-28 28 -28 73 q0 45 28 73 q28 28 73 28 q45 0 73 -28 q28 -28 28 -73 q0 -45 -28 -73 q-28 -28 -73 -28 Z" /><glyph glyph-name="comma" unicode="," d="M175 -160 l52 306 l168 0 l-80 -306 l-140 0 Z" /><glyph glyph-name="colon" unicode=":" d="M300 380 q-45 0 -72.5 25 q-27.5 25 -27.5 65 q0 41 27.5 65.5 q27.5 24.5 72.5 24.5 q45 0 72.5 -24.5 q27.5 -24.5 27.5 -65.5 q0 -40 -27.5 -65 q-27.5 -25 -72.5 -25 ZM300 -10 q-45 0 -72.5 25 q-27.5 25 -27.5 65 q0 41 27.5 65.5 q27.5 24.5 72.5 24.5 q45 0 72.5 -24.5 q27.5 -24.5 27.5 -65.5 q0 -40 -27.5 -65 q-27.5 -25 -72.5 -25 Z" /><glyph glyph-name="semicolon" unicode=";" d="M290 380 q-39 0 -64.5 25.5 q-25.5 25.5 -25.5 64.5 q0 39 25.5 64.5 q25.5 25.5 64.5 25.5 l20 0 q39 0 64.5 -25.5 q25.5 -25.5 25.5 -64.5 q0 -39 -25.5 -64.5 q-25.5 -25.5 -64.5 -25.5 l-20 0 ZM170 -160 l52 306 l168 0 l-80 -306 l-140 0 Z" /><glyph glyph-name="braceleft" unicode="{" d="M430 -111 q-59 0 -102 23.5 q-43 23.5 -63.5 65 q-20.5 41.5 -14.5 96.5 l15 145 q3 32 -13.5 51 q-16.5 19 -46.5 19 l-140 0 l0 140 l140 0 q30 0 46.5 19.5 q16.5 19.5 13.5 50.5 l-15 151 q-5 54 15.5 94.5 q20.5 40.5 63 63 q42.5 22.5 101.5 22.5 l85 0 l0 -140 l-55 0 q-29 0 -45.5 -16.5 q-16.5 -16.5 -14.5 -43.5 l15 -151 q4 -46 -26.5 -77.5 q-30.5 -31.5 -85.5 -41.5 q55 -9 85.5 -41.5 q30.5 -32.5 26.5 -79.5 l-15 -150 q-3 -27 13.5 -43.5 q16.5 -16.5 46.5 -16.5 l55 0 l0 -140 l-85 0 Z" /><glyph glyph-name="braceright" unicode="}" d="M85 -111 l0 140 l55 0 q30 0 46.5 16.5 q16.5 16.5 13.5 43.5 l-15 150 q-4 47 26.5 79.5 q30.5 32.5 85.5 41.5 q-55 10 -85.5 41.5 q-30.5 31.5 -26.5 77.5 l15 151 q2 27 -14.5 43.5 q-16.5 16.5 -45.5 16.5 l-55 0 l0 140 l85 0 q59 0 101 -22.5 q42 -22.5 63.5 -63 q21.5 -40.5 15.5 -94.5 l-15 -151 q-3 -31 13.5 -50.5 q16.5 -19.5 46.5 -19.5 l140 0 l0 -140 l-140 0 q-30 0 -46.5 -19 q-16.5 -19 -13.5 -51 l15 -145 q6 -55 -15 -96.5 q-21 -41.5 -63.5 -65 q-42.5 -23.5 -101.5 -23.5 l-85 0 Z" /><glyph glyph-name="hyphen" unicode="-" d="M140 260 l0 140 l320 0 l0 -140 l-320 0 Z" /><glyph glyph-name="underscore" unicode="_" d="M60 -165 l0 140 l480 0 l0 -140 l-480 0 Z" /><glyph glyph-name="quotedbl" unicode="&quot;" d="M105 430 l-9 300 l156 0 l-8 -300 l-139 0 ZM357 430 l-9 300 l156 0 l-8 -300 l-139 0 Z" /><glyph glyph-name="dollar" unicode="$" d="M264 -140 l0 132 q-100 8 -158.5 64 q-58.5 56 -58.5 144 l150 0 q0 -28 18 -48 q18 -20 49 -28 l0 175 l-11 3 q-93 22 -144.5 81.5 q-51.5 59.5 -51.5 145.5 q0 89 55.5 145 q55.5 56 151.5 64 l0 132 l65 0 l0 -131 q98 -8 155 -62.5 q57 -54.5 57 -141.5 l-150 0 q0 58 -62 72 l0 -169 l27 -6 q97 -22 147 -79.5 q50 -57.5 50 -146.5 q0 -91 -60.5 -149 q-60.5 -58 -163.5 -66 l0 -131 l-65 0 ZM207 535 q0 -60 57 -81 l0 153 q-57 -14 -57 -72 ZM329 122 q35 5 54.5 25 q19.5 20 19.5 52 q0 31 -19.5 54 q-19.5 23 -54.5 32 l0 -163 Z" /></font>
</defs>
</svg>
