<?xml version="1.0" standalone="no"?><!DOCTYPE svg PUBLIC "-//W3C//DTD SVG 1.1//EN" "http://www.w3.org/Graphics/SVG/1.1/DTD/svg11.dtd" ><svg xmlns="http://www.w3.org/2000/svg"><metadata></metadata><defs><font id="2.304;JB;JetBrainsMono-Regular" horiz-adv-x="600"><font-face font-family="JetBrains Mono" font-weight="400" font-stretch="normal" units-per-em="1000" panose-1="2 0 0 9 0 0 0 0 0 0" ascent="1020" descent="-300" x-height="0" bbox="20 -180 580 870" underline-thickness="50" underline-position="-155" unicode-range="U+0022-007d" /><missing-glyph horiz-adv-x="600" d="M90 0 l0 730 l420 0 l0 -730 l-420 0 ZM140 109 l300 571 l-300 0 l0 -571 ZM160 50 l300 0 l0 571 l-300 -571 Z" /><glyph glyph-name="A" unicode="A" d="M50 0 l190 730 l121 0 l189 -730 l-91 0 l-48 194 l-221 0 l-48 -194 l-92 0 ZM208 270 l184 0 l-56 225 q-16 64 -25 107 q-9 43 -11 56 q-2 -13 -11 -56 q-9 -43 -25 -106 l-56 -226 Z" /><glyph glyph-name="B" unicode="B" d="M93 0 l0 730 l207 0 q100 0 156.5 -50 q56.5 -50 56.5 -139 q0 -56 -35.5 -101 q-35.5 -45 -92.5 -56 l0 -3 q43 -5 75.5 -30 q32.5 -25 51 -63.5 q18.5 -38.5 18.5 -84.5 q0 -94 -57.5 -148.5 q-57.5 -54.5 -157.5 -54.5 l-222 0 ZM181 419 l118 0 q58 0 91.5 31 q33.5 31 33.5 84 q0 53 -33 84 q-33 31 -91 31 l-119 0 l0 -230 ZM181 81 l124 0 q63 0 99.5 33.5 q36.5 33.5 36.5 91.5 q0 60 -36.5 97.5 q-36.5 37.5 -99.5 37.5 l-124 0 l0 -260 Z" /><glyph glyph-name="C" unicode="C" d="M308 -10 q-100 0 -158 56 q-58 56 -58 154 l0 330 q0 98 58 154 q58 56 158 56 q98 0 156 -56.5 q58 -56.5 58 -153.5 l-90 0 q0 62 -32.5 95.5 q-32.5 33.5 -91.5 33.5 q-59 0 -92.5 -33.5 q-33.5 -33.5 -33.5 -95.5 l0 -330 q0 -62 33.5 -95.5 q33.5 -33.5 92.5 -33.5 q59 0 91.5 33.5 q32.5 33.5 32.5 95.5 l90 0 q0 -97 -58 -153.5 q-58 -56.5 -156 -56.5 Z" /><glyph glyph-name="D" unicode="D" d="M92 0 l0 730 l189 0 q71 0 122.5 -27 q51.5 -27 80 -76 q28.5 -49 28.5 -116 l0 -291 q0 -67 -28.5 -116.5 q-28.5 -49.5 -80 -76.5 q-51.5 -27 -122.5 -27 l-189 0 ZM182 80 l99 0 q66 0 103.5 37 q37.5 37 37.5 103 l0 291 q0 65 -37.5 102 q-37.5 37 -103.5 37 l-99 0 l0 -570 Z" /><glyph glyph-name="E" unicode="E" d="M100 0 l0 730 l420 0 l0 -82 l-331 0 l0 -226 l296 0 l0 -80 l-296 0 l0 -260 l331 0 l0 -82 l-420 0 Z" /><glyph glyph-name="F" unicode="F" d="M95 0 l0 730 l430 0 l0 -82 l-342 0 l0 -242 l316 0 l0 -82 l-314 0 l0 -324 l-90 0 Z" /><glyph glyph-name="G" unicode="G" d="M304 -10 q-100 0 -158 56 q-58 56 -58 154 l0 330 q0 98 58 154 q58 56 158 56 q98 0 156 -56.5 q58 -56.5 58 -153.5 l-90 0 q0 62 -32.5 95.5 q-32.5 33.5 -91.5 33.5 q-59 0 -92.5 -33 q-33.5 -33 -33.5 -95 l0 -331 q0 -62 33.5 -96 q33.5 -34 92.5 -34 q59 0 91.5 34 q32.5 34 32.5 96 l0 100 l-148 0 l0 82 l238 0 l0 -182 q0 -97 -58 -153.5 q-58 -56.5 -156 -56.5 Z" /><glyph glyph-name="H" unicode="H" d="M93 0 l0 730 l90 0 l0 -312 l234 0 l0 312 l90 0 l0 -730 l-90 0 l0 336 l-234 0 l0 -336 l-90 0 Z" /><glyph glyph-name="I" unicode="I" d="M105 0 l0 82 l149 0 l0 566 l-149 0 l0 82 l390 0 l0 -82 l-149 0 l0 -566 l149 0 l0 -82 l-390 0 Z" /><glyph glyph-name="J" unicode="J" d="M270 -10 q-105 0 -165 59 q-60 59 -60 161 l90 0 q0 -67 35.5 -103.5 q35.5 -36.5 99.5 -36.5 q64 0 99.5 36.5 q35.5 36.5 35.5 103.5 l0 520 l90 0 l0 -520 q0 -102 -60.5 -161 q-60.5 -59 -164.5 -59 Z" /><glyph glyph-name="K" unicode="K" d="M92 0 l0 730 l90 0 l0 -314 l108 0 l162 314 l98 0 l-181 -352 l191 -378 l-103 0 l-170 337 l-105 0 l0 -337 l-90 0 Z" /><glyph glyph-name="L" unicode="L" d="M130 0 l0 730 l90 0 l0 -648 l330 0 l0 -82 l-420 0 Z" /><glyph glyph-name="M" unicode="M" d="M72 0 l0 730 l133 0 l93 -316 l97 316 l133 0 l0 -730 l-87 0 l0 345 q0 49 1.5 112.5 q1.5 63.5 4.5 128.5 q3 65 7 117 l-118 -377 l-78 0 l-113 368 q8 -74 11 -162 q3 -88 3 -187 l0 -345 l-87 0 Z" /><glyph glyph-name="N" unicode="N" d="M90 0 l0 730 l120 0 l223 -625 q-2 25 -4.5 61.5 q-2.5 36.5 -4 77 q-1.5 40.5 -1.5 76.5 l0 410 l87 0 l0 -730 l-120 0 l-222 625 q2 -24 4 -60.5 q2 -36.5 3.5 -77 q1.5 -40.5 1.5 -77.5 l0 -410 l-87 0 Z" /><glyph glyph-name="O" unicode="O" d="M300 -10 q-98 0 -155 57 q-57 57 -57 163 l0 310 q0 106 57 163 q57 57 155 57 q98 0 155 -57 q57 -57 57 -162 l0 -311 q0 -106 -57 -163 q-57 -57 -155 -57 ZM300 71 q59 0 90.5 33.5 q31.5 33.5 31.5 95.5 l0 330 q0 62 -31.5 95.5 q-31.5 33.5 -90.5 33.5 q-58 0 -90 -33.5 q-32 -33.5 -32 -95.5 l0 -330 q0 -62 32 -95.5 q32 -33.5 90 -33.5 Z" /><glyph glyph-name="P" unicode="P" d="M92 0 l0 730 l235 0 q102 0 162.5 -58.5 q60.5 -58.5 60.5 -156.5 q0 -98 -60.5 -156.5 q-60.5 -58.5 -162.5 -58.5 l-145 0 l0 -300 l-90 0 ZM182 381 l145 0 q59 0 94.5 36.5 q35.5 36.5 35.5 97.5 q0 62 -35.5 98 q-35.5 36 -94.5 36 l-145 0 l0 -268 Z" /><glyph glyph-name="Q" unicode="Q" d="M422 -180 l-103 171 q-4 0 -9 -0.5 q-5 -0.5 -10 -0.5 q-101 0 -160.5 58.5 q-59.5 58.5 -59.5 156.5 l0 320 q0 98 59.5 156.5 q59.5 58.5 160.5 58.5 q101 0 160.5 -58.5 q59.5 -58.5 59.5 -156.5 l0 -320 q0 -67 -29 -117 q-29 -50 -82 -75 l117 -193 l-104 0 ZM300 70 q59 0 94.5 37 q35.5 37 35.5 98 l0 320 q0 62 -35.5 98.5 q-35.5 36.5 -94.5 36.5 q-59 0 -94.5 -36.5 q-35.5 -36.5 -35.5 -98.5 l0 -320 q0 -61 35.5 -98 q35.5 -37 94.5 -37 Z" /><glyph glyph-name="R" unicode="R" d="M93 0 l0 730 l225 0 q65 0 114 -26.5 q49 -26.5 76 -73.5 q27 -47 27 -110 q0 -74 -38 -127 q-38 -53 -101 -74 l149 -319 l-99 0 l-143 310 l-121 0 l0 -310 l-89 0 ZM182 391 l136 0 q56 0 90 35.5 q34 35.5 34 93.5 q0 59 -34 94 q-34 35 -90 35 l-136 0 l0 -258 Z" /><glyph glyph-name="S" unicode="S" d="M304 -10 q-106 0 -169 56 q-63 56 -63 154 l90 0 q0 -61 39 -95.5 q39 -34.5 103 -34.5 q62 0 99 36 q37 36 37 94 q0 44 -23.5 76.5 q-23.5 32.5 -67.5 44.5 l-111 31 q-69 20 -108.5 71.5 q-39.5 51.5 -39.5 121.5 q0 58 26 102 q26 44 73 68.5 q47 24.5 108 24.5 q62 0 109.5 -24.5 q47.5 -24.5 74.5 -68 q27 -43.5 27 -100.5 l-90 0 q0 50 -34 81.5 q-34 31.5 -87 31.5 q-53 0 -86 -31.5 q-33 -31.5 -33 -81.5 q0 -40 21.5 -68.5 q21.5 -28.5 60.5 -39.5 l114 -32 q73 -20 113.5 -75.5 q40.5 -55.5 40.5 -131.5 q0 -96 -61 -153 q-61 -57 -163 -57 Z" /><glyph glyph-name="T" unicode="T" d="M255 0 l0 648 l-200 0 l0 82 l490 0 l0 -82 l-200 0 l0 -648 l-90 0 Z" /><glyph glyph-name="U" unicode="U" d="M300 -10 q-102 0 -156 56.5 q-54 56.5 -54 153.5 l0 530 l90 0 l0 -530 q0 -60 29.5 -95 q29.5 -35 90.5 -35 q60 0 90 35 q30 35 30 95 l0 530 l90 0 l0 -530 q0 -98 -53.5 -154 q-53.5 -56 -156.5 -56 Z" /><glyph glyph-name="V" unicode="V" d="M238 0 l-188 730 l92 0 l125 -497 q13 -52 21.5 -96 q8.5 -44 12.5 -67 q4 23 13.5 67.5 q9.5 44.5 22.5 96.5 l120 496 l93 0 l-189 -730 l-123 0 Z" /><glyph glyph-name="W" unicode="W" d="M107 0 l-87 730 l83 0 l57 -540 q4 -33 6 -68.5 q2 -35.5 3 -56.5 q2 21 5.5 56.5 q3.5 35.5 7.5 68.5 l72 540 l97 0 l66 -540 q4 -33 8 -68.5 q4 -35.5 6 -56.5 q2 21 4.5 56.5 q2.5 35.5 6.5 68.5 l59 540 l79 0 l-89 -730 l-113 0 l-66 550 q-4 34 -6 66.5 q-2 32.5 -4 50.5 q-2 -18 -4 -50.5 q-2 -32.5 -7 -66.5 l-71 -550 l-113 0 Z" /><glyph glyph-name="X" unicode="X" d="M40 0 l210 370 l-199 360 l104 0 l113 -216 q9 -17 18.5 -36.5 q9.5 -19.5 15.5 -30.5 q5 11 14.5 30.5 q9.5 19.5 18.5 36.5 l115 216 l99 0 l-199 -354 l210 -376 l-103 0 l-125 232 q-9 17 -18.5 36.5 q-9.5 19.5 -14.5 31.5 q-5 -12 -14.5 -31 q-9.5 -19 -18.5 -36 l-126 -233 l-100 0 Z" /><glyph glyph-name="Y" unicode="Y" d="M255 0 l0 273 l-220 457 l96 0 l142 -300 q12 -25 19 -42.5 q7 -17.5 9 -25.5 q2 8 9.5 25.5 q7.5 17.5 19.5 42.5 l142 300 l93 0 l-220 -457 l0 -273 l-90 0 Z" /><glyph glyph-name="a" unicode="a" d="M252 -10 q-85 0 -135 47.5 q-50 47.5 -50 124.5 q0 51 23 89 q23 38 64 59.5 q41 21.5 94 21.5 l170 0 l0 43 q0 107 -117 107 q-52 0 -84 -19 q-32 -19 -34 -53 l-90 0 q5 65 60.5 107.5 q55.5 42.5 147.5 42.5 q100 0 153.5 -48 q53.5 -48 53.5 -134 l0 -378 l-89 0 l0 100 l-2 0 q-8 -51 -51 -80.5 q-43 -29.5 -114 -29.5 ZM274 66 q66 0 105 32 q39 32 39 87 l0 77 l-160 0 q-44 0 -71.5 -26.5 q-27.5 -26.5 -27.5 -70.5 q0 -46 30.5 -72.5 q30.5 -26.5 84.5 -26.5 Z" /><glyph glyph-name="b" unicode="b" d="M332 -10 q-62 0 -102 30.5 q-40 30.5 -47 84.5 l-1 0 l0 -105 l-90 0 l0 730 l90 0 l0 -160 l-2 -125 l1 0 q8 53 48.5 84 q40.5 31 102.5 31 q83 0 132 -55 q49 -55 49 -150 l0 -161 q0 -94 -49 -149 q-49 -55 -132 -55 ZM302 68 q57 0 89 30 q32 30 32 97 l0 160 q0 68 -32 97.5 q-32 29.5 -89 29.5 q-55 0 -87.5 -35 q-32.5 -35 -32.5 -97 l0 -150 q0 -62 32.5 -97 q32.5 -35 87.5 -35 Z" /><glyph glyph-name="c" unicode="c" d="M308 -10 q-100 0 -160 56 q-60 56 -60 154 l0 150 q0 98 60 154 q60 56 160 56 q95 0 153.5 -51 q58.5 -51 61.5 -139 l-90 0 q-3 53 -36 81.5 q-33 28.5 -89 28.5 q-59 0 -94.5 -33.5 q-35.5 -33.5 -35.5 -95.5 l0 -151 q0 -62 35.5 -96 q35.5 -34 94.5 -34 q56 0 89 29 q33 29 36 81 l90 0 q-3 -88 -61.5 -139 q-58.5 -51 -153.5 -51 Z" /><glyph glyph-name="d" unicode="d" d="M268 -10 q-82 0 -131.5 55 q-49.5 55 -49.5 149 l0 161 q0 95 49 150 q49 55 132 55 q62 0 102.5 -31 q40.5 -31 48.5 -84 l1 0 l-2 125 l0 160 l90 0 l0 -730 l-90 0 l0 105 l-1 0 q-7 -54 -47 -84.5 q-40 -30.5 -102 -30.5 ZM298 68 q56 0 88 35 q32 35 32 97 l0 150 q0 62 -32 97 q-32 35 -88 35 q-57 0 -89 -29.5 q-32 -29.5 -32 -97.5 l0 -160 q0 -67 32 -97 q32 -30 89 -30 Z" /><glyph glyph-name="e" unicode="e" d="M300 -10 q-97 0 -156.5 58.5 q-59.5 58.5 -59.5 161.5 l0 130 q0 103 59.5 161.5 q59.5 58.5 156.5 58.5 q65 0 113.5 -26 q48.5 -26 75.5 -73 q27 -47 27 -111 l0 -98 l-344 0 l0 -52 q0 -61 35 -96.5 q35 -35.5 93 -35.5 q50 0 82.5 19.5 q32.5 19.5 39.5 52.5 l90 0 q-9 -69 -67 -109.5 q-58 -40.5 -145 -40.5 ZM172 322 l256 0 l0 28 q0 65 -33.5 100.5 q-33.5 35.5 -94.5 35.5 q-61 0 -94.5 -35.5 q-33.5 -35.5 -33.5 -100.5 l0 -28 Z" /><glyph glyph-name="f" unicode="f" d="M215 0 l0 393 l-160 0 l0 82 l160 0 l0 115 q0 65 41 102.5 q41 37.5 113 37.5 l161 0 l0 -82 l-161 0 q-64 0 -64 -58 l0 -115 l225 0 l0 -82 l-225 0 l0 -393 l-90 0 Z" /><glyph glyph-name="g" unicode="g" d="M161 -180 l0 82 l155 0 q47 0 74 26.5 q27 26.5 27 71.5 l0 50 l2 90 l-3 0 q-8 -49 -47 -75.5 q-39 -26.5 -98 -26.5 q-85 0 -134 54 q-49 54 -49 148 l0 116 q0 94 49 149 q49 55 134 55 q59 0 98 -28 q39 -28 47 -77 l2 0 l0 95 l89 0 l0 -550 q0 -83 -51.5 -131.5 q-51.5 -48.5 -140.5 -48.5 l-154 0 ZM298 113 q56 0 88 35 q32 35 32 97 l0 105 q0 62 -32 97 q-32 35 -88 35 q-57 0 -88.5 -33 q-31.5 -33 -31.5 -89 l0 -125 q0 -56 31.5 -89 q31.5 -33 88.5 -33 Z" /><glyph glyph-name="h" unicode="h" d="M92 0 l0 730 l90 0 l0 -285 l1 0 q7 55 45 85 q38 30 101 30 q83 0 132 -51 q49 -51 49 -139 l0 -370 l-90 0 l0 355 q0 62 -31.5 95.5 q-31.5 33.5 -85.5 33.5 q-56 0 -88.5 -35 q-32.5 -35 -32.5 -99 l0 -350 l-90 0 Z" /><glyph glyph-name="i" unicode="i" d="M85 0 l0 82 l195 0 l0 386 l-175 0 l0 82 l265 0 l0 -468 l185 0 l0 -82 l-470 0 ZM315 649 q-33 0 -52 17 q-19 17 -19 46 q0 30 19 47.5 q19 17.5 52 17.5 q33 0 52 -17.5 q19 -17.5 19 -47.5 q0 -29 -19 -46 q-19 -17 -52 -17 Z" /><glyph glyph-name="j" unicode="j" d="M90 -180 l0 82 l124 0 q62 0 96.5 34 q34.5 34 34.5 95 l0 437 l-260 0 l0 82 l350 0 l0 -519 q0 -97 -60 -154 q-60 -57 -161 -57 l-124 0 ZM380 649 q-33 0 -52 17 q-19 17 -19 46 q0 30 19 47.5 q19 17.5 52 17.5 q33 0 52 -17.5 q19 -17.5 19 -47.5 q0 -29 -19 -46 q-19 -17 -52 -17 Z" /><glyph glyph-name="k" unicode="k" d="M97 0 l0 730 l90 0 l0 -407 l105 0 l154 227 l103 0 l-177 -262 l187 -288 l-105 0 l-160 245 l-107 0 l0 -245 l-90 0 Z" /><glyph glyph-name="l" unicode="l" d="M380 0 q-73 0 -116.5 42.5 q-43.5 42.5 -43.5 112.5 l0 493 l-190 0 l0 82 l280 0 l0 -575 q0 -34 19 -53.5 q19 -19.5 51 -19.5 l170 0 l0 -82 l-170 0 Z" /><glyph glyph-name="m" unicode="m" d="M60 0 l0 550 l78 0 l0 -73 l2 0 q5 37 29.5 60 q24.5 23 62.5 23 q36 0 61 -21 q25 -21 36 -57 l1 0 q7 36 31.5 57 q24.5 21 62.5 21 q53 0 84.5 -39.5 q31.5 -39.5 31.5 -102.5 l0 -418 l-84 0 l0 419 q0 33 -16 52.5 q-16 19.5 -44 19.5 q-27 0 -43 -19 q-16 -19 -16 -52 l0 -420 l-74 0 l0 419 q0 33 -16 52.5 q-16 19.5 -43 19.5 q-28 0 -44 -19 q-16 -19 -16 -52 l0 -420 l-84 0 Z" /><glyph glyph-name="n" unicode="n" d="M92 0 l0 550 l90 0 l0 -105 l1 0 q7 55 45 85 q38 30 101 30 q83 0 132 -51 q49 -51 49 -139 l0 -370 l-90 0 l0 354 q0 63 -31.5 96.5 q-31.5 33.5 -85.5 33.5 q-56 0 -88.5 -35 q-32.5 -35 -32.5 -99 l0 -350 l-90 0 Z" /><glyph glyph-name="o" unicode="o" d="M300 -8 q-99 0 -157.5 58 q-58.5 58 -58.5 162 l0 126 q0 105 58 162.5 q58 57.5 158 57.5 q100 0 158 -57.5 q58 -57.5 58 -162.5 l0 -126 q0 -104 -58.5 -162 q-58.5 -58 -157.5 -58 ZM300 72 q59 0 92.5 33 q33.5 33 33.5 97 l0 146 q0 64 -33.5 97 q-33.5 33 -92.5 33 q-58 0 -92 -33 q-34 -33 -34 -97 l0 -146 q0 -64 34 -97 q34 -33 92 -33 Z" /><glyph glyph-name="p" unicode="p" d="M92 -180 l0 730 l90 0 l0 -105 l1 0 q7 54 47 84.5 q40 30.5 102 30.5 q83 0 132 -54.5 q49 -54.5 49 -149.5 l0 -161 q0 -95 -49 -150 q-49 -55 -132 -55 q-62 0 -102 31 q-40 31 -47 84 l-3 0 l2 -125 l0 -160 l-90 0 ZM302 68 q57 0 89 30 q32 30 32 97 l0 160 q0 68 -32 97.5 q-32 29.5 -89 29.5 q-55 0 -87.5 -35 q-32.5 -35 -32.5 -97 l0 -150 q0 -62 32.5 -97 q32.5 -35 87.5 -35 Z" /><glyph glyph-name="q" unicode="q" d="M418 -180 l0 160 l2 125 l-3 0 q-7 -53 -47 -84 q-40 -31 -102 -31 q-83 0 -132 55 q-49 55 -49 150 l0 161 q0 95 49.5 149.5 q49.5 54.5 131.5 54.5 q62 0 102 -30.5 q40 -30.5 47 -84.5 l1 0 l0 105 l90 0 l0 -730 l-90 0 ZM298 68 q56 0 88 35 q32 35 32 97 l0 150 q0 62 -32 97 q-32 35 -88 35 q-57 0 -89 -29 q-32 -29 -32 -93 l0 -170 q0 -64 32 -93 q32 -29 89 -29 Z" /><glyph glyph-name="r" unicode="r" d="M112 0 l0 550 l90 0 l0 -105 l2 0 q7 53 45 84 q38 31 102 31 q86 0 132.5 -51.5 q46.5 -51.5 46.5 -146.5 l0 -47 l-90 0 l0 47 q0 120 -117 120 q-59 0 -90 -34 q-31 -34 -31 -98 l0 -350 l-90 0 Z" /><glyph glyph-name="s" unicode="s" d="M278 -8 q-92 0 -142.5 41.5 q-50.5 41.5 -50.5 117.5 l90 0 q0 -38 27 -59.5 q27 -21.5 76 -21.5 l44 0 q50 0 77.5 22 q27.5 22 27.5 62 q0 71 -65 80 l-152 22 q-56 8 -87 46.5 q-31 38.5 -31 101.5 q0 72 49.5 113 q49.5 41 136.5 41 l44 0 q80 0 130.5 -39.5 q50.5 -39.5 54.5 -103.5 l-91 0 q-2 29 -27.5 48 q-25.5 19 -66.5 19 l-44 0 q-46 0 -72 -21 q-26 -21 -26 -57 q0 -58 53 -66 l142 -20 q140 -20 140 -164 q0 -77 -50.5 -119.5 q-50.5 -42.5 -142.5 -42.5 l-44 0 Z" /><glyph glyph-name="t" unicode="t" d="M355 0 q-68 0 -109 39.5 q-41 39.5 -41 105.5 l0 323 l-158 0 l0 82 l158 0 l0 155 l90 0 l0 -155 l225 0 l0 -82 l-225 0 l0 -323 q0 -28 16.5 -45.5 q16.5 -17.5 43.5 -17.5 l160 0 l0 -82 l-160 0 Z" /><glyph glyph-name="u" unicode="u" d="M299 -10 q-95 0 -152 56.5 q-57 56.5 -57 153.5 l0 350 l90 0 l0 -350 q0 -60 32 -95.5 q32 -35.5 87 -35.5 q56 0 88.5 35.5 q32.5 35.5 32.5 95.5 l0 350 l90 0 l0 -350 q0 -97 -58 -153.5 q-58 -56.5 -153 -56.5 Z" /><glyph glyph-name="v" unicode="v" d="M241 0 l-187 550 l97 0 l120 -370 q11 -33 19 -63.5 q8 -30.5 12 -47.5 q5 17 12 47.5 q7 30.5 17 63.5 l120 370 l95 0 l-187 -550 l-118 0 Z" /><glyph glyph-name="w" unicode="w" d="M121 0 l-90 550 l78 0 l56 -388 q3 -22 6 -48.5 q3 -26.5 4 -43.5 q2 17 4.5 43.5 q2.5 26.5 6.5 48.5 l69 388 l90 0 l69 -388 q4 -22 7.5 -48.5 q3.5 -26.5 4.5 -43.5 q2 17 5 43.5 q3 26.5 6 48.5 l58 388 l74 0 l-94 -550 l-99 0 l-63 380 q-4 28 -7.5 59.5 q-3.5 31.5 -5.5 48.5 q-1 -17 -5 -48.5 q-4 -31.5 -9 -59.5 l-66 -380 l-99 0 Z" /><glyph glyph-name="x" unicode="x" d="M50 0 l195 283 l-183 267 l106 0 l109 -170 q7 -11 13.5 -24 q6.5 -13 10.5 -21 q3 8 9.5 21 q6.5 13 13.5 24 l109 170 l106 0 l-183 -268 l194 -282 l-106 0 l-118 180 q-7 11 -13.5 25.5 q-6.5 14.5 -11.5 23.5 q-4 -9 -11.5 -23.5 q-7.5 -14.5 -15.5 -25.5 l-118 -180 l-106 0 Z" /><glyph glyph-name="y" unicode="y" d="M178 -180 l81 214 l-205 516 l97 0 l130 -340 q8 -20 15 -42 q7 -22 10 -38 q3 16 10 38 q7 22 14 42 l121 340 l95 0 l-274 -730 l-94 0 Z" /><glyph glyph-name="z" unicode="z" d="M90 0 l0 90 l308 378 l-300 0 l0 82 l401 0 l0 -90 l-314 -378 l325 0 l0 -82 l-420 0 Z" /><glyph glyph-name="zero" unicode="0" d="M300 -10 q-101 0 -160.5 58.5 q-59.5 58.5 -59.5 156.5 l0 320 q0 98 59.5 156.5 q59.5 58.5 160.5 58.5 q101 0 160.5 -58.5 q59.5 -58.5 59.5 -156.5 l0 -320 q0 -65 -27 -113.5 q-27 -48.5 -76.5 -75 q-49.5 -26.5 -116.5 -26.5 ZM300 67 q60 0 96.5 38.5 q36.5 38.5 36.5 99.5 l0 320 q0 61 -36.5 99.5 q-36.5 38.5 -96.5 38.5 q-60 0 -96.5 -38.5 q-36.5 -38.5 -36.5 -99.5 l0 -320 q0 -61 36.5 -99.5 q36.5 -38.5 96.5 -38.5 ZM300 310 q-27 0 -43.5 15 q-16.5 15 -16.5 43 q0 27 16.5 41.5 q16.5 14.5 43.5 14.5 q27 0 43.5 -14.5 q16.5 -14.5 16.5 -41.5 q0 -28 -16.5 -43 q-16.5 -15 -43.5 -15 Z" /><glyph glyph-name="one" unicode="1" d="M90 0 l0 82 l198 0 l0 570 l-198 -148 l0 103 l165 123 l123 0 l0 -648 l162 0 l0 -82 l-450 0 Z" /><glyph glyph-name="two" unicode="2" d="M86 0 l0 83 l243 260 q53 56 75 100 q22 44 22 86 q0 60 -34.5 95.5 q-34.5 35.5 -93.5 35.5 q-61 0 -96.5 -36.5 q-35.5 -36.5 -35.5 -98.5 l-90 0 q3 99 63 157 q60 58 159 58 q101 0 160.5 -57 q59.5 -57 59.5 -155 q0 -52 -28.5 -110 q-28.5 -58 -97.5 -130 l-197 -206 l332 0 l0 -82 l-441 0 Z" /><glyph glyph-name="three" unicode="3" d="M289 -10 q-101 0 -160 56.5 q-59 56.5 -59 153.5 l90 0 q0 -60 35 -95 q35 -35 95 -35 q60 0 95 35 q35 35 35 95 l0 50 q0 60 -35 95 q-35 35 -95 35 l-79 0 l0 78 l179 190 l-300 0 l0 82 l402 0 l0 -84 l-176 -187 q90 -7 142 -62.5 q52 -55.5 52 -146.5 l0 -50 q0 -97 -59.5 -153.5 q-59.5 -56.5 -161.5 -56.5 Z" /><glyph glyph-name="four" unicode="4" d="M400 0 l0 160 l-330 0 l0 141 l266 429 l102 0 l-278 -449 l0 -39 l240 0 l0 178 l90 0 l0 -420 l-90 0 Z" /><glyph glyph-name="five" unicode="5" d="M294 -10 q-101 0 -160 56.5 q-59 56.5 -59 153.5 l90 0 q0 -60 35 -95 q35 -35 95 -35 q60 0 95 35 q35 35 35 95 l0 45 q0 60 -34 95 q-34 35 -92 35 l-199 0 l0 355 l389 0 l0 -82 l-305 0 l2 -191 l118 0 q101 0 156 -55.5 q55 -55.5 55 -156.5 l0 -45 q0 -97 -59.5 -153.5 q-59.5 -56.5 -161.5 -56.5 Z" /><glyph glyph-name="six" unicode="6" d="M301 -10 q-70 0 -123.5 29.5 q-53.5 29.5 -83.5 82 q-30 52.5 -30 121.5 q0 48 18 98.5 q18 50.5 49 105.5 l169 303 l100 0 l-180 -313 l3 -2 q13 17 39 26 q26 9 57 9 q65 0 113.5 -28.5 q48.5 -28.5 76 -78.5 q27.5 -50 27.5 -116 q0 -70 -30 -123.5 q-30 -53.5 -82.5 -83.5 q-52.5 -30 -122.5 -30 ZM300 70 q65 0 105.5 43 q40.5 43 40.5 112 q0 69 -40.5 112 q-40.5 43 -105.5 43 q-65 0 -105.5 -43 q-40.5 -43 -40.5 -112 q0 -69 40.5 -112 q40.5 -43 105.5 -43 Z" /><glyph glyph-name="seven" unicode="7" d="M190 0 l260 648 l-278 0 l0 -118 l-90 0 l0 200 l464 0 l0 -84 l-258 -646 l-98 0 Z" /><glyph glyph-name="eight" unicode="8" d="M300 -10 q-69 0 -122 27 q-53 27 -82.5 75.5 q-29.5 48.5 -29.5 111.5 q0 69 39.5 119 q39.5 50 105.5 61 l0 3 q-57 13 -91 57.5 q-34 44.5 -34 102.5 q0 57 27 100.5 q27 43.5 75.5 68 q48.5 24.5 111.5 24.5 q64 0 112 -24.5 q48 -24.5 75 -68 q27 -43.5 27 -100.5 q0 -58 -34 -102.5 q-34 -44.5 -91 -57.5 l0 -3 q66 -11 105.5 -61 q39.5 -50 39.5 -119 q0 -63 -29.5 -111.5 q-29.5 -48.5 -82 -75.5 q-52.5 -27 -122.5 -27 ZM300 422 q56 0 90 33 q34 33 34 86 q0 53 -34 86 q-34 33 -90 33 q-55 0 -89.5 -33 q-34.5 -33 -34.5 -86 q0 -53 34.5 -86 q34.5 -33 89.5 -33 ZM300 71 q64 0 104 37.5 q40 37.5 40 97.5 q0 61 -40 98.5 q-40 37.5 -104 37.5 q-64 0 -104 -37.5 q-40 -37.5 -40 -98.5 q0 -60 40 -97.5 q40 -37.5 104 -37.5 Z" /><glyph glyph-name="nine" unicode="9" d="M195 0 l180 313 l-3 2 q-10 -16 -37 -25.5 q-27 -9.5 -59 -9.5 q-63 0 -110.5 28.5 q-47.5 28.5 -74.5 78.5 q-27 50 -27 116 q0 71 30 124 q30 53 83 83 q53 30 122 30 q71 0 124 -29.5 q53 -29.5 83 -82 q30 -52.5 30 -121.5 q0 -48 -18 -98.5 q-18 -50.5 -49 -105.5 l-169 -303 l-105 0 ZM300 350 q65 0 105.5 43 q40.5 43 40.5 112 q0 69 -40.5 112 q-40.5 43 -105.5 43 q-65 0 -105.5 -43 q-40.5 -43 -40.5 -112 q0 -69 40.5 -112 q40.5 -43 105.5 -43 Z" /><glyph glyph-name="period" unicode="." d="M300 -10 q-37 0 -59.5 22 q-22.5 22 -22.5 57 q0 37 22.5 60 q22.5 23 59.5 23 q37 0 59.5 -23 q22.5 -23 22.5 -60 q0 -35 -22.5 -57 q-22.5 -22 -59.5 -22 Z" /><glyph glyph-name="comma" unicode="," d="M210 -160 l55 306 l108 0 l-70 -306 l-93 0 Z" /><glyph glyph-name="colon" unicode=":" d="M300 412 q-41 0 -62 20 q-21 20 -21 54 q0 34 21 54 q21 20 62 20 q41 0 62 -20 q21 -20 21 -54 q0 -34 -21 -54 q-21 -20 -62 -20 ZM300 -10 q-41 0 -62 20 q-21 20 -21 54 q0 34 21 54 q21 20 62 20 q41 0 62 -20 q21 -20 21 -54 q0 -34 -21 -54 q-21 -20 -62 -20 Z" /><glyph glyph-name="semicolon" unicode=";" d="M290 410 q-33 0 -54 21 q-21 21 -21 54 q0 32 21.5 53.5 q21.5 21.5 53.5 21.5 l20 0 q32 0 53.5 -21.5 q21.5 -21.5 21.5 -53.5 q0 -33 -21 -54 q-21 -21 -54 -21 l-20 0 ZM205 -160 l55 306 l108 0 l-70 -306 l-93 0 Z" /><glyph glyph-name="braceleft" unicode="{" d="M460 -110 q-88 0 -140 43.5 q-52 43.5 -45 122.5 l15 164 q5 53 -15 76.5 q-20 23.5 -85 23.5 l-115 0 l0 80 l115 0 q65 0 85 23.5 q20 23.5 15 76.5 l-15 164 q-7 79 45 122.5 q52 43.5 140 43.5 l45 0 l0 -80 l-45 0 q-47 0 -73 -21.5 q-26 -21.5 -22 -64.5 l15 -164 q5 -59 -28 -94.5 q-33 -35.5 -108 -42.5 q75 -7 108 -46 q33 -39 28 -97 l-15 -164 q-4 -43 22 -64.5 q26 -21.5 73 -21.5 l45 0 l0 -80 l-45 0 Z" /><glyph glyph-name="braceright" unicode="}" d="M95 -110 l0 80 l45 0 q47 0 74.5 21.5 q27.5 21.5 20.5 64.5 l-25 164 q-9 57 20 96.5 q29 39.5 80 48.5 q-51 8 -80 43 q-29 35 -20 92 l25 164 q7 43 -20.5 64.5 q-27.5 21.5 -74.5 21.5 l-45 0 l0 80 l45 0 q59 0 103.5 -19.5 q44.5 -19.5 67 -56.5 q22.5 -37 14.5 -90 l-25 -164 q-8 -53 13.5 -76.5 q21.5 -23.5 86.5 -23.5 l125 0 l0 -80 l-125 0 q-64 0 -86 -23.5 q-22 -23.5 -14 -76.5 l25 -164 q8 -52 -14.5 -89.5 q-22.5 -37.5 -67 -57 q-44.5 -19.5 -103.5 -19.5 l-45 0 Z" /><glyph glyph-name="hyphen" unicode="-" d="M140 290 l0 80 l320 0 l0 -80 l-320 0 Z" /><glyph glyph-name="underscore" unicode="_" d="M60 -100 l0 75 l480 0 l0 -75 l-480 0 Z" /><glyph glyph-name="quotedbl" unicode="&quot;" d="M151 430 l-8 300 l102 0 l-7 -300 l-87 0 ZM363 430 l-8 300 l102 0 l-7 -300 l-87 0 Z" /><glyph glyph-name="dollar" unicode="$" d="M275 -140 l0 131 q-94 8 -147.5 60.5 q-53.5 52.5 -55.5 138.5 l90 0 q0 -49 29.5 -80 q29.5 -31 83.5 -38 l0 262 l-27 8 q-75 23 -115.5 77 q-40.5 54 -40.5 127 q0 80 49.5 132 q49.5 52 133.5 60 l0 132 l60 0 l0 -131 q83 -8 133 -60 q50 -52 51 -134 l-90 0 q0 47 -24.5 76.5 q-24.5 29.5 -69.5 36.5 l0 -248 l40 -13 q73 -23 113 -78 q40 -55 40 -129 q0 -82 -52.5 -136 q-52.5 -54 -140.5 -63 l0 -131 l-60 0 ZM182 554 q0 -45 24 -78 q24 -33 69 -47 l0 229 q-44 -7 -68.5 -34 q-24.5 -27 -24.5 -70 ZM335 72 q49 8 76 38 q27 30 27 78 q0 44 -23.5 76.5 q-23.5 32.5 -67.5 46.5 l-12 4 l0 -243 Z" /></font>
</defs>
</svg>
