<?xml version="1.0" standalone="no"?><!DOCTYPE svg PUBLIC "-//W3C//DTD SVG 1.1//EN" "http://www.w3.org/Graphics/SVG/1.1/DTD/svg11.dtd" ><svg xmlns="http://www.w3.org/2000/svg"><metadata></metadata><defs><font id="Hanyi Alibaba-PuHuiTi-3-55-Regular v3.01" horiz-adv-x="1000"><font-face font-family="Alibaba PuHuiTi 3.0 55 Regular" font-weight="400" font-stretch="normal" units-per-em="1000" panose-1="0 2 6 0 4 1 1 1 1 1" ascent="1060" descent="-340" x-height="1" bbox="-76 -204 972 832" underline-thickness="50" underline-position="-75" unicode-range="U+0022-ff1a" /><missing-glyph horiz-adv-x="1000" d="M80 742 l415 0 l0 -742 l-415 0 l0 742 ZM426 66 l0 611 l-276 0 l0 -611 l276 0 Z" /><glyph glyph-name="quotedbl" unicode="&quot;" d="M77 760 l100 0 l-23 -296 l-54 0 l-23 296 ZM228 760 l100 0 l-22 -296 l-55 0 l-23 296 Z" /><glyph glyph-name="comma" unicode="," d="M38 -136 q20 31 37.5 65.5 q17.5 34.5 30 69 q12.5 34.5 19.5 67.5 q7 33 7 61 l83 0 q0 -32 -10 -68.5 q-10 -36.5 -25 -71.5 q-15 -35 -34 -67 q-19 -32 -37 -56 l-71 0 Z" /><glyph glyph-name="hyphen" unicode="-" d="M72 343 l295 0 l0 -72 l-295 0 l0 72 Z" /><glyph glyph-name="period" unicode="." d="M151 -6 q-35 0 -49.5 11 q-14.5 11 -14.5 53 q0 40 14.5 51 q14.5 11 49.5 11 q34 0 49 -11 q15 -11 15 -51 q0 -42 -15 -53 q-15 -11 -49 -11 Z" /><glyph glyph-name="zero" unicode="0" d="M287 -10 q-52 0 -95 15.5 q-43 15.5 -74 55.5 q-31 40 -48 109.5 q-17 69.5 -17 176.5 q0 107 17 176 q17 69 48 109.5 q31 40.5 74 56 q43 15.5 95 15.5 q52 0 95.5 -15.5 q43.5 -15.5 74.5 -56 q31 -40.5 48 -109.5 q17 -69 17 -176 q0 -107 -17 -176.5 q-17 -69.5 -48 -109.5 q-31 -40 -74.5 -55.5 q-43.5 -15.5 -95.5 -15.5 ZM287 65 q37 0 64 12.5 q27 12.5 45 44.5 q18 32 26.5 86.5 q8.5 54.5 8.5 138.5 q0 83 -8.5 137.5 q-8.5 54.5 -26.5 86.5 q-18 32 -45 44.5 q-27 12.5 -64 12.5 q-36 0 -63 -12.5 q-27 -12.5 -44.5 -44.5 q-17.5 -32 -26 -86.5 q-8.5 -54.5 -8.5 -137.5 q0 -84 8.5 -138.5 q8.5 -54.5 26 -86.5 q17.5 -32 44.5 -44.5 q27 -12.5 63 -12.5 Z" /><glyph glyph-name="one" unicode="1" d="M273 612 l-172 -33 l0 73 l203 42 l59 0 l0 -694 l-90 0 l0 612 Z" /><glyph glyph-name="two" unicode="2" d="M57 95 q111 87 178 148 q67 61 104 107 q37 46 49 82.5 q12 36.5 12 73.5 q0 37 -13.5 61 q-13.5 24 -34.5 38 q-21 14 -47.5 19 q-26.5 5 -51.5 5 q-33 0 -70 -3.5 q-37 -3.5 -78 -14.5 l0 77 q35 8 74.5 12 q39.5 4 83.5 4 q51 0 92 -11 q41 -11 70.5 -35 q29.5 -24 45 -62 q15.5 -38 15.5 -91 q0 -47 -14 -88.5 q-14 -41.5 -47 -86 q-33 -44.5 -89 -96 q-56 -51.5 -140 -118.5 l-40 -31 l0 -9 l358 0 l0 -76 l-457 0 l0 95 Z" /><glyph glyph-name="three" unicode="3" d="M226 -10 q-42 0 -81.5 3 q-39.5 3 -74.5 10 l0 79 q40 -10 77.5 -13.5 q37.5 -3.5 77.5 -3.5 q39 0 72.5 6 q33.5 6 57.5 21 q24 15 38 39.5 q14 24.5 14 60.5 q0 74 -50 103 q-50 29 -149 29 l-55 0 l0 69 l54 0 q91 0 138 33.5 q47 33.5 47 90.5 q0 61 -36.5 87 q-36.5 26 -111.5 26 q-30 0 -69 -5 q-39 -5 -72 -15 l0 74 q26 8 65.5 14 q39.5 6 79.5 6 q112 0 169.5 -43 q57.5 -43 57.5 -139 q0 -68 -33 -104.5 q-33 -36.5 -90 -53.5 l0 -6 q74 -13 107.5 -55.5 q33.5 -42.5 33.5 -111.5 q0 -96 -64.5 -148.5 q-64.5 -52.5 -202.5 -52.5 Z" /><glyph glyph-name="four" unicode="4" d="M529 171 l-82 0 l0 -171 l-84 0 l0 171 l-328 0 l0 97 l304 426 l108 0 l0 -447 l82 0 l0 -76 ZM363 247 l0 355 l-6 0 l-246 -349 l0 -6 l252 0 Z" /><glyph glyph-name="five" unicode="5" d="M229 -10 q-42 0 -75.5 3 q-33.5 3 -67.5 10 l0 79 q39 -10 70.5 -13.5 q31.5 -3.5 71.5 -3.5 q43 0 78.5 7.5 q35.5 7.5 60.5 25 q25 17.5 39 46 q14 28.5 14 71.5 q0 78 -45.5 113.5 q-45.5 35.5 -153.5 35.5 q-28 0 -64 -4.5 q-36 -4.5 -69 -10.5 l47 345 l324 0 l0 -78 l-256 0 l-29 -190 q19 3 38 4.5 q19 1.5 43 1.5 q121 0 186 -50 q65 -50 65 -161 q0 -62 -19.5 -105.5 q-19.5 -43.5 -55.5 -71.5 q-36 -28 -87.5 -41 q-51.5 -13 -114.5 -13 Z" /><glyph glyph-name="six" unicode="6" d="M287 -10 q-48 0 -89.5 13.5 q-41.5 13.5 -73 45.5 q-31.5 32 -49.5 85.5 q-18 53.5 -18 134.5 q0 97 21.5 177 q21.5 80 66.5 137.5 q45 57.5 115.5 89 q70.5 31.5 168.5 31.5 l-1 -76 q-64 0 -114 -18 q-50 -18 -85 -49.5 q-35 -31.5 -55 -74 q-20 -42.5 -24 -91.5 l3 0 q20 20 59 38.5 q39 18.5 90 18.5 q97 0 154 -55 q57 -55 57 -169 q0 -51 -13.5 -94.5 q-13.5 -43.5 -41 -75.5 q-27.5 -32 -70.5 -50 q-43 -18 -101 -18 ZM286 65 q71 0 108 40.5 q37 40.5 37 122.5 q0 78 -37 116.5 q-37 38.5 -96 38.5 q-81 0 -118 -38.5 q-37 -38.5 -37 -100.5 q0 -179 143 -179 Z" /><glyph glyph-name="seven" unicode="7" d="M435 616 l-381 0 l0 78 l458 0 l0 -88 l-285 -606 l-92 0 l300 616 Z" /><glyph glyph-name="eight" unicode="8" d="M287 -10 q-112 0 -174.5 47 q-62.5 47 -62.5 147 q0 40 11 69.5 q11 29.5 28.5 50 q17.5 20.5 39.5 33 q22 12.5 44 20.5 l0 4 q-44 20 -72 56.5 q-28 36.5 -28 101.5 q0 41 12.5 75 q12.5 34 38.5 58.5 q26 24.5 66.5 38 q40.5 13.5 96.5 13.5 q56 0 96.5 -13.5 q40.5 -13.5 66.5 -38 q26 -24.5 38.5 -58.5 q12.5 -34 12.5 -75 q0 -63 -24.5 -100.5 q-24.5 -37.5 -75.5 -57.5 l0 -4 q25 -8 47.5 -20.5 q22.5 -12.5 39.5 -33.5 q17 -21 26.5 -50.5 q9.5 -29.5 9.5 -69.5 q0 -100 -62 -146.5 q-62 -46.5 -175 -46.5 ZM287 390 q37 0 62.5 9.5 q25.5 9.5 41 26.5 q15.5 17 22.5 39 q7 22 7 48 q0 57 -33 88 q-33 31 -100 31 q-133 0 -133 -119 q0 -26 6 -48 q6 -22 21.5 -39 q15.5 -17 41 -26.5 q25.5 -9.5 64.5 -9.5 ZM287 63 q82 0 118 33.5 q36 33.5 36 90.5 q0 71 -38 104 q-38 33 -116 33 q-78 0 -115.5 -33 q-37.5 -33 -37.5 -104 q0 -57 35.5 -90.5 q35.5 -33.5 117.5 -33.5 Z" /><glyph glyph-name="nine" unicode="9" d="M144 63 q66 0 115.5 18 q49.5 18 84 50 q34.5 32 54 75 q19.5 43 24.5 93 l-4 0 q-19 -21 -58 -39 q-39 -18 -90 -18 q-48 0 -87.5 13 q-39.5 13 -67 39.5 q-27.5 26.5 -43 68 q-15.5 41.5 -15.5 98.5 q0 51 13.5 95.5 q13.5 44.5 41.5 77 q28 32.5 71 51.5 q43 19 101 19 q48 0 89.5 -14 q41.5 -14 72.5 -47 q31 -33 49 -87 q18 -54 18 -134 q0 -97 -21 -177 q-21 -80 -66 -137 q-45 -57 -115 -88.5 q-70 -31.5 -168 -31.5 l1 75 ZM273 310 q81 0 118.5 37.5 q37.5 37.5 37.5 100.5 q0 88 -37 135 q-37 47 -108 47 q-71 0 -107 -43.5 q-36 -43.5 -36 -125.5 q0 -78 37 -114.5 q37 -36.5 95 -36.5 Z" /><glyph glyph-name="colon" unicode=":" d="M189 420 q-35 0 -49.5 11 q-14.5 11 -14.5 52 q0 41 14.5 52 q14.5 11 49.5 11 q34 0 49 -11 q15 -11 15 -52 q0 -41 -15 -52 q-15 -11 -49 -11 ZM189 -6 q-35 0 -49.5 11 q-14.5 11 -14.5 53 q0 40 14.5 51 q14.5 11 49.5 11 q34 0 49 -11 q15 -11 15 -51 q0 -42 -15 -53 q-15 -11 -49 -11 Z" /><glyph glyph-name="semicolon" unicode=";" d="M189 420 q-35 0 -49.5 11 q-14.5 11 -14.5 52 q0 41 14.5 52 q14.5 11 49.5 11 q34 0 49 -11 q15 -11 15 -52 q0 -41 -15 -52 q-15 -11 -49 -11 ZM66 -136 q20 31 37 65.5 q17 34.5 30 69 q13 34.5 20 67.5 q7 33 7 61 l82 0 q0 -32 -10 -68.5 q-10 -36.5 -25 -71.5 q-15 -35 -34 -67 q-19 -32 -37 -56 l-70 0 Z" /><glyph glyph-name="A" unicode="A" d="M486 207 l-307 0 l-76 -207 l-92 0 l263 694 l120 0 l262 -694 l-95 0 l-75 207 ZM457 287 l-117 323 l-12 0 l-119 -323 l248 0 Z" /><glyph glyph-name="B" unicode="B" d="M92 694 l200 0 q68 0 113 -11 q45 -11 71.5 -34 q26.5 -23 37.5 -57.5 q11 -34.5 11 -81.5 q0 -54 -23 -92 q-23 -38 -78 -55 l0 -4 q35 -7 59 -21.5 q24 -14.5 38.5 -35.5 q14.5 -21 20.5 -47 q6 -26 6 -57 q0 -47 -11 -84 q-11 -37 -38 -62.5 q-27 -25.5 -72.5 -38.5 q-45.5 -13 -114.5 -13 l-220 0 l0 694 ZM250 390 q50 0 85.5 5 q35.5 5 58 18 q22.5 13 33 35.5 q10.5 22.5 10.5 56.5 q0 38 -10.5 60.5 q-10.5 22.5 -33 34 q-22.5 11.5 -58 15 q-35.5 3.5 -85.5 3.5 l-68 0 l0 -228 l68 0 ZM275 77 q53 0 88.5 5 q35.5 5 56.5 18.5 q21 13.5 29.5 37.5 q8.5 24 8.5 61 q0 32 -9 54.5 q-9 22.5 -30 37 q-21 14.5 -56 21.5 q-35 7 -88 7 l-93 0 l0 -242 l93 0 Z" /><glyph glyph-name="C" unicode="C" d="M388 -10 q-72 0 -130 15 q-58 15 -99.5 54.5 q-41.5 39.5 -64 109 q-22.5 69.5 -22.5 178.5 q0 100 23 168.5 q23 68.5 65 110.5 q42 42 102.5 60 q60.5 18 135.5 18 q48 0 83.5 -5 q35.5 -5 66.5 -15 l0 -83 q-30 11 -66 17.5 q-36 6.5 -82 6.5 q-59 0 -103 -14 q-44 -14 -73 -46.5 q-29 -32.5 -43.5 -85 q-14.5 -52.5 -14.5 -130.5 q0 -83 13.5 -136.5 q13.5 -53.5 41 -85 q27.5 -31.5 70 -44 q42.5 -12.5 100.5 -12.5 q49 0 87 6.5 q38 6.5 78 20.5 l0 -78 q-29 -13 -72 -21.5 q-43 -8.5 -96 -8.5 Z" /><glyph glyph-name="D" unicode="D" d="M292 694 q75 0 136.5 -13.5 q61.5 -13.5 105.5 -51.5 q44 -38 68.5 -106 q24.5 -68 24.5 -176 q0 -101 -24.5 -167.5 q-24.5 -66.5 -68.5 -106.5 q-44 -40 -105.5 -56.5 q-61.5 -16.5 -136.5 -16.5 l-200 0 l0 694 l200 0 ZM290 79 q54 0 99 12.5 q45 12.5 77.5 43 q32.5 30.5 50 82.5 q17.5 52 17.5 130 q0 83 -18.5 135.5 q-18.5 52.5 -51 82 q-32.5 29.5 -77 40.5 q-44.5 11 -97.5 11 l-108 0 l0 -537 l108 0 Z" /><glyph glyph-name="E" unicode="E" d="M503 81 l0 -81 l-411 0 l0 694 l386 0 l0 -80 l-296 0 l0 -215 l276 0 l0 -76 l-276 0 l0 -242 l321 0 Z" /><glyph glyph-name="F" unicode="F" d="M182 614 l0 -225 l276 0 l0 -80 l-276 0 l0 -309 l-90 0 l0 694 l386 0 l0 -80 l-296 0 Z" /><glyph glyph-name="G" unicode="G" d="M397 -10 q-76 0 -136 15 q-60 15 -102 54.5 q-42 39.5 -64.5 109 q-22.5 69.5 -22.5 178.5 q0 100 23 168.5 q23 68.5 66 110.5 q43 42 105.5 60 q62.5 18 140.5 18 q24 0 49.5 -2 q25.5 -2 49.5 -5.5 q24 -3.5 45.5 -8.5 q21.5 -5 36.5 -11 l0 -80 q-35 14 -79.5 21 q-44.5 7 -97.5 7 q-58 0 -103.5 -12 q-45.5 -12 -77 -43 q-31.5 -31 -48 -85 q-16.5 -54 -16.5 -138 q0 -89 15.5 -143.5 q15.5 -54.5 46.5 -84.5 q31 -30 75.5 -40.5 q44.5 -10.5 103.5 -10.5 q24 0 56.5 3 q32.5 3 56.5 10 l0 215 l-139 0 l0 76 l225 0 l0 -353 q-38 -12 -90.5 -20.5 q-52.5 -8.5 -118.5 -8.5 Z" /><glyph glyph-name="H" unicode="H" d="M616 694 l0 -694 l-91 0 l0 336 l-343 0 l0 -336 l-90 0 l0 694 l90 0 l0 -283 l343 0 l0 283 l91 0 Z" /><glyph glyph-name="I" unicode="I" d="M92 694 l90 0 l0 -694 l-90 0 l0 694 Z" /><glyph glyph-name="J" unicode="J" d="M-6 -181 q-15 0 -35.5 1.5 q-20.5 1.5 -34.5 4.5 l0 80 q12 -2 27 -4.5 q15 -2.5 40 -2.5 q55 0 78.5 35 q23.5 35 23.5 92 l0 669 l90 0 l0 -678 q0 -91 -46 -144 q-46 -53 -143 -53 Z" /><glyph glyph-name="K" unicode="K" d="M595 0 l-116 0 l-248 326 l-49 0 l0 -326 l-90 0 l0 694 l90 0 l0 -289 l49 0 l243 289 l112 0 l-284 -323 l293 -371 Z" /><glyph glyph-name="L" unicode="L" d="M483 81 l0 -81 l-391 0 l0 694 l90 0 l0 -613 l301 0 Z" /><glyph glyph-name="M" unicode="M" d="M92 694 l144 0 l177 -447 l6 0 l177 447 l142 0 l0 -694 l-90 0 l0 603 l-6 0 l-178 -446 l-98 0 l-180 446 l-6 0 l0 -603 l-88 0 l0 694 Z" /><glyph glyph-name="N" unicode="N" d="M92 694 l141 0 l316 -576 l6 0 l0 576 l90 0 l0 -694 l-119 0 l-340 611 l-6 0 l0 -611 l-88 0 l0 694 Z" /><glyph glyph-name="O" unicode="O" d="M371 -10 q-74 0 -129.5 16.5 q-55.5 16.5 -93.5 57 q-38 40.5 -57 109.5 q-19 69 -19 174 q0 105 19 173.5 q19 68.5 57 109.5 q38 41 93.5 57.5 q55.5 16.5 129.5 16.5 q74 0 130 -16.5 q56 -16.5 93.5 -57.5 q37.5 -41 56.5 -109.5 q19 -68.5 19 -173.5 q0 -105 -19 -174 q-19 -69 -56.5 -109.5 q-37.5 -40.5 -93.5 -57 q-56 -16.5 -130 -16.5 ZM371 67 q64 0 104 16 q40 16 62.5 50 q22.5 34 31 87 q8.5 53 8.5 127 q0 72 -8.5 125 q-8.5 53 -31 87.5 q-22.5 34.5 -62.5 51.5 q-40 17 -104 17 q-63 0 -103 -17 q-40 -17 -62.5 -51.5 q-22.5 -34.5 -31 -87.5 q-8.5 -53 -8.5 -125 q0 -74 8.5 -127 q8.5 -53 31 -87 q22.5 -34 62.5 -50 q40 -16 103 -16 Z" /><glyph glyph-name="P" unicode="P" d="M92 694 l193 0 q73 0 122 -13 q49 -13 78.5 -40 q29.5 -27 41.5 -69 q12 -42 12 -100 q0 -61 -14.5 -104 q-14.5 -43 -45 -70 q-30.5 -27 -79 -39.5 q-48.5 -12.5 -115.5 -12.5 l-103 0 l0 -246 l-90 0 l0 694 ZM277 321 q48 0 81 7 q33 7 52.5 24.5 q19.5 17.5 28 46.5 q8.5 29 8.5 73 q0 40 -8.5 67.5 q-8.5 27.5 -28 44.5 q-19.5 17 -52.5 24.5 q-33 7.5 -81 7.5 l-95 0 l0 -295 l95 0 Z" /><glyph glyph-name="Q" unicode="Q" d="M670 347 q0 -87 -13 -149 q-13 -62 -39 -103 q-26 -41 -64 -64.5 q-38 -23.5 -89 -32.5 l115 -143 l-107 0 l-97 135 l-5 0 q-74 0 -129.5 16.5 q-55.5 16.5 -93.5 57 q-38 40.5 -57 109.5 q-19 69 -19 174 q0 105 19 173.5 q19 68.5 57 109.5 q38 41 93.5 57.5 q55.5 16.5 129.5 16.5 q74 0 130 -16.5 q56 -16.5 93.5 -57.5 q37.5 -41 56.5 -109.5 q19 -68.5 19 -173.5 ZM371 67 q64 0 104 16 q40 16 62.5 50 q22.5 34 31 87 q8.5 53 8.5 127 q0 72 -8.5 125 q-8.5 53 -31 87.5 q-22.5 34.5 -62.5 51.5 q-40 17 -104 17 q-63 0 -103 -17 q-40 -17 -62.5 -51.5 q-22.5 -34.5 -31 -87.5 q-8.5 -53 -8.5 -125 q0 -74 8.5 -127 q8.5 -53 31 -87 q22.5 -34 62.5 -50 q40 -16 103 -16 Z" /><glyph glyph-name="R" unicode="R" d="M493 0 l-191 280 q-8 -1 -16.5 -1 q-8.5 0 -17.5 0 l-86 0 l0 -279 l-90 0 l0 694 l176 0 q73 0 123.5 -10.5 q50.5 -10.5 82 -34.5 q31.5 -24 45.5 -63.5 q14 -39.5 14 -96.5 q0 -90 -35 -136.5 q-35 -46.5 -107 -62.5 l208 -290 l-106 0 ZM260 354 q48 0 82.5 4.5 q34.5 4.5 56.5 18.5 q22 14 32.5 41 q10.5 27 10.5 71 q0 39 -10.5 64 q-10.5 25 -32.5 39 q-22 14 -56.5 19 q-34.5 5 -82.5 5 l-78 0 l0 -262 l78 0 Z" /><glyph glyph-name="S" unicode="S" d="M263 -10 q-32 0 -63.5 2.5 q-31.5 2.5 -59 6.5 q-27.5 4 -49 8.5 q-21.5 4.5 -34.5 9.5 l0 83 q15 -6 38 -11.5 q23 -5.5 50 -10 q27 -4.5 57 -7 q30 -2.5 61 -2.5 q78 0 118 26 q40 26 40 91 q0 32 -6.5 53.5 q-6.5 21.5 -24.5 36.5 q-18 15 -49 26 q-31 11 -80 23 q-53 13 -90 27 q-37 14 -60 35.5 q-23 21.5 -33.5 52.5 q-10.5 31 -10.5 77 q0 95 56.5 141.5 q56.5 46.5 174.5 46.5 q25 0 50.5 -2 q25.5 -2 49 -5.5 q23.5 -3.5 43 -8 q19.5 -4.5 31.5 -9.5 l0 -82 q-30 11 -78 19.5 q-48 8.5 -95 8.5 q-36 0 -63 -4.5 q-27 -4.5 -45 -16.5 q-18 -12 -26.5 -33 q-8.5 -21 -8.5 -55 q0 -24 4.5 -41.5 q4.5 -17.5 19.5 -30.5 q15 -13 43 -23.5 q28 -10.5 75 -21.5 q58 -14 98.5 -29.5 q40.5 -15.5 65.5 -39.5 q25 -24 36 -58.5 q11 -34.5 11 -85.5 q0 -102 -62.5 -149.5 q-62.5 -47.5 -183.5 -47.5 Z" /><glyph glyph-name="T" unicode="T" d="M511 614 l-202 0 l0 -614 l-90 0 l0 614 l-203 0 l0 80 l495 0 l0 -80 Z" /><glyph glyph-name="U" unicode="U" d="M350 -10 q-131 0 -196 53.5 q-65 53.5 -65 180.5 l0 470 l89 0 l0 -450 q0 -50 9 -83.5 q9 -33.5 29.5 -53.5 q20.5 -20 53.5 -29 q33 -9 81 -9 q50 0 83.5 9 q33.5 9 53.5 29 q20 20 28 53.5 q8 33.5 8 83.5 l0 450 l89 0 l0 -470 q0 -123 -66 -178.5 q-66 -55.5 -197 -55.5 Z" /><glyph glyph-name="V" unicode="V" d="M16 694 l96 0 l195 -599 l6 0 l198 599 l91 0 l-239 -694 l-112 0 l-235 694 Z" /><glyph glyph-name="W" unicode="W" d="M26 694 l94 0 l130 -589 l6 0 l141 508 l108 0 l141 -508 l6 0 l129 589 l91 0 l-165 -694 l-114 0 l-141 514 l-6 0 l-144 -514 l-114 0 l-162 694 Z" /><glyph glyph-name="underscore" unicode="_" d="M0 -134 l500 0 l0 -70 l-500 0 l0 70 Z" /><glyph glyph-name="a" unicode="a" d="M305 550 q64 0 105.5 -12.5 q41.5 -12.5 66 -34.5 q24.5 -22 34 -53 q9.5 -31 9.5 -67 l0 -383 l-73 0 l-13 82 q-12 -22 -32 -39 q-20 -17 -45.5 -29 q-25.5 -12 -55.5 -18 q-30 -6 -60 -6 q-97 0 -141.5 42 q-44.5 42 -44.5 119 q0 48 15.5 81 q15.5 33 43.5 53 q28 20 67.5 29 q39.5 9 87.5 9 l165 0 l0 45 q0 24 -5.5 44.5 q-5.5 20.5 -20 35 q-14.5 14.5 -40.5 22.5 q-26 8 -67 8 q-27 0 -58.5 -3 q-31.5 -3 -60.5 -9 l0 76 q30 4 62 6 q32 2 61 2 ZM249 62 q68 0 116 27.5 q48 27.5 69 75.5 l0 89 l-159 0 q-33 0 -58 -4 q-25 -4 -41 -15.5 q-16 -11.5 -24 -31.5 q-8 -20 -8 -51 q0 -45 24 -67.5 q24 -22.5 81 -22.5 Z" /><glyph glyph-name="b" unicode="b" d="M352 550 q68 0 111.5 -20.5 q43.5 -20.5 68 -57.5 q24.5 -37 34 -88.5 q9.5 -51.5 9.5 -113.5 q0 -56 -9.5 -106.5 q-9.5 -50.5 -34 -89 q-24.5 -38.5 -68 -61.5 q-43.5 -23 -111.5 -23 q-79 0 -118.5 28 q-39.5 28 -56.5 76 l-11 -94 l-75 0 l0 760 l86 0 l0 -317 q17 48 57 77.5 q40 29.5 118 29.5 ZM341 63 q48 0 76.5 17.5 q28.5 17.5 43.5 46.5 q15 29 19.5 66.5 q4.5 37.5 4.5 76.5 q0 42 -5 80 q-5 38 -20 66.5 q-15 28.5 -43.5 45 q-28.5 16.5 -75.5 16.5 q-49 0 -81 -14.5 q-32 -14.5 -51.5 -41.5 q-19.5 -27 -27.5 -65.5 q-8 -38.5 -8 -86.5 q0 -47 8 -85 q8 -38 27.5 -65 q19.5 -27 51.5 -42 q32 -15 81 -15 Z" /><glyph glyph-name="c" unicode="c" d="M309 -10 q-60 0 -106.5 13.5 q-46.5 13.5 -78.5 46 q-32 32.5 -48.5 86 q-16.5 53.5 -16.5 134.5 q0 81 16.5 134.5 q16.5 53.5 48.5 86 q32 32.5 78.5 46 q46.5 13.5 106.5 13.5 q45 0 81.5 -6 q36.5 -6 59.5 -14 l0 -79 q-30 11 -64 17.5 q-34 6.5 -76 6.5 q-45 0 -75 -10 q-30 -10 -49 -33.5 q-19 -23.5 -27 -63 q-8 -39.5 -8 -99.5 q0 -59 8 -98 q8 -39 27 -62.5 q19 -23.5 49.5 -33 q30.5 -9.5 75.5 -9.5 q38 0 75 5.5 q37 5.5 66 17.5 l0 -79 q-11 -4 -27.5 -7.5 q-16.5 -3.5 -36 -6.5 q-19.5 -3 -40 -4.5 q-20.5 -1.5 -39.5 -1.5 Z" /><glyph glyph-name="d" unicode="d" d="M545 760 l0 -760 l-73 0 l-13 89 q-16 -43 -59 -71 q-43 -28 -117 -28 q-67 0 -110.5 20.5 q-43.5 20.5 -68.5 57.5 q-25 37 -34.5 88.5 q-9.5 51.5 -9.5 113.5 q0 55 9.5 106 q9.5 51 34.5 89.5 q25 38.5 68.5 61.5 q43.5 23 110.5 23 q40 0 69 -7.5 q29 -7.5 50 -21 q21 -13.5 35 -32.5 q14 -19 22 -43 l0 314 l86 0 ZM296 63 q49 0 81 14 q32 14 51 41 q19 27 26.5 65.5 q7.5 38.5 7.5 86.5 q0 46 -7.5 84.5 q-7.5 38.5 -26.5 66 q-19 27.5 -51 42.5 q-32 15 -81 15 q-49 0 -77.5 -17.5 q-28.5 -17.5 -43.5 -47 q-15 -29.5 -19 -67 q-4 -37.5 -4 -76.5 q0 -42 4.5 -80 q4.5 -38 19.5 -66 q15 -28 43.5 -44.5 q28.5 -16.5 76.5 -16.5 Z" /><glyph glyph-name="e" unicode="e" d="M520 324 q0 -11 -1.5 -27.5 q-1.5 -16.5 -3.5 -35.5 l-366 -23 q0 -44 9 -76.5 q9 -32.5 29 -53.5 q20 -21 53 -31.5 q33 -10.5 82 -10.5 q45 0 91.5 10 q46.5 10 77.5 25 l0 -79 q-12 -6 -31 -12 q-19 -6 -43 -10.5 q-24 -4.5 -51.5 -7 q-27.5 -2.5 -56.5 -2.5 q-60 0 -106.5 13.5 q-46.5 13.5 -78.5 46 q-32 32.5 -48.5 86 q-16.5 53.5 -16.5 134.5 q0 81 16.5 134.5 q16.5 53.5 48 86 q31.5 32.5 77 46 q45.5 13.5 103.5 13.5 q69 0 111.5 -20.5 q42.5 -20.5 65.5 -53 q23 -32.5 31 -73 q8 -40.5 8 -79.5 ZM435 323 q0 31 -4 59.5 q-4 28.5 -17.5 50 q-13.5 21.5 -39.5 34 q-26 12.5 -70 12.5 q-47 0 -76.5 -12 q-29.5 -12 -46.5 -35 q-17 -23 -24 -56 q-7 -33 -8 -74 l286 21 Z" /><glyph glyph-name="f" unicode="f" d="M290 695 q-28 0 -46 -7 q-18 -7 -29 -24.5 q-11 -17.5 -16 -47.5 q-5 -30 -5 -76 l127 0 l0 -71 l-127 0 l0 -469 l-86 0 l0 469 l-90 0 l0 71 l90 0 l0 5 q0 70 13 113 q13 43 37 66.5 q24 23.5 57.5 31.5 q33.5 8 74.5 8 q15 0 30.5 -1.5 q15.5 -1.5 29.5 -3.5 l0 -69 q-25 5 -60 5 Z" /><glyph glyph-name="g" unicode="g" d="M545 540 l0 -502 q0 -112 -63.5 -175 q-63.5 -63 -200.5 -63 q-35 0 -70 4 q-35 4 -61 9 l0 73 q61 -12 132 -12 q90 0 133.5 40 q43.5 40 43.5 133 l0 54 q-17 -48 -57 -74.5 q-40 -26.5 -118 -26.5 q-68 0 -111 20 q-43 20 -68.5 56 q-25.5 36 -35 86.5 q-9.5 50.5 -9.5 112.5 q0 56 9.5 106 q9.5 50 35 87.5 q25.5 37.5 68.5 59.5 q43 22 111 22 q41 0 70.5 -8.5 q29.5 -8.5 50 -23 q20.5 -14.5 33.5 -35 q13 -20.5 21 -44.5 l0 101 l86 0 ZM296 72 q49 0 81 13.5 q32 13.5 51 39.5 q19 26 26.5 64 q7.5 38 7.5 86 q0 46 -7.5 84 q-7.5 38 -26.5 64 q-19 26 -51 40.5 q-32 14.5 -81 14.5 q-49 0 -77.5 -17 q-28.5 -17 -43.5 -45 q-15 -28 -19 -65 q-4 -37 -4 -76 q0 -42 4.5 -79 q4.5 -37 19.5 -64.5 q15 -27.5 43.5 -43.5 q28.5 -16 76.5 -16 Z" /><glyph glyph-name="h" unicode="h" d="M350 550 q53 0 88 -13 q35 -13 55.5 -36.5 q20.5 -23.5 29 -55.5 q8.5 -32 8.5 -71 l0 -374 l-86 0 l0 342 q0 31 -4 55.5 q-4 24.5 -15.5 41 q-11.5 16.5 -32 25.5 q-20.5 9 -52.5 9 q-26 0 -50.5 -3.5 q-24.5 -3.5 -46 -15 q-21.5 -11.5 -39 -32.5 q-17.5 -21 -28.5 -57 l0 -365 l-86 0 l0 760 l86 0 l0 -297 q12 26 31.5 43 q19.5 17 42.5 26.5 q23 9.5 48.5 13.5 q25.5 4 50.5 4 Z" /><glyph glyph-name="i" unicode="i" d="M135 639 q-29 0 -40.5 9 q-11.5 9 -11.5 42 q0 34 11.5 42.5 q11.5 8.5 40.5 8.5 q27 0 39 -8.5 q12 -8.5 12 -42.5 q0 -33 -12 -42 q-12 -9 -39 -9 ZM91 540 l86 0 l0 -540 l-86 0 l0 540 Z" /><glyph glyph-name="j" unicode="j" d="M135 639 q-29 0 -40.5 9 q-11.5 9 -11.5 42 q0 34 11.5 42.5 q11.5 8.5 40.5 8.5 q27 0 39 -8.5 q12 -8.5 12 -42.5 q0 -33 -12 -42 q-12 -9 -39 -9 ZM-7 -200 q-16 0 -31.5 1.5 q-15.5 1.5 -31.5 3.5 l0 71 q14 -2 32 -3.5 q18 -1.5 37 -1.5 q29 0 47 7 q18 7 28 24 q10 17 13.5 45 q3.5 28 3.5 69 l0 524 l86 0 l0 -533 q0 -65 -11.5 -105.5 q-11.5 -40.5 -34.5 -63 q-23 -22.5 -57.5 -30.5 q-34.5 -8 -80.5 -8 Z" /><glyph glyph-name="k" unicode="k" d="M514 0 l-111 0 l-197 252 l-29 0 l0 -252 l-86 0 l0 760 l86 0 l0 -441 l31 0 l187 221 l107 0 l-227 -251 l239 -289 Z" /><glyph glyph-name="l" unicode="l" d="M211 -6 q-60 0 -90 27 q-30 27 -30 88 l0 651 l86 0 l0 -629 q0 -41 12 -53 q12 -12 38 -12 q9 0 19.5 1 q10.5 1 21.5 4 l0 -71 q-12 -3 -25.5 -4.5 q-13.5 -1.5 -31.5 -1.5 Z" /><glyph glyph-name="m" unicode="m" d="M658 550 q47 0 80.5 -13 q33.5 -13 55 -36.5 q21.5 -23.5 31.5 -56 q10 -32.5 10 -71.5 l0 -373 l-86 0 l0 342 q0 63 -21.5 97 q-21.5 34 -82.5 34 q-24 0 -45.5 -4 q-21.5 -4 -39.5 -14.5 q-18 -10.5 -32 -29 q-14 -18.5 -23 -47.5 l0 -4 l0 -374 l-86 0 l0 342 q0 62 -20 96.5 q-20 34.5 -79 34.5 q-25 0 -47 -3.5 q-22 -3.5 -40 -14 q-18 -10.5 -32 -30 q-14 -19.5 -24 -50.5 l0 -375 l-86 0 l0 540 l86 0 l0 -71 q25 48 66 64.5 q41 16.5 90 16.5 q64 0 102 -23.5 q38 -23.5 55 -64.5 q12 26 30.5 43 q18.5 17 41 27 q22.5 10 47 14 q24.5 4 49.5 4 Z" /><glyph glyph-name="n" unicode="n" d="M350 550 q53 0 88 -13 q35 -13 55.5 -36.5 q20.5 -23.5 29 -55.5 q8.5 -32 8.5 -71 l0 -374 l-87 0 l0 342 q0 31 -4 55.5 q-4 24.5 -15.5 41 q-11.5 16.5 -31.5 25.5 q-20 9 -52 9 q-26 0 -50.5 -3.5 q-24.5 -3.5 -46 -15 q-21.5 -11.5 -39 -32.5 q-17.5 -21 -28.5 -57 l0 -365 l-86 0 l0 540 l86 0 l0 -77 q12 26 31.5 43 q19.5 17 42.5 26.5 q23 9.5 48.5 13.5 q25.5 4 50.5 4 Z" /><glyph glyph-name="o" unicode="o" d="M309 -10 q-60 0 -106.5 13.5 q-46.5 13.5 -78.5 46 q-32 32.5 -48.5 86 q-16.5 53.5 -16.5 134.5 q0 81 16.5 134.5 q16.5 53.5 48.5 86 q32 32.5 78.5 46 q46.5 13.5 106.5 13.5 q60 0 106.5 -13.5 q46.5 -13.5 78 -46 q31.5 -32.5 48 -86 q16.5 -53.5 16.5 -134.5 q0 -81 -16.5 -134.5 q-16.5 -53.5 -48 -86 q-31.5 -32.5 -78 -46 q-46.5 -13.5 -106.5 -13.5 ZM309 63 q46 0 76.5 10 q30.5 10 48.5 34 q18 24 25.5 64 q7.5 40 7.5 99 q0 59 -8 99 q-8 40 -26.5 64 q-18.5 24 -49 34.5 q-30.5 10.5 -74.5 10.5 q-45 0 -75.5 -10.5 q-30.5 -10.5 -49 -34.5 q-18.5 -24 -26 -64 q-7.5 -40 -7.5 -99 q0 -59 8 -99 q8 -40 27 -64 q19 -24 49 -34 q30 -10 74 -10 Z" /><glyph glyph-name="p" unicode="p" d="M352 550 q68 0 111.5 -20.5 q43.5 -20.5 68 -57.5 q24.5 -37 34 -88.5 q9.5 -51.5 9.5 -113.5 q0 -56 -9.5 -106.5 q-9.5 -50.5 -34 -89 q-24.5 -38.5 -68 -61.5 q-43.5 -23 -111.5 -23 q-79 0 -118.5 28 q-39.5 28 -56.5 76 l0 -294 l-86 0 l0 740 l86 0 l0 -97 q17 48 57 77.5 q40 29.5 118 29.5 ZM341 63 q48 0 76.5 17.5 q28.5 17.5 43.5 46.5 q15 29 19.5 66.5 q4.5 37.5 4.5 76.5 q0 43 -5 80.5 q-5 37.5 -20 66 q-15 28.5 -43.5 45 q-28.5 16.5 -75.5 16.5 q-49 0 -81 -14.5 q-32 -14.5 -51.5 -41.5 q-19.5 -27 -27.5 -65.5 q-8 -38.5 -8 -86.5 q0 -47 8 -85 q8 -38 27.5 -65 q19.5 -27 51.5 -42 q32 -15 81 -15 Z" /><glyph glyph-name="q" unicode="q" d="M546 540 l0 -740 l-86 0 l0 302 q-8 -25 -21.5 -45.5 q-13.5 -20.5 -34.5 -35.5 q-21 -15 -51 -23 q-30 -8 -70 -8 q-67 0 -110.5 20.5 q-43.5 20.5 -68.5 57.5 q-25 37 -34.5 88.5 q-9.5 51.5 -9.5 113.5 q0 55 9.5 106 q9.5 51 34.5 89.5 q25 38.5 68.5 61.5 q43.5 23 110.5 23 q40 0 70 -7.5 q30 -7.5 51 -21.5 q21 -14 34.5 -34 q13.5 -20 21.5 -44 l0 97 l86 0 ZM296 63 q49 0 81 14 q32 14 51 41 q19 27 26.5 65.5 q7.5 38.5 7.5 86.5 q0 46 -7.5 84.5 q-7.5 38.5 -26.5 66 q-19 27.5 -51 42.5 q-32 15 -81 15 q-49 0 -77.5 -17.5 q-28.5 -17.5 -43.5 -47 q-15 -29.5 -19 -67 q-4 -37.5 -4 -76.5 q0 -42 4.5 -80 q4.5 -38 19.5 -66 q15 -28 43.5 -44.5 q28.5 -16.5 76.5 -16.5 Z" /><glyph glyph-name="r" unicode="r" d="M359 550 l-3 -78 l-12 0 q-26 0 -51 -5 q-25 -5 -47 -18.5 q-22 -13.5 -40 -36.5 q-18 -23 -29 -59 l0 -353 l-86 0 l0 540 l86 0 l0 -98 q13 34 32 55 q19 21 42 33 q23 12 48.5 16 q25.5 4 49.5 4 l10 0 Z" /><glyph glyph-name="s" unicode="s" d="M216 -6 q-20 0 -42.5 1.5 q-22.5 1.5 -44.5 3.5 q-22 2 -40.5 5.5 q-18.5 3.5 -29.5 6.5 l0 74 q14 -4 33.5 -8 q19.5 -4 40.5 -7 q21 -3 42.5 -4.5 q21.5 -1.5 39.5 -1.5 q62 0 93.5 17.5 q31.5 17.5 31.5 65.5 q0 24 -4.5 39.5 q-4.5 15.5 -17.5 26 q-13 10.5 -36.5 18.5 q-23.5 8 -62.5 17 q-45 10 -74 23 q-29 13 -46 31 q-17 18 -24 43 q-7 25 -7 59 q0 66 48.5 106 q48.5 40 145.5 40 q39 0 77.5 -5 q38.5 -5 58.5 -13 l-6 -73 q-23 9 -57 15 q-34 6 -72 6 q-57 0 -85.5 -16 q-28.5 -16 -28.5 -62 q0 -21 4.5 -34 q4.5 -13 15.5 -22.5 q11 -9.5 31 -16 q20 -6.5 52 -13.5 q46 -11 78.5 -23.5 q32.5 -12.5 52.5 -31 q20 -18.5 29 -45.5 q9 -27 9 -66 q0 -81 -52.5 -118.5 q-52.5 -37.5 -152.5 -37.5 Z" /><glyph glyph-name="t" unicode="t" d="M259 66 q18 0 31.5 1.5 q13.5 1.5 27.5 4.5 l0 -73 q-16 -2 -30 -3.5 q-14 -1.5 -31 -1.5 q-45 0 -75.5 6.5 q-30.5 6.5 -50 25.5 q-19.5 19 -28 52.5 q-8.5 33.5 -8.5 86.5 l0 303 l-80 0 l0 72 l80 0 l0 128 l86 0 l0 -128 l134 0 l0 -72 l-134 0 l0 -298 q0 -32 3 -52 q3 -20 11.5 -31.5 q8.5 -11.5 23.5 -16 q15 -4.5 40 -4.5 Z" /><glyph glyph-name="u" unicode="u" d="M522 540 l0 -540 l-73 0 l-11 78 q-12 -27 -31 -44 q-19 -17 -41.5 -26.5 q-22.5 -9.5 -47.5 -13.5 q-25 -4 -50 -4 q-53 0 -88 13 q-35 13 -55.5 36 q-20.5 23 -29 55.5 q-8.5 32.5 -8.5 71.5 l0 374 l86 0 l0 -342 q0 -31 4 -55.5 q4 -24.5 15.5 -41.5 q11.5 -17 32 -26 q20.5 -9 52.5 -9 q25 0 49 3.5 q24 3.5 44.5 15 q20.5 11.5 37 32.5 q16.5 21 28.5 56 l0 367 l86 0 Z" /><glyph glyph-name="v" unicode="v" d="M10 540 l87 0 l164 -454 l6 0 l158 454 l91 0 l-202 -540 l-102 0 l-202 540 Z" /><glyph glyph-name="w" unicode="w" d="M22 540 l86 0 l114 -453 l6 0 l134 453 l102 0 l138 -453 l6 0 l114 453 l85 0 l-150 -540 l-107 0 l-134 443 l-6 0 l-135 -443 l-107 0 l-146 540 Z" /><glyph glyph-name="x" unicode="x" d="M200 275 l-175 265 l96 0 l136 -213 l6 0 l134 213 l95 0 l-174 -263 l184 -277 l-98 0 l-142 223 l-6 0 l-146 -223 l-96 0 l186 275 Z" /><glyph glyph-name="y" unicode="y" d="M67 -126 q70 0 104.5 31 q34.5 31 54.5 96 l-216 539 l93 0 l165 -448 l6 0 l156 448 l87 0 l-194 -522 q-19 -51 -39 -91 q-20 -40 -48.5 -68.5 q-28.5 -28.5 -68.5 -43.5 q-40 -15 -100 -15 l0 74 Z" /><glyph glyph-name="z" unicode="z" d="M44 70 l304 393 l0 6 l-280 0 l0 71 l385 0 l0 -65 l-306 -395 l0 -6 l323 0 l0 -74 l-426 0 l0 70 Z" /><glyph glyph-name="braceleft" unicode="{" d="M265 -200 q-152 0 -152 153 l0 226 q0 35 -13.5 48 q-13.5 13 -50.5 13 l0 80 q37 0 50.5 13 q13.5 13 13.5 48 l0 226 q0 153 152 153 l0 -80 q-38 0 -51.5 -14.5 q-13.5 -14.5 -13.5 -58.5 l0 -226 q0 -39 -12.5 -63 q-12.5 -24 -37.5 -38 q25 -14 37.5 -38 q12.5 -24 12.5 -63 l0 -226 q0 -44 13.5 -58.5 q13.5 -14.5 51.5 -14.5 l0 -80 Z" /><glyph glyph-name="braceright" unicode="}" d="M34 -120 q38 0 51.5 14.5 q13.5 14.5 13.5 58.5 l0 226 q0 39 12.5 63 q12.5 24 37.5 38 q-25 14 -37.5 38 q-12.5 24 -12.5 63 l0 226 q0 44 -13.5 58.5 q-13.5 14.5 -51.5 14.5 l0 80 q152 0 152 -153 l0 -226 q0 -35 14 -48 q14 -13 50 -13 l0 -80 q-36 0 -50 -13 q-14 -13 -14 -48 l0 -226 q0 -153 -152 -153 l0 80 Z" /><glyph glyph-name="uniFF1A" unicode="&#xff1a;" d="M187 483 q0 40 13.5 51.5 q13.5 11.5 50.5 11.5 q37 0 50.5 -12 q13.5 -12 13.5 -51 q0 -39 -13.5 -51 q-13.5 -12 -50.5 -12 q-37 0 -50.5 11.5 q-13.5 11.5 -13.5 51.5 ZM251 120 q37 0 50.5 -11.5 q13.5 -11.5 13.5 -50.5 q0 -40 -13.5 -52 q-13.5 -12 -50.5 -12 q-25 0 -38.5 4.5 q-13.5 4.5 -19.5 18 q-6 13.5 -6 41.5 q0 39 13.5 50.5 q13.5 11.5 50.5 11.5 Z" /><glyph glyph-name="uni3001" unicode="&#x3001;" d="M117 90 l55 37 q44 -28 92 -78 q48 -50 84 -103 l-70 -42 q-26 47 -73.5 101 q-47.5 54 -87.5 85 Z" /><glyph glyph-name="uni3002" unicode="&#x3002;" d="M102 15 q0 60 38 93 q38 33 95 33 q57 0 95 -33 q38 -33 38 -93 q0 -60 -38 -93 q-38 -33 -95 -33 q-57 0 -95 33 q-38 33 -38 93 ZM235 -58 q33 0 54 19 q21 19 21 54 q0 35 -21 54 q-21 19 -54 19 q-33 0 -54 -19 q-21 -19 -21 -54 q0 -35 21 -54 q21 -19 54 -19 Z" /><glyph glyph-name="uni4E00" unicode="&#x4e00;" d="M48 348 l0 81 l884 0 l0 -81 l-884 0 Z" /><glyph glyph-name="uni4E07" unicode="&#x4e07;" d="M404 665 l-7 -162 l-1 -17 l406 0 l-3 -46 q-19 -304 -21 -330 q-6 -69 -20.5 -100.5 q-14.5 -31.5 -48 -45 q-33.5 -13.5 -108.5 -19.5 l-82 -7 l-28 76 l86 6 q50 3 73.5 11.5 q23.5 8.5 34 31.5 q10.5 23 14.5 73 q15 206 18 275 l-329 0 q-14 -110 -46 -194.5 q-32 -84.5 -90.5 -159 q-58.5 -74.5 -152.5 -153.5 l-61 58 q104 85 160.5 158.5 q56.5 73.5 84 162.5 q27.5 89 35.5 221 q6 120 8 161 l-249 0 l0 74 l840 0 l0 -74 l-513 0 Z" /><glyph glyph-name="uni4E09" unicode="&#x4e09;" d="M126 713 l732 0 l0 -77 l-732 0 l0 77 ZM180 409 l621 0 l0 -75 l-621 0 l0 75 ZM55 50 l870 0 l0 -75 l-870 0 l0 75 Z" /><glyph glyph-name="uni4E0A" unicode="&#x4e0a;" d="M506 449 l0 -425 l431 0 l0 -71 l-890 0 l0 71 l381 0 l0 779 l78 -4 l0 -277 l365 0 l0 -73 l-365 0 Z" /><glyph glyph-name="uni4E0B" unicode="&#x4e0b;" d="M56 657 l0 75 l868 0 l0 -75 l-418 0 l0 -751 l-80 0 l0 751 l-370 0 ZM571 520 q67 -49 152 -120.5 q85 -71.5 129 -118.5 l-48 -70 q-55 60 -138.5 135 q-83.5 75 -142.5 117 l48 57 Z" /><glyph glyph-name="uni4E0D" unicode="&#x4e0d;" d="M592 661 q-30 -55 -63 -108 l0 -652 l-77 0 l0 543 q-142 -183 -351 -335 l-56 63 q300 203 456 489 l-404 0 l0 76 l790 0 l0 -76 l-295 0 ZM618 463 q79 -62 168.5 -142 q89.5 -80 140.5 -139 l-56 -68 q-57 69 -146.5 155 q-89.5 86 -156.5 138 l50 56 Z" /><glyph glyph-name="uni4E0E" unicode="&#x4e0e;" d="M888 591 l-589 0 l-11 -158 l548 0 l-21 -352 q-5 -65 -20.5 -97 q-15.5 -32 -48.5 -45 q-33 -13 -99 -17 l-123 -7 l-26 76 l126 6 q47 2 68 9 q21 7 30.5 27.5 q9.5 20.5 13.5 68.5 q3 46 8.5 125.5 q5.5 79.5 8.5 128.5 l-549 0 l31 438 l79 -3 l-9 -126 l583 0 l0 -74 ZM43 215 l642 0 l0 -74 l-642 0 l0 74 Z" /><glyph glyph-name="uni4E13" unicode="&#x4e13;" d="M926 421 l-550 0 q-19 -50 -49 -114 l468 0 l0 -76 q-91 -107 -189 -194 q59 -23 180 -72 l-26 -77 q-133 59 -287 119.5 q-154 60.5 -278 101.5 l28 68 q132 -44 299 -108 q48 38 97 84 q49 46 77 82 l-459 0 l0 62 q28 53 57 124 l-240 0 l0 72 l267 0 q25 71 40 124 l-227 0 l0 72 l248 0 q16 61 30 125 l77 -14 q-12 -54 -27 -111 l384 0 l0 -72 l-404 0 q-17 -60 -39 -124 l523 0 l0 -72 Z" /><glyph glyph-name="uni4E14" unicode="&#x4e14;" d="M781 757 l0 -740 l157 0 l0 -71 l-896 0 l0 71 l157 0 l0 740 l582 0 ZM704 515 l0 168 l-429 0 l0 -168 l429 0 ZM275 271 l429 0 l0 172 l-429 0 l0 -172 ZM704 198 l-429 0 l0 -181 l429 0 l0 181 Z" /><glyph glyph-name="uni4E16" unicode="&#x4e16;" d="M777 496 l0 -316 l-358 0 l0 316 l-164 0 l0 -469 l649 0 l0 -72 l-726 0 l0 541 l-138 0 l0 74 l138 0 l0 208 l77 -3 l0 -205 l164 0 l0 232 l74 -3 l0 -229 l208 0 l0 233 l76 -3 l0 -230 l162 0 l0 -74 l-162 0 ZM701 252 l0 244 l-208 0 l0 -244 l208 0 Z" /><glyph glyph-name="uni4E1A" unicode="&#x4e1a;" d="M641 792 l0 -771 l290 0 l0 -69 l-878 0 l0 69 l294 0 l0 772 l78 -3 l0 -769 l135 0 l0 774 l81 -3 ZM892 609 q-76 -258 -153 -419 l-74 29 q45 85 87 200 q42 115 66 213 l74 -23 ZM237 193 q-28 100 -71.5 215.5 q-43.5 115.5 -81.5 187.5 l71 29 q34 -64 84 -190.5 q50 -126.5 74 -207.5 l-76 -34 Z" /><glyph glyph-name="uni4E1C" unicode="&#x4e1c;" d="M848 302 l-301 0 l0 -280 q0 -44 -9 -65 q-9 -21 -30.5 -29.5 q-21.5 -8.5 -66.5 -13.5 l-73 -6 l-26 75 l74 6 q27 2 38 6.5 q11 4.5 14.5 15.5 q3.5 11 3.5 38 l0 253 l-318 0 l0 74 q81 112 144 226 l-224 0 l0 70 l261 0 q39 77 65 142 l71 -30 q-20 -48 -52 -112 l481 0 l0 -70 l-518 0 q-77 -144 -142 -231 l232 0 l0 171 l75 -3 l0 -168 l301 0 l0 -69 ZM689 247 q51 -41 129 -115 q78 -74 122 -125 l-52 -57 q-50 59 -125 133.5 q-75 74.5 -124 114.5 l50 49 ZM25 1 q140 96 255 242 l58 -49 q-59 -73 -121 -134 q-62 -61 -137 -117 l-55 58 Z" /><glyph glyph-name="uni4E24" unicode="&#x4e24;" d="M911 686 l-279 0 l-2 -136 l217 0 l0 -502 q0 -46 -12 -70 q-12 -24 -41.5 -35.5 q-29.5 -11.5 -85.5 -14.5 l-54 -4 l-24 73 l68 3 q34 1 50 7.5 q16 6.5 21 19 q5 12.5 5 38.5 l0 416 l-146 0 q-3 -66 -13 -121 q36 -36 85 -94.5 q49 -58.5 74 -95.5 l-52 -55 q-20 34 -56 81.5 q-36 47.5 -71 86.5 q-40 -133 -147 -262 l-58 37 q84 100 123.5 196.5 q39.5 96.5 44.5 226.5 l-163 0 q-1 -53 -9 -98 q28 -29 59.5 -67 q31.5 -38 48.5 -62 l-52 -57 q-18 36 -76 106 q-18 -53 -49 -104.5 q-31 -51.5 -81 -113.5 l-55 40 l0 -197 l-69 0 l0 622 l216 0 l2 136 l-284 0 l0 70 l865 0 l0 -70 ZM560 550 q0 62 2 136 l-162 0 l-3 -136 l163 0 ZM181 135 q52 65 80 111.5 q28 46.5 43 100.5 q15 54 21 134 l-144 0 l0 -346 Z" /><glyph glyph-name="uni4E25" unicode="&#x4e25;" d="M924 749 l0 -67 l-280 0 l0 -262 l275 0 l0 -66 l-697 0 l0 -99 q0 -78 -12 -136 q-12 -58 -39 -109.5 q-27 -51.5 -75 -117.5 l-64 35 q46 61 71 108 q25 47 36.5 102.5 q11.5 55.5 11.5 135.5 l0 147 l217 0 l0 262 l-291 0 l0 67 l847 0 ZM444 420 l125 0 l0 262 l-125 0 l0 -262 ZM262 433 q-22 37 -67 90.5 q-45 53.5 -78 84.5 l50 48 q30 -26 77 -78 q47 -52 71 -85 l-53 -60 ZM690 491 q30 24 75.5 75.5 q45.5 51.5 70.5 88.5 l55 -47 q-25 -37 -72 -89.5 q-47 -52.5 -78 -77.5 l-51 50 Z" /><glyph glyph-name="uni4E2A" unicode="&#x4e2a;" d="M27 400 q135 79 247.5 185 q112.5 106 181.5 215 l69 0 q154 -230 426 -395 l-56 -70 q-123 89 -231 187.5 q-108 98.5 -173 194.5 q-73 -105 -179 -203 q-106 -98 -231 -181 l-54 67 ZM450 489 l81 -4 l0 -585 l-81 0 l0 589 Z" /><glyph glyph-name="uni4E2D" unicode="&#x4e2d;" d="M528 617 l336 0 l0 -423 l-336 0 l0 -293 l-80 0 l0 293 l-333 0 l0 423 l333 0 l0 194 l80 -4 l0 -190 ZM193 543 l0 -275 l255 0 l0 275 l-255 0 ZM528 268 l259 0 l0 275 l-259 0 l0 -275 Z" /><glyph glyph-name="uni4E30" unicode="&#x4e30;" d="M528 198 l393 0 l0 -75 l-393 0 l0 -226 l-77 0 l0 226 l-395 0 l0 75 l395 0 l0 165 l-303 0 l0 72 l303 0 l0 151 l-349 0 l0 72 l349 0 l0 143 l77 -3 l0 -140 l347 0 l0 -72 l-347 0 l0 -151 l301 0 l0 -72 l-301 0 l0 -165 Z" /><glyph glyph-name="uni4E3A" unicode="&#x4e3a;" d="M860 575 q-4 -95 -12.5 -247 q-8.5 -152 -14.5 -265 q-3 -49 -21.5 -76.5 q-18.5 -27.5 -58.5 -40.5 q-40 -13 -114 -17 l-72 -4 l-33 78 l100 4 q51 2 76 9.5 q25 7.5 36 26 q11 18.5 15 56.5 q6 56 13 201 q7 145 8 199 l-292 0 q-18 -132 -59 -231.5 q-41 -99.5 -114 -185 q-73 -85.5 -192 -176.5 l-57 61 q112 82 181 159 q69 77 107.5 166 q38.5 89 55.5 207 l-325 0 l0 76 l334 0 q6 59 18 225 l75 -3 q0 -28 -5.5 -100.5 q-5.5 -72.5 -10.5 -121.5 l362 0 ZM298 587 q-22 36 -64.5 86 q-42.5 50 -72.5 76 l53 47 q28 -23 72 -71 q44 -48 66 -80 l-54 -58 ZM641 169 q-19 38 -67 94.5 q-48 56.5 -86 90.5 l53 50 q34 -27 83 -82 q49 -55 72 -91 l-55 -62 Z" /><glyph glyph-name="uni4E3B" unicode="&#x4e3b;" d="M529 21 l403 0 l0 -72 l-884 0 l0 72 l402 0 l0 250 l-319 0 l0 75 l319 0 l0 213 l-360 0 l0 74 l368 0 q-12 43 -28 90 q-16 47 -23 64 l75 19 q9 -18 26.5 -75 q17.5 -57 29.5 -98 l352 0 l0 -74 l-361 0 l0 -213 l320 0 l0 -75 l-320 0 l0 -250 Z" /><glyph glyph-name="uni4E45" unicode="&#x4e45;" d="M939 -14 l-55 -77 q-131 91 -215.5 178.5 q-84.5 87.5 -142.5 194.5 q-74 -102 -179.5 -193 q-105.5 -91 -256.5 -185 l-53 70 q225 125 356.5 271.5 q131.5 146.5 199.5 340.5 l-264 0 q-80 -143 -198 -269 l-54 59 q88 94 156 205 q68 111 113 232 l81 -17 q-25 -67 -57 -133 l312 0 l0 -75 q-45 -128 -107 -232 q57 -113 149.5 -206.5 q92.5 -93.5 214.5 -163.5 Z" /><glyph glyph-name="uni4E48" unicode="&#x4e48;" d="M515 749 q-72 -123 -182.5 -255 q-110.5 -132 -214.5 -221 l-57 62 q105 86 211 213 q106 127 172 245 l71 -44 ZM832 -96 q-18 44 -47 100 q-458 -19 -543 -25 q-60 -7 -87 -11 l-20 81 q28 8 44.5 17 q16.5 9 36.5 26 q98 83 232.5 248 q134.5 165 218.5 309 l75 -44 q-87 -142 -218 -301 q-131 -159 -230 -246 l449 23 q-76 133 -138 211 l64 45 q52 -66 125.5 -184 q73.5 -118 107.5 -192 l-70 -57 Z" /><glyph glyph-name="uni4E49" unicode="&#x4e49;" d="M517 527 q-27 58 -67 125.5 q-40 67.5 -74 112.5 l64 42 q32 -42 74 -110 q42 -68 68 -117 l-65 -53 ZM894 -96 q-127 58 -223 115 q-96 57 -171 122 q-73 -65 -172 -122.5 q-99 -57.5 -237 -117.5 l-51 75 q133 54 229.5 107.5 q96.5 53.5 168.5 116.5 q-89 92 -154.5 212 q-65.5 120 -123.5 290 l74 30 q54 -160 116.5 -274.5 q62.5 -114.5 145.5 -200.5 q80 87 135 205 q55 118 94 286 l77 -29 q-45 -182 -102 -306 q-57 -124 -141 -215 q72 -60 164 -111.5 q92 -51.5 214 -100.5 l-43 -82 Z" /><glyph glyph-name="uni4E4B" unicode="&#x4e4b;" d="M708 28 q100 0 232 5 l-22 -73 q-110 -6 -222 -6 q-80 0 -158 3 q-91 4 -139.5 10.5 q-48.5 6.5 -84 24 q-35.5 17.5 -68.5 52.5 q-32 38 -46 38 q-8 0 -15.5 -6.5 q-7.5 -6.5 -25.5 -27.5 q-52 -62 -71 -89 l-61 56 q52 60 100 123 q17 23 32.5 30.5 q15.5 7.5 35.5 7.5 q14 0 24 -5 q139 75 280 182 q141 107 237 202 l-602 0 l0 75 l337 0 q-7 35 -19.5 81.5 q-12.5 46.5 -22.5 77.5 l74 15 q10 -31 25.5 -86.5 q15.5 -55.5 21.5 -87.5 l296 0 l0 -75 q-99 -108 -256.5 -232 q-157.5 -124 -308.5 -207 q31 -35 62 -52 q31 -17 72 -23.5 q41 -6.5 116 -9.5 q90 -3 177 -3 Z" /><glyph glyph-name="uni4E58" unicode="&#x4e58;" d="M525 295 q68 -99 169 -169 q101 -70 246 -126 l-37 -65 q-252 106 -378 267 l0 -309 l-72 0 l0 310 q-65 -83 -149 -142.5 q-84 -59.5 -221 -127.5 l-42 63 q163 74 254.5 139 q91.5 65 157.5 162 l0 230 l-373 0 l0 64 l373 0 l0 90 q-151 -7 -288 -7 l-11 61 q139 0 338 10 q199 10 317 25 l7 -62 q-107 -13 -291 -23 l0 -94 l374 0 l0 -64 l-374 0 l0 -232 ZM75 253 q40 8 99.5 24.5 q59.5 16.5 108.5 32.5 l0 60 l-180 0 l0 58 l180 0 l0 69 l66 -3 l0 -295 l-66 0 l0 49 q-91 -32 -189 -58 l-19 63 ZM627 497 l66 -3 l0 -95 q76 29 157 75 l23 -50 q-31 -19 -83.5 -43.5 q-52.5 -24.5 -96.5 -40.5 l0 -46 q0 -23 9 -32 q9 -9 33 -11 l19 -1 q39 0 55.5 7 q16.5 7 20.5 23 q3 14 6 34 q3 20 4 29 l54 -17 l-3 -21 q-3 -40 -11 -66 q-13 -47 -99 -50 l-32 -1 l-32 1 q-46 2 -68 24.5 q-22 22.5 -22 71.5 l0 212 Z" /><glyph glyph-name="uni4E5F" unicode="&#x4e5f;" d="M930 144 l-3 -27 q-1 -6 -5.5 -40.5 q-4.5 -34.5 -14.5 -63.5 q-11 -32 -44.5 -50 q-33.5 -18 -100.5 -23 q-102 -8 -223 -8 q-122 0 -224 8 q-54 4 -83.5 17 q-29.5 13 -44 44 q-14.5 31 -14.5 89 l0 319 l-118 -30 l-14 73 l132 33 l0 200 l77 -3 l0 -178 l206 52 l0 249 l76 -3 l0 -227 l300 75 q-2 -63 -7.5 -170 q-5.5 -107 -9.5 -169 q-3 -42 -16 -63.5 q-13 -21.5 -37.5 -31 q-24.5 -9.5 -73.5 -16.5 l-46 -8 l-27 75 l44 7 q36 5 52 11 q16 6 23 19 q7 13 9 40 l10 211 l-221 -56 l0 -404 l-76 0 l0 385 l-206 -52 l0 -334 q0 -31 6.5 -47 q6.5 -16 23 -22.5 q16.5 -6.5 48.5 -9.5 q84 -7 212 -7 q122 0 200 7 q51 4 73 16 q22 12 27 38 q12 54 13 105 l77 -30 Z" /><glyph glyph-name="uni4E60" unicode="&#x4e60;" d="M848 730 q-2 -27 -5 -149 q-16 -453 -18 -490 q-4 -62 -23 -94.5 q-19 -32.5 -61.5 -47.5 q-42.5 -15 -126.5 -21 l-78 -6 l-29 79 l101 6 q55 3 82 13 q27 10 38.5 33 q11.5 23 14.5 68 q3 38 10.5 238.5 q7.5 200.5 10.5 292.5 l-667 0 l0 78 l751 0 ZM234 608 q57 -31 146.5 -94 q89.5 -63 134.5 -105 l-48 -77 q-45 49 -133 114.5 q-88 65.5 -149 99.5 l49 62 ZM71 128 q121 39 313.5 121 q192.5 82 302.5 141 l11 -44 l8 -34 q-105 -56 -293.5 -138.5 q-188.5 -82.5 -304.5 -122.5 l-37 77 Z" /><glyph glyph-name="uni4E66" unicode="&#x4e66;" d="M772 648 l-25 -281 l141 0 q-1 -37 -23 -252 q-5 -44 -23.5 -70 q-18.5 -26 -57.5 -39 q-39 -13 -107 -17 l-67 -4 l-28 76 l89 4 q46 2 70 9.5 q24 7.5 35 23.5 q11 16 15 46 q11 95 16 150 l-385 0 l0 -395 l-76 0 l0 395 l-297 0 l0 73 l297 0 l0 208 l-234 0 l0 73 l234 0 l0 161 l76 -2 l0 -159 l350 0 ZM878 567 q-35 42 -104 98.5 q-69 56.5 -117 85.5 l45 55 q43 -25 113.5 -81 q70.5 -56 110.5 -95 l-48 -63 ZM692 575 l-270 0 l0 -208 l252 0 l18 208 Z" /><glyph glyph-name="uni4E70" unicode="&#x4e70;" d="M784 487 l-68 29 l79 157 l-684 0 l0 70 l763 0 l0 -71 l-90 -185 ZM925 187 l-351 0 q-5 -20 -15 -41 q82 -36 183.5 -86.5 q101.5 -50.5 163.5 -87.5 l-33 -73 q-67 42 -169.5 96.5 q-102.5 54.5 -180.5 90.5 q-48 -61 -143 -103 q-95 -42 -266 -82 l-30 72 q131 27 212 57 q81 30 127 67.5 q46 37.5 68 89.5 l-432 0 l0 69 l451 0 q6 32 8.5 71 q2.5 39 4.5 101 q4 160 4 205 l77 -4 q0 -51 -4 -211 q-4 -113 -11 -162 l336 0 l0 -69 ZM426 454 q-43 29 -106 60.5 q-63 31.5 -116 52.5 l32 62 q50 -20 110.5 -49.5 q60.5 -29.5 109.5 -58.5 l-30 -67 ZM154 481 q53 -21 131 -59.5 q78 -38.5 123 -65.5 l-29 -65 q-54 32 -131.5 71 q-77.5 39 -125.5 57 l32 62 Z" /><glyph glyph-name="uni4E71" unicode="&#x4e71;" d="M919 149 q-2 -79 -16 -146 q-7 -36 -35.5 -53.5 q-28.5 -17.5 -89.5 -19.5 q-12 -1 -37 -1 q-25 0 -38 1 q-46 2 -72 13.5 q-26 11.5 -37.5 38.5 q-11.5 27 -11.5 77 l0 733 l73 -2 l0 -717 q0 -29 6.5 -43 q6.5 -14 19.5 -19.5 q13 -5.5 39 -7.5 q21 -2 42 0 q39 2 54 12 q15 10 20 38 q11 54 11 122 l72 -26 ZM319 514 l200 0 l0 -72 l-200 0 l0 -148 l145 0 l0 -355 l-361 0 l0 355 l145 0 l0 148 l-203 0 l0 72 l203 0 l0 139 q-116 -14 -178 -18 l-13 72 q93 5 216.5 21.5 q123.5 16.5 202.5 35.5 l12 -72 q-82 -17 -169 -29 l0 -149 ZM174 10 l219 0 l0 213 l-219 0 l0 -213 Z" /><glyph glyph-name="uni4E86" unicode="&#x4e86;" d="M99 735 l763 0 l0 -75 l-325 -239 l0 -375 q0 -47 -12 -70.5 q-12 -23.5 -41 -33.5 q-29 -10 -88 -15 l-80 -7 l-26 79 l80 5 q39 3 55.5 8 q16.5 5 23 19 q6.5 14 6.5 45 l0 385 l274 199 l-630 0 l0 75 Z" /><glyph glyph-name="uni4E88" unicode="&#x4e88;" d="M546 428 l360 0 l0 -71 q-72 -125 -141 -216 l-70 42 q30 36 65 85.5 q35 49.5 58 88.5 l-285 0 l0 -328 q0 -43 -11 -66 q-11 -23 -38.5 -33.5 q-27.5 -10.5 -80.5 -14.5 l-68 -5 l-26 78 l78 4 q34 2 47.5 7 q13.5 5 18 17.5 q4.5 12.5 4.5 42.5 l0 298 l-396 0 l0 71 l429 0 q-47 41 -111.5 89.5 q-64.5 48.5 -109.5 77.5 l42 57 q57 -37 174 -128 q85 61 208 161 l-540 0 l0 70 l662 0 l0 -70 l-38 -30 q-181 -142 -231 -179 l24 -21 l-24 -27 Z" /><glyph glyph-name="uni4E8B" unicode="&#x4e8b;" d="M923 251 l0 -59 l-86 0 l0 -127 l-309 0 l0 -48 q0 -39 -11 -59.5 q-11 -20.5 -36.5 -30 q-25.5 -9.5 -73.5 -12.5 l-64 -5 l-27 70 l90 4 q28 2 36.5 4.5 q8.5 2.5 11.5 11.5 q3 9 3 34 l0 31 l-336 0 l0 58 l336 0 l0 69 l-406 0 l0 59 l406 0 l0 63 l-336 0 l0 58 l336 0 l0 60 l-291 0 l0 177 l291 0 l0 62 l-404 0 l0 62 l404 0 l0 71 l71 -4 l0 -67 l393 0 l0 -62 l-393 0 l0 -62 l288 0 l0 -177 l-288 0 l0 -60 l309 0 l0 -121 l86 0 ZM238 554 l0 -67 l219 0 l0 67 l-219 0 ZM744 487 l0 67 l-216 0 l0 -67 l216 0 ZM767 314 l-239 0 l0 -63 l239 0 l0 63 ZM528 123 l239 0 l0 69 l-239 0 l0 -69 Z" /><glyph glyph-name="uni4E8C" unicode="&#x4e8c;" d="M157 684 l670 0 l0 -80 l-670 0 l0 80 ZM70 70 l846 0 l0 -78 l-846 0 l0 78 Z" /><glyph glyph-name="uni4E8E" unicode="&#x4e8e;" d="M916 424 l0 -73 l-376 0 l0 -301 q0 -48 -10.5 -72 q-10.5 -24 -38.5 -35 q-28 -11 -85 -16 l-101 -8 l-24 77 l94 5 q36 2 53 8.5 q17 6.5 23 20.5 q6 14 6 43 l0 278 l-395 0 l0 73 l395 0 l0 240 l-314 0 l0 74 l693 0 l0 -74 l-296 0 l0 -240 l376 0 Z" /><glyph glyph-name="uni4E92" unicode="&#x4e92;" d="M775 494 l-35 -485 l197 0 l0 -72 l-895 0 l0 72 l618 0 l12 151 l-474 0 l79 482 l-186 0 l0 74 l800 0 l0 -74 l-535 0 l-26 -148 l445 0 ZM317 419 l-31 -184 l392 0 l15 184 l-376 0 Z" /><glyph glyph-name="uni4E94" unicode="&#x4e94;" d="M773 437 l-15 -395 l174 0 l0 -71 l-884 0 l0 71 l212 0 l56 323 l-197 0 l0 72 l210 0 l38 222 l-268 0 l0 74 l789 0 l0 -74 l-441 0 l-38 -222 l364 0 ZM690 365 l-294 0 l-56 -323 l338 0 l12 323 Z" /><glyph glyph-name="uni4E9B" unicode="&#x4e9b;" d="M60 341 q32 5 34 5 l42 6 l0 367 l73 -3 l0 -351 q21 3 39 6.5 q18 3.5 33 5.5 l36 6 l0 418 l73 -3 l0 -169 l137 0 l0 -67 l-137 0 l0 -166 l25 5 q58 9 109 20 l2 -38 l4 -38 q-94 -17 -458 -77 l-12 73 ZM552 396 l0 404 l75 -2 l0 -205 q59 25 127 62.5 q68 37.5 108 66.5 l32 -72 q-42 -27 -119 -65.5 q-77 -38.5 -148 -70.5 l0 -93 q0 -39 13.5 -52 q13.5 -13 47.5 -15 q15 -1 41 -1 q26 0 41 1 q34 2 49 11 q15 9 21 27 q9 28 14 76 l68 -24 q-7 -62 -20 -104 q-8 -24 -32 -36.5 q-24 -12.5 -77 -16.5 q-37 -3 -71 -3 q-34 0 -72 3 q-52 4 -75 27.5 q-23 23.5 -23 81.5 ZM802 132 l-623 0 l0 73 l623 0 l0 -73 ZM919 -49 l-855 0 l0 71 l855 0 l0 -71 Z" /><glyph glyph-name="uni4EA4" unicode="&#x4ea4;" d="M906 678 l0 -75 l-833 0 l0 75 l396 0 q-14 49 -43 115 l68 20 q11 -23 28.5 -66.5 q17.5 -43.5 25.5 -68.5 l358 0 ZM849 280 q-47 54 -137 128.5 q-90 74.5 -149 110.5 l45 57 q58 -35 148 -105.5 q90 -70.5 138 -118.5 l-45 -72 ZM83 340 q73 49 142 110 q69 61 123 124 l55 -51 q-57 -65 -129.5 -130.5 q-72.5 -65.5 -146.5 -118.5 l-44 66 ZM908 -93 q-139 41 -238 84.5 q-99 43.5 -175 101.5 q-73 -57 -173 -102 q-100 -45 -250 -92 l-37 74 q138 38 234.5 79 q96.5 41 165.5 92 q-87 83 -157 209 l64 38 q69 -127 149 -200 q79 76 138 199 l74 -32 q-66 -131 -152 -217 q70 -48 163.5 -84.5 q93.5 -36.5 228.5 -68.5 l-35 -81 Z" /><glyph glyph-name="uni4EA7" unicode="&#x4ea7;" d="M928 613 l-187 0 q-25 -82 -64 -178 l218 0 l0 -73 l-669 0 l0 -85 q0 -127 -28 -215 q-28 -88 -97 -175 l-71 41 q70 81 96 160 q26 79 26 204 l0 143 l176 0 q-32 114 -57 178 l-194 0 l0 73 l395 0 q-21 72 -36 110 l74 14 q14 -34 43 -124 l375 0 l0 -73 ZM596 435 q34 74 65 178 l-309 0 q32 -95 56 -178 l188 0 Z" /><glyph glyph-name="uni4EAB" unicode="&#x4eab;" d="M909 710 l0 -64 l-839 0 l0 64 l386 0 q-19 62 -29 86 l74 14 q15 -38 35 -100 l373 0 ZM789 581 l0 -183 l-598 0 l0 183 l598 0 ZM717 526 l-455 0 l0 -71 l455 0 l0 71 ZM933 163 l0 -64 l-405 0 l0 -76 q0 -44 -8.5 -65 q-8.5 -21 -29.5 -30 q-21 -9 -65 -13 l-73 -6 l-26 69 l72 7 q27 3 38 7 q11 4 14.5 15 q3.5 11 3.5 38 l0 54 l-407 0 l0 64 l407 0 l0 39 l208 74 l-525 0 l0 63 l677 0 l0 -68 l-286 -103 l0 -5 l405 0 Z" /><glyph glyph-name="uni4EAC" unicode="&#x4eac;" d="M914 691 l0 -68 l-843 0 l0 68 l391 0 q-22 73 -35 105 l74 14 q19 -45 41 -119 l372 0 ZM794 250 l-252 0 l0 -226 q0 -46 -8.5 -67.5 q-8.5 -21.5 -30.5 -30 q-22 -8.5 -70 -12.5 l-67 -6 l-25 74 l66 5 q27 2 38 7.5 q11 5.5 14.5 16.5 q3.5 11 3.5 37 l0 202 l-275 0 l0 280 l606 0 l0 -280 ZM718 462 l-455 0 l0 -144 l455 0 l0 144 ZM30 -6 q59 34 136 96.5 q77 62.5 113 109.5 l56 -51 q-43 -50 -111 -108 q-68 -58 -142 -107 l-52 60 ZM692 196 q65 -46 137 -103 q72 -57 119 -103 l-46 -62 q-42 45 -121.5 112.5 q-79.5 67.5 -133.5 103.5 l45 52 Z" /><glyph glyph-name="uni4EAE" unicode="&#x4eae;" d="M908 713 l0 -65 l-835 0 l0 65 l387 0 q-16 53 -29 84 l74 14 q18 -44 35 -98 l368 0 ZM203 400 l0 184 l577 0 l0 -184 l-577 0 ZM277 456 l429 0 l0 72 l-429 0 l0 -72 ZM173 176 l-71 0 l0 163 l779 0 l0 -164 l-72 0 l0 103 l-636 0 l0 -102 ZM838 108 l69 -28 q-9 -68 -18 -100 q-7 -28 -33.5 -42 q-26.5 -14 -81.5 -14 l-78 0 q-58 0 -80.5 20 q-22.5 20 -22.5 74 l0 123 l-232 0 l0 -33 q0 -49 -24.5 -86 q-24.5 -37 -83.5 -67.5 q-59 -30.5 -162 -56.5 l-33 70 q99 22 148 45 q49 23 65.5 53.5 q16.5 30.5 16.5 82.5 l0 58 l380 0 l0 -166 q0 -29 10 -38 q10 -9 41 -9 l43 0 q31 0 45 8.5 q14 8.5 19 27.5 q9 37 12 78 Z" /><glyph glyph-name="uni4EB2" unicode="&#x4eb2;" d="M917 473 l0 -70 l-376 0 l0 -121 l347 0 l0 -69 l-347 0 l0 -182 q0 -43 -11.5 -66 q-11.5 -23 -39 -33.5 q-27.5 -10.5 -81.5 -14.5 l-52 -4 l-26 77 l62 4 q34 2 47.5 7 q13.5 5 18 17 q4.5 12 4.5 42 l0 153 l-371 0 l0 69 l371 0 l0 121 l-403 0 l0 70 l259 0 q-16 78 -38 154 l-170 0 l0 70 l354 0 q-18 60 -34 100 l74 14 q19 -43 40 -114 l323 0 l0 -70 l-152 0 q-17 -72 -44 -154 l245 0 ZM358 627 l33 -125 q2 -10 4 -17 q2 -7 3 -12 l194 0 q26 65 46 154 l-280 0 ZM345 134 q-40 -42 -118.5 -106 q-78.5 -64 -131.5 -99 l-44 60 q47 27 125.5 91 q78.5 64 118.5 106 l50 -52 ZM661 179 q52 -27 132 -81 q80 -54 122 -92 l-43 -70 q-40 43 -117.5 99 q-77.5 56 -133.5 86 l40 58 Z" /><glyph glyph-name="uni4EBA" unicode="&#x4eba;" d="M923 -29 l-56 -68 q-290 233 -377 527 q-39 -149 -132 -276 q-93 -127 -247 -243 l-55 65 q141 102 225.5 207 q84.5 105 123.5 228.5 q39 123.5 41 284.5 q2 32 2 96 l75 -3 q0 -72 -2 -122 q0 -19 -1 -28 q19 -210 119.5 -371.5 q100.5 -161.5 283.5 -296.5 Z" /><glyph glyph-name="uni4EC0" unicode="&#x4ec0;" d="M356 795 q-39 -108 -85 -200 l0 -688 l-74 0 l0 553 q-54 -88 -114 -164 l-59 48 q74 89 145 219 q71 130 111 252 l76 -20 ZM677 466 l263 0 l0 -76 l-263 0 l0 -487 l-79 0 l0 487 l-263 0 l0 76 l263 0 l0 337 l79 -3 l0 -334 Z" /><glyph glyph-name="uni4EC5" unicode="&#x4ec5;" d="M333 780 q-33 -110 -80 -210 l0 -670 l-73 0 l0 537 q-50 -80 -105 -150 l-58 49 q76 94 138.5 214 q62.5 120 99.5 247 l78 -17 ZM945 -32 l-49 -71 q-178 115 -286 243 q-103 -111 -281 -235 l-59 65 q189 116 294 230 q-65 92 -108.5 204 q-43.5 112 -68.5 254 l-38 0 l0 76 l513 0 l0 -75 q-28 -141 -75 -250.5 q-47 -109.5 -121 -204.5 q97 -115 279 -236 ZM463 658 q26 -124 63.5 -219 q37.5 -95 92.5 -175 q64 83 103 178.5 q39 95.5 61 215.5 l-320 0 Z" /><glyph glyph-name="uni4ECA" unicode="&#x4eca;" d="M25 439 q143 73 253 168 q110 95 178 204 l71 0 q140 -231 423 -370 l-47 -69 q-144 85 -247.5 174 q-103.5 89 -165.5 188 q-64 -98 -172.5 -192 q-108.5 -94 -242.5 -168 l-50 65 ZM436 563 q30 -31 74.5 -87 q44.5 -56 66.5 -90 l-57 -57 q-21 39 -63.5 96.5 q-42.5 57.5 -73.5 89.5 l53 48 ZM138 309 l649 0 l0 -72 q-128 -196 -260 -339 l-75 45 q141 139 236 293 l-550 0 l0 73 Z" /><glyph glyph-name="uni4ECB" unicode="&#x4ecb;" d="M26 407 q153 79 258.5 177 q105.5 98 169.5 222 l70 0 q72 -132 176 -229.5 q104 -97.5 248 -166.5 l-46 -74 q-140 83 -242.5 175.5 q-102.5 92.5 -169.5 209.5 q-75 -120 -175 -212.5 q-100 -92.5 -237 -171.5 l-52 70 ZM604 446 l81 -3 l0 -542 l-81 0 l0 545 ZM99 -46 q83 58 123 103 q40 45 56 100 q16 55 16 146 l0 141 l79 -3 l0 -131 q0 -107 -19 -176.5 q-19 -69.5 -66.5 -125.5 q-47.5 -56 -138.5 -117 l-50 63 Z" /><glyph glyph-name="uni4ECE" unicode="&#x4ece;" d="M889 -104 q-95 110 -155.5 220.5 q-60.5 110.5 -91.5 246.5 q-28 -121 -89.5 -231 q-61.5 -110 -170.5 -231 l-69 57 q114 113 174.5 217 q60.5 104 85.5 218.5 q25 114.5 30 278.5 q2 40 2 128 l76 -4 q0 -64 -2 -124 l-3 -60 q12 -213 78.5 -368 q66.5 -155 195.5 -289 l-61 -59 ZM443 196 q-20 42 -55 101 q-35 59 -70 110 q-20 -136 -67 -243.5 q-47 -107.5 -138 -242.5 l-73 48 q87 122 131.5 214 q44.5 92 65 199.5 q20.5 107.5 24.5 272.5 q1 27 3 78 q2 51 1 66 l75 -4 q0 -30 -1 -72.5 q-1 -42.5 -2 -69.5 q-1 -53 -7 -136 q41 -51 93 -129.5 q52 -78.5 79 -130.5 l-59 -61 Z" /><glyph glyph-name="uni4ED3" unicode="&#x4ed3;" d="M20 437 q140 70 251 166.5 q111 96.5 179 201.5 l78 0 q70 -106 177.5 -196.5 q107.5 -90.5 249.5 -158.5 l-47 -74 q-121 62 -235 158 q-114 96 -183 193 q-76 -103 -183 -195 q-107 -92 -235 -163 l-52 68 ZM723 469 q-1 -36 -3 -95.5 q-2 -59.5 -2 -96.5 q0 -51 -15.5 -79.5 q-15.5 -28.5 -53.5 -42 q-38 -13.5 -109 -16.5 l-69 -4 l-30 79 l91 2 q46 2 69.5 9 q23.5 7 32.5 23.5 q9 16.5 10 47.5 q1 21 2 52 q1 31 1 51 l-345 0 l0 -310 q0 -39 6 -58 q6 -19 25.5 -28 q19.5 -9 60.5 -11 q46 -2 139 -2 q92 0 138 2 q51 1 74 13 q23 12 28 36 q11 51 14 106 l78 -33 q-11 -81 -24 -129 q-9 -33 -41 -49 q-32 -16 -109 -18 q-52 -2 -157 -2 q-104 0 -157 2 q-58 2 -89.5 14.5 q-31.5 12.5 -45.5 44 q-14 31.5 -14 91.5 l0 401 l495 0 Z" /><glyph glyph-name="uni4ED4" unicode="&#x4ed4;" d="M332 784 q-34 -116 -87 -225 l0 -655 l-76 0 l0 519 q-42 -65 -91 -128 l-58 49 q76 94 136 211 q60 117 98 246 l78 -17 ZM941 388 l0 -76 l-268 0 l0 -279 q0 -42 -11 -63.5 q-11 -21.5 -37 -31 q-26 -9.5 -78 -14.5 l-73 -7 l-25 77 l73 6 q34 3 48 7.5 q14 4.5 18.5 16 q4.5 11.5 4.5 38.5 l0 250 l-283 0 l0 76 l283 0 l0 114 l182 161 l-387 0 l0 76 l496 0 l0 -75 l-211 -191 l0 -85 l268 0 Z" /><glyph glyph-name="uni4ED6" unicode="&#x4ed6;" d="M928 121 q-1 -10 -4.5 -50 q-3.5 -40 -11.5 -72 q-7 -31 -36.5 -47 q-29.5 -16 -98.5 -18 q-45 -2 -137 -2 q-92 0 -137 2 q-50 2 -78 13.5 q-28 11.5 -41 39 q-13 27.5 -13 76.5 l0 342 l-86 -28 l-16 70 l102 33 l0 221 l71 -2 l0 -197 l128 41 l0 258 l71 -2 l0 -233 l218 69 l-4 -118 q-4 -179 -7 -227 q-4 -56 -29 -78 q-25 -22 -87 -27 l-39 -4 l-21 70 l48 6 q25 3 36 8.5 q11 5.5 15.5 18 q4.5 12.5 5.5 38.5 l8 217 l-144 -47 l0 -397 l-71 0 l0 374 l-128 -41 l0 -343 q0 -35 6 -51 q6 -16 24 -22.5 q18 -6.5 56 -8.5 q72 -2 109 -2 q37 0 109 2 q52 2 74 11.5 q22 9.5 26 31.5 q9 42 11 98 l71 -23 ZM328 769 q-39 -125 -83 -218 l0 -646 l-69 0 l0 519 q-42 -67 -94 -134 l-58 49 q155 195 229 447 l75 -17 Z" /><glyph glyph-name="uni4ED8" unicode="&#x4ed8;" d="M344 778 q-33 -101 -80 -201 l0 -667 l-78 0 l0 523 q-43 -70 -103 -148 l-63 53 q177 216 248 455 l76 -15 ZM935 603 l0 -76 l-159 0 l0 -492 q0 -42 -9 -64.5 q-9 -22.5 -31.5 -33.5 q-22.5 -11 -66.5 -16 l-92 -11 l-26 76 l107 12 q24 2 31 13 q7 11 7 42 l0 474 l-375 0 l0 76 l375 0 l0 187 l80 -4 l0 -183 l159 0 ZM440 448 q32 -42 78.5 -113 q46.5 -71 68.5 -116 l-63 -55 q-30 65 -72.5 136.5 q-42.5 71.5 -73.5 109.5 l62 38 Z" /><glyph glyph-name="uni4EE3" unicode="&#x4ee3;" d="M851 155 l63 -45 q-23 -87 -44 -132 q-18 -41 -43 -55.5 q-25 -14.5 -61 -14.5 q-37 0 -70 21.5 q-33 21.5 -68 73.5 q-85 127 -118 416 l-196 -18 l-7 72 l195 18 q-6 69 -8 118 l-10 191 l77 0 q3 -106 8 -194 q2 -43 8 -108 l340 32 l6 -73 l-338 -31 q17 -138 45 -234.5 q28 -96.5 61 -142.5 q22 -31 39 -42.5 q17 -11.5 36 -11.5 q19 0 31 9 q12 9 22 34 q20 49 32 117 ZM363 779 q-39 -109 -90 -209 l0 -669 l-74 0 l0 538 q-52 -83 -120 -170 l-54 56 q77 88 148 216 q71 128 112 253 l78 -15 ZM802 556 q-24 33 -74.5 79 q-50.5 46 -89.5 76 l43 53 q31 -21 83.5 -67 q52.5 -46 84.5 -79 l-47 -62 Z" /><glyph glyph-name="uni4EE4" unicode="&#x4ee4;" d="M526 802 q66 -104 173.5 -195 q107.5 -91 251.5 -161 l-43 -69 q-136 72 -246.5 162.5 q-110.5 90.5 -171.5 186.5 q-65 -95 -173 -184 q-108 -89 -244 -164 l-48 68 q138 67 247.5 158.5 q109.5 91.5 182.5 197.5 l71 0 ZM445 578 q30 -29 71.5 -78 q41.5 -49 60.5 -80 l-57 -57 q-20 36 -61 88 q-41 52 -71 82 l57 45 ZM128 273 l0 71 l678 4 l0 -78 q-122 -136 -232 -228 q83 -42 131 -72 l-38 -77 q-72 54 -212 123 q-140 69 -242 106 l34 67 q93 -34 252 -109 q101 83 202 193 l-573 0 Z" /><glyph glyph-name="uni4EE5" unicode="&#x4ee5;" d="M487 475 q-35 77 -78.5 152 q-43.5 75 -78.5 121 l60 36 q34 -42 79 -115.5 q45 -73.5 81 -143.5 l-63 -50 ZM939 -6 l-55 -63 q-36 58 -86 118 q-50 60 -96 103 q-44 -67 -117.5 -126.5 q-73.5 -59.5 -188.5 -122.5 l-49 67 q144 76 222 152.5 q78 76.5 112 172 q34 95.5 43 241.5 q4 58 4 242 l77 -3 l0 -76 q0 -126 -3 -169 q-6 -102 -21 -177.5 q-15 -75.5 -43 -136.5 q54 -49 107.5 -107.5 q53.5 -58.5 93.5 -114.5 ZM453 332 l46 -64 q-57 -46 -143 -117.5 q-86 -71.5 -147 -123.5 q-44 -38 -68 -65 l-51 61 q20 21 28 34.5 q8 13.5 8 30.5 l0 667 l77 -3 l0 -629 l250 209 Z" /><glyph glyph-name="uni4EEC" unicode="&#x4eec;" d="M422 808 q27 -24 67.5 -73 q40.5 -49 61.5 -80 l-52 -57 q-18 34 -58 85 q-40 51 -68 79 l49 46 ZM311 792 q-32 -104 -77 -210 l0 -672 l-68 0 l0 532 q-42 -78 -90 -147 l-55 52 q62 83 124.5 213 q62.5 130 94.5 246 l71 -14 ZM567 737 l314 0 l0 -687 q0 -55 -12 -82 q-12 -27 -41.5 -38 q-29.5 -11 -90.5 -16 l-50 -4 l-25 73 l62 4 q38 3 55 9.5 q17 6.5 23 22.5 q6 16 6 51 l0 596 l-241 0 l0 71 ZM426 -84 l-73 0 l0 704 l73 -2 l0 -702 Z" /><glyph glyph-name="uni4EF6" unicode="&#x4ef6;" d="M941 286 l0 -72 l-265 0 l0 -313 l-76 0 l0 313 l-295 0 l0 72 l295 0 l0 236 l-147 0 q-28 -90 -65 -170 l-75 27 q38 81 70 182 q32 101 49 196 l75 -16 q-13 -75 -33 -147 l126 0 l0 213 l76 -4 l0 -209 l223 0 l0 -72 l-223 0 l0 -236 l265 0 ZM321 773 q-33 -107 -71 -190 l0 -680 l-73 0 l0 540 q-46 -78 -102 -151 l-58 49 q154 204 226 448 l78 -16 Z" /><glyph glyph-name="uni4EF7" unicode="&#x4ef7;" d="M630 802 q50 -115 134 -210.5 q84 -95.5 189 -154.5 l-45 -64 q-103 69 -179.5 154.5 q-76.5 85.5 -131.5 192.5 q-53 -113 -114 -191.5 q-61 -78.5 -167 -157.5 l-48 55 q106 75 173.5 167.5 q67.5 92.5 115.5 208.5 l73 0 ZM333 779 q-36 -106 -86 -207 l0 -667 l-73 0 l0 535 q-49 -77 -103 -148 l-55 44 q76 92 141.5 213 q65.5 121 103.5 244 l72 -14 ZM444 440 l73 -4 l0 -134 q0 -103 -14.5 -167 q-14.5 -64 -50 -115.5 q-35.5 -51.5 -108.5 -122.5 l-58 46 q67 61 100 108 q33 47 45.5 103 q12.5 56 12.5 146 l0 140 ZM765 -94 l-75 0 l0 532 l75 -4 l0 -528 Z" /><glyph glyph-name="uni4EFB" unicode="&#x4efb;" d="M327 776 q-34 -107 -75 -194 l0 -674 l-74 0 l0 537 q-41 -67 -100 -146 l-62 48 q167 220 233 446 l78 -17 ZM938 325 l-281 0 l0 -291 l252 0 l0 -73 l-576 0 l0 73 l246 0 l0 291 l-272 0 l0 76 l272 0 l0 242 q-130 -17 -227 -20 l-15 74 q100 4 264.5 25.5 q164.5 21.5 268.5 42.5 l16 -75 q-79 -16 -229 -37 l0 -252 l281 0 l0 -76 Z" /><glyph glyph-name="uni4EFD" unicode="&#x4efd;" d="M696 805 q36 -124 97.5 -220 q61.5 -96 155.5 -179 l-61 -54 q-84 83 -155 194.5 q-71 111.5 -108 240.5 l71 18 ZM322 781 q-34 -116 -77 -213 l0 -667 l-70 0 l0 531 q-50 -81 -101 -146 l-56 51 q71 89 134 213.5 q63 124.5 99 246.5 l71 -16 ZM572 761 q-70 -184 -201 -343 l445 0 q-3 -62 -8.5 -173 q-5.5 -111 -9.5 -181 q-3 -53 -20.5 -82.5 q-17.5 -29.5 -51 -42.5 q-33.5 -13 -90.5 -17 l-52 -4 l-28 77 l74 5 q38 2 56 11 q18 9 25.5 29 q7.5 20 11.5 61 q4 48 8 123 q4 75 6 120 l-196 0 l-1 -23 q-5 -103 -25.5 -173 q-20.5 -70 -64 -128.5 q-43.5 -58.5 -121.5 -126.5 l-64 55 q77 57 117.5 106.5 q40.5 49.5 59.5 111 q19 61.5 25 157.5 l2 21 l-98 0 l0 74 q-34 -40 -51 -58 l-56 49 q78 74 136 168 q58 94 95 201 l77 -17 Z" /><glyph glyph-name="uni4F01" unicode="&#x4f01;" d="M72 371 l-47 68 q137 73 251 169 q114 96 180 191 l70 0 q70 -100 180 -193 q110 -93 247 -166 l-48 -69 q-147 90 -248 175.5 q-101 85.5 -166 176.5 q-62 -86 -177 -182 q-115 -96 -242 -170 ZM822 245 l-279 0 l0 -228 l369 0 l0 -70 l-857 0 l0 70 l142 0 l0 366 l74 -3 l0 -363 l196 0 l0 518 l76 -3 l0 -213 l279 0 l0 -74 Z" /><glyph glyph-name="uni4F17" unicode="&#x4f17;" d="M94 387 l-48 69 q292 147 411 337 l71 0 q63 -100 165 -182.5 q102 -82.5 243 -154.5 l-46 -70 q-134 71 -232 150.5 q-98 79.5 -165 175.5 q-66 -92 -163.5 -171.5 q-97.5 -79.5 -235.5 -153.5 ZM447 116 q-20 30 -54.5 72.5 q-34.5 42.5 -68.5 78.5 q-22 -97 -71 -182 q-49 -85 -136 -178 l-69 50 q112 112 161.5 210 q49.5 98 59.5 234 l6 88 l74 -5 q0 -18 -2 -44.5 q-2 -26.5 -4 -43.5 q-2 -30 -4 -42 q38 -37 87 -91 q49 -54 74 -88 l-53 -59 ZM934 -34 l-52 -62 q-179 138 -243 319 q-29 -90 -86.5 -167.5 q-57.5 -77.5 -152.5 -161.5 l-59 57 q88 72 141 139 q53 67 79.5 140 q26.5 73 33.5 165 q5 70 5 94 l77 -5 l-6 -92 l-2 -20 q19 -123 85 -222.5 q66 -99.5 180 -183.5 Z" /><glyph glyph-name="uni4F18" unicode="&#x4f18;" d="M336 786 q-38 -119 -87 -224 l0 -657 l-74 0 l0 519 q-48 -78 -98 -138 l-56 51 q75 86 138 209 q63 123 103 254 l74 -14 ZM904 504 l-328 0 q-6 -138 -28.5 -235.5 q-22.5 -97.5 -74 -184 q-51.5 -86.5 -144.5 -181.5 l-64 51 q89 86 136 164 q47 78 68 166 q21 88 28 220 l-187 0 l0 74 l191 0 q2 54 3 121.5 q1 67.5 1 100.5 l77 -3 l-4 -219 l326 0 l0 -74 ZM802 580 q-21 36 -63.5 91.5 q-42.5 55.5 -65.5 77.5 l54 41 q30 -31 69.5 -78.5 q39.5 -47.5 60.5 -78.5 l-55 -53 ZM930 134 q-2 -40 -8 -95 q-5 -41 -16.5 -62.5 q-11.5 -21.5 -33.5 -31.5 q-22 -10 -64 -14 l-93 0 q-37 3 -58.5 13 q-21.5 10 -32 33.5 q-10.5 23.5 -10.5 66.5 l0 417 l75 -3 l0 -394 q0 -26 3.5 -38 q3.5 -12 13 -17 q9.5 -5 31.5 -7 l56 0 q22 2 32.5 6 q10.5 4 16.5 16 q6 12 9 38 q7 52 8 96 l71 -24 Z" /><glyph glyph-name="uni4F1A" unicode="&#x4f1a;" d="M528 802 q65 -92 171 -175.5 q106 -83.5 245 -150.5 l-39 -69 q-118 65 -234.5 153 q-116.5 88 -178.5 170 q-65 -88 -172.5 -173 q-107.5 -85 -241.5 -154 l-41 65 q139 66 246 152 q107 86 174 182 l71 0 ZM239 423 l0 68 l505 0 l0 -68 l-505 0 ZM86 223 l0 70 l809 0 l0 -70 l-426 0 q-40 -55 -87.5 -109 q-47.5 -54 -89.5 -93 l390 14 q-57 69 -103 112 l55 44 q42 -38 107.5 -114 q65.5 -76 99.5 -126 l-55 -59 q-18 31 -52 77 q-113 -3 -271.5 -9.5 q-158.5 -6.5 -202.5 -10.5 q-65 -5 -98 -11 l-15 68 q21 8 32.5 14.5 q11.5 6.5 30.5 20.5 q37 32 82 82 q45 50 83 100 l-289 0 Z" /><glyph glyph-name="uni4F1F" unicode="&#x4f1f;" d="M621 306 l279 0 q-3 -85 -10 -189 q-4 -64 -28.5 -88.5 q-24.5 -24.5 -82.5 -28.5 l-60 -5 l-27 72 l60 5 q25 2 37.5 7.5 q12.5 5.5 17.5 16.5 q5 11 7 33 q6 60 8 106 l-201 0 l0 -333 l-75 0 l0 333 l-233 0 l0 71 l233 0 l0 112 l-178 0 l0 69 l178 0 l0 113 l-203 0 l0 69 l203 0 l0 135 l75 -3 l0 -132 l277 0 l0 -69 l-277 0 l0 -113 l237 0 l0 -69 l-237 0 l0 -112 ZM343 782 q-38 -110 -91 -216 l0 -660 l-74 0 l0 527 q-52 -83 -104 -145 l-56 56 q82 94 149.5 218.5 q67.5 124.5 104.5 234.5 l71 -15 Z" /><glyph glyph-name="uni4F20" unicode="&#x4f20;" d="M935 411 l-400 0 q-19 -62 -36 -107 l345 0 l0 -69 q-52 -89 -138 -196 q79 -39 137 -74 l-31 -82 q-75 55 -204.5 119 q-129.5 64 -223.5 97 l28 66 q98 -33 227 -94 q73 90 114 163 l-334 0 l-1 64 q24 62 39 113 l-163 0 l0 68 l183 0 q18 70 29 117 l-159 0 l0 68 l173 0 q15 74 24 145 l73 -10 q-11 -79 -22 -135 l291 0 l0 -68 l-305 0 q-16 -73 -28 -117 l382 0 l0 -68 ZM338 788 q-36 -106 -86 -207 l0 -684 l-72 0 l0 555 q-46 -74 -110 -154 l-53 54 q68 79 133.5 199.5 q65.5 120.5 111.5 251.5 l76 -15 Z" /><glyph glyph-name="uni4F2A" unicode="&#x4f2a;" d="M885 571 q-3 -91 -10.5 -269.5 q-7.5 -178.5 -11.5 -242.5 q-3 -49 -20.5 -76 q-17.5 -27 -53 -39.5 q-35.5 -12.5 -97.5 -16.5 l-59 -4 l-27 76 l78 3 q40 2 61.5 10 q21.5 8 31.5 26.5 q10 18.5 13 54.5 q8 93 18 403 l-212 0 q-10 -94 -23 -157 l46 46 q35 -31 80.5 -82 q45.5 -51 64.5 -82 l-53 -56 q-61 95 -139 173 q-27 -127 -85 -220 q-58 -93 -174 -209 l-58 54 q100 97 153 169 q53 72 79.5 155 q26.5 83 36.5 209 l-223 0 l0 75 l228 0 q3 55 6.5 125.5 q3.5 70.5 4.5 103.5 l73 -3 q-8 -178 -12 -226 l284 0 ZM320 783 q-28 -97 -73 -204 l0 -672 l-69 0 l0 533 q-45 -81 -97 -150 l-51 50 q63 85 123.5 210.5 q60.5 125.5 94.5 244.5 l72 -12 ZM448 589 q-17 30 -51.5 74 q-34.5 44 -61.5 72 l46 42 q24 -22 60.5 -65 q36.5 -43 55.5 -72 l-49 -51 Z" /><glyph glyph-name="uni4F30" unicode="&#x4f30;" d="M327 783 q-36 -111 -84 -207 l0 -679 l-73 0 l0 547 q-46 -72 -102 -145 l-49 52 q68 83 130 203.5 q62 120.5 100 244.5 l78 -16 ZM926 622 l0 -72 l-276 0 l0 -198 l199 0 l0 -460 l-77 0 l0 67 l-320 0 l0 -67 l-76 0 l0 460 l200 0 l0 198 l-258 0 l0 72 l258 0 l0 175 l74 -3 l0 -172 l276 0 ZM452 31 l320 0 l0 246 l-320 0 l0 -246 Z" /><glyph glyph-name="uni4F3C" unicode="&#x4f3c;" d="M322 787 q-34 -107 -75 -202 l0 -679 l-70 0 l0 535 q-50 -91 -97 -154 l-57 57 q68 86 128 209.5 q60 123.5 96 248.5 l75 -15 ZM618 514 q-18 50 -57 123.5 q-39 73.5 -67 111.5 l58 35 q29 -39 69.5 -108 q40.5 -69 57.5 -110 l-61 -52 ZM888 -76 q-20 43 -62.5 103 q-42.5 60 -86.5 112 q-38 -63 -98 -120 q-60 -57 -155 -124 l-49 64 q130 88 194 160.5 q64 72.5 90.5 167.5 q26.5 95 33.5 261 q2 60 3.5 121.5 q1.5 61.5 0.5 101.5 l74 -2 q1 -38 -4 -223 q-3 -112 -16 -193.5 q-13 -81.5 -40 -145.5 q44 -49 95.5 -117 q51.5 -68 76.5 -111 l-57 -55 ZM643 275 q-17 -13 -97.5 -84 q-80.5 -71 -101.5 -91 l-48 -46 l-50 55 q16 16 21.5 27.5 q5.5 11.5 5.5 25.5 l0 553 l72 -2 l0 -519 l164 152 l34 -71 Z" /><glyph glyph-name="uni4F46" unicode="&#x4f46;" d="M327 778 q-43 -125 -84 -212 l0 -676 l-73 0 l0 539 q-44 -71 -97 -139 l-53 58 q68 81 128 199 q60 118 101 248 l78 -17 ZM384 737 l480 0 l0 -564 l-480 0 l0 564 ZM787 494 l0 170 l-327 0 l0 -170 l327 0 ZM460 422 l0 -173 l327 0 l0 173 l-327 0 ZM301 -55 l0 74 l640 0 l0 -74 l-640 0 Z" /><glyph glyph-name="uni4F4D" unicode="&#x4f4d;" d="M326 793 q-38 -118 -80 -214 l0 -668 l-72 0 l0 527 q-45 -77 -100 -148 l-59 53 q76 103 136 220.5 q60 117.5 96 242.5 l79 -13 ZM914 639 l0 -71 l-584 0 l0 71 l265 0 q-9 32 -26 75.5 q-17 43.5 -28 70.5 l70 20 q10 -21 31.5 -78.5 q21.5 -57.5 30.5 -87.5 l241 0 ZM932 25 l0 -70 l-630 0 l0 70 l314 0 q37 99 80 249.5 q43 150.5 61 244.5 l79 -16 q-20 -93 -63 -236 q-43 -143 -80 -242 l239 0 ZM499 88 q-10 78 -45 204 q-35 126 -66 201 l70 20 q30 -71 65.5 -196.5 q35.5 -125.5 45.5 -200.5 l-70 -28 Z" /><glyph glyph-name="uni4F4E" unicode="&#x4f4e;" d="M324 785 q-33 -103 -82 -207 l0 -678 l-72 0 l0 547 q-49 -76 -104 -146 l-49 52 q70 88 135 212.5 q65 124.5 98 242.5 l74 -23 ZM940 99 q-18 -76 -35 -116 q-12 -30 -31.5 -47 q-19.5 -17 -42.5 -17 q-33 0 -67.5 35 q-34.5 35 -59.5 106 q-39 115 -58 307 l-198 0 l0 -298 q15 13 91 71 q53 40 57 43 l23 -74 q-10 -6 -34 -24 l-27 -20 q34 -41 64 -78.5 q30 -37.5 42 -58.5 l-51 -43 q-33 54 -107 141 l-77 -56 l-45 -35 l-41 61 q20 18 25.5 28.5 q5.5 10.5 5.5 27.5 l0 655 q113 7 244 24 q131 17 245 40 l16 -72 q-76 -17 -178 -32 q3 -139 11 -228 l202 0 l0 -72 l-196 0 q19 -191 55 -290 q24 -69 58 -69 q19 0 31 42 q13 43 20 85 l58 -36 ZM448 439 l192 0 q-8 113 -11 218 q-75 -11 -181 -20 l0 -198 Z" /><glyph glyph-name="uni4F53" unicode="&#x4f53;" d="M675 559 q58 -141 128 -242.5 q70 -101.5 167 -182.5 l-53 -64 q-106 99 -171.5 206 q-65.5 107 -116.5 247 l0 -379 l174 0 l0 -69 l-174 0 l0 -174 l-76 0 l0 174 l-168 0 l0 69 l168 0 l0 366 q-38 -118 -104 -224 q-66 -106 -159 -207 l-56 54 l0 -224 l-73 0 l0 504 q-40 -69 -87 -130 l-56 50 q162 219 228 465 l71 -22 q-35 -118 -83 -222 l0 -419 q90 88 162.5 195.5 q72.5 107.5 113.5 228.5 l-198 0 l0 71 l241 0 l0 170 l76 -3 l0 -167 l271 0 l0 -71 l-225 0 Z" /><glyph glyph-name="uni4F55" unicode="&#x4f55;" d="M310 784 q-34 -117 -78 -218 l0 -668 l-72 0 l0 527 q-41 -68 -88 -130 l-61 47 q66 74 129 202 q63 128 96 254 l74 -14 ZM937 729 l0 -71 l-91 0 l0 -609 q0 -55 -13 -83.5 q-13 -28.5 -47 -41.5 q-34 -13 -102 -16 l-66 -4 l-27 76 l83 4 q43 2 62.5 9 q19.5 7 27 24 q7.5 17 7.5 53 l0 588 l-447 0 l0 71 l613 0 ZM351 524 l303 0 l0 -388 l-303 0 l0 388 ZM419 207 l167 0 l0 249 l-167 0 l0 -249 Z" /><glyph glyph-name="uni4F59" unicode="&#x4f59;" d="M79 413 l-37 71 q142 67 240 143 q98 76 170 175 l77 0 q70 -97 170 -174.5 q100 -77.5 241 -144.5 l-37 -71 q-133 68 -240.5 151.5 q-107.5 83.5 -171.5 170.5 q-68 -92 -170 -171 q-102 -79 -242 -150 ZM894 244 l-357 0 l0 -206 q0 -43 -12 -67 q-12 -24 -40.5 -35 q-28.5 -11 -81.5 -15 l-59 -4 l-26 77 l69 4 q34 2 47.5 6.5 q13.5 4.5 18 17.5 q4.5 13 4.5 45 l0 177 l-361 0 l0 71 l361 0 l0 123 l-194 0 l0 71 l460 0 l0 -71 l-186 0 l0 -123 l357 0 l0 -71 ZM677 207 q49 -31 123 -90 q74 -59 114 -100 l-47 -65 q-36 45 -107.5 105 q-71.5 60 -125.5 95 l43 55 ZM333 159 q-35 -45 -101.5 -109.5 q-66.5 -64.5 -117.5 -105.5 l-51 56 q46 34 113.5 98 q67.5 64 101.5 108 l55 -47 Z" /><glyph glyph-name="uni4F5C" unicode="&#x4f5c;" d="M918 580 l-312 0 l0 -157 l257 0 l0 -72 l-257 0 l0 -162 l275 0 l0 -73 l-275 0 l0 -217 l-77 0 l0 681 l-45 0 q-64 -116 -150 -224 l-55 53 q81 98 132 191.5 q51 93.5 88 201.5 l70 -29 q-21 -59 -47 -117 l396 0 l0 -76 ZM334 757 q-48 -120 -85 -193 l0 -661 l-76 0 l0 527 q-45 -69 -101 -136 l-54 56 q156 181 242 436 l74 -29 Z" /><glyph glyph-name="uni4F60" unicode="&#x4f60;" d="M296 435 q54 77 102 176.5 q48 99.5 75 190.5 l76 -10 q-17 -54 -46 -122 l397 0 l0 -72 l-80 -166 l-68 25 l70 141 l-351 0 q-59 -121 -114 -203 l-61 40 ZM314 782 q-34 -109 -78 -208 l0 -667 l-71 0 l0 528 q-37 -64 -86 -132 l-53 47 q62 89 121 209 q59 120 90 235 l77 -12 ZM579 518 l73 -2 l0 -496 q0 -38 -11 -59.5 q-11 -21.5 -38.5 -32.5 q-27.5 -11 -78.5 -14 l-50 -4 l-26 75 l60 4 q31 2 45.5 7 q14.5 5 20 16.5 q5.5 11.5 5.5 33.5 l0 472 ZM489 355 q-28 -91 -71.5 -186.5 q-43.5 -95.5 -91.5 -176.5 l-64 28 q46 75 92 172.5 q46 97.5 71 180.5 l64 -18 ZM783 373 q38 -62 88 -173 q50 -111 72 -181 l-62 -38 q-22 73 -71 186.5 q-49 113.5 -86 176.5 l59 29 Z" /><glyph glyph-name="uni4F7F" unicode="&#x4f7f;" d="M301 787 q-30 -113 -72 -217 l0 -671 l-71 0 l0 522 q-35 -63 -83 -133 l-54 53 q59 85 115.5 209 q56.5 124 91.5 250 l73 -13 ZM926 -89 q-121 18 -213.5 44 q-92.5 26 -165.5 64 q-39 -32 -100 -59 q-61 -27 -156 -58 l-35 65 q162 41 228 90 q-83 59 -140 145 l51 41 q56 -84 137 -138 q19 29 26.5 64 q7.5 35 8.5 84 l-231 0 l0 258 l231 0 l-1 101 l-265 0 l0 68 l265 0 l0 120 l73 -2 l0 -118 l278 0 l0 -68 l-278 0 l1 -101 l232 0 l0 -258 l-232 0 q-1 -60 -11.5 -104 q-10.5 -44 -33.5 -79 q127 -60 357 -84 l-26 -75 ZM567 445 l-162 0 l0 -125 l162 0 l0 125 ZM801 320 l0 125 l-161 0 l0 -125 l161 0 Z" /><glyph glyph-name="uni4F8B" unicode="&#x4f8b;" d="M295 790 q-35 -121 -69 -208 l0 -680 l-66 0 l0 534 q-32 -64 -81 -138 l-55 48 q62 87 112.5 206 q50.5 119 84.5 248 l74 -10 ZM814 791 l68 -2 l0 -753 q0 -44 -12.5 -68.5 q-12.5 -24.5 -42.5 -36.5 q-30 -12 -86 -16 l-54 -4 l-24 71 l69 4 q35 2 52 9 q17 7 23.5 21 q6.5 14 6.5 42 l0 733 ZM309 676 l0 69 l326 0 l0 -69 l-167 0 q-13 -77 -31 -145 l165 0 l0 -77 q-24 -139 -53 -225 q-29 -86 -83 -164 q-54 -78 -154 -172 l-49 52 q88 79 142 160.5 q54 81.5 82.5 165.5 q28.5 84 46.5 190 l-117 0 q-15 -49 -36 -100 q23 -20 48.5 -45.5 q25.5 -25.5 38.5 -41.5 l-37 -66 q-23 35 -79 87 q-24 -51 -54 -102 l-53 43 q57 97 96.5 212 q39.5 115 59.5 228 l-92 0 ZM661 687 l67 -2 l0 -561 l-67 0 l0 563 Z" /><glyph glyph-name="uni4F9B" unicode="&#x4f9b;" d="M320 794 q-35 -113 -82 -211 l0 -679 l-73 0 l0 547 q-37 -60 -98 -143 l-53 53 q69 84 132 204 q63 120 100 245 l74 -16 ZM774 543 l0 -251 l158 0 l0 -73 l-654 0 l0 73 l156 0 l0 251 l-112 0 l0 70 l112 0 l0 187 l75 -3 l0 -184 l192 0 l0 187 l73 -3 l0 -184 l124 0 l0 -70 l-124 0 ZM701 543 l-192 0 l0 -251 l192 0 l0 251 ZM279 -41 q57 40 119 102.5 q62 62.5 103 117.5 l55 -48 q-43 -53 -106 -116.5 q-63 -63.5 -117 -110.5 l-54 55 ZM703 177 q41 -35 105.5 -103 q64.5 -68 101.5 -114 l-47 -59 q-31 46 -93 111.5 q-62 65.5 -115 113.5 l48 51 Z" /><glyph glyph-name="uni4F9D" unicode="&#x4f9d;" d="M942 28 l-53 -64 q-89 65 -150 136 q-61 71 -103 162.5 q-42 91.5 -72 218.5 q-39 -69 -75 -117 l0 -339 l152 82 l15 -74 l-31 -15 q-115 -55 -151 -74 q-37 -17 -59 -34 l-34 60 q35 27 35 58 l0 248 q-53 -59 -132 -123 l-47 62 q108 83 180 174 q72 91 122 204 l-228 0 l0 71 l253 0 q-18 58 -45 124 l68 20 q9 -22 25 -66.5 q16 -44.5 27 -77.5 l269 0 l0 -71 l-292 0 q-1 -6 -5 -13 q24 -132 66 -234 q88 65 157 144 l46 -56 q-68 -74 -173 -151 q42 -79 100 -141 q58 -62 135 -114 ZM310 786 q-37 -124 -80 -222 l0 -653 l-72 0 l0 511 q-38 -65 -87 -130 l-59 50 q67 85 130 212.5 q63 127.5 96 244.5 l72 -13 Z" /><glyph glyph-name="uni4FA7" unicode="&#x4fa7;" d="M272 789 q-28 -98 -61 -181 l0 -707 l-66 0 l0 562 q-34 -67 -70 -126 l-58 41 q53 75 103 187 q50 112 86 234 l66 -10 ZM813 783 l69 -3 l0 -753 q0 -42 -11.5 -63.5 q-11.5 -21.5 -37.5 -31 q-26 -9.5 -77 -13.5 l-48 -4 l-22 68 l59 4 q30 2 44 7.5 q14 5.5 19 18.5 q5 13 5 39 l0 731 ZM541 670 l-182 0 l0 -511 l-66 0 l0 581 l311 0 l0 -578 l-63 0 l0 508 ZM673 698 l67 -3 l0 -580 l-67 0 l0 583 ZM484 613 l0 -274 q0 -119 -15 -186 q-15 -67 -58.5 -121.5 q-43.5 -54.5 -137.5 -124.5 l-48 51 q90 63 129.5 112.5 q39.5 49.5 51.5 109.5 q12 60 12 175 l0 261 l66 -3 ZM495 144 q95 -82 155 -156 l-44 -53 q-54 75 -146 163 l35 46 Z" /><glyph glyph-name="uni4FBF" unicode="&#x4fbf;" d="M313 786 q-31 -113 -78 -218 l0 -675 l-71 0 l0 534 q-41 -73 -89 -136 l-55 49 q68 82 129 210.5 q61 128.5 91 248.5 l73 -13 ZM920 -90 q-127 14 -216 35.5 q-89 21.5 -158 58.5 q-38 -31 -101 -56.5 q-63 -25.5 -163 -52.5 l-34 68 q89 20 144.5 39.5 q55.5 19.5 89.5 42.5 q-63 48 -117 125 l54 42 q32 -41 57.5 -68.5 q25.5 -27.5 53.5 -48.5 q14 22 21 50 q7 28 10 67 l-218 0 l0 379 l220 0 l0 91 l-241 0 l0 70 l591 0 l0 -70 l-278 0 l0 -91 l230 0 l0 -379 l-232 0 q-3 -51 -12.5 -88.5 q-9.5 -37.5 -27.5 -66.5 q58 -27 141.5 -43.5 q83.5 -16.5 210.5 -24.5 l-25 -79 ZM563 436 l0 90 l-149 0 l0 -90 l149 0 ZM793 436 l0 90 l-158 0 l0 -90 l158 0 ZM414 372 l0 -93 l149 0 l0 21 l0 72 l-149 0 ZM635 279 l158 0 l0 93 l-158 0 l0 -81 l0 -12 Z" /><glyph glyph-name="uni4FC3" unicode="&#x4fc3;" d="M329 777 q-34 -106 -75 -199 l0 -675 l-75 0 l0 530 q-41 -70 -99 -147 l-58 45 q80 95 139.5 214 q59.5 119 96.5 246 l71 -14 ZM768 4 q96 0 183 7 l-19 -73 q-61 -4 -146 -4 l-105 1 q-88 2 -147.5 37 q-59.5 35 -99.5 111 q-32 -93 -103 -180 l-64 39 q52 60 79.5 119 q27.5 59 39.5 126 q12 67 18 170 l74 -7 q-7 -104 -18 -166 q23 -67 56.5 -106 q33.5 -39 77.5 -56 l0 406 l-201 0 l0 323 l472 0 l0 -323 l-195 0 l0 -151 l231 0 l0 -71 l-231 0 l0 -200 l8 0 q58 -2 90 -2 ZM789 678 l-321 0 l0 -178 l321 0 l0 178 Z" /><glyph glyph-name="uni4FDD" unicode="&#x4fdd;" d="M321 777 q-37 -118 -74 -205 l0 -674 l-71 0 l0 531 q-42 -73 -96 -141 l-57 50 q80 100 137 215 q57 115 91 237 l70 -13 ZM379 752 l463 0 l0 -308 l-463 0 l0 308 ZM454 514 l313 0 l0 168 l-313 0 l0 -168 ZM657 262 q52 -70 128 -130.5 q76 -60.5 172 -107.5 l-46 -64 q-164 91 -268 225 l0 -284 l-71 0 l0 281 q-47 -64 -109 -118 q-62 -54 -155 -109 l-50 61 q93 47 169 110.5 q76 63.5 125 135.5 l-251 0 l0 67 l271 0 l0 82 l71 -4 l0 -78 l273 0 l0 -67 l-259 0 Z" /><glyph glyph-name="uni4FE1" unicode="&#x4fe1;" d="M936 689 l0 -69 l-627 0 l0 69 l274 0 q-20 67 -33 99 l74 14 q15 -40 31 -92 l7 -21 l274 0 ZM317 782 q-35 -117 -78 -211 l0 -668 l-73 0 l0 522 q-36 -63 -81 -129 l-61 48 q79 109 138 229.5 q59 120.5 87 223.5 l68 -15 ZM866 466 l-503 0 l0 64 l503 0 l0 -64 ZM866 320 l-503 0 l0 65 l503 0 l0 -65 ZM437 -97 l-73 0 l0 330 l500 0 l0 -330 l-77 0 l0 56 l-350 0 l0 -56 ZM787 25 l0 141 l-350 0 l0 -141 l350 0 Z" /><glyph glyph-name="uni4FEE" unicode="&#x4fee;" d="M951 413 l-22 -68 q-165 46 -272 111 q-102 -64 -270 -118 l-27 63 q153 46 239 95 q-58 46 -100 101 q-44 -53 -96 -99 l-40 54 q60 53 111 122.5 q51 69.5 83 138.5 l61 -26 q-9 -21 -31 -61 l276 0 l0 -60 q-56 -100 -145 -169 q95 -50 233 -84 ZM290 786 q-32 -123 -77 -231 l0 -654 l-64 0 l0 518 q-26 -51 -73 -125 l-57 47 q61 92 120 219 q59 127 86 237 l65 -11 ZM350 68 l-65 0 l0 599 l65 -3 l0 -596 ZM658 533 q77 54 124 131 l-233 0 l-11 -16 q46 -65 120 -115 ZM758 349 q-70 -47 -152 -88.5 q-82 -41.5 -163 -69.5 l-28 63 q81 26 163 65 q82 39 149 84 l31 -54 ZM399 105 q111 35 214 85 q103 50 188 110 l35 -51 q-83 -62 -187.5 -114 q-104.5 -52 -219.5 -88 l-30 58 ZM355 -42 q153 38 287.5 98.5 q134.5 60.5 238.5 138.5 l35 -50 q-201 -161 -534 -248 l-27 61 Z" /><glyph glyph-name="uni5012" unicode="&#x5012;" d="M266 782 q-30 -110 -67 -204 l0 -685 l-67 0 l0 539 q-23 -46 -63 -111 l-57 46 q122 187 179 426 l75 -11 ZM816 779 l67 -3 l0 -750 q0 -46 -11 -70 q-11 -24 -39.5 -35.5 q-28.5 -11.5 -83.5 -15.5 l-56 -4 l-23 71 l65 4 q34 2 50.5 8.5 q16.5 6.5 23.5 20.5 q7 14 7 41 l0 733 ZM642 36 l2 -33 q-75 -10 -200.5 -23.5 q-125.5 -13.5 -200.5 -18.5 l-14 72 q59 1 177 12 l0 148 l-139 0 l0 72 l139 0 l0 134 l-90 -7 q-19 0 -47 -7 l-17 62 q21 7 28 19 q18 28 48.5 84 q30.5 56 51.5 103 l-112 0 l0 69 l353 0 l0 -69 l-171 0 q-62 -134 -101 -194 l182 12 q-33 71 -58 110 l53 26 q25 -38 59.5 -108.5 q34.5 -70.5 49.5 -112.5 l-54 -33 q-5 17 -22 56 q-23 -2 -86 -6 l0 -138 l132 0 l0 -72 l-132 0 l0 -141 q116 13 167 21 l2 -37 ZM670 675 l63 -3 l0 -552 l-63 0 l0 555 Z" /><glyph glyph-name="uni5019" unicode="&#x5019;" d="M290 788 q-36 -121 -73 -214 l0 -669 l-64 0 l0 522 q-37 -75 -80 -143 l-54 51 q58 82 114.5 214 q56.5 132 87.5 252 l69 -13 ZM806 573 l119 0 l0 -65 l-527 0 l0 65 l337 0 l10 112 l-290 0 l0 65 l366 0 l-15 -177 ZM299 688 l67 -2 l0 -633 l-67 0 l0 635 ZM694 169 q31 -69 93.5 -120.5 q62.5 -51.5 155.5 -80.5 l-42 -66 q-171 80 -242 198 q-30 -61 -95 -108 q-65 -47 -175 -91 l-38 60 q118 41 180.5 92.5 q62.5 51.5 80.5 115.5 l-219 0 l0 65 l227 0 q2 50 2 110 l-113 0 q-24 -47 -57 -97 l-56 35 q61 80 106 211 l65 -14 l-27 -69 l334 0 l0 -66 l-179 0 l-4 -109 l0 -1 l221 0 l0 -65 l-218 0 Z" /><glyph glyph-name="uni503C" unicode="&#x503c;" d="M843 562 l0 -555 l97 0 l0 -65 l-669 0 l0 65 l88 0 l0 555 l204 0 l0 92 l-245 0 l0 64 l245 0 l0 87 l75 -3 l0 -84 l265 0 l0 -64 l-265 0 l0 -92 l205 0 ZM291 790 q-29 -110 -65 -202 l0 -680 l-72 0 l0 522 q-37 -69 -79 -133 l-49 64 q61 84 109.5 198 q48.5 114 80.5 243 l75 -12 ZM768 421 l0 77 l-335 0 l0 -77 l335 0 ZM433 286 l335 0 l0 77 l-335 0 l0 -77 ZM768 149 l0 79 l-335 0 l0 -79 l335 0 ZM768 91 l-335 0 l0 -84 l335 0 l0 84 Z" /><glyph glyph-name="uni5047" unicode="&#x5047;" d="M292 787 q-35 -122 -70 -207 l0 -679 l-68 0 l0 537 q-38 -68 -80 -131 l-50 50 q60 83 112 200.5 q52 117.5 82 238.5 l74 -9 ZM579 173 l0 -68 l-195 0 l0 -197 l-67 0 l0 845 l253 0 l0 -274 l-186 0 l0 -116 l178 0 l0 -69 l-178 0 l0 -121 l195 0 ZM622 752 l253 0 l0 -271 l-254 0 l0 69 l186 0 l0 133 l-185 0 l0 69 ZM504 547 l0 137 l-120 0 l0 -137 l120 0 ZM952 -24 l-40 -66 q-121 78 -177 140 q-71 -69 -204 -142 l-38 60 q131 67 201 133 q-29 41 -50.5 92.5 q-21.5 51.5 -40.5 121.5 l-15 0 l0 67 l297 0 l0 -69 q-34 -127 -106 -216 q58 -62 173 -121 ZM668 315 q27 -102 70 -166 q54 66 82 166 l-152 0 Z" /><glyph glyph-name="uni504F" unicode="&#x504f;" d="M888 385 l0 -377 q0 -49 -18.5 -68 q-18.5 -19 -66.5 -25 l-33 -4 l-20 65 l33 4 q25 3 31.5 11 q6.5 8 6.5 33 l0 106 l-84 0 l0 -172 l-60 0 l0 172 l-78 0 l0 -171 l-62 0 l0 171 l-83 0 l0 -215 l-62 0 l0 400 q-11 -100 -38 -185.5 q-27 -85.5 -75 -162.5 l-59 42 q63 94 88 202.5 q25 108.5 25 286.5 l0 208 l233 0 q-17 59 -32 96 l74 14 q18 -44 38 -110 l227 0 l0 -228 l-473 0 q0 -33 -2 -93 l490 0 ZM293 781 q-41 -144 -73 -223 l0 -650 l-66 0 l0 508 q-34 -61 -69 -113 l-54 49 q122 169 190 442 l72 -13 ZM802 540 l0 104 l-402 0 l0 -104 l402 0 ZM454 324 l0 -135 l83 0 l0 135 l-83 0 ZM599 324 l0 -135 l78 0 l0 135 l-78 0 ZM737 324 l0 -135 l84 0 l0 135 l-84 0 Z" /><glyph glyph-name="uni505A" unicode="&#x505a;" d="M959 -40 l-53 -58 q-113 103 -176 202 q-66 -100 -186 -205 l-46 59 q66 55 113.5 106 q47.5 51 81.5 105 q-58 113 -80 255 q-17 -32 -36 -60 l-46 55 q47 71 85.5 180 q38.5 109 54.5 210 l66 -12 q-15 -84 -37 -160 l233 0 l0 -71 l-70 0 q-11 -129 -32 -221.5 q-21 -92.5 -61 -171.5 q70 -109 189 -213 ZM291 0 l0 372 l93 0 l0 180 l-125 0 l0 70 l125 0 l0 180 l68 -3 l0 -177 l123 0 l0 -70 l-123 0 l0 -180 l91 0 l0 -372 l-252 0 ZM263 784 q-26 -109 -58 -199 l0 -682 l-68 0 l0 520 q-34 -68 -62 -113 l-53 58 q57 85 102 198.5 q45 113.5 71 232.5 l68 -15 ZM731 244 q28 64 45 142.5 q17 78.5 25 179.5 l-125 0 q-10 -29 -19 -49 q17 -155 74 -273 ZM354 69 l124 0 l0 233 l-124 0 l0 -233 Z" /><glyph glyph-name="uni505C" unicode="&#x505c;" d="M913 706 l0 -65 l-591 0 l0 65 l254 0 q-23 72 -32 95 l74 14 q12 -29 38 -109 l257 0 ZM309 792 q-37 -125 -80 -228 l0 -655 l-69 0 l0 515 q-40 -69 -83 -127 l-55 52 q66 85 119.5 203 q53.5 118 90.5 250 l77 -10 ZM376 408 l0 173 l462 0 l0 -173 l-462 0 ZM447 460 l321 0 l0 68 l-321 0 l0 -68 ZM371 179 l-70 0 l0 168 l610 0 l0 -168 l-71 0 l0 104 l-469 0 l0 -104 ZM393 144 l0 63 l424 0 l0 -63 l-164 0 l0 -126 q0 -39 -10 -59.5 q-10 -20.5 -37 -30.5 q-27 -10 -83 -14 l-59 -4 l-23 69 l67 4 q34 2 49 7 q15 5 19.5 15.5 q4.5 10.5 4.5 32.5 l0 106 l-188 0 Z" /><glyph glyph-name="uni5065" unicode="&#x5065;" d="M501 436 l130 0 l0 81 l-159 0 l0 57 l159 0 l0 81 l-130 0 l0 56 l130 0 l0 89 l67 -2 l0 -87 l171 0 l0 -137 l65 0 l0 -57 l-65 0 l0 -137 l-171 0 l0 -79 l187 0 l0 -56 l-187 0 l0 -77 l215 0 l0 -57 l-215 0 l0 -89 l-67 0 l0 89 l-171 0 l0 57 l171 0 l0 77 l-135 0 l0 56 l135 0 l0 79 l-130 0 l0 56 ZM258 783 q-22 -99 -56 -197 l0 -678 l-64 0 l0 519 q-32 -69 -67 -127 l-55 46 q53 80 100 203.5 q47 123.5 73 243.5 l69 -10 ZM785 -8 q85 0 154 4 l-12 -61 q-68 -4 -151 -4 q-83 0 -152 4 q-88 5 -152 29.5 q-64 24.5 -111 77.5 q-32 -56 -95 -138 l-54 45 q73 87 108 150 q-47 81 -78 211 l56 19 q25 -102 55 -162 q19 46 29.5 99 q10.5 53 15.5 124 l-135 0 l0 62 l131 211 l-130 0 l0 62 l201 0 l0 -63 l-130 -210 l125 0 l0 -65 q-10 -96 -25 -161 q-15 -65 -42 -123 q40 -50 98 -76.5 q58 -26.5 140 -30.5 q69 -4 154 -4 ZM803 655 l-105 0 l0 -81 l105 0 l0 81 ZM698 436 l105 0 l0 81 l-105 0 l0 -81 Z" /><glyph glyph-name="uni50A8" unicode="&#x50a8;" d="M757 437 q-42 -51 -95 -98 l199 0 l0 -434 l-64 0 l0 52 l-188 0 l0 -52 l-63 0 l0 344 q-34 -24 -72 -48 l-39 52 q142 80 240 184 l-216 0 l0 63 l157 0 l0 125 l-118 0 l0 61 l118 0 l0 115 l64 -3 l0 -112 l112 0 l0 -61 l-112 0 l0 -125 l49 0 q83 108 126 241 l65 -20 q-52 -128 -116 -221 l130 0 l0 -63 l-177 0 ZM300 788 q-34 -121 -72 -211 l0 -676 l-66 0 l0 535 q-43 -78 -87 -142 l-43 66 q59 76 112.5 199 q53.5 123 81.5 240 l74 -11 ZM412 564 q-13 37 -44 93 q-31 56 -54 87 l54 32 q22 -29 54 -82.5 q32 -53.5 47 -86.5 l-57 -43 ZM410 78 l84 74 l24 -64 q-24 -24 -124 -109 q-24 -20 -36 -35 l-44 57 q15 13 22 26.5 q7 13.5 7 31.5 l0 374 l-83 0 l0 71 l150 0 l0 -426 ZM609 179 l188 0 l0 98 l-188 0 l0 -98 ZM609 119 l0 -101 l188 0 l0 101 l-188 0 Z" /><glyph glyph-name="uni50BB" unicode="&#x50bb;" d="M256 281 q40 13 104 48.5 q64 35.5 112 67.5 l-126 0 l0 326 l173 0 q26 55 35 92 l75 -12 q-10 -28 -34 -80 l275 0 l0 -326 l-151 0 q48 -18 118.5 -53 q70.5 -35 107.5 -60 l-24 -59 q-40 30 -116 67 q-76 37 -128 56 l25 49 l-208 0 l25 -44 q-42 -32 -115 -74 q-73 -42 -118 -60 l-30 62 ZM310 783 q-33 -114 -80 -219 l0 -662 l-69 0 l0 525 q-38 -66 -82 -131 l-54 48 q62 83 122 208.5 q60 125.5 91 241.5 l72 -11 ZM801 663 l-387 0 l0 -205 l387 0 l0 205 ZM756 613 q-27 -19 -75 -47 q57 -29 95 -53 l-27 -54 q-41 32 -126 76 q-90 -46 -160 -73 l-24 50 q52 17 125 53 q-68 32 -106 47 l26 48 q39 -15 140 -64 q63 35 104 65 l28 -48 ZM920 -97 q-183 39 -313 107 q-121 -63 -327 -113 l-25 65 q167 31 286 87 q-62 42 -105 91 q-60 -54 -129 -100 l-37 60 q70 46 139.5 110 q69.5 64 103.5 115 l52 -35 q-19 -30 -22 -34 l287 0 l0 -51 q-64 -94 -157 -156 q121 -58 275 -79 l-28 -67 ZM608 84 q83 51 129 111 l-245 0 l-6 -6 q44 -56 122 -105 Z" /><glyph glyph-name="uni50CF" unicode="&#x50cf;" d="M949 4 l-48 -50 q-70 66 -112 123.5 q-42 57.5 -76 143.5 l-53 -27 q16 -61 16 -137 q0 -52 -14 -82 q-14 -30 -45 -44 q-31 -14 -86 -17 l-54 -3 l-21 62 l67 4 q35 2 53.5 10.5 q18.5 8.5 26.5 29.5 q8 21 8 60 q0 30 -3 57 q-122 -116 -330 -201 l-28 58 q100 36 189 86.5 q89 50.5 156 115.5 q-10 28 -17 42 q-60 -49 -130 -87 q-70 -38 -162 -77 l-25 55 q184 70 291 156 l-24 34 q-39 -27 -95.5 -50.5 q-56.5 -23.5 -142.5 -50.5 l-24 58 q103 29 163.5 56.5 q60.5 27.5 94.5 62.5 l-178 0 l0 153 q-32 -24 -48 -35 l-32 62 q71 49 132 111.5 q61 62.5 100 130.5 l65 -25 q-14 -26 -35 -57 l252 0 l0 -55 l-78 -86 l167 0 l0 -199 l-269 0 q-14 -23 -26 -36 q41 -52 66 -107 q47 23 106 61 q59 38 93 66 l35 -52 q-31 -25 -110 -74 q32 -79 75 -136 q43 -57 110 -110 ZM299 784 q-27 -100 -70 -209 l0 -673 l-69 0 l0 523 q-45 -86 -91 -148 l-58 50 q70 90 125 213.5 q55 123.5 90 255.5 l73 -12 ZM485 675 q-35 -41 -82 -84 l220 0 l77 84 l-215 0 ZM412 446 l149 0 q17 39 21 92 l-170 0 l0 -92 ZM804 446 l0 92 l-163 0 q-5 -55 -17 -92 l180 0 Z" /><glyph glyph-name="uni513F" unicode="&#x513f;" d="M40 -44 q101 74 150 134 q49 60 68.5 140.5 q19.5 80.5 19.5 219.5 l0 335 l76 -3 l0 -332 q0 -152 -23 -244 q-23 -92 -74.5 -158.5 q-51.5 -66.5 -154.5 -150.5 l-62 59 ZM555 784 l79 -4 l0 -696 q0 -31 6 -46 q6 -15 19.5 -21 q13.5 -6 40.5 -8 l31 -1 l30 1 q40 2 55.5 13 q15.5 11 21.5 41 q8 42 12 128 l72 -25 q-6 -95 -19 -158 q-9 -38 -37.5 -55.5 q-28.5 -17.5 -95.5 -20.5 q-12 -1 -40 -1 q-29 0 -41 1 q-50 2 -78.5 14 q-28.5 12 -42 40.5 q-13.5 28.5 -13.5 82.5 l0 715 Z" /><glyph glyph-name="uni5145" unicode="&#x5145;" d="M916 118 q-7 -77 -17 -123 q-7 -32 -36.5 -51 q-29.5 -19 -95.5 -21 q-18 -1 -57 -1 q-40 0 -58 1 q-44 1 -69 11.5 q-25 10.5 -37 35.5 q-12 25 -12 71 l0 288 q-82 -4 -121 -5 l-4 -49 q-7 -100 -40 -167 q-33 -67 -96 -118.5 q-63 -51.5 -172 -106.5 l-50 72 q101 45 158 87.5 q57 42.5 86 97.5 q29 55 37 138 l4 42 l-55 -2 q-15 -1 -35 -1 q-32 -1 -53.5 -3 q-21.5 -2 -48.5 -6 l-17 73 q36 6 66 32 q65 55 174 193 l-291 0 l0 73 l388 0 q-23 63 -50 114 l70 25 q12 -24 31.5 -69.5 q19.5 -45.5 27.5 -69.5 l348 0 l0 -73 l-432 0 q-115 -147 -186 -215 l405 16 q-66 76 -109 116 l55 48 q46 -42 115 -120.5 q69 -78.5 105 -128.5 l-56 -64 q-17 31 -54 79 l-124 -5 l0 -273 q0 -37 14 -49 q14 -12 54 -14 q12 -1 40 -1 q27 0 39 1 q39 1 55 10.5 q16 9.5 21 33.5 q10 55 13 101 l70 -23 Z" /><glyph glyph-name="uni5148" unicode="&#x5148;" d="M926 124 q-4 -68 -18 -128 q-5 -23 -16 -35.5 q-11 -12.5 -36 -19.5 q-25 -7 -74 -10 q-30 -2 -52 -2 q-22 0 -52 2 q-47 3 -72 13 q-25 10 -35.5 34 q-10.5 24 -10.5 69 l0 270 l-153 0 q0 -11 -2 -25 q-6 -107 -36.5 -176.5 q-30.5 -69.5 -90.5 -120.5 q-60 -51 -169 -107 l-46 71 q99 45 154 88.5 q55 43.5 80 101 q25 57.5 30 144.5 q0 6 2 24 l-270 0 l0 71 l407 0 l0 184 l-211 0 q-36 -83 -86 -162 l-68 36 q48 70 83 149.5 q35 79.5 64 177.5 l75 -15 q-19 -62 -39 -116 l182 0 l0 164 l76 -4 l0 -160 l329 0 l0 -70 l-329 0 l0 -184 l375 0 l0 -71 l-280 0 l0 -245 q0 -38 13 -51 q13 -13 53 -18 q9 -1 33 -1 q25 0 33 1 q32 3 47 7.5 q15 4.5 21 12.5 q6 8 9 24 q8 43 10 101 l70 -24 Z" /><glyph glyph-name="uni5149" unicode="&#x5149;" d="M919 136 l-2 -23 q-6 -80 -13 -117 q-6 -34 -35.5 -49.5 q-29.5 -15.5 -96.5 -19.5 q-36 -2 -54 -2 q-18 0 -54 2 q-47 3 -72.5 14 q-25.5 11 -37 37 q-11.5 26 -11.5 74 l0 301 l-155 0 l-1 -24 q-7 -115 -36 -190.5 q-29 -75.5 -89.5 -131.5 q-60.5 -56 -168.5 -110 l-54 68 q106 52 161.5 97 q55.5 45 80.5 106.5 q25 61.5 29 162.5 l1 22 l-239 0 l0 75 l377 0 l0 370 l78 -3 l0 -367 l378 0 l0 -75 l-284 0 l0 -278 q0 -38 14 -51 q14 -13 55 -16 q12 -1 36 -1 q24 0 36 1 q41 3 57.5 11.5 q16.5 8.5 20.5 33.5 q7 39 9 107 l70 -24 ZM835 704 q-74 -143 -151 -240 l-64 45 q35 37 79.5 108.5 q44.5 71.5 70.5 125.5 l65 -39 ZM295 461 q-25 48 -73.5 119 q-48.5 71 -85.5 116 l60 43 q34 -39 85.5 -109.5 q51.5 -70.5 77.5 -115.5 l-64 -53 Z" /><glyph glyph-name="uni514B" unicode="&#x514b;" d="M917 112 q-1 -8 -5.5 -49 q-4.5 -41 -13.5 -76 q-5 -21 -18 -33 q-13 -12 -39.5 -18 q-26.5 -6 -74.5 -9 q-34 -2 -51 -2 q-18 0 -52 2 q-63 4 -87.5 27 q-24.5 23 -24.5 82 l0 189 l-144 0 q-7 -48 -8 -53 q-9 -68 -43 -115.5 q-34 -47.5 -97 -85.5 q-63 -38 -170 -80 l-37 69 q100 33 155.5 64 q55.5 31 84 70.5 q28.5 39.5 38.5 100.5 l3 30 l-160 0 l0 295 l280 0 l0 109 l-382 0 l0 67 l382 0 l0 107 l72 -2 l0 -105 l382 0 l0 -67 l-382 0 l0 -109 l281 0 l0 -295 l-184 0 l0 -167 q0 -25 6 -37.5 q6 -12.5 20 -17.5 q14 -5 42 -7 q22 -2 33 -2 q10 0 32 2 q46 3 62 10.5 q16 7.5 20 29.5 q8 41 12 102 l68 -26 ZM736 450 l-493 0 l0 -156 l493 0 l0 156 Z" /><glyph glyph-name="uni514D" unicode="&#x514d;" d="M914 112 q-3 -47 -11 -90 q-7 -36 -18.5 -53.5 q-11.5 -17.5 -35.5 -25.5 q-24 -8 -72 -11 q-44 -3 -81 -3 q-36 0 -81 3 q-46 3 -69.5 12 q-23.5 9 -34 30.5 q-10.5 21.5 -10.5 63.5 l0 199 l-3 0 q-25 -77 -72 -134.5 q-47 -57.5 -125.5 -105 q-78.5 -47.5 -202.5 -97.5 l-43 69 q164 56 247 116.5 q83 60.5 117 151.5 l-251 0 l0 254 q-44 -35 -80 -60 l-41 56 q92 65 170.5 148 q78.5 83 135.5 175 l66 -31 q-21 -33 -42 -63 l350 0 l0 -63 l-106 -118 l203 0 l0 -298 l-252 0 l0 -175 q0 -25 5.5 -37 q5.5 -12 19 -16.5 q13.5 -4.5 42.5 -7.5 q20 -2 56 -2 q38 0 61 2 q32 3 47 8 q15 5 21 15.5 q6 10.5 10 34.5 q7 41 9 81 l71 -28 ZM327 650 q-51 -63 -107 -115 l307 0 l103 115 l-303 0 ZM240 303 l198 0 q15 65 18 165 l-216 0 l0 -165 ZM752 303 l0 165 l-221 0 q-5 -100 -17 -165 l238 0 Z" /><glyph glyph-name="uni515A" unicode="&#x515a;" d="M170 563 l0 -139 l-73 0 l0 208 l191 0 q-40 63 -85 115 l55 35 q22 -25 53.5 -65 q31.5 -40 47.5 -64 l-26 -21 l116 0 l0 174 l73 -2 l0 -172 l121 0 l-30 25 q29 25 62.5 62 q33.5 37 54.5 65 l55 -40 q-19 -24 -47.5 -56.5 q-28.5 -32.5 -51.5 -55.5 l199 0 l0 -208 l-71 0 l0 139 l-644 0 ZM917 94 q-6 -76 -16 -118 q-7 -31 -30 -44 q-23 -13 -85 -16 q-40 -2 -64 -2 q-25 0 -65 2 q-61 3 -87 25.5 q-26 22.5 -26 78.5 l0 164 l-132 0 q-9 -81 -46.5 -135 q-37.5 -54 -99.5 -89 q-62 -35 -158 -68 l-39 67 q84 21 138 46.5 q54 25.5 87.5 68 q33.5 42.5 42.5 110.5 l-113 0 l0 278 l531 0 l0 -278 l-138 0 l0 -139 q0 -34 13.5 -45 q13.5 -11 53.5 -13 q13 -1 43 -1 q31 0 43 1 q37 1 50.5 9.5 q13.5 8.5 18.5 30.5 q6 31 10 92 l68 -25 ZM685 396 l-390 0 l0 -144 l390 0 l0 144 Z" /><glyph glyph-name="uni5165" unicode="&#x5165;" d="M941 -21 l-59 -67 q-130 98 -220 230 q-90 132 -164 317 q-54 -151 -158 -294 q-104 -143 -240 -246 l-57 60 q152 112 258.5 269.5 q106.5 157.5 148.5 321.5 q-39 72 -106 124 l-37 27 l47 55 l26 -17 q42 -32 70.5 -63 q28.5 -31 56 -81 q27.5 -50 58.5 -132 q57 -148 155 -282.5 q98 -134.5 221 -221.5 Z" /><glyph glyph-name="uni5168" unicode="&#x5168;" d="M788 398 l-258 0 l0 -146 l282 0 l0 -72 l-282 0 l0 -166 l369 0 l0 -69 l-818 0 l0 69 l370 0 l0 166 l-281 0 l0 72 l281 0 l0 146 l-259 0 l0 59 q-38 -24 -119 -68 l-40 72 q154 75 255.5 155.5 q101.5 80.5 166.5 179.5 l70 0 q64 -99 171.5 -184 q107.5 -85 252.5 -154 l-40 -68 q-66 37 -121 72 l0 -64 ZM214 471 l560 0 q-196 130 -284 251 q-96 -134 -276 -251 Z" /><glyph glyph-name="uni516C" unicode="&#x516c;" d="M619 788 q59 -152 132.5 -252.5 q73.5 -100.5 197.5 -179.5 l-61 -69 q-118 87 -197.5 203.5 q-79.5 116.5 -140.5 270.5 l69 27 ZM425 756 q-60 -137 -139 -251.5 q-79 -114.5 -197 -212.5 l-58 59 q115 86 196.5 198.5 q81.5 112.5 124.5 230.5 l73 -24 ZM625 287 q56 -82 108.5 -173 q52.5 -91 90.5 -174 l-75 -43 q-31 74 -44 100 q-107 -6 -249.5 -18.5 q-142.5 -12.5 -194.5 -19.5 q-51 -7 -99 -19 l-22 75 q30 7 42.5 13.5 q12.5 6.5 24.5 21.5 q59 67 124 186.5 q65 119.5 113 237.5 l74 -31 q-46 -112 -107.5 -224 q-61.5 -112 -120.5 -184 l380 30 q-51 97 -110 184 l65 38 Z" /><glyph glyph-name="uni5171" unicode="&#x5171;" d="M689 550 l0 -245 l238 0 l0 -77 l-885 0 l0 77 l236 0 l0 245 l-181 0 l0 73 l181 0 l0 183 l79 -3 l0 -180 l252 0 l0 183 l80 -2 l0 -181 l186 0 l0 -73 l-186 0 ZM609 550 l-252 0 l0 -245 l252 0 l0 245 ZM65 -27 q62 31 153 97.5 q91 66.5 146 117.5 l50 -60 q-52 -49 -143.5 -116.5 q-91.5 -67.5 -154.5 -104.5 l-51 66 ZM605 188 q61 -38 151.5 -103 q90.5 -65 140.5 -108 l-46 -74 q-50 51 -137.5 116.5 q-87.5 65.5 -155.5 106.5 l47 62 Z" /><glyph glyph-name="uni5173" unicode="&#x5173;" d="M527 284 q40 -109 141 -186 q101 -77 259 -120 l-40 -77 q-137 40 -245.5 116.5 q-108.5 76.5 -159.5 184.5 q-45 -88 -142.5 -162 q-97.5 -74 -250.5 -139 l-45 73 q182 70 273 146.5 q91 76.5 116 163.5 l-357 0 l0 75 l367 0 l0 4 l0 177 l-314 0 l0 72 l201 0 q-19 38 -50 85.5 q-31 47.5 -53 73.5 l60 38 q24 -29 60.5 -81 q36.5 -52 54.5 -85 l-42 -31 l186 0 q36 43 71 97.5 q35 54.5 58 100.5 l70 -29 q-50 -95 -106 -169 l197 0 l0 -72 l-311 0 l-2 -173 l0 -8 l369 0 l0 -75 l-365 0 Z" /><glyph glyph-name="uni5174" unicode="&#x5174;" d="M470 784 q23 -59 51 -163 q28 -104 41 -172 l-75 -25 q-11 65 -38 170.5 q-27 105.5 -51 170.5 l72 19 ZM636 427 q42 66 88 160 q46 94 69 163 l69 -27 q-26 -70 -73 -167 q-47 -97 -86 -161 l-67 32 ZM190 734 q35 -54 80.5 -142.5 q45.5 -88.5 72.5 -157.5 l-69 -37 q-27 71 -72.5 161.5 q-45.5 90.5 -78.5 140.5 l67 35 ZM47 279 l0 73 l885 0 l0 -73 l-885 0 ZM73 -33 q66 44 143.5 117 q77.5 73 132.5 142 l55 -57 q-52 -61 -130.5 -134.5 q-78.5 -73.5 -147.5 -129.5 l-53 62 ZM620 225 q61 -47 145 -124 q84 -77 134 -130 l-57 -66 q-54 64 -134 140 q-80 76 -140 122 l52 58 Z" /><glyph glyph-name="uni5176" unicode="&#x5176;" d="M755 629 l0 -427 l179 0 l0 -67 l-889 0 l0 67 l179 0 l0 427 l-141 0 l0 66 l141 0 l0 105 l74 -3 l0 -102 l382 0 l0 105 l75 -3 l0 -102 l141 0 l0 -66 l-141 0 ZM680 530 l0 99 l-382 0 l0 -99 l382 0 ZM680 464 l-382 0 l0 -97 l382 0 l0 97 ZM680 300 l-382 0 l0 -98 l382 0 l0 98 ZM64 -43 q60 20 159 68.5 q99 48.5 151 84.5 l34 -61 q-52 -36 -151.5 -85.5 q-99.5 -49.5 -160.5 -71.5 l-32 65 ZM594 107 q67 -24 167.5 -69.5 q100.5 -45.5 149.5 -75.5 l-30 -70 q-51 38 -150 83.5 q-99 45.5 -166 67.5 l29 64 Z" /><glyph glyph-name="uni5177" unicode="&#x5177;" d="M784 755 l0 -565 l150 0 l0 -68 l-887 0 l0 68 l148 0 l0 565 l589 0 ZM708 613 l0 75 l-440 0 l0 -75 l440 0 ZM268 472 l440 0 l0 76 l-440 0 l0 -76 ZM708 332 l0 76 l-440 0 l0 -76 l440 0 ZM708 268 l-440 0 l0 -78 l440 0 l0 78 ZM53 -39 q63 20 163.5 68 q100.5 48 153.5 84 l38 -60 q-56 -37 -159 -86.5 q-103 -49.5 -168 -71.5 l-28 66 ZM589 110 q64 -21 167.5 -64 q103.5 -43 157.5 -72 l-30 -72 q-50 34 -148.5 76.5 q-98.5 42.5 -174.5 68.5 l28 63 Z" /><glyph glyph-name="uni5178" unicode="&#x5178;" d="M834 678 l0 -464 l107 0 l0 -71 l-901 0 l0 71 l109 0 l0 464 l206 0 l0 114 l71 -3 l0 -111 l130 0 l0 114 l71 -3 l0 -111 l207 0 ZM355 451 l0 156 l-134 0 l0 -156 l134 0 ZM556 451 l0 156 l-130 0 l0 -156 l130 0 ZM762 451 l0 156 l-135 0 l0 -156 l135 0 ZM355 381 l-134 0 l0 -167 l134 0 l0 167 ZM426 214 l130 0 l0 167 l-130 0 l0 -167 ZM762 381 l-135 0 l0 -167 l135 0 l0 167 ZM52 -47 q66 22 167.5 70 q101.5 48 161.5 87 l35 -65 q-54 -35 -152.5 -81.5 q-98.5 -46.5 -173.5 -75.5 l-38 65 ZM588 108 q65 -22 166 -69 q101 -47 158 -82 l-31 -70 q-56 40 -155 89 q-99 49 -165 71 l27 61 Z" /><glyph glyph-name="uni517B" unicode="&#x517b;" d="M910 81 q-136 42 -233 109 l0 -286 l-75 0 l0 305 l53 -4 q-70 54 -113 114 l-119 0 q-51 -70 -137 -127.5 q-86 -57.5 -217 -108.5 l-37 66 q104 36 177 77.5 q73 41.5 122 92.5 l-269 0 l0 64 l318 0 q26 44 41 93 l-284 0 l0 60 l299 0 q8 39 13 93 l-343 0 l0 64 l206 0 q-17 25 -37 51 q-20 26 -33 39 l54 41 q19 -20 45.5 -52 q26.5 -32 38.5 -51 l-34 -28 l243 0 q22 28 48.5 68 q26.5 40 40.5 65 l62 -36 q-24 -44 -65 -97 l197 0 l0 -64 l-348 0 q-5 -54 -13 -93 l329 0 l0 -60 l-343 0 q-15 -54 -35 -93 l454 0 l0 -64 l-288 0 q53 -59 126 -97.5 q73 -38.5 185 -68.5 l-29 -72 ZM128 -63 q81 33 121 69 q40 36 53.5 81.5 q13.5 45.5 13.5 118.5 l73 -5 q0 -87 -18 -142.5 q-18 -55.5 -63.5 -98 q-45.5 -42.5 -132.5 -82.5 l-47 59 Z" /><glyph glyph-name="uni517C" unicode="&#x517c;" d="M632 201 q119 -137 304 -204 l-41 -71 q-80 36 -157 92.5 q-77 56.5 -135 120.5 l0 -241 l-69 0 l0 303 l-138 0 l0 -303 l-69 0 l0 232 q-98 -115 -265 -209 l-42 63 q87 43 160 99 q73 56 123 118 l-197 0 l0 65 l221 0 l0 78 l-284 0 l0 65 l284 0 l0 78 l-213 0 l0 64 l213 0 l0 87 l-268 0 l0 64 l240 0 q-33 51 -62 82 l54 41 q18 -19 42.5 -50 q24.5 -31 36.5 -50 l-28 -23 l216 0 q22 26 47 63 q25 37 39 62 l62 -36 q-30 -48 -61 -89 l249 0 l0 -64 l-291 0 l0 -87 l203 0 l0 -142 l110 0 l0 -65 l-110 0 l0 -143 l-174 0 ZM534 638 l-138 0 l0 -87 l138 0 l0 87 ZM534 487 l-138 0 l0 -78 l138 0 l0 78 ZM736 409 l0 78 l-133 0 l0 -78 l133 0 ZM396 344 l0 -78 l138 0 l0 78 l-138 0 ZM603 266 l133 0 l0 78 l-133 0 l0 -78 Z" /><glyph glyph-name="uni5185" unicode="&#x5185;" d="M853 648 l0 -610 q0 -49 -11.5 -72 q-11.5 -23 -41 -33 q-29.5 -10 -96.5 -18 l-49 -6 l-27 76 l64 6 q41 4 58 9.5 q17 5.5 22 18.5 q5 13 5 44 l0 512 l-250 0 q-2 -72 -14 -127 q58 -48 134 -126.5 q76 -78.5 114 -130.5 l-52 -66 q-32 49 -96 120 q-64 71 -125 128 q-28 -67 -82.5 -129 q-54.5 -62 -142.5 -129 l-49 64 q93 69 143 128.5 q50 59.5 70.5 122 q20.5 62.5 22.5 145.5 l-248 0 l0 -664 l-75 0 l0 737 l323 0 l0 152 l77 -3 l0 -149 l326 0 Z" /><glyph glyph-name="uni518D" unicode="&#x518d;" d="M940 206 l0 -69 l-129 0 l0 -103 q0 -46 -11 -68.5 q-11 -22.5 -37 -32 q-26 -9.5 -81 -15.5 l-56 -6 l-25 75 l59 5 q37 3 52 8 q15 5 19.5 17 q4.5 12 4.5 42 l0 78 l-492 0 l0 -229 l-73 0 l0 229 l-130 0 l0 69 l130 0 l0 366 l282 0 l0 103 l-372 0 l0 68 l820 0 l0 -68 l-373 0 l0 -103 l283 0 l0 -366 l129 0 ZM453 391 l0 114 l-209 0 l0 -114 l209 0 ZM736 391 l0 114 l-208 0 l0 -114 l208 0 ZM453 324 l-209 0 l0 -118 l209 0 l0 118 ZM528 324 l0 -118 l208 0 l0 118 l-208 0 Z" /><glyph glyph-name="uni5192" unicode="&#x5192;" d="M115 443 l0 315 l739 0 l0 -315 l-79 0 l0 253 l-582 0 l0 -253 l-78 0 ZM251 633 l467 0 l0 -56 l-467 0 l0 56 ZM718 456 l-467 0 l0 56 l467 0 l0 -56 ZM249 -101 l-74 0 l0 495 l617 0 l0 -493 l-75 0 l0 53 l-468 0 l0 -55 ZM717 265 l0 72 l-468 0 l0 -72 l468 0 ZM717 209 l-468 0 l0 -72 l468 0 l0 72 ZM249 81 l0 -72 l468 0 l0 72 l-468 0 Z" /><glyph glyph-name="uni5199" unicode="&#x5199;" d="M116 533 l0 214 l758 0 l0 -210 l-77 0 l0 138 l-605 0 l0 -142 l-76 0 ZM309 465 l-12 -122 l536 0 q-2 -54 -7 -140.5 q-5 -86.5 -8 -133.5 q-5 -54 -22 -83.5 q-17 -29.5 -51.5 -43.5 q-34.5 -14 -97.5 -20 l-85 -8 l-26 71 l89 8 q43 4 65.5 12.5 q22.5 8.5 33.5 27 q11 18.5 15 54.5 q3 33 7 91.5 q4 58.5 6 94.5 l-539 0 l35 356 l77 -3 l-9 -92 l459 0 l0 -69 l-466 0 ZM64 157 l612 0 l0 -70 l-612 0 l0 70 Z" /><glyph glyph-name="uni51B2" unicode="&#x51b2;" d="M630 624 l234 0 l0 -437 l-234 0 l0 -293 l-73 0 l0 293 l-231 0 l0 437 l231 0 l0 180 l73 -4 l0 -176 ZM137 764 q29 -42 70 -119 q41 -77 68 -136 l-65 -47 q-22 60 -62.5 138.5 q-40.5 78.5 -72.5 129.5 l62 34 ZM399 550 l0 -286 l158 0 l0 286 l-158 0 ZM630 264 l158 0 l0 286 l-158 0 l0 -286 ZM271 352 q-17 -75 -61 -199.5 q-44 -124.5 -78 -195.5 l-76 29 q37 66 83 189 q46 123 64 201 l68 -24 Z" /><glyph glyph-name="uni51B3" unicode="&#x51b3;" d="M585 278 q39 -102 126 -175 q87 -73 231 -128 l-43 -76 q-146 69 -229 138 q-83 69 -129 163 q-34 -85 -111 -156.5 q-77 -71.5 -210 -144.5 l-46 66 q147 72 219 144.5 q72 72.5 92 168.5 l-216 0 l0 71 l224 0 q1 7 1 22 l2 202 l-187 0 l0 72 l187 0 l0 161 l78 -4 l0 -157 l245 0 l0 -296 l102 0 l0 -71 l-336 0 ZM185 459 q-15 54 -51.5 137 q-36.5 83 -65.5 132 l66 32 q29 -46 67.5 -128 q38.5 -82 55.5 -133 l-72 -40 ZM571 349 l176 0 l0 224 l-174 0 l-1 -198 q0 -17 -1 -26 ZM222 367 l30 -8 q-16 -83 -57 -211.5 q-41 -128.5 -74 -195.5 l-74 24 q33 68 74 194.5 q41 126.5 56 206.5 l45 -10 Z" /><glyph glyph-name="uni51B5" unicode="&#x51b5;" d="M199 461 q-16 54 -57 139.5 q-41 85.5 -72 134.5 l61 33 q31 -45 74 -129 q43 -84 62 -137 l-68 -41 ZM946 123 q-3 -71 -16 -131 q-7 -34 -29 -47 q-22 -13 -79 -15 q-12 -1 -37 -1 q-24 0 -37 1 q-54 2 -76.5 22 q-22.5 20 -22.5 70 l0 316 l-132 0 q0 -27 -2 -49 q-5 -103 -29.5 -170.5 q-24.5 -67.5 -75.5 -118 q-51 -50.5 -143 -106.5 l-48 59 q86 47 133 91.5 q47 44.5 68.5 102 q21.5 57.5 25.5 146.5 q2 22 2 45 l-110 0 l0 400 l514 0 l0 -400 l-130 0 l0 -292 q0 -26 10 -35 q10 -9 40 -11 l35 0 q32 3 43.5 10.5 q11.5 7.5 15.5 30.5 q8 47 10 104 l70 -22 ZM778 668 l-366 0 l0 -259 l366 0 l0 259 ZM269 338 q-37 -122 -70 -215 q-33 -93 -75 -181 l-69 39 q87 165 146 388 l68 -31 Z" /><glyph glyph-name="uni51C6" unicode="&#x51c6;" d="M925 43 l0 -66 l-495 0 l0 -74 l-74 0 l0 561 q-38 -66 -85 -127 l-49 64 q70 87 120 192.5 q50 105.5 78 220.5 l76 -13 q-15 -65 -48 -152 l183 0 q-10 34 -24.5 76 q-14.5 42 -22.5 60 l68 20 q9 -20 26 -70.5 q17 -50.5 28 -85.5 l204 0 l0 -68 l-218 0 l0 -132 l198 0 l0 -65 l-198 0 l0 -132 l198 0 l0 -66 l-198 0 l0 -143 l233 0 ZM197 472 q-16 52 -55 131.5 q-39 79.5 -72 131.5 l61 33 q32 -46 74 -125 q42 -79 60 -130 l-68 -41 ZM430 449 l189 0 l0 132 l-189 0 l0 -132 ZM430 252 l189 0 l0 132 l-189 0 l0 -132 ZM229 317 l31 -15 q-37 -124 -65 -202.5 q-28 -78.5 -70 -166.5 l-70 33 q44 84 76.5 172 q32.5 88 60.5 195 l37 -16 ZM619 186 l-189 0 l0 -143 l189 0 l0 143 Z" /><glyph glyph-name="uni51E0" unicode="&#x51e0;" d="M50 -42 q84 73 122.5 127 q38.5 54 53.5 129 q15 75 15 211 l0 313 l456 0 l0 -671 q0 -26 3.5 -37 q3.5 -11 14.5 -15 q11 -4 36 -6 l21 -1 q27 0 40 3 q13 3 20 14 q7 11 11 36 q10 60 10 128 l73 -27 l-1 -27 q-1 -8 -3.5 -51 q-2.5 -43 -10.5 -81 q-8 -38 -28.5 -54 q-20.5 -16 -69.5 -17 q-15 -1 -45 -1 q-30 0 -45 1 q-58 2 -81.5 24.5 q-23.5 22.5 -23.5 82.5 l0 620 l-299 0 l0 -234 q0 -147 -16.5 -230.5 q-16.5 -83.5 -59 -146.5 q-42.5 -63 -132.5 -146 l-61 56 Z" /><glyph glyph-name="uni51E1" unicode="&#x51e1;" d="M38 -47 q79 74 116.5 129.5 q37.5 55.5 51.5 128 q14 72.5 14 199.5 l0 330 l482 0 l0 -670 q0 -28 5 -42 q5 -14 17.5 -18.5 q12.5 -4.5 36.5 -4.5 l34 0 q28 0 40 11 q12 11 18 43 q9 49 11 130 l69 -26 q-4 -76 -17 -162 q-6 -38 -30 -55.5 q-24 -17.5 -75 -19.5 q-13 -1 -38 -1 q-26 0 -39 1 q-58 2 -85.5 27 q-27.5 25 -27.5 90 l0 618 l-322 0 l0 -251 q0 -135 -17 -217.5 q-17 -82.5 -57.5 -146.5 q-40.5 -64 -121.5 -145 l-65 52 ZM373 517 q48 -42 119 -120.5 q71 -78.5 107 -130.5 l-56 -65 q-35 58 -104.5 140 q-69.5 82 -117.5 124 l52 52 Z" /><glyph glyph-name="uni51FA" unicode="&#x51fa;" d="M784 22 l0 280 l79 -3 l0 -399 l-79 0 l0 48 l-664 0 l0 352 l78 -4 l0 -274 l254 0 l0 357 l-291 0 l0 338 l77 -3 l0 -261 l214 0 l0 352 l75 -2 l0 -350 l216 0 l0 264 l77 -3 l0 -335 l-293 0 l0 -357 l257 0 Z" /><glyph glyph-name="uni51FB" unicode="&#x51fb;" d="M926 343 l-398 0 l0 -313 l228 0 l0 235 l76 -3 l0 -357 l-76 0 l0 54 l-607 0 l0 305 l75 -3 l0 -231 l230 0 l0 313 l-399 0 l0 72 l399 0 l0 169 l-334 0 l0 73 l334 0 l0 153 l74 -2 l0 -151 l333 0 l0 -73 l-333 0 l0 -169 l398 0 l0 -72 Z" /><glyph glyph-name="uni51FD" unicode="&#x51fd;" d="M458 552 l209 123 l-498 0 l0 70 l640 0 l0 -62 l-277 -166 l0 -218 l26 36 q49 -31 121 -86 q72 -55 108 -92 l-40 -64 q-37 41 -101.5 94.5 q-64.5 53.5 -113.5 86.5 l0 -120 q0 -39 -10 -60.5 q-10 -21.5 -35.5 -32 q-25.5 -10.5 -75.5 -14.5 l-49 -4 l-24 72 l55 5 q29 3 42.5 8 q13.5 5 18 15.5 q4.5 10.5 4.5 33.5 l0 375 ZM794 591 l76 -3 l0 -698 l-76 0 l0 41 l-688 0 l0 660 l75 -3 l0 -410 q50 25 115.5 74.5 q65.5 49.5 104.5 89.5 l23 -26 l19 -25 q-45 -44 -112.5 -96.5 q-67.5 -52.5 -111.5 -76.5 l-38 49 l0 -164 l613 0 l0 588 ZM263 545 q32 -27 81.5 -76 q49.5 -49 73.5 -78 l-47 -52 q-27 35 -74.5 83 q-47.5 48 -81.5 78 l48 45 ZM566 379 q87 69 156 157 l50 -47 q-57 -74 -157 -163 l-49 53 Z" /><glyph glyph-name="uni5206" unicode="&#x5206;" d="M605 808 q51 -133 131.5 -225.5 q80.5 -92.5 214.5 -174.5 l-46 -69 q-94 58 -157.5 116 q-63.5 58 -113 135 q-49.5 77 -96.5 190 l67 28 ZM436 763 q-58 -128 -139 -224 q-81 -96 -211 -191 l-54 63 q230 141 332 380 l72 -28 ZM209 347 l0 74 l544 0 q-4 -79 -12.5 -200.5 q-8.5 -121.5 -14.5 -172.5 q-6 -47 -16.5 -69.5 q-10.5 -22.5 -33 -31.5 q-22.5 -9 -68.5 -13 l-97 -8 l-29 74 l98 7 q27 2 40 8.5 q13 6.5 18.5 20.5 q5.5 14 9.5 43 q5 37 11 127.5 q6 90.5 9 140.5 l-265 0 l-5 -64 q-10 -93 -34.5 -155 q-24.5 -62 -81.5 -117 q-57 -55 -165 -115 l-50 61 q101 52 151 96 q50 44 70.5 94 q20.5 50 33.5 137 q3 20 6 63 l-119 0 Z" /><glyph glyph-name="uni5207" unicode="&#x5207;" d="M411 227 l18 -80 q-15 -8 -145 -90 l-42 -27 q-28 -18 -50 -37 l-44 65 q19 17 24.5 30.5 q5.5 13.5 5.5 33.5 l0 326 l-136 -17 l-8 75 l144 18 l0 279 l75 -3 l0 -267 l173 22 l3 -75 l-176 -22 l0 -332 l158 101 ZM400 724 l489 0 q-4 -113 -11.5 -323.5 q-7.5 -210.5 -11.5 -323.5 q-3 -52 -18.5 -81 q-15.5 -29 -50.5 -43.5 q-35 -14.5 -99 -20.5 l-61 -6 l-27 79 l77 6 q40 3 60 11.5 q20 8.5 29 27.5 q9 19 11 57 q5 99 11 269.5 q6 170.5 9 268.5 l-196 0 q-2 -96 -5 -153 q-7 -163 -27.5 -258.5 q-20.5 -95.5 -69 -172 q-48.5 -76.5 -146.5 -169.5 l-65 54 q97 90 142 155.5 q45 65.5 63.5 151.5 q18.5 86 25.5 246 q3 54 5 146 l-134 0 l0 79 Z" /><glyph glyph-name="uni520A" unicode="&#x520a;" d="M785 795 l78 -3 l0 -756 q0 -43 -12 -67.5 q-12 -24.5 -44.5 -37 q-32.5 -12.5 -94.5 -16.5 l-61 -4 l-25 77 l78 4 q39 2 55.5 9 q16.5 7 21 21 q4.5 14 4.5 45 l0 728 ZM487 664 l-174 0 l0 -262 l199 0 l0 -74 l-199 0 l0 -420 l-76 0 l0 420 l-198 0 l0 74 l198 0 l0 262 l-153 0 l0 76 l403 0 l0 -76 ZM571 712 l74 -3 l0 -594 l-74 0 l0 597 Z" /><glyph glyph-name="uni5212" unicode="&#x5212;" d="M546 537 l-286 -50 q12 -150 31 -248 q92 99 153 219 l59 -37 q-80 -151 -192 -263 q19 -67 46 -110 q18 -29 31 -40 q13 -11 25 -11 q16 0 27 15.5 q11 15.5 20 55.5 q13 60 17 93 l65 -31 q-11 -56 -23 -101 q-29 -114 -106 -114 q-31 0 -60.5 21.5 q-29.5 21.5 -60.5 74.5 q-24 42 -41 92 q-76 -63 -171 -122 l-46 53 q110 66 196 145 q-28 120 -41 296 l-126 -22 l-10 68 l131 22 l-3 61 q-8 166 -8 192 l74 -4 l7 -198 l2 -39 l280 48 l10 -66 ZM800 796 l71 -5 l0 -759 q0 -42 -9.5 -63.5 q-9.5 -21.5 -34.5 -32 q-25 -10.5 -76 -14.5 l-88 -7 l-23 72 l92 7 q31 2 44.5 7 q13.5 5 18.5 17.5 q5 12.5 5 40.5 l0 737 ZM422 604 q-26 34 -61 71 q-35 37 -65 62 l41 42 q30 -24 66 -60.5 q36 -36.5 63 -69.5 l-44 -45 ZM610 717 l70 -5 l0 -587 l-70 0 l0 592 Z" /><glyph glyph-name="uni5217" unicode="&#x5217;" d="M802 793 l77 -3 l0 -754 q0 -42 -13.5 -66.5 q-13.5 -24.5 -46.5 -37.5 q-33 -13 -95 -17 l-61 -4 l-25 77 l75 4 q38 2 57 9 q19 7 25.5 21.5 q6.5 14.5 6.5 42.5 l0 728 ZM82 674 l0 72 l479 0 l0 -72 l-235 0 q-19 -71 -47 -142 l234 0 l0 -68 q-29 -130 -77.5 -229 q-48.5 -99 -126 -183 q-77.5 -84 -195.5 -168 l-49 62 q115 79 186 152.5 q71 73.5 114 159.5 q43 86 72 204 l-187 0 q-25 -54 -44 -88 q27 -19 65 -52 q38 -33 60 -56 l-43 -68 q-18 24 -52 56 q-34 32 -67 58 q-45 -70 -88 -121 l-51 51 q73 84 133 203 q60 119 86 229 l-167 0 ZM609 702 l74 -3 l0 -574 l-74 0 l0 577 Z" /><glyph glyph-name="uni5219" unicode="&#x5219;" d="M726 -3 q33 2 48 9 q15 7 19.5 20.5 q4.5 13.5 4.5 41.5 l0 725 l70 -2 l0 -738 q0 -46 -9 -70.5 q-9 -24.5 -35.5 -37.5 q-26.5 -13 -81.5 -17 l-62 -5 l-25 70 l71 4 ZM112 162 l0 591 l388 0 l0 -589 l-68 0 l0 515 l-251 0 l0 -517 l-69 0 ZM620 124 l0 587 l67 -2 l0 -585 l-67 0 ZM35 -36 q97 59 147 112.5 q50 53.5 69.5 120.5 q19.5 67 19.5 172 l0 247 l70 -3 l0 -261 q0 -111 -23.5 -186.5 q-23.5 -75.5 -78 -135.5 q-54.5 -60 -154.5 -122 l-50 56 ZM347 177 q42 -31 104.5 -85.5 q62.5 -54.5 90.5 -84.5 l-44 -60 q-32 39 -91 94 q-59 55 -96 80 l36 56 Z" /><glyph glyph-name="uni521A" unicode="&#x521a;" d="M813 784 l70 -3 l0 -756 q0 -43 -10.5 -65 q-10.5 -22 -37.5 -33.5 q-27 -11.5 -82 -17.5 l-45 -5 l-25 72 l56 4 q34 3 49 8.5 q15 5.5 20 18 q5 12.5 5 39.5 l0 738 ZM98 -92 l0 837 l468 0 l0 -720 q0 -42 -11.5 -65 q-11.5 -23 -39 -33.5 q-27.5 -10.5 -78.5 -15.5 l-43 -4 l-25 69 l55 5 q32 3 47.5 9 q15.5 6 22 19 q6.5 13 6.5 40 l0 628 l-336 0 l0 -571 q75 107 141 240 q-71 142 -127 230 l54 31 q45 -69 107 -188 q46 99 77 193 l63 -17 q-39 -118 -101 -252 q75 -154 105 -238 l-55 -44 q-27 82 -87 208 q-57 -111 -123 -210 l-54 37 l0 -188 l-66 0 ZM653 694 l66 -3 l0 -573 l-66 0 l0 576 Z" /><glyph glyph-name="uni521B" unicode="&#x521b;" d="M598 537 l-51 -64 q-34 44 -99 105.5 q-65 61.5 -123 107.5 q-104 -148 -255 -258 l-44 57 q93 65 173 156 q80 91 117 175 l76 -22 q-15 -27 -28 -49 q54 -41 124 -103.5 q70 -62.5 110 -104.5 ZM806 799 l74 -4 l0 -772 q0 -39 -8.5 -58.5 q-8.5 -19.5 -31 -28.5 q-22.5 -9 -71.5 -14 l-77 -8 l-26 76 l86 8 q25 2 35.5 6 q10.5 4 14.5 15.5 q4 11.5 4 36.5 l0 743 ZM624 726 l71 -4 l0 -578 l-71 0 l0 582 ZM485 125 l70 -31 q-2 -21 -11 -79 q-7 -47 -31.5 -64.5 q-24.5 -17.5 -71.5 -19.5 q-48 -3 -87 -3 q-38 0 -123 5 q-47 3 -66.5 25.5 q-19.5 22.5 -19.5 68.5 l0 455 l342 0 l-5 -220 q-2 -54 -24.5 -76 q-22.5 -22 -75.5 -27 l-55 -6 l-25 65 l56 4 q34 3 45 13.5 q11 10.5 13 37.5 l4 105 l1 37 l-205 0 l0 -377 q0 -19 8 -27 q8 -8 38 -11 q48 -4 87 -4 q40 0 80 4 q25 2 33.5 11 q8.5 9 12.5 31 q6 32 8 56 q2 24 2 27 Z" /><glyph glyph-name="uni521D" unicode="&#x521d;" d="M382 161 q-44 50 -125 113 l0 -372 l-73 0 l0 428 q-43 -49 -121 -125 l-43 52 q78 65 146.5 149 q68.5 84 109.5 164 l-208 0 l0 72 l130 0 q-20 106 -33 160 l67 12 q12 -52 35 -172 l91 0 l0 -65 q-43 -82 -101 -158 l0 -65 l31 -21 q28 29 58.5 68 q30.5 39 47.5 67 l51 -39 q-20 -29 -49 -68.5 q-29 -39.5 -54 -68.5 q52 -42 78 -68 l-38 -63 ZM396 722 l483 0 l-28 -656 q-2 -53 -18 -83.5 q-16 -30.5 -51.5 -45 q-35.5 -14.5 -99.5 -18.5 l-63 -4 l-26 79 l78 5 q41 2 63 10.5 q22 8.5 32 29 q10 20.5 12 59.5 l22 549 l-199 0 q-1 -50 -5 -159 q-5 -149 -26.5 -241.5 q-21.5 -92.5 -67.5 -167 q-46 -74.5 -140 -183.5 l-64 44 q93 94 137 165.5 q44 71.5 62 156 q18 84.5 27 235.5 q3 33 5 150 l-133 0 l0 75 Z" /><glyph glyph-name="uni5220" unicode="&#x5220;" d="M821 789 l69 -2 l0 -757 q0 -42 -11.5 -66.5 q-11.5 -24.5 -40.5 -37.5 q-29 -13 -82 -16 l-51 -3 l-22 65 l62 4 q35 2 50.5 6 q15.5 4 20.5 14 q5 10 5 32 l0 761 ZM599 749 l0 -338 l55 0 l0 -66 l-55 0 l0 -324 q0 -55 -20.5 -75.5 q-20.5 -20.5 -73.5 -25.5 l-33 -3 l-21 68 l38 4 q19 2 28 7 q9 5 12 17 q3 12 3 39 l1 293 l-78 0 q-1 -117 -8.5 -192.5 q-7.5 -75.5 -23.5 -132 q-16 -56.5 -46 -119.5 l-62 25 q30 63 45.5 114 q15.5 51 22 120 q6.5 69 8.5 185 l-65 0 l0 -313 q0 -38 -7.5 -58.5 q-7.5 -20.5 -26 -30.5 q-18.5 -10 -54.5 -13 l-34 -3 l-19 68 l35 4 q26 2 34 11 q8 9 8 41 l0 294 l-73 0 q-1 -120 -9.5 -194 q-8.5 -74 -26 -127.5 q-17.5 -53.5 -51.5 -119.5 l-61 30 q33 64 49.5 112 q16.5 48 24 115.5 q7.5 67.5 9.5 183.5 l-73 0 l0 66 l73 0 l0 10 l0 328 l202 0 l0 -338 l65 0 l0 10 l0 328 l208 0 ZM682 699 l67 -2 l0 -567 l-67 0 l0 569 ZM189 682 l0 -271 l73 0 l0 271 l-73 0 ZM455 682 l0 -271 l78 0 l1 271 l-79 0 Z" /><glyph glyph-name="uni5229" unicode="&#x5229;" d="M799 793 l78 -3 l0 -752 q0 -45 -14 -70 q-14 -25 -48 -38 q-34 -13 -97 -17 l-61 -4 l-26 76 l77 4 q39 2 58 9 q19 7 26 22.5 q7 15.5 7 45.5 l0 727 ZM382 360 q32 -26 82 -78 q50 -52 76 -85 l-49 -62 q-23 35 -69.5 85.5 q-46.5 50.5 -82.5 81.5 l1 -396 l-75 0 l0 411 q-70 -137 -181 -254 l-56 54 q68 67 127 151 q59 84 100 175 l-188 0 l0 73 l198 0 l0 142 q-105 -16 -177 -22 l-15 69 q89 7 215.5 26.5 q126.5 19.5 212.5 39.5 l13 -68 q-52 -12 -175 -33 l0 -154 l191 0 l0 -73 l-191 0 l0 -128 l43 45 ZM589 710 l75 -3 l0 -588 l-75 0 l0 591 Z" /><glyph glyph-name="uni522B" unicode="&#x522b;" d="M788 788 l71 -3 l0 -753 q0 -44 -13 -69 q-13 -25 -45 -38 q-32 -13 -92 -17 l-59 -4 l-26 76 l72 4 q38 2 57.5 9 q19.5 7 27 22.5 q7.5 15.5 7.5 43.5 l0 729 ZM293 454 l-4 -122 l223 0 l-11 -273 q-3 -48 -18.5 -76 q-15.5 -28 -48.5 -41.5 q-33 -13.5 -91 -16.5 l-56 -3 l-25 71 l72 4 q37 2 57 9.5 q20 7.5 29 26.5 q9 19 12 55 q4 89 5 132 l2 41 l-156 0 q-8 -83 -28.5 -142.5 q-20.5 -59.5 -55 -109.5 q-34.5 -50 -95.5 -115 l-66 52 q60 54 94 97.5 q34 43.5 52.5 94 q18.5 50.5 26.5 123.5 l-145 0 l0 71 l151 0 q0 14 2 48 q2 54 2 74 l-108 0 l0 297 l385 0 l0 -297 l-205 0 ZM606 712 l70 -4 l0 -570 l-70 0 l0 574 ZM426 684 l-241 0 l0 -162 l241 0 l0 162 Z" /><glyph glyph-name="uni5230" unicode="&#x5230;" d="M801 787 l74 -3 l0 -756 q0 -45 -13 -70 q-13 -25 -44.5 -37 q-31.5 -12 -92.5 -16 l-58 -4 l-28 75 l71 4 q54 3 72.5 18 q18.5 15 18.5 56 l0 733 ZM583 31 l1 -32 q-305 -30 -534 -48 l-12 71 q116 7 244 20 l0 155 l-201 0 l0 68 l201 0 l0 143 l-128 -6 q-32 -1 -65 -9 l-17 64 q21 5 31 16 q25 27 67 84 q42 57 76 110 l-185 0 l0 71 l509 0 l0 -71 l-241 0 q-33 -51 -74.5 -109 q-41.5 -58 -68.5 -91 l264 12 q-43 64 -74 101 l54 37 q32 -38 80 -106 q48 -68 71 -110 l-59 -46 q-11 25 -33 62 q-75 -3 -134 -6 l0 -146 l200 0 l0 -68 l-200 0 l0 -148 q23 2 51.5 4.5 q28.5 2.5 61.5 6.5 q108 10 114 10 l1 -39 ZM622 709 l72 -3 l0 -587 l-72 0 l0 590 Z" /><glyph glyph-name="uni5236" unicode="&#x5236;" d="M369 593 l0 -122 l213 0 l0 -68 l-213 0 l0 -102 l183 0 l0 -249 q0 -41 -19.5 -57 q-19.5 -16 -70.5 -23 l-35 -5 l-24 65 l35 4 q29 4 38 11.5 q9 7.5 9 31.5 l0 154 l-116 0 l0 -339 l-70 0 l0 339 l-122 0 l0 -271 l-64 0 l0 339 l186 0 l0 102 l-250 0 l0 68 l250 0 l0 122 l-124 0 q-21 -59 -41 -101 l-64 22 q55 122 83 252 l66 -11 q-8 -42 -23 -95 l103 0 l0 139 l70 -3 l0 -136 l193 0 l0 -67 l-193 0 ZM814 787 l70 -3 l0 -755 q0 -42 -10 -64.5 q-10 -22.5 -35.5 -33.5 q-25.5 -11 -74.5 -17 l-63 -7 l-26 72 l67 7 q31 3 45.5 8.5 q14.5 5.5 20.5 18 q6 12.5 6 38.5 l0 736 ZM645 705 l69 -3 l0 -592 l-69 0 l0 595 Z" /><glyph glyph-name="uni524D" unicode="&#x524d;" d="M923 680 l0 -68 l-872 0 l0 68 l252 0 q-13 25 -33.5 58.5 q-20.5 33.5 -28.5 42.5 l66 38 q12 -14 40 -58 q28 -44 35 -60 l-39 -21 l227 0 q57 84 84 146 l73 -32 q-25 -43 -24 -41 q-11 -18 -22.5 -36.5 q-11.5 -18.5 -22.5 -36.5 l265 0 ZM762 545 l73 -4 l0 -517 q0 -41 -8 -62 q-8 -21 -29 -30.5 q-21 -9.5 -63 -12.5 l-64 -5 l-26 71 l81 7 q22 2 29 15 q7 13 7 42 l0 496 ZM126 -90 l0 614 l347 0 l0 -497 q0 -43 -8 -65.5 q-8 -22.5 -28.5 -33 q-20.5 -10.5 -61.5 -13.5 l-54 -4 l-23 68 l66 5 q21 1 29 15 q8 14 8 43 l0 84 l-202 0 l0 -216 l-73 0 ZM644 79 l-69 0 l0 426 l69 -4 l0 -422 ZM401 357 l0 98 l-202 0 l0 -98 l202 0 ZM199 291 l0 -99 l202 0 l0 99 l-202 0 Z" /><glyph glyph-name="uni5254" unicode="&#x5254;" d="M811 792 l69 -2 l0 -759 q0 -43 -10.5 -66 q-10.5 -23 -38.5 -34.5 q-28 -11.5 -83 -15.5 l-54 -4 l-23 72 l64 4 q35 2 50 7.5 q15 5.5 20.5 18.5 q5.5 13 5.5 41 l0 738 ZM137 762 l398 0 l0 -330 l-398 0 l0 330 ZM643 718 l66 -2 l0 -588 l-66 0 l0 590 ZM468 625 l0 78 l-265 0 l0 -78 l265 0 ZM203 568 l0 -77 l265 0 l0 77 l-265 0 ZM258 412 q-19 -39 -39 -71 l351 0 q-3 -50 -9 -144 q-6 -94 -11 -149 q-5 -44 -18 -67.5 q-13 -23.5 -39 -34.5 q-26 -11 -73 -14 l-44 -3 l-21 65 l56 4 q42 2 57.5 16 q15.5 14 19.5 56 q3 38 8.5 104 q5.5 66 7.5 104 l-68 0 q-22 -125 -77.5 -211.5 q-55.5 -86.5 -161.5 -178.5 l-42 50 q98 77 148.5 153.5 q50.5 76.5 73.5 186.5 l-70 0 q-63 -172 -241 -307 l-39 48 q77 52 134 119.5 q57 67.5 84 139.5 l-66 0 q-42 -61 -95 -117 l-46 49 q52 52 90 104.5 q38 52.5 65 114.5 l65 -17 Z" /><glyph glyph-name="uni529B" unicode="&#x529b;" d="M844 604 q-3 -102 -10 -263.5 q-7 -161.5 -12 -269.5 q-3 -56 -21 -86.5 q-18 -30.5 -59 -45 q-41 -14.5 -117 -20.5 l-79 -6 l-26 80 l97 7 q53 3 78 12 q25 9 36 30.5 q11 21.5 13 65.5 q4 83 9 208.5 q5 125.5 7 208.5 l-311 0 q-6 -170 -38.5 -275 q-32.5 -105 -103 -184 q-70.5 -79 -208.5 -177 l-56 65 q129 88 194.5 158.5 q65.5 70.5 96 164 q30.5 93.5 37.5 248.5 l-282 0 l0 79 l284 0 q2 31 4 114 l3 85 l79 -3 q0 -30 -3 -92 q-1 -26 -4 -104 l392 0 Z" /><glyph glyph-name="uni529E" unicode="&#x529e;" d="M754 634 q-29 -470 -37 -572 q-4 -54 -20 -82 q-16 -28 -54 -42 q-38 -14 -116 -23 l-54 -6 l-25 79 l70 6 q50 4 74 12.5 q24 8.5 33.5 28.5 q9.5 20 12.5 61 l9 131 q21 271 23 334 l-238 0 q-10 -186 -40 -293.5 q-30 -107.5 -95.5 -187.5 q-65.5 -80 -199.5 -187 l-58 59 q121 87 183.5 166 q62.5 79 91 178.5 q28.5 99.5 42.5 264.5 l-269 0 l0 73 l273 0 q6 134 6 170 l77 -6 l-8 -164 l319 0 ZM239 439 q-54 -149 -141 -298 l-73 40 q85 124 140 281 l74 -23 ZM812 445 q26 -45 62.5 -131 q36.5 -86 53.5 -141 l-74 -38 q-13 58 -47 145 q-34 87 -62 138 l67 27 Z" /><glyph glyph-name="uni529F" unicode="&#x529f;" d="M870 604 q-3 -102 -8.5 -260.5 q-5.5 -158.5 -9.5 -262.5 q-3 -62 -18 -92 q-15 -30 -48.5 -43 q-33.5 -13 -103.5 -19 l-66 -6 l-26 77 l84 6 q46 4 65 11 q19 7 26.5 27.5 q7.5 20.5 10.5 69.5 q4 86 9 225 q5 139 6 192 l-191 0 q-5 -180 -25 -280 q-20 -100 -70 -177 q-50 -77 -156 -179 l-65 47 q106 98 152.5 169.5 q46.5 71.5 62 156.5 q15.5 85 25.5 263 l-114 0 l0 75 l117 0 l5 199 l75 -3 l-5 -196 l268 0 ZM427 197 l4 -38 q-70 -24 -189 -56 q-119 -32 -187 -45 l-25 76 q63 10 170 37 l0 442 l-134 0 l0 71 l334 0 l0 -71 l-126 0 l0 -422 q99 28 147 46 l6 -40 Z" /><glyph glyph-name="uni52A0" unicode="&#x52a0;" d="M271 802 q0 -71 -3 -167 l206 0 q-13 -559 -13 -588 q0 -58 -21 -83.5 q-21 -25.5 -78 -31.5 l-81 -8 l-25 78 l88 8 q23 2 32 16.5 q9 14.5 9 43.5 q1 23 10 405 l2 86 l-131 0 l0 -1 q-6 -170 -25.5 -283.5 q-19.5 -113.5 -54.5 -197.5 q-35 -84 -96 -174 l-69 37 q59 80 93 158.5 q34 78.5 53 186 q19 107.5 25 269.5 l0 5 l-120 0 l0 74 l122 0 l2 171 l75 -4 ZM556 -81 l0 770 l326 0 l0 -770 l-75 0 l0 82 l-177 0 l0 -82 l-74 0 ZM630 615 l0 -541 l177 0 l0 541 l-177 0 Z" /><glyph glyph-name="uni52A1" unicode="&#x52a1;" d="M945 372 l-27 -71 q-164 36 -260 63.5 q-96 27.5 -172 65.5 q-172 -88 -425 -145 l-33 68 q227 47 384 119 q-76 51 -150 129 q-64 -63 -146 -123 l-46 46 q80 59 156 140.5 q76 81.5 119 151.5 l68 -28 q-26 -42 -49 -71 l431 0 l0 -61 q-121 -114 -233 -183 q141 -62 383 -101 ZM487 511 q103 57 197 144 l-371 0 l-2 -2 q85 -90 176 -142 ZM463 350 q-9 -64 -12 -86 l354 0 q-5 -44 -13.5 -113 q-8.5 -69 -14.5 -114 q-7 -44 -20 -67 q-13 -23 -34.5 -32 q-21.5 -9 -61.5 -13 l-108 -10 l-23 67 l105 9 q31 3 45.5 18 q14.5 15 21.5 53 q5 31 10 71.5 q5 40.5 8 65.5 l-281 0 q-19 -79 -58.5 -134.5 q-39.5 -55.5 -108 -96.5 q-68.5 -41 -176.5 -75 l-37 63 q139 40 207.5 95.5 q68.5 55.5 93.5 147.5 l-225 0 l0 65 l238 0 q8 53 11 93 l79 -7 Z" /><glyph glyph-name="uni52A8" unicode="&#x52a8;" d="M886 605 q-3 -103 -8.5 -269.5 q-5.5 -166.5 -10.5 -277.5 q-2 -48 -15 -73 q-13 -25 -43 -37 q-30 -12 -91 -19 l-58 -7 l-23 78 l65 5 q40 4 58.5 11.5 q18.5 7.5 26.5 24.5 q8 17 10 53 q4 87 9 219 q5 132 8 219 l-159 0 q-6 -191 -19 -290.5 q-13 -99.5 -50 -179.5 q-37 -80 -118 -177 l-64 45 q78 87 113.5 159.5 q35.5 72.5 47.5 165.5 q12 93 18 277 l-122 0 l0 73 l123 0 l4 198 l73 -4 l-3 -194 l228 0 ZM105 725 l354 0 l0 -71 l-354 0 l0 71 ZM419 -1 q-7 26 -15 53 l-252 -36 q-25 -3 -63 -16 l-28 76 q18 7 26.5 17 q8.5 10 17.5 27 q22 45 54 129.5 q32 84.5 53 155.5 l-158 0 l0 72 l436 0 l0 -72 l-201 0 q-23 -78 -57.5 -172 q-34.5 -94 -58.5 -139 l207 28 q-37 104 -74 175 l67 26 q29 -58 63.5 -144.5 q34.5 -86.5 47.5 -138.5 l-65 -41 Z" /><glyph glyph-name="uni52A9" unicode="&#x52a9;" d="M882 618 q0 -49 -6 -251 q-6 -202 -13 -318 q-3 -43 -12 -66.5 q-9 -23.5 -30 -34.5 q-21 -11 -61 -15 l-82 -8 l-25 74 l86 7 q27 2 37.5 15 q10.5 13 12.5 51 q6 100 11 244 q5 144 7 232 l-138 0 q0 -16 -2 -52 l-2 -31 q-6 -131 -20.5 -217.5 q-14.5 -86.5 -63.5 -178.5 q-49 -92 -150 -176 l-60 48 q76 59 119 122 q-92 -19 -228 -41.5 q-136 -22.5 -166 -27.5 l-55 -9 l-12 74 l36 6 q31 3 58 9 l0 666 l318 0 l0 -612 l48 10 l5 -70 q54 78 74 174 q20 96 25 245 l1 61 l-111 0 l0 70 l113 0 l2 183 l75 -4 q0 -4 0.5 -14.5 q0.5 -10.5 0.5 -30.5 l-2 -134 l210 0 ZM370 524 l0 147 l-176 0 l0 -147 l176 0 ZM194 321 l176 0 l0 136 l-176 0 l0 -136 ZM194 255 l0 -170 q122 20 176 30 l0 140 l-176 0 Z" /><glyph glyph-name="uni52BF" unicode="&#x52bf;" d="M41 493 q99 15 192 33 l0 100 l-159 0 l0 62 l159 0 l0 111 l69 -2 l0 -109 l117 0 l0 -62 l-117 0 l0 -86 q47 9 92 22 l3 -31 l4 -30 q-37 -10 -99 -23 l0 -100 q0 -35 -10 -54 q-10 -19 -35 -28 q-25 -9 -73 -12 l-47 -4 l-24 62 l56 3 q29 2 42 6.5 q13 4.5 17.5 14 q4.5 9.5 4.5 30.5 l0 68 q-92 -18 -185 -33 l-7 62 ZM946 443 q-16 -64 -35 -106 q-11 -24 -27.5 -38.5 q-16.5 -14.5 -37.5 -14.5 q-26 0 -48.5 22.5 q-22.5 22.5 -37.5 70.5 q-7 26 -12 80 q-5 54 -5 103 l0 63 l-135 0 q-2 -79 -17 -131 q83 -39 131 -70 l-29 -70 q-43 34 -127 78 q-20 -35 -52 -67 q-32 -32 -83 -68 l33 0 q-4 -44 -7 -65 l370 0 q-3 -38 -8 -94.5 q-5 -56.5 -9 -94.5 q-4 -44 -19 -67 q-15 -23 -51.5 -35 q-36.5 -12 -108.5 -19 l-59 -6 l-26 73 l77 6 q47 4 68.5 10 q21.5 6 31 20 q9.5 14 14.5 43 q3 17 11 100 l-300 0 q-16 -77 -56.5 -127 q-40.5 -50 -115.5 -86 q-75 -36 -202 -69 l-30 71 q113 28 177.5 55 q64.5 27 98.5 63.5 q34 36.5 48 92.5 l-259 0 l0 64 l270 0 l6 65 l27 0 l-42 44 q52 33 84 61.5 q32 28.5 50 59.5 q-55 27 -95 39 l27 58 q32 -10 92 -36 q9 38 11 102 l-93 0 l0 65 l94 0 l1 111 l69 -2 l-1 -109 l199 0 l0 -122 q0 -53 3.5 -100 q3.5 -47 9.5 -70 q11 -36 25 -36 q8 0 16.5 10 q8.5 10 13.5 28 q13 54 16 74 l54 -29 Z" /><glyph glyph-name="uni5305" unicode="&#x5305;" d="M922 109 q-10 -75 -26 -126 q-9 -32 -41 -46 q-32 -14 -108 -17 q-93 -4 -208 -4 q-124 0 -227 4 q-55 2 -85.5 13.5 q-30.5 11.5 -45 40 q-14.5 28.5 -14.5 82.5 l0 434 q-42 -50 -81 -89 l-66 55 q81 75 145.5 167.5 q64.5 92.5 100.5 183.5 l84 -17 q-16 -37 -41 -87 l511 0 q0 -22 -1 -42 q-7 -389 -9 -420 q-3 -53 -17.5 -81 q-14.5 -28 -49 -42 q-34.5 -14 -101.5 -21 l-55 -6 l-23 75 l73 5 q43 3 62 11 q19 8 25.5 25.5 q6.5 17.5 9.5 57.5 q3 53 7 284 l2 83 l-475 0 q-38 -63 -85 -122 l386 0 l0 -309 l-328 0 l0 -127 q0 -35 7.5 -51.5 q7.5 -16.5 25.5 -22 q18 -5.5 56 -7.5 q92 -4 204 -4 q111 0 203 4 q46 1 66 10.5 q20 9.5 25 32.5 q11 41 17 102 l77 -29 ZM497 275 l0 164 l-256 0 l0 -164 l256 0 Z" /><glyph glyph-name="uni5316" unicode="&#x5316;" d="M373 760 q-39 -114 -100 -224 l0 -644 l-78 0 l0 519 q-52 -75 -120 -152 l-50 56 q87 101 159 223.5 q72 122.5 115 245.5 l74 -24 ZM925 166 q-2 -70 -14 -130 q-9 -44 -22.5 -66.5 q-13.5 -22.5 -40 -33 q-26.5 -10.5 -76.5 -12.5 q-48 -2 -74 -2 q-24 0 -74 2 q-52 2 -81 13.5 q-29 11.5 -42 38.5 q-13 27 -13 77 l0 173 q-82 -56 -157 -98 l-40 66 q108 61 197 126 l0 464 l79 -5 l0 -399 q151 122 277 273 l57 -56 q-162 -184 -334 -314 l0 -212 q0 -42 16 -55.5 q16 -13.5 60 -15.5 q38 -2 58 -2 q19 0 57 2 q31 1 46 6.5 q15 5.5 22.5 18 q7.5 12.5 12.5 39.5 q8 40 12 127 l74 -25 Z" /><glyph glyph-name="uni5317" unicode="&#x5317;" d="M931 158 q-2 -80 -12 -142 q-5 -33 -16.5 -49 q-11.5 -16 -27 -22 q-15.5 -6 -45.5 -10 l-194 0 q-49 5 -68 26 q-19 21 -19 68 l0 772 l80 -3 l0 -315 q137 70 237 158 l47 -69 q-103 -85 -283 -175 l-1 2 l0 -345 q0 -41 39 -46 l145 0 q21 4 28 13 q7 9 10 30 q7 49 9 129 l71 -22 ZM325 549 l0 248 l78 -3 l0 -888 l-78 0 l0 205 q-47 -27 -118 -59 q-71 -32 -138 -57 l-34 75 q71 21 157.5 59.5 q86.5 38.5 132.5 67.5 l0 278 l-243 0 l0 74 l243 0 Z" /><glyph glyph-name="uni5319" unicode="&#x5319;" d="M581 218 l0 559 l69 -4 l0 -275 q98 60 188 157 l45 -59 q-52 -49 -114.5 -96 q-62.5 -47 -118.5 -79 l0 -189 q0 -35 12 -47 q12 -12 46 -12 l39 0 q33 0 46.5 9 q13.5 9 18.5 35 q10 49 12 108 l68 -25 q-1 -60 -18 -133 q-8 -32 -34 -47.5 q-26 -15.5 -83 -18.5 l-29 -1 q-57 0 -87 8 q-30 8 -45 33 q-15 25 -15 77 ZM125 754 l351 0 l0 -323 l-351 0 l0 323 ZM402 622 l0 73 l-206 0 l0 -73 l206 0 ZM196 564 l0 -73 l206 0 l0 73 l-206 0 ZM605 0 q164 0 325 7 l-19 -74 q-165 -5 -293 -5 q-57 0 -175 2 q-72 2 -122 13 q-50 11 -89.5 39 q-39.5 28 -70.5 80 q-27 -73 -81 -157 l-60 32 q56 73 79.5 141 q23.5 68 31.5 177 l68 -4 q-6 -62 -16 -109 q24 -48 50.5 -76.5 q26.5 -28.5 61.5 -42.5 l0 268 l-243 0 l0 63 l489 0 l0 -63 l-180 0 l0 -109 l158 0 l0 -63 l-158 0 l0 -113 q26 -3 83 -5 q55 -1 161 -1 Z" /><glyph glyph-name="uni5339" unicode="&#x5339;" d="M204 21 l718 0 l0 -75 l-795 0 l0 790 l786 0 l0 -76 l-243 0 l0 -357 q0 -33 11 -45.5 q11 -12.5 42 -12.5 l30 0 q31 0 44.5 9.5 q13.5 9.5 18.5 34.5 q8 38 10 103 l67 -23 q-5 -81 -17 -135 q-7 -34 -32.5 -48.5 q-25.5 -14.5 -85.5 -14.5 l-58 0 q-55 0 -80 24 q-25 24 -25 83 l0 382 l-133 0 l0 -162 q0 -96 -14.5 -158.5 q-14.5 -62.5 -53 -114.5 q-38.5 -52 -113.5 -110 l-55 50 q73 58 106 102.5 q33 44.5 43.5 95 q10.5 50.5 10.5 140.5 l0 157 l-182 0 l0 -639 Z" /><glyph glyph-name="uni533A" unicode="&#x533a;" d="M210 673 l0 -653 l717 0 l0 -73 l-798 0 l0 801 l774 0 l0 -75 l-693 0 ZM229 126 q148 94 284 225 q-155 150 -240 218 l53 55 q101 -84 242 -218 q107 111 184 228 l65 -47 q-85 -120 -194 -234 q138 -131 226 -227 l-51 -67 q-93 103 -230 239 q-145 -141 -288 -237 l-51 65 Z" /><glyph glyph-name="uni5341" unicode="&#x5341;" d="M530 456 l393 0 l0 -76 l-393 0 l0 -474 l-81 0 l0 474 l-392 0 l0 76 l392 0 l0 347 l81 -3 l0 -344 Z" /><glyph glyph-name="uni5347" unicode="&#x5347;" d="M928 432 l0 -73 l-205 0 l0 -453 l-79 0 l0 453 l-278 0 q-3 -113 -26 -188 q-23 -75 -74 -135.5 q-51 -60.5 -147 -133.5 l-62 61 q98 72 144 122.5 q46 50.5 64.5 111 q18.5 60.5 20.5 162.5 l-228 0 l0 73 l228 0 l0 212 q-109 -18 -178 -24 l-17 68 q114 11 239 34 q125 23 218 49 l17 -68 q-95 -25 -198 -45 l0 -226 l277 0 l0 366 l79 -3 l0 -363 l205 0 Z" /><glyph glyph-name="uni534E" unicode="&#x534e;" d="M215 554 q-54 -59 -138 -131 l-46 52 q85 74 158 160 q73 86 122 173 l61 -27 q-42 -77 -84 -136 l0 -365 l-73 0 l0 274 ZM300 495 q123 37 201 69 l0 235 l78 -3 l0 -199 q137 62 263 147 l35 -63 q-136 -94 -298 -165 l0 -73 q0 -37 14 -50.5 q14 -13.5 50 -16.5 q38 -2 56 -2 q19 0 55 2 q38 3 54 12 q16 9 21 30 q7 28 11 85 l71 -26 q-2 -47 -21 -112 q-7 -27 -34 -40 q-27 -13 -88 -17 q-52 -2 -78 -2 q-27 0 -79 2 q-58 3 -84 26.5 q-26 23.5 -26 85.5 l0 64 q-79 -30 -168 -58 l-33 69 ZM529 187 l397 0 l0 -74 l-397 0 l0 -216 l-78 0 l0 216 l-395 0 l0 74 l395 0 l0 113 l78 -3 l0 -110 Z" /><glyph glyph-name="uni534F" unicode="&#x534f;" d="M900 174 q-23 79 -97 228 l-20 -347 q-3 -53 -15 -79 q-12 -26 -37.5 -37 q-25.5 -11 -77.5 -16 l-60 -6 l-25 76 l61 5 q36 3 51.5 9.5 q15.5 6.5 21.5 22.5 q6 16 9 54 q2 43 20 342 q4 92 7 127 l-162 0 l0 -11 q-6 -168 -27 -274.5 q-21 -106.5 -69 -191 q-48 -84.5 -139 -178.5 l-63 43 q86 86 131.5 168.5 q45.5 82.5 65.5 181.5 q20 99 28 255 l0 7 l-162 0 l0 72 l165 0 l4 182 l72 -3 l-4 -179 l236 0 q0 -19 -11 -206 l53 27 q84 -159 107 -227 l-63 -45 ZM325 541 l0 -72 l-106 0 l0 -564 l-72 0 l0 564 l-97 0 l0 72 l97 0 l0 264 l72 -3 l0 -261 l106 0 ZM440 438 q-19 -66 -48 -140.5 q-29 -74.5 -56 -131.5 l-67 26 q32 59 60 129.5 q28 70.5 46 137.5 l65 -21 Z" /><glyph glyph-name="uni5355" unicode="&#x5355;" d="M920 142 l0 -72 l-393 0 l0 -177 l-74 0 l0 177 l-393 0 l0 72 l393 0 l0 108 l-290 0 l0 420 l162 0 q-33 66 -70 113 l60 34 q21 -25 45.5 -62.5 q24.5 -37.5 38.5 -64.5 l-29 -20 l193 0 q27 34 54 76 q27 42 42 72 l67 -29 q-26 -51 -74 -119 l165 0 l0 -420 l-290 0 l0 -108 l393 0 ZM453 495 l0 110 l-216 0 l0 -110 l216 0 ZM527 495 l214 0 l0 110 l-214 0 l0 -110 ZM237 430 l0 -110 l216 0 l0 110 l-216 0 ZM527 430 l0 -110 l214 0 l0 110 l-214 0 Z" /><glyph glyph-name="uni5357" unicode="&#x5357;" d="M924 634 l-400 0 l0 -98 l333 0 l0 -521 q-1 -41 -10.5 -60.5 q-9.5 -19.5 -33.5 -27.5 q-24 -8 -76 -12 l-58 -5 l-20 70 l73 6 q23 2 33 7 q10 5 13.5 16.5 q3.5 11.5 3.5 36.5 l0 423 l-598 0 l0 -557 l-71 0 l0 624 l336 0 l0 98 l-396 0 l0 68 l396 0 l0 96 l75 -3 l0 -93 l400 0 l0 -68 ZM738 107 l-217 0 l0 -175 l-72 0 l0 175 l-210 0 l0 62 l210 0 l0 88 l-192 0 l0 63 l122 0 q-34 48 -71 91 l52 40 q43 -51 87 -114 l-21 -17 l84 0 q52 63 93 132 l59 -37 q-34 -52 -68 -95 l125 0 l0 -63 l-198 0 l0 -88 l217 0 l0 -62 Z" /><glyph glyph-name="uni535A" unicode="&#x535a;" d="M574 571 l0 69 l-254 0 l0 59 l254 0 l0 102 l65 -3 l0 -99 l139 0 q-36 43 -75 78 l45 39 q21 -18 52 -49 q31 -31 47 -51 l-16 -17 l89 0 l0 -59 l-281 0 l0 -69 l234 0 l0 -353 l-69 0 l0 54 l-165 0 l0 -47 l-65 0 l0 47 l-160 0 l0 -54 l-67 0 l0 353 l227 0 ZM312 560 l0 -74 l-93 0 l0 -585 l-70 0 l0 585 l-99 0 l0 74 l99 0 l0 239 l70 -3 l0 -236 l93 0 ZM574 450 l0 66 l-160 0 l0 -66 l160 0 ZM804 450 l0 66 l-165 0 l0 -66 l165 0 ZM414 396 l0 -68 l160 0 l0 68 l-160 0 ZM639 396 l0 -68 l165 0 l0 68 l-165 0 ZM939 178 l0 -61 l-148 0 l0 -99 q0 -44 -11 -66 q-11 -22 -39.5 -32.5 q-28.5 -10.5 -86.5 -13.5 l-56 -3 l-23 67 l69 4 q35 2 51.5 8 q16.5 6 22.5 18.5 q6 12.5 6 38.5 l0 78 l-293 0 q30 -21 70 -51.5 q40 -30.5 61 -50.5 l-42 -61 q-21 25 -62 59 q-41 34 -75 57 l35 47 l-144 0 l0 61 l450 0 l0 61 l67 -3 l0 -58 l148 0 Z" /><glyph glyph-name="uni5360" unicode="&#x5360;" d="M906 657 l0 -76 l-406 0 l0 -187 l332 0 l0 -486 l-80 0 l0 62 l-521 0 l0 -62 l-77 0 l0 486 l267 0 l0 412 l79 -3 l0 -146 l406 0 ZM231 44 l521 0 l0 275 l-521 0 l0 -275 Z" /><glyph glyph-name="uni5361" unicode="&#x5361;" d="M499 600 l0 -167 l420 0 l0 -72 l-420 0 l0 -459 l-76 0 l0 459 l-364 0 l0 72 l364 0 l0 370 l76 -3 l0 -127 l338 0 l0 -73 l-338 0 ZM545 291 q68 -30 171 -88.5 q103 -58.5 155 -97.5 l-35 -69 q-77 56 -169 110.5 q-92 54.5 -156 82.5 l34 62 Z" /><glyph glyph-name="uni5370" unicode="&#x5370;" d="M468 721 q-60 -24 -134 -47 q-74 -23 -134 -36 l0 -189 l257 0 l0 -75 l-257 0 l0 -264 l257 76 l5 -79 q-50 -14 -135.5 -39.5 q-85.5 -25.5 -136.5 -41.5 q-45 -17 -64 -25 l-30 68 q16 11 22.5 21 q6.5 10 6.5 23 l0 586 q65 13 158.5 40 q93.5 27 161.5 53 l23 -71 ZM513 725 l365 0 l0 -568 q0 -46 -12 -69.5 q-12 -23.5 -36.5 -32.5 q-24.5 -9 -72.5 -15 l-59 -7 l-25 73 l65 6 q31 3 44 11 q13 8 16 21 q3 13 3 43 l0 462 l-212 0 l0 -743 l-76 0 l0 819 Z" /><glyph glyph-name="uni5373" unicode="&#x5373;" d="M362 274 q30 -42 72.5 -116.5 q42.5 -74.5 67.5 -131.5 l-65 -43 q-22 52 -47 103 q-63 -32 -228 -109 q-23 -10 -49 -26 l-38 61 q18 15 25.5 27.5 q7.5 12.5 7.5 27.5 l0 688 l356 0 l0 -455 l-287 0 l0 -236 l181 85 q-35 65 -57 98 l61 27 ZM550 734 l325 0 l0 -567 q0 -41 -7.5 -64 q-7.5 -23 -29 -35 q-21.5 -12 -63.5 -16 l-63 -7 l-27 74 l81 8 q22 2 29 12.5 q7 10.5 7 38.5 l0 481 l-180 0 l0 -752 l-72 0 l0 827 ZM394 563 l0 126 l-217 0 l0 -126 l217 0 ZM177 499 l0 -133 l217 0 l0 133 l-217 0 Z" /><glyph glyph-name="uni5378" unicode="&#x5378;" d="M381 632 l0 -144 l174 0 l0 -68 l-174 0 l0 -122 l155 0 l0 -70 l-155 0 l0 -141 l167 28 l2 -48 l1 -22 q-276 -44 -506 -72 l-7 67 q35 3 92 11 l0 303 l70 -3 l0 -291 l111 16 l0 344 l-246 0 l0 68 l246 0 l0 144 l-99 0 q-34 -64 -71 -118 l-61 39 q40 55 74 123 q34 68 58 138 l68 -21 q-18 -54 -34 -91 l290 0 l0 -70 l-155 0 ZM588 724 l300 0 l0 -566 q0 -42 -11 -64 q-11 -22 -34 -31.5 q-23 -9.5 -66 -13.5 l-44 -5 l-25 73 l51 4 q28 3 39.5 7.5 q11.5 4.5 15.5 16.5 q4 12 4 39 l0 468 l-158 0 l0 -749 l-72 0 l0 821 Z" /><glyph glyph-name="uni5382" unicode="&#x5382;" d="M37 -70 q63 99 91 163 q28 64 40.5 151 q12.5 87 12.5 239 l0 249 l729 0 l0 -79 l-650 0 l0 -176 q0 -153 -14.5 -249.5 q-14.5 -96.5 -43.5 -167 q-29 -70.5 -87 -169.5 l-78 39 Z" /><glyph glyph-name="uni5386" unicode="&#x5386;" d="M157 744 l764 0 l0 -76 l-689 0 l0 -261 q0 -118 -11.5 -201.5 q-11.5 -83.5 -38 -154.5 q-26.5 -71 -74.5 -154 l-71 37 q46 78 71 141.5 q25 63.5 37 139 q12 75.5 12 184.5 l0 345 ZM558 630 l-2 -152 l305 0 q-17 -350 -23 -427 q-3 -46 -18 -71.5 q-15 -25.5 -50.5 -38.5 q-35.5 -13 -105.5 -19 l-68 -6 l-29 78 l89 6 q46 3 67 10 q21 7 29 23.5 q8 16.5 11 53.5 q4 59 9.5 158.5 q5.5 99.5 7.5 159.5 l-227 0 q-6 -125 -31.5 -210.5 q-25.5 -85.5 -79 -154 q-53.5 -68.5 -149.5 -142.5 l-60 54 q92 70 142.5 132 q50.5 62 73.5 136 q23 74 28 185 l-192 0 l0 73 l195 0 q3 77 3 155 l75 -3 Z" /><glyph glyph-name="uni538B" unicode="&#x538b;" d="M230 666 l0 -189 q0 -163 -11.5 -259.5 q-11.5 -96.5 -37.5 -165.5 q-26 -69 -78 -157 l-73 34 q53 87 77 147 q24 60 35 148 q11 88 11 245 l0 272 l760 0 l0 -75 l-683 0 ZM597 344 l0 -317 l343 0 l0 -73 l-728 0 l0 73 l304 0 l0 317 l-249 0 l0 74 l249 0 l0 210 l81 -3 l0 -207 l282 0 l0 -74 l-282 0 ZM706 304 q35 -27 91 -88 q56 -61 78 -94 l-53 -55 q-22 34 -78 98 q-56 64 -88 91 l50 48 Z" /><glyph glyph-name="uni539F" unicode="&#x539f;" d="M855 230 l-219 0 l0 -207 q0 -41 -10.5 -61.5 q-10.5 -20.5 -35 -29.5 q-24.5 -9 -72.5 -14 l-60 -6 l-25 71 l56 6 q32 3 45.5 8 q13.5 5 18.5 16.5 q5 11.5 5 37.5 l0 179 l-230 0 l0 356 l184 0 q17 47 32 98 l-315 0 l0 -256 q0 -134 -12 -222.5 q-12 -88.5 -39 -158.5 q-27 -70 -76 -151 l-70 43 q46 74 72 137 q26 63 38 145 q12 82 12 204 l0 330 l773 0 l0 -71 l-300 0 l-8 -24 q-12 -39 -25 -74 l261 0 l0 -356 ZM783 439 l0 85 l-384 0 l0 -85 l384 0 ZM783 377 l-384 0 l0 -85 l384 0 l0 85 ZM469 146 q-57 -90 -197 -220 l-50 51 q57 47 109.5 105 q52.5 58 81.5 106 l56 -42 ZM748 187 q37 -28 97.5 -87 q60.5 -59 102.5 -108 l-51 -53 q-43 55 -96 110 q-53 55 -98 94 l45 44 Z" /><glyph glyph-name="uni53BB" unicode="&#x53bb;" d="M495 301 q-46 -66 -113.5 -146 q-67.5 -80 -118.5 -127 q92 2 455 17 q-87 106 -149 167 l55 46 q53 -50 134.5 -147.5 q81.5 -97.5 122.5 -158.5 l-56 -56 q-25 42 -54 81 q-390 -11 -522 -21 q-58 -4 -109 -13 l-24 75 q27 7 40 13.5 q13 6.5 28 17.5 q42 38 107 113.5 q65 75.5 110 138.5 l-350 0 l0 74 l400 0 l0 202 l-332 0 l0 71 l332 0 l0 162 l74 -2 l0 -160 l333 0 l0 -71 l-333 0 l0 -202 l401 0 l0 -74 l-431 0 Z" /><glyph glyph-name="uni53C2" unicode="&#x53c2;" d="M206 570 q-7 -1 -17 -2 q-10 -1 -26 -2 l-16 59 q18 2 30.5 6 q12.5 4 27.5 11 q75 44 231 177 l53 -45 q-119 -97 -193 -141 l381 19 q-47 35 -98 68 l41 49 l58 -40 q80 -55 123 -86 q43 -31 74 -59 l-37 -64 q-33 33 -85 74 q-104 -8 -366 -15 l-144 -5 q-24 -2 -37 -4 ZM647 428 q106 -115 309 -184 l-39 -68 q-122 52 -208.5 112 q-86.5 60 -145.5 140 l-157 0 q-53 -73 -127.5 -126.5 q-74.5 -53.5 -209.5 -120.5 l-42 57 q100 43 168.5 88 q68.5 45 117.5 102 l-234 0 l0 64 l282 0 q23 36 43 77 l72 -23 q-23 -45 -29 -54 l453 0 l0 -64 l-253 0 ZM603 311 q-80 -40 -155 -66.5 q-75 -26.5 -172 -49.5 l-24 63 q95 20 170 46 q75 26 152 62 l29 -55 ZM179 102 q163 32 273.5 69 q110.5 37 219.5 96 l32 -57 q-105 -57 -218 -95 q-113 -38 -283 -73 l-24 60 ZM125 -41 q224 34 372.5 83 q148.5 49 289.5 130 l36 -60 q-146 -81 -292 -129.5 q-146 -48.5 -380 -87.5 l-26 64 Z" /><glyph glyph-name="uni53C8" unicode="&#x53c8;" d="M898 -92 q-137 55 -235 109 q-98 54 -171 117 q-74 -60 -173 -113 q-99 -53 -237 -109 l-42 76 q132 52 227 101 q95 49 165 102 q-79 84 -136 196 q-57 112 -109 276 l-75 0 l0 78 l694 0 l0 -78 q-49 -164 -107.5 -276 q-58.5 -112 -144.5 -197 q70 -58 164 -107.5 q94 -49.5 222 -96.5 l-42 -78 ZM265 663 q49 -143 103 -243 q54 -100 127 -175 q79 75 131.5 174 q52.5 99 97.5 244 l-459 0 Z" /><glyph glyph-name="uni53CA" unicode="&#x53ca;" d="M900 -95 q-189 89 -310 187 q-129 -106 -349 -196 l-42 70 q108 41 189.5 83.5 q81.5 42.5 144.5 91.5 q-132 125 -201 299 q-17 -153 -73.5 -274.5 q-56.5 -121.5 -165.5 -257.5 l-63 46 q77 91 125 171.5 q48 80.5 75.5 171 q27.5 90.5 34.5 204.5 l8 171 l-168 0 l0 73 l649 0 l0 -74 l-111 -176 l189 0 l0 -71 q-39 -87 -84 -156 q-45 -69 -102 -126 q118 -91 298 -164 l-44 -73 ZM589 190 q99 95 162 234 l-202 0 l0 63 l114 185 l-318 0 l-3 -59 q39 -135 99.5 -239 q60.5 -104 147.5 -184 Z" /><glyph glyph-name="uni53CB" unicode="&#x53cb;" d="M903 -98 q-214 78 -336 172 q-64 -47 -147 -89 q-83 -42 -193 -84 l-41 70 q198 68 321 153 q-106 101 -176 257 q-82 -256 -254 -454 l-57 53 q121 136 189.5 291.5 q68.5 155.5 96.5 329.5 l-237 0 l0 74 l248 0 q8 76 11 134 l81 -6 q-5 -70 -13 -128 l531 0 l0 -74 l-542 0 q-13 -73 -28 -132 l461 0 l0 -71 q-36 -86 -82.5 -153.5 q-46.5 -67.5 -109.5 -123.5 q120 -83 314 -144 l-37 -75 ZM396 398 q70 -141 170 -230 q114 96 174 230 l-344 0 Z" /><glyph glyph-name="uni53CC" unicode="&#x53cc;" d="M380 56 q-26 64 -81 166 q-39 -70 -92.5 -142.5 q-53.5 -72.5 -127.5 -158.5 l-60 49 q152 166 235 331 q-88 151 -167 256 l58 38 q64 -82 146 -214 q50 124 73 278 l-294 0 l0 74 l367 0 l0 -76 q-15 -105 -38.5 -191.5 q-23.5 -86.5 -59.5 -164.5 q70 -122 102 -194 l-61 -51 ZM958 -32 l-52 -65 q-79 65 -138 123.5 q-59 58.5 -102 117.5 q-51 -63 -120 -124 q-69 -61 -163 -128 l-53 64 q102 66 173 126.5 q71 60.5 120 125.5 q-54 91 -86 199 q-32 108 -48 253 l-23 0 l0 73 l400 0 l0 -75 q-25 -148 -61 -255 q-36 -107 -93 -194 q44 -62 103.5 -120 q59.5 -58 142.5 -121 ZM560 660 q16 -123 42.5 -215.5 q26.5 -92.5 67.5 -167.5 q44 75 72.5 167 q28.5 92 49.5 216 l-232 0 Z" /><glyph glyph-name="uni53CD" unicode="&#x53cd;" d="M902 -102 q-206 73 -335 172 q-64 -47 -147 -88.5 q-83 -41.5 -195 -84.5 l-45 71 q206 70 326 155 q-129 123 -199 314 l-54 0 q0 -135 -14.5 -221.5 q-14.5 -86.5 -45 -155.5 q-30.5 -69 -90.5 -162 l-71 38 q63 89 93.5 154.5 q30.5 65.5 43 146.5 q12.5 81 12.5 216 l0 252 q149 5 336 22 q187 17 337 39 l13 -75 q-141 -20 -304.5 -35 q-163.5 -15 -309.5 -22 l0 -122 l577 0 l0 -75 q-39 -102 -87.5 -178 q-48.5 -76 -112.5 -136 q127 -91 317 -149 l-45 -76 ZM390 437 q64 -158 179 -264 q58 52 100.5 117 q42.5 65 73.5 147 l-353 0 Z" /><glyph glyph-name="uni53D1" unicode="&#x53d1;" d="M763 635 q-28 26 -81 59 q-53 33 -91 51 l38 61 q36 -17 88.5 -48 q52.5 -31 80.5 -52 l-35 -71 ZM899 -107 q-110 38 -193.5 77 q-83.5 39 -149.5 85 q-64 -42 -147.5 -79 q-83.5 -37 -202.5 -78 l-34 70 q206 62 324 135 q-94 81 -153 198 q-44 -95 -108 -182 q-64 -87 -156 -179 l-59 52 q124 123 202.5 254 q78.5 131 120.5 292 l-223 0 l0 63 q10 34 23.5 88.5 q13.5 54.5 22.5 95.5 l75 -16 l-39 -162 l158 0 q20 90 30 193 l77 -7 q-13 -107 -28 -186 l469 0 l0 -69 l-484 0 q-20 -77 -35 -123 l410 0 l0 -70 q-39 -79 -82 -137.5 q-43 -58.5 -97 -104.5 q118 -78 314 -137 l-35 -73 ZM401 344 q60 -115 159 -197 q96 77 155 197 l-314 0 Z" /><glyph glyph-name="uni53D6" unicode="&#x53d6;" d="M540 99 l-91 -18 l0 -181 l-71 0 l0 168 q-209 -38 -332 -53 l-15 73 q61 6 106 13 l0 585 l-63 0 l0 71 l440 0 l0 -71 l-65 0 l0 -531 q41 7 88 19 l1 -38 l2 -37 ZM955 -21 l-52 -58 q-129 107 -197 209 q-74 -105 -197 -209 l-52 54 q135 107 208 221 q-46 85 -73 190.5 q-27 105.5 -42 250.5 l-22 0 l0 74 l351 0 l0 -74 q-23 -146 -52.5 -249 q-29.5 -103 -77.5 -189 q73 -114 206 -220 ZM378 544 l0 142 l-170 0 l0 -142 l170 0 ZM618 637 q11 -113 33 -201.5 q22 -88.5 57 -162.5 q34 72 57 158.5 q23 86.5 42 205.5 l-189 0 ZM378 477 l-170 0 l0 -138 l170 0 l0 138 ZM208 112 q49 7 170 29 l0 131 l-170 0 l0 -160 Z" /><glyph glyph-name="uni53D7" unicode="&#x53d7;" d="M164 440 l0 -131 l-69 0 l0 197 l163 0 q-12 30 -34.5 68 q-22.5 38 -39.5 62 l58 33 q-40 -2 -124 -4 l-16 67 q210 4 410 15.5 q200 11.5 332 30.5 l15 -69 q-143 -14 -374 -29 q18 -26 43 -72.5 q25 -46.5 36 -73.5 l-45 -28 l167 0 l-40 23 q22 26 53 77 q31 51 48 88 l63 -25 q-58 -107 -97 -163 l170 0 l0 -197 l-68 0 l0 131 l-651 0 ZM327 531 l-39 -25 l210 0 q-11 31 -33.5 72.5 q-22.5 41.5 -41.5 70.5 l61 31 q-154 -8 -241 -11 q20 -28 46.5 -70.5 q26.5 -42.5 37.5 -67.5 ZM912 -91 q-134 27 -234 58.5 q-100 31.5 -178 72.5 q-79 -40 -181 -72.5 q-102 -32.5 -238 -61.5 l-34 70 q125 23 217.5 49 q92.5 26 163.5 58 q-98 68 -179 181 l-48 0 l0 66 l568 0 l0 -66 q-86 -115 -199 -185 q138 -65 371 -102 l-29 -68 ZM336 264 q69 -89 161 -145 q93 53 169 145 l-330 0 Z" /><glyph glyph-name="uni53D8" unicode="&#x53d8;" d="M357 381 l0 254 l-278 0 l0 67 l380 0 q-24 75 -32 94 l74 14 q13 -32 38 -108 l363 0 l0 -67 l-278 0 l0 -254 l-71 0 l0 254 l-125 0 l0 -254 l-71 0 ZM712 591 q43 -30 110 -87.5 q67 -57.5 101 -94.5 l-45 -61 q-33 42 -99.5 102.5 q-66.5 60.5 -111.5 92.5 l45 48 ZM317 545 q-37 -45 -99 -102.5 q-62 -57.5 -122 -103.5 l-48 54 q60 41 119.5 94 q59.5 53 100.5 100 l49 -42 ZM906 -97 q-148 33 -245 62.5 q-97 29.5 -169 65.5 q-76 -37 -178.5 -68.5 q-102.5 -31.5 -245.5 -62.5 l-30 70 q241 43 379 106 q-51 35 -96 82.5 q-45 47.5 -91 113.5 l-72 0 l0 68 l614 0 l0 -66 q-44 -65 -93.5 -114 q-49.5 -49 -111.5 -88 q63 -27 152.5 -50 q89.5 -23 220.5 -47 l-34 -72 ZM330 272 q39 -54 77 -92 q38 -38 84 -67 q109 63 182 159 l-343 0 Z" /><glyph glyph-name="uni53E3" unicode="&#x53e3;" d="M147 -84 l0 791 l685 0 l0 -786 l-79 0 l0 88 l-527 0 l0 -93 l-79 0 ZM226 629 l0 -542 l527 0 l0 542 l-527 0 Z" /><glyph glyph-name="uni53E6" unicode="&#x53e6;" d="M839 319 q-3 -50 -9.5 -131 q-6.5 -81 -11.5 -134 q-5 -49 -22.5 -76 q-17.5 -27 -57 -40.5 q-39.5 -13.5 -114.5 -17.5 l-83 -4 l-23 73 l105 5 q53 3 77.5 11 q24.5 8 34 25.5 q9.5 17.5 14.5 55.5 q3 20 6.5 75.5 q3.5 55.5 5.5 85.5 l-338 0 q-13 -80 -47.5 -138.5 q-34.5 -58.5 -102 -110 q-67.5 -51.5 -182.5 -105.5 l-45 66 q105 48 165 89.5 q60 41.5 89.5 87.5 q29.5 46 43.5 111 l-274 0 l0 72 l285 0 q1 2 1 6 q7 63 7 105 l-194 0 l0 327 l641 0 l0 -327 l-371 0 l-7 -106 l0 -5 l407 0 ZM737 685 l-495 0 l0 -184 l495 0 l0 184 Z" /><glyph glyph-name="uni53EA" unicode="&#x53ea;" d="M176 279 l0 465 l627 0 l0 -465 l-627 0 ZM725 670 l-474 0 l0 -317 l474 0 l0 317 ZM38 -30 q75 43 156.5 115 q81.5 72 138.5 145 l61 -54 q-49 -67 -134 -144.5 q-85 -77.5 -165 -131.5 l-57 70 ZM642 229 q63 -47 149.5 -125.5 q86.5 -78.5 133.5 -129.5 l-54 -69 q-50 60 -134 139.5 q-84 79.5 -148 125.5 l53 59 Z" /><glyph glyph-name="uni53EB" unicode="&#x53eb;" d="M781 796 l73 -2 l0 -888 l-73 0 l0 315 q-55 -20 -120 -45 q-65 -25 -80 -32 q-26 -10 -64 -32 l-34 73 q18 11 23.5 20.5 q5.5 9.5 5.5 26.5 l0 477 l72 -2 l0 -476 l197 72 l0 493 ZM395 48 l-286 0 l0 670 l286 0 l0 -670 ZM326 647 l-148 0 l0 -526 l148 0 l0 526 Z" /><glyph glyph-name="uni53EF" unicode="&#x53ef;" d="M929 741 l0 -70 l-130 0 l0 -638 q0 -45 -8.5 -66 q-8.5 -21 -29.5 -30 q-21 -9 -66 -13 l-95 -9 l-26 74 l96 8 q34 2 44 14 q10 12 10 48 l0 612 l-649 0 l0 70 l854 0 ZM547 119 l-369 0 l0 408 l369 0 l0 -408 ZM475 456 l-225 0 l0 -266 l225 0 l0 266 Z" /><glyph glyph-name="uni53F0" unicode="&#x53f0;" d="M633 714 q56 -47 139.5 -137 q83.5 -90 125.5 -148 l-54 -62 q-17 27 -60 81 q-124 -3 -334 -9.5 q-210 -6.5 -251 -9.5 q-62 -4 -100 -10 l-19 75 q32 6 49 12 q17 6 30 15 q60 48 141.5 138.5 q81.5 90.5 126.5 159.5 l65 -40 q-50 -70 -120 -149 q-70 -79 -124 -125 l475 14 q-85 95 -142 143 l52 52 ZM245 -98 l-75 0 l0 411 l637 0 l0 -411 l-76 0 l0 56 l-486 0 l0 -56 ZM731 29 l0 211 l-486 0 l0 -211 l486 0 Z" /><glyph glyph-name="uni53F3" unicode="&#x53f3;" d="M921 593 l-463 0 q-50 -105 -126 -205 l499 0 l0 -478 l-78 0 l0 69 l-427 0 l0 -69 l-76 0 l0 381 q-79 -85 -178 -167 l-44 71 q225 169 339 398 l-294 0 l0 76 l329 0 q26 63 44 137 l83 -14 q-20 -74 -39 -123 l431 0 l0 -76 ZM326 52 l427 0 l0 259 l-427 0 l0 -259 Z" /><glyph glyph-name="uni53F7" unicode="&#x53f7;" d="M186 754 l603 0 l0 -257 l-603 0 l0 257 ZM262 561 l452 0 l0 129 l-452 0 l0 -129 ZM928 342 l-611 0 l-20 -104 l480 0 q-11 -151 -14 -180 q-6 -60 -24 -88.5 q-18 -28.5 -62.5 -41 q-44.5 -12.5 -137.5 -17.5 l-87 -5 l-24 76 l108 4 q64 3 92 10 q28 7 39 24 q11 17 14 55 q9 63 10 96 l-492 0 l34 171 l-184 0 l0 66 l879 0 l0 -66 Z" /><glyph glyph-name="uni53F8" unicode="&#x53f8;" d="M137 750 l725 0 l0 -714 q0 -43 -12 -67 q-12 -24 -40 -35 q-28 -11 -80 -15 l-107 -9 l-25 77 l100 6 q37 2 53.5 7.5 q16.5 5.5 22.5 20 q6 14.5 6 46.5 l0 609 l-643 0 l0 74 ZM73 489 l0 70 l651 0 l0 -70 l-651 0 ZM168 38 l0 337 l450 0 l0 -337 l-450 0 ZM539 303 l-292 0 l0 -193 l292 0 l0 193 Z" /><glyph glyph-name="uni5404" unicode="&#x5404;" d="M939 368 l-34 -73 q-133 26 -234 57 q-101 31 -182 71 q-176 -85 -422 -141 l-35 70 q212 39 382 113 q-83 52 -160 125 q-61 -58 -135 -112 l-48 52 q82 55 158 133 q76 78 122 150 l73 -24 q-21 -32 -47 -65 l428 0 l0 -67 q-101 -113 -237 -192 q144 -61 371 -97 ZM491 502 q135 71 215 155 l-386 0 l-14 -16 q80 -81 185 -139 ZM266 -99 l-74 0 l0 378 l591 0 l0 -378 l-74 0 l0 59 l-443 0 l0 -59 ZM709 28 l0 182 l-443 0 l0 -182 l443 0 Z" /><glyph glyph-name="uni5408" unicode="&#x5408;" d="M525 793 q74 -110 184 -188 q110 -78 246 -140 l-41 -75 q-143 69 -249.5 153.5 q-106.5 84.5 -176.5 176.5 q-68 -92 -178 -176.5 q-110 -84.5 -248 -152.5 l-41 75 q157 71 262 152.5 q105 81.5 169 174.5 l73 0 ZM250 418 l0 70 l477 0 l0 -70 l-477 0 ZM260 -91 l-77 0 l0 382 l613 0 l0 -382 l-77 0 l0 52 l-459 0 l0 -52 ZM719 30 l0 194 l-459 0 l0 -194 l459 0 Z" /><glyph glyph-name="uni5409" unicode="&#x5409;" d="M912 666 l0 -71 l-381 0 l0 -145 l327 0 l0 -70 l-740 0 l0 70 l333 0 l0 145 l-387 0 l0 71 l387 0 l0 136 l80 -3 l0 -133 l381 0 ZM251 -101 l-77 0 l0 368 l629 0 l0 -368 l-78 0 l0 54 l-474 0 l0 -54 ZM725 24 l0 170 l-474 0 l0 -170 l474 0 Z" /><glyph glyph-name="uni540C" unicode="&#x540c;" d="M108 745 l752 0 l0 -708 q0 -48 -12 -73 q-12 -25 -42 -36.5 q-30 -11.5 -88 -14.5 l-56 -3 l-27 72 l70 4 q35 2 51.5 7.5 q16.5 5.5 22 19.5 q5.5 14 5.5 43 l0 619 l-604 0 l0 -763 l-72 0 l0 833 ZM243 490 l0 67 l483 0 l0 -67 l-483 0 ZM301 70 l0 311 l365 0 l0 -311 l-365 0 ZM598 316 l-229 0 l0 -182 l229 0 l0 182 Z" /><glyph glyph-name="uni540D" unicode="&#x540d;" d="M843 314 l0 -404 l-74 0 l0 57 l-450 0 l0 -57 l-74 0 l0 326 q-95 -35 -186 -62 l-36 68 q254 71 430 166.5 q176 95.5 289 221.5 l-366 0 q0 0 -35 -35 l-18 -18 q35 -24 76 -56.5 q41 -32.5 65 -54.5 l-51 -61 q-22 27 -63 60.5 q-41 33.5 -83 63.5 q-67 -55 -132 -97 l-46 62 q97 60 192 149.5 q95 89.5 153 170.5 l68 -30 q-29 -42 -63 -84 l402 0 l0 -70 q-79 -96 -181.5 -173.5 q-102.5 -77.5 -233.5 -142.5 l417 0 ZM319 243 l0 -209 l450 0 l0 209 l-450 0 Z" /><glyph glyph-name="uni540E" unicode="&#x540e;" d="M242 516 l676 0 l0 -69 l-676 0 q-1 -119 -16 -203 q-15 -84 -47.5 -157 q-32.5 -73 -92.5 -163 l-62 32 q58 84 89 154 q31 70 44 154.5 q13 84.5 13 210.5 l0 248 q365 5 654 54 l19 -74 q-139 -21 -298.5 -34 q-159.5 -13 -302.5 -17 l0 -136 ZM381 -95 l-74 0 l0 402 l521 0 l0 -402 l-74 0 l0 66 l-373 0 l0 -66 ZM754 38 l0 201 l-373 0 l0 -201 l373 0 Z" /><glyph glyph-name="uni5411" unicode="&#x5411;" d="M856 679 l0 -647 q0 -42 -12 -64 q-12 -22 -42 -32 q-30 -10 -89 -13 l-56 -4 l-26 75 l71 4 q36 2 52 7.5 q16 5.5 20.5 17 q4.5 11.5 4.5 37.5 l0 546 l-594 0 l0 -684 l-74 0 l0 757 l256 0 q16 35 32 77 q16 42 23 68 l92 -10 q-7 -26 -22 -64 q-15 -38 -31 -71 l395 0 ZM305 468 l356 0 l0 -360 l-356 0 l0 360 ZM379 181 l211 0 l0 214 l-211 0 l0 -214 Z" /><glyph glyph-name="uni5426" unicode="&#x5426;" d="M453 336 l0 217 q-145 -117 -364 -217 l-40 69 q273 110 433 271 l-378 0 l0 70 l771 0 l0 -70 l-295 0 q-34 -38 -53 -57 l0 -283 l-74 0 ZM592 591 q66 -27 173.5 -83.5 q107.5 -56.5 160.5 -93.5 l-33 -76 q-53 44 -157.5 103 q-104.5 59 -174.5 88 l31 62 ZM258 -90 l-70 0 l0 390 l604 0 l0 -390 l-73 0 l0 57 l-461 0 l0 -57 ZM719 37 l0 190 l-461 0 l0 -190 l461 0 Z" /><glyph glyph-name="uni542B" unicode="&#x542b;" d="M528 811 q74 -88 180 -160 q106 -72 237 -123 l-34 -66 q-129 53 -240.5 128.5 q-111.5 75.5 -177.5 156.5 q-68 -83 -176.5 -158 q-108.5 -75 -245.5 -136 l-34 66 q141 59 243.5 130.5 q102.5 71.5 177.5 161.5 l70 0 ZM758 403 q-19 -25 -58 -67.5 q-39 -42.5 -71 -73.5 l177 0 l0 -350 l-75 0 l0 55 l-478 0 l0 -55 l-75 0 l0 350 l425 0 l-44 33 q22 19 52.5 52 q30.5 33 47.5 56 l-458 0 l0 65 l323 0 q-24 33 -56.5 69 q-32.5 36 -59.5 59 l49 46 q63 -60 114 -123 l-45 -51 l232 0 l0 -65 ZM253 32 l478 0 l0 163 l-478 0 l0 -163 Z" /><glyph glyph-name="uni542C" unicode="&#x542c;" d="M944 447 l0 -75 l-164 0 l0 -466 l-76 0 l0 466 l-169 0 q-2 -124 -15.5 -200.5 q-13.5 -76.5 -46 -139 q-32.5 -62.5 -96.5 -139.5 l-60 47 q67 80 96 136 q29 56 39 126.5 q10 70.5 10 204.5 l0 295 q111 10 218.5 28 q107.5 18 188.5 42 l18 -75 q-70 -20 -167.5 -37.5 q-97.5 -17.5 -184.5 -25.5 l0 -187 l409 0 ZM100 705 l255 0 l0 -637 l-255 0 l0 637 ZM170 140 l115 0 l0 492 l-115 0 l0 -492 Z" /><glyph glyph-name="uni542F" unicode="&#x542f;" d="M871 701 l0 -286 l-627 0 q-4 -146 -39.5 -251.5 q-35.5 -105.5 -118.5 -233.5 l-64 48 q55 80 86 148 q31 68 45.5 147.5 q14.5 79.5 14.5 189.5 l0 238 l329 0 q-11 51 -34 103 l73 13 q10 -24 21.5 -57.5 q11.5 -33.5 17.5 -58.5 l296 0 ZM244 484 l550 0 l0 149 l-550 0 l0 -149 ZM360 -101 l-75 0 l0 389 l567 0 l0 -389 l-76 0 l0 62 l-416 0 l0 -62 ZM776 27 l0 193 l-416 0 l0 -193 l416 0 Z" /><glyph glyph-name="uni5438" unicode="&#x5438;" d="M955 -32 l-44 -65 q-135 90 -215 180 q-92 -104 -242 -186 l-45 58 q153 79 242 182 q-83 109 -128 254 q-9 -98 -29.5 -173.5 q-20.5 -75.5 -60.5 -147.5 q-40 -72 -108 -153 l-58 40 q76 89 116.5 167 q40.5 78 58 164.5 q17.5 86.5 22.5 212.5 q4 79 6 181 l-74 0 l0 69 l428 0 l0 -69 l-73 -181 l128 0 l0 -68 q-31 -93 -64 -164 q-33 -71 -75 -130 q85 -94 215 -171 ZM97 712 l248 0 l0 -644 l-248 0 l0 644 ZM695 194 q65 93 114 239 l-135 0 l0 60 l77 189 l-214 0 l-1 -26 l-3 -76 q26 -120 65.5 -215 q39.5 -95 96.5 -171 ZM165 137 l112 0 l0 507 l-112 0 l0 -507 Z" /><glyph glyph-name="uni544A" unicode="&#x544a;" d="M545 446 l383 0 l0 -72 l-867 0 l0 72 l410 0 l0 144 l-231 0 q-41 -71 -76 -121 l-65 39 q99 124 149 270 l73 -17 q-16 -42 -43 -100 l193 0 l0 136 l74 -3 l0 -133 l316 0 l0 -71 l-316 0 l0 -144 ZM255 -106 l-74 0 l0 371 l625 0 l0 -371 l-75 0 l0 50 l-476 0 l0 -50 ZM731 18 l0 171 l-476 0 l0 -171 l476 0 Z" /><glyph glyph-name="uni5450" unicode="&#x5450;" d="M679 650 l208 0 l0 -624 q0 -43 -9.5 -65.5 q-9.5 -22.5 -34.5 -33 q-25 -10.5 -74 -13.5 l-52 -3 l-22 70 l58 4 q29 2 42.5 9 q13.5 7 18 22 q4.5 15 4.5 45 l0 93 l-44 -33 q-17 45 -51.5 110 q-34.5 65 -69.5 121 q-18 -62 -48.5 -114 q-30.5 -52 -80.5 -116 l-52 42 l0 -254 l-68 0 l0 740 l207 0 l0 149 l68 -2 l0 -147 ZM323 53 l-227 0 l0 633 l227 0 l0 -633 ZM256 618 l-94 0 l0 -497 l94 0 l0 497 ZM472 168 q59 72 88.5 129.5 q29.5 57.5 40 120.5 q10.5 63 10.5 162 l-139 0 l0 -412 ZM818 183 l0 397 l-139 0 q0 -82 -9 -145 q34 -47 78 -122 q44 -75 70 -130 Z" /><glyph glyph-name="uni5458" unicode="&#x5458;" d="M204 514 l0 243 l572 0 l0 -243 l-572 0 ZM700 692 l-419 0 l0 -116 l419 0 l0 116 ZM167 105 l0 320 l645 0 l0 -320 l-75 0 l0 250 l-493 0 l0 -250 l-77 0 ZM48 -26 q154 26 254.5 70.5 q100.5 44.5 126.5 110.5 q14 35 19.5 78.5 q5.5 43.5 5.5 72.5 l78 -4 q-2 -18 -9.5 -67 q-7.5 -49 -13.5 -77 q-17 -79 -121 -147.5 q-104 -68.5 -312 -107.5 l-28 71 ZM536 130 q213 -75 374 -155 l-28 -75 q-100 53 -186.5 92 q-86.5 39 -187.5 77 l28 61 Z" /><glyph glyph-name="uni5462" unicode="&#x5462;" d="M875 466 l-388 0 q0 -144 -12 -234 q-12 -90 -42.5 -164 q-30.5 -74 -91.5 -169 l-64 43 q61 89 90 157 q29 68 39.5 149.5 q10.5 81.5 10.5 219.5 l0 282 l458 0 l0 -284 ZM94 715 l235 0 l0 -637 l-235 0 l0 637 ZM806 536 l0 145 l-319 0 l0 -145 l319 0 ZM159 153 l105 0 l0 488 l-105 0 l0 -488 ZM922 127 q-6 -89 -15 -130 q-7 -31 -34 -46.5 q-27 -15.5 -84 -18.5 q-40 -2 -61 -2 q-19 0 -61 2 q-58 3 -83.5 27 q-25.5 24 -25.5 80 l0 389 l69 -2 l0 -191 q60 35 128 81 q68 46 105 77 l38 -60 q-46 -36 -128 -88.5 q-82 -52.5 -143 -86.5 l0 -96 q0 -35 12 -47 q12 -12 48 -14 l46 -1 l45 1 q35 2 49.5 11 q14.5 9 18.5 34 q6 34 8 107 l68 -26 Z" /><glyph glyph-name="uni5468" unicode="&#x5468;" d="M150 758 l713 0 l0 -720 q0 -47 -12 -71 q-12 -24 -39 -34 q-27 -10 -80 -14 l-56 -4 l-24 66 l61 4 q35 2 50.5 7 q15.5 5 21 17.5 q5.5 12.5 5.5 40.5 l0 640 l-568 0 l0 -295 q0 -131 -10.5 -211 q-10.5 -80 -33 -140.5 q-22.5 -60.5 -68.5 -140.5 l-70 34 q46 75 68.5 133 q22.5 58 32 138 q9.5 80 9.5 215 l0 335 ZM256 355 l0 61 l211 0 l0 102 l-178 0 l0 60 l178 0 l0 86 l71 -3 l0 -83 l177 0 l0 -60 l-177 0 l0 -102 l210 0 l0 -61 l-492 0 ZM320 280 l362 0 l0 -249 l-362 0 l0 249 ZM389 96 l225 0 l0 118 l-225 0 l0 -118 Z" /><glyph glyph-name="uni5473" unicode="&#x5473;" d="M675 349 q43 -80 118 -160.5 q75 -80.5 167 -152.5 l-47 -58 q-179 155 -261 298 l0 -370 l-71 0 l0 361 q-43 -82 -104 -154 q-61 -72 -144 -143 l-51 54 q101 79 167 157 q66 78 109 168 l-192 0 l0 71 l215 0 l0 169 l-178 0 l0 73 l178 0 l0 140 l71 -2 l0 -138 l214 0 l0 -73 l-214 0 l0 -169 l254 0 l0 -71 l-231 0 ZM88 694 l246 0 l0 -620 l-246 0 l0 620 ZM158 146 l107 0 l0 476 l-107 0 l0 -476 Z" /><glyph glyph-name="uni547D" unicode="&#x547d;" d="M21 522 q139 61 250.5 135 q111.5 74 179.5 150 l75 0 q71 -78 184 -154.5 q113 -76.5 249 -135.5 l-37 -67 q-291 142 -432 290 q-69 -72 -180.5 -145.5 q-111.5 -73.5 -248.5 -141.5 l-40 69 ZM235 475 l0 70 l506 0 l0 -70 l-506 0 ZM512 379 l333 0 l0 -252 q0 -47 -9 -71 q-9 -24 -33.5 -35 q-24.5 -11 -75.5 -16 l-30 -3 l-24 74 l42 4 q29 3 40.5 8 q11.5 5 14.5 16.5 q3 11.5 3 40.5 l0 165 l-190 0 l0 -408 l-71 0 l0 477 ZM137 9 l0 366 l285 0 l0 -366 l-285 0 ZM353 307 l-147 0 l0 -229 l147 0 l0 229 Z" /><glyph glyph-name="uni548C" unicode="&#x548c;" d="M333 382 q30 -25 77.5 -75 q47.5 -50 73.5 -83 l-50 -62 q-21 32 -59 77 q-38 45 -72 79 l0 -421 l-70 0 l0 438 q-70 -133 -161 -244 l-47 57 q57 63 111 146 q54 83 91 164 l-167 0 l0 73 l173 0 l0 133 q-100 -16 -152 -21 l-15 69 q81 7 190.5 27.5 q109.5 20.5 183.5 41.5 l14 -69 q-55 -16 -151 -35 l0 -146 l170 0 l0 -73 l-170 0 l0 -105 l30 29 ZM512 -75 l0 780 l364 0 l0 -774 l-73 0 l0 76 l-218 0 l0 -82 l-73 0 ZM585 628 l0 -542 l218 0 l0 542 l-218 0 Z" /><glyph glyph-name="uni54B1" unicode="&#x54b1;" d="M877 688 l0 -782 l-75 0 l0 69 l-297 0 l0 -69 l-75 0 l0 782 l140 0 q29 79 41 129 l80 -12 q-15 -54 -39 -117 l225 0 ZM340 15 l-241 0 l0 687 l241 0 l0 -687 ZM266 628 l-93 0 l0 -537 l93 0 l0 537 ZM802 474 l0 143 l-297 0 l0 -143 l297 0 ZM802 262 l0 139 l-297 0 l0 -139 l297 0 ZM505 189 l0 -143 l297 0 l0 143 l-297 0 Z" /><glyph glyph-name="uni54C1" unicode="&#x54c1;" d="M205 764 l560 0 l0 -322 l-560 0 l0 322 ZM277 512 l415 0 l0 184 l-415 0 l0 -184 ZM170 -76 l-72 0 l0 416 l344 0 l0 -416 l-72 0 l0 56 l-200 0 l0 -56 ZM532 -76 l0 416 l347 0 l0 -416 l-73 0 l0 56 l-202 0 l0 -56 l-72 0 ZM370 48 l0 224 l-200 0 l0 -224 l200 0 ZM604 272 l0 -224 l202 0 l0 224 l-202 0 Z" /><glyph glyph-name="uni54CD" unicode="&#x54cd;" d="M885 686 l0 -653 q0 -41 -11.5 -63 q-11.5 -22 -39 -32 q-27.5 -10 -78.5 -14 l-54 -4 l-24 72 l65 4 q33 2 47.5 7 q14.5 5 20 16.5 q5.5 11.5 5.5 36.5 l0 563 l-375 0 l0 -697 l-68 0 l0 764 l181 0 q11 29 22.5 69 q11.5 40 17.5 68 l77 -10 q-6 -25 -16.5 -61 q-10.5 -36 -22.5 -66 l253 0 ZM305 50 l-219 0 l0 658 l219 0 l0 -658 ZM241 638 l-89 0 l0 -520 l89 0 l0 520 ZM524 497 l207 0 l0 -384 l-207 0 l0 384 ZM580 177 l92 0 l0 256 l-92 0 l0 -256 Z" /><glyph glyph-name="uni54EA" unicode="&#x54ea;" d="M308 683 l0 71 l304 0 l-4 -686 q0 -63 -24.5 -88 q-24.5 -25 -84.5 -32 l-35 -4 l-22 63 l45 4 q25 2 37 8 q12 6 17 21.5 q5 15.5 5 48.5 l0 139 l-99 0 q-13 -101 -47.5 -174.5 q-34.5 -73.5 -103.5 -152.5 l-51 37 q69 78 100.5 139.5 q31.5 61.5 43.5 150.5 l-76 0 l0 70 l82 0 q4 52 4 136 l0 15 l-82 0 l0 71 l83 0 l1 163 l-93 0 ZM844 415 q45 -72 62.5 -127 q17.5 -55 17.5 -112 q0 -77 -26.5 -110.5 q-26.5 -33.5 -84.5 -42.5 l-32 -5 l-22 66 l42 6 q32 5 46 26.5 q14 21.5 14 71.5 q0 90 -79 211 l62 281 l-109 0 l0 -772 l-66 0 l0 838 l236 0 l0 -66 l-61 -265 ZM84 717 l200 0 l0 -663 l-200 0 l0 663 ZM548 520 l1 138 l0 25 l-88 0 l-1 -163 l88 0 ZM148 120 l74 0 l0 531 l-74 0 l0 -531 ZM547 298 l0 151 l-88 0 l0 -13 q0 -70 -5 -138 l93 0 Z" /><glyph glyph-name="uni5565" unicode="&#x5565;" d="M475 548 l325 0 l0 -64 l-136 0 l0 -96 l242 0 l0 -65 l-242 0 l0 -96 l180 0 l0 -321 l-71 0 l0 54 l-287 0 l0 -53 l-71 0 l0 320 l176 0 l0 96 l-233 0 l0 65 l233 0 l0 96 l-132 0 l0 51 q-41 -34 -91 -67 l-34 62 q176 120 262 271 l69 0 q46 -78 123 -149 q77 -71 167 -120 l-40 -62 q-208 137 -282 261 q-60 -100 -158 -183 ZM321 44 l-228 0 l0 656 l228 0 l0 -656 ZM253 631 l-91 0 l0 -518 l91 0 l0 518 ZM486 22 l287 0 l0 141 l-287 0 l0 -141 Z" /><glyph glyph-name="uni5584" unicode="&#x5584;" d="M929 277 l0 -61 l-881 0 l0 61 l205 0 q-38 48 -62 72 l38 31 l-151 0 l0 60 l375 0 l0 70 l-319 0 l0 59 l319 0 l0 70 l-354 0 l0 60 l220 0 q-33 44 -60 71 l54 45 q59 -62 78 -88 l-27 -28 l207 0 q21 23 50 59 q29 36 45 60 l59 -40 q-30 -40 -62 -79 l215 0 l0 -60 l-353 0 l0 -70 l319 0 l0 -59 l-319 0 l0 -70 l374 0 l0 -60 l-158 0 l45 -32 q-24 -30 -58 -71 l201 0 ZM253 380 q34 -37 68 -80 l-27 -23 l159 0 l0 103 l-200 0 ZM525 380 l0 -103 l118 0 q47 50 85 103 l-203 0 ZM237 -95 l-72 0 l0 243 l647 0 l0 -243 l-72 0 l0 36 l-503 0 l0 -36 ZM740 0 l0 90 l-503 0 l0 -90 l503 0 Z" /><glyph glyph-name="uni55EF" unicode="&#x55ef;" d="M382 753 l476 0 l0 -507 l-476 0 l0 507 ZM84 718 l215 0 l0 -647 l-215 0 l0 647 ZM444 309 l351 0 l0 379 l-351 0 l0 -379 ZM463 379 q56 31 85 65.5 q29 34.5 39 84.5 l-115 0 l0 57 l121 0 q1 27 1 80 l55 -3 l-1 -77 l119 0 l0 -57 l-124 0 q-2 -15 -8 -35 q101 -71 141 -115 l-32 -51 q-36 44 -131 114 q-35 -60 -119 -112 l-31 49 ZM149 142 l87 0 l0 507 l-87 0 l0 -507 ZM644 60 q-9 36 -28.5 79.5 q-19.5 43.5 -39.5 78.5 l50 24 q21 -36 42 -78.5 q21 -42.5 31 -72.5 l-55 -31 ZM730 117 l58 -19 q0 -30 -8 -78 q-6 -37 -16.5 -55 q-10.5 -18 -32 -25.5 q-21.5 -7.5 -64.5 -11.5 q-17 -2 -50 -2 q-34 0 -51 2 q-51 5 -73.5 26.5 q-22.5 21.5 -22.5 72.5 l0 172 l67 -3 l0 -151 q0 -27 9 -37 q9 -10 34 -13 q14 -2 41 -2 q27 0 40 2 q25 3 35 6 q10 3 17 13 q7 10 11 32 q3 14 4.5 33 q1.5 19 1.5 38 ZM845 197 q26 -45 53 -105.5 q27 -60.5 41 -105.5 l-56 -32 q-12 48 -38 111 q-26 63 -51 110 l51 22 ZM291 -26 q26 48 49.5 110 q23.5 62 33.5 110 l60 -20 q-21 -92 -87 -221 l-56 21 Z" /><glyph glyph-name="uni5668" unicode="&#x5668;" d="M919 172 q-46 9 -72 16 l0 -276 l-67 0 l0 50 l-184 0 l0 -50 l-67 0 l0 301 l230 0 q-162 53 -254 147 l-40 0 q-34 -48 -91.5 -82 q-57.5 -34 -157.5 -65 l229 0 l0 -301 l-67 0 l0 50 l-179 0 l0 -50 l-67 0 l0 277 l-70 -17 l-29 67 q137 23 216.5 51.5 q79.5 28.5 123.5 69.5 l-299 0 l0 64 l347 0 q16 32 29 82 l75 -16 q-12 -36 -24 -66 l181 0 q-51 47 -67 57 l34 38 l-117 0 l0 244 l317 0 l0 -244 l-185 0 q36 -29 60 -50 l21 -18 l-19 -27 l177 0 l0 -64 l-305 0 q54 -47 135.5 -75.5 q81.5 -28.5 210.5 -46.5 l-25 -66 ZM127 763 l315 0 l0 -244 l-315 0 l0 244 ZM194 580 l181 0 l0 123 l-181 0 l0 -123 ZM783 703 l-184 0 l0 -123 l184 0 l0 123 ZM199 20 l179 0 l0 133 l-179 0 l0 -133 ZM596 153 l0 -133 l184 0 l0 133 l-184 0 Z" /><glyph glyph-name="uni56DA" unicode="&#x56da;" d="M117 -96 l0 839 l751 0 l0 -839 l-76 0 l0 58 l-599 0 l0 -58 l-76 0 ZM193 670 l0 -636 l599 0 l0 636 l-599 0 ZM761 175 l-53 -64 q-31 52 -94.5 124.5 q-63.5 72.5 -126.5 133.5 q-29 -69 -79.5 -129 q-50.5 -60 -137.5 -132 l-54 53 q93 75 142 137 q49 62 72 137 q23 75 31 192 l77 -4 q-8 -104 -26 -174 q60 -54 135.5 -137 q75.5 -83 113.5 -137 Z" /><glyph glyph-name="uni56DB" unicode="&#x56db;" d="M114 -91 l0 810 l752 0 l0 -810 l-76 0 l0 77 l-601 0 l0 -77 l-75 0 ZM189 59 l601 0 l0 168 l-108 0 q-68 0 -97 26.5 q-29 26.5 -29 94.5 l0 298 l-140 0 l0 -131 q0 -89 -13.5 -144.5 q-13.5 -55.5 -46.5 -99.5 q-33 -44 -98 -100 l-55 50 q61 50 90.5 88 q29.5 38 40.5 84 q11 46 11 125 l0 128 l-156 0 l0 -587 ZM790 300 l0 346 l-163 0 l0 -270 q0 -31 6 -47 q6 -16 22 -22.5 q16 -6.5 48 -6.5 l87 0 Z" /><glyph glyph-name="uni56DE" unicode="&#x56de;" d="M106 -89 l0 841 l758 0 l0 -841 l-78 0 l0 64 l-603 0 l0 -64 l-77 0 ZM183 675 l0 -626 l603 0 l0 626 l-603 0 ZM306 184 l0 356 l354 0 l0 -356 l-354 0 ZM375 252 l217 0 l0 220 l-217 0 l0 -220 Z" /><glyph glyph-name="uni56E0" unicode="&#x56e0;" d="M114 -98 l0 853 l753 0 l0 -853 l-76 0 l0 58 l-601 0 l0 -58 l-76 0 ZM190 680 l0 -649 l601 0 l0 649 l-601 0 ZM742 140 l-48 -60 q-32 47 -92 108 q-60 61 -118 111 q-27 -58 -79 -109 q-52 -51 -135 -104 l-50 58 q110 65 163 128 q53 63 62 154 q0 5 1 8 l-207 0 l0 72 l211 0 q6 105 4 142 l73 -3 q0 -52 -5 -139 l218 0 l0 -72 l-224 0 l-4 -33 q-1 -10 -5 -30 q55 -44 127 -114 q72 -70 108 -117 Z" /><glyph glyph-name="uni56E2" unicode="&#x56e2;" d="M106 -101 l0 858 l773 0 l0 -858 l-77 0 l0 57 l-620 0 l0 -57 l-76 0 ZM182 690 l0 -668 l620 0 l0 668 l-620 0 ZM754 540 l0 -65 l-119 0 l0 -294 q0 -40 -9.5 -60.5 q-9.5 -20.5 -33.5 -30 q-24 -9.5 -73 -13.5 l-71 -6 l-23 70 l81 6 q26 2 36.5 6.5 q10.5 4.5 14.5 15.5 q4 11 5 36 l0 236 q-58 -89 -144 -165 q-86 -76 -173 -133 l-46 57 q88 50 170 121.5 q82 71.5 136 153.5 l-262 0 l0 65 l319 0 l0 110 l73 -3 l0 -107 l119 0 Z" /><glyph glyph-name="uni56F4" unicode="&#x56f4;" d="M113 -102 l0 858 l755 0 l0 -858 l-73 0 l0 53 l-608 0 l0 -53 l-74 0 ZM187 686 l0 -669 l608 0 l0 669 l-608 0 ZM739 526 l-249 0 l0 -81 l225 0 l0 -57 l-225 0 l0 -81 l230 0 q-1 -26 -4 -65.5 q-3 -39.5 -6 -65.5 q-3 -48 -27.5 -68 q-24.5 -20 -87.5 -24 l-41 -4 l-21 61 l50 2 q37 3 50 11 q13 8 15 30 q2 11 4 29.5 q2 18.5 2 34.5 l-164 0 l0 -203 l-70 0 l0 203 l-191 0 l0 59 l191 0 l0 81 l-157 0 l0 57 l157 0 l0 81 l-184 0 l0 60 l184 0 l0 79 l70 -2 l0 -77 l249 0 l0 -60 Z" /><glyph glyph-name="uni56FD" unicode="&#x56fd;" d="M106 -99 l0 856 l772 0 l0 -856 l-76 0 l0 56 l-622 0 l0 -56 l-74 0 ZM180 690 l0 -665 l622 0 l0 665 l-622 0 ZM522 347 l0 -173 l233 0 l0 -65 l-531 0 l0 65 l225 0 l0 173 l-191 0 l0 64 l191 0 l0 124 l-208 0 l0 64 l497 0 l0 -64 l-216 0 l0 -124 l202 0 l0 -64 l-202 0 ZM659 185 q-36 68 -80 123 l49 31 q52 -62 81 -117 l-50 -37 Z" /><glyph glyph-name="uni56FE" unicode="&#x56fe;" d="M108 -104 l0 859 l763 0 l0 -859 l-71 0 l0 58 l-622 0 l0 -58 l-70 0 ZM178 689 l0 -673 l622 0 l0 673 l-622 0 ZM788 338 l-28 -64 q-170 47 -272 102 q-111 -56 -273 -105 l-27 56 q139 38 243 84 q-54 37 -106 91 q-42 -45 -88 -81 l-36 44 q52 43 102 103 q50 60 80 113 l57 -23 q-18 -31 -39 -63 l311 0 l0 -53 q-80 -82 -163 -132 q92 -40 239 -72 ZM488 440 q80 44 137 102 l-264 0 q0 0 -0.5 -0.5 q-0.5 -0.5 -0.5 -0.5 q55 -59 128 -101 ZM353 308 q53 -7 141.5 -25.5 q88.5 -18.5 140.5 -33.5 l-8 -63 q-50 19 -138 39 q-88 20 -143 26 l7 57 ZM279 186 q74 -7 199 -33 q125 -26 197 -49 l-11 -64 q-69 27 -191.5 54 q-122.5 27 -201.5 34 l8 58 Z" /><glyph glyph-name="uni5706" unicode="&#x5706;" d="M105 -98 l0 861 l769 0 l0 -861 l-72 0 l0 51 l-625 0 l0 -51 l-72 0 ZM177 699 l0 -684 l625 0 l0 684 l-625 0 ZM291 631 l395 0 l0 -166 l-395 0 l0 166 ZM358 514 l259 0 l0 67 l-259 0 l0 -67 ZM639 358 l-300 0 l0 -165 l-69 0 l0 220 l437 0 l0 -220 l-68 0 l0 165 ZM524 323 q-1 -26 -4 -56 q-3 -30 -7 -45 q-13 -61 -80 -106.5 q-67 -45.5 -199 -75.5 l-22 61 q90 21 140.5 43.5 q50.5 22.5 72 47.5 q21.5 25 27.5 59 q2 11 4 32.5 q2 21.5 2 42.5 l66 -3 ZM533 212 q136 -57 238 -113 l-26 -64 q-83 48 -134 75 q-51 27 -104 47 l26 55 Z" /><glyph glyph-name="uni5728" unicode="&#x5728;" d="M390 613 q-52 -117 -125 -216 l0 -493 l-74 0 l0 400 q-53 -60 -121 -122 l-52 59 q182 150 290 372 l-251 0 l0 72 l284 0 q28 66 47 133 l72 -18 q-17 -58 -39 -115 l486 0 l0 -72 l-517 0 ZM637 301 l0 -259 l279 0 l0 -70 l-619 0 l0 70 l265 0 l0 259 l-223 0 l0 72 l223 0 l0 168 l75 -3 l0 -165 l233 0 l0 -72 l-233 0 Z" /><glyph glyph-name="uni5730" unicode="&#x5730;" d="M935 120 q-1 -53 -18 -128 q-7 -31 -36 -46 q-29 -15 -96 -18 q-63 -3 -127 -3 q-64 0 -127 3 q-50 2 -77.5 12.5 q-27.5 10.5 -40 36.5 q-12.5 26 -12.5 75 l0 348 l-87 -30 l-17 70 l104 35 l0 238 l71 -5 l0 -209 l118 39 l0 262 l72 -5 l0 -233 l208 70 l-13 -351 q-2 -39 -10.5 -59 q-8.5 -20 -29.5 -30 q-21 -10 -62 -14 l-40 -4 l-24 72 l42 4 q32 3 42 15 q10 12 11 50 l7 175 l2 45 l-133 -46 l0 -397 l-72 0 l0 373 l-118 -41 l0 -341 q0 -36 4.5 -52 q4.5 -16 19 -22.5 q14.5 -6.5 46.5 -8.5 q53 -3 107 -3 q55 0 107 3 q51 2 70.5 10 q19.5 8 25.5 31 q11 46 13 103 l70 -24 ZM364 130 l5 -31 q-58 -27 -156.5 -65 q-98.5 -38 -154.5 -55 l-27 68 q44 12 140 47 l0 363 l-112 0 l0 70 l112 0 l0 253 l69 -3 l0 -250 l105 0 l0 -70 l-105 0 l0 -337 q51 20 118 49 l6 -39 Z" /><glyph glyph-name="uni573A" unicode="&#x573a;" d="M339 192 l4 -35 q-52 -22 -145 -53.5 q-93 -31.5 -146 -45.5 l-15 72 q66 16 135 39 l0 324 l-112 0 l0 72 l112 0 l0 242 l72 -3 l0 -239 l109 0 l0 -72 l-109 0 l0 -300 q40 14 91 35 l4 -36 ZM492 467 l388 0 q-1 -27 -10 -175 q-9 -148 -14 -232 q-3 -48 -17.5 -73.5 q-14.5 -25.5 -46.5 -37.5 q-32 -12 -92 -17 l-58 -5 l-22 74 l71 4 q37 2 55.5 9 q18.5 7 26.5 23.5 q8 16.5 10 48.5 q4 33 11.5 140.5 q7.5 107.5 10.5 171.5 l-100 0 q-17 -117 -47 -202.5 q-30 -85.5 -81 -155.5 q-51 -70 -132 -137 l-60 45 q77 64 125.5 126.5 q48.5 62.5 78 139 q29.5 76.5 48.5 184.5 l-100 0 q-28 -119 -88.5 -216.5 q-60.5 -97.5 -162.5 -179.5 l-55 45 q100 80 155 163.5 q55 83.5 82 187.5 l-113 0 l0 62 l333 213 l-304 0 l0 71 l433 0 l0 -73 l-325 -204 Z" /><glyph glyph-name="uni5740" unicode="&#x5740;" d="M704 436 l0 -407 l232 0 l0 -71 l-659 0 l0 71 l136 0 l0 591 l77 -3 l0 -588 l135 0 l0 777 l79 -3 l0 -292 l190 0 l0 -75 l-190 0 ZM357 150 l5 -37 q-71 -29 -274 -95 l-36 -12 l-19 74 q27 8 55.5 17 q28.5 9 55.5 17 l31 10 l0 350 l-112 0 l0 79 l112 0 l0 246 l74 -3 l0 -243 l114 0 l0 -79 l-114 0 l0 -325 q76 26 103 37 l5 -36 Z" /><glyph glyph-name="uni5747" unicode="&#x5747;" d="M891 666 l-17 -611 q-2 -48 -17 -74 q-15 -26 -50.5 -39 q-35.5 -13 -104.5 -20 l-66 -7 l-27 79 l81 6 q45 3 66 10.5 q21 7.5 30 25 q9 17.5 11 55.5 q3 88 8 280 q5 192 4 218 l-281 0 q-45 -95 -81 -149 l-63 37 q45 71 84 160 q39 89 65 172 l77 -14 q-23 -70 -48 -129 l329 0 ZM383 159 l5 -33 q-64 -27 -166.5 -65.5 q-102.5 -38.5 -158.5 -56.5 l-23 74 q68 20 153 51 l0 335 l-117 0 l0 77 l117 0 l0 249 l77 -3 l0 -246 l102 0 l0 -77 l-102 0 l0 -307 q72 27 107 43 l6 -41 ZM627 304 q-20 32 -66 78.5 q-46 46.5 -77 70.5 l42 51 q29 -21 78 -67 q49 -46 72 -74 l-49 -59 ZM772 295 l10 -33 q-64 -39 -169.5 -92.5 q-105.5 -53.5 -175.5 -83.5 l-26 74 q68 27 174.5 80.5 q106.5 53.5 174.5 93.5 l12 -39 Z" /><glyph glyph-name="uni574A" unicode="&#x574a;" d="M558 591 l-6 -126 l-1 -27 l300 0 l-6 -126 l-12 -246 q-5 -59 -19.5 -87 q-14.5 -28 -46.5 -39 q-32 -11 -98 -15 l-60 -4 l-26 78 l73 3 q40 2 59 9 q19 7 27 24 q8 17 12 55 q3 26 8.5 137 q5.5 111 5.5 135 l-223 0 q-11 -109 -36 -188.5 q-25 -79.5 -67 -144.5 q-42 -65 -109 -133 l-66 50 q91 93 131.5 157.5 q40.5 64.5 57 144 q16.5 79.5 22.5 228.5 q3 48 5 115 l-127 0 l0 73 l250 0 q-13 60 -35 139 l72 11 q14 -46 37 -150 l254 0 l0 -73 l-376 0 ZM394 185 l5 -38 q-63 -23 -173.5 -55.5 q-110.5 -32.5 -173.5 -47.5 l-21 81 q54 11 159 39 l0 308 l-128 0 l0 78 l128 0 l0 247 l73 -3 l0 -244 l122 0 l0 -78 l-122 0 l0 -287 q77 22 125 40 l6 -40 Z" /><glyph glyph-name="uni5750" unicode="&#x5750;" d="M840 179 l-313 0 l0 -170 l396 0 l0 -67 l-866 0 l0 67 l394 0 l0 170 l-311 0 l0 70 l311 0 l0 547 l76 -3 l0 -544 l313 0 l0 -70 ZM613 333 l-60 43 q63 79 101 164.5 q38 85.5 57 191.5 l70 -14 q-15 -72 -36 -139 q43 -42 103.5 -108 q60.5 -66 85.5 -102 l-52 -55 q-21 34 -69 90 q-48 56 -95 104 q-38 -86 -105 -175 ZM117 296 l-59 45 q72 91 115.5 185.5 q43.5 94.5 63.5 204.5 l72 -13 q-15 -85 -40 -155 q38 -40 85 -96 q47 -56 71 -90 l-52 -55 q-19 32 -57 80 q-38 48 -76 90 q-46 -98 -123 -196 Z" /><glyph glyph-name="uni5757" unicode="&#x5757;" d="M623 276 q35 -102 113 -175.5 q78 -73.5 208 -128.5 l-48 -72 q-122 61 -199 132 q-77 71 -118 166 q-32 -84 -102.5 -155 q-70.5 -71 -192.5 -146 l-47 65 q133 71 200.5 144 q67.5 73 88.5 170 l-207 0 l0 72 l217 0 l1 22 l0 202 l-176 0 l0 72 l176 0 l0 159 l74 -3 l0 -156 l223 0 l0 -296 l92 0 l0 -72 l-303 0 ZM372 154 l6 -37 q-65 -27 -168 -62.5 q-103 -35.5 -160 -48.5 l-18 75 q41 9 145 41 l0 339 l-116 0 l0 72 l116 0 l0 262 l71 -2 l0 -260 l113 0 l0 -72 l-113 0 l0 -315 q88 31 119 43 l5 -35 ZM611 374 l-1 -26 l151 0 l0 224 l-150 0 l0 -198 Z" /><glyph glyph-name="uni578B" unicode="&#x578b;" d="M697 271 l-24 68 l47 4 q30 3 44 8 q14 5 20.5 17.5 q6.5 12.5 6.5 37.5 l0 381 l72 -2 l0 -398 q0 -42 -11 -63.5 q-11 -21.5 -36 -31.5 q-25 -10 -74 -15 l-45 -6 ZM68 258 q58 59 83.5 101 q25.5 42 34.5 97 l-126 0 l0 67 l132 0 l0 35 l0 121 l-102 0 l0 67 l475 0 l0 -67 l-102 0 l0 -156 l122 0 l0 -67 l-122 0 l0 -185 l-71 0 l0 185 l-134 0 q-8 -71 -36.5 -121.5 q-28.5 -50.5 -94.5 -115.5 l-59 39 ZM613 734 l70 -2 l0 -347 l-70 0 l0 349 ZM263 679 l0 -122 l0 -34 l129 0 l0 156 l-129 0 ZM533 126 l0 -126 l398 0 l0 -66 l-880 0 l0 66 l406 0 l0 126 l-302 0 l0 67 l302 0 l0 69 l76 -3 l0 -66 l296 0 l0 -67 l-296 0 Z" /><glyph glyph-name="uni57DF" unicode="&#x57df;" d="M850 655 q-15 26 -47 61.5 q-32 35.5 -55 55.5 l46 40 q22 -18 55 -53 q33 -35 49 -58 l-48 -46 ZM933 125 q-4 -26 -18 -94 q-11 -48 -22.5 -73 q-11.5 -25 -28 -34.5 q-16.5 -9.5 -43.5 -9.5 q-30 0 -55 23.5 q-25 23.5 -47 75.5 q-11 25 -22 66 q-70 -89 -165 -164 l-50 57 q127 97 196 190 q-33 174 -42 420 l-303 0 l0 68 l301 0 q-3 114 -3 158 l68 -2 l3 -156 l220 0 l0 -68 l-219 0 q4 -198 26 -341 q57 101 103 265 l61 -21 q-54 -193 -146 -336 q11 -52 29 -98 q12 -31 22 -42.5 q10 -11.5 23 -11.5 q14 0 21.5 15.5 q7.5 15.5 16.5 60.5 q10 46 12 80 l62 -28 ZM330 151 l7 -38 q-207 -69 -274 -85 l-16 71 q39 8 122 34 l0 350 l-104 0 l0 70 l104 0 l0 240 l71 -3 l0 -237 l97 0 l0 -70 l-97 0 l0 -328 l84 28 l6 -32 ZM358 199 l0 279 l223 0 l0 -279 l-223 0 ZM418 264 l102 0 l0 150 l-102 0 l0 -150 ZM589 109 l6 -28 q-55 -19 -143.5 -42.5 q-88.5 -23.5 -167.5 -40.5 l-15 66 q205 46 314 81 l6 -36 Z" /><glyph glyph-name="uni57F9" unicode="&#x57f9;" d="M938 427 l0 -69 l-613 0 l0 69 l166 0 q-12 101 -29 190 l-103 0 l0 69 l242 0 q-22 77 -34 107 l73 13 q21 -64 35 -120 l222 0 l0 -69 l-90 0 q-23 -118 -42 -190 l173 0 ZM355 146 l5 -35 q-59 -23 -157 -52.5 q-98 -29.5 -153 -41.5 l-17 72 q37 7 138 36 l0 345 l-118 0 l0 70 l118 0 l0 253 l72 -2 l0 -251 l108 0 l0 -70 l-108 0 l0 -323 q68 22 106 37 l6 -38 ZM530 617 q20 -114 31 -190 l134 0 q22 80 42 190 l-207 0 ZM468 -101 l-72 0 l0 357 l455 0 l0 -357 l-74 0 l0 53 l-309 0 l0 -53 ZM777 19 l0 169 l-309 0 l0 -169 l309 0 Z" /><glyph glyph-name="uni57FA" unicode="&#x57fa;" d="M686 279 q48 -56 113 -97 q65 -41 157 -78 l-40 -60 q-110 50 -183 104 q-73 54 -129 131 l-232 0 q-43 -66 -125 -130 q-82 -64 -187 -115 l-41 65 q187 83 273 180 l-238 0 l0 60 l175 0 l0 317 l-144 0 l0 59 l144 0 l0 78 l72 -2 l0 -76 l375 0 l0 78 l72 -2 l0 -76 l145 0 l0 -59 l-145 0 l0 -317 l177 0 l0 -60 l-239 0 ZM676 588 l0 68 l-375 0 l0 -68 l375 0 ZM676 530 l-375 0 l0 -66 l375 0 l0 66 ZM676 407 l-375 0 l0 -68 l375 0 l0 68 ZM715 85 l-189 0 l0 -94 l363 0 l0 -62 l-802 0 l0 62 l366 0 l0 94 l-194 0 l0 60 l194 0 l0 92 l73 -2 l0 -90 l189 0 l0 -60 Z" /><glyph glyph-name="uni586B" unicode="&#x586b;" d="M839 143 l105 0 l0 -55 l-620 0 l0 36 q-56 -27 -139 -61.5 q-83 -34.5 -131 -49.5 l-20 66 q64 21 138 52 l0 341 l-109 0 l0 72 l109 0 l0 246 l68 -2 l0 -244 l100 0 l0 -72 l-100 0 l0 -313 q37 15 80 36 l9 -37 l4 -15 l56 0 l0 448 l186 0 l0 70 l-237 0 l0 58 l237 0 l0 84 l70 -2 l0 -82 l262 0 l0 -58 l-262 0 l0 -70 l194 0 l0 -448 ZM771 477 l0 60 l-313 0 l0 -60 l313 0 ZM458 367 l313 0 l0 58 l-313 0 l0 -58 ZM771 255 l0 59 l-313 0 l0 -59 l313 0 ZM771 203 l-313 0 l0 -60 l313 0 l0 60 ZM275 -47 q49 16 128.5 54.5 q79.5 38.5 122.5 68.5 l34 -56 q-45 -29 -125 -69 q-80 -40 -129 -57 l-31 59 ZM688 71 q50 -17 127.5 -53 q77.5 -36 116.5 -60 l-27 -62 q-37 28 -113 63.5 q-76 35.5 -131 55.5 l27 56 Z" /><glyph glyph-name="uni5883" unicode="&#x5883;" d="M926 562 l0 -57 l-595 0 l0 57 l147 0 q-6 44 -20 104 l-113 0 l0 56 l235 0 q-13 41 -33 86 l73 13 q18 -42 35 -99 l241 0 l0 -56 l-123 0 q-18 -76 -26 -104 l179 0 ZM335 153 l5 -33 q-54 -21 -145 -50 q-91 -29 -144 -42 l-14 68 q56 15 125 36 l0 347 l-102 0 l0 71 l102 0 l0 258 l68 -2 l0 -256 l86 0 l0 -71 l-86 0 l0 -325 q50 16 100 35 l5 -36 ZM522 666 q10 -51 18 -104 l140 0 q16 47 29 104 l-187 0 ZM945 84 q-3 -55 -14 -105 q-6 -28 -25.5 -39 q-19.5 -11 -74.5 -15 q-30 -2 -45 -2 q-15 0 -45 2 q-47 3 -67 21 q-20 18 -20 64 l0 137 l-108 0 l-1 -13 q-3 -64 -33 -107.5 q-30 -43.5 -85.5 -74 q-55.5 -30.5 -146.5 -60.5 l-32 61 q120 34 171.5 76.5 q51.5 42.5 56.5 103.5 l1 14 l-107 0 l0 293 l474 0 l0 -293 l-124 0 l0 -114 q0 -29 9.5 -38 q9.5 -9 37.5 -11 q9 -1 25 -1 q34 0 50.5 3 q16.5 3 23.5 10.5 q7 7.5 10 23.5 q8 45 8 86 l61 -22 ZM779 321 l0 62 l-343 0 l0 -62 l343 0 ZM779 266 l-343 0 l0 -63 l343 0 l0 63 Z" /><glyph glyph-name="uni5899" unicode="&#x5899;" d="M653 646 l0 -175 l282 0 l0 -60 l-614 0 l0 60 l260 0 l0 175 l-237 0 l0 60 l237 0 l0 96 l72 -2 l0 -94 l254 0 l0 -60 l-254 0 ZM335 155 l8 -35 q-55 -22 -144.5 -51 q-89.5 -29 -139.5 -40 l-19 72 q37 7 122 33 l0 353 l-104 0 l0 71 l104 0 l0 232 l70 -2 l0 -230 l100 0 l0 -71 l-100 0 l0 -330 q44 14 96 33 l7 -35 ZM422 644 q34 -34 106 -127 l-49 -46 q-16 29 -47.5 69 q-31.5 40 -55.5 65 l46 39 ZM703 510 q23 22 57 64 q34 42 50 69 l49 -41 q-18 -27 -51.5 -67.5 q-33.5 -40.5 -57.5 -62.5 l-47 38 ZM438 -96 l-70 0 l0 445 l506 0 l0 -445 l-70 0 l0 43 l-366 0 l0 -43 ZM804 5 l0 285 l-366 0 l0 -285 l366 0 ZM502 230 l232 0 l0 -167 l-232 0 l0 167 ZM561 113 l116 0 l0 67 l-116 0 l0 -67 Z" /><glyph glyph-name="uni589E" unicode="&#x589e;" d="M891 686 l0 -323 l-535 0 l0 323 l133 0 q-21 43 -58 91 l57 34 q18 -23 38 -53 q20 -30 30 -50 l-32 -22 l146 0 q22 26 46.5 63 q24.5 37 39.5 66 l63 -34 q-26 -43 -66 -95 l138 0 ZM344 148 l5 -37 q-55 -20 -150 -50.5 q-95 -30.5 -148 -45.5 l-14 72 q49 12 131 38 l0 351 l-108 0 l0 70 l108 0 l0 255 l67 -3 l0 -252 l98 0 l0 -70 l-98 0 l0 -329 q70 24 104 37 l5 -36 ZM590 623 l-171 0 l0 -197 l171 0 l0 197 ZM651 426 l175 0 l0 197 l-175 0 l0 -197 ZM487 603 q20 -26 43.5 -63 q23.5 -37 34.5 -61 l-48 -36 q-11 27 -35.5 68.5 q-24.5 41.5 -40.5 61.5 l46 30 ZM672 481 q21 23 44.5 58 q23.5 35 37.5 63 l48 -33 q-15 -27 -39.5 -63.5 q-24.5 -36.5 -43.5 -60.5 l-47 36 ZM463 -99 l-67 0 l0 390 l451 0 l0 -390 l-68 0 l0 47 l-316 0 l0 -47 ZM779 149 l0 81 l-316 0 l0 -81 l316 0 ZM463 88 l0 -80 l316 0 l0 80 l-316 0 Z" /><glyph glyph-name="uni58F0" unicode="&#x58f0;" d="M918 710 l0 -64 l-390 0 l0 -101 l321 0 l0 -63 l-715 0 l0 63 l318 0 l0 101 l-391 0 l0 64 l391 0 l0 101 l76 -3 l0 -98 l390 0 ZM163 398 l661 0 l0 -273 l-597 0 q-12 -69 -44.5 -126.5 q-32.5 -57.5 -83.5 -117.5 l-62 50 q50 55 77 99 q27 44 38 90.5 q11 46.5 11 109.5 l0 168 ZM454 334 l-221 0 l0 -142 l0 -3 l221 0 l0 145 ZM527 189 l221 0 l0 145 l-221 0 l0 -145 Z" /><glyph glyph-name="uni5904" unicode="&#x5904;" d="M810 9 q66 0 129 3 l-16 -79 q-60 -3 -129 -3 q-61 0 -90 1 q-135 4 -233 39.5 q-98 35.5 -171 120.5 q-82 -100 -200 -193 l-59 54 q131 99 213 202 q-57 91 -97 233 q-34 -63 -65 -112 l-59 40 q68 97 116.5 220.5 q48.5 123.5 76.5 259.5 l73 -9 q-18 -79 -37 -141 l242 0 l0 -78 q-20 -122 -57.5 -223 q-37.5 -101 -98.5 -190 q64 -76 154 -108 q90 -32 217 -36 q29 -1 91 -1 ZM600 792 l78 -3 l0 -739 l-78 0 l0 742 ZM301 219 q50 77 82 163 q32 86 49 187 l-195 0 q-15 -44 -33 -84 q38 -165 97 -266 ZM893 306 q-100 109 -204 168 l35 59 q114 -67 202 -146 l-33 -81 Z" /><glyph glyph-name="uni5907" unicode="&#x5907;" d="M942 396 l-26 -72 q-152 26 -256 53.5 q-104 27.5 -179 63.5 q-174 -78 -421 -122 l-24 66 q206 35 368 99 q-72 47 -140 116 q-76 -71 -154 -123 l-52 56 q95 56 171.5 133.5 q76.5 77.5 119.5 147.5 l80 -21 q-24 -37 -51 -71 l430 0 l0 -73 q-112 -97 -242 -167 q142 -54 376 -86 ZM484 520 q111 54 213 135 l-378 0 l-6 -7 q83 -81 171 -128 ZM245 -112 l-75 0 l0 438 l629 0 l0 -438 l-76 0 l0 52 l-478 0 l0 -52 ZM452 164 l0 95 l-207 0 l0 -95 l207 0 ZM525 164 l198 0 l0 95 l-198 0 l0 -95 ZM245 101 l0 -95 l207 0 l0 95 l-207 0 ZM525 101 l0 -95 l198 0 l0 95 l-198 0 Z" /><glyph glyph-name="uni590D" unicode="&#x590d;" d="M914 -93 q-242 37 -398 89 q-158 -53 -432 -98 l-27 61 q210 28 366 73 q-97 43 -176 103 q-65 -55 -158 -106 l-42 50 q163 86 256 207 l-119 0 l0 283 q-36 -40 -93 -95 l-59 47 q69 58 133 137.5 q64 79.5 99 148.5 l74 -21 q-17 -32 -39 -67 l596 0 l0 -63 l-639 0 q-33 -43 -57 -71 l608 0 l0 -299 l-480 0 l45 -24 q-18 -23 -36 -42 l489 0 l0 -59 q-95 -77 -217 -130 q147 -39 329 -57 l-23 -67 ZM731 462 l0 67 l-472 0 l0 -67 l472 0 ZM731 413 l-472 0 l0 -69 l472 0 l0 69 ZM304 163 q87 -60 207 -103 q128 46 207 103 l-414 0 Z" /><glyph glyph-name="uni5916" unicode="&#x5916;" d="M331 789 q-17 -64 -44 -144 l230 0 l0 -74 q-24 -141 -73.5 -253 q-49.5 -112 -128.5 -210.5 q-79 -98.5 -200 -205.5 l-60 60 q118 100 194 190.5 q76 90.5 123 191 q47 100.5 72 227.5 l-185 0 q-26 -66 -64 -140 q34 -20 74 -49.5 q40 -29.5 64 -51.5 l-43 -77 q-21 24 -58 55 q-37 31 -73 55 q-30 -52 -64 -99 l-58 55 q70 100 127 228 q57 128 88 255 l79 -13 ZM603 -96 l0 896 l73 -2 l0 -894 l-73 0 ZM716 492 q153 -98 224 -161 l-44 -76 q-64 64 -112.5 103 q-48.5 39 -107.5 75 l40 59 Z" /><glyph glyph-name="uni591A" unicode="&#x591a;" d="M385 649 l-18 -12 q-14 -11 -31 -22 q63 -31 122 -68 l-46 -59 q-21 20 -61.5 44.5 q-40.5 24.5 -79.5 43.5 q-50 -30 -132 -68 l-43 54 q116 51 213.5 118 q97.5 67 160.5 136 l65 -32 q-32 -37 -68 -70 l387 0 l0 -65 q-130 -115 -313 -198.5 q-183 -83.5 -441 -139.5 l-35 63 q228 46 395.5 114 q167.5 68 285.5 161 l-361 0 ZM888 351 l0 -67 q-83 -95 -182.5 -164 q-99.5 -69 -246.5 -125.5 q-147 -56.5 -365 -105.5 l-37 66 q207 45 346 94.5 q139 49.5 227.5 105.5 q88.5 56 156.5 129 l-330 0 q-48 -32 -74 -47 q86 -49 134 -84 l-48 -63 q-25 24 -69.5 55.5 q-44.5 31.5 -84.5 54.5 q-77 -40 -194 -86 l-37 62 q145 50 265 120 q120 70 197 145 l56 -36 q-31 -31 -58 -54 l344 0 Z" /><glyph glyph-name="uni591F" unicode="&#x591f;" d="M495 515 l-43 44 q64 52 116.5 118 q52.5 66 82.5 129 l68 -10 q-25 -48 -51 -88 l231 0 l0 -65 q-56 -101 -156.5 -177.5 q-100.5 -76.5 -257.5 -138.5 l-28 56 q266 95 371 266 l-203 0 q-20 -26 -31 -38 q57 -43 90 -74 l-47 -48 q-13 17 -37.5 39 q-24.5 22 -46.5 39 q-38 -36 -58 -52 ZM447 681 q-1 -108 -3.5 -309 q-2.5 -201 -4.5 -314 q-1 -50 -14.5 -76.5 q-13.5 -26.5 -42.5 -39 q-29 -12.5 -85 -18.5 l-53 -6 l-23 70 l70 6 q37 3 52.5 10.5 q15.5 7.5 21 25 q5.5 17.5 7.5 57.5 q1 28 3 229.5 q2 201.5 3 293.5 l-202 0 q-36 -60 -111 -158 l-48 46 q59 67 108.5 150.5 q49.5 83.5 73.5 156.5 l67 -12 q-22 -60 -49 -112 l230 0 ZM99 484 l211 0 l0 -385 l-211 0 l0 385 ZM918 341 l0 -68 q-48 -122 -152 -212 q-104 -90 -284 -169 l-45 62 q169 62 267 140 q98 78 143 182 l-185 0 q-25 -30 -48 -53 q24 -19 51 -43 q27 -24 42 -40 l-44 -51 q-15 21 -41.5 47.5 q-26.5 26.5 -50.5 46.5 q-33 -29 -76 -59 l-42 53 q84 54 141 115 q57 61 103 136 l61 -20 l-45 -67 l205 0 ZM160 159 l89 0 l0 267 l-89 0 l0 -267 Z" /><glyph glyph-name="uni5927" unicode="&#x5927;" d="M935 -25 l-52 -72 q-142 86 -242.5 196.5 q-100.5 110.5 -144.5 222.5 q-83 -219 -387 -419 l-56 72 q169 96 278 225.5 q109 129.5 117 287.5 l-360 0 l0 76 l360 0 l0 235 l81 -4 l0 -231 l373 0 l0 -76 l-373 0 q0 -11 -2 -31 q67 -301 408 -482 Z" /><glyph glyph-name="uni5929" unicode="&#x5929;" d="M532 372 q40 -135 137.5 -229.5 q97.5 -94.5 264.5 -167.5 l-45 -76 q-165 84 -257.5 172.5 q-92.5 88.5 -137.5 206.5 q-42 -106 -140.5 -202 q-98.5 -96 -260.5 -177 l-50 69 q179 84 277.5 184.5 q98.5 100.5 119.5 219.5 l-366 0 l0 74 l372 0 l0 211 l-319 0 l0 72 l720 0 l0 -72 l-322 0 l0 -211 l375 0 l0 -74 l-368 0 Z" /><glyph glyph-name="uni592A" unicode="&#x592a;" d="M529 508 q18 -93 75.5 -191 q57.5 -98 145.5 -186.5 q88 -88.5 195 -151.5 l-61 -68 q-136 100 -239 223.5 q-103 123.5 -153 251.5 q-47 -131 -148.5 -255.5 q-101.5 -124.5 -249.5 -223.5 l-59 65 q172 107 277 247 q105 140 128 289 l-364 0 l0 77 l370 0 l0 3 l0 213 l81 -3 l0 -213 l376 0 l0 -77 l-374 0 ZM412 177 q32 -29 81.5 -86.5 q49.5 -57.5 76.5 -96.5 l-55 -56 q-23 41 -71.5 99 q-48.5 58 -83.5 91 l52 49 Z" /><glyph glyph-name="uni5931" unicode="&#x5931;" d="M545 297 q44 -113 135 -189 q91 -76 251 -133 l-47 -72 q-148 59 -241.5 134.5 q-93.5 75.5 -144.5 181.5 q-46 -91 -144 -173 q-98 -82 -248 -147 l-49 68 q326 132 386 330 l-368 0 l0 75 l381 0 l0 6 q2 43 4 177 l-216 0 q-36 -82 -77 -148 l-66 36 q44 68 80.5 155 q36.5 87 59.5 172 l73 -17 q-18 -62 -41 -124 l188 0 l1 173 l80 -3 q0 -14 -0.5 -60 q-0.5 -46 -0.5 -110 l316 0 l0 -74 l-317 0 l-2 -171 l0 -12 l364 0 l0 -75 l-357 0 Z" /><glyph glyph-name="uni5934" unicode="&#x5934;" d="M919 229 l-323 0 q-10 -37 -22 -62 q73 -36 172.5 -89.5 q99.5 -53.5 164.5 -91.5 l-36 -72 q-64 44 -162.5 101.5 q-98.5 57.5 -174.5 92.5 q-51 -64 -148.5 -109.5 q-97.5 -45.5 -276.5 -92.5 l-32 71 q145 36 229 69.5 q84 33.5 131.5 76.5 q47.5 43 70.5 106 l-449 0 l0 69 l467 0 q11 63 18 212 q2 58 3.5 130.5 q1.5 72.5 2.5 124.5 l0 26 l78 -3 q-4 -247 -6 -289 q-5 -132 -16 -201 l309 0 l0 -69 ZM446 524 q-43 37 -124.5 90 q-81.5 53 -131.5 76 l39 63 q57 -30 133.5 -78 q76.5 -48 126.5 -86 l-43 -65 ZM387 325 q-48 38 -131 90.5 q-83 52.5 -138 77.5 l38 64 q58 -30 138 -79 q80 -49 135 -88 l-42 -65 Z" /><glyph glyph-name="uni5939" unicode="&#x5939;" d="M532 251 q47 -101 143.5 -169.5 q96.5 -68.5 262.5 -112.5 l-36 -67 q-154 46 -254.5 115 q-100.5 69 -157.5 169 q-89 -162 -403 -284 l-43 66 q334 123 394 283 l-367 0 l0 71 l381 0 l0 4 l0 279 l-354 0 l0 70 l354 0 l0 129 l74 -2 l0 -127 l356 0 l0 -70 l-356 0 l0 -283 l382 0 l0 -71 l-376 0 ZM215 580 q30 -31 77 -90.5 q47 -59.5 71 -97.5 l-56 -51 q-23 42 -68.5 103 q-45.5 61 -78.5 94 l55 42 ZM614 390 q32 30 77.5 90 q45.5 60 68.5 100 l58 -41 q-25 -41 -72 -102.5 q-47 -61.5 -77 -90.5 l-55 44 Z" /><glyph glyph-name="uni594F" unicode="&#x594f;" d="M515 245 l-3 -62 l-1 -11 l290 0 l0 -60 l-300 0 q-1 -4 -3 -10 q-2 -6 -6 -14 q72 -21 176 -57 q104 -36 187 -67 l-26 -74 q-80 36 -189 78.5 q-109 42.5 -183 64.5 q-40 -43 -118 -74 q-78 -31 -215 -62 l-25 67 q108 22 173.5 43.5 q65.5 21.5 100 46.5 q34.5 25 49.5 58 l-266 0 l0 60 l282 0 l1 13 q3 54 3 60 l-156 0 l0 44 q-87 -77 -236 -157 l-32 61 q90 48 155 94.5 q65 46.5 112 97.5 l-225 0 l0 60 l272 0 q23 36 41 74 l-230 0 l0 60 l254 0 q12 34 21 74 l-314 0 l0 62 l327 0 q6 38 17 95 l70 -4 q-5 -41 -15 -91 l351 0 l0 -62 l-365 0 q-8 -34 -20 -74 l345 0 l0 -60 l-367 0 q-15 -38 -35 -74 l486 0 l0 -60 l-241 0 q100 -110 280 -175 l-33 -66 q-136 57 -235 140 l0 -39 l-154 0 ZM373 385 q-30 -42 -72 -82 l347 0 q-40 35 -75 82 l-200 0 Z" /><glyph glyph-name="uni5957" unicode="&#x5957;" d="M297 244 l0 -63 l630 0 l0 -62 l-247 0 q41 -31 96 -81 q55 -50 87 -85 l-45 -63 q-23 32 -65 72 q-113 -3 -262 -8.5 q-149 -5.5 -239 -9.5 q-56 -5 -95 -9 l-21 66 q25 4 37.5 8 q12.5 4 26.5 13 q60 39 126 97 l-275 0 l0 62 l174 0 l0 290 q-63 -36 -160 -77 l-35 67 q110 40 186.5 86 q76.5 46 127.5 100 l-265 0 l0 64 l316 0 q33 51 55 108 l74 -17 q-24 -56 -45 -91 l421 0 l0 -64 l-256 0 q119 -126 310 -180 l-31 -64 q-98 33 -176 78 l-450 0 l0 -62 l483 0 l0 -57 l-483 0 l0 -62 l483 0 l0 -56 l-483 0 ZM437 647 q-41 -55 -104 -105 l323 0 q-60 47 -106 105 l-113 0 ZM686 24 q-44 38 -71 56 l37 39 l-222 0 q-64 -58 -141 -110 l397 15 Z" /><glyph glyph-name="uni597D" unicode="&#x597d;" d="M461 44 l-52 -71 q-38 46 -122 123 q-34 -47 -80 -93.5 q-46 -46.5 -113 -99.5 l-57 55 q70 54 115.5 97.5 q45.5 43.5 78.5 90.5 q-88 74 -133 106 q38 154 60 298 l-102 0 l0 75 l113 0 q11 77 19 181 l72 -6 q-10 -103 -19 -175 l179 0 l0 -71 q-16 -139 -36.5 -229 q-20.5 -90 -55.5 -159 q82 -69 133 -122 ZM937 391 l0 -74 l-224 0 l0 -285 q0 -45 -12 -69.5 q-12 -24.5 -41.5 -36 q-29.5 -11.5 -84.5 -14.5 l-53 -4 l-24 78 l64 4 q33 2 48.5 8 q15.5 6 21 20 q5.5 14 5.5 42 l0 257 l-214 0 l0 74 l214 0 l0 119 l162 151 l-335 0 l0 75 l431 0 l0 -74 l-182 -179 l0 -92 l224 0 ZM271 214 q29 61 48 140.5 q19 79.5 34 195.5 l-123 0 q-19 -123 -54 -265 q44 -30 95 -71 Z" /><glyph glyph-name="uni5982" unicode="&#x5982;" d="M461 549 q-15 -147 -39.5 -241.5 q-24.5 -94.5 -69.5 -166.5 q97 -80 148 -131 l-46 -67 q-51 57 -146 138 q-36 -44 -87 -88.5 q-51 -44.5 -123 -98.5 l-51 59 q73 51 122 92 q49 41 84 82 q-96 76 -147 105 q43 157 69 318 l-112 0 l0 71 l122 0 q11 81 19 187 l76 -9 q-7 -87 -20 -178 l201 0 l0 -72 ZM537 -79 l0 763 l338 0 l0 -758 l-72 0 l0 81 l-194 0 l0 -86 l-72 0 ZM609 614 l0 -537 l194 0 l0 537 l-194 0 ZM295 185 q40 64 60 147.5 q20 83.5 33 217.5 l-138 0 q-26 -171 -62 -291 q38 -22 107 -74 Z" /><glyph glyph-name="uni59BB" unicode="&#x59bb;" d="M807 422 l0 -116 l-434 0 l63 -18 q-14 -28 -35 -62 l515 0 l0 -57 l-181 0 q-50 -80 -118 -126 q187 -50 277 -83 l-22 -68 q-115 49 -335 108 q-70 -31 -175 -56 q-105 -25 -266 -50 l-28 67 q242 31 365 66 q-127 34 -224 54 q33 38 69 88 l-217 0 l0 57 l255 0 q25 39 46 80 l-228 0 l0 54 l314 0 l0 62 l-398 0 l0 57 l398 0 l0 60 l-308 0 l0 56 l308 0 l0 74 l-354 0 l0 57 l354 0 l0 82 l72 -2 l0 -80 l369 0 l0 -57 l-369 0 l0 -74 l287 0 l0 -116 l126 0 l0 -57 l-126 0 ZM730 539 l-210 0 l0 -60 l210 0 l0 60 ZM520 422 l0 -62 l210 0 l0 62 l-210 0 ZM365 169 l-39 -56 q85 -18 205 -48 q39 20 67.5 45.5 q28.5 25.5 50.5 58.5 l-284 0 Z" /><glyph glyph-name="uni59CB" unicode="&#x59cb;" d="M414 412 l-15 69 q18 7 26.5 13 q8.5 6 17.5 18 q36 45 85 133.5 q49 88.5 82 165.5 l68 -28 q-30 -70 -78 -155 q-48 -85 -87 -135 l289 15 q-50 97 -91 156 l58 33 q36 -48 86.5 -137 q50.5 -89 72.5 -144 l-63 -44 q-7 20 -28 65 q-81 -4 -190 -9 q-109 -5 -173 -9 q-23 -1 -60 -7 ZM416 31 l-45 -67 q-37 47 -110 115 q-51 -78 -162 -191 l-50 50 q110 106 161 188 q-80 72 -128 104 q34 139 59 316 l-90 0 l0 73 l100 0 q12 101 17 182 l69 -5 q-8 -92 -18 -177 l164 0 l0 -73 q-13 -145 -32 -236.5 q-19 -91.5 -52 -163.5 q67 -60 117 -115 ZM244 193 q28 64 43 144 q15 80 27 209 l-104 0 q-22 -160 -53 -286 q36 -24 87 -67 ZM520 -97 l-72 0 l0 406 l420 0 l0 -407 l-73 0 l0 58 l-275 0 l0 -57 ZM795 28 l0 211 l-275 0 l0 -211 l275 0 Z" /><glyph glyph-name="uni59D3" unicode="&#x59d3;" d="M392 48 l-48 -59 q-28 36 -91 98 q-27 -42 -64.5 -85.5 q-37.5 -43.5 -92.5 -99.5 l-51 51 q56 55 93.5 98 q37.5 43 63.5 84 q-65 57 -121 100 q35 138 56 313 l-83 0 l0 70 l91 0 q10 110 13 184 l71 -6 q-4 -74 -16 -178 l156 0 l0 -67 q-9 -144 -27 -236 q-18 -92 -53 -165 q68 -60 103 -102 ZM709 25 l232 0 l0 -74 l-540 0 l0 74 l234 0 l0 228 l-195 0 l0 73 l195 0 l0 202 l-132 0 q-19 -83 -48 -167 l-68 23 q59 168 86 365 l67 -9 q-9 -69 -21 -137 l116 0 l0 199 l74 -3 l0 -196 l204 0 l0 -75 l-204 0 l0 -202 l188 0 l0 -73 l-188 0 l0 -228 ZM236 196 q28 63 43.5 144 q15.5 81 24.5 208 l-99 0 q-23 -175 -52 -286 q36 -27 83 -66 Z" /><glyph glyph-name="uni5B50" unicode="&#x5b50;" d="M922 388 l0 -74 l-387 0 l0 -268 q0 -47 -11 -70.5 q-11 -23.5 -38 -33.5 q-27 -10 -83 -15 l-83 -7 l-26 76 l84 5 q36 3 51 8 q15 5 20 18.5 q5 13.5 5 45.5 l0 241 l-394 0 l0 74 l394 0 l0 89 l260 189 l-567 0 l0 73 l694 0 l0 -74 l-306 -223 l0 -54 l387 0 Z" /><glyph glyph-name="uni5B57" unicode="&#x5b57;" d="M173 619 l0 -143 l-76 0 l0 215 l362 0 q-23 77 -34 102 l78 14 q13 -34 39 -116 l342 0 l0 -216 l-77 0 l0 144 l-634 0 ZM924 262 l0 -72 l-387 0 l0 -153 q0 -51 -10 -74.5 q-10 -23.5 -34 -32.5 q-24 -9 -78 -14 l-77 -7 l-25 73 l76 6 q32 3 45.5 8 q13.5 5 18.5 18 q5 13 5 44 l0 132 l-403 0 l0 72 l403 0 l0 56 l174 114 l-416 0 l0 72 l543 0 l0 -71 l-222 -144 l0 -27 l387 0 Z" /><glyph glyph-name="uni5B58" unicode="&#x5b58;" d="M405 626 q-54 -111 -126 -205 l0 -524 l-72 0 l0 439 q-57 -61 -133 -128 l-51 59 q187 155 293 359 l-231 0 l0 68 l264 0 q24 53 42 113 l79 -13 q-16 -50 -36 -100 l475 0 l0 -68 l-504 0 ZM930 262 l0 -69 l-259 0 l1 -169 q0 -46 -10.5 -69.5 q-10.5 -23.5 -39.5 -35 q-29 -11.5 -89 -16.5 l-57 -5 l-25 72 l68 6 q36 3 52 9 q16 6 21.5 18 q5.5 12 5.5 38 l-1 152 l-261 0 l0 69 l261 0 l0 74 l149 107 l-351 0 l0 66 l468 0 l0 -66 l-192 -141 l0 -40 l259 0 Z" /><glyph glyph-name="uni5B66" unicode="&#x5b66;" d="M166 560 l0 -122 l-75 0 l0 193 l155 0 q-13 31 -33.5 69 q-20.5 38 -37.5 60 l69 29 q14 -18 35 -57.5 q21 -39.5 34 -68.5 l-55 -32 l218 0 q-11 44 -68 155 l70 23 q13 -22 38 -73 q25 -51 32 -74 l-65 -31 l158 0 q26 40 52 87.5 q26 47.5 40 81.5 l73 -29 q-39 -74 -80 -140 l163 0 l0 -193 l-75 0 l0 122 l-648 0 ZM922 232 l0 -73 l-377 0 l0 -129 q0 -45 -12 -68 q-12 -23 -40 -32 q-28 -9 -85 -13 l-78 -5 l-22 72 l83 6 q35 3 49.5 7 q14.5 4 20 16 q5.5 12 5.5 40 l0 106 l-408 0 l0 73 l408 0 l0 53 l167 97 l-413 0 l0 72 l540 0 l0 -69 l-215 -130 l0 -23 l377 0 Z" /><glyph glyph-name="uni5B69" unicode="&#x5b69;" d="M931 666 l0 -68 l-307 0 q-26 -46 -60 -94 q-34 -48 -62 -78 l185 9 q34 46 79 124 l63 -33 q-59 -102 -118.5 -176 q-59.5 -74 -140.5 -140 q-81 -66 -199 -132 l-44 61 q101 53 174 107.5 q73 54.5 130 118.5 q-81 -3 -174 -7 q-20 0 -47 -9 l-17 71 q26 9 41 22 q23 23 53.5 66.5 q30.5 43.5 56.5 89.5 l-147 0 l0 68 l224 0 q-7 31 -18 66.5 q-11 35.5 -20 56.5 l67 19 q11 -27 24 -69.5 q13 -42.5 20 -72.5 l237 0 ZM380 336 l-114 -42 l0 -265 q0 -46 -11.5 -70.5 q-11.5 -24.5 -37.5 -36 q-26 -11.5 -75 -15.5 l-46 -4 l-22 76 l57 4 q30 2 42.5 8 q12.5 6 16.5 19 q4 13 4 42 l0 218 q-90 -30 -139 -43 l-24 70 q61 14 163 48 l0 135 l100 162 l-213 0 l0 75 l291 0 l0 -74 l-106 -177 l0 -97 q74 25 104 38 l5 -37 l5 -34 ZM921 -41 l-44 -69 q-35 40 -93 88.5 q-58 48.5 -114 87.5 q-112 -90 -298 -180 l-42 60 q125 55 213 114 q88 59 155 130 q67 71 132 169 l54 -39 q-77 -127 -160 -206 q57 -39 112.5 -82 q55.5 -43 84.5 -73 Z" /><glyph glyph-name="uni5B83" unicode="&#x5b83;" d="M879 680 l0 -220 l-72 0 l0 149 l-631 0 l0 -149 l-72 0 l0 220 l367 0 q-15 51 -35 104 l78 14 q17 -39 40 -118 l325 0 ZM795 175 l77 -30 q-1 -9 -7 -56 q-6 -47 -16 -86 q-10 -34 -44 -51 q-34 -17 -115 -20 q-81 -3 -162 -3 q-81 0 -162 3 q-55 2 -86.5 15 q-31.5 13 -46.5 43 q-15 30 -15 85 l0 438 l76 -3 l0 -224 q122 35 251.5 84 q129.5 49 223.5 98 l36 -74 q-99 -47 -243 -98.5 q-144 -51.5 -268 -87.5 l0 -121 q0 -35 8 -52.5 q8 -17.5 26 -24 q18 -6.5 51 -8.5 q98 -2 146 -2 q50 0 146 2 q57 2 79 13 q22 11 29 39 q13 54 16 121 Z" /><glyph glyph-name="uni5B89" unicode="&#x5b89;" d="M187 614 l0 -117 l-76 0 l0 187 l349 0 q-16 59 -35 105 l75 21 q25 -62 42 -126 l333 0 l0 -187 l-75 0 l0 117 l-613 0 ZM937 351 l-198 0 q-31 -81 -61.5 -137 q-30.5 -56 -70.5 -98 q160 -71 277 -139 l-33 -76 q-104 68 -306 161 q-69 -50 -177 -87.5 q-108 -37.5 -279 -73.5 l-28 73 q149 25 246 54 q97 29 160 68 q-152 64 -268 101 q43 62 95 154 l-251 0 l0 71 l289 0 q47 94 75 158 l77 -26 q-37 -82 -63 -132 l516 0 l0 -71 ZM650 351 l-266 0 q-37 -69 -72 -121 q95 -29 221 -82 q38 37 65 85 q27 48 52 118 Z" /><glyph glyph-name="uni5B8B" unicode="&#x5b8b;" d="M180 616 l0 -123 l-75 0 l0 196 l360 0 q-7 30 -35 110 l75 13 q10 -25 22.5 -62 q12.5 -37 18.5 -61 l328 0 l0 -196 l-76 0 l0 123 l-618 0 ZM549 345 q70 -94 170 -172 q100 -78 236 -147 l-50 -66 q-121 66 -212 143 q-91 77 -163 167 l0 -372 l-77 0 l0 375 q-69 -90 -158.5 -167.5 q-89.5 -77.5 -209.5 -145.5 l-54 64 q136 70 233 149 q97 79 166 172 l-353 0 l0 72 l376 0 l0 146 l77 -3 l0 -143 l374 0 l0 -72 l-355 0 Z" /><glyph glyph-name="uni5B8C" unicode="&#x5b8c;" d="M170 624 l0 -135 l-73 0 l0 204 l373 0 q-18 60 -34 103 l74 14 q13 -31 41 -117 l329 0 l0 -203 l-73 0 l0 134 l-637 0 ZM774 500 l0 -67 l-571 0 l0 67 l571 0 ZM914 102 q-5 -71 -17 -114 q-9 -34 -44.5 -48.5 q-35.5 -14.5 -118.5 -14.5 l-59 0 q-64 0 -92 27 q-28 27 -28 92 l0 192 l-161 0 l-1 -22 q-6 -85 -34.5 -142.5 q-28.5 -57.5 -89 -100.5 q-60.5 -43 -164.5 -79 l-44 65 q97 31 150 65.5 q53 34.5 76.5 80.5 q23.5 46 28.5 117 l1 16 l-238 0 l0 69 l821 0 l0 -69 l-269 0 l0 -176 q0 -38 14.5 -51.5 q14.5 -13.5 50.5 -15.5 q10 -1 30 -1 q20 0 30 1 q38 2 55 10.5 q17 8.5 22 30.5 q9 37 12 92 l69 -24 Z" /><glyph glyph-name="uni5B98" unicode="&#x5b98;" d="M890 700 l0 -177 l-78 0 l0 109 l-640 0 l0 -109 l-79 0 l0 177 l368 0 q-17 59 -32 94 l77 20 q23 -60 38 -114 l346 0 ZM779 300 l-507 0 l0 -99 l534 0 l0 -300 l-77 0 l0 52 l-457 0 l0 -57 l-77 0 l0 638 l584 0 l0 -234 ZM701 367 l0 102 l-429 0 l0 -102 l429 0 ZM729 19 l0 115 l-457 0 l0 -115 l457 0 Z" /><glyph glyph-name="uni5B9A" unicode="&#x5b9a;" d="M178 634 l0 -108 l-74 0 l0 176 l366 0 q-17 63 -31 96 l71 17 q20 -55 36 -113 l335 0 l0 -175 l-73 0 l0 107 l-630 0 ZM673 8 q119 0 264 6 l-21 -73 q-134 -6 -254 -6 q-73 0 -111 1 q-104 2 -181.5 38 q-77.5 36 -129.5 111 q-43 -94 -134 -189 l-66 49 q63 62 100 117 q37 55 56 120.5 q19 65.5 27 157.5 l79 -5 q-11 -104 -33 -174 q36 -60 85 -94.5 q49 -34.5 116 -48.5 l0 406 l-340 0 l0 67 l726 0 l0 -67 l-311 0 l0 -162 l294 0 l0 -69 l-294 0 l0 -184 l12 0 q40 -1 116 -1 Z" /><glyph glyph-name="uni5B9C" unicode="&#x5b9c;" d="M178 636 l0 -132 l-79 0 l0 201 l366 0 q-18 61 -31 93 l74 14 q14 -33 37 -107 l338 0 l0 -201 l-78 0 l0 132 l-627 0 ZM766 538 l0 -534 l171 0 l0 -66 l-892 0 l0 66 l171 0 l0 534 l550 0 ZM693 360 l0 110 l-403 0 l0 -110 l403 0 ZM290 185 l403 0 l0 110 l-403 0 l0 -110 ZM693 118 l-403 0 l0 -114 l403 0 l0 114 Z" /><glyph glyph-name="uni5B9E" unicode="&#x5b9e;" d="M175 621 l0 -128 l-73 0 l0 196 l364 0 q-21 72 -36 110 l74 14 q14 -34 43 -124 l333 0 l0 -198 l-75 0 l0 130 l-630 0 ZM885 -96 q-73 46 -181.5 94 q-108.5 48 -195.5 76 q-52 -60 -148.5 -100 q-96.5 -40 -260.5 -74 l-33 74 q188 35 281 78 q93 43 132 110 l-416 0 l0 68 l442 0 q8 31 12 68 q4 37 8 95 q2 32 6 186 l77 -3 q0 -39 -2 -95.5 q-2 -56.5 -4 -97.5 q-5 -90 -19 -153 l333 0 l0 -68 l-354 0 q-8 -20 -13 -29 q79 -24 191.5 -72 q112.5 -48 176.5 -84 l-32 -73 ZM442 400 q-37 31 -92.5 64 q-55.5 33 -104.5 55 l30 60 q42 -17 98 -48 q56 -31 98 -60 l-29 -71 ZM198 438 q56 -23 118 -55.5 q62 -32.5 97 -58.5 l-32 -67 q-40 31 -102.5 66 q-62.5 35 -109.5 56 l29 59 Z" /><glyph glyph-name="uni5BA1" unicode="&#x5ba1;" d="M883 708 l0 -172 l-75 0 l0 103 l-638 0 l0 -103 l-75 0 l0 172 l367 0 q-14 45 -30 88 l74 14 q11 -26 36 -102 l341 0 ZM454 606 l73 -3 l0 -93 l293 0 l0 -444 l-293 0 l0 -167 l-73 0 l0 167 l-296 0 l0 444 l296 0 l0 96 ZM454 318 l0 126 l-223 0 l0 -126 l223 0 ZM748 318 l0 126 l-221 0 l0 -126 l221 0 ZM231 254 l0 -123 l223 0 l0 123 l-223 0 ZM527 254 l0 -123 l221 0 l0 123 l-221 0 Z" /><glyph glyph-name="uni5BA2" unicode="&#x5ba2;" d="M177 644 l0 -114 l-75 0 l0 178 l360 0 q-28 75 -41 101 l74 18 q9 -21 25 -60.5 q16 -39.5 22 -58.5 l338 0 l0 -187 l-74 0 l0 123 l-629 0 ZM946 276 l-22 -70 q-245 24 -442 107 q-186 -78 -437 -118 l-26 69 q190 19 380 89 q-78 41 -137 88 q-53 -46 -126 -88 l-47 54 q76 40 144.5 98 q68.5 58 110.5 116 l61 -34 q-30 -33 -29 -32 l400 0 l0 -60 q-87 -82 -209 -143 q174 -63 379 -76 ZM483 386 q127 56 194 109 l-357 0 l-9 -9 q72 -55 172 -100 ZM271 -90 l-72 0 l0 295 l585 0 l0 -295 l-74 0 l0 41 l-439 0 l0 -41 ZM710 11 l0 129 l-439 0 l0 -129 l439 0 Z" /><glyph glyph-name="uni5BA3" unicode="&#x5ba3;" d="M169 635 l0 -126 l-74 0 l0 191 l367 0 q-17 59 -32 96 l74 14 q18 -44 38 -110 l344 0 l0 -192 l-74 0 l0 127 l-643 0 ZM187 543 l607 0 l0 -63 l-607 0 l0 63 ZM792 405 l0 -320 l-603 0 l0 320 l603 0 ZM721 273 l0 70 l-462 0 l0 -70 l462 0 ZM259 216 l0 -70 l462 0 l0 70 l-462 0 ZM54 -58 l0 62 l872 0 l0 -62 l-872 0 Z" /><glyph glyph-name="uni5BB6" unicode="&#x5bb6;" d="M167 637 l0 -128 l-72 0 l0 192 l364 0 q-18 60 -34 103 l74 14 q13 -31 41 -117 l347 0 l0 -193 l-72 0 l0 129 l-648 0 ZM944 23 l-48 -60 q-103 68 -169 135 q-66 67 -108 161 q-41 -18 -51 -22 q15 -67 15 -157 q0 -63 -13.5 -96 q-13.5 -33 -48 -48.5 q-34.5 -15.5 -103.5 -21.5 l-69 -6 l-24 69 l83 5 q41 3 62 12.5 q21 9.5 29 31 q8 21.5 8 64.5 q0 40 -3 74 q-76 -63 -193 -123 q-117 -60 -239 -104 l-32 62 q141 46 257.5 105 q116.5 59 196.5 124 q-7 30 -21 61 q-131 -93 -385 -184 l-29 60 q108 33 209.5 79 q101.5 46 177.5 97 q-15 24 -33 47 q-148 -79 -323 -130 l-28 61 q111 30 209 71 q98 41 173 86 l-245 0 l0 62 l579 0 l0 -62 l-223 0 q-35 -26 -84 -55 q52 -61 77 -123 q69 29 139 67.5 q70 38.5 126 79.5 l36 -60 q-75 -50 -171 -98 q42 -91 102.5 -149.5 q60.5 -58.5 163.5 -114.5 Z" /><glyph glyph-name="uni5BB9" unicode="&#x5bb9;" d="M174 633 l0 -113 l-71 0 l0 180 l350 0 q-17 59 -32 96 l74 14 q18 -44 38 -110 l341 0 l0 -182 l-72 0 l0 115 l-628 0 ZM589 592 q152 -68 294 -153 l-33 -67 q-116 86 -293 165 l32 55 ZM415 535 q-46 -35 -127 -79.5 q-81 -44.5 -155 -79.5 l-31 64 q54 19 141 66.5 q87 47.5 137 84.5 l35 -56 ZM913 142 q-69 25 -138 59 l0 -298 l-74 0 l0 43 l-424 0 l0 -43 l-74 0 l0 301 q-47 -23 -135 -57 l-34 63 q149 54 249.5 112.5 q100.5 58.5 171.5 134.5 l70 0 q75 -78 176.5 -138.5 q101.5 -60.5 244.5 -110.5 l-33 -66 ZM741 218 q-150 77 -251 180 q-104 -104 -257 -180 l508 0 ZM277 149 l0 -137 l424 0 l0 137 l-424 0 Z" /><glyph glyph-name="uni5BBF" unicode="&#x5bbf;" d="M178 630 l0 -123 l-74 0 l0 189 l365 0 q-15 54 -33 100 l78 14 q11 -27 39 -114 l323 0 l0 -131 l-76 0 l0 65 l-622 0 ZM328 574 q-34 -87 -78 -161 l0 -515 l-72 0 l0 404 q-54 -74 -109 -132 l-47 65 q64 61 130.5 161.5 q66.5 100.5 101.5 192.5 l74 -15 ZM902 470 l-254 0 q-16 -66 -27 -101 l220 0 l0 -463 l-73 0 l0 50 l-317 0 l0 -53 l-73 0 l0 466 l166 0 q16 56 27 101 l-240 0 l0 65 l571 0 l0 -65 ZM451 193 l317 0 l0 113 l-317 0 l0 -113 ZM451 131 l0 -114 l317 0 l0 114 l-317 0 Z" /><glyph glyph-name="uni5BC6" unicode="&#x5bc6;" d="M178 641 l0 -110 l-72 0 l0 178 l353 0 q-17 59 -32 96 l74 14 q18 -44 38 -110 l339 0 l0 -177 l-73 0 l0 109 l-372 0 q30 -21 71.5 -57 q41.5 -36 64.5 -60 l-42 -59 q-21 30 -64 70 q-43 40 -74 61 l35 45 l-246 0 ZM302 265 q-95 -36 -227 -74 l-33 64 q140 35 251 78 l0 225 l69 -2 l0 -195 q104 46 186.5 101.5 q82.5 55.5 156.5 128.5 l44 -50 q-78 -77 -168 -137 q-90 -60 -204 -109 q14 -14 54 -15 q52 -2 78 -2 q26 0 78 2 q40 2 57 10.5 q17 8.5 22 26.5 q9 30 13 72 l67 -24 q-3 -47 -18 -98 q-8 -25 -34.5 -38.5 q-26.5 -13.5 -82.5 -15.5 q-68 -2 -103 -2 q-33 0 -103 2 q-46 2 -69.5 13.5 q-23.5 11.5 -33.5 38.5 ZM257 511 q-22 -39 -61 -92 q-39 -53 -73 -91 l-50 49 q37 37 73 83.5 q36 46.5 57 86.5 l54 -36 ZM774 500 q31 -26 78 -77 q47 -51 70 -83 l-47 -53 q-21 36 -66.5 88.5 q-45.5 52.5 -78.5 81.5 l44 43 ZM526 12 l223 0 l0 151 l72 -2 l0 -256 l-72 0 l0 39 l-593 0 l0 213 l73 -2 l0 -143 l226 0 l0 174 l71 -2 l0 -172 Z" /><glyph glyph-name="uni5BCC" unicode="&#x5bcc;" d="M884 707 l0 -173 l-70 0 l0 114 l-657 0 l0 -114 l-68 0 l0 173 l374 0 q-16 48 -34 86 l76 22 q11 -24 23.5 -55.5 q12.5 -31.5 18.5 -52.5 l337 0 ZM208 588 l558 0 l0 -55 l-558 0 l0 55 ZM753 478 l0 -166 l-531 0 l0 166 l531 0 ZM683 425 l-391 0 l0 -59 l391 0 l0 59 ZM225 -107 l-75 0 l0 359 l673 0 l0 -359 l-73 0 l0 44 l-525 0 l0 -44 ZM451 124 l0 70 l-226 0 l0 -70 l226 0 ZM522 124 l228 0 l0 70 l-228 0 l0 -70 ZM225 65 l0 -70 l226 0 l0 70 l-226 0 ZM522 65 l0 -70 l228 0 l0 70 l-228 0 Z" /><glyph glyph-name="uni5BF8" unicode="&#x5bf8;" d="M924 626 l0 -76 l-213 0 l0 -484 q0 -55 -15 -83 q-15 -28 -53.5 -40.5 q-38.5 -12.5 -116.5 -17.5 l-79 -5 l-26 80 l95 4 q50 3 73 10 q23 7 30.5 24 q7.5 17 7.5 54 l0 458 l-570 0 l0 76 l570 0 l0 178 l84 -5 l0 -173 l213 0 ZM235 486 q50 -40 124.5 -117.5 q74.5 -77.5 112.5 -129.5 l-59 -69 q-37 60 -110.5 140 q-73.5 80 -123.5 121 l56 55 Z" /><glyph glyph-name="uni5BF9" unicode="&#x5bf9;" d="M940 605 l0 -74 l-127 0 l0 -485 q0 -49 -13.5 -77 q-13.5 -28 -46 -41.5 q-32.5 -13.5 -94.5 -17.5 l-62 -4 l-25 79 l76 4 q39 2 57 9 q18 7 24 22.5 q6 15.5 6 48.5 l0 462 l-282 0 l0 74 l282 0 l0 195 l78 -3 l0 -192 l127 0 ZM433 620 q-30 -181 -100 -332 q97 -139 148 -228 l-63 -56 q-41 79 -124 207 q-71 -129 -198 -277 l-60 48 q135 150 213 298 q-104 153 -169 230 l57 42 q54 -64 148 -195 q52 121 75 264 l-288 0 l0 73 l361 0 l0 -74 ZM606 179 q-21 49 -67 124.5 q-46 75.5 -79 118.5 l56 37 q30 -36 77 -108.5 q47 -72.5 74 -123.5 l-61 -48 Z" /><glyph glyph-name="uni5BFC" unicode="&#x5bfc;" d="M153 444 l0 313 l635 0 l0 -248 l-560 0 l0 -49 q0 -29 6 -42.5 q6 -13.5 22.5 -18.5 q16.5 -5 52.5 -7 q130 -4 195 -4 q65 0 195 4 q48 2 67.5 8 q19.5 6 23.5 19 q9 26 13 63 l80 -38 q-6 -35 -19 -73 q-7 -22 -36.5 -34 q-29.5 -12 -95.5 -14 q-148 -4 -222 -4 q-75 0 -223 4 q-53 2 -81.5 12 q-28.5 10 -40.5 35.5 q-12 25.5 -12 73.5 ZM711 577 l0 112 l-483 0 l0 -112 l483 0 ZM930 219 l0 -69 l-188 0 l0 -115 q0 -50 -12.5 -75.5 q-12.5 -25.5 -43.5 -37 q-31 -11.5 -94 -15.5 l-58 -4 l-27 73 l73 4 q38 2 56.5 9 q18.5 7 24.5 22 q6 15 6 45 l0 94 l-410 0 q106 -64 176 -122 l-33 -70 q-38 36 -94 76.5 q-56 40.5 -104 69.5 l36 46 l-190 0 l0 69 l619 0 l0 71 l75 -3 l0 -68 l188 0 Z" /><glyph glyph-name="uni5C01" unicode="&#x5c01;" d="M939 606 l0 -70 l-109 0 l0 -498 q0 -43 -9 -66.5 q-9 -23.5 -30.5 -35 q-21.5 -11.5 -62.5 -15.5 l-94 -9 l-25 79 l93 8 q28 1 39.5 13 q11.5 12 11.5 41 l0 483 l-227 0 l0 70 l227 0 l0 194 l77 -4 l0 -190 l109 0 ZM331 460 l180 0 l0 -68 l-462 0 l0 68 l206 0 l0 141 l-160 0 l0 69 l160 0 l0 128 l76 -4 l0 -124 l157 0 l0 -69 l-157 0 l0 -141 ZM640 178 q-20 67 -49.5 144.5 q-29.5 77.5 -50.5 116.5 l62 25 q24 -50 55.5 -123.5 q31.5 -73.5 48.5 -126.5 l-66 -36 ZM520 31 l2 -25 q-254 -40 -470 -55 l-8 71 q83 4 211 18 l0 150 l-155 0 l0 70 l155 0 l0 99 l76 -4 l0 -95 l161 0 l0 -70 l-161 0 l0 -142 q107 14 187 29 l2 -46 Z" /><glyph glyph-name="uni5C04" unicode="&#x5c04;" d="M347 794 q-15 -49 -33 -95 l151 0 l0 -679 q0 -40 -11.5 -62 q-11.5 -22 -40 -32.5 q-28.5 -10.5 -81.5 -13.5 l-51 -3 l-23 67 l66 4 q33 1 49.5 7.5 q16.5 6.5 22.5 19.5 q6 13 6 37 l0 152 l-37 0 q-90 -146 -290 -269 l-44 58 q173 95 257 211 l-237 0 l0 60 l81 0 l0 443 l104 0 q14 37 33 107 l78 -12 ZM933 589 l0 -68 l-107 0 l0 -479 q0 -45 -12.5 -71 q-12.5 -26 -45 -39 q-32.5 -13 -92.5 -17 l-60 -4 l-25 71 l75 4 q38 2 56.5 9 q18.5 7 25 22 q6.5 15 6.5 45 l0 459 l-257 0 l0 68 l257 0 l0 205 l72 -2 l0 -203 l107 0 ZM196 550 l206 0 l0 89 l-206 0 l0 -89 ZM196 404 l206 0 l0 88 l-206 0 l0 -88 ZM646 169 q-18 49 -59 123 q-41 74 -71 115 l53 34 q30 -40 73 -111.5 q43 -71.5 62 -115.5 l-58 -45 ZM196 345 l0 -89 l206 0 l0 89 l-206 0 Z" /><glyph glyph-name="uni5C06" unicode="&#x5c06;" d="M366 510 l-41 56 q77 50 147.5 118 q70.5 68 114.5 134 l63 -35 q-21 -31 -58 -75 l302 0 l0 -73 q-78 -108 -196 -182.5 q-118 -74.5 -313 -138.5 l-36 60 q177 54 283 117.5 q106 63.5 182 156.5 l-277 0 l-37 -35 q28 -18 60 -43 q32 -25 50 -43 l-46 -60 q-17 23 -51 52 q-34 29 -66 50 q-41 -33 -81 -59 ZM237 797 l71 -2 l0 -889 l-71 0 l0 359 q-38 -36 -87.5 -77 q-49.5 -41 -84.5 -64 l-37 69 q40 24 102.5 73 q62.5 49 106.5 91 l0 440 ZM145 379 q-10 55 -38.5 141.5 q-28.5 86.5 -52.5 140.5 l64 25 q24 -49 53.5 -135 q29.5 -86 39.5 -138 l-66 -34 ZM938 302 l0 -67 l-127 0 l0 -195 q0 -49 -11 -73 q-11 -24 -39.5 -35 q-28.5 -11 -86.5 -15 l-56 -4 l-24 69 l66 4 q36 2 51.5 7.5 q15.5 5.5 21 18.5 q5.5 13 5.5 42 l0 181 l-404 0 l0 67 l404 0 l0 129 l73 -2 l0 -127 l127 0 ZM460 234 q32 -28 79 -76.5 q47 -48.5 70 -78.5 l-52 -58 q-22 35 -66.5 84.5 q-44.5 49.5 -78.5 79.5 l48 49 Z" /><glyph glyph-name="uni5C0F" unicode="&#x5c0f;" d="M397 0 q34 2 43.5 13.5 q9.5 11.5 9.5 48.5 l0 728 l81 -3 l0 -757 q0 -41 -11.5 -63.5 q-11.5 -22.5 -39.5 -33 q-28 -10.5 -82 -15.5 l-71 -6 l-30 81 l100 7 ZM702 603 q153 -278 245 -501 l-70 -41 q-110 266 -243 509 l68 33 ZM24 99 q58 84 122 231.5 q64 147.5 94 262.5 l77 -23 q-29 -110 -92 -261 q-63 -151 -125 -245 l-76 35 Z" /><glyph glyph-name="uni5C11" unicode="&#x5c11;" d="M444 208 l0 594 l79 -3 l0 -591 l-79 0 ZM670 684 q57 -61 138 -161 q81 -100 120 -158 l-57 -59 q-38 65 -118.5 167 q-80.5 102 -139.5 164 l57 47 ZM63 278 q49 66 115.5 189.5 q66.5 123.5 97.5 204.5 l72 -28 q-32 -86 -99.5 -213.5 q-67.5 -127.5 -118.5 -196.5 l-67 44 ZM53 -36 q191 53 314.5 106 q123.5 53 212.5 122 q89 69 174 174 l53 -55 q-95 -111 -191 -184.5 q-96 -73.5 -220 -129 q-124 -55.5 -310 -110.5 l-33 77 Z" /><glyph glyph-name="uni5C18" unicode="&#x5c18;" d="M451 795 l79 -3 l0 -378 l-79 0 l0 381 ZM861 393 q-53 65 -125 141 q-72 76 -128 119 l55 51 q47 -37 125.5 -113 q78.5 -76 130.5 -134 l-58 -64 ZM375 654 q-47 -68 -115.5 -141.5 q-68.5 -73.5 -132.5 -125.5 l-62 56 q73 56 138.5 125.5 q65.5 69.5 104.5 131.5 l67 -46 ZM530 201 l0 -194 l390 0 l0 -72 l-859 0 l0 72 l390 0 l0 194 l-291 0 l0 75 l291 0 l0 102 l79 -3 l0 -99 l290 0 l0 -75 l-290 0 Z" /><glyph glyph-name="uni5C1A" unicode="&#x5c1a;" d="M529 529 l330 0 l0 -491 q0 -48 -12 -72.5 q-12 -24.5 -43 -36 q-31 -11.5 -92 -15.5 l-58 -4 l-23 74 l69 5 q38 3 54.5 8.5 q16.5 5.5 21.5 18.5 q5 13 5 43 l0 399 l-585 0 l0 -543 l-76 0 l0 614 l331 0 l0 272 l78 -3 l0 -269 ZM845 717 q-29 -34 -82.5 -85 q-53.5 -51 -91.5 -81 l-49 57 q37 28 89.5 77 q52.5 49 81.5 85 l52 -53 ZM308 545 q-26 36 -80 88.5 q-54 52.5 -93 83.5 l50 52 q35 -26 90 -76.5 q55 -50.5 85 -83.5 l-52 -64 ZM313 346 l353 0 l0 -298 l-353 0 l0 298 ZM381 117 l217 0 l0 161 l-217 0 l0 -161 Z" /><glyph glyph-name="uni5C1D" unicode="&#x5c1d;" d="M178 554 l0 -140 l-78 0 l0 206 l190 0 q-18 30 -46.5 70.5 q-28.5 40.5 -49.5 65.5 l57 35 q20 -21 51 -63.5 q31 -42.5 49 -70.5 l-50 -37 l152 0 l0 183 l77 -4 l0 -179 l152 0 l-55 31 q25 27 54 68.5 q29 41.5 46 73.5 l61 -33 q-19 -31 -46 -71 q-27 -40 -52 -69 l192 0 l0 -206 l-80 0 l0 140 l-624 0 ZM742 443 l0 -66 l-503 0 l0 66 l503 0 ZM469 185 q-77 -97 -166 -169 q55 1 172.5 7 q117.5 6 202.5 12 q-67 66 -101 93 l51 48 q45 -36 115.5 -107 q70.5 -71 110.5 -119 l-49 -63 q-21 31 -67 84 q-58 -1 -234.5 -10.5 q-176.5 -9.5 -231.5 -14.5 q-45 -3 -104 -10 l-21 70 q24 6 39 12.5 q15 6.5 33 19.5 q71 50 152 147 l-293 0 l0 70 l826 0 l0 -70 l-435 0 Z" /><glyph glyph-name="uni5C31" unicode="&#x5c31;" d="M523 693 l0 -67 l-453 0 l0 67 l197 0 q-20 66 -36 107 l69 14 q14 -33 42 -121 l181 0 ZM922 501 l-264 0 q-3 -146 -22 -244 q-19 -98 -59 -177.5 q-40 -79.5 -113 -173.5 l-62 44 q72 86 109.5 159.5 q37.5 73.5 55 162.5 q17.5 89 24.5 229 l-96 0 l0 69 l99 0 l0 8 q2 56 3 229 l66 -3 l-4 -226 l0 -8 l263 0 l0 -69 ZM843 595 q-19 32 -58 76.5 q-39 44.5 -67 69.5 l45 43 q26 -20 66 -63.5 q40 -43.5 61 -73.5 l-47 -52 ZM463 286 l-127 0 l0 -253 q0 -42 -10 -64.5 q-10 -22.5 -33 -33 q-23 -10.5 -67 -13.5 l-43 -4 l-23 71 l49 4 q37 2 48 14 q11 12 11 47 l0 232 l-146 0 l0 248 l341 0 l0 -248 ZM397 474 l-211 0 l0 -128 l211 0 l0 128 ZM931 109 q-4 -65 -12 -109 q-6 -35 -27 -52.5 q-21 -17.5 -63 -17.5 l-42 0 q-42 0 -62.5 24 q-20.5 24 -20.5 76 l0 444 l67 -4 l0 -427 q0 -28 8.5 -37 q8.5 -9 30.5 -9 l12 0 q22 0 31.5 8.5 q9.5 8.5 13.5 35.5 q6 41 8 91 l56 -23 ZM451 67 q-11 32 -36.5 77 q-25.5 45 -45.5 71 l50 33 q18 -23 44.5 -66.5 q26.5 -43.5 38.5 -69.5 l-51 -45 ZM211 223 q-37 -111 -119 -255 l-58 32 q33 56 65 122.5 q32 66.5 49 117.5 l63 -17 Z" /><glyph glyph-name="uni5C3A" unicode="&#x5c3a;" d="M517 384 q44 -140 142 -239.5 q98 -99.5 270 -163.5 l-41 -71 q-185 79 -292.5 192 q-107.5 113 -156.5 282 l-180 0 q-3 -114 -19 -194.5 q-16 -80.5 -47 -146 q-31 -65.5 -85 -140.5 l-68 36 q57 78 88 144.5 q31 66.5 45 150.5 q14 84 14 210 l0 308 l613 0 l0 -368 l-283 0 ZM726 456 l0 223 l-466 0 l0 -223 l466 0 Z" /><glyph glyph-name="uni5C3D" unicode="&#x5c3d;" d="M616 447 q43 -91 128.5 -166.5 q85.5 -75.5 203.5 -131.5 l-43 -68 q-123 60 -221.5 157 q-98.5 97 -147.5 209 l-276 0 q-7 -140 -46 -242.5 q-39 -102.5 -123 -219.5 l-61 48 q62 90 94.5 157 q32.5 67 47 148 q14.5 81 14.5 205 l0 213 l645 0 l0 -309 l-215 0 ZM754 521 l0 160 l-492 0 l0 -160 l492 0 ZM362 325 q56 -14 144.5 -46 q88.5 -32 137.5 -55 l-22 -73 q-44 26 -129.5 58 q-85.5 32 -154.5 53 l24 63 ZM288 128 q81 -18 220.5 -65.5 q139.5 -47.5 220.5 -84.5 l-25 -81 q-73 41 -210.5 90.5 q-137.5 49.5 -230.5 73.5 l25 67 Z" /><glyph glyph-name="uni5C40" unicode="&#x5c40;" d="M884 429 l-10 -365 q-2 -58 -18 -88.5 q-16 -30.5 -53.5 -44.5 q-37.5 -14 -109.5 -17 l-70 -3 l-25 71 l91 4 q47 2 69 10 q22 8 30 26.5 q8 18.5 10 57.5 q3 51 5.5 140 q2.5 89 3.5 139 l-580 0 q-7 -140 -37 -237 q-30 -97 -96 -214 l-64 35 q50 89 76 159 q26 70 37.5 155 q11.5 85 11.5 213 l0 286 l684 0 l0 -244 l-610 0 l0 -50 l0 -33 l655 0 ZM764 580 l0 107 l-535 0 l0 -107 l535 0 ZM299 278 l372 0 l0 -246 l-372 0 l0 246 ZM371 94 l229 0 l0 121 l-229 0 l0 -121 Z" /><glyph glyph-name="uni5C42" unicode="&#x5c42;" d="M875 507 l-632 0 l0 -86 q0 -127 -13.5 -214 q-13.5 -87 -41.5 -158 q-28 -71 -80 -159 l-75 34 q56 85 84 147 q28 62 40.5 147.5 q12.5 85.5 11.5 223.5 l-3 307 l709 0 l0 -242 ZM801 567 l0 119 l-558 0 l0 -119 l558 0 ZM858 406 l0 -63 l-560 0 l0 63 l560 0 ZM565 175 q-32 -43 -76.5 -90.5 q-44.5 -47.5 -81.5 -77.5 l39 2 q39 2 116 5.5 q77 3.5 176 7.5 q-46 56 -80 88 l55 39 q38 -34 97.5 -103 q59.5 -69 91.5 -115 l-52 -56 q-17 28 -61 85 q-353 -16 -420 -21 q-68 -6 -82 -9 l-16 63 q33 12 58 33 q35 29 74.5 69.5 q39.5 40.5 70.5 79.5 l-226 0 l0 65 l688 0 l0 -65 l-371 0 Z" /><glyph glyph-name="uni5C45" unicode="&#x5c45;" d="M930 328 l-324 0 l0 -101 l229 0 l0 -327 l-75 0 l0 54 l-384 0 l0 -55 l-75 0 l0 328 l227 0 l0 101 l-302 0 q-8 -139 -35.5 -231 q-27.5 -92 -86.5 -198 l-68 40 q46 81 71 145 q25 64 36.5 145.5 q11.5 81.5 11.5 203.5 l0 314 l705 0 l0 -246 l-631 0 l0 -40 q0 -46 -1 -67 l300 0 l0 85 l78 -3 l0 -82 l324 0 l0 -66 ZM786 568 l0 113 l-557 0 l0 -113 l557 0 ZM376 17 l384 0 l0 145 l-384 0 l0 -145 Z" /><glyph glyph-name="uni5C4B" unicode="&#x5c4b;" d="M213 540 l0 -108 q0 -189 -26.5 -306.5 q-26.5 -117.5 -94.5 -232.5 l-66 42 q44 71 68 136 q24 65 35 146 q11 81 11 199 l0 332 l722 0 l0 -208 l-649 0 ZM787 598 l0 92 l-574 0 l0 -92 l574 0 ZM885 464 l0 -57 l-192 0 q40 -30 95.5 -79.5 q55.5 -49.5 85.5 -82.5 l-45 -56 q-17 23 -50 57 q-373 -9 -422 -13 q-39 -1 -83 -6 l-15 53 q33 6 60 25 q61 41 125 102 l-198 0 l0 57 l639 0 ZM636 370 l38 37 l-133 0 q-63 -64 -133 -115 q111 2 313 9 q-48 43 -85 69 ZM597 94 l0 -98 l329 0 l0 -60 l-733 0 l0 60 l328 0 l0 98 l-247 0 l0 58 l247 0 l0 69 l76 -3 l0 -66 l261 0 l0 -58 l-261 0 Z" /><glyph glyph-name="uni5C4F" unicode="&#x5c4f;" d="M932 200 l0 -66 l-198 0 l0 -232 l-74 0 l0 232 l-195 0 q-10 -83 -45 -134.5 q-35 -51.5 -118 -112.5 l-51 51 q52 39 79.5 66.5 q27.5 27.5 41.5 57 q14 29.5 19 72.5 l-164 0 l0 66 l168 0 l0 37 l0 97 l-141 0 l0 66 l192 0 q-14 24 -35 51 q-21 27 -38 45 l45 32 l-191 0 l0 -100 q0 -184 -30.5 -305.5 q-30.5 -121.5 -87.5 -225.5 l-70 38 q40 71 63.5 136 q23.5 65 36 154 q12.5 89 12.5 219 l0 308 l716 0 l0 -224 l-160 0 l55 -29 q-20 -43 -56 -99 l186 0 l0 -66 l-158 0 l0 -134 l198 0 ZM791 687 l-564 0 l0 -93 l564 0 l0 93 ZM433 528 q18 -19 40.5 -48 q22.5 -29 36.5 -50 l-32 -30 l146 0 q19 29 39.5 65 q20.5 36 33.5 63 l-264 0 ZM660 200 l0 134 l-190 0 l0 -93 q0 -28 -1 -41 l191 0 Z" /><glyph glyph-name="uni5C55" unicode="&#x5c55;" d="M939 -16 l-32 -67 q-162 40 -266 112.5 q-104 72.5 -165 192.5 l-86 0 l0 -237 q35 13 85 32 q50 19 81 31 l8 -63 l-194 -68 q-32 -12 -54 -23 l-26 57 q16 9 22 17 q6 8 6 19 l0 235 l-107 0 q-9 -89 -32.5 -159 q-23.5 -70 -70.5 -164 l-64 34 q45 86 66.5 150 q21.5 64 31 148.5 q9.5 84.5 9.5 223.5 l0 305 l712 0 l0 -219 l-643 0 l0 -123 q0 -83 -4 -136 l190 0 l0 100 l-158 0 l0 60 l158 0 l0 77 l69 -3 l0 -74 l178 0 l0 77 l70 -3 l0 -74 l163 0 l0 -60 l-163 0 l0 -100 l200 0 l0 -60 l-375 0 q41 -69 98 -115 q92 49 166 107 l39 -48 q-50 -33 -153 -96 q95 -58 241 -86 ZM794 602 l0 97 l-574 0 l0 -97 l574 0 ZM653 382 l-178 0 l0 -100 l178 0 l0 100 Z" /><glyph glyph-name="uni5C5E" unicode="&#x5c5e;" d="M858 581 l-644 0 l0 -129 q0 -129 -10.5 -215.5 q-10.5 -86.5 -34 -160 q-23.5 -73.5 -67.5 -172.5 l-75 32 q44 87 67.5 158.5 q23.5 71.5 33.5 155.5 q10 84 10 206 l0 303 l720 0 l0 -178 ZM789 642 l0 53 l-575 0 l0 -53 l575 0 ZM589 207 l282 0 l0 -202 q0 -36 -8.5 -54.5 q-8.5 -18.5 -32.5 -27 q-24 -8.5 -74 -12.5 l-52 -4 l-20 56 l58 5 q27 3 39 7 q12 4 15 11.5 q3 7.5 3 25.5 l0 141 l-210 0 l0 -82 q34 1 80 5 q-9 19 -17 31 l49 23 q15 -23 35.5 -62.5 q20.5 -39.5 29.5 -63.5 l-52 -26 q-6 19 -17 42 q-79 -6 -177 -12 q-98 -6 -154 -7 l-3 60 q78 2 158 6 l0 86 l-200 0 l0 -239 l-71 0 l0 293 l271 0 l0 51 l-239 0 l0 158 l239 0 l0 50 q-124 -5 -272 -7 l-4 61 q132 1 315 9 q183 8 290 18 l3 -61 q-101 -11 -264 -17 l0 -53 l247 0 l0 -158 l-247 0 l0 -51 ZM351 362 l0 -49 l170 0 l0 49 l-170 0 ZM767 313 l0 49 l-178 0 l0 -49 l178 0 Z" /><glyph glyph-name="uni5CF0" unicode="&#x5cf0;" d="M943 449 l-27 -64 q-162 35 -266 95 q-100 -54 -248 -97 l-33 56 q135 31 224 79 q-51 38 -93 89 q-31 -35 -78 -75 l-45 49 q58 47 112.5 115 q54.5 68 83.5 126 l67 -18 q-24 -44 -50 -83 l262 0 l0 -59 q-57 -84 -139 -143 q100 -48 230 -70 ZM252 73 l54 2 l0 564 l61 -2 l0 -628 l-294 -9 l0 635 l59 -2 l0 -566 l60 3 l0 721 l60 -2 l0 -716 ZM653 554 q68 45 120 110 l-224 0 l-6 -7 q39 -57 110 -103 ZM869 155 l-188 0 l0 -76 l228 0 l0 -59 l-228 0 l0 -127 l-68 0 l0 127 l-220 0 l0 59 l220 0 l0 76 l-185 0 l0 59 l185 0 l0 73 l-199 0 l0 60 l199 0 l0 80 l68 -3 l0 -77 l202 0 l0 -60 l-202 0 l0 -73 l188 0 l0 -59 Z" /><glyph glyph-name="uni5DDE" unicode="&#x5dde;" d="M69 -58 q77 76 115 141.5 q38 65.5 52 152.5 q14 87 14 235 l0 327 l72 -3 l0 -327 q0 -156 -16 -253 q-16 -97 -56 -170 q-40 -73 -119 -151 l-62 48 ZM778 -89 l0 887 l74 -3 l0 -884 l-74 0 ZM508 -71 l0 845 l74 -3 l0 -842 l-74 0 ZM47 265 q27 60 51.5 147.5 q24.5 87.5 37.5 159.5 l63 -15 q-12 -66 -38.5 -160 q-26.5 -94 -50.5 -154 l-63 22 ZM657 569 q30 -55 62.5 -134.5 q32.5 -79.5 51.5 -140.5 l-64 -28 q-20 64 -50.5 141 q-30.5 77 -60.5 133 l61 29 ZM388 568 q27 -56 59.5 -135 q32.5 -79 52.5 -139 l-64 -29 q-19 63 -50 141 q-31 78 -58 134 l60 28 Z" /><glyph glyph-name="uni5DE5" unicode="&#x5de5;" d="M534 642 l0 -599 l391 0 l0 -75 l-868 0 l0 75 l392 0 l0 599 l-324 0 l0 79 l733 0 l0 -79 l-324 0 Z" /><glyph glyph-name="uni5DE6" unicode="&#x5de6;" d="M605 26 l321 0 l0 -71 l-745 0 l0 71 l346 0 l0 283 l-217 0 q-83 -149 -232 -309 l-59 56 q118 128 196.5 254 q78.5 126 125.5 275 l-261 0 l0 76 l283 0 q18 74 29 141 l78 -7 q-15 -87 -26 -134 l480 0 l0 -76 l-500 0 q-29 -105 -75 -202 l519 0 l0 -74 l-263 0 l0 -283 Z" /></font>
</defs>
</svg>
