<?xml version="1.0" standalone="no"?><!DOCTYPE svg PUBLIC "-//W3C//DTD SVG 1.1//EN" "http://www.w3.org/Graphics/SVG/1.1/DTD/svg11.dtd" ><svg xmlns="http://www.w3.org/2000/svg"><metadata></metadata><defs><font id="Hanyi Alibaba-PuHuiTi-3-65-Medium v3.01" horiz-adv-x="1000"><font-face font-family="Alibaba PuHuiTi 3.0 65 Medium" font-weight="500" font-stretch="normal" units-per-em="1000" panose-1="0 2 6 0 4 1 1 1 1 1" ascent="1060" descent="-340" x-height="1" bbox="-80 -206 971 835" underline-thickness="50" underline-position="-75" unicode-range="U+0022-9ed8" /><missing-glyph horiz-adv-x="1000" d="M270 0 l0 742 l415 0 l0 -742 l-415 0 ZM340 66 l276 0 l0 611 l-276 0 l0 -611 Z" /><glyph glyph-name="quotedbl" unicode="&quot;" d="M90 464 l-25 296 l115 0 l-24 -296 l-66 0 ZM253 464 l-24 296 l115 0 l-24 -296 l-67 0 Z" /><glyph glyph-name="comma" unicode="," d="M35 -136 q39 64 65.5 141 q26.5 77 26.5 134 l103 0 q0 -60 -33.5 -140 q-33.5 -80 -74.5 -135 l-87 0 Z" /><glyph glyph-name="hyphen" unicode="-" d="M70 263 l0 88 l299 0 l0 -88 l-299 0 Z" /><glyph glyph-name="period" unicode="." d="M83 67 q0 32 6 47 q6 15 21 20 q15 5 46 5 q30 0 45 -5 q15 -5 21.5 -20 q6.5 -15 6.5 -47 q0 -32 -6.5 -47 q-6.5 -15 -21.5 -20.5 q-15 -5.5 -45 -5.5 q-31 0 -46 5.5 q-15 5.5 -21 20.5 q-6 15 -6 47 Z" /><glyph glyph-name="zero" unicode="0" d="M49 347 q0 137 29.5 215.5 q29.5 78.5 82 110 q52.5 31.5 129.5 31.5 q78 0 130.5 -31 q52.5 -31 81.5 -109.5 q29 -78.5 29 -216.5 q0 -138 -29 -216.5 q-29 -78.5 -81.5 -109.5 q-52.5 -31 -130.5 -31 q-77 0 -129.5 31 q-52.5 31 -82 109.5 q-29.5 78.5 -29.5 216.5 ZM421 347 q0 103 -13.5 160 q-13.5 57 -41.5 80 q-28 23 -76 23 q-47 0 -75 -23 q-28 -23 -41.5 -80 q-13.5 -57 -13.5 -160 q0 -104 13.5 -161 q13.5 -57 41.5 -80 q28 -23 75 -23 q48 0 76 23 q28 23 41.5 80 q13.5 57 13.5 161 Z" /><glyph glyph-name="one" unicode="1" d="M270 0 l0 594 l-171 -33 l0 91 l205 42 l77 0 l0 -694 l-111 0 Z" /><glyph glyph-name="two" unicode="2" d="M55 108 q138 109 209 177.5 q71 68.5 98 116 q27 47.5 27 96.5 q0 115 -138 115 q-73 0 -150 -21 l0 93 q72 19 167 19 q110 0 170 -48.5 q60 -48.5 60 -149.5 q0 -62 -23.5 -114 q-23.5 -52 -81 -111.5 q-57.5 -59.5 -167.5 -147.5 l-42 -33 l0 -8 l338 0 l0 -92 l-467 0 l0 108 Z" /><glyph glyph-name="three" unicode="3" d="M69 3 l0 96 q69 -17 153 -17 q80 0 125.5 26 q45.5 26 45.5 90 q0 65 -46 91.5 q-46 26.5 -143 26.5 l-54 0 l0 84 l53 0 q85 0 130.5 28.5 q45.5 28.5 45.5 84.5 q0 54 -34.5 77.5 q-34.5 23.5 -105.5 23.5 q-32 0 -70.5 -5.5 q-38.5 -5.5 -68.5 -14.5 l0 90 q27 8 68 14 q41 6 80 6 q117 0 176.5 -44 q59.5 -44 59.5 -141 q0 -62 -30 -99.5 q-30 -37.5 -89 -55.5 l0 -6 q69 -13 103 -55 q34 -42 34 -110 q0 -203 -276 -203 q-91 0 -157 13 Z" /><glyph glyph-name="four" unicode="4" d="M537 256 l0 -93 l-80 0 l0 -163 l-104 0 l0 163 l-321 0 l0 113 l295 418 l130 0 l0 -438 l80 0 ZM125 256 l228 0 l0 325 l-6 0 l-222 -319 l0 -6 Z" /><glyph glyph-name="five" unicode="5" d="M84 3 l0 96 q39 -10 69.5 -13.5 q30.5 -3.5 71.5 -3.5 q86 0 133 30.5 q47 30.5 47 104.5 q0 71 -42.5 102 q-42.5 31 -140.5 31 q-55 0 -137 -15 l47 359 l337 0 l0 -94 l-251 0 l-26 -173 q36 6 78 6 q121 0 183 -51.5 q62 -51.5 62 -160.5 q0 -118 -74 -174.5 q-74 -56.5 -210 -56.5 q-79 0 -147 13 Z" /><glyph glyph-name="six" unicode="6" d="M53 268 q0 206 94 321 q94 115 290 115 l-1 -94 q-121 0 -190.5 -57.5 q-69.5 -57.5 -78.5 -153.5 l3 0 q22 22 61 36.5 q39 14.5 82 14.5 q101 0 156 -56.5 q55 -56.5 55 -166.5 q0 -108 -58.5 -172.5 q-58.5 -64.5 -175.5 -64.5 q-237 0 -237 278 ZM423 227 q0 69 -33.5 105 q-33.5 36 -90.5 36 q-72 0 -106.5 -34.5 q-34.5 -34.5 -34.5 -93.5 q0 -80 33 -120.5 q33 -40.5 97 -40.5 q66 0 100.5 37.5 q34.5 37.5 34.5 110.5 Z" /><glyph glyph-name="eight" unicode="8" d="M47 183 q0 129 119 174 l0 4 q-46 22 -71.5 59 q-25.5 37 -25.5 99 q0 87 55.5 136.5 q55.5 49.5 165.5 49.5 q110 0 165 -49.5 q55 -49.5 55 -136.5 q0 -62 -24.5 -99.5 q-24.5 -37.5 -75.5 -58.5 l0 -4 q57 -18 90 -58.5 q33 -40.5 33 -116.5 q0 -97 -62.5 -145 q-62.5 -48 -180.5 -48 q-117 0 -180 48.5 q-63 48.5 -63 145.5 ZM412 510 q0 52 -31 80 q-31 28 -91 28 q-123 0 -123 -108 q0 -112 123 -112 q64 0 93 30.5 q29 30.5 29 81.5 ZM431 190 q0 126 -141 126 q-71 0 -106 -31 q-35 -31 -35 -95 q0 -54 34.5 -83 q34.5 -29 106.5 -29 q71 0 106 29.5 q35 29.5 35 82.5 Z" /><glyph glyph-name="nine" unicode="9" d="M142 82 q121 0 191 57 q70 57 80 153 l-4 0 q-21 -21 -59 -36 q-38 -15 -82 -15 q-102 0 -158.5 55 q-56.5 55 -56.5 165 q0 109 59 176 q59 67 175 67 q108 0 172 -66 q64 -66 64 -218 q0 -208 -91 -319.5 q-91 -111.5 -290 -111.5 l0 93 ZM420 451 q0 78 -33.5 121 q-33.5 43 -98.5 43 q-65 0 -99.5 -40 q-34.5 -40 -34.5 -114 q0 -68 34 -103 q34 -35 91 -35 q72 0 106.5 34 q34.5 34 34.5 94 Z" /><glyph glyph-name="colon" unicode=":" d="M121 474 q0 32 6 47 q6 15 21 20 q15 5 46 5 q30 0 44.5 -5 q14.5 -5 21 -20 q6.5 -15 6.5 -47 q0 -32 -6.5 -47 q-6.5 -15 -21 -20.5 q-14.5 -5.5 -44.5 -5.5 q-31 0 -46 5.5 q-15 5.5 -21 20.5 q-6 15 -6 47 ZM121 67 q0 32 6 47 q6 15 21 20 q15 5 46 5 q30 0 44.5 -5 q14.5 -5 21 -20 q6.5 -15 6.5 -47 q0 -32 -6.5 -47 q-6.5 -15 -21 -20.5 q-14.5 -5.5 -44.5 -5.5 q-31 0 -46 5.5 q-15 5.5 -21 20.5 q-6 15 -6 47 Z" /><glyph glyph-name="semicolon" unicode=";" d="M121 474 q0 32 6 47 q6 15 21 20 q15 5 46 5 q30 0 44.5 -5 q14.5 -5 21 -20 q6.5 -15 6.5 -47 q0 -32 -6.5 -47 q-6.5 -15 -21 -20.5 q-14.5 -5.5 -44.5 -5.5 q-31 0 -46 5.5 q-15 5.5 -21 20.5 q-6 15 -6 47 ZM60 -136 q39 63 66 140.5 q27 77.5 27 134.5 l103 0 q0 -60 -33.5 -140 q-33.5 -80 -74.5 -135 l-88 0 Z" /><glyph glyph-name="A" unicode="A" d="M561 0 l-69 194 l-298 0 l-70 -194 l-116 0 l262 694 l150 0 l260 -694 l-119 0 ZM229 291 l229 0 l-108 301 l-12 0 l-109 -301 Z" /><glyph glyph-name="B" unicode="B" d="M299 694 q93 0 146 -20 q53 -20 75 -60 q22 -40 22 -105 q0 -56 -24 -92.5 q-24 -36.5 -77 -52.5 l0 -4 q65 -14 93.5 -54.5 q28.5 -40.5 28.5 -106.5 q0 -66 -22 -109.5 q-22 -43.5 -75.5 -66.5 q-53.5 -23 -146.5 -23 l-232 0 l0 694 l212 0 ZM261 397 q63 0 99 8.5 q36 8.5 53.5 31 q17.5 22.5 17.5 63.5 q0 45 -17 66.5 q-17 21.5 -51.5 28.5 q-34.5 7 -101.5 7 l-62 0 l0 -205 l62 0 ZM284 94 q67 0 102 9 q35 9 49.5 32 q14.5 23 14.5 68 q0 40 -15 63.5 q-15 23.5 -50.5 34 q-35.5 10.5 -100.5 10.5 l-85 0 l0 -217 l85 0 Z" /><glyph glyph-name="C" unicode="C" d="M67 347 q0 192 84.5 274.5 q84.5 82.5 244.5 82.5 q87 0 155 -21 l0 -101 q-67 24 -150 24 q-75 0 -122 -24.5 q-47 -24.5 -70 -81 q-23 -56.5 -23 -152.5 q0 -102 22 -158 q22 -56 66.5 -78 q44.5 -22 119.5 -22 q47 0 86 6.5 q39 6.5 79 20.5 l0 -98 q-32 -13 -76 -21 q-44 -8 -93 -8 q-105 0 -175 30.5 q-70 30.5 -109 108.5 q-39 78 -39 218 Z" /><glyph glyph-name="D" unicode="D" d="M300 694 q110 0 182.5 -28 q72.5 -28 113 -104 q40.5 -76 40.5 -215 q0 -190 -86.5 -268.5 q-86.5 -78.5 -249.5 -78.5 l-213 0 l0 694 l213 0 ZM296 98 q112 0 168 55 q56 55 56 194 q0 99 -27 154 q-27 55 -75.5 76 q-48.5 21 -121.5 21 l-97 0 l0 -500 l97 0 Z" /><glyph glyph-name="E" unicode="E" d="M199 100 l308 0 l0 -100 l-420 0 l0 694 l399 0 l0 -99 l-287 0 l0 -189 l267 0 l0 -94 l-267 0 l0 -212 Z" /><glyph glyph-name="F" unicode="F" d="M486 595 l-287 0 l0 -202 l267 0 l0 -98 l-267 0 l0 -295 l-112 0 l0 694 l399 0 l0 -99 Z" /><glyph glyph-name="G" unicode="G" d="M67 347 q0 193 86 275 q86 82 253 82 q50 0 101.5 -7 q51.5 -7 81.5 -19 l0 -100 q-71 28 -176 28 q-78 0 -126.5 -22.5 q-48.5 -22.5 -74 -79 q-25.5 -56.5 -25.5 -157.5 q0 -106 23.5 -162.5 q23.5 -56.5 70.5 -77.5 q47 -21 127 -21 q59 0 99 10 l0 192 l-131 0 l0 94 l237 0 l0 -362 q-42 -13 -98 -21.5 q-56 -8.5 -117 -8.5 q-111 0 -182.5 30 q-71.5 30 -110 108.5 q-38.5 78.5 -38.5 218.5 Z" /><glyph glyph-name="H" unicode="H" d="M517 694 l113 0 l0 -694 l-113 0 l0 326 l-318 0 l0 -326 l-112 0 l0 694 l112 0 l0 -275 l318 0 l0 275 Z" /><glyph glyph-name="I" unicode="I" d="M87 0 l0 694 l112 0 l0 -694 l-112 0 Z" /><glyph glyph-name="J" unicode="J" d="M-80 -178 l0 95 q40 -7 66 -7 q102 0 102 127 l0 657 l112 0 l0 -666 q0 -102 -53 -157 q-53 -55 -154 -55 q-43 0 -73 6 Z" /><glyph glyph-name="K" unicode="K" d="M334 372 l282 -372 l-140 0 l-232 318 l-45 0 l0 -318 l-112 0 l0 694 l112 0 l0 -281 l45 0 l227 281 l136 0 l-273 -322 Z" /><glyph glyph-name="L" unicode="L" d="M199 100 l292 0 l0 -100 l-404 0 l0 694 l112 0 l0 -594 Z" /><glyph glyph-name="M" unicode="M" d="M87 0 l0 694 l181 0 l154 -427 l6 0 l157 427 l177 0 l0 -694 l-111 0 l0 583 l-6 0 l-162 -435 l-118 0 l-162 435 l-6 0 l0 -583 l-110 0 Z" /><glyph glyph-name="N" unicode="N" d="M87 0 l0 694 l174 0 l280 -547 l6 0 l0 547 l111 0 l0 -694 l-151 0 l-304 581 l-6 0 l0 -581 l-110 0 Z" /><glyph glyph-name="O" unicode="O" d="M67 347 q0 137 34 215 q34 78 100.5 110 q66.5 32 170.5 32 q105 0 171 -32 q66 -32 100 -110 q34 -78 34 -215 q0 -138 -34 -216 q-34 -78 -100 -109.5 q-66 -31.5 -171 -31.5 q-104 0 -170.5 31.5 q-66.5 31.5 -100.5 110 q-34 78.5 -34 215.5 ZM559 347 q0 98 -15 153.5 q-15 55.5 -55 82.5 q-40 27 -117 27 q-76 0 -116.5 -27 q-40.5 -27 -55.5 -82.5 q-15 -55.5 -15 -153.5 q0 -99 15 -154.5 q15 -55.5 55 -81.5 q40 -26 117 -26 q77 0 117 26 q40 26 55 81.5 q15 55.5 15 154.5 Z" /><glyph glyph-name="P" unicode="P" d="M295 694 q100 0 157 -23.5 q57 -23.5 81 -72.5 q24 -49 24 -131 q0 -85 -26.5 -136 q-26.5 -51 -84 -74 q-57.5 -23 -151.5 -23 l-96 0 l0 -234 l-112 0 l0 694 l208 0 ZM283 327 q62 0 95.5 12.5 q33.5 12.5 48.5 42 q15 29.5 15 84.5 q0 51 -15 80 q-15 29 -49.5 42 q-34.5 13 -94.5 13 l-84 0 l0 -274 l84 0 Z" /><glyph glyph-name="R" unicode="R" d="M303 270 l-18 0 l-86 0 l0 -270 l-112 0 l0 694 l198 0 q97 0 154.5 -20.5 q57.5 -20.5 84.5 -66 q27 -45.5 27 -123.5 q0 -87 -33.5 -135 q-33.5 -48 -104.5 -66 l203 -283 l-132 0 l-181 270 ZM271 358 q64 0 99 9.5 q35 9.5 51.5 36.5 q16.5 27 16.5 80 q0 48 -16.5 73 q-16.5 25 -52 34.5 q-35.5 9.5 -98.5 9.5 l-72 0 l0 -243 l72 0 Z" /><glyph glyph-name="S" unicode="S" d="M56 16 l0 102 q34 -12 91 -21 q57 -9 112 -9 q76 0 110 23.5 q34 23.5 34 80.5 q0 38 -11.5 59.5 q-11.5 21.5 -42 35.5 q-30.5 14 -93.5 29 q-76 18 -116.5 40 q-40.5 22 -58.5 57.5 q-18 35.5 -18 97.5 q0 99 59.5 146.5 q59.5 47.5 179.5 47.5 q51 0 99.5 -7.5 q48.5 -7.5 76.5 -17.5 l0 -98 q-30 11 -79.5 19 q-49.5 8 -93.5 8 q-71 0 -101 -20 q-30 -20 -30 -76 q0 -31 9 -48.5 q9 -17.5 37 -30.5 q28 -13 87 -27 q82 -19 126 -43.5 q44 -24.5 63 -64.5 q19 -40 19 -108 q0 -101 -63 -151 q-63 -50 -191 -50 q-59 0 -116.5 8 q-57.5 8 -88.5 18 Z" /><glyph glyph-name="T" unicode="T" d="M519 694 l0 -99 l-195 0 l0 -595 l-112 0 l0 595 l-195 0 l0 99 l502 0 Z" /><glyph glyph-name="U" unicode="U" d="M84 226 l0 468 l112 0 l0 -449 q0 -58 15 -92 q15 -34 49.5 -49.5 q34.5 -15.5 95.5 -15.5 q63 0 98 15.5 q35 15.5 49 49 q14 33.5 14 92.5 l0 449 l111 0 l0 -468 q0 -123 -68 -179.5 q-68 -56.5 -205 -56.5 q-138 0 -204.5 54.5 q-66.5 54.5 -66.5 181.5 Z" /><glyph glyph-name="V" unicode="V" d="M252 0 l-237 694 l122 0 l185 -575 l6 0 l189 575 l115 0 l-240 -694 l-140 0 Z" /><glyph glyph-name="W" unicode="W" d="M181 0 l-158 694 l118 0 l119 -561 l6 0 l128 485 l132 0 l127 -485 l6 0 l119 561 l115 0 l-162 -694 l-142 0 l-129 487 l-6 0 l-132 -487 l-141 0 Z" /><glyph glyph-name="X" unicode="X" d="M20 0 l224 353 l-206 341 l131 0 l154 -272 l6 0 l163 272 l126 0 l-213 -335 l220 -359 l-132 0 l-165 284 l-6 0 l-174 -284 l-128 0 Z" /><glyph glyph-name="underscore" unicode="_" d="M0 -206 l0 80 l500 0 l0 -80 l-500 0 Z" /><glyph glyph-name="a" unicode="a" d="M528 380 l0 -380 l-94 0 l-13 75 q-21 -39 -71.5 -62 q-50.5 -23 -113.5 -23 q-186 0 -186 162 q0 92 55 132 q55 40 162 40 l154 0 l0 34 q0 53 -26.5 77.5 q-26.5 24.5 -100.5 24.5 q-60 0 -117 -12 l0 93 q60 9 126 9 q124 0 174.5 -43.5 q50.5 -43.5 50.5 -126.5 ZM421 165 l0 79 l-142 0 q-66 0 -93.5 -18.5 q-27.5 -18.5 -27.5 -70.5 q0 -40 23 -59.5 q23 -19.5 73 -19.5 q61 0 104.5 23.5 q43.5 23.5 62.5 65.5 Z" /><glyph glyph-name="b" unicode="b" d="M583 270 q0 -129 -48.5 -204.5 q-48.5 -75.5 -172.5 -75.5 q-74 0 -114 25 q-40 25 -57 72 l-11 -87 l-96 0 l0 760 l108 0 l0 -305 q38 95 170 95 q86 0 134.5 -34 q48.5 -34 67.5 -95 q19 -61 19 -151 ZM471 270 q0 95 -26.5 145 q-26.5 50 -105.5 50 q-85 0 -119 -48.5 q-34 -48.5 -34 -146.5 q0 -95 34.5 -144.5 q34.5 -49.5 118.5 -49.5 q56 0 84.5 26 q28.5 26 38 67 q9.5 41 9.5 101 Z" /><glyph glyph-name="c" unicode="c" d="M54 270 q0 106 29.5 167.5 q29.5 61.5 85.5 87 q56 25.5 141 25.5 q40 0 77.5 -5.5 q37.5 -5.5 63.5 -13.5 l0 -94 q-63 22 -133 22 q-57 0 -89.5 -17 q-32.5 -17 -47.5 -58 q-15 -41 -15 -115 q0 -73 15 -113 q15 -40 47.5 -57 q32.5 -17 90.5 -17 q81 0 135 22 l0 -94 q-24 -8 -65 -14 q-41 -6 -79 -6 q-85 0 -141 25.5 q-56 25.5 -85.5 87 q-29.5 61.5 -29.5 167.5 Z" /><glyph glyph-name="d" unicode="d" d="M553 760 l0 -760 l-94 0 l-12 84 q-17 -44 -59.5 -69 q-42.5 -25 -112.5 -25 q-86 0 -134 34 q-48 34 -67 95 q-19 61 -19 151 q0 129 48.5 204.5 q48.5 75.5 171.5 75.5 q74 0 113.5 -24 q39.5 -24 57.5 -71 l0 305 l107 0 ZM450 270 q0 95 -33.5 145 q-33.5 50 -116.5 50 q-56 0 -85.5 -26 q-29.5 -26 -38.5 -67.5 q-9 -41.5 -9 -101.5 q0 -62 9.5 -103.5 q9.5 -41.5 38.5 -66 q29 -24.5 85 -24.5 q85 0 117.5 48 q32.5 48 32.5 146 Z" /><glyph glyph-name="e" unicode="e" d="M523 253 l-359 -23 q2 -79 39 -114.5 q37 -35.5 124 -35.5 q46 0 94.5 10.5 q48.5 10.5 78.5 25.5 l0 -92 q-26 -14 -79 -24 q-53 -10 -112 -10 q-85 0 -140.5 25.5 q-55.5 25.5 -85 87 q-29.5 61.5 -29.5 167.5 q0 106 29 167.5 q29 61.5 84.5 87 q55.5 25.5 139.5 25.5 q127 0 174 -63 q47 -63 47 -167 q0 -32 -5 -67 ZM426 327 q0 66 -23.5 102 q-23.5 36 -95.5 36 q-80 0 -110.5 -38 q-30.5 -38 -32.5 -119 l262 19 Z" /><glyph glyph-name="f" unicode="f" d="M212 540 l119 0 l0 -86 l-119 0 l0 -454 l-108 0 l0 454 l-88 0 l0 86 l88 0 l0 5 q0 90 23 137.5 q23 47.5 64 64.5 q41 17 106 17 q29 0 61 -5 l0 -82 q-23 5 -54 5 q-38 0 -57.5 -12 q-19.5 -12 -27 -42 q-7.5 -30 -7.5 -88 Z" /><glyph glyph-name="g" unicode="g" d="M554 40 q0 -116 -66 -178 q-66 -62 -210 -62 q-69 0 -140 13 l0 88 q59 -13 136 -13 q91 0 132 36.5 q41 36.5 41 122.5 l0 45 q-17 -45 -57 -68.5 q-40 -23.5 -113 -23.5 q-125 0 -173.5 70 q-48.5 70 -48.5 205 q0 127 49 201 q49 74 173 74 q74 0 113.5 -25.5 q39.5 -25.5 56.5 -73.5 l0 89 l107 0 l0 -500 ZM452 275 q0 95 -33 142.5 q-33 47.5 -119 47.5 q-56 0 -85.5 -25.5 q-29.5 -25.5 -38.5 -66 q-9 -40.5 -9 -98.5 q0 -61 9.5 -101.5 q9.5 -40.5 38.5 -65 q29 -24.5 85 -24.5 q87 0 119.5 47 q32.5 47 32.5 144 Z" /><glyph glyph-name="h" unicode="h" d="M544 372 l0 -372 l-108 0 l0 338 q0 63 -20.5 91.5 q-20.5 28.5 -77.5 28.5 q-56 0 -92.5 -20.5 q-36.5 -20.5 -53.5 -76.5 l0 -361 l-108 0 l0 760 l108 0 l0 -293 q22 44 67.5 63.5 q45.5 19.5 103.5 19.5 q99 0 140 -45.5 q41 -45.5 41 -132.5 Z" /><glyph glyph-name="i" unicode="i" d="M75 691 q0 26 5.5 38.5 q5.5 12.5 18.5 16.5 q13 4 39 4 q26 0 38.5 -4 q12.5 -4 18 -16.5 q5.5 -12.5 5.5 -38.5 q0 -38 -12.5 -49.5 q-12.5 -11.5 -49.5 -11.5 q-26 0 -39 4.5 q-13 4.5 -18.5 17 q-5.5 12.5 -5.5 39.5 ZM83 0 l0 540 l108 0 l0 -540 l-108 0 Z" /><glyph glyph-name="j" unicode="j" d="M75 691 q0 26 5.5 38.5 q5.5 12.5 18.5 16.5 q13 4 39 4 q26 0 38.5 -4 q12.5 -4 18 -16.5 q5.5 -12.5 5.5 -38.5 q0 -38 -12.5 -49.5 q-12.5 -11.5 -49.5 -11.5 q-26 0 -39 4.5 q-13 4.5 -18.5 17 q-5.5 12.5 -5.5 39.5 ZM-64 -195 l0 84 q32 -4 61 -4 q37 0 55 11.5 q18 11.5 24.5 38.5 q6.5 27 6.5 78 l0 527 l108 0 l0 -535 q0 -84 -21 -128.5 q-21 -44.5 -61.5 -60.5 q-40.5 -16 -108.5 -16 q-31 0 -64 5 Z" /><glyph glyph-name="k" unicode="k" d="M308 289 l225 -289 l-135 0 l-179 244 l-27 0 l0 -244 l-108 0 l0 760 l108 0 l0 -433 l31 0 l170 213 l129 0 l-214 -251 Z" /><glyph glyph-name="l" unicode="l" d="M84 118 l0 642 l107 0 l0 -615 q0 -38 11 -51 q11 -13 38 -13 q20 0 36 5 l0 -86 q-25 -6 -58 -6 q-71 0 -102.5 29.5 q-31.5 29.5 -31.5 94.5 Z" /><glyph glyph-name="m" unicode="m" d="M849 368 l0 -368 l-108 0 l0 338 q0 62 -21 91 q-21 29 -74 29 q-50 0 -82 -19.5 q-32 -19.5 -45 -69.5 l0 -369 l-108 0 l0 338 q0 62 -20 91 q-20 29 -72 29 q-51 0 -81 -18.5 q-30 -18.5 -46 -69.5 l0 -370 l-108 0 l0 540 l108 0 l0 -67 q22 42 60.5 59.5 q38.5 17.5 93.5 17.5 q120 0 156 -84 q42 84 169 84 q178 0 178 -182 Z" /><glyph glyph-name="n" unicode="n" d="M544 372 l0 -372 l-108 0 l0 338 q0 64 -20 92 q-20 28 -78 28 q-56 0 -92.5 -20 q-36.5 -20 -53.5 -76 l0 -362 l-108 0 l0 540 l108 0 l0 -72 q22 44 67.5 63 q45.5 19 103.5 19 q99 0 140 -45.5 q41 -45.5 41 -132.5 Z" /><glyph glyph-name="o" unicode="o" d="M54 270 q0 106 29.5 167.5 q29.5 61.5 85 87 q55.5 25.5 140.5 25.5 q86 0 141.5 -25.5 q55.5 -25.5 84.5 -87 q29 -61.5 29 -167.5 q0 -106 -29 -167.5 q-29 -61.5 -84.5 -87 q-55.5 -25.5 -141.5 -25.5 q-85 0 -140.5 25.5 q-55.5 25.5 -85 87 q-29.5 61.5 -29.5 167.5 ZM452 270 q0 75 -13.5 117 q-13.5 42 -44 60 q-30.5 18 -85.5 18 q-55 0 -86 -18 q-31 -18 -44 -60 q-13 -42 -13 -117 q0 -75 13.5 -116.5 q13.5 -41.5 44.5 -59.5 q31 -18 85 -18 q56 0 86.5 18 q30.5 18 43.5 59 q13 41 13 117 Z" /><glyph glyph-name="p" unicode="p" d="M583 270 q0 -129 -48.5 -204.5 q-48.5 -75.5 -172.5 -75.5 q-73 0 -112.5 24.5 q-39.5 24.5 -57.5 70.5 l0 -285 l-108 0 l0 740 l108 0 l0 -85 q38 95 170 95 q86 0 134.5 -34 q48.5 -34 67.5 -95 q19 -61 19 -151 ZM471 270 q0 62 -10 103.5 q-10 41.5 -38.5 66.5 q-28.5 25 -83.5 25 q-85 0 -119 -48.5 q-34 -48.5 -34 -146.5 q0 -95 34.5 -144.5 q34.5 -49.5 118.5 -49.5 q56 0 84.5 26 q28.5 26 38 67 q9.5 41 9.5 101 Z" /><glyph glyph-name="q" unicode="q" d="M554 540 l0 -740 l-107 0 l0 291 q-17 -48 -57.5 -74.5 q-40.5 -26.5 -114.5 -26.5 q-86 0 -134 34 q-48 34 -67 95 q-19 61 -19 151 q0 129 48.5 204.5 q48.5 75.5 171.5 75.5 q74 0 114 -24.5 q40 -24.5 58 -71.5 l0 86 l107 0 ZM450 270 q0 95 -33.5 145 q-33.5 50 -116.5 50 q-56 0 -85.5 -26 q-29.5 -26 -38.5 -67.5 q-9 -41.5 -9 -101.5 q0 -62 9.5 -103.5 q9.5 -41.5 38.5 -66 q29 -24.5 85 -24.5 q85 0 117.5 48 q32.5 48 32.5 146 Z" /><glyph glyph-name="r" unicode="r" d="M369 550 l-4 -97 l-12 0 q-131 0 -161 -118 l0 -335 l-108 0 l0 540 l108 0 l0 -97 q23 61 66 84 q43 23 100 23 l11 0 Z" /><glyph glyph-name="s" unicode="s" d="M56 11 l0 91 q33 -10 77.5 -16.5 q44.5 -6.5 80.5 -6.5 q59 0 86 16 q27 16 27 57 q0 29 -8.5 44.5 q-8.5 15.5 -32 25.5 q-23.5 10 -74.5 22 q-60 14 -91.5 32.5 q-31.5 18.5 -44 47 q-12.5 28.5 -12.5 75.5 q0 71 50 111 q50 40 151 40 q41 0 80.5 -5 q39.5 -5 60.5 -13 l-6 -87 q-24 9 -60.5 15 q-36.5 6 -71.5 6 q-56 0 -80 -15 q-24 -15 -24 -53 q0 -24 8 -37 q8 -13 28.5 -21 q20.5 -8 65.5 -19 q63 -15 97.5 -34 q34.5 -19 49.5 -49.5 q15 -30.5 15 -81.5 q0 -84 -53.5 -123 q-53.5 -39 -156.5 -39 q-43 0 -89 5 q-46 5 -73 12 Z" /><glyph glyph-name="t" unicode="t" d="M324 86 l0 -87 q-35 -5 -64 -5 q-65 0 -101 14.5 q-36 14.5 -52 51.5 q-16 37 -16 108 l0 285 l-77 0 l0 87 l77 0 l0 128 l108 0 l0 -128 l125 0 l0 -87 l-125 0 l0 -277 q0 -40 5.5 -59.5 q5.5 -19.5 20.5 -27.5 q15 -8 46 -8 q32 0 53 5 Z" /><glyph glyph-name="u" unicode="u" d="M535 540 l0 -540 l-94 0 l-11 73 q-41 -83 -169 -83 q-99 0 -140 45.5 q-41 45.5 -41 132.5 l0 372 l108 0 l0 -338 q0 -63 20.5 -92 q20.5 -29 77.5 -29 q54 0 89 20 q35 20 53 76 l0 363 l107 0 Z" /><glyph glyph-name="v" unicode="v" d="M208 0 l-200 540 l114 0 l148 -430 l6 0 l147 430 l114 0 l-200 -540 l-129 0 Z" /><glyph glyph-name="w" unicode="w" d="M166 0 l-146 540 l111 0 l103 -430 l6 0 l120 430 l124 0 l123 -430 l6 0 l104 430 l109 0 l-150 -540 l-134 0 l-117 416 l-6 0 l-119 -416 l-134 0 Z" /><glyph glyph-name="x" unicode="x" d="M12 0 l186 276 l-175 264 l123 0 l125 -200 l6 0 l123 200 l122 0 l-175 -263 l185 -277 l-125 0 l-131 210 l-6 0 l-135 -210 l-123 0 Z" /><glyph glyph-name="y" unicode="y" d="M70 -107 q67 0 100.5 25.5 q33.5 25.5 51.5 83.5 l-214 538 l118 0 l151 -425 l6 0 l143 425 l112 0 l-189 -510 q-32 -86 -63.5 -133.5 q-31.5 -47.5 -82 -72 q-50.5 -24.5 -133.5 -24.5 l0 93 Z" /><glyph glyph-name="z" unicode="z" d="M46 0 l0 89 l287 358 l0 6 l-265 0 l0 87 l397 0 l0 -84 l-290 -359 l0 -6 l308 0 l0 -91 l-437 0 Z" /><glyph glyph-name="braceleft" unicode="{" d="M288 -200 q-90 0 -134 41.5 q-44 41.5 -44 125.5 l0 204 q0 38 -14.5 51.5 q-14.5 13.5 -52.5 13.5 l0 89 q38 0 52.5 13 q14.5 13 14.5 51 l0 204 q0 85 44 126 q44 41 134 41 l0 -89 q-42 0 -56 -15.5 q-14 -15.5 -14 -62.5 l0 -204 q0 -45 -17 -71 q-17 -26 -52 -38 q35 -12 52 -38 q17 -26 17 -71 l0 -204 q0 -33 6 -49 q6 -16 20.5 -22.5 q14.5 -6.5 43.5 -6.5 l0 -89 Z" /><glyph glyph-name="braceright" unicode="}" d="M30 -111 q42 0 56 15.5 q14 15.5 14 62.5 l0 204 q0 45 17 71 q17 26 51 38 q-34 12 -51 38 q-17 26 -17 71 l0 204 q0 33 -6 49 q-6 16 -20.5 22.5 q-14.5 6.5 -43.5 6.5 l0 89 q89 0 133 -41 q44 -41 44 -126 l0 -204 q0 -38 15 -51.5 q15 -13.5 52 -13.5 l0 -89 q-37 0 -52 -13 q-15 -13 -15 -51 l0 -204 q0 -85 -44 -126 q-44 -41 -133 -41 l0 89 Z" /><glyph glyph-name="uni300A" unicode="&#x300a;" d="M593 331 l175 439 l105 0 l-175 -439 l175 -441 l-105 0 l-175 441 ZM562 770 l106 0 l-175 -439 l175 -441 l-106 0 l-175 441 l175 439 Z" /><glyph glyph-name="uni300B" unicode="&#x300b;" d="M492 331 l-175 439 l105 0 l175 -439 l-175 -441 l-105 0 l175 441 ZM286 331 l-175 439 l105 0 l175 -439 l-175 -441 l-105 0 l175 441 Z" /><glyph glyph-name="uni3001" unicode="&#x3001;" d="M109 87 l68 47 q43 -28 91.5 -78.5 q48.5 -50.5 85.5 -105.5 l-84 -54 q-26 48 -74.5 104.5 q-48.5 56.5 -86.5 86.5 Z" /><glyph glyph-name="uni3002" unicode="&#x3002;" d="M99 15 q0 60 38 93 q38 33 95 33 q57 0 95 -33 q38 -33 38 -93 q0 -60 -38 -93 q-38 -33 -95 -33 q-57 0 -95 33 q-38 33 -38 93 ZM232 -51 q30 0 49 17.5 q19 17.5 19 48.5 q0 31 -19 48.5 q-19 17.5 -49 17.5 q-30 0 -49 -17.5 q-19 -17.5 -19 -48.5 q0 -31 19 -48.5 q19 -17.5 49 -17.5 Z" /><glyph glyph-name="uni4E00" unicode="&#x4e00;" d="M48 335 l0 101 l884 0 l0 -101 l-884 0 Z" /><glyph glyph-name="uni4E07" unicode="&#x4e07;" d="M411 657 q-1 -73 -7 -151 l0 -7 l406 0 q-5 -75 -12.5 -195.5 q-7.5 -120.5 -13.5 -194.5 q-6 -71 -22.5 -105.5 q-16.5 -34.5 -52.5 -48.5 q-36 -14 -107 -19 l-91 -5 l-32 94 l93 5 q48 3 69.5 10.5 q21.5 7.5 31.5 29 q10 21.5 14 70.5 q5 54 10.5 134.5 q5.5 80.5 8.5 133.5 l-311 0 q-13 -113 -42.5 -197.5 q-29.5 -84.5 -85.5 -160 q-56 -75.5 -149 -153.5 l-77 74 q102 83 156 155.5 q54 72.5 78 159 q24 86.5 32 221.5 l1 24 q2 25 7 126 l-246 0 l0 93 l852 0 l0 -93 l-510 0 Z" /><glyph glyph-name="uni4E09" unicode="&#x4e09;" d="M122 720 l737 0 l0 -95 l-737 0 l0 95 ZM169 408 l643 0 l0 -91 l-643 0 l0 91 ZM57 53 l867 0 l0 -91 l-867 0 l0 91 Z" /><glyph glyph-name="uni4E0A" unicode="&#x4e0a;" d="M514 438 l0 -405 l420 0 l0 -88 l-884 0 l0 88 l370 0 l0 772 l94 -4 l0 -273 l357 0 l0 -90 l-357 0 Z" /><glyph glyph-name="uni4E0B" unicode="&#x4e0b;" d="M922 651 l-406 0 l0 -198 l50 72 q70 -49 160 -118.5 q90 -69.5 134 -110.5 l-53 -88 q-53 52 -138 122.5 q-85 70.5 -153 118.5 l0 -543 l-99 0 l0 745 l-358 0 l0 91 l863 0 l0 -91 Z" /><glyph glyph-name="uni4E0D" unicode="&#x4e0d;" d="M593 647 q-27 -50 -57 -96 l0 -649 l-95 0 l0 517 q-129 -162 -329 -318 l-64 82 q145 102 255.5 220 q110.5 118 181.5 244 l-388 0 l0 93 l790 0 l0 -93 l-294 0 ZM611 478 q181 -146 313 -280 l-60 -86 q-150 161 -310 296 l57 70 Z" /><glyph glyph-name="uni4E0E" unicode="&#x4e0e;" d="M892 585 l-583 0 l-10 -143 l543 0 q-3 -67 -11.5 -206 q-8.5 -139 -10.5 -158 q-4 -68 -20 -101.5 q-16 -33.5 -50 -47 q-34 -13.5 -102 -16.5 l-121 -7 l-29 93 l123 6 q45 2 65 9 q20 7 29 26.5 q9 19.5 12 64.5 l17 245 l-551 0 l32 444 l98 -4 l-8 -116 l577 0 l0 -89 ZM46 225 l638 0 l0 -90 l-638 0 l0 90 Z" /><glyph glyph-name="uni4E14" unicode="&#x4e14;" d="M788 768 l0 -745 l149 0 l0 -86 l-893 0 l0 86 l149 0 l0 745 l595 0 ZM694 524 l0 154 l-408 0 l0 -154 l408 0 ZM286 280 l408 0 l0 157 l-408 0 l0 -157 ZM694 193 l-408 0 l0 -170 l408 0 l0 170 Z" /><glyph glyph-name="uni4E16" unicode="&#x4e16;" d="M782 489 l0 -315 l-368 0 l0 315 l-147 0 l0 -457 l634 0 l0 -86 l-728 0 l0 543 l-131 0 l0 90 l131 0 l0 200 l94 -3 l0 -197 l147 0 l0 224 l92 -3 l0 -221 l185 0 l0 225 l91 -3 l0 -222 l152 0 l0 -90 l-152 0 ZM691 263 l0 226 l-185 0 l0 -226 l185 0 Z" /><glyph glyph-name="uni4E1A" unicode="&#x4e1a;" d="M646 34 l283 0 l0 -89 l-875 0 l0 89 l284 0 l0 762 l96 -4 l0 -758 l115 0 l0 762 l97 -3 l0 -759 ZM242 188 q-30 95 -77.5 213.5 q-47.5 118.5 -83.5 191.5 l87 40 q34 -67 85.5 -190.5 q51.5 -123.5 77.5 -202.5 l-89 -52 ZM903 595 q-28 -88 -77.5 -207 q-49.5 -119 -93.5 -203 l-86 43 q47 87 93.5 200 q46.5 113 73.5 204 l90 -37 Z" /><glyph glyph-name="uni4E24" unicode="&#x4e24;" d="M909 682 l-270 0 l-2 -122 l216 0 l0 -514 q0 -47 -12.5 -72 q-12.5 -25 -39.5 -36 q-27 -11 -79 -15 l-65 -5 l-28 88 l73 5 q27 2 39.5 7 q12.5 5 16.5 16 q4 11 4 33 l0 101 l-47 -54 q-41 62 -118 152 q-43 -130 -142 -249 l-72 46 q83 99 121.5 192.5 q38.5 93.5 44.5 220.5 l-145 0 q-4 -61 -9 -90 q59 -64 100 -120 l-60 -70 q-25 40 -65 88 q-18 -55 -49 -108 q-31 -53 -79 -112 l-50 38 l0 -174 l-85 0 l0 632 l214 0 q2 70 2 122 l-275 0 l0 84 l861 0 l0 -84 ZM551 560 l1 122 l-143 0 l-2 -122 l144 0 ZM192 145 q63 82 89.5 151.5 q26.5 69.5 35.5 179.5 l-125 0 l0 -331 ZM762 476 l-127 0 q-3 -61 -13 -112 q30 -32 70 -79.5 q40 -47.5 70 -86.5 l0 278 Z" /><glyph glyph-name="uni4E25" unicode="&#x4e25;" d="M651 428 l272 0 l0 -80 l-691 0 l0 -95 q0 -78 -12 -136 q-12 -58 -38.5 -110.5 q-26.5 -52.5 -74.5 -118.5 l-80 43 q46 61 70.5 107 q24.5 46 35.5 101 q11 55 11 136 l0 153 l217 0 l0 248 l-281 0 l0 81 l841 0 l0 -81 l-270 0 l0 -248 ZM558 676 l-105 0 l0 -248 l105 0 l0 248 ZM261 431 q-23 38 -65 91 q-42 53 -72 83 l67 59 q31 -32 71 -79.5 q40 -47.5 64 -83.5 l-65 -70 ZM677 494 q32 31 73.5 82.5 q41.5 51.5 62.5 85.5 l69 -52 q-22 -38 -65.5 -92.5 q-43.5 -54.5 -73.5 -81.5 l-66 58 Z" /><glyph glyph-name="uni4E2A" unicode="&#x4e2a;" d="M27 412 q135 82 246.5 187.5 q111.5 105.5 177.5 213.5 l78 0 q152 -230 425 -400 l-61 -92 q-125 88 -232 187.5 q-107 99.5 -171 199.5 q-70 -105 -175 -204 q-105 -99 -231 -184 l-57 92 ZM444 488 l97 -4 l0 -581 l-97 0 l0 585 Z" /><glyph glyph-name="uni4E2D" unicode="&#x4e2d;" d="M539 624 l331 0 l0 -437 l-331 0 l0 -286 l-96 0 l0 286 l-334 0 l0 437 l334 0 l0 184 l96 -4 l0 -180 ZM205 532 l0 -255 l238 0 l0 255 l-238 0 ZM539 277 l236 0 l0 255 l-236 0 l0 -255 Z" /><glyph glyph-name="uni4E30" unicode="&#x4e30;" d="M538 207 l386 0 l0 -89 l-386 0 l0 -218 l-92 0 l0 218 l-392 0 l0 89 l392 0 l0 147 l-302 0 l0 88 l302 0 l0 137 l-347 0 l0 90 l347 0 l0 135 l92 -4 l0 -131 l340 0 l0 -90 l-340 0 l0 -137 l296 0 l0 -88 l-296 0 l0 -147 Z" /><glyph glyph-name="uni4E32" unicode="&#x4e32;" d="M537 347 l337 0 l0 -309 l-337 0 l0 -138 l-90 0 l0 138 l-340 0 l0 309 l340 0 l0 83 l-298 0 l0 276 l298 0 l0 100 l90 -4 l0 -96 l295 0 l0 -276 l-295 0 l0 -83 ZM239 629 l0 -121 l208 0 l0 121 l-208 0 ZM744 508 l0 121 l-207 0 l0 -121 l207 0 ZM196 270 l0 -152 l251 0 l0 152 l-251 0 ZM537 118 l248 0 l0 152 l-248 0 l0 -152 Z" /><glyph glyph-name="uni4E3A" unicode="&#x4e3a;" d="M292 587 q-22 32 -66.5 83.5 q-44.5 51.5 -69.5 74.5 l65 58 q26 -23 67.5 -68.5 q41.5 -45.5 65.5 -76.5 l-62 -71 ZM869 586 q-5 -116 -28 -528 q-3 -51 -20.5 -78 q-17.5 -27 -55.5 -39.5 q-38 -12.5 -108 -17.5 l-86 -7 l-34 96 l96 6 q50 4 72.5 10.5 q22.5 6.5 31.5 22.5 q9 16 13 52 q6 54 13 195.5 q7 141.5 8 193.5 l-273 0 q-18 -131 -60.5 -230.5 q-42.5 -99.5 -117 -185.5 q-74.5 -86 -193.5 -178 l-71 76 q111 81 180 156 q69 75 108.5 161.5 q39.5 86.5 57.5 200.5 l-310 0 l0 94 l321 0 q3 24 9 115 q3 59 7 100 l94 -3 q0 -29 -5 -98.5 q-5 -69.5 -10 -113.5 l361 0 ZM633 168 q-19 32 -70 91.5 q-51 59.5 -82 88.5 l65 62 q30 -27 79 -81 q49 -54 73 -87 l-65 -74 Z" /><glyph glyph-name="uni4E3B" unicode="&#x4e3b;" d="M539 26 l390 0 l0 -86 l-878 0 l0 86 l391 0 l0 236 l-308 0 l0 91 l308 0 l0 196 l-349 0 l0 92 l363 0 q-33 116 -46 150 l93 16 q18 -44 52 -166 l332 0 l0 -92 l-348 0 l0 -196 l307 0 l0 -91 l-307 0 l0 -236 Z" /><glyph glyph-name="uni4E3E" unicode="&#x4e3e;" d="M489 609 q-10 30 -39 90 q-29 60 -47 87 l81 32 q16 -24 44 -79 q28 -55 40 -87 l-79 -43 ZM739 262 l-203 0 l0 -112 l349 0 l0 -84 l-349 0 l0 -168 l-94 0 l0 168 l-348 0 l0 84 l348 0 l0 112 l-202 0 l0 55 q-73 -61 -166 -114 l-45 78 q197 106 284 240 l-242 0 l0 85 l189 0 q-14 30 -48 83.5 q-34 53.5 -56 80.5 l76 39 q21 -27 56.5 -78 q35.5 -51 49.5 -75 l-74 -50 l366 0 q29 43 62.5 102.5 q33.5 59.5 51.5 98.5 l86 -31 q-16 -34 -43.5 -81.5 q-27.5 -47.5 -54.5 -88.5 l178 0 l0 -85 l-240 0 q47 -71 114.5 -127 q67.5 -56 166.5 -107 l-43 -80 q-96 55 -169 118 l0 -63 ZM442 345 l0 128 l94 -4 l0 -124 l181 0 q-91 82 -144 176 l-162 0 q-51 -93 -140 -176 l171 0 Z" /><glyph glyph-name="uni4E48" unicode="&#x4e48;" d="M521 746 q-71 -121 -182.5 -252.5 q-111.5 -131.5 -216.5 -223.5 l-72 78 q106 86 211.5 211 q105.5 125 171.5 242 l88 -55 ZM833 -100 q-19 40 -49 95 l-48 -2 q-375 -17 -482 -26 q-63 -5 -94 -10 l-25 105 q27 8 43.5 16.5 q16.5 8.5 32.5 22.5 q97 82 231.5 247 q134.5 165 217.5 308 l89 -55 q-86 -141 -215 -298.5 q-129 -157.5 -220 -235.5 l415 24 q-77 128 -127 196 l78 56 q52 -69 123 -182.5 q71 -113.5 112 -190.5 l-82 -70 Z" /><glyph glyph-name="uni4E49" unicode="&#x4e49;" d="M508 526 q-26 54 -66 124 q-40 70 -69 113 l79 49 q30 -42 70.5 -109.5 q40.5 -67.5 65.5 -115.5 l-80 -61 ZM886 -109 q-123 57 -217 113.5 q-94 56.5 -168 119.5 q-73 -63 -169.5 -119 q-96.5 -56 -229.5 -115 l-57 98 q126 52 217.5 101.5 q91.5 49.5 161.5 107.5 q-86 92 -150.5 211.5 q-64.5 119.5 -121.5 286.5 l90 37 q53 -157 114 -269 q61 -112 141 -196 q78 85 130.5 200.5 q52.5 115.5 90.5 279.5 l96 -35 q-45 -179 -101.5 -302 q-56.5 -123 -138.5 -215 q69 -57 157.5 -105.5 q88.5 -48.5 204.5 -94.5 l-50 -104 Z" /><glyph glyph-name="uni4E4B" unicode="&#x4e4b;" d="M724 33 q95 0 213 5 l-20 -90 q-110 -5 -199 -5 q-62 0 -182 4 q-87 3 -135.5 10 q-48.5 7 -83 25 q-34.5 18 -66.5 53 q-30 33 -41 33 q-6 0 -13 -5.5 q-7 -5.5 -25 -25.5 q-21 -22 -75 -93 l-67 77 q20 29 71 88 l35 42 q19 23 33.5 30.5 q14.5 7.5 34.5 7.5 q15 0 25 -5 q132 74 267.5 174.5 q135.5 100.5 227.5 185.5 l-587 0 l0 92 l327 0 q-18 77 -41 146 l93 15 q23 -72 46 -161 l293 0 l0 -94 q-92 -100 -248.5 -221.5 q-156.5 -121.5 -305.5 -206.5 q28 -31 56.5 -47 q28.5 -16 67 -22 q38.5 -6 105.5 -8 q130 -4 194 -4 Z" /><glyph glyph-name="uni4E58" unicode="&#x4e58;" d="M534 296 q68 -97 166 -165 q98 -68 239 -122 l-37 -85 q-120 54 -211.5 115.5 q-91.5 61.5 -156.5 138.5 l0 -280 l-86 0 l0 283 q-64 -77 -148.5 -136 q-84.5 -59 -211.5 -121 l-46 81 q159 73 249.5 136.5 q90.5 63.5 156.5 157.5 l0 223 l-373 0 l0 78 l373 0 l0 79 q-157 -7 -291 -9 l-6 76 q142 2 338.5 11.5 q196.5 9.5 326.5 23.5 l9 -79 q-112 -10 -291 -20 l0 -82 l374 0 l0 -78 l-374 0 l0 -226 ZM72 258 q20 4 84 21 q64 17 117 33 l0 53 l-176 0 l0 68 l176 0 l0 63 l79 -3 l0 -295 l-79 0 l0 44 l-184 -56 l-17 72 ZM626 496 l78 -3 l0 -88 q86 36 151 74 l29 -59 q-30 -18 -81 -41 q-51 -23 -99 -41 l0 -45 q0 -19 8 -26 q8 -7 28 -9 l20 -1 q40 0 54 7.5 q14 7.5 19 29.5 q4 23 6 55 l68 -23 q-5 -44 -10 -63 q-9 -43 -29.5 -60 q-20.5 -17 -73.5 -19 l-37 -1 l-36 1 q-50 2 -72.5 24.5 q-22.5 22.5 -22.5 74.5 l0 213 Z" /><glyph glyph-name="uni4E5F" unicode="&#x4e5f;" d="M935 144 q-6 -69 -15 -116 q-11 -51 -42.5 -73 q-31.5 -22 -105.5 -26 q-103 -6 -219 -6 q-115 0 -220 6 q-58 3 -91 17.5 q-33 14.5 -48.5 47 q-15.5 32.5 -15.5 91.5 l0 317 l-119 -30 l-16 89 l135 33 l0 196 l92 -4 l0 -169 l176 44 l0 243 l92 -3 l0 -217 l301 74 q-2 -65 -8.5 -198 q-6.5 -133 -8.5 -154 q-3 -44 -16.5 -67 q-13.5 -23 -40 -33 q-26.5 -10 -75.5 -15 l-54 -7 l-32 92 l50 7 q35 4 50 9.5 q15 5.5 21 17 q6 11.5 7 37.5 q7 122 10 198 l-204 -52 l0 -398 l-92 0 l0 375 l-176 -45 l0 -316 q0 -37 7.5 -55.5 q7.5 -18.5 26.5 -25.5 q19 -7 57 -10 q91 -6 194 -6 q96 0 181 6 q40 3 59 9.5 q19 6.5 27 19.5 q8 13 13 40 q8 46 8 90 l92 -33 Z" /><glyph glyph-name="uni4E60" unicode="&#x4e60;" d="M855 739 l-4 -112 q-16 -453 -21 -539 q-4 -64 -22.5 -97 q-18.5 -33 -58.5 -48 q-40 -15 -114 -20 l-100 -6 l-31 96 l105 6 q49 3 73 12 q24 9 34.5 30 q10.5 21 13.5 64 q3 38 11 233.5 q8 195.5 11 285.5 l-653 0 l0 95 l756 0 ZM237 611 q57 -35 140.5 -93.5 q83.5 -58.5 132.5 -98.5 l-50 -92 q-49 45 -137 110 q-88 65 -144 100 l58 74 ZM68 135 q151 56 317.5 126.5 q166.5 70.5 298.5 136.5 l12 -49 l11 -44 q-128 -63 -289.5 -134 q-161.5 -71 -309.5 -129 l-40 93 Z" /><glyph glyph-name="uni4E66" unicode="&#x4e66;" d="M755 376 l140 0 q0 -34 -23 -264 q-5 -46 -23 -72.5 q-18 -26.5 -53.5 -39 q-35.5 -12.5 -97.5 -16.5 l-78 -6 l-31 93 l93 5 q37 2 56 8.5 q19 6.5 28.5 21 q9.5 14.5 12.5 41.5 q4 28 9 69 q5 41 8 69 l-363 0 l0 -387 l-90 0 l0 387 l-299 0 l0 91 l299 0 l0 193 l-228 0 l0 90 l228 0 l0 151 l90 -4 l0 -147 l332 0 q-64 51 -115 86 l57 71 q47 -31 112.5 -83 q65.5 -52 109.5 -91 l-55 -80 q-43 43 -96 86 l-23 -272 ZM680 569 l-247 0 l0 -193 l230 0 l17 193 Z" /><glyph glyph-name="uni4E71" unicode="&#x4e71;" d="M929 156 q-4 -71 -13 -128 q-8 -56 -36.5 -80 q-28.5 -24 -94.5 -28 q-28 -2 -42 -2 q-13 0 -43 2 q-49 3 -76.5 15.5 q-27.5 12.5 -40 41 q-12.5 28.5 -12.5 80.5 l0 736 l89 -3 l0 -716 q0 -26 6.5 -38.5 q6.5 -12.5 18.5 -17 q12 -4.5 36 -6.5 q8 -1 22 -1 q15 0 22 1 q37 4 49.5 14.5 q12.5 10.5 17.5 41.5 q7 39 9 118 l88 -30 ZM332 523 l190 0 l0 -86 l-190 0 l0 -134 l145 0 l0 -373 l-377 0 l0 373 l144 0 l0 134 l-201 0 l0 86 l201 0 l0 124 q-68 -8 -169 -16 l-9 89 q103 7 218 22 q115 15 193 32 l16 -89 q-52 -11 -161 -27 l0 -135 ZM187 18 l202 0 l0 196 l-202 0 l0 -196 Z" /><glyph glyph-name="uni4E86" unicode="&#x4e86;" d="M91 743 l792 0 l0 -91 l-337 -233 l0 -376 q0 -49 -12.5 -74 q-12.5 -25 -42.5 -36 q-30 -11 -89 -15 l-83 -7 l-30 96 l82 6 q34 2 48.5 6.5 q14.5 4.5 20.5 17.5 q6 13 6 42 l0 389 l277 184 l-632 0 l0 91 Z" /><glyph glyph-name="uni4E88" unicode="&#x4e88;" d="M565 437 l346 0 l0 -87 q-68 -104 -147 -210 l-81 51 q21 24 59.5 74.5 q38.5 50.5 62.5 84.5 l-266 0 l0 -318 q0 -47 -11.5 -71.5 q-11.5 -24.5 -39 -35.5 q-27.5 -11 -81.5 -15 l-75 -5 l-24 91 l70 5 q32 2 46 7 q14 5 19 18 q5 13 5 42 l0 282 l-387 0 l0 87 l406 0 q-52 43 -108.5 85.5 q-56.5 42.5 -90.5 64.5 l52 70 q56 -36 159 -118 q44 26 96.5 62.5 q52.5 36.5 68.5 47.5 q14 10 24 17 q10 7 17 12 l-537 0 l0 87 l686 0 l0 -89 q-28 -18 -96 -67 q-126 -90 -188 -129 q11 -9 18.5 -16 q7.5 -7 12.5 -12 l-16 -15 Z" /><glyph glyph-name="uni4E8B" unicode="&#x4e8b;" d="M928 259 l0 -67 l-88 0 l0 -136 l-307 0 l0 -31 q0 -44 -11.5 -67.5 q-11.5 -23.5 -38 -34 q-26.5 -10.5 -76.5 -14.5 l-69 -6 l-28 83 l82 5 q26 2 36.5 5.5 q10.5 3.5 14.5 13.5 q4 10 4 33 l0 13 l-336 0 l0 69 l336 0 l0 67 l-403 0 l0 67 l403 0 l0 56 l-337 0 l0 67 l337 0 l0 52 l-293 0 l0 184 l293 0 l0 52 l-384 0 l0 71 l384 0 l0 68 l86 -4 l0 -64 l376 0 l0 -71 l-376 0 l0 -52 l288 0 l0 -184 l-288 0 l0 -52 l307 0 l0 -123 l88 0 ZM239 554 l0 -57 l208 0 l0 57 l-208 0 ZM734 497 l0 57 l-201 0 l0 -57 l201 0 ZM758 315 l-225 0 l0 -56 l225 0 l0 56 ZM533 125 l225 0 l0 67 l-225 0 l0 -67 Z" /><glyph glyph-name="uni4E8C" unicode="&#x4e8c;" d="M148 695 l686 0 l0 -97 l-686 0 l0 97 ZM58 77 l866 0 l0 -95 l-866 0 l0 95 Z" /><glyph glyph-name="uni4E8E" unicode="&#x4e8e;" d="M923 436 l0 -89 l-371 0 l0 -299 q0 -49 -13 -75.5 q-13 -26.5 -43.5 -38.5 q-30.5 -12 -88.5 -16 l-87 -7 l-31 94 l89 6 q33 2 48 7.5 q15 5.5 20.5 18.5 q5.5 13 5.5 39 l0 271 l-397 0 l0 89 l397 0 l0 223 l-316 0 l0 90 l707 0 l0 -90 l-291 0 l0 -223 l371 0 Z" /><glyph glyph-name="uni4E92" unicode="&#x4e92;" d="M782 506 l-35 -492 l189 0 l0 -88 l-892 0 l0 88 l605 0 l12 141 l-470 0 l77 480 l-174 0 l0 91 l795 0 l0 -91 l-525 0 l-21 -129 l439 0 ZM328 415 l-29 -171 l369 0 l14 171 l-354 0 Z" /><glyph glyph-name="uni4E94" unicode="&#x4e94;" d="M778 441 l-15 -400 l168 0 l0 -85 l-881 0 l0 85 l205 0 l53 311 l-186 0 l0 89 l202 0 l35 206 l-257 0 l0 90 l784 0 l0 -90 l-429 0 l-36 -206 l357 0 ZM679 352 l-273 0 l-54 -311 l315 0 l12 311 Z" /><glyph glyph-name="uni4E9B" unicode="&#x4e9b;" d="M541 395 l0 409 l93 -3 l0 -194 q59 27 121.5 62 q62.5 35 99.5 62 l40 -90 q-42 -27 -118 -65 q-76 -38 -143 -68 l0 -83 q0 -33 12 -44.5 q12 -11.5 45 -14.5 q26 -2 38 -2 q12 0 38 2 q34 4 46.5 14.5 q12.5 10.5 17.5 36.5 q7 33 10 74 l85 -30 q-6 -49 -15 -91 q-11 -44 -35.5 -64 q-24.5 -20 -81.5 -24 q-50 -2 -74 -2 q-25 0 -75 2 q-53 4 -78.5 29 q-25.5 25 -25.5 84 ZM61 350 q9 1 70 10 l0 359 l91 -4 l0 -339 l20 3 q51 9 70 13 l0 409 l89 -4 l0 -159 l119 0 l0 -83 l-119 0 l0 -147 l115 22 l4 -47 l4 -45 l-349 -61 q-43 -7 -66.5 -11 q-23.5 -4 -33.5 -6 l-14 90 ZM801 129 l-620 0 l0 85 l620 0 l0 -85 ZM916 -58 l-849 0 l0 86 l849 0 l0 -86 Z" /><glyph glyph-name="uni4EA4" unicode="&#x4ea4;" d="M904 683 l0 -91 l-828 0 l0 91 l380 0 q-23 75 -35 107 l91 16 q20 -52 41 -123 l351 0 ZM842 271 q-51 52 -139.5 126 q-88.5 74 -144.5 111 l55 70 q58 -38 145.5 -106.5 q87.5 -68.5 136.5 -114.5 l-53 -86 ZM81 343 q73 49 141 109.5 q68 60.5 121 122.5 l68 -63 q-56 -65 -128.5 -130.5 q-72.5 -65.5 -147.5 -120.5 l-54 82 ZM906 -104 q-145 43 -243 85 q-98 42 -171 97 q-72 -54 -171 -98.5 q-99 -44.5 -244 -91.5 l-41 90 q133 37 225 75 q92 38 159 86 q-78 78 -148 203 l79 48 q63 -119 139 -192 q75 74 130 191 l86 -41 q-65 -130 -143 -208 q68 -47 159 -82 q91 -35 221 -66 l-37 -96 Z" /><glyph glyph-name="uni4EA7" unicode="&#x4ea7;" d="M928 609 l-190 0 q-29 -115 -48 -176 l207 0 l0 -89 l-663 0 l0 -74 q0 -125 -28 -211 q-28 -86 -95 -177 l-84 52 q47 57 72 106 q25 49 35.5 106.5 q10.5 57.5 10.5 141.5 l0 145 l180 0 q-16 85 -39 176 l-214 0 l0 89 l396 0 q-19 63 -33 101 l93 14 q17 -45 39 -115 l361 0 l0 -89 ZM596 433 q29 88 48 176 l-262 0 l6 -24 q7 -32 16 -72 q9 -40 18 -80 l174 0 Z" /><glyph glyph-name="uni4EAB" unicode="&#x4eab;" d="M905 714 l0 -74 l-831 0 l0 74 l381 0 q-15 46 -27 78 l93 14 l33 -92 l351 0 ZM800 586 l0 -194 l-620 0 l0 194 l620 0 ZM714 522 l-449 0 l0 -63 l449 0 l0 63 ZM932 172 l0 -75 l-391 0 l0 -79 q0 -43 -10 -65 q-10 -22 -35 -31.5 q-25 -9.5 -76 -13.5 l-77 -6 l-28 85 l78 7 q27 2 38.5 5.5 q11.5 3.5 15.5 13.5 q4 10 4 33 l0 51 l-403 0 l0 75 l403 0 l0 24 l208 77 l-523 0 l0 72 l693 0 l0 -73 l-262 -100 l365 0 Z" /><glyph glyph-name="uni4EAC" unicode="&#x4eac;" d="M913 701 l0 -84 l-843 0 l0 84 l380 0 q-20 73 -27 91 l93 15 q8 -23 32 -106 l365 0 ZM803 235 l-253 0 l0 -220 q0 -42 -10 -62.5 q-10 -20.5 -35.5 -30 q-25.5 -9.5 -77.5 -13.5 l-62 -6 l-27 93 l60 4 q26 2 37.5 6.5 q11.5 4.5 15.5 14 q4 9.5 4 30.5 l0 184 l-278 0 l0 299 l626 0 l0 -299 ZM709 449 l-439 0 l0 -131 l439 0 l0 131 ZM346 144 q-67 -82 -251 -220 l-60 78 q65 42 135.5 99.5 q70.5 57.5 107.5 104.5 l68 -62 ZM687 205 q61 -44 136.5 -103 q75.5 -59 117.5 -99 l-54 -82 q-40 43 -118.5 108 q-78.5 65 -135.5 105 l54 71 Z" /><glyph glyph-name="uni4EAE" unicode="&#x4eae;" d="M906 722 l0 -75 l-831 0 l0 75 l377 0 q-5 18 -24 74 l93 14 l30 -88 l355 0 ZM196 398 l0 194 l591 0 l0 -194 l-591 0 ZM285 463 l414 0 l0 62 l-414 0 l0 -62 ZM886 344 l0 -172 l-89 0 l0 98 l-612 0 l0 -97 l-88 0 l0 171 l789 0 ZM918 85 q-5 -50 -13 -83 q-10 -46 -36.5 -65 q-26.5 -19 -87.5 -22 l-88 0 q-42 2 -65.5 10.5 q-23.5 8.5 -34 29.5 q-10.5 21 -10.5 60 l0 119 l-212 0 l0 -31 q0 -73 -64 -124.5 q-64 -51.5 -216 -89.5 l-41 86 q99 23 147.5 45 q48.5 22 65.5 52 q17 30 17 82 l0 59 l393 0 l0 -170 q0 -25 9.5 -32.5 q9.5 -7.5 38.5 -9.5 l46 0 q29 3 40.5 12.5 q11.5 9.5 16.5 31.5 q6 25 9 70 l85 -30 Z" /><glyph glyph-name="uni4EBA" unicode="&#x4eba;" d="M924 -20 l-67 -86 q-139 115 -230 238 q-91 123 -137 261 q-44 -139 -134.5 -259 q-90.5 -120 -234.5 -230 l-69 81 q141 102 225 205.5 q84 103.5 122.5 226.5 q38.5 123 40.5 284 q1 20 1 92 l93 -3 q-1 -13 -1 -63 l-1 -63 q-2 -48 -4 -71 q28 -190 127.5 -340 q99.5 -150 268.5 -273 Z" /><glyph glyph-name="uni4EC0" unicode="&#x4ec0;" d="M361 787 q-33 -95 -79 -191 l0 -690 l-92 0 l0 524 q-49 -77 -104 -149 l-64 76 q72 86 141 214 q69 128 108 248 l90 -32 ZM680 476 l260 0 l0 -94 l-260 0 l0 -480 l-93 0 l0 480 l-253 0 l0 94 l253 0 l0 328 l93 -3 l0 -325 Z" /><glyph glyph-name="uni4EC5" unicode="&#x4ec5;" d="M344 779 q-33 -105 -80 -205 l0 -674 l-90 0 l0 510 q-44 -70 -96 -136 l-58 83 q68 89 132.5 210.5 q64.5 121.5 98.5 237.5 l93 -26 ZM951 -19 l-58 -90 q-168 116 -272 234 q-104 -112 -276 -226 l-64 82 q180 114 279 221 q-64 93 -105 202.5 q-41 109.5 -64 248.5 l-38 0 l0 92 l519 0 l0 -91 q-28 -140 -72.5 -249 q-44.5 -109 -113.5 -202 q95 -109 265 -222 ZM485 653 q23 -117 56.5 -206.5 q33.5 -89.5 84.5 -164.5 q56 78 91 167.5 q35 89.5 57 203.5 l-289 0 Z" /><glyph glyph-name="uni4ECA" unicode="&#x4eca;" d="M25 452 q142 74 250.5 167.5 q108.5 93.5 176.5 201.5 l80 0 q139 -227 421 -369 l-51 -87 q-133 73 -242.5 167.5 q-109.5 94.5 -168.5 193.5 q-60 -96 -169 -190.5 q-109 -94.5 -244 -170.5 l-53 87 ZM442 569 q30 -30 73.5 -84.5 q43.5 -54.5 68.5 -91.5 l-69 -67 q-23 39 -66 96 q-43 57 -72 88 l65 59 ZM139 319 l661 0 l0 -88 q-52 -75 -126 -167.5 q-74 -92.5 -142 -167.5 l-91 54 q67 65 130 139 q63 74 106 140 l-538 0 l0 90 Z" /><glyph glyph-name="uni4ECB" unicode="&#x4ecb;" d="M23 416 q153 80 258.5 178.5 q105.5 98.5 168.5 222.5 l79 0 q70 -132 174.5 -229 q104.5 -97 247.5 -168 l-53 -93 q-282 152 -408 383 q-72 -120 -172.5 -213 q-100.5 -93 -237.5 -171 l-57 90 ZM597 447 l96 -3 l0 -538 l-96 0 l0 541 ZM92 -31 q84 58 124 99.5 q40 41.5 55.5 93.5 q15.5 52 15.5 140 l0 143 l96 -3 l0 -131 q0 -109 -18.5 -178.5 q-18.5 -69.5 -66.5 -125 q-48 -55.5 -142 -117.5 l-64 79 Z" /><glyph glyph-name="uni4ECE" unicode="&#x4ece;" d="M884 -111 q-91 105 -150 210.5 q-59 105.5 -91 233.5 q-31 -117 -91.5 -223.5 q-60.5 -106.5 -165.5 -219.5 l-76 72 q113 115 172.5 217 q59.5 102 83.5 215 q24 113 28 279 q2 40 2 126 l96 -4 q0 -26 -1.5 -61 q-1.5 -35 -3.5 -61 q-2 -48 -4 -71 q14 -206 81 -357 q67 -151 193 -282 l-73 -74 ZM436 195 q-42 81 -117 191 q-22 -131 -69.5 -236 q-47.5 -105 -137.5 -235 l-85 58 q86 122 130.5 213 q44.5 91 65.5 199 q21 108 25 271 l1 32 q4 89 2 110 l96 -4 q0 -30 -2 -72 q-2 -42 -3 -68 q-1 -70 -6 -132 q39 -50 89.5 -125.5 q50.5 -75.5 78.5 -127.5 l-68 -74 Z" /><glyph glyph-name="uni4ED3" unicode="&#x4ed3;" d="M550 227 q38 2 56.5 8 q18.5 6 26 20 q7.5 14 8.5 42 q1 11 1 46 l1 47 l-339 0 l0 -297 q0 -35 5.5 -53 q5.5 -18 22.5 -26.5 q17 -8.5 53 -10.5 q80 -5 144 -5 q63 0 143 5 q50 3 68.5 17.5 q18.5 14.5 25.5 51.5 q9 44 12 95 l93 -38 q-6 -65 -16 -107 q-8 -42 -23.5 -64 q-15.5 -22 -46 -32.5 q-30.5 -10.5 -87.5 -13.5 q-92 -5 -167 -5 q-74 0 -167 5 q-59 3 -90 16 q-31 13 -45 45 q-14 32 -14 94 l0 381 q-65 -46 -140 -90 l-52 91 q138 73 249 169.5 q111 96.5 174 199.5 l87 0 q66 -105 173.5 -195.5 q107.5 -90.5 247.5 -161.5 l-49 -95 q-92 49 -170 107 l-4 -199 q-2 -53 -16.5 -81 q-14.5 -28 -47 -40.5 q-32.5 -12.5 -94.5 -16.5 l-88 -7 l-30 93 l95 5 ZM730 477 q-75 56 -137.5 118.5 q-62.5 62.5 -102.5 123.5 q-86 -125 -237 -242 l477 0 Z" /><glyph glyph-name="uni4ED4" unicode="&#x4ed4;" d="M345 781 q-37 -114 -87 -217 l0 -661 l-92 0 l0 495 q-34 -55 -82 -120 l-63 77 q70 91 134 212.5 q64 121.5 98 236.5 l92 -23 ZM940 397 l0 -90 l-258 0 l0 -277 q0 -45 -11.5 -68 q-11.5 -23 -39 -33 q-27.5 -10 -81.5 -15 l-73 -6 l-30 94 l73 6 q30 2 43 6.5 q13 4.5 17.5 15.5 q4.5 11 4.5 35 l0 242 l-275 0 l0 90 l275 0 l0 108 l177 151 l-374 0 l0 92 l509 0 l0 -91 l-215 -188 l0 -72 l258 0 Z" /><glyph glyph-name="uni4ED6" unicode="&#x4ed6;" d="M939 130 q-4 -68 -12 -107 q-6 -35 -19.5 -54.5 q-13.5 -19.5 -42 -29 q-28.5 -9.5 -79.5 -12.5 q-61 -4 -143 -4 q-80 0 -143 4 q-51 3 -79.5 15 q-28.5 12 -41.5 40 q-13 28 -13 80 l0 337 l-79 -26 l-20 85 l99 32 l0 213 l85 -3 l0 -183 l110 35 l0 252 l85 -4 l0 -221 l220 71 l-5 -157 q-4 -176 -6 -206 q-3 -39 -15 -60 q-12 -21 -36.5 -30.5 q-24.5 -9.5 -70.5 -14.5 l-33 -3 l-27 89 l37 4 q34 3 45 13 q11 10 13 42 q0 4 6 139 l2 65 l-130 -42 l0 -392 l-85 0 l0 365 l-110 -36 l0 -337 q0 -33 5.5 -47.5 q5.5 -14.5 21.5 -20 q16 -5.5 53 -8.5 q70 -4 108 -4 q40 0 108 4 q39 3 57 8.5 q18 5.5 26 16.5 q8 11 11 33 q7 38 9 86 l89 -27 ZM331 772 q-35 -108 -76 -197 l0 -669 l-85 0 l-2 507 q-43 -68 -87 -128 l-57 73 q65 83 125.5 199.5 q60.5 116.5 94.5 234.5 l87 -20 Z" /><glyph glyph-name="uni4ED8" unicode="&#x4ed8;" d="M347 776 q-40 -116 -75 -193 l0 -674 l-95 0 l0 496 q-43 -68 -89 -127 l-69 75 q70 87 133.5 205.5 q63.5 118.5 100.5 241.5 l94 -24 ZM935 610 l0 -93 l-154 0 l0 -482 q0 -46 -13 -71.5 q-13 -25.5 -41 -37.5 q-28 -12 -79 -16 l-84 -8 l-30 95 l93 8 q35 3 46 14 q11 11 11 43 l0 455 l-366 0 l0 93 l366 0 l0 182 l97 -4 l0 -178 l154 0 ZM441 453 q30 -38 77 -109.5 q47 -71.5 72 -117.5 l-73 -65 q-29 55 -75 128.5 q-46 73.5 -77 113.5 l76 50 Z" /><glyph glyph-name="uni4EE3" unicode="&#x4ee3;" d="M364 774 q-37 -106 -84 -201 l0 -669 l-90 0 l0 507 q-59 -92 -106 -153 l-58 80 q71 84 139.5 211.5 q68.5 127.5 106.5 249.5 l92 -25 ZM842 167 l79 -48 q-21 -77 -36 -114 q-22 -55 -48.5 -76.5 q-26.5 -21.5 -69.5 -21.5 q-38 0 -71.5 22.5 q-33.5 22.5 -70.5 76.5 q-83 125 -116 404 l-200 -18 l-8 90 l199 18 q-6 70 -8 112 l-10 187 l93 0 q2 -53 9 -190 q4 -65 7 -100 l331 30 l7 -91 l-328 -30 q17 -133 43.5 -225 q26.5 -92 57.5 -135 q20 -27 34.5 -37.5 q14.5 -10.5 30.5 -10.5 q18 0 28 11.5 q10 11.5 22 47.5 q15 43 25 98 ZM799 556 q-25 30 -76.5 78.5 q-51.5 48.5 -83.5 73.5 l51 64 q32 -24 84 -69 q52 -45 78 -73 l-53 -74 Z" /><glyph glyph-name="uni4EE4" unicode="&#x4ee4;" d="M531 813 q66 -106 171.5 -196.5 q105.5 -90.5 248.5 -160.5 l-51 -91 q-129 68 -240 162 q-111 94 -170 191 q-61 -94 -167 -184.5 q-106 -90.5 -241 -166.5 l-55 90 q134 65 242 157 q108 92 182 199 l80 0 ZM453 586 q93 -98 130 -156 l-71 -66 q-22 36 -62.5 86 q-40.5 50 -68.5 78 l72 58 ZM134 266 l0 89 l686 1 l0 -94 l-72 -70 q-11 -10 -62.5 -60 q-51.5 -50 -97.5 -89 q84 -42 115 -60 l-41 -97 q-81 50 -220 119.5 q-139 69.5 -232 107.5 l41 85 q117 -50 242 -109 q76 64 163 148 l32 29 l-554 0 Z" /><glyph glyph-name="uni4EE5" unicode="&#x4ee5;" d="M480 478 q-27 60 -72.5 139.5 q-45.5 79.5 -80.5 131.5 l72 47 q33 -46 80 -123.5 q47 -77.5 76 -134.5 l-75 -60 ZM877 -79 q-32 45 -83 105 q-51 60 -97 108 q-44 -64 -115.5 -120.5 q-71.5 -56.5 -182.5 -117.5 l-59 84 q143 75 219 150 q76 75 109.5 168.5 q33.5 93.5 44.5 238.5 q5 56 5 241 l92 -4 l0 -63 q0 -134 -4 -182 q-7 -101 -21 -175 q-14 -74 -40 -134 q50 -50 104.5 -110 q54.5 -60 94.5 -111 l-67 -78 ZM454 341 l56 -81 q-48 -39 -137 -111.5 q-89 -72.5 -149 -123.5 q-40 -33 -78 -70 l-63 75 q21 16 27 30.5 q6 14.5 6 35.5 l0 659 l94 -4 l0 -612 l244 202 Z" /><glyph glyph-name="uni4EEC" unicode="&#x4eec;" d="M427 814 q28 -27 66.5 -72 q38.5 -45 61.5 -78 l-63 -67 q-20 33 -59 83 q-39 50 -66 77 l60 57 ZM316 787 q-31 -104 -72 -199 l0 -679 l-86 0 l0 504 q-37 -66 -77 -125 l-60 76 q59 82 119 208 q60 126 91 237 l85 -22 ZM567 747 l325 0 l0 -699 q0 -57 -12.5 -84.5 q-12.5 -27.5 -41.5 -38 q-29 -10.5 -92 -16.5 l-56 -6 l-29 89 l61 4 q39 4 54.5 9.5 q15.5 5.5 20 19 q4.5 13.5 4.5 46.5 l0 590 l-234 0 l0 86 ZM437 -85 l-88 0 l0 706 l88 -4 l0 -702 Z" /><glyph glyph-name="uni4EF6" unicode="&#x4ef6;" d="M941 296 l0 -88 l-258 0 l0 -308 l-92 0 l0 308 l-286 0 l0 88 l286 0 l0 221 l-135 0 q-28 -88 -62 -166 l-90 37 q37 78 68.5 175 q31.5 97 50.5 189 l87 -24 q-11 -57 -29 -124 l110 0 l0 204 l92 -4 l0 -200 l215 0 l0 -87 l-215 0 l0 -221 l258 0 ZM321 772 q-26 -91 -60 -176 l0 -694 l-91 0 l0 505 q-38 -66 -92 -140 l-57 81 q64 90 122 210 q58 120 91 237 l87 -23 Z" /><glyph glyph-name="uni4EF7" unicode="&#x4ef7;" d="M639 812 q48 -115 131 -210 q83 -95 187 -154 l-52 -83 q-105 69 -179.5 152.5 q-74.5 83.5 -123.5 192.5 q-47 -107 -111 -187.5 q-64 -80.5 -171 -164.5 l-55 79 q207 150 295 375 l79 0 ZM336 776 q-39 -116 -83 -206 l0 -665 l-87 0 l0 506 q-40 -65 -89 -132 l-61 74 q73 94 135.5 212.5 q62.5 118.5 98.5 234.5 l86 -24 ZM769 -94 l-88 0 l0 535 l88 -4 l0 -531 ZM432 439 l87 -4 l0 -131 q0 -106 -13.5 -169.5 q-13.5 -63.5 -47.5 -114.5 q-34 -51 -105 -124 l-71 60 q65 60 96 105 q31 45 42.5 98.5 q11.5 53.5 11.5 142.5 l0 137 Z" /><glyph glyph-name="uni4EFB" unicode="&#x4efb;" d="M338 777 q-33 -104 -75 -193 l0 -677 l-92 0 l0 508 q-38 -60 -90 -129 l-60 77 q68 90 129.5 205.5 q61.5 115.5 97.5 233.5 l90 -25 ZM939 318 l-274 0 l0 -279 l239 0 l0 -89 l-572 0 l0 89 l237 0 l0 279 l-261 0 l0 93 l261 0 l0 221 q-138 -14 -216 -18 l-12 94 q120 6 271 25.5 q151 19.5 256 42.5 l21 -95 q-101 -20 -224 -37 l0 -233 l274 0 l0 -93 Z" /><glyph glyph-name="uni4EFD" unicode="&#x4efd;" d="M707 810 q35 -126 95 -222.5 q60 -96.5 151 -177.5 l-72 -63 q-27 26 -59 61 q-4 -77 -9 -181 q-5 -104 -9 -166 q-3 -53 -21.5 -82 q-18.5 -29 -51 -41.5 q-32.5 -12.5 -86.5 -17.5 l-53 -5 l-30 93 l66 5 q34 3 50.5 11 q16.5 8 23 26 q6.5 18 10.5 56 q4 45 8.5 115.5 q4.5 70.5 6.5 113.5 l-187 0 l-1 -17 q-7 -103 -27.5 -172.5 q-20.5 -69.5 -63.5 -128 q-43 -58.5 -121 -125.5 l-73 62 l0 -50 l-88 0 l0 499 q-38 -61 -90 -128 l-57 77 q67 92 127.5 212.5 q60.5 120.5 95.5 237.5 l85 -26 q-34 -113 -73 -205 l0 -612 q73 54 112.5 102 q39.5 48 57.5 107.5 q18 59.5 24 151.5 q0 10 1 15 l-89 0 l0 55 l-34 -38 l-65 61 q76 76 133 170.5 q57 94.5 92 199.5 l91 -27 q-62 -175 -188 -331 l419 0 q-133 157 -191 363 l90 22 Z" /><glyph glyph-name="uni4F01" unicode="&#x4f01;" d="M76 363 l-52 89 q137 74 249.5 168.5 q112.5 94.5 178.5 189.5 l79 0 q69 -100 178 -191.5 q109 -91.5 247 -166.5 l-52 -89 q-131 77 -241.5 170 q-110.5 93 -170.5 181 q-59 -84 -174.5 -180.5 q-115.5 -96.5 -241.5 -170.5 ZM823 239 l-273 0 l0 -214 l363 0 l0 -87 l-859 0 l0 87 l136 0 l0 359 l91 -4 l0 -355 l177 0 l0 511 l92 -4 l0 -202 l273 0 l0 -91 Z" /><glyph glyph-name="uni4F17" unicode="&#x4f17;" d="M440 112 q-41 58 -112 138 q-24 -92 -74.5 -174.5 q-50.5 -82.5 -135.5 -175.5 l-80 66 q76 75 121 139 q45 64 69.5 135 q24.5 71 30.5 162 q3 26 4 47 l2 29 q-73 -52 -165 -102 l-53 90 q144 71 244 154 q100 83 162 183 l79 0 q64 -103 163.5 -185.5 q99.5 -82.5 239.5 -151.5 l-52 -91 q-263 141 -390 327 q-78 -114 -213 -214 l78 -3 q-2 -16 -2 -34 q-1 -12 -2 -26.5 q-1 -14.5 -3 -28.5 l-3 -37 q36 -36 81.5 -87 q45.5 -51 70.5 -85 l-60 -75 ZM944 -24 l-63 -77 q-173 134 -240 300 q-31 -84 -86.5 -157.5 q-55.5 -73.5 -145.5 -154.5 l-73 73 q88 71 140.5 136.5 q52.5 65.5 78 137 q25.5 71.5 31.5 161.5 q2 23 6 94 l94 -4 l-3 -36 q-2 -42 -4 -57 q0 -7 -2 -21 q21 -119 87 -215.5 q66 -96.5 180 -179.5 Z" /><glyph glyph-name="uni4F18" unicode="&#x4f18;" d="M339 781 q-36 -117 -80 -210 l0 -666 l-90 0 l0 500 q-41 -66 -91 -128 l-60 75 q68 83 132 207.5 q64 124.5 99 245.5 l90 -24 ZM910 494 l-331 0 q-6 -135 -28 -231 q-22 -96 -72 -182 q-50 -86 -140 -180 l-78 64 q84 82 128.5 157.5 q44.5 75.5 64.5 159.5 q20 84 29 212 l-175 0 l0 91 l180 0 q2 28 4 165 l1 53 l93 -4 l-4 -214 l214 0 q-22 31 -67 79.5 q-45 48.5 -70 70.5 l59 58 q29 -26 70.5 -69 q41.5 -43 65.5 -72 l-55 -67 l111 0 l0 -91 ZM935 153 q-2 -67 -8 -116 q-5 -45 -16.5 -68.5 q-11.5 -23.5 -35 -34 q-23.5 -10.5 -67.5 -12.5 l-84 0 q-59 2 -89 28.5 q-30 26.5 -30 92.5 l0 412 l91 -4 l0 -384 q0 -33 10 -43.5 q10 -10.5 39 -11.5 l49 0 q25 1 34.5 12 q9.5 11 13.5 41 q7 60 8 118 l85 -30 Z" /><glyph glyph-name="uni4F1A" unicode="&#x4f1a;" d="M533 812 q64 -93 169 -176.5 q105 -83.5 241 -150.5 l-42 -89 q-74 39 -150 91 l0 -70 l-518 0 l0 66 q-67 -46 -151 -90 l-43 86 q137 67 242.5 152.5 q105.5 85.5 171.5 180.5 l80 0 ZM732 500 q-76 53 -138.5 110.5 q-62.5 57.5 -100.5 112.5 q-79 -113 -235 -223 l474 0 ZM88 218 l0 84 l808 0 l0 -84 l-421 0 q-42 -57 -86.5 -107.5 q-44.5 -50.5 -80.5 -81.5 l353 16 q-62 71 -89 97 l71 56 q41 -41 102.5 -113 q61.5 -72 104.5 -129 l-66 -71 q-19 29 -60 82 q-84 -3 -230 -12 q-146 -9 -233 -17 q-62 -5 -99 -9 l-18 84 q20 9 30 15.5 q10 6.5 23 17.5 q37 31 81 78 q44 47 80 94 l-270 0 Z" /><glyph glyph-name="uni4F1F" unicode="&#x4f1f;" d="M620 309 l286 0 q-3 -73 -12 -200 q-5 -62 -37.5 -87.5 q-32.5 -25.5 -95.5 -29.5 l-54 -4 l-29 90 l45 3 q32 2 48 7.5 q16 5.5 22 15.5 q6 10 8 30 q6 50 8 88 l-189 0 l0 -319 l-91 0 l0 319 l-230 0 l0 87 l230 0 l0 102 l-176 0 l0 83 l176 0 l0 103 l-200 0 l0 86 l200 0 l0 123 l91 -4 l0 -119 l279 0 l0 -86 l-279 0 l0 -103 l243 0 l0 -83 l-243 0 l0 -102 ZM347 783 q-36 -110 -84 -211 l0 -665 l-90 0 l0 501 q-50 -78 -98 -137 l-57 81 q72 89 137.5 213 q65.5 124 101.5 239 l90 -21 Z" /><glyph glyph-name="uni4F20" unicode="&#x4f20;" d="M938 403 l-396 0 q-17 -60 -30 -92 l343 0 l0 -83 l-14 -20 q-70 -102 -122 -171 q78 -40 124 -67 l-30 -92 q-83 53 -214.5 117.5 q-131.5 64.5 -223.5 99.5 l34 81 q101 -38 231 -100 q57 76 106 151 l-333 0 l0 76 q20 52 34 100 l-149 0 l0 84 l173 0 q7 27 25 102 l-146 0 l0 85 l164 0 q16 77 23 138 l91 -11 q-11 -73 -22 -127 l285 0 l0 -85 l-302 0 l-24 -102 l373 0 l0 -84 ZM339 785 q-35 -108 -79 -202 l0 -683 l-87 0 l0 524 q-45 -71 -99 -138 l-58 74 q66 86 130 205.5 q64 119.5 105 241.5 l88 -22 Z" /><glyph glyph-name="uni4F2A" unicode="&#x4f2a;" d="M889 581 q-3 -92 -11 -277.5 q-8 -185.5 -12 -249.5 q-3 -50 -21 -77 q-18 -27 -52 -39 q-34 -12 -94 -17 l-63 -5 l-31 92 l72 5 q39 3 58.5 10 q19.5 7 29 23.5 q9.5 16.5 12.5 50.5 q5 50 10.5 181.5 q5.5 131.5 7.5 208.5 l-194 0 q-10 -89 -20 -139 l43 44 q31 -29 76 -80 q45 -51 67 -82 l-61 -66 q-21 31 -60 78 q-39 47 -71 81 q-27 -123 -84.5 -215.5 q-57.5 -92.5 -171.5 -205.5 l-62 58 l0 -54 l-86 0 l0 509 q-37 -63 -89 -133 l-57 74 q62 83 121.5 204.5 q59.5 121.5 92.5 237.5 l86 -19 q-31 -108 -68 -194 l0 -608 q94 92 144.5 162 q50.5 70 75.5 149.5 q25 79.5 35 198.5 l-211 0 l0 94 l217 0 l11 220 l91 -4 l-2 -34 q-3 -85 -10 -182 l281 0 ZM442 589 q-17 27 -54 73.5 q-37 46.5 -60 69.5 l58 51 q23 -21 58 -62 q35 -41 54 -68 l-56 -64 Z" /><glyph glyph-name="uni4F3C" unicode="&#x4f3c;" d="M327 781 q-31 -100 -71 -194 l0 -682 l-86 0 l0 506 q-39 -70 -87 -135 l-65 84 q64 84 125.5 205.5 q61.5 121.5 95.5 240.5 l88 -25 ZM615 517 q-26 55 -63.5 124 q-37.5 69 -62.5 105 l70 43 q27 -38 64 -101 q37 -63 61 -113 l-69 -58 ZM883 -86 q-21 38 -62 97.5 q-41 59.5 -81 112.5 q-39 -61 -98.5 -117.5 q-59.5 -56.5 -149.5 -119.5 l-59 77 q130 87 193 159 q63 72 89 166.5 q26 94.5 32 259.5 q2 60 3.5 121.5 q1.5 61.5 0.5 101.5 l88 -3 q1 -23 -1 -92.5 q-2 -69.5 -4 -129.5 q-2 -111 -14 -192 q-12 -81 -38 -145 q45 -55 94.5 -121 q49.5 -66 74.5 -108 l-68 -67 ZM647 266 q-12 -9 -79.5 -68.5 q-67.5 -59.5 -109.5 -98.5 q-13 -11 -37 -35 l-18 -17 l-62 69 q26 24 26 53 l0 547 l87 -3 l0 -498 l151 140 l42 -89 Z" /><glyph glyph-name="uni4F46" unicode="&#x4f46;" d="M334 779 q-37 -115 -79 -207 l0 -677 l-90 0 l0 508 q-42 -67 -93 -132 l-55 83 q64 85 125 204 q61 119 98 242 l94 -21 ZM376 748 l494 0 l0 -580 l-494 0 l0 580 ZM778 502 l0 158 l-311 0 l0 -158 l311 0 ZM467 414 l0 -157 l311 0 l0 157 l-311 0 ZM298 -61 l0 87 l642 0 l0 -87 l-642 0 Z" /><glyph glyph-name="uni4F4D" unicode="&#x4f4d;" d="M331 788 q-34 -108 -76 -205 l0 -673 l-89 0 l0 503 q-44 -71 -91 -132 l-63 75 q70 95 130.5 214 q60.5 119 94.5 239 l94 -21 ZM325 649 l251 0 q-22 76 -45 136 l90 17 q25 -64 52 -153 l236 0 l0 -90 l-584 0 l0 90 ZM933 30 l0 -85 l-637 0 l0 85 l324 0 q40 111 76.5 240.5 q36.5 129.5 63.5 251.5 l93 -26 q-65 -245 -142 -466 l222 0 ZM496 91 q-19 89 -51.5 202.5 q-32.5 113.5 -63.5 196.5 l84 24 q32 -84 63 -189 q31 -105 51 -197 l-83 -37 Z" /><glyph glyph-name="uni4F53" unicode="&#x4f53;" d="M673 551 q47 -120 119.5 -219 q72.5 -99 172.5 -186 l-63 -83 q-176 168 -269 400 l0 -312 l161 0 l0 -85 l-161 0 l0 -166 l-91 0 l0 166 l-154 0 l0 85 l154 0 l0 303 q-41 -107 -101.5 -202 q-60.5 -95 -146.5 -186 l-47 58 l0 -216 l-89 0 l0 486 q-46 -73 -81 -119 l-60 76 q68 95 125.5 213.5 q57.5 118.5 89.5 231.5 l91 -19 q-35 -119 -76 -211 l0 -409 q88 85 152.5 182 q64.5 97 107.5 212 l-201 0 l0 88 l236 0 l0 164 l91 -3 l0 -161 l270 0 l0 -88 l-230 0 Z" /><glyph glyph-name="uni4F55" unicode="&#x4f55;" d="M319 781 q-32 -114 -73 -208 l0 -672 l-89 0 l0 502 q-41 -66 -84 -122 l-63 69 q61 78 125 207.5 q64 129.5 96 245.5 l88 -22 ZM938 740 l0 -87 l-87 0 l0 -605 q0 -55 -12.5 -83.5 q-12.5 -28.5 -44.5 -41 q-32 -12.5 -96 -17.5 l-71 -5 l-30 92 l81 4 q34 2 50.5 8 q16.5 6 24 21.5 q7.5 15.5 7.5 47.5 l0 579 l-434 0 l0 87 l612 0 ZM348 532 l311 0 l0 -403 l-311 0 l0 403 ZM429 211 l148 0 l0 238 l-148 0 l0 -238 Z" /><glyph glyph-name="uni4F59" unicode="&#x4f59;" d="M894 235 l-348 0 l0 -202 q0 -48 -12 -72.5 q-12 -24.5 -40 -35 q-28 -10.5 -83 -15.5 l-66 -6 l-31 95 l65 5 q34 3 48.5 7.5 q14.5 4.5 19 16 q4.5 11.5 4.5 38.5 l0 169 l-362 0 l0 89 l362 0 l0 107 l-193 0 l0 72 q-79 -54 -173 -101 l-44 89 q140 65 236 140 q96 75 170 176 l87 0 q72 -99 170 -175 q98 -76 239 -142 l-46 -89 q-98 51 -168 100 l0 -70 l-183 0 l0 -107 l348 0 l0 -89 ZM281 519 l423 0 q-141 102 -213 204 q-76 -110 -210 -204 ZM340 152 q-68 -89 -230 -227 l-60 73 q56 40 119 101 q63 61 100 112 l71 -59 ZM686 210 q52 -33 123 -90.5 q71 -57.5 114 -101.5 l-52 -83 q-43 49 -115.5 110.5 q-72.5 61.5 -124.5 95.5 l55 69 Z" /><glyph glyph-name="uni4F5C" unicode="&#x4f5c;" d="M914 575 l-297 0 l0 -143 l246 0 l0 -91 l-246 0 l0 -145 l266 0 l0 -91 l-266 0 l0 -206 l-93 0 l0 676 l-37 0 q-63 -120 -146 -222 l-63 69 q132 163 208 386 l87 -30 q-18 -54 -44 -113 l385 0 l0 -90 ZM338 762 q-38 -111 -80 -199 l0 -659 l-94 0 l0 491 q-34 -51 -83 -112 l-62 77 q71 87 130 200.5 q59 113.5 97 231.5 l92 -30 Z" /><glyph glyph-name="uni4F60" unicode="&#x4f60;" d="M288 440 q54 76 102.5 175.5 q48.5 99.5 73.5 189.5 l92 -16 q-21 -64 -40 -110 l395 0 l0 -87 l-82 -163 l-86 31 l70 132 l-336 0 q-54 -112 -112 -201 l-77 49 ZM321 777 q-35 -111 -74 -198 l0 -673 l-89 0 l0 503 q-33 -56 -75 -115 l-62 68 q61 87 119.5 205 q58.5 118 87.5 230 l93 -20 ZM570 519 l89 -4 l0 -498 q0 -40 -10.5 -62 q-10.5 -22 -36 -32.5 q-25.5 -10.5 -73.5 -14.5 l-54 -5 l-30 91 l56 5 q37 4 48 13.5 q11 9.5 11 36.5 l0 470 ZM788 377 q40 -72 91 -180.5 q51 -108.5 71 -168.5 l-76 -49 q-27 77 -75.5 183.5 q-48.5 106.5 -87.5 178.5 l77 36 ZM498 353 q-26 -87 -69.5 -185.5 q-43.5 -98.5 -91.5 -180.5 l-83 34 q46 73 92 171.5 q46 98.5 72 183.5 l80 -23 Z" /><glyph glyph-name="uni4F7F" unicode="&#x4f7f;" d="M307 782 q-28 -107 -69 -209 l0 -675 l-87 0 l0 499 q-28 -48 -71 -112 l-64 66 q59 86 114.5 207.5 q55.5 121.5 89.5 244.5 l87 -21 ZM926 -98 q-119 17 -210.5 42 q-91.5 25 -163.5 62 q-39 -34 -101 -61.5 q-62 -27.5 -155 -55.5 l-43 86 q150 37 217 82 q-80 60 -133 142 l61 49 l-70 0 l0 272 l232 0 l0 86 l-258 0 l0 83 l258 0 l0 112 l88 -3 l0 -109 l267 0 l0 -83 l-267 0 l0 -86 l233 0 l0 -272 l-233 0 q-3 -111 -39 -175 q129 -57 343 -78 l-26 -93 ZM560 442 l-148 0 l0 -113 l148 0 l0 113 ZM794 329 l0 113 l-146 0 l0 -113 l146 0 ZM401 248 q54 -81 129 -131 q16 26 22.5 57.5 q6.5 31.5 7.5 73.5 l-159 0 Z" /><glyph glyph-name="uni4F8B" unicode="&#x4f8b;" d="M300 787 q-30 -110 -65 -200 l0 -685 l-80 0 l0 511 q-31 -56 -75 -125 l-61 71 q55 86 109 207.5 q54 121.5 84 236.5 l88 -16 ZM811 786 l82 -3 l0 -749 q0 -47 -12.5 -71.5 q-12.5 -24.5 -41.5 -35.5 q-29 -11 -87 -17 l-55 -5 l-27 86 l63 4 q34 3 50 8.5 q16 5.5 22 18 q6 12.5 6 38.5 l0 726 ZM308 669 l0 86 l327 0 l0 -86 l-161 0 q-11 -65 -27 -129 l161 0 l0 -93 q-24 -133 -57 -225 q-33 -92 -88 -171 q-55 -79 -146 -165 l-61 65 q88 79 142 160.5 q54 81.5 82 163 q28 81.5 45 179.5 l-103 0 q-22 -65 -32 -90 q55 -49 79 -79 l-43 -80 q-31 41 -72 77 q-23 -50 -51 -95 l-61 59 q48 86 88 201 q40 115 60 222 l-82 0 ZM658 682 l81 -4 l0 -554 l-81 0 l0 558 Z" /><glyph glyph-name="uni4F9B" unicode="&#x4f9b;" d="M322 789 q-32 -105 -75 -201 l0 -681 l-92 0 l0 512 q-36 -57 -86 -124 l-59 79 q65 84 126 202 q61 118 97 239 l89 -26 ZM782 536 l0 -237 l147 0 l0 -88 l-650 0 l0 88 l144 0 l0 237 l-104 0 l0 86 l104 0 l0 181 l91 -4 l0 -177 l178 0 l0 181 l90 -4 l0 -177 l115 0 l0 -86 l-115 0 ZM692 536 l-178 0 l0 -237 l178 0 l0 237 ZM274 -31 q52 38 113 99 q61 61 105 117 l68 -59 q-44 -53 -107 -116.5 q-63 -63.5 -117 -110.5 l-62 70 ZM708 183 q42 -37 102.5 -99.5 q60.5 -62.5 102.5 -110.5 l-59 -74 q-35 46 -97 111 q-62 65 -110 111 l61 62 Z" /><glyph glyph-name="uni4F9D" unicode="&#x4f9d;" d="M948 36 l-66 -80 q-88 65 -147.5 134.5 q-59.5 69.5 -101 158 q-41.5 88.5 -72.5 210.5 q-26 -47 -64 -99 l0 -319 l141 75 l20 -92 q-12 -6 -67 -33 q-80 -38 -124 -60 q-20 -10 -52 -28 l-42 75 q21 12 28 25.5 q7 13.5 7 34.5 l0 216 q-56 -57 -118 -108 l-49 65 l0 -300 l-89 0 l0 493 q-31 -51 -78 -117 l-61 75 q64 85 122 203.5 q58 118.5 93 240.5 l89 -19 q-35 -113 -76 -209 l0 -348 q101 79 169 164 q68 85 116 190 l-215 0 l0 89 l246 0 q-19 68 -37 118 l89 17 q25 -72 44 -135 l255 0 l0 -89 l-286 0 q-1 -1 -1 -2.5 q0 -1.5 -1 -2.5 q23 -127 61 -219 q75 58 148 137 l57 -70 q-71 -74 -168 -146 q79 -145 230 -245 Z" /><glyph glyph-name="uni4FBF" unicode="&#x4fbf;" d="M317 779 q-27 -104 -73 -211 l0 -670 l-87 0 l0 498 q-40 -67 -79 -120 l-65 73 q67 89 125 210 q58 121 91 241 l88 -21 ZM923 -90 q-128 14 -217.5 34 q-89.5 20 -157.5 55 q-39 -30 -100.5 -55 q-61.5 -25 -158.5 -53 l-36 83 q80 19 131 36 q51 17 84 38 q-62 47 -114 118 l52 41 l-68 0 l0 388 l221 0 l0 82 l-233 0 l0 86 l590 0 l0 -86 l-271 0 l0 -82 l229 0 l0 -388 l-232 0 q-6 -91 -37 -144 q57 -24 139 -39.5 q82 -15.5 202 -23.5 l-23 -90 ZM559 442 l0 75 l-135 0 l0 -75 l135 0 ZM788 442 l0 75 l-143 0 l0 -75 l143 0 ZM559 362 l-135 0 l0 -76 l135 0 l0 13 l0 63 ZM645 286 l143 0 l0 76 l-143 0 l0 -73 l0 -3 ZM425 207 q52 -65 102 -101 q22 37 28 101 l-130 0 Z" /><glyph glyph-name="uni4FC3" unicode="&#x4fc3;" d="M805 16 q80 0 144 4 l-17 -86 q-66 -3 -133 -3 q-39 0 -117 2 q-94 4 -154 36 q-60 32 -99 105 q-35 -87 -104 -171 l-68 42 l0 -42 l-91 0 l0 501 q-33 -55 -83 -122 l-64 68 q64 85 127.5 211 q63.5 126 94.5 237 l87 -22 q-29 -99 -71 -197 l0 -616 q70 86 97.5 170.5 q27.5 84.5 36.5 223.5 l90 -8 q-6 -86 -18 -154 q20 -67 50.5 -104.5 q30.5 -37.5 72.5 -54.5 l0 383 l-209 0 l0 341 l493 0 l0 -341 l-193 0 l0 -143 l226 0 l0 -85 l-226 0 l0 -172 l2 0 q63 -3 126 -3 ZM778 671 l-309 0 l0 -164 l309 0 l0 164 Z" /><glyph glyph-name="uni4FDD" unicode="&#x4fdd;" d="M326 776 q-34 -113 -76 -207 l0 -668 l-87 0 l0 500 q-39 -65 -79 -116 l-64 72 q64 86 125.5 208.5 q61.5 122.5 90.5 231.5 l90 -21 ZM367 759 l488 0 l0 -324 l-488 0 l0 324 ZM459 520 l305 0 l0 154 l-305 0 l0 -154 ZM675 254 q95 -124 283 -220 l-50 -83 q-158 97 -258 225 l0 -272 l-86 0 l0 269 q-45 -65 -105 -119 q-60 -54 -150 -110 l-54 79 q98 51 164.5 106 q66.5 55 114.5 125 l-229 0 l0 81 l259 0 l0 76 l86 -4 l0 -72 l267 0 l0 -81 l-242 0 Z" /><glyph glyph-name="uni4FE1" unicode="&#x4fe1;" d="M318 779 q-28 -100 -70 -198 l0 -678 l-89 0 l0 503 q-30 -50 -74 -114 l-67 69 q67 94 126.5 216 q59.5 122 87.5 226 l86 -24 ZM937 696 l0 -84 l-631 0 l0 84 l263 0 l-30 89 l93 15 q20 -52 36 -104 l269 0 ZM359 539 l498 0 l0 -77 l-498 0 l0 77 ZM857 313 l-498 0 l0 79 l498 0 l0 -79 ZM444 -96 l-91 0 l0 338 l510 0 l0 -338 l-92 0 l0 52 l-327 0 l0 -52 ZM771 34 l0 127 l-327 0 l0 -127 l327 0 Z" /><glyph glyph-name="uni4FEE" unicode="&#x4fee;" d="M953 421 l-28 -82 q-168 47 -267 108 q-107 -65 -268 -116 l-25 59 l0 -322 l-76 0 l0 599 l76 -4 l0 -98 q56 51 105 118 q49 67 80 133 l76 -32 q-8 -17 -26 -51 l272 0 l0 -72 q-55 -94 -140 -162 q92 -47 221 -78 ZM298 784 q-32 -119 -76 -226 l0 -657 l-80 0 l0 490 q-28 -50 -63 -106 l-65 62 q58 88 117.5 217.5 q59.5 129.5 86.5 237.5 l80 -18 ZM556 659 q-2 -2 -3.5 -5 q-1.5 -3 -4.5 -6 q44 -60 110 -106 q69 49 114 117 l-216 0 ZM365 411 q137 43 220 87 q-52 44 -85 87 q-43 -51 -92 -94 l-43 58 l0 -138 ZM761 342 q-69 -47 -150.5 -87 q-81.5 -40 -164.5 -69 l-34 75 q81 26 163 65 q82 39 149 84 l37 -68 ZM395 112 q112 35 215 84 q103 49 188 108 l41 -61 q-80 -61 -186 -112.5 q-106 -51.5 -225 -88.5 l-33 70 ZM352 -34 q153 38 287 97.5 q134 59.5 239 136.5 l42 -61 q-189 -154 -535 -244 l-33 71 Z" /><glyph glyph-name="uni5012" unicode="&#x5012;" d="M272 779 q-32 -117 -63 -195 l0 -686 l-80 0 l0 513 q-24 -46 -57 -100 l-61 66 q52 82 99 195.5 q47 113.5 73 225.5 l89 -19 ZM805 782 l81 -4 l0 -752 q0 -47 -10.5 -70.5 q-10.5 -23.5 -37 -34.5 q-26.5 -11 -82.5 -17 l-54 -5 l-27 85 l57 5 q44 4 58.5 15 q14.5 11 14.5 46 l0 732 ZM639 47 l2 -45 l-165 -18 q-56 -6 -120 -13 q-64 -7 -113 -12 l-10 87 q31 0 168 13 l0 128 l-134 0 l0 85 l134 0 l0 116 l-44 -3 q-30 -2 -87 -9 l-21 76 q20 13 26 23 q15 19 42.5 70.5 q27.5 51.5 50.5 101.5 l-100 0 l0 86 l350 0 l0 -86 l-165 0 q-60 -132 -92 -181 l158 11 q-28 58 -54 101 l66 32 q23 -37 55.5 -103 q32.5 -66 51.5 -112 l-64 -42 q-8 23 -19 46 l-73 -5 l0 -122 l120 0 l0 -85 l-120 0 l0 -120 l25 3 q28 3 72 8 q44 5 58 8 l2 -39 ZM656 676 l76 -3 l0 -552 l-76 0 l0 555 Z" /><glyph glyph-name="uni5019" unicode="&#x5019;" d="M297 783 q-31 -112 -74 -218 l0 -661 l-79 0 l0 491 q-34 -66 -64 -113 l-60 70 q53 84 110 214 q57 130 85 238 l82 -21 ZM816 582 l112 0 l0 -76 l-525 0 l0 76 l327 0 l8 98 l-281 0 l0 79 l373 0 l-14 -177 ZM293 689 l79 -4 l0 -633 l-79 0 l0 637 ZM708 166 q57 -130 240 -186 l-49 -77 q-169 69 -238 179 q-31 -55 -94 -98 q-63 -43 -169 -86 l-50 74 q113 40 174 87.5 q61 47.5 80 106.5 l-202 0 l0 77 l213 0 l0 98 l-95 0 q-21 -40 -52 -87 l-67 43 q31 42 53.5 89.5 q22.5 47.5 44.5 109.5 l75 -22 q-16 -46 -20 -56 l325 0 l0 -77 l-173 0 q-2 -82 -4 -98 l215 0 l0 -77 l-207 0 Z" /><glyph glyph-name="uni5021" unicode="&#x5021;" d="M332 779 q-32 -102 -78 -200 l0 -677 l-88 0 l0 512 q-44 -73 -83 -130 l-63 76 q63 79 126 204.5 q63 125.5 94 236.5 l92 -22 ZM379 755 l464 0 l0 -357 l-464 0 l0 357 ZM755 615 l0 65 l-289 0 l0 -65 l289 0 ZM466 544 l0 -71 l289 0 l0 71 l-289 0 ZM343 -96 l0 424 l539 0 l0 -423 l-87 0 l0 42 l-365 0 l0 -43 l-87 0 ZM795 174 l0 77 l-365 0 l0 -77 l365 0 ZM430 101 l0 -81 l365 0 l0 81 l-365 0 Z" /><glyph glyph-name="uni503C" unicode="&#x503c;" d="M300 788 q-26 -97 -65 -198 l0 -682 l-87 0 l0 497 q-38 -68 -71 -117 l-58 80 q60 88 109.5 203 q49.5 115 78.5 236 l93 -19 ZM851 570 l0 -554 l88 0 l0 -77 l-669 0 l0 77 l84 0 l0 554 l199 0 l0 77 l-235 0 l0 80 l235 0 l0 78 l92 -4 l0 -74 l258 0 l0 -80 l-258 0 l0 -77 l206 0 ZM760 428 l0 65 l-316 0 l0 -65 l316 0 ZM444 293 l316 0 l0 65 l-316 0 l0 -65 ZM760 156 l0 67 l-316 0 l0 -67 l316 0 ZM760 87 l-316 0 l0 -71 l316 0 l0 71 Z" /><glyph glyph-name="uni5047" unicode="&#x5047;" d="M293 781 q-28 -101 -61 -193 l0 -687 l-84 0 l0 504 q-26 -46 -65 -105 l-59 68 q58 80 104.5 191 q46.5 111 78.5 236 l86 -14 ZM578 181 l0 -83 l-183 0 l0 -191 l-81 0 l0 856 l263 0 l0 -290 l-182 0 l0 -102 l166 0 l0 -82 l-166 0 l0 -108 l183 0 ZM618 762 l260 0 l0 -287 l-261 0 l0 85 l178 0 l0 118 l-177 0 l0 84 ZM498 556 l0 123 l-103 0 l0 -123 l103 0 ZM953 -11 l-47 -87 q-107 66 -170 135 q-74 -71 -194 -134 l-48 77 q121 60 191 124 q-52 80 -83 206 l-19 0 l0 81 l307 0 l0 -83 q-34 -124 -98 -209 q58 -57 161 -110 ZM683 310 q23 -88 57 -145 q44 59 69 145 l-126 0 Z" /><glyph glyph-name="uni505A" unicode="&#x505a;" d="M959 -29 l-58 -76 q-106 97 -169 197 q-67 -97 -181 -199 l-60 70 l44 37 l-250 0 l0 381 l93 0 l0 166 l-119 0 l0 84 l119 0 l0 171 l83 -4 l0 -167 l114 0 l0 -84 l-114 0 l0 -166 l87 0 l0 -369 q90 82 139 162 q-48 99 -71 237 q-15 -29 -33 -54 l-50 79 q45 65 79.5 168 q34.5 103 51.5 206 l81 -14 q-13 -80 -34 -150 l222 0 l0 -87 l-63 0 q-11 -126 -31.5 -216.5 q-20.5 -90.5 -58.5 -166.5 q68 -110 179 -205 ZM271 782 q-20 -88 -53 -177 l0 -702 l-84 0 l0 511 q-24 -47 -62 -109 l-51 94 q46 72 94 185.5 q48 113.5 71 219.5 l85 -22 ZM733 267 q44 112 61 292 l-111 0 q-8 -22 -13 -33 q15 -146 63 -259 ZM361 83 l110 0 l0 213 l-110 0 l0 -213 Z" /><glyph glyph-name="uni505C" unicode="&#x505c;" d="M916 714 l0 -73 l-597 0 l0 73 l247 0 q-7 22 -27 80 l90 14 q16 -42 33 -94 l254 0 ZM312 789 q-36 -125 -72 -214 l0 -666 l-83 0 l0 497 q-39 -66 -77 -116 l-61 74 q62 83 115 198 q53 115 89 243 l89 -16 ZM366 404 l0 184 l477 0 l0 -184 l-477 0 ZM452 466 l305 0 l0 60 l-305 0 l0 -60 ZM379 179 l-85 0 l0 177 l622 0 l0 -178 l-87 0 l0 106 l-450 0 l0 -105 ZM400 139 l0 75 l408 0 l0 -75 l-148 0 l0 -124 q0 -40 -11 -61 q-11 -21 -38.5 -31 q-27.5 -10 -82.5 -14 l-61 -4 l-27 84 l69 4 q28 2 40 5.5 q12 3.5 16.5 12.5 q4.5 9 4.5 28 l0 100 l-170 0 Z" /><glyph glyph-name="uni5065" unicode="&#x5065;" d="M501 444 l123 0 l0 67 l-149 0 l0 71 l149 0 l0 68 l-122 0 l0 69 l122 0 l0 82 l79 -3 l0 -79 l171 0 l0 -137 l57 0 l0 -71 l-57 0 l0 -134 l-171 0 l0 -71 l180 0 l0 -67 l-180 0 l0 -62 l207 0 l0 -68 l-207 0 l0 -86 l-79 0 l0 86 l-165 0 l0 68 l165 0 l0 62 l-125 0 l0 67 l125 0 l0 71 l-123 0 l0 67 ZM261 778 q-18 -83 -49 -177 l0 -694 l-79 0 l0 500 q-24 -51 -61 -114 l-61 68 q51 83 98.5 203 q47.5 120 70.5 230 l81 -16 ZM730 -1 q68 0 206 6 l-14 -75 q-114 -4 -168 -4 q-65 0 -131 3 q-85 4 -146.5 25.5 q-61.5 21.5 -108.5 70.5 q-34 -57 -87 -127 l-67 56 q65 77 102 142 q-46 78 -77 212 l68 22 q22 -91 48 -147 q27 79 36 202 l-141 0 l0 76 l129 197 l-116 0 l0 76 l207 0 l0 -77 l-126 -196 l123 0 l0 -79 q-11 -100 -24.5 -163 q-13.5 -63 -37.5 -119 q78 -93 226 -99 q66 -2 99 -2 ZM796 650 l-93 0 l0 -68 l93 0 l0 68 ZM703 444 l93 0 l0 67 l-93 0 l0 -67 Z" /><glyph glyph-name="uni50A8" unicode="&#x50a8;" d="M304 785 q-28 -110 -69 -211 l0 -670 l-80 0 l0 499 q-32 -58 -76 -122 l-48 96 q53 72 106 193.5 q53 121.5 80 233.5 l87 -19 ZM760 430 q-33 -41 -81 -86 l189 0 l0 -436 l-76 0 l0 45 l-180 0 l0 -45 l-75 0 l0 324 l-63 -41 l-41 73 q128 71 221 166 l-196 0 l0 77 l149 0 l0 111 l-110 0 l0 77 l110 0 l0 109 l80 -4 l0 -105 l104 0 l0 -77 q32 62 56 128 l77 -29 q-52 -126 -107 -210 l120 0 l0 -77 l-177 0 ZM404 565 q-14 32 -43.5 84.5 q-29.5 52.5 -53.5 92.5 l65 41 q24 -34 55 -85 q31 -51 45 -82 l-68 -51 ZM687 507 l33 0 q41 55 71 111 l-104 0 l0 -111 ZM418 98 l73 63 l25 -87 l-48 -41 l-77 -65 q-30 -27 -30 -27 l-53 69 q16 12 22 26 q6 14 6 34 l0 355 l-77 0 l0 86 l159 0 l0 -413 ZM612 186 l180 0 l0 84 l-180 0 l0 -84 ZM612 114 l0 -89 l180 0 l0 89 l-180 0 Z" /><glyph glyph-name="uni50BB" unicode="&#x50bb;" d="M523 349 q-47 -33 -112 -70.5 q-65 -37.5 -122 -64.5 l-38 70 q90 38 201 108 l-113 0 l0 340 l174 0 q23 53 32 86 l89 -19 q-4 -11 -27 -67 l268 0 l0 -340 l-122 0 q48 -20 100 -47 q52 -27 83 -48 l-22 -71 q-44 29 -117.5 65.5 q-73.5 36.5 -124.5 55.5 l27 45 l-203 0 l27 -43 ZM316 779 q-34 -114 -76 -211 l0 -667 l-85 0 l0 500 q-39 -66 -70 -109 l-65 64 q60 84 120.5 207.5 q60.5 123.5 89.5 233.5 l86 -18 ZM421 658 l0 -192 l43 0 l-24 49 q47 18 111 48 q-57 28 -96 44 l29 51 l-63 0 ZM727 658 l-228 0 q46 -20 125 -59 q55 28 103 59 ZM794 466 l0 192 l-63 0 l30 -50 q-34 -22 -73 -43 q47 -25 81 -46 l-22 -53 l47 0 ZM729 466 q-37 24 -110 62 q-70 -35 -132 -62 l242 0 ZM916 -102 q-184 41 -306 102 q-115 -57 -321 -108 l-32 77 q154 28 270 81 q-45 31 -91 78 q-61 -54 -124 -96 l-44 73 q68 44 138.5 108.5 q70.5 64.5 103.5 114.5 l62 -42 q-14 -22 -16 -25 l286 0 l0 -65 q-64 -89 -148 -147 q113 -50 253 -70 l-31 -81 ZM497 188 q45 -53 113 -95 q72 43 116 95 l-229 0 Z" /><glyph glyph-name="uni50CF" unicode="&#x50cf;" d="M952 11 l-56 -63 q-67 58 -111 118 q-44 60 -76 146 q-32 -18 -40 -22 q15 -56 15 -134 q0 -55 -13 -84.5 q-13 -29.5 -42.5 -42.5 q-29.5 -13 -84.5 -18 l-54 -4 l-25 76 l61 5 q32 2 48 9.5 q16 7.5 23 26.5 q7 19 7 56 q0 14 -2 40 q-119 -111 -321 -195 l-35 73 q218 73 342 193 q-4 17 -12 34 q-60 -48 -129 -85.5 q-69 -37.5 -158 -75.5 l-31 69 q184 68 287 148 q-9 15 -18 26 q-39 -26 -94 -49 q-55 -23 -140 -51 l-30 71 q97 28 155.5 53 q58.5 25 93.5 57 l-169 0 l0 145 l-42 -30 l-39 76 q69 46 128.5 108.5 q59.5 62.5 100.5 129.5 l80 -29 q-18 -32 -28 -47 l247 0 l0 -68 l-70 -75 l155 0 l0 -210 l-269 0 q-11 -17 -22 -31 q39 -51 59 -96 q46 25 100 59 q54 34 92 63 l43 -68 q-43 -30 -109 -69 q30 -74 73 -128 q43 -54 110 -107 ZM306 781 q-25 -95 -67 -197 l0 -681 l-84 0 l0 505 q-37 -67 -85 -134 l-50 88 q58 81 111.5 199.5 q53.5 118.5 85.5 239.5 l89 -20 ZM492 671 q-33 -39 -70 -73 l199 0 l70 73 l-199 0 ZM423 535 l0 -82 l135 0 q14 35 19 82 l-154 0 ZM796 453 l0 82 l-148 0 q-3 -44 -14 -82 l162 0 Z" /><glyph glyph-name="uni5141" unicode="&#x5141;" d="M933 160 q-4 -78 -10 -115 q-7 -47 -21.5 -71.5 q-14.5 -24.5 -43.5 -36 q-29 -11.5 -81 -13.5 q-36 -2 -54 -2 q-19 0 -55 2 q-72 2 -104 32.5 q-32 30.5 -32 106.5 l0 336 l-142 -6 q0 -47 -1 -63 q-3 -114 -29 -186.5 q-26 -72.5 -82.5 -129.5 q-56.5 -57 -165.5 -130 l-73 82 q99 55 150.5 102.5 q51.5 47.5 74 107 q22.5 59.5 27.5 154.5 q2 30 2 59 l-94 -5 q-48 -3 -94 -8 l-30 98 q27 7 41.5 14.5 q14.5 7.5 32.5 23.5 q63 51 140.5 141 q77.5 90 137.5 179 l87 -53 q-63 -86 -135 -169.5 q-72 -83.5 -129 -131.5 l456 16 q-75 86 -132 140 l64 61 q54 -51 130.5 -134.5 q76.5 -83.5 124.5 -143.5 l-64 -71 q-19 26 -49 61 l-151 -5 l0 -317 q0 -39 14 -52 q14 -13 53 -15 l31 -1 l30 1 q30 2 44 8 q14 6 20.5 19 q6.5 13 10.5 41 q7 46 8 105 l93 -31 Z" /><glyph glyph-name="uni5143" unicode="&#x5143;" d="M155 751 l666 0 l0 -93 l-666 0 l0 93 ZM931 159 q-4 -68 -11 -109 q-7 -46 -21 -70 q-14 -24 -42.5 -35.5 q-28.5 -11.5 -80.5 -15.5 q-13 -1 -39 -1 q-23 0 -65 2 q-49 3 -77 16 q-28 13 -41 42 q-13 29 -13 80 l0 330 l-152 0 q0 -78 -1 -96 q-5 -92 -31.5 -159.5 q-26.5 -67.5 -84.5 -127.5 q-58 -60 -162 -127 l-66 82 q96 53 147 101 q51 48 72 101 q21 53 26 130 q3 27 3 96 l-215 0 l0 91 l826 0 l0 -91 l-267 0 l0 -308 q0 -39 12.5 -52.5 q12.5 -13.5 49.5 -15.5 l31 -1 l31 1 q27 1 41 8 q14 7 20 20.5 q6 13.5 10 40.5 q7 48 8 98 l92 -30 Z" /><glyph glyph-name="uni5145" unicode="&#x5145;" d="M926 127 q-2 -60 -10 -105 q-8 -53 -39 -76.5 q-31 -23.5 -107 -27.5 q-38 -2 -57 -2 q-20 0 -58 2 q-47 2 -74 13 q-27 11 -39.5 36.5 q-12.5 25.5 -12.5 73.5 l0 278 l-120 -5 l-3 -40 q-5 -100 -38 -168 q-33 -68 -97 -119.5 q-64 -51.5 -177 -107.5 l-56 87 q99 44 154.5 84.5 q55.5 40.5 83 93.5 q27.5 53 35.5 133 l3 32 l-81 -4 q-54 -3 -100 -7 l-22 90 q15 3 31.5 11 q16.5 8 27.5 16 q70 60 174 184 l-274 0 l0 91 l380 0 q-14 48 -35 102 l92 18 q19 -50 42 -120 l347 0 l0 -91 l-432 0 q-48 -58 -98 -112.5 q-50 -54.5 -87 -88.5 l401 15 q-64 73 -106 114 l69 53 q46 -45 111 -117.5 q65 -72.5 109 -128.5 l-63 -70 q-23 34 -48 64 l-129 -5 l0 -261 q0 -32 13 -42.5 q13 -10.5 52 -12.5 q12 -1 36 -1 q24 0 36 1 q27 2 40.5 6.5 q13.5 4.5 19.5 13.5 q6 9 10 28 q7 47 9 98 l87 -26 Z" /><glyph glyph-name="uni5148" unicode="&#x5148;" d="M936 131 q-4 -61 -13 -106 q-7 -41 -20.5 -62 q-13.5 -21 -41 -30.5 q-27.5 -9.5 -80.5 -11.5 q-16 -1 -53 -1 q-36 0 -53 1 q-48 2 -74 13 q-26 11 -37.5 36.5 q-11.5 25.5 -11.5 73.5 l0 266 l-135 0 l-2 -18 q-7 -107 -37.5 -176.5 q-30.5 -69.5 -91 -122 q-60.5 -52.5 -170.5 -110.5 l-58 91 q99 44 152.5 84.5 q53.5 40.5 78 95 q24.5 54.5 29.5 139.5 l1 17 l-260 0 l0 87 l398 0 l0 168 l-196 0 q-34 -79 -73 -144 l-84 44 q76 111 135 311 l91 -20 q-12 -40 -34 -104 l161 0 l0 155 l91 -4 l0 -151 l324 0 l0 -87 l-324 0 l0 -168 l370 0 l0 -87 l-273 0 l0 -235 q0 -35 13.5 -47.5 q13.5 -12.5 49.5 -15.5 l30 -1 l30 1 q41 3 54 14 q13 11 19 39 q6 37 8 94 l87 -28 Z" /><glyph glyph-name="uni5149" unicode="&#x5149;" d="M930 141 l-2 -26 q-4 -56 -9 -85 q-7 -43 -21.5 -65 q-14.5 -22 -42.5 -32 q-28 -10 -81 -13 q-38 -2 -56 -2 q-19 0 -57 2 q-48 3 -75 14.5 q-27 11.5 -39 39 q-12 27.5 -12 77.5 l0 293 l-138 0 l-1 -18 q-7 -114 -35.5 -189 q-28.5 -75 -89 -132 q-60.5 -57 -169.5 -114 l-71 83 q104 50 159 93.5 q55 43.5 80.5 103.5 q25.5 60 28.5 157 l1 16 l-233 0 l0 91 l371 0 l0 366 l95 -4 l0 -362 l377 0 l0 -91 l-280 0 l0 -264 q0 -34 13.5 -45.5 q13.5 -11.5 51.5 -14.5 q11 -1 33 -1 q23 0 34 1 q29 3 42.5 7.5 q13.5 4.5 19.5 14.5 q6 10 9 30 q7 43 8 95 l89 -26 ZM852 693 q-31 -52 -77.5 -117 q-46.5 -65 -89.5 -115 l-74 59 q39 43 86.5 109.5 q47.5 66.5 77.5 118.5 l77 -55 ZM289 462 q-27 48 -78 117.5 q-51 69.5 -88 109.5 l72 55 q36 -38 87.5 -105 q51.5 -67 78.5 -112 l-72 -65 Z" /><glyph glyph-name="uni514D" unicode="&#x514d;" d="M923 121 q-4 -57 -12 -102 q-6 -36 -18 -55 q-12 -19 -37 -28.5 q-25 -9.5 -72 -12.5 q-45 -3 -87 -3 q-43 0 -88 3 q-46 3 -71 13 q-25 10 -36.5 33 q-11.5 23 -11.5 67 l0 165 q-41 -102 -131.5 -172.5 q-90.5 -70.5 -259.5 -137.5 l-51 88 q153 53 234 109.5 q81 56.5 118 138.5 l-249 0 l0 237 q-28 -22 -60 -45 l-43 79 q90 65 166 147 q76 82 128 169 l81 -38 q-17 -29 -34 -52 l351 0 l0 -79 l-104 -105 l203 0 l0 -313 l-263 0 l0 -162 q0 -22 5.5 -33 q5.5 -11 17.5 -15 q12 -4 38 -7 q33 -3 64 -3 q28 0 58 3 q29 3 42 8 q13 5 18 14.5 q5 9.5 9 31.5 q7 37 9 86 l86 -29 ZM330 643 q-46 -59 -93 -103 l283 0 l101 103 l-291 0 ZM239 306 l187 0 q14 56 19 152 l-206 0 l0 -152 ZM751 306 l0 152 l-214 0 q-5 -92 -17 -152 l231 0 Z" /><glyph glyph-name="uni515A" unicode="&#x515a;" d="M174 550 l0 -133 l-89 0 l0 220 l189 0 q-45 59 -89 104 l66 50 q24 -24 56 -60.5 q32 -36.5 50 -60.5 l-32 -33 l119 0 l0 172 l89 -4 l0 -168 l115 0 l-30 27 q28 25 60.5 61.5 q32.5 36.5 54.5 65.5 l68 -50 q-33 -46 -91 -104 l182 0 l0 -220 l-87 0 l0 133 l-631 0 ZM922 101 q-3 -55 -12 -99 q-7 -35 -18.5 -53.5 q-11.5 -18.5 -37 -27 q-25.5 -8.5 -73.5 -10.5 q-40 -2 -64 -2 q-22 0 -64 2 q-63 3 -90 26.5 q-27 23.5 -27 81.5 l0 157 l-125 0 q-7 -80 -45 -134 q-38 -54 -101 -90 q-63 -36 -161 -69 l-41 90 q83 20 133 41.5 q50 21.5 82.5 60 q32.5 38.5 40.5 101.5 l-104 0 l0 289 l551 0 l0 -289 l-141 0 l0 -126 q0 -30 12.5 -40 q12.5 -10 50.5 -12 q24 -2 37 -2 q14 0 36 2 q38 3 50 11.5 q12 8.5 17 32.5 q6 27 10 88 l84 -29 ZM678 386 l-374 0 l0 -130 l374 0 l0 130 Z" /><glyph glyph-name="uni5165" unicode="&#x5165;" d="M942 -10 l-72 -84 q-103 87 -170.5 163.5 q-67.5 76.5 -115.5 166.5 q-48 90 -87 213 q-90 -303 -392 -541 l-71 80 q180 131 279.5 284 q99.5 153 130.5 318 q-31 53 -78 88 l-56 38 l50 72 l53 -33 q53 -36 88 -82 q35 -46 57 -119 q33 -125 82 -220.5 q49 -95.5 121.5 -177 q72.5 -81.5 180.5 -166.5 Z" /><glyph glyph-name="uni5168" unicode="&#x5168;" d="M789 390 l-253 0 l0 -130 l278 0 l0 -87 l-278 0 l0 -158 l364 0 l0 -83 l-820 0 l0 83 l359 0 l0 158 l-272 0 l0 87 l272 0 l0 130 l-247 0 l0 53 q-50 -32 -117 -67 l-45 88 q153 76 255 157 q102 81 166 180 l79 0 q123 -193 420 -339 l-46 -84 q-67 35 -115 65 l0 -53 ZM246 478 l490 0 q-162 110 -245 229 q-83 -120 -245 -229 Z" /><glyph glyph-name="uni516C" unicode="&#x516c;" d="M629 799 q56 -151 129 -249 q73 -98 193 -179 l-65 -84 q-123 94 -205 207 q-82 113 -138 272 l86 33 ZM438 757 q-114 -275 -343 -469 l-65 77 q111 89 191.5 196.5 q80.5 107.5 125.5 225.5 l91 -30 ZM632 294 q54 -76 113 -171.5 q59 -95.5 98 -170.5 l-79 -61 q-23 49 -45 88 q-104 -5 -247.5 -14 q-143.5 -9 -225.5 -18 q-29 -3 -87 -12 l-28 90 q29 6 42 13.5 q13 7.5 27 24.5 q54 63 119.5 179.5 q65.5 116.5 113.5 232.5 l94 -37 q-48 -110 -110.5 -221.5 q-62.5 -111.5 -115.5 -178.5 l370 25 q-67 112 -116 181 l77 50 Z" /><glyph glyph-name="uni5171" unicode="&#x5171;" d="M701 542 l0 -230 l221 0 l0 -91 l-875 0 l0 91 l219 0 l0 230 l-181 0 l0 90 l181 0 l0 177 l98 -4 l0 -173 l240 0 l0 177 l97 -4 l0 -173 l184 0 l0 -90 l-184 0 ZM604 542 l-240 0 l0 -230 l240 0 l0 230 ZM54 -19 q65 34 152.5 97 q87.5 63 147.5 117 l61 -74 q-54 -48 -143 -112.5 q-89 -64.5 -161 -110.5 l-57 83 ZM616 195 q65 -41 150.5 -101 q85.5 -60 137.5 -103 l-50 -92 q-55 50 -142.5 114.5 q-87.5 64.5 -154.5 105.5 l59 76 Z" /><glyph glyph-name="uni5173" unicode="&#x5173;" d="M540 279 q80 -201 388 -284 l-47 -95 q-136 41 -238.5 113 q-102.5 72 -157.5 172 q-97 -168 -391 -287 l-50 92 q176 66 265 138 q89 72 115 151 l-350 0 l0 91 l363 0 l0 160 l-316 0 l0 89 l196 0 q-62 95 -103 143 l76 49 q51 -61 115 -157 l-42 -35 l175 0 q36 46 75.5 103 q39.5 57 62.5 97 l85 -47 q-47 -75 -108 -153 l192 0 l0 -89 l-309 0 l-1 -160 l360 0 l0 -91 l-355 0 Z" /><glyph glyph-name="uni5174" unicode="&#x5174;" d="M479 786 q21 -57 48.5 -157.5 q27.5 -100.5 41.5 -171.5 l-90 -33 q-11 66 -39 171 q-28 105 -51 168 l90 23 ZM630 434 q41 66 86 158.5 q45 92.5 68 161.5 l85 -40 q-27 -70 -74 -166 q-47 -96 -86 -160 l-79 46 ZM196 747 q35 -59 81 -149.5 q46 -90.5 73 -155.5 l-82 -52 q-27 69 -75 166 q-48 97 -81 148 l84 43 ZM47 272 l0 91 l885 0 l0 -91 l-885 0 ZM67 -22 q65 45 142 116 q77 71 133 139 l69 -71 q-53 -61 -131 -135 q-78 -74 -147 -130 l-66 81 ZM627 232 q58 -45 140 -118 q82 -73 132 -126 l-64 -88 q-57 64 -137 139 q-80 75 -139 120 l68 73 Z" /><glyph glyph-name="uni5176" unicode="&#x5176;" d="M763 624 l0 -413 l169 0 l0 -81 l-884 0 l0 81 l169 0 l0 413 l-137 0 l0 80 l137 0 l0 97 l91 -3 l0 -94 l363 0 l0 97 l92 -3 l0 -94 l136 0 l0 -80 l-136 0 ZM671 539 l0 85 l-363 0 l0 -85 l363 0 ZM671 459 l-363 0 l0 -83 l363 0 l0 83 ZM671 294 l-363 0 l0 -83 l363 0 l0 83 ZM68 -32 q67 24 152.5 66 q85.5 42 150.5 84 l40 -78 q-65 -40 -152.5 -84 q-87.5 -44 -153.5 -71 l-37 83 ZM598 115 q62 -24 156.5 -68.5 q94.5 -44.5 147.5 -73.5 l-34 -85 q-58 36 -149 80 q-91 44 -157 68 l36 79 Z" /><glyph glyph-name="uni5177" unicode="&#x5177;" d="M791 199 l146 0 l0 -80 l-565 0 l44 -71 q-61 -37 -153 -82 q-92 -45 -171 -77 l-34 82 q75 27 160 68 q85 41 145 80 l-320 0 l0 80 l145 0 l0 565 l603 0 l0 -565 ZM700 622 l0 65 l-422 0 l0 -65 l422 0 ZM278 481 l422 0 l0 66 l-422 0 l0 -66 ZM700 341 l0 66 l-422 0 l0 -66 l422 0 ZM700 266 l-422 0 l0 -67 l422 0 l0 67 ZM593 117 q64 -23 162 -64 q98 -41 153 -68 l-35 -88 q-57 33 -151 75 q-94 42 -164 68 l35 77 Z" /><glyph glyph-name="uni5178" unicode="&#x5178;" d="M843 688 l0 -462 l97 0 l0 -87 l-898 0 l0 87 l100 0 l0 462 l204 0 l0 107 l89 -4 l0 -103 l113 0 l0 107 l86 -4 l0 -103 l209 0 ZM346 458 l0 144 l-114 0 l0 -144 l114 0 ZM548 458 l0 144 l-113 0 l0 -144 l113 0 ZM753 458 l0 144 l-119 0 l0 -144 l119 0 ZM346 373 l-114 0 l0 -147 l114 0 l0 147 ZM435 226 l113 0 l0 147 l-113 0 l0 -147 ZM753 373 l-119 0 l0 -147 l119 0 l0 147 ZM59 -36 q79 31 166.5 74 q87.5 43 151.5 84 l43 -80 q-66 -39 -157 -84.5 q-91 -45.5 -166 -76.5 l-38 83 ZM593 119 q62 -24 158.5 -69.5 q96.5 -45.5 155.5 -77.5 l-34 -87 q-65 39 -156 83.5 q-91 44.5 -159 70.5 l35 80 Z" /><glyph glyph-name="uni517C" unicode="&#x517c;" d="M644 199 q115 -128 291 -195 l-43 -85 q-80 37 -152 87.5 q-72 50.5 -128 109.5 l0 -219 l-85 0 l0 302 l-119 0 l0 -302 l-84 0 l0 217 q-97 -110 -257 -202 l-50 83 q177 87 275 204 l-187 0 l0 75 l219 0 l0 67 l-282 0 l0 76 l282 0 l0 66 l-210 0 l0 77 l210 0 l0 75 l-265 0 l0 76 l223 0 q-32 49 -52 73 l72 46 q16 -18 37.5 -46.5 q21.5 -28.5 32.5 -48.5 l-33 -24 l215 0 q23 28 46 62 q23 34 36 59 l79 -44 q-19 -32 -53 -77 l232 0 l0 -76 l-282 0 l0 -75 l203 0 l0 -143 l102 0 l0 -76 l-102 0 l0 -142 l-171 0 ZM527 635 l-119 0 l0 -75 l119 0 l0 75 ZM527 483 l-119 0 l0 -66 l119 0 l0 66 ZM729 417 l0 66 l-117 0 l0 -66 l117 0 ZM408 341 l0 -67 l119 0 l0 67 l-119 0 ZM612 274 l117 0 l0 67 l-117 0 l0 -67 Z" /><glyph glyph-name="uni5185" unicode="&#x5185;" d="M863 658 l0 -623 q0 -52 -11.5 -76 q-11.5 -24 -40 -34 q-28.5 -10 -89.5 -16 l-66 -6 l-30 93 l71 6 q34 3 49 8 q15 5 20 16.5 q5 11.5 5 38.5 l0 504 l-235 0 q-2 -65 -13 -118 q54 -48 128 -124 q74 -76 115 -125 l-60 -82 q-36 48 -97 114.5 q-61 66.5 -118 122.5 q-30 -63 -83.5 -122 q-53.5 -59 -137.5 -124 l-59 74 l0 -275 l-93 0 l0 748 l326 0 l0 143 l92 -3 l0 -140 l327 0 ZM211 188 q90 67 139.5 124.5 q49.5 57.5 70.5 117.5 q21 60 23 139 l-233 0 l0 -381 Z" /><glyph glyph-name="uni518D" unicode="&#x518d;" d="M941 215 l0 -83 l-121 0 l0 -101 q0 -50 -10.5 -73.5 q-10.5 -23.5 -38 -33.5 q-27.5 -10 -88.5 -16 l-60 -6 l-28 93 l62 5 q34 3 48 7.5 q14 4.5 18.5 16 q4.5 11.5 4.5 38.5 l0 70 l-475 0 l0 -225 l-91 0 l0 225 l-122 0 l0 83 l122 0 l0 365 l285 0 l0 88 l-366 0 l0 83 l821 0 l0 -83 l-364 0 l0 -88 l282 0 l0 -365 l121 0 ZM447 399 l0 98 l-194 0 l0 -98 l194 0 ZM728 399 l0 98 l-190 0 l0 -98 l190 0 ZM447 319 l-194 0 l0 -104 l194 0 l0 104 ZM538 319 l0 -104 l190 0 l0 104 l-190 0 Z" /><glyph glyph-name="uni5199" unicode="&#x5199;" d="M100 533 l0 223 l790 0 l0 -219 l-99 0 l0 131 l-596 0 l0 -135 l-95 0 ZM320 459 l-10 -107 l530 0 q-2 -57 -7 -147.5 q-5 -90.5 -8 -137.5 q-4 -57 -21.5 -88 q-17.5 -31 -53 -45.5 q-35.5 -14.5 -100.5 -19.5 l-93 -7 l-28 87 l94 6 q41 3 62 11 q21 8 31 25.5 q10 17.5 13 52.5 q4 44 8 103.5 q4 59.5 4 74.5 l-535 0 l35 362 l95 -4 l-8 -83 l447 0 l0 -83 l-455 0 ZM71 166 l605 0 l0 -85 l-605 0 l0 85 Z" /><glyph glyph-name="uni51B2" unicode="&#x51b2;" d="M637 634 l239 0 l0 -459 l-239 0 l0 -276 l-89 0 l0 276 l-231 0 l0 459 l231 0 l0 172 l89 -4 l0 -168 ZM142 771 q28 -45 67 -117.5 q39 -72.5 69 -134.5 l-77 -58 q-23 57 -65.5 139.5 q-42.5 82.5 -71.5 127.5 l78 43 ZM409 542 l0 -272 l139 0 l0 272 l-139 0 ZM637 270 l147 0 l0 272 l-147 0 l0 -272 ZM278 347 q-18 -66 -61.5 -182 q-43.5 -116 -83.5 -209 l-88 37 q40 84 83.5 198.5 q43.5 114.5 63.5 185.5 l86 -30 Z" /><glyph glyph-name="uni51B3" unicode="&#x51b3;" d="M618 271 q39 -96 119 -165 q80 -69 206 -122 l-53 -93 q-118 59 -198.5 128.5 q-80.5 69.5 -128.5 160.5 q-36 -83 -112 -153 q-76 -70 -202 -139 l-59 86 q142 70 210.5 137.5 q68.5 67.5 90.5 159.5 l-212 0 l0 88 l224 0 q1 4 1 12 l2 196 l-187 0 l0 88 l187 0 l0 152 l96 -4 q0 -7 -0.5 -39.5 q-0.5 -32.5 -0.5 -108.5 l237 0 l0 -296 l94 0 l0 -88 l-314 0 ZM179 461 q-18 54 -54.5 138 q-36.5 84 -61.5 127 l82 39 q28 -48 63.5 -122.5 q35.5 -74.5 56.5 -130.5 l-86 -51 ZM600 359 l150 0 l0 208 l-149 0 l-1 -191 l0 -17 ZM265 357 q-24 -86 -64 -205 q-40 -119 -74 -203 l-92 30 q34 81 73.5 196.5 q39.5 115.5 63.5 204.5 l93 -23 Z" /><glyph glyph-name="uni51B5" unicode="&#x51b5;" d="M194 462 q-17 49 -59 136.5 q-42 87.5 -70 134.5 l77 40 q31 -51 71.5 -129.5 q40.5 -78.5 62.5 -131.5 l-82 -50 ZM950 123 q-1 -47 -11 -118 q-8 -46 -31.5 -64 q-23.5 -18 -82.5 -19 l-81 0 q-58 1 -82 22.5 q-24 21.5 -24 75.5 l0 314 l-109 0 q0 -24 -2 -44 q-5 -106 -30 -174 q-25 -68 -76 -120 q-51 -52 -143 -108 l-59 74 q85 46 131 89 q46 43 66.5 99 q20.5 56 24.5 144 l2 40 l-111 0 l0 415 l528 0 l0 -415 l-133 0 l0 -285 q0 -21 10.5 -30 q10.5 -9 35.5 -10 l35 0 q27 1 36.5 9 q9.5 8 12.5 29 q6 41 9 101 l84 -25 ZM770 663 l-347 0 l0 -244 l347 0 l0 244 ZM247 350 l33 -14 q-67 -222 -151 -399 l-85 49 q47 88 86.5 188.5 q39.5 100.5 65.5 198.5 l51 -23 Z" /><glyph glyph-name="uni51C6" unicode="&#x51c6;" d="M929 47 l0 -79 l-489 0 l0 -65 l-91 0 l0 532 q-34 -56 -71 -103 l-63 76 q136 165 196 407 l94 -15 q-15 -70 -45 -143 l167 0 q-21 76 -40 128 l83 16 q20 -51 46 -144 l198 0 l0 -83 l-217 0 l0 -117 l193 0 l0 -79 l-193 0 l0 -117 l193 0 l0 -80 l-193 0 l0 -134 l232 0 ZM194 475 q-20 51 -60.5 133 q-40.5 82 -65.5 124 l78 42 q29 -44 66.5 -116 q37.5 -72 61.5 -128 l-80 -55 ZM440 457 l170 0 l0 117 l-170 0 l0 -117 ZM440 261 l170 0 l0 117 l-170 0 l0 -117 ZM228 321 l42 -16 q-61 -215 -128 -371 l-91 34 q38 84 73.5 185 q35.5 101 57.5 185 l46 -17 ZM610 181 l-170 0 l0 -134 l170 0 l0 134 Z" /><glyph glyph-name="uni51CF" unicode="&#x51cf;" d="M950 133 q-5 -48 -17 -100 q-17 -70 -38 -94 q-21 -24 -54 -24 q-35 0 -63 22.5 q-28 22.5 -55 84.5 q-7 16 -16 42 q-65 -84 -151 -154 l-58 65 q50 38 88 74 l-191 0 l0 297 l212 0 l0 -275 q40 42 72 90 q-38 165 -53 427 l-265 0 l0 -349 q0 -90 -24.5 -186 q-24.5 -96 -66.5 -162 l-77 50 q90 131 90 298 l0 433 l339 0 l-6 137 l82 -4 q4 -91 7 -133 l101 0 q-41 54 -79 90 l54 45 q23 -20 49.5 -48 q26.5 -28 45.5 -53 l-37 -34 l69 0 l0 -84 l-199 0 q15 -208 31 -311 q41 99 66 242 l76 -15 q-35 -211 -117 -353 q13 -51 32 -96 q13 -26 20.5 -35 q7.5 -9 18.5 -9 q10 0 17 13 q7 13 15 49 q11 49 15 85 l67 -25 ZM158 475 q-15 57 -46 138.5 q-31 81.5 -54 129.5 l79 29 q23 -46 52.5 -123.5 q29.5 -77.5 47.5 -136.5 l-79 -37 ZM396 499 l215 0 l0 -80 l-215 0 l0 80 ZM228 368 q-48 -201 -115 -401 l-90 22 q32 86 64.5 193 q32.5 107 55.5 203 l85 -17 ZM463 129 l77 0 l0 136 l-77 0 l0 -136 Z" /><glyph glyph-name="uni51E0" unicode="&#x51e0;" d="M43 -34 q85 71 124 123.5 q39 52.5 53.5 125 q14.5 72.5 14.5 207.5 l0 325 l467 0 l0 -676 q0 -24 3 -34 q3 -10 12.5 -13.5 q9.5 -3.5 32.5 -4.5 l38 0 q24 1 31.5 9.5 q7.5 8.5 12.5 39.5 q4 22 6 59 q2 37 2 67 l91 -31 q-3 -86 -11 -141 q-6 -39 -16 -58.5 q-10 -19.5 -30.5 -28 q-20.5 -8.5 -60.5 -9.5 l-97 0 q-60 1 -85.5 25 q-25.5 24 -25.5 87 l0 613 l-274 0 l0 -229 q0 -147 -16.5 -230.5 q-16.5 -83.5 -59.5 -146.5 q-43 -63 -135 -146 l-77 67 Z" /><glyph glyph-name="uni51F8" unicode="&#x51f8;" d="M695 768 l0 -297 l184 0 l0 -566 l-92 0 l0 54 l-594 0 l0 -54 l-92 0 l0 566 l184 0 l0 297 l410 0 ZM193 380 l0 -328 l594 0 l0 328 l-187 0 l0 294 l-221 0 l0 -294 l-186 0 Z" /><glyph glyph-name="uni51FA" unicode="&#x51fa;" d="M775 28 l0 272 l94 -4 l0 -393 l-94 0 l0 38 l-661 0 l0 357 l94 -4 l0 -266 l237 0 l0 342 l-298 0 l0 348 l93 -3 l0 -255 l205 0 l0 348 l91 -4 l0 -344 l206 0 l0 258 l93 -3 l0 -345 l-299 0 l0 -342 l239 0 Z" /><glyph glyph-name="uni51FB" unicode="&#x51fb;" d="M924 337 l-387 0 l0 -303 l208 0 l0 231 l93 -4 l0 -357 l-93 0 l0 44 l-601 0 l0 316 l93 -4 l0 -226 l208 0 l0 303 l-387 0 l0 89 l387 0 l0 153 l-325 0 l0 89 l325 0 l0 143 l92 -4 l0 -139 l325 0 l0 -89 l-325 0 l0 -153 l387 0 l0 -89 Z" /><glyph glyph-name="uni51FD" unicode="&#x51fd;" d="M788 592 l93 -4 l0 -693 l-93 0 l0 34 l-691 0 l0 663 l93 -4 l0 -398 q47 28 116 80 q69 52 96 79 l23 -26 l22 -27 l0 259 l205 114 l-482 0 l0 87 l657 0 l0 -79 l-287 -165 l0 -210 l27 36 q52 -35 118 -85 q66 -50 102 -84 l-45 -77 q-36 36 -94.5 84 q-58.5 48 -107.5 83 l0 -108 q0 -40 -10 -61 q-10 -21 -34.5 -31 q-24.5 -10 -72.5 -14 l-53 -4 l-28 87 l53 4 q24 2 34.5 6 q10.5 4 14 12.5 q3.5 8.5 3.5 29.5 l0 101 q-39 -35 -113.5 -92.5 q-74.5 -57.5 -108.5 -77.5 l-35 51 l0 -150 l598 0 l0 580 ZM364 333 q-28 35 -75 84 q-47 49 -78 76 l59 55 q30 -24 76 -70 q46 -46 73 -78 l-55 -67 ZM564 383 q41 31 85 72.5 q44 41.5 76 78.5 l60 -60 q-30 -37 -74.5 -79.5 q-44.5 -42.5 -88.5 -77.5 l-58 66 Z" /><glyph glyph-name="uni5206" unicode="&#x5206;" d="M618 814 q47 -130 126 -221.5 q79 -91.5 210 -173.5 l-52 -87 q-140 92 -224 192.5 q-84 100.5 -145 257.5 l85 32 ZM440 764 q-43 -98 -102.5 -178.5 q-59.5 -80.5 -142.5 -156.5 l567 0 q-4 -81 -12.5 -198.5 q-8.5 -117.5 -14.5 -175.5 q-6 -52 -21.5 -78.5 q-15.5 -26.5 -45.5 -38 q-30 -11.5 -87 -15.5 l-92 -7 l-30 92 l93 6 q36 3 53.5 9.5 q17.5 6.5 25 22 q7.5 15.5 11.5 48.5 q5 56 10.5 127.5 q5.5 71.5 8.5 116.5 l-256 0 l-3 -53 q-6 -92 -31 -156.5 q-25 -64.5 -83.5 -122 q-58.5 -57.5 -165.5 -119.5 l-68 75 q98 51 148.5 96 q50.5 45 72 96 q21.5 51 31.5 132 l5 52 l-127 0 l0 81 q-44 -38 -97 -79 l-56 80 q109 75 191.5 172 q82.5 97 129.5 207 l88 -35 Z" /><glyph glyph-name="uni5207" unicode="&#x5207;" d="M411 237 l21 -99 q-30 -19 -87 -55 q-57 -36 -109 -70 q-20 -11 -41 -27 l-55 80 q21 15 27 30 q6 15 6 37 l0 305 l-129 -17 l-9 95 l138 17 l0 271 l91 -3 l0 -257 l161 20 l3 -93 l-164 -21 l0 -307 l147 94 ZM405 735 l497 0 q-4 -115 -11.5 -331 q-7.5 -216 -12.5 -330 q-3 -54 -18.5 -83.5 q-15.5 -29.5 -50.5 -44 q-35 -14.5 -98 -19.5 l-62 -6 l-30 97 l62 4 q41 3 61.5 10 q20.5 7 30 24.5 q9.5 17.5 11.5 53.5 q4 98 9.5 265 q5.5 167 8.5 264 l-180 0 q-2 -89 -5 -147 q-7 -161 -28.5 -259 q-21.5 -98 -70 -176 q-48.5 -78 -144.5 -172 l-80 68 q97 88 141 153 q44 65 61.5 149 q17.5 84 24.5 245 q3 52 5 139 l-121 0 l0 96 Z" /><glyph glyph-name="uni520A" unicode="&#x520a;" d="M776 796 l94 -4 l0 -759 q0 -46 -11.5 -70.5 q-11.5 -24.5 -42 -36.5 q-30.5 -12 -91.5 -17 l-69 -5 l-29 93 l80 6 q31 2 45.5 8 q14.5 6 19 19 q4.5 13 4.5 40 l0 726 ZM486 657 l-164 0 l0 -245 l189 0 l0 -90 l-189 0 l0 -415 l-94 0 l0 415 l-190 0 l0 90 l190 0 l0 245 l-145 0 l0 94 l403 0 l0 -94 ZM558 713 l90 -4 l0 -594 l-90 0 l0 598 Z" /><glyph glyph-name="uni5212" unicode="&#x5212;" d="M544 525 l-277 -49 q9 -121 26 -214 q86 92 141 201 l71 -45 q-78 -146 -188 -256 q18 -61 46 -107 q16 -26 26.5 -35.5 q10.5 -9.5 21.5 -9.5 q13 0 22.5 14.5 q9.5 14.5 16.5 50.5 q11 50 16 89 l78 -39 q-6 -36 -23 -98 q-15 -63 -43 -91.5 q-28 -28.5 -68 -28.5 q-33 0 -63 23 q-30 23 -64 80 q-18 28 -39 85 q-77 -63 -170 -121 l-49 75 q109 66 193 140 q-25 113 -38 272 l-119 -21 l-13 86 l126 22 l-3 59 l-9 194 l91 -4 l7 -200 l2 -34 l271 46 l11 -84 ZM793 801 l85 -5 l0 -767 q0 -44 -10.5 -67 q-10.5 -23 -37 -34 q-26.5 -11 -80.5 -15 l-68 -6 l-29 89 l74 5 q29 2 42 6.5 q13 4.5 18.5 16.5 q5.5 12 5.5 38 l0 739 ZM415 599 q-24 33 -59.5 71.5 q-35.5 38.5 -65.5 64.5 l48 51 q30 -24 65 -58.5 q35 -34.5 62 -68.5 l-50 -60 ZM597 715 l86 -4 l0 -585 l-86 0 l0 589 Z" /><glyph glyph-name="uni5217" unicode="&#x5217;" d="M791 794 l91 -3 l0 -758 q0 -44 -13 -69 q-13 -25 -44 -37.5 q-31 -12.5 -88 -16.5 l-75 -6 l-29 93 l82 6 q32 2 48 8 q16 6 22 19 q6 13 6 38 l0 726 ZM81 667 l0 89 l479 0 l0 -89 l-232 0 q-16 -64 -39 -126 l233 0 l0 -82 q-30 -128 -78 -226 q-48 -98 -125 -183 q-77 -85 -196 -169 l-61 78 q114 77 183.5 148.5 q69.5 71.5 111.5 153.5 q42 82 70 195 l-172 0 q-18 -40 -39 -78 q70 -54 112 -99 l-46 -82 q-43 47 -112 102 q-31 -51 -84 -118 l-63 68 q67 84 126 199 q59 115 85 219 l-153 0 ZM605 704 l91 -4 l0 -575 l-91 0 l0 579 Z" /><glyph glyph-name="uni5219" unicode="&#x5219;" d="M714 6 q43 3 57 15 q14 12 14 47 l0 717 l85 -3 l0 -736 q0 -48 -11.5 -73 q-11.5 -25 -39.5 -37 q-28 -12 -84 -17 l-60 -6 l-31 87 l70 6 ZM105 162 l0 596 l400 0 l0 -594 l-84 0 l0 504 l-230 0 l0 -506 l-86 0 ZM604 129 l0 577 l80 -3 l0 -574 l-80 0 ZM27 -26 q97 60 146.5 111.5 q49.5 51.5 69.5 117 q20 65.5 20 168.5 l0 241 l86 -4 l0 -258 q0 -111 -25.5 -188 q-25.5 -77 -82.5 -138 q-57 -61 -157 -124 l-57 74 ZM362 179 q117 -96 182 -163 l-56 -76 q-99 112 -173 172 l47 67 Z" /><glyph glyph-name="uni521A" unicode="&#x521a;" d="M806 787 l82 -4 l0 -758 q0 -45 -9 -67.5 q-9 -22.5 -34 -34 q-25 -11.5 -77 -16.5 l-57 -6 l-29 88 l59 4 q30 3 42.5 7.5 q12.5 4.5 17.5 15.5 q5 11 5 35 l0 736 ZM91 -89 l0 844 l478 0 l0 -731 q0 -43 -10.5 -65.5 q-10.5 -22.5 -35 -33 q-24.5 -10.5 -72.5 -15.5 l-50 -5 l-27 84 l53 5 q39 5 50.5 15.5 q11.5 10.5 11.5 43.5 l0 620 l-318 0 l0 -550 q61 94 122 219 q-71 148 -119 231 l65 39 q27 -46 97 -180 q44 97 73 183 l72 -28 q-42 -120 -99 -246 q72 -145 106 -224 l-67 -54 q-37 90 -83 187 q-53 -106 -110 -196 l-57 42 l0 -185 l-80 0 ZM643 695 l79 -3 l0 -573 l-79 0 l0 576 Z" /><glyph glyph-name="uni521B" unicode="&#x521b;" d="M161 492 l335 0 q0 -38 -2 -104 q-2 -66 -4 -119 q-2 -43 -12.5 -66.5 q-10.5 -23.5 -34.5 -34.5 q-24 -11 -68 -15 l-54 -5 l-26 81 l54 4 q27 2 39 6.5 q12 4.5 16 15 q4 10.5 5 33.5 l4 88 l1 34 l-191 0 l0 -339 q0 -26 3 -37 q3 -11 15 -16 q12 -5 40 -8 q38 -3 67 -3 q31 0 65 3 q33 3 44 14 q11 11 17 43 q3 18 9 75 l87 -30 q-4 -39 -12 -86 q-8 -39 -21.5 -59.5 q-13.5 -20.5 -39.5 -29.5 q-26 -9 -73 -12 q-52 -2 -77 -2 q-44 0 -95 3 q-44 3 -69 14.5 q-25 11.5 -36 37 q-11 25.5 -11 71.5 l0 422 q-22 -18 -60 -47 l-54 70 q88 63 168.5 154.5 q80.5 91.5 118.5 174.5 l85 -38 q-14 -28 -22 -41 q55 -43 119 -99.5 q64 -56.5 103 -98.5 l-54 -75 q-36 42 -97 99 q-61 57 -117 103 q-71 -99 -165 -181 ZM797 797 l86 -4 l0 -766 q0 -45 -9.5 -67 q-9.5 -22 -35.5 -32 q-26 -10 -81 -16 l-66 -7 l-31 95 l73 7 q39 3 51.5 14 q12.5 11 12.5 45 l0 731 ZM613 721 l87 -4 l0 -572 l-87 0 l0 576 Z" /><glyph glyph-name="uni521D" unicode="&#x521d;" d="M377 159 q-34 34 -111 94 l0 -350 l-91 0 l0 406 q-43 -47 -115 -115 l-43 80 q75 66 143 145.5 q68 79.5 105 145.5 l-197 0 l0 92 l120 0 q-18 77 -36 133 l89 14 q24 -81 39 -147 l90 0 l0 -84 q-44 -81 -104 -157 l0 -63 q11 -8 20 -15 q62 73 103 134 l61 -50 q-55 -78 -100 -132 q35 -27 69 -57 l-42 -74 ZM401 733 l489 1 l-28 -669 q-3 -55 -19 -84.5 q-16 -29.5 -51 -43.5 q-35 -14 -100 -19 l-64 -5 l-29 95 l65 4 q43 3 64 10.5 q21 7.5 30.5 26 q9.5 18.5 11.5 55.5 q6 112 23 537 l-179 0 l-4 -154 q-5 -151 -26 -244.5 q-21 -93.5 -66.5 -169.5 q-45.5 -76 -138.5 -184 l-79 61 q90 94 133 163 q43 69 61 153.5 q18 84.5 24 230.5 l4 143 l-121 0 l0 93 Z" /><glyph glyph-name="uni5220" unicode="&#x5220;" d="M809 790 l77 -3 l0 -756 q0 -44 -10.5 -68.5 q-10.5 -24.5 -37 -37 q-26.5 -12.5 -77.5 -17.5 l-53 -5 l-26 80 l60 5 q41 4 54 14.5 q13 10.5 13 42.5 l0 745 ZM594 758 l0 -339 l55 0 l0 -81 l-55 0 l0 -318 q0 -40 -8 -60.5 q-8 -20.5 -26 -29.5 q-18 -9 -53 -11 l-40 -3 l-24 82 l38 2 q17 2 24.5 6 q7.5 4 10.5 15.5 q3 11.5 3 35.5 l0 281 l-61 0 q-1 -113 -10 -187.5 q-9 -74.5 -25.5 -130 q-16.5 -55.5 -46.5 -119.5 l-73 30 q31 63 46.5 112 q15.5 49 22.5 116.5 q7 67.5 9 178.5 l-54 0 l0 -306 q0 -40 -7.5 -61 q-7.5 -21 -26.5 -30 q-19 -9 -56 -12 l-36 -3 l-24 82 l37 2 q23 2 31 12 q8 10 8 39 l0 277 l-60 0 q-1 -115 -11 -188.5 q-10 -73.5 -28.5 -125.5 q-18.5 -52 -52.5 -121 l-73 36 q34 63 50.5 109.5 q16.5 46.5 25 112 q8.5 65.5 9.5 177.5 l-65 0 l0 81 l66 0 l0 6 l0 333 l213 0 l0 -339 l55 0 l0 6 l0 333 l212 0 ZM667 700 l74 -3 l0 -567 l-74 0 l0 570 ZM193 677 l0 -258 l60 0 l0 258 l-60 0 ZM458 677 l0 -258 l62 0 l0 258 l-62 0 Z" /><glyph glyph-name="uni5229" unicode="&#x5229;" d="M791 794 l92 -3 l0 -756 q0 -47 -13.5 -72.5 q-13.5 -25.5 -45 -38 q-31.5 -12.5 -91.5 -17.5 l-70 -6 l-31 93 l79 5 q33 2 50 8.5 q17 6.5 23.5 20.5 q6.5 14 6.5 41 l0 725 ZM387 367 q34 -30 80 -76.5 q46 -46.5 74 -80.5 l-57 -78 q-51 65 -135 149 l0 -376 l-91 0 l0 384 q-69 -123 -173 -235 l-62 77 q136 131 219 306 l-176 0 l0 88 l192 0 l0 124 q-105 -15 -170 -22 l-12 87 q95 9 216 28 q121 19 208 39 l15 -87 q-74 -16 -167 -31 l0 -138 l181 0 l0 -88 l-181 0 l0 -111 l39 41 ZM575 711 l92 -4 l0 -588 l-92 0 l0 592 Z" /><glyph glyph-name="uni522B" unicode="&#x522b;" d="M779 791 l85 -4 l0 -756 q0 -45 -12 -70 q-12 -25 -42 -37.5 q-30 -12.5 -85 -17.5 l-61 -5 l-29 92 l70 4 q44 3 59 16 q15 13 15 50 l0 728 ZM292 445 l-4 -106 l223 0 q-2 -53 -5.5 -139.5 q-3.5 -86.5 -6.5 -142.5 q-3 -48 -18.5 -75 q-15.5 -27 -47 -40 q-31.5 -13 -89.5 -18 l-45 -3 l-27 84 l48 4 q40 3 59 10 q19 7 26.5 23 q7.5 16 9.5 51 l4 112 l2 49 l-139 0 q-8 -81 -28.5 -139.5 q-20.5 -58.5 -55 -107.5 q-34.5 -49 -94.5 -114 l-75 60 q55 50 86.5 92.5 q31.5 42.5 50 91 q18.5 48.5 27.5 117.5 l-132 0 l0 85 l139 0 q1 16 2 42.5 q1 26.5 1 40.5 q1 8 1 23 l-101 0 l0 316 l397 0 l0 -316 l-208 0 ZM593 711 l85 -4 l0 -568 l-85 0 l0 572 ZM411 680 l-220 0 l0 -150 l220 0 l0 150 Z" /><glyph glyph-name="uni5230" unicode="&#x5230;" d="M794 790 l89 -4 l0 -759 q0 -46 -13 -71 q-13 -25 -42.5 -36.5 q-29.5 -11.5 -85.5 -15.5 l-64 -6 l-31 91 l69 5 q46 4 62 16 q16 12 16 48 l0 732 ZM360 402 l0 -128 l185 0 l0 -84 l-185 0 l0 -132 l211 20 l1 -53 l1 -33 q-101 -9 -257.5 -23.5 q-156.5 -14.5 -264.5 -25.5 l-10 87 l229 20 l0 140 l-190 0 l0 84 l190 0 l0 123 q-17 -1 -71 -4 q-74 -5 -109 -10 l-21 81 q17 6 33 21 q19 19 57.5 73 q38.5 54 69.5 104 l-166 0 l0 87 l496 0 l0 -87 l-230 0 q-34 -54 -71.5 -108 q-37.5 -54 -60.5 -80 l229 12 q-28 44 -63 90 l66 46 q34 -44 77 -106 q43 -62 68 -106 l-68 -57 q-8 16 -30 54 l-116 -5 ZM607 710 l86 -3 l0 -587 l-86 0 l0 590 Z" /><glyph glyph-name="uni5236" unicode="&#x5236;" d="M379 584 l0 -105 l204 0 l0 -83 l-204 0 l0 -90 l178 0 l0 -257 q0 -45 -20 -63 q-20 -18 -72 -23 l-39 -3 l-28 81 l37 3 q25 2 33 9 q8 7 8 30 l0 141 l-97 0 l0 -331 l-85 0 l0 331 l-108 0 l0 -263 l-80 0 l0 345 l188 0 l0 90 l-245 0 l0 83 l245 0 l0 105 l-114 0 q-19 -54 -39 -95 l-78 28 q57 125 82 250 l82 -13 q-9 -44 -21 -86 l88 0 l0 131 l85 -4 l0 -127 l183 0 l0 -84 l-183 0 ZM806 787 l85 -4 l0 -758 q0 -46 -10.5 -69.5 q-10.5 -23.5 -37 -34 q-26.5 -10.5 -80.5 -16.5 l-63 -7 l-31 90 l67 6 q42 4 56 16 q14 12 14 48 l0 729 ZM632 705 l86 -4 l0 -591 l-86 0 l0 595 Z" /><glyph glyph-name="uni524D" unicode="&#x524d;" d="M928 687 l0 -84 l-882 0 l0 84 l245 0 q-39 64 -61 90 l76 51 q16 -19 41.5 -54.5 q25.5 -35.5 38.5 -57.5 l-38 -29 l214 0 q65 93 90 142 l86 -44 l-65 -98 l255 0 ZM756 544 l89 -4 l0 -513 q0 -46 -8.5 -68.5 q-8.5 -22.5 -32 -33 q-23.5 -10.5 -74.5 -15.5 l-72 -6 l-28 88 l74 6 q33 3 42.5 14 q9.5 11 9.5 40 l0 492 ZM119 -89 l0 618 l361 0 l0 -510 q0 -43 -8.5 -66 q-8.5 -23 -29.5 -33 q-21 -10 -63 -13 l-51 -3 l-27 86 l46 3 q28 1 36.5 10.5 q8.5 9.5 8.5 37.5 l0 73 l-184 0 l0 -203 l-89 0 ZM568 504 l82 -4 l0 -420 l-82 0 l0 424 ZM392 360 l0 85 l-184 0 l0 -85 l184 0 ZM208 280 l0 -86 l184 0 l0 86 l-184 0 Z" /><glyph glyph-name="uni5254" unicode="&#x5254;" d="M803 793 l84 -3 l0 -762 q0 -46 -9 -68.5 q-9 -22.5 -35.5 -33.5 q-26.5 -11 -81.5 -16 l-58 -4 l-29 88 l56 3 q33 3 47 7 q14 4 20 15 q6 11 6 37 l0 737 ZM260 404 q-18 -36 -29 -54 l346 0 q-3 -52 -9 -149 q-6 -97 -11 -155 q-4 -44 -17.5 -68.5 q-13.5 -24.5 -39 -35 q-25.5 -10.5 -69.5 -14.5 l-54 -5 l-24 78 l55 5 q29 3 43 8 q14 5 21.5 18 q7.5 13 10.5 41 q3 36 8.5 99.5 q5.5 63.5 7.5 100.5 l-58 0 q-22 -125 -76 -210.5 q-54 -85.5 -159 -177.5 l-53 63 q95 73 144 146 q49 73 71 179 l-58 0 q-32 -90 -92 -163 q-60 -73 -147 -138 l-48 59 q75 51 129.5 113 q54.5 62 82.5 129 l-52 0 q-45 -64 -97 -121 l-54 64 q52 50 88 100 q36 50 63 111 l-55 0 l0 344 l410 0 l0 -344 l-340 0 l62 -23 ZM631 719 l80 -3 l0 -588 l-80 0 l0 591 ZM457 634 l0 66 l-247 0 l0 -66 l247 0 ZM210 563 l0 -64 l247 0 l0 64 l-247 0 Z" /><glyph glyph-name="uni529B" unicode="&#x529b;" d="M852 614 q-4 -105 -11 -271 q-7 -166 -12 -277 q-3 -56 -21 -87 q-18 -31 -57 -45.5 q-39 -14.5 -111 -19.5 l-87 -6 l-31 96 l92 7 q52 3 76 11.5 q24 8.5 34 28.5 q10 20 12 62 q4 79 9.5 221 q5.5 142 6.5 184 l-299 0 q-8 -168 -40 -271.5 q-32 -103.5 -102 -184 q-70 -80.5 -205 -178.5 l-69 81 q126 87 189.5 155 q63.5 68 93.5 158 q30 90 39 240 l-272 0 l0 96 l276 0 l2 58 q1 43 4 132 l93 -3 q1 -18 -3 -122 l-2 -65 l395 0 Z" /><glyph glyph-name="uni529E" unicode="&#x529e;" d="M855 138 q-16 44 -46.5 110.5 q-30.5 66.5 -59.5 120.5 l-5 -87 q-9 -167 -13 -223 q-4 -54 -19 -82.5 q-15 -28.5 -50 -42.5 q-35 -14 -104 -20 l-76 -7 l-29 95 l76 6 q46 4 67 11.5 q21 7.5 29.5 25 q8.5 17.5 10.5 56.5 l7 112 q19 306 19 336 l-224 0 q-9 -184 -39.5 -290.5 q-30.5 -106.5 -95 -185.5 q-64.5 -79 -196.5 -186 l-68 76 q114 83 175 160 q61 77 90 174 q29 97 41 252 l-260 0 l0 91 l265 0 l4 136 l1 31 l94 -6 l-7 -161 l321 0 l-12 -225 l58 29 q30 -46 68 -121 q38 -75 62 -133 l-84 -52 ZM238 434 q-23 -77 -56 -156 q-33 -79 -65 -140 l-87 46 q78 136 120 285 l88 -35 Z" /><glyph glyph-name="uni529F" unicode="&#x529f;" d="M885 613 q-3 -104 -9 -266 q-6 -162 -10 -267 q-3 -63 -18 -92.5 q-15 -29.5 -49.5 -42 q-34.5 -12.5 -107.5 -19.5 l-60 -6 l-28 89 l68 6 q47 5 66 12 q19 7 26 25.5 q7 18.5 10 63.5 q4 83 9 218 q5 135 6 187 l-178 0 q-5 -179 -25 -279.5 q-20 -100.5 -69.5 -178 q-49.5 -77.5 -154.5 -176.5 l-78 63 q104 96 148.5 165 q44.5 69 59.5 151 q15 82 24 255 l-102 0 l0 92 l106 0 l3 123 l1 69 l93 -4 l-4 -188 l273 0 ZM424 208 l8 -56 q-74 -20 -189 -50 q-115 -30 -189 -49 l-23 91 q22 4 158 37 l0 425 l-126 0 l0 88 l336 0 l0 -88 l-118 0 l0 -400 q97 25 137 40 l6 -38 Z" /><glyph glyph-name="uni52A0" unicode="&#x52a0;" d="M274 803 q0 -68 -3 -161 l211 0 l-13 -590 q-1 -48 -14 -74 q-13 -26 -41 -38 q-28 -12 -79 -17 l-61 -6 l-31 97 l71 6 q27 2 40 8 q13 6 18 20 q5 14 6 43 q1 13 11 408 q0 24 0.5 36 q0.5 12 0.5 17 l-122 0 q-6 -164 -23.5 -273.5 q-17.5 -109.5 -51.5 -196 q-34 -86.5 -94 -186.5 l-83 48 q57 90 89.5 170 q32.5 80 49.5 182 q17 102 24 256 l-116 0 l0 90 l118 0 l2 165 l91 -4 ZM550 -81 l0 777 l345 0 l0 -777 l-90 0 l0 75 l-164 0 l0 -75 l-91 0 ZM641 605 l0 -524 l164 0 l0 524 l-164 0 Z" /><glyph glyph-name="uni52A1" unicode="&#x52a1;" d="M948 385 l-25 -86 q-149 30 -252 60 q-103 30 -184 69 q-166 -78 -423 -140 l-33 82 q211 42 367 107 q-69 44 -139 112 q-70 -65 -137 -112 l-51 62 q77 57 153.5 136.5 q76.5 79.5 118.5 145.5 l81 -36 q-20 -32 -43 -61 l435 0 l0 -75 q-111 -104 -235 -173 q132 -52 367 -91 ZM318 648 q74 -78 170 -130 q110 56 193 130 l-363 0 ZM464 354 q0 -2 -5 -41 l-6 -44 l361 0 q-4 -45 -11.5 -117 q-7.5 -72 -13.5 -120 q-6 -43 -21.5 -66.5 q-15.5 -23.5 -45.5 -34.5 q-30 -11 -84 -15 l-97 -8 l-28 83 l95 6 q35 3 52 8.5 q17 5.5 26 19.5 q9 14 13 42 q1 6 11 81 l5 42 l-277 0 q-19 -72 -57 -124 q-38 -52 -103.5 -93.5 q-65.5 -41.5 -171.5 -83.5 l-50 78 q134 47 198 96.5 q64 49.5 88 126.5 l-230 0 l0 79 l246 0 q9 56 11 91 l95 -6 Z" /><glyph glyph-name="uni52A8" unicode="&#x52a8;" d="M897 619 q-1 -69 -16 -446 l-4 -120 q-2 -49 -15 -73.5 q-13 -24.5 -42.5 -35.5 q-29.5 -11 -89.5 -17 l-61 -6 l-30 90 l60 5 q41 4 59 10.5 q18 6.5 25 21.5 q7 15 9 49 q4 84 8.5 215.5 q4.5 131.5 7.5 218.5 l-147 0 q-8 -201 -19 -296 q-11 -95 -45 -175 q-34 -80 -111 -176 l-81 56 q49 57 76 100 l-62 -40 q-17 51 -17 51 q-117 -17 -245 -38 q-17 -2 -37 -6.5 q-20 -4.5 -28 -6.5 l-34 94 q17 8 24 16.5 q7 8.5 18 29.5 q18 34 47 109.5 q29 75.5 51 145.5 l-145 0 l0 89 l436 0 l0 -89 l-196 0 q-24 -81 -55.5 -167.5 q-31.5 -86.5 -51.5 -119.5 l185 28 q-41 104 -66 159 l82 31 q24 -51 55 -128.5 q31 -77.5 51 -137.5 q31 54 47 114.5 q16 60.5 22.5 138 q6.5 77.5 11.5 218.5 l-110 0 l0 88 l112 0 l4 186 l87 -4 l-3 -182 l233 0 ZM102 732 l354 0 l0 -87 l-354 0 l0 87 Z" /><glyph glyph-name="uni52A9" unicode="&#x52a9;" d="M891 622 q-2 -91 -9 -297 q-7 -206 -11 -273 q-2 -47 -14.5 -71 q-12.5 -24 -40.5 -34.5 q-28 -10.5 -83 -16.5 l-64 -7 l-27 89 l60 7 q34 4 50 9.5 q16 5.5 23 19 q7 13.5 9 42.5 q4 90 9 225 q5 135 7 222 l-135 0 l-2 -54 q-6 -159 -23 -254 q-17 -95 -62 -176.5 q-45 -81.5 -137 -168.5 l-71 66 q62 56 96 99 q-316 -51 -419 -69 l-13 90 l84 13 l0 662 l331 0 l0 -609 l47 8 l2 -35 l1 -12 q40 67 55.5 152.5 q15.5 85.5 21.5 236.5 l1 51 l-91 0 l0 85 l93 0 l1 90 q0 66 1 87 l89 -4 q2 -17 -2 -173 l223 0 ZM362 533 l0 127 l-157 0 l0 -127 l157 0 ZM205 328 l157 0 l0 122 l-157 0 l0 -122 ZM205 247 l0 -151 l157 26 l0 125 l-157 0 Z" /><glyph glyph-name="uni52BF" unicode="&#x52bf;" d="M949 440 q-10 -49 -27 -93 q-15 -38 -31.5 -55.5 q-16.5 -17.5 -41.5 -17.5 q-29 0 -56.5 25 q-27.5 25 -42.5 77 q-7 25 -12.5 80 q-5.5 55 -5.5 103 l0 59 l-111 0 q-3 -78 -15 -124 q78 -37 113 -57 l-30 -80 q-45 29 -113 63 q-36 -61 -126 -127 l26 -1 q-1 -28 -6 -54 l365 0 q-1 -22 -6.5 -91 q-5.5 -69 -10.5 -109 q-4 -45 -19 -69.5 q-15 -24.5 -47 -36.5 q-32 -12 -94 -17 l-87 -6 l-28 87 l91 6 q38 3 56 8.5 q18 5.5 26.5 18.5 q8.5 13 12.5 40 q6 41 10 91 l-281 0 q-17 -76 -58 -126.5 q-41 -50.5 -116.5 -86 q-75.5 -35.5 -203.5 -68.5 l-37 89 q110 27 172 51.5 q62 24.5 95 57 q33 32.5 47 83.5 l-247 0 l0 78 l261 0 q4 35 5 57 l45 -1 l-52 49 q50 31 81 57.5 q31 26.5 50 55.5 q-46 21 -87 38 l34 70 l52 -22 l29 -13 q8 37 10 89 l-93 0 l0 79 l94 0 l0 103 l85 -3 l-2 -100 l189 0 l0 -130 q0 -50 3.5 -97.5 q3.5 -47.5 9.5 -70.5 q8 -28 25 -28 q12 0 25 38 q7 24 16 64 l59 -33 ZM50 504 q86 13 175 31 l0 86 l-151 0 l0 76 l151 0 l0 103 l87 -3 l0 -100 l108 0 l0 -76 l-108 0 l0 -69 q45 9 82 18 l4 -37 l4 -39 l-90 -19 l0 -98 q0 -37 -10 -56.5 q-10 -19.5 -33.5 -27.5 q-23.5 -8 -68.5 -11 l-68 -6 l-28 76 l68 6 q26 2 36 5 q10 3 13.5 11 q3.5 8 3.5 27 l0 56 l-166 -33 l-9 80 Z" /><glyph glyph-name="uni5305" unicode="&#x5305;" d="M922 108 q-8 -70 -15 -100 q-7 -34 -22.5 -52.5 q-15.5 -18.5 -47 -26.5 q-31.5 -8 -89.5 -11 q-120 -5 -214 -5 q-103 0 -231 5 q-56 3 -87.5 14.5 q-31.5 11.5 -46.5 40 q-15 28.5 -15 83.5 l0 399 q-27 -33 -57 -63 l-74 69 q78 78 140.5 171 q62.5 93 95.5 180 l96 -27 q-10 -25 -32 -73 l505 0 l-9 -474 q-2 -54 -15.5 -82.5 q-13.5 -28.5 -46.5 -42 q-33 -13.5 -98 -19.5 l-59 -6 l-29 91 l69 5 q41 4 57.5 10 q16.5 6 22.5 20.5 q6 14.5 8 51.5 q3 65 5.5 181 q2.5 116 3.5 178 l-461 0 q-35 -58 -70 -105 l379 0 l0 -321 l-343 0 l0 -121 q0 -33 7 -47.5 q7 -14.5 23.5 -19.5 q16.5 -5 53.5 -7 q115 -5 206 -5 q91 0 204 5 q33 2 49.5 7 q16.5 5 24.5 16.5 q8 11.5 12 35.5 q8 46 9 76 l91 -31 ZM498 288 l0 144 l-256 0 l0 -144 l256 0 Z" /><glyph glyph-name="uni5316" unicode="&#x5316;" d="M377 761 q-38 -117 -93 -221 l0 -647 l-94 0 l0 492 q-53 -76 -109 -141 l-55 80 q79 96 150.5 221 q71.5 125 111.5 245 l89 -29 ZM926 163 q-2 -62 -12 -130 q-7 -44 -21 -67.5 q-14 -23.5 -42.5 -35 q-28.5 -11.5 -79.5 -13.5 q-46 -2 -73 -2 q-26 0 -74 2 q-53 2 -82.5 14 q-29.5 12 -43 40 q-13.5 28 -13.5 80 l0 163 q-81 -56 -145 -94 l-47 85 q91 54 192 130 l0 447 l95 -4 l0 -368 q145 124 253 254 l70 -70 q-155 -176 -323 -309 l0 -212 q0 -38 13.5 -50.5 q13.5 -12.5 53.5 -14.5 q18 -1 54 -1 q37 0 53 1 q29 2 43 6.5 q14 4.5 20.5 16 q6.5 11.5 10.5 36.5 q8 51 8 125 l90 -29 Z" /><glyph glyph-name="uni5317" unicode="&#x5317;" d="M315 558 l0 244 l94 -4 l0 -889 l-94 0 l0 180 q-106 -52 -240 -108 l-37 94 q47 17 134 55 q87 38 143 66 l0 268 l-235 0 l0 94 l235 0 ZM929 172 q0 -56 -10 -129 q-6 -44 -19 -66.5 q-13 -22.5 -37.5 -32 q-24.5 -9.5 -69.5 -10.5 l-129 0 q-48 1 -73.5 12.5 q-25.5 11.5 -36.5 37.5 q-11 26 -11 74 l0 743 l95 -4 l0 -304 q123 73 222 155 l56 -85 q-54 -39 -133.5 -91 q-79.5 -52 -144.5 -90 l0 -309 q0 -28 9.5 -38 q9.5 -10 37.5 -11 l84 0 q23 1 34 5.5 q11 4.5 16 14 q5 9.5 9 29.5 q3 22 5 61.5 q2 39.5 2 68.5 l94 -31 Z" /><glyph glyph-name="uni5339" unicode="&#x5339;" d="M213 26 l712 0 l0 -89 l-805 0 l0 808 l796 0 l0 -93 l-240 0 l0 -347 q0 -30 10 -41 q10 -11 38 -11 l24 0 q32 0 41.5 10 q9.5 10 14.5 43 q5 32 7 90 l80 -30 q0 -8 -2 -39 q-2 -31 -7 -63 q-5 -41 -17 -62.5 q-12 -21.5 -37 -30 q-25 -8.5 -73 -8.5 l-60 0 q-58 0 -83.5 25 q-25.5 25 -25.5 87 l0 377 l-115 0 l0 -153 q0 -98 -14.5 -162 q-14.5 -64 -53 -117 q-38.5 -53 -113.5 -111 l-69 62 q73 59 106 102.5 q33 43.5 43 93 q10 49.5 10 138.5 l0 147 l-167 0 l0 -626 Z" /><glyph glyph-name="uni533A" unicode="&#x533a;" d="M221 661 l0 -635 l703 0 l0 -88 l-799 0 l0 814 l779 0 l0 -91 l-683 0 ZM233 135 q127 88 260 220 q-146 146 -219 211 l65 69 q90 -79 223 -209 q102 111 175 218 l78 -59 q-80 -112 -184 -225 q144 -144 216 -221 l-66 -87 q-91 102 -220 234 q-137 -137 -268 -232 l-60 81 Z" /><glyph glyph-name="uni5341" unicode="&#x5341;" d="M536 467 l388 0 l0 -96 l-388 0 l0 -466 l-97 0 l0 466 l-382 0 l0 96 l382 0 l0 337 l97 -3 l0 -334 Z" /><glyph glyph-name="uni5347" unicode="&#x5347;" d="M929 442 l0 -90 l-197 0 l0 -447 l-96 0 l0 447 l-261 0 q-4 -114 -26 -189 q-22 -75 -72 -136 q-50 -61 -143 -130 l-76 75 q94 66 139 115 q45 49 62 107.5 q17 58.5 19 157.5 l-220 0 l0 90 l220 0 l0 195 q-83 -14 -169 -24 l-19 88 q107 11 235.5 34.5 q128.5 23.5 219.5 47.5 l22 -87 q-64 -17 -191 -42 l0 -212 l260 0 l0 357 l96 -3 l0 -354 l197 0 Z" /><glyph glyph-name="uni534E" unicode="&#x534e;" d="M208 529 q-50 -53 -124 -116 l-45 76 q79 70 147.5 153 q68.5 83 118.5 170 l78 -35 q-43 -81 -84 -138 l0 -359 l-91 0 l0 249 ZM304 504 q99 30 191 66 l0 230 l93 -3 l0 -186 q119 55 248 142 l44 -79 q-137 -95 -292 -162 l0 -66 q0 -34 12.5 -45.5 q12.5 -11.5 45.5 -15.5 q36 -2 53 -2 q18 0 52 2 q38 4 51.5 13.5 q13.5 9.5 18.5 33.5 q7 31 10 71 l83 -30 q-3 -39 -14 -81 q-8 -36 -21 -54 q-13 -18 -37.5 -26.5 q-24.5 -8.5 -72.5 -12.5 q-52 -2 -81 -2 q-27 0 -81 2 q-40 3 -64 13.5 q-24 10.5 -36 35 q-12 24.5 -12 69.5 l0 56 q-66 -25 -159 -55 l-32 86 ZM538 196 l389 0 l0 -90 l-389 0 l0 -210 l-94 0 l0 210 l-389 0 l0 90 l389 0 l0 104 l94 -4 l0 -100 Z" /><glyph glyph-name="uni534F" unicode="&#x534f;" d="M891 174 q-15 44 -39 100 q-24 56 -47 102 l-9 -156 l-9 -168 q-4 -56 -16.5 -83.5 q-12.5 -27.5 -39.5 -38.5 q-27 -11 -81 -16 l-64 -6 l-29 93 l64 6 q33 3 47.5 9 q14.5 6 20.5 21.5 q6 15.5 9 50.5 q6 82 15 228 q9 146 14 229 l-145 0 l0 -1 q-5 -170 -26 -278 q-21 -108 -68.5 -193.5 q-47.5 -85.5 -137.5 -179.5 l-75 55 q85 84 129.5 165.5 q44.5 81.5 63.5 178 q19 96.5 28 253.5 l-153 0 l0 89 l156 0 q2 80 2 115 l1 58 l85 -4 q0 -64 -3 -169 l235 0 q0 -18 -11 -211 l52 27 q28 -51 59 -116 q31 -65 46 -108 l-74 -52 ZM327 547 l0 -89 l-100 0 l0 -553 l-87 0 l0 553 l-93 0 l0 89 l93 0 l0 258 l87 -4 l0 -254 l100 0 ZM449 436 q-17 -63 -46 -137 q-29 -74 -58 -136 l-81 36 q32 59 59.5 128 q27.5 69 44.5 135 l81 -26 Z" /><glyph glyph-name="uni5353" unicode="&#x5353;" d="M539 133 l389 0 l0 -79 l-389 0 l0 -152 l-92 0 l0 152 l-393 0 l0 79 l393 0 l0 78 l-282 0 l0 369 l264 0 l0 227 l93 -4 l0 -72 l362 0 l0 -80 l-362 0 l0 -71 l295 0 l0 -369 l-278 0 l0 -78 ZM724 432 l0 68 l-467 0 l0 -68 l467 0 ZM724 357 l-467 0 l0 -68 l467 0 l0 68 Z" /><glyph glyph-name="uni5355" unicode="&#x5355;" d="M919 152 l0 -86 l-381 0 l0 -168 l-92 0 l0 168 l-384 0 l0 86 l384 0 l0 91 l-293 0 l0 436 l167 0 q-38 55 -74 97 l68 48 q23 -25 51.5 -60 q28.5 -35 43.5 -59 l-29 -26 l176 0 q28 34 57.5 74.5 q29.5 40.5 46.5 69.5 l78 -39 q-27 -43 -72 -105 l162 0 l0 -436 l-290 0 l0 -91 l381 0 ZM446 502 l0 96 l-202 0 l0 -96 l202 0 ZM538 502 l197 0 l0 96 l-197 0 l0 -96 ZM244 422 l0 -95 l202 0 l0 95 l-202 0 ZM538 422 l0 -95 l197 0 l0 95 l-197 0 Z" /><glyph glyph-name="uni5357" unicode="&#x5357;" d="M923 625 l-391 0 l0 -84 l328 0 l0 -517 q-1 -47 -10.5 -69 q-9.5 -22 -32 -31 q-22.5 -9 -71.5 -14 l-68 -7 l-26 86 l67 6 q24 2 34 6 q10 4 13 14.5 q3 10.5 3 33.5 l0 409 l-571 0 l0 -544 l-88 0 l0 627 l331 0 l0 84 l-391 0 l0 85 l391 0 l0 95 l91 -3 l0 -92 l391 0 l0 -85 ZM365 326 q-37 52 -64 84 l61 48 q19 -20 44 -52.5 q25 -32.5 40 -56.5 l-25 -23 l89 0 q47 61 90 131 l70 -43 q-14 -22 -63 -88 l113 0 l0 -73 l-192 0 l0 -78 l211 0 l0 -73 l-211 0 l0 -169 l-88 0 l0 169 l-207 0 l0 73 l207 0 l0 78 l-188 0 l0 73 l113 0 Z" /><glyph glyph-name="uni535A" unicode="&#x535a;" d="M944 185 l0 -73 l-138 0 l0 -94 q0 -44 -11 -66.5 q-11 -22.5 -38 -32.5 q-27 -10 -82 -14 l-66 -5 l-27 82 l72 5 q32 3 46 7.5 q14 4.5 19 15.5 q5 11 5 34 l0 68 l-266 0 q71 -51 107 -86 l-46 -71 q-55 55 -134 110 l35 47 l-136 0 l0 73 l440 0 l0 53 l71 -1 l0 30 l-148 0 l0 -43 l-78 0 l0 43 l-140 0 l0 -50 l-81 0 l0 361 l221 0 l0 55 l-244 0 l0 72 l244 0 l0 99 l78 -4 l0 -95 l125 0 q-27 31 -63 67 l52 45 q64 -62 91 -98 l-15 -14 l86 0 l0 -72 l-276 0 l0 -55 l231 0 l0 -361 l-72 0 l0 -32 l138 0 ZM317 569 l0 -92 l-85 0 l0 -573 l-84 0 l0 573 l-101 0 l0 92 l101 0 l0 233 l84 -4 l0 -229 l85 0 ZM569 451 l0 58 l-140 0 l0 -58 l140 0 ZM795 451 l0 58 l-148 0 l0 -58 l148 0 ZM429 387 l0 -54 l140 0 l0 54 l-140 0 ZM647 387 l0 -54 l148 0 l0 54 l-148 0 Z" /><glyph glyph-name="uni5360" unicode="&#x5360;" d="M903 666 l0 -92 l-394 0 l0 -171 l336 0 l0 -495 l-96 0 l0 53 l-510 0 l0 -53 l-94 0 l0 495 l268 0 l0 403 l96 -4 l0 -136 l394 0 ZM239 51 l510 0 l0 259 l-510 0 l0 -259 Z" /><glyph glyph-name="uni5370" unicode="&#x5370;" d="M470 712 q-57 -23 -130 -45.5 q-73 -22.5 -133 -35.5 l0 -173 l250 0 l0 -91 l-250 0 l0 -250 l250 79 l6 -101 q-42 -12 -131.5 -38.5 q-89.5 -26.5 -140.5 -42.5 q-31 -10 -64 -22 l-38 84 q27 22 27 48 l0 582 q67 13 162.5 41 q95.5 28 163.5 54 l28 -89 ZM498 734 l390 0 l0 -580 q0 -49 -13.5 -74 q-13.5 -25 -41 -35.5 q-27.5 -10.5 -79.5 -15.5 l-69 -6 l-30 93 l65 6 q35 3 50 8.5 q15 5.5 20.5 18.5 q5.5 13 5.5 41 l0 453 l-206 0 l0 -738 l-92 0 l0 829 Z" /><glyph glyph-name="uni5371" unicode="&#x5371;" d="M930 564 l0 -84 l-666 0 l0 -134 q0 -150 -31.5 -250 q-31.5 -100 -103.5 -204 l-79 58 q51 69 76.5 122 q25.5 53 36 117.5 q10.5 64.5 10.5 166.5 l0 113 q-28 -24 -60 -48 l-61 69 q92 69 170 157 q78 88 128 178 l86 -36 q-8 -16 -26 -48 l367 0 l0 -71 q-17 -14 -96 -106 l249 0 ZM356 660 q-38 -50 -81 -96 l290 0 q38 46 85 96 l-294 0 ZM821 153 l89 -33 q-3 -53 -15 -101 q-7 -36 -21 -56 q-14 -20 -42.5 -29.5 q-28.5 -9.5 -80.5 -12.5 q-69 -3 -139 -3 q-69 0 -140 3 q-51 3 -79 15 q-28 12 -40.5 39.5 q-12.5 27.5 -12.5 79.5 l0 344 l456 0 l-8 -174 q-3 -46 -16.5 -70 q-13.5 -24 -43 -35.5 q-29.5 -11.5 -87.5 -16.5 l-71 -6 l-28 85 l82 5 q34 2 47.5 5.5 q13.5 3.5 18.5 13.5 q5 10 7 34 q1 15 5 77 l-266 0 l0 -241 q0 -31 4.5 -45 q4.5 -14 17.5 -19.5 q13 -5.5 40 -6.5 q76 -4 113 -4 q38 0 114 4 q44 2 60 14 q16 12 24 46 q9 45 12 88 Z" /><glyph glyph-name="uni5373" unicode="&#x5373;" d="M363 277 q32 -43 77 -114.5 q45 -71.5 73 -125.5 l-70 -55 q-16 37 -48 91 q-74 -35 -206 -91 q-40 -18 -80 -39 l-47 77 q21 13 28 26.5 q7 13.5 7 32.5 l0 682 l370 0 l0 -465 l-287 0 l0 -222 l170 75 q-39 63 -57 89 l70 39 ZM540 743 l340 0 l0 -580 q0 -45 -9.5 -68.5 q-9.5 -23.5 -33.5 -35 q-24 -11.5 -70 -15.5 l-52 -5 l-29 93 l49 6 q27 3 39 8 q12 5 15 14.5 q3 9.5 3 31.5 l0 456 l-165 0 l0 -741 l-87 0 l0 836 ZM383 568 l0 112 l-203 0 l0 -112 l203 0 ZM180 490 l0 -113 l203 0 l0 113 l-203 0 Z" /><glyph glyph-name="uni5378" unicode="&#x5378;" d="M392 625 l0 -128 l162 0 l0 -84 l-162 0 l0 -106 l143 0 l0 -86 l-143 0 l0 -124 l57 9 q22 4 48.5 8 q26.5 4 49.5 8 l2 -52 l1 -36 q-97 -15 -246 -36.5 q-149 -21.5 -256 -36.5 l-8 86 q23 2 83 11 l0 296 l88 -4 l0 -280 q31 4 95 14 l0 329 l-238 0 l0 84 l238 0 l0 128 l-86 0 q-28 -57 -69 -116 l-76 49 q40 54 73.5 121 q33.5 67 57.5 138 l84 -26 q-12 -35 -30 -80 l275 0 l0 -86 l-143 0 ZM577 733 l315 0 l0 -578 q0 -44 -10.5 -67 q-10.5 -23 -33.5 -33.5 q-23 -10.5 -67 -14.5 l-50 -5 l-27 90 l42 4 q29 3 41 7.5 q12 4.5 16 15 q4 10.5 4 35.5 l0 459 l-145 0 l0 -744 l-85 0 l0 831 Z" /><glyph glyph-name="uni5382" unicode="&#x5382;" d="M31 -67 q59 99 85.5 162.5 q26.5 63.5 38.5 150 q12 86.5 12 237.5 l0 260 l752 0 l0 -97 l-655 0 l0 -170 q0 -154 -14 -251.5 q-14 -97.5 -42.5 -170 q-28.5 -72.5 -83.5 -166.5 l-93 45 Z" /><glyph glyph-name="uni5386" unicode="&#x5386;" d="M150 751 l772 0 l0 -91 l-678 0 l0 -252 q0 -119 -12 -202.5 q-12 -83.5 -38.5 -154.5 q-26.5 -71 -74.5 -155 l-88 44 q46 78 71 140 q25 62 36.5 136.5 q11.5 74.5 11.5 183.5 l0 351 ZM565 623 l-2 -141 l305 0 q-4 -80 -11 -217.5 q-7 -137.5 -12 -217.5 q-4 -48 -18.5 -73.5 q-14.5 -25.5 -48.5 -38.5 q-34 -13 -99 -18 l-77 -6 l-32 94 l87 6 q42 3 60 9 q18 6 25 21.5 q7 15.5 10 50.5 q4 56 9.5 150 q5.5 94 7.5 151 l-210 0 q-7 -123 -33.5 -207.5 q-26.5 -84.5 -80 -152.5 q-53.5 -68 -147.5 -141 l-70 67 q89 68 137 127.5 q48 59.5 70.5 130 q22.5 70.5 30.5 176.5 l-178 0 l0 89 l182 0 l2 145 l93 -4 Z" /><glyph glyph-name="uni538B" unicode="&#x538b;" d="M233 660 l0 -182 q0 -167 -10 -264.5 q-10 -97.5 -34.5 -168.5 q-24.5 -71 -74.5 -157 l-90 45 q50 84 73 143.5 q23 59.5 32 145.5 q9 86 9 246 l0 282 l772 0 l0 -90 l-677 0 ZM604 336 l0 -302 l333 0 l0 -89 l-723 0 l0 89 l293 0 l0 302 l-239 0 l0 91 l239 0 l0 201 l97 -4 l0 -197 l272 0 l0 -91 l-272 0 ZM711 310 q32 -28 83 -84 q51 -56 78 -91 l-58 -72 q-25 35 -80 97.5 q-55 62.5 -85 89.5 l62 60 Z" /><glyph glyph-name="uni539F" unicode="&#x539f;" d="M858 225 l-215 0 l0 -205 q0 -41 -11 -62 q-11 -21 -36 -30.5 q-25 -9.5 -75 -14.5 l-64 -6 l-27 85 l56 5 q29 3 41.5 8 q12.5 5 16.5 15.5 q4 10.5 4 33.5 l0 171 l-225 0 l0 366 l181 0 q19 50 29 84 l-293 0 l0 -247 q0 -134 -12.5 -225.5 q-12.5 -91.5 -39.5 -163.5 q-27 -72 -75 -151 l-82 60 q47 79 71.5 139.5 q24.5 60.5 35.5 138.5 q11 78 11 199 l0 334 l776 0 l0 -84 l-294 0 l-26 -84 l253 0 l0 -366 ZM773 447 l0 70 l-364 0 l0 -70 l364 0 ZM773 372 l-364 0 l0 -72 l364 0 l0 72 ZM469 143 q-31 -48 -84.5 -108.5 q-53.5 -60.5 -109.5 -114.5 l-60 68 q51 45 100.5 100.5 q49.5 55.5 83.5 105.5 l70 -51 ZM749 190 q42 -32 98.5 -86 q56.5 -54 97.5 -101 l-57 -67 q-38 49 -94 105 q-56 56 -102 95 l57 54 Z" /><glyph glyph-name="uni53BB" unicode="&#x53bb;" d="M494 294 q-44 -66 -108.5 -141.5 q-64.5 -75.5 -108.5 -115.5 l419 17 q-82 101 -130 153 l66 56 q54 -55 130 -144 q76 -89 119 -150 l-69 -70 q-28 40 -49 68 l-25 -1 q-206 -7 -380 -15 q-147 -10 -218 -17 l-29 93 q27 7 41 15.5 q14 8.5 31 23.5 q31 27 91.5 96.5 q60.5 69.5 104.5 131.5 l-327 0 l0 90 l390 0 l0 182 l-318 0 l0 89 l318 0 l0 156 l89 -4 l0 -152 l323 0 l0 -89 l-323 0 l0 -182 l394 0 l0 -90 l-431 0 Z" /><glyph glyph-name="uni53C2" unicode="&#x53c2;" d="M668 423 q101 -106 283 -168 l-41 -88 q-116 51 -201 112.5 q-85 61.5 -143 143.5 l-157 0 q-54 -73 -130 -128.5 q-76 -55.5 -205 -120.5 l-46 74 q91 39 155.5 81 q64.5 42 111.5 94 l-222 0 l0 77 l280 0 q19 29 41 75 l-96 -3 l-111 -6 l-26 -1 l-19 74 q17 2 29.5 7 q12.5 5 32.5 14 q34 19 102.5 71.5 q68.5 52.5 118.5 96.5 l63 -57 q-101 -84 -183 -129 l357 11 q-50 38 -90 64 l49 63 q173 -123 249 -187 l-41 -72 q-30 26 -77 63 q-54 -2 -121 -3.5 q-67 -1.5 -134 -3.5 q-37 0 -103 -2 l91 -23 q-18 -36 -27 -52 l448 0 l0 -77 l-238 0 ZM603 303 q-151 -73 -344 -119 l-26 76 q195 42 338 113 l32 -70 ZM168 111 q155 27 275.5 68.5 q120.5 41.5 229.5 100.5 l36 -74 q-103 -56 -225 -96.5 q-122 -40.5 -288 -74.5 l-28 76 ZM115 -34 q237 35 388 82.5 q151 47.5 287 124.5 l41 -73 q-140 -76 -299.5 -126.5 q-159.5 -50.5 -387.5 -87.5 l-29 80 Z" /><glyph glyph-name="uni53C8" unicode="&#x53c8;" d="M901 -107 q-136 55 -235.5 110.5 q-99.5 55.5 -172.5 119.5 q-77 -60 -177 -114 q-100 -54 -233 -108 l-48 96 q129 53 222 101.5 q93 48.5 161 98.5 q-75 84 -128 194 q-53 110 -97 263 l-78 0 l0 95 l700 0 l0 -95 q-47 -156 -105 -266.5 q-58 -110.5 -142 -196.5 q68 -55 159 -103 q91 -48 213 -93 l-39 -102 ZM294 654 q40 -131 87 -226 q47 -95 113 -167 q75 72 125.5 164.5 q50.5 92.5 93.5 228.5 l-419 0 Z" /><glyph glyph-name="uni53CA" unicode="&#x53ca;" d="M892 -104 q-178 85 -302 184 q-127 -102 -342 -192 l-48 88 q202 77 320 166 q-120 117 -185 268 q-20 -144 -73.5 -260 q-53.5 -116 -154.5 -245 l-78 57 q75 90 121.5 169 q46.5 79 72 168.5 q25.5 89.5 32.5 203.5 l8 160 l-155 0 l0 88 l656 0 l0 -90 l-110 -158 l186 0 l0 -87 q-37 -83 -80.5 -149.5 q-43.5 -66.5 -99.5 -123.5 q117 -88 285 -156 l-53 -91 ZM589 202 q91 88 151 214 l-202 0 l0 80 l113 167 l-300 0 q0 -15 -2 -51 q38 -130 97 -230.5 q59 -100.5 143 -179.5 Z" /><glyph glyph-name="uni53CC" unicode="&#x53cc;" d="M377 55 q-30 59 -78 146 q-67 -122 -204 -284 l-64 72 q143 158 215 303 q-78 134 -160 260 l69 47 q51 -74 134 -210 q43 116 64 265 l-278 0 l0 88 l363 0 l0 -88 q-14 -107 -36.5 -194 q-22.5 -87 -56.5 -165 q70 -120 103 -185 l-71 -55 ZM956 -25 l-57 -81 q-146 124 -225 236 q-92 -117 -252 -235 l-59 78 q88 60 151.5 116.5 q63.5 56.5 109.5 118.5 q-52 92 -82 199.5 q-30 107.5 -45 249.5 l-29 0 l0 85 l406 0 l0 -86 q-23 -144 -58 -251.5 q-35 -107.5 -89 -195.5 q83 -121 229 -234 ZM581 657 q12 -111 35.5 -200 q23.5 -89 61.5 -164 q39 72 65.5 160.5 q26.5 88.5 44.5 203.5 l-207 0 Z" /><glyph glyph-name="uni53CD" unicode="&#x53cd;" d="M901 -112 q-207 78 -331 171 q-64 -47 -145.5 -88 q-81.5 -41 -190.5 -83 l-53 93 q191 63 312 144 q-122 122 -189 304 l-39 0 q0 -133 -14.5 -220 q-14.5 -87 -45 -157.5 q-30.5 -70.5 -88.5 -160.5 l-87 54 q61 88 90.5 151.5 q29.5 63.5 41.5 143 q12 79.5 12 212.5 l0 264 q152 6 341 22.5 q189 16.5 339 39.5 l17 -95 q-144 -20 -305 -35 q-161 -15 -301 -22 l0 -105 l576 0 l0 -92 q-39 -98 -86 -172 q-47 -74 -108 -133 q123 -85 301 -137 l-47 -99 ZM404 429 q55 -142 166 -244 q106 96 165 244 l-331 0 Z" /><glyph glyph-name="uni53D1" unicode="&#x53d1;" d="M757 627 q-26 21 -80.5 54.5 q-54.5 33.5 -89.5 50.5 l45 76 q33 -15 86 -46 q53 -31 82 -53 l-43 -82 ZM894 -111 q-211 70 -339 159 q-63 -41 -146.5 -77.5 q-83.5 -36.5 -197.5 -75.5 l-40 90 q193 58 307 124 q-80 73 -137 174 q-44 -90 -106 -174.5 q-62 -84.5 -150 -174.5 l-68 72 q118 115 193.5 241 q75.5 126 118.5 281 l-220 0 l0 78 q10 26 24 81.5 q14 55.5 22 96.5 l89 -20 q-7 -30 -7 -32 q-4 -16 -14 -58.5 q-10 -42.5 -16 -60.5 l143 0 q19 93 29 184 l93 -7 q-14 -112 -27 -177 l462 0 l0 -85 l-480 0 q-15 -61 -31 -108 l412 0 l0 -82 q-39 -74 -81 -129.5 q-42 -55.5 -93 -100.5 q116 -72 299 -125 l-39 -94 ZM413 337 q59 -103 146 -174 q90 70 144 174 l-290 0 Z" /><glyph glyph-name="uni53D6" unicode="&#x53d6;" d="M950 -8 l-58 -74 q-119 102 -187 197 q-72 -101 -183 -199 l-61 70 q127 105 195 209 q-44 84 -71 187 q-27 103 -43 246 l-33 0 l0 49 l-53 0 l0 -509 q63 11 78 15 l2 -41 l2 -46 q-42 -7 -82 -15 l0 -180 l-83 0 l0 165 l-115 -21 q-174 -32 -208 -37 l-8 90 q28 3 92 14 l0 565 l-57 0 l0 87 l442 0 l0 -46 l363 0 l0 -90 q-22 -142 -51 -244 q-29 -102 -75 -187 q66 -102 194 -205 ZM217 551 l156 0 l0 126 l-156 0 l0 -126 ZM623 628 q22 -209 83 -342 q31 68 51.5 149.5 q20.5 81.5 38.5 192.5 l-173 0 ZM217 347 l156 0 l0 123 l-156 0 l0 -123 ZM217 125 l156 27 l0 113 l-156 0 l0 -140 Z" /><glyph glyph-name="uni53D7" unicode="&#x53d7;" d="M174 435 l0 -126 l-82 0 l0 206 l155 0 q-14 29 -35 65 q-21 36 -33 53 l50 29 q-35 -2 -108 -4 l-12 79 q178 5 390 18 q212 13 341 29 l19 -82 l-106 -9 l62 -29 q-45 -83 -89 -149 l160 0 l0 -206 l-81 0 l0 126 l-631 0 ZM672 515 l-33 19 q21 30 49.5 76 q28.5 46 46.5 81 l-69 -5 q-96 -7 -166 -11 q18 -30 38.5 -69 q20.5 -39 29.5 -61 l-47 -30 l151 0 ZM331 542 l-41 -27 l198 0 q-16 33 -38 73.5 q-22 40.5 -34 57.5 l53 27 q-114 -6 -167 -8 l-43 -2 q18 -26 39.5 -62 q21.5 -36 32.5 -59 ZM907 -101 q-134 26 -232.5 57.5 q-98.5 31.5 -175.5 73.5 q-155 -77 -423 -135 l-32 89 q234 44 368 103 q-89 68 -163 172 l-46 0 l0 80 l577 0 l0 -80 q-81 -106 -194 -179 q127 -58 352 -92 l-31 -89 ZM354 259 q64 -81 141 -130 q91 52 157 130 l-298 0 Z" /><glyph glyph-name="uni53D8" unicode="&#x53d8;" d="M348 374 l0 249 l-266 0 l0 84 l367 0 q-14 51 -29 92 l91 16 q15 -41 36 -108 l351 0 l0 -84 l-265 0 l0 -249 l-85 0 l0 249 l-115 0 l0 -249 l-85 0 ZM316 532 q-39 -46 -100 -103 q-61 -57 -118 -99 l-51 70 q58 41 115.5 92 q57.5 51 96.5 96 l57 -56 ZM718 588 q37 -26 104 -80.5 q67 -54.5 107 -91.5 l-51 -73 q-42 41 -105.5 95.5 q-63.5 54.5 -106.5 86.5 l52 63 ZM903 -98 q-148 32 -245 59 q-97 27 -171 61 q-141 -61 -413 -123 l-32 86 q216 38 350 90 q-99 65 -177 182 l-70 0 l0 80 l638 0 l0 -78 q-41 -59 -89 -104.5 q-48 -45.5 -110 -82.5 q61 -22 143.5 -40.5 q82.5 -18.5 208.5 -40.5 l-33 -89 ZM323 257 q36 -48 74.5 -82 q38.5 -34 86.5 -60 q114 59 181 142 l-342 0 Z" /><glyph glyph-name="uni53E3" unicode="&#x53e3;" d="M139 -84 l0 799 l702 0 l0 -794 l-97 0 l0 81 l-509 0 l0 -86 l-96 0 ZM235 618 l0 -522 l509 0 l0 522 l-509 0 Z" /><glyph glyph-name="uni53E5" unicode="&#x53e5;" d="M861 704 l-11 -646 q-1 -59 -17 -88.5 q-16 -29.5 -54 -43 q-38 -13.5 -113 -18.5 l-79 -6 l-33 99 l84 6 q51 3 74.5 11.5 q23.5 8.5 31.5 26.5 q8 18 10 56 q3 90 6.5 252.5 q3.5 162.5 4.5 253.5 l-485 0 q-39 -64 -85 -121 l405 0 l0 -427 l-431 0 l0 394 q-42 -48 -78 -86 l-65 77 q80 82 147.5 179 q67.5 97 106.5 189 l95 -23 q-12 -29 -40 -85 l526 0 ZM507 394 l-246 0 l0 -241 l246 0 l0 241 Z" /><glyph glyph-name="uni53E6" unicode="&#x53e6;" d="M851 320 q-4 -50 -10.5 -133 q-6.5 -83 -11.5 -138 q-5 -49 -22.5 -76.5 q-17.5 -27.5 -56 -41 q-38.5 -13.5 -107.5 -17.5 l-93 -5 l-29 91 l105 6 q49 3 71 10 q22 7 31 23 q9 16 14 52 q3 19 6.5 67 q3.5 48 5.5 74 l-333 0 q-16 -77 -50.5 -134 q-34.5 -57 -101 -107.5 q-66.5 -50.5 -177.5 -103.5 l-51 83 q99 45 156.5 84 q57.5 39 87 80.5 q29.5 41.5 43.5 97.5 l-259 0 l0 88 l273 0 q1 2 1 6 q6 62 7 99 l-192 0 l0 339 l661 0 l0 -339 l-378 0 l-3 -38 q-2 -44 -4 -62 l0 -5 l417 0 ZM728 676 l-479 0 l0 -165 l479 0 l0 165 Z" /><glyph glyph-name="uni53EA" unicode="&#x53ea;" d="M162 272 l0 478 l654 0 l0 -478 l-654 0 ZM722 661 l-467 0 l0 -299 l467 0 l0 299 ZM35 -22 q75 47 157 118.5 q82 71.5 139 140.5 l72 -70 q-51 -65 -135 -141.5 q-84 -76.5 -163 -132.5 l-70 85 ZM645 236 q61 -47 146 -122 q85 -75 136 -126 l-63 -91 q-50 56 -136.5 135.5 q-86.5 79.5 -149.5 128.5 l67 75 Z" /><glyph glyph-name="uni53EB" unicode="&#x53eb;" d="M770 797 l87 -3 l0 -889 l-87 0 l0 303 q-148 -56 -202 -79 q-26 -9 -56 -26 l-42 91 q18 9 22.5 19 q4.5 10 4.5 30 l0 467 l88 -4 l0 -464 l185 68 l0 487 ZM409 31 l-310 0 l0 695 l310 0 l0 -695 ZM323 638 l-134 0 l0 -516 l134 0 l0 516 Z" /><glyph glyph-name="uni53EF" unicode="&#x53ef;" d="M932 746 l0 -89 l-127 0 l0 -611 q0 -54 -11 -80 q-11 -26 -39 -37 q-28 -11 -88 -16 l-75 -7 l-29 90 l82 7 q31 2 45 8 q14 6 19 19.5 q5 13.5 5 42.5 l0 584 l-655 0 l0 89 l873 0 ZM560 101 l-397 0 l0 431 l397 0 l0 -431 ZM474 443 l-223 0 l0 -254 l223 0 l0 254 Z" /><glyph glyph-name="uni53F0" unicode="&#x53f0;" d="M638 721 q55 -50 135.5 -133.5 q80.5 -83.5 129.5 -143.5 l-61 -70 q-27 34 -54 65 q-291 -7 -488 -16 q-126 -5 -203 -13 l-23 94 q33 6 49.5 12 q16.5 6 31.5 18 q54 40 137.5 130.5 q83.5 90.5 127.5 157.5 l81 -47 q-50 -69 -120 -145.5 q-70 -76.5 -118 -115.5 l444 15 q-75 81 -133 134 l64 58 ZM255 -99 l-92 0 l0 421 l652 0 l0 -421 l-93 0 l0 48 l-467 0 l0 -48 ZM722 34 l0 199 l-467 0 l0 -199 l467 0 Z" /><glyph glyph-name="uni53F3" unicode="&#x53f3;" d="M924 586 l-459 0 q-46 -98 -114 -189 l487 0 l0 -487 l-96 0 l0 59 l-405 0 l0 -59 l-94 0 l0 358 q-72 -78 -168 -159 l-48 96 q213 158 326 381 l-277 0 l0 92 l317 0 q24 64 40 129 l105 -16 q-11 -47 -34 -113 l420 0 l0 -92 ZM337 58 l405 0 l0 246 l-405 0 l0 -246 Z" /><glyph glyph-name="uni53F7" unicode="&#x53f7;" d="M177 761 l623 0 l0 -271 l-623 0 l0 271 ZM274 569 l432 0 l0 112 l-432 0 l0 -112 ZM930 334 l-603 0 l-17 -87 l480 0 q-3 -38 -7.5 -95 q-4.5 -57 -8.5 -95 q-6 -61 -23 -90 q-17 -29 -56 -41.5 q-39 -12.5 -121 -17.5 l-119 -7 l-27 92 l125 5 q53 3 75.5 8.5 q22.5 5.5 31.5 21 q9 15.5 12 50.5 q9 65 10 89 l-493 0 l36 167 l-175 0 l0 80 l880 0 l0 -80 Z" /><glyph glyph-name="uni53F8" unicode="&#x53f8;" d="M131 759 l734 0 l0 -726 q0 -44 -12 -68 q-12 -24 -40.5 -35.5 q-28.5 -11.5 -82.5 -15.5 l-99 -7 l-29 89 l90 6 q37 3 52 7.5 q15 4.5 20 17.5 q5 13 5 45 l0 596 l-638 0 l0 91 ZM72 482 l0 87 l645 0 l0 -87 l-645 0 ZM159 28 l0 359 l466 0 l0 -359 l-466 0 ZM530 299 l-276 0 l0 -181 l276 0 l0 181 Z" /><glyph glyph-name="uni53F9" unicode="&#x53f9;" d="M955 -16 l-58 -83 q-153 109 -248 224 q-101 -115 -275 -233 l-60 82 q184 120 279 230 q-58 91 -93 198 q-35 107 -57 247 l-34 0 l0 89 l467 0 l0 -88 q-26 -143 -65 -250 q-39 -107 -102 -198 q87 -108 246 -218 ZM89 726 l287 0 l0 -682 l-287 0 l0 682 ZM533 649 q18 -114 46 -202.5 q28 -88.5 73 -163.5 q49 75 80 164 q31 89 49 202 l-248 0 ZM175 137 l113 0 l0 498 l-113 0 l0 -498 Z" /><glyph glyph-name="uni5404" unicode="&#x5404;" d="M938 379 l-32 -94 q-128 25 -229.5 56.5 q-101.5 31.5 -184.5 72.5 q-174 -85 -425 -143 l-35 92 q194 35 364 106 q-74 46 -144 112 q-57 -54 -135 -114 l-55 70 q79 55 154.5 133 q75.5 78 119.5 148 l91 -29 q-23 -34 -39 -55 l431 0 l0 -82 q-100 -108 -230 -185 q137 -55 349 -88 ZM491 512 q131 67 204 140 l-375 0 q-1 -2 -5 -6 q79 -80 176 -134 ZM273 -96 l-92 0 l0 382 l613 0 l0 -382 l-90 0 l0 51 l-431 0 l0 -51 ZM704 35 l0 168 l-431 0 l0 -168 l431 0 Z" /><glyph glyph-name="uni5408" unicode="&#x5408;" d="M529 808 q67 -105 177.5 -189.5 q110.5 -84.5 245.5 -146.5 l-47 -92 q-93 47 -177 104 l0 -67 l-480 0 l0 66 q-80 -55 -178 -105 l-42 93 q141 67 252 155 q111 88 170 182 l79 0 ZM701 503 q-132 96 -212 210 q-75 -109 -213 -210 l425 0 ZM270 -90 l-96 0 l0 398 l628 0 l0 -399 l-92 0 l0 45 l-440 0 l0 -44 ZM710 37 l0 188 l-440 0 l0 -188 l440 0 Z" /><glyph glyph-name="uni540C" unicode="&#x540c;" d="M99 754 l770 0 l0 -713 q0 -50 -12.5 -76 q-12.5 -26 -41.5 -37.5 q-29 -11.5 -86 -15.5 l-72 -5 l-27 84 l77 5 q32 2 46.5 7 q14.5 5 19 17 q4.5 12 4.5 38 l0 610 l-588 0 l0 -757 l-90 0 l0 843 ZM244 485 l0 81 l481 0 l0 -81 l-481 0 ZM295 65 l0 325 l376 0 l0 -325 l-376 0 ZM589 311 l-212 0 l0 -168 l212 0 l0 168 Z" /><glyph glyph-name="uni540D" unicode="&#x540d;" d="M857 623 q-152 -177 -394 -301 l385 0 l0 -413 l-90 0 l0 49 l-430 0 l0 -49 l-90 0 l0 316 q-96 -36 -172 -58 l-37 84 q483 139 705 372 l-353 0 q-37 -37 -45 -44 q81 -60 127 -101 l-67 -65 q-46 46 -128 105 q-60 -48 -126 -93 l-57 77 q94 58 189 147.5 q95 89.5 151 168.5 l84 -36 q-26 -38 -53 -73 l401 0 l0 -86 ZM328 39 l430 0 l0 198 l-430 0 l0 -198 Z" /><glyph glyph-name="uni540E" unicode="&#x540e;" d="M248 521 l669 0 l0 -85 l-669 0 q-1 -116 -15.5 -200.5 q-14.5 -84.5 -46 -159 q-31.5 -74.5 -87.5 -162.5 l-79 53 q57 84 86.5 152 q29.5 68 42 151 q12.5 83 12.5 210 l0 248 q163 2 340 16.5 q177 14.5 328 38.5 l23 -93 q-125 -19 -290.5 -32 q-165.5 -13 -313.5 -19 l0 -118 ZM389 -95 l-87 0 l0 408 l529 0 l0 -408 l-90 0 l0 59 l-352 0 l0 -59 ZM741 45 l0 186 l-352 0 l0 -186 l352 0 Z" /><glyph glyph-name="uni5411" unicode="&#x5411;" d="M865 686 l0 -658 q0 -43 -11.5 -65 q-11.5 -22 -40 -32 q-28.5 -10 -85.5 -15 l-69 -6 l-29 93 l77 5 q30 2 43 7 q13 5 17.5 15.5 q4.5 10.5 4.5 32.5 l0 534 l-578 0 l0 -676 l-92 0 l0 765 l260 0 q34 79 50 133 l110 -16 q-10 -31 -46 -117 l389 0 ZM298 477 l370 0 l0 -383 l-370 0 l0 383 ZM388 182 l191 0 l0 206 l-191 0 l0 -206 Z" /><glyph glyph-name="uni5426" unicode="&#x5426;" d="M448 333 l0 203 q-142 -114 -356 -213 l-45 90 q253 98 414 253 l-358 0 l0 85 l775 0 l0 -85 l-294 0 q-22 -25 -46 -49 l0 -284 l-90 0 ZM598 597 q71 -32 171.5 -85.5 q100.5 -53.5 157.5 -89.5 l-37 -89 q-59 41 -159 97 q-100 56 -173 91 l40 76 ZM265 -87 l-90 0 l0 394 l632 0 l0 -394 l-92 0 l0 50 l-450 0 l0 -50 ZM715 46 l0 173 l-450 0 l0 -173 l450 0 Z" /><glyph glyph-name="uni542B" unicode="&#x542b;" d="M533 819 q146 -175 410 -278 l-38 -88 q-128 54 -239.5 130 q-111.5 76 -172.5 156 q-64 -81 -171.5 -156.5 q-107.5 -75.5 -244.5 -136.5 l-39 87 q142 60 242 128 q100 68 174 158 l79 0 ZM767 398 q-22 -27 -121 -128 l167 0 l0 -358 l-92 0 l0 47 l-459 0 l0 -47 l-91 0 l0 358 l422 0 l-37 30 q61 59 93 98 l-446 0 l0 79 l303 0 q-54 68 -103 114 l60 56 q58 -53 110 -119 l-45 -51 l239 0 l0 -79 ZM262 37 l459 0 l0 153 l-459 0 l0 -153 Z" /><glyph glyph-name="uni542C" unicode="&#x542c;" d="M941 458 l0 -93 l-155 0 l0 -460 l-91 0 l0 460 l-148 0 q-3 -121 -17 -197.5 q-14 -76.5 -45 -138 q-31 -61.5 -91 -135.5 l-72 59 q62 76 88.5 129.5 q26.5 53.5 35 122 q8.5 68.5 9.5 203.5 l2 304 q110 10 216.5 28.5 q106.5 18.5 190.5 42.5 l22 -94 q-67 -20 -160 -37 q-93 -17 -178 -25 l-1 -169 l394 0 ZM93 715 l273 0 l0 -664 l-273 0 l0 664 ZM177 141 l104 0 l0 486 l-104 0 l0 -486 Z" /><glyph glyph-name="uni542F" unicode="&#x542f;" d="M878 710 l0 -303 l-624 0 q-4 -142 -40 -246.5 q-36 -104.5 -119 -234.5 l-79 59 q55 81 85.5 147.5 q30.5 66.5 44.5 145 q14 78.5 14 188.5 l0 244 l325 0 q-13 47 -30 91 l92 15 q24 -66 36 -106 l295 0 ZM254 493 l531 0 l0 133 l-531 0 l0 -133 ZM370 -102 l-92 0 l0 398 l585 0 l0 -398 l-94 0 l0 56 l-399 0 l0 -56 ZM769 34 l0 180 l-399 0 l0 -180 l399 0 Z" /><glyph glyph-name="uni5438" unicode="&#x5438;" d="M954 -19 l-49 -85 q-135 91 -215 178 q-91 -98 -239 -184 l-55 73 q150 80 239 175 q-70 94 -113 209 q-15 -129 -57.5 -229.5 q-42.5 -100.5 -131.5 -211.5 l-71 54 q38 45 66 87 l-239 0 l0 673 l265 0 l-1 -633 q52 88 74 182.5 q22 94.5 28 235.5 l4 99 q0 27 2 67 l-64 0 l0 83 l432 0 l0 -83 l-69 -167 l121 0 l0 -83 q-58 -171 -136 -280 q78 -83 209 -160 ZM690 205 q64 89 107 216 l-130 0 l0 75 l76 175 l-204 0 q0 -54 -3 -113 q49 -213 154 -353 ZM172 133 l99 0 l0 503 l-99 0 l0 -503 Z" /><glyph glyph-name="uni543C" unicode="&#x543c;" d="M947 159 q-2 -22 -2 -37 q-3 -57 -9 -100 q-5 -40 -16 -61 q-11 -21 -34.5 -30 q-23.5 -9 -67.5 -9 l-38 0 q-57 0 -81.5 24 q-24.5 24 -24.5 87 l0 756 l84 -4 l0 -732 q0 -28 7.5 -37 q7.5 -9 31.5 -9 l21 0 q22 0 29 10 q7 10 11 42 q6 42 9 128 l80 -28 ZM641 337 q-22 -7 -116 -35 l0 -266 q0 -52 -9.5 -76 q-9.5 -24 -33 -34 q-23.5 -10 -75.5 -15 l-56 -5 l-27 85 l52 4 q30 3 43.5 8.5 q13.5 5.5 18 16.5 q4.5 11 4.5 36 l0 222 l-35 -10 l-57 -15 l-14 84 q20 5 106 28 l0 132 l101 164 l-185 0 l0 84 l275 0 l0 -89 l-108 -172 l0 -96 l43 13 q45 13 65 20 l8 -84 ZM321 36 l-238 0 l0 684 l238 0 l0 -684 ZM241 635 l-77 0 l0 -514 l77 0 l0 514 Z" /><glyph glyph-name="uni544A" unicode="&#x544a;" d="M549 453 l378 0 l0 -89 l-869 0 l0 89 l398 0 l0 129 l-209 0 q-30 -58 -67 -112 l-80 51 q92 129 137 262 l86 -27 q-15 -44 -33 -85 l166 0 l0 129 l93 -4 l0 -125 l310 0 l0 -89 l-310 0 l0 -129 ZM262 -101 l-92 0 l0 374 l644 0 l0 -374 l-94 0 l0 42 l-458 0 l0 -42 ZM720 27 l0 156 l-458 0 l0 -156 l458 0 Z" /><glyph glyph-name="uni5450" unicode="&#x5450;" d="M682 658 l215 0 l0 -637 q0 -45 -9 -66.5 q-9 -21.5 -33 -30.5 q-24 -9 -77 -14 l-49 -4 l-27 85 l54 4 q27 2 39.5 8 q12.5 6 16 19.5 q3.5 13.5 3.5 41.5 l0 98 l-52 -42 q-37 86 -112 213 q-18 -57 -47.5 -107 q-29.5 -50 -76.5 -110 l-46 39 l0 -245 l-80 0 l0 748 l200 0 l0 142 l81 -3 l0 -139 ZM335 38 l-243 0 l0 657 l243 0 l0 -657 ZM255 609 l-84 0 l0 -485 l84 0 l0 485 ZM481 195 q50 64 75.5 117.5 q25.5 53.5 34.5 111.5 q9 58 10 147 l-120 0 l0 -376 ZM815 196 l0 375 l-133 0 q0 -71 -8 -133 q32 -48 73.5 -119 q41.5 -71 67.5 -123 Z" /><glyph glyph-name="uni5458" unicode="&#x5458;" d="M193 510 l0 258 l594 0 l0 -258 l-594 0 ZM693 687 l-406 0 l0 -98 l406 0 l0 98 ZM161 104 l0 330 l658 0 l0 -326 l-92 0 l0 240 l-473 0 l0 -244 l-93 0 ZM55 -17 q178 33 267.5 81 q89.5 48 107.5 127 q12 45 17 118 l94 -4 q-2 -23 -8.5 -70 q-6.5 -47 -13.5 -79 q-19 -85 -125.5 -153.5 q-106.5 -68.5 -306.5 -110.5 l-32 91 ZM549 139 q227 -89 356 -153 l-34 -93 q-182 95 -358 167 l36 79 Z" /><glyph glyph-name="uni5462" unicode="&#x5462;" d="M882 460 l-387 0 q-1 -140 -12 -230.5 q-11 -90.5 -37 -164 q-26 -73.5 -76 -165.5 l-79 53 q51 86 75.5 152.5 q24.5 66.5 34 148 q9.5 81.5 9.5 217.5 l0 290 l472 0 l0 -301 ZM89 726 l247 0 l0 -658 l-247 0 l0 658 ZM796 546 l0 130 l-301 0 l0 -130 l301 0 ZM167 160 l88 0 l0 476 l-88 0 l0 -476 ZM925 130 q-5 -75 -11 -111 q-7 -50 -33.5 -69 q-26.5 -19 -91.5 -23 q-40 -2 -61 -2 q-19 0 -61 2 q-60 3 -85.5 28 q-25.5 25 -25.5 83 l0 389 l82 -3 l0 -172 q57 35 119 77.5 q62 42.5 97 72.5 l47 -76 q-46 -35 -124 -85 q-78 -50 -139 -84 l0 -92 q0 -32 10.5 -42.5 q10.5 -10.5 43.5 -12.5 l42 -1 l41 1 q25 2 36.5 6 q11.5 4 17 14.5 q5.5 10.5 9.5 34.5 q5 28 7 94 l80 -29 Z" /><glyph glyph-name="uni5468" unicode="&#x5468;" d="M145 766 l725 0 l0 -729 q0 -49 -12.5 -74.5 q-12.5 -25.5 -40.5 -36.5 q-28 -11 -83 -16 l-57 -6 l-28 81 l59 5 q34 3 48.5 7.5 q14.5 4.5 20 16 q5.5 11.5 5.5 37.5 l0 632 l-549 0 l0 -291 q0 -129 -10.5 -210.5 q-10.5 -81.5 -34 -143 q-23.5 -61.5 -68.5 -142.5 l-85 45 q45 76 67.5 133.5 q22.5 57.5 32.5 137.5 q10 80 10 214 l0 340 ZM257 349 l0 74 l200 0 l0 88 l-167 0 l0 75 l167 0 l0 78 l84 -4 l0 -74 l171 0 l0 -75 l-171 0 l0 -88 l205 0 l0 -74 l-489 0 ZM317 281 l370 0 l0 -265 l-370 0 l0 265 ZM398 94 l207 0 l0 108 l-207 0 l0 -108 Z" /><glyph glyph-name="uni5473" unicode="&#x5473;" d="M685 344 q42 -79 114 -156.5 q72 -77.5 162 -145.5 l-62 -70 q-72 59 -135 131 q-63 72 -106 148 l0 -346 l-86 0 l0 335 q-40 -73 -94 -138.5 q-54 -65.5 -134 -138.5 l-65 68 l41 34 l-237 0 l0 638 l256 0 l0 -622 q69 62 119 126 q50 64 88 137 l-177 0 l0 86 l203 0 l0 152 l-167 0 l0 89 l167 0 l0 132 l86 -3 l0 -129 l208 0 l0 -89 l-208 0 l0 -152 l247 0 l0 -86 l-220 0 ZM168 155 l87 0 l0 460 l-87 0 l0 -460 Z" /><glyph glyph-name="uni547D" unicode="&#x547d;" d="M531 816 q69 -77 178.5 -151 q109.5 -74 244.5 -135 l-41 -88 q-90 44 -173 95 l0 -69 l-502 0 l0 70 q-83 -51 -170 -95 l-42 90 q135 61 244.5 134 q109.5 73 175.5 149 l85 0 ZM711 555 q-141 90 -221 178 q-74 -83 -224 -178 l445 0 ZM503 -99 l0 487 l349 0 l0 -263 q0 -50 -10.5 -74.5 q-10.5 -24.5 -35.5 -35 q-25 -10.5 -77 -15.5 l-45 -5 l-29 88 l47 5 q29 3 41.5 8 q12.5 5 16.5 16 q4 11 4 35 l0 158 l-175 0 l0 -404 l-86 0 ZM431 -4 l-299 0 l0 388 l299 0 l0 -388 ZM345 301 l-128 0 l0 -220 l128 0 l0 220 Z" /><glyph glyph-name="uni548C" unicode="&#x548c;" d="M345 383 q30 -27 76.5 -75 q46.5 -48 71.5 -79 l-60 -72 q-19 27 -54 67.5 q-35 40.5 -65 72.5 l0 -397 l-87 0 l0 402 q-71 -132 -151 -228 l-49 86 q52 61 102.5 137.5 q50.5 76.5 86.5 152.5 l-154 0 l0 90 l165 0 l0 114 q-86 -15 -143 -22 l-12 87 q81 9 185.5 28.5 q104.5 19.5 179.5 40.5 l16 -86 q-55 -16 -139 -32 l0 -130 l158 0 l0 -90 l-158 0 l0 -99 l31 32 ZM511 -72 l0 788 l372 0 l0 -782 l-87 0 l0 67 l-196 0 l0 -73 l-89 0 ZM600 621 l0 -527 l196 0 l0 527 l-196 0 Z" /><glyph glyph-name="uni54B1" unicode="&#x54b1;" d="M879 697 l0 -791 l-90 0 l0 60 l-279 0 l0 -60 l-90 0 l0 791 l145 0 q21 59 33 106 l98 -15 q-7 -25 -30 -91 l213 0 ZM351 12 l-262 0 l0 699 l262 0 l0 -699 ZM262 621 l-85 0 l0 -515 l85 0 l0 515 ZM789 483 l0 127 l-279 0 l0 -127 l279 0 ZM789 271 l0 123 l-279 0 l0 -123 l279 0 ZM510 183 l0 -131 l279 0 l0 131 l-279 0 Z" /><glyph glyph-name="uni54C1" unicode="&#x54c1;" d="M195 775 l583 0 l0 -336 l-583 0 l0 336 ZM286 525 l401 0 l0 164 l-401 0 l0 -164 ZM179 -77 l-86 0 l0 424 l354 0 l0 -424 l-86 0 l0 55 l-182 0 l0 -55 ZM521 -77 l0 424 l359 0 l0 -424 l-86 0 l0 55 l-187 0 l0 -55 l-86 0 ZM361 61 l0 203 l-182 0 l0 -203 l182 0 ZM607 263 l0 -202 l187 0 l0 202 l-187 0 Z" /><glyph glyph-name="uni54C8" unicode="&#x54c8;" d="M666 809 q43 -94 116 -177.5 q73 -83.5 168 -153.5 l-50 -79 q-62 49 -107 93 l0 -77 l-326 0 l0 62 q-43 -43 -84 -74 l-29 40 l0 -418 l-267 0 l0 681 l267 0 l0 -210 q80 64 141 143.5 q61 79.5 100 169.5 l71 0 ZM788 497 q-107 106 -156 213 q-52 -112 -146 -213 l302 0 ZM170 115 l100 0 l0 506 l-100 0 l0 -506 ZM501 -92 l-82 0 l0 402 l425 0 l0 -403 l-83 0 l0 45 l-260 0 l0 -44 ZM761 31 l0 197 l-260 0 l0 -197 l260 0 Z" /><glyph glyph-name="uni54CD" unicode="&#x54cd;" d="M887 695 l0 -665 q0 -44 -10.5 -65.5 q-10.5 -21.5 -35.5 -30.5 q-25 -9 -78 -13 l-62 -6 l-28 85 l69 5 q28 2 41 6 q13 4 18 14.5 q5 10.5 5 32.5 l0 554 l-353 0 l0 -695 l-79 0 l0 778 l179 0 q22 68 32 113 l91 -16 q-14 -52 -29 -97 l240 0 ZM316 40 l-234 0 l0 677 l234 0 l0 -677 ZM238 631 l-79 0 l0 -507 l79 0 l0 507 ZM522 502 l212 0 l0 -399 l-212 0 l0 399 ZM590 180 l74 0 l0 242 l-74 0 l0 -242 Z" /><glyph glyph-name="uni54EA" unicode="&#x54ea;" d="M323 676 l0 89 l299 0 l-4 -706 q0 -45 -11.5 -70 q-11.5 -25 -35 -36.5 q-23.5 -11.5 -64.5 -15.5 l-44 -5 l-26 78 l45 4 q26 3 39 8.5 q13 5.5 18.5 20 q5.5 14.5 5.5 43.5 l0 138 l-90 0 q-12 -100 -43.5 -172 q-31.5 -72 -91.5 -148 l-62 45 q60 74 88 132 q28 58 39 143 l-59 0 l0 81 l66 0 q3 57 3 131 l0 9 l-65 0 l0 82 l66 0 l1 149 l-74 0 ZM855 418 q45 -72 61.5 -127 q16.5 -55 16.5 -116 q0 -56 -12 -87.5 q-12 -31.5 -38 -47 q-26 -15.5 -71 -21.5 l-29 -4 l-26 83 l35 3 q38 5 52 23 q14 18 14 65 q0 90 -77 210 l65 275 l-103 0 l0 -767 l-76 0 l0 849 l253 0 l0 -82 l-65 -256 ZM81 726 l214 0 l0 -679 l-214 0 l0 679 ZM546 527 l1 77 q0 63 1 72 l-79 0 l-1 -149 l78 0 ZM160 129 l61 0 l0 517 l-61 0 l0 -517 ZM546 305 l0 140 l-79 0 l0 -7 q0 -53 -4 -133 l83 0 Z" /><glyph glyph-name="uni5584" unicode="&#x5584;" d="M925 284 l0 -72 l-873 0 l0 72 l187 0 q-31 40 -51 60 l35 29 l-146 0 l0 72 l365 0 l0 58 l-310 0 l0 71 l310 0 l0 58 l-344 0 l0 72 l211 0 q-30 40 -55 65 l68 55 q41 -43 74 -89 l-30 -31 l199 0 q22 24 48.5 58.5 q26.5 34.5 43.5 60.5 l73 -49 q-30 -40 -54 -70 l204 0 l0 -72 l-349 0 l0 -58 l316 0 l0 -71 l-316 0 l0 -58 l370 0 l0 -72 l-151 0 l37 -27 l-48 -62 l186 0 ZM271 373 q28 -32 51 -65 l-24 -24 l144 0 l0 89 l-171 0 ZM531 373 l0 -89 l107 0 q36 40 72 89 l-179 0 ZM248 -96 l-88 0 l0 251 l657 0 l0 -251 l-88 0 l0 31 l-481 0 l0 -31 ZM729 6 l0 80 l-481 0 l0 -80 l481 0 Z" /><glyph glyph-name="uni55EF" unicode="&#x55ef;" d="M613 239 l-237 0 l0 518 l483 0 l0 -518 l-228 0 q15 -25 35 -65.5 q20 -40.5 34 -72.5 l-64 -34 q-9 29 -30 72 q-21 43 -40 77 l47 23 ZM85 724 l227 0 l0 -648 l-227 0 l0 648 ZM783 678 l-332 0 l0 -362 l332 0 l0 362 ZM646 521 l-5 -23 q88 -72 128 -111 l-45 -58 q-37 43 -109 106 q-35 -56 -115 -106 l-37 59 q52 27 78.5 58 q26.5 31 35.5 75 l-102 0 l0 70 l109 0 q1 26 1 72 l69 -3 l-2 -69 l107 0 l0 -70 l-113 0 ZM161 161 l74 0 l0 478 l-74 0 l0 -478 ZM842 203 q21 -42 48.5 -104.5 q27.5 -62.5 43.5 -107.5 l-69 -32 q-13 44 -39.5 108.5 q-26.5 64.5 -48.5 108.5 l65 27 ZM717 112 l67 -23 q0 -26 -7 -68 q-6 -40 -16 -59 q-10 -19 -31.5 -27.5 q-21.5 -8.5 -65.5 -11.5 q-34 -2 -50 -2 q-17 0 -51 2 q-52 4 -75.5 27 q-23.5 23 -23.5 76 l0 174 l80 -3 l-1 -149 q1 -24 8.5 -33.5 q7.5 -9.5 28.5 -11.5 q13 -1 39 -1 q26 0 39 1 q21 2 30 5.5 q9 3.5 14 12.5 q5 9 9 30 q4 23 6 61 ZM295 -18 q25 48 48 107 q23 59 36 108 l66 -22 q-15 -55 -38 -114.5 q-23 -59.5 -47 -108.5 l-65 30 Z" /><glyph glyph-name="uni5668" unicode="&#x5668;" d="M918 161 q-22 4 -64 14 l0 -263 l-81 0 l0 42 l-167 0 l0 -42 l-81 0 l0 307 l189 0 q-131 50 -211 130 l-35 0 q-32 -40 -81 -71 q-49 -31 -127 -59 l188 0 l0 -307 l-81 0 l0 42 l-162 0 l0 -42 l-81 0 l0 264 l-62 -17 l-26 83 q118 22 193 47.5 q75 25.5 120 59.5 l-272 0 l0 78 l338 0 q17 31 28 75 l92 -15 q-12 -37 -22 -60 l157 0 q-42 36 -56 46 l33 35 l-123 0 l0 256 l334 0 l0 -256 l-180 0 q41 -32 68 -59 l-17 -22 l171 0 l0 -78 l-282 0 q51 -39 129.5 -64 q78.5 -25 195.5 -42 l-25 -82 ZM118 763 l331 0 l0 -255 l-331 0 l0 255 ZM198 581 l172 0 l0 109 l-172 0 l0 -109 ZM779 690 l-175 0 l0 -108 l175 0 l0 108 ZM205 23 l162 0 l0 124 l-162 0 l0 -124 ZM606 146 l0 -123 l167 0 l0 123 l-167 0 Z" /><glyph glyph-name="uni56DB" unicode="&#x56db;" d="M106 -91 l0 820 l767 0 l0 -820 l-92 0 l0 68 l-585 0 l0 -68 l-90 0 ZM196 65 l585 0 l0 154 l-103 0 q-71 0 -102 27.5 q-31 27.5 -31 98.5 l0 294 l-117 0 l0 -123 q0 -89 -14.5 -146 q-14.5 -57 -48 -102 q-33.5 -45 -98.5 -102 l-65 62 q60 48 88 85.5 q28 37.5 38 82.5 q10 45 10 123 l0 120 l-142 0 l0 -574 ZM781 311 l0 328 l-149 0 l0 -258 q0 -43 14 -56.5 q14 -13.5 58 -13.5 l77 0 Z" /><glyph glyph-name="uni56DE" unicode="&#x56de;" d="M97 -90 l0 853 l773 0 l0 -853 l-93 0 l0 55 l-588 0 l0 -55 l-92 0 ZM191 667 l-2 -612 l588 0 l0 612 l-586 0 ZM302 179 l0 370 l363 0 l0 -370 l-363 0 ZM384 261 l199 0 l0 206 l-199 0 l0 -206 Z" /><glyph glyph-name="uni56E0" unicode="&#x56e0;" d="M105 -98 l0 862 l771 0 l0 -862 l-94 0 l0 49 l-584 0 l0 -49 l-93 0 ZM198 673 l0 -635 l584 0 l0 635 l-584 0 ZM739 157 l-56 -80 q-32 42 -88.5 102.5 q-56.5 60.5 -108.5 110.5 q-28 -58 -79.5 -110.5 q-51.5 -52.5 -131.5 -104.5 l-53 79 q106 62 155.5 122.5 q49.5 60.5 58.5 149.5 l-195 0 l0 86 l201 0 q4 73 4 135 l92 -3 q0 -50 -5 -132 l205 0 l0 -86 l-214 0 l-4 -26 l-3 -19 q48 -41 116 -110 q68 -69 106 -114 Z" /><glyph glyph-name="uni56E2" unicode="&#x56e2;" d="M98 -102 l0 864 l784 0 l0 -864 l-93 0 l0 51 l-598 0 l0 -51 l-93 0 ZM191 677 l0 -648 l598 0 l0 648 l-598 0 ZM753 543 l0 -79 l-110 0 l0 -278 q0 -43 -11.5 -66 q-11.5 -23 -38 -33 q-26.5 -10 -77.5 -14 l-78 -6 l-28 83 l88 6 q34 3 45 15 q11 12 12 43 l0 192 q-111 -156 -301 -278 l-54 73 q192 110 297 263 l-260 0 l0 79 l318 0 l0 103 l88 -4 l0 -99 l110 0 Z" /><glyph glyph-name="uni56F4" unicode="&#x56f4;" d="M105 -102 l0 865 l772 0 l0 -865 l-89 0 l0 44 l-593 0 l0 -44 l-90 0 ZM195 679 l0 -658 l593 0 l0 658 l-593 0 ZM738 520 l-238 0 l0 -67 l214 0 l0 -71 l-214 0 l0 -68 l227 0 q-3 -53 -10 -139 q-4 -51 -27.5 -70.5 q-23.5 -19.5 -83.5 -24.5 l-50 -5 l-25 75 l49 4 q34 3 45.5 9 q11.5 6 14.5 22 q5 20 5 58 l-145 0 l0 -198 l-83 0 l0 198 l-186 0 l0 71 l186 0 l0 68 l-152 0 l0 71 l152 0 l0 67 l-179 0 l0 75 l179 0 l0 71 l83 -3 l0 -68 l238 0 l0 -75 Z" /><glyph glyph-name="uni56FD" unicode="&#x56fd;" d="M99 -100 l0 866 l786 0 l0 -866 l-92 0 l0 47 l-604 0 l0 -47 l-90 0 ZM189 682 l0 -651 l604 0 l0 651 l-604 0 ZM657 187 l99 0 l0 -81 l-531 0 l0 81 l221 0 l0 151 l-185 0 l0 79 l185 0 l0 109 l-200 0 l0 78 l489 0 l0 -78 l-204 0 l0 -109 l192 0 l0 -79 l-89 0 q55 -69 77 -104 l-54 -47 ZM531 338 l0 -151 l121 0 q-15 27 -38.5 60.5 q-23.5 33.5 -41.5 53.5 l49 37 l-90 0 Z" /><glyph glyph-name="uni56FE" unicode="&#x56fe;" d="M99 -104 l0 866 l779 0 l0 -866 l-85 0 l0 49 l-609 0 l0 -49 l-85 0 ZM184 21 l609 0 l0 661 l-408 0 l61 -25 q-13 -25 -35 -57 l307 0 l0 -65 q-79 -77 -156 -126 q88 -36 229 -66 l-30 -77 q-170 46 -271 101 q-49 -25 -121 -54 q166 -30 262 -56 l-9 -73 q-54 16 -137.5 35 q-83.5 19 -141.5 29 l9 58 q-67 -24 -134 -45 l-30 71 q137 38 230 79 q-52 38 -93 82 q-38 -41 -83 -77 l-43 56 q49 41 97.5 99.5 q48.5 58.5 79.5 110.5 l-192 0 l0 -661 ZM374 535 q52 -54 114 -89 q70 39 124 89 l-238 0 ZM281 193 q76 -12 197.5 -37 q121.5 -25 195.5 -44 l-11 -73 q-73 21 -195 47 q-122 26 -196 37 l9 70 Z" /><glyph glyph-name="uni5706" unicode="&#x5706;" d="M99 -98 l0 869 l780 0 l0 -869 l-86 0 l0 43 l-607 0 l0 -43 l-87 0 ZM186 696 l0 -676 l607 0 l0 676 l-607 0 ZM286 635 l405 0 l0 -173 l-405 0 l0 173 ZM366 519 l244 0 l0 59 l-244 0 l0 -59 ZM631 353 l-283 0 l0 -160 l-82 0 l0 223 l445 0 l0 -223 l-80 0 l0 160 ZM531 322 q-1 -26 -4 -57 q-3 -31 -7 -46 q-27 -128 -281 -186 l-27 76 q89 21 138 43 q49 22 69 45.5 q20 23.5 25 56.5 q7 53 7 72 l80 -4 ZM542 214 q131 -57 218 -104 l-28 -77 q-146 83 -222 114 l32 67 Z" /><glyph glyph-name="uni5728" unicode="&#x5728;" d="M397 604 q-54 -116 -121 -210 l0 -490 l-89 0 l0 379 q-44 -49 -112 -112 l-42 94 q76 64 143 151 q67 87 118 188 l-235 0 l0 87 l276 0 q26 63 45 129 l89 -22 q-17 -58 -36 -107 l472 0 l0 -87 l-508 0 ZM653 294 l0 -256 l260 0 l0 -85 l-603 0 l0 85 l254 0 l0 256 l-214 0 l0 88 l214 0 l0 156 l89 -4 l0 -152 l214 0 l0 -88 l-214 0 Z" /><glyph glyph-name="uni5730" unicode="&#x5730;" d="M936 121 q-2 -52 -11 -103 q-5 -35 -18.5 -53.5 q-13.5 -18.5 -42 -27 q-28.5 -8.5 -81.5 -11.5 q-55 -4 -127 -4 q-71 0 -127 4 q-51 3 -80 14 q-29 11 -43 37.5 q-14 26.5 -14 75.5 l0 336 l-69 -24 l-20 82 l-51 0 l0 -312 q78 31 103 42 l6 -38 l9 -47 q-136 -58 -311 -118 l-25 83 q38 12 132 46 l0 344 l-106 0 l0 88 l106 0 l0 248 l86 -4 l0 -244 l92 0 l0 -71 l48 17 l0 229 l85 -4 l0 -196 l101 35 l0 256 l85 -4 l0 -223 l208 71 l-12 -369 q-2 -41 -11.5 -61.5 q-9.5 -20.5 -31 -30 q-21.5 -9.5 -64.5 -13.5 l-42 -4 l-29 90 l35 3 q25 3 36.5 8 q11.5 5 16 15.5 q4.5 10.5 5.5 32.5 l6 158 l2 50 l-119 -41 l0 -390 l-85 0 l0 360 l-101 -35 l0 -332 q0 -32 5.5 -46.5 q5.5 -14.5 20 -20.5 q14.5 -6 46.5 -8 q47 -3 94 -3 q53 0 104 3 q42 3 59.5 7 q17.5 4 24.5 14.5 q7 10.5 10 35.5 q7 44 7 81 l88 -28 Z" /><glyph glyph-name="uni573A" unicode="&#x573a;" d="M515 476 l371 0 q-4 -74 -12.5 -226 q-8.5 -152 -11.5 -193 q-4 -51 -18 -77 q-14 -26 -44.5 -37 q-30.5 -11 -92.5 -16 l-56 -5 l-28 89 l65 5 q37 3 53.5 9 q16.5 6 24 20 q7.5 14 10.5 44 q6 55 21 303 l-88 0 q-23 -172 -81 -283.5 q-58 -111.5 -176 -211.5 l-72 56 q76 63 123 124.5 q47 61.5 76 135.5 q29 74 49 179 l-87 0 q-28 -120 -88 -216.5 q-60 -96.5 -161 -178.5 l-67 55 q51 40 91 84 q-103 -38 -262 -90 l-19 89 q68 19 131 39 l0 312 l-104 0 l0 88 l104 0 l0 234 l89 -4 l0 -230 l98 0 l0 -88 l-98 0 l0 -282 q58 20 79 29 l4 -42 l3 -27 q43 52 71 107.5 q28 55.5 46 120.5 l-102 0 l0 76 l315 198 l-287 0 l0 88 l442 0 l0 -90 l-311 -188 Z" /><glyph glyph-name="uni5747" unicode="&#x5747;" d="M898 676 l-17 -626 q-2 -51 -16 -77 q-14 -26 -48 -39 q-34 -13 -101 -19 l-75 -6 l-30 96 l75 6 q46 3 66 9.5 q20 6.5 28 22 q8 15.5 10 51.5 q3 87 7.5 275.5 q4.5 188.5 3.5 213.5 l-275 0 q-40 -78 -81 -139 l-76 45 l0 -34 l-92 0 l0 -283 q52 19 95 37 l13 -91 q-188 -74 -318 -120 l-24 91 q75 24 141 48 l0 318 l-106 0 l0 96 l106 0 l0 240 l93 -3 l0 -237 l92 0 l0 -58 q49 80 89.5 163.5 q40.5 83.5 62.5 155.5 l91 -22 q-14 -48 -42 -114 l328 0 ZM619 301 q-24 32 -65 73 q-41 41 -74 68 l51 61 q34 -27 77 -66 q43 -39 66 -66 l-55 -70 ZM764 296 l15 -46 q-141 -83 -349 -177 l-30 92 q81 34 180 82.5 q99 48.5 171 91.5 l13 -43 Z" /><glyph glyph-name="uni574F" unicode="&#x574f;" d="M390 108 l6 -42 q-76 -18 -178.5 -40.5 q-102.5 -22.5 -167.5 -35.5 l-10 95 q51 8 149 29 l0 339 l-121 0 l0 92 l121 0 l0 253 l91 -3 l0 -250 l116 0 l0 -92 l-116 0 l0 -318 q42 9 102 25 l8 -52 ZM891 125 q-42 58 -103.5 132 q-61.5 74 -115.5 132 l0 -483 l-94 0 l0 447 q-70 -105 -170 -203 l-66 67 q180 170 279 429 l-242 0 l0 95 l537 0 l0 -95 l-196 0 q-21 -59 -48 -122 l0 -103 l50 45 q53 -54 120.5 -131.5 q67.5 -77.5 112.5 -135.5 l-64 -74 Z" /><glyph glyph-name="uni5750" unicode="&#x5750;" d="M837 172 l-299 0 l0 -154 l382 0 l0 -84 l-860 0 l0 84 l386 0 l0 154 l-304 0 l0 86 l304 0 l0 538 l92 -4 l0 -534 l299 0 l0 -86 ZM614 324 l-68 59 q60 77 98 162 q38 85 58 188 l86 -16 q-17 -77 -37 -138 q37 -38 89.5 -97.5 q52.5 -59.5 84.5 -99.5 l-64 -72 q-49 73 -144 183 q-38 -83 -103 -169 ZM127 290 l-72 60 q71 90 113.5 182 q42.5 92 61.5 200 l90 -15 q-15 -78 -37 -144 q38 -42 82 -96 q44 -54 67 -88 l-64 -68 q-42 67 -119 164 q-46 -96 -122 -195 Z" /><glyph glyph-name="uni5757" unicode="&#x5757;" d="M633 269 q34 -98 108.5 -166.5 q74.5 -68.5 197.5 -121.5 l-50 -90 q-112 53 -189 123.5 q-77 70.5 -121 161.5 q-33 -81 -102 -150.5 q-69 -69.5 -185 -139.5 l-54 85 q128 68 193.5 137 q65.5 69 85.5 161 l-197 0 l0 88 l208 0 l0 13 l0 196 l-166 0 l0 88 l166 0 l0 150 l90 -3 l0 -147 l221 0 l0 -297 l86 0 l0 -88 l-292 0 ZM372 158 l8 -52 q-68 -24 -173 -59 q-105 -35 -154 -48 l-20 95 q32 9 139 41 l0 318 l-108 0 l0 89 l108 0 l0 254 l87 -3 l0 -251 l99 0 l0 -89 l-99 0 l0 -290 q41 13 107 36 l6 -41 ZM618 375 q0 -12 -1 -18 l135 0 l0 209 l-134 0 l0 -191 Z" /><glyph glyph-name="uni578B" unicode="&#x578b;" d="M678 262 l-27 84 l65 5 q27 3 40 7.5 q13 4.5 18.5 15.5 q5.5 11 5.5 34 l0 378 l86 -4 l0 -397 q0 -45 -11 -68 q-11 -23 -36.5 -33.5 q-25.5 -10.5 -76.5 -15.5 l-64 -6 ZM70 263 q54 56 78 95.5 q24 39.5 31 89.5 l-113 0 l0 80 l119 0 l0 30 l0 110 l-92 0 l0 83 l471 0 l0 -83 l-91 0 l0 -140 l111 0 l0 -80 l-111 0 l0 -177 l-86 0 l0 177 l-121 0 q-8 -72 -35.5 -124 q-27.5 -52 -90.5 -113 l-70 52 ZM618 734 l84 -3 l0 -346 l-84 0 l0 349 ZM271 668 l0 -111 l0 -29 l116 0 l0 140 l-116 0 ZM538 121 l0 -114 l390 0 l0 -82 l-874 0 l0 82 l393 0 l0 114 l-291 0 l0 80 l291 0 l0 61 l91 -4 l0 -57 l290 0 l0 -80 l-290 0 Z" /><glyph glyph-name="uni57DF" unicode="&#x57df;" d="M934 116 q-2 -21 -14 -87 q-14 -71 -36 -96.5 q-22 -25.5 -60 -25.5 q-71 0 -114 103 q-8 19 -18 52 q-64 -80 -155 -154 l-60 71 q57 44 93 77 q-54 -16 -149 -41 q-95 -25 -133 -34 l-19 86 q43 9 146.5 35.5 q103.5 26.5 166.5 43.5 l7 -38 l5 -29 q41 40 74 83 q-32 166 -41 413 l-292 0 l0 83 l289 0 l-2 148 l83 -3 l3 -145 l130 0 q-42 52 -102 110 l50 52 q53 -45 104 -105 l-47 -57 l76 0 l0 -83 l-210 0 q5 -188 22 -313 q50 97 92 247 l75 -26 q-55 -196 -146 -337 q14 -54 26 -84 q11 -30 21.5 -41.5 q10.5 -11.5 22.5 -11.5 q11 0 17 15 q6 15 13 56 q7 38 10 69 l72 -33 ZM341 153 l5 -37 q-186 -59 -285 -87 l-19 86 q53 13 120 34 l0 327 l-94 0 l0 86 l94 0 l0 231 l86 -4 l0 -227 l90 0 l0 -86 l-90 0 l0 -301 l55 17 l31 10 l7 -49 ZM351 487 l235 0 l0 -294 l-235 0 l0 294 ZM424 272 l90 0 l0 135 l-90 0 l0 -135 Z" /><glyph glyph-name="uni57FA" unicode="&#x57fa;" d="M714 80 l-179 0 l0 -86 l348 0 l0 -73 l-789 0 l0 73 l351 0 l0 86 l-185 0 l0 67 q-84 -67 -191 -119 l-41 82 q168 72 253 166 l-224 0 l0 70 l168 0 l0 303 l-136 0 l0 71 l136 0 l0 74 l88 -3 l0 -71 l353 0 l0 74 l87 -3 l0 -71 l137 0 l0 -71 l-137 0 l0 -303 l169 0 l0 -70 l-225 0 q46 -51 105.5 -88 q59.5 -37 146.5 -72 l-41 -79 q-121 56 -194 114 l0 -71 ZM666 596 l0 53 l-353 0 l0 -53 l353 0 ZM666 529 l-353 0 l0 -58 l353 0 l0 58 ZM666 406 l-353 0 l0 -60 l353 0 l0 60 ZM445 152 l0 86 l90 -4 l0 -82 l178 0 q-67 53 -116 124 l-216 0 q-42 -65 -115 -124 l179 0 Z" /><glyph glyph-name="uni586B" unicode="&#x586b;" d="M844 150 l89 0 l0 -65 l-607 0 l0 32 q-110 -52 -269 -111 l-24 82 q67 25 135 52 l0 325 l-102 0 l0 88 l102 0 l0 238 l83 -3 l0 -235 l89 0 l0 -88 l-89 0 l0 -291 l68 30 l10 -43 l3 -11 l50 0 l0 449 l184 0 l0 60 l-228 0 l0 69 l228 0 l0 76 l84 -3 l0 -73 l255 0 l0 -69 l-255 0 l0 -60 l194 0 l0 -449 ZM762 484 l0 47 l-299 0 l0 -47 l299 0 ZM463 373 l299 0 l0 49 l-299 0 l0 -49 ZM762 261 l0 52 l-299 0 l0 -52 l299 0 ZM762 201 l-299 0 l0 -51 l299 0 l0 51 ZM276 -38 q63 22 133 56.5 q70 34.5 114 64.5 l40 -70 q-49 -32 -119 -67.5 q-70 -35.5 -131 -58.5 l-37 75 ZM691 78 q50 -19 121.5 -51.5 q71.5 -32.5 117.5 -57.5 l-29 -77 q-46 28 -119 62.5 q-73 34.5 -125 53.5 l34 70 Z" /><glyph glyph-name="uni5883" unicode="&#x5883;" d="M925 569 l0 -70 l-588 0 l0 70 l131 0 q-5 38 -16 91 l-107 0 l0 68 l221 0 q-9 30 -26 75 l90 15 q17 -45 30 -90 l234 0 l0 -68 l-114 0 q-6 -28 -23 -91 l168 0 ZM336 155 l5 -46 q-57 -19 -143.5 -47 q-86.5 -28 -143.5 -46 l-16 89 q22 5 118 36 l0 330 l-93 0 l0 87 l93 0 l0 251 l82 -4 l0 -247 l81 0 l0 -87 l-81 0 l0 -304 q78 26 93 32 l5 -44 ZM532 660 q11 -52 16 -91 l126 0 q9 27 25 91 l-167 0 ZM944 85 q-3 -38 -10 -84 q-5 -31 -15 -46 q-10 -15 -30 -22 q-20 -7 -61 -10 q-32 -2 -48 -2 q-16 0 -48 2 q-49 3 -70 21.5 q-21 18.5 -21 65.5 l0 132 l-89 0 q-1 -3 -1 -8 q-3 -66 -32.5 -109 q-29.5 -43 -84 -73 q-54.5 -30 -147.5 -61 l-40 75 q81 22 127.5 46.5 q46.5 24.5 67.5 53 q21 28.5 25 67.5 q0 5 1 9 l-105 0 l0 303 l486 0 l0 -303 l-128 0 l0 -104 q0 -27 8 -35 q8 -8 33 -9 q9 -1 25 -1 q33 0 46.5 2 q13.5 2 19.5 10 q6 8 9 27 q7 43 7 79 l75 -26 ZM770 326 l0 52 l-327 0 l0 -52 l327 0 ZM770 261 l-327 0 l0 -53 l327 0 l0 53 Z" /><glyph glyph-name="uni589E" unicode="&#x589e;" d="M906 694 l0 -336 l-548 0 l0 336 l129 0 q-23 38 -54 78 l71 44 q37 -47 71 -106 l-20 -16 l115 0 q55 74 81 124 l76 -42 q-12 -22 -54 -82 l133 0 ZM339 151 l11 -53 q-129 -44 -290 -94 l-22 88 q15 4 89 27 l35 11 l0 338 l-99 0 l0 87 l99 0 l0 246 l82 -4 l0 -242 l87 0 l0 -87 l-87 0 l0 -311 l88 30 l7 -36 ZM592 617 l-159 0 l0 -183 l159 0 l0 183 ZM665 434 l164 0 l0 183 l-164 0 l0 -183 ZM499 601 q43 -59 70 -114 l-54 -40 q-14 28 -34.5 62 q-20.5 34 -36.5 55 l55 37 ZM679 490 q46 56 76 110 l56 -38 q-29 -51 -78 -113 l-54 41 ZM480 -99 l-83 0 l0 397 l461 0 l0 -397 l-84 0 l0 40 l-294 0 l0 -40 ZM774 158 l0 67 l-294 0 l0 -67 l294 0 ZM480 84 l0 -71 l294 0 l0 71 l-294 0 Z" /><glyph glyph-name="uni58F0" unicode="&#x58f0;" d="M919 719 l0 -78 l-387 0 l0 -87 l311 0 l0 -77 l-705 0 l0 77 l303 0 l0 87 l-382 0 l0 78 l382 0 l0 93 l91 -4 l0 -89 l387 0 ZM158 409 l670 0 l0 -287 l-586 0 q-10 -64 -40 -120.5 q-30 -56.5 -86 -121.5 l-76 61 q49 52 74.5 94.5 q25.5 42.5 34.5 86.5 q9 44 9 109 l0 178 ZM443 331 l-195 0 l0 -131 l0 -2 l195 0 l0 133 ZM532 198 l203 0 l0 133 l-203 0 l0 -133 Z" /><glyph glyph-name="uni5904" unicode="&#x5904;" d="M819 20 q81 0 121 2 l-20 -96 q-40 -2 -121 -2 q-66 0 -98 1 q-133 3 -231 37.5 q-98 34.5 -171 116.5 q-74 -92 -191 -191 l-72 69 q125 99 206 201 q-50 84 -87 204 q-29 -57 -58 -102 l-61 68 q58 89 104.5 213 q46.5 124 74.5 258 l89 -14 q-12 -57 -32 -130 l236 0 l0 -95 q-19 -117 -56 -215.5 q-37 -98.5 -96 -188.5 q64 -71 151.5 -101 q87.5 -30 212.5 -34 q33 -1 99 -1 ZM685 51 l-94 0 l0 744 l94 -4 l0 -299 l35 57 q130 -87 212 -156 l-39 -92 q-47 46 -105 93 q-58 47 -103 76 l0 -419 ZM298 239 q88 139 120 321 l-177 0 q-14 -43 -30 -80 q35 -146 87 -241 Z" /><glyph glyph-name="uni5907" unicode="&#x5907;" d="M942 403 l-27 -86 q-144 24 -248 51.5 q-104 27.5 -184 64.5 q-186 -77 -420 -118 l-27 81 q196 33 350 91 q-68 44 -125 101 q-73 -69 -143 -118 l-59 70 q86 57 159 134 q73 77 116 145 l98 -25 q-25 -38 -43 -62 l432 0 l0 -92 q-106 -91 -231 -156 q135 -50 352 -81 ZM326 649 q76 -74 162 -120 q111 51 203 120 l-365 0 ZM248 -107 l-89 0 l0 438 l657 0 l0 -438 l-91 0 l0 50 l-477 0 l0 -50 ZM447 172 l0 83 l-199 0 l0 -83 l199 0 ZM535 172 l190 0 l0 83 l-190 0 l0 -83 ZM248 100 l0 -82 l199 0 l0 82 l-199 0 ZM535 100 l0 -82 l190 0 l0 82 l-190 0 Z" /><glyph glyph-name="uni590D" unicode="&#x590d;" d="M905 -102 q-221 33 -386 90 q-163 -55 -427 -99 l-27 79 q182 23 340 67 q-86 41 -153 90 q-70 -59 -158 -107 l-46 70 q156 84 244 195 l-117 0 l0 263 q-38 -42 -81 -84 l-63 70 q67 58 130 137 q63 79 94 145 l86 -35 l-28 -50 l586 0 l0 -76 l-636 0 q-20 -28 -47 -60 l599 0 l0 -310 l-482 0 l51 -24 l-28 -32 l480 0 l0 -73 q-93 -71 -205 -122 q125 -31 295 -47 l-21 -87 ZM722 467 l0 59 l-456 0 l0 -59 l456 0 ZM722 408 l-456 0 l0 -59 l456 0 l0 59 ZM321 160 q84 -55 188 -92 q117 42 194 92 l-382 0 Z" /><glyph glyph-name="uni5916" unicode="&#x5916;" d="M338 784 q-18 -71 -38 -128 l227 0 l0 -94 q-24 -139 -73 -250.5 q-49 -111.5 -128 -211 q-79 -99.5 -198 -207.5 l-68 78 q115 97 188.5 187 q73.5 90 118 187 q44.5 97 70.5 221 l-171 0 q-26 -64 -59 -128 q79 -53 125 -92 l-46 -90 q-54 51 -124 100 q-26 -45 -64 -99 l-66 73 q70 104 127 229 q57 125 86 246 l93 -21 ZM890 254 q-57 55 -103 92.5 q-46 37.5 -107 80.5 l0 -524 l-88 0 l0 898 l88 -3 l0 -344 l40 55 q22 -16 33 -23 q68 -48 107.5 -77.5 q39.5 -29.5 78.5 -64.5 l-49 -90 Z" /><glyph glyph-name="uni591A" unicode="&#x591a;" d="M899 357 l0 -82 q-87 -93 -188 -160.5 q-101 -67.5 -248 -123 q-147 -55.5 -364 -104.5 l-45 81 q295 63 459.5 137 q164.5 74 263.5 172 l-324 0 q-38 -26 -59 -38 q54 -30 124 -77 l-54 -72 q-51 42 -152 103 q-75 -39 -182 -82 l-41 76 q131 49 242 113 q111 64 185 132 q-173 -74 -407 -127 l-40 76 q429 88 666 263 l-344 0 l-42 -29 q60 -29 110 -63 l-51 -67 q-45 34 -136 82 q-63 -36 -124 -66 l-50 71 q113 54 209 119.5 q96 65.5 156 130.5 l77 -39 q-26 -32 -54 -59 l379 0 l0 -82 q-135 -116 -320 -198 l59 -38 q-16 -17 -50 -49 l345 0 Z" /><glyph glyph-name="uni591F" unicode="&#x591f;" d="M923 347 l0 -83 q-49 -120 -148.5 -207 q-99.5 -87 -276.5 -166 l-54 78 q162 60 255.5 132.5 q93.5 72.5 137.5 168.5 l-174 0 l-28 -32 l-13 -15 q56 -46 86 -76 l-53 -58 q-31 38 -84 85 q-41 -35 -73 -59 l-46 58 l-2 -117 q-1 -51 -14 -78.5 q-13 -27.5 -41.5 -41 q-28.5 -13.5 -80.5 -18.5 l-63 -6 l-28 87 l72 6 q35 3 49 10 q14 7 18.5 23 q4.5 16 5.5 54 q1 27 3 223.5 q2 196.5 2 287.5 l-193 0 q-36 -59 -74 -112 l209 0 l0 -402 l-223 0 l0 382 l-24 -32 l-50 70 q56 70 103.5 150.5 q47.5 80.5 69.5 150.5 l78 -20 q-16 -48 -41 -99 l230 0 l-1 -117 q59 50 107 112.5 q48 62.5 76 123.5 l80 -15 q-17 -36 -43 -79 l228 0 l0 -80 q-71 -121 -199 -207 l51 -21 q-19 -34 -37 -61 l203 0 ZM669 406 q-79 -48 -170 -83 l-37 70 q122 44 212.5 109 q90.5 65 141.5 141 l-190 0 q-23 -29 -25 -31 q28 -23 81 -69 l-52 -57 q-26 27 -79 72 q-29 -29 -53 -49 l-41 48 q-3 -175 -5 -376 q135 95 217 225 ZM241 418 l-76 0 l0 -256 l76 0 l0 256 Z" /><glyph glyph-name="uni5927" unicode="&#x5927;" d="M939 -6 l-60 -91 q-141 85 -237.5 186.5 q-96.5 101.5 -144.5 214.5 q-49 -116 -147 -213.5 q-98 -97.5 -236 -188.5 l-66 90 q366 206 389 486 l-354 0 l0 93 l356 0 l0 231 l100 -4 l0 -227 l362 0 l0 -93 l-363 0 l-2 -19 q37 -156 137 -265.5 q100 -109.5 266 -199.5 Z" /><glyph glyph-name="uni5929" unicode="&#x5929;" d="M543 367 q41 -126 137 -214.5 q96 -88.5 257 -159.5 l-53 -97 q-158 83 -251 166.5 q-93 83.5 -140 192.5 q-94 -202 -393 -356 l-56 88 q170 81 266 174 q96 93 120 206 l-355 0 l0 88 l362 0 l0 196 l-309 0 l0 89 l719 0 l0 -89 l-313 0 l0 -196 l366 0 l0 -88 l-357 0 Z" /><glyph glyph-name="uni5931" unicode="&#x5931;" d="M557 290 q42 -105 132.5 -178 q90.5 -73 242.5 -128 l-54 -94 q-139 58 -232.5 133.5 q-93.5 75.5 -147.5 177.5 q-49 -91 -145 -171.5 q-96 -80.5 -242 -143.5 l-56 90 q159 66 252.5 143.5 q93.5 77.5 125.5 170.5 l-355 0 l0 92 l371 0 q1 28 3 165 l-200 0 q-36 -81 -74 -144 l-82 46 q43 67 79.5 154 q36.5 87 58.5 170 l90 -22 q-13 -49 -35 -112 l164 0 q1 68 1 164 l97 -3 l-2 -161 l306 0 l0 -92 l-307 0 l-1 -162 l0 -3 l354 0 l0 -92 l-344 0 Z" /><glyph glyph-name="uni5934" unicode="&#x5934;" d="M881 -97 q-176 110 -351 198 q-53 -64 -152.5 -111.5 q-99.5 -47.5 -273.5 -95.5 l-36 94 q137 35 218.5 66.5 q81.5 31.5 131 71 q49.5 39.5 75.5 97.5 l-432 0 l0 86 l458 0 q15 76 18 206 q4 192 4 281 l95 -4 q0 -63 -1.5 -148 q-1.5 -85 -3.5 -142 q-5 -118 -17 -193 l300 0 l0 -86 l-320 0 q-6 -21 -17 -47 q182 -89 343 -180 l-39 -93 ZM436 517 q-51 40 -120.5 87 q-69.5 47 -130.5 83 l48 79 q95 -59 146 -92 q51 -33 102 -72 l-45 -85 ZM378 317 q-45 35 -124 86.5 q-79 51.5 -138 84.5 l45 80 q63 -36 136 -82.5 q73 -46.5 126 -84.5 l-45 -84 Z" /><glyph glyph-name="uni5939" unicode="&#x5939;" d="M544 246 q47 -94 141 -159 q94 -65 252 -107 l-42 -88 q-152 46 -249.5 113 q-97.5 67 -154.5 163 q-97 -155 -395 -275 l-49 84 q319 119 383 269 l-356 0 l0 85 l373 0 l0 267 l-346 0 l0 86 l346 0 l0 121 l90 -3 l0 -118 l343 0 l0 -86 l-343 0 l0 -267 l369 0 l0 -85 l-362 0 ZM224 586 q36 -42 76 -93.5 q40 -51.5 68 -93.5 l-64 -61 q-60 96 -149 196 l69 52 ZM611 396 q35 38 77.5 95 q42.5 57 62.5 95 l73 -51 q-27 -42 -71.5 -100 q-44.5 -58 -77.5 -94 l-64 55 Z" /><glyph glyph-name="uni5947" unicode="&#x5947;" d="M934 442 l0 -84 l-125 0 l0 -319 q0 -50 -12.5 -76.5 q-12.5 -26.5 -43 -38.5 q-30.5 -12 -89.5 -17 l-65 -5 l-28 85 l70 5 q33 2 49 7.5 q16 5.5 21 17.5 q5 12 5 36 l0 305 l-671 0 l0 84 l97 0 l-23 64 q134 22 204 51 q70 29 96 71 l-319 0 l0 84 l343 0 q5 50 5 87 l92 -4 q-3 -66 -5 -83 l343 0 l0 -84 l-357 0 l-1 -3 q166 -58 318 -123 l-25 -60 l121 0 ZM206 442 l562 0 q-126 58 -289 116 q-36 -38 -102 -66.5 q-66 -28.5 -171 -49.5 ZM156 286 l428 0 l0 -278 l-428 0 l0 278 ZM246 89 l247 0 l0 118 l-247 0 l0 -118 Z" /><glyph glyph-name="uni5957" unicode="&#x5957;" d="M308 241 l0 -53 l617 0 l0 -73 l-231 0 q84 -69 165 -150 l-50 -77 q-28 29 -68 68 q-103 -3 -260.5 -9 q-157.5 -6 -241.5 -11 l-85 -6 l-25 78 q22 3 32.5 6.5 q10.5 3.5 23.5 10.5 q59 37 120 90 l-251 0 l0 73 l167 0 l0 270 q-57 -31 -146 -70 l-35 82 q189 71 287 170 l-246 0 l0 79 l310 0 q29 47 52 103 l86 -27 q-16 -38 -36 -76 l406 0 l0 -79 l-238 0 q109 -112 281 -161 l-31 -84 q-95 34 -177 83 l-426 0 l0 -52 l471 0 l0 -67 l-471 0 l0 -52 l471 0 l0 -66 l-471 0 ZM444 640 q-37 -49 -85 -90 l274 0 q-49 42 -87 90 l-102 0 ZM659 30 q-32 28 -55 46 l36 39 l-208 0 q-61 -55 -128 -99 l355 14 Z" /><glyph glyph-name="uni597D" unicode="&#x597d;" d="M427 545 q-16 -135 -36 -222.5 q-20 -87.5 -53 -154.5 q86 -73 124 -110 l-56 -86 q-37 40 -118 113 q-62 -85 -188 -186 l-69 69 q66 50 110 91.5 q44 41.5 76 86.5 q-55 48 -128 101 q39 147 61 296 l-87 0 l0 92 l100 0 q12 109 17 174 l89 -7 q-6 -81 -18 -167 l176 0 l0 -90 ZM938 400 l0 -92 l-218 0 l0 -277 q0 -46 -11.5 -70 q-11.5 -24 -39.5 -35 q-28 -11 -81 -16 l-63 -6 l-31 94 l69 6 q30 3 42.5 7.5 q12.5 4.5 17.5 16 q5 11.5 5 37.5 l0 243 l-200 0 l0 92 l200 0 l0 113 l158 142 l-321 0 l0 92 l441 0 l0 -93 l-186 -174 l0 -80 l218 0 ZM265 227 q27 59 45.5 134.5 q18.5 75.5 31.5 181.5 l-104 0 q-21 -135 -52 -255 q25 -18 79 -61 Z" /><glyph glyph-name="uni5982" unicode="&#x5982;" d="M467 542 q-16 -145 -39 -237 q-23 -92 -65 -163 q83 -68 143 -121 l-57 -83 q-61 60 -141 127 q-66 -78 -201 -179 l-67 70 q137 94 200 165 q-88 71 -142 108 q44 161 68 312 l-101 0 l0 90 l114 0 q11 86 18 178 l92 -9 q-8 -98 -19 -169 l197 0 l0 -89 ZM527 -80 l0 774 l352 0 l0 -769 l-86 0 l0 73 l-179 0 l0 -78 l-87 0 ZM614 605 l0 -518 l179 0 l0 518 l-179 0 ZM293 196 q36 62 54.5 141 q18.5 79 30.5 204 l-121 0 q-27 -171 -58 -277 q41 -28 94 -68 Z" /><glyph glyph-name="uni5999" unicode="&#x5999;" d="M362 -11 q-32 35 -87 88 q-55 -80 -171 -187 l-68 62 q58 51 99.5 94.5 q41.5 43.5 73.5 92.5 q-75 68 -119 103 q33 130 55 293 l-82 0 l0 88 l93 0 q11 94 18 187 l87 -9 q-6 -86 -18 -178 l162 0 l0 -89 q-13 -133 -30.5 -218 q-17.5 -85 -49.5 -152 q63 -56 95 -88 l-58 -87 ZM603 807 l90 -4 l0 -581 l-90 0 l0 585 ZM793 687 q32 -56 81 -158.5 q49 -102.5 78 -174.5 l-75 -50 q-25 68 -73 172 q-48 104 -84 176 l73 35 ZM382 294 q33 79 67 188.5 q34 109.5 52 192.5 l83 -22 q-19 -86 -53.5 -198 q-34.5 -112 -66.5 -192 l-82 31 ZM255 225 q53 119 70 310 l-94 0 q-21 -141 -47 -253 q32 -24 71 -57 ZM337 -28 q179 73 286 162.5 q107 89.5 176 223.5 l74 -57 q-56 -101 -123 -174.5 q-67 -73.5 -155 -131.5 q-88 -58 -213 -113 l-45 90 Z" /><glyph glyph-name="uni59CB" unicode="&#x59cb;" d="M492 412 q-53 -3 -79 -7 l-19 85 q18 7 27 14.5 q9 7.5 18 19.5 q30 40 78 127.5 q48 87.5 81 163.5 l84 -33 q-29 -69 -76 -152.5 q-47 -83.5 -82 -126.5 l263 13 q-45 84 -87 145 l71 41 q29 -42 78 -125.5 q49 -83.5 85 -152.5 l-72 -56 q-10 25 -29 62 l-318 -16 l-23 -2 ZM392 538 q-13 -139 -32.5 -229.5 q-19.5 -90.5 -52.5 -161.5 q59 -52 114 -107 l-52 -81 q-49 53 -108 107 q-51 -76 -156 -181 l-61 62 q102 96 154 177 q-83 71 -123 103 q34 138 59 313 l-81 0 l0 88 l92 0 q12 120 16 175 l86 -6 q-4 -61 -16 -169 l161 0 l0 -90 ZM241 205 q26 61 40.5 137.5 q14.5 76.5 25.5 197.5 l-87 0 q-22 -151 -52 -277 q38 -28 73 -58 ZM531 -98 l-89 0 l0 414 l430 0 l0 -415 l-90 0 l0 49 l-251 0 l0 -48 ZM782 31 l0 201 l-251 0 l0 -201 l251 0 Z" /><glyph glyph-name="uni59D3" unicode="&#x59d3;" d="M406 63 l-56 -81 q-46 49 -94 93 q-50 -77 -156 -184 l-63 67 q58 59 93.5 99 q35.5 40 61.5 78 q-57 50 -118 99 q34 146 55 302 l-73 0 l0 89 l84 0 q9 83 16 184 l88 -6 q-7 -88 -18 -178 l153 0 l0 -87 q-9 -131 -26 -219 q-17 -88 -50 -160 q64 -55 103 -96 ZM718 35 l218 0 l0 -93 l-536 0 l0 93 l226 0 l0 209 l-190 0 l0 93 l190 0 l0 182 l-117 0 q-20 -83 -46 -161 l-84 29 q59 161 85 363 l83 -11 q-7 -63 -18 -125 l97 0 l0 188 l92 -4 l0 -184 l192 0 l0 -95 l-192 0 l0 -182 l173 0 l0 -93 l-173 0 l0 -209 ZM237 216 q25 57 39.5 131.5 q14.5 74.5 24.5 188.5 l-87 0 q-23 -176 -46 -263 l69 -57 Z" /><glyph glyph-name="uni5B50" unicode="&#x5b50;" d="M923 394 l0 -90 l-382 0 l0 -261 q0 -49 -11 -73.5 q-11 -24.5 -39 -35.5 q-28 -11 -85 -16 l-85 -8 l-32 93 l87 6 q32 2 46 7.5 q14 5.5 18.5 18.5 q4.5 13 4.5 41 l0 228 l-386 0 l0 90 l386 0 l0 86 l258 177 l-560 0 l0 90 l718 0 l0 -91 l-320 -218 l0 -44 l382 0 Z" /><glyph glyph-name="uni5B57" unicode="&#x5b57;" d="M186 608 l0 -135 l-93 0 l0 223 l355 0 q-17 62 -30 99 l100 16 q12 -36 35 -115 l337 0 l0 -224 l-94 0 l0 136 l-610 0 ZM925 268 l0 -88 l-383 0 l0 -142 q0 -52 -10 -77.5 q-10 -25.5 -35 -36 q-25 -10.5 -78 -14.5 l-80 -6 l-29 89 l77 6 q28 2 40.5 7.5 q12.5 5.5 17 18 q4.5 12.5 4.5 39.5 l0 116 l-395 0 l0 88 l395 0 l0 53 l159 103 l-391 0 l0 87 l549 0 l0 -89 l-224 -140 l0 -14 l383 0 Z" /><glyph glyph-name="uni5B58" unicode="&#x5b58;" d="M404 620 q-50 -108 -117 -198 l0 -522 l-87 0 l0 416 q-62 -67 -125 -123 l-48 89 q167 144 268 338 l-219 0 l0 84 l258 0 q22 54 38 107 l99 -14 q-19 -59 -32 -93 l477 0 l0 -84 l-512 0 ZM931 269 l0 -83 l-250 0 l0 -161 q0 -47 -10.5 -71 q-10.5 -24 -38 -35.5 q-27.5 -11.5 -83.5 -16.5 l-60 -6 l-28 87 l62 6 q30 3 44.5 8.5 q14.5 5.5 20 17 q5.5 11.5 5.5 33.5 l0 138 l-260 0 l0 83 l260 0 l0 68 l143 98 l-338 0 l0 81 l483 0 l0 -83 l-200 -137 l0 -27 l250 0 Z" /><glyph glyph-name="uni5B66" unicode="&#x5b66;" d="M175 553 l0 -118 l-90 0 l0 205 l148 0 q-32 62 -73 121 l82 39 q47 -68 80 -130 l-47 -30 l193 0 q-27 64 -69 139 l81 34 q42 -69 75 -142 l-56 -31 l134 0 q68 102 101 164 l86 -42 q-36 -61 -79 -122 l154 0 l0 -205 l-89 0 l0 118 l-631 0 ZM921 238 l0 -88 l-367 0 l0 -121 q0 -48 -12.5 -72 q-12.5 -24 -41.5 -34 q-29 -10 -87 -15 l-74 -6 l-28 92 l81 5 q31 3 43 7 q12 4 16.5 15 q4.5 11 4.5 37 l0 92 l-397 0 l0 88 l397 0 l0 47 l152 90 l-387 0 l0 85 l540 0 l0 -84 l-207 -128 l0 -10 l367 0 Z" /><glyph glyph-name="uni5B69" unicode="&#x5b69;" d="M926 676 l0 -85 l-296 0 q-26 -45 -58 -90 q-32 -45 -56 -69 l161 10 q33 45 78 120 l74 -43 q-86 -147 -187.5 -248 q-101.5 -101 -271.5 -201 l-50 79 q94 48 162.5 97.5 q68.5 49.5 123.5 107.5 q-40 -1 -118 -6 q-46 -3 -77 -10 l-21 89 q24 7 43 26 q17 15 44.5 55 q27.5 40 51.5 83 l-130 0 l0 85 l205 0 q-16 65 -32 107 l89 16 q23 -66 38 -123 l227 0 ZM379 321 l-104 -37 l0 -262 q0 -48 -11.5 -73 q-11.5 -25 -38 -36 q-26.5 -11 -75.5 -15 l-60 -5 l-29 93 l71 4 q25 2 36 7 q11 5 15 16.5 q4 11.5 4 36.5 l0 205 q-90 -28 -131 -39 l-22 90 q89 24 153 45 l0 130 l99 154 l-204 0 l0 93 l300 0 l0 -94 l-107 -170 l0 -84 q71 25 93 34 l5 -44 l6 -49 ZM886 313 q-72 -116 -158 -198 q117 -83 198 -153 l-52 -82 q-40 38 -99 85.5 q-59 47.5 -116 88.5 q-107 -86 -288 -176 l-46 80 q123 54 210 111 q87 57 153.5 126.5 q66.5 69.5 131.5 165.5 l66 -48 Z" /><glyph glyph-name="uni5B6A" unicode="&#x5b6a;" d="M343 400 l0 218 l-264 0 l0 83 l368 0 q-11 44 -27 90 l90 14 q22 -59 34 -104 l357 0 l0 -83 l-264 0 l0 -218 l-89 0 l0 218 l-116 0 l0 -218 l-89 0 ZM309 528 q-41 -42 -102 -93 q-61 -51 -118 -88 l-48 71 q57 36 116 83 q59 47 97 88 l55 -61 ZM722 585 q50 -31 115 -77.5 q65 -46.5 104 -79.5 l-42 -74 q-40 37 -104 84.5 q-64 47.5 -123 85.5 l50 61 ZM549 186 l0 -8 l368 0 l0 -84 l-368 0 l0 -82 q0 -48 -11.5 -71 q-11.5 -23 -39.5 -33 q-28 -10 -87 -15 l-65 -5 l-28 86 l65 5 q31 2 44.5 6.5 q13.5 4.5 18.5 14.5 q5 10 5 33 l0 61 l-391 0 l0 84 l391 0 l0 43 l173 75 l-431 0 l0 75 l608 0 l0 -77 l-252 -108 Z" /><glyph glyph-name="uni5B83" unicode="&#x5b83;" d="M887 689 l0 -229 l-89 0 l0 142 l-613 0 l0 -142 l-88 0 l0 229 l361 0 q-12 44 -28 93 l98 15 q23 -69 35 -108 l324 0 ZM780 185 l95 -33 q-7 -71 -18 -118 q-9 -41 -25.5 -63.5 q-16.5 -22.5 -49 -33.5 q-32.5 -11 -91.5 -14 q-69 -4 -155 -4 q-95 0 -171 4 q-57 2 -89 15.5 q-32 13.5 -47.5 45 q-15.5 31.5 -15.5 89.5 l0 441 l94 -4 l0 -212 q119 35 242.5 83 q123.5 48 213.5 96 l45 -91 q-99 -47 -239.5 -98 q-140.5 -51 -261.5 -86 l0 -114 q0 -32 6.5 -48 q6.5 -16 22 -22 q15.5 -6 45.5 -8 q72 -3 144 -3 q73 0 143 3 q38 2 57 8 q19 6 28 20 q9 14 15 43 q9 45 12 104 Z" /><glyph glyph-name="uni5B89" unicode="&#x5b89;" d="M197 610 l0 -111 l-91 0 l0 196 l347 0 q-14 55 -29 95 l99 19 q22 -60 38 -114 l319 0 l0 -196 l-91 0 l0 111 l-592 0 ZM926 346 l-176 0 q-28 -73 -59.5 -127 q-31.5 -54 -72.5 -97 q147 -65 281 -132 l-44 -90 q-120 66 -319 155 q-72 -48 -180 -85 q-108 -37 -270 -71 l-30 93 q134 23 226 48.5 q92 25.5 155 57.5 q-145 62 -255 102 q43 61 90 146 l-218 0 l0 87 l264 0 q46 91 71 154 l97 -32 q-26 -59 -57 -122 l497 0 l0 -87 ZM645 346 l-261 0 q-25 -47 -62 -106 q103 -36 206 -80 q38 35 65.5 80 q27.5 45 51.5 106 Z" /><glyph glyph-name="uni5B8B" unicode="&#x5b8b;" d="M189 610 l0 -116 l-91 0 l0 205 l354 0 q-14 56 -28 95 l94 14 q10 -25 36 -109 l327 0 l0 -205 l-93 0 l0 116 l-599 0 ZM570 338 q67 -89 161.5 -163 q94.5 -74 222.5 -140 l-57 -88 q-115 71 -202 148.5 q-87 77.5 -156 165.5 l0 -364 l-92 0 l0 367 q-66 -89 -152.5 -165.5 q-86.5 -76.5 -206.5 -149.5 l-58 83 q129 68 221.5 143 q92.5 75 158.5 163 l-330 0 l0 88 l367 0 l0 137 l92 -4 l0 -133 l363 0 l0 -88 l-332 0 Z" /><glyph glyph-name="uni5B8C" unicode="&#x5b8c;" d="M181 619 l0 -129 l-90 0 l0 213 l359 0 q-12 50 -26 88 l97 15 q11 -31 32 -103 l333 0 l0 -212 l-89 0 l0 128 l-616 0 ZM772 509 l0 -83 l-566 0 l0 83 l566 0 ZM921 101 q-3 -54 -12 -90 q-8 -35 -21 -54.5 q-13 -19.5 -40 -28.5 q-27 -9 -76 -12 q-16 -1 -49 -1 q-32 0 -49 1 q-69 3 -99.5 31 q-30.5 28 -30.5 96 l0 187 l-141 0 l-1 -17 q-5 -85 -35 -145.5 q-30 -60.5 -93 -105 q-63 -44.5 -168 -81.5 l-46 85 q95 30 146 63.5 q51 33.5 72.5 77.5 q21.5 44 27.5 114 q0 5 1 9 l-227 0 l0 84 l821 0 l0 -84 l-265 0 l0 -169 q0 -35 13 -47 q13 -12 48 -14 q22 -2 31 -2 q11 0 31 2 q38 3 51 11.5 q13 8.5 17 34.5 q7 37 9 83 l85 -28 Z" /><glyph glyph-name="uni5B98" unicode="&#x5b98;" d="M894 711 l0 -189 l-95 0 l0 104 l-616 0 l0 -104 l-95 0 l0 189 l355 0 q-15 54 -23 76 l104 16 q13 -36 29 -92 l341 0 ZM788 290 l-511 0 l0 -81 l538 0 l0 -308 l-93 0 l0 43 l-445 0 l0 -48 l-92 0 l0 645 l603 0 l0 -251 ZM695 371 l0 91 l-418 0 l0 -91 l418 0 ZM722 21 l0 109 l-445 0 l0 -109 l445 0 Z" /><glyph glyph-name="uni5B9A" unicode="&#x5b9a;" d="M189 627 l0 -102 l-90 0 l0 186 l357 0 q-22 69 -29 87 l95 17 q10 -30 10 -30 q15 -40 25 -74 l329 0 l0 -185 l-88 0 l0 101 l-609 0 ZM726 17 q116 0 212 4 l-19 -85 q-115 -5 -204 -5 q-83 0 -167 3 q-105 3 -181 37.5 q-76 34.5 -126 107.5 q-42 -90 -132 -186 l-74 62 q59 61 94 114.5 q35 53.5 54 117 q19 63.5 27 152.5 l93 -8 q-9 -90 -28 -159 q33 -59 78 -93 q45 -34 106 -48 l0 384 l-338 0 l0 83 l744 0 l0 -83 l-315 0 l0 -146 l286 0 l0 -84 l-286 0 l0 -165 l4 0 q87 -3 172 -3 Z" /><glyph glyph-name="uni5B9E" unicode="&#x5b9e;" d="M186 610 l0 -118 l-90 0 l0 202 l363 0 q-19 62 -33 101 l92 14 q16 -39 40 -115 l328 0 l0 -204 l-92 0 l0 120 l-608 0 ZM445 390 q-38 29 -99 63 q-61 34 -108 54 l34 71 q47 -20 106 -50.5 q59 -30.5 99 -55.5 l-32 -82 ZM878 -99 q-70 36 -180 86.5 q-110 50.5 -187 81.5 q-56 -59 -154 -100 q-98 -41 -256 -74 l-34 88 q167 31 259 70.5 q92 39.5 135 99.5 l-395 0 l0 82 l434 0 q17 59 22 159 q2 36 6 180 l93 -4 q0 -39 -1.5 -93.5 q-1.5 -54.5 -3.5 -94.5 q-5 -85 -19 -147 l316 0 l0 -82 l-345 0 q-3 -9 -9 -18 q79 -29 188 -73.5 q109 -44.5 168 -71.5 l-37 -89 ZM201 441 q53 -22 117 -55 q64 -33 102 -58 l-36 -78 q-43 29 -107.5 64 q-64.5 35 -110.5 54 l35 73 Z" /><glyph glyph-name="uni5BA1" unicode="&#x5ba1;" d="M894 713 l0 -178 l-95 0 l0 94 l-620 0 l0 -94 l-95 0 l0 178 l364 0 q-20 63 -26 80 l92 14 q15 -40 32 -94 l348 0 ZM447 599 l88 -3 l0 -81 l290 0 l0 -451 l-290 0 l0 -163 l-88 0 l0 163 l-294 0 l0 451 l294 0 l0 84 ZM447 331 l0 104 l-206 0 l0 -104 l206 0 ZM739 331 l0 104 l-204 0 l0 -104 l204 0 ZM241 254 l0 -110 l206 0 l0 110 l-206 0 ZM535 254 l0 -110 l204 0 l0 110 l-204 0 Z" /><glyph glyph-name="uni5BA2" unicode="&#x5ba2;" d="M188 635 l0 -108 l-89 0 l0 187 l351 0 q-21 63 -30 86 l92 16 l36 -102 l336 0 l0 -190 l-89 0 l0 111 l-607 0 ZM938 283 l-19 -86 q-256 34 -433 106 q-190 -77 -434 -117 l-25 86 q184 21 359 77 q-67 35 -127 81 q-57 -47 -126 -87 l-51 69 q73 39 146 100 q73 61 112 115 l76 -39 q2 3 -28 -34 l404 0 l0 -72 q-85 -73 -205 -133 q151 -47 351 -66 ZM324 480 q69 -53 162 -94 q104 43 175 94 l-337 0 ZM279 -90 l-89 0 l0 298 l601 0 l0 -298 l-88 0 l0 36 l-424 0 l0 -36 ZM703 18 l0 113 l-424 0 l0 -113 l424 0 Z" /><glyph glyph-name="uni5BA3" unicode="&#x5ba3;" d="M176 474 l0 36 l-85 0 l0 194 l359 0 q-15 50 -27 83 l92 15 q20 -56 33 -98 l341 0 l0 -195 l-85 0 l0 -35 l-628 0 ZM799 552 l0 72 l-618 0 l0 -72 l618 0 ZM797 410 l0 -330 l-614 0 l0 330 l614 0 ZM710 279 l0 58 l-442 0 l0 -58 l442 0 ZM268 211 l0 -58 l442 0 l0 58 l-442 0 ZM57 -63 l0 76 l865 0 l0 -76 l-865 0 Z" /><glyph glyph-name="uni5BB9" unicode="&#x5bb9;" d="M186 624 l0 -105 l-89 0 l0 186 l348 0 q-13 45 -27 85 l92 15 q21 -60 33 -100 l337 0 l0 -188 l-89 0 l0 107 l-605 0 ZM592 597 q60 -29 144.5 -73.5 q84.5 -44.5 147.5 -79.5 l-40 -75 q-56 37 -140.5 83 q-84.5 46 -151.5 78 l40 67 ZM101 445 q62 25 140.5 68 q78.5 43 134.5 83 l43 -69 q-58 -41 -133 -83.5 q-75 -42.5 -147 -75.5 l-38 77 ZM906 134 q-67 27 -125 54 l0 -286 l-90 0 l0 39 l-403 0 l0 -39 l-91 0 l0 288 q-58 -28 -126 -54 l-35 81 q146 53 247.5 113.5 q101.5 60.5 168.5 135.5 l76 0 q71 -78 172.5 -138.5 q101.5 -60.5 242.5 -110.5 l-37 -83 ZM708 226 q-139 77 -218 161 q-87 -87 -221 -161 l439 0 ZM288 144 l0 -125 l403 0 l0 125 l-403 0 Z" /><glyph glyph-name="uni5BCC" unicode="&#x5bcc;" d="M888 712 l0 -181 l-85 0 l0 112 l-635 0 l0 -112 l-84 0 l0 181 l362 0 q-5 15 -27 76 l92 17 q19 -47 34 -93 l343 0 ZM212 591 l548 0 l0 -63 l-548 0 l0 63 ZM758 480 l0 -174 l-543 0 l0 174 l543 0 ZM673 418 l-372 0 l0 -51 l372 0 l0 51 ZM234 -102 l-93 0 l0 357 l689 0 l0 -357 l-90 0 l0 38 l-506 0 l0 -38 ZM442 127 l0 62 l-208 0 l0 -62 l208 0 ZM531 127 l209 0 l0 62 l-209 0 l0 -62 ZM234 63 l0 -61 l208 0 l0 61 l-208 0 ZM531 63 l0 -61 l209 0 l0 61 l-209 0 Z" /><glyph glyph-name="uni5BDF" unicode="&#x5bdf;" d="M953 232 l-39 -71 q-170 74 -261 165 l0 -54 l-302 0 l0 41 q-64 -63 -144 -114 l596 0 l0 -71 l-265 0 l0 -109 q0 -45 -7.5 -66 q-7.5 -21 -32 -31 q-24.5 -10 -77.5 -14 l-60 -5 l-24 74 l58 5 q27 2 38.5 7 q11.5 5 15 15 q3.5 10 3.5 32 l0 92 l-248 0 l0 69 q-60 -38 -126 -73 l-42 70 q142 67 232 142.5 q90 75.5 142 163.5 l-123 0 q-4 -4 -10 -12 q37 -27 63 -51 l-39 -54 q-34 32 -68 59 q-24 -24 -37 -35 q37 -32 59 -54 l-46 -51 q-31 35 -62 63 q-9 -7 -48 -37 l-42 66 q144 94 236 240 l69 -29 l-22 -35 l156 0 l0 -67 q-57 -94 -115 -159 l255 0 q-47 52 -81 117 q-34 65 -60 149 l73 17 q7 -24 20 -57 l211 0 l0 80 l-616 0 l0 -96 l-87 0 l0 170 l352 0 q-7 24 -22 66 l90 14 q20 -58 27 -80 l342 0 l0 -163 l-45 0 l0 -62 q-69 -89 -115 -137 q79 -70 228 -130 ZM619 499 q24 -47 55 -85 q55 55 79 85 l-134 0 ZM355 58 q-49 -35 -113.5 -71.5 q-64.5 -36.5 -124.5 -62.5 l-45 73 q55 19 121 53.5 q66 34.5 120 70.5 l42 -63 ZM650 119 q58 -24 129.5 -57.5 q71.5 -33.5 124.5 -61.5 l-35 -78 q-46 28 -121.5 65 q-75.5 37 -132.5 62 l35 70 Z" /><glyph glyph-name="uni5BF8" unicode="&#x5bf8;" d="M924 633 l0 -94 l-203 0 l0 -473 q0 -56 -14.5 -85 q-14.5 -29 -49.5 -41.5 q-35 -12.5 -104 -16.5 l-94 -6 l-31 97 l103 5 q38 2 57 9 q19 7 26 22.5 q7 15.5 7 46.5 l0 442 l-566 0 l0 94 l566 0 l0 169 l100 -4 l0 -165 l203 0 ZM240 490 q58 -53 124.5 -123.5 q66.5 -70.5 104.5 -120.5 l-67 -80 q-39 55 -106.5 130.5 q-67.5 75.5 -121.5 124.5 l66 69 Z" /><glyph glyph-name="uni5BF9" unicode="&#x5bf9;" d="M936 611 l0 -91 l-118 0 l0 -473 q0 -50 -13.5 -77.5 q-13.5 -27.5 -45.5 -40.5 q-32 -13 -91 -17 l-78 -5 l-30 92 l89 5 q33 2 48.5 8 q15.5 6 21 20 q5.5 14 5.5 42 l0 446 l-268 0 l0 91 l268 0 l0 188 l94 -4 l0 -184 l118 0 ZM434 609 q-30 -174 -96 -321 q97 -138 147 -217 l-73 -66 q-42 70 -122 190 q-74 -130 -195 -270 l-65 69 q128 141 204 284 q-89 131 -161 225 l69 51 q46 -58 136 -182 q46 115 67 238 l-274 0 l0 90 l363 0 l0 -91 ZM600 177 q-27 54 -70.5 123.5 q-43.5 69.5 -78.5 113.5 l70 46 q34 -42 78.5 -108.5 q44.5 -66.5 71.5 -117.5 l-71 -57 Z" /><glyph glyph-name="uni5BFC" unicode="&#x5bfc;" d="M141 442 l0 322 l660 0 l0 -263 l-569 0 l0 -40 q0 -28 5 -40.5 q5 -12.5 19.5 -17.5 q14.5 -5 47.5 -7 q84 -4 190 -4 q115 0 208 4 q34 2 51 5.5 q17 3.5 24 11 q7 7.5 10 22.5 q7 29 9 54 l96 -36 q-5 -41 -14 -72 q-9 -33 -37 -47.5 q-28 -14.5 -100 -17.5 q-154 -4 -232 -4 q-76 0 -232 4 q-54 2 -82.5 12.5 q-28.5 10.5 -41 37 q-12.5 26.5 -12.5 76.5 ZM707 582 l0 98 l-475 0 l0 -98 l475 0 ZM927 225 l0 -84 l-176 0 l0 -106 q0 -50 -12 -75 q-12 -25 -40 -35.5 q-28 -10.5 -86 -14.5 l-68 -6 l-27 85 l71 4 q31 2 46 8 q15 6 20 19 q5 13 5 39 l0 82 l-378 0 q89 -55 154 -108 l-45 -76 q-36 31 -92 71.5 q-56 40.5 -98 67.5 l33 45 l-185 0 l0 84 l611 0 l0 68 l91 -3 l0 -65 l176 0 Z" /><glyph glyph-name="uni5C01" unicode="&#x5c01;" d="M938 611 l0 -86 l-104 0 l0 -480 q0 -51 -9 -76.5 q-9 -25.5 -33.5 -37 q-24.5 -11.5 -74.5 -15.5 l-80 -7 l-29 88 l75 5 q35 3 47.5 16 q12.5 13 12.5 46 l0 461 l-224 0 l0 86 l224 0 l0 187 l91 -4 l0 -183 l104 0 ZM338 469 l172 0 l0 -84 l-453 0 l0 84 l189 0 l0 121 l-152 0 l0 84 l152 0 l0 122 l92 -4 l0 -118 l151 0 l0 -84 l-151 0 l0 -121 ZM631 175 q-20 58 -51 131 q-31 73 -58 124 l73 31 q28 -48 59.5 -117.5 q31.5 -69.5 51.5 -125.5 l-75 -43 ZM338 180 l0 -121 q121 14 187 24 l0 -88 q-93 -13 -223 -27 q-130 -14 -249 -23 l-10 88 q63 4 203 16 l0 131 l-150 0 l0 86 l150 0 l0 89 l92 -4 l0 -85 l153 0 l0 -86 l-153 0 Z" /><glyph glyph-name="uni5C04" unicode="&#x5c04;" d="M352 788 q-10 -36 -28 -86 l149 0 l0 -683 q0 -42 -12 -64 q-12 -22 -38.5 -31.5 q-26.5 -9.5 -75.5 -12.5 l-65 -5 l-27 81 l73 4 q42 2 55 14 q13 12 13 44 l0 141 l-25 0 q-95 -151 -283 -266 l-52 72 q80 42 138.5 89 q58.5 47 100.5 105 l-218 0 l0 73 l70 0 l0 439 l104 0 q15 42 29 101 l92 -15 ZM931 596 l0 -85 l-101 0 l0 -470 q0 -47 -12 -72.5 q-12 -25.5 -41.5 -38 q-29.5 -12.5 -85.5 -16.5 l-73 -6 l-28 83 l77 4 q47 3 62 17.5 q15 14.5 15 53.5 l0 445 l-242 0 l0 85 l242 0 l0 195 l86 -3 l0 -192 l101 0 ZM207 555 l189 0 l0 75 l-189 0 l0 -75 ZM207 409 l189 0 l0 75 l-189 0 l0 -75 ZM638 169 q-20 48 -60.5 121 q-40.5 73 -68.5 112 l65 42 q28 -35 70 -105 q42 -70 63 -116 l-69 -54 ZM207 338 l0 -75 l189 0 l0 75 l-189 0 Z" /><glyph glyph-name="uni5C06" unicode="&#x5c06;" d="M377 504 l-49 68 q74 48 142.5 114.5 q68.5 66.5 111.5 132.5 l79 -39 q-27 -38 -52 -69 l294 0 l0 -86 q-78 -104 -194.5 -176.5 q-116.5 -72.5 -312.5 -138.5 l-39 75 q169 52 271.5 110.5 q102.5 58.5 177.5 143.5 l-263 0 l-28 -27 q61 -41 103 -79 l-54 -70 q-35 38 -114 94 q-41 -32 -73 -53 ZM234 794 l87 -3 l0 -886 l-87 0 l0 341 q-122 -103 -162 -134 l-44 84 q23 15 88 66 q65 51 118 94 l0 438 ZM144 376 q-15 59 -41.5 139 q-26.5 80 -50.5 141 l77 30 q23 -55 50 -132.5 q27 -77.5 44 -139.5 l-79 -38 ZM937 309 l0 -81 l-116 0 l0 -189 q0 -48 -11.5 -72.5 q-11.5 -24.5 -39 -36 q-27.5 -11.5 -83.5 -16.5 l-60 -4 l-28 82 l64 3 q31 2 45.5 7.5 q14.5 5.5 19.5 17.5 q5 12 5 36 l0 172 l-252 0 q34 -30 73.5 -70.5 q39.5 -40.5 62.5 -69.5 l-61 -70 q-24 34 -69 83 q-45 49 -77 78 l47 49 l-112 0 l0 81 l388 0 l0 121 l88 -4 l0 -117 l116 0 Z" /><glyph glyph-name="uni5C0F" unicode="&#x5c0f;" d="M382 13 q39 2 51 15.5 q12 13.5 12 53.5 l0 705 l97 -4 l0 -734 q0 -51 -13 -78 q-13 -27 -43 -39 q-30 -12 -87 -16 l-89 -6 l-33 98 l105 5 ZM715 616 q55 -108 126 -258.5 q71 -150.5 112 -251.5 l-89 -48 q-46 115 -113.5 264 q-67.5 149 -120.5 255 l85 39 ZM26 111 q59 101 116 244 q57 143 82 254 l93 -24 q-28 -118 -86 -263.5 q-58 -145.5 -119 -254.5 l-86 44 Z" /><glyph glyph-name="uni5C11" unicode="&#x5c11;" d="M436 214 l0 585 l96 -3 l0 -582 l-96 0 ZM675 688 q53 -57 135.5 -155.5 q82.5 -98.5 126.5 -157.5 l-67 -68 q-42 62 -123.5 162.5 q-81.5 100.5 -138.5 162.5 l67 56 ZM58 286 q54 75 115.5 187.5 q61.5 112.5 96.5 200.5 l85 -36 q-37 -92 -99 -209.5 q-62 -117.5 -115 -195.5 l-83 53 ZM51 -17 q189 52 311.5 104 q122.5 52 211.5 120 q89 68 173 170 l64 -68 q-95 -109 -192.5 -181.5 q-97.5 -72.5 -222.5 -127.5 q-125 -55 -311 -109 l-34 92 Z" /><glyph glyph-name="uni5C18" unicode="&#x5c18;" d="M444 792 l93 -3 l0 -374 l-93 0 l0 377 ZM851 378 q-46 55 -124.5 141.5 q-78.5 86.5 -123.5 128.5 l67 63 q47 -43 125.5 -123 q78.5 -80 125.5 -132 l-70 -78 ZM376 646 q-46 -65 -114 -141 q-68 -76 -128 -131 l-72 72 q65 57 129 126.5 q64 69.5 109 133.5 l76 -60 ZM829 192 l-292 0 l0 -174 l382 0 l0 -88 l-859 0 l0 88 l384 0 l0 174 l-293 0 l0 91 l293 0 l0 96 l93 -3 l0 -93 l292 0 l0 -91 Z" /><glyph glyph-name="uni5C1A" unicode="&#x5c1a;" d="M536 536 l330 0 l0 -499 q0 -49 -12 -74 q-12 -25 -40 -35.5 q-28 -10.5 -86 -15.5 l-68 -5 l-27 87 l70 4 q33 2 47.5 7 q14.5 5 19 17.5 q4.5 12.5 4.5 39.5 l0 387 l-569 0 l0 -539 l-92 0 l0 626 l331 0 l0 262 l92 -3 l0 -259 ZM848 708 q-34 -36 -85.5 -85 q-51.5 -49 -88.5 -79 l-59 69 q39 32 90 80 q51 48 80 80 l63 -65 ZM307 540 q-27 33 -81.5 85.5 q-54.5 52.5 -93.5 82.5 l61 64 q36 -27 91.5 -77.5 q55.5 -50.5 83.5 -82.5 l-61 -72 ZM307 353 l365 0 l0 -316 l-365 0 l0 316 ZM388 120 l203 0 l0 151 l-203 0 l0 -151 Z" /><glyph glyph-name="uni5C31" unicode="&#x5c31;" d="M517 698 l0 -81 l-445 0 l0 81 l184 0 q-14 49 -28 93 l81 14 q20 -55 35 -107 l173 0 ZM919 492 l-251 0 q-4 -143 -24 -240.5 q-20 -97.5 -60 -176.5 q-40 -79 -112 -172 l-73 54 q71 85 108.5 156.5 q37.5 71.5 55.5 158.5 q18 87 24 220 l-85 0 l0 83 l88 0 l0 1 l2 227 l81 -3 q-4 -167 -4 -224 l0 -1 l250 0 l0 -83 ZM842 592 q-21 29 -60.5 73 q-39.5 44 -68.5 72 l55 52 q26 -23 65 -65 q39 -42 64 -74 l-55 -58 ZM469 279 l-126 0 l0 -247 q0 -44 -9 -66 q-9 -22 -31 -31.5 q-22 -9.5 -66 -13.5 l-57 -6 l-27 83 l51 4 q25 3 36.5 7.5 q11.5 4.5 15.5 15 q4 10.5 4 32.5 l0 222 l-144 0 l0 260 l353 0 l0 -260 ZM389 466 l-194 0 l0 -113 l194 0 l0 113 ZM941 125 q-4 -65 -10 -106 q-7 -51 -26.5 -72.5 q-19.5 -21.5 -67.5 -21.5 l-51 0 q-45 0 -68 25 q-23 25 -23 79 l0 434 l83 -4 l0 -413 q0 -25 6 -33 q6 -8 24 -8 l22 0 q18 0 24.5 8 q6.5 8 9.5 31 q8 46 8 105 l69 -24 ZM445 68 q-14 32 -36.5 71.5 q-22.5 39.5 -42.5 66.5 l62 42 q18 -25 41 -62 q23 -37 38 -66 l-62 -52 ZM216 216 q-19 -60 -48.5 -120 q-29.5 -60 -69.5 -129 l-70 38 q90 158 114 238 l74 -27 Z" /><glyph glyph-name="uni5C3A" unicode="&#x5c3a;" d="M532 371 q42 -128 139 -219.5 q97 -91.5 265 -157.5 l-48 -89 q-183 80 -294 192 q-111 112 -161 274 l-165 0 q-3 -112 -19.5 -191.5 q-16.5 -79.5 -47 -145 q-30.5 -65.5 -82.5 -139.5 l-83 52 q56 79 85.5 142.5 q29.5 63.5 42.5 144 q13 80.5 13 205.5 l0 318 l648 0 l0 -386 l-293 0 ZM732 463 l0 202 l-463 0 l0 -202 l463 0 Z" /><glyph glyph-name="uni5C3D" unicode="&#x5c3d;" d="M626 438 q44 -83 127.5 -154.5 q83.5 -71.5 195.5 -126.5 l-49 -85 q-119 60 -219.5 157.5 q-100.5 97.5 -149.5 208.5 l-260 0 q-7 -137 -46 -239 q-39 -102 -122 -216 l-73 59 q61 88 92 153.5 q31 65.5 44.5 145.5 q13.5 80 13.5 204 l0 217 l657 0 l0 -324 l-211 0 ZM745 528 l0 143 l-472 0 l0 -143 l472 0 ZM365 333 q61 -18 144.5 -48 q83.5 -30 135.5 -52 l-23 -87 q-101 46 -283 108 l26 79 ZM295 137 q100 -30 227 -72.5 q127 -42.5 210 -74.5 l-27 -94 q-78 35 -200 78.5 q-122 43.5 -240 80.5 l30 82 Z" /><glyph glyph-name="uni5C40" unicode="&#x5c40;" d="M885 432 l-10 -371 q-3 -58 -19 -88.5 q-16 -30.5 -50.5 -44 q-34.5 -13.5 -100.5 -17.5 l-79 -5 l-26 81 l90 4 q40 2 59 10 q19 8 26 25.5 q7 17.5 9 53.5 q9 239 8 267 l-560 0 q-7 -137 -35.5 -232.5 q-28.5 -95.5 -93.5 -209.5 l-78 43 q49 87 74.5 156 q25.5 69 36 152 q10.5 83 10.5 212 l0 291 l695 0 l0 -258 l-606 0 l0 -43 l0 -26 l650 0 ZM752 583 l0 93 l-517 0 l0 -93 l517 0 ZM290 273 l384 0 l0 -248 l-384 0 l0 248 ZM376 97 l213 0 l0 104 l-213 0 l0 -104 Z" /><glyph glyph-name="uni5C42" unicode="&#x5c42;" d="M883 498 l-635 0 l0 -82 q0 -125 -12.5 -211 q-12.5 -86 -40 -156.5 q-27.5 -70.5 -77.5 -155.5 l-87 38 q51 83 77 144 q26 61 38 145.5 q12 84.5 12 220.5 l-1 313 l726 0 l0 -256 ZM792 572 l0 105 l-544 0 l0 -105 l544 0 ZM861 409 l0 -76 l-568 0 l0 76 l568 0 ZM556 168 q-30 -41 -71 -83.5 q-41 -42.5 -72 -66.5 l309 13 q-39 46 -67 75 l67 49 q37 -37 93.5 -102 q56.5 -65 89.5 -109 l-64 -64 q-19 29 -58 76 q-93 -4 -219.5 -9.5 q-126.5 -5.5 -210.5 -10.5 q-48 -2 -71 -7 l-18 75 q18 7 29.5 14 q11.5 7 26.5 19 q28 24 62.5 60 q34.5 36 63.5 71 l-197 0 l0 76 l684 0 l0 -76 l-377 0 Z" /><glyph glyph-name="uni5C4F" unicode="&#x5c4f;" d="M929 207 l0 -80 l-188 0 l0 -222 l-89 0 l0 222 l-178 0 q-10 -80 -46 -131.5 q-36 -51.5 -116 -111.5 l-62 63 q73 54 100.5 89.5 q27.5 35.5 34.5 90.5 l-151 0 l0 80 l156 0 l0 29 l0 89 l-129 0 l0 80 l173 0 q-30 47 -64 86 l51 31 l-185 0 l0 -97 q0 -182 -30 -304 q-30 -122 -86 -225 l-87 48 q40 70 63 132.5 q23 62.5 35 150.5 q12 88 12 219 l0 311 l729 0 l0 -235 l-167 0 l66 -32 q-25 -44 -52 -85 l170 0 l0 -80 l-148 0 l0 -118 l188 0 ZM781 678 l-545 0 l0 -77 l545 0 l0 77 ZM448 522 q45 -56 72 -98 l-25 -19 l123 0 q39 59 72 117 l-242 0 ZM480 207 l172 0 l0 118 l-172 0 l0 -85 l0 -33 Z" /><glyph glyph-name="uni5C55" unicode="&#x5c55;" d="M938 -7 l-35 -81 q-161 40 -266 112 q-105 72 -164 190 l-74 0 l0 -218 q136 51 156 59 l10 -75 l-198 -69 q-10 -3 -24.5 -9.5 q-14.5 -6.5 -23.5 -10.5 l-31 69 q15 9 20 17.5 q5 8.5 5 18.5 l0 218 l-92 0 q-10 -85 -33 -153 q-23 -68 -70 -163 l-78 42 q44 84 65 147.5 q21 63.5 30 147 q9 83.5 9 223.5 l0 305 l723 0 l0 -231 l-636 0 l0 -119 q0 -70 -3 -127 l173 0 l0 85 l-145 0 l0 73 l145 0 l0 66 l83 -3 l0 -63 l162 0 l0 66 l84 -3 l0 -63 l153 0 l0 -73 l-153 0 l0 -85 l189 0 l0 -72 l-112 0 l45 -54 q-66 -46 -141 -90 q93 -52 227 -77 ZM783 607 l0 82 l-552 0 l0 -82 l552 0 ZM646 371 l-162 0 l0 -85 l162 0 l0 85 ZM560 214 q35 -57 87 -99 q89 50 154 99 l-241 0 Z" /><glyph glyph-name="uni5C5E" unicode="&#x5c5e;" d="M868 574 l-648 0 l0 -123 q0 -128 -11 -215.5 q-11 -87.5 -35 -161 q-24 -73.5 -69 -172.5 l-87 35 q43 86 67 158 q24 72 35 156.5 q11 84.5 11 203.5 l0 308 l737 0 l0 -189 ZM783 642 l0 49 l-563 0 l0 -49 l563 0 ZM594 210 l280 0 l0 -206 q0 -38 -9 -57 q-9 -19 -33.5 -28.5 q-24.5 -9.5 -76.5 -14.5 l-53 -5 l-22 69 l53 5 q25 3 36.5 7 q11.5 4 15 11.5 q3.5 7.5 3.5 23.5 l0 133 l-194 0 l0 -71 l65 5 l-16 28 l59 25 q16 -24 35.5 -58.5 q19.5 -34.5 31.5 -63.5 l-62 -33 q-10 25 -16 37 q-72 -5 -183 -11.5 q-111 -6.5 -143 -7.5 l-3 67 l150 7 l0 76 l-184 0 l0 -239 l-85 0 l0 301 l269 0 l0 44 l-234 0 l0 165 l234 0 l0 46 q-124 -5 -260 -9 l-4 68 q133 2 308 8.5 q175 6.5 289 15.5 l3 -66 q-108 -8 -254 -14 l0 -49 l241 0 l0 -165 l-241 0 l0 -44 ZM359 359 l0 -45 l153 0 l0 45 l-153 0 ZM753 314 l0 45 l-159 0 l0 -45 l159 0 Z" /><glyph glyph-name="uni5DDE" unicode="&#x5dde;" d="M772 793 l89 -3 l0 -876 l-89 0 l0 382 l-70 -36 q-20 59 -52 135 q-32 76 -61 134 l0 -597 l-89 0 l0 363 l-65 -36 q-50 136 -104 251 l0 -43 q0 -157 -16 -254 q-16 -97 -56 -170 q-40 -73 -119 -150 l-78 56 q77 76 114.5 140 q37.5 64 52 150 q14.5 86 14.5 231 l0 323 l88 -3 l0 -252 l62 31 q27 -51 57 -121 q30 -70 50 -128 l0 450 l89 -4 l0 -232 l71 35 q28 -53 59.5 -125 q31.5 -72 52.5 -131 l0 480 ZM208 553 q-13 -63 -41 -154.5 q-28 -91.5 -54 -154.5 l-76 28 q28 63 54 147 q26 84 40 152 l77 -18 Z" /><glyph glyph-name="uni5DE5" unicode="&#x5de5;" d="M542 633 l0 -580 l383 0 l0 -89 l-869 0 l0 89 l382 0 l0 580 l-314 0 l0 94 l734 0 l0 -94 l-316 0 Z" /><glyph glyph-name="uni5DE6" unicode="&#x5de6;" d="M612 37 l311 0 l0 -87 l-740 0 l0 87 l335 0 l0 265 l-201 0 q-85 -151 -236 -315 l-61 76 q112 123 188 245.5 q76 122.5 122 266.5 l-247 0 l0 91 l273 0 q15 64 27 133 l96 -9 q-11 -68 -24 -124 l465 0 l0 -91 l-489 0 q-27 -93 -68 -184 l502 0 l0 -89 l-253 0 l0 -265 Z" /><glyph glyph-name="uni5DE7" unicode="&#x5de7;" d="M924 651 l-314 0 l-33 -211 l303 0 q-4 -67 -11 -174.5 q-7 -107.5 -11 -173.5 q-4 -59 -22.5 -90.5 q-18.5 -31.5 -57.5 -45.5 q-39 -14 -113 -19 l-84 -6 l-30 89 l106 5 q44 2 65 10 q21 8 29.5 27.5 q8.5 19.5 11.5 58.5 l17 229 l-313 0 l48 301 l-84 0 l0 90 l493 0 l0 -90 ZM445 192 l4 -45 q-202 -56 -391 -95 l-20 96 q79 14 160 33 l0 440 l-132 0 l0 92 l340 0 l0 -92 l-116 0 l0 -418 q72 18 151 40 l4 -51 Z" /><glyph glyph-name="uni5DF1" unicode="&#x5df1;" d="M118 751 l699 0 l0 -397 l-588 0 l0 -237 q0 -41 7 -60 q7 -19 27 -26.5 q20 -7.5 63 -9.5 q84 -4 186 -4 q102 0 185 4 q44 2 63.5 9 q19.5 7 27.5 22.5 q8 15.5 14 51.5 q7 42 9 89 l96 -31 q-2 -49 -10 -91 q-11 -58 -25.5 -85.5 q-14.5 -27.5 -46.5 -40.5 q-32 -13 -96 -16 q-122 -5 -217 -5 q-94 0 -216 5 q-66 3 -99.5 15.5 q-33.5 12.5 -48.5 45.5 q-15 33 -15 100 l0 356 l586 0 l0 211 l-601 0 l0 94 Z" /><glyph glyph-name="uni5DF2" unicode="&#x5df2;" d="M914 162 q-3 -48 -11 -98 q-11 -58 -26.5 -87 q-15.5 -29 -48 -41 q-32.5 -12 -95.5 -15 q-125 -5 -225 -5 q-92 0 -207 5 q-65 3 -99 17.5 q-34 14.5 -49 48.5 q-15 34 -15 99 l0 472 l97 -4 l0 -123 l493 0 l0 221 l-615 0 l0 95 l711 0 l0 -408 l-589 0 l0 -228 q0 -41 7.5 -60 q7.5 -19 27 -26.5 q19.5 -7.5 62.5 -9.5 q103 -5 186 -5 q83 0 186 5 q43 3 62.5 9 q19.5 6 28.5 22.5 q9 16.5 15 52.5 q7 45 9 95 l95 -32 Z" /><glyph glyph-name="uni5E02" unicode="&#x5e02;" d="M923 602 l-388 0 l0 -124 l302 0 l0 -350 q0 -48 -11 -72.5 q-11 -24.5 -36 -35 q-25 -10.5 -74 -15.5 l-65 -6 l-28 91 l69 5 q24 2 35 6.5 q11 4.5 14.5 16 q3.5 11.5 3.5 37.5 l0 234 l-210 0 l0 -485 l-91 0 l0 485 l-213 0 l0 -389 l-89 0 l0 478 l302 0 l0 124 l-387 0 l0 86 l395 0 q-17 61 -31 103 l94 15 q11 -28 37 -118 l371 0 l0 -86 Z" /><glyph glyph-name="uni5E03" unicode="&#x5e03;" d="M408 596 q-44 -91 -99 -165 l170 0 l0 119 l89 -3 l0 -116 l283 0 l0 -333 q0 -46 -11 -69.5 q-11 -23.5 -36.5 -33.5 q-25.5 -10 -76.5 -15 l-55 -5 l-29 88 l60 5 q26 2 38.5 7.5 q12.5 5.5 16.5 16.5 q4 11 4 33 l0 214 l-194 0 l0 -435 l-89 0 l0 435 l-188 0 l0 -364 l-90 0 l0 328 q-56 -57 -134 -126 l-51 83 q99 76 169.5 157 q70.5 81 123.5 179 l-234 0 l0 88 l276 0 q30 67 50 130 l88 -20 q-18 -55 -41 -110 l482 0 l0 -88 l-522 0 Z" /><glyph glyph-name="uni5E05" unicode="&#x5e05;" d="M688 644 l198 0 l0 -498 q0 -40 -8 -60.5 q-8 -20.5 -29.5 -30.5 q-21.5 -10 -65.5 -16 l-46 -5 l-28 87 l41 4 q32 3 41 13 q9 10 9 39 l0 381 l-112 0 l0 -653 l-85 0 l0 653 l-107 0 l0 -523 l-85 0 l0 609 l192 0 l0 156 l85 -3 l0 -153 ZM260 788 l85 -3 l0 -368 q0 -148 -17.5 -238 q-17.5 -90 -58 -154 q-40.5 -64 -119.5 -137 l-71 56 q82 73 118 127 q36 54 49.5 129.5 q13.5 75.5 13.5 218.5 l0 369 ZM94 710 l84 -3 l0 -577 l-84 0 l0 580 Z" /><glyph glyph-name="uni5E08" unicode="&#x5e08;" d="M261 795 l82 -4 l0 -371 q0 -143 -17.5 -231 q-17.5 -88 -60 -155.5 q-42.5 -67.5 -125.5 -142.5 l-67 62 q83 70 122 125.5 q39 55.5 52.5 129 q13.5 73.5 13.5 205.5 l0 382 ZM920 666 l-238 0 l0 -119 l193 0 l0 -405 q0 -42 -8.5 -62.5 q-8.5 -20.5 -28.5 -29.5 q-20 -9 -62 -14 l-47 -6 l-28 87 l49 5 q30 3 38.5 12 q8.5 9 8.5 40 l0 288 l-115 0 l0 -558 l-83 0 l0 558 l-103 0 l0 -426 l-82 0 l0 511 l185 0 l0 119 l-208 0 l0 83 l529 0 l0 -83 ZM94 731 l81 -3 l0 -594 l-81 0 l0 597 Z" /><glyph glyph-name="uni5E0C" unicode="&#x5e0c;" d="M113 584 q113 24 255 68 q-127 44 -216 70 l27 77 q82 -24 319 -104 q179 60 277 110 l35 -75 q-74 -35 -189 -78 q19 -6 35 -13 q157 -57 196 -73 l-25 -81 q-113 47 -330 123 q-209 -70 -362 -102 l-22 78 ZM390 393 q-42 -58 -92 -113 l166 0 l0 83 l90 -3 l0 -80 l280 0 l0 -212 q0 -42 -10 -63 q-10 -21 -34 -30.5 q-24 -9.5 -72 -14.5 l-52 -6 l-29 80 l52 5 q25 3 37 7.5 q12 4.5 15.5 14 q3.5 9.5 3.5 29.5 l0 110 l-191 0 l0 -293 l-90 0 l0 293 l-181 0 l0 -239 l-91 0 l0 217 q-48 -42 -117 -92 l-45 78 q150 98 255 229 l-218 0 l0 80 l274 0 q30 49 47 86 l85 -23 q-20 -42 -32 -63 l484 0 l0 -80 l-535 0 Z" /><glyph glyph-name="uni5E26" unicode="&#x5e26;" d="M752 795 l0 -108 l169 0 l0 -80 l-169 0 l0 -92 l-85 0 l0 92 l-136 0 l0 -92 l-85 0 l0 92 l-135 0 l0 -92 l-84 0 l0 92 l-170 0 l0 80 l170 0 l0 112 l84 -4 l0 -108 l135 0 l0 112 l85 -4 l0 -108 l136 0 l0 112 l85 -4 ZM177 304 l-84 0 l0 179 l794 0 l0 -179 l-86 0 l0 99 l-624 0 l0 -99 ZM531 371 l0 -75 l270 0 l0 -208 q0 -46 -9 -68.5 q-9 -22.5 -32.5 -33 q-23.5 -10.5 -72.5 -16.5 l-54 -5 l-29 82 l55 4 q36 4 46.5 13.5 q10.5 9.5 10.5 33.5 l0 118 l-185 0 l0 -312 l-85 0 l0 312 l-182 0 l0 -247 l-85 0 l0 327 l267 0 l0 78 l85 -3 Z" /><glyph glyph-name="uni5E2E" unicode="&#x5e2e;" d="M534 308 l0 -70 l292 0 l0 -181 q0 -41 -11.5 -62.5 q-11.5 -21.5 -36 -31 q-24.5 -9.5 -72.5 -13.5 l-57 -6 l-25 78 l53 5 q36 3 47.5 10.5 q11.5 7.5 11.5 26.5 l0 92 l-202 0 l0 -261 l-92 1 l0 260 l-185 0 l0 -208 l-93 0 l0 247 q-22 -14 -71 -40 l-52 69 q78 38 119.5 68 q41.5 30 61.5 67 l-163 0 l0 75 l187 0 q4 21 6 69 l-154 0 l0 73 l154 0 l0 65 l-174 0 l0 74 l174 0 l0 77 l91 -4 l0 -73 l160 0 l0 -74 l-160 0 l0 -65 l140 0 l0 -73 l-140 0 q-1 -37 -6 -69 l170 0 l0 -75 l-188 0 q-14 -36 -36.5 -65 q-22.5 -29 -56.5 -56 l216 0 l0 74 l92 -4 ZM898 423 q0 -35 -13 -54.5 q-13 -19.5 -43.5 -30 q-30.5 -10.5 -87.5 -16.5 l-44 -4 l-28 78 l46 3 q36 3 52.5 8 q16.5 5 22 13.5 q5.5 8.5 5.5 24.5 q0 20 -25.5 45.5 q-25.5 25.5 -81.5 53.5 q21 25 68 93 l22 30 l-165 0 l0 -382 l-86 0 l0 461 l339 0 l0 -79 q-10 -12 -42 -58 l-39 -52 q58 -35 79 -68 q21 -33 21 -66 Z" /><glyph glyph-name="uni5E38" unicode="&#x5e38;" d="M896 650 l0 -200 l-82 0 l0 121 l-646 0 l0 -120 l-82 0 l0 199 l186 0 q-49 55 -94 97 l64 54 q24 -22 60.5 -59 q36.5 -37 54.5 -60 l-31 -32 l120 0 l0 154 l89 -3 l0 -151 l117 0 l-32 26 q28 26 61 61.5 q33 35.5 55 64.5 l62 -50 q-46 -57 -90 -102 l188 0 ZM535 298 l0 -65 l309 0 l0 -181 q0 -39 -10.5 -58 q-10.5 -19 -35 -28 q-24.5 -9 -75.5 -14 l-59 -6 l-27 82 l60 5 q27 3 39 7 q12 4 16 13 q4 9 4 28 l0 73 l-221 0 l0 -256 l-89 -1 l0 257 l-216 0 l0 -204 l-87 0 l0 283 l303 0 l0 65 l-230 0 l0 212 l550 0 l0 -212 l-231 0 ZM687 438 l-393 0 l0 -69 l393 0 l0 69 Z" /><glyph glyph-name="uni5E45" unicode="&#x5e45;" d="M269 793 l0 -159 l131 0 l0 -480 q0 -31 -6 -46 q-6 -15 -19.5 -21 q-13.5 -6 -41.5 -10 l-29 -4 l-24 79 l25 2 q14 2 18.5 8 q4.5 6 4.5 22 l0 365 l-59 0 l0 -649 l-76 0 l0 649 l-56 0 l0 -472 l-73 0 l0 557 l129 0 l0 163 l76 -4 ZM417 673 l0 80 l495 0 l0 -80 l-495 0 ZM467 395 l0 219 l385 0 l0 -219 l-385 0 ZM547 468 l226 0 l0 73 l-226 0 l0 -73 ZM512 -99 l-76 0 l0 434 l452 0 l0 -434 l-78 0 l0 42 l-298 0 l0 -42 ZM623 176 l0 85 l-111 0 l0 -85 l111 0 ZM695 176 l115 0 l0 85 l-115 0 l0 -85 ZM512 106 l0 -90 l111 0 l0 90 l-111 0 ZM695 106 l0 -90 l115 0 l0 90 l-115 0 Z" /><glyph glyph-name="uni5E72" unicode="&#x5e72;" d="M540 404 l381 0 l0 -94 l-381 0 l0 -399 l-99 0 l0 399 l-384 0 l0 94 l384 0 l0 247 l-302 0 l0 93 l701 0 l0 -93 l-300 0 l0 -247 Z" /><glyph glyph-name="uni5E73" unicode="&#x5e73;" d="M537 306 l390 0 l0 -90 l-390 0 l0 -308 l-94 0 l0 308 l-392 0 l0 90 l392 0 l0 358 l-339 0 l0 91 l771 0 l0 -91 l-338 0 l0 -358 ZM606 392 q36 40 86 113.5 q50 73.5 74 119.5 l73 -50 q-26 -45 -76.5 -119 q-50.5 -74 -84.5 -116 l-72 52 ZM208 624 q34 -44 82.5 -113.5 q48.5 -69.5 78.5 -117.5 l-71 -54 q-29 49 -77.5 120.5 q-48.5 71.5 -81.5 114.5 l69 50 Z" /><glyph glyph-name="uni5E74" unicode="&#x5e74;" d="M918 196 l0 -88 l-354 0 l0 -206 l-89 0 l0 206 l-439 0 l0 88 l144 0 l0 271 l295 0 l0 151 l-221 0 q-67 -107 -162 -208 l-59 78 q70 69 125 150.5 q55 81.5 92 169.5 l91 -24 q-21 -47 -37 -78 l570 0 l0 -88 l-310 0 l0 -151 l285 0 l0 -86 l-285 0 l0 -185 l354 0 ZM270 381 l0 -185 l205 0 l0 185 l-205 0 Z" /><glyph glyph-name="uni5E76" unicode="&#x5e76;" d="M937 331 l0 -89 l-223 0 l0 -337 l-93 0 l0 337 l-249 0 q-8 -86 -30 -146.5 q-22 -60.5 -63.5 -109.5 q-41.5 -49 -112.5 -103 l-68 73 q68 49 105 89 q37 40 54.5 85.5 q17.5 45.5 23.5 111.5 l-238 0 l0 89 l242 0 l0 45 l0 168 l-191 0 l0 88 l232 0 q-54 84 -95 139 l75 48 q21 -26 56 -76 q35 -50 54 -82 l-37 -29 l185 0 q27 39 57.5 90.5 q30.5 51.5 50.5 88.5 l88 -39 q-38 -68 -86 -140 l215 0 l0 -88 l-175 0 l0 -213 l223 0 ZM621 331 l0 213 l-244 0 l0 -158 q0 -37 -1 -55 l245 0 Z" /><glyph glyph-name="uni5E8F" unicode="&#x5e8f;" d="M919 715 l0 -86 l-681 0 l0 -233 q0 -126 -11 -207.5 q-11 -81.5 -35.5 -146 q-24.5 -64.5 -70.5 -146.5 l-80 42 q43 70 66 131.5 q23 61.5 32.5 134.5 q9.5 73 9.5 182 l0 329 l350 0 q-13 43 -26 77 l95 16 q15 -41 32 -93 l319 0 ZM633 313 l293 0 l0 -81 l-96 -169 l-82 37 l83 130 l-200 0 l0 -209 q0 -46 -11.5 -70 q-11.5 -24 -38.5 -34 q-27 -10 -80 -15 l-71 -7 l-28 86 l73 6 q29 2 42.5 7 q13.5 5 18.5 15.5 q5 10.5 5 31.5 l0 189 l-276 0 l0 83 l260 0 q-62 46 -144 102 l51 55 q78 -51 137 -94 q93 58 162 103 l-428 0 l0 80 l562 0 l0 -82 q-25 -18 -97.5 -66 q-72.5 -48 -131.5 -85 l5 -4 l-8 -9 Z" /><glyph glyph-name="uni5E93" unicode="&#x5e93;" d="M920 703 l0 -79 l-686 0 l0 -229 q0 -126 -11.5 -208 q-11.5 -82 -36.5 -146 q-25 -64 -72 -148 l-86 41 q47 83 71.5 145 q24.5 62 35 132.5 q10.5 70.5 10.5 174.5 l0 317 l365 0 q-20 66 -31 94 l92 15 q25 -66 38 -109 l311 0 ZM931 129 l0 -84 l-285 0 l0 -141 l-90 0 l0 141 l-313 0 l0 84 l313 0 l0 91 l-249 0 l0 80 q39 58 86 142 l-127 0 l0 82 l169 0 q26 54 44 100 l84 -24 q-10 -24 -34 -76 l355 0 l0 -82 l-397 0 q-47 -87 -84 -142 l153 0 l0 109 l90 -3 l0 -106 l218 0 l0 -80 l-218 0 l0 -91 l285 0 Z" /><glyph glyph-name="uni5E94" unicode="&#x5e94;" d="M240 606 l0 -206 q0 -118 -11 -201 q-11 -83 -35.5 -152.5 q-24.5 -69.5 -68.5 -152.5 l-84 42 q46 78 69.5 142 q23.5 64 33 137 q9.5 73 9.5 182 l0 296 l351 0 q-16 58 -34 107 l92 16 q22 -54 42 -123 l312 0 l0 -87 l-676 0 ZM560 154 q-13 86 -35.5 198 q-22.5 112 -40.5 176 l85 17 q17 -62 40 -169.5 q23 -107.5 38 -193.5 l-87 -28 ZM935 34 l0 -85 l-706 0 l0 85 l397 0 q42 109 86.5 245.5 q44.5 136.5 72.5 240.5 l85 -23 q-24 -89 -68.5 -222.5 q-44.5 -133.5 -85.5 -240.5 l219 0 ZM387 98 q-22 85 -58.5 203 q-36.5 118 -62.5 187 l78 26 q27 -67 64 -181 q37 -114 61 -201 l-82 -34 Z" /><glyph glyph-name="uni5E95" unicode="&#x5e95;" d="M917 720 l0 -85 l-677 0 l0 -227 q0 -120 -12 -206.5 q-12 -86.5 -37 -156.5 q-25 -70 -68 -151 l-86 50 q46 80 69.5 142.5 q23.5 62.5 33.5 134.5 q10 72 10 177 l0 322 l344 0 q-11 40 -23 71 l97 16 l31 -87 l318 0 ZM936 85 q-11 -46 -34 -94 q-18 -38 -41 -57.5 q-23 -19.5 -57 -19.5 q-33 0 -63.5 20 q-30.5 20 -59.5 66 q-29 45 -48.5 101.5 q-19.5 56.5 -33.5 140.5 l-196 0 l0 -191 q20 7 64.5 28 q44.5 21 57.5 27 l53 24 l19 -77 q-6 -2 -30 -14 l-30 -14 q42 -44 71 -80 l-57 -55 q-33 47 -84 104 q-38 -18 -88 -39 q-32 -14 -55 -28 l-39 77 q17 13 23 23 q6 10 6 24 l0 480 q130 4 271 16.5 q141 12.5 256 30.5 l20 -83 q-81 -12 -198 -24 q3 -86 10 -143 l238 0 l0 -86 l-226 0 q19 -107 61 -180 q30 -51 55 -51 q12 0 21 9.5 q9 9.5 17 32.5 q15 41 22 73 l75 -41 ZM403 328 l186 0 q-8 77 -10 134 q-97 -9 -176 -12 l0 -122 Z" /><glyph glyph-name="uni5EA6" unicode="&#x5ea6;" d="M215 628 l0 -245 q0 -124 -11.5 -206 q-11.5 -82 -34.5 -144.5 q-23 -62.5 -65 -139.5 l-79 44 q43 78 64 136.5 q21 58.5 29.5 134 q8.5 75.5 8.5 201.5 l0 300 l368 0 q-17 54 -28 82 l92 16 q19 -49 34 -98 l315 0 l0 -81 l-693 0 ZM757 457 l0 -139 l-394 0 l0 139 l-123 0 l0 77 l123 0 l0 70 l88 -3 l0 -67 l217 0 l0 70 l89 -3 l0 -67 l148 0 l0 -77 l-148 0 ZM668 392 l0 65 l-217 0 l0 -65 l217 0 ZM906 -98 q-121 22 -204 43.5 q-83 21.5 -149 52.5 q-125 -54 -337 -101 l-37 84 q171 27 285 67 q-80 55 -158 143 l-43 0 l0 73 l560 0 l0 -74 q-75 -88 -175 -144 q102 -33 287 -56 l-29 -88 ZM412 191 q70 -69 141 -106 q91 44 150 106 l-291 0 Z" /><glyph glyph-name="uni5EB7" unicode="&#x5eb7;" d="M221 643 l0 -245 q0 -120 -11 -201.5 q-11 -81.5 -34.5 -145.5 q-23.5 -64 -66.5 -140 l-78 47 q43 77 64 134 q21 57 30.5 133 q9.5 76 9.5 199 l0 299 l350 0 q-11 37 -23 69 l93 16 q22 -58 31 -85 l317 0 l0 -80 l-682 0 ZM940 -1 l-36 -74 q-109 44 -184.5 100 q-75.5 56 -127.5 129 l0 -142 q0 -38 -10.5 -57.5 q-10.5 -19.5 -35.5 -28 q-25 -8.5 -74 -12.5 l-67 -6 l-27 78 l75 5 q27 2 38.5 6.5 q11.5 4.5 15 13.5 q3.5 9 3.5 29 l0 57 q-68 -39 -164 -90.5 q-96 -51.5 -132 -68.5 l-40 67 q48 22 195 100 q-20 22 -58 55 q-38 33 -64 54 l44 49 l-21 0 l0 68 l240 0 l0 57 l-275 0 l0 66 l275 0 l0 56 l-231 0 l0 68 l231 0 l0 50 l82 -3 l0 -47 l249 0 l0 -124 l81 0 l0 -66 l-81 0 l0 -125 l-12 0 l46 -62 q-45 -39 -132 -96 q78 -58 197 -106 ZM758 510 l-166 0 l0 -56 l166 0 l0 56 ZM758 388 l-166 0 l0 -57 l166 0 l0 57 ZM372 106 q89 48 138 77 l0 80 l-210 0 q43 -33 116 -98 l-44 -59 ZM607 263 q31 -58 76 -105 q79 51 144 105 l-220 0 Z" /><glyph glyph-name="uni5EFA" unicode="&#x5efa;" d="M371 457 l177 0 l0 66 l-210 0 l0 71 l210 0 l0 65 l-176 0 l0 71 l176 0 l0 76 l83 -4 l0 -72 l214 0 l0 -136 l73 0 l0 -71 l-73 0 l0 -136 l-214 0 l0 -66 l229 0 l0 -71 l-229 0 l0 -64 l264 0 l0 -71 l-264 0 l0 -84 l-83 0 l0 84 l-227 0 l0 71 l227 0 l0 64 l-181 0 l0 71 l181 0 l0 66 l-177 0 l0 70 ZM712 3 q109 0 217 3 l-14 -76 q-97 -3 -196 -3 q-99 0 -197 3 q-105 3 -182 27.5 q-77 24.5 -135 83.5 q-49 -72 -122 -145 l-63 67 q80 74 129 150 q-50 79 -84 201 l64 24 q30 -96 60 -152 q41 89 59 199 l-174 0 l0 76 l159 198 l-167 0 l0 77 l264 0 l0 -78 l-158 -196 l158 0 l0 -74 q-14 -87 -34.5 -154.5 q-20.5 -67.5 -52.5 -128.5 q49 -55 114 -76 q65 -21 167 -24 q124 -2 188 -2 ZM766 659 l-135 0 l0 -65 l135 0 l0 65 ZM631 457 l135 0 l0 66 l-135 0 l0 -66 Z" /><glyph glyph-name="uni5F00" unicode="&#x5f00;" d="M931 390 l0 -90 l-217 0 l0 -398 l-94 0 l0 398 l-253 0 q-6 -96 -28 -160.5 q-22 -64.5 -66 -120.5 q-44 -56 -125 -128 l-70 69 q74 62 113 109 q39 47 57.5 100 q18.5 53 23.5 131 l-227 0 l0 90 l230 0 l0 13 l0 249 l-177 0 l0 90 l782 0 l0 -90 l-166 0 l0 -262 l217 0 ZM370 390 l250 0 l0 262 l-250 0 l0 -240 l0 -22 Z" /><glyph glyph-name="uni5F02" unicode="&#x5f02;" d="M149 431 l0 330 l655 0 l0 -263 l-564 0 l0 -52 q0 -33 11 -44.5 q11 -11.5 45 -12.5 q113 -6 224 -6 q112 0 223 6 q30 2 43.5 6.5 q13.5 4.5 19.5 15.5 q6 11 11 36 q7 40 7 64 l88 -30 q-3 -39 -10 -66 q-9 -41 -21.5 -62.5 q-12.5 -21.5 -38.5 -31.5 q-26 -10 -76 -13 q-137 -5 -246 -5 q-110 0 -247 5 q-68 3 -96 30 q-28 27 -28 93 ZM711 576 l0 107 l-471 0 l0 -107 l471 0 ZM932 196 l0 -81 l-229 0 l0 -215 l-91 0 l0 215 l-236 0 q-15 -84 -75.5 -135.5 q-60.5 -51.5 -179.5 -93.5 l-42 77 q101 35 145.5 68 q44.5 33 57.5 84 l-233 0 l0 81 l239 0 l0 84 l93 -4 l0 -80 l231 0 l0 84 l91 -4 l0 -80 l229 0 Z" /><glyph glyph-name="uni5F0F" unicode="&#x5f0f;" d="M921 128 q-8 -41 -24 -98 q-21 -68 -47 -94.5 q-26 -26.5 -64 -26.5 q-40 0 -76 25.5 q-36 25.5 -69 86.5 q-40 75 -69 209.5 q-29 134.5 -39 319.5 l-472 0 l0 90 l469 0 l-2 60 q-2 70 -4 104 l96 -4 q0 -71 4 -160 l157 0 q-43 50 -105 107 l56 57 q24 -19 64.5 -59 q40.5 -40 61.5 -64 l-34 -41 l85 0 l0 -90 l-280 0 q11 -192 36 -312.5 q25 -120.5 67 -187.5 q21 -37 53 -37 q12 0 21 15 q9 15 20 53 q11 40 18 85 l77 -38 ZM544 72 l1 -41 q-27 -4 -64 -8 q-73 -10 -228.5 -30.5 q-155.5 -20.5 -192.5 -26.5 l-13 89 q62 6 206 25 l0 244 l-161 0 l0 88 l414 0 l0 -88 l-158 0 l0 -231 q163 22 195 28 l1 -49 Z" /><glyph glyph-name="uni5F15" unicode="&#x5f15;" d="M740 -90 l0 880 l97 -4 l0 -876 l-97 0 ZM121 759 l433 0 l0 -305 l-329 0 l-10 -127 l340 0 l-11 -214 l-3 -48 q-3 -55 -19 -82.5 q-16 -27.5 -51.5 -39 q-35.5 -11.5 -107.5 -16.5 l-122 -8 l-28 88 l125 6 q45 3 66 9 q21 6 30 21 q9 15 12 47 q6 81 8 150 l-341 0 l22 300 l322 0 l0 130 l-336 0 l0 89 Z" /><glyph glyph-name="uni5F39" unicode="&#x5f39;" d="M937 150 l0 -84 l-264 0 l0 -168 l-85 0 l0 168 l-237 0 l0 84 l237 0 l0 85 l-197 0 l0 431 l120 0 q-32 56 -65 110 l69 40 q19 -27 42 -64 q23 -37 41 -68 l-26 -18 l93 0 q48 76 84 150 l74 -33 q-28 -57 -66 -117 l116 0 l0 -431 l-200 0 l0 -85 l264 0 ZM76 661 l0 85 l259 0 l0 -302 l-159 0 l-10 -123 l162 0 q-1 -54 -4 -139.5 q-3 -85.5 -5 -138.5 q-2 -46 -16.5 -71 q-14.5 -25 -43 -36.5 q-28.5 -11.5 -80.5 -15.5 l-61 -6 l-28 84 l71 5 q41 2 56.5 16 q15.5 14 16.5 50 q2 33 5 83.5 q3 50.5 4 83.5 l-161 0 l20 293 l152 0 l0 132 l-178 0 ZM588 491 l0 93 l-116 0 l0 -93 l116 0 ZM673 491 l119 0 l0 93 l-119 0 l0 -93 ZM472 412 l0 -94 l116 0 l0 94 l-116 0 ZM673 412 l0 -94 l119 0 l0 94 l-119 0 Z" /><glyph glyph-name="uni5F3A" unicode="&#x5f3a;" d="M866 -115 q-15 36 -36 80 l-498 -34 l-7 84 q70 2 251 12 l0 126 l-200 0 l0 262 l200 0 l0 82 l-166 0 l0 257 l424 0 l0 -257 l-171 0 l0 -82 l206 0 l0 -262 l-206 0 l0 -122 l130 8 l-37 69 l70 34 q78 -140 113 -216 l-73 -41 ZM173 451 l-9 -134 l158 0 q-5 -59 -16 -289 q-3 -43 -15.5 -64.5 q-12.5 -21.5 -37.5 -30.5 q-25 -9 -74 -13 l-59 -5 l-28 83 l73 4 q26 2 37.5 7.5 q11.5 5.5 16 18.5 q4.5 13 5.5 40 q0 4 6 139 l2 30 l-158 0 l23 295 l143 0 l0 132 l-177 0 l0 86 l265 0 l0 -299 l-155 0 ZM751 680 l-258 0 l0 -110 l258 0 l0 110 ZM459 341 l0 -114 l117 0 l0 114 l-117 0 ZM788 227 l0 114 l-125 0 l0 -114 l125 0 Z" /><glyph glyph-name="uni5F53" unicode="&#x5f53;" d="M537 796 l0 -308 l319 0 l0 -583 l-95 0 l0 53 l-677 0 l0 85 l677 0 l0 140 l-626 0 l0 88 l626 0 l0 130 l-655 0 l0 87 l337 0 l0 312 l94 -4 ZM296 508 q-29 42 -80 101.5 q-51 59.5 -94 105.5 l68 60 q38 -39 92 -100.5 q54 -61.5 84 -98.5 l-70 -68 ZM854 720 q-31 -45 -82 -107 q-51 -62 -93 -106 l-69 60 q38 37 88.5 99 q50.5 62 84.5 109 l71 -55 Z" /></font>
</defs>
</svg>
