<?xml version="1.0" standalone="no"?><!DOCTYPE svg PUBLIC "-//W3C//DTD SVG 1.1//EN" "http://www.w3.org/Graphics/SVG/1.1/DTD/svg11.dtd" ><svg xmlns="http://www.w3.org/2000/svg"><metadata></metadata><defs><font id="Version 7.000;SUBF;MapleMono-NF-CN-Regular;2024;FL830;NF3.3.0;" horiz-adv-x="1200"><font-face font-family="Maple Mono NF CN" font-weight="400" font-stretch="normal" units-per-em="1000" panose-1="2 15 5 9 6 0 0 0 0 0" ascent="1020" descent="-300" x-height="0" bbox="34 -240 1080 867" underline-thickness="50" underline-position="-155" unicode-range="U+0022-9f99" /><missing-glyph horiz-adv-x="600" d="M100 80 l0 570 q0 41 19.5 60.5 q19.5 19.5 60.5 19.5 l240 0 q41 0 60.5 -19.5 q19.5 -19.5 19.5 -60.5 l0 -570 q0 -41 -19.5 -60.5 q-19.5 -19.5 -60.5 -19.5 l-240 0 q-41 0 -60.5 19.5 q-19.5 19.5 -19.5 60.5 ZM190 175 l70 191 l-70 191 l0 -382 ZM410 557 l-70 -191 l70 -191 l0 382 ZM300 257 l-61 -167 l122 0 l-61 167 ZM300 475 l60 165 l-120 0 l60 -165 Z" /><glyph glyph-name="" unicode="&quot;" d="M355 485 l0 230 q0 23 11 34 q11 11 34 11 q23 0 34 -11 q11 -11 11 -34 l0 -230 q0 -23 -11 -34 q-11 -11 -34 -11 q-23 0 -34 11 q-11 11 -11 34 ZM155 485 l0 230 q0 23 11 34 q11 11 34 11 q23 0 34 -11 q11 -11 11 -34 l0 -230 q0 -23 -11 -34 q-11 -11 -34 -11 q-23 0 -34 11 q-11 11 -11 34 Z" /><glyph glyph-name="" unicode="$" d="M545 195 q0 -43 -11.5 -77 q-11.5 -34 -32 -58 q-20.5 -24 -47.5 -39 q-27 -15 -58 -21 l0 90 q11 8 21.5 17 q10.5 9 18.5 21 q8 12 13.5 28 q5.5 16 5.5 36 q0 28 -9.5 49.5 q-9.5 21.5 -25 37.5 q-15.5 16 -35 26.5 q-19.5 10.5 -40.5 16.5 l-90 25 q-38 11 -71.5 26 q-33.5 15 -59 38 q-25.5 23 -40 56.5 q-14.5 33.5 -14.5 80.5 q0 40 11.5 72 q11.5 32 30 55 q18.5 23 43 37 q24.5 14 50.5 18 l0 -100 q-8 -4 -16 -10.5 q-8 -6.5 -14.5 -17 q-6.5 -10.5 -10.5 -24.5 q-4 -14 -4 -32 q0 -27 8.5 -45 q8.5 -18 22 -30 q13.5 -12 30.5 -19 q17 -7 34 -12 l90 -25 q44 -12 81 -29.5 q37 -17.5 63.5 -43.5 q26.5 -26 41 -62 q14.5 -36 14.5 -85 ZM345 267 l0 -342 q0 -23 -11 -34 q-11 -11 -34 -11 q-23 0 -34 11 q-11 11 -11 34 l0 367 l90 -25 ZM345 470 l-90 25 l0 300 q0 23 11 34 q11 11 34 11 q23 0 34 -11 q11 -11 11 -34 l0 -325 ZM205 90 l0 -90 q-27 5 -53 20 q-26 15 -47 36 q-21 21 -34 47 q-13 26 -13 52 q0 26 12 35.5 q12 9.5 29 9.5 q14 0 24.5 -5 q10.5 -5 14.5 -14 q5 -11 12 -24.5 q7 -13.5 16 -26 q9 -12.5 19 -23.5 q10 -11 20 -17 ZM396 730 q24 -4 48 -17.5 q24 -13.5 43.5 -32.5 q19.5 -19 31.5 -42.5 q12 -23.5 12 -47.5 q0 -26 -12.5 -34.5 q-12.5 -8.5 -29.5 -8.5 q-16 0 -27 7 q-11 7 -19 24 q-3 6 -7.5 13 q-4.5 7 -10.5 14 q-6 7 -13.5 14 q-7.5 7 -15.5 11 l0 100 Z" /><glyph glyph-name="" unicode="," d="M150 -223 q-12 -3 -22 0 q-10 3 -15 15 q-5 11 -1 22.5 q4 11.5 15 14.5 q76 19 123 53.5 q47 34.5 58 68.5 q5 17 -1.5 26 q-6.5 9 -28.5 14 q-31 6 -47 25 q-16 19 -16 51 q0 39 23 61 q23 22 59 22 q26 0 44 -11.5 q18 -11.5 28.5 -29.5 q10.5 -18 15 -40.5 q4.5 -22.5 4.5 -45.5 q0 -40 -10.5 -77 q-10.5 -37 -37 -69.5 q-26.5 -32.5 -73 -58 q-46.5 -25.5 -118.5 -41.5 Z" /><glyph glyph-name="" unicode="-" d="M120 285 q-23 0 -34 11 q-11 11 -11 34 q0 23 11 34 q11 11 34 11 l360 0 q23 0 34 -11 q11 -11 11 -34 q0 -23 -11 -34 q-11 -11 -34 -11 l-360 0 Z" /><glyph glyph-name="" unicode="." d="M215 75 q0 18 6.5 33.5 q6.5 15.5 18 27 q11.5 11.5 27 18 q15.5 6.5 33.5 6.5 q18 0 33.5 -6.5 q15.5 -6.5 27 -18 q11.5 -11.5 18 -27 q6.5 -15.5 6.5 -33.5 q0 -17 -6.5 -32.5 q-6.5 -15.5 -18 -27 q-11.5 -11.5 -27 -18.5 q-15.5 -7 -33.5 -7 q-18 0 -33.5 7 q-15.5 7 -27 18.5 q-11.5 11.5 -18 27 q-6.5 15.5 -6.5 32.5 Z" /><glyph glyph-name="" unicode="0" d="M300 -10 q-75 0 -121.5 36.5 q-46.5 36.5 -72 92 q-25.5 55.5 -34.5 121.5 q-9 66 -9 125 q0 59 9 125 q9 66 35 121.5 q26 55.5 72.5 92 q46.5 36.5 122.5 36.5 q75 0 121.5 -36 q46.5 -36 71.5 -91 q25 -55 33.5 -120 q8.5 -65 8.5 -123 q0 -61 -9 -128 q-9 -67 -35 -123 q-26 -56 -72 -92.5 q-46 -36.5 -121 -36.5 ZM300 80 q48 0 77 31.5 q29 31.5 44.5 76 q15.5 44.5 20.5 94 q5 49.5 5 85.5 q0 26 -3 59 l-267 -235 q1 -2 2 -3 q15 -45 44 -76.5 q29 -31.5 77 -31.5 ZM422 541 l0 3 q-16 44 -45 75 q-29 31 -77 31 q-48 0 -77 -31.5 q-29 -31.5 -44.5 -76 q-15.5 -44.5 -20.5 -93 q-5 -48.5 -5 -83.5 q0 -27 3 -60 l266 235 Z" /><glyph glyph-name="" unicode="1" d="M125 0 q-23 0 -34 11 q-11 11 -11 34 q0 23 11 34 q11 11 34 11 l163 0 l0 522 q0 13 -3 19 q-3 6 -9 6 q-4 0 -8.5 -2.5 q-4.5 -2.5 -10.5 -7.5 l-98 -78 q-14 -11 -25 -16.5 q-11 -5.5 -19 -5.5 q-13 0 -19 11.5 q-6 11.5 -6 34.5 q0 22 6 34.5 q6 12.5 17 21.5 l110 86 q17 14 35 19.5 q18 5.5 40 5.5 q41 0 60.5 -19.5 q19.5 -19.5 19.5 -60.5 l0 -570 l127 0 q23 0 34 -11 q11 -11 11 -34 q0 -23 -11 -34 q-11 -11 -34 -11 l-380 0 Z" /><glyph glyph-name="" unicode="2" d="M136 0 q-29 0 -44.5 14.5 q-15.5 14.5 -15.5 43.5 q0 16 5 29.5 q5 13.5 16 24.5 l222 230 q16 17 35 38.5 q19 21.5 35.5 45.5 q16.5 24 27.5 49.5 q11 25.5 11 50.5 q0 35 -11 58.5 q-11 23.5 -30 38 q-19 14.5 -45 21 q-26 6.5 -56 6.5 q-40 0 -67.5 -9.5 q-27.5 -9.5 -52.5 -24.5 q-18 -11 -35.5 -3.5 q-17.5 7.5 -27.5 24.5 q-9 16 -3.5 33 q5.5 17 20.5 28 q32 23 72 32.5 q40 9.5 97 9.5 q47 0 88.5 -9.5 q41.5 -9.5 72.5 -32.5 q31 -23 49.5 -62 q18.5 -39 18.5 -99 q0 -31 -10 -62.5 q-10 -31.5 -26.5 -62.5 q-16.5 -31 -39 -60 q-22.5 -29 -47.5 -56 l-177 -188 q-5 -5 -2.5 -11.5 q2.5 -6.5 19.5 -6.5 l257 0 q23 0 34 -11 q11 -11 11 -34 q0 -23 -11 -34 q-11 -11 -34 -11 l-356 0 Z" /><glyph glyph-name="" unicode="3" d="M101 21 q-20 8 -27.5 25.5 q-7.5 17.5 1.5 37.5 q8 18 25.5 25.5 q17.5 7.5 43.5 -3.5 q27 -11 61.5 -18.5 q34.5 -7.5 66.5 -7.5 q72 0 115 36.5 q43 36.5 43 109.5 q0 39 -23.5 62 q-23.5 23 -57.5 34.5 q-34 11.5 -73 14 q-39 2.5 -71 0.5 q-9 -1 -17 1.5 q-8 2.5 -14.5 8 q-6.5 5.5 -10 14.5 q-3.5 9 -3.5 22 q0 23 13.5 33.5 q13.5 10.5 43.5 10.5 q26 0 57 5.5 q31 5.5 58.5 19.5 q27.5 14 46 37.5 q18.5 23.5 18.5 59.5 q0 30 -13.5 49.5 q-13.5 19.5 -34.5 31 q-21 11.5 -46 16 q-25 4.5 -49 4.5 q-28 0 -52 -5.5 q-24 -5.5 -47 -18.5 q-15 -8 -32 -2 q-17 6 -26 24 q-8 15 -3.5 32.5 q4.5 17.5 23.5 30.5 q20 14 58 21.5 q38 7.5 80 7.5 q44 0 85.5 -9 q41.5 -9 74 -30.5 q32.5 -21.5 52.5 -56.5 q20 -35 20 -86 q0 -29 -6.5 -56.5 q-6.5 -27.5 -20 -49.5 q-13.5 -22 -34.5 -37.5 q-21 -15.5 -50 -20.5 q38 -3 65.5 -18.5 q27.5 -15.5 45 -41 q17.5 -25.5 25.5 -59 q8 -33.5 8 -71.5 q0 -48 -16.5 -87 q-16.5 -39 -48 -67.5 q-31.5 -28.5 -77.5 -44 q-46 -15.5 -106 -15.5 q-43 0 -90 8 q-47 8 -81 23 Z" /><glyph glyph-name="" unicode="4" d="M360 255 l0 283 q0 11 -1.5 15 q-1.5 4 -4.5 4 q-2 0 -6 -2.5 q-4 -2.5 -9 -10.5 l-153 -255 q-4 -6 -5.5 -11 q-1.5 -5 -1.5 -9 q0 -8 6.5 -11 q6.5 -3 19.5 -3 l155 0 ZM360 35 l0 130 l-232 0 q-34 0 -51 16.5 q-17 16.5 -17 48.5 q0 14 3 24 q3 10 9 20 l272 440 q8 13 20 19.5 q12 6.5 30 6.5 q27 0 41.5 -15 q14.5 -15 14.5 -45 l0 -425 l60 0 q23 0 34 -11 q11 -11 11 -34 q0 -23 -11 -34 q-11 -11 -34 -11 l-60 0 l0 -130 q0 -23 -11 -34 q-11 -11 -34 -11 q-23 0 -34 11 q-11 11 -11 34 Z" /><glyph glyph-name="" unicode="5" d="M520 204 q0 -48 -16.5 -87 q-16.5 -39 -48 -67.5 q-31.5 -28.5 -77.5 -44 q-46 -15.5 -106 -15.5 q-43 0 -90 8 q-47 8 -81 23 q-20 8 -27.5 25.5 q-7.5 17.5 1.5 37.5 q8 18 25.5 25.5 q17.5 7.5 43.5 -3.5 q27 -11 61.5 -18.5 q34.5 -7.5 66.5 -7.5 q72 0 115 36.5 q43 36.5 43 109.5 q0 37 -17 61 q-17 24 -46.5 38.5 q-29.5 14.5 -69.5 20 q-40 5.5 -87 5.5 l-20 0 q-41 0 -60.5 19.5 q-19.5 19.5 -19.5 61.5 l0 218 q0 41 19.5 60.5 q19.5 19.5 60.5 19.5 l271 0 q23 0 34 -11 q11 -11 11 -34 q0 -23 -11 -34 q-11 -11 -34 -11 l-221 0 q-20 0 -30 -10 q-10 -10 -10 -30 l0 -119 q0 -20 10 -30 q10 -10 30 -10 q50 0 99.5 -6.5 q49.5 -6.5 90 -31 q40.5 -24.5 65.5 -71.5 q25 -47 25 -128 Z" /><glyph glyph-name="" unicode="6" d="M300 80 q32 0 58 8.5 q26 8.5 45 27 q19 18.5 29.5 47 q10.5 28.5 10.5 67.5 q0 30 -10 56.5 q-10 26.5 -28.5 46.5 q-18.5 20 -45 31.5 q-26.5 11.5 -59.5 11.5 q-34 0 -61 -12.5 q-27 -12.5 -45 -33.5 q-18 -21 -27.5 -49 q-9.5 -28 -9.5 -60 q0 -41 11.5 -68.5 q11.5 -27.5 31 -43.5 q19.5 -16 45.5 -22.5 q26 -6.5 55 -6.5 ZM372 733 q21 8 36.5 5.5 q15.5 -2.5 26.5 -22.5 q10 -18 5.5 -35 q-4.5 -17 -26.5 -25 q-48 -16 -91.5 -44.5 q-43.5 -28.5 -78 -66 q-34.5 -37.5 -57 -83.5 q-22.5 -46 -30.5 -97 q27 47 68.5 74 q41.5 27 103.5 27 q43 0 80.5 -17.5 q37.5 -17.5 65 -49 q27.5 -31.5 43 -74 q15.5 -42.5 15.5 -92.5 q0 -60 -18 -105.5 q-18 -45.5 -49.5 -76 q-31.5 -30.5 -74 -46 q-42.5 -15.5 -90.5 -15.5 q-52 0 -95.5 13.5 q-43.5 13.5 -74 45.5 q-30.5 32 -47.5 86.5 q-17 54.5 -17 136.5 q0 91 24 166 q24 75 65 133 q41 58 96.5 99 q55.5 41 119.5 63 Z" /><glyph glyph-name="" unicode="7" d="M194 51 l221 552 q2 5 3 9.5 q1 4.5 1 8.5 q0 10 -7 14.5 q-7 4.5 -22 4.5 l-283 0 q-23 0 -34 11 q-11 11 -11 34 q0 23 11 34 q11 11 34 11 l347 0 q36 0 54 -17.5 q18 -17.5 18 -50.5 q0 -12 -2 -21.5 q-2 -9.5 -5 -17.5 l-239 -603 q-6 -15 -18 -22.5 q-12 -7.5 -32 -7.5 q-21 0 -32 7.5 q-11 7.5 -11 23.5 q0 6 2 14 q2 8 5 16 Z" /><glyph glyph-name="" unicode="8" d="M300 -10 q-52 0 -95 15.5 q-43 15.5 -74 43.5 q-31 28 -48 66.5 q-17 38.5 -17 84.5 q0 36 10.5 67 q10.5 31 29 55 q18.5 24 45.5 40 q27 16 60 22 l0 3 q-57 13 -91 57.5 q-34 44.5 -34 106.5 q0 41 15.5 76 q15.5 35 44 60 q28.5 25 67.5 39 q39 14 87 14 q48 0 87 -14 q39 -14 67.5 -39 q28.5 -25 44 -60 q15.5 -35 15.5 -76 q0 -62 -34 -106.5 q-34 -44.5 -91 -57.5 l0 -3 q33 -6 60 -22 q27 -16 45.5 -40 q18.5 -24 29 -55 q10.5 -31 10.5 -67 q0 -46 -17 -84.5 q-17 -38.5 -48 -66.5 q-31 -28 -74 -43.5 q-43 -15.5 -95 -15.5 ZM300 80 q32 0 58.5 9 q26.5 9 45.5 26 q19 17 29.5 41 q10.5 24 10.5 53 q0 29 -10.5 53.5 q-10.5 24.5 -29.5 41.5 q-19 17 -45.5 26.5 q-26.5 9.5 -58.5 9.5 q-32 0 -58.5 -9.5 q-26.5 -9.5 -45.5 -26.5 q-19 -17 -29.5 -41.5 q-10.5 -24.5 -10.5 -53.5 q0 -29 10.5 -53 q10.5 -24 29.5 -41 q19 -17 45.5 -26 q26.5 -9 58.5 -9 ZM300 430 q56 0 90 29 q34 29 34 80 q0 52 -34 81.5 q-34 29.5 -90 29.5 q-56 0 -90 -29.5 q-34 -29.5 -34 -81.5 q0 -51 34 -80 q34 -29 90 -29 Z" /><glyph glyph-name="" unicode="9" d="M300 649 q-31 0 -57.5 -8.5 q-26.5 -8.5 -45.5 -27 q-19 -18.5 -29.5 -47 q-10.5 -28.5 -10.5 -67.5 q0 -30 10 -56.5 q10 -26.5 28.5 -46.5 q18.5 -20 45 -31.5 q26.5 -11.5 59.5 -11.5 q35 0 61.5 12.5 q26.5 12.5 44.5 33.5 q18 21 27.5 49.5 q9.5 28.5 9.5 59.5 q0 41 -11.5 68.5 q-11.5 27.5 -31 43.5 q-19.5 16 -45.5 22.5 q-26 6.5 -55 6.5 ZM228 -4 q-21 -8 -36.5 -5.5 q-15.5 2.5 -26.5 22.5 q-10 18 -5.5 35 q4.5 17 26.5 25 q48 16 91.5 44.5 q43.5 28.5 78 66 q34.5 37.5 57.5 83.5 q23 46 30 97 q-27 -47 -68.5 -74 q-41.5 -27 -103.5 -27 q-43 0 -80.5 17.5 q-37.5 17.5 -65 49 q-27.5 31.5 -43 74 q-15.5 42.5 -15.5 92.5 q0 60 18.5 105.5 q18.5 45.5 50 76 q31.5 30.5 73.5 46 q42 15.5 90 15.5 q53 0 96 -13.5 q43 -13.5 73.5 -45.5 q30.5 -32 47.5 -86.5 q17 -54.5 17 -136.5 q0 -91 -23.5 -166 q-23.5 -75 -65 -133 q-41.5 -58 -97 -99 q-55.5 -41 -119.5 -63 Z" /><glyph glyph-name="" unicode=":" d="M215 75 q0 18 6.5 33.5 q6.5 15.5 18 27 q11.5 11.5 27 18 q15.5 6.5 33.5 6.5 q18 0 33.5 -6.5 q15.5 -6.5 27 -18 q11.5 -11.5 18 -27 q6.5 -15.5 6.5 -33.5 q0 -17 -6.5 -32.5 q-6.5 -15.5 -18 -27 q-11.5 -11.5 -27 -18.5 q-15.5 -7 -33.5 -7 q-18 0 -33.5 7 q-15.5 7 -27 18.5 q-11.5 11.5 -18 27 q-6.5 15.5 -6.5 32.5 ZM215 445 q0 18 6.5 33.5 q6.5 15.5 18 27 q11.5 11.5 27 18 q15.5 6.5 33.5 6.5 q18 0 33.5 -6.5 q15.5 -6.5 27 -18 q11.5 -11.5 18 -27 q6.5 -15.5 6.5 -33.5 q0 -17 -6.5 -32.5 q-6.5 -15.5 -18 -27 q-11.5 -11.5 -27 -18.5 q-15.5 -7 -33.5 -7 q-18 0 -33.5 7 q-15.5 7 -27 18.5 q-11.5 11.5 -18 27 q-6.5 15.5 -6.5 32.5 Z" /><glyph glyph-name="" unicode=";" d="M150 -223 q-12 -3 -22 0 q-10 3 -15 15 q-5 11 -1 22.5 q4 11.5 15 14.5 q76 19 123 53.5 q47 34.5 58 68.5 q5 17 -1.5 26 q-6.5 9 -28.5 14 q-31 6 -47 25 q-16 19 -16 51 q0 39 23 61 q23 22 59 22 q26 0 44 -11.5 q18 -11.5 28.5 -29.5 q10.5 -18 15 -40.5 q4.5 -22.5 4.5 -45.5 q0 -40 -10.5 -77 q-10.5 -37 -37 -69.5 q-26.5 -32.5 -73 -58 q-46.5 -25.5 -118.5 -41.5 ZM215 445 q0 18 6.5 33.5 q6.5 15.5 18 27 q11.5 11.5 27 18 q15.5 6.5 33.5 6.5 q18 0 33.5 -6.5 q15.5 -6.5 27 -18 q11.5 -11.5 18 -27 q6.5 -15.5 6.5 -33.5 q0 -17 -6.5 -32.5 q-6.5 -15.5 -18 -27 q-11.5 -11.5 -27 -18.5 q-15.5 -7 -33.5 -7 q-18 0 -33.5 7 q-15.5 7 -27 18.5 q-11.5 11.5 -18 27 q-6.5 15.5 -6.5 32.5 Z" /><glyph glyph-name="" unicode="A" d="M204 270 l192 0 l-91 341 q-2 6 -5 6 q-3 0 -5 -6 l-91 -341 ZM463 19 l-47 175 l-232 0 l-47 -175 q-4 -14 -13.5 -21.5 q-9.5 -7.5 -28.5 -7.5 q-26 0 -37 14.5 q-11 14.5 -3 43.5 l170 633 q8 29 26 44 q18 15 49 15 q31 0 49 -15 q18 -15 26 -44 l170 -633 q8 -29 -3 -43.5 q-11 -14.5 -37 -14.5 q-19 0 -28.5 7.5 q-9.5 7.5 -13.5 21.5 Z" /><glyph glyph-name="" unicode="B" d="M174 730 l127 0 q50 0 89 -13 q39 -13 66.5 -36.5 q27.5 -23.5 42 -57.5 q14.5 -34 14.5 -76 q0 -34 -9.5 -62 q-9.5 -28 -26 -49.5 q-16.5 -21.5 -40 -35 q-23.5 -13.5 -52.5 -19.5 q32 -4 59 -18 q27 -14 46 -37 q19 -23 29.5 -54.5 q10.5 -31.5 10.5 -70.5 q0 -46 -15 -83 q-15 -37 -42.5 -63.5 q-27.5 -26.5 -67.5 -40.5 q-40 -14 -90 -14 l-141 0 q-42 0 -61.5 19.5 q-19.5 19.5 -19.5 60.5 l0 570 q0 41 19.5 60.5 q19.5 19.5 61.5 19.5 ZM182 335 l0 -205 q0 -20 10 -30 q10 -10 30 -10 l83 0 q63 0 99.5 29.5 q36.5 29.5 36.5 88.5 q0 60 -36.5 93.5 q-36.5 33.5 -99.5 33.5 l-123 0 ZM182 425 l118 0 q58 0 91 27.5 q33 27.5 33 81.5 q0 54 -32.5 80 q-32.5 26 -90.5 26 l-79 0 q-20 0 -30 -10 q-10 -10 -10 -30 l0 -175 Z" /><glyph glyph-name="" unicode="C" d="M60 367 q0 76 16.5 143.5 q16.5 67.5 52 118.5 q35.5 51 91.5 81 q56 30 136 30 q42 0 73 -8 q31 -8 53 -21 q22 -13 36 -30 q14 -17 21 -35 q9 -24 4.5 -39.5 q-4.5 -15.5 -18.5 -23.5 q-14 -8 -30.5 -5.5 q-16.5 2.5 -30.5 22.5 q-13 19 -41 34.5 q-28 15.5 -72 15.5 q-51 0 -88.5 -23.5 q-37.5 -23.5 -62.5 -62.5 q-25 -39 -37.5 -90 q-12.5 -51 -12.5 -107 q0 -48 10.5 -99 q10.5 -51 34.5 -93 q24 -42 64 -68.5 q40 -26.5 99 -26.5 q14 0 29.5 1.5 q15.5 1.5 30 5 q14.5 3.5 27.5 9 q13 5.5 22 12.5 q17 14 35 12.5 q18 -1.5 31 -14.5 q13 -13 13 -31 q0 -18 -20 -38 q-15 -15 -35 -24 q-20 -9 -43 -14.5 q-23 -5.5 -47 -7 q-24 -1.5 -47 -1.5 q-80 0 -136 31 q-56 31 -91 83 q-35 52 -51 120 q-16 68 -16 143 Z" /><glyph glyph-name="" unicode="D" d="M172 0 q-41 0 -60.5 19.5 q-19.5 19.5 -19.5 60.5 l0 570 q0 41 19.5 60.5 q19.5 19.5 60.5 19.5 l89 0 q80 0 131.5 -30 q51.5 -30 81.5 -80.5 q30 -50.5 42 -117.5 q12 -67 12 -141 q0 -67 -10.5 -132 q-10.5 -65 -39.5 -116 q-29 -51 -81.5 -82 q-52.5 -31 -135.5 -31 l-89 0 ZM182 130 q0 -20 10 -30 q10 -10 30 -10 l39 0 q58 0 94 26 q36 26 56.5 66 q20.5 40 27.5 88.5 q7 48.5 7 94.5 q0 47 -7 95.5 q-7 48.5 -27.5 88.5 q-20.5 40 -56.5 65.5 q-36 25.5 -94 25.5 l-39 0 q-20 0 -30 -10 q-10 -10 -10 -30 l0 -470 Z" /><glyph glyph-name="" unicode="E" d="M190 427 l255 0 q20 0 32.5 -12.5 q12.5 -12.5 12.5 -32.5 q0 -20 -12.5 -32.5 q-12.5 -12.5 -32.5 -12.5 l-255 0 l0 -207 q0 -20 10 -30 q10 -10 30 -10 l249 0 q20 0 30.5 -12.5 q10.5 -12.5 10.5 -32.5 q0 -20 -10.5 -32.5 q-10.5 -12.5 -30.5 -12.5 l-299 0 q-41 0 -60.5 19.5 q-19.5 19.5 -19.5 60.5 l0 570 q0 41 19.5 60.5 q19.5 19.5 60.5 19.5 l299 0 q20 0 30.5 -12.5 q10.5 -12.5 10.5 -32.5 q0 -20 -10.5 -32.5 q-10.5 -12.5 -30.5 -12.5 l-249 0 q-20 0 -30 -10 q-10 -10 -10 -30 l0 -173 Z" /><glyph glyph-name="" unicode="F" d="M185 427 l274 0 q20 0 30 -10 q10 -10 10 -30 q0 -20 -10 -30 q-10 -10 -30 -10 l-274 0 l0 -302 q0 -23 -11 -34 q-11 -11 -34 -11 q-23 0 -34 11 q-11 11 -11 34 l0 605 q0 41 19.5 60.5 q19.5 19.5 60.5 19.5 l305 0 q23 0 34 -11 q11 -11 11 -34 q0 -23 -11 -34 q-11 -11 -34 -11 l-255 0 q-20 0 -30 -10 q-10 -10 -10 -30 l0 -173 Z" /><glyph glyph-name="" unicode="G" d="M428 270 q0 20 -10 25 q-10 5 -30 5 l-63 0 q-23 0 -34 11 q-11 11 -11 34 q0 23 11 34 q11 11 34 11 l113 0 q41 0 60.5 -19.5 q19.5 -19.5 19.5 -60.5 l0 -110 q0 -55 -18 -94.5 q-18 -39.5 -48 -65 q-30 -25.5 -69.5 -38 q-39.5 -12.5 -82.5 -12.5 q-78 0 -127 35.5 q-49 35.5 -76 90 q-27 54.5 -36.5 121 q-9.5 66.5 -8.5 128.5 q2 64 11 130.5 q9 66.5 35 121 q26 54.5 74.5 89.5 q48.5 35 128.5 35 q41 0 73.5 -9.5 q32.5 -9.5 57.5 -29 q25 -19.5 43 -47.5 q18 -28 30 -66 q8 -28 -3.5 -43 q-11.5 -15 -39.5 -15 q-17 0 -27 7.5 q-10 7.5 -16 29.5 q-11 42 -42 62.5 q-31 20.5 -74 20.5 q-55 0 -87 -30 q-32 -30 -48 -73.5 q-16 -43.5 -20.5 -93 q-4.5 -49.5 -5.5 -89.5 q-1 -41 3 -91 q4 -50 20.5 -93 q16.5 -43 50.5 -72 q34 -29 92 -29 q50 0 85 27.5 q35 27.5 35 92.5 l0 70 Z" /><glyph glyph-name="" unicode="H" d="M417 332 l-234 0 l0 -297 q0 -23 -11 -34 q-11 -11 -34 -11 q-23 0 -34 11 q-11 11 -11 34 l0 660 q0 23 11 34 q11 11 34 11 q23 0 34 -11 q11 -11 11 -34 l0 -273 l234 0 l0 273 q0 23 11 34 q11 11 34 11 q23 0 34 -11 q11 -11 11 -34 l0 -660 q0 -23 -11 -34 q-11 -11 -34 -11 q-23 0 -34 11 q-11 11 -11 34 l0 297 Z" /><glyph glyph-name="" unicode="I" d="M346 90 l104 0 q20 0 32.5 -12.5 q12.5 -12.5 12.5 -32.5 q0 -20 -12.5 -32.5 q-12.5 -12.5 -32.5 -12.5 l-300 0 q-20 0 -32.5 12.5 q-12.5 12.5 -12.5 32.5 q0 20 12.5 32.5 q12.5 12.5 32.5 12.5 l104 0 l0 550 l-104 0 q-20 0 -32.5 12.5 q-12.5 12.5 -12.5 32.5 q0 20 12.5 32.5 q12.5 12.5 32.5 12.5 l300 0 q20 0 32.5 -12.5 q12.5 -12.5 12.5 -32.5 q0 -20 -12.5 -32.5 q-12.5 -12.5 -32.5 -12.5 l-104 0 l0 -550 Z" /><glyph glyph-name="" unicode="J" d="M49 159 q-5 25 7 38 q12 13 38 13 q20 0 30.5 -9.5 q10.5 -9.5 15.5 -34.5 q9 -45 42.5 -70.5 q33.5 -25.5 87.5 -25.5 q64 0 99.5 36.5 q35.5 36.5 35.5 103.5 l0 390 q0 20 -10 30 q-10 10 -30 10 l-150 0 q-23 0 -34 11 q-11 11 -11 34 q0 23 11 34 q11 11 34 11 l200 0 q41 0 60.5 -19.5 q19.5 -19.5 19.5 -60.5 l0 -440 q0 -51 -15.5 -91.5 q-15.5 -40.5 -45 -69 q-29.5 -28.5 -71 -44 q-41.5 -15.5 -93.5 -15.5 q-91 0 -149 44.5 q-58 44.5 -72 124.5 Z" /><glyph glyph-name="" unicode="K" d="M182 35 q0 -23 -11 -34 q-11 -11 -34 -11 q-23 0 -34 11 q-11 11 -11 34 l0 660 q0 23 11 34 q11 11 34 11 q23 0 34 -11 q11 -11 11 -34 l0 -281 l222 298 q11 14 24 21 q13 7 27 7 q9 0 19.5 -3.5 q10.5 -3.5 17.5 -10.5 q7 -7 7.5 -17.5 q0.5 -10.5 -10.5 -24.5 l-198 -268 l223 -365 q9 -15 10 -26.5 q1 -11.5 -4 -19 q-5 -7.5 -15.5 -11.5 q-10.5 -4 -24.5 -4 q-19 0 -32 7.5 q-13 7.5 -22 22.5 l-196 313 l-48 -65 l0 -233 Z" /><glyph glyph-name="" unicode="L" d="M210 0 q-41 0 -60.5 19.5 q-19.5 19.5 -19.5 60.5 l0 615 q0 23 11 34 q11 11 34 11 q23 0 34 -11 q11 -11 11 -34 l0 -565 q0 -20 10 -30 q10 -10 30 -10 l245 0 q20 0 32.5 -12.5 q12.5 -12.5 12.5 -32.5 q0 -20 -12.5 -32.5 q-12.5 -12.5 -32.5 -12.5 l-295 0 Z" /><glyph glyph-name="" unicode="M" d="M540 35 q0 -23 -11 -34 q-11 -11 -34 -11 q-23 0 -34 11 q-11 11 -11 34 l0 555 q0 9 -5 9 q-5 0 -8 -9 l-86 -293 q-5 -19 -18 -28 q-13 -9 -33 -9 q-20 0 -33 9 q-13 9 -18 28 l-86 293 q-3 10 -8 9.5 q-5 -0.5 -5 -9.5 l0 -555 q0 -23 -11 -34 q-11 -11 -34 -11 q-23 0 -34 11 q-11 11 -11 34 l0 620 q0 43 20.5 64 q20.5 21 59.5 21 q31 0 50 -13.5 q19 -13.5 27 -41.5 l72 -275 q4 -14 11 -14 q7 0 11 14 l72 275 q8 28 27 41.5 q19 13.5 50 13.5 q39 0 59.5 -21 q20.5 -21 20.5 -64 l0 -620 Z" /><glyph glyph-name="" unicode="N" d="M80 662 q0 39 19 58.5 q19 19.5 55 19.5 q29 0 46 -12.5 q17 -12.5 26 -37.5 l195 -540 q1 -3 2 -4.5 q1 -1.5 3 -1.5 q2 0 3 1.5 q1 1.5 1 4.5 l0 545 q0 23 11 34 q11 11 34 11 q23 0 34 -11 q11 -11 11 -34 l0 -627 q0 -39 -19 -58.5 q-19 -19.5 -55 -19.5 q-29 0 -46 12.5 q-17 12.5 -26 37.5 l-195 540 q-1 3 -2 4.5 q-1 1.5 -3 1.5 q-2 0 -3 -1.5 q-1 -1.5 -1 -4.5 l0 -545 q0 -23 -11 -34 q-11 -11 -34 -11 q-23 0 -34 11 q-11 11 -11 34 l0 627 Z" /><glyph glyph-name="" unicode="O" d="M300 80 q48 0 77 31.5 q29 31.5 44.5 76 q15.5 44.5 20.5 94 q5 49.5 5 85.5 q0 35 -5 83.5 q-5 48.5 -20.5 93 q-15.5 44.5 -44.5 75.5 q-29 31 -77 31 q-48 0 -77 -31.5 q-29 -31.5 -44.5 -76 q-15.5 -44.5 -20.5 -93 q-5 -48.5 -5 -83.5 q0 -36 5 -85 q5 -49 20.5 -93.5 q15.5 -44.5 44.5 -76 q29 -31.5 77 -31.5 ZM300 -10 q-75 0 -121.5 36.5 q-46.5 36.5 -72 92.5 q-25.5 56 -34.5 122 q-9 66 -9 126 q0 58 8.5 123.5 q8.5 65.5 34 121 q25.5 55.5 72 92 q46.5 36.5 122.5 36.5 q75 0 121.5 -36 q46.5 -36 72 -91.5 q25.5 -55.5 34.5 -120.5 q9 -65 9 -124 q0 -60 -9 -126.5 q-9 -66.5 -35 -122.5 q-26 -56 -72 -92.5 q-46 -36.5 -121 -36.5 Z" /><glyph glyph-name="" unicode="P" d="M182 320 l0 -285 q0 -23 -11 -34 q-11 -11 -34 -11 q-23 0 -34 11 q-11 11 -11 34 l0 615 q0 41 19.5 60.5 q19.5 19.5 60.5 19.5 l155 0 q47 0 88 -13.5 q41 -13.5 71 -40 q30 -26.5 47 -64.5 q17 -38 17 -87 q0 -49 -17.5 -87 q-17.5 -38 -47.5 -64.5 q-30 -26.5 -70.5 -40 q-40.5 -13.5 -87.5 -13.5 l-145 0 ZM182 410 l145 0 q27 0 50.5 7.5 q23.5 7.5 41 21.5 q17.5 14 28 36 q10.5 22 10.5 50 q0 58 -38 86.5 q-38 28.5 -92 28.5 l-105 0 q-20 0 -30 -10 q-10 -10 -10 -30 l0 -190 Z" /><glyph glyph-name="" unicode="Q" d="M300 80 q48 0 77 31.5 q29 31.5 44.5 76 q15.5 44.5 20.5 94 q5 49.5 5 85.5 q0 35 -5 83.5 q-5 48.5 -20.5 93 q-15.5 44.5 -44.5 75.5 q-29 31 -77 31 q-48 0 -77 -31.5 q-29 -31.5 -44.5 -76 q-15.5 -44.5 -20.5 -93 q-5 -48.5 -5 -83.5 q0 -36 5 -85 q5 -49 20.5 -93.5 q15.5 -44.5 44.5 -76 q29 -31.5 77 -31.5 ZM300 -10 q-75 0 -121.5 36.5 q-46.5 36.5 -72 92.5 q-25.5 56 -34.5 122 q-9 66 -9 126 q0 58 8.5 123.5 q8.5 65.5 34 121 q25.5 55.5 72 92 q46.5 36.5 122.5 36.5 q75 0 121.5 -36 q46.5 -36 72 -91.5 q25.5 -55.5 34.5 -120.5 q9 -65 9 -124 q0 -60 -9 -126.5 q-9 -66.5 -35 -122.5 q-26 -56 -72 -92.5 q-46 -36.5 -121 -36.5 ZM300 -154 q-23 6 -30 20 q-7 14 -1 35 q5 17 16.5 27 q11.5 10 30.5 5 l180 -46 q22 -6 30.5 -20.5 q8.5 -14.5 2.5 -34.5 q-6 -21 -21.5 -29 q-15.5 -8 -34.5 -3 l-173 46 Z" /><glyph glyph-name="" unicode="R" d="M182 410 l145 0 q27 0 50.5 7.5 q23.5 7.5 41 21.5 q17.5 14 28 36 q10.5 22 10.5 50 q0 58 -38 86.5 q-38 28.5 -92 28.5 l-105 0 q-20 0 -30 -10 q-10 -10 -10 -30 l0 -190 ZM182 320 l0 -285 q0 -23 -11 -34 q-11 -11 -34 -11 q-23 0 -34 11 q-11 11 -11 34 l0 615 q0 41 19.5 60.5 q19.5 19.5 60.5 19.5 l155 0 q47 0 88 -13.5 q41 -13.5 71 -40 q30 -26.5 47 -64.5 q17 -38 17 -87 q0 -40 -11.5 -73 q-11.5 -33 -32.5 -57.5 q-21 -24.5 -49.5 -41.5 q-28.5 -17 -62.5 -25 l137 -279 q15 -30 6.5 -44.5 q-8.5 -14.5 -37.5 -14.5 q-21 0 -33.5 7.5 q-12.5 7.5 -20.5 22.5 l-146 300 l-118 0 Z" /><glyph glyph-name="" unicode="S" d="M412 585 q-14 36 -44 50.5 q-30 14.5 -68 14.5 q-56 0 -88 -30 q-32 -30 -32 -73 q0 -31 9 -51 q9 -20 25.5 -32.5 q16.5 -12.5 38.5 -20.5 q22 -8 47 -15 q48 -13 89.5 -28.5 q41.5 -15.5 72.5 -40.5 q31 -25 48.5 -63 q17.5 -38 17.5 -97 q0 -48 -16 -86.5 q-16 -38.5 -45.5 -65.5 q-29.5 -27 -71.5 -42 q-42 -15 -95 -15 q-45 0 -83 11 q-38 11 -67 32.5 q-29 21.5 -48 52 q-19 30.5 -26 69.5 q-3 19 7 32 q10 13 31 13 q20 0 35 -8 q15 -8 23 -30 q14 -41 46 -61.5 q32 -20.5 82 -20.5 q32 0 57.5 8 q25.5 8 43.5 23 q18 15 27.5 37 q9.5 22 9.5 51 q0 36 -10.5 58.5 q-10.5 22.5 -29 37 q-18.5 14.5 -44 23.5 q-25.5 9 -54.5 17 q-43 12 -81.5 26.5 q-38.5 14.5 -67 37.5 q-28.5 23 -45 58 q-16.5 35 -16.5 88 q0 44 15 79.5 q15 35.5 42.5 61.5 q27.5 26 66.5 40 q39 14 86 14 q40 0 74 -10.5 q34 -10.5 60 -30 q26 -19.5 44 -47 q18 -27.5 25 -60.5 q5 -21 -5.5 -33 q-10.5 -12 -34.5 -12 q-20 0 -31.5 9 q-11.5 9 -19.5 29 Z" /><glyph glyph-name="" unicode="T" d="M255 640 l-155 0 q-20 0 -32.5 12.5 q-12.5 12.5 -12.5 32.5 q0 20 12.5 32.5 q12.5 12.5 32.5 12.5 l400 0 q20 0 32.5 -12.5 q12.5 -12.5 12.5 -32.5 q0 -20 -12.5 -32.5 q-12.5 -12.5 -32.5 -12.5 l-155 0 l0 -605 q0 -23 -11 -34 q-11 -11 -34 -11 q-23 0 -34 11 q-11 11 -11 34 l0 605 Z" /><glyph glyph-name="" unicode="U" d="M90 685 q0 23 11 34 q11 11 34 11 q23 0 34 -11 q11 -11 11 -34 l0 -475 q0 -30 7 -54 q7 -24 22 -41 q15 -17 37.5 -26 q22.5 -9 53.5 -9 q31 0 53.5 9.5 q22.5 9.5 37.5 26.5 q15 17 22 41 q7 24 7 53 l0 475 q0 23 11 34 q11 11 34 11 q23 0 34 -11 q11 -11 11 -34 l0 -475 q0 -50 -13.5 -90.5 q-13.5 -40.5 -40.5 -69.5 q-27 -29 -66 -44.5 q-39 -15.5 -90 -15.5 q-51 0 -90 16 q-39 16 -65.5 44.5 q-26.5 28.5 -40.5 69.5 q-14 41 -14 90 l0 475 Z" /><glyph glyph-name="" unicode="V" d="M237 38 l-173 650 q-5 20 2 36 q7 16 36 16 q20 0 33.5 -9 q13.5 -9 18.5 -26 l131 -520 q6 -23 15 -23 q9 0 15 23 l131 520 q5 17 18.5 26 q13.5 9 33.5 9 q29 0 36 -16 q7 -16 2 -36 l-173 -650 q-7 -24 -22 -36 q-15 -12 -41 -12 q-25 0 -40.5 12 q-15.5 12 -22.5 36 Z" /><glyph glyph-name="" unicode="W" d="M95 51 l-58 634 q-2 28 9 41.5 q11 13.5 37 13.5 q21 0 31.5 -9 q10.5 -9 12.5 -28 l40 -558 q1 -9 5 -9.5 q4 -0.5 6 8.5 l66 379 q5 24 18.5 35.5 q13.5 11.5 37.5 11.5 q24 0 37.5 -11.5 q13.5 -11.5 18.5 -35.5 l66 -378 q2 -8 6 -8 q4 0 5 9 l40 557 q2 19 12.5 28 q10.5 9 31.5 9 q26 0 37 -13.5 q11 -13.5 9 -41.5 l-59 -635 q-3 -30 -20 -45 q-17 -15 -48 -15 q-31 0 -48.5 15 q-17.5 15 -22.5 45 l-58 351 q-2 8 -7 8 q-5 0 -7 -8 l-58 -350 q-5 -31 -22.5 -46 q-17.5 -15 -48.5 -15 q-31 0 -48.5 15 q-17.5 15 -20.5 46 Z" /><glyph glyph-name="" unicode="X" d="M517 682 l-168 -307 l179 -326 q8 -15 8 -26 q0 -11 -6 -18.5 q-6 -7.5 -16 -11 q-10 -3.5 -21 -3.5 q-17 0 -28.5 7.5 q-11.5 7.5 -19.5 22.5 l-145 265 l-145 -265 q-8 -15 -19.5 -22.5 q-11.5 -7.5 -28.5 -7.5 q-11 0 -21 3.5 q-10 3.5 -16 11 q-6 7.5 -6 18 q0 10.5 8 25.5 l179 326 l-169 308 q-8 14 -7.5 25 q0.5 11 6.5 18.5 q6 7.5 16 11 q10 3.5 22 3.5 q15 0 26.5 -7 q11.5 -7 19.5 -22 l135 -246 l135 246 q8 15 19.5 22 q11.5 7 27.5 7 q11 0 21 -3.5 q10 -3.5 16 -11 q6 -7.5 6 -18 q0 -10.5 -8 -25.5 Z" /><glyph glyph-name="" unicode="Y" d="M300 -10 q-23 0 -34 11 q-11 11 -11 34 l0 213 q0 13 -3 25 q-3 12 -8 23 l-185 394 q-4 10 -3 19 q1 9 6 16 q5 7 13 11 q8 4 16 4 q19 0 30 -6 q11 -6 22 -28 l147 -316 q5 -11 10 -11 q5 0 10 11 l147 316 q11 22 22 28 q11 6 30 6 q8 0 16 -4 q8 -4 13 -11 q5 -7 6.5 -16 q1.5 -9 -3.5 -19 l-185 -394 q-5 -11 -8 -23 q-3 -12 -3 -25 l0 -213 q0 -23 -11 -34 q-11 -11 -34 -11 Z" /><glyph glyph-name="" unicode="Z" d="M153 0 q-34 0 -51 17 q-17 17 -17 51 q0 11 2.5 21 q2.5 10 8.5 20 l295 509 q6 11 3.5 16.5 q-2.5 5.5 -15.5 5.5 l-244 0 q-20 0 -32.5 12.5 q-12.5 12.5 -12.5 32.5 q0 20 12.5 32.5 q12.5 12.5 32.5 12.5 l302 0 q34 0 51 -16.5 q17 -16.5 17 -50.5 q0 -11 -2.5 -21.5 q-2.5 -10.5 -8.5 -20.5 l-295 -509 q-6 -11 -3.5 -16.5 q2.5 -5.5 15.5 -5.5 l259 0 q20 0 32.5 -12.5 q12.5 -12.5 12.5 -32.5 q0 -20 -12.5 -32.5 q-12.5 -12.5 -32.5 -12.5 l-317 0 Z" /><glyph glyph-name="" unicode="_" d="M120 -165 q-23 0 -34 11 q-11 11 -11 34 q0 23 11 34 q11 11 34 11 l360 0 q23 0 34 -11 q11 -11 11 -34 q0 -23 -11 -34 q-11 -11 -34 -11 l-360 0 Z" /><glyph glyph-name="" unicode="a" d="M242 -10 q-36 0 -67.5 12 q-31.5 12 -54.5 39.5 q-23 27.5 -36.5 72 q-13.5 44.5 -13.5 110.5 q0 69 14 130.5 q14 61.5 42.5 107 q28.5 45.5 72 72 q43.5 26.5 101.5 26.5 q48 0 75 -24 q22 -20 35 -49 q2 15 4 29 q4 25 17 34.5 q13 9.5 34 9.5 q24 0 33.5 -10.5 q9.5 -10.5 5.5 -33.5 q-10 -59 -15 -116.5 q-5 -57.5 -3.5 -116 q1.5 -58.5 10 -120 q8.5 -61.5 24.5 -129.5 q5 -22 -3 -33 q-8 -11 -31 -11 q-23 0 -37 11 q-14 11 -19 33 q-12 49 -20 95 q-6 -18 -14 -35 q-22 -46 -59.5 -75 q-37.5 -29 -94.5 -29 ZM251 80 q31 0 57.5 16.5 q26.5 16.5 45.5 46.5 q19 30 30 72 q11 42 11 93 q0 24 -1.5 52.5 q-1.5 28.5 -9.5 52.5 q-8 24 -25.5 40.5 q-17.5 16.5 -50.5 16.5 q-31 0 -58 -19.5 q-27 -19.5 -47 -53.5 q-20 -34 -31.5 -81 q-11.5 -47 -11.5 -101 q0 -64 22.5 -99.5 q22.5 -35.5 68.5 -35.5 Z" /><glyph glyph-name="" unicode="b" d="M135 -10 q-23 0 -34 11.5 q-11 11.5 -11 34.5 l0 659 q0 23 11 34 q11 11 34 11 q23 0 34 -11 q11 -11 11 -34 l0 -239 q9 45 45.5 74.5 q36.5 29.5 91.5 29.5 q63 0 103 -27 q40 -27 62 -70.5 q22 -43.5 30 -98 q8 -54.5 8 -108.5 q0 -46 -7 -93.5 q-7 -47.5 -28 -86 q-21 -38.5 -59 -62.5 q-38 -24 -99 -24 q-29 0 -52 8 q-23 8 -41 22.5 q-18 14.5 -31.5 34.5 q-13.5 20 -22.5 45 l0 -64 q0 -23 -11 -34.5 q-11 -11.5 -34 -11.5 ZM318 80 q33 0 55 13.5 q22 13.5 34.5 38 q12.5 24.5 17.5 58 q5 33.5 5 72.5 q0 38 -4 75.5 q-4 37.5 -17.5 67 q-13.5 29.5 -38.5 47.5 q-25 18 -68 18 q-27 0 -49.5 -15 q-22.5 -15 -38.5 -38 q-16 -23 -25 -50 q-9 -27 -9 -51 l0 -110 q0 -24 11.5 -46.5 q11.5 -22.5 30.5 -40 q19 -17.5 44 -28.5 q25 -11 52 -11 Z" /><glyph glyph-name="" unicode="c" d="M80 274 q0 77 20 131 q20 54 53.5 88.5 q33.5 34.5 78.5 50.5 q45 16 95 16 q38 0 68 -6.5 q30 -6.5 52.5 -17.5 q22.5 -11 38.5 -25 q16 -14 25 -29 q14 -23 10.5 -40 q-3.5 -17 -20.5 -27 q-18 -11 -34 -8 q-16 3 -25 18 q-11 17 -38 31 q-27 14 -71 14 q-36 0 -66 -12 q-30 -12 -51.5 -36 q-21.5 -24 -33.5 -59.5 q-12 -35.5 -12 -83.5 q0 -49 12.5 -86.5 q12.5 -37.5 34 -62.5 q21.5 -25 51.5 -37.5 q30 -12.5 64 -12.5 q26 0 54 6.5 q28 6.5 43 21.5 q12 12 29.5 14 q17.5 2 34.5 -12 q6 -6 9.5 -13.5 q3.5 -7.5 3.5 -16.5 q0 -9 -5 -19.5 q-5 -10.5 -15 -22.5 q-13 -16 -31 -25.5 q-18 -9.5 -38.5 -14.5 q-20.5 -5 -42.5 -6.5 q-22 -1.5 -44 -1.5 q-55 0 -101 17 q-46 17 -79 51.5 q-33 34.5 -51.5 88.5 q-18.5 54 -18.5 127 Z" /><glyph glyph-name="" unicode="d" d="M465 -10 q-23 0 -34 11.5 q-11 11.5 -11 34.5 l0 64 q-9 -25 -22.5 -45 q-13.5 -20 -31.5 -34.5 q-18 -14.5 -41 -22.5 q-23 -8 -52 -8 q-61 0 -99 24 q-38 24 -59 62.5 q-21 38.5 -28 86 q-7 47.5 -7 93.5 q0 54 8 108.5 q8 54.5 30 98 q22 43.5 62 70.5 q40 27 103 27 q55 0 91.5 -29.5 q36.5 -29.5 45.5 -74.5 l0 239 q0 23 11 34 q11 11 34 11 q23 0 34 -11 q11 -11 11 -34 l0 -659 q0 -23 -11 -34.5 q-11 -11.5 -34 -11.5 ZM282 80 q27 0 52 11 q25 11 44 28.5 q19 17.5 30.5 40 q11.5 22.5 11.5 46.5 l0 110 q0 24 -9 51 q-9 27 -25 50 q-16 23 -38.5 38 q-22.5 15 -49.5 15 q-43 0 -68 -18 q-25 -18 -38.5 -47.5 q-13.5 -29.5 -17.5 -67 q-4 -37.5 -4 -75.5 q0 -39 5 -72.5 q5 -33.5 17.5 -58 q12.5 -24.5 34.5 -38 q22 -13.5 55 -13.5 Z" /><glyph glyph-name="" unicode="e" d="M459 132 q19 0 31.5 -13.5 q12.5 -13.5 12.5 -30.5 q0 -9 -4.5 -17.5 q-4.5 -8.5 -16.5 -20.5 q-16 -15 -34 -26 q-18 -11 -38.5 -19 q-20.5 -8 -43 -11.5 q-22.5 -3.5 -47.5 -3.5 q-58 0 -103.5 19.5 q-45.5 19.5 -77 56 q-31.5 36.5 -48.5 89 q-17 52.5 -17 117.5 q0 57 12.5 109.5 q12.5 52.5 40 92 q27.5 39.5 71.5 63 q44 23.5 108 23.5 q60 0 100 -20.5 q40 -20.5 64.5 -57.5 q24.5 -37 35 -86.5 q10.5 -49.5 10.5 -108.5 q0 -18 -13 -32.5 q-13 -14.5 -34 -14.5 l-303 0 q4 -40 17 -70.5 q13 -30.5 33 -50 q20 -19.5 46.5 -29.5 q26.5 -10 58.5 -10 q45 0 71.5 14 q26.5 14 41.5 26 q8 7 13 9.5 q5 2.5 13 2.5 ZM165 320 l244 0 q5 0 10.5 6 q5.5 6 5.5 27 q0 21 -8 42 q-8 21 -23.5 37.5 q-15.5 16.5 -38 27 q-22.5 10.5 -50.5 10.5 q-31 0 -55.5 -11 q-24.5 -11 -42 -31 q-17.5 -20 -28 -47.5 q-10.5 -27.5 -14.5 -60.5 Z" /><glyph glyph-name="" unicode="f" d="M496 380 l-191 0 l0 -345 q0 -23 -11 -34 q-11 -11 -34 -11 q-23 0 -34 11 q-11 11 -11 34 l0 345 l-126 0 q-20 0 -32 12.5 q-12 12.5 -12 32.5 q0 20 12 32.5 q12 12.5 32 12.5 l126 0 l0 100 q0 37 13.5 66.5 q13.5 29.5 37.5 50.5 q24 21 55.5 32 q31.5 11 67.5 11 l95 0 q20 0 33 -12.5 q13 -12.5 13 -32.5 q0 -20 -13 -32.5 q-13 -12.5 -33 -12.5 l-95 0 q-20 0 -36 -6.5 q-16 -6.5 -26.5 -17 q-10.5 -10.5 -16 -23 q-5.5 -12.5 -5.5 -23.5 l0 -100 l191 0 q20 0 32 -12.5 q12 -12.5 12 -32.5 q0 -20 -12 -32.5 q-12 -12.5 -32 -12.5 Z" /><glyph glyph-name="" unicode="g" d="M420 120 q-9 -30 -23.5 -50.5 q-14.5 -20.5 -33 -34 q-18.5 -13.5 -41.5 -19.5 q-23 -6 -49 -6 q-60 0 -97.5 25 q-37.5 25 -58.5 64 q-21 39 -29 87.5 q-8 48.5 -8 94.5 q0 47 8 96 q8 49 30 90 q22 41 62 67 q40 26 103 26 q55 0 89 -28 q34 -28 48 -76 l0 59 q0 23 11 34 q11 11 34 11 q23 0 34 -11 q11 -11 11 -34 l0 -515 q0 -63 -17 -108.5 q-17 -45.5 -46.5 -75 q-29.5 -29.5 -69.5 -43 q-40 -13.5 -85 -13.5 q-70 0 -114 24.5 q-44 24.5 -72 59.5 q-8 9 -11 18 q-3 9 -3 18 q0 8 3 18 q3 10 9 18.5 q6 8.5 15 14 q9 5.5 20 5.5 q11 0 19 -4.5 q8 -4.5 15 -13.5 q11 -13 25 -25.5 q14 -12.5 30.5 -22 q16.5 -9.5 35.5 -15 q19 -5.5 40 -5.5 q18 0 38.5 7.5 q20.5 7.5 38 25 q17.5 17.5 28.5 46 q11 28.5 11 71.5 l0 120 ZM282 95 q27 0 52 11.5 q25 11.5 44 30.5 q19 19 30.5 42 q11.5 23 11.5 47 l0 90 q0 24 -9 52 q-9 28 -25 51.5 q-16 23.5 -38.5 39.5 q-22.5 16 -49.5 16 q-43 0 -68 -18 q-25 -18 -38.5 -45.5 q-13.5 -27.5 -17.5 -60.5 q-4 -33 -4 -64 q0 -32 4 -66 q4 -34 16 -62 q12 -28 34 -46 q22 -18 58 -18 Z" /><glyph glyph-name="" unicode="h" d="M185 316 l0 -281 q0 -23 -11 -34 q-11 -11 -34 -11 q-23 0 -34 11 q-11 11 -11 34 l0 660 q0 23 11 34 q11 11 34 11 q23 0 34 -11 q11 -11 11 -34 l0 -239 q14 48 48 76 q34 28 89 28 q40 0 73.5 -13.5 q33.5 -13.5 58 -38.5 q24.5 -25 38 -60 q13.5 -35 13.5 -78 l0 -335 q0 -23 -11 -34 q-11 -11 -34 -11 q-23 0 -34 11 q-11 11 -11 34 l0 309 q0 26 -7 49.5 q-7 23.5 -20.5 41.5 q-13.5 18 -33.5 29 q-20 11 -47 11 q-27 0 -49.5 -16 q-22.5 -16 -38.5 -39.5 q-16 -23.5 -25 -51.5 q-9 -28 -9 -52 Z" /><glyph glyph-name="" unicode="i" d="M512 90 q20 0 31.5 -12.5 q11.5 -12.5 11.5 -32.5 q0 -20 -11.5 -32.5 q-11.5 -12.5 -31.5 -12.5 l-384 0 q-20 0 -31.5 12.5 q-11.5 12.5 -11.5 32.5 q0 20 11.5 32.5 q11.5 12.5 31.5 12.5 l152 0 l0 310 q0 20 -10 30 q-10 10 -30 10 l-91 0 q-20 0 -32 12.5 q-12 12.5 -12 32.5 q0 20 12 32.5 q12 12.5 32 12.5 l141 0 q41 0 60.5 -19.5 q19.5 -19.5 19.5 -60.5 l0 -360 l142 0 ZM320 629 q-33 0 -52 17 q-19 17 -19 46 q0 30 19 47.5 q19 17.5 52 17.5 q33 0 52 -17.5 q19 -17.5 19 -47.5 q0 -29 -19 -46 q-19 -17 -52 -17 Z" /><glyph glyph-name="" unicode="j" d="M350 400 q0 20 -10 30 q-10 10 -30 10 l-135 0 q-20 0 -32.5 12.5 q-12.5 12.5 -12.5 32.5 q0 19 12.5 32 q12.5 13 32.5 13 l185 0 q41 0 60.5 -19.5 q19.5 -19.5 19.5 -60.5 l0 -483 q0 -47 -15.5 -85 q-15.5 -38 -42.5 -65 q-27 -27 -63.5 -42 q-36.5 -15 -78.5 -15 q-29 0 -54.5 7 q-25.5 7 -47.5 19.5 q-22 12.5 -41 29.5 q-19 17 -36 36 q-6 6 -8.5 13.5 q-2.5 7.5 -2.5 14.5 q0 16 11.5 34 q11.5 18 34.5 18 q14 0 24.5 -8.5 q10.5 -8.5 21.5 -20.5 q17 -20 40 -36.5 q23 -16.5 58 -16.5 q21 0 41 7 q20 7 35 20 q15 13 24.5 32 q9.5 19 9.5 44 l0 447 ZM380 629 q-33 0 -52 17 q-19 17 -19 46 q0 30 19 47.5 q19 17.5 52 17.5 q33 0 52 -17.5 q19 -17.5 19 -47.5 q0 -29 -19 -46 q-19 -17 -52 -17 Z" /><glyph glyph-name="" unicode="k" d="M190 35 q0 -23 -11 -34 q-11 -11 -34 -11 q-23 0 -34 11 q-11 11 -11 34 l0 660 q0 23 11 34 q11 11 34 11 q23 0 34 -11 q11 -11 11 -34 l0 -382 l225 226 q11 11 22.5 16 q11.5 5 24.5 5 q14 0 24 -6 q10 -6 14.5 -15.5 q4.5 -9.5 2.5 -20.5 q-2 -11 -12 -21 l-150 -153 l177 -298 q7 -11 7 -21.5 q0 -10.5 -4.5 -18 q-4.5 -7.5 -12.5 -12 q-8 -4.5 -17 -4.5 q-17 0 -33 3.5 q-16 3.5 -28 24.5 l-153 260 l-87 -88 l0 -155 Z" /><glyph glyph-name="" unicode="l" d="M309 224 q0 -72 21.5 -108 q21.5 -36 63.5 -36 q20 0 39 3 q19 3 42 14 q20 11 35.5 5.5 q15.5 -5.5 26.5 -24.5 q12 -20 7.5 -36.5 q-4.5 -16.5 -23.5 -26.5 q-30 -16 -65 -20.5 q-35 -4.5 -77 -4.5 q-36 0 -65.5 13 q-29.5 13 -50.5 39.5 q-21 26.5 -32.5 67.5 q-11.5 41 -11.5 97 l1 401 q0 20 -10 30 q-10 10 -30 10 l-74 0 q-20 0 -30.5 10.5 q-10.5 10.5 -10.5 30.5 q0 20 10.5 30.5 q10.5 10.5 30.5 10.5 l124 0 q41 0 60.5 -19.5 q19.5 -19.5 19.5 -60.5 l-1 -426 Z" /><glyph glyph-name="" unicode="m" d="M103 0 q-20 0 -34 10 q-14 10 -14 32 l0 478 q0 19 13 29.5 q13 10.5 32 10.5 q20 0 32.5 -10.5 q12.5 -10.5 12.5 -29.5 l0 -35 q11 35 30 55 q19 20 60 20 q43 0 67.5 -22.5 q24.5 -22.5 29.5 -52.5 q8 32 33 53.5 q25 21.5 70 21.5 q31 0 52 -11 q21 -11 34 -30.5 q13 -19.5 18.5 -45 q5.5 -25.5 5.5 -55.5 l0 -376 q0 -22 -13.5 -32 q-13.5 -10 -33.5 -10 q-20 0 -33.5 10 q-13.5 10 -13.5 32 l0 367 q0 27 -11.5 49.5 q-11.5 22.5 -43.5 22.5 q-31 0 -42.5 -22 q-11.5 -22 -11.5 -49 l0 -373 q0 -20 -12 -28.5 q-12 -8.5 -30 -8.5 q-18 0 -30 8.5 q-12 8.5 -12 28.5 l0 372 q0 26 -11 49 q-11 23 -43 23 q-31 0 -43 -21.5 q-12 -21.5 -12 -49.5 l0 -368 q0 -22 -13 -32 q-13 -10 -33 -10 Z" /><glyph glyph-name="" unicode="n" d="M185 316 l0 -281 q0 -23 -11 -34 q-11 -11 -34 -11 q-23 0 -34 11 q-11 11 -11 34 l0 480 q0 23 11 34 q11 11 34 11 q23 0 34 -11 q11 -11 11 -34 l0 -59 q14 48 48 76 q34 28 89 28 q40 0 73.5 -13.5 q33.5 -13.5 58 -38.5 q24.5 -25 38 -60 q13.5 -35 13.5 -78 l0 -335 q0 -23 -11 -34 q-11 -11 -34 -11 q-23 0 -34 11 q-11 11 -11 34 l0 309 q0 26 -7 49.5 q-7 23.5 -20.5 41.5 q-13.5 18 -33.5 29 q-20 11 -47 11 q-27 0 -49.5 -16 q-22.5 -16 -38.5 -39.5 q-16 -23.5 -25 -51.5 q-9 -28 -9 -52 Z" /><glyph glyph-name="" unicode="o" d="M300 -10 q-58 0 -100 21.5 q-42 21.5 -70 59.5 q-28 38 -41.5 90.5 q-13.5 52.5 -13.5 114.5 q0 62 13 114 q13 52 41 89.5 q28 37.5 70.5 59 q42.5 21.5 100.5 21.5 q59 0 101.5 -21.5 q42.5 -21.5 70 -59 q27.5 -37.5 40.5 -89.5 q13 -52 13 -114 q0 -62 -13.5 -114.5 q-13.5 -52.5 -41 -90.5 q-27.5 -38 -70 -59.5 q-42.5 -21.5 -100.5 -21.5 ZM300 80 q35 0 60.5 14.5 q25.5 14.5 42 40 q16.5 25.5 24.5 62 q8 36.5 8 79.5 q0 43 -7.5 78.5 q-7.5 35.5 -24 61 q-16.5 25.5 -42 40 q-25.5 14.5 -61.5 14.5 q-36 0 -61.5 -14.5 q-25.5 -14.5 -42 -40 q-16.5 -25.5 -24 -61.5 q-7.5 -36 -7.5 -79 q0 -43 8 -79 q8 -36 24.5 -61.5 q16.5 -25.5 42 -40 q25.5 -14.5 60.5 -14.5 Z" /><glyph glyph-name="" unicode="p" d="M135 560 q23 0 34 -11.5 q11 -11.5 11 -34.5 l0 -64 q9 25 22.5 45 q13.5 20 31.5 34.5 q18 14.5 41 22.5 q23 8 52 8 q61 0 99 -24 q38 -24 59 -62.5 q21 -38.5 28 -85.5 q7 -47 7 -94 q0 -54 -8 -108 q-8 -54 -30 -97.5 q-22 -43.5 -62 -71 q-40 -27.5 -103 -27.5 q-55 0 -91.5 29.5 q-36.5 29.5 -45.5 74.5 l0 -239 q0 -23 -11 -34 q-11 -11 -34 -11 q-23 0 -34 11 q-11 11 -11 34 l0 659 q0 23 11 34.5 q11 11.5 34 11.5 ZM318 470 q-27 0 -52 -11 q-25 -11 -44 -28.5 q-19 -17.5 -30.5 -40 q-11.5 -22.5 -11.5 -46.5 l0 -110 q0 -24 9 -51 q9 -27 25 -50 q16 -23 38.5 -38 q22.5 -15 49.5 -15 q43 0 68 18 q25 18 38.5 47.5 q13.5 29.5 17.5 67 q4 37.5 4 75.5 q0 39 -5 72.5 q-5 33.5 -17.5 58 q-12.5 24.5 -34.5 38 q-22 13.5 -55 13.5 Z" /><glyph glyph-name="" unicode="q" d="M465 560 q23 0 34 -11.5 q11 -11.5 11 -34.5 l0 -659 q0 -23 -11 -34 q-11 -11 -34 -11 q-23 0 -34 11 q-11 11 -11 34 l0 239 q-9 -45 -45.5 -74.5 q-36.5 -29.5 -91.5 -29.5 q-63 0 -103 27.5 q-40 27.5 -62 71 q-22 43.5 -30 97.5 q-8 54 -8 108 q0 47 7 94 q7 47 28 85.5 q21 38.5 59 62.5 q38 24 99 24 q29 0 52 -8 q23 -8 41 -22.5 q18 -14.5 31.5 -34.5 q13.5 -20 22.5 -45 l0 64 q0 23 11 34.5 q11 11.5 34 11.5 ZM282 470 q-33 0 -55 -13.5 q-22 -13.5 -34.5 -38 q-12.5 -24.5 -17.5 -58 q-5 -33.5 -5 -72.5 q0 -38 4 -75.5 q4 -37.5 17.5 -67 q13.5 -29.5 38.5 -47.5 q25 -18 68 -18 q27 0 49.5 15 q22.5 15 38.5 38 q16 23 25 50 q9 27 9 51 l0 110 q0 24 -11.5 46.5 q-11.5 22.5 -30.5 40 q-19 17.5 -44 28.5 q-25 11 -52 11 Z" /><glyph glyph-name="" unicode="r" d="M155 -10 q-23 0 -34 11 q-11 11 -11 34 l0 480 q0 23 11 34 q11 11 34 11 q23 0 34 -11 q11 -11 11 -34 l0 -59 q17 48 63.5 76 q46.5 28 120.5 28 q45 0 73.5 -16 q28.5 -16 44.5 -43 q16 -27 22 -63 q6 -36 6 -76 l0 -12 q0 -23 -11 -34 q-11 -11 -34 -11 q-23 0 -34 11 q-11 11 -11 34 l0 12 q0 23 -3 44.5 q-3 21.5 -12 38.5 q-9 17 -26 27 q-17 10 -46 10 q-26 0 -53 -9 q-27 -9 -49.5 -26 q-22.5 -17 -36.5 -41.5 q-14 -24.5 -14 -55.5 l0 -315 q0 -23 -11 -34 q-11 -11 -34 -11 Z" /><glyph glyph-name="" unicode="s" d="M301 -10 q-30 0 -58 4 q-28 4 -52.5 13.5 q-24.5 9.5 -47 25 q-22.5 15.5 -42.5 38.5 q-10 11 -15 25 q-5 14 -5 28 q0 22 12 30 q12 8 26 8 q11 0 20 -4 q9 -4 20 -14 q32 -28 62.5 -46 q30.5 -18 78.5 -18 q17 0 39.5 2 q22.5 2 42.5 9.5 q20 7.5 34 21.5 q14 14 14 37 q0 22 -14 37.5 q-14 15.5 -34 26 q-20 10.5 -42.5 17 q-22.5 6.5 -39.5 9.5 q-34 7 -69 17 q-35 10 -63.5 28 q-28.5 18 -47 47 q-18.5 29 -18.5 74 q0 42 16 71 q16 29 43 47.5 q27 18.5 63 27 q36 8.5 76 8.5 q65 0 118 -21.5 q53 -21.5 79 -63.5 q7 -11 9.5 -20 q2.5 -9 2.5 -16 q0 -16 -10 -28 q-10 -12 -30 -12 q-9 0 -21 3.5 q-12 3.5 -23 14.5 q-24 24 -51.5 38.5 q-27.5 14.5 -73.5 14.5 q-22 0 -41.5 -3.5 q-19.5 -3.5 -34.5 -11.5 q-15 -8 -23.5 -19.5 q-8.5 -11.5 -8.5 -28.5 q0 -20 10.5 -33.5 q10.5 -13.5 27 -21.5 q16.5 -8 35.5 -13 q19 -5 35 -8 q38 -8 77 -19.5 q39 -11.5 71 -31.5 q32 -20 52 -51.5 q20 -31.5 20 -79.5 q0 -44 -18 -74.5 q-18 -30.5 -48 -49 q-30 -18.5 -69.5 -27 q-39.5 -8.5 -83.5 -8.5 Z" /><glyph glyph-name="" unicode="t" d="M479 530 q20 0 30.5 -12.5 q10.5 -12.5 10.5 -32.5 q0 -20 -10.5 -32.5 q-10.5 -12.5 -30.5 -12.5 l-184 0 l0 -216 q0 -72 21.5 -108 q21.5 -36 63.5 -36 q20 0 39 3 q19 3 42 14 q20 11 35.5 5.5 q15.5 -5.5 26.5 -24.5 q12 -20 7.5 -36.5 q-4.5 -16.5 -23.5 -26.5 q-30 -16 -65 -20.5 q-35 -4.5 -77 -4.5 q-36 0 -65.5 13 q-29.5 13 -50.5 39.5 q-21 26.5 -32.5 67.5 q-11.5 41 -11.5 97 l0 233 l-117 0 q-20 0 -30.5 12.5 q-10.5 12.5 -10.5 32.5 q0 20 10.5 32.5 q10.5 12.5 30.5 12.5 l117 0 l0 130 q0 23 11 34 q11 11 34 11 q23 0 34 -11 q11 -11 11 -34 l0 -130 l184 0 Z" /><glyph glyph-name="" unicode="u" d="M415 234 l0 281 q0 23 11 34 q11 11 34 11 q23 0 34 -11 q11 -11 11 -34 l0 -480 q0 -23 -11 -34 q-11 -11 -34 -11 q-23 0 -34 11 q-11 11 -11 34 l0 59 q-14 -48 -48 -76 q-34 -28 -89 -28 q-40 0 -73.5 13.5 q-33.5 13.5 -58 38.5 q-24.5 25 -38 60 q-13.5 35 -13.5 78 l0 335 q0 23 11 34 q11 11 34 11 q23 0 34 -11 q11 -11 11 -34 l0 -309 q0 -26 7 -49.5 q7 -23.5 20.5 -41.5 q13.5 -18 33.5 -29 q20 -11 47 -11 q27 0 49.5 16 q22.5 16 38.5 39.5 q16 23.5 25 51.5 q9 28 9 52 Z" /><glyph glyph-name="" unicode="v" d="M237 38 l-163 470 q-3 10 -1.5 19 q1.5 9 7 16.5 q5.5 7.5 15 12 q9.5 4.5 21.5 4.5 q17 0 29.5 -9 q12.5 -9 18.5 -26 l121 -350 q5 -15 15 -15 q10 0 15 15 l121 350 q6 17 18.5 26 q12.5 9 29.5 9 q12 0 21.5 -4.5 q9.5 -4.5 15 -12 q5.5 -7.5 7 -16.5 q1.5 -9 -1.5 -19 l-163 -470 q-8 -24 -22.5 -36 q-14.5 -12 -40.5 -12 q-25 0 -40 12 q-15 12 -23 36 Z" /><glyph glyph-name="" unicode="w" d="M178 -10 q-29 0 -45.5 14 q-16.5 14 -21.5 43 l-73 464 q-4 25 6 37 q10 12 34 12 q22 0 33.5 -10 q11.5 -10 14.5 -30 l51 -390 q2 -10 3.5 -10 q1.5 0 3.5 10 l55 261 q5 25 20 37 q15 12 41 12 q26 0 41 -12 q15 -12 20 -37 l55 -261 q2 -10 3.5 -10 q1.5 0 3.5 10 l51 390 q3 20 14.5 30 q11.5 10 33.5 10 q24 0 34 -12 q10 -12 6 -37 l-73 -464 q-5 -29 -21 -43 q-16 -14 -45 -14 q-29 0 -46.5 13.5 q-17.5 13.5 -23.5 42.5 l-49 244 q-2 10 -4 10 q-2 0 -4 -10 l-49 -244 q-6 -29 -23 -42.5 q-17 -13.5 -46 -13.5 Z" /><glyph glyph-name="" unicode="x" d="M500 500 l-147 -217 l158 -234 q10 -14 10 -25 q0 -11 -6.5 -18.5 q-6.5 -7.5 -17 -11.5 q-10.5 -4 -21.5 -4 q-16 0 -28.5 7.5 q-12.5 7.5 -22.5 22.5 l-125 185 l-125 -185 q-10 -14 -22.5 -22 q-12.5 -8 -28.5 -8 q-11 0 -21.5 4 q-10.5 4 -17 11.5 q-6.5 7.5 -6.5 18.5 q0 11 10 25 l158 234 l-147 217 q-10 15 -10 26.5 q0 11.5 6.5 19 q6.5 7.5 17 11 q10.5 3.5 21.5 3.5 q17 0 29.5 -8 q12.5 -8 22.5 -22 l113 -168 l113 168 q10 15 23 22.5 q13 7.5 30 7.5 q11 0 21.5 -3.5 q10.5 -3.5 16.5 -11 q6 -7.5 6 -19 q0 -11.5 -10 -26.5 Z" /><glyph glyph-name="" unicode="y" d="M253 -11 l7 20 l-175 474 q-3 8 -5 16 q-2 8 -2 16 q0 18 11.5 26.5 q11.5 8.5 34.5 8.5 q17 0 26 -5.5 q9 -5.5 13 -16.5 l144 -390 l140 390 q4 11 13 16.5 q9 5.5 26 5.5 q23 0 34.5 -9 q11.5 -9 11.5 -27 q0 -7 -1.5 -14.5 q-1.5 -7.5 -4.5 -16.5 l-172 -493 q-7 -21 -19.5 -47.5 q-12.5 -26.5 -27.5 -53 q-15 -26.5 -32.5 -49.5 q-17.5 -23 -36.5 -36 q-23 -17 -53 -25 q-30 -8 -55 -8 q-26 0 -38 10.5 q-12 10.5 -12 33.5 l0 1 q0 22 11.5 33.5 q11.5 11.5 35.5 11.5 q16 0 32.5 5.5 q16.5 5.5 30.5 17.5 q14 12 23.5 23.5 q9.5 11.5 16.5 24 q7 12.5 12 26.5 q5 14 11 31 Z" /><glyph glyph-name="" unicode="z" d="M150 0 q-30 0 -45 15 q-15 15 -15 44 q0 16 4.5 29 q4.5 13 14.5 25 l264 316 q5 6 7.5 10.5 q2.5 4.5 2.5 8.5 q0 6 -6 9 q-6 3 -19 3 l-216 0 q-20 0 -32 12.5 q-12 12.5 -12 32.5 q0 20 12 32.5 q12 12.5 32 12.5 l297 0 q30 0 45 -15 q15 -15 15 -44 q0 -16 -4.5 -29.5 q-4.5 -13.5 -14.5 -24.5 l-269 -316 q-5 -6 -7.5 -11 q-2.5 -5 -2.5 -9 q0 -5 6 -8 q6 -3 18 -3 l241 0 q20 0 32 -12.5 q12 -12.5 12 -32.5 q0 -20 -12 -32.5 q-12 -12.5 -32 -12.5 l-316 0 Z" /><glyph glyph-name="" unicode="{" d="M475 -165 l-55 5 q-44 4 -79.5 17.5 q-35.5 13.5 -60 35.5 q-24.5 22 -36.5 53 q-12 31 -9 70 l15 194 q2 23 -3.5 42 q-5.5 19 -17 33 q-11.5 14 -29 22 q-17.5 8 -40.5 8 l-30 0 q-20 0 -32.5 12.5 q-12.5 12.5 -12.5 32.5 q0 20 12.5 32.5 q12.5 12.5 32.5 12.5 l30 0 q23 0 40.5 8 q17.5 8 29 22 q11.5 14 17 33 q5.5 19 3.5 42 l-15 174 q-3 39 8.5 70 q11.5 31 36 53 q24.5 22 60.5 35.5 q36 13.5 80 17.5 l55 5 q20 2 30 -11.5 q10 -13.5 10 -33.5 q0 -20 -10 -32.5 q-10 -12.5 -30 -14.5 l-55 -5 q-48 -5 -74 -28 q-26 -23 -21 -74 l15 -156 q3 -29 -4.5 -57 q-7.5 -28 -23.5 -49.5 q-16 -21.5 -40 -34.5 q-10 -6 -21 -9 q11 -3 20 -8 q24 -14 40 -36 q16 -22 23.5 -49.5 q7.5 -27.5 5.5 -56.5 l-15 -178 q-2 -25 3.5 -43 q5.5 -18 18 -30 q12.5 -12 31 -18.5 q18.5 -6.5 42.5 -8.5 l55 -5 q20 -2 30 -14.5 q10 -12.5 10 -32.5 q0 -20 -10 -33.5 q-10 -13.5 -30 -11.5 Z" /><glyph glyph-name="" unicode="}" d="M125 -165 q-20 -2 -30 11.5 q-10 13.5 -10 33.5 q0 20 10 32.5 q10 12.5 30 14.5 l55 5 q24 2 42.5 8.5 q18.5 6.5 31 18.5 q12.5 12 18 30 q5.5 18 3.5 43 l-15 178 q-2 29 5.5 56.5 q7.5 27.5 23.5 49.5 q16 22 41 36 q9 5 19 8 q-11 3 -20 9 q-25 13 -41 34.5 q-16 21.5 -23.5 49.5 q-7.5 28 -4.5 57 l15 156 q5 51 -21 74 q-26 23 -74 28 l-55 5 q-20 2 -30 14.5 q-10 12.5 -10 32.5 q0 20 10 33.5 q10 13.5 30 11.5 l55 -5 q44 -4 80 -17.5 q36 -13.5 60.5 -35.5 q24.5 -22 36 -53 q11.5 -31 8.5 -70 l-15 -174 q-2 -23 3.5 -42 q5.5 -19 17 -33 q11.5 -14 29.5 -22 q18 -8 40 -8 l30 0 q20 0 32.5 -12.5 q12.5 -12.5 12.5 -32.5 q0 -20 -12.5 -32.5 q-12.5 -12.5 -32.5 -12.5 l-30 0 q-22 0 -40 -8 q-18 -8 -29.5 -22 q-11.5 -14 -17 -33 q-5.5 -19 -3.5 -42 l15 -194 q3 -39 -9 -70 q-12 -31 -36.5 -53 q-24.5 -22 -60 -35.5 q-35.5 -13.5 -79.5 -17.5 l-55 -5 Z" /><glyph glyph-name="" unicode="&#x3001;" d="M404 -29 q-7 -5 -15.5 -7.5 q-8.5 -2.5 -17.5 -2 q-9 0.5 -16.5 4 q-7.5 3.5 -13.5 9.5 q-36 42 -76.5 82.5 q-40.5 40.5 -78.5 73.5 q-7 6 -10.5 15 q-3.5 9 -3 17.5 q0.5 8.5 3.5 17.5 q3 9 10 15 l9 8 q10 9 27 9 q17 0 28 -10 q41 -35 84.5 -78 q43.5 -43 83.5 -87 q5 -6 7 -14 q2 -8 1.5 -16.5 q-0.5 -8.5 -3.5 -16 q-3 -7.5 -10 -12.5 l-9 -8 Z" /><glyph glyph-name="" unicode="&#x3002;" d="M294 251 q32 0 60 -12 q28 -12 49 -33 q21 -21 33 -49 q12 -28 12 -60 q0 -32 -11.5 -60 q-11.5 -28 -33 -49 q-21.5 -21 -49.5 -33 q-28 -12 -60 -12 q-31 0 -59.5 12 q-28.5 12 -49.5 33 q-21 21 -33 49 q-12 28 -12 60 q0 32 12 60 q12 28 33 49 q21 21 49.5 33 q28.5 12 59.5 12 ZM294 -2 q21 0 39 8 q18 8 31 21 q13 13 21 31 q8 18 8 39 q0 20 -8 38.5 q-8 18.5 -21 31.5 q-13 13 -31 21 q-18 8 -39 8 q-20 0 -38 -8 q-18 -8 -31.5 -21 q-13.5 -13 -21.5 -31.5 q-8 -18.5 -8 -38.5 q0 -21 8 -39 q8 -18 21.5 -31 q13.5 -13 31.5 -21 q18 -8 38 -8 Z" /><glyph glyph-name="" unicode="&#x300a;" d="M886 -24 q4 -8 4 -16.5 q0 -8.5 -2 -16.5 q-2 -8 -6 -13.5 q-4 -5.5 -11 -7.5 q-10 -3 -23 5.5 q-13 8.5 -19 21.5 l-197 418 q-2 5 -2 13 q0 8 2 13 l197 418 q6 13 19 21.5 q13 8.5 23 5.5 q7 -2 11 -7.5 q4 -5.5 6 -13.5 q2 -8 2 -16.5 q0 -8.5 -4 -16.5 l-189 -399 q-2 -2 -2 -5 q0 -3 2 -5 l189 -399 ZM1047 -24 q4 -8 4 -16.5 q0 -8.5 -2 -16.5 q-2 -8 -6 -13.5 q-4 -5.5 -11 -7.5 q-10 -3 -23 5.5 q-13 8.5 -19 21.5 l-197 418 q-2 5 -2 13 q0 8 2 13 l197 418 q6 13 19 21.5 q13 8.5 23 5.5 q7 -2 11 -7.5 q4 -5.5 6 -13.5 q2 -8 2 -16.5 q0 -8.5 -4 -16.5 l-189 -399 q-2 -2 -2 -5 q0 -3 2 -5 l189 -399 Z" /><glyph glyph-name="" unicode="&#x300b;" d="M328 -78 q-6 2 -10.5 7.5 q-4.5 5.5 -6.5 13.5 q-2 8 -1.5 16.5 q0.5 8.5 3.5 16.5 l190 399 q1 2 1 5 q0 3 -1 5 l-190 399 q-3 8 -3.5 16.5 q-0.5 8.5 1.5 16.5 q2 8 6.5 13.5 q4.5 5.5 10.5 7.5 q10 3 23.5 -5.5 q13.5 -8.5 18.5 -21.5 l197 -418 q2 -5 2 -13 q0 -8 -2 -13 l-197 -418 q-5 -13 -18.5 -21.5 q-13.5 -8.5 -23.5 -5.5 ZM167 -78 q-6 2 -10 7.5 q-4 5.5 -6.5 13.5 q-2.5 8 -2 16.5 q0.5 8.5 4.5 16.5 l189 399 q1 2 1 5 q0 3 -1 5 l-189 399 q-4 8 -4.5 16.5 q-0.5 8.5 2 16.5 q2.5 8 6.5 13.5 q4 5.5 10 7.5 q10 3 23.5 -5.5 q13.5 -8.5 19.5 -21.5 l196 -418 q2 -5 2 -13 q0 -8 -2 -13 l-196 -418 q-6 -13 -19.5 -21.5 q-13.5 -8.5 -23.5 -5.5 Z" /><glyph glyph-name="" unicode="&#x300c;" d="M748 804 q0 8 4 15.5 q4 7.5 10 14 q6 6.5 14 10 q8 3.5 16 3.5 l231 0 q9 0 16.5 -3 q7.5 -3 14 -8.5 q6.5 -5.5 10 -12.5 q3.5 -7 3.5 -14.5 q0 -7.5 -3.5 -14 q-3.5 -6.5 -10 -12 q-6.5 -5.5 -14 -9 q-7.5 -3.5 -16.5 -3.5 l-186 0 q-2 0 -4 -2 q-2 -2 -2 -4 l0 -520 q0 -8 -3.5 -15.5 q-3.5 -7.5 -9.5 -13.5 q-6 -6 -13 -9.5 q-7 -3.5 -15 -3.5 q-8 0 -15.5 3.5 q-7.5 3.5 -13 10 q-5.5 6.5 -9.5 14 q-4 7.5 -4 15.5 l0 559 Z" /><glyph glyph-name="" unicode="&#x300d;" d="M452 -44 q0 -8 -4 -15.5 q-4 -7.5 -10 -14 q-6 -6.5 -13.5 -10 q-7.5 -3.5 -16.5 -3.5 l-231 0 q-8 0 -16 3.5 q-8 3.5 -14.5 9 q-6.5 5.5 -10 12 q-3.5 6.5 -3.5 14 q0 7.5 3.5 14 q3.5 6.5 10 12 q6.5 5.5 14.5 9 q8 3.5 16 3.5 l186 0 q2 0 4 2 q2 2 2 4 l0 520 q0 8 3.5 15.5 q3.5 7.5 9.5 13.5 q6 6 13.5 9.5 q7.5 3.5 15 3.5 q7.5 0 15 -3.5 q7.5 -3.5 13.5 -10 q6 -6.5 9.5 -14 q3.5 -7.5 3.5 -15.5 l0 -559 Z" /><glyph glyph-name="" unicode="&#x300e;" d="M881 687 q-3 0 -4.5 -2 q-1.5 -2 -1.5 -4 l0 -452 q0 -9 -4 -16.5 q-4 -7.5 -10 -14 q-6 -6.5 -13.5 -10 q-7.5 -3.5 -16.5 -3.5 l-88 0 q-8 0 -16 3.5 q-8 3.5 -14 10 q-6 6.5 -10 14 q-4 7.5 -4 15.5 l0 576 q0 8 4 15.5 q4 7.5 10 14 q6 6.5 14 10 q8 3.5 16 3.5 l281 0 q8 0 15.5 -3.5 q7.5 -3.5 14 -9.5 q6.5 -6 10 -14 q3.5 -8 3.5 -16 l0 -74 q0 -8 -3.5 -16 q-3.5 -8 -10 -14 q-6.5 -6 -14 -9.5 q-7.5 -3.5 -15.5 -3.5 l-143 0 ZM741 812 q-2 0 -4 -2 q-2 -2 -2 -5 l0 -579 q0 -2 2 -4 q2 -2 5 -2 l91 0 q3 0 5 2 q2 2 2 4 l0 452 q0 9 3.5 16.5 q3.5 7.5 9.5 14 q6 6.5 14 10 q8 3.5 16 3.5 l143 0 q2 0 4 2 q2 2 2 4 l0 78 q0 2 -2 4 q-2 2 -4 2 l-285 0 Z" /><glyph glyph-name="" unicode="&#x300f;" d="M319 73 q3 0 4.5 2 q1.5 2 1.5 4 l0 452 q0 9 4 16.5 q4 7.5 10 14 q6 6.5 14 10 q8 3.5 16 3.5 l88 0 q8 0 16 -3.5 q8 -3.5 14 -10 q6 -6.5 10 -14 q4 -7.5 4 -15.5 l0 -576 q0 -8 -4 -15.5 q-4 -7.5 -10 -14 q-6 -6.5 -14 -10 q-8 -3.5 -16 -3.5 l-281 0 q-7 0 -15 3.5 q-8 3.5 -14.5 9.5 q-6.5 6 -10 14 q-3.5 8 -3.5 16 l0 74 q0 8 3.5 16 q3.5 8 10 14 q6.5 6 14.5 9.5 q8 3.5 15 3.5 l143 0 ZM459 -52 q2 0 4 2 q2 2 2 5 l0 579 q0 2 -2 4 q-2 2 -5 2 l-91 0 q-3 0 -5 -2 q-2 -2 -2 -4 l0 -452 q0 -8 -3.5 -16 q-3.5 -8 -9.5 -14.5 q-6 -6.5 -14 -10 q-8 -3.5 -16 -3.5 l-143 0 q-2 0 -4 -2 q-2 -2 -2 -4 l0 -78 q0 -2 2 -4 q2 -2 4 -2 l285 0 Z" /><glyph glyph-name="" unicode="&#x3010;" d="M1067 845 q0 -2 -3.5 -5.5 q-3.5 -3.5 -8.5 -7.5 q-38 -35 -72 -82 q-34 -47 -59.5 -103.5 q-25.5 -56.5 -40 -123.5 q-14.5 -67 -14.5 -143 q0 -74 14.5 -140.5 q14.5 -66.5 40 -124 q25.5 -57.5 59.5 -105 q34 -47.5 72 -82.5 q5 -4 8.5 -7.5 q3.5 -3.5 3.5 -4.5 q0 -2 -13.5 -2.5 q-13.5 -0.5 -29.5 -0.5 l-216 0 q-7 0 -15 3.5 q-8 3.5 -14.5 10 q-6.5 6.5 -10 14 q-3.5 7.5 -3.5 15.5 l0 848 q0 8 3.5 15.5 q3.5 7.5 10 14 q6.5 6.5 14.5 10 q8 3.5 15 3.5 l216 0 q16 0 29.5 -0.5 q13.5 -0.5 13.5 -1.5 Z" /><glyph glyph-name="" unicode="&#x3011;" d="M435 -44 q0 -8 -3.5 -15.5 q-3.5 -7.5 -10 -14 q-6.5 -6.5 -14 -10 q-7.5 -3.5 -15.5 -3.5 l-216 0 q-16 0 -29.5 0.5 q-13.5 0.5 -13.5 2.5 q0 1 3.5 4.5 q3.5 3.5 8.5 7.5 q39 35 72.5 82 q33.5 47 59 103.5 q25.5 56.5 40 123.5 q14.5 67 14.5 143 q0 74 -14.5 140.5 q-14.5 66.5 -40 124 q-25.5 57.5 -59 105 q-33.5 47.5 -72.5 82.5 q-5 4 -8.5 7.5 q-3.5 3.5 -3.5 5.5 q0 1 13.5 1.5 q13.5 0.5 29.5 0.5 l216 0 q8 0 15.5 -3.5 q7.5 -3.5 14 -10 q6.5 -6.5 10 -14 q3.5 -7.5 3.5 -15.5 l0 -848 Z" /><glyph glyph-name="" unicode="&#x4e00;" d="M143 394 q0 8 3.5 15.5 q3.5 7.5 10 13.5 q6.5 6 14.5 9.5 q8 3.5 16 3.5 l830 0 q8 0 16 -3.5 q8 -3.5 14 -9.5 q6 -6 10 -13.5 q4 -7.5 4 -15.5 l0 -7 q0 -8 -4 -16 q-4 -8 -10 -14 q-6 -6 -14 -9.5 q-8 -3.5 -16 -3.5 l-830 0 q-8 0 -16 3.5 q-8 3.5 -14.5 9.5 q-6.5 6 -10 14 q-3.5 8 -3.5 16 l0 7 Z" /><glyph glyph-name="" unicode="&#x4e01;" d="M159 713 q0 7 3.5 14.5 q3.5 7.5 10 13.5 q6.5 6 14.5 9 q8 3 16 3 l794 0 q9 0 16.5 -3 q7.5 -3 14 -9 q6.5 -6 10 -13.5 q3.5 -7.5 3.5 -14.5 l0 -5 q0 -8 -3.5 -15 q-3.5 -7 -10 -13 q-6.5 -6 -14 -9.5 q-7.5 -3.5 -16.5 -3.5 l-318 0 l0 -617 q0 -48 -14.5 -72 q-14.5 -24 -48.5 -35 q-30 -10 -79.5 -13 q-49.5 -3 -124.5 -3 q-12 0 -25 9.5 q-13 9.5 -17 20.5 q-1 2 -1.5 3.5 q-0.5 1.5 -1.5 3.5 q-9 23 2 40.5 q11 17.5 36 16.5 q51 -2 86.5 -1.5 q35.5 0.5 55.5 1.5 q19 1 26.5 7 q7.5 6 7.5 23 l0 616 l-378 0 q-8 0 -16 3.5 q-8 3.5 -14.5 9.5 q-6.5 6 -10 13 q-3.5 7 -3.5 15 l0 5 Z" /><glyph glyph-name="" unicode="&#x4e03;" d="M154 406 q-1 8 2 15.5 q3 7.5 7.5 14.5 q4.5 7 12 11.5 q7.5 4.5 15.5 5.5 l245 39 l0 289 q0 8 3 15.5 q3 7.5 9.5 14 q6.5 6.5 14 10 q7.5 3.5 15.5 3.5 l7 0 q8 0 15 -3.5 q7 -3.5 13 -9.5 q6 -6 9.5 -14 q3.5 -8 3.5 -15 l0 -275 l475 76 q7 2 15 -1 q8 -3 15 -7.5 q7 -4.5 12 -11 q5 -6.5 7 -14.5 l0 -4 q1 -8 -1.5 -16 q-2.5 -8 -7.5 -14.5 q-5 -6.5 -12 -11.5 q-7 -5 -15 -6 l-488 -77 l0 -307 q0 -24 3 -39 q3 -15 12 -23.5 q9 -8.5 25 -11.5 q16 -3 43 -3 l246 0 q22 0 36 5.5 q14 5.5 23 19.5 q9 14 14 38 q5 24 8 60 q3 25 21 35.5 q18 10.5 39 1.5 q12 -5 21 -19 q9 -14 7 -27 q-5 -55 -13.5 -92.5 q-8.5 -37.5 -26.5 -61 q-18 -23.5 -47.5 -33.5 q-29.5 -10 -78.5 -10 l-253 0 q-49 0 -81.5 7 q-32.5 7 -52 25.5 q-19.5 18.5 -27.5 49.5 q-8 31 -8 79 l0 292 l-233 -37 q-7 -1 -15 1.5 q-8 2.5 -15 7 q-7 4.5 -12 11 q-5 6.5 -6 13.5 l-1 4 Z" /><glyph glyph-name="" unicode="&#x4e07;" d="M162 727 q0 8 3.5 15 q3.5 7 9.5 13 q6 6 14 9.5 q8 3.5 17 3.5 l789 0 q9 0 17 -3.5 q8 -3.5 14 -9.5 q6 -6 9.5 -13 q3.5 -7 3.5 -15 q0 -8 -3.5 -15 q-3.5 -7 -9.5 -13 q-6 -6 -14 -9.5 q-8 -3.5 -17 -3.5 l-495 0 q5 -6 8 -13 q4 -8 3 -16 q-3 -85 -11 -172 q2 0 3 1 q8 3 16 3 l388 0 q8 0 15.5 -3 q7.5 -3 13.5 -9 q3 -3 5 -6 q2 -2 4 -5 q2 -3 3 -6 q2 -5 2 -11 q0 -6 -2 -11 q-6 -114 -12 -195 q-7 -84 -15.5 -140.5 q-8.5 -56.5 -19.5 -89 q-11 -32.5 -26 -48.5 q-18 -21 -39 -28.5 q-21 -7.5 -52 -10.5 q-22 -1 -59 -1 q-37 0 -79 2 q-14 0 -27 9.5 q-13 9.5 -16 21.5 q-7 21 6.5 35.5 q13.5 14.5 40.5 13.5 q17 -1 31 -2 q14 -1 27 -1 l44 0 q17 -1 27.5 1.5 q10.5 2.5 19.5 10.5 q12 11 22 41.5 q10 30.5 17 85 q7 54.5 13 136.5 q4 57 8 129 l-340 0 q-8 0 -16 4 q-5 2 -10 6 q-11 -81 -34 -157 q-29 -95 -84 -177.5 q-55 -82.5 -148 -141.5 q-6 -5 -14 -7 q-8 -2 -16 -1 q-8 1 -15 4.5 q-7 3.5 -12 8.5 q-14 15 -10.5 35 q3.5 20 21.5 34 q82 55 129 130 q47 75 72 160.5 q25 85.5 32 176 q7 90.5 10 176.5 q0 7 4 15 q3 7 8 12 l-230 0 q-9 0 -17 3.5 q-8 3.5 -14 9.5 q-6 6 -9.5 13 q-3.5 7 -3.5 15 Z" /><glyph glyph-name="" unicode="&#x4e09;" d="M165 32 q0 8 3.5 15.5 q3.5 7.5 9.5 13.5 q6 6 14 9 q8 3 16 3 l782 0 q9 0 16.5 -3 q7.5 -3 14 -9 q6.5 -6 10 -13.5 q3.5 -7.5 3.5 -15.5 l0 -2 q0 -8 -3.5 -15 q-3.5 -7 -10 -13.5 q-6.5 -6.5 -14 -10 q-7.5 -3.5 -16.5 -3.5 l-782 0 q-8 0 -16 3.5 q-8 3.5 -14 10 q-6 6.5 -9.5 13.5 q-3.5 7 -3.5 15 l0 2 ZM222 704 q0 8 4 15 q4 7 10 13 q6 6 14 9.5 q8 3.5 16 3.5 l671 0 q8 0 15.5 -3.5 q7.5 -3.5 14 -9.5 q6.5 -6 10 -13 q3.5 -7 3.5 -15 l0 -2 q0 -8 -3.5 -15.5 q-3.5 -7.5 -10 -13.5 q-6.5 -6 -14 -9.5 q-7.5 -3.5 -15.5 -3.5 l-671 0 q-8 0 -16 3.5 q-8 3.5 -14 9.5 q-6 6 -10 13.5 q-4 7.5 -4 15.5 l0 2 ZM287 378 q0 8 4 15.5 q4 7.5 10 13 q6 5.5 14 9 q8 3.5 16 3.5 l527 0 q8 0 15.5 -3.5 q7.5 -3.5 14 -9 q6.5 -5.5 10 -13 q3.5 -7.5 3.5 -15.5 l0 -2 q0 -7 -3.5 -14.5 q-3.5 -7.5 -10 -14 q-6.5 -6.5 -14 -9.5 q-7.5 -3 -15.5 -3 l-527 0 q-8 0 -16 3 q-8 3 -14 9.5 q-6 6.5 -10 14 q-4 7.5 -4 14.5 l0 2 Z" /><glyph glyph-name="" unicode="&#x4e0a;" d="M150 10 q0 7 3.5 14.5 q3.5 7.5 9.5 13.5 q6 6 14 9 q8 3 15 3 l331 0 l0 734 q0 8 3 16 q3 8 9 14 q6 6 13.5 9.5 q7.5 3.5 15.5 3.5 l7 0 q7 0 14.5 -3.5 q7.5 -3.5 13.5 -9.5 q6 -6 9 -14 q3 -8 3 -16 l0 -261 l329 0 q8 0 15.5 -3.5 q7.5 -3.5 13.5 -9 q6 -5.5 9.5 -13 q3.5 -7.5 3.5 -15.5 l0 -2 q0 -8 -3.5 -15.5 q-3.5 -7.5 -9.5 -13.5 q-6 -6 -13.5 -9 q-7.5 -3 -15.5 -3 l-329 0 l0 -389 l398 0 q8 0 15.5 -3 q7.5 -3 13.5 -9 q6 -6 9.5 -13.5 q3.5 -7.5 3.5 -14.5 l0 -3 q0 -7 -3.5 -14.5 q-3.5 -7.5 -9.5 -13.5 q-6 -6 -13.5 -9.5 q-7.5 -3.5 -15.5 -3.5 l-817 0 q-7 0 -15 3.5 q-8 3.5 -14 9.5 q-6 6 -9.5 13.5 q-3.5 7.5 -3.5 14.5 l0 3 Z" /><glyph glyph-name="" unicode="&#x4e0b;" d="M155 727 q0 8 3.5 15 q3.5 7 9.5 13 q6 6 14 9.5 q8 3.5 15 3.5 l807 0 q8 0 15.5 -3.5 q7.5 -3.5 13.5 -9.5 q6 -6 9.5 -13 q3.5 -7 3.5 -15 l0 -2 q0 -8 -3.5 -15.5 q-3.5 -7.5 -9.5 -13 q-6 -5.5 -13.5 -9 q-7.5 -3.5 -15.5 -3.5 l-390 0 q4 -6 7 -12 q3 -8 3 -16 l0 -149 q8 5 19 7 q15 3 26 -3 q37 -19 76.5 -40 q39.5 -21 78 -43 q38.5 -22 73.5 -44 q35 -22 64 -41 q6 -4 10 -11.5 q4 -7.5 5 -15.5 q1 -8 0 -16 q-1 -8 -6 -14 l-8 -8 q-5 -8 -13 -11.5 q-8 -3.5 -16.5 -4.5 q-8.5 -1 -17.5 1 q-9 2 -16 7 q-26 19 -58 40 q-32 21 -67 42.5 q-35 21.5 -72 43 q-37 21.5 -72 39.5 l-6 4 l0 -476 q0 -8 -3 -16 q-3 -8 -9 -14 q-6 -6 -13 -9.5 q-7 -3.5 -15 -3.5 l-7 0 q-8 0 -15.5 3.5 q-7.5 3.5 -13.5 9.5 q-6 6 -9 14 q-3 8 -3 16 l0 693 q0 8 3 16 q3 6 7 12 l-349 0 q-7 0 -15 3.5 q-8 3.5 -14 9 q-6 5.5 -9.5 13 q-3.5 7.5 -3.5 15.5 l0 2 Z" /><glyph glyph-name="" unicode="&#x4e0d;" d="M168 731 q0 8 4 15 q4 7 10 13.5 q6 6.5 14 9.5 q8 3 16 3 l777 0 q8 0 15.5 -3 q7.5 -3 14 -9.5 q6.5 -6.5 10 -13.5 q3.5 -7 3.5 -15 l0 -3 q0 -7 -3.5 -14.5 q-3.5 -7.5 -10 -13.5 q-6.5 -6 -14 -9.5 q-7.5 -3.5 -15.5 -3.5 l-282 0 l0 -4 q0 -9 -5 -17 q-28 -47 -62 -93 q5 -9 5 -22 l0 -587 q0 -9 -3.5 -17 q-3.5 -8 -9.5 -14 q-6 -6 -13.5 -9.5 q-7.5 -3.5 -15.5 -3.5 l-7 0 q-8 0 -15.5 3.5 q-7.5 3.5 -13.5 9.5 q-6 6 -9.5 14 q-3.5 8 -3.5 16 l0 502 q-26 -29 -53 -57 q-59 -59 -126.5 -111.5 q-67.5 -52.5 -140.5 -94.5 q-6 -4 -14 -5 q-8 -1 -16 1 q-8 2 -15 6 q-7 4 -11 10 q-1 0 -1 1 l0 1 q-6 7 -8 17 q-2 10 0 19 q2 9 8.5 17.5 q6.5 8.5 15.5 14.5 q68 38 130 86.5 q62 48.5 116 103 q54 54.5 99 113.5 q38 50 67 100 l-393 0 q-8 0 -16 3.5 q-8 3.5 -14 9.5 q-6 6 -10 13.5 q-4 7.5 -4 14.5 l0 3 ZM698 440 q-7 6 -11.5 15 q-4.5 9 -5 17.5 q-0.5 8.5 3 17 q3.5 8.5 9.5 14.5 l2 2 q10 8 25.5 8 q15.5 0 25.5 -7 q38 -25 77 -52.5 q39 -27.5 76.5 -56 q37.5 -28.5 71 -56 q33.5 -27.5 61.5 -53.5 q5 -5 8.5 -12.5 q3.5 -7.5 3.5 -16 q0 -8.5 -3 -16 q-3 -7.5 -9 -13.5 l-7 -6 q-6 -6 -14.5 -8.5 q-8.5 -2.5 -17.5 -2 q-9 0.5 -17 4 q-8 3.5 -14 9.5 q-25 24 -56 51 q-31 27 -65.5 54.5 q-34.5 27.5 -71 54.5 q-36.5 27 -72.5 52 Z" /><glyph glyph-name="" unicode="&#x4e0e;" d="M352 780 q1 8 5.5 15 q4.5 7 10.5 12.5 q6 5.5 14 8 q8 2.5 15 1.5 l3 0 q8 -1 15 -5.5 q7 -4.5 12 -11.5 q5 -7 7.5 -15.5 q2.5 -8.5 0.5 -17.5 q-5 -29 -11 -60 l511 0 q8 0 16 -3.5 q8 -3.5 14 -9 q6 -5.5 9.5 -12.5 q3.5 -7 3.5 -15 q0 -8 -3.5 -15 q-3.5 -7 -9.5 -13 q-6 -6 -14 -9.5 q-8 -3.5 -16 -3.5 l-510 0 q-8 0 -16 4 l-1 0 q-5 -25 -11 -50 q-10 -47 -20 -91 q-4 -18 -8 -35 q4 1 7 1 l576 0 q8 0 16 -3 q8 -3 14 -9 q6 -6 10 -12.5 q4 -6.5 4 -14.5 q0 -7 -4 -14 q-1 -2 -2 -3 q-9 -98 -19 -169 q-11 -77 -23 -129 q-12 -52 -26 -84 q-14 -32 -31 -48 q-21 -21 -43.5 -28.5 q-22.5 -7.5 -56.5 -9.5 q-23 -2 -61 -1.5 q-38 0.5 -82 3.5 q-14 0 -27.5 10 q-13.5 10 -16.5 22 q-7 21 6 35.5 q13 14.5 40 13.5 q20 -1 36 -2 q16 -1 30 -1.5 q14 -0.5 26 -0.5 l24 0 q19 0 30.5 2 q11.5 2 21.5 10 q15 12 27.5 41.5 q12.5 29.5 23.5 79.5 q11 50 21 123 q6 49 12 111 l-526 0 q-7 0 -15 3.5 q-8 3.5 -14 8.5 l-1 0 q-1 -1 -3 -2 q-12 -10 -24 -10 l-4 0 q-10 0 -18 4.5 q-8 4.5 -14 12 q-6 7.5 -8 17.5 q-2 10 1 19 q9 38 19.5 81.5 q10.5 43.5 20 89 q9.5 45.5 19 92 q9.5 46.5 17.5 87.5 ZM156 202 q0 8 3.5 15 q3.5 7 9.5 13 q6 6 14 9.5 q8 3.5 15 3.5 l539 0 q8 0 15.5 -3.5 q7.5 -3.5 13.5 -9.5 q6 -6 10 -13 q4 -7 4 -14.5 q0 -7.5 -4 -15 q-4 -7.5 -10 -13 q-6 -5.5 -13.5 -9 q-7.5 -3.5 -15.5 -3.5 l-539 0 q-7 0 -15 3.5 q-8 3.5 -14 9 q-6 5.5 -9.5 13 q-3.5 7.5 -3.5 14.5 Z" /><glyph glyph-name="" unicode="&#x4e13;" d="M155 502 q0 7 3.5 14.5 q3.5 7.5 10 13 q6.5 5.5 14.5 9 q8 3.5 15 3.5 l233 0 q3 10 7 20 l28 92 l-186 0 q-8 0 -16 3.5 q-8 3.5 -14 9.5 q-6 6 -10 13 q-4 7 -4 14.5 q0 7.5 4 14.5 q4 7 10 12.5 q6 5.5 14 9 q8 3.5 16 3.5 l210 0 q11 37 20 72 q2 8 7 14.5 q5 6.5 11.5 11 q6.5 4.5 14 7 q7.5 2.5 14.5 1.5 l3 0 q9 -2 16 -7 q7 -5 11.5 -12.5 q4.5 -7.5 6.5 -16 q2 -8.5 -1 -17.5 q-7 -26 -16 -53 l340 0 q8 0 15.5 -3.5 q7.5 -3.5 14 -9 q6.5 -5.5 10 -12.5 q3.5 -7 3.5 -14.5 q0 -7.5 -3.5 -14.5 q-3.5 -7 -10 -13 q-6.5 -6 -14 -9.5 q-7.5 -3.5 -15.5 -3.5 l-363 0 q-18 -57 -35 -112 l470 0 q8 0 15.5 -3.5 q7.5 -3.5 14 -9 q6.5 -5.5 10 -13 q3.5 -7.5 3.5 -15 q0 -7.5 -3.5 -14.5 q-3.5 -7 -10 -13 q-6.5 -6 -14 -9.5 q-7.5 -3.5 -15.5 -3.5 l-496 0 q-9 -26 -17 -50 l-19 -57 l395 0 q8 0 16 -3 q1 0 2 -1 q1 2 3 3 q4 1 9 1 q1 0 3.5 0.5 q2.5 0.5 4.5 1.5 q4 1 11 0 q7 -1 12 -4 l7 -5 q9 -4 13.5 -12 q4.5 -8 6 -17 q1.5 -9 -1.5 -18 q-3 -9 -10 -16 l-57 -57 q-30 -30 -62 -61.5 q-32 -31.5 -64 -62.5 q-22 -21 -43 -41 q15 -6 29 -12 q48 -21 87 -40 q8 -4 14 -11 q6 -7 8 -15.5 q2 -8.5 1 -17.5 q-1 -9 -7 -16 l-1 -2 q-8 -12 -25.5 -16 q-17.5 -4 -31.5 2 q-33 19 -76.5 39 q-43.5 20 -91 40 q-47.5 20 -98 38.5 q-50.5 18.5 -98.5 34.5 q-10 3 -17.5 10 q-7.5 7 -11.5 15 q-4 8 -3 17 q1 9 7 17 q5 7 17.5 11.5 q12.5 4.5 22.5 1.5 q48 -13 101 -31 q46 -16 91 -32 q3 4 7 8 q32 31 66 63.5 q34 32.5 66 63.5 l46 46 l-353 0 q-8 0 -15 3 q-6 3 -11 6 l-1 0 q-12 -9 -22 -9 l-5 0 q-11 0 -19 5 q-8 5 -13 12.5 q-5 7.5 -6.5 17.5 q-1.5 10 1.5 20 q18 50 38 109 q3 11 7 21 l-207 0 q-7 0 -15 3.5 q-8 3.5 -14.5 9.5 q-6.5 6 -10 13 q-3.5 7 -3.5 15 Z" /><glyph glyph-name="" unicode="&#x4e14;" d="M153 3 q0 8 3.5 15 q3.5 7 9.5 13 q6 6 13.5 9 q7.5 3 15.5 3 l115 0 l0 699 q0 8 3.5 15.5 q3.5 7.5 9.5 14 q6 6.5 14 10 q8 3.5 15 3.5 l509 0 q8 0 15.5 -3.5 q7.5 -3.5 14 -10 q6.5 -6.5 10 -14 q3.5 -7.5 3.5 -15.5 l0 -699 l102 0 q8 0 15.5 -3 q7.5 -3 13.5 -9 q6 -6 10 -13 q4 -7 4 -15 q0 -8 -4 -15.5 q-4 -7.5 -10 -13.5 q-6 -6 -13.5 -9 q-7.5 -3 -15.5 -3 l-811 0 q-8 0 -15.5 3 q-7.5 3 -13.5 9 q-6 6 -9.5 13.5 q-3.5 7.5 -3.5 15.5 ZM817 289 l0 175 q-7 -3 -14 -3 l-403 0 q-4 0 -7 1 l0 -171 q3 1 7 1 l403 0 q7 0 14 -3 ZM818 43 q-1 1 -1 2 l0 169 q-7 -3 -14 -3 l-403 0 q-4 0 -7 1 l0 -169 l425 0 ZM817 537 l0 161 q0 2 -1.5 3.5 q-1.5 1.5 -3.5 1.5 l-414 0 q-2 0 -3.5 -1.5 q-1.5 -1.5 -1.5 -3.5 l0 -159 l410 0 q7 0 14 -2 Z" /><glyph glyph-name="" unicode="&#x4e16;" d="M150 553 q0 7 3.5 14.5 q3.5 7.5 9.5 13.5 q6 6 14 9 q8 3 15 3 l101 0 l0 178 q0 8 4 16 q4 8 10 14 q6 6 13.5 9.5 q7.5 3.5 15.5 3.5 l3 0 q8 0 15.5 -3.5 q7.5 -3.5 13.5 -9.5 q6 -6 9.5 -14 q3.5 -8 3.5 -15 l0 -179 l173 0 l0 201 q0 8 3.5 15.5 q3.5 7.5 9.5 13.5 q6 6 13.5 9.5 q7.5 3.5 15.5 3.5 q8 0 15.5 -3.5 q7.5 -3.5 13 -9.5 q5.5 -6 9 -14 q3.5 -8 3.5 -16 l0 -200 l181 0 l0 190 q0 8 3.5 15.5 q3.5 7.5 9.5 14 q6 6.5 13.5 10 q7.5 3.5 15.5 3.5 l4 0 q8 0 15 -3.5 q7 -3.5 13 -10 q6 -6.5 9.5 -14 q3.5 -7.5 3.5 -15.5 l0 -190 l104 0 q8 0 15.5 -3 q7.5 -3 13.5 -9 q6 -6 10 -13.5 q4 -7.5 4 -15 q0 -7.5 -4 -14.5 q-4 -7 -10 -13 q-6 -6 -13.5 -9.5 q-7.5 -3.5 -15.5 -3.5 l-104 0 l0 -270 q0 -8 -3.5 -16 q-3.5 -8 -10 -14 q-6.5 -6 -14 -9.5 q-7.5 -3.5 -16.5 -3.5 l-263 0 q-8 0 -16 3.5 q-8 3.5 -14.5 9.5 q-6.5 6 -10 14 q-3.5 8 -3.5 15 l0 271 l-173 0 l0 -443 q0 -2 1.5 -4 q1.5 -2 3.5 -2 l595 0 q8 0 15.5 -3.5 q7.5 -3.5 14 -9.5 q6.5 -6 10 -13 q3.5 -7 3.5 -14.5 q0 -7.5 -3.5 -15 q-3.5 -7.5 -10 -13.5 q-6.5 -6 -14 -9.5 q-7.5 -3.5 -15.5 -3.5 l-644 0 q-8 0 -16 3.5 q-8 3.5 -14 9.5 q-6 6 -10 14 q-4 8 -4 17 l0 487 l-101 0 q-7 0 -15 3.5 q-8 3.5 -14 9.5 q-6 6 -9.5 13 q-3.5 7 -3.5 15 ZM637 512 l0 -229 q0 -3 2 -5 q2 -2 5 -2 l168 0 q2 0 4 2 q2 2 2 5 l0 229 l-181 0 Z" /><glyph glyph-name="" unicode="&#x4e1a;" d="M158 11 q0 8 3.5 15 q3.5 7 9.5 13.5 q6 6.5 14 9.5 q8 3 17 3 l234 0 q-1 5 -1 10 l0 725 q0 8 3 15.5 q3 7.5 9.5 14 q6.5 6.5 13.5 10 q7 3.5 16 3.5 l1 0 q9 0 16 -3.5 q7 -3.5 13 -10 q6 -6.5 9.5 -14 q3.5 -7.5 3.5 -15.5 l0 -725 q0 -5 -1 -10 l163 0 l0 733 q0 9 3 16.5 q3 7.5 9.5 14 q6.5 6.5 14 10 q7.5 3.5 15.5 3.5 l2 0 q8 0 15 -3.5 q7 -3.5 13 -10 q6 -6.5 9.5 -14 q3.5 -7.5 3.5 -16.5 l0 -733 l234 0 q8 0 16 -3 q8 -3 14 -9.5 q6 -6.5 9.5 -13.5 q3.5 -7 3.5 -15 q0 -8 -3.5 -15.5 q-3.5 -7.5 -9.5 -13.5 q-6 -6 -14 -9.5 q-8 -3.5 -16 -3.5 l-799 0 q-9 0 -17 3.5 q-8 3.5 -14 9.5 q-6 6 -9.5 13.5 q-3.5 7.5 -3.5 15.5 ZM195 550 q-3 8 -2.5 16.5 q0.5 8.5 4 16.5 q3.5 8 10 14 q6.5 6 13.5 9 q14 3 29.5 -4.5 q15.5 -7.5 21.5 -22.5 q15 -34 31 -70.5 q16 -36.5 31 -73 q15 -36.5 28.5 -70.5 q13.5 -34 22.5 -63 q2 -7 1.5 -15 q-0.5 -8 -4.5 -15 q-4 -7 -9.5 -12.5 q-5.5 -5.5 -11.5 -8.5 l-3 -1 q-8 -3 -17.5 -1.5 q-9.5 1.5 -17.5 5.5 q-8 4 -14 11 q-6 7 -8 16 q-9 28 -21 61.5 q-12 33.5 -25.5 68.5 q-13.5 35 -28.5 70.5 q-15 35.5 -30 68.5 ZM934 565 q4 9 10.5 16 q6.5 7 14.5 11 q8 4 17 4 q9 0 17 -3 q6 -3 10.5 -9 q4.5 -6 7.5 -13.5 q3 -7.5 3.5 -15.5 q0.5 -8 -2.5 -15 q-16 -34 -32.5 -70.5 q-16.5 -36.5 -34 -72.5 q-17.5 -36 -35 -69.5 q-17.5 -33.5 -34.5 -63.5 q-4 -7 -10.5 -12.5 q-6.5 -5.5 -14 -8 q-7.5 -2.5 -15 -3 q-7.5 -0.5 -14.5 2.5 q-6 4 -10.5 10.5 q-4.5 6.5 -7 15 q-2.5 8.5 -2 17 q0.5 8.5 4.5 15.5 q17 29 34 61.5 q17 32.5 33.5 67 q16.5 34.5 32 69 q15.5 34.5 27.5 66.5 Z" /><glyph glyph-name="" unicode="&#x4e1c;" d="M347 335 q-14 -1 -26.5 1.5 q-12.5 2.5 -22.5 6.5 q-5 3 -9 5 q-1 1 -3 1 q-9 2 -16 7 q-7 5 -10 14 q-3 7 -1.5 16 q1.5 9 5.5 18 q4 9 10 18 q6 9 12 16 q4 4 5.5 6 q1.5 2 4.5 5.5 q3 3.5 8.5 11.5 q5.5 8 16.5 25 q12 15 32.5 47 q20.5 32 45.5 75 l12 22 l-192 0 q-7 0 -15 3.5 q-8 3.5 -14.5 9.5 q-6.5 6 -10 13 q-3.5 7 -3.5 14.5 q0 7.5 3.5 15 q3.5 7.5 10 13 q6.5 5.5 14.5 8.5 q8 3 15 3 l235 0 q25 48 46 99 q3 7 9.5 13 q6.5 6 14.5 9 q8 3 16 3.5 q8 0.5 16 -2.5 l9 -3 q9 -3 14 -9.5 q5 -6.5 8.5 -14.5 q3.5 -8 3.5 -16.5 q0 -8.5 -5 -16.5 q-14 -31 -30 -62 l420 0 q9 0 16.5 -3 q7.5 -3 13.5 -8.5 q6 -5.5 10 -13 q4 -7.5 4 -15 q0 -7.5 -4 -14.5 q-4 -7 -10 -13 q-6 -6 -13.5 -9.5 q-7.5 -3.5 -16.5 -3.5 l-464 0 q-20 -36 -41 -70 q-30 -51 -62 -97 q-16 -23 -32 -45 l227 0 l0 99 q0 9 3.5 16.5 q3.5 7.5 9.5 14 q6 6.5 13.5 10 q7.5 3.5 14.5 3.5 l2 0 q8 0 15.5 -3.5 q7.5 -3.5 13.5 -9.5 q6 -6 9.5 -14 q3.5 -8 3.5 -16 l0 -100 l244 0 q8 0 16 -3.5 q8 -3.5 14 -9.5 q6 -6 9.5 -13 q3.5 -7 3.5 -15 q0 -8 -3.5 -15 q-3.5 -7 -9.5 -13 q-6 -6 -14 -9 q-8 -3 -16 -3 l-244 0 l0 -308 q0 -36 -9 -56 q-9 -20 -35 -30 q-20 -9 -50 -12 q-30 -3 -71 -4 q-13 -1 -26.5 8.5 q-13.5 9.5 -17.5 21.5 q-7 22 5 38.5 q12 16.5 36 16.5 q23 0 36.5 -0.5 q13.5 -0.5 26.5 0.5 q12 1 16 4.5 q4 3.5 4 14.5 l0 306 l-219 0 q-14 0 -23 -0.5 q-9 -0.5 -15 -1.5 ZM336 226 q7 13 23 21 q16 8 29 5 l2 -1 q9 -3 15.5 -9 q6.5 -6 10 -14 q3.5 -8 3.5 -17 q0 -9 -4 -17 q-30 -58 -68.5 -111.5 q-38.5 -53.5 -79.5 -95.5 q-5 -6 -12 -9 q-7 -3 -15 -4 q-8 -1 -15.5 0.5 q-7.5 1.5 -12.5 6.5 q-16 13 -16 34 q0 21 14 38 q37 36 69.5 80.5 q32.5 44.5 56.5 92.5 ZM801 186 q-6 8 -8.5 17 q-2.5 9 -1.5 18 q1 9 5.5 16.5 q4.5 7.5 13.5 11.5 q10 5 24 2 q14 -3 22 -11 q23 -23 46 -47.5 q23 -24.5 44 -49.5 q21 -25 40.5 -49 q19.5 -24 34.5 -45 q5 -7 5.5 -15.5 q0.5 -8.5 -1 -16.5 q-1.5 -8 -6.5 -14.5 q-5 -6.5 -12 -10.5 l-1 -1 q-7 -4 -15.5 -4 q-8.5 0 -17 2.5 q-8.5 2.5 -15.5 7.5 q-7 5 -12 12 q-13 20 -29.5 42 q-16.5 22 -35.5 45 q-19 23 -39.5 46 q-20.5 23 -40.5 44 Z" /><glyph glyph-name="" unicode="&#x4e1d;" d="M679 417 q-12 -1 -22.5 1.5 q-10.5 2.5 -18.5 6.5 q-4 2 -7 4 q-1 0 -3 1 q-16 3 -21 18 q-3 7 -1.5 15 q1.5 8 5 17.5 q3.5 9.5 9 18.5 q5.5 9 11.5 17 q3 2 4 3 l2 2 q2 2 5.5 7.5 q3.5 5.5 12.5 18.5 q9 11 24.5 36 q15.5 25 34.5 58.5 q19 33.5 40 73.5 q21 40 38 82 q3 7 9.5 13.5 q6.5 6.5 14.5 11 q8 4.5 16.5 5 q8.5 0.5 16 -2.5 q7.5 -3 13 -9.5 q5.5 -6.5 8 -14 q2.5 -7.5 2.5 -16 q0 -8.5 -4 -16.5 q-43 -87 -92 -168 q-35 -57 -71 -105 l114 5 q12 0 22 -4 q7 -3 12 -7 q7 10 14 21 q37 51 69 105 q5 7 11.5 12 q6.5 5 14.5 8 q8 3 16.5 2.5 q8.5 -0.5 15.5 -4.5 q7 -3 12 -10.5 q5 -7.5 6.5 -15.5 q1.5 -8 1 -16.5 q-0.5 -8.5 -5.5 -15.5 q-74 -111 -156 -209 q-58 -69 -116 -127 l231 11 q9 0 18 -3 q9 -3 16 -9 q7 -6 10.5 -13 q3.5 -7 2.5 -16 q-1 -12 -13.5 -22.5 q-12.5 -10.5 -27.5 -12.5 q-64 -3 -111 -5.5 q-47 -2.5 -81 -5 q-34 -2.5 -56.5 -4 q-22.5 -1.5 -37.5 -3.5 q-11 -1 -21 1 q-10 2 -18 7 l-4 2 q-3 0 -6 1 q-16 3 -21 18 q-3 7 -1.5 15.5 q1.5 8.5 6 17 q4.5 8.5 11 17 q6.5 8.5 13.5 14.5 l8 6 q2 2 6.5 6 q4.5 4 12 11.5 q7.5 7.5 21.5 23.5 q15 14 42 45 q27 31 61 74 q5 6 9 12 q-49 -3 -77 -5 q-33 -3 -50 -5 ZM265 412 q-10 -1 -21 1 q-11 2 -19 7 q-5 2 -8 6 l-2 0 q-17 2 -22 18 q-2 7 -1 15 q1 8 5 17 q4 9 9.5 18 q5.5 9 11.5 16 q2 4 2.5 4 q0.5 0 2.5 2 q2 2 5.5 7.5 q3.5 5.5 12.5 19.5 q8 11 23.5 36 q15.5 25 34.5 59.5 q19 34.5 39 75 q20 40.5 37 82.5 q3 8 9 14.5 q6 6.5 14 10.5 q8 4 16.5 4.5 q8.5 0.5 15.5 -2.5 q8 -2 13.5 -8.5 q5.5 -6.5 8 -14 q2.5 -7.5 3 -16 q0.5 -8.5 -3.5 -15.5 q-41 -89 -90 -172 q-35 -59 -70 -108 l116 5 q12 0 21 -3 q2 -1 3 -1 q8 11 16 23 q35 52 66 107 q3 7 10.5 12.5 q7.5 5.5 15.5 8 q8 2.5 16.5 2.5 q8.5 0 15.5 -3 q7 -4 11.5 -11 q4.5 -7 6.5 -15 q2 -8 1.5 -16.5 q-0.5 -8.5 -5.5 -15.5 q-70 -112 -149 -214 q-57 -73 -114 -133 l202 11 q9 0 18 -3 q9 -3 15.5 -8.5 q6.5 -5.5 10 -12.5 q3.5 -7 3.5 -15 q-2 -13 -15 -24 q-13 -11 -29 -12 q-55 -4 -96 -7 q-41 -3 -70.5 -5.5 q-29.5 -2.5 -49.5 -4 q-20 -1.5 -34 -3.5 q-11 -1 -21.5 1 q-10.5 2 -18.5 7 l-6 4 l-3 0 q-17 4 -22 19 q-2 7 -0.5 15 q1.5 8 5.5 16.5 q4 8.5 10.5 16.5 q6.5 8 13.5 16 l8 6 l6 6 q4 4 11 11.5 q7 7.5 20 23.5 q14 15 40.5 47 q26.5 32 59.5 76 q1 3 3 5 q-42 -3 -67 -4 q-33 -3 -51 -5 ZM151 14 q0 7 3.5 14 q3.5 7 9.5 13 q6 6 14 9 q8 3 15 3 l812 0 q8 0 15.5 -3 q7.5 -3 13.5 -9 q6 -6 10 -13 q4 -7 4 -14 q0 -8 -4 -15 q-4 -7 -10 -12.5 q-6 -5.5 -13.5 -8.5 q-7.5 -3 -15.5 -3 l-812 0 q-7 0 -15 3 q-8 3 -14 8.5 q-6 5.5 -9.5 12.5 q-3.5 7 -3.5 15 Z" /><glyph glyph-name="" unicode="&#x4e22;" d="M239 550 q0 8 4 15 q4 7 10 12.5 q6 5.5 14 9 q8 3.5 16 3.5 l274 0 l0 117 q-60 -4 -121 -8 q-86 -5 -167 -7 q-15 -1 -28.5 8.5 q-13.5 9.5 -16.5 21.5 q-5 18 8.5 32.5 q13.5 14.5 35.5 15.5 q83 3 169 8.5 q86 5.5 168 13.5 q82 8 155.5 17.5 q73.5 9.5 130.5 22.5 q9 2 20.5 -2 q11.5 -4 16.5 -11 l7 -7 q8 -9 10 -18.5 q2 -9.5 -1 -18.5 q-3 -9 -10 -15 q-7 -6 -19 -8 q-66 -13 -145 -23 q-63 -8 -129 -14 q1 -4 1 -8 l0 -117 l275 0 q9 0 16.5 -3.5 q7.5 -3.5 13.5 -9 q6 -5.5 10 -12.5 q4 -7 4 -14.5 q0 -7.5 -4 -15 q-4 -7.5 -10 -13 q-6 -5.5 -13.5 -9 q-7.5 -3.5 -16.5 -3.5 l-275 0 l0 -116 q0 -5 -1 -9 l358 0 q8 0 15.5 -3.5 q7.5 -3.5 13.5 -9 q6 -5.5 10 -12.5 q4 -7 4 -15 q0 -7 -4 -14 q-4 -7 -10 -12.5 q-6 -5.5 -13.5 -9 q-7.5 -3.5 -15.5 -3.5 l-465 0 l6 -6 q7 -8 9 -17 q2 -9 -0.5 -18 q-2.5 -9 -9.5 -17 q-56 -69 -113 -131 q-28 -30 -55 -57 l465 32 q-12 17 -25 33 q-22 29 -44 55 q-7 8 -9 18 q-2 10 0 19.5 q2 9.5 8 16.5 q6 7 16 11 l0 1 q10 4 24 0.5 q14 -3.5 20 -11.5 q25 -28 50 -58 q25 -30 48.5 -61 q23.5 -31 44 -61 q20.5 -30 35.5 -57 q4 -7 4 -15.5 q0 -8.5 -2.5 -16.5 q-2.5 -8 -8 -14.5 q-5.5 -6.5 -13.5 -9.5 l-4 -2 q-7 -4 -16 -3.5 q-9 0.5 -17 4 q-8 3.5 -15 9 q-7 5.5 -11 12.5 q-13 24 -30 51 q-6 9 -12 17 q-5 -4 -11 -7 q-8 -4 -18 -5 q-138 -11 -232.5 -18.5 q-94.5 -7.5 -158.5 -12.5 q-64 -5 -101 -8.5 q-37 -3.5 -59 -7.5 q-11 -1 -21 1 q-10 2 -18 6 q-6 3 -10 8 q-7 2 -12 6 q-7 5 -10 13 q-2 7 0 15.5 q2 8.5 6.5 16.5 q4.5 8 11.5 15.5 q7 7.5 15 13.5 q4 2 4.5 3 q0.5 1 2.5 3 l6 6 q5 5 16 15 q11 9 31 29 q20 20 44.5 47.5 q24.5 27.5 51.5 60.5 q27 33 51 68 q3 4 8 8 l-276 0 q-8 0 -15.5 3.5 q-7.5 3.5 -13.5 9 q-6 5.5 -10 12.5 q-4 7 -4 14 q0 8 4 15 q4 7 10 12.5 q6 5.5 13.5 9 q7.5 3.5 15.5 3.5 l358 0 q-1 4 -1 9 l0 116 l-274 0 q-8 0 -16 3.5 q-8 3.5 -14 9 q-6 5.5 -10 13 q-4 7.5 -4 14.5 Z" /><glyph glyph-name="" unicode="&#x4e24;" d="M159 733 q0 8 3.5 15 q3.5 7 10 13 q6.5 6 14 9 q7.5 3 15.5 3 l798 0 q8 0 15.5 -3 q7.5 -3 13.5 -9 q6 -6 10 -13 q4 -7 4 -15 q0 -8 -4 -15 q-4 -7 -10 -12.5 q-6 -5.5 -13.5 -9.5 q-7.5 -4 -15.5 -4 l-237 0 q3 -8 3 -16 l0 -115 l196 0 q7 0 15 -3 l8 -6 q2 -1 4 -3 q6 -5 9.5 -12 q3.5 -7 3.5 -15 l0 -501 q0 -37 -10 -58 q-10 -21 -38 -32 q-23 -7 -60.5 -10 q-37.5 -3 -91.5 -3 q-13 -1 -26 8.5 q-13 9.5 -16 20.5 q-7 22 6 37.5 q13 15.5 37 15.5 q34 -1 55 -1 q21 0 36 1 q14 0 19 5 q5 5 5 17 l0 460 l-153 0 q-1 -23 -3 -47 q-2 -26 -6 -52 q7 -3 12 -9 q19 -20 37 -43 q18 -23 34.5 -45.5 q16.5 -22.5 31.5 -43.5 q15 -21 27 -39 q6 -9 6 -23 q0 -14 -6 -21 q-6 -9 -15 -12.5 q-9 -3.5 -18.5 -3 q-9.5 0.5 -18.5 5.5 q-9 5 -16 14 q-11 17 -24.5 37 q-13.5 20 -28.5 41 q-15 21 -31 42 q-4 5 -9 11 q-12 -45 -32 -90 q-26 -59 -70 -111 q-6 -8 -13.5 -12 q-7.5 -4 -16 -5 q-8.5 -1 -16.5 1.5 q-8 2.5 -13 7.5 q-12 12 -10.5 33 q1.5 21 12.5 37 q37 46 58 95 q21 49 32 98.5 q11 49.5 13 97.5 q1 19 2 36 l-173 0 q-1 -23 -2 -47 q-2 -26 -6 -53 q5 -2 9 -7 q22 -27 42.5 -56 q20.5 -29 34.5 -52 q6 -8 6 -21.5 q0 -13.5 -6 -20.5 q-7 -9 -15.5 -13 q-8.5 -4 -18 -3.5 q-9.5 0.5 -19 5.5 q-9.5 5 -16.5 14 q-12 21 -29 46 q-4 7 -9 14 q-12 -42 -31 -84 q-25 -59 -69 -111 q-6 -8 -14 -12 q-8 -4 -16 -5 q-8 -1 -16 1.5 q-8 2.5 -13 7.5 q-12 12 -10.5 33 q1.5 21 11.5 37 q37 46 58.5 95 q21.5 49 32 98.5 q10.5 49.5 13.5 97.5 q1 19 1 36 l-139 0 q-2 0 -4 -2 q-2 -2 -2 -4 l0 -515 q0 -9 -3.5 -16.5 q-3.5 -7.5 -9.5 -13.5 q-6 -6 -13 -10 q-7 -4 -15 -4 l-1 0 q-8 0 -15 4 q-7 4 -13.5 10 q-6.5 6 -10 13.5 q-3.5 7.5 -3.5 16.5 l0 557 q0 8 4 16 q4 8 10 14 q6 6 13.5 9.5 q7.5 3.5 15.5 3.5 l187 0 l0 115 q0 8 4 16 l-231 0 q-8 0 -15.5 4 q-7.5 4 -14 9.5 q-6.5 5.5 -10 12.5 q-3.5 7 -3.5 15 ZM684 676 q0 8 3 16 l-179 0 q4 -8 4 -16 l0 -115 l172 0 l0 115 Z" /><glyph glyph-name="" unicode="&#x4e25;" d="M203 751 q0 7 3.5 13.5 q3.5 6.5 9.5 11.5 q6 5 14 8.5 q8 3.5 16 3.5 l717 0 q8 0 16 -3.5 q8 -3.5 14 -8.5 q6 -5 9.5 -11.5 q3.5 -6.5 3.5 -14 q0 -7.5 -3.5 -14 q-3.5 -6.5 -9.5 -11.5 q-6 -5 -14 -8 q-8 -3 -16 -3 l-219 0 l0 -242 q0 -6 -1 -12 l250 0 q17 0 30.5 -11.5 q13.5 -11.5 13.5 -25.5 q0 -7 -3.5 -13.5 q-3.5 -6.5 -10 -12 q-6.5 -5.5 -14 -9 q-7.5 -3.5 -16.5 -3.5 l-700 0 l0 -87 q0 -36 -3 -78.5 q-3 -42.5 -11 -86 q-8 -43.5 -22.5 -87 q-14.5 -43.5 -37.5 -82.5 q-4 -9 -12 -14.5 q-8 -5.5 -16.5 -7 q-8.5 -1.5 -17 0.5 q-8.5 2 -15.5 8 q-12 10 -14 29.5 q-2 19.5 6 35.5 q20 33 32 68.5 q12 35.5 18 70.5 q6 35 8 71.5 q2 36.5 2 72.5 l0 118 q0 8 3.5 15.5 q3.5 7.5 9.5 14 q6 6.5 13.5 10 q7.5 3.5 15.5 3.5 q7 0 13 -3 q8 3 17 3 l174 0 q-2 6 -2 13 l0 241 l-208 0 q-8 0 -16 3 q-8 3 -14 8 q-6 5 -9.5 11.5 q-3.5 6.5 -3.5 14.5 ZM663 460 q-2 6 -2 12 l0 242 l-125 0 l0 -241 q0 -7 -2 -13 l129 0 ZM863 647 q3 8 9 14.5 q6 6.5 13.5 11 q7.5 4.5 15.5 6 q8 1.5 16 -0.5 q9 -3 15 -9.5 q6 -6.5 9.5 -15 q3.5 -8.5 3.5 -17.5 q0 -9 -5 -17 q-17 -29 -35.5 -60 q-18.5 -31 -35.5 -55 q-7 -10 -20.5 -16 q-13.5 -6 -23.5 -2 q-8 3 -13.5 9 q-5.5 6 -8 14.5 q-2.5 8.5 -2.5 17.5 q0 9 4 18 q15 22 30.5 49.5 q15.5 27.5 27.5 52.5 ZM266 618 q-4 9 -4.5 18 q-0.5 9 2.5 17.5 q3 8.5 8.5 15 q5.5 6.5 13.5 8.5 q11 4 25.5 -2 q14.5 -6 20.5 -18 q18 -27 34 -58 q16 -31 25 -57 q5 -14 -2 -28.5 q-7 -14.5 -19 -19.5 q-9 -2 -17.5 -1 q-8.5 1 -16 6 q-7.5 5 -14 12.5 q-6.5 7.5 -9.5 16.5 q-8 20 -20 44 q-12 24 -27 46 Z" /><glyph glyph-name="" unicode="&#x4e2a;" d="M583 811 q5 6 11.5 10 q6.5 4 14.5 6.5 q8 2.5 15.5 2.5 q7.5 0 13.5 -3 l1 0 q8 -3 13 -10.5 q5 -7.5 7 -15.5 q2 -8 1 -17 q-1 -9 -6 -16 q-1 -2 -3 -4 l2 -2 q79 -94 168 -162.5 q89 -68.5 191 -122.5 q22 -11 27 -31 q5 -20 -9 -38 q-4 -7 -11 -11 q-7 -4 -15 -6 q-8 -2 -16.5 -1.5 q-8.5 0.5 -15.5 4.5 q-104 57 -197 132 q-88 71 -172 172 q-17 -21 -35 -42 q-48 -54 -102.5 -101.5 q-54.5 -47.5 -114 -88.5 q-59.5 -41 -121.5 -73 q-7 -3 -14.5 -3.5 q-7.5 -0.5 -15.5 1.5 q-8 2 -14.5 6.5 q-6.5 4.5 -11.5 9.5 l0 1 l-2 2 q-13 18 -8 38 q5 20 27 30 q58 29 114 65.5 q56 36.5 106 79 q50 42.5 94 90.5 q44 48 78 98 ZM556 499 q0 8 3.5 15.5 q3.5 7.5 9 13.5 q5.5 6 13 10 q7.5 4 15.5 4 l4 0 q8 0 15.5 -4 q7.5 -4 13.5 -10 q6 -6 9.5 -13.5 q3.5 -7.5 3.5 -15.5 l0 -538 q0 -7 -3.5 -15 q-3.5 -8 -9.5 -14 q-6 -6 -13.5 -9.5 q-7.5 -3.5 -15.5 -3.5 l-4 0 q-8 0 -15.5 3.5 q-7.5 3.5 -13 9.5 q-5.5 6 -9 14 q-3.5 8 -3.5 15 l0 538 Z" /><glyph glyph-name="" unicode="&#x4e2d;" d="M195 622 q0 8 3.5 15.5 q3.5 7.5 9.5 13.5 q6 6 14 9.5 q8 3.5 16 3.5 l316 0 l0 135 q0 8 3.5 16 q3.5 8 9.5 14 q6 6 13 9.5 q7 3.5 15 3.5 l5 0 q8 0 15 -3.5 q7 -3.5 13.5 -9.5 q6.5 -6 9.5 -14 q3 -8 3 -16 l0 -135 l320 0 q8 0 16 -3.5 q8 -3.5 14 -9.5 q6 -6 9.5 -13.5 q3.5 -7.5 3.5 -15.5 l0 -392 q0 -8 -3 -15.5 q-3 -7.5 -9 -13.5 q-6 -6 -13 -10 q-7 -4 -16 -4 l-4 0 q-7 0 -14.5 4 q-7.5 4 -14 10 q-6.5 6 -9.5 14 q-3 8 -3 16 l0 13 l-277 0 l0 -281 q0 -9 -3 -16.5 q-3 -7.5 -9.5 -13.5 q-6.5 -6 -13.5 -10 q-7 -4 -15 -4 l-5 0 q-8 0 -15 4 q-7 4 -13 10 q-6 6 -9.5 13.5 q-3.5 7.5 -3.5 16.5 l0 281 l-276 0 l0 -18 q0 -8 -3 -16 q-3 -8 -9 -14 q-6 -6 -13.5 -10 q-7.5 -4 -15.5 -4 l-1 0 q-7 0 -14.5 4 q-7.5 4 -14 10 q-6.5 6 -9.5 13.5 q-3 7.5 -3 15.5 l0 397 ZM641 582 l0 -256 l277 0 l0 250 q0 2 -2 4 q-2 2 -4 2 l-271 0 ZM554 326 l0 256 l-270 0 q-2 0 -4 -2 q-2 -2 -2 -4 l0 -250 l276 0 Z" /><glyph glyph-name="" unicode="&#x4e30;" d="M238 433 q0 8 4 15 q4 7 10 13 q6 6 14 9.5 q8 3.5 16 3.5 l273 0 l0 139 l-323 0 q-8 0 -16 3.5 q-8 3.5 -14.5 9.5 q-6.5 6 -10 13.5 q-3.5 7.5 -3.5 15.5 q0 8 3.5 15.5 q3.5 7.5 10 13.5 q6.5 6 14.5 9 q8 3 16 3 l323 0 l0 103 q0 9 3.5 16.5 q3.5 7.5 9 13.5 q5.5 6 13 10 q7.5 4 15.5 4 l7 0 q7 0 14.5 -4 q7.5 -4 13.5 -10 q6 -6 9.5 -13.5 q3.5 -7.5 3.5 -16.5 l0 -103 l322 0 q9 0 16.5 -3 q7.5 -3 14 -9 q6.5 -6 10 -13.5 q3.5 -7.5 3.5 -15.5 q0 -8 -3.5 -15.5 q-3.5 -7.5 -10 -13.5 q-6.5 -6 -14 -9.5 q-7.5 -3.5 -16.5 -3.5 l-322 0 l0 -139 l277 0 q8 0 16 -3.5 q8 -3.5 14 -9.5 q6 -6 9.5 -13 q3.5 -7 3.5 -14.5 q0 -7.5 -3.5 -15 q-3.5 -7.5 -9.5 -13 q-6 -5.5 -14 -9 q-8 -3.5 -16 -3.5 l-277 0 l0 -152 l363 0 q8 0 15.5 -3.5 q7.5 -3.5 13.5 -10 q6 -6.5 9.5 -13.5 q3.5 -7 3.5 -15 l0 -1 q0 -8 -3.5 -15 q-3.5 -7 -9.5 -13 q-6 -6 -13.5 -10 q-7.5 -4 -15.5 -4 l-363 0 l0 -193 q0 -8 -3.5 -15.5 q-3.5 -7.5 -9.5 -14 q-6 -6.5 -13.5 -10 q-7.5 -3.5 -14.5 -3.5 l-7 0 q-8 0 -15.5 3.5 q-7.5 3.5 -13 10 q-5.5 6.5 -9 14 q-3.5 7.5 -3.5 15.5 l0 193 l-361 0 q-7 0 -15 4 q-8 4 -14 10 q-6 6 -9.5 13 q-3.5 7 -3.5 15 l0 1 q0 8 3.5 15 q3.5 7 9.5 13.5 q6 6.5 14 10 q8 3.5 15 3.5 l361 0 l0 152 l-273 0 q-8 0 -16 3.5 q-8 3.5 -14 9 q-6 5.5 -10 13 q-4 7.5 -4 14.5 Z" /><glyph glyph-name="" unicode="&#x4e32;" d="M552 799 q0 8 3.5 15.5 q3.5 7.5 9.5 14 q6 6.5 13.5 10 q7.5 3.5 15.5 3.5 l6 0 q8 0 15.5 -3.5 q7.5 -3.5 13.5 -10 q6 -6.5 9.5 -14 q3.5 -7.5 3.5 -15.5 l0 -72 l273 0 q9 0 16.5 -3.5 q7.5 -3.5 13.5 -9.5 q6 -6 10 -14 q4 -8 4 -15 l0 -193 q0 -8 -4 -15.5 q-4 -7.5 -10 -13.5 q-6 -6 -13.5 -9.5 q-7.5 -3.5 -16.5 -3.5 l-273 0 l0 -79 l318 0 q8 0 16 -4 q8 -4 14 -10 q6 -6 9.5 -13.5 q3.5 -7.5 3.5 -16.5 l0 -242 q0 -8 -3 -16 q-3 -8 -9 -14 q-6 -6 -13.5 -9.5 q-7.5 -3.5 -15.5 -3.5 l-7 0 q-8 0 -15.5 3.5 q-7.5 3.5 -13.5 9.5 q-6 6 -10 14 q-2 7 -3 13 l-271 0 l0 -120 q0 -8 -3.5 -15.5 q-3.5 -7.5 -9.5 -14 q-6 -6.5 -13.5 -10 q-7.5 -3.5 -15.5 -3.5 l-6 0 q-8 0 -15.5 3.5 q-7.5 3.5 -13.5 10 q-6 6.5 -9.5 14 q-3.5 7.5 -3.5 15.5 l0 120 l-254 0 q-5 0 -9 1 q-1 -8 -4 -15 q-3 -8 -9 -14.5 q-6 -6.5 -13 -10 q-7 -3.5 -15 -3.5 l-5 0 q-7 0 -14.5 3.5 q-7.5 3.5 -13.5 10 q-6 6.5 -9.5 14.5 q-3.5 8 -3.5 16 l0 243 q0 9 3.5 16.5 q3.5 7.5 10 13.5 q6.5 6 14.5 10 q8 4 15 4 l307 0 l0 79 l-266 0 q-8 0 -16 3.5 q-8 3.5 -14.5 9.5 q-6.5 6 -10 13.5 q-3.5 7.5 -3.5 15.5 l0 193 q0 7 3.5 15 q3.5 8 10 14 q6.5 6 14.5 9.5 q8 3.5 16 3.5 l266 0 l0 72 ZM642 293 l0 -136 l264 0 q4 0 7 -1 l0 131 q0 2 -2 4 q-2 2 -4 2 l-265 0 ZM552 157 l0 136 l-257 0 q-2 0 -4 -2 q-2 -2 -2 -4 l0 -131 q4 1 9 1 l254 0 ZM642 652 l0 -129 l220 0 q2 0 4 2 q2 2 2 4 l0 117 q0 2 -2 4 q-2 2 -4 2 l-220 0 ZM334 652 q-3 0 -5 -2 q-2 -2 -2 -4 l0 -117 q0 -2 2 -4 q2 -2 5 -2 l218 0 l0 129 l-218 0 Z" /><glyph glyph-name="" unicode="&#x4e34;" d="M526 336 q0 8 3.5 15.5 q3.5 7.5 10 13.5 q6.5 6 14.5 9.5 q8 3.5 16 3.5 l413 0 q9 0 17 -3.5 q8 -3.5 14 -9.5 q6 -6 9.5 -13.5 q3.5 -7.5 3.5 -15.5 l0 -370 q0 -8 -3.5 -15.5 q-3.5 -7.5 -9.5 -13.5 q-6 -6 -13 -10 q-7 -4 -15 -4 l-1 0 q-8 0 -15.5 4 q-7.5 4 -13.5 10 q-6 6 -9.5 13.5 q-3.5 7.5 -3.5 16.5 l0 4 l-336 0 l0 -9 q0 -8 -3.5 -15.5 q-3.5 -7.5 -9 -14 q-5.5 -6.5 -12.5 -10 q-7 -3.5 -14.5 -3.5 q-7.5 0 -15 3.5 q-7.5 3.5 -13.5 10 q-6 6.5 -9.5 13.5 q-3.5 7 -3.5 16 l0 374 ZM348 787 q0 8 3.5 15.5 q3.5 7.5 9.5 13.5 q6 6 13.5 10 q7.5 4 15.5 4 q8 0 15 -4 q7 -4 13 -10 q6 -6 9.5 -13.5 q3.5 -7.5 3.5 -15.5 l0 -818 q0 -8 -3.5 -15.5 q-3.5 -7.5 -9.5 -13.5 q-6 -6 -13 -9.5 q-7 -3.5 -15 -3.5 q-8 0 -15.5 3.5 q-7.5 3.5 -13.5 9.5 q-6 6 -9.5 13.5 q-3.5 7.5 -3.5 15.5 l0 818 ZM614 806 q2 8 7.5 14.5 q5.5 6.5 12.5 11 q7 4.5 15 6.5 q8 2 15 1 q8 -2 15 -7 q7 -5 11.5 -12 q4.5 -7 6 -16 q1.5 -9 -0.5 -17 l-20 -60 l334 0 q8 0 15.5 -3.5 q7.5 -3.5 14 -9.5 q6.5 -6 10 -13 q3.5 -7 3.5 -14.5 q0 -7.5 -3.5 -15 q-3.5 -7.5 -10 -13 q-6.5 -5.5 -14 -9 q-7.5 -3.5 -15.5 -3.5 l-355 0 q-6 0 -12 1 q-6 -14 -13 -28 q-38 -79 -83 -139 q-5 -7 -12 -11 q-7 -4 -15 -5.5 q-8 -1.5 -16 -0.5 q-8 1 -13 4 q-16 11 -18 31.5 q-2 20.5 11 38.5 q42 55 75 124 q33 69 55 145 ZM181 680 q0 8 3.5 15.5 q3.5 7.5 9 14 q5.5 6.5 12.5 10 q7 3.5 15 3.5 q7 0 14 -3.5 q7 -3.5 12.5 -10 q5.5 -6.5 8.5 -14 q3 -7.5 3 -15.5 l0 -591 q0 -7 -3 -15 q-3 -8 -8.5 -14 q-5.5 -6 -12.5 -9.5 q-7 -3.5 -14 -3.5 q-8 0 -15 3.5 q-7 3.5 -12.5 9.5 q-5.5 6 -9 14 q-3.5 8 -3.5 15 l0 591 ZM738 287 q0 5 2 11 l-126 0 q-3 0 -5 -1.5 q-2 -1.5 -2 -4.5 l0 -243 l133 0 q-2 6 -2 13 l0 225 ZM813 49 l130 0 l0 244 q0 2 -2 3.5 q-2 1.5 -5 1.5 l-122 0 q1 -6 1 -11 l0 -225 q0 -7 -2 -13 ZM721 533 q-7 7 -11 15 q-4 8 -5 17 q-1 9 1.5 17 q2.5 8 8.5 14 q8 7 23.5 7.5 q15.5 0.5 25.5 -7.5 q31 -23 61 -49.5 q30 -26.5 53 -48.5 q6 -4 9.5 -11.5 q3.5 -7.5 4 -15.5 q0.5 -8 -1.5 -16 q-2 -8 -7.5 -13.5 q-5.5 -5.5 -13.5 -8.5 q-8 -3 -16.5 -3 q-8.5 0 -17 3 q-8.5 3 -14.5 9 q-20 20 -47 44.5 q-27 24.5 -53 46.5 Z" /><glyph glyph-name="" unicode="&#x4e3a;" d="M180 562 q0 8 3.5 15 q3.5 7 10 13 q6.5 6 14.5 9.5 q8 3.5 16 3.5 l278 0 q4 60 4 115 l0 79 q0 8 3.5 16 q3.5 8 9.5 14 q6 6 13.5 9.5 q7.5 3.5 14.5 3.5 l2 0 q8 0 15.5 -3.5 q7.5 -3.5 13.5 -9.5 q6 -6 9.5 -14 q3.5 -8 3.5 -16 l0 -79 q0 -54 -4 -115 l373 0 q8 0 16 -3.5 q8 -3.5 14 -9.5 q6 -6 9.5 -13 q3.5 -7 3.5 -15 l0 -2 q0 -5 -1 -9 q-5 -145 -11 -246 q-6 -103 -13.5 -171 q-7.5 -68 -18 -105.5 q-10.5 -37.5 -25.5 -55.5 q-18 -22 -38 -31 q-20 -9 -48 -12 q-21 -2 -53 -2 q-32 0 -68 2 q-15 0 -28.5 10.5 q-13.5 10.5 -16.5 22.5 q-6 22 7 37.5 q13 15.5 39 14.5 q14 -1 25.5 -2 q11.5 -1 21.5 -1 l37 0 q16 -1 25.5 2 q9.5 3 18.5 13 q12 12 21 47.5 q9 35.5 16 101.5 q7 66 13 167 q4 76 8 176 l-334 0 q-10 -87 -40 -176 q-34 -101 -101 -200.5 q-67 -99.5 -185 -185.5 q-6 -5 -14.5 -7 q-8.5 -2 -16.5 -1 q-8 1 -15 3.5 q-7 2.5 -12 7.5 q-15 14 -12.5 35 q2.5 21 20.5 35 q106 80 166.5 168.5 q60.5 88.5 90.5 178.5 q24 72 34 142 l-271 0 q-8 0 -16 3 q-8 3 -14.5 9 q-6.5 6 -10 13.5 q-3.5 7.5 -3.5 15.5 l0 2 ZM624 325 q-5 8 -6.5 17.5 q-1.5 9.5 0 18 q1.5 8.5 6.5 16 q5 7.5 13 11.5 q11 5 26 0.5 q15 -4.5 23 -14.5 q28 -31 54 -65.5 q26 -34.5 43 -62.5 q4 -7 4 -14.5 q0 -7.5 -2 -15 q-2 -7.5 -6.5 -14 q-4.5 -6.5 -10.5 -10.5 q-8 -3 -17 -3 q-9 0 -17.5 3 q-8.5 3 -15.5 9 q-7 6 -12 13 q-15 25 -37 55 q-22 30 -45 56 ZM287 740 q-6 8 -7 17.5 q-1 9.5 1 18.5 q2 9 7 16.5 q5 7.5 14 10.5 q10 5 25 1 q15 -4 22 -14 q18 -20 36 -43 q18 -23 30 -43 q5 -7 5.5 -15 q0.5 -8 -2 -15.5 q-2.5 -7.5 -7.5 -14 q-5 -6.5 -12 -9.5 q-7 -4 -16 -3.5 q-9 0.5 -17.5 3.5 q-8.5 3 -15.5 9 q-7 6 -11 14 q-10 15 -23.5 33 q-13.5 18 -28.5 34 Z" /><glyph glyph-name="" unicode="&#x4e3b;" d="M201 603 q0 8 3.5 15.5 q3.5 7.5 10 13.5 q6.5 6 14.5 9 q8 3 15 3 l402 0 q-6 1 -11 3 q-8 4 -13 9 q-20 23 -48.5 50 q-28.5 27 -58.5 51 q-9 7 -13.5 16 q-4.5 9 -4.5 18.5 q0 9.5 3.5 18 q3.5 8.5 12.5 13.5 l3 2 q8 5 21.5 5 q13.5 0 21.5 -5 q34 -26 69 -56 q35 -30 61 -57 q7 -6 10 -14 q3 -8 2.5 -16.5 q-0.5 -8.5 -5 -16 q-4.5 -7.5 -10.5 -12.5 l-4 -3 q-5 -4 -11 -6 l284 0 q8 0 15.5 -3 q7.5 -3 14 -9 q6.5 -6 10 -13.5 q3.5 -7.5 3.5 -15.5 q0 -8 -3.5 -15 q-3.5 -7 -10 -13 q-6.5 -6 -14 -9.5 q-7.5 -3.5 -15.5 -3.5 l-321 0 q5 -6 8 -12 q3 -8 3 -16 l0 -183 l267 0 q9 0 16.5 -3.5 q7.5 -3.5 13.5 -9.5 q6 -6 10 -13 q4 -7 4 -14.5 q0 -7.5 -4 -15 q-4 -7.5 -10 -13 q-6 -5.5 -13.5 -9 q-7.5 -3.5 -16.5 -3.5 l-267 0 l0 -236 l361 0 q8 0 15.5 -3.5 q7.5 -3.5 13.5 -9 q6 -5.5 10 -13 q4 -7.5 4 -15.5 q0 -8 -4 -15 q-4 -7 -10 -13.5 q-6 -6.5 -13.5 -9.5 q-7.5 -3 -15.5 -3 l-808 0 q-8 0 -15.5 3 q-7.5 3 -13.5 9.5 q-6 6.5 -10 13.5 q-4 7 -4 15 q0 8 4 15.5 q4 7.5 10 13 q6 5.5 13.5 9 q7.5 3.5 15.5 3.5 l356 0 l0 236 l-262 0 q-8 0 -16 3.5 q-8 3.5 -14 9 q-6 5.5 -9.5 13 q-3.5 7.5 -3.5 15 q0 7.5 3.5 14.5 q3.5 7 9.5 13 q6 6 14 9.5 q8 3.5 16 3.5 l262 0 l0 183 q0 8 4 16 q3 6 8 12 l-322 0 q-7 0 -15 3.5 q-8 3.5 -14.5 9.5 q-6.5 6 -10 13 q-3.5 7 -3.5 15 Z" /><glyph glyph-name="" unicode="&#x4e3e;" d="M336 344 q0 8 3.5 14.5 q3.5 6.5 9.5 12.5 q6 6 14 9 q8 3 16 3 l179 0 l0 78 q0 7 3.5 15 q3.5 8 9.5 14 q6 6 14 9.5 q8 3.5 15 3.5 l1 0 q8 0 15.5 -3.5 q7.5 -3.5 13.5 -9.5 q6 -6 9.5 -14 q3.5 -8 3.5 -15 l0 -78 l184 0 q8 0 16 -3 q8 -3 14 -9 q6 -6 9.5 -12.5 q3.5 -6.5 3.5 -14.5 q0 -7 -3.5 -14 q-3.5 -7 -9.5 -12.5 q-6 -5.5 -14 -9 q-8 -3.5 -16 -3.5 l-184 0 l0 -117 l332 0 q8 0 15.5 -3 q7.5 -3 14 -9 q6.5 -6 10 -13 q3.5 -7 3.5 -14 q0 -8 -3.5 -14.5 q-3.5 -6.5 -10 -12 q-6.5 -5.5 -14 -9.5 q-7.5 -4 -15.5 -4 l-332 0 l0 -149 q0 -7 -3.5 -15 q-3.5 -8 -9.5 -14 q-6 -6 -13.5 -9.5 q-7.5 -3.5 -15.5 -3.5 l-1 0 q-7 0 -15 3.5 q-8 3.5 -14 9.5 q-6 6 -9.5 14 q-3.5 8 -3.5 15 l0 149 l-324 0 q-8 0 -15.5 4 q-7.5 4 -13.5 9.5 q-6 5.5 -10 12 q-4 6.5 -4 14.5 q0 7 4 14 q4 7 10 13 q6 6 13.5 9 q7.5 3 15.5 3 l324 0 l0 117 l-179 0 q-8 0 -16 3.5 q-8 3.5 -14 9 q-6 5.5 -9.5 12.5 q-3.5 7 -3.5 14 ZM154 609 q0 8 4 14.5 q4 6.5 10 12 q6 5.5 13.5 8.5 q7.5 3 15.5 3 l561 0 q-1 2 -2 5 q-2 9 0 18.5 q2 9.5 7 17.5 q18 24 39 52.5 q21 28.5 36 54.5 q7 13 23.5 20.5 q16.5 7.5 29.5 2.5 l3 0 q9 -3 15.5 -10 q6.5 -7 9 -16 q2.5 -9 1.5 -18 q-1 -9 -7 -17 q-22 -31 -47 -63 q-20 -25 -38 -47 l177 0 q8 0 15.5 -3 q7.5 -3 13.5 -8.5 q6 -5.5 9.5 -12 q3.5 -6.5 3.5 -14 q0 -7.5 -3.5 -14.5 q-3.5 -7 -9.5 -12.5 q-6 -5.5 -13.5 -8.5 q-7.5 -3 -15.5 -3 l-189 0 q15 -23 35 -45 q24 -27 51 -51 q27 -24 57 -45 q30 -21 60 -36 q20 -13 26 -32.5 q6 -19.5 -6 -35.5 q-8 -11 -25 -14 q-17 -3 -30 5 q-35 19 -68.5 44 q-33.5 25 -64.5 54 q-31 29 -58.5 62 q-27.5 33 -48.5 67 q-5 8 -6 17 q-1 5 0 10 l-270 0 q1 -7 0 -13 q-1 -9 -6 -17 q-22 -36 -50 -70.5 q-28 -34.5 -59.5 -64 q-31.5 -29.5 -66.5 -55 q-35 -25.5 -71 -45.5 q-12 -7 -28 -4 q-16 3 -24 13 q-13 14 -7 34 q6 20 26 32 q32 16 63 37.5 q31 21.5 58.5 47 q27.5 25.5 50.5 54.5 q21 25 37 51 l-194 0 q-8 0 -15.5 3 q-7.5 3 -13.5 8.5 q-6 5.5 -10 12.5 q-4 7 -4 14 ZM285 744 q-6 8 -7.5 17.5 q-1.5 9.5 0 19 q1.5 9.5 6.5 17 q5 7.5 14 11.5 q10 5 24 2 q14 -3 22 -12 q18 -21 36 -44.5 q18 -23.5 31 -44.5 q5 -6 5.5 -14 q0.5 -8 -2 -15.5 q-2.5 -7.5 -7 -14 q-4.5 -6.5 -10.5 -10.5 q-8 -4 -17 -4 q-9 0 -17.5 3 q-8.5 3 -16 8.5 q-7.5 5.5 -12.5 13.5 q-9 15 -22 33 q-13 18 -27 34 ZM522 773 q-4 9 -5.5 18.5 q-1.5 9.5 0 18.5 q1.5 9 6.5 16 q5 7 14 10 q10 5 24.5 0.5 q14.5 -4.5 21.5 -14.5 q16 -22 31 -46.5 q15 -24.5 25 -45.5 q4 -7 4.5 -14.5 q0.5 -7.5 -2 -15 q-2.5 -7.5 -7.5 -13.5 q-5 -6 -11 -9 q-8 -3 -16.5 -2.5 q-8.5 0.5 -17 4 q-8.5 3.5 -15 10 q-6.5 6.5 -11.5 13.5 q-8 16 -18.5 34 q-10.5 18 -22.5 36 Z" /><glyph glyph-name="" unicode="&#x4e45;" d="M419 803 q3 7 8.5 13 q5.5 6 13 10.5 q7.5 4.5 15 6 q7.5 1.5 15.5 0.5 l8 -2 q8 -2 14.5 -8 q6.5 -6 10.5 -13.5 q4 -7.5 5 -16 q1 -8.5 -2 -17.5 q-18 -48 -38 -94 l215 0 q8 0 16 -4 l2 0 q3 4 8 4 q2 0 4.5 0.5 q2.5 0.5 4.5 0.5 l3 1 q2 1 8 0.5 q6 -0.5 10 -2.5 l19 -9 q6 -3 10.5 -8.5 q4.5 -5.5 8 -12.5 q3.5 -7 4.5 -14 q1 -7 -1 -13 q-33 -124 -85 -228 q5 -6 8 -13 q23 -57 55 -110 q32 -53 71 -100 q39 -47 85.5 -85.5 q46.5 -38.5 97.5 -66.5 q21 -12 25 -33 q4 -21 -9 -38 q-4 -6 -11 -10 q-7 -4 -14.5 -6 q-7.5 -2 -15.5 -1 q-8 1 -14 4 q-58 32 -109.5 75.5 q-51.5 43.5 -95.5 97 q-44 53.5 -80 115.5 q-23 40 -42 82 q-37 -61 -80 -114 q-70 -86 -152.5 -151 q-82.5 -65 -172.5 -111 q-6 -3 -14.5 -3.5 q-8.5 -0.5 -16 1.5 q-7.5 2 -14 6 q-6.5 4 -11.5 9 q-15 18 -10.5 39 q4.5 21 26.5 33 q86 44 164 105.5 q78 61.5 142 141 q64 79.5 112 177.5 q35 73 60 156 l-252 0 q-19 -35 -39 -68 q-68 -114 -152 -197 q-6 -6 -14 -8.5 q-8 -2.5 -16.5 -2.5 q-8.5 0 -16 2 q-7.5 2 -13.5 7 l-1 0 l-1 1 q-8 7 -12 16 q-4 9 -4 18.5 q0 9.5 4 19.5 q4 10 12 17 q79 76 141 179 q62 103 103 222 Z" /><glyph glyph-name="" unicode="&#x4e48;" d="M293 -19 q-11 -2 -21 0.5 q-10 2.5 -18 7.5 q-2 1 -4 3 q-3 0 -5 1 q-18 4 -25 20 q-3 8 -2 17.5 q1 9.5 5 18.5 q4 9 10.5 17 q6.5 8 14.5 13 q9 6 15 10.5 q6 4.5 15 11.5 q9 7 22.5 19 q13.5 12 36.5 33 q24 20 69 64 q45 44 100.5 105 q55.5 61 117 134 q61.5 73 117.5 150 q4 6 10.5 10.5 q6.5 4.5 14 6.5 q7.5 2 15 2 q7.5 0 13.5 -3 l10 -5 q8 -4 13.5 -11.5 q5.5 -7.5 7.5 -16 q2 -8.5 1 -18 q-1 -9.5 -7 -16.5 q-123 -162 -253 -297 q-98 -101 -193 -184 l494 39 q-25 36 -51 73 q-26 36 -53 69 q-5 8 -6.5 17 q-1.5 9 0.5 18 q2 9 7 16.5 q5 7.5 13 10.5 l3 2 q11 6 27 1.5 q16 -4.5 25 -15.5 q28 -35 57 -73.5 q29 -38.5 55.5 -77 q26.5 -38.5 49 -75.5 q22.5 -37 40.5 -69 q3 -7 3 -14.5 q0 -7.5 -2.5 -15 q-2.5 -7.5 -7 -14 q-4.5 -6.5 -10.5 -9.5 l-6 -4 q-7 -4 -16 -4 q-9 0 -18 3 q-9 3 -15.5 9 q-6.5 6 -10.5 14 q-17 31 -38 66 q-3 -1 -5 -3 q-9 -4 -18 -5 q-151 -13 -255 -21.5 q-104 -8.5 -172.5 -14.5 q-68.5 -6 -108 -9.5 q-39.5 -3.5 -61.5 -6.5 ZM520 800 q7 12 23 18.5 q16 6.5 29 1.5 l6 -3 q9 -3 15 -10 q6 -7 8.5 -15.5 q2.5 -8.5 1.5 -18 q-1 -9.5 -7 -17.5 q-33 -49 -73 -99.5 q-40 -50.5 -84 -99 q-44 -48.5 -91 -93.5 q-47 -45 -95 -83 q-5 -5 -13 -6.5 q-8 -1.5 -16 -1.5 q-8 0 -15 2.5 q-7 2.5 -12 7.5 q-7 7 -10 16 q-3 9 -2 18.5 q1 9.5 5.5 18 q4.5 8.5 12.5 15.5 q45 36 89.5 78.5 q44.5 42.5 86 87.5 q41.5 45 77 91.5 q35.5 46.5 64.5 91.5 Z" /><glyph glyph-name="" unicode="&#x4e49;" d="M282 712 q7 2 15 0.5 q8 -1.5 15.5 -5.5 q7.5 -4 13.5 -10 q6 -6 9 -13 q46 -114 112 -216.5 q66 -102.5 150 -188.5 q3 -4 7 -8 q13 14 26 27 q83 92 143.5 199.5 q60.5 107.5 102.5 229.5 q3 7 9 13.5 q6 6.5 13.5 10.5 q7.5 4 15.5 5.5 q8 1.5 16 -0.5 l5 -2 q7 -2 13.5 -8 q6.5 -6 10 -13 q3.5 -7 4.5 -16 q1 -9 -2 -16 q-49 -132 -115 -247.5 q-66 -115.5 -156 -213.5 q-12 -13 -25 -26 q55 -48 117 -89 q101 -67 219 -110 q24 -9 30.5 -29.5 q6.5 -20.5 -7.5 -39.5 q-7 -10 -22 -15 q-15 -5 -27 -1 q-129 45 -237 117 q-73 48 -138 106 q-55 -47 -117 -89 q-117 -78 -268 -134 q-13 -5 -29 1 q-16 6 -22 17 q-11 16 -2.5 35 q8.5 19 29.5 27 q138 51 247 124 q54 37 102 78 q-89 93 -159 205 q-71 113 -123 240 q-3 7 -2.5 16 q0.5 9 4 16.5 q3.5 7.5 9.5 13.5 q6 6 13 9 ZM527 776 q-3 8 -3.5 17 q-0.5 9 2.5 17 q3 8 8.5 14.5 q5.5 6.5 13.5 9.5 q12 5 27.5 -2.5 q15.5 -7.5 21.5 -19.5 q21 -42 40 -86.5 q19 -44.5 33 -82.5 q3 -7 2.5 -15 q-0.5 -8 -3.5 -15 q-3 -7 -8.5 -13 q-5.5 -6 -11.5 -9 q-8 -3 -17 -2.5 q-9 0.5 -16.5 4.5 q-7.5 4 -14 11 q-6.5 7 -9.5 15 q-12 36 -29.5 77.5 q-17.5 41.5 -35.5 79.5 Z" /><glyph glyph-name="" unicode="&#x4e4b;" d="M199 605 q0 8 3.5 15 q3.5 7 9.5 13 q6 6 14 9.5 q8 3.5 16 3.5 l624 0 q8 0 16 -3 q4 3 9 3 q2 0 4.5 0.5 q2.5 0.5 4.5 0.5 q4 2 11.5 0.5 q7.5 -1.5 12.5 -4.5 l14 -10 q7 -4 11.5 -11.5 q4.5 -7.5 6.5 -16 q2 -8.5 0.5 -17 q-1.5 -8.5 -5.5 -15.5 q-49 -67 -111.5 -136 q-62.5 -69 -133.5 -133.5 q-71 -64.5 -146 -122.5 q-68 -52 -135 -93 q9 -7 21 -14 q47 -30 110.5 -38.5 q63.5 -8.5 147.5 -8.5 q71 0 149.5 3.5 q78.5 3.5 145.5 8.5 q25 2 38.5 -13 q13.5 -15 7.5 -37 q-2 -13 -15.5 -24 q-13.5 -11 -28.5 -12 q-29 -2 -66.5 -3 q-37.5 -1 -77 -2.5 q-39.5 -1.5 -80 -2 q-40.5 -0.5 -76.5 -0.5 q-92 0 -156 11 q-64 11 -116 43 q-30 20 -54 40 q-24 20 -40 20 q-18 0 -42.5 -22.5 q-24.5 -22.5 -51.5 -57.5 q-7 -8 -15.5 -12.5 q-8.5 -4.5 -17.5 -5 q-9 -0.5 -18 3 q-9 3.5 -15 11.5 l-4 5 q-4 5 -6 12.5 q-2 7.5 -2 15.5 q0 8 3 15 q3 7 8 12 q45 45 84 73 q39 28 79 28 q9 0 17 -2 q6 8 16 15 q73 44 146.5 101.5 q73.5 57.5 140.5 120.5 q67 63 123 127 q29 34 53 65 l-591 0 q-8 0 -16 3.5 q-8 3.5 -14 9.5 q-6 6 -9.5 13 q-3.5 7 -3.5 15 ZM538 769 q-4 7 -5.5 16.5 q-1.5 9.5 0 18 q1.5 8.5 6.5 16 q5 7.5 13 11.5 l3 1 q6 4 13 4 q7 0 14.5 -1.5 q7.5 -1.5 14 -5.5 q6.5 -4 10.5 -9 q18 -25 36 -51 q18 -26 30 -48 q5 -7 6 -15 q1 -8 -1 -16 q-2 -8 -6.5 -14.5 q-4.5 -6.5 -11.5 -10.5 l-5 -2 q-7 -4 -15.5 -5 q-8.5 -1 -17.5 2 q-9 3 -16 8.5 q-7 5.5 -12 12.5 q-10 20 -25.5 43.5 q-15.5 23.5 -30.5 44.5 Z" /><glyph glyph-name="" unicode="&#x4e4c;" d="M519 810 q3 14 17.5 23.5 q14.5 9.5 29.5 7.5 q9 -1 16.5 -6.5 q7.5 -5.5 11.5 -13.5 q4 -8 4.5 -17 q0.5 -9 -4.5 -18 q-7 -15 -15 -29 q-6 -9 -11 -18 l321 0 q8 0 16 -3.5 q8 -3.5 14 -8.5 q6 -5 9.5 -11.5 q3.5 -6.5 3.5 -13.5 q0 -7 -3 -14 l-1 -1 q-4 -45 -8 -78 q-5 -37 -11 -63.5 q-6 -26.5 -13 -43 q-7 -16.5 -16 -25.5 q-14 -14 -31.5 -19.5 q-17.5 -5.5 -40.5 -7.5 l-41 0 q-26 0 -55 2 q-14 0 -27 8.5 q-13 8.5 -15 18.5 q-4 18 10.5 30 q14.5 12 39.5 11 q9 0 16 -0.5 q7 -0.5 14 -0.5 l25 0 q14 0 21.5 1.5 q7.5 1.5 12.5 7.5 q6 6 11.5 20 q5.5 14 10 37.5 q4.5 23.5 8.5 58.5 q1 9 2 19 l-464 0 q-3 0 -5 -1.5 q-2 -1.5 -2 -4.5 l0 -270 q0 -3 1.5 -4.5 q1.5 -1.5 3.5 -1.5 l606 0 q8 0 16 -3 q6 -3 11 -7 q1 0 2 -1 q6 -4 10 -10 q3 -5 4 -10 q1 -3 1 -7 q0 -3 -1 -6 q-4 -91 -9 -156 q-6 -67 -12.5 -112 q-6.5 -45 -15 -70.5 q-8.5 -25.5 -19.5 -39.5 q-16 -18 -34.5 -24.5 q-18.5 -6.5 -45.5 -9.5 q-18 -1 -47.5 -1.5 q-29.5 -0.5 -63.5 1.5 q-14 0 -27 9.5 q-13 9.5 -16 19.5 q-6 20 7.5 34.5 q13.5 14.5 40.5 13.5 q12 -1 22 -1.5 q10 -0.5 18.5 -1 q8.5 -0.5 16.5 -0.5 l17 0 q14 0 23.5 2 q9.5 2 17.5 9 q9 9 16 32.5 q7 23.5 12.5 66 q5.5 42.5 9.5 105.5 q3 41 5 91 l-608 0 q-7 0 -15 3.5 q-8 3.5 -14.5 10 q-6.5 6.5 -10 14.5 q-3.5 8 -3.5 16 l0 346 q0 9 3.5 16.5 q3.5 7.5 10 14 q6.5 6.5 14.5 10 q8 3.5 15 3.5 l159 0 q-3 11 1 23 q7 11 14 24 q7 13 13 24 ZM156 161 q0 7 3.5 13.5 q3.5 6.5 10 12 q6.5 5.5 14.5 8.5 q8 3 16 3 l611 0 q8 0 16 -3 q8 -3 14 -8.5 q6 -5.5 10 -12 q4 -6.5 4 -13.5 q0 -7 -4 -14 q-4 -7 -10 -12.5 q-6 -5.5 -14 -8.5 q-8 -3 -16 -3 l-611 0 q-8 0 -16 3 q-8 3 -14.5 8.5 q-6.5 5.5 -10 12.5 q-3.5 7 -3.5 14 Z" /><glyph glyph-name="" unicode="&#x4e4d;" d="M390 807 q2 7 7.5 12.5 q5.5 5.5 12.5 10 q7 4.5 15.5 5.5 q8.5 1 14.5 0 l6 -2 q8 -2 15 -8 q7 -6 10.5 -13.5 q3.5 -7.5 4.5 -16.5 q1 -9 -3 -17 q-23 -54 -49 -105 l577 0 q8 0 16 -3 q8 -3 14 -9 q6 -6 9.5 -13.5 q3.5 -7.5 3.5 -15.5 q0 -7 -3.5 -14.5 q-3.5 -7.5 -9.5 -13.5 q-6 -6 -14 -9.5 q-8 -3.5 -17 -3.5 l-418 0 l0 -141 q4 1 8 1 l353 0 q8 0 15.5 -3.5 q7.5 -3.5 13.5 -9 q6 -5.5 10 -12.5 q4 -7 4 -14.5 q0 -7.5 -4 -15 q-4 -7.5 -10 -13.5 q-6 -6 -13.5 -9 q-7.5 -3 -15.5 -3 l-353 0 q-4 0 -8 1 l0 -147 q5 1 9 1 l368 0 q9 0 16.5 -3.5 q7.5 -3.5 13.5 -9.5 q6 -6 10 -13 q4 -7 4 -15 q0 -8 -4 -15.5 q-4 -7.5 -10 -13 q-6 -5.5 -13.5 -9.5 q-7.5 -4 -16.5 -4 l-368 0 q-4 0 -9 2 l0 -183 q0 -9 -3.5 -16.5 q-3.5 -7.5 -9.5 -13.5 q-6 -6 -13 -10 q-7 -4 -15 -4 l-5 0 q-7 0 -14.5 4 q-7.5 4 -14 10 q-6.5 6 -9.5 13.5 q-3 7.5 -3 16.5 l0 629 l-103 0 q-7 0 -13 2 q-5 -9 -11 -18 q-59 -95 -125 -169 q-5 -6 -12.5 -9 q-7.5 -3 -16 -4 q-8.5 -1 -17 1 q-8.5 2 -14.5 5 q-8 6 -12.5 14.5 q-4.5 8.5 -5.5 18.5 q-1 10 2 19.5 q3 9.5 9 17.5 q65 67 119.5 154.5 q54.5 87.5 94.5 183.5 Z" /><glyph glyph-name="" unicode="&#x4e4e;" d="M889 823 q12 2 25.5 -4 q13.5 -6 19.5 -16 l2 -4 q5 -8 5.5 -17.5 q0.5 -9.5 -3.5 -18 q-4 -8.5 -11.5 -14.5 q-7.5 -6 -18.5 -8 q-63 -14 -140 -24 q-56 -8 -116 -14 q2 -6 2 -12 l0 -320 l353 0 q8 0 15.5 -3.5 q7.5 -3.5 14 -9.5 q6.5 -6 10 -13.5 q3.5 -7.5 3.5 -15.5 l0 -2 q0 -8 -3.5 -15.5 q-3.5 -7.5 -10 -13.5 q-6.5 -6 -14 -9.5 q-7.5 -3.5 -15.5 -3.5 l-353 0 l0 -256 q0 -44 -13 -65.5 q-13 -21.5 -44 -31.5 q-26 -9 -69 -11.5 q-43 -2.5 -109 -2.5 q-13 -1 -26 8 q-13 9 -17 21 q-8 22 3.5 38.5 q11.5 16.5 37.5 15.5 q43 -1 71 -0.5 q28 0.5 46 0.5 q17 1 23.5 7 q6.5 6 6.5 22 l0 255 l-369 0 q-7 0 -15 3.5 q-8 3.5 -14 9.5 q-6 6 -9.5 13.5 q-3.5 7.5 -3.5 15.5 l0 2 q0 8 3.5 15.5 q3.5 7.5 9.5 13.5 q6 6 14 9.5 q8 3.5 15 3.5 l369 0 l0 320 q0 2 1 4 q-61 -5 -124 -9 q-85 -5 -164 -7 q-16 -1 -30 8.5 q-14 9.5 -17 21.5 q-5 17 8.5 30.5 q13.5 13.5 34.5 15.5 q80 3 165 9 q85 6 166 14.5 q81 8.5 154.5 19.5 q73.5 11 130.5 25 ZM864 623 q3 8 9 14.5 q6 6.5 14 10.5 q8 4 16.5 5.5 q8.5 1.5 16.5 -1.5 l2 0 q8 -2 14 -9 q6 -7 9.5 -15.5 q3.5 -8.5 3.5 -18 q0 -9.5 -5 -17.5 q-20 -40 -42 -81.5 q-22 -41.5 -42 -75.5 q-7 -11 -21.5 -16.5 q-14.5 -5.5 -25.5 -1.5 q-8 3 -13.5 9.5 q-5.5 6.5 -8 15 q-2.5 8.5 -2.5 17.5 q0 9 4 17 q10 16 19 34 q9 18 18.5 37.5 q9.5 19.5 18 38.5 q8.5 19 15.5 37 ZM282 577 q-4 9 -4 18.5 q0 9.5 3 17.5 q3 8 8.5 14.5 q5.5 6.5 13.5 9.5 q12 5 26.5 -1.5 q14.5 -6.5 20.5 -18.5 q21 -36 39 -75.5 q18 -39.5 29 -72.5 q3 -6 2 -13.5 q-1 -7.5 -4 -14.5 q-3 -7 -8 -12.5 q-5 -5.5 -12 -8.5 q-8 -3 -17 -2 q-9 1 -17 5.5 q-8 4.5 -14.5 11.5 q-6.5 7 -9.5 16 q-9 28 -24 61.5 q-15 33.5 -32 64.5 Z" /><glyph glyph-name="" unicode="&#x4e4f;" d="M220 455 q0 7 3.5 14.5 q3.5 7.5 10 13.5 q6.5 6 14.5 9 q8 3 15 3 l597 0 q9 0 16 -3 q3 -1 5 -2 l1 1 q5 4 11 4 q2 0 4 0.5 q2 0.5 4 0.5 q5 2 12.5 0 q7.5 -2 12.5 -5 l11 -7 q8 -6 12 -14 q4 -8 5 -16.5 q1 -8.5 -1.5 -17.5 q-2.5 -9 -9.5 -15 q-45 -51 -103.5 -100.5 q-58.5 -49.5 -123.5 -96 q-65 -46.5 -134 -87.5 q-68 -39 -136 -70 q45 -29 104 -38 q64 -10 155 -10 q73 0 152.5 3.5 q79.5 3.5 146.5 9.5 q26 2 39 -13 q13 -15 8 -37 q-3 -12 -16.5 -23 q-13.5 -11 -26.5 -13 q-30 -2 -68 -3 q-38 -1 -79 -2.5 q-41 -1.5 -82 -2 q-41 -0.5 -79 -0.5 q-48 0 -88.5 2.5 q-40.5 2.5 -74.5 9.5 q-34 7 -63 18.5 q-29 11.5 -55 29.5 q-16 11 -30.5 23 q-14.5 12 -27 22 q-12.5 10 -22.5 16.5 q-10 6.5 -18 6.5 q-17 0 -39 -23 q-22 -23 -49 -60 q-10 -21 -29 -24 q-19 -3 -33 16 l-6 7 q-8 10 -8 25.5 q0 15.5 9 25.5 q45 52 83.5 82.5 q38.5 30.5 74.5 30.5 q12 0 23.5 -5.5 q11.5 -5.5 24.5 -15.5 q8 -7 17 -15 q8 15 26 25 q68 31 135.5 72 q67.5 41 128 85.5 q60.5 44.5 110.5 90.5 q17 15 31 30 l-557 0 q-7 0 -15 3.5 q-8 3.5 -14.5 9.5 q-6.5 6 -10 13.5 q-3.5 7.5 -3.5 15.5 ZM915 821 q9 2 21 -2 q12 -4 18 -12 l7 -7 q7 -9 8.5 -18 q1.5 -9 -1.5 -17.5 q-3 -8.5 -10.5 -14.5 q-7.5 -6 -19.5 -9 q-67 -13 -148.5 -24 q-81.5 -11 -169 -19 q-87.5 -8 -176.5 -13.5 q-89 -5.5 -172 -7.5 q-16 -1 -30 8.5 q-14 9.5 -16 20.5 q-3 9 0 17 q3 8 9 14.5 q6 6.5 15.5 10.5 q9.5 4 20.5 5 q84 4 173 10 q89 6 173.5 14.5 q84.5 8.5 161 19.5 q76.5 11 136.5 24 ZM513 610 q-3 8 -4 16.5 q-1 8.5 1 17 q2 8.5 7 15.5 q5 7 12 10 l1 1 q7 3 14.5 3 q7.5 0 15 -2 q7.5 -2 14 -6.5 q6.5 -4.5 10.5 -10.5 q14 -18 27.5 -37.5 q13.5 -19.5 24.5 -36.5 q4 -6 4.5 -14.5 q0.5 -8.5 -1.5 -16 q-2 -7.5 -6.5 -14 q-4.5 -6.5 -11.5 -10.5 q-7 -4 -16.5 -4.5 q-9.5 -0.5 -18 2.5 q-8.5 3 -16 8.5 q-7.5 5.5 -12.5 13.5 q-9 15 -20.5 32.5 q-11.5 17.5 -24.5 32.5 Z" /><glyph glyph-name="" unicode="&#x4e50;" d="M577 597 q0 8 3.5 16 q3.5 8 10 14 q6.5 6 13.5 9.5 q7 3.5 15 3.5 l3 0 q8 0 15.5 -3.5 q7.5 -3.5 13.5 -10 q6 -6.5 9 -14 q3 -7.5 3 -15.5 l0 -153 l319 0 q8 0 16 -3.5 q8 -3.5 14 -9.5 q6 -6 9.5 -13.5 q3.5 -7.5 3.5 -15.5 l0 -1 q0 -8 -3.5 -15.5 q-3.5 -7.5 -9.5 -13 q-6 -5.5 -14 -9.5 q-8 -4 -16 -4 l-319 0 l0 -334 q0 -39 -10 -59 q-10 -20 -35 -30 q-22 -9 -55 -11.5 q-33 -2.5 -85 -3.5 q-13 -1 -25.5 9 q-12.5 10 -15.5 20 q-8 22 4.5 38 q12.5 16 36.5 16 q28 -1 45 -0.5 q17 0.5 30 0.5 q14 1 19 5 q5 4 5 17 l0 333 l-256 0 q-11 0 -19 -1 q-14 -1 -27 1.5 q-13 2.5 -24 7.5 q-3 2 -5 4 q-4 -1 -7 0 q-9 1 -15.5 6.5 q-6.5 5.5 -9.5 13.5 q-3 6 -2 15.5 q1 9.5 3 19 q2 9.5 5.5 19.5 q3.5 10 5.5 19 l0 1 q0 1 1.5 5.5 q1.5 4.5 4.5 18.5 q3 10 8 33 q5 23 9.5 53.5 q4.5 30.5 9 66.5 q4.5 36 6.5 73 q1 10 6 18.5 q5 8.5 12 14.5 l6 4 q1 2 2 3 q6 6 15.5 10 q9.5 4 20.5 4 q75 3 154.5 7.5 q79.5 4.5 156 11.5 q76.5 7 145 16.5 q68.5 9.5 120.5 21.5 q11 2 24.5 -3.5 q13.5 -5.5 18.5 -14.5 l1 -2 q6 -9 6.5 -19 q0.5 -10 -3 -18.5 q-3.5 -8.5 -11 -14.5 q-7.5 -6 -18.5 -8 q-60 -13 -132.5 -22 q-72.5 -9 -149.5 -15.5 q-77 -6.5 -157 -10.5 q-67 -3 -131 -5 q-7 -71 -21 -143 q-11 -58 -22 -106 l269 0 l0 153 ZM314 248 q8 11 23.5 17.5 q15.5 6.5 27.5 2.5 l1 0 q9 -3 15.5 -10 q6.5 -7 9 -15 q2.5 -8 1.5 -17.5 q-1 -9.5 -6 -17.5 q-33 -53 -73 -103.5 q-40 -50.5 -79 -92.5 q-5 -6 -12.5 -9.5 q-7.5 -3.5 -16 -4.5 q-8.5 -1 -16 1 q-7.5 2 -13.5 7 q-7 5 -10.5 13.5 q-3.5 8.5 -3.5 18 q0 9.5 3 18.5 q3 9 10 17 q38 37 74 82.5 q36 45.5 65 92.5 ZM821 203 q-6 8 -7.5 17.5 q-1.5 9.5 0 18 q1.5 8.5 7 16 q5.5 7.5 13.5 10.5 q11 5 26 1 q15 -4 22 -13 q21 -23 42.5 -48 q21.5 -25 42.5 -50 q21 -25 39.5 -49 q18.5 -24 32.5 -45 q5 -8 5.5 -16 q0.5 -8 -1.5 -16 q-2 -8 -7 -14.5 q-5 -6.5 -12 -10.5 l-2 -1 q-7 -4 -16 -4 q-9 0 -17 3 q-8 3 -15 8 q-7 5 -11 12 q-13 20 -29.5 42.5 q-16.5 22.5 -35 46 q-18.5 23.5 -38 47 q-19.5 23.5 -39.5 45.5 Z" /><glyph glyph-name="" unicode="&#x4e58;" d="M555 708 q0 6 2 11 q-56 -4 -113 -7 q-82 -4 -158 -6 q-15 -1 -28.5 8 q-13.5 9 -16.5 20 q-4 16 9 29.5 q13 13.5 36 14.5 q77 3 158.5 8 q81.5 5 160 12 q78.5 7 149.5 15.5 q71 8.5 127 19.5 q12 1 25.5 -5 q13.5 -6 18.5 -16 q4 -9 3.5 -18 q-0.5 -9 -5 -17 q-4.5 -8 -12 -13.5 q-7.5 -5.5 -18.5 -6.5 q-62 -11 -136 -19 q-57 -7 -118 -12 q1 -1 1 -2 q3 -8 3 -16 l0 -74 l349 0 q8 0 16 -3 q8 -3 14 -8.5 q6 -5.5 9.5 -12.5 q3.5 -7 3.5 -14.5 q0 -7.5 -3.5 -14 q-3.5 -6.5 -9.5 -12 q-6 -5.5 -14 -9 q-8 -3.5 -16 -3.5 l-349 0 l0 -234 q7 -5 11 -11 q28 -42 66.5 -82.5 q38.5 -40.5 83 -76.5 q44.5 -36 95 -65 q50.5 -29 103.5 -50 q23 -9 31 -27.5 q8 -18.5 -5 -36.5 q-7 -10 -22 -14.5 q-15 -4.5 -27 0.5 q-58 23 -112.5 56 q-54.5 33 -103.5 74 q-49 41 -91 88 q-15 18 -29 35 l0 -251 q0 -8 -3 -16 q-3 -8 -9.5 -14 q-6.5 -6 -13.5 -9.5 q-7 -3.5 -15 -3.5 l-5 0 q-8 0 -15 3.5 q-7 3.5 -13 9.5 q-6 6 -10 14 q-4 8 -4 16 l0 248 q-12 -16 -26 -31 q-42 -47 -91.5 -87.5 q-49.5 -40.5 -105 -73 q-55.5 -32.5 -113.5 -55.5 q-12 -5 -27 -0.5 q-15 4.5 -21 14.5 q-14 18 -6.5 37 q7.5 19 30.5 28 q54 20 105 49 q51 29 96.5 64.5 q45.5 35.5 83.5 76 q38 40.5 66 83.5 q4 5 9 9 l0 233 l-347 0 q-8 0 -16 3.5 q-8 3.5 -14.5 9 q-6.5 5.5 -10 12 q-3.5 6.5 -3.5 14 q0 7.5 3.5 14.5 q3.5 7 10 12.5 q6.5 5.5 14.5 8.5 q8 3 16 3 l347 0 l0 74 ZM741 489 q0 8 3.5 15.5 q3.5 7.5 9 13.5 q5.5 6 12.5 10 q7 4 14 4 q7 0 14 -4 q7 -4 12.5 -10 q5.5 -6 8.5 -13.5 q3 -7.5 3 -15.5 l0 -55 q27 10 53 21 q29 13 52 25 q12 5 27.5 2.5 q15.5 -2.5 23.5 -12.5 q6 -7 7 -15.5 q1 -8.5 -2 -16 q-3 -7.5 -10 -14.5 q-7 -7 -17 -10 q-27 -12 -58.5 -23.5 q-31.5 -11.5 -61.5 -21.5 q-7 -2 -14 -2 l0 -75 q0 -17 6 -22 q6 -5 27 -5 l92 0 q9 0 13 5.5 q4 5.5 5 26.5 q5 3 11 7.5 q6 4.5 12.5 8 q6.5 3.5 14.5 5 q8 1.5 16 -1.5 q5 -2 9.5 -7 q4.5 -5 7 -11.5 q2.5 -6.5 3 -14 q0.5 -7.5 -1.5 -14.5 q-4 -22 -9 -36.5 q-5 -14.5 -13.5 -23 q-8.5 -8.5 -22.5 -12 q-14 -3.5 -37 -3.5 l-111 0 q-29 0 -48.5 4.5 q-19.5 4.5 -30.5 16 q-11 11.5 -15.5 30.5 q-4.5 19 -4.5 47 l0 197 ZM378 486 q0 8 3.5 16 q3.5 8 9 14.5 q5.5 6.5 12.5 10 q7 3.5 15 3.5 q7 0 14 -3.5 q7 -3.5 12.5 -10 q5.5 -6.5 9 -14.5 q3.5 -8 3.5 -16 l0 -240 q0 -8 -3.5 -16 q-3.5 -8 -9 -14 q-5.5 -6 -12.5 -9.5 q-7 -3.5 -14 -3.5 q-8 0 -15 3.5 q-7 3.5 -12.5 9.5 q-5.5 6 -9 14 q-3.5 8 -3.5 16 l0 2 q-38 -8 -76 -15 q-44 -8 -83 -16 q-15 -3 -29.5 5.5 q-14.5 8.5 -17.5 20.5 q-2 7 0.5 14.5 q2.5 7.5 8 13.5 q5.5 6 13.5 10.5 q8 4.5 17 5.5 q37 5 80 12 q42 7 87 15 l0 82 l-142 0 q-17 0 -30.5 10.5 q-13.5 10.5 -13.5 23.5 q0 6 3.5 12 q3.5 6 10 11 q6.5 5 14 7.5 q7.5 2.5 16.5 2.5 l142 0 l0 23 Z" /><glyph glyph-name="" unicode="&#x4e5d;" d="M447 787 q0 8 3.5 16 q3.5 8 9.5 14 q6 6 13.5 9.5 q7.5 3.5 15.5 3.5 l7 0 q8 0 15.5 -3.5 q7.5 -3.5 13.5 -9.5 q6 -6 9 -14 q3 -8 3 -16 q-1 -88 -3 -173 q0 -13 -1 -26 l260 0 q8 0 15 -4 q7 -3 13 -9 q6 -6 10 -13 q3 -8 3 -15 l0 -489 q0 -27 5.5 -35 q5.5 -8 28.5 -8 l96 0 q8 0 13.5 3 q5.5 3 9.5 11.5 q4 8.5 6 24 q2 15.5 3 39.5 q3 26 19 37.5 q16 11.5 36 3.5 q10 -5 18.5 -18.5 q8.5 -13.5 6.5 -26.5 q-4 -44 -10 -74 q-6 -30 -17.5 -48.5 q-11.5 -18.5 -30 -26 q-18.5 -7.5 -47.5 -7.5 l-116 0 q-30 0 -51 5.5 q-21 5.5 -33.5 20 q-12.5 14.5 -18 38.5 q-5.5 24 -5.5 62 l0 444 l-220 0 q-2 -28 -5 -55 q-10 -80 -29.5 -153.5 q-19.5 -73.5 -53.5 -138 q-34 -64.5 -85.5 -119.5 q-51.5 -55 -125.5 -98 q-6 -4 -14 -5.5 q-8 -1.5 -16 0 q-8 1.5 -14.5 5 q-6.5 3.5 -11.5 8.5 q-14 16 -10 36 q4 20 22 34 q98 58 151 140.5 q53 82.5 78 182.5 q19 77 26 163 l-218 0 q-7 0 -15 3.5 q-8 3.5 -14 9.5 q-6 6 -9.5 13.5 q-3.5 7.5 -3.5 14.5 l0 3 q0 7 3.5 14.5 q3.5 7.5 9.5 13.5 q6 6 14 9.5 q8 3.5 15 3.5 l223 0 q3 97 3 199 Z" /><glyph glyph-name="" unicode="&#x4e5f;" d="M140 396 q-2 7 -0.5 15 q1.5 8 5.5 15 q4 7 10.5 13 q6.5 6 14.5 8 l140 43 l0 239 q0 9 3.5 17 q3.5 8 9.5 14 q6 6 13.5 9.5 q7.5 3.5 14.5 3.5 q8 0 15.5 -3.5 q7.5 -3.5 13.5 -9.5 q6 -6 9 -14 q3 -8 3 -16 l0 -215 l198 61 l0 221 q0 8 3.5 16 q3.5 8 9.5 14 q6 6 13.5 9.5 q7.5 3.5 15.5 3.5 q8 0 15 -3.5 q7 -3.5 13 -9.5 q6 -6 9.5 -14 q3.5 -8 3.5 -16 l0 -195 l205 63 q7 2 14 2 l11 10 l1 0 q6 5 17.5 6 q11.5 1 18.5 -2 l8 -4 q12 -5 21 -13 q9 -8 8 -13 q0 -1 -0.5 -4.5 q-0.5 -3.5 -0.5 -6.5 q-2 -139 -9 -228 q-7 -89 -23 -133 q-14 -39 -34.5 -56 q-20.5 -17 -46.5 -22 q-17 -2 -39 -3.5 q-22 -1.5 -43 -1.5 q-14 0 -27 8.5 q-13 8.5 -16 19.5 q-4 19 6 33 q10 14 29 14 q8 0 13.5 -0.5 q5.5 -0.5 10.5 -0.5 l22 0 q17 0 29.5 8.5 q12.5 8.5 22.5 37.5 q12 37 17 121 q3 62 4 152 l-219 -69 l0 -342 q0 -8 -3.5 -16 q-3.5 -8 -9.5 -14 q-6 -6 -13 -10 q-7 -4 -15 -4 q-8 0 -15.5 4 q-7.5 4 -13.5 10 q-6 6 -9.5 14 q-3.5 8 -3.5 16 l0 317 l-198 -62 l0 -330 q0 -27 4.5 -44 q4.5 -17 17 -27 q12.5 -10 36 -13.5 q23.5 -3.5 59.5 -3.5 l345 0 q28 0 46.5 5 q18.5 5 31.5 17.5 q13 12.5 20.5 34 q7.5 21.5 12.5 55.5 q8 22 24 33.5 q16 11.5 35 4.5 q11 -5 19 -19 q8 -14 6 -28 q-7 -51 -17 -85 q-10 -34 -30 -55.5 q-20 -21.5 -54.5 -30.5 q-34.5 -9 -91.5 -9 l-344 0 q-58 0 -97 7.5 q-39 7.5 -62.5 26 q-23.5 18.5 -33 51 q-9.5 32.5 -9.5 82.5 l0 302 l-117 -36 q-8 -2 -16.5 -1.5 q-8.5 0.5 -15.5 4 q-7 3.5 -12.5 9.5 q-5.5 6 -8.5 13 Z" /><glyph glyph-name="" unicode="&#x4e60;" d="M216 732 q0 8 3.5 15 q3.5 7 10 12.5 q6.5 5.5 14 9 q7.5 3.5 15.5 3.5 l690 0 q8 0 15.5 -3.5 q7.5 -3.5 14 -9 q6.5 -5.5 10 -12.5 q3.5 -7 3.5 -15 l0 -10 q-3 -195 -6 -327.5 q-3 -132.5 -8.5 -218 q-5.5 -85.5 -14.5 -130.5 q-9 -45 -24 -65 q-18 -27 -38.5 -37.5 q-20.5 -10.5 -49.5 -13.5 q-24 -3 -57.5 -2.5 q-33.5 0.5 -68.5 1.5 q-16 0 -29 10 q-13 10 -16 21 q-6 20 7 34 q13 14 40 13 q15 0 27 -0.5 q12 -0.5 24 -0.5 l41 0 q14 -1 23.5 2.5 q9.5 3.5 17.5 13.5 q12 13 20.5 59.5 q8.5 46.5 13.5 133.5 q5 87 8 220 q3 110 5 257 l-648 0 q-8 0 -15.5 3 q-7.5 3 -14 9 q-6.5 6 -10 13 q-3.5 7 -3.5 15 ZM216 97 q-3 7 -2 16 q1 9 5 17 q4 8 10.5 14 q6.5 6 14.5 8 q50 16 110 35 q60 19 125.5 41 q65.5 22 134.5 45.5 q69 23.5 138 46.5 q9 4 18 3 q9 -1 17 -5 q8 -4 13.5 -11 q5.5 -7 7.5 -15 q2 -12 -7 -26.5 q-9 -14.5 -21 -19.5 q-67 -23 -135 -47 q-68 -24 -133.5 -47 q-65.5 -23 -126.5 -44 q-61 -21 -114 -39 q-8 -3 -16.5 -2 q-8.5 1 -16.5 4.5 q-8 3.5 -13.5 9.5 q-5.5 6 -7.5 13 l-1 3 ZM368 530 q-7 5 -11.5 13.5 q-4.5 8.5 -5.5 17 q-1 8.5 1.5 17 q2.5 8.5 8.5 14.5 q9 8 25.5 9 q16.5 1 27.5 -7 q26 -17 53.5 -36.5 q27.5 -19.5 54 -39 q26.5 -19.5 51 -38.5 q24.5 -19 43.5 -36 q7 -5 10.5 -13 q3.5 -8 4 -16 q0.5 -8 -2 -16 q-2.5 -8 -7.5 -14 l-1 -1 q-6 -6 -14 -9 q-8 -3 -17 -3 q-9 0 -17.5 2.5 q-8.5 2.5 -15.5 8.5 q-17 16 -39.5 34.5 q-22.5 18.5 -47.5 37.5 q-25 19 -50.5 38 q-25.5 19 -50.5 37 Z" /><glyph glyph-name="" unicode="&#x4e66;" d="M512 795 q0 9 3 16.5 q3 7.5 9.5 13.5 q6.5 6 14 10 q7.5 4 15.5 4 l2 0 q8 0 15.5 -4 q7.5 -4 13.5 -10 q6 -6 9 -13.5 q3 -7.5 3 -16.5 l0 -127 l263 0 q8 0 15.5 -3.5 q7.5 -3.5 14 -10 q6.5 -6.5 10 -14 q3.5 -7.5 3.5 -15.5 l0 -227 l102 0 q8 0 16 -3.5 q8 -3.5 14 -9 q6 -5.5 9.5 -12.5 q3.5 -7 3.5 -14.5 q0 -7.5 -3 -14.5 l-1 -1 q-5 -65 -10 -112 q-6 -54 -13.5 -91 q-7.5 -37 -16.5 -59 q-9 -22 -20 -33 q-17 -18 -36 -24.5 q-19 -6.5 -46 -8.5 q-19 -1 -49.5 -0.5 q-30.5 0.5 -66.5 1.5 q-14 0 -27.5 9.5 q-13.5 9.5 -16.5 20.5 q-6 20 8 34 q14 14 41 13 q13 -1 23.5 -1.5 q10.5 -0.5 20.5 -0.5 l35 0 q16 0 25.5 1.5 q9.5 1.5 17.5 8.5 q9 8 16 27 q7 19 12.5 53 q5.5 34 10.5 85 q3 24 5 53 l-360 0 l0 -356 q0 -8 -3 -15.5 q-3 -7.5 -9 -14 q-6 -6.5 -13.5 -10 q-7.5 -3.5 -15.5 -3.5 l-2 0 q-8 0 -15.5 3.5 q-7.5 3.5 -14 10 q-6.5 6.5 -9.5 14 q-3 7.5 -3 15.5 l0 356 l-309 0 q-8 0 -16 3 q-8 3 -14 9 q-6 6 -9.5 13 q-3.5 7 -3.5 14.5 q0 7.5 3.5 14.5 q3.5 7 9.5 12.5 q6 5.5 14 9 q8 3.5 16 3.5 l309 0 l0 189 l-246 0 q-8 0 -16 3.5 q-8 3.5 -14 9.5 q-6 6 -9.5 13 q-3.5 7 -3.5 15 q0 8 3.5 15 q3.5 7 9.5 12.5 q6 5.5 14 9 q8 3.5 16 3.5 l246 0 l0 127 ZM597 587 l0 -189 l222 0 l0 183 q0 2 -2 4 q-2 2 -4 2 l-216 0 ZM852 731 q-7 5 -12 13 q-5 8 -6.5 16.5 q-1.5 8.5 0 16.5 q1.5 8 6.5 14 q8 9 23.5 10.5 q15.5 1.5 26.5 -4.5 q33 -22 68 -47 q35 -25 62 -46 q6 -4 10 -11.5 q4 -7.5 5.5 -15.5 q1.5 -8 -0.5 -16 q-2 -8 -6 -14 q-5 -6 -13 -9 q-8 -3 -16.5 -3.5 q-8.5 -0.5 -17.5 2 q-9 2.5 -15 6.5 q-24 21 -54 44 q-30 23 -61 44 Z" /><glyph glyph-name="" unicode="&#x4e70;" d="M613 601 q0 8 3.5 15 q3.5 7 10 13 q6.5 6 13.5 10 q7 4 15 4 q9 0 16.5 -4 q7.5 -4 13 -10.5 q5.5 -6.5 9 -14.5 q3.5 -8 3.5 -16 q-5 -138 -20 -247 q-3 -23 -8 -45 l327 0 q8 0 16 -3 q8 -3 14 -8.5 q6 -5.5 9.5 -12.5 q3.5 -7 3.5 -14 q0 -8 -3.5 -15 q-3.5 -7 -9.5 -12.5 q-6 -5.5 -14 -9 q-8 -3.5 -16 -3.5 l-349 0 q-14 -36 -32 -68 q-48 -83 -138.5 -141.5 q-90.5 -58.5 -245.5 -93.5 q-14 -4 -29.5 2.5 q-15.5 6.5 -21.5 16.5 q-10 18 0 34.5 q10 16.5 34 22.5 q91 21 155.5 51 q64.5 30 108 68.5 q43.5 38.5 69.5 87.5 l10 20 l-348 0 q-8 0 -16 3.5 q-8 3.5 -14 9 q-6 5.5 -9.5 12.5 q-3.5 7 -3.5 15 q0 7 3.5 14 q3.5 7 9.5 12.5 q6 5.5 14 8.5 q8 3 16 3 l375 0 l2 10 q14 60 19 131 q5 71 8 154 ZM209 739 q0 8 4 14.5 q4 6.5 10 12.5 q6 6 14 9.5 q8 3.5 16 3.5 l673 0 q9 0 16 -4 q2 0 3 -1 q1 1 2 3 q4 3 9 3 q2 0 4 0.5 q2 0.5 4 0.5 q4 2 10 1.5 q6 -0.5 10 -1.5 l11 -5 q8 -2 13.5 -9 q5.5 -7 9 -15 q3.5 -8 3.5 -16.5 q0 -8.5 -4 -16.5 q-21 -43 -42.5 -86.5 q-21.5 -43.5 -44.5 -77.5 q-7 -11 -22.5 -15.5 q-15.5 -4.5 -26.5 1.5 q-7 3 -12 10 q-5 7 -7 15.5 q-2 8.5 -0.5 18.5 q1.5 10 6.5 17 q20 35 40 77 l10 20 l-665 0 q-8 0 -16 3.5 q-8 3.5 -14 9 q-6 5.5 -10 12.5 q-4 7 -4 15 ZM679 93 q-9 4 -16 11.5 q-7 7.5 -9.5 15.5 q-2.5 8 -2.5 16.5 q0 8.5 5 15.5 q7 8 21 11.5 q14 3.5 25 -0.5 q79 -35 155 -75.5 q76 -40.5 134 -77.5 q8 -5 13.5 -12.5 q5.5 -7.5 7 -16 q1.5 -8.5 -0.5 -17.5 q-2 -9 -7 -16 q-9 -10 -26 -12 q-17 -2 -30 5 q-52 36 -123 76 q-71 40 -146 76 ZM365 567 q-9 5 -15 12 q-6 7 -9.5 15.5 q-3.5 8.5 -2 16.5 q1.5 8 6.5 15 q6 8 20 11 q14 3 25 -2 q35 -15 70.5 -34 q35.5 -19 61.5 -37 q8 -4 12.5 -11 q4.5 -7 6.5 -14.5 q2 -7.5 0.5 -15.5 q-1.5 -8 -5.5 -14 q-4 -6 -11.5 -9 q-7.5 -3 -16 -4 q-8.5 -1 -17 1 q-8.5 2 -15.5 6 q-22 16 -51.5 32.5 q-29.5 16.5 -59.5 31.5 ZM254 422 q-9 5 -15.5 12.5 q-6.5 7.5 -9 15.5 q-2.5 8 -1.5 16.5 q1 8.5 6 14.5 q6 8 20 11 q14 3 25 -2 q34 -13 68.5 -31 q34.5 -18 59.5 -35 q7 -3 12 -9.5 q5 -6.5 7 -14.5 q2 -8 1 -15.5 q-1 -7.5 -5 -13.5 q-5 -6 -12.5 -9.5 q-7.5 -3.5 -16 -4.5 q-8.5 -1 -17 0.5 q-8.5 1.5 -14.5 6.5 q-22 15 -50.5 30 q-28.5 15 -57.5 28 Z" /><glyph glyph-name="" unicode="&#x4e71;" d="M137 525 q0 7 4 14 q4 7 10 12 q6 5 13.5 8 q7.5 3 15.5 3 l184 0 l0 146 q-27 -4 -53 -7 q-49 -7 -95 -12 q-15 -1 -29 6 q-14 7 -17 17 q-5 15 7.5 29.5 q12.5 14.5 34.5 18.5 q46 5 94 12.5 q48 7.5 93 16 q45 8.5 85.5 18 q40.5 9.5 72.5 20.5 q9 3 21.5 0 q12.5 -3 18.5 -10 l3 -3 q8 -8 11 -17.5 q3 -9.5 0.5 -18.5 q-2.5 -9 -9.5 -15.5 q-7 -6.5 -19 -9.5 q-38 -11 -83 -21 q-27 -5 -55 -10 q1 -4 1 -8 l0 -152 l174 0 q8 0 16 -3 q8 -3 14 -8 q6 -5 9.5 -12 q3.5 -7 3.5 -14 q0 -7 -3.5 -14 q-3.5 -7 -9.5 -12.5 q-6 -5.5 -14 -8.5 q-8 -3 -16 -3 l-174 0 l0 -161 l135 0 q9 0 16.5 -3.5 q7.5 -3.5 13.5 -9.5 q6 -6 10 -13.5 q4 -7.5 4 -15.5 l0 -296 q0 -8 -3.5 -15.5 q-3.5 -7.5 -9.5 -14 q-6 -6.5 -13 -10 q-7 -3.5 -16 -3.5 q-7 0 -14.5 3.5 q-7.5 3.5 -13 10 q-5.5 6.5 -9.5 14.5 q-2 3 -3 7 l-276 0 q-1 -8 -3 -14 q-4 -8 -9.5 -14.5 q-5.5 -6.5 -12.5 -10 q-7 -3.5 -14 -3.5 q-7 0 -14 3.5 q-7 3.5 -13 10 q-6 6.5 -9.5 14 q-3.5 7.5 -3.5 15.5 l0 303 q0 8 4 15.5 q4 7.5 10 13.5 q6 6 14 9.5 q8 3.5 16 3.5 l132 0 l0 161 l-184 0 q-8 0 -15.5 3 q-7.5 3 -13.5 8.5 q-6 5.5 -10 12.5 q-4 7 -4 14 ZM706 785 q0 8 4 16 q4 8 10 14 q6 6 13 10 q7 4 15 4 q8 0 15.5 -4 q7.5 -4 13.5 -10 q6 -6 9.5 -14 q3.5 -8 3.5 -16 l0 -717 q0 -38 7.5 -48.5 q7.5 -10.5 33.5 -10.5 l111 0 q11 0 18 5.5 q7 5.5 12 19 q5 13.5 7.5 36.5 q2.5 23 4.5 58 q3 26 18 37.5 q15 11.5 34 3.5 q10 -5 18 -18 q8 -13 7 -26 q-4 -54 -10 -91 q-6 -37 -18 -60 q-12 -23 -32 -33 q-20 -10 -53 -10 l-128 0 q-32 0 -54.5 6.5 q-22.5 6.5 -35.5 22 q-13 15.5 -18.5 42.5 q-5.5 27 -5.5 67 l0 716 ZM267 55 l275 0 l0 190 q0 2 -1.5 4 q-1.5 2 -3.5 2 l-265 0 q-2 0 -3.5 -2 q-1.5 -2 -1.5 -4 l0 -190 Z" /><glyph glyph-name="" unicode="&#x4e86;" d="M560 449 q0 8 3.5 15.5 q3.5 7.5 9.5 14 q6 6.5 13 9.5 l1 1 q0 1 1 1 q2 9 8 17.5 q6 8.5 15 14.5 q39 23 78.5 50 q39.5 27 75.5 56 q35 27 65 55 l-591 0 q-8 0 -15.5 3 q-7.5 3 -14 9.5 q-6.5 6.5 -10 14 q-3.5 7.5 -3.5 14.5 q0 9 3.5 16 q3.5 7 10 13 q6.5 6 14 9 q7.5 3 15.5 3 l632 0 q8 0 16 -3 q3 -1 6 -3 q1 0 2 1 q5 5 13 5 q2 0 4.5 0.5 q2.5 0.5 3.5 1.5 l1 0 q6 1 14.5 -0.5 q8.5 -1.5 12.5 -5.5 l15 -11 q7 -5 11 -13 q4 -8 4.5 -17 q0.5 -9 -2 -17.5 q-2.5 -8.5 -8.5 -14.5 q-32 -33 -70 -65.5 q-38 -32.5 -79 -63.5 q-41 -31 -83.5 -58.5 q-42.5 -27.5 -83.5 -49.5 l0 -428 q0 -40 -12 -60.5 q-12 -20.5 -44 -30.5 q-26 -8 -68 -11 q-42 -3 -106 -3 q-14 0 -26.5 9.5 q-12.5 9.5 -17.5 20.5 q-7 22 5 38 q12 16 37 15 q42 -1 70.5 -1 q28.5 0 45.5 1 q16 1 22 5.5 q6 4.5 6 18.5 l0 424 Z" /><glyph glyph-name="" unicode="&#x4e88;" d="M563 362 q0 8 4 16 q2 4 5 9 l-377 0 q-7 0 -15 3.5 q-8 3.5 -14.5 9 q-6.5 5.5 -10 12.5 q-3.5 7 -3.5 14.5 q0 7.5 3.5 15 q3.5 7.5 10 13 q6.5 5.5 14.5 9 q8 3.5 15 3.5 l465 0 q-4 2 -7 3 q-34 17 -70.5 34.5 q-36.5 17.5 -74.5 35 q-38 17.5 -74 32.5 q-9 4 -16 10.5 q-7 6.5 -10 15.5 q-3 9 -2 17.5 q1 8.5 6 15.5 q6 9 20 13 q14 4 25 0 q36 -15 75 -31.5 q39 -16.5 77 -33.5 q2 -1 3 -2 q2 4 5 8 q6 8 15 14 q28 18 57.5 38.5 q29.5 20.5 56.5 42.5 q19 15 37 30 l-493 0 q-8 0 -16 3 q-8 3 -14 9 q-6 6 -9.5 12.5 q-3.5 6.5 -3.5 14.5 q0 7 3.5 14 q3.5 7 9.5 12.5 q6 5.5 14 8.5 q8 3 16 3 l542 0 q8 0 15 -3 q1 0 2 -1 q5 4 12 4 q2 0 4.5 0.5 q2.5 0.5 4.5 1.5 q6 1 14 -1 q8 -2 13 -6 l9 -7 q7 -6 11 -14 q4 -8 5 -17 q1 -9 -2.5 -17.5 q-3.5 -8.5 -10.5 -14.5 q-26 -25 -55 -49 q-29 -24 -60.5 -47.5 q-31.5 -23.5 -63.5 -43.5 q-22 -15 -43 -29 q33 -15 61 -28 q8 -4 14.5 -11 q6.5 -7 9 -15 q2.5 -8 2.5 -18 q0 -2 -1 -4 l169 0 q8 0 16 -3 q1 -1 2 -1 l0 1 q4 3 9 3 q2 0 4.5 0.5 q2.5 0.5 4.5 1.5 q4 1 10.5 1 q6.5 0 11.5 -3 l16 -7 q7 -3 13 -9.5 q6 -6.5 8.5 -14.5 q2.5 -8 2.5 -16.5 q0 -8.5 -4 -15.5 q-32 -49 -66 -97 q-34 -48 -68 -85 q-3 -5 -10 -8.5 q-7 -3.5 -14 -5 q-7 -1.5 -14 -1 q-7 0.5 -14 4.5 l-1 0 q-8 5 -12.5 12.5 q-4.5 7.5 -6 16 q-1.5 8.5 0 17.5 q1.5 9 6.5 16 q31 37 62 83 q10 15 19 30 l-277 0 q4 -5 6 -10 q3 -8 3 -16 l0 -342 q0 -37 -11 -56 q-11 -19 -40 -29 q-23 -7 -59.5 -9.5 q-36.5 -2.5 -90.5 -3.5 q-13 0 -26 9 q-13 9 -17 20 q-8 20 4.5 35.5 q12.5 15.5 36.5 14.5 l56 0 q21 0 36 1 q14 1 19 5 q5 4 5 15 l0 341 Z" /><glyph glyph-name="" unicode="&#x4e89;" d="M551 497 q0 5 2 11 l-227 0 q-8 0 -16 3 q-8 3 -14.5 8.5 q-6.5 5.5 -9.5 11.5 q-3 6 -4 12 q-9 -6 -18 -13 q-13 -10 -29.5 -8.5 q-16.5 1.5 -25.5 10.5 q-14 14 -10 34 q4 20 23 35 q70 49 122.5 106 q52.5 57 85.5 110 q7 10 20.5 16.5 q13.5 6.5 24.5 4.5 l5 -1 q11 -2 19 -8.5 q8 -6.5 11.5 -15 q3.5 -8.5 2.5 -18 q-1 -9.5 -7 -18.5 q-7 -9 -13 -18 l226 0 q8 0 15 -3 q8 -3 14 -8 q1 4 5 7 q4 4 10 4 q2 0 4 0.5 q2 0.5 4 0.5 q4 1 11.5 -0.5 q7.5 -1.5 12.5 -5.5 l11 -8 q6 -4 10.5 -11.5 q4.5 -7.5 6 -16 q1.5 -8.5 -0.5 -16.5 q-2 -8 -7 -15 q-26 -36 -58 -72 q-16 -17 -31 -33 l160 0 q8 0 15.5 -3.5 q7.5 -3.5 13.5 -9.5 q6 -6 9.5 -14 q3.5 -8 3.5 -17 l0 -133 l92 0 q8 0 15.5 -3 q7.5 -3 14 -8.5 q6.5 -5.5 10 -12 q3.5 -6.5 3.5 -14 q0 -7.5 -3.5 -14.5 q-3.5 -7 -10 -12.5 q-6.5 -5.5 -14 -8.5 q-7.5 -3 -15.5 -3 l-92 0 l0 -141 q0 -9 -3 -17 q-3 -8 -9 -14 q-6 -6 -13.5 -9.5 q-7.5 -3.5 -15.5 -3.5 q-6 0 -13 2 q-7 -3 -15 -3 l-223 0 l0 -124 q0 -37 -10.5 -56.5 q-10.5 -19.5 -38.5 -29.5 q-23 -8 -58.5 -10.5 q-35.5 -2.5 -90.5 -2.5 q-13 0 -25.5 8.5 q-12.5 8.5 -16.5 18.5 q-8 21 4.5 36 q12.5 15 37.5 15 q33 -1 53 -1 q20 0 35 1 q14 1 19.5 6 q5.5 5 5.5 16 l0 123 l-265 0 q-8 0 -16 3 q-8 3 -14 9 q-6 6 -9.5 13 q-3.5 7 -3.5 14 q0 7 3.5 13.5 q3.5 6.5 9.5 12 q6 5.5 14 9 q8 3.5 16 3.5 l265 0 l0 109 l-367 0 q-8 0 -16 3 q-8 3 -14 8.5 q-6 5.5 -9.5 12.5 q-3.5 7 -3.5 14.5 q0 7.5 3.5 14 q3.5 6.5 9.5 12 q6 5.5 14 8.5 q8 3 16 3 l367 0 l0 92 ZM633 582 q1 5 3 9 q4 10 11 17 q28 30 54 65 q5 6 10 13 l-229 0 q-13 0 -22 5 q-8 4 -12 11 q-22 -26 -46 -52 q-33 -35 -71 -68 l302 0 ZM846 329 l-210 0 l0 -109 l210 0 l0 109 ZM636 405 l210 0 l0 97 q0 2 -2 4 q-2 2 -4 2 l-205 0 q1 -6 1 -11 l0 -92 Z" /><glyph glyph-name="" unicode="&#x4e8b;" d="M554 799 q0 8 3.5 16 q3.5 8 9.5 14 q6 6 13.5 9.5 q7.5 3.5 15.5 3.5 l1 0 q9 0 16 -3.5 q7 -3.5 13 -9.5 q6 -6 9.5 -14 q3.5 -8 3.5 -16 l0 -34 l354 0 q17 0 30.5 -10.5 q13.5 -10.5 13.5 -23.5 q0 -13 -13.5 -23.5 q-13.5 -10.5 -30.5 -10.5 l-354 0 l0 -56 l254 0 q8 0 16 -4 q8 -4 14 -10 q6 -6 9.5 -14 q3.5 -8 3.5 -16 l0 -94 q0 -8 -3.5 -16 q-3.5 -8 -9.5 -14 q-6 -6 -14 -9.5 q-8 -3.5 -16 -3.5 l-254 0 l0 -66 l270 0 q8 0 16 -3.5 q8 -3.5 14 -10 q6 -6.5 9.5 -14.5 q3.5 -8 3.5 -16 l0 -81 l63 0 q15 0 28.5 -10 q13.5 -10 13.5 -22 q0 -13 -13.5 -23.5 q-13.5 -10.5 -28.5 -10.5 l-63 0 l0 -134 q0 -8 -3 -16 q-3 -8 -9 -14.5 q-6 -6.5 -13.5 -10 q-7.5 -3.5 -15.5 -3.5 l-2 0 q-7 0 -14.5 3.5 q-7.5 3.5 -14 10 q-6.5 6.5 -9.5 14.5 q-3 8 -3 16 l-229 0 l0 -61 q0 -37 -11 -54 q-11 -17 -35 -26 q-21 -8 -53.5 -10 q-32.5 -2 -82.5 -2 q-13 -1 -25.5 6.5 q-12.5 7.5 -15.5 16.5 q-7 18 6.5 31.5 q13.5 13.5 38.5 12.5 l41 0 q15 0 28 1 q14 1 19 6 q5 5 5 18 l0 61 l-277 0 q-17 0 -30.5 10.5 q-13.5 10.5 -13.5 22.5 q0 12 13.5 21.5 q13.5 9.5 30.5 9.5 l277 0 l0 70 l-365 0 q-16 0 -29.5 10.5 q-13.5 10.5 -13.5 23.5 q0 12 13.5 22 q13.5 10 29.5 10 l365 0 l0 65 l-268 0 q-17 0 -30.5 9 q-13.5 9 -13.5 21 q0 11 13.5 20.5 q13.5 9.5 30.5 9.5 l268 0 l0 66 l-240 0 q-8 0 -16 3.5 q-8 3.5 -14.5 9.5 q-6.5 6 -10 14 q-3.5 8 -3.5 16 l0 94 q0 8 3.5 16 q3.5 8 10 14 q6.5 6 14.5 10 q8 4 16 4 l240 0 l0 56 l-344 0 q-17 0 -30.5 10.5 q-13.5 10.5 -13.5 23.5 q0 13 13.5 23.5 q13.5 10.5 30.5 10.5 l344 0 l0 34 ZM639 203 l0 -70 l229 0 l0 70 l-229 0 ZM639 334 l0 -65 l229 0 l0 59 q0 2 -2 4 q-2 2 -4 2 l-223 0 ZM639 584 l0 -67 l206 0 q2 0 4 2 q2 2 2 4 l0 55 q0 2 -2 4 q-2 2 -4 2 l-206 0 ZM357 584 q-2 0 -4 -2 q-2 -2 -2 -4 l0 -55 q0 -2 2 -4 q2 -2 4 -2 l197 0 l0 67 l-197 0 Z" /><glyph glyph-name="" unicode="&#x4e8c;" d="M156 68 q0 8 3.5 15 q3.5 7 10 13 q6.5 6 14 9.5 q7.5 3.5 15.5 3.5 l804 0 q8 0 15.5 -3.5 q7.5 -3.5 13.5 -9.5 q6 -6 9.5 -13 q3.5 -7 3.5 -15 l0 -12 q0 -7 -3.5 -14.5 q-3.5 -7.5 -9.5 -13.5 q-6 -6 -13.5 -9.5 q-7.5 -3.5 -15.5 -3.5 l-804 0 q-8 0 -15.5 3.5 q-7.5 3.5 -14 9.5 q-6.5 6 -10 13.5 q-3.5 7.5 -3.5 14.5 l0 12 ZM241 658 q0 8 3.5 15.5 q3.5 7.5 9.5 13.5 q6 6 14 9.5 q8 3.5 16 3.5 l634 0 q8 0 15.5 -3.5 q7.5 -3.5 13.5 -9.5 q6 -6 10 -13.5 q4 -7.5 4 -15.5 l0 -7 q0 -8 -4 -15.5 q-4 -7.5 -10 -13.5 q-6 -6 -13.5 -9.5 q-7.5 -3.5 -15.5 -3.5 l-634 0 q-8 0 -16 3.5 q-8 3.5 -14 9.5 q-6 6 -9.5 13.5 q-3.5 7.5 -3.5 15.5 l0 7 Z" /><glyph glyph-name="" unicode="&#x4e8e;" d="M154 403 q0 8 3.5 15.5 q3.5 7.5 10 13.5 q6.5 6 14 9.5 q7.5 3.5 15.5 3.5 l368 0 l0 244 l-299 0 q-8 0 -15.5 3.5 q-7.5 3.5 -14 9.5 q-6.5 6 -10 13.5 q-3.5 7.5 -3.5 14.5 q0 9 3.5 16 q3.5 7 10 13 q6.5 6 14 9.5 q7.5 3.5 15.5 3.5 l669 0 q8 0 15.5 -3.5 q7.5 -3.5 13.5 -9.5 q6 -6 10 -13 q4 -7 4 -16 q0 -7 -4 -14.5 q-4 -7.5 -10 -13.5 q-6 -6 -13.5 -9.5 q-7.5 -3.5 -15.5 -3.5 l-281 0 l0 -244 l350 0 q9 0 16 -3.5 q7 -3.5 13.5 -9.5 q6.5 -6 10 -13.5 q3.5 -7.5 3.5 -15.5 q0 -8 -3.5 -15 q-3.5 -7 -10 -13 q-6.5 -6 -13.5 -9.5 q-7 -3.5 -16 -3.5 l-350 0 l0 -325 q0 -44 -12.5 -66 q-12.5 -22 -43.5 -32 q-25 -9 -67.5 -12 q-42.5 -3 -106.5 -4 q-13 0 -26 9.5 q-13 9.5 -17 21.5 q-9 22 3 39 q12 17 37 17 q41 -2 69 -1.5 q28 0.5 46 1.5 q16 0 22.5 5.5 q6.5 5.5 6.5 21.5 l0 325 l-368 0 q-8 0 -15.5 3.5 q-7.5 3.5 -14 9.5 q-6.5 6 -10 13 q-3.5 7 -3.5 15 Z" /><glyph glyph-name="" unicode="&#x4e91;" d="M154 442 q0 8 3.5 15 q3.5 7 9.5 13 q6 6 14 9.5 q8 3.5 15 3.5 l809 0 q7 0 15 -3.5 q8 -3.5 14 -9.5 q6 -6 9.5 -13 q3.5 -7 3.5 -15 l0 -4 q0 -7 -3.5 -14.5 q-3.5 -7.5 -9.5 -13.5 q-6 -6 -14 -9.5 q-8 -3.5 -15 -3.5 l-434 0 q-1 -8 -5 -15 q-59 -105 -126 -201 q-44 -64 -88 -117 l484 36 q-21 32 -43 64 q-25 36 -49 70 q-5 7 -6.5 16 q-1.5 9 0.5 18 q2 9 7 16.5 q5 7.5 13 11.5 l5 2 q11 6 27 2 q16 -4 24 -15 q26 -35 52.5 -72.5 q26.5 -37.5 51.5 -74.5 q25 -37 48 -73 q23 -36 41 -66 q3 -7 4 -15.5 q1 -8.5 -1 -16.5 q-2 -8 -6.5 -15 q-4.5 -7 -10.5 -10 l-8 -5 q-7 -4 -15.5 -4.5 q-8.5 -0.5 -17 2.5 q-8.5 3 -16 8.5 q-7.5 5.5 -12.5 13.5 q-17 30 -38 64 q-1 2 -3 5 q-1 -1 -2 -1 q-8 -5 -18 -6 q-143 -12 -241 -20.5 q-98 -8.5 -163 -14 q-65 -5.5 -103 -10 q-38 -4.5 -60 -7.5 q-11 -1 -21 1 q-10 2 -18 7 q-5 3 -9 8 q-8 2 -14 8 q-7 6 -11 15 q-2 8 -1 17 q1 9 5 18.5 q4 9.5 10 18 q6 8.5 12 15.5 q5 4 6.5 6 q1.5 2 4.5 5.5 q3 3.5 8.5 11.5 q5.5 8 17.5 23 q11 13 32.5 43.5 q21.5 30.5 47 71 q25.5 40.5 53.5 88.5 q20 36 39 73 l-262 0 q-7 0 -15 3.5 q-8 3.5 -14 9.5 q-6 6 -9.5 13.5 q-3.5 7.5 -3.5 14.5 l0 4 ZM264 723 q0 8 3.5 15.5 q3.5 7.5 10 13.5 q6.5 6 14.5 9 q8 3 15 3 l593 0 q8 0 16 -3 q8 -3 14 -9 q6 -6 9.5 -13.5 q3.5 -7.5 3.5 -15.5 l0 -2 q0 -8 -3.5 -15.5 q-3.5 -7.5 -9.5 -13.5 q-6 -6 -14 -9.5 q-8 -3.5 -16 -3.5 l-593 0 q-7 0 -15 3.5 q-8 3.5 -14.5 9.5 q-6.5 6 -10 13.5 q-3.5 7.5 -3.5 15.5 l0 2 Z" /><glyph glyph-name="" unicode="&#x4e92;" d="M184 748 q0 7 3.5 14.5 q3.5 7.5 9.5 13 q6 5.5 14 9 q8 3.5 16 3.5 l752 0 q9 0 16.5 -3.5 q7.5 -3.5 14 -9 q6.5 -5.5 10 -13 q3.5 -7.5 3.5 -15 q0 -7.5 -3.5 -14.5 q-3.5 -7 -10 -13 q-6.5 -6 -14 -9.5 q-7.5 -3.5 -16.5 -3.5 l-499 0 q3 -5 4 -11 q2 -9 1 -18 q-10 -57 -22 -118 q-1 -5 -1 -9 l314 0 q9 0 16 -3 q1 0 1 1 q2 2 4 2 q2 0 4 0.5 q2 0.5 3 1.5 l6 1 q2 0 4.5 0.5 q2.5 0.5 4.5 -0.5 l17 -1 q8 -1 15 -5.5 q7 -4.5 12 -11.5 q5 -7 8 -15 q3 -8 2 -15 q-5 -49 -12 -106.5 q-7 -57.5 -15 -118 q-8 -60.5 -16.5 -122 q-8.5 -61.5 -17.5 -115.5 q-1 -5 -3 -10 l202 0 q8 0 15.5 -3.5 q7.5 -3.5 13.5 -9 q6 -5.5 9.5 -12.5 q3.5 -7 3.5 -15 q0 -8 -3.5 -15.5 q-3.5 -7.5 -9.5 -13.5 q-6 -6 -13.5 -9 q-7.5 -3 -15.5 -3 l-817 0 q-7 0 -15 3 q-8 3 -14 9 q-6 6 -9.5 13.5 q-3.5 7.5 -3.5 15.5 q0 8 3.5 15 q3.5 7 9.5 12.5 q6 5.5 14 9 q8 3.5 15 3.5 l537 0 q-2 3 -3 7 q-2 9 0 18 q9 60 18 127 q1 2 1 3 l-349 0 q-8 0 -16 4 q-4 1 -8 3 q-10 -7 -20 -7 l-8 0 q-11 0 -19 4.5 q-8 4.5 -13.5 12 q-5.5 7.5 -7.5 17 q-2 9.5 1 19.5 q11 47 23.5 103 q12.5 56 24 115.5 q11.5 59.5 22.5 119 q11 59.5 20 112.5 q2 8 6 15 l-176 0 q-8 0 -16 3.5 q-8 3.5 -14 9.5 q-6 6 -9.5 13 q-3.5 7 -3.5 15 ZM784 473 l-338 0 q-3 -18 -6 -35 q-12 -60 -24 -116 q-6 -29 -12 -54 l341 0 q6 0 12 -2 q4 26 7 52 q9 65 16 122 q2 18 4 33 Z" /><glyph glyph-name="" unicode="&#x4e94;" d="M218 705 q0 8 3.5 15 q3.5 7 10 13 q6.5 6 14 9.5 q7.5 3.5 15.5 3.5 l673 0 q9 0 16 -3.5 q7 -3.5 13.5 -9.5 q6.5 -6 10 -13 q3.5 -7 3.5 -15 q0 -8 -3.5 -15.5 q-3.5 -7.5 -10 -13.5 q-6.5 -6 -13.5 -9.5 q-7 -3.5 -16 -3.5 l-340 0 q-12 -75 -25 -158 l-8 -50 l219 0 q7 0 14 -3 q2 3 4 3 q1 0 3 0.5 q2 0.5 4 0.5 l6 1 q2 0 5 0.5 q3 0.5 5 0.5 l18 -1 q9 -1 15.5 -5.5 q6.5 -4.5 12.5 -10.5 q6 -6 9 -13.5 q3 -7.5 3 -16.5 q-3 -40 -7 -87 q-4 -47 -8.5 -95.5 q-4.5 -48.5 -10.5 -96.5 q-4 -40 -8 -77 l159 0 q9 0 16 -3.5 q7 -3.5 13.5 -10 q6.5 -6.5 10 -13.5 q3.5 -7 3.5 -15 q0 -8 -3.5 -15 q-3.5 -7 -10 -13 q-6.5 -6 -13.5 -10 q-7 -4 -16 -4 l-806 0 q-7 0 -15 4 q-8 4 -14 10 q-6 6 -9.5 13 q-3.5 7 -3.5 15 q0 8 3.5 15 q3.5 7 9.5 13.5 q6 6.5 14 10 q8 3.5 15 3.5 l201 0 l0 2 q14 63 28.5 140.5 q14.5 77.5 27.5 159.5 q2 8 3 16 l-142 0 q-7 0 -15 3.5 q-8 3.5 -14.5 9 q-6.5 5.5 -10 13 q-3.5 7.5 -3.5 15.5 q0 8 3.5 15 q3.5 7 10 13 q6.5 6 14.5 9.5 q8 3.5 15 3.5 l155 0 q5 33 10 67 q12 74 21 141 l-241 0 q-8 0 -15.5 3.5 q-7.5 3.5 -14 9.5 q-6.5 6 -10 13.5 q-3.5 7.5 -3.5 15.5 ZM757 55 q5 48 10 99 q6 53 10.5 105 q4.5 52 7.5 100 q1 7 1 14 l-238 0 q-3 -18 -6 -35 q-14 -84 -28 -160 q-12 -68 -23 -123 l266 0 Z" /><glyph glyph-name="" unicode="&#x4e9a;" d="M142 16 q0 7 3.5 14.5 q3.5 7.5 10 13 q6.5 5.5 14 9 q7.5 3.5 15.5 3.5 l242 0 l0 644 l-212 0 q-8 0 -16 3.5 q-8 3.5 -14 9.5 q-6 6 -10 13.5 q-4 7.5 -4 14.5 q0 8 4 15.5 q4 7.5 10 13.5 q6 6 14 9.5 q8 3.5 16 3.5 l775 0 q8 0 15.5 -3.5 q7.5 -3.5 14 -9.5 q6.5 -6 10 -13.5 q3.5 -7.5 3.5 -15.5 q0 -7 -3.5 -14.5 q-3.5 -7.5 -10 -13.5 q-6.5 -6 -14 -9.5 q-7.5 -3.5 -15.5 -3.5 l-230 0 l0 -644 l254 0 q8 0 15.5 -3.5 q7.5 -3.5 13.5 -9 q6 -5.5 10 -13 q4 -7.5 4 -15 q0 -7.5 -4 -14.5 q-4 -7 -10 -13 q-6 -6 -13.5 -9.5 q-7.5 -3.5 -15.5 -3.5 l-829 0 q-8 0 -15.5 3.5 q-7.5 3.5 -14 9.5 q-6.5 6 -10 13 q-3.5 7 -3.5 15 ZM670 56 l0 644 l-153 0 l0 -644 l153 0 ZM919 519 q2 9 8 16 q6 7 13.5 11 q7.5 4 16.5 5.5 q9 1.5 17 -1.5 l1 0 q6 -3 12 -8.5 q6 -5.5 9.5 -13 q3.5 -7.5 4.5 -16 q1 -8.5 -2 -15.5 q-14 -32 -29 -66.5 q-15 -34.5 -31 -68 q-16 -33.5 -32 -65 q-16 -31.5 -32 -59.5 q-2 -7 -8 -12.5 q-6 -5.5 -13 -8.5 q-7 -3 -14.5 -3.5 q-7.5 -0.5 -14.5 1.5 q-8 3 -13.5 9 q-5.5 6 -8 14.5 q-2.5 8.5 -3 17 q-0.5 8.5 3.5 16.5 q14 27 29.5 58 q15.5 31 30.5 63 q15 32 29 64.5 q14 32.5 26 61.5 ZM196 497 q-3 7 -2.5 16 q0.5 9 3.5 16.5 q3 7.5 8 13.5 q5 6 13 9 q6 2 14 1 q8 -1 15 -4.5 q7 -3.5 13 -9 q6 -5.5 9 -12.5 q16 -32 31.5 -66.5 q15.5 -34.5 30 -68.5 q14.5 -34 27.5 -66.5 q13 -32.5 22 -59.5 q3 -7 2 -14.5 q-1 -7.5 -4 -15 q-3 -7.5 -8.5 -13 q-5.5 -5.5 -11.5 -8.5 l-2 -1 q-9 -3 -17.5 -2 q-8.5 1 -16.5 5 q-8 4 -14.5 11 q-6.5 7 -8.5 16 q-9 28 -20.5 59 q-11.5 31 -25 63.5 q-13.5 32.5 -28 66 q-14.5 33.5 -29.5 64.5 Z" /><glyph glyph-name="" unicode="&#x4e9b;" d="M145 340 q-1 8 1.5 16 q2.5 8 8.5 14.5 q6 6.5 13.5 11 q7.5 4.5 15.5 4.5 q12 2 25 3 q-1 1 -1 2 q-4 8 -4 17 l0 282 q0 9 3 16.5 q3 7.5 9 13.5 q6 6 13 10 q7 4 14 4 q8 0 15 -4 q7 -4 12.5 -10 q5.5 -6 8.5 -13.5 q3 -7.5 3 -15.5 l0 -285 q0 -4 -1 -9 q36 4 76 9 q6 1 11 1 q-3 8 -3 16 l0 375 q0 9 3.5 16.5 q3.5 7.5 9.5 13.5 q6 6 13.5 10 q7.5 4 15.5 4 q8 0 15 -4 q7 -4 13 -10 q6 -6 9.5 -13.5 q3.5 -7.5 3.5 -15.5 l0 -125 l105 0 q9 0 17 -3 q8 -3 14 -8.5 q6 -5.5 9.5 -12 q3.5 -6.5 3.5 -14 q0 -7.5 -3.5 -14 q-3.5 -6.5 -9.5 -12.5 q-6 -6 -14 -9 q-8 -3 -17 -3 l-105 0 l0 -175 q0 -3 -1 -6 q54 6 110 13 q9 1 17 -2 q8 -3 15 -8 q7 -5 11.5 -12 q4.5 -7 4.5 -15 q0 -14 -11.5 -26 q-11.5 -12 -25.5 -14 q-101 -13 -199 -26 q-98 -13 -177 -22 q-7 -1 -15.5 1.5 q-8.5 2.5 -15 7.5 q-6.5 5 -11 11.5 q-4.5 6.5 -5.5 14.5 ZM647 798 q0 9 3.5 16.5 q3.5 7.5 10 13.5 q6.5 6 13.5 10 q7 4 15 4 l1 0 q8 0 15 -4 q7 -4 13 -10 q6 -6 9.5 -13.5 q3.5 -7.5 3.5 -16.5 l0 -151 q22 8 43 16 q27 11 53 22 q26 11 49.5 22 q23.5 11 41.5 23 q11 4 26.5 2.5 q15.5 -1.5 24.5 -10.5 l2 -2 q7 -8 10 -17.5 q3 -9.5 1 -18 q-2 -8.5 -8 -16 q-6 -7.5 -16 -11.5 q-49 -24 -106.5 -45.5 q-57.5 -21.5 -114.5 -39.5 q-3 -1 -6 -1 l0 -119 q0 -27 9 -35 q9 -8 42 -8 l148 0 q9 0 16 2.5 q7 2.5 11 9.5 q4 7 7 19 q3 12 4 32 q8 7 15 16 q7 9 14 16 q7 7 14.5 10.5 q7.5 3.5 16.5 -0.5 q11 -4 19 -18 q8 -14 5 -27 q-5 -41 -11.5 -67.5 q-6.5 -26.5 -19 -42.5 q-12.5 -16 -33 -22.5 q-20.5 -6.5 -52.5 -6.5 l-163 0 q-37 0 -61.5 6 q-24.5 6 -38.5 19.5 q-14 13.5 -20 37 q-6 23.5 -6 59.5 l0 346 ZM154 -16 q0 8 4 15.5 q4 7.5 10 13.5 q6 6 14 9 q8 3 16 3 l805 0 q9 0 16.5 -3 q7.5 -3 13.5 -9 q6 -6 10 -13.5 q4 -7.5 4 -15.5 q0 -8 -4 -15.5 q-4 -7.5 -10 -13.5 q-6 -6 -13.5 -9.5 q-7.5 -3.5 -16.5 -3.5 l-805 0 q-8 0 -16 3.5 q-8 3.5 -14 9.5 q-6 6 -10 13.5 q-4 7.5 -4 15.5 ZM268 202 q0 8 3.5 15 q3.5 7 9.5 12.5 q6 5.5 14 9 q8 3.5 16 3.5 l590 0 q8 0 16 -3.5 q8 -3.5 14 -9 q6 -5.5 9.5 -12.5 q3.5 -7 3.5 -15 q0 -8 -3.5 -15 q-3.5 -7 -9.5 -13 q-6 -6 -14 -9.5 q-8 -3.5 -16 -3.5 l-590 0 q-8 0 -16 3.5 q-8 3.5 -14 9.5 q-6 6 -9.5 13 q-3.5 7 -3.5 15 Z" /><glyph glyph-name="" unicode="&#x4ea4;" d="M731 391 q7 13 23.5 21.5 q16.5 8.5 29.5 3.5 l3 -1 q9 -2 15.5 -8.5 q6.5 -6.5 9.5 -14 q3 -7.5 3.5 -17 q0.5 -9.5 -4.5 -17.5 q-41 -88 -99 -156 q-22 -27 -47 -51 l6 -4 q129 -93 319 -134 q25 -6 33.5 -24 q8.5 -18 -3.5 -39 q-6 -10 -20 -16 q-14 -6 -26 -3 q-104 22 -192 59.5 q-88 37.5 -159 90.5 l-20 16 q-11 -9 -22 -16 q-73 -53 -160.5 -91 q-87.5 -38 -188.5 -65 q-13 -3 -28.5 3 q-15.5 6 -22.5 16 q-6 10 -6.5 20 q-0.5 10 3.5 18 q4 8 12 14.5 q8 6.5 19 9.5 q95 23 175.5 57 q80.5 34 146.5 81 q5 4 11 8 q-24 24 -45 50 q-55 69 -95 153 q-4 8 -4.5 17 q-0.5 9 2.5 16.5 q3 7.5 9 13.5 q6 6 14 9 q6 2 13 0.5 q7 -1.5 14.5 -5.5 q7.5 -4 13.5 -9 q6 -5 9 -12 q49 -104 130 -181 q23 23 44 48 q51 62 84 139 ZM165 665 q0 8 3.5 15.5 q3.5 7.5 9.5 13 q6 5.5 14 9 q8 3.5 16 3.5 l387 0 q-2 0 -3 1 q-8 3 -14.5 9.5 q-6.5 6.5 -10.5 14.5 q-5 11 -12.5 23.5 q-7.5 12.5 -15.5 24.5 q-5 9 -5.5 18.5 q-0.5 9.5 3 18 q3.5 8.5 9.5 15.5 q6 7 14 10 l4 0 q11 5 26 -0.5 q15 -5.5 21 -16.5 q11 -16 21 -33.5 q10 -17.5 18 -32.5 q4 -7 3.5 -15 q-0.5 -8 -3 -15.5 q-2.5 -7.5 -7.5 -13.5 q-6 -5 -13 -8 l360 0 q8 0 16 -3.5 q8 -3.5 14 -9 q6 -5.5 9.5 -13 q3.5 -7.5 3.5 -15.5 q0 -8 -3.5 -15 q-3.5 -7 -9.5 -13 q-6 -6 -14 -9.5 q-8 -3.5 -16 -3.5 l-782 0 q-8 0 -16 3.5 q-8 3.5 -14 9.5 q-6 6 -9.5 13 q-3.5 7 -3.5 15 ZM760 517 q-9 6 -13.5 15 q-4.5 9 -5 18.5 q-0.5 9.5 3 18 q3.5 8.5 11.5 13.5 q9 7 23.5 7 q14.5 0 22.5 -6 q27 -18 55 -39 q28 -21 54.5 -43 q26.5 -22 50.5 -43.5 q24 -21.5 44 -41.5 q6 -5 9 -13.5 q3 -8.5 2.5 -17 q-0.5 -8.5 -4 -16 q-3.5 -7.5 -9.5 -12.5 l-3 -2 q-13 -11 -31.5 -8.5 q-18.5 2.5 -30.5 13.5 q-16 18 -37 38 q-21 20 -44.5 40.5 q-23.5 20.5 -48 40.5 q-24.5 20 -49.5 38 ZM394 574 q8 9 22.5 13 q14.5 4 24.5 -1 l4 -1 q9 -3 15 -10.5 q6 -7.5 8 -16.5 q2 -9 -0.5 -18.5 q-2.5 -9.5 -9.5 -16.5 q-43 -47 -95 -91.5 q-52 -44.5 -101 -79.5 q-11 -7 -27 -6 q-16 1 -25 10 q-15 15 -12 36 q3 21 23 34 q47 31 92.5 69.5 q45.5 38.5 80.5 78.5 Z" /><glyph glyph-name="" unicode="&#x4ea6;" d="M159 631 q0 8 4 15.5 q4 7.5 10 13 q6 5.5 14 9 q8 3.5 16 3.5 l794 0 q9 0 16.5 -3.5 q7.5 -3.5 14 -9 q6.5 -5.5 10 -13 q3.5 -7.5 3.5 -15 q0 -7.5 -3.5 -15 q-3.5 -7.5 -10 -14 q-6.5 -6.5 -14 -9.5 q-7.5 -3 -16.5 -3 l-219 0 l0 -1 q4 -8 4 -16 l0 -548 q0 -39 -10 -59 q-10 -20 -36 -31 q-22 -8 -56 -10.5 q-34 -2.5 -83 -3.5 q-14 -1 -27.5 9 q-13.5 10 -16.5 21 q-7 21 5.5 37 q12.5 16 37.5 16 q28 -1 46 -1 q18 0 31 1 q13 0 18 4.5 q5 4.5 5 16.5 l0 548 q0 8 3 16 l1 1 l-163 0 q2 -6 2 -13 l0 -101 q0 -62 -6.5 -131 q-6.5 -69 -29.5 -139 q-23 -70 -66.5 -138 q-43.5 -68 -118.5 -128 q-6 -6 -14 -8.5 q-8 -2.5 -16.5 -2 q-8.5 0.5 -16 3.5 q-7.5 3 -12.5 8 q-14 14 -11.5 34.5 q2.5 20.5 18.5 35.5 q64 54 101.5 112 q37.5 58 57 117.5 q19.5 59.5 24.5 119.5 q5 60 5 117 l0 101 q0 6 2 12 l-253 0 q-8 0 -16 3 q-8 3 -14 9.5 q-6 6.5 -10 14 q-4 7.5 -4 14.5 ZM846 416 q-4 8 -5 17 q-1 9 1.5 17.5 q2.5 8.5 8 15 q5.5 6.5 13.5 10.5 q6 3 13 2.5 q7 -0.5 14 -3.5 q7 -3 13 -7 q6 -4 9 -10 q19 -31 37.5 -65 q18.5 -34 35 -68 q16.5 -34 30 -66 q13.5 -32 22.5 -60 q4 -12 -2.5 -27 q-6.5 -15 -18.5 -20 l-2 -1 q-8 -4 -17.5 -3.5 q-9.5 0.5 -18 5 q-8.5 4.5 -15 12 q-6.5 7.5 -10.5 16.5 q-8 25 -20 54.5 q-12 29.5 -26 59.5 q-14 30 -30 61 q-16 31 -32 60 ZM275 447 q2 7 7.5 14 q5.5 7 12 11.5 q6.5 4.5 15 6.5 q8.5 2 15.5 0 l2 0 q8 -2 14.5 -7 q6.5 -5 10.5 -12.5 q4 -7.5 5.5 -15.5 q1.5 -8 -0.5 -17 q-20 -66 -47.5 -127.5 q-27.5 -61.5 -59.5 -109.5 q-5 -7 -11.5 -11.5 q-6.5 -4.5 -14.5 -6 q-8 -1.5 -16 -0.5 q-8 1 -14 5 q-8 4 -12.5 12.5 q-4.5 8.5 -5.5 17.5 q-1 9 0.5 18.5 q1.5 9.5 6.5 18.5 q29 43 52 95 q23 52 40 108 ZM540 778 q-5 8 -5 17.5 q0 9.5 3 18 q3 8.5 9.5 15 q6.5 6.5 14.5 9.5 l4 1 q11 4 26 -1.5 q15 -5.5 21 -17.5 q13 -19 26 -39.5 q13 -20.5 21 -38.5 q5 -7 4.5 -15.5 q-0.5 -8.5 -3.5 -16.5 q-3 -8 -8.5 -14 q-5.5 -6 -13.5 -9 l-3 -1 q-7 -3 -16 -2 q-9 1 -17 4.5 q-8 3.5 -14.5 9.5 q-6.5 6 -9.5 14 q-7 14 -17.5 32 q-10.5 18 -21.5 34 Z" /><glyph glyph-name="" unicode="&#x4ea7;" d="M222 422 q0 8 3.5 16 q3.5 8 9.5 14 q6 6 13.5 9.5 q7.5 3.5 14.5 3.5 l4 0 q9 0 16 -3 l6 -4 l8 4 q8 3 16 3 l411 0 q-1 2 -1 4 q-3 8 -2.5 17.5 q0.5 9.5 4.5 17.5 q12 19 24 43.5 q12 24.5 21 45.5 q3 8 9 14 q6 6 14 9.5 q8 3.5 16.5 4.5 q8.5 1 16.5 -1 l1 0 q10 -4 16 -10.5 q6 -6.5 9 -15.5 q3 -9 1.5 -18 q-1.5 -9 -7.5 -18 q-14 -25 -29 -52 q-13 -22 -25 -41 l195 0 q8 0 15.5 -3 q7.5 -3 14 -9 q6.5 -6 10 -13.5 q3.5 -7.5 3.5 -15.5 q0 -8 -3.5 -15 q-3.5 -7 -10 -13 q-6.5 -6 -14 -9.5 q-7.5 -3.5 -15.5 -3.5 l-678 0 l0 -56 q0 -40 -3 -87 q-3 -47 -11.5 -96 q-8.5 -49 -24 -97.5 q-15.5 -48.5 -39.5 -91.5 q-4 -9 -12 -14 q-8 -5 -17 -6.5 q-9 -1.5 -18 0.5 q-9 2 -16 8 q-6 4 -9.5 12.5 q-3.5 8.5 -4.5 18 q-1 9.5 0 19 q1 9.5 5 18.5 q21 37 33 77 q12 40 19 80.5 q7 40.5 9 80.5 q2 40 2 79 l0 94 ZM209 685 q0 8 3.5 15 q3.5 7 9.5 12.5 q6 5.5 14 9 q8 3.5 16 3.5 l329 0 q-3 3 -4 7 q-6 11 -14 24 q-8 13 -17 24 q-5 8 -4.5 16.5 q0.5 8.5 4 16.5 q3.5 8 10.5 14 q7 6 17 8 l8 2 q9 3 21.5 -1.5 q12.5 -4.5 18.5 -13.5 q11 -13 21 -28.5 q10 -15.5 18 -29.5 q4 -7 4 -15 q0 -8 -4 -16 q-1 -4 -4 -8 l306 0 q8 0 15.5 -3.5 q7.5 -3.5 14 -9 q6.5 -5.5 10 -12.5 q3.5 -7 3.5 -15 q0 -8 -3.5 -14.5 q-3.5 -6.5 -10 -12.5 q-6.5 -6 -14 -9.5 q-7.5 -3.5 -15.5 -3.5 l-710 0 q-8 0 -16 3.5 q-8 3.5 -14 9.5 q-6 6 -9.5 12.5 q-3.5 6.5 -3.5 14.5 ZM387 566 q-4 8 -5 17.5 q-1 9.5 1 18 q2 8.5 8 15.5 q6 7 14 11 q10 4 25 0 q15 -4 21 -14 q14 -19 27.5 -40 q13.5 -21 23.5 -39 q4 -7 4 -15 q0 -8 -2.5 -15 q-2.5 -7 -7 -13.5 q-4.5 -6.5 -11.5 -9.5 q-8 -3 -16.5 -3 q-8.5 0 -17 3.5 q-8.5 3.5 -15.5 9 q-7 5.5 -11 12.5 q-7 14 -17 30.5 q-10 16.5 -21 31.5 Z" /><glyph glyph-name="" unicode="&#x4eab;" d="M153 145 q0 7 3.5 13.5 q3.5 6.5 9.5 12 q6 5.5 14 8.5 q8 3 15 3 l359 0 l0 12 q0 9 3.5 16.5 q3.5 7.5 9.5 14 q6 6.5 14 10.5 l6 2 q11 13 32 19 q33 9 65 19 q30 9 57 20 l-450 0 q-16 0 -29.5 10.5 q-13.5 10.5 -13.5 23.5 q0 12 13.5 22.5 q13.5 10.5 29.5 10.5 l538 0 q14 0 26 -8 l5 5 q6 3 13 3 q2 0 4.5 0.5 q2.5 0.5 4.5 0.5 q5 1 13.5 -1 q8.5 -2 12.5 -6 q8 -8 11 -16.5 q3 -8.5 2 -18 q-1 -9.5 -6.5 -17 q-5.5 -7.5 -15.5 -12.5 q-30 -14 -63.5 -28 q-33.5 -14 -69 -26 q-35.5 -12 -71.5 -22 q-27 -8 -53 -15 l0 -19 l364 0 q8 0 15.5 -3 q7.5 -3 13.5 -8.5 q6 -5.5 10 -12 q4 -6.5 4 -13.5 q0 -6 -4 -12.5 q-4 -6.5 -10 -11.5 q-6 -5 -13.5 -8.5 q-7.5 -3.5 -15.5 -3.5 l-364 0 l0 -108 q0 -33 -11 -49.5 q-11 -16.5 -40 -25.5 q-24 -6 -61 -7.5 q-37 -1.5 -92 -1.5 q-12 0 -24 7.5 q-12 7.5 -16 15.5 q-7 18 6 31.5 q13 13.5 38 12.5 l55 0 q20 0 33 1 q14 1 19 4.5 q5 3.5 5 14.5 l0 105 l-359 0 q-7 0 -15 3.5 q-8 3.5 -14 8.5 q-6 5 -9.5 11.5 q-3.5 6.5 -3.5 12.5 ZM288 582 q0 8 3.5 15.5 q3.5 7.5 10 13.5 q6.5 6 14.5 10 q8 4 16 4 l542 0 q9 0 17 -4 q8 -4 14 -10 q6 -6 9.5 -13.5 q3.5 -7.5 3.5 -15.5 l0 -121 q0 -7 -3.5 -15 q-3.5 -8 -9.5 -14 q-6 -6 -14 -9.5 q-8 -3.5 -17 -3.5 l-542 0 q-8 0 -16 3.5 q-8 3.5 -14.5 9.5 q-6.5 6 -10 14 q-3.5 8 -3.5 15 l0 121 ZM164 722 q0 6 3.5 12.5 q3.5 6.5 9.5 11.5 q6 5 14 8 q8 3 16 3 l354 0 q-2 5 -5 11 q-7 12 -13 23 q-5 16 4.5 32 q9.5 16 28.5 19 l6 1 q11 3 25 -4.5 q14 -7.5 18 -18.5 q8 -13 15 -27 l13 -26 q2 -5 2 -10 l336 0 q9 0 16.5 -3 q7.5 -3 14 -8 q6.5 -5 10 -11.5 q3.5 -6.5 3.5 -12.5 q0 -14 -13.5 -25.5 q-13.5 -11.5 -30.5 -11.5 l-784 0 q-17 0 -30 11.5 q-13 11.5 -13 25.5 ZM377 563 q-2 0 -4 -2 q-2 -2 -2 -4 l0 -71 q0 -2 2 -4 q2 -2 4 -2 l447 0 q2 0 4 2 q2 2 2 4 l0 71 q0 2 -2 4 q-2 2 -4 2 l-447 0 Z" /><glyph glyph-name="" unicode="&#x4eac;" d="M284 520 q0 8 4 15.5 q4 7.5 10 13.5 q6 6 14 9.5 q8 3.5 16 3.5 l553 0 q9 0 16.5 -3.5 q7.5 -3.5 14 -9.5 q6.5 -6 10 -13.5 q3.5 -7.5 3.5 -15.5 l0 -213 q0 -7 -3.5 -15 q-3.5 -8 -10 -14 q-6.5 -6 -14 -9.5 q-7.5 -3.5 -16.5 -3.5 l-237 0 l0 -2 q4 -7 4 -15 l0 -236 q0 -36 -10 -54.5 q-10 -18.5 -38 -28.5 q-21 -8 -57 -10 q-36 -2 -89 -2 q-13 -1 -26 8.5 q-13 9.5 -16 19.5 q-7 20 6 35.5 q13 15.5 37 14.5 l50 0 q18 0 32 1 q13 0 17.5 4 q4.5 4 4.5 14 l0 234 q0 8 4 15 q0 1 1 2 l-236 0 q-8 0 -16 3.5 q-8 3.5 -14 9.5 q-6 6 -10 14 q-4 8 -4 15 l0 213 ZM163 679 q0 8 3.5 15.5 q3.5 7.5 9.5 13 q6 5.5 14 9 q8 3.5 16 3.5 l365 0 q-7 13 -16 29 q-9 16 -20 32 q-4 8 -4 17 q0 9 3 17 q3 8 9.5 14.5 q6.5 6.5 14.5 9.5 l6 1 q11 4 25.5 -2 q14.5 -6 20.5 -17 q13 -17 24.5 -36 q11.5 -19 19.5 -35 q4 -8 4 -17 q0 -7 -2 -13 l339 0 q8 0 16 -3.5 q8 -3.5 14 -9 q6 -5.5 9.5 -13 q3.5 -7.5 3.5 -15.5 q0 -8 -3.5 -15 q-3.5 -7 -9.5 -13.5 q-6 -6.5 -14 -9.5 q-8 -3 -16 -3 l-789 0 q-8 0 -16 3 q-8 3 -14 9.5 q-6 6.5 -9.5 13.5 q-3.5 7 -3.5 15 ZM374 489 q-2 0 -4 -2 q-2 -2 -2 -5 l0 -137 q0 -3 2 -5 q2 -2 4 -2 l456 0 q2 0 4 2 q2 2 2 5 l0 137 q0 3 -2 5 q-2 2 -4 2 l-456 0 ZM814 125 q-6 7 -8.5 16 q-2.5 9 -1 18 q1.5 9 5.5 17 q4 8 12 12 q11 6 26.5 4 q15.5 -2 24.5 -12 q18 -18 37 -38 q19 -20 37 -39.5 q18 -19.5 34 -38.5 q16 -19 29 -36 q5 -6 7 -14 q2 -8 0.5 -16.5 q-1.5 -8.5 -5 -15.5 q-3.5 -7 -10.5 -11 l-2 -1 q-8 -5 -16.5 -6 q-8.5 -1 -17 0.5 q-8.5 1.5 -16.5 6.5 q-8 5 -14 12 q-11 16 -25.5 33.5 q-14.5 17.5 -30 36 q-15.5 18.5 -32.5 37 q-17 18.5 -34 35.5 ZM311 175 q8 11 23.5 16.5 q15.5 5.5 27.5 0.5 l1 0 q9 -3 15 -10 q6 -7 8.5 -15.5 q2.5 -8.5 1 -18 q-1.5 -9.5 -7.5 -17.5 q-29 -41 -65 -81 q-36 -40 -73 -73 q-6 -6 -13.5 -9 q-7.5 -3 -15.5 -3.5 q-8 -0.5 -15 1.5 q-7 2 -12 6 q-7 5 -9.5 13.5 q-2.5 8.5 -2 17.5 q0.5 9 4.5 18 q4 9 11 16 q34 31 66.5 67 q32.5 36 54.5 71 Z" /><glyph glyph-name="" unicode="&#x4eae;" d="M299 584 q0 8 3.5 15.5 q3.5 7.5 10 14 q6.5 6.5 14.5 10 q8 3.5 15 3.5 l522 0 q8 0 16 -3.5 q8 -3.5 14 -10 q6 -6.5 9.5 -14 q3.5 -7.5 3.5 -15.5 l0 -112 q0 -8 -3.5 -16 q-3.5 -8 -9.5 -14 q-6 -6 -14 -9.5 q-8 -3.5 -16 -3.5 l-522 0 q-7 0 -15 3.5 q-8 3.5 -14.5 9.5 q-6.5 6 -10 14 q-3.5 8 -3.5 16 l0 112 ZM395 200 q3 15 15.5 27.5 q12.5 12.5 28.5 12.5 l4 0 q6 0 12 -2 q7 2 14 2 l255 0 q8 0 15 -2 q7 2 13 2 l6 0 q8 0 15 -3.5 q7 -3.5 13.5 -9.5 q6.5 -6 9.5 -14 q3 -8 3 -17 l0 -159 q0 -19 6.5 -24.5 q6.5 -5.5 29.5 -5.5 l95 0 q6 0 9.5 2 q3.5 2 6 7 q2.5 5 4 14 q1.5 9 1.5 25 q9 3 17 11 l14 14 q7 7 14.5 11 q7.5 4 16.5 1 q10 -4 18 -18 q8 -14 5 -28 q-4 -33 -10 -54.5 q-6 -21.5 -16.5 -34 q-10.5 -12.5 -27 -17.5 q-16.5 -5 -42.5 -5 l-118 0 q-34 0 -55.5 4.5 q-21.5 4.5 -34 16.5 q-12.5 12 -17 32 q-4.5 20 -4.5 49 l0 133 l-232 0 q-5 -42 -16 -75 q-14 -43 -41.5 -75 q-27.5 -32 -72 -54.5 q-44.5 -22.5 -111.5 -38.5 q-14 -4 -29 2 q-15 6 -20 16 q-11 18 -1 34.5 q10 16.5 35 24.5 q48 11 79.5 27.5 q31.5 16.5 50.5 39.5 q19 23 28.5 54.5 q9.5 31.5 13.5 74.5 ZM174 328 q0 8 3.5 15.5 q3.5 7.5 10 13.5 q6.5 6 14.5 9.5 q8 3.5 16 3.5 l763 0 q8 0 16 -3.5 q8 -3.5 14 -9.5 q6 -6 9.5 -13.5 q3.5 -7.5 3.5 -15.5 l0 -86 q0 -8 -3 -15.5 q-3 -7.5 -9.5 -14 q-6.5 -6.5 -13.5 -10 q-7 -3.5 -15 -3.5 q-8 0 -15.5 3.5 q-7.5 3.5 -13.5 10 q-6 6.5 -9.5 14 q-3.5 7.5 -3.5 15.5 l0 55 q0 3 -2 5 q-2 2 -4 2 l-675 0 q-2 0 -4 -2 q-2 -2 -2 -5 l0 -56 q0 -8 -3.5 -15.5 q-3.5 -7.5 -9 -14 q-5.5 -6.5 -12.5 -10 q-7 -3.5 -14.5 -3.5 q-7.5 0 -15 3.5 q-7.5 3.5 -13 10 q-5.5 6.5 -9 14 q-3.5 7.5 -3.5 15.5 l0 87 ZM158 716 q0 14 13 24.5 q13 10.5 30 10.5 l372 0 q-1 1 -1 3 q-5 9 -11.5 20 q-6.5 11 -13.5 21 q-6 14 4.5 28.5 q10.5 14.5 28.5 18.5 l7 1 q11 3 23 -2.5 q12 -5.5 16 -13.5 q8 -11 15.5 -22.5 q7.5 -11.5 12.5 -22.5 q4 -6 2.5 -13.5 q-1.5 -7.5 -4.5 -14.5 l-3 -3 l348 0 q16 0 29.5 -10.5 q13.5 -10.5 13.5 -24.5 q0 -7 -3.5 -13.5 q-3.5 -6.5 -9.5 -11.5 q-6 -5 -14 -8 q-8 -3 -16 -3 l-796 0 q-8 0 -16 3 q-8 3 -14 8 q-6 5 -9.5 11.5 q-3.5 6.5 -3.5 13.5 ZM388 568 q-2 0 -4 -2 q-2 -2 -2 -4 l0 -69 q0 -2 2 -3.5 q2 -1.5 4 -1.5 l426 0 q2 0 3.5 1.5 q1.5 1.5 1.5 3.5 l0 69 q0 2 -1.5 4 q-1.5 2 -3.5 2 l-426 0 Z" /><glyph glyph-name="" unicode="&#x4eb2;" d="M370 576 q-4 9 -3.5 18 q0.5 9 4 17.5 q3.5 8.5 9.5 14.5 q6 6 15 8 q11 3 25 -3 q14 -6 19 -17 q13 -21 24.5 -43.5 q11.5 -22.5 19.5 -40.5 q2 -8 1.5 -15.5 q-0.5 -7.5 -4 -15 q-3.5 -7.5 -9.5 -12.5 l-2 -2 l229 0 l0 1 q-1 9 3 19 q15 21 29.5 46.5 q14.5 25.5 25.5 48.5 q3 7 8 13.5 q5 6.5 12 11 q7 4.5 14.5 6 q7.5 1.5 14.5 0.5 q9 -2 16 -8 q7 -6 11 -14 q4 -8 4 -17.5 q0 -9.5 -4 -18.5 q-14 -27 -30 -55 q-11 -18 -20 -33 l206 0 q8 0 15.5 -3.5 q7.5 -3.5 14 -8.5 q6.5 -5 10 -11.5 q3.5 -6.5 3.5 -14 q0 -7.5 -3.5 -14 q-3.5 -6.5 -10 -11.5 q-6.5 -5 -14 -8.5 q-7.5 -3.5 -15.5 -3.5 l-352 0 q4 -5 7 -10 q3 -8 3 -16 l0 -73 l327 0 q8 0 15.5 -3 q7.5 -3 14 -8.5 q6.5 -5.5 10 -12 q3.5 -6.5 3.5 -13.5 q0 -7 -3.5 -13.5 q-3.5 -6.5 -10 -12 q-6.5 -5.5 -14 -9 q-7.5 -3.5 -15.5 -3.5 l-327 0 l0 -224 q0 -34 -8.5 -52 q-8.5 -18 -33.5 -28 q-19 -7 -48 -9 q-29 -2 -72 -3 q-13 0 -25.5 8.5 q-12.5 8.5 -15.5 18.5 q-7 19 5.5 34 q12.5 15 36.5 14 l33 0 q12 0 23 1 q11 0 15 3.5 q4 3.5 4 13.5 l0 223 l-325 0 q-8 0 -16 3.5 q-8 3.5 -14 9 q-6 5.5 -9.5 12 q-3.5 6.5 -3.5 13.5 q0 7 3.5 13.5 q3.5 6.5 9.5 12 q6 5.5 14 8.5 q8 3 16 3 l325 0 l0 73 q0 8 4 16 q2 5 6 10 l-357 0 q-8 0 -16 3.5 q-8 3.5 -14 8.5 q-6 5 -9.5 11.5 q-3.5 6.5 -3.5 14 q0 7.5 3.5 14 q3.5 6.5 9.5 11.5 q6 5 14 8.5 q8 3.5 16 3.5 l211 0 q-7 4 -12 10 q-6 6 -9 14 q-6 15 -14.5 33 q-8.5 18 -18.5 34 ZM229 685 q0 7 3.5 13.5 q3.5 6.5 9.5 11.5 q6 5 14 7.5 q8 2.5 15 2.5 l297 0 q-1 2 -1 4 q-6 12 -14.5 26.5 q-8.5 14.5 -17.5 28.5 q-2 9 -1.5 17.5 q0.5 8.5 5 16.5 q4.5 8 11 13.5 q6.5 5.5 14.5 7.5 l6 2 q12 3 26 -4 q14 -7 19 -18 q10 -17 20.5 -36 q10.5 -19 17.5 -35 q3 -7 2 -15 l-2 -8 l289 0 q8 0 16 -2.5 q8 -2.5 14 -7.5 q6 -5 9.5 -11.5 q3.5 -6.5 3.5 -13.5 q0 -7 -3.5 -13.5 q-3.5 -6.5 -9.5 -11.5 q-6 -5 -14 -8 q-8 -3 -16 -3 l-671 0 q-7 0 -15 3 q-8 3 -14 8 q-6 5 -9.5 11.5 q-3.5 6.5 -3.5 13.5 ZM777 126 q-6 8 -9 17 q-3 9 -2 18 q1 9 5.5 17 q4.5 8 12.5 13 q10 6 24.5 3.5 q14.5 -2.5 24.5 -10.5 q19 -17 38 -35.5 q19 -18.5 37 -37.5 q18 -19 34 -37 q16 -18 29 -35 q5 -6 6.5 -14 q1.5 -8 0.5 -16 q-1 -8 -5.5 -15 q-4.5 -7 -10.5 -12 l-3 -1 q-7 -4 -15.5 -5 q-8.5 -1 -17 0.5 q-8.5 1.5 -16.5 6.5 q-8 5 -13 11 q-10 15 -24 31.5 q-14 16.5 -30 33.5 q-16 17 -32.5 34 q-16.5 17 -33.5 33 ZM344 172 q7 11 22.5 17.5 q15.5 6.5 27.5 2.5 l1 0 q10 -3 16 -9.5 q6 -6.5 9 -15 q3 -8.5 2 -17.5 q-1 -9 -7 -17 q-27 -43 -61 -82 q-34 -39 -70 -70 q-10 -10 -26 -11 q-16 -1 -26 6 q-17 13 -16 33 q1 20 19 37 q31 26 59.5 58.5 q28.5 32.5 49.5 67.5 Z" /><glyph glyph-name="" unicode="&#x4eba;" d="M550 797 q0 7 3 15 q3 8 9 14 q6 6 13.5 9.5 q7.5 3.5 15.5 3.5 l11 0 q8 0 15.5 -4 q7.5 -4 13 -10.5 q5.5 -6.5 9.5 -14.5 q4 -8 3 -16 q-1 -47 -6 -111 q2 -6 2 -11 q4 -30 13 -78.5 q9 -48.5 26 -106.5 q17 -58 43.5 -122 q26.5 -64 67 -125.5 q40.5 -61.5 95.5 -116.5 q55 -55 127 -96 q21 -13 25.5 -33 q4.5 -20 -9.5 -37 q-4 -5 -11 -9.5 q-7 -4.5 -15 -6 q-8 -1.5 -16 -1 q-8 0.5 -15 4.5 q-81 44 -141.5 104.5 q-60.5 60.5 -104.5 128.5 q-44 68 -73 139 q-29 71 -48 136 l-2 8 q-10 -41 -24 -84 q-26 -82 -70.5 -160 q-44.5 -78 -108.5 -148.5 q-64 -70.5 -156 -125.5 q-6 -4 -14 -5.5 q-8 -1.5 -16 0 q-8 1.5 -15.5 4.5 q-7.5 3 -12.5 8 q-15 16 -12.5 37 q2.5 21 23.5 34 q83 51 141 116.5 q58 65.5 97.5 137.5 q39.5 72 62 146.5 q22.5 74.5 34.5 143.5 q12 69 15.5 129 q3.5 60 4.5 103 Z" /><glyph glyph-name="" unicode="&#x4ebf;" d="M489 702 q0 7 3.5 14 q3.5 7 10 13 q6.5 6 14.5 9.5 q8 3.5 16 3.5 l373 0 q8 0 16 -4 q4 -1 7 -3 q2 2 5 3 q6 4 10 4 l5 0 q2 0 4 1 l6 0 q4 1 9 0.5 q5 -0.5 9 -2.5 l6 -4 l19 -10 l17 -15 l-10 -10 q-108 -122 -184 -211.5 q-76 -89.5 -127 -153 q-51 -63.5 -80 -105 q-29 -41.5 -44 -68.5 q-15 -27 -19 -42.5 q-4 -15.5 -4 -27.5 q0 -29 25 -41 q25 -12 68 -12 l252 0 q17 0 28 5.5 q11 5.5 18.5 20.5 q7.5 15 12 41.5 q4.5 26.5 7.5 67.5 q3 24 17.5 36.5 q14.5 12.5 33.5 7.5 q11 -4 19 -18 q8 -14 6 -28 q-5 -67 -14 -109 q-9 -42 -25.5 -65 q-16.5 -23 -42 -31.5 q-25.5 -8.5 -65.5 -8.5 l-242 0 q-47 0 -81.5 9 q-34.5 9 -56.5 25.5 q-22 16.5 -33 39.5 q-11 23 -11 52 q0 16 3.5 35.5 q3.5 19.5 18 49.5 q14.5 30 43.5 74 q29 44 79.5 110 q50.5 66 126.5 158 q55 66 126 149 l-331 0 q-8 0 -16 3.5 q-8 3.5 -14.5 9 q-6.5 5.5 -10 12.5 q-3.5 7 -3.5 15 ZM358 801 q3 8 9 13.5 q6 5.5 13.5 9 q7.5 3.5 15 5 q7.5 1.5 15.5 -1.5 q8 -2 14 -8 q6 -6 9 -13.5 q3 -7.5 4 -16.5 q1 -9 -3 -17 q-34 -81 -77 -158 l0 -650 q0 -9 -3.5 -16.5 q-3.5 -7.5 -9 -13.5 q-5.5 -6 -13 -10 q-7.5 -4 -15 -4 q-7.5 0 -15 4 q-7.5 4 -13.5 10 q-6 6 -9 13.5 q-3 7.5 -3 16.5 l0 521 q-30 -42 -62 -79 q-7 -9 -16 -12.5 q-9 -3.5 -18 -2.5 q-9 1 -17 6.5 q-8 5.5 -14 14.5 q-1 1 -1 2 q0 1 -1 2 q-7 12 -5 28.5 q2 16.5 11 27.5 q61 65 113.5 150.5 q52.5 85.5 90.5 178.5 Z" /><glyph glyph-name="" unicode="&#x4ec0;" d="M428 458 q0 8 3.5 15 q3.5 7 9.5 13 q6 6 13.5 9.5 q7.5 3.5 15.5 3.5 l234 0 l0 288 q0 9 3.5 16.5 q3.5 7.5 9 13.5 q5.5 6 13 10 q7.5 4 15.5 4 l4 0 q8 0 15.5 -4 q7.5 -4 13.5 -10 q6 -6 9 -13.5 q3 -7.5 3 -16.5 l0 -288 l224 0 q8 0 15.5 -3.5 q7.5 -3.5 13.5 -9.5 q6 -6 9.5 -13 q3.5 -7 3.5 -15 q0 -8 -3.5 -15.5 q-3.5 -7.5 -9.5 -13.5 q-6 -6 -13.5 -9.5 q-7.5 -3.5 -15.5 -3.5 l-224 0 l0 -455 q0 -8 -3 -15.5 q-3 -7.5 -9 -13.5 q-6 -6 -13.5 -10 q-7.5 -4 -15.5 -4 l-4 0 q-8 0 -15.5 4 q-7.5 4 -13 10 q-5.5 6 -9 13.5 q-3.5 7.5 -3.5 15.5 l0 455 l-234 0 q-8 0 -15.5 3.5 q-7.5 3.5 -13.5 9.5 q-6 6 -9.5 13.5 q-3.5 7.5 -3.5 15.5 ZM369 800 q3 7 9 13 q6 6 13.5 9.5 q7.5 3.5 15 5 q7.5 1.5 14.5 -1.5 q8 -2 14 -8 q6 -6 9.5 -13.5 q3.5 -7.5 4 -16.5 q0.5 -9 -3.5 -17 q-35 -84 -79 -162 l0 -645 q0 -9 -3.5 -16.5 q-3.5 -7.5 -9 -14 q-5.5 -6.5 -13 -10 q-7.5 -3.5 -15.5 -3.5 q-7 0 -14.5 3.5 q-7.5 3.5 -13.5 10 q-6 6.5 -9.5 14 q-3.5 7.5 -3.5 15.5 l0 518 q-31 -43 -64 -81 q-7 -9 -16 -13 q-9 -4 -18 -3 q-9 1 -17.5 6.5 q-8.5 5.5 -13.5 14.5 q-1 1 -1 2 q0 1 -1 2 q-7 11 -5 28 q2 17 11 28 q62 65 116.5 152.5 q54.5 87.5 93.5 182.5 Z" /><glyph glyph-name="" unicode="&#x4ec5;" d="M466 694 q0 7 3.5 14 q3.5 7 9.5 13 q6 6 14 9 q8 3 16 3 l412 0 q8 0 16 -3 q3 3 7 3 q1 0 3.5 0.5 q2.5 0.5 4.5 1.5 l3 0 q3 2 7 1.5 q4 -0.5 7 -1.5 l14 -5 q12 -4 21 -18.5 q9 -14.5 7 -27.5 q-27 -149 -77.5 -268 q-50.5 -119 -117.5 -212 q-9 -12 -18 -23 q29 -34 62 -63 q68 -61 154 -100 q21 -12 27.5 -31.5 q6.5 -19.5 -5.5 -36.5 q-4 -6 -9.5 -9 q-5.5 -3 -13 -5 q-7.5 -2 -15 -1.5 q-7.5 0.5 -13.5 3.5 q-95 43 -171 109 q-37 33 -71 71 q-38 -39 -79 -72 q-84 -67 -178 -111 q-14 -6 -30 -2 q-16 4 -24 14 q-11 17 -3 36.5 q8 19.5 28 29.5 q86 40 162 104 q37 31 71 68 l-8 12 q-58 85 -100.5 188 q-42.5 103 -72.5 222 q-2 8 -0.5 16 q1.5 8 5 15 q3.5 7 10.5 12 q2 3 5 4 l-20 0 q-8 0 -16 3.5 q-8 3.5 -14 9 q-6 5.5 -9.5 12.5 q-3.5 7 -3.5 15 ZM373 798 q6 14 22.5 22 q16.5 8 31.5 4 l3 -1 q8 -2 14 -8 q6 -6 9.5 -14 q3.5 -8 3.5 -17 q0 -9 -4 -17 q-39 -89 -88 -172 l0 -631 q0 -9 -3.5 -16.5 q-3.5 -7.5 -9.5 -13.5 q-6 -6 -13 -10 q-7 -4 -15 -4 q-8 0 -15.5 4 q-7.5 4 -13.5 10 q-6 6 -9.5 14 q-3.5 8 -3.5 16 l0 508 q-34 -45 -70 -84 q-7 -8 -16 -11.5 q-9 -3.5 -18 -2.5 q-9 1 -17 6.5 q-8 5.5 -13 13.5 l-4 7 q-8 12 -6 30 q2 18 13 28 q66 66 123.5 154 q57.5 88 98.5 185 ZM922 654 l-363 0 q3 -2 7 -4 q6 -5 11.5 -11.5 q5.5 -6.5 7.5 -15.5 q26 -105 64 -197.5 q38 -92.5 91 -169.5 l4 -6 q7 9 13 18 q63 87 107 197 q36 87 58 189 Z" /><glyph glyph-name="" unicode="&#x4eca;" d="M570 819 q5 5 11.5 9.5 q6.5 4.5 14 6.5 q7.5 2 15 2 q7.5 0 13.5 -2 l7 -3 q8 -4 13 -11.5 q5 -7.5 7 -16.5 q2 -8 0 -17 q3 -2 5 -5 q33 -37 75 -75 q42 -38 88 -72.5 q46 -34.5 95 -65 q49 -30.5 95 -54.5 q12 -5 18.5 -13.5 q6.5 -8.5 8.5 -18 q2 -9.5 -0.5 -20 q-2.5 -10.5 -9.5 -18.5 q-1 -1 -1 -1.5 q0 -0.5 -1 -0.5 q-4 -6 -11.5 -10 q-7.5 -4 -15.5 -5.5 q-8 -1.5 -16 -0.5 q-8 1 -14 4 q-47 26 -97 60 q-50 34 -98 72.5 q-48 38.5 -93 81.5 q-40 38 -74 76 q-22 -26 -47 -51 q-47 -49 -100 -93.5 q-53 -44.5 -109.5 -83 q-56.5 -38.5 -116.5 -70.5 q-6 -3 -14 -4 q-8 -1 -16 1 q-8 2 -15 6 q-7 4 -12 10 l0 1 l-1 0 q-14 18 -9.5 38.5 q4.5 20.5 25.5 31.5 q56 28 109.5 63 q53.5 35 102 75 q48.5 40 91.5 84 q43 44 77 90 ZM260 310 q0 8 3.5 15 q3.5 7 10 13 q6.5 6 14 9.5 q7.5 3.5 15.5 3.5 l533 0 q8 0 15.5 -3.5 q7.5 -3.5 13.5 -9.5 l1 0 q1 2 2 3 q1 2 1 4 q0 3 3 4.5 q3 1.5 8 1.5 q2 0 4 0.5 q2 0.5 4 1.5 l1 0 q4 1 10.5 0.5 q6.5 -0.5 10.5 -2.5 l11 -6 q8 -3 13 -10.5 q5 -7.5 7 -16.5 q2 -9 0.5 -18 q-1.5 -9 -6.5 -17 q-28 -37 -61.5 -80 q-33.5 -43 -68.5 -87.5 q-35 -44.5 -71 -89 q-36 -44.5 -70 -86.5 q-8 -10 -23.5 -13.5 q-15.5 -3.5 -26.5 1.5 l-8 4 q-9 4 -15 11.5 q-6 7.5 -8 17 q-2 9.5 0.5 19 q2.5 9.5 9.5 17.5 q37 43 75.5 90 q38.5 47 74.5 93 q36 45 68 86 l-508 0 q-8 0 -15.5 3.5 q-7.5 3.5 -14 9.5 q-6.5 6 -10 13.5 q-3.5 7.5 -3.5 15.5 l0 2 ZM528 496 q-7 7 -11.5 15 q-4.5 8 -5.5 17 q-1 9 2 17 q3 8 9 14 q9 8 24.5 8.5 q15.5 0.5 26.5 -7.5 q35 -26 71 -55.5 q36 -29.5 64 -54.5 q6 -5 9 -12.5 q3 -7.5 3 -15.5 q0 -8 -2.5 -16.5 q-2.5 -8.5 -7.5 -13.5 q-6 -5 -14.5 -8 q-8.5 -3 -17 -2.5 q-8.5 0.5 -17 3.5 q-8.5 3 -14.5 9 q-24 23 -55.5 50.5 q-31.5 27.5 -63.5 51.5 Z" /><glyph glyph-name="" unicode="&#x4ecb;" d="M572 814 q5 6 13 10.5 q8 4.5 16 6.5 q8 2 16.5 1 q8.5 -1 15.5 -6 q6 -4 10 -11.5 q4 -7.5 5 -15.5 q1 -8 0 -16 q-1 -3 -3 -7 q9 -4 14 -10 q31 -38 71 -75 q40 -37 86.5 -70 q46.5 -33 97.5 -60 q51 -27 102 -46 q24 -9 30 -28.5 q6 -19.5 -8 -40.5 l-1 0 q-7 -10 -22 -15.5 q-15 -5.5 -27 -1.5 q-56 21 -110.5 52.5 q-54.5 31.5 -105.5 69 q-51 37.5 -95 80.5 q-43 41 -77 84 q-20 -25 -44 -50 q-48 -51 -103 -96 q-55 -45 -115.5 -83 q-60.5 -38 -122.5 -65 q-7 -3 -15 -3 q-8 0 -15.5 2.5 q-7.5 2.5 -14.5 7 q-7 4.5 -10 10.5 q-11 19 -3.5 39 q7.5 20 28.5 29 q58 24 113.5 57.5 q55.5 33.5 105 73 q49.5 39.5 93 85 q43.5 45.5 75.5 92.5 ZM373 400 q0 8 3.5 16 q3.5 8 9.5 14 q6 6 13.5 9.5 q7.5 3.5 14.5 3.5 l5 0 q8 0 15.5 -3.5 q7.5 -3.5 13.5 -9.5 q6 -6 9.5 -14 q3.5 -8 3.5 -16 l0 -83 q0 -47 -6 -97 q-6 -50 -26 -99 q-20 -49 -57.5 -96 q-37.5 -47 -101.5 -88 q-6 -4 -13.5 -5.5 q-7.5 -1.5 -15.5 -0.5 q-8 1 -15 3.5 q-7 2.5 -12 7.5 q-16 15 -13.5 35.5 q2.5 20.5 21.5 36.5 q51 34 81 70.5 q30 36.5 45.5 74.5 q15.5 38 20 78 q4.5 40 4.5 82 l0 81 ZM748 401 q0 9 3.5 16.5 q3.5 7.5 9.5 14 q6 6.5 13.5 10 q7.5 3.5 15.5 3.5 l4 0 q9 0 16 -3.5 q7 -3.5 13.5 -10 q6.5 -6.5 10 -14 q3.5 -7.5 3.5 -16.5 l0 -441 q0 -8 -3.5 -16 q-3.5 -8 -10 -14 q-6.5 -6 -13.5 -9.5 q-7 -3.5 -16 -3.5 l-4 0 q-8 0 -15.5 3.5 q-7.5 3.5 -13.5 9.5 q-6 6 -9.5 14 q-3.5 8 -3.5 16 l0 441 Z" /><glyph glyph-name="" unicode="&#x4ecd;" d="M424 733 q0 7 4 13.5 q4 6.5 10 12.5 q6 6 13.5 9 q7.5 3 15.5 3 l347 0 q7 0 15 -3 l8 -4 q10 7 20 7 q9 0 17 -4 q8 -4 13 -11.5 q5 -7.5 7.5 -16 q2.5 -8.5 0.5 -18.5 q-6 -35 -14 -72.5 q-8 -37.5 -15.5 -74.5 q-7.5 -37 -15.5 -71 l-4 -18 l135 0 q9 0 16.5 -3 q7.5 -3 14 -8.5 q6.5 -5.5 10 -12.5 q3.5 -7 3.5 -14 q0 -5 -2 -10 q-6 -115 -12 -197 q-6 -85 -13.5 -141 q-7.5 -56 -17.5 -88.5 q-10 -32.5 -23 -46.5 q-15 -20 -33 -27.5 q-18 -7.5 -44 -10.5 q-19 -1 -47 -1 q-28 0 -62 1 q-14 0 -27.5 10 q-13.5 10 -16.5 21 q-5 21 8.5 35 q13.5 14 38.5 13 q12 -1 21.5 -1 q9.5 0 17.5 -0.5 q8 -0.5 15 -0.5 l17 0 q14 0 23.5 2.5 q9.5 2.5 17.5 10.5 q11 11 19 40 q8 29 14.5 82.5 q6.5 53.5 12.5 134.5 q4 59 8 135 l-90 0 q-9 0 -17 4 q-6 3 -11 7 l-1 -1 q-11 -10 -22 -10 q-10 0 -18 4.5 q-8 4.5 -13 12 q-5 7.5 -6.5 17.5 q-1.5 10 0.5 19 q7 30 14.5 64 q7.5 34 15 69.5 q7.5 35.5 13.5 72.5 q3 13 5 27 l-187 0 q-2 -95 -8 -196 q-7 -102 -25.5 -200 q-18.5 -98 -52.5 -186 q-34 -88 -92 -156 q-5 -8 -13 -12.5 q-8 -4.5 -16.5 -6 q-8.5 -1.5 -17 1 q-8.5 2.5 -14.5 8.5 q-12 11 -13 30.5 q-1 19.5 11 35.5 q52 62 82.5 144 q30.5 82 46.5 173 q16 91 20 186 q5 92 7 178 l-71 0 q-8 0 -15.5 3 q-7.5 3 -13.5 8.5 q-6 5.5 -10 12.5 q-4 7 -4 15 ZM312 797 q3 8 8.5 14 q5.5 6 12.5 10 q7 4 15 6 q8 2 15 -1 q8 -1 14 -7 q6 -6 9.5 -13.5 q3.5 -7.5 4.5 -16 q1 -8.5 -2 -16.5 q-28 -81 -64 -157 l0 -654 q0 -8 -3.5 -16 q-3.5 -8 -9 -14.5 q-5.5 -6.5 -12.5 -10 q-7 -3.5 -15 -3.5 q-8 0 -15 3.5 q-7 3.5 -13 10 q-6 6.5 -9 14 q-3 7.5 -3 16.5 l0 506 q-20 -31 -40 -60 q-7 -10 -16 -14 q-9 -4 -18 -3.5 q-9 0.5 -17 6 q-8 5.5 -13 15.5 q-1 2 -1.5 3.5 q-0.5 1.5 -1.5 3.5 q-6 10 -4.5 25 q1.5 15 8.5 25 q52 65 95.5 150.5 q43.5 85.5 74.5 177.5 Z" /><glyph glyph-name="" unicode="&#x4ece;" d="M739 778 q1 9 5 16.5 q4 7.5 10 13.5 q6 6 13.5 9.5 q7.5 3.5 15.5 2.5 l8 0 q8 0 15.5 -4 q7.5 -4 13 -10.5 q5.5 -6.5 8.5 -14.5 q3 -8 2 -17 q-9 -137 -26 -256 l-6 -42 q1 -1 2 -3 q6 -8 8 -18 q13 -53 31.5 -110 q18.5 -57 44.5 -111.5 q26 -54.5 60 -103.5 q34 -49 78 -87 q14 -15 16 -36 q2 -21 -10 -36 q-6 -7 -14.5 -11 q-8.5 -4 -17.5 -5 q-9 -1 -18 2 q-9 3 -15 11 q-48 46 -85 104.5 q-37 58.5 -65 121.5 q-28 63 -47 127 q-3 -13 -7 -25 q-28 -102 -71.5 -187.5 q-43.5 -85.5 -107.5 -153.5 q-5 -6 -12.5 -9.5 q-7.5 -3.5 -16 -4.5 q-8.5 -1 -16.5 1 q-8 2 -14 7 q-1 0 -1 1 l-2 1 q-9 6 -13.5 15 q-4.5 9 -5.5 19 q-1 10 2 20 q3 10 10 18 q59 62 99.5 140.5 q40.5 78.5 66 173.5 q25.5 95 40 205.5 q14.5 110.5 22.5 235.5 ZM354 777 q0 8 4.5 16 q4.5 8 10.5 14 q6 6 13.5 9.5 q7.5 3.5 15.5 3.5 l7 -1 q9 0 16 -4 q7 -4 12.5 -10.5 q5.5 -6.5 9 -14 q3.5 -7.5 3.5 -16.5 q-8 -131 -20 -248 q-2 -19 -5 -38 q6 -1 11 -3 q8 -4 13 -10 q22 -27 43.5 -56 q21.5 -29 42 -58.5 q20.5 -29.5 37.5 -57 q17 -27.5 30 -52.5 q6 -10 4 -25 q-2 -15 -10 -23 l-2 -2 q-7 -7 -16.5 -9.5 q-9.5 -2.5 -19 -0.5 q-9.5 2 -17.5 7.5 q-8 5.5 -14 14.5 q-13 23 -29 49 q-16 26 -34 53 l-36 54 q-9 12 -17 24 q-7 -44 -17 -86 q-22 -102 -57 -189.5 q-35 -87.5 -86 -158.5 q-4 -7 -12 -11.5 q-8 -4.5 -17 -5.5 q-9 -1 -18 0 q-9 1 -16 7 l-2 1 q-1 0 -2 1 q-8 6 -12 14.5 q-4 8.5 -5.5 18 q-1.5 9.5 1 19 q2.5 9.5 8.5 17.5 q49 64 81.5 145 q32.5 81 53 177 q20.5 96 31.5 205 q11 109 16 230 Z" /><glyph glyph-name="" unicode="&#x4ed3;" d="M325 444 q0 8 3 16 q3 5 6 9 q-54 -35 -109 -64 q-7 -3 -15 -3.5 q-8 -0.5 -15.5 1.5 q-7.5 2 -14 6 q-6.5 4 -11.5 9 q-14 17 -8.5 37.5 q5.5 20.5 26.5 31.5 q57 28 111.5 63.5 q54.5 35.5 104 77 q49.5 41.5 92.5 88 q43 46.5 76 95.5 q4 6 10.5 10.5 q6.5 4.5 14 7 q7.5 2.5 15.5 3 q8 0.5 14 -1.5 l4 -2 q8 -4 13.5 -11 q5.5 -7 7.5 -15 q2 -8 1 -17 q0 -6 -2 -11 q3 -2 5 -5 q77 -90 166.5 -154 q89.5 -64 193.5 -116 q22 -10 28 -29 q6 -19 -7 -35 q-4 -6 -11 -10 q-7 -4 -15 -6 q-8 -2 -16.5 -1 q-8.5 1 -15.5 4 q-107 58 -201 128 q-92 69 -172 163 q-21 -26 -45 -52 q-47 -52 -101 -98 q-48 -41 -99 -77 q4 1 8 1 l4 0 q8 0 16 -4 l4 -2 q3 1 6 3 q7 3 15 3 l412 0 q8 0 15.5 -3.5 q7.5 -3.5 13.5 -8.5 l2 -2 q4 -3 6 -8 q2 -3 3 -6 q3 -5 3 -12 q0 -5 -2 -11 q-3 -57 -6 -99 q-3 -46 -7.5 -77.5 q-4.5 -31.5 -11 -50.5 q-6.5 -19 -14.5 -29 q-14 -16 -31.5 -21.5 q-17.5 -5.5 -41.5 -7.5 q-16 -1 -42.5 -1.5 q-26.5 -0.5 -57.5 1.5 q-15 0 -28 9.5 q-13 9.5 -16 19.5 q-4 18 11 30.5 q15 12.5 40 12.5 q9 -1 17 -1.5 q8 -0.5 15 -0.5 l25 0 q14 0 22 2 q8 2 14 8 q5 6 9.5 22 q4.5 16 8 44.5 q3.5 28.5 5.5 71.5 q1 18 2 38 l-365 0 l0 -324 q0 -18 3.5 -29 q3.5 -11 14.5 -17.5 q11 -6.5 30 -8.5 q19 -2 51 -2 l280 0 q20 0 34.5 3.5 q14.5 3.5 24 13 q9.5 9.5 15 26 q5.5 16.5 9.5 42.5 q6 10 12.5 19 q6.5 9 14.5 14.5 q8 5.5 17 7.5 q9 2 19 -2 q7 -3 12 -8 q5 -5 9 -11.5 q4 -6.5 6 -14.5 q2 -8 1 -16 q-7 -45 -16.5 -76 q-9.5 -31 -27.5 -49 q-18 -18 -48 -25 q-30 -7 -79 -7 l-286 0 q-53 0 -88.5 6 q-35.5 6 -57 21.5 q-21.5 15.5 -30 43 q-8.5 27.5 -8.5 68.5 l0 362 Z" /><glyph glyph-name="" unicode="&#x4ed4;" d="M476 732 q0 8 3.5 15 q3.5 7 10 12.5 q6.5 5.5 14.5 9 q8 3.5 16 3.5 l410 0 q8 0 15 -3 l4 -2 l1 0 q5 5 11 5 q2 0 4.5 0.5 q2.5 0.5 4.5 0.5 q4 2 12.5 0 q8.5 -2 13.5 -7 l6 -4 q7 -5 11.5 -13 q4.5 -8 5.5 -17 q1 -9 -1.5 -17.5 q-2.5 -8.5 -8.5 -14.5 q-24 -25 -51.5 -49.5 q-27.5 -24.5 -56.5 -48 q-29 -23.5 -59 -44.5 q-30 -21 -58 -39 q-1 0 -2 -1 q1 -4 1 -8 l0 -101 l237 0 q8 0 15.5 -3.5 q7.5 -3.5 14 -9 q6.5 -5.5 10 -13 q3.5 -7.5 3.5 -15 q0 -7.5 -3.5 -14.5 q-3.5 -7 -10 -13 q-6.5 -6 -14 -9.5 q-7.5 -3.5 -15.5 -3.5 l-237 0 l0 -302 q0 -39 -10.5 -59 q-10.5 -20 -37.5 -31 q-23 -8 -60 -10.5 q-37 -2.5 -92 -2.5 q-14 -1 -27 9 q-13 10 -17 21 q-3 11 -1.5 20.5 q1.5 9.5 7.5 16.5 q6 7 15.5 11.5 q9.5 4.5 21.5 4.5 q34 -1 56 -1 q22 0 36 1 q14 0 19.5 4.5 q5.5 4.5 5.5 16.5 l0 301 l-242 0 q-8 0 -16 3.5 q-8 3.5 -14 9.5 q-6 6 -9.5 13 q-3.5 7 -3.5 14.5 q0 7.5 3.5 15 q3.5 7.5 9.5 13 q6 5.5 14 9 q8 3.5 16 3.5 l242 0 l0 100 q0 8 3.5 16 q3.5 8 9.5 14 q6 6 12 9 q1 2 1 4 q6 19 24 32 q27 18 54.5 38.5 q27.5 20.5 53.5 41.5 q16 15 32 29 l-369 0 q-8 0 -16 3.5 q-8 3.5 -14.5 9 q-6.5 5.5 -10 12.5 q-3.5 7 -3.5 14 ZM347 802 q3 7 9 13 q6 6 13 9.5 q7 3.5 15 5 q8 1.5 15 -0.5 q9 -2 14.5 -8 q5.5 -6 9 -13.5 q3.5 -7.5 4.5 -16.5 q1 -9 -3 -17 q-38 -95 -87 -185 l0 -627 q0 -9 -3.5 -17 q-3.5 -8 -9 -14 q-5.5 -6 -12.5 -9.5 q-7 -3.5 -15 -3.5 q-8 0 -15 3.5 q-7 3.5 -13 10 q-6 6.5 -9 14 q-3 7.5 -3 15.5 l0 501 q-20 -28 -41 -53 q-7 -9 -16 -13 q-9 -4 -18 -3 q-9 1 -17.5 6 q-8.5 5 -13.5 15 q-1 1 -1 2 q0 1 -1 2 q-7 11 -5.5 28 q1.5 17 10.5 27 q57 65 107 150.5 q50 85.5 86 178.5 Z" /><glyph glyph-name="" unicode="&#x4ed6;" d="M717 796 q0 8 3.5 16 q3.5 8 9 14 q5.5 6 12.5 9.5 q7 3.5 14.5 3.5 q7.5 0 14.5 -3.5 q7 -3.5 13 -9.5 q6 -6 9.5 -14 q3.5 -8 3.5 -16 l0 -198 l134 52 q5 2 11 2 l10 10 q6 5 16.5 6.5 q10.5 1.5 17.5 -2.5 l5 -1 q13 -5 23 -12.5 q10 -7.5 9 -11.5 q-1 -2 -1 -5 l0 -5 q0 -67 -1 -125 q-1 -58 -2.5 -104 q-1.5 -46 -3.5 -79 q-2 -33 -5 -49 q-5 -35 -20.5 -52 q-15.5 -17 -39.5 -24 q-13 -4 -31 -5.5 q-18 -1.5 -34 -1.5 q-8 -1 -15 1.5 q-7 2.5 -13 6.5 q-6 4 -9.5 9 q-3.5 5 -5.5 10 q-4 20 2.5 33.5 q6.5 13.5 21.5 13.5 l34 0 q13 0 21 5.5 q8 5.5 12 23.5 q3 11 4.5 39 q1.5 28 3 72.5 q1.5 44.5 1.5 103.5 q0 28 1 59 l-146 -57 l0 -323 q0 -8 -3.5 -16 q-3.5 -8 -9.5 -14.5 q-6 -6.5 -13 -10 q-7 -3.5 -14.5 -3.5 q-7.5 0 -14.5 3.5 q-7 3.5 -12.5 10 q-5.5 6.5 -9 14.5 q-3.5 8 -3.5 16 l0 292 l-138 -54 l0 -348 q0 -22 3 -36 q3 -14 12 -21.5 q9 -7.5 25.5 -10 q16.5 -2.5 42.5 -2.5 l246 0 q18 0 29.5 3.5 q11.5 3.5 19.5 12.5 q8 9 12.5 24.5 q4.5 15.5 8.5 39.5 q9 22 24 34.5 q15 12.5 33 5.5 q12 -5 20 -19.5 q8 -14.5 5 -28.5 q-5 -41 -13 -69.5 q-8 -28.5 -24 -46 q-16 -17.5 -42 -25 q-26 -7.5 -69 -7.5 l-254 0 q-47 0 -78 6.5 q-31 6.5 -50 23 q-19 16.5 -26 45 q-7 28.5 -7 71.5 l0 316 l-55 -22 q-7 -2 -15.5 -1.5 q-8.5 0.5 -16 3.5 q-7.5 3 -13.5 8 q-6 5 -9 12 q-3 7 -2.5 15 q0.5 8 4 15.5 q3.5 7.5 9.5 14 q6 6.5 13 9.5 l85 33 l0 216 q0 8 3 15.5 q3 7.5 9.5 14 q6.5 6.5 13.5 10 q7 3.5 15 3.5 q8 0 15.5 -3.5 q7.5 -3.5 13.5 -10 q6 -6.5 9 -14 q3 -7.5 3 -15.5 l0 -184 l138 54 l0 229 ZM346 799 q3 8 9 13.5 q6 5.5 13.5 9.5 q7.5 4 15.5 5.5 q8 1.5 15 -1.5 q8 -2 13.5 -8 q5.5 -6 9 -13.5 q3.5 -7.5 4 -16.5 q0.5 -9 -3.5 -16 q-36 -87 -83 -169 l0 -639 q0 -9 -3.5 -16.5 q-3.5 -7.5 -9 -14 q-5.5 -6.5 -13 -10 q-7.5 -3.5 -15 -3.5 q-7.5 0 -15 3.5 q-7.5 3.5 -14 10 q-6.5 6.5 -9.5 14 q-3 7.5 -3 15.5 l0 513 q-27 -36 -55 -69 q-7 -9 -16 -12.5 q-9 -3.5 -18 -3 q-9 0.5 -17 5.5 q-8 5 -13 14 q-1 1 -1 2 q0 1 -1 2 q-6 12 -4 28.5 q2 16.5 11 27.5 q60 65 113 150 q53 85 90 178 Z" /><glyph glyph-name="" unicode="&#x4ed8;" d="M446 580 q0 7 3.5 14.5 q3.5 7.5 10 13.5 q6.5 6 14.5 9.5 q8 3.5 16 3.5 l358 0 l0 166 q0 8 3 15.5 q3 7.5 9.5 14 q6.5 6.5 13.5 10 q7 3.5 15 3.5 l3 0 q9 0 16 -3.5 q7 -3.5 13 -10 q6 -6.5 9 -14 q3 -7.5 3 -15.5 l0 -166 l80 0 q8 0 16 -3.5 q8 -3.5 14.5 -9.5 q6.5 -6 10 -13.5 q3.5 -7.5 3.5 -14.5 l0 -3 q0 -7 -3.5 -14.5 q-3.5 -7.5 -10 -13.5 q-6.5 -6 -14.5 -9.5 q-8 -3.5 -16 -3.5 l-80 0 l0 -507 q0 -46 -13 -67.5 q-13 -21.5 -43 -30.5 q-27 -10 -72 -12 q-45 -2 -114 -2 q-13 0 -25.5 8.5 q-12.5 8.5 -16.5 19.5 q-8 21 4 37.5 q12 16.5 38 16.5 q44 -2 75 -1.5 q31 0.5 49 1.5 q18 1 25.5 7 q7.5 6 7.5 23 l0 507 l-358 0 q-8 0 -16 3.5 q-8 3.5 -14.5 9.5 q-6.5 6 -10 13.5 q-3.5 7.5 -3.5 14.5 l0 3 ZM374 797 q2 7 8 13 q6 6 14 10 q8 4 15.5 5 q7.5 1 14.5 -1 l3 -1 q9 -2 15 -8 q6 -6 9 -13.5 q3 -7.5 3.5 -16.5 q0.5 -9 -2.5 -17 q-38 -91 -87 -176 l0 -628 q0 -9 -3.5 -16.5 q-3.5 -7.5 -9.5 -13.5 q-6 -6 -13 -10 q-7 -4 -15 -4 l-2 0 q-8 0 -15.5 4 q-7.5 4 -13.5 10 q-6 6 -9.5 14 q-3.5 8 -3.5 16 l0 499 q-28 -37 -57 -71 q-7 -8 -16 -11.5 q-9 -3.5 -18 -3 q-9 0.5 -17.5 5.5 q-8.5 5 -13.5 14 q-1 2 -1.5 3.5 q-0.5 1.5 -1.5 2.5 q-4 6 -5.5 14 q-1.5 8 -1 16 q0.5 8 3.5 15.5 q3 7.5 9 13.5 q62 65 116.5 152.5 q54.5 87.5 94.5 182.5 ZM529 362 q-4 8 -5 17 q-1 9 1.5 17 q2.5 8 7.5 15 q5 7 13 10 l0 1 q6 3 14 2.5 q8 -0.5 15 -2.5 q7 -2 13.5 -6.5 q6.5 -4.5 10.5 -10.5 q14 -21 29 -44 q15 -23 29.5 -46 q14.5 -23 27 -44 q12.5 -21 22.5 -39 q4 -7 4.5 -15 q0.5 -8 -2 -15.5 q-2.5 -7.5 -7 -14 q-4.5 -6.5 -11.5 -10.5 l-2 -1 q-8 -4 -17 -4 q-9 0 -17.5 3 q-8.5 3 -15.5 9 q-7 6 -12 13 q-9 18 -20.5 38.5 q-11.5 20.5 -24.5 41.5 q-13 21 -26.5 43 q-13.5 22 -26.5 42 Z" /><glyph glyph-name="" unicode="&#x4ee3;" d="M433 459 q-1 8 1.5 15.5 q2.5 7.5 8 14 q5.5 6.5 13 11 q7.5 4.5 15.5 5.5 l192 25 q-12 118 -18 252 q0 8 3.5 16.5 q3.5 8.5 9 15 q5.5 6.5 13 10 q7.5 3.5 15.5 3.5 l1 0 q8 0 15.5 -3.5 q7.5 -3.5 13.5 -9.5 q6 -6 9.5 -13.5 q3.5 -7.5 3.5 -15.5 q5 -130 16 -245 l257 33 q9 1 16.5 -1.5 q7.5 -2.5 14.5 -7 q7 -4.5 11.5 -11.5 q4.5 -7 5.5 -14 q2 -7 -1 -15 q-3 -8 -8 -14.5 q-5 -6.5 -12.5 -11 q-7.5 -4.5 -16.5 -5.5 l-258 -33 q15 -120 39 -212 q27 -102 66.5 -163 q39.5 -61 93.5 -66 q15 -1 26 24.5 q11 25.5 18 76.5 q7 26 22.5 36 q15.5 10 35.5 -1 q7 -5 12 -16.5 q5 -11.5 4 -22.5 q-9 -58 -20.5 -96.5 q-11.5 -38.5 -25.5 -61 q-14 -22.5 -31.5 -31.5 q-17.5 -9 -37.5 -8 q-83 7 -138.5 73 q-55.5 66 -91 180 q-35.5 114 -54.5 270 q0 4 -1 8 l-190 -24 q-8 -1 -16 1 q-8 2 -14.5 7 q-6.5 5 -11.5 11 q-5 6 -6 14 ZM391 795 q3 7 9 12.5 q6 5.5 13.5 9.5 q7.5 4 15.5 4.5 q8 0.5 15 -1.5 q8 -3 14 -9 q6 -6 9.5 -14 q3.5 -8 3.5 -17 q0 -9 -3 -16 q-39 -83 -86 -159 l0 -642 q0 -8 -3.5 -16 q-3.5 -8 -9.5 -14 q-6 -6 -13 -9.5 q-7 -3.5 -16 -3.5 l-3 0 q-7 0 -14.5 3.5 q-7.5 3.5 -14 9.5 q-6.5 6 -9.5 14 q-3 8 -3 16 l0 521 q-43 -54 -90 -100 q-7 -8 -16 -11 q-9 -3 -18 -2 q-9 1 -17 6.5 q-8 5.5 -13 13.5 q0 1 -0.5 2 q-0.5 1 -1.5 2 q-8 12 -5.5 30 q2.5 18 13.5 29 q71 66 134.5 154.5 q63.5 88.5 108.5 186.5 ZM851 746 q-7 8 -10 16.5 q-3 8.5 -2.5 17.5 q0.5 9 4 16.5 q3.5 7.5 10.5 11.5 q9 6 23.5 4 q14.5 -2 22.5 -10 q32 -25 62.5 -54 q30.5 -29 53.5 -53 q4 -6 6 -13.5 q2 -7.5 0.5 -15 q-1.5 -7.5 -4.5 -14 q-3 -6.5 -9 -10.5 q-7 -4 -15.5 -5 q-8.5 -1 -17 1.5 q-8.5 2.5 -16.5 7.5 q-8 5 -13 12 q-18 19 -44 43 q-26 24 -51 45 Z" /><glyph glyph-name="" unicode="&#x4ee4;" d="M450 119 q-10 5 -15 13.5 q-5 8.5 -6.5 17.5 q-1.5 9 1 18 q2.5 9 9.5 16 l2 2 q8 8 22.5 10 q14.5 2 24.5 -3 q34 -20 70 -44 q28 -17 55 -36 q33 32 67 66 q36 35 69 69 q27 27 51 52 l-490 0 q-8 0 -16 3.5 q-8 3.5 -14 9.5 q-6 6 -10 13 q-4 7 -4 14.5 q0 7.5 4 15 q4 7.5 10 13.5 q6 6 14 9 q8 3 16 3 l533 0 q8 0 16 -3 q5 -2 9 -5 l0 2 q0 3 4 4.5 q4 1.5 9 1.5 q1 0 3 0.5 q2 0.5 4 1.5 q5 1 12 0 q7 -1 12 -5 l7 -4 q8 -5 12.5 -12.5 q4.5 -7.5 5.5 -17 q1 -9.5 -1.5 -18.5 q-2.5 -9 -9.5 -16 q-28 -29 -59.5 -61 q-31.5 -32 -65.5 -65.5 q-34 -33.5 -68 -67.5 q-25 -26 -50 -51 l14 -10 q33 -23 59 -45 q7 -4 11.5 -12 q4.5 -8 5.5 -16.5 q1 -8.5 -1 -17 q-2 -8.5 -8 -14.5 l-7 -7 q-5 -6 -12.5 -9 q-7.5 -3 -16 -3.5 q-8.5 -0.5 -16.5 1.5 q-8 2 -15 7 q-23 20 -52.5 43 q-29.5 23 -61.5 46.5 q-32 23.5 -66.5 46.5 q-34.5 23 -66.5 44 ZM586 819 q10 11 26 14.5 q16 3.5 28 -2.5 l3 -1 q8 -5 13 -12.5 q5 -7.5 6 -16.5 q1 -9 -1 -18 q-1 -4 -4 -8 q33 -34 75 -69 q43 -34 90 -66.5 q47 -32.5 97 -60.5 q50 -28 98 -49 q22 -10 27 -31 q5 -21 -10 -39 l0 -1 q-4 -5 -10.5 -9 q-6.5 -4 -14.5 -6 q-8 -2 -15.5 -1.5 q-7.5 0.5 -14.5 3.5 q-47 24 -98 55 q-51 31 -100.5 67 q-49.5 36 -95.5 75 q-43 37 -79 74 q-22 -22 -45 -44 q-49 -46 -103 -87 q-54 -41 -112 -77 q-58 -36 -118 -66 q-7 -3 -14.5 -3.5 q-7.5 -0.5 -15.5 1.5 q-8 2 -14 5.5 q-6 3.5 -11 8.5 q-13 18 -8.5 38 q4.5 20 26.5 30 q57 27 112.5 60.5 q55.5 33.5 106.5 71.5 q51 38 96 79.5 q45 41.5 80 84.5 ZM536 519 q-7 6 -10.5 15 q-3.5 9 -4 17.5 q-0.5 8.5 2.5 16.5 q3 8 10 13 q9 8 24.5 7 q15.5 -1 26.5 -10 q26 -21 53 -46 q27 -25 46 -47 q5 -6 7.5 -13.5 q2.5 -7.5 2.5 -15.5 q0 -8 -3.5 -15 q-3.5 -7 -8.5 -12 q-6 -6 -15 -7.5 q-9 -1.5 -18 -0.5 q-9 1 -17.5 5 q-8.5 4 -14.5 11 q-15 19 -36.5 41 q-21.5 22 -44.5 41 Z" /><glyph glyph-name="" unicode="&#x4ee5;" d="M855 759 q1 8 5 16 q4 8 10 13.5 q6 5.5 14 9 q8 3.5 16 3.5 l5 -1 q8 0 15 -4 q7 -4 12.5 -10.5 q5.5 -6.5 9 -14.5 q3.5 -8 2.5 -16 q-10 -161 -33.5 -289 q-23.5 -128 -67.5 -228 l-4 -8 q28 -26 56.5 -54.5 q28.5 -28.5 55.5 -57 q27 -28.5 51 -56.5 q24 -28 43 -52 q5 -7 6.5 -15 q1.5 -8 0.5 -16 q-1 -8 -5 -15 q-4 -7 -10 -12 l-5 -3 q-6 -5 -15 -6.5 q-9 -1.5 -18 0 q-9 1.5 -17 6 q-8 4.5 -13 11.5 q-17 23 -38.5 49.5 q-21.5 26.5 -46 54 q-24.5 27.5 -50.5 55.5 q-18 19 -35 36 q-32 -51 -73 -93 q-73 -76 -181 -132 q-6 -3 -14 -3.5 q-8 -0.5 -16 1 q-8 1.5 -14.5 5.5 q-6.5 4 -11.5 9 l-1 0 q-14 17 -9 38 q5 21 26 33 q98 49 161.5 117 q63.5 68 103 159 q39.5 91 58.5 207.5 q19 116.5 27 262.5 ZM295 54 q-11 -7 -21 -8 l-7 0 l-1 -1 q-10 -4 -19 -4.5 q-9 -0.5 -17 3 q-8 3.5 -13 10.5 q-8 12 -2.5 30 q5.5 18 16.5 34 q5 6 9.5 9.5 q4.5 3.5 8.5 9 q4 5.5 6 15 q2 9.5 2 27.5 l0 544 q0 8 3.5 16 q3.5 8 9.5 14 q6 6 13.5 9.5 q7.5 3.5 15.5 3.5 l7 0 q8 0 15 -3.5 q7 -3.5 13 -9.5 q6 -6 9.5 -14 q3.5 -8 3.5 -16 l0 -548 l175 82 q9 5 19 5.5 q10 0.5 18.5 -2.5 q8.5 -3 15 -9.5 q6.5 -6.5 8.5 -15.5 q4 -12 -3.5 -27 q-7.5 -15 -19.5 -22 q-59 -28 -102.5 -49 q-43.5 -21 -74.5 -36.5 q-31 -15.5 -52 -26.5 q-21 -11 -36 -20 ZM500 667 q-6 8 -7 17 q-1 9 0.5 18 q1.5 9 6.5 17 q5 8 12 11 l1 1 q12 6 27.5 2.5 q15.5 -3.5 23.5 -14.5 q16 -20 32 -42 q16 -22 31 -44.5 q15 -22.5 28 -43.5 q13 -21 23 -40 q4 -7 4 -14.5 q0 -7.5 -1.5 -15 q-1.5 -7.5 -6 -14 q-4.5 -6.5 -10.5 -10.5 l-2 -2 q-9 -4 -18 -4.5 q-9 -0.5 -17.5 2.5 q-8.5 3 -16 9 q-7.5 6 -12.5 14 q-17 35 -43.5 76 q-26.5 41 -54.5 77 Z" /><glyph glyph-name="" unicode="&#x4eea;" d="M503 763 q8 1 15.5 -1.5 q7.5 -2.5 13.5 -7.5 q6 -5 11 -12.5 q5 -7.5 6 -14.5 q24 -127 61.5 -237 q37.5 -110 92.5 -200 q15 -24 31 -47 q22 30 41 61 q58 93 93.5 203 q35.5 110 57.5 234 q2 7 6.5 14.5 q4.5 7.5 12 12 q7.5 4.5 15.5 7.5 q8 3 16 1 q8 -1 14.5 -6 q6.5 -5 11.5 -12 q5 -7 7 -15 q2 -8 0 -17 q-26 -134 -66 -253.5 q-40 -119.5 -104 -219.5 q-24 -39 -53 -75 q23 -25 48 -48 q76 -70 176 -115 q22 -12 27 -32 q5 -20 -9 -38 q-8 -11 -24 -15.5 q-16 -4.5 -29 2.5 q-112 49 -195 125 q-28 26 -54 55 q-21 -21 -44 -41 q-93 -81 -225 -139 q-13 -7 -29 -3 q-16 4 -23 13 q-11 15 -4 34.5 q7 19.5 27 29.5 q121 54 205 129 q22 19 42 40 q-20 27 -37 56 q-60 99 -100 220 q-40 121 -68 263 q-1 8 1 16.5 q2 8.5 6.5 15 q4.5 6.5 11 11.5 q6.5 5 14.5 6 ZM347 800 q3 8 9 13.5 q6 5.5 13 9 q7 3.5 15 5 q8 1.5 15 -1.5 q8 -2 14 -8 q6 -6 9.5 -13.5 q3.5 -7.5 4.5 -16.5 q1 -9 -3 -17 q-37 -89 -85 -172 l0 -636 q0 -8 -3.5 -16 q-3.5 -8 -9 -14 q-5.5 -6 -12.5 -9.5 q-7 -3.5 -14.5 -3.5 q-7.5 0 -14.5 3.5 q-7 3.5 -13 10 q-6 6.5 -9.5 14 q-3.5 7.5 -3.5 15.5 l0 513 q-27 -37 -56 -71 q-7 -9 -16 -12.5 q-9 -3.5 -18 -2.5 q-9 1 -17 6.5 q-8 5.5 -13 14.5 q-1 1 -1.5 2 q-0.5 1 -1.5 2 q-6 12 -4 28.5 q2 16.5 11 27.5 q61 65 113.5 150.5 q52.5 85.5 90.5 178.5 ZM663 745 q-4 8 -5 17 q-1 9 1 17.5 q2 8.5 6 15.5 q4 7 12 10 q11 6 26.5 1 q15.5 -5 22.5 -16 q23 -34 44.5 -70.5 q21.5 -36.5 35.5 -66.5 q5 -12 0.5 -27 q-4.5 -15 -15.5 -20 q-8 -4 -17 -4 q-9 0 -17.5 3.5 q-8.5 3.5 -16 10 q-7.5 6.5 -11.5 15.5 q-12 25 -29.5 55.5 q-17.5 30.5 -36.5 58.5 Z" /><glyph glyph-name="" unicode="&#x4eec;" d="M675 768 q0 7 3.5 14 q3.5 7 9.5 12.5 q6 5.5 14 8.5 q8 3 16 3 l265 0 q8 0 15 -3 q7 -3 14 -9 q6 -5 9.5 -12 q3.5 -7 3.5 -14 l0 -748 q0 -36 -9.5 -55 q-9.5 -19 -33.5 -30 q-20 -8 -50.5 -10.5 q-30.5 -2.5 -75.5 -3.5 q-14 0 -27 9 q-13 9 -17 20 q-5 19 8 33.5 q13 14.5 37 15.5 q23 -1 37 -1 q14 0 26 1 q12 1 16.5 5.5 q4.5 4.5 4.5 16.5 l0 709 l-223 0 q-8 0 -16 3 q-8 3 -14 8.5 q-6 5.5 -9.5 12.5 q-3.5 7 -3.5 14 ZM308 794 q3 8 8.5 14.5 q5.5 6.5 13 11.5 q7.5 5 15 6.5 q7.5 1.5 15.5 -0.5 q7 -2 13 -7.5 q6 -5.5 9.5 -13 q3.5 -7.5 4.5 -16 q1 -8.5 -1 -16.5 q-29 -90 -65 -175 l0 -635 q0 -9 -3.5 -17 q-3.5 -8 -9 -14 q-5.5 -6 -12.5 -9.5 q-7 -3.5 -15 -3.5 q-8 0 -15 3.5 q-7 3.5 -13 9.5 q-6 6 -9 14 q-3 8 -3 16 l0 478 q-13 -21 -26 -41 q-7 -10 -15.5 -15 q-8.5 -5 -17.5 -4.5 q-9 0.5 -17 6.5 q-8 6 -14 16 q-1 2 -1 3 q0 1 -1 3 q-6 9 -5.5 24 q0.5 15 8.5 24 q47 68 87.5 156 q40.5 88 68.5 182 ZM434 593 q0 8 3.5 16 q3.5 8 9.5 14 q6 6 13 9.5 q7 3.5 15 3.5 q8 0 15.5 -3.5 q7.5 -3.5 13 -9.5 q5.5 -6 9 -14 q3.5 -8 3.5 -16 l0 -631 q0 -8 -3.5 -16 q-3.5 -8 -9 -14 q-5.5 -6 -13 -9.5 q-7.5 -3.5 -15.5 -3.5 q-8 0 -15 3.5 q-7 3.5 -13 9.5 q-6 6 -9.5 14 q-3.5 8 -3.5 16 l0 631 ZM503 766 q-5 7 -6.5 16 q-1.5 9 -0.5 17.5 q1 8.5 5.5 15.5 q4.5 7 10.5 11 q11 6 26.5 1.5 q15.5 -4.5 24.5 -16.5 q22 -30 43 -64 q21 -34 37 -62 q3 -6 4 -14 q1 -8 -1 -15.5 q-2 -7.5 -5.5 -14 q-3.5 -6.5 -9.5 -9.5 q-7 -4 -15.5 -4.5 q-8.5 -0.5 -17 2.5 q-8.5 3 -16 9 q-7.5 6 -12.5 14 q-12 25 -30 55 q-18 30 -37 58 Z" /><glyph glyph-name="" unicode="&#x4ef6;" d="M701 788 q0 7 3.5 15 q3.5 8 9.5 14 q6 6 13 9.5 q7 3.5 15 3.5 l2 0 q8 0 15.5 -3.5 q7.5 -3.5 13 -9.5 q5.5 -6 9 -14 q3.5 -8 3.5 -15 l0 -149 l182 0 q9 0 16.5 -3 q7.5 -3 13.5 -9 q6 -6 10 -13.5 q4 -7.5 4 -15.5 q0 -8 -4 -15 q-4 -7 -10 -13 q-6 -6 -13.5 -9.5 q-7.5 -3.5 -16.5 -3.5 l-182 0 l0 -211 l228 0 q8 0 15.5 -3.5 q7.5 -3.5 13.5 -9.5 q6 -6 9.5 -13 q3.5 -7 3.5 -15 q0 -8 -3.5 -15.5 q-3.5 -7.5 -9.5 -13 q-6 -5.5 -13.5 -9 q-7.5 -3.5 -15.5 -3.5 l-228 0 l0 -304 q0 -7 -3.5 -15 q-3.5 -8 -9 -14 q-5.5 -6 -13 -9.5 q-7.5 -3.5 -15.5 -3.5 l-2 0 q-8 0 -15 3.5 q-7 3.5 -13 9.5 q-6 6 -9.5 14 q-3.5 8 -3.5 15 l0 304 l-242 0 q-7 0 -15 3.5 q-8 3.5 -14 9 q-6 5.5 -9.5 13 q-3.5 7.5 -3.5 15.5 q0 8 3.5 15 q3.5 7 9.5 13 q6 6 14 9.5 q8 3.5 15 3.5 l242 0 l0 211 l-124 0 q-10 0 -18 4 q-4 2 -7 4 q-22 -63 -50 -114 q-4 -8 -11 -13.5 q-7 -5.5 -15 -8.5 q-8 -3 -16 -2.5 q-8 0.5 -14 4.5 q-15 8 -18.5 27 q-3.5 19 4.5 36 q30 52 51.5 117 q21.5 65 36.5 136 q2 8 7 15.5 q5 7.5 12 12.5 q7 5 15 7 q8 2 16 1 q8 -2 14 -7 q6 -5 10.5 -12.5 q4.5 -7.5 5.5 -15.5 q1 -8 -1 -17 q-10 -47 -23 -92 l125 0 l0 149 ZM348 800 q3 8 9 13.5 q6 5.5 13 9 q7 3.5 15 5 q8 1.5 15 -1.5 q9 -2 15 -8 q6 -6 9 -13.5 q3 -7.5 4 -16.5 q1 -9 -3 -17 q-36 -90 -83 -175 l0 -633 q0 -8 -3 -16 q-3 -8 -9 -14 q-6 -6 -13 -9.5 q-7 -3.5 -14.5 -3.5 q-7.5 0 -14.5 3.5 q-7 3.5 -13 10 q-6 6.5 -9.5 14 q-3.5 7.5 -3.5 15.5 l0 504 q-23 -32 -46 -61 q-8 -9 -16.5 -13 q-8.5 -4 -18 -3 q-9.5 1 -17.5 6.5 q-8 5.5 -14 14.5 q-1 1 -1 2 q0 1 -1 2 q-7 12 -5 28.5 q2 16.5 11 27.5 q58 65 108 150.5 q50 85.5 86 178.5 Z" /><glyph glyph-name="" unicode="&#x4ef7;" d="M350 803 q2 8 8 13.5 q6 5.5 13.5 9 q7.5 3.5 15.5 5 q8 1.5 14 -0.5 q8 -3 14.5 -8.5 q6.5 -5.5 9.5 -13.5 q3 -8 4 -17 q1 -9 -2 -17 q-36 -89 -81 -174 l0 -638 q0 -9 -3.5 -16.5 q-3.5 -7.5 -9.5 -14 q-6 -6.5 -13.5 -10 q-7.5 -3.5 -15.5 -3.5 l-1 0 q-8 0 -15 3.5 q-7 3.5 -13 10 q-6 6.5 -9.5 14 q-3.5 7.5 -3.5 15.5 l0 502 q-20 -29 -41 -55 q-7 -9 -16 -12.5 q-9 -3.5 -18 -2.5 q-9 1 -17 6.5 q-8 5.5 -14 14.5 q0 1 -0.5 2 q-0.5 1 -1.5 2 q-7 12 -5.5 28.5 q1.5 16.5 10.5 27.5 q57 65 106 150.5 q49 85.5 85 178.5 ZM681 812 q5 12 19.5 20.5 q14.5 8.5 27.5 5.5 l4 0 q10 -2 17 -7.5 q7 -5.5 11 -13.5 q4 -8 5 -17 q1 -9 -4 -18 q0 -1 -1 -2 q5 -4 9 -10 q22 -37 51.5 -72.5 q29.5 -35.5 62.5 -69 q33 -33.5 68 -62.5 q35 -29 71 -52 q18 -13 22 -33 q4 -20 -8 -35 q-5 -5 -12 -8.5 q-7 -3.5 -15 -4.5 q-8 -1 -16 0.5 q-8 1.5 -14 6.5 q-39 26 -77 59 q-38 33 -74 71.5 q-36 38.5 -68 80.5 q-22 27 -40 56 q-6 -10 -13 -20 q-31 -48 -70 -93.5 q-39 -45.5 -86.5 -88 q-47.5 -42.5 -103.5 -79.5 q-15 -9 -32.5 -6.5 q-17.5 2.5 -25.5 13.5 q-11 15 -5.5 35 q5.5 20 24.5 32 q50 33 92 71.5 q42 38.5 76.5 78.5 q34.5 40 60 81.5 q25.5 41.5 44.5 80.5 ZM537 406 q0 8 3.5 15.5 q3.5 7.5 9.5 13.5 q6 6 13.5 10 q7.5 4 15.5 4 l2 0 q8 0 15 -4 q7 -4 13 -10 q6 -6 9.5 -13.5 q3.5 -7.5 3.5 -15.5 l0 -95 q0 -40 -4.5 -86.5 q-4.5 -46.5 -19.5 -95.5 q-15 -49 -43 -97 q-28 -48 -76 -92 q-5 -6 -13 -9 q-8 -3 -16 -3 q-8 0 -15.5 2.5 q-7.5 2.5 -12.5 7.5 q-13 13 -11 33.5 q2 20.5 15 37.5 q39 36 61 74.5 q22 38.5 33 78 q11 39.5 14 77.5 q3 38 3 73 l0 94 ZM818 407 q0 8 3.5 16 q3.5 8 10 14 q6.5 6 13.5 9.5 q7 3.5 15 3.5 l3 0 q8 0 15.5 -3.5 q7.5 -3.5 13.5 -9.5 q6 -6 9 -14 q3 -8 3 -16 l0 -444 q0 -8 -3 -16 q-3 -8 -9 -14 q-6 -6 -13.5 -9.5 q-7.5 -3.5 -15.5 -3.5 l-3 0 q-8 0 -15 3.5 q-7 3.5 -13.5 9.5 q-6.5 6 -10 14 q-3.5 8 -3.5 16 l0 444 Z" /><glyph glyph-name="" unicode="&#x4efb;" d="M936 810 q10 4 23.5 0.5 q13.5 -3.5 19.5 -11.5 l5 -6 q8 -8 10 -17.5 q2 -9.5 -0.5 -18.5 q-2.5 -9 -9.5 -15.5 q-7 -6.5 -18 -10.5 q-48 -14 -104 -26 q-43 -10 -89 -19 q5 -5 8 -12 q3 -8 3 -16 l0 -242 l234 0 q8 0 15.5 -3.5 q7.5 -3.5 14 -9 q6.5 -5.5 10 -13 q3.5 -7.5 3.5 -15 q0 -7.5 -3.5 -14.5 q-3.5 -7 -10 -13 q-6.5 -6 -14 -9.5 q-7.5 -3.5 -15.5 -3.5 l-234 0 l0 -278 q0 -8 -3 -16 q-1 -2 -3 -4 l225 0 q8 0 16 -3.5 q8 -3.5 14 -9 q6 -5.5 9.5 -12.5 q3.5 -7 3.5 -15 q0 -8 -3.5 -15 q-3.5 -7 -9.5 -13 q-6 -6 -14 -9.5 q-8 -3.5 -16 -3.5 l-514 0 q-8 0 -16 3.5 q-8 3.5 -14 9.5 q-6 6 -9.5 13 q-3.5 7 -3.5 15 q0 8 3.5 15 q3.5 7 9.5 12.5 q6 5.5 14 9 q8 3.5 16 3.5 l216 0 l-2 4 q-4 8 -4 16 l0 278 l-249 0 q-8 0 -16 3.5 q-8 3.5 -14 9.5 q-6 6 -9.5 13 q-3.5 7 -3.5 14.5 q0 7.5 3.5 15 q3.5 7.5 9.5 13 q6 5.5 14 9 q8 3.5 16 3.5 l249 0 l0 242 q0 8 3 15 q-38 -6 -77 -12 q-61 -9 -120 -17 q-16 -2 -30.5 6 q-14.5 8 -18.5 19 q-5 16 6.5 31 q11.5 15 32.5 18 q59 9 120 19 q61 10 118.5 22 q57.5 12 109.5 25 q52 13 93 26 ZM374 803 q2 7 8 13 q6 6 13.5 9.5 q7.5 3.5 15.5 4.5 q8 1 15 -1 l3 -1 q8 -2 14 -8 q6 -6 9.5 -14 q3.5 -8 4 -17 q0.5 -9 -3.5 -17 q-39 -87 -88 -168 l0 -642 q0 -8 -3 -16 q-3 -8 -9.5 -14 q-6.5 -6 -13.5 -9.5 q-7 -3.5 -15 -3.5 q-8 0 -15.5 3.5 q-7.5 3.5 -13.5 9.5 q-6 6 -9.5 14 q-3.5 8 -3.5 16 l0 519 q-35 -46 -72 -87 q-7 -8 -16 -11.5 q-9 -3.5 -18 -2.5 q-9 1 -17.5 6.5 q-8.5 5.5 -13.5 13.5 l-1 3 l-2 2 q-8 12 -5.5 30.5 q2.5 18.5 11.5 29.5 q67 65 125.5 153 q58.5 88 100.5 185 Z" /><glyph glyph-name="" unicode="&#x4efd;" d="M497 413 q0 8 3.5 15 q3.5 7 9.5 12.5 q6 5.5 14 8.5 q8 3 16 3 l372 0 q8 0 16 -3 q8 -3 14 -8 q2 -2 3 -4 q3 -3 5 -6 q2 -4 3 -7 q2 -5 2 -11 q0 -4 -1 -8 q-5 -109 -10 -186 q-6 -80 -12.5 -132.5 q-6.5 -52.5 -15.5 -81.5 q-9 -29 -20 -43 q-14 -18 -30 -25.5 q-16 -7.5 -39 -9.5 q-13 -1 -34 -1.5 q-21 -0.5 -45 0.5 q-14 -1 -27 8.5 q-13 9.5 -16 20.5 q-5 19 5.5 33 q10.5 14 32.5 13 q8 -1 13.5 -1 q5.5 0 11 -0.5 q5.5 -0.5 10.5 -0.5 l12 0 q12 0 19.5 2.5 q7.5 2.5 14.5 11.5 q9 9 15.5 35.5 q6.5 26.5 12.5 76.5 q6 50 11 127 q4 53 7 122 l-178 0 q2 -4 3 -9 q3 -8 2 -16 q-19 -144 -67.5 -244.5 q-48.5 -100.5 -140.5 -166.5 q-5 -5 -13 -6.5 q-8 -1.5 -15.5 -0.5 q-7.5 1 -14 3.5 q-6.5 2.5 -10.5 7.5 q-13 15 -8.5 35 q4.5 20 22.5 35 q74 55 112.5 140.5 q38.5 85.5 52.5 202.5 q1 8 6 16 q1 1 2 3 l-83 0 q-8 0 -16 3.5 q-8 3.5 -14 9 q-6 5.5 -9.5 12.5 q-3.5 7 -3.5 14 ZM341 800 q2 8 8 13.5 q6 5.5 13.5 9 q7.5 3.5 15.5 5 q8 1.5 15 -0.5 q8 -3 14 -8.5 q6 -5.5 9.5 -13.5 q3.5 -8 4 -17 q0.5 -9 -2.5 -16 q-34 -89 -78 -172 l0 -638 q0 -9 -3.5 -16.5 q-3.5 -7.5 -9.5 -14 q-6 -6.5 -13 -10 q-7 -3.5 -15 -3.5 q-8 0 -15.5 3.5 q-7.5 3.5 -13.5 10 q-6 6.5 -9.5 14 q-3.5 7.5 -3.5 15.5 l0 501 q-20 -29 -41 -56 q-7 -9 -15.5 -13 q-8.5 -4 -17.5 -3 q-9 1 -17.5 6.5 q-8.5 5.5 -13.5 14.5 q-1 1 -1.5 2 q-0.5 1 -1.5 2 q-7 12 -5.5 28.5 q1.5 16.5 11.5 27.5 q55 65 103 151 q48 86 83 178 ZM588 776 q4 14 19.5 24 q15.5 10 30.5 7 q8 -2 14.5 -7 q6.5 -5 11 -13 q4.5 -8 6 -16.5 q1.5 -8.5 -1.5 -16.5 q-33 -104 -82.5 -191 q-49.5 -87 -114.5 -152 q-7 -8 -16 -11 q-9 -3 -18 -2 q-9 1 -16.5 5.5 q-7.5 4.5 -13.5 11.5 q-4 6 -5.5 15 q-1.5 9 -0.5 18 q1 9 5 17.5 q4 8.5 10 14.5 q58 56 101 130.5 q43 74.5 71 165.5 ZM822 815 q15 3 28.5 -7.5 q13.5 -10.5 18.5 -25.5 q13 -49 29.5 -90.5 q16.5 -41.5 36 -77 q19.5 -35.5 44 -66.5 q24.5 -31 54.5 -58 q15 -15 18 -35 q3 -20 -8 -33 q-6 -7 -14.5 -10.5 q-8.5 -3.5 -17.5 -4.5 q-9 -1 -17.5 2.5 q-8.5 3.5 -16.5 10.5 q-33 33 -61 70 q-28 37 -50.5 79.5 q-22.5 42.5 -40 90.5 q-17.5 48 -32.5 105 q-2 8 -0.5 16.5 q1.5 8.5 5.5 15.5 q4 7 10.5 12 q6.5 5 13.5 6 Z" /><glyph glyph-name="" unicode="&#x4eff;" d="M423 626 q0 8 3.5 15 q3.5 7 9.5 13 q6 6 14 9.5 q8 3.5 15 3.5 l555 0 q7 0 15 -3.5 q8 -3.5 14 -9.5 q6 -6 9.5 -13 q3.5 -7 3.5 -15 q0 -8 -3.5 -15.5 q-3.5 -7.5 -9.5 -13 q-6 -5.5 -14 -9 q-8 -3.5 -15 -3.5 l-341 0 q1 -3 1 -5 q-3 -70 -8 -139 q1 1 3 2 q8 3 16 3 l259 0 q8 0 16 -3.5 q8 -3.5 14 -8.5 l4 -4 q2 -2 4 -5 q3 -4 4 -8 q1 -5 1 -10 q0 -5 -2 -10 q-4 -106 -10 -181 q-5 -78 -12 -129.5 q-7 -51.5 -15.5 -80.5 q-8.5 -29 -20.5 -42 q-16 -19 -33.5 -26 q-17.5 -7 -42.5 -9 q-16 -2 -42 -2 q-26 0 -56 1 q-14 0 -27 9.5 q-13 9.5 -16 19.5 q-6 20 8 33.5 q14 13.5 41 12.5 q9 0 16 -0.5 q7 -0.5 13 -0.5 l26 0 q13 -1 20.5 1 q7.5 2 14.5 9 l5 5 q9 10 15.5 36.5 q6.5 26.5 12.5 75 q6 48.5 10 122.5 q3 50 6 117 l-213 0 q-8 0 -16 3 q-5 2 -9 5 q-9 -81 -28 -154 q-21 -82 -60 -152.5 q-39 -70.5 -103 -124.5 q-6 -6 -14.5 -8.5 q-8.5 -2.5 -16.5 -2.5 q-8 0 -15.5 2.5 q-7.5 2.5 -12.5 7.5 q-13 13 -10.5 33.5 q2.5 20.5 18.5 36.5 q54 49 86 112.5 q32 63.5 49.5 137.5 q17.5 74 23.5 155 q6 81 8 163 l0 3 l-126 0 q-7 0 -15 3.5 q-8 3.5 -14 9 q-6 5.5 -9.5 13 q-3.5 7.5 -3.5 15.5 ZM346 803 q3 7 9 13 q6 6 13.5 9.5 q7.5 3.5 16 5 q8.5 1.5 15.5 -0.5 q8 -3 14 -9 q6 -6 9.5 -13.5 q3.5 -7.5 4 -16.5 q0.5 -9 -2.5 -17 q-37 -92 -84 -178 l0 -632 q0 -9 -3 -16.5 q-3 -7.5 -9 -14 q-6 -6.5 -13.5 -10 q-7.5 -3.5 -15 -3.5 q-7.5 0 -15 3.5 q-7.5 3.5 -13 10 q-5.5 6.5 -9.5 14 q-4 7.5 -4 15.5 l0 501 q-21 -29 -42 -56 q-8 -9 -16.5 -13 q-8.5 -4 -18 -3 q-9.5 1 -17.5 6.5 q-8 5.5 -13 14.5 q-1 1 -1.5 2.5 q-0.5 1.5 -1.5 2.5 q-7 12 -5.5 29 q1.5 17 10.5 28 q58 65 107 150 q49 85 85 178 ZM696 778 q-3 9 -2 17.5 q1 8.5 5.5 16.5 q4.5 8 11 13.5 q6.5 5.5 14.5 7.5 l5 1 q13 3 27.5 -5 q14.5 -8 19.5 -21 q7 -19 14 -38.5 q7 -19.5 12 -36.5 q2 -7 1 -15.5 q-1 -8.5 -5 -15.5 q-4 -7 -10 -12.5 q-6 -5.5 -13 -7.5 l-5 -1 q-8 -3 -16.5 -1 q-8.5 2 -16.5 7 q-8 5 -13.5 12 q-5.5 7 -7.5 16 q-4 13 -9.5 30 q-5.5 17 -11.5 33 Z" /><glyph glyph-name="" unicode="&#x4f01;" d="M178 -14 q0 7 4 13.5 q4 6.5 10 12 q6 5.5 14 9 q8 3.5 16 3.5 l80 0 l0 323 q0 8 3.5 16 q3.5 8 9.5 14.5 q6 6.5 13.5 10 q7.5 3.5 15 3.5 q7.5 0 15 -3.5 q7.5 -3.5 13 -10 q5.5 -6.5 9 -14.5 q3.5 -8 3.5 -16 l0 -323 l180 0 l0 498 q0 8 3.5 16 q3.5 8 9.5 14 q6 6 13.5 9.5 q7.5 3.5 15.5 3.5 l5 0 q8 0 15 -3.5 q7 -3.5 13 -9.5 q6 -6 9.5 -14 q3.5 -8 3.5 -16 l0 -182 l244 0 q7 0 15 -3 q8 -3 14 -8.5 q6 -5.5 9.5 -12.5 q3.5 -7 3.5 -14 q0 -7 -3.5 -14 q-3.5 -7 -9.5 -12 q-6 -5 -14 -8.5 q-8 -3.5 -15 -3.5 l-244 0 l0 -240 l337 0 q8 0 15.5 -3.5 q7.5 -3.5 14 -9 q6.5 -5.5 10 -12 q3.5 -6.5 3.5 -13.5 q0 -7 -3.5 -14 q-3.5 -7 -10 -13 q-6.5 -6 -14 -9 q-7.5 -3 -15.5 -3 l-767 0 q-8 0 -16 3 q-8 3 -14 9 q-6 6 -10 13 q-4 7 -4 14 ZM574 821 q8 11 24.5 16 q16.5 5 28.5 -1 q8 -4 13.5 -11.5 q5.5 -7.5 7.5 -16 q2 -8.5 0 -17.5 q-1 -4 -3 -8 q7 -3 12 -8 q79 -90 169 -152 q90 -62 188 -108 q23 -10 29.5 -29 q6.5 -19 -5.5 -36 q-3 -5 -10 -9 q-7 -4 -14.5 -6 q-7.5 -2 -15.5 -1.5 q-8 0.5 -15 3.5 q-102 52 -196.5 119 q-94.5 67 -182.5 167 l-2 4 q-23 -27 -48 -52 q-46 -49 -100 -92 q-54 -43 -112 -80 q-58 -37 -119 -66 q-7 -3 -14.5 -3.5 q-7.5 -0.5 -15.5 1.5 q-8 2 -14 6 q-6 4 -10 8 q-14 17 -8 36.5 q6 19.5 27 30.5 q57 26 112 59.5 q55 33.5 104.5 73 q49.5 39.5 92.5 83 q43 43.5 77 89.5 Z" /><glyph glyph-name="" unicode="&#x4f0f;" d="M414 509 q0 8 3.5 15 q3.5 7 10 13.5 q6.5 6.5 14 9.5 q7.5 3 15.5 3 l216 0 l0 247 q0 8 3.5 16 q3.5 8 10 14 q6.5 6 13.5 9.5 q7 3.5 15 3.5 l2 0 q8 0 15 -3.5 q7 -3.5 13 -9.5 q6 -6 9.5 -14 q3.5 -8 3.5 -16 l0 -194 q0 -26 -1 -53 l250 0 q8 0 15.5 -3 q7.5 -3 13.5 -9.5 q6 -6.5 10 -13.5 q4 -7 4 -15 q0 -8 -4 -15.5 q-4 -7.5 -10 -13.5 q-6 -6 -13.5 -9.5 q-7.5 -3.5 -15.5 -3.5 l-237 0 q16 -70 38 -134 q23 -66 54 -123 q31 -57 70 -103.5 q39 -46.5 86 -80.5 q17 -14 20 -35.5 q3 -21.5 -10 -36.5 q-5 -6 -13 -9.5 q-8 -3.5 -16.5 -4.5 q-8.5 -1 -17 1 q-8.5 2 -15.5 8 q-52 39 -94 91.5 q-42 52.5 -75 117 q-33 64.5 -58 138.5 q-5 14 -10 29 q-6 -27 -15 -54 q-27 -85 -78.5 -168 q-51.5 -83 -137.5 -157 q-5 -6 -13 -8.5 q-8 -2.5 -16 -2.5 q-8 0 -15.5 2 q-7.5 2 -13.5 6 q-15 12 -15.5 33 q-0.5 21 14.5 36 q79 69 125.5 143.5 q46.5 74.5 71 150.5 q24.5 76 31.5 152 l0 9 l-210 0 q-8 0 -15.5 3.5 q-7.5 3.5 -14 9.5 q-6.5 6 -10 13.5 q-3.5 7.5 -3.5 15.5 ZM356 802 q3 7 9 13 q6 6 14 10 q8 4 15.5 5 q7.5 1 14.5 -1 q9 -2 15 -8 q6 -6 9.5 -14 q3.5 -8 4 -16.5 q0.5 -8.5 -2.5 -16.5 q-36 -87 -82 -168 l0 -642 q0 -9 -3.5 -17 q-3.5 -8 -9.5 -14 q-6 -6 -13 -10 q-7 -4 -15 -4 l-1 0 q-8 0 -15.5 4 q-7.5 4 -13.5 10 q-6 6 -9.5 13.5 q-3.5 7.5 -3.5 16.5 l0 511 q-27 -37 -56 -71 q-7 -9 -16 -12.5 q-9 -3.5 -18 -3 q-9 0.5 -17 6 q-8 5.5 -14 14.5 q-1 2 -1.5 3.5 q-0.5 1.5 -1.5 3.5 q-7 11 -4.5 27.5 q2.5 16.5 10.5 27.5 q60 65 113.5 151.5 q53.5 86.5 91.5 180.5 ZM854 737 q-4 8 -6 16.5 q-2 8.5 -0.5 17 q1.5 8.5 5.5 16 q4 7.5 11 10.5 q5 3 12 3.5 q7 0.5 14 -1.5 q7 -2 13.5 -6 q6.5 -4 10.5 -10 q22 -26 43.5 -55.5 q21.5 -29.5 36.5 -53.5 q4 -6 5 -13.5 q1 -7.5 -0.5 -15 q-1.5 -7.5 -5.5 -13.5 q-4 -6 -10 -10 q-6 -4 -15 -4.5 q-9 -0.5 -17.5 2.5 q-8.5 3 -16 9 q-7.5 6 -12.5 14 q-13 21 -31.5 46.5 q-18.5 25.5 -36.5 47.5 Z" /><glyph glyph-name="" unicode="&#x4f11;" d="M686 784 q0 8 3.5 16 q3.5 8 9.5 14 q6 6 13.5 9.5 q7.5 3.5 15.5 3.5 q8 0 15 -3.5 q7 -3.5 13 -9.5 q6 -6 9.5 -14 q3.5 -8 3.5 -16 l0 -195 l242 0 q8 0 16 -3 q8 -3 14 -9 q6 -6 9.5 -13.5 q3.5 -7.5 3.5 -15 q0 -7.5 -3.5 -15 q-3.5 -7.5 -9.5 -13 q-6 -5.5 -14 -9.5 q-8 -4 -16 -4 l-197 0 q18 -45 41 -91 q27 -53 57.5 -101.5 q30.5 -48.5 64 -91 q33.5 -42.5 67.5 -76.5 q13 -15 14 -34.5 q1 -19.5 -11 -32.5 q-6 -6 -14.5 -9.5 q-8.5 -3.5 -17.5 -3 q-9 0.5 -17.5 4.5 q-8.5 4 -14.5 11 q-35 37 -69 85 q-34 48 -65.5 102.5 q-31.5 54.5 -58.5 113.5 q-11 23 -21 46 l0 -469 q0 -8 -3.5 -16 q-3.5 -8 -9.5 -14 q-6 -6 -13 -9.5 q-7 -3.5 -15 -3.5 q-8 0 -15.5 3.5 q-7.5 3.5 -13.5 9.5 q-6 6 -9.5 14 q-3.5 8 -3.5 16 l0 447 q-7 -16 -15 -32 q-28 -60 -61 -114.5 q-33 -54.5 -69 -102.5 q-36 -48 -74 -86 q-6 -7 -14.5 -10 q-8.5 -3 -16.5 -3 q-8 0 -16.5 3 q-8.5 3 -13.5 9 q-7 7 -9.5 15.5 q-2.5 8.5 -1.5 18 q1 9.5 4.5 19 q3.5 9.5 11.5 16.5 q36 34 70 77 q34 43 65 92 q31 49 58 103 q23 47 41 94 l-194 0 q-7 0 -15 4 q-8 4 -14 9.5 q-6 5.5 -9.5 13 q-3.5 7.5 -3.5 15 q0 7.5 3.5 15 q3.5 7.5 9.5 13.5 q6 6 14 9 q8 3 15 3 l235 0 l0 195 ZM373 798 q6 14 22.5 22 q16.5 8 30.5 4 l3 -1 q9 -2 14.5 -8 q5.5 -6 9 -14 q3.5 -8 4 -17 q0.5 -9 -3.5 -17 q-40 -90 -91 -173 l0 -630 q0 -9 -3 -16.5 q-3 -7.5 -9 -13.5 q-6 -6 -13 -10 q-7 -4 -16 -4 q-7 0 -14.5 4 q-7.5 4 -14 10 q-6.5 6 -9.5 14 q-3 8 -3 16 l0 511 q-35 -45 -73 -84 q-7 -8 -15.5 -11 q-8.5 -3 -18 -2 q-9.5 1 -17.5 6.5 q-8 5.5 -13 13.5 l-3 7 q-9 12 -6 30 q3 18 13 29 q67 64 125.5 151 q58.5 87 100.5 183 Z" /><glyph glyph-name="" unicode="&#x4f17;" d="M571 814 q8 12 25 19 q17 7 31 1 l4 -1 q8 -4 13.5 -10.5 q5.5 -6.5 8 -14.5 q2.5 -8 2.5 -16.5 q0 -8.5 -5 -15.5 q-3 -6 -6 -11 q6 -4 11 -10 q28 -38 65.5 -74 q37.5 -36 82 -67.5 q44.5 -31.5 94.5 -58 q50 -26.5 101 -44.5 q24 -9 30.5 -29.5 q6.5 -20.5 -6.5 -39.5 q-8 -10 -23.5 -15 q-15.5 -5 -27.5 0 q-56 21 -109.5 51 q-53.5 30 -102 67.5 q-48.5 37.5 -90.5 80.5 q-36 37 -66 78 q-53 -74 -125 -134 q-105 -89 -236 -145 q-7 -4 -15 -4 q-8 0 -16 2.5 q-8 2.5 -14.5 7 q-6.5 4.5 -10.5 9.5 q-14 19 -8.5 39.5 q5.5 20.5 27.5 30.5 q119 47 214 124 q95 77 152 180 ZM727 433 q1 9 5.5 16 q4.5 7 11 12.5 q6.5 5.5 14 8.5 q7.5 3 15.5 2 l2 0 q8 0 15 -5 q7 -5 12 -11.5 q5 -6.5 7 -14.5 q2 -8 1 -17 q-6 -52 -16 -99 q3 -2 5 -5 q7 -7 11 -16 q13 -35 30 -72.5 q17 -37.5 40 -73 q23 -35.5 52.5 -67 q29.5 -31.5 65.5 -56.5 q18 -14 22.5 -35.5 q4.5 -21.5 -7.5 -38.5 q-4 -6 -11.5 -9.5 q-7.5 -3.5 -15.5 -4.5 q-8 -1 -16 0 q-8 1 -14 7 q-43 31 -78 71 q-35 40 -61.5 84 q-26.5 44 -46.5 89 q-2 6 -5 12 q-11 -34 -24 -65 q-25 -59 -58 -109 q-33 -50 -77 -91 q-4 -5 -11.5 -8 q-7.5 -3 -15 -3.5 q-7.5 -0.5 -15 1 q-7.5 1.5 -12.5 6.5 q-17 12 -16.5 33 q0.5 21 16.5 38 q78 72 118 177.5 q40 105.5 57 243.5 ZM366 439 q1 8 5.5 15.5 q4.5 7.5 11 12.5 q6.5 5 14.5 8 q8 3 15 2 l1 0 q8 0 15 -5 q7 -5 12.5 -11.5 q5.5 -6.5 7.5 -14.5 q2 -8 1 -16 q-9 -62 -22 -118 q10 -2 17 -8 q19 -16 39 -33 q20 -17 38.5 -34 q18.5 -17 35.5 -33.5 q17 -16.5 31 -31.5 q5 -4 7 -11 q2 -7 1.5 -15 q-0.5 -8 -2.5 -15 q-2 -7 -7 -11 q-6 -7 -15 -10 q-9 -3 -18 -2.5 q-9 0.5 -18 4.5 q-9 4 -16 12 q-11 13 -26 28 q-15 15 -31 30.5 q-16 15.5 -33 30.5 q-11 11 -23 21 q-13 -41 -28 -78 q-48 -119 -131 -202 q-5 -6 -12.5 -9 q-7.5 -3 -15.5 -4 q-8 -1 -15.5 0.5 q-7.5 1.5 -13.5 6.5 q-7 5 -11 14 q-4 9 -4 18.5 q0 9.5 3 19.5 q3 10 11 19 q74 73 116 179 q42 106 60 241 Z" /><glyph glyph-name="" unicode="&#x4f18;" d="M392 567 q0 7 3.5 14 q3.5 7 9.5 12.5 q6 5.5 14 9 q8 3.5 16 3.5 l178 0 q3 90 4 180 q0 8 3.5 16 q3.5 8 9.5 14 q6 6 13.5 9.5 q7.5 3.5 15.5 3.5 q8 0 15 -3.5 q7 -3.5 13.5 -9.5 q6.5 -6 10 -14 q3.5 -8 3.5 -16 q-1 -90 -5 -180 l312 0 q8 0 16 -3.5 q8 -3.5 14 -9 q6 -5.5 9.5 -12.5 q3.5 -7 3.5 -14.5 q0 -7.5 -3.5 -14.5 q-3.5 -7 -9.5 -13 q-6 -6 -14 -9 q-8 -3 -16 -3 l-316 0 q-7 -110 -28 -211 q-23 -110 -69.5 -204 q-46.5 -94 -127.5 -163 q-6 -6 -14 -8 q-8 -2 -16 -1.5 q-8 0.5 -15 3.5 q-7 3 -13 8 q-13 14 -10.5 34.5 q2.5 20.5 19.5 35.5 q71 64 111 150 q40 86 59 186 q16 82 22 170 l-175 0 q-8 0 -16 3 q-8 3 -14 9 q-6 6 -9.5 13 q-3.5 7 -3.5 15 ZM352 800 q2 8 8 14 q6 6 13.5 9.5 q7.5 3.5 15 5 q7.5 1.5 15.5 -1.5 q8 -2 14 -8 q6 -6 9 -13.5 q3 -7.5 4 -16.5 q1 -9 -3 -16 q-37 -96 -87 -185 l0 -626 q0 -9 -3.5 -17 q-3.5 -8 -9 -14 q-5.5 -6 -13 -9.5 q-7.5 -3.5 -15 -3.5 q-7.5 0 -14.5 3.5 q-7 3.5 -12.5 10 q-5.5 6.5 -9.5 14 q-4 7.5 -4 15.5 l0 499 q-19 -28 -40 -53 q-7 -9 -16 -12.5 q-9 -3.5 -17.5 -3 q-8.5 0.5 -17 6 q-8.5 5.5 -14.5 14.5 q0 1 -0.5 2 q-0.5 1 -1.5 2 q-7 12 -5 28.5 q2 16.5 10 27.5 q58 65 107.5 150.5 q49.5 85.5 86.5 177.5 ZM735 409 q0 8 3.5 15.5 q3.5 7.5 9.5 13.5 q6 6 13.5 10 q7.5 4 14.5 4 q8 0 15.5 -4 q7.5 -4 13 -10 q5.5 -6 9 -13.5 q3.5 -7.5 3.5 -15.5 l0 -350 q0 -23 6 -30 q6 -7 28 -7 l94 0 q9 0 14.5 3 q5.5 3 9.5 12.5 q4 9.5 6 26 q2 16.5 3 42.5 q4 26 18.5 39 q14.5 13 34.5 5 q10 -4 17 -17 q7 -13 6 -25 q-4 -48 -9.5 -79.5 q-5.5 -31.5 -16.5 -50 q-11 -18.5 -29 -26 q-18 -7.5 -47 -7.5 l-113 0 q-30 0 -50.5 5.5 q-20.5 5.5 -32.5 18.5 q-12 13 -16.5 35 q-4.5 22 -4.5 55 l0 350 ZM833 739 q-6 7 -9.5 16 q-3.5 9 -3.5 17 q0 8 3 16 q3 8 10 12 q9 7 24 4.5 q15 -2.5 25 -12.5 q23 -21 46.5 -45.5 q23.5 -24.5 40.5 -44.5 q10 -12 9 -29 q-1 -17 -12 -25 q-6 -5 -14.5 -6 q-8.5 -1 -17 1 q-8.5 2 -16.5 6.5 q-8 4.5 -14 11.5 q-13 18 -32.5 38.5 q-19.5 20.5 -38.5 39.5 Z" /><glyph glyph-name="" unicode="&#x4f19;" d="M691 789 q0 9 3.5 16.5 q3.5 7.5 9.5 13.5 q6 6 13.5 10 q7.5 4 15.5 4 l6 0 q8 0 15.5 -4 q7.5 -4 13 -10 q5.5 -6 9 -14 q3.5 -8 3.5 -16 q0 -158 -6 -290 q-2 -33 -5 -64 q4 -6 5 -13 q11 -72 30 -133.5 q19 -61.5 48 -111.5 q29 -50 69.5 -88 q40.5 -38 94.5 -64 q20 -13 26.5 -33.5 q6.5 -20.5 -6.5 -38.5 q-4 -6 -10.5 -10 q-6.5 -4 -14.5 -6 q-8 -2 -16 -1.5 q-8 0.5 -14 4.5 q-64 30 -111.5 75 q-47.5 45 -81.5 104 q-32 56 -53 126 q-28 -96 -83 -170 q-60 -81 -167 -137 q-7 -4 -15 -5 q-8 -1 -16 0.5 q-8 1.5 -14.5 5.5 q-6.5 4 -10.5 9 q-13 16 -8.5 36 q4.5 20 24.5 33 q93 50 143 122.5 q50 72.5 72.5 168 q22.5 95.5 26.5 215 q4 119.5 4 266.5 ZM354 803 q4 7 10 13 q6 6 13 9.5 q7 3.5 15 4.5 q8 1 16 -1 q9 -3 15 -9 q6 -6 9 -14 q3 -8 3.5 -16.5 q0.5 -8.5 -3.5 -16.5 q-34 -85 -78 -164 l0 -646 q0 -8 -3.5 -16 q-3.5 -8 -9.5 -14.5 q-6 -6.5 -13.5 -10 q-7.5 -3.5 -14.5 -3.5 l-5 0 q-8 0 -15 3.5 q-7 3.5 -13 10 q-6 6.5 -9.5 14 q-3.5 7.5 -3.5 15.5 l0 509 q-24 -33 -49 -63 q-7 -9 -16.5 -12.5 q-9.5 -3.5 -18.5 -2.5 q-9 1 -17.5 6.5 q-8.5 5.5 -12.5 14.5 q-1 1 -2 3 q-1 2 -2 3 q-6 12 -4 29 q2 17 11 27 q59 64 110 149 q51 85 88 178 ZM495 607 q1 9 5.5 16.5 q4.5 7.5 11.5 13 q7 5.5 14.5 8.5 q7.5 3 16.5 1 q7 -1 13 -5 q6 -4 10.5 -10.5 q4.5 -6.5 7.5 -14 q3 -7.5 2 -14.5 q-7 -59 -20.5 -120.5 q-13.5 -61.5 -34.5 -111.5 q-2 -8 -7.5 -14 q-5.5 -6 -13.5 -9.5 q-8 -3.5 -16 -4 q-8 -0.5 -14 2.5 l-4 1 q-7 2 -12.5 8.5 q-5.5 6.5 -8.5 15 q-3 8.5 -4 17.5 q-1 9 2 17 q18 43 31 97 q13 54 21 106 ZM958 610 q2 9 7.5 16.5 q5.5 7.5 13 12 q7.5 4.5 16 6.5 q8.5 2 16.5 0 l5 -1 q8 -2 14 -8 q6 -6 10 -14 q4 -8 5.5 -16.5 q1.5 -8.5 -1.5 -16.5 q-20 -53 -42.5 -107.5 q-22.5 -54.5 -43.5 -99.5 q-3 -7 -9 -12.5 q-6 -5.5 -13 -9 q-7 -3.5 -14 -4 q-7 -0.5 -14 1.5 q-7 2 -13 8 q-6 6 -9.5 13.5 q-3.5 7.5 -4 16 q-0.5 8.5 0.5 16.5 q10 22 20.5 46.5 q10.5 24.5 20.5 50.5 q10 26 19 52 q9 26 16 49 Z" /><glyph glyph-name="" unicode="&#x4f1a;" d="M189 300 q0 8 3.5 15 q3.5 7 9.5 13 q6 6 14 9.5 q8 3.5 16 3.5 l743 0 q8 0 15.5 -3.5 q7.5 -3.5 14 -9.5 q6.5 -6 10 -13 q3.5 -7 3.5 -15 q0 -8 -3.5 -15.5 q-3.5 -7.5 -10 -13 q-6.5 -5.5 -14 -9 q-7.5 -3.5 -15.5 -3.5 l-407 0 q0 -5 -1 -10 q-2 -9 -8 -16 q-55 -69 -115 -132 q-30 -31 -59 -58 l435 32 q-11 13 -24 27 q-22 25 -45 47 q-7 8 -10 17.5 q-3 9.5 -2 18.5 q1 9 6 17 q5 8 14 12 q9 5 22 3 q13 -2 22 -9 q26 -24 51.5 -50.5 q25.5 -26.5 49.5 -53.5 q24 -27 45.5 -53.5 q21.5 -26.5 37.5 -50.5 q5 -6 6 -14.5 q1 -8.5 -1 -16.5 q-2 -8 -6 -15 q-4 -7 -11 -11 l-2 -1 q-7 -4 -15.5 -4.5 q-8.5 -0.5 -17.5 1.5 q-9 2 -16.5 7 q-7.5 5 -12.5 12 q-14 21 -33 46 q-7 -3 -15 -3 q-137 -12 -231.5 -20 q-94.5 -8 -158 -13.5 q-63.5 -5.5 -100.5 -9.5 q-37 -4 -60 -7 q-10 -1 -20.5 1 q-10.5 2 -18.5 7 q-3 2 -6 5 l-1 0 q-8 2 -14.5 7.5 q-6.5 5.5 -9.5 13.5 q-2 8 -0.5 17 q1.5 9 6.5 17.5 q5 8.5 11.5 16.5 q6.5 8 14.5 14 q3 3 3.5 3 q0.5 0 2.5 2 l7 7 q5 5 17 16 q11 9 31 29.5 q20 20.5 45 48.5 q25 28 52 61 q17 21 32 42 l-233 0 q-8 0 -16 3.5 q-8 3.5 -14 9 q-6 5.5 -9.5 13 q-3.5 7.5 -3.5 15.5 ZM582 817 q8 9 23.5 13.5 q15.5 4.5 27.5 -1.5 l1 -1 q9 -3 15 -10.5 q6 -7.5 8 -16.5 q2 -9 0 -18 q-1 -8 -6 -14 q28 -29 64 -59 q40 -32 86.5 -63.5 q46.5 -31.5 98 -59.5 q51.5 -28 105.5 -51 q23 -8 28.5 -28 q5.5 -20 -7.5 -39 q-8 -10 -24.5 -14.5 q-16.5 -4.5 -28.5 1.5 q-56 24 -110.5 56.5 q-54.5 32.5 -104 68 q-49.5 35.5 -91.5 72.5 q-36 31 -64 59 q-60 -65 -135 -123 q-105 -80 -233 -143 q-7 -2 -14.5 -2.5 q-7.5 -0.5 -15.5 1 q-8 1.5 -14.5 5.5 q-6.5 4 -10.5 9 q-14 18 -8.5 38.5 q5.5 20.5 27.5 30.5 q120 58 220 132 q100 74 163 157 ZM364 495 q0 7 3.5 14 q3.5 7 10 12.5 q6.5 5.5 14.5 8.5 q8 3 16 3 l388 0 q9 0 16.5 -3 q7.5 -3 14 -8.5 q6.5 -5.5 10 -12.5 q3.5 -7 3.5 -14 q0 -8 -3.5 -15 q-3.5 -7 -10 -12.5 q-6.5 -5.5 -14 -9 q-7.5 -3.5 -16.5 -3.5 l-388 0 q-8 0 -16 3.5 q-8 3.5 -14.5 9 q-6.5 5.5 -10 12.5 q-3.5 7 -3.5 15 Z" /><glyph glyph-name="" unicode="&#x4f1f;" d="M437 671 q0 8 4 15 q4 7 10 12.5 q6 5.5 14 8.5 q8 3 16 3 l196 0 l0 88 q0 9 3.5 16.5 q3.5 7.5 9 13.5 q5.5 6 13 10 q7.5 4 15 4 q7.5 0 14.5 -4 q7 -4 13 -10 q6 -6 9.5 -13.5 q3.5 -7.5 3.5 -16.5 l0 -88 l224 0 q8 0 16 -3 q8 -3 14 -8.5 q6 -5.5 9.5 -12.5 q3.5 -7 3.5 -15 q0 -7 -3.5 -14 q-3.5 -7 -9.5 -12.5 q-6 -5.5 -14 -9 q-8 -3.5 -16 -3.5 l-224 0 l0 -104 l193 0 q8 0 15.5 -3 q7.5 -3 14 -9 q6.5 -6 10 -13 q3.5 -7 3.5 -14 q0 -8 -3.5 -14.5 q-3.5 -6.5 -10 -12 q-6.5 -5.5 -14 -9.5 q-7.5 -4 -15.5 -4 l-193 0 l0 -109 l248 0 q7 0 14 -2 q8 -3 14 -7 q6 -4 10 -10 q3 -5 3 -9 q2 -5 2 -11 q0 -6 -3 -13 q-4 -56 -8 -99 q-4 -48 -9.5 -80.5 q-5.5 -32.5 -12.5 -52 q-7 -19.5 -16 -29.5 q-11 -12 -23.5 -18 q-12.5 -6 -30.5 -8 q-8 -1 -20 -1 l-28 0 q-7 -1 -14 1.5 q-7 2.5 -13 6.5 q-6 4 -10 9 q-4 5 -5 10 q-4 18 1.5 31 q5.5 13 21.5 13 q10 -1 16 -1 l15 0 q9 0 15 1.5 q6 1.5 12 7.5 q5 7 10 23 q5 16 9.5 45 q4.5 29 8.5 74 q1 19 3 41 l-210 0 l0 -300 q0 -8 -3.5 -16 q-3.5 -8 -9.5 -14 q-6 -6 -13 -9.5 q-7 -3.5 -14.5 -3.5 q-7.5 0 -15 3.5 q-7.5 3.5 -13 9.5 q-5.5 6 -9 14 q-3.5 8 -3.5 16 l0 300 l-228 0 q-8 0 -15.5 3 q-7.5 3 -13.5 9 q-6 6 -10 13 q-4 7 -4 14 q0 8 4 15 q4 7 10 12.5 q6 5.5 13.5 8.5 q7.5 3 15.5 3 l228 0 l0 109 l-172 0 q-8 0 -16 4 q-8 4 -14 9.5 q-6 5.5 -9.5 12 q-3.5 6.5 -3.5 14.5 q0 7 3.5 14 q3.5 7 9.5 13 q6 6 14 9 q8 3 16 3 l172 0 l0 104 l-196 0 q-8 0 -16 3.5 q-8 3.5 -14 9 q-6 5.5 -10 12.5 q-4 7 -4 14 ZM354 799 q3 8 8.5 14 q5.5 6 13 9.5 q7.5 3.5 15 5 q7.5 1.5 14.5 -1.5 q8 -2 14 -8 q6 -6 9.5 -13.5 q3.5 -7.5 4.5 -16.5 q1 -9 -3 -16 q-36 -92 -82 -177 l0 -634 q0 -8 -3.5 -16 q-3.5 -8 -9.5 -14 q-6 -6 -13 -9.5 q-7 -3.5 -14.5 -3.5 q-7.5 0 -14.5 3.5 q-7 3.5 -13 9.5 q-6 6 -9.5 14 q-3.5 8 -3.5 16 l0 504 q-22 -31 -45 -59 q-7 -9 -16 -12.5 q-9 -3.5 -17.5 -3 q-8.5 0.5 -17 6 q-8.5 5.5 -13.5 14.5 q-1 1 -1.5 2 q-0.5 1 -1.5 2 q-7 12 -5 28.5 q2 16.5 11 27.5 q57 65 106.5 150.5 q49.5 85.5 86.5 177.5 Z" /><glyph glyph-name="" unicode="&#x4f20;" d="M660 798 q2 7 6.5 13.5 q4.5 6.5 11 11 q6.5 4.5 14 7 q7.5 2.5 14.5 1.5 q9 -2 16 -7 q7 -5 11.5 -12.5 q4.5 -7.5 6.5 -16 q2 -8.5 0 -17.5 q-7 -25 -13 -50 l238 0 q9 0 16.5 -3 q7.5 -3 13.5 -9 q6 -6 10 -13 q4 -7 4 -14 q0 -7 -4 -14 q-4 -7 -10 -12.5 q-6 -5.5 -13.5 -9 q-7.5 -3.5 -16.5 -3.5 l-259 0 q-15 -56 -30 -111 l337 0 q8 0 15.5 -3 q7.5 -3 13.5 -9 q6 -6 10 -12.5 q4 -6.5 4 -14.5 q0 -7 -4 -14 q-4 -7 -10 -12.5 q-6 -5.5 -13.5 -9 q-7.5 -3.5 -15.5 -3.5 l-360 0 q-8 -29 -16 -56 q-9 -30 -17 -57 l284 0 q8 0 16 -3 q1 1 2 1 q4 2 8 2 q2 0 3.5 0.5 q1.5 0.5 3.5 0.5 q4 2 11.5 0.5 q7.5 -1.5 12.5 -4.5 l4 -2 q7 -6 11.5 -14 q4.5 -8 6 -16.5 q1.5 -8.5 -1 -17.5 q-2.5 -9 -8.5 -16 q-23 -26 -48.5 -55 q-25.5 -29 -52 -58.5 q-26.5 -29.5 -53.5 -59.5 q-18 -19 -35 -37 q15 -12 29 -23 q25 -19 44 -37 q7 -5 10.5 -13 q3.5 -8 4 -16.5 q0.5 -8.5 -2.5 -17 q-3 -8.5 -9 -13.5 q-5 -7 -13.5 -9.5 q-8.5 -2.5 -17 -3 q-8.5 -0.5 -17 2.5 q-8.5 3 -14.5 8 q-18 17 -39.5 35.5 q-21.5 18.5 -46 37.5 q-24.5 19 -49.5 37.5 q-25 18.5 -51 35.5 q-9 6 -14 14.5 q-5 8.5 -6 17.5 q-1 9 2.5 17.5 q3.5 8.5 10.5 14.5 q8 7 21.5 7.5 q13.5 0.5 22.5 -3.5 q28 -18 57 -37 l14 -10 q24 25 48 52 q29 32 56 62 q19 22 36 42 l-241 0 q-8 0 -15 3 q-7 3 -12 7 q-1 0 -2 -1 q-12 -9 -24 -9 l-4 0 q-10 0 -19 4.5 q-9 4.5 -14 12 q-5 7.5 -6.5 17.5 q-1.5 10 1.5 20 q16 49 35 108 q4 14 8 29 l-133 0 q-8 0 -15.5 3.5 q-7.5 3.5 -13.5 9 q-6 5.5 -10 12.5 q-4 7 -4 14 q0 8 4 14.5 q4 6.5 10 12.5 q6 6 13.5 9 q7.5 3 15.5 3 l156 0 q3 7 5 15 l26 96 l-129 0 q-8 0 -16 3.5 q-8 3.5 -14 9 q-6 5.5 -9.5 12.5 q-3.5 7 -3.5 14 q0 7 3.5 14 q3.5 7 9.5 13 q6 6 14 9 q8 3 16 3 l150 0 q9 36 18 70 ZM346 800 q3 8 9 13.5 q6 5.5 13 9 q7 3.5 15 5 q8 1.5 15 -1.5 q8 -2 14 -8 q6 -6 9.5 -13.5 q3.5 -7.5 4.5 -16.5 q1 -9 -3 -17 q-37 -90 -86 -174 l0 -633 q0 -9 -3.5 -16.5 q-3.5 -7.5 -9 -14 q-5.5 -6.5 -12.5 -10 q-7 -3.5 -15 -3.5 q-8 0 -15.5 3.5 q-7.5 3.5 -13.5 10 q-6 6.5 -9 14 q-3 7.5 -3 15.5 l0 510 q-26 -36 -54 -68 q-7 -9 -16 -12.5 q-9 -3.5 -18 -2.5 q-9 1 -17 6.5 q-8 5.5 -13 14.5 q-1 1 -1.5 2 q-0.5 1 -1.5 2 q-6 12 -4 28.5 q2 16.5 11 27.5 q61 65 113.5 150.5 q52.5 85.5 90.5 178.5 Z" /><glyph glyph-name="" unicode="&#x4f24;" d="M443 389 q0 7 4 14 q4 7 10 13 q6 6 13.5 9 q7.5 3 15.5 3 l162 0 q5 50 7 101 q0 8 4 15.5 q4 7.5 10 13.5 q6 6 13 9.5 q7 3.5 15 3.5 q8 0 16 -4 q8 -4 13.5 -10 q5.5 -6 9 -14 q3.5 -8 3.5 -17 q-3 -50 -7 -98 l236 0 q8 0 15 -3 q3 -2 7 -4 q3 -1 5 -3 q7 -5 10 -11 q4 -5 4 -11 q1 -3 1 -7 q0 -4 -1 -9 q-3 -99 -7 -170 q-3 -73 -8.5 -121.5 q-5.5 -48.5 -13 -76 q-7.5 -27.5 -18.5 -40.5 q-15 -18 -31.5 -25 q-16.5 -7 -41.5 -10 q-17 -1 -45 -1 q-28 0 -59 1 q-15 0 -28 9 q-13 9 -16 20 q-5 19 9 32.5 q14 13.5 40 12.5 q11 0 19.5 -0.5 q8.5 -0.5 16 -1 q7.5 -0.5 13.5 -0.5 l14 0 q15 0 23.5 2.5 q8.5 2.5 15.5 10.5 q8 8 13.5 32.5 q5.5 24.5 10 71 q4.5 46.5 7.5 116.5 q3 47 5 108 l-205 0 q-12 -86 -38 -162 q-27 -76 -74.5 -140 q-47.5 -64 -124.5 -111 q-7 -5 -14.5 -6.5 q-7.5 -1.5 -15.5 -0.5 q-8 1 -14 4 q-6 3 -11 8 q-12 14 -7 33.5 q5 19.5 24 34.5 q65 42 104 99 q39 57 61 124 q18 56 27 117 l-154 0 q-8 0 -15.5 3 q-7.5 3 -13.5 8.5 q-6 5.5 -10 12.5 q-4 7 -4 15 ZM348 802 q3 7 9 12.5 q6 5.5 13 9 q7 3.5 15 5 q8 1.5 15 -0.5 q8 -3 14.5 -8.5 q6.5 -5.5 10 -13.5 q3.5 -8 4 -17 q0.5 -9 -2.5 -16 q-39 -93 -89 -180 l0 -630 q0 -8 -3.5 -16 q-3.5 -8 -9 -14 q-5.5 -6 -12.5 -9.5 q-7 -3.5 -15 -3.5 q-8 0 -15 3.5 q-7 3.5 -13 10 q-6 6.5 -9 14 q-3 7.5 -3 15.5 l0 508 q-26 -34 -52 -65 q-7 -9 -16 -12.5 q-9 -3.5 -18 -2.5 q-9 1 -17.5 6.5 q-8.5 5.5 -13.5 15.5 q-1 1 -1.5 2 q-0.5 1 -1.5 2 q-6 11 -4.5 28 q1.5 17 11.5 27 q60 65 113 151 q53 86 91 179 ZM570 800 q2 8 7.5 14 q5.5 6 12.5 10.5 q7 4.5 15 6.5 q8 2 15 0 q8 -2 15 -7.5 q7 -5.5 10.5 -13 q3.5 -7.5 5 -16.5 q1.5 -9 -2.5 -17 q-15 -42 -34 -82 l372 0 q9 0 16.5 -3.5 q7.5 -3.5 14 -9 q6.5 -5.5 10 -12.5 q3.5 -7 3.5 -14.5 q0 -7.5 -3.5 -14.5 q-3.5 -7 -10 -13 q-6.5 -6 -14 -9 q-7.5 -3 -16.5 -3 l-394 0 q-8 0 -16 3 l-1 0 q-38 -64 -82 -115 q-5 -7 -12.5 -10.5 q-7.5 -3.5 -15.5 -4.5 q-8 -1 -16 0.5 q-8 1.5 -13 5.5 q-8 5 -11.5 13.5 q-3.5 8.5 -3.5 18 q0 9.5 3 19 q3 9.5 10 17.5 q42 48 76.5 109 q34.5 61 59.5 128 Z" /><glyph glyph-name="" unicode="&#x4f2a;" d="M417 543 q0 8 3.5 15.5 q3.5 7.5 10 13.5 q6.5 6 14.5 9 q8 3 16 3 l178 0 q3 40 5 79 q2 67 2 127 q0 7 4 15 q4 8 9.5 14 q5.5 6 13 9.5 q7.5 3.5 15.5 3.5 l3 0 q8 0 15.5 -4 q7.5 -4 13.5 -10 q6 -6 9.5 -14 q3.5 -8 3.5 -16 q-1 -66 -5 -139 q-1 -32 -4 -65 l260 0 q9 0 16.5 -3 q7.5 -3 14.5 -9 q1 -2 2 -3 q4 -4 6 -8 l2 -4 q3 -7 3 -14 q0 -4 -1 -8 q-5 -142 -11 -241 q-5 -100 -12.5 -166 q-7.5 -66 -16.5 -102.5 q-9 -36.5 -23 -52.5 q-16 -22 -34 -30 q-18 -8 -44 -12 q-18 -2 -46.5 -1.5 q-28.5 0.5 -60.5 1.5 q-14 0 -27 10 q-13 10 -17 21 q-4 21 8.5 35 q12.5 14 38.5 14 q11 -1 19.5 -1.5 q8.5 -0.5 16.5 -0.5 l30 0 q15 0 23.5 2.5 q8.5 2.5 16.5 12.5 q11 11 19 45 q8 34 14.5 97.5 q6.5 63.5 11.5 162.5 q4 74 7 173 l-224 0 l0 -3 q-9 -75 -27 -151 q-18 -76 -47.5 -147 q-29.5 -71 -73.5 -134.5 q-44 -63.5 -106 -114.5 q-5 -6 -13.5 -8.5 q-8.5 -2.5 -16.5 -3 q-8 -0.5 -15.5 2 q-7.5 2.5 -12.5 8.5 q-14 13 -12 33.5 q2 20.5 17 35.5 q57 47 96 106 q39 59 65.5 124.5 q26.5 65.5 41.5 135.5 q12 58 19 116 l-170 0 q-8 0 -16 3.5 q-8 3.5 -14.5 9.5 q-6.5 6 -10 13 q-3.5 7 -3.5 15 ZM351 800 q3 8 9 13.5 q6 5.5 13.5 9 q7.5 3.5 15.5 5 q8 1.5 15 -0.5 q8 -3 14.5 -9 q6.5 -6 10 -13.5 q3.5 -7.5 4.5 -16.5 q1 -9 -3 -17 q-38 -87 -85 -169 l0 -638 q0 -9 -3 -16.5 q-3 -7.5 -9 -13.5 q-6 -6 -13 -10 q-7 -4 -14.5 -4 q-7.5 0 -15 4 q-7.5 4 -13 10 q-5.5 6 -9 13.5 q-3.5 7.5 -3.5 16.5 l0 514 q-27 -36 -55 -69 q-7 -8 -16.5 -11.5 q-9.5 -3.5 -18.5 -2.5 q-9 1 -17.5 6.5 q-8.5 5.5 -13.5 14.5 q0 1 -0.5 1.5 q-0.5 0.5 -0.5 1.5 q-8 12 -6 29 q2 17 11 28 q60 64 113 148 q53 84 90 176 ZM723 314 q-5 8 -6.5 17 q-1.5 9 0 17.5 q1.5 8.5 6.5 15.5 q5 7 12 11 q11 6 26.5 2.5 q15.5 -3.5 23.5 -14.5 q24 -27 46.5 -56.5 q22.5 -29.5 37.5 -54.5 q4 -6 4.5 -13.5 q0.5 -7.5 -1.5 -15 q-2 -7.5 -6 -13.5 q-4 -6 -11 -10 q-8 -5 -17 -5 q-9 0 -18 2.5 q-9 2.5 -16 8.5 q-7 6 -12 14 q-13 21 -31.5 46 q-18.5 25 -37.5 48 ZM467 709 q-5 8 -6 17 q-1 9 1 17.5 q2 8.5 7 15.5 q5 7 13 11 q11 5 26 1 q15 -4 22 -14 q17 -18 31.5 -37 q14.5 -19 25.5 -37 q5 -6 5.5 -14 q0.5 -8 -2 -15.5 q-2.5 -7.5 -7 -13.5 q-4.5 -6 -11.5 -9 q-7 -4 -16 -4 q-9 0 -17.5 3 q-8.5 3 -15.5 9 q-7 6 -12 13 q-8 13 -20 28 q-12 15 -24 29 Z" /><glyph glyph-name="" unicode="&#x4f30;" d="M480 302 q0 8 3.5 16 q3.5 8 9.5 14 q6 6 14 9.5 q8 3.5 15 3.5 l173 0 l0 200 l-227 0 q-8 0 -15.5 3 q-7.5 3 -14 9 q-6.5 6 -10 13.5 q-3.5 7.5 -3.5 15 q0 7.5 3.5 14.5 q3.5 7 10 13 q6.5 6 14 9 q7.5 3 15.5 3 l227 0 l0 174 q0 8 3 15.5 q3 7.5 9 14 q6 6.5 13.5 10 q7.5 3.5 15.5 3.5 l4 0 q8 0 15.5 -3.5 q7.5 -3.5 13 -10 q5.5 -6.5 9 -14 q3.5 -7.5 3.5 -15.5 l0 -174 l238 0 q8 0 16 -3 q8 -3 14 -9 q6 -6 9.5 -13 q3.5 -7 3.5 -14.5 q0 -7.5 -3.5 -15 q-3.5 -7.5 -9.5 -13.5 q-6 -6 -14 -9 q-8 -3 -16 -3 l-238 0 l0 -200 l179 0 q8 0 15.5 -3.5 q7.5 -3.5 13.5 -9.5 q6 -6 9.5 -14 q3.5 -8 3.5 -17 l0 -334 q0 -9 -3 -17 q-3 -8 -9 -14 q-6 -6 -13.5 -10 q-7.5 -4 -15.5 -4 l-3 0 q-8 0 -15.5 4 q-7.5 4 -13.5 10 q-6 6 -9 13 q-3 6 -4 12 l-353 0 q0 -8 -3 -15 q-3 -8 -9.5 -14 q-6.5 -6 -13.5 -10 q-7 -4 -15 -4 q-8 0 -15.5 4 q-7.5 4 -13.5 10 q-6 6 -9.5 13.5 q-3.5 7.5 -3.5 16.5 l0 340 ZM347 800 q3 8 9 13.5 q6 5.5 13 9 q7 3.5 15 5 q8 1.5 15 -1.5 q8 -2 14 -8 q6 -6 9.5 -13.5 q3.5 -7.5 4.5 -16.5 q1 -9 -3 -17 q-38 -91 -87 -176 l0 -632 q0 -8 -3.5 -16 q-3.5 -8 -9 -14 q-5.5 -6 -12.5 -9.5 q-7 -3.5 -15 -3.5 q-8 0 -15 3.5 q-7 3.5 -13 10 q-6 6.5 -9 14 q-3 7.5 -3 15.5 l0 510 q-26 -36 -54 -68 q-7 -9 -16 -12.5 q-9 -3.5 -18 -2.5 q-9 1 -17 6.5 q-8 5.5 -13 14.5 q-1 1 -1.5 2 q-0.5 1 -1.5 2 q-6 12 -4 28.5 q2 16.5 11 27.5 q61 65 113.5 150.5 q52.5 85.5 90.5 178.5 ZM563 41 l353 0 l0 219 q0 2 -2 4 q-2 2 -4 2 l-340 0 q-3 0 -5 -2 q-2 -2 -2 -4 l0 -219 Z" /><glyph glyph-name="" unicode="&#x4f34;" d="M687 788 q0 7 3.5 15 q3.5 8 9.5 14 q6 6 13 9.5 q7 3.5 15 3.5 l2 0 q8 0 15.5 -3.5 q7.5 -3.5 13 -9.5 q5.5 -6 9 -14 q3.5 -8 3.5 -15 l0 -266 l209 0 q16 0 29.5 -12 q13.5 -12 13.5 -27 q0 -7 -4 -14 q-4 -7 -10 -12.5 q-6 -5.5 -13.5 -9 q-7.5 -3.5 -15.5 -3.5 l-209 0 l0 -168 l250 0 q8 0 15.5 -3 q7.5 -3 14 -8.5 q6.5 -5.5 10 -12.5 q3.5 -7 3.5 -15 q0 -7 -3.5 -14 q-3.5 -7 -10 -12.5 q-6.5 -5.5 -14 -9 q-7.5 -3.5 -15.5 -3.5 l-250 0 l0 -237 q0 -8 -3.5 -15.5 q-3.5 -7.5 -9 -13.5 q-5.5 -6 -13 -10 q-7.5 -4 -15.5 -4 l-2 0 q-8 0 -15 4 q-7 4 -13 10 q-6 6 -9.5 13.5 q-3.5 7.5 -3.5 15.5 l0 237 l-241 0 q-8 0 -15.5 3.5 q-7.5 3.5 -14 9 q-6.5 5.5 -10 12.5 q-3.5 7 -3.5 14 q0 8 3.5 15 q3.5 7 10 12.5 q6.5 5.5 14 8.5 q7.5 3 15.5 3 l241 0 l0 168 l-200 0 q-7 0 -15 3.5 q-8 3.5 -14 9 q-6 5.5 -10 12.5 q-4 7 -4 14 q0 8 4 15 q4 7 10 12.5 q6 5.5 14 8.5 q8 3 15 3 l200 0 l0 266 ZM357 802 q3 7 9 12.5 q6 5.5 13.5 9 q7.5 3.5 15 5 q7.5 1.5 14.5 -1.5 q8 -2 14 -8 q6 -6 9.5 -13.5 q3.5 -7.5 3.5 -16.5 q0 -9 -3 -17 q-37 -84 -83 -162 l0 -646 q0 -8 -3.5 -16 q-3.5 -8 -9 -14 q-5.5 -6 -12.5 -9.5 q-7 -3.5 -15 -3.5 q-8 0 -15 3.5 q-7 3.5 -12.5 9.5 q-5.5 6 -9 14 q-3.5 8 -3.5 16 l0 524 q-32 -43 -66 -81 q-7 -8 -16 -11.5 q-9 -3.5 -18 -2.5 q-9 1 -17.5 6.5 q-8.5 5.5 -13.5 14.5 l-1 2 l0 1 q-7 12 -4.5 29.5 q2.5 17.5 11.5 27.5 q62 65 117 149.5 q55 84.5 95 178.5 ZM922 754 q3 8 9 15 q6 7 13.5 11 q7.5 4 16.5 5 q9 1 17 -2 q8 -2 14 -9 q6 -7 9 -15 q3 -8 3 -17 q0 -9 -4 -17 q-18 -37 -37.5 -74 q-19.5 -37 -38.5 -69 q-6 -12 -21 -18.5 q-15 -6.5 -26 -1.5 q-8 4 -13 10 q-5 6 -7.5 14 q-2.5 8 -2.5 17 q0 9 4 16 q17 30 34 66.5 q17 36.5 30 68.5 ZM473 721 q-3 8 -3 17 q0 9 2.5 17 q2.5 8 8 14.5 q5.5 6.5 13.5 9.5 q12 5 26.5 -2 q14.5 -7 21.5 -20 q19 -35 36.5 -73.5 q17.5 -38.5 27.5 -69.5 q5 -12 -2 -26.5 q-7 -14.5 -19 -19.5 q-8 -4 -17.5 -3 q-9.5 1 -17.5 5.5 q-8 4.5 -14 12 q-6 7.5 -10 17.5 q-9 27 -23 59 q-14 32 -30 62 Z" /><glyph glyph-name="" unicode="&#x4f38;" d="M688 794 q0 9 3.5 16 q3.5 7 10 13.5 q6.5 6.5 13.5 10 q7 3.5 15 3.5 q8 0 15.5 -3.5 q7.5 -3.5 13 -10 q5.5 -6.5 9 -13.5 q3.5 -7 3.5 -16 l0 -110 l227 0 q9 0 16.5 -4 q7.5 -4 14 -10 q6.5 -6 10 -13.5 q3.5 -7.5 3.5 -15.5 l0 -446 q0 -7 -3.5 -15 q-3.5 -8 -9 -14 q-5.5 -6 -13 -10 q-7.5 -4 -15 -4 q-7.5 0 -15 4 q-7.5 4 -14 10 q-6.5 6 -9.5 14 q-3 8 -3 16 l0 1 l-189 0 l0 -236 q0 -8 -3.5 -15.5 q-3.5 -7.5 -9 -13.5 q-5.5 -6 -13 -9.5 q-7.5 -3.5 -15.5 -3.5 q-8 0 -15 3.5 q-7 3.5 -13.5 9.5 q-6.5 6 -10 13.5 q-3.5 7.5 -3.5 15.5 l0 236 l-163 0 q-8 0 -16 3 l-4 2 l0 -14 q0 -8 -3.5 -16 q-3.5 -8 -9 -14 q-5.5 -6 -12.5 -9.5 q-7 -3.5 -14.5 -3.5 q-7.5 0 -14.5 3.5 q-7 3.5 -13 9.5 q-6 6 -9 14 q-3 8 -3 16 l0 452 q0 8 3.5 16 q3.5 8 9.5 14 q6 6 14 10 q8 4 16 4 l219 0 l0 110 ZM344 800 q3 8 9 13.5 q6 5.5 13.5 9 q7.5 3.5 15 5 q7.5 1.5 14.5 -1.5 q8 -2 14 -8 q6 -6 9.5 -13.5 q3.5 -7.5 4.5 -16.5 q1 -9 -3 -17 q-37 -88 -84 -171 l0 -637 q0 -8 -3.5 -16 q-3.5 -8 -9 -14 q-5.5 -6 -12.5 -9.5 q-7 -3.5 -15 -3.5 q-8 0 -15 3.5 q-7 3.5 -13 10 q-6 6.5 -9 14 q-3 7.5 -3 15.5 l0 513 q-28 -37 -56 -71 q-8 -9 -16.5 -12.5 q-8.5 -3.5 -18 -2.5 q-9.5 1 -17.5 6.5 q-8 5.5 -13 14.5 q-1 1 -1.5 2 q-0.5 1 -0.5 2 q-7 12 -5 28.5 q2 16.5 11 27.5 q61 65 113.5 150.5 q52.5 85.5 90.5 178.5 ZM771 404 l0 -131 l189 0 l0 132 q-3 -1 -6 -1 l-183 0 ZM771 607 l0 -129 l189 0 l0 123 q0 2 -2 4 q-2 2 -4 2 l-183 0 ZM688 273 l0 131 l-166 0 q-8 0 -16 3 l-1 1 l0 -140 l4 2 q8 3 16 3 l163 0 ZM688 478 l0 129 l-177 0 q-2 0 -4 -2 q-2 -2 -2 -4 l0 -126 l1 0 q8 3 16 3 l166 0 Z" /><glyph glyph-name="" unicode="&#x4f3c;" d="M888 773 q0 8 4 15.5 q4 7.5 10 13.5 q6 6 13.5 9.5 q7.5 3.5 15.5 3.5 q8 0 15.5 -4 q7.5 -4 13.5 -10.5 q6 -6.5 9 -14 q3 -7.5 3 -15.5 q-6 -142 -20 -263 q-11 -104 -33 -193 q12 -6 17 -17 q18 -35 36 -72 q18 -37 34 -73 q16 -36 30 -70 q14 -34 24 -63 q5 -12 -1.5 -27 q-6.5 -15 -18.5 -21 l-1 -1 q-9 -4 -18 -3.5 q-9 0.5 -18 4.5 q-9 4 -15.5 11 q-6.5 7 -9.5 16 q-10 28 -23 60.5 q-13 32.5 -27.5 67 q-14.5 34.5 -30.5 69.5 l-8 18 q-21 -59 -49 -111 q-45 -82 -114 -148 q-6 -6 -14.5 -9 q-8.5 -3 -17 -3.5 q-8.5 -0.5 -17 2 q-8.5 2.5 -14.5 8.5 q-14 13 -13 33.5 q1 20.5 16 36.5 q65 58 105.5 133.5 q40.5 75.5 65 169 q24.5 93.5 35.5 205.5 q11 112 16 242 ZM316 797 q2 7 7.5 13.5 q5.5 6.5 12.5 10.5 q7 4 15 6 q8 2 15 -1 q8 -1 13.5 -6.5 q5.5 -5.5 9.5 -13 q4 -7.5 4.5 -16.5 q0.5 -9 -1.5 -16 q-28 -81 -64 -156 l0 -656 q0 -8 -3.5 -16 q-3.5 -8 -9 -14.5 q-5.5 -6.5 -12.5 -10 q-7 -3.5 -15 -3.5 q-8 0 -14.5 3.5 q-6.5 3.5 -12.5 10 q-6 6.5 -9.5 14 q-3.5 7.5 -3.5 16.5 l0 509 q-24 -39 -50 -74 q-6 -9 -15 -13.5 q-9 -4.5 -18 -4 q-9 0.5 -17 6 q-8 5.5 -13 15.5 q-1 2 -1.5 3.5 q-0.5 1.5 -1.5 3.5 q-6 10 -4.5 25 q1.5 15 8.5 24 q54 68 100.5 156 q46.5 88 79.5 184 ZM520 55 q-10 -9 -21 -11 q-3 0 -5 -1 l-4 -2 q-9 -5 -17.5 -5 q-8.5 0 -17 4 q-8.5 4 -12.5 12 q-4 6 -5 14 q-1 8 0.5 17 q1.5 9 4 18 q2.5 9 5.5 18 q3 5 5 7 q2 2 3.5 6 q1.5 4 2.5 13 q1 9 1 25 l0 560 q0 9 3.5 16.5 q3.5 7.5 9.5 13.5 q6 6 13 10 q7 4 15 4 q8 0 15 -4 q7 -4 13 -10 q6 -6 9 -13.5 q3 -7.5 3 -16.5 l0 -561 l126 84 q9 6 18.5 7.5 q9.5 1.5 18 -0.5 q8.5 -2 15 -8 q6.5 -6 10.5 -14 q3 -10 -2.5 -25 q-5.5 -15 -16.5 -23 q-41 -28 -71.5 -49.5 q-30.5 -21.5 -53 -38 q-22.5 -16.5 -38.5 -28 q-16 -11.5 -27 -19.5 ZM606 681 q-3 9 -3 17.5 q0 8.5 2.5 16.5 q2.5 8 8 14 q5.5 6 12.5 9 q6 2 13 1 q7 -1 14 -4.5 q7 -3.5 12.5 -8.5 q5.5 -5 8.5 -12 q15 -30 30.5 -61.5 q15.5 -31.5 28.5 -63 q13 -31.5 24 -61 q11 -29.5 19 -56.5 q3 -13 -4 -27.5 q-7 -14.5 -19 -19.5 q-8 -4 -17 -3 q-9 1 -16.5 6 q-7.5 5 -14 12.5 q-6.5 7.5 -8.5 16.5 q-7 25 -17 52.5 q-10 27.5 -22 57 q-12 29.5 -25 58.5 q-13 29 -27 56 Z" /><glyph glyph-name="" unicode="&#x4f46;" d="M492 728 q0 9 3.5 16.5 q3.5 7.5 10 14 q6.5 6.5 14 10 q7.5 3.5 15.5 3.5 l407 0 q8 0 16 -3.5 q8 -3.5 14 -10 q6 -6.5 9.5 -14 q3.5 -7.5 3.5 -16.5 l0 -525 q0 -8 -3.5 -16 q-3.5 -8 -9.5 -14.5 q-6 -6.5 -14 -10 q-8 -3.5 -16 -3.5 l-407 0 q-8 0 -15.5 3.5 q-7.5 3.5 -14 10 q-6.5 6.5 -10 14.5 q-3.5 8 -3.5 16 l0 525 ZM358 800 q3 8 9 13.5 q6 5.5 13.5 9 q7.5 3.5 15.5 4.5 q8 1 15 -1 l1 0 q8 -3 14 -9 q6 -6 9.5 -13.5 q3.5 -7.5 4.5 -17 q1 -9.5 -3 -16.5 q-38 -89 -86 -172 l0 -634 q0 -9 -3.5 -16.5 q-3.5 -7.5 -9.5 -14 q-6 -6.5 -13 -10 q-7 -3.5 -16 -3.5 q-7 0 -14.5 3.5 q-7.5 3.5 -13.5 10 q-6 6.5 -9.5 14 q-3.5 7.5 -3.5 15.5 l0 508 q-27 -36 -56 -69 q-7 -8 -16 -12 q-9 -4 -18 -3 q-9 1 -17 6.5 q-8 5.5 -13 14.5 q-1 2 -2 3.5 q-1 1.5 -2 2.5 q-7 12 -4.5 29.5 q2.5 17.5 11.5 28.5 q61 65 114.5 150 q53.5 85 92.5 178 ZM585 428 q-3 0 -5 -2 q-2 -2 -2 -4 l0 -179 q0 -2 2 -4 q2 -2 5 -2 l304 0 q2 0 4 2 q2 2 2 4 l0 179 q0 2 -2 4 q-2 2 -4 2 l-304 0 ZM585 694 q-3 0 -5 -2 q-2 -2 -2 -4 l0 -176 q0 -2 2 -4 q2 -2 5 -2 l304 0 q2 0 4 2 q2 2 2 4 l0 176 q0 2 -2 4 q-2 2 -4 2 l-304 0 ZM410 -3 q0 7 3.5 14 q3.5 7 9.5 12.5 q6 5.5 14 9 q8 3.5 15 3.5 l573 0 q8 0 16 -3.5 q8 -3.5 14 -9 q6 -5.5 9.5 -12.5 q3.5 -7 3.5 -14 q0 -8 -3.5 -14.5 q-3.5 -6.5 -9.5 -12.5 q-6 -6 -14 -9.5 q-8 -3.5 -16 -3.5 l-573 0 q-7 0 -15 3.5 q-8 3.5 -14 9.5 q-6 6 -9.5 12.5 q-3.5 6.5 -3.5 14.5 Z" /></font>
</defs>
</svg>
