<?xml version="1.0" standalone="no"?><!DOCTYPE svg PUBLIC "-//W3C//DTD SVG 1.1//EN" "http://www.w3.org/Graphics/SVG/1.1/DTD/svg11.dtd" ><svg xmlns="http://www.w3.org/2000/svg"><metadata></metadata><defs><font id="Version 7.000;SUBF;MapleMono-NF-CN-ThinItalic;2024;FL830;NF3.3.0;" horiz-adv-x="1200"><font-face font-family="Maple Mono NF CN Thin" font-weight="250" font-stretch="normal" units-per-em="1000" panose-1="2 15 5 9 6 0 0 0 0 0" ascent="1020" descent="-300" x-height="0" bbox="-34 -220 1130 852" underline-thickness="50" underline-position="-155" unicode-range="U+0022-9f99" /><missing-glyph horiz-adv-x="600" d="M42 70 l104 590 q6 33 28 51.5 q22 18.5 55 18.5 l240 0 q33 0 48 -18.5 q15 -18.5 9 -51.5 l-104 -590 q-5 -33 -27 -51.5 q-22 -18.5 -55 -18.5 l-240 0 q-33 0 -48 18.5 q-15 18.5 -10 51.5 ZM459 623 l-144 -257 l53 -258 q2 6 3 12 l87 490 q1 7 1 13 ZM110 109 l145 257 l-54 256 q-2 -5 -3 -12 l-87 -490 q-1 -6 -1 -11 ZM161 60 l140 0 q9 0 17 2 l-47 226 l-128 -226 q8 -2 18 -2 ZM298 444 l127 224 q-8 2 -17 2 l-140 0 q-9 0 -17 -2 l47 -224 Z" /><glyph glyph-name="" unicode="&quot;" d="M371 485 l40 230 q2 13 9 19 q7 6 20 6 q13 0 18 -6 q5 -6 3 -19 l-40 -230 q-2 -13 -9.5 -19 q-7.5 -6 -20.5 -6 q-13 0 -17.5 6 q-4.5 6 -2.5 19 ZM191 485 l40 230 q2 13 9 19 q7 6 20 6 q13 0 18 -6 q5 -6 3 -19 l-40 -230 q-2 -13 -9.5 -19 q-7.5 -6 -20.5 -6 q-13 0 -17.5 6 q-4.5 6 -2.5 19 Z" /><glyph glyph-name="" unicode="$" d="M477 182 q-7 -43 -26.5 -75 q-19.5 -32 -45 -54.5 q-25.5 -22.5 -54.5 -35 q-29 -12.5 -56 -17.5 l9 50 q16 3 35 12.5 q19 9.5 37 27 q18 17.5 32 42 q14 24.5 20 55.5 q6 36 -2 62 q-8 26 -26 45 q-18 19 -42.5 32 q-24.5 13 -51.5 22 l-47 16 q-33 11 -63 25.5 q-30 14.5 -51 37 q-21 22.5 -30 54.5 q-9 32 -1 78 q7 40 23.5 70.5 q16.5 30.5 38.5 51.5 q22 21 47.5 33 q25.5 12 50.5 16 l-9 -50 q-14 -4 -30 -13.5 q-16 -9.5 -30.5 -25.5 q-14.5 -16 -25.5 -37.5 q-11 -21.5 -16 -49.5 q-6 -34 1 -57 q7 -23 22 -39 q15 -16 36.5 -26 q21.5 -10 45.5 -18 l47 -16 q37 -12 70 -30 q33 -18 56 -43.5 q23 -25.5 33.5 -60.5 q10.5 -35 2.5 -82 ZM297 293 l-69 -388 q-2 -13 -9 -19 q-7 -6 -20 -6 q-13 0 -18 6 q-5 6 -3 19 l71 404 l48 -16 ZM325 453 l-47 16 l61 346 q2 13 9 19 q7 6 20 6 q13 0 18 -6 q5 -6 3 -19 l-64 -362 ZM154 50 l-9 -50 q-25 5 -49 18 q-24 13 -41.5 35 q-17.5 22 -26 52 q-8.5 30 -1.5 68 q2 10 10.5 13.5 q8.5 3.5 17.5 3.5 q13 0 16.5 -6.5 q3.5 -6.5 3.5 -22.5 q0 -48 25.5 -77 q25.5 -29 53.5 -34 ZM424 730 q23 -4 45 -18 q22 -14 38 -35 q16 -21 23.5 -48 q7.5 -27 2.5 -59 q-2 -8 -11 -11.5 q-9 -3.5 -17 -3.5 q-12 0 -16.5 6.5 q-4.5 6.5 -3.5 20.5 q-1 40 -24 65.5 q-23 25.5 -46 32.5 l9 50 Z" /><glyph glyph-name="" unicode="," d="M52 -204 q-6 -2 -11 -1 q-5 1 -7 7 q-2 6 0 12 q2 6 9 8 q79 26 126 59 q47 33 62 75 q6 17 2 23.5 q-4 6.5 -18 8.5 q-23 3 -37 18 q-14 15 -9 44 q5 27 23 43.5 q18 16.5 44 16.5 q20 0 31 -9.5 q11 -9.5 16 -24.5 q5 -15 4.5 -33 q-0.5 -18 -3.5 -36 q-7 -38 -22.5 -69.5 q-15.5 -31.5 -43 -57.5 q-27.5 -26 -68.5 -47 q-41 -21 -98 -37 Z" /><glyph glyph-name="" unicode="-" d="M89 305 q-13 0 -18 6 q-5 6 -3 19 q2 13 9.5 19 q7.5 6 20.5 6 l370 0 q13 0 17.5 -6 q4.5 -6 2.5 -19 q-2 -13 -9 -19 q-7 -6 -20 -6 l-370 0 Z" /><glyph glyph-name="" unicode="." d="M169 50 q2 12 8.5 23 q6.5 11 16.5 19.5 q10 8.5 21.5 13 q11.5 4.5 23.5 4.5 q13 0 23 -4.5 q10 -4.5 16.5 -13 q6.5 -8.5 9.5 -19.5 q3 -11 1 -23 q-2 -12 -9 -23 q-7 -11 -16.5 -19.5 q-9.5 -8.5 -21 -13 q-11.5 -4.5 -24.5 -4.5 q-12 0 -22 4.5 q-10 4.5 -17 13 q-7 8.5 -9.5 19.5 q-2.5 11 -0.5 23 Z" /><glyph glyph-name="" unicode="0" d="M218 -10 q-73 0 -112 36.5 q-39 36.5 -55 92 q-16 55.5 -13.5 121.5 q2.5 66 12.5 125 q11 59 31.5 125 q20.5 66 56.5 121.5 q36 55.5 88.5 92 q52.5 36.5 125.5 36.5 q74 0 113 -36 q39 -36 54.5 -91 q15.5 -55 12.5 -120 q-3 -65 -13 -122 q-10 -61 -31.5 -128 q-21.5 -67 -57 -123.5 q-35.5 -56.5 -88 -93 q-52.5 -36.5 -124.5 -36.5 ZM227 40 q57 0 99.5 36 q42.5 36 72 87.5 q29.5 51.5 46.5 107.5 q17 56 24 96 q5 26 8 61 q2 26 2 54 l-384 -293 q1 -13 4 -26 q7 -35 23 -62 q16 -27 41.5 -44 q25.5 -17 63.5 -17 ZM474 543 q-1 12 -4 25 q-7 34 -22.5 61.5 q-15.5 27.5 -41 44 q-25.5 16.5 -64.5 16.5 q-58 0 -100 -36 q-42 -36 -71.5 -87 q-29.5 -51 -46.5 -107 q-17 -56 -24 -95 q-4 -26 -7 -60 q-2 -27 -2 -55 l383 293 Z" /><glyph glyph-name="" unicode="1" d="M25 0 q-13 0 -18 6 q-5 6 -3 19 q2 13 9.5 19 q7.5 6 20.5 6 l201 0 l107 604 q2 10 1 14.5 q-1 4.5 -6 4.5 q-3 0 -7.5 -1.5 q-4.5 -1.5 -9.5 -5.5 l-153 -104 q-9 -6 -16 -9 q-7 -3 -12 -3 q-7 0 -9 7 q-2 7 0 20 q2 12 6 19.5 q4 7.5 12 12.5 l174 118 q11 7 20.5 10 q9.5 3 20.5 3 q22 0 31.5 -11 q9.5 -11 5.5 -33 l-115 -646 l159 0 q13 0 17.5 -6 q4.5 -6 2.5 -19 q-2 -13 -9 -19 q-7 -6 -20 -6 l-410 0 Z" /><glyph glyph-name="" unicode="2" d="M43 0 q-16 0 -23 8 q-7 8 -4 24 q2 8 6 16 q4 8 11 14 l297 262 q24 21 48 45.5 q24 24.5 43.5 51.5 q19.5 27 34 57.5 q14.5 30.5 20.5 64.5 q7 38 -1 66 q-8 28 -27.5 46 q-19.5 18 -49 26.5 q-29.5 8.5 -66.5 8.5 q-46 0 -74.5 -11 q-28.5 -11 -57.5 -28 q-13 -8 -23.5 -5.5 q-10.5 2.5 -15.5 13.5 q-5 10 -0.5 21 q4.5 11 16.5 19 q35 21 73.5 31 q38.5 10 89.5 10 q51 0 89.5 -10.5 q38.5 -10.5 63 -34.5 q24.5 -24 33.5 -62 q9 -38 -1 -93 q-6 -36 -21 -69 q-15 -33 -36 -63.5 q-21 -30.5 -47 -58.5 q-26 -28 -55 -53 l-254 -224 q-9 -8 -9 -15 q0 -7 10 -7 l321 0 q13 0 17.5 -6 q4.5 -6 2.5 -19 q-2 -13 -9 -19 q-7 -6 -20 -6 l-382 0 Z" /><glyph glyph-name="" unicode="3" d="M21 18 q-10 4 -12.5 13.5 q-2.5 9.5 4.5 20.5 q8 11 18.5 16 q10.5 5 22.5 0 q32 -14 70.5 -21 q38.5 -7 70.5 -7 q87 0 147 46.5 q60 46.5 74 131.5 q9 47 -12.5 75 q-21.5 28 -57.5 42.5 q-36 14.5 -79.5 18.5 q-43.5 4 -79.5 4 q-10 0 -16.5 1 q-6.5 1 -10 4 q-3.5 3 -4.5 7.5 q-1 4.5 0 11.5 q3 16 11.5 21 q8.5 5 22.5 5 q36 0 77 8 q41 8 77.5 26.5 q36.5 18.5 64 48.5 q27.5 30 34.5 73 q7 39 -6 62.5 q-13 23.5 -36.5 37 q-23.5 13.5 -52.5 18 q-29 4.5 -53 4.5 q-35 0 -68 -8 q-33 -8 -62 -22 q-13 -6 -21 -2.5 q-8 3.5 -11 14.5 q-4 12 0.5 21 q4.5 9 16.5 16 q30 17 69 26 q39 9 86 9 q42 0 80 -8.5 q38 -8.5 65 -28 q27 -19.5 40 -52 q13 -32.5 5 -80.5 q-6 -34 -18 -62 q-12 -28 -30.5 -50.5 q-18.5 -22.5 -44 -39 q-25.5 -16.5 -57.5 -27.5 q35 -6 60.5 -20.5 q25.5 -14.5 41 -38 q15.5 -23.5 20.5 -56 q5 -32.5 -3 -74.5 q-8 -46 -31.5 -85 q-23.5 -39 -59 -67.5 q-35.5 -28.5 -83 -44.5 q-47.5 -16 -103.5 -16 q-46 0 -88 6.5 q-42 6.5 -78 21.5 Z" /><glyph glyph-name="" unicode="4" d="M351 235 l69 390 q2 8 0.5 10.5 q-1.5 2.5 -3.5 2.5 q-2 0 -4.5 -1.5 q-2.5 -1.5 -7.5 -7.5 l-289 -368 q-3 -5 -5 -8.5 q-2 -3.5 -3 -6.5 q-1 -5 3 -8 q4 -3 14 -3 l226 0 ZM313 15 l30 170 l-278 0 q-19 0 -27 9 q-8 9 -5 26 q2 8 4.5 14.5 q2.5 6.5 6.5 11.5 l374 477 q7 8 15.5 12.5 q8.5 4.5 20.5 4.5 q17 0 25 -9.5 q8 -9.5 5 -29.5 l-83 -466 l70 0 q13 0 18 -6 q5 -6 3 -19 q-2 -13 -9 -19 q-7 -6 -20 -6 l-70 0 l-30 -170 q-2 -13 -9.5 -19 q-7.5 -6 -20.5 -6 q-13 0 -17.5 6 q-4.5 6 -2.5 19 Z" /><glyph glyph-name="" unicode="5" d="M464 203 q-8 -46 -31.5 -85 q-23.5 -39 -59 -67.5 q-35.5 -28.5 -83 -44.5 q-47.5 -16 -103.5 -16 q-46 0 -88 6.5 q-42 6.5 -78 21.5 q-10 4 -12.5 13.5 q-2.5 9.5 4.5 20.5 q8 11 18.5 16 q10.5 5 22.5 0 q32 -14 70.5 -21 q38.5 -7 70.5 -7 q87 0 147 46.5 q60 46.5 74 131.5 q8 45 -6.5 74.5 q-14.5 29.5 -46 47 q-31.5 17.5 -77 24.5 q-45.5 7 -99.5 7 l-27 0 q-30 0 -42 15 q-12 15 -7 45 l42 239 q5 30 23 45 q18 15 48 15 l294 0 q13 0 17.5 -6 q4.5 -6 2.5 -19 q-2 -13 -9 -19 q-7 -6 -20 -6 l-274 0 q-15 0 -24 -7.5 q-9 -7.5 -11 -22.5 l-35 -195 q-2 -15 4 -22.5 q6 -7.5 21 -7.5 q54 0 108.5 -6 q54.5 -6 95.5 -28.5 q41 -22.5 62.5 -66.5 q21.5 -44 7.5 -121 Z" /><glyph glyph-name="" unicode="6" d="M227 40 q35 0 67 11 q32 11 57.5 33.5 q25.5 22.5 44 56 q18.5 33.5 25.5 77.5 q7 39 0 71 q-7 32 -25 54.5 q-18 22.5 -45.5 34.5 q-27.5 12 -61.5 12 q-34 0 -65.5 -12 q-31.5 -12 -58 -34.5 q-26.5 -22.5 -45 -54.5 q-18.5 -32 -25.5 -71 q-7 -44 -1 -77.5 q6 -33.5 24 -56 q18 -22.5 46 -33.5 q28 -11 63 -11 ZM446 738 q11 4 21 1 q10 -3 13 -14 q2 -11 -4 -21.5 q-6 -10.5 -17 -13.5 q-52 -15 -103 -45 q-51 -30 -95 -74.5 q-44 -44.5 -79 -101.5 q-35 -57 -55 -125 q29 41 69.5 68.5 q40.5 27.5 101.5 27.5 q50 0 87 -15.5 q37 -15.5 59 -44.5 q22 -29 29 -70 q7 -41 -2 -92 q-9 -51 -30 -93 q-21 -42 -53 -72 q-32 -30 -74.5 -46.5 q-42.5 -16.5 -94.5 -16.5 q-58 0 -96 18.5 q-38 18.5 -57.5 51.5 q-19.5 33 -23 79 q-3.5 46 6.5 101 q22 123 65 208.5 q43 85.5 97.5 143 q54.5 57.5 115.5 91.5 q61 34 119 55 Z" /><glyph glyph-name="" unicode="7" d="M123 25 l363 627 l4 7 q1 3 1 6 q2 8 -3 11.5 q-5 3.5 -16 3.5 l-337 0 q-13 0 -18 6 q-5 6 -3 19 q2 13 9.5 19 q7.5 6 20.5 6 l380 0 q20 0 28 -9.5 q8 -9.5 5 -27.5 q-2 -8 -4 -12.5 q-2 -4.5 -4 -9.5 l-379 -663 q-5 -9 -12.5 -13.5 q-7.5 -4.5 -19.5 -4.5 q-12 0 -18 4.5 q-6 4.5 -4 13.5 q1 4 2.5 8 q1.5 4 4.5 9 Z" /><glyph glyph-name="" unicode="8" d="M218 -10 q-48 0 -86 14.5 q-38 14.5 -62 40.5 q-24 26 -33.5 62.5 q-9.5 36.5 -1.5 81.5 q6 36 22 67.5 q16 31.5 39 56.5 q23 25 52 42.5 q29 17.5 62 25.5 l1 3 q-53 11 -78 57 q-25 46 -13 112 q7 42 27.5 76.5 q20.5 34.5 51 59 q30.5 24.5 69 38 q38.5 13.5 82.5 13.5 q44 0 78 -13.5 q34 -13.5 56 -38 q22 -24.5 30.5 -59 q8.5 -34.5 1.5 -76.5 q-12 -66 -53.5 -112 q-41.5 -46 -97.5 -57 l-1 -3 q60 -16 90 -68 q30 -52 17 -124 q-8 -45 -30.5 -81.5 q-22.5 -36.5 -55.5 -62.5 q-33 -26 -76 -40.5 q-43 -14.5 -91 -14.5 ZM227 40 q38 0 70.5 11.5 q32.5 11.5 58.5 32 q26 20.5 43.5 49.5 q17.5 29 23.5 64 q6 35 -1 64.5 q-7 29.5 -25.5 51 q-18.5 21.5 -47 33.5 q-28.5 12 -66.5 12 q-37 0 -70.5 -12 q-33.5 -12 -59 -33.5 q-25.5 -21.5 -43 -51 q-17.5 -29.5 -23.5 -64.5 q-13 -70 26 -113.5 q39 -43.5 114 -43.5 ZM292 408 q66 0 113.5 36.5 q47.5 36.5 58.5 100.5 q11 64 -22.5 104.5 q-33.5 40.5 -99.5 40.5 q-33 0 -62 -10.5 q-29 -10.5 -52 -30 q-23 -19.5 -38.5 -46 q-15.5 -26.5 -21.5 -58.5 q-11 -64 23.5 -100.5 q34.5 -36.5 100.5 -36.5 Z" /><glyph glyph-name="" unicode="9" d="M342 690 q-35 0 -67 -11 q-32 -11 -57.5 -33.5 q-25.5 -22.5 -44 -56 q-18.5 -33.5 -26.5 -77.5 q-7 -39 0.5 -71 q7.5 -32 25.5 -54.5 q18 -22.5 45.5 -34.5 q27.5 -12 61.5 -12 q34 0 65.5 12 q31.5 12 58 34.5 q26.5 22.5 44.5 54.5 q18 32 25 71 q8 44 1.5 77.5 q-6.5 33.5 -24 56 q-17.5 22.5 -45.5 33.5 q-28 11 -63 11 ZM123 -8 q-11 -4 -21.5 -1 q-10.5 3 -12.5 14 q-3 11 3 21.5 q6 10.5 18 13.5 q52 15 103 45 q51 30 95 74.5 q44 44.5 79 101.5 q35 57 55 125 q-29 -41 -69.5 -68.5 q-40.5 -27.5 -101.5 -27.5 q-50 0 -87 15.5 q-37 15.5 -59.5 44.5 q-22.5 29 -29.5 70 q-7 41 2 92 q9 51 30 93 q21 42 53 72 q32 30 74.5 46.5 q42.5 16.5 94.5 16.5 q59 0 96.5 -18.5 q37.5 -18.5 57 -51.5 q19.5 -33 23 -79 q3.5 -46 -6.5 -101 q-22 -123 -65 -208.5 q-43 -85.5 -97 -143 q-54 -57.5 -115 -91.5 q-61 -34 -119 -55 Z" /><glyph glyph-name="" unicode=":" d="M169 50 q2 12 8.5 23 q6.5 11 16 19.5 q9.5 8.5 21.5 13 q12 4.5 24 4.5 q12 0 22.5 -4.5 q10.5 -4.5 17 -13 q6.5 -8.5 9.5 -19.5 q3 -11 1 -23 q-2 -12 -9 -23 q-7 -11 -16.5 -19.5 q-9.5 -8.5 -21.5 -13 q-12 -4.5 -24 -4.5 q-12 0 -22 4.5 q-10 4.5 -17 13 q-7 8.5 -9.5 19.5 q-2.5 11 -0.5 23 ZM239 450 q2 12 9 23 q7 11 16.5 19.5 q9.5 8.5 21.5 13 q12 4.5 24 4.5 q12 0 22 -4.5 q10 -4.5 17 -13 q7 -8.5 9.5 -19.5 q2.5 -11 0.5 -23 q-2 -12 -8.5 -23 q-6.5 -11 -16 -19.5 q-9.5 -8.5 -21.5 -13 q-12 -4.5 -24 -4.5 q-12 0 -22 4.5 q-10 4.5 -17 13 q-7 8.5 -10 19.5 q-3 11 -1 23 Z" /><glyph glyph-name="" unicode=";" d="M72 -204 q-6 -2 -11 -1 q-5 1 -7 7 q-2 6 0 11.5 q2 5.5 9 8.5 q32 13 59.5 28 q27.5 15 49 31.5 q21.5 16.5 37 35 q15.5 18.5 22.5 39.5 q6 17 2 23.5 q-4 6.5 -18 8.5 q-23 3 -37 18 q-14 15 -9 44 q5 27 23 43.5 q18 16.5 44 16.5 q20 0 31 -9.5 q11 -9.5 16 -24.5 q5 -15 4.5 -33 q-0.5 -18 -3.5 -36 q-7 -38 -22 -69.5 q-15 -31.5 -40.5 -57.5 q-25.5 -26 -62.5 -47 q-37 -21 -87 -37 ZM239 450 q2 12 9 23 q7 11 16.5 19.5 q9.5 8.5 21.5 13 q12 4.5 24 4.5 q12 0 22 -4.5 q10 -4.5 17 -13 q7 -8.5 9.5 -19.5 q2.5 -11 0.5 -23 q-2 -12 -8.5 -23 q-6.5 -11 -16 -19.5 q-9.5 -8.5 -21.5 -13 q-12 -4.5 -24 -4.5 q-12 0 -22 4.5 q-10 4.5 -17 13 q-7 8.5 -10 19.5 q-3 11 -1 23 Z" /><glyph glyph-name="" unicode="A" d="M405 7 l-19 193 l-262 0 l-87 -193 q-4 -8 -10 -12.5 q-6 -4.5 -17 -4.5 q-15 0 -20 8 q-5 8 3 25 l314 688 q7 14 17.5 21.5 q10.5 7.5 25.5 7.5 q15 0 23.5 -7.5 q8.5 -7.5 9.5 -21.5 l72 -688 q2 -17 -6 -25 q-8 -8 -23 -8 q-11 0 -15.5 4.5 q-4.5 4.5 -5.5 12.5 ZM381 250 l-41 410 q-1 5 -3.5 5 q-2.5 0 -4.5 -5 l-185 -410 l234 0 Z" /><glyph glyph-name="" unicode="B" d="M219 730 l128 0 q45 0 80 -13.5 q35 -13.5 56.5 -37.5 q21.5 -24 30 -57.5 q8.5 -33.5 0.5 -74.5 q-6 -34 -20.5 -64 q-14.5 -30 -35 -53 q-20.5 -23 -45.5 -37 q-25 -14 -52 -16 q32 -4 55.5 -18 q23.5 -14 37.5 -37.5 q14 -23.5 18.5 -54 q4.5 -30.5 -2.5 -67.5 q-8 -46 -29.5 -83 q-21.5 -37 -53.5 -63 q-32 -26 -74 -40 q-42 -14 -92 -14 l-131 0 q-30 0 -42 15 q-12 15 -7 45 l107 610 q5 30 23 45 q18 15 48 15 ZM142 353 l-48 -273 q-2 -15 4 -22.5 q6 -7.5 21 -7.5 l111 0 q77 0 127 38.5 q50 38.5 63 110.5 q13 72 -23.5 113 q-36.5 41 -113.5 41 l-141 0 ZM150 398 l138 0 q71 0 117.5 38 q46.5 38 57.5 105 q12 67 -21.5 103 q-33.5 36 -103.5 36 l-108 0 q-15 0 -24 -7.5 q-9 -7.5 -11 -22.5 l-45 -252 Z" /><glyph glyph-name="" unicode="C" d="M55 367 q13 76 40.5 143.5 q27.5 67.5 70.5 118.5 q43 51 102 81 q59 30 135 30 q35 0 62.5 -6.5 q27.5 -6.5 47 -16.5 q19.5 -10 31.5 -22.5 q12 -12.5 16 -25.5 q4 -12 1.5 -24.5 q-2.5 -12.5 -14.5 -17.5 q-8 -4 -17 -1.5 q-9 2.5 -13 13.5 q-6 17 -34.5 34 q-28.5 17 -66.5 17 q-70 0 -123.5 -28.5 q-53.5 -28.5 -92 -75 q-38.5 -46.5 -62 -104 q-23.5 -57.5 -33.5 -116.5 q-10 -55 -8 -112.5 q2 -57.5 21.5 -105 q19.5 -47.5 59.5 -78 q40 -30.5 107 -30.5 q12 0 29 1.5 q17 1.5 35 4.5 q18 3 34.5 8 q16.5 5 28.5 13 q15 11 26.5 10 q11.5 -1 16.5 -9 q4 -7 2.5 -17 q-1.5 -10 -9.5 -15 q-40 -29 -84.5 -37.5 q-44.5 -8.5 -87.5 -8.5 q-78 0 -127.5 31 q-49.5 31 -74.5 83 q-25 52 -28.5 120 q-3.5 68 9.5 143 Z" /><glyph glyph-name="" unicode="D" d="M101 0 q-36 0 -50.5 17.5 q-14.5 17.5 -8.5 52.5 l104 590 q7 35 27.5 52.5 q20.5 17.5 56.5 17.5 l50 0 q87 0 136 -28 q49 -28 69.5 -78 q20.5 -50 18 -118.5 q-2.5 -68.5 -16.5 -149.5 q-13 -71 -33 -135.5 q-20 -64.5 -57 -113.5 q-37 -49 -96 -78 q-59 -29 -150 -29 l-50 0 ZM96 85 q-3 -17 4.5 -26 q7.5 -9 24.5 -9 l35 0 q77 0 125.5 24.5 q48.5 24.5 78.5 67 q30 42.5 46 99.5 q16 57 27 121 q12 66 16 123.5 q4 57.5 -11 101 q-15 43.5 -55 68.5 q-40 25 -116 25 l-35 0 q-17 0 -27.5 -9 q-10.5 -9 -13.5 -26 l-99 -560 Z" /><glyph glyph-name="" unicode="E" d="M162 406 l283 0 q11 0 15 -7 q4 -7 2 -18 q-2 -11 -8.5 -18 q-6.5 -7 -17.5 -7 l-283 0 l-48 -271 q-3 -17 4.5 -26 q7.5 -9 24.5 -9 l282 0 q11 0 15.5 -7 q4.5 -7 2.5 -18 q-2 -11 -9 -18 q-7 -7 -18 -7 l-297 0 q-35 0 -49.5 17.5 q-14.5 17.5 -8.5 52.5 l104 590 q7 35 27.5 52.5 q20.5 17.5 55.5 17.5 l297 0 q11 0 15.5 -7 q4.5 -7 2.5 -18 q-2 -11 -9 -18 q-7 -7 -18 -7 l-282 0 q-17 0 -27.5 -9 q-10.5 -9 -13.5 -26 l-42 -239 Z" /><glyph glyph-name="" unicode="F" d="M157 406 l300 0 q13 0 17.5 -6 q4.5 -6 2.5 -19 q-2 -13 -9 -19 q-7 -6 -20 -6 l-300 0 l-59 -331 q-2 -13 -9 -19 q-7 -6 -20 -6 q-13 0 -18 6 q-5 6 -3 19 l112 635 q7 35 27.5 52.5 q20.5 17.5 55.5 17.5 l315 0 q13 0 17.5 -6 q4.5 -6 2.5 -19 q-2 -13 -9 -19 q-7 -6 -20 -6 l-300 0 q-17 0 -27.5 -9 q-10.5 -9 -13.5 -26 l-42 -239 Z" /><glyph glyph-name="" unicode="G" d="M431 288 q2 15 -4 22.5 q-6 7.5 -21 7.5 l-125 0 q-13 0 -18 6 q-5 6 -3 19 q2 13 9.5 19 q7.5 6 20.5 6 l145 0 q30 0 42 -15 q12 -15 7 -45 l-19 -108 q-9 -51 -27.5 -90.5 q-18.5 -39.5 -48.5 -66 q-30 -26.5 -72.5 -40 q-42.5 -13.5 -98.5 -13.5 q-71 0 -108 37 q-37 37 -51 93 q-14 56 -10.5 121 q3.5 65 13.5 120 q10 57 28 123.5 q18 66.5 51 123.5 q33 57 85.5 95 q52.5 38 130.5 38 q44 0 74 -12.5 q30 -12.5 49.5 -36 q19.5 -23.5 29.5 -56 q10 -32.5 13 -72.5 q2 -16 -6 -24.5 q-8 -8.5 -24 -8.5 q-10 0 -14 4 q-4 4 -6 12 q-4 66 -36 105 q-32 39 -95 39 q-60 0 -101 -35 q-41 -35 -67 -85 q-26 -50 -40 -105.5 q-14 -55.5 -21 -97.5 q-8 -47 -13.5 -104.5 q-5.5 -57.5 3 -107 q8.5 -49.5 37 -83 q28.5 -33.5 87.5 -33.5 q85 0 129.5 40 q44.5 40 58.5 120 l16 88 Z" /><glyph glyph-name="" unicode="H" d="M423 355 l-280 0 l-60 -340 q-2 -13 -9.5 -19 q-7.5 -6 -20.5 -6 q-13 0 -17.5 6 q-4.5 6 -2.5 19 l121 690 q2 13 9.5 19 q7.5 6 20.5 6 q13 0 17.5 -6 q4.5 -6 2.5 -19 l-53 -300 l280 0 l53 300 q2 13 9.5 19 q7.5 6 20.5 6 q13 0 17.5 -6 q4.5 -6 2.5 -19 l-121 -690 q-2 -13 -9.5 -19 q-7.5 -6 -20.5 -6 q-13 0 -17.5 6 q-4.5 6 -2.5 19 l60 340 Z" /><glyph glyph-name="" unicode="I" d="M253 50 l131 0 q11 0 16.5 -7 q5.5 -7 3.5 -18 q-2 -11 -10 -18 q-8 -7 -19 -7 l-310 0 q-11 0 -17 7 q-6 7 -4 18 q2 11 10.5 18 q8.5 7 19.5 7 l131 0 l111 630 l-131 0 q-11 0 -17 7 q-6 7 -4 18 q2 11 10.5 18 q8.5 7 19.5 7 l310 0 q11 0 16.5 -7 q5.5 -7 3.5 -18 q-2 -11 -10 -18 q-8 -7 -19 -7 l-131 0 l-111 -630 Z" /><glyph glyph-name="" unicode="J" d="M19 151 q1 14 9 21.5 q8 7.5 23 7.5 q11 0 15 -5.5 q4 -5.5 3 -21.5 q-3 -50 31.5 -84 q34.5 -34 100.5 -34 q72 0 121 44 q49 44 63 120 l80 451 q2 15 -4 22.5 q-6 7.5 -21 7.5 l-180 0 q-13 0 -18 6 q-5 6 -3 19 q2 13 9.5 19 q7.5 6 20.5 6 l200 0 q30 0 42 -15 q12 -15 7 -45 l-83 -471 q-9 -49 -30 -87.5 q-21 -38.5 -52 -65.5 q-31 -27 -71.5 -41.5 q-40.5 -14.5 -88.5 -14.5 q-88 0 -133 44.5 q-45 44.5 -41 116.5 Z" /><glyph glyph-name="" unicode="K" d="M83 15 q-2 -13 -9.5 -19 q-7.5 -6 -20.5 -6 q-13 0 -17.5 6 q-4.5 6 -2.5 19 l123 700 q2 13 9 19 q7 6 20 6 q13 0 18 -6 q5 -6 3 -19 l-64 -365 l347 373 q11 11 18.5 14 q7.5 3 15.5 3 q8 0 14.5 -2 q6.5 -2 9.5 -6.5 q3 -4.5 1 -11 q-2 -6.5 -10 -15.5 l-264 -280 l170 -400 q4 -9 2.5 -15.5 q-1.5 -6.5 -5.5 -11 q-4 -4.5 -10.5 -6.5 q-6.5 -2 -13.5 -2 q-9 0 -15.5 4 q-6.5 4 -10.5 13 l-160 372 l-103 -110 l-45 -254 Z" /><glyph glyph-name="" unicode="L" d="M120 0 q-30 0 -42 15 q-12 15 -7 45 l115 655 q2 13 9 19 q7 6 20 6 q13 0 18 -6 q5 -6 3 -19 l-112 -635 q-2 -15 4 -22.5 q6 -7.5 21 -7.5 l300 0 q11 0 16.5 -7 q5.5 -7 3.5 -18 q-2 -11 -10 -18 q-8 -7 -19 -7 l-320 0 Z" /><glyph glyph-name="" unicode="M" d="M433 15 q-2 -13 -9.5 -19 q-7.5 -6 -20.5 -6 q-13 0 -17.5 6 q-4.5 6 -2.5 19 l110 625 q1 6 -1 7 q0 1 -2 1 q-5 0 -10 -8 l-169 -334 q-7 -14 -17.5 -20 q-10.5 -6 -24.5 -6 q-14 0 -22 6 q-8 6 -10 20 l-51 334 q-2 9 -7 8 q-5 -1 -6 -8 l-110 -625 q-2 -13 -9.5 -19 q-7.5 -6 -20.5 -6 q-13 0 -17.5 6 q-4.5 6 -2.5 19 l119 677 q5 24 18.5 36 q13.5 12 36.5 12 q19 0 29.5 -8.5 q10.5 -8.5 12.5 -25.5 l49 -326 q2 -9 7.5 -9 q5.5 0 10.5 9 l163 326 q9 17 22 25.5 q13 8.5 32 8.5 q23 0 33.5 -12 q10.5 -12 5.5 -36 l-119 -677 Z" /><glyph glyph-name="" unicode="N" d="M152 693 q5 23 18.5 35 q13.5 12 36.5 12 q18 0 28.5 -8 q10.5 -8 13.5 -25 l115 -627 q0 -3 1.5 -4.5 q1.5 -1.5 3.5 -1.5 q2 0 3 1.5 q1 1.5 2 4.5 l112 635 q2 13 9 19 q7 6 20 6 q13 0 18 -6 q5 -6 3 -19 l-119 -678 q-5 -23 -19 -35 q-14 -12 -37 -12 q-18 0 -28 8 q-10 8 -13 25 l-115 627 q-1 3 -2 4.5 q-1 1.5 -3 1.5 q-2 0 -3.5 -1.5 q-1.5 -1.5 -1.5 -4.5 l-112 -635 q-2 -13 -9.5 -19 q-7.5 -6 -20.5 -6 q-13 0 -17.5 6 q-4.5 6 -2.5 19 l119 678 Z" /><glyph glyph-name="" unicode="O" d="M227 40 q57 0 99 36 q42 36 70.5 87.5 q28.5 51.5 45 107.5 q16.5 56 23.5 96 q5 26 8 60.5 q3 34.5 2.5 70 q-0.5 35.5 -7.5 70 q-7 34.5 -22 62 q-15 27.5 -40.5 44 q-25.5 16.5 -63.5 16.5 q-58 0 -99.5 -36 q-41.5 -36 -70 -87 q-28.5 -51 -45 -107 q-16.5 -56 -23.5 -95 q-4 -26 -7.5 -60.5 q-3.5 -34.5 -2.5 -70.5 q1 -36 7.5 -71 q6.5 -35 21.5 -62 q15 -27 40.5 -44 q25.5 -17 63.5 -17 ZM218 -10 q-73 0 -111.5 36.5 q-38.5 36.5 -53.5 92.5 q-15 56 -11.5 122 q3.5 66 13.5 126 q10 58 30 123.5 q20 65.5 54.5 121 q34.5 55.5 86 92 q51.5 36.5 124.5 36.5 q74 0 112.5 -36 q38.5 -36 53.5 -91 q15 -55 12 -120.5 q-3 -65.5 -13 -123.5 q-10 -60 -31 -127 q-21 -67 -56 -123 q-35 -56 -86.5 -92.5 q-51.5 -36.5 -123.5 -36.5 Z" /><glyph glyph-name="" unicode="P" d="M141 344 l-58 -329 q-2 -13 -9.5 -19 q-7.5 -6 -20.5 -6 q-13 0 -17.5 6 q-4.5 6 -2.5 19 l115 655 q5 30 23 45 q18 15 48 15 l155 0 q44 0 80 -13 q36 -13 60 -37.5 q24 -24.5 34 -60.5 q10 -36 2 -82 q-8 -46 -30.5 -82 q-22.5 -36 -55.5 -60.5 q-33 -24.5 -73.5 -37.5 q-40.5 -13 -84.5 -13 l-165 0 ZM150 394 l164 0 q34 0 65 8.5 q31 8.5 56 26.5 q25 18 42 45 q17 27 23 63 q6 37 -1 64 q-7 27 -25.5 44.5 q-18.5 17.5 -46 26 q-27.5 8.5 -62.5 8.5 l-135 0 q-15 0 -24 -7.5 q-9 -7.5 -11 -22.5 l-45 -256 Z" /><glyph glyph-name="" unicode="Q" d="M227 40 q57 0 99 36 q42 36 70.5 87.5 q28.5 51.5 45 107.5 q16.5 56 23.5 96 q5 26 8 60.5 q3 34.5 2.5 70 q-0.5 35.5 -7.5 70 q-7 34.5 -22 62 q-15 27.5 -40.5 44 q-25.5 16.5 -63.5 16.5 q-58 0 -99.5 -36 q-41.5 -36 -70 -87 q-28.5 -51 -45 -107 q-16.5 -56 -23.5 -95 q-4 -26 -7.5 -60.5 q-3.5 -34.5 -2.5 -70.5 q1 -36 7.5 -71 q6.5 -35 21.5 -62 q15 -27 40.5 -44 q25.5 -17 63.5 -17 ZM218 -10 q-73 0 -111.5 36.5 q-38.5 36.5 -53.5 92.5 q-15 56 -11.5 122 q3.5 66 13.5 126 q10 58 30 123.5 q20 65.5 54.5 121 q34.5 55.5 86 92 q51.5 36.5 124.5 36.5 q74 0 112.5 -36 q38.5 -36 53.5 -91 q15 -55 12 -120.5 q-3 -65.5 -13 -123.5 q-10 -60 -31 -127 q-21 -67 -56 -123 q-35 -56 -86.5 -92.5 q-51.5 -36.5 -123.5 -36.5 ZM189 -124 q-13 4 -14.5 12 q-1.5 8 2.5 17 q5 13 14.5 17 q9.5 4 19.5 2 l184 -51 q12 -3 14.5 -12 q2.5 -9 -2.5 -20 q-5 -12 -14.5 -16 q-9.5 -4 -19.5 -1 l-184 52 Z" /><glyph glyph-name="" unicode="R" d="M150 394 l164 0 q34 0 65 8.5 q31 8.5 56 26.5 q25 18 42 45 q17 27 23 63 q6 37 -1 64 q-7 27 -25.5 44.5 q-18.5 17.5 -46 26 q-27.5 8.5 -62.5 8.5 l-135 0 q-15 0 -24 -7.5 q-9 -7.5 -11 -22.5 l-45 -256 ZM141 344 l-58 -329 q-2 -13 -9.5 -19 q-7.5 -6 -20.5 -6 q-13 0 -17.5 6 q-4.5 6 -2.5 19 l115 655 q5 30 23 45 q18 15 48 15 l155 0 q44 0 80 -13 q36 -13 60 -37.5 q24 -24.5 34 -60.5 q10 -36 2 -82 q-7 -42 -27 -76 q-20 -34 -48.5 -58.5 q-28.5 -24.5 -64.5 -39 q-36 -14.5 -76 -18.5 l111 -320 q6 -18 0 -26.5 q-6 -8.5 -23 -8.5 q-13 0 -20 4.5 q-7 4.5 -10 13.5 l-113 336 l-138 0 Z" /><glyph glyph-name="" unicode="S" d="M470 574 q-3 48 -34 82 q-31 34 -93 34 q-65 0 -111.5 -34 q-46.5 -34 -57.5 -95 q-6 -36 0.5 -61.5 q6.5 -25.5 23 -43 q16.5 -17.5 41 -29.5 q24.5 -12 53.5 -21 q41 -14 77 -30.5 q36 -16.5 61 -41 q25 -24.5 36 -61 q11 -36.5 1 -90.5 q-7 -43 -29.5 -78.5 q-22.5 -35.5 -55.5 -61 q-33 -25.5 -75 -39.5 q-42 -14 -89 -14 q-45 0 -80.5 13.5 q-35.5 13.5 -58.5 38 q-23 24.5 -34 58.5 q-11 34 -8 76 q1 12 9 20.5 q8 8.5 21 8.5 q12 0 18.5 -6 q6.5 -6 6.5 -26 q-3 -60 31.5 -96.5 q34.5 -36.5 103.5 -36.5 q36 0 68 10 q32 10 57 28.5 q25 18.5 42 45 q17 26.5 23 60.5 q8 42 0 70.5 q-8 28.5 -27 47.5 q-19 19 -46.5 32 q-27.5 13 -60.5 23 q-38 12 -70.5 27 q-32.5 15 -55 38 q-22.5 23 -32.5 56 q-10 33 -1 81 q7 40 27 73.5 q20 33.5 50 57.5 q30 24 68.5 37 q38.5 13 80.5 13 q42 0 75 -12 q33 -12 55.5 -34 q22.5 -22 34 -52.5 q11.5 -30.5 8.5 -67.5 q0 -12 -7.5 -18 q-7.5 -6 -20.5 -6 q-12 0 -18 5.5 q-6 5.5 -7 18.5 Z" /><glyph glyph-name="" unicode="T" d="M316 680 l-191 0 q-11 0 -17 7 q-6 7 -4 18 q2 11 10.5 18 q8.5 7 19.5 7 l430 0 q11 0 16.5 -7 q5.5 -7 3.5 -18 q-2 -11 -10.5 -18 q-8.5 -7 -19.5 -7 l-189 0 l-116 -665 q-2 -13 -9.5 -19 q-7.5 -6 -20.5 -6 q-13 0 -17.5 6 q-4.5 6 -2.5 19 l117 665 Z" /><glyph glyph-name="" unicode="U" d="M152 705 q2 13 9.5 19 q7.5 6 20.5 6 q13 0 17.5 -6 q4.5 -6 2.5 -19 l-89 -505 q-6 -34 -2.5 -63 q3.5 -29 17.5 -50.5 q14 -21.5 38.5 -34 q24.5 -12.5 60.5 -12.5 q36 0 65 12.5 q29 12.5 50 34 q21 21.5 35 50.5 q14 29 20 63 l89 505 q2 13 9.5 19 q7.5 6 20.5 6 q13 0 17.5 -6 q4.5 -6 2.5 -19 l-89 -505 q-7 -43 -27 -81.5 q-20 -38.5 -49.5 -67 q-29.5 -28.5 -68 -45 q-38.5 -16.5 -84.5 -16.5 q-46 0 -79 16.5 q-33 16.5 -52.5 45 q-19.5 28.5 -25 67 q-5.5 38.5 1.5 81.5 l89 505 Z" /><glyph glyph-name="" unicode="V" d="M185 19 l-62 692 q-1 12 5.5 20.5 q6.5 8.5 21.5 8.5 q10 0 18 -4.5 q8 -4.5 9 -14.5 l51 -621 q1 -15 7 -15 q6 0 13 15 l269 621 q4 10 13.5 14.5 q9.5 4.5 19.5 4.5 q15 0 18.5 -8.5 q3.5 -8.5 -1.5 -20.5 l-306 -692 q-6 -14 -17 -21.5 q-11 -7.5 -26 -7.5 q-15 0 -23 7.5 q-8 7.5 -10 21.5 Z" /><glyph glyph-name="" unicode="W" d="M50 27 l54 683 q2 15 9 22.5 q7 7.5 22 7.5 q11 0 16 -4.5 q5 -4.5 4 -15.5 l-56 -665 q0 -4 2 -4.5 q2 -0.5 4 4.5 l172 484 q6 16 17 23.5 q11 7.5 27 7.5 q16 0 24 -7.5 q8 -7.5 8 -23.5 l4 -484 q0 -4 2 -4 q2 0 4 4 l176 665 q2 11 8.5 15.5 q6.5 4.5 17.5 4.5 q15 0 20.5 -7.5 q5.5 -7.5 0.5 -22.5 l-186 -683 q-5 -19 -17.5 -28 q-12.5 -9 -31.5 -9 q-19 0 -28.5 9 q-9.5 9 -9.5 28 l-3 458 q-1 4 -4 4 q-3 0 -4 -4 l-165 -458 q-8 -19 -20 -28 q-12 -9 -31 -9 q-19 0 -28.5 9 q-9.5 9 -7.5 28 Z" /><glyph glyph-name="" unicode="X" d="M559 707 l-244 -328 l138 -357 q3 -8 1.5 -14 q-1.5 -6 -5.5 -10 q-4 -4 -10 -6 q-6 -2 -12 -2 q-8 0 -14 4 q-6 4 -9 12 l-126 323 l-240 -323 q-6 -8 -13.5 -12 q-7.5 -4 -15.5 -4 q-6 0 -11 2 q-5 2 -8 6 q-3 4 -2 10 q1 6 7 14 l264 356 l-128 329 q-3 8 -2 14.5 q1 6.5 5 10.5 q4 4 10.5 6 q6.5 2 12.5 2 q8 0 14.5 -4 q6.5 -4 9.5 -12 l115 -296 l219 296 q6 8 13 12 q7 4 15 4 q6 0 12 -2 q6 -2 9 -6 q3 -4 2 -10.5 q-1 -6.5 -7 -14.5 Z" /><glyph glyph-name="" unicode="Y" d="M218 -10 q-13 0 -17.5 6 q-4.5 6 -2.5 19 l43 245 q2 10 1 19.5 q-1 9.5 -3 18.5 l-130 413 q-2 6 0 11.5 q2 5.5 6 9 q4 3.5 9.5 6 q5.5 2.5 11.5 2.5 q8 0 15.5 -4.5 q7.5 -4.5 10.5 -14.5 l112 -365 q3 -9 7.5 -9 q4.5 0 10.5 9 l240 365 q6 10 15 14.5 q9 4.5 17 4.5 q6 0 10.5 -2.5 q4.5 -2.5 7.5 -6 q3 -3.5 3 -9 q0 -5.5 -4 -11.5 l-274 -413 q-7 -9 -10.5 -18.5 q-3.5 -9.5 -5.5 -19.5 l-43 -245 q-2 -13 -9.5 -19 q-7.5 -6 -20.5 -6 Z" /><glyph glyph-name="" unicode="Z" d="M47 0 q-19 0 -26.5 9.5 q-7.5 9.5 -4.5 26.5 q2 8 4.5 14 q2.5 6 6.5 11 l443 602 q7 9 5 13 q-2 4 -12 4 l-302 0 q-11 0 -18 7 q-7 7 -5 18 q2 11 11.5 18 q9.5 7 20.5 7 l333 0 q22 0 30.5 -10.5 q8.5 -10.5 4.5 -32.5 q-2 -8 -4 -14 q-2 -6 -7 -12 l-438 -594 q-7 -9 -5 -13 q2 -4 12 -4 l318 0 q11 0 16.5 -7 q5.5 -7 3.5 -18 q-2 -11 -10 -18 q-8 -7 -19 -7 l-358 0 Z" /><glyph glyph-name="" unicode="_" d="M9 -145 q-13 0 -17.5 6 q-4.5 6 -2.5 19 q2 13 9 19 q7 6 20 6 l370 0 q13 0 18 -6 q5 -6 3 -19 q-2 -13 -9.5 -19 q-7.5 -6 -20.5 -6 l-370 0 Z" /><glyph glyph-name="" unicode="a" d="M166 -10 q-42 0 -69 16.5 q-27 16.5 -41 45 q-14 28.5 -16 68 q-2 39.5 6 85.5 q12 70 37.5 134.5 q25.5 64.5 62.5 113.5 q37 49 85.5 78 q48.5 29 107.5 29 q47 0 68 -24 q21 -24 26 -62 l0 -1 q8 31 18 62 q4 13 12.5 19 q8.5 6 21.5 6 q13 0 16.5 -6 q3.5 -6 -0.5 -19 q-21 -69 -38 -132 q-17 -63 -28 -125 q-11 -62 -15.5 -126.5 q-4.5 -64.5 -1.5 -137.5 q2 -12 -4 -18 q-6 -6 -19 -6 q-13 0 -19 6 q-6 6 -8 18 q-4 73 1 138 l0 5 q-15 -33 -34 -61 q-31 -46 -73 -76 q-42 -30 -96 -30 ZM173 40 q39 0 74.5 25 q35.5 25 64 63.5 q28.5 38.5 48.5 84.5 q16 38 25 73 q6 30 13 60 q2 12 5 25 q6 37 2.5 68 q-3.5 31 -20.5 51 q-17 20 -57 20 q-44 0 -82 -25.5 q-38 -25.5 -68 -68.5 q-30 -43 -50.5 -97.5 q-20.5 -54.5 -31.5 -113.5 q-14 -77 6 -121 q20 -44 71 -44 Z" /><glyph glyph-name="" unicode="b" d="M53 -10 q-13 0 -17.5 6 q-4.5 6 -2.5 19 l123 700 q2 13 9 19 q7 6 20 6 q13 0 18 -6 q5 -6 3 -19 l-47 -266 q30 54 72.5 82.5 q42.5 28.5 97.5 28.5 q57 0 89.5 -26.5 q32.5 -26.5 47.5 -70 q15 -43.5 14.5 -98 q-0.5 -54.5 -10.5 -110.5 q-9 -49 -26.5 -96.5 q-17.5 -47.5 -46 -85 q-28.5 -37.5 -69.5 -60.5 q-41 -23 -97 -23 q-37 0 -61.5 10 q-24.5 10 -40 24.5 q-15.5 14.5 -23 31.5 q-7.5 17 -10.5 32 l-13 -73 q-2 -13 -9.5 -19 q-7.5 -6 -20.5 -6 ZM239 38 q41 0 71.5 18.5 q30.5 18.5 52.5 49.5 q22 31 36 70 q14 39 21 79 q9 48 11 94 q2 46 -8.5 82.5 q-10.5 36.5 -36.5 58.5 q-26 22 -73 22 q-28 0 -56 -14.5 q-28 -14.5 -52 -37.5 q-24 -23 -40.5 -51 q-16.5 -28 -21.5 -54 l-29 -161 q-5 -28 1.5 -56 q6.5 -28 23 -50 q16.5 -22 42 -36 q25.5 -14 58.5 -14 Z" /><glyph glyph-name="" unicode="c" d="M69 278 q13 75 40.5 128.5 q27.5 53.5 65.5 87.5 q38 34 85.5 50 q47.5 16 99.5 16 q32 0 55.5 -5 q23.5 -5 39 -13.5 q15.5 -8.5 25 -19.5 q9.5 -11 14.5 -22 q10 -23 2.5 -35 q-7.5 -12 -18.5 -17 q-11 -4 -20 0 q-9 4 -15 18 q-8 19 -34 31.5 q-26 12.5 -60 12.5 q-34 0 -70.5 -14.5 q-36.5 -14.5 -69 -44 q-32.5 -29.5 -56.5 -74 q-24 -44.5 -35 -104.5 q-9 -54 -2.5 -97 q6.5 -43 27.5 -73 q21 -30 55 -46.5 q34 -16.5 80 -16.5 q35 0 61.5 8.5 q26.5 8.5 47.5 22.5 q12 8 24 10 q12 2 18 -6 q3 -4 4 -9.5 q1 -5.5 -0.5 -11 q-1.5 -5.5 -5.5 -11 q-4 -5.5 -10 -10.5 q-14 -11 -30 -19 q-16 -8 -35.5 -13.5 q-19.5 -5.5 -42.5 -8 q-23 -2.5 -52 -2.5 q-52 0 -93 17 q-41 17 -66.5 52 q-25.5 35 -33.5 89.5 q-8 54.5 5 129.5 Z" /><glyph glyph-name="" unicode="d" d="M426 88 q-4 -21 -1.5 -37 q2.5 -16 7.5 -36 q3 -12 -2 -18.5 q-5 -6.5 -18 -6.5 q-13 0 -20 6.5 q-7 6.5 -10 18.5 q-5 21 -5.5 34.5 q-0.5 13.5 1.5 38.5 q-8 -15 -22.5 -32 q-14.5 -17 -35.5 -31.5 q-21 -14.5 -49.5 -24.5 q-28.5 -10 -65.5 -10 q-55 0 -88 23 q-33 23 -48.5 60.5 q-15.5 37.5 -16.5 85 q-1 47.5 8 96.5 q10 56 29 110.5 q19 54.5 49 98 q30 43.5 72 70 q42 26.5 99 26.5 q55 0 87 -28.5 q32 -28.5 43 -82.5 l47 266 q2 13 9 19 q7 6 20 6 q13 0 18 -6 q5 -6 3 -19 l-110 -627 ZM215 38 q33 0 63.5 14 q30.5 14 54.5 36 q24 22 40 50 q16 28 21 56 l29 161 q5 26 -2.5 54 q-7.5 28 -23.5 51 q-16 23 -39 37.5 q-23 14.5 -51 14.5 q-47 0 -80.5 -22 q-33.5 -22 -56.5 -58.5 q-23 -36.5 -37 -82.5 q-14 -46 -23 -94 q-7 -40 -7 -79 q0 -39 11.5 -70 q11.5 -31 35.5 -49.5 q24 -18.5 65 -18.5 Z" /><glyph glyph-name="" unicode="e" d="M433 95 q7 -11 5 -21.5 q-2 -10.5 -13 -20.5 q-43 -38 -88.5 -50.5 q-45.5 -12.5 -111.5 -12.5 q-34 0 -64.5 13 q-30.5 13 -53.5 36 q-23 23 -36.5 56 q-13.5 33 -15.5 72 q-3 102 21.5 176 q24.5 74 66.5 122 q42 48 96 71.5 q54 23.5 111 23.5 q65 0 107.5 -34.5 q42.5 -34.5 47.5 -105.5 q4 -49 -14.5 -82 q-18.5 -33 -51 -53.5 q-32.5 -20.5 -75.5 -30 q-43 -9.5 -88 -13 q-45 -3.5 -89 -1.5 q-44 2 -79 5 q-2 -19 -3 -39 q-1 -20 0 -43 q1 -27 11.5 -50 q10.5 -23 27.5 -39 q17 -16 39 -25 q22 -9 47 -9 q29 0 51.5 2 q22.5 2 42 8 q19.5 6 37.5 16.5 q18 10.5 37 27.5 q11 11 19.5 11 q8.5 0 15.5 -10 ZM117 298 q49 -4 109.5 -6 q60.5 -2 112.5 9 q52 11 86 40 q34 29 30 86 q-1 21 -11 36.5 q-10 15.5 -25 25.5 q-15 10 -33.5 15 q-18.5 5 -38.5 5 q-36 0 -71.5 -12 q-35.5 -12 -66.5 -38 q-31 -26 -55 -65.5 q-24 -39.5 -37 -95.5 Z" /><glyph glyph-name="" unicode="f" d="M526 469 q11 0 16.5 -6.5 q5.5 -6.5 3.5 -17.5 q-2 -11 -10.5 -18.5 q-8.5 -7.5 -19.5 -7.5 l-207 0 l-77 -439 q-6 -35 -18 -65 q-12 -30 -33.5 -52 q-21.5 -22 -53 -35 q-31.5 -13 -76.5 -13 l-59 0 q-11 0 -16 7 q-5 7 -3 18 q2 11 9.5 18 q7.5 7 18.5 7 l59 0 q45 0 78.5 29 q33.5 29 43.5 86 l77 439 l-166 0 q-11 0 -16.5 7.5 q-5.5 7.5 -3.5 18.5 q2 11 10.5 17.5 q8.5 6.5 19.5 6.5 l165 0 l22 126 q12 68 53 101.5 q41 33.5 112 33.5 l89 0 q11 0 16 -7 q5 -7 3 -18 q-2 -11 -9.5 -18 q-7.5 -7 -18.5 -7 l-89 0 q-42 0 -70 -21 q-28 -21 -36 -64 l-22 -126 l208 0 Z" /><glyph glyph-name="" unicode="g" d="M383 128 q-5 -15 -17.5 -32.5 q-12.5 -17.5 -33 -32 q-20.5 -14.5 -50 -24 q-29.5 -9.5 -70.5 -9.5 q-55 0 -88 23 q-33 23 -49 59.5 q-16 36.5 -17 82 q-1 45.5 7 90.5 q8 45 26 93.5 q18 48.5 47.5 89 q29.5 40.5 71.5 66.5 q42 26 99 26 q55 0 87 -28.5 q32 -28.5 43 -82.5 l15 86 q2 13 9.5 19 q7.5 6 20.5 6 q13 0 17.5 -6 q4.5 -6 2.5 -19 l-94 -535 q-11 -65 -33 -106 q-22 -41 -52 -64 q-30 -23 -67 -31.5 q-37 -8.5 -79 -8.5 q-32 0 -57.5 6 q-25.5 6 -45 15 q-19.5 9 -33 20 q-13.5 11 -21.5 22 q-7 9 -9.5 16.5 q-2.5 7.5 -0.5 16.5 q1 6 3.5 11.5 q2.5 5.5 6.5 9.5 q4 4 9 6 q5 2 11 2 q5 0 10 -2 q5 -2 11 -10 q9 -11 21 -22.5 q12 -11.5 28 -20.5 q16 -9 35.5 -14.5 q19.5 -5.5 42.5 -5.5 q29 0 56 7 q27 7 49.5 25 q22.5 18 39 49 q16.5 31 25.5 79 l23 128 ZM222 78 q33 0 63.5 14 q30.5 14 54.5 36 q24 22 40 50 q16 28 21 56 l22 121 q5 26 -2.5 54 q-7.5 28 -23.5 51 q-16 23 -39 37.5 q-23 14.5 -51 14.5 q-47 0 -80.5 -21.5 q-33.5 -21.5 -56 -55 q-22.5 -33.5 -35.5 -73.5 q-13 -40 -20 -77 q-6 -37 -6.5 -74 q-0.5 -37 10 -66.5 q10.5 -29.5 35.5 -48 q25 -18.5 68 -18.5 Z" /><glyph glyph-name="" unicode="h" d="M148 355 l-60 -340 q-2 -13 -9.5 -19 q-7.5 -6 -20.5 -6 q-13 0 -17.5 6 q-4.5 6 -2.5 19 l123 700 q2 13 9.5 19 q7.5 6 20.5 6 q13 0 17.5 -6 q4.5 -6 2.5 -19 l-47 -266 q30 54 72.5 82.5 q42.5 28.5 97.5 28.5 q41 0 69.5 -15 q28.5 -15 46 -41 q17.5 -26 22.5 -61 q5 -35 -2 -76 l-62 -352 q-2 -13 -9.5 -19 q-7.5 -6 -20.5 -6 q-13 0 -17.5 6 q-4.5 6 -2.5 19 l60 340 q5 31 2 59.5 q-3 28.5 -15.5 50 q-12.5 21.5 -34 34.5 q-21.5 13 -52.5 13 q-28 0 -56 -14.5 q-28 -14.5 -52 -37.5 q-24 -23 -40.5 -51 q-16.5 -28 -21.5 -54 Z" /><glyph glyph-name="" unicode="i" d="M131 448 q-12 -3 -20 1 q-8 4 -10 17 q-2 13 2.5 20.5 q4.5 7.5 17.5 10.5 l156 41 q17 5 30 2 q13 -3 21.5 -11.5 q8.5 -8.5 11.5 -21 q3 -12.5 -1 -27.5 l-74 -284 q-11 -42 -15.5 -72 q-4.5 -30 -1 -48.5 q3.5 -18.5 16.5 -27 q13 -8.5 38 -8.5 q34 0 61.5 20.5 q27.5 20.5 54.5 51.5 q8 9 18 10 q10 1 17 -4 q8 -5 9.5 -17 q1.5 -12 -6.5 -20 q-18 -22 -35 -39 q-17 -17 -35.5 -28.5 q-18.5 -11.5 -41.5 -17.5 q-23 -6 -55 -6 q-31 0 -52 9.5 q-21 9.5 -32.5 30 q-11.5 20.5 -12 51.5 q-0.5 31 10.5 74 l78 309 q3 12 -3.5 17.5 q-6.5 5.5 -17.5 2.5 l-130 -36 ZM341 635 q-26 0 -39 15 q-13 15 -9 40 q5 25 23.5 40 q18.5 15 44.5 15 q26 0 39.5 -15 q13.5 -15 8.5 -40 q-4 -25 -23 -40 q-19 -15 -45 -15 Z" /><glyph glyph-name="" unicode="j" d="M368 458 q3 15 -3.5 19.5 q-6.5 4.5 -20.5 0.5 l-130 -32 q-16 -4 -25 -0.5 q-9 3.5 -12 16.5 q-3 13 2.5 22.5 q5.5 9.5 22.5 13.5 l170 40 q15 3 25.5 0 q10.5 -3 17 -11.5 q6.5 -8.5 8.5 -21 q2 -12.5 -1 -27.5 l-97 -541 q-7 -37 -23.5 -66 q-16.5 -29 -42.5 -49.5 q-26 -20.5 -60.5 -31 q-34.5 -10.5 -78.5 -10.5 q-33 0 -58 8 q-25 8 -43 20 q-18 12 -30 25 q-12 13 -20 23 q-3 4 -3 9 l0 8 q1 5 4 10.5 q3 5.5 7 10.5 q4 5 8.5 8.5 q4.5 3.5 9.5 3.5 q5 0 11 -4.5 q6 -4.5 11 -12.5 q12 -13 23.5 -24 q11.5 -11 24.5 -18.5 q13 -7.5 28.5 -12 q15.5 -4.5 33.5 -4.5 q26 0 50.5 8 q24.5 8 45 22.5 q20.5 14.5 34 33 q13.5 18.5 17.5 39.5 l94 525 ZM415 635 q-26 0 -39 15 q-13 15 -9 40 q5 25 23.5 40 q18.5 15 44.5 15 q26 0 39.5 -15 q13.5 -15 8.5 -40 q-4 -25 -23 -40 q-19 -15 -45 -15 Z" /><glyph glyph-name="" unicode="k" d="M442 24 q14 -17 8.5 -25.5 q-5.5 -8.5 -29.5 -8.5 q-11 0 -20 4.5 q-9 4.5 -16 12.5 l-154 195 q-42 -4 -84 0 l-33 -187 q-3 -13 -10 -19 q-7 -6 -20 -6 q-13 0 -18 6 q-5 6 -2 19 l123 700 q2 13 9.5 19 q7.5 6 19.5 6 q13 0 18 -6 q5 -6 3 -19 l-47 -269 q27 24 57 40 q56 31 123 31 q31 0 52.5 -9.5 q21.5 -9.5 34 -26 q12.5 -16.5 16.5 -39 q4 -22.5 -1 -49.5 q-10 -61 -43 -100.5 q-33 -39.5 -79 -61.5 q-26 -12 -55 -20 l147 -187 ZM176 370 l-21 -121 q46 -3 88 2 q47 4 84 19 q37 15 61.5 42.5 q24.5 27.5 32.5 70.5 q6 39 -9 61.5 q-15 22.5 -55 22.5 q-21 0 -44 -6.5 q-23 -6.5 -47.5 -20 q-24.5 -13.5 -50.5 -35.5 q-19 -16 -39 -35 Z" /><glyph glyph-name="" unicode="l" d="M432 76 q-41 -44 -81.5 -65 q-40.5 -21 -95.5 -21 q-34 0 -57 12.5 q-23 12.5 -36 34 q-13 21.5 -17 52.5 q-2 16 -2 33 q-66 -33 -144 -65 q-13 -5 -20 -1 q-7 4 -10 18 q-2 14 2 22.5 q4 8.5 17 13.5 q88 36 159 73 q13 138 35 239 q24 111 58.5 181.5 q34.5 70.5 79.5 103.5 q45 33 101 33 q33 0 53 -11.5 q20 -11.5 29.5 -29.5 q9.5 -18 11.5 -40 q2 -22 -1 -43 q-12 -109 -49.5 -192.5 q-37.5 -83.5 -101.5 -148.5 q-64 -65 -155 -117 q-7 -5 -15 -9 q0 -11 1 -21 q1 -29 10 -48.5 q9 -19.5 25.5 -29.5 q16.5 -10 42.5 -10 q42 0 70 20 q28 20 55 51 q8 9 17.5 10 q9.5 1 18.5 -7 q9 -8 8 -19 q-1 -11 -9 -19 ZM198 211 q69 40 121 90 q59 56 95 130.5 q36 74.5 50 176.5 q2 16 0.5 30.5 q-1.5 14.5 -6.5 26 q-5 11.5 -15 18.5 q-10 7 -26 7 q-30 0 -62.5 -25 q-32.5 -25 -63 -82.5 q-30.5 -57.5 -55.5 -151.5 q-24 -90 -38 -220 Z" /><glyph glyph-name="" unicode="m" d="M18 -10 q-12 0 -17 6.5 q-5 6.5 -3 18.5 l84 475 q2 12 -0.5 24 q-2.5 12 -6.5 24 q-4 11 3.5 16.5 q7.5 5.5 18.5 5.5 q12 0 18 -5.5 q6 -5.5 10 -16.5 q4 -12 5.5 -24 q1.5 -12 0.5 -24 q16 37 44 53.5 q28 16.5 62 16.5 q40 0 61 -18.5 q21 -18.5 26 -51.5 q22 33 45 51.5 q23 18.5 65 18.5 q29 0 47.5 -10.5 q18.5 -10.5 29 -28.5 q10.5 -18 13 -41 q2.5 -23 -2.5 -49 l-74 -417 q-2 -12 -9 -18 q-7 -6 -19 -6 q-12 0 -17.5 6 q-5.5 6 -3.5 18 l72 406 q3 18 2 35 q-1 17 -8 29.5 q-7 12.5 -20 20.5 q-13 8 -33 8 q-41 0 -63.5 -28.5 q-22.5 -28.5 -29.5 -64.5 l-72 -406 q-2 -12 -9 -18 q-7 -6 -19 -6 q-12 0 -17.5 6 q-5.5 6 -3.5 18 l72 406 q3 18 2 35 q-1 17 -8 29.5 q-7 12.5 -20 20.5 q-13 8 -33 8 q-41 0 -63 -28.5 q-22 -28.5 -29 -64.5 l-72 -406 q-2 -12 -9 -18 q-7 -6 -19 -6 Z" /><glyph glyph-name="" unicode="n" d="M130 560 q13 0 20 -6.5 q7 -6.5 10 -18.5 q5 -21 5.5 -42 q0.5 -21 -1.5 -46 q29 55 72 84 q43 29 98 29 q41 0 69.5 -15 q28.5 -15 46 -41 q17.5 -26 22.5 -61 q5 -35 -2 -76 l-62 -352 q-2 -13 -9.5 -19 q-7.5 -6 -20.5 -6 q-13 0 -17.5 6 q-4.5 6 -2.5 19 l60 340 q5 31 2 59.5 q-3 28.5 -15.5 50 q-12.5 21.5 -34 34.5 q-21.5 13 -52.5 13 q-28 0 -56 -14.5 q-28 -14.5 -52 -37.5 q-24 -23 -40.5 -51 q-16.5 -28 -21.5 -54 l-60 -340 q-2 -13 -9.5 -19 q-7.5 -6 -20.5 -6 q-13 0 -17.5 6 q-4.5 6 -2.5 19 l76 435 q4 21 2.5 43 q-1.5 22 -6.5 42 q-3 12 2 18.5 q5 6.5 18 6.5 Z" /><glyph glyph-name="" unicode="o" d="M218 -10 q-50 0 -85.5 20 q-35.5 20 -56 57 q-20.5 37 -25 89.5 q-4.5 52.5 6.5 118.5 q12 66 35 118.5 q23 52.5 57 89.5 q34 37 77 57 q43 20 94 20 q51 0 86.5 -20 q35.5 -20 55 -56.5 q19.5 -36.5 23.5 -88.5 q4 -52 -7 -117 q-12 -67 -35.5 -120 q-23.5 -53 -57 -90.5 q-33.5 -37.5 -76 -57.5 q-42.5 -20 -92.5 -20 ZM227 40 q38 0 70.5 16.5 q32.5 16.5 58.5 47 q26 30.5 44.5 75 q18.5 44.5 28.5 99.5 q9 53 6.5 96 q-2.5 43 -17 73 q-14.5 30 -41 46.5 q-26.5 16.5 -65.5 16.5 q-39 0 -72 -16.5 q-33 -16.5 -59 -47 q-26 -30.5 -44.5 -74 q-18.5 -43.5 -28.5 -97.5 q-9 -54 -6 -97.5 q3 -43.5 18 -74 q15 -30.5 42 -47 q27 -16.5 65 -16.5 Z" /><glyph glyph-name="" unicode="p" d="M160 462 q8 15 22.5 32 q14.5 17 35.5 31.5 q21 14.5 49 24.5 q28 10 65 10 q56 0 88.5 -23 q32.5 -23 48 -60.5 q15.5 -37.5 16.5 -85 q1 -47.5 -8 -96.5 q-10 -56 -29 -110.5 q-19 -54.5 -49 -98 q-30 -43.5 -72 -70 q-42 -26.5 -99 -26.5 q-55 0 -87 28.5 q-32 28.5 -43 82.5 l-47 -266 q-2 -13 -9.5 -19 q-7.5 -6 -20.5 -6 q-13 0 -17.5 6 q-4.5 6 -2.5 19 l110 627 q4 21 1.5 37 q-2.5 16 -7.5 36 q-3 12 2 18.5 q5 6.5 18 6.5 q13 0 20 -6.5 q7 -6.5 10 -18.5 q5 -21 6 -34.5 q1 -13.5 -1 -38.5 ZM322 512 q-33 0 -63.5 -14 q-30.5 -14 -54.5 -36 q-24 -22 -40 -50 q-16 -28 -21 -56 l-29 -161 q-4 -26 3 -54 q7 -28 23 -51 q16 -23 39 -37.5 q23 -14.5 51 -14.5 q47 0 80.5 22 q33.5 22 56.5 58.5 q23 36.5 37 82.5 q14 46 23 94 q7 41 7 79.5 q0 38.5 -11.5 69.5 q-11.5 31 -35.5 49.5 q-24 18.5 -65 18.5 Z" /><glyph glyph-name="" unicode="q" d="M484 560 q13 0 17.5 -6 q4.5 -6 2.5 -19 l-123 -700 q-2 -13 -9.5 -19 q-7.5 -6 -20.5 -6 q-13 0 -17.5 6 q-4.5 6 -2.5 19 l47 266 q-30 -54 -72.5 -82.5 q-42.5 -28.5 -97.5 -28.5 q-57 0 -89.5 26.5 q-32.5 26.5 -47.5 70 q-15 43.5 -14.5 98 q0.5 54.5 10.5 110.5 q9 49 26.5 96.5 q17.5 47.5 46 85 q28.5 37.5 70 60.5 q41.5 23 96.5 23 q37 0 61.5 -10 q24.5 -10 40 -24.5 q15.5 -14.5 23 -31.5 q7.5 -17 10.5 -32 l13 73 q2 13 9.5 19 q7.5 6 20.5 6 ZM298 512 q-41 0 -71.5 -18.5 q-30.5 -18.5 -52.5 -49.5 q-22 -31 -36 -69.5 q-14 -38.5 -21 -79.5 q-9 -48 -10.5 -94 q-1.5 -46 9 -82.5 q10.5 -36.5 36 -58.5 q25.5 -22 72.5 -22 q28 0 56 14.5 q28 14.5 52 37.5 q24 23 41 51 q17 28 21 54 l29 161 q5 28 -1.5 56 q-6.5 28 -23 50 q-16.5 22 -42 36 q-25.5 14 -58.5 14 Z" /><glyph glyph-name="" unicode="r" d="M75 -10 q-13 0 -17.5 6 q-4.5 6 -2.5 19 l75 435 q4 21 2.5 43 q-1.5 22 -6.5 42 q-3 12 2 18.5 q5 6.5 18 6.5 q13 0 20 -6.5 q7 -6.5 10 -18.5 q5 -21 5.5 -42 q0.5 -21 -1.5 -46 q29 51 83 82 q54 31 124 31 q42 0 66 -16 q24 -16 35 -42.5 q11 -26.5 11 -62 q0 -35.5 -7 -74.5 l-1 -10 q-2 -13 -9.5 -19 q-7.5 -6 -20.5 -6 q-13 0 -17.5 6 q-4.5 6 -2.5 19 l1 10 q5 29 6.5 56.5 q1.5 27.5 -5.5 48.5 q-7 21 -25.5 34 q-18.5 13 -52.5 13 q-30 0 -62.5 -12 q-32.5 -12 -61 -33 q-28.5 -21 -49.5 -49.5 q-21 -28.5 -27 -62.5 l-60 -345 q-2 -13 -9.5 -19 q-7.5 -6 -20.5 -6 Z" /><glyph glyph-name="" unicode="s" d="M218 -10 q-24 0 -48.5 2.5 q-24.5 2.5 -47 9.5 q-22.5 7 -41.5 19.5 q-19 12.5 -31 33.5 q-7 11 -13 27.5 q-6 16.5 -3 29.5 q1 10 8.5 16.5 q7.5 6.5 19.5 6.5 q8 0 15 -3.5 q7 -3.5 11 -12.5 q17 -40 51 -59.5 q34 -19.5 88 -19.5 q27 0 56 3.5 q29 3.5 54 14 q25 10.5 43.5 30 q18.5 19.5 23.5 50.5 q6 35 -5.5 56.5 q-11.5 21.5 -32.5 35 q-21 13.5 -48 20.5 q-27 7 -52 12 q-32 7 -64.5 15 q-32.5 8 -57 23.5 q-24.5 15.5 -37 42 q-12.5 26.5 -4.5 70.5 q7 39 27.5 67 q20.5 28 49.5 46 q29 18 65 26 q36 8 74 8 q68 0 110.5 -23 q42.5 -23 61.5 -65 q4 -8 5.5 -14.5 q1.5 -6.5 -0.5 -12.5 q-1 -11 -8.5 -15.5 q-7.5 -4.5 -17.5 -4.5 q-8 0 -13.5 2.5 q-5.5 2.5 -8.5 9.5 q-21 43 -57.5 58 q-36.5 15 -80.5 15 q-29 0 -55.5 -5.5 q-26.5 -5.5 -47.5 -17 q-21 -11.5 -35.5 -29.5 q-14.5 -18 -18.5 -44 q-5 -30 5 -48 q10 -18 29 -28.5 q19 -10.5 42.5 -16 q23.5 -5.5 45.5 -10.5 q34 -7 69.5 -17 q35.5 -10 63 -28 q27.5 -18 41.5 -47.5 q14 -29.5 6 -76.5 q-7 -42 -30.5 -71 q-23.5 -29 -56 -47 q-32.5 -18 -71.5 -26 q-39 -8 -79 -8 Z" /><glyph glyph-name="" unicode="t" d="M496 530 q11 0 16 -7 q5 -7 2 -18 q-2 -11 -9 -18 q-7 -7 -18 -7 l-200 0 l-56 -284 q-9 -47 -10 -77 q-1 -30 5.5 -47.5 q6.5 -17.5 19.5 -24.5 q13 -7 31 -7 q26 0 55.5 20.5 q29.5 20.5 56.5 51.5 q8 9 18 10 q10 1 17 -4 q8 -5 9.5 -17 q1.5 -12 -6.5 -20 q-20 -22 -38.5 -39 q-18.5 -17 -38 -28.5 q-19.5 -11.5 -41.5 -17.5 q-22 -6 -49 -6 q-31 0 -50.5 12.5 q-19.5 12.5 -30 34.5 q-10.5 22 -11.5 52 q-1 30 6 66 l63 325 l-137 0 q-11 0 -16 7 q-5 7 -3 18 q3 11 10 18 q7 7 18 7 l138 0 l29 150 q2 13 9 19 q7 6 20 6 q13 0 18.5 -6 q5.5 -6 2.5 -19 l-29 -150 l199 0 Z" /><glyph glyph-name="" unicode="u" d="M407 -10 q-13 0 -20 6.5 q-7 6.5 -10 18.5 q-5 21 -5.5 42 q-0.5 21 1.5 46 q-29 -55 -72 -84 q-43 -29 -98 -29 q-40 0 -69 15 q-29 15 -46.5 41 q-17.5 26 -22.5 61 q-5 35 2 76 l62 352 q2 13 9.5 19 q7.5 6 20.5 6 q13 0 17.5 -6 q4.5 -6 2.5 -19 l-60 -340 q-5 -31 -2 -59.5 q3 -28.5 15.5 -50 q12.5 -21.5 34 -34.5 q21.5 -13 52.5 -13 q28 0 56 14.5 q28 14.5 52 37.5 q24 23 41 51 q17 28 21 54 l60 340 q2 13 9.5 19 q7.5 6 20.5 6 q13 0 17.5 -6 q4.5 -6 2.5 -19 l-76 -435 q-4 -21 -2.5 -43 q1.5 -22 6.5 -42 q3 -12 -2 -18.5 q-5 -6.5 -18 -6.5 Z" /><glyph glyph-name="" unicode="v" d="M185 19 l-83 512 q-1 6 1.5 11.5 q2.5 5.5 7 9 q4.5 3.5 9.5 6 q5 2.5 9 2.5 q10 0 17.5 -4.5 q7.5 -4.5 8.5 -14.5 l73 -441 q2 -13 7 -13 q5 0 13 13 q64 103 121 213 q57 110 106 228 q5 10 14.5 14.5 q9.5 4.5 19.5 4.5 q4 0 8 -2.5 q4 -2.5 7 -6 q3 -3.5 4 -9 q1 -5.5 -2 -11.5 q-58 -135 -125 -263.5 q-67 -128.5 -140 -248.5 q-8 -14 -18 -21.5 q-10 -7.5 -25 -7.5 q-15 0 -22.5 7.5 q-7.5 7.5 -10.5 21.5 Z" /><glyph glyph-name="" unicode="w" d="M97 -10 q-18 0 -27 8.5 q-9 8.5 -9 26.5 l7 505 q1 15 9 22.5 q8 7.5 23 7.5 q12 0 18 -6 q6 -6 6 -18 l-13 -461 q0 -8 1.5 -8 q1.5 0 4.5 8 l137 326 q6 14 16.5 21.5 q10.5 7.5 25.5 7.5 q15 0 22.5 -7.5 q7.5 -7.5 9.5 -21.5 l21 -326 q0 -8 1 -8 q1 0 5 8 q53 115 90.5 230.5 q37.5 115.5 60.5 230.5 q2 12 11 18 q9 6 21 6 q15 0 19.5 -7.5 q4.5 -7.5 0.5 -22.5 q-28 -126 -71 -252.5 q-43 -126.5 -101 -252.5 q-8 -17 -18.5 -26 q-10.5 -9 -28.5 -9 q-18 0 -27.5 8.5 q-9.5 8.5 -11.5 25.5 l-19 301 q0 8 -2.5 8 q-2.5 0 -5.5 -8 l-125 -300 q-8 -17 -20.5 -26 q-12.5 -9 -30.5 -9 Z" /><glyph glyph-name="" unicode="x" d="M496 528 l-202 -240 l35 -137 q9 -34 17 -56 q8 -22 16.5 -34 q8.5 -12 17.5 -16.5 q9 -4.5 20 -4.5 q18 0 28 5 q10 5 20 15 q7 7 16.5 4.5 q9.5 -2.5 15.5 -11.5 q6 -9 3 -20.5 q-3 -11.5 -13 -21.5 q-11 -11 -25 -16 q-14 -5 -40 -5 q-24 0 -42.5 5 q-18.5 5 -33 21 q-14.5 16 -26.5 44.5 q-12 28.5 -24 74.5 l-27 104 l-197 -234 q-7 -8 -17.5 -11.5 q-10.5 -3.5 -20.5 -3.5 q-6 0 -12 2 q-6 2 -9.5 6 q-3.5 4 -3 10 q0.5 6 7.5 14 l236 280 l-25 97 q-9 35 -17 56.5 q-8 21.5 -16 33.5 q-8 12 -17.5 16.5 q-9.5 4.5 -20.5 4.5 q-18 0 -28 -5 q-10 -5 -20 -15 q-7 -7 -16.5 -4.5 q-9.5 2.5 -15.5 11.5 q-6 9 -3 20.5 q3 11.5 13 21.5 q11 11 25 16 q14 5 40 5 q24 0 42.5 -5 q18.5 -5 33 -20.5 q14.5 -15.5 26.5 -44 q12 -28.5 24 -75.5 l16 -64 l162 192 q8 8 18.5 12.5 q10.5 4.5 20.5 4.5 q6 0 12.5 -2 q6.5 -2 10 -6 q3.5 -4 3 -10 q-0.5 -6 -7.5 -14 Z" /><glyph glyph-name="" unicode="y" d="M362 0 l30 163 q-29 -55 -72 -84 q-43 -29 -98 -29 q-40 0 -69.5 15 q-29.5 15 -47 41 q-17.5 26 -22.5 61 q-5 35 3 76 l55 292 q2 13 9.5 19 q7.5 6 20.5 6 q13 0 17.5 -6 q4.5 -6 2.5 -19 l-53 -280 q-6 -31 -3 -59.5 q3 -28.5 15.5 -50 q12.5 -21.5 34.5 -34.5 q22 -13 53 -13 q28 0 56 14.5 q28 14.5 52 37.5 q24 23 41 51 q17 28 21 54 l48 280 q2 13 9.5 19 q7.5 6 20.5 6 q13 0 17.5 -6 q4.5 -6 2.5 -19 l-94 -535 q-11 -65 -33 -106 q-22 -41 -52 -64 q-30 -23 -67 -31.5 q-37 -8.5 -79 -8.5 q-32 0 -57.5 6 q-25.5 6 -45 15 q-19.5 9 -33 20 q-13.5 11 -21.5 22 q-7 9 -9.5 16.5 q-2.5 7.5 -0.5 16.5 q1 6 3.5 11.5 q2.5 5.5 6.5 9.5 q4 4 9 6 q5 2 11 2 q5 0 10 -2 q5 -2 11 -10 q9 -11 21 -22.5 q12 -11.5 28 -20.5 q16 -9 35.5 -14.5 q19.5 -5.5 42.5 -5.5 q29 0 56 7 q27 7 49.5 25 q22.5 18 39 49 q16.5 31 25.5 79 Z" /><glyph glyph-name="" unicode="z" d="M54 0 q-16 0 -22 7.5 q-6 7.5 -4 23.5 q2 8 5.5 15 q3.5 7 8.5 13 l372 416 q4 4 6 7.5 q2 3.5 2 6.5 q1 5 -3.5 8 q-4.5 3 -13.5 3 l-260 0 q-11 0 -16.5 7 q-5.5 7 -3.5 18 q2 11 9.5 18 q7.5 7 18.5 7 l317 0 q16 0 22 -7.5 q6 -7.5 4 -23.5 q-2 -8 -5.5 -15 q-3.5 -7 -9.5 -14 l-372 -416 q-4 -5 -6 -8 q-2 -3 -2 -6 q-2 -5 3 -7.5 q5 -2.5 14 -2.5 l283 0 q11 0 16.5 -7 q5.5 -7 3.5 -18 q-2 -11 -10 -18 q-8 -7 -19 -7 l-338 0 Z" /><glyph glyph-name="" unicode="{" d="M369 -145 l-59 5 q-35 3 -63.5 14 q-28.5 11 -46.5 30.5 q-18 19.5 -24.5 47 q-6.5 27.5 2.5 63.5 l50 202 q7 27 3 48.5 q-4 21.5 -16 37 q-12 15.5 -30 24 q-18 8.5 -41 8.5 l-40 0 q-13 0 -18 6 q-5 6 -3 19 q2 13 9.5 19 q7.5 6 20.5 6 l40 0 q23 0 44 8 q21 8 38.5 23 q17.5 15 29 36.5 q11.5 21.5 14.5 49.5 l17 183 q3 36 19 63.5 q16 27.5 41.5 47 q25.5 19.5 58 30.5 q32.5 11 68.5 14 l61 5 q13 1 18 -5.5 q5 -6.5 3 -19.5 q-2 -13 -9.5 -18.5 q-7.5 -5.5 -20.5 -6.5 l-61 -5 q-51 -5 -87.5 -32.5 q-36.5 -27.5 -40.5 -72.5 l-17 -183 q-3 -28 -14.5 -54.5 q-11.5 -26.5 -29 -46.5 q-17.5 -20 -39.5 -32 q-12 -6 -24 -9 q11 -3 21 -9 q18 -12 28.5 -32 q10.5 -20 12.5 -46.5 q2 -26.5 -6 -55.5 l-50 -202 q-6 -23 -1 -41.5 q5 -18.5 17.5 -32 q12.5 -13.5 32 -21.5 q19.5 -8 42.5 -10 l59 -5 q13 -1 18 -6.5 q5 -5.5 3 -18.5 q-2 -13 -9.5 -19.5 q-7.5 -6.5 -20.5 -5.5 Z" /><glyph glyph-name="" unicode="}" d="M19 -145 q-13 -1 -17.5 5.5 q-4.5 6.5 -2.5 19.5 q2 13 9 18.5 q7 5.5 20 6.5 l61 5 q24 2 46 10 q22 8 40 21.5 q18 13.5 29.5 32 q11.5 18.5 13.5 41.5 l20 202 q3 29 14.5 55.5 q11.5 26.5 29 46.5 q17.5 20 40.5 32 q11 6 23 9 q-11 3 -20 9 q-19 12 -29.5 32 q-10.5 20 -12 46.5 q-1.5 26.5 5.5 54.5 l47 183 q11 45 -15.5 72.5 q-26.5 27.5 -76.5 32.5 l-59 5 q-13 1 -17.5 6.5 q-4.5 5.5 -2.5 18.5 q2 13 9 19.5 q7 6.5 20 5.5 l59 -5 q36 -3 64.5 -14 q28.5 -11 47 -30.5 q18.5 -19.5 24.5 -47 q6 -27.5 -3 -63.5 l-47 -183 q-7 -28 -3.5 -49.5 q3.5 -21.5 15.5 -36.5 q12 -15 31 -23 q19 -8 41 -8 l40 0 q13 0 17.5 -6 q4.5 -6 2.5 -19 q-2 -13 -9 -19 q-7 -6 -20 -6 l-40 0 q-22 0 -43.5 -8.5 q-21.5 -8.5 -39 -24 q-17.5 -15.5 -29 -37 q-11.5 -21.5 -14.5 -48.5 l-20 -202 q-4 -36 -20 -63.5 q-16 -27.5 -41 -47 q-25 -19.5 -57.5 -30.5 q-32.5 -11 -69.5 -14 l-61 -5 Z" /><glyph glyph-name="" unicode="&#x3001;" d="M320 -30 q-5 -3 -10 -4.5 q-5 -1.5 -10.5 -1.5 q-5.5 0 -10 2 q-4.5 2 -6.5 6 q-35 51 -75 99.5 q-40 48.5 -79 86.5 q-4 3 -5 8 q-1 5 0 10.5 q1 5.5 3.5 10.5 q2.5 5 7.5 9 l4 2 q7 6 16.5 6 q9.5 0 16.5 -6 q39 -39 80.5 -88 q41.5 -49 80.5 -101 q2 -4 2.5 -9 q0.5 -5 -0.5 -10 q-1 -5 -4 -10 q-3 -5 -7 -8 l-4 -2 Z" /><glyph glyph-name="" unicode="&#x3002;" d="M257 244 q31 0 55.5 -11.5 q24.5 -11.5 41 -31.5 q16.5 -20 23 -46.5 q6.5 -26.5 1.5 -57.5 q-5 -31 -21.5 -57.5 q-16.5 -26.5 -39.5 -46.5 q-23 -20 -51.5 -31.5 q-28.5 -11.5 -59.5 -11.5 q-30 0 -54.5 11.5 q-24.5 11.5 -41.5 31.5 q-17 20 -23.5 46.5 q-6.5 26.5 -1.5 57.5 q5 31 21.5 57.5 q16.5 26.5 40 46.5 q23.5 20 52.5 31.5 q29 11.5 58 11.5 ZM212 -12 q23 0 44.5 9 q21.5 9 38.5 23.5 q17 14.5 29 34 q12 19.5 16 42.5 q4 22 -1 42 q-5 20 -17 34.5 q-12 14.5 -30 23.5 q-18 9 -41 9 q-22 0 -43.5 -9 q-21.5 -9 -39 -23.5 q-17.5 -14.5 -29.5 -34.5 q-12 -20 -16 -42 q-4 -23 1 -42.5 q5 -19.5 17.5 -34 q12.5 -14.5 30.5 -23.5 q18 -9 40 -9 Z" /><glyph glyph-name="" unicode="&#x300a;" d="M958 -43 q1 -5 0.5 -10.5 q-0.5 -5.5 -2.5 -10 q-2 -4.5 -4.5 -8 q-2.5 -3.5 -7.5 -4.5 q-7 -2 -14.5 2.5 q-7.5 4.5 -9.5 12.5 l-145 432 q-2 3 -1 9 q1 6 3 9 l299 432 q6 8 15 12.5 q9 4.5 14 2.5 q4 -1 5.5 -4.5 q1.5 -3.5 2 -8 q0.5 -4.5 -0.5 -10 q-1 -5.5 -5 -10.5 l-290 -418 q-2 -2 -3 -5 q-1 -3 1 -5 l143 -418 ZM809 -43 q2 -5 1 -10.5 q-1 -5.5 -2.5 -10 q-1.5 -4.5 -4.5 -8 q-3 -3.5 -7 -4.5 q-7 -2 -14.5 2.5 q-7.5 4.5 -10.5 12.5 l-145 432 q-2 3 -1 9 q1 6 4 9 l299 432 q5 8 14 12.5 q9 4.5 14 2.5 q4 -1 6 -4.5 q2 -3.5 2 -8 q0 -4.5 -1 -10 q-1 -5.5 -4 -10.5 l-291 -418 q-1 -2 -2 -5 q-1 -3 0 -5 l143 -418 Z" /><glyph glyph-name="" unicode="&#x300b;" d="M68 -76 q-4 1 -5.5 4.5 q-1.5 3.5 -1.5 8 q0 4.5 1 10 q1 5.5 4 10.5 l290 418 q2 2 3 5 q1 3 -1 5 l-143 418 l0 11 q0 5 2 9.5 q2 4.5 5 8 q3 3.5 7 4.5 q7 2 14.5 -2.5 q7.5 -4.5 9.5 -12.5 l146 -432 q1 -3 0 -9 q-1 -6 -3 -9 l-299 -432 q-5 -8 -14.5 -12.5 q-9.5 -4.5 -14.5 -2.5 ZM217 -76 q-4 1 -5.5 4.5 q-1.5 3.5 -2 8 q-0.5 4.5 1 10 q1.5 5.5 4.5 10.5 l290 418 q2 2 3 5 q1 3 -1 5 l-143 418 q-1 5 -0.5 10.5 q0.5 5.5 2 10 q1.5 4.5 4.5 8 q3 3.5 7 4.5 q7 2 14.5 -2.5 q7.5 -4.5 10.5 -12.5 l145 -432 q2 -3 1 -9 q-1 -6 -3 -9 l-300 -432 q-5 -8 -14 -12.5 q-9 -4.5 -14 -2.5 Z" /><glyph glyph-name="" unicode="&#x300c;" d="M820 816 q1 5 4 10 q3 5 7.5 8.5 q4.5 3.5 9.5 5.5 q5 2 11 2 l252 0 q5 0 10 -1.5 q5 -1.5 8 -5 q3 -3.5 4 -7.5 q1 -4 0 -8 q0 -4 -3 -8 q-3 -4 -7 -7 q-4 -3 -9 -5 q-5 -2 -11 -2 l-226 0 q-2 0 -4.5 -2 q-2.5 -2 -2.5 -4 l-102 -576 q-1 -5 -3.5 -9 q-2.5 -4 -7 -8 q-4.5 -4 -8.5 -6 q-4 -2 -8.5 -2 q-4.5 0 -8.5 2 q-4 2 -6.5 6 q-2.5 4 -4 8.5 q-1.5 4.5 0.5 9.5 l105 599 Z" /><glyph glyph-name="" unicode="&#x300d;" d="M354 -56 q-1 -5 -4 -10 q-3 -5 -7.5 -8.5 q-4.5 -3.5 -9.5 -5.5 q-5 -2 -11 -2 l-252 0 q-5 0 -10 2 q-5 2 -8 5 q-3 3 -4 7 q-1 4 0 8 q0 4 3 8 q3 4 7 7.5 q4 3.5 9 5 q5 1.5 11 1.5 l226 0 q2 0 4.5 2 q2.5 2 2.5 4 l102 576 q1 5 4 9 q3 4 7 8 q4 4 8 6 q4 2 8.5 2 q4.5 0 8.5 -2 q4 -2 7 -6 q3 -4 4 -8.5 q1 -4.5 -1 -9.5 l-105 -599 Z" /><glyph glyph-name="" unicode="&#x300e;" d="M906 700 q-3 0 -5 -2 q-2 -2 -3 -4 l-86 -488 q0 -6 -3.5 -11 q-3.5 -5 -7.5 -8.5 q-4 -3.5 -9.5 -5.5 q-5.5 -2 -10.5 -2 l-104 0 q-5 0 -9.5 2 q-4.5 2 -7.5 5.5 q-3 3.5 -4 8.5 q-1 5 -1 10 l108 611 q1 5 4 10 q3 5 7.5 8.5 q4.5 3.5 9.5 5.5 q5 2 10 2 l311 0 q4 0 9 -2 q5 -2 8 -5.5 q3 -3.5 4 -8.5 q1 -5 0 -10 l-16 -89 q-1 -6 -4 -10.5 q-3 -4.5 -7 -8.5 q-4 -4 -9.5 -6 q-5.5 -2 -10.5 -2 l-173 0 ZM795 816 q-2 0 -4 -2 q-2 -2 -3 -4 l-106 -599 q0 -2 1.5 -4 q1.5 -2 4.5 -2 l91 0 q3 0 5.5 2 q2.5 2 2.5 4 l86 488 q2 6 5 10.5 q3 4.5 7 8.5 q4 4 9 6 q5 2 10 2 l173 0 q3 0 5.5 2 q2.5 2 2.5 4 l14 78 q1 2 -1 4 q-2 2 -4 2 l-299 0 Z" /><glyph glyph-name="" unicode="&#x300f;" d="M268 60 q3 0 5 2 q2 2 3 4 l86 488 q0 6 3.5 11 q3.5 5 7.5 8.5 q4 3.5 9.5 5.5 q5.5 2 10.5 2 l104 0 q5 0 9.5 -2 q4.5 -2 7.5 -5.5 q3 -3.5 4 -8.5 q1 -5 1 -10 l-108 -611 q-1 -5 -4 -10 q-3 -5 -7.5 -8.5 q-4.5 -3.5 -9.5 -5.5 q-5 -2 -10 -2 l-311 0 q-4 0 -9 2 q-5 2 -8 5.5 q-3 3.5 -4 8.5 q-1 5 0 10 l16 89 q1 6 4 10.5 q3 4.5 7 8.5 q4 4 9.5 6 q5.5 2 10.5 2 l173 0 ZM379 -56 q2 0 4 2 q2 2 3 4 l106 599 q0 2 -1.5 4 q-1.5 2 -4.5 2 l-91 0 q-3 0 -5.5 -2 q-2.5 -2 -2.5 -4 l-86 -488 q-2 -6 -5 -10.5 q-3 -4.5 -7 -8.5 q-4 -4 -9 -6 q-5 -2 -10 -2 l-173 0 q-3 0 -5.5 -2 q-2.5 -2 -2.5 -4 l-14 -78 q-1 -2 1 -4 q2 -2 4 -2 l299 0 Z" /><glyph glyph-name="" unicode="&#x3010;" d="M1130 840 q0 -2 -2.5 -4 q-2.5 -2 -5.5 -5 q-45 -34 -88.5 -81 q-43.5 -47 -79.5 -104 q-36 -57 -63 -124 q-27 -67 -40 -142 q-13 -74 -9.5 -140.5 q3.5 -66.5 19 -124 q15.5 -57.5 42 -105 q26.5 -47.5 59.5 -81.5 l5 -5 q2 -2 1 -3 q0 -2 -8 -2.5 q-8 -0.5 -18 -0.5 l-241 0 q-4 0 -9 2 q-5 2 -8 5.5 q-3 3.5 -4 8.5 q-1 5 0 10 l154 872 q0 5 3.5 10 q3.5 5 8 8.5 q4.5 3.5 9.5 5.5 q5 2 9 2 l259 0 q7 -1 7 -2 Z" /><glyph glyph-name="" unicode="&#x3011;" d="M340 -56 q0 -5 -3.5 -10 q-3.5 -5 -8 -8.5 q-4.5 -3.5 -9.5 -5.5 q-5 -2 -9 -2 l-259 0 q-7 1 -7 3 q0 1 2.5 3 q2.5 2 5.5 5 q46 34 89 81 q43 47 79 104 q36 57 63 124 q27 67 40 142 q13 74 10 140.5 q-3 66.5 -19 124 q-16 57.5 -42 105 q-26 47.5 -60 81.5 l-5 5 q-2 2 -1 4 q0 1 8 1.5 q8 0.5 18 0.5 l241 0 q4 0 9 -2 q5 -2 8 -5.5 q3 -3.5 4 -8.5 q1 -5 0 -10 l-154 -872 Z" /><glyph glyph-name="" unicode="&#x4e00;" d="M137 392 q0 4 3.5 8.5 q3.5 4.5 7.5 8 q4 3.5 9.5 5.5 q5.5 2 9.5 2 l857 0 q5 0 9.5 -2 q4.5 -2 7.5 -5.5 q3 -3.5 4 -8 q1 -4.5 1 -8.5 l-1 -2 q-1 -5 -4 -10 q-3 -5 -7 -8 q-4 -3 -9 -5 q-5 -2 -10 -2 l-857 0 q-4 0 -9 2 q-5 2 -8 5 q-3 3 -4.5 8 q-1.5 5 0.5 10 l0 2 Z" /><glyph glyph-name="" unicode="&#x4e01;" d="M210 710 q1 5 3.5 9 q2.5 4 7 7 q4.5 3 9.5 5 q5 2 10 2 l817 0 q5 0 10 -2 q5 -2 7.5 -5 q2.5 -3 4.5 -7 q2 -4 1 -9 l0 -1 q-2 -5 -4 -9 q-2 -4 -6.5 -7.5 q-4.5 -3.5 -10 -5.5 q-5.5 -2 -10.5 -2 l-353 0 l-118 -666 q-6 -35 -21 -51.5 q-15 -16.5 -43 -22.5 q-25 -6 -75.5 -7 q-50.5 -1 -134.5 -1 q-7 -1 -13 4.5 q-6 5.5 -8 10.5 l0 2 q-3 13 5.5 23.5 q8.5 10.5 23.5 9.5 q65 -2 111 -1.5 q46 0.5 65 1.5 q19 1 28 7.5 q9 6.5 12 24.5 l118 666 l-414 0 q-6 0 -10 2 q-4 2 -7 5.5 q-3 3.5 -5 7.5 q-2 4 0 9 l0 1 Z" /><glyph glyph-name="" unicode="&#x4e03;" d="M149 403 q1 5 3 9 q2 4 5.5 8 q3.5 4 8.5 6.5 q5 2.5 11 3.5 l274 44 l57 320 q1 5 3.5 9.5 q2.5 4.5 7 8 q4.5 3.5 8.5 5.5 q4 2 9 2 l2 0 q4 0 8 -2 q4 -2 6.5 -5.5 q2.5 -3.5 3.5 -8 q1 -4.5 0 -9.5 l-55 -311 l532 86 q4 1 8.5 -0.5 q4.5 -1.5 8.5 -4 q4 -2.5 6.5 -5.5 q2.5 -3 2.5 -8 l0 -1 q-1 -5 -3 -9.5 q-2 -4.5 -5.5 -8.5 q-3.5 -4 -8.5 -6.5 q-5 -2.5 -11 -3.5 l-538 -87 l-62 -350 q-4 -21 -3 -36 q1 -15 9.5 -23.5 q8.5 -8.5 25.5 -12 q17 -3.5 45 -3.5 l292 0 q23 0 38.5 6 q15.5 6 27 21 q11.5 15 20.5 40 q9 25 19 63 q4 15 15.5 21.5 q11.5 6.5 22.5 1.5 q7 -3 10.5 -11 q3.5 -8 0.5 -16 q-12 -48 -24.5 -81 q-12.5 -33 -30 -53.5 q-17.5 -20.5 -43 -29 q-25.5 -8.5 -66.5 -8.5 l-288 0 q-40 0 -66 5.5 q-26 5.5 -40 19 q-14 13.5 -17 37.5 q-3 24 4 61 l60 340 l-268 -43 q-4 -1 -8.5 0.5 q-4.5 1.5 -8 4 q-3.5 2.5 -6.5 6 q-3 3.5 -3 7.5 l0 1 Z" /><glyph glyph-name="" unicode="&#x4e07;" d="M213 732 q2 4 4.5 8 q2.5 4 7 8 q4.5 4 9.5 5.5 q5 1.5 11 1.5 l817 0 q6 0 10.5 -1.5 q4.5 -1.5 7.5 -5.5 q3 -4 4.5 -8 q1.5 -4 0.5 -8 q0 -5 -3 -9 q-3 -4 -7.5 -7 q-4.5 -3 -9.5 -5 q-5 -2 -11 -2 l-508 0 q1 -3 1 -6 q1 -4 0 -9 q-21 -102 -50 -211 q-1 -3 -1 -6 q3 1 6 1 l415 0 q5 0 9 -2 l1 0 q2 -1 4 -3 q1 -1 3 -2 q2 -3 3 -6 q0 -1 1 -1 q1 -4 1 -9 q-1 -1 -1 -3 l0 -2 q-30 -124 -52.5 -211 q-22.5 -87 -41 -144 q-18.5 -57 -35 -89 q-16.5 -32 -33.5 -47 q-17 -16 -35 -21 q-18 -5 -44 -7 q-24 -1 -65.5 0 q-41.5 1 -88.5 4 q-9 0 -15.5 5 q-6.5 5 -6.5 13 q-1 12 8.5 20 q9.5 8 25.5 6 q24 -2 43.5 -3 q19.5 -1 37 -1.5 q17.5 -0.5 31.5 -0.5 l23 0 q18 0 29 2 q11 2 20 10 q15 12 30.5 42.5 q15.5 30.5 33.5 87.5 q18 57 41 143 q18 74 41 173 l-391 0 q-4 0 -8 2 q-1 1 -2 1 q-27 -84 -65 -164 q-49 -102 -124.5 -189.5 q-75.5 -87.5 -188.5 -146.5 q-4 -3 -9 -4 q-5 -1 -9.5 -0.5 q-4.5 0.5 -7.5 2 q-3 1.5 -5 4.5 q-7 8 -3 18.5 q4 10.5 17 18.5 q107 58 177.5 142 q70.5 84 116 181 q45.5 97 72 200 q26.5 103 45.5 198 q1 4 4 9 q1 2 3 5 l-270 0 q-6 0 -10.5 2 q-4.5 2 -7.5 5 q-3 3 -4.5 7 q-1.5 4 -1.5 9 Z" /><glyph glyph-name="" unicode="&#x4e09;" d="M92 31 q1 4 4 8 q3 4 7 7.5 q4 3.5 9.5 5 q5.5 1.5 10.5 1.5 l813 0 q6 0 10 -1.5 q4 -1.5 7.5 -5 q3.5 -3.5 5 -7.5 q1.5 -4 -0.5 -8 l0 -1 q0 -4 -3 -8.5 q-3 -4.5 -7.5 -8 q-4.5 -3.5 -9 -5 q-4.5 -1.5 -10.5 -1.5 l-813 0 q-5 0 -10 1.5 q-5 1.5 -8 5 q-3 3.5 -4 8 q-1 4.5 -1 8.5 l0 1 ZM272 714 q0 4 3 8 q3 4 7.5 7.5 q4.5 3.5 9.5 5 q5 1.5 9 1.5 l701 0 q4 0 9 -1.5 q5 -1.5 8 -5 q3 -3.5 4 -7.5 q1 -4 1 -8 l0 -1 q-1 -5 -4 -9 q-3 -4 -7.5 -7.5 q-4.5 -3.5 -9.5 -5 q-5 -1.5 -9 -1.5 l-701 0 q-4 0 -9 1.5 q-5 1.5 -8 5 q-3 3.5 -4.5 7.5 q-1.5 4 0.5 9 l0 1 ZM274 384 q1 4 3.5 8 q2.5 4 7 7.5 q4.5 3.5 10 5 q5.5 1.5 9.5 1.5 l562 0 q5 0 9.5 -1.5 q4.5 -1.5 7 -5 q2.5 -3.5 4.5 -7.5 q2 -4 1 -8 l0 -1 q-1 -5 -3.5 -9 q-2.5 -4 -7 -7.5 q-4.5 -3.5 -10 -5 q-5.5 -1.5 -10.5 -1.5 l-562 0 q-4 0 -8.5 1.5 q-4.5 1.5 -7.5 5 q-3 3.5 -4 7.5 q-1 4 -1 9 l0 1 Z" /><glyph glyph-name="" unicode="&#x4e0a;" d="M75 -3 q1 4 4 8 q3 4 7.5 7.5 q4.5 3.5 9 5 q4.5 1.5 9.5 1.5 l361 0 l0 3 l135 770 l5 9 q2 5 6 8.5 q4 3.5 8.5 6 q4.5 2.5 8.5 2.5 l2 0 q5 0 9 -2.5 q4 -2.5 6.5 -6 q2.5 -3.5 3.5 -8.5 q1 -5 -1 -9 l-52 -297 l362 0 q5 0 9.5 -1.5 q4.5 -1.5 7.5 -4.5 q3 -3 4 -7 q1 -4 1 -9 l0 -1 q-1 -4 -4 -8 q-3 -4 -7.5 -7.5 q-4.5 -3.5 -9 -5.5 q-4.5 -2 -9.5 -2 l-357 0 q-3 0 -5 1 l-75 -428 q0 -1 -1 -3 l430 0 q5 0 9 -1.5 q4 -1.5 7 -5 q3 -3.5 4.5 -7.5 q1.5 -4 0.5 -8 l0 -1 q0 -4 -3 -8 q-3 -4 -7.5 -8 q-4.5 -4 -9 -5.5 q-4.5 -1.5 -9.5 -1.5 l-838 0 q-5 0 -9.5 1.5 q-4.5 1.5 -7 5.5 q-2.5 4 -4 8 q-1.5 4 -1.5 8 l0 1 Z" /><glyph glyph-name="" unicode="&#x4e0b;" d="M208 737 q0 4 3 8 q3 4 7.5 7.5 q4.5 3.5 9 5.5 q4.5 2 8.5 2 l836 0 q5 0 9 -2 q4 -2 7 -5.5 q3 -3.5 4.5 -7.5 q1.5 -4 0.5 -8 l0 -1 q-1 -5 -4 -9 q-3 -4 -7 -7 q-4 -3 -8.5 -5 q-4.5 -2 -9.5 -2 l-414 0 q0 -4 -1 -8 l-33 -185 q5 3 13 5 q9 1 15 -2 q39 -21 80.5 -45 q41.5 -24 80.5 -49.5 q39 -25.5 74 -50 q35 -24.5 61 -45.5 q4 -2 5.5 -6.5 q1.5 -4.5 2 -9 q0.5 -4.5 -1 -9 q-1.5 -4.5 -5.5 -7.5 l-2 -3 q-4 -5 -9 -7 q-5 -2 -10 -2 q-5 0 -10 0.5 q-5 0.5 -8 3.5 q-26 21 -59.5 45.5 q-33.5 24.5 -70.5 49.5 q-37 25 -76.5 49 q-39.5 24 -76.5 45 q-5 3 -8 8 l-94 -537 q-1 -5 -3.5 -10 q-2.5 -5 -6.5 -8.5 q-4 -3.5 -8.5 -5.5 q-4.5 -2 -8.5 -2 l-2 0 q-5 0 -8.5 2 q-3.5 2 -6.5 5.5 q-3 3.5 -4 8.5 q-1 5 0 10 l132 752 q1 4 3 8 l-376 0 q-4 0 -8 2 q-4 2 -7.5 5 q-3.5 3 -4.5 7 q-1 4 0 9 l0 1 Z" /><glyph glyph-name="" unicode="&#x4e0d;" d="M223 738 q0 5 3 9 q3 4 7 7.5 q4 3.5 9.5 5.5 q5.5 2 9.5 2 l803 0 q5 0 9.5 -2 q4.5 -2 7.5 -5.5 q3 -3.5 4.5 -7.5 q1.5 -4 1.5 -9 l-1 0 q-1 -5 -4 -9 q-3 -4 -7 -7 q-4 -3 -9 -5.5 q-5 -2.5 -10 -2.5 l-302 0 l0 -1 q-1 -5 -4 -10 q-45 -57 -96 -113 q1 -5 0 -12 l-110 -624 q-1 -5 -3.5 -10 q-2.5 -5 -7 -8.5 q-4.5 -3.5 -8.5 -6 q-4 -2.5 -9 -2.5 l-2 0 q-5 0 -9 2.5 q-4 2.5 -6.5 6 q-2.5 3.5 -4 8.5 q-1.5 5 0.5 9 l102 578 q-50 -50 -106 -96 q-73 -62 -154.5 -116 q-81.5 -54 -165.5 -98 q-5 -2 -9.5 -3 q-4.5 -1 -9 0 q-4.5 1 -7.5 3 q-3 2 -5 5 l0 1 q-4 4 -4 9.5 q0 5.5 2.5 10 q2.5 4.5 7.5 10 q5 5.5 11 8.5 q82 41 160 93.5 q78 52.5 148.5 111.5 q70.5 59 132.5 124 q56 59 102 120 l-447 0 q-5 0 -9 2.5 q-4 2.5 -7.5 5.5 q-3.5 3 -5 7 q-1.5 4 0.5 9 ZM698 479 q-5 3 -7 8.5 q-2 5.5 -2 10 q0 4.5 2 9.5 q2 5 7 8 q6 5 14 5 q8 0 15 -4 q38 -25 76.5 -55 q38.5 -30 75 -60.5 q36.5 -30.5 68.5 -60.5 q32 -30 56 -56 q2 -3 3.5 -7.5 q1.5 -4.5 1 -9.5 q-0.5 -5 -2.5 -9.5 q-2 -4.5 -6 -7.5 l-3 -2 q-3 -4 -8.5 -5 q-5.5 -1 -10.5 -1 q-5 0 -9.5 2 q-4.5 2 -7.5 6 q-23 25 -52.5 54.5 q-29.5 29.5 -64.5 59.5 q-35 30 -72 59.5 q-37 29.5 -73 55.5 Z" /><glyph glyph-name="" unicode="&#x4e0e;" d="M423 785 q1 4 4.5 8 q3.5 4 7.5 7 q4 3 8.5 4.5 q4.5 1.5 7.5 1.5 l1 0 q5 0 8.5 -3 q3.5 -3 5 -7 q1.5 -4 2 -9.5 q0.5 -5.5 -1.5 -9.5 q-16 -44 -35 -92 l552 0 q5 0 9.5 -1.5 q4.5 -1.5 7.5 -5 q3 -3.5 4.5 -7.5 q1.5 -4 1.5 -8 q-1 -5 -4 -8.5 q-3 -3.5 -7.5 -7.5 q-4.5 -4 -9.5 -5.5 q-5 -1.5 -9 -1.5 l-557 0 q-3 0 -6 1 q-11 -30 -23 -59 q-20 -49 -40 -95 q-12 -29 -23 -55 l620 0 q4 0 9 -1.5 q5 -1.5 8 -5 q3 -3.5 4 -7.5 q1 -4 1 -8 q-1 -5 -4 -8 q0 -1 -1 -1 q-29 -105 -54 -180 q-25 -77 -46 -128.5 q-21 -51.5 -40 -82 q-19 -30.5 -39 -46.5 q-19 -15 -37.5 -20 q-18.5 -5 -47.5 -7 q-22 0 -63 1 q-41 1 -87 5 q-9 0 -15.5 5.5 q-6.5 5.5 -6.5 11.5 q-2 12 8 20 q10 8 26 7 q22 -2 42.5 -2.5 q20.5 -0.5 37.5 -1.5 q17 -1 32 -1 l23 0 q20 0 31.5 1.5 q11.5 1.5 20.5 9.5 q18 13 36.5 42 q18.5 29 39 79.5 q20.5 50.5 44.5 124.5 q19 64 43 148 l-592 0 q-4 0 -8 2 q-4 2 -7 5 l-1 -1 q-8 -6 -15 -6 l-1 0 q-6 0 -10 3 q-4 3 -6.5 7.5 q-2.5 4.5 -2 10.5 q0.5 6 3.5 12 q17 38 36.5 83.5 q19.5 45.5 39 93.5 q19.5 48 38.5 96.5 q19 48.5 36 91.5 ZM118 201 q1 4 4 8 q3 4 7.5 7.5 q4.5 3.5 9 5.5 q4.5 2 8.5 2 l573 0 q4 0 8.5 -2 q4.5 -2 7.5 -5.5 q3 -3.5 4.5 -7.5 q1.5 -4 0.5 -8 q-1 -5 -4 -9 q-3 -4 -7 -7 q-4 -3 -8.5 -5 q-4.5 -2 -9.5 -2 l-572 0 q-5 0 -9.5 2 q-4.5 2 -7.5 5 q-3 3 -4 7 q-1 4 -1 9 Z" /><glyph glyph-name="" unicode="&#x4e13;" d="M169 502 q1 4 4 8 q3 4 7 7.5 q4 3.5 9 5.5 q5 2 10 2 l256 0 q11 21 23 43 q25 49 50 97 l-225 0 q-5 0 -9.5 1.5 q-4.5 1.5 -7.5 5.5 q-3 4 -4.5 7.5 q-1.5 3.5 -0.5 8.5 q0 4 3 8 q3 4 7.5 7.5 q4.5 3.5 9.5 5 q5 1.5 9 1.5 l240 0 q27 53 50 101 q3 4 6.5 8 q3.5 4 7.5 7 q4 3 8.5 4 q4.5 1 8.5 0 l1 0 q3 -1 6.5 -4 q3.5 -3 5.5 -7.5 q2 -4.5 1 -9.5 q-1 -5 -3 -10 q-21 -42 -45 -89 l370 0 q5 0 9.5 -1.5 q4.5 -1.5 7.5 -5 q3 -3.5 4.5 -7.5 q1.5 -4 1.5 -8 q-1 -5 -4 -8.5 q-3 -3.5 -7.5 -7.5 q-4.5 -4 -9.5 -5.5 q-5 -1.5 -10 -1.5 l-385 0 q-30 -59 -60 -117 q-6 -12 -12 -23 l505 0 q4 0 9 -2 q5 -2 8 -5.5 q3 -3.5 4.5 -7.5 q1.5 -4 0.5 -8 q-1 -5 -4 -9 q-3 -4 -7.5 -7 q-4.5 -3 -9 -5 q-4.5 -2 -9.5 -2 l-521 0 q-15 -27 -29 -54 q-22 -41 -42 -76 l438 0 q5 0 9 -1 l4 -2 q0 2 2 2 q3 1 5 1 q2 0 3.5 0.5 q1.5 0.5 3.5 0.5 q3 2 7 0.5 q4 -1.5 7 -3.5 l2 -1 q4 -3 5.5 -7.5 q1.5 -4.5 1 -10 q-0.5 -5.5 -3 -10.5 q-2.5 -5 -8.5 -9 q-31 -27 -69.5 -59.5 q-38.5 -32.5 -79 -66 q-40.5 -33.5 -82.5 -67.5 q-38 -32 -72 -60 q31 -15 61 -30 q43 -23 76 -44 q4 -3 7 -7 q3 -4 3 -9.5 q0 -5.5 -1.5 -10.5 q-1.5 -5 -5.5 -8 l-1 -1 q-6 -7 -17 -9 q-11 -2 -17 3 q-30 20 -70.5 42 q-40.5 22 -86 44 q-45.5 22 -94.5 43 q-49 21 -96 38 q-6 3 -10 6.5 q-4 3.5 -5 8 q-1 4.5 0 9.5 q1 5 7 10 q3 4 10.5 6 q7.5 2 13.5 0 q47 -16 97 -36 q45 -18 88 -37 l1 1 q3 6 9 10 q39 32 82 67 q43 35 83 68.5 q40 33.5 76 63.5 q13 11 24 21 l-419 0 q-4 0 -9 2 q-3 1 -6 3 l-1 0 q-7 -5 -12 -5 l-2 0 q-6 0 -10 3 q-4 3 -6 7.5 q-2 4.5 -1.5 10.5 q0.5 6 4.5 12 q28 49 60 108 q9 16 18 33 l-239 0 q-5 0 -9.5 2 q-4.5 2 -7.5 5 q-3 3 -4.5 7 q-1.5 4 -0.5 9 Z" /><glyph glyph-name="" unicode="&#x4e14;" d="M76 -5 q1 4 4 8 q3 4 7 7.5 q4 3.5 9 5 q5 1.5 9 1.5 l138 0 l0 3 l128 727 q1 5 4 10 q3 5 7.5 8.5 q4.5 3.5 9 5.5 q4.5 2 9.5 2 l518 0 q5 0 9 -2 q4 -2 7 -5.5 q3 -3.5 4.5 -8.5 q1.5 -5 0.5 -10 l-129 -727 l0 -3 l131 0 q5 0 9 -1.5 q4 -1.5 7 -5 q3 -3.5 4.5 -7.5 q1.5 -4 0.5 -8 q-1 -5 -3.5 -9 q-2.5 -4 -7 -7.5 q-4.5 -3.5 -9 -5.5 q-4.5 -2 -9.5 -2 l-837 0 q-4 0 -8.5 2 q-4.5 2 -7.5 5.5 q-3 3.5 -4 7.5 q-1 4 -1 9 ZM808 268 l38 212 q-4 -1 -8 -1 l-462 0 q-3 0 -6 1 l-37 -212 q2 1 5 1 l463 0 q3 0 7 -1 ZM764 17 l0 3 l37 204 q-5 -1 -8 -1 l-463 0 q-3 0 -5 1 l-36 -204 q0 -2 -1 -3 l476 0 ZM853 523 l35 198 q0 2 -1.5 4 q-1.5 2 -3.5 2 l-464 0 q-2 0 -4 -2 q-2 -2 -2 -4 l-35 -198 q3 1 5 1 l463 0 q4 0 7 -1 Z" /><glyph glyph-name="" unicode="&#x4e16;" d="M173 555 q1 4 3.5 8 q2.5 4 7 8 q4.5 4 9.5 5.5 q5 1.5 10 1.5 l127 0 l36 204 q0 5 3.5 10 q3.5 5 7.5 8.5 q4 3.5 8.5 6 q4.5 2.5 8.5 2.5 l1 0 q5 0 9 -2.5 q4 -2.5 7 -6 q3 -3.5 3.5 -8.5 q0.5 -5 0.5 -9 l-36 -205 l211 0 l40 228 q2 5 4.5 9.5 q2.5 4.5 6.5 8 q4 3.5 8.5 5.5 q4.5 2 9 2 q4.5 0 8.5 -2 q4 -2 6.5 -5.5 q2.5 -3.5 3.5 -8.5 q1 -5 -1 -10 l-40 -227 l225 0 l38 216 q1 4 4 9 q3 5 7 8.5 q4 3.5 8.5 6 q4.5 2.5 8.5 2.5 l1 0 q5 0 9 -2.5 q4 -2.5 6.5 -6 q2.5 -3.5 3 -8.5 q0.5 -5 0.5 -9 l-39 -216 l136 0 q5 0 8.5 -1.5 q3.5 -1.5 6.5 -5.5 q3 -4 5 -8 q2 -4 1 -8 q0 -4 -3 -8 q-3 -4 -7.5 -7.5 q-4.5 -3.5 -9.5 -5.5 q-5 -2 -10 -2 l-135 0 l-53 -302 q-1 -5 -4 -10 q-3 -5 -7 -8.5 q-4 -3.5 -9.5 -5.5 q-5.5 -2 -11.5 -2 l-264 0 q-5 0 -9.5 2 q-4.5 2 -7.5 5.5 q-3 3.5 -4.5 8 q-1.5 4.5 -1.5 9.5 l54 303 l-211 0 l-85 -482 q-1 -2 0.5 -4 q1.5 -2 3.5 -2 l629 0 q4 0 9 -2 q5 -2 8 -5 q3 -3 4.5 -7 q1.5 -4 0.5 -9 q-1 -4 -4 -8 q-3 -4 -7.5 -7.5 q-4.5 -3.5 -9.5 -5.5 q-5 -2 -9 -2 l-658 0 q-4 0 -8.5 2.5 q-4.5 2.5 -8 6 q-3.5 3.5 -4.5 8.5 q-1 5 0 10 l89 507 l-127 0 q-5 0 -8.5 2 q-3.5 2 -6.5 5.5 q-3 3.5 -4.5 7.5 q-1.5 4 -1.5 8 ZM628 532 l-48 -277 q-1 -3 0.5 -5 q1.5 -2 3.5 -2 l213 0 q2 0 4.5 2 q2.5 2 3.5 5 l48 277 l-225 0 Z" /><glyph glyph-name="" unicode="&#x4e1a;" d="M86 4 q1 5 4 9 q3 4 7 7.5 q4 3.5 9.5 5 q5.5 1.5 10.5 1.5 l267 0 l0 4 l135 765 q1 5 3.5 10 q2.5 5 7 8.5 q4.5 3.5 8.5 5.5 q4 2 9 2 l1 0 q4 0 8 -2 q4 -2 6.5 -5.5 q2.5 -3.5 3.5 -8.5 q1 -5 0 -10 l-135 -765 q0 -2 -1 -4 l191 0 l136 768 q1 4 3.5 9 q2.5 5 7 8.5 q4.5 3.5 9 6 q4.5 2.5 8.5 2.5 l1 0 q4 0 8 -2.5 q4 -2.5 6.5 -6 q2.5 -3.5 3 -8.5 q0.5 -5 0.5 -9 l-136 -768 l268 0 q5 0 9 -1.5 q4 -1.5 7.5 -5 q3.5 -3.5 5 -7.5 q1.5 -4 0.5 -9 q-1 -5 -3.5 -9 q-2.5 -4 -7 -7 q-4.5 -3 -9.5 -5 q-5 -2 -10 -2 l-819 0 q-5 0 -10 2 q-5 2 -7.5 5 q-2.5 3 -4 7 q-1.5 4 -1.5 9 ZM224 552 q-2 5 -1 10.5 q1 5.5 3.5 10.5 q2.5 5 7 9 q4.5 4 8.5 5 q8 2 15.5 -2 q7.5 -4 10.5 -12 q12 -35 24 -74 q12 -39 23 -77 q11 -38 20 -73.5 q9 -35.5 15 -64.5 q0 -4 -1 -9 q-1 -5 -3.5 -9 q-2.5 -4 -6.5 -7.5 q-4 -3.5 -7 -5.5 l-1 0 q-5 -2 -10.5 -1 q-5.5 1 -10 3 q-4.5 2 -7.5 6 q-3 4 -3 9 q-4 29 -13 63.5 q-9 34.5 -18.5 71.5 q-9.5 37 -21.5 75 q-12 38 -23 72 ZM975 562 q3 5 8 9.5 q5 4.5 10 6.5 q5 2 9.5 2 q4.5 0 8.5 -2 q4 -1 6 -4.5 q2 -3.5 3 -8.5 q1 -5 -0.5 -10 q-1.5 -5 -4.5 -9 q-24 -35 -49 -73.5 q-25 -38.5 -52.5 -76.5 q-27.5 -38 -54 -73.5 q-26.5 -35.5 -52.5 -67.5 q-2 -4 -7 -7 q-5 -3 -9.5 -4.5 q-4.5 -1.5 -8.5 -2 q-4 -0.5 -7 1.5 q-4 3 -6 6.5 q-2 3.5 -2 8.5 q0 5 2 10 q2 5 5 10 q25 30 51.5 65.5 q26.5 35.5 53 73 q26.5 37.5 51 75 q24.5 37.5 45.5 70.5 Z" /><glyph glyph-name="" unicode="&#x4e1c;" d="M308 349 q-8 -1 -15.5 0.5 q-7.5 1.5 -12.5 3.5 q-2 1 -3 1 q-2 1 -3 1 q-6 1 -9 3.5 q-3 2.5 -4 7.5 q-1 4 1 9.5 q2 5.5 5 11 q3 5.5 8 11 q5 5.5 9 9.5 q6 5 11 10 l10 10 q6 6 14 16 q8 10 22 27 q13 16 40 50 q27 34 60 80 q19 25 38 53 l-236 0 q-5 0 -9.5 2 q-4.5 2 -7.5 5.5 q-3 3.5 -4.5 7.5 q-1.5 4 -0.5 8 q0 5 3 9 q3 4 7.5 7 q4.5 3 9.5 4.5 q5 1.5 9 1.5 l261 0 q0 1 1 2 q36 54 69 110 q3 5 8 9 q5 4 10 6 q5 2 10 2 q5 0 9 -2 l3 -2 q4 -1 5.5 -5 q1.5 -4 2.5 -8.5 q1 -4.5 0 -9 q-1 -4.5 -5 -9.5 q-28 -46 -59 -93 l459 0 q5 0 9.5 -1.5 q4.5 -1.5 7.5 -4.5 q3 -3 4.5 -7 q1.5 -4 0.5 -9 q-1 -4 -4 -8 q-3 -4 -7 -7.5 q-4 -3.5 -9 -5.5 q-5 -2 -10 -2 l-482 0 q-29 -42 -59 -83 q-40 -54 -80 -103 q-30 -36 -59 -69 l273 0 l24 134 q0 4 3.5 9 q3.5 5 7.5 8.5 q4 3.5 8 6 q4 2.5 9 2.5 q5 0 8.5 -2.5 q3.5 -2.5 6.5 -6 q3 -3.5 4 -8.5 q1 -5 0 -9 l-24 -134 l276 0 q4 0 8.5 -1.5 q4.5 -1.5 8 -5 q3.5 -3.5 4.5 -7.5 q1 -4 0 -8 q0 -5 -3 -9 q-3 -4 -7 -7.5 q-4 -3.5 -9.5 -5 q-5.5 -1.5 -10.5 -1.5 l-275 0 l-62 -350 q-3 -26 -13 -39 q-10 -13 -31 -20 q-18 -6 -48.5 -7.5 q-30.5 -1.5 -76.5 -1.5 q-7 0 -14 5 q-7 5 -8 12 q-2 12 7 22 q9 10 23 11 q34 -1 57 -1 q23 0 36 1 q11 0 15 3.5 q4 3.5 6 14.5 l62 350 l-232 0 q-22 0 -37 -1 q-15 -1 -24 -3 ZM326 241 q5 8 14.5 12.5 q9.5 4.5 17.5 3.5 l0 -1 q4 -1 7.5 -4.5 q3.5 -3.5 4 -8.5 q0.5 -5 -0.5 -10.5 q-1 -5.5 -5 -10.5 q-45 -66 -100 -126 q-55 -60 -111 -105 q-4 -3 -8 -4.5 q-4 -1.5 -8.5 -2.5 q-4.5 -1 -8 0 q-3.5 1 -6.5 4 q-8 7 -5.5 19.5 q2.5 12.5 13.5 22.5 q54 42 104.5 97 q50.5 55 91.5 114 ZM748 219 q-2 5 -3 10 q-1 5 -0.5 10 q0.5 5 3.5 9.5 q3 4.5 8 6.5 q6 3 14 1.5 q8 -1.5 12 -6.5 q23 -25 45.5 -54 q22.5 -29 43.5 -57.5 q21 -28.5 38 -56 q17 -27.5 30 -51.5 q2 -4 1.5 -8.5 q-0.5 -4.5 -1.5 -9.5 q-1 -5 -4 -8.5 q-3 -3.5 -8 -6.5 q-4 -3 -9 -3.5 q-5 -0.5 -9.5 1.5 q-4.5 2 -8.5 4.5 q-4 2.5 -7 7.5 q-11 23 -27 49.5 q-16 26.5 -35.5 54.5 q-19.5 28 -40 55.5 q-20.5 27.5 -42.5 51.5 Z" /><glyph glyph-name="" unicode="&#x4e1d;" d="M645 425 q-7 -1 -13 0.5 q-6 1.5 -11 4.5 q-3 1 -5 3 q-9 1 -11 10 q-1 4 0.5 9 q1.5 5 5.5 10.5 q4 5.5 8.5 10.5 q4.5 5 9.5 10 q4 4 7.5 6.5 q3.5 2.5 8 7 q4.5 4.5 11 12 q6.5 7.5 17.5 21.5 q11 12 33.5 39.5 q22.5 27.5 51 65 q28.5 37.5 60 81.5 q31.5 44 59.5 88 q3 5 7.5 9 q4.5 4 9.5 6.5 q5 2.5 10 2.5 q5 0 8 -1 q5 -2 7 -6 q2 -4 2.5 -8.5 q0.5 -4.5 0 -9.5 q-0.5 -5 -4.5 -10 q-63 -94 -130 -181 q-57 -74 -114 -133 l170 9 q7 0 12 -2 q5 -2 8 -6 l22 24 q48 53 92 107 q4 5 8 8 q4 3 9.5 4.5 q5.5 1.5 10 1.5 q4.5 0 6.5 -3 q5 -2 7 -6 q2 -4 2 -9 q0 -5 -1.5 -10.5 q-1.5 -5.5 -5.5 -10.5 q-96 -112 -197 -214 q-86 -85 -169 -153 l282 14 q6 0 11 -1.5 q5 -1.5 8.5 -5 q3.5 -3.5 5 -8 q1.5 -4.5 0.5 -8.5 q-1 -8 -10 -13.5 q-9 -5.5 -18 -6.5 q-77 -4 -131.5 -7 q-54.5 -3 -91.5 -5.5 q-37 -2.5 -60 -4.5 q-23 -2 -37 -4 q-6 0 -12 1 q-6 1 -11 4 q-1 0 -2 1 q-1 0 -3 1 q-10 1 -11 10 q0 4 1.5 9 q1.5 5 5 10.5 q3.5 5.5 9 10.5 q5.5 5 9.5 8 q8 5 13.5 9 q5.5 4 13 10 q7.5 6 18 15.5 q10.5 9.5 26.5 24.5 q18 15 52.5 47 q34.5 32 78.5 77 q18 19 37 39 q-81 -6 -123 -9 q-43 -4 -63 -6 ZM239 419 q-6 -1 -12.5 0 q-6.5 1 -11.5 4 q-3 1 -4 3 l-1 0 q-10 1 -11 11 q-1 4 0.5 9 q1.5 5 5 10 q3.5 5 8.5 10 q5 5 9 10 q5 4 8 6.5 q3 2.5 7 7.5 q4 5 11 12.5 q7 7.5 19 21.5 q10 12 33 40 q23 28 51 65.5 q28 37.5 58.5 82 q30.5 44.5 59.5 89.5 q2 5 6 9 q4 4 9 6.5 q5 2.5 10.5 2.5 q5.5 0 9.5 -1 q4 -2 6 -6 q2 -4 2.5 -8.5 q0.5 -4.5 0 -9.5 q-0.5 -5 -3.5 -9 q-63 -95 -130 -184 q-57 -76 -112 -135 l170 9 q7 0 13 -2 q13 14 25 28 q47 55 90 110 q4 4 8.5 7 q4.5 3 9 4.5 q4.5 1.5 9.5 1.5 q5 0 8 -2 q4 -2 6 -6 q2 -4 2 -9.5 q0 -5.5 -1.5 -10.5 q-1.5 -5 -4.5 -9 q-96 -115 -195 -219 q-84 -89 -166 -160 l255 16 q6 0 10.5 -1.5 q4.5 -1.5 8.5 -5 q4 -3.5 5.5 -7 q1.5 -3.5 -0.5 -7.5 q-2 -8 -11 -15 q-9 -7 -20 -7 q-68 -4 -116 -8 q-48 -4 -82.5 -7 q-34.5 -3 -55 -4.5 q-20.5 -1.5 -32.5 -3.5 q-8 -1 -14 0.5 q-6 1.5 -11 3.5 l-3 3 l-1 0 q-10 2 -11 11 q-1 4 0.5 9 q1.5 5 6 10 q4.5 5 9 9.5 q4.5 4.5 10.5 9.5 l12 8 q6 4 12.5 10.5 q6.5 6.5 17 16 q10.5 9.5 26.5 25.5 q17 15 51 48.5 q34 33.5 77 78.5 q14 15 28 31 q-72 -4 -111 -8 q-43 -3 -63 -5 ZM78 13 q1 5 4 8.5 q3 3.5 7 7 q4 3.5 9 5.5 q5 2 9 2 l834 0 q5 0 9 -2 q4 -2 7 -5.5 q3 -3.5 4.5 -7 q1.5 -3.5 0.5 -8.5 q-1 -4 -3.5 -8 q-2.5 -4 -7 -7 q-4.5 -3 -9 -5 q-4.5 -2 -9.5 -2 l-834 0 q-4 0 -8.5 2 q-4.5 2 -7.5 5 q-3 3 -4.5 7 q-1.5 4 -0.5 8 Z" /><glyph glyph-name="" unicode="&#x4e22;" d="M266 558 q1 5 4 9 q3 4 7 7 q4 3 9.5 4.5 q5.5 1.5 9.5 1.5 l302 0 l26 142 q0 4 1 7 q-71 -6 -144 -11 q-90 -5 -173 -8 q-11 -1 -17.5 4.5 q-6.5 5.5 -7.5 12.5 q-2 10 8 19 q10 9 23 9 q87 4 178 9.5 q91 5.5 178.5 14.5 q87.5 9 165.5 19.5 q78 10.5 136 23.5 q7 2 13.5 -0.5 q6.5 -2.5 8.5 -7.5 l2 -2 q4 -5 4 -10.5 q0 -5.5 -2.5 -11 q-2.5 -5.5 -7 -9.5 q-4.5 -4 -12.5 -5 q-65 -14 -147 -25 q-77 -10 -161 -18 l0 -1 q1 -5 0 -10 l-25 -142 l304 0 q5 0 9.5 -1.5 q4.5 -1.5 7.5 -4.5 q3 -3 4.5 -7 q1.5 -4 0.5 -9 q0 -4 -3 -8 q-3 -4 -7.5 -7.5 q-4.5 -3.5 -10 -5.5 q-5.5 -2 -9.5 -2 l-304 0 l-29 -161 l0 -1 l391 0 q5 0 9 -2 q4 -2 7 -5.5 q3 -3.5 4.5 -7.5 q1.5 -4 0.5 -8 q0 -5 -3 -8.5 q-3 -3.5 -7.5 -7 q-4.5 -3.5 -9.5 -5.5 q-5 -2 -9 -2 l-466 0 q3 -2 6 -5 q2 -5 2.5 -10.5 q0.5 -5.5 -2.5 -10.5 q-3 -5 -7 -10 q-75 -82 -150 -157 q-57 -56 -113 -102 l550 38 q-2 4 -4 9 q-18 33 -38.5 66.5 q-20.5 33.5 -42.5 63.5 q-3 4 -4 10 q-1 6 1 11.5 q2 5.5 6.5 10 q4.5 4.5 9.5 7.5 l1 0 q5 3 13 1 q8 -2 11 -8 q23 -30 45.5 -64.5 q22.5 -34.5 42.5 -69 q20 -34.5 36.5 -68 q16.5 -33.5 27.5 -62.5 q2 -4 1 -9.5 q-1 -5.5 -3.5 -10 q-2.5 -4.5 -6.5 -9 q-4 -4.5 -8 -5.5 l-2 -1 q-4 -2 -9 -2 q-5 0 -10 2 q-5 2 -8 5 q-3 3 -6 7 q-9 28 -24 60 q-5 10 -11 21 q-4 -3 -8 -5 q-6 -3 -12 -3 q-161 -12 -267.5 -19.5 q-106.5 -7.5 -175 -13 q-68.5 -5.5 -104 -9 q-35.5 -3.5 -55.5 -6.5 q-6 -1 -12 0 q-6 1 -11 4 q-2 1 -4 3 q-5 1 -8 4 q-3 3 -4 8 q-1 4 1.5 9 q2.5 5 6 10 q3.5 5 9 9.5 q5.5 4.5 12.5 7.5 q5 4 9 7 q4 3 8.5 7 q4.5 4 12.5 11 q8 7 22 18 q13 11 39.5 35 q26.5 24 59.5 57 q33 33 70 72 q37 39 69 79 q5 4 11 7 l-334 0 q-5 0 -9 2 q-4 2 -7 5.5 q-3 3.5 -4 7 q-1 3.5 -1 8.5 q1 4 3.5 8 q2.5 4 7 7.5 q4.5 3.5 9.5 5.5 q5 2 9 2 l390 0 l0 1 l28 161 l-303 0 q-4 0 -8.5 2 q-4.5 2 -7.5 5.5 q-3 3.5 -4.5 7.5 q-1.5 4 -0.5 8 Z" /><glyph glyph-name="" unicode="&#x4e24;" d="M212 739 q1 4 3.5 8 q2.5 4 7 7.5 q4.5 3.5 9 5 q4.5 1.5 9.5 1.5 l827 0 q4 0 8.5 -1.5 q4.5 -1.5 7.5 -5 q3 -3.5 4.5 -7.5 q1.5 -4 0.5 -8 q-1 -5 -4 -9 q-3 -4 -7 -7 q-4 -3 -9 -5.5 q-5 -2.5 -9 -2.5 l-266 0 l0 -6 l-21 -119 q-3 -18 -7 -36 l221 0 q1 0 1 -1 q1 1 2 1 q5 0 8 -3 q2 -1 3 -2 q2 -1 3 -2 q3 -3 4.5 -7 q1.5 -4 0.5 -8 l0 -3 q0 -1 -1 -1 l-93 -531 q-6 -28 -16.5 -42 q-10.5 -14 -33.5 -21 q-22 -5 -62 -6.5 q-40 -1.5 -101 -1.5 q-7 0 -14 5 q-7 5 -8 11 q-1 13 8 23 q9 10 23 9 q48 -2 80.5 -1.5 q32.5 0.5 47.5 1.5 q15 1 21 6 q6 5 9 17 l90 512 l-203 0 q-3 -14 -7 -29 q-9 -39 -24 -80 q1 -1 3 -2 q4 -2 7 -6 q17 -27 34.5 -57 q17.5 -30 33.5 -60 q16 -30 29 -57.5 q13 -27.5 23 -50.5 q2 -6 0 -14.5 q-2 -8.5 -7 -12.5 q-4 -4 -9 -5.5 q-5 -1.5 -10.5 -0.5 q-5.5 1 -10 4 q-4.5 3 -7.5 8 q-9 23 -21.5 50.5 q-12.5 27.5 -27.5 56 q-15 28.5 -31 57.5 q-12 22 -24 42 q-26 -61 -66 -124 q-41 -64 -103 -123 q-5 -5 -10.5 -7.5 q-5.5 -2.5 -10.5 -3 q-5 -0.5 -9.5 0.5 q-4.5 1 -5.5 4 q-7 7 -3.5 18.5 q3.5 11.5 11.5 21.5 q58 54 96 113 q38 59 62 118 q24 59 37 115 l6 24 l-214 0 q-3 -14 -7 -29 q-9 -39 -24 -81 l1 0 q5 -3 7 -7 q22 -36 40.5 -75.5 q18.5 -39.5 28.5 -69.5 q2 -4 0 -12 q-2 -8 -6 -12 q-5 -5 -10 -7 q-5 -2 -10 -1 q-5 1 -10 4.5 q-5 3.5 -8 9.5 q-11 30 -28 66 q-13 28 -25 53 q-26 -59 -64 -120 q-42 -64 -104 -123 q-4 -5 -9.5 -7.5 q-5.5 -2.5 -10.5 -3 q-5 -0.5 -9.5 0.5 q-4.5 1 -6.5 4 q-7 7 -3.5 18.5 q3.5 11.5 11.5 21.5 q58 54 96.5 113 q38.5 59 62.5 118 q24 59 37 115 q3 12 5 24 l-181 0 q-2 0 -4.5 -2 q-2.5 -2 -2.5 -5 l-97 -550 q-1 -5 -3.5 -10 q-2.5 -5 -6.5 -8.5 q-4 -3.5 -8.5 -6 q-4.5 -2.5 -9.5 -2.5 q-5 0 -8.5 2.5 q-3.5 2.5 -6 6 q-2.5 3.5 -4 8.5 q-1.5 5 0.5 9 l101 577 q1 4 4 9 q3 5 7 8.5 q4 3.5 9.5 6 q5.5 2.5 9.5 2.5 l210 0 q3 18 7 36 l21 119 q0 3 1 6 l-257 0 q-4 0 -8 2.5 q-4 2.5 -7.5 5.5 q-3.5 3 -5 7 q-1.5 4 -0.5 9 ZM748 709 l2 6 l-216 0 q1 -3 0 -6 l-21 -119 q-3 -18 -7 -36 l214 0 q4 18 7 36 l21 119 Z" /><glyph glyph-name="" unicode="&#x4e25;" d="M263 752 q0 4 3 7.5 q3 3.5 7 7 q4 3.5 9 5 q5 1.5 10 1.5 l740 0 q4 0 9 -1.5 q5 -1.5 8 -5 q3 -3.5 4 -7 q1 -3.5 1 -7.5 q-1 -5 -4 -8.5 q-3 -3.5 -7 -6.5 q-4 -3 -9 -5 q-5 -2 -10 -2 l-246 0 l-50 -283 q-1 -2 -1 -4 l278 0 q11 0 17.5 -7 q6.5 -7 5.5 -14 q-1 -5 -3.5 -8.5 q-2.5 -3.5 -7 -7 q-4.5 -3.5 -9.5 -5 q-5 -1.5 -10 -1.5 l-738 0 l-23 -131 q-6 -35 -16.5 -75.5 q-10.5 -40.5 -26.5 -82 q-16 -41.5 -39.5 -82.5 q-23.5 -41 -55.5 -77 q-3 -5 -9 -8 q-6 -3 -10.5 -4 q-4.5 -1 -9.5 0 q-5 1 -8 4 q-7 6 -4.5 17.5 q2.5 11.5 9.5 20.5 q31 34 51.5 70 q20.5 36 34.5 72.5 q14 36.5 23 73 q9 36.5 15 71.5 l27 148 q0 4 2.5 9 q2.5 5 7 8.5 q4.5 3.5 9 6 q4.5 2.5 8.5 2.5 q5 0 8 -2 l1 -1 q5 3 12 3 l202 0 l0 6 l49 281 l-233 0 q-4 0 -9 2 q-5 2 -8 5 q-3 3 -4.5 6.5 q-1.5 3.5 0.5 8.5 ZM681 443 l0 4 l50 283 l-168 0 l-49 -281 l-2 -6 l169 0 ZM926 661 q2 5 7 9 q5 4 10 6.5 q5 2.5 9.5 3 q4.5 0.5 9.5 -0.5 q4 -2 6 -6 q2 -4 3 -9 q1 -5 0 -10.5 q-1 -5.5 -5 -9.5 q-28 -39 -61 -81 q-33 -42 -62 -73 q-6 -6 -14.5 -9.5 q-8.5 -3.5 -13.5 -0.5 q-4 1 -6 5 q-2 4 -2.5 9 q-0.5 5 1.5 10.5 q2 5.5 6 10.5 q27 31 57.5 71.5 q30.5 40.5 54.5 74.5 ZM304 641 q-3 5 -2.5 10.5 q0.5 5.5 2 11 q1.5 5.5 5 9 q3.5 3.5 8.5 4.5 q7 3 14.5 -0.5 q7.5 -3.5 9.5 -9.5 q20 -35 35.5 -76.5 q15.5 -41.5 20.5 -76.5 q2 -8 -3 -17 q-5 -9 -13 -11 q-6 -2 -10 -1 q-4 1 -8 3 q-4 2 -7 6.5 q-3 4.5 -3 10.5 q-6 30 -19 67 q-13 37 -30 70 Z" /><glyph glyph-name="" unicode="&#x4e2a;" d="M663 816 q3 3 7 5.5 q4 2.5 9 4 q5 1.5 9 2 q4 0.5 7 -1.5 q4 -1 6 -5.5 q2 -4.5 2 -9 q0 -4.5 -1.5 -10 q-1.5 -5.5 -5.5 -10.5 q-6 -8 -13 -16 q2 -1 3 -3 q56 -105 139.5 -185.5 q83.5 -80.5 197.5 -148.5 q12 -7 13 -19 q1 -12 -8 -21 q-3 -3 -7.5 -5 q-4.5 -2 -9 -2.5 q-4.5 -0.5 -9 0 q-4.5 0.5 -9.5 2.5 q-115 73 -200 157 q-83 83 -142 189 q-29 -32 -62 -64 q-60 -58 -126 -109.5 q-66 -51.5 -136.5 -95.5 q-70.5 -44 -141.5 -78 q-3 -1 -7.5 -1.5 q-4.5 -0.5 -8.5 0 q-4 0.5 -7 2.5 l-6 4 l0 1 q-6 10 -1 21.5 q5 11.5 20 18.5 q68 33 136 75 q68 42 131 91 q63 49 119 103 q56 54 102 109 ZM590 533 q0 4 3 8.5 q3 4.5 7 8 q4 3.5 8.5 6 q4.5 2.5 9.5 2.5 l1 0 q5 0 8.5 -2.5 q3.5 -2.5 6 -6 q2.5 -3.5 3.5 -8 q1 -4.5 1 -8.5 l-103 -581 q-1 -5 -3.5 -9.5 q-2.5 -4.5 -6.5 -8 q-4 -3.5 -8.5 -5.5 q-4.5 -2 -8.5 -2 l-2 0 q-4 0 -8 2 q-4 2 -6.5 5.5 q-2.5 3.5 -4 8 q-1.5 4.5 -0.5 9.5 l103 581 Z" /><glyph glyph-name="" unicode="&#x4e2d;" d="M232 627 q1 5 4 9.5 q3 4.5 7.5 8 q4.5 3.5 9.5 5.5 q5 2 10 2 l345 0 l27 157 l5 9 q2 5 6 8.5 q4 3.5 9 6 q5 2.5 9 2.5 l1 0 q5 0 8.5 -2.5 q3.5 -2.5 6.5 -6 q3 -3.5 4 -8.5 q1 -5 0 -9 l-28 -157 l348 0 q4 0 8.5 -2 q4.5 -2 8 -5.5 q3.5 -3.5 4.5 -8 q1 -4.5 0 -8.5 l-70 -402 q-1 -4 -3.5 -8.5 q-2.5 -4.5 -6.5 -8 q-4 -3.5 -8.5 -5.5 q-4.5 -2 -8.5 -2 l-1 0 q-5 0 -9 2 q-4 2 -7 5.5 q-3 3.5 -4 8.5 q-1 5 1 9 l6 36 l-327 0 l-54 -309 q0 -5 -3 -9.5 q-3 -4.5 -7 -8.5 q-4 -4 -8.5 -6 q-4.5 -2 -9.5 -2 l-1 0 q-5 0 -8.5 2 q-3.5 2 -6.5 6 q-3 4 -4 8.5 q-1 4.5 0 9.5 l54 309 l-319 0 q-3 0 -6 1 l-7 -42 q-1 -4 -3.5 -9 q-2.5 -5 -6.5 -8.5 q-4 -3.5 -8 -5.5 q-4 -2 -9 -2 q-5 0 -8.5 2 q-3.5 2 -6.5 5.5 q-3 3.5 -4 8 q-1 4.5 0 9.5 l71 405 ZM648 607 l-53 -298 l327 0 l51 292 q0 2 -1.5 4 q-1.5 2 -3.5 2 l-320 0 ZM547 309 l53 298 l-319 0 q-2 0 -4.5 -2 q-2.5 -2 -2.5 -4 l-52 -293 q3 1 6 1 l319 0 Z" /><glyph glyph-name="" unicode="&#x4e30;" d="M241 438 q0 4 3 8 q3 4 7 7.5 q4 3.5 9 5.5 q5 2 10 2 l306 0 l32 178 l-354 0 q-5 0 -10 2 q-5 2 -8 5.5 q-3 3.5 -4.5 7.5 q-1.5 4 -0.5 9 q1 4 4 8 q3 4 7 7.5 q4 3.5 9.5 5 q5.5 1.5 10.5 1.5 l354 0 l22 124 q1 4 4 9 q3 5 7 8.5 q4 3.5 8.5 6 q4.5 2.5 8.5 2.5 l2 0 q5 0 8.5 -2.5 q3.5 -2.5 6.5 -6 q3 -3.5 4 -8.5 q1 -5 -1 -9 l-21 -124 l353 0 q5 0 10 -1.5 q5 -1.5 8 -5 q3 -3.5 4 -7.5 q1 -4 0 -8 q0 -5 -3 -9 q-3 -4 -7.5 -7.5 q-4.5 -3.5 -9.5 -5.5 q-5 -2 -10 -2 l-354 0 l-31 -178 l309 0 q4 0 9 -2 q5 -2 8 -5.5 q3 -3.5 4 -7.5 q1 -4 1 -8 q-1 -5 -4 -8.5 q-3 -3.5 -7 -7 q-4 -3.5 -9.5 -5.5 q-5.5 -2 -9.5 -2 l-309 0 l-34 -193 l396 0 q4 0 8 -1.5 q4 -1.5 7 -5 q3 -3.5 5 -7.5 q2 -4 0 -9 q0 -5 -3 -9 q-3 -4 -7 -7 q-4 -3 -9.5 -5.5 q-5.5 -2.5 -9.5 -2.5 l-395 0 l-39 -221 q0 -5 -3 -9.5 q-3 -4.5 -7 -8 q-4 -3.5 -8.5 -6 q-4.5 -2.5 -9.5 -2.5 l-2 0 q-5 0 -8 2.5 q-3 2.5 -6 6 q-3 3.5 -4 8 q-1 4.5 -1 9.5 l39 221 l-394 0 q-4 0 -8 2.5 q-4 2.5 -7 5.5 q-3 3 -4.5 7 q-1.5 4 -0.5 9 q1 5 3.5 9 q2.5 4 7 7.5 q4.5 3.5 9.5 5 q5 1.5 9 1.5 l393 0 l34 193 l-306 0 q-4 0 -9 2 q-5 2 -8 5.5 q-3 3.5 -4.5 7 q-1.5 3.5 0.5 8.5 Z" /><glyph glyph-name="" unicode="&#x4e32;" d="M635 808 q1 5 4 10 q3 5 7 8.5 q4 3.5 8.5 5.5 q4.5 2 9.5 2 l2 0 q4 0 7.5 -2 q3.5 -2 6.5 -5.5 q3 -3.5 4 -8.5 q1 -5 0 -10 l-17 -93 l297 0 q6 0 10.5 -2 q4.5 -2 7.5 -5.5 q3 -3.5 4.5 -8 q1.5 -4.5 0.5 -9.5 l-36 -205 q-2 -4 -4.5 -8.5 q-2.5 -4.5 -6.5 -8.5 q-4 -4 -9.5 -6 q-5.5 -2 -10.5 -2 l-298 0 l-17 -97 l344 0 q4 0 8.5 -2.5 q4.5 -2.5 7.5 -6 q3 -3.5 4.5 -8.5 q1.5 -5 0.5 -9 l-45 -254 q0 -5 -2.5 -9.5 q-2.5 -4.5 -6.5 -8.5 q-4 -4 -8.5 -6 q-4.5 -2 -9.5 -2 l-2 0 q-5 0 -8.5 2 q-3.5 2 -6.5 6 q-3 4 -4 8.5 q-1 4.5 1 10.5 l2 15 q-3 -1 -5 -1 l-316 0 l-26 -144 q0 -5 -3 -9.5 q-3 -4.5 -7 -8.5 q-4 -4 -8.5 -6 q-4.5 -2 -9.5 -2 l-2 0 q-4 0 -7.5 2 q-3.5 2 -6.5 6 q-3 4 -4 8.5 q-1 4.5 -1 9.5 l26 144 l-306 0 q-3 0 -6 1 l-4 -18 q-1 -5 -3.5 -10 q-2.5 -5 -6.5 -8.5 q-4 -3.5 -8 -6 q-4 -2.5 -8 -2.5 l-2 0 q-4 0 -8 2.5 q-4 2.5 -7 6 q-3 3.5 -4 8.5 q-1 5 0 10 l45 255 q1 5 4 10 q3 5 7.5 8.5 q4.5 3.5 9.5 6 q5 2.5 10 2.5 l333 0 l18 97 l-295 0 q-5 0 -9 2 q-4 2 -7.5 6 q-3.5 4 -5 8.5 q-1.5 4.5 -0.5 8.5 l36 205 q1 5 4 9.5 q3 4.5 7.5 8 q4.5 3.5 9.5 5.5 q5 2 10 2 l294 0 l17 93 ZM597 318 l-31 -176 l316 0 q3 0 6 -1 l29 171 q1 2 -1 4 q-2 2 -4 2 l-315 0 ZM517 142 l31 176 l-306 0 q-2 0 -4.5 -2 q-2.5 -2 -2.5 -4 l-30 -171 q3 1 7 1 l305 0 ZM660 671 l-30 -168 l269 0 q3 0 5.5 2 q2.5 2 2.5 4 l27 156 q0 2 -1.5 4 q-1.5 2 -3.5 2 l-269 0 ZM343 671 q-2 0 -4.5 -2 q-2.5 -2 -2.5 -4 l-28 -156 q0 -2 1.5 -4 q1.5 -2 3.5 -2 l268 0 l30 168 l-268 0 Z" /><glyph glyph-name="" unicode="&#x4e34;" d="M509 353 q1 5 3.5 9 q2.5 4 7 8 q4.5 4 10 6 q5.5 2 10.5 2 l435 0 q5 0 9.5 -2 q4.5 -2 7.5 -5.5 q3 -3.5 4.5 -8 q1.5 -4.5 0.5 -9.5 l-70 -397 q-1 -4 -4 -8.5 q-3 -4.5 -7 -8 q-4 -3.5 -8 -6 q-4 -2.5 -8 -2.5 l-1 0 q-4 0 -8.5 2.5 q-4.5 2.5 -7 6 q-2.5 3.5 -4 8.5 q-1.5 5 0.5 9 l4 26 l-389 0 q-2 0 -4 1 l-6 -31 q-1 -5 -4 -9.5 q-3 -4.5 -6.5 -8 q-3.5 -3.5 -8 -6 q-4.5 -2.5 -9 -2.5 q-4.5 0 -8.5 2.5 q-4 2.5 -6.5 6 q-2.5 3.5 -4 8 q-1.5 4.5 -0.5 8.5 l71 401 ZM726 326 q0 3 2 7 l-169 0 q-2 0 -4.5 -2 q-2.5 -2 -3.5 -5 l-53 -298 q3 1 5 1 l172 0 q-1 4 0 9 l51 288 ZM716 29 l176 0 l52 298 q1 2 -0.5 4 q-1.5 2 -4.5 2 l-168 0 l0 -7 l-51 -288 q-1 -5 -4 -9 ZM421 796 q2 5 4.5 9 q2.5 4 6.5 8 q4 4 8.5 6 q4.5 2 9 2 q4.5 0 8 -2 q3.5 -2 6 -6 q2.5 -4 3.5 -8 q1 -4 0 -9 l-147 -839 q-1 -4 -3.5 -8.5 q-2.5 -4.5 -6.5 -8 q-4 -3.5 -8.5 -6 q-4.5 -2.5 -9 -2.5 q-4.5 0 -8 2.5 q-3.5 2.5 -6.5 6 q-3 3.5 -4 8 q-1 4.5 0 8.5 l147 839 ZM687 815 q3 5 6.5 8.5 q3.5 3.5 8 6.5 q4.5 3 9.5 4 q5 1 8 0 q5 0 8 -3 q3 -3 4.5 -7.5 q1.5 -4.5 1.5 -10 q0 -5.5 -3 -9.5 q-22 -47 -47 -91 l385 0 q5 0 9 -2 q4 -2 7 -5.5 q3 -3.5 4.5 -7.5 q1.5 -4 1.5 -8 q-1 -5 -4 -9 q-3 -4 -7 -7 q-4 -3 -9.5 -5.5 q-5.5 -2.5 -9.5 -2.5 l-395 0 q-5 0 -9 2 q-13 -21 -27 -41 q-55 -83 -116 -146 q-4 -4 -8 -6.5 q-4 -2.5 -9 -4 q-5 -1.5 -9.5 -1 q-4.5 0.5 -6.5 2.5 q-9 6 -7.5 17.5 q1.5 11.5 11.5 22.5 q59 61 110.5 139 q51.5 78 92.5 164 ZM239 682 q1 5 3.5 9.5 q2.5 4.5 6.5 8 q4 3.5 8 5.5 q4 2 9 2 q4 0 8 -2 q4 -2 6 -5.5 q2 -3.5 3 -8 q1 -4.5 0 -9.5 l-103 -589 q-1 -4 -3.5 -8.5 q-2.5 -4.5 -6.5 -8.5 q-4 -4 -8 -6 q-4 -2 -8 -2 q-5 0 -8.5 2 q-3.5 2 -6.5 6 q-3 4 -4 8.5 q-1 4.5 0 8.5 l104 589 ZM726 565 q-4 4 -6 8.5 q-2 4.5 -2 9.5 q0 5 2.5 10 q2.5 5 7.5 8 q5 4 14 4 q9 0 14 -5 q31 -29 62 -62 q31 -33 51 -59 q4 -3 4.5 -7.5 q0.5 -4.5 0 -9 q-0.5 -4.5 -2 -9 q-1.5 -4.5 -5.5 -7.5 q-3 -3 -8.5 -4.5 q-5.5 -1.5 -10.5 -2 q-5 -0.5 -9 1.5 q-4 2 -8 6 q-20 26 -48 57.5 q-28 31.5 -56 60.5 Z" /><glyph glyph-name="" unicode="&#x4e3a;" d="M207 567 q1 4 4 8 q3 4 6.5 7.5 q3.5 3.5 9 5 q5.5 1.5 11.5 1.5 l308 0 q18 71 29 135 l14 83 l5 9 q2 5 6 8.5 q4 3.5 8.5 6 q4.5 2.5 8.5 2.5 l1 0 q4 0 8 -2.5 q4 -2.5 7 -6 q3 -3.5 4 -8.5 q1 -5 0 -9 l-15 -83 q-11 -63 -29 -135 l398 0 q4 0 8 -1 l0 -1 q4 -1 7.5 -4.5 q3.5 -3.5 5 -7.5 q1.5 -4 0.5 -8 l0 -2 l-1 -1 l0 -4 q-34 -153 -59 -259 q-25 -106 -45 -174.5 q-20 -68.5 -37 -105.5 q-17 -37 -35 -54 q-18 -16 -35.5 -22.5 q-17.5 -6.5 -42.5 -8.5 q-21 -1 -58 0.5 q-37 1.5 -78 3.5 q-9 0 -15 6 q-6 6 -7 12 q-1 12 8.5 21 q9.5 9 24.5 8 q21 -2 38.5 -3 q17.5 -1 32.5 -1.5 q15 -0.5 27 -0.5 l21 0 q16 0 26 2.5 q10 2.5 20 11.5 q15 13 31 48.5 q16 35.5 36 104 q20 68.5 45 173.5 q23 93 50 221 l-377 0 q-26 -97 -79 -199 q-54 -101 -143.5 -202 q-89.5 -101 -232.5 -191 q-4 -2 -9.5 -3.5 q-5.5 -1.5 -10 -1.5 q-4.5 0 -8.5 1.5 q-4 1.5 -6 4.5 q-6 8 -2.5 20 q3.5 12 15.5 20 q136 86 221 181 q85 95 135 190 q48 92 72 180 l-304 0 q-6 0 -10.5 1.5 q-4.5 1.5 -7.5 5.5 q-3 4 -4.5 8 q-1.5 4 -1.5 8 l1 1 ZM611 356 q-3 5 -3.5 10.5 q-0.5 5.5 1 10.5 q1.5 5 4.5 9.5 q3 4.5 8 6.5 q6 3 14.5 1 q8.5 -2 12.5 -8 q30 -39 56.5 -83.5 q26.5 -44.5 42.5 -79.5 q1 -3 0.5 -7.5 q-0.5 -4.5 -2.5 -9 q-2 -4.5 -4.5 -8 q-2.5 -3.5 -6.5 -6.5 q-4 -2 -9 -2 q-5 0 -10 1.5 q-5 1.5 -8.5 5 q-3.5 3.5 -6.5 8.5 q-14 33 -38.5 74 q-24.5 41 -50.5 77 ZM353 760 q-3 5 -3.5 10.5 q-0.5 5.5 0.5 10.5 q1 5 4.5 9.5 q3.5 4.5 8.5 7.5 q6 3 14.5 0.5 q8.5 -2.5 11.5 -8.5 q20 -26 39 -56 q19 -30 31 -55 q2 -4 1.5 -8.5 q-0.5 -4.5 -2 -9 q-1.5 -4.5 -5 -8 q-3.5 -3.5 -7.5 -6.5 q-3 -2 -8.5 -2 q-5.5 0 -10 1.5 q-4.5 1.5 -8 5 q-3.5 3.5 -6.5 7.5 q-10 23 -26 50 q-16 27 -34 51 Z" /><glyph glyph-name="" unicode="&#x4e3b;" d="M235 604 q0 5 3 9 q3 4 7.5 7.5 q4.5 3.5 9.5 5.5 q5 2 9 2 l734 0 q5 0 9.5 -2 q4.5 -2 7.5 -5.5 q3 -3.5 4.5 -7.5 q1.5 -4 1.5 -9 q-1 -4 -4 -8 q-3 -4 -7 -7 q-4 -3 -9.5 -5.5 q-5.5 -2.5 -10.5 -2.5 l-346 0 l0 -2 q1 -4 1 -9 l-42 -237 l306 0 q5 0 9.5 -2 q4.5 -2 7.5 -5.5 q3 -3.5 4.5 -7.5 q1.5 -4 0.5 -9 q-1 -4 -3.5 -8 q-2.5 -4 -7 -7 q-4.5 -3 -9.5 -5.5 q-5 -2.5 -10 -2.5 l-306 0 l-49 -276 q-1 -1 -1 -3 l397 0 q4 0 8.5 -1.5 q4.5 -1.5 7.5 -5 q3 -3.5 4 -7.5 q1 -4 1 -8 q-1 -5 -4 -9 q-3 -4 -7.5 -7.5 q-4.5 -3.5 -9 -5.5 q-4.5 -2 -8.5 -2 l-836 0 q-5 0 -9.5 2 q-4.5 2 -7.5 5.5 q-3 3.5 -4 7.5 q-1 4 0 9 q0 4 3 8 q3 4 7.5 7.5 q4.5 3.5 9 5 q4.5 1.5 9.5 1.5 l390 0 q0 2 1 3 l48 276 l-299 0 q-4 0 -9 2.5 q-5 2.5 -8 5.5 q-3 3 -4.5 7 q-1.5 4 -0.5 8 q1 5 4 9 q3 4 7 7.5 q4 3.5 9 5.5 q5 2 10 2 l300 0 l42 237 q0 5 3 9 q0 1 1 2 l-344 0 q-4 0 -8.5 2.5 q-4.5 2.5 -8 5.5 q-3.5 3 -4.5 7 q-1 4 0 8 ZM577 781 q-5 4 -7 9.5 q-2 5.5 -1 10.5 q1 5 3.5 10 q2.5 5 7.5 7 l1 1 q5 3 13 2 q8 -1 12 -4 q35 -31 68.5 -68.5 q33.5 -37.5 55.5 -68.5 q3 -4 4 -8.5 q1 -4.5 0 -9.5 q-1 -5 -4 -9 q-3 -4 -8 -7 l-1 -1 q-4 -3 -8.5 -3.5 q-4.5 -0.5 -9.5 0.5 q-5 1 -9 3 q-4 2 -7 5 q-18 30 -48 65 q-30 35 -62 66 Z" /><glyph glyph-name="" unicode="&#x4e3e;" d="M309 352 q0 5 3 8.5 q3 3.5 7 7 q4 3.5 9 5.5 q5 2 10 2 l223 0 l19 106 q0 5 3 10 q3 5 7 8.5 q4 3.5 9 5.5 q5 2 9 2 l1 0 q4 0 7.5 -2 q3.5 -2 6 -5.5 q2.5 -3.5 4 -8.5 q1.5 -5 1.5 -10 l-19 -106 l235 0 q5 0 9.5 -2 q4.5 -2 7.5 -5.5 q3 -3.5 4.5 -7 q1.5 -3.5 1.5 -8.5 q-1 -4 -4 -8 q-3 -4 -7 -7 q-4 -3 -9.5 -5 q-5.5 -2 -9.5 -2 l-236 0 l-26 -147 l364 0 q5 0 8.5 -2 q3.5 -2 7 -5.5 q3.5 -3.5 5 -7.5 q1.5 -4 0.5 -8 q0 -4 -3 -8 q-3 -4 -7.5 -7 q-4.5 -3 -9.5 -5.5 q-5 -2.5 -9 -2.5 l-364 0 l-34 -187 q0 -5 -3 -9.5 q-3 -4.5 -7 -8.5 q-4 -4 -8.5 -6 q-4.5 -2 -8.5 -2 l-1 0 q-4 0 -8 2 q-4 2 -6.5 6 q-2.5 4 -4 8.5 q-1.5 4.5 -1.5 9.5 l34 187 l-356 0 q-4 0 -8 2.5 q-4 2.5 -7 5.5 q-3 3 -4.5 7 q-1.5 4 -0.5 8 q1 4 4 8 q3 4 6.5 7.5 q3.5 3.5 9 5.5 q5.5 2 9.5 2 l355 0 l26 147 l-223 0 q-4 0 -8.5 2 q-4.5 2 -8 5 q-3.5 3 -5 7 q-1.5 4 0.5 8 ZM186 608 q1 5 4 8.5 q3 3.5 7 7 q4 3.5 9 5 q5 1.5 9 1.5 l572 0 q0 1 1 2 q0 6 2.5 11 q2.5 5 6.5 10 q31 32 67.5 71.5 q36.5 39.5 64.5 73.5 q6 9 17 13 q11 4 17 0 l1 0 q5 -2 7.5 -6 q2.5 -4 2.5 -9 q0 -5 -1.5 -10 q-1.5 -5 -5.5 -10 q-34 -39 -72 -79 q-36 -37 -68 -67 l221 0 q5 0 8.5 -1.5 q3.5 -1.5 7 -5 q3.5 -3.5 5 -7 q1.5 -3.5 0.5 -8.5 q-1 -4 -3.5 -8 q-2.5 -4 -7 -7.5 q-4.5 -3.5 -9 -5 q-4.5 -1.5 -9.5 -1.5 l-232 0 q15 -28 33 -55 q24 -33 52 -62.5 q28 -29.5 61 -54.5 q33 -25 67 -43 q11 -6 12.5 -17.5 q1.5 -11.5 -7.5 -20.5 q-5 -6 -15 -7.5 q-10 -1.5 -17 2.5 q-36 20 -70 47 q-34 27 -64 59.5 q-30 32.5 -55 69 q-25 36.5 -42 74.5 q-2 4 -3 8 l-273 0 l0 -2 q-2 -5 -6 -9 q-30 -41 -67 -78.5 q-37 -37.5 -78 -70 q-41 -32.5 -85 -59.5 q-44 -27 -86 -46 q-8 -4 -17.5 -3 q-9.5 1 -12.5 7 q-6 8 0.5 19.5 q6.5 11.5 19.5 18.5 q42 17 82.5 42 q40.5 25 78.5 55 q38 30 71 65 q30 30 53 61 l-232 0 q-5 0 -9.5 1.5 q-4.5 1.5 -7 5 q-2.5 3.5 -4 7.5 q-1.5 4 -1.5 8 ZM346 765 q-3 4 -3.5 10 q-0.5 6 1.5 11 q2 5 5 9.5 q3 4.5 8 6.5 q7 3 14.5 1 q7.5 -2 10.5 -8 q20 -26 38 -57 q18 -31 29 -57 q2 -5 1.5 -9.5 q-0.5 -4.5 -2.5 -9 q-2 -4.5 -5 -8 q-3 -3.5 -7 -5.5 q-4 -2 -9 -2.5 q-5 -0.5 -9.5 2 q-4.5 2.5 -8.5 5.5 q-4 3 -6 7 q-9 24 -24.5 51.5 q-15.5 27.5 -32.5 52.5 ZM587 796 q-2 6 -2 11.5 q0 5.5 1.5 11 q1.5 5.5 5 9.5 q3.5 4 8.5 5 q6 3 14 0.5 q8 -2.5 11 -9.5 q16 -29 30 -62 q14 -33 21 -59 q1 -5 0.5 -9 q-0.5 -4 -2.5 -8.5 q-2 -4.5 -5.5 -8 q-3.5 -3.5 -7.5 -4.5 q-4 -2 -9 -2 q-5 0 -9.5 2 q-4.5 2 -7 6.5 q-2.5 4.5 -4.5 8.5 q-7 24 -18.5 53 q-11.5 29 -25.5 55 Z" /><glyph glyph-name="" unicode="&#x4e45;" d="M506 810 q1 5 5.5 8.5 q4.5 3.5 9 6 q4.5 2.5 9 3.5 q4.5 1 8.5 1 l2 -1 q5 -1 8 -4.5 q3 -3.5 4 -8 q1 -4.5 0.5 -10 q-0.5 -5.5 -3.5 -10.5 q-36 -67 -77 -130 l268 0 q4 0 9 -1 q1 -1 2 -1 q3 2 5 2 q2 0 4 0.5 q2 0.5 4 1.5 l1 0 q1 1 5 0.5 q4 -0.5 6 -2.5 l7 -4 q2 -1 4.5 -4.5 q2.5 -3.5 3.5 -7.5 q1 -4 1 -8 q0 -4 -1 -8 q-56 -127 -127 -232 q4 -5 5 -11 q13 -65 37.5 -126.5 q24.5 -61.5 60 -114 q35.5 -52.5 79.5 -95 q44 -42.5 97 -71.5 q11 -7 12 -19 q1 -12 -8 -21 q-2 -4 -6 -5.5 q-4 -1.5 -9 -2.5 q-5 -1 -9 -0.5 q-4 0.5 -7 2.5 q-56 30 -103 75.5 q-47 45.5 -84 102 q-37 56.5 -63 122.5 q-22 55 -37 114 q-63 -86 -134 -158 q-87 -86 -183 -151 q-96 -65 -195 -110 q-4 -2 -9 -2.5 q-5 -0.5 -9.5 0.5 q-4.5 1 -8 3 q-3.5 2 -5.5 5 q-6 10 -1 22 q5 12 20 19 q97 44 189.5 106.5 q92.5 62.5 176 145.5 q83.5 83 153.5 187 q63 92 111 200 l-289 0 q-2 0 -4 1 q-30 -44 -63 -85 q-94 -119 -200 -206 q-5 -3 -9.5 -4.5 q-4.5 -1.5 -9.5 -1.5 q-5 0 -9 1 q-4 1 -7 3 l-1 0 q-4 4 -5 9 q-1 5 0 10.5 q1 5.5 4.5 11 q3.5 5.5 9.5 9.5 q104 82 194 197 q90 115 161 247 Z" /><glyph glyph-name="" unicode="&#x4e48;" d="M178 -12 q-7 -1 -13 0 q-6 1 -10 3 q-2 2 -4 3 q-11 3 -13 12 q-1 5 0.5 10 q1.5 5 5.5 10.5 q4 5.5 8.5 10 q4.5 4.5 10.5 7.5 q10 6 20.5 12.5 q10.5 6.5 23.5 16 q13 9.5 30.5 23 q17.5 13.5 43.5 34.5 q27 20 80.5 65.5 q53.5 45.5 121.5 107.5 q68 62 144.5 136 q76.5 74 147.5 151 q3 4 7.5 6.5 q4.5 2.5 9 3.5 q4.5 1 8.5 1.5 q4 0.5 7 -1.5 l3 -1 q5 -3 7 -7.5 q2 -4.5 2.5 -10 q0.5 -5.5 -1.5 -10.5 q-2 -5 -6 -10 q-155 -162 -312 -303 q-136 -122 -264 -216 l595 50 q-5 10 -11 20 q-23 41 -48 81.5 q-25 40.5 -51 76.5 q-3 5 -3 10.5 q0 5.5 1.5 10.5 q1.5 5 4.5 9.5 q3 4.5 8 6.5 l1 0 q7 3 15.5 1.5 q8.5 -1.5 13.5 -8.5 q27 -37 53.5 -79 q26.5 -42 50.5 -84 q24 -42 43.5 -82 q19.5 -40 32.5 -74 q2 -4 1.5 -8.5 q-0.5 -4.5 -2.5 -9 q-2 -4.5 -5 -8.5 q-3 -4 -8 -6 l-2 -1 q-4 -2 -9 -2 q-5 0 -9.5 1.5 q-4.5 1.5 -8 4.5 q-3.5 3 -4.5 8 q-14 33 -33 72 q-5 10 -10 19 q-5 -3 -11 -3 q-179 -15 -298 -25 q-119 -10 -194 -17.5 q-75 -7.5 -113.5 -11 q-38.5 -3.5 -57.5 -6.5 ZM607 800 q6 7 15.5 11 q9.5 4 17.5 1 l2 0 q3 -2 5.5 -6.5 q2.5 -4.5 3 -9.5 q0.5 -5 -1.5 -10.5 q-2 -5.5 -6 -10.5 q-43 -51 -95 -104 q-52 -53 -108 -104 q-56 -51 -114.5 -97.5 q-58.5 -46.5 -114.5 -87.5 q-4 -2 -9 -3 q-5 -1 -9.5 -1 q-4.5 0 -8 1 q-3.5 1 -5.5 4 q-4 3 -4 8.5 q0 5.5 1.5 11 q1.5 5.5 5 10 q3.5 4.5 9.5 9.5 q56 38 113.5 83.5 q57.5 45.5 111.5 95 q54 49.5 102.5 100 q48.5 50.5 88.5 99.5 Z" /><glyph glyph-name="" unicode="&#x4e49;" d="M325 724 q3 2 7.5 0.5 q4.5 -1.5 8 -3.5 q3.5 -2 6.5 -5.5 q3 -3.5 4 -8.5 q29 -122 81 -234 q52 -112 126 -206 q5 -6 9 -12 l34 30 q104 96 188.5 209.5 q84.5 113.5 153.5 241.5 q2 5 6.5 8.5 q4.5 3.5 9.5 6 q5 2.5 9.5 3.5 q4.5 1 9.5 -1 l1 0 q3 -2 6 -5 q3 -3 4 -7.5 q1 -4.5 0 -9.5 q-1 -5 -3 -10 q-74 -134 -162.5 -251.5 q-88.5 -117.5 -196.5 -217.5 q-16 -14 -33 -29 q60 -68 131 -124 q94 -73 206 -120 q14 -5 16 -17 q2 -12 -8 -22 q-5 -5 -13.5 -7.5 q-8.5 -2.5 -15.5 0.5 q-118 47 -216 123 q-77 60 -140 134 q-78 -63 -167 -116 q-131 -80 -290 -137 q-8 -3 -17 -0.5 q-9 2.5 -11 7.5 q-5 9 2 20 q7 11 21 16 q152 56 278 132 q84 51 158 110 l-6 8 q-76 98 -129.5 215.5 q-53.5 117.5 -85.5 246.5 q-1 4 0 9.5 q1 5.5 3.5 10 q2.5 4.5 6.5 8 q4 3.5 8 4.5 ZM602 797 q0 5 0.5 10 q0.5 5 3 9.5 q2.5 4.5 5.5 8.5 q3 4 7 5 q8 4 16 -0.5 q8 -4.5 11 -12.5 q14 -48 27 -100 q13 -52 19 -94 q2 -5 0.5 -9.5 q-1.5 -4.5 -3.5 -8.5 q-2 -4 -5.5 -7.5 q-3.5 -3.5 -6.5 -5.5 q-6 -1 -11 -1 q-5 0 -9 2.5 q-4 2.5 -7 7 q-3 4.5 -3 9.5 q-6 42 -18 92 q-12 50 -26 95 Z" /><glyph glyph-name="" unicode="&#x4e4b;" d="M233 605 q0 5 3 9 q3 4 7.5 7.5 q4.5 3.5 9.5 5 q5 1.5 9 1.5 l653 0 q5 0 9 -1 q2 1 5 1 q2 0 4 0.5 q2 0.5 4 0.5 q3 1 6.5 0 q3.5 -1 5.5 -3 l5 -2 q4 -3 6 -8 q2 -5 2 -10 q0 -5 -1.5 -10 q-1.5 -5 -5.5 -9 q-59 -67 -136.5 -138 q-77.5 -71 -162.5 -137.5 q-85 -66.5 -174 -125.5 q-84 -56 -163 -98 q5 -4 10 -9 q13 -11 31 -24 q42 -30 102.5 -38.5 q60.5 -8.5 145.5 -8.5 q84 0 172.5 3.5 q88.5 3.5 159.5 8.5 q15 1 21.5 -8 q6.5 -9 0.5 -22 q-3 -8 -11.5 -14 q-8.5 -6 -17.5 -6 q-31 -2 -74 -3.5 q-43 -1.5 -89 -3 q-46 -1.5 -91.5 -2 q-45.5 -0.5 -80.5 -0.5 q-91 0 -153.5 10.5 q-62.5 10.5 -107.5 42.5 q-25 19 -44.5 39 q-19.5 20 -35.5 20 q-22 0 -56 -26.5 q-34 -26.5 -75 -69.5 q-6 -5 -11 -7.5 q-5 -2.5 -10.5 -3 q-5.5 -0.5 -10.5 1.5 q-5 2 -8 6 l-1 1 q-2 4 -2.5 8.5 q-0.5 4.5 0 9.5 q0.5 5 3 9 q2.5 4 6.5 8 q51 47 94 77.5 q43 30.5 79 30.5 q11 0 20 -4 q4 5 10 8 q83 44 171.5 103 q88.5 59 171 124.5 q82.5 65.5 154.5 133.5 q55 52 98 99 l-636 0 q-4 0 -8.5 2 q-4.5 2 -8 5 q-3.5 3 -5 7.5 q-1.5 4.5 0.5 8.5 ZM606 790 q-2 5 -2.5 10 q-0.5 5 1 10 q1.5 5 5 9.5 q3.5 4.5 7.5 6.5 l1 1 q4 1 8 1 q4 0 8 -1 q4 -1 7.5 -3 q3.5 -2 4.5 -5 q18 -32 34.5 -66 q16.5 -34 25.5 -61 q2 -4 1.5 -8.5 q-0.5 -4.5 -2 -9 q-1.5 -4.5 -5 -8 q-3.5 -3.5 -7.5 -6.5 l-2 -1 q-4 -1 -9 -1.5 q-5 -0.5 -9.5 1 q-4.5 1.5 -8 5 q-3.5 3.5 -5.5 7.5 q-8 27 -23 59 q-15 32 -30 60 Z" /><glyph glyph-name="" unicode="&#x4e4c;" d="M602 818 q5 9 14.5 14 q9.5 5 17.5 3 q5 -1 8 -4.5 q3 -3.5 4 -8.5 q1 -5 0 -10 q-1 -5 -5 -10 q-15 -21 -31 -42 q-12 -16 -23 -29 l342 0 q4 0 9 -2 q5 -2 8 -5 q3 -3 4.5 -7 q1.5 -4 0.5 -8 q-1 -5 -4 -9 q0 -1 -1 -1 q-13 -51 -24 -88 q-11 -39 -21.5 -66 q-10.5 -27 -20 -42.5 q-9.5 -15.5 -19.5 -24.5 q-12 -10 -26 -13.5 q-14 -3.5 -34 -4.5 l-42 0 q-27 0 -58 2 q-8 0 -14 5.5 q-6 5.5 -7 10.5 q0 11 9 18 q9 7 24 6 q13 -1 25 -1 q12 0 22.5 -0.5 q10.5 -0.5 18.5 -0.5 l15 0 q14 0 21 1.5 q7 1.5 13 6.5 q7 6 15 20.5 q8 14.5 17.5 40 q9.5 25.5 20.5 63.5 q7 23 15 54 l-501 0 q-3 0 -5.5 -1.5 q-2.5 -1.5 -2.5 -4.5 l-55 -310 q0 -2 1 -3.5 q1 -1.5 3 -1.5 l635 0 q3 0 7 -2 q4 -2 7 -5 q3 -3 4.5 -7 q1.5 -4 0.5 -8 q0 -2 -1 -4 q-24 -96 -42 -163.5 q-18 -67.5 -33.5 -112 q-15.5 -44.5 -29.5 -69.5 q-14 -25 -28 -38 q-15 -13 -30 -18 q-15 -5 -39 -6 q-18 -1 -50.5 -0.5 q-32.5 0.5 -71.5 3.5 q-8 0 -14.5 5 q-6.5 5 -6.5 11 q-1 12 9.5 20.5 q10.5 8.5 25.5 7.5 q17 -2 32 -2.5 q15 -0.5 28 -1 q13 -0.5 23 -0.5 l19 0 q13 -1 23 1 q10 2 18 9 q12 10 24.5 34 q12.5 24 27 67.5 q14.5 43.5 32.5 109.5 q14 53 31 124 l-634 0 q-4 0 -9 2 q-5 2 -8 6 q-3 4 -4 9 q-1 5 0 10 l63 357 q1 6 4 10.5 q3 4.5 7.5 8 q4.5 3.5 9.5 6 q5 2.5 9 2.5 l167 0 q1 5 4 11 q15 17 29.5 37.5 q14.5 20.5 26.5 38.5 ZM110 166 q1 4 3.5 8 q2.5 4 7 7 q4.5 3 9.5 4.5 q5 1.5 10 1.5 l652 0 q5 0 9.5 -1.5 q4.5 -1.5 7.5 -4.5 q3 -3 4.5 -7 q1.5 -4 1.5 -8 q-1 -5 -4 -8.5 q-3 -3.5 -7.5 -7 q-4.5 -3.5 -9.5 -5 q-5 -1.5 -10 -1.5 l-652 0 q-4 0 -9 1.5 q-5 1.5 -8 5 q-3 3.5 -4.5 7 q-1.5 3.5 -0.5 8.5 Z" /><glyph glyph-name="" unicode="&#x4e4d;" d="M483 816 q2 5 5.5 8 q3.5 3 8 6 q4.5 3 9.5 3.5 q5 0.5 8 0.5 l2 -1 q4 -1 7.5 -4.5 q3.5 -3.5 5 -8 q1.5 -4.5 0.5 -10.5 q-1 -6 -4 -10 q-45 -74 -96 -142 l618 0 q4 0 8.5 -1.5 q4.5 -1.5 8 -5.5 q3.5 -4 5 -8 q1.5 -4 -0.5 -8 q0 -5 -3 -9 q-3 -4 -7.5 -7 q-4.5 -3 -9.5 -5 q-5 -2 -11 -2 l-447 0 l-30 -172 q2 1 5 1 l390 0 q5 0 9 -2 q4 -2 7 -5 q3 -3 4.5 -7 q1.5 -4 0.5 -8 q0 -5 -3 -9 q-3 -4 -7.5 -7.5 q-4.5 -3.5 -9 -5 q-4.5 -1.5 -9.5 -1.5 l-395 0 l-31 -178 l406 0 q5 0 9.5 -1.5 q4.5 -1.5 7.5 -5 q3 -3.5 4.5 -7.5 q1.5 -4 0.5 -9 q-1 -4 -3.5 -8 q-2.5 -4 -7 -7.5 q-4.5 -3.5 -9.5 -5.5 q-5 -2 -10 -2 l-401 0 q-2 0 -5 1 l-39 -221 q-1 -4 -3.5 -9 q-2.5 -5 -6.5 -8.5 q-4 -3.5 -8.5 -6 q-4.5 -2.5 -8.5 -2.5 l-2 0 q-4 0 -8 2.5 q-4 2.5 -7 6 q-3 3.5 -4 8.5 q-1 5 0 9 l117 660 l-130 0 q-7 0 -12 2 l-3 3 l-28 -34 q-85 -101 -173 -177 q-4 -3 -8.5 -5 q-4.5 -2 -9.5 -2.5 q-5 -0.5 -9.5 1 q-4.5 1.5 -8.5 3.5 q-3 3 -5 8 q-2 5 -1 11 q1 6 4.5 11 q3.5 5 8.5 10 q88 72 169 169 q81 97 146 204 Z" /><glyph glyph-name="" unicode="&#x4e4e;" d="M965 810 q7 1 14 -2 q7 -3 10 -9 l0 -1 q3 -4 2.5 -9.5 q-0.5 -5.5 -3.5 -10.5 q-3 -5 -8 -8.5 q-5 -3.5 -12 -5.5 q-63 -14 -144 -25 q-70 -10 -146 -18 q1 -5 0 -10 l-63 -353 l386 0 q5 0 9 -2 q4 -2 7 -5 q3 -3 4.5 -7 q1.5 -4 0.5 -9 q-1 -5 -4 -9 q-3 -4 -7 -7.5 q-4 -3.5 -8.5 -5.5 q-4.5 -2 -9.5 -2 l-386 0 l-55 -311 q-5 -33 -19 -48 q-14 -15 -40 -21 q-23 -6 -66 -6.5 q-43 -0.5 -116 -1.5 q-7 0 -14 4.5 q-7 4.5 -7 11.5 q-3 12 5.5 22 q8.5 10 24.5 9 q54 -2 92.5 -1.5 q38.5 0.5 55.5 1.5 q17 1 24.5 6.5 q7.5 5.5 10.5 22.5 l55 312 l-399 0 q-4 0 -8.5 2 q-4.5 2 -7.5 5.5 q-3 3.5 -4.5 7.5 q-1.5 4 -0.5 9 q1 5 4 9 q3 4 7 7 q4 3 9 5 q5 2 9 2 l399 0 l63 353 q0 3 2 6 q-75 -6 -152 -11 q-90 -5 -172 -8 q-11 -1 -18 4.5 q-7 5.5 -8 12.5 q-2 9 8 16.5 q10 7.5 22 8.5 q84 3 174.5 9 q90.5 6 178 15 q87.5 9 165.5 20 q78 11 136 26 ZM921 644 q2 5 6.5 9 q4.5 4 9 6.5 q4.5 2.5 10.5 3 q6 0.5 9 -0.5 l1 0 q4 -2 6.5 -6 q2.5 -4 3.5 -9 q1 -5 0 -10.5 q-1 -5.5 -5 -10.5 q-33 -49 -70 -102.5 q-37 -53.5 -69 -94.5 q-6 -7 -15.5 -10.5 q-9.5 -3.5 -15.5 -0.5 q-3 1 -5 5 q-2 4 -2.5 9 q-0.5 5 0.5 10 q1 5 5 10 q16 20 33 44 q17 24 34.5 49.5 q17.5 25.5 33.5 51 q16 25.5 30 47.5 ZM321 613 q-1 6 -0.5 11.5 q0.5 5.5 2.5 10.5 q2 5 6.5 9 q4.5 4 9.5 5 q7 3 14.5 -1.5 q7.5 -4.5 9.5 -11.5 q18 -46 32.5 -97 q14.5 -51 20.5 -90 q1 -5 0 -9 q-1 -4 -3.5 -8.5 q-2.5 -4.5 -6 -8 q-3.5 -3.5 -8.5 -4.5 q-4 -2 -9 -1 q-5 1 -9 3.5 q-4 2.5 -7 7 q-3 4.5 -4 8.5 q-6 38 -18.5 85.5 q-12.5 47.5 -29.5 90.5 Z" /><glyph glyph-name="" unicode="&#x4e4f;" d="M223 466 q1 4 3.5 8 q2.5 4 7 7.5 q4.5 3.5 10 5 q5.5 1.5 9.5 1.5 l647 0 q5 0 9 -2 q2 0 3 -1 l1 1 q3 2 5 2 q2 0 4 0.5 q2 0.5 4 0.5 q2 1 6.5 0 q4.5 -1 6.5 -3 l3 -2 q4 -3 5.5 -8 q1.5 -5 1.5 -10 q0 -5 -2.5 -10.5 q-2.5 -5.5 -7.5 -9.5 q-55 -53 -126 -106.5 q-71 -53.5 -149.5 -103 q-78.5 -49.5 -160.5 -92.5 q-81 -42 -158 -73 q9 -8 20 -17 q42 -33 102.5 -42.5 q60.5 -9.5 148.5 -9.5 q84 0 170.5 3.5 q86.5 3.5 155.5 8.5 q16 2 22 -7.5 q6 -9.5 1 -21.5 q-3 -8 -12 -14 q-9 -6 -17 -7 q-30 -2 -73 -3.5 q-43 -1.5 -88.5 -2.5 q-45.5 -1 -90 -2 q-44.5 -1 -78.5 -1 q-47 0 -86 2.5 q-39 2.5 -71.5 9 q-32.5 6.5 -58.5 18 q-26 11.5 -48 29.5 q-12 11 -23.5 22 q-11.5 11 -21.5 21 q-10 10 -18.5 16 q-8.5 6 -16.5 6 q-23 0 -57.5 -29 q-34.5 -29 -79.5 -75 q-9 -11 -20.5 -12.5 q-11.5 -1.5 -17.5 8.5 l-2 2 q-4 7 -2 16 q2 9 8 16 q54 53 98.5 86.5 q44.5 33.5 80.5 33.5 q13 0 22.5 -5.5 q9.5 -5.5 19.5 -15.5 q3 -3 7 -6 q6 6 15 10 q80 32 161 75.5 q81 43.5 156.5 91.5 q75.5 48 140.5 99 q45 36 81 69 l-629 0 q-4 0 -8.5 1.5 q-4.5 1.5 -7.5 5 q-3 3.5 -4 7.5 q-1 4 -1 9 ZM997 805 q6 1 13.5 -2 q7.5 -3 9.5 -8 l2 -2 q3 -5 2.5 -9.5 q-0.5 -4.5 -4 -9.5 q-3.5 -5 -8.5 -8.5 q-5 -3.5 -11 -5.5 q-68 -14 -153 -25 q-85 -11 -177.5 -19.5 q-92.5 -8.5 -188 -14.5 q-95.5 -6 -182.5 -9 q-9 -1 -16 4 q-7 5 -8 11 q-1 5 2 9.5 q3 4.5 7.5 8.5 q4.5 4 11 6.5 q6.5 2.5 12.5 2.5 q88 4 183 10.5 q95 6.5 186.5 15.5 q91.5 9 173.5 20 q82 11 145 25 ZM551 642 q-2 4 -2 9 q0 5 2 10 q2 5 5 9.5 q3 4.5 8 6.5 q4 1 8 1 q4 0 8 -1 q4 -1 7.5 -3.5 q3.5 -2.5 5.5 -5.5 q16 -26 31 -53.5 q15 -27.5 24 -49.5 q3 -3 2.5 -8 q-0.5 -5 -2 -9.5 q-1.5 -4.5 -4.5 -8 q-3 -3.5 -7 -6.5 q-5 -2 -10 -2.5 q-5 -0.5 -9.5 1 q-4.5 1.5 -9 4.5 q-4.5 3 -6.5 8 q-10 21 -23.5 47.5 q-13.5 26.5 -27.5 50.5 Z" /><glyph glyph-name="" unicode="&#x4e50;" d="M625 619 q0 4 3 9 q3 5 7.5 8.5 q4.5 3.5 8.5 6 q4 2.5 9 2.5 l1 0 q4 0 8 -2.5 q4 -2.5 6.5 -6 q2.5 -3.5 3 -8.5 q0.5 -5 0.5 -9 l-34 -193 l354 0 q5 0 9.5 -2 q4.5 -2 7.5 -5.5 q3 -3.5 4.5 -7.5 q1.5 -4 0.5 -8 l0 -1 q-1 -4 -4 -8.5 q-3 -4.5 -7 -7.5 q-4 -3 -9.5 -5.5 q-5.5 -2.5 -10.5 -2.5 l-354 0 l-67 -383 q-5 -28 -16 -41 q-11 -13 -31 -19 q-19 -6 -53 -7 q-34 -1 -91 -2 q-7 0 -13 5 q-6 5 -6 10 q-3 12 6 21.5 q9 9.5 23 8.5 q40 -1 66.5 -0.5 q26.5 0.5 38.5 1.5 q14 1 20 5.5 q6 4.5 8 16.5 l68 384 l-253 0 q-25 0 -42 -0.5 q-17 -0.5 -29 -1.5 q-7 -1 -14.5 0 q-7.5 1 -13.5 4 q-1 1 -3 2 l-3 0 q-5 0 -8.5 3 q-3.5 3 -4.5 8 q0 4 1.5 10 q1.5 6 4.5 12 l7 13 q3 7 5 12 q2 3 3 5 l1 4 q1 3 4.5 9 q3.5 6 8.5 19 q4 11 14 36 q10 25 21.5 57 q11.5 32 23.5 70.5 q12 38.5 21 78.5 q2 6 5.5 11 q3.5 5 8.5 8 l2 2 q2 2 5 4 q4 4 10 6.5 q6 2.5 13 2.5 q79 2 164 7 q85 5 166.5 13 q81.5 8 154.5 18.5 q73 10.5 126 24.5 q6 1 13 -1.5 q7 -2.5 9 -6.5 l1 -1 q4 -5 4 -10.5 q0 -5.5 -3 -10.5 q-3 -5 -8.5 -9 q-5.5 -4 -12.5 -6 q-60 -14 -134.5 -24.5 q-74.5 -10.5 -157 -18 q-82.5 -7.5 -166.5 -11.5 q-80 -5 -152 -7 q-22 -77 -51 -157 q-25 -70 -50 -127 l318 0 l34 193 ZM303 256 q5 7 15 11 q10 4 15 2 l1 0 q4 -2 7 -6 q3 -4 3.5 -8.5 q0.5 -4.5 -1 -10 q-1.5 -5.5 -5.5 -10.5 q-47 -61 -105 -120 q-58 -59 -113 -105 q-3 -4 -8.5 -6 q-5.5 -2 -10 -2 q-4.5 0 -8.5 1 q-4 1 -7 4 q-3 3 -3.5 8 q-0.5 5 0.5 10.5 q1 5.5 4 10.5 q3 5 8 10 q54 43 108.5 98.5 q54.5 55.5 99.5 112.5 ZM782 230 q-4 4 -4.5 9.5 q-0.5 5.5 1 10.5 q1.5 5 4.5 9.5 q3 4.5 9 6.5 q6 3 14 1 q8 -2 12 -7 q22 -26 43 -54.5 q21 -28.5 41 -57.5 q20 -29 37 -56 q17 -27 30 -50 q2 -5 1.5 -9.5 q-0.5 -4.5 -1.5 -9 q-1 -4.5 -4.5 -8.5 q-3.5 -4 -7.5 -7 q-5 -3 -10 -3 q-5 0 -9.5 1 q-4.5 1 -8 4 q-3.5 3 -5.5 7 q-12 23 -28 49.5 q-16 26.5 -35.5 54 q-19.5 27.5 -39 55.5 q-19.5 28 -39.5 54 Z" /><glyph glyph-name="" unicode="&#x4e58;" d="M623 731 q1 2 2 5 q-71 -6 -143 -10 q-88 -6 -169 -8 q-9 -1 -16 3.5 q-7 4.5 -8 11.5 q-1 10 8.5 18 q9.5 8 22.5 8 q82 4 170.5 9.5 q88.5 5.5 174 13 q85.5 7.5 162 17.5 q76.5 10 133.5 22 q8 1 15 -2 q7 -3 10 -9 q1 -5 -0.5 -10.5 q-1.5 -5.5 -4.5 -10 q-3 -4.5 -8.5 -7.5 q-5.5 -3 -11.5 -4 q-63 -12 -141 -22 q-71 -9 -148 -16 q1 -5 1 -9 l-20 -112 l383 0 q6 0 10.5 -1.5 q4.5 -1.5 7.5 -5 q3 -3.5 4.5 -7.5 q1.5 -4 0.5 -8 q0 -5 -3 -8.5 q-3 -3.5 -7.5 -7 q-4.5 -3.5 -9.5 -5.5 q-5 -2 -10 -2 l-384 0 l-43 -241 q5 -3 7 -8 q22 -49 56.5 -96.5 q34.5 -47.5 78 -89 q43.5 -41.5 94 -74.5 q50.5 -33 104.5 -56 q14 -5 16.5 -16 q2.5 -11 -6.5 -20 q-4 -6 -13 -8.5 q-9 -2.5 -16 1.5 q-57 22 -109.5 58 q-52.5 36 -97.5 80 q-45 44 -81 95 q-25 35 -44 71 l-56 -318 q-1 -4 -3.5 -9 q-2.5 -5 -7 -8.5 q-4.5 -3.5 -8.5 -6 q-4 -2.5 -9 -2.5 l-1 0 q-4 0 -8 2.5 q-4 2.5 -6.5 6 q-2.5 3.5 -4 8.5 q-1.5 5 -0.5 9 l55 314 q-28 -33 -62 -65 q-55 -51 -115.5 -94.5 q-60.5 -43.5 -126 -78.5 q-65.5 -35 -131.5 -58 q-7 -3 -16 -0.5 q-9 2.5 -11 7.5 q-6 10 1 21 q7 11 22 17 q63 21 125.5 53.5 q62.5 32.5 121 73.5 q58.5 41 109 88 q50.5 47 89.5 97 l6 6 l43 241 l-382 0 q-5 0 -9.5 2 q-4.5 2 -7.5 5.5 q-3 3.5 -4.5 7 q-1.5 3.5 -1.5 8.5 q1 4 4 8 q3 4 7.5 7.5 q4.5 3.5 9.5 5 q5 1.5 10 1.5 l382 0 l19 112 ZM761 517 q1 5 3.5 9 q2.5 4 6.5 8 q4 4 8 6 q4 2 8.5 2 q4.5 0 8.5 -2 q4 -2 6 -6 q2 -4 3 -8 q1 -4 0 -9 l-16 -91 q41 14 82 31 q44 17 76 33 q8 3 16.5 1.5 q8.5 -1.5 13.5 -6.5 q3 -5 3 -10 q0 -5 -2 -10 q-2 -5 -7 -9 q-5 -4 -12 -6 q-37 -17 -81 -32.5 q-44 -15.5 -86 -30.5 q-5 -1 -10 -1 l-19 -109 q-3 -16 3 -20.5 q6 -4.5 31 -4.5 l122 0 q16 0 23.5 8.5 q7.5 8.5 15.5 42.5 q2 5 6 9 q4 4 8.5 7.5 q4.5 3.5 9.5 4.5 q5 1 11 0 q1 -2 3.5 -5 q2.5 -3 3.5 -6.5 q1 -3.5 1 -8 q0 -4.5 -2 -8.5 q-6 -26 -13 -43 q-7 -17 -15.5 -26 q-8.5 -9 -21.5 -13 q-13 -4 -32 -4 l-130 0 q-23 0 -38.5 2.5 q-15.5 2.5 -23 10.5 q-7.5 8 -9 21 q-1.5 13 2.5 34 l42 239 ZM413 516 l5 9 q2 5 6 8.5 q4 3.5 8 6 q4 2.5 9 2.5 q4 0 7.5 -2.5 q3.5 -2.5 6 -6 q2.5 -3.5 3.5 -8.5 q1 -5 0 -9 l-48 -272 q-1 -5 -3.5 -9.5 q-2.5 -4.5 -6 -8.5 q-3.5 -4 -8 -6 q-4.5 -2 -8.5 -2 q-4 0 -8 2 q-4 2 -6.5 6 q-2.5 4 -3.5 8.5 q-1 4.5 0 9.5 l5 29 q-55 -12 -108 -22 q-55 -11 -103 -21 q-9 -2 -17 2.5 q-8 4.5 -9 11.5 q0 4 1.5 9 q1.5 5 5.5 9 q4 4 9.5 6.5 q5.5 2.5 10.5 3.5 q44 8 98.5 17.5 q54.5 9.5 113.5 21.5 q2 1 5 1 l19 109 l-185 0 q-11 0 -17.5 6.5 q-6.5 6.5 -5.5 14.5 q1 4 3.5 7.5 q2.5 3.5 7 6.5 q4.5 3 9.5 4.5 q5 1.5 10 1.5 l185 0 l9 54 Z" /><glyph glyph-name="" unicode="&#x4e5d;" d="M534 798 q1 5 4 10 q3 5 6.5 8.5 q3.5 3.5 8 6 q4.5 2.5 9.5 2.5 l2 0 q5 0 8.5 -2.5 q3.5 -2.5 6.5 -6 q3 -3.5 3.5 -8 q0.5 -4.5 0.5 -9.5 q-17 -88 -34 -175 q-6 -27 -12 -53 l281 0 q5 0 9 -2.5 q4 -2.5 6 -5.5 q3 -4 4 -8 q1 -4 1 -7 l0 -1 q-1 -2 -1 -3 l-91 -519 q-5 -23 1 -30.5 q6 -7.5 32 -7.5 l125 0 q10 0 17 4 q7 4 13 15.5 q6 11.5 12 31 q6 19.5 12 49.5 q5 16 15 23 q10 7 21 2 q6 -3 9 -11 q3 -8 2 -16 q-10 -41 -19.5 -69 q-9.5 -28 -20.5 -44.5 q-11 -16.5 -27.5 -23.5 q-16.5 -7 -39.5 -7 l-131 0 q-24 0 -39.5 3.5 q-15.5 3.5 -23.5 13 q-8 9.5 -9.5 26.5 q-1.5 17 3.5 42 l87 498 l-259 0 q-9 -35 -19 -70 q-24 -82 -57.5 -157.5 q-33.5 -75.5 -81 -141.5 q-47.5 -66 -112 -121.5 q-64.5 -55.5 -150.5 -96.5 q-4 -2 -9 -3 q-5 -1 -9 0 q-4 1 -7.5 2.5 q-3.5 1.5 -5.5 4.5 q-7 8 -2.5 19.5 q4.5 11.5 16.5 19.5 q122 59 198 147 q76 88 123 195 q42 95 68 202 l-256 0 q-5 0 -8.5 2 q-3.5 2 -7 5 q-3.5 3 -5 7 q-1.5 4 -0.5 9 l0 1 q1 4 3.5 8 q2.5 4 7 7.5 q4.5 3.5 9 5.5 q4.5 2 9.5 2 l259 0 q24 112 45 227 Z" /><glyph glyph-name="" unicode="&#x4e5f;" d="M131 392 q-1 5 1 9.5 q2 4.5 5 8.5 q3 4 7.5 7.5 q4.5 3.5 9.5 4.5 l174 50 l47 268 q2 5 4.5 10 q2.5 5 6.5 9 q4 4 8.5 6 q4.5 2 9.5 2 q4 0 7.5 -2 q3.5 -2 6.5 -6 q3 -4 4 -8.5 q1 -4.5 0 -10.5 l-45 -254 l254 74 l44 246 q1 5 3.5 10 q2.5 5 7 8.5 q4.5 3.5 8.5 6 q4 2.5 9 2.5 q4 0 8 -2.5 q4 -2.5 6.5 -6 q2.5 -3.5 3.5 -8.5 q1 -5 0 -10 l-41 -232 l262 75 q5 2 10 1 l1 0 l8 8 q5 4 12.5 4.5 q7.5 0.5 11.5 -2.5 l2 -1 q6 -3 10.5 -8 q4.5 -5 3.5 -7 q0 -2 -1 -5 l-2 -6 q-26 -138 -50.5 -228.5 q-24.5 -90.5 -48.5 -135.5 q-21 -37 -44 -51.5 q-23 -14.5 -48 -16.5 q-18 -1 -43 -1 l-48 0 q-8 1 -15 5.5 q-7 4.5 -7 10.5 q-1 12 7.5 20 q8.5 8 22.5 7 q12 0 22 -0.5 q10 -0.5 19 -0.5 l31 0 q20 0 34.5 8.5 q14.5 8.5 32.5 40.5 q22 40 43 127 q19 77 40 189 l-274 -79 l-66 -369 q0 -5 -2.5 -10 q-2.5 -5 -6.5 -8.5 q-4 -3.5 -8.5 -5.5 q-4.5 -2 -9.5 -2 q-4 0 -7.5 2 q-3.5 2 -6.5 5.5 q-3 3.5 -4 8.5 q-1 5 -1 10 l63 355 l-254 -73 l-63 -360 q-5 -26 -2.5 -43.5 q2.5 -17.5 13.5 -28 q11 -10.5 34.5 -14.5 q23.5 -4 59.5 -4 l385 0 q33 0 55 6.5 q22 6.5 38 24 q16 17.5 28.5 46.5 q12.5 29 24.5 74 q6 14 16.5 21 q10.5 7 21.5 3 q6 -3 8.5 -11 q2.5 -8 0.5 -16 q-15 -54 -29.5 -91 q-14.5 -37 -36 -59.5 q-21.5 -22.5 -54.5 -32.5 q-33 -10 -85 -10 l-375 0 q-49 0 -81.5 6.5 q-32.5 6.5 -50 21.5 q-17.5 15 -21 42 q-3.5 27 3.5 68 l60 342 l-161 -46 q-5 -2 -9.5 -1.5 q-4.5 0.5 -8.5 2.5 q-4 2 -6.5 5 q-2.5 3 -3.5 6 Z" /><glyph glyph-name="" unicode="&#x4e60;" d="M275 731 q1 4 4 8 q3 4 7 7 q4 3 9 5 q5 2 9 2 l700 0 q5 0 9.5 -2 q4.5 -2 7 -5 q2.5 -3 4 -7 q1.5 -4 1.5 -8 l0 -2 l-1 -1 l-1 -6 l0 -1 q-38 -201 -65.5 -337.5 q-27.5 -136.5 -47.5 -222.5 q-20 -86 -36.5 -130 q-16.5 -44 -33.5 -62 q-17 -20 -34.5 -27.5 q-17.5 -7.5 -41.5 -8.5 q-24 -1 -57 -0.5 q-33 0.5 -69 2.5 q-9 0 -15.5 5.5 q-6.5 5.5 -6.5 12.5 q-2 11 8.5 19.5 q10.5 8.5 25.5 7.5 q19 -1 35 -1.5 q16 -0.5 29.5 -1 q13.5 -0.5 24.5 -0.5 l20 0 q12 -1 22 2 q10 3 19 13 q14 14 30 58.5 q16 44.5 37 132.5 q21 88 48 224 q26 125 60 301 l-680 0 q-4 0 -8 2 q-4 2 -7.5 5 q-3.5 3 -5 7 q-1.5 4 -0.5 9 ZM159 95 q-2 4 -0.5 9.5 q1.5 5.5 4.5 10 q3 4.5 7.5 8.5 q4.5 4 11.5 5 q54 17 121.5 37.5 q67.5 20.5 143.5 44.5 q76 24 156 49 l160 50 q6 3 11 2 q5 -1 9.5 -3 q4.5 -2 7 -6 q2.5 -4 3.5 -9 q0 -7 -7.5 -15.5 q-7.5 -8.5 -15.5 -10.5 q-78 -25 -156.5 -50 q-78.5 -25 -154.5 -49.5 q-76 -24.5 -145.5 -46.5 q-69.5 -22 -127.5 -40 q-4 -2 -9.5 -1.5 q-5.5 0.5 -9 2.5 q-3.5 2 -6.5 5 q-3 3 -3 7 l0 1 ZM382 556 q-3 3 -5.5 8 q-2.5 5 -2.5 10 q0 5 1.5 10 q1.5 5 6.5 8 q6 5 15 5 q9 0 15 -4 q29 -21 58 -44 q29 -23 57 -47 q28 -24 52 -46.5 q24 -22.5 43 -42.5 q3 -3 4.5 -7.5 q1.5 -4.5 0.5 -9 q-1 -4.5 -3 -9 q-2 -4.5 -6 -7.5 l0 -1 q-3 -4 -8 -5.5 q-5 -1.5 -10 -1.5 q-5 0 -10 2 q-5 2 -9 5 q-17 19 -40 41.5 q-23 22.5 -50 45.5 q-27 23 -54.5 46 q-27.5 23 -54.5 44 Z" /><glyph glyph-name="" unicode="&#x4e66;" d="M601 805 q0 4 2.5 9 q2.5 5 7 8.5 q4.5 3.5 9 6 q4.5 2.5 9.5 2.5 q5 0 8.5 -2.5 q3.5 -2.5 6 -6 q2.5 -3.5 3.5 -8.5 q1 -5 1 -9 l-27 -151 l280 0 q5 0 9.5 -2 q4.5 -2 7.5 -5.5 q3 -3.5 4.5 -8.5 q1.5 -5 0.5 -10 l-43 -244 l118 0 q5 0 9.5 -2 q4.5 -2 7.5 -5 q3 -3 5 -7 q2 -4 1 -8 q-1 -5 -4 -9 q0 -1 -1 -1 q-18 -71 -32 -121 q-15 -53 -28 -88.5 q-13 -35.5 -25 -56.5 q-12 -21 -25 -31 q-15 -13 -30 -17 q-15 -4 -37 -6 q-20 -1 -54 0 q-34 1 -73 3 q-8 1 -15 6 q-7 5 -7 11 q-2 12 8.5 20 q10.5 8 26.5 7 q18 -1 33.5 -2 q15.5 -1 29 -1.5 q13.5 -0.5 25.5 -0.5 l19 0 q15 0 24.5 1.5 q9.5 1.5 17.5 7.5 q10 8 20.5 27.5 q10.5 19.5 22 53.5 q11.5 34 26.5 86 q10 38 23 88 l-401 0 l-69 -388 q0 -4 -2.5 -9 q-2.5 -5 -6.5 -8.5 q-4 -3.5 -8.5 -5.5 q-4.5 -2 -9.5 -2 q-5 0 -8.5 2 q-3.5 2 -6.5 5.5 q-3 3.5 -4 8.5 q-1 5 0 9 l68 388 l-349 0 q-6 0 -10 1.5 q-4 1.5 -7 5 q-3 3.5 -5 7.5 q-2 4 -1 9 q2 4 4.5 8 q2.5 4 6.5 7 q4 3 9 5 q5 2 10 2 l350 0 l40 225 l-278 0 q-4 0 -9 1.5 q-5 1.5 -7.5 5.5 q-2.5 4 -4 8 q-1.5 4 -0.5 8 q0 5 3 8.5 q3 3.5 7.5 7 q4.5 3.5 9.5 5 q5 1.5 9 1.5 l278 0 l27 151 ZM613 609 l-40 -225 l261 0 l38 219 q0 2 -1.5 4 q-1.5 2 -3.5 2 l-254 0 ZM913 748 q-4 3 -6 8 q-2 5 -2 9.5 q0 4.5 1.5 9.5 q1.5 5 5.5 9 q5 4 14 4.5 q9 0.5 14 -3.5 q34 -26 67 -55.5 q33 -29.5 57 -53.5 q3 -3 4 -7 q1 -4 1 -9 q0 -5 -1.5 -9.5 q-1.5 -4.5 -4.5 -8.5 q-4 -3 -9 -4.5 q-5 -1.5 -10 -2 q-5 -0.5 -9.5 1.5 q-4.5 2 -7.5 5 q-22 24 -52 52.5 q-30 28.5 -62 53.5 Z" /><glyph glyph-name="" unicode="&#x4e70;" d="M659 614 q2 4 4.5 8.5 q2.5 4.5 6.5 8 q4 3.5 8.5 6 q4.5 2.5 8.5 2.5 q5 0 9.5 -2.5 q4.5 -2.5 7 -6.5 q2.5 -4 3 -9 q0.5 -5 -0.5 -9 q-29 -145 -64 -257 q-11 -36 -25 -69 l360 0 q4 0 8.5 -2 q4.5 -2 7.5 -5.5 q3 -3.5 5 -7.5 q2 -4 0 -8 q-1 -4 -3.5 -8 q-2.5 -4 -6.5 -7 q-4 -3 -9.5 -5.5 q-5.5 -2.5 -10.5 -2.5 l-372 0 q-22 -43 -51 -81 q-62 -84 -163 -141 q-101 -57 -263 -90 q-10 -2 -18.5 1.5 q-8.5 3.5 -10.5 9.5 q-4 11 3.5 20 q7.5 9 22.5 12 q101 21 176 51.5 q75 30.5 129.5 71 q54.5 40.5 91.5 93.5 q18 25 33 53 l-387 0 q-5 0 -9 2.5 q-4 2.5 -7 5.5 q-3 3 -5 7 q-2 4 -1 8 q1 4 3.5 8 q2.5 4 7 7.5 q4.5 3.5 10 5.5 q5.5 2 9.5 2 l401 0 q4 8 8 17 q27 65 46 142.5 q19 77.5 37 168.5 ZM268 738 q1 5 4 9 q3 4 7 7.5 q4 3.5 9.5 5 q5.5 1.5 9.5 1.5 l711 0 q4 0 8 -2 l2 0 l2 2 q1 2 4 2 q2 0 4 0.5 q2 0.5 4 0.5 q2 1 5.5 0.5 q3.5 -0.5 6.5 -1.5 l3 -1 q4 -2 6.5 -6 q2.5 -4 3.5 -8.5 q1 -4.5 0 -10 q-1 -5.5 -4 -9.5 q-29 -47 -59 -93.5 q-30 -46.5 -59 -80.5 q-6 -7 -16 -10 q-10 -3 -16 0 q-4 2 -5.5 6 q-1.5 4 -1 9 q0.5 5 2.5 11 q2 6 6 10 q27 35 56 79 q18 29 35 57 l-707 0 q-5 0 -9 2 q-4 2 -7 5 q-3 3 -4.5 7 q-1.5 4 -1.5 8 ZM610 126 q-5 3 -8.5 7 q-3.5 4 -4.5 8.5 q-1 4.5 0 9.5 q1 5 5 9 q5 4 13 5.5 q8 1.5 15 -1.5 q81 -42 156 -90 q75 -48 128 -93 q5 -3 7 -7.5 q2 -4.5 2 -9.5 q0 -5 -2.5 -10 q-2.5 -5 -5.5 -9 q-5 -5 -15 -5.5 q-10 -0.5 -17 4.5 q-51 43 -123 90.5 q-72 47.5 -150 91.5 ZM254 445 q-5 3 -8 7 q-3 4 -4.5 9 q-1.5 5 0 9.5 q1.5 4.5 4.5 7.5 q4 5 12.5 7 q8.5 2 14.5 -1 q41 -17 81 -40 q40 -23 66 -45 q3 -1 5.5 -5 q2.5 -4 2.5 -8.5 q0 -4.5 -1 -8.5 q-1 -4 -3 -7 q-4 -4 -9 -6.5 q-5 -2.5 -10 -2.5 q-5 0 -10 1 q-5 1 -8 4 q-25 20 -60.5 41 q-35.5 21 -72.5 38 ZM389 594 q-6 3 -9 7 q-3 4 -5 9 q-2 5 -0.5 9.5 q1.5 4.5 5.5 8.5 q4 4 12.5 5.5 q8.5 1.5 14.5 -1.5 q39 -17 77.5 -40.5 q38.5 -23.5 63.5 -45.5 q5 -3 6.5 -6.5 q1.5 -3.5 2 -8 q0.5 -4.5 -1 -9 q-1.5 -4.5 -4.5 -8.5 q-3 -3 -8 -4.5 q-5 -1.5 -10 -2 q-5 -0.5 -9.5 1 q-4.5 1.5 -9.5 4.5 q-23 20 -56.5 41.5 q-33.5 21.5 -68.5 39.5 Z" /><glyph glyph-name="" unicode="&#x4e71;" d="M159 531 q1 4 3.5 7.5 q2.5 3.5 6.5 7 q4 3.5 9.5 5 q5.5 1.5 9.5 1.5 l215 0 l30 174 q-40 -6 -81 -11 q-55 -8 -107 -14 q-10 -1 -17.5 3 q-7.5 4 -7.5 9 q-2 9 6.5 17.5 q8.5 8.5 22.5 10.5 q52 6 108.5 14 q56.5 8 109.5 17.5 q53 9.5 100 21 q47 11.5 83 23.5 q6 3 13 1 q7 -2 10 -5 l0 -1 q5 -5 6 -10.5 q1 -5.5 -1.5 -11 q-2.5 -5.5 -7 -9.5 q-4.5 -4 -12.5 -6 q-42 -12 -92 -24 q-41 -9 -85 -17 q0 -2 -1 -4 l-31 -178 l207 0 q5 0 9.5 -1.5 q4.5 -1.5 7.5 -5 q3 -3.5 5 -7 q2 -3.5 1 -8 q-1 -4.5 -3.5 -8.5 q-2.5 -4 -7 -7.5 q-4.5 -3.5 -10 -5 q-5.5 -1.5 -9.5 -1.5 l-208 0 l-33 -189 l158 0 q5 0 9.5 -2.5 q4.5 -2.5 7.5 -6 q3 -3.5 4.5 -8 q1.5 -4.5 0.5 -9.5 l-57 -320 q-1 -5 -3.5 -9.5 q-2.5 -4.5 -6.5 -8 q-4 -3.5 -8.5 -5.5 q-4.5 -2 -8.5 -2 q-5 0 -8.5 2 q-3.5 2 -6.5 5.5 q-3 3.5 -4 8.5 q-1 5 0 10 l3 20 l-322 0 l-4 -24 q-1 -5 -3.5 -10 q-2.5 -5 -6.5 -8.5 q-4 -3.5 -8.5 -5.5 q-4.5 -2 -8.5 -2 q-5 0 -8 2 q-3 2 -6 5.5 q-3 3.5 -4 8 q-1 4.5 0 9.5 l58 324 q0 5 3 9.5 q3 4.5 7.5 8 q4.5 3.5 10 6 q5.5 2.5 10.5 2.5 l156 0 l33 189 l-215 0 q-4 0 -8.5 1.5 q-4.5 1.5 -7.5 5 q-3 3.5 -4.5 7.5 q-1.5 4 -0.5 9 ZM174 38 l322 0 l41 231 q1 2 -1 3.5 q-2 1.5 -4 1.5 l-312 0 q-2 0 -3.5 -1.5 q-1.5 -1.5 -2.5 -3.5 l-40 -231 ZM782 798 q0 5 3.5 9.5 q3.5 4.5 7 8.5 q3.5 4 8 6 q4.5 2 8.5 2 q5 0 8.5 -2 q3.5 -2 7 -6 q3.5 -4 4 -8.5 q0.5 -4.5 -0.5 -9.5 l-133 -754 q-7 -37 0.5 -47.5 q7.5 -10.5 39.5 -10.5 l143 0 q13 0 23 6.5 q10 6.5 18.5 23 q8.5 16.5 16.5 45.5 q8 29 17 74 q4 15 13.5 22.5 q9.5 7.5 20.5 2.5 q5 -3 8.5 -10.5 q3.5 -7.5 2.5 -15.5 q-13 -54 -23.5 -90.5 q-10.5 -36.5 -24.5 -59 q-14 -22.5 -32.5 -32 q-18.5 -9.5 -46.5 -9.5 l-146 0 q-27 0 -45 4.5 q-18 4.5 -26.5 16 q-8.5 11.5 -9.5 31.5 q-1 20 4 50 l134 753 Z" /><glyph glyph-name="" unicode="&#x4e86;" d="M579 461 q2 5 5 10 q3 5 6.5 8.5 q3.5 3.5 8.5 5.5 q1 0 1 1 q1 0 1 1 q2 5 7.5 9.5 q5.5 4.5 10.5 7.5 q47 22 95 50.5 q48 28.5 94.5 58.5 q46.5 30 87.5 61 q20 16 38 31 l-666 0 q-4 0 -8.5 1.5 q-4.5 1.5 -7.5 5.5 q-3 4 -4.5 8 q-1.5 4 0.5 8 q0 5 3 9 q3 4 7 7 q4 3 9 5 q5 2 9 2 l687 0 q5 0 9 -2 q2 -1 3 -2 l1 1 q3 3 7 3 l4 0 q1 0 3 1 q3 0 7.5 -1 q4.5 -1 7.5 -3 l4 -4 q3 -3 4.5 -7.5 q1.5 -4.5 1.5 -10 q0 -5.5 -2.5 -10.5 q-2.5 -5 -7.5 -9 q-39 -34 -84.5 -67.5 q-45.5 -33.5 -94.5 -65 q-49 -31.5 -99 -59.5 q-50 -28 -97 -50 l-2 0 l0 -4 l-81 -463 q-6 -30 -18 -43.5 q-12 -13.5 -38 -19.5 q-23 -6 -66 -7 q-43 -1 -115 -1 q-8 0 -14.5 5.5 q-6.5 5.5 -8.5 11.5 q-2 12 6.5 21 q8.5 9 23.5 8 q56 -2 94 -1.5 q38 0.5 55 2.5 q16 0 23 5 q7 5 10 19 l80 463 Z" /><glyph glyph-name="" unicode="&#x4e88;" d="M574 408 q1 4 4 9 q1 2 2 3 l-402 0 q-5 0 -9.5 2.5 q-4.5 2.5 -7.5 5.5 q-3 3 -4.5 7 q-1.5 4 -0.5 8 q0 5 3 9 q3 4 7.5 7.5 q4.5 3.5 9.5 5 q5 1.5 10 1.5 l523 0 q-19 12 -41 25 q-34 21 -71.5 42 q-37.5 21 -77 42.5 q-39.5 21.5 -76.5 39.5 q-5 3 -8.5 7 q-3.5 4 -4 9 q-0.5 5 1 10 q1.5 5 4.5 9 q5 4 13.5 6 q8.5 2 15.5 0 q36 -19 76 -39.5 q40 -20.5 79 -41.5 q6 -3 11 -6 q1 2 3 3 q5 5 11 9 q36 18 74.5 40.5 q38.5 22.5 75.5 47 q37 24.5 71 49.5 q13 9 25 19 l-566 0 q-4 0 -9 1.5 q-5 1.5 -7.5 5 q-2.5 3.5 -4 7.5 q-1.5 4 -0.5 8 q0 5 3 8.5 q3 3.5 7.5 7 q4.5 3.5 9.5 5 q5 1.5 9 1.5 l591 0 q4 0 9 -2 l1 0 q3 2 7 2 l4 0 q1 0 2 1 q4 0 8 -0.5 q4 -0.5 7 -3.5 l2 -2 q4 -3 5.5 -8 q1.5 -5 1.5 -10.5 q0 -5.5 -3 -10.5 q-3 -5 -8 -9 q-33 -27 -71 -54 q-38 -27 -77.5 -52 q-39.5 -25 -78.5 -48 q-33 -19 -65 -36 q14 -7 26 -15 q35 -20 63 -37 q4 -2 7 -6.5 q3 -4.5 4 -9 q1 -4.5 -1 -9.5 q0 -3 -1 -5 l217 0 q5 0 9 -1 q1 -1 2 -1 q2 2 5 2 q2 0 3.5 0.5 q1.5 0.5 3.5 1.5 q3 1 6.5 0.5 q3.5 -0.5 6.5 -2.5 l4 -2 q4 -2 6.5 -6 q2.5 -4 3 -9.5 q0.5 -5.5 -1 -10.5 q-1.5 -5 -5.5 -9 q-48 -54 -99 -107 q-51 -53 -97 -90 q-3 -3 -7 -4.5 q-4 -1.5 -8 -2.5 q-4 -1 -7.5 -0.5 q-3.5 0.5 -7.5 1.5 l0 1 q-4 2 -5.5 6.5 q-1.5 4.5 -1 9.5 q0.5 5 3.5 10.5 q3 5.5 7 9.5 q44 38 93 88 q34 35 64 69 l-340 0 q0 -1 1 -3 q1 -5 0 -9 l-72 -411 q-5 -27 -16 -39.5 q-11 -12.5 -34 -18.5 q-20 -6 -56.5 -7 q-36.5 -1 -95.5 -1 q-8 0 -14.5 4.5 q-6.5 4.5 -9.5 10.5 q-2 12 7 21 q9 9 23 8 l76 0 q31 0 46 1 q13 1 18.5 5.5 q5.5 4.5 7.5 15.5 l72 411 Z" /><glyph glyph-name="" unicode="&#x4e89;" d="M581 522 q1 3 3 6 l-264 0 q-6 0 -10.5 2 q-4.5 2 -7.5 5 q-3 3 -4.5 6.5 q-1.5 3.5 -1.5 8.5 q1 4 4 8 q-18 -12 -37 -24 q-9 -5 -18 -4.5 q-9 0.5 -13 5.5 q-7 8 -3 20 q4 12 18 21 q91 55 162.5 121 q71.5 66 118.5 125 q4 6 13 9.5 q9 3.5 15 2.5 l1 -1 q7 -1 11.5 -4.5 q4.5 -3.5 5 -8.5 q0.5 -5 -0.5 -11 q-1 -6 -6 -11 q-20 -24 -42 -47 l270 0 q5 0 9.5 -2 q4.5 -2 7.5 -4 q0 -1 1 -1 q0 3 3 5 q3 2 5 2 l4 0 q1 0 3 1 q2 0 6 -1 q4 -1 6 -3 l5 -4 q4 -2 5.5 -6.5 q1.5 -4.5 1.5 -9.5 q0 -5 -2 -9.5 q-2 -4.5 -5 -8.5 q-34 -42 -77 -83 q-33 -30 -63 -55 l209 0 q4 0 8 -2 q4 -2 7.5 -6 q3.5 -4 4.5 -9 q1 -5 0 -10 l-27 -152 l112 0 q5 0 9.5 -1.5 q4.5 -1.5 7.5 -4.5 q3 -3 4.5 -7 q1.5 -4 1.5 -8 l-4 -8 q-2 -4 -6.5 -7.5 q-4.5 -3.5 -10 -5.5 q-5.5 -2 -9.5 -2 l-112 0 l-28 -159 q-2 -5 -4.5 -10 q-2.5 -5 -6.5 -9 q-4 -4 -8.5 -6 q-4.5 -2 -9.5 -2 l-3 0 q-4 -1 -8 -1 l-266 0 l-29 -165 q-5 -27 -16.5 -40.5 q-11.5 -13.5 -35.5 -20.5 q-22 -5 -59 -6 q-37 -1 -101 0 q-6 -1 -12.5 3.5 q-6.5 4.5 -7.5 10.5 q-4 12 4.5 21 q8.5 9 24.5 8 q48 -1 79.5 -1 q31.5 0 46.5 2 q15 1 20.5 6 q5.5 5 8.5 17 l29 165 l-305 0 q-4 0 -8.5 2 q-4.5 2 -8 5.5 q-3.5 3.5 -5 7 q-1.5 3.5 -0.5 8.5 q1 4 4 8 q3 4 7 7 q4 3 9 4.5 q5 1.5 10 1.5 l305 0 l25 143 l-395 0 q-5 0 -9 2 q-4 2 -7 5.5 q-3 3.5 -5 7.5 q-2 4 -1 8 q0 4 3 8 q3 4 7.5 7 q4.5 3 9.5 4.5 q5 1.5 9 1.5 l396 0 l22 129 ZM654 572 q1 3 4 6 q4 6 9 10 q37 31 76 72 q23 25 43 48 l-275 0 q-8 0 -13 3 q-5 2 -6 6 q-27 -27 -57 -54 q-54 -48 -116 -92 q3 1 6 1 l329 0 ZM853 349 l-254 0 l-26 -143 l254 0 l26 143 ZM606 393 l255 0 l23 129 q0 2 -1.5 4 q-1.5 2 -3.5 2 l-249 0 q0 -3 -1 -6 l-23 -129 Z" /><glyph glyph-name="" unicode="&#x4e8b;" d="M635 809 q2 4 5 9 q3 5 6.5 8.5 q3.5 3.5 8.5 6 q5 2.5 9 2.5 l1 0 q4 0 7.5 -2.5 q3.5 -2.5 6.5 -6 q3 -3.5 4 -8.5 q1 -5 0 -9 l-11 -64 l386 0 q10 0 16.5 -6.5 q6.5 -6.5 5.5 -13.5 q-2 -8 -11 -14.5 q-9 -6.5 -19 -6.5 l-386 0 l-12 -72 l284 0 q5 0 9 -2 q4 -2 7 -6 q3 -4 4.5 -8.5 q1.5 -4.5 1.5 -9.5 l-20 -110 q-1 -5 -4 -10 q-3 -5 -7.5 -8.5 q-4.5 -3.5 -9.5 -6 q-5 -2.5 -9 -2.5 l-285 0 l-15 -87 l298 0 q5 0 9.5 -2 q4.5 -2 7.5 -5.5 q3 -3.5 4.5 -8.5 q1.5 -5 0.5 -10 l-18 -99 l79 0 q9 0 16.5 -6.5 q7.5 -6.5 5.5 -13.5 q-1 -8 -10.5 -14.5 q-9.5 -6.5 -18.5 -6.5 l-79 0 l-27 -154 q0 -5 -3 -9.5 q-3 -4.5 -6.5 -8.5 q-3.5 -4 -8.5 -6 q-5 -2 -9 -2 l-1 0 q-4 0 -7.5 2 q-3.5 2 -6.5 6 q-3 4 -4 8.5 q-1 4.5 -1 9.5 l4 20 l-278 0 l-16 -90 q-5 -30 -17 -42.5 q-12 -12.5 -33 -18.5 q-19 -5 -53.5 -6 q-34.5 -1 -89.5 -2 q-7 0 -13.5 4.5 q-6.5 4.5 -8.5 10.5 q-2 11 7.5 20 q9.5 9 23.5 8 q39 -1 67.5 -0.5 q28.5 0.5 40.5 1.5 q14 1 20.5 6 q6.5 5 8.5 19 l15 90 l-309 0 q-11 0 -18.5 6.5 q-7.5 6.5 -5.5 14.5 q1 7 10.5 13.5 q9.5 6.5 20.5 6.5 l310 0 l16 93 l-393 0 q-9 0 -15.5 6.5 q-6.5 6.5 -5.5 14.5 q1 7 10 13.5 q9 6.5 18 6.5 l393 0 l16 86 l-301 0 q-11 0 -17.5 6.5 q-6.5 6.5 -5.5 13.5 q2 7 10.5 13 q8.5 6 19.5 6 l300 0 l16 87 l-269 0 q-5 0 -9.5 2.5 q-4.5 2.5 -7.5 6 q-3 3.5 -4.5 8.5 q-1.5 5 -0.5 10 l20 110 q0 5 3 9.5 q3 4.5 7.5 8.5 q4.5 4 10 6 q5.5 2 9.5 2 l269 0 l13 72 l-375 0 q-10 0 -17 6.5 q-7 6.5 -6 14.5 q2 7 11 13.5 q9 6.5 19 6.5 l375 0 l11 64 ZM578 216 l-16 -93 l278 0 l17 93 l-279 0 ZM601 343 l-15 -86 l278 0 l14 80 q1 2 -0.5 4 q-1.5 2 -3.5 2 l-273 0 ZM645 594 l-15 -86 l257 0 q3 0 5.5 2 q2.5 2 2.5 4 l13 74 q0 2 -1.5 4 q-1.5 2 -4.5 2 l-257 0 ZM355 594 q-3 0 -5.5 -2 q-2.5 -2 -2.5 -4 l-14 -74 q0 -2 1.5 -4 q1.5 -2 4.5 -2 l244 0 l15 86 l-243 0 Z" /><glyph glyph-name="" unicode="&#x4e8c;" d="M89 63 q1 5 4 9 q3 4 7 7.5 q4 3.5 9 5 q5 1.5 9 1.5 l835 0 q4 0 8.5 -1.5 q4.5 -1.5 7.5 -5 q3 -3.5 4.5 -7.5 q1.5 -4 0.5 -9 l0 -3 q-1 -5 -4 -9 q-3 -4 -7 -7.5 q-4 -3.5 -9 -5.5 q-5 -2 -10 -2 l-835 0 q-4 0 -8 2 q-4 2 -7.5 5.5 q-3.5 3.5 -4.5 7.5 q-1 4 0 9 l0 3 ZM281 665 q1 5 3.5 9 q2.5 4 7 7 q4.5 3 9.5 5 q5 2 9 2 l663 0 q4 0 9 -2 q5 -2 7.5 -5 q2.5 -3 4 -7 q1.5 -4 1.5 -9 l-1 -2 q-1 -5 -4 -9 q-3 -4 -7 -7.5 q-4 -3.5 -9 -5.5 q-5 -2 -10 -2 l-662 0 q-4 0 -9 2 q-5 2 -8 5.5 q-3 3.5 -4 7.5 q-1 4 0 9 l0 2 Z" /><glyph glyph-name="" unicode="&#x4e8e;" d="M148 404 q2 5 4.5 9 q2.5 4 7 7.5 q4.5 3.5 9 5.5 q4.5 2 9.5 2 l402 0 l50 284 l-332 0 q-4 0 -8 2 q-4 2 -7 5 q-3 3 -5 7 q-2 4 -1 9 q1 5 4 8.5 q3 3.5 7 7.5 q4 4 9 5.5 q5 1.5 10 1.5 l695 0 q5 0 8.5 -1.5 q3.5 -1.5 6.5 -5.5 q3 -4 4.5 -7.5 q1.5 -3.5 1.5 -8.5 q-2 -5 -4 -9 q-2 -4 -6.5 -7 q-4.5 -3 -9.5 -5 q-5 -2 -10 -2 l-315 0 l-50 -284 l386 0 q4 0 8.5 -2 q4.5 -2 7.5 -5.5 q3 -3.5 4.5 -7.5 q1.5 -4 0.5 -9 q-1 -4 -4 -8 q-3 -4 -7 -7.5 q-4 -3.5 -8.5 -5.5 q-4.5 -2 -9.5 -2 l-386 0 l-66 -373 q-6 -32 -19.5 -47 q-13.5 -15 -38.5 -21 q-22 -6 -64.5 -7 q-42.5 -1 -112.5 -2 q-8 0 -14 5 q-6 5 -9 12 q-2 12 6.5 22 q8.5 10 23.5 10 q53 -2 91 -1.5 q38 0.5 55 1.5 q16 1 23.5 6.5 q7.5 5.5 10.5 20.5 l65 374 l-401 0 q-5 0 -9 2 q-4 2 -7 5.5 q-3 3.5 -4.5 7.5 q-1.5 4 -1.5 8 Z" /><glyph glyph-name="" unicode="&#x4e91;" d="M158 439 q1 5 4 9 q3 4 7 7 q4 3 9 5 q5 2 9 2 l830 0 q5 0 9 -2 q4 -2 7 -5 q3 -3 4.5 -7 q1.5 -4 0.5 -9 l0 -1 q-1 -4 -3.5 -8 q-2.5 -4 -7 -8 q-4.5 -4 -9 -5.5 q-4.5 -1.5 -9.5 -1.5 l-461 0 l0 -1 q-1 -5 -5 -9 q-78 -113 -165 -219 q-72 -88 -141 -159 l576 49 q-5 12 -11 24 q-21 41 -43 82 q-22 41 -42 78 q-3 4 -3 9.5 q0 5.5 2 11 q2 5.5 5.5 10 q3.5 4.5 7.5 6.5 l2 0 q7 4 15.5 1 q8.5 -3 12.5 -10 q22 -38 44.5 -79.5 q22.5 -41.5 43.5 -83 q21 -41.5 39 -81 q18 -39.5 31 -72.5 q2 -4 1.5 -9 q-0.5 -5 -2.5 -9.5 q-2 -4.5 -5 -9 q-3 -4.5 -7 -5.5 l-3 -2 q-4 -2 -9 -2 q-5 0 -9.5 2 q-4.5 2 -8 5 q-3.5 3 -6.5 7 q-12 33 -29 72 q-4 7 -7 15 q-1 0 -2 -1 q-5 -3 -12 -3 q-167 -15 -278.5 -25 q-111.5 -10 -181.5 -16.5 q-70 -6.5 -107 -11 q-37 -4.5 -57 -7.5 q-6 -1 -12 -0.5 q-6 0.5 -10 3.5 q-3 1 -5 4 q-4 1 -7 4 q-4 3 -5 8 q0 5 1.5 10 q1.5 5 5 10.5 q3.5 5.5 8.5 11 q5 5.5 9 9.5 q7 4 11.5 8 q4.5 4 10 10.5 q5.5 6.5 14.5 16.5 q9 10 23 26 q15 15 43.5 49 q28.5 34 64.5 79 q36 45 75 98 q35 47 68 96 l-310 0 q-4 0 -8.5 1.5 q-4.5 1.5 -7 5.5 q-2.5 4 -4 8 q-1.5 4 -1.5 8 l0 1 ZM314 722 q1 5 4 9 q3 4 7 7 q4 3 9.5 5 q5.5 2 9.5 2 l619 0 q4 0 8.5 -2 q4.5 -2 7.5 -5 q3 -3 4.5 -7 q1.5 -4 0.5 -9 q-1 -5 -3.5 -9 q-2.5 -4 -7 -7.5 q-4.5 -3.5 -9.5 -5.5 q-5 -2 -10 -2 l-618 0 q-4 0 -9 2 q-5 2 -8 5.5 q-3 3.5 -4.5 7.5 q-1.5 4 -0.5 9 Z" /><glyph glyph-name="" unicode="&#x4e92;" d="M242 743 q0 5 3 8.5 q3 3.5 7.5 7.5 q4.5 4 9.5 5.5 q5 1.5 10 1.5 l772 0 q4 0 9 -1.5 q5 -1.5 8 -5.5 q3 -4 4 -7.5 q1 -3.5 1 -8.5 q-1 -4 -4 -8 q-3 -4 -7 -7.5 q-4 -3.5 -9.5 -5.5 q-5.5 -2 -9.5 -2 l-533 0 q0 -5 -1 -11 q-21 -59 -44 -126 q-7 -22 -15 -44 l373 0 q5 0 10 -2 q2 2 3 2 q1 0 2 0.5 q1 0.5 2 1.5 l2 0 q2 0 5 0.5 q3 0.5 4 -0.5 l5 0 q5 -1 8.5 -3.5 q3.5 -2.5 5.5 -7 q2 -4.5 3 -9 q1 -4.5 0 -8.5 q-14 -49 -32 -110.5 q-18 -61.5 -37.5 -128 q-19.5 -66.5 -40.5 -133.5 q-21 -67 -39 -125 q0 -1 -1 -1 l227 0 q5 0 9 -2 q4 -2 7 -5 q3 -3 4.5 -7 q1.5 -4 1.5 -8 q-2 -5 -5 -9 q-3 -4 -7 -7.5 q-4 -3.5 -8.5 -5.5 q-4.5 -2 -9.5 -2 l-839 0 q-4 0 -8.5 2 q-4.5 2 -7.5 5.5 q-3 3.5 -4 7.5 q-1 4 0 9 q0 4 3 8 q3 4 7.5 7 q4.5 3 9 5 q4.5 2 8.5 2 l567 0 q-1 5 1 10 q21 61 42 132 l12 40 l-400 0 q-4 0 -9 1 l-6 4 q-8 -5 -15 -5 l-3 0 q-6 0 -10 2.5 q-4 2.5 -6 7 q-2 4.5 -2 10 q0 5.5 2 11.5 q20 49 43 110 q23 61 46.5 126.5 q23.5 65.5 46.5 130.5 q23 65 42 122 q0 1 1 3 l-192 0 q-5 0 -9 2 q-4 2 -7.5 5.5 q-3.5 3.5 -5 7.5 q-1.5 4 -0.5 8 ZM815 495 q-4 -1 -7 -1 l-373 0 q-4 0 -8 1 l-16 -44 q-24 -66 -47 -127 q-17 -45 -32 -83 l407 0 q9 28 17 57 q21 69 39 130 q11 37 20 67 Z" /><glyph glyph-name="" unicode="&#x4e94;" d="M270 710 q1 5 4 9 q3 4 7 7 q4 3 9 5 q5 2 9 2 l694 0 q4 0 8.5 -2 q4.5 -2 7.5 -5 q3 -3 4.5 -7 q1.5 -4 0.5 -9 q-1 -4 -4 -8 q-3 -4 -7 -8 q-4 -4 -9 -5.5 q-5 -1.5 -9 -1.5 l-371 0 q-26 -79 -56 -167 q-13 -40 -27 -80 l284 0 q4 0 8 -1 q1 1 2 1 l2 1 q2 0 3 1 l2 1 q2 0 4 0.5 q2 0.5 4 -0.5 l6 -1 q5 0 8 -2.5 q3 -2.5 6 -6.5 q3 -4 4 -8 q1 -4 0 -9 q-10 -40 -22.5 -88 q-12.5 -48 -26.5 -99.5 q-14 -51.5 -29 -102.5 q-14 -50 -28 -94 l186 0 q5 0 9 -2 q4 -2 7 -5.5 q3 -3.5 4.5 -7.5 q1.5 -4 0.5 -9 q0 -4 -3 -8 q-3 -4 -7.5 -7.5 q-4.5 -3.5 -9.5 -5.5 q-5 -2 -9 -2 l-836 0 q-4 0 -8 2 q-4 2 -7 5.5 q-3 3.5 -4.5 7.5 q-1.5 4 -1.5 8 q2 5 4.5 9 q2.5 4 6.5 7.5 q4 3.5 9 5.5 q5 2 10 2 l229 0 q0 4 2 8 q25 64 55 145.5 q30 81.5 59 169.5 q7 20 14 41 l-173 0 q-4 0 -9 1.5 q-5 1.5 -8 5 q-3 3.5 -4.5 7.5 q-1.5 4 -0.5 8 q1 5 3.5 9 q2.5 4 7 7 q4.5 3 10 4.5 q5.5 1.5 9.5 1.5 l180 0 q15 46 30 91 q28 84 51 156 l-273 0 q-4 0 -8.5 1.5 q-4.5 1.5 -7.5 5.5 q-3 4 -4.5 8 q-1.5 4 -0.5 8 ZM711 32 l0 4 q15 49 30.5 103.5 q15.5 54.5 30 108.5 q14.5 54 26.5 102 q6 24 12 46 l-294 0 l-18 -54 q-30 -88 -60 -169 q-28 -80 -52 -141 l325 0 Z" /><glyph glyph-name="" unicode="&#x4e9a;" d="M74 14 q2 4 5 8 q3 4 7 7.5 q4 3.5 9 5.5 q5 2 9 2 l271 0 l0 2 l121 683 l0 3 l-246 0 q-5 0 -9.5 2 q-4.5 2 -7.5 5 q-3 3 -4.5 7 q-1.5 4 -0.5 9 q1 5 4 8.5 q3 3.5 7 7.5 q4 4 9 5.5 q5 1.5 10 1.5 l799 0 q5 0 9.5 -1.5 q4.5 -1.5 7.5 -5.5 q3 -4 4.5 -7.5 q1.5 -3.5 0.5 -8.5 q0 -5 -3 -9 q-3 -4 -7.5 -7 q-4.5 -3 -9.5 -5 q-5 -2 -9 -2 l-268 0 l0 -3 l-121 -685 l289 0 q4 0 8 -2 q4 -2 7.5 -5.5 q3.5 -3.5 4.5 -7.5 q1 -4 0 -8 q0 -5 -3 -9 q-3 -4 -7.5 -7 q-4.5 -3 -9 -5 q-4.5 -2 -8.5 -2 l-846 0 q-4 0 -8.5 2 q-4.5 2 -7.5 5 q-3 3 -4.5 7 q-1.5 4 -1.5 9 ZM734 722 l0 3 l-190 0 l0 -3 l-121 -683 l0 -2 l190 0 l121 685 ZM962 531 q2 4 6.5 8 q4.5 4 9 6.5 q4.5 2.5 9.5 3 q5 0.5 10 -1.5 q3 -1 5 -5 q2 -4 3 -8.5 q1 -4.5 0.5 -9.5 q-0.5 -5 -4.5 -10 q-22 -33 -47 -69.5 q-25 -36.5 -51.5 -72 q-26.5 -35.5 -52 -69.5 q-25.5 -34 -50.5 -64 q-2 -3 -6 -6 q-4 -3 -8 -4.5 q-4 -1.5 -8.5 -1.5 q-4.5 0 -8.5 1 q-4 2 -6 5.5 q-2 3.5 -2 8.5 q0 5 1.5 10 q1.5 5 3.5 10 q24 29 50 63 q26 34 51.5 69 q25.5 35 49.5 70 q24 35 45 67 ZM216 517 q-1 6 -0.5 11.5 q0.5 5.5 2.5 10 q2 4.5 5.5 8 q3.5 3.5 7.5 5.5 q4 1 8 0 q4 -1 7.5 -2.5 q3.5 -1.5 6.5 -5 q3 -3.5 4 -6.5 q13 -34 25 -71.5 q12 -37.5 22.5 -73.5 q10.5 -36 19 -70.5 q8.5 -34.5 13.5 -63.5 q2 -4 0.5 -9 q-1.5 -5 -4 -9 q-2.5 -4 -6 -7.5 q-3.5 -3.5 -6.5 -5.5 l-1 0 q-5 -2 -10 -1 q-5 1 -8.5 3.5 q-3.5 2.5 -6 6.5 q-2.5 4 -4.5 8 q-4 29 -12 62.5 q-8 33.5 -18 69 q-10 35.5 -21.5 71.5 q-11.5 36 -23.5 69 Z" /><glyph glyph-name="" unicode="&#x4e9b;" d="M131 334 q0 5 2 9.5 q2 4.5 6.5 8.5 q4.5 4 9.5 6.5 q5 2.5 9 2.5 q23 3 49 7 q-1 3 -1 7 l57 319 q1 5 3 9.5 q2 4.5 6.5 8.5 q4.5 4 9 6 q4.5 2 8.5 2 q4 0 7.5 -2 q3.5 -2 6 -6 q2.5 -4 3.5 -8 q1 -4 0 -9 l-57 -322 q44 6 94 12 q10 1 20 3 q-1 4 0 9 l72 411 q1 4 3.5 9 q2.5 5 7 8.5 q4.5 3.5 9 6 q4.5 2.5 8.5 2.5 q5 0 8.5 -2.5 q3.5 -2.5 6 -6 q2.5 -3.5 3.5 -8.5 q1 -5 0 -9 l-28 -159 l148 0 q5 0 9.5 -1.5 q4.5 -1.5 7.5 -4.5 q3 -3 5 -7 q2 -4 1 -8 q-1 -4 -3.5 -8 q-2.5 -4 -7 -7.5 q-4.5 -3.5 -10 -5 q-5.5 -1.5 -10.5 -1.5 l-147 0 l-37 -210 q-1 -1 -1 -3 q76 10 156 20 q5 1 9.5 -0.5 q4.5 -1.5 8.5 -4.5 q4 -3 6 -7 q2 -4 1 -8 q-2 -8 -10 -15 q-8 -7 -16 -8 q-111 -15 -218.5 -29.5 q-107.5 -14.5 -189.5 -25.5 q-5 0 -9.5 1 q-4.5 1 -8.5 4 q-4 3 -6 6.5 q-2 3.5 -1 7.5 ZM719 808 q1 4 3.5 9 q2.5 5 7 8.5 q4.5 3.5 8.5 6 q4 2.5 9 2.5 q5 0 8.5 -2.5 q3.5 -2.5 6 -6 q2.5 -3.5 3.5 -8.5 q1 -5 0 -9 l-33 -188 q33 11 66 23 q35 13 69 27 q34 14 64 28 q30 14 53 28 q7 3 16 2.5 q9 -0.5 14 -5.5 q4 -5 5.5 -10 q1.5 -5 -0.5 -10.5 q-2 -5.5 -6.5 -10 q-4.5 -4.5 -10.5 -7.5 q-58 -29 -129.5 -56.5 q-71.5 -27.5 -142.5 -50.5 q-3 -1 -6 -1 l-26 -150 q-4 -25 5 -33 q9 -8 48 -8 l188 0 q14 0 24 4 q10 4 17.5 15 q7.5 11 14 30 q6.5 19 13.5 50 q3 6 8 12 q5 6 10 9.5 q5 3.5 9.5 5.5 q4.5 2 10.5 -1 q6 -2 9 -10.5 q3 -8.5 0 -15.5 q-11 -42 -20.5 -70 q-9.5 -28 -22.5 -44 q-13 -16 -31.5 -22.5 q-18.5 -6.5 -47.5 -6.5 l-191 0 q-31 0 -50.5 3.5 q-19.5 3.5 -30 13 q-10.5 9.5 -12 26.5 q-1.5 17 3.5 43 l66 380 ZM78 -23 q1 4 4 8 q3 4 7 7.5 q4 3.5 9.5 5 q5.5 1.5 10.5 1.5 l823 0 q5 0 9.5 -1.5 q4.5 -1.5 8 -5 q3.5 -3.5 5 -7.5 q1.5 -4 -0.5 -8 q0 -5 -3 -9 q-3 -4 -7.5 -8 q-4.5 -4 -9.5 -5.5 q-5 -1.5 -10 -1.5 l-823 0 q-5 0 -10 1.5 q-5 1.5 -8 5.5 q-3 4 -4 8 q-1 4 -1 9 ZM228 201 q1 4 4 8 q3 4 7 7.5 q4 3.5 9.5 5.5 q5.5 2 9.5 2 l617 0 q5 0 10 -2 q5 -2 8 -5.5 q3 -3.5 4 -7.5 q1 -4 0 -8 q0 -5 -3 -9 q-3 -4 -7.5 -7 q-4.5 -3 -9.5 -5 q-5 -2 -9 -2 l-618 0 q-4 0 -9 2 q-5 2 -8 5 q-3 3 -4 7 q-1 4 -1 9 Z" /><glyph glyph-name="" unicode="&#x4ea4;" d="M746 407 q5 9 15.5 14 q10.5 5 17.5 3 l1 -1 q5 -1 8 -4.5 q3 -3.5 4 -8.5 q1 -5 0.5 -10.5 q-0.5 -5.5 -4.5 -9.5 q-56 -96 -128 -170 q-36 -37 -75 -69 l22 -20 q124 -104 326 -147 q15 -3 18.5 -13.5 q3.5 -10.5 -5.5 -22.5 q-5 -6 -14 -9.5 q-9 -3.5 -16 -2.5 q-105 22 -190.5 62 q-85.5 40 -150.5 96 q-15 13 -29 26 q-21 -15 -42 -29 q-86 -55 -185 -95 q-99 -40 -212 -68 q-9 -3 -18 1 q-9 4 -12 10 q-2 5 -1 11 q1 6 4 10.5 q3 4.5 8.5 8.5 q5.5 4 11.5 6 q111 25 205.5 62 q94.5 37 175.5 90 l36 24 q-29 34 -52 71 q-45 73 -69 162 l0 11 q0 5 2.5 9.5 q2.5 4.5 6.5 8 q4 3.5 9 4.5 q3 1 7.5 0.5 q4.5 -0.5 8 -3 q3.5 -2.5 6.5 -6 q3 -3.5 4 -7.5 q33 -128 116 -220 q38 32 73 68 q67 70 117 158 ZM209 666 q1 4 4 8 q3 4 7 7.5 q4 3.5 9.5 5 q5.5 1.5 9.5 1.5 l802 0 q5 0 9.5 -1.5 q4.5 -1.5 7.5 -5 q3 -3.5 4.5 -7.5 q1.5 -4 0.5 -8 q-1 -5 -4 -9 q-3 -4 -7 -7.5 q-4 -3.5 -9 -5.5 q-5 -2 -10 -2 l-802 0 q-4 0 -9 2 q-5 2 -8 5.5 q-3 3.5 -4 7.5 q-1 4 -1 9 ZM777 548 q-4 4 -6.5 9 q-2.5 5 -2 10.5 q0.5 5.5 2.5 10 q2 4.5 8 8.5 q5 3 13.5 3 q8.5 0 12.5 -3 q27 -21 55 -45 q28 -24 53 -49 q25 -25 47 -49.5 q22 -24.5 39 -46.5 q3 -4 4 -9 q1 -5 0 -10 q-1 -5 -3.5 -9 q-2.5 -4 -6.5 -7 l-1 -1 q-9 -6 -19 -4.5 q-10 1.5 -16 8.5 q-15 21 -35 45 q-20 24 -44 47.5 q-24 23.5 -49.5 47 q-25.5 23.5 -51.5 44.5 ZM443 584 q5 4 14 7 q9 3 15 0 l1 0 q4 -2 6.5 -6.5 q2.5 -4.5 2.5 -9.5 q0 -5 -2 -11 q-2 -6 -8 -10 q-56 -54 -123.5 -104.5 q-67.5 -50.5 -129.5 -90.5 q-8 -4 -17.5 -3.5 q-9.5 0.5 -12.5 5.5 q-7 9 -3 21.5 q4 12.5 18 19.5 q62 37 125.5 84.5 q63.5 47.5 113.5 97.5 ZM606 799 q-2 5 -1.5 11 q0.5 6 3 11 q2.5 5 6.5 9 q4 4 9 6 l1 0 q5 2 13.5 -1 q8.5 -3 11.5 -9 q11 -21 21 -45 q10 -24 17 -43 q1 -4 0.5 -8.5 q-0.5 -4.5 -3 -9 q-2.5 -4.5 -6 -8 q-3.5 -3.5 -7.5 -5.5 l-2 0 q-4 -2 -9 -1.5 q-5 0.5 -9.5 2.5 q-4.5 2 -7.5 5.5 q-3 3.5 -4 8.5 q-6 17 -14 37.5 q-8 20.5 -19 39.5 Z" /><glyph glyph-name="" unicode="&#x4ea6;" d="M195 628 q0 5 3 9 q3 4 7.5 7 q4.5 3 9.5 5 q5 2 10 2 l820 0 q5 0 10 -2 q5 -2 8 -5 q3 -3 4 -7 q1 -4 1 -9 q-1 -4 -4 -8 q-3 -4 -7.5 -8 q-4.5 -4 -9.5 -5.5 q-5 -1.5 -10 -1.5 l-248 0 l0 -7 l-106 -601 q-5 -29 -16 -42.5 q-11 -13.5 -32 -19.5 q-21 -6 -57.5 -7 q-36.5 -1 -93.5 -2 q-8 0 -13.5 5.5 q-5.5 5.5 -7.5 10.5 q-3 12 6.5 22 q9.5 10 24.5 9 q43 -1 72 -1 q29 0 42 1 q14 1 19.5 5.5 q5.5 4.5 7.5 17.5 l107 602 q0 4 1 7 l-200 0 l0 -4 l-22 -124 q-11 -64 -30 -134 q-19 -70 -55.5 -140.5 q-36.5 -70.5 -95.5 -138.5 q-59 -68 -150 -128 q-4 -3 -9.5 -5 q-5.5 -2 -10 -2 q-4.5 0 -8.5 2 q-4 2 -7 5 q-6 7 -2 18 q4 11 15 19 q86 58 140.5 121 q54.5 63 88 128 q33.5 65 50.5 129.5 q17 64.5 28 126.5 l22 123 l0 4 l-280 0 q-5 0 -9.5 1.5 q-4.5 1.5 -7.5 5.5 q-3 4 -4.5 8 q-1.5 4 -0.5 8 ZM849 442 q-2 5 -2 11 q0 6 2.5 11 q2.5 5 6 8.5 q3.5 3.5 8.5 5.5 q4 2 7 1.5 q3 -0.5 7 -2.5 q4 -2 6.5 -4.5 q2.5 -2.5 4.5 -5.5 q16 -35 30.5 -73 q14.5 -38 26 -76 q11.5 -38 20.5 -74 q9 -36 14 -66 q1 -7 -4 -16 q-5 -9 -13 -12 q-5 -2 -10 -1.5 q-5 0.5 -9.5 3 q-4.5 2.5 -7.5 7 q-3 4.5 -3 9.5 q-5 28 -13 62.5 q-8 34.5 -19.5 70 q-11.5 35.5 -24 72 q-12.5 36.5 -27.5 69.5 ZM307 463 q1 4 5 8 q4 4 8.5 6.5 q4.5 2.5 9 3.5 q4.5 1 8.5 0 l1 0 q4 0 7 -3.5 q3 -3.5 4.5 -8 q1.5 -4.5 1 -9.5 q-0.5 -5 -2.5 -10 q-35 -74 -78.5 -141 q-43.5 -67 -88.5 -119 q-4 -4 -8.5 -6.5 q-4.5 -2.5 -9 -3.5 q-4.5 -1 -9 -0.5 q-4.5 0.5 -7.5 2.5 q-4 3 -5.5 7.5 q-1.5 4.5 -1.5 9.5 q0 5 2 10.5 q2 5.5 7 10.5 q44 50 84 112.5 q40 62.5 73 130.5 ZM607 795 q-3 6 -2.5 11.5 q0.5 5.5 3 11 q2.5 5.5 6.5 9.5 q4 4 9 5 l1 1 q7 2 14.5 -1.5 q7.5 -3.5 9.5 -9.5 q15 -28 29.5 -58.5 q14.5 -30.5 21.5 -56.5 q2 -4 1 -9 q-1 -5 -3.5 -10 q-2.5 -5 -5.5 -9 q-3 -4 -8 -5 l-1 0 q-5 -2 -10 -1.5 q-5 0.5 -9.5 3 q-4.5 2.5 -7.5 6 q-3 3.5 -3 7.5 q-8 23 -19.5 51.5 q-11.5 28.5 -25.5 54.5 Z" /><glyph glyph-name="" unicode="&#x4ea7;" d="M229 431 q1 6 4 11 q3 5 7 8.5 q4 3.5 8 5.5 q4 2 9 2 l1 0 q5 0 9 -2 q2 -1 4 -3 q3 2 7 3 q5 2 9 2 l434 0 l0 1 q0 4 1.5 10 q1.5 6 5.5 10 q22 28 46.5 64.5 q24.5 36.5 42.5 68.5 q4 4 8 7.5 q4 3.5 8.5 6 q4.5 2.5 9.5 2.5 q5 0 9 -1 q6 -2 8 -6 q2 -4 3 -9 q1 -5 -0.5 -10.5 q-1.5 -5.5 -5.5 -9.5 q-24 -35 -50 -72 q-25 -34 -47 -62 l238 0 q4 0 9 -1.5 q5 -1.5 8 -5 q3 -3.5 4 -7.5 q1 -4 1 -9 q-1 -4 -4 -8.5 q-3 -4.5 -7.5 -7.5 q-4.5 -3 -9.5 -5 q-5 -2 -9 -2 l-710 0 q-3 0 -6 1 l-17 -91 q-7 -40 -18.5 -87 q-11.5 -47 -28.5 -96 q-17 -49 -42 -97.5 q-25 -48.5 -58 -92.5 q-4 -5 -10 -8.5 q-6 -3.5 -11 -4.5 q-5 -1 -9.5 -0.5 q-4.5 0.5 -8.5 3.5 q-4 3 -5 7.5 q-1 4.5 0 10 q1 5.5 3 11 q2 5.5 5 10.5 q32 41 54 85 q22 44 38 88.5 q16 44.5 26 88 q10 43.5 18 83.5 l19 108 ZM255 681 q1 4 4 8 q3 4 7 7.5 q4 3.5 9 5 q5 1.5 10 1.5 l379 0 q-9 4 -11 13 q-6 18 -15.5 38.5 q-9.5 20.5 -20.5 39.5 q-2 4 -2 9.5 q0 5.5 2 10.5 q2 5 6 8.5 q4 3.5 9 5.5 l2 0 q7 2 14 -0.5 q7 -2.5 11 -7.5 q13 -20 24 -43 q11 -23 18 -43 q2 -4 1 -9 q-1 -5 -3 -9.5 q-2 -4.5 -6 -7.5 q-3 -3 -7 -5 l327 0 q4 0 8.5 -1.5 q4.5 -1.5 8 -5 q3.5 -3.5 4.5 -7.5 q1 -4 1 -8 q-1 -5 -4 -8.5 q-3 -3.5 -7.5 -7.5 q-4.5 -4 -9.5 -5.5 q-5 -1.5 -9 -1.5 l-728 0 q-5 0 -9.5 1.5 q-4.5 1.5 -7.5 5.5 q-3 4 -4.5 7.5 q-1.5 3.5 -0.5 8.5 ZM417 596 q-3 6 -2.5 11.5 q0.5 5.5 2.5 10.5 q2 5 5.5 9 q3.5 4 7.5 6 q6 2 13.5 -1 q7.5 -3 10.5 -8 q15 -26 28 -55.5 q13 -29.5 22 -52.5 q2 -4 1 -9 q-1 -5 -2.5 -9.5 q-1.5 -4.5 -5 -8 q-3.5 -3.5 -6.5 -5.5 q-5 -2 -10 -2 q-5 0 -9 2.5 q-4 2.5 -7 6 q-3 3.5 -6 7.5 q-6 22 -17.5 48 q-11.5 26 -24.5 50 Z" /><glyph glyph-name="" unicode="&#x4eab;" d="M323 595 q1 5 4 9 q3 4 6.5 8 q3.5 4 9 6 q5.5 2 11.5 2 l556 0 q6 0 10 -2 q4 -2 7.5 -6 q3.5 -4 5 -8 q1.5 -4 0.5 -9 l-25 -141 q-1 -4 -4 -8.5 q-3 -4.5 -7 -8.5 q-4 -4 -9 -6 q-5 -2 -11 -2 l-556 0 q-6 0 -10.5 2 q-4.5 2 -7.5 6 q-3 4 -4.5 8.5 q-1.5 4.5 -0.5 8.5 l25 141 ZM104 148 q1 4 4 8 q3 4 7 7 q4 3 8.5 5 q4.5 2 9.5 2 l392 0 l7 43 q1 5 4 10 q3 5 7 8.5 q4 3.5 8 5.5 q4 2 8 2 q8 7 20 10 q39 8 78 19 q39 11 77 23 q35 11 68 24 l-551 0 q-10 0 -17 6.5 q-7 6.5 -5 14.5 q1 7 10 13.5 q9 6.5 19 6.5 l599 0 q9 0 15 -5 l3 3 q3 2 7 2 l3 0 q2 0 3 1 q4 0 8.5 -1 q4.5 -1 6.5 -4 q4 -4 5 -9 q1 -5 0 -10.5 q-1 -5.5 -5.5 -10.5 q-4.5 -5 -11.5 -8 q-34 -16 -73 -31 q-39 -15 -80 -27.5 q-41 -12.5 -82 -23.5 q-39 -11 -75 -18 q0 -1 -1 -2 l-7 -42 l397 0 q4 0 8.5 -2 q4.5 -2 7.5 -5 q3 -3 4.5 -7 q1.5 -4 0.5 -8 q-1 -4 -3.5 -8 q-2.5 -4 -7 -7 q-4.5 -3 -9 -5 q-4.5 -2 -9.5 -2 l-397 0 l-25 -144 q-4 -24 -14 -35 q-10 -11 -32 -17 q-20 -5 -56 -5.5 q-36 -0.5 -97 -0.5 q-7 0 -13 4 q-6 4 -8 9 q-2 11 7 18.5 q9 7.5 24 6.5 q43 -1 72.5 -0.5 q29.5 0.5 42.5 1.5 q14 1 18.5 4.5 q4.5 3.5 6.5 14.5 l26 144 l-392 0 q-4 0 -8.5 2 q-4.5 2 -7.5 5 q-3 3 -4.5 7 q-1.5 4 -0.5 8 ZM372 580 q-2 0 -4.5 -2 q-2.5 -2 -2.5 -4 l-18 -99 q0 -2 1.5 -4 q1.5 -2 3.5 -2 l504 0 q2 0 4.5 2 q2.5 2 2.5 4 l18 99 q0 2 -1.5 4 q-1.5 2 -3.5 2 l-504 0 ZM211 718 q1 4 4 7.5 q3 3.5 7 6.5 q4 3 9 5 q5 2 11 2 l400 0 q-4 12 -9 28 q-6 18 -13 36 q-3 11 3 21 q6 10 16 13 l2 0 q6 2 14 -2 q8 -4 9 -10 q9 -19 16.5 -39.5 q7.5 -20.5 12.5 -38.5 q2 -4 1 -8 l364 0 q5 0 9.5 -2 q4.5 -2 8 -5 q3.5 -3 5 -6.5 q1.5 -3.5 0.5 -7.5 q-2 -9 -11 -15.5 q-9 -6.5 -19 -6.5 l-817 0 q-10 0 -17.5 6.5 q-7.5 6.5 -5.5 15.5 Z" /><glyph glyph-name="" unicode="&#x4eac;" d="M311 530 q1 5 4 9.5 q3 4.5 7.5 8 q4.5 3.5 9.5 5.5 q5 2 10 2 l562 0 q6 0 10.5 -2 q4.5 -2 7.5 -5.5 q3 -3.5 4.5 -8 q1.5 -4.5 0.5 -9.5 l-41 -230 q0 -4 -3 -8.5 q-3 -4.5 -7.5 -8.5 q-4.5 -4 -10 -6 q-5.5 -2 -10.5 -2 l-260 0 q0 -3 -1 -7 l-49 -279 q-4 -25 -14.5 -37.5 q-10.5 -12.5 -32.5 -18.5 q-21 -6 -59.5 -7 q-38.5 -1 -100.5 0 q-7 0 -13.5 4.5 q-6.5 4.5 -7.5 8.5 q-3 12 6.5 21 q9.5 9 23.5 8 q47 -1 77.5 -0.5 q30.5 0.5 45.5 1.5 q14 1 19 5.5 q5 4.5 7 14.5 l50 279 q1 4 2 7 l-255 0 q-5 0 -9.5 2 q-4.5 2 -7.5 6 q-3 4 -4.5 8.5 q-1.5 4.5 -1.5 8.5 l41 230 ZM360 512 q-2 0 -4 -2 q-2 -2 -3 -5 l-32 -179 q-1 -3 1 -5 q2 -2 4 -2 l509 0 q2 0 4.5 2 q2.5 2 2.5 5 l32 179 q1 3 -1 5 q-2 2 -4 2 l-509 0 ZM209 680 q1 5 3.5 9 q2.5 4 7 7 q4.5 3 10 5 q5.5 2 9.5 2 l401 0 q-7 21 -17 46 q-10 26 -23 51 q-3 5 -2 10.5 q1 5.5 3 10.5 q2 5 6 8.5 q4 3.5 9 5.5 l2 0 q6 3 13.5 -0.5 q7.5 -3.5 10.5 -10.5 q13 -25 25.5 -53.5 q12.5 -28.5 20.5 -52.5 q2 -4 1 -9 l-2 -6 l365 0 q5 0 9.5 -2 q4.5 -2 7 -5 q2.5 -3 4.5 -7 q2 -4 1 -9 q-1 -4 -3.5 -8 q-2.5 -4 -7 -7.5 q-4.5 -3.5 -10 -5.5 q-5.5 -2 -9.5 -2 l-813 0 q-5 0 -9.5 2 q-4.5 2 -7 5.5 q-2.5 3.5 -4 7.5 q-1.5 4 -1.5 8 ZM765 157 q-3 5 -4 10 q-1 5 0 10 q1 5 4 9.5 q3 4.5 9 7.5 q6 3 14.5 1.5 q8.5 -1.5 13.5 -7.5 q18 -21 37 -45 q19 -24 36.5 -48 q17.5 -24 33 -46.5 q15.5 -22.5 26.5 -41.5 q3 -4 3.5 -8.5 q0.5 -4.5 -1 -9.5 q-1.5 -5 -4 -9.5 q-2.5 -4.5 -6.5 -6.5 l-1 0 q-5 -3 -9.5 -4 q-4.5 -1 -10 0.5 q-5.5 1.5 -9.5 4.5 q-4 3 -7 7 q-10 19 -24.5 41 q-14.5 22 -31 45 q-16.5 23 -34 46.5 q-17.5 23.5 -35.5 43.5 ZM293 186 q6 7 14.5 10.5 q8.5 3.5 15.5 0.5 l1 0 q5 -2 7.5 -6 q2.5 -4 3 -9 q0.5 -5 -2 -10.5 q-2.5 -5.5 -6.5 -10.5 q-40 -48 -91.5 -96 q-51.5 -48 -104.5 -85 q-5 -3 -9.5 -5 q-4.5 -2 -9 -3 q-4.5 -1 -8 0 q-3.5 1 -6.5 3 q-4 3 -4 8 q0 5 1.5 10.5 q1.5 5.5 5 11 q3.5 5.5 9.5 9.5 q51 37 100 82.5 q49 45.5 84 89.5 Z" /><glyph glyph-name="" unicode="&#x4eae;" d="M334 595 q0 4 3.5 9 q3.5 5 7.5 8.5 q4 3.5 9 6 q5 2.5 10 2.5 l539 0 q5 0 9 -2.5 q4 -2.5 7.5 -6 q3.5 -3.5 4.5 -8.5 q1 -5 1 -9 l-24 -131 q0 -4 -3 -9 q-3 -5 -7.5 -8.5 q-4.5 -3.5 -10 -6 q-5.5 -2.5 -9.5 -2.5 l-539 0 q-5 0 -9 2.5 q-4 2.5 -7 6 q-3 3.5 -4.5 8.5 q-1.5 5 -1.5 9 l24 131 ZM375 214 q3 9 11.5 17 q8.5 8 17.5 8 l1 0 q5 0 8 -2 q0 -1 1 -1 q5 3 11 3 l272 0 q5 0 10 -2 q4 2 9 2 l1 0 q5 0 8.5 -2.5 q3.5 -2.5 6.5 -6 q3 -3.5 4 -8.5 q1 -5 0 -10 l-35 -202 q-4 -17 2.5 -22 q6.5 -5 34.5 -5 l123 0 q9 0 15.5 2.5 q6.5 2.5 11.5 10.5 q5 8 10 23 q5 15 10 40 q4 5 8.5 10 q4.5 5 9 9.5 q4.5 4.5 9.5 6.5 q5 2 10 0 q5 -3 8 -10.5 q3 -7.5 1 -16.5 q-8 -35 -16.5 -57.5 q-8.5 -22.5 -19 -35.5 q-10.5 -13 -24.5 -18 q-14 -5 -35 -5 l-133 0 q-26 0 -42 3 q-16 3 -24.5 10.5 q-8.5 7.5 -9.5 21 q-1 13.5 2 34.5 l33 186 l-267 0 q-15 -56 -34 -97 q-22 -46 -56 -79 q-34 -33 -84 -54.5 q-50 -21.5 -122 -36.5 q-8 -2 -16.5 1 q-8.5 3 -9.5 8 q-5 10 3.5 20 q8.5 10 24.5 13 q61 13 102.5 31.5 q41.5 18.5 70.5 46.5 q29 28 46.5 68 q17.5 40 31.5 96 ZM383 582 q-2 0 -4.5 -1.5 q-2.5 -1.5 -2.5 -3.5 l-17 -94 q0 -2 1.5 -3.5 q1.5 -1.5 3.5 -1.5 l486 0 q2 0 4.5 1.5 q2.5 1.5 2.5 3.5 l17 94 q0 2 -1.5 3.5 q-1.5 1.5 -3.5 1.5 l-486 0 ZM169 337 q1 5 4 9.5 q3 4.5 7.5 8 q4.5 3.5 9.5 6 q5 2.5 10 2.5 l765 0 q6 0 10.5 -2.5 q4.5 -2.5 7.5 -6 q3 -3.5 4.5 -8 q1.5 -4.5 0.5 -8.5 l-17 -100 q-2 -4 -4.5 -8.5 q-2.5 -4.5 -6.5 -8 q-4 -3.5 -8.5 -6 q-4.5 -2.5 -8.5 -2.5 q-5 0 -8.5 2.5 q-3.5 2.5 -6.5 6 q-3 3.5 -4 8 q-1 4.5 0 8.5 l13 76 q0 3 -1.5 5 q-1.5 2 -3.5 2 l-714 0 q-2 0 -4.5 -2 q-2.5 -2 -2.5 -5 l-13 -76 q-1 -4 -4 -8.5 q-3 -4.5 -7 -8.5 q-4 -4 -8 -6 q-4 -2 -8.5 -2 q-4.5 0 -8.5 2 q-4 2 -6 6 q-2 4 -3.5 8.5 q-1.5 4.5 -0.5 8.5 l17 99 ZM213 708 q1 8 10.5 14.5 q9.5 6.5 19.5 6.5 l413 0 q-3 3 -4 6 q-5 15 -12 32.5 q-7 17.5 -15 34.5 q-4 10 2 19.5 q6 9.5 16 12.5 l3 0 q7 2 13.5 -1 q6.5 -3 7.5 -9 q11 -17 19 -35.5 q8 -18.5 13 -35.5 q2 -4 1 -8.5 q-1 -4.5 -3 -8.5 q-2 -4 -5 -7 l360 0 q10 0 16.5 -6.5 q6.5 -6.5 5.5 -14.5 q0 -5 -3 -8.5 q-3 -3.5 -7.5 -6.5 q-4.5 -3 -10 -5 q-5.5 -2 -9.5 -2 l-809 0 q-5 0 -9 2 q-4 2 -7.5 5 q-3.5 3 -4.5 6.5 q-1 3.5 -1 8.5 Z" /><glyph glyph-name="" unicode="&#x4eb2;" d="M811 625 q3 4 6.5 7.5 q3.5 3.5 8 6 q4.5 2.5 9 3 q4.5 0.5 8.5 -0.5 q5 -1 8 -4.5 q3 -3.5 4 -8.5 q1 -5 -0.5 -11 q-1.5 -6 -4.5 -10 q-28 -40 -59 -81 q-25 -33 -48 -60 l260 0 q5 0 9.5 -2 q4.5 -2 7.5 -5 q3 -3 4 -7 q1 -4 1 -8 q-1 -5 -3.5 -8.5 q-2.5 -3.5 -6.5 -6.5 q-4 -3 -9.5 -5 q-5.5 -2 -10.5 -2 l-380 0 q1 -2 1 -5 q1 -4 1 -9 l-19 -109 l361 0 q4 0 8.5 -2 q4.5 -2 8 -5 q3.5 -3 5 -6.5 q1.5 -3.5 0.5 -8.5 q-1 -4 -3.5 -7.5 q-2.5 -3.5 -7 -7 q-4.5 -3.5 -9.5 -5.5 q-5 -2 -10 -2 l-361 0 l-47 -263 q-4 -24 -13.5 -36.5 q-9.5 -12.5 -29.5 -18.5 q-16 -5 -46.5 -6 q-30.5 -1 -78.5 -1 q-8 -1 -14 4 q-6 5 -7 10 q-3 12 6.5 21 q9.5 9 23.5 8 q33 -1 55 -0.5 q22 0.5 35 1.5 q11 0 15 3.5 q4 3.5 6 14.5 l47 263 l-358 0 q-5 0 -9.5 2 q-4.5 2 -7.5 5.5 q-3 3.5 -4.5 7 q-1.5 3.5 -1.5 7.5 q1 5 4 8.5 q3 3.5 7 6.5 q4 3 9.5 5 q5.5 2 9.5 2 l358 0 l20 109 q0 5 3 9 q2 3 4 5 l-381 0 q-4 0 -8.5 2 q-4.5 2 -7.5 5 q-3 3 -4.5 6.5 q-1.5 3.5 -0.5 8.5 q0 4 3 8 q3 4 7 7 q4 3 9.5 5 q5.5 2 10.5 2 l489 0 q1 5 5 10 q29 33 59 73.5 q30 40.5 54 75.5 ZM282 684 q0 4 3 8 q3 4 7 7 q4 3 9 4.5 q5 1.5 10 1.5 l326 0 l0 1 q-6 19 -15.5 42 q-9.5 23 -19.5 45 q-1 6 -0.5 11.5 q0.5 5.5 3 10.5 q2.5 5 6.5 8.5 q4 3.5 9 4.5 l2 0 q7 2 14.5 -1.5 q7.5 -3.5 9.5 -9.5 q12 -23 22.5 -49.5 q10.5 -26.5 16.5 -48.5 q1 -4 0 -9 q-1 -3 -2 -5 l310 0 q5 0 9.5 -1.5 q4.5 -1.5 7.5 -4.5 q3 -3 4.5 -7 q1.5 -4 1.5 -8 q-1 -4 -4 -7.5 q-3 -3.5 -7.5 -7 q-4.5 -3.5 -9.5 -5 q-5 -1.5 -9 -1.5 l-683 0 q-4 0 -9 1.5 q-5 1.5 -8 5 q-3 3.5 -4.5 7 q-1.5 3.5 0.5 7.5 ZM721 162 q-4 5 -5 10 q-1 5 -0.5 10 q0.5 5 3.5 9.5 q3 4.5 8 7.5 q6 4 14.5 2.5 q8.5 -1.5 13.5 -5.5 q21 -21 41 -44 q20 -23 38.5 -46 q18.5 -23 33.5 -46 q15 -23 26 -42 q3 -3 3 -8 q0 -5 -1 -9.5 q-1 -4.5 -4 -8.5 q-3 -4 -6 -7 l-1 -1 q-5 -2 -10 -3 q-5 -1 -10 0 q-5 1 -9 4 q-4 3 -7 7 q-10 18 -25 40 q-15 22 -32 44 q-17 22 -35 44 q-18 22 -36 42 ZM330 190 q5 7 14 10.5 q9 3.5 16 1.5 q5 -1 7.5 -5 q2.5 -4 3.5 -9 q1 -5 -0.5 -10 q-1.5 -5 -6.5 -11 q-41 -53 -91.5 -101.5 q-50.5 -48.5 -101.5 -84.5 q-7 -6 -16.5 -6.5 q-9.5 -0.5 -14.5 3.5 q-8 7 -5 19 q3 12 16 22 q49 34 95.5 78.5 q46.5 44.5 83.5 92.5 ZM402 605 q-1 5 -1 11 q0 6 2.5 11 q2.5 5 6 8.5 q3.5 3.5 8.5 4.5 q7 3 14.5 -0.5 q7.5 -3.5 9.5 -10.5 q15 -28 25.5 -60.5 q10.5 -32.5 16.5 -57.5 q0 -5 -1 -9.5 q-1 -4.5 -3.5 -8.5 q-2.5 -4 -6.5 -7.5 q-4 -3.5 -7 -4.5 q-5 -1 -10 -0.5 q-5 0.5 -9.5 2.5 q-4.5 2 -7 6.5 q-2.5 4.5 -4.5 9.5 q-4 24 -12.5 52 q-8.5 28 -20.5 54 Z" /><glyph glyph-name="" unicode="&#x4eba;" d="M641 804 q1 4 3.5 9 q2.5 5 6.5 8.5 q4 3.5 8 5.5 q4 2 9 2 l3 0 q5 0 9 -2 q4 -2 6.5 -6 q2.5 -4 4 -9 q1.5 -5 0.5 -10 q-9 -44 -26 -110 q0 -4 -1 -7 q0 -3 -1 -5 l0 -78 q0 -51 7 -113.5 q7 -62.5 22.5 -133 q15.5 -70.5 46.5 -138 q31 -67.5 80.5 -127 q49.5 -59.5 122.5 -101.5 q11 -7 12 -18 q1 -11 -8 -21 q-3 -3 -7 -5 q-4 -2 -9 -3 q-5 -1 -9.5 -0.5 q-4.5 0.5 -8.5 2.5 q-76 43 -128 105 q-52 62 -85 133 q-33 71 -49.5 145 q-16.5 74 -23.5 141 q-4 41 -6 77 q-27 -77 -68 -161 q-43 -85 -104 -165.5 q-61 -80.5 -142 -152.5 q-81 -72 -188 -124 q-5 -2 -9.5 -3 q-4.5 -1 -9 0 q-4.5 1 -7.5 2 q-3 1 -6 4 q-6 9 -2 20.5 q4 11.5 19 19.5 q101 51 178 120 q77 69 134.5 146.5 q57.5 77.5 96.5 158.5 q39 81 65 155 q26 74 41 136.5 q15 62.5 23 102.5 Z" /><glyph glyph-name="" unicode="&#x4ebf;" d="M534 695 q2 5 4 8.5 q2 3.5 6.5 7 q4.5 3.5 10 5.5 q5.5 2 11.5 2 l418 0 q5 0 9 -2 q3 -1 6 -3 q2 2 4 3 q4 2 6 2 q1 0 3 0.5 q2 0.5 4 0.5 l2 0 q2 1 5.5 0.5 q3.5 -0.5 5.5 -1.5 l2 -1 l10 -6 l8 -10 l-5 -3 l-3 -3 q-134 -125 -229.5 -216.5 q-95.5 -91.5 -159.5 -156 q-64 -64.5 -102 -106.5 q-38 -42 -58 -68.5 q-20 -26.5 -26.5 -41.5 q-6.5 -15 -8.5 -26 q-5 -29 19.5 -41 q24.5 -12 67.5 -12 l291 -1 q19 0 32.5 7 q13.5 7 24 26 q10.5 19 20 52.5 q9.5 33.5 22.5 86.5 q4 15 14 23 q10 8 20 4 q7 -2 10 -10 q3 -8 0 -16 q-16 -70 -30 -112.5 q-14 -42.5 -30 -66 q-16 -23.5 -38 -31.5 q-22 -8 -54 -8 l-285 0 q-38 0 -64.5 6.5 q-26.5 6.5 -42.5 18.5 q-16 12 -22.5 29.5 q-6.5 17.5 -1.5 40.5 q2 14 8.5 31.5 q6.5 17.5 27 46.5 q20.5 29 58 71.5 q37.5 42.5 102 109 q64.5 66.5 159.5 158.5 q81 77 190 179 l-398 0 q-5 0 -9.5 2 q-4.5 2 -7.5 5.5 q-3 3.5 -5 7.5 q-2 4 -1 8 ZM455 810 q2 4 6 7.5 q4 3.5 8.5 5.5 q4.5 2 9 3 q4.5 1 7.5 0 q5 -2 8 -5 q3 -3 4 -7.5 q1 -4.5 0.5 -10 q-0.5 -5.5 -3.5 -10.5 q-55 -91 -119 -176 l-117 -662 q0 -5 -2.5 -9.5 q-2.5 -4.5 -6.5 -8.5 q-4 -4 -8.5 -6 q-4.5 -2 -9 -2 q-4.5 0 -8 2 q-3.5 2 -6 6 q-2.5 4 -3.5 8.5 q-1 4.5 0 10.5 l103 588 q-66 -79 -136 -143 q-5 -5 -10.5 -7 q-5.5 -2 -11 -2 q-5.5 0 -9.5 2.5 q-4 2.5 -6 6.5 l0 1 q-5 7 -1.5 17.5 q3.5 10.5 10.5 18.5 q83 72 161 169 q78 97 140 203 Z" /><glyph glyph-name="" unicode="&#x4ec0;" d="M424 457 q1 4 4 8 q3 4 7.5 7.5 q4.5 3.5 9 5.5 q4.5 2 8.5 2 l270 0 l56 322 q1 4 4 8.5 q3 4.5 7 8 q4 3.5 8 6 q4 2.5 9 2.5 l1 0 q5 0 8.5 -2.5 q3.5 -2.5 6.5 -6 q3 -3.5 4 -8 q1 -4.5 0 -8.5 l-56 -322 l260 0 q5 0 9 -2 q4 -2 7 -5.5 q3 -3.5 4.5 -7.5 q1.5 -4 -0.5 -8 q0 -5 -3 -9 q-3 -4 -7 -7 q-4 -3 -9 -5.5 q-5 -2.5 -9 -2.5 l-261 0 l-84 -481 q-1 -5 -3.5 -9.5 q-2.5 -4.5 -7 -8 q-4.5 -3.5 -8.5 -6 q-4 -2.5 -9 -2.5 l-1 0 q-5 0 -9 2.5 q-4 2.5 -6 6 q-2 3.5 -3.5 8 q-1.5 4.5 -0.5 9.5 l85 481 l-270 0 q-4 0 -8.5 2.5 q-4.5 2.5 -7.5 5.5 q-3 3 -4 7 q-1 4 -1 9 ZM466 808 q2 5 5.5 8 q3.5 3 8.5 5 q5 2 9.5 3 q4.5 1 8.5 0 q4 -1 7 -4.5 q3 -3.5 3.5 -8 q0.5 -4.5 0 -10 q-0.5 -5.5 -3.5 -9.5 q-59 -100 -129 -190 l-115 -647 q0 -6 -3 -10.5 q-3 -4.5 -6.5 -8 q-3.5 -3.5 -8 -6 q-4.5 -2.5 -9.5 -2.5 q-4 0 -7.5 2.5 q-3.5 2.5 -7 6 q-3.5 3.5 -4 8 q-0.5 4.5 0.5 9.5 l102 576 q-66 -76 -134 -138 q-5 -5 -10 -7 q-5 -2 -11 -2 q-6 0 -10 2.5 q-4 2.5 -7 6.5 l0 1 q-4 7 -0.5 17.5 q3.5 10.5 9.5 17.5 q85 73 166 172 q81 99 145 208 Z" /><glyph glyph-name="" unicode="&#x4ec5;" d="M501 699 q0 4 3 8 q3 4 7 7.5 q4 3.5 9 5 q5 1.5 10 1.5 l462 0 q4 0 9 -1 q1 1 4 1 q1 0 2.5 0.5 q1.5 0.5 3.5 1.5 l1 0 q2 1 4.5 0.5 q2.5 -0.5 4.5 -1.5 l4 -2 q7 -2 11 -10.5 q4 -8.5 1 -17.5 q-57 -151 -134 -273 q-77 -122 -166 -216 q-9 -9 -18 -19 q32 -51 72 -94 q63 -67 151 -108 q12 -7 13.5 -18.5 q1.5 -11.5 -7.5 -21.5 q-2 -3 -5 -4.5 q-3 -1.5 -7.5 -2.5 q-4.5 -1 -8.5 -0.5 q-4 0.5 -8 2.5 q-92 43 -159 113 q-43 46 -77 100 q-64 -60 -132 -107 q-98 -66 -198 -107 q-10 -4 -18.5 -2 q-8.5 2 -12.5 8 q-5 10 2 21 q7 11 20 16 q95 39 189 104 q66 46 128 105 l-12 24 q-45 91 -69.5 202.5 q-24.5 111.5 -31.5 239.5 q0 4 1.5 8.5 q1.5 4.5 3.5 9.5 l4 4 l-35 0 q-4 0 -9 2 q-5 2 -8 5.5 q-3 3.5 -4.5 7 q-1.5 3.5 0.5 8.5 ZM985 676 l-401 0 q1 -2 3 -5 q2 -4 3 -9 q7 -120 30 -225 q23 -105 66 -193 q5 -11 11 -21 q7 8 15 16 q86 91 158 207 q65 104 115 230 ZM466 806 q4 7 14.5 12 q10.5 5 17.5 3 l1 0 q4 -1 7 -4.5 q3 -3.5 4 -8 q1 -4.5 -0.5 -10 q-1.5 -5.5 -4.5 -10.5 q-63 -104 -138 -198 l-112 -635 q0 -5 -3 -10 q-3 -5 -6.5 -8.5 q-3.5 -3.5 -8 -6 q-4.5 -2.5 -8.5 -2.5 q-5 0 -8.5 2.5 q-3.5 2.5 -7 6 q-3.5 3.5 -4 8.5 q-0.5 5 0.5 9 l99 567 q-66 -75 -135 -136 q-5 -4 -10.5 -6.5 q-5.5 -2.5 -10.5 -2 q-5 0.5 -9.5 3 q-4.5 2.5 -7.5 6.5 l0 2 q-5 7 -1.5 18 q3.5 11 12.5 17 q87 73 170 173 q83 100 149 210 Z" /><glyph glyph-name="" unicode="&#x4eca;" d="M656 820 q3 3 7 6 q4 3 8.5 4 q4.5 1 9 1.5 q4.5 0.5 7.5 -1.5 l2 -1 q4 -2 6 -6 q2 -4 1.5 -9.5 q-0.5 -5.5 -3 -10.5 q-2.5 -5 -5.5 -10 l3 -3 q28 -44 66.5 -88.5 q38.5 -44.5 83 -85 q44.5 -40.5 92.5 -75 q48 -34.5 94 -59.5 q7 -3 10.5 -8.5 q3.5 -5.5 3.5 -11 q0 -5.5 -2 -11 q-2 -5.5 -7 -10.5 l-1 -1 q-2 -3 -6.5 -5 q-4.5 -2 -9 -2.5 q-4.5 -0.5 -9 0 q-4.5 0.5 -8.5 2.5 q-47 25 -95 62 q-48 37 -94 79.5 q-46 42.5 -86 90.5 q-39 45 -68 91 q-35 -35 -73 -69 q-58 -51 -122 -98 q-64 -47 -132 -87.5 q-68 -40.5 -136 -72.5 q-5 -2 -9.5 -2.5 q-4.5 -0.5 -9 0.5 q-4.5 1 -7.5 3 q-3 2 -5 4 l-1 0 q-6 9 -0.5 20.5 q5.5 11.5 19.5 18.5 q67 31 132.5 70.5 q65.5 39.5 127 83.5 q61.5 44 116.5 93 q55 49 100 98 ZM241 315 q1 4 3.5 8 q2.5 4 7 7.5 q4.5 3.5 9 5 q4.5 1.5 9.5 1.5 l580 0 q5 0 9 -1.5 q4 -1.5 7 -4.5 q2 1 2 3 q0 2 1.5 2.5 q1.5 0.5 4.5 0.5 q2 0 4 0.5 q2 0.5 4 0.5 q2 2 6 1 q4 -1 6 -2 l3 -1 q5 -3 6.5 -7.5 q1.5 -4.5 1.5 -9.5 q0 -5 -2.5 -10.5 q-2.5 -5.5 -5.5 -10.5 q-36 -36 -79.5 -81 q-43.5 -45 -90 -92 q-46.5 -47 -93.5 -94.5 q-47 -47.5 -92 -91.5 q-6 -5 -15 -7.5 q-9 -2.5 -15 0.5 l-2 1 q-4 2 -6.5 6.5 q-2.5 4.5 -2.5 10 q0 5.5 2.5 11.5 q2.5 6 7.5 11 q47 44 96.5 93 q49.5 49 96.5 97 q47 48 88 91 q20 20 37 38 l-567 0 q-5 0 -9 1.5 q-4 1.5 -7 5.5 q-3 4 -4.5 8 q-1.5 4 -0.5 8 l0 1 ZM535 529 q-4 4 -6 9 q-2 5 -1.5 10 q0.5 5 2.5 10 q2 5 7 8 q6 4 14.5 4 q8.5 0 13.5 -5 q36 -30 73 -66 q37 -36 61 -66 q4 -3 4.5 -8 q0.5 -5 0 -9.5 q-0.5 -4.5 -3 -9.5 q-2.5 -5 -6.5 -8 q-3 -2 -8.5 -3.5 q-5.5 -1.5 -10.5 -1 q-5 0.5 -9 2.5 q-4 2 -7 5 q-22 28 -56 63 q-34 35 -68 65 Z" /><glyph glyph-name="" unicode="&#x4ecb;" d="M651 814 q3 4 8 7 q5 3 9.5 4.5 q4.5 1.5 9.5 1.5 q5 0 8 -2 q3 -2 4.5 -6.5 q1.5 -4.5 1.5 -9 q0 -4.5 -1.5 -9 q-1.5 -4.5 -6.5 -8.5 l-4 -6 q7 -3 10 -8 q25 -47 63 -92.5 q38 -45.5 83 -86 q45 -40.5 97 -73.5 q52 -33 104 -55 q13 -5 14.5 -16.5 q1.5 -11.5 -8.5 -22.5 l0 -1 q-5 -5 -14 -7.5 q-9 -2.5 -16 0.5 q-53 23 -106 58.5 q-53 35.5 -100.5 78.5 q-47.5 43 -86.5 93 q-40 49 -67 100 q-33 -39 -72 -76 q-59 -56 -124.5 -105 q-65.5 -49 -135 -89.5 q-69.5 -40.5 -139.5 -67.5 q-5 -2 -10 -2.5 q-5 -0.5 -8.5 1 q-3.5 1.5 -7.5 3.5 q-4 2 -4 6 q-5 10 1.5 21 q6.5 11 20.5 17 q67 26 134 64 q67 38 128.5 84 q61.5 46 116.5 98 q55 52 98 106 ZM386 425 q0 4 3.5 9 q3.5 5 7.5 8.5 q4 3.5 8 6 q4 2.5 9 2.5 l1 0 q5 0 8.5 -2.5 q3.5 -2.5 6.5 -6 q3 -3.5 3.5 -8.5 q0.5 -5 0.5 -9 l-20 -113 q-9 -48 -24 -98 q-15 -50 -45 -98.5 q-30 -48.5 -78 -94 q-48 -45.5 -125 -85.5 q-5 -2 -9.5 -3 q-4.5 -1 -9 -0.5 q-4.5 0.5 -8 2 q-3.5 1.5 -5.5 4.5 q-7 8 -2.5 19 q4.5 11 18.5 20 q68 36 111 76 q43 40 69 82.5 q26 42.5 39 87 q13 44.5 21 89.5 l20 112 ZM760 425 q1 5 4 10 q3 5 6.5 8.5 q3.5 3.5 8 6 q4.5 2.5 8.5 2.5 l2 0 q4 0 8 -2.5 q4 -2.5 7 -6 q3 -3.5 4 -8.5 q1 -5 0 -10 l-84 -475 q-1 -6 -3.5 -10.5 q-2.5 -4.5 -7 -8.5 q-4.5 -4 -9 -6 q-4.5 -2 -8.5 -2 l-2 0 q-4 0 -8 2 q-4 2 -6.5 6 q-2.5 4 -3.5 8.5 q-1 4.5 -1 10.5 l85 475 Z" /><glyph glyph-name="" unicode="&#x4ecd;" d="M468 738 q1 4 4 8 q3 4 7.5 7.5 q4.5 3.5 9 5 q4.5 1.5 8.5 1.5 l392 0 q5 0 9 -2 l4 -2 q6 4 12 4 q4 0 8.5 -2.5 q4.5 -2.5 7 -6.5 q2.5 -4 2.5 -9.5 q0 -5.5 -1 -10.5 q-13 -36 -27.5 -75 q-14.5 -39 -28.5 -77 q-14 -38 -27 -74 q-9 -21 -16 -39 l155 0 q4 0 7 -1 q1 0 2 -1 q4 -1 7 -4.5 q3 -3.5 4.5 -7.5 q1.5 -4 1.5 -8 l-2 -6 q-29 -121 -50 -206 q-22 -84 -39.5 -140 q-17.5 -56 -33 -87.5 q-15.5 -31.5 -31.5 -44.5 q-16 -15 -32 -20.5 q-16 -5.5 -40 -7.5 q-21 0 -55.5 0.5 q-34.5 0.5 -76.5 3.5 q-8 0 -14.5 5.5 q-6.5 5.5 -7.5 11.5 q-1 12 9.5 20 q10.5 8 24.5 7 q19 -2 35.5 -2.5 q16.5 -0.5 31 -1.5 q14.5 -1 25.5 -1 l20 0 q15 0 25.5 2.5 q10.5 2.5 20.5 10.5 q13 11 27 40.5 q14 29.5 31.5 84.5 q17.5 55 39.5 139 q18 71 40 169 l-132 0 q-6 0 -10 2 q-3 2 -5 4 q-8 -6 -14 -6 q-6 0 -10 3 q-4 3 -6 7.5 q-2 4.5 -2 10 q0 5.5 2 11.5 q12 30 26.5 65.5 q14.5 35.5 28.5 73 q14 37.5 27 76.5 q9 24 17 47 l-233 0 q-19 -97 -45 -205 q-26 -108 -65 -211.5 q-39 -103.5 -94.5 -196 q-55.5 -92.5 -135.5 -158.5 q-3 -4 -8 -6 q-5 -2 -10 -3.5 q-5 -1.5 -9 -0.5 q-4 1 -7 4 q-7 6 -4.5 17.5 q2.5 11.5 12.5 20.5 q74 64 126.5 153.5 q52.5 89.5 89.5 189.5 q37 100 62 204 q23 102 41 192 l-109 0 q-5 0 -9 2 q-4 2 -7 5.5 q-3 3.5 -4.5 7 q-1.5 3.5 -1.5 8.5 ZM396 805 q3 4 7 7.5 q4 3.5 8 5.5 q4 2 9 3.5 q5 1.5 7 -0.5 q5 0 8.5 -3.5 q3.5 -3.5 4.5 -8 q1 -4.5 0.5 -10 q-0.5 -5.5 -2.5 -9.5 q-48 -92 -104 -176 l-117 -662 q-1 -5 -3.5 -10 q-2.5 -5 -6 -8.5 q-3.5 -3.5 -8.5 -5.5 q-5 -2 -9 -2 q-4 0 -7.5 2 q-3.5 2 -6.5 5.5 q-3 3.5 -4 8.5 q-1 5 0 10 l102 575 q-49 -65 -100 -120 q-5 -5 -10.5 -7.5 q-5.5 -2.5 -11 -3 q-5.5 -0.5 -10 2 q-4.5 2.5 -6.5 7.5 l0 2 l-1 0 q-4 6 -1.5 16 q2.5 10 9.5 17 q70 70 136 165.5 q66 95.5 117 198.5 Z" /><glyph glyph-name="" unicode="&#x4ece;" d="M817 782 q2 5 5 9.5 q3 4.5 7.5 8.5 q4.5 4 8.5 5.5 q4 1.5 8 1.5 l3 0 q5 0 8.5 -2.5 q3.5 -2.5 6 -6.5 q2.5 -4 2.5 -9 l0 -10 q-37 -143 -77 -266 q-7 -23 -16 -47 l2 -2 q2 -5 3 -12 q2 -58 11.5 -121.5 q9.5 -63.5 28.5 -124.5 q19 -61 49.5 -115.5 q30.5 -54.5 74.5 -95.5 q8 -8 8 -20 q0 -12 -8 -20 q-4 -3 -9 -5.5 q-5 -2.5 -10.5 -2.5 q-5.5 0 -10.5 2 q-5 2 -7 5 q-47 46 -78.5 106.5 q-31.5 60.5 -51 126.5 q-19.5 66 -29.5 133 q-4 29 -6 58 q-19 -47 -40 -90 q-49 -103 -112.5 -188 q-63.5 -85 -147.5 -153 q-3 -4 -8 -5.5 q-5 -1.5 -9.5 -2 q-4.5 -0.5 -8.5 0.5 q-4 1 -6 3 l0 1 l-1 0 q-4 3 -6 8.5 q-2 5.5 -1 11.5 q1 6 4.5 11.5 q3.5 5.5 8.5 10.5 q80 64 140.5 145.5 q60.5 81.5 107.5 181.5 q47 100 85 217.5 q38 117.5 71 251.5 ZM435 780 q0 5 4 10 q4 5 8 8.5 q4 3.5 9 5 q5 1.5 9 1.5 l2 0 q5 0 8.5 -2 q3.5 -2 5.5 -6 q2 -4 3.5 -9 q1.5 -5 0.5 -10 q-33 -136 -67 -256 q-5 -15 -9 -29 l4 -2 q5 -2 6 -6 q20 -33 39.5 -69 q19.5 -36 37 -72 q17.5 -36 31.5 -69.5 q14 -33.5 23 -62.5 q2 -7 -0.5 -15.5 q-2.5 -8.5 -7.5 -13.5 l-1 0 q-5 -4 -10.5 -5 q-5.5 -1 -10.5 0 q-5 1 -9.5 4.5 q-4.5 3.5 -6.5 8.5 q-10 28 -24 62 q-14 34 -30 68.5 q-16 34.5 -34 69.5 q-12 24 -25 46 q-23 -72 -50 -138 q-42 -103 -95 -190.5 q-53 -87.5 -122 -159.5 q-3 -5 -9 -7.5 q-6 -2.5 -11 -3.5 q-5 -1 -10 -0.5 q-5 0.5 -9 3.5 l0 1 l-1 0 q-4 3 -5 8 q-1 5 -0.5 10 q0.5 5 3 10.5 q2.5 5.5 6.5 9.5 q68 67 119.5 151.5 q51.5 84.5 92 186 q40.5 101.5 73 217.5 q32.5 116 62.5 245 Z" /><glyph glyph-name="" unicode="&#x4ed3;" d="M341 452 q1 4 4 9 q3 5 7 8.5 q4 3.5 8 5.5 q4 2 9 2 l1 0 q5 0 9 -2 l2 -2 q3 2 5 3 q5 1 9 1 l441 0 q5 0 9 -1.5 q4 -1.5 7 -5 q3 -3.5 4.5 -7.5 q1.5 -4 1.5 -8 q-1 -4 -3 -6 q-14 -64 -26 -109 q-11 -45 -20.5 -76 q-9.5 -31 -18.5 -48.5 q-9 -17.5 -18 -26.5 q-13 -11 -27 -15 q-14 -4 -35 -5 q-17 -1 -47 -1 q-30 0 -64 2 q-8 1 -15 6 q-7 5 -7 11 q-1 11 9.5 18.5 q10.5 7.5 24.5 6.5 q15 -1 28.5 -2 q13.5 -1 25.5 -1 l36 0 q14 0 22 1.5 q8 1.5 15 6.5 q7 6 14 22 q7 16 16 45.5 q9 29.5 20 75.5 q7 31 16 72 l-418 0 l-66 -374 q-3 -17 -1.5 -28 q1.5 -11 12 -17.5 q10.5 -6.5 30 -9 q19.5 -2.5 50.5 -2.5 l320 0 q24 0 41.5 5 q17.5 5 30.5 18.5 q13 13.5 22 37.5 q9 24 20 62 q3 7 7 12.5 q4 5.5 9 9 q5 3.5 10.5 4.5 q5.5 1 11.5 -1 q3 -2 5 -5 q2 -3 3.5 -6.5 q1.5 -3.5 2 -8.5 q0.5 -5 0.5 -10 q-14 -48 -27 -79.5 q-13 -31.5 -31 -50.5 q-18 -19 -45.5 -26.5 q-27.5 -7.5 -68.5 -7.5 l-316 0 q-44 0 -73 4.5 q-29 4.5 -44 15.5 q-15 11 -19 31 q-4 20 1 52 l70 394 ZM660 814 q3 4 7.5 6.5 q4.5 2.5 8.5 4 q4 1.5 8.5 2 q4.5 0.5 7.5 -0.5 l2 -1 q4 -2 6 -6 q2 -4 2 -9 q0 -5 -1.5 -10.5 q-1.5 -5.5 -5.5 -9.5 q-5 -5 -9 -10 q1 -1 1 -2 q64 -105 151.5 -179.5 q87.5 -74.5 192.5 -134.5 q12 -6 13.5 -17.5 q1.5 -11.5 -6.5 -19.5 q-4 -4 -8 -5.5 q-4 -1.5 -8.5 -2.5 q-4.5 -1 -9 0 q-4.5 1 -9.5 2 q-105 64 -194 142 q-87 77 -154 183 q-33 -34 -70 -67 q-60 -56 -126 -105.5 q-66 -49.5 -136 -92.5 q-70 -43 -141 -76 q-3 -2 -7.5 -2 q-4.5 0 -8.5 0.5 q-4 0.5 -6.5 2.5 q-2.5 2 -5.5 5 q-7 9 -1.5 21 q5.5 12 19.5 19 q68 31 136 71.5 q68 40.5 131 87.5 q63 47 119.5 99 q56.5 52 101.5 105 Z" /><glyph glyph-name="" unicode="&#x4ed4;" d="M519 740 q1 5 4 9 q3 4 7 7.5 q4 3.5 9.5 5 q5.5 1.5 9.5 1.5 l464 0 q5 0 9 -2 q2 0 3 -1 l0 1 q3 2 7 2 q2 0 3.5 0.5 q1.5 0.5 3.5 0.5 q2 1 6.5 0 q4.5 -1 6.5 -4 l2 -2 q4 -2 6 -6.5 q2 -4.5 2 -10.5 q0 -6 -3 -11 q-3 -5 -7 -9 q-30 -27 -65 -53.5 q-35 -26.5 -71.5 -51.5 q-36.5 -25 -74 -47.5 q-37.5 -22.5 -71.5 -39.5 l-4 -2 l0 -5 l-22 -125 l275 0 q5 0 9.5 -1.5 q4.5 -1.5 7.5 -5 q3 -3.5 4.5 -7 q1.5 -3.5 1.5 -8.5 q-1 -4 -4 -8 q-3 -4 -7.5 -8 q-4.5 -4 -9.5 -5.5 q-5 -1.5 -9 -1.5 l-276 0 l-62 -352 q-5 -28 -16.5 -41.5 q-11.5 -13.5 -33.5 -20.5 q-21 -5 -59 -6 q-38 -1 -97 -1 q-8 0 -14.5 5 q-6.5 5 -8.5 12 q-1 6 1 11 q2 5 6.5 9 q4.5 4 10.5 6.5 q6 2.5 13 2.5 q45 -1 76.5 -1 q31.5 0 46.5 1 q14 1 20 5.5 q6 4.5 9 17.5 l62 352 l-276 0 q-4 0 -9 1.5 q-5 1.5 -8 5.5 q-3 4 -4 8 q-1 4 0 8 q0 5 3 8.5 q3 3.5 7.5 7 q4.5 3.5 9.5 5 q5 1.5 9 1.5 l275 0 l22 124 q1 5 4 9.5 q3 4.5 6.5 8 q3.5 3.5 8.5 5.5 l3 3 q5 11 18 19 q36 18 71.5 40.5 q35.5 22.5 68.5 46 q33 23.5 64 47.5 q11 9 21 18 l-442 0 q-5 0 -10 2 q-5 2 -8 5 q-3 3 -4 7 q-1 4 -1 8 ZM437 812 q3 5 6.5 8 q3.5 3 8 5 q4.5 2 9 3.5 q4.5 1.5 8.5 -0.5 q5 -1 7.5 -4 q2.5 -3 3.5 -7.5 q1 -4.5 0.5 -10.5 q-0.5 -6 -3.5 -10 q-61 -109 -136 -208 l-112 -636 q-1 -5 -3.5 -10 q-2.5 -5 -6 -8.5 q-3.5 -3.5 -8.5 -5.5 q-5 -2 -9 -2 q-4 0 -7.5 2 q-3.5 2 -6.5 5.5 q-3 3.5 -4 8.5 q-1 5 0 10 l99 562 q-49 -59 -100 -109 q-5 -5 -11 -7.5 q-6 -2.5 -11 -2.5 q-5 0 -9.5 2 q-4.5 2 -7.5 7 l0 1 l-1 0 q-3 7 0 17.5 q3 10.5 10 17.5 q78 71 151.5 168.5 q73.5 97.5 132.5 203.5 Z" /><glyph glyph-name="" unicode="&#x4ed6;" d="M789 807 q2 5 4.5 10 q2.5 5 6.5 8.5 q4 3.5 8.5 6 q4.5 2.5 9 2.5 q4.5 0 8 -2.5 q3.5 -2.5 6 -6 q2.5 -3.5 3.5 -8.5 q1 -5 0 -10 l-43 -242 l195 71 q3 1 8 1 l7 7 q4 4 11 4.5 q7 0.5 11 -1.5 l1 -1 q8 -3 12 -7 q4 -4 4 -7 q-1 -1 -2 -4 q-1 -3 -1 -6 q-12 -69 -24 -131 q-12 -62 -22.5 -112.5 q-10.5 -50.5 -19.5 -86 q-9 -35.5 -17 -51.5 q-13 -32 -31.5 -45 q-18.5 -13 -41.5 -16 q-15 -2 -35.5 -2.5 q-20.5 -0.5 -38.5 0.5 q-4 0 -7.5 1 q-3.5 1 -6.5 3.5 q-3 2.5 -4.5 5 q-1.5 2.5 -2.5 5.5 q0 12 6.5 20 q6.5 8 18.5 8 q17 -1 31 -0.5 q14 0.5 25 0.5 q15 0 26 6 q11 6 21 28 q6 14 14 47.5 q8 33.5 18.5 82 q10.5 48.5 22.5 109.5 q8 45 17 96 l-203 -74 l-62 -349 q-1 -6 -3.5 -10.5 q-2.5 -4.5 -6.5 -8.5 q-4 -4 -8.5 -6 q-4.5 -2 -9 -2 q-4.5 0 -8 2 q-3.5 2 -5.5 6 q-2 4 -3.5 8.5 q-1.5 4.5 -0.5 10.5 l58 331 l-192 -69 l-66 -376 q-4 -22 -2.5 -35.5 q1.5 -13.5 9.5 -21.5 q8 -8 25.5 -11 q17.5 -3 44.5 -3 l292 0 q21 0 35 5 q14 5 25 17.5 q11 12.5 19 34.5 q8 22 17 54 q6 15 16 22 q10 7 21 3 q6 -3 9 -11.5 q3 -8.5 1 -17.5 q-11 -43 -22.5 -71.5 q-11.5 -28.5 -28 -46.5 q-16.5 -18 -40.5 -25.5 q-24 -7.5 -62 -7.5 l-287 0 q-39 0 -65 5 q-26 5 -40 18 q-14 13 -16.5 35 q-2.5 22 3.5 57 l63 358 l-94 -34 q-4 -1 -9.5 -1 q-5.5 0 -9.5 1.5 q-4 1.5 -6.5 4.5 q-2.5 3 -4.5 7 q0 4 1 8.5 q1 4.5 4 8.5 q3 4 7 8 q4 4 9 5 l112 41 l45 256 q0 5 3 9.5 q3 4.5 7 8.5 q4 4 8.5 6 q4.5 2 9.5 2 q4 0 7.5 -2 q3.5 -2 6.5 -6 q3 -4 3.5 -8.5 q0.5 -4.5 0.5 -9.5 l-42 -238 l192 69 l45 260 ZM435 808 q3 4 6.5 7.5 q3.5 3.5 8.5 5.5 q5 2 9 3 q4 1 9 0 q4 -1 6.5 -4.5 q2.5 -3.5 3.5 -8 q1 -4.5 0 -10 q-1 -5.5 -3 -9.5 q-59 -100 -130 -192 l-115 -645 q0 -6 -3 -10.5 q-3 -4.5 -6.5 -8 q-3.5 -3.5 -8 -6 q-4.5 -2.5 -9 -2.5 q-4.5 0 -8 2.5 q-3.5 2.5 -7 6 q-3.5 3.5 -4 8 q-0.5 4.5 -0.5 9.5 l102 575 q-60 -71 -123 -128 q-5 -5 -10.5 -7 q-5.5 -2 -11 -2.5 q-5.5 -0.5 -9.5 1.5 q-4 2 -7 6 l0 2 q-4 7 0 17.5 q4 10.5 11 17.5 q83 72 160.5 169 q77.5 97 138.5 203 Z" /><glyph glyph-name="" unicode="&#x4ed8;" d="M465 585 q0 4 3 8 q3 4 7.5 7.5 q4.5 3.5 9.5 5.5 q5 2 10 2 l394 0 l34 188 q1 5 3.5 9.5 q2.5 4.5 7 8 q4.5 3.5 8.5 6 q4 2.5 8 2.5 l1 0 q5 0 9 -2.5 q4 -2.5 6.5 -6 q2.5 -3.5 3.5 -8 q1 -4.5 -1 -9.5 l-33 -188 l109 0 q6 0 10.5 -2 q4.5 -2 7.5 -5.5 q3 -3.5 4.5 -7.5 q1.5 -4 1.5 -8 l0 -1 q-1 -5 -4 -9 q-3 -4 -7.5 -7 q-4.5 -3 -9.5 -5 q-5 -2 -11 -2 l-109 0 l-99 -559 q-6 -34 -19.5 -49 q-13.5 -15 -39.5 -21 q-24 -6 -68.5 -7 q-44.5 -1 -118.5 -1 q-7 0 -12.5 4.5 q-5.5 4.5 -7.5 11.5 q-3 12 6.5 22 q9.5 10 24.5 9 q55 -2 94.5 -1.5 q39.5 0.5 57.5 1.5 q17 1 25 7.5 q8 6.5 11 23.5 l99 559 l-394 0 q-5 0 -10 2 q-5 2 -8 5 q-3 3 -4.5 7 q-1.5 4 0.5 9 l0 1 ZM465 805 q3 4 6.5 7 q3.5 3 8.5 5.5 q5 2.5 9.5 3.5 q4.5 1 8.5 0 l1 0 q4 -1 7 -4.5 q3 -3.5 4 -8 q1 -4.5 -0.5 -10 q-1.5 -5.5 -3.5 -9.5 q-64 -109 -139 -206 l-111 -628 q0 -5 -3 -10 q-3 -5 -6.5 -8.5 q-3.5 -3.5 -8 -6 q-4.5 -2.5 -9.5 -2.5 q-5 0 -8.5 2.5 q-3.5 2.5 -7 6 q-3.5 3.5 -4 8.5 q-0.5 5 0.5 9 l98 558 q-60 -69 -121 -125 q-6 -4 -11.5 -6.5 q-5.5 -2.5 -10.5 -2.5 q-5 0 -9.5 2.5 q-4.5 2.5 -7.5 6.5 l0 2 q-2 3 -2 8 q0 5 1 9.5 q1 4.5 3.5 9 q2.5 4.5 7.5 8.5 q84 73 164 172.5 q80 99.5 143 208.5 ZM520 391 q-2 4 -2 9.5 q0 5.5 1.5 10.5 q1.5 5 5 9 q3.5 4 7.5 6 l1 0 q4 2 7.5 1.5 q3.5 -0.5 7.5 -1.5 q4 -1 7.5 -4 q3.5 -3 4.5 -6 q13 -26 27.5 -54.5 q14.5 -28.5 27.5 -56 q13 -27.5 24 -53.5 q11 -26 20 -47 q2 -4 1 -8.5 q-1 -4.5 -3 -9 q-2 -4.5 -5 -8.5 q-3 -4 -7 -6 l-1 0 q-5 -3 -9.5 -3 q-4.5 0 -9.5 1.5 q-5 1.5 -9 5 q-4 3.5 -5 8.5 q-7 21 -18 46.5 q-11 25.5 -23 52 q-12 26.5 -25 54.5 q-13 28 -25 53 Z" /><glyph glyph-name="" unicode="&#x4ee3;" d="M419 465 q1 4 3 8 q2 4 6.5 8 q4.5 4 9 6.5 q4.5 2.5 8.5 2.5 l249 30 q9 128 27 272 q1 6 3.5 11 q2.5 5 6.5 9 q4 4 8.5 6 q4.5 2 8.5 2 l1 0 q4 0 8 -2 q4 -2 6.5 -5.5 q2.5 -3.5 4 -8 q1.5 -4.5 0.5 -9.5 q-20 -143 -28 -270 l294 35 q4 0 8.5 -1 q4.5 -1 8 -3.5 q3.5 -2.5 6 -6.5 q2.5 -4 2.5 -7 q0 -5 -3 -9.5 q-3 -4.5 -6.5 -7.5 q-3.5 -3 -8.5 -6 q-5 -3 -11 -3 l-292 -35 l0 -2 q-8 -147 4 -256 q12 -109 47.5 -174 q35.5 -65 97.5 -70 q20 -1 41 35.5 q21 36.5 42 107.5 q5 15 15 21.5 q10 6.5 21 1.5 q3 -3 5.5 -10 q2.5 -7 -0.5 -14 q-17 -56 -33 -93 q-16 -37 -31.5 -60.5 q-15.5 -23.5 -32.5 -33 q-17 -9.5 -36 -8.5 q-79 5 -121.5 73.5 q-42.5 68.5 -58 185.5 q-15.5 117 -7.5 273 q0 9 1 18 l-249 -30 q-5 0 -9 1 q-4 1 -8 3.5 q-4 2.5 -6 6 q-2 3.5 -2 8.5 ZM483 801 q2 4 5.5 7.5 q3.5 3.5 9 5.5 q5.5 2 9.5 2.5 q4 0.5 8 -0.5 q4 -2 7 -5 q3 -3 4 -7.5 q1 -4.5 -0.5 -10 q-1.5 -5.5 -4.5 -10.5 q-63 -99 -138 -188 l-113 -642 l-4 -9 q-3 -5 -6.5 -8.5 q-3.5 -3.5 -8 -6 q-4.5 -2.5 -8.5 -2.5 l-1 0 q-5 0 -9 2.5 q-4 2.5 -7 6 q-3 3.5 -3.5 8.5 q-0.5 5 0.5 10 l101 575 q-77 -82 -158 -146 q-4 -5 -9.5 -6.5 q-5.5 -1.5 -10.5 -1 q-5 0.5 -8.5 2.5 q-3.5 2 -6.5 6 l0 1 q-5 8 -1 18 q4 10 12 17 q94 73 183 172 q89 99 158 209 ZM891 760 q-3 5 -5 10 q-2 5 -1 9.5 q1 4.5 3 9 q2 4.5 6 7.5 q5 3 13 2 q8 -1 13 -6 q36 -30 70.5 -65 q34.5 -35 56.5 -64 q2 -4 3 -8 q1 -4 0 -8.5 q-1 -4.5 -3.5 -8.5 q-2.5 -4 -6.5 -7 q-3 -2 -8 -2.5 q-5 -0.5 -9.5 0.5 q-4.5 1 -8.5 3.5 q-4 2.5 -7 6.5 q-21 26 -52.5 59.5 q-31.5 33.5 -63.5 61.5 Z" /><glyph glyph-name="" unicode="&#x4ee4;" d="M396 147 q-5 4 -7 9 q-2 5 -2.5 10 q-0.5 5 1.5 10 q2 5 8 9 l1 0 q5 4 13.5 5 q8.5 1 13.5 -3 q32 -24 65 -51 l58 -48 q41 34 85 71 q44 37 86 73 q42 36 79 69 q14 11 26 22 l-546 0 q-4 0 -9 2.5 q-5 2.5 -8 5.5 q-3 3 -4 7 q-1 4 0 8 q0 5 3 9 q3 4 7.5 7.5 q4.5 3.5 9.5 5 q5 1.5 9 1.5 l567 0 q4 0 9 -1 q4 -2 7 -4 q0 1 1 1 q0 3 2 3.5 q2 0.5 5 0.5 q1 0 3 0.5 q2 0.5 4 1.5 q3 1 6.5 0 q3.5 -1 7.5 -4 l2 -1 q3 -3 4.5 -7.5 q1.5 -4.5 1 -10 q-0.5 -5.5 -3 -11 q-2.5 -5.5 -8.5 -9.5 q-33 -29 -72 -63 q-39 -34 -81.5 -70 q-42.5 -36 -84.5 -72 q-39 -33 -76 -65 q18 -15 33 -31 q28 -27 48 -50 q4 -3 5.5 -8 q1.5 -5 0.5 -9.5 q-1 -4.5 -3 -9.5 q-2 -5 -6 -8 l-2 -2 q-3 -4 -8.5 -5.5 q-5.5 -1.5 -10 -1 q-4.5 0.5 -9.5 2 q-5 1.5 -8 4.5 q-18 22 -44 48.5 q-26 26.5 -55.5 54 q-29.5 27.5 -61 54 q-31.5 26.5 -62.5 50.5 ZM664 818 q7 6 16.5 9 q9.5 3 15.5 -1 l1 0 q4 -2 6 -6.5 q2 -4.5 1.5 -10 q-0.5 -5.5 -3 -10.5 q-2.5 -5 -7.5 -9 q-4 -4 -7 -8 q1 -1 2 -3 q29 -41 69.5 -83 q40.5 -42 86.5 -80 q46 -38 95.5 -71.5 q49.5 -33.5 97.5 -56.5 q11 -6 12 -17.5 q1 -11.5 -9 -22.5 q-2 -3 -6.5 -5 q-4.5 -2 -9 -3 q-4.5 -1 -9 -0.5 q-4.5 0.5 -7.5 2.5 q-47 25 -97 59.5 q-50 34.5 -97 74.5 q-47 40 -89 85 q-42 43 -74 87 q-31 -30 -65 -59 q-58 -50 -123 -94.5 q-65 -44.5 -133 -83.5 q-68 -39 -137 -71 q-5 -1 -9 -1.5 q-4 -0.5 -8.5 0 q-4.5 0.5 -7.5 2.5 q-3 2 -5 4 q-6 10 -1 21 q5 11 20 17 q66 30 133.5 68 q67.5 38 129.5 81 q62 43 117.5 90.5 q55.5 47.5 100.5 95.5 ZM550 554 q-4 4 -6 9 q-2 5 -1.5 10.5 q0.5 5.5 3 10 q2.5 4.5 7.5 7.5 q4 4 13 3 q9 -1 13 -6 q32 -27 61.5 -61 q29.5 -34 47.5 -63 q2 -3 2.5 -8 q0.5 -5 -0.5 -9.5 q-1 -4.5 -3 -8.5 q-2 -4 -6 -7 q-4 -3 -9 -3.5 q-5 -0.5 -10 0 q-5 0.5 -9 3.5 q-4 3 -7 7 q-16 26 -42 57.5 q-26 31.5 -54 58.5 Z" /><glyph glyph-name="" unicode="&#x4ee5;" d="M928 772 q1 5 4.5 9.5 q3.5 4.5 7.5 8 q4 3.5 9 5.5 q5 2 9 2 l2 0 q4 0 8 -2.5 q4 -2.5 6.5 -6.5 q2.5 -4 3 -9 q0.5 -5 -0.5 -10 q-42 -169 -88.5 -300.5 q-46.5 -131.5 -111.5 -233.5 q-3 -5 -7 -11 q2 -1 3 -2 q27 -29 53.5 -60.5 q26.5 -31.5 51 -63.5 q24.5 -32 45.5 -62.5 q21 -30.5 36 -57.5 q2 -4 2 -9 q0 -5 -1 -9.5 q-1 -4.5 -4 -8.5 q-3 -4 -8 -7 l-1 -1 q-4 -3 -9.5 -3.5 q-5.5 -0.5 -10 0 q-4.5 0.5 -8.5 3.5 q-4 3 -7 8 q-14 25 -33 54.5 q-19 29.5 -41.5 61 q-22.5 31.5 -48.5 62.5 q-24 29 -47 56 q-53 -71 -120 -126 q-90 -75 -219 -130 q-4 -2 -8.5 -2.5 q-4.5 -0.5 -9 0.5 q-4.5 1 -7.5 3 q-3 2 -5 5 q-7 10 -1 21.5 q6 11.5 20 18.5 q121 49 205.5 120 q84.5 71 145.5 168 q61 97 104.5 223 q43.5 126 80.5 286 ZM211 61 q-8 -4 -15 -5 q-1 -1 -2 -1 q-2 -1 -5 -2 q-5 -2 -10.5 -2 q-5.5 0 -10 2 q-4.5 2 -5.5 7 q-4 7 1 17.5 q5 10.5 15 18.5 q6 5 11.5 8.5 q5.5 3.5 11 9.5 q5.5 6 9.5 15 q4 9 7 25 l101 570 q1 6 3.5 11 q2.5 5 7 8.5 q4.5 3.5 8.5 5.5 q4 2 9 2 l2 0 q4 0 8 -2 q4 -2 6.5 -6 q2.5 -4 3.5 -8.5 q1 -4.5 0 -9.5 l-105 -594 l249 102 q5 3 10.5 3 q5.5 0 10 -1 q4.5 -1 8 -4.5 q3.5 -3.5 3.5 -7.5 q2 -7 -5 -16 q-7 -9 -14 -13 q-76 -30 -129 -52 q-53 -22 -89 -38 q-36 -16 -59 -26 q-23 -10 -36 -17 ZM546 701 q-3 5 -3 10.5 q0 5.5 1.5 11 q1.5 5.5 5 9.5 q3.5 4 8.5 6 q7 4 15.5 1.5 q8.5 -2.5 12.5 -8.5 q14 -24 28.5 -50 q14.5 -26 27.5 -52 q13 -26 23 -50.5 q10 -24.5 18 -46.5 q2 -4 1.5 -9 q-0.5 -5 -2 -9.5 q-1.5 -4.5 -4.5 -8 q-3 -3.5 -8 -6.5 l-1 0 q-4 -3 -9 -2.5 q-5 0.5 -9.5 2.5 q-4.5 2 -8 5.5 q-3.5 3.5 -6.5 8.5 q-14 41 -38 92.5 q-24 51.5 -52 95.5 Z" /><glyph glyph-name="" unicode="&#x4eea;" d="M548 759 q4 0 8 -1.5 q4 -1.5 7 -4.5 q3 -3 5 -7.5 q2 -4.5 2 -9.5 q1 -137 21 -256 q20 -119 64 -215 q13 -30 29 -58 q38 37 70 77 q81 99 140.5 216.5 q59.5 117.5 107.5 252.5 q1 4 4.5 8.5 q3.5 4.5 8.5 7 q5 2.5 10 4 q5 1.5 9 0.5 q5 0 7.5 -3 q2.5 -3 4.5 -7.5 q2 -4.5 2 -8.5 l0 -9 q-53 -142 -116 -265 q-63 -123 -147 -225 q-37 -44 -78 -84 q27 -40 61 -75 q70 -72 172 -117 q12 -6 13 -17.5 q1 -11.5 -9 -21.5 q-6 -6 -15 -8.5 q-9 -2.5 -17 1.5 q-107 47 -181 122 q-35 37 -64 79 q-38 -32 -80 -62 q-112 -81 -263 -139 q-7 -4 -16.5 -1.5 q-9.5 2.5 -12.5 7.5 q-5 8 2 18.5 q7 10.5 20 16.5 q144 56 250 134 q41 30 78 62 q-18 30 -32 62 q-45 101 -65.5 225.5 q-20.5 124.5 -23.5 272.5 q0 4 2.5 9 q2.5 5 5.5 9 q3 4 7 7 q4 3 9 4 ZM435 808 q3 5 7 8 q4 3 8.5 5 q4.5 2 9 3 q4.5 1 8.5 0 q4 -1 6.5 -4.5 q2.5 -3.5 4 -8 q1.5 -4.5 1 -10 q-0.5 -5.5 -3.5 -9.5 q-60 -102 -132 -195 l-114 -642 q0 -6 -3 -10.5 q-3 -4.5 -6.5 -8 q-3.5 -3.5 -8 -6 q-4.5 -2.5 -9 -2.5 q-4.5 0 -7.5 2.5 q-3 2.5 -6.5 6 q-3.5 3.5 -4 8 q-0.5 4.5 -0.5 9.5 l101 573 q-60 -70 -123 -127 q-5 -5 -10.5 -7.5 q-5.5 -2.5 -10.5 -2.5 q-5 0 -9.5 2.5 q-4.5 2.5 -7.5 6.5 l0 2 q-4 7 0 17.5 q4 10.5 11 17.5 q83 72 160.5 169 q77.5 97 138.5 203 ZM716 763 q-3 4 -2.5 9.5 q0.5 5.5 2 11 q1.5 5.5 4.5 10 q3 4.5 9 5.5 q6 4 14 1 q8 -3 11 -9 q23 -42 43 -88.5 q20 -46.5 31 -82.5 q2 -7 -1.5 -16 q-3.5 -9 -11.5 -12 q-5 -3 -10 -3 q-5 0 -10 2 q-5 2 -8.5 6 q-3.5 4 -5.5 9 q-10 34 -27.5 76 q-17.5 42 -37.5 81 Z" /><glyph glyph-name="" unicode="&#x4eec;" d="M734 774 q0 4 3 8 q3 4 7 7 q4 3 9 4.5 q5 1.5 10 1.5 l288 0 q5 0 9 -2 q0 -1 1 -1 q3 -1 5 -3 q3 -3 4.5 -7 q1.5 -4 0.5 -8 l0 -2 q0 -2 -1 -4 l-136 -770 q-4 -27 -15 -41 q-11 -14 -32 -21 q-19 -5 -51.5 -6 q-32.5 -1 -83.5 -1 q-8 -1 -15 4.5 q-7 5.5 -8 12.5 q-1 11 8 20 q9 9 23 9 q36 -1 62 -0.5 q26 0.5 39 1.5 q12 1 18 5.5 q6 4.5 8 16.5 l133 753 l-265 0 q-4 0 -8.5 1.5 q-4.5 1.5 -8 5.5 q-3.5 4 -5 7.5 q-1.5 3.5 0.5 8.5 ZM393 802 q2 4 6.5 8 q4.5 4 9 7 q4.5 3 9 4 q4.5 1 8.5 0 q4 0 7 -3.5 q3 -3.5 4.5 -7.5 q1.5 -4 1 -9.5 q-0.5 -5.5 -2.5 -10.5 q-48 -99 -104 -191 l-114 -646 q-1 -5 -3.5 -10 q-2.5 -5 -6.5 -8.5 q-4 -3.5 -8 -6 q-4 -2.5 -8.5 -2.5 q-4.5 0 -8 2.5 q-3.5 2.5 -6.5 6 q-3 3.5 -4 8.5 q-1 5 0 9 l97 551 q-43 -61 -88 -112 q-4 -6 -9.5 -8.5 q-5.5 -2.5 -11 -3 q-5.5 -0.5 -10 2 q-4.5 2.5 -6.5 7.5 l0 1 l-1 1 q-4 5 -2 15 q2 10 9 16 q67 75 130 174 q63 99 112 206 ZM481 618 q2 5 4.5 10 q2.5 5 6.5 8.5 q4 3.5 8.5 5.5 q4.5 2 8.5 2 q5 0 8.5 -2 q3.5 -2 6 -5.5 q2.5 -3.5 3.5 -8.5 q1 -5 0 -10 l-117 -666 q-1 -5 -3.5 -10 q-2.5 -5 -6.5 -8.5 q-4 -3.5 -8.5 -5.5 q-4.5 -2 -9.5 -2 q-4 0 -7.5 2 q-3.5 2 -6.5 5.5 q-3 3.5 -4 8.5 q-1 5 0 10 l117 666 ZM570 789 q-2 5 -2.5 10.5 q-0.5 5.5 1 10.5 q1.5 5 4.5 9 q3 4 8 6 q7 3 15 0 q8 -3 11 -10 q21 -38 39 -80 q18 -42 28 -75 q2 -4 1.5 -9 q-0.5 -5 -2 -9 q-1.5 -4 -4.5 -8 q-3 -4 -7 -5 q-4 -2 -9 -2.5 q-5 -0.5 -9 1.5 q-4 2 -7.5 6 q-3.5 4 -6.5 8 q-10 32 -26 71.5 q-16 39.5 -34 75.5 Z" /><glyph glyph-name="" unicode="&#x4ef6;" d="M775 797 q1 5 3.5 9.5 q2.5 4.5 7 8 q4.5 3.5 8.5 5.5 q4 2 8 2 l1 0 q5 0 8.5 -2 q3.5 -2 6.5 -5.5 q3 -3.5 3.5 -8 q0.5 -4.5 -0.5 -9.5 l-31 -174 l216 0 q5 0 9.5 -2 q4.5 -2 7.5 -5.5 q3 -3.5 4.5 -7.5 q1.5 -4 1.5 -9 q-2 -4 -5 -8 q-3 -4 -6.5 -7 q-3.5 -3 -9 -5.5 q-5.5 -2.5 -11.5 -2.5 l-215 0 l-44 -250 l259 0 q4 0 8.5 -1.5 q4.5 -1.5 7.5 -5.5 q3 -4 4.5 -8 q1.5 -4 -0.5 -8 q0 -5 -3 -9 q-3 -4 -7.5 -7 q-4.5 -3 -9 -5 q-4.5 -2 -8.5 -2 l-259 0 l-58 -329 q0 -5 -2.5 -9.5 q-2.5 -4.5 -6.5 -8 q-4 -3.5 -8.5 -5.5 q-4.5 -2 -9.5 -2 l-1 0 q-4 0 -7.5 2 q-3.5 2 -6.5 5.5 q-3 3.5 -4 8 q-1 4.5 0 9.5 l58 329 l-272 0 q-5 0 -9.5 2 q-4.5 2 -7.5 5 q-3 3 -4 7 q-1 4 -1 9 q1 4 4 8 q3 4 7.5 8 q4.5 4 9 5.5 q4.5 1.5 9.5 1.5 l272 0 l44 250 l-161 0 q-6 0 -11 3 q-4 1 -6 4 l-2 -4 q-42 -81 -91 -145 q-3 -4 -8 -7 q-5 -3 -9.5 -4.5 q-4.5 -1.5 -9 -1.5 q-4.5 0 -7.5 2 q-7 5 -7 16 q0 11 7 22 q49 59 88.5 136.5 q39.5 77.5 70.5 163.5 q2 4 5.5 9 q3.5 5 8 8 q4.5 3 9 4 q4.5 1 9.5 1 q4 -1 6.5 -4 q2.5 -3 4.5 -7.5 q2 -4.5 2 -9.5 q0 -5 -3 -10 q-25 -68 -55 -130 q2 1 4 1 l163 0 l31 174 ZM438 808 q3 5 6.5 8 q3.5 3 8 5 q4.5 2 9 3 q4.5 1 8.5 0 q5 -1 7.5 -4.5 q2.5 -3.5 3.5 -8 q1 -4.5 0.5 -10 q-0.5 -5.5 -3.5 -9.5 q-57 -101 -125 -194 l-114 -643 q-1 -6 -3.5 -10.5 q-2.5 -4.5 -6.5 -8 q-4 -3.5 -8.5 -6 q-4.5 -2.5 -9 -2.5 q-4.5 0 -8 2.5 q-3.5 2.5 -6 6 q-2.5 3.5 -3.5 8 q-1 4.5 -1 9.5 l100 567 q-54 -66 -110 -121 q-5 -4 -10.5 -7 q-5.5 -3 -11 -3 q-5.5 0 -10 2.5 q-4.5 2.5 -7.5 6.5 l0 2 q-4 7 -1 17.5 q3 10.5 10 16.5 q79 72 152.5 169.5 q73.5 97.5 132.5 203.5 Z" /><glyph glyph-name="" unicode="&#x4ef7;" d="M438 811 q2 5 6 8 q4 3 8.5 5.5 q4.5 2.5 9 3 q4.5 0.5 7.5 0.5 q5 -2 8 -5 q3 -3 4 -8 q1 -5 0.5 -10 q-0.5 -5 -4.5 -10 q-56 -102 -123 -195 l-114 -648 q-1 -5 -3.5 -10 q-2.5 -5 -7 -8.5 q-4.5 -3.5 -9 -5.5 q-4.5 -2 -9.5 -2 q-5 0 -8 2 q-3 2 -6 5.5 q-3 3.5 -4 8.5 q-1 5 0 10 l99 566 q-50 -63 -102 -115 q-6 -5 -11.5 -7.5 q-5.5 -2.5 -11 -2.5 q-5.5 0 -9.5 2.5 q-4 2.5 -6 6.5 l0 1 l-1 1 q-4 7 -1.5 17.5 q2.5 10.5 9.5 16.5 q77 72 149 169.5 q72 97.5 130 203.5 ZM766 817 q4 8 13 12.5 q9 4.5 16 3.5 l1 -1 q6 -1 9 -4.5 q3 -3.5 4.5 -8 q1.5 -4.5 1 -10 q-0.5 -5.5 -4.5 -11.5 q-6 -9 -13 -18 q2 -2 4 -5 q18 -43 45.5 -84 q27.5 -41 59 -79.5 q31.5 -38.5 66.5 -71 q35 -32.5 71 -56.5 q10 -8 10.5 -19.5 q0.5 -11.5 -8.5 -19.5 q-2 -3 -6.5 -5 q-4.5 -2 -9 -2 q-4.5 0 -9 0.5 q-4.5 0.5 -8.5 3.5 q-36 26 -72.5 61 q-36.5 35 -69.5 75.5 q-33 40.5 -62 85.5 q-24 37 -42 75 q-14 -18 -29 -36 q-42 -49 -91.5 -97 q-49.5 -48 -107.5 -93.5 q-58 -45.5 -125 -84.5 q-10 -5 -20 -4.5 q-10 0.5 -14 6.5 q-5 8 0.5 19 q5.5 11 18.5 19 q64 37 119.5 80.5 q55.5 43.5 102.5 89 q47 45.5 84.5 92 q37.5 46.5 65.5 87.5 ZM543 429 q1 4 3.5 8.5 q2.5 4.5 7 8 q4.5 3.5 9 6 q4.5 2.5 8.5 2.5 l1 0 q4 0 8 -2.5 q4 -2.5 6.5 -6 q2.5 -3.5 3.5 -8 q1 -4.5 0 -8.5 l-20 -112 q-7 -41 -20 -89 q-13 -48 -37.5 -98.5 q-24.5 -50.5 -65.5 -100 q-41 -49.5 -103 -94.5 q-4 -3 -9.5 -5 q-5.5 -2 -10 -2 q-4.5 0 -8 1.5 q-3.5 1.5 -6.5 4.5 q-6 7 -2.5 18.5 q3.5 11.5 14.5 20.5 q56 39 92 84 q36 45 58 90 q22 45 33.5 88.5 q11.5 43.5 18.5 81.5 l19 112 ZM833 428 q1 5 3.5 10 q2.5 5 7 8.5 q4.5 3.5 8.5 5.5 q4 2 8 2 l1 0 q5 0 9 -2 q4 -2 6.5 -5.5 q2.5 -3.5 3.5 -8.5 q1 -5 0 -10 l-84 -475 q-1 -4 -3.5 -9 q-2.5 -5 -6.5 -8.5 q-4 -3.5 -8 -6 q-4 -2.5 -9 -2.5 l-1 0 q-4 0 -8 2.5 q-4 2.5 -7 6 q-3 3.5 -4 8.5 q-1 5 0 9 l84 475 Z" /><glyph glyph-name="" unicode="&#x4efb;" d="M1016 797 q7 2 14.5 0 q7.5 -2 10.5 -5 l1 -2 q3 -5 3.5 -11 q0.5 -6 -1.5 -11.5 q-2 -5.5 -7 -9 q-5 -3.5 -13 -6.5 q-51 -15 -114 -29 q-56 -12 -115 -23 l0 -2 q1 -4 0 -9 l-51 -290 l278 0 q5 0 9.5 -1.5 q4.5 -1.5 7.5 -4.5 q3 -3 4.5 -7 q1.5 -4 0.5 -9 q-1 -4 -4 -8 q-3 -4 -7 -7.5 q-4 -3.5 -9 -5.5 q-5 -2 -10 -2 l-278 0 l-57 -325 q-1 -5 -4 -10 l-4 -6 l264 0 q4 0 9 -2 q5 -2 8 -5 q3 -3 4 -7 q1 -4 1 -8 q-1 -5 -4 -9 q-3 -4 -7 -7.5 q-4 -3.5 -9.5 -5 q-5.5 -1.5 -9.5 -1.5 l-555 0 q-4 0 -8.5 1.5 q-4.5 1.5 -8 5 q-3.5 3.5 -4.5 7.5 q-1 4 0 9 q0 4 3 8 q3 4 7 7 q4 3 9.5 5 q5.5 2 9.5 2 l255 0 q-2 3 -3 6 q-1 5 1 10 l57 325 l-287 0 q-5 0 -9.5 2 q-4.5 2 -7.5 5.5 q-3 3.5 -4.5 7.5 q-1.5 4 -0.5 8 q1 5 3.5 9 q2.5 4 7 7 q4.5 3 9.5 4.5 q5 1.5 10 1.5 l287 0 l51 290 l0 3 q-53 -9 -107 -17 q-70 -11 -136 -19 q-11 -2 -18.5 2.5 q-7.5 4.5 -9.5 10.5 q-1 9 7.5 17.5 q8.5 8.5 21.5 9.5 q67 10 137.5 21 q70.5 11 138 24 q67.5 13 128 27 q60.5 14 105.5 29 ZM467 812 q2 5 5.5 8.5 q3.5 3.5 8.5 5.5 q5 2 9.5 3 q4.5 1 7.5 0 l1 0 q5 -2 7.5 -5 q2.5 -3 3.5 -7.5 q1 -4.5 0 -10 q-1 -5.5 -5 -10.5 q-61 -101 -134 -192 l-115 -651 q-1 -6 -3.5 -11 q-2.5 -5 -7 -8.5 q-4.5 -3.5 -9 -5.5 q-4.5 -2 -8.5 -2 q-5 0 -8.5 2 q-3.5 2 -6 5.5 q-2.5 3.5 -4 8.5 q-1.5 5 0.5 10 l102 583 q-70 -78 -143 -141 q-5 -5 -10.5 -7 q-5.5 -2 -11 -2 q-5.5 0 -9.5 2.5 q-4 2.5 -6 6.5 q-1 0 -1 1 l0 1 q-5 7 -1 18 q4 11 12 18 q89 72 173.5 171.5 q84.5 99.5 151.5 208.5 Z" /><glyph glyph-name="" unicode="&#x4efd;" d="M482 413 q0 5 3 8.5 q3 3.5 7.5 7 q4.5 3.5 9.5 5 q5 1.5 9 1.5 l403 0 q5 0 10 -2 l2 -2 q3 -1 4 -2 q3 -4 4.5 -7.5 q1.5 -3.5 1.5 -8.5 l-2 -4 l0 -1 q-27 -116 -47 -196 q-20 -80 -36.5 -132 q-16.5 -52 -30.5 -80.5 q-14 -28.5 -29 -41.5 q-14 -14 -28 -19.5 q-14 -5.5 -34 -6.5 l-39 0 q-25 0 -53 2 q-8 0 -15 5.5 q-7 5.5 -7 11.5 q-1 11 7.5 19 q8.5 8 23.5 7 q13 -1 23.5 -1.5 q10.5 -0.5 19.5 -1 q9 -0.5 17 -0.5 l14 0 q13 0 21 2.5 q8 2.5 17 10.5 q10 10 22.5 37 q12.5 27 29 79 q16.5 52 36.5 130 q17 67 38 158 l-209 0 q0 -5 -2 -9 q-47 -157 -117.5 -265.5 q-70.5 -108.5 -182.5 -178.5 q-4 -3 -8.5 -3.5 q-4.5 -0.5 -9 -0.5 q-4.5 0 -7.5 1 q-3 1 -6 4 q-5 8 -1 20.5 q4 12.5 17 20.5 q101 62 165 163 q64 101 105 244 q0 2 1 4 l-126 0 q-4 0 -8.5 1.5 q-4.5 1.5 -8 5 q-3.5 3.5 -4.5 7.5 q-1 4 0 8 ZM428 808 q3 5 6.5 8 q3.5 3 8.5 5.5 q5 2.5 9 3 q4 0.5 8 0.5 q5 -2 7.5 -5 q2.5 -3 4 -7.5 q1.5 -4.5 0.5 -10 q-1 -5.5 -4 -10.5 q-55 -102 -121 -196 l-113 -644 q-1 -5 -3.5 -10 q-2.5 -5 -7 -8.5 q-4.5 -3.5 -9 -5.5 q-4.5 -2 -9.5 -2 q-4 0 -7.5 2 q-3.5 2 -6 5.5 q-2.5 3.5 -4 8.5 q-1.5 5 -0.5 10 l100 563 q-49 -62 -100 -115 q-5 -4 -10.5 -7 q-5.5 -3 -10.5 -3 q-5 0 -10 2.5 q-5 2.5 -7 6.5 l0 1 l-1 1 q-4 7 -1 17.5 q3 10.5 10 17.5 q75 72 145.5 169.5 q70.5 97.5 125.5 202.5 ZM670 785 q4 9 14 15 q10 6 17 3 q5 0 8.5 -3 q3.5 -3 5 -7.5 q1.5 -4.5 1 -10 q-0.5 -5.5 -2.5 -10.5 q-55 -112 -125 -204 q-70 -92 -154 -159 q-5 -5 -10.5 -6.5 q-5.5 -1.5 -10.5 -1.5 q-5 0 -9.5 1.5 q-4.5 1.5 -6.5 5.5 q-2 4 -2.5 9 q-0.5 5 1 10 q1.5 5 5 10.5 q3.5 5.5 8.5 9.5 q80 61 146 147 q66 86 115 191 ZM882 810 q9 3 15 -3.5 q6 -6.5 7 -15.5 q6 -57 16.5 -104 q10.5 -47 26.5 -87.5 q16 -40.5 39 -76 q23 -35.5 52 -67.5 q8 -8 7.5 -20 q-0.5 -12 -9.5 -20 q-3 -3 -8.5 -5 q-5.5 -2 -11 -2 q-5.5 0 -10 2 q-4.5 2 -8.5 6 q-30 35 -53.5 74 q-23.5 39 -40 83.5 q-16.5 44.5 -27 95 q-10.5 50.5 -16.5 111.5 q-1 4 1 9 q2 5 5 9.5 q3 4.5 6.5 7.5 q3.5 3 8.5 3 Z" /><glyph glyph-name="" unicode="&#x4eff;" d="M455 633 q1 4 4 8 q3 4 7 8 q4 4 9 5.5 q5 1.5 10 1.5 l580 0 q5 0 9 -1.5 q4 -1.5 7 -5.5 q3 -4 4.5 -8 q1.5 -4 0.5 -8 q-1 -5 -3.5 -9 q-2.5 -4 -7 -7 q-4.5 -3 -9.5 -5 q-5 -2 -9 -2 l-374 0 l0 -4 q-18 -87 -40 -172 l1 1 q5 1 10 1 l288 0 q5 0 10 -1.5 q5 -1.5 8 -4.5 q3 -3 4.5 -7 q1.5 -4 0.5 -8 q0 -2 -1 -3 l0 -2 q-26 -117 -46 -197.5 q-20 -80.5 -35.5 -132 q-15.5 -51.5 -28.5 -80 q-13 -28.5 -27 -40.5 q-16 -14 -30.5 -19.5 q-14.5 -5.5 -36.5 -6.5 q-17 -2 -46.5 -1 q-29.5 1 -61.5 2 q-8 1 -15 6.5 q-7 5.5 -8 11.5 q0 12 10 19.5 q10 7.5 26 6.5 q15 -1 27.5 -1.5 q12.5 -0.5 23.5 -0.5 l36 0 q12 -1 19.5 0 q7.5 1 13.5 7 q2 2 4.5 4 q2.5 2 4.5 4 q12 11 23 38 q11 27 25.5 77.5 q14.5 50.5 33.5 127.5 q15 66 36 157 l-266 0 q-5 0 -10 2 q-1 0 -3 1 q-24 -89 -58 -168 q-36 -87 -90 -160.5 q-54 -73.5 -130 -125.5 q-4 -3 -9 -4.5 q-5 -1.5 -10 -2 q-5 -0.5 -9 0.5 q-4 1 -6 4 q-7 7 -4 18.5 q3 11.5 15 20.5 q71 51 120.5 120.5 q49.5 69.5 83.5 152 q34 82.5 57.5 173.5 q23.5 91 42.5 183 l0 3 l-160 0 q-5 0 -9 2 q-4 2 -6.5 5 q-2.5 3 -4 7 q-1.5 4 -1.5 9 ZM435 809 q3 5 6.5 8 q3.5 3 8.5 5 q5 2 9.5 3 q4.5 1 9 0 q4.5 -1 7 -4.5 q2.5 -3.5 3.5 -8 q1 -4.5 0.5 -10 q-0.5 -5.5 -4.5 -10.5 q-57 -102 -126 -197 l-113 -640 q-1 -6 -4 -10.5 q-3 -4.5 -6.5 -8 q-3.5 -3.5 -8 -6 q-4.5 -2.5 -9 -2.5 q-4.5 0 -8 2.5 q-3.5 2.5 -6.5 6 q-3 3.5 -4 8 q-1 4.5 -1 9.5 l100 563 q-52 -64 -105 -117 q-5 -5 -10.5 -7 q-5.5 -2 -11 -2 q-5.5 0 -9.5 2.5 q-4 2.5 -7 6.5 l0 1 q-5 8 -2 18.5 q3 10.5 11 17.5 q77 71 149.5 168.5 q72.5 97.5 130.5 203.5 ZM767 791 q-1 6 -0.5 11 q0.5 5 4 9.5 q3.5 4.5 7.5 8 q4 3.5 9 3.5 l2 1 q7 1 13.5 -4 q6.5 -5 8.5 -12 q6 -26 11 -53.5 q5 -27.5 7 -50.5 q1 -5 0 -10 q-1 -5 -4.5 -9 q-3.5 -4 -7 -7.5 q-3.5 -3.5 -7.5 -4.5 l-2 0 q-4 -2 -8.5 -0.5 q-4.5 1.5 -8.5 4.5 q-4 3 -6.5 7 q-2.5 4 -3.5 9 q-1 21 -5.5 47 q-4.5 26 -8.5 51 Z" /><glyph glyph-name="" unicode="&#x4f01;" d="M99 -21 q0 4 3 8 q3 4 7.5 7 q4.5 3 9.5 5 q5 2 9 2 l114 0 q-1 3 0 7 l61 351 q2 6 4.5 11 q2.5 5 6.5 8.5 q4 3.5 9 5.5 q5 2 9.5 2 q4.5 0 8 -2 q3.5 -2 6 -5.5 q2.5 -3.5 3 -8.5 q0.5 -5 -0.5 -11 l-61 -351 q-1 -4 -2 -7 l220 0 q0 2 1 4 l95 538 q1 6 3.5 10.5 q2.5 4.5 6.5 8.5 q4 4 8.5 6 q4.5 2 9.5 2 l1 0 q5 0 8.5 -2 q3.5 -2 6 -6 q2.5 -4 3.5 -8.5 q1 -4.5 1 -10.5 l-39 -217 l279 0 q4 0 9 -2 q5 -2 7.5 -5.5 q2.5 -3.5 4 -7 q1.5 -3.5 1.5 -8.5 q-1 -4 -4 -8 q-3 -4 -7.5 -7 q-4.5 -3 -9.5 -5 q-5 -2 -9 -2 l-279 0 l-49 -276 q0 -2 -1 -4 l375 0 q5 0 9.5 -2 q4.5 -2 7.5 -5 q3 -3 4.5 -7 q1.5 -4 0.5 -8 q-1 -4 -3.5 -8 q-2.5 -4 -7 -7.5 q-4.5 -3.5 -9.5 -5 q-5 -1.5 -10 -1.5 l-800 0 q-4 0 -9 1.5 q-5 1.5 -8 5 q-3 3.5 -4 7.5 q-1 4 0 8 ZM662 825 q6 7 15.5 10.5 q9.5 3.5 15.5 -0.5 q4 -2 6 -6 q2 -4 2 -9.5 q0 -5.5 -2 -10.5 q-2 -5 -6 -9 q-4 -5 -8 -9 q2 -1 3 -3 q64 -105 152.5 -179 q88.5 -74 192.5 -132 q13 -6 14.5 -17.5 q1.5 -11.5 -6.5 -21.5 q-2 -2 -6.5 -4 q-4.5 -2 -9 -2.5 q-4.5 -0.5 -9 0.5 q-4.5 1 -8.5 2 q-105 62 -195 138 q-89 76 -158 185 q-32 -33 -67 -65 q-57 -53 -122 -100 q-65 -47 -134 -87 q-69 -40 -140 -72 q-4 -1 -8.5 -1.5 q-4.5 -0.5 -9 0.5 q-4.5 1 -7 3 q-2.5 2 -5.5 5 q-6 9 -0.5 20 q5.5 11 19.5 17 q69 30 136 68.5 q67 38.5 129 83 q62 44.5 116.5 94.5 q54.5 50 99.5 102 Z" /><glyph glyph-name="" unicode="&#x4f0f;" d="M420 505 q0 5 3 9 q3 4 7.5 7.5 q4.5 3.5 9.5 5.5 q5 2 9 2 l254 0 q10 43 18 84 l34 193 q1 5 3.5 10 q2.5 5 6.5 8.5 q4 3.5 8.5 6 q4.5 2.5 8.5 2.5 l1 0 q4 0 8 -2.5 q4 -2.5 6.5 -6 q2.5 -3.5 3.5 -8.5 q1 -5 0 -9 l-34 -194 q-7 -41 -17 -84 l285 0 q5 0 8.5 -2 q3.5 -2 6.5 -5.5 q3 -3.5 4.5 -7.5 q1.5 -4 1.5 -9 q-2 -4 -4.5 -8 q-2.5 -4 -6.5 -7.5 q-4 -3.5 -9 -5.5 q-5 -2 -10 -2 l-272 0 q2 -83 12 -157 q11 -77 34.5 -141 q23.5 -64 59 -114.5 q35.5 -50.5 85.5 -84.5 q9 -8 9.5 -20 q0.5 -12 -8.5 -20 q-2 -4 -7 -6 q-5 -2 -10 -2.5 q-5 -0.5 -10 0.5 q-5 1 -8 5 q-53 36 -90 90 q-37 54 -61.5 122.5 q-24.5 68.5 -36.5 149.5 q-6 45 -10 92 q-21 -61 -52 -122 q-46 -88 -118.5 -173 q-72.5 -85 -183.5 -159 q-4 -3 -8.5 -4.5 q-4.5 -1.5 -9 -1.5 q-4.5 0 -8 1 q-3.5 1 -6.5 3 q-8 8 -5.5 20 q2.5 12 14.5 20 q105 72 173.5 152 q68.5 80 111.5 162 q43 82 65 164 l6 24 l-251 0 q-5 0 -9 2 q-4 2 -7.5 5.5 q-3.5 3.5 -4.5 7.5 q-1 4 0 8 ZM447 809 q3 4 6 7.5 q3 3.5 8.5 5.5 q5.5 2 9.5 3 q4 1 8 0 q5 -2 7.5 -5 q2.5 -3 3.5 -7.5 q1 -4.5 0.5 -10 q-0.5 -5.5 -3.5 -10.5 q-57 -96 -124 -185 l-116 -652 q0 -6 -3 -10.5 q-3 -4.5 -7 -8.5 q-4 -4 -8.5 -6 q-4.5 -2 -9.5 -2 q-5 0 -8.5 2 q-3.5 2 -6 6 q-2.5 4 -4 8.5 q-1.5 4.5 -0.5 9.5 l102 577 q-62 -73 -128 -132 q-5 -5 -10.5 -7 q-5.5 -2 -10.5 -2.5 q-5 -0.5 -9.5 2 q-4.5 2.5 -6.5 6.5 q-1 1 -1 2 q-4 7 -0.5 17.5 q3.5 10.5 11.5 17.5 q81 72 159.5 169.5 q78.5 97.5 140.5 204.5 ZM902 752 q-3 4 -3.5 9 q-0.5 5 1 10 q1.5 5 4.5 9.5 q3 4.5 7 6.5 q3 1 6.5 1.5 q3.5 0.5 8 -0.5 q4.5 -1 7.5 -3.5 q3 -2.5 5 -5.5 q23 -33 45 -70.5 q22 -37.5 36 -66.5 q1 -3 1 -7.5 q0 -4.5 -1.5 -9 q-1.5 -4.5 -4 -8 q-2.5 -3.5 -6.5 -6.5 q-3 -3 -8.5 -3 q-5.5 0 -10 1.5 q-4.5 1.5 -8.5 5 q-4 3.5 -7 7.5 q-12 29 -32.5 63.5 q-20.5 34.5 -39.5 66.5 Z" /><glyph glyph-name="" unicode="&#x4f11;" d="M756 796 q1 5 3.5 9.5 q2.5 4.5 7 8 q4.5 3.5 8.5 6 q4 2.5 9 2.5 q4 0 8 -2.5 q4 -2.5 6.5 -6 q2.5 -3.5 3.5 -8 q1 -4.5 0 -9.5 l-40 -224 l283 0 q4 0 9 -2 q5 -2 7.5 -5.5 q2.5 -3.5 4 -7.5 q1.5 -4 1.5 -8 q-1 -5 -4 -9 q-3 -4 -7 -7 q-4 -3 -9.5 -5 q-5.5 -2 -9.5 -2 l-244 0 q12 -57 32 -114 q20 -59 46.5 -113.5 q26.5 -54.5 57 -101 q30.5 -46.5 62.5 -81.5 q7 -8 6 -19.5 q-1 -11.5 -9 -17.5 q-4 -4 -9.5 -5.5 q-5.5 -1.5 -10.5 -1.5 q-5 0 -9.5 2 q-4.5 2 -7.5 5 q-32 37 -62.5 87 q-30.5 50 -57 107.5 q-26.5 57.5 -47.5 120.5 q-20 58 -33 117 l-99 -560 q0 -5 -2.5 -9.5 q-2.5 -4.5 -6.5 -8 q-4 -3.5 -8.5 -6 q-4.5 -2.5 -9.5 -2.5 q-4 0 -7.5 2.5 q-3.5 2.5 -6.5 6 q-3 3.5 -4 8 q-1 4.5 -1 9.5 l97 545 q-31 -54 -66 -107 q-42 -65 -88.5 -122.5 q-46.5 -57.5 -95.5 -107 q-49 -49.5 -96 -87.5 q-5 -3 -10 -5 q-5 -2 -9.5 -2 q-4.5 0 -9 1.5 q-4.5 1.5 -6.5 4.5 q-4 4 -5 9.5 q-1 5.5 1.5 11 q2.5 5.5 6 11 q3.5 5.5 8.5 9.5 q47 35 94 81.5 q47 46.5 91.5 101 q44.5 54.5 84.5 115.5 q39 58 71 116 l-240 0 q-4 0 -8.5 2 q-4.5 2 -8 5 q-3.5 3 -4.5 7 q-1 4 0 9 q0 4 3 8 q3 4 7.5 7.5 q4.5 3.5 9.5 5.5 q5 2 9 2 l274 0 l40 224 ZM465 806 q5 7 15 12 q10 5 17 3 l1 0 q4 -1 7 -4.5 q3 -3.5 4 -8 q1 -4.5 -0.5 -10 q-1.5 -5.5 -3.5 -10.5 q-63 -103 -138 -194 l-112 -639 q-1 -5 -4 -10 q-3 -5 -6 -8.5 q-3 -3.5 -8 -6 q-5 -2.5 -9 -2.5 q-5 0 -8.5 2.5 q-3.5 2.5 -6.5 6 q-3 3.5 -3.5 8.5 q-0.5 5 -0.5 9 l101 573 q-69 -75 -143 -136 q-5 -4 -10.5 -6 q-5.5 -2 -10.5 -1.5 q-5 0.5 -9.5 3 q-4.5 2.5 -6.5 6.5 l0 2 q-5 7 -1 17.5 q4 10.5 12 17.5 q90 71 174 168.5 q84 97.5 150 207.5 Z" /><glyph glyph-name="" unicode="&#x4f17;" d="M656 815 q6 8 17 12.5 q11 4.5 18 1.5 l1 -1 q3 -2 6 -5.5 q3 -3.5 3.5 -8 q0.5 -4.5 -1 -10 q-1.5 -5.5 -4.5 -9.5 l-20 -26 q3 -3 5 -6 q23 -44 58.5 -85.5 q35.5 -41.5 80.5 -77.5 q45 -36 96.5 -65.5 q51.5 -29.5 106.5 -48.5 q13 -5 15 -17 q2 -12 -8 -24 q-6 -5 -14.5 -8 q-8.5 -3 -15.5 0 q-57 21 -109.5 52 q-52.5 31 -99 70.5 q-46.5 39.5 -83.5 85.5 q-35 43 -60 89 q-72 -83 -167 -152 q-128 -93 -280 -148 q-3 -1 -8 -1 q-5 0 -8.5 1.5 q-3.5 1.5 -6.5 3.5 q-3 2 -5 5 q-5 11 0 22.5 q5 11.5 20 17.5 q144 49 264 135 q120 86 199 197 ZM752 447 q1 5 5 9.5 q4 4.5 8 8 q4 3.5 8.5 5.5 q4.5 2 8.5 1 l1 0 q4 0 7.5 -2.5 q3.5 -2.5 6 -7 q2.5 -4.5 2.5 -9.5 q0 -5 -1 -9 q-16 -57 -35 -109 l1 0 q3 -4 4 -11 q5 -43 16.5 -90 q11.5 -47 32 -91 q20.5 -44 50 -83 q29.5 -39 69.5 -69 q10 -7 10.5 -19.5 q0.5 -12.5 -8.5 -21.5 q-2 -4 -6.5 -5.5 q-4.5 -1.5 -9 -1.5 q-4.5 0 -9 0.5 q-4.5 0.5 -7.5 3.5 q-45 34 -76.5 79 q-31.5 45 -53 94.5 q-21.5 49.5 -33.5 99.5 q-5 21 -8 42 q-27 -62 -58 -115 q-37 -61 -82 -112.5 q-45 -51.5 -100 -93.5 q-3 -3 -8 -4.5 q-5 -1.5 -9.5 -2 q-4.5 -0.5 -9 0.5 q-4.5 1 -6.5 3 q-8 8 -5 20 q3 12 15 21 q105 77 170 194 q65 117 110 275 ZM393 454 q1 5 4.5 9.5 q3.5 4.5 8 7.5 q4.5 3 8.5 4.5 q4 1.5 9 1.5 q5 0 8 -3 q3 -3 5.5 -7 q2.5 -4 3 -8.5 q0.5 -4.5 -0.5 -9.5 q-24 -75 -52 -141 q5 -1 8 -5 q21 -19 42 -40 q21 -21 41 -41.5 q20 -20.5 37 -41 q17 -20.5 30 -37.5 q3 -3 3.5 -7 q0.5 -4 -1 -9 q-1.5 -5 -3.5 -9 q-2 -4 -5 -7 q-4 -4 -9.5 -5.5 q-5.5 -1.5 -11 -1 q-5.5 0.5 -10 2.5 q-4.5 2 -8.5 7 q-11 16 -27 36 q-16 20 -34 40 q-18 20 -37 40 q-17 18 -35 34 q-27 -57 -57 -107 q-75 -123 -187 -209 q-3 -3 -7.5 -4.5 q-4.5 -1.5 -9.5 -2 q-5 -0.5 -9 0 q-4 0.5 -7 3.5 q-5 3 -5.5 8.5 q-0.5 5.5 0.5 10.5 q1 5 4.5 11 q3.5 6 9.5 11 q105 78 175 195.5 q70 117.5 119 272.5 Z" /><glyph glyph-name="" unicode="&#x4f18;" d="M408 570 q1 4 4 8 q3 4 7 7 q4 3 9 5 q5 2 10 2 l217 0 q23 105 41 205 q1 5 4 9.5 q3 4.5 7 8.5 q4 4 8.5 6 q4.5 2 9 2 q4.5 0 8 -2 q3.5 -2 6.5 -6 q3 -4 4 -9 q1 -5 -1 -9 q-18 -101 -41 -205 l344 0 q4 0 9 -2 q5 -2 8 -5 q3 -3 4 -7 q1 -4 1 -8 q-1 -5 -4 -9 q-3 -4 -7.5 -7.5 q-4.5 -3.5 -9.5 -5 q-5 -1.5 -9 -1.5 l-346 0 q-27 -116 -69 -224 q-44 -113 -110 -210.5 q-66 -97.5 -162 -164.5 q-4 -4 -8.5 -5 q-4.5 -1 -9 -1 q-4.5 0 -8 1.5 q-3.5 1.5 -6.5 3.5 q-6 7 -2 18.5 q4 11.5 16 20.5 q90 65 151 159 q61 94 101 202 q36 97 61 200 l-215 0 q-4 0 -9 1.5 q-5 1.5 -8 5 q-3 3.5 -4.5 7.5 q-1.5 4 -0.5 9 ZM444 810 q2 4 6 7.5 q4 3.5 8 5.5 q4 2 9 3 q5 1 8 0 q5 -2 8 -5 q3 -3 4 -7.5 q1 -4.5 0 -10 q-1 -5.5 -3 -10.5 q-62 -108 -136 -208 l-112 -633 q-1 -5 -3.5 -10 q-2.5 -5 -6.5 -8.5 q-4 -3.5 -9 -5.5 q-5 -2 -9 -2 q-4 0 -7.5 2 q-3.5 2 -6 5.5 q-2.5 3.5 -4 8.5 q-1.5 5 -0.5 10 l98 558 q-48 -59 -99 -108 q-5 -5 -11 -7.5 q-6 -2.5 -11 -2.5 q-5 0 -9.5 2.5 q-4.5 2.5 -6.5 6.5 l0 1 l-1 0 q-3 7 -0.5 17.5 q2.5 10.5 9.5 17.5 q78 72 152 169.5 q74 97.5 133 203.5 ZM741 432 q1 4 4 8.5 q3 4.5 6.5 8 q3.5 3.5 8.5 6 q5 2.5 9 2.5 q5 0 8 -2.5 q3 -2.5 6 -6 q3 -3.5 3.5 -8 q0.5 -4.5 0.5 -8.5 l-70 -398 q-3 -21 2.5 -28 q5.5 -7 31.5 -7 l125 0 q11 0 19.5 4.5 q8.5 4.5 15 17 q6.5 12.5 12.5 34 q6 21.5 13 57.5 q5 15 14.5 23 q9.5 8 19.5 3 q6 -2 9 -10 q3 -8 1 -15 q-11 -47 -20 -77.5 q-9 -30.5 -21 -48 q-12 -17.5 -27.5 -25 q-15.5 -7.5 -39.5 -7.5 l-131 0 q-24 0 -39.5 3.5 q-15.5 3.5 -24 12.5 q-8.5 9 -9.5 24.5 q-1 15.5 3 38.5 l70 398 ZM877 760 q-4 4 -5.5 9 q-1.5 5 -1 10 q0.5 5 3 9.5 q2.5 4.5 5.5 7.5 q6 3 14.5 2 q8.5 -1 12.5 -7 q25 -27 50.5 -58 q25.5 -31 41.5 -57 q5 -7 3.5 -17 q-1.5 -10 -9.5 -16 q-3 -2 -7.5 -2.5 q-4.5 -0.5 -10 0 q-5.5 0.5 -9.5 3.5 q-4 3 -6 7 q-14 24 -36.5 53.5 q-22.5 29.5 -45.5 55.5 Z" /><glyph glyph-name="" unicode="&#x4f19;" d="M766 802 q1 5 3.5 10 q2.5 5 7 8.5 q4.5 3.5 9 6 q4.5 2.5 8.5 2.5 l2 0 q5 0 8.5 -2.5 q3.5 -2.5 6 -6 q2.5 -3.5 3.5 -8.5 q1 -5 0 -9 q-30 -167 -60 -304 q-8 -37 -17 -72 l2 -8 q-3 -83 6 -152 q9 -69 33.5 -124 q24.5 -55 65.5 -95 q41 -40 101 -65 q12 -6 15 -17 q3 -11 -7 -22 q-3 -3 -6.5 -5 q-3.5 -2 -7.5 -3 q-4 -1 -8.5 -1 q-4.5 0 -8.5 2 q-66 27 -111 70.5 q-45 43.5 -71.5 103 q-26.5 59.5 -36.5 135.5 q-4 28 -6 58 q-10 -25 -21 -49 q-48 -107 -125 -186.5 q-77 -79.5 -202 -130.5 q-4 -2 -8.5 -2.5 q-4.5 -0.5 -9 0 q-4.5 0.5 -7.5 2 q-3 1.5 -5 4.5 q-6 8 -0.5 19 q5.5 11 19.5 17 q115 50 186 125 q71 75 115 177 q44 102 71.5 232 q27.5 130 55.5 290 ZM441 809 q3 5 6.5 8.5 q3.5 3.5 8 5.5 q4.5 2 9 2.5 q4.5 0.5 8.5 -0.5 q5 -2 7.5 -5 q2.5 -3 3.5 -7.5 q1 -4.5 0.5 -10 q-0.5 -5.5 -3.5 -9.5 q-58 -104 -128 -198 l-113 -641 q-1 -6 -3.5 -11 q-2.5 -5 -6.5 -8.5 q-4 -3.5 -8.5 -5.5 q-4.5 -2 -8.5 -2 l-2 0 q-4 0 -8 2 q-4 2 -6.5 5.5 q-2.5 3.5 -4 8.5 q-1.5 5 -0.5 10 l99 563 q-50 -61 -102 -112 q-6 -5 -11.5 -7.5 q-5.5 -2.5 -11 -2 q-5.5 0.5 -10 2.5 q-4.5 2 -7.5 7 l0 2 q-4 7 -1 17 q3 10 11 17 q77 71 150.5 167.5 q73.5 96.5 131.5 201.5 ZM1021 619 q2 5 6.5 9.5 q4.5 4.5 9.5 7 q5 2.5 9.5 3 q4.5 0.5 9.5 -1.5 l1 0 q5 -1 7.5 -5 q2.5 -4 3 -8.5 q0.5 -4.5 0 -10 q-0.5 -5.5 -2.5 -10.5 q-34 -57 -73 -118.5 q-39 -61.5 -74 -109.5 q-2 -5 -6.5 -8 q-4.5 -3 -9 -5 q-4.5 -2 -8.5 -2.5 q-4 -0.5 -8 1.5 q-4 2 -6 5.5 q-2 3.5 -3 8 q-1 4.5 0.5 9 q1.5 4.5 3.5 9.5 q17 24 36 52.5 q19 28.5 37 58 q18 29.5 35.5 59 q17.5 29.5 31.5 56.5 ZM533 612 q2 5 5.5 9 q3.5 4 8 7.5 q4.5 3.5 8.5 5.5 q4 2 9 0 q3 0 6 -2.5 q3 -2.5 4.5 -6.5 q1.5 -4 2 -8 q0.5 -4 0.5 -9 q-20 -64 -49.5 -132 q-29.5 -68 -63.5 -120 q-3 -5 -7 -8 q-4 -3 -9 -5.5 q-5 -2.5 -9.5 -2.5 q-4.5 0 -7.5 1 l-1 1 q-4 1 -6 5 q-2 4 -2.5 9 q-0.5 5 0.5 10.5 q1 5.5 4 10.5 q32 47 59.5 110.5 q27.5 63.5 47.5 124.5 Z" /><glyph glyph-name="" unicode="&#x4f1a;" d="M163 304 q1 5 3.5 8.5 q2.5 3.5 7 7.5 q4.5 4 10 5.5 q5.5 1.5 10.5 1.5 l775 0 q4 0 8.5 -1.5 q4.5 -1.5 7.5 -5.5 q3 -4 4.5 -7.5 q1.5 -3.5 0.5 -8.5 q-1 -4 -3.5 -8 q-2.5 -4 -7 -7.5 q-4.5 -3.5 -9.5 -5.5 q-5 -2 -10 -2 l-434 0 q-1 -4 -2 -7 q-2 -6 -6 -10 q-74 -80 -151 -153 q-56 -53 -112 -98 l528 45 q-1 2 -2 3 q-20 30 -42 59 q-22 29 -45 55 q-3 5 -4.5 10 q-1.5 5 -0.5 10.5 q1 5.5 4.5 10 q3.5 4.5 8.5 6.5 q6 3 13.5 1.5 q7.5 -1.5 12.5 -5.5 q24 -27 48 -57 q24 -30 45.5 -61 q21.5 -31 39.5 -60.5 q18 -29.5 30 -55.5 q3 -4 3 -8.5 q0 -4.5 -2 -9 q-2 -4.5 -5 -9 q-3 -4.5 -8 -6.5 q-5 -3 -9.5 -3 q-4.5 0 -9.5 1 q-5 1 -9 4 q-4 3 -6 7 q-12 25 -28 54 q-4 6 -8 13 q-5 -2 -10 -2 q-160 -14 -266 -23.5 q-106 -9.5 -174 -16 q-68 -6.5 -103.5 -10.5 q-35.5 -4 -53.5 -7 q-6 -1 -12.5 0 q-6.5 1 -10.5 4 q-2 1 -3 3 q-5 1 -8 4 q-3 3 -4 8 q-1 4 1 9.5 q2 5.5 6 10.5 q4 5 9 9.5 q5 4.5 11 8.5 q5 4 8.5 6 q3.5 2 8 6 q4.5 4 13 10.5 q8.5 6.5 21.5 17.5 q13 11 39.5 35 q26.5 24 59.5 56 q33 32 69 70 q31 32 59 65 l-284 0 q-5 0 -9 2 q-4 2 -7 5.5 q-3 3.5 -5 7.5 q-2 4 -1 8 ZM662 815 q5 6 14.5 9 q9.5 3 16.5 -1 q6 -2 8.5 -6 q2.5 -4 3 -9.5 q0.5 -5.5 -1 -11 q-1.5 -5.5 -7.5 -9.5 l-8 -10 q23 -35 57 -73 q35 -38 80 -75 q45 -37 96 -69.5 q51 -32.5 107 -57.5 q12 -5 13.5 -17 q1.5 -12 -7.5 -21 q-6 -6 -16.5 -8.5 q-10.5 -2.5 -17.5 0.5 q-56 26 -109.5 62 q-53.5 36 -99.5 75.5 q-46 39.5 -82 80.5 q-32 35 -55 68 q-76 -76 -173 -143 q-125 -87 -275 -154 q-5 -1 -9.5 -1.5 q-4.5 -0.5 -8.5 0 q-4 0.5 -7.5 3 q-3.5 2.5 -5.5 4.5 q-6 9 -1.5 20.5 q4.5 11.5 19.5 18.5 q145 64 267 147.5 q122 83.5 202 177.5 ZM369 496 q0 5 3 8.5 q3 3.5 7.5 7 q4.5 3.5 9.5 5.5 q5 2 10 2 l429 0 q6 0 10.5 -2 q4.5 -2 7.5 -5.5 q3 -3.5 4.5 -7 q1.5 -3.5 1.5 -8.5 q-1 -4 -4 -8 q-3 -4 -7 -7 q-4 -3 -9.5 -5 q-5.5 -2 -10.5 -2 l-429 0 q-6 0 -10 2 q-4 2 -7.5 5 q-3.5 3 -5 7 q-1.5 4 -0.5 8 Z" /><glyph glyph-name="" unicode="&#x4f1f;" d="M470 673 q0 5 3 8.5 q3 3.5 7.5 7 q4.5 3.5 9.5 5 q5 1.5 9 1.5 l231 0 l20 112 q1 5 4 9.5 q3 4.5 7 8.5 q4 4 8 6 q4 2 8.5 2 q4.5 0 8.5 -2 q4 -2 6.5 -6 q2.5 -4 3.5 -8.5 q1 -4.5 0 -9.5 l-20 -112 l249 0 q5 0 9.5 -1.5 q4.5 -1.5 7.5 -5 q3 -3.5 4.5 -7 q1.5 -3.5 0.5 -8.5 q-1 -4 -4 -8 q-3 -4 -6.5 -7.5 q-3.5 -3.5 -9 -5.5 q-5.5 -2 -10.5 -2 l-248 0 l-24 -133 l222 0 q4 0 8.5 -1.5 q4.5 -1.5 8 -5 q3.5 -3.5 4.5 -7.5 q1 -4 1 -9 q-1 -4 -4 -8 q-3 -4 -7 -7 q-4 -3 -9 -5 q-5 -2 -10 -2 l-222 0 l-24 -139 l275 0 q4 0 8 -2 q4 -2 6 -4 l1 -1 q3 -3 4.5 -7 q1.5 -4 0.5 -8 q-1 -4 -2 -7 q-17 -65 -29 -112 q-13 -49 -23.5 -81 q-10.5 -32 -20.5 -50 q-10 -18 -19 -26 q-11 -10 -22.5 -14.5 q-11.5 -4.5 -28.5 -5.5 q-10 -1 -26.5 -0.5 q-16.5 0.5 -35.5 1.5 q-5 0 -8 1.5 q-3 1.5 -6.5 4 q-3.5 2.5 -5.5 5 q-2 2.5 -2 5.5 q-1 11 6 18.5 q7 7.5 20 6.5 q17 -2 29 -2 l21 0 q10 0 16 2 q6 2 12 7 q7 7 15 23 q8 16 18 47 q10 31 22 78 q9 33 20 76 l-253 0 l-59 -336 l-4 -9 q-3 -5 -7 -8.5 q-4 -3.5 -8 -6 q-4 -2.5 -8.5 -2.5 q-4.5 0 -8.5 2.5 q-4 2.5 -6.5 6 q-2.5 3.5 -4 8.5 q-1.5 5 0.5 9 l59 336 l-263 0 q-5 0 -9 1.5 q-4 1.5 -7 5 q-3 3.5 -4.5 7.5 q-1.5 4 -0.5 9 q0 4 3 8 q3 4 7.5 7 q4.5 3 9 5 q4.5 2 9.5 2 l263 0 l24 139 l-207 0 q-4 0 -8.5 2 q-4.5 2 -8 5 q-3.5 3 -5 7 q-1.5 4 -0.5 8 q1 5 4 9 q3 4 7 7.5 q4 3.5 9 5 q5 1.5 10 1.5 l207 0 l24 133 l-232 0 q-4 0 -8.5 2 q-4.5 2 -8 5.5 q-3.5 3.5 -4.5 7.5 q-1 4 0 8 ZM446 808 q3 4 6.5 7.5 q3.5 3.5 8 5.5 q4.5 2 9 3 q4.5 1 8.5 0 q4 -1 6.5 -4.5 q2.5 -3.5 3.5 -8 q1 -4.5 1 -10 q0 -5.5 -4 -9.5 q-59 -107 -132 -206 l-112 -635 q-1 -5 -3.5 -10 q-2.5 -5 -6.5 -8.5 q-4 -3.5 -9 -5.5 q-5 -2 -9.5 -2 q-4.5 0 -7.5 2 q-3 2 -5.5 5.5 q-2.5 3.5 -4 8.5 q-1.5 5 -1.5 10 l100 560 q-50 -60 -102 -111 q-5 -4 -10.5 -6.5 q-5.5 -2.5 -11 -3 q-5.5 -0.5 -10 2 q-4.5 2.5 -7.5 6.5 l0 2 q-4 7 -1 17.5 q3 10.5 10 16.5 q78 72 151.5 169.5 q73.5 97.5 132.5 203.5 Z" /><glyph glyph-name="" unicode="&#x4f20;" d="M746 810 q1 5 4 8.5 q3 3.5 7.5 6 q4.5 2.5 9 4 q4.5 1.5 8.5 1.5 q5 -2 8 -4.5 q3 -2.5 4.5 -7 q1.5 -4.5 1.5 -10 q0 -5.5 -2 -10.5 q-19 -41 -39 -87 l277 0 q4 0 8.5 -1.5 q4.5 -1.5 7.5 -5 q3 -3.5 4.5 -7.5 q1.5 -4 0.5 -8 q-1 -4 -3.5 -8 q-2.5 -4 -7 -7 q-4.5 -3 -9 -5 q-4.5 -2 -9.5 -2 l-289 0 q-29 -64 -58 -126 q-5 -10 -9 -20 l372 0 q4 0 9 -1.5 q5 -1.5 8 -5 q3 -3.5 4 -7.5 q1 -4 1 -8 q-1 -5 -4 -9 q-3 -4 -7 -7 q-4 -3 -9.5 -5 q-5.5 -2 -9.5 -2 l-386 0 q-14 -31 -29 -61 q-21 -43 -40 -80 l323 0 q4 0 9 -2 l1 0 q1 1 2 1 q2 1 5 1 q2 0 3 0.5 q1 0.5 3 0.5 q2 1 6.5 0.5 q4.5 -0.5 7.5 -2.5 l1 -1 q4 -3 5.5 -7.5 q1.5 -4.5 1 -9.5 q-0.5 -5 -2.5 -10.5 q-2 -5.5 -6 -9.5 q-27 -27 -58 -56.5 q-31 -29.5 -63 -61.5 q-32 -32 -66 -63 q-28 -27 -56 -52 q24 -21 45 -41 q22 -22 37 -41 q4 -4 5 -9 q1 -5 0 -10 q-1 -5 -4 -10 q-3 -5 -7 -8 q-4 -3 -9 -4.5 q-5 -1.5 -10 -1.5 q-5 0 -9.5 2 q-4.5 2 -7.5 5 q-15 19 -35 40.5 q-20 21.5 -43.5 43.5 q-23.5 22 -48.5 44 q-25 22 -49 41 q-6 3 -8 8 q-2 5 -1.5 10 q0.5 5 3.5 10.5 q3 5.5 8 8.5 q4 3 12 3.5 q8 0.5 14 -2.5 q26 -20 53 -42 q13 -10 25 -21 q31 29 64 60 q34 32 66.5 64 q32.5 32 61.5 61 q9 8 17 16 l-302 0 q-5 0 -9 2 q-4 2 -7 5 l-1 -1 q-8 -6 -15 -6 l-1 0 q-6 0 -10.5 3 q-4.5 3 -7 7.5 q-2.5 4.5 -2 10.5 q0.5 6 3.5 12 q27 49 56 110 q11 21 21 43 l-172 0 q-4 0 -8.5 2 q-4.5 2 -8 5 q-3.5 3 -4.5 7 q-1 4 0 9 q0 4 3 8 q3 4 7 7.5 q4 3.5 9.5 5 q5.5 1.5 9.5 1.5 l186 0 l18 38 q26 54 50 108 l-171 0 q-5 0 -9 2 q-4 2 -7.5 5 q-3.5 3 -4.5 7 q-1 4 -1 8 q1 4 4 8 q3 4 7.5 7.5 q4.5 3.5 9 5 q4.5 1.5 8.5 1.5 l185 0 q23 52 44 99 ZM435 808 q3 5 7 8 q4 3 8.5 5 q4.5 2 9 3 q4.5 1 7.5 0 q5 -1 7.5 -4.5 q2.5 -3.5 4 -8 q1.5 -4.5 0.5 -10 q-1 -5.5 -3 -9.5 q-60 -102 -133 -195 l-113 -642 q-1 -6 -4 -10.5 q-3 -4.5 -6 -8 q-3 -3.5 -8 -6 q-5 -2.5 -9.5 -2.5 q-4.5 0 -7.5 2.5 q-3 2.5 -6.5 6 q-3.5 3.5 -4 8 q-0.5 4.5 -0.5 9.5 l101 572 q-60 -70 -122 -126 q-6 -5 -11 -7.5 q-5 -2.5 -10.5 -2.5 q-5.5 0 -9.5 2.5 q-4 2.5 -7 6.5 l0 2 q-4 7 -0.5 17.5 q3.5 10.5 11.5 17.5 q82 72 160 169 q78 97 139 203 Z" /><glyph glyph-name="" unicode="&#x4f24;" d="M432 398 q0 4 3 8 q3 4 7.5 7.5 q4.5 3.5 9.5 5 q5 1.5 9 1.5 l197 0 q17 65 32 132 q1 4 4 9 q3 5 7.5 8.5 q4.5 3.5 8.5 5.5 q4 2 9 2 q4 0 8.5 -2 q4.5 -2 7 -6 q2.5 -4 3.5 -8.5 q1 -4.5 -1 -10.5 q-15 -66 -33 -130 l264 0 q5 0 8.5 -1.5 q3.5 -1.5 6.5 -5 q3 -3.5 4 -7.5 q1 -2 1 -4 l0 -4 q0 -1 -1 -2 l0 -2 q-23 -107 -40 -181.5 q-17 -74.5 -31.5 -122.5 q-14.5 -48 -26.5 -74.5 q-12 -26.5 -25 -38.5 q-15 -13 -29.5 -18.5 q-14.5 -5.5 -37.5 -6.5 q-20 -2 -53 -1 q-33 1 -71 3 q-8 0 -14 5.5 q-6 5.5 -7 11.5 q-2 11 9 18.5 q11 7.5 26 6.5 q18 -1 33.5 -2 q15.5 -1 28.5 -1 l39 0 q16 0 25 1.5 q9 1.5 17 9.5 q10 9 21 34 q11 25 24.5 73 q13.5 48 30.5 121 q14 61 31 143 l-246 0 q-1 -5 -3 -11 q-28 -90 -71 -170 q-43 -80 -105.5 -146.5 q-62.5 -66.5 -153.5 -111.5 q-4 -3 -8.5 -3.5 q-4.5 -0.5 -8.5 -0.5 q-4 0 -7 2 q-3 2 -5 4 q-7 9 -2 20 q5 11 19 19 q84 43 141 106 q57 63 96 138 q37 73 62 154 l-192 0 q-5 0 -9 2 q-4 2 -7 5.5 q-3 3.5 -4.5 7 q-1.5 3.5 -0.5 8.5 ZM438 811 q2 4 6 7 q4 3 8.5 5.5 q4.5 2.5 9.5 3.5 q5 1 8 0 q4 -2 7.5 -5 q3.5 -3 4.5 -7.5 q1 -4.5 0 -10 q-1 -5.5 -3 -10.5 q-62 -105 -136 -200 l-114 -639 q0 -6 -3 -10.5 q-3 -4.5 -6 -8 q-3 -3.5 -8 -6 q-5 -2.5 -9.5 -2.5 q-4.5 0 -7.5 2.5 q-3 2.5 -6.5 6 q-3.5 3.5 -4 8 q-0.5 4.5 -0.5 9.5 l101 570 q-58 -67 -119 -123 q-5 -5 -10.5 -7 q-5.5 -2 -11 -2 q-5.5 0 -10 2.5 q-4.5 2.5 -6.5 7.5 l0 1 l-1 0 q-3 7 0 17.5 q3 10.5 10 17.5 q83 72 161 169.5 q78 97.5 140 203.5 ZM656 810 q2 4 5.5 7.5 q3.5 3.5 7.5 6 q4 2.5 9.5 3.5 q5.5 1 8.5 1 q4 -2 7.5 -5.5 q3.5 -3.5 4.5 -8 q1 -4.5 0.5 -9.5 q-0.5 -5 -3.5 -10 q-32 -60 -70 -114 l413 0 q6 0 10 -2 q4 -2 7.5 -5 q3.5 -3 5 -7 q1.5 -4 0.5 -8 q-1 -5 -3.5 -9 q-2.5 -4 -7 -7.5 q-4.5 -3.5 -9.5 -5 q-5 -1.5 -10 -1.5 l-425 0 q-6 0 -10 1 l-1 1 q-3 -4 -6 -7 q-59 -78 -123 -136 q-5 -4 -9.5 -6.5 q-4.5 -2.5 -10 -3 q-5.5 -0.5 -9.5 0.5 q-4 1 -7 3 q-5 4 -5.5 8.5 q-0.5 4.5 1 10 q1.5 5.5 4 11 q2.5 5.5 7.5 9.5 q63 55 118 127.5 q55 72.5 100 154.5 Z" /><glyph glyph-name="" unicode="&#x4f2a;" d="M426 544 q1 5 4 9 q3 4 7 7.5 q4 3.5 9.5 5.5 q5.5 2 10.5 2 l219 0 q15 55 27 107 q15 70 25 129 q2 5 5 9.5 q3 4.5 6 8 q3 3.5 8 5.5 q5 2 9 2 l1 0 q5 0 8.5 -2 q3.5 -2 6.5 -6 q3 -4 3.5 -8.5 q0.5 -4.5 0.5 -9.5 q-12 -63 -29 -138 q-10 -48 -24 -97 l285 0 q3 0 5 -1 q3 0 4 -1 q5 -2 8.5 -5.5 q3.5 -3.5 4.5 -7.5 q1 -4 0 -8 l0 -1 l-1 -4 l0 -2 q-32 -147 -56 -248.5 q-24 -101.5 -44 -167.5 q-20 -66 -36 -102 q-16 -36 -33 -51 q-16 -17 -32.5 -23 q-16.5 -6 -40.5 -7 q-21 -2 -55 -0.5 q-34 1.5 -73 2.5 q-7 1 -13 6.5 q-6 5.5 -7 11.5 q-1 12 9 20 q10 8 26 7 q17 -1 32.5 -1.5 q15.5 -0.5 29 -1 q13.5 -0.5 24.5 -0.5 l20 0 q14 0 24 2 q10 2 19 11 q14 12 29.5 47 q15.5 35 34.5 100 q19 65 43 167 q21 89 47 211 l-267 0 l-2 -8 q-23 -78 -56.5 -157 q-33.5 -79 -79 -152.5 q-45.5 -73.5 -105 -137.5 q-59.5 -64 -136.5 -113 q-5 -4 -9.5 -5 q-4.5 -1 -8.5 -1.5 q-4 -0.5 -8 1 q-4 1.5 -6 4.5 q-7 7 -3.5 19 q3.5 12 16.5 21 q74 47 130 109 q56 62 98.5 132.5 q42.5 70.5 73.5 145.5 q28 72 49 142 l-214 0 q-6 0 -10 2.5 q-4 2.5 -7 5.5 q-3 3 -4.5 7 q-1.5 4 -1.5 8 ZM442 808 q3 5 7 8 q4 3 8.5 5 q4.5 2 9 3.5 q4.5 1.5 8.5 -0.5 q4 -1 7 -4.5 q3 -3.5 4 -8 q1 -4.5 1 -10 q0 -5.5 -4 -10.5 q-60 -101 -131 -193 l-114 -643 q-1 -5 -4 -10 q-3 -5 -6.5 -8.5 q-3.5 -3.5 -8 -6 q-4.5 -2.5 -9 -2.5 q-4.5 0 -8 2.5 q-3.5 2.5 -6.5 6 q-3 3.5 -4 8.5 q-1 5 0 9 l101 572 q-58 -67 -118 -122 q-5 -5 -10.5 -7 q-5.5 -2 -11 -2 q-5.5 0 -10 2 q-4.5 2 -7.5 7 l0 1 q-4 7 -1 17.5 q3 10.5 11 17.5 q81 71 158 167 q77 96 138 201 ZM709 339 q-3 5 -3.5 10 q-0.5 5 1 10 q1.5 5 4.5 9.5 q3 4.5 8 6.5 q6 3 14 1.5 q8 -1.5 12 -8.5 q25 -32 48.5 -70 q23.5 -38 37.5 -69 q2 -4 1.5 -8 q-0.5 -4 -2 -8.5 q-1.5 -4.5 -4.5 -8.5 q-3 -4 -6 -6 q-6 -3 -11 -3 q-5 0 -9.5 1.5 q-4.5 1.5 -8.5 4.5 q-4 3 -6 8 q-12 28 -32.5 63.5 q-20.5 35.5 -43.5 66.5 ZM521 727 q-3 4 -3.5 9.5 q-0.5 5.5 1 10.5 q1.5 5 4.5 9.5 q3 4.5 8 6.5 q6 3 14.5 0.5 q8.5 -2.5 12.5 -7.5 q18 -25 35 -51.5 q17 -26.5 27 -50.5 q2 -4 2 -8.5 q0 -4.5 -2 -9 q-2 -4.5 -5.5 -8 q-3.5 -3.5 -6.5 -5.5 q-4 -2 -9 -2 q-5 0 -10 1.5 q-5 1.5 -8.5 5 q-3.5 3.5 -4.5 8.5 q-11 20 -25.5 44.5 q-14.5 24.5 -29.5 46.5 Z" /><glyph glyph-name="" unicode="&#x4f30;" d="M461 309 q1 5 4 10 q3 5 7 8.5 q4 3.5 9 6 q5 2.5 9 2.5 l200 0 l40 224 l-264 0 q-5 0 -9.5 1.5 q-4.5 1.5 -7.5 5.5 q-3 4 -4 8 q-1 4 0 8 q0 4 3 8 q3 4 7.5 7.5 q4.5 3.5 9 5 q4.5 1.5 8.5 1.5 l264 0 l36 203 q1 5 3.5 9.5 q2.5 4.5 7 8 q4.5 3.5 8.5 6 q4 2.5 9 2.5 l1 0 q5 0 8.5 -2.5 q3.5 -2.5 6 -6 q2.5 -3.5 3.5 -8 q1 -4.5 0 -9.5 l-35 -203 l271 0 q5 0 9 -1.5 q4 -1.5 7 -5 q3 -3.5 4.5 -7.5 q1.5 -4 1.5 -8 q-1 -4 -4 -8 q-3 -4 -7.5 -8 q-4.5 -4 -9 -5.5 q-4.5 -1.5 -9.5 -1.5 l-271 0 l-40 -224 l207 0 q4 0 8.5 -2.5 q4.5 -2.5 7.5 -6 q3 -3.5 4 -8.5 q1 -5 0 -10 l-62 -352 q-1 -5 -3.5 -10 q-2.5 -5 -6.5 -8.5 q-4 -3.5 -8.5 -6 q-4.5 -2.5 -8.5 -2.5 l-1 0 q-5 0 -8.5 2.5 q-3.5 2.5 -6.5 6 q-3 3.5 -4 8 q-1 4.5 0 8.5 l2 15 l-409 0 l-3 -18 q-1 -5 -4 -9.5 q-3 -4.5 -7 -8 q-4 -3.5 -8.5 -6 q-4.5 -2.5 -8.5 -2.5 q-5 0 -8.5 2.5 q-3.5 2.5 -6 6 q-2.5 3.5 -4 8.5 q-1.5 5 -0.5 10 l63 356 ZM456 15 l409 0 l48 270 q1 2 -1 4 q-2 2 -5 2 l-396 0 q-3 0 -5 -2 q-2 -2 -3 -4 l-47 -270 ZM435 808 q3 5 7 8 q4 3 8.5 5 q4.5 2 9 3 q4.5 1 8.5 0 q4 -1 6.5 -4.5 q2.5 -3.5 4 -8 q1.5 -4.5 1 -10 q-0.5 -5.5 -3.5 -9.5 q-60 -102 -133 -196 l-114 -641 q0 -6 -3 -10.5 q-3 -4.5 -6 -8 q-3 -3.5 -8 -6 q-5 -2.5 -9.5 -2.5 q-4.5 0 -7.5 2.5 q-3 2.5 -6.5 6 q-3.5 3.5 -4 8 q-0.5 4.5 -0.5 9.5 l102 572 q-60 -70 -123 -126 q-5 -5 -10.5 -7.5 q-5.5 -2.5 -10.5 -2.5 q-5 0 -9.5 2.5 q-4.5 2.5 -7.5 6.5 l0 2 q-4 7 0 17.5 q4 10.5 11 17.5 q83 72 160.5 169 q77.5 97 138.5 203 Z" /><glyph glyph-name="" unicode="&#x4f34;" d="M753 798 q0 5 2.5 9.5 q2.5 4.5 7 8 q4.5 3.5 9 5.5 q4.5 2 8.5 2 l1 0 q5 0 8.5 -2 q3.5 -2 6 -5.5 q2.5 -3.5 3.5 -8 q1 -4.5 0 -9.5 l-50 -287 l249 0 q10 0 17 -7 q7 -7 6 -15 q-2 -5 -5 -9 q-3 -4 -7 -7 q-4 -3 -9 -5 q-5 -2 -10 -2 l-249 0 l-36 -202 l292 0 q4 0 8.5 -1.5 q4.5 -1.5 7.5 -5 q3 -3.5 5 -7.5 q2 -4 0 -8 q-1 -5 -3.5 -8.5 q-2.5 -3.5 -6.5 -7 q-4 -3.5 -9.5 -5.5 q-5.5 -2 -10.5 -2 l-291 0 l-47 -268 q-1 -4 -3.5 -8.5 q-2.5 -4.5 -6.5 -8 q-4 -3.5 -8.5 -6 q-4.5 -2.5 -8.5 -2.5 l-1 0 q-4 0 -8 2.5 q-4 2.5 -7 6 q-3 3.5 -4 8 q-1 4.5 1 8.5 l47 268 l-280 0 q-4 0 -8.5 2 q-4.5 2 -7.5 5.5 q-3 3.5 -4.5 7 q-1.5 3.5 -0.5 8.5 q1 4 3.5 8 q2.5 4 7 7.5 q4.5 3.5 10 5 q5.5 1.5 9.5 1.5 l279 0 l35 202 l-236 0 q-5 0 -9.5 2 q-4.5 2 -7.5 5 q-3 3 -4.5 7 q-1.5 4 -0.5 9 q1 4 3.5 8 q2.5 4 7 7.5 q4.5 3.5 9.5 5 q5 1.5 9 1.5 l237 0 l51 287 ZM444 809 q3 4 7 7 q4 3 8.5 5.5 q4.5 2.5 9 3.5 q4.5 1 7.5 -1 q5 -1 7.5 -4.5 q2.5 -3.5 4 -8 q1.5 -4.5 0.5 -10 q-1 -5.5 -4 -9.5 q-59 -98 -130 -188 l-115 -649 q0 -5 -3 -10 q-3 -5 -7 -8.5 q-4 -3.5 -8.5 -6 q-4.5 -2.5 -9 -2.5 q-4.5 0 -7.5 2.5 q-3 2.5 -6 6 q-3 3.5 -4 8.5 q-1 5 -1 9 l103 580 q-64 -73 -130 -132 q-4 -5 -9.5 -7 q-5.5 -2 -11 -1.5 q-5.5 0.5 -9.5 3 q-4 2.5 -7 6.5 l0 1 q-4 7 -0.5 17.5 q3.5 10.5 11.5 17.5 q83 71 162 167.5 q79 96.5 142 202.5 ZM988 763 q3 5 7.5 9.5 q4.5 4.5 9.5 6.5 q5 2 10.5 2.5 q5.5 0.5 8.5 -1.5 q4 -1 6.5 -5 q2.5 -4 3 -9 q0.5 -5 0 -10 q-0.5 -5 -4.5 -10 q-29 -45 -63.5 -92.5 q-34.5 -47.5 -64.5 -86.5 q-5 -7 -14.5 -11 q-9.5 -4 -15.5 -1 q-3 3 -5 6.5 q-2 3.5 -2 8 q0 4.5 1 9.5 q1 5 4 10 q31 37 62.5 85.5 q31.5 48.5 56.5 88.5 ZM517 739 q-2 5 -1.5 10.5 q0.5 5.5 2.5 10.5 q2 5 6 9 q4 4 9 6 q7 3 14.5 -1.5 q7.5 -4.5 10.5 -11.5 q18 -42 32 -89 q14 -47 19 -83 q2 -7 -3 -16 q-5 -9 -12 -12 q-5 -2 -11 -1.5 q-6 0.5 -10 3 q-4 2.5 -6.5 6.5 q-2.5 4 -4.5 10 q-7 35 -18.5 78 q-11.5 43 -26.5 81 Z" /><glyph glyph-name="" unicode="&#x4f38;" d="M764 804 q1 4 3.5 8.5 q2.5 4.5 7 8 q4.5 3.5 8.5 6 q4 2.5 8.5 2.5 q4.5 0 8.5 -2.5 q4 -2.5 6.5 -6 q2.5 -3.5 3.5 -8 q1 -4.5 0 -8.5 l-23 -128 l257 0 q6 0 10.5 -2.5 q4.5 -2.5 7.5 -6 q3 -3.5 4.5 -8.5 q1.5 -5 0.5 -9 l-83 -467 q0 -5 -3 -10 q-3 -5 -6.5 -8.5 q-3.5 -3.5 -8 -5.5 q-4.5 -2 -9 -2 q-4.5 0 -8 2 q-3.5 2 -7 6 q-3.5 4 -4 8.5 q-0.5 4.5 0.5 10.5 l3 21 q-1 -1 -2 -1 l-236 0 l-44 -252 q-1 -5 -3.5 -9.5 q-2.5 -4.5 -6.5 -8 q-4 -3.5 -8 -6 q-4 -2.5 -8.5 -2.5 q-4.5 0 -8.5 2.5 q-4 2.5 -7 6 q-3 3.5 -4 8 q-1 4.5 0 9.5 l45 252 l-221 0 q-5 0 -9 2 q-1 0 -2 1 l-5 -31 q0 -4 -2.5 -8.5 q-2.5 -4.5 -6.5 -8.5 q-4 -4 -8.5 -6 q-4.5 -2 -9 -2 q-4.5 0 -7.5 2 q-3 2 -6 6 q-3 4 -4 9 q-1 5 -1 9 l84 473 q1 4 4 9 q3 5 7.5 8.5 q4.5 3.5 9.5 6 q5 2.5 10 2.5 l249 0 l23 128 ZM435 808 q2 5 6 8 q4 3 8.5 5 q4.5 2 9 3 q4.5 1 8.5 0 q4 -1 6.5 -4.5 q2.5 -3.5 4 -8 q1.5 -4.5 1 -10 q-0.5 -5.5 -3.5 -9.5 q-60 -102 -132 -195 l-114 -642 q0 -6 -3 -10.5 q-3 -4.5 -6 -8 q-3 -3.5 -8 -6 q-5 -2.5 -9.5 -2.5 q-4.5 0 -7.5 2.5 q-3 2.5 -6.5 6 q-3.5 3.5 -4 8 q-0.5 4.5 -0.5 9.5 l102 573 q-61 -70 -124 -127 q-5 -5 -10.5 -7.5 q-5.5 -2.5 -10.5 -2.5 q-5 0 -9.5 2.5 q-4.5 2.5 -6.5 6.5 l-1 1 l0 1 q-3 7 0.5 17.5 q3.5 10.5 11.5 17.5 q82 72 160 169 q78 97 139 203 ZM742 420 l-30 -172 l238 0 l31 172 l-239 0 ZM779 632 l-29 -168 l234 0 q2 0 4 -1 l29 163 q1 2 -1 4 q-2 2 -4 2 l-233 0 ZM666 248 l30 172 l-223 0 q-4 0 -8 1 l-31 -175 q1 1 2 1 q5 1 10 1 l220 0 ZM704 464 l30 168 l-226 0 q-2 0 -4 -2 q-2 -2 -3 -4 l-28 -164 q4 2 9 2 l222 0 Z" /><glyph glyph-name="" unicode="&#x4f3c;" d="M965 782 q1 5 4.5 9.5 q3.5 4.5 7 7.5 q3.5 3 9 5.5 q5.5 2.5 9.5 2.5 q5 0 8.5 -3 q3.5 -3 6 -6.5 q2.5 -3.5 3.5 -8 q1 -4.5 0 -9.5 q-33 -149 -70 -273 q-29 -100 -65 -186 q7 -4 9 -11 q14 -38 27 -79.5 q13 -41.5 25 -81.5 q12 -40 21 -77.5 q9 -37.5 14 -67.5 q2 -7 -3.5 -16 q-5.5 -9 -12.5 -13 l-1 0 q-5 -2 -10 -2 q-5 0 -10 2 q-5 2 -8.5 6.5 q-3.5 4.5 -3.5 10.5 q-6 30 -15 67 q-9 37 -19.5 76 q-10.5 39 -22.5 79 q-7 26 -16 50 q-45 -92 -104 -167 q-64 -82 -153 -147 q-5 -3 -10 -4.5 q-5 -1.5 -10.5 -2 q-5.5 -0.5 -10 1.5 q-4.5 2 -7.5 5 q-6 8 -2.5 20 q3.5 12 15.5 20 q85 59 146 136.5 q61 77.5 106 176 q45 98.5 79 218 q34 119.5 64 261.5 ZM401 804 q3 4 7 8 q4 4 8 6 q4 2 8.5 3.5 q4.5 1.5 8.5 -0.5 q4 0 7 -3 q3 -3 4.5 -7.5 q1.5 -4.5 0.5 -10 q-1 -5.5 -3 -10.5 q-47 -90 -102 -173 l-117 -665 q-2 -5 -4.5 -10 q-2.5 -5 -6 -8.5 q-3.5 -3.5 -8 -5.5 q-4.5 -2 -9 -2 q-4.5 0 -8 2 q-3.5 2 -6.5 5.5 q-3 3.5 -4 8.5 q-1 5 1 10 l101 579 q-58 -78 -118 -141 q-5 -5 -11 -7.5 q-6 -2.5 -11 -3 q-5 -0.5 -9.5 2 q-4.5 2.5 -7.5 6.5 l0 2 q-4 6 -1 16 q3 10 10 16 q74 74 144.5 173.5 q70.5 99.5 125.5 208.5 ZM432 66 q-8 -5 -15 -7 q-3 -1 -5 -1 l-1 -1 q-6 -3 -11 -3.5 q-5 -0.5 -10 1 q-5 1.5 -7 5.5 q-2 3 -1.5 8 q0.5 5 2 10.5 q1.5 5.5 4 11 q2.5 5.5 5.5 10.5 q4 5 7 8 q3 3 5.5 8.5 q2.5 5.5 5.5 14.5 q3 9 5 25 l103 584 q1 4 3.5 9 q2.5 5 7 8.5 q4.5 3.5 8.5 6 q4 2.5 8.5 2.5 q4.5 0 8.5 -2.5 q4 -2.5 6.5 -6 q2.5 -3.5 3.5 -8.5 q1 -5 0 -9 l-107 -605 l197 122 q6 4 12.5 5 q6.5 1 11 0 q4.5 -1 7.5 -5 q3 -4 3 -9 q1 -6 -3.5 -13.5 q-4.5 -7.5 -10.5 -11.5 q-56 -36 -97 -62 q-41 -26 -69.5 -44.5 q-28.5 -18.5 -47 -30.5 q-18.5 -12 -29.5 -20 ZM648 700 q-1 5 -0.5 10.5 q0.5 5.5 2.5 10.5 q2 5 5.5 8.5 q3.5 3.5 8.5 4.5 q3 2 7 1.5 q4 -0.5 7.5 -2.5 q3.5 -2 6.5 -5 q3 -3 4 -7 q13 -32 25 -67 q12 -35 21.5 -69.5 q9.5 -34.5 16.5 -67.5 q7 -33 10 -61 q2 -7 -3.5 -16 q-5.5 -9 -13.5 -12 q-5 -2 -10 -1.5 q-5 0.5 -9 3 q-4 2.5 -7 7 q-3 4.5 -3 9.5 q-3 27 -10 58.5 q-7 31.5 -15.5 64.5 q-8.5 33 -19 66.5 q-10.5 33.5 -23.5 64.5 Z" /><glyph glyph-name="" unicode="&#x4f46;" d="M544 732 q1 5 4 10 q3 5 7.5 8.5 q4.5 3.5 10 5.5 q5.5 2 9.5 2 l423 0 q5 0 9 -2 q4 -2 7 -5.5 q3 -3.5 4.5 -8.5 q1.5 -5 0.5 -10 l-96 -542 q0 -5 -3 -10 q-3 -5 -7.5 -8.5 q-4.5 -3.5 -10 -5.5 q-5.5 -2 -9.5 -2 l-423 0 q-4 0 -8.5 2 q-4.5 2 -7.5 5.5 q-3 3.5 -4.5 8.5 q-1.5 5 -1.5 10 l96 542 ZM547 440 q-2 0 -4.5 -2 q-2.5 -2 -2.5 -4 l-40 -220 q0 -2 1.5 -4 q1.5 -2 4.5 -2 l365 0 q2 0 4.5 2 q2.5 2 2.5 4 l40 220 q0 2 -1.5 4 q-1.5 2 -3.5 2 l-366 0 ZM595 713 q-2 0 -4 -2 q-2 -2 -3 -4 l-38 -216 q-1 -2 1 -4 q2 -2 4 -2 l366 0 q2 0 4 2 q2 2 3 4 l38 216 q1 2 -1 4 q-2 2 -4 2 l-366 0 ZM449 808 q2 5 5.5 8 q3.5 3 8.5 5 q5 2 9.5 3 q4.5 1 8.5 0 q5 -2 7.5 -5 q2.5 -3 3.5 -7.5 q1 -4.5 0.5 -10 q-0.5 -5.5 -3.5 -10.5 q-60 -101 -131 -193 l-114 -643 q-1 -6 -4 -10.5 q-3 -4.5 -6.5 -8 q-3.5 -3.5 -8.5 -6 q-5 -2.5 -9 -2.5 q-5 0 -8.5 2.5 q-3.5 2.5 -6.5 6 q-3 3.5 -3.5 8 q-0.5 4.5 -0.5 9.5 l101 570 q-60 -69 -122 -125 q-6 -5 -11.5 -7 q-5.5 -2 -10.5 -2.5 q-5 -0.5 -9.5 2 q-4.5 2.5 -6.5 7.5 q-1 0 -1 1 q-4 8 -0.5 18.5 q3.5 10.5 11.5 17.5 q82 72 160 169 q78 97 141 203 ZM321 -6 q0 4 3 8 q3 4 7.5 7 q4.5 3 9.5 4.5 q5 1.5 9 1.5 l610 0 q5 0 9.5 -1.5 q4.5 -1.5 7.5 -4.5 q3 -3 4.5 -7 q1.5 -4 0.5 -8 q-1 -5 -4 -9 q-3 -4 -7 -7.5 q-4 -3.5 -9 -5 q-5 -1.5 -10 -1.5 l-610 0 q-4 0 -9 1.5 q-5 1.5 -7.5 5 q-2.5 3.5 -4 7.5 q-1.5 4 -0.5 9 Z" /><glyph glyph-name="" unicode="&#x4f4d;" d="M457 808 q3 5 6.5 8 q3.5 3 8.5 5 q5 2 9 3 q4 1 8 0 q5 -1 7.5 -4.5 q2.5 -3.5 3.5 -8 q1 -4.5 1 -10 q0 -5.5 -4 -9.5 q-60 -102 -131 -195 l-114 -642 q-1 -6 -4 -10.5 q-3 -4.5 -6 -8 q-3 -3.5 -8 -6 q-5 -2.5 -9 -2.5 l-1 0 q-4 0 -7.5 2.5 q-3.5 2.5 -7 6 q-3.5 3.5 -4 8 q-0.5 4.5 -0.5 9.5 l101 571 q-59 -69 -121 -125 q-5 -5 -10.5 -7.5 q-5.5 -2.5 -10.5 -2.5 q-5 0 -9.5 2.5 q-4.5 2.5 -7.5 6.5 l0 2 q-5 7 -1 17.5 q4 10.5 11 17.5 q83 72 160.5 169 q77.5 97 139.5 203 ZM890 502 q1 6 5 10.5 q4 4.5 8.5 7.5 q4.5 3 10 4.5 q5.5 1.5 8.5 0.5 l1 -1 q5 0 8 -3 q3 -3 5.5 -7 q2.5 -4 2 -9 q-0.5 -5 -1.5 -10 q-19 -56 -42.5 -118.5 q-23.5 -62.5 -48.5 -125.5 q-25 -63 -49.5 -122.5 q-24.5 -59.5 -46.5 -108.5 q-2 -3 -3 -6 l204 0 q4 0 8.5 -1.5 q4.5 -1.5 7.5 -5 q3 -3.5 4.5 -7.5 q1.5 -4 0.5 -8 q-1 -5 -4 -9 q-3 -4 -7 -7.5 q-4 -3.5 -9 -5 q-5 -1.5 -9 -1.5 l-578 0 q-4 0 -8 1.5 q-4 1.5 -7.5 5 q-3.5 3.5 -5 7.5 q-1.5 4 0.5 9 q0 4 3 8 q3 4 7 7.5 q4 3.5 9 5 q5 1.5 9 1.5 l335 0 q-1 4 -1 8 q1 5 3 10 q21 48 46 107.5 q25 59.5 48.5 122 q23.5 62.5 45.5 124.5 q22 62 40 116 ZM502 621 q1 5 4 9 q3 4 7 7 q4 3 9 5 q5 2 11 2 l482 0 q6 0 10.5 -2 q4.5 -2 7.5 -5 q3 -3 4.5 -7 q1.5 -4 -0.5 -9 q0 -4 -3 -8 q-3 -4 -7 -7.5 q-4 -3.5 -9 -5.5 q-5 -2 -11 -2 l-482 0 q-5 0 -10 2 q-5 2 -8 5.5 q-3 3.5 -4 7.5 q-1 4 -1 8 ZM554 485 q-1 5 1 10 q2 5 5 9 q3 4 6.5 7 q3.5 3 8.5 3 q5 2 8.5 0.5 q3.5 -1.5 7 -5 q3.5 -3.5 5.5 -7.5 q2 -4 3 -9 q3 -49 4 -101.5 q1 -52.5 1.5 -103.5 q0.5 -51 -0.5 -97.5 q-1 -46.5 -4 -83.5 q0 -8 -6.5 -16 q-6.5 -8 -13.5 -10 l-1 0 q-5 -2 -10.5 -1 q-5.5 1 -9 4 q-3.5 3 -6 8 q-2.5 5 -1.5 11 q2 37 3.5 84 q1.5 47 2 97 q0.5 50 -0.5 102 q-1 52 -3 99 ZM751 798 q-1 5 0 10 q1 5 4 9.5 q3 4.5 6.5 8 q3.5 3.5 8.5 5.5 l1 0 q8 2 15.5 -3.5 q7.5 -5.5 8.5 -14.5 q7 -28 11 -57.5 q4 -29.5 7 -54.5 q0 -4 -1.5 -8.5 q-1.5 -4.5 -4.5 -8.5 q-3 -4 -6.5 -7 q-3.5 -3 -6.5 -5 q-6 -1 -10.5 0 q-4.5 1 -9 3.5 q-4.5 2.5 -7 7 q-2.5 4.5 -2.5 8.5 q-2 25 -6 53 q-4 28 -8 54 Z" /><glyph glyph-name="" unicode="&#x4f4e;" d="M1000 824 q4 3 11 1.5 q7 -1.5 11 -4.5 l2 -3 q5 -4 6 -10 q1 -6 -1 -11.5 q-2 -5.5 -6.5 -9.5 q-4.5 -4 -11.5 -6 q-47 -14 -101 -27 q-31 -7 -63 -14 l1 -1 q1 -4 0 -9 q-22 -152 -31 -286 q0 -2 -1 -2 l204 0 q5 0 9 -2 q4 -2 7 -5 q3 -3 4.5 -7 q1.5 -4 1.5 -8 q-1 -5 -4 -9 q-3 -4 -7 -7.5 q-4 -3.5 -9 -5 q-5 -1.5 -9 -1.5 l-199 0 q-6 -105 -3 -188 q4 -99 24.5 -158 q20.5 -59 58.5 -61 q15 -1 30 30 q15 31 32 89 q5 5 9 10 q4 5 8 8 q4 3 8 5 q4 2 9 0 q5 -3 6.5 -10.5 q1.5 -7.5 -1.5 -15.5 q-16 -49 -29.5 -81.5 q-13.5 -32.5 -26.5 -52.5 q-13 -20 -26 -28.5 q-13 -8.5 -28 -8.5 q-55 2 -83 65.5 q-28 63.5 -35 171.5 q-6 98 2 225 l-245 0 q-4 0 -8 1 l-71 -403 l139 36 q6 1 11.5 0.5 q5.5 -0.5 10 -3 q4.5 -2.5 7 -6 q2.5 -3.5 1.5 -7.5 q-1 -6 -8.5 -13 q-7.5 -7 -16.5 -10 q-81 -23 -122 -35 q-41 -12 -61 -18 q-7 -3 -14 -3 q-5 0 -10 1 l-6 0 q-11 1 -15 8 q-1 4 0.5 9 q1.5 5 4 10.5 q2.5 5.5 6.5 10.5 q4 5 7 9 q4 2 8 3.5 q4 1.5 7 5 q3 3.5 6 10 q3 6.5 5 20.5 l118 669 q1 6 4.5 11 q3.5 5 7.5 9 q1 0 3 1 q1 3 4 6 q10 8 25 11 q58 9 118 20 q60 11 117.5 23 q57.5 12 107.5 25.5 q50 13.5 90 25.5 ZM803 729 l0 2 q-2 0 -5 -1 q-58 -12 -118 -22 q-57 -10 -112 -18 l-44 -250 q4 2 8 2 l240 0 q11 136 31 287 ZM435 808 q3 4 6.5 7.5 q3.5 3.5 8.5 5.5 q5 2 9.5 3.5 q4.5 1.5 7.5 -0.5 q5 -1 7.5 -4.5 q2.5 -3.5 4 -7.5 q1.5 -4 1 -9.5 q-0.5 -5.5 -3.5 -10.5 q-59 -101 -130 -193 l-114 -644 q0 -6 -3 -10.5 q-3 -4.5 -6.5 -8 q-3.5 -3.5 -8 -6 q-4.5 -2.5 -9 -2.5 q-4.5 0 -7.5 2.5 q-3 2.5 -6.5 6 q-3.5 3.5 -4 8 q-0.5 4.5 -0.5 9.5 l101 572 q-61 -72 -124 -130 q-6 -5 -11 -7.5 q-5 -2.5 -10.5 -2.5 q-5.5 0 -9.5 2.5 q-4 2.5 -7 6.5 q0 1 -0.5 1 q-0.5 0 -0.5 1 q-3 7 0.5 17 q3.5 10 10.5 18 q82 72 160 170 q78 98 139 206 ZM636 99 q-1 6 -1 11.5 q0 5.5 2.5 9.5 q2.5 4 5.5 7.5 q3 3.5 8 5.5 q5 2 12.5 -2 q7.5 -4 8.5 -11 q16 -33 29.5 -70.5 q13.5 -37.5 21.5 -67.5 q2 -9 -3 -18.5 q-5 -9.5 -12 -11.5 q-4 -2 -8.5 -1 q-4.5 1 -8.5 3 q-4 2 -6 6.5 q-2 4.5 -4 9.5 q-6 28 -18 62.5 q-12 34.5 -27 66.5 Z" /></font>
</defs>
</svg>
