<?xml version="1.0" standalone="no"?><!DOCTYPE svg PUBLIC "-//W3C//DTD SVG 1.1//EN" "http://www.w3.org/Graphics/SVG/1.1/DTD/svg11.dtd" ><svg xmlns="http://www.w3.org/2000/svg"><metadata></metadata><defs><font id="Version 7.000;SUBF;MapleMono-NF-CN-Italic;2024;FL830;NF3.3.0;" horiz-adv-x="1200"><font-face font-family="Maple Mono NF CN" font-weight="400" font-stretch="normal" units-per-em="1000" panose-1="2 15 5 9 6 0 0 0 0 0" ascent="1020" descent="-300" x-height="0" bbox="-53 -240 1136 867" underline-thickness="50" underline-position="-155" unicode-range="U+0022-9f99" /><missing-glyph horiz-adv-x="600" d="M34 80 l101 570 q7 41 30 60.5 q23 19.5 64 19.5 l240 0 q41 0 57 -19.5 q16 -19.5 9 -60.5 l-101 -570 q-7 -41 -30 -60.5 q-23 -19.5 -64 -19.5 l-240 0 q-41 0 -57 19.5 q-16 19.5 -9 60.5 ZM429 558 l-104 -192 l36 -192 l68 384 ZM141 175 l104 191 l-37 191 l-67 -382 ZM265 257 l-90 -167 l122 0 l-32 167 ZM304 475 l89 165 l-120 0 l31 -165 Z" /><glyph glyph-name="" unicode="&quot;" d="M361 485 l40 230 q4 23 17 34 q13 11 36 11 q23 0 32 -11 q9 -11 5 -34 l-40 -230 q-5 -23 -17.5 -34 q-12.5 -11 -35.5 -11 q-23 0 -32.5 11 q-9.5 11 -4.5 34 ZM161 485 l40 230 q4 23 17 34 q13 11 36 11 q23 0 32 -11 q9 -11 5 -34 l-40 -230 q-5 -23 -17.5 -34 q-12.5 -11 -35.5 -11 q-23 0 -32.5 11 q-9.5 11 -4.5 34 Z" /><glyph glyph-name="" unicode="$" d="M499 195 q-7 -43 -24.5 -77 q-17.5 -34 -42 -58 q-24.5 -24 -54.5 -39 q-30 -15 -62 -21 l16 90 q12 8 24 17 q12 9 22.5 21 q10.5 12 18.5 28 q8 16 12 36 q5 28 -0.5 49.5 q-5.5 21.5 -18.5 37.5 q-13 16 -30.5 26.5 q-17.5 10.5 -37.5 16.5 l-86 25 q-36 11 -67 26 q-31 15 -52 38 q-21 23 -30 56.5 q-9 33.5 0 80.5 q7 40 23.5 72 q16.5 32 39.5 55 q23 23 50 37 q27 14 54 18 l-18 -100 q-9 -4 -18 -10.5 q-9 -6.5 -17 -17 q-8 -10.5 -15 -24.5 q-7 -14 -10 -32 q-4 -27 1 -45 q5 -18 16.5 -30 q11.5 -12 27.5 -19 q16 -7 32 -12 l85 -25 q42 -12 75.5 -29.5 q33.5 -17.5 55.5 -43.5 q22 -26 30.5 -62 q8.5 -36 -0.5 -85 ZM312 267 l-60 -342 q-5 -23 -17.5 -34 q-12.5 -11 -35.5 -11 q-23 0 -32.5 11 q-9.5 11 -4.5 34 l64 367 l86 -25 ZM348 470 l-86 25 l53 300 q4 23 17 34 q13 11 36 11 q23 0 32 -11 q9 -11 5 -34 l-57 -325 ZM141 90 l-16 -90 q-26 5 -49.5 20 q-23.5 15 -41 36 q-17.5 21 -25.5 47 q-8 26 -4 52 q5 26 18.5 35.5 q13.5 9.5 30.5 9.5 q14 0 24 -5 q10 -5 12 -14 q6 -22 19.5 -50.5 q13.5 -28.5 31.5 -40.5 ZM445 730 q23 -4 44.5 -17.5 q21.5 -13.5 37.5 -32.5 q16 -19 24 -42.5 q8 -23.5 4 -47.5 q-5 -26 -19 -34.5 q-14 -8.5 -31 -8.5 q-16 0 -25.5 7 q-9.5 7 -14.5 24 q-3 11 -13 27 q-10 16 -25 25 l18 100 Z" /><glyph glyph-name="" unicode="," d="M31 -223 q-13 -3 -22 0 q-9 3 -13 15 q-3 11 3 22.5 q6 11.5 18 14.5 q79 19 132 53.5 q53 34.5 70 68.5 q8 17 3 26 q-5 9 -26 14 q-29 6 -42 25 q-13 19 -7 51 q7 39 33.5 61 q26.5 22 62.5 22 q26 0 42 -11.5 q16 -11.5 23.5 -29.5 q7.5 -18 8 -40.5 q0.5 -22.5 -3.5 -45.5 q-7 -40 -24 -77 q-17 -37 -49.5 -69.5 q-32.5 -32.5 -83 -58 q-50.5 -25.5 -125.5 -41.5 Z" /><glyph glyph-name="" unicode="-" d="M90 285 q-23 0 -32 11 q-9 11 -5 34 q4 23 17 34 q13 11 36 11 l360 0 q23 0 32 -11 q9 -11 5 -34 q-4 -23 -17 -34 q-13 -11 -36 -11 l-360 0 Z" /><glyph glyph-name="" unicode="." d="M148 75 q3 18 12.5 33.5 q9.5 15.5 23 27 q13.5 11.5 30.5 18 q17 6.5 34 6.5 q18 0 32 -6.5 q14 -6.5 23.5 -18 q9.5 -11.5 13.5 -27 q4 -15.5 1 -33.5 q-3 -17 -12.5 -32.5 q-9.5 -15.5 -23 -27 q-13.5 -11.5 -30 -18.5 q-16.5 -7 -34.5 -7 q-17 0 -31.5 7 q-14.5 7 -24 18.5 q-9.5 11.5 -13.5 27 q-4 15.5 -1 32.5 Z" /><glyph glyph-name="" unicode="0" d="M218 -10 q-75 0 -115 36.5 q-40 36.5 -55.5 92 q-15.5 55.5 -13 121.5 q2.5 66 12.5 125 q11 59 31.5 125 q20.5 66 56 121.5 q35.5 55.5 88.5 92 q53 36.5 129 36.5 q75 0 115 -36 q40 -36 55.5 -91 q15.5 -55 12.5 -120 q-3 -65 -13 -123 q-10 -61 -31 -128 q-21 -67 -57 -123 q-36 -56 -88.5 -92.5 q-52.5 -36.5 -127.5 -36.5 ZM234 80 q48 0 82.5 31.5 q34.5 31.5 58 76 q23.5 44.5 37.5 94 q14 49.5 20 85.5 q4 23 8 53 l0 7 l-309 -236 q0 -2 1 -3 q4 -31 16.5 -55 q12.5 -24 33 -38.5 q20.5 -14.5 52.5 -14.5 ZM438 541 l0 3 q-5 30 -17 53.5 q-12 23.5 -33 38 q-21 14.5 -53 14.5 q-48 0 -83 -31.5 q-35 -31.5 -58 -76 q-23 -44.5 -36.5 -93 q-13.5 -48.5 -19.5 -83.5 q-4 -24 -7 -54 q-1 -3 -1 -6 l308 235 Z" /><glyph glyph-name="" unicode="1" d="M45 0 q-23 0 -32 11 q-9 11 -5 34 q4 23 17 34 q13 11 36 11 l163 0 l92 522 q2 13 0 19 q-2 6 -8 6 q-4 0 -8.5 -2.5 q-4.5 -2.5 -11.5 -7.5 l-112 -78 q-16 -11 -28 -16.5 q-12 -5.5 -20 -5.5 q-13 0 -17 11.5 q-4 11.5 0 34.5 q4 22 12 34.5 q8 12.5 21 21.5 l125 86 q20 14 38.5 19.5 q18.5 5.5 40.5 5.5 q41 0 57.5 -19.5 q16.5 -19.5 8.5 -60.5 l-100 -570 l127 0 q23 0 32 -11 q9 -11 5 -34 q-4 -23 -17 -34 q-13 -11 -36 -11 l-380 0 Z" /><glyph glyph-name="" unicode="2" d="M56 0 q-29 0 -42 14.5 q-13 14.5 -8 43.5 q3 16 10.5 29.5 q7.5 13.5 20.5 24.5 l262 230 q19 17 41.5 38.5 q22.5 21.5 43 45.5 q20.5 24 36 49.5 q15.5 25.5 19.5 50.5 q6 35 -0.5 58.5 q-6.5 23.5 -22.5 38 q-16 14.5 -40.5 21 q-24.5 6.5 -54.5 6.5 q-40 0 -69.5 -9.5 q-29.5 -9.5 -56.5 -24.5 q-20 -11 -36.5 -3.5 q-16.5 7.5 -23.5 24.5 q-6 16 2.5 33 q8.5 17 25.5 28 q35 23 77 32.5 q42 9.5 99 9.5 q47 0 87 -9.5 q40 -9.5 67 -32.5 q27 -23 39 -62 q12 -39 1 -99 q-6 -31 -21 -62.5 q-15 -31.5 -37.5 -62.5 q-22.5 -31 -50 -60 q-27.5 -29 -57.5 -56 l-210 -188 q-5 -5 -4 -11.5 q1 -6.5 18 -6.5 l257 0 q23 0 32 -11 q9 -11 5 -34 q-4 -23 -17 -34 q-13 -11 -36 -11 l-356 0 Z" /><glyph glyph-name="" unicode="3" d="M25 21 q-18 8 -23 25.5 q-5 17.5 8 37.5 q11 18 29.5 25.5 q18.5 7.5 43.5 -3.5 q25 -11 58 -18.5 q33 -7.5 65 -7.5 q72 0 121.5 36.5 q49.5 36.5 62.5 109.5 q7 39 -12.5 62 q-19.5 23 -52 34.5 q-32.5 11.5 -71 14 q-38.5 2.5 -70.5 0.5 q-9 -1 -16.5 1.5 q-7.5 2.5 -12.5 8 q-5 5.5 -7 14.5 q-2 9 0 22 q4 23 19 33.5 q15 10.5 45 10.5 q26 0 58 5.5 q32 5.5 62 19.5 q30 14 53 37.5 q23 23.5 29 59.5 q5 30 -5 49.5 q-10 19.5 -28.5 31 q-18.5 11.5 -43 16 q-24.5 4.5 -48.5 4.5 q-28 0 -53 -5.5 q-25 -5.5 -51 -18.5 q-17 -8 -32.5 -2 q-15.5 6 -21.5 24 q-5 15 2.5 32.5 q7.5 17.5 28.5 30.5 q23 14 62 21.5 q39 7.5 81 7.5 q44 0 84 -9 q40 -9 69 -30.5 q29 -21.5 42.5 -56.5 q13.5 -35 4.5 -86 q-5 -29 -16 -56.5 q-11 -27.5 -28.5 -49.5 q-17.5 -22 -41.5 -37.5 q-24 -15.5 -54 -20.5 q38 -3 62.5 -18.5 q24.5 -15.5 37.5 -41 q13 -25.5 15.5 -59 q2.5 -33.5 -4.5 -71.5 q-8 -48 -31.5 -87 q-23.5 -39 -60 -67.5 q-36.5 -28.5 -85.5 -44 q-49 -15.5 -109 -15.5 q-43 0 -88.5 8 q-45.5 8 -76.5 23 Z" /><glyph glyph-name="" unicode="4" d="M325 255 l50 283 q2 11 1 15 q-1 4 -4 4 q-2 0 -6 -2.5 q-4 -2.5 -11 -10.5 l-198 -255 q-5 -6 -7.5 -11 q-2.5 -5 -3.5 -9 q-1 -8 5 -11 q6 -3 19 -3 l155 0 ZM286 35 l23 130 l-232 0 q-34 0 -48 16.5 q-14 16.5 -8 48.5 q2 14 6.5 24 q4.5 10 12.5 20 l350 440 q11 13 23.5 19.5 q12.5 6.5 30.5 6.5 q27 0 39 -15 q12 -15 7 -45 l-75 -425 l60 0 q23 0 32 -11 q9 -11 5 -34 q-4 -23 -17 -34 q-13 -11 -36 -11 l-60 0 l-23 -130 q-4 -23 -17 -34 q-13 -11 -36 -11 q-23 0 -32 11 q-9 11 -5 34 Z" /><glyph glyph-name="" unicode="5" d="M476 204 q-8 -48 -31.5 -87 q-23.5 -39 -60 -67.5 q-36.5 -28.5 -85.5 -44 q-49 -15.5 -109 -15.5 q-43 0 -88.5 8 q-45.5 8 -76.5 23 q-18 8 -23 25.5 q-5 17.5 8 37.5 q11 18 29.5 25.5 q18.5 7.5 43.5 -3.5 q25 -11 58 -18.5 q33 -7.5 65 -7.5 q72 0 121.5 36.5 q49.5 36.5 62.5 109.5 q6 37 -6.5 61 q-12.5 24 -39.5 38.5 q-27 14.5 -66 20 q-39 5.5 -86 5.5 l-20 0 q-41 0 -57.5 19.5 q-16.5 19.5 -8.5 61.5 l39 218 q7 41 30 60.5 q23 19.5 64 19.5 l271 0 q23 0 32 -11 q9 -11 5 -34 q-5 -23 -17.5 -34 q-12.5 -11 -35.5 -11 l-221 0 q-20 0 -31.5 -10 q-11.5 -10 -15.5 -30 l-21 -119 q-4 -20 4.5 -30 q8.5 -10 28.5 -10 q50 0 98.5 -6.5 q48.5 -6.5 84.5 -31 q36 -24.5 52.5 -71.5 q16.5 -47 2.5 -128 Z" /><glyph glyph-name="" unicode="6" d="M234 80 q32 0 59.5 8.5 q27.5 8.5 50 27 q22.5 18.5 38 47 q15.5 28.5 22.5 67.5 q5 30 -0.5 56.5 q-5.5 26.5 -20.5 46.5 q-15 20 -39.5 31.5 q-24.5 11.5 -57.5 11.5 q-34 0 -63 -12.5 q-29 -12.5 -51 -33.5 q-22 -21 -36 -49 q-14 -28 -20 -60 q-7 -41 -0.5 -68.5 q6.5 -27.5 23 -43.5 q16.5 -16 41.5 -22.5 q25 -6.5 54 -6.5 ZM421 733 q23 8 37.5 5.5 q14.5 -2.5 22.5 -22.5 q7 -18 -0.5 -35 q-7.5 -17 -30.5 -25 q-51 -16 -99.5 -44.5 q-48.5 -28.5 -89.5 -66 q-41 -37.5 -72 -83.5 q-31 -46 -48 -97 q35 48 81 74.5 q46 26.5 109 26.5 q43 0 77.5 -17.5 q34.5 -17.5 56.5 -49 q22 -31.5 30 -74 q8 -42.5 -1 -92.5 q-10 -60 -36.5 -105.5 q-26.5 -45.5 -63.5 -76 q-37 -30.5 -82 -46 q-45 -15.5 -93 -15.5 q-52 0 -93 13.5 q-41 13.5 -66 45.5 q-25 32 -32.5 86.5 q-7.5 54.5 7.5 136.5 q16 91 53 166 q37 75 88.5 133 q51.5 58 114.5 99 q63 41 130 63 Z" /><glyph glyph-name="" unicode="7" d="M123 51 l318 552 q4 5 5.5 9.5 q1.5 4.5 1.5 8.5 q2 10 -4 14.5 q-6 4.5 -21 4.5 l-283 0 q-23 0 -32.5 11 q-9.5 11 -4.5 34 q4 23 17 34 q13 11 36 11 l347 0 q36 0 50.5 -17.5 q14.5 -17.5 9.5 -50.5 q-2 -12 -5.5 -21.5 q-3.5 -9.5 -8.5 -17.5 l-345 -603 q-9 -15 -22.5 -22.5 q-13.5 -7.5 -33.5 -7.5 q-21 0 -30.5 7.5 q-9.5 7.5 -6.5 23.5 q1 6 4 14 q3 8 8 16 Z" /><glyph glyph-name="" unicode="8" d="M218 -10 q-52 0 -92.5 15.5 q-40.5 15.5 -66 43.5 q-25.5 28 -36 66.5 q-10.5 38.5 -2.5 84.5 q6 36 22 67 q16 31 39.5 55 q23.5 24 53 40 q29.5 16 63.5 22 l0 3 q-55 13 -81 57.5 q-26 44.5 -15 106.5 q8 41 29.5 76 q21.5 35 54 60 q32.5 25 74 39 q41.5 14 89.5 14 q48 0 85 -14 q37 -14 61 -39 q24 -25 33.5 -60 q9.5 -35 1.5 -76 q-11 -62 -52.5 -106.5 q-41.5 -44.5 -101.5 -57.5 l0 -3 q64 -11 94.5 -61.5 q30.5 -50.5 17.5 -122.5 q-8 -46 -31.5 -84.5 q-23.5 -38.5 -59.5 -66.5 q-36 -28 -82 -43.5 q-46 -15.5 -98 -15.5 ZM234 80 q32 0 60 9 q28 9 50 26 q22 17 37 41 q15 24 20 53 q5 29 -1 53.5 q-6 24.5 -22 41.5 q-16 17 -41 26.5 q-25 9.5 -57 9.5 q-32 0 -60 -9.5 q-28 -9.5 -50 -26.5 q-22 -17 -37 -41.5 q-15 -24.5 -20 -53.5 q-11 -59 23 -94 q34 -35 98 -35 ZM296 430 q56 0 95 29 q39 29 48 80 q9 52 -19.5 81.5 q-28.5 29.5 -84.5 29.5 q-28 0 -52 -7.5 q-24 -7.5 -43 -22 q-19 -14.5 -31.5 -35 q-12.5 -20.5 -17.5 -46.5 q-9 -51 20 -80 q29 -29 85 -29 Z" /><glyph glyph-name="" unicode="9" d="M334 649 q-31 0 -59 -8.5 q-28 -8.5 -50 -27 q-22 -18.5 -37.5 -47 q-15.5 -28.5 -22.5 -67.5 q-5 -30 0 -56.5 q5 -26.5 20 -46.5 q15 -20 39.5 -31.5 q24.5 -11.5 57.5 -11.5 q35 0 63.5 12.5 q28.5 12.5 50.5 33.5 q22 21 36.5 49.5 q14.5 28.5 20.5 59.5 q7 41 0.5 68.5 q-6.5 27.5 -23.5 43.5 q-17 16 -42 22.5 q-25 6.5 -54 6.5 ZM147 -4 q-22 -8 -37 -5.5 q-15 2.5 -23 22.5 q-6 18 1.5 35 q7.5 17 30.5 25 q51 16 99.5 44.5 q48.5 28.5 89 66 q40.5 37.5 72 83.5 q31.5 46 47.5 97 q-35 -48 -81 -74.5 q-46 -26.5 -109 -26.5 q-43 0 -77 17.5 q-34 17.5 -56 49 q-22 31.5 -30.5 74 q-8.5 42.5 0.5 92.5 q11 60 37.5 105.5 q26.5 45.5 63 76 q36.5 30.5 81.5 46 q45 15.5 93 15.5 q53 0 93.5 -13.5 q40.5 -13.5 65.5 -45.5 q25 -32 32.5 -86.5 q7.5 -54.5 -6.5 -136.5 q-16 -91 -53 -166 q-37 -75 -88.5 -133 q-51.5 -58 -114.5 -99 q-63 -41 -131 -63 Z" /><glyph glyph-name="" unicode=":" d="M148 75 q3 18 12.5 33.5 q9.5 15.5 23 27 q13.5 11.5 30 18 q16.5 6.5 34.5 6.5 q18 0 32 -6.5 q14 -6.5 24 -18 q10 -11.5 13.5 -27 q3.5 -15.5 0.5 -33.5 q-3 -17 -12.5 -32.5 q-9.5 -15.5 -23 -27 q-13.5 -11.5 -30 -18.5 q-16.5 -7 -34.5 -7 q-18 0 -32 7 q-14 7 -23.5 18.5 q-9.5 11.5 -13.5 27 q-4 15.5 -1 32.5 ZM213 445 q3 18 12.5 33.5 q9.5 15.5 23 27 q13.5 11.5 30 18 q16.5 6.5 34.5 6.5 q18 0 32 -6.5 q14 -6.5 24 -18 q10 -11.5 13.5 -27 q3.5 -15.5 0.5 -33.5 q-3 -17 -12.5 -32.5 q-9.5 -15.5 -23 -27 q-13.5 -11.5 -30 -18.5 q-16.5 -7 -34.5 -7 q-18 0 -32 7 q-14 7 -23.5 18.5 q-9.5 11.5 -13.5 27 q-4 15.5 -1 32.5 Z" /><glyph glyph-name="" unicode=";" d="M51 -223 q-13 -3 -22 0 q-9 3 -13 15 q-3 11 3 22 q6 11 18 15 q32 9 61 23 q29 14 53 30.5 q24 16.5 41.5 34 q17.5 17.5 26.5 34.5 q8 17 3 26 q-5 9 -26 14 q-29 6 -42 25 q-13 19 -7 51 q7 39 33.5 61 q26.5 22 62.5 22 q26 0 42 -11.5 q16 -11.5 23.5 -29.5 q7.5 -18 8 -40.5 q0.5 -22.5 -3.5 -45.5 q-7 -40 -23.5 -77 q-16.5 -37 -47.5 -69.5 q-31 -32.5 -77.5 -58 q-46.5 -25.5 -113.5 -41.5 ZM213 445 q3 18 12.5 33.5 q9.5 15.5 23 27 q13.5 11.5 30 18 q16.5 6.5 34.5 6.5 q18 0 32 -6.5 q14 -6.5 24 -18 q10 -11.5 13.5 -27 q3.5 -15.5 0.5 -33.5 q-3 -17 -12.5 -32.5 q-9.5 -15.5 -23 -27 q-13.5 -11.5 -30 -18.5 q-16.5 -7 -34.5 -7 q-18 0 -32 7 q-14 7 -23.5 18.5 q-9.5 11.5 -13.5 27 q-4 15.5 -1 32.5 Z" /><glyph glyph-name="" unicode="A" d="M386 19 l-16 175 l-232 0 l-78 -175 q-6 -14 -17 -21.5 q-11 -7.5 -30 -7.5 q-26 0 -34.5 14.5 q-8.5 14.5 4.5 43.5 l282 633 q14 29 34 44 q20 15 51 15 q31 0 46.5 -15 q15.5 -15 18.5 -44 l58 -633 q4 -29 -10 -43.5 q-14 -14.5 -40 -14.5 q-19 0 -27 7.5 q-8 7.5 -10 21.5 ZM364 270 l-31 341 q-1 6 -4.5 6 q-3.5 0 -5.5 -6 l-151 -341 l192 0 Z" /><glyph glyph-name="" unicode="B" d="M223 730 l127 0 q50 0 86.5 -13 q36.5 -13 60 -36.5 q23.5 -23.5 32 -57.5 q8.5 -34 0.5 -76 q-6 -34 -20 -62 q-14 -28 -34.5 -49.5 q-20.5 -21.5 -46.5 -35 q-26 -13.5 -56 -19.5 q32 -4 56 -18 q24 -14 39 -37 q15 -23 20 -54.5 q5 -31.5 -2 -70.5 q-8 -46 -29.5 -83 q-21.5 -37 -53.5 -63.5 q-32 -26.5 -74.5 -40.5 q-42.5 -14 -92.5 -14 l-141 0 q-42 0 -58 19.5 q-16 19.5 -9 60.5 l101 570 q7 41 30 60.5 q23 19.5 65 19.5 ZM161 335 l-36 -205 q-4 -20 4.5 -30 q8.5 -10 28.5 -10 l83 0 q63 0 104.5 29.5 q41.5 29.5 52.5 88.5 q11 60 -20 93.5 q-31 33.5 -94 33.5 l-123 0 ZM177 425 l118 0 q58 0 96 27.5 q38 27.5 47 81.5 q10 54 -18 80 q-28 26 -86 26 l-79 0 q-20 0 -31.5 -10 q-11.5 -10 -15.5 -30 l-31 -175 Z" /><glyph glyph-name="" unicode="C" d="M45 367 q13 76 41 143.5 q28 67.5 72.5 118.5 q44.5 51 106 81 q61.5 30 141.5 30 q42 0 71.5 -8 q29.5 -8 49.5 -21 q20 -13 31 -30 q11 -17 15 -35 q5 -24 -2.5 -39.5 q-7.5 -15.5 -22.5 -23.5 q-15 -8 -31.5 -5.5 q-16.5 2.5 -26.5 22.5 q-10 19 -35 34.5 q-25 15.5 -69 15.5 q-51 0 -92.5 -23.5 q-41.5 -23.5 -73.5 -62.5 q-32 -39 -53.5 -90 q-21.5 -51 -31.5 -107 q-9 -48 -7.5 -99 q1.5 -51 18 -93 q16.5 -42 52 -68.5 q35.5 -26.5 94.5 -26.5 q14 0 30 1.5 q16 1.5 31 5 q15 3.5 29 9 q14 5.5 24 12.5 q20 14 37.5 12.5 q17.5 -1.5 28.5 -14.5 q11 -13 7.5 -31 q-3.5 -18 -26.5 -38 q-36 -30 -85.5 -38.5 q-49.5 -8.5 -95.5 -8.5 q-80 0 -130.5 31 q-50.5 31 -76 83 q-25.5 52 -29.5 120 q-4 68 9 143 Z" /><glyph glyph-name="" unicode="D" d="M92 0 q-41 0 -57 19.5 q-16 19.5 -9 60.5 l101 570 q7 41 30 60.5 q23 19.5 64 19.5 l89 0 q80 0 126 -30 q46 -30 67.5 -80.5 q21.5 -50.5 21.5 -117.5 q0 -67 -13 -141 q-12 -67 -34 -132 q-22 -65 -60 -116 q-38 -51 -96 -82 q-58 -31 -141 -31 l-89 0 ZM125 130 q-4 -20 4.5 -30 q8.5 -10 28.5 -10 l39 0 q58 0 99 26 q41 26 68 66 q27 40 42.5 88.5 q15.5 48.5 23.5 94.5 q8 47 9.5 95.5 q1.5 48.5 -11.5 88.5 q-13 40 -44.5 65.5 q-31.5 25.5 -89.5 25.5 l-39 0 q-20 0 -31.5 -10 q-11.5 -10 -15.5 -30 l-83 -470 Z" /><glyph glyph-name="" unicode="E" d="M185 427 l255 0 q20 0 30.5 -12.5 q10.5 -12.5 6.5 -32.5 q-3 -20 -18 -32.5 q-15 -12.5 -35 -12.5 l-255 0 l-36 -207 q-4 -20 4.5 -30 q8.5 -10 28.5 -10 l249 0 q20 0 28.5 -12.5 q8.5 -12.5 4.5 -32.5 q-4 -20 -16.5 -32.5 q-12.5 -12.5 -32.5 -12.5 l-299 0 q-41 0 -57 19.5 q-16 19.5 -9 60.5 l101 570 q7 41 30 60.5 q23 19.5 64 19.5 l299 0 q20 0 28.5 -12.5 q8.5 -12.5 4.5 -32.5 q-4 -20 -16.5 -32.5 q-12.5 -12.5 -32.5 -12.5 l-249 0 q-20 0 -31.5 -10 q-11.5 -10 -15.5 -30 l-31 -173 Z" /><glyph glyph-name="" unicode="F" d="M180 427 l274 0 q20 0 28.5 -10 q8.5 -10 4.5 -30 q-4 -20 -15.5 -30 q-11.5 -10 -31.5 -10 l-274 0 l-53 -302 q-4 -23 -17 -34 q-13 -11 -36 -11 q-23 0 -32 11 q-9 11 -5 34 l107 605 q7 41 30 60.5 q23 19.5 64 19.5 l305 0 q23 0 32 -11 q9 -11 5 -34 q-5 -23 -17.5 -34 q-12.5 -11 -35.5 -11 l-255 0 q-20 0 -31.5 -10 q-11.5 -10 -15.5 -30 l-31 -173 Z" /><glyph glyph-name="" unicode="G" d="M396 270 q3 20 -6 25 q-9 5 -29 5 l-63 0 q-23 0 -32 11 q-9 11 -5 34 q4 23 17 34 q13 11 36 11 l113 0 q41 0 57 -19.5 q16 -19.5 9 -60.5 l-20 -110 q-9 -55 -34 -94.5 q-25 -39.5 -60 -65 q-35 -25.5 -76.5 -38 q-41.5 -12.5 -84.5 -12.5 q-78 0 -120.5 35.5 q-42.5 35.5 -60.5 90 q-18 54.5 -15.5 121 q2.5 66.5 14.5 128.5 q13 64 34 130.5 q21 66.5 57 121 q36 54.5 90.5 89.5 q54.5 35 134.5 35 q41 0 71.5 -9.5 q30.5 -9.5 52.5 -29 q22 -19.5 35 -47.5 q13 -28 18 -66 q3 -28 -11 -43 q-14 -15 -42 -15 q-17 0 -26 7.5 q-9 7.5 -11 29.5 q-4 42 -31 62.5 q-27 20.5 -70 20.5 q-55 0 -92.5 -30 q-37.5 -30 -61.5 -73.5 q-24 -43.5 -37 -93 q-13 -49.5 -21 -89.5 q-8 -41 -12.5 -91 q-4.5 -50 4.5 -93 q9 -43 37.5 -72 q28.5 -29 86.5 -29 q50 0 90 27.5 q40 27.5 51 92.5 l13 70 Z" /><glyph glyph-name="" unicode="H" d="M396 332 l-234 0 l-53 -297 q-4 -23 -17 -34 q-13 -11 -36 -11 q-23 0 -32 11 q-9 11 -5 34 l117 660 q4 23 16.5 34 q12.5 11 35.5 11 q23 0 32.5 -11 q9.5 -11 5.5 -34 l-49 -273 l234 0 l49 273 q4 23 16.5 34 q12.5 11 35.5 11 q23 0 32.5 -11 q9.5 -11 5.5 -34 l-117 -660 q-4 -23 -17 -34 q-13 -11 -36 -11 q-23 0 -32 11 q-9 11 -5 34 l53 297 Z" /><glyph glyph-name="" unicode="I" d="M282 90 l104 0 q20 0 30.5 -12.5 q10.5 -12.5 6.5 -32.5 q-4 -20 -18.5 -32.5 q-14.5 -12.5 -34.5 -12.5 l-300 0 q-20 0 -30.5 12.5 q-10.5 12.5 -6.5 32.5 q4 20 18.5 32.5 q14.5 12.5 34.5 12.5 l104 0 l97 550 l-104 0 q-20 0 -30.5 12.5 q-10.5 12.5 -6.5 32.5 q4 20 18.5 32.5 q14.5 12.5 34.5 12.5 l300 0 q20 0 30.5 -12.5 q10.5 -12.5 6.5 -32.5 q-4 -20 -18.5 -32.5 q-14.5 -12.5 -34.5 -12.5 l-104 0 l-97 -550 Z" /><glyph glyph-name="" unicode="J" d="M-3 159 q0 25 14 38 q14 13 40 13 q20 0 29 -9.5 q9 -9.5 9 -34.5 q2 -45 30.5 -70.5 q28.5 -25.5 82.5 -25.5 q64 0 106 36.5 q42 36.5 54 103.5 l69 390 q4 20 -4.5 30 q-8.5 10 -28.5 10 l-150 0 q-23 0 -32.5 11 q-9.5 11 -4.5 34 q4 23 17 34 q13 11 36 11 l200 0 q41 0 57 -19.5 q16 -19.5 9 -60.5 l-78 -440 q-9 -51 -32 -91.5 q-23 -40.5 -57 -69 q-34 -28.5 -78.5 -44 q-44.5 -15.5 -96.5 -15.5 q-91 0 -141 44.5 q-50 44.5 -50 124.5 Z" /><glyph glyph-name="" unicode="K" d="M108 35 q-4 -23 -17 -34 q-13 -11 -36 -11 q-23 0 -32 11 q-9 11 -5 34 l117 660 q4 23 16.5 34 q12.5 11 35.5 11 q23 0 32.5 -11 q9.5 -11 5.5 -34 l-50 -280 l275 297 q13 14 27 21 q14 7 28 7 q9 0 19 -3.5 q10 -3.5 15.5 -10.5 q5.5 -7 4.5 -17.5 q-1 -10.5 -14 -24.5 l-246 -268 l159 -365 q7 -15 6 -26.5 q-1 -11.5 -8 -19 q-7 -7.5 -18 -11.5 q-11 -4 -25 -4 q-19 0 -30.5 7.5 q-11.5 7.5 -17.5 22.5 l-141 313 l-60 -65 l-41 -233 Z" /><glyph glyph-name="" unicode="L" d="M130 0 q-41 0 -57 19.5 q-16 19.5 -9 60.5 l109 615 q4 23 16.5 34 q12.5 11 35.5 11 q23 0 32.5 -11 q9.5 -11 5.5 -34 l-100 -565 q-4 -20 4.5 -30 q8.5 -10 28.5 -10 l245 0 q20 0 30.5 -12.5 q10.5 -12.5 6.5 -32.5 q-4 -20 -18.5 -32.5 q-14.5 -12.5 -34.5 -12.5 l-295 0 Z" /><glyph glyph-name="" unicode="M" d="M466 35 q-4 -23 -17 -34 q-13 -11 -36 -11 q-23 0 -32 11 q-9 11 -5 34 l98 555 q1 7 -1 8 q-1 1 -2 1 q-5 0 -10 -9 l-138 -293 q-8 -19 -22.5 -28 q-14.5 -9 -34.5 -9 q-20 0 -31.5 9 q-11.5 9 -13.5 28 l-34 293 q-2 10 -6.5 9.5 q-4.5 -0.5 -6.5 -9.5 l-98 -555 q-4 -23 -17 -34 q-13 -11 -36 -11 q-23 0 -32 11 q-9 11 -5 34 l109 620 q8 43 32 64 q24 21 63 21 q31 0 48 -13.5 q17 -13.5 20 -41.5 l23 -275 q2 -14 9 -14 q7 0 13 14 l121 275 q12 28 33.5 41.5 q21.5 13.5 52.5 13.5 q39 0 56 -21 q17 -21 9 -64 l-109 -620 Z" /><glyph glyph-name="" unicode="N" d="M117 662 q7 39 29 58.5 q22 19.5 58 19.5 q29 0 44 -12.5 q15 -12.5 20 -37.5 l99 -540 l2 -4 q0 -2 2 -2 q2 0 3.5 1.5 q1.5 1.5 1.5 4.5 l97 545 q4 23 16.5 34 q12.5 11 35.5 11 q23 0 32.5 -11 q9.5 -11 5.5 -34 l-111 -627 q-7 -39 -29.5 -58.5 q-22.5 -19.5 -58.5 -19.5 q-29 0 -43.5 12.5 q-14.5 12.5 -19.5 37.5 l-100 540 q0 3 -1 4.5 q-1 1.5 -3 1.5 q-2 0 -3 -1.5 q-1 -1.5 -2 -4.5 l-96 -545 q-4 -23 -17 -34 q-13 -11 -36 -11 q-23 0 -32 11 q-9 11 -5 34 l111 627 Z" /><glyph glyph-name="" unicode="O" d="M234 80 q48 0 82.5 31.5 q34.5 31.5 58 76 q23.5 44.5 37.5 94 q14 49.5 20 85.5 q4 23 7.5 53 q3.5 30 3.5 61.5 q0 31.5 -5 62 q-5 30.5 -17 54 q-12 23.5 -33 38 q-21 14.5 -53 14.5 q-48 0 -83 -31.5 q-35 -31.5 -58 -76 q-23 -44.5 -36.5 -93 q-13.5 -48.5 -19.5 -83.5 q-4 -24 -7.5 -54.5 q-3.5 -30.5 -3.5 -62 q0 -31.5 4.5 -62 q4.5 -30.5 17 -54.5 q12.5 -24 33 -38.5 q20.5 -14.5 52.5 -14.5 ZM218 -10 q-75 0 -115 36.5 q-40 36.5 -55.5 92.5 q-15.5 56 -12.5 122 q3 66 13 126 q10 58 30 123.5 q20 65.5 55.5 121 q35.5 55.5 88 92 q52.5 36.5 128.5 36.5 q75 0 115.5 -36 q40.5 -36 56 -91.5 q15.5 -55.5 13 -120.5 q-2.5 -65 -12.5 -124 q-10 -60 -31 -126.5 q-21 -66.5 -57 -122.5 q-36 -56 -88.5 -92.5 q-52.5 -36.5 -127.5 -36.5 Z" /><glyph glyph-name="" unicode="P" d="M158 320 l-50 -285 q-4 -23 -17 -34 q-13 -11 -36 -11 q-23 0 -32 11 q-9 11 -5 34 l109 615 q7 41 30 60.5 q23 19.5 64 19.5 l155 0 q47 0 85.5 -13.5 q38.5 -13.5 64 -40 q25.5 -26.5 36 -64.5 q10.5 -38 1.5 -87 q-9 -49 -33 -87 q-24 -38 -59 -64.5 q-35 -26.5 -78 -40 q-43 -13.5 -90 -13.5 l-145 0 ZM174 410 l145 0 q27 0 52 7.5 q25 7.5 45 21.5 q20 14 34.5 36 q14.5 22 19.5 50 q5 29 -1.5 50.5 q-6.5 21.5 -21.5 36 q-15 14.5 -37.5 21.5 q-22.5 7 -49.5 7 l-105 0 q-20 0 -31.5 -10 q-11.5 -10 -15.5 -30 l-34 -190 Z" /><glyph glyph-name="" unicode="Q" d="M234 80 q48 0 82.5 31.5 q34.5 31.5 58 76 q23.5 44.5 37.5 94 q14 49.5 20 85.5 q4 23 7.5 53 q3.5 30 3.5 61.5 q0 31.5 -5 62 q-5 30.5 -17 54 q-12 23.5 -33 38 q-21 14.5 -53 14.5 q-48 0 -83 -31.5 q-35 -31.5 -58 -76 q-23 -44.5 -36.5 -93 q-13.5 -48.5 -19.5 -83.5 q-4 -24 -7.5 -54.5 q-3.5 -30.5 -3.5 -62 q0 -31.5 4.5 -62 q4.5 -30.5 17 -54.5 q12.5 -24 33 -38.5 q20.5 -14.5 52.5 -14.5 ZM218 -10 q-75 0 -115 36.5 q-40 36.5 -55.5 92.5 q-15.5 56 -12.5 122 q3 66 13 126 q10 58 30 123.5 q20 65.5 55.5 121 q35.5 55.5 88 92 q52.5 36.5 128.5 36.5 q75 0 115.5 -36 q40.5 -36 56 -91.5 q15.5 -55.5 13 -120.5 q-2.5 -65 -12.5 -124 q-10 -60 -31 -126.5 q-21 -66.5 -57 -122.5 q-36 -56 -88.5 -92.5 q-52.5 -36.5 -127.5 -36.5 ZM193 -154 q-22 6 -26.5 20 q-4.5 14 5.5 35 q8 17 21 27 q13 10 31 5 l172 -46 q21 -6 27 -20.5 q6 -14.5 -4 -34.5 q-10 -21 -26.5 -29 q-16.5 -8 -34.5 -3 l-165 46 Z" /><glyph glyph-name="" unicode="R" d="M174 410 l145 0 q27 0 52 7.5 q25 7.5 45 21.5 q20 14 34.5 36 q14.5 22 19.5 50 q5 29 -1.5 50.5 q-6.5 21.5 -21.5 36 q-15 14.5 -37.5 21.5 q-22.5 7 -49.5 7 l-105 0 q-20 0 -31.5 -10 q-11.5 -10 -15.5 -30 l-34 -190 ZM158 320 l-50 -285 q-4 -23 -17 -34 q-13 -11 -36 -11 q-23 0 -32 11 q-9 11 -5 34 l109 615 q7 41 30 60.5 q23 19.5 64 19.5 l155 0 q47 0 85.5 -13.5 q38.5 -13.5 64 -40 q25.5 -26.5 36 -64.5 q10.5 -38 1.5 -87 q-7 -40 -24.5 -72.5 q-17.5 -32.5 -42.5 -57.5 q-25 -25 -56.5 -42 q-31.5 -17 -67.5 -25 l88 -279 q10 -30 -1.5 -44.5 q-11.5 -14.5 -40.5 -14.5 q-21 0 -32 7.5 q-11 7.5 -16 22.5 l-93 300 l-119 0 Z" /><glyph glyph-name="" unicode="S" d="M435 585 q-8 36 -35 50.5 q-27 14.5 -65 14.5 q-56 0 -93.5 -30 q-37.5 -30 -45.5 -73 q-5 -31 0.5 -51 q5.5 -20 19.5 -32.5 q14 -12.5 34.5 -20.5 q20.5 -8 44.5 -15 q46 -13 85 -28.5 q39 -15.5 65.5 -40.5 q26.5 -25 37 -63 q10.5 -38 0.5 -97 q-8 -48 -31 -86.5 q-23 -38.5 -57.5 -65.5 q-34.5 -27 -79 -42 q-44.5 -15 -97.5 -15 q-45 0 -81 11 q-36 11 -61.5 32.5 q-25.5 21.5 -39 52 q-13.5 30.5 -13.5 69.5 q1 19 13 32 q12 13 33 13 q21 0 34.5 -8 q13.5 -8 17.5 -30 q6 -41 34.5 -61.5 q28.5 -20.5 78.5 -20.5 q32 0 59 8 q27 8 47.5 23 q20.5 15 34 37 q13.5 22 18.5 51 q6 36 -0.5 58.5 q-6.5 22.5 -22.5 37 q-16 14.5 -39.5 23.5 q-23.5 9 -51.5 17 q-41 12 -76.5 26.5 q-35.5 14.5 -60 37.5 q-24.5 23 -35 58 q-10.5 35 -1.5 88 q8 44 29.5 79.5 q21.5 35.5 53.5 61.5 q32 26 73 40 q41 14 88 14 q41 0 73 -10.5 q32 -10.5 54.5 -30 q22.5 -19.5 35.5 -47 q13 -27.5 14 -60.5 q1 -21 -11 -33 q-12 -12 -37 -12 q-19 0 -29 9 q-10 9 -15 29 Z" /><glyph glyph-name="" unicode="T" d="M288 640 l-155 0 q-20 0 -30.5 12.5 q-10.5 12.5 -6.5 32.5 q4 20 18.5 32.5 q14.5 12.5 34.5 12.5 l400 0 q20 0 30.5 -12.5 q10.5 -12.5 6.5 -32.5 q-4 -20 -18.5 -32.5 q-14.5 -12.5 -34.5 -12.5 l-155 0 l-107 -605 q-4 -23 -17 -34 q-13 -11 -36 -11 q-23 0 -32 11 q-9 11 -5 34 l107 605 Z" /><glyph glyph-name="" unicode="U" d="M131 685 q4 23 17 34 q13 11 36 11 q23 0 32 -11 q9 -11 5 -34 l-84 -475 q-5 -30 -2 -54 q3 -24 14.5 -41 q11.5 -17 32.5 -26 q21 -9 52 -9 q31 0 55 9.5 q24 9.5 42 26.5 q18 17 29.5 41 q11.5 24 16.5 53 l84 475 q4 23 17 34 q13 11 36 11 q23 0 32 -11 q9 -11 5 -34 l-84 -475 q-9 -50 -29.5 -90.5 q-20.5 -40.5 -52.5 -69.5 q-32 -29 -74 -44.5 q-42 -15.5 -93 -15.5 q-51 0 -87 16 q-36 16 -57.5 44.5 q-21.5 28.5 -28.5 69.5 q-7 41 2 90 l84 475 Z" /><glyph glyph-name="" unicode="V" d="M164 38 l-59 650 q-2 20 8 36 q10 16 39 16 q20 0 32 -9 q12 -9 14 -26 l40 -520 q2 -23 10.5 -23 q8.5 0 19.5 23 l222 520 q8 17 23 26 q15 9 35 9 q29 0 33.5 -16 q4.5 -16 -4.5 -36 l-287 -650 q-11 -24 -28.5 -36 q-17.5 -12 -43.5 -12 q-25 0 -38.5 12 q-13.5 12 -15.5 36 Z" /><glyph glyph-name="" unicode="W" d="M24 51 l54 634 q2 28 15.5 41.5 q13.5 13.5 39.5 13.5 q21 0 30.5 -9 q9.5 -9 7.5 -28 l-58 -558 q-2 -7 1 -9 l2 0 q4 -1 7 8 l133 379 q9 24 25 35.5 q16 11.5 40 11.5 q24 0 35.5 -11.5 q11.5 -11.5 11.5 -35.5 l0 -378 q0 -8 4.5 -8 q4.5 0 6.5 9 l138 557 q5 19 17 28 q12 9 33 9 q26 0 35 -13.5 q9 -13.5 2 -41.5 l-171 -635 q-8 -30 -28 -45 q-20 -15 -51 -15 q-31 0 -45.5 15 q-14.5 15 -14.5 45 l4 351 q0 8 -5.5 8 q-5.5 0 -8.5 -8 l-120 -350 q-11 -31 -31 -46 q-20 -15 -51 -15 q-31 0 -45.5 15 q-14.5 15 -12.5 46 Z" /><glyph glyph-name="" unicode="X" d="M557 682 l-222 -307 l122 -326 q6 -15 3.5 -26 q-2.5 -11 -9.5 -18.5 q-7 -7.5 -18 -11 q-11 -3.5 -22 -3.5 q-17 0 -27 7.5 q-10 7.5 -15 22.5 l-99 265 l-191 -265 q-11 -15 -24 -22.5 q-13 -7.5 -30 -7.5 q-11 0 -20.5 3.5 q-9.5 3.5 -14 11 q-4.5 7.5 -3 18 q1.5 10.5 12.5 25.5 l237 327 l-115 307 q-6 14 -3.5 25 q2.5 11 10 18.5 q7.5 7.5 18 11 q10.5 3.5 22.5 3.5 q15 0 25.5 -7 q10.5 -7 15.5 -22 l92 -246 l178 246 q11 15 23.5 22 q12.5 7 28.5 7 q11 0 20.5 -3.5 q9.5 -3.5 14 -11 q4.5 -7.5 3 -18 q-1.5 -10.5 -12.5 -25.5 Z" /><glyph glyph-name="" unicode="Y" d="M218 -10 q-23 0 -32 11 q-9 11 -5 34 l38 213 q2 13 1.5 25 q-0.5 12 -4.5 23 l-115 394 q-3 10 0 19 q3 9 9 16 q6 7 14.5 11 q8.5 4 16.5 4 q19 0 29.5 -6 q10.5 -6 16.5 -28 l92 -316 q3 -11 7.5 -11 q4.5 0 12.5 11 l202 316 q15 22 27 28 q12 6 31 6 q8 0 15 -4 q7 -4 11 -11 q4 -7 4 -16 q0 -9 -6 -19 l-255 -394 q-7 -11 -12 -23 q-5 -12 -7 -25 l-38 -213 q-4 -23 -17 -34 q-13 -11 -36 -11 Z" /><glyph glyph-name="" unicode="Z" d="M73 0 q-34 0 -48 17 q-14 17 -8 51 q2 11 6 21 q4 10 12 20 l385 509 q8 11 6.5 16.5 q-1.5 5.5 -14.5 5.5 l-244 0 q-20 0 -30.5 12.5 q-10.5 12.5 -6.5 32.5 q4 20 18.5 32.5 q14.5 12.5 34.5 12.5 l302 0 q34 0 48 -16.5 q14 -16.5 8 -50.5 q-2 -11 -6.5 -21.5 q-4.5 -10.5 -12.5 -20.5 l-384 -509 q-8 -11 -6.5 -16.5 q1.5 -5.5 14.5 -5.5 l259 0 q20 0 30.5 -12.5 q10.5 -12.5 6.5 -32.5 q-4 -20 -18.5 -32.5 q-14.5 -12.5 -34.5 -12.5 l-317 0 Z" /><glyph glyph-name="" unicode="_" d="M11 -165 q-23 0 -32 11 q-9 11 -5 34 q4 23 17 34 q13 11 36 11 l360 0 q23 0 32 -11 q9 -11 5 -34 q-4 -23 -17 -34 q-13 -11 -36 -11 l-360 0 Z" /><glyph glyph-name="" unicode="a" d="M160 -10 q-36 0 -65 12 q-29 12 -47.5 39.5 q-18.5 27.5 -24 72 q-5.5 44.5 5.5 110.5 q12 69 37 130.5 q25 61.5 62 107 q37 45.5 85 72 q48 26.5 106 26.5 q48 0 71 -24 q18 -20 26 -49 q4 14 9 29 q8 25 23 34.5 q15 9.5 36 9.5 q24 0 31.5 -10.5 q7.5 -10.5 -0.5 -33.5 q-20 -59 -35 -116.5 q-15 -57.5 -24 -116 q-9 -58.5 -11.5 -120 q-2.5 -61.5 1.5 -129.5 q2 -22 -8.5 -33 q-10.5 -11 -33.5 -11 q-23 0 -34.5 11 q-11.5 11 -13.5 33 q-4 48 -3 94 q-9 -18 -20 -34 q-30 -46 -73 -75 q-43 -29 -100 -29 ZM185 80 q31 0 60.5 16.5 q29.5 16.5 54 46.5 q24.5 30 42.5 72 q18 42 27 93 q5 24 8.5 52.5 q3.5 28.5 -0.5 52.5 q-4 24 -18.5 40.5 q-14.5 16.5 -47.5 16.5 q-31 0 -61.5 -19.5 q-30.5 -19.5 -56.5 -53.5 q-26 -34 -46 -81 q-20 -47 -29 -101 q-11 -64 5 -99.5 q16 -35.5 62 -35.5 Z" /><glyph glyph-name="" unicode="b" d="M53 -10 q-23 0 -32 11.5 q-9 11.5 -5 34.5 l117 659 q4 23 16.5 34 q12.5 11 35.5 11 q23 0 32.5 -11 q9.5 -11 5.5 -34 l-43 -239 q25 45 63 74.5 q38 29.5 93 29.5 q63 0 98 -27 q35 -27 49.5 -70.5 q14.5 -43.5 13 -98 q-1.5 -54.5 -11.5 -108.5 q-8 -46 -23.5 -93.5 q-15.5 -47.5 -43.5 -86 q-28 -38.5 -70 -62.5 q-42 -24 -103 -24 q-29 0 -50.5 8 q-21.5 8 -37 22.5 q-15.5 14.5 -25 34.5 q-9.5 20 -14.5 45 l-12 -64 q-4 -23 -17 -34.5 q-13 -11.5 -36 -11.5 ZM252 80 q33 0 57.5 13.5 q24.5 13.5 41.5 38 q17 24.5 27.5 58 q10.5 33.5 17.5 72.5 q7 38 9.5 75.5 q2.5 37.5 -5.5 67 q-8 29.5 -30 47.5 q-22 18 -65 18 q-27 0 -52 -15 q-25 -15 -45.5 -38 q-20.5 -23 -34 -50 q-13.5 -27 -17.5 -51 l-20 -110 q-4 -24 3.5 -46.5 q7.5 -22.5 23 -40 q15.5 -17.5 39 -28.5 q23.5 -11 50.5 -11 Z" /><glyph glyph-name="" unicode="c" d="M48 274 q14 77 43 131 q29 54 69 88.5 q40 34.5 88 50.5 q48 16 98 16 q38 0 66.5 -6.5 q28.5 -6.5 49.5 -17.5 q21 -11 34.5 -25 q13.5 -14 19.5 -29 q10 -23 3 -40 q-7 -17 -25 -27 q-20 -11 -35.5 -8 q-15.5 3 -21.5 18 q-8 17 -32.5 31 q-24.5 14 -68.5 14 q-36 0 -68.5 -12 q-32.5 -12 -58 -36 q-25.5 -24 -43.5 -59.5 q-18 -35.5 -27 -83.5 q-9 -49 -3 -86.5 q6 -37.5 23.5 -62.5 q17.5 -25 45 -37.5 q27.5 -12.5 61.5 -12.5 q26 0 55.5 6.5 q29.5 6.5 46.5 21.5 q14 12 32 14 q18 2 32 -12 q6 -6 8 -13.5 q2 -7.5 0 -16.5 q-2 -9 -8.5 -19.5 q-6.5 -10.5 -18.5 -22.5 q-16 -16 -36 -25.5 q-20 -9.5 -41 -14.5 q-21 -5 -43.5 -6.5 q-22.5 -1.5 -44.5 -1.5 q-55 0 -97.5 17 q-42.5 17 -69.5 51.5 q-27 34.5 -36.5 88.5 q-9.5 54 3.5 127 Z" /><glyph glyph-name="" unicode="d" d="M442 95 q-3 -15 -2 -30 q1 -15 5 -30 q5 -23 -4.5 -34 q-9.5 -11 -32.5 -11 q-23 0 -35 11 q-12 11 -18 34 q-4 14 -4.5 29.5 q-0.5 15.5 1.5 29.5 q-14 -25 -30 -44 q-16 -19 -35.5 -32.5 q-19.5 -13.5 -43 -20.5 q-23.5 -7 -52.5 -7 q-61 0 -94.5 24 q-33.5 24 -48 62.5 q-14.5 38.5 -13 86 q1.5 47.5 9.5 93.5 q10 54 27.5 108.5 q17.5 54.5 47.5 98 q30 43.5 74.5 70.5 q44.5 27 107.5 27 q55 0 82.5 -29.5 q27.5 -29.5 35.5 -74.5 l43 239 q4 23 16.5 34 q12.5 11 35.5 11 q23 0 33 -11 q10 -11 5 -34 l-111 -600 ZM216 80 q27 0 54 11 q27 11 49 28.5 q22 17.5 37.5 40 q15.5 22.5 19.5 46.5 l20 110 q4 24 0 51 q-4 27 -16 50 q-12 23 -32 38 q-20 15 -47 15 q-43 0 -71.5 -18 q-28.5 -18 -47 -47.5 q-18.5 -29.5 -29 -67 q-10.5 -37.5 -17.5 -75.5 q-7 -39 -7.5 -72.5 q-0.5 -33.5 7.5 -58 q8 -24.5 27.5 -38 q19.5 -13.5 52.5 -13.5 Z" /><glyph glyph-name="" unicode="e" d="M440 115 q14 -20 10 -38.5 q-4 -18.5 -25 -32.5 q-44 -32 -91.5 -43 q-47.5 -11 -108.5 -11 q-40 0 -73 13.5 q-33 13.5 -57.5 38.5 q-24.5 25 -38.5 59.5 q-14 34.5 -16 76.5 q-4 104 21.5 176.5 q25.5 72.5 69 118.5 q43.5 46 99 66.5 q55.5 20.5 111.5 20.5 q81 0 123.5 -39.5 q42.5 -39.5 48.5 -108.5 q4 -47 -11.5 -79 q-15.5 -32 -45 -52 q-29.5 -20 -69 -30.5 q-39.5 -10.5 -83 -14.5 q-43.5 -4 -88 -3 q-44.5 1 -84.5 3 q-1 -12 -1.5 -25 q-0.5 -13 -0.5 -27 q0 -25 9 -44 q9 -19 23.5 -32.5 q14.5 -13.5 34 -20.5 q19.5 -7 40.5 -7 q23 0 41 2 q18 2 34.5 6.5 q16.5 4.5 31.5 11.5 q15 7 30 17 q23 16 38.5 15.5 q15.5 -0.5 27.5 -17.5 ZM146 317 q48 -3 98 -3 q50 0 90 8.5 q40 8.5 64 29 q24 20.5 20 57.5 q-1 15 -8 26.5 q-7 11.5 -17.5 19 q-10.5 7.5 -25.5 11.5 q-15 4 -33 4 q-24 0 -51.5 -7.5 q-27.5 -7.5 -53.5 -25 q-26 -17.5 -47.5 -47 q-21.5 -29.5 -35.5 -73.5 Z" /><glyph glyph-name="" unicode="f" d="M520 470 q20 0 29.5 -12.5 q9.5 -12.5 5.5 -32.5 q-3 -20 -17 -32.5 q-14 -12.5 -34 -12.5 l-181 0 l-71 -400 q-7 -42 -24.5 -77 q-17.5 -35 -44.5 -60 q-27 -25 -64 -39 q-37 -14 -84 -14 l-45 0 q-20 0 -30.5 12.5 q-10.5 12.5 -7.5 32.5 q4 20 19 32.5 q15 12.5 35 12.5 l45 0 q39 0 71 26 q32 26 40 74 l71 400 l-136 0 q-20 0 -30 12.5 q-10 12.5 -7 32.5 q4 20 18.5 32.5 q14.5 12.5 34.5 12.5 l135 0 l18 100 q14 80 65.5 120 q51.5 40 137.5 40 l65 0 q20 0 30.5 -12.5 q10.5 -12.5 7.5 -32.5 q-4 -20 -19 -32.5 q-15 -12.5 -35 -12.5 l-65 0 q-33 0 -62 -17.5 q-29 -17.5 -35 -52.5 l-18 -100 l182 0 Z" /><glyph glyph-name="" unicode="g" d="M361 120 q-15 -30 -32.5 -50.5 q-17.5 -20.5 -38.5 -34 q-21 -13.5 -45 -19.5 q-24 -6 -50 -6 q-60 0 -93 25 q-33 25 -47.5 64 q-14.5 39 -13.5 87.5 q1 48.5 9 94.5 q8 47 24.5 96 q16.5 49 46 90 q29.5 41 74 67 q44.5 26 107.5 26 q55 0 84 -28 q29 -28 34 -76 l11 59 q4 23 17 34 q13 11 36 11 q23 0 32 -11 q9 -11 5 -34 l-91 -515 q-11 -64 -30.5 -109.5 q-19.5 -45.5 -50 -74.5 q-30.5 -29 -74.5 -42.5 q-44 -13.5 -105 -13.5 q-34 0 -61.5 7.5 q-27.5 7.5 -49 19.5 q-21.5 12 -37 27.5 q-15.5 15.5 -24.5 31.5 q-5 9 -7 19.5 q-2 10.5 0 19.5 q1 10 6 19.5 q5 9.5 12 16.5 q7 7 17 11 q10 4 22 4 q11 0 18.5 -4.5 q7.5 -4.5 12.5 -13.5 q8 -13 17 -25.5 q9 -12.5 22.5 -22 q13.5 -9.5 32.5 -15 q19 -5.5 47 -5.5 q26 0 48.5 7.5 q22.5 7.5 41 25 q18.5 17.5 32 46 q13.5 28.5 20.5 71.5 l21 120 ZM219 95 q27 0 54 11.5 q27 11.5 49.5 30.5 q22.5 19 38 42 q15.5 23 19.5 47 l16 90 q4 24 0 52 q-4 28 -16 51.5 q-12 23.5 -31.5 39.5 q-19.5 16 -46.5 16 q-43 0 -71.5 -18 q-28.5 -18 -46.5 -45.5 q-18 -27.5 -28 -60.5 q-10 -33 -15 -64 q-6 -32 -8 -66 q-2 -34 5 -62 q7 -28 26 -46 q19 -18 55 -18 Z" /><glyph glyph-name="" unicode="h" d="M161 316 l-50 -281 q-4 -23 -17 -34 q-13 -11 -36 -11 q-23 0 -32 11 q-9 11 -5 34 l117 660 q4 23 17 34 q13 11 36 11 q23 0 32 -11 q9 -11 5 -34 l-43 -239 q23 48 62 76 q39 28 94 28 q40 0 71 -13.5 q31 -13.5 51 -38.5 q20 -25 27.5 -60 q7.5 -35 -0.5 -78 l-59 -335 q-4 -23 -17 -34 q-13 -11 -36 -11 q-23 0 -32 11 q-9 11 -5 34 l55 309 q5 26 2 49.5 q-3 23.5 -13.5 41.5 q-10.5 18 -28.5 29 q-18 11 -45 11 q-27 0 -52.5 -16 q-25.5 -16 -45.5 -39.5 q-20 -23.5 -34 -51.5 q-14 -28 -18 -52 Z" /><glyph glyph-name="" unicode="i" d="M133 408 q-20 -5 -33.5 5 q-13.5 10 -17.5 31 q-4 23 4.5 36 q8.5 13 32.5 19 l145 36 q24 6 42 2.5 q18 -3.5 29 -14 q11 -10.5 15 -27 q4 -16.5 -1 -36.5 l-59 -236 q-11 -45 -14 -73 q-3 -28 1 -43.5 q4 -15.5 14 -21.5 q10 -6 25 -6 q28 0 54.5 15.5 q26.5 15.5 47.5 38.5 q17 18 33 18 q16 0 28 -11 q13 -11 13.5 -31.5 q0.5 -20.5 -13.5 -37.5 q-18 -22 -37 -38 q-19 -16 -40.5 -25.5 q-21.5 -9.5 -46 -14 q-24.5 -4.5 -54.5 -4.5 q-34 0 -61 9.5 q-27 9.5 -44 30.5 q-17 21 -21.5 53.5 q-4.5 32.5 7.5 77.5 l64 247 q4 14 -3.5 20 q-7.5 6 -19.5 3 l-90 -23 ZM340 629 q-33 0 -49 17 q-16 17 -10 46 q5 30 27 47.5 q22 17.5 55 17.5 q33 0 49 -17.5 q16 -17.5 11 -47.5 q-6 -29 -28 -46 q-22 -17 -55 -17 Z" /><glyph glyph-name="" unicode="j" d="M343 410 q2 14 -6.5 19.5 q-8.5 5.5 -20.5 2.5 l-90 -23 q-20 -5 -33.5 5 q-13.5 10 -17.5 31 q-4 23 4.5 36 q8.5 13 32.5 19 l145 36 q24 6 41.5 3 q17.5 -3 28.5 -13.5 q11 -10.5 15 -27 q4 -16.5 0 -37.5 l-88 -494 q-10 -55 -29 -94.5 q-19 -39.5 -48 -64.5 q-29 -25 -69 -36.5 q-40 -11.5 -91 -11.5 q-29 0 -53 7.5 q-24 7.5 -43.5 20 q-19.5 12.5 -35.5 29 q-16 16.5 -30 35.5 q-5 7 -6.5 14 q-1.5 7 -0.5 13 q1 8 6 17.5 q5 9.5 12.5 17.5 q7.5 8 17.5 13 q10 5 22 5 q13 0 21.5 -8 q8.5 -8 13.5 -16 q8 -12 17 -22.5 q9 -10.5 19.5 -18.5 q10.5 -8 23.5 -12.5 q13 -4.5 30 -4.5 q22 0 43.5 7 q21.5 7 39.5 20 q18 13 31 32 q13 19 17 44 l81 457 ZM414 629 q-33 0 -49 17 q-16 17 -10 46 q5 30 27 47.5 q22 17.5 55 17.5 q33 0 49 -17.5 q16 -17.5 11 -47.5 q-6 -29 -28 -46 q-22 -17 -55 -17 Z" /><glyph glyph-name="" unicode="k" d="M454 49 q23 -29 14 -44 q-9 -15 -42 -15 q-20 0 -35 7.5 q-15 7.5 -27 21.5 l-136 169 q-33 -3 -64 0 l-27 -153 q-4 -23 -17 -34 q-13 -11 -36 -11 q-22 0 -31.5 11 q-9.5 11 -5.5 34 l117 660 q4 23 17 34 q13 11 35 11 q23 0 32.5 -11 q9.5 -11 5.5 -34 l-38 -213 q19 15 39 25 q61 31 123 31 q38 0 63.5 -9.5 q25.5 -9.5 39.5 -28 q14 -18.5 17.5 -45.5 q3.5 -27 -2.5 -61 q-10 -59 -47 -102 q-37 -43 -88 -68 q-17 -9 -35 -16 l128 -159 ZM193 350 l-14 -79 q16 0 36 2 q40 3 78.5 16.5 q38.5 13.5 68.5 37 q30 23.5 37 58.5 q7 35 -4 49 q-11 14 -37 14 q-18 0 -41.5 -8 q-23.5 -8 -48.5 -23 q-25 -15 -48 -37 q-15 -14 -27 -30 Z" /><glyph glyph-name="" unicode="l" d="M428 74 q-40 -42 -83 -63 q-43 -21 -98 -21 q-37 0 -62 12.5 q-25 12.5 -39 35 q-14 22.5 -18 54.5 q-2 10 -3 21 q-49 -24 -106 -47 q-23 -9 -36.5 -3 q-13.5 6 -18.5 28 q-5 21 3.5 35.5 q8.5 14.5 31.5 24.5 q72 30 131 63 q12 130 34 223 q26 111 63 178.5 q37 67.5 83 96 q46 28.5 98 28.5 q37 0 60 -13 q23 -13 35 -34.5 q12 -21.5 14 -48.5 q2 -27 -3 -55 q-15 -95 -51 -171 q-36 -76 -96 -138.5 q-60 -62.5 -146 -114.5 q-4 -2 -8 -5 l0 -14 q0 -24 5 -39.5 q5 -15.5 17 -23 q12 -7.5 34 -7.5 q32 0 53.5 15 q21.5 15 41.5 38 q18 18 34.5 20 q16.5 2 30.5 -10 q16 -14 15 -31 q-1 -17 -16 -34 ZM220 269 q43 31 78 66 q52 53 83.5 115 q31.5 62 42.5 135 q2 15 1.5 27.5 q-0.5 12.5 -4 20.5 q-3.5 8 -10.5 12.5 q-7 4.5 -18 4.5 q-20 0 -48 -22.5 q-28 -22.5 -54.5 -75 q-26.5 -52.5 -47.5 -137.5 q-15 -62 -23 -146 Z" /><glyph glyph-name="" unicode="m" d="M23 0 q-20 0 -32.5 10 q-12.5 10 -8.5 32 l79 443 q2 9 1 17.5 q-1 8.5 -5 17.5 q-8 19 4 29.5 q12 10.5 31 10.5 q20 0 33.5 -10.5 q13.5 -10.5 21.5 -29.5 q4 -9 5 -17.5 q1 -8.5 -1 -17.5 q14 40 37.5 57.5 q23.5 17.5 64.5 17.5 q43 0 64.5 -22.5 q21.5 -22.5 20.5 -52.5 q13 32 39 53.5 q26 21.5 71 21.5 q31 0 51 -11 q20 -11 30.5 -30.5 q10.5 -19.5 12.5 -45 q2 -25.5 -3 -55.5 l-67 -376 q-4 -22 -19 -32 q-15 -10 -35 -10 q-20 0 -32 10 q-12 10 -8 32 l65 367 q2 14 2 26.5 q0 12.5 -4.5 23 q-4.5 10.5 -14 16.5 q-9.5 6 -25.5 6 q-31 0 -46.5 -22 q-15.5 -22 -20.5 -49 l-65 -373 q-4 -20 -17.5 -28.5 q-13.5 -8.5 -31.5 -8.5 q-18 0 -28.5 8.5 q-10.5 8.5 -6.5 28.5 l65 372 q2 13 2 26 q0 13 -4.5 23 q-4.5 10 -13.5 16.5 q-9 6.5 -25 6.5 q-32 0 -47.5 -21.5 q-15.5 -21.5 -20.5 -49.5 l-65 -368 q-4 -22 -18.5 -32 q-14.5 -10 -34.5 -10 Z" /><glyph glyph-name="" unicode="n" d="M129 560 q23 0 35 -11 q12 -11 18 -34 q4 -14 4.5 -29.5 q0.5 -15.5 -1.5 -29.5 q23 48 62 76 q39 28 94 28 q40 0 71 -13.5 q31 -13.5 51 -38.5 q20 -25 27.5 -60 q7.5 -35 -0.5 -78 l-59 -335 q-4 -23 -17 -34 q-13 -11 -36 -11 q-23 0 -32 11 q-9 11 -5 34 l55 309 q5 26 2 49.5 q-3 23.5 -13.5 41.5 q-10.5 18 -28.5 29 q-18 11 -45 11 q-27 0 -52.5 -16 q-25.5 -16 -45.5 -39.5 q-20 -23.5 -34 -51.5 q-14 -28 -18 -52 l-50 -281 q-4 -23 -17 -34 q-13 -11 -36 -11 q-23 0 -32 11 q-9 11 -5 34 l74 420 q3 15 2 30 q-1 15 -5 30 q-5 23 4.5 34 q9.5 11 32.5 11 Z" /><glyph glyph-name="" unicode="o" d="M218 -10 q-58 0 -96.5 21.5 q-38.5 21.5 -59.5 59.5 q-21 38 -25 90.5 q-4 52.5 7 114.5 q11 62 33.5 114 q22.5 52 56.5 89.5 q34 37.5 80.5 59 q46.5 21.5 104.5 21.5 q59 0 97.5 -21.5 q38.5 -21.5 59.5 -59 q21 -37.5 25 -89.5 q4 -52 -7 -114 q-11 -62 -34 -114.5 q-23 -52.5 -57.5 -90.5 q-34.5 -38 -80.5 -59.5 q-46 -21.5 -104 -21.5 ZM234 80 q35 0 63 14.5 q28 14.5 49 40 q21 25.5 35.5 62 q14.5 36.5 22.5 79.5 q8 43 6.5 78.5 q-1.5 35.5 -13.5 61 q-12 25.5 -35 40 q-23 14.5 -59 14.5 q-36 0 -64 -14.5 q-28 -14.5 -49 -40 q-21 -25.5 -35 -61.5 q-14 -36 -22 -79 q-7 -43 -5.5 -79 q1.5 -36 13.5 -61.5 q12 -25.5 35 -40 q23 -14.5 58 -14.5 Z" /><glyph glyph-name="" unicode="p" d="M179 450 q14 25 31 45 q17 20 37.5 34.5 q20.5 14.5 45 22.5 q24.5 8 53.5 8 q61 0 94.5 -24 q33.5 -24 48 -62.5 q14.5 -38.5 13 -85.5 q-1.5 -47 -9.5 -94 q-10 -54 -27.5 -108 q-17.5 -54 -47.5 -97.5 q-30 -43.5 -74.5 -71 q-44.5 -27.5 -107.5 -27.5 q-55 0 -82.5 29.5 q-27.5 29.5 -35.5 74.5 l-43 -239 q-4 -23 -17 -34 q-13 -11 -36 -11 q-23 0 -32 11 q-9 11 -5 34 l107 600 q3 15 2 30 q-1 15 -5 30 q-5 23 4.5 34 q9.5 11 32.5 11 q23 0 35 -11 q12 -11 18 -34 q4 -14 3.5 -32.5 q-0.5 -18.5 -2.5 -32.5 ZM321 470 q-27 0 -54 -11 q-27 -11 -49 -28.5 q-22 -17.5 -37.5 -40 q-15.5 -22.5 -19.5 -46.5 l-20 -110 q-4 -24 0 -51 q4 -27 16 -50 q12 -23 32 -38 q20 -15 47 -15 q43 0 71.5 18 q28.5 18 47 47.5 q18.5 29.5 29 67 q10.5 37.5 17.5 75.5 q7 39 7.5 72.5 q0.5 33.5 -7.5 58 q-8 24.5 -27.5 38 q-19.5 13.5 -52.5 13.5 Z" /><glyph glyph-name="" unicode="q" d="M484 560 q23 0 32 -11.5 q9 -11.5 5 -34.5 l-117 -659 q-4 -23 -17 -34 q-13 -11 -36 -11 q-23 0 -32 11 q-9 11 -5 34 l43 239 q-25 -45 -63 -74.5 q-38 -29.5 -93 -29.5 q-63 0 -98 27.5 q-35 27.5 -49.5 71 q-14.5 43.5 -13 97.5 q1.5 54 11.5 108 q8 47 23.5 94 q15.5 47 43.5 85.5 q28 38.5 70 62.5 q42 24 103 24 q29 0 50.5 -8 q21.5 -8 37 -22.5 q15.5 -14.5 25 -34.5 q9.5 -20 14.5 -45 l12 64 q4 23 17 34.5 q13 11.5 36 11.5 ZM285 470 q-33 0 -57.5 -13.5 q-24.5 -13.5 -41.5 -38 q-17 -24.5 -27.5 -58 q-10.5 -33.5 -17.5 -72.5 q-7 -38 -9.5 -75.5 q-2.5 -37.5 5.5 -67 q8 -29.5 30 -47.5 q22 -18 65 -18 q27 0 52 15 q25 15 45.5 38 q20.5 23 34 50 q13.5 27 17.5 51 l20 110 q4 24 -3.5 46.5 q-7.5 22.5 -23 40 q-15.5 17.5 -39 28.5 q-23.5 11 -50.5 11 Z" /><glyph glyph-name="" unicode="r" d="M75 -10 q-23 0 -32 11 q-9 11 -5 34 l74 420 q3 15 2 30 q-1 15 -5 30 q-5 23 4.5 34 q9.5 11 32.5 11 q23 0 35 -11 q12 -11 18 -34 q4 -14 4.5 -29.5 q0.5 -15.5 -1.5 -29.5 q26 48 76.5 76 q50.5 28 124.5 28 q45 0 71 -16 q26 -16 37 -43 q11 -27 10.5 -63 q-0.5 -36 -7.5 -76 l-2 -12 q-5 -23 -17.5 -34 q-12.5 -11 -35.5 -11 q-23 0 -32.5 11 q-9.5 11 -4.5 34 l2 12 q4 23 5 44.5 q1 21.5 -5.5 38.5 q-6.5 17 -21.5 27 q-15 10 -44 10 q-26 0 -54.5 -9 q-28.5 -9 -53 -26 q-24.5 -17 -43 -41.5 q-18.5 -24.5 -23.5 -55.5 l-56 -315 q-4 -23 -17 -34 q-13 -11 -36 -11 Z" /><glyph glyph-name="" unicode="s" d="M219 -10 q-30 0 -57 4 q-27 4 -50 13.5 q-23 9.5 -43 25 q-20 15.5 -35 38.5 q-8 11 -11 25 q-3 14 0 28 q4 22 17 30 q13 8 28 8 q10 0 18.5 -4 q8.5 -4 17.5 -14 q27 -28 54.5 -46 q27.5 -18 75.5 -18 q17 0 40 2 q23 2 44.5 9.5 q21.5 7.5 37.5 21.5 q16 14 20 37 q4 22 -7 37.5 q-11 15.5 -29.5 26 q-18.5 10.5 -39.5 17 q-21 6.5 -38 9.5 q-32 7 -65.5 17 q-33.5 10 -59 28 q-25.5 18 -38.5 47 q-13 29 -5 74 q7 42 28 71 q21 29 51.5 47.5 q30.5 18.5 68 27 q37.5 8.5 77.5 8.5 q65 0 114 -21.5 q49 -21.5 68 -63.5 q5 -11 6 -20 q1 -9 -1 -16 q-2 -16 -14.5 -28 q-12.5 -12 -32.5 -12 q-9 0 -20.5 3.5 q-11.5 3.5 -19.5 14.5 q-20 24 -45 38.5 q-25 14.5 -71 14.5 q-22 0 -42.5 -3.5 q-20.5 -3.5 -36.5 -11.5 q-16 -8 -26.5 -19.5 q-10.5 -11.5 -13.5 -28.5 q-4 -20 4.5 -33.5 q8.5 -13.5 23 -21.5 q14.5 -8 32.5 -13 q18 -5 34 -8 q37 -8 74 -19.5 q37 -11.5 65 -31.5 q28 -20 43 -51.5 q15 -31.5 6 -79.5 q-8 -44 -31 -74.5 q-23 -30.5 -56.5 -49 q-33.5 -18.5 -74.5 -27 q-41 -8.5 -85 -8.5 Z" /><glyph glyph-name="" unicode="t" d="M493 530 q20 0 28.5 -12.5 q8.5 -12.5 4.5 -32.5 q-4 -20 -16 -32.5 q-12 -12.5 -32 -12.5 l-180 0 l-43 -216 q-7 -38 -10.5 -65 q-3.5 -27 -0.5 -44.5 q3 -17.5 12 -26 q9 -8.5 25 -8.5 q28 0 54.5 15.5 q26.5 15.5 47.5 38.5 q17 18 33 18 q16 0 28 -11 q13 -11 13.5 -28 q0.5 -17 -14.5 -34 q-20 -21 -40 -37.5 q-20 -16.5 -41 -28 q-21 -11.5 -45 -17.5 q-24 -6 -51 -6 q-37 0 -62.5 12 q-25.5 12 -39 34.5 q-13.5 22.5 -16 54 q-2.5 31.5 4.5 70.5 l55 279 l-111 0 q-20 0 -29 12.5 q-9 12.5 -5 32.5 q4 20 16.5 32.5 q12.5 12.5 32.5 12.5 l114 0 l26 130 q5 23 17.5 34 q12.5 11 35.5 11 q23 0 32.5 -11 q9.5 -11 4.5 -34 l-26 -130 l177 0 Z" /><glyph glyph-name="" unicode="u" d="M408 -10 q-23 0 -35 11 q-12 11 -18 34 q-4 14 -4.5 29.5 q-0.5 15.5 1.5 29.5 q-23 -48 -62 -76 q-39 -28 -94 -28 q-40 0 -71 13.5 q-31 13.5 -51 38.5 q-20 25 -27 60 q-7 35 0 78 l59 335 q4 23 17 34 q13 11 36 11 q23 0 32 -11 q9 -11 5 -34 l-55 -309 q-4 -26 -1.5 -49.5 q2.5 -23.5 13 -41.5 q10.5 -18 28.5 -29 q18 -11 45 -11 q27 0 52.5 16 q25.5 16 45.5 39.5 q20 23.5 34 51.5 q14 28 18 52 l50 281 q4 23 17 34 q13 11 36 11 q23 0 32 -11 q9 -11 5 -34 l-74 -420 q-3 -15 -2 -30 q1 -15 5 -30 q5 -23 -4.5 -34 q-9.5 -11 -32.5 -11 Z" /><glyph glyph-name="" unicode="v" d="M164 38 l-80 470 q-2 10 1 19 q3 9 10 16.5 q7 7.5 16.5 12 q9.5 4.5 21.5 4.5 q18 0 29.5 -9 q11.5 -9 14.5 -26 l63 -354 q2 -11 9 -10 q7 1 13 10 q53 77 101 169.5 q48 92.5 86 184.5 q8 18 23 26.5 q15 8.5 33 8.5 q12 0 19.5 -4.5 q7.5 -4.5 11.5 -12 q4 -7.5 4 -16.5 q0 -9 -4 -19 q-52 -125 -114.5 -243 q-62.5 -118 -131.5 -227 q-14 -23 -30 -35.5 q-16 -12.5 -42 -12.5 q-25 0 -37.5 12 q-12.5 12 -16.5 36 Z" /><glyph glyph-name="" unicode="w" d="M96 -10 q-29 0 -43 14 q-14 14 -14 43 l9 464 q1 25 13 37 q12 12 36 12 q22 0 31.5 -10 q9.5 -10 9.5 -30 l-18 -390 q0 -10 1.5 -10 q1.5 0 5.5 10 l101 261 q10 25 27 37 q17 12 43 12 q26 0 38.5 -12 q12.5 -12 13.5 -37 l9 -261 q1 -10 1.5 -10 q0.5 0 5.5 10 q45 97 75 195 q30 98 45 195 q3 20 18 30 q15 10 37 10 q24 0 30 -11.5 q6 -11.5 1 -37.5 q-23 -115 -62 -232 q-39 -117 -93 -232 q-13 -27 -30 -42 q-17 -15 -46 -15 q-29 0 -44 13.5 q-15 13.5 -16 42.5 l-6 244 q-1 10 -2.5 10 q-1.5 0 -5.5 -10 l-92 -244 q-11 -29 -30.5 -42.5 q-19.5 -13.5 -48.5 -13.5 Z" /><glyph glyph-name="" unicode="x" d="M494 500 l-184 -215 l26 -112 q6 -26 11 -44 q5 -18 12 -29 q7 -11 16.5 -15.5 q9.5 -4.5 24.5 -4.5 q14 0 26.5 4 q12.5 4 23.5 13 q9 8 23 6 q14 -2 25 -15 q11 -11 10.5 -31.5 q-0.5 -20.5 -18.5 -37.5 q-16 -15 -34.5 -22 q-18.5 -7 -50.5 -7 q-31 0 -53.5 6 q-22.5 6 -40 24.5 q-17.5 18.5 -31.5 52.5 q-14 34 -27 90 l-10 44 l-160 -187 q-12 -14 -26.5 -22 q-14.5 -8 -32.5 -8 q-10 0 -19.5 4 q-9.5 4 -14 11.5 q-4.5 7.5 -2.5 18.5 q2 11 14 25 l218 256 l-17 72 q-7 30 -13.5 48.5 q-6.5 18.5 -14 28 q-7.5 9.5 -16 13 q-8.5 3.5 -19.5 3.5 q-14 0 -26.5 -4 q-12.5 -4 -23.5 -13 q-9 -8 -23 -6 q-14 2 -25 15 q-11 11 -10.5 31.5 q0.5 20.5 18.5 37.5 q16 15 34.5 22 q18.5 7 50.5 7 q31 0 53.5 -6 q22.5 -6 39.5 -24.5 q17 -18.5 31 -52.5 q14 -34 27 -90 l1 -4 l125 147 q13 15 27.5 22.5 q14.5 7.5 32.5 7.5 q11 0 20.5 -3.5 q9.5 -3.5 14 -11 q4.5 -7.5 2.5 -19 q-2 -11.5 -15 -26.5 Z" /><glyph glyph-name="" unicode="y" d="M340 0 l25 134 q-23 -48 -62 -76 q-39 -28 -94 -28 q-40 0 -71 13.5 q-31 13.5 -51.5 38.5 q-20.5 25 -27.5 60 q-7 35 1 78 l56 295 q5 23 17.5 34 q12.5 11 35.5 11 q23 0 32.5 -11 q9.5 -11 4.5 -34 l-52 -269 q-5 -26 -2 -49.5 q3 -23.5 13.5 -41.5 q10.5 -18 28.5 -29 q18 -11 45 -11 q27 0 52.5 16 q25.5 16 45.5 39.5 q20 23.5 34 51.5 q14 28 18 52 l42 241 q4 23 17 34 q13 11 36 11 q23 0 32 -11 q9 -11 5 -34 l-91 -515 q-11 -64 -30.5 -109.5 q-19.5 -45.5 -50 -74.5 q-30.5 -29 -74.5 -42.5 q-44 -13.5 -105 -13.5 q-34 0 -61.5 7.5 q-27.5 7.5 -49 19.5 q-21.5 12 -37 27.5 q-15.5 15.5 -24.5 31.5 q-5 9 -7 19.5 q-2 10.5 0 19.5 q1 10 6 19.5 q5 9.5 12 16.5 q7 7 17 11 q10 4 22 4 q11 0 18.5 -4.5 q7.5 -4.5 12.5 -13.5 q8 -13 17 -25.5 q9 -12.5 22.5 -22 q13.5 -9.5 32.5 -15 q19 -5.5 47 -5.5 q26 0 48.5 7.5 q22.5 7.5 41 25 q18.5 17.5 32 46 q13.5 28.5 20.5 71.5 Z" /><glyph glyph-name="" unicode="z" d="M70 0 q-30 0 -42.5 15 q-12.5 15 -7.5 44 q3 16 10 29 q7 13 19 25 l320 316 q6 6 9 10.5 q3 4.5 4 8.5 q1 6 -4.5 9 q-5.5 3 -18.5 3 l-216 0 q-20 0 -30 12.5 q-10 12.5 -6 32.5 q4 20 18 32.5 q14 12.5 34 12.5 l297 0 q30 0 42.5 -15 q12.5 -15 7.5 -44 q-3 -16 -10 -29.5 q-7 -13.5 -19 -24.5 l-325 -316 q-6 -6 -9 -11 q-3 -5 -4 -9 q-1 -5 4.5 -8 q5.5 -3 17.5 -3 l241 0 q20 0 30 -12.5 q10 -12.5 6 -32.5 q-4 -20 -18 -32.5 q-14 -12.5 -34 -12.5 l-316 0 Z" /><glyph glyph-name="" unicode="{" d="M366 -165 l-54 5 q-43 4 -76.5 17.5 q-33.5 13.5 -54 35.5 q-20.5 22 -27 53 q-6.5 31 3.5 70 l49 194 q6 23 4 42 q-2 19 -11 33 q-9 14 -25 22 q-16 8 -39 8 l-30 0 q-20 0 -30.5 12.5 q-10.5 12.5 -7.5 32.5 q4 20 18.5 32.5 q14.5 12.5 34.5 12.5 l30 0 q23 0 42 8 q19 8 33 22 q14 14 23 33 q9 19 11 42 l16 174 q3 39 20.5 70 q17.5 31 46 53 q28.5 22 66.5 35.5 q38 13.5 83 17.5 l56 5 q20 2 27.5 -11.5 q7.5 -13.5 4.5 -33.5 q-4 -20 -16 -32.5 q-12 -12.5 -33 -14.5 l-56 -5 q-48 -5 -78 -28 q-30 -23 -35 -74 l-12 -156 q-3 -29 -15 -57 q-12 -28 -32 -49.5 q-20 -21.5 -46 -34.5 q-11 -6 -23 -9 q10 -3 19 -8 q21 -14 33.5 -36 q12.5 -22 15 -49.5 q2.5 -27.5 -4.5 -56.5 l-46 -178 q-7 -25 -4.5 -43 q2.5 -18 13 -30 q10.5 -12 28 -18.5 q17.5 -6.5 40.5 -8.5 l54 -5 q20 -2 28 -14.5 q8 -12.5 4 -32.5 q-4 -20 -16 -33.5 q-12 -13.5 -32 -11.5 Z" /><glyph glyph-name="" unicode="}" d="M16 -165 q-20 -2 -28 11.5 q-8 13.5 -4 33.5 q4 20 16 32.5 q12 12.5 32 14.5 l56 5 q24 2 44 8.5 q20 6.5 34.5 18.5 q14.5 12 23.5 30 q9 18 11 43 l16 178 q3 29 15 56.5 q12 27.5 32 49.5 q20 22 47 36 q11 5 22 8 q-10 3 -19 9 q-22 13 -34.5 34.5 q-12.5 21.5 -15 49.5 q-2.5 28 5.5 57 l42 156 q14 51 -8 74 q-22 23 -69 28 l-54 5 q-20 2 -27.5 14.5 q-7.5 12.5 -3.5 32.5 q3 20 15.5 33.5 q12.5 13.5 32.5 11.5 l54 -5 q44 -4 77 -17.5 q33 -13.5 53.5 -35.5 q20.5 -22 27 -53 q6.5 -31 -3.5 -70 l-46 -174 q-6 -23 -4 -42 q2 -19 11 -33 q9 -14 25.5 -22 q16.5 -8 38.5 -8 l30 0 q20 0 30.5 -12.5 q10.5 -12.5 6.5 -32.5 q-3 -20 -17.5 -32.5 q-14.5 -12.5 -34.5 -12.5 l-30 0 q-22 0 -41 -8 q-19 -8 -33.5 -22 q-14.5 -14 -23.5 -33 q-9 -19 -11 -42 l-19 -194 q-4 -39 -21.5 -70 q-17.5 -31 -45.5 -53 q-28 -22 -66 -35.5 q-38 -13.5 -83 -17.5 l-56 -5 Z" /><glyph glyph-name="" unicode="&#x3001;" d="M319 -29 q-8 -5 -17 -7.5 q-9 -2.5 -17.5 -2 q-8.5 0.5 -16 4 q-7.5 3.5 -11.5 9.5 q-29 42 -62.5 82.5 q-33.5 40.5 -65.5 73.5 q-6 6 -8 15 q-2 9 0 17.5 q2 8.5 6.5 17.5 q4.5 9 13.5 15 l10 8 q12 9 29 9 q17 0 26 -10 q34 -35 70.5 -78 q36.5 -43 68.5 -87 q4 -6 4.5 -14 q0.5 -8 -1.5 -16.5 q-2 -8.5 -6.5 -16 q-4.5 -7.5 -11.5 -12.5 l-11 -8 Z" /><glyph glyph-name="" unicode="&#x3002;" d="M258 251 q33 0 58.5 -12 q25.5 -12 43 -33 q17.5 -21 24.5 -49 q7 -28 1 -60 q-5 -32 -22.5 -60 q-17.5 -28 -41.5 -49 q-24 -21 -54 -33 q-30 -12 -63 -12 q-31 0 -57 12 q-26 12 -43.5 33 q-17.5 21 -25 49 q-7.5 28 -1.5 60 q5 32 22.5 60 q17.5 28 42 49 q24.5 21 55 33 q30.5 12 61.5 12 ZM213 -2 q21 0 40.5 8 q19.5 8 35.5 21 q16 13 27 31 q11 18 14 39 q4 20 -0.5 38.5 q-4.5 18.5 -15.5 31.5 q-11 13 -28 21 q-17 8 -37 8 q-20 0 -39.5 -8 q-19.5 -8 -35.5 -21 q-16 -13 -27 -31.5 q-11 -18.5 -15 -38.5 q-3 -21 1.5 -39 q4.5 -18 15.5 -31 q11 -13 27.5 -21 q16.5 -8 36.5 -8 Z" /><glyph glyph-name="" unicode="&#x300a;" d="M802 -24 q2 -8 1 -16.5 q-1 -8.5 -4.5 -16.5 q-3.5 -8 -8.5 -13.5 q-5 -5.5 -12 -7.5 q-11 -3 -23 5.5 q-12 8.5 -15 21.5 l-123 418 q-1 5 0.5 13 q1.5 8 3.5 13 l271 418 q8 13 23 21.5 q15 8.5 24 5.5 q7 -2 10 -7.5 q3 -5.5 3.5 -13.5 q0.5 -8 -1 -16.5 q-1.5 -8.5 -7.5 -16.5 l-259 -399 q-2 -2 -3 -5 q-1 -3 1 -5 l119 -399 ZM963 -24 q2 -8 1 -16.5 q-1 -8.5 -5 -16.5 q-4 -8 -9 -13.5 q-5 -5.5 -11 -7.5 q-11 -3 -23 5.5 q-12 8.5 -15 21.5 l-123 418 q-1 5 0.5 13 q1.5 8 3.5 13 l271 418 q8 13 22.5 21.5 q14.5 8.5 24.5 5.5 q6 -2 9 -7.5 q3 -5.5 4 -13.5 q1 -8 -0.5 -16.5 q-1.5 -8.5 -7.5 -16.5 l-259 -399 q-2 -2 -3 -5 q-1 -3 1 -5 l119 -399 Z" /><glyph glyph-name="" unicode="&#x300b;" d="M74 -78 q-6 2 -9.5 7.5 q-3.5 5.5 -4 13.5 q-0.5 8 1 16.5 q1.5 8.5 6.5 16.5 l260 399 q1 2 2 5 q1 3 0 5 l-119 399 q-2 8 -1 16.5 q1 8.5 4.5 16.5 q3.5 8 9 13.5 q5.5 5.5 11.5 7.5 q11 3 23 -5.5 q12 -8.5 15 -21.5 l122 -418 q2 -5 0.5 -13 q-1.5 -8 -4.5 -13 l-270 -418 q-9 -13 -23.5 -21.5 q-14.5 -8.5 -23.5 -5.5 ZM235 -78 q-7 2 -10 7.5 q-3 5.5 -4 13.5 q-1 8 1 16.5 q2 8.5 7 16.5 l260 399 q1 2 2 5 q1 3 0 5 l-119 399 q-2 8 -1 16.5 q1 8.5 4.5 16.5 q3.5 8 8.5 13.5 q5 5.5 12 7.5 q11 3 22.5 -5.5 q11.5 -8.5 15.5 -21.5 l122 -418 q2 -5 0.5 -13 q-1.5 -8 -4.5 -13 l-271 -418 q-8 -13 -22.5 -21.5 q-14.5 -8.5 -23.5 -5.5 Z" /><glyph glyph-name="" unicode="&#x300c;" d="M810 804 q1 8 6.5 15.5 q5.5 7.5 12.5 14 q7 6.5 15.5 10 q8.5 3.5 16.5 3.5 l232 0 q8 0 15.5 -3 q7.5 -3 12.5 -8.5 q5 -5.5 7.5 -12.5 q2.5 -7 0.5 -14 q-1 -8 -5.5 -14.5 q-4.5 -6.5 -12 -12 q-7.5 -5.5 -15.5 -9 q-8 -3.5 -17 -3.5 l-186 0 q-2 0 -4.5 -2 q-2.5 -2 -2.5 -4 l-92 -520 q-1 -8 -6 -15.5 q-5 -7.5 -12 -13.5 q-7 -6 -15 -9.5 q-8 -3.5 -15.5 -3.5 q-7.5 0 -14.5 3.5 q-7 3.5 -11.5 10 q-4.5 6.5 -7 14 q-2.5 7.5 -1.5 15.5 l99 559 Z" /><glyph glyph-name="" unicode="&#x300d;" d="M364 -44 q-1 -8 -6.5 -15.5 q-5.5 -7.5 -12.5 -14 q-7 -6.5 -15.5 -10 q-8.5 -3.5 -16.5 -3.5 l-232 0 q-8 0 -15.5 3.5 q-7.5 3.5 -12.5 9 q-5 5.5 -7.5 12 q-2.5 6.5 -0.5 13.5 q1 8 5.5 14.5 q4.5 6.5 12 12 q7.5 5.5 16 9 q8.5 3.5 16.5 3.5 l186 0 q2 0 4.5 2 q2.5 2 2.5 4 l92 520 q1 8 6 15.5 q5 7.5 12 13.5 q7 6 15 9.5 q8 3.5 15.5 3.5 q7.5 0 14.5 -3.5 q7 -3.5 12 -10 q5 -6.5 7 -14 q2 -7.5 1 -15.5 l-99 -559 Z" /><glyph glyph-name="" unicode="&#x300e;" d="M921 687 q-2 0 -4 -2 q-2 -2 -3 -4 l-79 -452 q-1 -9 -6.5 -16.5 q-5.5 -7.5 -12.5 -14 q-7 -6.5 -15.5 -10 q-8.5 -3.5 -17.5 -3.5 l-87 0 q-9 0 -16 3.5 q-7 3.5 -12.5 10 q-5.5 6.5 -7 14 q-1.5 7.5 -0.5 15.5 l101 576 q2 8 7 15.5 q5 7.5 12.5 14 q7.5 6.5 15.5 10 q8 3.5 16 3.5 l281 0 q8 0 15.5 -3.5 q7.5 -3.5 12.5 -9.5 q5 -6 7 -14 q2 -8 1 -16 l-13 -74 q-2 -8 -7 -16 q-5 -8 -12 -14 q-7 -6 -15.5 -9.5 q-8.5 -3.5 -16.5 -3.5 l-144 0 ZM804 812 q-2 0 -4.5 -2 q-2.5 -2 -2.5 -5 l-103 -579 q0 -2 1.5 -4 q1.5 -2 4.5 -2 l91 0 q3 0 5.5 2 q2.5 2 2.5 4 l80 452 q2 9 6.5 16.5 q4.5 7.5 12 14 q7.5 6.5 16 10 q8.5 3.5 16.5 3.5 l143 0 q2 0 4.5 2 q2.5 2 2.5 4 l14 78 q1 2 -1 4 q-2 2 -4 2 l-285 0 Z" /><glyph glyph-name="" unicode="&#x300f;" d="M253 73 q2 0 4 2 q2 2 3 4 l79 452 q1 9 6.5 16.5 q5.5 7.5 12.5 14 q7 6.5 16 10 q9 3.5 17 3.5 l87 0 q9 0 16 -3.5 q7 -3.5 12.5 -10 q5.5 -6.5 7 -14 q1.5 -7.5 0.5 -15.5 l-101 -576 q-2 -8 -7 -15.5 q-5 -7.5 -12.5 -14 q-7.5 -6.5 -15.5 -10 q-8 -3.5 -16 -3.5 l-281 0 q-8 0 -15.5 3.5 q-7.5 3.5 -12.5 9.5 q-5 6 -7 14 q-2 8 -1 16 l13 74 q2 8 7 16 q5 8 12 14 q7 6 16 9.5 q9 3.5 16 3.5 l144 0 ZM370 -52 q2 0 4.5 2 q2.5 2 2.5 5 l103 579 q0 2 -1.5 4 q-1.5 2 -4.5 2 l-91 0 q-3 0 -5.5 -2 q-2.5 -2 -2.5 -4 l-80 -452 q-2 -8 -6.5 -16 q-4.5 -8 -12 -14.5 q-7.5 -6.5 -16 -10 q-8.5 -3.5 -16.5 -3.5 l-143 0 q-2 0 -4.5 -2 q-2.5 -2 -2.5 -4 l-14 -78 q-1 -2 1 -4 q2 -2 4 -2 l285 0 Z" /><glyph glyph-name="" unicode="&#x3010;" d="M1136 845 q-1 -2 -5 -5.5 q-4 -3.5 -9 -7.5 q-44 -35 -86.5 -82 q-42.5 -47 -78 -103.5 q-35.5 -56.5 -62 -123.5 q-26.5 -67 -39.5 -143 q-13 -74 -10 -140.5 q3 -66.5 18 -124 q15 -57.5 40.5 -105 q25.5 -47.5 57.5 -82.5 l8 -7 q3 -4 2 -5 q0 -2 -13.5 -2.5 q-13.5 -0.5 -30.5 -0.5 l-215 0 q-8 0 -15.5 3.5 q-7.5 3.5 -12.5 10 q-5 6.5 -7 14 q-2 7.5 -1 15.5 l150 848 q1 8 6 15.5 q5 7.5 12.5 14 q7.5 6.5 16 10 q8.5 3.5 16.5 3.5 l245 0 q13 -1 13 -2 Z" /><glyph glyph-name="" unicode="&#x3011;" d="M347 -44 q-1 -8 -6 -15.5 q-5 -7.5 -12.5 -14 q-7.5 -6.5 -15.5 -10 q-8 -3.5 -17 -3.5 l-245 0 q-13 1 -13 3 q1 1 5 4.5 q4 3.5 9 7.5 q45 35 87 82 q42 47 77.5 103.5 q35.5 56.5 62 123.5 q26.5 67 39.5 143 q13 74 10 140.5 q-3 66.5 -18 124 q-15 57.5 -40 105 q-25 47.5 -58 82.5 l-7 8 q-4 3 -3 5 q0 1 13.5 1.5 q13.5 0.5 30.5 0.5 l215 0 q8 0 15.5 -3.5 q7.5 -3.5 12.5 -10 q5 -6.5 7 -14 q2 -7.5 1 -15.5 l-150 -848 Z" /><glyph glyph-name="" unicode="&#x4e00;" d="M132 394 q1 8 6.5 15.5 q5.5 7.5 12.5 13.5 q7 6 16 9.5 q9 3.5 17 3.5 l830 0 q8 0 15.5 -3.5 q7.5 -3.5 12.5 -9.5 q5 -6 7 -13.5 q2 -7.5 1 -15.5 l-1 -7 q-2 -8 -7 -16 q-5 -8 -12 -14 q-7 -6 -15.5 -9.5 q-8.5 -3.5 -16.5 -3.5 l-830 0 q-9 0 -16.5 3.5 q-7.5 3.5 -12.5 9.5 q-5 6 -7 14 q-2 8 -1 16 l1 7 Z" /><glyph glyph-name="" unicode="&#x4e01;" d="M205 713 q1 7 6 14.5 q5 7.5 12 13.5 q7 6 15.5 9 q8.5 3 16.5 3 l795 0 q8 0 15.5 -3 q7.5 -3 12.5 -9 q5 -6 7.5 -13.5 q2.5 -7.5 0.5 -14.5 l0 -5 q-2 -8 -6.5 -15 q-4.5 -7 -12 -13 q-7.5 -6 -16 -9.5 q-8.5 -3.5 -17.5 -3.5 l-318 0 l-109 -617 q-8 -48 -26.5 -72 q-18.5 -24 -55.5 -35 q-31 -10 -81 -13 q-50 -3 -125 -3 q-12 0 -23 9.5 q-11 9.5 -14 20.5 l0 4 q0 1 -1 3 q-5 23 9 40.5 q14 17.5 39 16.5 q51 -2 86.5 -1.5 q35.5 0.5 55.5 1.5 q19 1 28 7 q9 6 12 23 l108 616 l-379 0 q-8 0 -15 3.5 q-7 3.5 -12.5 9.5 q-5.5 6 -8 13 q-2.5 7 -0.5 15 l1 5 Z" /><glyph glyph-name="" unicode="&#x4e03;" d="M146 406 q0 8 4 15.5 q4 7.5 10 14.5 q6 7 14 11.5 q8 4.5 17 5.5 l251 39 l51 289 q2 8 6.5 15.5 q4.5 7.5 12 14 q7.5 6.5 15.5 10 q8 3.5 16 3.5 l7 0 q8 0 15 -3.5 q7 -3.5 11.5 -9.5 q4.5 -6 6.5 -14 q2 -8 1 -15 l-49 -275 l488 76 q8 2 15.5 -1 q7.5 -3 14 -7.5 q6.5 -4.5 10.5 -11 q4 -6.5 3 -14.5 l0 -4 q0 -8 -4 -16 q-4 -8 -10 -14.5 q-6 -6.5 -14 -11.5 q-8 -5 -17 -6 l-501 -77 l-54 -307 q-5 -24 -4 -39 q1 -15 8.5 -23.5 q7.5 -8.5 23 -11.5 q15.5 -3 42.5 -3 l245 0 q22 0 37.5 5.5 q15.5 5.5 26.5 19.5 q11 14 20.5 38 q9.5 24 19.5 60 q7 25 26.5 35.5 q19.5 10.5 39.5 1.5 q11 -5 17.5 -19 q6.5 -14 2.5 -27 q-15 -55 -30.5 -92.5 q-15.5 -37.5 -37 -61 q-21.5 -23.5 -53 -33.5 q-31.5 -10 -80.5 -10 l-253 0 q-49 0 -80.5 7 q-31.5 7 -48 25.5 q-16.5 18.5 -19 49.5 q-2.5 31 6.5 79 l51 292 l-238 -37 q-9 -1 -16 1.5 q-7 2.5 -13 7 q-6 4.5 -10 11 q-4 6.5 -4 13.5 l0 4 Z" /><glyph glyph-name="" unicode="&#x4e07;" d="M210 727 q1 8 6 15 q5 7 12.5 13 q7.5 6 16 9.5 q8.5 3.5 16.5 3.5 l789 0 q9 0 16.5 -3.5 q7.5 -3.5 12.5 -9.5 q5 -6 7.5 -13 q2.5 -7 0.5 -15 q-1 -8 -6 -15 q-5 -7 -12.5 -13 q-7.5 -6 -15.5 -9.5 q-8 -3.5 -17 -3.5 l-495 0 q4 -6 6 -13 q2 -8 0 -16 q-18 -85 -41 -172 q1 0 3 1 q8 3 16 3 l388 0 q8 0 15 -3 q7 -3 12 -9 q2 -2 4 -5 q2 -2 3 -6 q1 -2 2 -5 q1 -6 0 -12 q-1 -5 -3 -10 q-27 -114 -48 -196 q-21 -84 -39.5 -140.5 q-18.5 -56.5 -35 -89 q-16.5 -32.5 -34.5 -48.5 q-22 -21 -44.5 -28.5 q-22.5 -7.5 -52.5 -10.5 q-24 -1 -60.5 -1 q-36.5 0 -78.5 2 q-14 0 -25.5 9.5 q-11.5 9.5 -12.5 21.5 q-2 21 14 35.5 q16 14.5 42 13.5 q17 -1 31 -2 q14 -1 26 -1 l44 0 q18 -1 28.5 1.5 q10.5 2.5 21.5 10.5 q14 11 29 41.5 q15 30.5 32 85 q17 54.5 38 136.5 q14 57 30 129 l-340 0 q-8 0 -15 4 q-5 2 -9 6 q-25 -81 -62 -157 q-46 -95 -115.5 -177.5 q-69.5 -82.5 -172.5 -141.5 q-7 -5 -15.5 -7 q-8.5 -2 -16 -1 q-7.5 1 -14 4.5 q-6.5 3.5 -10.5 8.5 q-12 15 -5 35 q7 20 28 34 q91 55 152 130 q61 75 100.5 160.5 q39.5 85.5 62.5 176 q23 90.5 42 176.5 q1 7 6 15 q4 7 10 12 l-230 0 q-9 0 -16.5 3.5 q-7.5 3.5 -12.5 9.5 q-5 6 -7.5 13 q-2.5 7 -0.5 15 Z" /><glyph glyph-name="" unicode="&#x4e09;" d="M90 32 q2 8 7 15.5 q5 7.5 12 13.5 q7 6 15.5 9 q8.5 3 17.5 3 l781 0 q9 0 16 -3 q7 -3 12.5 -9 q5.5 -6 7.5 -13.5 q2 -7.5 0 -15.5 l0 -2 q-1 -8 -6 -15 q-5 -7 -12 -13.5 q-7 -6.5 -15.5 -10 q-8.5 -3.5 -16.5 -3.5 l-782 0 q-8 0 -15.5 3.5 q-7.5 3.5 -13 10 q-5.5 6.5 -7.5 13.5 q-2 7 -1 15 l0 2 ZM267 704 q1 8 6 15 q5 7 12 13 q7 6 15.5 9.5 q8.5 3.5 16.5 3.5 l671 0 q8 0 15.5 -3.5 q7.5 -3.5 12.5 -9.5 q5 -6 7 -13 q2 -7 1 -15 l0 -2 q-2 -8 -7 -15.5 q-5 -7.5 -12 -13.5 q-7 -6 -15.5 -9.5 q-8.5 -3.5 -16.5 -3.5 l-671 0 q-8 0 -15.5 3.5 q-7.5 3.5 -12.5 9.5 q-5 6 -7 13.5 q-2 7.5 -1 15.5 l1 2 ZM274 378 q2 8 6.5 15.5 q4.5 7.5 12 13 q7.5 5.5 16 9 q8.5 3.5 16.5 3.5 l527 0 q8 0 15 -3.5 q7 -3.5 12 -9 q5 -5.5 7.5 -13 q2.5 -7.5 1.5 -15.5 l-1 -2 q-1 -7 -6 -14.5 q-5 -7.5 -12 -14 q-7 -6.5 -15.5 -9.5 q-8.5 -3 -16.5 -3 l-527 0 q-8 0 -15.5 3 q-7.5 3 -12.5 9.5 q-5 6.5 -7 14 q-2 7.5 -1 14.5 l0 2 Z" /><glyph glyph-name="" unicode="&#x4e0a;" d="M71 10 q2 7 6.5 14.5 q4.5 7.5 12 13.5 q7.5 6 16 9 q8.5 3 15.5 3 l330 0 l130 734 q2 8 6.5 16 q4.5 8 11.5 14 q7 6 15 9.5 q8 3.5 15 3.5 l7 0 q8 0 15 -3.5 q7 -3.5 11.5 -9.5 q4.5 -6 6.5 -14 q2 -8 0 -16 l-46 -261 l329 0 q8 0 15 -3.5 q7 -3.5 12 -9 q5 -5.5 7.5 -13 q2.5 -7.5 1.5 -15.5 l-1 -2 q-2 -8 -6.5 -15.5 q-4.5 -7.5 -12 -13.5 q-7.5 -6 -15.5 -9 q-8 -3 -16 -3 l-328 0 l-69 -389 l398 0 q8 0 15 -3 q7 -3 12 -9 q5 -6 7.5 -13.5 q2.5 -7.5 0.5 -14.5 l0 -3 q-2 -7 -6.5 -14.5 q-4.5 -7.5 -12 -13.5 q-7.5 -6 -15.5 -9.5 q-8 -3.5 -16 -3.5 l-817 0 q-7 0 -14.5 3.5 q-7.5 3.5 -12.5 9.5 q-5 6 -7 13.5 q-2 7.5 -1 14.5 l0 3 Z" /><glyph glyph-name="" unicode="&#x4e0b;" d="M203 727 q1 8 6 15 q5 7 12.5 13 q7.5 6 15.5 9.5 q8 3.5 16 3.5 l806 0 q8 0 15 -3.5 q7 -3.5 12 -9.5 q5 -6 7.5 -13 q2.5 -7 0.5 -15 l0 -2 q-2 -8 -6.5 -15.5 q-4.5 -7.5 -11.5 -13 q-7 -5.5 -15.5 -9 q-8.5 -3.5 -16.5 -3.5 l-389 0 q3 -6 5 -12 q2 -8 0 -16 l-26 -149 q8 5 19 7 q16 3 26 -3 q34 -19 70 -40 q36 -21 70 -43 q34 -22 65.5 -44 q31.5 -22 56.5 -41 q6 -4 8.5 -11.5 q2.5 -7.5 2.5 -15.5 q0 -8 -3 -16 q-3 -8 -9 -14 l-9 -8 q-6 -8 -14.5 -11.5 q-8.5 -3.5 -17.5 -4.5 q-9 -1 -17.5 1 q-8.5 2 -14.5 7 q-23 19 -51.5 40 q-28.5 21 -59.5 42.5 q-31 21.5 -64.5 43 q-33.5 21.5 -64.5 39.5 q-3 2 -5 4 l-84 -476 q-2 -8 -6.5 -16 q-4.5 -8 -11.5 -14 q-7 -6 -14.5 -9.5 q-7.5 -3.5 -15.5 -3.5 l-7 0 q-8 0 -15 3.5 q-7 3.5 -11.5 9.5 q-4.5 6 -6.5 14 q-2 8 -1 16 l122 693 q2 8 7 16 q3 6 9 12 l-349 0 q-8 0 -15 3.5 q-7 3.5 -12 9 q-5 5.5 -7.5 13 q-2.5 7.5 -0.5 15.5 l0 2 Z" /><glyph glyph-name="" unicode="&#x4e0d;" d="M218 731 q0 8 5 15 q5 7 12.5 13.5 q7.5 6.5 16 9.5 q8.5 3 15.5 3 l778 0 q8 0 15 -3 q7 -3 12 -9.5 q5 -6.5 7.5 -13.5 q2.5 -7 1.5 -15 l0 -3 q-2 -7 -7 -14.5 q-5 -7.5 -12 -13.5 q-7 -6 -15.5 -9.5 q-8.5 -3.5 -16.5 -3.5 l-282 0 q0 -2 -1 -4 q-2 -9 -7 -17 q-37 -47 -79 -93 q3 -9 1 -22 l-104 -587 q-1 -9 -6 -17 q-5 -8 -12 -14 q-7 -6 -15 -9.5 q-8 -3.5 -16 -3.5 l-7 0 q-8 0 -15 3.5 q-7 3.5 -12 9.5 q-5 6 -7 14 q-2 8 -1 16 l89 502 q-30 -29 -63 -57 q-70 -59 -146.5 -111.5 q-76.5 -52.5 -156.5 -94.5 q-8 -4 -16 -5 q-8 -1 -15.5 1 q-7.5 2 -13.5 6 q-6 4 -9 10 l-1 0 l0 2 q-5 7 -5.5 17 q-0.5 10 3.5 19 q4 9 12 17.5 q8 8.5 18 14.5 q75 38 145.5 86.5 q70.5 48.5 134 103 q63.5 54.5 119.5 113.5 q46 50 84 100 l-393 0 q-8 0 -15 3.5 q-7 3.5 -12.5 9.5 q-5.5 6 -8 13.5 q-2.5 7.5 -0.5 14.5 l1 3 ZM696 440 q-7 6 -9.5 15 q-2.5 9 -2 17.5 q0.5 8.5 5.5 17 q5 8.5 13 14.5 l2 2 q11 8 26.5 8 q15.5 0 24.5 -7 q34 -25 68 -52.5 q34 -27.5 66.5 -56 q32.5 -28.5 61.5 -56 q29 -27.5 52 -53.5 q4 -5 6 -12.5 q2 -7.5 0.5 -16 q-1.5 -8.5 -5.5 -16 q-4 -7.5 -11 -13.5 l-8 -6 q-8 -6 -16.5 -8.5 q-8.5 -2.5 -17.5 -2 q-9 0.5 -16.5 4 q-7.5 3.5 -12.5 9.5 q-20 24 -46.5 51 q-26.5 27 -56.5 54.5 q-30 27.5 -61.5 54.5 q-31.5 27 -62.5 52 Z" /><glyph glyph-name="" unicode="&#x4e0e;" d="M409 780 q3 8 8.5 15 q5.5 7 13 12.5 q7.5 5.5 15.5 8 q8 2.5 15 1.5 l2 0 q8 -1 15 -5.5 q7 -4.5 10.5 -11.5 q3.5 -7 4 -15.5 q0.5 -8.5 -1.5 -17.5 q-11 -29 -23 -60 l512 0 q8 0 15 -3.5 q7 -3.5 12.5 -9 q5.5 -5.5 7.5 -12.5 q2 -7 1 -15 q-1 -8 -6 -15 q-5 -7 -12.5 -13 q-7.5 -6 -15.5 -9.5 q-8 -3.5 -16 -3.5 l-510 0 q-8 0 -15 4 l-2 0 q-10 -25 -19 -50 q-19 -47 -36 -91 q-7 -18 -14 -34 l582 0 q9 0 16 -3 q7 -3 12.5 -9 q5.5 -6 7.5 -12.5 q2 -6.5 1 -14.5 q-2 -7 -6 -14 q-1 -1 -2 -3 q-27 -98 -50 -169 q-24 -77 -45 -129 q-21 -52 -40.5 -84 q-19.5 -32 -40.5 -48 q-25 -21 -48 -28.5 q-23 -7.5 -58 -9.5 q-24 -2 -61.5 -1.5 q-37.5 0.5 -81.5 3.5 q-14 0 -25.5 10 q-11.5 10 -12.5 22 q-3 21 12.5 35.5 q15.5 14.5 42.5 13.5 q19 -1 35 -2 q16 -1 30 -1.5 q14 -0.5 26 -0.5 l24 0 q19 0 31 2 q12 2 23 10 q17 12 34.5 41.5 q17.5 29.5 37.5 79.5 q20 50 42 123 q16 49 33 111 l-526 0 q-8 0 -15 3.5 q-7 3.5 -13 8.5 l0 1 q-2 -2 -4 -3 q-14 -10 -26 -10 l-4 0 q-10 0 -17 4.5 q-7 4.5 -11.5 12 q-4.5 7.5 -5 17.5 q-0.5 10 4.5 19 q16 38 34 81.5 q18 43.5 35.5 89 q17.5 45.5 35 92 q17.5 46.5 32.5 87.5 ZM111 202 q2 8 7 15 q5 7 12 13 q7 6 15 9.5 q8 3.5 16 3.5 l539 0 q8 0 15 -3.5 q7 -3.5 12 -9.5 q5 -6 7.5 -13 q2.5 -7 0.5 -15 q-1 -7 -6 -14.5 q-5 -7.5 -12 -13 q-7 -5.5 -15 -9 q-8 -3.5 -16 -3.5 l-539 0 q-7 0 -14.5 3.5 q-7.5 3.5 -12.5 9 q-5 5.5 -7.5 13 q-2.5 7.5 -1.5 14.5 Z" /><glyph glyph-name="" unicode="&#x4e13;" d="M164 502 q1 7 6 14.5 q5 7.5 12 13 q7 5.5 15.5 9 q8.5 3.5 16.5 3.5 l233 0 l10 20 q23 46 45 92 l-187 0 q-8 0 -15.5 3.5 q-7.5 3.5 -12.5 9.5 q-5 6 -7.5 13 q-2.5 7 -0.5 14 q1 8 6 15 q5 7 12 12.5 q7 5.5 15.5 9 q8.5 3.5 16.5 3.5 l210 0 q18 37 33 72 q4 8 10 14.5 q6 6.5 13.5 11 q7.5 4.5 15 7 q7.5 2.5 14.5 1.5 l4 0 q7 -2 13.5 -7 q6.5 -5 10 -12.5 q3.5 -7.5 3.5 -16 q0 -8.5 -4 -17.5 q-12 -26 -25 -53 l339 0 q8 0 15 -3.5 q7 -3.5 12.5 -9 q5.5 -5.5 8 -12.5 q2.5 -7 0.5 -15 q-1 -7 -6 -14 q-5 -7 -12.5 -13 q-7.5 -6 -15.5 -9.5 q-8 -3.5 -16 -3.5 l-363 0 q-27 -57 -55 -112 l470 0 q8 0 15 -3.5 q7 -3.5 12.5 -9 q5.5 -5.5 8 -13 q2.5 -7.5 0.5 -14.5 q-1 -8 -6 -15 q-5 -7 -12.5 -13 q-7.5 -6 -15.5 -9.5 q-8 -3.5 -16 -3.5 l-496 0 l-25 -50 q-15 -30 -29 -57 l395 0 q8 0 15 -3 q1 0 2 -1 q1 2 3 3 q4 1 9 1 q2 0 4 0.5 q2 0.5 4 1.5 q5 1 11.5 0 q6.5 -1 11.5 -4 l7 -5 q7 -4 10.5 -12 q3.5 -8 3 -17 q-0.5 -9 -5 -18 q-4.5 -9 -12.5 -16 q-32 -27 -67.5 -57 q-35.5 -30 -72.5 -61.5 q-37 -31.5 -75 -62.5 q-25 -21 -49 -41 l26 -12 q44 -21 80 -40 q7 -4 11.5 -11 q4.5 -7 5 -15.5 q0.5 -8.5 -2 -17.5 q-2.5 -9 -9.5 -16 l-1 -2 q-10 -12 -28.5 -16 q-18.5 -4 -30.5 2 q-30 19 -70 39 q-40 20 -84 40 q-44 20 -91 38.5 q-47 18.5 -92 34.5 q-11 3 -17 10 q-6 7 -8 15 q-2 8 0 17 q2 9 10 17 q6 7 19 11.5 q13 4.5 22 1.5 q46 -13 96 -31 q44 -16 86 -32 q3 4 8 8 q38 31 77.5 63.5 q39.5 32.5 76.5 63.5 q28 24 54 46 l-352 0 q-8 0 -15 3 q-6 3 -10 6 l-1 0 q-13 -9 -24 -9 l-5 0 q-10 0 -17.5 5 q-7.5 5 -11 12.5 q-3.5 7.5 -3.5 17.5 q0 10 5 20 q28 50 58 109 q5 11 10 21 l-206 0 q-8 0 -15.5 3.5 q-7.5 3.5 -12.5 9.5 q-5 6 -7.5 13 q-2.5 7 -0.5 15 Z" /><glyph glyph-name="" unicode="&#x4e14;" d="M73 3 q2 8 7 15 q5 7 12 13 q7 6 15 9 q8 3 16 3 l114 0 q0 1 1 2 l122 697 q2 8 7 15.5 q5 7.5 12.5 14 q7.5 6.5 15.5 10 q8 3.5 15 3.5 l509 0 q9 0 16 -3.5 q7 -3.5 12 -10 q5 -6.5 7 -14 q2 -7.5 0 -15.5 l-122 -697 q0 -1 -1 -2 l103 0 q8 0 15 -3 q7 -3 12 -9 q5 -6 7 -13 q2 -7 1 -15 q-1 -8 -6 -15.5 q-5 -7.5 -12.5 -13.5 q-7.5 -6 -15.5 -9 q-8 -3 -15 -3 l-812 0 q-7 0 -14.5 3 q-7.5 3 -12 9 q-4.5 6 -7 13.5 q-2.5 7.5 -1.5 15.5 ZM788 289 l31 175 q-8 -3 -15 -3 l-403 0 q-4 0 -7 1 l-30 -171 q3 1 7 1 l403 0 q7 0 14 -3 ZM745 43 l0 2 l30 169 q-8 -3 -15 -3 l-403 0 q-4 0 -7 1 l-29 -167 q-1 -1 -1 -2 l425 0 ZM832 537 l28 161 q1 2 -0.5 3.5 q-1.5 1.5 -3.5 1.5 l-414 0 q-2 0 -4 -1.5 q-2 -1.5 -2 -3.5 l-28 -159 l410 0 q7 0 14 -2 Z" /><glyph glyph-name="" unicode="&#x4e16;" d="M167 553 q2 7 6.5 14.5 q4.5 7.5 12 13.5 q7.5 6 15.5 9 q8 3 16 3 l101 0 l32 178 q1 8 6 16 q5 8 12 14 q7 6 15 9.5 q8 3.5 16 3.5 l3 0 q8 0 15 -3.5 q7 -3.5 12 -9.5 q5 -6 7 -14 q2 -8 1 -15 l-31 -179 l172 0 l36 201 q2 8 6.5 15.5 q4.5 7.5 12 13.5 q7.5 6 15 9.5 q7.5 3.5 16 3.5 q8.5 0 15 -3.5 q6.5 -3.5 11.5 -9.5 q5 -6 7 -14 q2 -8 0 -16 l-35 -200 l181 0 l33 190 q1 8 6 15.5 q5 7.5 12.5 14 q7.5 6.5 15.5 10 q8 3.5 15 3.5 l4 0 q9 0 15.5 -3.5 q6.5 -3.5 11.5 -10 q5 -6.5 6.5 -14 q1.5 -7.5 0.5 -15.5 l-33 -190 l104 0 q8 0 14.5 -3 q6.5 -3 12 -9 q5.5 -6 8 -13.5 q2.5 -7.5 0.5 -14.5 q-1 -8 -6 -15 q-5 -7 -12 -13 q-7 -6 -15.5 -9.5 q-8.5 -3.5 -16.5 -3.5 l-104 0 l-48 -270 q-1 -8 -6 -16 q-5 -8 -12 -14 q-7 -6 -15.5 -9.5 q-8.5 -3.5 -17.5 -3.5 l-263 0 q-8 0 -15.5 3.5 q-7.5 3.5 -12.5 9.5 q-5 6 -7.5 14 q-2.5 8 -1.5 15 l48 271 l-173 0 l-78 -443 q0 -2 1.5 -4 q1.5 -2 3.5 -2 l594 0 q8 0 15 -3.5 q7 -3.5 12 -9.5 q5 -6 7.5 -13 q2.5 -7 1.5 -15 q-2 -7 -7 -14.5 q-5 -7.5 -12 -13.5 q-7 -6 -15 -9.5 q-8 -3.5 -17 -3.5 l-644 0 q-7 0 -14.5 3.5 q-7.5 3.5 -13 9.5 q-5.5 6 -7 14 q-1.5 8 -1.5 17 l87 487 l-102 0 q-8 0 -14.5 3.5 q-6.5 3.5 -11.5 9.5 q-5 6 -7.5 13 q-2.5 7 -1.5 15 ZM647 512 l-40 -229 q0 -3 1.5 -5 q1.5 -2 3.5 -2 l168 0 q3 0 5.5 2 q2.5 2 2.5 5 l41 229 l-182 0 Z" /><glyph glyph-name="" unicode="&#x4e1a;" d="M80 11 q2 8 7 15 q5 7 11.5 13.5 q6.5 6.5 15.5 9.5 q9 3 17 3 l234 0 l0 10 l128 725 q2 8 6.5 15.5 q4.5 7.5 12 14 q7.5 6.5 15 10 q7.5 3.5 15.5 3.5 l2 0 q8 0 15 -3.5 q7 -3.5 12 -10 q5 -6.5 7 -14 q2 -7.5 1 -15.5 l-128 -725 q-1 -5 -3 -10 l163 0 q0 3 1 5 l128 728 q1 9 6 16.5 q5 7.5 12.5 14 q7.5 6.5 15.5 10 q8 3.5 16 3.5 l2 0 q8 0 15 -3.5 q7 -3.5 11.5 -10 q4.5 -6.5 6.5 -14 q2 -7.5 1 -16.5 l-129 -728 q0 -2 -1 -5 l235 0 q8 0 15 -3 q7 -3 12 -9.5 q5 -6.5 7.5 -13.5 q2.5 -7 0.5 -15 q-1 -8 -6 -15.5 q-5 -7.5 -12 -13.5 q-7 -6 -15.5 -9.5 q-8.5 -3.5 -16.5 -3.5 l-800 0 q-8 0 -15.5 3.5 q-7.5 3.5 -12 9.5 q-4.5 6 -7 13.5 q-2.5 7.5 -1.5 15.5 ZM212 550 q-2 8 0.5 16.5 q2.5 8.5 7 16.5 q4.5 8 12 14 q7.5 6 15.5 9 q14 3 28 -4.5 q14 -7.5 18 -22.5 q9 -34 18.5 -70.5 q9.5 -36.5 18.5 -73 q9 -36.5 16.5 -70.5 q7.5 -34 11.5 -63 q0 -7 -2 -15 q-2 -8 -7 -15 q-5 -7 -11.5 -12.5 q-6.5 -5.5 -12.5 -8.5 l-4 -1 q-9 -3 -18 -1.5 q-9 1.5 -16 5.5 q-7 4 -12 11 q-5 7 -5 16 q-4 28 -10.5 61.5 q-6.5 33.5 -13.5 68.5 q-7 35 -16 70.5 q-9 35.5 -18 68.5 ZM954 565 q5 9 12.5 16 q7.5 7 16.5 11 q9 4 18 4 q9 0 16 -3 q6 -3 9.5 -9 q3.5 -6 5.5 -13.5 q2 -7.5 0.5 -15.5 q-1.5 -8 -5.5 -15 q-21 -34 -44 -70.5 q-23 -36.5 -47 -72.5 q-24 -36 -47.5 -69.5 q-23.5 -33.5 -46.5 -63.5 q-4 -7 -11.5 -12.5 q-7.5 -5.5 -16 -8 q-8.5 -2.5 -16 -3 q-7.5 -0.5 -13.5 2.5 q-6 4 -9.5 10.5 q-3.5 6.5 -4 15 q-0.5 8.5 2 17 q2.5 8.5 6.5 15.5 q22 29 44.5 61.5 q22.5 32.5 45.5 67 q23 34.5 44 69 q21 34.5 40 66.5 Z" /><glyph glyph-name="" unicode="&#x4e1c;" d="M326 335 q-13 -1 -26 1.5 q-13 2.5 -22 6.5 q-4 3 -8 5 q-1 1 -2 1 q-9 2 -15 7 q-6 5 -8 14 q-1 7 1.5 16 q2.5 9 8.5 18 q6 9 13.5 18 q7.5 9 14.5 16 q5 4 7 6 l6 6 q3 3 10 11 q7 8 21 25 q14 15 40.5 47 q26.5 32 58.5 75 l16 22 l-192 0 q-7 0 -14.5 3.5 q-7.5 3.5 -12.5 9.5 q-5 6 -7.5 13 q-2.5 7 -0.5 15 q1 7 5.5 14.5 q4.5 7.5 12 13 q7.5 5.5 16 8.5 q8.5 3 16.5 3 l234 0 q33 48 63 99 q5 7 12.5 13 q7.5 6 16 9 q8.5 3 17 3.5 q8.5 0.5 15.5 -2.5 l9 -3 q7 -3 11.5 -9.5 q4.5 -6.5 6.5 -14.5 q2 -8 0 -16.5 q-2 -8.5 -8 -16.5 q-20 -31 -41 -62 l421 0 q8 0 15 -3 q7 -3 12 -8.5 q5 -5.5 7.5 -13 q2.5 -7.5 1.5 -14.5 q-2 -8 -6.5 -15 q-4.5 -7 -12 -13 q-7.5 -6 -15.5 -9.5 q-8 -3.5 -17 -3.5 l-463 0 q-27 -36 -54 -70 q-39 -51 -79 -97 q-20 -23 -40 -45 l226 0 l18 99 q1 9 6 16.5 q5 7.5 12.5 14 q7.5 6.5 15 10 q7.5 3.5 15.5 3.5 l2 0 q8 0 15 -3.5 q7 -3.5 12 -9.5 q5 -6 6.5 -14 q1.5 -8 0.5 -16 l-18 -100 l245 0 q8 0 15 -3.5 q7 -3.5 12.5 -9.5 q5.5 -6 7.5 -13 q2 -7 1 -15 q-1 -8 -6 -15 q-5 -7 -12 -13 q-7 -6 -16 -9 q-9 -3 -16 -3 l-245 0 l-54 -308 q-6 -36 -19 -56 q-13 -20 -40 -30 q-22 -9 -52.5 -12 q-30.5 -3 -71.5 -4 q-14 -1 -25.5 8.5 q-11.5 9.5 -13.5 21.5 q-3 22 12 38.5 q15 16.5 39 16.5 q23 0 36.5 -0.5 q13.5 -0.5 26.5 0.5 q12 1 16.5 4.5 q4.5 3.5 6.5 14.5 l54 306 l-219 0 q-13 0 -22.5 -0.5 q-9.5 -0.5 -15.5 -1.5 ZM296 226 q9 13 26.5 21 q17.5 8 30.5 5 l1 -1 q8 -3 14 -9 q6 -6 8 -14 q2 -8 0 -17 q-2 -9 -7 -17 q-40 -58 -88 -111.5 q-48 -53.5 -97 -95.5 q-6 -6 -13.5 -9 q-7.5 -3 -15.5 -4 q-8 -1 -15 0.5 q-7 1.5 -12 6.5 q-14 13 -10 34 q4 21 22 38 q43 36 83 80.5 q40 44.5 73 92.5 ZM753 186 q-4 8 -5 17 q-1 9 1.5 18 q2.5 9 9 16.5 q6.5 7.5 15.5 11.5 q11 5 24.5 2 q13.5 -3 19.5 -11 q19 -23 37.5 -47.5 q18.5 -24.5 35.5 -49.5 q17 -25 32 -49 q15 -24 26 -45 q4 -7 3.5 -15.5 q-0.5 -8.5 -4 -16.5 q-3.5 -8 -9 -14.5 q-5.5 -6.5 -13.5 -10.5 l-2 -1 q-7 -4 -16 -4 q-9 0 -16.5 2.5 q-7.5 2.5 -14 7.5 q-6.5 5 -9.5 12 q-10 20 -22.5 42 q-12.5 22 -28 45 q-15.5 23 -31.5 46 q-16 23 -33 44 Z" /><glyph glyph-name="" unicode="&#x4e1d;" d="M672 417 q-11 -1 -21.5 1.5 q-10.5 2.5 -17.5 6.5 q-4 2 -6 4 q-2 1 -3 1 q-16 3 -19 18 q-1 7 1.5 15 q2.5 8 8.5 17.5 q6 9.5 13 18.5 q7 9 15 17 q2 2 3 2.5 q1 0.5 3 2.5 q2 2 7 7.5 q5 5.5 16 18.5 q10 11 30 36 q20 25 45 58.5 q25 33.5 53 73.5 q28 40 53 82 q4 7 11.5 13.5 q7.5 6.5 16 11 q8.5 4.5 17.5 5 q9 0.5 15 -2.5 q8 -3 12 -9.5 q4 -6.5 5.5 -14 q1.5 -7.5 0 -16 q-1.5 -8.5 -6.5 -16.5 q-59 -87 -123 -168 q-44 -57 -88 -105 l115 5 q12 0 20 -4 q7 -3 11 -7 q9 10 18 21 q46 51 88 105 q6 7 13 12 q7 5 16 8 q9 3 17.5 2.5 q8.5 -0.5 14.5 -4.5 q6 -3 9.5 -10.5 q3.5 -7.5 4 -15.5 q0.5 -8 -2 -16.5 q-2.5 -8.5 -8.5 -15.5 q-93 -111 -193 -209 q-69 -69 -137 -127 l232 11 q9 0 17.5 -3 q8.5 -3 14 -9 q5.5 -6 8 -13 q2.5 -7 0.5 -16 q-3 -12 -17.5 -22.5 q-14.5 -10.5 -30.5 -12.5 q-64 -3 -111.5 -5.5 q-47.5 -2.5 -81.5 -5 q-34 -2.5 -57 -4 q-23 -1.5 -39 -3.5 q-10 -1 -20 1 q-10 2 -18 7 q-1 1 -3 2 q-3 0 -6 1 q-15 3 -18 18 q-1 7 2 15.5 q3 8.5 9 17 q6 8.5 14 17 q8 8.5 16 14.5 l9 6 q3 2 7.5 6 q4.5 4 13.5 11.5 q9 7.5 26 23.5 q17 14 50 45 q33 31 74 74 l12 12 q-50 -3 -79 -5 q-33 -3 -51 -5 ZM258 412 q-11 -1 -21.5 1 q-10.5 2 -17.5 7 q-4 2 -7 6 l-2 0 q-16 2 -19 18 q-1 7 2 15 q3 8 8.5 17 q5.5 9 12.5 18 q7 9 13 16 q3 4 4 4 q1 0 3 2 q2 2 6.5 7.5 q4.5 5.5 16.5 19.5 q10 11 30 36 q20 25 44.5 59.5 q24.5 34.5 51.5 75 q27 40.5 52 82.5 q4 8 11.5 14.5 q7.5 6.5 16 10.5 q8.5 4 17.5 4.5 q9 0.5 16 -2.5 q7 -2 11 -8.5 q4 -6.5 5.5 -14 q1.5 -7.5 0.5 -16 q-1 -8.5 -6 -15.5 q-58 -89 -121 -172 q-45 -59 -89 -108 l117 5 q12 0 21 -3 q1 -1 3 -1 q9 11 19 23 q45 52 85 107 q5 7 13 12.5 q8 5.5 16.5 8 q8.5 2.5 17 2.5 q8.5 0 14.5 -3 q7 -4 10.5 -11 q3.5 -7 4 -15 q0.5 -8 -2 -16.5 q-2.5 -8.5 -7.5 -15.5 q-91 -112 -188 -214 q-69 -73 -136 -133 l203 11 q10 0 18 -3 q8 -3 13.5 -8.5 q5.5 -5.5 8 -12.5 q2.5 -7 0.5 -15 q-3 -13 -18.5 -24 q-15.5 -11 -31.5 -12 q-56 -4 -97 -7 q-41 -3 -71.5 -5.5 q-30.5 -2.5 -50.5 -4 q-20 -1.5 -35 -3.5 q-11 -1 -20.5 1 q-9.5 2 -17.5 7 q-3 2 -5 4 l-4 0 q-16 4 -18 19 q-1 7 2 15 q3 8 9 16.5 q6 8.5 13.5 16.5 q7.5 8 15.5 16 l9 6 q3 2 7.5 6 q4.5 4 13 11.5 q8.5 7.5 24.5 23.5 q17 15 49 47 q32 32 72 76 q2 3 4 5 q-42 -3 -68 -4 q-33 -3 -51 -5 ZM73 14 q1 7 6 14 q5 7 12 13 q7 6 15.5 9 q8.5 3 15.5 3 l812 0 q8 0 15 -3 q7 -3 12.5 -9 q5.5 -6 8 -13 q2.5 -7 0.5 -14 q-1 -8 -6 -15 q-5 -7 -12 -12.5 q-7 -5.5 -15 -8.5 q-8 -3 -16 -3 l-812 0 q-8 0 -15 3 q-7 3 -12.5 8.5 q-5.5 5.5 -7.5 12.5 q-2 7 -1 15 Z" /><glyph glyph-name="" unicode="&#x4e22;" d="M256 550 q2 8 7 15 q5 7 12 12.5 q7 5.5 15.5 9 q8.5 3.5 16.5 3.5 l273 0 l21 117 q-60 -4 -122 -8 q-87 -5 -167 -7 q-16 -1 -27.5 8.5 q-11.5 9.5 -13.5 21.5 q-2 18 14 32.5 q16 14.5 39 15.5 q84 3 171 8.5 q87 5.5 170 13.5 q83 8 158.5 17.5 q75.5 9.5 133.5 22.5 q10 2 20.5 -2 q10.5 -4 14.5 -11 l6 -7 q7 -9 7 -18.5 q0 -9.5 -4 -18.5 q-4 -9 -12.5 -15 q-8.5 -6 -20.5 -8 q-70 -13 -150 -23 q-64 -8 -131 -14 l0 -8 l-21 -117 l276 0 q8 0 15 -3.5 q7 -3.5 12 -9 q5 -5.5 7.5 -12.5 q2.5 -7 1.5 -15 q-2 -7 -6.5 -14.5 q-4.5 -7.5 -12 -13 q-7.5 -5.5 -15.5 -9 q-8 -3.5 -17 -3.5 l-275 0 l-21 -116 q0 -5 -2 -9 l358 0 q8 0 14.5 -3.5 q6.5 -3.5 12 -9 q5.5 -5.5 8 -12.5 q2.5 -7 1.5 -15 q-2 -7 -6.5 -14 q-4.5 -7 -12 -12.5 q-7.5 -5.5 -15.5 -9 q-8 -3.5 -16 -3.5 l-466 0 q4 -3 6 -6 q5 -8 5.5 -17 q0.5 -9 -3.5 -18 q-4 -9 -12 -17 q-68 -69 -136 -131 q-33 -30 -66 -57 l471 32 q-9 17 -18 33 q-17 29 -36 55 q-4 8 -4.5 18 q-0.5 10 3 19.5 q3.5 9.5 11 16.5 q7.5 7 17.5 11 l1 1 q10 4 23.5 0.5 q13.5 -3.5 18.5 -11.5 q20 -28 39.5 -58 q19.5 -30 37.5 -61 q18 -31 33 -61 q15 -30 25 -57 q4 -7 2.5 -15.5 q-1.5 -8.5 -5.5 -16.5 q-4 -8 -11 -14.5 q-7 -6.5 -15 -9.5 l-4 -2 q-8 -4 -17 -3.5 q-9 0.5 -16.5 4 q-7.5 3.5 -13.5 9 q-6 5.5 -9 12.5 q-8 24 -21 51 q-5 9 -9 17 q-5 -4 -12 -7 q-9 -4 -19 -5 q-139 -11 -235.5 -18.5 q-96.5 -7.5 -160.5 -12.5 q-64 -5 -102.5 -8.5 q-38.5 -3.5 -60.5 -7.5 q-11 -1 -21 1 q-10 2 -17 6 q-5 3 -9 8 q-6 2 -10 6 q-7 5 -8 13 q-1 7 2.5 15.5 q3.5 8.5 9.5 16.5 q6 8 14.5 15.5 q8.5 7.5 17.5 13.5 q4 2 5 3 l3 3 q1 1 6.5 6 q5.5 5 18.5 15 q13 9 36.5 29 q23.5 20 53 47.5 q29.5 27.5 62.5 60.5 q33 33 62 68 q4 4 10 8 l-276 0 q-8 0 -15 3.5 q-7 3.5 -12 9 q-5 5.5 -7.5 12.5 q-2.5 7 -1.5 14 q2 8 6.5 15 q4.5 7 11.5 12.5 q7 5.5 15.5 9 q8.5 3.5 16.5 3.5 l357 0 q0 4 1 9 l20 116 l-274 0 q-7 0 -14.5 3.5 q-7.5 3.5 -12.5 9 q-5 5.5 -7.5 13 q-2.5 7.5 -1.5 14.5 Z" /><glyph glyph-name="" unicode="&#x4e24;" d="M209 733 q1 8 5.5 15 q4.5 7 12 13 q7.5 6 16 9 q8.5 3 15.5 3 l798 0 q8 0 15 -3 q7 -3 12 -9 q5 -6 7.5 -13 q2.5 -7 1.5 -15 q-2 -8 -6.5 -15 q-4.5 -7 -12 -12.5 q-7.5 -5.5 -15.5 -9.5 q-8 -4 -16 -4 l-237 0 q2 -8 0 -16 l-20 -115 l196 0 q7 0 14 -3 q2 -2 5 -3 l6 -6 q5 -5 7.5 -12 q2.5 -7 0.5 -15 l0 -4 l-88 -497 q-7 -37 -21 -58 q-14 -21 -43 -32 q-24 -7 -62 -10 q-38 -3 -92 -3 q-13 -1 -24.5 8.5 q-11.5 9.5 -13.5 20.5 q-2 22 13.5 37.5 q15.5 15.5 39.5 15.5 q34 -1 55 -1 q21 0 36 1 q14 0 20 5 q6 5 8 17 l82 460 l-154 0 q-5 -23 -11 -47 q-7 -26 -15 -52 q6 -3 10 -9 q15 -20 29 -43 q14 -23 27 -45.5 q13 -22.5 24 -43.5 q11 -21 20 -39 q4 -9 1.5 -23 q-2.5 -14 -9.5 -21 q-7 -9 -17 -12.5 q-10 -3.5 -19.5 -3 q-9.5 0.5 -17.5 5.5 q-8 5 -13 14 q-8 17 -18 37 q-10 20 -21.5 41 q-11.5 21 -23.5 42 q-4 5 -7 11 q-21 -45 -48 -90 q-37 -59 -90 -111 q-6 -8 -15 -12 q-9 -4 -17.5 -5 q-8.5 -1 -16 1.5 q-7.5 2.5 -11.5 7.5 q-10 12 -5 33 q5 21 19 37 q45 46 75 95 q30 49 49.5 98.5 q19.5 49.5 30.5 97.5 q4 19 8 36 l-173 0 q-5 -23 -11 -47 q-6 -26 -15 -53 q5 -2 8 -7 q18 -27 33 -56 q15 -29 25 -52 q5 -8 2.5 -21.5 q-2.5 -13.5 -10.5 -20.5 q-7 -9 -16.5 -13 q-9.5 -4 -19 -3.5 q-9.5 0.5 -18 5.5 q-8.5 5 -14.5 14 q-9 21 -21 46 l-6 14 q-20 -42 -46 -84 q-36 -59 -89 -111 q-7 -8 -16 -12 q-9 -4 -17 -5 q-8 -1 -15.5 1.5 q-7.5 2.5 -11.5 7.5 q-10 12 -5 33 q5 21 18 37 q46 46 75.5 95 q29.5 49 49 98.5 q19.5 49.5 31.5 97.5 q4 19 8 36 l-140 0 q-2 0 -4.5 -2 q-2.5 -2 -2.5 -4 l-91 -515 q-2 -9 -6.5 -16.5 q-4.5 -7.5 -11.5 -13.5 q-7 -6 -15 -10 q-8 -4 -16 -4 l-1 0 q-8 0 -14.5 4 q-6.5 4 -11.5 10 q-5 6 -7 13.5 q-2 7.5 0 16.5 l98 557 q1 8 6 16 q5 8 12 14 q7 6 15.5 9.5 q8.5 3.5 16.5 3.5 l188 0 l20 115 q1 8 6 16 l-231 0 q-8 0 -15 4 q-7 4 -12 9.5 q-5 5.5 -7.5 12.5 q-2.5 7 -0.5 15 ZM723 676 q2 8 6 16 l-179 0 q2 -8 1 -16 l-20 -115 l172 0 l20 115 Z" /><glyph glyph-name="" unicode="&#x4e25;" d="M255 751 q1 7 6 13.5 q5 6.5 12 11.5 q7 5 15.5 8.5 q8.5 3.5 16.5 3.5 l717 0 q8 0 15.5 -3.5 q7.5 -3.5 12.5 -8.5 q5 -5 7.5 -11.5 q2.5 -6.5 1.5 -13.5 q-1 -8 -6 -14.5 q-5 -6.5 -12 -11.5 q-7 -5 -15.5 -8 q-8.5 -3 -16.5 -3 l-219 0 l-43 -242 q-1 -6 -3 -12 l250 0 q17 0 28.5 -11.5 q11.5 -11.5 9.5 -25.5 q-1 -7 -6 -13.5 q-5 -6.5 -12 -12 q-7 -5.5 -15.5 -9 q-8.5 -3.5 -17.5 -3.5 l-700 0 l-16 -87 q-6 -36 -16.5 -78.5 q-10.5 -42.5 -26 -86 q-15.5 -43.5 -37.5 -87 q-22 -43.5 -53 -82.5 q-5 -9 -14 -14.5 q-9 -5.5 -17.5 -7 q-8.5 -1.5 -17 0.5 q-8.5 2 -14.5 8 q-10 10 -8.5 29.5 q1.5 19.5 11.5 35.5 q27 33 45 68.5 q18 35.5 30 70.5 q12 35 20.5 71.5 q8.5 36.5 14.5 72.5 l21 118 q2 8 6.5 15.5 q4.5 7.5 12 14 q7.5 6.5 15.5 10 q8 3.5 16 3.5 q7 0 13 -3 q8 3 17 3 l174 0 q-1 6 0 13 l42 241 l-207 0 q-8 0 -15.5 3 q-7.5 3 -12.5 8 q-5 5 -7.5 11.5 q-2.5 6.5 -1.5 14.5 ZM664 460 q-1 6 0 12 l43 242 l-126 0 l-42 -241 q-1 -7 -4 -13 l129 0 ZM897 647 q4 8 11 14.5 q7 6.5 16 11 q9 4.5 17 6 q8 1.5 16 -0.5 q8 -3 13 -9.5 q5 -6.5 6.5 -15 q1.5 -8.5 0 -17.5 q-1.5 -9 -7.5 -17 q-22 -29 -46 -60 q-24 -31 -45 -55 q-9 -10 -23.5 -16 q-14.5 -6 -23.5 -2 q-8 3 -12 9 q-4 6 -5.5 14.5 q-1.5 8.5 0.5 17.5 q2 9 7 18 q19 22 39.5 49.5 q20.5 27.5 36.5 52.5 ZM294 618 q-2 9 -0.5 18 q1.5 9 5.5 17.5 q4 8.5 11 15 q7 6.5 15 8.5 q13 4 26 -2 q13 -6 16 -18 q14 -27 24.5 -58 q10.5 -31 15.5 -57 q2 -14 -7.5 -28.5 q-9.5 -14.5 -22.5 -19.5 q-10 -2 -18 -1 q-8 1 -15 6 q-7 5 -12 12.5 q-5 7.5 -6 16.5 q-4 20 -12 44 q-8 24 -20 46 Z" /><glyph glyph-name="" unicode="&#x4e2a;" d="M646 811 q6 6 13 10 q7 4 15.5 6.5 q8.5 2.5 16 2.5 q7.5 0 13.5 -3 l1 0 q7 -3 10.5 -10.5 q3.5 -7.5 4.5 -15.5 q1 -8 -1.5 -17 q-2.5 -9 -8.5 -16 l-4 -4 q1 -1 1 -2 q63 -94 140 -162.5 q77 -68.5 169 -122.5 q20 -11 21 -31 q1 -20 -15 -38 q-5 -7 -13 -11 q-8 -4 -16.5 -6 q-8.5 -2 -16.5 -1.5 q-8 0.5 -15 4.5 q-93 57 -173 132 q-76 71 -142 171 q-21 -20 -42 -41 q-57 -54 -120 -101.5 q-63 -47.5 -130 -88.5 q-67 -41 -135 -73 q-7 -3 -15 -3.5 q-8 -0.5 -15 1.5 q-7 2 -13 6.5 q-6 4.5 -10 9.5 l-1 3 q-11 18 -2 38 q9 20 32 30 q63 29 125.5 65.5 q62.5 36.5 120.5 79 q58 42.5 110 90.5 q52 48 95 98 ZM564 499 q1 8 6 15.5 q5 7.5 12 13.5 q7 6 15 10 q8 4 16 4 l4 0 q8 0 14.5 -4 q6.5 -4 11.5 -10 q5 -6 7 -13.5 q2 -7.5 1 -15.5 l-95 -538 q-2 -7 -6.5 -15 q-4.5 -8 -11.5 -14 q-7 -6 -15 -9.5 q-8 -3.5 -15 -3.5 l-5 0 q-8 0 -15 3.5 q-7 3.5 -11.5 9.5 q-4.5 6 -7 14 q-2.5 8 -0.5 15 l95 538 Z" /><glyph glyph-name="" unicode="&#x4e2d;" d="M224 622 q2 8 7 15.5 q5 7.5 12 13.5 q7 6 16 9.5 q9 3.5 16 3.5 l315 0 l24 135 q2 8 7 16 q5 8 12 14 q7 6 15 9.5 q8 3.5 16 3.5 l5 0 q8 0 14.5 -3.5 q6.5 -3.5 11.5 -9.5 q5 -6 7 -14 q2 -8 0 -16 l-24 -135 l321 0 q8 0 15 -3.5 q7 -3.5 12 -9.5 q5 -6 7.5 -13.5 q2.5 -7.5 0.5 -15.5 l-69 -392 q-2 -8 -6.5 -15.5 q-4.5 -7.5 -11.5 -13.5 q-7 -6 -14.5 -10 q-7.5 -4 -15.5 -4 l-5 0 q-7 0 -14 4 q-7 4 -12 10 q-5 6 -7 14 q-2 8 0 16 l2 13 l-277 0 l-49 -281 q-2 -9 -6.5 -16.5 q-4.5 -7.5 -12 -13.5 q-7.5 -6 -15 -10 q-7.5 -4 -16.5 -4 l-4 0 q-8 0 -14.5 4 q-6.5 4 -11.5 10 q-5 6 -7.5 13.5 q-2.5 7.5 -0.5 16.5 l49 281 l-275 0 l-3 -18 q-2 -8 -6.5 -16 q-4.5 -8 -11.5 -14 q-7 -6 -14.5 -10 q-7.5 -4 -15.5 -4 l-1 0 q-8 0 -15 4 q-7 4 -12 10 q-5 6 -7 13.5 q-2 7.5 0 15.5 l69 397 ZM664 582 l-45 -256 l276 0 l44 250 q1 2 -1 4 q-2 2 -4 2 l-270 0 ZM531 326 l45 256 l-269 0 q-2 0 -4.5 -2 q-2.5 -2 -2.5 -4 l-44 -250 l275 0 Z" /><glyph glyph-name="" unicode="&#x4e30;" d="M235 433 q1 8 6 15 q5 7 12 13 q7 6 15.5 9.5 q8.5 3.5 16.5 3.5 l273 0 l25 139 l-323 0 q-8 0 -15.5 3.5 q-7.5 3.5 -12.5 9.5 q-5 6 -7.5 13.5 q-2.5 7.5 -1.5 15.5 q2 8 7 15.5 q5 7.5 12.5 13.5 q7.5 6 15.5 9 q8 3 17 3 l322 0 l18 103 q2 9 7 16.5 q5 7.5 12 13.5 q7 6 15 10 q8 4 16 4 l7 0 q7 0 14 -4 q7 -4 11.5 -10 q4.5 -6 7 -13.5 q2.5 -7.5 0.5 -16.5 l-19 -103 l323 0 q9 0 16 -3 q7 -3 12 -9 q5 -6 7.5 -13.5 q2.5 -7.5 0.5 -15.5 q-1 -8 -6 -15.5 q-5 -7.5 -12 -13.5 q-7 -6 -15.5 -9.5 q-8.5 -3.5 -16.5 -3.5 l-323 0 l-25 -139 l277 0 q8 0 15.5 -3.5 q7.5 -3.5 13 -9.5 q5.5 -6 7.5 -13 q2 -7 1 -15 q-1 -7 -6.5 -14.5 q-5.5 -7.5 -12.5 -13 q-7 -5.5 -15.5 -9 q-8.5 -3.5 -16.5 -3.5 l-277 0 l-27 -152 l364 0 q8 0 14.5 -3.5 q6.5 -3.5 11.5 -10 q5 -6.5 7.5 -13.5 q2.5 -7 0.5 -15 l0 -1 q-1 -8 -6 -15 q-5 -7 -12 -13 q-7 -6 -15.5 -10 q-8.5 -4 -15.5 -4 l-364 0 l-34 -193 q-1 -8 -6 -15.5 q-5 -7.5 -11.5 -14 q-6.5 -6.5 -15 -10 q-8.5 -3.5 -16.5 -3.5 l-7 0 q-7 0 -13.5 3.5 q-6.5 3.5 -11.5 10 q-5 6.5 -7 14 q-2 7.5 -1 15.5 l34 193 l-360 0 q-8 0 -15 4 q-7 4 -12 10 q-5 6 -7 13 q-2 7 -1 15 l0 1 q2 8 6.5 15 q4.5 7 11.5 13.5 q7 6.5 15.5 10 q8.5 3.5 16.5 3.5 l360 0 l27 152 l-272 0 q-9 0 -16.5 3.5 q-7.5 3.5 -12.5 9 q-5 5.5 -7 13 q-2 7.5 -1 14.5 Z" /><glyph glyph-name="" unicode="&#x4e32;" d="M613 799 q1 8 6 15.5 q5 7.5 12 14 q7 6.5 15.5 10 q8.5 3.5 16.5 3.5 l6 0 q8 0 14.5 -3.5 q6.5 -3.5 11.5 -10 q5 -6.5 7 -14 q2 -7.5 1 -15.5 l-13 -72 l273 0 q9 0 16 -3.5 q7 -3.5 12 -9.5 q5 -6 7.5 -14 q2.5 -8 0.5 -15 l-34 -193 q-1 -8 -6 -15.5 q-5 -7.5 -12 -13.5 q-7 -6 -15.5 -9.5 q-8.5 -3.5 -17.5 -3.5 l-273 0 l-14 -79 l318 0 q8 0 15.5 -4 q7.5 -4 12.5 -10 q5 -6 7 -13.5 q2 -7.5 1 -16.5 l-43 -242 q-1 -8 -5.5 -16 q-4.5 -8 -12 -14 q-7.5 -6 -15 -9.5 q-7.5 -3.5 -16.5 -3.5 l-7 0 q-8 0 -14.5 3.5 q-6.5 3.5 -11.5 9.5 q-5 6 -7 14 q-2 7 -1 13 l-272 0 l-21 -120 q-1 -8 -6 -15.5 q-5 -7.5 -12 -14 q-7 -6.5 -15 -10 q-8 -3.5 -16 -3.5 l-7 0 q-7 0 -14 3.5 q-7 3.5 -12 10 q-5 6.5 -7 14 q-2 7.5 -1 15.5 l22 120 l-254 0 q-5 0 -10 1 q-2 -8 -6 -15 q-5 -8 -11.5 -14.5 q-6.5 -6.5 -14.5 -10 q-8 -3.5 -16 -3.5 l-4 0 q-8 0 -15 3.5 q-7 3.5 -12 10 q-5 6.5 -7 14.5 q-2 8 0 16 l43 243 q1 9 6 16.5 q5 7.5 12.5 13.5 q7.5 6 16 10 q8.5 4 16.5 4 l306 0 l14 79 l-266 0 q-8 0 -15.5 3.5 q-7.5 3.5 -12.5 9.5 q-5 6 -7.5 13.5 q-2.5 7.5 -0.5 15.5 l34 193 q1 7 6 15 q5 8 12.5 14 q7.5 6 16 9.5 q8.5 3.5 16.5 3.5 l266 0 l13 72 ZM613 293 l-23 -136 l264 0 q4 0 7 -1 l23 131 q0 2 -1.5 4 q-1.5 2 -3.5 2 l-266 0 ZM500 157 l24 136 l-258 0 q-2 0 -4.5 -2 q-2.5 -2 -2.5 -4 l-23 -131 q5 1 9 1 l255 0 ZM677 652 l-23 -129 l220 0 q3 0 5.5 2 q2.5 2 2.5 4 l20 117 q1 2 -1 4 q-2 2 -4 2 l-220 0 ZM369 652 q-3 0 -5 -2 q-2 -2 -3 -4 l-20 -117 q0 -2 1.5 -4 q1.5 -2 3.5 -2 l218 0 l23 129 l-218 0 Z" /><glyph glyph-name="" unicode="&#x4e34;" d="M505 336 q2 8 6.5 15.5 q4.5 7.5 12 13.5 q7.5 6 16.5 9.5 q9 3.5 17 3.5 l413 0 q9 0 16 -3.5 q7 -3.5 12 -9.5 q5 -6 7.5 -13.5 q2.5 -7.5 1.5 -15.5 l-65 -370 q-2 -8 -7 -15.5 q-5 -7.5 -12 -13.5 q-7 -6 -15 -10 q-8 -4 -16 -4 l-1 0 q-7 0 -14.5 4 q-7.5 4 -12 10 q-4.5 6 -7 13.5 q-2.5 7.5 -0.5 16.5 l1 4 l-336 0 l-1 -9 q-2 -8 -7 -15.5 q-5 -7.5 -11.5 -14 q-6.5 -6.5 -14 -10 q-7.5 -3.5 -15.5 -3.5 q-8 0 -15 3.5 q-7 3.5 -11.5 10 q-4.5 6.5 -7 13.5 q-2.5 7 -0.5 16 l66 374 ZM407 787 q2 8 6.5 15.5 q4.5 7.5 12 13.5 q7.5 6 15.5 10 q8 4 15.5 4 q7.5 0 14.5 -4 q7 -4 11.5 -10 q4.5 -6 6.5 -13.5 q2 -7.5 0 -15.5 l-144 -818 q-1 -8 -6 -15.5 q-5 -7.5 -12 -13.5 q-7 -6 -14.5 -9.5 q-7.5 -3.5 -15.5 -3.5 q-8 0 -14.5 3.5 q-6.5 3.5 -12 9.5 q-5.5 6 -7 13.5 q-1.5 7.5 -0.5 15.5 l144 818 ZM676 806 q4 8 10.5 14.5 q6.5 6.5 14 11 q7.5 4.5 16 6.5 q8.5 2 15.5 1 q8 -2 14 -7 q6 -5 9 -12 q3 -7 3 -16 q0 -9 -4 -17 q-14 -30 -30 -60 l334 0 q8 0 15 -3.5 q7 -3.5 12.5 -9.5 q5.5 -6 7.5 -13 q2 -7 1 -15 q-1 -7 -6 -14.5 q-5 -7.5 -12 -13 q-7 -5.5 -15.5 -9 q-8.5 -3.5 -16.5 -3.5 l-355 0 q-6 0 -11 1 l-18 -28 q-53 -79 -109 -139 q-6 -7 -13.5 -11 q-7.5 -4 -16 -5.5 q-8.5 -1.5 -16 -0.5 q-7.5 1 -12.5 4 q-14 11 -12 31.5 q2 20.5 17 38.5 q52 55 97 124 q45 69 81 145 ZM220 680 q2 8 6.5 15.5 q4.5 7.5 11.5 14 q7 6.5 14.5 10 q7.5 3.5 15.5 3.5 q7 0 13.5 -3.5 q6.5 -3.5 11 -10 q4.5 -6.5 6.5 -14 q2 -7.5 0 -15.5 l-104 -591 q-2 -7 -6.5 -15 q-4.5 -8 -11 -14 q-6.5 -6 -14 -9.5 q-7.5 -3.5 -14.5 -3.5 q-8 0 -14.5 3.5 q-6.5 3.5 -11 9.5 q-4.5 6 -6.5 14 q-2 8 0 15 l103 591 ZM709 287 q0 5 3 11 l-125 0 q-3 0 -5 -1.5 q-2 -1.5 -3 -4.5 l-43 -243 l133 0 q-1 6 0 13 l40 225 ZM742 49 l129 0 l43 244 q1 2 -1 3.5 q-2 1.5 -4 1.5 l-123 0 q1 -6 0 -11 l-40 -225 q-1 -7 -4 -13 ZM735 533 q-5 7 -8 15 q-3 8 -2.5 17 q0.5 9 4.5 17 q4 8 11 14 q10 7 25.5 7.5 q15.5 0.5 23.5 -7.5 q27 -23 52.5 -49.5 q25.5 -26.5 44.5 -48.5 q5 -4 7 -11.5 q2 -7.5 1 -15.5 q-1 -8 -4.5 -16 q-3.5 -8 -8.5 -14 q-7 -5 -15.5 -8 q-8.5 -3 -17.5 -3 q-9 0 -16.5 3 q-7.5 3 -13.5 9 q-16 20 -38 44.5 q-22 24.5 -45 46.5 Z" /><glyph glyph-name="" unicode="&#x4e3a;" d="M199 562 q2 8 7 15 q5 7 12 13 q7 6 15.5 9.5 q8.5 3.5 16.5 3.5 l278 0 q15 60 24 115 l14 79 q2 8 7 16 q5 8 12 14 q7 6 15 9.5 q8 3.5 15 3.5 l2 0 q8 0 15 -3.5 q7 -3.5 12 -9.5 q5 -6 7 -14 q2 -8 0 -16 l-14 -79 q-9 -54 -24 -115 l373 0 q9 0 15.5 -3.5 q6.5 -3.5 12.5 -9.5 q6 -6 8 -13 q2 -7 0 -15 l0 -2 q-1 -5 -3 -10 q-31 -144 -54 -245 q-24 -103 -43.5 -171 q-19.5 -68 -36.5 -105.5 q-17 -37.5 -35 -55.5 q-23 -22 -44.5 -31 q-21.5 -9 -49.5 -12 q-21 -2 -53 -2 q-32 0 -68 2 q-16 0 -27 10.5 q-11 10.5 -13 22.5 q-2 22 14 37.5 q16 15.5 42 14.5 q14 -1 25 -2 q11 -1 21 -1 l38 0 q15 -1 25 2 q10 3 21 13 q14 12 29 47.5 q15 35.5 34 101.5 q19 66 42 167 q18 76 39 176 l-333 0 q-25 -87 -71 -176 q-52 -101 -137 -200.5 q-85 -99.5 -218 -185.5 q-6 -5 -15 -7 q-9 -2 -17 -1 q-8 1 -14.5 3.5 q-6.5 2.5 -10.5 7.5 q-12 14 -6 35 q6 21 26 35 q120 80 196.5 168.5 q76.5 88.5 122.5 178.5 q36 72 58 142 l-271 0 q-8 0 -15.5 3 q-7.5 3 -12.5 9 q-5 6 -7 13.5 q-2 7.5 -1 15.5 l0 2 ZM601 325 q-3 8 -3.5 17.5 q-0.5 9.5 3 18 q3.5 8.5 10 16 q6.5 7.5 15.5 11.5 q11 5 25.5 0.5 q14.5 -4.5 20.5 -14.5 q22 -31 42 -65.5 q20 -34.5 33 -62.5 q2 -7 1 -14.5 q-1 -7.5 -4.5 -15 q-3.5 -7.5 -9.5 -14 q-6 -6.5 -12 -10.5 q-8 -3 -17 -3 q-9 0 -17 3 q-8 3 -14.5 9 q-6.5 6 -9.5 13 q-10 25 -27 55 q-17 30 -36 56 ZM338 740 q-5 8 -4 17.5 q1 9.5 4 18.5 q3 9 9.5 16.5 q6.5 7.5 15.5 10.5 q12 5 26 1 q14 -4 19 -14 q15 -20 28.5 -43 q13.5 -23 23.5 -43 q3 -7 2 -15 q-1 -8 -4.5 -15.5 q-3.5 -7.5 -10 -14 q-6.5 -6.5 -13.5 -9.5 q-8 -4 -17 -3.5 q-9 0.5 -16.5 3.5 q-7.5 3 -14 9 q-6.5 6 -9.5 14 q-7 15 -17.5 33 q-10.5 18 -21.5 34 Z" /><glyph glyph-name="" unicode="&#x4e3b;" d="M228 603 q1 8 6 15.5 q5 7.5 12 13.5 q7 6 15.5 9 q8.5 3 16.5 3 l401 0 q-5 1 -9 3 q-8 4 -12 9 q-16 23 -40 50 q-24 27 -50 51 q-8 7 -10.5 16 q-2.5 9 -1 18.5 q1.5 9.5 7 18 q5.5 8.5 14.5 13.5 l3 2 q9 5 22.5 5 q13.5 0 21.5 -5 q30 -26 59 -56 q29 -30 51 -57 q5 -6 7 -14 q2 -8 -0.5 -16.5 q-2.5 -8.5 -7.5 -16 q-5 -7.5 -13 -12.5 l-5 -3 q-5 -4 -11 -6 l283 0 q8 0 15.5 -3 q7.5 -3 12.5 -9 q5 -6 7.5 -13.5 q2.5 -7.5 1.5 -15.5 q-2 -8 -7 -15 q-5 -7 -12 -13 q-7 -6 -15.5 -9.5 q-8.5 -3.5 -16.5 -3.5 l-321 0 q4 -6 6 -12 q2 -8 1 -16 l-32 -183 l266 0 q8 0 15.5 -3.5 q7.5 -3.5 12.5 -9.5 q5 -6 7.5 -13 q2.5 -7 0.5 -15 q-1 -7 -6 -14.5 q-5 -7.5 -12 -13 q-7 -5.5 -15.5 -9 q-8.5 -3.5 -16.5 -3.5 l-267 0 l-42 -236 l361 0 q8 0 15 -3.5 q7 -3.5 12 -9 q5 -5.5 7.5 -13 q2.5 -7.5 1.5 -15.5 q-2 -8 -7 -15 q-5 -7 -12 -13.5 q-7 -6.5 -15 -9.5 q-8 -3 -16 -3 l-808 0 q-8 0 -15 3 q-7 3 -12.5 9.5 q-5.5 6.5 -7.5 13.5 q-2 7 -1 15 q2 8 6.5 15.5 q4.5 7.5 12 13 q7.5 5.5 15.5 9 q8 3.5 16 3.5 l356 0 l42 236 l-262 0 q-8 0 -15.5 3.5 q-7.5 3.5 -13 9 q-5.5 5.5 -7.5 13 q-2 7.5 -1 14.5 q2 8 7 15 q5 7 12 13 q7 6 15.5 9.5 q8.5 3.5 15.5 3.5 l263 0 l33 183 q1 8 6 16 q4 6 10 12 l-322 0 q-7 0 -14 3.5 q-7 3.5 -12.5 9.5 q-5.5 6 -8 13 q-2.5 7 -0.5 15 Z" /><glyph glyph-name="" unicode="&#x4e3e;" d="M316 344 q1 8 6 14.5 q5 6.5 12.5 12.5 q7.5 6 15.5 9 q8 3 16 3 l180 0 l14 78 q1 7 6 15 q5 8 12 14 q7 6 15.5 9.5 q8.5 3.5 15.5 3.5 l1 0 q8 0 14.5 -3.5 q6.5 -3.5 11.5 -9.5 q5 -6 7 -14 q2 -8 1 -15 l-13 -78 l184 0 q8 0 15 -3 q7 -3 12.5 -9 q5.5 -6 7.5 -12.5 q2 -6.5 1 -14.5 q-1 -7 -6 -14 q-5 -7 -12 -12.5 q-7 -5.5 -15.5 -9 q-8.5 -3.5 -16.5 -3.5 l-184 0 l-21 -117 l333 0 q8 0 14.5 -3 q6.5 -3 12 -9 q5.5 -6 8 -13 q2.5 -7 0.5 -14 q-1 -8 -5.5 -14.5 q-4.5 -6.5 -12 -12 q-7.5 -5.5 -16 -9.5 q-8.5 -4 -16.5 -4 l-332 0 l-26 -149 q-1 -7 -6 -15 q-5 -8 -12 -14 q-7 -6 -15 -9.5 q-8 -3.5 -16 -3.5 l-1 0 q-8 0 -15 3.5 q-7 3.5 -12 9.5 q-5 6 -7 14 q-2 8 -1 15 l26 149 l-324 0 q-8 0 -15 4 q-7 4 -12 9.5 q-5 5.5 -7 12 q-2 6.5 -1 14.5 q1 7 6 14 q5 7 12 13 q7 6 15.5 9 q8.5 3 15.5 3 l324 0 l21 117 l-179 0 q-8 0 -15.5 3.5 q-7.5 3.5 -12.5 9 q-5 5.5 -7.5 12.5 q-2.5 7 -1.5 14 ZM182 609 q1 8 6 14.5 q5 6.5 11.5 12 q6.5 5.5 15 8.5 q8.5 3 16.5 3 l561 0 q-1 2 -1 5 q0 9 3.5 18.5 q3.5 9.5 10.5 17.5 q22 24 47.5 52.5 q25.5 28.5 45.5 54.5 q9 13 27 20.5 q18 7.5 30 2.5 l3 0 q9 -3 14 -10 q5 -7 6 -16 q1 -9 -1.5 -18 q-2.5 -9 -10.5 -17 q-27 -31 -57 -63 l-47 -47 l177 0 q8 0 15 -3 q7 -3 12.5 -8.5 q5.5 -5.5 7.5 -12 q2 -6.5 1 -14.5 q-1 -7 -6 -14 q-5 -7 -12 -12.5 q-7 -5.5 -15 -8.5 q-8 -3 -16 -3 l-190 0 q12 -23 28 -45 q19 -27 42 -51 q23 -24 49 -45 q26 -21 54 -36 q18 -13 20 -32.5 q2 -19.5 -13 -35.5 q-9 -11 -27 -14 q-18 -3 -29 5 q-31 19 -60.5 44 q-29.5 25 -55 54 q-25.5 29 -47.5 62 q-22 33 -37 67 q-4 8 -3 17 q0 5 1 10 l-270 0 q0 -7 -1 -13 q-3 -9 -10 -17 q-28 -36 -62 -70.5 q-34 -34.5 -71 -64 q-37 -29.5 -76.5 -55 q-39.5 -25.5 -78.5 -45.5 q-13 -7 -29 -4 q-16 3 -22 13 q-10 14 -0.5 34 q9.5 20 31.5 32 q36 16 70 37.5 q34 21.5 66 47 q32 25.5 61 54.5 q25 25 46 51 l-195 0 q-7 0 -14.5 3 q-7.5 3 -12.5 8.5 q-5 5.5 -7 12.5 q-2 7 -1 14 ZM336 744 q-4 8 -4 17.5 q0 9.5 3.5 19 q3.5 9.5 9.5 17 q6 7.5 16 11.5 q10 5 23.5 2 q13.5 -3 20.5 -12 q14 -21 28 -44.5 q14 -23.5 23 -44.5 q4 -6 3 -14 q-1 -8 -4.5 -15.5 q-3.5 -7.5 -9 -14 q-5.5 -6.5 -13.5 -10.5 q-8 -4 -16.5 -4 q-8.5 0 -17 3 q-8.5 3 -15 8.5 q-6.5 5.5 -10.5 13.5 q-6 15 -15.5 33 q-9.5 18 -21.5 34 ZM578 773 q-2 9 -2 18.5 q0 9.5 3.5 18.5 q3.5 9 9.5 16 q6 7 15 10 q11 5 24.5 0.5 q13.5 -4.5 19.5 -14.5 q12 -22 23 -46.5 q11 -24.5 17 -45.5 q3 -7 1.5 -14.5 q-1.5 -7.5 -4.5 -15 q-3 -7.5 -9.5 -13.5 q-6.5 -6 -13.5 -9 q-8 -3 -16.5 -2.5 q-8.5 0.5 -16.5 4 q-8 3.5 -13.5 10 q-5.5 6.5 -8.5 13.5 q-5 16 -12.5 34 q-7.5 18 -16.5 36 Z" /><glyph glyph-name="" unicode="&#x4e45;" d="M481 803 q3 7 10 13 q7 6 15 10.5 q8 4.5 16 6 q8 1.5 16 0.5 l7 -2 q8 -2 13.5 -8 q5.5 -6 8.5 -13.5 q3 -7.5 2 -16 q-1 -8.5 -5 -17.5 q-27 -48 -55 -94 l215 0 q8 0 16 -4 l1 0 q5 4 9 4 q2 0 4.5 0.5 q2.5 0.5 4.5 0.5 l3 1 q3 1 9 0.5 q6 -0.5 9 -2.5 l18 -9 q5 -3 9 -8.5 q4 -5.5 6 -12.5 q2 -7 1.5 -14 q-0.5 -7 -3.5 -13 q-55 -124 -125 -228 q4 -6 6 -13 q13 -57 35.5 -110 q22.5 -53 53.5 -100 q31 -47 70 -85.5 q39 -38.5 86 -66.5 q18 -12 18.5 -33 q0.5 -21 -15.5 -38 q-5 -6 -12.5 -10 q-7.5 -4 -15.5 -6 q-8 -2 -15.5 -1 q-7.5 1 -13.5 4 q-52 32 -96 75.5 q-44 43.5 -78.5 97 q-34.5 53.5 -59.5 115.5 q-16 40 -28 82 q-48 -61 -100 -114 q-84 -86 -178.5 -151 q-94.5 -65 -192.5 -111 q-7 -3 -15 -3.5 q-8 -0.5 -15.5 1.5 q-7.5 2 -13.5 6 q-6 4 -10 9 q-11 18 -3 39 q8 21 32 33 q94 44 182.5 105.5 q88.5 61.5 166.5 141 q78 79.5 144 177.5 q48 73 88 156 l-253 0 q-25 -35 -51 -68 q-88 -114 -187 -197 q-7 -6 -15 -8.5 q-8 -2.5 -16.5 -2.5 q-8.5 0 -16 2 q-7.5 2 -12.5 7 q-1 0 -1 0.5 q0 0.5 -1 0.5 q-7 7 -9.5 16 q-2.5 9 -0.5 18.5 q2 9.5 7.5 19.5 q5.5 10 14.5 17 q94 76 173.5 179 q79.5 103 142.5 222 Z" /><glyph glyph-name="" unicode="&#x4e48;" d="M209 -19 q-11 -2 -20.5 0.5 q-9.5 2.5 -16.5 7.5 q-2 1 -4 3 q-2 0 -4 1 q-18 4 -21 20 q-2 8 0 17.5 q2 9.5 8 18.5 q6 9 14 17 q8 8 17 13 q10 6 17 10.5 q7 4.5 17 11.5 q10 7 25.5 19 q15.5 12 42.5 33 q28 20 80.5 64 q52.5 44 119 105 q66.5 61 140.5 134 q74 73 144 150 q5 6 12 10.5 q7 4.5 15 6.5 q8 2 16 2 q8 0 13 -3 l9 -5 q7 -4 11.5 -11.5 q4.5 -7.5 5 -16 q0.5 -8.5 -2.5 -18 q-3 -9.5 -10 -16.5 q-151 -162 -305 -297 q-116 -101 -226 -184 l501 39 q-19 36 -38 73 q-20 36 -41 69 q-4 8 -3.5 17 q0.5 9 4 18 q3.5 9 9.5 16.5 q6 7.5 15 10.5 l3 2 q13 6 28 1.5 q15 -4.5 21 -15.5 q23 -35 44.5 -73.5 q21.5 -38.5 41.5 -77 q20 -38.5 36.5 -75.5 q16.5 -37 27.5 -69 q3 -7 1.5 -14.5 q-1.5 -7.5 -5 -15 q-3.5 -7.5 -9 -14 q-5.5 -6.5 -13.5 -9.5 l-6 -4 q-8 -4 -17 -4 q-9 0 -17.5 3 q-8.5 3 -14 9 q-5.5 6 -8.5 14 q-11 31 -26 66 q-3 -1 -6 -3 q-8 -4 -18 -5 q-153 -13 -258.5 -21.5 q-105.5 -8.5 -175 -14.5 q-69.5 -6 -110 -9.5 q-40.5 -3.5 -63.5 -6.5 ZM581 800 q9 12 26 18.5 q17 6.5 30 1.5 l6 -3 q7 -3 12 -10 q5 -7 6 -15.5 q1 -8.5 -1.5 -18 q-2.5 -9.5 -9.5 -17.5 q-42 -49 -91 -99.5 q-49 -50.5 -102 -99 q-53 -48.5 -107.5 -93.5 q-54.5 -45 -108.5 -83 q-7 -5 -15 -6.5 q-8 -1.5 -16 -1.5 q-8 0 -14.5 2.5 q-6.5 2.5 -10.5 7.5 q-6 7 -7.5 16 q-1.5 9 1 18.5 q2.5 9.5 8.5 18 q6 8.5 15 15.5 q52 36 104 78.5 q52 42.5 101 87.5 q49 45 93 91.5 q44 46.5 81 91.5 Z" /><glyph glyph-name="" unicode="&#x4e49;" d="M328 712 q7 2 15 0.5 q8 -1.5 14.5 -5.5 q6.5 -4 11.5 -10 q5 -6 7 -13 q26 -114 73.5 -216.5 q47.5 -102.5 116.5 -188.5 l6 -8 q15 14 30 27 q99 92 178.5 199.5 q79.5 107.5 143.5 229.5 q4 7 11 13.5 q7 6.5 15.5 10.5 q8.5 4 17 5.5 q8.5 1.5 15.5 -0.5 l5 -2 q7 -2 12 -8 q5 -6 7.5 -13 q2.5 -7 1.5 -16 q-1 -9 -5 -16 q-72 -132 -158 -247.5 q-86 -115.5 -193 -213.5 l-30 -26 q47 -48 101 -89 q90 -67 199 -110 q23 -9 25.5 -29.5 q2.5 -20.5 -14.5 -39.5 q-8 -10 -24 -15 q-16 -5 -27 -1 q-121 45 -217 117 q-65 48 -119 106 q-63 -47 -133 -89 q-130 -78 -291 -134 q-15 -5 -29.5 1 q-14.5 6 -18.5 17 q-8 16 3.5 35 q11.5 19 34.5 27 q147 51 268 124 q61 37 117 78 q-73 93 -123 205 q-51 113 -82 240 q-1 7 1 16 q2 9 7 16.5 q5 7.5 12.5 13.5 q7.5 6 14.5 9 ZM583 776 q-1 8 0 17 q1 9 5.5 17 q4.5 8 11.5 14.5 q7 6.5 15 9.5 q13 5 27 -2.5 q14 -7.5 18 -19.5 q13 -42 24.5 -86.5 q11.5 -44.5 18.5 -82.5 q2 -7 0 -15 q-2 -8 -6 -15 q-4 -7 -10.5 -13 q-6.5 -6 -13.5 -9 q-8 -3 -17 -2.5 q-9 0.5 -16 4.5 q-7 4 -12.5 11 q-5.5 7 -6.5 15 q-6 36 -15.5 77.5 q-9.5 41.5 -22.5 79.5 Z" /><glyph glyph-name="" unicode="&#x4e4b;" d="M226 605 q1 8 6 15 q5 7 12 13 q7 6 15.5 9.5 q8.5 3.5 16.5 3.5 l624 0 q8 0 15 -3 q5 3 10 3 q2 0 4 0.5 q2 0.5 4 0.5 q6 2 13 0.5 q7 -1.5 11 -4.5 l13 -10 q6 -4 9.5 -11.5 q3.5 -7.5 3.5 -16 q0 -8.5 -2.5 -17 q-2.5 -8.5 -8.5 -15.5 q-61 -67 -136 -136 q-75 -69 -156.5 -133.5 q-81.5 -64.5 -167.5 -122.5 q-77 -52 -152 -93 q9 -7 19 -14 q42 -30 104 -38.5 q62 -8.5 145 -8.5 q71 0 150.5 3.5 q79.5 3.5 147.5 8.5 q25 2 36 -13 q11 -15 1 -37 q-5 -13 -20.5 -24 q-15.5 -11 -29.5 -12 q-30 -2 -67.5 -3 q-37.5 -1 -77 -2.5 q-39.5 -1.5 -80 -2 q-40.5 -0.5 -77.5 -0.5 q-92 0 -154 11 q-62 11 -108 43 q-27 20 -47 40 q-20 20 -37 20 q-18 0 -46 -22.5 q-28 -22.5 -61 -57.5 q-9 -8 -18 -12.5 q-9 -4.5 -18.5 -5 q-9.5 -0.5 -18 3 q-8.5 3.5 -13.5 11.5 l-3 5 q-3 5 -3.5 12.5 q-0.5 7.5 1 15.5 q1.5 8 5.5 15 q4 7 10 12 q53 45 97 73 q44 28 84 28 q9 0 17 -2 q7 8 18 15 q81 44 165 101.5 q84 57.5 162 120.5 q78 63 145 127 q35 34 64 65 l-591 0 q-7 0 -14.5 3.5 q-7.5 3.5 -12.5 9.5 q-5 6 -7.5 13 q-2.5 7 -0.5 15 ZM594 769 q-3 7 -3 16.5 q0 9.5 3 18 q3 8.5 9.5 16 q6.5 7.5 14.5 11.5 l4 1 q6 4 13.5 4 q7.5 0 14.5 -1.5 q7 -1.5 13 -5.5 q6 -4 8 -9 q15 -25 28 -51 q13 -26 22 -48 q3 -7 2.5 -15 q-0.5 -8 -4 -16 q-3.5 -8 -9 -14.5 q-5.5 -6.5 -12.5 -10.5 l-6 -2 q-8 -4 -16.5 -5 q-8.5 -1 -17 2 q-8.5 3 -15 8.5 q-6.5 5.5 -9.5 12.5 q-7 20 -18 43.5 q-11 23.5 -22 44.5 Z" /><glyph glyph-name="" unicode="&#x4e4c;" d="M581 810 q7 14 22.5 23.5 q15.5 9.5 30.5 7.5 q10 -1 16 -6.5 q6 -5.5 8.5 -13.5 q2.5 -8 1.5 -17 q-1 -9 -7 -18 q-11 -15 -21 -29 l-14 -18 l321 0 q9 0 16 -3.5 q7 -3.5 12.5 -8.5 q5.5 -5 7.5 -11.5 q2 -6.5 1 -13.5 q-1 -7 -6 -14 q0 -1 -1 -1 q-11 -45 -21 -78 q-12 -37 -22.5 -63.5 q-10.5 -26.5 -20.5 -43 q-10 -16.5 -21 -25.5 q-16 -14 -34.5 -19.5 q-18.5 -5.5 -42.5 -7.5 l-41 0 q-25 0 -55 2 q-13 0 -24 8.5 q-11 8.5 -12 18.5 q-1 18 15.5 30 q16.5 12 41.5 11 q9 0 16 -0.5 q7 -0.5 13 -0.5 l25 0 q14 0 22 1.5 q8 1.5 15 7.5 q6 6 14 20 q8 14 16.5 37.5 q8.5 23.5 18.5 58.5 q3 9 6 19 l-464 0 q-3 0 -5.5 -1.5 q-2.5 -1.5 -2.5 -4.5 l-48 -270 q0 -3 1 -4.5 q1 -1.5 3 -1.5 l606 0 q9 0 16 -3 q6 -3 10 -7 q1 0 1 -1 q6 -4 9 -10 q1 -3 1 -5 q2 -6 0 -12 q0 -2 -1 -5 q-21 -92 -38 -157 q-16 -67 -30.5 -112 q-14.5 -45 -28 -70.5 q-13.5 -25.5 -27.5 -39.5 q-19 -18 -38 -24.5 q-19 -6.5 -46 -9.5 q-19 -1 -48.5 -1.5 q-29.5 -0.5 -63.5 1.5 q-15 0 -26 9.5 q-11 9.5 -12 19.5 q-2 20 14 34.5 q16 14.5 42 13.5 q12 -1 22 -1.5 q10 -0.5 18.5 -1 q8.5 -0.5 16.5 -0.5 l17 0 q14 0 24 2 q10 2 18 9 q11 9 22 32.5 q11 23.5 24 66 q13 42.5 29 105.5 q10 41 21 91 l-608 0 q-7 0 -14.5 3.5 q-7.5 3.5 -12.5 10 q-5 6.5 -7.5 14.5 q-2.5 8 -0.5 16 l61 346 q2 9 6.5 16.5 q4.5 7.5 12 14 q7.5 6.5 16 10 q8.5 3.5 16.5 3.5 l159 0 q-2 11 4 23 q10 11 19 24 q9 13 16 24 ZM105 161 q1 7 5.5 13.5 q4.5 6.5 12 12 q7.5 5.5 15.5 8.5 q8 3 16 3 l612 0 q8 0 15.5 -3 q7.5 -3 12.5 -8.5 q5 -5.5 7.5 -12 q2.5 -6.5 1.5 -13.5 q-1 -7 -6 -14 q-5 -7 -12 -12.5 q-7 -5.5 -15.5 -8.5 q-8.5 -3 -16.5 -3 l-611 0 q-9 0 -16.5 3 q-7.5 3 -12.5 8.5 q-5 5.5 -7.5 12.5 q-2.5 7 -0.5 14 Z" /><glyph glyph-name="" unicode="&#x4e4d;" d="M452 807 q4 7 10.5 12.5 q6.5 5.5 14 10 q7.5 4.5 16 5.5 q8.5 1 15.5 0 l5 -2 q8 -2 13.5 -8 q5.5 -6 8 -13.5 q2.5 -7.5 1.5 -16.5 q-1 -9 -6 -17 q-32 -54 -67 -105 l577 0 q8 0 15 -3 q7 -3 12.5 -9 q5.5 -6 7.5 -13.5 q2 -7.5 1 -15.5 q-2 -7 -6.5 -14.5 q-4.5 -7.5 -12 -13.5 q-7.5 -6 -16 -9.5 q-8.5 -3.5 -17.5 -3.5 l-418 0 l-24 -141 q4 1 8 1 l353 0 q8 0 15 -3.5 q7 -3.5 12 -9 q5 -5.5 7.5 -12.5 q2.5 -7 0.5 -15 q-1 -7 -6 -14.5 q-5 -7.5 -12 -13.5 q-7 -6 -15 -9 q-8 -3 -16 -3 l-353 0 q-4 0 -8 1 l-26 -147 q4 1 9 1 l368 0 q8 0 15.5 -3.5 q7.5 -3.5 12.5 -9.5 q5 -6 7.5 -13 q2.5 -7 0.5 -15 q-1 -8 -6 -15.5 q-5 -7.5 -12.5 -13 q-7.5 -5.5 -15.5 -9.5 q-8 -4 -16 -4 l-368 0 q-5 0 -9 2 l-33 -183 q-2 -9 -6.5 -16.5 q-4.5 -7.5 -11.5 -13.5 q-7 -6 -14.5 -10 q-7.5 -4 -15.5 -4 l-5 0 q-8 0 -15 4 q-7 4 -12 10 q-5 6 -7 13.5 q-2 7.5 0 16.5 l111 629 l-103 0 q-7 0 -12 2 l-14 -18 q-77 -95 -155 -169 q-7 -6 -14.5 -9 q-7.5 -3 -16.5 -4 q-9 -1 -17 1 q-8 2 -14 5 q-6 6 -9.5 14.5 q-3.5 8.5 -2.5 18.5 q1 10 5.5 19.5 q4.5 9.5 12.5 17.5 q76 67 146 154.5 q70 87.5 127 183.5 Z" /><glyph glyph-name="" unicode="&#x4e4e;" d="M954 823 q13 2 25 -4 q12 -6 16 -16 l2 -4 q4 -8 2.5 -17.5 q-1.5 -9.5 -7 -18 q-5.5 -8.5 -14 -14.5 q-8.5 -6 -19.5 -8 q-66 -14 -145 -24 q-57 -8 -118 -14 q1 -6 0 -12 l-56 -320 l352 0 q9 0 15.5 -3.5 q6.5 -3.5 12 -9.5 q5.5 -6 7.5 -13.5 q2 -7.5 1 -15.5 l0 -2 q-2 -8 -7 -15.5 q-5 -7.5 -12 -13.5 q-7 -6 -15 -9.5 q-8 -3.5 -16 -3.5 l-353 0 l-45 -256 q-8 -44 -25 -65.5 q-17 -21.5 -50 -31.5 q-27 -9 -71 -11.5 q-44 -2.5 -109 -2.5 q-13 -1 -24.5 8 q-11.5 9 -13.5 21 q-5 22 10 38.5 q15 16.5 41 15.5 q42 -1 70 -0.5 q28 0.5 46 0.5 q17 1 25 7 q8 6 10 22 l46 255 l-369 0 q-8 0 -15 3.5 q-7 3.5 -12.5 9.5 q-5.5 6 -7.5 13.5 q-2 7.5 0 15.5 l0 2 q1 8 6 15.5 q5 7.5 12.5 13.5 q7.5 6 15.5 9.5 q8 3.5 16 3.5 l369 0 l56 320 q1 2 1 4 q-62 -5 -125 -9 q-86 -5 -166 -7 q-16 -1 -28 8.5 q-12 9.5 -13 21.5 q-2 17 13.5 30.5 q15.5 13.5 37.5 15.5 q81 3 167 9 q86 6 168.5 14.5 q82.5 8.5 157.5 19.5 q75 11 135 25 ZM894 623 q4 8 11.5 14.5 q7.5 6.5 15.5 10.5 q8 4 17.5 5.5 q9.5 1.5 16.5 -1.5 l2 0 q8 -2 13 -9 q5 -7 6.5 -15.5 q1.5 -8.5 0 -18 q-1.5 -9.5 -8.5 -17.5 q-27 -40 -56 -81.5 q-29 -41.5 -56 -75.5 q-9 -11 -24 -16.5 q-15 -5.5 -26 -1.5 q-7 3 -11 9.5 q-4 6.5 -5.5 15 q-1.5 8.5 0.5 17.5 q2 9 7 17 q13 16 25.5 34 q12.5 18 25 37.5 q12.5 19.5 24 38.5 q11.5 19 22.5 37 ZM304 577 q-2 9 -1 18.5 q1 9.5 5.5 17.5 q4.5 8 11.5 14.5 q7 6.5 15 9.5 q13 5 27 -1.5 q14 -6.5 17 -18.5 q14 -36 25 -75.5 q11 -39.5 17 -72.5 q1 -6 -0.5 -13.5 q-1.5 -7.5 -6 -14.5 q-4.5 -7 -10.5 -12.5 q-6 -5.5 -13 -8.5 q-9 -3 -18 -2 q-9 1 -16 5.5 q-7 4.5 -12.5 11.5 q-5.5 7 -6.5 16 q-5 28 -14 61.5 q-9 33.5 -20 64.5 Z" /><glyph glyph-name="" unicode="&#x4e4f;" d="M220 455 q2 7 6.5 14.5 q4.5 7.5 12 13.5 q7.5 6 16 9 q8.5 3 16.5 3 l597 0 q8 0 15 -3 l4 -2 q1 0 2 1 q5 4 11 4 q2 0 4.5 0.5 q2.5 0.5 4.5 0.5 q5 2 12.5 0 q7.5 -2 11.5 -5 l9 -7 q7 -6 9.5 -14 q2.5 -8 2.5 -16.5 q0 -8.5 -4.5 -17.5 q-4.5 -9 -11.5 -15 q-55 -51 -122 -100.5 q-67 -49.5 -140 -96 q-73 -46.5 -150 -87.5 q-75 -39 -148 -70 q40 -29 97 -38 q62 -10 153 -10 q73 0 153 3.5 q80 3.5 149 9.5 q25 2 36 -13 q11 -15 2 -37 q-6 -12 -21 -23 q-15 -11 -29 -13 q-30 -2 -68.5 -3 q-38.5 -1 -79.5 -2.5 q-41 -1.5 -82.5 -2 q-41.5 -0.5 -78.5 -0.5 q-49 0 -88.5 2.5 q-39.5 2.5 -72.5 9.5 q-33 7 -59.5 18.5 q-26.5 11.5 -49.5 29.5 q-14 11 -26.5 23 q-12.5 12 -23.5 22 q-11 10 -20 16.5 q-9 6.5 -17 6.5 q-17 0 -42.5 -23 q-25.5 -23 -59.5 -60 q-14 -21 -33 -24 q-19 -3 -30 16 l-5 7 q-6 10 -3.5 25.5 q2.5 15.5 13.5 25.5 q54 52 98 82.5 q44 30.5 79 30.5 q13 0 23 -5.5 q10 -5.5 21 -15.5 q8 -7 15 -15 q11 15 31 25 q74 31 148 72 q74 41 142.5 85.5 q68.5 44.5 127.5 90.5 q19 15 36 30 l-557 0 q-8 0 -15 3.5 q-7 3.5 -12 9.5 q-5 6 -7.5 13.5 q-2.5 7.5 -1.5 15.5 ZM979 821 q10 2 21.5 -2 q11.5 -4 15.5 -12 l6 -7 q5 -9 5.5 -18 q0.5 -9 -4.5 -17.5 q-5 -8.5 -13.5 -14.5 q-8.5 -6 -20.5 -9 q-70 -13 -153.5 -24 q-83.5 -11 -172 -19 q-88.5 -8 -178.5 -13.5 q-90 -5.5 -174 -7.5 q-15 -1 -27.5 8.5 q-12.5 9.5 -13.5 20.5 q-1 9 3 17 q4 8 11.5 14.5 q7.5 6.5 17.5 10.5 q10 4 22 5 q85 4 174.5 10 q89.5 6 176 14.5 q86.5 8.5 164.5 19.5 q78 11 140 24 ZM541 610 q-2 8 -1.5 16.5 q0.5 8.5 4.5 17 q4 8.5 10 15.5 q6 7 14 10 l1 1 q6 3 13.5 3 q7.5 0 15 -2 q7.5 -2 13 -6.5 q5.5 -4.5 8.5 -10.5 q11 -18 21.5 -37.5 q10.5 -19.5 17.5 -36.5 q3 -6 2.5 -14.5 q-0.5 -8.5 -4.5 -16 q-4 -7.5 -9.5 -14 q-5.5 -6.5 -12.5 -10.5 q-9 -4 -18 -4.5 q-9 -0.5 -17 2.5 q-8 3 -15 8.5 q-7 5.5 -10 13.5 q-6 15 -14.5 32.5 q-8.5 17.5 -18.5 32.5 Z" /><glyph glyph-name="" unicode="&#x4e50;" d="M603 597 q1 8 6 16 q5 8 12 14 q7 6 15 9.5 q8 3.5 16 3.5 l3 0 q8 0 14.5 -3.5 q6.5 -3.5 11.5 -10 q5 -6.5 7 -14 q2 -7.5 1 -15.5 l-27 -153 l318 0 q8 0 15 -3.5 q7 -3.5 12.5 -9.5 q5.5 -6 8 -13.5 q2.5 -7.5 0.5 -15.5 l-1 -1 q-1 -8 -6 -15.5 q-5 -7.5 -12 -13 q-7 -5.5 -15 -9.5 q-8 -4 -17 -4 l-318 0 l-59 -334 q-7 -39 -20.5 -59 q-13.5 -20 -40.5 -30 q-23 -9 -57 -11.5 q-34 -2.5 -86 -3.5 q-13 -1 -24 9 q-11 10 -12 20 q-4 22 11 38 q15 16 40 16 q27 -1 44.5 -0.5 q17.5 0.5 30.5 0.5 q14 1 20 5 q6 4 8 17 l59 333 l-257 0 q-11 0 -19 -1 q-14 -1 -27 1.5 q-13 2.5 -22 7.5 q-3 2 -5 4 q-3 -1 -7 0 q-8 1 -14 6.5 q-6 5.5 -8 13.5 q-1 6 1.5 15.5 q2.5 9.5 6.5 19 q4 9.5 9 19.5 q5 10 9 19 l0 1 q0 1 2.5 5.5 q2.5 4.5 8.5 18.5 q4 10 13 33 q9 23 19 53.5 q10 30.5 21 66.5 q11 36 20 73 q2 10 8 18.5 q6 8.5 15 14.5 q3 2 7 4 q1 2 2 3 q7 6 17.5 10 q10.5 4 21.5 4 q75 3 155.5 7.5 q80.5 4.5 157.5 11.5 q77 7 147.5 16.5 q70.5 9.5 125.5 21.5 q11 2 23.5 -3.5 q12.5 -5.5 15.5 -14.5 l1 -2 q5 -9 4 -19 q-1 -10 -6.5 -18.5 q-5.5 -8.5 -14 -14.5 q-8.5 -6 -20.5 -8 q-62 -13 -135.5 -22 q-73.5 -9 -152.5 -15.5 q-79 -6.5 -158 -10.5 q-69 -3 -133 -5 q-20 -71 -46 -143 q-21 -58 -41 -106 l270 0 l27 153 ZM278 248 q10 11 26.5 17.5 q16.5 6.5 27.5 2.5 l1 0 q8 -3 13.5 -10 q5.5 -7 7 -15 q1.5 -8 -1 -17.5 q-2.5 -9.5 -9.5 -17.5 q-43 -53 -91.5 -103.5 q-48.5 -50.5 -95.5 -92.5 q-6 -6 -14.5 -9.5 q-8.5 -3.5 -16.5 -4.5 q-8 -1 -15 1 q-7 2 -13 7 q-6 5 -8 13.5 q-2 8.5 -0.5 18 q1.5 9.5 6.5 18.5 q5 9 13 17 q45 37 89 82.5 q44 45.5 81 92.5 ZM777 203 q-5 8 -5 17.5 q0 9.5 3.5 18 q3.5 8.5 10 16 q6.5 7.5 15.5 10.5 q12 5 26 1 q14 -4 20 -13 q17 -23 34 -48 q17 -25 33.5 -50 q16.5 -25 30.5 -49 q14 -24 25 -45 q3 -8 2 -16 q-1 -8 -4.5 -16 q-3.5 -8 -9.5 -14.5 q-6 -6.5 -13 -10.5 l-3 -1 q-7 -4 -16 -4 q-9 0 -16.5 3 q-7.5 3 -13.5 8 q-6 5 -9 12 q-9 20 -22 42.5 q-13 22.5 -27.5 46 q-14.5 23.5 -30 47 q-15.5 23.5 -30.5 45.5 Z" /><glyph glyph-name="" unicode="&#x4e58;" d="M600 708 q1 6 4 11 q-57 -4 -115 -7 q-82 -4 -158 -6 q-16 -1 -28 8 q-12 9 -13 20 q-1 16 14.5 29.5 q15.5 13.5 38.5 14.5 q78 3 160.5 8 q82.5 5 162 12 q79.5 7 152 15.5 q72.5 8.5 130.5 19.5 q12 1 24.5 -5 q12.5 -6 15.5 -16 q3 -9 0.5 -18 q-2.5 -9 -8 -17 q-5.5 -8 -14.5 -13.5 q-9 -5.5 -19 -6.5 q-64 -11 -140 -19 q-58 -7 -120 -12 q0 -1 1 -2 q2 -8 0 -16 l-13 -74 l348 0 q9 0 16 -3 q7 -3 12.5 -8.5 q5.5 -5.5 8 -12.5 q2.5 -7 0.5 -14 q-1 -8 -5.5 -14.5 q-4.5 -6.5 -12 -12 q-7.5 -5.5 -15.5 -9 q-8 -3.5 -17 -3.5 l-348 0 l-42 -234 q6 -5 9 -11 q21 -42 52 -82.5 q31 -40.5 69.5 -76.5 q38.5 -36 84 -65 q45.5 -29 94.5 -50 q22 -9 26 -27.5 q4 -18.5 -12 -36.5 q-8 -10 -24 -14.5 q-16 -4.5 -27 0.5 q-54 23 -103 56 q-49 33 -90 74 q-41 41 -75 88 q-12 18 -23 35 l-44 -251 q-2 -8 -6.5 -16 q-4.5 -8 -12 -14 q-7.5 -6 -15 -9.5 q-7.5 -3.5 -16.5 -3.5 l-4 0 q-8 0 -14.5 3.5 q-6.5 3.5 -11.5 9.5 q-5 6 -7.5 14 q-2.5 8 -0.5 16 l44 248 q-16 -16 -32 -31 q-51 -47 -107.5 -87.5 q-56.5 -40.5 -117.5 -73 q-61 -32.5 -123 -55.5 q-13 -5 -27.5 -0.5 q-14.5 4.5 -18.5 14.5 q-11 18 0 37 q11 19 36 28 q57 20 112.5 49 q55.5 29 108 64.5 q52.5 35.5 97.5 76 q45 40.5 81 83.5 q5 5 11 9 l41 233 l-348 0 q-8 0 -15.5 3.5 q-7.5 3.5 -12.5 9 q-5 5.5 -7.5 12 q-2.5 6.5 -1.5 14.5 q2 7 6.5 14 q4.5 7 12 12.5 q7.5 5.5 15.5 8.5 q8 3 17 3 l347 0 l13 74 ZM747 489 q2 8 6.5 15.5 q4.5 7.5 11.5 13.5 q7 6 14.5 10 q7.5 4 14.5 4 q7 0 13.5 -4 q6.5 -4 11 -10 q4.5 -6 6 -13.5 q1.5 -7.5 -0.5 -15.5 l-9 -55 q28 10 56 21 q32 13 56 25 q14 5 29 2.5 q15 -2.5 21 -12.5 q5 -7 4.5 -15.5 q-0.5 -8.5 -5 -16 q-4.5 -7.5 -12.5 -14.5 q-8 -7 -19 -10 q-29 -12 -62.5 -23.5 q-33.5 -11.5 -65.5 -21.5 q-7 -2 -14 -2 l-13 -75 q-3 -17 1.5 -22 q4.5 -5 25.5 -5 l93 0 q9 0 14 5.5 q5 5.5 10 26.5 q5 3 11.5 7.5 q6.5 4.5 14 8 q7.5 3.5 15.5 5 q8 1.5 17 -1.5 q3 -2 7 -7 q4 -5 5.5 -11.5 q1.5 -6.5 0.5 -14 q-1 -7.5 -5 -14.5 q-7 -22 -15 -36.5 q-8 -14.5 -18 -23 q-10 -8.5 -24.5 -12 q-14.5 -3.5 -36.5 -3.5 l-111 0 q-30 0 -48.5 4.5 q-18.5 4.5 -28 16 q-9.5 11.5 -10 30.5 q-0.5 19 4.5 47 l34 197 ZM384 486 q2 8 6.5 16 q4.5 8 11.5 14.5 q7 6.5 14 10 q7 3.5 15 3.5 q7 0 13.5 -3.5 q6.5 -3.5 11 -10 q4.5 -6.5 6.5 -14.5 q2 -8 0 -16 l-42 -240 q-1 -8 -6 -16 q-5 -8 -11.5 -14 q-6.5 -6 -14 -9.5 q-7.5 -3.5 -14.5 -3.5 q-8 0 -14.5 3.5 q-6.5 3.5 -11 9.5 q-4.5 6 -6.5 14 q-2 8 0 16 l0 2 q-40 -8 -79 -15 q-45 -8 -86 -16 q-15 -3 -28.5 5.5 q-13.5 8.5 -14.5 20.5 q1 7 4.5 14.5 q3.5 7.5 9.5 13.5 q6 6 15 10.5 q9 4.5 19 5.5 q37 5 81 12 q44 7 90 15 l15 82 l-143 0 q-17 0 -28 10.5 q-11 10.5 -9 23.5 q1 6 5.5 12 q4.5 6 11.5 11 q7 5 15.5 7.5 q8.5 2.5 16.5 2.5 l143 0 l4 23 Z" /><glyph glyph-name="" unicode="&#x4e5d;" d="M506 787 q1 8 6 16 q5 8 12 14 q7 6 15.5 9.5 q8.5 3.5 16.5 3.5 l7 0 q8 0 14.5 -3.5 q6.5 -3.5 11.5 -9.5 q5 -6 7 -14 q2 -8 0 -16 q-16 -88 -34 -173 q-3 -13 -5 -26 l260 0 q7 0 14 -3.5 q7 -3.5 12 -10.5 q2 -3 4 -7 q2 -2 2 -5 q3 -8 2 -15 l-1 -3 l0 -2 l-85 -484 q-5 -27 -1 -35 q4 -8 27 -8 l96 0 q8 0 14 3 q6 3 11 11.5 q5 8.5 10 24 q5 15.5 11 39.5 q7 26 25 37.5 q18 11.5 37 3.5 q10 -5 15.5 -18.5 q5.5 -13.5 1.5 -26.5 q-12 -44 -23.5 -74 q-11.5 -30 -25.5 -48.5 q-14 -18.5 -34.5 -26 q-20.5 -7.5 -49.5 -7.5 l-116 0 q-30 0 -50 5.5 q-20 5.5 -30 20 q-10 14.5 -11 38.5 q-1 24 6 62 l78 444 l-220 0 q-7 -28 -15 -55 q-24 -80 -56.5 -153.5 q-32.5 -73.5 -78 -138 q-45.5 -64.5 -106.5 -119.5 q-61 -55 -142 -98 q-7 -4 -15.5 -5.5 q-8.5 -1.5 -16 0 q-7.5 1.5 -13.5 5 q-6 3.5 -11 8.5 q-11 16 -3 36 q8 20 28 34 q108 58 175.5 140.5 q67.5 82.5 110.5 182.5 q32 77 55 163 l-218 0 q-8 0 -14.5 3.5 q-6.5 3.5 -12 9.5 q-5.5 6 -8 13.5 q-2.5 7.5 -0.5 14.5 l0 3 q1 7 6 14.5 q5 7.5 12.5 13.5 q7.5 6 15.5 9.5 q8 3.5 16 3.5 l222 0 q21 97 39 199 Z" /><glyph glyph-name="" unicode="&#x4e5f;" d="M130 396 q-1 7 2 15 q3 8 8 15 q5 7 12.5 13 q7.5 6 16.5 8 l147 43 l42 239 q2 9 7 17 q5 8 12 14 q7 6 15 9.5 q8 3.5 16 3.5 q8 0 14.5 -3.5 q6.5 -3.5 11 -9.5 q4.5 -6 6.5 -14 q2 -8 1 -16 l-38 -214 l209 60 l39 221 q1 8 6 16 q5 8 12 14 q7 6 15 9.5 q8 3.5 16 3.5 q8 0 14.5 -3.5 q6.5 -3.5 11.5 -9.5 q5 -6 7 -14 q2 -8 1 -16 l-35 -195 l216 63 q7 2 15 2 l12 10 l1 0 q7 5 18.5 6 q11.5 1 18.5 -2 l7 -4 q11 -5 19 -13 q8 -8 6 -13 q0 -1 -1.5 -4.5 q-1.5 -3.5 -1.5 -6.5 q-27 -139 -49.5 -228 q-22.5 -89 -46.5 -133 q-21 -39 -44.5 -56 q-23.5 -17 -50.5 -22 q-17 -2 -39 -3.5 q-22 -1.5 -44 -1.5 q-13 0 -25 8.5 q-12 8.5 -12 19.5 q-1 19 11.5 33 q12.5 14 31.5 14 q8 0 13 -0.5 q5 -0.5 10 -0.5 l23 0 q17 0 30.5 8.5 q13.5 8.5 28.5 37.5 q20 37 39 121 q14 62 31 152 l-231 -69 l-61 -342 q-1 -8 -5.5 -16 q-4.5 -8 -12 -14 q-7.5 -6 -15 -10 q-7.5 -4 -16.5 -4 q-7 0 -14 4 q-7 4 -12 10 q-5 6 -6.5 14 q-1.5 8 -1.5 16 l57 317 l-209 -62 l-58 -330 q-5 -27 -3.5 -44 q1.5 -17 12 -27 q10.5 -10 33 -13.5 q22.5 -3.5 59.5 -3.5 l344 0 q29 0 48.5 5 q19.5 5 34 17.5 q14.5 12.5 26 34 q11.5 21.5 22.5 55.5 q12 22 30 33.5 q18 11.5 36 4.5 q11 -5 16.5 -19 q5.5 -14 -0.5 -28 q-15 -51 -31 -85 q-16 -34 -40 -55.5 q-24 -21.5 -60 -30.5 q-36 -9 -93 -9 l-344 0 q-58 0 -95.5 7.5 q-37.5 7.5 -57.5 26 q-20 18.5 -24 51 q-4 32.5 5 82.5 l53 302 l-124 -36 q-8 -2 -16 -1.5 q-8 0.5 -15 4 q-7 3.5 -11 9.5 q-4 6 -6 13 Z" /><glyph glyph-name="" unicode="&#x4e60;" d="M265 732 q1 8 6 15 q5 7 12.5 12.5 q7.5 5.5 15.5 9 q8 3.5 16 3.5 l690 0 q9 0 15.5 -3.5 q6.5 -3.5 12 -9 q5.5 -5.5 7.5 -12.5 q2 -6 1 -12 l0 -4 l-2 -9 q-37 -195 -63.5 -327.5 q-26.5 -132.5 -47 -218 q-20.5 -85.5 -37.5 -130.5 q-17 -45 -36 -65 q-22 -27 -44 -37.5 q-22 -10.5 -52 -13.5 q-25 -3 -58 -2.5 q-33 0.5 -69 1.5 q-15 0 -26.5 10 q-11.5 10 -12.5 21 q-3 20 13 34 q16 14 42 13 q15 0 27 -0.5 q12 -0.5 24 -0.5 l41 0 q14 -1 24 2.5 q10 3.5 20 13.5 q15 13 31 59.5 q16 46.5 36.5 133.5 q20.5 87 47.5 220 q22 110 50 257 l-648 0 q-8 0 -15 3 q-7 3 -12.5 9 q-5.5 6 -7.5 13 q-2 7 -1 15 ZM153 97 q-1 7 1 16 q2 9 7.5 17 q5.5 8 13 14 q7.5 6 16.5 8 q53 16 116 35 q63 19 132.5 41 q69.5 22 142.5 45.5 q73 23.5 147 46.5 q9 4 17.5 3 q8.5 -1 16 -5 q7.5 -4 12 -11 q4.5 -7 4.5 -15 q0 -12 -11 -26.5 q-11 -14.5 -25 -19.5 q-70 -23 -142.5 -47 q-72.5 -24 -142 -47 q-69.5 -23 -134 -44 q-64.5 -21 -121.5 -39 q-8 -3 -16.5 -2 q-8.5 1 -15.5 4.5 q-7 3.5 -12 9.5 q-5 6 -5 13 l-1 3 ZM382 530 q-7 5 -10 13.5 q-3 8.5 -2 17 q1 8.5 4.5 17 q3.5 8.5 10.5 14.5 q11 8 27.5 9 q16.5 1 26.5 -7 q23 -17 47 -36.5 q24 -19.5 47 -39 q23 -19.5 44 -38.5 q21 -19 37 -36 q6 -5 8 -13 q2 -8 1 -16 q-1 -8 -4.5 -16 q-3.5 -8 -9.5 -14 l-2 -1 q-6 -6 -14.5 -9 q-8.5 -3 -17.5 -3 q-9 0 -17 2.5 q-8 2.5 -14 8.5 q-15 16 -34 34.5 q-19 18.5 -40.5 37.5 q-21.5 19 -44 38 q-22.5 19 -43.5 37 Z" /><glyph glyph-name="" unicode="&#x4e66;" d="M572 795 q1 9 5.5 16.5 q4.5 7.5 12 13.5 q7.5 6 16 10 q8.5 4 16.5 4 l2 0 q8 0 14.5 -4 q6.5 -4 11.5 -10 q5 -6 7 -13.5 q2 -7.5 1 -16.5 l-23 -127 l262 0 q9 0 16 -3.5 q7 -3.5 12 -10 q5 -6.5 7.5 -14 q2.5 -7.5 0.5 -15.5 l-40 -227 l102 0 q8 0 15.5 -3.5 q7.5 -3.5 12.5 -9 q5 -5.5 7.5 -12.5 q2.5 -7 0.5 -14 q-1 -8 -6 -15 q0 -1 -1 -2 q-16 -64 -30 -111 q-15 -54 -29 -91 q-14 -37 -26.5 -59 q-12.5 -22 -26.5 -33 q-20 -18 -40.5 -24.5 q-20.5 -6.5 -47.5 -8.5 q-19 -1 -49.5 -0.5 q-30.5 0.5 -65.5 1.5 q-15 0 -26.5 9.5 q-11.5 9.5 -12.5 20.5 q-2 20 14 34 q16 14 43 13 q13 -1 23.5 -1.5 q10.5 -0.5 20.5 -0.5 l36 0 q15 0 25 1.5 q10 1.5 19 8.5 q10 8 20.5 27 q10.5 19 22 53 q11.5 34 25.5 85 q7 24 14 53 l-360 0 l-62 -356 q-1 -8 -6 -15.5 q-5 -7.5 -12 -14 q-7 -6.5 -15.5 -10 q-8.5 -3.5 -16.5 -3.5 l-2 0 q-8 0 -14.5 3.5 q-6.5 3.5 -11.5 10 q-5 6.5 -7 14 q-2 7.5 -1 15.5 l63 356 l-309 0 q-8 0 -15.5 3 q-7.5 3 -12 9 q-4.5 6 -7.5 13 q-3 7 -1 15 q2 7 6.5 14 q4.5 7 11.5 12.5 q7 5.5 15.5 9 q8.5 3.5 16.5 3.5 l309 0 l34 189 l-247 0 q-7 0 -14.5 3.5 q-7.5 3.5 -12.5 9.5 q-5 6 -7.5 13 q-2.5 7 -1.5 15 q2 8 6.5 15 q4.5 7 12 12.5 q7.5 5.5 16 9 q8.5 3.5 16.5 3.5 l246 0 l22 127 ZM621 587 l-33 -189 l222 0 l32 183 q0 2 -1.5 4 q-1.5 2 -4.5 2 l-215 0 ZM901 731 q-6 5 -9.5 13 q-3.5 8 -4 16.5 q-0.5 8.5 3 16.5 q3.5 8 9.5 14 q9 9 24.5 10.5 q15.5 1.5 25.5 -4.5 q30 -22 60 -47 q30 -25 54 -46 q6 -4 8.5 -11.5 q2.5 -7.5 2 -15.5 q-0.5 -8 -3.5 -16 q-3 -8 -8 -14 q-6 -6 -14.5 -9 q-8.5 -3 -17.5 -3.5 q-9 -0.5 -17 2 q-8 2.5 -14 6.5 q-20 21 -46 44 q-26 23 -53 44 Z" /><glyph glyph-name="" unicode="&#x4e70;" d="M639 601 q1 8 6 15 q5 7 12.5 13 q7.5 6 15 10 q7.5 4 15.5 4 q9 0 16 -4 q7 -4 11.5 -10.5 q4.5 -6.5 6.5 -14.5 q2 -8 0 -16 q-29 -138 -63 -247 q-7 -23 -15 -45 l326 0 q8 0 15 -3 q7 -3 12 -8.5 q5 -5.5 8 -12.5 q3 -7 1 -14 q-2 -8 -6.5 -15 q-4.5 -7 -11.5 -12.5 q-7 -5.5 -15.5 -9 q-8.5 -3.5 -16.5 -3.5 l-349 0 q-20 -36 -44 -68 q-62 -83 -163 -141.5 q-101 -58.5 -262 -93.5 q-15 -4 -29.5 2.5 q-14.5 6.5 -18.5 16.5 q-7 18 6 34.5 q13 16.5 38 22.5 q95 21 164.5 51 q69.5 30 120 68.5 q50.5 38.5 84.5 87.5 l14 20 l-348 0 q-8 0 -15 3.5 q-7 3.5 -12 9 q-5 5.5 -8 12.5 q-3 7 -1 15 q2 7 6.5 14 q4.5 7 11.5 12.5 q7 5.5 15.5 8.5 q8.5 3 16.5 3 l375 0 l4 10 q25 60 42.5 131 q17.5 71 34.5 154 ZM259 739 q2 8 7 14.5 q5 6.5 12 12.5 q7 6 15.5 9.5 q8.5 3.5 16.5 3.5 l674 0 q8 0 15 -4 q1 0 3 -1 q1 1 2 3 q4 3 9 3 q2 0 4.5 0.5 q2.5 0.5 4.5 0.5 q3 2 9.5 1.5 q6.5 -0.5 9.5 -1.5 l11 -5 q7 -2 11.5 -9 q4.5 -7 6.5 -15 q2 -8 0.5 -16.5 q-1.5 -8.5 -6.5 -16.5 q-29 -43 -58 -86.5 q-29 -43.5 -58 -77.5 q-9 -11 -25 -15.5 q-16 -4.5 -27 1.5 q-7 3 -10.5 10 q-3.5 7 -3.5 15.5 q0 8.5 3 18.5 q3 10 9 17 q27 35 54 77 q7 10 13 20 l-666 0 q-7 0 -14 3.5 q-7 3.5 -12.5 9 q-5.5 5.5 -8 12.5 q-2.5 7 -1.5 15 ZM616 93 q-9 4 -14.5 11.5 q-5.5 7.5 -7 15.5 q-1.5 8 0 16.5 q1.5 8.5 8.5 15.5 q8 8 22.5 11.5 q14.5 3.5 24.5 -0.5 q74 -35 142.5 -75.5 q68.5 -40.5 120.5 -77.5 q7 -5 11 -12.5 q4 -7.5 4 -16 q0 -8.5 -3.5 -17.5 q-3.5 -9 -9.5 -16 q-10 -10 -28 -12 q-18 -2 -29 5 q-47 36 -110.5 76 q-63.5 40 -131.5 76 ZM385 567 q-8 5 -13 12 q-5 7 -6.5 15.5 q-1.5 8.5 1 16.5 q2.5 8 8.5 15 q8 8 22.5 11 q14.5 3 24.5 -2 q32 -15 64 -34 q32 -19 56 -37 q7 -4 10.5 -11 q3.5 -7 4 -14.5 q0.5 -7.5 -2.5 -15.5 q-3 -8 -8 -14 q-6 -6 -14 -9 q-8 -3 -16.5 -4 q-8.5 -1 -16.5 1 q-8 2 -14 6 q-20 16 -46 32.5 q-26 16.5 -54 31.5 ZM248 422 q-8 5 -12.5 12.5 q-4.5 7.5 -6 15.5 q-1.5 8 1 16.5 q2.5 8.5 8.5 14.5 q8 8 22.5 11 q14.5 3 23.5 -2 q32 -13 63.5 -31 q31.5 -18 53.5 -35 q7 -3 10.5 -9.5 q3.5 -6.5 4 -14.5 q0.5 -8 -2 -15.5 q-2.5 -7.5 -7.5 -13.5 q-6 -6 -14 -9.5 q-8 -3.5 -16.5 -4.5 q-8.5 -1 -16.5 0.5 q-8 1.5 -14 6.5 q-19 15 -45 30 q-26 15 -53 28 Z" /><glyph glyph-name="" unicode="&#x4e71;" d="M150 525 q1 7 5.5 14 q4.5 7 11.5 12 q7 5 15.5 8 q8.5 3 16.5 3 l184 0 l26 146 q-27 -4 -54 -7 q-50 -7 -97 -12 q-16 -1 -28.5 6 q-12.5 7 -13.5 17 q-3 15 12 29.5 q15 14.5 37 18.5 q48 5 97 12.5 q49 7.5 96 16 q47 8.5 89 18 q42 9.5 76 20.5 q10 3 21.5 0 q11.5 -3 16.5 -10 l3 -3 q6 -8 7 -17.5 q1 -9.5 -2.5 -18.5 q-3.5 -9 -12 -15.5 q-8.5 -6.5 -20.5 -9.5 q-40 -11 -87 -21 q-28 -5 -57 -10 q1 -4 0 -8 l-27 -152 l174 0 q8 0 15.5 -3 q7.5 -3 12.5 -8 q5 -5 7.5 -12 q2.5 -7 1 -14 q-1.5 -7 -6 -14 q-4.5 -7 -11.5 -12.5 q-7 -5.5 -15.5 -8.5 q-8.5 -3 -16.5 -3 l-174 0 l-28 -161 l135 0 q8 0 15 -3.5 q7 -3.5 12 -9.5 q5 -6 7.5 -13.5 q2.5 -7.5 1.5 -15.5 l-53 -296 q-1 -8 -6 -15.5 q-5 -7.5 -11.5 -14 q-6.5 -6.5 -14.5 -10 q-8 -3.5 -16 -3.5 q-8 0 -14.5 3.5 q-6.5 3.5 -11.5 10 q-5 6.5 -7 14.5 q-1 3 -1 7 l-277 0 q-1 -8 -5 -14 q-5 -8 -11.5 -14.5 q-6.5 -6.5 -14.5 -10 q-8 -3.5 -15 -3.5 q-8 0 -14 3.5 q-6 3.5 -10.5 10 q-4.5 6.5 -6.5 14 q-2 7.5 -1 15.5 l54 303 q1 8 6 15.5 q5 7.5 12.5 13.5 q7.5 6 16 9.5 q8.5 3.5 16.5 3.5 l132 0 l28 161 l-184 0 q-8 0 -15.5 3 q-7.5 3 -12 8.5 q-4.5 5.5 -7.5 12.5 q-3 7 -1 14 ZM765 785 q1 8 6.5 16 q5.5 8 12 14 q6.5 6 14.5 10 q8 4 16 4 q8 0 14.5 -4 q6.5 -4 12 -10 q5.5 -6 7 -14 q1.5 -8 0.5 -16 l-126 -717 q-7 -38 -1.5 -48.5 q5.5 -10.5 32.5 -10.5 l110 0 q11 0 19.5 5.5 q8.5 5.5 15.5 19 q7 13.5 14 36.5 q7 23 14 58 q7 26 24.5 37.5 q17.5 11.5 35.5 3.5 q9 -5 14.5 -18 q5.5 -13 2.5 -26 q-13 -54 -25.5 -91 q-12.5 -37 -29 -60 q-16.5 -23 -38 -33 q-21.5 -10 -54.5 -10 l-128 0 q-33 0 -54 6.5 q-21 6.5 -31 22 q-10 15.5 -11 42.5 q-1 27 7 67 l126 716 ZM196 55 l276 0 l33 190 q1 2 -0.5 4 q-1.5 2 -3.5 2 l-265 0 q-2 0 -3.5 -2 q-1.5 -2 -2.5 -4 l-34 -190 Z" /><glyph glyph-name="" unicode="&#x4e86;" d="M559 449 q2 8 6.5 15.5 q4.5 7.5 12 14 q7.5 6.5 15.5 9.5 l0 1 l1 1 q4 9 11.5 17.5 q7.5 8.5 17.5 14.5 q43 23 87.5 50 q44.5 27 85.5 56 q39 27 74 55 l-591 0 q-7 0 -14.5 3 q-7.5 3 -12.5 9.5 q-5 6.5 -7.5 14 q-2.5 7.5 -0.5 14.5 q1 9 6 16 q5 7 12.5 13 q7.5 6 15.5 9 q8 3 16 3 l632 0 q8 0 15 -3 q3 -1 6 -3 q1 0 2 1 q6 5 14 5 q2 0 4 0.5 q2 0.5 4 1.5 l1 0 q6 1 14 -0.5 q8 -1.5 13 -5.5 l12 -11 q6 -5 8.5 -13 q2.5 -8 1.5 -17 q-1 -9 -4.5 -17.5 q-3.5 -8.5 -11.5 -14.5 q-38 -33 -81.5 -65.5 q-43.5 -32.5 -90 -63.5 q-46.5 -31 -93.5 -58 q-47 -28 -93 -50 l0 -2 l-75 -426 q-7 -40 -22.5 -60.5 q-15.5 -20.5 -48.5 -30.5 q-28 -8 -71 -11 q-43 -3 -106 -3 q-14 0 -25 9.5 q-11 9.5 -14 20.5 q-4 22 11 38 q15 16 40 15 q42 -1 70.5 -1 q28.5 0 45.5 1 q16 1 23 5.5 q7 4.5 9 18.5 l75 424 Z" /><glyph glyph-name="" unicode="&#x4e88;" d="M547 362 q1 8 6 16 q3 4 7 9 l-377 0 q-7 0 -14.5 3.5 q-7.5 3.5 -12.5 9 q-5 5.5 -7.5 12.5 q-2.5 7 -1.5 15 q2 7 6.5 14.5 q4.5 7.5 12 13 q7.5 5.5 16 9 q8.5 3.5 16.5 3.5 l464 0 q-3 2 -6 3 q-31 17 -64.5 34.5 q-33.5 17.5 -68.5 35 q-35 17.5 -68 32.5 q-9 4 -14.5 10.5 q-5.5 6.5 -7 15.5 q-1.5 9 1 17.5 q2.5 8.5 8.5 15.5 q8 9 22.5 13 q14.5 4 25.5 0 q33 -15 69 -31.5 q36 -16.5 71 -33.5 q1 -1 3 -2 l6 8 q8 8 17 14 q32 18 65 38.5 q33 20.5 64 42.5 q21 15 41 30 l-492 0 q-8 0 -15.5 3 q-7.5 3 -12.5 9 q-5 6 -7 12.5 q-2 6.5 -1 14.5 q1 7 6 14 q5 7 12 12.5 q7 5.5 15.5 8.5 q8.5 3 16.5 3 l541 0 q9 0 16 -3 q1 0 1 -1 q6 4 13 4 q2 0 4.5 0.5 q2.5 0.5 3.5 1.5 q7 1 14.5 -1 q7.5 -2 12.5 -6 l8 -7 q6 -6 8.5 -14 q2.5 -8 1.5 -17 q-1 -9 -5.5 -17.5 q-4.5 -8.5 -12.5 -14.5 q-31 -25 -64.5 -49 q-33.5 -24 -69 -47.5 q-35.5 -23.5 -70.5 -43.5 q-25 -15 -49 -29 q31 -15 56 -28 q8 -4 13.5 -11 q5.5 -7 6.5 -15 q1 -8 -1 -18 q-1 -2 -1 -4 l169 0 q8 0 15 -3 l1 -1 q1 0 1 1 q5 3 9 3 q2 0 4.5 0.5 q2.5 0.5 4.5 1.5 q5 1 11 1 q6 0 11 -3 l15 -7 q7 -3 11.5 -9.5 q4.5 -6.5 6 -14.5 q1.5 -8 0 -16.5 q-1.5 -8.5 -7.5 -15.5 q-40 -49 -83 -97 q-43 -48 -83 -85 q-4 -5 -11.5 -8.5 q-7.5 -3.5 -15 -5 q-7.5 -1.5 -14.5 -1 q-7 0.5 -12 4.5 l-2 0 q-6 5 -9.5 12.5 q-3.5 7.5 -3.5 16 q0 8.5 3 17.5 q3 9 9 16 q38 37 77 83 l24 30 l-277 0 q3 -5 4 -10 q2 -8 1 -16 l-60 -342 q-7 -37 -21.5 -56 q-14.5 -19 -44.5 -29 q-25 -7 -62 -9.5 q-37 -2.5 -91 -3.5 q-13 0 -24 9 q-11 9 -14 20 q-4 20 11 35.5 q15 15.5 39 14.5 l56 0 q21 0 36 1 q15 1 20.5 5 q5.5 4 7.5 15 l60 341 Z" /><glyph glyph-name="" unicode="&#x4e89;" d="M558 497 q2 5 4 11 l-226 0 q-8 0 -15.5 3 q-7.5 3 -13 8.5 q-5.5 5.5 -7.5 11.5 q-2 6 -2 12 q-10 -6 -21 -13 q-14 -10 -30.5 -8.5 q-16.5 1.5 -23.5 10.5 q-12 14 -4.5 34 q7.5 20 29.5 35 q79 49 141 106 q62 57 105 110 q9 10 23.5 16.5 q14.5 6.5 25.5 4.5 l5 -1 q11 -2 17.5 -8.5 q6.5 -6.5 8 -15 q1.5 -8.5 -0.5 -18 q-2 -9.5 -11 -18.5 q-7 -9 -16 -18 l226 0 q9 0 15 -3 q7 -3 13 -8 q1 4 6 7 q5 4 11 4 q2 0 4 0.5 q2 0.5 4 0.5 q5 1 12 -0.5 q7 -1.5 11 -5.5 l9 -8 q6 -4 9 -11.5 q3 -7.5 3 -16 q0 -8.5 -3.5 -16.5 q-3.5 -8 -9.5 -15 q-32 -36 -71 -72 q-18 -17 -37 -33 l161 0 q8 0 14.5 -3.5 q6.5 -3.5 12 -9.5 q5.5 -6 7 -14 q1.5 -8 1.5 -17 l-24 -133 l91 0 q8 0 15 -3 q7 -3 12.5 -8.5 q5.5 -5.5 8 -12 q2.5 -6.5 0.5 -14.5 q-1 -7 -5.5 -14 q-4.5 -7 -12 -12.5 q-7.5 -5.5 -15.5 -8.5 q-8 -3 -17 -3 l-91 0 l-25 -141 q-1 -9 -6 -17 q-5 -8 -11.5 -14 q-6.5 -6 -14.5 -9.5 q-8 -3.5 -16 -3.5 q-7 0 -13 2 q-8 -3 -16 -3 l-222 0 l-22 -124 q-7 -37 -21 -56.5 q-14 -19.5 -44 -29.5 q-24 -8 -60.5 -10.5 q-36.5 -2.5 -90.5 -2.5 q-13 0 -24 8.5 q-11 8.5 -13 18.5 q-5 21 10 36 q15 15 41 15 q33 -1 53 -1 q20 0 34 1 q16 1 21.5 6 q5.5 5 8.5 16 l21 123 l-264 0 q-9 0 -16 3 q-7 3 -12.5 9 q-5.5 6 -8 13 q-2.5 7 -0.5 14 q1 7 5.5 13.5 q4.5 6.5 12 12 q7.5 5.5 16 9 q8.5 3.5 16.5 3.5 l265 0 l19 109 l-367 0 q-8 0 -15 3 q-7 3 -12.5 8.5 q-5.5 5.5 -8 12.5 q-2.5 7 -1.5 14 q2 8 6.5 14.5 q4.5 6.5 12 12 q7.5 5.5 16 8.5 q8.5 3 15.5 3 l367 0 l16 92 ZM656 582 q2 5 4 9 q7 10 14 17 q34 30 66 65 q6 6 12 13 l-229 0 q-13 0 -21 5 q-8 4 -10 11 q-27 -26 -56 -52 q-39 -35 -82 -68 l302 0 ZM824 329 l-210 0 l-19 -109 l210 0 l19 109 ZM628 405 l210 0 l17 97 q0 2 -1.5 4 q-1.5 2 -3.5 2 l-205 0 q0 -6 -1 -11 l-16 -92 Z" /><glyph glyph-name="" unicode="&#x4e8b;" d="M615 799 q2 8 6.5 16 q4.5 8 12 14 q7.5 6 15.5 9.5 q8 3.5 15 3.5 l2 0 q8 0 14.5 -3.5 q6.5 -3.5 11.5 -9.5 q5 -6 7.5 -14 q2.5 -8 0.5 -16 l-6 -34 l354 0 q17 0 28.5 -10.5 q11.5 -10.5 8.5 -23.5 q-2 -13 -17 -23.5 q-15 -10.5 -32 -10.5 l-354 0 l-10 -56 l254 0 q8 0 15 -4 q7 -4 12.5 -10 q5.5 -6 7.5 -14 q2 -8 1 -16 l-17 -94 q-1 -8 -6 -16 q-5 -8 -12.5 -14 q-7.5 -6 -16 -9.5 q-8.5 -3.5 -16.5 -3.5 l-254 0 l-12 -66 l270 0 q8 0 15.5 -3.5 q7.5 -3.5 12.5 -10 q5 -6.5 7 -14.5 q2 -8 1 -16 l-14 -81 l62 0 q15 0 27 -10 q12 -10 10 -22 q-3 -13 -18 -23.5 q-15 -10.5 -31 -10.5 l-62 0 l-24 -134 q-1 -8 -5.5 -16 q-4.5 -8 -12 -14.5 q-7.5 -6.5 -15 -10 q-7.5 -3.5 -16.5 -3.5 l-1 0 q-8 0 -14.5 3.5 q-6.5 3.5 -12 10 q-5.5 6.5 -7 14.5 q-1.5 8 -0.5 16 l-229 0 l-11 -61 q-6 -37 -20 -54 q-14 -17 -40 -26 q-22 -8 -55 -10 q-33 -2 -83 -2 q-13 -1 -24 6.5 q-11 7.5 -13 16.5 q-3 18 12.5 31.5 q15.5 13.5 40.5 12.5 l41 0 q15 0 28 1 q14 1 20 6 q6 5 8 18 l11 61 l-276 0 q-18 0 -29.5 10.5 q-11.5 10.5 -9.5 22.5 q2 12 17.5 21.5 q15.5 9.5 32.5 9.5 l276 0 l13 70 l-366 0 q-15 0 -26.5 10.5 q-11.5 10.5 -9.5 23.5 q2 12 17.5 22 q15.5 10 30.5 10 l365 0 l12 65 l-268 0 q-17 0 -29 9 q-12 9 -10 21 q3 11 18 20.5 q15 9.5 31 9.5 l268 0 l12 66 l-240 0 q-8 0 -15.5 3.5 q-7.5 3.5 -12.5 9.5 q-5 6 -7 14 q-2 8 -1 16 l17 94 q1 8 6 16 q5 8 12 14 q7 6 16 10 q9 4 17 4 l240 0 l10 56 l-344 0 q-17 0 -28.5 10.5 q-11.5 10.5 -9.5 23.5 q2 13 17.5 23.5 q15.5 10.5 32.5 10.5 l344 0 l6 34 ZM595 203 l-13 -70 l229 0 l12 70 l-228 0 ZM618 334 l-12 -65 l229 0 l10 59 q1 2 -0.5 4 q-1.5 2 -4.5 2 l-222 0 ZM662 584 l-12 -67 l206 0 q3 0 5.5 2 q2.5 2 2.5 4 l10 55 q0 2 -1.5 4 q-1.5 2 -4.5 2 l-206 0 ZM380 584 q-2 0 -4.5 -2 q-2.5 -2 -2.5 -4 l-10 -55 q0 -2 1.5 -4 q1.5 -2 3.5 -2 l197 0 l12 67 l-197 0 Z" /><glyph glyph-name="" unicode="&#x4e8c;" d="M88 68 q2 8 6.5 15 q4.5 7 12 13 q7.5 6 15.5 9.5 q8 3.5 16 3.5 l804 0 q8 0 15 -3.5 q7 -3.5 12 -9.5 q5 -6 7.5 -13 q2.5 -7 0.5 -15 l-2 -12 q-1 -7 -6 -14.5 q-5 -7.5 -12.5 -13.5 q-7.5 -6 -15.5 -9.5 q-8 -3.5 -16 -3.5 l-804 0 q-7 0 -14 3.5 q-7 3.5 -12.5 9.5 q-5.5 6 -7.5 13.5 q-2 7.5 -1 14.5 l2 12 ZM277 658 q1 8 6 15.5 q5 7.5 12 13.5 q7 6 15.5 9.5 q8.5 3.5 16.5 3.5 l634 0 q8 0 15.5 -3.5 q7.5 -3.5 12 -9.5 q4.5 -6 7 -13.5 q2.5 -7.5 1.5 -15.5 l-2 -7 q-1 -8 -6 -15.5 q-5 -7.5 -12 -13.5 q-7 -6 -15.5 -9.5 q-8.5 -3.5 -16.5 -3.5 l-634 0 q-8 0 -15.5 3.5 q-7.5 3.5 -12.5 9.5 q-5 6 -7 13.5 q-2 7.5 0 15.5 l1 7 Z" /><glyph glyph-name="" unicode="&#x4e8e;" d="M145 403 q1 8 6 15.5 q5 7.5 12.5 13.5 q7.5 6 15.5 9.5 q8 3.5 16 3.5 l369 0 l43 244 l-300 0 q-8 0 -14.5 3.5 q-6.5 3.5 -12 9.5 q-5.5 6 -8 13.5 q-2.5 7.5 -0.5 14.5 q1 9 6 16 q5 7 12 13 q7 6 15.5 9.5 q8.5 3.5 16.5 3.5 l669 0 q8 0 15 -3.5 q7 -3.5 12 -9.5 q5 -6 7.5 -13 q2.5 -7 0.5 -16 q-1 -7 -5.5 -14.5 q-4.5 -7.5 -12 -13.5 q-7.5 -6 -16 -9.5 q-8.5 -3.5 -16.5 -3.5 l-281 0 l-43 -244 l351 0 q8 0 15 -3.5 q7 -3.5 12 -9.5 q5 -6 7.5 -13.5 q2.5 -7.5 0.5 -15.5 q-1 -8 -6 -15 q-5 -7 -12.5 -13 q-7.5 -6 -15.5 -9.5 q-8 -3.5 -16 -3.5 l-351 0 l-57 -325 q-8 -44 -24 -66 q-16 -22 -49 -32 q-27 -9 -69.5 -12 q-42.5 -3 -106.5 -4 q-13 0 -24.5 9.5 q-11.5 9.5 -14.5 21.5 q-4 22 11 39 q15 17 40 17 q41 -2 69 -1.5 q28 0.5 45 1.5 q17 0 24.5 5.5 q7.5 5.5 10.5 21.5 l57 325 l-369 0 q-7 0 -14.5 3.5 q-7.5 3.5 -12.5 9.5 q-5 6 -7.5 13 q-2.5 7 -0.5 15 Z" /><glyph glyph-name="" unicode="&#x4e91;" d="M152 442 q2 8 7 15 q5 7 11.5 13 q6.5 6 15 9.5 q8.5 3.5 16.5 3.5 l808 0 q7 0 14 -3.5 q7 -3.5 12.5 -9.5 q5.5 -6 7.5 -13 q2 -7 1 -15 l-1 -4 q-1 -7 -6 -14.5 q-5 -7.5 -12 -13.5 q-7 -6 -15 -9.5 q-8 -3.5 -16 -3.5 l-434 0 q-2 -8 -8 -15 q-76 -105 -160 -201 q-56 -64 -109 -117 l490 36 l-32 64 q-19 36 -37 70 q-4 7 -3.5 16 q0.5 9 4 18 q3.5 9 10 16.5 q6.5 7.5 14.5 11.5 l5 2 q13 6 28 2 q15 -4 21 -15 q20 -35 40 -72.5 q20 -37.5 38.5 -74.5 q18.5 -37 35 -73 q16.5 -36 29.5 -66 q2 -7 1 -15.5 q-1 -8.5 -4 -16.5 q-3 -8 -8.5 -15 q-5.5 -7 -12.5 -10 l-9 -5 q-7 -4 -16 -4.5 q-9 -0.5 -17 2.5 q-8 3 -14.5 8.5 q-6.5 5.5 -10.5 13.5 q-11 30 -26 64 q-1 2 -2 5 q-1 -1 -2 -1 q-9 -5 -20 -6 q-145 -12 -244 -20.5 q-99 -8.5 -165 -14 q-66 -5.5 -105 -10 q-39 -4.5 -62 -7.5 q-11 -1 -20.5 1 q-9.5 2 -16.5 7 q-5 4 -8 8 q-7 2 -13 8 q-5 6 -7 15 q-2 8 0.5 17 q2.5 9 8.5 18.5 q6 9.5 13.5 18 q7.5 8.5 15.5 15.5 l6 6 q2 2 6 5.5 q4 3.5 11 11.5 q7 8 21 23 q14 13 40.5 43.5 q26.5 30.5 59.5 71 q33 40.5 69 88.5 q27 36 52 73 l-261 0 q-8 0 -15 3.5 q-7 3.5 -12 9.5 q-5 6 -7.5 13.5 q-2.5 7.5 -1.5 14.5 l1 4 ZM312 723 q1 8 6 15.5 q5 7.5 12 13.5 q7 6 16 9 q9 3 17 3 l592 0 q8 0 15 -3 q7 -3 12.5 -9 q5.5 -6 7.5 -13.5 q2 -7.5 1 -15.5 l-1 -2 q-1 -8 -6 -15.5 q-5 -7.5 -12.5 -13.5 q-7.5 -6 -15.5 -9.5 q-8 -3.5 -16 -3.5 l-593 0 q-7 0 -14.5 3.5 q-7.5 3.5 -12.5 9.5 q-5 6 -7.5 13.5 q-2.5 7.5 -1.5 15.5 l1 2 Z" /><glyph glyph-name="" unicode="&#x4e92;" d="M236 748 q1 7 6 14.5 q5 7.5 12 13 q7 5.5 15.5 9 q8.5 3.5 16.5 3.5 l752 0 q8 0 15.5 -3.5 q7.5 -3.5 13 -9 q5.5 -5.5 7.5 -13 q2 -7.5 1 -14.5 q-1 -8 -6 -15 q-5 -7 -12 -13 q-7 -6 -16 -9.5 q-9 -3.5 -17 -3.5 l-499 0 q1 -5 2 -11 q0 -9 -2 -18 q-21 -57 -43 -118 q-1 -5 -3 -9 l314 0 q9 0 16 -3 l1 1 q2 2 4 2 q2 0 4 0.5 q2 0.5 3 1.5 l7 1 q2 0 5 0.5 q3 0.5 4 -0.5 l16 -1 q8 -1 14.5 -5.5 q6.5 -4.5 10.5 -11.5 q4 -7 5.5 -15 q1.5 -8 -1.5 -15 q-14 -49 -31 -106.5 q-17 -57.5 -35.5 -118 q-18.5 -60.5 -38 -122 q-19.5 -61.5 -37.5 -115.5 q-2 -5 -5 -10 l202 0 q8 0 15 -3.5 q7 -3.5 12 -9 q5 -5.5 7.5 -12.5 q2.5 -7 0.5 -15 q-1 -8 -6 -15.5 q-5 -7.5 -12.5 -13.5 q-7.5 -6 -15.5 -9 q-8 -3 -16 -3 l-816 0 q-8 0 -15 3 q-7 3 -12.5 9 q-5.5 6 -7.5 13.5 q-2 7.5 0 15.5 q1 8 6 15 q5 7 12 12.5 q7 5.5 15.5 9 q8.5 3.5 15.5 3.5 l537 0 q-1 3 -1 7 q-1 9 2 18 q20 60 41 127 q1 2 1 3 l-349 0 q-8 0 -15 4 q-4 1 -7 3 q-12 -7 -22 -7 l-8 0 q-11 0 -18 4.5 q-7 4.5 -11.5 12 q-4.5 7.5 -4.5 17 q0 9.5 4 19.5 q20 47 42 103 q22 56 44.5 115.5 q22.5 59.5 44 119 q21.5 59.5 39.5 112.5 q3 8 9 15 l-176 0 q-8 0 -15 3.5 q-7 3.5 -12.5 9.5 q-5.5 6 -8 13 q-2.5 7 -0.5 15 ZM787 473 l-337 0 q-6 -18 -13 -35 q-23 -60 -44 -116 q-11 -29 -22 -54 l341 0 q6 0 12 -2 l16 52 q20 65 37 122 q6 18 10 33 Z" /><glyph glyph-name="" unicode="&#x4e94;" d="M263 705 q1 8 5.5 15 q4.5 7 12 13 q7.5 6 15.5 9.5 q8 3.5 16 3.5 l674 0 q8 0 15 -3.5 q7 -3.5 12 -9.5 q5 -6 7.5 -13 q2.5 -7 1.5 -15 q-2 -8 -7 -15.5 q-5 -7.5 -12.5 -13.5 q-7.5 -6 -15 -9.5 q-7.5 -3.5 -16.5 -3.5 l-340 0 q-25 -75 -52 -158 l-18 -50 l219 0 q7 0 14 -3 q2 3 4 3 q1 0 3.5 0.5 q2.5 0.5 4.5 0.5 l6 1 q2 0 4.5 0.5 q2.5 0.5 4.5 0.5 l19 -1 q8 -1 14 -5.5 q6 -4.5 10.5 -10.5 q4.5 -6 6.5 -13.5 q2 -7.5 0 -16.5 q-10 -40 -22 -87 q-12 -47 -25.5 -95.5 q-13.5 -48.5 -26.5 -96.5 q-11 -40 -22 -77 l159 0 q8 0 15 -3.5 q7 -3.5 12 -10 q5 -6.5 7.5 -13.5 q2.5 -7 1.5 -15 q-2 -8 -6.5 -15 q-4.5 -7 -12 -13 q-7.5 -6 -16 -10 q-8.5 -4 -16.5 -4 l-806 0 q-8 0 -14.5 4 q-6.5 4 -11.5 10 q-5 6 -7.5 13 q-2.5 7 -1.5 15 q2 8 6.5 15 q4.5 7 12 13.5 q7.5 6.5 15.5 10 q8 3.5 16 3.5 l201 0 q0 1 1 2 q24 63 52 140.5 q28 77.5 56 159.5 q3 8 5 16 l-141 0 q-7 0 -14.5 3.5 q-7.5 3.5 -12.5 9 q-5 5.5 -7.5 13 q-2.5 7.5 -1.5 15.5 q2 8 6.5 15 q4.5 7 12 13 q7.5 6 16 9.5 q8.5 3.5 16.5 3.5 l154 0 q11 33 22 67 q24 74 45 141 l-240 0 q-8 0 -15 3.5 q-7 3.5 -12 9.5 q-5 6 -7.5 13.5 q-2.5 7.5 -0.5 15.5 ZM686 55 q14 48 28 99 q15 53 29 105 q14 52 25 100 l4 14 l-238 0 q-6 -18 -12 -35 q-29 -84 -57 -160 q-24 -68 -45 -123 l266 0 Z" /><glyph glyph-name="" unicode="&#x4e9a;" d="M65 16 q1 7 6 14.5 q5 7.5 12 13 q7 5.5 15.5 9 q8.5 3.5 16.5 3.5 l242 0 l113 644 l-212 0 q-8 0 -15 3.5 q-7 3.5 -12.5 9.5 q-5.5 6 -7.5 13.5 q-2 7.5 -1 14.5 q2 8 7 15.5 q5 7.5 12 13.5 q7 6 15.5 9.5 q8.5 3.5 15.5 3.5 l776 0 q8 0 15 -3.5 q7 -3.5 12.5 -9.5 q5.5 -6 7.5 -13.5 q2 -7.5 1 -15.5 q-2 -7 -6.5 -14.5 q-4.5 -7.5 -12 -13.5 q-7.5 -6 -16 -9.5 q-8.5 -3.5 -16.5 -3.5 l-230 0 l-113 -644 l254 0 q8 0 15 -3.5 q7 -3.5 12 -9 q5 -5.5 7.5 -13 q2.5 -7.5 0.5 -14.5 q-1 -8 -5.5 -15 q-4.5 -7 -12 -13 q-7.5 -6 -15.5 -9.5 q-8 -3.5 -16 -3.5 l-829 0 q-8 0 -15.5 3.5 q-7.5 3.5 -12.5 9.5 q-5 6 -7 13 q-2 7 -1 15 ZM600 56 l113 644 l-152 0 l-114 -644 l153 0 ZM930 519 q4 9 11.5 16 q7.5 7 15.5 11 q8 4 17 5.5 q9 1.5 17 -1.5 l1 0 q6 -3 10.5 -8.5 q4.5 -5.5 7 -13 q2.5 -7.5 2 -16 q-0.5 -8.5 -5.5 -15.5 q-19 -32 -40 -66.5 q-21 -34.5 -43 -68 q-22 -33.5 -43.5 -65 q-21.5 -31.5 -42.5 -59.5 q-4 -7 -10.5 -12.5 q-6.5 -5.5 -14 -8.5 q-7.5 -3 -15.5 -3.5 q-8 -0.5 -14 1.5 q-8 3 -12 9 q-4 6 -5.5 14.5 q-1.5 8.5 0 17 q1.5 8.5 5.5 16.5 q20 27 41 58 q21 31 41.5 63 q20.5 32 40 64.5 q19.5 32.5 36.5 61.5 ZM204 497 q-1 7 1 16 q2 9 6 16.5 q4 7.5 10 13.5 q6 6 14 9 q7 2 15 1 q8 -1 14 -4.5 q6 -3.5 11 -9 q5 -5.5 7 -12.5 q11 -32 20 -66.5 q9 -34.5 17.5 -68.5 q8.5 -34 15.5 -66.5 q7 -32.5 12 -59.5 q2 -7 -0.5 -14.5 q-2.5 -7.5 -7 -15 q-4.5 -7.5 -10.5 -13 q-6 -5.5 -13 -8.5 l-2 -1 q-9 -3 -18 -2 q-9 1 -16 5 q-7 4 -12 11 q-5 7 -6 16 q-4 28 -10 59 q-6 31 -13.5 63.5 q-7.5 32.5 -16.5 66 q-9 33.5 -18 64.5 Z" /><glyph glyph-name="" unicode="&#x4e9b;" d="M126 340 q0 8 4 16 q4 8 11 14.5 q7 6.5 15 11 q8 4.5 17 4.5 q12 2 24 3 l0 2 q-2 8 -1 17 l50 282 q1 9 5.5 16.5 q4.5 7.5 11.5 13.5 q7 6 14.5 10 q7.5 4 15.5 4 q7 0 13 -4 q6 -4 10.5 -10 q4.5 -6 6.5 -13.5 q2 -7.5 1 -15.5 l-51 -285 q-1 -4 -2 -9 q37 4 78 9 q5 1 11 1 q-2 8 -1 16 l67 375 q2 9 6.5 16.5 q4.5 7.5 11.5 13.5 q7 6 15 10 q8 4 16 4 q8 0 14.5 -4 q6.5 -4 11.5 -10 q5 -6 7 -13.5 q2 -7.5 0 -15.5 l-22 -125 l106 0 q8 0 15.5 -3 q7.5 -3 12.5 -8.5 q5 -5.5 8 -12 q3 -6.5 1.5 -14 q-1.5 -7.5 -6.5 -14 q-5 -6.5 -12 -12.5 q-7 -6 -15.5 -9 q-8.5 -3 -16.5 -3 l-106 0 l-31 -175 q0 -3 -2 -6 q56 6 113 13 q9 1 16.5 -2 q7.5 -3 14 -8 q6.5 -5 9.5 -12 q3 -7 1 -15 q-2 -14 -16 -26 q-14 -12 -28 -14 q-103 -13 -203.5 -26 q-100.5 -13 -180.5 -22 q-8 -1 -15.5 1.5 q-7.5 2.5 -13.5 7.5 q-6 5 -9.5 11.5 q-3.5 6.5 -1.5 14.5 ZM708 798 q2 9 6.5 16.5 q4.5 7.5 12 13.5 q7.5 6 15.5 10 q8 4 15 4 l1 0 q8 0 15 -4 q7 -4 11.5 -10 q4.5 -6 7 -13.5 q2.5 -7.5 0.5 -16.5 l-27 -151 l46 16 q29 11 57 22 q28 11 53 22 q25 11 46 23 q12 4 27 2.5 q15 -1.5 22 -10.5 l2 -2 q6 -8 7 -17.5 q1 -9.5 -2 -18 q-3 -8.5 -11 -16 q-8 -7.5 -18 -11.5 q-54 -24 -115 -45.5 q-61 -21.5 -121 -39.5 q-3 -1 -6 -1 l-21 -119 q-5 -27 2.5 -35 q7.5 -8 41.5 -8 l147 0 q9 0 16.5 2.5 q7.5 2.5 12.5 9.5 q5 7 10 19 q5 12 10 32 q10 7 18.5 16 q8.5 9 16.5 16 q8 7 16 10.5 q8 3.5 17 -0.5 q10 -4 15.5 -18 q5.5 -14 0.5 -27 q-13 -41 -24 -67.5 q-11 -26.5 -26.5 -42.5 q-15.5 -16 -36.5 -22.5 q-21 -6.5 -54 -6.5 l-162 0 q-38 0 -61.5 6 q-23.5 6 -35 19.5 q-11.5 13.5 -13 37 q-1.5 23.5 5.5 59.5 l60 346 ZM71 -16 q2 8 7 15.5 q5 7.5 12 13.5 q7 6 15.5 9 q8.5 3 17.5 3 l804 0 q9 0 16 -3 q7 -3 12.5 -9 q5.5 -6 7.5 -13.5 q2 -7.5 1 -15.5 q-1 -8 -6 -15.5 q-5 -7.5 -12.5 -13.5 q-7.5 -6 -15.5 -9.5 q-8 -3.5 -17 -3.5 l-805 0 q-8 0 -15.5 3.5 q-7.5 3.5 -12.5 9.5 q-5 6 -7.5 13.5 q-2.5 7.5 -1.5 15.5 ZM223 202 q1 8 6.5 15 q5.5 7 12.5 12.5 q7 5.5 15.5 9 q8.5 3.5 16.5 3.5 l589 0 q8 0 15.5 -3.5 q7.5 -3.5 13 -9 q5.5 -5.5 7.5 -12.5 q2 -7 1 -15 q-1 -8 -6 -15 q-5 -7 -12.5 -13 q-7.5 -6 -15.5 -9.5 q-8 -3.5 -17 -3.5 l-589 0 q-8 0 -15.5 3.5 q-7.5 3.5 -13 9.5 q-5.5 6 -7.5 13 q-2 7 -1 15 Z" /><glyph glyph-name="" unicode="&#x4ea4;" d="M720 391 q9 13 27 21.5 q18 8.5 30 3.5 l3 -1 q9 -2 14 -8.5 q5 -6.5 7 -14 q2 -7.5 0.5 -17 q-1.5 -9.5 -7.5 -17.5 q-56 -88 -126 -156 q-27 -27 -56 -51 q2 -2 5 -4 q113 -93 295 -134 q25 -6 30 -24 q5 -18 -11 -39 q-7 -10 -22 -16 q-15 -6 -27 -3 q-100 22 -181.5 59.5 q-81.5 37.5 -142.5 90.5 q-10 8 -18 16 q-12 -9 -24 -16 q-83 -53 -177.5 -91 q-94.5 -38 -200.5 -65 q-13 -3 -27.5 3 q-14.5 6 -18.5 16 q-5 10 -3.5 20 q1.5 10 6.5 18 q5 8 14.5 14.5 q9.5 6.5 20.5 9.5 q99 23 185.5 57 q86.5 34 160.5 81 q6 4 13 8 q-20 24 -36 50 q-43 69 -69 153 q-2 8 -1 17 q1 9 5 16.5 q4 7.5 11.5 13.5 q7.5 6 15.5 9 q7 2 13.5 0.5 q6.5 -1.5 13 -5.5 q6.5 -4 11.5 -9 q5 -5 8 -12 q31 -104 98 -181 q27 23 53 48 q61 62 108 139 ZM202 665 q2 8 7 15.5 q5 7.5 12 13 q7 5.5 15.5 9 q8.5 3.5 16.5 3.5 l386 0 q-1 0 -2 1 q-8 3 -13 9.5 q-5 6.5 -8 14.5 q-3 11 -8 23.5 q-5 12.5 -12 24.5 q-3 9 -1.5 18.5 q1.5 9.5 6 18 q4.5 8.5 12 15.5 q7.5 7 16.5 10 l3 0 q12 5 26 -0.5 q14 -5.5 19 -16.5 q7 -16 14.5 -33.5 q7.5 -17.5 12.5 -32.5 q2 -7 0.5 -15 q-1.5 -8 -5.5 -15.5 q-4 -7.5 -11 -13.5 q-6 -5 -13 -8 l360 0 q8 0 15 -3.5 q7 -3.5 12 -9 q5 -5.5 7.5 -13 q2.5 -7.5 0.5 -15.5 q-1 -8 -6 -15 q-5 -7 -12 -13 q-7 -6 -15.5 -9.5 q-8.5 -3.5 -15.5 -3.5 l-783 0 q-7 0 -14.5 3.5 q-7.5 3.5 -12.5 9.5 q-5 6 -7.5 13 q-2.5 7 -1.5 15 ZM771 517 q-8 6 -11 15 q-3 9 -1.5 18.5 q1.5 9.5 6.5 18 q5 8.5 14 13.5 q10 7 24.5 7 q14.5 0 21.5 -6 q24 -18 48 -39 q24 -21 47 -43 q23 -22 43 -43.5 q20 -21.5 36 -41.5 q6 -5 7 -13.5 q1 -8.5 -0.5 -17 q-1.5 -8.5 -6.5 -16 q-5 -7.5 -12 -12.5 l-4 -2 q-14 -11 -32 -8.5 q-18 2.5 -28 13.5 q-13 18 -30.5 38 q-17.5 20 -37.5 40.5 q-20 20.5 -41 40.5 q-21 20 -43 38 ZM416 574 q8 9 23.5 13 q15.5 4 25.5 -1 l4 -1 q8 -3 12.5 -10.5 q4.5 -7.5 5 -16.5 q0.5 -9 -3.5 -18.5 q-4 -9.5 -13 -16.5 q-51 -47 -110.5 -91.5 q-59.5 -44.5 -115.5 -79.5 q-13 -7 -28.5 -6 q-15.5 1 -22.5 10 q-13 15 -6 36 q7 21 29 34 q53 31 105 69.5 q52 38.5 95 78.5 Z" /><glyph glyph-name="" unicode="&#x4ea6;" d="M191 631 q1 8 6 15.5 q5 7.5 12.5 13 q7.5 5.5 16 9 q8.5 3.5 16.5 3.5 l794 0 q9 0 16 -3.5 q7 -3.5 12 -9 q5 -5.5 7 -13 q2 -7.5 2 -15.5 q-2 -7 -7 -14.5 q-5 -7.5 -12 -14 q-7 -6.5 -15.5 -9.5 q-8.5 -3 -17.5 -3 l-219 0 l0 -1 q2 -8 1 -16 l-97 -548 q-7 -39 -20.5 -59 q-13.5 -20 -40.5 -31 q-24 -8 -58.5 -10.5 q-34.5 -2.5 -84.5 -3.5 q-14 -1 -25 9 q-11 10 -13 21 q-3 21 12.5 37 q15.5 16 40.5 16 q28 -1 45.5 -1 q17.5 0 31.5 1 q13 0 18.5 4.5 q5.5 4.5 7.5 16.5 l97 548 q1 8 6 16 l0 1 l-162 0 l0 -13 l-18 -101 q-11 -62 -29.5 -131 q-18.5 -69 -54 -139 q-35.5 -70 -91 -138 q-55.5 -68 -141.5 -128 q-7 -6 -15.5 -8.5 q-8.5 -2.5 -16.5 -2 q-8 0.5 -15 3.5 q-7 3 -11 8 q-11 14 -5.5 34.5 q5.5 20.5 23.5 35.5 q75 54 122.5 112 q47.5 58 77.5 117.5 q30 59.5 45.5 119.5 q15.5 60 25.5 117 l18 101 q1 6 4 12 l-253 0 q-8 0 -15.5 3 q-7.5 3 -12.5 9.5 q-5 6.5 -7.5 14 q-2.5 7.5 -0.5 14.5 ZM840 416 q-3 8 -2.5 17 q0.5 9 4.5 17.5 q4 8.5 10.5 15 q6.5 6.5 15.5 10.5 q7 3 13.5 2.5 q6.5 -0.5 13.5 -3.5 q7 -3 11.5 -7 q4.5 -4 7.5 -10 q14 -31 26.5 -65 q12.5 -34 22.5 -68 q10 -34 18 -66 q8 -32 12 -60 q3 -12 -6.5 -27 q-9.5 -15 -23.5 -20 l-1 -1 q-9 -4 -18.5 -3.5 q-9.5 0.5 -17 5 q-7.5 4.5 -13 12 q-5.5 7.5 -6.5 16.5 q-5 25 -11.5 54.5 q-6.5 29.5 -15.5 59.5 q-9 30 -19 61 q-10 31 -21 60 ZM273 447 q4 7 10.5 14 q6.5 7 14.5 11.5 q8 4.5 16 6.5 q8 2 16 0 l1 0 q8 -2 13.5 -7 q5.5 -5 8.5 -12.5 q3 -7.5 3 -15.5 q0 -8 -4 -17 q-32 -66 -70 -127.5 q-38 -61.5 -78 -109.5 q-7 -7 -14.5 -11.5 q-7.5 -4.5 -15.5 -6 q-8 -1.5 -16 -0.5 q-8 1 -13 5 q-7 4 -10 12.5 q-3 8.5 -2.5 17.5 q0.5 9 3.5 18.5 q3 9.5 10 18.5 q36 43 68.5 95 q32.5 52 58.5 108 ZM597 778 q-3 8 -1.5 17.5 q1.5 9.5 6 18 q4.5 8.5 12 15 q7.5 6.5 16.5 9.5 l4 1 q12 4 26 -1.5 q14 -5.5 17 -17.5 q10 -19 19.5 -39.5 q9.5 -20.5 14.5 -38.5 q3 -7 1.5 -15.5 q-1.5 -8.5 -6 -16.5 q-4.5 -8 -11 -14 q-6.5 -6 -15.5 -9 l-3 -1 q-8 -3 -16.5 -2 q-8.5 1 -16 4.5 q-7.5 3.5 -13 9.5 q-5.5 6 -6.5 14 q-5 14 -12 32 q-7 18 -16 34 Z" /><glyph glyph-name="" unicode="&#x4ea7;" d="M216 422 q2 8 6.5 16 q4.5 8 12 14 q7.5 6 15 9.5 q7.5 3.5 15.5 3.5 l4 0 q8 0 15 -3 l6 -4 q4 2 9 4 q8 3 16 3 l411 0 l0 4 q-1 8 1 17.5 q2 9.5 7 17.5 q15 19 31.5 43.5 q16.5 24.5 28.5 45.5 q5 8 12.5 14 q7.5 6 15.5 9.5 q8 3.5 17 4.5 q9 1 16 -1 l1 0 q9 -4 14 -10.5 q5 -6.5 6.5 -15.5 q1.5 -9 -1.5 -18 q-3 -9 -11 -18 q-18 -25 -38 -52 q-16 -22 -31 -41 l193 0 q9 0 16 -3 q7 -3 12 -9 q5 -6 7.5 -13.5 q2.5 -7.5 1.5 -15.5 q-2 -8 -7 -15 q-5 -7 -12 -13 q-7 -6 -15.5 -9.5 q-8.5 -3.5 -16.5 -3.5 l-677 0 l-11 -56 q-7 -40 -18.5 -87 q-11.5 -47 -28 -96 q-16.5 -49 -40.5 -97.5 q-24 -48.5 -56 -91.5 q-6 -9 -15 -14 q-9 -5 -18 -6.5 q-9 -1.5 -17.5 0.5 q-8.5 2 -14.5 8 q-6 4 -7.5 12.5 q-1.5 8.5 -1 18 q0.5 9.5 3.5 19 q3 9.5 7 18.5 q28 37 47.5 77 q19.5 40 33.5 80.5 q14 40.5 23 80.5 q9 40 16 79 l16 94 ZM250 685 q1 8 6 15 q5 7 12 12.5 q7 5.5 15.5 9 q8.5 3.5 15.5 3.5 l330 0 q-2 3 -3 7 q-4 11 -10 24 q-6 13 -13 24 q-3 8 -1 16.5 q2 8.5 7 16.5 q5 8 13 14 q8 6 19 8 l8 2 q10 3 21.5 -1.5 q11.5 -4.5 15.5 -13.5 q9 -13 16 -28.5 q7 -15.5 13 -29.5 q2 -7 0.5 -15 q-1.5 -8 -5.5 -16 q-3 -4 -7 -8 l306 0 q8 0 15.5 -3.5 q7.5 -3.5 12.5 -9 q5 -5.5 7.5 -12.5 q2.5 -7 1.5 -15 q-2 -8 -7 -14.5 q-5 -6.5 -12 -12.5 q-7 -6 -15 -9.5 q-8 -3.5 -17 -3.5 l-709 0 q-8 0 -15.5 3.5 q-7.5 3.5 -13 9.5 q-5.5 6 -7.5 12.5 q-2 6.5 0 14.5 ZM408 566 q-4 8 -3.5 17.5 q0.5 9.5 4.5 18 q4 8.5 11 15.5 q7 7 16 11 q11 4 24.5 0 q13.5 -4 18.5 -14 q11 -19 20.5 -40 q9.5 -21 16.5 -39 q3 -7 1.5 -15 q-1.5 -8 -5 -15 q-3.5 -7 -9.5 -13.5 q-6 -6.5 -13 -9.5 q-9 -3 -17.5 -3 q-8.5 0 -16 3.5 q-7.5 3.5 -13.5 9 q-6 5.5 -9 12.5 q-4 14 -11 30.5 q-7 16.5 -15 31.5 Z" /><glyph glyph-name="" unicode="&#x4eab;" d="M99 145 q1 7 6 13.5 q5 6.5 12 12 q7 5.5 15 8.5 q8 3 15 3 l359 0 l2 12 q2 9 7 16.5 q5 7.5 12 14 q7 6.5 15 10.5 q4 1 7 2 q13 13 35 19 q34 9 68 19 q32 9 61 20 l-450 0 q-17 0 -28.5 10.5 q-11.5 10.5 -8.5 23.5 q2 12 17 22.5 q15 10.5 32 10.5 l538 0 q14 0 25 -8 l5 5 q6 3 14 3 q2 0 4.5 0.5 q2.5 0.5 3.5 0.5 q6 1 14 -1 q8 -2 12 -6 q6 -8 7.5 -16.5 q1.5 -8.5 -0.5 -18 q-2 -9.5 -9.5 -17 q-7.5 -7.5 -18.5 -12.5 q-32 -14 -68 -28 q-36 -14 -73.5 -26 q-37.5 -12 -75.5 -22 q-28 -8 -56 -15 l0 -7 l-2 -12 l364 0 q7 0 14.5 -3 q7.5 -3 12.5 -8.5 q5 -5.5 7.5 -12 q2.5 -6.5 0.5 -13.5 q-1 -6 -5.5 -12.5 q-4.5 -6.5 -11.5 -11.5 q-7 -5 -15.5 -8.5 q-8.5 -3.5 -15.5 -3.5 l-364 0 l-19 -108 q-6 -33 -20 -49.5 q-14 -16.5 -44 -25.5 q-26 -6 -63.5 -7.5 q-37.5 -1.5 -92.5 -1.5 q-12 0 -22.5 7.5 q-10.5 7.5 -13.5 15.5 q-3 18 12.5 31.5 q15.5 13.5 40.5 12.5 l54 0 q20 0 34 1 q14 1 19.5 4.5 q5.5 3.5 7.5 14.5 l18 105 l-358 0 q-8 0 -15.5 3.5 q-7.5 3.5 -12.5 8.5 q-5 5 -7 11.5 q-2 6.5 -1 12.5 ZM311 582 q1 8 6 15.5 q5 7.5 12 13.5 q7 6 15.5 10 q8.5 4 17.5 4 l542 0 q9 0 16 -4 q7 -4 12.5 -10 q5.5 -6 8 -13.5 q2.5 -7.5 0.5 -15.5 l-21 -121 q-2 -7 -6.5 -15 q-4.5 -8 -12 -14 q-7.5 -6 -16 -9.5 q-8.5 -3.5 -17.5 -3.5 l-542 0 q-8 0 -15.5 3.5 q-7.5 3.5 -12.5 9.5 q-5 6 -7.5 14 q-2.5 8 -1.5 15 l22 121 ZM211 722 q1 6 6 12.5 q5 6.5 11.5 11.5 q6.5 5 15.5 8 q9 3 17 3 l354 0 q-2 5 -4 11 q-4 12 -8 23 q-3 16 9.5 32 q12.5 16 31.5 19 l7 1 q11 3 24 -4.5 q13 -7.5 14 -18.5 q7 -13 11.5 -27 q4.5 -14 7.5 -26 q1 -5 1 -10 l336 0 q9 0 15.5 -3 q6.5 -3 12.5 -8 q6 -5 8 -11.5 q2 -6.5 1 -12.5 q-3 -14 -18 -25.5 q-15 -11.5 -32 -11.5 l-783 0 q-17 0 -29 11.5 q-12 11.5 -9 25.5 ZM396 563 q-2 0 -4 -2 q-2 -2 -3 -4 l-12 -71 q0 -2 1.5 -4 q1.5 -2 3.5 -2 l447 0 q2 0 4.5 2 q2.5 2 2.5 4 l12 71 q1 2 -1 4 q-2 2 -4 2 l-447 0 Z" /><glyph glyph-name="" unicode="&#x4eac;" d="M296 520 q2 8 6.5 15.5 q4.5 7.5 12 13.5 q7.5 6 16 9.5 q8.5 3.5 16.5 3.5 l553 0 q9 0 16 -3.5 q7 -3.5 12 -9.5 q5 -6 7.5 -13.5 q2.5 -7.5 0.5 -15.5 l-37 -213 q-1 -7 -6 -15 q-5 -8 -12.5 -14 q-7.5 -6 -16 -9.5 q-8.5 -3.5 -16.5 -3.5 l-237 0 l0 -2 q2 -7 1 -15 l-42 -236 q-6 -36 -19.5 -54.5 q-13.5 -18.5 -42.5 -28.5 q-23 -8 -59.5 -10 q-36.5 -2 -89.5 -2 q-13 -1 -24 8.5 q-11 9.5 -13 19.5 q-3 20 12.5 35.5 q15.5 15.5 39.5 14.5 l50 0 q18 0 32 1 q14 0 19 4 q5 4 7 14 l41 234 q2 8 7 15 q0 1 1 2 l-236 0 q-8 0 -15.5 3.5 q-7.5 3.5 -12.5 9.5 q-5 6 -7.5 14 q-2.5 8 -1.5 15 l38 213 ZM203 679 q2 8 6.5 15.5 q4.5 7.5 11.5 13 q7 5.5 15.5 9 q8.5 3.5 16.5 3.5 l365 0 q-4 13 -11 29 q-6 16 -14 32 q-3 8 -1 17 q2 9 6 17 q4 8 11.5 14.5 q7.5 6.5 16.5 9.5 l6 1 q12 4 25.5 -2 q13.5 -6 17.5 -17 q9 -17 17.5 -36 q8.5 -19 13.5 -35 q3 -8 1 -17 q-1 -7 -4 -13 l340 0 q7 0 14.5 -3.5 q7.5 -3.5 12 -9 q4.5 -5.5 7.5 -13 q3 -7.5 1 -15.5 q-1 -8 -6 -15 q-5 -7 -12 -13.5 q-7 -6.5 -16 -9.5 q-9 -3 -16 -3 l-790 0 q-7 0 -14.5 3 q-7.5 3 -12.5 9.5 q-5 6.5 -7 13.5 q-2 7 -1 15 ZM379 489 q-2 0 -4 -2 q-2 -2 -3 -5 l-24 -137 q0 -3 1.5 -5 q1.5 -2 3.5 -2 l457 0 q2 0 4.5 2 q2.5 2 2.5 5 l24 137 q1 3 -1 5 q-2 2 -4 2 l-457 0 ZM756 125 q-4 7 -5 16 q-1 9 1.5 18 q2.5 9 8 17 q5.5 8 14.5 12 q12 6 27.5 4 q15.5 -2 22.5 -12 q15 -18 30.5 -38 q15.5 -20 29.5 -39.5 q14 -19.5 27 -38.5 q13 -19 23 -36 q4 -6 4.5 -14 q0.5 -8 -2 -16.5 q-2.5 -8.5 -7.5 -15.5 q-5 -7 -13 -11 l-3 -1 q-8 -5 -16.5 -6 q-8.5 -1 -17 0.5 q-8.5 1.5 -15.5 6.5 q-7 5 -12 12 q-8 16 -19.5 33.5 q-11.5 17.5 -24 36 q-12.5 18.5 -26 37 q-13.5 18.5 -27.5 35.5 ZM262 175 q10 11 26 16.5 q16 5.5 28 0.5 l1 0 q8 -3 13 -10 q5 -7 6 -15.5 q1 -8.5 -2.5 -18 q-3.5 -9.5 -10.5 -17.5 q-36 -41 -79 -81 q-43 -40 -86 -73 q-8 -6 -15.5 -9 q-7.5 -3 -15.5 -3.5 q-8 -0.5 -15 1.5 q-7 2 -11 6 q-6 5 -7 13.5 q-1 8.5 1 17.5 q2 9 7.5 18 q5.5 9 14.5 16 q39 31 77.5 67 q38.5 36 67.5 71 Z" /><glyph glyph-name="" unicode="&#x4eae;" d="M322 584 q1 8 6.5 15.5 q5.5 7.5 12.5 14 q7 6.5 15.5 10 q8.5 3.5 16.5 3.5 l521 0 q9 0 15.5 -3.5 q6.5 -3.5 12.5 -10 q6 -6.5 7.5 -14 q1.5 -7.5 0.5 -15.5 l-20 -112 q-1 -8 -6 -16 q-5 -8 -12 -14 q-7 -6 -15.5 -9.5 q-8.5 -3.5 -16.5 -3.5 l-522 0 q-8 0 -15 3.5 q-7 3.5 -12.5 9.5 q-5.5 6 -7.5 14 q-2 8 -1 16 l20 112 ZM351 200 q5 15 20 27.5 q15 12.5 30 12.5 l4 0 q6 0 12 -2 q7 2 15 2 l255 0 q7 0 14 -2 q7 2 14 2 l5 0 q8 0 14.5 -3.5 q6.5 -3.5 12 -9.5 q5.5 -6 7 -14 q1.5 -8 0.5 -17 l-28 -159 q-4 -19 1.5 -24.5 q5.5 -5.5 28.5 -5.5 l95 0 q6 0 10 2 q4 2 7 7 q3 5 6.5 14 q3.5 9 6.5 25 q9 3 17.5 10.5 q8.5 7.5 17 14.5 q8.5 7 16.5 11 q8 4 17 1 q10 -4 15 -18 q5 -14 0 -28 q-9 -33 -19 -54.5 q-10 -21.5 -23 -34 q-13 -12.5 -30.5 -17.5 q-17.5 -5 -43.5 -5 l-118 0 q-34 0 -54.5 4.5 q-20.5 4.5 -30.5 16.5 q-10 12 -11.5 32 q-1.5 20 3.5 49 l24 133 l-232 0 q-13 -42 -29 -75 q-22 -43 -55 -75 q-33 -32 -82 -54.5 q-49 -22.5 -118 -38.5 q-14 -4 -28 2 q-14 6 -18 16 q-8 18 5 34.5 q13 16.5 40 24.5 q50 11 84 27.5 q34 16.5 57.5 39.5 q23.5 23 38.5 54.5 q15 31.5 27 74.5 ZM152 328 q1 8 6 15.5 q5 7.5 12.5 13.5 q7.5 6 16 9.5 q8.5 3.5 16.5 3.5 l763 0 q9 0 16 -3.5 q7 -3.5 12 -9.5 q5 -6 7 -13.5 q2 -7.5 1 -15.5 l-15 -86 q-2 -8 -6.5 -15.5 q-4.5 -7.5 -12 -14 q-7.5 -6.5 -15 -10 q-7.5 -3.5 -15.5 -3.5 q-8 0 -15 3.5 q-7 3.5 -11.5 10 q-4.5 6.5 -7 14 q-2.5 7.5 -0.5 15.5 l9 55 q1 3 -1 5 q-2 2 -4 2 l-675 0 q-2 0 -4 -2 q-2 -2 -3 -5 l-9 -56 q-2 -8 -6.5 -15.5 q-4.5 -7.5 -11.5 -14 q-7 -6.5 -14.5 -10 q-7.5 -3.5 -15 -3.5 q-7.5 0 -14 3.5 q-6.5 3.5 -11.5 10 q-5 6.5 -7 14 q-2 7.5 0 15.5 l15 87 ZM204 716 q2 14 17.5 24.5 q15.5 10.5 31.5 10.5 l372 0 q0 1 -1 3 q-3 9 -7.5 20 q-4.5 11 -9.5 21 q-3 14 10 28.5 q13 14.5 31 18.5 l7 1 q12 3 23.5 -2.5 q11.5 -5.5 13.5 -13.5 q7 -11 12 -22.5 q5 -11.5 8 -22.5 q3 -6 0 -13.5 q-3 -7.5 -7 -14.5 l-3 -3 l348 0 q16 0 27.5 -10.5 q11.5 -10.5 9.5 -24.5 q-1 -7 -6 -13.5 q-5 -6.5 -12 -11.5 q-7 -5 -15.5 -8 q-8.5 -3 -16.5 -3 l-797 0 q-7 0 -14.5 3 q-7.5 3 -12.5 8 q-5 5 -7.5 11.5 q-2.5 6.5 -1.5 13.5 ZM408 568 q-2 0 -4.5 -2 q-2.5 -2 -2.5 -4 l-12 -69 q0 -2 1 -3.5 q1 -1.5 3 -1.5 l427 0 q2 0 4 1.5 q2 1.5 2 3.5 l13 69 q0 2 -1.5 4 q-1.5 2 -3.5 2 l-426 0 Z" /><glyph glyph-name="" unicode="&#x4eb2;" d="M392 576 q-2 9 -0.5 18 q1.5 9 6.5 17.5 q5 8.5 12.5 14.5 q7.5 6 16.5 8 q12 3 24.5 -3 q12.5 -6 15.5 -17 q10 -21 17.5 -43.5 q7.5 -22.5 11.5 -40.5 q2 -8 -0.5 -15.5 q-2.5 -7.5 -7 -15 q-4.5 -7.5 -11.5 -12.5 q-1 -1 -3 -2 l229 0 l0 1 q2 9 7 19 q18 21 37.5 46.5 q19.5 25.5 34.5 48.5 q4 7 10 13.5 q6 6.5 14 11 q8 4.5 16 6 q8 1.5 14 0.5 q9 -2 15 -8 q6 -6 8 -14 q2 -8 0.5 -17.5 q-1.5 -9.5 -6.5 -18.5 q-19 -27 -40 -55 q-13 -18 -26 -33 l207 0 q8 0 15 -3.5 q7 -3.5 12 -8.5 q5 -5 7.5 -11.5 q2.5 -6.5 1.5 -13.5 q-1 -8 -6 -14.5 q-5 -6.5 -12 -11.5 q-7 -5 -15.5 -8.5 q-8.5 -3.5 -16.5 -3.5 l-351 0 q3 -5 4 -10 q2 -8 1 -16 l-13 -73 l327 0 q8 0 15 -3 q7 -3 12.5 -8.5 q5.5 -5.5 8 -12 q2.5 -6.5 0.5 -13.5 q-1 -7 -5.5 -13.5 q-4.5 -6.5 -12 -12 q-7.5 -5.5 -15.5 -9 q-8 -3.5 -16 -3.5 l-327 0 l-40 -224 q-6 -34 -18 -52 q-12 -18 -38 -28 q-19 -7 -49 -9 q-30 -2 -73 -3 q-13 0 -24 8.5 q-11 8.5 -13 18.5 q-3 19 12.5 34 q15.5 15 38.5 14 l33 0 q12 0 24 1 q11 0 15.5 3.5 q4.5 3.5 6.5 13.5 l39 223 l-325 0 q-8 0 -15.5 3.5 q-7.5 3.5 -12.5 9 q-5 5.5 -7.5 12 q-2.5 6.5 -1.5 13.5 q1 7 6 13.5 q5 6.5 12 12 q7 5.5 15.5 8.5 q8.5 3 16.5 3 l325 0 l13 73 q1 8 6 16 q4 5 9 10 l-358 0 q-8 0 -15 3.5 q-7 3.5 -12.5 8.5 q-5.5 5 -8 11.5 q-2.5 6.5 -0.5 14.5 q0 7 5 13.5 q5 6.5 12 11.5 q7 5 16 8.5 q9 3.5 16 3.5 l211 0 q-6 4 -10 10 q-5 6 -7 14 q-2 15 -7.5 33 q-5.5 18 -12.5 34 ZM270 685 q1 7 5.5 13.5 q4.5 6.5 11.5 11.5 q7 5 15.5 7.5 q8.5 2.5 16.5 2.5 l296 0 q0 2 -1 4 q-3 12 -9 26.5 q-6 14.5 -13 28.5 q0 9 2 17.5 q2 8.5 7.5 16.5 q5.5 8 13 13.5 q7.5 5.5 16.5 7.5 l6 2 q12 3 25 -4 q13 -7 16 -18 q8 -17 15 -36 q7 -19 11 -35 q1 -7 -1 -15 q-1 -4 -3 -8 l289 0 q8 0 15.5 -2.5 q7.5 -2.5 12.5 -7.5 q5 -5 7.5 -11.5 q2.5 -6.5 1.5 -13.5 q-2 -7 -6.5 -13.5 q-4.5 -6.5 -11.5 -11.5 q-7 -5 -15.5 -8 q-8.5 -3 -16.5 -3 l-670 0 q-8 0 -15.5 3 q-7.5 3 -12.5 8 q-5 5 -7.5 11.5 q-2.5 6.5 -0.5 13.5 ZM720 126 q-6 8 -7 17 q-1 9 1 18 q2 9 8 17 q6 8 15 13 q11 6 26 3.5 q15 -2.5 22 -10.5 q16 -17 32 -35.5 q16 -18.5 30.5 -37.5 q14.5 -19 27.5 -37 q13 -18 23 -35 q4 -6 4 -14 q0 -8 -2.5 -16 q-2.5 -8 -8 -15 q-5.5 -7 -12.5 -12 l-3 -1 q-8 -4 -16.5 -5 q-8.5 -1 -17 0.5 q-8.5 1.5 -15.5 6.5 q-7 5 -11 11 q-8 15 -19 31.5 q-11 16.5 -23.5 33.5 q-12.5 17 -26 34 q-13.5 17 -27.5 33 ZM294 172 q10 11 26.5 17.5 q16.5 6.5 27.5 2.5 l1 0 q9 -3 14 -9.5 q5 -6.5 6.5 -15 q1.5 -8.5 -1 -17.5 q-2.5 -9 -9.5 -17 q-35 -43 -76 -82 q-41 -39 -82 -70 q-12 -10 -28.5 -11 q-16.5 -1 -25.5 6 q-14 13 -9 33 q5 20 25 37 q36 26 70 58.5 q34 32.5 61 67.5 Z" /><glyph glyph-name="" unicode="&#x4eba;" d="M610 797 q2 7 6.5 15 q4.5 8 11.5 14 q7 6 15 9.5 q8 3.5 15 3.5 l12 0 q8 0 14.5 -4 q6.5 -4 11.5 -10.5 q5 -6.5 7 -14.5 q2 -8 0 -16 q-10 -47 -26 -111 q1 -6 0 -11 l0 -78 q0 -49 7 -107 q7 -58 22.5 -122 q15.5 -64 44.5 -125.5 q29 -61.5 74 -116.5 q45 -55 111 -96 q18 -13 19 -33 q1 -20 -15 -37 q-6 -5 -13.5 -9.5 q-7.5 -4.5 -16 -6 q-8.5 -1.5 -16.5 -1 q-8 0.5 -14 4.5 q-73 44 -123 104.5 q-50 60.5 -82 128.5 q-32 68 -48.5 139 q-16.5 71 -23.5 136 l0 8 q-18 -41 -39 -84 q-41 -82 -99.5 -160 q-58.5 -78 -134.5 -148.5 q-76 -70.5 -178 -125.5 q-7 -4 -15 -5.5 q-8 -1.5 -16 0 q-8 1.5 -14.5 4.5 q-6.5 3 -10.5 8 q-12 16 -6.5 37 q5.5 21 28.5 34 q92 51 162 116.5 q70 65.5 122 137.5 q52 72 88 146.5 q36 74.5 60 143.5 q24 69 37.5 129 q13.5 60 22.5 103 Z" /><glyph glyph-name="" unicode="&#x4ebf;" d="M533 702 q2 7 6.5 14 q4.5 7 12 13 q7.5 6 16 9.5 q8.5 3.5 17.5 3.5 l372 0 q8 0 16 -4 q3 -1 5 -3 q3 2 6 3 q7 4 11 4 l5 0 q2 0 4 1 l6 0 q4 1 9 0.5 q5 -0.5 8 -2.5 l6 -4 l17 -10 l14 -15 l-5 -5 l-6 -5 q-129 -122 -221 -211.5 q-92 -89.5 -154 -153 q-62 -63.5 -99 -105 q-37 -41.5 -56.5 -68.5 q-19.5 -27 -26 -42.5 q-6.5 -15.5 -8.5 -27.5 q-5 -29 18 -41 q23 -12 66 -12 l251 0 q17 0 29.5 5.5 q12.5 5.5 22.5 20.5 q10 15 19 41.5 q9 26.5 19 67.5 q7 24 24 36.5 q17 12.5 35 7.5 q10 -4 16 -18 q6 -14 1 -28 q-17 -67 -33.5 -109 q-16.5 -42 -37 -65 q-20.5 -23 -47.5 -31.5 q-27 -8.5 -67 -8.5 l-242 0 q-47 0 -80 9 q-33 9 -52 25.5 q-19 16.5 -26 39.5 q-7 23 -2 52 q3 16 10 35.5 q7 19.5 27 49.5 q20 30 56.5 74 q36.5 44 98.5 110 q62 66 155 158 q66 66 152 149 l-331 0 q-9 0 -16 3.5 q-7 3.5 -12 9 q-5 5.5 -8 12.5 q-3 7 -1 15 ZM420 801 q4 8 11 13.5 q7 5.5 15 9 q8 3.5 16 5 q8 1.5 14 -1.5 q8 -2 13 -8 q5 -6 7 -13.5 q2 -7.5 1.5 -16.5 q-0.5 -9 -5.5 -17 q-49 -82 -106 -159 l-115 -649 q-1 -9 -5.5 -16.5 q-4.5 -7.5 -11.5 -13.5 q-7 -6 -15 -10 q-8 -4 -15.5 -4 q-7.5 0 -14 4 q-6.5 4 -11.5 10 q-5 6 -7 13.5 q-2 7.5 0 16.5 l91 521 q-37 -42 -76 -79 q-8 -9 -17.5 -12.5 q-9.5 -3.5 -18.5 -2.5 q-9 1 -16 6.5 q-7 5.5 -11 14.5 q-1 1 -1 2 q0 1 -1 2 q-5 12 0 28.5 q5 16.5 16 27.5 q73 65 140.5 150.5 q67.5 85.5 122.5 178.5 Z" /><glyph glyph-name="" unicode="&#x4ec0;" d="M428 458 q2 8 7 15 q5 7 12 13 q7 6 15 9.5 q8 3.5 16 3.5 l233 0 l51 288 q2 9 7 16.5 q5 7.5 11.5 13.5 q6.5 6 14.5 10 q8 4 16 4 l5 0 q7 0 14 -4 q7 -4 12 -10 q5 -6 7 -13.5 q2 -7.5 0 -16.5 l-51 -288 l224 0 q8 0 15 -3.5 q7 -3.5 12 -9.5 q5 -6 7 -13 q2 -7 1 -15 q-1 -8 -6 -15.5 q-5 -7.5 -12 -13.5 q-7 -6 -15.5 -9.5 q-8.5 -3.5 -15.5 -3.5 l-224 0 l-80 -455 q-2 -8 -6.5 -15.5 q-4.5 -7.5 -12 -13.5 q-7.5 -6 -15 -10 q-7.5 -4 -15.5 -4 l-5 0 q-7 0 -14 4 q-7 4 -11.5 10 q-4.5 6 -7 13.5 q-2.5 7.5 -0.5 15.5 l80 455 l-234 0 q-8 0 -14.5 3.5 q-6.5 3.5 -12 9.5 q-5.5 6 -7.5 13.5 q-2 7.5 -1 15.5 ZM430 800 q5 7 11.5 13 q6.5 6 14.5 9.5 q8 3.5 16 5 q8 1.5 15 -1.5 q8 -2 12.5 -8 q4.5 -6 6.5 -13.5 q2 -7.5 1.5 -16.5 q-0.5 -9 -6.5 -17 q-50 -84 -108 -162 l-114 -645 q-1 -9 -6 -16.5 q-5 -7.5 -11.5 -14 q-6.5 -6.5 -14.5 -10 q-8 -3.5 -16 -3.5 q-8 0 -14.5 3.5 q-6.5 3.5 -11.5 10 q-5 6.5 -7 14 q-2 7.5 -1 15.5 l92 518 q-39 -43 -78 -81 q-9 -9 -18.5 -13 q-9.5 -4 -18.5 -3 q-9 1 -16.5 6.5 q-7.5 5.5 -11.5 14.5 l0 2 q0 1 -1 2 q-5 11 0 28 q5 17 16 28 q73 65 143 152.5 q70 87.5 126 182.5 Z" /><glyph glyph-name="" unicode="&#x4ec5;" d="M508 694 q1 7 6 14 q5 7 12.5 13 q7.5 6 15.5 9 q8 3 16 3 l412 0 q8 0 16 -3 q3 3 7 3 q2 0 4 0.5 q2 0.5 4 1.5 l4 0 q4 2 7 1.5 q3 -0.5 6 -1.5 l13 -5 q12 -4 18.5 -18.5 q6.5 -14.5 1.5 -27.5 q-53 -149 -124.5 -268 q-71.5 -119 -155.5 -212 q-11 -11 -22 -23 q24 -34 52 -63 q57 -61 136 -100 q19 -12 22 -31.5 q3 -19.5 -12 -36.5 q-4 -6 -10.5 -9 q-6.5 -3 -14 -5 q-7.5 -2 -15 -1.5 q-7.5 0.5 -13.5 3.5 q-88 43 -151 109 q-33 33 -59 71 q-45 -39 -92 -72 q-95 -67 -198 -111 q-15 -6 -30 -2 q-15 4 -21 14 q-8 17 3 36.5 q11 19.5 34 29.5 q93 40 179 104 q43 31 84 68 q-4 6 -7 12 q-42 85 -66 188 q-24 103 -34 222 q0 8 2.5 16 q2.5 8 7.5 15 q5 7 12 12 q3 3 6 4 l-20 0 q-7 0 -14.5 3.5 q-7.5 3.5 -13 9 q-5.5 5.5 -7.5 12.5 q-2 7 -1 15 ZM434 798 q9 14 27 22 q18 8 31 4 l3 -1 q8 -2 13 -8 q5 -6 7 -14 q2 -8 0 -17 q-2 -9 -6 -17 q-55 -89 -119 -172 l-112 -631 q-1 -9 -6 -16.5 q-5 -7.5 -11.5 -13.5 q-6.5 -6 -14.5 -10 q-8 -4 -16 -4 q-8 0 -14.5 4 q-6.5 4 -12 10 q-5.5 6 -7 14 q-1.5 8 -1.5 16 l90 507 q-42 -44 -84 -83 q-9 -8 -18.5 -11.5 q-9.5 -3.5 -18 -2.5 q-8.5 1 -16 6.5 q-7.5 5.5 -11.5 13.5 q-1 2 -1 3.5 q0 1.5 -1 3.5 q-6 12 -0.5 30 q5.5 18 17.5 28 q77 66 150 154 q73 88 132 185 ZM957 654 l-363 0 l6 -4 q6 -5 10 -11.5 q4 -6.5 5 -15.5 q7 -105 29 -197.5 q22 -92.5 61 -169.5 q1 -3 3 -6 l16 18 q78 87 142 197 q51 87 91 189 Z" /><glyph glyph-name="" unicode="&#x4eca;" d="M635 819 q5 5 12.5 9.5 q7.5 4.5 15.5 6.5 q8 2 15.5 2 q7.5 0 12.5 -2 l6 -3 q8 -4 12 -11.5 q4 -7.5 4 -16.5 q0 -8 -3 -17 q3 -2 5 -5 q26 -37 61 -75 q35 -38 75 -72.5 q40 -34.5 83.5 -65 q43.5 -30.5 85.5 -54.5 q10 -5 15.5 -13.5 q5.5 -8.5 5.5 -18 q0 -9.5 -4 -20 q-4 -10.5 -13 -18.5 q-1 -1 -1 -1.5 q0 -0.5 -1 -0.5 q-5 -6 -13 -10 q-8 -4 -16 -5.5 q-8 -1.5 -16 -0.5 q-8 1 -14 4 q-43 26 -86.5 60 q-43.5 34 -85 72.5 q-41.5 38.5 -78.5 81.5 q-34 38 -61 76 q-27 -26 -56 -51 q-56 -49 -116.5 -93.5 q-60.5 -44.5 -124 -83 q-63.5 -38.5 -128.5 -70.5 q-8 -3 -16 -4 q-8 -1 -15.5 1 q-7.5 2 -13.5 6 q-6 4 -10 10 l0 1 l-1 0 q-11 18 -3 38.5 q8 20.5 31 31.5 q61 28 120.5 63 q59.5 35 115.5 75 q56 40 106.5 84 q50.5 44 93.5 90 ZM235 310 q1 8 6 15 q5 7 12.5 13 q7.5 6 15.5 9.5 q8 3.5 16 3.5 l532 0 q9 0 16 -3.5 q7 -3.5 12 -9.5 l1 0 q1 2 2 3 q1 2 1 4 q1 3 4.5 4.5 q3.5 1.5 8.5 1.5 q2 0 4.5 0.5 q2.5 0.5 4.5 1.5 l1 0 q3 1 9.5 0.5 q6.5 -0.5 9.5 -2.5 l11 -6 q7 -3 11 -10.5 q4 -7.5 4.5 -16.5 q0.5 -9 -3 -18 q-3.5 -9 -9.5 -17 q-35 -37 -75.5 -80 q-40.5 -43 -83.5 -87 l-87 -89 q-44 -45 -86 -87 q-9 -10 -25 -13.5 q-16 -3.5 -26 1.5 l-8 4 q-8 4 -13 11.5 q-5 7.5 -5 17 q0 9.5 4 19 q4 9.5 12 17.5 q45 43 92.5 90 q47.5 47 90.5 93 q44 45 83 86 l-508 0 q-8 0 -15 3.5 q-7 3.5 -12.5 9.5 q-5.5 6 -7.5 13.5 q-2 7.5 -1 15.5 l1 2 ZM536 496 q-6 7 -9 15 q-3 8 -2.5 17 q0.5 9 4.5 17 q4 8 12 14 q10 8 25.5 8.5 q15.5 0.5 25.5 -7.5 q30 -26 61 -55.5 q31 -29.5 54 -54.5 q6 -5 7 -12.5 q1 -7.5 0 -15.5 q-1 -8 -5 -16.5 q-4 -8.5 -10 -13.5 q-6 -5 -15 -8 q-9 -3 -18 -2.5 q-9 0.5 -16.5 3.5 q-7.5 3 -13.5 9 q-19 23 -46 50.5 q-27 27.5 -54 51.5 Z" /><glyph glyph-name="" unicode="&#x4ecb;" d="M636 814 q6 6 14.5 10.5 q8.5 4.5 17 6.5 q8.5 2 16.5 1 q8 -1 14 -5.5 q6 -4.5 8.5 -12 q2.5 -7.5 2.5 -15.5 q0 -8 -3 -16 q-2 -3 -4 -7 q8 -4 12 -10 q24 -38 57.5 -75 q33.5 -37 74 -70 q40.5 -33 87 -60 q46.5 -27 94.5 -46 q22 -9 24.5 -28.5 q2.5 -19.5 -14.5 -40.5 l-1 0 q-9 -10 -25 -15.5 q-16 -5.5 -28 -1.5 q-52 21 -101 52.5 q-49 31.5 -93 69 q-44 37.5 -81 80.5 q-36 41 -61 85 q-26 -26 -53 -51 q-58 -51 -121 -96 q-63 -45 -129.5 -83 q-66.5 -38 -133.5 -65 q-8 -3 -16 -3 q-8 0 -15 2.5 q-7 2.5 -13 7 q-6 4.5 -8 10.5 q-9 19 2 39 q11 20 34 29 q62 24 123.5 57.5 q61.5 33.5 118.5 73 q57 39.5 108 85 q51 45.5 92 92.5 ZM363 400 q2 8 7 16 q5 8 12 14 q7 6 15 9.5 q8 3.5 16 3.5 l4 0 q8 0 15 -3.5 q7 -3.5 12 -9.5 q5 -6 7 -14 q2 -8 0 -16 l-14 -83 q-9 -47 -23.5 -97 q-14.5 -50 -43 -99 q-28.5 -49 -74 -96 q-45.5 -47 -117.5 -88 q-7 -4 -15 -5.5 q-8 -1.5 -15.5 -0.5 q-7.5 1 -14 3.5 q-6.5 2.5 -10.5 7.5 q-13 15 -7 35.5 q6 20.5 28 36.5 q57 34 93 70.5 q36 36.5 58.5 74.5 q22.5 38 34 78 q11.5 40 18.5 82 l14 81 ZM739 401 q2 9 7 16.5 q5 7.5 12 14 q7 6.5 14.5 10 q7.5 3.5 15.5 3.5 l5 0 q8 0 15 -3.5 q7 -3.5 12 -10 q5 -6.5 7 -14 q2 -7.5 0 -16.5 l-78 -441 q-1 -8 -6 -16 q-5 -8 -12 -14 q-7 -6 -15 -9.5 q-8 -3.5 -16 -3.5 l-5 0 q-8 0 -14.5 3.5 q-6.5 3.5 -11.5 9.5 q-5 6 -7 14 q-2 8 -1 16 l78 441 Z" /><glyph glyph-name="" unicode="&#x4ecd;" d="M473 733 q2 7 7 13.5 q5 6.5 11.5 12.5 q6.5 6 15 9 q8.5 3 15.5 3 l348 0 q7 0 14 -3 l8 -4 q11 7 21 7 q9 0 16.5 -4 q7.5 -4 11 -11.5 q3.5 -7.5 4 -16 q0.5 -8.5 -2.5 -18.5 q-13 -35 -27 -72.5 q-14 -37.5 -28 -74.5 q-14 -37 -27 -71 l-8 -18 l135 0 q9 0 16 -3 q7 -3 12 -8 q2 -3 4 -5 q1 -3 3 -6 l0 -2 q3 -7 2 -14 q-1 -5 -4 -10 q-26 -115 -47 -197 q-21 -85 -38 -141 q-17 -56 -32.5 -88.5 q-15.5 -32.5 -31.5 -46.5 q-19 -20 -38.5 -27.5 q-19.5 -7.5 -45.5 -10.5 q-18 -1 -47 -1 q-29 0 -62 1 q-14 0 -26 10 q-12 10 -13 21 q-1 21 15 35 q16 14 41 13 q12 -1 21 -1 q9 0 17 -0.5 q8 -0.5 15 -0.5 l17 0 q14 0 24 2.5 q10 2.5 20 10.5 q13 11 26 40 q13 29 29.5 82.5 q16.5 53.5 35.5 134.5 q15 59 32 135 l-90 0 q-9 0 -16 4 q-5 3 -10 7 l-1 -1 q-13 -10 -24 -10 q-10 0 -17 4.5 q-7 4.5 -11 12 q-4 7.5 -4 17.5 q0 10 5 19 q12 30 25.5 64 q13.5 34 27 69.5 q13.5 35.5 26.5 72.5 q5 13 9 27 l-186 0 q-19 -95 -43 -196 q-25 -102 -60.5 -200 q-35.5 -98 -85 -186 q-49.5 -88 -119.5 -156 q-7 -8 -16 -12.5 q-9 -4.5 -17.5 -6 q-8.5 -1.5 -16.5 1 q-8 2.5 -13 8.5 q-11 11 -8 30.5 q3 19.5 17 35.5 q64 62 108.5 144 q44.5 82 76.5 173 q32 91 54 186 q20 92 37 178 l-71 0 q-8 0 -15 3 q-7 3 -12 8.5 q-5 5.5 -7 12.5 q-2 7 -2 15 ZM372 797 q5 8 12 14 q7 6 14 10 q7 4 16 6 q9 2 14 -1 q8 -1 13 -7 q5 -6 7.5 -13.5 q2.5 -7.5 1.5 -16 q-1 -8.5 -4 -16.5 q-43 -80 -92 -157 l-116 -654 q-2 -8 -6.5 -16 q-4.5 -8 -11 -14.5 q-6.5 -6.5 -14.5 -10 q-8 -3.5 -16 -3.5 q-8 0 -14 3.5 q-6 3.5 -11 10 q-5 6.5 -6.5 14 q-1.5 7.5 -0.5 16.5 l89 506 q-25 -31 -50 -60 q-9 -10 -18.5 -14 q-9.5 -4 -18.5 -3.5 q-9 0.5 -16 6 q-7 5.5 -10 15.5 q-1 2 -1 3.5 q0 1.5 -1 3.5 q-5 10 -0.5 25 q4.5 15 13.5 25 q63 65 122 150.5 q59 85.5 105 177.5 Z" /><glyph glyph-name="" unicode="&#x4ece;" d="M796 778 q3 9 8 16.5 q5 7.5 12.5 13.5 q7.5 6 15.5 9.5 q8 3.5 15 2.5 l8 0 q8 0 15 -4 q7 -4 11.5 -10.5 q4.5 -6.5 6 -14.5 q1.5 -8 -0.5 -17 q-34 -137 -72 -256 q-6 -21 -13 -42 q0 -1 1 -3 q5 -8 6 -18 q3 -53 11 -110 q8 -57 25 -111.5 q17 -54.5 42 -103.5 q25 -49 62 -87 q11 -15 9.5 -36 q-1.5 -21 -15.5 -36 q-8 -7 -16.5 -11 q-8.5 -4 -18.5 -5 q-10 -1 -18 2 q-8 3 -13 11 q-39 46 -66 104.5 q-27 58.5 -44 121.5 q-17 62 -25 126 q-5 -12 -11 -24 q-46 -102 -104.5 -187.5 q-58.5 -85.5 -134.5 -153.5 q-6 -6 -14 -9.5 q-8 -3.5 -17 -4.5 q-9 -1 -16.5 1 q-7.5 2 -12.5 7 q-1 0 -1 1 l-2 1 q-7 6 -10.5 15 q-3.5 9 -2.5 19 q1 10 6 20 q5 10 13 18 q70 62 124 140.5 q54 78.5 97 173.5 q43 95 77 205.5 q34 110.5 63 235.5 ZM411 777 q1 8 7 16 q6 8 13.5 14 q7.5 6 15.5 9.5 q8 3.5 16 3.5 l7 -1 q8 0 14.5 -4 q6.5 -4 11 -10.5 q4.5 -6.5 6.5 -14 q2 -7.5 0 -16.5 q-30 -131 -63 -248 l-12 -38 q6 -1 11 -3 q7 -4 11 -10 q17 -27 33.5 -56 q16.5 -29 31.5 -58.5 q15 -29.5 27.5 -57 q12.5 -27.5 20.5 -52.5 q4 -10 -0.5 -25 q-4.5 -15 -13.5 -23 l-2 -2 q-9 -7 -19 -9.5 q-10 -2.5 -18.5 -0.5 q-8.5 2 -16.5 7.5 q-8 5.5 -12 14.5 q-9 23 -20 49 q-11 26 -24 53 q-13 27 -27 54 q-7 12 -13 23 q-15 -44 -31 -85 q-41 -102 -91 -189.5 q-50 -87.5 -114 -158.5 q-6 -7 -14.5 -11.5 q-8.5 -4.5 -18 -5.5 q-9.5 -1 -18 0 q-8.5 1 -14.5 7 q-1 0 -1 1 l-2 1 q-7 6 -10 14.5 q-3 8.5 -2.5 18 q0.5 9.5 4.5 19 q4 9.5 11 17.5 q61 64 107.5 145 q46.5 81 84 177 q37.5 96 67.5 205 q30 109 57 230 Z" /><glyph glyph-name="" unicode="&#x4ed3;" d="M323 444 q1 8 6 16 q3 5 7 9 q-59 -35 -120 -64 q-7 -3 -15 -3.5 q-8 -0.5 -15.5 1.5 q-7.5 2 -13.5 6 q-6 4 -9 9 q-11 17 -2 37.5 q9 20.5 32 31.5 q62 28 123 63.5 q61 35.5 117.5 77 q56.5 41.5 107.5 88 q51 46.5 93 95.5 q5 6 12.5 10.5 q7.5 4.5 15.5 7 q8 2.5 15.5 3 q7.5 0.5 13.5 -1.5 l4 -2 q8 -4 12 -11 q4 -7 4.5 -15 q0.5 -8 -1.5 -17 q-2 -6 -5 -10 q3 -3 5 -6 q60 -90 138.5 -154 q78.5 -64 172.5 -116 q21 -10 23.5 -29 q2.5 -19 -12.5 -35 q-5 -6 -12.5 -10 q-7.5 -4 -16.5 -6 q-9 -2 -17 -1 q-8 1 -15 4 q-97 58 -178 128 q-79 69 -144 163 q-25 -27 -53 -52 q-57 -52 -119 -98 q-55 -41 -112 -77 q4 1 8 1 l4 0 q8 0 15 -4 l4 -2 q3 1 6 3 q8 3 16 3 l412 0 q8 0 15 -3.5 q7 -3.5 12 -8.5 l2 -2 l4 -8 q2 -3 2 -7 q1 -5 1 -11 l-4 -10 q-13 -58 -24 -100 q-11 -46 -21 -77.5 q-10 -31.5 -20 -50.5 q-10 -19 -20 -29 q-17 -16 -35.5 -21.5 q-18.5 -5.5 -41.5 -7.5 q-17 -1 -43.5 -1.5 q-26.5 -0.5 -57.5 1.5 q-14 0 -25 9.5 q-11 9.5 -12 19.5 q-2 18 15 30.5 q17 12.5 42 12.5 q9 -1 17 -1.5 q8 -0.5 15 -0.5 l25 0 q14 0 22 2 q8 2 16 8 q6 6 13 22 q7 16 15.5 44.5 q8.5 28.5 18.5 71.5 q4 18 9 38 l-365 0 l-57 -324 q-3 -18 -1.5 -29 q1.5 -11 11 -17.5 q9.5 -6.5 28.5 -8.5 q19 -2 50 -2 l280 0 q21 0 35.5 3.5 q14.5 3.5 26 13 q11.5 9.5 20 26 q8.5 16.5 17.5 42.5 q8 10 16 19 q8 9 17 14.5 q9 5.5 18 7.5 q9 2 19 -2 q6 -3 10.5 -8 q4.5 -5 7 -11.5 q2.5 -6.5 3 -14.5 q0.5 -8 -2.5 -16 q-14 -45 -29 -76 q-15 -31 -36 -49 q-21 -18 -52.5 -25 q-31.5 -7 -80.5 -7 l-286 0 q-53 0 -87.5 6 q-34.5 6 -53 21.5 q-18.5 15.5 -22.5 43 q-4 27.5 3 68.5 l64 362 Z" /><glyph glyph-name="" unicode="&#x4ed4;" d="M525 732 q2 8 6.5 15 q4.5 7 12 12.5 q7.5 5.5 16 9 q8.5 3.5 16.5 3.5 l410 0 q8 0 15 -3 l4 -2 l1 0 q5 5 11 5 q2 0 4.5 0.5 q2.5 0.5 4.5 0.5 q4 2 12 0 q8 -2 13 -7 l5 -4 q7 -5 9.5 -13 q2.5 -8 2 -17 q-0.5 -9 -4.5 -17.5 q-4 -8.5 -11 -14.5 q-28 -25 -59.5 -49.5 q-31.5 -24.5 -65 -48 q-33.5 -23.5 -67 -44.5 q-33.5 -21 -65.5 -39 l-1 -1 l0 -8 l-18 -101 l235 0 q8 0 15.5 -3.5 q7.5 -3.5 12.5 -9 q5 -5.5 7.5 -13 q2.5 -7.5 1.5 -14.5 q-2 -8 -7 -15 q-5 -7 -12 -13 q-7 -6 -15 -9.5 q-8 -3.5 -17 -3.5 l-236 0 l-53 -302 q-7 -39 -21 -59 q-14 -20 -44 -31 q-24 -8 -61.5 -10.5 q-37.5 -2.5 -92.5 -2.5 q-13 -1 -24.5 9 q-11.5 10 -14.5 21 q0 11 3 20.5 q3 9.5 10.5 16.5 q7.5 7 17.5 11.5 q10 4.5 22 4.5 q33 -1 55 -1 q22 0 37 1 q14 0 20.5 4.5 q6.5 4.5 8.5 16.5 l53 301 l-242 0 q-8 0 -15.5 3.5 q-7.5 3.5 -12.5 9.5 q-5 6 -7.5 13 q-2.5 7 -0.5 15 q1 7 6 14.5 q5 7.5 12 13 q7 5.5 15.5 9 q8.5 3.5 16.5 3.5 l242 0 l18 100 q1 8 6 16 q5 8 12 14 q6 6 14 9 l2 4 q8 19 28 32 q32 18 63 38.5 q31 20.5 60 41.5 q19 15 37 29 l-369 0 q-8 0 -15.5 3.5 q-7.5 3.5 -12.5 9 q-5 5.5 -7.5 12.5 q-2.5 7 -1.5 14 ZM408 802 q5 7 12 13 q7 6 14.5 9.5 q7.5 3.5 16 5 q8.5 1.5 14.5 -0.5 q9 -2 13.5 -8 q4.5 -6 6.5 -13.5 q2 -7.5 1.5 -16.5 q-0.5 -9 -5.5 -17 q-55 -95 -120 -185 l-111 -627 q-2 -9 -6.5 -17 q-4.5 -8 -11 -14 q-6.5 -6 -14.5 -9.5 q-8 -3.5 -16 -3.5 q-8 0 -14 3.5 q-6 3.5 -11 10 q-5 6.5 -6.5 14 q-1.5 7.5 -0.5 15.5 l88 501 q-25 -28 -50 -53 q-8 -9 -18 -13 q-10 -4 -18.5 -3 q-8.5 1 -16 6 q-7.5 5 -11.5 15 q-1 1 -1 2 q0 1 -1 2 q-4 11 0.5 28 q4.5 17 15.5 27 q68 65 133 150.5 q65 85.5 117 178.5 Z" /><glyph glyph-name="" unicode="&#x4ed6;" d="M777 796 q2 8 7 16 q5 8 11.5 14 q6.5 6 14.5 9.5 q8 3.5 15.5 3.5 q7.5 0 13.5 -3.5 q6 -3.5 10.5 -9.5 q4.5 -6 6.5 -14 q2 -8 1 -16 l-35 -199 l144 53 q5 2 11 2 l12 10 q7 5 17.5 6.5 q10.5 1.5 16.5 -2.5 l5 -1 q13 -5 21 -12.5 q8 -7.5 6 -11.5 q0 -2 -1 -5 q-1 -3 -1 -5 q-12 -67 -23 -125 q-11 -58 -20.5 -104 q-9.5 -46 -17 -79 q-7.5 -33 -14.5 -49 q-12 -35 -30 -52 q-18 -17 -43 -24 q-14 -4 -32 -5.5 q-18 -1.5 -35 -1.5 q-7 -1 -14 1.5 q-7 2.5 -12 6.5 q-5 4 -8 9 q-3 5 -3 10 q-1 20 7.5 33.5 q8.5 13.5 23.5 13.5 l35 0 q12 0 21 5.5 q9 5.5 17 23.5 q5 11 11.5 39 q6.5 28 15.5 72.5 q9 44.5 20 103.5 q5 28 11 59 l-156 -57 l-57 -323 q-2 -8 -6.5 -16 q-4.5 -8 -11.5 -14.5 q-7 -6.5 -14.5 -10 q-7.5 -3.5 -15 -3.5 q-7.5 0 -14 3.5 q-6.5 3.5 -11 10 q-4.5 6.5 -6.5 14.5 q-2 8 -1 16 l52 292 l-148 -54 l-61 -348 q-4 -22 -3.5 -36 q0.5 -14 8.5 -21.5 q8 -7.5 23.5 -10 q15.5 -2.5 41.5 -2.5 l247 0 q17 0 29.5 3.5 q12.5 3.5 22 12.5 q9.5 9 16.5 24.5 q7 15.5 15 39.5 q14 22 30.5 34.5 q16.5 12.5 34.5 5.5 q11 -5 16 -19.5 q5 -14.5 0 -28.5 q-12 -41 -25 -69.5 q-13 -28.5 -32 -46 q-19 -17.5 -46.5 -25 q-27.5 -7.5 -70.5 -7.5 l-254 0 q-47 0 -77 6.5 q-30 6.5 -46 23 q-16 16.5 -18 45 q-2 28.5 5 71.5 l56 316 l-58 -22 q-8 -2 -16.5 -1.5 q-8.5 0.5 -15.5 3.5 q-7 3 -12 8 q-5 5 -7 12 q-2 7 0.5 15 q2.5 8 7 15.5 q4.5 7.5 11.5 14 q7 6.5 15 9.5 l90 33 l38 216 q2 8 6.5 15.5 q4.5 7.5 12 14 q7.5 6.5 15.5 10 q8 3.5 16 3.5 q8 0 14.5 -3.5 q6.5 -3.5 11.5 -10 q5 -6.5 6.5 -14 q1.5 -7.5 0.5 -15.5 l-32 -184 l147 54 l40 229 ZM407 799 q5 8 11.5 13.5 q6.5 5.5 14.5 9.5 q8 4 16.5 5.5 q8.5 1.5 14.5 -1.5 q8 -2 12.5 -8 q4.5 -6 6.5 -13.5 q2 -7.5 1 -16.5 q-1 -9 -6 -16 q-51 -87 -113 -169 l-113 -639 q-1 -9 -6 -16.5 q-5 -7.5 -11.5 -14 q-6.5 -6.5 -14.5 -10 q-8 -3.5 -16 -3.5 q-8 0 -14.5 3.5 q-6.5 3.5 -12 10 q-5.5 6.5 -7 14 q-1.5 7.5 -0.5 15.5 l91 513 q-33 -36 -67 -69 q-8 -9 -18 -12.5 q-10 -3.5 -19 -3 q-9 0.5 -16 5.5 q-7 5 -11 14 l0 2 q0 1 -1 2 q-4 12 1 28.5 q5 16.5 16 27.5 q72 65 139.5 150 q67.5 85 121.5 178 Z" /><glyph glyph-name="" unicode="&#x4ed8;" d="M469 580 q1 7 6 14.5 q5 7.5 12 13.5 q7 6 15.5 9.5 q8.5 3.5 16.5 3.5 l358 0 l29 166 q2 8 6.5 15.5 q4.5 7.5 12 14 q7.5 6.5 15.5 10 q8 3.5 15 3.5 l4 0 q8 0 14.5 -3.5 q6.5 -3.5 11.5 -10 q5 -6.5 7 -14 q2 -7.5 0 -15.5 l-29 -166 l79 0 q9 0 16 -3.5 q7 -3.5 12.5 -9.5 q5.5 -6 7.5 -13.5 q2 -7.5 1 -14.5 l0 -3 q-2 -7 -7 -14.5 q-5 -7.5 -12 -13.5 q-7 -6 -15.5 -9.5 q-8.5 -3.5 -17.5 -3.5 l-79 0 l-90 -507 q-7 -46 -24 -67.5 q-17 -21.5 -49 -30.5 q-29 -10 -74.5 -12 q-45.5 -2 -114.5 -2 q-13 0 -24 8.5 q-11 8.5 -13 19.5 q-4 21 11 37.5 q15 16.5 41 16.5 q44 -2 74.5 -1.5 q30.5 0.5 49.5 1.5 q18 1 26.5 7 q8.5 6 11.5 23 l89 507 l-357 0 q-9 0 -16.5 3.5 q-7.5 3.5 -12.5 9.5 q-5 6 -7 13.5 q-2 7.5 -1 14.5 l1 3 ZM434 797 q5 7 11.5 13 q6.5 6 15 10 q8.5 4 16.5 5 q8 1 15 -1 l3 -1 q7 -2 12.5 -8 q5.5 -6 7 -13.5 q1.5 -7.5 0.5 -16.5 q-1 -9 -6 -17 q-54 -92 -118 -176 l-111 -628 q-1 -9 -6 -16.5 q-5 -7.5 -11.5 -13.5 q-6.5 -6 -14.5 -10 q-8 -4 -16 -4 l-2 0 q-8 0 -14.5 4 q-6.5 4 -12 10 q-5.5 6 -7 14 q-1.5 8 -1.5 16 l89 499 q-35 -37 -70 -71 q-9 -8 -18.5 -11.5 q-9.5 -3.5 -18 -3 q-8.5 0.5 -16.5 5.5 q-8 5 -12 14 q0 2 -0.5 3.5 q-0.5 1.5 -0.5 2.5 q-3 6 -3 14 q0 8 2 16 q2 8 6.5 15.5 q4.5 7.5 10.5 13.5 q74 65 144 152.5 q70 87.5 126 182.5 ZM513 362 q-3 8 -2 17 q1 9 4.5 17 q3.5 8 10 15 q6.5 7 14.5 10 l0 1 q7 3 14.5 2.5 q7.5 -0.5 14.5 -2.5 q7 -2 13 -6.5 q6 -4.5 8 -10.5 q11 -21 22 -44 l21 -46 q10 -23 19 -44 q9 -21 16 -39 q3 -7 1.5 -15 q-1.5 -8 -5 -15.5 q-3.5 -7.5 -9 -14 q-5.5 -6.5 -13.5 -10.5 l-2 -1 q-8 -4 -17 -4 q-9 0 -17.5 3 q-8.5 3 -14.5 9 q-6 6 -9 13 q-6 18 -14 38.5 q-8 20.5 -17 41.5 q-9 21 -19 43 q-10 22 -19 42 Z" /><glyph glyph-name="" unicode="&#x4ee3;" d="M434 459 q1 8 4.5 15.5 q3.5 7.5 10.5 14 q7 6.5 14.5 11 q7.5 4.5 16.5 5.5 l196 25 q10 118 27 252 q1 8 6 16.5 q5 8.5 12 15 q7 6.5 15 10 q8 3.5 16 3.5 l1 0 q8 0 15 -3.5 q7 -3.5 11.5 -9.5 q4.5 -6 7 -13.5 q2.5 -7.5 1.5 -15.5 q-19 -130 -28 -245 l264 33 q8 1 15.5 -1.5 q7.5 -2.5 13.5 -7 q6 -4.5 9.5 -11.5 q3.5 -7 2.5 -14 q0 -7 -4 -15 q-4 -8 -10.5 -14.5 q-6.5 -6.5 -14.5 -11 q-8 -4.5 -17 -5.5 l-264 -33 q-6 -120 1 -212 q9 -102 38 -163 q29 -61 82 -66 q16 -1 31 24.5 q15 25.5 31 76.5 q11 26 28.5 36 q17.5 10 35.5 -1 q6 -5 9.5 -16.5 q3.5 -11.5 -0.5 -22.5 q-19 -58 -37.5 -96.5 q-18.5 -38.5 -36.5 -61 q-18 -22.5 -37 -31.5 q-19 -9 -38 -8 q-82 7 -126 73 q-44 66 -59.5 180 q-15.5 114 -6.5 270 l0 8 l-194 -24 q-8 -1 -15.5 1 q-7.5 2 -13.5 7 q-6 5 -9.5 11 q-3.5 6 -3.5 14 ZM452 795 q4 7 10.5 12.5 q6.5 5.5 15 9.5 q8.5 4 16.5 4.5 q8 0.5 15 -1.5 q7 -3 12 -9 q5 -6 7 -14 q2 -8 0.5 -17 q-1.5 -9 -6.5 -16 q-52 -82 -113 -158 l-114 -643 q-2 -8 -6.5 -16 q-4.5 -8 -11.5 -14 q-7 -6 -14.5 -9.5 q-7.5 -3.5 -15.5 -3.5 l-4 0 q-7 0 -14 3.5 q-7 3.5 -12.5 9.5 q-5.5 6 -7.5 14 q-2 8 0 16 l92 521 q-53 -54 -107 -100 q-8 -8 -18 -11 q-10 -3 -18.5 -2 q-8.5 1 -15.5 6.5 q-7 5.5 -11 13.5 l0 2 q0 1 -1 2 q-6 12 0 30 q6 18 18 29 q83 66 162 154.5 q79 88.5 142 186.5 ZM902 746 q-4 8 -6 16.5 q-2 8.5 0 17.5 q2 9 7 16.5 q5 7.5 12 11.5 q10 6 24.5 4 q14.5 -2 21.5 -10 q27 -25 52.5 -54 q25.5 -29 43.5 -53 q4 -6 4.5 -13.5 q0.5 -7.5 -2 -15 q-2.5 -7.5 -7 -14 q-4.5 -6.5 -11.5 -10.5 q-7 -4 -16 -5 q-9 -1 -17.5 1.5 q-8.5 2.5 -15 7.5 q-6.5 5 -11.5 12 q-14 19 -35.5 43 q-21.5 24 -43.5 45 Z" /><glyph glyph-name="" unicode="&#x4ee4;" d="M391 119 q-9 5 -12.5 13.5 q-3.5 8.5 -3.5 17.5 q0 9 4 18 q4 9 12 16 l3 2 q9 8 24 10 q15 2 24 -3 q30 -20 62 -44 q25 -17 49 -36 q39 32 79 66 q41 35 81 69 q32 27 60 52 l-490 0 q-8 0 -15.5 3.5 q-7.5 3.5 -12.5 9.5 q-5 6 -7.5 13 q-2.5 7 -1.5 15 q2 7 6.5 14.5 q4.5 7.5 12 13.5 q7.5 6 16 9 q8.5 3 16.5 3 l533 0 q8 0 15 -3 q5 -2 8 -5 q1 1 1 2 q1 3 5 4.5 q4 1.5 9 1.5 q1 0 3.5 0.5 q2.5 0.5 4.5 1.5 q5 1 11.5 0 q6.5 -1 10.5 -5 l7 -4 q7 -5 10 -12.5 q3 -7.5 3 -17 q0 -9.5 -5 -18.5 q-5 -9 -13 -16 q-33 -29 -70 -61 q-37 -32 -77 -65.5 q-40 -33.5 -79 -67.5 q-30 -26 -59 -51 l12 -10 q29 -23 51 -45 q6 -4 9.5 -12 q3.5 -8 2.5 -16.5 q-1 -8.5 -4.5 -17 q-3.5 -8.5 -10.5 -14.5 l-8 -7 q-6 -6 -14.5 -9 q-8.5 -3 -16.5 -3.5 q-8 -0.5 -16 1.5 q-8 2 -14 7 q-19 20 -44.5 43 q-25.5 23 -53.5 46.5 q-28 23.5 -58 46.5 q-30 23 -59 44 ZM651 819 q11 11 28 14.5 q17 3.5 27 -2.5 l3 -1 q7 -5 11 -12.5 q4 -7.5 3.5 -16.5 q-0.5 -9 -4.5 -18 q-2 -4 -5 -8 q27 -34 63 -69 q36 -34 77.5 -66.5 q41.5 -32.5 86.5 -60.5 q45 -28 89 -49 q20 -10 21.5 -31 q1.5 -21 -16.5 -39 l0 -1 q-5 -5 -12.5 -9 q-7.5 -4 -15.5 -6 q-8 -2 -15.5 -1.5 q-7.5 0.5 -13.5 3.5 q-43 24 -88.5 55 q-45.5 31 -88.5 67 q-43 36 -83 75 q-36 37 -66 74 q-25 -22 -52 -44 q-57 -46 -118.5 -87 q-61.5 -41 -126 -77 q-64.5 -36 -129.5 -66 q-7 -3 -14.5 -3.5 q-7.5 -0.5 -15.5 1.5 q-8 2 -13.5 5.5 q-5.5 3.5 -8.5 8.5 q-11 18 -2.5 38 q8.5 20 31.5 30 q61 27 123 60.5 q62 33.5 119.5 71.5 q57.5 38 110 79.5 q52.5 41.5 95.5 84.5 ZM547 519 q-5 6 -7.5 15 q-2.5 9 -1 17.5 q1.5 8.5 6 16.5 q4.5 8 12.5 13 q10 8 25.5 7 q15.5 -1 23.5 -10 q24 -21 46.5 -46 q22.5 -25 36.5 -47 q5 -6 6 -13.5 q1 -7.5 -0.5 -15.5 q-1.5 -8 -6 -15 q-4.5 -7 -11.5 -12 q-7 -6 -15.5 -7.5 q-8.5 -1.5 -18 -0.5 q-9.5 1 -16.5 5 q-7 4 -13 11 q-11 19 -29 41 q-18 22 -38 41 Z" /><glyph glyph-name="" unicode="&#x4ee5;" d="M909 759 q2 8 7.5 16 q5.5 8 12.5 13.5 q7 5.5 15.5 9 q8.5 3.5 16.5 3.5 l5 -1 q8 0 14.5 -4 q6.5 -4 11 -10.5 q4.5 -6.5 6 -14.5 q1.5 -8 -0.5 -16 q-39 -161 -84.5 -289 q-45.5 -128 -108.5 -228 l-4 -8 q23 -26 46 -54 q24 -29 46 -57.5 q22 -28.5 41 -56.5 q19 -28 34 -52 q3 -7 3.5 -15 q0.5 -8 -2 -16 q-2.5 -8 -7.5 -15 q-5 -7 -13 -12 l-5 -3 q-7 -5 -16.5 -6.5 q-9.5 -1.5 -18 0 q-8.5 1.5 -15.5 6 q-7 4.5 -11 11.5 q-13 23 -30 49.5 q-17 26.5 -36.5 54 q-19.5 27.5 -40.5 55.5 q-15 19 -29 36 q-41 -51 -90 -93 q-85 -76 -204 -132 q-6 -3 -14 -3.5 q-8 -0.5 -15.5 1 q-7.5 1.5 -13.5 5.5 q-6 4 -10 9 l-1 0 q-11 17 -2.5 38 q8.5 21 31.5 33 q106 49 182 117 q76 68 131.5 159 q55.5 91 95.5 207.5 q40 116.5 73 262.5 ZM225 54 q-12 -7 -23 -8 l-7 0 l-1 -1 q-10 -4 -19.5 -4.5 q-9.5 -0.5 -17 3 q-7.5 3.5 -10.5 10.5 q-7 12 1.5 30 q8.5 18 22.5 34 q7 6 12 9.5 q5 3.5 10 9 q5 5.5 9 15 q4 9.5 6 27.5 l96 544 q2 8 6.5 16 q4.5 8 12 14 q7.5 6 15.5 9.5 q8 3.5 16 3.5 l7 0 q8 0 15 -3.5 q7 -3.5 11.5 -9.5 q4.5 -6 6.5 -14 q2 -8 1 -16 l-97 -548 l190 82 q9 5 19 5.5 q10 0.5 18 -2.5 q8 -3 13.5 -9.5 q5.5 -6.5 5.5 -15.5 q2 -12 -8 -27 q-10 -15 -23 -22 q-65 -28 -111.5 -49 q-46.5 -21 -80.5 -36.5 q-34 -15.5 -57 -26.5 q-23 -11 -39 -20 ZM538 667 q-4 8 -4.5 17 q-0.5 9 3.5 18 q4 9 10 17 q6 8 14 11 l2 1 q12 6 27 2.5 q15 -3.5 21 -14.5 q12 -20 24 -42 q12 -22 23 -44.5 q11 -22.5 20 -43.5 q9 -21 16 -40 q3 -7 2 -14.5 q-1 -7.5 -4 -15 q-3 -7.5 -8.5 -14 q-5.5 -6.5 -12.5 -10.5 l-3 -2 q-8 -4 -17.5 -4.5 q-9.5 -0.5 -17.5 2.5 q-8 3 -14 9 q-6 6 -10 14 q-12 35 -30.5 76 q-18.5 41 -40.5 77 Z" /><glyph glyph-name="" unicode="&#x4eea;" d="M557 763 q8 1 15 -1.5 q7 -2.5 12.5 -7.5 q5.5 -5 9 -12.5 q3.5 -7.5 4.5 -14.5 q1 -127 19 -237 q18 -110 57 -200 q11 -24 23 -47 q27 30 52 61 q74 93 129 203 q55 110 99 234 q2 7 8.5 14.5 q6.5 7.5 14.5 12 q8 4.5 16.5 7.5 q8.5 3 16.5 1 q8 -1 13.5 -6 q5.5 -5 9 -12 q3.5 -7 4 -15 q0.5 -8 -2.5 -17 q-50 -134 -111 -253.5 q-61 -119.5 -142 -219.5 q-32 -39 -67 -75 q19 -25 40 -48 q63 -70 156 -115 q19 -12 20.5 -32 q1.5 -20 -15.5 -38 q-10 -11 -26.5 -15.5 q-16.5 -4.5 -28.5 2.5 q-103 49 -173 125 q-24 26 -44 55 q-25 -21 -51 -41 q-108 -81 -250 -139 q-14 -7 -29.5 -3 q-15.5 4 -20.5 13 q-9 15 1.5 34.5 q10.5 19.5 32.5 29.5 q130 54 228 129 q25 20 49 40 q-15 27 -27 56 q-43 99 -61.5 220 q-18.5 121 -21.5 263 q0 8 4 16.5 q4 8.5 9.5 15 q5.5 6.5 12.5 11.5 q7 5 15 6 ZM408 800 q4 8 11 13.5 q7 5.5 15 9 q8 3.5 16 5 q8 1.5 14 -1.5 q8 -2 13 -8 q5 -6 7 -13.5 q2 -7.5 1.5 -16.5 q-0.5 -9 -5.5 -17 q-53 -89 -115 -172 l-113 -636 q-1 -8 -6 -16 q-5 -8 -11 -14 q-6 -6 -14 -9.5 q-8 -3.5 -16 -3.5 q-8 0 -14 3.5 q-6 3.5 -11 10 q-5 6.5 -7 14 q-2 7.5 -1 15.5 l91 513 q-34 -37 -68 -71 q-9 -9 -18.5 -12.5 q-9.5 -3.5 -18.5 -2.5 q-9 1 -16 6.5 q-7 5.5 -11 14.5 q-1 1 -1 2 q0 1 -1 2 q-4 12 1 28.5 q5 16.5 16 27.5 q72 65 140 150.5 q68 85.5 122 178.5 ZM715 745 q-3 8 -2.5 17 q0.5 9 4 17.5 q3.5 8.5 8.5 15.5 q5 7 14 10 q12 6 26.5 1 q14.5 -5 19.5 -16 q17 -34 32.5 -70.5 q15.5 -36.5 24.5 -66.5 q2 -12 -5 -27 q-7 -15 -19 -20 q-8 -4 -17.5 -4 q-9.5 0 -17.5 3.5 q-8 3.5 -14 10 q-6 6.5 -8 15.5 q-8 25 -20.5 55.5 q-12.5 30.5 -25.5 58.5 Z" /><glyph glyph-name="" unicode="&#x4eec;" d="M730 768 q1 7 6 14 q5 7 12 12.5 q7 5.5 15.5 8.5 q8.5 3 16.5 3 l265 0 q8 0 15 -4 q6 -3 11 -8 q6 -5 8 -12 q2 -7 2 -14 q-1 -1 -1 -2 l0 -4 l-131 -742 q-7 -36 -20 -55 q-13 -19 -39 -30 q-21 -8 -51.5 -10.5 q-30.5 -2.5 -76.5 -3.5 q-13 0 -25 9 q-12 9 -14 20 q-1 19 14 33.5 q15 14.5 40 15.5 q22 -1 36.5 -1 q14.5 0 26.5 1 q12 1 17.5 5.5 q5.5 4.5 7.5 16.5 l125 709 l-224 0 q-7 0 -14.5 3 q-7.5 3 -12.5 8.5 q-5 5.5 -7.5 12.5 q-2.5 7 -1.5 14 ZM368 794 q4 8 11 14.5 q7 6.5 15 11.5 q8 5 16 6.5 q8 1.5 15 -0.5 q7 -2 12 -7.5 q5 -5.5 7.5 -13 q2.5 -7.5 2 -16 q-0.5 -8.5 -4.5 -16.5 q-44 -90 -96 -175 l-112 -635 q-2 -9 -6.5 -17 q-4.5 -8 -11 -14 q-6.5 -6 -14.5 -9.5 q-8 -3.5 -15.5 -3.5 q-7.5 0 -14 3.5 q-6.5 3.5 -11.5 9.5 q-5 6 -6.5 14 q-1.5 8 -0.5 16 l84 478 q-16 -21 -33 -41 q-8 -10 -17.5 -15 q-9.5 -5 -18.5 -4.5 q-9 0.5 -16 6.5 q-7 6 -11 16 q-1 2 -1 3 l0 3 q-5 9 -1.5 24 q3.5 15 12.5 24 q60 68 115.5 156 q55.5 88 100.5 182 ZM458 593 q2 8 6.5 16 q4.5 8 12 14 q7.5 6 15.5 9.5 q8 3.5 15 3.5 q8 0 15 -3.5 q7 -3.5 11.5 -9.5 q4.5 -6 6.5 -14 q2 -8 0 -16 l-111 -631 q-1 -8 -6 -16 q-5 -8 -11.5 -14 q-6.5 -6 -14.5 -9.5 q-8 -3.5 -16 -3.5 q-8 0 -14.5 3.5 q-6.5 3.5 -11.5 9.5 q-5 6 -7 14 q-2 8 -1 16 l111 631 ZM558 766 q-3 7 -3 16 q0 9 2.5 17.5 q2.5 8.5 8 15.5 q5.5 7 12.5 11 q12 6 27 1.5 q15 -4.5 21 -16.5 q17 -30 32.5 -64 q15.5 -34 24.5 -62 q3 -6 2.5 -14 q-0.5 -8 -3.5 -15.5 q-3 -7.5 -8 -14 q-5 -6.5 -12 -9.5 q-8 -4 -16.5 -4.5 q-8.5 -0.5 -16.5 2.5 q-8 3 -14 9 q-6 6 -10 14 q-8 25 -20.5 55 q-12.5 30 -26.5 58 Z" /><glyph glyph-name="" unicode="&#x4ef6;" d="M760 788 q1 7 6 15 q5 8 12 14 q7 6 14.5 9.5 q7.5 3.5 15.5 3.5 l2 0 q8 0 15 -3.5 q7 -3.5 11.5 -9.5 q4.5 -6 6.5 -14 q2 -8 1 -15 l-26 -149 l182 0 q8 0 15 -3 q7 -3 12.5 -9 q5.5 -6 8 -13.5 q2.5 -7.5 0.5 -15.5 q-1 -8 -6 -15 q-5 -7 -12 -13 q-7 -6 -15.5 -9.5 q-8.5 -3.5 -17.5 -3.5 l-182 0 l-37 -211 l228 0 q8 0 15 -3.5 q7 -3.5 12 -9.5 q5 -6 7.5 -13 q2.5 -7 0.5 -15 q-1 -8 -6 -15.5 q-5 -7.5 -12.5 -13 q-7.5 -5.5 -15 -9 q-7.5 -3.5 -16.5 -3.5 l-228 0 l-53 -304 q-1 -7 -6 -15 q-5 -8 -11.5 -14 q-6.5 -6 -15 -9.5 q-8.5 -3.5 -15.5 -3.5 l-3 0 q-7 0 -13.5 3.5 q-6.5 3.5 -11.5 9.5 q-5 6 -7 14 q-2 8 -1 15 l53 304 l-241 0 q-8 0 -15 3.5 q-7 3.5 -12.5 9 q-5.5 5.5 -7.5 13 q-2 7.5 -1 15.5 q2 8 7 15 q5 7 12 13 q7 6 15.5 9.5 q8.5 3.5 15.5 3.5 l242 0 l37 211 l-124 0 q-9 0 -17 4 l-6 4 q-34 -63 -71 -114 q-5 -8 -13 -13.5 q-8 -5.5 -16.5 -8.5 q-8.5 -3 -16.5 -2.5 q-8 0.5 -14 4.5 q-12 8 -12.5 27 q-0.5 19 10.5 36 q40 52 73 117 q33 65 59 136 q4 8 10.5 15.5 q6.5 7.5 14 12.5 q7.5 5 16 7 q8.5 2 16.5 1 q7 -2 12.5 -7 q5.5 -5 8.5 -12.5 q3 -7.5 3 -15.5 q0 -8 -4 -17 q-18 -47 -39 -92 l124 0 l27 149 ZM409 800 q5 8 11.5 13.5 q6.5 5.5 14.5 9 q8 3.5 16 5 q8 1.5 15 -1.5 q8 -2 13 -8 q5 -6 6.5 -13.5 q1.5 -7.5 1 -16.5 q-0.5 -9 -5.5 -17 q-52 -90 -113 -174 l-112 -634 q-1 -8 -6 -16 q-5 -8 -11.5 -14 q-6.5 -6 -14.5 -9.5 q-8 -3.5 -16 -3.5 q-8 0 -14 3.5 q-6 3.5 -11 10 q-5 6.5 -7 14 q-2 7.5 -1 15.5 l90 505 q-29 -33 -58 -62 q-9 -9 -18.5 -13 q-9.5 -4 -18.5 -3 q-9 1 -16 6.5 q-7 5.5 -11 14.5 q-1 1 -1 2 q0 1 -1 2 q-5 12 0 28.5 q5 16.5 16 27.5 q69 65 134 150.5 q65 85.5 118 178.5 Z" /><glyph glyph-name="" unicode="&#x4ef7;" d="M411 803 q4 8 11 13.5 q7 5.5 15 9 q8 3.5 16 5 q8 1.5 15 -0.5 q7 -3 12.5 -8.5 q5.5 -5.5 7.5 -13.5 q2 -8 1 -17 q-1 -9 -6 -17 q-52 -89 -111 -173 l-113 -639 q-1 -9 -6 -16.5 q-5 -7.5 -12 -14 q-7 -6.5 -15.5 -10 q-8.5 -3.5 -16.5 -3.5 l-1 0 q-7 0 -13.5 3.5 q-6.5 3.5 -11.5 10 q-5 6.5 -7.5 14 q-2.5 7.5 -0.5 15.5 l88 502 q-24 -29 -49 -55 q-10 -9 -19.5 -12.5 q-9.5 -3.5 -18.5 -2.5 q-9 1 -16 6.5 q-7 5.5 -10 14.5 q-1 1 -1 2 q0 1 -1 2 q-6 12 -1 28.5 q5 16.5 15 27.5 q69 65 133.5 150.5 q64.5 85.5 115.5 178.5 ZM744 812 q7 12 23 20.5 q16 8.5 29 5.5 l4 0 q9 -2 15.5 -7.5 q6.5 -5.5 9 -13.5 q2.5 -8 1.5 -17 q-1 -9 -7 -18 q0 -1 -1 -2 q4 -4 7 -10 q16 -37 39 -72.5 q23 -35.5 49.5 -69 q26.5 -33.5 57 -62.5 q30.5 -29 62.5 -52 q16 -13 16.5 -33 q0.5 -20 -15.5 -35 q-5 -5 -12.5 -8.5 q-7.5 -3.5 -15.5 -4.5 q-8 -1 -16 0.5 q-8 1.5 -14 6.5 q-33 26 -65.5 59 q-32.5 33 -62 71.5 q-29.5 38.5 -54.5 80.5 q-16 27 -30 55 q-8 -9 -16 -19 q-39 -48 -86 -93.5 q-47 -45.5 -102 -88 q-55 -42.5 -117 -79.5 q-17 -9 -34.5 -6.5 q-17.5 2.5 -23.5 13.5 q-8 15 1 35 q9 20 30 32 q56 33 105 71.5 q49 38.5 90.5 78.5 q41.5 40 74.5 81.5 q33 41.5 58 80.5 ZM529 406 q1 8 6 15.5 q5 7.5 12 13.5 q7 6 15 10 q8 4 16 4 l2 0 q8 0 14.5 -4 q6.5 -4 11.5 -10 q5 -6 7 -13.5 q2 -7.5 0 -15.5 l-17 -95 q-7 -40 -19.5 -86.5 q-12.5 -46.5 -36 -95.5 q-23.5 -49 -60 -97 q-36.5 -48 -91.5 -92 q-7 -6 -15.5 -9 q-8.5 -3 -16.5 -3 q-8 0 -14.5 2.5 q-6.5 2.5 -11.5 7.5 q-11 13 -5.5 33.5 q5.5 20.5 21.5 37.5 q45 36 74 74.5 q29 38.5 47 78 q18 39.5 28 77.5 q10 38 16 73 l17 94 ZM810 407 q2 8 6.5 16 q4.5 8 12 14 q7.5 6 15 9.5 q7.5 3.5 15.5 3.5 l3 0 q9 0 15.5 -3.5 q6.5 -3.5 11 -9.5 q4.5 -6 7 -14 q2.5 -8 0.5 -16 l-78 -444 q-2 -8 -6.5 -16 q-4.5 -8 -11.5 -14 q-7 -6 -14.5 -9.5 q-7.5 -3.5 -16.5 -3.5 l-3 0 q-7 0 -14 3.5 q-7 3.5 -12.5 9.5 q-5.5 6 -7.5 14 q-2 8 0 16 l78 444 Z" /><glyph glyph-name="" unicode="&#x4efb;" d="M998 810 q11 4 24 0.5 q13 -3.5 18 -11.5 l4 -6 q6 -8 6.5 -17.5 q0.5 -9.5 -3.5 -18.5 q-4 -9 -12 -15.5 q-8 -6.5 -20 -10.5 q-50 -14 -108 -26 q-46 -10 -93 -19 q4 -5 5 -12 q2 -8 1 -16 l-43 -242 l234 0 q8 0 15.5 -3.5 q7.5 -3.5 12.5 -9 q5 -5.5 7.5 -13 q2.5 -7.5 1.5 -14.5 q-2 -8 -7 -15 q-5 -7 -12 -13 q-7 -6 -15.5 -9.5 q-8.5 -3.5 -16.5 -3.5 l-234 0 l-49 -278 q-2 -8 -6 -16 q-2 -2 -3 -4 l225 0 q7 0 14.5 -3.5 q7.5 -3.5 12.5 -9 q5 -5.5 7.5 -12.5 q2.5 -7 1.5 -15 q-2 -8 -6.5 -15 q-4.5 -7 -11.5 -13 q-7 -6 -16 -9.5 q-9 -3.5 -16 -3.5 l-515 0 q-8 0 -15 3.5 q-7 3.5 -12 9.5 q-5 6 -7.5 13 q-2.5 7 -1.5 15 q2 8 6.5 15 q4.5 7 11.5 12.5 q7 5.5 15.5 9 q8.5 3.5 16.5 3.5 l216 0 q-1 2 -1 4 q-2 8 -1 16 l49 278 l-249 0 q-8 0 -15 3.5 q-7 3.5 -12.5 9.5 q-5.5 6 -8 13 q-2.5 7 -0.5 15 q1 7 6 14.5 q5 7.5 12.5 13 q7.5 5.5 15.5 9 q8 3.5 17 3.5 l249 0 l42 242 q1 8 6 15 q-39 -6 -79 -12 q-63 -9 -123 -17 q-16 -2 -29.5 6 q-13.5 8 -15.5 19 q-3 16 11.5 31 q14.5 15 36.5 18 q60 9 122.5 19 q62.5 10 122.5 22 q60 12 114.5 25 q54.5 13 96.5 26 ZM435 803 q5 7 11.5 13 q6.5 6 14.5 9.5 q8 3.5 16 4.5 q8 1 15 -1 l3 -1 q8 -2 12.5 -8 q4.5 -6 6.5 -14 q2 -8 1 -17 q-1 -9 -6 -17 q-54 -87 -117 -168 l-113 -642 q-2 -8 -6.5 -16 q-4.5 -8 -12 -14 q-7.5 -6 -15.5 -9.5 q-8 -3.5 -16 -3.5 q-7 0 -14 3.5 q-7 3.5 -12 9.5 q-5 6 -7 14 q-2 8 -1 16 l92 518 q-43 -45 -87 -86 q-9 -8 -18.5 -11.5 q-9.5 -3.5 -18.5 -2.5 q-9 1 -16.5 6.5 q-7.5 5.5 -11.5 13.5 q0 2 -0.5 3 q-0.5 1 -1.5 2 q-6 12 0 30.5 q6 18.5 18 29.5 q77 65 151 153 q74 88 133 185 Z" /><glyph glyph-name="" unicode="&#x4efd;" d="M490 413 q1 8 6 15 q5 7 12 12.5 q7 5.5 15.5 8.5 q8.5 3 16.5 3 l371 0 q8 0 15.5 -3 q7.5 -3 13.5 -8 q1 -2 2 -3 q3 -3 4 -7 q2 -5 2 -10 q1 -4 0 -8 q-1 -3 -2 -7 q-25 -110 -44 -187 q-19 -80 -35 -132.5 q-16 -52.5 -30 -81.5 q-14 -29 -28 -43 q-17 -18 -34.5 -25.5 q-17.5 -7.5 -40.5 -9.5 q-13 -1 -34 -1.5 q-21 -0.5 -45 0.5 q-14 -1 -25.5 8.5 q-11.5 9.5 -12.5 20.5 q-2 19 11 33 q13 14 35 13 q8 -1 13.5 -1 q5.5 0 10.5 -0.5 q5 -0.5 10 -0.5 l12 0 q12 0 20 2.5 q8 2.5 18 11.5 q9 9 20.5 35.5 q11.5 26.5 26.5 76.5 q15 50 34 127 q13 53 28 122 l-178 0 q1 -4 2 -9 q1 -8 -2 -16 q-44 -144 -110 -244.5 q-66 -100.5 -170 -166.5 q-6 -5 -14 -6.5 q-8 -1.5 -15.5 -0.5 q-7.5 1 -13.5 3.5 q-6 2.5 -9 7.5 q-10 15 -2 35 q8 20 28 35 q84 55 137.5 140.5 q53.5 85.5 88.5 202.5 q2 8 8 16 l3 3 l-83 0 q-8 0 -15 3.5 q-7 3.5 -12.5 9 q-5.5 5.5 -8 12.5 q-2.5 7 -0.5 14 ZM402 800 q4 8 10.5 13.5 q6.5 5.5 15 9 q8.5 3.5 16 5 q7.5 1.5 14.5 -0.5 q8 -3 13 -8.5 q5 -5.5 7 -13.5 q2 -8 1.5 -17 q-0.5 -9 -5.5 -16 q-50 -89 -108 -172 l-113 -638 q-1 -9 -6 -16.5 q-5 -7.5 -12 -14 q-7 -6.5 -15 -10 q-8 -3.5 -16 -3.5 q-8 0 -14.5 3.5 q-6.5 3.5 -11.5 10 q-5 6.5 -7 14 q-2 7.5 -1 15.5 l89 501 q-25 -29 -51 -56 q-9 -9 -18 -13 q-9 -4 -18 -3 q-9 1 -16.5 6.5 q-7.5 5.5 -11.5 14.5 q-1 1 -1 2 q0 1 -1 2 q-5 12 -0.5 28.5 q4.5 16.5 15.5 27.5 q68 65 131 151 q63 86 114 178 ZM644 776 q7 14 24.5 24 q17.5 10 31.5 7 q8 -2 13.5 -7 q5.5 -5 9 -13 q3.5 -8 3 -16.5 q-0.5 -8.5 -4.5 -16.5 q-51 -104 -116 -191 q-65 -87 -142 -152 q-8 -8 -17.5 -11 q-9.5 -3 -18 -2 q-8.5 1 -16 5.5 q-7.5 4.5 -11.5 11.5 q-3 6 -3 15 q0 9 3 18 q3 9 8.5 17.5 q5.5 8.5 12.5 14.5 q68 56 124 130.5 q56 74.5 99 165.5 ZM886 815 q15 3 27 -7.5 q12 -10.5 14 -25.5 q5 -49 14 -90.5 q9 -41.5 22.5 -77 q13.5 -35.5 32.5 -66.5 q19 -31 43 -58 q13 -15 12 -35 q-1 -20 -14 -33 q-6 -7 -15.5 -10.5 q-9.5 -3.5 -18.5 -4.5 q-9 -1 -17 2.5 q-8 3.5 -15 10.5 q-27 33 -48.5 70 q-21.5 37 -36.5 79.5 q-15 42.5 -24.5 90.5 q-9.5 48 -14.5 105 q0 8 3 16.5 q3 8.5 8.5 15.5 q5.5 7 12.5 12 q7 5 15 6 Z" /><glyph glyph-name="" unicode="&#x4eff;" d="M453 626 q2 8 7 15 q5 7 12 13 q7 6 15 9.5 q8 3.5 16 3.5 l554 0 q8 0 15 -3.5 q7 -3.5 12 -9.5 q5 -6 7.5 -13 q2.5 -7 0.5 -15 q-1 -8 -6 -15.5 q-5 -7.5 -12 -13 q-7 -5.5 -15.5 -9 q-8.5 -3.5 -16.5 -3.5 l-339 0 q-1 -3 -1 -5 q-15 -70 -32 -139 q1 1 3 2 q8 3 16 3 l259 0 q9 0 16 -3.5 q7 -3.5 12 -8.5 q2 -2 3 -4 q2 -2 4 -5 q2 -4 2 -8 q1 -5 0 -10 q-1 -5 -3 -10 q-24 -106 -42 -181 q-20 -78 -35.5 -129.5 q-15.5 -51.5 -29.5 -80.5 q-14 -29 -28 -42 q-20 -19 -38.5 -26 q-18.5 -7 -43.5 -9 q-17 -2 -43 -2 q-26 0 -56 1 q-14 0 -25.5 9.5 q-11.5 9.5 -12.5 19.5 q-1 20 15 33.5 q16 13.5 42 12.5 q10 0 17 -0.5 q7 -0.5 13 -0.5 l26 0 q12 -1 20 1 q8 2 16 9 q1 1 3 2.5 q2 1.5 3 2.5 q11 10 22 36.5 q11 26.5 25.5 75 q14.5 48.5 31.5 122.5 q12 50 27 117 l-213 0 q-8 0 -16 3 q-4 2 -8 5 q-23 -81 -55 -154 q-35 -82 -86.5 -152.5 q-51.5 -70.5 -125.5 -124.5 q-7 -6 -15.5 -8.5 q-8.5 -2.5 -17 -2.5 q-8.5 0 -15 2.5 q-6.5 2.5 -10.5 7.5 q-11 13 -5.5 33.5 q5.5 20.5 24.5 36.5 q63 49 106.5 112.5 q43.5 63.5 73.5 137.5 q30 74 50.5 155 q20.5 81 37.5 163 l0 3 l-126 0 q-7 0 -14 3.5 q-7 3.5 -12 9 q-5 5.5 -7.5 13 q-2.5 7.5 -1.5 15.5 ZM408 803 q4 7 11 13 q7 6 15.5 9.5 q8.5 3.5 16.5 5 q8 1.5 15.5 -1 q7.5 -2.5 12.5 -8.5 q5 -6 7 -13.5 q2 -7.5 1 -16.5 q-1 -9 -6 -17 q-52 -91 -114 -177 l-112 -633 q-1 -9 -6 -16.5 q-5 -7.5 -12 -14 q-7 -6.5 -15 -10 q-8 -3.5 -15.5 -3.5 q-7.5 0 -14 3.5 q-6.5 3.5 -11.5 10 q-5 6.5 -7 14 q-2 7.5 -1 15.5 l89 502 q-27 -30 -54 -57 q-9 -9 -18 -13 q-9 -4 -18 -3 q-9 1 -16 6.5 q-7 5.5 -11 14.5 q-1 1 -1.5 2.5 q-0.5 1.5 -1.5 2.5 q-5 12 0 29 q5 17 16 28 q69 65 133 150 q64 85 117 178 ZM753 778 q-1 9 1.5 17.5 q2.5 8.5 8.5 16.5 q6 8 13 13.5 q7 5.5 16 7.5 l5 1 q14 3 27 -5 q13 -8 15 -21 q4 -19 7.5 -38.5 q3.5 -19.5 5.5 -36.5 q1 -7 -1.5 -15.5 q-2.5 -8.5 -7.5 -15.5 q-5 -7 -12.5 -12.5 q-7.5 -5.5 -14.5 -7.5 l-5 -1 q-8 -3 -16.5 -1 q-8.5 2 -15 7 q-6.5 5 -11 12 q-4.5 7 -6.5 16 q-1 13 -3.5 30 q-2.5 17 -5.5 33 Z" /><glyph glyph-name="" unicode="&#x4f01;" d="M96 -14 q1 7 6 13.5 q5 6.5 12 12 q7 5.5 15.5 9 q8.5 3.5 16.5 3.5 l81 0 q0 3 1 6 l55 317 q2 8 6.5 16 q4.5 8 12 14.5 q7.5 6.5 15.5 10 q8 3.5 15.5 3.5 q7.5 0 14 -3.5 q6.5 -3.5 11.5 -10 q5 -6.5 7 -14.5 q2 -8 0 -16 l-55 -317 l-2 -6 l180 0 l89 498 q1 8 5.5 16 q4.5 8 12 14 q7.5 6 15.5 9.5 q8 3.5 16 3.5 l4 0 q8 0 15 -3.5 q7 -3.5 12 -9.5 q5 -6 6.5 -14 q1.5 -8 0.5 -16 l-32 -182 l243 0 q8 0 15.5 -3 q7.5 -3 12.5 -8.5 q5 -5.5 7.5 -12.5 q2.5 -7 1.5 -14 q-1 -7 -6 -14 q-5 -7 -12 -12 q-7 -5 -15.5 -8.5 q-8.5 -3.5 -16.5 -3.5 l-243 0 l-43 -240 l337 0 q8 0 15 -3.5 q7 -3.5 12.5 -9 q5.5 -5.5 8 -12 q2.5 -6.5 0.5 -13.5 q-1 -7 -6 -14 q-5 -7 -12 -13 q-7 -6 -15.5 -9 q-8.5 -3 -16.5 -3 l-767 0 q-7 0 -14.5 3 q-7.5 3 -13 9 q-5.5 6 -8 13 q-2.5 7 -0.5 14 ZM639 821 q10 11 27.5 16 q17.5 5 28.5 -1 q7 -4 11 -11.5 q4 -7.5 4.5 -16 q0.5 -8.5 -3.5 -17.5 q-1 -4 -4 -8 q7 -3 11 -8 q62 -90 141.5 -152 q79.5 -62 168.5 -108 q22 -10 25 -29 q3 -19 -12 -36 q-4 -5 -11.5 -9 q-7.5 -4 -15.5 -6 q-8 -2 -16 -1.5 q-8 0.5 -15 3.5 q-92 52 -174.5 119 q-82.5 67 -152.5 167 l-2 4 q-27 -27 -57 -52 q-55 -49 -116 -92 q-61 -43 -126 -80 q-65 -37 -131 -66 q-7 -3 -15 -3.5 q-8 -0.5 -15.5 1.5 q-7.5 2 -12.5 6 q-5 4 -9 8 q-11 17 -1.5 36.5 q9.5 19.5 32.5 30.5 q62 26 122.5 59.5 q60.5 33.5 117 73 q56.5 39.5 107.5 83 q51 43.5 93 89.5 Z" /><glyph glyph-name="" unicode="&#x4f0f;" d="M424 509 q1 8 6 15 q5 7 12 13.5 q7 6.5 15.5 9.5 q8.5 3 16.5 3 l216 0 l10 54 l34 193 q2 8 6.5 16 q4.5 8 12 14 q7.5 6 15 9.5 q7.5 3.5 15.5 3.5 l2 0 q8 0 14.5 -3.5 q6.5 -3.5 11.5 -9.5 q5 -6 7 -14 q2 -8 1 -16 l-35 -194 q-4 -26 -10 -53 l250 0 q8 0 15 -3 q7 -3 12 -9.5 q5 -6.5 7.5 -13.5 q2.5 -7 1.5 -15 q-2 -8 -7 -15.5 q-5 -7.5 -12 -13.5 q-7 -6 -15.5 -9.5 q-8.5 -3.5 -16.5 -3.5 l-236 0 q3 -70 14 -134 q11 -66 32 -123 q21 -57 51.5 -103.5 q30.5 -46.5 72.5 -80.5 q14 -14 13 -35.5 q-1 -21.5 -16 -36.5 q-6 -6 -15 -9.5 q-9 -3.5 -17.5 -4.5 q-8.5 -1 -16.5 1 q-8 2 -14 8 q-45 39 -78 91.5 q-33 52.5 -54.5 117 q-21.5 64.5 -33.5 138.5 l-4 28 q-12 -26 -25 -53 q-42 -85 -108 -168 q-66 -83 -166 -157 q-6 -6 -14.5 -8.5 q-8.5 -2.5 -16.5 -2.5 q-8 0 -15 2 q-7 2 -12 6 q-13 12 -10 33 q3 21 21 36 q91 69 151 143.5 q60 74.5 97.5 150.5 q37.5 76 57.5 152 q2 4 3 9 l-211 0 q-8 0 -14.5 3.5 q-6.5 3.5 -12 9.5 q-5.5 6 -8 13.5 q-2.5 7.5 -0.5 15.5 ZM418 802 q4 7 11 13 q7 6 15 10 q8 4 16.5 5 q8.5 1 14.5 -1 q9 -2 13.5 -8 q4.5 -6 6.5 -14 q2 -8 1.5 -16.5 q-0.5 -8.5 -5.5 -16.5 q-51 -86 -111 -167 l-114 -643 q0 -9 -5.5 -17 q-5.5 -8 -12.5 -14 q-7 -6 -15 -10 q-8 -4 -16 -4 l-1 0 q-7 0 -14 4 q-7 4 -12 10 q-5 6 -7 13.5 q-2 7.5 -1 16.5 l91 511 q-34 -37 -69 -71 q-9 -9 -18.5 -12.5 q-9.5 -3.5 -18.5 -3 q-9 0.5 -16 6 q-7 5.5 -11 14.5 q-1 2 -1 3.5 q0 1.5 -1 3.5 q-5 11 0.5 27.5 q5.5 16.5 15.5 27.5 q72 65 140 151.5 q68 86.5 124 180.5 ZM905 737 q-4 8 -4.5 16.5 q-0.5 8.5 2.5 17 q3 8.5 8 16 q5 7.5 14 10.5 q5 3 12 3.5 q7 0.5 14 -1.5 q7 -2 12.5 -6 q5.5 -4 7.5 -10 q19 -26 35 -55.5 q16 -29.5 27 -53.5 q3 -6 2.5 -13.5 q-0.5 -7.5 -3.5 -15 q-3 -7.5 -8 -13.5 q-5 -6 -11 -10 q-7 -4 -16 -4.5 q-9 -0.5 -17 2.5 q-8 3 -14.5 9 q-6.5 6 -10.5 14 q-9 21 -23 46.5 q-14 25.5 -27 47.5 Z" /><glyph glyph-name="" unicode="&#x4f11;" d="M744 784 q2 8 6.5 16 q4.5 8 12 14 q7.5 6 15.5 9.5 q8 3.5 15 3.5 q9 0 15.5 -3.5 q6.5 -3.5 11.5 -9.5 q5 -6 6.5 -14 q1.5 -8 0.5 -16 l-35 -195 l243 0 q8 0 15.5 -3 q7.5 -3 12 -9 q4.5 -6 7 -13.5 q2.5 -7.5 1.5 -14.5 q-2 -8 -6.5 -15.5 q-4.5 -7.5 -11.5 -13 q-7 -5.5 -16 -9.5 q-9 -4 -16 -4 l-197 0 q10 -45 25 -91 q17 -53 39 -101.5 q22 -48.5 48 -91 q26 -42.5 54 -76.5 q10 -15 7.5 -34.5 q-2.5 -19.5 -16.5 -32.5 q-7 -6 -16 -9.5 q-9 -3.5 -18 -3 q-9 0.5 -17 4.5 q-8 4 -12 11 q-29 37 -54.5 85 q-25.5 48 -47 102.5 q-21.5 54.5 -39.5 113.5 q-7 23 -13 47 l-83 -470 q0 -8 -5 -16 q-5 -8 -12 -14 q-7 -6 -15 -9.5 q-8 -3.5 -16 -3.5 q-8 0 -14.5 3.5 q-6.5 3.5 -11.5 9.5 q-5 6 -7 14 q-2 8 -1 16 l79 447 q-10 -16 -21 -32 q-38 -60 -80.5 -114.5 q-42.5 -54.5 -87.5 -102.5 q-45 -48 -89 -86 q-8 -7 -16.5 -10 q-8.5 -3 -17 -3 q-8.5 0 -16 3 q-7.5 3 -11.5 9 q-6 7 -7 15.5 q-1 8.5 1.5 18 q2.5 9.5 8 19 q5.5 9.5 13.5 16.5 q43 34 84.5 77 q41.5 43 81 92 q39.5 49 75.5 103 q32 47 59 94 l-194 0 q-8 0 -15 4 q-7 4 -12 9.5 q-5 5.5 -7.5 13 q-2.5 7.5 -0.5 15.5 q1 7 5.5 14.5 q4.5 7.5 12 13.5 q7.5 6 15.5 9 q8 3 16 3 l235 0 l34 195 ZM434 798 q8 14 26 22 q18 8 32 4 l3 -1 q7 -2 12 -8 q5 -6 7 -14 q2 -8 0.5 -17 q-1.5 -9 -6.5 -17 q-55 -90 -121 -173 l-111 -630 q-1 -9 -6 -16.5 q-5 -7.5 -12 -13.5 q-7 -6 -14.5 -10 q-7.5 -4 -15.5 -4 q-8 0 -14.5 4 q-6.5 4 -12.5 10 q-6 6 -7.5 14 q-1.5 8 -0.5 16 l90 511 q-42 -45 -87 -84 q-8 -8 -17.5 -11 q-9.5 -3 -18.5 -2 q-9 1 -16 6.5 q-7 5.5 -11 13.5 q0 2 -0.5 3.5 q-0.5 1.5 -1.5 3.5 q-6 12 0 30 q6 18 18 29 q78 64 152 151 q74 87 133 183 Z" /><glyph glyph-name="" unicode="&#x4f17;" d="M635 814 q10 12 28 19 q18 7 31 1 l4 -1 q7 -4 11.5 -10.5 q4.5 -6.5 5.5 -14.5 q1 -8 -0.5 -16.5 q-1.5 -8.5 -7.5 -15.5 q-4 -6 -8 -11 q5 -4 9 -10 q21 -38 52.5 -74 q31.5 -36 70.5 -67.5 q39 -31.5 84 -58 q45 -26.5 94 -44.5 q21 -9 24.5 -29.5 q3.5 -20.5 -13.5 -39.5 q-10 -10 -26 -15 q-16 -5 -28 0 q-52 21 -100 51 q-48 30 -90 67.5 q-42 37.5 -76 80.5 q-30 37 -53 77 q-66 -73 -148 -133 q-121 -89 -263 -145 q-7 -4 -15 -4 q-8 0 -15 2.5 q-7 2.5 -13 7 q-6 4.5 -10 9.5 q-9 19 -0.5 39.5 q8.5 20.5 32.5 30.5 q127 47 235.5 124 q108.5 77 184.5 180 ZM723 433 q3 9 9 16 q6 7 13.5 12.5 q7.5 5.5 15.5 8.5 q8 3 16 2 l1 0 q8 0 14 -5 q6 -5 10 -11.5 q4 -6.5 5 -14.5 q1 -8 -2 -17 q-16 -52 -34 -99 q3 -2 5 -5 q5 -7 8 -16 q6 -35 16.5 -72.5 q10.5 -37.5 27.5 -73 q17 -35.5 40.5 -67 q23.5 -31.5 55.5 -56.5 q16 -14 17 -35.5 q1 -21.5 -15 -38.5 q-5 -6 -13 -9.5 q-8 -3.5 -16 -4.5 q-8 -1 -16 0 q-8 1 -13 7 q-38 31 -65.5 71 q-27.5 40 -47 84 q-19.5 44 -30.5 89 q-1 6 -3 12 q-17 -34 -35 -65 q-35 -59 -77.5 -109 q-42.5 -50 -92.5 -91 q-6 -5 -13.5 -8 q-7.5 -3 -15.5 -3.5 q-8 -0.5 -15.5 1 q-7.5 1.5 -11.5 6.5 q-14 12 -10 33 q4 21 23 38 q90 72 149 177.5 q59 105.5 100 243.5 ZM363 439 q2 8 8 15.5 q6 7.5 14 12.5 q8 5 16 8 q8 3 15 2 l1 0 q8 0 14 -5 q6 -5 10 -11.5 q4 -6.5 5 -14.5 q1 -8 -1 -16 q-20 -62 -42 -118 q8 -2 14 -8 q17 -16 34 -33 q17 -17 32.5 -34 q15.5 -17 29.5 -33.5 q14 -16.5 25 -31.5 q5 -4 5.5 -11 q0.5 -7 -1 -15 q-1.5 -8 -5 -15 q-3.5 -7 -8.5 -11 q-8 -7 -17.5 -10 q-9.5 -3 -18.5 -2.5 q-9 0.5 -17 4.5 q-8 4 -14 12 q-9 13 -21 28 q-12 15 -25.5 30.5 q-13.5 15.5 -27.5 30.5 q-10 11 -20 21 q-20 -41 -41 -78 q-69 -119 -168 -202 q-5 -6 -13 -9 q-8 -3 -16 -4 q-8 -1 -15.5 0.5 q-7.5 1.5 -12.5 6.5 q-7 5 -9.5 14 q-2.5 9 -0.5 18.5 q2 9.5 7 19.5 q5 10 14 19 q88 73 148 179 q60 106 102 241 Z" /><glyph glyph-name="" unicode="&#x4f18;" d="M412 567 q1 7 6 14 q5 7 12 12.5 q7 5.5 15.5 9 q8.5 3.5 16.5 3.5 l178 0 q19 90 35 180 q2 8 7 16 q5 8 12 14 q7 6 15 9.5 q8 3.5 16.5 3.5 q8.5 0 14.5 -3.5 q6 -3.5 11 -9.5 q5 -6 7.5 -14 q2.5 -8 0.5 -16 q-17 -90 -36 -180 l312 0 q8 0 15.5 -3.5 q7.5 -3.5 12.5 -9 q5 -5.5 7 -12.5 q2 -7 2 -14 q-2 -8 -7 -15 q-5 -7 -12 -13 q-7 -6 -15.5 -9 q-8.5 -3 -16.5 -3 l-316 0 q-26 -110 -65 -211 q-43 -110 -106 -204 q-63 -94 -156 -163 q-7 -6 -15.5 -8 q-8.5 -2 -16.5 -1.5 q-8 0.5 -14.5 3.5 q-6.5 3 -10.5 8 q-11 14 -4.5 34.5 q6.5 20.5 25.5 35.5 q82 64 137 150 q55 86 92 186 q30 82 51 170 l-174 0 q-8 0 -15.5 3 q-7.5 3 -12.5 9 q-5 6 -7.5 13 q-2.5 7 -0.5 15 ZM413 800 q4 8 11 14 q7 6 14.5 9.5 q7.5 3.5 16 5 q8.5 1.5 14.5 -1.5 q8 -2 13 -8 q5 -6 7.5 -13.5 q2.5 -7.5 1.5 -16.5 q-1 -9 -6 -16 q-55 -96 -120 -185 l-111 -626 q-1 -9 -6 -17 q-5 -8 -11.5 -14 q-6.5 -6 -15 -9.5 q-8.5 -3.5 -16 -3.5 q-7.5 0 -13.5 3.5 q-6 3.5 -10.5 10 q-4.5 6.5 -7 14 q-2.5 7.5 -0.5 15.5 l87 498 q-24 -27 -49 -52 q-9 -9 -18.5 -12.5 q-9.5 -3.5 -18 -3 q-8.5 0.5 -16 6 q-7.5 5.5 -11.5 14.5 q-1 1 -1 2 q0 1 -1 2 q-4 12 0.5 28.5 q4.5 16.5 14.5 27.5 q69 65 134 150.5 q65 85.5 118 177.5 ZM727 409 q1 8 6 15.5 q5 7.5 12 13.5 q7 6 15 10 q8 4 16 4 q8 0 14.5 -4 q6.5 -4 11 -10 q4.5 -6 6.5 -13.5 q2 -7.5 1 -15.5 l-62 -350 q-4 -23 1 -30 q5 -7 26 -7 l95 0 q9 0 15 3 q6 3 12 12.5 q6 9.5 10.5 26 q4.5 16.5 10.5 42.5 q8 26 25 39 q17 13 35 5 q9 -4 14 -17 q5 -13 2 -25 q-12 -48 -23 -79.5 q-11 -31.5 -26 -50 q-15 -18.5 -34 -26 q-19 -7.5 -48 -7.5 l-112 0 q-31 0 -50.5 5.5 q-19.5 5.5 -29 18.5 q-9.5 13 -10 35 q-0.5 22 5.5 55 l61 350 ZM883 739 q-5 7 -6.5 16 q-1.5 9 0 17 q1.5 8 6 16 q4.5 8 11.5 12 q10 7 25 4.5 q15 -2.5 22 -12.5 q20 -21 39 -45.5 q19 -24.5 33 -44.5 q8 -12 4 -29 q-4 -17 -17 -25 q-7 -5 -15.5 -6 q-8.5 -1 -16.5 1 q-8 2 -15.5 6.5 q-7.5 4.5 -11.5 11.5 q-11 18 -26.5 38.5 q-15.5 20.5 -31.5 39.5 Z" /><glyph glyph-name="" unicode="&#x4f19;" d="M750 789 q2 9 6.5 16.5 q4.5 7.5 12 13.5 q7.5 6 15.5 10 q8 4 15 4 l7 0 q8 0 14.5 -4 q6.5 -4 11.5 -10 q5 -6 7 -14 q2 -8 0 -16 q-28 -158 -58 -290 q-7 -33 -15 -63 q3 -7 3 -14 q-2 -72 6 -133.5 q8 -61.5 28 -111.5 q20 -50 54 -88 q34 -38 83 -64 q18 -13 21 -33.5 q3 -20.5 -14 -38.5 q-5 -6 -12 -10 q-7 -4 -15 -6 q-8 -2 -16 -1.5 q-8 0.5 -14 4.5 q-59 30 -98.5 75 q-39.5 45 -62.5 104 q-22 56 -31 126 q-45 -96 -113 -170 q-74 -81 -191 -137 q-7 -4 -15.5 -5 q-8.5 -1 -16 0.5 q-7.5 1.5 -13.5 5.5 q-6 4 -10 9 q-10 16 -1.5 36 q8.5 20 29.5 33 q102 50 165 122.5 q63 72.5 102.5 168 q39.5 95.5 64.5 215 q25 119.5 51 266.5 ZM416 803 q5 7 12 13 q7 6 14.5 9.5 q7.5 3.5 16 4.5 q8.5 1 14.5 -1 l1 0 q9 -3 13.5 -9 q4.5 -6 6.5 -14 q2 -8 1 -16.5 q-1 -8.5 -7 -16.5 q-49 -85 -107 -164 l-114 -646 q-1 -8 -6 -16 q-5 -8 -12 -14.5 q-7 -6.5 -14.5 -10 q-7.5 -3.5 -15.5 -3.5 l-5 0 q-7 0 -14 3.5 q-7 3.5 -12 10 q-5 6.5 -7 14 q-2 7.5 -1 15.5 l90 508 q-30 -32 -60 -62 q-8 -9 -18 -12.5 q-10 -3.5 -19.5 -2.5 q-9.5 1 -16.5 6.5 q-7 5.5 -11 14.5 q0 1 -0.5 3 q-0.5 2 -1.5 3 q-4 12 1 29 q5 17 17 27 q70 64 136 149 q66 85 119 178 ZM522 607 q3 9 8.5 16.5 q5.5 7.5 13.5 13 q8 5.5 16.5 8.5 q8.5 3 16.5 1 q6 -1 11.5 -5 q5.5 -4 9 -10.5 q3.5 -6.5 5 -14 q1.5 -7.5 -0.5 -14.5 q-17 -59 -41.5 -120.5 q-24.5 -61.5 -53.5 -111.5 q-4 -8 -11 -14 q-7 -6 -15 -9.5 q-8 -3.5 -16 -4 q-8 -0.5 -15 2.5 l-3 1 q-7 2 -11.5 8.5 q-4.5 6.5 -6 15 q-1.5 8.5 -0.5 17.5 q1 9 5 17 q26 43 48.5 97 q22.5 54 39.5 106 ZM985 610 q4 9 10.5 16.5 q6.5 7.5 15 12 q8.5 4.5 17.5 6.5 q9 2 17 0 l4 -1 q8 -2 13.5 -8 q5.5 -6 8 -14 q2.5 -8 2 -16.5 q-0.5 -8.5 -3.5 -16.5 q-30 -53 -62.5 -107.5 q-32.5 -54.5 -61.5 -99.5 q-3 -7 -10.5 -12.5 q-7.5 -5.5 -15 -9 q-7.5 -3.5 -14.5 -4 q-7 -0.5 -14 1.5 q-7 2 -12 8 q-5 6 -7 13.5 q-2 7.5 -1 16 q1 8.5 4 16.5 q14 22 28.5 46.5 q14.5 24.5 29 50.5 q14.5 26 28 52 q13.5 26 24.5 49 Z" /><glyph glyph-name="" unicode="&#x4f1a;" d="M162 300 q1 8 5.5 15 q4.5 7 12 13 q7.5 6 16 9.5 q8.5 3.5 16.5 3.5 l743 0 q8 0 15 -3.5 q7 -3.5 12 -9.5 q5 -6 7.5 -13 q2.5 -7 1.5 -15 q-2 -8 -6.5 -15.5 q-4.5 -7.5 -12 -13 q-7.5 -5.5 -16 -9 q-8.5 -3.5 -16.5 -3.5 l-406 0 q-1 -5 -3 -10 q-4 -9 -11 -16 q-67 -69 -138 -132 q-35 -31 -69 -58 l441 32 q-10 13 -20 27 q-18 25 -36 47 q-6 8 -7.5 17.5 q-1.5 9.5 1 18.5 q2.5 9 9 17 q6.5 8 16.5 12 q10 5 22.5 3 q12.5 -2 20.5 -9 q21 -24 42 -50.5 q21 -26.5 40.5 -53.5 q19.5 -27 36 -53.5 q16.5 -26.5 28.5 -50.5 q4 -6 3.5 -14.5 q-0.5 -8.5 -3.5 -16.5 q-3 -8 -8.5 -15 q-5.5 -7 -13.5 -11 l-2 -1 q-8 -4 -16.5 -4.5 q-8.5 -0.5 -17.5 1.5 q-9 2 -15.5 7 q-6.5 5 -9.5 12 q-11 21 -25 46 q-8 -3 -15 -3 q-140 -12 -236 -20 q-96 -8 -160.5 -13.5 q-64.5 -5.5 -102 -9.5 q-37.5 -4 -60.5 -7 q-11 -1 -21 1 q-10 2 -17 7 q-3 2 -6 5 q-8 2 -13.5 7.5 q-5.5 5.5 -6.5 13.5 q-1 8 2 17 q3 9 9.5 17.5 q6.5 8.5 14 16.5 q7.5 8 17.5 14 q3 3 4 3 q1 0 3 2 q2 2 8 7 q6 5 20 16 q13 9 36.5 29.5 q23.5 20.5 53 48.5 q29.5 28 62.5 61 l40 42 l-234 0 q-7 0 -14.5 3.5 q-7.5 3.5 -12.5 9 q-5 5.5 -7.5 13 q-2.5 7.5 -0.5 15.5 ZM646 817 q9 9 26 13.5 q17 4.5 28 -1.5 l1 -1 q7 -3 12 -10.5 q5 -7.5 5.5 -16.5 q0.5 -9 -3.5 -18 q-2 -8 -8 -14 q22 -29 53 -59 q34 -32 75.5 -63.5 q41.5 -31.5 88 -59.5 q46.5 -28 96.5 -51 q20 -8 22.5 -28 q2.5 -20 -14.5 -39 q-9 -10 -26.5 -14.5 q-17.5 -4.5 -28.5 1.5 q-51 24 -100.5 56.5 q-49.5 32.5 -92 68 q-42.5 35.5 -78.5 72.5 q-30 31 -53 60 q-71 -66 -157 -124 q-119 -80 -258 -143 q-8 -2 -15.5 -2.5 q-7.5 -0.5 -15 1 q-7.5 1.5 -13.5 5.5 q-6 4 -10 9 q-10 18 -1 38.5 q9 20.5 33 30.5 q130 58 243 132 q113 74 191 157 ZM372 495 q1 7 5.5 14 q4.5 7 12 12.5 q7.5 5.5 15.5 8.5 q8 3 17 3 l388 0 q9 0 16 -3 q7 -3 12.5 -8.5 q5.5 -5.5 7.5 -12.5 q2 -7 1 -14 q-1 -8 -6 -15 q-5 -7 -12 -12.5 q-7 -5.5 -15.5 -9 q-8.5 -3.5 -16.5 -3.5 l-388 0 q-9 0 -16 3.5 q-7 3.5 -12.5 9 q-5.5 5.5 -8 12.5 q-2.5 7 -0.5 15 Z" /><glyph glyph-name="" unicode="&#x4f1f;" d="M476 671 q1 8 5.5 15 q4.5 7 12 12.5 q7.5 5.5 16 8.5 q8.5 3 16.5 3 l196 0 l15 88 q2 9 7 16.5 q5 7.5 12 13.5 q7 6 14.5 10 q7.5 4 15 4 q7.5 0 14.5 -4 q7 -4 11.5 -10 q4.5 -6 6.5 -13.5 q2 -7.5 0 -16.5 l-15 -88 l224 0 q8 0 15.5 -3 q7.5 -3 12.5 -8.5 q5 -5.5 7.5 -12.5 q2.5 -7 1.5 -15 q-2 -7 -7 -14 q-5 -7 -12 -12.5 q-7 -5.5 -15 -9 q-8 -3.5 -17 -3.5 l-224 0 l-18 -104 l192 0 q8 0 15.5 -3 q7.5 -3 12.5 -9 q5 -6 7.5 -13 q2.5 -7 1.5 -14 q-2 -8 -6.5 -14.5 q-4.5 -6.5 -11.5 -12 q-7 -5.5 -15.5 -9.5 q-8.5 -4 -16.5 -4 l-193 0 l-20 -109 l249 0 q7 0 14 -2 q7 -3 12 -7 q6 -4 8 -10 q3 -4 2 -9 q1 -5 0 -11 q-1 -6 -5 -12 q-14 -57 -26 -100 q-13 -48 -24 -80.5 q-11 -32.5 -21.5 -52 q-10.5 -19.5 -20.5 -29.5 q-14 -12 -27 -18 q-13 -6 -31 -8 q-9 -1 -21 -1 l-28 0 q-7 -1 -13.5 1.5 q-6.5 2.5 -12 6.5 q-5.5 4 -8.5 9 q-3 5 -4 10 q0 18 8 31 q8 13 23 13 q11 -1 16 -1 l15 0 q9 0 15.5 1.5 q6.5 1.5 13.5 7.5 q6 7 13.5 23 q7.5 16 17 45 q9.5 29 22.5 74 q5 19 10 41 l-210 0 l-53 -300 q-2 -8 -6.5 -16 q-4.5 -8 -11.5 -14 q-7 -6 -14.5 -9.5 q-7.5 -3.5 -15.5 -3.5 q-8 0 -14.5 3.5 q-6.5 3.5 -11 9.5 q-4.5 6 -6.5 14 q-2 8 -1 16 l53 300 l-228 0 q-8 0 -15 3 q-7 3 -12 9 q-5 6 -7.5 13 q-2.5 7 -0.5 14 q1 8 6 15 q5 7 12 12.5 q7 5.5 15 8.5 q8 3 16 3 l228 0 l19 109 l-172 0 q-7 0 -14.5 4 q-7.5 4 -13 9.5 q-5.5 5.5 -8 12 q-2.5 6.5 -0.5 14.5 q1 7 6 14 q5 7 12 13 q7 6 15.5 9 q8.5 3 16.5 3 l172 0 l18 104 l-196 0 q-8 0 -15 3.5 q-7 3.5 -12.5 9 q-5.5 5.5 -8 12.5 q-2.5 7 -0.5 14 ZM414 799 q5 8 11.5 14 q6.5 6 14.5 9.5 q8 3.5 16 5 q8 1.5 15 -1.5 q8 -2 12.5 -8 q4.5 -6 7 -13.5 q2.5 -7.5 1.5 -16.5 q-1 -9 -6 -16 q-51 -91 -113 -177 l-112 -634 q-2 -8 -6.5 -16 q-4.5 -8 -11.5 -14 q-7 -6 -15 -9.5 q-8 -3.5 -15.5 -3.5 q-7.5 0 -13.5 3.5 q-6 3.5 -11 9.5 q-5 6 -7 14 q-2 8 -1 16 l89 504 q-27 -31 -55 -59 q-8 -9 -18 -12.5 q-10 -3.5 -18.5 -3 q-8.5 0.5 -16 6 q-7.5 5.5 -11.5 14.5 q-1 1 -1 2 q0 1 -1 2 q-4 12 0.5 28.5 q4.5 16.5 14.5 27.5 q69 65 134 150.5 q65 85.5 117 177.5 Z" /><glyph glyph-name="" unicode="&#x4f20;" d="M721 798 q2 7 8 13.5 q6 6.5 13.5 11 q7.5 4.5 15.5 7 q8 2.5 15 1.5 q8 -2 14 -7 q6 -5 9.5 -12.5 q3.5 -7.5 4 -16 q0.5 -8.5 -4.5 -17.5 q-10 -25 -21 -50 l239 0 q8 0 15 -3 q7 -3 12.5 -9 q5.5 -6 8 -13 q2.5 -7 0.5 -14 q-1 -7 -6 -14 q-5 -7 -12 -12.5 q-7 -5.5 -15.5 -9 q-8.5 -3.5 -16.5 -3.5 l-259 0 q-25 -56 -50 -111 l337 0 q7 0 14.5 -3 q7.5 -3 12.5 -9 q5 -6 7.5 -12.5 q2.5 -6.5 1.5 -14.5 q-2 -7 -6.5 -14 q-4.5 -7 -11.5 -12.5 q-7 -5.5 -15.5 -9 q-8.5 -3.5 -16.5 -3.5 l-359 0 q-13 -29 -26 -56 q-15 -30 -28 -57 l284 0 q8 0 15 -3 l1 0 q1 1 2 1 q4 2 8 2 q2 0 4 0.5 q2 0.5 4 0.5 q4 2 11 0.5 q7 -1.5 12 -4.5 l3 -2 q7 -6 10 -14 q3 -8 2.5 -16.5 q-0.5 -8.5 -4.5 -17.5 q-4 -9 -11 -16 q-27 -26 -58 -55 q-31 -29 -62.5 -58.5 q-31.5 -29.5 -64.5 -59.5 q-21 -19 -41 -37 q13 -12 26 -23 q21 -19 37 -37 q6 -5 8 -13 q2 -8 0.5 -16.5 q-1.5 -8.5 -5.5 -17 q-4 -8.5 -11 -13.5 q-7 -7 -15.5 -9.5 q-8.5 -2.5 -17.5 -3 q-9 -0.5 -16.5 2.5 q-7.5 3 -13.5 8 q-14 17 -32.5 35.5 q-18.5 18.5 -39.5 37.5 q-21 19 -43 37.5 q-22 18.5 -44 35.5 q-9 6 -12 14.5 q-3 8.5 -2.5 17.5 q0.5 9 5.5 17.5 q5 8.5 13 14.5 q8 7 22 7.5 q14 0.5 22 -3.5 q26 -18 51 -37 l12 -10 q28 25 58 52 q34 32 66 62 q23 22 44 42 l-241 0 q-8 0 -15 3 q-6 3 -11 7 q-1 0 -2 -1 q-14 -9 -26 -9 l-3 0 q-11 0 -18.5 4.5 q-7.5 4.5 -11.5 12 q-4 7.5 -4 17.5 q0 10 5 20 q25 49 54 108 q7 14 13 29 l-133 0 q-7 0 -14.5 3.5 q-7.5 3.5 -12.5 9 q-5 5.5 -7.5 12.5 q-2.5 7 -0.5 14 q1 8 5.5 14.5 q4.5 6.5 11.5 12.5 q7 6 15.5 9 q8.5 3 16.5 3 l156 0 q4 7 7 15 q23 48 44 96 l-129 0 q-8 0 -15.5 3.5 q-7.5 3.5 -12.5 9 q-5 5.5 -7.5 12.5 q-2.5 7 -1.5 14 q2 7 6.5 14 q4.5 7 12 13 q7.5 6 15.5 9 q8 3 16 3 l150 0 q16 36 31 70 ZM407 800 q4 8 11 13.5 q7 5.5 15 9 q8 3.5 16 5 q8 1.5 14 -1.5 q9 -2 13.5 -8 q4.5 -6 6.5 -13.5 q2 -7.5 1.5 -16.5 q-0.5 -9 -5.5 -17 q-53 -90 -116 -174 l-113 -633 q-1 -9 -6 -16.5 q-5 -7.5 -11.5 -14 q-6.5 -6.5 -14.5 -10 q-8 -3.5 -15.5 -3.5 q-7.5 0 -14 3.5 q-6.5 3.5 -12 10 q-5.5 6.5 -7 14 q-1.5 7.5 -0.5 15.5 l90 510 q-32 -36 -65 -68 q-9 -9 -18.5 -12.5 q-9.5 -3.5 -18.5 -2.5 q-9 1 -16 6.5 q-7 5.5 -11 14.5 q-1 1 -1 2 q0 1 -1 2 q-4 12 1 28.5 q5 16.5 16 27.5 q72 65 140 150.5 q68 85.5 122 178.5 Z" /><glyph glyph-name="" unicode="&#x4f24;" d="M432 389 q1 7 6 14 q5 7 12 13 q7 6 15.5 9 q8.5 3 16.5 3 l161 0 q14 50 25 101 q2 8 7 15.5 q5 7.5 12 13.5 q7 6 15 9.5 q8 3.5 16 3.5 q8 0 15.5 -4 q7.5 -4 12 -10 q4.5 -6 6 -14 q1.5 -8 0.5 -17 q-12 -50 -25 -98 l236 0 q9 0 15 -3 q4 -2 6 -4 q3 -1 5 -3 q6 -5 8 -11 q3 -6 2 -11 l0 -7 q-1 -4 -3 -8 q-20 -100 -36 -171 q-17 -73 -31 -121.5 q-14 -48.5 -26.5 -76 q-12.5 -27.5 -25.5 -40.5 q-18 -18 -35.5 -25 q-17.5 -7 -43.5 -10 q-18 -1 -45.5 -1 q-27.5 0 -59.5 1 q-14 0 -25.5 9 q-11.5 9 -12.5 20 q-2 19 14.5 32.5 q16.5 13.5 42.5 12.5 q11 0 19.5 -0.5 q8.5 -0.5 15.5 -1 q7 -0.5 14 -0.5 l14 0 q14 0 23.5 2.5 q9.5 2.5 16.5 10.5 q10 8 20.5 32.5 q10.5 24.5 22.5 71 q12 46.5 28 116.5 q10 47 23 108 l-205 0 q-26 -86 -66 -162 q-41 -76 -99.5 -140 q-58.5 -64 -143.5 -111 q-8 -5 -16 -6.5 q-8 -1.5 -15.5 -0.5 q-7.5 1 -13 4 q-5.5 3 -9.5 8 q-10 14 -1.5 33.5 q8.5 19.5 29.5 34.5 q73 42 122 99 q49 57 83 124 q28 56 47 117 l-154 0 q-7 0 -14 3 q-7 3 -12.5 8.5 q-5.5 5.5 -7.5 12.5 q-2 7 -1 15 ZM409 802 q4 7 11.5 12.5 q7.5 5.5 15 9 q7.5 3.5 16 5 q8.5 1.5 14.5 -0.5 q8 -3 13 -8.5 q5 -5.5 7 -13.5 q2 -8 1 -17 q-1 -9 -5 -16 q-55 -93 -120 -179 l-112 -631 q-1 -8 -6 -16 q-5 -8 -11.5 -14 q-6.5 -6 -14.5 -9.5 q-8 -3.5 -15.5 -3.5 q-7.5 0 -13.5 3.5 q-6 3.5 -11.5 10 q-5.5 6.5 -7 14 q-1.5 7.5 -0.5 15.5 l90 509 q-31 -35 -64 -66 q-8 -9 -17.5 -12.5 q-9.5 -3.5 -18.5 -2.5 q-9 1 -16.5 6.5 q-7.5 5.5 -10.5 15.5 q-1 1 -1 2 q0 1 -1 2 q-5 11 0 28 q5 17 16 27 q72 65 140 151 q68 86 122 179 ZM631 800 q4 8 10.5 14 q6.5 6 14 10.5 q7.5 4.5 16 6.5 q8.5 2 15.5 0 q7 -2 13 -7.5 q6 -5.5 8.5 -13 q2.5 -7.5 2 -16.5 q-0.5 -9 -4.5 -17 q-23 -42 -49 -82 l372 0 q9 0 16 -3.5 q7 -3.5 12 -9 q5 -5.5 7.5 -12.5 q2.5 -7 1.5 -14 q-2 -8 -6.5 -15 q-4.5 -7 -12 -13 q-7.5 -6 -15.5 -9 q-8 -3 -17 -3 l-394 0 q-8 0 -16 3 l-1 0 q-49 -64 -101 -115 q-7 -7 -15 -10.5 q-8 -3.5 -16.5 -4.5 q-8.5 -1 -16 0.5 q-7.5 1.5 -12.5 5.5 q-7 5 -9 13.5 q-2 8.5 0 18 q2 9.5 6.5 19 q4.5 9.5 12.5 17.5 q51 48 96 109 q45 61 82 128 Z" /><glyph glyph-name="" unicode="&#x4f2a;" d="M433 543 q2 8 6.5 15.5 q4.5 7.5 12 13.5 q7.5 6 16 9 q8.5 3 17.5 3 l177 0 q10 40 19 79 q14 67 24 127 q2 7 7 15 q5 8 11.5 14 q6.5 6 15 9.5 q8.5 3.5 15.5 3.5 l3 0 q9 0 15.5 -4 q6.5 -4 11.5 -10 q5 -6 7 -14 q2 -8 0 -16 q-12 -66 -28 -139 q-7 -32 -16 -65 l260 0 q9 0 16 -3 q7 -3 12.5 -9 q5.5 -6 8 -13.5 q2.5 -7.5 0.5 -15.5 q-1 -5 -3 -9 q-30 -141 -52 -240 q-24 -100 -43 -166 q-19 -66 -34.5 -102.5 q-15.5 -36.5 -32.5 -52.5 q-20 -22 -39.5 -30 q-19.5 -8 -45.5 -12 q-18 -2 -46.5 -1.5 q-28.5 0.5 -61.5 1.5 q-13 0 -24.5 10 q-11.5 10 -12.5 21 q-1 21 14 35 q15 14 41 14 q11 -1 19.5 -1.5 q8.5 -0.5 16.5 -0.5 l30 0 q14 0 23.5 2.5 q9.5 2.5 18.5 12.5 q13 11 27.5 45 q14.5 34 32 97.5 q17.5 63.5 39.5 162.5 q17 74 38 173 l-224 0 q-1 -1 -1 -3 q-23 -75 -54.5 -151 q-31.5 -76 -73 -147 q-41.5 -71 -96.5 -134.5 q-55 -63.5 -126 -114.5 q-7 -6 -15.5 -8.5 q-8.5 -2.5 -16.5 -3 q-8 -0.5 -15.5 2 q-7.5 2.5 -10.5 8.5 q-12 13 -7 33.5 q5 20.5 24 35.5 q65 47 114.5 106 q49.5 59 87.5 124.5 q38 65.5 65 135.5 q23 58 40 116 l-170 0 q-9 0 -16 3.5 q-7 3.5 -12 9.5 q-5 6 -7.5 13 q-2.5 7 -1.5 15 ZM413 800 q4 8 10.5 13.5 q6.5 5.5 15 9 q8.5 3.5 16.5 5 q8 1.5 15 -0.5 q8 -3 13 -9 q5 -6 7 -13.5 q2 -7.5 1.5 -16.5 q-0.5 -9 -5.5 -17 q-53 -87 -114 -168 l-113 -639 q-1 -9 -6 -16.5 q-5 -7.5 -11.5 -13.5 q-6.5 -6 -14.5 -10 q-8 -4 -15.5 -4 q-7.5 0 -14 4 q-6.5 4 -11.5 10 q-5 6 -7 13.5 q-2 7.5 -1 16.5 l91 514 q-33 -36 -67 -69 q-9 -8 -18.5 -11.5 q-9.5 -3.5 -18.5 -2.5 q-9 1 -16.5 6.5 q-7.5 5.5 -11.5 14.5 q0 1 -0.5 1.5 q-0.5 0.5 -0.5 1.5 q-5 12 0 29 q5 17 17 28 q71 64 138 148 q67 84 122 176 ZM698 314 q-4 8 -3.5 17 q0.5 9 3.5 17.5 q3 8.5 9 15.5 q6 7 14 11 q12 6 27 2.5 q15 -3.5 21 -14.5 q19 -27 36.5 -56.5 q17.5 -29.5 28.5 -54.5 q2 -6 1.5 -13.5 q-0.5 -7.5 -4 -15 q-3.5 -7.5 -8.5 -13.5 q-5 -6 -12 -10 l-1 0 q-8 -5 -17.5 -5 q-9.5 0 -17.5 2.5 q-8 2.5 -15 8.5 q-7 6 -9 14 q-10 21 -24 46 q-14 25 -29 48 ZM512 709 q-4 8 -3.5 17 q0.5 9 4.5 17.5 q4 8.5 10.5 15.5 q6.5 7 14.5 11 q11 5 25.5 1 q14.5 -4 20.5 -14 q13 -18 24.5 -37 q11.5 -19 19.5 -37 q3 -6 2 -14 q-1 -8 -4.5 -15.5 q-3.5 -7.5 -9.5 -13.5 q-6 -6 -13 -9 q-8 -4 -17 -4 q-9 0 -17 3 q-8 3 -14 9 q-6 6 -8 13 q-7 13 -16 28 q-9 15 -19 29 Z" /><glyph glyph-name="" unicode="&#x4f30;" d="M453 302 q2 8 7 16 q5 8 12 14 q7 6 15 9.5 q8 3.5 16 3.5 l173 0 l0 1 l35 199 l-226 0 q-9 0 -16 3 q-7 3 -12.5 9 q-5.5 6 -7.5 13.5 q-2 7.5 0 14.5 q1 8 6 15 q5 7 12 13 q7 6 15 9 q8 3 16 3 l227 0 l30 174 q2 8 6.5 15.5 q4.5 7.5 12 14 q7.5 6.5 15 10 q7.5 3.5 15.5 3.5 l5 0 q7 0 14 -3.5 q7 -3.5 11.5 -10 q4.5 -6.5 7 -14 q2.5 -7.5 0.5 -15.5 l-31 -174 l238 0 q8 0 15.5 -3 q7.5 -3 12.5 -9 q5 -6 7.5 -13 q2.5 -7 1.5 -15 q-2 -7 -7 -14.5 q-5 -7.5 -12 -13.5 q-7 -6 -15.5 -9 q-8.5 -3 -16.5 -3 l-238 0 l-35 -199 l0 -1 l179 0 q7 0 14.5 -3.5 q7.5 -3.5 12 -9.5 q4.5 -6 7 -14 q2.5 -8 0.5 -17 l-58 -334 q-2 -9 -6.5 -17 q-4.5 -8 -12 -14 q-7.5 -6 -15.5 -10 q-8 -4 -16 -4 l-3 0 q-8 0 -14.5 4 q-6.5 4 -11.5 10 q-5 6 -7 13 q-2 6 -1 12 l-353 0 q-2 -8 -7 -15 q-4 -8 -11.5 -14 q-7.5 -6 -15 -10 q-7.5 -4 -16.5 -4 q-7 0 -14 4 q-7 4 -12 10 q-5 6 -7 13.5 q-2 7.5 -1 16.5 l60 340 ZM408 800 q4 8 11 13.5 q7 5.5 15 9 q8 3.5 16 5 q8 1.5 14 -1.5 q8 -2 13 -8 q5 -6 7 -13.5 q2 -7.5 1.5 -16.5 q-0.5 -9 -5.5 -17 q-54 -91 -118 -176 l-112 -632 q-1 -8 -6 -16 q-5 -8 -11.5 -14 q-6.5 -6 -14.5 -9.5 q-8 -3.5 -15.5 -3.5 q-7.5 0 -13.5 3.5 q-6 3.5 -11.5 10 q-5.5 6.5 -7 14 q-1.5 7.5 -0.5 15.5 l90 510 q-32 -36 -65 -68 q-9 -9 -18.5 -12.5 q-9.5 -3.5 -18.5 -2.5 q-9 1 -16 6.5 q-7 5.5 -11 14.5 q-1 1 -1 2 q0 1 -1 2 q-4 12 1 28.5 q5 16.5 16 27.5 q72 65 140 150.5 q68 85.5 122 178.5 ZM491 41 l352 0 l39 219 q1 2 -1 4 q-2 2 -4 2 l-340 0 q-3 0 -5 -2 q-2 -2 -3 -4 l-38 -219 Z" /><glyph glyph-name="" unicode="&#x4f34;" d="M746 788 q1 7 6 15 q5 8 12 14 q7 6 15 9.5 q8 3.5 16 3.5 l2 0 q8 0 14.5 -3.5 q6.5 -3.5 11 -9.5 q4.5 -6 6.5 -14 q2 -8 1 -15 l-47 -266 l209 0 q16 0 27.5 -12 q11.5 -12 8.5 -27 q-2 -7 -6.5 -14 q-4.5 -7 -11.5 -12.5 q-7 -5.5 -15.5 -9 q-8.5 -3.5 -16.5 -3.5 l-208 0 l-30 -168 l250 0 q8 0 15 -3 q7 -3 12 -8.5 q5 -5.5 8 -12.5 q3 -7 1 -15 q-2 -7 -6.5 -14 q-4.5 -7 -11.5 -12.5 q-7 -5.5 -15.5 -9 q-8.5 -3.5 -16.5 -3.5 l-250 0 l-42 -237 q-2 -8 -6.5 -15.5 q-4.5 -7.5 -11 -13.5 q-6.5 -6 -14.5 -10 q-8 -4 -16 -4 l-2 0 q-8 0 -15 4 q-7 4 -11.5 10 q-4.5 6 -7 13.5 q-2.5 7.5 -0.5 15.5 l42 237 l-241 0 q-8 0 -15 3.5 q-7 3.5 -12.5 9 q-5.5 5.5 -8 12.5 q-2.5 7 -1.5 14 q2 8 6.5 15 q4.5 7 12 12.5 q7.5 5.5 16 8.5 q8.5 3 16.5 3 l241 0 l30 168 l-200 0 q-8 0 -15.5 3.5 q-7.5 3.5 -12.5 9 q-5 5.5 -7.5 12.5 q-2.5 7 -0.5 14 q1 8 6 15 q5 7 12 12.5 q7 5.5 15 8.5 q8 3 16 3 l200 0 l47 266 ZM418 802 q5 7 12 12.5 q7 5.5 15 9 q8 3.5 15.5 5 q7.5 1.5 14.5 -1.5 q7 -2 12 -8 q5 -6 7.5 -13.5 q2.5 -7.5 1 -16.5 q-1.5 -9 -6.5 -17 q-51 -83 -111 -161 l-115 -647 q0 -8 -5.5 -16 q-5.5 -8 -11.5 -14 q-6 -6 -14 -9.5 q-8 -3.5 -16 -3.5 q-8 0 -14 3.5 q-6 3.5 -11 9.5 q-5 6 -7 14 q-2 8 -1 16 l93 524 q-40 -43 -80 -81 q-9 -8 -18.5 -11.5 q-9.5 -3.5 -18.5 -2.5 q-9 1 -16 6.5 q-7 5.5 -11 14.5 q0 1 -0.5 1.5 q-0.5 0.5 -0.5 1.5 q-5 12 0.5 29.5 q5.5 17.5 17.5 27.5 q74 65 143.5 149.5 q69.5 84.5 125.5 178.5 ZM974 754 q5 8 12.5 15 q7.5 7 16 11 q8.5 4 17.5 5 q9 1 16 -2 q7 -2 12 -9 q5 -7 6.5 -15 q1.5 -8 0 -17 q-1.5 -9 -7.5 -17 q-23 -37 -49.5 -74 q-26.5 -37 -50.5 -69 q-8 -12 -24.5 -18.5 q-16.5 -6.5 -27.5 -1.5 q-6 4 -10 10 q-4 6 -5 14 q-1 8 0.5 17 q1.5 9 6.5 16 q22 30 45.5 66.5 q23.5 36.5 41.5 68.5 ZM521 721 q-3 8 -1 17 q2 9 6 17 q4 8 10.5 14.5 q6.5 6.5 14.5 9.5 q13 5 26.5 -2 q13.5 -7 17.5 -20 q14 -35 24.5 -73.5 q10.5 -38.5 14.5 -69.5 q3 -12 -6.5 -26.5 q-9.5 -14.5 -21.5 -19.5 q-10 -4 -19 -3 q-9 1 -16 5.5 q-7 4.5 -12 12 q-5 7.5 -6 17.5 q-6 27 -14 59 q-8 32 -18 62 Z" /><glyph glyph-name="" unicode="&#x4f38;" d="M748 794 q2 9 6.5 16 q4.5 7 12 13.5 q7.5 6.5 15.5 10 q8 3.5 15.5 3.5 q7.5 0 14.5 -3.5 q7 -3.5 11.5 -10 q4.5 -6.5 6.5 -13.5 q2 -7 0 -16 l-19 -110 l228 0 q8 0 15.5 -4 q7.5 -4 12.5 -10 q5 -6 7.5 -13.5 q2.5 -7.5 0.5 -15.5 l-79 -446 q-1 -7 -6 -15 q-5 -8 -11.5 -14 q-6.5 -6 -14.5 -10 q-8 -4 -15.5 -4 q-7.5 0 -14.5 4 q-7 4 -12.5 10 q-5.5 6 -7 14 q-1.5 8 -0.5 16 l0 1 l-189 0 l-41 -236 q-1 -8 -6 -15.5 q-5 -7.5 -11.5 -13.5 q-6.5 -6 -15 -9.5 q-8.5 -3.5 -16 -3.5 q-7.5 0 -14 3.5 q-6.5 3.5 -12 9.5 q-5.5 6 -7.5 13.5 q-2 7.5 0 15.5 l41 236 l-164 0 q-7 0 -15 3 l-4 2 l-3 -14 q-1 -8 -5.5 -16 q-4.5 -8 -11 -14 q-6.5 -6 -14 -9.5 q-7.5 -3.5 -15.5 -3.5 q-8 0 -14 3.5 q-6 3.5 -11 9.5 q-5 6 -7 14 q-2 8 -1 16 l80 452 q2 8 7 16 q5 8 12.5 14 q7.5 6 15.5 10 q8 4 17 4 l219 0 l19 110 ZM405 800 q4 8 11 13.5 q7 5.5 15 9 q8 3.5 16 5 q8 1.5 15 -1.5 q8 -2 12.5 -8 q4.5 -6 7 -13.5 q2.5 -7.5 1.5 -16.5 q-1 -9 -6 -17 q-52 -88 -114 -171 l-113 -637 q-1 -8 -6 -16 q-5 -8 -11.5 -14 q-6.5 -6 -14.5 -9.5 q-8 -3.5 -15.5 -3.5 q-7.5 0 -13.5 3.5 q-6 3.5 -11.5 10 q-5.5 6.5 -7 14 q-1.5 7.5 -0.5 15.5 l91 513 q-34 -37 -69 -71 q-9 -9 -18.5 -12.5 q-9.5 -3.5 -18.5 -2.5 q-9 1 -16 6.5 q-7 5.5 -11 14.5 q-1 1 -1 2 q0 1 -1 2 q-4 12 1 28.5 q5 16.5 16 27.5 q72 65 140 150.5 q68 85.5 122 178.5 ZM762 404 l-23 -131 l189 0 l23 132 q-3 -1 -6 -1 l-183 0 ZM797 607 l-22 -129 l189 0 l22 123 q0 2 -1.5 4 q-1.5 2 -3.5 2 l-184 0 ZM657 273 l23 131 l-167 0 q-8 0 -15 3 q-1 1 -2 1 l-24 -140 q2 1 5 2 q8 3 16 3 l164 0 ZM693 478 l22 129 l-178 0 q-2 0 -4 -2 q-2 -2 -3 -4 l-22 -126 l2 0 q9 3 16 3 l167 0 Z" /></font>
</defs>
</svg>
