<?xml version="1.0" standalone="no"?><!DOCTYPE svg PUBLIC "-//W3C//DTD SVG 1.1//EN" "http://www.w3.org/Graphics/SVG/1.1/DTD/svg11.dtd" ><svg xmlns="http://www.w3.org/2000/svg"><metadata></metadata><defs><font id="Version 7.000;SUBF;MapleMono-NF-CN-Medium;2024;FL830;NF3.3.0;" horiz-adv-x="1200"><font-face font-family="Maple Mono NF CN Medium" font-weight="500" font-stretch="normal" units-per-em="1000" panose-1="2 15 5 9 6 0 0 0 0 0" ascent="1020" descent="-300" x-height="0" bbox="29 -247 1083 873" underline-thickness="50" underline-position="-155" unicode-range="U+0022-9f99" /><missing-glyph horiz-adv-x="600" d="M98 80 l0 570 q0 41 20.5 60.5 q20.5 19.5 61.5 19.5 l240 0 q41 0 61.5 -19.5 q20.5 -19.5 20.5 -60.5 l0 -570 q0 -41 -20.5 -60.5 q-20.5 -19.5 -61.5 -19.5 l-240 0 q-41 0 -61.5 19.5 q-20.5 19.5 -20.5 60.5 ZM192 187 l66 179 l-66 179 l0 -358 ZM408 545 l-66 -179 l66 -179 l0 358 ZM300 251 l-56 -154 l112 0 l-56 154 ZM300 481 l56 152 l-112 0 l56 -152 Z" /><glyph glyph-name="" unicode="&quot;" d="M351 487 l0 221 q0 27 12.5 39.5 q12.5 12.5 38.5 12.5 q27 0 39.5 -12.5 q12.5 -12.5 12.5 -39.5 l0 -221 q0 -26 -12.5 -38.5 q-12.5 -12.5 -39.5 -12.5 q-26 0 -38.5 12.5 q-12.5 12.5 -12.5 38.5 ZM146 487 l0 221 q0 27 12.5 39.5 q12.5 12.5 39.5 12.5 q26 0 38.5 -12.5 q12.5 -12.5 12.5 -39.5 l0 -221 q0 -26 -12.5 -38.5 q-12.5 -12.5 -38.5 -12.5 q-27 0 -39.5 12.5 q-12.5 12.5 -12.5 38.5 Z" /><glyph glyph-name="" unicode="$" d="M552 195 q0 -43 -11.5 -77 q-11.5 -34 -32.5 -58 q-21 -24 -48.5 -39 q-27.5 -15 -59.5 -21 l0 101 q11 7 20.5 15.5 q9.5 8.5 16.5 19.5 q7 11 11.5 26 q4.5 15 4.5 33 q0 26 -9.5 45.5 q-9.5 19.5 -24 34 q-14.5 14.5 -33 24 q-18.5 9.5 -37.5 15.5 l-99 28 q-38 11 -72 26.5 q-34 15.5 -60 38.5 q-26 23 -41 56.5 q-15 33.5 -15 80.5 q0 41 11.5 74 q11.5 33 30 56 q18.5 23 44 37.5 q25.5 14.5 52.5 18.5 l0 -109 q-7 -4 -14 -10.5 q-7 -6.5 -13 -16 q-6 -9.5 -9 -22 q-3 -12.5 -3 -27.5 q0 -25 8 -41.5 q8 -16.5 21 -27.5 q13 -11 29 -17.5 q16 -6.5 31 -10.5 l99 -29 q45 -12 82 -30 q37 -18 64 -44.5 q27 -26.5 42 -63.5 q15 -37 15 -86 ZM349 259 l0 -330 q0 -25 -12.5 -37 q-12.5 -12 -36.5 -12 q-25 0 -37.5 12 q-12.5 12 -12.5 37 l0 358 l99 -28 ZM349 474 l-99 29 l0 288 q0 25 12.5 37 q12.5 12 37.5 12 q24 0 36.5 -12 q12.5 -12 12.5 -37 l0 -317 ZM200 101 l0 -101 q-28 5 -54 20 q-26 15 -47 35.5 q-21 20.5 -33.5 46 q-12.5 25.5 -12.5 50.5 q0 29 14 39.5 q14 10.5 34 10.5 q17 0 27.5 -6.5 q10.5 -6.5 14.5 -16.5 q4 -10 10 -21.5 q6 -11.5 13.5 -22 q7.5 -10.5 16.5 -20 q9 -9.5 17 -14.5 ZM400 730 q25 -4 49 -17.5 q24 -13.5 43 -32.5 q19 -19 30.5 -42 q11.5 -23 11.5 -47 q0 -27 -13 -37.5 q-13 -10.5 -32 -10.5 q-16 0 -26.5 7 q-10.5 7 -17.5 22 q-2 6 -6.5 12.5 q-4.5 6.5 -10 13.5 q-5.5 7 -13 13 q-7.5 6 -15.5 10 l0 109 Z" /><glyph glyph-name="" unicode="," d="M151 -227 q-15 -4 -27 0 q-12 4 -18 18 q-5 14 -0.5 27.5 q4.5 13.5 18.5 16.5 q74 17 121 50 q47 33 59 66 q5 16 -1.5 26 q-6.5 10 -27.5 14 q-32 6 -49 27 q-17 21 -17 56 q0 42 25 66.5 q25 24.5 64 24.5 q27 0 46.5 -12.5 q19.5 -12.5 31 -31.5 q11.5 -19 17 -43 q5.5 -24 5.5 -49 q0 -42 -10.5 -81 q-10.5 -39 -37.5 -72.5 q-27 -33.5 -75 -60 q-48 -26.5 -124 -42.5 Z" /><glyph glyph-name="" unicode="-" d="M120 281 q-25 0 -37 12 q-12 12 -12 37 q0 25 12 37 q12 12 37 12 l360 0 q25 0 37 -12 q12 -12 12 -37 q0 -25 -12 -37 q-12 -12 -37 -12 l-360 0 Z" /><glyph glyph-name="" unicode="." d="M209 81 q0 20 7 36.5 q7 16.5 19 28.5 q12 12 29 19 q17 7 36 7 q19 0 35.5 -7 q16.5 -7 29 -19 q12.5 -12 19.5 -28.5 q7 -16.5 7 -36.5 q0 -18 -7 -34.5 q-7 -16.5 -19.5 -29 q-12.5 -12.5 -29 -20 q-16.5 -7.5 -35.5 -7.5 q-19 0 -36 7.5 q-17 7.5 -29 20 q-12 12.5 -19 29 q-7 16.5 -7 34.5 Z" /><glyph glyph-name="" unicode="0" d="M300 -10 q-76 0 -123.5 36.5 q-47.5 36.5 -73.5 92 q-26 55.5 -35 121.5 q-9 66 -9 125 q0 59 9 125 q9 66 35.5 121.5 q26.5 55.5 74 92 q47.5 36.5 124.5 36.5 q77 0 124 -36 q47 -36 72.5 -91 q25.5 -55 34 -120 q8.5 -65 8.5 -123 q0 -61 -9 -128 q-9 -67 -35.5 -123 q-26.5 -56 -73.5 -92.5 q-47 -36.5 -123 -36.5 ZM300 90 q45 0 72 30.5 q27 30.5 41.5 73 q14.5 42.5 19.5 90.5 q5 48 5 83 q0 21 -2 47 l-250 -220 q15 -43 42 -73.5 q27 -30.5 72 -30.5 ZM414 538 q-15 42 -42 72 q-27 30 -72 30 q-45 0 -72 -30.5 q-27 -30.5 -41.5 -73 q-14.5 -42.5 -19.5 -89.5 q-5 -47 -5 -81 q0 -22 2 -48 l250 220 Z" /><glyph glyph-name="" unicode="1" d="M127 0 q-25 0 -37 12.5 q-12 12.5 -12 38 q0 25.5 12 38 q12 12.5 37 12.5 l156 0 l0 490 q0 14 -3.5 20 q-3.5 6 -9.5 6 q-4 0 -9 -2.5 q-5 -2.5 -11 -7.5 l-85 -68 q-15 -12 -27.5 -18 q-12.5 -6 -21.5 -6 q-14 0 -21.5 14 q-7.5 14 -7.5 41 q0 22 7 36 q7 14 19 25 l107 83 q19 15 38 20.5 q19 5.5 44 5.5 q43 0 63.5 -20.5 q20.5 -20.5 20.5 -63.5 l0 -555 l119 0 q25 0 37 -12.5 q12 -12.5 12 -38 q0 -25.5 -12 -38 q-12 -12.5 -37 -12.5 l-378 0 Z" /><glyph glyph-name="" unicode="2" d="M141 0 q-33 0 -51 16 q-18 16 -18 49 q0 17 5 31 q5 14 17 25 l223 230 q17 17 35 37.5 q18 20.5 33 43 q15 22.5 24.5 45.5 q9.5 23 9.5 45 q0 33 -10 55.5 q-10 22.5 -27.5 36.5 q-17.5 14 -42 20.5 q-24.5 6.5 -53.5 6.5 q-38 0 -66 -9 q-28 -9 -52 -25 q-21 -12 -40 -4.5 q-19 7.5 -30 25.5 q-11 19 -5 38 q6 19 23 31 q31 22 71.5 32.5 q40.5 10.5 100.5 10.5 q49 0 91.5 -10 q42.5 -10 74 -33.5 q31.5 -23.5 50 -63 q18.5 -39.5 18.5 -99.5 q0 -31 -9 -62 q-9 -31 -25 -61.5 q-16 -30.5 -38 -59 q-22 -28.5 -48 -55.5 l-171 -179 q-4 -5 -1.5 -11 q2.5 -6 17.5 -6 l245 0 q25 0 37 -12.5 q12 -12.5 12 -37.5 q0 -25 -12 -37.5 q-12 -12.5 -37 -12.5 l-351 0 Z" /><glyph glyph-name="" unicode="3" d="M101 23 q-21 8 -29 27.5 q-8 19.5 3 40.5 q8 19 27.5 27 q19.5 8 46.5 -3 q26 -11 59.5 -18 q33.5 -7 65.5 -7 q67 0 107 34 q40 34 40 102 q0 37 -22 59 q-22 22 -54 32.5 q-32 10.5 -68.5 13 q-36.5 2.5 -68.5 1.5 q-10 -1 -19 1.5 q-9 2.5 -16.5 8.5 q-7.5 6 -11.5 16 q-4 10 -4 25 q0 26 15 37.5 q15 11.5 46 11.5 q26 0 55.5 5 q29.5 5 55 18 q25.5 13 42.5 35 q17 22 17 55 q0 28 -12.5 46 q-12.5 18 -32 29 q-19.5 11 -43 15.5 q-23.5 4.5 -45.5 4.5 q-25 0 -48 -5 q-23 -5 -45 -18 q-19 -10 -37.5 -3 q-18.5 7 -28.5 27 q-9 19 -3.5 38 q5.5 19 26.5 32 q22 14 59.5 21.5 q37.5 7.5 78.5 7.5 q44 0 86 -9 q42 -9 75 -31 q33 -22 53 -57.5 q20 -35.5 20 -86.5 q0 -28 -6 -55.5 q-6 -27.5 -19.5 -49.5 q-13.5 -22 -34.5 -38 q-21 -16 -50 -21 q37 -3 64 -18 q27 -15 44.5 -39.5 q17.5 -24.5 26 -56.5 q8.5 -32 8.5 -70 q0 -49 -17 -89 q-17 -40 -49 -69 q-32 -29 -78.5 -44.5 q-46.5 -15.5 -106.5 -15.5 q-44 0 -91 8.5 q-47 8.5 -81 24.5 Z" /><glyph glyph-name="" unicode="4" d="M354 258 l0 256 q0 12 -1.5 16 q-1.5 4 -4.5 4 q-3 0 -7 -2.5 q-4 -2.5 -9 -11.5 l-136 -226 q-4 -7 -5.5 -12 q-1.5 -5 -1.5 -9 q0 -8 7 -11.5 q7 -3.5 20 -3.5 l138 0 ZM354 42 l0 118 l-225 0 q-37 0 -55 18 q-18 18 -18 52 q0 16 3 27 q3 11 10 22 l267 431 q9 15 23 22.5 q14 7.5 34 7.5 q31 0 48 -17 q17 -17 17 -52 l0 -413 l53 0 q25 0 36.5 -12 q11.5 -12 11.5 -37 q0 -25 -11.5 -37 q-11.5 -12 -36.5 -12 l-53 0 l0 -118 q0 -27 -13 -39.5 q-13 -12.5 -39 -12.5 q-26 0 -39 12.5 q-13 12.5 -13 39.5 Z" /><glyph glyph-name="" unicode="5" d="M524 208 q0 -49 -17 -89 q-17 -40 -49 -69 q-32 -29 -78.5 -44.5 q-46.5 -15.5 -106.5 -15.5 q-44 0 -91 8.5 q-47 8.5 -81 24.5 q-21 8 -29 27.5 q-8 19.5 3 40.5 q8 19 27.5 27 q19.5 8 46.5 -3 q26 -11 59.5 -18 q33.5 -7 65.5 -7 q67 0 107 34 q40 34 40 102 q0 35 -16 58 q-16 23 -44 37.5 q-28 14.5 -65.5 20 q-37.5 5.5 -82.5 5.5 l-21 0 q-43 0 -63.5 21 q-20.5 21 -20.5 65 l0 213 q0 43 20.5 63.5 q20.5 20.5 63.5 20.5 l268 0 q25 0 37.5 -12.5 q12.5 -12.5 12.5 -37.5 q0 -25 -12.5 -37.5 q-12.5 -12.5 -37.5 -12.5 l-207 0 q-21 0 -31.5 -10.5 q-10.5 -10.5 -10.5 -31.5 l0 -100 q0 -22 10.5 -32.5 q10.5 -10.5 31.5 -10.5 q49 0 96.5 -7.5 q47.5 -7.5 87 -32 q39.5 -24.5 63.5 -71.5 q24 -47 24 -126 Z" /><glyph glyph-name="" unicode="6" d="M300 90 q31 0 55.5 9 q24.5 9 42 27 q17.5 18 26.5 45 q9 27 9 62 q0 27 -9 52 q-9 25 -26 43.5 q-17 18.5 -41.5 29 q-24.5 10.5 -56.5 10.5 q-33 0 -58 -11.5 q-25 -11.5 -41.5 -31.5 q-16.5 -20 -25 -46.5 q-8.5 -26.5 -8.5 -56.5 q0 -36 10 -61.5 q10 -25.5 28 -41 q18 -15.5 42.5 -22.5 q24.5 -7 52.5 -7 ZM369 734 q23 8 40 4 q17 -4 28 -26 q11 -21 5.5 -39 q-5.5 -18 -30.5 -28 q-46 -16 -87.5 -42 q-41.5 -26 -74 -60.5 q-32.5 -34.5 -54 -77 q-21.5 -42.5 -28.5 -89.5 q26 44 66.5 68 q40.5 24 98.5 24 q43 0 80.5 -17.5 q37.5 -17.5 64.5 -48.5 q27 -31 43 -73.5 q16 -42.5 16 -92.5 q0 -60 -18 -106 q-18 -46 -49.5 -77 q-31.5 -31 -75 -47 q-43.5 -16 -93.5 -16 q-55 0 -99.5 15 q-44.5 15 -75 48.5 q-30.5 33.5 -47 88 q-16.5 54.5 -16.5 132.5 q0 91 23 165.5 q23 74.5 63.5 132 q40.5 57.5 97 98.5 q56.5 41 122.5 64 Z" /><glyph glyph-name="" unicode="7" d="M187 60 l217 530 q2 6 3 11 q1 5 1 9 q0 11 -7.5 15.5 q-7.5 4.5 -24.5 4.5 l-269 0 q-26 0 -38 12.5 q-12 12.5 -12 37.5 q0 25 12 37.5 q12 12.5 38 12.5 l345 0 q40 0 59.5 -19 q19.5 -19 19.5 -56 q0 -13 -2 -23.5 q-2 -10.5 -6 -19.5 l-238 -588 q-7 -17 -21 -25.5 q-14 -8.5 -37 -8.5 q-24 0 -36.5 8.5 q-12.5 8.5 -12.5 26.5 q0 7 2.5 16 q2.5 9 6.5 19 Z" /><glyph glyph-name="" unicode="8" d="M300 -10 q-53 0 -97 15.5 q-44 15.5 -75.5 43.5 q-31.5 28 -49 67 q-17.5 39 -17.5 85 q0 35 10.5 66 q10.5 31 29 55 q18.5 24 44.5 40 q26 16 59 23 l0 2 q-56 13 -89.5 57 q-33.5 44 -33.5 105 q0 42 16 77 q16 35 45 60.5 q29 25.5 69 39.5 q40 14 89 14 q49 0 89 -14 q40 -14 69 -39.5 q29 -25.5 45 -60.5 q16 -35 16 -77 q0 -61 -33.5 -105 q-33.5 -44 -89.5 -57 l0 -2 q33 -7 59 -23 q26 -16 44.5 -40 q18.5 -24 29 -55 q10.5 -31 10.5 -66 q0 -46 -17.5 -85 q-17.5 -39 -49 -67 q-31.5 -28 -75.5 -43.5 q-44 -15.5 -97 -15.5 ZM300 90 q30 0 55 8.5 q25 8.5 43 24.5 q18 16 27.5 38.5 q9.5 22.5 9.5 50.5 q0 27 -9.5 50 q-9.5 23 -27.5 39 q-18 16 -43 25 q-25 9 -55 9 q-30 0 -55 -9 q-25 -9 -43 -25 q-18 -16 -27.5 -39 q-9.5 -23 -9.5 -50 q0 -28 9.5 -50.5 q9.5 -22.5 27.5 -38.5 q18 -16 43 -24.5 q25 -8.5 55 -8.5 ZM300 435 q53 0 84 26.5 q31 26.5 31 74.5 q0 49 -31 76.5 q-31 27.5 -84 27.5 q-53 0 -84 -27.5 q-31 -27.5 -31 -76.5 q0 -48 31 -74.5 q31 -26.5 84 -26.5 Z" /><glyph glyph-name="" unicode="9" d="M300 639 q-30 0 -55 -9 q-25 -9 -42.5 -26.5 q-17.5 -17.5 -26.5 -44.5 q-9 -27 -9 -62 q0 -28 9 -52.5 q9 -24.5 26 -43 q17 -18.5 41.5 -29.5 q24.5 -11 56.5 -11 q33 0 58 12 q25 12 41.5 31.5 q16.5 19.5 25 46.5 q8.5 27 8.5 56 q0 36 -10 61.5 q-10 25.5 -28 41 q-18 15.5 -42.5 22.5 q-24.5 7 -52.5 7 ZM231 -4 q-23 -9 -40 -5 q-17 4 -28 26 q-11 22 -5.5 40 q5.5 18 30.5 27 q46 16 87.5 42.5 q41.5 26.5 74 60.5 q32.5 34 54.5 76.5 q22 42.5 28 90.5 q-25 -44 -66 -68.5 q-41 -24.5 -99 -24.5 q-43 0 -80.5 17.5 q-37.5 17.5 -64.5 49 q-27 31.5 -43 74 q-16 42.5 -16 92.5 q0 60 18.5 106 q18.5 46 50 77 q31.5 31 74.5 46.5 q43 15.5 93 15.5 q57 0 100.5 -15 q43.5 -15 74 -48.5 q30.5 -33.5 47 -87.5 q16.5 -54 16.5 -133 q0 -91 -23 -165.5 q-23 -74.5 -63.5 -132 q-40.5 -57.5 -96.5 -98 q-56 -40.5 -123 -63.5 Z" /><glyph glyph-name="" unicode=":" d="M209 81 q0 20 7 36.5 q7 16.5 19 28.5 q12 12 29 19 q17 7 36 7 q19 0 35.5 -7 q16.5 -7 29 -19 q12.5 -12 19.5 -28.5 q7 -16.5 7 -36.5 q0 -18 -7 -34.5 q-7 -16.5 -19.5 -29 q-12.5 -12.5 -29 -20 q-16.5 -7.5 -35.5 -7.5 q-19 0 -36 7.5 q-17 7.5 -29 20 q-12 12.5 -19 29 q-7 16.5 -7 34.5 ZM209 443 q0 20 7 36.5 q7 16.5 19 28.5 q12 12 29 19 q17 7 36 7 q19 0 35.5 -7 q16.5 -7 29 -19 q12.5 -12 19.5 -28.5 q7 -16.5 7 -36.5 q0 -18 -7 -34.5 q-7 -16.5 -19.5 -29 q-12.5 -12.5 -29 -20 q-16.5 -7.5 -35.5 -7.5 q-19 0 -36 7.5 q-17 7.5 -29 20 q-12 12.5 -19 29 q-7 16.5 -7 34.5 Z" /><glyph glyph-name="" unicode=";" d="M151 -227 q-15 -4 -27 0 q-12 4 -18 18 q-5 14 -0.5 27.5 q4.5 13.5 18.5 16.5 q74 17 121 50 q47 33 59 66 q5 16 -1.5 26 q-6.5 10 -27.5 14 q-32 6 -49 27 q-17 21 -17 56 q0 42 25 66.5 q25 24.5 64 24.5 q27 0 46.5 -12.5 q19.5 -12.5 31 -31.5 q11.5 -19 17 -43 q5.5 -24 5.5 -49 q0 -42 -10.5 -81 q-10.5 -39 -37.5 -72.5 q-27 -33.5 -75 -60 q-48 -26.5 -124 -42.5 ZM209 443 q0 20 7 36.5 q7 16.5 19 28.5 q12 12 29 19 q17 7 36 7 q19 0 35.5 -7 q16.5 -7 29 -19 q12.5 -12 19.5 -28.5 q7 -16.5 7 -36.5 q0 -18 -7 -34.5 q-7 -16.5 -19.5 -29 q-12.5 -12.5 -29 -20 q-16.5 -7.5 -35.5 -7.5 q-19 0 -36 7.5 q-17 7.5 -29 20 q-12 12.5 -19 29 q-7 16.5 -7 34.5 Z" /><glyph glyph-name="" unicode="A" d="M211 273 l178 0 l-84 321 q-2 6 -5 6 q-3 0 -5 -6 l-84 -321 ZM454 23 l-43 164 l-222 0 l-43 -164 q-4 -16 -15 -24.5 q-11 -8.5 -33 -8.5 q-30 0 -43 16.5 q-13 16.5 -4 50.5 l164 616 q9 34 29.5 50.5 q20.5 16.5 55.5 16.5 q35 0 55.5 -16.5 q20.5 -16.5 29.5 -50.5 l164 -616 q9 -34 -4 -50.5 q-13 -16.5 -43 -16.5 q-22 0 -33 8.5 q-11 8.5 -15 24.5 Z" /><glyph glyph-name="" unicode="B" d="M172 730 l129 0 q51 0 91.5 -13 q40.5 -13 69 -37 q28.5 -24 43.5 -58 q15 -34 15 -76 q0 -34 -9.5 -61.5 q-9.5 -27.5 -26 -48.5 q-16.5 -21 -39.5 -34.5 q-23 -13.5 -52 -19.5 q32 -3 58.5 -17.5 q26.5 -14.5 45.5 -37.5 q19 -23 29.5 -54.5 q10.5 -31.5 10.5 -69.5 q0 -46 -15.5 -83.5 q-15.5 -37.5 -44.5 -64.5 q-29 -27 -70.5 -41 q-41.5 -14 -92.5 -14 l-142 0 q-44 0 -64.5 20.5 q-20.5 20.5 -20.5 63.5 l0 562 q0 43 20.5 63.5 q20.5 20.5 64.5 20.5 ZM189 329 l0 -187 q0 -21 10 -31.5 q10 -10.5 32 -10.5 l74 0 q60 0 94.5 28 q34.5 28 34.5 84 q0 56 -34.5 86.5 q-34.5 30.5 -94.5 30.5 l-116 0 ZM189 431 l111 0 q54 0 85.5 24.5 q31.5 24.5 31.5 76.5 q0 51 -31 74.5 q-31 23.5 -85 23.5 l-70 0 q-22 0 -32 -10.5 q-10 -10.5 -10 -31.5 l0 -157 Z" /><glyph glyph-name="" unicode="C" d="M58 363 q0 78 16.5 146 q16.5 68 52 119.5 q35.5 51.5 92 81.5 q56.5 30 137.5 30 q43 0 74 -8 q31 -8 53.5 -21.5 q22.5 -13.5 36.5 -31 q14 -17.5 21 -35.5 q9 -26 4.5 -44 q-4.5 -18 -20.5 -27 q-15 -9 -34 -5.5 q-19 3.5 -33 25.5 q-12 18 -38.5 33 q-26.5 15 -68.5 15 q-49 0 -85 -23.5 q-36 -23.5 -59 -61.5 q-23 -38 -34.5 -87.5 q-11.5 -49.5 -11.5 -102.5 q0 -46 9.5 -95 q9.5 -49 32 -89.5 q22.5 -40.5 60.5 -66 q38 -25.5 94 -25.5 q15 0 30 2 q15 2 28.5 5.5 q13.5 3.5 25.5 9 q12 5.5 20 12.5 q18 15 37.5 13.5 q19.5 -1.5 33.5 -15.5 q14 -13 15 -33.5 q1 -20.5 -19 -42.5 q-15 -16 -35 -25.5 q-20 -9.5 -43 -15.5 q-23 -6 -48 -8 q-25 -2 -48 -2 q-83 0 -139.5 31 q-56.5 31 -91.5 82.5 q-35 51.5 -50 119 q-15 67.5 -15 140.5 Z" /><glyph glyph-name="" unicode="D" d="M168 0 q-42 0 -62.5 20 q-20.5 20 -20.5 62 l0 566 q0 42 20.5 62 q20.5 20 62.5 20 l95 0 q81 0 134 -29.5 q53 -29.5 83.5 -79.5 q30.5 -50 43 -117 q12.5 -67 12.5 -142 q0 -69 -11 -134.5 q-11 -65.5 -41 -116 q-30 -50.5 -83.5 -81 q-53.5 -30.5 -137.5 -30.5 l-95 0 ZM189 140 q0 -20 10 -30 q10 -10 30 -10 l34 0 q56 0 90.5 25 q34.5 25 54 63.5 q19.5 38.5 26 85.5 q6.5 47 6.5 92 q0 45 -6.5 92 q-6.5 47 -26 85 q-19.5 38 -54 62.5 q-34.5 24.5 -90.5 24.5 l-34 0 q-20 0 -30 -10 q-10 -10 -10 -30 l0 -450 Z" /><glyph glyph-name="" unicode="E" d="M199 430 l243 0 q23 0 36.5 -13.5 q13.5 -13.5 13.5 -36.5 q0 -22 -13.5 -35.5 q-13.5 -13.5 -36.5 -13.5 l-243 0 l0 -192 q0 -20 10 -30 q10 -10 30 -10 l237 0 q23 0 34.5 -13.5 q11.5 -13.5 11.5 -36.5 q0 -22 -11.5 -35.5 q-11.5 -13.5 -34.5 -13.5 l-296 0 q-43 0 -63.5 20.5 q-20.5 20.5 -20.5 63.5 l0 562 q0 43 20.5 63.5 q20.5 20.5 63.5 20.5 l296 0 q23 0 34.5 -13.5 q11.5 -13.5 11.5 -35.5 q0 -23 -11.5 -36.5 q-11.5 -13.5 -34.5 -13.5 l-237 0 q-20 0 -30 -10 q-10 -10 -10 -30 l0 -161 Z" /><glyph glyph-name="" unicode="F" d="M193 429 l264 0 q23 0 34 -11 q11 -11 11 -34 q0 -23 -11 -34 q-11 -11 -34 -11 l-264 0 l0 -287 q0 -27 -12.5 -39.5 q-12.5 -12.5 -39.5 -12.5 q-26 0 -39 12.5 q-13 12.5 -13 39.5 l0 596 q0 42 20.5 62 q20.5 20 62.5 20 l307 0 q25 0 37 -12 q12 -12 12 -37 q0 -26 -12 -38 q-12 -12 -37 -12 l-246 0 q-20 0 -30 -10 q-10 -10 -10 -30 l0 -162 Z" /><glyph glyph-name="" unicode="G" d="M426 265 q0 20 -10 26 q-10 6 -30 6 l-58 0 q-24 0 -36 12 q-12 12 -12 37 q0 24 12 36 q12 12 36 12 l108 0 q45 0 67 -22 q22 -22 22 -67 l0 -104 q0 -52 -17.5 -91.5 q-17.5 -39.5 -47.5 -66 q-30 -26.5 -70.5 -40 q-40.5 -13.5 -87.5 -13.5 q-80 0 -130 35 q-50 35 -78.5 89.5 q-28.5 54.5 -38.5 121 q-10 66.5 -9 129.5 q2 66 11.5 132.5 q9.5 66.5 36.5 120.5 q27 54 76 88.5 q49 34.5 129 34.5 q40 0 73 -9 q33 -9 59 -27.5 q26 -18.5 45.5 -45 q19.5 -26.5 31.5 -63.5 q11 -32 -2 -49.5 q-13 -17.5 -46 -17.5 q-19 0 -29.5 7 q-10.5 7 -15.5 27 q-11 37 -41 57.5 q-30 20.5 -72 20.5 q-52 0 -82 -29.5 q-30 -29.5 -45.5 -71.5 q-15.5 -42 -20 -89.5 q-4.5 -47.5 -5.5 -85.5 q-1 -39 3 -87 q4 -48 19.5 -89.5 q15.5 -41.5 47.5 -70 q32 -28.5 87 -28.5 q52 0 86 27 q34 27 34 85 l0 63 Z" /><glyph glyph-name="" unicode="H" d="M410 327 l-220 0 l0 -285 q0 -27 -12.5 -39.5 q-12.5 -12.5 -38.5 -12.5 q-27 0 -39.5 12.5 q-12.5 12.5 -12.5 39.5 l0 646 q0 27 12.5 39.5 q12.5 12.5 39.5 12.5 q26 0 38.5 -12.5 q12.5 -12.5 12.5 -39.5 l0 -260 l220 0 l0 260 q0 27 12.5 39.5 q12.5 12.5 38.5 12.5 q27 0 39.5 -12.5 q12.5 -12.5 12.5 -39.5 l0 -646 q0 -27 -12.5 -39.5 q-12.5 -12.5 -39.5 -12.5 q-26 0 -38.5 12.5 q-12.5 12.5 -12.5 39.5 l0 285 Z" /><glyph glyph-name="" unicode="I" d="M353 100 l97 0 q24 0 37.5 -13.5 q13.5 -13.5 13.5 -36.5 q0 -23 -13.5 -36.5 q-13.5 -13.5 -37.5 -13.5 l-300 0 q-24 0 -37.5 13.5 q-13.5 13.5 -13.5 36.5 q0 23 13.5 36.5 q13.5 13.5 37.5 13.5 l97 0 l0 530 l-97 0 q-24 0 -37.5 13.5 q-13.5 13.5 -13.5 36.5 q0 23 13.5 36.5 q13.5 13.5 37.5 13.5 l300 0 q24 0 37.5 -13.5 q13.5 -13.5 13.5 -36.5 q0 -23 -13.5 -36.5 q-13.5 -13.5 -37.5 -13.5 l-97 0 l0 -530 Z" /><glyph glyph-name="" unicode="J" d="M45 158 q-7 29 7 44 q14 15 44 15 q22 0 34 -10.5 q12 -10.5 19 -37.5 q10 -41 41 -64 q31 -23 80 -23 q60 0 93.5 34 q33.5 34 33.5 96 l0 372 q0 22 -10.5 32.5 q-10.5 10.5 -31.5 10.5 l-137 0 q-26 0 -38.5 12.5 q-12.5 12.5 -12.5 38.5 q0 27 12.5 39.5 q12.5 12.5 38.5 12.5 l194 0 q45 0 67 -22 q22 -22 22 -67 l0 -429 q0 -51 -16 -92 q-16 -41 -46.5 -70 q-30.5 -29 -73 -44.5 q-42.5 -15.5 -95.5 -15.5 q-92 0 -150.5 44 q-58.5 44 -74.5 124 Z" /><glyph glyph-name="" unicode="K" d="M189 42 q0 -27 -12.5 -39.5 q-12.5 -12.5 -39 -12.5 q-26.5 0 -39 12.5 q-12.5 12.5 -12.5 39.5 l0 646 q0 27 12.5 39.5 q12.5 12.5 39 12.5 q26.5 0 39 -12.5 q12.5 -12.5 12.5 -39.5 l0 -252 l204 272 q13 16 27.5 24 q14.5 8 31.5 8 q11 0 23 -4 q12 -4 19.5 -12 q7.5 -8 7.5 -20 q0 -12 -12 -28 l-191 -260 l217 -357 q11 -17 11.5 -30 q0.5 -13 -5 -21.5 q-5.5 -8.5 -17.5 -13 q-12 -4.5 -28 -4.5 q-21 0 -36 8.5 q-15 8.5 -25 25.5 l-186 299 l-41 -55 l0 -226 Z" /><glyph glyph-name="" unicode="L" d="M216 0 q-46 0 -67.5 22 q-21.5 22 -21.5 67 l0 599 q0 27 12.5 39.5 q12.5 12.5 38.5 12.5 q27 0 39.5 -12.5 q12.5 -12.5 12.5 -39.5 l0 -543 q0 -23 11 -34 q11 -11 34 -11 l227 0 q23 0 36.5 -13.5 q13.5 -13.5 13.5 -36.5 q0 -23 -13.5 -36.5 q-13.5 -13.5 -36.5 -13.5 l-286 0 Z" /><glyph glyph-name="" unicode="M" d="M544 41 q0 -26 -12 -38.5 q-12 -12.5 -38 -12.5 q-26 0 -38.5 12.5 q-12.5 12.5 -12.5 38.5 l0 531 q0 8 -4.5 8 q-4.5 0 -7.5 -8 l-75 -275 q-5 -21 -19.5 -31 q-14.5 -10 -36.5 -10 q-22 0 -36.5 10 q-14.5 10 -19.5 31 l-75 275 q-3 9 -7.5 8.5 q-4.5 -0.5 -4.5 -8.5 l0 -531 q0 -26 -12.5 -38.5 q-12.5 -12.5 -38.5 -12.5 q-26 0 -38 12.5 q-12 12.5 -12 38.5 l0 603 q0 49 21.5 72.5 q21.5 23.5 65.5 23.5 q35 0 55 -15 q20 -15 28 -46 l63 -258 q4 -14 11 -14 q7 0 11 14 l63 258 q8 31 29 46 q21 15 55 15 q43 0 64.5 -23.5 q21.5 -23.5 21.5 -70.5 l0 -605 Z" /><glyph glyph-name="" unicode="N" d="M73 655 q0 42 21 63.5 q21 21.5 60 21.5 q32 0 50.5 -13.5 q18.5 -13.5 28.5 -41.5 l183 -515 q1 -3 2.5 -4.5 q1.5 -1.5 3.5 -1.5 q2 0 3 1.5 q1 1.5 1 4.5 l0 519 q0 26 12 38.5 q12 12.5 38 12.5 q26 0 38.5 -12.5 q12.5 -12.5 12.5 -38.5 l0 -614 q0 -42 -21 -63.5 q-21 -21.5 -60 -21.5 q-32 0 -50.5 13.5 q-18.5 13.5 -28.5 41.5 l-183 515 q-1 3 -2.5 4.5 q-1.5 1.5 -3.5 1.5 q-2 0 -3 -1.5 q-1 -1.5 -1 -4.5 l0 -519 q0 -26 -12 -38.5 q-12 -12.5 -38 -12.5 q-26 0 -38.5 12.5 q-12.5 12.5 -12.5 38.5 l0 614 Z" /><glyph glyph-name="" unicode="O" d="M300 90 q45 0 72 30.5 q27 30.5 41.5 73 q14.5 42.5 19.5 90.5 q5 48 5 83 q0 34 -5 81 q-5 47 -19.5 89.5 q-14.5 42.5 -41.5 72.5 q-27 30 -72 30 q-45 0 -72 -30.5 q-27 -30.5 -41.5 -73 q-14.5 -42.5 -19.5 -89.5 q-5 -47 -5 -81 q0 -35 5 -82.5 q5 -47.5 19.5 -90 q14.5 -42.5 41.5 -73 q27 -30.5 72 -30.5 ZM300 -10 q-76 0 -123.5 36.5 q-47.5 36.5 -73.5 92.5 q-26 56 -35 122 q-9 66 -9 126 q0 58 8.5 123.5 q8.5 65.5 34.5 121 q26 55.5 73.5 92 q47.5 36.5 124.5 36.5 q76 0 123.5 -36 q47.5 -36 73.5 -91.5 q26 -55.5 35 -120.5 q9 -65 9 -123 q0 -61 -9 -127.5 q-9 -66.5 -35.5 -122.5 q-26.5 -56 -73.5 -92.5 q-47 -36.5 -123 -36.5 Z" /><glyph glyph-name="" unicode="P" d="M190 312 l0 -270 q0 -27 -13 -39.5 q-13 -12.5 -39 -12.5 q-27 0 -39.5 12.5 q-12.5 12.5 -12.5 39.5 l0 604 q0 43 20.5 63.5 q20.5 20.5 64.5 20.5 l153 0 q48 0 90 -13.5 q42 -13.5 73.5 -40.5 q31.5 -27 49 -65.5 q17.5 -38.5 17.5 -89.5 q0 -50 -18 -89 q-18 -39 -49 -65.5 q-31 -26.5 -73 -40.5 q-42 -14 -90 -14 l-134 0 ZM190 411 l134 0 q26 0 48.5 7 q22.5 7 39.5 20.5 q17 13.5 27 34.5 q10 21 10 48 q0 56 -36.5 83 q-36.5 27 -88.5 27 l-92 0 q-21 0 -31.5 -10.5 q-10.5 -10.5 -10.5 -31.5 l0 -178 Z" /><glyph glyph-name="" unicode="Q" d="M300 88 q45 0 72 30.5 q27 30.5 41.5 74 q14.5 43.5 19.5 91.5 q5 48 5 83 q0 34 -5 81 q-5 47 -19.5 90.5 q-14.5 43.5 -41.5 73.5 q-27 30 -72 30 q-45 0 -72 -30.5 q-27 -30.5 -41.5 -74 q-14.5 -43.5 -19.5 -90.5 q-5 -47 -5 -81 q0 -35 5 -82.5 q5 -47.5 19.5 -91 q14.5 -43.5 41.5 -74 q27 -30.5 72 -30.5 ZM300 -10 q-76 0 -123.5 36.5 q-47.5 36.5 -73.5 92.5 q-26 56 -35 122 q-9 66 -9 126 q0 58 8.5 123.5 q8.5 65.5 34.5 121 q26 55.5 73.5 92 q47.5 36.5 124.5 36.5 q76 0 123.5 -36 q47.5 -36 73.5 -91.5 q26 -55.5 35 -120.5 q9 -65 9 -124 q0 -60 -9 -126.5 q-9 -66.5 -35.5 -122.5 q-26.5 -56 -73.5 -92.5 q-47 -36.5 -123 -36.5 ZM302 -159 q-25 7 -33 22 q-8 15 -1 38 q6 20 19 30 q13 10 34 4 l176 -46 q24 -6 33 -22 q9 -16 3 -38 q-7 -24 -23.5 -32 q-16.5 -8 -37.5 -2 l-170 46 Z" /><glyph glyph-name="" unicode="R" d="M190 411 l134 0 q26 0 48.5 7 q22.5 7 39.5 20.5 q17 13.5 27 34.5 q10 21 10 48 q0 56 -36.5 83 q-36.5 27 -88.5 27 l-92 0 q-21 0 -31.5 -10.5 q-10.5 -10.5 -10.5 -31.5 l0 -178 ZM190 312 l0 -270 q0 -27 -13 -39.5 q-13 -12.5 -39 -12.5 q-27 0 -39.5 12.5 q-12.5 12.5 -12.5 39.5 l0 604 q0 43 20.5 63.5 q20.5 20.5 64.5 20.5 l153 0 q48 0 90 -13.5 q42 -13.5 73.5 -40.5 q31.5 -27 49 -65.5 q17.5 -38.5 17.5 -89.5 q0 -40 -11 -72.5 q-11 -32.5 -31.5 -57 q-20.5 -24.5 -48.5 -42 q-28 -17.5 -62 -26.5 l132 -267 q17 -34 7 -50 q-10 -16 -45 -16 q-22 0 -36 7.5 q-14 7.5 -23 25.5 l-140 289 l-106 0 Z" /><glyph glyph-name="" unicode="S" d="M405 582 q-14 31 -41.5 44.5 q-27.5 13.5 -63.5 13.5 q-53 0 -83 -27.5 q-30 -27.5 -30 -68.5 q0 -30 8.5 -48.5 q8.5 -18.5 23.5 -30.5 q15 -12 36 -19 q21 -7 45 -14 q49 -13 91 -28.5 q42 -15.5 74 -40.5 q32 -25 50.5 -63.5 q18.5 -38.5 18.5 -98.5 q0 -48 -16 -87 q-16 -39 -46 -66.5 q-30 -27.5 -73 -42.5 q-43 -15 -99 -15 q-45 0 -83 10.5 q-38 10.5 -67 30.5 q-29 20 -48 48.5 q-19 28.5 -27 64.5 q-7 25 4.5 41.5 q11.5 16.5 38.5 16.5 q20 0 35.5 -7.5 q15.5 -7.5 25.5 -30.5 q14 -36 44.5 -55 q30.5 -19 76.5 -19 q30 0 54.5 7.5 q24.5 7.5 41.5 21.5 q17 14 26 34.5 q9 20.5 9 47.5 q0 34 -10 55 q-10 21 -27.5 35 q-17.5 14 -42 22 q-24.5 8 -51.5 16 q-45 12 -84.5 26 q-39.5 14 -68.5 37.5 q-29 23.5 -46 59 q-17 35.5 -17 90.5 q0 45 15.5 81 q15.5 36 43.5 62.5 q28 26.5 68 40.5 q40 14 89 14 q40 0 74 -10 q34 -10 60 -28 q26 -18 44.5 -44 q18.5 -26 26.5 -57 q9 -27 -2.5 -42.5 q-11.5 -15.5 -40.5 -15.5 q-21 0 -34 9 q-13 9 -23 30 Z" /><glyph glyph-name="" unicode="T" d="M248 630 l-146 0 q-23 0 -36.5 13.5 q-13.5 13.5 -13.5 36.5 q0 23 13 36.5 q13 13.5 37 13.5 l396 0 q24 0 37 -13.5 q13 -13.5 13 -36.5 q0 -23 -13.5 -36.5 q-13.5 -13.5 -36.5 -13.5 l-146 0 l0 -586 q0 -26 -13 -39 q-13 -13 -39 -13 q-26 0 -39 13 q-13 13 -13 39 l0 586 Z" /><glyph glyph-name="" unicode="U" d="M83 678 q0 27 13 39.5 q13 12.5 39 12.5 q26 0 39 -12.5 q13 -12.5 13 -39.5 l0 -465 q0 -28 6.5 -50.5 q6.5 -22.5 20.5 -39 q14 -16.5 35.5 -25.5 q21.5 -9 50.5 -9 q29 0 50.5 9.5 q21.5 9.5 35.5 25.5 q14 16 20.5 39 q6.5 23 6.5 50 l0 465 q0 27 13 39.5 q13 12.5 39 12.5 q26 0 39 -12.5 q13 -12.5 13 -39.5 l0 -465 q0 -51 -14.5 -92 q-14.5 -41 -42.5 -70.5 q-28 -29.5 -68.5 -45 q-40.5 -15.5 -91.5 -15.5 q-52 0 -92 16 q-40 16 -67.5 45 q-27.5 29 -42.5 70.5 q-15 41.5 -15 91.5 l0 465 Z" /><glyph glyph-name="" unicode="V" d="M230 43 l-170 639 q-6 24 3.5 41 q9.5 17 39.5 17 q21 0 36 -10 q15 -10 20 -29 l125 -498 q6 -24 16 -24 q10 0 16 24 l125 498 q5 19 20 29 q15 10 36 10 q30 0 39.5 -17 q9.5 -17 3.5 -41 l-170 -639 q-8 -27 -24.5 -40 q-16.5 -13 -45.5 -13 q-28 0 -45 13 q-17 13 -25 40 Z" /><glyph glyph-name="" unicode="W" d="M89 56 l-54 626 q-2 29 9.5 43.5 q11.5 14.5 39.5 14.5 q24 0 35.5 -10.5 q11.5 -10.5 13.5 -31.5 l36 -531 q1 -9 5 -9.5 q4 -0.5 6 8.5 l61 355 q5 25 19.5 37 q14.5 12 39.5 12 q25 0 39.5 -12 q14.5 -12 19.5 -37 l61 -354 q2 -8 6 -8 q4 0 5 9 l36 532 q2 20 13.5 30 q11.5 10 34.5 10 q28 0 40 -14.5 q12 -14.5 10 -43.5 l-56 -627 q-3 -33 -21.5 -49 q-18.5 -16 -51.5 -16 q-33 0 -52 16 q-19 16 -24 48 l-53 322 q-2 9 -7 9 q-5 0 -7 -9 l-53 -320 q-6 -34 -24.5 -50 q-18.5 -16 -51.5 -16 q-34 0 -53 16 q-19 16 -22 50 Z" /><glyph glyph-name="" unicode="X" d="M517 673 l-161 -297 l172 -318 q9 -17 9 -30 q0 -13 -6.5 -21.5 q-6.5 -8.5 -18 -12.5 q-11.5 -4 -24.5 -4 q-20 0 -33 8.5 q-13 8.5 -22 25.5 l-133 247 l-133 -247 q-9 -17 -22 -25.5 q-13 -8.5 -33 -8.5 q-13 0 -24.5 4 q-11.5 4 -18 12.5 q-6.5 8.5 -7 21 q-0.5 12.5 9.5 29.5 l171 318 l-161 298 q-9 16 -8.5 29 q0.5 13 7 21.5 q6.5 8.5 18 12.5 q11.5 4 25.5 4 q18 0 31 -8 q13 -8 22 -26 l123 -226 l123 226 q9 18 22 26 q13 8 32 8 q13 0 24.5 -4 q11.5 -4 18 -12.5 q6.5 -8.5 6.5 -21 q0 -12.5 -9 -29.5 Z" /><glyph glyph-name="" unicode="Y" d="M300 -10 q-26 0 -39 12.5 q-13 12.5 -13 39.5 l0 202 q0 13 -3 25.5 q-3 12.5 -8 24.5 l-180 388 q-4 12 -3 22.5 q1 10.5 7 18.5 q6 8 15.5 12.5 q9.5 4.5 19.5 4.5 q21 0 34 -8 q13 -8 24 -31 l136 -298 q5 -12 10 -12 q5 0 10 12 l136 298 q11 23 24 31 q13 8 34 8 q10 0 19.5 -4.5 q9.5 -4.5 15.5 -12.5 q6 -8 7.5 -18.5 q1.5 -10.5 -3.5 -22.5 l-180 -388 q-5 -12 -8 -24.5 q-3 -12.5 -3 -25.5 l0 -202 q0 -27 -13 -39.5 q-13 -12.5 -39 -12.5 Z" /><glyph glyph-name="" unicode="Z" d="M158 0 q-38 0 -56.5 18.5 q-18.5 18.5 -18.5 56.5 q0 13 3 24 q3 11 9 22 l282 486 q6 11 3.5 17 q-2.5 6 -16.5 6 l-226 0 q-23 0 -36.5 13.5 q-13.5 13.5 -13.5 36.5 q0 23 13.5 36.5 q13.5 13.5 37.5 13.5 l293 0 q37 0 56 -18.5 q19 -18.5 19 -55.5 q0 -13 -3 -24.5 q-3 -11.5 -9 -22.5 l-282 -486 q-7 -11 -4 -17 q3 -6 16 -6 l242 0 q23 0 36.5 -13.5 q13.5 -13.5 13.5 -36.5 q0 -23 -13.5 -36.5 q-13.5 -13.5 -36.5 -13.5 l-309 0 Z" /><glyph glyph-name="" unicode="_" d="M120 -169 q-25 0 -37 12 q-12 12 -12 37 q0 25 12 37 q12 12 37 12 l360 0 q25 0 37 -12 q12 -12 12 -37 q0 -25 -12 -37 q-12 -12 -37 -12 l-360 0 Z" /><glyph glyph-name="" unicode="a" d="M239 -10 q-36 0 -68 12.5 q-32 12.5 -55.5 40.5 q-23.5 28 -38 73 q-14.5 45 -14.5 111 q0 69 14.5 130 q14.5 61 43 106 q28.5 45 72 71 q43.5 26 100.5 26 q48 0 76 -24 q22 -19 36 -47 q1 11 3 22 q4 27 18.5 38 q14.5 11 38.5 11 q27 0 37 -11.5 q10 -11.5 6 -37.5 q-9 -58 -14 -114 q-5 -56 -4 -113.5 q1 -57.5 9 -118 q8 -60.5 23 -127.5 q5 -24 -3 -36 q-8 -12 -34 -12 q-26 0 -42 12 q-16 12 -21 36 q-10 42 -17 81 q-6 -16 -13 -30 q-22 -45 -59.5 -72 q-37.5 -27 -93.5 -27 ZM253 90 q29 0 53.5 15 q24.5 15 43 43 q18.5 28 29 67.5 q10.5 39.5 10.5 89.5 q0 25 -2 52.5 q-2 27.5 -9.5 50 q-7.5 22.5 -24 37.5 q-16.5 15 -46.5 15 q-30 0 -56 -18.5 q-26 -18.5 -44.5 -50.5 q-18.5 -32 -29 -76 q-10.5 -44 -10.5 -94 q0 -61 21 -96 q21 -35 65 -35 Z" /><glyph glyph-name="" unicode="b" d="M135 -10 q-27 0 -39.5 13 q-12.5 13 -12.5 39 l0 646 q0 27 13 39.5 q13 12.5 39 12.5 q26 0 39 -12.5 q13 -12.5 13 -39.5 l0 -231 q9 45 45 74 q36 29 89 29 q64 0 104.5 -27 q40.5 -27 63 -70 q22.5 -43 31 -96.5 q8.5 -53.5 8.5 -106.5 q0 -50 -7.5 -98.5 q-7.5 -48.5 -28.5 -86.5 q-21 -38 -59 -61.5 q-38 -23.5 -97 -23.5 q-31 0 -54.5 8.5 q-23.5 8.5 -41.5 23 q-18 14.5 -31 35 q-13 20.5 -22 45.5 l0 -60 q0 -26 -13 -39 q-13 -13 -39 -13 ZM318 90 q31 0 52 13.5 q21 13.5 33 37.5 q12 24 16.5 56 q4.5 32 4.5 67 q0 36 -3.5 71 q-3.5 35 -16.5 63 q-13 28 -36.5 45 q-23.5 17 -63.5 17 q-26 0 -48 -14 q-22 -14 -37 -36 q-15 -22 -23.5 -48 q-8.5 -26 -8.5 -51 l0 -94 q0 -25 10.5 -48 q10.5 -23 28.5 -40.5 q18 -17.5 42 -28 q24 -10.5 50 -10.5 Z" /><glyph glyph-name="" unicode="c" d="M74 275 q0 76 20 130 q20 54 53.5 88.5 q33.5 34.5 79 50.5 q45.5 16 95.5 16 q40 0 71 -7 q31 -7 54.5 -19.5 q23.5 -12.5 39.5 -27.5 q16 -15 25 -31 q13 -25 8 -44 q-5 -19 -23 -29 q-18 -10 -35.5 -7 q-17.5 3 -26.5 18 q-12 19 -38.5 33 q-26.5 14 -66.5 14 q-33 0 -61 -11 q-28 -11 -48 -33.5 q-20 -22.5 -31.5 -56.5 q-11.5 -34 -11.5 -81 q0 -47 11.5 -82.5 q11.5 -35.5 31.5 -59 q20 -23.5 48 -35 q28 -11.5 59 -11.5 q27 0 53.5 6.5 q26.5 6.5 43.5 21.5 q14 13 33 15 q19 2 37 -12 q6 -6 10.5 -14.5 q4.5 -8.5 4.5 -18.5 q0 -10 -4 -21 q-4 -11 -14 -22 q-15 -18 -34 -29 q-19 -11 -40 -17 q-21 -6 -44 -7.5 q-23 -1.5 -47 -1.5 q-56 0 -102 17 q-46 17 -79.5 51.5 q-33.5 34.5 -52.5 88.5 q-19 54 -19 128 Z" /><glyph glyph-name="" unicode="d" d="M465 -10 q-26 0 -39 13 q-13 13 -13 39 l0 60 q-9 -25 -22 -45.5 q-13 -20.5 -31 -35 q-18 -14.5 -41.5 -23 q-23.5 -8.5 -54.5 -8.5 q-59 0 -97 23.5 q-38 23.5 -59 61.5 q-21 38 -28.5 86.5 q-7.5 48.5 -7.5 98.5 q0 53 8.5 106.5 q8.5 53.5 31 96.5 q22.5 43 63 70 q40.5 27 104.5 27 q53 0 89 -29 q36 -29 45 -74 l0 231 q0 27 13 39.5 q13 12.5 39 12.5 q26 0 39 -12.5 q13 -12.5 13 -39.5 l0 -646 q0 -26 -12.5 -39 q-12.5 -13 -39.5 -13 ZM282 90 q26 0 50 10.5 q24 10.5 42 28 q18 17.5 28.5 40.5 q10.5 23 10.5 48 l0 94 q0 25 -8.5 51 q-8.5 26 -23.5 48 q-15 22 -37 36 q-22 14 -48 14 q-40 0 -63.5 -17 q-23.5 -17 -36.5 -45 q-13 -28 -16.5 -63 q-3.5 -35 -3.5 -71 q0 -35 4.5 -67 q4.5 -32 16.5 -56 q12 -24 33 -37.5 q21 -13.5 52 -13.5 Z" /><glyph glyph-name="" unicode="e" d="M459 141 q21 0 34 -15.5 q13 -15.5 13 -34.5 q0 -11 -4.5 -20.5 q-4.5 -9.5 -18.5 -22.5 q-16 -14 -34 -25 q-18 -11 -39 -18.5 q-21 -7.5 -44.5 -11 q-23.5 -3.5 -49.5 -3.5 q-59 0 -104.5 20 q-45.5 20 -76.5 57 q-31 37 -47.5 89 q-16.5 52 -16.5 116 q0 56 12.5 108.5 q12.5 52.5 40.5 92.5 q28 40 72.5 63.5 q44.5 23.5 109.5 23.5 q61 0 101.5 -21 q40.5 -21 65.5 -58 q25 -37 35.5 -86 q10.5 -49 10.5 -106 q0 -22 -13.5 -36.5 q-13.5 -14.5 -36.5 -14.5 l-296 0 q5 -38 17.5 -66 q12.5 -28 31.5 -46 q19 -18 43.5 -27 q24.5 -9 52.5 -9 q43 0 70 13.5 q27 13.5 42 24.5 q8 8 14.5 10.5 q6.5 2.5 14.5 2.5 ZM173 324 l233 0 q5 0 10 5.5 q5 5.5 5 23.5 q0 20 -7.5 39 q-7.5 19 -22.5 34 q-15 15 -36.5 24.5 q-21.5 9.5 -48.5 9.5 q-29 0 -52 -10 q-23 -10 -39.5 -28 q-16.5 -18 -26.5 -42.5 q-10 -24.5 -15 -55.5 Z" /><glyph glyph-name="" unicode="f" d="M493 370 l-178 0 l0 -328 q0 -27 -12.5 -39.5 q-12.5 -12.5 -39 -12.5 q-26.5 0 -39 12.5 q-12.5 12.5 -12.5 39.5 l0 328 l-120 0 q-23 0 -36 13.5 q-13 13.5 -13 36.5 q0 23 13 36.5 q13 13.5 36 13.5 l120 0 l0 94 q0 38 13.5 68.5 q13.5 30.5 38.5 52.5 q25 22 58 33.5 q33 11.5 71 11.5 l89 0 q23 0 36.5 -13.5 q13.5 -13.5 13.5 -36 q0 -22.5 -13.5 -36 q-13.5 -13.5 -36.5 -13.5 l-89 0 q-19 0 -33.5 -6 q-14.5 -6 -24.5 -15.5 q-10 -9.5 -15 -21.5 q-5 -12 -5 -24 l0 -94 l178 0 q23 0 36 -13.5 q13 -13.5 13 -36.5 q0 -23 -13 -36.5 q-13 -13.5 -36 -13.5 Z" /><glyph glyph-name="" unicode="g" d="M416 115 q-9 -28 -23 -48.5 q-14 -20.5 -33 -34 q-19 -13.5 -42.5 -20 q-23.5 -6.5 -50.5 -6.5 q-60 0 -98 25 q-38 25 -59 64.5 q-21 39.5 -29.5 88.5 q-8.5 49 -8.5 95 q0 48 8.5 97.5 q8.5 49.5 31 90.5 q22.5 41 63 67 q40.5 26 104.5 26 q53 0 87 -27.5 q34 -27.5 48 -75.5 l0 51 q0 27 12.5 39.5 q12.5 12.5 38.5 12.5 q26 0 38.5 -12.5 q12.5 -12.5 12.5 -39.5 l0 -508 q0 -63 -16 -109.5 q-16 -46.5 -46 -77.5 q-30 -31 -72 -45.5 q-42 -14.5 -93 -14.5 q-67 0 -113 24 q-46 24 -77 61 q-8 10 -11.5 20 q-3.5 10 -3.5 20 q0 9 3.5 20 q3.5 11 11 20 q7.5 9 17.5 14.5 q10 5.5 22 5.5 q10 0 18.5 -4 q8.5 -4 16.5 -13 q11 -12 25 -24.5 q14 -12.5 30.5 -22 q16.5 -9.5 35.5 -15.5 q19 -6 39 -6 q19 0 39.5 8 q20.5 8 36.5 25.5 q16 17.5 26.5 45 q10.5 27.5 10.5 68.5 l0 115 ZM284 105 q27 0 50.5 10.5 q23.5 10.5 41 28 q17.5 17.5 28 39.5 q10.5 22 10.5 45 l0 88 q0 23 -8 49 q-8 26 -23.5 47.5 q-15.5 21.5 -37 36 q-21.5 14.5 -47.5 14.5 q-40 0 -64 -17 q-24 -17 -37 -43 q-13 -26 -17 -57.5 q-4 -31.5 -4 -61.5 q0 -31 4 -62.5 q4 -31.5 16 -57.5 q12 -26 33 -42.5 q21 -16.5 55 -16.5 Z" /><glyph glyph-name="" unicode="h" d="M191 316 l0 -274 q0 -27 -12.5 -39.5 q-12.5 -12.5 -39.5 -12.5 q-26 0 -38.5 12.5 q-12.5 12.5 -12.5 39.5 l0 647 q0 26 12.5 38.5 q12.5 12.5 37.5 12.5 q25 0 38.5 -12.5 q13.5 -12.5 13.5 -38.5 l0 -234 q14 49 48 77 q34 28 88 28 q42 0 76 -14 q34 -14 59 -39.5 q25 -25.5 38 -61 q13 -35.5 13 -78.5 l0 -325 q0 -27 -12.5 -39.5 q-12.5 -12.5 -38.5 -12.5 q-27 0 -39.5 12.5 q-12.5 12.5 -12.5 39.5 l0 298 q0 24 -6.5 46 q-6.5 22 -19 39 q-12.5 17 -31 27.5 q-18.5 10.5 -44.5 10.5 q-26 0 -47.5 -14.5 q-21.5 -14.5 -37 -36 q-15.5 -21.5 -24 -47.5 q-8.5 -26 -8.5 -49 Z" /><glyph glyph-name="" unicode="i" d="M508 100 q23 0 35.5 -13.5 q12.5 -13.5 12.5 -36.5 q0 -23 -12.5 -36.5 q-12.5 -13.5 -35.5 -13.5 l-378 0 q-23 0 -35.5 13.5 q-12.5 13.5 -12.5 36.5 q0 23 12.5 36.5 q12.5 13.5 35.5 13.5 l144 0 l0 286 q0 22 -11 33 q-11 11 -33 11 l-79 0 q-23 0 -36 13.5 q-13 13.5 -13 36.5 q0 23 13 36.5 q13 13.5 36 13.5 l137 0 q45 0 67 -22 q22 -22 22 -67 l0 -341 l131 0 ZM320 626 q-35 0 -55 18 q-20 18 -20 49 q0 31 20 49.5 q20 18.5 55 18.5 q35 0 55 -18.5 q20 -18.5 20 -49.5 q0 -31 -20 -49 q-20 -18 -55 -18 Z" /><glyph glyph-name="" unicode="j" d="M342 386 q0 22 -10.5 33 q-10.5 11 -32.5 11 l-126 0 q-22 0 -35.5 13.5 q-13.5 13.5 -13.5 36.5 q0 22 13.5 36 q13.5 14 37.5 14 l182 0 q45 0 67 -22 q22 -22 22 -67 l0 -456 q0 -54 -15 -97 q-15 -43 -42 -72.5 q-27 -29.5 -65.5 -46 q-38.5 -16.5 -86.5 -16.5 q-26 0 -50.5 6 q-24.5 6 -46.5 17.5 q-22 11.5 -43 29 q-21 17.5 -40 39.5 q-7 7 -10 16 q-3 9 -3 17 q0 18 12.5 37.5 q12.5 19.5 37.5 19.5 q15 1 27 -7.5 q12 -8.5 24 -22.5 q15 -19 37.5 -35.5 q22.5 -16.5 56.5 -16.5 q21 0 40 7.5 q19 7.5 32.5 22 q13.5 14.5 22 36 q8.5 21.5 8.5 50.5 l0 417 ZM380 626 q-35 0 -55 18 q-20 18 -20 49 q0 31 20 49.5 q20 18.5 55 18.5 q35 0 55 -18.5 q20 -18.5 20 -49.5 q0 -31 -20 -49 q-20 -18 -55 -18 Z" /><glyph glyph-name="" unicode="k" d="M198 42 q0 -27 -13 -39.5 q-13 -12.5 -39 -12.5 q-26 0 -39 12.5 q-13 12.5 -13 39.5 l0 646 q0 27 13 39.5 q13 12.5 39 12.5 q26 0 39 -12.5 q13 -12.5 13 -39.5 l0 -363 l208 211 q12 13 25 18.5 q13 5.5 27 5.5 q16 0 27 -6.5 q11 -6.5 16.5 -17.5 q5.5 -11 3.5 -23.5 q-2 -12.5 -13 -24.5 l-143 -148 l172 -285 q8 -13 8 -25 q0 -12 -5.5 -20.5 q-5.5 -8.5 -15 -14 q-9.5 -5.5 -20.5 -5.5 q-20 0 -37 5 q-17 5 -30 26 l-145 243 l-78 -81 l0 -141 Z" /><glyph glyph-name="" unicode="l" d="M318 234 q0 -73 20.5 -108.5 q20.5 -35.5 60.5 -35.5 q18 0 36 3 q18 3 39 13 q23 11 39.5 5 q16.5 -6 28.5 -27 q13 -22 8 -40 q-5 -18 -25 -28 q-32 -17 -67 -21.5 q-35 -4.5 -77 -4.5 q-38 0 -69 13.5 q-31 13.5 -52.5 41.5 q-21.5 28 -33 71 q-11.5 43 -11.5 102 l1 374 q0 22 -11.5 33 q-11.5 11 -33.5 11 l-64 0 q-23 0 -35 12 q-12 12 -12 35 q0 23 12 35 q12 12 35 12 l123 0 q45 0 67 -22 q22 -22 22 -67 l-1 -407 Z" /><glyph glyph-name="" unicode="m" d="M103 -2 q-23 0 -38 11 q-15 11 -15 36 l0 470 q0 22 14.5 33.5 q14.5 11.5 35.5 11.5 q22 0 36 -11.5 q14 -11.5 14 -33.5 l0 -31 q10 35 30.5 55.5 q20.5 20.5 61.5 20.5 q43 0 67 -23 q24 -23 29 -53 q7 32 32 54 q25 22 70 22 q30 0 50.5 -10.5 q20.5 -10.5 34 -29 q13.5 -18.5 19 -43.5 q5.5 -25 5.5 -54 l0 -378 q0 -25 -14 -36 q-14 -11 -37 -11 q-23 0 -37.5 11 q-14.5 11 -14.5 36 l0 360 q0 25 -10.5 45.5 q-10.5 20.5 -39.5 20.5 q-27 0 -37.5 -20 q-10.5 -20 -10.5 -45 l0 -366 q0 -23 -14 -32.5 q-14 -9.5 -34 -9.5 q-20 0 -34 9.5 q-14 9.5 -14 32.5 l0 365 q0 25 -10 45.5 q-10 20.5 -39 20.5 q-28 0 -39 -19.5 q-11 -19.5 -11 -45.5 l0 -361 q0 -25 -14 -36 q-14 -11 -36 -11 Z" /><glyph glyph-name="" unicode="n" d="M191 316 l0 -274 q0 -27 -12.5 -39.5 q-12.5 -12.5 -39.5 -12.5 q-26 0 -38.5 12.5 q-12.5 12.5 -12.5 39.5 l0 467 q0 26 12.5 38.5 q12.5 12.5 37.5 12.5 q25 0 38.5 -12.5 q13.5 -12.5 13.5 -38.5 l0 -54 q14 49 48 77 q34 28 88 28 q42 0 76 -14 q34 -14 59 -39.5 q25 -25.5 38 -61 q13 -35.5 13 -78.5 l0 -325 q0 -27 -12.5 -39.5 q-12.5 -12.5 -38.5 -12.5 q-27 0 -39.5 12.5 q-12.5 12.5 -12.5 39.5 l0 298 q0 24 -6.5 46 q-6.5 22 -19 39 q-12.5 17 -31 27.5 q-18.5 10.5 -44.5 10.5 q-26 0 -47.5 -14.5 q-21.5 -14.5 -37 -36 q-15.5 -21.5 -24 -47.5 q-8.5 -26 -8.5 -49 Z" /><glyph glyph-name="" unicode="o" d="M300 -10 q-59 0 -102 22 q-43 22 -71.5 60 q-28.5 38 -42 90.5 q-13.5 52.5 -13.5 113.5 q0 61 13 112.5 q13 51.5 42 89.5 q29 38 72 60 q43 22 102 22 q60 0 103 -22 q43 -22 71.5 -59.5 q28.5 -37.5 41.5 -89.5 q13 -52 13 -113 q0 -61 -13.5 -113.5 q-13.5 -52.5 -42 -90.5 q-28.5 -38 -71.5 -60 q-43 -22 -102 -22 ZM300 88 q33 0 56.5 14 q23.5 14 39 39 q15.5 25 23 59.5 q7.5 34.5 7.5 75.5 q0 41 -7 75 q-7 34 -22.5 58.5 q-15.5 24.5 -39.5 38.5 q-24 14 -57 14 q-33 0 -57 -14 q-24 -14 -39.5 -39 q-15.5 -25 -22.5 -59 q-7 -34 -7 -75 q0 -41 7.5 -75 q7.5 -34 23 -59 q15.5 -25 39 -39 q23.5 -14 56.5 -14 Z" /><glyph glyph-name="" unicode="p" d="M135 560 q26 0 39 -13 q13 -13 13 -39 l0 -60 q9 25 22 45.5 q13 20.5 31 35 q18 14.5 41.5 23 q23.5 8.5 54.5 8.5 q59 0 97 -23.5 q38 -23.5 59 -61.5 q21 -38 28.5 -86.5 q7.5 -48.5 7.5 -98.5 q0 -53 -8.5 -106.5 q-8.5 -53.5 -31 -96.5 q-22.5 -43 -63 -70 q-40.5 -27 -104.5 -27 q-53 0 -89 29 q-36 29 -45 74 l0 -231 q0 -27 -13 -39.5 q-13 -12.5 -39 -12.5 q-26 0 -39 12.5 q-13 12.5 -13 39.5 l0 646 q0 26 12.5 39 q12.5 13 39.5 13 ZM318 460 q-26 0 -50 -10.5 q-24 -10.5 -42 -28 q-18 -17.5 -28.5 -40.5 q-10.5 -23 -10.5 -48 l0 -94 q0 -25 8.5 -51 q8.5 -26 23.5 -48 q15 -22 37 -36 q22 -14 48 -14 q40 0 63.5 17 q23.5 17 36.5 45 q13 28 16.5 63 q3.5 35 3.5 71 q0 35 -4.5 67 q-4.5 32 -16.5 56 q-12 24 -33 37.5 q-21 13.5 -52 13.5 Z" /><glyph glyph-name="" unicode="q" d="M465 560 q27 0 39.5 -13 q12.5 -13 12.5 -39 l0 -646 q0 -27 -13 -39.5 q-13 -12.5 -39 -12.5 q-26 0 -39 12.5 q-13 12.5 -13 39.5 l0 231 q-9 -45 -45 -74 q-36 -29 -89 -29 q-64 0 -104.5 27 q-40.5 27 -63 70 q-22.5 43 -31 96.5 q-8.5 53.5 -8.5 106.5 q0 50 7.5 98.5 q7.5 48.5 28.5 86.5 q21 38 59 61.5 q38 23.5 97 23.5 q31 0 54.5 -8.5 q23.5 -8.5 41.5 -23 q18 -14.5 31 -35 q13 -20.5 22 -45.5 l0 60 q0 26 13 39 q13 13 39 13 ZM282 460 q-31 0 -52 -13.5 q-21 -13.5 -33 -37.5 q-12 -24 -16.5 -56 q-4.5 -32 -4.5 -67 q0 -36 3.5 -71 q3.5 -35 16.5 -63 q13 -28 36.5 -45 q23.5 -17 63.5 -17 q26 0 48 14 q22 14 37 36 q15 22 23.5 48 q8.5 26 8.5 51 l0 94 q0 25 -10.5 48 q-10.5 23 -28.5 40.5 q-18 17.5 -42 28 q-24 10.5 -50 10.5 Z" /><glyph glyph-name="" unicode="r" d="M155 -10 q-26 0 -38.5 12.5 q-12.5 12.5 -12.5 39.5 l0 467 q0 26 12.5 38.5 q12.5 12.5 38.5 12.5 q26 0 38.5 -12.5 q12.5 -12.5 12.5 -38.5 l0 -54 q18 49 64 77 q46 28 118 28 q45 0 73.5 -15.5 q28.5 -15.5 45.5 -42.5 q17 -27 23.5 -63 q6.5 -36 6.5 -77 l0 -12 q0 -26 -12.5 -39 q-12.5 -13 -39.5 -13 q-26 0 -38.5 13 q-12.5 13 -12.5 39 l0 10 q0 21 -3 41 q-3 20 -11 35.5 q-8 15.5 -24 24.5 q-16 9 -42 9 q-25 0 -51 -8.5 q-26 -8.5 -48 -24.5 q-22 -16 -35.5 -39.5 q-13.5 -23.5 -13.5 -52.5 l0 -303 q0 -27 -12.5 -39.5 q-12.5 -12.5 -38.5 -12.5 Z" /><glyph glyph-name="" unicode="s" d="M301 -10 q-31 0 -59.5 4 q-28.5 4 -53 13 q-24.5 9 -46.5 24 q-22 15 -42 38 q-11 11 -16.5 25.5 q-5.5 14.5 -5.5 29.5 q0 24 13 34.5 q13 10.5 29 10.5 q11 0 20.5 -4 q9.5 -4 20.5 -14 q31 -27 62.5 -44.5 q31.5 -17.5 76.5 -17.5 q17 0 38.5 2 q21.5 2 39.5 8.5 q18 6.5 30.5 19 q12.5 12.5 12.5 33.5 q0 20 -12.5 34 q-12.5 14 -30.5 24 q-18 10 -39.5 16 q-21.5 6 -38.5 9 q-35 7 -71 17 q-36 10 -65 28.5 q-29 18.5 -47.5 48 q-18.5 29.5 -18.5 75.5 q0 42 16 71.5 q16 29.5 43 48.5 q27 19 64 27.5 q37 8.5 79 8.5 q64 0 117 -20.5 q53 -20.5 80 -60.5 q7 -10 10.5 -20 q3.5 -10 3.5 -20 q0 -20 -11.5 -33 q-11.5 -13 -32.5 -13 q-11 0 -23 4 q-12 4 -23 15 q-21 21 -48.5 35 q-27.5 14 -72.5 14 q-21 0 -38.5 -3.5 q-17.5 -3.5 -31 -10.5 q-13.5 -7 -21 -17.5 q-7.5 -10.5 -7.5 -26.5 q0 -18 9 -30 q9 -12 24 -19.5 q15 -7.5 32.5 -12 q17.5 -4.5 32.5 -7.5 q38 -8 78 -19.5 q40 -11.5 72.5 -31.5 q32.5 -20 53.5 -52 q21 -32 21 -80 q0 -46 -18.5 -77 q-18.5 -31 -49.5 -49.5 q-31 -18.5 -71.5 -26.5 q-40.5 -8 -84.5 -8 Z" /><glyph glyph-name="" unicode="t" d="M477 530 q24 0 35.5 -13.5 q11.5 -13.5 11.5 -36.5 q0 -23 -11.5 -36.5 q-11.5 -13.5 -35.5 -13.5 l-175 0 l0 -196 q0 -73 20 -108.5 q20 -35.5 60 -35.5 q19 0 37 3 q18 3 39 13 q22 11 39 5 q17 -6 29 -27 q13 -22 8 -40 q-5 -18 -26 -28 q-31 -17 -66.5 -21.5 q-35.5 -4.5 -76.5 -4.5 q-38 0 -69 13.5 q-31 13.5 -53 41.5 q-22 28 -33.5 71 q-11.5 43 -11.5 102 l0 212 l-109 0 q-23 0 -34.5 13.5 q-11.5 13.5 -11.5 36.5 q0 23 11.5 36.5 q11.5 13.5 35.5 13.5 l108 0 l0 123 q0 27 13 39.5 q13 12.5 39 12.5 q26 0 39 -12.5 q13 -12.5 13 -39.5 l0 -123 l175 0 Z" /><glyph glyph-name="" unicode="u" d="M409 234 l0 274 q0 27 12.5 39.5 q12.5 12.5 39.5 12.5 q26 0 38.5 -12.5 q12.5 -12.5 12.5 -39.5 l0 -467 q0 -26 -12.5 -38.5 q-12.5 -12.5 -37.5 -12.5 q-25 0 -38.5 12.5 q-13.5 12.5 -13.5 38.5 l0 54 q-14 -49 -48 -77 q-34 -28 -88 -28 q-42 0 -76 14 q-34 14 -59 39.5 q-25 25.5 -38 61 q-13 35.5 -13 78.5 l0 325 q0 27 12.5 39.5 q12.5 12.5 38.5 12.5 q27 0 39.5 -12.5 q12.5 -12.5 12.5 -39.5 l0 -298 q0 -24 6.5 -46 q6.5 -22 19 -39 q12.5 -17 31 -27.5 q18.5 -10.5 44.5 -10.5 q26 0 47.5 14.5 q21.5 14.5 37 36 q15.5 21.5 24 47.5 q8.5 26 8.5 49 Z" /><glyph glyph-name="" unicode="v" d="M230 43 l-160 459 q-4 12 -2 22.5 q2 10.5 8.5 18.5 q6.5 8 17 12.5 q10.5 4.5 23.5 4.5 q18 0 32 -10 q14 -10 20 -29 l115 -333 q5 -15 16 -15 q11 0 16 15 l115 333 q6 19 20 29 q14 10 32 10 q13 0 23.5 -4.5 q10.5 -4.5 17 -12.5 q6.5 -8 8.5 -18.5 q2 -10.5 -2 -22.5 l-160 -459 q-9 -26 -25 -39.5 q-16 -13.5 -45 -13.5 q-28 0 -44.5 13.5 q-16.5 13.5 -25.5 39.5 Z" /><glyph glyph-name="" unicode="w" d="M176 -10 q-32 0 -50 15.5 q-18 15.5 -23 46.5 l-70 455 q-4 27 6.5 40 q10.5 13 37.5 13 q23 0 35.5 -11 q12.5 -11 16.5 -32 l48 -375 q2 -10 4 -10 q2 0 4 10 l50 248 q5 26 21 39 q16 13 44 13 q28 0 44 -13 q16 -13 21 -39 l50 -248 q2 -10 4 -10 q2 0 4 10 l48 375 q4 21 16.5 32 q12.5 11 35.5 11 q27 0 37.5 -13 q10.5 -13 6.5 -40 l-70 -455 q-6 -32 -23.5 -47 q-17.5 -15 -48.5 -15 q-32 0 -51 15 q-19 15 -25 46 l-45 230 q-2 11 -4 11 q-2 0 -4 -11 l-45 -230 q-6 -31 -24.5 -46 q-18.5 -15 -50.5 -15 Z" /><glyph glyph-name="" unicode="x" d="M500 492 l-140 -208 l152 -227 q11 -16 11 -28.5 q0 -12.5 -7 -21 q-7 -8.5 -19 -13 q-12 -4.5 -25 -4.5 q-18 0 -32 8.5 q-14 8.5 -25 25.5 l-115 170 l-115 -170 q-11 -16 -25 -25 q-14 -9 -33 -9 q-12 0 -24 4.5 q-12 4.5 -19 13 q-7 8.5 -7 21 q0 12.5 11 28.5 l152 226 l-141 209 q-11 17 -11 30 q0 13 7.5 21.5 q7.5 8.5 19.5 12.5 q12 4 24 4 q19 0 33 -9 q14 -9 26 -25 l102 -153 l102 153 q12 17 26.5 25.5 q14.5 8.5 33.5 8.5 q12 0 24 -4 q12 -4 19 -12.5 q7 -8.5 6.5 -21.5 q-0.5 -13 -11.5 -30 Z" /><glyph glyph-name="" unicode="y" d="M247 -15 l8 22 l-173 470 q-4 9 -6 17.5 q-2 8.5 -2 16.5 q0 20 13 29.5 q13 9.5 38 9.5 q18 0 28 -6 q10 -6 14 -18 l139 -377 l136 377 q4 12 13.5 18 q9.5 6 26.5 6 q27 0 40.5 -10 q13.5 -10 13.5 -30 q0 -8 -1.5 -16.5 q-1.5 -8.5 -5.5 -17.5 l-168 -486 q-7 -21 -19 -48 q-12 -27 -26.5 -54.5 q-14.5 -27.5 -32 -51 q-17.5 -23.5 -37.5 -37.5 q-26 -19 -58 -28 q-32 -9 -58 -9 q-28 0 -41 11.5 q-13 11.5 -13 37.5 l0 1 q0 23 12 36 q12 13 37 13 q16 0 31.5 6 q15.5 6 28.5 17 q14 12 23 23 q9 11 16 23 q7 12 12 25.5 q5 13.5 11 29.5 Z" /><glyph glyph-name="" unicode="z" d="M152 0 q-34 0 -50 16.5 q-16 16.5 -16 48.5 q0 17 5 31.5 q5 14.5 16 27.5 l250 292 q5 7 8 12 q3 5 3 9 q0 6 -6.5 9.5 q-6.5 3.5 -20.5 3.5 l-198 0 q-23 0 -36 13.5 q-13 13.5 -13 36.5 q0 23 13 36.5 q13 13.5 36 13.5 l294 0 q34 0 50 -16.5 q16 -16.5 16 -48.5 q0 -17 -5 -32 q-5 -15 -16 -27 l-254 -292 q-5 -7 -8 -12.5 q-3 -5.5 -3 -9.5 q0 -5 6.5 -8.5 q6.5 -3.5 19.5 -3.5 l223 0 q23 0 35.5 -13.5 q12.5 -13.5 12.5 -36.5 q0 -23 -12.5 -36.5 q-12.5 -13.5 -35.5 -13.5 l-314 0 Z" /><glyph glyph-name="" unicode="{" d="M471 -173 l-55 5 q-45 4 -80 18.5 q-35 14.5 -59.5 38 q-24.5 23.5 -36.5 55.5 q-12 32 -8 72 l15 190 q2 22 -3.5 40.5 q-5.5 18.5 -16.5 32 q-11 13.5 -27.5 21.5 q-16.5 8 -38.5 8 l-28 0 q-23 0 -36.5 14.5 q-13.5 14.5 -13.5 37.5 q0 23 13.5 37.5 q13.5 14.5 36.5 14.5 l28 0 q22 0 39 8 q17 8 28 21.5 q11 13.5 16 32 q5 18.5 3 40.5 l-15 174 q-4 39 7.5 70.5 q11.5 31.5 36 54 q24.5 22.5 60.5 36 q36 13.5 80 17.5 l55 5 q23 2 34.5 -13 q11.5 -15 11.5 -38 q0 -23 -11.5 -36 q-11.5 -13 -34.5 -16 l-49 -5 q-43 -5 -67.5 -28 q-24.5 -23 -19.5 -70 l15 -153 q3 -30 -5 -58.5 q-8 -28.5 -25 -50 q-17 -21.5 -43 -35.5 q-9 -5 -20 -8 q10 -3 20 -8 q25 -14 42 -36 q17 -22 25 -50 q8 -28 6 -58 l-15 -172 q-2 -23 3 -40.5 q5 -17.5 16.5 -29 q11.5 -11.5 28.5 -18 q17 -6.5 39 -9.5 l49 -5 q23 -3 34.5 -17 q11.5 -14 11.5 -37 q0 -23 -11.5 -39 q-11.5 -16 -34.5 -14 Z" /><glyph glyph-name="" unicode="}" d="M129 -173 q-23 -2 -34.5 14 q-11.5 16 -11.5 39 q0 23 11.5 37 q11.5 14 34.5 17 l49 5 q22 3 39 9.5 q17 6.5 28.5 18 q11.5 11.5 16.5 29 q5 17.5 3 40.5 l-15 172 q-2 30 6 58 q8 28 25 50 q17 22 42 36 q10 5 21 8 q-11 3 -21 8 q-26 14 -43 35.5 q-17 21.5 -25 50 q-8 28.5 -5 58.5 l15 153 q5 47 -19.5 70 q-24.5 23 -67.5 28 l-49 5 q-23 3 -34.5 16 q-11.5 13 -11.5 36 q0 23 11.5 38 q11.5 15 34.5 13 l55 -5 q44 -4 80 -17.5 q36 -13.5 60.5 -36 q24.5 -22.5 36 -54 q11.5 -31.5 7.5 -70.5 l-15 -174 q-2 -22 3 -40.5 q5 -18.5 16 -32 q11 -13.5 28.5 -21.5 q17.5 -8 38.5 -8 l28 0 q23 0 36.5 -14.5 q13.5 -14.5 13.5 -37.5 q0 -23 -13.5 -37.5 q-13.5 -14.5 -36.5 -14.5 l-28 0 q-21 0 -38 -8 q-17 -8 -28 -21.5 q-11 -13.5 -16 -32 q-5 -18.5 -4 -40.5 l15 -190 q4 -40 -8 -72 q-12 -32 -36.5 -55.5 q-24.5 -23.5 -59.5 -38 q-35 -14.5 -80 -18.5 l-55 -5 Z" /><glyph glyph-name="" unicode="&#x3001;" d="M403 -29 q-7 -6 -17 -8.5 q-10 -2.5 -20 -2 q-10 0.5 -19.5 4.5 q-9.5 4 -15.5 11 q-34 39 -71 76.5 q-37 37.5 -73 68.5 q-7 8 -11 17.5 q-4 9.5 -4 20 q0 10.5 4 20.5 q4 10 12 17 l11 10 q12 10 32 10 q20 0 32 -11 q38 -34 79 -74.5 q41 -40.5 78 -80.5 q6 -8 8.5 -17 q2.5 -9 2 -18.5 q-0.5 -9.5 -4.5 -18.5 q-4 -9 -11 -15 l-12 -10 Z" /><glyph glyph-name="" unicode="&#x3002;" d="M294 254 q33 0 61.5 -12 q28.5 -12 50 -33.5 q21.5 -21.5 33.5 -50 q12 -28.5 12 -61.5 q0 -32 -12 -61 q-12 -29 -33.5 -50.5 q-21.5 -21.5 -50 -33.5 q-28.5 -12 -61.5 -12 q-32 0 -61 12 q-29 12 -50 33.5 q-21 21.5 -33.5 50.5 q-12.5 29 -12.5 61 q0 33 12.5 61.5 q12.5 28.5 34 50 q21.5 21.5 50 33.5 q28.5 12 60.5 12 ZM294 2 q20 0 37.5 7.5 q17.5 7.5 30 20.5 q12.5 13 20 30 q7.5 17 7.5 37 q0 20 -7.5 37.5 q-7.5 17.5 -20 30 q-12.5 12.5 -30 20 q-17.5 7.5 -37.5 7.5 q-20 0 -37 -7.5 q-17 -7.5 -30.5 -20 q-13.5 -12.5 -21 -30.5 q-7.5 -18 -7.5 -37 q0 -20 8 -37.5 q8 -17.5 21 -30 q13 -12.5 30 -20 q17 -7.5 37 -7.5 Z" /><glyph glyph-name="" unicode="&#x300a;" d="M882 -17 q4 -9 4.5 -19 q0.5 -10 -2 -19 q-2.5 -9 -7.5 -15 q-5 -6 -12 -9 q-12 -3 -27 6.5 q-15 9.5 -22 25.5 l-187 413 q-2 5 -2 14 q0 9 2 14 l187 413 q7 16 22 25.5 q15 9.5 27 6.5 q7 -3 12 -9 q5 -6 7.5 -15 q2.5 -9 2 -19 q-0.5 -10 -4.5 -19 l-179 -392 q-1 -2 -1 -5 q0 -3 1 -5 l179 -392 ZM1047 -17 q5 -9 5 -19 q0 -10 -2.5 -19 q-2.5 -9 -7 -15 q-4.5 -6 -12.5 -9 q-12 -3 -27 6.5 q-15 9.5 -21 25.5 l-187 413 q-2 5 -2 14 q0 9 2 14 l187 413 q6 16 21 25.5 q15 9.5 27 6.5 q8 -3 12.5 -9 q4.5 -6 7 -15 q2.5 -9 2.5 -19 q0 -10 -5 -19 l-179 -392 q-1 -2 -1 -5 q0 -3 1 -5 l179 -392 Z" /><glyph glyph-name="" unicode="&#x300b;" d="M170 -79 q-8 3 -13 9 q-5 6 -7.5 15 q-2.5 9 -2 19 q0.5 10 4.5 19 l179 392 q2 2 2 5 q0 3 -2 5 l-179 392 q-4 9 -4.5 19 q-0.5 10 2 19 q2.5 9 7.5 15 q5 6 13 9 q11 3 26 -6.5 q15 -9.5 22 -25.5 l187 -413 q2 -5 2 -14 q0 -9 -2 -14 l-187 -413 q-7 -16 -22 -25.5 q-15 -9.5 -26 -6.5 ZM335 -79 q-7 3 -12 9 q-5 6 -7.5 15 q-2.5 9 -2 19 q0.5 10 4.5 19 l179 392 q1 2 1 5 q0 3 -1 5 l-179 392 q-4 9 -4.5 19 q-0.5 10 2 19 q2.5 9 7.5 15 q5 6 12 9 q11 3 26.5 -6.5 q15.5 -9.5 21.5 -25.5 l187 -413 q2 -5 2 -14 q0 -9 -2 -14 l-187 -413 q-6 -16 -21.5 -25.5 q-15.5 -9.5 -26.5 -6.5 Z" /><glyph glyph-name="" unicode="&#x300c;" d="M745 799 q0 10 4.5 18.5 q4.5 8.5 11.5 16 q7 7.5 16 11.5 q9 4 18 4 l224 0 q10 0 18.5 -3.5 q8.5 -3.5 16 -10 q7.5 -6.5 11.5 -14.5 q4 -8 4 -16.5 q0 -8.5 -4 -16 q-4 -7.5 -11.5 -14 q-7.5 -6.5 -16 -10.5 q-8.5 -4 -18.5 -4 l-171 0 q-2 0 -4 -2 q-2 -2 -2 -4 l0 -499 q0 -9 -4 -18 q-4 -9 -11 -16 q-7 -7 -15.5 -11 q-8.5 -4 -17.5 -4 q-9 0 -17.5 4 q-8.5 4 -15.5 11.5 q-7 7.5 -11.5 16.5 q-4.5 9 -4.5 18 l0 543 Z" /><glyph glyph-name="" unicode="&#x300d;" d="M455 -39 q0 -10 -4.5 -18.5 q-4.5 -8.5 -11.5 -16 q-7 -7.5 -16 -11.5 q-9 -4 -18 -4 l-224 0 q-9 0 -18 4 q-9 4 -16.5 10.5 q-7.5 6.5 -11.5 14 q-4 7.5 -4 16 q0 8.5 4 16.5 q4 8 11.5 14.5 q7.5 6.5 16.5 10 q9 3.5 18 3.5 l171 0 q2 0 4 2 q2 2 2 4 l0 499 q0 9 4.5 18 q4.5 9 11.5 16 q7 7 15.5 11 q8.5 4 17.5 4 q9 0 17.5 -4 q8.5 -4 15.5 -11.5 q7 -7.5 11 -16 q4 -8.5 4 -18.5 l0 -543 Z" /><glyph glyph-name="" unicode="&#x300e;" d="M887 682 q-2 0 -4 -2 q-2 -2 -2 -4 l0 -439 q0 -9 -4 -18 q-4 -9 -11 -16.5 q-7 -7.5 -16 -11.5 q-9 -4 -19 -4 l-81 0 q-10 0 -19 4 q-9 4 -16 11.5 q-7 7.5 -11 16.5 q-4 9 -4 18 l0 562 q0 10 4 18.5 q4 8.5 11 16 q7 7.5 16 11.5 q9 4 18 4 l270 0 q10 0 18.5 -4 q8.5 -4 16 -11 q7.5 -7 11.5 -16 q4 -9 4 -19 l0 -68 q0 -9 -4 -18 q-4 -9 -11.5 -16 q-7.5 -7 -16 -11 q-8.5 -4 -18.5 -4 l-132 0 ZM744 810 q-2 0 -4 -2 q-2 -2 -2 -4 l0 -572 q0 -2 2 -4 q2 -2 5 -2 l91 0 q3 0 5 2 q2 2 2 4 l0 438 q0 10 4 19 q4 9 11.5 16 q7.5 7 16.5 11 q9 4 18 4 l132 0 q2 0 3.5 2 q1.5 2 1.5 4 l0 78 q0 2 -2 4 q-2 2 -4 2 l-280 0 Z" /><glyph glyph-name="" unicode="&#x300f;" d="M313 78 q2 0 4 2 q2 2 2 4 l0 439 q0 10 4 18.5 q4 8.5 11 16 q7 7.5 16 11.5 q9 4 19 4 l81 0 q10 0 19 -4 q9 -4 16 -11.5 q7 -7.5 11 -16 q4 -8.5 4 -18.5 l0 -562 q0 -10 -4 -18.5 q-4 -8.5 -11 -16 q-7 -7.5 -16 -11.5 q-9 -4 -18 -4 l-270 0 q-9 0 -18 4 q-9 4 -16.5 11 q-7.5 7 -11.5 16 q-4 9 -4 19 l0 68 q0 9 4 18 q4 9 11.5 16 q7.5 7 16.5 11 q9 4 18 4 l132 0 ZM456 -50 q2 0 4 2 q2 2 2 4 l0 572 q0 2 -2 4 q-2 2 -5 2 l-91 0 q-3 0 -5 -2 q-2 -2 -2 -4 l0 -438 q0 -10 -4 -19 q-4 -9 -11.5 -16 q-7.5 -7 -16 -11 q-8.5 -4 -18.5 -4 l-132 0 q-2 0 -3.5 -2 q-1.5 -2 -1.5 -4 l0 -78 q0 -2 2 -4 q2 -2 4 -2 l280 0 Z" /><glyph glyph-name="" unicode="&#x3010;" d="M1069 847 q0 -2 -4 -6 l-9 -9 q-39 -35 -72.5 -81.5 q-33.5 -46.5 -58.5 -103.5 q-25 -57 -39.5 -123.5 q-14.5 -66.5 -14.5 -143.5 q0 -73 14.5 -139.5 q14.5 -66.5 39.5 -124 q25 -57.5 58.5 -105.5 q33.5 -48 72.5 -83 l9 -9 q4 -4 4 -5 q0 -2 -15.5 -2.5 q-15.5 -0.5 -34.5 -0.5 l-206 0 q-9 0 -18 4 q-9 4 -16.5 11.5 q-7.5 7.5 -11.5 16 q-4 8.5 -4 18.5 l0 838 q0 10 4 18.5 q4 8.5 11.5 16 q7.5 7.5 16.5 11.5 q9 4 18 4 l206 0 q19 0 34.5 -0.5 q15.5 -0.5 15.5 -1.5 Z" /><glyph glyph-name="" unicode="&#x3011;" d="M437 -39 q0 -10 -4 -18.5 q-4 -8.5 -11.5 -16 q-7.5 -7.5 -16 -11.5 q-8.5 -4 -18.5 -4 l-206 0 q-19 0 -34.5 0.5 q-15.5 0.5 -15.5 2.5 q0 1 4 5 l9 9 q39 35 72.5 81.5 q33.5 46.5 58.5 103.5 q25 57 39.5 123.5 q14.5 66.5 14.5 143.5 q0 73 -14.5 139.5 q-14.5 66.5 -39.5 124 q-25 57.5 -58.5 105.5 q-33.5 48 -72.5 83 l-9 9 q-4 4 -4 6 q0 1 15.5 1.5 q15.5 0.5 34.5 0.5 l206 0 q10 0 18.5 -4 q8.5 -4 16 -11.5 q7.5 -7.5 11.5 -16 q4 -8.5 4 -18.5 l0 -838 Z" /><glyph glyph-name="" unicode="&#x4e00;" d="M141 395 q0 9 4 17.5 q4 8.5 11.5 15.5 q7.5 7 16.5 11 q9 4 18 4 l821 0 q9 0 18 -4 q9 -4 16.5 -11 q7.5 -7 11.5 -15.5 q4 -8.5 4 -17.5 l0 -9 q0 -9 -4 -18 q-4 -9 -11.5 -16 q-7.5 -7 -16.5 -11.5 q-9 -4.5 -18 -4.5 l-821 0 q-9 0 -18 4.5 q-9 4.5 -16.5 11.5 q-7.5 7 -11.5 16 q-4 9 -4 18 l0 9 Z" /><glyph glyph-name="" unicode="&#x4e01;" d="M157 714 q0 9 4 17.5 q4 8.5 11.5 15 q7.5 6.5 16.5 10.5 q9 4 18 4 l786 0 q10 0 18.5 -4 q8.5 -4 16 -10.5 q7.5 -6.5 11.5 -15 q4 -8.5 4 -17.5 l0 -6 q0 -9 -4 -17.5 q-4 -8.5 -11.5 -15.5 q-7.5 -7 -16 -11 q-8.5 -4 -18.5 -4 l-306 0 l0 -598 q0 -53 -15 -80 q-15 -27 -52 -40 q-32 -11 -81 -14.5 q-49 -3.5 -120 -4.5 q-15 0 -30 11.5 q-15 11.5 -20 24.5 q-1 2 -1.5 4 q-0.5 2 -1.5 5 q-11 26 1.5 46.5 q12.5 20.5 41.5 19.5 q46 -2 77.5 -1.5 q31.5 0.5 51.5 1.5 q19 1 27 6.5 q8 5.5 8 22.5 l0 597 l-366 0 q-9 0 -18 4 q-9 4 -16.5 11 q-7.5 7 -11.5 15.5 q-4 8.5 -4 17.5 l0 6 Z" /><glyph glyph-name="" unicode="&#x4e03;" d="M153 407 q-1 9 2 18 q3 9 8.5 17 q5.5 8 13.5 13.5 q8 5.5 18 6.5 l236 37 l0 278 q0 9 4 17.5 q4 8.5 11.5 16 q7.5 7.5 16 11.5 q8.5 4 17.5 4 l9 0 q10 0 18 -4 q8 -4 15 -11 q7 -7 11 -16 q4 -9 4 -18 l0 -261 l459 72 q9 2 18 -1 q9 -3 17 -9 q8 -6 14 -13.5 q6 -7.5 8 -16.5 l0 -5 q1 -9 -1.5 -18.5 q-2.5 -9.5 -8.5 -17 q-6 -7.5 -14 -13 q-8 -5.5 -18 -6.5 l-474 -74 l0 -291 q0 -24 3 -39 q3 -15 11.5 -23.5 q8.5 -8.5 24.5 -11.5 q16 -3 42 -3 l228 0 q21 0 35.5 5 q14.5 5 23.5 19 q9 14 14 37.5 q5 23.5 9 59.5 q3 28 23.5 39.5 q20.5 11.5 45.5 1.5 q14 -5 24.5 -21.5 q10.5 -16.5 8.5 -31.5 q-6 -57 -15.5 -96.5 q-9.5 -39.5 -28.5 -64 q-19 -24.5 -51 -35.5 q-32 -11 -83 -11 l-241 0 q-52 0 -86.5 8.5 q-34.5 8.5 -55.5 28.5 q-21 20 -29.5 54 q-8.5 34 -8.5 85 l0 274 l-222 -35 q-9 -1 -18 2 q-9 3 -17 8.5 q-8 5.5 -13.5 13 q-5.5 7.5 -6.5 16.5 l-1 4 Z" /><glyph glyph-name="" unicode="&#x4e07;" d="M161 725 q0 10 4 18 q4 8 11 15 q7 7 16.5 11 q9.5 4 18.5 4 l779 0 q9 0 18.5 -4 q9.5 -4 16.5 -11 q7 -7 11 -15 q4 -8 4 -18 q0 -9 -4 -17.5 q-4 -8.5 -11 -15 q-7 -6.5 -16.5 -11 q-9.5 -4.5 -18.5 -4.5 l-490 0 q6 -7 10 -16 q4 -9 4 -18 q-3 -77 -10 -156 q2 2 5 3 q9 4 18 4 l377 0 q10 0 18.5 -4 q8.5 -4 16.5 -11 q2 -3 5 -5 l4 -6 q3 -5 4 -9 q2 -6 2 -13 q0 -6 -2 -13 q-6 -110 -12 -188 q-7 -84 -15.5 -140 q-8.5 -56 -19.5 -88.5 q-11 -32.5 -25 -48.5 q-20 -23 -43 -31.5 q-23 -8.5 -54 -11.5 q-22 -2 -57.5 -2 q-35.5 0 -74.5 2 q-17 0 -32 11 q-15 11 -19 25 q-7 24 8.5 40.5 q15.5 16.5 46.5 15.5 q14 -1 26 -1.5 q12 -0.5 22 -0.5 l40 0 q18 0 28 2 q10 2 20 11 q12 11 21 40.5 q9 29.5 16.5 83.5 q7.5 54 12.5 134 q4 50 7 113 l-321 0 q-9 0 -18 4 q-7 3 -13 8 q-11 -79 -35 -153 q-28 -93 -81 -173.5 q-53 -80.5 -141 -140.5 q-8 -6 -17 -8 q-9 -2 -18.5 -1 q-9.5 1 -18 5 q-8.5 4 -13.5 11 q-16 17 -12.5 40.5 q3.5 23.5 23.5 40.5 q77 54 121.5 125.5 q44.5 71.5 67.5 152.5 q23 81 30 167 q7 86 10 168 q0 9 4 18 q4 8 10 14 l-215 0 q-9 0 -18.5 4.5 q-9.5 4.5 -16.5 11 q-7 6.5 -11 15 q-4 8.5 -4 17.5 Z" /><glyph glyph-name="" unicode="&#x4e09;" d="M164 33 q0 9 4 17.5 q4 8.5 11.5 15.5 q7.5 7 16.5 11 q9 4 18 4 l770 0 q10 0 19 -4 q9 -4 16 -11 q7 -7 11 -15.5 q4 -8.5 4 -17.5 l0 -3 q0 -9 -4 -17.5 q-4 -8.5 -11 -16 q-7 -7.5 -16 -11 q-9 -3.5 -19 -3.5 l-770 0 q-9 0 -18 3.5 q-9 3.5 -16.5 11 q-7.5 7.5 -11.5 16 q-4 8.5 -4 17.5 l0 3 ZM221 700 q0 10 4 18.5 q4 8.5 11.5 15.5 q7.5 7 16.5 10.5 q9 3.5 18 3.5 l660 0 q9 0 18 -3.5 q9 -3.5 16 -10.5 q7 -7 11.5 -15.5 q4.5 -8.5 4.5 -18.5 l0 -3 q0 -8 -4.5 -17 q-4.5 -9 -11.5 -16 q-7 -7 -16 -11 q-9 -4 -18 -4 l-660 0 q-9 0 -18 4 q-9 4 -16.5 11 q-7.5 7 -11.5 16 q-4 9 -4 17 l0 3 ZM288 376 q0 9 4 17.5 q4 8.5 11 15.5 q7 7 16.5 11 q9.5 4 17.5 4 l514 0 q10 0 19 -4 q9 -4 16 -11 q7 -7 11 -15.5 q4 -8.5 4 -17.5 l0 -2 q0 -9 -4 -18 q-4 -9 -11 -16 q-7 -7 -16 -11 q-9 -4 -19 -4 l-514 0 q-8 0 -17.5 4 q-9.5 4 -16.5 11 q-7 7 -11 16 q-4 9 -4 18 l0 2 Z" /><glyph glyph-name="" unicode="&#x4e0a;" d="M147 14 q0 9 4.5 18 q4.5 9 11.5 15.5 q7 6.5 16 10.5 q9 4 18 4 l318 0 l0 720 q0 9 4 18 q4 9 11 16 q7 7 15.5 11 q8.5 4 17.5 4 l9 0 q9 0 17.5 -4 q8.5 -4 15 -11 q6.5 -7 10.5 -16 q4 -9 4 -18 l0 -249 l316 0 q10 0 18.5 -4 q8.5 -4 15.5 -10.5 q7 -6.5 11 -15.5 q4 -9 4 -18 l0 -3 q0 -8 -4 -17 q-4 -9 -11 -15.5 q-7 -6.5 -15.5 -10.5 q-8.5 -4 -18.5 -4 l-316 0 l0 -373 l385 0 q10 0 18.5 -4 q8.5 -4 15.5 -10.5 q7 -6.5 11.5 -15.5 q4.5 -9 4.5 -18 l0 -2 q0 -9 -4.5 -18 q-4.5 -9 -11.5 -15.5 q-7 -6.5 -15.5 -10.5 q-8.5 -4 -18.5 -4 l-807 0 q-9 0 -18 4 q-9 4 -16 10.5 q-7 6.5 -11.5 15.5 q-4.5 9 -4.5 18 l0 2 Z" /><glyph glyph-name="" unicode="&#x4e0b;" d="M154 723 q0 9 4 18 q4 9 11 15.5 q7 6.5 16 10.5 q9 4 18 4 l795 0 q9 0 18 -4 q9 -4 16 -10.5 q7 -6.5 11 -15.5 q4 -9 4 -18 l0 -3 q0 -8 -4 -17 q-4 -9 -11 -15.5 q-7 -6.5 -16 -10.5 q-9 -4 -18 -4 l-381 0 l0 -1 q7 -7 11 -16 q4 -9 4 -18 l0 -136 q8 6 21 8 q17 4 30 -3 q35 -18 72.5 -38 q37.5 -20 74 -41 q36.5 -21 70 -42 q33.5 -21 60.5 -39 q8 -5 12.5 -13.5 q4.5 -8.5 5.5 -18 q1 -9.5 -0.5 -18.5 q-1.5 -9 -7.5 -16 l-9 -11 q-6 -8 -15 -12.5 q-9 -4.5 -19.5 -5.5 q-10.5 -1 -20.5 1.5 q-10 2.5 -18 8.5 q-25 18 -55 38 q-30 20 -62.5 40 q-32.5 20 -67 40 q-34.5 20 -66.5 38 q-3 1 -5 3 l0 -454 q0 -10 -4 -18.5 q-4 -8.5 -10.5 -16 q-6.5 -7.5 -15.5 -11.5 q-9 -4 -18 -4 l-8 0 q-9 0 -18 4 q-9 4 -15.5 11.5 q-6.5 7.5 -10.5 16 q-4 8.5 -4 18.5 l0 671 q0 9 4 18 q4 9 10 16 q1 0 1 1 l-340 0 q-9 0 -18 4 q-9 4 -16 10.5 q-7 6.5 -11 15.5 q-4 9 -4 17 l0 3 Z" /><glyph glyph-name="" unicode="&#x4e0d;" d="M167 728 q0 9 4 17.5 q4 8.5 11.5 15.5 q7.5 7 16.5 11 q9 4 18 4 l767 0 q10 0 18.5 -4 q8.5 -4 16 -11 q7.5 -7 11.5 -15.5 q4 -8.5 4 -17.5 l0 -3 q0 -9 -4 -17.5 q-4 -8.5 -11.5 -15.5 q-7.5 -7 -16 -11 q-8.5 -4 -18.5 -4 l-274 0 l0 -5 q-1 -11 -6 -19 q-26 -44 -56 -86 l0 -1 q5 -9 5 -25 l0 -574 q0 -10 -4 -18.5 q-4 -8.5 -11 -16 q-7 -7.5 -15.5 -11.5 q-8.5 -4 -18.5 -4 l-8 0 q-10 0 -18.5 4 q-8.5 4 -15.5 11.5 q-7 7.5 -11 16 q-4 8.5 -4 18.5 l0 474 q-20 -22 -40 -42 q-58 -59 -124 -111 q-66 -52 -138 -93 q-7 -5 -16 -6 q-9 -1 -18 1.5 q-9 2.5 -17.5 7 q-8.5 4.5 -13.5 11.5 l0 1 l-1 1 q-7 10 -9 21 q-2 11 0 22 q2 11 9.5 21 q7.5 10 17.5 16 q65 37 125 84 q60 47 111.5 100 q51.5 53 94.5 110 q35 45 62 92 l-373 0 q-9 0 -18 4 q-9 4 -16.5 11 q-7.5 7 -11.5 15.5 q-4 8.5 -4 17.5 l0 3 ZM700 425 q-8 8 -13 18 q-5 10 -5.5 20 q-0.5 10 3.5 20 q4 10 12 16 l2 3 q12 9 30 9 q18 0 30 -8 q36 -24 73 -51 q37 -27 72.5 -54 q35.5 -27 68.5 -54.5 q33 -27.5 59 -51.5 q7 -7 10.5 -15.5 q3.5 -8.5 3.5 -18.5 q0 -10 -3.5 -18.5 q-3.5 -8.5 -10.5 -14.5 l-8 -9 q-8 -6 -18 -9 q-10 -3 -20 -2.5 q-10 0.5 -19 4.5 q-9 4 -16 11 q-24 24 -53.5 50 q-29.5 26 -62.5 52.5 q-33 26.5 -67.5 52.5 q-34.5 26 -67.5 50 Z" /><glyph glyph-name="" unicode="&#x4e0e;" d="M347 779 q1 9 6.5 17 q5.5 8 12.5 14 q7 6 16 9 q9 3 17 3 l4 -1 q9 -1 18 -6.5 q9 -5.5 15 -13.5 q6 -8 8.5 -18 q2.5 -10 0.5 -19 q-4 -24 -9 -49 l497 0 q9 0 18 -4 q9 -4 16 -10.5 q7 -6.5 11 -15 q4 -8.5 4 -17 q0 -8.5 -4 -17 q-4 -8.5 -11 -15.5 q-7 -7 -16 -11 q-9 -4 -18 -4 l-493 0 q-9 0 -18 4 q-2 1 -3 2 l-10 -48 q-10 -46 -19 -89 q-3 -14 -6 -27 q4 1 9 1 l560 0 q9 0 18 -4 q9 -4 16 -10.5 q7 -6.5 11.5 -14.5 q4.5 -8 4.5 -17 q0 -8 -5 -16 q0 -2 -1 -3 q-9 -96 -19 -166 q-10 -77 -22 -129 q-12 -52 -26 -84 q-14 -32 -32 -50 q-22 -23 -46.5 -31 q-24.5 -8 -60.5 -11 q-23 -1 -60 -1 q-37 0 -80 2 q-16 0 -31.5 12 q-15.5 12 -19.5 25 q-8 25 7 42 q15 17 46 16 q18 -1 32.5 -2 q14.5 -1 27.5 -1 l47 0 q19 0 31 1.5 q12 1.5 23 10.5 q14 12 26.5 41 q12.5 29 23 79.5 q10.5 50.5 19.5 122.5 q6 44 11 97 l-501 0 q-9 0 -18 4 q-9 4 -16 10 l-1 1 l-4 -4 q-14 -11 -28 -11 l-5 0 q-12 0 -21.5 5.5 q-9.5 5.5 -16 14 q-6.5 8.5 -9 19.5 q-2.5 11 0.5 22 q9 38 19 80.5 q10 42.5 19 87.5 q9 45 18 90.5 q9 45.5 16 86.5 ZM153 203 q0 9 4 17.5 q4 8.5 11.5 15 q7.5 6.5 16 10.5 q8.5 4 17.5 4 l526 0 q10 0 18.5 -4 q8.5 -4 15.5 -10.5 q7 -6.5 11 -15 q4 -8.5 4 -17.5 q0 -9 -4 -17.5 q-4 -8.5 -11 -15 q-7 -6.5 -15.5 -10.5 q-8.5 -4 -18.5 -4 l-526 0 q-9 0 -17.5 4 q-8.5 4 -16 10.5 q-7.5 6.5 -11.5 15 q-4 8.5 -4 17.5 Z" /><glyph glyph-name="" unicode="&#x4e13;" d="M153 501 q0 9 4 17.5 q4 8.5 11.5 15 q7.5 6.5 16.5 10.5 q9 4 18 4 l224 0 l4 12 l26 90 l-172 0 q-9 0 -18 4 q-9 4 -16.5 11 q-7.5 7 -11.5 15 q-4 8 -4 17 q0 9 4 17 q4 8 11.5 14.5 q7.5 6.5 16.5 10.5 q9 4 18 4 l199 0 q8 32 16 62 q2 8 7.5 15.5 q5.5 7.5 13.5 13 q8 5.5 16.5 8.5 q8.5 3 16.5 2 l5 -1 q10 -2 18 -7.5 q8 -5.5 13.5 -14 q5.5 -8.5 7.5 -18.5 q2 -10 0 -20 l-12 -40 l328 0 q10 0 18.5 -4 q8.5 -4 16 -10.5 q7.5 -6.5 11.5 -14.5 q4 -8 4 -17 q0 -9 -4 -17 q-4 -8 -11.5 -15 q-7.5 -7 -16 -11 q-8.5 -4 -18.5 -4 l-354 0 q-15 -52 -31 -102 l457 0 q10 0 18.5 -4 q8.5 -4 16 -10.5 q7.5 -6.5 11.5 -15 q4 -8.5 4 -17 q0 -8.5 -4 -17 q-4 -8.5 -11.5 -15.5 q-7.5 -7 -16 -11 q-8.5 -4 -18.5 -4 l-486 0 q-8 -25 -15 -49 q-9 -25 -16 -49 l379 0 q9 0 18 -4 l2 0 q1 1 3 2 q4 2 10 2 q1 0 3.5 0.5 q2.5 0.5 4.5 1.5 q5 2 13 0.5 q8 -1.5 14 -5.5 l9 -5 q10 -6 15.5 -15 q5.5 -9 7 -19 q1.5 -10 -1.5 -20.5 q-3 -10.5 -12 -19.5 l-115 -115 q-31 -31 -62 -61 q-17 -17 -34 -33 l14 -6 q48 -20 88 -39 q9 -4 16 -12 q7 -8 9 -18 q2 -10 1 -20.5 q-1 -10.5 -7 -18.5 l-1 -2 q-10 -14 -30.5 -19 q-20.5 -5 -35.5 2 q-34 18 -77 37.5 q-43 19.5 -90 38.5 q-47 19 -96 37 q-49 18 -97 33 q-12 3 -20.5 11 q-8.5 8 -12.5 17.5 q-4 9.5 -3.5 20 q0.5 10.5 7.5 20.5 q6 8 20.5 13 q14.5 5 25.5 3 q48 -13 100 -30 q45 -15 90 -31 q3 4 6 7 q32 31 65 62.5 q33 31.5 63 62.5 q17 16 32 31 l-327 0 q-10 0 -19 4 q-6 3 -12 7 l-1 -1 q-14 -10 -26 -10 l-6 0 q-12 0 -22 5.5 q-10 5.5 -16 14.5 q-6 9 -7.5 20 q-1.5 11 2.5 23 q17 51 36 110 q3 8 5 16 l-194 0 q-9 0 -18 4 q-9 4 -16.5 11 q-7.5 7 -11.5 15.5 q-4 8.5 -4 16.5 Z" /><glyph glyph-name="" unicode="&#x4e14;" d="M151 6 q0 9 4.5 17.5 q4.5 8.5 11 15 q6.5 6.5 15.5 10.5 q9 4 18 4 l106 0 l0 686 q0 10 4 18.5 q4 8.5 11 16 q7 7.5 16 11.5 q9 4 18 4 l505 0 q10 0 18.5 -4 q8.5 -4 15.5 -11.5 q7 -7.5 11.5 -16 q4.5 -8.5 4.5 -18.5 l0 -686 l92 0 q8 0 17 -4 q9 -4 16 -10.5 q7 -6.5 11 -15 q4 -8.5 4 -17.5 q0 -9 -4 -18 q-4 -9 -11 -15.5 q-7 -6.5 -16 -10.5 q-9 -4 -17 -4 l-802 0 q-9 0 -18 4 q-9 4 -15.5 10.5 q-6.5 6.5 -11 15.5 q-4.5 9 -4.5 18 ZM809 53 l0 157 q-9 -3 -18 -3 l-388 0 l0 -154 l406 0 ZM809 297 l0 161 q-9 -4 -18 -4 l-381 0 q-3 0 -7 1 l0 -155 q4 1 7 1 l381 0 q9 0 18 -4 ZM809 542 l0 147 q0 2 -2 4 q-2 2 -4 2 l-395 0 q-2 0 -3.5 -2 q-1.5 -2 -1.5 -4 l0 -144 l388 0 q9 0 18 -3 Z" /><glyph glyph-name="" unicode="&#x4e16;" d="M147 552 q0 9 4.5 17 q4.5 8 11.5 15 q7 7 16 11 q9 4 18 4 l91 0 l0 168 q0 9 4 18 q4 9 11 16 q7 7 16 11.5 q9 4.5 18 4.5 l4 0 q10 0 18.5 -4.5 q8.5 -4.5 15.5 -11.5 q7 -7 11 -16 q4 -9 4 -18 l0 -168 l159 0 l0 190 q0 10 3.5 18.5 q3.5 8.5 11 15.5 q7.5 7 16 11 q8.5 4 18 4 q9.5 0 18 -4 q8.5 -4 15.5 -11 q7 -7 11 -16 q4 -9 4 -18 l0 -190 l164 0 l0 179 q0 10 4 18.5 q4 8.5 11.5 16 q7.5 7.5 16 11.5 q8.5 4 17.5 4 l5 0 q9 0 17.5 -4 q8.5 -4 15.5 -11.5 q7 -7.5 11 -16 q4 -8.5 4 -18.5 l0 -179 l92 0 q9 0 18 -4 q9 -4 16 -11 q7 -7 11 -15 q4 -8 4 -17 q0 -9 -4 -17.5 q-4 -8.5 -11 -15 q-7 -6.5 -16 -10.5 q-9 -4 -18 -4 l-92 0 l0 -259 q0 -9 -4 -18 q-4 -9 -11.5 -16 q-7.5 -7 -16.5 -11 q-9 -4 -19 -4 l-262 0 q-10 0 -19 4 q-9 4 -16 11 q-7 7 -11 16 q-4 9 -4 18 l0 259 l-159 0 l0 -429 q0 -2 2 -4 q2 -2 4 -2 l581 0 q9 0 18 -4 q9 -4 16 -11 q7 -7 11 -15 q4 -8 4 -17 q0 -9 -4 -17.5 q-4 -8.5 -11 -15.5 q-7 -7 -16 -11 q-9 -4 -18 -4 l-639 0 q-9 0 -18 4 q-9 4 -16.5 11 q-7.5 7 -11.5 16 q-4 9 -4 18 l0 481 l-91 0 q-9 0 -18 4 q-9 4 -16 10.5 q-7 6.5 -11.5 15 q-4.5 8.5 -4.5 17.5 ZM646 505 l0 -212 q0 -2 2 -4 q2 -2 4 -2 l152 0 q2 0 4 2 q2 2 2 4 l0 212 l-164 0 Z" /><glyph glyph-name="" unicode="&#x4e1a;" d="M156 13 q0 10 4 18.5 q4 8.5 11 15.5 q7 7 16 11 q9 4 18 4 l222 0 q-2 6 -2 11 l0 710 q0 9 4 18 q4 9 11.5 16 q7.5 7 16 11 q8.5 4 17.5 4 l3 0 q9 0 18 -4 q9 -4 16 -11 q7 -7 10.5 -16 q3.5 -9 3.5 -18 l0 -710 q0 -5 -1 -11 l152 0 l0 720 q0 9 4 18.5 q4 9.5 11 16.5 q7 7 15.5 11 q8.5 4 18.5 4 l2 0 q10 0 18.5 -4 q8.5 -4 15.5 -11 q7 -7 11 -16.5 q4 -9.5 4 -18.5 l0 -714 q0 -3 -1 -6 l222 0 q10 0 19 -4 q9 -4 16 -11 q7 -7 11 -15.5 q4 -8.5 4 -18 q0 -9.5 -4 -18 q-4 -8.5 -11 -15.5 q-7 -7 -16 -11.5 q-9 -4.5 -19 -4.5 l-792 0 q-9 0 -18 4.5 q-9 4.5 -16 11.5 q-7 7 -11 15.5 q-4 8.5 -4 17.5 ZM190 549 q-3 9 -2 19 q1 10 5.5 19 q4.5 9 11.5 16 q7 7 16 9 q16 5 34 -4.5 q18 -9.5 24 -25.5 q15 -34 30 -70 q15 -36 29 -71.5 q14 -35.5 26.5 -69 q12.5 -33.5 21.5 -62.5 q3 -8 1.5 -17.5 q-1.5 -9.5 -5.5 -17.5 q-4 -8 -10.5 -14.5 q-6.5 -6.5 -13.5 -9.5 l-4 -1 q-10 -3 -20.5 -1.5 q-10.5 1.5 -20 6.5 q-9.5 5 -16 13 q-6.5 8 -9.5 18 q-8 28 -19.5 60.5 q-11.5 32.5 -24 67 q-12.5 34.5 -26.5 69 q-14 34.5 -28 67.5 ZM926 566 q4 10 11.5 18.5 q7.5 8.5 17 13 q9.5 4.5 19.5 4.5 q10 0 20 -4 q7 -4 12.5 -10.5 q5.5 -6.5 9 -15 q3.5 -8.5 4 -17.5 q0.5 -9 -3.5 -17 q-14 -34 -29.5 -70 q-15.5 -36 -32 -71 q-16.5 -35 -33.5 -67.5 q-17 -32.5 -33 -62.5 q-4 -8 -11.5 -14.5 q-7.5 -6.5 -16 -9.5 q-8.5 -3 -17.5 -3 q-9 0 -17 4 q-7 4 -12.5 11.5 q-5.5 7.5 -8 17 q-2.5 9.5 -2 19.5 q0.5 10 4.5 18 q15 28 31 59.5 q16 31.5 31.5 65 q15.5 33.5 29.5 66.5 q14 33 26 65 Z" /><glyph glyph-name="" unicode="&#x4e1c;" d="M355 329 q-16 0 -31 2.5 q-15 2.5 -26 8.5 q-6 3 -11 6 q-1 0 -3 1 q-10 2 -18.5 8 q-8.5 6 -12.5 16 q-2 8 -1 18.5 q1 10.5 6 21 q5 10.5 12 20.5 q7 10 14 18 q3 4 4 5 q1 1 3 4 q2 3 7 10 q5 7 17 24 q12 15 32 46 q20 31 45 73 l6 10 l-174 0 q-9 0 -18 4 q-9 4 -16.5 11 q-7.5 7 -11.5 15.5 q-4 8.5 -4 17 q0 8.5 4 17 q4 8.5 11.5 15 q7.5 6.5 16.5 10.5 q9 4 18 4 l225 0 q23 45 44 93 q4 8 11.5 14.5 q7.5 6.5 16.5 10.5 q9 4 18.5 4.5 q9.5 0.5 17.5 -2.5 l12 -4 q10 -3 16.5 -10.5 q6.5 -7.5 10.5 -17 q4 -9.5 3.5 -19.5 q-0.5 -10 -5.5 -19 q-12 -25 -25 -50 l406 0 q9 0 18 -4 q9 -4 16 -10.5 q7 -6.5 11 -15 q4 -8.5 4 -17 q0 -8.5 -4 -17 q-4 -8.5 -11 -15.5 q-7 -7 -16 -11 q-9 -4 -18 -4 l-458 0 q-19 -33 -39 -65 q-31 -49 -62 -94 q-14 -19 -27 -37 l209 0 l0 87 q0 10 4 19 q4 9 11 16 q7 7 15.5 11 q8.5 4 17.5 4 l3 0 q9 0 17.5 -4 q8.5 -4 15.5 -11 q7 -7 11 -16 q4 -9 4 -18 l0 -88 l233 0 q9 0 18 -3.5 q9 -3.5 16 -10.5 q7 -7 11 -15.5 q4 -8.5 4 -18.5 q0 -9 -4 -17 q-4 -8 -11 -14.5 q-7 -6.5 -16 -10.5 q-9 -4 -18 -4 l-233 0 l0 -292 q0 -40 -9.5 -62.5 q-9.5 -22.5 -37.5 -34.5 q-21 -10 -50.5 -13.5 q-29.5 -3.5 -69.5 -4.5 q-16 -1 -31.5 10.5 q-15.5 11.5 -19.5 24.5 q-9 25 5 44 q14 19 42 19 q19 0 28.5 -0.5 q9.5 -0.5 22.5 0.5 q13 1 17 4.5 q4 3.5 4 14.5 l0 290 l-214 0 q-10 0 -17.5 -0.5 q-7.5 -0.5 -11.5 -1.5 ZM326 220 q8 15 26.5 24.5 q18.5 9.5 34.5 5.5 l2 -2 q10 -2 17.5 -9 q7.5 -7 12 -16.5 q4.5 -9.5 4.5 -19.5 q0 -10 -5 -20 q-29 -55 -65 -106 q-36 -51 -74 -92 q-6 -6 -14.5 -10 q-8.5 -4 -17.5 -5 q-9 -1 -17.5 1 q-8.5 2 -15.5 8 q-18 14 -18 38.5 q0 24.5 16 43.5 q34 34 63 75 q29 41 51 84 ZM805 174 q-7 9 -10 19.5 q-3 10.5 -1 21 q2 10.5 7.5 19 q5.5 8.5 15.5 13.5 q11 5 28 1.5 q17 -3.5 25 -12.5 q21 -21 42 -44.5 q21 -23.5 41 -47 q20 -23.5 38 -46 q18 -22.5 32 -43.5 q6 -7 7 -17 q1 -10 -1.5 -19 q-2.5 -9 -8 -17 q-5.5 -8 -13.5 -12 l-1 -1 q-8 -5 -18.5 -5 q-10.5 0 -20 3 q-9.5 3 -18 9 q-8.5 6 -13.5 13 q-12 19 -27 39.5 q-15 20.5 -32 41.5 q-17 21 -35.5 42.5 q-18.5 21.5 -36.5 41.5 Z" /><glyph glyph-name="" unicode="&#x4e1d;" d="M689 414 q-12 -1 -24.5 1.5 q-12.5 2.5 -22.5 8.5 l-6 4 q-3 0 -5 1 q-18 3 -25 21 q-2 7 -1 17 q1 10 5.5 20.5 q4.5 10.5 11 21 q6.5 10.5 12.5 19.5 l2 2 l0 -1 l1 1 q1 1 4.5 5.5 q3.5 4.5 12.5 18.5 q8 11 22.5 34.5 q14.5 23.5 32.5 55.5 q18 32 38 71 q20 39 37 79 q3 9 10.5 16.5 q7.5 7.5 16.5 12 q9 4.5 19 5.5 q10 1 18.5 -2.5 q8.5 -3.5 15 -11 q6.5 -7.5 10 -16 q3.5 -8.5 3.5 -18.5 q0 -10 -5 -19 q-42 -85 -90 -164 q-32 -51 -64 -94 l95 4 q13 0 24 -5 q8 -3 13 -7 q7 9 14 19 q35 51 67 104 q5 8 13 14.5 q8 6.5 17.5 9.5 q9.5 3 19 2.5 q9.5 -0.5 17.5 -4.5 q8 -4 13.5 -12.5 q5.5 -8.5 8 -18 q2.5 -9.5 1.5 -19 q-1 -9.5 -7 -18.5 q-73 -109 -155 -206 q-53 -63 -106 -117 l213 10 q11 0 21 -4 q10 -4 18 -10.5 q8 -6.5 12 -15 q4 -8.5 3 -17.5 q-1 -15 -15.5 -27 q-14.5 -12 -32.5 -14 q-59 -3 -103.5 -5.5 q-44.5 -2.5 -77 -5 q-32.5 -2.5 -55.5 -4 q-23 -1.5 -38 -3.5 q-12 -1 -24 1.5 q-12 2.5 -21 7.5 q-2 1 -4 3 l-8 0 q-18 4 -24 21 q-2 8 -0.5 18 q1.5 10 6.5 20 q5 10 12.5 20 q7.5 10 15.5 17 q5 4 6.5 5 q1.5 1 5 4 q3.5 3 10 10 q6.5 7 21.5 23 q14 14 41 44.5 q27 30.5 60 73.5 l1 1 q-37 -2 -61 -4 q-29 -2 -46 -4 ZM273 410 q-12 -1 -24.5 1 q-12.5 2 -22.5 8 q-5 3 -9 6 q-1 0 -2 1 q-19 3 -25 21 q-3 8 -1.5 17.5 q1.5 9.5 6 19.5 q4.5 10 10.5 20 q6 10 12 19 l2 2 l1 0 q1 1 4.5 6 q3.5 5 12.5 19 q7 11 22 35 q15 24 32.5 57 q17.5 33 36 72 q18.5 39 35.5 79 q3 10 10 17.5 q7 7.5 16 12 q9 4.5 19 5.5 q10 1 19 -2 q8 -3 14.5 -10.5 q6.5 -7.5 10 -16 q3.5 -8.5 4 -18.5 q0.5 -10 -4.5 -18 q-40 -87 -88 -168 q-31 -52 -62 -97 l96 4 q14 0 24 -4 l4 -2 q7 10 14 21 q34 52 64 106 q5 9 13 15 q8 6 17 9.5 q9 3.5 19.5 3 q10.5 -0.5 17.5 -4.5 q9 -4 14.5 -12 q5.5 -8 7.5 -17.5 q2 -9.5 1.5 -19 q-0.5 -9.5 -5.5 -17.5 q-69 -111 -147 -212 q-53 -67 -105 -124 l183 10 q11 0 21 -3.5 q10 -3.5 17.5 -10 q7.5 -6.5 12 -15 q4.5 -8.5 3.5 -17.5 q-1 -14 -16.5 -27 q-15.5 -13 -33.5 -14 q-50 -4 -88.5 -6.5 q-38.5 -2.5 -67 -5 q-28.5 -2.5 -48.5 -4 q-20 -1.5 -34 -3.5 q-13 -1 -24.5 1.5 q-11.5 2.5 -21.5 8.5 l-6 4 l-4 0 q-19 4 -25 22 q-3 8 -1 17.5 q2 9.5 6.5 19 q4.5 9.5 12 19 q7.5 9.5 15.5 18.5 l6 5 q2 1 5 4 q3 3 9.5 10.5 q6.5 7.5 19.5 23.5 q14 14 40 46 q24 30 53 70 q-31 -2 -51 -3 q-30 -2 -46 -4 ZM149 14 q0 8 4 16.5 q4 8.5 11 15 q7 6.5 16 10 q9 3.5 18 3.5 l803 0 q10 0 18.5 -3.5 q8.5 -3.5 15.5 -10 q7 -6.5 11.5 -15 q4.5 -8.5 4.5 -16.5 q0 -9 -4.5 -17 q-4.5 -8 -11.5 -14.5 q-7 -6.5 -15.5 -10 q-8.5 -3.5 -18.5 -3.5 l-803 0 q-9 0 -18 3.5 q-9 3.5 -16 10 q-7 6.5 -11 14.5 q-4 8 -4 17 Z" /><glyph glyph-name="" unicode="&#x4e22;" d="M236 547 q0 9 4.5 17 q4.5 8 11.5 14.5 q7 6.5 16 10.5 q9 4 18 4 l263 0 l0 106 q-56 -4 -112 -7 q-85 -4 -165 -6 q-18 -1 -33.5 10 q-15.5 11 -18.5 25 q-6 20 9.5 37 q15.5 17 41.5 18 q82 3 166.5 8 q84.5 5 165 12.5 q80.5 7.5 153 17 q72.5 9.5 129.5 22.5 q10 2 23 -2.5 q13 -4.5 19 -12.5 l9 -10 q9 -10 11.5 -21 q2.5 -11 -1 -21 q-3.5 -10 -11.5 -17 q-8 -7 -22 -9 q-68 -13 -147 -23 q-57 -7 -117 -12 l0 -115 l265 0 q9 0 18 -4 q9 -4 16 -10.5 q7 -6.5 11.5 -14.5 q4.5 -8 4.5 -17 q0 -9 -4.5 -17 q-4.5 -8 -11.5 -14.5 q-7 -6.5 -16 -10.5 q-9 -4 -18 -4 l-265 0 l0 -100 q0 -6 -1 -12 l346 0 q9 0 17.5 -4 q8.5 -4 16 -10.5 q7.5 -6.5 11.5 -14.5 q4 -8 4 -16 q0 -9 -4 -17 q-4 -8 -11.5 -14.5 q-7.5 -6.5 -16 -10.5 q-8.5 -4 -17.5 -4 l-466 0 q4 -3 7 -7 q8 -8 10.5 -18.5 q2.5 -10.5 -0.5 -21 q-3 -10.5 -11 -19.5 q-54 -64 -110 -122 q-19 -21 -39 -39 l435 30 q-7 8 -13 17 q-20 26 -41 51 q-7 10 -9.5 21 q-2.5 11 0 22 q2.5 11 9.5 19.5 q7 8.5 18 12.5 l1 1 q11 5 27 1 q16 -4 24 -14 q23 -26 47 -55 q24 -29 46 -58 q22 -29 41.5 -58 q19.5 -29 34.5 -55 q5 -8 5.5 -17.5 q0.5 -9.5 -3 -18.5 q-3.5 -9 -9.5 -17 q-6 -8 -15 -12 l-5 -2 q-9 -4 -19 -3.5 q-10 0.5 -20 4 q-10 3.5 -17.5 10 q-7.5 6.5 -12.5 14.5 q-12 23 -29 49 l-10 16 q-5 -5 -12 -8 q-9 -5 -21 -6 q-130 -11 -220.5 -18 q-90.5 -7 -153 -12.5 q-62.5 -5.5 -100.5 -9 q-38 -3.5 -61 -7.5 q-13 -1 -24.5 1 q-11.5 2 -20.5 8 q-7 3 -12 9 q-7 2 -13 6 q-8 6 -12 16 q-2 8 0 17.5 q2 9.5 7.5 19 q5.5 9.5 13.5 18 q8 8.5 17 14.5 l2 2 q0 1 1 2 l4 4 q4 4 16 14 q10 8 29.5 27 q19.5 19 43 44.5 q23.5 25.5 49 56 q25.5 30.5 49.5 63.5 q3 4 7 8 l-254 0 q-9 0 -17.5 4 q-8.5 4 -16 10.5 q-7.5 6.5 -11.5 14.5 q-4 8 -4 17 q0 8 4 16 q4 8 11.5 14.5 q7.5 6.5 16 10.5 q8.5 4 17.5 4 l346 0 q-2 6 -2 12 l0 100 l-263 0 q-9 0 -18 4 q-9 4 -16 10.5 q-7 6.5 -11.5 14.5 q-4.5 8 -4.5 17 Z" /><glyph glyph-name="" unicode="&#x4e24;" d="M158 731 q0 9 4.5 17.5 q4.5 8.5 11.5 15 q7 6.5 16 10.5 q9 4 18 4 l787 0 q9 0 17.5 -4 q8.5 -4 16 -10.5 q7.5 -6.5 11.5 -15 q4 -8.5 4 -17.5 q0 -9 -4 -17.5 q-4 -8.5 -11.5 -15 q-7.5 -6.5 -16 -10.5 q-8.5 -4 -17.5 -4 l-227 0 q0 -1 1 -2 q4 -9 4 -18 l0 -100 l184 0 q9 0 18 -4 q4 -2 8 -5 q4 -2 7 -5 q7 -7 11 -15 q4 -8 4 -17 l0 -488 q0 -41 -11 -64.5 q-11 -23.5 -41 -35.5 q-23 -8 -59.5 -11.5 q-36.5 -3.5 -88.5 -3.5 q-16 -1 -31 10 q-15 11 -19 24 q-7 25 8 43 q15 18 43 18 q28 -1 45 -1 q17 0 31 1 q14 0 19.5 4.5 q5.5 4.5 5.5 17.5 l0 440 l-135 0 q-1 -26 -4 -54 q-1 -20 -4 -41 q7 -4 13 -9 q16 -19 32.5 -39 q16.5 -20 32 -39.5 q15.5 -19.5 29 -38.5 q13.5 -19 24.5 -35 q7 -10 7.5 -26 q0.5 -16 -6.5 -25 q-7 -10 -17.5 -14 q-10.5 -4 -21.5 -3.5 q-11 0.5 -21.5 6 q-10.5 5.5 -18.5 15.5 q-10 16 -22 33 q-12 17 -25.5 34.5 q-13.5 17.5 -27.5 35.5 l0 1 q-12 -39 -28 -78 q-25 -56 -65 -107 q-7 -9 -16 -13.5 q-9 -4.5 -18.5 -5 q-9.5 -0.5 -18.5 2 q-9 2.5 -15 8.5 q-14 14 -12.5 38 q1.5 24 13.5 44 q33 42 52 87.5 q19 45.5 28.5 91 q9.5 45.5 11.5 91.5 q2 20 2 40 l-157 0 q-1 -26 -3 -54 l-4 -42 q5 -3 9 -7 q20 -23 38.5 -48.5 q18.5 -25.5 31.5 -46.5 q7 -8 7 -23.5 q0 -15.5 -6 -24.5 q-8 -11 -18 -15.5 q-10 -4.5 -21 -4 q-11 0.5 -22.5 6 q-11.5 5.5 -18.5 15.5 q-11 17 -25 37 q-11 -35 -26 -70 q-24 -56 -65 -107 q-6 -9 -15.5 -13.5 q-9.5 -4.5 -18.5 -5 q-9 -0.5 -18 2 q-9 2.5 -15 8.5 q-14 14 -12.5 38 q1.5 24 13.5 44 q33 42 51.5 87.5 q18.5 45.5 28.5 91 q10 45.5 12 91.5 q1 20 1 40 l-124 0 q-2 0 -3.5 -2 q-1.5 -2 -1.5 -4 l0 -502 q0 -9 -4 -18 q-4 -9 -11 -16 q-7 -7 -15.5 -11.5 q-8.5 -4.5 -17.5 -4.5 l-1 0 q-9 0 -18 4.5 q-9 4.5 -16 11.5 q-7 7 -11 16 q-4 9 -4 18 l0 550 q0 10 4 18.5 q4 8.5 11 16 q7 7.5 16 11.5 q9 4 18 4 l179 0 l0 100 q0 9 4 18 q1 1 1 2 l-221 0 q-9 0 -18 4 q-9 4 -16 10.5 q-7 6.5 -11.5 15 q-4.5 8.5 -4.5 17.5 ZM677 664 q0 9 4 18 q0 1 1 2 l-167 0 q1 -1 1 -2 q4 -9 4 -18 l0 -100 l157 0 l0 100 Z" /><glyph glyph-name="" unicode="&#x4e25;" d="M200 750 q0 9 4 16 q4 7 11.5 13.5 q7.5 6.5 16.5 10 q9 3.5 18 3.5 l709 0 q9 0 18 -3.5 q9 -3.5 16 -10 q7 -6.5 11 -13.5 q4 -7 4 -15.5 q0 -8.5 -4 -16 q-4 -7.5 -11 -13.5 q-7 -6 -16 -9.5 q-9 -3.5 -18 -3.5 l-209 0 l0 -227 q0 -7 -2 -15 l240 0 q20 0 35 -13.5 q15 -13.5 15 -29.5 q0 -8 -4 -15.5 q-4 -7.5 -11 -14 q-7 -6.5 -16 -10 q-9 -3.5 -19 -3.5 l-687 0 l0 -71 q0 -37 -3 -79.5 q-3 -42.5 -10.5 -87.5 q-7.5 -45 -21 -89 q-13.5 -44 -35.5 -84 q-5 -11 -13.5 -17.5 q-8.5 -6.5 -18.5 -8 q-10 -1.5 -20.5 1 q-10.5 2.5 -18.5 9.5 q-14 12 -16.5 34 q-2.5 22 5.5 41 q19 33 30 68 q11 35 16.5 70 q5.5 35 7.5 71 q2 36 2 72 l0 106 q0 10 4 18.5 q4 8.5 11 16 q7 7.5 15.5 11.5 q8.5 4 17.5 4 q8 0 16 -3 q8 3 18 3 l164 0 q-3 8 -3 16 l0 226 l-198 0 q-9 0 -18 3.5 q-9 3.5 -16.5 9.5 q-7.5 6 -11.5 13.5 q-4 7.5 -4 15.5 ZM656 466 q-3 8 -3 15 l0 227 l-109 0 l0 -226 q0 -8 -3 -16 l115 0 ZM853 641 q3 9 10 17 q7 8 15.5 13 q8.5 5 18 6.5 q9.5 1.5 18.5 -0.5 q10 -3 17.5 -10 q7.5 -7 11.5 -17 q4 -10 4 -20.5 q0 -10.5 -6 -20.5 q-14 -25 -30 -52 q-16 -27 -31 -48 q-7 -11 -23 -18 q-16 -7 -28 -2 q-8 2 -14.5 9.5 q-6.5 7.5 -10 17 q-3.5 9.5 -3.5 20 q0 10.5 4 20.5 q12 19 24.5 42 q12.5 23 22.5 43 ZM264 609 q-5 10 -4.5 21 q0.5 11 3.5 20.5 q3 9.5 10 17 q7 7.5 16 10.5 q13 4 30 -3 q17 -7 23 -21 q15 -24 28.5 -51 q13.5 -27 22.5 -50 q5 -16 -3.5 -32.5 q-8.5 -16.5 -22.5 -22.5 q-10 -3 -20 -1.5 q-10 1.5 -19 7 q-9 5.5 -16.5 14.5 q-7.5 9 -10.5 19 q-6 16 -15.5 35.5 q-9.5 19.5 -21.5 36.5 Z" /><glyph glyph-name="" unicode="&#x4e2a;" d="M577 809 q6 7 13.5 12 q7.5 5 16.5 7.5 q9 2.5 18 2.5 q9 0 16 -3 l2 -1 q8 -4 14 -12 q6 -8 8.5 -17.5 q2.5 -9.5 1.5 -19.5 q-1 -10 -6 -19 q81 -91 167 -155 q86 -64 178 -112 q26 -12 31.5 -36 q5.5 -24 -9.5 -45 q-5 -7 -13.5 -12 q-8.5 -5 -17.5 -7.5 q-9 -2.5 -19 -2 q-10 0.5 -18 4.5 q-95 52 -185 123 q-85 67 -172 165 q-13 -16 -28 -33 q-47 -53 -100.5 -99 q-53.5 -46 -112.5 -86 q-59 -40 -120 -71 q-7 -4 -16.5 -4 q-9.5 0 -18.5 2.5 q-9 2.5 -16.5 7.5 q-7.5 5 -13.5 12 l-1 1 q0 1 -1 2 q-16 21 -10 44.5 q6 23.5 31 35.5 q56 27 110 61.5 q54 34.5 103 74.5 q49 40 92 85 q43 45 76 94 ZM548 487 q0 9 4 18 q4 9 11 15.5 q7 6.5 15.5 11 q8.5 4.5 17.5 4.5 l6 0 q9 0 17.5 -4.5 q8.5 -4.5 15.5 -11 q7 -6.5 11 -15.5 q4 -9 4 -18 l0 -522 q0 -9 -4 -17.5 q-4 -8.5 -11 -15.5 q-7 -7 -15.5 -11 q-8.5 -4 -17.5 -4 l-6 0 q-9 0 -17.5 4 q-8.5 4 -15.5 11 q-7 7 -11 15.5 q-4 8.5 -4 17.5 l0 522 Z" /><glyph glyph-name="" unicode="&#x4e2d;" d="M192 619 q0 10 4 18.5 q4 8.5 11.5 15.5 q7.5 7 16.5 11.5 q9 4.5 18 4.5 l304 0 l0 126 q0 10 4 18.5 q4 8.5 11 16 q7 7.5 16 11.5 q9 4 18 4 l6 0 q9 0 17.5 -4 q8.5 -4 15.5 -11.5 q7 -7.5 11 -16 q4 -8.5 4 -18.5 l0 -126 l310 0 q9 0 18 -4.5 q9 -4.5 16 -11 q7 -6.5 11 -15.5 q4 -9 4 -18 l0 -389 q0 -9 -4 -18 q-4 -9 -11 -16 q-7 -7 -15 -11 q-8 -4 -18 -4 l-5 0 q-9 0 -17.5 4 q-8.5 4 -16 11.5 q-7.5 7.5 -11.5 16.5 q-4 9 -4 18 l0 4 l-257 0 l0 -270 q0 -10 -4 -18.5 q-4 -8.5 -11 -16 q-7 -7.5 -15.5 -11.5 q-8.5 -4 -17.5 -4 l-6 0 q-9 0 -18 4 q-9 4 -16 11.5 q-7 7.5 -11 16 q-4 8.5 -4 18.5 l0 270 l-256 0 l0 -9 q0 -9 -4 -18 q-4 -9 -11 -16.5 q-7 -7.5 -15.5 -11.5 q-8.5 -4 -17.5 -4 l-1 0 q-9 0 -18 4 q-9 4 -16 11.5 q-7 7.5 -11 16.5 q-4 9 -4 17 l0 393 ZM649 573 l0 -241 l257 0 l0 235 q0 2 -2 4 q-2 2 -4 2 l-251 0 ZM546 332 l0 241 l-250 0 q-2 0 -4 -2 q-2 -2 -2 -4 l0 -235 l256 0 Z" /><glyph glyph-name="" unicode="&#x4e30;" d="M237 432 q0 9 4 17 q4 8 11 15 q7 7 16.5 10.5 q9.5 3.5 18.5 3.5 l260 0 l0 125 l-311 0 q-9 0 -18 4 q-9 4 -16.5 11.5 q-7.5 7.5 -11.5 16 q-4 8.5 -4 18 q0 9.5 4 18 q4 8.5 11.5 15.5 q7.5 7 16.5 11 q9 4 18 4 l311 0 l0 95 q0 9 4 18 q4 9 11 16 q7 7 15.5 11.5 q8.5 4.5 17.5 4.5 l9 0 q8 0 17 -4.5 q9 -4.5 16 -11.5 q7 -7 10.5 -16 q3.5 -9 3.5 -18 l0 -95 l311 0 q10 0 18.5 -4 q8.5 -4 16 -11 q7.5 -7 11.5 -15.5 q4 -8.5 4 -18 q0 -9.5 -4 -18 q-4 -8.5 -11.5 -16 q-7.5 -7.5 -16 -11.5 q-8.5 -4 -18.5 -4 l-311 0 l0 -125 l265 0 q10 0 19 -3.5 q9 -3.5 16 -10.5 q7 -7 11.5 -15 q4.5 -8 4.5 -17 q0 -9 -4.5 -17.5 q-4.5 -8.5 -11.5 -15 q-7 -6.5 -16 -10.5 q-9 -4 -19 -4 l-265 0 l0 -138 l352 0 q9 0 17.5 -3.5 q8.5 -3.5 15.5 -11 q7 -7.5 11 -16 q4 -8.5 4 -17.5 l0 -1 q0 -9 -4 -17.5 q-4 -8.5 -11 -15.5 q-7 -7 -15.5 -11.5 q-8.5 -4.5 -17.5 -4.5 l-352 0 l0 -183 q0 -9 -3.5 -18 q-3.5 -9 -10.5 -16 q-7 -7 -16 -11 q-9 -4 -17 -4 l-9 0 q-9 0 -17.5 4 q-8.5 4 -15.5 11 q-7 7 -11 16 q-4 9 -4 18 l0 183 l-348 0 q-9 0 -18 4.5 q-9 4.5 -16 11.5 q-7 7 -11 15.5 q-4 8.5 -4 17.5 l0 1 q0 9 4 17.5 q4 8.5 11 16 q7 7.5 16 11 q9 3.5 18 3.5 l348 0 l0 138 l-260 0 q-9 0 -18.5 4 q-9.5 4 -16.5 10.5 q-7 6.5 -11 15 q-4 8.5 -4 17.5 Z" /><glyph glyph-name="" unicode="&#x4e32;" d="M544 795 q0 9 4.5 18 q4.5 9 11.5 16 q7 7 15.5 11 q8.5 4 17.5 4 l8 0 q10 0 18 -4 q8 -4 15.5 -11 q7.5 -7 11.5 -16 q4 -9 4 -18 l0 -64 l264 0 q9 0 18 -4 q9 -4 16 -11 q7 -7 11.5 -16 q4.5 -9 4.5 -18 l0 -188 q0 -9 -4.5 -17.5 q-4.5 -8.5 -11.5 -15.5 q-7 -7 -16 -11 q-9 -4 -18 -4 l-264 0 l0 -72 l308 0 q10 0 18.5 -4.5 q8.5 -4.5 16 -11.5 q7.5 -7 11.5 -16 q4 -9 4 -18 l0 -238 q0 -9 -4 -18 q-4 -9 -11 -16.5 q-7 -7.5 -15.5 -11.5 q-8.5 -4 -17.5 -4 l-9 0 q-9 0 -18 4 q-9 4 -16 11.5 q-7 7.5 -11 16.5 q-2 4 -3 8 q-4 -1 -8 -1 l-245 0 l0 -110 q0 -9 -4 -18 q-4 -9 -11.5 -16 q-7.5 -7 -15.5 -11 q-8 -4 -18 -4 l-8 0 q-9 0 -17.5 4 q-8.5 4 -15.5 11 q-7 7 -11.5 16 q-4.5 9 -4.5 18 l0 110 l-235 0 q-5 0 -10 2 q-1 -5 -4 -11 q-4 -9 -10.5 -16 q-6.5 -7 -15 -11 q-8.5 -4 -17.5 -4 l-6 0 q-9 0 -17.5 4 q-8.5 4 -15.5 11 q-7 7 -11 16 q-4 9 -4 19 l0 239 q0 9 4 18 q4 9 11.5 16 q7.5 7 16.5 11.5 q9 4.5 18 4.5 l296 0 l0 72 l-256 0 q-9 0 -18 4 q-9 4 -16 11 q-7 7 -11.5 15.5 q-4.5 8.5 -4.5 17.5 l0 188 q0 9 4.5 18 q4.5 9 11.5 16 q7 7 16 11 q9 4 18 4 l256 0 l0 64 ZM650 284 l0 -121 l245 0 q3 0 7 -1 l0 116 q0 2 -2 4 q-2 2 -4 2 l-246 0 ZM544 163 l0 121 l-239 0 q-2 0 -4 -2 q-2 -2 -2 -4 l0 -117 q5 2 10 2 l235 0 ZM650 645 l0 -114 l201 0 q3 0 5 2 q2 2 2 4 l0 102 q0 2 -2 4 q-2 2 -5 2 l-201 0 ZM345 645 q-3 0 -5 -2 q-2 -2 -2 -4 l0 -102 q0 -2 2 -4 q2 -2 5 -2 l199 0 l0 114 l-199 0 Z" /><glyph glyph-name="" unicode="&#x4e34;" d="M526 329 q0 10 4 18.5 q4 8.5 11 15.5 q7 7 16.5 11.5 q9.5 4.5 18.5 4.5 l406 0 q10 0 18.5 -4.5 q8.5 -4.5 16 -11 q7.5 -6.5 11.5 -15.5 q4 -9 4 -18 l0 -361 q0 -9 -4 -18 q-4 -9 -11 -15.5 q-7 -6.5 -15.5 -11 q-8.5 -4.5 -18.5 -4.5 l-1 0 q-9 0 -17.5 4.5 q-8.5 4.5 -15.5 11.5 q-7 7 -11 16 q-4 7 -4 14 l-306 0 q-4 0 -8 1 l0 -2 q0 -9 -4 -18 q-4 -9 -10.5 -16 q-6.5 -7 -15 -11 q-8.5 -4 -17 -4 q-8.5 0 -17.5 4 q-9 4 -15.5 11 q-6.5 7 -10.5 16 q-4 9 -4 18 l0 364 ZM344 784 q0 9 3.5 17.5 q3.5 8.5 11 16 q7.5 7.5 16 11.5 q8.5 4 17.5 4 q9 0 17.5 -4 q8.5 -4 15.5 -11.5 q7 -7.5 10.5 -16 q3.5 -8.5 3.5 -17.5 l0 -810 q0 -10 -3.5 -18.5 q-3.5 -8.5 -10.5 -15.5 q-7 -7 -15.5 -11.5 q-8.5 -4.5 -17.5 -4.5 q-9 0 -17.5 4.5 q-8.5 4.5 -16 11.5 q-7.5 7 -11 15.5 q-3.5 8.5 -3.5 18.5 l0 810 ZM610 803 q3 9 9 16.5 q6 7.5 14.5 12.5 q8.5 5 17.5 7.5 q9 2.5 18 0.5 q9 -2 17 -7.5 q8 -5.5 13.5 -14 q5.5 -8.5 7.5 -18 q2 -9.5 -1 -19.5 q-8 -25 -16 -49 l316 0 q9 0 17.5 -3.5 q8.5 -3.5 16 -10.5 q7.5 -7 11.5 -15.5 q4 -8.5 4 -17.5 q0 -9 -4 -17 q-4 -8 -11.5 -15 q-7.5 -7 -16 -11 q-8.5 -4 -18.5 -4 l-340 0 q-6 0 -12 1 q-5 -11 -11 -22 q-37 -78 -81 -137 q-5 -8 -13.5 -12.5 q-8.5 -4.5 -17.5 -6.5 q-9 -2 -18 -1 q-9 1 -16 6 q-19 13 -20.5 36.5 q-1.5 23.5 12.5 44.5 q39 52 70 117.5 q31 65.5 52 138.5 ZM174 679 q0 10 4 18.5 q4 8.5 10.5 15.5 q6.5 7 14.5 11.5 q8 4.5 17 4.5 q9 0 17 -4.5 q8 -4.5 14 -11.5 q6 -7 10 -15.5 q4 -8.5 4 -18.5 l0 -591 q0 -9 -4 -18 q-4 -9 -10 -16 q-6 -7 -14 -11 q-8 -4 -17 -4 q-9 0 -17 4 q-8 4 -14.5 11 q-6.5 7 -10.5 16 q-4 9 -4 18 l0 591 ZM734 272 q0 7 2 13 l-109 0 q-3 0 -5 -1.5 q-2 -1.5 -2 -4.5 l0 -223 q4 1 8 1 l108 0 q-2 7 -2 13 l0 202 ZM822 57 l111 0 l0 223 q0 2 -2 3.5 q-2 1.5 -4 1.5 l-105 0 q1 -6 1 -13 l0 -202 q0 -6 -1 -13 ZM727 522 q-8 7 -13 16.5 q-5 9.5 -6 19.5 q-1 10 2 19.5 q3 9.5 10 15.5 q10 9 28 9.5 q18 0.5 29 -7.5 q28 -21 56 -45 q28 -24 49 -44 q8 -6 11.5 -14.5 q3.5 -8.5 4.5 -18 q1 -9.5 -1.5 -18.5 q-2.5 -9 -8.5 -15.5 q-6 -6.5 -15.5 -10 q-9.5 -3.5 -19.5 -3.5 q-10 0 -19.5 3.5 q-9.5 3.5 -16.5 9.5 q-19 19 -43 41 q-24 22 -47 42 Z" /><glyph glyph-name="" unicode="&#x4e3a;" d="M178 560 q0 9 4 17.5 q4 8.5 11 15.5 q7 7 16 11 q9 4 19 4 l266 0 q4 56 4 108 l0 77 q0 10 4 18.5 q4 8.5 11 16 q7 7.5 15.5 11.5 q8.5 4 17.5 4 l2 0 q10 0 18.5 -4 q8.5 -4 15.5 -11.5 q7 -7.5 11 -16 q4 -8.5 4 -18.5 l0 -78 q0 -50 -3 -107 l363 0 q10 0 19 -4 q9 -4 16 -11 q7 -7 11.5 -15.5 q4.5 -8.5 4.5 -17.5 l0 -3 q0 -5 -2 -10 q-5 -141 -10 -240 q-6 -103 -14 -170.5 q-8 -67.5 -18 -105.5 q-10 -38 -25 -56 q-19 -25 -40.5 -34.5 q-21.5 -9.5 -50.5 -13.5 q-20 -2 -50.5 -2 q-30.5 0 -64.5 1 q-18 0 -33.5 12 q-15.5 12 -19.5 26 q-7 26 8 44 q15 18 45 17 q12 -1 20.5 -1.5 q8.5 -0.5 17.5 -0.5 l33 0 q15 0 24.5 3 q9.5 3 19.5 12 q11 12 19.5 47.5 q8.5 35.5 15.5 101 q7 65.5 13 164.5 q3 69 7 158 l-318 0 q-10 -82 -38 -167 q-33 -101 -98.5 -199.5 q-65.5 -98.5 -180.5 -183.5 q-7 -6 -16 -8 q-9 -2 -18.5 -1 q-9.5 1 -18 4 q-8.5 3 -14.5 9 q-17 17 -14.5 41 q2.5 24 23.5 41 q100 77 158 163.5 q58 86.5 87 174.5 q21 64 30 126 l-257 0 q-10 0 -19 4 q-9 4 -16 11 q-7 7 -11 15.5 q-4 8.5 -4 17.5 l0 3 ZM623 314 q-6 9 -8 20 q-2 11 0.5 21 q2.5 10 8.5 18 q6 8 15 12 q13 7 30.5 2 q17.5 -5 26.5 -17 q24 -28 46.5 -59 q22.5 -31 38.5 -57 q5 -7 5 -16 q0 -9 -2.5 -18 q-2.5 -9 -8 -16 q-5.5 -7 -12.5 -11 q-9 -5 -19 -5 q-10 0 -20 4 q-10 4 -18.5 10.5 q-8.5 6.5 -13.5 15.5 q-13 22 -31.5 47.5 q-18.5 25.5 -37.5 48.5 ZM282 733 q-6 9 -7 20 q-1 11 1.5 21.5 q2.5 10.5 9 18.5 q6.5 8 16.5 13 q12 5 29 0.5 q17 -4.5 25 -15.5 q16 -19 31 -39.5 q15 -20.5 27 -37.5 q5 -9 5.5 -18 q0.5 -9 -2 -18 q-2.5 -9 -9 -16.5 q-6.5 -7.5 -13.5 -10.5 q-9 -4 -19.5 -3.5 q-10.5 0.5 -20 4 q-9.5 3.5 -18 10.5 q-8.5 7 -13.5 16 q-8 12 -19 26.5 q-11 14.5 -23 28.5 Z" /><glyph glyph-name="" unicode="&#x4e3b;" d="M199 603 q0 9 4 17.5 q4 8.5 11 15.5 q7 7 16 11 q9 4 18 4 l373 0 q-6 3 -10 7 q-19 21 -45 44.5 q-26 23.5 -53 45.5 q-10 8 -15 18.5 q-5 10.5 -5 21 q0 10.5 4.5 21 q4.5 10.5 14.5 16.5 l3 2 q10 6 25.5 6.5 q15.5 0.5 24.5 -6.5 q33 -24 66 -51 q33 -27 58 -52 q8 -7 11 -16 q3 -9 2.5 -19 q-0.5 -10 -5 -19 q-4.5 -9 -12.5 -15 l-6 -4 l271 0 q9 0 18 -4 q9 -4 16 -11 q7 -7 11.5 -15.5 q4.5 -8.5 4.5 -17.5 q0 -9 -4.5 -18 q-4.5 -9 -11.5 -15.5 q-7 -6.5 -16 -10.5 q-9 -4 -18 -4 l-312 0 l0 -1 q7 -7 11 -15.5 q4 -8.5 4 -17.5 l0 -163 l253 0 q9 0 18 -4 q9 -4 16 -11 q7 -7 11 -15 q4 -8 4 -17 q0 -9 -4 -17.5 q-4 -8.5 -11 -15 q-7 -6.5 -16 -11 q-9 -4.5 -18 -4.5 l-253 0 l0 -219 l348 0 q9 0 17.5 -4 q8.5 -4 16 -11 q7.5 -7 11.5 -15.5 q4 -8.5 4 -17.5 q0 -9 -4 -17.5 q-4 -8.5 -11.5 -15.5 q-7.5 -7 -16 -11 q-8.5 -4 -17.5 -4 l-798 0 q-9 0 -17.5 4 q-8.5 4 -16 11 q-7.5 7 -11.5 15.5 q-4 8.5 -4 17.5 q0 9 4 17.5 q4 8.5 11.5 15.5 q7.5 7 16 11 q8.5 4 17.5 4 l343 0 l0 219 l-248 0 q-9 0 -18 4.5 q-9 4.5 -16 11 q-7 6.5 -11.5 15 q-4.5 8.5 -4.5 17.5 q0 9 4.5 17 q4.5 8 11.5 15 q7 7 16 11 q9 4 18 4 l248 0 l0 163 q0 9 4.5 17.5 q4.5 8.5 11.5 15.5 l0 1 l-314 0 q-9 0 -18 4 q-9 4 -16 10.5 q-7 6.5 -11 15.5 q-4 9 -4 18 Z" /><glyph glyph-name="" unicode="&#x4e3e;" d="M153 610 q0 8 4 16 q4 8 11 14 q7 6 16 10 q9 4 17 4 l557 0 q-1 2 -2 5 q-2 10 -0.5 21 q1.5 11 8.5 22 q15 20 32 44.5 q17 24.5 30 47.5 q8 15 27 23.5 q19 8.5 35 3.5 l3 -1 q11 -3 18.5 -11 q7.5 -8 11 -18 q3.5 -10 2 -21 q-1.5 -11 -8.5 -20 l-42 -56 q-17 -22 -33 -40 l162 0 q9 0 17.5 -4 q8.5 -4 15.5 -10 q7 -6 11.5 -14 q4.5 -8 4.5 -16.5 q0 -8.5 -4.5 -16.5 q-4.5 -8 -11.5 -14.5 q-7 -6.5 -15.5 -10 q-8.5 -3.5 -17.5 -3.5 l-174 0 q15 -21 33 -41 q21 -24 46 -46 q25 -22 52.5 -41.5 q27.5 -19.5 54.5 -34.5 q23 -14 30 -37.5 q7 -23.5 -7 -41.5 q-10 -12 -29.5 -16 q-19.5 -4 -34.5 5 q-33 19 -64.5 43.5 q-31.5 24.5 -60.5 52.5 q-29 28 -55 59.5 q-26 31.5 -47 64.5 q-6 9 -7 19 q-1 7 1 14 l-270 0 q2 -8 1 -17 q-1 -10 -7 -19 q-22 -35 -49 -68 q-27 -33 -57 -62 q-30 -29 -64 -53.5 q-34 -24.5 -68 -44.5 q-14 -8 -32.5 -5 q-18.5 3 -28.5 15 q-14 17 -7.5 40 q6.5 23 30.5 37 q29 16 57.5 36 q28.5 20 54 44 q25.5 24 48.5 50 q19 23 34 47 l-180 0 q-8 0 -17 3.5 q-9 3.5 -16 10 q-7 6.5 -11 14.5 q-4 8 -4 17 ZM339 341 q0 9 4 17 q4 8 11.5 14.5 q7.5 6.5 16.5 10 q9 3.5 18 3.5 l163 0 l0 67 q0 9 4 18 q4 9 11 16 q7 7 16 11 q9 4 18 4 l1 0 q10 0 18 -4 q8 -4 15 -11 q7 -7 11.5 -16 q4.5 -9 4.5 -18 l0 -67 l165 0 q9 0 18 -3.5 q9 -3.5 16 -10 q7 -6.5 11 -14.5 q4 -8 4 -17 q0 -9 -4 -17 q-4 -8 -11 -14 q-7 -6 -16 -10 q-9 -4 -18 -4 l-165 0 l0 -105 l320 0 q9 0 17.5 -4 q8.5 -4 16 -11 q7.5 -7 11.5 -15 q4 -8 4 -16 q0 -9 -4 -17 q-4 -8 -11.5 -14.5 q-7.5 -6.5 -16 -10.5 q-8.5 -4 -17.5 -4 l-320 0 l0 -135 q0 -9 -4.5 -18 q-4.5 -9 -11.5 -15.5 q-7 -6.5 -15 -11 q-8 -4.5 -18 -4.5 l-1 0 q-9 0 -18 4.5 q-9 4.5 -16 11 q-7 6.5 -11 15.5 q-4 9 -4 18 l0 135 l-313 0 q-8 0 -17 4 q-9 4 -16.5 10.5 q-7.5 6.5 -11.5 14.5 q-4 8 -4 17 q0 8 4 16 q4 8 11.5 15 q7.5 7 16.5 11 q9 4 17 4 l313 0 l0 105 l-163 0 q-9 0 -18 4 q-9 4 -16.5 10 q-7.5 6 -11.5 14 q-4 8 -4 17 ZM376 654 q-11 0 -21 3.5 q-10 3.5 -19 10 q-9 6.5 -14 15.5 q-8 12 -18 26 q-10 14 -21 27 q-7 10 -8.5 21 q-1.5 11 0.5 21.5 q2 10.5 7.5 19.5 q5.5 9 16.5 13 q11 6 27.5 2.5 q16.5 -3.5 25.5 -13.5 q16 -19 32 -39.5 q16 -20.5 28 -38.5 q5 -8 5.5 -17 q0.5 -9 -2 -18 q-2.5 -9 -8 -16.5 q-5.5 -7.5 -12.5 -11.5 q-9 -5 -19 -5 ZM521 764 q-6 10 -7.5 21 q-1.5 11 0.5 21.5 q2 10.5 8.5 18.5 q6.5 8 15.5 12 q12 6 29 1 q17 -5 25 -17 q14 -19 27 -40.5 q13 -21.5 23 -40.5 q4 -7 4.5 -16 q0.5 -9 -2 -18 q-2.5 -9 -8.5 -15.5 q-6 -6.5 -13 -9.5 q-9 -4 -19.5 -4 q-10.5 0 -20 4 q-9.5 4 -17.5 11.5 q-8 7.5 -13 16.5 q-6 12 -14.5 26.5 q-8.5 14.5 -17.5 28.5 Z" /><glyph glyph-name="" unicode="&#x4e45;" d="M411 800 q3 8 9.5 15.5 q6.5 7.5 14.5 12 q8 4.5 17.5 6.5 q9.5 2 17.5 0 l10 -2 q10 -2 17.5 -9 q7.5 -7 12.5 -15.5 q5 -8.5 6 -18.5 q1 -10 -3 -20 q-15 -41 -32 -81 l196 0 q9 0 18 -4 q1 0 2 -1 q4 5 10 5 q2 0 4.5 0.5 q2.5 0.5 5.5 1.5 l2 0 q4 2 11 1 q7 -1 10 -3 l24 -11 q7 -3 12.5 -9.5 q5.5 -6.5 9 -14 q3.5 -7.5 4.5 -16 q1 -8.5 -1 -15.5 q-33 -123 -85 -227 q6 -6 9 -13 q22 -54 53 -104.5 q31 -50.5 68 -94.5 q37 -44 81 -81.5 q44 -37.5 93 -64.5 q24 -14 28.5 -38.5 q4.5 -24.5 -10.5 -44.5 q-5 -7 -13 -12 q-8 -5 -17 -7 q-9 -2 -18 -1.5 q-9 0.5 -16 5.5 q-57 32 -107 75 q-50 43 -93 95 q-43 52 -78 112 q-20 35 -38 72 q-32 -52 -69 -98 q-69 -86 -151 -151.5 q-82 -65.5 -172 -110.5 q-7 -5 -16 -5 q-9 0 -18 2.5 q-9 2.5 -17 7 q-8 4.5 -13 10.5 q-18 21 -12.5 45.5 q5.5 24.5 30.5 38.5 q85 44 161 104.5 q76 60.5 138 139 q62 78.5 109 174.5 q32 66 55 139 l-237 0 q-17 -32 -35 -62 q-67 -112 -149 -194 q-6 -6 -15 -9 q-9 -3 -19 -3.5 q-10 -0.5 -19 2 q-9 2.5 -16 8.5 l-2 2 q-10 8 -14.5 18.5 q-4.5 10.5 -4.5 22 q0 11.5 4.5 22.5 q4.5 11 13.5 20 q75 73 134 171.5 q59 98.5 99 212.5 Z" /><glyph glyph-name="" unicode="&#x4e48;" d="M305 -22 q-12 -1 -23.5 1.5 q-11.5 2.5 -21.5 8.5 q-2 1 -4 3 q-3 0 -6 1 q-21 6 -29 24 q-3 9 -2 19.5 q1 10.5 5.5 21.5 q4.5 11 12 20 q7.5 9 16.5 16 q8 5 13.5 8.5 q5.5 3.5 13 10 q7.5 6.5 20.5 17.5 q13 11 37 32 q25 20 69.5 64 q44.5 44 99.5 104 q55 60 115.5 133 q60.5 73 115.5 150 q5 7 12.5 12 q7.5 5 16 7.5 q8.5 2.5 17.5 2.5 q9 0 16 -4 l12 -6 q10 -5 16 -13 q6 -8 8.5 -18.5 q2.5 -10.5 1 -21 q-1.5 -10.5 -7.5 -18.5 q-122 -162 -251 -294 q-92 -95 -181 -173 l460 35 q-20 31 -42 62 q-24 34 -48 66 q-6 9 -7.5 20 q-1.5 11 1 21 q2.5 10 8.5 18.5 q6 8.5 15 12.5 l4 2 q13 7 31.5 2 q18.5 -5 28.5 -18 q26 -34 53 -71.5 q27 -37.5 51.5 -74.5 q24.5 -37 46 -73 q21.5 -36 38.5 -67 q3 -8 3 -17 q0 -9 -2.5 -17.5 q-2.5 -8.5 -8 -16 q-5.5 -7.5 -12.5 -11.5 l-7 -4 q-9 -5 -19.5 -5 q-10.5 0 -20.5 4 q-10 4 -18.5 11 q-8.5 7 -12.5 16 q-14 27 -31 56 l-6 -4 q-10 -5 -20 -6 q-142 -12 -240.5 -20 q-98.5 -8 -165.5 -13.5 q-67 -5.5 -107 -9 q-40 -3.5 -64 -6.5 ZM510 799 q8 14 26.5 21.5 q18.5 7.5 34.5 1.5 l8 -2 q10 -4 17 -12 q7 -8 10 -18 q3 -10 1.5 -21 q-1.5 -11 -7.5 -20 q-33 -48 -72 -98 q-39 -50 -82 -97.5 q-43 -47.5 -89 -91.5 q-46 -44 -92 -82 q-6 -5 -15.5 -7 q-9.5 -2 -18.5 -2 q-9 0 -17.5 3 q-8.5 3 -14.5 9 q-8 8 -11.5 18.5 q-3.5 10.5 -3 21.5 q0.5 11 6 21 q5.5 10 14.5 19 q44 34 87 75.5 q43 41.5 82.5 85 q39.5 43.5 74 88.5 q34.5 45 61.5 87 Z" /><glyph glyph-name="" unicode="&#x4e49;" d="M285 707 q7 3 16.5 1 q9.5 -2 18.5 -6.5 q9 -4.5 15.5 -11.5 q6.5 -7 10.5 -15 q45 -111 108 -210 q63 -99 145 -182 l6 -6 l24 26 q82 90 141 195.5 q59 105.5 100 224.5 q3 9 9.5 16 q6.5 7 15.5 12 q9 5 18.5 6.5 q9.5 1.5 18.5 -0.5 l6 -2 q9 -3 16 -9.5 q7 -6.5 11.5 -15 q4.5 -8.5 5.5 -18.5 q1 -10 -2 -19 q-48 -130 -113.5 -245 q-65.5 -115 -154.5 -212 q-12 -13 -24 -25 q49 -41 103 -76 q99 -65 216 -107 q27 -10 34 -33.5 q7 -23.5 -9 -46.5 q-7 -11 -24.5 -17.5 q-17.5 -6.5 -31.5 -1.5 q-129 45 -237 115 q-68 44 -128 96 q-50 -42 -106 -79 q-117 -78 -269 -133 q-15 -6 -33.5 1 q-18.5 7 -25.5 20 q-12 20 -3 41.5 q9 21.5 34 30.5 q137 50 243 121 q47 32 89 66 q-85 90 -153 199 q-69 111 -121 236 q-3 9 -2.5 19 q0.5 10 5 19.5 q4.5 9.5 11.5 16 q7 6.5 16 9.5 ZM521 768 q-4 9 -4 19.5 q0 10.5 3.5 20 q3.5 9.5 10.5 17 q7 7.5 16 10.5 q13 5 31 -3 q18 -8 25 -22 q20 -40 38 -81.5 q18 -41.5 32 -77.5 q3 -8 2.5 -17 q-0.5 -9 -4 -18 q-3.5 -9 -9.5 -16 q-6 -7 -14 -10 q-9 -3 -19 -2.5 q-10 0.5 -19.5 5.5 q-9.5 5 -17 12.5 q-7.5 7.5 -10.5 16.5 q-12 34 -27.5 72.5 q-15.5 38.5 -33.5 73.5 Z" /><glyph glyph-name="" unicode="&#x4e4b;" d="M196 605 q0 9 4 17.5 q4 8.5 11.5 15.5 q7.5 7 16.5 11 q9 4 18 4 l614 0 q9 0 18 -4 q4 4 11 4 q2 0 4 0.5 q2 0.5 4 0.5 q6 1 14.5 -0.5 q8.5 -1.5 13.5 -4.5 l19 -12 q8 -5 13 -13.5 q5 -8.5 7 -18.5 q2 -10 0.5 -20 q-1.5 -10 -6.5 -17 q-49 -67 -111 -135.5 q-62 -68.5 -132 -132 q-70 -63.5 -144 -120.5 q-65 -51 -130 -91 q5 -4 11 -7 q47 -31 111 -39.5 q64 -8.5 147 -8.5 q66 0 141.5 3.5 q75.5 3.5 141.5 8.5 q28 3 43.5 -14.5 q15.5 -17.5 9.5 -42.5 q-4 -15 -19.5 -28 q-15.5 -13 -31.5 -14 q-29 -2 -64 -3 q-35 -1 -72.5 -2.5 q-37.5 -1.5 -76 -2 q-38.5 -0.5 -75.5 -0.5 q-93 0 -156.5 11.5 q-63.5 11.5 -115.5 42.5 q-32 20 -55.5 40 q-23.5 20 -40.5 20 q-17 0 -39 -20.5 q-22 -20.5 -47 -52.5 q-8 -10 -18 -15.5 q-10 -5.5 -20.5 -6 q-10.5 -0.5 -21 4 q-10.5 4.5 -17.5 14.5 l-5 6 q-5 6 -7 14.5 q-2 8.5 -1.5 17.5 q0.5 9 4 17 q3.5 8 8.5 14 q46 44 85.5 71.5 q39.5 27.5 80.5 27.5 q9 0 17 -3 q6 10 18 18 q72 45 144.5 102 q72.5 57 137.5 118.5 q65 61.5 119 124.5 q23 27 42 52 l-573 0 q-9 0 -18 4 q-9 4 -16.5 11 q-7.5 7 -11.5 15.5 q-4 8.5 -4 17.5 ZM535 761 q-5 9 -6.5 19.5 q-1.5 10.5 0.5 20.5 q2 10 8 18.5 q6 8.5 14 12.5 l5 3 q7 3 15.5 3.5 q8.5 0.5 17 -1.5 q8.5 -2 16 -6.5 q7.5 -4.5 11.5 -10.5 q17 -22 33 -45 q16 -23 27 -43 q6 -8 7 -17.5 q1 -9.5 -1 -18.5 q-2 -9 -7.5 -16.5 q-5.5 -7.5 -13.5 -12.5 l-5 -3 q-9 -5 -19 -5.5 q-10 -0.5 -20 2.5 q-10 3 -19 9 q-9 6 -14 15 q-10 17 -23 37.5 q-13 20.5 -26 38.5 Z" /><glyph glyph-name="" unicode="&#x4e4c;" d="M511 807 q4 16 20.5 27 q16.5 11 33.5 9 q11 -1 20 -7 q9 -6 14 -15 q5 -9 6 -20 q1 -11 -5 -21 q-7 -12 -13 -23 q-4 -8 -8 -15 l313 0 q10 0 18.5 -3.5 q8.5 -3.5 16 -10 q7.5 -6.5 11.5 -14 q4 -7.5 4 -15.5 q0 -8 -4 -16 l0 -1 q-4 -42 -8 -74 q-5 -37 -11 -63 q-6 -26 -13.5 -42.5 q-7.5 -16.5 -16.5 -26.5 q-16 -16 -35 -21.5 q-19 -5.5 -43 -7.5 q-17 -1 -41.5 -1 q-24.5 0 -53.5 2 q-16 0 -30.5 10 q-14.5 10 -17.5 21 q-4 21 13 35 q17 14 45 13 q7 -1 12 -1 l33 0 q14 0 21.5 1.5 q7.5 1.5 13.5 8.5 q5 5 10.5 19 q5.5 14 10 37 q4.5 23 7.5 56 q1 4 1 7 l-449 0 q-3 0 -5 -2 q-2 -2 -2 -4 l0 -256 q0 -3 1.5 -4.5 q1.5 -1.5 3.5 -1.5 l596 0 q10 0 19 -4 q6 -3 12 -7 q1 0 2 -1 q8 -5 12.5 -12 q4.5 -7 4.5 -14 q1 -3 1 -5 q0 -4 -1 -7 q-4 -90 -8 -155 q-5 -66 -11.5 -111 q-6.5 -45 -14.5 -71 q-8 -26 -20 -40 q-16 -20 -36 -27.5 q-20 -7.5 -48 -10.5 q-18 -1 -46.5 -1.5 q-28.5 -0.5 -61.5 0.5 q-16 0 -31 11 q-15 11 -19 23 q-6 24 9 40 q15 16 46 15 q10 -1 18 -1 l46 0 q14 -1 23.5 1 q9.5 2 17.5 10 q9 9 15 31.5 q6 22.5 11 65 q5 42.5 9 104.5 q2 35 4 78 l-598 0 q-9 0 -18 4.5 q-9 4.5 -16.5 11.5 q-7.5 7 -11.5 16 q-4 9 -4 19 l0 342 q0 10 4 19 q4 9 11.5 16 q7.5 7 16.5 11 q9 4 18 4 l156 0 q-5 14 0 28 q5 8 10.5 18 q5.5 10 9.5 19 ZM154 159 q0 8 4 15.5 q4 7.5 11.5 14 q7.5 6.5 16.5 10 q9 3.5 18 3.5 l596 0 q10 0 19 -3.5 q9 -3.5 16 -10 q7 -6.5 11.5 -14 q4.5 -7.5 4.5 -15.5 q0 -8 -4.5 -16 q-4.5 -8 -11.5 -14 q-7 -6 -16 -10 q-9 -4 -19 -4 l-596 0 q-9 0 -18 4 q-9 4 -16.5 10 q-7.5 6 -11.5 14 q-4 8 -4 16 Z" /><glyph glyph-name="" unicode="&#x4e4d;" d="M379 803 q3 8 9.5 14.5 q6.5 6.5 14.5 11.5 q8 5 17.5 6.5 q9.5 1.5 17.5 -0.5 l7 -1 q10 -3 17.5 -10 q7.5 -7 12 -16 q4.5 -9 5.5 -19 q1 -10 -3 -19 q-20 -47 -42 -91 l562 0 q10 0 18.5 -4 q8.5 -4 16 -11 q7.5 -7 11.5 -15 q4 -8 4 -18 q0 -9 -4 -17.5 q-4 -8.5 -11.5 -15 q-7.5 -6.5 -16 -11 q-8.5 -4.5 -18.5 -4.5 l-408 0 l0 -129 q5 1 10 1 l339 0 q9 0 18 -4 q9 -4 16 -10.5 q7 -6.5 11 -15 q4 -8.5 4 -17 q0 -8.5 -4 -17 q-4 -8.5 -11 -15.5 q-7 -7 -16 -11 q-9 -4 -18 -4 l-339 0 q-5 0 -10 1 l0 -135 q6 1 11 1 l356 0 q9 0 18 -3.5 q9 -3.5 16 -10.5 q7 -7 11.5 -15.5 q4.5 -8.5 4.5 -17.5 q0 -9 -4.5 -18 q-4.5 -9 -11.5 -15.5 q-7 -6.5 -16 -10.5 q-9 -4 -18 -4 l-356 0 q-5 0 -11 1 l0 -169 q0 -9 -3.5 -18 q-3.5 -9 -10.5 -16 q-7 -7 -15.5 -11.5 q-8.5 -4.5 -18.5 -4.5 l-6 0 q-8 0 -17 4.5 q-9 4.5 -16 11.5 q-7 7 -11 16 q-4 9 -4 18 l0 618 l-92 0 q-6 0 -11 2 q-4 -7 -8 -13 q-57 -93 -119 -165 q-6 -8 -14.5 -12 q-8.5 -4 -18.5 -5 q-10 -1 -19.5 1.5 q-9.5 2.5 -16.5 6.5 q-10 7 -15.5 17 q-5.5 10 -6.5 21 q-1 11 2.5 22.5 q3.5 11.5 10.5 20.5 q60 65 111 149 q51 84 89 175 Z" /><glyph glyph-name="" unicode="&#x4e4e;" d="M884 827 q14 3 29.5 -4.5 q15.5 -7.5 22.5 -18.5 l2 -4 q6 -10 6.5 -21 q0.5 -11 -4 -20.5 q-4.5 -9.5 -13 -16.5 q-8.5 -7 -20.5 -9 q-65 -14 -141 -24 q-52 -7 -106 -13 q2 -6 2 -13 l0 -308 l341 0 q10 0 18.5 -3.5 q8.5 -3.5 15.5 -10.5 q7 -7 11 -16 q4 -9 4 -18 l0 -2 q0 -10 -4 -18.5 q-4 -8.5 -11 -16 q-7 -7.5 -15.5 -11.5 q-8.5 -4 -18.5 -4 l-341 0 l0 -234 q0 -49 -13.5 -73 q-13.5 -24 -46.5 -35 q-28 -11 -71.5 -14 q-43.5 -3 -106.5 -4 q-15 0 -30 10.5 q-15 10.5 -20 24.5 q-9 25 4.5 44.5 q13.5 19.5 43.5 18.5 q37 -1 62 -0.5 q25 0.5 42 0.5 q17 1 24 6.5 q7 5.5 7 21.5 l0 234 l-357 0 q-9 0 -18 4 q-9 4 -16 11.5 q-7 7.5 -11.5 16 q-4.5 8.5 -4.5 18.5 l0 2 q0 9 4.5 18 q4.5 9 11.5 16 q7 7 16 10.5 q9 3.5 18 3.5 l357 0 l0 308 q0 2 1 3 q-57 -4 -114 -7 q-84 -5 -162 -8 q-19 -1 -35 10.5 q-16 11.5 -19 25.5 q-6 20 9.5 36 q15.5 16 40.5 18 q79 3 162 9 q83 6 162 14.5 q79 8.5 151.5 19 q72.5 10.5 130.5 23.5 ZM855 615 q4 9 10.5 17 q6.5 8 16 12.5 q9.5 4.5 19.5 6 q10 1.5 19 -1.5 l2 -1 q10 -2 17.5 -10 q7.5 -8 11 -18 q3.5 -10 3.5 -20.5 q0 -10.5 -5 -20.5 q-19 -36 -39 -73.5 q-20 -37.5 -38 -67.5 q-8 -13 -24.5 -19.5 q-16.5 -6.5 -29.5 -1.5 q-9 3 -15.5 10.5 q-6.5 7.5 -9.5 17 q-3 9.5 -3 20.5 q0 11 4 20 q8 14 16.5 30 q8.5 16 16.5 33 q8 17 15 34 q7 17 13 33 ZM278 564 q-4 10 -4.5 20.5 q-0.5 10.5 3.5 20 q4 9.5 10.5 17 q6.5 7.5 15.5 10.5 q13 6 30.5 -1.5 q17.5 -7.5 24.5 -21.5 q18 -32 34 -67 q16 -35 26 -65 q4 -8 3 -16.5 q-1 -8.5 -4.5 -16.5 q-3.5 -8 -9.5 -14 q-6 -6 -14 -9 q-10 -4 -20 -2.5 q-10 1.5 -19.5 6.5 q-9.5 5 -17 13 q-7.5 8 -11.5 18 q-8 24 -20 52.5 q-12 28.5 -27 55.5 Z" /><glyph glyph-name="" unicode="&#x4e4f;" d="M220 450 q0 9 4 18 q4 9 11 15.5 q7 6.5 16.5 10.5 q9.5 4 18.5 4 l578 0 q9 0 18 -4 q3 -1 5 -3 l2 2 q5 5 12 5 q2 0 4.5 0.5 q2.5 0.5 4.5 0.5 q6 1 15 -0.5 q9 -1.5 15 -5.5 l14 -10 q8 -6 12.5 -15 q4.5 -9 5.5 -19 q1 -10 -1.5 -20 q-2.5 -10 -10.5 -18 q-45 -49 -102 -97.5 q-57 -48.5 -120.5 -93.5 q-63.5 -45 -130.5 -85 q-66 -39 -131 -69 q41 -23 91 -31 q66 -9 157 -9 q69 0 146 3.5 q77 3.5 144 8.5 q29 3 45 -14 q16 -17 9 -43 q-3 -14 -18.5 -27 q-15.5 -13 -31.5 -14 q-30 -2 -66.5 -3.5 q-36.5 -1.5 -75.5 -2.5 q-39 -1 -79 -2 q-40 -1 -78 -1 q-50 0 -90.5 3 q-40.5 3 -75 10 q-34.5 7 -63.5 18.5 q-29 11.5 -55 29.5 q-17 11 -32 23 q-15 12 -27.5 22.5 q-12.5 10.5 -23 17 q-10.5 6.5 -18.5 6.5 q-15 0 -34 -20.5 q-19 -20.5 -41 -54.5 q-12 -25 -33.5 -29 q-21.5 -4 -39.5 19 l-7 9 q-8 12 -8 30 q0 18 9 28 q46 52 84.5 81.5 q38.5 29.5 73.5 29.5 q12 0 24 -5.5 q12 -5.5 25 -15.5 q10 -8 21 -18 q9 18 31 30 q66 31 131 71 q65 40 123 83 q58 43 106 87 l16 16 l-529 0 q-9 0 -18.5 4 q-9.5 4 -16.5 11 q-7 7 -11 16 q-4 9 -4 17 ZM907 827 q10 2 24 -2.5 q14 -4.5 20 -12.5 l9 -10 q9 -10 11 -20.5 q2 -10.5 -1.5 -20 q-3.5 -9.5 -12 -17 q-8.5 -7.5 -22.5 -10.5 q-69 -13 -149.5 -24 q-80.5 -11 -166 -18.5 q-85.5 -7.5 -173 -13 q-87.5 -5.5 -169.5 -7.5 q-18 -1 -34 10 q-16 11 -20 25 q-2 10 1 19.5 q3 9.5 10 17 q7 7.5 17.5 12 q10.5 4.5 23.5 5.5 q83 3 170 9.5 q87 6.5 170 14.5 q83 8 158 19 q75 11 134 24 ZM512 599 q-5 8 -5.5 18 q-0.5 10 2 20 q2.5 10 8.5 18 q6 8 14 12 l2 0 q7 3 16 3 q9 0 17.5 -2 q8.5 -2 16 -7.5 q7.5 -5.5 11.5 -11.5 q13 -16 24 -32.5 q11 -16.5 20 -30.5 q5 -8 5.5 -17.5 q0.5 -9.5 -2 -18 q-2.5 -8.5 -8 -16 q-5.5 -7.5 -13.5 -12.5 q-8 -5 -19 -5.5 q-11 -0.5 -21 3 q-10 3.5 -18.5 10 q-8.5 6.5 -13.5 15.5 q-8 12 -17 26.5 q-9 14.5 -19 27.5 Z" /><glyph glyph-name="" unicode="&#x4e50;" d="M571 589 q0 9 3.5 18 q3.5 9 11 16 q7.5 7 16 11 q8.5 4 17.5 4 l4 0 q10 0 18 -4 q8 -4 15 -11 q7 -7 11 -16 q4 -9 4 -18 l0 -138 l305 0 q9 0 18 -4 q9 -4 16.5 -11 q7.5 -7 11.5 -16 q4 -9 4 -18 l0 -1 q0 -9 -4.5 -18 q-4.5 -9 -11.5 -15.5 q-7 -6.5 -15.5 -11 q-8.5 -4.5 -18.5 -4.5 l-305 0 l0 -316 q0 -43 -10.5 -65.5 q-10.5 -22.5 -38.5 -34.5 q-23 -10 -56 -13 q-33 -3 -83 -5 q-15 0 -30 11.5 q-15 11.5 -19 24.5 q-8 25 6.5 43.5 q14.5 18.5 42.5 18.5 q23 -1 36.5 -0.5 q13.5 0.5 27.5 0.5 q13 1 18.5 5 q5.5 4 5.5 16 l0 315 l-242 0 q-9 0 -16 -1 q-16 0 -31.5 2.5 q-15.5 2.5 -27.5 9.5 q-3 1 -6 3 q-4 0 -8 1 q-10 1 -18 7 q-8 6 -11 16 q-3 8 -2 18 q1 10 3 21 q2 11 5.5 22.5 q3.5 11.5 5.5 20.5 l1 2 l1 1 q1 5 4 18 q2 11 6.5 33 q4.5 22 9.5 51.5 q5 29.5 9 65 q4 35.5 6 71.5 q1 12 6.5 21.5 q5.5 9.5 13.5 16.5 q4 3 8 5 l2 2 q6 7 17 12 q11 5 24 5 q74 2 151.5 6.5 q77.5 4.5 152 11 q74.5 6.5 142.5 15.5 q68 9 121 21 q13 2 28.5 -4.5 q15.5 -6.5 21.5 -17.5 l2 -3 q6 -11 6.5 -22 q0.5 -11 -4 -21 q-4.5 -10 -13 -16.5 q-8.5 -6.5 -21.5 -8.5 q-61 -12 -133 -21 q-72 -9 -148 -15 q-76 -6 -153 -9 q-64 -4 -125 -5 q-6 -68 -20 -138 q-10 -53 -20 -98 l252 0 l0 138 ZM305 245 q9 13 27.5 20.5 q18.5 7.5 32.5 2.5 l1 -1 q10 -3 17.5 -11 q7.5 -8 11 -17.5 q3.5 -9.5 2.5 -20 q-1 -10.5 -8 -20.5 q-31 -49 -68 -97 q-37 -48 -73 -88 q-7 -6 -15.5 -10.5 q-8.5 -4.5 -18 -5.5 q-9.5 -1 -18.5 1 q-9 2 -15 7 q-9 7 -13 16.5 q-4 9.5 -4.5 20.5 q-0.5 11 3.5 22 q4 11 11 20 q35 34 68 76 q33 42 59 85 ZM821 193 q-7 9 -8.5 20 q-1.5 11 1 21 q2.5 10 8.5 18.5 q6 8.5 16 12.5 q13 5 30 0.5 q17 -4.5 25 -14.5 q20 -22 39.5 -46 q19.5 -24 38.5 -47.5 q19 -23.5 36 -46.5 q17 -23 31 -43 q6 -9 6.5 -18.5 q0.5 -9.5 -2 -18.5 q-2.5 -9 -8.5 -16.5 q-6 -7.5 -14 -12.5 l-3 -1 q-8 -4 -18 -4 q-10 0 -19.5 3.5 q-9.5 3.5 -17.5 9.5 q-8 6 -13 14 q-12 19 -27 40 q-15 21 -31.5 43 q-16.5 22 -34 43.5 q-17.5 21.5 -35.5 42.5 Z" /><glyph glyph-name="" unicode="&#x4e58;" d="M548 700 q0 7 3 13 l-104 -6 q-79 -4 -153 -6 q-18 -1 -33.5 10 q-15.5 11 -19.5 24 q-5 18 10.5 33.5 q15.5 15.5 41.5 16.5 q76 3 155 8 q79 5 155.5 11.5 q76.5 6.5 146 14.5 q69.5 8 126.5 18 q13 2 28.5 -5.5 q15.5 -7.5 21.5 -18.5 q5 -11 4.5 -21.5 q-0.5 -10.5 -5.5 -20 q-5 -9.5 -14 -15.5 q-9 -6 -21 -7 q-63 -10 -136 -18 q-53 -6 -108 -11 q1 -1 1 -2 q4 -9 4 -18 l0 -60 l335 0 q10 0 18.5 -4 q8.5 -4 16 -10 q7.5 -6 11.5 -14 q4 -8 4 -16.5 q0 -8.5 -4 -16.5 q-4 -8 -11.5 -14 q-7.5 -6 -16 -10 q-8.5 -4 -18.5 -4 l-335 0 l0 -232 q7 -5 12 -11 q27 -41 63.5 -79 q36.5 -38 79.5 -71.5 q43 -33.5 91 -61 q48 -27.5 99 -47.5 q26 -10 35 -32 q9 -22 -6 -43 q-8 -11 -25.5 -16.5 q-17.5 -5.5 -31.5 0.5 q-57 22 -110 54.5 q-53 32.5 -100 72 q-47 39.5 -88 86.5 q-10 11 -19 22 l0 -227 q0 -10 -4 -18.5 q-4 -8.5 -11 -16 q-7 -7.5 -15.5 -11.5 q-8.5 -4 -17.5 -4 l-6 0 q-9 0 -17.5 4 q-8.5 4 -15.5 11.5 q-7 7.5 -11.5 16 q-4.5 8.5 -4.5 18.5 l0 225 q-8 -10 -17 -20 q-41 -46 -89 -85 q-48 -39 -101.5 -71 q-53.5 -32 -111.5 -54 q-13 -6 -30.5 -0.5 q-17.5 5.5 -25.5 15.5 q-15 21 -6.5 43.5 q8.5 22.5 34.5 32.5 q52 20 100.5 47 q48.5 27 92 60.5 q43.5 33.5 80 71.5 q36.5 38 64.5 79 q4 6 10 11 l0 230 l-334 0 q-10 0 -19 4 q-9 4 -16 10 q-7 6 -11.5 14 q-4.5 8 -4.5 16.5 q0 8.5 4.5 16.5 q4.5 8 11.5 14 q7 6 16 10 q9 4 19 4 l334 0 l0 60 ZM738 478 q0 10 3.5 18.5 q3.5 8.5 10.5 15.5 q7 7 15 11.5 q8 4.5 16 4.5 q8 0 16.5 -4.5 q8.5 -4.5 14.5 -11.5 q6 -7 10 -15.5 q4 -8.5 4 -18.5 l0 -41 q22 9 43 18 q25 10 45 21 q14 6 32.5 3 q18.5 -3 26.5 -14 q7 -8 8 -17.5 q1 -9.5 -2.5 -19 q-3.5 -9.5 -11.5 -17 q-8 -7.5 -20 -11.5 q-24 -10 -52 -19.5 q-28 -9.5 -55 -18.5 q-7 -2 -14 -2 l0 -62 q0 -18 5 -23 q5 -5 24 -5 l81 0 q8 0 10.5 4 q2.5 4 3.5 21 q7 2 14 6.5 q7 4.5 14.5 8.5 q7.5 4 16.5 5.5 q9 1.5 19 -1.5 q5 -3 10 -8.5 q5 -5.5 8 -13 q3 -7.5 3.5 -16 q0.5 -8.5 -2.5 -17.5 q-4 -20 -10 -34 q-6 -14 -15 -22 q-9 -8 -23.5 -11.5 q-14.5 -3.5 -38.5 -3.5 l-104 0 q-32 0 -52.5 5.5 q-20.5 5.5 -32.5 18 q-12 12.5 -16.5 33.5 q-4.5 21 -4.5 53 l0 180 ZM369 475 q0 9 4 18.5 q4 9.5 10.5 16.5 q6.5 7 14.5 11 q8 4 17 4 q8 0 16 -4 q8 -4 14.5 -11 q6.5 -7 10.5 -16.5 q4 -9.5 4 -18.5 l0 -228 q0 -9 -4 -18 q-4 -9 -10.5 -16.5 q-6.5 -7.5 -14.5 -11.5 q-8 -4 -16 -4 q-9 0 -17 4 q-8 4 -14.5 11.5 q-6.5 7.5 -10.5 16.5 q-2 4 -3 9 q-34 -6 -66 -12 q-41 -7 -78 -14 q-17 -3 -34 6.5 q-17 9.5 -20 23.5 q-1 9 1.5 17 q2.5 8 9 15.5 q6.5 7.5 15.5 12 q9 4.5 20 5.5 q34 4 73 11 q38 6 78 12 l0 71 l-127 0 q-19 0 -34.5 12.5 q-15.5 12.5 -15.5 26.5 q0 7 4 14 q4 7 11.5 12.5 q7.5 5.5 16.5 9 q9 3.5 18 3.5 l127 0 l0 11 Z" /><glyph glyph-name="" unicode="&#x4e5d;" d="M437 783 q0 9 4.5 18 q4.5 9 11.5 16 q7 7 15.5 11.5 q8.5 4.5 18.5 4.5 l8 0 q10 0 18 -4.5 q8 -4.5 15 -11.5 q7 -7 11 -16 q4 -9 4 -18 q-1 -88 -3 -173 q-1 -8 -1 -16 l252 0 q9 0 18 -4 q8 -4 15 -11 q7 -7 11 -15 q4 -9 4 -18 l0 -476 q0 -29 5 -37 q5 -8 27 -8 l85 0 q7 0 12 3 q5 3 9 10.5 q4 7.5 6 21.5 q2 14 3 35 q4 30 22 43 q18 13 42 4 q12 -5 21.5 -21 q9.5 -16 7.5 -31 q-4 -45 -11 -75.5 q-7 -30.5 -19.5 -49.5 q-12.5 -19 -32.5 -27 q-20 -8 -51 -8 l-111 0 q-32 0 -54.5 6 q-22.5 6 -36.5 22.5 q-14 16.5 -20 43.5 q-6 27 -6 69 l0 424 l-204 0 q-3 -24 -6 -49 q-9 -79 -28.5 -151.5 q-19.5 -72.5 -53 -137 q-33.5 -64.5 -83.5 -119.5 q-50 -55 -122 -98 q-7 -6 -16.5 -7 q-9.5 -1 -18.5 0.5 q-9 1.5 -17 5.5 q-8 4 -14 10 q-16 19 -11.5 42.5 q4.5 23.5 26.5 38.5 q92 59 142 139 q50 80 74 177 q17 71 24 149 l-203 0 q-9 0 -18 4.5 q-9 4.5 -16 11 q-7 6.5 -11.5 15 q-4.5 8.5 -4.5 17.5 l0 3 q0 9 4.5 17.5 q4.5 8.5 11.5 15.5 q7 7 16 11 q9 4 18 4 l208 0 q3 92 3 189 Z" /><glyph glyph-name="" unicode="&#x4e5f;" d="M140 397 q-3 8 -1.5 17.5 q1.5 9.5 6.5 17.5 q5 8 12 14.5 q7 6.5 17 9.5 l130 41 l0 228 q0 10 4.5 19 q4.5 9 11 16 q6.5 7 15 11.5 q8.5 4.5 17.5 4.5 q10 0 18 -4.5 q8 -4.5 15 -11.5 q7 -7 11 -15.5 q4 -8.5 4 -18.5 l0 -200 l182 57 l0 210 q0 9 4 18 q4 9 11 16.5 q7 7.5 16 11.5 q9 4 17 4 q10 0 18.5 -4 q8.5 -4 15.5 -11.5 q7 -7.5 10.5 -16.5 q3.5 -9 3.5 -18 l0 -180 l188 58 q8 2 16 2 l13 11 l1 1 q7 5 19.5 6 q12.5 1 21.5 -2 l10 -5 q14 -6 24.5 -15 q10.5 -9 9.5 -15 q0 -2 -0.5 -5 q-0.5 -3 -0.5 -6 q-2 -139 -9 -227.5 q-7 -88.5 -23 -132.5 q-14 -40 -34.5 -58 q-20.5 -18 -46.5 -24 q-16 -3 -37 -4.5 q-21 -1.5 -41 -2.5 q-17 0 -32 10 q-15 10 -18 22 q-5 23 6 39 q11 16 33 16 l35 0 q17 0 28.5 8 q11.5 8 21.5 36 q11 36 15 119 q3 56 5 137 l-205 -64 l0 -332 q0 -9 -3.5 -18 q-3.5 -9 -10.5 -16.5 q-7 -7.5 -15.5 -11.5 q-8.5 -4 -18.5 -4 q-8 0 -17 4 q-9 4 -16 11.5 q-7 7.5 -11 16.5 q-4 9 -4 18 l0 302 l-182 -57 l0 -319 q0 -27 4.5 -44 q4.5 -17 16.5 -26.5 q12 -9.5 35 -13 q23 -3.5 59 -3.5 l329 0 q27 0 45 4.5 q18 4.5 30.5 15.5 q12.5 11 20.5 29.5 q8 18.5 13 47.5 q10 25 28 38.5 q18 13.5 40 5.5 q13 -6 23 -22.5 q10 -16.5 7 -32.5 q-8 -49 -18.5 -82.5 q-10.5 -33.5 -32 -54 q-21.5 -20.5 -57 -29.5 q-35.5 -9 -93.5 -9 l-334 0 q-60 0 -101 8 q-41 8 -65.5 28 q-24.5 20 -35 54.5 q-10.5 34.5 -10.5 87.5 l0 287 l-103 -32 q-9 -3 -19 -2 q-10 1 -18.5 5 q-8.5 4 -15 11 q-6.5 7 -8.5 15 Z" /><glyph glyph-name="" unicode="&#x4e60;" d="M212 732 q0 9 4.5 17.5 q4.5 8.5 11.5 15 q7 6.5 16 10.5 q9 4 17 4 l687 0 q10 0 18.5 -4 q8.5 -4 15.5 -10.5 q7 -6.5 11 -14.5 q4 -8 5 -16 l0 -11 q-3 -193 -6 -324.5 q-3 -131.5 -9 -216.5 q-6 -85 -15 -130.5 q-9 -45.5 -25 -66.5 q-19 -29 -41 -41 q-22 -12 -53 -15 q-24 -3 -57.5 -3.5 q-33.5 -0.5 -69.5 0.5 q-17 1 -32.5 12.5 q-15.5 11.5 -19.5 24.5 q-7 23 8 39 q15 16 46 15 l25 0 q10 0 20 -0.5 q10 -0.5 20 -0.5 l20 0 q16 0 25 3.5 q9 3.5 17 13.5 q13 14 21.5 60.5 q8.5 46.5 13.5 133.5 q5 87 8 218 q2 104 4 240 l-637 0 q-8 0 -17 4 q-9 4 -16 11 q-7 7 -11.5 15 q-4.5 8 -4.5 17 ZM213 98 q-2 8 -1.5 18.5 q0.5 10.5 5.5 19 q5 8.5 12.5 15.5 q7.5 7 17.5 10 q48 15 106.5 34 q58.5 19 121.5 40.5 q63 21.5 130 43.5 q67 22 133 46 q11 3 21 2 q10 -1 19.5 -5.5 q9.5 -4.5 16 -12.5 q6.5 -8 8.5 -17 q3 -15 -7.5 -31.5 q-10.5 -16.5 -24.5 -22.5 q-64 -22 -129.5 -45.5 q-65.5 -23.5 -129 -46 q-63.5 -22.5 -123 -43 q-59.5 -20.5 -111.5 -38.5 q-9 -3 -19 -2 q-10 1 -19 5 q-9 4 -16 11 q-7 7 -9 15 l-2 4 ZM370 520 q-9 7 -13.5 16 q-4.5 9 -5.5 19 q-1 10 1.5 20 q2.5 10 9.5 16 q11 10 30 11.5 q19 1.5 32 -8.5 q24 -16 49 -34 q25 -18 49.5 -35.5 q24.5 -17.5 47.5 -35.5 q23 -18 42 -34 q7 -6 11 -15 q4 -9 4.5 -18 q0.5 -9 -2 -18.5 q-2.5 -9.5 -9.5 -15.5 l-1 -2 q-6 -7 -15.5 -10.5 q-9.5 -3.5 -20 -4 q-10.5 -0.5 -20 3 q-9.5 3.5 -17.5 9.5 q-17 16 -37.5 33 q-20.5 17 -43 34 q-22.5 17 -46 35 q-23.5 18 -45.5 34 Z" /><glyph glyph-name="" unicode="&#x4e66;" d="M502 792 q0 9 4 18 q4 9 11 16 q7 7 15.5 11.5 q8.5 4.5 18.5 4.5 l2 0 q10 0 18.5 -4.5 q8.5 -4.5 15.5 -11.5 q7 -7 11 -16 q4 -9 4 -18 l0 -119 l255 0 q10 0 18.5 -4 q8.5 -4 16 -11 q7.5 -7 11.5 -16 q4 -9 4 -18 l0 -221 l96 0 q9 0 18 -3.5 q9 -3.5 16 -10 q7 -6.5 11.5 -14.5 q4.5 -8 4.5 -17 q0 -9 -5 -18 l0 -1 q-5 -62 -10 -108 q-6 -54 -14 -91.5 q-8 -37.5 -17 -60 q-9 -22.5 -21 -34.5 q-18 -20 -39 -27 q-21 -7 -50 -9 q-18 -2 -47 -1.5 q-29 0.5 -64 0.5 q-17 1 -32.5 11.5 q-15.5 10.5 -18.5 23.5 q-7 24 8.5 40 q15.5 16 46.5 15 q12 0 20.5 -0.5 q8.5 -0.5 16.5 -0.5 l33 0 q15 0 25 1.5 q10 1.5 18 8.5 q9 8 16 27.5 q7 19.5 12.5 53 q5.5 33.5 10.5 83.5 q2 19 4 40 l-344 0 l0 -343 q0 -10 -4 -18.5 q-4 -8.5 -11 -16 q-7 -7.5 -15.5 -11.5 q-8.5 -4 -18.5 -4 l-2 0 q-10 0 -18.5 4 q-8.5 4 -15.5 11.5 q-7 7.5 -11 16 q-4 8.5 -4 18.5 l0 343 l-294 0 q-9 0 -18 4 q-9 4 -16 10.5 q-7 6.5 -11 15 q-4 8.5 -4 17.5 q0 9 4 17 q4 8 11 14.5 q7 6.5 16 10 q9 3.5 18 3.5 l294 0 l0 176 l-234 0 q-9 0 -18 4 q-9 4 -16.5 11 q-7.5 7 -11.5 15.5 q-4 8.5 -4 17 q0 8.5 4 17 q4 8.5 11.5 15 q7.5 6.5 16.5 10.5 q9 4 18 4 l234 0 l0 119 ZM602 579 l0 -176 l207 0 l0 170 q0 2 -2 4 q-2 2 -4 2 l-201 0 ZM849 725 q-9 5 -14.5 14.5 q-5.5 9.5 -7.5 19 q-2 9.5 0 19 q2 9.5 8 16.5 q9 10 27 12.5 q18 2.5 30 -5.5 q32 -20 65.5 -43 q33.5 -23 60.5 -43 q7 -5 12 -13.5 q5 -8.5 6.5 -18 q1.5 -9.5 -0.5 -18.5 q-2 -9 -8 -16 q-5 -7 -14 -11 q-9 -4 -19.5 -4.5 q-10.5 -0.5 -20 2 q-9.5 2.5 -17.5 8.5 q-23 19 -51 40.5 q-28 21.5 -57 40.5 Z" /><glyph glyph-name="" unicode="&#x4e70;" d="M606 596 q0 9 4 17.5 q4 8.5 11.5 15.5 q7.5 7 16 11 q8.5 4 17.5 4 l1 0 q9 0 18 -4.5 q9 -4.5 15.5 -12 q6.5 -7.5 10.5 -16.5 q4 -9 3 -18 q-4 -135 -19 -243 l-6 -36 l314 0 q9 0 18 -3.5 q9 -3.5 16 -10 q7 -6.5 11 -15 q4 -8.5 4 -16.5 q0 -9 -4 -17 q-4 -8 -11 -14.5 q-7 -6.5 -16 -10 q-9 -3.5 -18 -3.5 l-340 0 q-13 -34 -31 -64 q-47 -82 -137.5 -141 q-90.5 -59 -245.5 -95 q-16 -4 -33.5 3.5 q-17.5 7.5 -24.5 18.5 q-12 20 -0.5 39.5 q11.5 19.5 38.5 26.5 q89 21 151.5 50.5 q62.5 29.5 105 67.5 q42.5 38 67.5 86 l4 8 l-333 0 q-9 0 -18 3.5 q-9 3.5 -16 10 q-7 6.5 -11 14.5 q-4 8 -4 17 q0 8 4 16.5 q4 8.5 11 15 q7 6.5 16 10 q9 3.5 18 3.5 l365 0 q1 4 2 7 q14 58 19 126.5 q5 68.5 7 148.5 ZM206 739 q0 9 4 17 q4 8 11.5 14.5 q7.5 6.5 16.5 10.5 q9 4 18 4 l660 0 q9 0 18 -4 q2 -1 4 -1 q1 1 2 3 q4 3 10 3 q2 0 4.5 0.5 q2.5 0.5 4.5 1.5 q4 1 11.5 1 q7.5 0 10.5 -2 l15 -5 q9 -3 15.5 -11 q6.5 -8 10 -17 q3.5 -9 3.5 -19.5 q0 -10.5 -3 -18.5 q-21 -43 -43 -84.5 q-22 -41.5 -44 -75.5 q-8 -13 -26 -18 q-18 -5 -30 2 q-9 3 -15 11.5 q-6 8.5 -8 18.5 q-2 10 -0.5 21 q1.5 11 6.5 19 q20 35 40 76 q1 3 3 7 l-649 0 q-9 0 -18 4 q-9 4 -16.5 10.5 q-7.5 6.5 -11.5 14.5 q-4 8 -4 17 ZM684 81 q-11 5 -19 13 q-8 8 -11.5 17.5 q-3.5 9.5 -3 19 q0.5 9.5 6.5 18.5 q8 9 24 13.5 q16 4.5 29 -0.5 q76 -32 149 -69.5 q73 -37.5 130 -72.5 q9 -5 15 -13.5 q6 -8.5 8 -18.5 q2 -10 0 -20.5 q-2 -10.5 -9 -18.5 q-10 -12 -30 -14.5 q-20 -2.5 -34 5.5 q-51 34 -117.5 70.5 q-66.5 36.5 -137.5 70.5 ZM366 557 q-11 5 -18 13.5 q-7 8.5 -10.5 18 q-3.5 9.5 -2 19.5 q1.5 10 7.5 17 q8 10 24 13 q16 3 28 -2 q32 -14 65 -31.5 q33 -17.5 59 -33.5 q9 -5 14 -13 q5 -8 7.5 -17 q2.5 -9 0.5 -18 q-2 -9 -7 -17 q-5 -6 -13.5 -10 q-8.5 -4 -18 -4.5 q-9.5 -0.5 -19 1 q-9.5 1.5 -18.5 6.5 q-20 15 -46 30 q-26 15 -53 28 ZM253 414 q-10 5 -17 14 q-7 9 -10.5 18.5 q-3.5 9.5 -2 19 q1.5 9.5 8.5 16.5 q7 10 23 13 q16 3 28 -2 q30 -12 61 -28 q31 -16 55 -31 q8 -4 13.5 -12 q5.5 -8 8 -17 q2.5 -9 1.5 -18 q-1 -9 -7 -16 q-5 -7 -13.5 -10.5 q-8.5 -3.5 -18 -5 q-9.5 -1.5 -19.5 0.5 q-10 2 -18 7 q-19 13 -43.5 26 q-24.5 13 -49.5 25 Z" /><glyph glyph-name="" unicode="&#x4e71;" d="M134 523 q0 8 4.5 16 q4.5 8 11 14 q6.5 6 16 9.5 q9.5 3.5 17.5 3.5 l173 0 l0 135 q-22 -3 -43 -6 q-47 -5 -91 -10 q-18 -2 -34 6.5 q-16 8.5 -19 19.5 q-6 18 8 35 q14 17 40 20 q44 6 89.5 13 q45.5 7 88.5 15 q43 8 81.5 17.5 q38.5 9.5 69.5 19.5 q11 3 25 -1 q14 -4 22 -11 l3 -4 q10 -9 12.5 -20 q2.5 -11 0 -21.5 q-2.5 -10.5 -10.5 -18 q-8 -7.5 -21 -10.5 q-39 -11 -82 -20 q-22 -4 -45 -8 q1 -5 1 -10 l0 -141 l162 0 q9 0 18 -3.5 q9 -3.5 16 -9.5 q7 -6 11 -14 q4 -8 4 -16 q0 -8 -4 -16 q-4 -8 -11 -14.5 q-7 -6.5 -16 -10 q-9 -3.5 -18 -3.5 l-162 0 l0 -150 l127 0 q10 0 18.5 -4 q8.5 -4 16 -11.5 q7.5 -7.5 11.5 -16 q4 -8.5 4 -17.5 l0 -286 q0 -10 -4 -18.5 q-4 -8.5 -11 -15.5 q-7 -7 -15.5 -11.5 q-8.5 -4.5 -17.5 -4.5 q-9 0 -17.5 4.5 q-8.5 4.5 -15.5 11.5 q-6 6 -10 14 l-264 0 q-1 -3 -3 -6 q-3 -9 -9.5 -16.5 q-6.5 -7.5 -14.5 -11.5 q-8 -4 -17 -4 q-9 0 -17 4 q-8 4 -14.5 11.5 q-6.5 7.5 -10.5 16 q-4 8.5 -4 17.5 l0 295 q0 9 4 17.5 q4 8.5 11.5 16 q7.5 7.5 16.5 11.5 q9 4 18 4 l123 0 l0 150 l-173 0 q-8 0 -17.5 3.5 q-9.5 3.5 -16 10 q-6.5 6.5 -11 14.5 q-4.5 8 -4.5 16 ZM701 781 q0 9 4 18 q4 9 11 16 q7 7 16 11 q9 4 18 4 q9 0 17.5 -4 q8.5 -4 15.5 -11 q7 -7 11 -16 q4 -9 4 -18 l0 -703 q0 -39 7 -49.5 q7 -10.5 31 -10.5 l99 0 q10 0 17 5 q7 5 11.5 17 q4.5 12 7 33 q2.5 21 4.5 52 q2 30 20 43.5 q18 13.5 40 3.5 q12 -5 21 -20.5 q9 -15.5 8 -30.5 q-4 -53 -11 -90.5 q-7 -37.5 -20 -60.5 q-13 -23 -34 -33 q-21 -10 -55 -10 l-122 0 q-35 0 -58.5 7 q-23.5 7 -37 24.5 q-13.5 17.5 -19.5 46.5 q-6 29 -6 74 l0 702 ZM274 61 l258 0 l0 176 q0 2 -1.5 3.5 q-1.5 1.5 -3.5 1.5 l-247 0 q-2 0 -4 -1.5 q-2 -1.5 -2 -4.5 l0 -175 Z" /><glyph glyph-name="" unicode="&#x4e86;" d="M553 444 q0 10 4 18.5 q4 8.5 11 16 q7 7.5 16 11.5 q0 1 1 2 q2 10 9 20 q7 10 17 16 q38 23 76 50.5 q38 27.5 73 55.5 q25 20 47 41 l-562 0 q-9 0 -18 3.5 q-9 3.5 -16 11 q-7 7.5 -11.5 16 q-4.5 8.5 -4.5 17.5 q0 9 4.5 17.5 q4.5 8.5 11.5 15.5 q7 7 16 11 q9 4 18 4 l611 0 q10 0 18 -4 l8 -4 q0 1 1 2 q7 6 16 6 q2 0 5 0.5 q3 0.5 4 1.5 l1 0 q7 1 17 -1 q10 -2 15 -7 l18 -13 q9 -6 13 -15 q4 -9 5 -19.5 q1 -10.5 -1.5 -20.5 q-2.5 -10 -10.5 -17 q-32 -32 -69.5 -64 q-37.5 -32 -77.5 -62.5 q-40 -30.5 -81 -57.5 q-41 -28 -81 -50 l0 -413 q0 -45 -13 -68 q-13 -23 -47 -34 q-27 -10 -69.5 -13 q-42.5 -3 -102.5 -3 q-16 0 -31 10.5 q-15 10.5 -20 24.5 q-9 25 5 43.5 q14 18.5 43 17.5 q38 -1 62 -0.5 q24 0.5 41 0.5 q17 1 23 5.5 q6 4.5 6 18.5 l0 409 Z" /><glyph glyph-name="" unicode="&#x4e88;" d="M556 345 q0 9 4 18 q3 6 7 11 l-367 0 q-9 0 -18 4 q-9 4 -16.5 10.5 q-7.5 6.5 -11.5 15 q-4 8.5 -4 17 q0 8.5 4 17 q4 8.5 11.5 15 q7.5 6.5 16.5 10.5 q9 4 18 4 l440 0 q-28 13 -58 27 q-35 16 -70.5 32 q-35.5 16 -70.5 30 q-10 4 -18 12 q-8 8 -11.5 17.5 q-3.5 9.5 -2.5 20 q1 10.5 7 18.5 q7 10 23 15 q16 5 29 1 q33 -14 70.5 -29 q37.5 -15 73.5 -31 l1 0 q2 5 6 10 q6 9 16 16 q27 18 54.5 37.5 q27.5 19.5 52.5 40.5 q10 8 19 16 l-466 0 q-8 0 -17.5 3.5 q-9.5 3.5 -16.5 10 q-7 6.5 -11 14.5 q-4 8 -4 17 q0 9 4 17 q4 8 11 14 q7 6 16.5 10 q9.5 4 17.5 4 l524 0 q9 0 18 -4 q1 0 2 -1 q6 5 14 5 l5 0 q2 0 4 1 q7 1 16.5 -0.5 q9.5 -1.5 15.5 -6.5 l12 -9 q8 -7 12.5 -16.5 q4.5 -9.5 5 -20 q0.5 -10.5 -3 -20 q-3.5 -9.5 -11.5 -16.5 q-25 -23 -53 -46.5 q-28 -23.5 -58 -46 q-30 -22.5 -60 -42.5 q-19 -13 -37 -25 q24 -11 46 -21 q10 -3 17 -11 q7 -8 10.5 -18 q3.5 -10 2.5 -20 l0 -5 l150 0 q10 0 19 -4 q1 0 1 -1 q1 1 2 1 q4 4 10 4 q2 0 4.5 0.5 q2.5 0.5 4.5 1.5 q5 2 12.5 2 q7.5 0 12.5 -3 l21 -9 q8 -3 15 -10.5 q7 -7.5 10 -17 q3 -9.5 3.5 -19 q0.5 -9.5 -4.5 -17.5 q-29 -48 -60.5 -94 q-31.5 -46 -62.5 -83 q-4 -6 -12 -10 q-8 -4 -16.5 -6 q-8.5 -2 -17 -1 q-8.5 1 -15.5 5 l-2 1 q-8 5 -13.5 13.5 q-5.5 8.5 -7.5 18.5 q-2 10 -1 20.5 q1 10.5 7 19.5 q28 36 56 80 q4 7 9 15 l-255 0 q4 -5 6 -12 q4 -9 4 -18 l0 -317 q0 -40 -11.5 -62 q-11.5 -22 -43.5 -32 q-24 -9 -61 -11.5 q-37 -2.5 -88 -3.5 q-16 -1 -30.5 9.5 q-14.5 10.5 -19.5 23.5 q-9 24 5 42 q14 18 42 17 q30 -1 48 -0.5 q18 0.5 33 0.5 q15 1 20 5 q5 4 5 15 l0 315 Z" /><glyph glyph-name="" unicode="&#x4e89;" d="M544 488 q0 6 2 12 l-212 0 q-10 0 -19 4 q-9 4 -16 10 q-7 6 -12 13 q-3 6 -3 12 q-7 -6 -14 -11 q-15 -11 -34.5 -9.5 q-19.5 1.5 -29.5 12.5 q-16 16 -11.5 39 q4.5 23 26.5 40 q66 47 115 101 q49 54 82 105 q7 11 23 18.5 q16 7.5 29 4.5 l6 -1 q13 -2 21.5 -9.5 q8.5 -7.5 13 -17 q4.5 -9.5 3.5 -20.5 q-1 -11 -9 -22 q-2 -3 -5 -7 l209 0 q10 0 19 -3 q8 -4 15 -9 q1 4 5 7 q6 5 13 5 q2 0 4.5 0.5 q2.5 0.5 4.5 0.5 q4 1 13 -1 q9 -2 14 -6 l13 -9 q8 -5 12.5 -14 q4.5 -9 6.5 -18.5 q2 -9.5 0 -19 q-2 -9.5 -8 -17.5 q-26 -34 -57 -68 q-11 -12 -23 -24 l142 0 q10 0 18.5 -4 q8.5 -4 15.5 -11 q7 -7 11 -16 q4 -9 4 -19 l0 -126 l84 0 q9 0 18 -4 q9 -4 16 -10 q7 -6 11 -14 q4 -8 4 -16 q0 -8 -4 -16.5 q-4 -8.5 -11 -15 q-7 -6.5 -16 -10 q-9 -3.5 -18 -3.5 l-84 0 l0 -134 q0 -10 -4 -19 q-4 -9 -10.5 -16.5 q-6.5 -7.5 -15 -11.5 q-8.5 -4 -17.5 -4 q-9 0 -17 4 l-1 -1 q-8 -3 -18 -3 l-205 0 l0 -109 q0 -41 -11 -62.5 q-11 -21.5 -41 -32.5 q-25 -9 -60 -12 q-35 -3 -87 -4 q-15 0 -29.5 10.5 q-14.5 10.5 -19.5 21.5 q-9 24 5.5 42 q14.5 18 43.5 17 l44 0 q16 0 30 1 q14 1 19.5 5 q5.5 4 5.5 16 l0 107 l-250 0 q-9 0 -18 3.5 q-9 3.5 -16.5 10 q-7.5 6.5 -11.5 14.5 q-4 8 -4 16.5 q0 8.5 4 16.5 q4 8 11.5 14 q7.5 6 16.5 10 q9 4 18 4 l250 0 l0 96 l-356 0 q-9 0 -18 3.5 q-9 3.5 -16.5 10 q-7.5 6.5 -11.5 15 q-4 8.5 -4 16.5 q0 8 4 16 q4 8 11.5 14 q7.5 6 16.5 10 q9 4 18 4 l356 0 l0 78 ZM633 586 q1 5 3 10 q5 11 13 20 q26 28 50 61 l0 1 l-210 0 q-15 0 -26 5 q-9 5 -14 14 q-22 -26 -46 -52 q-28 -30 -60 -59 l290 0 ZM837 321 l-193 0 l0 -96 l193 0 l0 96 ZM644 410 l193 0 l0 84 q0 2 -2 4 q-2 2 -4 2 l-189 0 q2 -6 2 -13 l0 -77 Z" /><glyph glyph-name="" unicode="&#x4e8b;" d="M547 795 q0 10 4 18.5 q4 8.5 11 16 q7 7.5 15.5 11.5 q8.5 4 17.5 4 l3 0 q9 0 17.5 -4 q8.5 -4 15.5 -11.5 q7 -7.5 11 -16 q4 -8.5 4 -18.5 l0 -23 l342 0 q19 0 34.5 -12 q15.5 -12 15.5 -26 q0 -16 -15.5 -28 q-15.5 -12 -34.5 -12 l-342 0 l0 -50 l242 0 q10 0 19 -4 q9 -4 16 -11.5 q7 -7.5 11.5 -16.5 q4.5 -9 4.5 -18 l0 -88 q0 -9 -4.5 -18.5 q-4.5 -9.5 -11.5 -16.5 q-7 -7 -16 -11 q-9 -4 -19 -4 l-242 0 l0 -58 l259 0 q10 0 19 -4 q9 -4 16 -11.5 q7 -7.5 11 -16.5 q4 -9 4 -18 l0 -74 l56 0 q18 0 33 -12 q15 -12 15 -26 q0 -14 -15 -26 q-15 -12 -33 -12 l-56 0 l0 -127 q0 -9 -4 -18 q-4 -9 -11 -16.5 q-7 -7.5 -15.5 -11.5 q-8.5 -4 -17.5 -4 l-2 0 q-9 0 -18 4 q-9 4 -16 11.5 q-7 7.5 -11 16.5 q-2 6 -3 12 l-211 0 l0 -50 q0 -41 -11.5 -59.5 q-11.5 -18.5 -37.5 -28.5 q-22 -9 -54 -11 q-32 -2 -80 -3 q-14 -1 -28.5 7.5 q-14.5 8.5 -18.5 18.5 q-8 20 7.5 35.5 q15.5 15.5 44.5 15.5 q20 -1 31 -0.5 q11 0.5 23 0.5 q14 1 19.5 6 q5.5 5 5.5 19 l0 50 l-264 0 q-20 0 -35.5 11 q-15.5 11 -15.5 25 q0 14 15.5 25 q15.5 11 35.5 11 l264 0 l0 61 l-355 0 q-18 0 -33.5 12 q-15.5 12 -15.5 26 q0 14 15.5 26 q15.5 12 33.5 12 l355 0 l0 56 l-256 0 q-19 0 -34.5 10.5 q-15.5 10.5 -15.5 23.5 q0 13 15.5 23.5 q15.5 10.5 33.5 10.5 l257 0 l0 58 l-229 0 q-10 0 -19 4 q-9 4 -16 11 q-7 7 -11 16.5 q-4 9.5 -4 18.5 l0 88 q0 9 4 18 q4 9 11 16.5 q7 7.5 16 11.5 q9 4 19 4 l229 0 l0 50 l-333 0 q-19 0 -34.5 12 q-15.5 12 -15.5 28 q0 14 15.5 26 q15.5 12 34.5 12 l333 0 l0 23 ZM646 198 l0 -61 l210 0 l0 61 l-210 0 ZM646 330 l0 -56 l210 0 l0 50 q0 2 -1.5 4 q-1.5 2 -4.5 2 l-204 0 ZM646 580 l0 -60 l187 0 q2 0 4 2 q2 2 2 4 l0 48 q0 2 -2 4 q-2 2 -4 2 l-187 0 ZM367 580 q-2 0 -4 -2 q-2 -2 -2 -4 l0 -48 q0 -2 2 -4 q2 -2 4 -2 l180 0 l0 60 l-180 0 Z" /><glyph glyph-name="" unicode="&#x4e8c;" d="M155 69 q0 10 4.5 18 q4.5 8 11.5 15.5 q7 7.5 16 11.5 q9 4 18 4 l792 0 q9 0 17.5 -4 q8.5 -4 16 -11.5 q7.5 -7.5 11.5 -15.5 q4 -8 4 -18 l0 -14 q0 -9 -4 -17.5 q-4 -8.5 -11.5 -15.5 q-7.5 -7 -16 -11 q-8.5 -4 -17.5 -4 l-792 0 q-9 0 -18 4 q-9 4 -16 11 q-7 7 -11.5 15.5 q-4.5 8.5 -4.5 17.5 l0 14 ZM240 656 q0 9 4 17.5 q4 8.5 11 15.5 q7 7 16 11 q9 4 18 4 l624 0 q9 0 18 -4 q9 -4 16 -11 q7 -7 11 -15.5 q4 -8.5 4 -17.5 l0 -9 q0 -10 -4 -18.5 q-4 -8.5 -11 -15.5 q-7 -7 -16 -11 q-9 -4 -18 -4 l-624 0 q-9 0 -18 4 q-9 4 -16 11 q-7 7 -11 15.5 q-4 8.5 -4 18.5 l0 9 Z" /><glyph glyph-name="" unicode="&#x4e8e;" d="M153 403 q0 9 4 17.5 q4 8.5 11 15.5 q7 7 16 11 q9 4 18 4 l356 0 l0 229 l-288 0 q-8 0 -17 4.5 q-9 4.5 -16.5 11.5 q-7.5 7 -11.5 15.5 q-4 8.5 -4 17.5 q0 9 4 17.5 q4 8.5 11.5 15.5 q7.5 7 16.5 11 q9 4 17 4 l660 0 q9 0 18 -4 q9 -4 16 -11 q7 -7 11 -15.5 q4 -8.5 4 -17.5 q0 -9 -4 -17.5 q-4 -8.5 -11 -15.5 q-7 -7 -16 -11.5 q-9 -4.5 -18 -4.5 l-268 0 l0 -229 l337 0 q10 0 18.5 -4 q8.5 -4 15.5 -11 q7 -7 11 -15.5 q4 -8.5 4 -17.5 q0 -9 -4 -18 q-4 -9 -11 -16 q-7 -7 -15.5 -11 q-8.5 -4 -18.5 -4 l-337 0 l0 -307 q0 -48 -13.5 -72.5 q-13.5 -24.5 -45.5 -36.5 q-28 -10 -70 -13 q-42 -3 -104 -5 q-15 0 -30 11.5 q-15 11.5 -20 24.5 q-10 26 3.5 45.5 q13.5 19.5 42.5 19.5 q37 -1 61 -1 q24 0 42 1 q17 1 23.5 6.5 q6.5 5.5 6.5 20.5 l0 306 l-356 0 q-9 0 -18 4 q-9 4 -16 11 q-7 7 -11 16 q-4 9 -4 18 Z" /><glyph glyph-name="" unicode="&#x4e91;" d="M152 443 q0 9 4 17.5 q4 8.5 11 15.5 q7 7 15.5 11 q8.5 4 17.5 4 l800 0 q9 0 18 -4 q9 -4 16 -11 q7 -7 11 -15.5 q4 -8.5 4 -17.5 l0 -4 q0 -9 -4 -18 q-4 -9 -11 -16 q-7 -7 -16 -11 q-9 -4 -18 -4 l-423 0 q-1 -8 -6 -16 q-58 -102 -125 -195 q-39 -55 -78 -102 l452 32 q-16 24 -33 48 q-23 35 -46 67 q-5 9 -7 19 q-2 10 1 20.5 q3 10.5 8.5 19 q5.5 8.5 14.5 12.5 l6 4 q13 6 32 1.5 q19 -4.5 28 -16.5 q24 -34 49.5 -70 q25.5 -36 49.5 -71.5 q24 -35.5 46 -69.5 q22 -34 39 -64 q5 -8 5.5 -17.5 q0.5 -9.5 -1.5 -19 q-2 -9.5 -7 -17.5 q-5 -8 -13 -12 l-9 -5 q-9 -6 -19 -6.5 q-10 -0.5 -20 3 q-10 3.5 -18.5 9.5 q-8.5 6 -14.5 15 q-16 29 -36 62 l0 1 q-1 -1 -2 -1 q-10 -6 -22 -6 q-133 -12 -227 -19.5 q-94 -7.5 -157.5 -13 q-63.5 -5.5 -102 -9.5 q-38.5 -4 -62.5 -8 q-12 -1 -23.5 1.5 q-11.5 2.5 -20.5 8.5 q-7 4 -11 10 q-9 2 -16 9 q-9 7 -13 18 q-3 9 -1.5 19.5 q1.5 10.5 5.5 21.5 q4 11 11 21 q7 10 15 17 q3 3 4 4.5 q1 1.5 3.5 4 q2.5 2.5 7.5 9.5 q5 7 17 22 q11 13 31.5 42 q20.5 29 45.5 68 q25 39 52 85 q18 32 34 64 l-243 0 q-9 0 -17.5 4 q-8.5 4 -15.5 11 q-7 7 -11 16 q-4 9 -4 18 l0 4 ZM263 723 q0 10 4.5 18.5 q4.5 8.5 11.5 15.5 q7 7 16 11 q9 4 18 4 l583 0 q10 0 18.5 -4 q8.5 -4 15.5 -11 q7 -7 11.5 -15.5 q4.5 -8.5 4.5 -18.5 l0 -2 q0 -10 -4.5 -18.5 q-4.5 -8.5 -11.5 -15.5 q-7 -7 -15.5 -11 q-8.5 -4 -18.5 -4 l-583 0 q-9 0 -18 4 q-9 4 -16 11 q-7 7 -11.5 15.5 q-4.5 8.5 -4.5 18.5 l0 2 Z" /><glyph glyph-name="" unicode="&#x4e92;" d="M181 749 q0 9 4 17.5 q4 8.5 11.5 15 q7.5 6.5 16.5 10.5 q9 4 18 4 l745 0 q9 0 18.5 -4 q9.5 -4 16.5 -10.5 q7 -6.5 11 -15 q4 -8.5 4 -17.5 q0 -9 -4 -17 q-4 -8 -11 -15 q-7 -7 -16.5 -11 q-9.5 -4 -18.5 -4 l-488 0 q4 -7 7 -15 q2 -10 1 -21 q-11 -53 -21 -110 l292 0 q9 0 18 -4 q0 1 1 1 q2 3 5 3 q2 0 4 0.5 q2 0.5 4 0.5 l7 2 q2 0 5 0.5 q3 0.5 5 -0.5 l21 -2 q9 0 17 -5.5 q8 -5.5 14 -13.5 q6 -8 9.5 -17 q3.5 -9 2.5 -18 l-13 -104 q-7 -56 -14.5 -115 q-7.5 -59 -16.5 -117.5 q-9 -58.5 -17 -112.5 q-1 -6 -4 -13 l192 0 q9 0 17.5 -4 q8.5 -4 16 -10.5 q7.5 -6.5 11.5 -15 q4 -8.5 4 -17.5 q0 -9 -4 -17.5 q-4 -8.5 -11.5 -15.5 q-7.5 -7 -16 -11 q-8.5 -4 -17.5 -4 l-808 0 q-9 0 -18 4 q-9 4 -16 11 q-7 7 -11 15.5 q-4 8.5 -4 17.5 q0 9 4 17.5 q4 8.5 11 15 q7 6.5 16 10.5 q9 4 18 4 l526 0 l-4 10 q-3 10 -1 21 q9 55 17 115 l-329 0 q-10 0 -19 3 q-4 2 -7 4 q-12 -7 -24 -7 l-10 0 q-12 0 -21.5 5 q-9.5 5 -16 13.5 q-6.5 8.5 -8.5 19.5 q-2 11 1 22 q11 47 23.5 101 q12.5 54 24 111 q11.5 57 22.5 114.5 q11 57.5 20 109.5 q2 10 9 19 l-171 0 q-9 0 -18 4 q-9 4 -16.5 11 q-7.5 7 -11.5 15 q-4 8 -4 17 ZM775 465 l-318 0 q-4 -16 -7 -32 q-12 -58 -23 -112 q-5 -23 -10 -43 l318 0 q8 0 15 -3 q3 26 7 51 q9 63 15 119 q2 10 3 20 Z" /><glyph glyph-name="" unicode="&#x4e94;" d="M216 702 q0 10 4 18.5 q4 8.5 11 15.5 q7 7 16 10.5 q9 3.5 18 3.5 l666 0 q9 0 18 -3.5 q9 -3.5 16 -10.5 q7 -7 11 -15.5 q4 -8.5 4 -18.5 q0 -8 -4 -17 q-4 -9 -11 -16 q-7 -7 -16 -11 q-9 -4 -18 -4 l-329 0 q-11 -74 -24 -154 l-6 -40 l194 0 q8 0 16 -3 q2 3 5 3 q1 0 3.5 0.5 q2.5 0.5 4.5 0.5 l8 2 q2 0 5 0.5 q3 0.5 5 0.5 l23 -2 q10 -1 18 -6 q8 -5 14.5 -12 q6.5 -7 10 -16 q3.5 -9 3.5 -18 q-3 -42 -7 -88 q-4 -46 -8.5 -93.5 q-4.5 -47.5 -9.5 -94.5 q-4 -36 -8 -71 l150 0 q10 0 18.5 -4 q8.5 -4 15.5 -11 q7 -7 11 -15.5 q4 -8.5 4 -17.5 q0 -9 -4 -17.5 q-4 -8.5 -11 -15.5 q-7 -7 -15.5 -11.5 q-8.5 -4.5 -18.5 -4.5 l-795 0 q-9 0 -17.5 4.5 q-8.5 4.5 -16 11.5 q-7.5 7 -11.5 15.5 q-4 8.5 -4 17.5 q0 9 4 17.5 q4 8.5 11.5 15.5 q7.5 7 16 11 q8.5 4 17.5 4 l190 0 l0 1 q14 63 28 138 q14 75 27 156 q1 3 1 6 l-129 0 q-9 0 -18 4 q-9 4 -16.5 11 q-7.5 7 -11.5 16 q-4 9 -4 17.5 q0 8.5 4 17.5 q4 9 11.5 15.5 q7.5 6.5 16.5 10.5 q9 4 18 4 l144 0 q5 29 9 59 q11 70 20 135 l-229 0 q-9 0 -18 4 q-9 4 -16 11 q-7 7 -11 16 q-4 9 -4 17 ZM746 63 q5 47 10 96 q6 53 10 104.5 q4 51.5 8 99.5 l0 2 q-4 -1 -8 -1 l-210 0 q-2 -14 -5 -28 q-14 -81 -27 -157 q-11 -63 -22 -116 l244 0 Z" /><glyph glyph-name="" unicode="&#x4e9a;" d="M138 17 q0 8 4.5 16.5 q4.5 8.5 11.5 15 q7 6.5 16 10.5 q9 4 17 4 l232 0 l0 627 l-200 0 q-8 0 -17.5 4.5 q-9.5 4.5 -16.5 11 q-7 6.5 -11 15.5 q-4 9 -4 18 q0 9 4 17.5 q4 8.5 11 15.5 q7 7 16.5 11 q9.5 4 17.5 4 l766 0 q10 0 18.5 -4 q8.5 -4 16 -11 q7.5 -7 11.5 -15.5 q4 -8.5 4 -17.5 q0 -9 -4 -18 q-4 -9 -11.5 -15.5 q-7.5 -6.5 -16 -11 q-8.5 -4.5 -18.5 -4.5 l-216 0 l0 -627 l242 0 q9 0 17.5 -4 q8.5 -4 16 -10.5 q7.5 -6.5 11.5 -15 q4 -8.5 4 -17 q0 -8.5 -4 -17 q-4 -8.5 -11.5 -15 q-7.5 -6.5 -16 -11 q-8.5 -4.5 -17.5 -4.5 l-824 0 q-8 0 -17 4.5 q-9 4.5 -16 11 q-7 6.5 -11.5 15 q-4.5 8.5 -4.5 17.5 ZM663 63 l0 627 l-138 0 l0 -627 l138 0 ZM193 489 q-3 9 -2.5 18.5 q0.5 9.5 4 18.5 q3.5 9 10 16 q6.5 7 14.5 9 q8 3 17 2 q9 -1 17.5 -5 q8.5 -4 15.5 -10.5 q7 -6.5 10 -14.5 q15 -31 29.5 -64.5 q14.5 -33.5 28 -67 q13.5 -33.5 25.5 -64.5 q12 -31 21 -59 q3 -7 2 -16 q-1 -9 -5 -17 q-4 -8 -9.5 -14.5 q-5.5 -6.5 -13.5 -9.5 l-3 -2 q-10 -4 -20 -3 q-10 1 -19.5 6 q-9.5 5 -16.5 13 q-7 8 -11 19 q-8 27 -19 57 q-11 30 -23 62 q-12 32 -25.5 64 q-13.5 32 -26.5 62 ZM908 515 q2 10 9 18 q7 8 16 13 q9 5 19 7 q10 2 20 -2 q8 -3 15 -9.5 q7 -6.5 11 -15 q4 -8.5 5.5 -18 q1.5 -9.5 -1.5 -17.5 q-13 -32 -26.5 -66 q-13.5 -34 -28 -66 q-14.5 -32 -29 -63 q-14.5 -31 -29.5 -59 q-3 -8 -9.5 -14 q-6.5 -6 -15 -9.5 q-8.5 -3.5 -17 -4.5 q-8.5 -1 -16.5 2 q-9 2 -15.5 9.5 q-6.5 7.5 -10 16.5 q-3.5 9 -4 19.5 q-0.5 10.5 3.5 19.5 q13 26 27 56 q14 30 27.5 60.5 q13.5 30.5 25.5 62 q12 31.5 23 60.5 Z" /><glyph glyph-name="" unicode="&#x4e9b;" d="M143 342 q-1 9 2 18.5 q3 9.5 9.5 17 q6.5 7.5 15.5 12.5 q9 5 18 6 q8 1 16 1 l-2 4 q-4 9 -4 19 l0 269 q0 9 3.5 18 q3.5 9 10.5 16 q7 7 15 11.5 q8 4.5 17 4.5 q8 0 16 -4.5 q8 -4.5 14.5 -11.5 q6.5 -7 10 -15.5 q3.5 -8.5 3.5 -18.5 l0 -271 q0 -6 -2 -12 q35 4 72 8 q4 0 8 1 q-4 9 -4 18 l0 362 q0 9 3.5 18 q3.5 9 11 16 q7.5 7 16 11.5 q8.5 4.5 17.5 4.5 q9 0 17.5 -4.5 q8.5 -4.5 15.5 -11 q7 -6.5 11 -16 q4 -9.5 4 -17.5 l0 -113 l90 0 q9 0 18.5 -3.5 q9.5 -3.5 16 -9.5 q6.5 -6 11 -14 q4.5 -8 4.5 -16 q0 -8 -4.5 -16.5 q-4.5 -8.5 -11 -14.5 q-6.5 -6 -16 -9.5 q-9.5 -3.5 -18.5 -3.5 l-90 0 l0 -163 q0 -4 -1 -8 q47 5 95 11 q9 1 19 -2.5 q10 -3.5 18 -9.5 q8 -6 13 -14 q5 -8 5 -18 q0 -15 -13.5 -29.5 q-13.5 -14.5 -30.5 -16.5 q-97 -12 -192.5 -24 q-95.5 -12 -173.5 -21 q-9 -1 -18.5 2 q-9.5 3 -17 8.5 q-7.5 5.5 -13 13.5 q-5.5 8 -5.5 17 ZM644 795 q0 9 4 18 q4 9 11 16 q7 7 16 11.5 q9 4.5 17 4.5 l2 0 q9 0 17.5 -4.5 q8.5 -4.5 15.5 -11.5 q7 -7 11 -16 q4 -9 4 -18 l0 -138 l36 14 q24 9 48 19 q24 10 46 20.5 q22 10.5 40 20.5 q12 6 30 3.5 q18 -2.5 28 -12.5 l2 -3 q9 -9 12 -20 q3 -11 1 -21 q-2 -10 -9.5 -18.5 q-7.5 -8.5 -18.5 -13.5 q-48 -21 -102 -40.5 q-54 -19.5 -107 -35.5 q-3 -1 -6 -1 l0 -108 q0 -28 8 -35.5 q8 -7.5 40 -7.5 l132 0 q7 0 13 1.5 q6 1.5 9.5 7 q3.5 5.5 6.5 15 q3 9.5 4 25.5 q11 8 19 18 q8 10 16 18 q8 8 16 12.5 q8 4.5 20 -0.5 q12 -5 21 -21 q9 -16 6 -31 q-6 -40 -13 -66.5 q-7 -26.5 -20.5 -42 q-13.5 -15.5 -35 -22 q-21.5 -6.5 -54.5 -6.5 l-152 0 q-40 0 -66 6.5 q-26 6.5 -41 22 q-15 15.5 -21 41.5 q-6 26 -6 65 l0 334 ZM151 -13 q0 10 4.5 18 q4.5 8 11.5 15 q7 7 16 11 q9 4 18 4 l799 0 q9 0 18 -4 q9 -4 16 -11 q7 -7 11.5 -15 q4.5 -8 4.5 -17.5 q0 -9.5 -4.5 -18.5 q-4.5 -9 -11.5 -16 q-7 -7 -16 -11 q-9 -4 -18 -4 l-799 0 q-9 0 -18 4 q-9 4 -16 11 q-7 7 -11.5 16 q-4.5 9 -4.5 18 ZM266 202 q0 9 4 17.5 q4 8.5 11 15 q7 6.5 16 10.5 q9 4 19 4 l579 0 q9 0 18 -4 q9 -4 16.5 -10.5 q7.5 -6.5 11.5 -15 q4 -8.5 4 -17.5 q0 -9 -4 -17 q-4 -8 -11.5 -15 q-7.5 -7 -16.5 -11 q-9 -4 -18 -4 l-579 0 q-10 0 -19 4 q-9 4 -16 11 q-7 7 -11 15 q-4 8 -4 17 Z" /><glyph glyph-name="" unicode="&#x4ea4;" d="M723 384 q8 16 26.5 25 q18.5 9 34.5 5 l4 -2 q10 -2 17.5 -9.5 q7.5 -7.5 11 -16.5 q3.5 -9 4 -19.5 q0.5 -10.5 -5.5 -19.5 q-41 -85 -99 -152 q-19 -23 -40 -43 q124 -88 304 -128 q29 -7 39 -28 q10 -21 -4 -45 q-7 -12 -23 -19 q-16 -7 -30 -4 q-103 22 -189 59 q-86 37 -155 89 l-16 12 q-8 -6 -15 -11 q-72 -51 -158.5 -88.5 q-86.5 -37.5 -184.5 -64.5 q-15 -3 -32.5 3.5 q-17.5 6.5 -25.5 18.5 q-7 11 -7.5 22.5 q-0.5 11.5 3.5 21.5 q4 10 13.5 17.5 q9.5 7.5 22.5 10.5 q91 23 168.5 55.5 q77.5 32.5 141.5 76.5 l3 3 q-20 20 -37 42 q-55 66 -95 148 q-4 10 -4.5 20 q-0.5 10 2.5 19.5 q3 9.5 10 16.5 q7 7 17 9 q7 2 15.5 1 q8.5 -1 16.5 -5.5 q8 -4.5 15 -10.5 q7 -6 11 -14 q46 -95 120 -167 q20 20 38 41 q50 59 83 131 ZM163 665 q0 9 4 17.5 q4 8.5 11 15 q7 6.5 16 10.5 q9 4 18 4 l365 0 q-3 3 -7 6 q-7 7 -11 16 q-5 9 -10.5 19 q-5.5 10 -12.5 19 q-5 9 -5 20.5 q0 11.5 3.5 21 q3.5 9.5 10.5 17.5 q7 8 17 11 l4 1 q13 5 31 -1 q18 -6 25 -19 q9 -14 17.5 -29 q8.5 -15 15.5 -29 q5 -8 4.5 -17 q-0.5 -9 -4 -17.5 q-3.5 -8.5 -9.5 -15.5 l-3 -3 l344 0 q9 0 18 -4 q9 -4 16 -10.5 q7 -6.5 11 -15 q4 -8.5 4 -17.5 q0 -9 -4 -17.5 q-4 -8.5 -11 -15.5 q-7 -7 -16 -11 q-9 -4 -18 -4 l-775 0 q-9 0 -18 4 q-9 4 -16 11 q-7 7 -11 15.5 q-4 8.5 -4 17.5 ZM759 505 q-10 8 -15 18 q-5 10 -5 21 q0 11 4 20.5 q4 9.5 14 16.5 q10 7 27 7.5 q17 0.5 26 -6.5 q26 -18 52 -37.5 q26 -19.5 51.5 -40 q25.5 -20.5 48.5 -41 q23 -20.5 43 -39.5 q7 -6 10 -15.5 q3 -9.5 3 -19.5 q0 -10 -4.5 -19 q-4.5 -9 -12.5 -15 l-3 -3 q-15 -11 -36.5 -8.5 q-21.5 2.5 -34.5 15.5 q-15 17 -35 35.5 q-20 18.5 -42 37.5 q-22 19 -45 37.5 q-23 18.5 -46 35.5 ZM384 571 q9 9 26 14 q17 5 29 0 l5 -2 q11 -4 18 -12.5 q7 -8.5 9 -19 q2 -10.5 -0.5 -21 q-2.5 -10.5 -11.5 -18.5 q-41 -46 -90.5 -87.5 q-49.5 -41.5 -96.5 -75.5 q-13 -8 -31.5 -6.5 q-18.5 1.5 -28.5 10.5 q-18 18 -14.5 42.5 q3.5 24.5 26.5 39.5 q44 29 86 64 q42 35 74 72 Z" /><glyph glyph-name="" unicode="&#x4ea6;" d="M158 632 q0 9 4 17.5 q4 8.5 11 15.5 q7 7 16.5 11 q9.5 4 18.5 4 l785 0 q9 0 18 -4 q9 -4 16 -11 q7 -7 11.5 -15.5 q4.5 -8.5 4.5 -17.5 q0 -9 -4.5 -17.5 q-4.5 -8.5 -11.5 -15.5 q-7 -7 -16 -11 q-9 -4 -18 -4 l-210 0 l2 -2 q3 -9 3 -19 l0 -528 q0 -42 -10 -65 q-10 -23 -38 -34 q-23 -10 -56 -13 q-33 -3 -80 -5 q-17 0 -32 11.5 q-15 11.5 -20 24.5 q-7 24 7.5 43 q14.5 19 42.5 18 l64 0 q12 1 17 5 q5 4 5 16 l0 528 q0 9 4 18 q1 1 1 2 l-149 0 q3 -8 3 -15 l0 -93 q0 -61 -6.5 -130 q-6.5 -69 -28.5 -139 q-22 -70 -65 -138 q-43 -68 -115 -128 q-7 -6 -16.5 -8.5 q-9.5 -2.5 -19 -2.5 q-9.5 0 -18 3.5 q-8.5 3.5 -14.5 10.5 q-16 16 -14 40 q2 24 20 41 q61 53 96 108.5 q35 55.5 53.5 113.5 q18.5 58 23.5 116 q5 58 5 114 l0 92 q0 8 3 15 l-243 0 q-9 0 -18.5 4 q-9.5 4 -16.5 11 q-7 7 -11 15.5 q-4 8.5 -4 17.5 ZM844 406 q-5 9 -5.5 19.5 q-0.5 10.5 2.5 20 q3 9.5 9.5 17.5 q6.5 8 15.5 12 q7 3 15 2.5 q8 -0.5 16.5 -3.5 q8.5 -3 15 -8 q6.5 -5 10.5 -11 q18 -31 35.5 -63 q17.5 -32 33 -64 q15.5 -32 28.5 -63.5 q13 -31.5 22 -57.5 q5 -14 -3 -31 q-8 -17 -22 -23 l-2 -2 q-10 -4 -21 -3.5 q-11 0.5 -21 5.5 q-10 5 -17.5 13.5 q-7.5 8.5 -11.5 18.5 q-8 25 -19.5 52 q-11.5 27 -24.5 55.5 q-13 28.5 -27 57.5 q-14 29 -29 56 ZM263 441 q3 9 9 16.5 q6 7.5 14 13 q8 5.5 17.5 8 q9.5 2.5 18.5 -0.5 l2 0 q10 -2 17.5 -8 q7.5 -6 12.5 -14 q5 -8 6.5 -18 q1.5 -10 -1.5 -20 q-19 -63 -45 -122 q-26 -59 -56 -106 q-5 -8 -13 -13 q-8 -5 -17.5 -7 q-9.5 -2 -18.5 -1 q-9 1 -16 6 q-9 5 -14 14.5 q-5 9.5 -6.5 20.5 q-1.5 11 0 22 q1.5 11 7.5 21 q26 40 47 88 q21 48 36 100 ZM537 771 q-5 10 -5 20.5 q0 10.5 4 20 q4 9.5 11.5 17.5 q7.5 8 17.5 11 l4 2 q13 4 30.5 -2.5 q17.5 -6.5 24.5 -20.5 q11 -15 21.5 -32 q10.5 -17 17.5 -31 q4 -9 4 -19 q0 -10 -3.5 -19 q-3.5 -9 -10 -16 q-6.5 -7 -16.5 -11 l-3 -1 q-9 -2 -19.5 -1.5 q-10.5 0.5 -19.5 4.5 q-9 4 -16.5 11 q-7.5 7 -10.5 16 q-6 11 -14 25 q-8 14 -17 26 Z" /><glyph glyph-name="" unicode="&#x4ea7;" d="M217 418 q0 10 4.5 18.5 q4.5 8.5 11.5 16 q7 7.5 15.5 11.5 q8.5 4 17.5 4 l5 0 q10 0 18 -4 q4 -2 7 -5 q4 3 9 5 q9 4 18 4 l402 0 q-1 2 -1 5 q-3 9 -2.5 20 q0.5 11 4.5 21 q10 15 19.5 35 q9.5 20 17.5 38 q3 8 10 15 q7 7 16.5 11.5 q9.5 4.5 19 5.5 q9.5 1 18.5 -2 l1 0 q12 -4 19.5 -11.5 q7.5 -7.5 10.5 -18 q3 -10.5 1.5 -21.5 q-1.5 -11 -8.5 -21 l-26 -44 q-10 -18 -20 -33 l178 0 q9 0 18 -4 q9 -4 16 -11 q7 -7 11 -15 q4 -8 4 -18 q0 -9 -4 -17.5 q-4 -8.5 -11 -15.5 q-7 -7 -16 -11 q-9 -4 -18 -4 l-663 0 l0 -44 q0 -40 -3.5 -86.5 q-3.5 -46.5 -11.5 -95.5 q-8 -49 -23 -97 q-15 -48 -39 -92 q-5 -10 -14 -16 q-9 -6 -19 -7.5 q-10 -1.5 -20.5 1 q-10.5 2.5 -18.5 9.5 q-7 6 -11.5 15.5 q-4.5 9.5 -6 20.5 q-1.5 11 0 22 q1.5 11 5.5 21 q20 37 31.5 75 q11.5 38 17.5 76.5 q6 38.5 7.5 77.5 q1.5 39 1.5 78 l0 88 ZM206 687 q0 8 4.5 16.5 q4.5 8.5 11.5 15 q7 6.5 16 10.5 q9 4 18 4 l312 0 q-1 2 -3 5 q-4 8 -10.5 18 q-6.5 10 -13.5 19 q-4 9 -3.5 19 q0.5 10 5 19 q4.5 9 13 15.5 q8.5 6.5 20.5 9.5 l10 2 q10 3 24.5 -2 q14.5 -5 20.5 -15 q9 -11 17.5 -24 q8.5 -13 14.5 -23 q5 -9 4.5 -18 q-0.5 -9 -4.5 -18 q-1 -4 -3 -7 l299 0 q10 0 18.5 -4 q8.5 -4 15.5 -10.5 q7 -6.5 11.5 -15 q4.5 -8.5 4.5 -17 q0 -8.5 -4.5 -16.5 q-4.5 -8 -11.5 -15 q-7 -7 -15.5 -11 q-8.5 -4 -18.5 -4 l-703 0 q-9 0 -18 4 q-9 4 -16 11 q-7 7 -11.5 15 q-4.5 8 -4.5 17 ZM386 554 q-6 10 -7 21 q-1 11 2 21 q3 10 10 18 q7 8 17 12 q12 5 28.5 0 q16.5 -5 24.5 -16 q12 -16 23.5 -34 q11.5 -18 20.5 -34 q5 -7 5 -16.5 q0 -9.5 -3 -18 q-3 -8.5 -8.5 -15.5 q-5.5 -7 -13.5 -11 l-1 0 q-8 -3 -18.5 -3 q-10.5 0 -20 3.5 q-9.5 3.5 -17.5 10 q-8 6.5 -13 15.5 q-5 10 -13 23 q-8 13 -16 24 Z" /><glyph glyph-name="" unicode="&#x4eab;" d="M151 144 q0 9 4 16.5 q4 7.5 11 13.5 q7 6 16 9 q9 3 18 3 l346 0 l0 2 q0 9 4.5 18 q4.5 9 11.5 16 q7 7 15 12 q3 1 7 2 q12 15 36 23 q31 8 62 19 q14 4 27 9 l-412 0 q-19 0 -34.5 12 q-15.5 12 -15.5 27 q0 14 15.5 26 q15.5 12 34.5 12 l515 0 q16 0 30 -9 q2 3 6 5 q6 5 15 5 l5 0 q3 0 4 1 q7 1 16.5 -1.5 q9.5 -2.5 15.5 -7.5 q8 -8 12 -18.5 q4 -10.5 2.5 -21 q-1.5 -10.5 -8 -19 q-6.5 -8.5 -18.5 -14.5 q-29 -14 -61.5 -27.5 q-32.5 -13.5 -66.5 -25 q-34 -11.5 -70 -21.5 q-23 -7 -45 -13 q1 -5 1 -10 l0 -1 l351 0 q9 0 18 -3 q9 -3 16 -9 q7 -6 11 -13.5 q4 -7.5 4 -16.5 q0 -7 -4 -14.5 q-4 -7.5 -11 -13.5 q-7 -6 -16 -10 q-9 -4 -18 -4 l-351 0 l0 -93 q0 -38 -12.5 -56.5 q-12.5 -18.5 -44.5 -27.5 q-25 -7 -63 -8.5 q-38 -1.5 -91 -2.5 q-14 0 -28 8.5 q-14 8.5 -18 18.5 q-8 21 7 36.5 q15 15.5 44 14.5 l47 0 q18 0 31 1 q14 1 19 4.5 q5 3.5 5 14.5 l0 90 l-346 0 q-9 0 -18 4 q-9 4 -16 10 q-7 6 -11 13.5 q-4 7.5 -4 14.5 ZM284 577 q0 9 4.5 18 q4.5 9 11.5 16 q7 7 16 11 q9 4 19 4 l537 0 q10 0 19 -4 q9 -4 16 -11 q7 -7 11 -16 q4 -9 4 -18 l0 -113 q0 -9 -4 -18 q-4 -9 -11 -16 q-7 -7 -16 -11 q-9 -4 -19 -4 l-537 0 q-10 0 -19 4 q-9 4 -16 11 q-7 7 -11.5 16 q-4.5 9 -4.5 18 l0 113 ZM163 723 q0 8 4.5 15.5 q4.5 7.5 11.5 13 q7 5.5 16 9 q9 3.5 18 3.5 l336 0 l-2 4 l-10 18 q-5 19 7 37 q12 18 33 22 l8 1 q13 3 29 -5.5 q16 -8.5 21 -22.5 q7 -11 12.5 -22.5 q5.5 -11.5 10.5 -21.5 q1 -5 1 -10 l326 0 q10 0 19 -3.5 q9 -3.5 16 -9 q7 -5.5 11 -13 q4 -7.5 4 -15.5 q0 -16 -15.5 -29 q-15.5 -13 -34.5 -13 l-772 0 q-19 0 -34.5 13 q-15.5 13 -15.5 29 ZM387 557 q-2 0 -4 -2 q-2 -2 -2 -5 l0 -59 q0 -3 2 -5 q2 -2 4 -2 l426 0 q2 0 4 2 q2 2 2 5 l0 59 q0 3 -2 5 q-2 2 -4 2 l-426 0 Z" /><glyph glyph-name="" unicode="&#x4eac;" d="M279 516 q0 9 4.5 18 q4.5 9 11.5 16 q7 7 16 11 q9 4 18 4 l550 0 q10 0 18.5 -4 q8.5 -4 16 -11 q7.5 -7 11.5 -16 q4 -9 4 -18 l0 -206 q0 -9 -4 -18 q-4 -9 -11.5 -16 q-7.5 -7 -16 -11 q-8.5 -4 -18.5 -4 l-229 0 q1 -2 2 -3 q4 -9 4 -18 l0 -219 q0 -40 -10.5 -61.5 q-10.5 -21.5 -40.5 -32.5 q-23 -8 -58 -10.5 q-35 -2.5 -85 -2.5 q-15 -1 -29.5 9.5 q-14.5 10.5 -18.5 23.5 q-8 23 7 41 q15 18 42 17 l40 0 q14 0 27 1 q13 0 17.5 3.5 q4.5 3.5 4.5 13.5 l0 217 q0 9 5 18 q0 1 1 3 l-229 0 q-9 0 -18 4 q-9 4 -16 11 q-7 7 -11.5 16 q-4.5 9 -4.5 18 l0 206 ZM161 679 q0 9 4 17.5 q4 8.5 11 15 q7 6.5 16 10.5 q9 4 18 4 l351 0 q-5 10 -12 22 q-7 13 -15 25 q-5 10 -4.5 20.5 q0.5 10.5 4 19.5 q3.5 9 11 16.5 q7.5 7.5 17.5 10.5 l7 2 q13 5 30 -2 q17 -7 24 -20 q10 -14 19.5 -29.5 q9.5 -15.5 16.5 -29.5 q4 -8 4 -18 q0 -9 -2 -17 l330 0 q8 0 17.5 -4 q9.5 -4 16 -10.5 q6.5 -6.5 11 -15 q4.5 -8.5 4.5 -17.5 q0 -9 -4.5 -18 q-4.5 -9 -11 -16 q-6.5 -7 -16 -11 q-9.5 -4 -17.5 -4 l-781 0 q-9 0 -18 4 q-9 4 -16 11 q-7 7 -11 16 q-4 9 -4 18 ZM382 480 q-2 0 -4 -2 q-2 -2 -2 -4 l0 -122 q0 -2 2 -4 q2 -2 4 -2 l438 0 q2 0 4 2 q2 2 2 4 l0 122 q0 2 -2 4 q-2 2 -4 2 l-438 0 ZM813 113 q-7 8 -9.5 18.5 q-2.5 10.5 -1 21 q1.5 10.5 6.5 19.5 q5 9 14 14 q12 7 30.5 4.5 q18.5 -2.5 28.5 -13.5 q17 -17 34 -35.5 q17 -18.5 33.5 -36.5 q16.5 -18 31.5 -35.5 q15 -17.5 28 -33.5 q5 -7 7 -16 q2 -9 0.5 -18.5 q-1.5 -9.5 -6 -18 q-4.5 -8.5 -11.5 -13.5 l-4 -1 q-8 -6 -18 -7.5 q-10 -1.5 -20 1 q-10 2.5 -19.5 8 q-9.5 5.5 -15.5 13.5 q-10 14 -23 30 q-13 16 -27 33 q-14 17 -29 34 q-15 17 -30 32 ZM300 170 q9 13 27 19.5 q18 6.5 32 1.5 l2 -1 q10 -4 17 -12 q7 -8 10.5 -18 q3.5 -10 1.5 -20.5 q-2 -10.5 -9 -20.5 q-28 -37 -61 -74.5 q-33 -37.5 -68 -68.5 q-6 -7 -14.5 -10.5 q-8.5 -3.5 -18 -4 q-9.5 -0.5 -18 1.5 q-8.5 2 -14.5 8 q-7 6 -10.5 15.5 q-3.5 9.5 -3 19.5 q0.5 10 5 20.5 q4.5 10.5 12.5 19.5 q31 28 59.5 60.5 q28.5 32.5 49.5 63.5 Z" /><glyph glyph-name="" unicode="&#x4eae;" d="M295 579 q0 10 4.5 18.5 q4.5 8.5 11.5 16 q7 7.5 16 11.5 q9 4 18 4 l515 0 q10 0 18.5 -4 q8.5 -4 16 -11.5 q7.5 -7.5 11.5 -16 q4 -8.5 4 -18.5 l0 -105 q0 -8 -4 -17.5 q-4 -9.5 -11.5 -16.5 q-7.5 -7 -16 -11 q-8.5 -4 -18.5 -4 l-515 0 q-9 0 -18 4 q-9 4 -16 11 q-7 7 -11.5 16.5 q-4.5 9.5 -4.5 17.5 l0 105 ZM387 194 q3 18 18 32.5 q15 14.5 33 14.5 l4 0 q7 0 14 -2 q8 2 16 2 l248 0 q9 0 17 -3 q7 3 15 3 l7 0 q9 0 17.5 -4 q8.5 -4 15.5 -11.5 q7 -7.5 11 -16.5 q4 -9 4 -19 l0 -143 q0 -20 6 -25 q6 -5 27 -5 l85 0 q4 0 7 1 q3 1 5 5 q2 4 3 11 q1 7 1 19 q11 3 20 11 q9 8 17 16 q8 8 16.5 13 q8.5 5 19.5 1 q12 -4 21 -20 q9 -16 6 -32 q-5 -33 -11.5 -54 q-6.5 -21 -18 -33.5 q-11.5 -12.5 -29.5 -17.5 q-18 -5 -46 -5 l-112 0 q-37 0 -60 5.5 q-23 5.5 -36.5 19 q-13.5 13.5 -19 35.5 q-5.5 22 -5.5 55 l0 113 l-218 0 q-6 -37 -16 -67 q-13 -42 -40.5 -74 q-27.5 -32 -71.5 -54.5 q-44 -22.5 -111 -38.5 q-15 -5 -32.5 2.5 q-17.5 7.5 -23.5 18.5 q-13 21 -1.5 40 q11.5 19 40.5 28 q43 12 72 27.5 q29 15.5 46.5 36.5 q17.5 21 26.5 49.5 q9 28.5 13 65.5 ZM168 324 q0 9 4.5 17.5 q4.5 8.5 11.5 16 q7 7.5 16 11.5 q9 4 18 4 l762 0 q10 0 19 -4 q9 -4 16 -11 q7 -7 11 -16 q4 -9 4 -18 l0 -81 q0 -9 -4 -18 q-4 -9 -11 -16 q-7 -7 -15.5 -11 q-8.5 -4 -17.5 -4 q-9 0 -17.5 4 q-8.5 4 -15.5 11 q-7 7 -11.5 16 q-4.5 9 -4.5 18 l0 48 q0 2 -2 4 q-2 2 -4 2 l-660 0 q-2 0 -4 -2 q-2 -2 -2 -4 l0 -49 q0 -9 -4 -18 q-4 -9 -10.5 -16 q-6.5 -7 -14.5 -11.5 q-8 -4.5 -17 -4.5 q-9 0 -17.5 4.5 q-8.5 4.5 -14.5 11.5 q-6 7 -10.5 16 q-4.5 9 -4.5 18 l0 82 ZM154 719 q0 16 15.5 28 q15.5 12 33.5 12 l357 0 l0 1 q-4 7 -9 15.5 q-5 8.5 -10 17.5 q-6 15 6.5 31 q12.5 16 33.5 21 l9 1 q12 4 26.5 -2 q14.5 -6 19.5 -16 q6 -9 11.5 -18 q5.5 -9 9.5 -17 q4 -7 2.5 -15.5 q-1.5 -8.5 -6.5 -16.5 q0 -1 -1 -2 l343 0 q19 0 34.5 -12 q15.5 -12 15.5 -28 q0 -8 -4.5 -15 q-4.5 -7 -11.5 -13 q-7 -6 -16 -9.5 q-9 -3.5 -18 -3.5 l-792 0 q-9 0 -18 3.5 q-9 3.5 -16 9.5 q-7 6 -11 13 q-4 7 -4 15 ZM398 563 q-2 0 -4 -2 q-2 -2 -2 -4 l0 -60 q0 -2 2 -3.5 q2 -1.5 4 -1.5 l404 0 q2 0 3.5 1.5 q1.5 1.5 1.5 3.5 l0 60 q0 2 -1.5 4 q-1.5 2 -3.5 2 l-404 0 Z" /><glyph glyph-name="" unicode="&#x4eb2;" d="M368 565 q-4 10 -3.5 21 q0.5 11 4.5 20 q4 9 12 16 q8 7 18 10 q12 3 28.5 -4.5 q16.5 -7.5 21.5 -19.5 q11 -17 21 -36 q10 -19 16 -35 q3 -9 2.5 -18 q-0.5 -9 -4.5 -17 q-3 -6 -7 -10 l223 0 l0 2 q0 11 4 21 q11 17 22.5 37.5 q11.5 20.5 20.5 37.5 q3 9 9 16 q6 7 14 12.5 q8 5.5 16.5 7.5 q8.5 2 16.5 1 q11 -3 19 -9.5 q8 -6.5 12.5 -15.5 q4.5 -9 5 -20.5 q0.5 -11.5 -4.5 -21.5 q-11 -22 -25 -45 q-7 -12 -13 -23 l186 0 q9 0 18 -4 q9 -4 16 -10 q7 -6 11.5 -13.5 q4.5 -7.5 4.5 -15.5 q0 -8 -4.5 -16 q-4.5 -8 -11.5 -13.5 q-7 -5.5 -16 -9.5 q-9 -4 -18 -4 l-341 0 q5 -6 8 -13 q4 -9 4 -18 l0 -60 l314 0 q9 0 18 -3.5 q9 -3.5 16 -9.5 q7 -6 11.5 -13.5 q4.5 -7.5 4.5 -16 q0 -8.5 -4.5 -16 q-4.5 -7.5 -11.5 -13.5 q-7 -6 -16 -10 q-9 -4 -18 -4 l-314 0 l0 -210 q0 -37 -9.5 -57 q-9.5 -20 -35.5 -31 q-20 -8 -49 -10.5 q-29 -2.5 -69 -4.5 q-16 0 -30.5 10 q-14.5 10 -18.5 22 q-7 22 7.5 39 q14.5 17 42.5 16 l24 0 q7 0 19 1 q11 0 15 3.5 q4 3.5 4 13.5 l0 208 l-313 0 q-9 0 -18 4 q-9 4 -16 10 q-7 6 -11.5 13.5 q-4.5 7.5 -4.5 16 q0 8.5 4.5 16 q4.5 7.5 11.5 13.5 q7 6 16 9.5 q9 3.5 18 3.5 l313 0 l0 60 q0 9 4 18 q3 7 8 13 l-349 0 q-9 0 -18 4 q-9 4 -16 9.5 q-7 5.5 -11.5 13.5 q-4.5 8 -4.5 16 q0 8 4.5 15.5 q4.5 7.5 11.5 13.5 q7 6 16 10 q9 4 18 4 l192 0 q-3 2 -5 5 q-7 7 -11 16 q-4 12 -10.5 25.5 q-6.5 13.5 -14.5 26.5 ZM224 685 q0 8 4.5 15.5 q4.5 7.5 11 13 q6.5 5.5 16 9 q9.5 3.5 17.5 3.5 l286 0 q-1 3 -2 5 q-4 10 -10.5 21 q-6.5 11 -13.5 22 q-3 9 -2 19.5 q1 10.5 6 19 q5 8.5 13 15.5 q8 7 18 9 l7 1 q14 4 30 -4 q16 -8 22 -21 q8 -15 17 -31 q9 -16 15 -30 q3 -8 1 -17 q0 -5 -2 -9 l282 0 q9 0 18 -3.5 q9 -3.5 15.5 -9 q6.5 -5.5 11 -13 q4.5 -7.5 4.5 -15.5 q0 -8 -4.5 -15 q-4.5 -7 -11 -13.5 q-6.5 -6.5 -15.5 -9.5 q-9 -3 -18 -3 l-667 0 q-8 0 -17.5 3 q-9.5 3 -16 9.5 q-6.5 6.5 -11 13.5 q-4.5 7 -4.5 15 ZM780 113 q-8 9 -11 19 q-3 10 -2 21 q1 11 6.5 20 q5.5 9 14.5 15 q12 6 29 3.5 q17 -2.5 28 -11.5 q17 -16 34.5 -33 q17.5 -17 33.5 -34 q16 -17 30.5 -34 q14.5 -17 27.5 -32 q6 -7 7.5 -16.5 q1.5 -9.5 0 -18.5 q-1.5 -9 -6.5 -17.5 q-5 -8.5 -13 -13.5 l-3 -1 q-8 -5 -17.5 -6.5 q-9.5 -1.5 -19.5 1 q-10 2.5 -19 7.5 q-9 5 -15 13 q-10 13 -22 28 q-12 15 -26 30 q-14 15 -28.5 30 q-14.5 15 -28.5 30 ZM332 165 q9 13 26.5 20.5 q17.5 7.5 31.5 2.5 l2 0 q11 -3 18 -10.5 q7 -7.5 10.5 -17 q3.5 -9.5 2.5 -20 q-1 -10.5 -7 -20.5 q-26 -39 -57 -75 q-31 -36 -63 -65 q-12 -11 -31 -12 q-19 -1 -30 7 q-19 15 -18 38.5 q1 23.5 20 42.5 q28 23 52 51 q24 28 43 58 Z" /><glyph glyph-name="" unicode="&#x4eba;" d="M538 794 q0 9 4 18 q4 9 11 15.5 q7 6.5 16 11 q9 4.5 17 4.5 l15 0 q9 0 17.5 -4.5 q8.5 -4.5 15.5 -12 q7 -7.5 11 -17 q4 -9.5 3 -18.5 q-1 -48 -6 -110 q2 -5 3 -11 q4 -32 13 -79.5 q9 -47.5 25.5 -104 q16.5 -56.5 42.5 -118 q26 -61.5 65 -120.5 q39 -59 92.5 -113 q53.5 -54 123.5 -94 q23 -15 28 -38.5 q5 -23.5 -10 -42.5 q-6 -7 -14 -11.5 q-8 -4.5 -17.5 -7 q-9.5 -2.5 -19 -2 q-9.5 0.5 -16.5 5.5 q-80 45 -140 105 q-60 60 -103 127 q-43 67 -72 137 q-26 62 -43 120 q-8 -30 -18 -60 q-26 -80 -69.5 -157.5 q-43.5 -77.5 -106 -147.5 q-62.5 -70 -151.5 -126 q-7 -5 -16 -6.5 q-9 -1.5 -19 0 q-10 1.5 -18.5 5.5 q-8.5 4 -14.5 10 q-17 19 -14.5 43 q2.5 24 25.5 40 q79 51 135 115 q56 64 94 133.5 q38 69.5 59.5 142 q21.5 72.5 33 140 q11.5 67.5 14.5 126.5 q3 59 4 102 Z" /><glyph glyph-name="" unicode="&#x4ebf;" d="M488 704 q0 9 4.5 17 q4.5 8 11.5 15 q7 7 16 10.5 q9 3.5 19 3.5 l355 0 q10 0 19 -4 q4 -1 7 -3 q2 2 5 3 q8 4 13 4 q1 0 4 0.5 q3 0.5 5 0.5 l8 2 q4 1 10 -0.5 q6 -1.5 9 -3.5 l30 -15 l20 -18 l-5 -6 l-5 -5 q-107 -121 -182 -210 q-75 -89 -125 -152 q-50 -63 -79 -104.5 q-29 -41.5 -44 -68.5 q-15 -27 -18.5 -42.5 q-3.5 -15.5 -3.5 -27.5 q0 -29 24 -41 q24 -12 68 -12 l237 0 q15 0 26.5 4.5 q11.5 4.5 19 18 q7.5 13.5 12 37.5 q4.5 24 6.5 61 q4 27 21 41.5 q17 14.5 39 7.5 q12 -4 21.5 -20 q9.5 -16 7.5 -32 q-6 -66 -16 -108 q-10 -42 -27.5 -65 q-17.5 -23 -46 -31.5 q-28.5 -8.5 -70.5 -8.5 l-226 0 q-50 0 -87 10 q-37 10 -61 28 q-24 18 -35 43 q-11 25 -11 56 q0 18 3.5 38 q3.5 20 17.5 50.5 q14 30.5 42.5 75 q28.5 44.5 78.5 110.5 q50 66 125 157 q50 62 115 138 l-307 0 q-10 0 -19 4 q-9 4 -16 10.5 q-7 6.5 -11.5 14.5 q-4.5 8 -4.5 17 ZM346 798 q3 8 10 14.5 q7 6.5 15.5 11 q8.5 4.5 17.5 6 q9 1.5 18 -1.5 q9 -3 16 -9.5 q7 -6.5 11 -16 q4 -9.5 5 -19.5 q1 -10 -3 -19 q-33 -78 -74 -152 l0 -645 q0 -10 -4 -18.5 q-4 -8.5 -10.5 -16 q-6.5 -7.5 -15 -11.5 q-8.5 -4 -17.5 -4 q-9 0 -17.5 4 q-8.5 4 -15.5 11.5 q-7 7.5 -11 16 q-4 8.5 -4 18.5 l0 497 q-21 -29 -43 -56 q-8 -10 -18.5 -14.5 q-10.5 -4.5 -21 -3 q-10.5 1.5 -20 8 q-9.5 6.5 -15.5 18.5 q-1 1 -1.5 2 q-0.5 1 -1.5 2 q-8 13 -5.5 32.5 q2.5 19.5 12.5 31.5 q57 62 107 143.5 q50 81.5 86 169.5 Z" /><glyph glyph-name="" unicode="&#x4ec0;" d="M429 458 q0 9 4 18 q4 9 11 15.5 q7 6.5 16 10.5 q9 4 18 4 l220 0 l0 276 q0 10 4 18.5 q4 8.5 11 16 q7 7.5 15.5 11.5 q8.5 4 17.5 4 l6 0 q9 0 17.5 -4 q8.5 -4 15.5 -11.5 q7 -7.5 11 -16 q4 -8.5 4 -18.5 l0 -276 l210 0 q9 0 17.5 -4 q8.5 -4 15.5 -10.5 q7 -6.5 11 -15.5 q4 -9 4 -18 q0 -9 -4 -17.5 q-4 -8.5 -11 -15.5 q-7 -7 -15.5 -11 q-8.5 -4 -17.5 -4 l-210 0 l0 -445 q0 -9 -4 -18 q-4 -9 -11 -16 q-7 -7 -15.5 -11.5 q-8.5 -4.5 -17.5 -4.5 l-6 0 q-9 0 -17.5 4.5 q-8.5 4.5 -15.5 11.5 q-7 7 -11 16 q-4 9 -4 18 l0 445 l-220 0 q-9 0 -18 4 q-9 4 -16 11 q-7 7 -11 15.5 q-4 8.5 -4 17.5 ZM356 797 q4 8 11 14.5 q7 6.5 15.5 11 q8.5 4.5 17.5 6 q9 1.5 17 -1.5 q9 -3 16 -9.5 q7 -6.5 11 -15.5 q4 -9 5 -19.5 q1 -10.5 -3 -19.5 q-33 -78 -74 -151 l0 -645 q0 -10 -4 -19 q-4 -9 -10.5 -16 q-6.5 -7 -15 -11 q-8.5 -4 -18.5 -4 q-8 0 -17 4 q-9 4 -16 11 q-7 7 -10.5 16 q-3.5 9 -3.5 18 l0 497 q-23 -32 -48 -61 q-8 -10 -18 -14 q-10 -4 -20.5 -3 q-10.5 1 -20 7.5 q-9.5 6.5 -16.5 17.5 q-1 1 -1 2.5 q0 1.5 -1 2.5 q-8 13 -6 32 q2 19 13 31 q57 64 108.5 146.5 q51.5 82.5 88.5 172.5 Z" /><glyph glyph-name="" unicode="&#x4ec5;" d="M469 692 q0 8 4 16.5 q4 8.5 11.5 15 q7.5 6.5 16.5 10.5 q9 4 18 4 l393 0 q9 0 18 -4 l1 0 q3 4 8 4 q1 0 3.5 0.5 q2.5 0.5 4.5 0.5 l5 1 q3 1 7.5 0.5 q4.5 -0.5 7.5 -1.5 l17 -5 q15 -5 25.5 -21.5 q10.5 -16.5 7.5 -31.5 q-26 -148 -74.5 -266.5 q-48.5 -118.5 -114.5 -209.5 q-9 -13 -18 -25 q25 -27 52 -52 q65 -58 147 -97 q25 -13 32.5 -35.5 q7.5 -22.5 -6.5 -42.5 q-4 -6 -11 -10 q-7 -4 -15.5 -6 q-8.5 -2 -17 -2 q-8.5 0 -15.5 3 q-94 43 -168 107 q-33 29 -63 62 q-31 -33 -66 -61 q-82 -66 -178 -111 q-16 -7 -34.5 -2.5 q-18.5 4.5 -26.5 16.5 q-13 19 -4 41.5 q9 22.5 33 34.5 q84 41 158 104 q29 26 56 55 q-2 4 -5 8 q-57 82 -98.5 182 q-41.5 100 -71.5 215 q-3 9 -1 18.5 q2 9.5 6.5 18 q4.5 8.5 11.5 14.5 q5 4 10 6 l-16 0 q-9 0 -18 4 q-9 4 -16.5 10.5 q-7.5 6.5 -11.5 14.5 q-4 8 -4 17 ZM362 796 q7 16 26.5 25 q19.5 9 35.5 4 l4 -1 q10 -3 17 -10 q7 -7 11 -16 q4 -9 4 -19.5 q0 -10.5 -4 -19.5 q-37 -83 -83 -162 l0 -630 q0 -9 -4 -18 q-4 -9 -11 -16 q-7 -7 -15.5 -11.5 q-8.5 -4.5 -17.5 -4.5 q-9 0 -17.5 4.5 q-8.5 4.5 -16 11.5 q-7.5 7 -11.5 16 q-4 9 -4 19 l0 486 q-26 -35 -54 -65 q-8 -10 -18.5 -13.5 q-10.5 -3.5 -21 -2.5 q-10.5 1 -20 7.5 q-9.5 6.5 -15.5 16.5 l-4 8 q-9 14 -6.5 35 q2.5 21 14.5 33 q62 63 116.5 147 q54.5 84 94.5 176 ZM913 646 l-351 0 q7 -2 13 -7 q7 -5 13 -13 q6 -8 8 -17 q26 -99 62.5 -187 q36.5 -88 87.5 -162 q7 9 14 19 q59 85 102 193 q31 81 51 174 Z" /><glyph glyph-name="" unicode="&#x4eca;" d="M562 818 q6 7 13.5 12 q7.5 5 16 7.5 q8.5 2.5 18 2.5 q9.5 0 15.5 -4 l8 -3 q10 -5 16 -13.5 q6 -8.5 8 -18.5 q2 -8 1 -16 q4 -2 8 -5 q31 -36 71 -71 q40 -35 84.5 -67.5 q44.5 -32.5 91 -61.5 q46.5 -29 91.5 -52 q13 -6 20.5 -16 q7.5 -10 9.5 -21 q2 -11 -1 -23 q-3 -12 -11 -22 q-1 -1 -1 -1.5 q0 -0.5 -1 -0.5 q-5 -7 -13.5 -11.5 q-8.5 -4.5 -18 -6.5 q-9.5 -2 -18.5 -1 q-9 1 -17 5 q-45 26 -93 59 q-48 33 -94.5 70 q-46.5 37 -89.5 78 q-37 35 -70 71 q-20 -23 -42 -46 q-47 -48 -98 -91 q-51 -43 -106.5 -81 q-55.5 -38 -113.5 -69 q-8 -4 -17 -5 q-9 -1 -18.5 1.5 q-9.5 2.5 -17.5 7 q-8 4.5 -14 10.5 q0 2 -1 2 l0 1 q-17 20 -12 44 q5 24 29 36 q54 28 105.5 61.5 q51.5 33.5 98.5 71.5 q47 38 88.5 80.5 q41.5 42.5 74.5 86.5 ZM258 308 q0 10 4 18 q4 8 11.5 15 q7.5 7 16 11 q8.5 4 18.5 4 l514 0 q10 0 19 -4 q9 -4 16 -11 l1 0 l2 4 q1 2 1 4 q0 3 4 5 q4 2 9 2 q2 0 4.5 0.5 q2.5 0.5 4.5 1.5 l2 0 q3 1 10.5 0.5 q7.5 -0.5 12.5 -2.5 l14 -7 q9 -4 15.5 -12.5 q6.5 -8.5 8.5 -18.5 q2 -10 0.5 -21 q-1.5 -11 -7.5 -20 q-28 -37 -60.5 -79 q-32.5 -42 -66.5 -86 q-34 -44 -68.5 -87.5 q-34.5 -43.5 -68.5 -83.5 q-9 -12 -26.5 -16.5 q-17.5 -4.5 -30.5 1.5 l-11 6 q-11 4 -17.5 13 q-6.5 9 -8.5 19.5 q-2 10.5 0.5 21.5 q2.5 11 10.5 20 q36 44 74 90 q38 46 73 91 q29 36 55 70 l-486 0 q-10 0 -18.5 4 q-8.5 4 -16 11 q-7.5 7 -11.5 15.5 q-4 8.5 -4 17.5 l0 3 ZM531 484 q-8 7 -13 16.5 q-5 9.5 -6 19.5 q-1 10 2 19.5 q3 9.5 10 16.5 q10 10 28.5 10.5 q18.5 0.5 30.5 -9.5 q33 -23 66.5 -50 q33.5 -27 59.5 -51 q7 -5 11 -14 q4 -9 4 -18 q0 -9 -3 -18.5 q-3 -9.5 -9 -15.5 q-7 -6 -16.5 -9.5 q-9.5 -3.5 -20 -3.5 q-10.5 0 -20 3.5 q-9.5 3.5 -16.5 10.5 q-22 22 -50.5 46.5 q-28.5 24.5 -57.5 46.5 Z" /><glyph glyph-name="" unicode="&#x4ecb;" d="M566 813 q7 8 15.5 13 q8.5 5 18.5 7 q10 2 19.5 0.5 q9.5 -1.5 17.5 -6.5 q8 -5 12 -13.5 q4 -8.5 5.5 -18 q1.5 -9.5 0.5 -18.5 l-2 -4 q10 -4 16 -11 q29 -35 67 -69 q38 -34 82 -64 q44 -30 93 -55 q49 -25 98 -43 q28 -9 35 -32.5 q7 -23.5 -9 -46.5 q-1 0 -1 -0.5 q0 -0.5 -1 -0.5 q-7 -12 -25 -18.5 q-18 -6.5 -32 -1.5 q-55 20 -108 49.5 q-53 29.5 -102 65 q-49 35.5 -92 76.5 q-41 39 -74 80 q-18 -21 -38 -41 q-48 -50 -102 -93.5 q-54 -43.5 -113.5 -80.5 q-59.5 -37 -121.5 -63 q-8 -4 -17 -4 q-9 0 -18 3 q-9 3 -17 8.5 q-8 5.5 -12 12.5 q-13 22 -4.5 45 q8.5 23 33.5 33 q56 23 109.5 55 q53.5 32 102 69.5 q48.5 37.5 91 80 q42.5 42.5 73.5 86.5 ZM366 391 q0 9 4 18 q4 9 11 16 q7 7 16 11.5 q9 4.5 18 4.5 l5 0 q10 0 18.5 -4.5 q8.5 -4.5 15.5 -11.5 q7 -7 11 -16 q4 -9 4 -19 l0 -71 q0 -47 -5.5 -97 q-5.5 -50 -25 -99.5 q-19.5 -49.5 -56 -96.5 q-36.5 -47 -99.5 -88 q-6 -5 -15 -7 q-9 -2 -18 -0.5 q-9 1.5 -17 4.5 q-8 3 -14 8 q-19 18 -16 42 q3 24 24 43 q47 33 74.5 68 q27.5 35 42 71 q14.5 36 18.5 74.5 q4 38.5 4 79.5 l0 70 ZM742 392 q0 10 4 18.5 q4 8.5 11 16 q7 7.5 16 11.5 q9 4 18 4 l5 0 q10 0 18.5 -4 q8.5 -4 16 -11.5 q7.5 -7.5 11 -16 q3.5 -8.5 3.5 -18.5 l0 -428 q0 -10 -3.5 -18.5 q-3.5 -8.5 -11 -15.5 q-7.5 -7 -16 -11.5 q-8.5 -4.5 -18.5 -4.5 l-5 0 q-9 0 -18 4.5 q-9 4.5 -16 11.5 q-7 7 -11 15.5 q-4 8.5 -4 18.5 l0 428 Z" /><glyph glyph-name="" unicode="&#x4ecd;" d="M427 731 q0 8 4 15.5 q4 7.5 11 14.5 q7 7 15.5 10.5 q8.5 3.5 17.5 3.5 l331 0 q9 0 17 -4 q5 -2 9 -4 q12 8 24 8 q10 0 19.5 -5 q9.5 -5 15.5 -13 q6 -8 8.5 -18.5 q2.5 -10.5 0.5 -21.5 q-7 -34 -14.5 -71.5 q-7.5 -37.5 -15 -73.5 q-7.5 -36 -15.5 -70 q-1 -5 -2 -9 l127 0 q10 0 19 -3.5 q9 -3.5 16 -10.5 l3 -3 q4 -4 6 -8 q1 -2 2 -3 q4 -8 4 -17 q0 -5 -2 -11 q-5 -113 -11 -195 q-6 -84 -13.5 -140.5 q-7.5 -56.5 -17 -89 q-9.5 -32.5 -23.5 -47.5 q-16 -21 -35 -29.5 q-19 -8.5 -46 -11.5 q-17 -1 -43 -1.5 q-26 -0.5 -56 0.5 q-17 -1 -33 10.5 q-16 11.5 -19 25.5 q-5 23 10 40 q15 17 44 16 q9 -1 15.5 -1 q6.5 0 12.5 -0.5 q6 -0.5 12 -0.5 l15 0 q14 0 23 2.5 q9 2.5 18 11.5 q10 10 17.5 39 q7.5 29 14 81.5 q6.5 52.5 12.5 133.5 q3 54 6 123 l-73 0 q-11 0 -20 4 q-7 3 -13 8 l-1 -1 q-14 -11 -26 -11 q-11 0 -20.5 5 q-9.5 5 -15 13.5 q-5.5 8.5 -7.5 19.5 q-2 11 1 22 q7 30 14 63.5 q7 33.5 14.5 68.5 q7.5 35 13.5 70 q2 10 3 20 l-169 0 q-2 -94 -8 -192 q-6 -100 -24 -195.5 q-18 -95.5 -50 -182.5 q-32 -87 -86 -156 q-6 -9 -15.5 -14.5 q-9.5 -5.5 -19.5 -7 q-10 -1.5 -19.5 1.5 q-9.5 3 -17.5 10 q-14 13 -15 35.5 q-1 22.5 11 40.5 q49 63 77 142 q28 79 42.5 166.5 q14.5 87.5 18.5 179.5 q4 88 6 172 l-57 0 q-9 0 -17.5 3.5 q-8.5 3.5 -15.5 10 q-7 6.5 -11 14.5 q-4 8 -4 17 ZM304 795 q3 8 9.5 15.5 q6.5 7.5 14.5 12 q8 4.5 17.5 6.5 q9.5 2 17.5 -1 q9 -2 16 -8.5 q7 -6.5 11.5 -15 q4.5 -8.5 5 -18.5 q0.5 -10 -2.5 -19 q-27 -77 -61 -150 l0 -651 q0 -10 -4 -19 q-4 -9 -10.5 -16 q-6.5 -7 -15 -11 q-8.5 -4 -17.5 -4 q-9 0 -17 4 q-8 4 -14.5 11 q-6.5 7 -10.5 16 q-4 9 -4 19 l0 480 l-26 -38 q-8 -11 -18 -16 q-10 -5 -20.5 -4 q-10.5 1 -19.5 7.5 q-9 6.5 -15 19.5 l-2 4 q-1 2 -2 5 q-7 11 -5 28 q2 17 10 28 q49 63 91 144.5 q42 81.5 72 170.5 Z" /><glyph glyph-name="" unicode="&#x4ece;" d="M731 777 q1 9 5.5 18 q4.5 9 12 16 q7.5 7 16.5 11 q9 4 18 3 l10 0 q9 -1 17.5 -5 q8.5 -4 15 -11.5 q6.5 -7.5 10 -16.5 q3.5 -9 2.5 -19 q-9 -135 -24 -254 l-6 -40 l2 -2 q7 -9 10 -21 q12 -51 30 -105.5 q18 -54.5 42.5 -106.5 q24.5 -52 56 -99 q31.5 -47 72.5 -84 q16 -17 18 -41.5 q2 -24.5 -12 -42.5 q-7 -8 -16.5 -13 q-9.5 -5 -20.5 -6 q-11 -1 -21 2.5 q-10 3.5 -17 12.5 q-45 46 -80.5 103.5 q-35.5 57.5 -62.5 119.5 q-22 52 -38 104 q-1 0 -1 -1 q-27 -102 -69 -187.5 q-42 -85.5 -102 -153.5 q-6 -7 -14.5 -11 q-8.5 -4 -18.5 -5 q-10 -1 -19.5 1 q-9.5 2 -17.5 8 l-1 2 l-2 0 q-10 7 -16 17.5 q-6 10.5 -7 22 q-1 11.5 2.5 23.5 q3.5 12 11.5 21 q56 61 93.5 138.5 q37.5 77.5 62 170.5 q24.5 93 38.5 201.5 q14 108.5 20 229.5 ZM346 776 q0 9 5 18 q5 9 12 16 q7 7 15.5 11 q8.5 4 18.5 4 l9 -1 q9 0 17.5 -4.5 q8.5 -4.5 15 -11.5 q6.5 -7 10.5 -16.5 q4 -9.5 3 -18.5 q-6 -130 -19 -245 q-2 -21 -5 -42 q7 -1 14 -4 q9 -3 15 -11 q20 -25 40.5 -51.5 q20.5 -26.5 39 -53 q18.5 -26.5 34.5 -52 q16 -25.5 29 -48.5 q7 -12 5 -29 q-2 -17 -12 -27 l-2 -2 q-9 -8 -20 -11 q-11 -3 -21.5 -1 q-10.5 2 -20.5 8.5 q-10 6.5 -16 16.5 q-12 21 -26.5 44.5 q-14.5 23.5 -31 47.5 q-16.5 24 -33.5 48 q-5 8 -10 15 q-6 -34 -13 -66 q-22 -102 -56 -189 q-34 -87 -83 -158 q-5 -9 -14 -13.5 q-9 -4.5 -19.5 -6 q-10.5 -1.5 -21 0 q-10.5 1.5 -18.5 7.5 l-2 2 q-1 0 -2 1 q-10 7 -15 17 q-5 10 -6.5 21 q-1.5 11 1 22 q2.5 11 8.5 21 q47 63 78 142.5 q31 79.5 50.5 173.5 q19.5 94 30.5 200.5 q11 106.5 16 224.5 Z" /><glyph glyph-name="" unicode="&#x4ed3;" d="M318 442 q0 5 2 10 q-41 -25 -83 -46 q-8 -4 -17 -5 q-9 -1 -18 1.5 q-9 2.5 -17 7.5 q-8 5 -13 11 q-16 20 -10 43.5 q6 23.5 30 35.5 q55 27 107.5 61 q52.5 34 100 73 q47.5 39 88.5 83.5 q41 44.5 74 92.5 q5 6 12.5 11.5 q7.5 5.5 16 8.5 q8.5 3 17.5 3.5 q9 0.5 16 -2.5 l5 -2 q10 -4 16.5 -12 q6.5 -8 9 -18 q2.5 -10 1.5 -20 q-1 -3 -1 -6 q5 -3 9 -7 q73 -84 159 -144.5 q86 -60.5 185 -108.5 q25 -12 32 -34 q7 -22 -7 -41 q-5 -7 -13.5 -12 q-8.5 -5 -17.5 -7.5 q-9 -2.5 -19 -1.5 q-10 1 -18 5 q-104 55 -195 123 q-87 66 -166 155 q-19 -23 -40 -45 q-46 -51 -99 -96 q-42 -37 -88 -69 q7 0 14 -4 q3 -1 5 -2 q3 1 6 3 q9 4 18 4 l401 0 q9 0 18 -4 q9 -4 15 -11 q6 -4 10 -10 q3 -5 4 -10 q2 -6 2 -11 q0 -7 -2 -13 q-2 -55 -5 -96 q-4 -46 -8.5 -78 q-4.5 -32 -11 -51 q-6.5 -19 -15.5 -30 q-15 -18 -34 -24.5 q-19 -6.5 -43 -7.5 q-17 -2 -42.5 -2.5 q-25.5 -0.5 -54.5 0.5 q-17 1 -31.5 11.5 q-14.5 10.5 -18.5 22.5 q-5 22 12 36 q17 14 46 14 l13 0 l10 -1 q5 -1 10 -1 l12 0 q14 0 22 2 q8 2 14 9 q5 6 9.5 22 q4.5 16 7.5 44.5 q3 28.5 6 70.5 q0 12 1 25 l-345 0 l0 -306 q0 -17 3.5 -28.5 q3.5 -11.5 14 -17.5 q10.5 -6 29.5 -8.5 q19 -2.5 51 -2.5 l265 0 q19 0 32.5 3 q13.5 3 22.5 11 q9 8 15 22 q6 14 10 36 q7 11 15 21 q8 10 17 16 q9 6 19.5 8.5 q10.5 2.5 22.5 -2.5 q7 -2 13.5 -8 q6.5 -6 11 -14 q4.5 -8 6.5 -17 q2 -9 1 -18 q-8 -45 -18 -75 q-10 -30 -29 -47.5 q-19 -17.5 -51 -25 q-32 -7.5 -83 -7.5 l-275 0 q-57 0 -94.5 7 q-37.5 7 -60.5 24 q-23 17 -32.5 47 q-9.5 30 -9.5 76 l0 350 Z" /><glyph glyph-name="" unicode="&#x4ed4;" d="M479 729 q0 9 4 17 q4 8 11.5 15 q7.5 7 16.5 10.5 q9 3.5 18 3.5 l390 0 q9 0 18 -4 l4 -2 q1 0 1 1 q6 5 13 5 q2 0 4.5 0.5 q2.5 0.5 4.5 0.5 q5 2 15 0 q10 -2 16 -7 l8 -6 q8 -6 12.5 -15 q4.5 -9 6 -19 q1.5 -10 -1.5 -20 q-3 -10 -10 -17 q-23 -24 -49 -48 q-26 -24 -54 -46.5 q-28 -22.5 -57 -43.5 q-29 -21 -56 -39 l-1 0 q2 -4 2 -9 l0 -93 l221 0 q9 0 18 -4 q9 -4 16 -10.5 q7 -6.5 11 -15 q4 -8.5 4 -17.5 q0 -9 -4 -17 q-4 -8 -11 -15 q-7 -7 -16 -11 q-9 -4 -18 -4 l-221 0 l0 -283 q0 -43 -11.5 -65.5 q-11.5 -22.5 -41.5 -35.5 q-24 -9 -61 -11.5 q-37 -2.5 -90 -3.5 q-15 -1 -30.5 10.5 q-15.5 11.5 -19.5 25.5 q-4 12 -2 22.5 q2 10.5 9 19 q7 8.5 18 13.5 q11 5 24 5 q30 0 48.5 -0.5 q18.5 -0.5 32.5 0.5 q14 1 19.5 5 q5.5 4 5.5 16 l0 282 l-230 0 q-9 0 -18 4 q-9 4 -16 11 q-7 7 -11.5 15 q-4.5 8 -4.5 17 q0 9 4.5 17.5 q4.5 8.5 11.5 15 q7 6.5 16 10.5 q9 4 18 4 l230 0 l0 92 q0 9 4 18 q4 9 11 16 q6 6 14 10 q0 3 1 5 q6 22 26 37 q26 18 52 37.5 q26 19.5 50 40.5 q8 7 16 15 l-341 0 q-9 0 -18 4 q-9 4 -16.5 10.5 q-7.5 6.5 -11.5 14.5 q-4 8 -4 16 ZM337 798 q4 9 11 15.5 q7 6.5 15 11 q8 4.5 17.5 6 q9.5 1.5 17.5 -1.5 q9 -3 16 -9.5 q7 -6.5 11 -15.5 q4 -9 5 -19 q1 -10 -3 -19 q-36 -91 -83 -176 l0 -625 q0 -9 -4 -18 q-4 -9 -10.5 -16 q-6.5 -7 -15 -11 q-8.5 -4 -17.5 -4 q-9 0 -17 4 q-8 4 -14.5 11 q-6.5 7 -10.5 16 q-4 9 -4 18 l0 478 q-13 -17 -26 -33 q-8 -10 -18.5 -14.5 q-10.5 -4.5 -20.5 -3.5 q-10 1 -19.5 7.5 q-9.5 6.5 -16.5 18.5 q-1 1 -1 2 q0 1 -1 2 q-8 14 -6 33 q2 19 12 31 q54 62 101 143 q47 81 82 169 Z" /><glyph glyph-name="" unicode="&#x4ed6;" d="M713 791 q0 10 4.5 19 q4.5 9 10.5 16 q6 7 14 11.5 q8 4.5 17 4.5 q9 0 17 -4.5 q8 -4.5 15 -11.5 q7 -7 10.5 -16 q3.5 -9 3.5 -19 l0 -181 l118 45 q5 3 11 3 l12 11 q7 5 18.5 7 q11.5 2 19.5 -2 l7 -3 q15 -5 26.5 -13.5 q11.5 -8.5 10.5 -13.5 q-1 -2 -1 -5 l0 -5 q0 -66 -1 -122.5 q-1 -56.5 -2.5 -101 q-1.5 -44.5 -3 -76.5 q-1.5 -32 -4.5 -48 q-4 -36 -19 -54.5 q-15 -18.5 -39 -27.5 q-13 -4 -30 -6 q-17 -2 -33 -3 q-8 -1 -16.5 2 q-8.5 3 -15.5 7.5 q-7 4.5 -11.5 11 q-4.5 6.5 -6.5 12.5 q-4 22 2.5 38 q6.5 16 22.5 16 l27 0 q11 0 18.5 5 q7.5 5 11.5 22 q3 9 4 35.5 q1 26.5 2.5 69 q1.5 42.5 1.5 101.5 l0 45 l-130 -51 l0 -313 q0 -10 -3.5 -19 q-3.5 -9 -10.5 -16 q-7 -7 -15 -11 q-8 -4 -17 -4 q-9 0 -17 4 q-8 4 -14 11 q-6 7 -10.5 16 q-4.5 9 -4.5 19 l0 277 l-122 -48 l0 -338 q0 -22 3 -35.5 q3 -13.5 11.5 -21 q8.5 -7.5 24.5 -10 q16 -2.5 41 -2.5 l229 0 q16 0 27.5 3 q11.5 3 19 10.5 q7.5 7.5 12.5 20.5 q5 13 9 33 q11 26 28 40.5 q17 14.5 38 6.5 q14 -6 23 -22.5 q9 -16.5 6 -32.5 q-6 -41 -14.5 -69 q-8.5 -28 -25.5 -46 q-17 -18 -44.5 -25.5 q-27.5 -7.5 -71.5 -7.5 l-242 0 q-49 0 -82 7.5 q-33 7.5 -53 25.5 q-20 18 -27.5 48.5 q-7.5 30.5 -7.5 77.5 l0 299 l-42 -16 q-9 -3 -18.5 -2.5 q-9.5 0.5 -18.5 4 q-9 3.5 -16 9.5 q-7 6 -10 14 q-4 8 -3 17.5 q1 9.5 4.5 18 q3.5 8.5 10.5 16 q7 7.5 16 11.5 l77 30 l0 200 q0 10 3.5 18.5 q3.5 8.5 11 16 q7.5 7.5 16 11.5 q8.5 4 17.5 4 q10 0 18 -4 q8 -4 15 -11.5 q7 -7.5 11 -16 q4 -8.5 4 -18.5 l0 -163 l122 48 l0 217 ZM336 796 q4 8 11 15 q7 7 15.5 11.5 q8.5 4.5 17.5 6 q9 1.5 18 -1.5 q8 -3 15 -9.5 q7 -6.5 11 -15.5 q4 -9 4.5 -19 q0.5 -10 -3.5 -19 q-34 -82 -78 -160 l0 -637 q0 -10 -4 -19 q-4 -9 -11 -16 q-7 -7 -15.5 -11 q-8.5 -4 -17.5 -4 q-9 0 -17.5 4 q-8.5 4 -15.5 11 q-7 7 -11 16 q-4 9 -4 18 l0 491 q-19 -25 -37 -47 q-9 -11 -19 -15.5 q-10 -4.5 -20.5 -3 q-10.5 1.5 -20 7.5 q-9.5 6 -15.5 17 q-1 1 -1 2 q0 1 -1 2 q-8 14 -5.5 33 q2.5 19 12.5 32 q57 62 107 142.5 q50 80.5 85 168.5 Z" /><glyph glyph-name="" unicode="&#x4ed8;" d="M448 578 q0 8 4 17 q4 9 11 16 q7 7 16.5 10.5 q9.5 3.5 18.5 3.5 l344 0 l0 159 q0 9 4 18 q4 9 11 16 q7 7 16 11 q9 4 17 4 l5 0 q9 0 17.5 -4 q8.5 -4 15.5 -11 q7 -7 11 -16 q4 -9 4 -18 l0 -159 l67 0 q10 0 19 -3.5 q9 -3.5 16.5 -10.5 q7.5 -7 11.5 -16 q4 -9 4 -17 l0 -3 q0 -9 -4 -18 q-4 -9 -11.5 -15.5 q-7.5 -6.5 -16.5 -10.5 q-9 -4 -19 -4 l-67 0 l0 -488 q0 -50 -14 -74 q-14 -24 -47 -35 q-28 -10 -73.5 -13 q-45.5 -3 -112.5 -3 q-15 0 -29.5 10.5 q-14.5 10.5 -19.5 23.5 q-9 24 5 42.5 q14 18.5 43 18.5 q41 -1 68 -1 q27 0 46 1 q18 1 25.5 7 q7.5 6 7.5 23 l0 488 l-344 0 q-9 0 -18.5 4 q-9.5 4 -16.5 10.5 q-7 6.5 -11 15.5 q-4 9 -4 18 l0 3 ZM362 795 q4 8 11 14.5 q7 6.5 15.5 11 q8.5 4.5 17.5 6 q9 1.5 18 -1.5 l4 -1 q9 -3 16 -9.5 q7 -6.5 11 -15.5 q4 -9 4.5 -19.5 q0.5 -10.5 -3.5 -19.5 q-36 -85 -81 -164 l0 -629 q0 -9 -4 -18 q-4 -9 -11 -16 q-7 -7 -15.5 -11.5 q-8.5 -4.5 -17.5 -4.5 l-2 0 q-9 0 -17.5 4.5 q-8.5 4.5 -16 11.5 q-7.5 7 -11.5 16 q-4 9 -4 19 l0 478 q-20 -27 -41 -52 q-9 -10 -19 -14 q-10 -4 -20.5 -2.5 q-10.5 1.5 -20.5 7.5 q-10 6 -16 16 q-1 2 -1.5 4 q-0.5 2 -1.5 3 q-5 7 -6.5 16 q-1.5 9 -0.5 18.5 q1 9.5 4 18 q3 8.5 9 15.5 q59 63 111 145.5 q52 82.5 89 173.5 ZM528 351 q-4 9 -5 19.5 q-1 10.5 1.5 20 q2.5 9.5 9 17.5 q6.5 8 15.5 12 q8 4 16.5 3.5 q8.5 -0.5 17 -3 q8.5 -2.5 16.5 -7.5 q8 -5 12 -13 q13 -19 26 -40 q13 -21 26 -41.5 q13 -20.5 25 -40 q12 -19.5 21 -36.5 q5 -7 5 -16.5 q0 -9.5 -2.5 -18.5 q-2.5 -9 -8.5 -16.5 q-6 -7.5 -13 -11.5 l-3 -2 q-9 -4 -19.5 -4 q-10.5 0 -20.5 3 q-10 3 -18 10 q-8 7 -13 16 q-9 16 -19 34.5 q-10 18.5 -21.5 38 q-11.5 19.5 -23.5 39 q-12 19.5 -24 37.5 Z" /><glyph glyph-name="" unicode="&#x4ee3;" d="M439 457 q-1 9 2 18 q3 9 9 16.5 q6 7.5 14.5 13 q8.5 5.5 17.5 6.5 l173 22 q-10 115 -16 245 q0 10 4 19 q4 9 10.5 16.5 q6.5 7.5 15 12 q8.5 4.5 18.5 4.5 l1 0 q10 0 18 -4 q8 -4 15 -11 q7 -7 11.5 -16 q4.5 -9 4.5 -18 q4 -125 14 -235 l246 31 q10 2 19 -0.5 q9 -2.5 17 -8.5 q8 -6 13.5 -13.5 q5.5 -7.5 6.5 -16.5 q1 -9 -2 -17.5 q-3 -8.5 -9 -16 q-6 -7.5 -14.5 -13 q-8.5 -5.5 -18.5 -6.5 l-248 -32 q14 -110 35 -195 q25 -100 62 -159 q37 -59 88 -65 q14 -1 23.5 20.5 q9.5 21.5 15.5 64.5 q8 30 26 41.5 q18 11.5 41 -1.5 q9 -6 15 -19.5 q6 -13.5 3 -25.5 q-9 -59 -21.5 -97.5 q-12.5 -38.5 -27.5 -61 q-15 -22.5 -33 -31.5 q-18 -9 -38 -7 q-84 7 -140 72 q-56 65 -91.5 178 q-35.5 113 -53.5 269 l0 4 l-171 -22 q-9 -1 -18 1.5 q-9 2.5 -16.5 8 q-7.5 5.5 -13 13 q-5.5 7.5 -7.5 16.5 ZM380 793 q3 8 10 14.5 q7 6.5 16 10.5 q9 4 18 5 q9 1 17 -1 l1 -1 q9 -3 16 -10 q7 -7 11 -16 q4 -9 4.5 -19.5 q0.5 -10.5 -4.5 -19.5 q-35 -75 -79 -146 l0 -643 q0 -10 -3.5 -18.5 q-3.5 -8.5 -10.5 -16 q-7 -7.5 -15.5 -11.5 q-8.5 -4 -18.5 -4 l-4 0 q-9 0 -17.5 4 q-8.5 4 -15.5 11.5 q-7 7.5 -11 16.5 q-4 9 -4 18 l0 500 q-36 -44 -74 -83 q-8 -9 -18.5 -12.5 q-10.5 -3.5 -21 -2 q-10.5 1.5 -19.5 8 q-9 6.5 -15 16.5 q-1 1 -1.5 2 q-0.5 1 -1.5 2 q-8 14 -5.5 35 q2.5 21 15.5 33 q67 64 127 149 q60 85 104 178 ZM856 741 q-7 8 -10.5 18.5 q-3.5 10.5 -3 20.5 q0.5 10 5 19 q4.5 9 12.5 14 q10 7 27 4 q17 -3 27 -12 q28 -23 55 -49.5 q27 -26.5 47 -48.5 q6 -7 7.5 -15.5 q1.5 -8.5 0 -17 q-1.5 -8.5 -5.5 -16.5 q-4 -8 -10 -12 q-8 -5 -18.5 -6 q-10.5 -1 -20.5 2 q-10 3 -19 9 q-9 6 -15 14 q-15 17 -36.5 37.5 q-21.5 20.5 -42.5 38.5 Z" /><glyph glyph-name="" unicode="&#x4ee4;" d="M449 108 q-10 6 -16 15.5 q-6 9.5 -7.5 20 q-1.5 10.5 1 21 q2.5 10.5 10.5 18.5 l3 3 q9 9 26 12 q17 3 29 -3 q33 -19 68 -41 q26 -15 51 -31 q32 31 65 63 q34 35 67 68 l37 37 l-469 0 q-10 0 -19 4 q-9 4 -16 11 q-7 7 -11.5 15.5 q-4.5 8.5 -4.5 17 q0 8.5 4.5 17 q4.5 8.5 11.5 15.5 q7 7 16 11 q9 4 19 4 l519 0 q10 0 19 -4 l10 -6 l0 2 q0 4 4.5 6 q4.5 2 10.5 2 q1 0 3.5 0.5 q2.5 0.5 4.5 0.5 q5 2 13 0.5 q8 -1.5 13 -4.5 l10 -6 q9 -5 14.5 -14.5 q5.5 -9.5 7 -19.5 q1.5 -10 -2 -21 q-3.5 -11 -10.5 -19 q-28 -28 -59 -60 q-31 -32 -64 -64.5 q-33 -32.5 -66 -65.5 q-23 -22 -44 -44 q2 -2 4 -3 q33 -23 59 -43 q9 -5 14 -14 q5 -9 6.5 -19 q1.5 -10 -1 -19.5 q-2.5 -9.5 -9.5 -17.5 l-8 -9 q-6 -6 -15 -10 q-9 -4 -18.5 -4.5 q-9.5 -0.5 -19 1.5 q-9.5 2 -16.5 7 q-24 20 -53 41.5 q-29 21.5 -60.5 43.5 q-31.5 22 -65 44 q-33.5 22 -65.5 41 ZM581 820 q11 12 30 16 q19 4 33 -3 l3 -2 q10 -5 15.5 -14 q5.5 -9 7 -19 q1.5 -10 -0.5 -21 l-2 -4 q32 -31 72 -63 q40 -32 85.5 -61.5 q45.5 -29.5 93 -56 q47.5 -26.5 93.5 -47.5 q26 -11 31.5 -35 q5.5 -24 -11.5 -46 l0 -1 q-5 -6 -12.5 -10.5 q-7.5 -4.5 -16.5 -7 q-9 -2.5 -18 -2 q-9 0.5 -16 4.5 q-47 23 -96 53 q-49 30 -96.5 64 q-47.5 34 -92.5 72 q-40 34 -76 69 q-19 -20 -40 -39 q-48 -44 -101.5 -84 q-53.5 -40 -110.5 -75 q-57 -35 -115 -64 q-8 -3 -17 -3.5 q-9 -0.5 -18 1.5 q-9 2 -16.5 6.5 q-7.5 4.5 -12.5 10.5 q-15 21 -10 44 q5 23 30 35 q55 26 109 57.5 q54 31.5 103.5 67.5 q49.5 36 93.5 76 q44 40 79 81 ZM537 505 q-7 8 -11.5 18 q-4.5 10 -4.5 20.5 q0 10.5 3.5 19.5 q3.5 9 11.5 15 q11 9 29.5 8 q18.5 -1 29.5 -11 q24 -19 47.5 -41 q23.5 -22 40.5 -41 q6 -7 9 -16 q3 -9 3 -18 q0 -9 -4 -17.5 q-4 -8.5 -10 -13.5 q-8 -7 -18 -9 q-10 -2 -20.5 -1 q-10.5 1 -20 6 q-9.5 5 -16.5 13 q-14 16 -32 34.5 q-18 18.5 -37 33.5 Z" /><glyph glyph-name="" unicode="&#x4ee5;" d="M849 754 q0 9 5 18.5 q5 9.5 12 16 q7 6.5 16.5 10 q9.5 3.5 18.5 3.5 l6 -1 q9 0 17.5 -4.5 q8.5 -4.5 15 -12 q6.5 -7.5 10 -16.5 q3.5 -9 3.5 -18 q-11 -158 -33.5 -285 q-22.5 -127 -66.5 -227 q-2 -3 -3 -6 q25 -25 52 -51 q27 -27 52.5 -54.5 q25.5 -27.5 49 -54 q23.5 -26.5 42.5 -51.5 q5 -7 7 -16 q2 -9 1 -18.5 q-1 -9.5 -5.5 -17.5 q-4.5 -8 -11.5 -14 l-6 -4 q-8 -6 -18.5 -7.5 q-10.5 -1.5 -21 0 q-10.5 1.5 -19.5 7 q-9 5.5 -15 13.5 q-17 22 -37.5 47.5 q-20.5 25.5 -43 51.5 q-22.5 26 -47.5 52 q-14 15 -27 29 q-29 -44 -64 -81 q-70 -76 -175 -132 q-7 -4 -16 -5 q-9 -1 -18.5 1.5 q-9.5 2.5 -17 6.5 q-7.5 4 -13.5 10 l0 1 q-17 19 -11.5 43.5 q5.5 24.5 28.5 38.5 q93 49 153.5 116 q60.5 67 98 156 q37.5 89 56 202 q18.5 113 26.5 253 ZM301 52 q-12 -8 -25 -10 l-8 0 q-11 -5 -22 -5 q-11 -1 -20 3 q-9 4 -15 12 q-9 13 -3 34.5 q6 21.5 18 39.5 q5 6 10 9.5 q5 3.5 8.5 9 q3.5 5.5 5.5 15.5 q2 10 2 29 l0 534 q0 9 4 18 q4 9 11 16 q7 7 15.5 11 q8.5 4 18.5 4 l9 0 q9 0 17.5 -4 q8.5 -4 15.5 -11.5 q7 -7.5 11 -16 q4 -8.5 4 -18.5 l0 -530 l154 75 q11 5 22 5.5 q11 0.5 21 -3.5 q10 -4 17.5 -11.5 q7.5 -7.5 10.5 -17.5 q4 -14 -4.5 -32 q-8.5 -18 -22.5 -25 q-55 -27 -96 -47.5 q-41 -20.5 -71.5 -36 q-30.5 -15.5 -51.5 -27 q-21 -11.5 -36 -20.5 ZM499 654 q-6 9 -7.5 20 q-1.5 11 0.5 21 q2 10 8 19 q6 9 14 13 l2 1 q13 7 31 3 q18 -4 27 -16 q15 -19 30 -40 q15 -21 29 -41.5 q14 -20.5 26 -40.5 q12 -20 22 -38 q4 -7 4.5 -16 q0.5 -9 -1.5 -17.5 q-2 -8.5 -7 -16 q-5 -7.5 -12 -12.5 l-4 -2 q-9 -5 -19.5 -5.5 q-10.5 -0.5 -20.5 2.5 q-10 3 -19 10 q-9 7 -14 16 q-17 32 -40.5 69.5 q-23.5 37.5 -48.5 70.5 Z" /><glyph glyph-name="" unicode="&#x4eea;" d="M506 765 q9 1 18 -2 q9 -3 16.5 -8.5 q7.5 -5.5 13 -14 q5.5 -8.5 6.5 -17.5 q23 -122 59.5 -228.5 q36.5 -106.5 89.5 -195.5 q13 -21 27 -42 q19 26 36 54 q56 91 90 198.5 q34 107.5 56 226.5 q2 9 7.5 17.5 q5.5 8.5 13.5 14 q8 5.5 17.5 8.5 q9.5 3 18.5 1 q10 -1 17.5 -7 q7.5 -6 13 -14 q5.5 -8 8 -17.5 q2.5 -9.5 0.5 -18.5 q-26 -133 -65 -250.5 q-39 -117.5 -103 -217.5 q-23 -37 -49 -71 q18 -20 38 -39 q73 -68 170 -114 q25 -13 30.5 -37 q5.5 -24 -10.5 -45 q-9 -11 -28 -16.5 q-19 -5.5 -34 1.5 q-109 51 -191 126 q-23 22 -45 46 q-17 -16 -35 -32 q-91 -81 -220 -140 q-14 -7 -33 -2.5 q-19 4.5 -27 14.5 q-13 18 -5.5 40.5 q7.5 22.5 31.5 33.5 q116 54 197 128 q17 16 33 32 q-19 26 -35 54 q-59 98 -98.5 217.5 q-39.5 119.5 -66.5 259.5 q-2 10 0.5 19 q2.5 9 8 17 q5.5 8 13.5 13.5 q8 5.5 16 7.5 ZM337 797 q3 9 10.5 15 q7.5 6 15.5 10.5 q8 4.5 17.5 6 q9.5 1.5 17.5 -1.5 q9 -3 16 -9.5 q7 -6.5 11 -15.5 q4 -9 5 -19.5 q1 -10.5 -3 -19.5 q-35 -84 -80 -163 l0 -634 q0 -9 -4 -18 q-4 -9 -10.5 -16 q-6.5 -7 -15 -11 q-8.5 -4 -17.5 -4 q-9 0 -17 4 q-8 4 -15 11 q-7 7 -10.5 16 q-3.5 9 -3.5 18 l0 491 q-19 -26 -39 -49 q-9 -11 -19 -15 q-10 -4 -20.5 -3 q-10.5 1 -20 7.5 q-9.5 6.5 -15.5 18.5 q-1 1 -1.5 2 q-0.5 1 -1.5 2 q-8 14 -5.5 33 q2.5 19 12.5 32 q57 62 107 143 q50 81 86 169 ZM664 738 q-4 9 -5.5 19.5 q-1.5 10.5 1 20.5 q2.5 10 7.5 17.5 q5 7.5 13 11.5 q13 7 31 1.5 q18 -5.5 26 -19.5 q21 -30 40.5 -63 q19.5 -33 31.5 -61 q6 -13 0.5 -30 q-5.5 -17 -17.5 -24 q-10 -5 -20.5 -5 q-10.5 0 -20.5 4.5 q-10 4.5 -18 12 q-8 7.5 -13 17.5 q-11 23 -25.5 48.5 q-14.5 25.5 -30.5 49.5 Z" /><glyph glyph-name="" unicode="&#x4eec;" d="M674 766 q0 8 4 16 q4 8 11.5 14.5 q7.5 6.5 16.5 10 q9 3.5 18 3.5 l256 0 q8 0 15 -3 q1 0 2 -1 q9 -3 16 -9.5 q7 -6.5 11.5 -14.5 q4.5 -8 4.5 -16 l0 -738 q0 -39 -10 -60 q-10 -21 -36 -33 q-20 -9 -49.5 -12 q-29.5 -3 -72.5 -4 q-16 -1 -31.5 9.5 q-15.5 10.5 -19.5 22.5 q-6 22 9 38.5 q15 16.5 42 17.5 l28 0 q9 0 21 1 q12 0 16.5 5 q4.5 5 4.5 17 l0 692 l-207 0 q-9 0 -18 3.5 q-9 3.5 -16.5 10 q-7.5 6.5 -11.5 14.5 q-4 8 -4 16 ZM299 792 q3 8 9.5 16 q6.5 8 15 13 q8.5 5 17.5 7 q9 2 18 -1 q8 -2 15 -8 q7 -6 11.5 -14.5 q4.5 -8.5 5.5 -18.5 q1 -10 -2 -19 q-27 -87 -63 -170 l0 -630 q0 -10 -4 -19 q-4 -9 -10.5 -16.5 q-6.5 -7.5 -15 -11.5 q-8.5 -4 -17 -4 q-8.5 0 -16.5 4 q-8 4 -15 11.5 q-7 7.5 -11 16 q-4 8.5 -4 18.5 l0 452 l-10 -16 q-8 -12 -18 -17.5 q-10 -5.5 -20.5 -5 q-10.5 0.5 -19.5 8 q-9 7.5 -16 19.5 q-1 2 -1.5 3.5 q-0.5 1.5 -1.5 3.5 q-6 11 -5 28 q1 17 9 27 q45 65 83.5 148.5 q38.5 83.5 65.5 174.5 ZM427 583 q0 10 4 19 q4 9 11 16 q7 7 15.5 11 q8.5 4 17.5 4 q9 0 17.5 -4 q8.5 -4 15 -11 q6.5 -7 10.5 -16 q4 -9 4 -19 l0 -617 q0 -9 -4 -18 q-4 -9 -10.5 -16.5 q-6.5 -7.5 -15 -11.5 q-8.5 -4 -17.5 -4 q-9 0 -17.5 4 q-8.5 4 -15.5 11.5 q-7 7.5 -11 16.5 q-4 9 -4 18 l0 617 ZM501 757 q-6 8 -8 18.5 q-2 10.5 -0.5 20.5 q1.5 10 6 18 q4.5 8 12.5 12 q13 8 31 3 q18 -5 28 -19 q20 -28 40 -59 q20 -31 34 -57 q5 -7 5.5 -16 q0.5 -9 -1.5 -17.5 q-2 -8.5 -6 -16 q-4 -7.5 -11 -11.5 q-8 -5 -18.5 -5.5 q-10.5 -0.5 -20 3 q-9.5 3.5 -18 10.5 q-8.5 7 -14.5 16 q-12 23 -27.5 49 q-15.5 26 -31.5 51 Z" /><glyph glyph-name="" unicode="&#x4ef6;" d="M696 784 q0 9 4 17.5 q4 8.5 10.5 15.5 q6.5 7 15.5 11 q9 4 18 4 l3 0 q8 0 17 -4 q9 -4 15.5 -11 q6.5 -7 10.5 -15.5 q4 -8.5 4 -17.5 l0 -138 l170 0 q9 0 18 -4 q9 -4 16 -11 q7 -7 11.5 -15.5 q4.5 -8.5 4.5 -17.5 q0 -9 -4.5 -18 q-4.5 -9 -11.5 -15.5 q-7 -6.5 -16 -10.5 q-9 -4 -18 -4 l-170 0 l0 -197 l216 0 q10 0 18.5 -3.5 q8.5 -3.5 15.5 -10.5 q7 -7 11.5 -15.5 q4.5 -8.5 4.5 -17.5 q0 -9 -4.5 -18 q-4.5 -9 -11.5 -15.5 q-7 -6.5 -15.5 -10.5 q-8.5 -4 -18.5 -4 l-216 0 l0 -294 q0 -9 -4 -17.5 q-4 -8.5 -10.5 -15.5 q-6.5 -7 -15.5 -11 q-9 -4 -17 -4 l-3 0 q-9 0 -18 4 q-9 4 -15.5 11 q-6.5 7 -10.5 15.5 q-4 8.5 -4 17.5 l0 294 l-230 0 q-9 0 -18 4 q-9 4 -16 10.5 q-7 6.5 -11.5 15.5 q-4.5 9 -4.5 18 q0 9 4.5 17.5 q4.5 8.5 11.5 15.5 q7 7 16 10.5 q9 3.5 18 3.5 l230 0 l0 197 l-110 0 q-11 0 -21 5 q-3 1 -6 3 q-21 -55 -45 -101 q-5 -10 -12.5 -16 q-7.5 -6 -17 -9 q-9.5 -3 -19 -3 q-9.5 0 -16.5 4 q-17 10 -21.5 32 q-4.5 22 4.5 42 q28 49 48 109 q20 60 34 126 q2 9 8 17.5 q6 8.5 14 14 q8 5.5 17.5 8 q9.5 2.5 18.5 0.5 q9 -2 16.5 -7.5 q7.5 -5.5 12.5 -14 q5 -8.5 6.5 -18 q1.5 -9.5 -0.5 -19.5 q-9 -39 -20 -77 l109 0 l0 138 ZM338 797 q3 9 10 15 q7 6 15.5 10.5 q8.5 4.5 18 6 q9.5 1.5 17.5 -1.5 q9 -3 16 -9.5 q7 -6.5 11 -15.5 q4 -9 5 -19.5 q1 -10.5 -3 -19.5 q-35 -86 -80 -167 l0 -630 q0 -9 -4 -18 q-4 -9 -10.5 -16 q-6.5 -7 -15 -11 q-8.5 -4 -17 -4 q-8.5 0 -17 4 q-8.5 4 -15 11 q-6.5 7 -10.5 16 q-4 9 -4 18 l0 482 q-15 -21 -31 -40 q-8 -11 -18.5 -15 q-10.5 -4 -21 -3 q-10.5 1 -20 7.5 q-9.5 6.5 -15.5 18.5 q-1 1 -1.5 2 q-0.5 1 -1.5 2 q-7 14 -5.5 33 q1.5 19 12.5 31 q55 62 102.5 143.5 q47.5 81.5 82.5 169.5 Z" /><glyph glyph-name="" unicode="&#x4ef7;" d="M340 800 q4 9 11 15 q7 6 15 10.5 q8 4.5 17.5 6 q9.5 1.5 16.5 -0.5 q10 -3 17 -10 q7 -7 11 -16 q4 -9 5 -19 q1 -10 -3 -20 q-34 -85 -78 -165 l0 -635 q0 -10 -4 -19 q-4 -9 -11 -16 q-7 -7 -15.5 -11 q-8.5 -4 -17.5 -4 l-1 0 q-9 0 -18 4 q-9 4 -16 11 q-7 7 -11 16 q-4 9 -4 18 l0 478 q-12 -17 -24 -32 q-9 -11 -19 -15 q-10 -4 -20.5 -3 q-10.5 1 -20 7.5 q-9.5 6.5 -15.5 18.5 q-1 1 -1.5 2 q-0.5 1 -1.5 2 q-8 14 -6.5 33 q1.5 19 12.5 31 q54 62 101 143.5 q47 81.5 81 169.5 ZM673 809 q7 14 23 24 q16 10 32 8 l5 -1 q11 -2 19.5 -8.5 q8.5 -6.5 13.5 -15.5 q5 -9 5 -20 q1 -8 -2 -16 q6 -5 10 -11 q22 -35 49.5 -69 q27.5 -34 58 -65.5 q30.5 -31.5 64 -59 q33.5 -27.5 66.5 -49.5 q21 -15 25.5 -38.5 q4.5 -23.5 -9.5 -41.5 q-5 -6 -13.5 -10 q-8.5 -4 -17.5 -5 q-9 -1 -18 0.5 q-9 1.5 -17 7.5 q-37 26 -74 58.5 q-37 32.5 -71.5 70 q-34.5 37.5 -64.5 78.5 q-18 24 -35 48 q-4 -6 -8 -13 q-30 -47 -68 -91.5 q-38 -44.5 -84.5 -86 q-46.5 -41.5 -101.5 -78.5 q-18 -10 -38.5 -7 q-20.5 3 -29.5 16 q-12 18 -6 41 q6 23 28 37 q48 32 87.5 68 q39.5 36 72 74.5 q32.5 38.5 57 78 q24.5 39.5 42.5 76.5 ZM533 397 q0 10 4 18.5 q4 8.5 11 15.5 q7 7 16 11.5 q9 4.5 17 4.5 l3 0 q9 0 17.5 -4.5 q8.5 -4.5 15.5 -11 q7 -6.5 11 -15.5 q4 -9 4 -18 l0 -89 q0 -40 -4.5 -86 q-4.5 -46 -18.5 -94 q-14 -48 -41.5 -95.5 q-27.5 -47.5 -71.5 -91.5 q-7 -7 -16 -10.5 q-9 -3.5 -18.5 -4 q-9.5 -0.5 -18 3 q-8.5 3.5 -14.5 9.5 q-15 15 -12.5 38.5 q2.5 23.5 16.5 43.5 q35 35 55 71.5 q20 36.5 29.5 73.5 q9.5 37 12.5 73 q3 36 3 70 l0 87 ZM811 399 q0 9 4 18 q4 9 11.5 16 q7.5 7 16 11 q8.5 4 17.5 4 l4 0 q9 0 17.5 -4 q8.5 -4 15.5 -11 q7 -7 11 -16 q4 -9 4 -18 l0 -433 q0 -9 -4 -18 q-4 -9 -11 -16 q-7 -7 -15.5 -11 q-8.5 -4 -17.5 -4 l-4 0 q-9 0 -17.5 4 q-8.5 4 -16 11 q-7.5 7 -11.5 16 q-4 9 -4 18 l0 433 Z" /><glyph glyph-name="" unicode="&#x4efb;" d="M928 815 q12 4 27.5 0 q15.5 -4 22.5 -13 l7 -8 q8 -9 11 -20 q3 -11 0 -21 q-3 -10 -11 -18 q-8 -8 -21 -12 q-47 -13 -102 -25 q-40 -9 -82 -17 q7 -7 11 -16 q4 -9 4 -18 l0 -225 l218 0 q9 0 18 -4 q9 -4 16 -10.5 q7 -6.5 11 -15 q4 -8.5 4 -17.5 q0 -9 -4 -17.5 q-4 -8.5 -11 -15 q-7 -6.5 -16 -10.5 q-9 -4 -18 -4 l-218 0 l0 -261 q0 -9 -4 -18 l-2 -4 l211 0 q9 0 18 -3.5 q9 -3.5 16 -10 q7 -6.5 11 -15 q4 -8.5 4 -17.5 q0 -9 -4 -17 q-4 -8 -11 -15 q-7 -7 -16 -11 q-9 -4 -18 -4 l-500 0 q-9 0 -18 4 q-9 4 -15.5 11 q-6.5 7 -11 15 q-4.5 8 -4.5 17 q0 9 4.5 17.5 q4.5 8.5 11 15 q6.5 6.5 15.5 10 q9 3.5 18 3.5 l202 0 l-2 4 q-4 9 -4 18 l0 261 l-234 0 q-10 0 -19 4 q-9 4 -16 10.5 q-7 6.5 -11.5 15 q-4.5 8.5 -4.5 17.5 q0 9 4.5 17.5 q4.5 8.5 11.5 15 q7 6.5 16 10.5 q9 4 19 4 l234 0 l0 225 q0 9 4 18 l1 1 q-33 -5 -67 -10 q-59 -9 -116 -16 q-18 -2 -34.5 7 q-16.5 9 -21.5 23 q-6 18 7.5 35.5 q13.5 17.5 37.5 20.5 q56 9 114 18.5 q58 9.5 112.5 21 q54.5 11.5 104.5 24 q50 12.5 90 25.5 ZM362 799 q4 8 11 15 q7 7 15.5 11 q8.5 4 17.5 5.5 q9 1.5 17 -1.5 l4 -1 q10 -3 17 -10 q7 -7 11 -16 q4 -9 4.5 -19.5 q0.5 -10.5 -4.5 -18.5 q-36 -83 -82 -161 l0 -637 q0 -10 -4 -18.5 q-4 -8.5 -11 -16 q-7 -7.5 -15.5 -11.5 q-8.5 -4 -17.5 -4 q-9 0 -17.5 4 q-8.5 4 -15.5 11.5 q-7 7.5 -11.5 16.5 q-4.5 9 -4.5 18 l0 494 q-26 -34 -54 -65 q-9 -10 -19.5 -14 q-10.5 -4 -21 -3 q-10.5 1 -20 8 q-9.5 7 -15.5 17 q-1 1 -2 2.5 q-1 1.5 -2 3.5 q-9 14 -6.5 35 q2.5 21 13.5 33 q63 63 118 146.5 q55 83.5 95 175.5 Z" /><glyph glyph-name="" unicode="&#x4efd;" d="M500 414 q0 8 4 16.5 q4 8.5 11 14.5 q7 6 16 10 q9 4 19 4 l360 0 q9 0 18 -4 q9 -3 16 -9 q-19 21 -36 44 q-27 36 -49 77.5 q-22 41.5 -39 89 q-17 47.5 -31 102.5 q-3 10 -1 19 q2 9 7 17.5 q5 8.5 12 14.5 q7 6 16 7 q17 4 33 -8.5 q16 -12.5 22 -29.5 q12 -46 27.5 -85.5 q15.5 -39.5 34 -73 q18.5 -33.5 41.5 -63 q23 -29.5 50 -55.5 q17 -17 20.5 -39.5 q3.5 -22.5 -9.5 -38.5 q-6 -8 -15.5 -12.5 q-9.5 -4.5 -20 -5.5 q-10.5 -1 -21 2.5 q-10.5 3.5 -18.5 12.5 l-12 12 q3 -5 4 -10 q1 -5 1 -9 q0 -5 -1 -10 q-5 -107 -10 -183 q-5 -79 -11.5 -131.5 q-6.5 -52.5 -15 -82.5 q-8.5 -30 -20.5 -44 q-15 -20 -32 -28 q-17 -8 -40 -11 q-13 -1 -32.5 -1.5 q-19.5 -0.5 -41.5 0.5 q-17 -1 -32 10 q-15 11 -19 24 q-5 22 6.5 37.5 q11.5 15.5 35.5 15.5 q7 0 10.5 -0.5 q3.5 -0.5 7.5 -0.5 l19 0 q12 0 19.5 2.5 q7.5 2.5 14.5 11.5 q8 9 14.5 35 q6.5 26 12 75.5 q5.5 49.5 10.5 124.5 q3 49 6 110 l-168 0 q4 -6 6 -13 q3 -10 2 -19 q-19 -138 -66.5 -235.5 q-47.5 -97.5 -135.5 -162.5 q-7 -6 -15.5 -7.5 q-8.5 -1.5 -17.5 -0.5 q-9 1 -16.5 4.5 q-7.5 3.5 -12.5 8.5 q-15 17 -9.5 40.5 q5.5 23.5 25.5 40.5 q69 52 104.5 131.5 q35.5 79.5 48.5 188.5 q1 8 6 17 q2 4 5 7 l-67 0 q-10 0 -19 4 q-9 4 -16 10.5 q-7 6.5 -11 14.5 q-4 8 -4 17 ZM331 797 q4 9 11 15 q7 6 15.5 10.5 q8.5 4.5 17.5 6 q9 1.5 17 -0.5 q9 -3 16 -10 q7 -7 11.5 -16 q4.5 -9 5 -19 q0.5 -10 -3.5 -19 q-32 -84 -74 -162 l0 -636 q0 -10 -4 -19 q-4 -9 -11 -16 q-7 -7 -15.5 -11 q-8.5 -4 -18.5 -4 q-8 0 -17 4 q-9 4 -16 11 q-7 7 -11 16 q-4 9 -4 18 l0 478 q-13 -18 -26 -35 q-8 -11 -18 -15 q-10 -4 -20.5 -3 q-10.5 1 -20.5 7.5 q-10 6.5 -16 18.5 q-1 1 -1.5 2 q-0.5 1 -1.5 2 q-8 14 -6 33 q2 19 12 32 q54 62 100 143 q46 81 79 169 ZM578 772 q6 17 24 28.5 q18 11.5 35 7.5 q10 -2 17.5 -8 q7.5 -6 12.5 -15 q5 -9 6.5 -19 q1.5 -10 -1.5 -19 q-32 -100 -80 -185 q-48 -85 -111 -150 q-7 -9 -17.5 -12.5 q-10.5 -3.5 -20.5 -2.5 q-10 1 -19.5 6.5 q-9.5 5.5 -15.5 14.5 q-5 7 -7 17.5 q-2 10.5 0 20.5 q2 10 6 20 q4 10 11 17 q54 53 94 123.5 q40 70.5 66 155.5 Z" /><glyph glyph-name="" unicode="&#x4eff;" d="M423 623 q0 10 4 18 q4 8 11 15 q7 7 16 11 q9 4 18 4 l544 0 q9 0 17.5 -4 q8.5 -4 15.5 -11 q7 -7 11 -15 q4 -8 4 -18 q0 -9 -4 -17.5 q-4 -8.5 -11 -15 q-7 -6.5 -15.5 -11 q-8.5 -4.5 -17.5 -4.5 l-328 0 q1 -2 0 -5 q-2 -64 -7 -126 l4 2 q9 4 19 4 l247 0 q10 0 19 -4 q9 -4 16 -11 l2 -2 q4 -3 7 -7 q4 -6 5 -11 q1 -5 1 -10 q0 -7 -2 -13 q-5 -102 -10 -175 q-5 -77 -12 -128.5 q-7 -51.5 -15.5 -80.5 q-8.5 -29 -20.5 -43 q-18 -20 -37 -28 q-19 -8 -45 -10 q-16 -3 -41 -3 q-25 0 -53 1 q-16 0 -31.5 10.5 q-15.5 10.5 -18.5 23.5 q-6 23 9.5 38.5 q15.5 15.5 46.5 15.5 q7 -1 12 -1 q5 0 9 -0.5 q4 -0.5 9 -0.5 l13 0 q13 0 21 2 q8 2 16 10 l3 3 q9 11 15.5 36.5 q6.5 25.5 12.5 73.5 q6 48 10 120 q3 45 5 102 l-193 0 q-10 0 -19 4 q-6 3 -11 7 q-9 -78 -28 -148 q-21 -80 -59 -150 q-38 -70 -101 -124 q-7 -7 -16.5 -10 q-9.5 -3 -19 -3 q-9.5 0 -18 3 q-8.5 3 -14.5 9 q-15 16 -12 39.5 q3 23.5 20 42.5 q52 48 82 109 q30 61 46.5 131.5 q16.5 70.5 22 148 q5.5 77.5 8.5 156.5 l0 2 l-113 0 q-9 0 -18 4.5 q-9 4.5 -16 11 q-7 6.5 -11 15 q-4 8.5 -4 17.5 ZM336 801 q4 8 11 15 q7 7 16 11 q9 4 18 5.5 q9 1.5 18 -1.5 q10 -3 17 -10 q7 -7 11 -15.5 q4 -8.5 4.5 -19 q0.5 -10.5 -3.5 -19.5 q-35 -87 -80 -170 l0 -630 q0 -10 -4 -19 q-4 -9 -11 -16 q-7 -7 -15.5 -11 q-8.5 -4 -17 -4 q-8.5 0 -17.5 4 q-9 4 -15.5 11 q-6.5 7 -10.5 16 q-4 9 -4 18 l0 480 l-28 -36 q-8 -10 -18.5 -14 q-10.5 -4 -21 -3 q-10.5 1 -20 7.5 q-9.5 6.5 -15.5 16.5 q-1 2 -1.5 4 q-0.5 2 -1.5 3 q-8 14 -6 33.5 q2 19.5 12 31.5 q55 62 102 143 q47 81 81 169 ZM691 774 q-2 9 -1 19 q1 10 6 19 q5 9 13 15.5 q8 6.5 17 8.5 l6 2 q15 3 32.5 -6 q17.5 -9 23.5 -25 q6 -15 11.5 -31.5 q5.5 -16.5 9.5 -30.5 q3 -9 2 -18.5 q-1 -9.5 -6 -18 q-5 -8.5 -12 -14.5 q-7 -6 -15 -9 l-7 -1 q-9 -3 -19 -1 q-10 2 -19 7.5 q-9 5.5 -15.5 14 q-6.5 8.5 -9.5 18.5 q-3 11 -7 24 q-4 13 -10 27 Z" /><glyph glyph-name="" unicode="&#x4f01;" d="M177 -12 q0 9 4 16.5 q4 7.5 11.5 14 q7.5 6.5 16.5 10 q9 3.5 18 3.5 l68 0 l0 310 q0 10 4 19 q4 9 11 16.5 q7 7.5 16 11.5 q9 4 17.5 4 q8.5 0 17.5 -4 q9 -4 15.5 -11.5 q6.5 -7.5 10.5 -16.5 q4 -9 4 -19 l0 -304 q0 -3 -1 -6 l166 0 l0 482 q0 10 4 18.5 q4 8.5 11 16 q7 7.5 16 11.5 q9 4 18 4 l5 0 q10 0 18.5 -4 q8.5 -4 15.5 -11.5 q7 -7.5 11 -16 q4 -8.5 4 -18.5 l0 -169 l230 0 q9 0 18.5 -3.5 q9.5 -3.5 16 -10 q6.5 -6.5 11 -14 q4.5 -7.5 4.5 -16 q0 -8.5 -4.5 -16.5 q-4.5 -8 -11 -14 q-6.5 -6 -16 -10 q-9.5 -4 -18.5 -4 l-230 0 l0 -225 l322 0 q10 0 18.5 -3.5 q8.5 -3.5 16 -10 q7.5 -6.5 11.5 -14 q4 -7.5 4 -16 q0 -8.5 -4 -16.5 q-4 -8 -11.5 -14.5 q-7.5 -6.5 -16 -10.5 q-8.5 -4 -18.5 -4 l-754 0 q-9 0 -18 4 q-9 4 -16.5 10.5 q-7.5 6.5 -11.5 14.5 q-4 8 -4 16 ZM566 820 q10 13 29 18 q19 5 33 -2 q9 -4 15.5 -12.5 q6.5 -8.5 8.5 -18.5 q2 -10 0 -21 q0 -2 -1 -4 q10 -4 17 -10 q76 -84 162 -141.5 q86 -57.5 178 -99.5 q26 -11 34 -33 q8 -22 -6 -42 q-4 -6 -11.5 -10.5 q-7.5 -4.5 -16.5 -7 q-9 -2.5 -18.5 -2 q-9.5 0.5 -17.5 3.5 q-97 48 -188 111.5 q-91 63.5 -178 160.5 q-2 2 -4 5 q-21 -24 -45 -47 q-46 -46 -98.5 -88 q-52.5 -42 -109.5 -77.5 q-57 -35.5 -116 -64.5 q-7 -3 -16.5 -3.5 q-9.5 -0.5 -18 1.5 q-8.5 2 -16 6.5 q-7.5 4.5 -12.5 10.5 q-16 20 -9 42.5 q7 22.5 31 34.5 q55 25 107.5 57 q52.5 32 100.5 69 q48 37 90 78.5 q42 41.5 76 85.5 Z" /><glyph glyph-name="" unicode="&#x4f0f;" d="M415 510 q0 9 4.5 17.5 q4.5 8.5 11.5 15.5 q7 7 16 11 q9 4 18 4 l201 0 l0 235 q0 9 4 18 q4 9 11.5 16.5 q7.5 7.5 16 11.5 q8.5 4 17.5 4 l2 0 q10 0 18 -4 q8 -4 15 -11.5 q7 -7.5 11 -16 q4 -8.5 4 -18.5 l0 -235 l237 0 q9 0 17.5 -4 q8.5 -4 16 -11 q7.5 -7 11.5 -15.5 q4 -8.5 4 -17.5 q0 -9 -4 -17.5 q-4 -8.5 -11.5 -15.5 q-7.5 -7 -16 -11.5 q-8.5 -4.5 -17.5 -4.5 l-224 0 q16 -65 37 -125 q23 -63 52.5 -117 q29.5 -54 66 -99 q36.5 -45 81.5 -78 q19 -17 22 -41.5 q3 -24.5 -12 -42.5 q-6 -7 -15.5 -11.5 q-9.5 -4.5 -19.5 -5.5 q-10 -1 -19.5 1.5 q-9.5 2.5 -17.5 9.5 q-50 40 -90 91.5 q-40 51.5 -72 114.5 q-32 63 -57 135 q-1 5 -2 9 q-4 -16 -9 -31 q-26 -85 -75.5 -167.5 q-49.5 -82.5 -131.5 -155.5 q-6 -7 -15 -10 q-9 -3 -18.5 -3.5 q-9.5 -0.5 -18.5 2 q-9 2.5 -15 7.5 q-18 14 -18.5 38 q-0.5 24 15.5 41 q74 69 117.5 141.5 q43.5 72.5 66.5 146 q23 73.5 30 146.5 l0 4 l-195 0 q-9 0 -18 4.5 q-9 4.5 -16 11.5 q-7 7 -11.5 15.5 q-4.5 8.5 -4.5 17.5 ZM346 800 q3 8 10 14.5 q7 6.5 16 11 q9 4.5 18.5 6 q9.5 1.5 17.5 -0.5 q9 -3 16 -10 q7 -7 11.5 -16 q4.5 -9 5 -19 q0.5 -10 -3.5 -19 q-34 -83 -77 -161 l0 -639 q0 -10 -4 -19 q-4 -9 -11 -16.5 q-7 -7.5 -15.5 -11.5 q-8.5 -4 -18.5 -4 l-1 0 q-9 0 -17.5 4 q-8.5 4 -15.5 11.5 q-7 7.5 -11 16 q-4 8.5 -4 18.5 l0 487 q-19 -25 -38 -48 q-8 -11 -18.5 -15 q-10.5 -4 -21 -3 q-10.5 1 -20 7.5 q-9.5 6.5 -15.5 17.5 l-4 8 q-8 12 -5.5 31.5 q2.5 19.5 12.5 31.5 q57 63 107 145 q50 82 87 172 ZM856 732 q-5 9 -7 19 q-2 10 0 19.5 q2 9.5 6.5 18 q4.5 8.5 12.5 12.5 q6 3 14.5 3.5 q8.5 0.5 16.5 -1.5 q8 -2 15.5 -7 q7.5 -5 11.5 -11 q20 -24 39 -50.5 q19 -26.5 32 -48.5 q5 -6 6 -15 q1 -9 -1 -17.5 q-2 -8.5 -6.5 -15.5 q-4.5 -7 -11.5 -11 q-8 -5 -18 -6 q-10 -1 -20 3 q-10 4 -18.5 10.5 q-8.5 6.5 -14.5 16.5 q-11 18 -26.5 39.5 q-15.5 21.5 -30.5 41.5 Z" /><glyph glyph-name="" unicode="&#x4f11;" d="M682 780 q0 9 4 18 q4 9 11.5 16 q7.5 7 16 11.5 q8.5 4.5 17.5 4.5 q9 0 17.5 -4.5 q8.5 -4.5 15.5 -11.5 q7 -7 11 -16 q4 -9 4 -18 l0 -184 l228 0 q8 0 17.5 -4 q9.5 -4 16 -11 q6.5 -7 11 -15.5 q4.5 -8.5 4.5 -17 q0 -8.5 -4.5 -17.5 q-4.5 -9 -11 -15.5 q-6.5 -6.5 -16 -10.5 q-9.5 -4 -17.5 -4 l-180 0 q16 -42 37 -83 q25 -51 53.5 -97.5 q28.5 -46.5 60 -87.5 q31.5 -41 63.5 -74 q15 -17 16 -40.5 q1 -23.5 -13 -37.5 q-7 -7 -17 -11 q-10 -4 -20 -4 q-10 0 -19.5 4.5 q-9.5 4.5 -17.5 13.5 q-33 38 -65.5 85.5 q-32.5 47.5 -62 100.5 q-29.5 53 -54.5 110 q-5 10 -9 20 l0 -435 q0 -10 -4 -18.5 q-4 -8.5 -11 -16 q-7 -7.5 -15.5 -11.5 q-8.5 -4 -17.5 -4 q-9 0 -17.5 4 q-8.5 4 -16 11.5 q-7.5 7.5 -11.5 16 q-4 8.5 -4 18.5 l0 412 l-2 -6 q-28 -58 -59.5 -111.5 q-31.5 -53.5 -66 -101 q-34.5 -47.5 -71.5 -85.5 q-7 -8 -16.5 -11.5 q-9.5 -3.5 -19 -3.5 q-9.5 0 -19 3.5 q-9.5 3.5 -16.5 10.5 q-7 8 -10.5 18 q-3.5 10 -2.5 21 q1 11 5.5 22 q4.5 11 12.5 19 q34 33 67 75 q33 42 62 89 q29 47 55 98 q21 43 38 87 l-176 0 q-9 0 -18 4 q-9 4 -16 10.5 q-7 6.5 -11.5 15.5 q-4.5 9 -4.5 17.5 q0 8.5 4.5 17 q4.5 8.5 11.5 15.5 q7 7 16 11 q9 4 18 4 l219 0 l0 184 ZM361 796 q8 16 27 25 q19 9 36 4 l4 -1 q9 -3 16 -10 q7 -7 11 -16 q4 -9 4.5 -19.5 q0.5 -10.5 -4.5 -19.5 q-37 -85 -85 -164 l0 -628 q0 -9 -4 -18 q-4 -9 -11 -16 q-7 -7 -15.5 -11.5 q-8.5 -4.5 -17.5 -4.5 q-9 0 -17.5 4.5 q-8.5 4.5 -16 11.5 q-7.5 7 -11.5 16 q-4 9 -4 19 l0 487 q-26 -33 -55 -63 q-8 -10 -18 -13.5 q-10 -3.5 -20.5 -2 q-10.5 1.5 -20 7.5 q-9.5 6 -15.5 17 l-5 8 q-9 14 -6 34.5 q3 20.5 15 32.5 q63 62 118.5 145 q55.5 83 94.5 175 Z" /><glyph glyph-name="" unicode="&#x4f17;" d="M563 813 q10 14 29.5 22 q19.5 8 35.5 2 l5 -3 q9 -4 15.5 -11.5 q6.5 -7.5 10 -16.5 q3.5 -9 3 -19.5 q-0.5 -10.5 -6.5 -18.5 l-2 -4 q7 -5 12 -11 q27 -37 63 -71 q36 -34 78 -64 q42 -30 89 -55 q47 -25 96 -43 q27 -10 35 -33.5 q8 -23.5 -8 -45.5 q-9 -12 -27 -17.5 q-18 -5.5 -32 -0.5 q-55 21 -106.5 51 q-51.5 30 -98 66 q-46.5 36 -87.5 79 q-34 35 -62 73 q-52 -70 -120 -127 q-102 -87 -230 -144 q-7 -4 -16.5 -4.5 q-9.5 -0.5 -18.5 2.5 q-9 3 -17 8.5 q-8 5.5 -13 11.5 q-16 22 -10 45.5 q6 23.5 32 35.5 q113 46 204 120 q91 74 147 173 ZM717 428 q1 10 6.5 18 q5.5 8 13 14.5 q7.5 6.5 16.5 10 q9 3.5 18 2.5 l2 0 q9 -1 17 -6.5 q8 -5.5 14 -13 q6 -7.5 9 -17 q3 -9.5 1 -18.5 q-7 -51 -16 -97 q4 -3 7 -6 q8 -8 12 -18 q12 -33 28 -67 q16 -34 37.5 -66 q21.5 -32 48.5 -60.5 q27 -28.5 60 -51.5 q20 -17 25.5 -42 q5.5 -25 -9.5 -44 q-5 -7 -13 -11.5 q-8 -4.5 -17.5 -6 q-9.5 -1.5 -18.5 0 q-9 1.5 -17 7.5 q-40 31 -73 69 q-33 38 -58.5 80 q-25.5 42 -44.5 85 q-1 2 -2 3 q-8 -25 -18 -48 q-24 -59 -56.5 -108 q-32.5 -49 -74.5 -90 q-5 -6 -13.5 -9 q-8.5 -3 -17.5 -4 q-9 -1 -17.5 1 q-8.5 2 -14.5 7 q-19 14 -19 38.5 q0 24.5 18 44.5 q73 70 111.5 171.5 q38.5 101.5 55.5 231.5 ZM356 433 q1 9 6 17.5 q5 8.5 13 14.5 q8 6 17 9.5 q9 3.5 18 3.5 l1 0 q9 -1 17 -6.5 q8 -5.5 14.5 -13 q6.5 -7.5 9 -17 q2.5 -9.5 1.5 -19.5 q-8 -57 -20 -109 q11 -2 19 -9 q18 -14 35.5 -29.5 q17.5 -15.5 34.5 -31.5 q17 -16 32.5 -31 q15.5 -15 28.5 -29 q6 -5 8.5 -13 q2.5 -8 2 -17 q-0.5 -9 -3 -17 q-2.5 -8 -7.5 -13 q-8 -8 -18 -11.5 q-10 -3.5 -21 -3 q-11 0.5 -21 5.5 q-10 5 -18 14 q-10 12 -23 25 l-27 27 q-14 14 -29 27 q-8 8 -17 16 q-11 -35 -24 -68 q-45 -117 -124 -199 q-5 -7 -14 -10.5 q-9 -3.5 -18 -4.5 q-9 -1 -18 1 q-9 2 -15 7 q-9 6 -14 16 q-5 10 -5 21.5 q0 11.5 4 23 q4 11.5 12 21.5 q68 72 106.5 173 q38.5 101 56.5 229 Z" /><glyph glyph-name="" unicode="&#x4f18;" d="M393 566 q0 9 4 17 q4 8 11.5 14.5 q7.5 6.5 16.5 10 q9 3.5 18 3.5 l164 0 q3 85 3 171 q0 10 4 18.5 q4 8.5 11 15.5 q7 7 16 11.5 q9 4.5 18 4.5 q9 0 17.5 -4.5 q8.5 -4.5 16 -11.5 q7.5 -7 11 -16 q3.5 -9 3.5 -19 q0 -85 -4 -170 l301 0 q9 0 18 -3.5 q9 -3.5 16 -10 q7 -6.5 11 -14.5 q4 -8 4 -17 q0 -9 -4 -17.5 q-4 -8.5 -11 -15 q-7 -6.5 -16 -10.5 q-9 -4 -18 -4 l-305 0 q-7 -108 -28 -206 q-23 -109 -68.5 -201.5 q-45.5 -92.5 -124.5 -162.5 q-7 -6 -16.5 -8.5 q-9.5 -2.5 -19 -2 q-9.5 0.5 -18 4 q-8.5 3.5 -14.5 10.5 q-15 16 -12.5 40 q2.5 24 21.5 42 q68 62 106.5 145.5 q38.5 83.5 57.5 180.5 q14 76 20 158 l-160 0 q-9 0 -18 4 q-9 4 -16.5 10.5 q-7.5 6.5 -11.5 15 q-4 8.5 -4 17.5 ZM341 797 q3 8 10 15 q7 7 15.5 11.5 q8.5 4.5 17.5 6 q9 1.5 17 -1.5 q10 -3 17 -9.5 q7 -6.5 11 -15.5 q4 -9 5 -19 q1 -10 -4 -19 q-36 -91 -83 -176 l0 -624 q0 -9 -4 -18 q-4 -9 -10.5 -16 q-6.5 -7 -15 -11 q-8.5 -4 -17.5 -4 q-9 0 -17 4 q-8 4 -14.5 11 q-6.5 7 -10.5 16 q-4 9 -4 18 l0 477 q-13 -17 -26 -33 q-8 -10 -18 -14.5 q-10 -4.5 -20.5 -3.5 q-10.5 1 -20 7.5 q-9.5 6.5 -15.5 18.5 q-1 1 -1.5 2 q-0.5 1 -1.5 2 q-8 13 -6 32.5 q2 19.5 12 31.5 q54 62 101.5 143 q47.5 81 82.5 169 ZM731 400 q0 10 4 18.5 q4 8.5 11 15.5 q7 7 15.5 11.5 q8.5 4.5 17.5 4.5 q10 0 18 -4.5 q8 -4.5 15 -11.5 q7 -7 11 -15.5 q4 -8.5 4 -18.5 l0 -331 q0 -25 5.5 -32 q5.5 -7 25.5 -7 l83 0 q8 0 13 3 q5 3 8.5 11 q3.5 8 6 22.5 q2.5 14.5 3.5 37.5 q3 30 20.5 45 q17.5 15 39.5 6 q12 -5 20 -20 q8 -15 7 -29 q-4 -48 -10.5 -80 q-6.5 -32 -18.5 -51 q-12 -19 -31 -26.5 q-19 -7.5 -49 -7.5 l-107 0 q-33 0 -55 6 q-22 6 -34.5 21 q-12.5 15 -17.5 39.5 q-5 24.5 -5 61.5 l0 331 ZM837 731 q-7 9 -10.5 19 q-3.5 10 -3.5 19.5 q0 9.5 3.5 18.5 q3.5 9 11.5 14 q11 7 28.5 5 q17.5 -2 28.5 -14 q21 -20 41.5 -41.5 q20.5 -21.5 36.5 -39.5 q11 -14 9.5 -33.5 q-1.5 -19.5 -14.5 -29.5 q-7 -5 -16.5 -6.5 q-9.5 -1.5 -19.5 1 q-10 2.5 -19.5 8 q-9.5 5.5 -15.5 13.5 q-12 15 -28 32.5 q-16 17.5 -32 33.5 Z" /><glyph glyph-name="" unicode="&#x4f19;" d="M686 784 q0 10 4 18.5 q4 8.5 11 16 q7 7.5 15.5 11.5 q8.5 4 17.5 4 l8 0 q10 0 18.5 -4 q8.5 -4 15.5 -11.5 q7 -7.5 10.5 -16.5 q3.5 -9 3.5 -18 q0 -155 -6 -285 q-2 -31 -4 -60 q4 -8 6 -16 q10 -68 28 -126 q18 -58 45 -106.5 q27 -48.5 64.5 -86 q37.5 -37.5 87.5 -63.5 q23 -15 30 -39 q7 -24 -8 -46 q-4 -7 -12 -11.5 q-8 -4.5 -17 -7 q-9 -2.5 -18.5 -2 q-9.5 0.5 -16.5 5.5 q-62 31 -107.5 76.5 q-45.5 45.5 -77.5 104.5 q-26 48 -45 105 q-28 -83 -75 -150 q-58 -81 -162 -138 q-8 -6 -17.5 -7 q-9.5 -1 -19 1 q-9.5 2 -17 6.5 q-7.5 4.5 -12.5 10.5 q-15 19 -10 42.5 q5 23.5 27 38.5 q88 51 135 122.5 q47 71.5 68.5 164.5 q21.5 93 25.5 209 q4 116 4 257 ZM346 801 q4 8 10.5 14.5 q6.5 6.5 15 11 q8.5 4.5 18 5.5 q9.5 1 17.5 -2 l2 0 q9 -3 16 -10 q7 -7 11 -16 q4 -9 4.5 -19.5 q0.5 -10.5 -3.5 -18.5 q-33 -78 -74 -152 l0 -647 q0 -10 -4 -19 q-4 -9 -10.5 -16 q-6.5 -7 -15.5 -11 q-9 -4 -18 -4 l-5 0 q-9 0 -18 4 q-9 4 -15.5 11 q-6.5 7 -10.5 16 q-4 9 -4 18 l0 489 q-18 -24 -36 -45 q-8 -10 -19 -14.5 q-11 -4.5 -21.5 -3 q-10.5 1.5 -20 8 q-9.5 6.5 -15.5 17.5 q-1 2 -1.5 4 q-0.5 2 -2.5 3 q-7 14 -4.5 33.5 q2.5 19.5 13.5 31.5 q56 61 105 142 q49 81 86 169 ZM491 606 q1 9 6 18 q5 9 13 15.5 q8 6.5 17.5 9.5 q9.5 3 19.5 2 q8 -1 15 -6 q7 -5 13 -12.5 q6 -7.5 9 -16 q3 -8.5 2 -16.5 q-6 -57 -18.5 -116.5 q-12.5 -59.5 -30.5 -108.5 q-3 -8 -9.5 -15 q-6.5 -7 -15.5 -11.5 q-9 -4.5 -18.5 -5 q-9.5 -0.5 -16.5 2.5 l-4 1 q-9 3 -15.5 10.5 q-6.5 7.5 -10.5 17 q-4 9.5 -5 20.5 q-1 11 2 19 q16 41 28 91.5 q12 50.5 19 100.5 ZM945 607 q2 10 8 18.5 q6 8.5 15 14.5 q9 6 19 8 q10 2 20 -1 l6 -1 q9 -2 16.5 -8.5 q7.5 -6.5 12 -15.5 q4.5 -9 6 -19 q1.5 -10 -0.5 -19 q-19 -52 -39.5 -104 q-20.5 -52 -39.5 -95 q-3 -8 -10 -14 q-7 -6 -15 -10.5 q-8 -4.5 -16.5 -5 q-8.5 -0.5 -15.5 1.5 q-9 2 -16 9 q-7 7 -11.5 15.5 q-4.5 8.5 -5.5 18.5 q-1 10 1 20 q9 21 18 44 q9 23 17.5 47.5 q8.5 24.5 16.5 48.5 q8 24 14 47 Z" /><glyph glyph-name="" unicode="&#x4f1a;" d="M188 298 q0 9 4.5 17.5 q4.5 8.5 11.5 15.5 q7 7 16 11 q9 4 18 4 l731 0 q9 0 18 -4 q9 -4 16 -11 q7 -7 11 -15.5 q4 -8.5 4 -17 q0 -8.5 -4 -17.5 q-4 -9 -11 -15.5 q-7 -6.5 -16 -10.5 q-9 -4 -18 -4 l-396 0 q0 -6 -2 -12 q-2 -10 -9 -17 q-54 -65 -112 -125 q-23 -22 -45 -43 l403 27 l-12 14 q-21 24 -42 44 q-8 10 -11.5 21 q-3.5 11 -2.5 21.5 q1 10.5 7.5 19.5 q6.5 9 16.5 14 q10 6 25.5 3.5 q15.5 -2.5 25.5 -10.5 q24 -23 48.5 -48 q24.5 -25 47.5 -51 q23 -26 43.5 -51.5 q20.5 -25.5 36.5 -47.5 q5 -8 6.5 -17 q1.5 -9 -0.5 -18.5 q-2 -9.5 -7 -17.5 q-5 -8 -13 -13 l-3 -1 q-8 -6 -18 -6.5 q-10 -0.5 -20 2 q-10 2.5 -19 8 q-9 5.5 -15 13.5 q-12 19 -27 39 q-8 -4 -16 -4 q-130 -10 -221 -17.5 q-91 -7.5 -153.5 -13 q-62.5 -5.5 -100.5 -9 q-38 -3.5 -61 -6.5 q-13 -2 -24.5 0.5 q-11.5 2.5 -20.5 8.5 q-5 2 -8 5 l-1 1 q-9 2 -16.5 8 q-7.5 6 -10.5 16 q-3 9 -1.5 19.5 q1.5 10.5 7 20.5 q5.5 10 13.5 19 q8 9 16 17 l3 1 l0 1 q1 1 6 5 q5 4 17 15 q11 9 30 28.5 q19 19.5 42.5 45.5 q23.5 26 50.5 58 q13 16 26 33 l-214 0 q-9 0 -18 4 q-9 4 -16 10.5 q-7 6.5 -11.5 15.5 q-4.5 9 -4.5 17 ZM365 494 q0 8 4 16 q3 5 5 8 q-61 -38 -129 -71 q-7 -4 -16.5 -4.5 q-9.5 -0.5 -18 2 q-8.5 2.5 -16.5 7.5 q-8 5 -13 10 q-15 21 -9 45 q6 24 31 36 q116 54 213 124.5 q97 70.5 160 150.5 q9 11 27.5 15.5 q18.5 4.5 32.5 -2.5 l1 -1 q10 -4 16.5 -12.5 q6.5 -8.5 9 -19 q2.5 -10.5 0.5 -20.5 q-2 -6 -5 -11 q28 -27 63 -54 q38 -31 83 -60 q45 -29 94.5 -55.5 q49.5 -26.5 101.5 -48.5 q26 -10 32.5 -33 q6.5 -23 -9.5 -44 q-9 -12 -28 -17.5 q-19 -5.5 -32 0.5 q-54 24 -107 55.5 q-53 31.5 -101 65.5 q-48 34 -90 69 q-34 29 -62 57 q-59 -62 -130 -116 q-33 -25 -68 -48 q5 1 11 1 l372 0 q10 0 19 -3.5 q9 -3.5 16 -10.5 q7 -7 11 -15 q4 -8 4 -16 q0 -9 -4 -17 q-4 -8 -11 -14.5 q-7 -6.5 -16 -10 q-9 -3.5 -19 -3.5 l-372 0 q-10 0 -19 3.5 q-9 3.5 -16 10 q-7 6.5 -11.5 14.5 q-4.5 8 -4.5 17 Z" /><glyph glyph-name="" unicode="&#x4f1f;" d="M440 670 q0 9 4 17 q4 8 11 14.5 q7 6.5 16.5 10.5 q9.5 4 17.5 4 l183 0 l0 79 q0 10 4.5 18.5 q4.5 8.5 11 16 q6.5 7.5 15 11.5 q8.5 4 17.5 4 q9 0 17 -4 q8 -4 15 -11.5 q7 -7.5 10.5 -16 q3.5 -8.5 3.5 -18.5 l0 -79 l216 0 q9 0 18 -4 q9 -4 16 -10.5 q7 -6.5 11.5 -14.5 q4.5 -8 4.5 -17 q0 -8 -4.5 -16 q-4.5 -8 -11.5 -14.5 q-7 -6.5 -16 -10.5 q-9 -4 -18 -4 l-216 0 l0 -93 l183 0 q9 0 18 -3.5 q9 -3.5 16 -10.5 q7 -7 11 -15 q4 -8 4 -17 q0 -8 -4 -16 q-4 -8 -11 -14.5 q-7 -6.5 -16 -10.5 q-9 -4 -18 -4 l-183 0 l0 -98 l239 0 q9 0 16 -3 q9 -3 16 -7 q7 -4 11.5 -10.5 q4.5 -6.5 4.5 -12.5 q2 -6 2 -12 q0 -8 -4 -16 q-3 -53 -7 -93 q-5 -49 -10.5 -81.5 q-5.5 -32.5 -13 -52.5 q-7.5 -20 -16.5 -30 q-11 -14 -24.5 -20.5 q-13.5 -6.5 -30.5 -8.5 q-8 -2 -19 -2 l-25 0 q-8 -1 -16 1.5 q-8 2.5 -15 7.5 q-7 5 -11.5 10.5 q-4.5 5.5 -5.5 11.5 q-5 21 1 36 q6 15 22 15 q8 -1 12 -1 l12 0 q9 0 15 2 q6 2 12 8 q5 7 10 22.5 q5 15.5 9.5 44.5 q4.5 29 8.5 72 q1 13 2 28 l-195 0 l0 -286 q0 -10 -3.5 -18.5 q-3.5 -8.5 -10.5 -16 q-7 -7.5 -15 -11.5 q-8 -4 -17 -4 q-9 0 -17.5 4 q-8.5 4 -15 11.5 q-6.5 7.5 -11 16 q-4.5 8.5 -4.5 18.5 l0 286 l-214 0 q-9 0 -18 4 q-9 4 -16 10.5 q-7 6.5 -11 14.5 q-4 8 -4 17 q0 8 4 16 q4 8 11 14.5 q7 6.5 16 10.5 q9 4 18 4 l214 0 l0 98 l-158 0 q-9 0 -18 4 q-9 4 -16 10.5 q-7 6.5 -11.5 14.5 q-4.5 8 -4.5 16 q0 9 4.5 17 q4.5 8 11.5 15 q7 7 16 10.5 q9 3.5 18 3.5 l158 0 l0 93 l-183 0 q-8 0 -17.5 4 q-9.5 4 -16.5 10.5 q-7 6.5 -11 14.5 q-4 8 -4 16 ZM342 796 q4 8 11 15 q7 7 15 11.5 q8 4.5 17 6 q9 1.5 18 -1.5 q9 -3 16 -9.5 q7 -6.5 11 -15.5 q4 -9 5 -19 q1 -10 -3 -19 q-34 -85 -78 -165 l0 -634 q0 -10 -3.5 -19 q-3.5 -9 -10.5 -16 q-7 -7 -15 -11 q-8 -4 -17 -4 q-9 0 -17 4 q-8 4 -15 11.5 q-7 7.5 -11 16 q-4 8.5 -4 18.5 l0 484 q-15 -21 -31 -41 q-8 -10 -18.5 -14.5 q-10.5 -4.5 -20.5 -3.5 q-10 1 -19.5 7.5 q-9.5 6.5 -16.5 18.5 q-1 1 -1 2 q0 1 -1 2 q-8 14 -6 33 q2 19 12 31 q54 62 101 143 q47 81 82 169 Z" /><glyph glyph-name="" unicode="&#x4f20;" d="M651 793 q3 8 8 15.5 q5 7.5 13 12.5 q8 5 16.5 8.5 q8.5 3.5 16.5 1.5 q10 -1 18.5 -7 q8.5 -6 14 -14.5 q5.5 -8.5 7.5 -18.5 q2 -10 0 -20 q-5 -18 -10 -37 l225 0 q10 0 18.5 -3.5 q8.5 -3.5 16 -10.5 q7.5 -7 11.5 -15 q4 -8 4 -16 q0 -8 -4 -16 q-4 -8 -11.5 -14.5 q-7.5 -6.5 -16 -10.5 q-8.5 -4 -18.5 -4 l-248 0 q-13 -50 -26 -98 l324 0 q9 0 18 -3.5 q9 -3.5 16 -10.5 q7 -7 11 -15 q4 -8 4 -17 q0 -8 -4 -16 q-4 -8 -11 -14.5 q-7 -6.5 -16 -10.5 q-9 -4 -18 -4 l-350 0 q-8 -28 -15 -54 q-8 -25 -14 -48 l269 0 q9 0 18 -4 q1 1 3 2 q4 2 9 2 q2 0 4 0.5 q2 0.5 4 0.5 q4 2 12.5 0 q8.5 -2 14.5 -5 l4 -3 q9 -6 14.5 -15 q5.5 -9 7 -19.5 q1.5 -10.5 -1.5 -20.5 q-3 -10 -10 -18 q-23 -27 -48.5 -55 q-25.5 -28 -52 -57 q-26.5 -29 -53.5 -58 l-30 -32 q11 -8 21 -16 q24 -18 44 -35 q7 -6 11.5 -15 q4.5 -9 4.5 -19 q0 -10 -3 -19.5 q-3 -9.5 -10 -16.5 q-6 -7 -15.5 -10.5 q-9.5 -3.5 -19.5 -4 q-10 -0.5 -20 2.5 q-10 3 -17 10 q-17 15 -38 33 q-21 18 -44 35.5 q-23 17.5 -47.5 35.5 q-24.5 18 -48.5 33 q-10 7 -15.5 16.5 q-5.5 9.5 -7 20.5 q-1.5 11 2.5 20.5 q4 9.5 12 17.5 q9 7 24.5 8 q15.5 1 26.5 -4 q27 -16 55 -35 q5 -3 9 -6 q23 24 46 50 q29 31 56 60 q13 15 25 29 l-218 0 q-8 0 -17 4 q-8 3 -14 8 l-2 -2 q-14 -10 -28 -10 l-5 0 q-12 0 -22 5 q-10 5 -16 14 q-6 9 -7.5 20.5 q-1.5 11.5 1.5 22.5 q16 50 34 108 q3 11 7 23 l-119 0 q-9 0 -18 4 q-9 4 -16 10.5 q-7 6.5 -11 14.5 q-4 8 -4 16 q0 9 4 17 q4 8 11 15 q7 7 16 10.5 q9 3.5 18 3.5 l145 0 l2 6 q13 46 25 92 l-114 0 q-9 0 -18 4 q-9 4 -16 10.5 q-7 6.5 -11 14.5 q-4 8 -4 16 q0 8 4 16 q4 8 11 15 q7 7 16 10.5 q9 3.5 18 3.5 l138 0 q7 30 14 59 ZM336 797 q3 9 10 15 q7 6 15.5 10.5 q8.5 4.5 18 6 q9.5 1.5 16.5 -1.5 q10 -3 17 -9.5 q7 -6.5 11 -15.5 q4 -9 5 -19.5 q1 -10.5 -3 -19.5 q-36 -85 -82 -165 l0 -631 q0 -10 -4 -19 q-4 -9 -10.5 -16 q-6.5 -7 -15 -11 q-8.5 -4 -17.5 -4 q-9 0 -17.5 4 q-8.5 4 -15.5 11 q-7 7 -11 16 q-4 9 -4 18 l0 487 q-17 -24 -35 -45 q-9 -11 -19 -15 q-10 -4 -20.5 -3 q-10.5 1 -20 7.5 q-9.5 6.5 -15.5 18.5 q-1 1 -1.5 2 q-0.5 1 -1.5 2 q-8 14 -5.5 33 q2.5 19 12.5 32 q57 62 107 143 q50 81 86 169 Z" /><glyph glyph-name="" unicode="&#x4f24;" d="M444 386 q0 8 4 16 q4 8 11.5 14.5 q7.5 6.5 16 10 q8.5 3.5 17.5 3.5 l149 0 q4 45 6 91 q0 9 4.5 17.5 q4.5 8.5 11.5 15.5 q7 7 15.5 11 q8.5 4 17.5 4 q9 0 18.5 -4.5 q9.5 -4.5 16 -11.5 q6.5 -7 10.5 -16.5 q4 -9.5 3 -18.5 q-2 -45 -6 -88 l227 0 q9 0 18 -3 q3 -2 7 -4 l6 -4 q8 -5 12 -11 q5 -7 5 -14 q1 -4 1 -8 q0 -6 -2 -11 q-2 -97 -6 -166 q-3 -73 -8.5 -121.5 q-5.5 -48.5 -13 -76.5 q-7.5 -28 -18.5 -41 q-15 -20 -33 -27.5 q-18 -7.5 -44 -10.5 q-16 -1 -41.5 -1.5 q-25.5 -0.5 -55.5 0.5 q-16 -1 -31.5 10 q-15.5 11 -18.5 24 q-6 21 9.5 37 q15.5 16 45.5 15 q9 0 14.5 -0.5 q5.5 -0.5 11.5 -0.5 l23 0 q14 0 22.5 2 q8.5 2 15.5 10 q8 9 13.5 33 q5.5 24 9.5 69.5 q4 45.5 7 115.5 q2 42 4 94 l-190 0 q-11 -81 -36 -154 q-27 -75 -73 -138 q-46 -63 -121 -111 q-7 -5 -16 -7 q-9 -2 -18 -1 q-9 1 -16.5 4.5 q-7.5 3.5 -12.5 9.5 q-15 17 -8.5 39.5 q6.5 22.5 26.5 39.5 q61 41 98 96 q37 55 57 120 q15 49 23 102 l-139 0 q-9 0 -17.5 4 q-8.5 4 -16 10.5 q-7.5 6.5 -11.5 14.5 q-4 8 -4 17 ZM338 799 q3 8 10 14.5 q7 6.5 15.5 10.5 q8.5 4 18 5.5 q9.5 1.5 16.5 -1.5 q10 -2 17 -9 q7 -7 11 -16 q4 -9 5 -19 q1 -10 -3 -19 q-37 -89 -84 -171 l0 -628 q0 -9 -4 -18 q-4 -9 -10.5 -16 q-6.5 -7 -15 -11 q-8.5 -4 -17.5 -4 q-9 0 -17 4 q-8 4 -14.5 11 q-6.5 7 -10.5 16 q-4 9 -4 18 l0 486 q-17 -22 -35 -44 q-8 -10 -18.5 -14.5 q-10.5 -4.5 -21 -3 q-10.5 1.5 -20 8 q-9.5 6.5 -15.5 18.5 q-1 1 -1 2 l-2 3 q-8 13 -5.5 32 q2.5 19 12.5 31 q57 62 107 143.5 q50 81.5 86 170.5 ZM561 797 q3 8 9.5 15.5 q6.5 7.5 14.5 12.5 q8 5 17.5 7 q9.5 2 17.5 0 q9 -2 17 -8 q8 -6 12.5 -15 q4.5 -9 6 -19 q1.5 -10 -2.5 -19 q-13 -36 -29 -71 l358 0 q9 0 18 -3.5 q9 -3.5 16 -10 q7 -6.5 11.5 -14.5 q4.5 -8 4.5 -17 q0 -9 -4.5 -17.5 q-4.5 -8.5 -11.5 -15 q-7 -6.5 -16 -10.5 q-9 -4 -18 -4 l-383 0 q-9 0 -18 4 q-1 0 -2 1 q-34 -59 -73 -106 q-6 -7 -14.5 -11.5 q-8.5 -4.5 -18 -5.5 q-9.5 -1 -18.5 0.5 q-9 1.5 -15 6.5 q-9 6 -13 16 q-4 10 -4 20.5 q0 10.5 3.5 22 q3.5 11.5 10.5 21.5 q39 44 70 100.5 q31 56.5 54 119.5 Z" /><glyph glyph-name="" unicode="&#x4f2a;" d="M420 543 q0 9 4 17.5 q4 8.5 11.5 15.5 q7.5 7 16.5 11 q9 4 19 4 l162 0 q2 34 3 67 q2 66 2 126 q0 9 4.5 18 q4.5 9 11.5 15.5 q7 6.5 15.5 11 q8.5 4.5 17.5 4.5 l4 0 q9 0 18 -4.5 q9 -4.5 16 -12 q7 -7.5 10.5 -16.5 q3.5 -9 3.5 -18 q-1 -66 -4 -140 q-1 -25 -3 -51 l251 0 q9 0 18.5 -4 q9.5 -4 16.5 -11 q1 -2 2 -3 q5 -4 8 -9 q2 -4 3 -8 q2 -6 2 -13 q0 -6 -1 -11 q-5 -139 -10 -236 q-5 -100 -12 -166 q-7 -66 -16.5 -102.5 q-9.5 -36.5 -22.5 -53.5 q-17 -23 -36 -32.5 q-19 -9.5 -46 -12.5 q-17 -3 -43.5 -3 q-26.5 0 -56.5 1 q-16 0 -31 11.5 q-15 11.5 -19 24.5 q-6 24 8.5 41 q14.5 17 44.5 16 q8 -1 14 -1 l37 0 q14 0 22.5 2.5 q8.5 2.5 16.5 12.5 q10 11 18 44.5 q8 33.5 14 96.5 q6 63 11 161 q3 69 6 159 l-208 0 l0 -1 q-9 -75 -26.5 -149.5 q-17.5 -74.5 -46 -145 q-28.5 -70.5 -70.5 -133 q-42 -62.5 -101 -114.5 q-7 -7 -16.5 -10.5 q-9.5 -3.5 -19 -3.5 q-9.5 0 -18.5 3 q-9 3 -14 9 q-16 15 -14.5 39 q1.5 24 18.5 42 q53 47 90.5 104.5 q37.5 57.5 62 121 q24.5 63.5 38.5 131.5 q11 53 18 107 l-153 0 q-10 0 -19 4 q-9 4 -16.5 10.5 q-7.5 6.5 -11.5 15.5 q-4 9 -4 18 ZM341 797 q3 9 10 15.5 q7 6.5 15.5 10.5 q8.5 4 18 5.5 q9.5 1.5 17.5 -0.5 q9 -3 16.5 -10 q7.5 -7 12 -16 q4.5 -9 5 -19.5 q0.5 -10.5 -3.5 -19.5 q-35 -82 -79 -159 l0 -637 q0 -9 -4 -18 q-4 -9 -10.5 -16 q-6.5 -7 -15 -11.5 q-8.5 -4.5 -17.5 -4.5 q-9 0 -17 4.5 q-8 4.5 -15 11.5 q-7 7 -11 16 q-4 9 -4 18 l0 494 q-19 -26 -39 -49 q-9 -10 -19.5 -14 q-10.5 -4 -21 -3 q-10.5 1 -20 7.5 q-9.5 6.5 -15.5 18.5 q-1 1 -1.5 1 q-0.5 0 -0.5 2 q-8 13 -6 33 q2 20 13 32 q56 62 105.5 142 q49.5 80 86.5 166 ZM720 305 q-5 9 -6.5 19 q-1.5 10 0.5 20 q2 10 7.5 18 q5.5 8 14.5 13 q13 7 31 2.5 q18 -4.5 28 -17.5 q20 -23 40 -49.5 q20 -26.5 34 -49.5 q4 -7 4.5 -16 q0.5 -9 -2 -17.5 q-2.5 -8.5 -7.5 -15.5 q-5 -7 -12 -11 l-1 0 q-8 -5 -19 -6 q-11 -1 -21 2.5 q-10 3.5 -18.5 10 q-8.5 6.5 -14.5 16.5 q-11 18 -26.5 39.5 q-15.5 21.5 -31.5 41.5 ZM465 703 q-5 9 -6.5 19.5 q-1.5 10.5 1.5 20 q3 9.5 9 18 q6 8.5 16 12.5 q12 5 29.5 0.5 q17.5 -4.5 25.5 -16.5 q14 -15 26.5 -31.5 q12.5 -16.5 21.5 -31.5 q5 -7 5.5 -16 q0.5 -9 -2 -18 q-2.5 -9 -8 -16 q-5.5 -7 -13.5 -11 q-9 -4 -19.5 -4 q-10.5 0 -20 3.5 q-9.5 3.5 -18 10.5 q-8.5 7 -13.5 16 q-6 9 -15 21 q-9 12 -19 23 Z" /><glyph glyph-name="" unicode="&#x4f30;" d="M478 300 q0 9 4 18 q4 9 11 16 q7 7 16 11 q9 4 18 4 l162 0 l0 190 l-213 0 q-9 0 -18 4 q-9 4 -16 11 q-7 7 -11.5 15 q-4.5 8 -4.5 17 q0 9 4.5 17.5 q4.5 8.5 11.5 15 q7 6.5 16 10.5 q9 4 18 4 l213 0 l0 163 q0 9 4 18 q4 9 10.5 16 q6.5 7 15.5 11 q9 4 18 4 l5 0 q9 0 18 -4 q9 -4 15.5 -11 q6.5 -7 10.5 -16 q4 -9 4 -18 l0 -163 l225 0 q10 0 18.5 -4 q8.5 -4 16 -10.5 q7.5 -6.5 11.5 -15 q4 -8.5 4 -17.5 q0 -9 -4 -17 q-4 -8 -11.5 -15 q-7.5 -7 -16 -11 q-8.5 -4 -18.5 -4 l-225 0 l0 -190 l168 0 q9 0 18 -4 q9 -4 16 -11 q7 -7 11 -16.5 q4 -9.5 4 -18.5 l0 -329 q0 -10 -4 -19 q-4 -9 -11 -16 q-7 -7 -15.5 -11.5 q-8.5 -4.5 -17.5 -4.5 l-4 0 q-9 0 -17.5 4.5 q-8.5 4.5 -16 11.5 q-7.5 7 -11.5 16 q-1 3 -2 7 l-334 0 q-1 -6 -3 -11 q-4 -9 -11.5 -16 q-7.5 -7 -15.5 -11.5 q-8 -4.5 -18 -4.5 q-9 0 -17.5 4.5 q-8.5 4.5 -15.5 11 q-7 6.5 -11 16 q-4 9.5 -4 18.5 l0 335 ZM337 797 q3 9 10.5 15 q7.5 6 15.5 10.5 q8 4.5 17.5 6 q9.5 1.5 17.5 -1.5 q9 -3 16 -9.5 q7 -6.5 11 -15.5 q4 -9 5 -19.5 q1 -10.5 -3 -19.5 q-37 -86 -83 -168 l0 -629 q0 -9 -4 -18 q-4 -9 -10.5 -16 q-6.5 -7 -15 -11 q-8.5 -4 -17.5 -4 q-9 0 -17 4 q-8 4 -14.5 11 q-6.5 7 -10.5 16 q-4 9 -4 18 l0 487 q-18 -24 -36 -45 q-9 -11 -19 -15 q-10 -4 -20.5 -3 q-10.5 1 -20 7.5 q-9.5 6.5 -15.5 18.5 q-1 1 -1.5 2 q-0.5 1 -1.5 2 q-8 14 -5.5 33 q2.5 19 12.5 32 q57 62 107 143 q50 81 86 169 ZM575 51 l331 0 l0 200 q0 2 -2 4 q-2 2 -4 2 l-319 0 q-2 0 -4 -2 q-2 -2 -2 -4 l0 -200 Z" /><glyph glyph-name="" unicode="&#x4f34;" d="M685 784 q0 9 4 17.5 q4 8.5 11 15.5 q7 7 15.5 11 q8.5 4 17.5 4 l3 0 q9 0 17.5 -4 q8.5 -4 15.5 -11 q7 -7 10.5 -15.5 q3.5 -8.5 3.5 -17.5 l0 -257 l194 0 q18 0 33.5 -14 q15.5 -14 15.5 -32 q0 -8 -4 -16 q-4 -8 -11 -14.5 q-7 -6.5 -16 -10.5 q-9 -4 -18 -4 l-194 0 l0 -155 l235 0 q9 0 18 -4 q9 -4 16 -10.5 q7 -6.5 11 -14.5 q4 -8 4 -17 q0 -8 -4 -16 q-4 -8 -11 -14.5 q-7 -6.5 -16 -10.5 q-9 -4 -18 -4 l-235 0 l0 -226 q0 -9 -3.5 -18 q-3.5 -9 -10.5 -15.5 q-7 -6.5 -15.5 -11 q-8.5 -4.5 -17.5 -4.5 l-3 0 q-9 0 -17.5 4.5 q-8.5 4.5 -15.5 11 q-7 6.5 -11 15.5 q-4 9 -4 18 l0 226 l-227 0 q-8 0 -17.5 4 q-9.5 4 -16.5 10.5 q-7 6.5 -11 14.5 q-4 8 -4 16 q0 9 4 17 q4 8 11 14.5 q7 6.5 16.5 10.5 q9.5 4 17.5 4 l227 0 l0 155 l-186 0 q-9 0 -18 4 q-9 4 -16 10.5 q-7 6.5 -11 14.5 q-4 8 -4 16 q0 9 4 17 q4 8 11 14.5 q7 6.5 16 10.5 q9 4 18 4 l186 0 l0 257 ZM348 799 q3 8 10.5 14.5 q7.5 6.5 15.5 10.5 q8 4 17 5.5 q9 1.5 17 -1.5 q9 -2 16 -9 q7 -7 11.5 -16 q4.5 -9 4.5 -19.5 q0 -10.5 -4 -18.5 q-34 -78 -77 -152 l0 -646 q0 -9 -4 -18 q-4 -9 -10.5 -16 q-6.5 -7 -15 -11 q-8.5 -4 -17.5 -4 q-9 0 -17 4 q-8 4 -14.5 11.5 q-6.5 7.5 -11 16 q-4.5 8.5 -4.5 18.5 l0 504 q-24 -33 -50 -62 q-9 -10 -19 -14 q-10 -4 -21 -2.5 q-11 1.5 -20.5 8 q-9.5 6.5 -15.5 17.5 l-1 1 q0 1 -1 1 q-7 14 -4.5 34 q2.5 20 13.5 33 q59 62 111 142.5 q52 80.5 91 168.5 ZM917 750 q4 9 11 17 q7 8 16 13 q9 5 19 6.5 q10 1.5 20 -2.5 q9 -2 16 -10 q7 -8 10.5 -17.5 q3.5 -9.5 3.5 -20 q0 -10.5 -5 -19.5 q-16 -33 -33.5 -66.5 q-17.5 -33.5 -33.5 -62.5 q-8 -14 -25 -21.5 q-17 -7.5 -31 -1.5 q-8 4 -14 11 q-6 7 -9 16 q-3 9 -3 19.5 q0 10.5 3 19.5 q15 27 29.5 58.5 q14.5 31.5 25.5 60.5 ZM476 714 q-4 9 -3.5 19.5 q0.5 10.5 3.5 19.5 q3 9 9.5 16.5 q6.5 7.5 14.5 11.5 q14 5 31.5 -3 q17.5 -8 24.5 -23 q17 -32 32.5 -67 q15.5 -35 25.5 -64 q5 -15 -3 -32 q-8 -17 -22 -22 q-10 -4 -20.5 -2.5 q-10.5 1.5 -19.5 6.5 q-9 5 -16.5 13.5 q-7.5 8.5 -11.5 19.5 q-8 24 -20 52.5 q-12 28.5 -25 54.5 Z" /><glyph glyph-name="" unicode="&#x4f38;" d="M683 791 q0 9 4 18 q4 9 11 16 q7 7 16 11 q9 4 17.5 4 q8.5 0 17.5 -4 q9 -4 15.5 -11 q6.5 -7 10.5 -16 q4 -9 4 -18 l0 -104 l217 0 q9 0 18 -4.5 q9 -4.5 16 -11 q7 -6.5 11.5 -16 q4.5 -9.5 4.5 -17.5 l0 -438 q0 -9 -4 -18 q-4 -9 -11 -16 q-7 -7 -15.5 -11 q-8.5 -4 -17.5 -4 q-9 0 -17.5 4 q-8.5 4 -15.5 11 q-7 7 -11 17 q-3 5 -4 11 l-171 0 l0 -229 q0 -9 -4 -17.5 q-4 -8.5 -10.5 -16 q-6.5 -7.5 -15.5 -11.5 q-9 -4 -17.5 -4 q-8.5 0 -17.5 4 q-9 4 -16 11.5 q-7 7.5 -11 16 q-4 8.5 -4 17.5 l0 229 l-142 0 q-9 0 -18 4 l-6 2 l0 -8 q0 -9 -4 -18 q-4 -9 -10.5 -16 q-6.5 -7 -14.5 -11.5 q-8 -4.5 -17 -4.5 q-9 0 -17 4.5 q-8 4.5 -14.5 11.5 q-6.5 7 -10.5 16 q-4 9 -4 19 l0 443 q0 10 4.5 19 q4.5 9 11.5 16 q7 7 16 11.5 q9 4.5 18 4.5 l208 0 l0 104 ZM333 797 q4 9 11 15 q7 6 15.5 10.5 q8.5 4.5 17.5 6 q9 1.5 17 -1.5 q9 -3 16 -9.5 q7 -6.5 11.5 -15.5 q4.5 -9 5 -19.5 q0.5 -10.5 -2.5 -19.5 q-36 -83 -80 -162 l0 -635 q0 -9 -4 -18 q-4 -9 -10.5 -16 q-6.5 -7 -15 -11 q-8.5 -4 -17.5 -4 q-9 0 -17 4 q-8 4 -14.5 11 q-6.5 7 -10.5 16 q-4 9 -4 18 l0 492 q-20 -26 -40 -50 q-8 -11 -18.5 -15 q-10.5 -4 -21 -3 q-10.5 1 -20 7.5 q-9.5 6.5 -15.5 18.5 q-1 1 -1 2 q0 1 -2 2 q-7 14 -4.5 33 q2.5 19 12.5 32 q57 62 107 143 q50 81 85 169 ZM779 398 l0 -115 l171 0 l0 116 q-3 -1 -6 -1 l-165 0 ZM779 598 l0 -114 l171 0 l0 107 q0 3 -2 5 q-2 2 -4 2 l-165 0 ZM683 283 l0 115 l-146 0 q-8 0 -17 4 q-2 1 -3 1 l0 -127 q3 2 6 3 q9 4 18 4 l142 0 ZM683 484 l0 114 l-160 0 q-2 0 -4 -2 q-2 -2 -2 -5 l0 -112 q1 1 3 1 q9 4 17 4 l146 0 Z" /><glyph glyph-name="" unicode="&#x4f3c;" d="M881 770 q0 9 4.5 18 q4.5 9 11.5 15.5 q7 6.5 16 10.5 q9 4 18 4 q9 0 17.5 -4.5 q8.5 -4.5 15.5 -11.5 q7 -7 10.5 -16.5 q3.5 -9.5 3.5 -18.5 q-6 -139 -19 -258 q-11 -105 -33 -196 q13 -7 19 -20 q17 -33 34 -68.5 q17 -35.5 32.5 -70 q15.5 -34.5 28.5 -67.5 q13 -33 23 -61 q5 -14 -2.5 -31.5 q-7.5 -17.5 -21.5 -23.5 l-1 -1 q-10 -5 -21 -4.5 q-11 0.5 -21 5 q-10 4.5 -17.5 13 q-7.5 8.5 -11.5 18.5 q-9 27 -21 58 q-12 31 -26 64 q-14 33 -28 65 q-1 3 -2 5 q-18 -46 -39 -88 q-43 -83 -109 -149 q-6 -7 -16 -11 q-10 -4 -20 -4.5 q-10 -0.5 -20 3 q-10 3.5 -16 9.5 q-17 15 -16 39 q1 24 18 42 q60 58 98.5 132.5 q38.5 74.5 61.5 166.5 q23 92 34 201 q11 109 15 235 ZM306 794 q4 9 10.5 16.5 q6.5 7.5 14.5 12 q8 4.5 17 6.5 q9 2 17 -1 q9 -2 16 -8.5 q7 -6.5 11.5 -15 q4.5 -8.5 5 -18.5 q0.5 -10 -2.5 -19 q-27 -76 -61 -149 l0 -652 q0 -10 -4 -19 q-4 -9 -10.5 -16 q-6.5 -7 -14.5 -11 q-8 -4 -17 -4 q-9 0 -17 4 q-8 4 -15 11 q-7 7 -11 16 q-4 9 -4 19 l0 483 q-16 -26 -33 -49 q-8 -11 -18 -16 q-10 -5 -20.5 -4.5 q-10.5 0.5 -19.5 7.5 q-9 7 -15 19 q-1 2 -2 4.5 q-1 2.5 -2 4.5 q-6 11 -4.5 28 q1.5 17 10.5 28 q50 64 94 148 q44 84 75 175 ZM528 50 q-12 -9 -25 -11 q-2 -1 -4 -1 q-2 -2 -5 -3 q-10 -5 -20.5 -5 q-10.5 0 -20 4.5 q-9.5 4.5 -14.5 14.5 q-5 6 -5.5 16 q-0.5 10 1 20 q1.5 10 4.5 20.5 q3 10.5 7 19.5 q2 5 4 7 q2 2 3.5 6 q1.5 4 2.5 12.5 q1 8.5 1 24.5 l0 552 q0 9 3.5 18 q3.5 9 10.5 16 q7 7 16 11.5 q9 4.5 17.5 4.5 q8.5 0 17 -4.5 q8.5 -4.5 15 -11.5 q6.5 -7 10.5 -16 q4 -9 4 -18 l0 -546 l107 70 q11 7 22 9 q11 2 20.5 -0.5 q9.5 -2.5 17.5 -9 q8 -6.5 12 -16.5 q4 -12 -2 -29.5 q-6 -17.5 -21 -26.5 q-37 -26 -65 -46 q-28 -20 -49.5 -35 q-21.5 -15 -37.5 -26.5 q-16 -11.5 -27 -20.5 ZM606 675 q-3 9 -3 19 q0 10 3.5 19 q3.5 9 9.5 16 q6 7 14 10 q7 3 15.5 1.5 q8.5 -1.5 16.5 -5 q8 -3.5 14.5 -10 q6.5 -6.5 9.5 -14.5 q14 -28 28 -58.5 q14 -30.5 26.5 -61 q12.5 -30.5 22.5 -59 q10 -28.5 18 -54.5 q4 -15 -4.5 -32 q-8.5 -17 -22.5 -22 q-10 -4 -20 -3 q-10 1 -19 6.5 q-9 5.5 -16 14.5 q-7 9 -10 20 q-7 23 -16 49.5 q-9 26.5 -19.5 54 q-10.5 27.5 -22.5 55 q-12 27.5 -25 54.5 Z" /><glyph glyph-name="" unicode="&#x4f46;" d="M491 727 q0 9 4 18.5 q4 9.5 11 16.5 q7 7 16 11 q9 4 18 4 l401 0 q10 0 18.5 -4 q8.5 -4 16 -11 q7.5 -7 11.5 -16.5 q4 -9.5 4 -18.5 l0 -520 q0 -9 -4 -18 q-4 -9 -11.5 -16.5 q-7.5 -7.5 -16 -11.5 q-8.5 -4 -18.5 -4 l-401 0 q-9 0 -18 4 q-9 4 -16 11.5 q-7 7.5 -11 16.5 q-4 9 -4 18 l0 520 ZM347 797 q4 9 11 15 q7 6 15.5 10.5 q8.5 4.5 18 5.5 q9.5 1 17.5 -1 l1 0 q10 -3 17 -10 q7 -7 11 -16.5 q4 -9.5 5 -19.5 q1 -10 -4 -19 q-35 -84 -81 -163 l0 -632 q0 -10 -4 -19 q-4 -9 -11 -16 q-7 -7 -15.5 -11 q-8.5 -4 -17.5 -4 q-9 0 -17.5 4 q-8.5 4 -15.5 11 q-7 7 -11.5 16 q-4.5 9 -4.5 18 l0 486 q-19 -25 -39 -49 q-8 -10 -18.5 -14 q-10.5 -4 -21 -2.5 q-10.5 1.5 -19.5 8 q-9 6.5 -16 17.5 q-1 2 -2 3.5 q-1 1.5 -2 3.5 q-8 14 -5 34 q3 20 13 33 q58 61 108.5 142 q50.5 81 87.5 169 ZM413 -2 q0 9 4 17 q4 8 11 14.5 q7 6.5 16 10.5 q9 4 18 4 l559 0 q9 0 18 -4 q9 -4 16 -10.5 q7 -6.5 11 -14.5 q4 -8 4 -17 q0 -8 -4 -16.5 q-4 -8.5 -11 -15 q-7 -6.5 -16 -10.5 q-9 -4 -18 -4 l-559 0 q-9 0 -18 4 q-9 4 -16 10.5 q-7 6.5 -11 15 q-4 8.5 -4 16.5 ZM598 424 q-2 0 -4 -2 q-2 -2 -2 -4 l0 -164 q0 -2 2 -4 q2 -2 4 -2 l281 0 q2 0 4 2 q2 2 2 4 l0 164 q0 2 -2 4 q-2 2 -4 2 l-281 0 ZM598 686 q-2 0 -4 -2 q-2 -2 -2 -4 l0 -160 q0 -2 2 -4 q2 -2 4 -2 l281 0 q2 0 4 2 q2 2 2 4 l0 160 q0 2 -2 4 q-2 2 -4 2 l-281 0 Z" /><glyph glyph-name="" unicode="&#x4f4d;" d="M355 797 q4 9 11 15 q7 6 15.5 10.5 q8.5 4.5 17.5 6 q9 1.5 17 -1.5 q9 -3 16 -9.5 q7 -6.5 11 -15.5 q4 -9 5 -19.5 q1 -10.5 -3 -19.5 q-35 -82 -78 -159 l0 -637 q0 -10 -4 -19 q-4 -9 -10.5 -16 q-6.5 -7 -15.5 -11 q-9 -4 -18 -4 l-3 0 q-8 0 -17 4 q-9 4 -16 11 q-7 7 -10.5 16 q-3.5 9 -3.5 18 l0 486 q-18 -23 -36 -44 q-8 -11 -18.5 -15 q-10.5 -4 -21 -3 q-10.5 1 -20 7.5 q-9.5 6.5 -15.5 18.5 q-1 1 -1.5 2 q-0.5 1 -1.5 2 q-8 14 -5.5 33 q2.5 19 12.5 32 q57 62 107 143 q50 81 86 169 ZM860 481 q2 11 7 19.5 q5 8.5 13 15 q8 6.5 18 9.5 q10 3 19 1 l3 0 q9 -1 17 -7 q8 -6 13.5 -14 q5.5 -8 8 -17.5 q2.5 -9.5 1.5 -18.5 q-9 -51 -20 -105 q-11 -54 -22.5 -107.5 q-11.5 -53.5 -24 -104 q-12.5 -50.5 -24.5 -93.5 q-1 -5 -3 -9 l141 0 q9 0 17.5 -4 q8.5 -4 15.5 -10.5 q7 -6.5 11 -15 q4 -8.5 4 -17.5 q0 -9 -4 -17 q-4 -8 -11 -15 q-7 -7 -15.5 -11 q-8.5 -4 -17.5 -4 l-532 0 q-9 0 -18 4 q-9 4 -16 11 q-7 7 -11 15 q-4 8 -4 17 q0 9 4 17.5 q4 8.5 11 15 q7 6.5 16 10.5 q9 4 18 4 l313 0 q-2 7 -4 15 q-1 10 1 19 q11 43 21.5 93 q10.5 50 20.5 102 q10 52 18.5 104 q8.5 52 14.5 98 ZM466 623 q0 9 4 17 q4 8 11 15 q7 7 16 11 q9 4 18 4 l453 0 q10 0 19 -4 q9 -4 16 -11 q7 -7 11 -15 q4 -8 4 -17 q0 -9 -4 -17.5 q-4 -8.5 -11 -15.5 q-7 -7 -16 -11 q-9 -4 -19 -4 l-453 0 q-9 0 -18 4 q-9 4 -16 11 q-7 7 -11 15.5 q-4 8.5 -4 17.5 ZM537 462 q-2 9 0 18.5 q2 9.5 7 17 q5 7.5 12 13.5 q7 6 15 8 q9 2 18 -0.5 q9 -2.5 16.5 -8 q7.5 -5.5 13.5 -13.5 q6 -8 8 -17 q8 -41 17 -84.5 q9 -43.5 16 -86 q7 -42.5 13 -82 q6 -39.5 10 -71.5 q3 -16 -7.5 -32 q-10.5 -16 -25.5 -20 l-1 0 q-11 -3 -21.5 -1 q-10.5 2 -19.5 7.5 q-9 5.5 -15 15 q-6 9.5 -7 20.5 q-3 33 -8.5 72 q-5.5 39 -12 80 q-6.5 41 -13.5 83 q-7 42 -15 81 ZM678 781 q-3 10 -2 20 q1 10 6 19 q5 9 12.5 16 q7.5 7 17.5 9 l1 0 q15 5 33 -5 q18 -10 23 -25 q6 -18 12 -35 q6 -17 10 -32 q3 -9 2 -18.5 q-1 -9.5 -6 -17.5 q-5 -8 -12 -14.5 q-7 -6.5 -15 -9.5 q-9 -3 -19.5 -1 q-10.5 2 -20 7.5 q-9.5 5.5 -16 13.5 q-6.5 8 -9.5 18 q-3 13 -7.5 27 q-4.5 14 -9.5 28 Z" /></font>
</defs>
</svg>
